<svg xmlns="http://www.w3.org/2000/svg" width="26" height="26" fill="currentColor" class="sym sym-activity-solid" viewBox="0 0 26 26">
  <path fill-rule="evenodd" d="M10.151 5.062c-.3.154-.284.113-1.834 4.687a177 177 0 0 1-.796 2.312l-.058.142h-1.42c-1.29.002-1.436.009-1.597.082-.598.272-.594 1.098.006 1.413.166.087.225.09 2.021.081 1.307-.007 1.88-.024 1.949-.06.205-.106.34-.284.471-.623.112-.289 1.193-3.411 1.524-4.4.049-.15.104-.272.12-.272.018 0 .109.23.204.51q1.824 5.358 3.66 10.71c.348.989.421 1.137.62 1.239.345.174.669.154.95-.059.184-.14.211-.214 1.874-5.103l.643-1.89 1.445-.024c1.268-.02 1.466-.034 1.606-.1a.87.87 0 0 0 .432-.561c.044-.167.04-.225-.025-.396-.096-.252-.285-.444-.493-.502-.098-.027-.863-.045-1.973-.045-1.77 0-1.817.002-1.978.093-.276.156-.255.106-1.276 3.077-.78 2.273-.762 2.226-.784 2.204-.018-.02-.333-.935-2.051-5.983-1.257-3.692-1.933-5.651-2.09-6.055-.145-.374-.337-.519-.716-.537-.209-.009-.33.008-.434.06"/>
</svg>