<svg xmlns="http://www.w3.org/2000/svg" width="26" height="26" fill="currentColor" class="sym sym-airplay-solid" viewBox="0 0 26 26">
  <path d="M7.351 5.025c-.875.04-1.362.174-1.887.518-.655.428-1.134 1.066-1.305 1.74-.133.526-.14.67-.155 3.985-.015 3.323.007 4.324.107 4.835.152.777.642 1.483 1.347 1.943.293.2.64.348 1.014.423l.018.003c.368.077.608.082.704.015a1.3 1.3 0 0 0 .212-.247c.078-.11.908-1.1 1.845-2.2 1.733-2.035 1.872-2.182 2.312-2.443.447-.264.827-.36 1.435-.36.61 0 .99.096 1.436.36.44.26.58.408 2.312 2.443.937 1.1 1.767 2.09 1.845 2.2.077.109.173.221.212.247.096.067.337.061.704-.015a3.1 3.1 0 0 0 1.943-1.325c.358-.532.472-.95.52-1.908.04-.77.04-6.115 0-6.884-.048-.96-.162-1.377-.52-1.908a3.3 3.3 0 0 0-.921-.905l-.013-.008c-.543-.35-.97-.461-1.951-.509-.7-.034-10.48-.033-11.215.001z"/>
  <path d="M12.705 14.863c-.2.051-.373.145-.515.271-.075.066-.867.977-1.76 2.025-1.852 2.175-1.868 2.198-1.865 2.64.002.185.023.31.076.44.084.21.312.473.507.585.31.178.28.176 3.852.176s3.542.002 3.851-.176c.196-.112.423-.374.508-.585.11-.276.105-.635-.013-.882-.115-.242-.147-.282-1.976-2.422-.87-1.02-1.6-1.845-1.671-1.892-.287-.189-.7-.263-.994-.18"/>
</svg>