<svg xmlns="http://www.w3.org/2000/svg" width="26" height="26" fill="currentColor" class="sym sym-airplay" viewBox="0 0 26 26">
  <path d="M15.64 21h-5.33c-.566 0-.98 0-1.345-.287a1.26 1.26 0 0 1-.485-1.018c0-.454.263-.76.627-1.185l2.67-3.133c.222-.257.414-.485.748-.603a1.4 1.4 0 0 1 .9 0c.333.119.525.346.748.603l2.66 3.123c.374.435.627.74.637 1.195 0 .396-.172.771-.496 1.018-.354.287-.768.287-1.345.287zm-4.764-1.779h4.207l-2.103-2.46zm7.777-.583a.896.896 0 0 1-.91-.89c0-.494.404-.889.91-.889.84 0 1.517-.662 1.517-1.482V9.684c0-1.146 0-1.779-.162-2.095a1.56 1.56 0 0 0-.668-.652c-.323-.158-.97-.158-2.143-.158H8.783c-1.173 0-1.82 0-2.144.158a1.5 1.5 0 0 0-.657.652c-.162.316-.162.949-.162 2.095v5.693c0 .82.678 1.482 1.517 1.482.506 0 .91.395.91.89 0 .494-.404.89-.91.89-1.84 0-3.337-1.464-3.337-3.262V9.684c0-1.423 0-2.203.364-2.905A3.34 3.34 0 0 1 5.82 5.356C6.538 5 7.337 5 8.793 5h8.414c1.456 0 2.255 0 2.973.356.637.316 1.132.81 1.456 1.423C22 7.48 22 8.26 22 9.684v5.693c0 1.798-1.497 3.261-3.337 3.261z"/>
</svg>