<svg xmlns="http://www.w3.org/2000/svg" width="26" height="26" fill="currentColor" class="sym sym-alarm-clock-plus-solid" viewBox="0 0 26 26">
  <path d="M6.307 4.057c-.139.048-.392.28-1.648 1.52C3.617 6.604 3.151 7.087 3.096 7.2c-.379.774.43 1.575 1.212 1.2.113-.054.6-.515 1.64-1.547C7.27 5.538 7.431 5.364 7.485 5.205a.88.88 0 0 0-.213-.94.92.92 0 0 0-.972-.206zm12.869-.029a.95.95 0 0 0-.608.484l-.003.005c-.107.205-.105.558.007.776.116.226 2.905 2.987 3.134 3.102a.92.92 0 0 0 1.033-.17.9.9 0 0 0 .171-1.022c-.11-.216-2.905-2.989-3.118-3.095-.172-.084-.456-.122-.615-.081z"/>
  <path fill-rule="evenodd" d="M12.422 5.834a8.3 8.3 0 0 0-3.973 1.35l.03-.02C6.822 8.27 5.61 9.92 5.1 11.85l-.013.056a7.2 7.2 0 0 0-.246 1.887v.082-.005c0 .978.12 1.74.416 2.623.248.738.8 1.77 1.242 2.328l.11.137-.803.8c-.498.498-.832.86-.884.961a.9.9 0 0 0 .17 1.023.92.92 0 0 0 1.033.168c.102-.05.468-.381.971-.875l.808-.794.139.108c.558.435 1.61.986 2.345 1.228a7.7 7.7 0 0 0 2.524.415l.099-.001h-.005.094c.904 0 1.771-.15 2.578-.43l-.054.016c.736-.242 1.787-.793 2.345-1.228l.139-.108.808.794c.503.494.87.824.97.875a.92.92 0 0 0 1.034-.168.9.9 0 0 0 .17-1.023c-.052-.1-.386-.463-.884-.961l-.802-.8.109-.137c.224-.282.557-.818.785-1.264.601-1.173.873-2.318.873-3.668v-.102c0-.669-.09-1.317-.257-1.933l.012.052a8.14 8.14 0 0 0-3.363-4.723l-.03-.018a9.6 9.6 0 0 0-1.603-.822l-.065-.023c-1.034-.383-2.3-.562-3.44-.486zm.965 4.555a.86.86 0 0 1 .453.454c.068.151.073.235.074 1.163v1h1.01c.938 0 1.023.006 1.175.074.22.1.355.232.459.448a.89.89 0 0 1-.435 1.192l-.006.002c-.178.083-.207.084-1.192.086h-1.01l-.001 1c0 .928-.006 1.012-.074 1.162a.87.87 0 0 1-.447.453l-.006.002a.907.907 0 0 1-1.215-.45l-.002-.005c-.068-.15-.073-.235-.074-1.162v-1l-1.01-.001c-.938 0-1.023-.006-1.174-.074a.87.87 0 0 1-.458-.442l-.002-.006a.897.897 0 0 1 .454-1.203l.006-.001c.152-.068.236-.073 1.173-.074h1.01l.001-1c0-.93.006-1.013.074-1.163a.91.91 0 0 1 1.223-.453z"/>
</svg>