<svg xmlns="http://www.w3.org/2000/svg" width="26" height="26" fill="currentColor" class="sym sym-alarm-clock" viewBox="0 0 26 26">
  <path d="M20.268 21.98a.9.9 0 0 1-.637-.262l-1.524-1.505a8.2 8.2 0 0 1-5.109 1.767 8.2 8.2 0 0 1-5.109-1.767l-1.524 1.505a.917.917 0 0 1-1.283 0 .91.91 0 0 1 0-1.282l1.515-1.495a8 8 0 0 1-1.777-5.038c0-2.16.848-4.19 2.403-5.725a8.17 8.17 0 0 1 5.775-2.362c2.181 0 4.23.838 5.775 2.362a8 8 0 0 1 2.403 5.725 7.97 7.97 0 0 1-1.777 5.038l1.515 1.495a.9.9 0 0 1 0 1.282.9.9 0 0 1-.646.272zm-7.27-14.357a6.38 6.38 0 0 0-4.503 1.838 6.17 6.17 0 0 0-1.858 4.432 6.17 6.17 0 0 0 1.858 4.432 6.34 6.34 0 0 0 4.503 1.838 6.38 6.38 0 0 0 4.503-1.838 6.17 6.17 0 0 0 1.858-4.432A6.2 6.2 0 0 0 17.5 9.461a6.34 6.34 0 0 0-4.503-1.838m1.818 8.976a.9.9 0 0 1-.637-.263l-1.817-1.797a.92.92 0 0 1-.273-.646V10.3c0-.505.404-.909.91-.909.504 0 .908.404.908.909v3.21l1.545 1.525a.9.9 0 0 1 0 1.282.9.9 0 0 1-.647.273zm7.269-8.077a.9.9 0 0 1-.636-.263l-2.726-2.696a.9.9 0 0 1 0-1.282.9.9 0 0 1 1.282 0l2.726 2.696a.9.9 0 0 1 0 1.282.9.9 0 0 1-.646.273zm-18.174 0a.9.9 0 0 1-.646-.273.91.91 0 0 1 0-1.282L5.991 4.27a.917.917 0 0 1 1.282 0 .91.91 0 0 1 0 1.282L4.547 8.25a.92.92 0 0 1-.636.263z"/>
</svg>