<svg xmlns="http://www.w3.org/2000/svg" width="26" height="26" fill="currentColor" class="sym sym-alarm-clock-plus" viewBox="0 0 26 26">
  <path d="M20.371 22.086a.9.9 0 0 1-.637-.263l-1.526-1.506a8.22 8.22 0 0 1-5.114 1.769 8.22 8.22 0 0 1-5.115-1.77l-1.526 1.507a.92.92 0 0 1-1.283 0 .91.91 0 0 1 0-1.284l1.516-1.496A8 8 0 0 1 4.906 14c0-2.133.88-4.225 2.406-5.731a8.18 8.18 0 0 1 5.782-2.365c2.183 0 4.235.839 5.781 2.365a8.1 8.1 0 0 1 2.406 5.73 7.97 7.97 0 0 1-1.78 5.044l1.517 1.496a.9.9 0 0 1 0 1.284.9.9 0 0 1-.647.273zM13.094 7.713a6.4 6.4 0 0 0-4.508 1.84 6.18 6.18 0 0 0-1.86 4.437c0 1.677.657 3.244 1.86 4.437a6.34 6.34 0 0 0 4.508 1.84 6.4 6.4 0 0 0 4.508-1.84 6.18 6.18 0 0 0 1.86-4.437 6.2 6.2 0 0 0-1.86-4.438 6.34 6.34 0 0 0-4.508-1.84m0 9.885a.906.906 0 0 1-.91-.91V14.9h-1.82a.906.906 0 0 1-.909-.91c0-.505.404-.91.91-.91h1.82v-1.788c0-.505.403-.91.909-.91.505 0 .91.405.91.91v1.789h1.819c.505 0 .91.404.91.91 0 .505-.405.91-.91.91h-1.82v1.788c0 .506-.404.91-.91.91m9.097-8.986a.9.9 0 0 1-.637-.262l-2.73-2.699a.9.9 0 0 1 0-1.284.9.9 0 0 1 1.284 0l2.73 2.699a.9.9 0 0 1 0 1.284.9.9 0 0 1-.648.273zm-18.194 0a.9.9 0 0 1-.647-.272.91.91 0 0 1 0-1.284l2.73-2.699a.92.92 0 0 1 1.283 0 .91.91 0 0 1 0 1.284L4.633 8.34a.92.92 0 0 1-.636.262z"/>
</svg>