<svg xmlns="http://www.w3.org/2000/svg" width="26" height="26" fill="currentColor" class="sym sym-alert-octagon" viewBox="0 0 26 26">
  <path d="M16.19 23.005H9.81c-.266 0-.44 0-.642-.046a1.8 1.8 0 0 1-.496-.202c-.183-.11-.303-.239-.486-.423L3.67 17.82c-.193-.193-.312-.312-.413-.487a1.8 1.8 0 0 1-.211-.514C3 16.625 3 16.451 3 16.185v-6.38c0-.265 0-.43.046-.632.037-.175.11-.35.211-.505.11-.175.23-.294.413-.478l4.525-4.525c.184-.183.303-.302.477-.413.166-.1.34-.174.514-.21.193-.047.367-.047.624-.047h6.38c.266 0 .44 0 .642.046.165.037.34.11.496.202.183.11.303.239.486.422l4.516 4.516c.193.193.312.312.413.487.101.165.165.33.211.514.046.192.046.367.046.633v6.38c0 .265 0 .43-.046.632-.037.175-.11.35-.211.505-.11.175-.23.294-.413.477l-4.525 4.525c-.184.184-.303.303-.477.414-.165.1-.34.174-.514.21-.193.047-.367.047-.625.047m-6.38-1.653h6.636c.065-.036.11-.091.202-.183l4.516-4.516c.092-.092.147-.138.184-.193.009-.073 0-.147 0-.266V9.558a1 1 0 0 0-.184-.193L16.64 4.84c-.091-.092-.137-.147-.192-.183-.074-.01-.147 0-.267 0H9.544c-.064.036-.11.091-.202.183L4.827 9.356c-.092.092-.147.138-.184.193-.01.073 0 .147 0 .266v6.636c.037.055.092.11.184.193l4.525 4.525c.091.092.137.147.192.183.074.01.147 0 .266 0m3.204-3.855a.823.823 0 0 1-.826-.826c0-.459.367-.826.826-.826s.826.367.826.826a.823.823 0 0 1-.826.826m0-3.67a.823.823 0 0 1-.826-.827V9.329c0-.46.367-.827.826-.827s.826.368.826.827V13a.823.823 0 0 1-.826.826"/>
</svg>