<svg xmlns="http://www.w3.org/2000/svg" width="26" height="26" fill="currentColor" class="sym sym-alert-triangle" viewBox="0 0 26 26">
  <path d="M21.088 22.75H4.892c-1.053 0-1.634 0-2.126-.355a1.85 1.85 0 0 1-.758-1.32c-.06-.6.226-1.102.758-2.017l8.102-13.99.768.442-.758-.453c.522-.905.808-1.398 1.359-1.644a1.87 1.87 0 0 1 1.526 0c.551.246.847.748 1.369 1.644l8.102 13.99c.532.916.817 1.418.758 2.019a1.9 1.9 0 0 1-.758 1.32c-.492.354-1.073.354-2.126.354zM11.627 5.51l.768.443-8.103 13.99c-.246.424-.502.867-.522 1.005.118.03.63.03 1.122.03h16.196c.492 0 .994 0 1.132-.05-.03-.118-.285-.561-.531-.985l-8.103-13.99c-.246-.423-.502-.866-.6-.955-.09.089-.336.522-.582.945zm1.368 13.794a.88.88 0 0 1-.886-.886c0-.493.394-.887.886-.887s.886.394.886.887a.88.88 0 0 1-.886.886m0-3.938a.88.88 0 0 1-.886-.887v-3.938c0-.492.394-.886.886-.886s.886.394.886.886v3.938a.883.883 0 0 1-.886.887"/>
</svg>