<svg xmlns="http://www.w3.org/2000/svg" width="26" height="26" fill="currentColor" class="sym sym-alert-triangle-solid" viewBox="0 0 26 26">
  <path fill-rule="evenodd" d="M12.404 3.077c-.442.145-.746.408-1.11.965-.288.44-8.811 15.542-9.015 15.975a3 3 0 0 0-.233.67l-.004.022c-.056.29-.056.35-.002.622.082.41.228.71.487.996.38.42.745.578 1.474.636.62.05 17.376.05 17.998 0 .729-.059 1.094-.216 1.474-.636.26-.29.409-.594.488-1.005.053-.277.053-.337-.004-.623a3.5 3.5 0 0 0-.246-.706l.01.02c-.205-.432-8.727-15.53-9.016-15.972-.369-.563-.67-.822-1.123-.966-.314-.101-.867-.1-1.178.002m.927 6.47a.99.99 0 0 1 .582.618c.092.315.092 4.318 0 4.633-.21.728-1.223.916-1.673.31-.217-.291-.217-.297-.217-2.625 0-2.431-.003-2.402.293-2.704a.94.94 0 0 1 1.021-.23zm.085 8.028c.482.256.69.826.478 1.307-.176.396-.456.578-.896.579-.25 0-.319-.015-.477-.11a1 1 0 0 1-.493-.866 1 1 0 0 1 .288-.706c.09-.092.24-.195.334-.231.209-.078.591-.065.766.027"/>
</svg>