<svg xmlns="http://www.w3.org/2000/svg" width="26" height="26" fill="currentColor" class="sym sym-align-left-02" viewBox="0 0 26 26">
  <path d="M15.02 11.888H6.94c-1.03 0-1.597 0-2.132-.223a2.9 2.9 0 0 1-1.586-1.587C3 9.542 3 8.975 3 7.944c0-1.032 0-1.598.222-2.134a2.9 2.9 0 0 1 1.586-1.588C5.343 4 5.91 4 6.94 4h8.081c1.03 0 1.596 0 2.131.222a2.9 2.9 0 0 1 1.586 1.588c.223.536.223 1.102.223 2.134s0 1.598-.223 2.134a2.9 2.9 0 0 1-1.585 1.587c-.536.223-1.102.223-2.132.223M6.94 5.82c-.768 0-1.233 0-1.435.081a1.15 1.15 0 0 0-.606.607c-.08.202-.08.667-.08 1.436s0 1.234.08 1.436c.111.273.333.485.606.606.202.081.667.081 1.434.081h8.081c.768 0 1.233 0 1.435-.08.272-.112.484-.334.606-.607.08-.202.08-.668.08-1.436 0-.769 0-1.234-.08-1.436a1.15 1.15 0 0 0-.606-.607c-.202-.08-.667-.08-1.435-.08zM19.06 22H6.94c-1.03 0-1.597 0-2.132-.223a2.9 2.9 0 0 1-1.586-1.587C3 19.654 3 19.088 3 18.056s0-1.598.222-2.134a2.9 2.9 0 0 1 1.586-1.587c.535-.223 1.101-.223 2.131-.223h12.122c1.03 0 1.596 0 2.13.223a2.9 2.9 0 0 1 1.587 1.587c.222.536.222 1.103.222 2.134 0 1.032 0 1.598-.222 2.134a2.9 2.9 0 0 1-1.586 1.587C20.657 22 20.09 22 19.06 22M6.94 15.933c-.768 0-1.233 0-1.435.08a1.15 1.15 0 0 0-.606.607c-.08.203-.08.668-.08 1.436 0 .769 0 1.234.08 1.436.111.273.333.485.606.607.202.08.667.08 1.434.08h12.122c.767 0 1.232 0 1.434-.08.273-.111.485-.334.606-.607.08-.202.08-.667.08-1.436s0-1.233-.08-1.436a1.15 1.15 0 0 0-.606-.607c-.202-.08-.667-.08-1.434-.08z"/>
</svg>