<svg xmlns="http://www.w3.org/2000/svg" width="26" height="26" fill="currentColor" class="sym sym-align-top-arrow-solid" viewBox="0 0 26 26">
  <path d="M7.512 4.022c-.436.035-.648.083-.949.22a2.65 2.65 0 0 0-1.495 1.86l-.003.017C5.003 6.406 5 6.784 5 13.003s.003 6.596.065 6.883a2.64 2.64 0 0 0 1.986 2.04l.017.004c.418.093 2.537.093 2.954 0a2.64 2.64 0 0 0 2.001-2.026l.003-.018c.062-.287.065-.664.065-6.883s-.003-6.597-.065-6.884c-.218-1.03-1.007-1.832-2.003-2.04-.33-.07-1.897-.105-2.511-.057m8.753.003a2.56 2.56 0 0 0-1.372.569l.005-.004a2.62 2.62 0 0 0-.906 1.403l-.004.018-.08.303v9.772l.08.303a2.64 2.64 0 0 0 1.882 1.921c.27.077.348.08 1.584.08s1.315-.003 1.584-.08a2.65 2.65 0 0 0 1.882-1.921l.08-.303V6.314l-.08-.303a2.65 2.65 0 0 0-1.401-1.733l-.015-.007c-.467-.227-.642-.252-1.872-.266-.597-.006-1.213.003-1.367.02"/>
</svg>