<svg xmlns="http://www.w3.org/2000/svg" width="26" height="26" fill="currentColor" class="sym sym-align-horizontal-center" viewBox="0 0 26 26">
  <path d="M17.145 11.988h-8.09c-1.031 0-1.598 0-2.134-.223a2.9 2.9 0 0 1-1.587-1.587c-.223-.536-.223-1.103-.223-2.134 0-1.032 0-1.598.223-2.134A2.9 2.9 0 0 1 6.92 4.323C7.457 4.1 8.024 4.1 9.055 4.1h8.09c1.032 0 1.598 0 2.134.223a2.9 2.9 0 0 1 1.587 1.587c.223.536.223 1.102.223 2.134s0 1.598-.223 2.134a2.9 2.9 0 0 1-1.587 1.587c-.536.223-1.102.223-2.134.223M9.055 5.92c-.768 0-1.234 0-1.436.081a1.15 1.15 0 0 0-.607.607c-.08.202-.08.667-.08 1.436s0 1.234.08 1.436c.112.273.334.485.607.607.202.08.668.08 1.436.08h8.09c.769 0 1.234 0 1.436-.08.273-.112.485-.334.607-.607.08-.202.08-.668.08-1.436 0-.769 0-1.234-.08-1.436A1.15 1.15 0 0 0 18.58 6c-.202-.08-.667-.08-1.436-.08zM19.168 22.1H7.033c-1.032 0-1.598 0-2.134-.222a2.9 2.9 0 0 1-1.588-1.588c-.222-.536-.222-1.102-.222-2.134s0-1.598.222-2.133A2.9 2.9 0 0 1 4.9 14.435c.536-.223 1.102-.223 2.134-.223h12.135c1.031 0 1.597 0 2.133.223a2.9 2.9 0 0 1 1.588 1.588c.222.535.222 1.102.222 2.133 0 1.032 0 1.598-.222 2.134a2.9 2.9 0 0 1-1.588 1.588c-.536.222-1.102.222-2.133.222M7.033 16.033c-.769 0-1.234 0-1.436.08a1.15 1.15 0 0 0-.607.607c-.08.203-.08.668-.08 1.436 0 .769 0 1.234.08 1.436.111.273.334.486.607.607.202.08.667.08 1.436.08h12.135c.768 0 1.233 0 1.436-.08.273-.111.485-.334.606-.607.081-.202.081-.667.081-1.436s0-1.233-.08-1.436a1.15 1.15 0 0 0-.607-.606c-.203-.081-.668-.081-1.436-.081z"/>
</svg>