<svg xmlns="http://www.w3.org/2000/svg" width="26" height="26" fill="currentColor" class="sym sym-align-right-02" viewBox="0 0 26 26">
  <path d="M19.168 11.988h-8.09c-1.032 0-1.598 0-2.134-.223a2.9 2.9 0 0 1-1.588-1.587c-.222-.536-.222-1.103-.222-2.134 0-1.032 0-1.598.222-2.134a2.9 2.9 0 0 1 1.588-1.587C9.48 4.1 10.046 4.1 11.078 4.1h8.09c1.031 0 1.597 0 2.133.223A2.9 2.9 0 0 1 22.89 5.91c.222.536.222 1.102.222 2.134s0 1.598-.222 2.134a2.9 2.9 0 0 1-1.588 1.587c-.536.223-1.102.223-2.133.223m-8.09-6.068c-.769 0-1.234 0-1.436.081a1.15 1.15 0 0 0-.607.607c-.081.202-.081.667-.081 1.436s0 1.234.08 1.436c.112.273.335.485.608.607.202.08.667.08 1.436.08h8.09c.768 0 1.233 0 1.436-.08a1.15 1.15 0 0 0 .606-.607c.081-.202.081-.668.081-1.436 0-.769 0-1.234-.08-1.436A1.15 1.15 0 0 0 20.603 6c-.203-.08-.668-.08-1.436-.08zm8.089 16.18H7.033c-1.032 0-1.598 0-2.134-.222a2.9 2.9 0 0 1-1.588-1.588c-.222-.536-.222-1.102-.222-2.134s0-1.598.222-2.133A2.9 2.9 0 0 1 4.9 14.435c.536-.223 1.102-.223 2.134-.223h12.135c1.031 0 1.597 0 2.133.223a2.9 2.9 0 0 1 1.588 1.588c.222.535.222 1.102.222 2.133 0 1.032 0 1.598-.222 2.134a2.9 2.9 0 0 1-1.588 1.588c-.536.222-1.102.222-2.133.222M7.033 16.033c-.769 0-1.234 0-1.436.08a1.15 1.15 0 0 0-.607.607c-.08.203-.08.668-.08 1.436 0 .769 0 1.234.08 1.436.111.273.334.486.607.607.202.08.667.08 1.436.08h12.135c.768 0 1.233 0 1.436-.08.273-.111.485-.334.606-.607.081-.202.081-.667.081-1.436s0-1.233-.08-1.436a1.15 1.15 0 0 0-.607-.606c-.203-.081-.668-.081-1.436-.081z"/>
</svg>