<svg xmlns="http://www.w3.org/2000/svg" width="26" height="26" fill="currentColor" class="sym sym-align-left-02-solid" viewBox="0 0 26 26">
  <path d="M5.65 4.026c-1.239.135-2.218.97-2.557 2.184-.085.303-.09.391-.09 1.781s.004 1.48.09 1.782c.298 1.067 1.07 1.833 2.136 2.117l.336.09h10.86l.337-.09c1.066-.284 1.838-1.05 2.136-2.117.085-.303.09-.391.09-1.782 0-1.39-.004-1.478-.09-1.781a2.96 2.96 0 0 0-1.573-1.904l-.018-.008c-.64-.307-.262-.289-6.112-.297-2.876-.004-5.372.007-5.545.026m.177 10.018c-.49.035-.727.088-1.067.24a2.96 2.96 0 0 0-1.678 2.046l-.004.02c-.104.469-.104 2.852 0 3.322a2.95 2.95 0 0 0 2.252 2.25l.02.004c.318.07.738.073 7.65.073s7.332-.004 7.65-.073a2.95 2.95 0 0 0 2.268-2.234l.004-.02c.104-.469.104-2.852 0-3.322a2.98 2.98 0 0 0-2.21-2.247l-.02-.004c-.279-.066-.754-.072-7.372-.078-3.89-.004-7.263.006-7.494.024z"/>
</svg>