<svg xmlns="http://www.w3.org/2000/svg" width="26" height="26" fill="currentColor" class="sym sym-align-vertical-center" viewBox="0 0 26 26">
  <path d="M8.56 21.99c-.92 0-1.42 0-1.91-.202A2.72 2.72 0 0 1 5.2 20.32c-.2-.495-.2-1.01-.2-1.931V7.6c0-.93 0-1.436.2-1.931.27-.658.8-1.194 1.45-1.467C7.15 4 7.65 4 8.57 4s1.42 0 1.91.202c.66.283 1.18.8 1.45 1.467.2.495.2 1.01.2 1.941V18.4c0 .93 0 1.436-.2 1.931a2.7 2.7 0 0 1-1.45 1.467c-.5.202-1 .202-1.92.202zm0-16.18c-.64 0-1.06 0-1.23.07a.9.9 0 0 0-.47.476c-.07.162-.07.587-.07 1.244v10.79c0 .647 0 1.072.07 1.244.09.212.26.394.48.475.16.07.58.07 1.22.07s1.06 0 1.23-.07a.9.9 0 0 0 .47-.485c.07-.162.07-.587.07-1.234V7.6c0-.647 0-1.072-.07-1.244a.9.9 0 0 0-.48-.485C9.62 5.8 9.2 5.8 8.56 5.8zm8.88 14.38c-.92 0-1.42 0-1.91-.202a2.72 2.72 0 0 1-1.45-1.466c-.2-.496-.2-1.012-.2-1.932V9.4c0-.93 0-1.436.2-1.931.27-.657.8-1.193 1.45-1.466.49-.203 1-.203 1.91-.203s1.42 0 1.91.203a2.7 2.7 0 0 1 1.45 1.466c.2.505.2 1.011.2 1.941v7.19c0 .93 0 1.436-.2 1.932a2.7 2.7 0 0 1-1.45 1.466c-.49.202-1 .202-1.91.202zm0-12.58c-.64 0-1.06 0-1.23.071a.87.87 0 0 0-.47.475c-.07.162-.07.587-.07 1.244v7.19c0 .647 0 1.072.07 1.244.09.212.26.394.48.475.16.071.58.071 1.22.071s1.06 0 1.22-.07a.88.88 0 0 0 .48-.486c.07-.162.07-.587.07-1.234V9.4c0-.647 0-1.072-.07-1.244a.9.9 0 0 0-.48-.475c-.16-.07-.58-.07-1.22-.07"/>
</svg>