<svg xmlns="http://www.w3.org/2000/svg" width="26" height="26" fill="currentColor" class="sym sym-align-top-arrow" viewBox="0 0 26 26">
  <path d="M8.56 21.99c-.92 0-1.42 0-1.91-.2-.65-.27-1.18-.8-1.45-1.45-.2-.49-.2-1-.2-1.91V7.76c0-.92 0-1.42.2-1.91.27-.65.8-1.18 1.45-1.45.5-.2 1-.2 1.92-.2s1.42 0 1.91.2c.66.28 1.18.79 1.45 1.45.2.49.2 1 .2 1.92v10.67c0 .92 0 1.42-.2 1.91-.27.66-.79 1.17-1.45 1.45-.5.2-1 .2-1.92.2zm0-16c-.64 0-1.06 0-1.23.07a.9.9 0 0 0-.47.47c-.07.16-.07.58-.07 1.23v10.67c0 .64 0 1.06.07 1.23.09.21.26.39.48.47.16.07.58.07 1.22.07s1.06 0 1.23-.07c.21-.09.38-.26.47-.48.07-.16.07-.58.07-1.22V7.76c0-.64 0-1.06-.07-1.23a.9.9 0 0 0-.48-.48c-.16-.07-.58-.07-1.22-.07zm8.88 12.44c-.92 0-1.42 0-1.91-.2-.66-.27-1.18-.79-1.45-1.45-.2-.49-.2-1-.2-1.91V7.76c0-.92 0-1.42.2-1.91.27-.66.79-1.17 1.45-1.45.49-.2 1-.2 1.91-.2s1.42 0 1.91.2c.66.27 1.18.79 1.45 1.45.2.49.2 1 .2 1.92v7.11c0 .92 0 1.42-.2 1.91-.28.66-.79 1.18-1.45 1.45-.49.2-1 .2-1.91.2zm0-12.44c-.64 0-1.06 0-1.23.07a.9.9 0 0 0-.47.47c-.07.16-.07.59-.07 1.23v7.11c0 .64 0 1.06.07 1.23.09.22.26.38.47.47.16.07.58.07 1.23.07s1.06 0 1.23-.07a.87.87 0 0 0 .48-.48c.07-.16.07-.58.07-1.22V7.76c0-.64 0-1.06-.07-1.23a.88.88 0 0 0-.48-.47c-.16-.07-.58-.07-1.22-.07z"/>
</svg>