<svg xmlns="http://www.w3.org/2000/svg" width="26" height="26" fill="currentColor" class="sym sym-align-bottom-solid" viewBox="0 0 26 26">
  <path d="M6.826 3.025c-.491.038-.73.092-1.067.243a2.96 2.96 0 0 0-1.682 2.067l-.004.02c-.07.318-.073.738-.073 7.648s.004 7.33.073 7.648a2.95 2.95 0 0 0 2.234 2.267l.02.004c.47.104 2.853.104 3.323 0a2.96 2.96 0 0 0 2.25-2.251l.005-.02c.069-.318.072-.738.072-7.648s-.003-7.33-.072-7.649A2.94 2.94 0 0 0 9.65 3.088c-.372-.078-2.134-.117-2.825-.063m9.848 4.009a2.9 2.9 0 0 0-1.543.632l.005-.004a2.9 2.9 0 0 0-1.019 1.558l-.004.02-.09.337v10.858l.09.336c.283 1.065 1.049 1.837 2.117 2.136.303.085.392.09 1.782.09s1.479-.005 1.782-.09c1.067-.299 1.833-1.071 2.117-2.136l.09-.336V9.577l-.09-.336a2.95 2.95 0 0 0-1.576-1.926l-.017-.008c-.526-.252-.722-.28-2.105-.295-.673-.007-1.365.003-1.539.022"/>
</svg>