<svg xmlns="http://www.w3.org/2000/svg" width="26" height="26" fill="currentColor" class="sym sym-align-bottom" viewBox="0 0 26 26">
  <path d="M8.005 22.989c-1.035 0-1.597 0-2.149-.225a3.05 3.05 0 0 1-1.631-1.63C4 20.585 4 20.012 4 18.99V7c0-1.034 0-1.595.225-2.146.304-.73.9-1.326 1.631-1.63C6.42 3 6.981 3 8.016 3s1.598 0 2.149.225a3 3 0 0 1 1.631 1.629c.225.55.225 1.124.225 2.157V19c0 1.034 0 1.596-.225 2.146a3 3 0 0 1-1.631 1.63C9.603 23 9.04 23 8.005 23zm0-17.978c-.72 0-1.193 0-1.384.079a1 1 0 0 0-.529.528c-.078.18-.078.652-.078 1.382v11.989c0 .719 0 1.19.079 1.382a.96.96 0 0 0 .54.528c.18.078.652.078 1.372.078s1.193 0 1.384-.078a1 1 0 0 0 .529-.54c.078-.18.078-.651.078-1.37V7c0-.72 0-1.191-.078-1.382a1 1 0 0 0-.54-.54C9.198 5 8.724 5 8.005 5zm9.99 17.978c-1.035 0-1.598 0-2.149-.225a3 3 0 0 1-1.631-1.63c-.225-.55-.225-1.123-.225-2.145V11c0-1.034 0-1.595.225-2.146a2.97 2.97 0 0 1 1.631-1.63C16.398 7 16.971 7 17.995 7s1.598 0 2.149.225a2.97 2.97 0 0 1 1.631 1.629C22 9.404 22 9.978 22 11v7.989c0 1.034 0 1.595-.225 2.146a3 3 0 0 1-1.631 1.63c-.551.224-1.125.224-2.149.224m0-13.978c-.72 0-1.193 0-1.384.079a.97.97 0 0 0-.529.528c-.078.18-.078.663-.078 1.382v7.989c0 .719 0 1.19.078 1.382.102.236.293.438.54.54.18.078.653.078 1.373.078s1.192 0 1.384-.079a.98.98 0 0 0 .54-.54c.078-.179.078-.65.078-1.37v-7.989c0-.719 0-1.19-.078-1.382a1 1 0 0 0-.529-.528c-.18-.079-.652-.079-1.384-.079z"/>
</svg>