<svg xmlns="http://www.w3.org/2000/svg" width="26" height="26" fill="currentColor" class="sym sym-announcement-02-solid" viewBox="0 0 26 26">
  <path fill-rule="evenodd" d="M18.956 3.025c-1.287.157-3.207.51-8.73 1.602 2.623-.405 1.51-.184.395.034l-3.684.601c-.921.174-1.836.364-2.034.421-1.183.343-2.15 1.273-2.583 2.485-.427 1.193-.427 3.432 0 4.625.424 1.186 1.347 2.093 2.506 2.466l.28.09.193 2.72c.21 2.983.246 3.246.494 3.765q.446.93 1.41 1.109c.46.085 3.262.072 3.654-.017.986-.224 1.492-.887 1.577-2.069.015-.231-.024-.95-.127-2.269-.081-1.06-.138-1.93-.124-1.93.088 0 1.164.24 2.309.514 2.731.654 3.927.843 5.054.795.587-.025.863-.09 1.303-.306 1.568-.77 2.687-2.808 3.077-5.602.099-.703.099-2.456 0-3.159-.436-3.123-1.816-5.333-3.635-5.816-.299-.08-.941-.109-1.335-.06zM20.07 5.15c.898.516 1.641 2.125 1.882 4.073.029.23.051.798.051 1.26 0 .907-.047 1.409-.203 2.16-.302 1.444-.92 2.631-1.613 3.095-.326.218-.485.257-.814.2-.56-.098-1.055-.601-1.513-1.536-.552-1.13-.796-2.332-.796-3.92 0-.907.047-1.409.203-2.16.277-1.325.863-2.51 1.486-3.005.265-.21.49-.287.84-.29a.73.73 0 0 1 .476.122z"/>
</svg>