<svg xmlns="http://www.w3.org/2000/svg" width="26" height="26" fill="currentColor" class="sym sym-annotation-solid" viewBox="0 0 26 26">
  <path d="M7.763 4.032c-.745.052-1.281.228-1.81.593-.462.32-.97.953-1.172 1.465-.126.316-.21.73-.253 1.234-.026.31-.033 1.709-.024 4.446.012 3.898.014 4.002.083 4.307.136.603.343 1.039.709 1.492a3.5 3.5 0 0 0 1.377 1.006l.023.008c.48.175.73.204 1.97.227 1.153.023 1.16.024 1.328.11.153.081.255.205 1.077 1.326.5.681.993 1.318 1.097 1.417.247.237.496.337.838.337.343 0 .59-.1.839-.337.103-.1.595-.736 1.096-1.417.822-1.12.924-1.245 1.077-1.325.169-.087.176-.088 1.328-.11 1.24-.024 1.49-.053 1.97-.228.875-.318 1.664-1.127 1.975-2.024.217-.625.209-.442.209-5.103 0-4.681.005-4.556-.219-5.222-.192-.574-.716-1.262-1.221-1.61-.554-.38-1.052-.537-1.889-.596-.575-.04-9.83-.036-10.408.004"/>
</svg>