<svg xmlns="http://www.w3.org/2000/svg" width="26" height="26" fill="currentColor" class="sym sym-announcement-solid" viewBox="0 0 26 26">
  <path fill-rule="evenodd" d="M18.221 3.028c-.32.06-.787.262-1.79.77-1.952.991-2.976 1.383-4.157 1.587-.425.074-.658.083-3.045.106-2.237.023-2.625.036-2.885.092A5.6 5.6 0 0 0 3.687 6.93l.001-.001c-.82.743-1.318 1.57-1.583 2.627C2.01 9.94 2 10.054 2 10.684c0 .622.012.749.106 1.127A5.1 5.1 0 0 0 3.642 14.4l.002.001.378.352.82 3.1c.45 1.704.864 3.21.918 3.345.35.88 1.214 1.555 2.237 1.753.442.084 1.42.056 1.793-.054.556-.162.938-.375 1.318-.733.541-.512.804-1.079.888-1.91.05-.484.058-2.154.015-3.42l-.027-.88.135.021c.568.109 1.05.235 1.517.388l-.082-.024c.909.296 1.72.653 3.39 1.49 1.015.508 1.49.625 2.024.497.378-.091.663-.24.927-.486.477-.444.591-.834.625-2.136l.023-.874.268-.066c.375-.091 1.017-.398 1.393-.666.85-.616 1.463-1.489 1.713-2.493l.006-.03c.103-.424.103-1.358 0-1.781-.327-1.33-1.262-2.406-2.506-2.97l-.028-.011a4 4 0 0 0-.558-.203l-.289-.071-.023-.875c-.026-.978-.084-1.34-.273-1.695-.356-.667-1.256-1.085-2.025-.94m3.05 6.006c.24.227.358.376.467.588.159.308.274.756.274 1.062s-.115.753-.274 1.061c-.174.34-.668.833-.999 1l-.21.105V8.52l.21.105c.117.057.355.242.532.41"/>
</svg>