<svg xmlns="http://www.w3.org/2000/svg" width="26" height="26" fill="currentColor" class="sym sym-announcement" viewBox="0 0 26 26">
  <path d="M8.714 23c-.222 0-.333 0-.434-.01-1.161-.086-2.16-.822-2.534-1.874a5 5 0 0 1-.111-.401L4.05 14.7C2.808 13.745 2 12.29 2 10.666c0-2.85 2.443-5.163 5.452-5.163h3.786c1.293 0 3.1-.574 5.21-1.673 1.191-.612 1.736-.88 2.342-.822.546.067 1.01.325 1.323.745.353.469.353 1.062.353 2.247v.545C22.486 6.947 24 8.64 24 10.666s-1.515 3.72-3.534 4.12v.546c0 1.185 0 1.778-.363 2.247a1.92 1.92 0 0 1-1.323.746c-.606.067-1.15-.21-2.322-.813-1.787-.928-3.352-1.482-4.574-1.635v4.12c0 .259 0 .393-.01.498-.141 1.32-1.242 2.371-2.635 2.495-.121.01-.262.01-.535.01zm0-1.721h.364a1.1 1.1 0 0 0 1-.947v-4.494H7.451q-.651 0-1.272-.143l1.222 4.618c.04.134.05.201.07.268.142.392.515.679.96.707h.282zm3.18-7.142c1.505.143 3.322.765 5.432 1.845.606.306 1.161.593 1.323.622.01-.125.01-.717.01-1.282V6c0-.564 0-1.157-.05-1.31-.132.048-.687.335-1.273.64-2.11 1.09-3.937 1.712-5.442 1.856zM7.452 7.224c-1.999 0-3.635 1.54-3.635 3.442s1.636 3.442 3.635 3.442h2.625V7.224zm13.024 1.11v4.665c1-.354 1.717-1.262 1.717-2.333 0-1.07-.717-1.98-1.717-2.333"/>
</svg>