<svg xmlns="http://www.w3.org/2000/svg" width="26" height="26" fill="currentColor" class="sym sym-annotation-info" viewBox="0 0 26 26">
  <path d="M12.962 24a1.7 1.7 0 0 1-.613-.116c-.446-.181-.689-.504-.995-.917L9.759 20.81h-.013c-.23-.336-.383-.542-.472-.62a1.1 1.1 0 0 0-.421-.22c-.115-.025-.37-.025-.792-.025-1.684 0-2.526 0-3.33-.349-1.098-.452-1.94-1.317-2.4-2.428C2 16.342 2 15.49 2 13.798V7.483c0-1.976 0-3.074.485-4.03a4.48 4.48 0 0 1 1.94-1.962C5.369 1 6.454 1 8.406 1h9.188c1.952 0 3.037 0 3.981.49a4.48 4.48 0 0 1 1.94 1.964C24 4.409 24 5.494 24 7.483v6.315c0 1.704 0 2.557-.332 3.37a4.4 4.4 0 0 1-2.399 2.428c-.816.336-1.659.336-3.33.336-.422 0-.664 0-.792.026a1.15 1.15 0 0 0-.433.22c-.09.077-.243.284-.473.593l-1.62 2.183c-.307.413-.549.749-.996.917a1.7 1.7 0 0 1-.625.116zm-1.378-4.585 1.378 1.86 1.378-1.86c.357-.49.561-.761.868-1.007a3.44 3.44 0 0 1 1.365-.697c.37-.09.727-.09 1.314-.09 1.328 0 2.068 0 2.45-.168.524-.22.945-.633 1.162-1.176.166-.4.166-1.136.166-2.48V7.484c0-1.614 0-2.505-.23-2.97a2.07 2.07 0 0 0-.931-.943c-.46-.233-1.34-.233-2.936-.233H8.382c-1.596 0-2.476 0-2.936.233a2.13 2.13 0 0 0-.931.943c-.23.465-.23 1.356-.23 2.97v6.315c0 1.343 0 2.092.166 2.48.217.529.625.942 1.149 1.162.395.168 1.123.168 2.462.168.588 0 .932 0 1.315.09.498.116.97.361 1.365.697.294.246.51.53.843.995l-.906.71.918-.697zm1.378-3.9a1.15 1.15 0 0 1-1.149-1.162V10.48c0-.646.51-1.162 1.149-1.162a1.15 1.15 0 0 1 1.148 1.162v3.874a1.15 1.15 0 0 1-1.148 1.162m0-7.748a1.15 1.15 0 0 1-1.149-1.162c0-.646.51-1.163 1.149-1.163a1.15 1.15 0 0 1 1.148 1.163 1.15 1.15 0 0 1-1.148 1.162"/>
</svg>