<svg xmlns="http://www.w3.org/2000/svg" width="26" height="26" fill="currentColor" class="sym sym-annotation-check" viewBox="0 0 26 26">
  <path d="M13.47 22c-.157 0-.325-.03-.473-.091-.345-.142-.532-.394-.769-.718l-1.233-1.687h-.01c-.177-.263-.295-.425-.364-.486a.85.85 0 0 0-.326-.171c-.088-.02-.286-.02-.611-.02-1.302 0-1.953 0-2.574-.273-.848-.354-1.499-1.031-1.854-1.9C5 16.007 5 15.34 5 14.016V9.074c0-1.547 0-2.406.375-3.154a3.5 3.5 0 0 1 1.499-1.536C7.604 4 8.44 4 9.95 4h7.1c1.509 0 2.347 0 3.076.384.651.344 1.164.87 1.5 1.536C22 6.668 22 7.517 22 9.074v4.942c0 1.334 0 2-.256 2.638a3.43 3.43 0 0 1-1.854 1.9c-.631.262-1.282.262-2.574.262-.325 0-.513 0-.611.02a.9.9 0 0 0-.335.172c-.07.061-.188.223-.365.465l-1.253 1.708c-.236.324-.424.586-.769.718-.158.06-.315.09-.483.09zm-1.065-3.588 1.065 1.455 1.065-1.455c.277-.384.434-.596.67-.788a2.65 2.65 0 0 1 1.056-.546c.286-.07.562-.07 1.016-.07 1.025 0 1.597 0 1.893-.132.404-.172.73-.495.897-.92.128-.313.128-.89.128-1.94V9.074c0-1.264 0-1.961-.177-2.325a1.6 1.6 0 0 0-.72-.738c-.355-.182-1.035-.182-2.268-.182h-7.1c-1.232 0-1.913 0-2.268.182a1.66 1.66 0 0 0-.72.738c-.177.364-.177 1.061-.177 2.325v4.942c0 1.05 0 1.637.128 1.94.168.415.483.738.888.91.305.131.867.131 1.903.131.454 0 .72 0 1.016.07.384.092.749.284 1.055.547.226.192.394.414.65.778l-.7.556.71-.546zm.217-3.911a.88.88 0 0 1-.63-.263l-1.687-1.728a.925.925 0 0 1 0-1.284.87.87 0 0 1 1.252 0l1.065 1.092 3.176-3.255a.87.87 0 0 1 1.252 0 .925.925 0 0 1 0 1.284l-3.806 3.901a.88.88 0 0 1-.631.263z"/>
</svg>