<svg xmlns="http://www.w3.org/2000/svg" width="26" height="26" fill="currentColor" class="sym sym-annotation-info-solid" viewBox="0 0 26 26">
  <path fill-rule="evenodd" d="M6.223 1.04c-.964.067-1.658.292-2.344.759-.597.408-1.253 1.218-1.516 1.871-.162.404-.272.934-.326 1.577-.034.397-.044 2.184-.032 5.682.015 4.98.019 5.112.108 5.503.176.77.443 1.327.917 1.907a4.5 4.5 0 0 0 1.782 1.284l.03.011c.621.223.944.26 2.55.29 1.492.03 1.5.03 1.718.141.198.103.33.262 1.394 1.694.648.87 1.285 1.684 1.419 1.81.32.303.642.431 1.085.431a1.45 1.45 0 0 0 1.085-.431c.133-.126.77-.94 1.42-1.81 1.063-1.432 1.195-1.59 1.393-1.694.218-.11.227-.112 1.718-.14 1.606-.03 1.929-.068 2.55-.29 1.132-.408 2.153-1.44 2.555-2.588.28-.798.271-.564.271-6.52 0-5.981.007-5.821-.283-6.672-.249-.734-.927-1.613-1.581-2.058-.716-.484-1.361-.686-2.444-.76-.744-.052-12.72-.048-13.469.003m7.255 4.513c.82.429.844 1.582.042 1.998-.717.374-1.614-.176-1.614-.988 0-.428.317-.895.708-1.04.236-.088.667-.073.864.03m-.058 3.879c.207.087.459.324.57.535.097.18.098.217.11 2.361.014 2.479.016 2.475-.318 2.813a1.073 1.073 0 0 1-1.546 0c-.334-.338-.333-.334-.318-2.813.012-2.143.013-2.181.109-2.36a1.37 1.37 0 0 1 .56-.535c.178-.079.652-.08.835-.002z"/>
</svg>