<svg xmlns="http://www.w3.org/2000/svg" width="26" height="26" fill="currentColor" class="sym sym-announcement-02" viewBox="0 0 26 26">
  <path d="M9.84 23.09H8.044c-.626 0-1 0-1.393-.192a1.87 1.87 0 0 1-.828-.778c-.222-.384-.242-.777-.292-1.384l-.384-5.343a4.2 4.2 0 0 1-.847-.283 3.96 3.96 0 0 1-2.049-2.464c-.151-.526-.151-1.05-.151-2.081s0-1.556.151-2.081A3.92 3.92 0 0 1 4.3 6.029c.494-.242 1.029-.333 2.008-.515L18.75 3.252c.283-.101.585-.152.888-.152h.04c2.483.02 4.42 3.293 4.42 7.475s-1.937 7.454-4.42 7.475h-.04c-.303 0-.605-.05-.888-.152l-6.67-1.212.282 3.697c.05.707.09 1.131-.111 1.576a1.95 1.95 0 0 1-.848.909c-.424.232-.858.232-1.564.232zm-2.846-7.343.343 4.868c.02.263.04.556.06.637.082.02.364.02.637.02H9.83c.313 0 .646 0 .737-.02.02-.101 0-.425-.03-.738l-.324-4.171-3.24-.586zm12.241.383.495.091c1.221-.09 2.553-2.474 2.553-5.656s-1.332-5.566-2.553-5.657L19.235 5c-1.11.475-2.19 2.697-2.19 5.566s1.09 5.09 2.19 5.565M16.36 5.524 6.651 7.292c-.828.152-1.282.232-1.544.364a2.12 2.12 0 0 0-1.1 1.323c-.08.283-.08.747-.08 1.586 0 .838 0 1.303.08 1.586.161.575.565 1.06 1.1 1.323.262.131.716.212 1.534.364l9.718 1.767c-.706-1.323-1.13-3.08-1.13-5.04s.424-3.717 1.13-5.04"/>
</svg>