<svg xmlns="http://www.w3.org/2000/svg" width="26" height="26" fill="currentColor" class="sym sym-annotation-check-solid" viewBox="0 0 26 26">
  <path fill-rule="evenodd" d="M8.263 4.032c-.745.052-1.281.228-1.81.593-.462.32-.97.953-1.172 1.465-.126.316-.21.73-.253 1.234-.026.31-.033 1.709-.024 4.446.012 3.898.014 4.002.083 4.307.136.603.343 1.039.709 1.492a3.5 3.5 0 0 0 1.377 1.006l.023.008c.48.175.73.204 1.97.227 1.153.023 1.16.024 1.328.11.153.081.255.205 1.077 1.326.5.681.993 1.318 1.097 1.417.247.237.496.337.838.337.343 0 .59-.1.839-.337.103-.1.595-.736 1.096-1.417.822-1.12.924-1.245 1.077-1.325.169-.087.176-.088 1.328-.11 1.24-.024 1.49-.053 1.97-.228.875-.318 1.664-1.127 1.975-2.024.217-.625.209-.442.209-5.103 0-4.681.005-4.556-.219-5.222-.192-.574-.716-1.262-1.221-1.61-.554-.38-1.052-.537-1.889-.596-.575-.04-9.83-.036-10.408.004M16.93 8.93c.24.152.367.377.384.684.023.426.078.359-2.181 2.667-1.903 1.943-2.029 2.066-2.201 2.122a.85.85 0 0 1-.661-.049l.005.003c-.103-.05-.45-.384-1.107-1.06-.84-.865-.963-1.007-1.012-1.158-.11-.34-.039-.668.198-.91a.82.82 0 0 1 .889-.204c.142.05.263.155.79.688l.622.63 1.659-1.697c1.235-1.264 1.697-1.715 1.812-1.77a.9.9 0 0 1 .803.053z"/>
</svg>