<svg xmlns="http://www.w3.org/2000/svg" width="26" height="26" fill="currentColor" class="sym sym-annotation" viewBox="0 0 26 26">
  <path d="M12.85 22.095c-.157 0-.325-.03-.473-.091-.345-.142-.533-.394-.77-.718L10.376 19.6c-.187-.263-.305-.425-.374-.486a.85.85 0 0 0-.326-.171c-.089-.02-.286-.02-.611-.02-1.302 0-1.953 0-2.574-.273-.848-.354-1.499-1.031-1.854-1.9-.256-.647-.256-1.314-.256-2.638V9.168c0-1.546 0-2.405.375-3.153A3.5 3.5 0 0 1 6.253 4.48c.73-.384 1.568-.384 3.077-.384h7.1c1.509 0 2.347 0 3.076.384.651.344 1.164.87 1.5 1.536.374.748.374 1.597.374 3.153v4.943c0 1.334 0 2-.256 2.637a3.43 3.43 0 0 1-1.854 1.9c-.631.263-1.282.263-2.574.263-.325 0-.513 0-.611.02a.9.9 0 0 0-.336.172c-.069.061-.187.223-.365.465l-1.252 1.708c-.236.324-.424.587-.769.718-.158.06-.316.09-.483.09zM9.3 5.925c-1.232 0-1.913 0-2.268.181a1.66 1.66 0 0 0-.72.738c-.177.364-.177 1.061-.177 2.324v4.943c0 1.05 0 1.637.128 1.94.168.415.483.738.888.91.305.131.868.131 1.903.131.454 0 .72 0 1.016.07.384.092.749.284 1.055.547.226.192.394.414.65.778l1.075 1.465 1.065-1.455c.276-.384.434-.596.67-.788a2.65 2.65 0 0 1 1.056-.546c.286-.07.562-.07 1.016-.07 1.025 0 1.597 0 1.893-.132.404-.172.73-.495.897-.92.128-.313.128-.89.128-1.94V9.158c0-1.263 0-1.96-.177-2.324a1.6 1.6 0 0 0-.72-.738c-.355-.182-1.035-.182-2.268-.182h-7.1z"/>
</svg>