<svg xmlns="http://www.w3.org/2000/svg" width="26" height="26" fill="currentColor" class="sym sym-archive" viewBox="0 0 26 26">
  <path d="M15.688 20.895h-5.177c-1.456 0-2.255 0-2.973-.355a3.34 3.34 0 0 1-1.456-1.422c-.364-.7-.364-1.48-.364-2.902v-5.754A2.47 2.47 0 0 1 4.15 8.636c-.05-.237-.05-.464-.05-.879 0-.414 0-.641.05-.878a2.47 2.47 0 0 1 1.982-1.935c.243-.049.475-.049.9-.049h12.135c.425 0 .657 0 .9.05 1.011.197 1.79.957 1.982 1.934.05.237.05.464.05.878 0 .415 0 .642-.05.879a2.5 2.5 0 0 1-1.567 1.826v5.754c0 1.422 0 2.201-.364 2.902a3.34 3.34 0 0 1-1.457 1.422c-.718.355-1.516.355-2.973.355M7.538 10.63v5.586c0 1.145 0 1.777.162 2.093.151.276.374.503.667.651.324.158.97.158 2.144.158h5.177c1.173 0 1.82 0 2.144-.158a1.48 1.48 0 0 0 .657-.651c.162-.316.162-.948.162-2.093V10.63H7.528zM19.49 8.853h.05c.071 0 .122 0 .162-.01a.69.69 0 0 0 .556-.543c.01-.069.01-.266.01-.533 0-.266 0-.464-.01-.533a.69.69 0 0 0-.556-.543c-.07-.01-.273-.01-.546-.01H7.022c-.263 0-.475 0-.546.01a.69.69 0 0 0-.556.543c-.01.07-.01.267-.01.533 0 .267 0 .464.01.533.06.277.273.494.556.543.04 0 .091 0 .162.01zm-4.773 5.725h-3.236a.896.896 0 0 1-.91-.888c0-.494.404-.889.91-.889h3.236c.505 0 .91.395.91.889a.896.896 0 0 1-.91.888"/>
</svg>