<svg xmlns="http://www.w3.org/2000/svg" width="26" height="26" fill="currentColor" class="sym sym-archive-solid" viewBox="0 0 26 26">
  <path d="M6.044 5.021a2.6 2.6 0 0 0-1.473.831 2.35 2.35 0 0 0-.383 2.46 2.48 2.48 0 0 0 1.305 1.286l.016.006c.498.2.062.188 7.49.188 7.426 0 6.993.01 7.489-.187a2.5 2.5 0 0 0 1.317-1.279l.006-.015c.12-.272.189-.588.189-.92a2.38 2.38 0 0 0-1.378-2.147l-.015-.006c-.542-.255.193-.232-7.51-.238-3.79-.002-6.965.007-7.053.021"/>
  <path fill-rule="evenodd" d="M6.27 11.423a.86.86 0 0 0-.549.43l-.002.004c-.07.128-.07.142-.08 2.595-.016 3.946.027 4.34.555 5.112a3.13 3.13 0 0 0 1.991 1.325c.481.09 1.392.111 4.813.111s4.332-.021 4.812-.111a3.14 3.14 0 0 0 1.987-1.319c.534-.785.576-1.174.56-5.149-.01-2.42-.01-2.435-.08-2.563a.93.93 0 0 0-.383-.377l-.005-.002-.132-.069-6.695-.005c-3.682-.003-6.74.006-6.793.019zm8.693 2.44a.77.77 0 0 1 .413.397c.048.1.077.216.077.34 0 .325-.2.605-.485.729l-.005.002c-.143.063-.207.065-1.965.065h-1.817l-.164-.075a.78.78 0 0 1-.473-.714v-.011a.78.78 0 0 1 .473-.724l.164-.075h1.817c1.758 0 1.822.002 1.965.065"/>
</svg>