<svg xmlns="http://www.w3.org/2000/svg" width="26" height="26" fill="currentColor" class="sym sym-arrow-circle-down-left-solid" viewBox="0 0 26 26">
  <path fill-rule="evenodd" d="M12.068 2.04a11.1 11.1 0 0 0-5.22 1.836l.04-.026c-1.213.81-2.422 2.043-3.2 3.262-.813 1.273-1.379 2.827-1.614 4.434-.099.674-.099 2.251 0 2.923.288 1.954.98 3.63 2.14 5.182.455.61 1.527 1.681 2.137 2.136 1.554 1.16 3.231 1.851 5.187 2.139.674.099 2.25.099 2.925 0 1.955-.288 3.632-.98 5.185-2.139.61-.454 1.682-1.525 2.138-2.136 1.16-1.552 1.852-3.228 2.14-5.182.099-.674.099-2.25 0-2.923-.288-1.954-.981-3.632-2.14-5.183-.402-.537-1.466-1.621-1.974-2.01-2.267-1.742-4.954-2.545-7.743-2.314zM10.65 9.317c.108.057.238.159.29.227.216.285.216.283.216 2.15v1.733l2.033-2.028c1.418-1.414 2.088-2.056 2.213-2.117.492-.244 1.132-.006 1.348.501.098.231.088.6-.023.823-.063.124-.709.798-2.118 2.21l-2.03 2.032h1.734c1.868 0 1.866 0 2.15.217.069.051.175.189.238.304.222.406.133.9-.216 1.216-.298.27-.247.265-3.486.265-3.276 0-3.19.007-3.508-.286-.334-.309-.319-.135-.319-3.558 0-3.331-.009-3.203.252-3.492.323-.357.79-.433 1.226-.199z"/>
</svg>