<svg xmlns="http://www.w3.org/2000/svg" width="26" height="26" fill="currentColor" class="sym sym-arrow-circle-up-left" viewBox="0 0 26 26">
  <path d="M13.1 24.1c-6.065 0-11-4.935-11-11s4.935-11 11-11 11 4.935 11 11-4.935 11-11 11m0-20.183c-5.066 0-9.183 4.117-9.183 9.183s4.117 9.184 9.183 9.184 9.184-4.118 9.184-9.184-4.118-9.183-9.184-9.183m3.028 13.119a.94.94 0 0 1-.646-.263l-4.501-4.5v3.865a.904.904 0 0 1-.908.908.905.905 0 0 1-.909-.908v-6.065a.8.8 0 0 1 .071-.323.7.7 0 0 1 .202-.293c.09-.09.192-.151.292-.202.101-.04.212-.06.323-.07h6.076c.504 0 .908.403.908.908a.904.904 0 0 1-.908.908h-3.866l4.501 4.5a.91.91 0 0 1 0 1.283.9.9 0 0 1-.645.262z"/>
</svg>