<svg xmlns="http://www.w3.org/2000/svg" width="26" height="26" fill="currentColor" class="sym sym-arrow-narrow-down-left-solid" viewBox="0 0 26 26">
  <path d="M19.452 5.073c-.179.06-.966.829-6.189 6.043L7.28 17.089v-3.272c0-3.691.013-3.554-.343-3.908a1.12 1.12 0 0 0-1.343-.194l.006-.003a1.22 1.22 0 0 0-.56.67l-.002.008c-.032.12-.044 1.75-.035 4.994l.013 4.816.127.216c.069.117.194.267.277.33.347.264.127.254 5.29.254 5.336 0 5.017.02 5.38-.342a1.123 1.123 0 0 0 0-1.603c-.354-.354-.217-.342-3.91-.342H8.906l5.977-5.98c5.497-5.499 5.983-5.997 6.05-6.204.147-.445.05-.876-.268-1.193a1.15 1.15 0 0 0-1.221-.261z"/>
</svg>