<svg xmlns="http://www.w3.org/2000/svg" width="26" height="26" fill="currentColor" class="sym sym-arrow-circle-right-solid" viewBox="0 0 26 26">
  <path fill-rule="evenodd" d="M12.069 2.024c-2.252.22-4.209 1.004-5.98 2.397-.462.363-1.498 1.433-1.873 1.934C3.057 7.9 2.36 9.586 2.074 11.54c-.099.673-.099 2.251 0 2.924.286 1.952.982 3.637 2.141 5.185.456.608 1.529 1.681 2.137 2.137 1.55 1.158 3.235 1.853 5.187 2.14.673.099 2.253.099 2.926 0 1.952-.286 3.637-.982 5.187-2.14.607-.456 1.68-1.529 2.137-2.137 1.159-1.548 1.854-3.233 2.141-5.185.052-.357.07-.734.07-1.462 0-.729-.018-1.106-.07-1.462-.286-1.953-.984-3.64-2.142-5.185-.375-.501-1.411-1.57-1.873-1.934-1.6-1.259-3.358-2.023-5.33-2.315-.635-.094-1.946-.136-2.516-.082m1.276 6.036c.178.059.405.27 2.333 2.193 1.52 1.514 2.16 2.18 2.222 2.305.117.244.136.51.051.771-.065.202-.198.343-2.199 2.349-1.513 1.518-2.18 2.159-2.305 2.22a.99.99 0 0 1-1.146-.186c-.281-.28-.365-.657-.235-1.047.057-.174.21-.342 1.29-1.429l1.226-1.231h-2.866c-3.233 0-3.114.01-3.424-.3a.984.984 0 0 1 0-1.404c.31-.31.19-.3 3.424-.3h2.866l-1.225-1.232c-1.08-1.087-1.234-1.255-1.291-1.429-.13-.39-.046-.768.234-1.047.277-.277.655-.361 1.045-.233"/>
</svg>