<svg xmlns="http://www.w3.org/2000/svg" width="26" height="26" fill="currentColor" class="sym sym-arrow-right-02" viewBox="0 0 26 26">
  <path fill-rule="evenodd" d="M17.398 11.53c.803.81.803 2.124 0 2.934l-5.873 5.918c-1.3 1.313-3.525.4-3.525-1.477V7.079c0-1.846 2.225-2.769 3.525-1.477zm-7-4.748a.38.38 0 0 0-.224-.123.6.6 0 0 0-.264.03.56.56 0 0 0-.203.154c-.01.021-.03.052-.05.093a.6.6 0 0 0-.021.143v11.826c0 .133.03.215.07.267a.4.4 0 0 0 .194.154.46.46 0 0 0 .254.03.43.43 0 0 0 .234-.133l5.872-5.918a.43.43 0 0 0 0-.615l-5.862-5.918z"/>
</svg>