<svg xmlns="http://www.w3.org/2000/svg" width="26" height="26" fill="currentColor" class="sym sym-arrow-narrow-up-solid" viewBox="0 0 26 26">
  <path d="M12.69 5.055c-.134.048-.517.43-2.84 2.835-1.937 2.005-2.707 2.824-2.76 2.937a.9.9 0 0 0-.09.395.9.9 0 0 0 .25.623.82.82 0 0 0 .896.208c.153-.052.352-.247 2.083-2.036l1.913-1.979v6.102c0 4.094.012 6.145.036 6.234a.94.94 0 0 0 .42.52.83.83 0 0 0 1.003-.153c.278-.289.257.257.257-6.598V8.038l1.913 1.979c1.73 1.789 1.93 1.984 2.083 2.036.334.115.657.04.896-.208a.9.9 0 0 0 .25-.623.9.9 0 0 0-.093-.4l.002.005c-.052-.113-.822-.931-2.76-2.937-2.449-2.535-2.7-2.785-2.855-2.837a.85.85 0 0 0-.609.004l.006-.002"/>
</svg>