<svg xmlns="http://www.w3.org/2000/svg" width="26" height="26" fill="currentColor" class="sym sym-arrow-circle-up-right" viewBox="0 0 26 26">
  <path d="M13.1 24.1c-6.066 0-11-4.935-11-11s4.934-11 11-11 11 4.935 11 11-4.935 11-11 11m0-20.183c-5.066 0-9.184 4.117-9.184 9.183s4.118 9.184 9.184 9.184 9.183-4.118 9.183-9.184-4.117-9.183-9.183-9.183m-3.028 13.119a.94.94 0 0 1-.646-.263.91.91 0 0 1 0-1.281l4.501-4.501h-3.865a.904.904 0 0 1-.908-.908c0-.505.403-.909.908-.909h6.075c.111 0 .222.03.323.071.111.04.212.111.293.202.09.09.151.192.202.293.04.1.06.211.07.322v6.076a.905.905 0 0 1-.908.908.905.905 0 0 1-.908-.908v-3.865l-4.501 4.5a.9.9 0 0 1-.646.263z"/>
</svg>