<svg xmlns="http://www.w3.org/2000/svg" width="26" height="26" fill="currentColor" class="sym sym-arrow-narrow-down-right-solid" viewBox="0 0 26 26">
  <path d="M5.734 5.072C5.333 5.213 5 5.695 5 6.137c0 .092.033.267.075.392.067.206.552.705 6.044 6.205l5.971 5.98h-3.272c-3.556 0-3.479-.004-3.82.254q-.163.142-.273.324l-.004.006c-.109.184-.127.267-.127.559s.018.375.127.559c.07.117.195.267.278.33.346.264.126.254 5.284.254 5.331 0 5.012.02 5.375-.342.362-.363.342-.044.342-5.375 0-5.334.02-5.013-.343-5.377a1.12 1.12 0 0 0-1.342-.194l.006-.002a1.22 1.22 0 0 0-.556.66l-.003.008c-.03.11-.048 1.33-.048 3.441v3.27l-5.977-5.975C7.239 5.62 6.74 5.134 6.535 5.067a1.2 1.2 0 0 0-.808.008z"/>
</svg>