<svg xmlns="http://www.w3.org/2000/svg" width="26" height="26" fill="currentColor" class="sym sym-arrow-down-solid" viewBox="0 0 26 26">
  <path d="M12.663 5.059a1 1 0 0 0-.53.443l-.003.005-.111.189-.021 11.887-2.732-2.726c-2.484-2.48-2.75-2.733-2.929-2.791-.39-.13-.767-.045-1.044.234-.278.278-.363.654-.234 1.044.059.18.374.508 3.693 3.832 2.627 2.63 3.677 3.657 3.804 3.719.244.12.51.137.77.053.204-.066.393-.247 3.849-3.698 2.63-2.626 3.657-3.677 3.719-3.804a.98.98 0 0 0-.185-1.145c-.28-.28-.655-.364-1.046-.235-.18.059-.445.312-2.93 2.79l-2.732 2.728v-5.868c0-6.59.023-6.1-.3-6.423a1 1 0 0 0-1.044-.234l.007-.002z"/>
</svg>