<svg xmlns="http://www.w3.org/2000/svg" width="26" height="26" fill="currentColor" class="sym sym-arrow-circle-left" viewBox="0 0 26 26">
  <path d="M13.1 24.1c-6.065 0-11-4.935-11-11s4.935-11 11-11 11 4.935 11 11-4.935 11-11 11m0-20.183c-5.066 0-9.183 4.117-9.183 9.183s4.117 9.184 9.183 9.184 9.184-4.118 9.184-9.184-4.118-9.183-9.184-9.183m0 14.128a.94.94 0 0 1-.646-.262l-4.036-4.037a1.1 1.1 0 0 1-.202-.293c-.04-.1-.06-.212-.071-.323v-.03a.8.8 0 0 1 .07-.323.7.7 0 0 1 .203-.292l4.036-4.037a.91.91 0 0 1 1.282 0 .91.91 0 0 1 0 1.281l-2.483 2.483h5.884c.504 0 .908.404.908.908a.904.904 0 0 1-.908.909h-5.884l2.483 2.482a.91.91 0 0 1 0 1.282.9.9 0 0 1-.646.262z"/>
</svg>