<svg xmlns="http://www.w3.org/2000/svg" width="26" height="26" fill="currentColor" class="sym sym-arrow-right-solid" viewBox="0 0 26 26">
  <path d="M12.636 5.065c-.353.123-.644.545-.644.932 0 .08.03.234.065.343.06.179.313.445 2.794 2.928l2.73 2.733h-5.875c-6.403 0-6.044-.013-6.351.222a1.2 1.2 0 0 0-.24.284l-.004.005c-.095.161-.111.233-.111.49 0 .255.016.327.111.488.061.103.17.235.244.29.307.234-.052.222 6.35.222h5.876l-2.73 2.732c-2.481 2.484-2.735 2.75-2.794 2.929-.129.39-.044.767.235 1.046a.98.98 0 0 0 1.152.182l-.005.002c.127-.06 1.179-1.088 3.807-3.719 3.454-3.455 3.636-3.645 3.702-3.848a1 1 0 0 0-.056-.777l.003.006c-.061-.127-1.09-1.176-3.723-3.804-3.327-3.318-3.654-3.633-3.835-3.692a1.04 1.04 0 0 0-.708.007l.007-.003z"/>
</svg>