<svg xmlns="http://www.w3.org/2000/svg" width="26" height="26" fill="currentColor" class="sym sym-arrow-circle-down" viewBox="0 0 26 26">
  <path d="M13.1 24.1c-6.066 0-11-4.935-11-11s4.934-11 11-11 11 4.935 11 11-4.935 11-11 11m0-20.183c-5.066 0-9.184 4.117-9.184 9.183s4.118 9.184 9.184 9.184 9.183-4.118 9.183-9.184-4.117-9.183-9.183-9.183m-.01 14.128a.9.9 0 0 1-.323-.07.7.7 0 0 1-.293-.202l-4.037-4.037a.91.91 0 0 1 0-1.282.91.91 0 0 1 1.282 0l2.482 2.483V9.053c0-.504.404-.908.909-.908.504 0 .908.404.908.908v5.884l2.482-2.483a.91.91 0 0 1 1.282 0 .91.91 0 0 1 0 1.282l-4.036 4.037c-.091.09-.192.151-.293.201-.101.04-.212.061-.323.071z"/>
</svg>