<svg xmlns="http://www.w3.org/2000/svg" width="26" height="26" fill="currentColor" class="sym sym-arrow-circle-up" viewBox="0 0 26 26">
  <path d="M13.1 24.1c-6.065 0-11-4.935-11-11s4.935-11 11-11 11 4.935 11 11-4.935 11-11 11m0-20.183c-5.066 0-9.183 4.117-9.183 9.183s4.117 9.184 9.183 9.184 9.184-4.118 9.184-9.184-4.118-9.183-9.184-9.183m0 14.128a.905.905 0 0 1-.908-.908v-5.884l-2.483 2.483a.91.91 0 0 1-1.281 0 .91.91 0 0 1 0-1.282l4.036-4.036c.091-.091.192-.152.293-.202.1-.04.212-.06.323-.07h.03c.111 0 .222.03.323.07.111.04.212.11.293.202l4.036 4.036a.91.91 0 0 1 0 1.282.91.91 0 0 1-1.281 0l-2.483-2.483v5.884a.905.905 0 0 1-.908.908z"/>
</svg>