<svg xmlns="http://www.w3.org/2000/svg" width="26" height="26" fill="currentColor" class="sym sym-arrow-up-solid" viewBox="0 0 26 26">
  <path d="M12.64 5.062c-.157.054-.66.541-3.814 3.69-2.632 2.626-3.658 3.678-3.72 3.804a.98.98 0 0 0 .185 1.145c.28.28.656.365 1.047.236.18-.06.445-.313 2.929-2.791l2.732-2.728v5.865c0 3.916.015 5.913.042 6.013.061.22.274.474.49.585a.98.98 0 0 0 1.17-.173c.323-.323.3.169.3-6.422V8.418l2.732 2.727c2.484 2.479 2.75 2.732 2.93 2.79.39.13.766.045 1.046-.234a.98.98 0 0 0 .182-1.15l.002.005c-.06-.127-1.088-1.177-3.72-3.804-3.323-3.319-3.65-3.634-3.83-3.693a1.05 1.05 0 0 0-.711.005z"/>
</svg>