<svg xmlns="http://www.w3.org/2000/svg" width="26" height="26" fill="currentColor" class="sym sym-arrow-down-02" viewBox="0 0 26 26">
  <path fill-rule="evenodd" d="m11.735 17.481-5.918-5.868c-1.313-1.302-.39-3.53 1.456-3.53H19.11c1.856 0 2.79 2.228 1.477 3.53l-5.919 5.868a2.086 2.086 0 0 1-2.933 0M6.873 9.975a.46.46 0 0 0-.03.255c.01.06.04.142.133.234l5.918 5.868a.43.43 0 0 0 .615 0l5.918-5.868a.4.4 0 0 0 .123-.224.6.6 0 0 0-.03-.254.56.56 0 0 0-.154-.204.38.38 0 0 0-.246-.071H7.284c-.052 0-.103 0-.144.02a.2.2 0 0 0-.092.051l.123.163-.267.03z"/>
</svg>