<svg xmlns="http://www.w3.org/2000/svg" width="26" height="26" fill="currentColor" class="sym sym-arrow-narrow-right-solid" viewBox="0 0 26 26">
  <path d="M14.822 5.072c-.391.142-.716.624-.716 1.065 0 .092.033.268.073.392.066.204.31.47 2.547 2.777l2.475 2.551h-7.638c-8.331 0-7.824-.016-8.17.254a1.4 1.4 0 0 0-.266.324l-.003.006c-.106.185-.124.267-.124.56 0 .292.018.374.123.559.068.117.19.267.27.33.345.27-.162.254 8.17.254H19.2l-2.475 2.55c-2.238 2.308-2.481 2.573-2.547 2.778-.144.445-.05.876.26 1.195a1.08 1.08 0 0 0 1.28.209l-.006.002c.141-.07 1.167-1.096 3.674-3.679 3.3-3.397 3.482-3.594 3.555-3.826a1.18 1.18 0 0 0-.063-.888l.004.007c-.067-.145-1.066-1.198-3.579-3.776-3.177-3.26-3.503-3.581-3.703-3.65a1.13 1.13 0 0 0-.787.008z"/>
</svg>