<svg xmlns="http://www.w3.org/2000/svg" width="26" height="26" fill="currentColor" class="sym sym-arrow-narrow-down-solid" viewBox="0 0 26 26">
  <path d="M12.712 5.051a.88.88 0 0 0-.455.394l-.002.004-.095.168-.018 12.34-1.913-1.977C8.5 14.19 8.3 13.997 8.147 13.944a.82.82 0 0 0-.897.209.9.9 0 0 0-.25.622q.002.218.093.4l-.002-.005c.052.113.823.931 2.76 2.935 2.45 2.535 2.7 2.784 2.855 2.837.094.032.226.058.294.058.069 0 .201-.026.294-.058.155-.053.406-.302 2.856-2.837 1.937-2.004 2.707-2.822 2.76-2.935a.9.9 0 0 0 .09-.395.9.9 0 0 0-.25-.622.82.82 0 0 0-.896-.209c-.153.053-.352.247-2.083 2.036l-1.914 1.977v-6.101c0-6.851.022-6.307-.256-6.595a.84.84 0 0 0-.896-.208l.006-.002z"/>
</svg>