<svg xmlns="http://www.w3.org/2000/svg" width="26" height="26" fill="currentColor" class="sym sym-arrow-down-right-solid" viewBox="0 0 26 26">
  <path d="M5.857 5.085C5.387 5.25 5 5.812 5 6.327c0 .107.039.312.087.458.079.24.553.73 5.719 5.905l5.633 5.643h-5.152c-5.605 0-5.385-.011-5.788.296q-.19.166-.32.378l-.004.007c-.127.215-.148.311-.148.652s.021.437.148.652c.081.137.227.313.324.385.408.312.02.297 7.498.297 7.714 0 7.178.028 7.604-.4.426-.427.399.11.399-7.605s.028-7.178-.4-7.606a1.31 1.31 0 0 0-1.566-.226l.007-.003a1.43 1.43 0 0 0-.649.77l-.003.01c-.036.131-.056 1.965-.056 5.348v5.147l-5.64-5.635c-5.172-5.168-5.66-5.643-5.902-5.722a1.4 1.4 0 0 0-.943.009z"/>
</svg>