<svg xmlns="http://www.w3.org/2000/svg" width="26" height="26" fill="currentColor" class="sym sym-arrow-narrow-up-right-solid" viewBox="0 0 26 26">
  <path d="M10.325 5.072a1.16 1.16 0 0 0-.606.506l-.002.006c-.11.184-.127.266-.127.559 0 .292.018.374.127.559.07.117.194.267.277.33.34.258.264.254 3.82.254h3.274l-5.974 5.98c-5.494 5.501-5.98 6-6.047 6.206-.147.446-.05.876.268 1.194s.747.414 1.193.267c.207-.068.706-.553 6.205-6.048l5.98-5.974v3.27c0 2.111.017 3.33.048 3.44.07.251.312.541.56.669a1.125 1.125 0 0 0 1.336-.197c.363-.364.343-.042.343-5.377 0-5.332.02-5.013-.342-5.376s-.04-.342-5.395-.339c-4.012.003-4.788.014-4.938.069z"/>
</svg>