<svg xmlns="http://www.w3.org/2000/svg" width="26" height="26" fill="currentColor" class="sym sym-arrow-narrow-up-left-solid" viewBox="0 0 26 26">
  <path d="M5.751 5.072a1.16 1.16 0 0 0-.606.506l-.003.006-.127.216-.013 4.817c-.007 3.244.004 4.875.036 4.995.069.257.31.548.561.678.156.086.341.135.537.135.314 0 .597-.127.8-.332.357-.354.344-.217.344-3.91V8.911l5.983 5.974c5.503 5.495 6.002 5.981 6.208 6.048.446.147.877.05 1.195-.268.317-.318.414-.747.267-1.193-.068-.207-.553-.706-6.05-6.206l-5.978-5.98h3.275c3.693 0 3.556.01 3.91-.342a1.124 1.124 0 0 0 0-1.603c-.363-.364-.04-.343-5.398-.34-4.014.003-4.79.014-4.94.069z"/>
</svg>