<svg xmlns="http://www.w3.org/2000/svg" width="26" height="26" fill="currentColor" class="sym sym-arrow-up-left-solid" viewBox="0 0 26 26">
  <path d="M5.877 5.084a1.35 1.35 0 0 0-.708.591l-.003.006-.148.252-.015 6.956c-.01 4.7.004 7.022.043 7.162.08.3.361.64.653.79.182.1.398.158.627.158.365 0 .696-.148.934-.388.423-.424.4-.095.4-5.896V9.563l5.646 5.636c5.178 5.169 5.667 5.644 5.91 5.723.52.17 1.022.059 1.393-.312.37-.372.483-.873.312-1.393-.08-.241-.554-.731-5.725-5.906l-5.64-5.644h5.155c5.802 0 5.477.021 5.898-.4a1.31 1.31 0 0 0 0-1.87c-.428-.427.113-.4-7.632-.395-5.841.003-6.923.015-7.1.08z"/>
</svg>