<svg xmlns="http://www.w3.org/2000/svg" width="26" height="26" fill="currentColor" class="sym sym-arrow-up-02" viewBox="0 0 26 26">
  <path fill-rule="evenodd" d="m5.817 14.555 5.918-5.869a2.086 2.086 0 0 1 2.933 0l5.919 5.869c1.312 1.301.379 3.529-1.477 3.529H7.273c-1.846 0-2.77-2.228-1.456-3.53m13.734 1.373a.45.45 0 0 0-.123-.224l-5.919-5.868a.43.43 0 0 0-.615 0l-5.918 5.868a.4.4 0 0 0-.134.234c-.01.071 0 .162.031.254a.43.43 0 0 0 .154.193c.02.01.051.03.092.041.041.01.093.02.144.02h11.836c.123 0 .195-.03.246-.07a.4.4 0 0 0 .154-.204.46.46 0 0 0 .031-.255z"/>
</svg>