<svg xmlns="http://www.w3.org/2000/svg" width="26" height="26" fill="currentColor" class="sym sym-arrow-circle-down-right-solid" viewBox="0 0 26 26">
  <path fill-rule="evenodd" d="M12.068 2.04a11.1 11.1 0 0 0-5.22 1.836l.04-.026c-1.213.81-2.422 2.043-3.2 3.262-.813 1.273-1.379 2.827-1.614 4.434-.099.674-.099 2.251 0 2.923.288 1.954.98 3.63 2.14 5.182.455.61 1.527 1.681 2.137 2.136 1.554 1.16 3.231 1.851 5.187 2.139.674.099 2.25.099 2.925 0 1.955-.288 3.632-.98 5.185-2.139.61-.454 1.682-1.525 2.138-2.136 1.16-1.552 1.852-3.228 2.14-5.182.099-.674.099-2.25 0-2.923-.288-1.954-.981-3.632-2.14-5.183-.402-.537-1.466-1.621-1.974-2.01-2.267-1.742-4.954-2.545-7.743-2.314zm-1.453 7.253c.102.05.9.817 2.194 2.106l2.034 2.029v-1.733c0-1.867 0-1.864.216-2.149q.13-.142.298-.234l.006-.003a.99.99 0 0 1 1.206.203l.001.001c.265.294.256.16.256 3.516v3.043l-.093.187a1.05 1.05 0 0 1-.607.53l-.007.002c-.316.093-5.925.093-6.24 0-.895-.265-.944-1.516-.075-1.88.124-.051.415-.06 1.88-.06h1.734l-2.03-2.032c-1.41-1.411-2.055-2.086-2.118-2.21a1.12 1.12 0 0 1-.02-.831l-.002.007a1 1 0 0 1 1.372-.49z"/>
</svg>