<svg xmlns="http://www.w3.org/2000/svg" width="26" height="26" fill="currentColor" class="sym sym-arrow-circle-right" viewBox="0 0 26 26">
  <path d="M13.1 24.1c-6.065 0-11-4.935-11-11s4.935-11 11-11 11 4.935 11 11-4.935 11-11 11m0-20.183c-5.066 0-9.183 4.117-9.183 9.183s4.117 9.184 9.183 9.184 9.184-4.118 9.184-9.184-4.118-9.183-9.184-9.183m0 14.128a.94.94 0 0 1-.646-.262.91.91 0 0 1 0-1.282l2.483-2.483H9.053a.905.905 0 0 1-.908-.908c0-.504.404-.908.908-.908h5.884l-2.483-2.483a.91.91 0 0 1 0-1.281.91.91 0 0 1 1.282 0l4.037 4.036c.09.091.151.192.201.293.04.101.061.212.071.323v.03a.8.8 0 0 1-.07.323.7.7 0 0 1-.202.293l-4.037 4.037a.9.9 0 0 1-.646.262z"/>
</svg>