<svg xmlns="http://www.w3.org/2000/svg" width="26" height="26" fill="currentColor" class="sym sym-arrow-circle-down-solid" viewBox="0 0 26 26">
  <path fill-rule="evenodd" d="M12.069 2.024c-2.252.22-4.209 1.004-5.98 2.397-.462.363-1.498 1.433-1.873 1.934C3.057 7.9 2.36 9.586 2.074 11.54c-.099.673-.099 2.251 0 2.924.286 1.952.982 3.637 2.141 5.185.456.608 1.529 1.681 2.137 2.137 1.55 1.158 3.235 1.853 5.187 2.14.673.099 2.253.099 2.926 0 1.952-.286 3.637-.982 5.187-2.14.607-.456 1.68-1.529 2.137-2.137 1.159-1.548 1.854-3.233 2.141-5.185.052-.357.07-.734.07-1.462 0-.729-.018-1.106-.07-1.462-.286-1.953-.984-3.64-2.142-5.185-.375-.501-1.411-1.57-1.873-1.934-1.6-1.259-3.358-2.023-5.33-2.315-.635-.094-1.946-.136-2.516-.082m1.273 6.036c.115.04.264.135.362.234.31.31.3.19.3 3.422v2.865l1.232-1.225c1.087-1.08 1.255-1.233 1.43-1.29.39-.13.767-.046 1.046.234a.99.99 0 0 1 .185 1.153l.002-.006c-.061.125-.703.791-2.222 2.304-1.928 1.922-2.154 2.135-2.332 2.194a1 1 0 0 1-.694-.002l.007.002c-.178-.06-.405-.271-2.333-2.194-1.519-1.513-2.16-2.179-2.221-2.304A.99.99 0 0 1 8.29 12.3c.28-.28.657-.365 1.047-.235.175.057.343.21 1.43 1.29l1.232 1.225v-2.865c0-3.233-.011-3.113.3-3.423a.98.98 0 0 1 1.05-.23z"/>
</svg>