<svg xmlns="http://www.w3.org/2000/svg" width="26" height="26" fill="currentColor" class="sym sym-arrow-circle-down-right" viewBox="0 0 26 26">
  <path d="M13.1 24.1c-6.066 0-11-4.935-11-11s4.934-11 11-11 11 4.935 11 11-4.935 11-11 11m0-20.183c-5.066 0-9.184 4.117-9.184 9.183s4.118 9.184 9.184 9.184 9.183-4.118 9.183-9.184-4.117-9.183-9.183-9.183m-3.028 13.119a.905.905 0 0 1-.908-.908c0-.505.404-.909.908-.909h3.865l-4.5-4.5a.91.91 0 0 1 0-1.282.91.91 0 0 1 1.281 0l4.5 4.5v-3.864c0-.505.405-.909.91-.909.504 0 .907.404.907.909v6.065c0 .12-.03.232-.07.333a.7.7 0 0 1-.202.292c-.09.091-.192.152-.293.202-.1.04-.212.06-.323.07z"/>
</svg>