<svg xmlns="http://www.w3.org/2000/svg" width="26" height="26" fill="currentColor" class="sym sym-arrow-circle-up-right-solid" viewBox="0 0 26 26">
  <path fill-rule="evenodd" d="M12.068 2.04a11.1 11.1 0 0 0-5.22 1.836l.04-.026c-1.213.81-2.422 2.043-3.2 3.262-.813 1.273-1.379 2.827-1.614 4.434-.099.674-.099 2.251 0 2.923.288 1.954.98 3.63 2.14 5.182.455.61 1.527 1.681 2.137 2.136 1.554 1.16 3.231 1.851 5.187 2.139.674.099 2.25.099 2.925 0 1.955-.288 3.632-.98 5.185-2.139.61-.454 1.682-1.525 2.138-2.136 1.16-1.552 1.852-3.228 2.14-5.182.099-.674.099-2.25 0-2.923-.288-1.954-.981-3.632-2.14-5.183-.402-.537-1.466-1.621-1.974-2.01-2.267-1.742-4.954-2.545-7.743-2.314zm4.177 7.228c.219.102.451.35.526.562.045.126.055.723.055 3.198v3.044l-.093.186a.993.993 0 0 1-1.747.1l-.002-.004-.121-.196-.022-3.566-2.072 2.067c-1.995 1.988-2.081 2.069-2.29 2.13-.271.079-.337.08-.602 0-.57-.168-.87-.849-.607-1.377.064-.126.7-.79 2.121-2.213l2.03-2.031h-1.734c-1.466 0-1.757-.01-1.88-.061a.98.98 0 0 1-.624-.912v-.003c-.002-.495.289-.87.762-.984.084-.02 1.465-.033 3.136-.03 2.937.007 2.988.008 3.166.091z"/>
</svg>