<svg xmlns="http://www.w3.org/2000/svg" width="26" height="26" fill="currentColor" class="sym sym-arrow-circle-down-left" viewBox="0 0 26 26">
  <path d="M13.1 24.1c-6.066 0-11-4.935-11-11s4.934-11 11-11 11 4.935 11 11-4.935 11-11 11m0-20.183c-5.066 0-9.184 4.117-9.184 9.183s4.118 9.184 9.184 9.184 9.183-4.118 9.183-9.184-4.117-9.183-9.183-9.183m-3.028 13.119h-.01a.9.9 0 0 1-.323-.07.7.7 0 0 1-.293-.203 1.1 1.1 0 0 1-.201-.292 1.2 1.2 0 0 1-.071-.323v-6.065c0-.505.404-.909.908-.909.505 0 .908.404.908.909v3.865l4.501-4.501a.907.907 0 0 1 1.282 0 .91.91 0 0 1 0 1.282l-4.5 4.5h3.864c.505 0 .909.404.909.909a.905.905 0 0 1-.909.908h-6.055z"/>
</svg>