<svg xmlns="http://www.w3.org/2000/svg" width="26" height="26" fill="currentColor" class="sym sym-arrow-circle-up-left-solid" viewBox="0 0 26 26">
  <path fill-rule="evenodd" d="M12.068 2.04a11.1 11.1 0 0 0-5.22 1.836l.04-.026c-1.213.81-2.422 2.043-3.2 3.262-.813 1.273-1.379 2.827-1.614 4.434-.099.674-.099 2.251 0 2.923.288 1.954.98 3.63 2.14 5.182.455.61 1.527 1.681 2.137 2.136 1.554 1.16 3.231 1.851 5.187 2.139.674.099 2.25.099 2.925 0 1.955-.288 3.632-.98 5.185-2.139.61-.454 1.682-1.525 2.138-2.136 1.16-1.552 1.852-3.228 2.14-5.182.099-.674.099-2.25 0-2.923-.288-1.954-.981-3.632-2.14-5.183-.402-.537-1.466-1.621-1.974-2.01-2.267-1.742-4.954-2.545-7.743-2.314zm4.177 7.229c.37.174.574.504.572.921v.004a.98.98 0 0 1-.617.909l-.007.002c-.124.052-.415.061-1.88.061h-1.734l2.03 2.032c1.41 1.411 2.055 2.086 2.118 2.21.265.532-.034 1.212-.607 1.382-.263.078-.329.077-.6-.002-.209-.061-.294-.142-2.29-2.13l-2.072-2.067-.022 3.565-.12.196a.983.983 0 0 1-1.523.213c-.336-.309-.319-.135-.319-3.558 0-3.331-.009-3.203.253-3.492a.9.9 0 0 1 .512-.309h.006c.084-.021 1.465-.034 3.136-.03 2.953.006 2.988.007 3.166.092z"/>
</svg>