<svg xmlns="http://www.w3.org/2000/svg" width="26" height="26" fill="currentColor" class="sym sym-arrow-narrow-left-solid" viewBox="0 0 26 26">
  <path d="M10.375 5.073c-.174.06-.67.552-3.682 3.645-2.51 2.577-3.508 3.63-3.576 3.775a1.18 1.18 0 0 0-.057.89l-.002-.009c.073.233.256.43 3.553 3.827 2.505 2.582 3.53 3.608 3.67 3.678a1.08 1.08 0 0 0 1.272-.212c.31-.319.405-.748.262-1.195-.066-.204-.31-.47-2.546-2.777l-2.473-2.55h7.63c8.568 0 7.888.028 8.248-.343.202-.204.326-.488.326-.802a1.14 1.14 0 0 0-.326-.802c-.36-.37.32-.342-8.248-.342h-7.63l2.473-2.55c2.236-2.308 2.48-2.573 2.546-2.777.04-.113.063-.244.063-.38 0-.634-.5-1.149-1.117-1.149q-.209.001-.394.074l.008-.003z"/>
</svg>