<svg xmlns="http://www.w3.org/2000/svg" width="26" height="26" fill="currentColor" class="sym sym-arrow-left-02" viewBox="0 0 26 26">
  <path fill-rule="evenodd" d="m8.603 11.535 5.868-5.918C15.773 4.304 18 5.227 18 7.073V18.91c0 1.857-2.227 2.79-3.53 1.477l-5.867-5.918a2.086 2.086 0 0 1 0-2.933m7.027-4.76-5.868 5.919a.43.43 0 0 0 0 .615l5.868 5.918a.4.4 0 0 0 .224.123c.071.01.163 0 .254-.03a.5.5 0 0 0 .204-.165c.04-.05.07-.123.07-.246V7.073c0-.061 0-.103-.02-.154a.2.2 0 0 0-.05-.092.46.46 0 0 0-.447-.185.43.43 0 0 0-.235.134"/>
</svg>