<svg xmlns="http://www.w3.org/2000/svg" width="26" height="26" fill="currentColor" class="sym sym-arrow-circle-up-solid" viewBox="0 0 26 26">
  <path fill-rule="evenodd" d="M12.069 2.024c-2.252.22-4.209 1.004-5.98 2.397-.462.363-1.498 1.433-1.873 1.934C3.057 7.9 2.36 9.586 2.074 11.54c-.099.673-.099 2.251 0 2.924.286 1.952.982 3.637 2.141 5.185.456.608 1.529 1.681 2.137 2.137 1.55 1.158 3.235 1.853 5.187 2.14.673.099 2.253.099 2.926 0 1.952-.286 3.637-.982 5.187-2.14.607-.456 1.68-1.529 2.137-2.137 1.159-1.548 1.854-3.233 2.141-5.185.052-.357.07-.734.07-1.462 0-.729-.018-1.106-.07-1.462-.286-1.953-.984-3.64-2.142-5.185-.375-.501-1.411-1.57-1.873-1.934-1.6-1.259-3.358-2.023-5.33-2.315-.635-.094-1.946-.136-2.516-.082m1.276 6.036c.178.059.405.27 2.333 2.193 1.52 1.514 2.16 2.18 2.222 2.305a.99.99 0 0 1-.186 1.146c-.28.28-.658.364-1.048.234-.174-.057-.343-.21-1.43-1.29l-1.232-1.225v2.866c0 3.231.01 3.112-.3 3.422a.985.985 0 0 1-1.405 0c-.309-.31-.3-.19-.3-3.422v-2.866l-1.231 1.225c-1.087 1.08-1.256 1.233-1.43 1.29-.39.13-.768.046-1.047-.234a.99.99 0 0 1-.184-1.152l-.003.006c.061-.125.703-.791 2.222-2.305 1.826-1.82 2.161-2.137 2.315-2.19.239-.082.463-.082.704-.003"/>
</svg>