<svg xmlns="http://www.w3.org/2000/svg" width="26" height="26" fill="currentColor" class="sym sym-arrow-left-solid" viewBox="0 0 26 26">
  <path d="M12.638 5.063c-.156.053-.66.541-3.814 3.69-2.63 2.625-3.657 3.677-3.719 3.803a1 1 0 0 0-.051.778l-.002-.007c.066.204.247.393 3.698 3.848 2.626 2.631 3.677 3.658 3.804 3.72a.98.98 0 0 0 1.145-.185c.28-.28.364-.656.235-1.047-.059-.18-.312-.445-2.79-2.929l-2.728-2.732h5.868c6.59 0 6.1.023 6.423-.3a.984.984 0 0 0 0-1.403c-.322-.322.168-.3-6.423-.3H8.416l2.727-2.731c2.48-2.484 2.733-2.75 2.791-2.93.13-.39.045-.766-.234-1.044a1 1 0 0 0-1.068-.229z"/>
</svg>