<svg xmlns="http://www.w3.org/2000/svg" width="26" height="26" fill="currentColor" class="sym sym-arrow-up-right-solid" viewBox="0 0 26 26">
  <path d="M5.876 5.085a1.35 1.35 0 0 0-.707.591l-.003.006c-.127.215-.148.311-.148.652s.02.437.148.653c.08.137.227.312.324.385.403.307.183.296 5.791.296h5.155L10.8 13.31c-5.168 5.175-5.643 5.664-5.722 5.906-.171.52-.06 1.023.312 1.393.371.37.872.483 1.392.312.241-.079.732-.553 5.907-5.722l5.643-5.636v5.148c0 3.383.02 5.218.056 5.348.08.293.364.63.652.78.181.1.397.158.626.158.366 0 .696-.148.934-.388.428-.428.4.109.4-7.607 0-7.715.028-7.179-.4-7.606-.426-.427.114-.4-7.627-.395-5.838.003-6.92.015-7.096.08z"/>
</svg>