<svg xmlns="http://www.w3.org/2000/svg" width="26" height="26" fill="currentColor" class="sym sym-asterisk-solid" viewBox="0 0 26 26">
  <path d="M12.655 4.06a1 1 0 0 0-.531.444l-.002.004-.111.19-.022 5.879-2.233-2.225c-2.018-2.012-2.251-2.23-2.43-2.29-.39-.128-.767-.043-1.045.235s-.363.654-.234 1.044c.06.178.279.41 2.293 2.43l2.227 2.231H7.7c-3.114 0-3.047-.004-3.345.222a1.2 1.2 0 0 0-.24.284l-.003.005c-.095.161-.111.233-.111.49 0 .255.016.327.111.489.061.102.17.234.243.288.298.226.231.223 3.345.223h2.868L8.34 16.234c-2.014 2.019-2.234 2.25-2.293 2.43-.129.39-.044.766.234 1.044.28.277.655.363 1.046.234.178-.06.41-.279 2.43-2.291l2.234-2.226v2.861c0 1.848.015 2.914.042 3.01.061.22.274.474.49.585a.984.984 0 0 0 1.17-.172c.312-.31.3-.19.3-3.42v-2.865l2.234 2.226c2.02 2.013 2.253 2.232 2.431 2.291.39.129.768.044 1.045-.234.278-.279.364-.655.235-1.045-.06-.177-.279-.41-2.293-2.429l-2.227-2.231h2.866c3.232 0 3.113.01 3.422-.3a.983.983 0 0 0 0-1.403c-.309-.309-.19-.3-3.422-.3h-2.866l2.227-2.23c2.014-2.02 2.233-2.251 2.293-2.43.129-.39.044-.767-.235-1.044-.278-.278-.654-.364-1.045-.234-.178.059-.41.278-2.43 2.29l-2.234 2.226V7.713c0-3.229.01-3.11-.3-3.42a1 1 0 0 0-1.045-.234l.007-.002z"/>
</svg>