<svg xmlns="http://www.w3.org/2000/svg" width="26" height="26" fill="currentColor" class="sym sym-asterisk" viewBox="0 0 26 26">
  <path d="M13.1 22.1a.906.906 0 0 1-.91-.91v-5.896l-4.51 4.51a.91.91 0 0 1-1.284 0 .91.91 0 0 1 0-1.284l4.51-4.51H5.01a.906.906 0 0 1-.91-.91c0-.505.405-.91.91-.91h5.896l-4.51-4.51a.91.91 0 0 1 0-1.284.91.91 0 0 1 1.284 0l4.51 4.51V5.01c0-.505.405-.91.91-.91.506 0 .91.405.91.91v5.896l4.51-4.51a.91.91 0 0 1 1.285 0 .91.91 0 0 1 0 1.284l-4.51 4.51h5.895c.506 0 .91.405.91.91 0 .506-.404.91-.91.91h-5.896l4.51 4.51a.91.91 0 0 1 0 1.285.91.91 0 0 1-1.284 0l-4.51-4.51v5.895c0 .506-.404.91-.91.91"/>
</svg>