<svg xmlns="http://www.w3.org/2000/svg" width="26" height="26" fill="currentColor" class="sym sym-at-sign" viewBox="0 0 26 26">
  <path d="M13.1 22.106h-.152a9.02 9.02 0 0 1-5.562-2.044 9.08 9.08 0 0 1-3.085-5.06A9.01 9.01 0 0 1 9.257 4.964a9.08 9.08 0 0 1 5.886-.627 9.03 9.03 0 0 1 5.006 3.167A9.07 9.07 0 0 1 22.1 13.1v.81c0 .89-.344 1.73-.981 2.357-1.254 1.265-3.46 1.265-4.723 0a3 3 0 0 1-.284-.323 4.15 4.15 0 0 1-3.013 1.305A4.153 4.153 0 0 1 8.953 13.1 4.153 4.153 0 0 1 13.1 8.951c.87 0 1.679.273 2.346.729a.91.91 0 0 1 .89-.729c.506 0 .91.405.91.91v4.048c0 .405.162.79.445 1.073.577.577 1.578.577 2.144 0 .283-.283.445-.668.445-1.072v-.81a7.2 7.2 0 0 0-1.557-4.463 7.2 7.2 0 0 0-3.995-2.53 7.25 7.25 0 0 0-4.703.497 7.2 7.2 0 0 0-3.367 3.319 7.24 7.24 0 0 0-.587 4.695 7.24 7.24 0 0 0 2.458 4.037 7.17 7.17 0 0 0 4.44 1.63c1.607.01 3.205-.496 4.49-1.478a.904.904 0 0 1 1.274.172.906.906 0 0 1-.172 1.275 9.02 9.02 0 0 1-5.481 1.852zm0-11.333a2.327 2.327 0 1 0 .002 4.654 2.327 2.327 0 0 0-.002-4.654"/>
</svg>