<svg xmlns="http://www.w3.org/2000/svg" width="26" height="26" fill="currentColor" class="sym sym-at-sign-solid" viewBox="0 0 26 26">
  <path fill-rule="evenodd" d="M12.241 4.03a9.05 9.05 0 0 0-6.956 4.315l-.022.04c-.583.964-1 2.134-1.186 3.325-.103.663-.103 1.925 0 2.588a9.14 9.14 0 0 0 1.752 4.165l-.017-.023c.376.504 1.25 1.378 1.745 1.743 1.311.97 2.633 1.516 4.242 1.755.599.089 1.874.08 2.49-.015a9.15 9.15 0 0 0 3.873-1.54l-.03.02c.378-.262.49-.371.583-.567a.8.8 0 0 0-.206-.938c-.172-.155-.325-.202-.597-.187-.218.013-.226.016-.726.352-2.282 1.53-5.01 1.737-7.418.562-2.204-1.075-3.684-3.106-4.067-5.577-.08-.513-.08-1.574 0-2.087.415-2.677 2.135-4.845 4.619-5.82.866-.338 1.686-.488 2.674-.488.764 0 1.157.048 1.867.23 2.555.653 4.617 2.72 5.26 5.271.192.762.226 1.073.227 2.097 0 .893-.002.923-.078 1.114-.167.417-.457.749-.8.915-.911.442-1.903.045-2.286-.915l-.079-.196-.032-4.653-.077-.155A.81.81 0 0 0 16 8.962l.006-.002a.82.82 0 0 0-.54.624l-.002.005-.022.137-.184-.125a4.1 4.1 0 0 0-1.455-.603l-.027-.005a3.98 3.98 0 0 0-2.59.351l.022-.01a4.1 4.1 0 0 0-2.248 2.935c-.06.301-.06 1.173 0 1.474.252 1.272 1.09 2.38 2.212 2.93.626.304 1.111.413 1.854.41.47-.002.585-.012.886-.088.785-.196 1.358-.509 1.915-1.044l.229-.221.171.209c.726.888 1.984 1.328 3.125 1.096 1.336-.273 2.309-1.248 2.586-2.594.064-.313.069-.41.054-1.32-.012-.765-.031-1.08-.084-1.415-.437-2.824-2.076-5.188-4.558-6.58-1.505-.845-3.378-1.246-5.11-1.095m1.373 6.597c.276.076.687.287.915.47.558.449.923 1.203.923 1.908 0 .643-.293 1.313-.782 1.785a2.44 2.44 0 0 1-3.248.096c-.373-.32-.71-.86-.823-1.324-.057-.232-.057-.882 0-1.114a3.2 3.2 0 0 1 .482-.97 2.55 2.55 0 0 1 1.49-.895l.016-.002c.219-.04.81-.013 1.027.046"/>
</svg>