<svg xmlns="http://www.w3.org/2000/svg" width="26" height="26" fill="currentColor" class="sym sym-atom-solid" viewBox="0 0 26 26">
  <path d="M12.603 11.199c-.799.153-1.446.951-1.446 1.786 0 .842.631 1.618 1.457 1.79 1.119.233 2.202-.647 2.202-1.79 0-.478-.192-.93-.545-1.284-.45-.448-1.031-.624-1.668-.502"/>
  <path fill-rule="evenodd" d="M8.042 4.019c-2.077.198-3.532 1.464-3.93 3.422-.279 1.37-.003 3.18.74 4.861l.239.544.074.172-.167.359c-.91 1.966-1.21 3.853-.85 5.34.215.888.56 1.502 1.18 2.105.601.584 1.35.948 2.298 1.112.445.078 1.383.089 1.884.022a11 11 0 0 0 2.784-.79c.21-.095.457-.204.55-.244l.169-.074.416.19c1.432.656 2.702.962 3.985.96q2.113 0 3.32-1.224c.65-.658 1.036-1.425 1.2-2.391.082-.48.083-1.5.002-2.025-.16-.991-.43-1.88-.799-2.713l.027.069-.244-.551-.072-.168.203-.444c.637-1.393.948-2.683.949-3.94 0-1.472-.412-2.545-1.317-3.426-.814-.79-1.879-1.176-3.25-1.177-1.311 0-2.57.303-4.018.97l-.395.184-.173-.074-.554-.245c-.498-.22-1.457-.54-1.922-.64-.787-.168-1.717-.242-2.328-.183zm1.78 1.915c.44.098 1.1.294 1.189.355.048.032.048.04-.003.07-.12.072-.941.7-1.223.934-.907.759-2.099 1.957-2.278 2.293-.1.186-.112.549-.026.756a.907.907 0 0 0 1.097.503c.2-.058.244-.096.91-.778.798-.818 1.406-1.364 2.09-1.877a16 16 0 0 1 1.253-.857l.187-.107.424.272c1.558.996 3.175 2.496 4.335 4.023 1.2 1.58 1.982 3.182 2.311 4.74.1.468.135 1.368.072 1.765-.164 1.015-.723 1.712-1.607 2.002-.452.148-.727.179-1.374.156-.626-.022-.982-.083-1.667-.285-.64-.19-.635-.145-.068-.571.608-.458.905-.705 1.527-1.268.61-.554 1.42-1.421 1.509-1.615.084-.184.09-.556.011-.743a.88.88 0 0 0-.806-.532h-.016c-.34-.002-.49.09-.95.573-.82.865-1.506 1.486-2.288 2.074-.496.373-1.363.951-1.426.951-.064 0-.932-.578-1.427-.951a15 15 0 0 1-1.696-1.475l-.001-.001C7.75 14.24 6.385 11.95 5.9 9.656c-.052-.241-.066-.473-.066-1.025.001-.675.008-.732.103-1.042.137-.445.291-.723.56-1.007.35-.371.796-.603 1.384-.717.409-.08 1.433-.044 1.941.069m8.287-.07c.845.154 1.465.596 1.789 1.274.24.506.279.713.277 1.51-.002.766-.066 1.178-.305 1.94-.14.445-.172.504-.23.407-.069-.119-.671-.907-.926-1.212a20.4 20.4 0 0 0-2.46-2.465l-.03-.024c-.306-.256-1.093-.858-1.212-.927-.06-.036-.06-.046-.013-.078.142-.098 1.143-.363 1.646-.438.326-.048 1.167-.04 1.464.014M6.375 15.012c.068.176.957 1.278 1.624 2.01.732.805 2.067 1.985 2.818 2.49.126.085.229.165.23.178.003.055-.688.27-1.28.398-.454.1-1.386.137-1.783.073a3.3 3.3 0 0 1-1.07-.378l.016.008a2.34 2.34 0 0 1-.816-.921c-.214-.45-.267-.696-.289-1.346-.02-.647.05-1.168.25-1.885.176-.618.247-.767.3-.627"/>
</svg>