<svg xmlns="http://www.w3.org/2000/svg" width="26" height="26" fill="currentColor" class="sym sym-atom" viewBox="0 0 26 26">
  <path d="M7.403 22.101c-.992 0-1.821-.293-2.408-.89-1.113-1.102-1.184-3.014-.213-5.38.365-.89.86-1.81 1.477-2.73a16.6 16.6 0 0 1-1.477-2.732c-.97-2.356-.9-4.268.213-5.38 1.113-1.103 3.015-1.183 5.382-.212.89.364 1.8.86 2.731 1.466 3.4-2.245 6.556-2.822 8.114-1.264 1.568 1.567.98 4.723-1.255 8.111 2.236 3.388 2.823 6.544 1.255 8.111s-4.725.981-8.124-1.254a16 16 0 0 1-2.731 1.467c-1.103.455-2.105.677-2.975.677zm0-7.413a14 14 0 0 0-.941 1.84c-.658 1.588-.729 2.863-.182 3.399.536.536 1.81.465 3.399-.182a14 14 0 0 0 1.84-.94 24 24 0 0 1-2.164-1.943 26 26 0 0 1-1.942-2.174zm7.283 4.116c2.53 1.527 4.553 1.81 5.24 1.123.689-.688.405-2.71-1.122-5.239a27 27 0 0 1-1.943 2.174 26 26 0 0 1-2.175 1.942M8.485 13.11a23 23 0 0 0 2.155 2.468c.84.84 1.669 1.558 2.468 2.154.84-.627 1.67-1.355 2.469-2.154.84-.84 1.558-1.669 2.155-2.468a25 25 0 0 0-2.155-2.467 24 24 0 0 0-2.469-2.155 24 24 0 0 0-2.468 2.155c-.8.798-1.528 1.628-2.155 2.467M7.413 5.93c-.496 0-.88.12-1.123.364-.536.536-.466 1.81.182 3.398.243.597.566 1.213.94 1.84a26 26 0 0 1 1.943-2.174 27 27 0 0 1 2.165-1.942 14 14 0 0 0-1.841-.94c-.88-.364-1.66-.547-2.276-.547zm7.284 1.486a28 28 0 0 1 2.175 1.942 25 25 0 0 1 1.942 2.175c1.527-2.529 1.81-4.552 1.123-5.24-.688-.687-2.711-.394-5.24 1.123m-1.579 7.05a1.345 1.345 0 1 1-.001-2.69 1.345 1.345 0 0 1 .001 2.69"/>
</svg>