<svg xmlns="http://www.w3.org/2000/svg" width="26" height="26" fill="currentColor" class="sym sym-attachment-02" viewBox="0 0 26 26">
  <path d="M13.2 22.1c-3.03 0-5.5-2.407-5.5-5.36V7.974C7.7 5.84 9.485 4.1 11.675 4.1s3.974 1.74 3.974 3.873v8.717c0 1.315-1.1 2.397-2.46 2.397s-2.459-1.072-2.459-2.397V8.762c0-.506.415-.91.934-.91s.934.404.934.91v7.928c0 .313.26.576.592.576a.577.577 0 0 0 .591-.576V7.973c0-1.132-.944-2.053-2.106-2.053-1.163 0-2.107.92-2.107 2.053v8.768c0 1.951 1.63 3.539 3.632 3.539s3.632-1.588 3.632-3.54v-9.1c0-.506.415-.91.934-.91s.934.404.934.91v9.1c0 2.953-2.47 5.36-5.5 5.36"/>
</svg>