<svg xmlns="http://www.w3.org/2000/svg" width="26" height="26" fill="currentColor" class="sym sym-attachment-solid" viewBox="0 0 26 26">
  <path d="M16.144 4.006c-.627.087-1.023.195-1.384.376-.59.298-.555.266-4.77 4.508-2.206 2.22-4.106 4.151-4.224 4.293-.735.884-1.136 1.867-1.247 3.049a5.4 5.4 0 0 0 .295 2.227 5.33 5.33 0 0 0 4.147 3.48c.571.098 1.464.076 1.993-.051a5.6 5.6 0 0 0 1.969-.882l-.019.013c.21-.149 1.307-1.232 4.372-4.317 3.762-3.786 4.099-4.135 4.16-4.302.085-.23.085-.369-.002-.604a.92.92 0 0 0-.455-.485l-.005-.003c-.17-.071-.513-.06-.696.023-.12.054-1.053.975-4.203 4.146-2.607 2.625-4.119 4.121-4.244 4.204-.306.194-.659.36-1.033.478l-.032.009c-.38.112-1.09.151-1.505.085-1.64-.265-2.915-1.642-3.033-3.281-.068-.94.175-1.805.702-2.503.123-.164 1.829-1.906 4.217-4.31 4.363-4.393 4.161-4.206 4.705-4.363.296-.085.823-.09 1.125-.01.74.215 1.31.795 1.51 1.529l.005.015a2.8 2.8 0 0 1-.004 1.06 2.2 2.2 0 0 1-.423.829l.003-.004c-.092.116-1.841 1.895-3.887 3.955-4.003 4.03-3.808 3.85-4.134 3.812-.398-.044-.663-.489-.522-.872.02-.054 1.496-1.57 3.368-3.46 3.634-3.667 3.486-3.501 3.483-3.898a.87.87 0 0 0-.514-.775l-.006-.002a.96.96 0 0 0-.685.02c-.224.108-6.883 6.838-7.052 7.127a2.3 2.3 0 0 0-.322 1.13v.003c-.019.46.037.735.234 1.146.11.231.197.347.432.587.325.328.533.46.941.604.243.086.32.096.715.096s.471-.01.714-.096c.15-.052.357-.142.46-.2.143-.08 1.121-1.046 4.146-4.09 3.52-3.543 3.982-4.021 4.18-4.317a3.8 3.8 0 0 0 .644-2.133c0-.442-.075-.867-.212-1.263l.008.027c-.427-1.283-1.565-2.29-2.867-2.54-.284-.053-.876-.092-1.049-.07"/>
</svg>