<svg xmlns="http://www.w3.org/2000/svg" width="26" height="26" fill="currentColor" class="sym sym-attachment" viewBox="0 0 26 26">
  <path d="M9.873 22.126a5.33 5.33 0 0 1-3.777-1.572c-2.079-2.11-2.079-5.527 0-7.627L13.72 5.23c1.457-1.47 4.008-1.47 5.464 0a3.933 3.933 0 0 1 0 5.518l-7.322 7.393c-.904.913-2.471.913-3.375 0-.924-.933-.924-2.464 0-3.408l6.428-6.49a.897.897 0 0 1 1.276 0 .92.92 0 0 1 0 1.287l-6.428 6.492a.59.59 0 0 0 0 .821.59.59 0 0 0 .813 0L17.9 9.448a2.083 2.083 0 0 0 0-2.93c-.804-.802-2.13-.782-2.903 0l-7.624 7.697a3.606 3.606 0 0 0 0 5.051 3.52 3.52 0 0 0 5.002 0l7.624-7.698a.897.897 0 0 1 1.275 0 .92.92 0 0 1 0 1.288l-7.623 7.698a5.3 5.3 0 0 1-3.777 1.572"/>
</svg>