<svg xmlns="http://www.w3.org/2000/svg" width="26" height="26" fill="currentColor" class="sym sym-attachment-02-solid" viewBox="0 0 26 26">
  <path d="M10.923 4.02A4.1 4.1 0 0 0 8.7 5.082V5.08c-.573.548-.919 1.159-1.113 1.968-.07.29-.072.356-.084 4.896-.013 4.783-.002 5.23.127 5.823.49 2.204 2.335 3.882 4.631 4.183l.028.003c2.827.365 5.486-1.465 6.08-4.186.128-.588.138-1.047.127-5.855-.011-5.114.005-4.72-.216-4.976-.306-.353-.971-.353-1.276 0-.223.255-.205-.176-.223 5.353l-.017 5.012-.09.315a3.84 3.84 0 0 1-2.855 2.665l-.026.005c-.378.084-1.21.084-1.587 0-1.4-.314-2.493-1.333-2.874-2.641l-.007-.027-.09-.317V7.377l.075-.229c.222-.68.812-1.232 1.546-1.445.313-.091.905-.084 1.232.014a2.26 2.26 0 0 1 1.54 1.53c.058.184.062.468.074 4.781.008 3.234 0 4.635-.026 4.751-.122.55-.84.725-1.207.293a.8.8 0 0 1-.139-.259l-.001-.006c-.026-.097-.038-1.4-.039-4.246 0-3.342-.01-4.126-.046-4.227a.78.78 0 0 0-.387-.43l-.005-.001a.7.7 0 0 0-.402-.094.83.83 0 0 0-.757.452l-.073.13-.01 4.21c-.01 4.586-.014 4.445.18 4.91.264.629.793 1.104 1.484 1.333.241.08.319.089.726.089.408 0 .485-.01.726-.09.848-.28 1.44-.925 1.62-1.77.075-.355.078-9.329.003-9.814-.247-1.6-1.487-2.862-3.083-3.187l-.025-.004a5.2 5.2 0 0 0-1.338-.046z"/>
</svg>