<svg xmlns="http://www.w3.org/2000/svg" width="26" height="26" fill="currentColor" class="sym sym-award-03" viewBox="0 0 26 26">
  <path d="M12.71 22.105c-1.257 0-2.437-.516-3.33-1.457-1.746-1.841-1.833-4.796-.24-6.739l-2.715-3.581c-.221-.294-.355-.466-.46-.688a2.6 2.6 0 0 1-.212-.648c-.048-.253-.048-.476-.048-.85v-.546c0-1.022 0-1.579.26-2.115A2.46 2.46 0 0 1 7.01 4.378c.518-.273 1.046-.273 2.015-.273h7.37c.969 0 1.497 0 2.005.273.451.243.816.627 1.046 1.103.26.536.26 1.103.26 2.115v.546c0 .374 0 .597-.049.85a3.2 3.2 0 0 1-.211.648c-.106.222-.24.404-.46.688l-2.716 3.581c1.593 1.943 1.516 4.897-.24 6.739-.893.941-2.073 1.457-3.32 1.457m-1.871-7.396a2.4 2.4 0 0 0-.24.222c-1.161 1.225-1.161 3.218 0 4.432a2.905 2.905 0 0 0 4.203 0c1.16-1.224 1.16-3.218 0-4.432a2.9 2.9 0 0 0-2.082-.92h-.049a2.82 2.82 0 0 0-1.823.678h-.01zm3.425-2.236c.221.08.442.182.653.303l2.715-3.582a9 9 0 0 0 .279-.384.7.7 0 0 0 .057-.182c.01-.071.01-.233.01-.486v-.718l-3.714 5.039zm-6.841-5.04v.72c0 .242 0 .374.01.485.009.06.028.121.057.172.048.101.134.192.278.384l2.716 3.582a4 4 0 0 1 .652-.303zm1.074-1.507 4.203 5.697 4.203-5.697z"/>
</svg>