<svg xmlns="http://www.w3.org/2000/svg" width="26" height="26" fill="currentColor" class="sym sym-award-solid" viewBox="0 0 26 26">
  <path fill-rule="evenodd" d="M12.29 4.034a7.14 7.14 0 0 0-3.682 1.501l.015-.011A9 9 0 0 0 7.53 6.602l-.011.013a7.06 7.06 0 0 0-1.466 3.389c-.072.48-.072 1.416 0 1.9.214 1.43.828 2.726 1.772 3.735l.225.241v2.712c0 3.056-.011 2.911.248 3.169a.83.83 0 0 0 .64.236c.098-.01.864-.297 2.108-.79L13 20.434l1.953.774c1.244.493 2.01.78 2.108.79a.83.83 0 0 0 .64-.236c.26-.258.248-.11.248-3.178v-2.721l.15-.147c.084-.08.253-.27.376-.424a6.96 6.96 0 0 0 1.467-3.35l.004-.039a8.4 8.4 0 0 0 0-1.9c-.304-2.026-1.393-3.73-3.113-4.871-1.273-.844-2.972-1.255-4.542-1.098zm-1.665 13.468c.334.12.914.265 1.327.335.474.08 1.622.08 2.096 0a7.3 7.3 0 0 0 1.957-.6l-.044.02.338-.158v1.441c0 1.14-.008 1.439-.041 1.426l-1.504-.598c-1.62-.642-1.698-.664-2.069-.556a39 39 0 0 0-1.432.547l-1.551.615v-2.876l.338.158c.186.086.45.197.586.245z"/>
</svg>