<svg xmlns="http://www.w3.org/2000/svg" width="26" height="26" fill="currentColor" class="sym sym-award-02-solid" viewBox="0 0 26 26">
  <path fill-rule="evenodd" d="M10.543 4.044a2.06 2.06 0 0 0-1.05.563c-.252.251-.372.462-.667 1.167-.195.468-.3.68-.36.725-.046.035-.359.177-.694.315a9 9 0 0 0-.786.358c-.46.275-.821.778-.947 1.31-.057.242-.05.692.013.935.028.108.167.47.307.802.17.407.254.647.254.735 0 .09-.078.319-.254.734-.313.745-.36.914-.358 1.313.003.566.225 1.07.65 1.468.27.255.438.348 1.17.645a7 7 0 0 1 .633.282c.054.037.126.153.19.304l.101.242-.346 2.582c-.19 1.42-.346 2.626-.346 2.682 0 .528.579.93 1.085.751.076-.026.967-.542 1.98-1.146 1.014-.603 1.861-1.097 1.883-1.097.02 0 .868.494 1.881 1.097 1.014.604 1.906 1.12 1.98 1.146.507.178 1.088-.224 1.086-.751-.19-1.68-.313-2.598-.443-3.514l.097.831-.346-2.582.102-.241c.062-.15.135-.265.19-.303.047-.032.332-.16.631-.282.733-.297.9-.39 1.172-.645.4-.364.649-.886.649-1.464v-.004c.002-.398-.045-.568-.358-1.313-.174-.41-.255-.645-.255-.733 0-.09.081-.323.255-.734.313-.745.36-.915.358-1.313v-.004c0-.556-.23-1.06-.602-1.422-.265-.267-.441-.366-1.191-.675-.351-.144-.665-.287-.697-.319-.032-.031-.183-.353-.335-.715-.314-.752-.428-.94-.743-1.23a2.03 2.03 0 0 0-1.782-.5l.013-.002c-.15.03-.546.168-.912.316-.368.148-.695.262-.758.262s-.38-.11-.744-.26c-.86-.354-1.218-.42-1.707-.314zm3.242 13.522c.4.162.778.292.912.315.282.049.663.024.934-.062.118-.037.206-.05.206-.031 0 .018.053.423.117.9.065.478.11.875.101.884s-.551-.303-1.205-.693c-1.48-.88-1.486-.884-1.85-.884s-.371.004-1.85.884c-.654.39-1.196.702-1.205.693s.036-.406.1-.883c.013-.032.054-.34.092-.649l.026-.251c0-.02.088-.006.206.031.27.085.647.11.932.062.141-.024.493-.146.907-.314.371-.15.724-.275.783-.276.062 0 .4.116.793.274"/>
</svg>