<svg xmlns="http://www.w3.org/2000/svg" width="26" height="26" fill="currentColor" class="sym sym-award-04-solid" viewBox="0 0 26 26">
  <path fill-rule="evenodd" d="M6.084 4.018a2.6 2.6 0 0 0-.674.152l.018-.006c-.36.152-.702.52-.842.905A1.73 1.73 0 0 0 4.543 6l-.003-.012c.08.305.225.576 1.907 3.55l1.53 2.708-.187.285a6.12 6.12 0 0 0-.877 4.509 6.2 6.2 0 0 0 4.696 4.799l.042.008c.41.097.88.152 1.363.152a6.1 6.1 0 0 0 2.709-.626l-.035.016a6.106 6.106 0 0 0 3.408-6.718 6.4 6.4 0 0 0-.889-2.166l.016.026-.189-.286 1.468-2.595c1.787-3.16 1.73-3.054 1.876-3.396.112-.26.12-.302.122-.622.002-.415-.06-.632-.263-.92a1.6 1.6 0 0 0-.95-.65l-.01-.002c-.237-.059-3.341-.086-3.665-.032a2 2 0 0 0-.477.16l.01-.005c-.44.218-.473.262-1.864 2.603a106 106 0 0 1-1.275 2.117c-.01 0-.583-.952-1.276-2.115C10.363 4.49 10.308 4.411 9.9 4.2c-.364-.192-.484-.202-2.177-.197h-.12q-.8 0-1.6.017zM9.065 5.69c.102.051.261.302 1.346 2.12l1.231 2.06-.323.09a6.1 6.1 0 0 0-1.792.827l.02-.013c-.196.13-.367.223-.38.207-.028-.033-2.51-4.478-2.614-4.68-.152-.3-.07-.573.194-.635.063-.014.585-.028 1.159-.03.931-.002 1.055.003 1.159.054m10.288-.001c.191.108.238.355.113.6-.11.215-2.59 4.659-2.62 4.693-.013.015-.184-.079-.38-.207a6 6 0 0 0-1.729-.804l-.043-.01-.323-.09 1.23-2.062c1.081-1.808 1.246-2.068 1.348-2.12.105-.053.216-.056 1.226-.048.792.006 1.13.02 1.18.048zm-6.085 7.361a.7.7 0 0 1 .318.193c.248.245.248.245.248 2.167v1.68h.157c.353 0 .627.161.779.456a.813.813 0 0 1-.351 1.092l-.005.002c-.129.068-.164.07-1.407.07s-1.279-.002-1.408-.07c-.387-.207-.554-.675-.378-1.06.139-.302.375-.458.734-.483l.224-.017v-.863c0-.474-.005-.863-.008-.862-.005 0-.068.021-.141.047a.81.81 0 0 1-.872-.228l-.001-.001a.7.7 0 0 1-.203-.54c0-.225.048-.36.183-.519.109-.127 1.422-1.004 1.601-1.07.162-.058.323-.058.531.004z"/>
</svg>