<svg xmlns="http://www.w3.org/2000/svg" width="26" height="26" fill="currentColor" class="sym sym-award-02" viewBox="0 0 26 26">
  <path d="M17.168 22.103a.86.86 0 0 1-.467-.132l-3.591-2.144-3.592 2.144a.915.915 0 0 1-1.38-.9l.67-5.048-.142-.344a.32.32 0 0 0-.172-.172l-1.065-.434a2.15 2.15 0 0 1-1.167-1.164 2.18 2.18 0 0 1 0-1.638l.436-1.062a.33.33 0 0 0 0-.243l-.436-1.062a2.1 2.1 0 0 1-.162-.82c0-.283.05-.556.162-.819s.264-.496.467-.698c.202-.202.446-.364.7-.465l1.065-.435a.3.3 0 0 0 .172-.182l.437-1.052a2.16 2.16 0 0 1 1.166-1.164 2.2 2.2 0 0 1 1.644 0l1.065.435c.081.03.172.03.243 0l1.066-.435a2.1 2.1 0 0 1 1.643 0c.517.213.944.638 1.167 1.154l.436 1.062a.3.3 0 0 0 .172.172l1.066.435a2.15 2.15 0 0 1 1.166 1.163 2.18 2.18 0 0 1 0 1.638l-.436 1.063a.33.33 0 0 0 0 .242l.436 1.062c.112.263.163.537.163.82s-.051.556-.163.82a2.2 2.2 0 0 1-.466.697 2.2 2.2 0 0 1-.7.465l-1.066.435a.3.3 0 0 0-.172.172l-.142.344.67 5.058a.9.9 0 0 1-.406.88.9.9 0 0 1-.497.151zm-4.058-4.178c.091 0 .193.01.284.03.213.05.365.142.517.233l2.1 1.254-.203-1.497a2.13 2.13 0 0 1-1.521-.05l-1.066-.435a.34.34 0 0 0-.243 0l-1.065.435a2.13 2.13 0 0 1-1.522.05l-.203 1.497 2.1-1.254c.162-.091.304-.182.517-.233.092-.02.193-.03.284-.03zM11.1 5.918s-.081 0-.122.02a.32.32 0 0 0-.172.172l-.436 1.063c-.223.525-.64.94-1.167 1.163l-1.065.435s-.071.04-.112.07c-.03.03-.05.061-.07.102s-.021.08-.021.121 0 .081.03.132l.437 1.062a2.1 2.1 0 0 1 0 1.638l-.437 1.062a.36.36 0 0 0 0 .253.3.3 0 0 0 .173.172l1.065.435c.527.223.944.627 1.167 1.163l.436 1.063a.32.32 0 0 0 .416.171l1.065-.434a2.2 2.2 0 0 1 1.643 0l1.056.434c.08.03.172.03.243 0a.3.3 0 0 0 .172-.171l.437-1.063c.223-.526.639-.94 1.166-1.163l1.056-.435s.07-.04.1-.07a.4.4 0 0 0 .072-.102q.03-.06.03-.121c0-.04 0-.081-.03-.132l-.436-1.052a2.18 2.18 0 0 1 0-1.638l.436-1.062a.33.33 0 0 0 0-.243.3.3 0 0 0-.172-.172l-1.066-.435a2.15 2.15 0 0 1-1.166-1.163l-.437-1.052a.3.3 0 0 0-.172-.172.37.37 0 0 0-.254 0l-1.065.435a2.2 2.2 0 0 1-1.643 0l-1.066-.435s-.08-.02-.121-.02z"/>
</svg>