<svg xmlns="http://www.w3.org/2000/svg" width="26" height="26" fill="currentColor" class="sym sym-award" viewBox="0 0 26 26">
  <path d="M17.168 22.093a.9.9 0 0 1-.335-.06l-3.723-1.487-3.723 1.486a.917.917 0 0 1-1.258-.85v-5.205a6.92 6.92 0 0 1-2.03-4.904c0-3.841 3.146-6.975 7-6.975 3.856 0 7 3.134 7 6.975a6.9 6.9 0 0 1-2.028 4.903v5.207a.92.92 0 0 1-.406.758.93.93 0 0 1-.507.152zM9.965 17.3v2.537l2.566-1.02a1.43 1.43 0 0 1 .771-.112c.153.02.274.07.376.111l2.577 1.031V17.31c-1.897.95-4.393.95-6.29 0zM13.11 5.917c-2.851 0-5.174 2.315-5.174 5.156s2.323 5.156 5.174 5.156c2.85 0 5.174-2.315 5.174-5.156S15.96 5.917 13.11 5.917"/>
</svg>