<svg xmlns="http://www.w3.org/2000/svg" width="26" height="26" fill="currentColor" class="sym sym-award-03-solid" viewBox="0 0 26 26">
  <path fill-rule="evenodd" d="M7.914 4.008a3.6 3.6 0 0 0-.843.162c-.632.233-1.225.84-1.423 1.457-.128.398-.16.842-.145 2.063.013 1.036.018 1.111.09 1.328.153.46.278.631 1.992 2.738l1.68 2.064-.17.204q-.745.905-1.02 2.188c-.084.398-.084 1.307.001 1.754.381 2.004 1.88 3.506 3.948 3.957.47.103 1.48.103 1.951 0 1.575-.343 2.807-1.274 3.507-2.651a4.88 4.88 0 0 0 .351-3.44 5.2 5.2 0 0 0-.924-1.802l.009.011-.183-.22 1.68-2.064c1.714-2.107 1.839-2.28 1.992-2.739.072-.216.077-.292.09-1.327.015-1.222-.016-1.665-.145-2.063-.193-.602-.775-1.208-1.387-1.446-.465-.181-.217-.173-5.782-.179a643 643 0 0 0-5.448.007h.178zm9.215 1.677c.115.08.193.205.207.348v.002a.5.5 0 0 1-.076.221v-.002c-.088.143-4.236 5.398-4.26 5.398S8.828 6.398 8.739 6.254c-.087-.14-.095-.266-.027-.395.07-.134.141-.18.315-.204.085-.013 1.925-.02 4.09-.017 3.182.003 3.95.012 4.011.047z"/>
</svg>