<svg xmlns="http://www.w3.org/2000/svg" width="26" height="26" fill="currentColor" class="sym sym-award-04" viewBox="0 0 26 26">
  <path d="M13.151 22.1a6.2 6.2 0 0 1-4.392-1.8 6.1 6.1 0 0 1-1.824-4.358c0-1.305.407-2.539 1.151-3.58L5.284 7.387c-.429-.749-.683-1.204-.612-1.76.051-.475.316-.92.713-1.203.449-.324.979-.324 1.845-.324h1.824c.327 0 .55 0 .816.081.234.07.438.192.621.354.204.182.316.374.48.647l2.19 3.691 2.192-3.69c.163-.274.275-.466.479-.648.183-.162.397-.283.621-.354.255-.08.49-.08.816-.08h1.824c.866 0 1.396 0 1.845.323.397.283.652.718.713 1.203.061.546-.194 1.001-.611 1.76l-2.803 4.975a6.12 6.12 0 0 1 1.152 3.58 6.06 6.06 0 0 1-1.825 4.358 6.2 6.2 0 0 1-4.392 1.8zm-.03-10.517a4.3 4.3 0 0 0-3.068 1.274 4.3 4.3 0 0 0-1.284 3.075c0 1.162.459 2.255 1.284 3.074a4.404 4.404 0 0 0 6.197 0 4.3 4.3 0 0 0 1.284-3.074 4.3 4.3 0 0 0-1.284-3.075 4.38 4.38 0 0 0-3.068-1.274zm1.529-1.638a6.4 6.4 0 0 1 2.231 1.052l2.538-4.5c.112-.203.235-.415.306-.567h-2.701c-.03.051-.06.112-.112.193L14.64 9.955zM6.578 5.93c.081.152.194.364.306.567l2.537 4.51a6.2 6.2 0 0 1 2.232-1.052L9.381 6.123c-.051-.081-.082-.142-.113-.193h-2.7zm7.593 12.934h-2.039a.91.91 0 1 1 0-1.82h.102v-1.466a.92.92 0 0 1-1.07-.354.91.91 0 0 1 .255-1.264l1.223-.81a.92.92 0 0 1 .938-.04.92.92 0 0 1 .489.8v3.134h.102a.91.91 0 1 1 0 1.82"/>
</svg>