<svg xmlns="http://www.w3.org/2000/svg" width="26" height="26" fill="currentColor" class="sym sym-backpack-solid" viewBox="0 0 26 26">
  <path fill-rule="evenodd" d="M7.607 4.009c-1.013.067-1.564.248-2.202.725-.73.545-1.165 1.258-1.338 2.188-.062.324-.068.561-.067 2.413 0 1.752.009 2.117.062 2.49.108.755.311 1.314.678 1.86l.143.216v2.663c0 2.823.016 3.161.165 3.636.225.71.926 1.409 1.636 1.633.152.048.435.105.626.127.482.053 10.898.053 11.38 0 .191-.022.473-.079.626-.127.71-.224 1.411-.924 1.636-1.633.15-.474.165-.813.165-3.636V13.9l.143-.216c.366-.546.569-1.105.678-1.86.053-.373.062-.738.062-2.49 0-1.817-.006-2.092-.063-2.392-.128-.677-.36-1.179-.776-1.684-.363-.44-1.074-.919-1.595-1.074-.6-.178-.466-.175-6.313-.182a689 689 0 0 0-5.836.006zm8.406 6.34c.332.113.595.484.595.841a.95.95 0 0 1-.27.632c-.28.28-.141.27-3.338.27s-3.058.01-3.339-.27a.88.88 0 0 1 .002-1.264c.275-.275.124-.262 3.322-.265 2.565-.003 2.87.003 3.028.056m-8.897 5.113c.736.213.736.213 5.884.213 4.285 0 4.748-.005 5.145-.062a6.4 6.4 0 0 0 1.108-.263c.063-.024.065.057.052 2.06-.01 1.543-.026 2.12-.06 2.224-.057.176-.311.431-.494.496-.21.074-11.291.074-11.501 0-.182-.065-.437-.32-.495-.496-.033-.103-.05-.68-.06-2.224-.013-2.003-.01-2.084.052-2.06s.185.062.31.098z"/>
</svg>