<svg xmlns="http://www.w3.org/2000/svg" width="26" height="26" fill="currentColor" class="sym sym-backpack" viewBox="0 0 26 26">
  <path d="M17.408 22.085H8.782c-1.113 0-1.73 0-2.306-.293a2.68 2.68 0 0 1-1.183-1.183C5 20.033 5 19.417 5 18.305v-4.316a5.6 5.6 0 0 1-.455-.737C4.1 12.322 4.1 11.29 4.1 9.239c0-1.576 0-2.365.354-3.102a3.6 3.6 0 0 1 1.688-1.688c.739-.354 1.527-.354 3.105-.354h7.705c1.578 0 2.367 0 3.105.354.728.353 1.335.95 1.689 1.688.354.737.354 1.526.354 3.102 0 2.052 0 3.083-.445 4.013a5 5 0 0 1-.455.747v4.316c0 1.112 0 1.728-.294 2.304a2.67 2.67 0 0 1-1.183 1.183c-.576.293-1.193.293-2.305.293zM6.81 15.425v2.87c0 .778 0 1.293.09 1.475a.9.9 0 0 0 .385.384c.192.102.708.102 1.476.102h8.626c.779 0 1.295 0 1.477-.102a.83.83 0 0 0 .384-.384c.101-.192.101-.707.101-1.485v-2.87c-.89.373-1.911.373-3.843.373h-4.884c-1.931 0-2.953 0-3.843-.374zm2.427-9.51c-1.254 0-1.952 0-2.316.171a1.82 1.82 0 0 0-.84.839c-.171.364-.171 1.061-.171 2.314 0 1.779 0 2.668.263 3.224.263.546.707.99 1.254 1.254.556.262 1.446.262 3.215.262h4.885c1.78 0 2.67 0 3.215-.262a2.7 2.7 0 0 0 1.254-1.254c.263-.545.263-1.445.263-3.214 0-1.253 0-1.95-.172-2.314a1.78 1.78 0 0 0-.829-.829c-.364-.182-1.062-.182-2.316-.182H9.237zM15.79 12.2H10.4a.906.906 0 0 1-.91-.91c0-.505.404-.91.91-.91h5.39c.505 0 .91.405.91.91s-.405.91-.91.91"/>
</svg>