<svg xmlns="http://www.w3.org/2000/svg" width="26" height="26" fill="currentColor" class="sym sym-bank-note-03" viewBox="0 0 26 26">
  <path d="M20.562 22H5.438c-1.343 0-2.083 0-2.745-.354a3.2 3.2 0 0 1-1.352-1.405C1 19.554 1 18.786 1 17.391V8.61c0-1.395 0-2.163.34-2.85a3.1 3.1 0 0 1 1.353-1.405C3.355 4 4.095 4 5.438 4h15.124c1.343 0 2.083 0 2.744.354a3.2 3.2 0 0 1 1.353 1.405C25 6.446 25 7.214 25 8.609v8.782c0 1.395 0 2.163-.34 2.85a3.14 3.14 0 0 1-1.354 1.405c-.661.354-1.4.354-2.744.354M5.438 5.83c-1.032 0-1.655 0-1.947.15a1.37 1.37 0 0 0-.593.617c-.146.293-.146.95-.146 2.022V17.4c0 1.072 0 1.718.146 2.022.126.263.33.475.584.616.292.152.915.152 1.946.152h15.124c1.032 0 1.655 0 1.947-.152.253-.131.457-.354.593-.616.146-.303.146-.95.146-2.022V8.62c0-1.072 0-1.718-.146-2.022a1.46 1.46 0 0 0-.583-.616c-.293-.152-.915-.152-1.947-.152zM13 18.532c-.487 0-.876-.404-.876-.91v-.242h-1.353c-.486 0-.876-.404-.876-.91 0-.505.39-.909.876-.909h2.784a.815.815 0 0 0 .798-.819.815.815 0 0 0-.798-.818h-1.11c-1.401 0-2.54-1.183-2.54-2.638 0-1.344.973-2.456 2.229-2.618v-.263c0-.505.39-.91.876-.91s.876.405.876.91v.243h1.352c.487 0 .876.404.876.91 0 .505-.389.91-.876.91h-2.783c-.438 0-.788.373-.788.818s.36.818.788.818h1.11c1.4 0 2.55 1.183 2.55 2.638 0 1.344-.974 2.456-2.23 2.618v.263c0 .505-.389.91-.875.91zm6.676-4.042c-.788 0-1.43-.667-1.43-1.486s.642-1.486 1.43-1.486c.789 0 1.431.667 1.431 1.486s-.642 1.486-1.43 1.486m-13.343 0c-.788 0-1.43-.667-1.43-1.486s.642-1.486 1.43-1.486c.789 0 1.431.667 1.431 1.486s-.642 1.486-1.43 1.486"/>
</svg>