<svg xmlns="http://www.w3.org/2000/svg" width="26" height="26" fill="currentColor" class="sym sym-bank-solid" viewBox="0 0 26 26">
  <path fill-rule="evenodd" d="M8.986 4.833c-4.061.906-4.047.902-4.409 1.241-.216.203-.37.436-.477.722-.075.202-.08.282-.093 1.44-.014 1.35.009 1.578.197 1.965.127.261.51.645.775.773.113.055.343.127.513.158l.307.059v5.39l-.135.02c-.548.084-.804.204-1.127.523-.47.467-.537.736-.537 2.165 0 1.428.067 1.696.537 2.167.269.27.518.405.885.483.379.081 14.777.081 15.156 0 .367-.078.616-.213.885-.483.47-.47.537-.738.537-2.167 0-1.43-.067-1.698-.537-2.165-.323-.32-.58-.44-1.127-.522l-.135-.021v-5.39l.307-.06c.195-.037.367-.092.53-.164l-.017.006c.265-.129.648-.511.775-.773.189-.387.21-.614.197-1.964-.013-1.158-.019-1.238-.093-1.44a1.85 1.85 0 0 0-.476-.722l-.001-.001c-.362-.34-.344-.335-4.435-1.244-3.193-.71-3.775-.832-4.015-.829-.226.003-.987.162-3.988.832m.846 11.752H7.6v-5.41h2.232zm4.5 0H11.67v-5.41h2.664zm4.069 0h-2.232v-5.41H18.4z"/>
</svg>