<svg xmlns="http://www.w3.org/2000/svg" width="26" height="26" fill="currentColor" class="sym sym-bank-note-02-solid" viewBox="0 0 26 26">
  <path d="M12.446 11.414c-.636.248-1.08.87-1.08 1.6q0 .13.018.254v-.009c.215 1.362 1.824 1.903 2.768.93.295-.304.479-.726.479-1.191a1.69 1.69 0 0 0-.916-1.514l-.01-.004c-.319-.162-.915-.192-1.258-.065z"/>
  <path fill-rule="evenodd" d="M4.169 4.027c-.77.054-1.176.176-1.668.5-.548.362-1.051.985-1.264 1.565-.243.663-.237.477-.237 6.91 0 6.437-.007 6.247.24 6.915.279.765 1.04 1.548 1.785 1.84.658.256.144.243 9.975.243 9.843 0 9.315.013 9.981-.247.741-.288 1.501-1.074 1.783-1.843.242-.66.236-.477.236-6.908 0-6.43.006-6.248-.236-6.908-.282-.769-1.042-1.554-1.783-1.843-.646-.253-.168-.24-9.61-.25-4.785-.004-8.925.007-9.202.026m9.771 5.139c.656.176 1.185.483 1.698.992a4 4 0 0 1 1.084 1.874c.135.514.135 1.427 0 1.94a4 4 0 0 1-1.081 1.872l-.002.002a3.7 3.7 0 0 1-1.673.99l-.026.005c-.497.14-1.383.14-1.88 0a3.73 3.73 0 0 1-1.7-.996 4 4 0 0 1-1.076-1.847l-.007-.028c-.075-.286-.095-.486-.095-.97 0-.695.082-1.097.34-1.657.207-.45.377-.7.74-1.086a3.7 3.7 0 0 1 2.075-1.159l.022-.003c.414-.082 1.13-.05 1.58.07zm-7.06.547c.264.124.426.29.55.56l.103.226v2.504c0 2.42-.003 2.51-.09 2.707a1.07 1.07 0 0 1-.536.566l-.007.003a1.05 1.05 0 0 1-.463.106c-.444 0-.827-.275-.995-.669l-.003-.006c-.086-.197-.088-.285-.088-2.707 0-2.423.002-2.51.088-2.707.106-.256.298-.456.537-.566l.006-.003a1.07 1.07 0 0 1 .897-.013zm13.115 0c.265.124.427.29.552.56l.102.226v2.504c0 2.42-.003 2.51-.089 2.707a1.07 1.07 0 0 1-.537.566l-.006.003a1.05 1.05 0 0 1-.463.106c-.445 0-.827-.275-.996-.669l-.003-.006c-.086-.197-.088-.285-.088-2.707 0-2.423.002-2.51.088-2.707.106-.256.298-.456.537-.566l.007-.003c.278-.135.623-.141.896-.013z"/>
</svg>