<svg xmlns="http://www.w3.org/2000/svg" width="26" height="26" fill="currentColor" class="sym sym-bank-note" viewBox="0 0 26 26">
  <path d="M7.954 22c-2.593 0-4.067-.404-4.834-.748-.192-.081-.313-.162-.525-.354a2.4 2.4 0 0 1-.484-.738C2 19.846 2 19.624 2 19.41V8.541c0-1.113 0-1.629.262-2.074.253-.434.555-.677 1.02-.849.484-.172 1.009-.07 2.27.172.798.152 1.605.232 2.402.232 1.272 0 2.614-.414 4.047-.86C13.757 4.618 15.745 4 18.046 4c2.594 0 4.067.405 4.834.748.192.081.313.162.525.354a2.4 2.4 0 0 1 .484.738c.111.314.111.536.111.749v10.87c0 1.113 0 1.629-.262 2.074-.253.434-.555.677-1.02.849-.484.172-1.009.07-2.27-.172a13 13 0 0 0-2.402-.233c-1.272 0-2.614.415-4.047.86C12.243 21.383 10.255 22 7.954 22m-4.137-2.467s.04.06.06.08c.474.193 1.675.567 4.077.567 2.029 0 3.795-.546 5.51-1.082 1.564-.486 3.038-.94 4.582-.94.918 0 1.837.09 2.725.262.656.121 1.261.243 1.412.223V6.467s-.04-.05-.06-.08c-.474-.193-1.675-.567-4.077-.567-2.029 0-3.795.546-5.51 1.082-1.564.486-3.038.94-4.582.94-.918 0-1.837-.09-2.725-.262-.656-.122-1.251-.243-1.412-.223zm3.128-2.59a.905.905 0 0 1-.908-.91V11.99c0-.506.403-.91.908-.91s.908.404.908.91v4.045c0 .505-.403.91-.908.91M13 16.439a3.438 3.438 0 0 1 0-6.876 3.438 3.438 0 0 1 0 6.876m0-5.056c-.888 0-1.615.728-1.615 1.618s.727 1.618 1.615 1.618 1.615-.728 1.615-1.618-.727-1.618-1.615-1.618m6.055 3.54a.905.905 0 0 1-.908-.91V9.965c0-.505.404-.91.908-.91.505 0 .908.405.908.91v4.045c0 .506-.403.91-.908.91"/>
</svg>