<svg xmlns="http://www.w3.org/2000/svg" width="26" height="26" fill="currentColor" class="sym sym-bank-note-02" viewBox="0 0 26 26">
  <path d="M20.562 22H5.438c-1.343 0-2.083 0-2.745-.354a3.2 3.2 0 0 1-1.352-1.405C1 19.554 1 18.786 1 17.391V8.61c0-1.395 0-2.163.34-2.85a3.1 3.1 0 0 1 1.353-1.405C3.355 4 4.095 4 5.438 4h15.124c1.343 0 2.083 0 2.744.354a3.2 3.2 0 0 1 1.353 1.405C25 6.446 25 7.214 25 8.609v8.782c0 1.395 0 2.163-.34 2.85a3.14 3.14 0 0 1-1.354 1.405c-.661.354-1.4.354-2.744.354M5.438 5.83c-1.032 0-1.655 0-1.947.15a1.37 1.37 0 0 0-.593.617c-.146.293-.146.95-.146 2.022V17.4c0 1.072 0 1.718.146 2.022.126.263.33.475.584.616.292.152.915.152 1.946.152h15.124c1.032 0 1.655 0 1.947-.152.253-.131.457-.354.593-.616.146-.303.146-.95.146-2.022V8.62c0-1.072 0-1.718-.146-2.022a1.46 1.46 0 0 0-.583-.616c-.293-.152-.915-.152-1.947-.152zM13 16.804c-2.015 0-3.66-1.708-3.66-3.8s1.645-3.8 3.66-3.8 3.66 1.708 3.66 3.8-1.645 3.8-3.66 3.8m0-5.77c-1.051 0-1.908.889-1.908 1.98 0 1.092.857 1.981 1.908 1.981s1.908-.89 1.908-1.98c0-1.092-.857-1.982-1.908-1.982m6.676 5.194c-.486 0-.875-.404-.875-.91v-4.618c0-.506.389-.91.875-.91.487 0 .876.404.876.91v4.618c0 .506-.389.91-.876.91m-13.343 0c-.486 0-.876-.404-.876-.91v-4.618c0-.506.39-.91.876-.91.487 0 .876.404.876.91v4.618c0 .506-.39.91-.876.91"/>
</svg>