<svg xmlns="http://www.w3.org/2000/svg" width="26" height="26" fill="currentColor" class="sym sym-bank" viewBox="0 0 26 26">
  <path d="M6.433 22.1c-.586 0-.97 0-1.363-.202a1.85 1.85 0 0 1-.788-.789c-.192-.384-.192-.769-.192-1.365v-.718c0-.587 0-.97.202-1.365a1.75 1.75 0 0 1 .788-.789c.252-.131.505-.172.808-.192v-5.4c-.303-.02-.556-.06-.808-.192a1.86 1.86 0 0 1-.788-.789C4.1 9.915 4.1 9.52 4.1 8.934V7.933c0-.486 0-.81.141-1.143a1.87 1.87 0 0 1 .606-.758c.303-.223.617-.294 1.091-.395l6.647-1.476.192.89-.182-.89c.162-.03.242-.05.323-.06h.313c.111.01.192.03.354.06l6.656 1.486c.475.101.788.172 1.091.395.263.192.475.455.606.748.152.344.152.667.152 1.153v1c0 .587 0 .972-.192 1.366a1.8 1.8 0 0 1-.788.789c-.252.131-.505.172-.808.192v5.4c.303.02.556.06.808.192.343.172.616.445.788.789.192.384.192.768.192 1.355v.718c0 .586 0 .98-.202 1.365a1.85 1.85 0 0 1-.788.789c-.384.202-.778.202-1.364.202zm0-3.6c-.252 0-.505 0-.575.02.05 0 .05.263.05.516v.718c0 .253 0 .506.02.576 0-.05.263-.05.505-.05h13.293c.253 0 .505 0 .576-.02-.05 0-.05-.263-.05-.516v-.718c0-.253 0-.506-.02-.587 0 .05-.263.051-.506.051H6.433zm9.798-1.82h2.222V11.3h-2.222zm-4.485 0h2.667V11.3h-2.667zm-4.04 0h2.222V11.3H7.706zm5.263-10.73L6.322 7.428c-.212.05-.353.07-.454.111.03.04.04.182.04.405v1c0 .254 0 .507.02.587 0-.05.263-.05.505-.05h13.293c.253 0 .505 0 .576-.02-.05 0-.05-.263-.05-.516V7.943c0-.223 0-.364-.01-.465-.051.02-.183 0-.405-.05L13.06 5.92z"/>
</svg>