<svg xmlns="http://www.w3.org/2000/svg" width="26" height="26" fill="currentColor" class="sym sym-bank-note-solid" viewBox="0 0 26 26">
  <path d="M12.492 11.588a1.52 1.52 0 0 0-.971 1.649v-.009c.196 1.21 1.67 1.691 2.532.827a1.496 1.496 0 0 0-.4-2.404l-.008-.004c-.292-.144-.838-.17-1.152-.058"/>
  <path fill-rule="evenodd" d="M17.144 4.022c-1.5.103-2.671.36-5.288 1.16-2.31.706-2.956.826-4.272.79-.914-.026-1.064-.043-2.192-.25-1.089-.199-1.423-.233-1.76-.18-.778.13-1.39.717-1.557 1.472l-.003.012c-.066.295-.102 12.303-.039 12.717.082.527.414 1.062.836 1.344 1.148.768 4.57 1.138 7.11.77 1.149-.168 2.004-.38 4.102-1.021 2.384-.73 3.01-.845 4.335-.81.914.027 1.064.044 2.191.25 1.09.2 1.424.234 1.76.181a1.92 1.92 0 0 0 1.558-1.472l.002-.013c.066-.289.103-12.204.042-12.674-.075-.553-.4-1.093-.837-1.386-.57-.382-1.792-.696-3.228-.831-.8-.075-2.12-.104-2.759-.06zm2.258 5.052c.242.11.39.257.505.498l.093.2v2.226c0 2.152-.003 2.231-.081 2.406a.96.96 0 0 1-.492.503l-.006.002a.996.996 0 0 1-1.335-.5l-.002-.005c-.079-.175-.081-.253-.081-2.406s.002-2.231.08-2.406a.96.96 0 0 1 .492-.503l.006-.003c.255-.12.57-.126.82-.012m-5.542.516c.6.156 1.085.43 1.554.882a3.53 3.53 0 0 1 .992 1.666c.124.456.124 1.268 0 1.724a3.53 3.53 0 0 1-.99 1.664l-.001.001a3.4 3.4 0 0 1-1.531.88l-.024.005c-.455.124-1.266.124-1.72 0a3.44 3.44 0 0 1-1.556-.886 3.5 3.5 0 0 1-.986-1.641l-.006-.025c-.069-.255-.087-.432-.087-.862 0-.618.075-.975.312-1.473.189-.4.345-.622.676-.965a3.4 3.4 0 0 1 1.9-1.03l.02-.003c.379-.072 1.034-.045 1.446.062m-6.462 1.489c.242.11.39.257.504.498l.094.2v2.226c0 2.152-.003 2.231-.082 2.406a.96.96 0 0 1-.491.503l-.006.003a.996.996 0 0 1-1.335-.5l-.002-.006c-.08-.175-.081-.253-.081-2.406s.002-2.231.08-2.406a.96.96 0 0 1 .492-.503l.006-.002c.255-.12.57-.127.82-.013"/>
</svg>