<svg xmlns="http://www.w3.org/2000/svg" width="26" height="26" fill="currentColor" class="sym sym-battery-low" viewBox="0 0 26 26">
  <path d="M14.88 18.3H8.892c-1.456 0-2.255 0-2.973-.347a3.25 3.25 0 0 1-1.456-1.39c-.364-.685-.364-1.447-.364-2.837v-1.852c0-1.39 0-2.152.364-2.837a3.3 3.3 0 0 1 1.456-1.39C6.638 7.3 7.437 7.3 8.893 7.3h5.986c1.457 0 2.255 0 2.973.347a3.25 3.25 0 0 1 1.457 1.39c.364.685.364 1.447.364 2.837v1.852c0 1.39 0 2.152-.364 2.837a3.3 3.3 0 0 1-1.457 1.39c-.718.347-1.517.347-2.973.347M8.892 9.037c-1.173 0-1.82 0-2.144.154a1.47 1.47 0 0 0-.657.637c-.162.309-.162.926-.162 2.046v1.852c0 1.12 0 1.737.162 2.046.141.27.384.492.667.637.324.154.97.154 2.144.154h5.986c1.174 0 1.82 0 2.144-.154.284-.135.516-.357.658-.627.161-.31.161-.927.161-2.046v-1.853c0-1.119 0-1.736-.161-2.045a1.5 1.5 0 0 0-.668-.637c-.323-.154-.97-.154-2.144-.154H8.893zm-.243 6.175c-.505 0-.91-.386-.91-.868v-3.088c0-.482.405-.868.91-.868.506 0 .91.386.91.868v3.088c0 .482-.404.868-.91.868m12.54-.772c-.506 0-.91-.386-.91-.868v-1.544c0-.482.404-.868.91-.868.505 0 .91.386.91.868v1.544c0 .482-.405.868-.91.868"/>
</svg>