<svg xmlns="http://www.w3.org/2000/svg" width="26" height="26" fill="currentColor" class="sym sym-battery-low-solid" viewBox="0 0 26 26">
  <path fill-rule="evenodd" d="M7.145 7.529c-.717.047-1.233.205-1.743.535-.444.288-.932.86-1.128 1.32C4.03 9.965 4 10.349 4 13c0 2.65.03 3.035.274 3.614.212.5.698 1.05 1.21 1.37.5.314.907.433 1.674.49.317.025 1.854.032 4.933.024 4.93-.012 4.743-.005 5.365-.21.805-.266 1.6-1.03 1.878-1.804.208-.579.21-.623.21-3.484s-.002-2.905-.21-3.484c-.185-.517-.69-1.139-1.176-1.452-.532-.342-1.012-.485-1.817-.537-.552-.036-8.64-.033-9.196.003m1.725 3.2a.94.94 0 0 1 .391.404c.066.153.066 3.581 0 3.734a.88.88 0 0 1-.758.492.88.88 0 0 1-.758-.492c-.066-.153-.066-3.581 0-3.734a.9.9 0 0 1 .545-.465c.13-.04.436-.009.58.061"/>
  <path d="M21.017 11.455a.87.87 0 0 0-.55.423l-.002.004c-.068.122-.07.164-.07 1.118s.002.995.07 1.117c.16.288.408.435.732.435a.79.79 0 0 0 .732-.435c.069-.122.071-.163.071-1.117s-.003-.996-.07-1.118c-.183-.327-.576-.511-.913-.427"/>
</svg>