<svg xmlns="http://www.w3.org/2000/svg" width="26" height="26" fill="currentColor" class="sym sym-battery-charging-solid" viewBox="0 0 26 26">
  <path d="M7.145 7.528c-.72.05-1.233.207-1.743.537-.444.287-.932.86-1.128 1.32C4.03 9.965 4 10.35 4 13s.03 3.034.274 3.614c.212.499.698 1.05 1.21 1.37.686.43 1.305.535 2.987.515.8-.01.86-.015.983-.078.072-.038.17-.109.218-.158.075-.076 3.041-4.43 3.041-4.464 0-.006-.814-.014-1.81-.02-1.79-.01-1.81-.01-1.944-.078a.97.97 0 0 1-.39-.402l-.003-.005a.87.87 0 0 1 .032-.643c.043-.076.73-1.1 1.526-2.275a115 115 0 0 0 1.527-2.287c.096-.182.099-.263.015-.394-.12-.19-.04-.184-2.18-.187a71 71 0 0 0-2.341.021"/>
  <path d="M14.286 7.53c-.313.059-.3.042-1.922 2.435l-1.513 2.232 1.824.016c1.644.014 1.833.022 1.927.07.143.076.297.23.38.383a.8.8 0 0 1 .003.664c-.04.07-.72 1.084-1.513 2.257.19-.34-.314.4-.815 1.14l-.712 1.127c-.094.154-.108.325-.037.457.096.177.094.176 1.821.187 1.8.011 2.88-.026 3.328-.116 1.178-.236 2.16-1.195 2.387-2.331.081-.408.113-1.273.113-3.051 0-2.928-.057-3.357-.551-4.076a3.14 3.14 0 0 0-2.002-1.316c-.5-.093-2.357-.145-2.719-.077zm6.731 3.925a.87.87 0 0 0-.55.422l-.002.005c-.068.122-.07.163-.07 1.117s.002.996.07 1.118c.16.287.408.434.732.434a.79.79 0 0 0 .732-.434c.069-.122.071-.164.071-1.118s-.003-.995-.07-1.117c-.183-.327-.576-.511-.913-.427"/>
</svg>