<svg xmlns="http://www.w3.org/2000/svg" width="26" height="26" fill="currentColor" class="sym sym-battery-empty" viewBox="0 0 26 26">
  <path d="M14.78 19H8.793c-1.456 0-2.255 0-2.973-.347a3.25 3.25 0 0 1-1.456-1.39C4 16.578 4 15.816 4 14.426v-1.852c0-1.39 0-2.152.364-2.837.324-.598.83-1.08 1.456-1.39C6.538 8 7.337 8 8.793 8h5.987c1.456 0 2.255 0 2.973.347a3.25 3.25 0 0 1 1.456 1.39c.364.685.364 1.447.364 2.837v1.852c0 1.39 0 2.152-.364 2.837a3.3 3.3 0 0 1-1.456 1.39C17.035 19 16.236 19 14.78 19M8.793 9.737c-1.173 0-1.82 0-2.144.154a1.4 1.4 0 0 0-.657.637c-.162.309-.162.926-.162 2.046v1.852c0 1.12 0 1.737.162 2.046.152.27.374.492.668.637.323.154.97.154 2.143.154h5.987c1.173 0 1.82 0 2.144-.154.283-.135.515-.357.657-.637.162-.309.162-.926.162-2.046v-1.852c0-1.12 0-1.737-.162-2.046a1.5 1.5 0 0 0-.667-.637c-.324-.154-.971-.154-2.144-.154zM21.09 15.14c-.506 0-.91-.386-.91-.868v-1.544c0-.482.404-.868.91-.868s.91.386.91.868v1.544c0 .482-.404.868-.91.868"/>
</svg>