<svg xmlns="http://www.w3.org/2000/svg" width="26" height="26" fill="currentColor" class="sym sym-battery-charging" viewBox="0 0 26 26">
  <path d="M10.971 19a1 1 0 0 1-.506-.145.853.853 0 0 1-.252-1.206l2.296-3.28H9.352a.9.9 0 0 1-.799-.463.85.85 0 0 1 .04-.887l3.238-4.631a.94.94 0 0 1 1.265-.241c.415.27.536.8.253 1.206l-2.297 3.28h3.157c.334 0 .648.173.8.463a.85.85 0 0 1-.041.887l-3.238 4.631a.92.92 0 0 1-.759.386m3.805 0h-.162c-.506 0-.91-.386-.91-.868 0-.483.404-.869.91-.869h.162c1.173 0 1.821 0 2.145-.154.283-.135.516-.357.657-.637.162-.308.162-.926.162-2.045v-2.47c0-.598 0-.964-.05-1.148a1.48 1.48 0 0 0-1.073-1.022c-.192-.048-.576-.048-1.204-.048-.506 0-.91-.386-.91-.869 0-.482.404-.868.91-.868.83 0 1.255 0 1.67.106 1.143.29 2.054 1.158 2.357 2.248.111.405.111.8.111 1.601v2.47c0 1.39 0 2.151-.364 2.837a3.3 3.3 0 0 1-1.457 1.389c-.718.347-1.518.347-2.975.347zm-6.638 0c-.83 0-1.244 0-1.67-.106-1.143-.29-2.053-1.158-2.357-2.248C4 16.241 4 15.846 4 15.045v-2.47c0-1.39 0-2.151.364-2.836a3.3 3.3 0 0 1 1.457-1.39c.719-.347 1.518-.347 2.975-.347h.162c.506 0 .91.386.91.868 0 .483-.404.869-.91.869h-.162c-1.174 0-1.821 0-2.145.154a1.4 1.4 0 0 0-.658.637c-.162.308-.162.926-.162 2.045v2.47c0 .598 0 .964.05 1.148.143.501.547.887 1.073 1.022.193.048.577.049 1.205.049.505 0 .91.385.91.868 0 .482-.405.868-.91.868zm12.951-3.859c-.505 0-.91-.386-.91-.868v-1.544c0-.482.405-.868.91-.868.506 0 .911.386.911.868v1.544c0 .482-.405.868-.91.868"/>
</svg>