<svg xmlns="http://www.w3.org/2000/svg" width="26" height="26" fill="currentColor" class="sym sym-beaker-solid" viewBox="0 0 26 26">
  <path fill-rule="evenodd" d="M9.538 4.024c-.485.099-.86.52-.934 1.049-.017.115-.03.733-.03 1.373 0 .639.013 1.257.03 1.373.08.57.495.996 1.047 1.072l.142.02-.01 1.773c-.01 1.747-.01 1.774-.079 1.903-.098.187-.15.233-2.175 1.956-1.006.857-1.895 1.637-1.976 1.733a2.9 2.9 0 0 0-.479.913c-.072.24-.074.28-.074 1.49 0 1.122.007 1.268.06 1.474.25.94.946 1.613 1.862 1.8.23.047.852.052 6.184.044l5.927-.01.211-.07c.449-.148.75-.331 1.05-.638.33-.333.565-.765.659-1.247l.002-.016c.045-.228.05-.445.04-1.44-.011-1.115-.015-1.186-.085-1.403a3 3 0 0 0-.481-.903l.004.006c-.081-.096-.97-.876-1.976-1.733-2.024-1.723-2.077-1.77-2.175-1.956-.07-.13-.07-.157-.079-1.903l-.01-1.773.142-.02c.567-.079.97-.5 1.052-1.104.019-.143.026-.759.02-1.52-.012-1.233-.014-1.286-.084-1.464a1.25 1.25 0 0 0-.41-.564l-.003-.003c-.33-.247-.047-.23-3.837-.236-1.868-.002-3.46.008-3.537.024zm5.065 6.77c.01 1.875.011 1.895.084 2.121.1.31.3.683.478.897.081.096.745.686 1.477 1.31l1.33 1.134-2.49.009c-1.368.004-3.608.004-4.977 0l-2.49-.009 1.33-1.134c.732-.624 1.396-1.213 1.477-1.31.178-.214.378-.588.478-.897.073-.226.074-.246.084-2.12l.01-1.893h3.198z"/>
</svg>