<svg xmlns="http://www.w3.org/2000/svg" width="26" height="26" fill="currentColor" class="sym sym-beaker" viewBox="0 0 26 26">
  <path d="M18.12 22H7.86c-.414 0-.64 0-.877-.05a2.5 2.5 0 0 1-1.934-1.983C5 19.725 5 19.492 5 19.067v-.809c0-.495 0-.788.089-1.112a2.5 2.5 0 0 1 .365-.789c.187-.273.414-.465.779-.778l2.92-2.498c.247-.213.414-.354.464-.425a.7.7 0 0 0 .108-.232c.02-.091.02-.304.02-.637v-2.74a1.3 1.3 0 0 1-.484-.132 1.26 1.26 0 0 1-.552-.567c-.138-.293-.138-.546-.138-.85v-1.94c0-.294 0-.557.138-.83a1.33 1.33 0 0 1 .562-.586C9.547 4 9.794 4 10.09 4h5.84c.296 0 .542 0 .819.142.236.12.434.323.552.566.138.283.138.546.138.84v1.94c0 .304 0 .557-.138.84a1.26 1.26 0 0 1-1.036.708v2.74c0 .334 0 .547.02.638.02.08.059.151.099.222.049.07.207.212.453.415l2.93 2.497c.375.324.592.516.78.779.167.243.285.506.364.799.089.323.089.617.089 1.112v.809c0 .425 0 .657-.05.9a2.5 2.5 0 0 1-1.933 1.982c-.236.05-.463.05-.878.05zm-9.707-1.82h9.154c.592 0 1.075 0 1.243-.071.04-.02.079-.04.109-.07a.65.65 0 0 0 .207-.254c.059-.121.069-.485.079-.96 0-.152 0-.263-.01-.304a.69.69 0 0 0-.543-.556c-.069-.01-.276-.01-.532-.01H7.86c-.256 0-.463 0-.522.01a.69.69 0 0 0-.543.556c0 .05-.01.162-.01.314 0 .445.01.799.07.94a.7.7 0 0 0 .335.344c.168.06.621.06 1.233.06zm-.079-4.045h9.302l-1.943-1.659c-.375-.323-.592-.505-.78-.778a2.7 2.7 0 0 1-.364-.8c-.08-.323-.08-.616-.08-1.111v-2.73h-2.958v2.73c0 .495 0 .788-.09 1.112a2.6 2.6 0 0 1-.364.799c-.178.263-.395.445-.75.748zm1.993-8.9h5.326V5.82h-5.326z"/>
</svg>