<svg xmlns="http://www.w3.org/2000/svg" width="26" height="26" fill="currentColor" class="sym sym-bell-02-solid" viewBox="0 0 26 26">
  <path fill-rule="evenodd" d="M8.724 2.06a3.54 3.54 0 0 0-2.359 1.884l-.01.02c-.499 1.027-.453 2.33.116 3.335l.158.28-.244.23C5.17 8.97 4.425 10.54 4.328 12.15c-.032.549.024 1.052.218 1.917.258 1.153.294 1.462.294 2.556-.001 1.167-.022 1.307-.429 2.842-.48 1.812-.504 2.045-.255 2.545.177.36.444.588.823.707.429.134.662.093 2.819-.507.526-.146.958-.261.961-.255.06.149.447.655.679.885.562.562 1.049.84 1.828 1.047 1.546.406 3.288-.308 4.172-1.71a4.1 4.1 0 0 0 .628-1.882l.023-.374.2-.058c.11-.032 1.06-.296 2.11-.586 2.06-.569 2.575-.726 2.866-.879.73-.38.961-1.36.488-2.076-.067-.1-.592-.676-1.166-1.276-.574-.601-1.125-1.202-1.223-1.336-.667-.91-1.187-2.011-1.543-3.278-.36-1.282-.797-2.052-1.625-2.864a6.4 6.4 0 0 0-2.964-1.624l-.043-.009-.318-.073-.022-.486a3.5 3.5 0 0 0-.298-1.337c-.441-1.003-1.402-1.777-2.464-1.987-.37-.073-1.009-.069-1.364.01zm1.366 2.112c.477.243.763.691.8 1.26.026.37.1.317-.595.426a7.7 7.7 0 0 0-1.717.501l.052-.02c-.374.164-.357.168-.515-.172a1.5 1.5 0 0 1-.142-.648c0-.493.229-.93.583-1.206l.004-.003c.3-.228.533-.297.934-.282.287.011.377.032.596.144m3.948 16.367c0 .123-.24.556-.425.764-.583.659-1.455.852-2.233.497-.206-.093-.611-.38-.583-.41a202 202 0 0 1 3.211-.899c.017-.002.03.02.03.048"/>
</svg>