<svg xmlns="http://www.w3.org/2000/svg" width="26" height="26" fill="currentColor" class="sym sym-bell-solid" viewBox="0 0 26 26">
  <path d="M12.402 2.017c-2.25.186-4.184 1.353-5.368 3.053l-.016.025c-.856 1.25-1.229 2.549-1.234 4.31-.005 1.66-.424 3.526-1.091 4.853-.142.282-.503.9-.803 1.374s-.623 1.014-.718 1.201c-.163.324-.172.358-.172.7 0 .312.015.394.115.601.15.31.454.59.763.702.168.06.397.095.812.12.318.021 4.058.037 8.31.037s7.992-.016 8.31-.036c.415-.027.643-.06.812-.121.309-.112.613-.393.763-.702.1-.207.115-.289.115-.6 0-.343-.009-.378-.172-.7a20 20 0 0 0-.767-1.285l.054.09c-.793-1.254-1.062-1.803-1.376-2.812-.325-1.039-.466-1.986-.525-3.496-.058-1.497-.189-2.176-.597-3.102a7.15 7.15 0 0 0-5.358-4.125l-.042-.006a8 8 0 0 0-1.84-.08zm-2.469 19.04a1.01 1.01 0 0 0-.681.945q.002.232.098.429l-.002-.006c.171.357.912.883 1.675 1.19a5.2 5.2 0 0 0 1.978.385c.714 0 1.394-.142 2.01-.399l-.033.012c.763-.306 1.505-.831 1.675-1.189.409-.85-.523-1.74-1.371-1.312a4 4 0 0 0-.414.27l.009-.006c-.568.423-1.12.599-1.876.599-.76 0-1.311-.178-1.876-.6-.479-.359-.816-.45-1.19-.32z"/>
</svg>