<svg xmlns="http://www.w3.org/2000/svg" width="26" height="26" fill="currentColor" class="sym sym-bell-off-02" viewBox="0 0 26 26">
  <path d="M13.01 24a3.95 3.95 0 0 1-3.839-3.029H6.797c-1.909 0-2.303 0-2.677-.273-.364-.272-.535-.565-.576-1.01-.04-.464.142-.766 1.324-2.776.768-1.302 1.161-2.887 1.161-4.735 0-1.15.364-2.272 1.041-3.24L3.302 5.583a.91.91 0 0 1-.07-1.282.91.91 0 0 1 1.282-.08l4.354 3.866s.06.05.091.08L9 8.21l12.507 11.106s.08.07.111.101l1.081.96a.91.91 0 0 1 .07 1.282.91.91 0 0 1-1.282.08l-.88-.777H16.83a3.944 3.944 0 0 1-3.84 3.029zm-1.92-3.029a2.125 2.125 0 0 0 3.84 0zm-5.414-1.817h12.891L8.443 10.168c-.384.626-.596 1.313-.596 2.02 0 2.17-.475 4.078-1.414 5.653-.293.495-.566.95-.768 1.303zm13.416-5.079a.916.916 0 0 1-.91-.858c-.02-.323-.03-.666-.03-1.02 0-1.13-.515-2.21-1.465-3.029-.96-.838-2.303-1.312-3.677-1.312H13c-.263 0-.515.02-.768.05-.434.061-.757.091-1.121 0a2.15 2.15 0 0 1-.859-.494 1.8 1.8 0 0 1-.434-.667A3.43 3.43 0 0 1 12.99 2c1.9 0 3.435 1.545 3.435 3.433 0 .444-.081.878-.243 1.282a7.5 7.5 0 0 1 1.697 1.08c1.324 1.151 2.092 2.757 2.092 4.402 0 .323 0 .626.02.93a.906.906 0 0 1-.859.958h-.05zM13.01 6.028c.485 0 .97.04 1.435.132.11-.222.181-.475.181-.737a1.62 1.62 0 0 0-1.616-1.616 1.62 1.62 0 0 0-1.495 2.232c.04.07.09.1.111.11.01 0 .212-.03.394-.05q.5-.06 1-.06z"/>
</svg>