<svg xmlns="http://www.w3.org/2000/svg" width="26" height="26" fill="currentColor" class="sym sym-bell-off" viewBox="0 0 26 26">
  <path d="M13.098 24.095a4.95 4.95 0 0 1-3.274-1.24.908.908 0 1 1 1.202-1.363c1.142 1.01 3.001 1.01 4.143 0a.908.908 0 1 1 1.202 1.362 4.97 4.97 0 0 1-3.274 1.241m9.093-1.009a.95.95 0 0 1-.647-.262l-3.779-3.773H6.41c-1.708 0-2.112 0-2.486-.272-.363-.272-.535-.575-.565-1.019-.04-.464.161-.777 1.232-2.501 1.02-1.635 1.536-3.712 1.536-6.184 0-.494.05-.998.162-1.483l-2.92-2.915a.906.906 0 1 1 1.283-1.28l3.253 3.247.071.07 14.862 14.839a.902.902 0 0 1-.647 1.543zm-16.68-5.85h10.447l-8.012-8c-.02 2.744-.627 5.084-1.809 6.97-.242.384-.465.737-.636 1.03zm14.306-2.19a.894.894 0 0 1-.869-.655c-.454-1.553-.687-3.349-.687-5.336a5.14 5.14 0 0 0-1.505-3.641 5.12 5.12 0 0 0-3.647-1.503 5.1 5.1 0 0 0-2.89.887.908.908 0 1 1-1.02-1.503 6.95 6.95 0 0 1 3.91-1.2c1.859 0 3.617.726 4.93 2.038a6.92 6.92 0 0 1 2.041 4.922c0 1.856.212 3.43.616 4.822a.907.907 0 0 1-.616 1.13.7.7 0 0 1-.253.04z"/>
</svg>