<svg xmlns="http://www.w3.org/2000/svg" width="26" height="26" fill="currentColor" class="sym sym-bell" viewBox="0 0 26 26">
  <path d="M12.995 24a5.16 5.16 0 0 1-3.361-1.241.89.89 0 0 1-.083-1.282.953.953 0 0 1 1.317-.08c1.172 1.009 3.081 1.009 4.253 0a.953.953 0 0 1 1.318.08c.342.373.3.949-.083 1.282A5.18 5.18 0 0 1 12.995 24m6.857-5.046H6.138c-1.753 0-2.168 0-2.552-.272-.373-.273-.55-.576-.581-1.02-.041-.464.156-.777 1.255-2.492 1.058-1.645 1.587-3.734 1.587-6.207 0-1.857.747-3.613 2.096-4.924A7.23 7.23 0 0 1 13.005 2c1.909 0 3.714.727 5.062 2.039a6.84 6.84 0 0 1 2.096 4.924c0 2.473.529 4.562 1.566 6.187 1.11 1.735 1.308 2.038 1.266 2.512-.031.434-.207.747-.581 1.02-.394.282-.81.282-2.552.282zM5.204 17.138h15.581a28 28 0 0 0-.653-1.02c-1.235-1.927-1.857-4.329-1.857-7.145 0-1.372-.55-2.664-1.546-3.643a5.33 5.33 0 0 0-3.744-1.503A5.35 5.35 0 0 0 9.24 5.33a5 5 0 0 0-1.546 3.643c0 2.816-.622 5.228-1.857 7.145a39 39 0 0 0-.653 1.03z"/>
</svg>