<svg xmlns="http://www.w3.org/2000/svg" width="26" height="26" fill="currentColor" class="sym sym-bell-plus" viewBox="0 0 26 26">
  <path d="M12.864 24a5.04 5.04 0 0 1-3.317-1.241.9.9 0 0 1-.082-1.282.93.93 0 0 1 1.3-.08c1.157 1.009 3.041 1.009 4.198 0a.93.93 0 0 1 1.3.08.9.9 0 0 1-.082 1.282A5.08 5.08 0 0 1 12.864 24m6.768-5.046H6.097c-1.73 0-2.14 0-2.519-.272-.368-.273-.532-.576-.573-1.02-.041-.474.154-.777 1.239-2.482 1.044-1.655 1.566-3.734 1.566-6.207 0-1.856.737-3.612 2.068-4.924a7.16 7.16 0 0 1 6.174-1.938c.502.08.84.555.758 1.05a.925.925 0 0 1-1.065.746A5.3 5.3 0 0 0 9.179 5.34a5.08 5.08 0 0 0-1.526 3.644c0 2.815-.614 5.227-1.833 7.144a39 39 0 0 0-.645 1.03h15.378c-.174-.283-.4-.636-.635-1.02-.634-1.009-1.105-2.149-1.413-3.41a.896.896 0 0 1 .686-1.09.91.91 0 0 1 1.106.676c.256 1.07.655 2.038 1.177 2.866 1.096 1.736 1.29 2.038 1.25 2.513-.041.444-.215.746-.574 1.019-.389.282-.798.282-2.518.282zm-.625-9.082a.91.91 0 0 1-.921-.909V6.844h-2.15a.91.91 0 0 1-.922-.908c0-.505.41-.908.922-.908h2.15v-2.12c0-.504.41-.908.921-.908s.922.404.922.908v2.12h2.15a.91.91 0 0 1 .921.908c0 .504-.41.908-.921.908h-2.15v2.12c0 .504-.41.908-.922.908"/>
</svg>