<svg xmlns="http://www.w3.org/2000/svg" width="26" height="26" fill="currentColor" class="sym sym-bell-off-02-solid" viewBox="0 0 26 26">
  <path fill-rule="evenodd" d="M12.539 2.024A3.54 3.54 0 0 0 9.621 4.58l-.006.025c-.04.14-.075.46-.085.762l-.02.52 5.521 4.896c3.037 2.693 5.527 4.891 5.533 4.885a1.7 1.7 0 0 0-.086-.3l.004.01c-.276-.813-.417-1.685-.47-2.913-.042-1.01-.123-1.531-.322-2.103a7 7 0 0 0-.8-1.526l.016.023c-.313-.441-1.03-1.15-1.485-1.47-.302-.212-.962-.601-1.105-.652-.018-.006.009-.155.06-.33.12-.424.131-1.374.018-1.782-.297-1.071-1.058-1.95-2.049-2.36a3.66 3.66 0 0 0-1.822-.239l.018-.001zm1.11 2.111c.334.165.633.48.757.8.105.276.123.702.04.987l-.056.195-.184-.026a9.3 9.3 0 0 0-2.46.005l.048-.005-.184.026-.057-.195c-.14-.485-.017-1.05.309-1.413.342-.38.684-.53 1.18-.514.293.009.38.029.608.14zM3.645 4.047c-.23.084-.415.242-.532.444l-.002.005c-.095.161-.111.233-.111.49 0 .245.018.33.097.47.067.117.694.7 1.993 1.854l1.895 1.683-.181.3a6 6 0 0 0-.56 1.24l-.013.045c-.165.55-.21.883-.249 1.774-.044 1.018-.105 1.544-.257 2.225-.222.985-.476 1.579-1.223 2.847-.923 1.568-1.054 1.89-.962 2.359.067.345.202.582.46.82.165.15.298.228.494.294.262.087.32.09 2.445.104 1.997.013 2.178.02 2.198.082.292.945.862 1.727 1.638 2.25.376.255.79.436 1.285.566.514.135 1.364.135 1.878 0 1.024-.268 1.856-.856 2.408-1.702a3.1 3.1 0 0 0 .442-.907l.09-.26 3.637-.018.492.436c.513.453.709.562 1.013.562.343 0 .688-.203.869-.511.095-.162.111-.234.111-.49 0-.245-.018-.33-.097-.47-.07-.123-2.555-2.354-8.856-7.953C3.521 3.235 4.531 4.12 4.308 4.045a.98.98 0 0 0-.67.004zm11.01 17.087c-.04.068-.177.22-.303.339a1.97 1.97 0 0 1-1.352.534c-.524 0-1-.203-1.354-.536a2 2 0 0 1-.298-.331l-.005-.006-.072-.124h3.457z"/>
</svg>