<svg xmlns="http://www.w3.org/2000/svg" width="26" height="26" fill="currentColor" class="sym sym-bell-off-solid" viewBox="0 0 26 26">
  <path d="M12.403 2.017A7.04 7.04 0 0 0 9.1 3.186l.026-.016c-.366.244-.918.68-.924.73 0 .011 3.221 3.248 7.162 7.194 5.716 5.725 7.17 7.162 7.202 7.114.1-.15.168-.503.15-.763-.024-.35-.182-.674-.87-1.795-.769-1.254-1.03-1.804-1.334-2.813-.315-1.04-.453-1.989-.51-3.5-.056-1.498-.183-2.178-.579-3.105-.935-2.157-2.868-3.724-5.199-4.128l-.041-.006a7.8 7.8 0 0 0-1.805-.08zm-8.76 1.03C3.29 3.171 3 3.594 3 3.981c0 .08.03.234.065.343.06.175.232.366 1.574 1.72l1.508 1.523-.052.28c-.03.155-.07.732-.092 1.283-.073 1.812-.216 2.763-.582 3.908-.292.912-.55 1.444-1.22 2.524-.795 1.28-.927 1.566-.927 2.005 0 .396.125.686.426.988.202.204.294.264.523.34l.278.094 13.084.022 1.94 1.938c1.747 1.744 1.961 1.943 2.138 2.003.39.13.767.044 1.046-.235a.98.98 0 0 0 .182-1.152l.003.005c-.063-.13-2.504-2.598-9.22-9.32-8.443-8.452-9.148-9.148-9.33-9.208a1.04 1.04 0 0 0-.707.007z"/>
  <path d="M10.135 21.051a.996.996 0 0 0-.592 1.52l-.002-.004c.125.189.486.481.902.732.732.44 1.616.701 2.56.701.945 0 1.828-.26 2.583-.714l-.023.013c.417-.25.778-.543.903-.732.433-.651-.028-1.531-.8-1.526-.298.002-.46.069-.81.337-.16.122-.34.236-.53.333l-.022.01c-.38.186-.827.296-1.3.296-.703 0-1.349-.24-1.86-.644l.006.005a2.6 2.6 0 0 0-.386-.256l-.015-.006a1.16 1.16 0 0 0-.62-.064z"/>
</svg>