<svg xmlns="http://www.w3.org/2000/svg" width="26" height="26" fill="currentColor" class="sym sym-bell-02" viewBox="0 0 26 26">
  <path d="M12.175 23.99c-1.417 0-2.735-.806-3.409-2.092l-1.288.357c-1.804.5-2.18.602-2.606.439-.416-.163-.644-.408-.803-.827-.159-.438-.07-.775.535-3 .416-1.53.377-3.183-.089-4.979-.416-1.602-.1-3.367.862-4.836a7.3 7.3 0 0 1 1.328-1.5 3.6 3.6 0 0 1-.565-1.184 3.58 3.58 0 0 1 .337-2.633A3.33 3.33 0 0 1 8.52 2.123a3.22 3.22 0 0 1 2.556.347 3.4 3.4 0 0 1 1.566 2.102q.164.659.09 1.316a6.8 6.8 0 0 1 1.882.613c1.546.775 2.676 2.142 3.102 3.744.466 1.796 1.239 3.245 2.3 4.317 1.644 1.663 1.882 1.908 1.961 2.367.07.439-.01.786-.287 1.132-.278.358-.644.46-2.418.95l-3.25.897c.049 1.796-1.1 3.47-2.865 3.96a3.8 3.8 0 0 1-1 .132zm-1.585-2.592c.505.612 1.328.908 2.12.684a2.12 2.12 0 0 0 1.507-1.684l-3.637 1zm.961-13.785a6 6 0 0 0-1.516.204C8.727 8.174 7.577 9 6.874 10.072c-.684 1.04-.902 2.224-.615 3.337.555 2.122.585 4.101.1 5.887a62 62 0 0 0-.397 1.48c.307-.082.684-.184 1.07-.286l7.77-2.143h.059l3.934-1.082c.387-.112.763-.214 1.06-.295-.267-.286-.624-.643-1.01-1.031-1.338-1.347-2.27-3.081-2.825-5.204-.287-1.102-1.05-2.02-2.15-2.571a5.2 5.2 0 0 0-2.309-.52zm-2.13-3.796q-.21 0-.417.061a1.58 1.58 0 0 0-.961.766 1.68 1.68 0 0 0-.159 1.234q.105.383.357.674a7.7 7.7 0 0 1 1.328-.5 7.3 7.3 0 0 1 1.397-.245c.05-.255.05-.51-.02-.766a1.62 1.62 0 0 0-.743-.99 1.57 1.57 0 0 0-.792-.214z"/>
</svg>