<svg xmlns="http://www.w3.org/2000/svg" width="26" height="26" fill="currentColor" class="sym sym-bell-ringing" viewBox="0 0 26 26">
  <path d="M12.995 24a5.17 5.17 0 0 1-3.358-1.242.894.894 0 0 1-.082-1.282.95.95 0 0 1 1.316-.08c1.17 1.009 3.077 1.009 4.248 0a.95.95 0 0 1 1.316.08c.342.373.3.949-.083 1.282A5.17 5.17 0 0 1 12.995 24m6.85-5.048h-13.7c-1.751 0-2.165 0-2.549-.273-.373-.272-.549-.575-.58-1.02-.042-.464.155-.777 1.264-2.493 1.047-1.636 1.575-3.726 1.575-6.2 0-1.857.746-3.614 2.093-4.927A7.2 7.2 0 0 1 13.005 2c1.907 0 3.71.727 5.057 2.04a6.85 6.85 0 0 1 2.093 4.927c0 2.473.529 4.553 1.565 6.189 1.109 1.736 1.306 2.039 1.264 2.504-.041.454-.218.757-.58 1.02-.384.282-.798.282-2.55.282zM5.212 17.134h15.564c-.176-.282-.394-.625-.632-1-1.244-1.948-1.865-4.35-1.865-7.167 0-1.374-.55-2.666-1.544-3.645a5.32 5.32 0 0 0-3.741-1.505 5.34 5.34 0 0 0-3.741 1.505A5.05 5.05 0 0 0 7.71 8.967c0 2.816-.622 5.23-1.855 7.148a39 39 0 0 0-.653 1.03zm17.833-9.47a.91.91 0 0 1-.922-.919 3.12 3.12 0 0 0-1.627-2.756.895.895 0 0 1-.352-1.242.957.957 0 0 1 1.274-.343c1.607.888 2.601 2.554 2.58 4.351 0 .495-.424.899-.932.899zm-20.113 0C2.425 7.664 2 7.26 2 6.766c-.02-1.798.974-3.474 2.58-4.352a.96.96 0 0 1 1.275.343A.91.91 0 0 1 5.503 4a3.11 3.11 0 0 0-1.627 2.756.923.923 0 0 1-.922.92z"/>
</svg>