<svg xmlns="http://www.w3.org/2000/svg" width="26" height="26" fill="currentColor" class="sym sym-bell-ringing-solid" viewBox="0 0 26 26">
  <path d="M12.893 2.017c-2.713.227-4.978 1.882-6.01 4.179l-.018.045c-.402.924-.535 1.617-.59 3.079-.056 1.479-.207 2.491-.524 3.506-.315 1.011-.584 1.559-1.378 2.813-.194.293-.43.683-.654 1.081l-.058.114c-.164.323-.172.358-.172.7 0 .312.015.394.115.6.15.31.454.59.763.703.168.06.397.095.812.12.319.02 4.059.037 8.313.037s7.994-.016 8.313-.036c.414-.027.643-.06.812-.121.309-.112.613-.393.763-.702.1-.207.115-.29.115-.6 0-.343-.009-.378-.172-.701a20 20 0 0 0-.772-1.29l.054.088c-.803-1.267-1.052-1.777-1.372-2.804-.325-1.04-.468-1.995-.525-3.493s-.188-2.178-.597-3.106a7.16 7.16 0 0 0-5.36-4.125l-.042-.006a8 8 0 0 0-1.84-.08zm-7.72.357c-.545.24-1.41.986-1.793 1.545a5.5 5.5 0 0 0-.815 1.845l-.007.037a5 5 0 0 0-.058.746v.04-.002c-.002.537 0 .546.123.74.542.852 1.874.445 1.876-.574.001-.975.581-1.996 1.425-2.511.51-.313.654-.523.654-.961 0-.3-.05-.43-.25-.662-.253-.291-.788-.404-1.155-.243m15.826.006c-.402.177-.596.468-.596.898 0 .435.139.64.658.964.313.195.698.567.908.878.297.439.514 1.129.515 1.642.001.33.07.493.307.724.252.244.457.317.81.286a.9.9 0 0 0 .632-.294c.238-.238.287-.422.26-.967a6 6 0 0 0-.094-.802l.006.037c-.315-1.42-1.28-2.697-2.516-3.328a1 1 0 0 0-.896-.036zM10.424 21.055a1.015 1.015 0 0 0-.681.95c0 .152.036.298.098.429l-.002-.006c.17.357.912.883 1.676 1.189 1.764.707 3.78.421 5.23-.741.492-.393.627-.83.403-1.298-.29-.605-1.049-.755-1.614-.32-.704.543-1.413.778-2.206.73a3.05 3.05 0 0 1-1.72-.614l.007.005a4 4 0 0 0-.392-.257l-.018-.009c-.21-.106-.573-.132-.781-.057"/>
</svg>