<svg xmlns="http://www.w3.org/2000/svg" width="26" height="26" fill="currentColor" class="sym sym-bell-plus-solid" viewBox="0 0 26 26">
  <path d="M12.261 2.036C9.59 2.263 7.36 3.917 6.342 6.214l-.017.045c-.396.924-.527 1.617-.581 3.08-.055 1.478-.204 2.49-.516 3.505-.31 1.011-.575 1.558-1.357 2.813a19 19 0 0 0-.644 1.08l-.057.114c-.162.324-.17.358-.17.7 0 .312.015.394.113.601.147.31.447.59.752.702.165.06.39.095.8.12.313.021 3.997.037 8.186.037s7.872-.016 8.186-.036c.408-.027.633-.06.8-.121a1.45 1.45 0 0 0 .751-.702c.098-.207.113-.289.113-.6 0-.343-.008-.378-.17-.7a19 19 0 0 0-.76-1.291l.054.089c-.8-1.285-.993-1.688-1.376-2.875-.174-.538-.23-.663-.318-.72-.092-.06-.22-.07-.94-.07-.764 0-.86-.009-1.12-.094-1.074-.351-1.819-1.129-2.091-2.184a2.5 2.5 0 0 1-.082-.498v-.194L15.6 8.99a3.05 3.05 0 0 1-2.45-1.69 2.983 2.983 0 0 1 1.386-3.987c.335-.162.87-.318 1.096-.318.14 0 .265-.102.265-.214 0-.089-.192-.2-.598-.345a7.4 7.4 0 0 0-2.491-.42q-.289 0-.572.02z"/>
  <path d="M18.602 2.059a1.02 1.02 0 0 0-.538.443l-.002.005-.113.189-.025 2.303h-1.09c-1.176 0-1.3.018-1.572.222a1.2 1.2 0 0 0-.244.284l-.003.005c-.097.162-.113.234-.113.49s.016.328.113.49c.062.102.173.233.247.288.271.205.396.222 1.574.222h1.092v1.072c0 .614.019 1.135.043 1.22.062.22.277.474.497.586a1 1 0 0 0 .476.118 1 1 0 0 0 .71-.29c.284-.28.305-.394.305-1.631V7h1.09c1.254 0 1.37-.02 1.653-.3a.974.974 0 0 0 0-1.403c-.282-.278-.399-.3-1.653-.3h-1.09V3.924c0-1.236-.021-1.351-.303-1.63a1.02 1.02 0 0 0-1.06-.234zM9.94 21.054a1 1 0 0 0-.771.966c0 .204.062.394.17.552l-.003-.004c.128.189.494.48.916.732.744.44 1.64.7 2.6.7.958 0 1.855-.26 2.621-.713l-.023.013c.423-.25.79-.543.917-.732a.978.978 0 0 0-.813-1.525c-.302.002-.467.07-.82.337a3.7 3.7 0 0 1-.54.333l-.022.01c-.386.186-.84.296-1.32.296-.713 0-1.369-.24-1.889-.644l.007.005a2.6 2.6 0 0 0-.392-.255l-.015-.007a1.2 1.2 0 0 0-.63-.063z"/>
</svg>