<svg xmlns="http://www.w3.org/2000/svg" width="26" height="26" fill="currentColor" class="sym sym-bluetooth-off" viewBox="0 0 26 26">
  <path d="M12.897 22.097a1 1 0 0 1-.375-.081.92.92 0 0 1-.514-.829v-6.146l-3.28 2.8a.87.87 0 0 1-1.255-.121.92.92 0 0 1 .12-1.284l3.99-3.407-6.421-6.57a.924.924 0 0 1 0-1.284.874.874 0 0 1 1.254 0L20.643 19.73a.924.924 0 0 1 0 1.284.874.874 0 0 1-1.255 0l-2.223-2.284-3.685 3.143a.88.88 0 0 1-.573.213zm.89-6.803v3.952l2.104-1.8zm1.54-3.367a.88.88 0 0 1-.68-.323.92.92 0 0 1 .118-1.284l1.491-1.264-2.46-2.102v2.102c0 .506-.395.91-.889.91a.896.896 0 0 1-.889-.91V5.013c0-.354.198-.677.514-.83a.88.88 0 0 1 .948.122l4.743 4.044a.89.89 0 0 1 .316.697.92.92 0 0 1-.317.698l-2.301 1.971a.88.88 0 0 1-.573.212z"/>
</svg>