<svg xmlns="http://www.w3.org/2000/svg" width="26" height="26" fill="currentColor" class="sym sym-bluetooth-off-solid" viewBox="0 0 26 26">
  <path d="M12.713 4.042a.9.9 0 0 0-.276.19c-.247.253-.24.177-.24 2.622 0 1.39.012 2.21.034 2.288.048.18.219.388.392.48a.787.787 0 0 0 1.086-.348c.074-.153.075-.176.091-1.43l.016-1.275 1.355 1.155c.745.635 1.355 1.167 1.355 1.181s-.375.348-.834.738c-.588.502-.858.754-.915.854a.835.835 0 0 0 .356 1.146.82.82 0 0 0 .689-.018c.08-.046.7-.557 1.379-1.136 1.401-1.194 1.394-1.186 1.394-1.583 0-.202-.014-.271-.08-.389-.062-.11-.644-.624-2.565-2.261-1.367-1.166-2.542-2.148-2.612-2.183a.87.87 0 0 0-.63-.028l.006-.001z"/>
  <path fill-rule="evenodd" d="M5.607 4.837a.84.84 0 0 0-.535.44l-.003.005c-.094.186-.092.507.007.705.052.105 1.03 1.128 3.405 3.558l3.331 3.41-2.03 1.73c-1 .844-1.696 1.443-2.386 2.048l.25-.215a.75.75 0 0 0-.238.586v-.002c0 .325.152.576.443.73.188.1.507.093.696-.015.077-.044.923-.747 1.879-1.561a91 91 0 0 1 1.52-1.293l.233-.189c.009 0 .02 1.494.025 3.32l.009 3.32.069.132c.088.169.217.3.38.385a.86.86 0 0 0 .653.01c.072-.033 1-.802 2.063-1.709l1.934-1.649 1.202 1.224c.805.818 1.25 1.248 1.346 1.298.29.15.676.085.91-.154a.84.84 0 0 0 .152-.931c-.1-.2-14.58-15.013-14.773-15.11-.152-.077-.402-.111-.542-.073M16.172 17.44l-1.176 1.002c-.295.257-.679.58-1.066.9l-.112.089c-.01 0-.017-1-.017-2.222v-2.221l1.192 1.22c.657.67 1.187 1.225 1.179 1.232"/>
</svg>