<svg xmlns="http://www.w3.org/2000/svg" width="26" height="26" fill="currentColor" class="sym sym-bluetooth-on-solid" viewBox="0 0 26 26">
  <path fill-rule="evenodd" d="M12.737 4.037a.8.8 0 0 0-.427.395l-.002.005-.074.156-.031 6.642-1.76-1.526C9.118 8.56 8.647 8.17 8.54 8.133a.7.7 0 0 0-.26-.047.78.78 0 0 0-.68.41v.005c-.074.13-.088.192-.088.383 0 .432-.102.324 2.19 2.313 1.124.975 2.044 1.785 2.044 1.8 0 .014-.92.824-2.044 1.799-2.204 1.912-2.161 1.868-2.199 2.217l-.003.074c0 .42.304.766.695.813l.004.001c.34.036.323.05 2.244-1.617l1.76-1.527.032 6.644.08.163a.78.78 0 0 0 .69.436c.122 0 .238-.03.341-.082l-.005.002c.067-.035 1.22-1.016 2.562-2.18 1.886-1.636 2.458-2.15 2.519-2.26.064-.118.078-.186.078-.388s-.014-.271-.078-.39c-.061-.11-.55-.551-2.118-1.91-1.121-.972-2.039-1.78-2.039-1.795s.918-.823 2.04-1.795C17.87 9.843 18.36 9.4 18.421 9.29c.064-.118.078-.187.078-.389s-.014-.27-.078-.389c-.061-.11-.633-.623-2.52-2.259-1.342-1.164-2.496-2.146-2.564-2.18a.86.86 0 0 0-.601-.035zm2.433 3.71c.715.62 1.299 1.14 1.299 1.154 0 .024-2.537 2.241-2.638 2.305-.03.02-.04-.45-.04-2.305s.008-2.325.04-2.305c.022.014.626.531 1.34 1.152m0 8.191c.715.62 1.299 1.139 1.299 1.154 0 .024-2.537 2.24-2.638 2.305-.03.02-.04-.45-.04-2.305s.008-2.325.04-2.305c.022.014.626.531 1.34 1.151"/>
</svg>