<svg xmlns="http://www.w3.org/2000/svg" width="26" height="26" fill="currentColor" class="sym sym-bluetooth-on" viewBox="0 0 26 26">
  <path d="M12.8 22.087a.9.9 0 0 1-.367-.08.92.92 0 0 1-.502-.829v-6.14l-3.203 2.798a.84.84 0 0 1-1.226-.121.933.933 0 0 1 .116-1.283l3.831-3.342-3.83-3.342a.95.95 0 0 1-.117-1.283.854.854 0 0 1 1.226-.12l3.203 2.796v-6.14c0-.353.193-.676.502-.827a.84.84 0 0 1 .927.12l4.631 4.04a.9.9 0 0 1 .309.697.93.93 0 0 1-.309.696l-3.83 3.343 3.83 3.342a.9.9 0 0 1 .309.697.93.93 0 0 1-.309.696l-4.631 4.04a.85.85 0 0 1-.56.212zm.868-7.048v4.2l2.403-2.1zm0-8.078v4.2l2.403-2.1z"/>
</svg>