<svg xmlns="http://www.w3.org/2000/svg" width="26" height="26" fill="currentColor" class="sym sym-bold-solid" viewBox="0 0 26 26">
  <path fill-rule="evenodd" d="M6.613 5.054a.94.94 0 0 0-.496.395l-.002.004-.104.168-.01 7.31c-.005 4.963.004 7.356.03 7.449.056.2.254.425.465.53l.186.09h4.621c5.017 0 4.8.008 5.477-.2a4.6 4.6 0 0 0 1.754-.987l-.002.002a4.37 4.37 0 0 0 1.366-2.24c.09-.338.101-.455.102-.972 0-.437-.016-.664-.067-.89a4.6 4.6 0 0 0-.735-1.668l.01.017c-.238-.345-.893-.96-1.274-1.196l-.31-.192.181-.18c.567-.56.942-1.22 1.158-2.04.09-.344.1-.448.1-1.006 0-.559-.01-.662-.1-1.007a4.37 4.37 0 0 0-1.366-2.239 4.85 4.85 0 0 0-2.602-1.164l-.024-.003c-.202-.024-1.747-.037-4.265-.035-3.329.002-3.971.01-4.094.054m8.503 1.804c.4.127.746.303 1.055.523l-.01-.006c.637.488 1.055 1.307 1.055 2.073 0 1.04-.726 2.073-1.73 2.462-.542.21-.497.208-4.217.208H7.863V6.775l3.526.012c3.158.01 3.547.018 3.728.071m.936 7.12c.832.243 1.467.757 1.822 1.469a2.46 2.46 0 0 1 .004 2.238l.007-.015c-.396.806-1.088 1.33-2 1.515-.218.043-.866.052-4.14.052l-3.882.001v-5.342l3.994.011c3.599.01 4.013.017 4.195.07"/>
</svg>