<svg xmlns="http://www.w3.org/2000/svg" width="26" height="26" fill="currentColor" class="sym sym-book-closed" viewBox="0 0 26 26">
  <path d="M16.69 22h-6.142c-1.381 0-2.14 0-2.82-.364a3.3 3.3 0 0 1-1.383-1.456c-.172-.364-.259-.748-.307-1.244A.9.9 0 0 1 6 18.663c0-.091 0-.182.01-.273C6 18.046 6 17.662 6 17.207V8.793c0-1.456 0-2.255.345-2.973a3.3 3.3 0 0 1 1.382-1.456C8.4 4 9.167 4 10.548 4h6.141c.96 0 1.497 0 2.006.273.46.253.816.627 1.046 1.112C20 5.921 20 6.488 20 7.5v11.164c0 .92-.02 1.446-.269 1.962-.23.475-.585.86-1.046 1.102C18.167 22 17.64 22 16.67 22zm-8.953-3.54c.019.425.057.709.144.89.134.284.355.516.633.658.307.162.921.162 2.034.162h6.141c.634 0 1.085 0 1.229-.081a.66.66 0 0 0 .288-.304c.076-.151.076-.657.076-1.294v-1.355H9.167c-.73 0-1.334.576-1.43 1.315zm2.811-12.64c-1.113 0-1.727 0-2.034.162a1.5 1.5 0 0 0-.633.657c-.154.324-.154.971-.154 2.144v6.897a3 3 0 0 1 1.44-.364h9.115V7.489c0-.637 0-1.143-.076-1.285a.76.76 0 0 0-.298-.313c-.144-.07-.595-.07-1.228-.07h-6.141z"/>
</svg>