<svg xmlns="http://www.w3.org/2000/svg" width="26" height="26" fill="currentColor" class="sym sym-bookmark-minus-solid" viewBox="0 0 26 26">
  <path fill-rule="evenodd" d="M8.321 2.04c-.985.065-1.694.288-2.394.749-.61.403-1.281 1.203-1.55 1.849-.158.382-.275.911-.33 1.492-.03.331-.046 3.344-.046 8.721 0 9.222-.03 8.47.336 8.826a1.11 1.11 0 0 0 1.142.265l-.008.003c.098-.033 1.832-.986 3.854-2.116l3.677-2.056 3.677 2.056c2.022 1.131 3.756 2.083 3.854 2.116a1.11 1.11 0 0 0 1.135-.268c.368-.36.34.432.324-9.141-.016-9.415.003-8.857-.3-9.715-.254-.723-.947-1.594-1.615-2.033-.732-.479-1.39-.678-2.497-.752-.75-.05-8.502-.047-9.259.003m8.44 7.73c.414.139.742.592.742 1.029 0 .266-.135.573-.337.771-.35.344-.176.33-4.165.33s-3.814.014-4.164-.33a1.067 1.067 0 0 1 .001-1.544c.344-.336.155-.32 4.145-.324 3.2-.004 3.58.003 3.777.068"/>
</svg>