<svg xmlns="http://www.w3.org/2000/svg" width="26" height="26" fill="currentColor" class="sym sym-book-open-solid" viewBox="0 0 26 26">
  <path d="M5.637 4.018c-.805.064-1.349.293-1.832.772-.446.442-.689.958-.765 1.627-.053.48-.053 9.983 0 10.463.053.47.18.848.392 1.167.389.602 1 1.034 1.715 1.185l.018.003c.112.024 1.002.05 2.345.067 2.028.026 2.18.032 2.442.102.518.145.96.42 1.302.788l.002.002c.104.114.39.51.638.88.459.687.55.784.817.878a.93.93 0 0 0 .839-.13c.059-.04.31-.378.557-.747.247-.37.534-.767.638-.88.34-.373.81-.658 1.304-.79.261-.07.414-.077 2.442-.103 1.343-.017 2.232-.043 2.345-.067a2.7 2.7 0 0 0 1.726-1.177l.006-.011c.212-.32.338-.697.392-1.167.053-.48.053-9.982 0-10.463a4 4 0 0 0-.135-.653l.008.029c-.21-.657-.845-1.324-1.51-1.584-.429-.168-.617-.185-2.295-.204-2.712-.03-3.55.06-4.409.474-.508.246-.94.568-1.3.955l-.002.003-.31.326-.394-.392c-.433-.434-.798-.694-1.3-.929-.779-.364-1.56-.449-4.038-.44-.82.003-1.556.01-1.636.016z"/>
</svg>