<svg xmlns="http://www.w3.org/2000/svg" width="26" height="26" fill="currentColor" class="sym sym-book-closed-solid" viewBox="0 0 26 26">
  <path fill-rule="evenodd" d="M8.7 4.02c-.732.052-1.254.216-1.773.559-.452.3-.948.895-1.147 1.375-.118.285-.204.678-.244 1.11-.048.512-.048 11.298 0 11.84.062.712.195 1.129.516 1.613.243.365.585.701.958.94.492.315.915.447 1.64.508.558.047 9.175.047 9.606 0 .435-.048.785-.163 1.08-.354a2.39 2.39 0 0 0 1.127-1.813c.05-.444.05-13.169 0-13.61-.047-.412-.155-.737-.341-1.031-.27-.425-.724-.807-1.16-.976-.463-.18-.268-.174-5.263-.18-2.538-.003-4.788.005-5 .02zm10.124 14.385c-.01.916-.028 1.357-.056 1.444-.052.16-.287.392-.455.451-.108.038-.931.045-4.896.045-5.305 0-5.052.01-5.442-.22-.353-.209-.68-.65-.772-1.04-.198-.85.396-1.771 1.262-1.954.138-.03 1.464-.04 5.278-.042l5.095-.003z"/>
</svg>