<svg xmlns="http://www.w3.org/2000/svg" width="26" height="26" fill="currentColor" class="sym sym-book-open" viewBox="0 0 26 26">
  <path d="M13.005 22a.9.9 0 0 1-.276-.04l-.153-.061a.8.8 0 0 1-.225-.162.8.8 0 0 1-.123-.152l-.081-.121c-.583-.86-.869-1.295-1.186-1.548a2.7 2.7 0 0 0-.94-.496c-.388-.111-.91-.111-1.952-.111H6.822c-1.124 0-1.747 0-2.33-.294a2.75 2.75 0 0 1-1.196-1.184C3 17.244 3 16.637 3 15.525v-7.74c0-1.114 0-1.731.296-2.308a2.7 2.7 0 0 1 1.196-1.184C5.075 4 5.698 4 6.822 4h.358c2.177 0 3.27 0 4.251.496a4.4 4.4 0 0 1 1.564 1.295 4.35 4.35 0 0 1 1.574-1.295C15.539 4 16.633 4 18.809 4h.369c1.124 0 1.747 0 2.33.293.521.263.93.668 1.196 1.184C23 6.054 23 6.671 23 7.784v7.74c0 1.113 0 1.73-.296 2.307a2.7 2.7 0 0 1-1.196 1.184c-.583.294-1.206.294-2.33.294H17.93c-1.042 0-1.574 0-1.952.11a2.7 2.7 0 0 0-.94.497c-.307.253-.593.678-1.175 1.527l-.092.132a1 1 0 0 1-.123.152.85.85 0 0 1-.388.232.8.8 0 0 1-.266.041zM6.832 5.811c-.787 0-1.308 0-1.492.101a.84.84 0 0 0-.388.385c-.092.192-.092.698-.092 1.477v7.74c0 .78 0 1.295.102 1.488a.86.86 0 0 0 .399.384c.184.091.705.091 1.492.091H8.1c1.185 0 1.84 0 2.493.192a4.7 4.7 0 0 1 1.513.79v-7.811c0-1.872 0-2.803-.297-3.38a2.75 2.75 0 0 0-1.185-1.174c-.583-.293-1.533-.293-3.413-.293h-.358zm7.093 4.847v7.81c.45-.353.96-.626 1.523-.788.643-.193 1.297-.193 2.493-.193h1.247c.787 0 1.308 0 1.502-.1a.84.84 0 0 0 .389-.385c.092-.193.092-.709.092-1.488v-7.74c0-.779 0-1.295-.092-1.477a.84.84 0 0 0-.389-.385c-.194-.1-.715-.1-1.492-.1h-.368c-1.88 0-2.83 0-3.413.293-.511.253-.93.667-1.185 1.173-.297.577-.297 1.508-.297 3.38z"/>
</svg>