<svg xmlns="http://www.w3.org/2000/svg" width="26" height="26" fill="currentColor" class="sym sym-bookmark-check-solid" viewBox="0 0 26 26">
  <path fill-rule="evenodd" d="M8.321 2.04c-.985.065-1.694.288-2.394.749-.61.403-1.281 1.203-1.55 1.849-.158.382-.275.911-.33 1.492-.03.331-.046 3.344-.046 8.721 0 9.222-.03 8.47.336 8.826a1.11 1.11 0 0 0 1.142.265l-.008.003c.098-.033 1.832-.986 3.854-2.116l3.677-2.056 3.677 2.056c2.022 1.131 3.756 2.083 3.854 2.116a1.11 1.11 0 0 0 1.135-.268c.368-.36.34.432.324-9.141-.016-9.415.003-8.857-.3-9.715-.254-.723-.947-1.594-1.615-2.033-.732-.479-1.39-.678-2.497-.752-.75-.05-8.502-.047-9.259.003m9.123 5.58c.209.106.448.357.537.565.082.193.078.64-.008.842-.047.113-.896.976-2.756 2.8-2.874 2.818-2.867 2.811-3.316 2.816-.459.004-.487-.015-1.883-1.373-.713-.694-1.342-1.34-1.394-1.436-.135-.247-.135-.72.001-.973.112-.21.369-.443.581-.53.199-.08.654-.076.86.008.105.042.48.37.99.868l.822.8 2.24-2.188a174 174 0 0 1 2.221-2.153l.04-.038c.01 0 .102-.03.201-.066.233-.086.626-.06.864.059"/>
</svg>