<svg xmlns="http://www.w3.org/2000/svg" width="26" height="26" fill="currentColor" class="sym sym-bookmark-add-solid" viewBox="0 0 26 26">
  <path fill-rule="evenodd" d="M8.321 2.04c-.985.065-1.694.288-2.394.749-.61.403-1.281 1.203-1.55 1.849-.158.382-.275.911-.33 1.492-.03.331-.046 3.344-.046 8.721 0 9.222-.03 8.47.336 8.826a1.11 1.11 0 0 0 1.142.265l-.008.003c.098-.033 1.832-.986 3.854-2.116l3.677-2.056 3.677 2.056c2.022 1.131 3.756 2.083 3.854 2.116a1.11 1.11 0 0 0 1.135-.268c.368-.36.34.432.324-9.141-.016-9.415.003-8.857-.3-9.715-.254-.723-.947-1.594-1.615-2.033-.732-.479-1.39-.678-2.497-.752-.75-.05-8.502-.047-9.259.003m5.063 4.428c.285.095.57.375.669.653.061.179.074.41.074 1.395v1.181h1.207c1.39 0 1.519.024 1.832.33a1.067 1.067 0 0 1 0 1.543c-.313.306-.442.33-1.832.33h-1.207v1.18c0 .985-.013 1.217-.074 1.396-.142.406-.605.726-1.052.726-.446 0-.91-.32-1.05-.726-.062-.179-.075-.41-.075-1.395V11.9h-1.207c-1.39 0-1.52-.024-1.832-.33a1.067 1.067 0 0 1 0-1.543c.313-.306.442-.33 1.832-.33h1.207v-1.18c0-1.36.024-1.486.337-1.793a1.12 1.12 0 0 1 1.178-.253z"/>
</svg>