<svg xmlns="http://www.w3.org/2000/svg" width="26" height="26" fill="currentColor" class="sym sym-bookmark-minus" viewBox="0 0 26 26">
  <path d="M21.1 23.99a.95.95 0 0 1-.456-.118l-7.639-4.248-7.64 4.248a.94.94 0 0 1-.91 0A.88.88 0 0 1 4 23.105V8.275c0-2.026 0-3.05.476-3.954a4.3 4.3 0 0 1 1.912-1.859C7.328 2 8.37 2 10.455 2h5.09c2.084 0 3.136 0 4.067.462a4.3 4.3 0 0 1 1.913 1.859C22 5.236 22 6.249 22 8.274v14.84a.88.88 0 0 1-.455.768.95.95 0 0 1-.456.118zm-8.095-6.264c.152 0 .314.039.455.117l6.729 3.738V8.274c0-1.691 0-2.616-.283-3.156a2.53 2.53 0 0 0-1.124-1.092c-.546-.275-1.507-.275-3.237-.275h-5.09c-1.74 0-2.691 0-3.248.275a2.5 2.5 0 0 0-1.113 1.082c-.283.53-.283 1.465-.283 3.157V21.57l6.729-3.737a.9.9 0 0 1 .455-.118zm3.47-6.098h-6.94a.894.894 0 0 1-.911-.885c0-.492.405-.885.91-.885h6.942c.505 0 .91.393.91.885a.894.894 0 0 1-.91.885"/>
</svg>