<svg xmlns="http://www.w3.org/2000/svg" width="26" height="26" fill="currentColor" class="sym sym-box-solid" viewBox="0 0 26 26">
  <path d="M5.271 4.024c-.6.1-1.223.457-1.636.935a2.67 2.67 0 0 0-.427 2.766 2.78 2.78 0 0 0 1.45 1.448l.019.007c.553.224.068.21 8.322.21 8.251 0 7.77.012 8.32-.21a2.8 2.8 0 0 0 1.464-1.438l.007-.018c.133-.306.21-.66.21-1.034a2.68 2.68 0 0 0-1.532-2.415l-.016-.007c-.602-.287.215-.261-8.345-.268-4.211-.002-7.738.008-7.836.024"/>
  <path fill-rule="evenodd" d="M5.523 11.226a.96.96 0 0 0-.61.483l-.003.005c-.079.144-.079.16-.09 2.92-.017 4.44.031 4.882.618 5.75.528.784 1.33 1.323 2.212 1.491.534.102 1.546.125 5.348.125 3.8 0 4.813-.024 5.347-.125.877-.167 1.688-.712 2.207-1.483.594-.884.64-1.322.622-5.793-.01-2.723-.01-2.74-.089-2.884a1.04 1.04 0 0 0-.425-.423l-.005-.003-.147-.078-7.439-.005c-4.092-.004-7.488.006-7.548.02zm9.658 2.744c.22.1.355.232.459.448a.897.897 0 0 1-.453 1.202l-.006.002c-.158.071-.23.073-2.183.074h-2.02l-.181-.085a.88.88 0 0 1-.526-.803v-.013c0-.359.194-.658.526-.814l.182-.085h2.02c1.951 0 2.024.003 2.182.074"/>
</svg>