<svg xmlns="http://www.w3.org/2000/svg" width="26" height="26" fill="currentColor" class="sym sym-box" viewBox="0 0 26 26">
  <path d="M16.385 21.99H9.656c-1.615 0-2.515 0-3.292-.394a3.62 3.62 0 0 1-1.595-1.577c-.399-.768-.399-1.657-.399-3.254v-6.52a1.76 1.76 0 0 1-1.166-.92C3 8.943 3 8.55 3 7.963V6.345c0-.586 0-.97.194-1.365.174-.343.45-.616.798-.788C4.38 4 4.769 4 5.362 4h15.266c.593 0 .981 0 1.38.202.338.172.624.455.798.789.194.384.194.768.194 1.354v1.617c0 .586 0 .97-.204 1.364a1.76 1.76 0 0 1-1.166.92v6.529c0 1.597 0 2.486-.399 3.254a3.62 3.62 0 0 1-1.595 1.577C18.859 22 18.02 22 16.344 22zM6.22 10.307v6.458c0 1.324 0 2.041.194 2.425.174.334.45.607.787.779.389.192 1.125.192 2.454.192h6.728c1.33 0 2.066 0 2.454-.192a1.82 1.82 0 0 0 .788-.779c.194-.384.194-1.111.194-2.425v-6.458H6.21zm-.828-4.488c-.256 0-.512 0-.593.02.05 0 .05.263.05.506v1.617c0 .253 0 .505.021.586 0-.05.174-.07.43-.05h15.358c.255 0 .51 0 .582-.02-.05 0-.05-.263-.05-.516V6.345c0-.253 0-.506-.021-.576 0 .05-.266.05-.522.05H5.382zm9.816 11.229h-4.366c-.594 0-.982 0-1.38-.202a1.76 1.76 0 0 1-.798-.789c-.195-.384-.195-.778-.195-1.354v-.718c0-.586 0-.97.205-1.364.174-.344.45-.617.797-.788.4-.203.788-.202 1.38-.202h4.367c.593 0 .981 0 1.37.202.348.172.624.444.798.788.194.384.194.778.194 1.364v.718c0 .586 0 .97-.205 1.364a1.76 1.76 0 0 1-.797.789c-.389.202-.777.202-1.37.202zm-4.366-3.598c-.256 0-.512 0-.583.02.05 0 .05.263.05.515v.718c0 .253 0 .505.021.576 0-.05.266-.05.522-.05h4.366c.255 0 .511 0 .583-.02-.051 0-.051-.263-.051-.506v-.718c0-.252 0-.505-.02-.576 0 .05-.267.05-.522.05h-4.366z"/>
</svg>