<svg xmlns="http://www.w3.org/2000/svg" width="26" height="26" fill="currentColor" class="sym sym-brackets" viewBox="0 0 26 26">
  <path d="M18.316 20.97a.91.91 0 0 1-.91-.922c0-.512.404-.922.91-.922.505 0 .94-.43.94-.952v-3.747c0-.246.091-.482.263-.656l.284-.286-.284-.287a.93.93 0 0 1-.263-.655V8.795a.95.95 0 0 0-.94-.952.906.906 0 0 1-.91-.921c0-.512.404-.922.91-.922 1.517 0 2.761 1.25 2.761 2.795v3.359l.657.665a.93.93 0 0 1 0 1.3l-.657.666v3.358c0 1.536-1.234 2.796-2.762 2.796zm-10.632 0c-1.517 0-2.761-1.25-2.761-2.796v-3.358l-.657-.666a.93.93 0 0 1 0-1.3l.657-.666V8.826c0-1.536 1.234-2.795 2.761-2.795.506 0 .91.41.91.921a.91.91 0 0 1-.91.922c-.505 0-.94.43-.94.952v3.747a.93.93 0 0 1-.263.656l-.283.286.283.287c.172.174.263.41.263.655v3.748c0 .522.425.952.94.952.516 0 .91.41.91.921a.91.91 0 0 1-.91.922z"/>
</svg>