<svg xmlns="http://www.w3.org/2000/svg" width="26" height="26" fill="currentColor" class="sym sym-briefcase-solid" viewBox="0 0 26 26">
  <path fill-rule="evenodd" d="M11.666 4.032a3.64 3.64 0 0 0-2.403 1.304 3.53 3.53 0 0 0-.79 1.963v.013l-.026.275-1.532.018c-1.616.02-1.812.037-2.237.203-.665.26-1.3.928-1.51 1.584a4 4 0 0 0-.126.605l-.002.02c-.053.479-.053 9.08 0 9.559.053.47.18.847.392 1.166.48.723 1.139 1.12 2.016 1.217.489.055 14.616.055 15.105 0 .474-.052.855-.177 1.178-.388.729-.474 1.13-1.127 1.229-1.996.053-.478.053-9.08 0-9.558a4 4 0 0 0-.135-.654l.008.03c-.21-.657-.845-1.324-1.51-1.585-.425-.166-.622-.184-2.238-.203l-1.533-.018-.025-.257c-.075-.793-.313-1.393-.79-1.994-.336-.424-.755-.744-1.314-1a3 3 0 0 0-1.125-.305h-.01c-.422-.042-2.19-.04-2.62.001zm2.527 1.798A1.77 1.77 0 0 1 15.7 7.389l.02.207h-5.444l.02-.207a2 2 0 0 1 .09-.415l-.004.015c.204-.587.796-1.079 1.39-1.155.32-.041 2.101-.043 2.42-.003"/>
</svg>