<svg xmlns="http://www.w3.org/2000/svg" width="26" height="26" fill="currentColor" class="sym sym-briefcase" viewBox="0 0 26 26">
  <path d="M19.186 22H6.824c-1.125 0-1.748 0-2.331-.293a2.7 2.7 0 0 1-1.196-1.184C3 19.946 3 19.329 3 18.216v-6.84c0-1.113 0-1.73.297-2.307a2.7 2.7 0 0 1 1.196-1.184c.583-.293 1.206-.293 2.331-.293H8.46c.01-.374.041-.648.113-.92a3.63 3.63 0 0 1 2.576-2.55C11.61 4 12.08 4 13 4s1.39 0 1.85.121a3.63 3.63 0 0 1 2.577 2.55c.072.273.103.547.113.92h1.636c1.125 0 1.748 0 2.331.294.522.263.94.678 1.196 1.184.297.577.297 1.194.297 2.307v6.84c0 1.113 0 1.73-.297 2.307a2.7 2.7 0 0 1-1.196 1.184c-.583.293-1.206.293-2.331.293zM6.824 9.413c-.787 0-1.309 0-1.503.101a.9.9 0 0 0-.388.385c-.092.192-.093.698-.093 1.477v6.84c0 .779 0 1.295.093 1.477a.84.84 0 0 0 .388.385c.194.1.716.1 1.493.1h12.362c.787 0 1.309 0 1.493-.1a.84.84 0 0 0 .388-.385c.103-.192.103-.708.103-1.487v-6.84c0-.78 0-1.295-.103-1.487a.9.9 0 0 0-.388-.385c-.195-.09-.706-.09-1.493-.09H6.814zm8.886-1.821c0-.202-.02-.344-.052-.455a1.79 1.79 0 0 0-1.278-1.265c-.225-.06-.634-.06-1.38-.06s-1.145 0-1.38.06a1.79 1.79 0 0 0-1.278 1.265 2.3 2.3 0 0 0-.052.455z"/>
</svg>