<svg xmlns="http://www.w3.org/2000/svg" width="26" height="26" fill="currentColor" class="sym sym-brush-solid" viewBox="0 0 26 26">
  <path d="M6.904 4.022c-.513.074-.999.418-1.22.862-.177.357-.184.449-.184 2.78 0 2.445-.007 2.388.248 2.638.27.265-.337.245 7.252.245 7.59 0 6.981.02 7.252-.245.255-.25.249-.194.248-2.638 0-2.33-.007-2.423-.185-2.78-.175-.354-.53-.654-.952-.804l-.212-.075L13.117 4c-3.319-.002-6.114.007-6.213.022M6.2 12.218a.86.86 0 0 0-.587.45c-.05.1-.063.191-.06.437a3.03 3.03 0 0 0 .519 1.709A3.2 3.2 0 0 0 8.1 16.17c.265.05 1.22.113 1.757.115l.239.001.012 1.697c.012 1.505.02 1.72.072 1.895.148.491.377.887.718 1.239a2.93 2.93 0 0 0 1.461.83l.02.004a3.9 3.9 0 0 0 1.249-.003 2.95 2.95 0 0 0 2.178-2.023c.072-.238.075-.29.087-1.942l.012-1.697h.24c.537-.003 1.49-.065 1.756-.116.815-.153 1.555-.653 2.037-1.372a3.6 3.6 0 0 0 .294-.542c.2-.514.285-1.334.16-1.58a1 1 0 0 0-.4-.398l-.005-.003-.135-.071-6.768-.005c-3.722-.002-6.82.006-6.883.02z"/>
</svg>