<svg xmlns="http://www.w3.org/2000/svg" width="26" height="26" fill="currentColor" class="sym sym-brush" viewBox="0 0 26 26">
  <path d="M12.505 22c-1.645 0-2.981-1.315-2.981-2.933v-2.73c-1.265 0-2.005-.03-2.673-.364a3.4 3.4 0 0 1-1.48-1.456C5 13.799 5 13 5 11.544v-5.34c0-.535 0-.9.185-1.264.165-.323.432-.586.76-.748C6.327 4 6.687 4 7.242 4H17.77c.545 0 .915 0 1.285.182.34.172.596.435.76.758.186.364.186.718.186 1.264v5.34c0 1.456 0 2.255-.37 2.973a3.4 3.4 0 0 1-1.48 1.456c-.669.334-1.41.364-2.674.364v2.73c0 1.618-1.336 2.933-2.981 2.933zm-1.13-5.663v2.73c0 .617.503 1.113 1.13 1.113s1.131-.496 1.131-1.113v-2.73zm3.186-1.82h.576c1.193 0 1.85 0 2.18-.162q.447-.228.678-.667c.124-.253.154-.688.165-1.396H6.85c0 .718.042 1.153.165 1.396.144.283.38.515.668.657.33.162.987.162 2.18.162h4.688zm-7.71-4.045H18.16V5.82H6.85v4.652"/>
</svg>