<svg xmlns="http://www.w3.org/2000/svg" width="26" height="26" fill="currentColor" class="sym sym-building-03-solid" viewBox="0 0 26 26">
  <path fill-rule="evenodd" d="M7.997 5.01c-.734.06-1.215.26-1.651.686-.402.394-.621.852-.69 1.447-.023.21-.034 2.232-.034 6.283V19.4H5.15c-.65 0-.864.081-1.06.408-.078.13-.091.187-.091.392 0 .204.013.262.09.391a.8.8 0 0 0 .449.36c.124.044 1.1.049 8.451.049 7.65 0 8.323-.004 8.47-.053.302-.1.54-.43.54-.748a.84.84 0 0 0-.245-.561c-.202-.198-.362-.24-.924-.24h-.469v-5.974c0-4.05-.011-6.072-.035-6.282-.047-.418-.161-.753-.353-1.037a2.4 2.4 0 0 0-1.528-1.046c-.204-.046-.79-.051-5.273-.056a634 634 0 0 0-5.352.007zm3.636 3.234c.302.1.54.43.54.748a.83.83 0 0 1-.54.748c-.23.076-2.578.079-2.808.002a.79.79 0 0 1-.528-.75c0-.373.221-.658.6-.771.046-.013.644-.026 1.33-.027 1.08-.003 1.268.004 1.406.05m5.614.037c.292.153.442.394.442.71a.74.74 0 0 1-.26.589c-.216.205-.273.212-1.668.212-1.422 0-1.466-.007-1.704-.24a.776.776 0 0 1 0-1.123c.24-.233.254-.235 1.736-.229 1.305.007 1.312.007 1.454.081m-5.614 3.165c.302.101.54.43.54.748a.83.83 0 0 1-.54.748c-.23.077-2.578.08-2.808.003a.79.79 0 0 1-.528-.75c0-.373.221-.659.6-.771.046-.013.644-.026 1.33-.027 1.08-.003 1.268.004 1.406.05m5.614.038c.292.153.442.393.442.71a.74.74 0 0 1-.26.588c-.216.205-.273.212-1.668.212-1.422 0-1.466-.007-1.704-.24a.776.776 0 0 1 0-1.123c.24-.233.254-.235 1.736-.229 1.305.007 1.312.007 1.454.082m-5.614 3.165c.302.1.54.43.54.748a.83.83 0 0 1-.54.748c-.23.076-2.578.079-2.808.002a.79.79 0 0 1-.528-.75c0-.373.221-.658.6-.771.046-.013.644-.026 1.33-.027 1.08-.003 1.268.004 1.406.05m5.614.037c.292.153.442.393.442.71a.74.74 0 0 1-.26.589c-.216.205-.273.212-1.668.212-1.422 0-1.466-.007-1.704-.24a.776.776 0 0 1 0-1.123c.24-.233.254-.235 1.736-.229 1.305.007 1.312.007 1.454.081"/>
</svg>