<svg xmlns="http://www.w3.org/2000/svg" width="26" height="26" fill="currentColor" class="sym sym-building-08-solid" viewBox="0 0 26 26">
  <path d="M12.542 3.565c-.214.078-7.262 4.519-7.394 4.66a.84.84 0 0 0-.241.591v.034-.001q.001.545.497.813l.146.079h14.887l.145-.079q.496-.268.497-.813a.8.8 0 0 0-.268-.643c-.18-.17-7.194-4.581-7.394-4.65a1.6 1.6 0 0 0-.885.012zM7.388 10.7a.96.96 0 0 0-.605.49l-.003.005-.078.147v7.754l.078.147c.176.333.449.503.806.503.356 0 .629-.17.805-.503l.078-.147v-7.754l-.078-.147c-.2-.379-.633-.592-1.003-.494m3.604-.001a.96.96 0 0 0-.605.49l-.003.005-.077.147v7.754l.077.147c.177.333.45.503.806.503s.63-.17.806-.503l.077-.147v-7.754l-.078-.147c-.2-.379-.633-.592-1.003-.494m3.605-.001a.96.96 0 0 0-.605.49l-.002.005-.078.147v7.754l.078.147c.176.333.448.503.805.503s.63-.17.806-.503l.077-.147v-7.754l-.077-.147c-.201-.379-.634-.592-1.004-.494m3.605-.001a.96.96 0 0 0-.605.49l-.003.005-.078.147v7.754l.078.147c.176.333.449.503.806.503.356 0 .629-.17.805-.503l.078-.147v-7.754l-.078-.147c-.2-.379-.633-.592-1.003-.494M4.58 20.737a.9.9 0 0 0-.478.404l-.002.004c-.086.146-.1.212-.1.445s.014.298.1.445a.9.9 0 0 0 .493.41c.137.048 1.115.055 8.399.055 9.252 0 8.45.024 8.744-.273a.9.9 0 0 0 0-1.276c-.294-.298.51-.272-8.758-.27-7.072.002-8.277.01-8.398.055z"/>
</svg>