<svg xmlns="http://www.w3.org/2000/svg" width="26" height="26" fill="currentColor" class="sym sym-building-02" viewBox="0 0 26 26">
  <path d="M18.216 22H7.784c-1.113 0-1.73 0-2.307-.293a2.68 2.68 0 0 1-1.184-1.183C4 19.947 4 19.33 4 18.218V7.782c0-1.112 0-1.73.293-2.306.263-.515.668-.92 1.184-1.183C6.054 4 6.671 4 7.784 4h10.432c1.113 0 1.73 0 2.307.293.516.263.92.668 1.184 1.183C22 6.053 22 6.67 22 7.782v10.426c0 1.112 0 1.73-.293 2.306-.264.515-.668.92-1.184 1.183-.577.293-1.194.293-2.307.293zm-1.609-1.82h1.609c.779 0 1.295 0 1.477-.101a.83.83 0 0 0 .385-.385c.1-.192.1-.707.1-1.476v-6.573a3.56 3.56 0 0 1-1.79.475 3.6 3.6 0 0 1-2.702-1.213 3.6 3.6 0 0 1-2.701 1.213 3.6 3.6 0 0 1-2.702-1.213 3.6 3.6 0 0 1-2.701 1.213 3.6 3.6 0 0 1-1.791-.475v6.573c0 .779 0 1.294.101 1.476a.84.84 0 0 0 .385.385c.192.1.708.1 1.477.1h1.609v-3.943c0-.587 0-.97.202-1.365a1.75 1.75 0 0 1 .79-.789c.384-.192.778-.192 1.365-.192h2.52c.586 0 .97 0 1.365.192.344.172.618.445.79.789.192.384.192.768.192 1.355v3.944zm-5.393 0h3.572v-3.944c0-.253 0-.506-.02-.576 0 .05-.264.05-.516.05h-2.52c-.253 0-.506 0-.577.02.051 0 .051.263.051.516v3.944zM15.697 7.6c.505 0 .91.404.91.91 0 .981.8 1.79 1.791 1.79.992 0 1.79-.799 1.79-1.79v-.718c0-.779 0-1.294-.1-1.476a.83.83 0 0 0-.385-.385c-.192-.1-.708-.1-1.477-.1H7.794c-.779 0-1.295 0-1.477.1a.83.83 0 0 0-.384.385c-.102.192-.102.708-.102 1.476v.718c0 .981.8 1.79 1.791 1.79.992 0 1.791-.799 1.791-1.79 0-.506.405-.91.91-.91.507 0 .911.404.911.91 0 .981.8 1.79 1.791 1.79.992 0 1.791-.799 1.791-1.79 0-.506.405-.91.91-.91z"/>
</svg>