<svg xmlns="http://www.w3.org/2000/svg" width="26" height="26" fill="currentColor" class="sym sym-building-05-solid" viewBox="0 0 26 26">
  <path fill-rule="evenodd" d="M7.178 5.008c-.742.065-1.216.262-1.652.688-.402.394-.62.852-.689 1.447-.024.21-.035 2.23-.035 6.275v5.966l-.172.04a.84.84 0 0 0-.531.374c-.088.138-.099.185-.099.399 0 .207.013.264.09.394a.8.8 0 0 0 .449.36c.124.043 1.1.049 8.454.049 9.327 0 8.499.022 8.767-.24a.775.775 0 0 0 0-1.123c-.129-.125-.373-.239-.514-.239-.057 0-.06-.111-.06-2.772 0-2.931-.012-3.205-.15-3.635-.189-.583-.761-1.176-1.36-1.408-.42-.163-.487-.167-2.84-.182l-2.203-.014V9.42c0-2.095-.017-2.422-.15-2.832-.189-.584-.761-1.177-1.36-1.409-.431-.166-.447-.167-3.224-.175a186 186 0 0 0-2.81.005h.09zm4.455 3.235c.303.101.54.43.54.748a.84.84 0 0 1-.244.562c-.248.242-.225.24-2.213.24s-1.965.002-2.212-.24a.776.776 0 0 1 0-1.124c.244-.237.205-.232 2.199-.235 1.567-.003 1.79.003 1.93.05m0 3.203c.303.1.54.43.54.748a.84.84 0 0 1-.244.561c-.248.242-.225.24-2.213.24s-1.965.002-2.212-.24a.775.775 0 0 1 0-1.123c.244-.237.205-.233 2.199-.236 1.567-.002 1.79.004 1.93.05m0 3.202c.303.1.54.43.54.748a.84.84 0 0 1-.244.561c-.248.242-.225.24-2.213.24s-1.965.002-2.212-.24a.776.776 0 0 1 0-1.123c.244-.237.205-.233 2.199-.236 1.567-.002 1.79.004 1.93.05"/>
</svg>