<svg xmlns="http://www.w3.org/2000/svg" width="26" height="26" fill="currentColor" class="sym sym-building-06" viewBox="0 0 26 26">
  <path d="M21.1 20.98H4.91a.896.896 0 0 1-.91-.889c0-.454.354-.83.81-.879V14.72c0-.998 0-1.541.273-2.065.242-.464.627-.84 1.102-1.076.547-.267 1.103-.267 2.125-.267h2.975V8.407c0-.997 0-1.54.273-2.064.243-.474.627-.84 1.103-1.076C13.207 5 13.764 5 14.776 5h2.914c1.022 0 1.578 0 2.124.267.476.237.86.612 1.103 1.076.273.534.274 1.077.274 2.074v10.815c.455.05.809.425.809.88a.896.896 0 0 1-.91.888zm-1.72-1.777V8.398c0-.652 0-1.117-.081-1.265a.7.7 0 0 0-.314-.306c-.152-.079-.658-.079-1.295-.079h-2.914c-.638 0-1.144 0-1.295.08a.77.77 0 0 0-.314.305c-.07.148-.07.613-.07 1.265v10.805zm-12.75 0h4.655v-6.124H8.31c-.637 0-1.143 0-1.295.079a.7.7 0 0 0-.313.306c-.071.148-.071.612-.071 1.264v4.484zm10.827-2.963h-2.428a.896.896 0 0 1-.91-.89c0-.493.404-.888.91-.888h2.428c.506 0 .91.395.91.889a.896.896 0 0 1-.91.888m0-3.161h-2.428a.896.896 0 0 1-.91-.889c0-.494.404-.889.91-.889h2.428c.506 0 .91.395.91.89a.896.896 0 0 1-.91.888m0-3.16h-2.428a.896.896 0 0 1-.91-.89c0-.493.404-.888.91-.888h2.428c.506 0 .91.395.91.889a.896.896 0 0 1-.91.889"/>
</svg>