<svg xmlns="http://www.w3.org/2000/svg" width="26" height="26" fill="currentColor" class="sym sym-building-03" viewBox="0 0 26 26">
  <path d="M21.11 20.99H4.91a.896.896 0 0 1-.91-.889c0-.494.405-.889.911-.889h.709V8.407c0-.997 0-1.54.273-2.064.243-.474.628-.84 1.104-1.076C7.533 5 8.1 5 9.112 5h7.775c1.023 0 1.58 0 2.116.267.476.237.86.612 1.104 1.076.273.534.273 1.077.273 2.074v10.805h.709c.506 0 .911.395.911.89a.896.896 0 0 1-.911.888zM7.441 19.212h11.136V8.407c0-.651 0-1.116-.08-1.264a.65.65 0 0 0-.315-.296c-.151-.08-.658-.08-1.296-.08H9.112c-.637 0-1.144 0-1.295.08a.7.7 0 0 0-.314.306c-.071.148-.071.612-.071 1.264v10.805zm9.213-2.963h-2.228a.896.896 0 0 1-.91-.888c0-.494.404-.89.91-.89h2.228c.506 0 .91.396.91.89a.896.896 0 0 1-.91.888m-5.062 0H9.366a.896.896 0 0 1-.912-.888c0-.494.405-.89.912-.89h2.227c.506 0 .91.396.91.89a.896.896 0 0 1-.91.888m5.062-3.16h-2.228a.896.896 0 0 1-.91-.889c0-.494.404-.889.91-.889h2.228c.506 0 .91.395.91.889a.896.896 0 0 1-.91.889m-5.062 0H9.366a.896.896 0 0 1-.912-.889c0-.494.405-.889.912-.889h2.227c.506 0 .91.395.91.889a.896.896 0 0 1-.91.889m5.062-3.16h-2.228a.896.896 0 0 1-.91-.89c0-.493.404-.888.91-.888h2.228c.506 0 .91.395.91.889a.896.896 0 0 1-.91.888m-5.062 0H9.366a.896.896 0 0 1-.912-.89c0-.493.405-.888.912-.888h2.227c.506 0 .91.395.91.889a.896.896 0 0 1-.91.888"/>
</svg>