<svg xmlns="http://www.w3.org/2000/svg" width="26" height="26" fill="currentColor" class="sym sym-building-06-solid" viewBox="0 0 26 26">
  <path fill-rule="evenodd" d="M13.73 5.008a3.6 3.6 0 0 0-.828.158c-.619.228-1.203.82-1.397 1.42-.133.411-.15.739-.15 2.833v1.968l-2.203.014c-2.352.015-2.42.02-2.839.182-.6.231-1.172.825-1.36 1.408-.14.43-.15.705-.15 3.629v2.764l-.173.04a.84.84 0 0 0-.531.374c-.088.138-.099.185-.099.399 0 .207.013.264.09.394a.8.8 0 0 0 .449.36c.124.043 1.1.049 8.454.049 9.328 0 8.499.022 8.767-.24a.776.776 0 0 0 0-1.123c-.129-.125-.373-.24-.514-.24-.057 0-.06-.215-.06-5.973 0-4.05-.012-6.072-.035-6.282-.047-.418-.161-.753-.353-1.037A2.4 2.4 0 0 0 19.27 5.06c-.196-.043-.611-.05-2.818-.057a186 186 0 0 0-2.81.005h.09zm4.457 3.235c.302.1.54.43.54.748a.84.84 0 0 1-.245.561c-.247.242-.224.24-2.212.24s-1.965.002-2.213-.24a.776.776 0 0 1 0-1.123c.243-.237.205-.233 2.199-.236 1.567-.002 1.79.004 1.93.05m0 3.203c.302.1.54.43.54.748a.84.84 0 0 1-.245.56c-.247.243-.224.24-2.212.24s-1.965.003-2.213-.24a.775.775 0 0 1 0-1.122c.243-.237.205-.233 2.199-.236 1.567-.003 1.79.004 1.93.05m0 3.202c.302.1.54.43.54.748a.84.84 0 0 1-.245.56c-.247.243-.224.24-2.212.24s-1.965.003-2.213-.24a.776.776 0 0 1 0-1.122c.243-.237.205-.233 2.199-.236 1.567-.003 1.79.004 1.93.05"/>
</svg>