<svg xmlns="http://www.w3.org/2000/svg" width="26" height="26" fill="currentColor" class="sym sym-building-04" viewBox="0 0 26 26">
  <path d="M4.91 23a.905.905 0 0 1-.91-.909c0-.504.404-.908.91-.908h1.11V7.149c0-1.231 0-1.918.323-2.544.283-.555.728-1 1.283-1.282C8.253 3 8.93 3 10.172 3h5.656c1.233 0 1.92 0 2.546.323.555.283 1 .727 1.283 1.282.323.626.323 1.313.323 2.544v14.034h1.11c.506 0 .91.404.91.908a.905.905 0 0 1-.91.909zm2.928-1.817h10.303V7.149c0-.918 0-1.474-.12-1.716a1.12 1.12 0 0 0-.486-.484c-.232-.122-.798-.122-1.717-.122h-5.656c-.92 0-1.475 0-1.718.122a1.12 1.12 0 0 0-.484.484c-.122.232-.122.798-.122 1.716zm7.677-4.24h-5.05a.905.905 0 0 1-.91-.91c0-.504.405-.908.91-.908h5.05c.505 0 .91.404.91.909a.905.905 0 0 1-.91.909m0-4.039h-5.05a.905.905 0 0 1-.91-.909c0-.504.405-.908.91-.908h5.05c.505 0 .91.404.91.909a.905.905 0 0 1-.91.908m0-4.038h-5.05a.905.905 0 0 1-.91-.909c0-.505.405-.909.91-.909h5.05c.505 0 .91.404.91.91a.905.905 0 0 1-.91.908"/>
</svg>