<svg xmlns="http://www.w3.org/2000/svg" width="26" height="26" fill="currentColor" class="sym sym-building-04-solid" viewBox="0 0 26 26">
  <path fill-rule="evenodd" d="M8.887 3.01c-.903.08-1.486.328-2.018.86-.492.492-.76 1.065-.843 1.809-.03.262-.043 2.79-.043 7.853v7.467h-.576c-.795 0-1.056.102-1.296.511-.095.161-.111.233-.111.49 0 .255.016.327.111.488.061.103.17.235.243.29.31.237-.268.222 8.637.222 9.16 0 8.39.026 8.715-.3a.983.983 0 0 0 0-1.403c-.247-.247-.442-.3-1.129-.3h-.574V13.53c0-5.063-.014-7.59-.043-7.853-.057-.522-.197-.941-.431-1.296-.455-.691-1.082-1.129-1.869-1.306-.244-.055-.819-.064-4.446-.071a364 364 0 0 0-4.471.007zm7.45 4.044c.37.126.662.538.662.935 0 .243-.12.522-.3.702-.312.312-.157.3-3.707.3s-3.395.012-3.706-.3a.98.98 0 0 1-.294-.702.98.98 0 0 1 .295-.702c.306-.305.138-.291 3.689-.295 2.848-.003 3.186.003 3.362.062m0 4.004c.37.126.662.538.662.935 0 .242-.12.521-.3.701-.312.313-.157.3-3.707.3s-3.395.013-3.706-.3a.98.98 0 0 1 .002-1.404c.305-.305.137-.29 3.688-.295 2.848-.003 3.186.003 3.362.063m0 4.002c.37.126.662.538.662.935 0 .243-.12.522-.3.702-.312.312-.157.3-3.707.3s-3.395.012-3.706-.3a.98.98 0 0 1 .002-1.404c.305-.305.137-.291 3.688-.295 2.848-.003 3.186.003 3.362.062"/>
</svg>