<svg xmlns="http://www.w3.org/2000/svg" width="26" height="26" fill="currentColor" class="sym sym-building-solid" viewBox="0 0 26 26">
  <path fill-rule="evenodd" d="M8.398 4.01c-.81.07-1.338.294-1.817.773-.442.443-.683.959-.758 1.628-.026.236-.038 2.511-.038 7.068v6.72h-.519c-.715 0-.95.092-1.166.46-.086.145-.1.21-.1.44s.014.295.1.44a.9.9 0 0 0 .493.406c.137.048 1.115.055 8.399.055 9.252 0 8.45.024 8.744-.27a.885.885 0 0 0 0-1.263c-.223-.222-.398-.27-1.017-.27h-.516v-6.72c0-4.556-.013-6.831-.038-7.067-.052-.47-.178-.848-.389-1.167a2.66 2.66 0 0 0-1.681-1.177c-.223-.05-.804-.057-4.903-.063a497 497 0 0 0-4.954.006zm2.945 4.184c.965.475.988 1.873.04 2.376-1.1.585-2.315-.466-1.904-1.647.12-.346.393-.624.765-.78.178-.073.257-.085.533-.077.284.008.356.025.566.128m4.506 0c.965.475.988 1.873.04 2.376-1.1.585-2.315-.466-1.904-1.647.12-.346.393-.624.765-.78.178-.073.257-.085.533-.077.284.008.356.025.566.127m-.648 6.703a.9.9 0 0 1 .42.438c.051.11.06.416.069 2.495l.01 2.368h-5.41V17.95c0-1.371.015-2.321.038-2.44a.83.83 0 0 1 .645-.678h.005c.089-.017 1.036-.03 2.107-.027l1.947.006z"/>
</svg>