<svg xmlns="http://www.w3.org/2000/svg" width="26" height="26" fill="currentColor" class="sym sym-building-05" viewBox="0 0 26 26">
  <path d="M21.1 20.99H4.91a.896.896 0 0 1-.91-.889c0-.454.354-.83.81-.879V8.407c0-.997 0-1.54.273-2.064.242-.474.627-.84 1.102-1.076C6.732 5 7.288 5 8.31 5h2.914c1.022 0 1.579 0 2.115.267.476.237.86.612 1.103 1.076.273.534.273 1.077.273 2.074v2.904h2.975c1.022 0 1.578 0 2.124.267.476.237.86.612 1.103 1.076.273.534.274 1.077.274 2.074v4.494c.455.05.809.425.809.88a.896.896 0 0 1-.91.888zm-6.375-1.778h4.655v-4.484c0-.652 0-1.116-.081-1.264a.7.7 0 0 0-.314-.306c-.152-.079-.658-.079-1.295-.079h-2.975v6.124zm-1.821 0V8.407c0-.651 0-1.116-.081-1.264a.7.7 0 0 0-.314-.306c-.152-.079-.657-.079-1.295-.079H8.3c-.637 0-1.143 0-1.295.079a.77.77 0 0 0-.314.306c-.07.148-.07.613-.07 1.264v10.805zm-1.922-2.963H8.553a.896.896 0 0 1-.91-.888c0-.494.404-.89.91-.89h2.428c.506 0 .911.396.911.89a.896.896 0 0 1-.91.888m0-3.16H8.553a.896.896 0 0 1-.91-.889c0-.494.404-.889.91-.889h2.428c.506 0 .911.395.911.889a.896.896 0 0 1-.91.889m0-3.16H8.553a.896.896 0 0 1-.91-.89c0-.493.404-.888.91-.888h2.428c.506 0 .911.395.911.889a.896.896 0 0 1-.91.888"/>
</svg>