<svg xmlns="http://www.w3.org/2000/svg" width="26" height="26" fill="currentColor" class="sym sym-building-08" viewBox="0 0 26 26">
  <path d="M21.09 23H4.91a.91.91 0 0 1-.91-.919.91.91 0 0 1 .91-.918h16.18a.91.91 0 0 1 .91.918.91.91 0 0 1-.91.919m-2.7-2.725a.91.91 0 0 1-.91-.92v-7.257a.91.91 0 1 1 1.82 0v7.258a.91.91 0 0 1-.91.919m-3.59 0a.91.91 0 0 1-.91-.92v-7.257a.91.91 0 1 1 1.82 0v7.258a.91.91 0 0 1-.91.919m-3.6 0a.91.91 0 0 1-.91-.92v-7.257a.91.91 0 1 1 1.82 0v7.258a.91.91 0 0 1-.91.919m-3.59 0a.91.91 0 0 1-.91-.92v-7.257a.91.91 0 1 1 1.82 0v7.258a.91.91 0 0 1-.91.919m12.58-9.983H5.81a.93.93 0 0 1-.88-.664.92.92 0 0 1 .395-1.03L12.13 4.3c.182-.112.334-.214.567-.265.192-.041.404-.051.606 0 .213.05.374.142.557.265l6.805 4.297a.925.925 0 0 1 .395 1.031.9.9 0 0 1-.88.664zM8.985 8.454h8.04L13.01 5.923 8.996 8.454z"/>
</svg>