<svg xmlns="http://www.w3.org/2000/svg" width="26" height="26" fill="currentColor" class="sym sym-building" viewBox="0 0 26 26">
  <path d="M21.09 22H4.91a.906.906 0 0 1-.91-.91c0-.506.404-.91.91-.91h.89V7.782c0-1.112 0-1.73.293-2.306.263-.515.668-.92 1.183-1.183C7.853 4 8.47 4 9.582 4h6.836c1.112 0 1.73 0 2.306.293.515.263.92.668 1.183 1.183.293.577.293 1.194.293 2.306V20.18h.89c.506 0 .91.404.91.91s-.404.91-.91.91m-4.48-1.82h1.78V7.782c0-.779 0-1.294-.101-1.476a.83.83 0 0 0-.385-.385c-.192-.1-.707-.1-1.476-.1H9.592c-.779 0-1.294 0-1.486.1a.9.9 0 0 0-.385.385c-.1.192-.1.707-.1 1.486V20.19H9.4v-3.944c0-.586 0-.97.202-1.365.172-.344.445-.617.789-.789.384-.192.779-.192 1.365-.192h2.518c.587 0 .971 0 1.365.192.344.172.617.445.79.789.191.384.191.768.191 1.355v3.944zm-5.39 0h3.57v-3.944c0-.253 0-.506-.02-.576 0 .05-.263.05-.516.05h-2.518c-.253 0-.506 0-.577.02.051 0 .051.263.051.516v3.944zm4.035-9.415a1.355 1.355 0 1 1 0-2.71 1.355 1.355 0 0 1 0 2.71m-4.49 0a1.355 1.355 0 1 1 0-2.71 1.355 1.355 0 0 1 0 2.71"/>
</svg>