<svg xmlns="http://www.w3.org/2000/svg" width="26" height="26" fill="currentColor" class="sym sym-building-02-solid" viewBox="0 0 26 26">
  <path d="M6.61 4.01c-.342.03-.7.099-.91.179-.68.256-1.322.924-1.535 1.6C4.038 6.19 4 6.638 4 7.72c0 .87.007.979.074 1.177.04.12.1.262.133.314.575.927 1.922 1.33 3.14.938.371-.12.688-.317.945-.575.311-.31.445-.584.5-1.028.06-.465.19-.683.516-.856.202-.106.592-.106.793 0 .28.15.483.465.485.752.003.415.208.833.585 1.19.931.883 2.726.883 3.656 0 .377-.357.583-.775.585-1.19a1 1 0 0 1 .244-.573c.172-.181.357-.256.637-.256.298 0 .476.079.674.297.149.166.191.282.243.675.055.408.197.69.496.99.82.817 2.296.964 3.37.335a1.9 1.9 0 0 0 .851-1.015c.066-.198.073-.308.073-1.176 0-1.479-.081-1.948-.427-2.475a2.65 2.65 0 0 0-1.679-1.178c-.224-.051-.936-.059-6.696-.063a913 913 0 0 0-6.81.008z"/>
  <path fill-rule="evenodd" d="M9.454 10.974c-.747.704-1.896 1.127-3.064 1.127a4.8 4.8 0 0 1-2.126-.497l.028.012a3 3 0 0 0-.258-.12l-.02-.007c-.01 0-.013 1.822-.005 4.048.017 4.349.014 4.292.203 4.792.232.616.858 1.243 1.468 1.473.544.207.203.198 7.319.198s6.774.009 7.32-.198c.61-.23 1.235-.858 1.467-1.473.189-.5.186-.443.203-4.792.008-2.226.006-4.048-.006-4.048a3 3 0 0 0-.276.127 5 5 0 0 1-.582.24l-.038.01c-1.57.52-3.414.157-4.55-.897l-.224-.208-.279.24c-.538.463-1.127.766-1.882.968-.4.107-.442.111-1.152.111s-.754-.005-1.152-.111c-.754-.201-1.344-.505-1.879-.964a4 4 0 0 0-.277-.229l-.01-.007a3 3 0 0 0-.227.205m5.76 3.927a1 1 0 0 1 .4.41c.064.118.068.264.078 2.515l.01 2.39h-5.404l.01-2.39c.009-2.251.014-2.397.078-2.516a.92.92 0 0 1 .563-.47c.049-.016.997-.026 2.106-.022 1.99.006 2.018.007 2.16.083z"/>
</svg>