<svg xmlns="http://www.w3.org/2000/svg" width="26" height="26" fill="currentColor" class="sym sym-building-07-solid" viewBox="0 0 26 26">
  <path fill-rule="evenodd" d="M10.749 5.019a2.4 2.4 0 0 0-.83.197A2.44 2.44 0 0 0 8.687 6.45l-.006.016c-.171.411-.181.555-.199 2.82l-.016 2.102-1.169.012c-1.113.012-1.178.016-1.377.085-.412.142-.763.436-.936.784-.182.362-.181.336-.181 3.865v3.25l-.173.04a.84.84 0 0 0-.531.375c-.088.138-.099.185-.099.399 0 .207.013.264.09.394a.8.8 0 0 0 .449.36c.124.043 1.1.049 8.454.049 9.327 0 8.499.022 8.767-.24a.776.776 0 0 0 0-1.123c-.129-.125-.373-.24-.514-.24-.057 0-.06-.127-.061-3.258 0-3.536 0-3.51-.181-3.872-.174-.348-.525-.642-.936-.785-.2-.069-.264-.072-1.378-.084l-1.168-.012-.016-2.103c-.018-2.223-.025-2.337-.18-2.767-.197-.541-.688-1.05-1.258-1.303-.453-.201-.481-.203-2.878-.212-1.198-.004-2.297.003-2.441.016zm3.342 3.224c.303.1.541.43.541.748a.83.83 0 0 1-.54.748c-.236.079-1.96.079-2.196 0a.83.83 0 0 1-.54-.748c0-.31.238-.646.526-.746.221-.076 1.982-.077 2.21-.002m0 3.203c.303.1.541.43.541.748a.83.83 0 0 1-.54.748c-.134.044-.31.053-1.098.053-1.078 0-1.164-.015-1.393-.24a.776.776 0 0 1 .001-1.123c.227-.222.294-.233 1.378-.236.806-.002.978.005 1.112.05m0 3.202c.303.1.541.43.541.748a.83.83 0 0 1-.54.748c-.134.044-.31.053-1.098.053-1.078 0-1.164-.015-1.393-.24a.776.776 0 0 1 .001-1.123c.227-.221.294-.233 1.378-.236.806-.002.978.006 1.112.05"/>
</svg>