<svg xmlns="http://www.w3.org/2000/svg" width="26" height="26" fill="currentColor" class="sym sym-building-07" viewBox="0 0 26 26">
  <path d="M21.09 20.98H4.91a.896.896 0 0 1-.91-.889c0-.454.354-.83.809-.879v-5.758c0-.523 0-.879.192-1.234.172-.316.425-.573.759-.731.364-.178.718-.178 1.264-.178H8.46V8.407c0-.997 0-1.54.273-2.064.252-.474.627-.84 1.112-1.076C10.381 5 10.947 5 11.958 5h2.104c1.021 0 1.577 0 2.113.267.476.237.86.612 1.102 1.076.274.534.274 1.077.274 2.074v2.904h1.436c.546 0 .9 0 1.264.188.323.158.586.415.748.73.192.366.192.712.192 1.235v5.758c.455.05.809.425.809.88a.896.896 0 0 1-.91.888zm-3.54-1.777h1.82v-6.124h-1.819zm-7.28 0h5.46V8.398c0-.652 0-1.117-.08-1.265a.67.67 0 0 0-.304-.296c-.152-.079-.657-.079-1.294-.079h-2.104c-.637 0-1.142 0-1.294.079a.7.7 0 0 0-.313.306c-.071.148-.071.613-.071 1.264v10.805zm-3.64 0h1.82v-6.124H6.628v6.124m7.179-2.963h-1.618a.896.896 0 0 1-.91-.89c0-.493.404-.888.91-.888h1.618c.506 0 .91.395.91.889a.896.896 0 0 1-.91.888m0-3.161h-1.618a.896.896 0 0 1-.91-.889c0-.494.404-.889.91-.889h1.618c.506 0 .91.395.91.89a.896.896 0 0 1-.91.888m0-3.16h-1.618a.896.896 0 0 1-.91-.89c0-.493.404-.888.91-.888h1.618c.506 0 .91.395.91.889a.896.896 0 0 1-.91.889"/>
</svg>