<svg xmlns="http://www.w3.org/2000/svg" width="26" height="26" fill="currentColor" class="sym sym-calculator-solid" viewBox="0 0 26 26">
  <path fill-rule="evenodd" d="M7.46 4.034c-.789.054-1.356.235-1.917.613-.489.33-1.026.984-1.24 1.512-.127.313-.221.746-.264 1.221-.052.567-.052 10.672 0 11.239.07.774.215 1.228.558 1.755.263.402.632.772 1.035 1.035.55.358 1 .494 1.842.56.351.028 2.168.036 5.877.028 5.923-.015 5.663-.005 6.352-.241.885-.305 1.76-1.18 2.065-2.065.241-.701.232-.413.232-6.692 0-6.278.01-5.99-.232-6.691-.203-.592-.758-1.304-1.293-1.663-.585-.392-1.113-.555-1.999-.615-.608-.042-10.404-.039-11.016.002zm2.868 3.26a.9.9 0 0 1 .284.283c.107.173.109.186.127.774l.018.597.597.019c.589.018.6.02.775.126a.9.9 0 0 1 .285.286c.098.159.11.206.11.47s-.012.311-.11.47a1.02 1.02 0 0 1-.62.425c-.16.015-.344.024-.532.024l-.064-.001h.003-.457l-.011.588c-.012.583-.013.59-.121.766-.184.297-.562.477-.892.424a1.02 1.02 0 0 1-.62-.424c-.108-.176-.109-.182-.12-.766l-.012-.588h-.517q-.283 0-.556-.026l.024.002a1.02 1.02 0 0 1-.62-.424c-.098-.16-.11-.207-.11-.47 0-.264.012-.312.11-.47a.9.9 0 0 1 .285-.286c.173-.108.186-.109.774-.127l.598-.018.018-.595c.017-.567.022-.601.117-.763.176-.3.43-.431.805-.416.21.008.286.03.432.12m8.107 0a.83.83 0 0 1 .406.687c.03.467.428.032-5.16 5.624-5.52 5.524-5.227 5.25-5.647 5.246a.9.9 0 0 1-.806-.559l-.002-.006a1.04 1.04 0 0 1 .02-.71c.105-.236 10.057-10.19 10.321-10.324.154-.078.219-.09.436-.079.209.01.287.032.431.12zm0 8.103a.9.9 0 0 1 .285.286c.098.159.109.206.109.47s-.01.311-.109.47c-.123.2-.398.389-.62.424-.178.03-3.698.03-3.875 0a1.03 1.03 0 0 1-.618-.42.75.75 0 0 1-.123-.402c-.025-.396.138-.697.468-.862l.192-.095 4.114.02.176.108z"/>
</svg>