<svg xmlns="http://www.w3.org/2000/svg" width="26" height="26" fill="currentColor" class="sym sym-calculator" viewBox="0 0 26 26">
  <path d="M16.87 22.095H9.32c-1.597 0-2.486 0-3.254-.394a3.6 3.6 0 0 1-1.577-1.577c-.394-.768-.394-1.597-.394-3.254V9.32c0-1.657 0-2.486.394-3.254a3.55 3.55 0 0 1 1.577-1.577c.768-.394 1.647-.394 3.254-.394h7.55c1.596 0 2.486 0 3.254.394.677.344 1.223.89 1.577 1.577.394.768.394 1.597.394 3.254v7.55c0 1.657 0 2.486-.394 3.254a3.55 3.55 0 0 1-1.577 1.577c-.768.394-1.647.394-3.254.394M9.32 5.925c-1.314 0-2.042 0-2.426.191a1.76 1.76 0 0 0-.778.779c-.192.384-.192 1.111-.192 2.425v7.55c0 1.324 0 2.041.192 2.425.172.344.445.607.778.779.384.192 1.112.192 2.426.192h7.55c1.313 0 2.041 0 2.425-.192a1.75 1.75 0 0 0 .778-.779c.192-.384.192-1.111.192-2.425V9.32c0-1.324 0-2.041-.192-2.425a1.76 1.76 0 0 0-.778-.779c-.384-.192-1.112-.192-2.425-.192zM8.148 18.951a.95.95 0 0 1-.647-.263.91.91 0 0 1 0-1.283l9.884-9.885a.909.909 0 0 1 1.284 1.284l-9.885 9.884a.9.9 0 0 1-.647.263zm9.884-1.8h-3.598a.906.906 0 0 1-.91-.909c0-.505.405-.91.91-.91h3.598c.505 0 .91.405.91.91 0 .506-.405.91-.91.91m-8.085-4.487a.906.906 0 0 1-.91-.91v-.889h-.89a.906.906 0 0 1-.91-.91c0-.505.405-.909.91-.909h.89v-.89c0-.504.404-.909.91-.909.505 0 .91.405.91.91v.89h.889c.505 0 .91.403.91.909 0 .505-.405.91-.91.91h-.89v.889c0 .505-.404.91-.91.91"/>
</svg>