<svg xmlns="http://www.w3.org/2000/svg" width="26" height="26" fill="currentColor" class="sym sym-calendar-date-number-solid" viewBox="0 0 26 26">
  <path fill-rule="evenodd" d="M9.103 3.053a.9.9 0 0 0-.478.403l-.002.004c-.096.165-.1.193-.111.755l-.013.584-.744.044c-.469.026-.866.07-1.07.116-.817.185-1.602.75-2.088 1.502-.343.532-.487.992-.559 1.773-.05.572-.05 10.779 0 11.351.071.782.216 1.24.56 1.773.262.406.631.78 1.034 1.044.55.363 1 .5 1.842.567.351.028 2.168.037 5.877.028 5.923-.015 5.663-.005 6.352-.244.885-.308 1.76-1.191 2.065-2.086.241-.708.232-.416.232-6.758 0-5.346-.005-5.755-.065-6.094-.138-.777-.426-1.355-.944-1.892a3.3 3.3 0 0 0-1.018-.74l-.02-.009c-.425-.204-.816-.281-1.691-.333l-.748-.042v-.514c0-.617-.047-.794-.27-1.02a.894.894 0 0 0-1.34.085l-.001.002c-.163.215-.192.353-.192.943v.519h-5.405v-.522c0-.624-.047-.8-.27-1.025a.89.89 0 0 0-.94-.213zm-.599 4.099c0 .59.028.727.192.943a.896.896 0 0 0 1.34.086c.225-.225.27-.401.27-1.027v-.52h5.406v.518c0 .59.028.727.191.943a.896.896 0 0 0 1.341.086c.225-.226.27-.401.27-1.032v-.527l.532.026c.99.047 1.229.124 1.631.53.271.274.413.537.469.874.02.13.048.682.06 1.228l.021.991H5.792l.022-.992c.023-1.104.054-1.373.197-1.66.194-.393.636-.775 1.013-.876.178-.048.732-.098 1.184-.104l.297-.006zm4.79 5.905a.8.8 0 0 1 .346.214c.27.273.27.273.27 2.409v1.867h.17c.384 0 .682.18.847.507a.906.906 0 0 1-.382 1.213l-.005.002c-.14.077-.178.079-1.531.079s-1.391-.002-1.532-.079a.927.927 0 0 1-.411-1.177c.151-.336.408-.51.8-.537l.242-.019v-.959c0-.527-.004-.96-.008-.959-.005 0-.074.024-.154.053a.87.87 0 0 1-.95-.254.8.8 0 0 1-.22-.6c0-.25.052-.4.199-.577.118-.141 1.547-1.116 1.742-1.189.176-.065.351-.065.577.004z"/>
</svg>