<svg xmlns="http://www.w3.org/2000/svg" width="26" height="26" fill="currentColor" class="sym sym-calendar-check" viewBox="0 0 26 26">
  <path d="M16.87 23.09H9.32c-1.607 0-2.486 0-3.254-.394A3.6 3.6 0 0 1 4.489 21.1c-.394-.778-.394-1.616-.394-3.283v-7.636c0-1.667 0-2.505.394-3.283a3.57 3.57 0 0 1 1.577-1.586c.646-.333 1.374-.384 2.526-.394V4.01c0-.505.404-.909.91-.909.505 0 .91.404.91.91v.908h5.366V4.01c0-.505.404-.909.91-.909.505 0 .91.404.91.91v.908c1.162 0 1.88.06 2.526.394.687.354 1.233.91 1.577 1.596.394.778.394 1.616.394 3.283v7.636c0 1.667 0 2.505-.394 3.283a3.6 3.6 0 0 1-1.577 1.596c-.768.394-1.658.394-3.254.394zM5.924 12.18v5.637c0 1.344 0 2.071.192 2.465.172.343.445.616.778.788.384.192 1.102.192 2.426.192h7.55c1.313 0 2.041 0 2.425-.192.344-.172.607-.445.778-.788.203-.394.203-1.131.203-2.465v-5.636zm0-1.817h14.352v-.182c0-1.344 0-2.07-.192-2.465a1.85 1.85 0 0 0-.779-.798c-.303-.151-.828-.182-1.687-.192v.91a.907.907 0 0 1-.91.909.906.906 0 0 1-.91-.91v-.909h-5.366v.91a.907.907 0 0 1-.91.909.906.906 0 0 1-.91-.91v-.909c-.869 0-1.394.04-1.698.192a1.78 1.78 0 0 0-.778.788c-.202.394-.202 1.131-.202 2.465v.182zm6.276 9.09a.92.92 0 0 1-.647-.272l-1.799-1.818a.908.908 0 0 1 1.284-1.283l1.152 1.162 3.396-3.435a.9.9 0 0 1 1.284 0 .9.9 0 0 1 0 1.283l-4.043 4.09a.92.92 0 0 1-.647.274z"/>
</svg>