<svg xmlns="http://www.w3.org/2000/svg" width="26" height="26" fill="currentColor" class="sym sym-calendar-date-number" viewBox="0 0 26 26">
  <path d="M16.775 22.99h-7.55c-1.607 0-2.486 0-3.254-.394A3.6 3.6 0 0 1 4.394 21C4 20.222 4 19.384 4 17.717v-7.636c0-1.667 0-2.505.394-3.283a3.57 3.57 0 0 1 1.577-1.586c.647-.333 1.374-.384 2.526-.394V3.91c0-.505.405-.909.91-.909s.91.404.91.91v.908h5.366V3.91c0-.505.405-.909.91-.909s.91.404.91.91v.908c1.162 0 1.88.06 2.526.394a3.6 3.6 0 0 1 1.577 1.596C22 7.587 22 8.425 22 10.092v7.636c0 1.667 0 2.505-.394 3.283a3.6 3.6 0 0 1-1.577 1.596c-.768.394-1.657.394-3.254.394zM5.829 12.08v5.637c0 1.344 0 2.07.192 2.465.172.343.445.616.779.788.384.192 1.101.192 2.425.192h7.55c1.314 0 2.041 0 2.425-.192.344-.172.607-.445.779-.788.202-.394.202-1.131.202-2.465v-5.636zm0-1.817h14.352v-.182c0-1.344 0-2.07-.192-2.465a1.85 1.85 0 0 0-.779-.798c-.303-.151-.828-.182-1.687-.192v.91a.905.905 0 0 1-.91.908.906.906 0 0 1-.91-.909v-.909h-5.366v.91a.905.905 0 0 1-.91.908.906.906 0 0 1-.91-.909v-.909c-.868 0-1.394.04-1.697.192a1.78 1.78 0 0 0-.778.788c-.203.394-.203 1.131-.203 2.465v.181zm8.298 9.09h-2.244a.906.906 0 0 1-.91-.909c0-.505.405-.909.91-.909h.212v-1.929a.91.91 0 0 1-1.192-.293.91.91 0 0 1 .242-1.263l1.345-.909a.92.92 0 0 1 .94-.05.92.92 0 0 1 .485.798v3.636h.212c.505 0 .91.404.91.91a.906.906 0 0 1-.91.908z"/>
</svg>