<svg xmlns="http://www.w3.org/2000/svg" width="26" height="26" fill="currentColor" class="sym sym-calendar-date-solid" viewBox="0 0 26 26">
  <path d="M8.714 3.864A.86.86 0 0 0 7.857 3 .86.86 0 0 0 7 3.864v.387a6.5 6.5 0 0 1 1.042-.232q.318-.046.672-.076zM19 4.251a6.5 6.5 0 0 0-1.042-.232 11 11 0 0 0-.672-.076v-.08A.86.86 0 0 1 18.143 3a.86.86 0 0 1 .857.864z"/>
  <path fill-rule="evenodd" d="M13.882 3.864h-1.764c-1.67 0-3.017 0-4.076.155-1.106.162-2.022.508-2.74 1.29-.711.774-1.017 1.744-1.161 2.915C4 9.364 4 10.819 4 12.65v.563c0 1.831 0 3.287.14 4.427.145 1.17.451 2.14 1.161 2.914.72.783 1.635 1.129 2.74 1.29 1.06.156 2.407.156 4.077.156h1.764c1.67 0 3.017 0 4.076-.155 1.106-.162 2.022-.508 2.74-1.291.711-.774 1.017-1.743 1.161-2.914C22 16.5 22 15.044 22 13.213v-.563c0-1.83 0-3.286-.14-4.426-.145-1.171-.451-2.14-1.161-2.914-.72-.783-1.635-1.13-2.74-1.291-1.06-.155-2.407-.155-4.077-.155M6.57 9.909c-.394 0-.59 0-.715.125-.125.124-.128.32-.133.71-.007.582-.008 1.233-.008 1.966v.444c0 1.904.002 3.251.128 4.273.124 1.002.355 1.558.718 1.954.354.386.838.624 1.728.755.922.135 2.144.137 3.898.137h1.628c1.754 0 2.976-.002 3.898-.137.89-.13 1.374-.37 1.728-.755.363-.396.594-.952.718-1.954.126-1.022.128-2.37.128-4.273v-.444c0-.733 0-1.384-.008-1.965-.005-.391-.008-.587-.133-.711-.125-.125-.322-.125-.715-.125z"/>
  <path fill-rule="evenodd" d="M8.5 13.364c0-.597.48-1.08 1.071-1.08h.008c.592 0 1.071.483 1.071 1.08 0 .596-.48 1.08-1.07 1.08h-.01a1.076 1.076 0 0 1-1.071-1.08m3.425 0c0-.597.48-1.08 1.071-1.08h.008c.591 0 1.071.483 1.071 1.08 0 .596-.48 1.08-1.071 1.08h-.008a1.076 1.076 0 0 1-1.071-1.08m3.424 0c0-.597.48-1.08 1.072-1.08h.008c.591 0 1.071.483 1.071 1.08 0 .596-.48 1.08-1.071 1.08h-.008a1.076 1.076 0 0 1-1.072-1.08M8.5 16.818c0-.596.48-1.08 1.071-1.08h.008c.592 0 1.071.484 1.071 1.08s-.48 1.08-1.07 1.08h-.01a1.075 1.075 0 0 1-1.071-1.08m3.425 0c0-.596.48-1.08 1.071-1.08h.008c.591 0 1.071.484 1.071 1.08s-.48 1.08-1.071 1.08h-.008a1.076 1.076 0 0 1-1.071-1.08"/>
</svg>