<svg xmlns="http://www.w3.org/2000/svg" width="26" height="26" fill="currentColor" class="sym sym-calendar-date" viewBox="0 0 26 26">
  <path fill-rule="evenodd" d="M7.777 3.5a.73.73 0 0 1 .73.73v.24c.977-.093 2.17-.093 3.607-.093h1.772c1.437 0 2.63 0 3.608.093v-.24a.73.73 0 1 1 1.46 0v.503c.687.205 1.273.533 1.763 1.067.692.754.996 1.702 1.141 2.877C22 9.825 22 11.295 22 13.162v.553c0 1.867 0 3.337-.142 4.485-.145 1.174-.449 2.123-1.14 2.877-.7.762-1.596 1.105-2.702 1.267-1.066.156-2.426.156-4.13.156h-1.772c-1.704 0-3.064 0-4.13-.156-1.106-.162-2.001-.505-2.701-1.267-.692-.754-.996-1.703-1.141-2.877C4 17.052 4 15.582 4 13.715v-.553c0-1.867 0-3.337.142-4.485.145-1.175.449-2.123 1.14-2.877.491-.534 1.077-.862 1.765-1.067v-.502a.73.73 0 0 1 .73-.731m-.675 2.764a2.1 2.1 0 0 0-.745.525c-.386.42-.624.997-.755 1.972h14.796c-.13-.975-.37-1.552-.755-1.972-.2-.218-.437-.39-.745-.525a.73.73 0 0 1-1.404-.28V5.94c-.908-.1-2.078-.1-3.667-.1h-1.654c-1.589 0-2.759 0-3.667.1v.046a.73.73 0 0 1-1.404.28m-1.611 3.959a85 85 0 0 0-.032 2.99v.45c0 1.93.002 3.31.131 4.358.128 1.033.369 1.633.767 2.066.39.425.917.676 1.838.81.948.14 2.201.142 3.978.142h1.654c1.777 0 3.03-.002 3.978-.141.92-.135 1.448-.386 1.838-.81.398-.434.64-1.034.767-2.067.13-1.048.13-2.428.13-4.357v-.45c0-1.19 0-2.169-.03-2.991zm3.297 3.654a.73.73 0 0 1 .73-.73h.008a.73.73 0 0 1 0 1.46h-.008a.73.73 0 0 1-.73-.73m3.478 0a.73.73 0 0 1 .73-.73h.008a.73.73 0 0 1 0 1.46h-.008a.73.73 0 0 1-.73-.73m3.479 0a.73.73 0 0 1 .73-.73h.007a.73.73 0 0 1 0 1.46h-.008a.73.73 0 0 1-.73-.73m-6.957 3.508a.73.73 0 0 1 .73-.731h.008a.73.73 0 0 1 0 1.461h-.008a.73.73 0 0 1-.73-.73m3.478 0a.73.73 0 0 1 .73-.731h.008a.73.73 0 0 1 0 1.461h-.008a.73.73 0 0 1-.73-.73"/>
</svg>