<svg xmlns="http://www.w3.org/2000/svg" width="26" height="26" fill="currentColor" class="sym sym-camera-lens-solid" viewBox="0 0 26 26">
  <path fill-rule="evenodd" d="M12.237 4.032a9.06 9.06 0 0 0-4.27 1.503L8 5.514a9.6 9.6 0 0 0-2.62 2.669c-.665 1.04-1.128 2.313-1.32 3.627-.081.552-.081 1.842 0 2.392.235 1.598.801 2.97 1.75 4.24.373.499 1.25 1.375 1.75 1.747 1.27.949 2.643 1.515 4.242 1.75.552.081 1.842.081 2.394 0 1.6-.235 2.972-.8 4.243-1.75.499-.371 1.376-1.248 1.748-1.747.95-1.27 1.516-2.642 1.751-4.24.081-.552.081-1.84 0-2.392-.235-1.599-.802-2.971-1.75-4.24-.33-.44-1.2-1.327-1.615-1.645-1.855-1.425-4.054-2.082-6.336-1.893m2.352 1.78c1.297.276 2.57.963 3.57 1.93l.283.273v.326a6.8 6.8 0 0 1-1.125 3.76c-.263.395-.244.395-.334-.028a4 4 0 0 0-.175-.569l.01.029a2.3 2.3 0 0 1-.145-.596v-.01c-.21-1.858-.999-3.566-2.242-4.855-.192-.2-.303-.337-.271-.337.029 0 .223.036.43.079zm-3.007.098a8 8 0 0 1 1.007.676 6.9 6.9 0 0 1 1.465 1.653l.017.029c.2.323.488.898.464.922-.008.01-.103-.015-.21-.052-.237-.084-.715-.192-.85-.192-.055 0-.284-.08-.509-.178a8.7 8.7 0 0 0-2.376-.645c-.18-.022-.63-.04-1-.04-.75.001-1.31.069-1.973.236-.082.025-.21.055-.338.082l-.04.007c.102-.127.198-.239.297-.347l-.003.005c.859-.965 2.049-1.72 3.336-2.114.45-.139.513-.142.713-.04zM10.4 9.75c.068.018.051.043-.186.266a5 5 0 0 0-.426.455l-.007.008q-.102.135-.216.245c-.272.17-.802.618-1.188 1.003-.802.803-1.307 1.537-1.751 2.541-.164.37-.408 1.072-.462 1.326l-.024.114-.064-.162c-.397-1.011-.542-2.43-.369-3.612.062-.422.202-1.014.26-1.107.05-.079.494-.334.932-.535.61-.28 1.41-.491 2.12-.56.32-.03 1.235-.017 1.381.019m9.682 1.208c.18.615.285 1.321.285 2.052q-.001.756-.143 1.47l.008-.048c-.13.659-.168.756-.325.864-.692.47-1.81.856-2.813.974-.46.053-1.368.051-1.512-.005-.045-.017-.004-.069.205-.267q.229-.216.426-.455l.007-.008c.095-.12.192-.23.216-.246.271-.169.802-.617 1.188-1.002a8.1 8.1 0 0 0 2.123-3.561l.12-.403.06.154a7 7 0 0 1 .155.481M9.016 13.94c.03.145.105.388.165.54.082.21.121.387.16.717.216 1.794 1.006 3.48 2.227 4.746.374.388.377.383-.182.257a7.5 7.5 0 0 1-3.553-1.935l.001.002-.287-.278.02-.55c.05-1.328.401-2.444 1.116-3.525.26-.396.242-.397.333.026m2.6 2.919c.17.071.755.21.887.21.06 0 .26.066.444.145a9.2 9.2 0 0 0 2.305.664c.504.076 1.694.076 2.223 0 .36-.053 1.088-.212 1.246-.272.09-.035-.153.254-.526.626a7.3 7.3 0 0 1-3.127 1.85l-.052.013-.393.113-.164-.084c-.946-.479-1.92-1.391-2.523-2.365-.265-.43-.52-.952-.462-.952.01 0 .074.023.141.052"/>
</svg>