<svg xmlns="http://www.w3.org/2000/svg" width="26" height="26" fill="currentColor" class="sym sym-camera-off-solid" viewBox="0 0 26 26">
  <path fill-rule="evenodd" d="M4.526 4.058C4.238 4.16 4 4.505 4 4.821c0 .065.024.191.053.28.05.15.674.783 8.337 8.454 6.096 6.102 8.322 8.31 8.428 8.362.54.263 1.182-.13 1.182-.726 0-.263-.091-.423-.45-.79l-.339-.35.116-.152c.252-.331.42-.67.566-1.147l.091-.294.01-4.453c.007-3.137 0-4.528-.026-4.707a3.24 3.24 0 0 0-1.251-2.154c-.632-.476-1.295-.685-2.172-.686-.692 0-.888-.128-1.105-.72-.16-.436-.35-.745-.633-1.021a2.4 2.4 0 0 0-1.271-.667l-.015-.003c-.356-.063-4.685-.063-5.042 0a2.52 2.52 0 0 0-1.643 1.098l-.006.01a3.6 3.6 0 0 0-.265.567c-.152.418-.294.591-.556.682-.352.12-.256.189-1.57-1.121-1.05-1.043-1.197-1.18-1.34-1.228a.83.83 0 0 0-.579.005zm9.132 5.329a3.69 3.69 0 0 1 2.622 1.965c.275.544.386 1.023.384 1.666-.002.45-.051.774-.175 1.143-.093.274-.333.777-.372.777-.032 0-5.048-5.019-5.048-5.05 0-.038.548-.303.796-.384.124-.04.33-.093.459-.116a5 5 0 0 1 1.335 0z"/>
  <path d="M4.348 8.294a3.1 3.1 0 0 0-.314 1.11c-.042.398-.043 7.561 0 8.365.049.966.164 1.396.52 1.935.472.719 1.199 1.217 1.999 1.371.5.096 1.454.113 6.333.115h4.81l-4.474-4.475-.348-.02a3.33 3.33 0 0 1-2.712-1.638l-.008-.016a3.2 3.2 0 0 1-.427-1.554v-.269l-5.23-5.231z"/>
</svg>