<svg xmlns="http://www.w3.org/2000/svg" width="26" height="26" fill="currentColor" class="sym sym-camera" viewBox="0 0 26 26">
  <path d="M8.61 21.9c-1.51 0-2.34 0-3.07-.37a3.4 3.4 0 0 1-1.5-1.5c-.37-.74-.37-1.57-.37-3.07v-6.59c0-.34 0-.51.02-.65a3.44 3.44 0 0 1 3.07-3.08c.14-.01.32-.02.68-.02h.18a.8.8 0 0 0 .68-.49l.05-.14c.05-.15.07-.22.1-.28.37-.92 1.25-1.55 2.24-1.61h4.61c.99.06 1.87.69 2.24 1.62.02.05.04.11.08.22.04.12.05.16.07.2.11.28.38.47.68.49h.18c.36 0 .54 0 .69.02 1.61.16 2.9 1.45 3.07 3.07.01.15.02.32.02.65v6.59c0 1.51 0 2.34-.37 3.07a3.4 3.4 0 0 1-1.5 1.5c-.74.37-1.57.37-3.07.37zM7.21 8.43h-.27c-.77.08-1.39.69-1.46 1.46v7.07c0 1.23 0 1.91.18 2.26.16.31.4.55.71.71.35.18 1.02.18 2.25.18h8.76c1.23 0 1.91 0 2.26-.18.31-.16.55-.4.71-.71.18-.35.18-1.02.18-2.25V9.9a1.63 1.63 0 0 0-1.46-1.45c-.11-.01-.24 0-.5 0h-.28c-.99-.06-1.87-.69-2.24-1.62-.02-.06-.05-.13-.09-.26l-.05-.15a.77.77 0 0 0-.68-.49h-4.41a.8.8 0 0 0-.68.49c-.02.04-.03.08-.05.15-.05.14-.07.2-.09.26-.37.92-1.25 1.56-2.24 1.62h-.51z"/>
  <path d="M12.99 18.11a4.28 4.28 0 0 1-4.27-4.27c0-2.35 1.91-4.27 4.27-4.27s4.27 1.91 4.27 4.27-1.92 4.27-4.27 4.27m0-6.74c-1.36 0-2.47 1.11-2.47 2.47s1.11 2.47 2.47 2.47 2.47-1.11 2.47-2.47-1.11-2.47-2.47-2.47"/>
</svg>