<svg xmlns="http://www.w3.org/2000/svg" width="26" height="26" fill="currentColor" class="sym sym-camera-lens" viewBox="0 0 26 26">
  <path d="M12.995 22a8.98 8.98 0 0 1-6.363-2.63c-3.51-3.51-3.51-9.227 0-12.737s9.226-3.51 12.735 0c3.51 3.51 3.51 9.226 0 12.737A8.93 8.93 0 0 1 13.006 22zm-5.27-4.117c.06.06.121.131.182.192a7.14 7.14 0 0 0 3.682 1.962 8.27 8.27 0 0 1-2.357-5.28 3.7 3.7 0 0 1-.313-.982c-.83 1.184-1.275 2.63-1.194 4.097zm3.915-.961a6.64 6.64 0 0 0 2.943 3.085 7.2 7.2 0 0 0 3.813-2.276 8.25 8.25 0 0 1-5.755-.597 4.3 4.3 0 0 1-1.001-.212m4.076-.79a6.5 6.5 0 0 0 4.137-1.011 7.23 7.23 0 0 0-.07-4.462 8.4 8.4 0 0 1-3.38 4.704 3.6 3.6 0 0 1-.475.567c-.07.07-.141.131-.212.192zm-2.731-5.453a2.32 2.32 0 0 0-1.639 3.966 2.32 2.32 0 0 0 3.54-.303 1 1 0 0 1 .132-.203 2.32 2.32 0 0 0 .07-2.124.8.8 0 0 1-.1-.202 2.6 2.6 0 0 0-.354-.466 2.35 2.35 0 0 0-1.477-.678h-.182zm-6.858.213a7.24 7.24 0 0 0 .06 4.441 8.24 8.24 0 0 1 3.389-4.684c.142-.202.293-.394.475-.566.071-.071.142-.132.213-.203a6.53 6.53 0 0 0-4.137 1.012m10.61.354c.152.314.253.647.314.981.83-1.183 1.275-2.63 1.194-4.097-.061-.06-.122-.131-.182-.192a7.14 7.14 0 0 0-3.713-1.973 8.43 8.43 0 0 1 2.388 5.281M13.34 8.879q.516.044 1.001.212a6.64 6.64 0 0 0-2.943-3.085 7.2 7.2 0 0 0-3.48 1.922 6 6 0 0 0-.344.374 8.34 8.34 0 0 1 5.776.577z"/>
</svg>