<svg xmlns="http://www.w3.org/2000/svg" width="26" height="26" fill="currentColor" class="sym sym-camera-plus-solid" viewBox="0 0 26 26">
  <path d="M18.758 4.05a.87.87 0 0 0-.458.38l-.002.004-.096.162-.021 1.973h-.927c-1.001 0-1.106.015-1.338.19q-.124.106-.208.243l-.002.005c-.082.138-.096.2-.096.419s.014.28.096.419c.052.088.147.2.21.248.231.175.337.19 1.34.19h.929V9.2c0 .527.015.973.036 1.046a.9.9 0 0 0 .422.501.85.85 0 0 0 1.01-.148c.242-.239.26-.336.26-1.396v-.92h.927c1.067 0 1.166-.018 1.407-.257a.837.837 0 0 0 0-1.202c-.24-.239-.34-.257-1.407-.257h-.927v-.92c0-1.059-.018-1.157-.259-1.396a.86.86 0 0 0-.902-.2z"/>
  <path fill-rule="evenodd" d="M7.038 4.889c-.924.043-1.438.187-1.992.554-.691.459-1.197 1.142-1.378 1.864-.147.588-.148.644-.163 5.565-.015 4.852.003 5.889.113 6.456.163.843.683 1.596 1.446 2.095.574.375 1.025.495 2.06.546.833.041 10.918.041 11.752 0 1.035-.051 1.486-.17 2.06-.546.744-.486 1.263-1.224 1.434-2.041.114-.537.138-1.6.127-5.458-.01-3.396-.014-3.643-.07-3.728-.088-.133-.168-.164-.488-.187l-.287-.02-.021.255c-.074.855-.627 1.661-1.408 2.054-.396.198-.663.256-1.174.256-.392 0-.508-.013-.726-.08-1.034-.32-1.768-1.198-1.855-2.22l-.02-.245-.247-.021c-1.023-.085-1.912-.813-2.232-1.824a2.8 2.8 0 0 1-.036-1.34l-.004.019c.145-.574.495-1.12.924-1.438a3 3 0 0 0 .248-.203c.064-.077.053-.2-.026-.279-.068-.067-.111-.068-3.793-.063-2.048.003-3.957.016-4.242.03zm6.612 5.164c1.318.27 2.29 1.16 2.69 2.466.089.286.096.352.096.909s-.007.622-.095.91c-.37 1.21-1.205 2.037-2.425 2.405-.288.088-.355.095-.916.095s-.627-.007-.916-.095c-.61-.184-1.062-.442-1.494-.856a3.35 3.35 0 0 1-1.047-2.433v-.027.002c0-1.65 1.14-3.025 2.8-3.377.313-.067.979-.067 1.306.002z"/>
</svg>