<svg xmlns="http://www.w3.org/2000/svg" width="26" height="26" fill="currentColor" class="sym sym-camera-solid" viewBox="0 0 26 26">
  <path fill-rule="evenodd" d="M10.322 4.05a2.57 2.57 0 0 0-1.327.683v-.001a2.7 2.7 0 0 0-.677 1.07c-.234.637-.436.77-1.173.77-.865 0-1.526.19-2.18.629-.45.3-.943.892-1.175 1.411a4 4 0 0 0-.174.496l-.01.036-.093.326-.01 4.407c-.008 2.997 0 4.55.026 4.853.067.779.2 1.208.539 1.722.252.383.606.735.992.985.528.341.959.471 1.767.534.34.026 2.323.034 6.502.026 6.643-.013 6.286 0 6.955-.23.85-.29 1.69-1.123 1.982-1.966.225-.649.217-.472.23-5.461.01-3.21.001-4.604-.026-4.793a3.4 3.4 0 0 0-1.32-2.256c-.668-.5-1.368-.718-2.294-.72-.73 0-.938-.133-1.168-.754-.167-.456-.37-.779-.668-1.068a2.5 2.5 0 0 0-1.342-.7l-.016-.002c-.364-.064-4.982-.062-5.34.002m3.627 6.516q.895.263 1.526.915c.523.523.872 1.218.951 1.993l.002.014c.114 1.03-.227 2.007-.97 2.767a3.36 3.36 0 0 1-2.421 1.024h-.038H13c-.923-.002-1.717-.317-2.372-.94-.8-.762-1.176-1.778-1.055-2.851.08-.789.43-1.484.953-2.007a3.5 3.5 0 0 1 1.852-.997l.022-.003a5 5 0 0 1 .714-.018h-.01c.459.01.58.024.844.103"/>
</svg>