<svg xmlns="http://www.w3.org/2000/svg" width="26" height="26" fill="currentColor" class="sym sym-camera-plus" viewBox="0 0 26 26">
  <path d="M15.582 22H9.408c-2.068 0-3.107 0-4.034-.465a4.34 4.34 0 0 1-1.905-1.89C3 18.725 3 17.695 3 15.643v-4.427c0-2.051 0-3.082.469-4.002a4.34 4.34 0 0 1 1.905-1.89c.927-.475 1.966-.475 4.034-.475h3.515a.91.91 0 1 1 0 1.82H9.408c-1.722 0-2.659 0-3.199.272a2.5 2.5 0 0 0-1.1 1.092c-.275.535-.275 1.475-.275 3.173v4.427c0 1.708 0 2.638.275 3.173.244.475.621.85 1.1 1.092.54.273 1.488.273 3.199.273h6.174c1.711 0 2.659 0 3.199-.273a2.5 2.5 0 0 0 1.1-1.092c.275-.535.275-1.475.275-3.173v-2.638a.91.91 0 0 1 .917-.91.91.91 0 0 1 .917.91v2.638c0 2.052 0 3.072-.469 4.002a4.34 4.34 0 0 1-1.905 1.89C18.69 22 17.65 22 15.582 22m-3.087-4.255c-2.394 0-4.35-1.93-4.35-4.315s1.946-4.316 4.35-4.316 4.35 1.93 4.35 4.316c0 2.385-1.956 4.315-4.35 4.315m0-6.812c-1.386 0-2.516 1.122-2.516 2.497s1.13 2.496 2.516 2.496c1.385 0 2.516-1.122 2.516-2.496 0-1.375-1.13-2.497-2.516-2.497m6.01 0a.91.91 0 0 1-.916-.91V8.377h-1.66a.91.91 0 1 1 0-1.819h1.66V4.91a.91.91 0 0 1 .917-.91.91.91 0 0 1 .916.91v1.647h1.661a.91.91 0 1 1 0 1.82h-1.66v1.647a.91.91 0 0 1-.917.91"/>
</svg>