<svg xmlns="http://www.w3.org/2000/svg" width="26" height="26" fill="currentColor" class="sym sym-camera-off" viewBox="0 0 26 26">
  <path d="M21.078 21.99a.94.94 0 0 1-.647-.263L19.3 20.595l-.06-.061-4.356-4.358-.12-.121-4.436-4.439-.112-.111-5.95-5.956a.908.908 0 0 1 1.283-1.284L7.71 6.43h.12a.72.72 0 0 0 .617-.445l.05-.141c.051-.142.071-.202.092-.253a2.54 2.54 0 0 1 2.192-1.587h4.436a2.54 2.54 0 0 1 2.192 1.577c.02.06.04.121.081.222l.06.172a.72.72 0 0 0 .617.445h.172c.343 0 .525 0 .657.02a3.33 3.33 0 0 1 2.98 2.993c.01.132.02.303.02.637v7.786c0 .788-.272 1.526-.747 2.113l.485.485a.91.91 0 0 1 0 1.284.9.9 0 0 1-.647.263zm-4.436-6.633 3.294 3.296c.152-.232.233-.515.233-.809v-8.24a1.53 1.53 0 0 0-1.354-1.365c-.101-.01-.233 0-.475 0h-.273a2.54 2.54 0 0 1-2.193-1.577c-.02-.05-.04-.122-.08-.243l-.06-.162a.73.73 0 0 0-.607-.434h-4.224a.72.72 0 0 0-.616.444l-.04.122c-.05.151-.071.212-.101.273a2.6 2.6 0 0 1-.99 1.193l1.899 1.9a4.1 4.1 0 0 1 1.96-.495 4.15 4.15 0 0 1 4.143 4.146c0 .687-.172 1.365-.495 1.961zm-4.213-4.216 2.82 2.82a2.325 2.325 0 0 0-2.819-2.821m3.395 10.04H8.792c-1.455 0-2.253 0-2.97-.364a3.37 3.37 0 0 1-1.456-1.456c-.363-.718-.363-1.517-.363-2.973V9.351c0-.505.404-.91.909-.91s.91.405.91.91v7.037c0 1.173 0 1.82.16 2.144.152.283.375.516.658.657.323.162.97.162 2.142.162h7.032c.505 0 .91.404.91.91s-.405.91-.91.91zm-2.83-3.64a4.15 4.15 0 0 1-4.142-4.145c0-.506.405-.91.91-.91s.91.404.91.91a2.325 2.325 0 0 0 2.323 2.325c.505 0 .91.404.91.91s-.405.91-.91.91"/>
</svg>