<svg xmlns="http://www.w3.org/2000/svg" width="26" height="26" fill="currentColor" class="sym sym-certificate-solid" viewBox="0 0 26 26">
  <path fill-rule="evenodd" d="M6.94 4.05c-.888.182-1.585.882-1.868 1.88L5 6.18v13.658l.074.262c.25.882.838 1.538 1.625 1.811l.257.089h12.088l.257-.089c.788-.273 1.374-.928 1.627-1.817L21 19.84v-6.83c0-6.529-.002-6.838-.06-7.042-.285-1.031-.988-1.74-1.905-1.918-.337-.067-11.772-.064-12.095.001m5.296 3.718c.231.073.47.215.643.385l.118.116.157-.144a1.54 1.54 0 0 1 1.06-.422h.025c.602 0 1.143.361 1.42.95.113.24.115.254.115.638s-.002.399-.116.641a2.7 2.7 0 0 1-.31.48c-.347.41-1.774 1.728-2 1.846-.258.135-.537.112-.789-.06-.425-.293-1.908-1.733-2.102-2.04-.19-.301-.254-.551-.24-.933.01-.297.022-.351.13-.584.195-.42.57-.754 1.002-.894.203-.065.65-.056.887.02m5.045 6.933c.296.103.529.44.529.765a.87.87 0 0 1-.24.574c-.256.262.066.245-4.57.245s-4.313.017-4.57-.245a.8.8 0 0 1-.235-.574.8.8 0 0 1 .236-.575c.25-.255-.074-.238 4.556-.241 3.772-.003 4.152.001 4.294.05m-1.576 2.873a.97.97 0 0 1 .414.394c.097.187.097.54 0 .726-.088.17-.286.354-.446.41-.1.038-.596.046-2.673.046-2.808 0-2.692.008-2.924-.207-.194-.179-.265-.341-.265-.612s.072-.437.26-.606c.228-.204.077-.194 2.922-.196 2.14-.002 2.625.007 2.711.044z"/>
</svg>