<svg xmlns="http://www.w3.org/2000/svg" width="26" height="26" fill="currentColor" class="sym sym-certificate" viewBox="0 0 26 26">
  <path d="M18.53 22H7.47C6.105 22 5 20.787 5 19.29V6.71C5 5.213 6.106 4 7.47 4h11.06C19.895 4 21 5.213 21 6.71v12.58c0 1.497-1.106 2.71-2.47 2.71M7.47 5.82c-.376 0-.692.405-.692.89v12.58c0 .485.316.89.691.89h11.062c.375 0 .691-.405.691-.89V6.71c0-.485-.316-.89-.691-.89zm7.9 13.349h-4.74a.896.896 0 0 1-.89-.91c0-.506.396-.91.89-.91h4.74c.494 0 .89.404.89.91 0 .505-.396.91-.89.91m1.58-2.832h-7.9a.896.896 0 0 1-.89-.91c0-.506.396-.91.89-.91h7.9c.495 0 .89.404.89.91s-.395.91-.89.91M13 13.506a.9.9 0 0 1-.573-.213c-.197-.172-1.955-1.668-2.528-2.396a2.47 2.47 0 0 1-.534-1.83c.07-.658.396-1.245.91-1.68.8-.667 1.866-.727 2.735-.222a2.4 2.4 0 0 1 2.716.213 2.54 2.54 0 0 1 .928 1.678 2.47 2.47 0 0 1-.543 1.83c-.583.729-2.34 2.235-2.538 2.397a.88.88 0 0 1-.573.213zm-1.215-4.854a.6.6 0 0 0-.395.151.7.7 0 0 0-.267.466.6.6 0 0 0 .149.475c.276.344 1.056 1.072 1.728 1.658.672-.586 1.452-1.314 1.728-1.658a.64.64 0 0 0 .149-.486.7.7 0 0 0-.257-.455c-.346-.273-.731-.141-.958.122a.874.874 0 0 1-1.324 0 .74.74 0 0 0-.553-.273"/>
</svg>