<svg xmlns="http://www.w3.org/2000/svg" width="26" height="26" fill="currentColor" class="sym sym-check-square-empty-solid" viewBox="0 0 26 26">
  <path fill-rule="evenodd" d="M6.844 3.037c-.876.06-1.507.262-2.13.682-.542.366-1.14 1.094-1.378 1.68-.14.348-.245.829-.293 1.357-.057.63-.057 11.858 0 12.487.079.86.24 1.365.62 1.95.292.447.703.858 1.15 1.15.612.398 1.11.55 2.047.623.39.031 2.409.04 6.53.03 6.581-.015 6.292-.005 7.057-.268.984-.338 1.957-1.31 2.296-2.294.267-.779.257-.459.257-7.435s.011-6.656-.258-7.435c-.225-.658-.842-1.448-1.436-1.848-.65-.435-1.237-.616-2.221-.683-.676-.046-11.56-.043-12.24.003zm12.633 2.034c.132.026.339.096.46.156.283.139.71.566.85.85.213.434.21.339.21 6.923 0 6.587.003 6.493-.21 6.922a2.24 2.24 0 0 1-.74.794c-.47.283-.105.27-7.036.27-6.932 0-6.567.014-7.038-.27a2.25 2.25 0 0 1-.733-.783l-.006-.01c-.213-.43-.21-.336-.21-6.923s-.003-6.494.21-6.92c.216-.432.708-.852 1.123-.964a5 5 0 0 1 .561-.078c.636-.054 12.274-.024 12.559.033"/>
</svg>