<svg xmlns="http://www.w3.org/2000/svg" width="26" height="26" fill="currentColor" class="sym sym-check-square-empty" viewBox="0 0 26 26">
  <path d="M17.342 23.1H8.857c-1.838 0-2.767 0-3.606-.424a3.92 3.92 0 0 1-1.717-1.717C3.1 20.12 3.1 19.19 3.1 17.353V8.858c0-1.839 0-2.768.434-3.606A3.9 3.9 0 0 1 5.25 3.534C6.1 3.1 7.02 3.1 8.857 3.1h8.485c1.838 0 2.768 0 3.606.424a3.92 3.92 0 0 1 1.717 1.718c.435.838.435 1.767.435 3.606v8.484c0 1.839 0 2.768-.435 3.607a3.92 3.92 0 0 1-1.717 1.717c-.848.434-1.768.434-3.606.434zM8.857 4.918c-1.505 0-2.323 0-2.778.233a2.1 2.1 0 0 0-.929.929c-.232.454-.232 1.283-.232 2.778v8.485c0 1.505 0 2.323.232 2.777.202.404.525.728.93.93.454.232 1.282.232 2.777.232h8.485c1.505 0 2.323 0 2.778-.232a2.12 2.12 0 0 0 .93-.93c.232-.454.231-1.283.231-2.777V8.858c0-1.505 0-2.324-.232-2.778a2.07 2.07 0 0 0-.93-.93c-.454-.232-1.282-.232-2.777-.232z"/>
</svg>