<svg xmlns="http://www.w3.org/2000/svg" width="26" height="26" fill="currentColor" class="sym sym-check-verified-02" viewBox="0 0 26 26">
  <path d="M9.652 24.075c-.382 0-.765-.07-1.128-.222a3 3 0 0 1-1.602-1.593l-.725-1.764a1.15 1.15 0 0 0-.615-.615l-1.753-.726a2.97 2.97 0 0 1-1.602-1.603 2.93 2.93 0 0 1 0-2.259l.725-1.754c.11-.272.11-.605 0-.887l-.725-1.755a2.9 2.9 0 0 1-.222-1.13c0-.382.07-.775.222-1.128.171-.383.383-.696.655-.968.252-.262.584-.484.967-.646L5.602 6.3a1.12 1.12 0 0 0 .625-.626l.725-1.754c.313-.736.877-1.3 1.602-1.603a2.95 2.95 0 0 1 2.267 0l1.753.726c.283.11.595.11.877 0l1.753-.726a2.95 2.95 0 0 1 2.267 0c.726.302 1.29.867 1.602 1.593l.715 1.724.02.04c.122.283.343.505.615.626l1.764.725c.715.303 1.3.888 1.591 1.593a3.02 3.02 0 0 1 0 2.259l-.735 1.774a1.2 1.2 0 0 0 0 .878l.725 1.754c.151.333.232.716.232 1.13s-.08.796-.242 1.159a2.94 2.94 0 0 1-1.582 1.583l-1.753.726a1.12 1.12 0 0 0-.624.625l-.726 1.754a3.06 3.06 0 0 1-1.592 1.603 2.95 2.95 0 0 1-2.267 0l-1.753-.726a1.15 1.15 0 0 0-.877 0l-1.753.726a2.9 2.9 0 0 1-1.128.222zm0-20.165c-.15 0-.302.03-.443.09a1.1 1.1 0 0 0-.614.626L7.869 6.38a2.97 2.97 0 0 1-1.602 1.603l-1.753.726c-.141.06-.272.141-.353.232-.12.121-.211.252-.282.403a1.26 1.26 0 0 0 .01.857l.736 1.755a3.02 3.02 0 0 1 0 2.258l-.726 1.765c-.12.282-.12.595 0 .867.111.282.343.504.615.625l1.753.726c.725.302 1.29.867 1.592 1.593l.725 1.764c.121.283.333.505.615.615.282.121.595.121.887 0l1.753-.726a2.95 2.95 0 0 1 2.267 0l1.753.726a1.133 1.133 0 0 0 1.491-.625l.726-1.754a2.97 2.97 0 0 1 1.602-1.603l1.753-.726c.14-.06.272-.141.352-.232.121-.121.202-.242.252-.373.07-.151.091-.293.091-.444s-.03-.292-.08-.413l-.736-1.785a3.02 3.02 0 0 1 0-2.258l.735-1.775a1.2 1.2 0 0 0 0-.877 1.22 1.22 0 0 0-.614-.615l-1.753-.726a2.94 2.94 0 0 1-1.572-1.542c0-.02-.02-.04-.03-.061l-.726-1.764a1.12 1.12 0 0 0-.614-.615 1.1 1.1 0 0 0-.877 0l-1.753.725a2.95 2.95 0 0 1-2.267 0l-1.753-.725a1.1 1.1 0 0 0-.444-.091zm2.318 12.099a.94.94 0 0 1-.645-.262L9.31 13.73a.906.906 0 0 1 1.28-1.28l1.37 1.371 3.889-3.892a.906.906 0 0 1 1.28 1.28l-4.535 4.538a.9.9 0 0 1-.644.262z"/>
</svg>