<svg xmlns="http://www.w3.org/2000/svg" width="26" height="26" fill="currentColor" class="sym sym-check-circle-broken" viewBox="0 0 26 26">
  <path d="M13.002 23.99c-1.301 0-2.593-.222-3.813-.676a11.07 11.07 0 0 1-5.419-4.331 11.04 11.04 0 0 1-1.745-6.714 11.14 11.14 0 0 1 2.613-6.42 11.06 11.06 0 0 1 5.933-3.585c2.3-.515 4.752-.272 6.901.687a.915.915 0 0 1 .464 1.201.914.914 0 0 1-1.2.464 9.26 9.26 0 0 0-5.762-.565A9.22 9.22 0 0 0 6.02 7.04a9.23 9.23 0 0 0-2.179 5.36 9.24 9.24 0 0 0 1.463 5.603 9.22 9.22 0 0 0 4.52 3.614 9.3 9.3 0 0 0 5.781.192 9.25 9.25 0 0 0 4.753-3.311 9.2 9.2 0 0 0 1.826-5.492v-.929c0-.505.403-.909.908-.909s.908.404.908.91v.928c0 2.362-.777 4.694-2.19 6.582a11.13 11.13 0 0 1-5.69 3.968 10.8 10.8 0 0 1-3.108.444zm0-8.066a.9.9 0 0 1-.645-.263L9.33 12.632a.907.907 0 0 1 1.281-1.282l2.381 2.383 9.444-9.46a.907.907 0 0 1 1.282 1.282l-10.09 10.106a.9.9 0 0 1-.646.263z"/>
</svg>