<svg xmlns="http://www.w3.org/2000/svg" width="26" height="26" fill="currentColor" class="sym sym-check-circle" viewBox="0 0 26 26">
  <path d="M13 23C7.486 23 3 18.514 3 13S7.486 3 13 3s10 4.486 10 10-4.486 10-10 10m0-18.349c-4.605 0-8.349 3.744-8.349 8.349S8.395 21.349 13 21.349s8.349-3.744 8.349-8.349S17.605 4.651 13 4.651m-1.376 11.927a.86.86 0 0 1-.587-.239l-2.753-2.752a.825.825 0 0 1 1.166-1.165l2.165 2.165 4.917-4.917a.825.825 0 0 1 1.165 1.165l-5.504 5.504a.82.82 0 0 1-.588.239z"/>
</svg>