<svg xmlns="http://www.w3.org/2000/svg" width="26" height="26" fill="currentColor" class="sym sym-check-square-solid" viewBox="0 0 26 26">
  <path fill-rule="evenodd" d="M5.901 3.01c-.895.076-1.483.327-2.015.859-.49.491-.758 1.065-.841 1.808-.06.538-.06 14.091 0 14.628.058.523.197.942.431 1.297.527.803 1.252 1.245 2.217 1.353.537.06 14.077.06 14.614 0 .965-.108 1.69-.55 2.217-1.353.234-.355.372-.774.431-1.297.06-.537.06-14.09 0-14.628-.058-.522-.197-.941-.431-1.296q-.68-1.036-1.865-1.307c-.25-.057-1.04-.066-7.439-.07a1017 1017 0 0 0-7.565.008h.248zm12.044 6.091c.186.096.399.324.477.514.073.174.07.581-.006.765-.043.104-1.002 1.092-3.19 3.285-3.372 3.383-3.31 3.327-3.727 3.327-.396 0-.467-.057-2.227-1.826-1.103-1.108-1.648-1.683-1.69-1.784-.077-.184-.08-.591-.007-.766.079-.189.291-.417.48-.517.23-.12.66-.12.885 0 .087.047.69.618 1.34 1.27.649.65 1.197 1.183 1.22 1.183.02 0 1.245-1.208 2.718-2.685 1.474-1.476 2.734-2.712 2.8-2.748.066-.035.165-.078.22-.096.158-.051.53-.01.707.078"/>
</svg>