<svg xmlns="http://www.w3.org/2000/svg" width="26" height="26" fill="currentColor" class="sym sym-check-square-broken-solid" viewBox="0 0 26 26">
  <path d="M5.547 3.01c-.94.076-1.558.327-2.116.859-.516.491-.796 1.065-.884 1.808-.063.538-.063 14.091 0 14.628.06.523.207.942.453 1.297.553.803 1.315 1.245 2.328 1.353.564.06 14.784.06 15.347 0 1.014-.108 1.775-.55 2.328-1.353.255-.37.397-.79.457-1.353.072-.676.039-12.77-.035-12.894-.07-.116-.292-.248-.42-.248a.7.7 0 0 0-.234.066l.004-.002c-.073.036-2.175 2.005-4.67 4.378-4.158 3.955-4.552 4.32-4.743 4.38a1.08 1.08 0 0 1-.727-.002l.008.001c-.185-.059-.388-.237-1.92-1.691-1.202-1.142-1.74-1.678-1.803-1.802a.94.94 0 0 1-.11-.444c0-.274.117-.522.306-.701.293-.28.689-.364 1.097-.235.183.057.36.21 1.5 1.29l1.29 1.224 4.62-4.402c3.746-3.57 4.633-4.434 4.688-4.572.1-.251.06-.668-.088-.908-.17-.277-.555-.478-1.179-.613-.262-.057-1.093-.066-7.812-.07a1121 1121 0 0 0-7.944.008h.26z"/>
</svg>