<svg xmlns="http://www.w3.org/2000/svg" width="26" height="26" fill="currentColor" class="sym sym-check-verified-solid" viewBox="0 0 26 26">
  <path fill-rule="evenodd" d="M12.24 2.06a4.9 4.9 0 0 0-1.411.458c-.379.189-.569.314-.989.646-.507.402-.95.575-1.708.67-1.24.155-2.18.618-3.006 1.484-.756.792-1.163 1.685-1.319 2.889-.093.716-.247 1.103-.643 1.613-.603.777-.912 1.406-1.087 2.217-.102.472-.103 1.448 0 1.921.158.737.452 1.365.954 2.034.177.235.366.504.42.598.168.284.292.701.356 1.199.087.67.226 1.164.476 1.674.265.544.61 1.008 1.025 1.397l.002.003c.793.754 1.688 1.16 2.893 1.316.718.093 1.108.248 1.616.645.13.1.37.273.535.383A4.77 4.77 0 0 0 13 24c.985 0 1.902-.296 2.663-.804l-.017.011c.165-.11.406-.282.536-.383.508-.397.897-.552 1.616-.645 1.205-.155 2.1-.562 2.892-1.316a4.7 4.7 0 0 0 1.015-1.373l.013-.027c.249-.51.39-1.004.475-1.674.064-.498.189-.915.355-1.2a9 9 0 0 1 .421-.597c.502-.67.796-1.298.955-2.034.101-.471.101-1.45 0-1.92-.159-.737-.453-1.365-.955-2.034a9 9 0 0 1-.398-.562l-.023-.037c-.167-.284-.291-.702-.355-1.199-.155-1.203-.563-2.097-1.318-2.888-.828-.867-1.767-1.33-3.007-1.485-.759-.095-1.2-.268-1.708-.67-.42-.332-.61-.457-.989-.646A4.8 4.8 0 0 0 12.991 2a5 5 0 0 0-.781.062l.028-.003zm4.792 7.598q.424.259.451.785c.028.49.093.412-2.567 3.06-2.24 2.23-2.388 2.372-2.59 2.436a1 1 0 0 1-.778-.056l.005.003c-.12-.058-.53-.441-1.303-1.217-.987-.992-1.134-1.155-1.19-1.328-.13-.39-.047-.767.233-1.045.28-.279.657-.363 1.045-.233.168.056.31.177.93.79l.733.722 1.952-1.948c1.454-1.45 1.999-1.968 2.133-2.03.274-.127.685-.1.945.06z"/>
</svg>