<svg xmlns="http://www.w3.org/2000/svg" width="26" height="26" fill="currentColor" class="sym sym-check-square" viewBox="0 0 26 26">
  <path d="M17.242 23H8.758c-1.839 0-2.768 0-3.606-.424a3.92 3.92 0 0 1-1.718-1.717C3 20.02 3 19.09 3 17.252V8.759c0-1.839 0-2.768.434-3.606a3.9 3.9 0 0 1 1.718-1.718C6 3 6.919 3 8.758 3h8.484c1.839 0 2.768 0 3.607.424a3.92 3.92 0 0 1 1.717 1.717C23 5.98 23 6.91 23 8.747v8.485c0 1.839 0 2.768-.434 3.606a3.92 3.92 0 0 1-1.717 1.718c-.849.434-1.768.434-3.607.434zM8.758 4.818c-1.505 0-2.324 0-2.778.233a2.1 2.1 0 0 0-.93.929c-.232.454-.232 1.283-.232 2.778v8.484c0 1.505 0 2.324.233 2.778.202.404.525.727.929.93.454.232 1.283.232 2.778.232h8.484c1.505 0 2.324 0 2.778-.232a2.12 2.12 0 0 0 .93-.93c.232-.454.232-1.283.232-2.778V8.758c0-1.505 0-2.324-.232-2.778a2.07 2.07 0 0 0-.93-.93c-.454-.232-1.283-.232-2.778-.232zm2.727 12.121a.94.94 0 0 1-.647-.262l-3.03-3.03a.91.91 0 0 1 0-1.283.91.91 0 0 1 1.283 0l2.384 2.383 5.414-5.414a.908.908 0 0 1 1.283 1.283l-6.06 6.06a.9.9 0 0 1-.647.263z"/>
</svg>