<svg xmlns="http://www.w3.org/2000/svg" width="26" height="26" fill="currentColor" class="sym sym-check-list" viewBox="0 0 26 26">
  <path d="M22.161 7.66a.83.83 0 0 0 .592-.253.88.88 0 0 0 .002-1.218.83.83 0 0 0-.594-.252H9.986a.83.83 0 0 0-.593.253.88.88 0 0 0-.002 1.22.84.84 0 0 0 .594.25zM9.985 12.828a.83.83 0 0 0-.592.253.88.88 0 0 0-.001 1.219.84.84 0 0 0 .593.251H22.16a.83.83 0 0 0 .593-.252.88.88 0 0 0 .002-1.22.84.84 0 0 0-.594-.25H9.986m12.176 6.892c.222 0 .435.091.592.253a.877.877 0 0 1 .002 1.219.83.83 0 0 1-.594.251H9.986a.83.83 0 0 1-.593-.251.877.877 0 0 1-.002-1.22.84.84 0 0 1 .594-.252zM7.768 4.12a.62.62 0 0 0-.466-.111.6.6 0 0 0-.407.26L4.963 7.044l-.896-.92a.617.617 0 0 0-.885.002.653.653 0 0 0 .002.91l1.023 1.048c.112.115.248.204.398.26a1.07 1.07 0 0 0 .919-.076 1.1 1.1 0 0 0 .351-.324l2.038-2.928a.657.657 0 0 0-.144-.896zm.145 7.85-2.038 2.926c-.14.2-.34.347-.57.42a1.07 1.07 0 0 1-1.097-.279l-1.024-1.049a.653.653 0 0 1 .006-.901.616.616 0 0 1 .877-.01l.896.919 1.932-2.776a.61.61 0 0 1 .872-.148.66.66 0 0 1 .144.898zm-.145 5.737a.62.62 0 0 0-.466-.112.6.6 0 0 0-.407.26l-1.932 2.777-.896-.92a.62.62 0 0 0-.443-.188.62.62 0 0 0-.442.19.653.653 0 0 0 .002.909l1.023 1.048a1.07 1.07 0 0 0 1.316.183c.138-.08.258-.19.351-.323l2.038-2.928a.657.657 0 0 0-.144-.896"/>
</svg>