<svg xmlns="http://www.w3.org/2000/svg" width="26" height="26" fill="currentColor" class="sym sym-check-verified" viewBox="0 0 26 26">
  <path d="M13 24.104a4.8 4.8 0 0 1-3.093-1.141 2.95 2.95 0 0 0-1.683-.697 4.76 4.76 0 0 1-4.373-4.38 2.96 2.96 0 0 0-.695-1.687 4.73 4.73 0 0 1 0-6.198c.393-.465.635-1.05.695-1.686a4.74 4.74 0 0 1 4.363-4.371 2.95 2.95 0 0 0 1.683-.697 4.77 4.77 0 0 1 6.196 0 2.95 2.95 0 0 0 1.683.697 4.76 4.76 0 0 1 4.373 4.38 2.96 2.96 0 0 0 .695 1.687 4.73 4.73 0 0 1 0 6.198 3.04 3.04 0 0 0-.695 1.686 4.74 4.74 0 0 1-4.363 4.371 2.95 2.95 0 0 0-1.683.697A4.76 4.76 0 0 1 13 24.103M8.365 5.74a2.94 2.94 0 0 0-2.7 2.715 4.8 4.8 0 0 1-1.118 2.716 2.92 2.92 0 0 0 0 3.836 4.8 4.8 0 0 1 1.118 2.716 2.95 2.95 0 0 0 2.7 2.725 4.7 4.7 0 0 1 2.71 1.131 2.97 2.97 0 0 0 3.84 0 4.7 4.7 0 0 1 2.71-1.12 2.94 2.94 0 0 0 2.7-2.716 4.8 4.8 0 0 1 1.118-2.716 2.92 2.92 0 0 0 0-3.836 4.8 4.8 0 0 1-1.118-2.716c-.121-1.463-1.25-2.604-2.7-2.725a4.7 4.7 0 0 1-2.71-1.131 2.97 2.97 0 0 0-3.84 0 4.7 4.7 0 0 1-2.71 1.12m3.627 10.276a.94.94 0 0 1-.644-.262l-2.016-2.019a.905.905 0 1 1 1.28-1.282l1.37 1.373 3.89-3.897a.905.905 0 1 1 1.28 1.282l-4.535 4.543a.9.9 0 0 1-.645.262z"/>
</svg>