<svg xmlns="http://www.w3.org/2000/svg" width="26" height="26" fill="currentColor" class="sym sym-check-square-broken" viewBox="0 0 26 26">
  <path d="M16.247 23H7.76c-1.84 0-2.769 0-3.608-.435a3.9 3.9 0 0 1-1.728-1.728C2 20.01 2 19.08 2 17.24V8.75c0-1.839 0-2.769.434-3.607a3.92 3.92 0 0 1 1.718-1.719C4.991 3 5.921 3 7.76 3h8.286c.505 0 .909.404.909.91 0 .505-.404.91-.91.91H7.76c-1.506 0-2.324 0-2.78.232a2.03 2.03 0 0 0-.919.92c-.242.464-.242 1.293-.242 2.788v8.49c0 1.495 0 2.324.232 2.779.202.404.526.727.93.93.455.232 1.283.232 2.779.232h8.487c1.506 0 2.325 0 2.78-.232.403-.203.727-.526.919-.92.242-.465.242-1.294.242-2.79v-4.244c0-.505.405-.91.91-.91s.91.405.91.91v4.245c0 1.839 0 2.769-.435 3.608a3.92 3.92 0 0 1-1.718 1.718c-.839.424-1.768.424-3.608.424m-4.243-7.074a.95.95 0 0 1-.647-.263l-3.031-3.032a.908.908 0 0 1 1.283-1.283l2.384 2.385 9.458-9.46a.909.909 0 0 1 1.284 1.284L12.63 15.663a.9.9 0 0 1-.647.263z"/>
</svg>