<svg xmlns="http://www.w3.org/2000/svg" width="26" height="26" fill="currentColor" class="sym sym-check-circle-broken-solid" viewBox="0 0 26 26">
  <path d="M12.067 2.04c-2.197.195-4.208 1-5.978 2.392-.462.363-1.498 1.432-1.874 1.932-1.158 1.545-1.855 3.23-2.141 5.183-.099.672-.099 2.25 0 2.922.286 1.951.982 3.635 2.14 5.183.456.607 1.529 1.68 2.137 2.135 1.55 1.158 3.234 1.853 5.186 2.14.673.098 2.252.098 2.925 0 1.952-.287 3.637-.982 5.186-2.14.607-.456 1.68-1.527 2.137-2.135 1.158-1.548 1.853-3.229 2.14-5.183.108-.737.097-2.29-.02-3.057-.186-1.196-.719-2.854-1.064-3.306-.229-.3-.8-.421-1.167-.247-.108.052-1.446 1.36-4.126 4.032-3.078 3.07-4.007 3.975-4.147 4.037-.11.05-.267.08-.4.082-.421 0-.472-.042-2.23-1.807-.886-.889-1.641-1.678-1.683-1.756-.1-.193-.1-.645.003-.854.096-.196.268-.367.478-.476.234-.121.622-.118.867.005.118.061.594.504 1.373 1.279l1.192 1.185 3.727-3.723c2.876-2.874 3.748-3.768 3.825-3.921a.97.97 0 0 0-.097-1.019l.002.003c-.145-.193-.825-.726-1.444-1.135a12 12 0 0 0-2.058-1.063l-.083-.03c-1.514-.559-3.253-.797-4.806-.66z"/>
</svg>