<svg xmlns="http://www.w3.org/2000/svg" width="26" height="26" fill="currentColor" class="sym sym-check-circle-solid" viewBox="0 0 26 26">
  <path fill-rule="evenodd" d="M12.154 3.022c-2.047.2-3.827.912-5.436 2.179-.42.33-1.362 1.302-1.704 1.758-1.053 1.405-1.687 2.938-1.947 4.714-.09.611-.09 2.046 0 2.658.26 1.774.893 3.306 1.947 4.714.414.552 1.39 1.528 1.943 1.942 1.408 1.053 2.94 1.685 4.715 1.946.612.09 2.048.09 2.66 0 1.775-.26 3.307-.893 4.715-1.946.552-.414 1.528-1.39 1.943-1.942 1.053-1.408 1.686-2.94 1.947-4.714.047-.324.063-.667.063-1.33 0-.662-.016-1.004-.064-1.328-.26-1.776-.894-3.31-1.947-4.714-.341-.456-1.283-1.428-1.703-1.758-1.455-1.144-3.052-1.84-4.845-2.105-.577-.085-1.77-.124-2.288-.074m5.353 6.44c.17.087.364.295.435.467.067.16.064.53-.006.697-.039.095-.912.993-2.905 2.989-3.072 3.078-3.017 3.027-3.396 3.027-.361 0-.425-.052-2.029-1.662-1.005-1.007-1.501-1.531-1.54-1.623-.07-.167-.073-.537-.006-.697.072-.172.265-.38.438-.47.209-.11.601-.11.805 0 .08.043.63.563 1.22 1.155.592.592 1.092 1.077 1.112 1.077s1.135-1.1 2.477-2.443c1.343-1.343 2.49-2.468 2.55-2.5s.15-.071.2-.088c.146-.047.485-.01.645.071"/>
</svg>