<svg xmlns="http://www.w3.org/2000/svg" width="26" height="26" fill="currentColor" class="sym sym-check-verified-02-solid" viewBox="0 0 26 26">
  <path fill-rule="evenodd" d="M9.218 2.024c-.857.155-1.58.64-2.045 1.316l-.007.01c-.11.166-.352.684-.616 1.318-.426 1.024-.553 1.263-.745 1.388-.187.097-.44.212-.698.318l-.07.026c-1.31.544-1.438.603-1.703.78-.568.377-1.024.999-1.24 1.697-.078.249-.094.388-.094.821 0 .637.021.712.585 2.064.544 1.307.544 1.175 0 2.483C2.021 15.598 2 15.672 2 16.309c0 .601.073.903.35 1.435.195.38.64.868 1.005 1.105.14.092.714.357 1.274.588.559.232 1.084.466 1.167.52.222.146.307.302.768 1.41.256.62.49 1.12.603 1.29a3.22 3.22 0 0 0 1.683 1.244l.022.006c.25.078.388.093.822.093.64 0 .68-.012 2.024-.569 1.358-.562 1.205-.562 2.565 0 1.28.531 1.408.567 2.024.568.57 0 .936-.088 1.431-.345a3.35 3.35 0 0 0 1.082-.977l.006-.011c.175-.264.235-.393.78-1.702.282-.677.41-.897.592-1.015.054-.037.568-.261 1.141-.5.637-.264 1.15-.503 1.319-.615a3.2 3.2 0 0 0 1.249-1.703c.078-.25.093-.388.093-.822 0-.64-.012-.68-.569-2.024-.564-1.358-.564-1.206 0-2.564.557-1.343.568-1.383.569-2.023 0-.434-.015-.571-.093-.822a3.2 3.2 0 0 0-.697-1.224l.002.002c-.46-.492-.572-.553-2.51-1.363-.484-.202-.636-.304-.766-.516a21 21 0 0 1-.5-1.141c-.255-.616-.49-1.115-.602-1.285a3.2 3.2 0 0 0-1.702-1.245l-.022-.006c-.415-.118-1.147-.126-1.543-.018-.144.039-.72.262-1.283.496-1.358.565-1.206.565-2.565 0-.561-.234-1.13-.454-1.262-.49-.289-.077-.967-.113-1.236-.063zm7.811 7.635c.284.174.432.432.452.785.027.49.092.413-2.567 3.064-2.24 2.233-2.388 2.374-2.591 2.439a1 1 0 0 1-.778-.056l.005.002c-.12-.057-.53-.441-1.302-1.218-.988-.994-1.135-1.157-1.192-1.33-.13-.39-.045-.768.234-1.046.28-.279.657-.363 1.046-.233.167.056.31.177.93.79l.732.723 1.953-1.95c1.453-1.45 1.998-1.97 2.133-2.032.274-.127.684-.1.945.06z"/>
</svg>