<svg xmlns="http://www.w3.org/2000/svg" width="26" height="26" fill="currentColor" class="sym sym-chevron-up-solid" viewBox="0 0 26 26">
  <path d="M12.639 9.062c-.156.054-.603.484-3.314 3.192-2.26 2.257-3.158 3.179-3.22 3.306a.985.985 0 0 0 .185 1.146c.28.28.656.364 1.048.235.179-.06.445-.312 2.93-2.793L13 11.418l2.733 2.73c2.484 2.48 2.75 2.734 2.93 2.793.39.13.767.044 1.046-.235a.98.98 0 0 0 .182-1.151l.002.005c-.06-.127-.959-1.049-3.219-3.306-2.857-2.854-3.15-3.135-3.331-3.195a1.04 1.04 0 0 0-.71.005z"/>
</svg>