<svg xmlns="http://www.w3.org/2000/svg" width="26" height="26" fill="currentColor" class="sym sym-chevron-down-double-solid" viewBox="0 0 26 26">
  <path d="M7.333 5.022c-.322.09-.581.316-.725.615l-.004.006c-.127.261-.124.709.01.986.139.289 5.632 6.083 5.907 6.23.123.067.27.105.425.105l.055-.001h-.002l.052.001c.154 0 .3-.04.43-.108l-.006.003c.275-.147 5.769-5.94 5.908-6.23.067-.145.105-.315.105-.495 0-.313-.118-.597-.31-.805a1.05 1.05 0 0 0-1.238-.213l.007-.002c-.134.072-.93.877-2.572 2.605l-2.377 2.5-2.377-2.5C9.088 6.106 8.18 5.184 8.066 5.124c-.205-.107-.544-.155-.734-.103zm-.149 8.05c-.576.213-.853.971-.576 1.574.066.144.9 1.052 2.948 3.205 2.594 2.729 2.875 3.012 3.069 3.079a1.02 1.02 0 0 0 .751-.003l-.007.003c.194-.068.475-.35 3.069-3.079 2.047-2.154 2.881-3.061 2.947-3.205.073-.149.115-.324.115-.51 0-.313-.12-.595-.316-.8-.303-.32-.71-.416-1.134-.269-.193.068-.445.319-2.635 2.62l-2.42 2.546-2.42-2.546c-2.19-2.301-2.44-2.552-2.634-2.62a1.08 1.08 0 0 0-.767.007l.007-.002z"/>
</svg>