<svg xmlns="http://www.w3.org/2000/svg" width="26" height="26" fill="currentColor" class="sym sym-chevron-selector-vertical-solid" viewBox="0 0 26 26">
  <path d="M12.796 5.017a1.5 1.5 0 0 0-.247.093l.008-.003c-.199.098-4.86 4.63-4.961 4.825a.88.88 0 0 0 .173 1.01.95.95 0 0 0 1.042.167c.114-.056.787-.681 2.177-2.025l2.011-1.944 2.012 1.944c1.39 1.344 2.062 1.97 2.177 2.025a.95.95 0 0 0 1.042-.167.88.88 0 0 0 .17-1.016l.002.006c-.112-.216-4.766-4.73-4.983-4.835-.174-.084-.46-.121-.621-.08zm-4.717 9.816c-.487.166-.722.755-.487 1.224.056.112.761.818 2.494 2.492 2.194 2.12 2.433 2.34 2.597 2.393.1.032.241.058.314.058s.215-.026.315-.058c.165-.053.402-.272 2.597-2.393 1.732-1.675 2.438-2.38 2.494-2.492a.86.86 0 0 0-.17-1.018c-.256-.249-.601-.324-.96-.21-.163.053-.377.248-2.23 2.038l-2.047 1.979-2.048-1.98c-1.852-1.789-2.065-1.984-2.229-2.036a.96.96 0 0 0-.65.005l.007-.002z"/>
</svg>