<svg xmlns="http://www.w3.org/2000/svg" width="26" height="26" fill="currentColor" class="sym sym-chevron-up-double-solid" viewBox="0 0 26 26">
  <path d="M12.76 5.021a1.7 1.7 0 0 0-.291.12l.01-.004c-.235.126-5.74 5.958-5.86 6.208a1.2 1.2 0 0 0-.104.495c0 .313.118.597.309.805.318.334.839.426 1.23.216.135-.072.93-.878 2.571-2.606l2.376-2.501 2.375 2.501c1.642 1.73 2.436 2.534 2.57 2.606.392.21.914.119 1.232-.216a1.21 1.21 0 0 0 .2-1.306l.003.006c-.132-.277-5.628-6.085-5.885-6.22-.205-.108-.543-.156-.734-.104z"/>
  <path d="M12.609 13.072c-.168.06-.591.487-3.049 3.076-2.046 2.154-2.88 3.062-2.945 3.206a1.2 1.2 0 0 0-.115.509c0 .313.12.596.316.8.302.32.71.417 1.133.27.193-.068.445-.319 2.633-2.621L13 15.766l2.419 2.546c2.187 2.302 2.438 2.553 2.632 2.62a1.03 1.03 0 0 0 1.134-.268c.195-.205.315-.488.315-.801 0-.186-.042-.36-.118-.515l.002.006c-.065-.144-.899-1.053-2.945-3.206-2.592-2.73-2.873-3.013-3.066-3.08a1.08 1.08 0 0 0-.77.006l.008-.002z"/>
</svg>