<svg xmlns="http://www.w3.org/2000/svg" width="26" height="26" fill="currentColor" class="sym sym-chevron-selector-horizontal" viewBox="0 0 26 26">
  <path d="M15.63 18.271c-.23 0-.46-.09-.64-.26a.9.9 0 0 1 0-1.27l3.74-3.74-3.74-3.74a.9.9 0 0 1 0-1.27.9.9 0 0 1 1.27 0l4.38 4.38a.9.9 0 0 1 0 1.27l-4.38 4.38c-.18.18-.41.26-.64.26zm-5.25 0c-.23 0-.46-.09-.64-.26l-4.38-4.38a.9.9 0 0 1 0-1.27l4.38-4.38a.9.9 0 0 1 1.27 0 .9.9 0 0 1 0 1.27l-3.74 3.74 3.74 3.74a.9.9 0 0 1 0 1.27c-.18.18-.41.26-.64.26z"/>
</svg>