<svg xmlns="http://www.w3.org/2000/svg" width="26" height="26" fill="currentColor" class="sym sym-chevron-selector-horizontal-solid" viewBox="0 0 26 26">
  <path d="M10.015 7.558c-.138.05-.485.391-2.503 2.466-1.68 1.727-2.364 2.454-2.419 2.57a.94.94 0 0 0-.045.713l-.002-.007c.059.185.19.33 2.4 2.61 1.676 1.732 2.382 2.437 2.494 2.493a.86.86 0 0 0 1.019-.17c.248-.256.324-.6.209-.96-.053-.162-.248-.375-2.039-2.226L7.15 13l1.98-2.046c1.791-1.85 1.986-2.063 2.039-2.227a1 1 0 0 0 .05-.306c0-.508-.4-.921-.894-.921a.9.9 0 0 0-.315.06zm5.468-.028a.94.94 0 0 0-.595.492l-.003.006c-.105.21-.102.567.007.79.056.113.683.785 2.027 2.175l1.946 2.01-1.946 2.01c-1.345 1.388-1.97 2.06-2.027 2.174a.95.95 0 0 0 .168 1.042.88.88 0 0 0 1.016.17l-.005.002c.225-.118 4.733-4.762 4.847-4.995a.8.8 0 0 0 .082-.36L20.999 13v.002l.001-.044q-.002-.197-.084-.364l.002.005c-.109-.222-4.621-4.877-4.832-4.986-.169-.086-.446-.125-.602-.083z"/>
</svg>