<svg xmlns="http://www.w3.org/2000/svg" width="26" height="26" fill="currentColor" class="sym sym-chevron-left-double-solid" viewBox="0 0 26 26">
  <path d="M11.33 5.043a2 2 0 0 0-.366.14l.012-.005c-.294.147-7.197 6.946-7.348 7.238a1.4 1.4 0 0 0-.128.588c0 .213.047.414.133.596l-.005-.009c.175.337 7.059 7.094 7.403 7.265.173.082.375.129.588.129.372 0 .71-.145.957-.38.396-.392.505-1.033.255-1.516-.085-.165-1.042-1.142-3.095-3.163l-2.972-2.924 2.972-2.923c2.054-2.02 3.01-2.997 3.095-3.163a1.33 1.33 0 0 0-.256-1.515c-.31-.304-.851-.46-1.244-.36z"/>
  <path d="M20.66 5.085c-.212.071-.742.569-3.824 3.586-2.566 2.512-3.61 3.57-3.693 3.738a1.32 1.32 0 0 0-.07 1.037l-.003-.01c.09.27.29.48 3.665 3.798 2.56 2.518 3.638 3.544 3.81 3.625.176.089.384.141.604.141.372 0 .708-.148.952-.388.379-.373.494-.874.319-1.395-.08-.238-.379-.548-3.114-3.24L16.282 13l3.024-2.977c2.735-2.692 3.033-3.001 3.114-3.24.049-.132.077-.285.077-.444 0-.74-.61-1.34-1.365-1.34q-.256.001-.483.086l.01-.003z"/>
</svg>