<svg xmlns="http://www.w3.org/2000/svg" width="26" height="26" fill="currentColor" class="sym sym-chevron-right-double-solid" viewBox="0 0 26 26">
  <path d="M4.374 5.083c-.478.165-.874.728-.874 1.243 0 .107.04.312.089.458.08.237.378.547 3.112 3.24L9.725 13 6.7 15.977c-2.734 2.692-3.032 3.001-3.112 3.24-.176.52-.06 1.022.319 1.395.242.24.579.388.95.388.221 0 .43-.052.613-.145l-.008.003c.172-.081 1.25-1.107 3.808-3.625 3.373-3.318 3.574-3.528 3.664-3.798a1.33 1.33 0 0 0-.076-1.036l.003.009c-.082-.169-1.127-1.228-3.692-3.739-3.249-3.182-3.602-3.512-3.844-3.59a1.44 1.44 0 0 0-.961.008l.01-.003z"/>
  <path d="M14.077 5.039a1.42 1.42 0 0 0-.909.717l-.004.008c-.16.305-.156.825.011 1.149.086.165 1.042 1.143 3.094 3.163L19.24 13l-2.97 2.924c-2.053 2.02-3.008 2.997-3.094 3.163-.25.482-.141 1.124.256 1.516a1.39 1.39 0 0 0 1.552.247l-.008.003c.17-.085 1.292-1.15 3.76-3.573 2.47-2.422 3.553-3.524 3.64-3.693.08-.152.125-.332.125-.523l-.002-.067V13l.002-.064c0-.19-.047-.37-.128-.53l.003.008c-.167-.324-7.056-7.096-7.378-7.254-.257-.125-.68-.181-.918-.12z"/>
</svg>