<svg xmlns="http://www.w3.org/2000/svg" width="26" height="26" fill="currentColor" class="sym sym-chrome-cast" viewBox="0 0 26 26">
  <path d="M14.614 21a.895.895 0 0 1-.91-.889c0-.494.405-.889.91-.889H17.2c1.172 0 1.818 0 2.142-.158.282-.138.515-.365.666-.652.162-.316.162-.948.162-2.093V9.68c0-1.145 0-1.777-.162-2.093a1.56 1.56 0 0 0-.666-.652c-.324-.158-.97-.158-2.142-.158H8.794c-1.172 0-1.819 0-2.142.158a1.48 1.48 0 0 0-.657.652c-.162.316-.161.948-.161 2.093v.158a.896.896 0 0 1-.91.89.896.896 0 0 1-.91-.89V9.68c0-1.422 0-2.202.365-2.903a3.3 3.3 0 0 1 1.455-1.422C6.55 5 7.349 5 8.804 5h8.407c1.455 0 2.253 0 2.97.356a3.28 3.28 0 0 1 1.455 1.422C22 7.479 22 8.259 22 9.68v6.638c0 1.422 0 2.202-.364 2.903a3.34 3.34 0 0 1-1.455 1.422c-.717.356-1.515.356-2.97.356zm-6.547-.79a.9.9 0 0 1-.89-.711 3 3 0 0 0-.848-1.55 3.25 3.25 0 0 0-1.587-.84.89.89 0 0 1-.707-1.047.9.9 0 0 1 1.071-.692c.95.188 1.819.652 2.506 1.324a4.85 4.85 0 0 1 1.354 2.46.883.883 0 0 1-.707 1.046c-.061.01-.122.02-.182.02zm3.273 0a.9.9 0 0 1-.899-.79 6.2 6.2 0 0 0-1.829-3.714 6.45 6.45 0 0 0-3.799-1.787.9.9 0 0 1-.808-.978c.05-.484.515-.84 1-.79a8.3 8.3 0 0 1 4.88 2.291 7.95 7.95 0 0 1 2.344 4.77.89.89 0 0 1-.798.978h-.1zm-6.416 0a.895.895 0 0 1-.91-.889c0-.494.405-.889.91-.889s.91.395.91.889a.896.896 0 0 1-.91.889"/>
</svg>