<svg xmlns="http://www.w3.org/2000/svg" width="26" height="26" fill="currentColor" class="sym sym-chrome-cast-solid" viewBox="0 0 26 26">
  <path fill-rule="evenodd" d="M7.145 5.03c-.717.048-1.233.21-1.742.545-.444.293-.933.875-1.128 1.345-.115.278-.2.662-.24 1.085-.047.504-.047 9.486 0 9.99.064.688.196 1.092.508 1.56.239.357.575.686.94.92.501.318.909.44 1.675.498.321.025 2.202.032 6.162.024 6.296-.012 5.958 0 6.592-.214.805-.271 1.6-1.049 1.877-1.836.22-.623.21-.366.21-5.947s.01-5.325-.21-5.948c-.184-.526-.689-1.16-1.175-1.478-.532-.349-1.012-.493-1.817-.547-.555-.037-11.094-.036-11.652.002zm.487 5.652c3.594.525 6.397 3.269 6.925 6.738l.005.044c.03.192.043.401.03.464a.82.82 0 0 1-.88.666c-.427-.042-.698-.333-.752-.806a7.3 7.3 0 0 0-.317-1.292c-.552-1.567-1.694-2.839-3.238-3.605a6.3 6.3 0 0 0-1.95-.617l-.034-.004c-.218-.034-.456-.092-.528-.128-.427-.213-.558-.754-.282-1.162.119-.175.397-.328.628-.345.025-.002.202.019.393.047m.122 3.295c1.674.461 2.965 1.724 3.428 3.325l.009.034c.138.494.105.751-.128 1.004-.428.463-1.21.269-1.382-.343-.177-.631-.331-.962-.625-1.338a3.4 3.4 0 0 0-1.787-1.155l-.024-.006c-.33-.081-.412-.12-.547-.261-.172-.178-.223-.306-.223-.555 0-.168.017-.257.07-.355a1 1 0 0 1 .417-.384c.157-.067.463-.053.792.034m-.129 3.1c.61.308.628 1.137.032 1.436-.533.269-1.2-.126-1.2-.71 0-.308.236-.643.526-.748.175-.062.496-.051.642.023"/>
</svg>