<svg xmlns="http://www.w3.org/2000/svg" width="26" height="26" fill="currentColor" class="sym sym-circle-cut-solid" viewBox="0 0 26 26">
  <path d="M12.612 4.002a9.5 9.5 0 0 0-2.152.356c-.868.256-1.03.355-1.03.631 0 .196.046.244.689.723 2.02 1.505 3.227 3.507 3.631 6.028.083.516.083 2.012 0 2.526-.32 2.001-1.15 3.675-2.504 5.055-.393.4-.695.66-1.192 1.025a8 8 0 0 0-.511.403l.01-.009c-.109.104-.123.136-.123.278 0 .275.162.374 1.03.63.848.25 1.6.353 2.562.352 1.45-.002 2.685-.29 3.97-.924a8.5 8.5 0 0 0 2.38-1.705 8.5 8.5 0 0 0 1.704-2.38c.639-1.292.924-2.523.924-3.987s-.285-2.695-.924-3.986a8.4 8.4 0 0 0-1.704-2.38 8.4 8.4 0 0 0-2.38-1.705c-1.195-.592-2.385-.886-3.757-.927a10 10 0 0 0-.637-.002h.014z"/>
  <path d="M7.133 6.217c-.083.024-.24.16-.575.497-1.364 1.38-2.204 3.09-2.498 5.092-.08.55-.08 1.844 0 2.395.303 2.063 1.202 3.847 2.639 5.238.355.345.455.396.777.394.137-.001.24-.038.594-.214a7.4 7.4 0 0 0 3.345-3.34l.019-.044c1.784-3.642.284-8.03-3.364-9.845-.387-.192-.442-.21-.623-.207a1.6 1.6 0 0 0-.325.036z"/>
</svg>