<svg xmlns="http://www.w3.org/2000/svg" width="26" height="26" fill="currentColor" class="sym sym-circle-cut" viewBox="0 0 26 26">
  <path d="M13.1 22.08a9 9 0 0 1-4.427-1.163c-.05-.02-.101-.05-.152-.08a9.01 9.01 0 0 1-4.426-7.747A9.01 9.01 0 0 1 8.52 5.344c.051-.03.102-.06.152-.081A9 9 0 0 1 13.1 4.1c4.962 0 8.995 4.035 8.995 9s-4.033 9-8.995 9zm-2.224-2.174a7 7 0 0 0 2.224.354c3.962 0 7.176-3.226 7.176-7.18S17.052 5.9 13.1 5.9a7 7 0 0 0-2.224.354 9.06 9.06 0 0 1 3.133 6.826 9.04 9.04 0 0 1-3.133 6.826M9.057 7.144a7.18 7.18 0 0 0-3.133 5.936 7.18 7.18 0 0 0 3.133 5.936 7.23 7.23 0 0 0 3.133-5.936 7.2 7.2 0 0 0-3.133-5.936"/>
</svg>