<svg xmlns="http://www.w3.org/2000/svg" width="26" height="26" fill="currentColor" class="sym sym-clean-solid" viewBox="0 0 26 26">
  <path d="M15.312 5.16a3.4 3.4 0 0 1 2.069 0c.433.138.797.38 1.157.68.346.287.74.672 1.215 1.138l.227.221c.476.466.869.851 1.163 1.19.305.352.552.709.693 1.133a3.2 3.2 0 0 1 0 2.024c-.14.425-.388.781-.693 1.133-.294.34-.687.724-1.164 1.19-.171.168-.257.252-.346.304a.85.85 0 0 1-.86 0c-.089-.052-.175-.136-.346-.304L12.94 8.498c-.172-.168-.258-.252-.311-.339a.8.8 0 0 1 0-.842c.053-.087.139-.17.31-.339.477-.466.87-.85 1.216-1.139.36-.299.724-.54 1.157-.679m-3.385 4.663c-.332-.325-.497-.487-.688-.547a.85.85 0 0 0-.517 0c-.191.06-.357.222-.688.547L6.02 13.75c-.477.466-.87.851-1.164 1.19-.305.352-.552.708-.693 1.133a3.2 3.2 0 0 0 0 2.024c.14.425.388.78.693 1.133.294.339.687.724 1.164 1.19l.633.62c.24.236.452.444.708.597.224.135.47.234.725.294.292.069.592.068.932.068H20.53a.83.83 0 0 0 .836-.82.83.83 0 0 0-.836-.818h-7.183l3.726-3.648c.332-.324.497-.487.56-.674a.8.8 0 0 0 0-.506c-.063-.187-.228-.349-.56-.673z"/>
</svg>