<svg xmlns="http://www.w3.org/2000/svg" width="26" height="26" fill="currentColor" class="sym sym-clean" viewBox="0 0 26 26">
  <path fill-rule="evenodd" d="M15.677 5.053c-.54.107-.975.335-1.547.808-.348.289-7.532 7.268-8.711 8.463-.656.665-.922.995-1.12 1.39-.21.423-.299.823-.299 1.353 0 .733.192 1.305.638 1.902.306.41 2.417 2.479 2.693 2.64.366.215.708.319 1.189.362.27.024 2.683.034 6.335.027 5.67-.011 5.903-.014 6.036-.084.343-.183.489-.43.466-.792-.02-.301-.155-.526-.398-.654l-.167-.089-3.724-.02-3.725-.019 3.272-3.188c3.814-3.72 4.433-4.338 4.748-4.754.454-.6.637-1.137.637-1.876 0-.73-.18-1.277-.61-1.863-.275-.373-2.279-2.37-2.847-2.837-.476-.391-1.032-.678-1.488-.768a4.4 4.4 0 0 0-1.378 0m1.23 1.647c.314.107.706.444 1.956 1.683 1.087 1.077 1.242 1.247 1.35 1.472.236.493.205 1.027-.085 1.463-.088.133-.59.674-1.116 1.2l-.955.959-1.02-.988c-.56-.543-1.622-1.578-2.36-2.3l-1.342-1.314.827-.808c1.143-1.118 1.45-1.352 1.873-1.428.237-.043.651-.014.872.06m-1.547 6.437 1.511 1.48-2.864 2.793c-1.575 1.536-2.922 2.824-2.99 2.862-.112.06-.271.07-1.31.08-1.035.011-1.204.004-1.361-.054-.143-.053-.375-.26-1.158-1.031-1.035-1.019-1.322-1.342-1.444-1.618a1.55 1.55 0 0 1-.082-.877c.098-.515.12-.54 4.044-4.364l2.445-2.386.849.818c.466.45 1.529 1.483 2.36 2.297"/>
</svg>