<svg xmlns="http://www.w3.org/2000/svg" width="26" height="26" fill="currentColor" class="sym sym-clipboard-download-solid" viewBox="0 0 26 26">
  <path fill-rule="evenodd" d="M10.238 4.022a1.66 1.66 0 0 0-.98.52c-.205.224-.317.457-.384.794-.02.118-.042.214-.067.309l.005-.025a3 3 0 0 1-.323.04h-.01a2.8 2.8 0 0 0-1.051.285l.015-.007c-.957.437-1.572 1.164-1.856 2.194l-.072.262-.012 4.994c-.008 3.443 0 5.137.025 5.455.06.766.188 1.174.52 1.674.243.366.585.702.957.94.493.316.917.447 1.642.508.54.047 8.166.047 8.706 0 .725-.06 1.149-.192 1.641-.507.384-.251.703-.564.95-.929l.008-.012c.332-.5.459-.908.52-1.674.025-.319.033-2.013.025-5.456l-.012-4.994-.072-.262c-.283-1.03-.899-1.756-1.856-2.194a2.7 2.7 0 0 0-1.028-.276h-.009a3 3 0 0 1-.351-.044l.019.003a3 3 0 0 1-.06-.264l-.002-.02c-.066-.337-.178-.57-.385-.794a1.7 1.7 0 0 0-.699-.458l-.012-.003-.212-.076L13.116 4c-1.486-.002-2.782.008-2.88.022zm4.805 1.697a.9.9 0 0 1 .247.18c.164.19.19.297.206.848l.015.516h-5.012v-.405c0-.223.015-.484.035-.58a.76.76 0 0 1 .597-.617h.005c.082-.016.958-.027 1.949-.025l1.801.006.158.076zm-1.759 5.692c.21.071.423.28.495.486.049.14.055.35.055 1.682v1.523l.61-.59c.645-.628.755-.7 1.058-.7.47 0 .87.428.827.883-.03.307-.09.378-1.517 1.774-1.267 1.24-1.373 1.334-1.538 1.387a.87.87 0 0 1-.643-.042c-.103-.05-.55-.469-1.501-1.406-1.212-1.195-1.36-1.352-1.41-1.497a.8.8 0 0 1 .195-.854.83.83 0 0 1 .87-.191c.14.046.258.145.774.645l.608.59V13.58c0-1.728 0-1.734.25-1.978a.82.82 0 0 1 .873-.189z"/>
</svg>