<svg xmlns="http://www.w3.org/2000/svg" width="26" height="26" fill="currentColor" class="sym sym-clipboard-check" viewBox="0 0 26 26">
  <path d="M15.555 21.9h-5.12c-1.44 0-2.24 0-2.94-.36-.62-.32-1.13-.83-1.44-1.44-.36-.71-.36-1.5-.36-2.94V9.8c0-.82 0-1.23.11-1.65.3-1.14 1.2-2.03 2.34-2.34.23-.06.46-.09.77-.1.02-.25.07-.47.18-.69.13-.29.4-.56.74-.73.36-.19.72-.19 1.25-.19h3.84c.53 0 .89 0 1.25.19.34.17.61.45.76.77.1.2.15.4.16.65.3.01.54.04.77.1 1.13.3 2.03 1.2 2.33 2.33.11.42.11.83.11 1.65v7.36c0 1.44 0 2.23-.36 2.94-.31.61-.83 1.13-1.44 1.44-.7.36-1.5.36-2.94.36zM8.905 7.51a1 1 0 0 0-.29.04c-.52.14-.93.55-1.07 1.06-.05.19-.05.54-.05 1.19v7.36c0 1.16 0 1.8.16 2.12.14.28.38.51.66.65.32.16 1 .16 2.12.16h5.12c1.12 0 1.8 0 2.12-.16.28-.15.52-.38.66-.66.16-.32.16-.96.16-2.12V9.79c0-.64 0-1-.05-1.19-.14-.51-.54-.92-1.06-1.06a1.7 1.7 0 0 0-.3-.04c-.02.25-.07.46-.18.67-.13.29-.4.56-.74.73-.36.19-.72.19-1.25.19h-3.84c-.53 0-.89 0-1.25-.19-.34-.17-.61-.45-.76-.77-.1-.19-.14-.39-.16-.63zm1.79-.59v.39h4.61c0-.07-.01-.2-.01-.38V5.9h-4.61c0 .07.01.2.01.38zm1.5 10.98c-.23 0-.46-.09-.64-.26l-1.6-1.6a.9.9 0 0 1 0-1.27.9.9 0 0 1 1.27 0l.96.96 2.96-2.96a.9.9 0 0 1 1.27 1.27l-3.6 3.6c-.18.18-.41.26-.64.26z"/>
</svg>