<svg xmlns="http://www.w3.org/2000/svg" width="26" height="26" fill="currentColor" class="sym sym-clock-stopwatch" viewBox="0 0 26 26">
  <path d="M13 23c-4.965 0-9-3.879-9-8.636 0-4.465 3.55-8.152 8.09-8.596v-.95h-.991a.906.906 0 0 1-.91-.909c0-.505.404-.909.91-.909H14.9c.506 0 .91.404.91.91a.905.905 0 0 1-.91.908h-.99v.95c4.54.434 8.09 4.12 8.09 8.596C22 19.12 17.965 23 13 23m0-15.455c-3.964 0-7.18 3.061-7.18 6.819s3.226 6.818 7.18 6.818 7.18-3.06 7.18-6.818S16.954 7.545 13 7.545m2.376 9.091a.93.93 0 0 1-.455-.12l-2.376-1.364a.91.91 0 0 1-.455-.788v-3.637c0-.505.404-.909.91-.909s.91.404.91.91v3.11l1.922 1.101a.909.909 0 0 1-.456 1.697m5.552-8.555a.9.9 0 0 1-.627-.253l-1.426-1.363a.908.908 0 1 1 1.254-1.313l.718.676.02.02.698.667a.908.908 0 0 1-.627 1.566zm-15.856 0a.908.908 0 0 1-.627-1.566l.698-.667.02-.02.718-.676a.908.908 0 1 1 1.254 1.313L5.709 7.828a.9.9 0 0 1-.627.253z"/>
</svg>