<svg xmlns="http://www.w3.org/2000/svg" width="26" height="26" fill="currentColor" class="sym sym-clock-check" viewBox="0 0 26 26">
  <path d="M12.79 21.9h-.02C7.91 21.78 4.1 17.87 4.1 13S8.09 4.1 13 4.1s8.9 3.99 8.9 8.9c0 .17 0 .33-.01.49-.03.5-.48.86-.95.85a.897.897 0 0 1-.85-.95c0-.13.01-.26.01-.39 0-3.92-3.19-7.1-7.1-7.1S5.9 9.08 5.9 13s3.04 7 6.91 7.1c.5.01.89.43.88.92s-.41.88-.9.88m3.81-.8c-.24 0-.47-.1-.64-.26l-1.6-1.6a.9.9 0 0 1 0-1.27.9.9 0 0 1 1.27 0l.96.96 2.96-2.96a.9.9 0 0 1 1.27 0 .9.9 0 0 1 0 1.27l-3.6 3.6a.9.9 0 0 1-.64.26zm-.61-5.71c-.14 0-.27-.03-.4-.1l-2.99-1.5a.88.88 0 0 1-.5-.8v-4.8c0-.5.4-.9.9-.9s.9.4.9.9v4.24l2.49 1.25a.903.903 0 0 1-.41 1.71z"/>
</svg>