<svg xmlns="http://www.w3.org/2000/svg" width="26" height="26" fill="currentColor" class="sym sym-clock-refresh-solid" viewBox="0 0 26 26">
  <path d="M11.949 4.031a9.03 9.03 0 0 0-5.415 2.68l-.002.003a8 8 0 0 0-1.082 1.34l-.02.031c-.76 1.163-1.363 2.904-1.374 3.968-.005.384 0 .41.11.587.23.376.644.54 1.053.42a.98.98 0 0 0 .601-.5c.038-.087.097-.344.13-.57.44-2.99 2.676-5.35 5.56-5.96l.046-.008c.625-.132 1.727-.168 2.383-.075 1.3.181 2.455.69 3.415 1.439l-.017-.012c.327.248.97.868.938.902-.012.01-.083-.001-.159-.026-.196-.065-.546-.056-.722.017-.208.1-.374.257-.48.452l-.003.006c-.06.113-.082.22-.082.418 0 .319.088.514.32.713.175.151.196.157 1.914.618.983.265 1.245.322 1.376.303.33-.048.556-.191.707-.449.09-.154.855-2.916.855-3.088 0-.168-.119-.464-.245-.612-.188-.22-.412-.32-.72-.32q-.706 0-.936.786l-.079.273-.256-.29a9.06 9.06 0 0 0-5.808-3.043c-.415-.045-1.623-.046-2.008 0z"/>
  <path d="M12.558 7.897a.91.91 0 0 0-.489.624l-.001.006c-.03.142-.04.903-.031 2.462.011 2.225.012 2.259.093 2.41.044.083.13.2.188.259.058.06.694.461 1.413.892l1.306.786h.306c.338 0 .461-.047.663-.25.202-.202.248-.327.248-.662 0-.34-.051-.473-.256-.666-.067-.064-.557-.376-1.088-.696l-.967-.58-.019-1.994c-.016-1.718-.028-2.011-.08-2.127-.23-.505-.803-.712-1.287-.465"/>
  <path d="M20.641 12.981c-.39.169-.515.377-.617 1.014-.25 1.564-.849 2.803-1.897 3.926-1.343 1.44-3.469 2.306-5.42 2.21a7.12 7.12 0 0 1-4.648-1.982 4 4 0 0 1-.39-.402c-.035-.066-.028-.068.145-.015.537.165 1.053-.048 1.252-.514.096-.223.074-.566-.054-.802-.187-.347-.252-.375-1.818-.797-1.498-.404-1.689-.433-1.968-.306a.98.98 0 0 0-.443.424l-.003.005c-.033.07-.225.742-.426 1.495-.318 1.185-.365 1.4-.352 1.602.029.47.373.812.851.843.498.032.838-.234.995-.778l.086-.296.137.17c.684.845 1.755 1.698 2.8 2.233 1.278.654 2.4.94 3.86.984 1.5.046 2.8-.23 4.142-.88 2.299-1.115 3.954-3.056 4.713-5.527.19-.618.362-1.599.327-1.863a.96.96 0 0 0-.533-.727l-.006-.003c-.185-.085-.554-.092-.733-.014"/>
</svg>