<svg xmlns="http://www.w3.org/2000/svg" width="26" height="26" fill="currentColor" class="sym sym-clock-plus-solid" viewBox="0 0 26 26">
  <path fill-rule="evenodd" d="M11.88 4.018A8.7 8.7 0 0 0 7.2 5.894c-.36.285-1.172 1.122-1.466 1.514-.907 1.21-1.452 2.53-1.676 4.06-.077.526-.077 1.762 0 2.289.224 1.528.769 2.847 1.676 4.06.357.475 1.196 1.315 1.673 1.672 1.212.906 2.53 1.45 4.06 1.675.57.085 1.792.076 2.393-.014.563-.085.681-.12.776-.234.12-.143.1-.26-.14-.822-.267-.626-.3-.758-.3-1.208 0-.442.04-.617.234-1.02a2.14 2.14 0 0 1 1.082-1.081c.34-.163.482-.205.804-.238l.208-.021.02-.208c.034-.322.076-.465.24-.804a2.14 2.14 0 0 1 1.08-1.082c.403-.194.578-.234 1.02-.234.451 0 .583.033 1.21.3.56.24.678.26.821.14.114-.095.149-.213.233-.777.092-.6.1-1.821.015-2.392-.225-1.53-.77-2.85-1.676-4.06-.294-.392-1.105-1.23-1.467-1.514-1.252-.985-2.628-1.584-4.17-1.812-.498-.074-1.524-.107-1.97-.064zm.997 3.157c.09.03.207.106.283.183.243.242.235.158.235 2.602v2.167l1.386.69c1.512.751 1.601.808 1.7 1.097a.73.73 0 0 1-.003.538l.002-.005a.79.79 0 0 1-.809.509c-.237-.026-3.459-1.634-3.63-1.815-.219-.228-.214-.157-.214-2.897 0-2.762-.01-2.642.236-2.887a.76.76 0 0 1 .82-.18z"/>
  <path d="M18.712 15.777a.83.83 0 0 0-.526.42l-.003.005c-.063.12-.068.176-.077 1.01l-.01.884-.884.01c-.834.01-.891.014-1.01.078-.287.153-.434.39-.434.7s.147.548.433.701c.12.064.177.069 1.01.078l.885.01.01.884c.009.833.014.89.077 1.01q.233.432.701.433c.31 0 .547-.146.701-.433.063-.12.068-.177.078-1.01l.01-.884.883-.01c.834-.01.891-.014 1.01-.078.288-.153.434-.39.434-.7 0-.311-.146-.548-.433-.701-.12-.064-.177-.069-1.01-.078l-.884-.01-.01-.884c-.01-.834-.015-.89-.078-1.01-.175-.326-.551-.51-.873-.426"/>
</svg>