<svg xmlns="http://www.w3.org/2000/svg" width="26" height="26" fill="currentColor" class="sym sym-clock-solid" viewBox="0 0 26 26">
  <path fill-rule="evenodd" d="M12.238 4.02c-1.842.18-3.443.82-4.892 1.96-.378.298-1.226 1.173-1.533 1.583-.948 1.265-1.518 2.644-1.753 4.242-.08.55-.08 1.842 0 2.393.235 1.597.804 2.975 1.752 4.242.373.497 1.251 1.375 1.749 1.748 1.268.948 2.646 1.517 4.244 1.752.55.08 1.843.08 2.393 0 1.598-.235 2.977-.804 4.244-1.752.497-.373 1.376-1.25 1.749-1.748.948-1.267 1.517-2.645 1.752-4.242.042-.292.057-.6.057-1.196s-.015-.905-.057-1.197c-.234-1.597-.805-2.977-1.753-4.242-.307-.41-1.155-1.285-1.533-1.582-1.309-1.03-2.747-1.656-4.36-1.895-.52-.076-1.592-.11-2.059-.066m1.042 3.3c.094.032.216.11.296.19.253.254.245.166.245 2.72v2.265l1.45.72c1.58.786 1.673.845 1.775 1.147a.77.77 0 0 1-.002.562l.002-.005a.83.83 0 0 1-.846.532c-.248-.027-3.615-1.708-3.795-1.896-.228-.239-.223-.165-.223-3.028 0-2.887-.01-2.762.246-3.017a.8.8 0 0 1 .858-.19z"/>
</svg>