<svg xmlns="http://www.w3.org/2000/svg" width="26" height="26" fill="currentColor" class="sym sym-clock-stopwatch-solid" viewBox="0 0 26 26">
  <path fill-rule="evenodd" d="M10.786 3.056a.95.95 0 0 0-.502.403l-.003.004c-.09.147-.105.212-.105.445s.015.298.105.445c.228.372.474.465 1.227.465h.546l-.02.96-.341.046c-3.775.508-6.843 3.351-7.544 6.992-.597 3.102.623 6.264 3.197 8.285.967.758 2.264 1.374 3.51 1.667.805.188 1.209.232 2.145.232s1.34-.044 2.143-.232c1.816-.427 3.52-1.435 4.704-2.785 2.613-2.98 2.871-7.177.64-10.396-1.413-2.037-3.696-3.428-6.18-3.762l-.341-.046-.02-.96h.543c.65 0 .835-.047 1.07-.273a.875.875 0 0 0 0-1.276c-.287-.276-.257-.272-2.576-.27-1.68.003-2.076.012-2.197.055zm2.568 6.836c.178.07.394.265.49.437.082.147.084.18.095 1.842l.012 1.693.954.545c1.034.592 1.194.707 1.313.942.092.184.105.545.026.728-.176.404-.68.648-1.11.537-.188-.05-2.594-1.422-2.774-1.583a1.3 1.3 0 0 1-.206-.253l-.003-.006c-.08-.145-.082-.163-.082-2.22 0-2.066 0-2.077.083-2.225.094-.169.31-.364.483-.436.152-.065.56-.065.717-.002z"/>
  <path d="M6.12 5.015c-.141.065-.393.285-.99.865-.44.426-.833.834-.871.905-.097.175-.096.587 0 .776a.97.97 0 0 0 .457.43c.19.083.577.089.77.011.177-.07 1.76-1.575 1.877-1.782.113-.202.113-.595 0-.802a.945.945 0 0 0-1.243-.403m12.962-.019a1.02 1.02 0 0 0-.46.437c-.1.194-.093.598.013.787.116.206 1.7 1.71 1.877 1.781.078.031.248.057.38.056.383-.001.654-.157.83-.477.113-.207.122-.606.017-.797-.038-.07-.43-.477-.871-.905-.898-.872-1.015-.952-1.407-.95h-.01q-.2 0-.376.069l.007-.002z"/>
</svg>