<svg xmlns="http://www.w3.org/2000/svg" width="26" height="26" fill="currentColor" class="sym sym-clock-rewind" viewBox="0 0 26 26">
  <path d="M12.224 21.895c-5.03 0-9.12-3.99-9.12-8.9s4.09-8.9 9.12-8.9c3.21 0 6.22 1.67 7.85 4.37.26.42.12.98-.3 1.24s-.98.12-1.24-.3c-1.31-2.16-3.73-3.5-6.32-3.5-4.04 0-7.32 3.18-7.32 7.1s3.29 7.1 7.32 7.1c3.47 0 6.38-2.35 7.14-5.5l-.39.38a.89.89 0 0 1-1.27-.02.89.89 0 0 1 .02-1.27l1.83-1.78c.35-.34.91-.34 1.25 0l1.83 1.78a.9.9 0 0 1 .02 1.27c-.35.35-.92.36-1.27.02l-.21-.2c-.85 4.06-4.53 7.12-8.94 7.12zm2.74-6.22c-.17 0-.34-.05-.49-.15l-2.74-1.78a.9.9 0 0 1-.41-.75v-4.44c0-.5.4-.9.9-.9s.9.4.9.9v3.96l2.33 1.51c.42.27.54.83.27 1.25-.17.27-.46.41-.76.41z"/>
</svg>