<svg xmlns="http://www.w3.org/2000/svg" width="26" height="26" fill="currentColor" class="sym sym-clock-check-solid" viewBox="0 0 26 26">
  <path fill-rule="evenodd" d="M12.61 4.006a9.16 9.16 0 0 0-5.26 1.968c-.506.426-.96.878-1.37 1.367l-.014.017a9.3 9.3 0 0 0-1.762 3.672A8.3 8.3 0 0 0 4 12.992c0 .758.054 1.285.203 1.962a9.3 9.3 0 0 0 1.762 3.672c.425.506.878.959 1.367 1.37l.017.014a9.17 9.17 0 0 0 4.238 1.87l.053.008c.726.11 2.164.12 2.359.017.105-.057.2-.23.2-.366 0-.122-.048-.206-.267-.462-.174-.204-.373-.593-.459-.894a2.6 2.6 0 0 1 .004-1.296l-.003.019a2.34 2.34 0 0 1 .628-1.068c.477-.483.973-.712 1.609-.742.59-.029 1.04.091 1.508.405.145.097.273.176.285.176s.523-.498 1.136-1.107l1.116-1.11.312-.15c.393-.19.612-.245 1.12-.282.44-.03.524-.06.598-.216.13-.28.229-1.515.183-2.31a8.6 8.6 0 0 0-.917-3.489 8.4 8.4 0 0 0-1.702-2.377 8.4 8.4 0 0 0-2.38-1.701 8.9 8.9 0 0 0-4.377-.928h.018zm.705 3.322a.78.78 0 0 1 .413.407l.077.164v4.57l1.442.72c.794.398 1.497.77 1.563.828a.86.86 0 0 1 .273.614v.005a.81.81 0 0 1-.89.807h.003c-.186-.013-.337-.082-1.917-.872-.958-.479-1.769-.903-1.837-.964a1 1 0 0 1-.196-.265l-.003-.006-.076-.163v-2.637c.001-2.583.002-2.64.067-2.785a.78.78 0 0 1 .403-.411l.005-.002a.83.83 0 0 1 .673-.01"/>
  <path d="M20.854 16.746c-.072.031-.71.644-1.722 1.653-.884.882-1.62 1.603-1.639 1.603s-.283-.25-.59-.559c-.306-.307-.615-.59-.687-.63-.184-.098-.537-.098-.724 0a.83.83 0 0 0-.452.73c0 .317.022.346 1.024 1.355C17.084 21.926 17.18 22 17.494 22c.335 0 .337-.003 2.432-2.1C22.004 17.817 22 17.823 22 17.495c0-.304-.224-.637-.512-.758-.142-.058-.49-.055-.635.007z"/>
</svg>