<svg xmlns="http://www.w3.org/2000/svg" width="26" height="26" fill="currentColor" class="sym sym-clock-rewind-solid" viewBox="0 0 26 26">
  <path d="M11.404 4.036c-4.123.37-7.438 3.34-8.226 7.2l-.01.058A8.5 8.5 0 0 0 3 13.004c0 1.52.387 2.953 1.07 4.208l-.024-.048a8.6 8.6 0 0 0 1.66 2.193l.001.001a8.7 8.7 0 0 0 2.2 1.6l.047.023A9.3 9.3 0 0 0 12.216 22c2.457 0 4.69-.94 6.342-2.47l-.004.005a9.1 9.1 0 0 0 2.538-4.121l.015-.064.128-.47c.01-.033.06-.009.16.079.356.314.738.378 1.105.183a.93.93 0 0 0 .467-.584c.067-.226.033-.43-.115-.675-.048-.079-.532-.577-1.076-1.105-.715-.696-1.035-.982-1.154-1.035a1.05 1.05 0 0 0-.782.003l.007-.003c-.233.103-2.14 1.957-2.276 2.213-.31.583.14 1.29.82 1.29.279 0 .47-.092.768-.368l.218-.202-.026.126c-.102.489-.508 1.42-.86 1.973a8 8 0 0 1-1.629 1.818 7.52 7.52 0 0 1-4.644 1.61h-.002c-3.47 0-6.5-2.403-7.21-5.719a7 7 0 0 1-.157-1.478c0-2.828 1.67-5.275 4.098-6.452l.043-.02a7.4 7.4 0 0 1 3.23-.729c1.747 0 3.351.595 4.613 1.589l-.013-.011a7.5 7.5 0 0 1 1.62 1.76l.019.03c.204.31.274.384.437.475.258.144.448.17.71.095.514-.146.805-.686.62-1.155-.144-.37-.766-1.204-1.339-1.793-1.904-1.965-4.724-3.006-7.482-2.76z"/>
  <path d="M12.013 7.633a.98.98 0 0 0-.619.483l-.003.005c-.08.144-.08.156-.08 2.63v2.485l.083.144q.07.124.15.224l-.003-.003c.067.079 2.84 1.896 3.072 2.012.282.143.74.064 1-.172.345-.314.36-.904.03-1.244-.043-.046-.625-.438-1.292-.872l-1.212-.79-.01-2.135c-.011-2.104-.012-2.136-.09-2.28-.206-.374-.65-.585-1.028-.488z"/>
</svg>