<svg xmlns="http://www.w3.org/2000/svg" width="26" height="26" fill="currentColor" class="sym sym-clock-fast-forward-solid" viewBox="0 0 26 26">
  <path d="M11.407 4.029c-4.123.37-7.439 3.341-8.227 7.203l-.01.058c-.51 2.575.137 5.172 1.816 7.292.312.394 1.114 1.177 1.517 1.482 1.78 1.347 3.858 2.009 6.048 1.93a9.28 9.28 0 0 0 6.053-2.503c.367-.341.803-.834.895-1.01a.865.865 0 0 0-.133-.96h.001a.85.85 0 0 0-.66-.308h-.03.002c-.363 0-.47.063-.937.55-.777.813-1.44 1.305-2.315 1.718a7.4 7.4 0 0 1-3.207.72 7.45 7.45 0 0 1-3.245-.737l.043.02c-2.034-.976-3.519-2.782-4.003-4.954l-.01-.048a7 7 0 0 1-.156-1.48c0-2.828 1.67-5.277 4.1-6.454l.042-.019c2.786-1.329 6.139-.81 8.346 1.294a7.1 7.1 0 0 1 2.157 4.018l.005.041c.094.566.102.559-.252.223-.357-.343-.542-.438-.844-.439-.697-.002-1.142.686-.83 1.278.128.24 2.037 2.099 2.278 2.219a.94.94 0 0 0 .78-.002l-.006.002c.109-.054.515-.422 1.173-1.06 1.12-1.09 1.207-1.204 1.202-1.576-.004-.237-.15-.532-.33-.667a.97.97 0 0 0-.588-.197.97.97 0 0 0-.595.203l.002-.002-.118.087-.025-.205c-.098-.794-.44-1.88-.848-2.692a9.23 9.23 0 0 0-5.574-4.665l-.066-.017A9.6 9.6 0 0 0 12.175 4q-.406 0-.804.032l.034-.002z"/>
  <path d="M12.016 7.627a.98.98 0 0 0-.618.483l-.003.006c-.08.144-.08.156-.08 2.63v2.486l.083.144a1.6 1.6 0 0 0 .15.225l-.003-.004c.067.08 2.841 1.897 3.072 2.014.282.143.741.064 1.001-.173.345-.313.36-.903.03-1.244-.044-.046-.625-.438-1.292-.872l-1.213-.791-.01-2.135c-.011-2.106-.012-2.138-.09-2.28-.206-.376-.65-.586-1.028-.49z"/>
</svg>