<svg xmlns="http://www.w3.org/2000/svg" width="26" height="26" fill="currentColor" class="sym sym-clock-refresh" viewBox="0 0 26 26">
  <path d="M13.015 21.893c-.77 0-1.55-.1-2.32-.31a8.93 8.93 0 0 1-4.71-3.11l-.12.46a.9.9 0 1 1-1.74-.46l.69-2.57a.9.9 0 0 1 1.1-.64l2.57.69c.48.13.76.62.64 1.1a.9.9 0 0 1-1.1.64l-.45-.12c.93 1.11 2.17 1.9 3.59 2.28 1.83.49 3.74.24 5.38-.71a7.12 7.12 0 0 0 3.51-5.4c.05-.49.49-.86.99-.8.49.05.85.5.8.99a8.925 8.925 0 0 1-8.83 7.97zm2.34-6.59c-.16 0-.32-.04-.46-.13l-2.35-1.41a.91.91 0 0 1-.44-.77v-4.24c0-.5.4-.9.9-.9s.9.4.9.9v3.73l1.91 1.15c.43.26.56.81.31 1.24a.91.91 0 0 1-.77.44zm-10.3-2.25h-.1a.906.906 0 0 1-.8-.99c.3-2.82 1.94-5.35 4.4-6.77a8.85 8.85 0 0 1 6.75-.89c1.89.51 3.52 1.6 4.71 3.11l.12-.46a.9.9 0 1 1 1.74.46l-.69 2.57a.9.9 0 0 1-1.1.64l-2.57-.69a.907.907 0 0 1-.64-1.1.9.9 0 0 1 1.1-.64l.45.12a7 7 0 0 0-3.59-2.28 7.03 7.03 0 0 0-5.38.71 7.12 7.12 0 0 0-3.51 5.4c-.05.46-.44.81-.89.81"/>
</svg>