<svg xmlns="http://www.w3.org/2000/svg" width="26" height="26" fill="currentColor" class="sym sym-clock-fast-forward" viewBox="0 0 26 26">
  <path d="M12.229 21.99C7.137 21.99 3 17.956 3 12.994S7.137 4 12.229 4c4.665 0 8.531 3.385 9.138 7.778a1.03 1.03 0 0 1 1.338.077.967.967 0 0 1 0 1.391l-1.821 1.775a1.03 1.03 0 0 1-1.428 0l-1.82-1.775a.967.967 0 0 1 0-1.39 1.03 1.03 0 0 1 1.427 0l.326.317c-.416-3.484-3.473-6.2-7.15-6.2-3.967 0-7.204 3.154-7.204 7.022 0 3.867 3.237 7.022 7.205 7.022a7.29 7.29 0 0 0 5.609-2.607c.348-.428.99-.493 1.427-.143.439.34.506.964.147 1.392C17.658 20.784 15.039 22 12.25 22zm2.742-6.235c-.19 0-.382-.054-.562-.164l-2.742-1.775a.99.99 0 0 1-.45-.821V8.547c0-.548.45-.986 1.012-.986a.995.995 0 0 1 1.011.986v3.922l2.293 1.49a.97.97 0 0 1 .281 1.37 1.01 1.01 0 0 1-.843.437z"/>
</svg>