<svg xmlns="http://www.w3.org/2000/svg" width="26" height="26" fill="currentColor" class="sym sym-clock-plus" viewBox="0 0 26 26">
  <path d="M18.6 21.9c-.5 0-.9-.4-.9-.9v-1.5h-1.5c-.5 0-.9-.4-.9-.9s.4-.9.9-.9h1.5v-1.5c0-.5.4-.9.9-.9s.9.4.9.9v1.5H21c.5 0 .9.4.9.9s-.4.9-.9.9h-1.5V21c0 .5-.4.9-.9.9m-5.6 0c-4.91 0-8.9-3.99-8.9-8.9S8.09 4.1 13 4.1s8.9 3.99 8.9 8.9c0 .37-.02.75-.07 1.12-.06.49-.5.84-1 .78a.9.9 0 0 1-.78-1c.04-.29.06-.6.06-.9 0-3.92-3.19-7.1-7.1-7.1s-7.1 3.18-7.1 7.1 3.19 7.1 7.1 7.1c.31 0 .61-.02.91-.06a.901.901 0 1 1 .23 1.79c-.37.05-.76.07-1.14.07zm2.99-6.5c-.14 0-.27-.03-.4-.1l-2.99-1.5a.88.88 0 0 1-.5-.8V8.2c0-.5.4-.9.9-.9s.9.4.9.9v4.24l2.49 1.25a.903.903 0 0 1-.41 1.71z"/>
</svg>