<svg xmlns="http://www.w3.org/2000/svg" width="26" height="26" fill="currentColor" class="sym sym-cloud-blank" viewBox="0 0 26 26">
  <path d="M18.55 21H7.45C4.442 21 2 18.55 2 15.532c0-2.613 1.796-4.8 4.269-5.337A6.94 6.94 0 0 1 13 5c3.2 0 5.934 2.147 6.731 5.195A5.445 5.445 0 0 1 24 15.532C24 18.549 21.558 21 18.55 21M13 6.823a5.12 5.12 0 0 0-5.076 4.324.92.92 0 0 1-.818.76 3.614 3.614 0 0 0-3.29 3.625c0 2.005 1.635 3.645 3.634 3.645h11.1c1.999 0 3.633-1.64 3.633-3.645a3.614 3.614 0 0 0-3.29-3.626.92.92 0 0 1-.817-.76A5.136 5.136 0 0 0 13 6.824"/>
</svg>