<svg xmlns="http://www.w3.org/2000/svg" width="26" height="26" fill="currentColor" class="sym sym-cloud-blank-solid" viewBox="0 0 26 26">
  <path d="M12.264 5.038A7.05 7.05 0 0 0 7.305 7.93l-.014.02a7.7 7.7 0 0 0-.881 1.694l-.018.055-.153.441-.39.124a5.4 5.4 0 0 0-2.235 1.359 5.4 5.4 0 0 0-1.608 4.121v-.012c.062 1.423.607 2.667 1.607 3.667a5.54 5.54 0 0 0 2.845 1.525c.344.073.634.076 6.547.076 5.914 0 6.203-.003 6.548-.076a5.55 5.55 0 0 0 2.843-1.525 5.53 5.53 0 0 0 1.52-2.81l.005-.036c.105-.505.105-1.577 0-2.083-.42-2.017-1.825-3.588-3.76-4.206l-.39-.124-.153-.44c-1.058-3.06-4.121-5.001-7.354-4.662"/>
</svg>