<svg xmlns="http://www.w3.org/2000/svg" width="26" height="26" fill="currentColor" class="sym sym-code" viewBox="0 0 26 26">
  <path d="M16.242 18.99a.97.97 0 0 1-.648-.25.84.84 0 0 1 0-1.226l4.208-4.013-4.207-4.013a.84.84 0 0 1 0-1.225.94.94 0 0 1 1.284 0l4.855 4.63a.84.84 0 0 1 0 1.226l-4.855 4.63a.93.93 0 0 1-.647.251zm-6.474 0a.97.97 0 0 1-.647-.25l-4.855-4.631a.84.84 0 0 1 0-1.225l4.855-4.63a.94.94 0 0 1 1.284 0 .84.84 0 0 1 0 1.224l-4.207 4.014 4.208 4.013a.84.84 0 0 1 0 1.225.93.93 0 0 1-.648.25z"/>
</svg>