<svg xmlns="http://www.w3.org/2000/svg" width="26" height="26" fill="currentColor" class="sym sym-code-browser" viewBox="0 0 26 26">
  <path d="M17.207 21H8.793c-1.456 0-2.255 0-2.973-.355a3.34 3.34 0 0 1-1.456-1.423C4 18.521 4 17.741 4 16.318V9.682c0-1.422 0-2.202.364-2.903A3.3 3.3 0 0 1 5.82 5.356C6.538 5 7.337 5 8.793 5h8.414c1.456 0 2.255 0 2.973.356.637.316 1.132.81 1.456 1.422C22 7.479 22 8.259 22 9.68v6.638c0 1.422 0 2.202-.364 2.903a3.34 3.34 0 0 1-1.456 1.422c-.718.356-1.517.356-2.973.356M5.82 11.519v4.8c0 1.145 0 1.777.162 2.093q.228.43.667.652c.324.158.971.158 2.144.158h8.414c1.173 0 1.82 0 2.144-.158a1.5 1.5 0 0 0 .667-.652c.162-.316.162-.948.162-2.093v-4.8zm0-1.778h14.36v-.06c0-1.145 0-1.777-.162-2.093a1.56 1.56 0 0 0-.667-.652c-.324-.158-.971-.158-2.144-.158H8.793c-1.173 0-1.82 0-2.144.158a1.48 1.48 0 0 0-.657.652c-.162.316-.162.948-.162 2.093v.06zm8.798 8.494a.96.96 0 0 1-.647-.257.873.873 0 0 1 0-1.255l1.375-1.343-1.375-1.343a.873.873 0 0 1 0-1.254.925.925 0 0 1 1.284 0l2.022 1.975a.873.873 0 0 1 0 1.254l-2.022 1.976a.9.9 0 0 1-.647.256zm-3.236 0a.96.96 0 0 1-.647-.257l-2.023-1.976a.874.874 0 0 1 0-1.254l2.023-1.975a.925.925 0 0 1 1.284 0 .874.874 0 0 1 0 1.254l-1.375 1.343 1.375 1.344a.874.874 0 0 1 0 1.254.9.9 0 0 1-.647.257z"/>
</svg>