<svg xmlns="http://www.w3.org/2000/svg" width="26" height="26" fill="currentColor" class="sym sym-code-02-solid" viewBox="0 0 26 26">
  <path d="M14.795 3.02a1.02 1.02 0 0 0-.696.566l-.002.006c-.033.081-.973 4.255-2.087 9.274-2.167 9.755-2.07 9.266-1.9 9.6a.93.93 0 0 0 .88.534h.016a.96.96 0 0 0 .88-.576l.003-.006c.033-.082.973-4.255 2.087-9.274 2.166-9.755 2.07-9.266 1.9-9.6a1 1 0 0 0-1.087-.524zM7.766 7.029c-.101.03-.187.064-.27.105l.01-.004c-.218.11-5.3 5.216-5.411 5.435a1.06 1.06 0 0 0 .003.89l-.003-.008c.128.254 5.197 5.327 5.45 5.456a1.01 1.01 0 0 0 1.137-.189 1.01 1.01 0 0 0 .189-1.138c-.063-.124-.767-.858-2.28-2.375l-2.187-2.195 2.188-2.196C8.104 9.294 8.808 8.56 8.87 8.436a1.01 1.01 0 0 0-.188-1.138c-.229-.228-.627-.345-.917-.27zm9.877.033c-.353.124-.645.546-.645.933 0 .08.03.235.066.344.059.178.278.41 2.292 2.432l2.227 2.235-2.227 2.235c-2.014 2.022-2.233 2.254-2.292 2.433-.13.39-.045.768.235 1.048a.98.98 0 0 0 1.15.182l-.004.003c.126-.061.92-.832 2.804-2.722 2.485-2.492 2.633-2.65 2.7-2.852a1 1 0 0 0-.056-.778l.002.007c-.061-.127-.83-.922-2.72-2.807-2.393-2.39-2.653-2.637-2.832-2.696a1.04 1.04 0 0 0-.708.006l.007-.002z"/>
</svg>