<svg xmlns="http://www.w3.org/2000/svg" width="26" height="26" fill="currentColor" class="sym sym-code-solid" viewBox="0 0 26 26">
  <path d="M9.537 7.524a1.3 1.3 0 0 0-.22.082l.007-.003c-.178.087-5.156 4.878-5.247 5.052a.8.8 0 0 0 .002.698l-.002-.006c.105.2 5.071 4.967 5.28 5.067a.84.84 0 0 0 .353.076.84.84 0 0 0 .576-.224.77.77 0 0 0 .155-.893c-.053-.099-.735-.777-2.275-2.257l-2.2-2.115 2.2-2.115c1.54-1.48 2.222-2.158 2.274-2.257a.775.775 0 0 0-.154-.893c-.186-.179-.513-.271-.75-.212m6.444.026a.83.83 0 0 0-.528.732c0 .063.024.184.053.27.049.14.256.35 2.285 2.301L20.023 13l-2.233 2.148c-2.029 1.951-2.237 2.16-2.285 2.301a.75.75 0 0 0 .193.822.82.82 0 0 0 .573.229q.201-.001.369-.085l-.005.001c.104-.047.86-.753 2.705-2.529 2.429-2.336 2.564-2.471 2.618-2.63a.77.77 0 0 0-.046-.61l.002.004c-.05-.1-.785-.824-2.635-2.596-2.339-2.242-2.58-2.462-2.727-2.509a.9.9 0 0 0-.58.005z"/>
</svg>