<svg xmlns="http://www.w3.org/2000/svg" width="26" height="26" fill="currentColor" class="sym sym-code-browser-solid" viewBox="0 0 26 26">
  <path d="M7.14 5.03c-.716.047-1.232.209-1.741.544-.444.293-.932.875-1.127 1.345-.186.447-.293 1.222-.269 1.94.015.427.065.564.27.74.249.213-.397.198 8.729.198s8.48.015 8.727-.198a1 1 0 0 0 .185-.226l.003-.005c.068-.123.071-.17.068-.772-.005-1.004-.127-1.536-.475-2.085-.206-.324-.614-.745-.906-.938-.532-.348-1.012-.493-1.816-.547-.555-.036-11.089-.034-11.647.003"/>
  <path fill-rule="evenodd" d="M4.717 11.43c-.305.038-.507.182-.635.449-.068.141-.069.182-.079 2.56-.01 2.515.02 3.605.11 4.067.154.785.65 1.492 1.37 1.956.544.35.971.461 1.952.509.789.039 10.342.039 11.132 0 .98-.048 1.408-.16 1.95-.51.707-.453 1.198-1.142 1.36-1.905.102-.475.132-1.504.12-4.116-.01-2.379-.01-2.42-.078-2.561a.8.8 0 0 0-.4-.395l-.006-.002-.147-.067-8.234-.004c-4.53-.003-8.316.006-8.415.019m6.974 1.636c.291.126.49.406.49.73v.004c0 .316-.076.417-.929 1.248l-.773.752.785.769c.856.838.917.92.917 1.233v.003c0 .44-.365.796-.815.796h-.002c-.34 0-.4-.046-1.643-1.267-1.11-1.092-1.136-1.12-1.19-1.305a.72.72 0 0 1 .053-.585l-.002.004c.095-.192 2.338-2.364 2.488-2.408.192-.057.46-.046.622.026m3.29.01c.128.06.418.326 1.299 1.192 1.076 1.059 1.138 1.125 1.187 1.29.065.217.065.269 0 .485-.05.165-.11.231-1.187 1.29-.88.866-1.171 1.133-1.299 1.193-.527.245-1.158-.137-1.16-.704-.003-.338.01-.356.887-1.221l.813-.801-.773-.752c-.839-.816-.928-.935-.929-1.228 0-.252.063-.404.245-.582a1 1 0 0 1 .28-.197.95.95 0 0 1 .638.035"/>
</svg>