<svg xmlns="http://www.w3.org/2000/svg" width="26" height="26" fill="currentColor" class="sym sym-code-02" viewBox="0 0 26 26">
  <path d="M11.028 22.988c-.074 0-.16 0-.247-.025a1.1 1.1 0 0 1-.84-1.32l3.955-17.776c.136-.593.73-.975 1.323-.84a1.1 1.1 0 0 1 .84 1.321l-3.955 17.776a1.12 1.12 0 0 1-1.088.876zm6.923-3.95c-.284 0-.568-.111-.79-.321a1.11 1.11 0 0 1 0-1.568l4.153-4.148-4.154-4.147a1.109 1.109 0 1 1 1.57-1.568l4.945 4.938a1.11 1.11 0 0 1 0 1.567L18.73 18.73c-.222.222-.507.32-.791.32zm-9.89 0c-.284 0-.569-.111-.791-.321l-4.945-4.938a1.11 1.11 0 0 1 0-1.568L7.27 7.274a1.109 1.109 0 1 1 1.57 1.568l-4.154 4.147 4.154 4.148a1.11 1.11 0 0 1 0 1.567 1.1 1.1 0 0 1-.791.321z"/>
</svg>