<svg xmlns="http://www.w3.org/2000/svg" width="26" height="26" fill="currentColor" class="sym sym-coins" viewBox="0 0 26 26">
  <path d="M10.573 22C6.953 22 4 19.047 4 15.427c0-3.094 2.154-5.693 5.036-6.391A6.594 6.594 0 0 1 15.427 4C19.047 4 22 6.953 22 10.573a6.594 6.594 0 0 1-5.036 6.391C16.266 19.846 13.667 22 10.573 22m0-11.326a4.76 4.76 0 0 0-4.753 4.753 4.76 4.76 0 0 0 4.753 4.753 4.75 4.75 0 0 0 4.702-4.086v-.05a4.76 4.76 0 0 0-4.712-5.36zm.415-1.81c3.296.202 5.936 2.852 6.148 6.148a4.78 4.78 0 0 0 3.044-4.439 4.76 4.76 0 0 0-4.753-4.753 4.79 4.79 0 0 0-4.44 3.044m.799 9.496H9.36a.906.906 0 0 1-.91-.91c0-.506.404-.91.91-.91h.303v-1.871a.92.92 0 0 1-1.062-.354.913.913 0 0 1 .253-1.264l1.213-.81a.9.9 0 0 1 .93-.04.92.92 0 0 1 .486.799v3.54h.303c.506 0 .91.404.91.91 0 .505-.404.91-.91.91"/>
</svg>