<svg xmlns="http://www.w3.org/2000/svg" width="26" height="26" fill="currentColor" class="sym sym-coins-solid" viewBox="0 0 26 26">
  <path d="M14.8 4.032c-2.004.194-3.82 1.327-4.93 3.079l-.115.18.774.002c.838.003 1.278.054 1.995.23 2.955.726 5.327 3.146 5.99 6.11.155.695.193 1.055.194 1.857l.002.758.18-.115c.595-.376 1.24-.943 1.646-1.447 2.142-2.656 1.909-6.485-.54-8.84a6.5 6.5 0 0 0-5.225-1.812z"/>
  <path fill-rule="evenodd" d="M10.042 8.947a6.5 6.5 0 0 0-3.469 1.311l.016-.012A6.6 6.6 0 0 0 4.2 13.822l-.01.046a6.8 6.8 0 0 0 .002 3.209 6.58 6.58 0 0 0 2.683 3.817l.023.015A6.3 6.3 0 0 0 10.518 22c1.087 0 1.966-.197 2.89-.653a6.56 6.56 0 0 0 3.457-4.221l.01-.046c.255-.991.255-2.19 0-3.216-.744-2.859-3.3-4.934-6.343-4.934q-.259 0-.513.02zm.82 3.313c.198.09.32.21.413.407l.077.164v3.852h.24c.352 0 .556.071.745.26a.9.9 0 0 1 .26.575c0 .324-.276.691-.59.784-.259.077-2.689.077-2.947 0-.315-.093-.592-.46-.592-.784 0-.184.109-.43.258-.578.184-.184.398-.258.748-.258h.24v-2.127l-.114.047a1 1 0 0 1-.294.047h-.002a.79.79 0 0 1-.723-.434.77.77 0 0 1 .006-.782l-.001.003c.093-.166.152-.215.77-.634.368-.25.743-.489.833-.533a.82.82 0 0 1 .672-.01"/>
</svg>