<svg xmlns="http://www.w3.org/2000/svg" width="26" height="26" fill="currentColor" class="sym sym-colors" viewBox="0 0 26 26">
  <path d="M16.236 22A5.8 5.8 0 0 1 13 21.009 5.7 5.7 0 0 1 9.764 22 5.774 5.774 0 0 1 4 16.236a5.79 5.79 0 0 1 3.367-5.248 6 6 0 0 1-.131-1.224A5.774 5.774 0 0 1 13 4a5.774 5.774 0 0 1 5.633 6.988A5.78 5.78 0 0 1 22 16.236 5.774 5.774 0 0 1 16.236 22m-1.87-2.296a4 4 0 0 0 1.87.476 3.95 3.95 0 0 0 3.944-3.944c0-1.527-.88-2.892-2.215-3.55a5.8 5.8 0 0 1-2.568 2.316c.09.405.131.81.131 1.234a5.73 5.73 0 0 1-1.163 3.468m-6.331-7.017a3.95 3.95 0 0 0-2.215 3.549 3.95 3.95 0 0 0 3.944 3.944 3.95 3.95 0 0 0 3.873-4.682q-.319.03-.637.03a5.76 5.76 0 0 1-4.965-2.841M13 5.82a3.95 3.95 0 0 0-3.944 3.944A3.95 3.95 0 0 0 13 13.708a3.95 3.95 0 0 0 3.944-3.944A3.95 3.95 0 0 0 13 5.82"/>
</svg>