<svg xmlns="http://www.w3.org/2000/svg" width="26" height="26" fill="currentColor" class="sym sym-columns-03" viewBox="0 0 26 26">
  <path d="M16.775 22h-7.55c-1.597 0-2.486 0-3.254-.394a3.6 3.6 0 0 1-1.577-1.577C4 19.261 4 18.432 4 16.775v-7.55c0-1.657 0-2.486.394-3.254a3.55 3.55 0 0 1 1.577-1.577C6.739 4 7.618 4 9.225 4h7.55c1.597 0 2.486 0 3.254.394.677.344 1.223.89 1.577 1.577C22 6.739 22 7.568 22 9.225v7.55c0 1.657 0 2.486-.394 3.254a3.55 3.55 0 0 1-1.577 1.577c-.768.394-1.647.394-3.254.394m-.172-1.82h.172c1.314 0 2.041 0 2.426-.191a1.76 1.76 0 0 0 .778-.779c.192-.384.192-1.111.192-2.425v-7.55c0-1.324 0-2.041-.192-2.425a1.76 1.76 0 0 0-.778-.779c-.385-.192-1.112-.192-2.426-.192h-.172v14.352zm-5.387 0h3.568V5.83h-3.568zM9.226 5.83c-1.315 0-2.042 0-2.426.191a1.76 1.76 0 0 0-.779.779c-.192.384-.192 1.111-.192 2.425v7.55c0 1.324 0 2.041.192 2.426.172.343.445.606.779.778.384.192 1.111.192 2.425.192h.172V5.819h-.172z"/>
</svg>