<svg xmlns="http://www.w3.org/2000/svg" width="26" height="26" fill="currentColor" class="sym sym-columns" viewBox="0 0 26 26">
  <path d="M8.32 22h-.536c-1.113 0-1.73 0-2.307-.293a2.68 2.68 0 0 1-1.184-1.184C4 19.946 4 19.329 4 18.216V7.784c0-1.113 0-1.73.293-2.307.263-.516.668-.92 1.184-1.184C6.054 4 6.671 4 7.784 4h.536c1.113 0 1.73 0 2.307.293.516.263.92.678 1.184 1.184.293.577.293 1.194.293 2.307v10.432c0 1.113 0 1.73-.293 2.307-.263.506-.668.92-1.184 1.184C10.05 22 9.433 22 8.32 22M7.784 5.811c-.779 0-1.295 0-1.477.101a.83.83 0 0 0-.385.385c-.1.192-.1.708-.1 1.477v10.432c0 .779 0 1.295.1 1.477a.83.83 0 0 0 .385.384c.192.102.708.102 1.477.102h.536c.78 0 1.295 0 1.488-.102a.83.83 0 0 0 .384-.384c.101-.192.101-.708.101-1.487V7.764c0-.78 0-1.295-.1-1.477a.96.96 0 0 0-.385-.395c-.193-.101-.709-.101-1.478-.101h-.536zM18.216 22h-.536c-1.113 0-1.73 0-2.307-.293a2.73 2.73 0 0 1-1.184-1.184c-.293-.577-.293-1.194-.293-2.307V7.784c0-1.113 0-1.73.293-2.307a2.73 2.73 0 0 1 1.184-1.184C15.95 4 16.567 4 17.68 4h.536c1.113 0 1.73 0 2.307.293.516.263.92.668 1.184 1.184C22 6.054 22 6.671 22 7.784v10.432c0 1.113 0 1.73-.293 2.307a2.68 2.68 0 0 1-1.184 1.184c-.577.293-1.194.293-2.307.293M17.68 5.811c-.78 0-1.295 0-1.488.101a.83.83 0 0 0-.384.385c-.101.192-.101.708-.101 1.487v10.432c0 .779 0 1.295.1 1.477a.96.96 0 0 0 .385.395c.193.1.709.1 1.478.1h.536c.779 0 1.295 0 1.477-.1a.83.83 0 0 0 .384-.385c.102-.192.102-.708.102-1.477V7.794c0-.779 0-1.295-.102-1.477a.83.83 0 0 0-.384-.384c-.192-.102-.708-.102-1.477-.102h-.536z"/>
</svg>