<svg xmlns="http://www.w3.org/2000/svg" width="26" height="26" fill="currentColor" class="sym sym-columns-solid" viewBox="0 0 26 26">
  <path d="M6.612 4.022c-.64.047-.97.143-1.375.402-.451.288-.866.786-1.042 1.25-.204.54-.195.205-.195 7.32 0 7.12-.009 6.78.197 7.325.23.61.858 1.236 1.472 1.469.457.172.673.19 2.366.19s1.91-.019 2.366-.19c.614-.233 1.242-.859 1.473-1.47.205-.544.197-.203.197-7.324 0-5.915-.006-6.567-.059-6.828a2.5 2.5 0 0 0-.392-.967 2.58 2.58 0 0 0-1.677-1.124l-.016-.003c-.324-.062-2.668-.097-3.316-.05m9.894-.014c-.827.078-1.337.296-1.817.775-.443.443-.683.959-.758 1.628-.054.483-.054 12.683 0 13.166.052.47.178.848.389 1.167.474.723 1.128 1.12 1.997 1.218.45.05 2.81.05 3.26 0 .47-.052.848-.178 1.167-.388.723-.475 1.121-1.128 1.219-1.998.026-.235.038-2.37.038-6.583 0-4.211-.013-6.348-.038-6.583a4 4 0 0 0-.134-.654l.008.03c-.208-.657-.838-1.324-1.497-1.585-.425-.168-.611-.184-2.194-.195a49 49 0 0 0-1.688.003z"/>
</svg>