<svg xmlns="http://www.w3.org/2000/svg" width="26" height="26" fill="currentColor" class="sym sym-columns-02-solid" viewBox="0 0 26 26">
  <path d="M6.614 4.01c-.809.068-1.337.294-1.815.773-.443.442-.683.958-.758 1.627-.055.484-.055 12.683 0 13.167.021.19.078.472.126.624.224.71.924 1.41 1.634 1.634.464.146.829.165 3.238.165 2.579 0 2.528.005 2.801-.27.293-.292.27.47.27-8.737 0-9.003.014-8.411-.216-8.689a1 1 0 0 0-.274-.213l-.006-.003-.17-.084L9.1 4c-1.288-.002-2.407.003-2.487.01m8.091.01c-.337.046-.559.207-.7.507l-.075.162v16.609l.076.162c.09.199.247.356.441.444l.005.002c.16.075.195.076 2.631.073 2.647-.003 2.762-.009 3.249-.192.614-.233 1.241-.859 1.472-1.47.206-.544.197-.203.197-7.324 0-7.122.009-6.78-.197-7.325-.23-.61-.858-1.237-1.472-1.469-.465-.176-.593-.184-3.087-.196-1.288-.007-2.431 0-2.54.016"/>
</svg>