<svg xmlns="http://www.w3.org/2000/svg" width="26" height="26" fill="currentColor" class="sym sym-columns-03-solid" viewBox="0 0 26 26">
  <path d="M6.614 4.018c-.798.065-1.337.294-1.815.772-.443.442-.683.958-.758 1.627-.055.484-.055 12.678 0 13.161.052.47.177.848.388 1.167.475.723 1.128 1.12 1.998 1.217.435.049 1.299.051 1.47.003.168-.046.412-.259.51-.445l.081-.149V4.624l-.08-.15c-.1-.187-.329-.383-.509-.439-.127-.037-.902-.048-1.285-.017m4.486.011c-.336.045-.558.206-.698.505l-.076.162V21.3l.075.162a.9.9 0 0 0 .442.444l.005.002c.159.074.205.076 2.162.076 1.958 0 2.004-.002 2.163-.076.2-.09.356-.247.444-.44l.002-.006.076-.162V4.696l-.076-.162a.9.9 0 0 0-.44-.444l-.006-.002c-.158-.074-.214-.076-2.018-.081-1.02-.003-1.945.006-2.054.022m7.071-.002c-.349.09-.578.372-.624.768-.04.344-.04 16.065 0 16.41.038.322.153.508.416.67l.177.108.704-.006c1.012-.01 1.432-.1 1.913-.41.459-.297.872-.79 1.045-1.247.206-.545.197-.203.197-7.322s.009-6.777-.197-7.322a2.9 2.9 0 0 0-.625-.917 2.47 2.47 0 0 0-1.316-.676l-.015-.002c-.335-.06-1.51-.098-1.675-.054"/>
</svg>