<svg xmlns="http://www.w3.org/2000/svg" width="26" height="26" fill="currentColor" class="sym sym-command" viewBox="0 0 26 26">
  <path d="M18.392 22a3.61 3.61 0 0 1-3.608-3.608v-1.789h-3.568v1.789A3.61 3.61 0 0 1 7.608 22 3.61 3.61 0 0 1 4 18.392a3.61 3.61 0 0 1 3.608-3.608h1.789v-3.568H7.608A3.61 3.61 0 0 1 4 7.608 3.61 3.61 0 0 1 7.608 4a3.61 3.61 0 0 1 3.608 3.608v1.789h3.568V7.608A3.61 3.61 0 0 1 18.392 4 3.61 3.61 0 0 1 22 7.608a3.61 3.61 0 0 1-3.608 3.608h-1.789v3.568h1.789A3.61 3.61 0 0 1 22 18.392 3.61 3.61 0 0 1 18.392 22m-1.789-5.387v1.789c0 .98.798 1.789 1.789 1.789s1.789-.799 1.789-1.789-.799-1.789-1.79-1.789zm-8.995 0c-.98 0-1.789.799-1.789 1.789s.799 1.789 1.79 1.789c.99 0 1.788-.799 1.788-1.789v-1.789zm3.608-1.82h3.568v-3.567h-3.568zm5.387-5.386h1.789c.98 0 1.789-.798 1.789-1.789s-.799-1.789-1.79-1.789c-.99 0-1.788.799-1.788 1.79zM7.608 5.84c-.98 0-1.789.799-1.789 1.79 0 .99.799 1.788 1.79 1.788h1.788v-1.79c0-.98-.798-1.789-1.789-1.789"/>
</svg>