<svg xmlns="http://www.w3.org/2000/svg" width="26" height="26" fill="currentColor" class="sym sym-command-solid" viewBox="0 0 26 26">
  <path fill-rule="evenodd" d="M7.074 4.021a3.9 3.9 0 0 0-1.534.605c-.7.476-1.205 1.194-1.443 2.052-.086.314-.097.415-.097.911 0 .498.01.597.1.916.375 1.356 1.419 2.335 2.788 2.613.321.066.496.075 1.432.075h1.068v3.598l-1.181.016c-1.349.018-1.52.044-2.12.33-1.024.484-1.69 1.272-1.99 2.354-.086.313-.097.414-.097.91 0 .498.01.598.1.917a3.67 3.67 0 0 0 2.127 2.422l.025.009a3.63 3.63 0 0 0 3.57-.527 3.55 3.55 0 0 0 1.29-2.1l.004-.023c.065-.322.075-.497.075-1.433V16.6h3.598l.016 1.198c.015 1.172.017 1.207.113 1.54a3.66 3.66 0 0 0 2.15 2.411c1.634.651 3.552-.004 4.438-1.515.954-1.63.487-3.744-1.06-4.795a4.4 4.4 0 0 0-1.15-.528l-.03-.009c-.274-.07-.422-.08-1.486-.094l-1.18-.016v-3.598h1.066c1.19 0 1.53-.043 2.07-.257a3.67 3.67 0 0 0 2.147-2.41l.006-.026c.084-.31.095-.421.095-.912 0-.488-.011-.603-.094-.905a3.64 3.64 0 0 0-1.432-2.05l-.011-.007a4.3 4.3 0 0 0-1.169-.532l-.03-.008c-.46-.113-1.233-.113-1.692 0-1.28.319-2.271 1.284-2.64 2.572-.092.327-.096.368-.11 1.534l-.016 1.199h-3.593l-.014-1.18c-.013-1.137-.018-1.194-.108-1.528a3.64 3.64 0 0 0-1.432-2.049l-.011-.007a4.2 4.2 0 0 0-1.152-.526l-.03-.007c-.348-.085-1.06-.123-1.375-.073zm.857 1.805a1.83 1.83 0 0 1 1.418 1.419c.022.12.039.642.039 1.18v.967h-.99c-.583 0-1.068-.016-1.18-.04-.515-.107-1.026-.506-1.249-.974a1.78 1.78 0 0 1 .35-2.053c.441-.44.995-.611 1.612-.499m10.815 0c.723.133 1.312.748 1.427 1.489a1.81 1.81 0 0 1-1.393 2.034l-.012.002c-.113.024-.598.04-1.18.04h-.99v-.967c0-.538.017-1.06.038-1.18a1.76 1.76 0 0 1 .498-.92h.001c.44-.44.994-.61 1.61-.498m-3.95 8.972H11.19v-3.604h3.605zm-5.408 2.769c0 .537-.017 1.06-.038 1.18-.125.68-.71 1.274-1.396 1.417a1.804 1.804 0 0 1-1.98-2.561l-.005.01c.221-.463.748-.877 1.238-.97.1-.02.631-.037 1.18-.04l1-.003zm9.358-.928c.723.132 1.312.747 1.427 1.488.168 1.08-.683 2.077-1.773 2.077-.84 0-1.613-.64-1.764-1.457-.021-.12-.038-.642-.038-1.18V16.6h.967c.538 0 1.061.017 1.18.039"/>
</svg>