<svg xmlns="http://www.w3.org/2000/svg" width="26" height="26" fill="currentColor" class="sym sym-compass-02" viewBox="0 0 26 26">
  <path fill-rule="evenodd" d="M17.926 8.074c.29.29.381.724.233 1.107l-2.353 6.043c-.105.27-.32.485-.59.59L9.18 18.159a1.035 1.035 0 0 1-1.34-1.34l2.353-6.044c.106-.27.32-.485.59-.59l6.036-2.345a1.03 1.03 0 0 1 1.107.234m-5.968 3.876-1.334 3.427 3.418-1.328 1.333-3.426z"/>
  <path fill-rule="evenodd" d="m11.158 11.15 3.69 3.691-6.043 2.353z"/>
  <path fill-rule="evenodd" d="M13 4.07a8.93 8.93 0 1 0 0 17.86 8.93 8.93 0 0 0 0-17.86M2 13C2 6.925 6.925 2 13 2s11 4.925 11 11-4.925 11-11 11S2 19.075 2 13"/>
</svg>