<svg xmlns="http://www.w3.org/2000/svg" width="26" height="26" fill="currentColor" class="sym sym-compass" viewBox="0 0 26 26">
  <path d="M20.136 21.999a.89.89 0 0 1-.771-.455l-1.75-3.076c-2.836 1.437-6.374 1.437-9.2 0l-1.75 3.076a.88.88 0 0 1-1.216.333.923.923 0 0 1-.326-1.244l1.76-3.106a10.5 10.5 0 0 1-1.661-1.548.927.927 0 0 1 .079-1.285.876.876 0 0 1 1.255.081c.376.435.78.82 1.226 1.174l3.083-5.443a2.95 2.95 0 0 1-.731-1.953c0-1.305.83-2.408 1.976-2.793v-.85c0-.505.396-.91.89-.91s.89.405.89.91v.85a2.93 2.93 0 0 1 1.976 2.793 2.95 2.95 0 0 1-.731 1.952l3.083 5.444a8.5 8.5 0 0 0 1.226-1.174.876.876 0 0 1 1.255-.08c.366.333.405.91.08 1.284a10.5 10.5 0 0 1-1.661 1.548l1.759 3.106a.923.923 0 0 1-.326 1.244.9.9 0 0 1-.445.122zm-10.822-5.11c2.293 1.124 5.12 1.124 7.412 0l-3.103-5.473c-.386.081-.81.081-1.196 0L9.323 16.89zm3.182-7.375c.316.182.741.182 1.057 0 0 0 .01 0 .02-.01 0 0 .01 0 .02-.01.316-.192.524-.547.524-.951 0-.617-.485-1.113-1.087-1.113-.603 0-1.087.496-1.087 1.113 0 .404.207.759.523.95 0 0 .01 0 .02.01 0 0 .01 0 .02.011z"/>
</svg>