<svg xmlns="http://www.w3.org/2000/svg" width="26" height="26" fill="currentColor" class="sym sym-compass-solid" viewBox="0 0 26 26">
  <path fill-rule="evenodd" d="M12.73 4.043c-.182.07-.33.2-.424.364l-.002.004c-.087.152-.089.168-.1.745l-.01.591-.194.077a2.86 2.86 0 0 0-1.792 2.664v.008c0 .709.207 1.28.68 1.885l.068.083-1.589 2.798c-.873 1.539-1.6 2.81-1.615 2.825-.044.045-.449-.303-1.01-.868-.304-.305-.563-.537-.632-.567a1 1 0 0 0-.313-.05h-.003c-.58 0-.962.6-.72 1.131.13.286 1.062 1.22 1.66 1.664.1.075.184.147.184.159s-.412.749-.917 1.637c-.504.888-.936 1.667-.959 1.73a.84.84 0 0 0 .195.836.77.77 0 0 0 1.12 0c.082-.086.466-.731 1.036-1.742L8.3 18.41l.409.19a10.1 10.1 0 0 0 4.292.944c1.555 0 3.03-.348 4.356-.971l-.065.027.41-.19.906 1.607c.57 1.01.955 1.656 1.037 1.742a.77.77 0 0 0 1.118 0 .84.84 0 0 0 .195-.836c-.022-.063-.453-.841-.959-1.73a26 26 0 0 1-.718-1.248l-.198-.39c0-.011.084-.083.184-.158.597-.443 1.53-1.378 1.66-1.664a.8.8 0 0 0 .07-.331.81.81 0 0 0-.448-.73l-.005-.001a.94.94 0 0 0-.653-.018c-.07.03-.328.262-.631.566-.563.565-.968.914-1.011.87a250 250 0 0 1-1.615-2.826l-1.589-2.798.067-.084c.473-.605.68-1.176.68-1.885v-.008c0-1.21-.735-2.243-1.774-2.658l-.02-.006-.197-.079v-.524c0-.589-.022-.709-.17-.906-.197-.263-.604-.387-.9-.272m.27 7.301c.184 0 .408-.012.497-.027l.161-.026 1.61 2.834c.884 1.56 1.6 2.849 1.59 2.865-.025.042-.67.317-1.056.451a8.5 8.5 0 0 1-2.801.467 8.6 8.6 0 0 1-3.156-.594l.061.02c-.382-.146-.78-.329-.78-.358 0-.012.724-1.296 1.607-2.854l1.607-2.831.161.026c.09.015.314.027.498.027"/>
</svg>