<svg xmlns="http://www.w3.org/2000/svg" width="26" height="26" fill="currentColor" class="sym sym-conference-solid" viewBox="0 0 26 26">
  <path d="M15.097 2c.68 0 1.267 0 1.736.063.503.068.985.22 1.377.611.39.391.543.874.61 1.377.064.47.064 1.055.064 1.736V6.91c0 .68 0 1.267-.063 1.736-.068.503-.22.985-.612 1.376-.39.392-.873.544-1.376.612-.47.063-1.055.063-1.736.063h-.841l-2.877 1.917a.767.767 0 0 1-1.193-.638v-1.283a9 9 0 0 1-1.019-.06c-.503-.067-.985-.22-1.376-.61-.391-.392-.544-.874-.611-1.377-.064-.47-.064-1.056-.063-1.736V5.787c0-.68 0-1.267.063-1.736.067-.503.22-.986.61-1.377.392-.39.874-.543 1.377-.611C9.637 2 10.223 2 10.903 2zM3.967 19.26a5.16 5.16 0 0 1 5.787 0c.317.2 1.04.659 1.419 1.076.24.266.494.642.54 1.119.05.512-.152.982-.522 1.378-.56.6-1.309 1.167-2.325 1.167h-4.01c-1.017 0-1.766-.567-2.325-1.167-.37-.396-.573-.866-.524-1.378.047-.477.3-.853.541-1.119.38-.417 1.102-.875 1.42-1.076m12.278 0a5.16 5.16 0 0 1 5.787 0c.317.2 1.04.659 1.419 1.076.24.266.494.642.54 1.119.05.512-.152.982-.523 1.378-.56.6-1.308 1.167-2.324 1.167h-4.01c-1.017 0-1.766-.567-2.326-1.167-.37-.396-.572-.866-.523-1.378.047-.477.3-.853.541-1.119.38-.417 1.102-.875 1.42-1.076m-12.2-4.725a2.814 2.814 0 1 1 5.628 0 2.814 2.814 0 0 1-5.628 0m12.279 0a2.814 2.814 0 1 1 5.628 0 2.814 2.814 0 0 1-5.628 0"/>
</svg>