<svg xmlns="http://www.w3.org/2000/svg" width="26" height="26" fill="currentColor" class="sym sym-conference" viewBox="0 0 26 26">
  <path d="M4.118 19.236a5.12 5.12 0 0 1 5.585.107l.262.167c.327.208.814.531 1.154.906.238.262.483.628.528 1.09.042.431-.102.835-.382 1.19l-.128.15C10.58 23.443 9.841 24 8.843 24H4.811c-.873 0-1.547-.426-2.076-.933l-.218-.222c-.363-.39-.558-.846-.51-1.34.045-.46.291-.827.529-1.09.453-.498 1.167-.906 1.415-1.072zm12.345 0a5.12 5.12 0 0 1 5.585.107l.263.167c.326.208.813.531 1.153.906.238.262.484.628.529 1.09.042.431-.102.835-.382 1.19l-.128.15c-.559.598-1.297 1.154-2.295 1.154h-4.031c-.873 0-1.547-.426-2.076-.933l-.218-.222c-.364-.39-.558-.846-.51-1.34.045-.46.29-.827.528-1.09.453-.498 1.168-.906 1.415-1.072zm-7.553 1.29a3.7 3.7 0 0 0-3.922-.15l-.244.15c-.4.268-.856.52-1.154.848-.137.151-.163.24-.166.27a.1.1 0 0 0 .01.052.6.6 0 0 0 .125.177l.166.17c.381.365.722.532 1.086.533h4.032c.416 0 .802-.22 1.253-.703l.087-.109q.029-.044.037-.068a.1.1 0 0 0 .01-.052c-.003-.03-.028-.119-.166-.27a3 3 0 0 0-.538-.447zm12.345 0a3.7 3.7 0 0 0-3.922-.15l-.244.15c-.4.268-.855.52-1.153.848-.138.151-.163.24-.166.27a.1.1 0 0 0 .01.052.6.6 0 0 0 .124.177l.166.17c.382.365.723.533 1.087.533h4.031c.416 0 .802-.22 1.253-.703l.088-.109q.027-.044.037-.068a.1.1 0 0 0 .009-.052c-.003-.03-.028-.119-.165-.27a3 3 0 0 0-.539-.447zM8.172 14.543a1.345 1.345 0 1 0-2.689 0 1.345 1.345 0 0 0 2.69 0m12.346 0a1.345 1.345 0 1 0-2.69 0 1.345 1.345 0 0 0 2.69 0M17.43 5.799c0-.748 0-1.238-.05-1.6-.045-.34-.12-.46-.192-.532-.072-.071-.192-.147-.533-.192-.361-.05-.85-.05-1.599-.05h-4.114c-.748 0-1.237 0-1.6.05-.34.045-.46.12-.532.192-.071.072-.147.192-.192.533-.05.361-.05.85-.05 1.599v1.028c0 .748 0 1.237.05 1.599.045.34.12.46.192.532s.192.147.533.193c.362.049.851.05 1.599.05.393 0 .712.319.712.712v.726l1.979-1.318.09-.051a.7.7 0 0 1 .305-.069h1.028c.748 0 1.237-.001 1.6-.05.34-.046.46-.121.532-.193.071-.072.147-.191.192-.532.05-.362.05-.851.05-1.599zm-7.834 8.744a2.77 2.77 0 1 1-5.54 0 2.77 2.77 0 0 1 5.54 0m12.345 0a2.77 2.77 0 1 1-5.54 0 2.77 2.77 0 0 1 5.54 0m-3.086-7.716c0 .707.002 1.31-.062 1.789-.067.499-.218.969-.598 1.35-.38.38-.85.53-1.35.597-.478.065-1.081.063-1.789.063h-.812l-2.907 1.938a.712.712 0 0 1-1.108-.593V10.62a9 9 0 0 1-1.075-.057c-.5-.067-.97-.217-1.35-.598-.38-.38-.53-.85-.598-1.35-.064-.478-.063-1.08-.063-1.788V5.799c0-.708-.001-1.31.063-1.788.067-.5.217-.97.597-1.35s.851-.53 1.35-.598C9.635 2 10.236 2 10.944 2h4.114c.708 0 1.31-.001 1.79.063.498.067.968.217 1.349.597.38.38.53.851.598 1.35.064.48.062 1.081.062 1.789z"/>
</svg>