<svg xmlns="http://www.w3.org/2000/svg" width="26" height="26" fill="currentColor" class="sym sym-copy-solid" viewBox="0 0 26 26">
  <path d="M10.928 2.027c-.93.06-1.55.334-2.102.929-.564.607-.77 1.202-.786 2.274-.006.371.009.535.054.64.345.794 1.487.794 1.826 0 .036-.083.072-.357.09-.666.033-.558.075-.696.274-.91.2-.215.37-.27.94-.304.31-.018.584-.054.666-.09.782-.333.795-1.494.02-1.814-.18-.075-.47-.093-.98-.058zm3.865-.004a.97.97 0 0 0-.755.946v.02c0 .396.187.698.553.893.155.084.208.087 1.422.087s1.267-.003 1.422-.087c.367-.195.553-.498.553-.894s-.186-.698-.553-.894c-.153-.082-.217-.086-1.342-.093-.65-.004-1.235.006-1.301.023m5.513.008c-.924.171-1.042 1.495-.168 1.868.082.036.357.072.666.09.57.034.74.09.941.304.199.214.24.352.273.91.033.56.077.718.264.941.358.423 1.12.423 1.477 0 .205-.244.237-.369.229-.915-.016-1.127-.232-1.707-.867-2.342-.616-.616-1.16-.825-2.262-.872a3.4 3.4 0 0 0-.57.017zM4.904 8.015c-.9.078-1.485.327-2.017.86-.492.491-.76 1.064-.843 1.808-.059.532-.059 10.09 0 10.623.058.523.198.942.432 1.297.528.803 1.253 1.244 2.22 1.352.531.06 10.094.06 10.627 0 .522-.057.942-.197 1.296-.43.803-.528 1.245-1.254 1.354-2.22.059-.531.059-10.09 0-10.623-.058-.522-.198-.942-.432-1.296-.454-.69-1.08-1.128-1.867-1.307-.247-.057-.893-.064-5.445-.07a553 553 0 0 0-5.503.007zm17.896.011c-.297.08-.537.277-.672.537l-.003.006c-.084.156-.087.208-.087 1.422s.003 1.267.087 1.422c.195.366.498.553.894.553s.699-.187.895-.553c.083-.155.086-.208.086-1.422s-.003-1.266-.086-1.422c-.223-.416-.704-.65-1.115-.543m-.202 5.582a1 1 0 0 0-.488.499l-.002.006c-.035.082-.072.356-.09.665-.033.558-.074.696-.273.91-.2.215-.37.27-.941.304-.31.018-.583.054-.666.09-.795.339-.795 1.48 0 1.826.104.045.268.059.64.053 1.127-.016 1.707-.231 2.343-.866.635-.636.85-1.216.866-2.343.006-.371-.008-.535-.053-.64a1 1 0 0 0-1.342-.502z"/>
</svg>