<svg xmlns="http://www.w3.org/2000/svg" width="26" height="26" fill="currentColor" class="sym sym-copy" viewBox="0 0 26 26">
  <path d="M13.812 24H6.146c-1.23 0-1.917 0-2.542-.323a2.9 2.9 0 0 1-1.281-1.282C2 21.77 2 21.094 2 19.852v-7.67c0-1.23 0-1.917.323-2.543a2.9 2.9 0 0 1 1.28-1.281c.626-.323 1.302-.323 2.543-.323h7.666c1.23 0 1.917 0 2.542.323.555.282.999.726 1.281 1.281.323.626.323 1.302.323 2.544v7.67c0 1.23 0 1.917-.323 2.542-.282.556-.726 1-1.281 1.282-.625.323-1.301.323-2.542.323M6.146 9.872c-.918 0-1.473 0-1.715.12a1.13 1.13 0 0 0-.484.485c-.121.232-.121.797-.121 1.716v7.67c0 .918 0 1.473.12 1.715.102.202.283.384.485.484.232.121.797.121 1.715.121h7.666c.918 0 1.473 0 1.715-.12.202-.101.383-.283.484-.485.121-.232.121-.797.121-1.716v-7.67c0-.918 0-1.473-.121-1.715a1.12 1.12 0 0 0-.484-.484c-.232-.121-.797-.121-1.715-.121zm14.424 8.073a.915.915 0 0 1-.907-.898c0-.505.393-.919.897-.919.485 0 .848-.03 1.02-.12.2-.102.382-.283.483-.485.091-.172.111-.535.121-1.02a.91.91 0 0 1 .908-.898h.01c.505 0 .898.414.898.919-.01.797-.06 1.322-.313 1.816-.282.555-.726 1-1.28 1.282-.495.252-1.02.303-1.826.313h-.01zm2.522-6.055a.904.904 0 0 1-.908-.908V8.963c0-.504.404-.908.908-.908.505 0 .908.404.908.908v2.019a.904.904 0 0 1-.908.908m0-5.55a.915.915 0 0 1-.908-.899c0-.484-.03-.847-.12-1.019a1.12 1.12 0 0 0-.485-.484c-.171-.091-.535-.111-1.019-.121A.909.909 0 0 1 20.57 2h.01c.797.01 1.322.06 1.816.313.555.282.999.726 1.281 1.281.252.495.303 1.02.313 1.827a.904.904 0 0 1-.898.918m-14.112 0h-.01a.904.904 0 0 1-.898-.919c.01-.797.061-1.322.313-1.816.283-.555.726-1 1.281-1.282.495-.252 1.019-.303 1.826-.313h.01c.494 0 .898.404.908.898a.904.904 0 0 1-.898.919c-.484 0-.847.03-1.019.12a1.13 1.13 0 0 0-.484.485c-.09.172-.11.535-.12 1.02a.91.91 0 0 1-.909.898zm8.07-2.523h-2.017a.904.904 0 0 1-.908-.909c0-.504.403-.908.908-.908h2.017c.504 0 .908.404.908.908a.904.904 0 0 1-.908.909"/>
</svg>