<svg xmlns="http://www.w3.org/2000/svg" width="26" height="26" fill="currentColor" class="sym sym-credit-card-solid" viewBox="0 0 26 26">
  <path d="M5.84 6.009c-.79.066-1.311.286-1.781.752-.594.589-.782 1.189-.781 2.477 0 .612.034.744.233.93.236.22-.525.203 9.489.203s9.253.017 9.489-.203c.2-.186.233-.318.233-.93.002-1.033-.107-1.559-.418-2.029a2.6 2.6 0 0 0-1.65-1.146c-.221-.05-.985-.057-7.46-.062-3.966-.003-7.276 0-7.353.007"/>
  <path fill-rule="evenodd" d="M4.055 12.16c-.33.041-.548.199-.686.491-.074.156-.075.19-.072 2.561.003 2.578.009 2.69.189 3.163.228.598.842 1.209 1.442 1.433.54.202.112.192 8.071.192 7.96 0 7.533.01 8.072-.192.6-.224 1.214-.835 1.442-1.433.18-.474.186-.585.189-3.163.002-2.371.002-2.405-.072-2.56a.87.87 0 0 0-.433-.433l-.005-.002-.16-.074-8.891-.005c-4.891-.002-8.98.008-9.086.021m8.415 2.67a.84.84 0 0 1 .446.435.873.873 0 0 1-.44 1.17l-.006.003c-.155.07-.22.071-2.563.072H7.503l-.177-.083a.86.86 0 0 1-.511-.781v-.013c0-.35.188-.641.51-.793l.178-.082h2.404c2.342 0 2.408.002 2.563.071"/>
</svg>