<svg xmlns="http://www.w3.org/2000/svg" width="26" height="26" fill="currentColor" class="sym sym-credit-card" viewBox="0 0 26 26">
  <path d="M19.302 20H6.698c-1.119 0-1.735 0-2.287-.275a2.57 2.57 0 0 1-1.127-1.093C3 18.098 3 17.5 3 16.416V9.585c0-1.085 0-1.683.284-2.217A2.5 2.5 0 0 1 4.41 6.275C4.963 6 5.58 6 6.698 6h12.604c1.119 0 1.735 0 2.287.275.478.236.884.629 1.127 1.093C23 7.902 23 8.5 23 9.585v6.83c0 1.085 0 1.683-.284 2.217a2.53 2.53 0 0 1-1.127 1.093C21.037 20 20.42 20 19.302 20M4.46 11.911v4.505c0 .833 0 1.336.122 1.572.105.204.275.37.486.48.243.117.762.117 1.622.117h12.604c.86 0 1.378 0 1.622-.118.21-.102.38-.275.494-.48.122-.235.122-.738.122-1.571V11.91H4.452zm0-1.415h17.08v-.912c0-.833 0-1.336-.121-1.572a1.1 1.1 0 0 0-.487-.471c-.243-.118-.762-.118-1.622-.118H6.706c-.86 0-1.378 0-1.622.118-.21.102-.38.267-.494.48-.122.227-.122.738-.122 1.571v.912zm7.615 5.008h-4.63a.716.716 0 0 1-.73-.708c0-.393.324-.707.73-.707h4.63c.406 0 .73.314.73.707a.716.716 0 0 1-.73.708"/>
</svg>