<svg xmlns="http://www.w3.org/2000/svg" width="26" height="26" fill="currentColor" class="sym sym-crop" viewBox="0 0 26 26">
  <path d="M17.93 22.075a.906.906 0 0 1-.909-.91v-2.324h-6.205c-1.021 0-1.577 0-2.113-.273a2.52 2.52 0 0 1-1.101-1.102c-.273-.546-.273-1.102-.273-2.112V9.148H5.004a.906.906 0 0 1-.91-.91c0-.505.405-.909.91-.909H7.33V5.005c0-.506.404-.91.91-.91.505 0 .91.404.91.91v10.349c0 .637 0 1.142.08 1.294.07.13.172.242.313.313.152.08.657.08 1.294.08h10.35c.505 0 .909.405.909.91 0 .506-.404.91-.91.91h-2.324v2.324c0 .506-.405.91-.91.91zm0-6.468a.906.906 0 0 1-.909-.91v-3.881c0-.637 0-1.142-.08-1.294a.72.72 0 0 0-.314-.313c-.152-.08-.657-.08-1.294-.08h-3.88a.906.906 0 0 1-.91-.91c0-.506.404-.91.91-.91h3.88c1.021 0 1.577 0 2.113.273.475.242.859.626 1.101 1.101.273.546.273 1.102.273 2.113v3.88c0 .506-.404.91-.91.91z"/>
</svg>