<svg xmlns="http://www.w3.org/2000/svg" width="26" height="26" fill="currentColor" class="sym sym-crop-solid" viewBox="0 0 26 26">
  <path d="M7.804 4.048a.83.83 0 0 0-.435.363l-.001.003-.091.155-.02 2.701H5.969c-1.394 0-1.447.006-1.678.182a1 1 0 0 0-.197.232l-.002.005c-.078.132-.091.19-.091.4s.013.268.09.4c.05.084.14.192.2.236.23.177.284.182 1.68.182h1.29v3.653c0 3.854.007 4.086.15 4.536.204.646.84 1.282 1.486 1.486.452.142.682.15 4.54.15h3.654v1.285c0 .785.014 1.333.035 1.407.05.18.223.387.4.479a.805.805 0 0 0 .958-.141c.24-.24.245-.278.245-1.743V18.73h1.29c1.465 0 1.503-.005 1.743-.245a.81.81 0 0 0-.206-1.3l-.155-.076-11.896-.032L9.35 17a.83.83 0 0 1-.392-.425l-.001-.006c-.03-.086-.044-1.544-.057-6.042L8.882 4.6l-.077-.155a.82.82 0 0 0-1.007-.397l.006-.001"/>
  <path d="M11.176 7.3a.796.796 0 0 0-.618.775v.016q.002.488.452.73c.131.07.148.071 2.82.087 2.674.017 2.687.017 2.818.087.153.083.28.211.364.371.058.108.062.26.078 2.8.017 2.67.017 2.687.087 2.818.16.3.408.452.732.452s.572-.152.732-.452l.071-.132-.003-2.669c-.001-2.874-.004-2.927-.177-3.383-.21-.555-.78-1.124-1.339-1.335-.436-.165-.496-.169-3.298-.18-1.442-.006-2.665.001-2.72.016"/>
</svg>