<svg xmlns="http://www.w3.org/2000/svg" width="26" height="26" fill="currentColor" class="sym sym-crown-2-solid" viewBox="0 0 26 26">
  <path d="M12.11 7.455c-.91 2.584-1.928 3.84-2.855 3.932-1.037.129-1.946-.333-2.8-1.477a1 1 0 0 0-.182-.185 1.865 1.865 0 0 0-.059-2.29 1.8 1.8 0 0 0-1.024-.624c-.401-.085-.819-.03-1.185.156s-.66.492-.834.868a1.87 1.87 0 0 0-.122 1.207c.094.405.32.765.64 1.023a1.8 1.8 0 0 0 1.13.399l.017.221 1.491 5.98c.146.6.485 1.132.962 1.513.478.38 1.067.59 1.675.592h8.072a2.7 2.7 0 0 0 1.675-.592 2.78 2.78 0 0 0 .962-1.512l1.49-5.98a1 1 0 0 0 .019-.222c.41 0 .807-.14 1.128-.399a1.85 1.85 0 0 0 .641-1.023c.095-.405.051-.83-.122-1.207a1.83 1.83 0 0 0-.834-.868 1.8 1.8 0 0 0-1.185-.156c-.4.085-.762.305-1.024.624a1.86 1.86 0 0 0-.059 2.29 1 1 0 0 0-.181.166c-.892 1.145-1.819 1.606-2.8 1.495-.91-.092-1.891-1.365-2.855-3.931.35-.2.626-.512.783-.888s.187-.794.085-1.189a1.85 1.85 0 0 0-.648-.993 1.8 1.8 0 0 0-2.222 0c-.318.25-.546.599-.648.993-.102.395-.072.813.085 1.189s.433.688.783.888m6.345 12.7c.24 0 .472.096.642.27a.93.93 0 0 1 0 1.305.9.9 0 0 1-.643.27H7.545a.9.9 0 0 1-.642-.27.93.93 0 0 1 0-1.306.9.9 0 0 1 .642-.27z"/>
</svg>