<svg xmlns="http://www.w3.org/2000/svg" width="26" height="26" fill="currentColor" class="sym sym-crown-solid" viewBox="0 0 26 26">
  <path fill-rule="evenodd" d="M13 5c-.483 0-.934.264-1.178.699L9.967 9.003c-.321.573-.531.945-.72 1.196-.179.236-.277.28-.345.297s-.174.022-.436-.107c-.278-.137-.627-.372-1.163-.736l-1.032-.7a1.44 1.44 0 0 0-1.84.186 1.53 1.53 0 0 0-.355 1.54l1.893 5.586c.133.393.25.737.377 1.01.138.296.313.566.595.772.28.206.585.288.9.324.292.035.645.034 1.048.034h8.222c.403 0 .756 0 1.047-.034.316-.036.62-.118.901-.324s.457-.477.595-.772a11 11 0 0 0 .377-1.01l1.89-5.579.003-.006a1.53 1.53 0 0 0-.356-1.54 1.44 1.44 0 0 0-1.84-.187l-1.031.7c-.536.364-.885.6-1.163.736-.262.13-.37.124-.436.107-.068-.016-.166-.06-.344-.297-.19-.251-.4-.623-.721-1.196l-1.854-3.304A1.35 1.35 0 0 0 13 5M7.14 19.27a.85.85 0 0 0-.838.865c0 .478.375.865.838.865h11.72a.85.85 0 0 0 .838-.865.85.85 0 0 0-.838-.865z"/>
</svg>