<svg xmlns="http://www.w3.org/2000/svg" width="26" height="26" fill="currentColor" class="sym sym-crown" viewBox="0 0 26 26">
  <path fill-rule="evenodd" d="m12.974 5.771-3.365 6.176a.75.75 0 0 1-1.08.263L4.972 9.804a.13.13 0 0 0-.17.02m8.173-4.053.016-.018L13 5.75l.01.003q.006.004.016.018l3.365 6.176a.75.75 0 0 0 1.079.263l3.554-2.403.005-.003a.13.13 0 0 1 .17.02c.043.045.064.12.042.192l-2.48 7.41H7.24l-2.481-7.41a.2.2 0 0 1 .042-.192m6.86-4.779A1.53 1.53 0 0 1 13 4.25c.563 0 1.07.31 1.339.795l.002.005 2.973 5.455 2.865-1.937.003-.002a1.63 1.63 0 0 1 2.093.213c.437.45.584 1.108.393 1.7l-.003.008-2.654 7.928a.75.75 0 0 1-.711.512H6.7a.75.75 0 0 1-.711-.512l-2.657-7.936a1.7 1.7 0 0 1 .393-1.7 1.63 1.63 0 0 1 2.093-.213l2.868 1.939zM5.95 21a.75.75 0 0 1 .75-.75h12.6a.75.75 0 0 1 0 1.5H6.7a.75.75 0 0 1-.75-.75"/>
</svg>