<svg xmlns="http://www.w3.org/2000/svg" width="26" height="26" fill="currentColor" class="sym sym-crown-2" viewBox="0 0 26 26">
  <path d="m7.546 22-.09-.005a.9.9 0 0 1-.554-.265l.644-.634zM21.18 10.464q.004.112-.016.221l-1.491 5.981a2.77 2.77 0 0 1-.962 1.512l-.185.134a2.7 2.7 0 0 1-1.49.457H8.964v-.153l-.001.153a2.7 2.7 0 0 1-1.49-.456l-.184-.135a2.77 2.77 0 0 1-.962-1.512l-1.491-5.98-.018-.222a1.8 1.8 0 0 1-1.004-.308l-.124-.09a1.85 1.85 0 0 1-.641-1.024l-.001-.001.975-.226a.85.85 0 0 0 .293.47.8.8 0 0 0 .502.179h.405l.246-.333.804.595q.103.08.181.184c.855 1.145 1.765 1.606 2.8 1.477.87-.087 1.82-1.196 2.684-3.463l.171-.469.495-.87.395.227.397-.226a.84.84 0 0 0 .355-.404.87.87 0 0 0 .04-.554.85.85 0 0 0-.297-.456.8.8 0 0 0-.988 0 .85.85 0 0 0-.297.456.87.87 0 0 0 .04.554.84.84 0 0 0 .355.404l-.495.868c-.35-.2-.626-.512-.783-.888l-.053-.142c-.109-.337-.12-.7-.032-1.046.102-.395.33-.744.648-.993a1.8 1.8 0 0 1 2.222 0c.279.218.488.513.604.847l.044.146c.102.395.072.813-.085 1.188a1.84 1.84 0 0 1-.783.89l-.831.31.83-.31c.964 2.564 1.946 3.838 2.855 3.93.982.112 1.91-.35 2.801-1.494a1 1 0 0 1 .182-.166 1.87 1.87 0 0 1-.364-1.157l.011-.154c.04-.36.181-.701.411-.98.263-.32.624-.54 1.025-.624.4-.085.818-.03 1.184.156.32.162.585.417.763.73l.071.138c.174.376.216.802.122 1.206l-.973-.226a.87.87 0 0 0-.057-.561.84.84 0 0 0-.379-.396.794.794 0 0 0-.983.212.86.86 0 0 0-.028 1.06l-.804.595.804-.594.246.333h.405c.18 0 .357-.063.502-.179l.626.78a1.8 1.8 0 0 1-1.128.399zM13 7.926c-.46 1.277-.963 2.293-1.51 3.027-.546.73-1.248 1.33-2.114 1.425h.001-.01l-.014.004-.001-.001c-1.373.162-2.512-.44-3.454-1.564l1.399 5.607v.005l.042.142c.109.327.308.614.573.825.303.242.674.372 1.055.373h8.064a1.7 1.7 0 0 0 1.055-.372c.303-.242.52-.583.614-.968l.001-.005 1.407-5.645c-.971 1.132-2.127 1.748-3.464 1.6v.003c-.88-.09-1.577-.715-2.112-1.44-.54-.733-1.048-1.748-1.532-3.016m9.95 1.115a1.85 1.85 0 0 1-.641 1.023l-.626-.78a.85.85 0 0 0 .294-.47zM4.005 6.967c.32-.163.68-.226 1.034-.182l.15.026c.351.074.672.252.922.51l.103.114a1.864 1.864 0 0 1 .059 2.29l-.804-.594a.865.865 0 0 0-.028-1.06.794.794 0 0 0-.983-.212.84.84 0 0 0-.379.395.87.87 0 0 0-.056.561l-.975.226c-.094-.404-.05-.83.123-1.206.174-.377.468-.682.834-.868m15.354 14.201a.93.93 0 0 1-.261.562.9.9 0 0 1-.554.265l-.09.005H7.546v-.904l-.644.634-.06-.068a.93.93 0 0 1 .06-1.237.9.9 0 0 1 .554-.267l.09-.004h10.908l.09.004a.9.9 0 0 1 .554.267.93.93 0 0 1 .265.652z"/>
</svg>