<svg xmlns="http://www.w3.org/2000/svg" width="26" height="26" fill="currentColor" class="sym sym-cryptocurrency" viewBox="0 0 26 26">
  <path d="M12.51 22a9.52 9.52 0 0 1-5.583-1.8.91.91 0 0 1-.204-1.274.93.93 0 0 1 1.284-.202c2.628 1.9 6.378 1.9 9.017 0a.93.93 0 0 1 1.284.202.915.915 0 0 1-.204 1.274A9.45 9.45 0 0 1 12.52 22zm0-3.832c-3.107 0-5.644-2.508-5.644-5.592s2.526-5.601 5.644-5.601 5.635 2.507 5.635 5.601-2.527 5.592-5.635 5.592m0-9.373c-2.099 0-3.8 1.688-3.8 3.771s1.701 3.772 3.8 3.772c2.1 0 3.8-1.689 3.8-3.772s-1.7-3.771-3.8-3.771m-8.508 5.874a.92.92 0 0 1-.906-.788 9.3 9.3 0 0 1 1.019-5.744 9.37 9.37 0 0 1 4.228-4.044.915.915 0 0 1 1.223.414.9.9 0 0 1-.418 1.214 7.6 7.6 0 0 0-3.413 3.266 7.54 7.54 0 0 0-.826 4.63.913.913 0 0 1-.784 1.032h-.133zm17.006 0h-.133a.915.915 0 0 1-.784-1.031 7.54 7.54 0 0 0-.826-4.631 7.6 7.6 0 0 0-3.413-3.266.9.9 0 0 1-.418-1.213.9.9 0 0 1 1.223-.415 9.48 9.48 0 0 1 4.229 4.045 9.3 9.3 0 0 1 1.018 5.743.92.92 0 0 1-.907.789z"/>
</svg>