<svg xmlns="http://www.w3.org/2000/svg" width="26" height="26" fill="currentColor" class="sym sym-cryptocurrency-solid" viewBox="0 0 26 26">
  <path d="M8.531 4.014c-.28.054-1.16.568-1.838 1.075-.405.303-1.131.997-1.5 1.431-1.083 1.283-1.839 2.962-2.107 4.681-.138.88-.104 2.524.06 2.915.111.265.487.518.77.518.312 0 .667-.22.796-.495.093-.195.097-.302.042-.93-.275-3.067 1.347-6.004 4.129-7.48.38-.201.524-.328.62-.544a.92.92 0 0 0-.157-.928c-.18-.192-.533-.297-.815-.243m7.377.085a.83.83 0 0 0-.375 1.103l-.002-.005c.106.222.212.314.592.515a7.6 7.6 0 0 1 1.887 1.391l.001.002a7.56 7.56 0 0 1 2.133 3.923l.008.049c.127.625.154 1.014.125 1.752-.047 1.215-.05 1.188.07 1.378.155.248.375.372.69.389.214.01.274 0 .426-.077a.83.83 0 0 0 .399-.43l.002-.006c.14-.338.183-1.842.076-2.663a9.46 9.46 0 0 0-2.631-5.444c-.719-.736-1.678-1.43-2.548-1.843-.329-.156-.586-.166-.854-.034zM11.814 7.04c-.97.126-1.84.477-2.58.997l.018-.011A6.7 6.7 0 0 0 7.93 9.34c-.908 1.274-1.232 2.853-.906 4.43.136.656.49 1.45.906 2.033a6.7 6.7 0 0 0 1.323 1.314 5.6 5.6 0 0 0 3.25 1.026 5.6 5.6 0 0 0 2.546-.603l-.032.015a5.4 5.4 0 0 0 1.453-1.046v-.001a5.45 5.45 0 0 0 1.542-2.845l.006-.035c.114-.558.114-1.557 0-2.115a5.3 5.3 0 0 0-.507-1.465l.014.03a5.3 5.3 0 0 0-1.053-1.443h-.002a5.48 5.48 0 0 0-4.02-1.63h.005a7 7 0 0 0-.64.034M7.046 18.762a.84.84 0 0 0-.469.78v-.001c.001.293.133.525.411.723 1.249.888 2.787 1.48 4.361 1.68a12 12 0 0 0 2.313 0c1.574-.2 3.112-.792 4.36-1.68.509-.361.563-1.003.118-1.382-.185-.157-.33-.2-.613-.184-.225.012-.247.023-.664.294a7.9 7.9 0 0 1-3.029 1.214l-.048.007c-.372.066-.552.077-1.28.077-.735 0-.909-.01-1.295-.08a7.95 7.95 0 0 1-3.092-1.236l.028.018-.433-.282-.26-.01c-.213-.009-.29.003-.408.063z"/>
</svg>