<svg xmlns="http://www.w3.org/2000/svg" width="26" height="26" fill="currentColor" class="sym sym-currency-rupee-solid" viewBox="0 0 26 26">
  <path fill-rule="evenodd" d="M12.069 2.024c-2.252.22-4.209 1.004-5.98 2.397-.462.363-1.498 1.433-1.873 1.934C3.057 7.9 2.36 9.586 2.074 11.54c-.099.673-.099 2.251 0 2.924.286 1.952.982 3.637 2.141 5.185.456.608 1.529 1.681 2.137 2.137 1.55 1.158 3.235 1.853 5.187 2.14.673.099 2.253.099 2.926 0 1.952-.286 3.637-.982 5.187-2.14.607-.456 1.68-1.529 2.137-2.137 1.159-1.548 1.854-3.233 2.141-5.185.052-.357.07-.734.07-1.462 0-.729-.018-1.106-.07-1.462-.286-1.953-.984-3.64-2.142-5.185-.375-.501-1.411-1.57-1.873-1.934-1.6-1.259-3.358-2.023-5.33-2.315-.635-.094-1.946-.136-2.516-.082m4.963 4.629c.12.075.242.196.318.318.109.176.12.229.12.522s-.011.346-.12.524c-.138.221-.443.432-.69.471-.083.015-.562.025-1.064.027h-.912l.096.19c.172.341.31.699.382.988l.07.283.778.02c.7.02.795.03.943.109.19.102.403.33.482.518.07.17.07.58 0 .75a1.16 1.16 0 0 1-.526.533c-.187.087-.25.093-.933.093-.553 0-.737.012-.748.05l-.102.37a5 5 0 0 1-.256.682l.013-.03c-.5 1.073-1.367 1.853-2.457 2.212-.225.074-.265.099-.22.141.03.027.85.7 1.822 1.495 1.531 1.25 1.781 1.47 1.86 1.63.24.499.077 1.054-.39 1.329-.165.096-.235.113-.493.113-.238 0-.331-.018-.45-.088-.082-.048-1.43-1.135-2.992-2.415-2.677-2.188-2.85-2.338-2.952-2.545-.093-.188-.105-.258-.093-.495.02-.353.169-.61.453-.786l.196-.12 1.126-.027c1.208-.028 1.38-.053 1.82-.264.313-.15.713-.558.9-.918.048-.084.097-.186.142-.29l.007-.02c0-.013-.87-.024-1.934-.024l-1.934-.001-.2-.093c-.23-.116-.413-.3-.523-.526l-.003-.007a1.2 1.2 0 0 1-.055-.364v-.011c0-.133.025-.302.055-.374a1.2 1.2 0 0 1 .476-.516l.006-.003c.162-.087.195-.088 2.138-.1 1.085-.006 1.974-.021 1.974-.035 0-.012-.067-.15-.15-.305-.204-.389-.507-.707-.846-.885-.441-.231-.66-.265-1.73-.267-.517 0-1.01-.012-1.093-.026-.244-.04-.552-.25-.687-.469a.83.83 0 0 1-.136-.446c-.028-.44.153-.775.519-.957l.213-.106 7.583.021.196.12z"/>
</svg>