<svg xmlns="http://www.w3.org/2000/svg" width="26" height="26" fill="currentColor" class="sym sym-currency-bitcoin-solid" viewBox="0 0 26 26">
  <path d="m11.515 12.01 3.511-.024.22-.104c.32-.15.463-.288.61-.587.112-.227.13-.307.128-.548v-.006c0-.475-.271-.887-.667-1.09l-.007-.002-.204-.108-3.59-.023zm-.031 3.252.012 1.255h1.985c2.322 0 2.265.008 2.652-.378.604-.604.462-1.563-.292-1.971l-.253-.137-4.113-.024z"/>
  <path fill-rule="evenodd" d="M12.539 2.008c-2.322.1-4.616.959-6.44 2.41a14 14 0 0 0-1.678 1.673l-.016.02c-1.026 1.286-1.812 2.926-2.156 4.495-.183.83-.249 1.473-.249 2.402 0 1.788.349 3.293 1.13 4.87.577 1.166 1.18 2.008 2.084 2.91.904.904 1.745 1.506 2.911 2.083C9.705 23.651 11.21 24 13 24s3.296-.349 4.875-1.129c1.158-.573 2.014-1.184 2.911-2.083.899-.897 1.51-1.752 2.084-2.91.781-1.577 1.13-3.082 1.13-4.87 0-1.79-.349-3.294-1.13-4.872-.577-1.166-1.18-2.007-2.084-2.91-.902-.903-1.744-1.504-2.911-2.082a10.9 10.9 0 0 0-5.359-1.135zm-1.144 4.067c.418.19.6.508.602 1.05v.35H13v-.35c0-.285.019-.389.095-.551a1.007 1.007 0 0 1 1.8-.045l.003.005c.064.12.09.26.107.561l.021.4.22.03c1.337.193 2.423 1.234 2.714 2.6.077.365.057 1.104-.042 1.46a4 4 0 0 1-.47 1.015l.01-.016-.122.177.132.102c.19.144.557.638.728.979.235.472.313.829.313 1.433.001.451-.014.57-.106.874-.184.608-.462 1.066-.893 1.473a3.25 3.25 0 0 1-2.104.908H15.4l-.391.024v.346c-.001.534-.186.855-.602 1.043a1.04 1.04 0 0 1-.808-.002l.006.002c-.418-.19-.601-.508-.602-1.05v-.35H12v.35c0 .542-.184.86-.602 1.05a1.04 1.04 0 0 1-1.1-.19h.001c-.21-.195-.304-.465-.306-.856v-.348l-.632-.012c-.61-.015-.639-.019-.842-.13-.348-.194-.532-.5-.532-.887v-.023c0-.374.215-.7.527-.858l.005-.002c.178-.097.268-.117.581-.131l.371-.018V9.532l-.37-.017c-.314-.015-.404-.034-.582-.132a.96.96 0 0 1-.532-.86v-.025.001c0-.387.184-.692.532-.886.204-.112.232-.116.842-.13l.632-.013.001-.348c0-.535.172-.84.58-1.033a1 1 0 0 1 .823-.012z"/>
</svg>