<svg xmlns="http://www.w3.org/2000/svg" width="26" height="26" fill="currentColor" class="sym sym-currency-yen-solid" viewBox="0 0 26 26">
  <path fill-rule="evenodd" d="M12.069 2.024c-2.252.22-4.209 1.004-5.98 2.397-.462.363-1.498 1.433-1.873 1.934C3.057 7.9 2.36 9.586 2.074 11.54c-.099.673-.099 2.251 0 2.924.286 1.952.982 3.637 2.141 5.185.456.608 1.529 1.681 2.137 2.137 1.55 1.158 3.235 1.853 5.187 2.14.673.099 2.253.099 2.926 0 1.952-.286 3.637-.982 5.187-2.14.607-.456 1.68-1.529 2.137-2.137 1.159-1.548 1.854-3.233 2.141-5.185.052-.357.07-.734.07-1.462 0-.729-.018-1.106-.07-1.462-.286-1.953-.984-3.64-2.142-5.185-.375-.501-1.411-1.57-1.873-1.934-1.6-1.259-3.358-2.023-5.33-2.315-.635-.094-1.946-.136-2.516-.082m-2.61 5.09c.162.079.388.343 1.847 2.168.915 1.143 1.677 2.078 1.695 2.078s.78-.935 1.695-2.078c1.81-2.26 1.772-2.222 2.222-2.275.749-.09 1.325.738.986 1.416-.041.084-.693.924-1.448 1.865L15.084 12h1.035c1.195 0 1.316.023 1.592.3a.984.984 0 0 1 0 1.404c-.292.294-.34.3-2.132.3h-1.576V15l1.393.012c1.344.012 1.398.015 1.556.1.19.102.404.33.482.519.071.169.071.58 0 .75-.087.207-.308.43-.526.532-.198.092-.22.093-1.553.094h-1.352v1.075c0 1.237-.021 1.351-.3 1.63a.985.985 0 0 1-1.405 0c-.279-.279-.3-.393-.3-1.63v-1.075h-1.352c-1.333 0-1.355-.002-1.553-.094-.23-.116-.413-.3-.523-.526l-.003-.007a1.2 1.2 0 0 1-.055-.364v-.011c0-.133.025-.302.055-.374.108-.22.274-.396.476-.516l.006-.003c.159-.085.213-.088 1.557-.1L12 15.001v-.997h-1.576c-1.793 0-1.84-.006-2.132-.3a.984.984 0 0 1 0-1.404c.276-.277.397-.3 1.592-.3h1.035l-1.373-1.712c-.754-.942-1.406-1.782-1.45-1.867-.25-.501.015-1.169.54-1.363.232-.084.582-.06.824.057"/>
</svg>