<svg xmlns="http://www.w3.org/2000/svg" width="26" height="26" fill="currentColor" class="sym sym-currency-ruble" viewBox="0 0 26 26">
  <path d="M8.759 21.99a.9.9 0 0 1-.893-.91v-3.85h-.973A.9.9 0 0 1 6 16.32c0-.505.397-.91.893-.91h.973v-1.98h-.973A.9.9 0 0 1 6 12.52c0-.505.397-.91.893-.91h.973v-6.7c0-.506.397-.91.893-.91h5.607C16.916 4 19 6.112 19 8.72s-2.074 4.72-4.634 4.72H9.652v1.98h3.78c.497 0 .894.405.894.91 0 .506-.397.91-.893.91H9.652v3.85c0 .506-.397.91-.893.91zm.893-10.38h4.714c1.568 0 2.838-1.303 2.838-2.89s-1.28-2.89-2.838-2.89H9.652v5.79z"/>
</svg>