<svg xmlns="http://www.w3.org/2000/svg" width="26" height="26" fill="currentColor" class="sym sym-currency-rupiah" viewBox="0 0 26 26">
  <path d="M4.555 18.127H2.5V4.5h5.566c2.951 0 4.539 1.41 4.539 3.926 0 1.734-1.027 2.992-2.503 3.335v.038c3.1.591 1.961 5.966 2.69 6.194v.134h-2.204c-.598-.572.672-5.337-2.597-5.337H4.555zm0-7.147h3.063c1.886 0 2.914-.839 2.914-2.402 0-1.467-.822-2.267-2.877-2.267h-3.1zm14.668-2.859c2.428 0 4.277 1.944 4.277 5.146s-1.85 5.127-4.277 5.127c-1.495 0-2.41-.687-2.933-1.468h-.037V21.5h-1.83V8.407h1.83V9.55h.037c.523-.686 1.438-1.429 2.933-1.429m-.3 8.729c1.794 0 2.653-1.677 2.653-3.583s-.86-3.583-2.652-3.583c-1.644 0-2.652 1.372-2.652 3.583 0 2.192 1.008 3.583 2.652 3.583"/>
</svg>