<svg xmlns="http://www.w3.org/2000/svg" width="26" height="26" fill="currentColor" class="sym sym-currency-dollar" viewBox="0 0 26 26">
  <path d="M13 23c-.476 0-.857-.404-.857-.91v-.908h-.857C8.924 21.182 7 19.142 7 16.636c0-.505.381-.909.857-.909s.857.404.857.91c0 1.504 1.153 2.727 2.572 2.727h.857v-5.455h-.857C8.924 13.91 7 11.87 7 9.364s1.924-4.546 4.286-4.546h.857V3.91c0-.505.38-.909.857-.909.476 0 .857.404.857.91v.908h.857c2.362 0 4.286 2.04 4.286 4.546 0 .505-.381.909-.857.909s-.857-.404-.857-.91c0-1.504-1.153-2.727-2.572-2.727h-.857v5.455h.857c2.362 0 4.286 2.04 4.286 4.545s-1.924 4.546-4.286 4.546h-.857v.909c0 .505-.38.909-.857.909m.857-3.636h.857c1.42 0 2.572-1.223 2.572-2.728s-1.153-2.727-2.572-2.727h-.857zM11.286 6.636c-1.42 0-2.572 1.223-2.572 2.728s1.153 2.727 2.572 2.727h.857V6.636z"/>
</svg>