<svg xmlns="http://www.w3.org/2000/svg" width="26" height="26" fill="currentColor" class="sym sym-currency-dollar-solid" viewBox="0 0 26 26">
  <path fill-rule="evenodd" d="M12.069 2.024c-2.252.22-4.209 1.004-5.98 2.397-.462.363-1.498 1.433-1.873 1.934C3.057 7.9 2.36 9.586 2.074 11.54c-.099.673-.099 2.251 0 2.924.286 1.952.982 3.637 2.141 5.185.456.608 1.529 1.681 2.137 2.137 1.55 1.158 3.235 1.853 5.187 2.14.673.099 2.253.099 2.926 0 1.952-.286 3.637-.982 5.187-2.14.607-.456 1.68-1.529 2.137-2.137 1.159-1.548 1.854-3.233 2.141-5.185.052-.357.07-.734.07-1.462 0-.729-.018-1.106-.07-1.462-.286-1.953-.984-3.64-2.142-5.185-.375-.501-1.411-1.57-1.873-1.934-1.6-1.259-3.358-2.023-5.33-2.315-.635-.094-1.946-.136-2.516-.082m1.308 3.541c.19.08.418.293.517.482.064.124.09.258.102.549l.017.385.368.026c1.418.1 2.567 1.016 2.995 2.39.075.243.093.39.093.783 0 .469-.003.49-.12.68q-.126.195-.313.315l-.004.002c-.177.109-.23.12-.523.12s-.346-.011-.523-.12c-.279-.172-.415-.412-.463-.807a3.4 3.4 0 0 0-.106-.528l.006.023c-.085-.258-.4-.598-.689-.739l-.228-.112-1.312-.012c-1.46-.014-1.644.007-2.003.237-1 .643-.885 2.123.208 2.633l.22.103 1.484.027c1.361.023 1.508.033 1.803.114 1.27.352 2.262 1.396 2.522 2.655a4.4 4.4 0 0 1-.004 1.492l.004-.026c-.226 1.1-1.053 2.088-2.105 2.516-.292.12-.898.255-1.144.255h-.166l-.017.391c-.019.45-.091.631-.345.86a.965.965 0 0 1-1.299-.002v.001c-.252-.228-.324-.408-.344-.859l-.017-.39h-.229c-1.183 0-2.363-.754-2.92-1.864-.231-.463-.307-.79-.307-1.325 0-.468.003-.49.12-.68q.126-.193.313-.314l.004-.002c.177-.109.23-.121.523-.121s.346.012.523.12c.279.173.415.412.463.807.021.174.066.4.1.507.085.261.43.63.707.755.21.093.219.095 1.652.095h1.443l.22-.104c.627-.299.995-.974.879-1.615a1.49 1.49 0 0 0-1.088-1.202l-.01-.002c-.19-.049-.49-.062-1.482-.063-1.363 0-1.691-.038-2.222-.255-1.052-.429-1.878-1.417-2.105-2.516a4.4 4.4 0 0 1 .004-1.492l-.004.026c.304-1.48 1.58-2.61 3.11-2.753l.303-.03.018-.384c.012-.293.038-.427.102-.55.096-.186.324-.4.508-.48.161-.072.592-.073.759-.003z"/>
</svg>