<svg xmlns="http://www.w3.org/2000/svg" width="26" height="26" fill="currentColor" class="sym sym-currency-bitcoin" viewBox="0 0 26 26">
  <path d="M13.532 22a.916.916 0 0 1-.929-.91v-.708H11.16v.708c0 .506-.413.91-.929.91a.916.916 0 0 1-.928-.91v-.708H6.929a.916.916 0 0 1-.929-.91c0-.506.413-.91.929-.91h.722V7.438h-.722A.916.916 0 0 1 6 6.528c0-.506.413-.91.929-.91h2.373V4.91c0-.505.412-.91.928-.91s.929.405.929.91v.708h1.444V4.91c0-.505.413-.91.929-.91s.928.405.928.91v.738c2.095.253 3.715 2.003 3.715 4.116a4.15 4.15 0 0 1-1.228 2.923c1.228.728 2.053 2.042 2.053 3.549 0 2.285-1.898 4.146-4.23 4.146h-.31v.708c0 .506-.412.91-.928.91m-4.024-3.438h5.262c1.31 0 2.373-1.042 2.373-2.326S16.08 13.91 14.77 13.91H9.508zm0-6.472h4.436c1.31 0 2.373-1.042 2.373-2.326s-1.062-2.326-2.373-2.326H9.508z"/>
</svg>