<svg xmlns="http://www.w3.org/2000/svg" width="26" height="26" fill="currentColor" class="sym sym-currency-rupee" viewBox="0 0 26 26">
  <path d="M15.143 22a.84.84 0 0 1-.597-.253l-7.271-7.186a.93.93 0 0 1-.212-1 .88.88 0 0 1 .808-.576h2.568c1.068 0 1.953-.384 2.559-1.102.365-.434.625-.98.76-1.576H7.88c-.481 0-.866-.405-.866-.91s.385-.91.866-.91h5.877c-.308-1.435-1.366-2.668-3.319-2.668H7.871c-.481 0-.866-.404-.866-.91 0-.505.385-.909.866-.909h10.263c.481 0 .866.404.866.91 0 .505-.385.91-.866.91h-3.76c.605.757.99 1.697 1.134 2.667h2.626c.481 0 .866.405.866.91s-.385.91-.866.91h-2.616c-.154 1.05-.577 2.02-1.222 2.779-.942 1.122-2.28 1.708-3.857 1.708h-.385l5.676 5.62a.94.94 0 0 1 .038 1.283.85.85 0 0 1-.635.283z"/>
</svg>