<svg xmlns="http://www.w3.org/2000/svg" width="26" height="26" fill="currentColor" class="sym sym-currency-pound" viewBox="0 0 26 26">
  <path d="M7.888 24c-.375 0-.71-.297-.839-.754-.118-.444 0-.939.286-1.235.02-.025 2.428-2.459 2.853-6.153h-2.3c-.493 0-.888-.494-.888-1.112s.395-1.112.888-1.112h2.27c-.158-.852-.474-1.532-.83-2.298-.483-1.025-1.025-2.187-1.035-3.78 0-2.397.878-4.177 2.467-5.041 1.914-1.026 4.628-.47 6.069 1.235.355.42.375 1.124.03 1.57-.336.444-.899.469-1.254.036-.829-.988-2.773-1.532-4.145-.803-.917.494-1.39 1.495-1.39 2.978 0 .988.354 1.73.798 2.68.444.94.928 1.99 1.106 3.423h3.819c.493 0 .888.494.888 1.112s-.395 1.112-.888 1.112h-3.81c-.217 2.52-1.154 4.547-2.013 5.918h8.142c.493 0 .888.494.888 1.112S18.605 24 18.112 24z"/>
</svg>