<svg xmlns="http://www.w3.org/2000/svg" width="26" height="26" fill="currentColor" class="sym sym-currency-pound-solid" viewBox="0 0 26 26">
  <path fill-rule="evenodd" d="M12.069 2.024c-2.252.22-4.209 1.004-5.98 2.397-.462.363-1.498 1.433-1.873 1.934C3.057 7.9 2.36 9.586 2.074 11.54c-.099.673-.099 2.251 0 2.924.286 1.952.982 3.637 2.141 5.185.456.608 1.529 1.681 2.137 2.137 1.55 1.158 3.235 1.853 5.187 2.14.673.099 2.253.099 2.926 0 1.952-.286 3.637-.982 5.187-2.14.607-.456 1.68-1.529 2.137-2.137 1.159-1.548 1.854-3.233 2.141-5.185.052-.357.07-.734.07-1.462 0-.729-.018-1.106-.07-1.462-.286-1.953-.984-3.64-2.142-5.185-.375-.501-1.411-1.57-1.873-1.934-1.6-1.259-3.358-2.023-5.33-2.315-.635-.094-1.946-.136-2.516-.082m2.278 4.55c.934.162 1.964.691 2.281 1.172.266.4.21.912-.133 1.256-.356.357-.835.394-1.267.102-.448-.302-.597-.384-.873-.474-.252-.082-.367-.095-.872-.095-.565 0-.588.003-.84.123-.448.211-.629.457-.722.978-.088.492-.01.789.462 1.724.171.341.354.738.405.881l.09.26 1.237.021c1.12.018 1.248.027 1.355.095.369.235.517.49.517.887 0 .319-.082.516-.305.729-.27.259-.332.27-1.606.285l-1.15.012-.025.148c-.117.694-.4 1.56-.763 2.327a5 5 0 0 0-.204.454l-.012.036c0 .02.975.034 2.165.034 2.37 0 2.297-.007 2.579.241.234.205.324.411.324.74 0 .332-.088.53-.33.75-.291.262-.146.252-3.656.252s-3.364.01-3.655-.252c-.242-.22-.33-.417-.33-.75 0-.332.03-.395.435-.935.38-.505.61-.885.882-1.448.216-.451.474-1.16.526-1.447l.026-.147-.554-.017c-.617-.019-.781-.066-1.01-.285-.222-.213-.304-.409-.304-.729 0-.33.09-.535.324-.74.237-.208.36-.241.899-.241.267 0 .48-.015.471-.03-.23-.495-.325-.682-.42-.869l.138.298a7 7 0 0 1-.363-.85l-.016-.052c-.1-.332-.109-.415-.111-1.08-.002-.638.009-.76.09-1.04.36-1.246 1.32-2.086 2.673-2.34.328-.061 1.256-.052 1.646.015z"/>
</svg>