<svg xmlns="http://www.w3.org/2000/svg" width="26" height="26" fill="currentColor" class="sym sym-currency-euro" viewBox="0 0 26 26">
  <path fill-rule="evenodd" d="M14.574 2.034a6.7 6.7 0 0 0-2.212.628C10.059 3.754 8.265 6.046 7.355 9.06l-.151.499-.803.022c-.887.024-.903.028-1.161.349-.157.195-.271.639-.232.903.038.261.17.56.316.716.194.206.34.244.95.244h.553v2.423l-.614.014c-.609.014-.614.015-.78.146-.597.475-.558 1.53.073 1.96.134.093.185.098.917.098.583 0 .779.014.79.054.152.535.513 1.56.69 1.967 1.566 3.582 4.592 5.761 7.67 5.528 1.48-.113 2.709-.583 3.916-1.497.51-.385 1.24-1.107 1.363-1.345.138-.267.154-.796.033-1.116-.108-.287-.364-.537-.593-.58-.306-.058-.43.006-.925.476-.79.75-1.406 1.168-2.145 1.457-.806.316-1.1.37-2.013.367-.724-.002-.843-.014-1.223-.117-1.866-.502-3.37-1.822-4.386-3.848-.189-.376-.542-1.23-.542-1.311 0-.019 1.317-.035 2.925-.035 2.355 0 2.953-.011 3.065-.058.077-.032.21-.138.299-.236.462-.512.35-1.505-.204-1.82l-.172-.096-3.193-.001-3.193-.001-.033-.163c-.042-.209-.04-1.89.001-2.104l.032-.162 3.15-.001c3.543-.001 3.355.016 3.64-.33.43-.52.31-1.47-.225-1.798-.13-.08-.259-.083-3.119-.083H9.048l.03-.12c.07-.28.486-1.218.736-1.655A7.6 7.6 0 0 1 11.05 6.14c1.093-1.14 2.27-1.746 3.682-1.898.996-.107 2.144.133 3.076.642.498.271.963.625 1.475 1.123.39.375.542.495.681.533.446.12.838-.19.99-.785a.95.95 0 0 0 .016-.531c-.07-.355-.137-.473-.472-.824-1.634-1.71-3.833-2.589-5.924-2.367"/>
</svg>