<svg xmlns="http://www.w3.org/2000/svg" width="26" height="26" fill="currentColor" class="sym sym-currency-rupiah-solid" viewBox="0 0 26 26">
  <path fill-rule="evenodd" d="M12.198 2.034a11.13 11.13 0 0 0-5.859 2.218c-.545.408-1.679 1.542-2.087 2.087a11.1 11.1 0 0 0-2.133 5.1c-.132.888-.132 2.234 0 3.12a11.1 11.1 0 0 0 2.142 5.113c.397.53 1.536 1.67 2.067 2.067a11.1 11.1 0 0 0 5.112 2.142c.887.132 2.233.132 3.12 0a11.1 11.1 0 0 0 5.112-2.142c.531-.397 1.67-1.536 2.067-2.067a11.1 11.1 0 0 0 2.142-5.112c.074-.495.094-.826.094-1.56s-.02-1.065-.094-1.56a11.1 11.1 0 0 0-2.142-5.112c-.397-.531-1.536-1.67-2.067-2.067q-2.859-2.135-6.369-2.24a13 13 0 0 0-1.105.013m-.541 5.049c1.335.304 2.08 1.265 2.08 2.686 0 1.116-.604 2.01-1.582 2.342-.074.025-.064.037.072.084.919.32 1.276 1.137 1.423 3.262.049.708.086.926.175 1.034.105.126-.007.149-.718.149-.692 0-.712-.002-.763-.097-.031-.058-.066-.403-.086-.835-.042-.957-.07-1.24-.154-1.581-.099-.406-.283-.742-.516-.948-.329-.29-.45-.31-1.933-.31H8.363v3.773l-.682-.012-.683-.012-.011-4.766c-.006-2.622-.001-4.793.011-4.825.019-.05.394-.055 2.178-.038 1.822.017 2.206.032 2.481.094M8.363 9.919v1.65h1.225c.927 0 1.29-.016 1.496-.064.798-.19 1.213-.69 1.256-1.518.045-.851-.288-1.369-1.03-1.605-.199-.063-.46-.08-1.592-.095l-1.355-.02zm10.453-.275c.754.183 1.378.73 1.77 1.549.436.913.537 2.212.255 3.305-.304 1.18-1.124 2.035-2.164 2.255-.879.186-1.829-.122-2.316-.752l-.176-.227-.011 1.625-.012 1.624H14.95V9.75h1.213v.83l.228-.25c.622-.681 1.464-.92 2.425-.686m-1.298 1.083c-.573.154-1 .647-1.208 1.392-.109.393-.132 1.472-.041 1.922.166.82.572 1.374 1.161 1.585.283.102.784.089 1.094-.028.488-.185.874-.697 1.072-1.422.074-.27.091-.455.09-1.003 0-.603-.012-.711-.117-1.061-.144-.483-.325-.792-.624-1.066-.375-.344-.899-.461-1.427-.32"/>
</svg>