<svg xmlns="http://www.w3.org/2000/svg" width="26" height="26" fill="currentColor" class="sym sym-currency-euro-solid" viewBox="0 0 26 26">
  <path fill-rule="evenodd" d="M12.144 2.04c-3.34.24-6.465 2.087-8.338 4.928-1.768 2.68-2.275 6.097-1.355 9.135.547 1.807 1.379 3.222 2.682 4.56 1.749 1.794 3.824 2.846 6.394 3.24.694.106 2.252.106 2.946 0 2.57-.394 4.645-1.446 6.394-3.24 1.685-1.73 2.658-3.712 3.038-6.192.106-.694.106-2.252 0-2.946-.396-2.58-1.45-4.65-3.262-6.414-1.89-1.836-4.242-2.887-6.885-3.076a9 9 0 0 0-1.614.004m2.09 5.085c.963.215 1.86.654 2.62 1.282.342.283.454.496.456.864 0 .232-.02.318-.118.486-.25.424-.72.611-1.163.462-.081-.028-.323-.18-.537-.34a4.3 4.3 0 0 0-1.396-.723c-.347-.106-.446-.117-1.096-.118-.657 0-.746.01-1.096.117-.41.124-.8.307-1.157.544-.255.17-.824.685-.824.748 0 .021.473.038 1.05.04.579 0 1.14.02 1.247.044a.983.983 0 0 1 .532 1.6c-.083.097-.232.22-.331.273-.174.093-.223.096-1.795.11l-1.615.013.012.485.012.484 1.647.022c1.843.024 1.785.015 2.07.347a.98.98 0 0 1 .096 1.152c-.06.102-.168.228-.241.28-.264.188-.464.214-1.607.214-.621 0-1.077.017-1.077.04 0 .08.692.68.982.852.334.2.743.372 1.149.484.39.108 1.503.105 1.899-.005.628-.173 1.172-.448 1.592-.802.426-.359.805-.436 1.212-.246a1 1 0 0 1 .56 1.01c-.04.288-.177.508-.471.753a5.9 5.9 0 0 1-3.824 1.388c-1.234 0-2.333-.326-3.326-.987-.794-.528-1.534-1.334-1.944-2.117l-.19-.36-.411-.018c-.47-.02-.68-.104-.9-.354-.177-.202-.241-.415-.22-.742.029-.46.363-.83.793-.878l.196-.022v-.984l-.12-.026c-.268-.06-.388-.112-.538-.236-.417-.343-.46-1.052-.087-1.444.207-.219.417-.296.876-.32l.42-.024.119-.243c.337-.693 1.029-1.512 1.706-2.02.698-.524 1.732-.977 2.52-1.104.179-.029.355-.059.39-.068.176-.042 1.652.024 1.929.087"/>
</svg>