<svg xmlns="http://www.w3.org/2000/svg" width="26" height="26" fill="currentColor" class="sym sym-currency-ruble-solid" viewBox="0 0 26 26">
  <path d="m11.485 10.012.01 1.493h1.906c1.862 0 1.91-.002 2.119-.087.61-.25.98-.784.98-1.416 0-.49-.205-.898-.602-1.203-.361-.276-.372-.277-2.507-.28h-1.916z"/>
  <path fill-rule="evenodd" d="M12.539 2.008c-2.322.1-4.616.959-6.44 2.41a14 14 0 0 0-1.678 1.673l-.016.02c-1.026 1.286-1.812 2.926-2.156 4.495-.183.83-.249 1.473-.249 2.402 0 1.788.349 3.293 1.13 4.87.577 1.166 1.18 2.008 2.084 2.91.904.904 1.745 1.506 2.911 2.083C9.705 23.651 11.21 24 13 24s3.296-.349 4.875-1.129c1.158-.573 2.014-1.184 2.911-2.083.899-.897 1.51-1.752 2.084-2.91.781-1.577 1.13-3.082 1.13-4.87 0-1.79-.349-3.294-1.13-4.872-.577-1.166-1.18-2.007-2.084-2.91-.902-.903-1.744-1.504-2.911-2.082a10.9 10.9 0 0 0-5.359-1.135zm3.33 4.577c.66.182 1.225.529 1.665.994l.001.002c.449.468.72.945.886 1.557.125.456.125 1.268 0 1.724a3.45 3.45 0 0 1-.886 1.559 3.57 3.57 0 0 1-1.642.99l-.024.006c-.308.085-.4.09-2.337.103l-2.017.014v1.193l1.354.013c1.213.011 1.372.02 1.525.087.213.093.501.407.563.618.162.54-.112 1.094-.629 1.271-.146.05-.42.06-1.496.06h-1.318v.916c0 1.106-.027 1.242-.318 1.533-.19.189-.476.319-.704.319s-.516-.13-.704-.32c-.291-.29-.32-.426-.32-1.532v-.915h-.313c-.54 0-.87-.177-1.066-.57-.188-.375-.127-.79.163-1.114.219-.241.422-.324.865-.35l.352-.022V13.54l-.371-.018c-.314-.014-.403-.033-.581-.131a.96.96 0 0 1-.532-.86v-.026.002-.023c0-.375.214-.7.526-.858l.006-.002c.178-.097.267-.117.58-.132l.372-.017V9.443c0-1.737.009-2.064.063-2.247.087-.29.33-.544.62-.646.208-.073.343-.076 2.807-.065 2.539.01 2.595.012 2.91.1"/>
</svg>