<svg xmlns="http://www.w3.org/2000/svg" width="26" height="26" fill="currentColor" class="sym sym-currency-yen" viewBox="0 0 26 26">
  <path d="M12.994 22a.907.907 0 0 1-.912-.91v-3.852H7.544a.907.907 0 0 1-.911-.91c0-.506.405-.91.911-.91h4.538v-1.982H6.45a.907.907 0 0 1-.911-.91c0-.506.405-.91.911-.91h4.457L5.245 5.529a.9.9 0 0 1 .05-1.284.904.904 0 0 1 1.287.05l6.422 6.896 6.422-6.896a.92.92 0 0 1 1.286-.05c.365.343.385.92.05 1.284l-5.661 6.087h4.456c.507 0 .912.404.912.91 0 .505-.405.91-.912.91h-5.631v1.982h4.537c.507 0 .912.404.912.91 0 .505-.405.91-.912.91h-4.538v3.852c0 .506-.405.91-.911.91z"/>
</svg>