<svg xmlns="http://www.w3.org/2000/svg" width="26" height="26" fill="currentColor" class="sym sym-database" viewBox="0 0 26 26">
  <path d="M13 24c-4.82 0-10-1.258-10-4.011V6.01C3 3.258 8.18 2 13 2s10 1.258 10 4.011V19.99C23 22.742 17.82 24 13 24m-7.978-8.45V20c0 .506 2.742 1.989 7.978 1.989s7.977-1.472 7.977-1.989v-4.45c-1.954.99-5.033 1.461-7.977 1.461s-6.022-.472-7.978-1.46m0-2.55c0 .506 2.742 1.989 7.978 1.989s7.977-1.472 7.977-1.989V8.55c-1.954.99-5.033 1.461-7.977 1.461s-6.022-.472-7.978-1.46zm0-6.989C5.022 6.517 7.764 8 13 8s7.977-1.472 7.977-1.989S18.237 4.022 13 4.022s-7.978 1.472-7.978 1.99"/>
</svg>