<svg xmlns="http://www.w3.org/2000/svg" width="26" height="26" fill="currentColor" class="sym sym-database-solid" viewBox="0 0 26 26">
  <path fill-rule="evenodd" d="M11.764 2.034c-2.36.099-4.697.544-6.195 1.18-1.36.578-2.145 1.261-2.46 2.14l-.094.26v5.765l.093.26c.286.798.942 1.419 2.067 1.962C9 15.444 17 15.444 20.824 13.601c1.125-.543 1.78-1.164 2.067-1.962l.094-.26V5.614l-.094-.26c-.213-.59-.64-1.094-1.295-1.525C20.04 2.807 17.393 2.172 14.1 2.03a21 21 0 0 0-2.336.003m3.657 2.056c1.422.153 2.573.381 3.562.707.962.315 1.815.786 1.98 1.093.075.141.008.26-.277.488-.883.706-3.008 1.301-5.524 1.545-.73.07-3.594.07-4.323 0-2.044-.198-3.778-.607-4.862-1.148-.468-.233-.848-.507-.939-.678-.076-.141-.009-.26.277-.488.882-.706 3.162-1.342 5.504-1.536l.7-.057c.495-.042 3.338.012 3.902.074"/>
  <path d="m3.126 14.618-.111.096-.012 2.766c-.009 2.433-.003 2.797.054 3.016.33 1.278 1.795 2.256 4.33 2.89 1.536.383 3.07.567 5.072.608 3.84.079 7.289-.598 9.125-1.792.442-.289.963-.822 1.148-1.176.282-.541.276-.46.264-3.546l-.011-2.766-.112-.097a.4.4 0 0 0-.258-.098h-.027.001c-.154 0-.202.027-.448.245-1.656 1.465-5.347 2.313-9.681 2.224-2.002-.042-3.536-.226-5.073-.61-1.653-.413-2.747-.918-3.566-1.649-.208-.185-.257-.21-.409-.21h-.026a.4.4 0 0 0-.259.098"/>
</svg>