<svg xmlns="http://www.w3.org/2000/svg" width="26" height="26" fill="currentColor" class="sym sym-delete" viewBox="0 0 26 26">
  <path d="M18.191 22h-7.758c-.664 0-1.032 0-1.43-.111a3 3 0 0 1-.98-.485c-.326-.243-.54-.536-.939-1.051l-4.42-5.832c-.307-.394-.5-.667-.603-1.03a2 2 0 0 1 0-.981c.102-.364.296-.627.603-1.031l4.41-5.821c.398-.526.623-.82.95-1.062a3 3 0 0 1 .98-.485C9.4 4 9.768 4 10.421 4h7.759c1.858 0 2.797 0 3.645.435a3.94 3.94 0 0 1 1.735 1.718C24 6.992 24 7.92 24 9.76v6.468c0 1.84 0 2.77-.439 3.608a3.94 3.94 0 0 1-1.735 1.718c-.848.435-1.787.435-3.645.435zM10.433 5.83c-.5 0-.766 0-.92.04q-.198.06-.367.182c-.122.09-.286.303-.582.697l-4.42 5.832c-.133.171-.276.353-.296.414.03.07.173.263.296.424l4.41 5.822c.296.394.46.606.582.697.112.081.235.152.367.182.154.04.43.04.92.04h7.758c1.521 0 2.348 0 2.807-.232.409-.202.725-.525.94-.93.234-.454.234-1.283.234-2.779V9.751c0-1.506 0-2.325-.234-2.78a2.13 2.13 0 0 0-.94-.93c-.459-.232-1.296-.232-2.807-.232h-7.759zm7.554 11.117a.96.96 0 0 1-.653-.263l-2.41-2.385-2.409 2.385a.925.925 0 0 1-1.296 0 .9.9 0 0 1 0-1.284l2.409-2.385-2.41-2.385a.9.9 0 0 1 0-1.284.925.925 0 0 1 1.297 0l2.41 2.386 2.409-2.386a.925.925 0 0 1 1.296 0 .9.9 0 0 1 0 1.284l-2.41 2.385 2.41 2.385a.903.903 0 0 1-.653 1.547z"/>
</svg>