<svg xmlns="http://www.w3.org/2000/svg" width="26" height="26" fill="currentColor" class="sym sym-delete-solid" viewBox="0 0 26 26">
  <path fill-rule="evenodd" d="M9.393 4.038a3 3 0 0 0-1.611.775l.002-.001c-.341.32-5.437 7.025-5.597 7.365C2.069 12.417 2 12.7 2 13c0 .298.068.58.191.832l-.005-.01c.14.296 5.127 6.883 5.509 7.274a3 3 0 0 0 1.219.756l.385.132 5.123.012c3.473.009 5.308-.001 5.694-.031.946-.073 1.45-.224 2.07-.622.687-.44 1.308-1.204 1.554-1.91.268-.77.26-.571.26-6.434s.008-5.664-.26-6.434c-.229-.658-.852-1.449-1.453-1.848-.659-.435-1.23-.61-2.236-.681-.712-.05-10.26-.048-10.657.002m2.824 5.026c.176.057.346.21 1.445 1.289l1.245 1.223 1.245-1.223c1.099-1.08 1.269-1.232 1.445-1.29.394-.13.776-.044 1.057.234s.367.655.236 1.044c-.058.175-.213.343-1.305 1.428L16.348 13l1.238 1.231c1.092 1.086 1.247 1.254 1.305 1.428.131.39.045.767-.236 1.045-.282.277-.663.363-1.057.233-.176-.057-.346-.21-1.445-1.29l-1.245-1.223-1.245 1.224c-1.099 1.079-1.269 1.232-1.445 1.289-.394.13-.776.045-1.056-.233a.98.98 0 0 1-.237-1.045c.058-.174.213-.342 1.305-1.428L13.467 13l-1.238-1.23c-1.092-1.086-1.247-1.255-1.305-1.428-.131-.39-.046-.767.237-1.046.28-.279.662-.363 1.056-.232"/>
</svg>