<svg xmlns="http://www.w3.org/2000/svg" width="26" height="26" fill="currentColor" class="sym sym-diamond-solid" viewBox="0 0 26 26">
  <path d="M7.893 4.04a2 2 0 0 0-.455.165l.01-.005c-.238.122-.368.26-2.248 2.388A130 130 0 0 0 3.4 8.63l-.294.35c-.128.174-.134.41-.012.556.177.213.152.211 2.74.211H8.22L10.243 4l-1.079.005c-.594.002-1.166.018-1.273.035zm4.482.007c-.031.08-2.002 5.678-2.002 5.69 0 .004 1.185.009 2.633.009 2.49 0 2.632-.004 2.61-.067l-1.992-5.66-.614-.01c-.47-.008-.62 0-.635.038m5.411 5.699h2.386c2.587 0 2.562.003 2.74-.211.121-.147.117-.382-.012-.556a209 209 0 0 0-2.095-2.39c-1.836-2.08-2.014-2.269-2.235-2.383-.339-.175-.602-.206-1.774-.206h-1.034zm-14.478 1.97c-.253.104-.383.417-.262.631.021.038 1.933 2.222 4.25 4.854 3.248 3.69 4.235 4.788 4.312 4.797.074.009.111-.013.145-.082.04-.084-.181-.739-1.744-5.174l-1.788-5.08-2.394.002c-1.913.001-2.42.011-2.52.052m7.076-.007 1.31 3.716c.71 2.017 1.3 3.668 1.31 3.668s.601-1.65 1.311-3.668l1.31-3.716c.015-.038-.526-.048-2.62-.048s-2.636.01-2.621.048m5.614 5.031c-1.562 4.437-1.784 5.092-1.744 5.175.034.069.071.091.145.082.077-.009 1.065-1.107 4.313-4.796a705 705 0 0 0 4.25-4.854c.068-.122.044-.362-.05-.474-.177-.213-.152-.212-2.74-.212h-2.385z"/>
</svg>