<svg xmlns="http://www.w3.org/2000/svg" width="26" height="26" fill="currentColor" class="sym sym-diamond-02" viewBox="0 0 26 26">
  <path d="M17.995 22H7.007c-.432 0-.785-.368-.785-.818s.353-.818.785-.818h10.988c.432 0 .785.368.785.818s-.353.818-.785.818m-5.484-2.649a1 1 0 0 1-.412-.082c-.265-.092-.442-.296-.638-.531l-7.025-8.04c-.147-.173-.294-.337-.373-.582a1.4 1.4 0 0 1-.03-.716c.099-.307.236-.47.383-.644l3.375-4.224c.099-.123.187-.235.344-.338.069-.05.176-.102.284-.143C8.596 4 8.724 4 8.871 4h7.26c.147 0 .275 0 .422.04.147.052.255.103.353.175.118.071.216.194.285.286l3.404 4.265c.138.164.275.327.354.562.068.277.068.502 0 .727-.099.296-.246.47-.413.654l-6.995 8.029c-.196.235-.373.44-.667.542-.108.04-.236.06-.363.06zm-2.012-8.806 2.002 5.472 2.001-5.472zm-4.081 0 4.12 4.725-1.726-4.725zm9.762 0-1.727 4.715 4.111-4.715zm.02-1.636h2.463l-2.62-3.273h-.893zm-1.658 0-1.05-3.273H11.48L10.43 8.91zm-8.222 0h2.462l1.05-3.273H8.94L6.33 8.91zm2.09-3.897.304.307-.05-.102z"/>
</svg>