<svg xmlns="http://www.w3.org/2000/svg" width="26" height="26" fill="currentColor" class="sym sym-diamond-02-solid" viewBox="0 0 26 26">
  <path d="M8.655 4.034q-.213.049-.386.14l.007-.003c-.201.104-.312.222-1.91 2.04-.37.41-.953 1.074-1.53 1.744l-.251.3c-.11.147-.114.348-.01.473.15.183.13.181 2.33.181h2.028L10.653 4l-.917.004c-.505.002-.992.016-1.082.03zm3.811.006c-.026.069-1.702 4.852-1.702 4.861 0 .005 1.007.008 2.239.008 2.116 0 2.238-.003 2.22-.057l-1.695-4.835-.522-.009c-.4-.007-.527 0-.54.032m4.601 4.87h2.028c2.2 0 2.18.001 2.33-.182.104-.125.1-.326-.01-.474-.046-.062-.848-.981-1.781-2.043-1.561-1.775-1.713-1.937-1.9-2.035-.289-.15-.512-.176-1.509-.176h-.88zM4.82 10.594a.4.4 0 0 0-.242.36q.001.11.056.2v-.002c.035.054 1.583 1.688 3.442 3.633 3.096 3.238 3.388 3.534 3.484 3.534.063 0 .122-.023.143-.054.028-.043-.255-.855-1.3-3.715-.735-2.013-1.367-3.737-1.403-3.83l-.066-.172-2.002.002c-1.64 0-2.021.009-2.112.046m5.978-.026c0 .05 2.184 5.997 2.202 5.997.019 0 2.203-5.948 2.202-5.997 0-.013-.99-.024-2.202-.024s-2.202.011-2.202.024m6.233.05-1.4 3.831c-1.067 2.927-1.363 3.77-1.335 3.814.02.03.08.053.143.053.097 0 .389-.296 3.484-3.534 1.86-1.944 3.408-3.579 3.443-3.633a.35.35 0 0 0-.007-.403c-.131-.205-.1-.202-2.304-.202h-1.998l-.028.073zM6.69 20.416a.86.86 0 0 0-.456.362l-.002.004c-.082.132-.096.19-.096.4 0 .209.014.268.096.4a1 1 0 0 0 .209.236c.265.193-.15.182 6.558.182 6.903 0 6.347.02 6.627-.245a.78.78 0 0 0 .252-.574.8.8 0 0 0-.252-.573c-.279-.265.279-.245-6.64-.243-5.258.002-6.182.01-6.296.05"/>
</svg>