<svg xmlns="http://www.w3.org/2000/svg" width="26" height="26" fill="currentColor" class="sym sym-distribute-spacing-horizontal" viewBox="0 0 26 26">
  <path d="M21.09 22a.906.906 0 0 1-.91-.91V4.91c0-.506.404-.91.91-.91s.91.404.91.91v16.18c0 .506-.404.91-.91.91M4.91 22a.906.906 0 0 1-.91-.91V4.91c0-.506.405-.91.91-.91.506 0 .91.404.91.91v16.18c0 .506-.404.91-.91.91M13 20.2c-.93 0-1.436 0-1.931-.202a2.7 2.7 0 0 1-1.467-1.466c-.212-.496-.212-1.012-.212-1.932V9.41c0-.93 0-1.436.212-1.931a2.7 2.7 0 0 1 1.467-1.467c.495-.202 1.01-.202 1.931-.202.92 0 1.436 0 1.931.202a2.7 2.7 0 0 1 1.467 1.467c.212.495.212 1.01.212 1.931v7.19c0 .93 0 1.436-.212 1.931a2.7 2.7 0 0 1-1.466 1.467c-.496.202-1.012.202-1.932.202m0-12.58c-.647 0-1.072 0-1.234.071a.88.88 0 0 0-.485.485c-.07.162-.07.587-.07 1.234v7.19c0 .647 0 1.072.07 1.234a.88.88 0 0 0 .485.485c.162.07.587.07 1.234.07s1.072 0 1.234-.07a.88.88 0 0 0 .485-.485c.07-.162.07-.587.07-1.234V9.41c0-.647 0-1.072-.07-1.234a.88.88 0 0 0-.485-.485c-.162-.07-.587-.07-1.234-.07"/>
</svg>