<svg xmlns="http://www.w3.org/2000/svg" width="26" height="26" fill="currentColor" class="sym sym-distribute-spacing-vertical-solid" viewBox="0 0 26 26">
  <path d="M4.582 4.057a.9.9 0 0 0-.478.4l-.002.003c-.086.146-.1.21-.1.44 0 .231.014.296.1.441a.9.9 0 0 0 .492.406c.138.048 1.116.054 8.398.054 9.252 0 8.45.025 8.744-.27a.885.885 0 0 0 0-1.263c-.294-.294.51-.27-8.757-.266-7.072.002-8.277.01-8.397.054zm3.762 5.385c-.44.032-.653.08-.96.217a2.66 2.66 0 0 0-1.508 1.838l-.003.018c-.094.422-.094 2.565 0 2.987a2.66 2.66 0 0 0 2.025 2.023l.017.004c.284.061.603.065 5.079.065s4.794-.004 5.078-.065a2.66 2.66 0 0 0 2.04-2.009l.003-.017c.094-.422.094-2.565 0-2.987a2.68 2.68 0 0 0-1.987-2.02l-.018-.003c-.248-.059-.62-.064-4.828-.07-2.507-.006-4.73.004-4.938.019M4.686 20.25c-.676.165-.917 1.004-.428 1.493.057.056.167.137.246.18L4.65 22h16.688l.145-.078c.33-.176.498-.448.498-.805s-.168-.629-.498-.805l-.145-.078-8.272-.005c-4.55-.003-8.321.006-8.38.02"/>
</svg>