<svg xmlns="http://www.w3.org/2000/svg" width="26" height="26" fill="currentColor" class="sym sym-distribute-spacing-horizontal-solid" viewBox="0 0 26 26">
  <path d="M4.685 4.027a.96.96 0 0 0-.605.484l-.002.005L4 4.661v16.68l.078.145c.176.33.448.498.805.498s.629-.168.805-.498l.078-.145V4.66l-.078-.145c-.2-.375-.633-.586-1.003-.489m16.111.025a.9.9 0 0 0-.478.4l-.002.004-.1.17-.009 8.298c-.006 5.64.003 8.344.028 8.438.054.2.244.43.441.532a.884.884 0 0 0 1.053-.155c.296-.294.27.509.27-8.738 0-9.244.025-8.443-.27-8.737a.9.9 0 0 0-.94-.21zm-8.85 1.779c-.441.035-.655.083-.96.219a2.66 2.66 0 0 0-1.511 1.859l-.003.017c-.062.284-.066.603-.066 5.076 0 4.474.005 4.792.066 5.076a2.65 2.65 0 0 0 2.008 2.038l.017.004c.423.093 2.565.093 2.988 0a2.66 2.66 0 0 0 2.023-2.024l.003-.018c.062-.284.066-.603.066-5.076s-.005-4.792-.066-5.076a2.64 2.64 0 0 0-2.026-2.038c-.334-.07-1.918-.105-2.539-.057"/>
</svg>