<svg xmlns="http://www.w3.org/2000/svg" width="26" height="26" fill="currentColor" class="sym sym-distribute-spacing-vertical" viewBox="0 0 26 26">
  <path d="M21.08 22H4.91a.906.906 0 0 1-.91-.91c0-.506.404-.911.91-.911h16.17c.506 0 .91.405.91.91a.907.907 0 0 1-.91.911m-4.487-5.393H9.407c-.93 0-1.435 0-1.93-.202a2.74 2.74 0 0 1-1.466-1.467c-.202-.496-.202-1.012-.202-1.933 0-.92 0-1.437.202-1.933a2.74 2.74 0 0 1 1.466-1.467c.495-.202 1.01-.202 1.93-.202h7.186c.93 0 1.435 0 1.93.202a2.74 2.74 0 0 1 1.466 1.467c.202.496.202 1.012.202 1.933 0 .92 0 1.437-.202 1.933a2.74 2.74 0 0 1-1.466 1.467c-.495.202-1.01.202-1.93.202m-7.186-5.393c-.647 0-1.071 0-1.233.071a.9.9 0 0 0-.485.486c-.07.162-.07.586-.07 1.234s0 1.073.07 1.234a.93.93 0 0 0 .475.486c.162.071.586.071 1.233.071h7.186c.647 0 1.071 0 1.233-.07a.9.9 0 0 0 .485-.487c.07-.161.07-.586.07-1.234s0-1.072-.07-1.234a.93.93 0 0 0-.475-.486c-.162-.07-.586-.07-1.233-.07zM21.09 5.821H4.92a.906.906 0 0 1-.91-.91c0-.506.404-.911.91-.911h16.17c.506 0 .91.405.91.91a.906.906 0 0 1-.91.911"/>
</svg>