<svg xmlns="http://www.w3.org/2000/svg" width="26" height="26" fill="currentColor" class="sym sym-divide-solid" viewBox="0 0 26 26">
  <path d="M12.582 5.041c-.723.138-1.384.802-1.54 1.547C10.788 7.814 11.753 9 13.004 9c1.083 0 2.005-.922 2.005-2.003 0-.524-.21-1.018-.597-1.406-.493-.49-1.13-.683-1.829-.55m-7.82 7.001c-.752.184-1.02 1.117-.476 1.66.063.063.186.153.274.2l.162.086h16.561l.162-.086c.367-.196.554-.5.554-.896s-.187-.699-.554-.895l-.162-.086-8.2-.006c-4.51-.004-8.255.007-8.321.023m7.9 5.014c-.346.05-.797.286-1.066.555-.956.954-.686 2.588.524 3.18a1.98 1.98 0 0 0 2.654-.882l.005-.011c.716-1.463-.492-3.084-2.118-2.841z"/>
</svg>