<svg xmlns="http://www.w3.org/2000/svg" width="26" height="26" fill="currentColor" class="sym sym-divider" viewBox="0 0 26 26">
  <path d="M21.08 21.99a.906.906 0 0 1-.91-.91v-.717c0-.779 0-1.294-.09-1.476a.88.88 0 0 0-.384-.384c-.192-.101-.708-.101-1.476-.101H7.8c-.778 0-1.294 0-1.475.101a.9.9 0 0 0-.385.384c-.1.192-.1.708-.1 1.486v.717c0 .506-.405.91-.91.91a.906.906 0 0 1-.91-.91v-.717c0-1.112 0-1.728.293-2.305.263-.515.667-.92 1.183-1.182.576-.293 1.192-.293 2.304-.293h10.42c1.112 0 1.728 0 2.304.293.516.263.92.667 1.183 1.183.293.576.293 1.192.293 2.304v.717c0 .506-.404.91-.91.91zm0-8.085a.906.906 0 0 1-.91-.91c0-.505.405-.91.91-.91.506 0 .91.405.91.91s-.404.91-.91.91m-4.042 0a.906.906 0 0 1-.91-.91c0-.505.404-.91.91-.91.505 0 .91.405.91.91s-.405.91-.91.91m-4.043 0a.906.906 0 0 1-.91-.91c0-.505.405-.91.91-.91s.91.405.91.91-.405.91-.91.91m-4.043 0a.906.906 0 0 1-.91-.91c0-.505.405-.91.91-.91.506 0 .91.405.91.91s-.404.91-.91.91m-4.042 0a.906.906 0 0 1-.91-.91c0-.505.404-.91.91-.91.505 0 .91.405.91.91s-.405.91-.91.91M18.2 9.417H7.78c-1.112 0-1.728 0-2.304-.293a2.68 2.68 0 0 1-1.183-1.182C4 7.366 4 6.749 4 5.637V4.92c0-.506.404-.91.91-.91.505 0 .91.404.91.91v.717c0 .778 0 1.294.09 1.476a.9.9 0 0 0 .384.384c.192.101.708.101 1.476.101h10.42c.778 0 1.293 0 1.475-.101a.83.83 0 0 0 .384-.384c.102-.192.102-.708.102-1.486V4.91c0-.506.404-.91.91-.91.504 0 .909.404.909.91v.717c0 1.112 0 1.728-.293 2.304-.263.516-.667.92-1.183 1.183-.576.293-1.192.293-2.304.293z"/>
</svg>