<svg xmlns="http://www.w3.org/2000/svg" width="26" height="26" fill="currentColor" class="sym sym-divider-solid" viewBox="0 0 26 26">
  <path d="M5.507 4.023c-.322.035-.717.235-.975.494a1.8 1.8 0 0 0-.506 1.068c-.052.404-.019 1.426.057 1.742.23.96 1.002 1.73 1.992 1.985.225.058.707.063 6.926.063 6.218 0 6.7-.005 6.925-.063.99-.255 1.761-1.025 1.992-1.985.076-.316.109-1.337.057-1.742-.074-.579-.378-1.057-.85-1.336-.446-.265.21-.244-7.998-.249-4.062-.002-7.491.008-7.62.023m-.915 8.131a.9.9 0 0 0-.33 1.48.92.92 0 0 0 1.05.168c.641-.33.638-1.272-.002-1.602-.185-.096-.532-.117-.718-.046m4.111-.004c-.517.144-.784.738-.554 1.233.312.67 1.282.673 1.606.003.088-.182.1-.541.025-.722a1.07 1.07 0 0 0-.414-.454l-.005-.002a.98.98 0 0 0-.658-.059m4.099-.017c-.678.176-.916 1.007-.428 1.497a.88.88 0 0 0 1.059.145l-.005.002a.8.8 0 0 0 .416-.479l.001-.005a.9.9 0 0 0-.148-.859l.002.002c-.173-.227-.617-.376-.898-.303zm4.007.018c-.517.144-.784.738-.553 1.233.311.67 1.282.673 1.606.003.087-.182.1-.541.024-.722a1.07 1.07 0 0 0-.414-.454l-.005-.002a.98.98 0 0 0-.658-.059m4.099-.017c-.678.176-.916 1.007-.428 1.497a.88.88 0 0 0 1.058.145l-.004.002a.8.8 0 0 0 .416-.479l.001-.005a.9.9 0 0 0-.148-.859l.002.002c-.173-.227-.617-.376-.899-.303zM6.443 16.648c-.36.03-.55.079-.853.217-.745.346-1.298 1-1.503 1.794l-.004.018c-.076.316-.109 1.337-.057 1.742.074.579.379 1.057.85 1.336.446.265-.226.245 8.125.245 8.35 0 7.678.02 8.124-.245.472-.28.776-.757.85-1.336.052-.404.019-1.426-.057-1.742a2.73 2.73 0 0 0-1.5-1.81l-.017-.006c-.537-.245.003-.228-7.166-.234-3.567-.003-6.623.006-6.79.021z"/>
</svg>