<svg xmlns="http://www.w3.org/2000/svg" width="26" height="26" fill="currentColor" class="sym sym-divide" viewBox="0 0 26 26">
  <path d="M14.012 6.924c0 .557-.455 1.013-1.012 1.013a1.015 1.015 0 0 1-1.01-1.013c0-.557.454-1.013 1.01-1.013.557 0 1.012.456 1.012 1.013m0 12.152c0 .557-.455 1.012-1.012 1.012a1.015 1.015 0 0 1-1.01-1.012c0-.557.454-1.013 1.01-1.013.557 0 1.012.456 1.012 1.013"/>
  <path d="M13 21a1.92 1.92 0 0 1-1.921-1.924 1.922 1.922 0 1 1 3.842 0c0 1.063-.86 1.924-1.921 1.924m0-2.025c-.06 0-.101.04-.101.101 0 .111.202.111.202 0 0-.06-.04-.101-.101-.101m8.09-5.064H4.91A.907.907 0 0 1 4 13c0-.506.404-.911.91-.911h16.18c.506 0 .91.405.91.911a.907.907 0 0 1-.91.911M13 8.848a1.92 1.92 0 0 1-1.921-1.924 1.922 1.922 0 1 1 3.842 0c0 1.063-.86 1.924-1.921 1.924m0-2.025c-.06 0-.101.04-.101.101 0 .111.202.111.202 0 0-.06-.04-.101-.101-.101"/>
</svg>