<svg xmlns="http://www.w3.org/2000/svg" width="26" height="26" fill="currentColor" class="sym sym-dot-list-solid" viewBox="0 0 26 26">
  <path fill-rule="evenodd" d="M7.167 6.905c0 1.052-.933 1.905-2.084 1.905C3.933 8.81 3 7.957 3 6.905S3.933 5 5.083 5s2.084.853 2.084 1.905m15 .763H10.083a.88.88 0 0 1-.589-.223.73.73 0 0 1-.244-.539.73.73 0 0 1 .244-.538.88.88 0 0 1 .59-.224h12.083c.22 0 .433.08.589.224a.73.73 0 0 1 .244.538.73.73 0 0 1-.244.54.88.88 0 0 1-.59.222M5.083 14.905c1.15 0 2.084-.853 2.084-1.905s-.933-1.905-2.084-1.905C3.933 11.095 3 11.948 3 13s.933 1.905 2.083 1.905m5-2.665h12.084c.22 0 .433.08.589.223a.73.73 0 0 1 .244.539.73.73 0 0 1-.244.538.88.88 0 0 1-.59.223H10.084a.87.87 0 0 1-.589-.223.73.73 0 0 1-.244-.538.73.73 0 0 1 .244-.54.88.88 0 0 1 .59-.222m-5 8.76c1.15 0 2.084-.853 2.084-1.905s-.933-1.904-2.084-1.904c-1.15 0-2.083.852-2.083 1.904S3.933 21 5.083 21m5-2.665h12.084c.22 0 .433.08.589.223a.73.73 0 0 1 .244.539.73.73 0 0 1-.244.538.88.88 0 0 1-.59.224H10.084a.87.87 0 0 1-.589-.224.73.73 0 0 1-.244-.538.73.73 0 0 1 .244-.539.87.87 0 0 1 .59-.223"/>
</svg>