<svg xmlns="http://www.w3.org/2000/svg" width="26" height="26" fill="currentColor" class="sym sym-dot-list" viewBox="0 0 26 26">
  <path fill-rule="evenodd" d="M7.167 6.143c0 1.183-.933 2.143-2.084 2.143C3.933 8.286 3 7.326 3 6.143 3 4.959 3.933 4 5.083 4s2.084.96 2.084 2.143m15 .859H10.083a.82.82 0 0 1-.589-.251.87.87 0 0 1-.244-.606.87.87 0 0 1 .244-.606.82.82 0 0 1 .59-.252h12.083c.22 0 .433.09.589.252a.87.87 0 0 1 .244.606.87.87 0 0 1-.244.606.82.82 0 0 1-.59.25m-17.084 8.14c1.15 0 2.084-.959 2.084-2.142 0-1.184-.933-2.143-2.084-2.143C3.933 10.857 3 11.817 3 13s.933 2.143 2.083 2.143m5-2.997h12.084c.22 0 .433.09.589.25a.87.87 0 0 1 .244.607.87.87 0 0 1-.244.606.82.82 0 0 1-.59.25H10.084a.82.82 0 0 1-.589-.25.87.87 0 0 1-.244-.606.87.87 0 0 1 .244-.606.82.82 0 0 1 .59-.251m-5 9.855c1.15 0 2.084-.96 2.084-2.143s-.933-2.143-2.084-2.143c-1.15 0-2.083.96-2.083 2.143C3 21.041 3.933 22 5.083 22m5-2.998h12.084c.22 0 .433.09.589.25a.87.87 0 0 1 .244.607.87.87 0 0 1-.244.606.82.82 0 0 1-.59.251H10.084a.82.82 0 0 1-.589-.251.87.87 0 0 1-.244-.606.87.87 0 0 1 .244-.606.82.82 0 0 1 .59-.251"/>
</svg>