<svg xmlns="http://www.w3.org/2000/svg" width="26" height="26" fill="currentColor" class="sym sym-dots-vertical" viewBox="0 0 26 26">
  <path d="M13 14.921c-1.105 0-2-.86-2-1.921 0-1.062.895-1.921 2-1.921s2 .86 2 1.921c0 1.062-.895 1.921-2 1.921m0-2.022c-.063 0-.105.04-.105.101 0 .111.21.111.21 0 0-.06-.042-.101-.105-.101m0-5.056c-1.105 0-2-.86-2-1.922S11.895 4 13 4s2 .86 2 1.921c0 1.062-.895 1.922-2 1.922m0-2.023c-.063 0-.105.04-.105.101 0 .112.21.112.21 0 0-.06-.042-.1-.105-.1M13 22c-1.105 0-2-.86-2-1.921 0-1.062.895-1.922 2-1.922s2 .86 2 1.922S14.105 22 13 22m0-2.023c-.063 0-.105.041-.105.102 0 .11.21.11.21 0 0-.061-.042-.102-.105-.102"/>
</svg>