<svg xmlns="http://www.w3.org/2000/svg" width="26" height="26" fill="currentColor" class="sym sym-dots-grid-02-solid" viewBox="0 0 26 26">
  <path d="M9.077 4.04c-.721.139-1.381.802-1.536 1.546-.255 1.224.708 2.409 1.956 2.409 1.08 0 2-.92 2-2 0-.524-.21-1.018-.595-1.405-.492-.49-1.128-.682-1.825-.55m7.003 0c-.722.139-1.382.802-1.537 1.546-.255 1.224.708 2.409 1.957 2.409 1.08 0 2-.92 2-2 0-.524-.21-1.018-.596-1.405-.492-.49-1.128-.682-1.825-.55m-7.002 7.004c-.721.138-1.381.801-1.536 1.545-.255 1.224.708 2.409 1.956 2.409.92 0 1.77-.69 1.957-1.593a1.95 1.95 0 0 0-.552-1.812H10.9c-.492-.49-1.128-.683-1.824-.55m7.004.001c-.874.167-1.581 1.04-1.581 1.953 0 .92.69 1.769 1.592 1.957 1.225.255 2.409-.708 2.409-1.957 0-.523-.21-1.017-.596-1.404-.492-.49-1.128-.682-1.825-.55m-7.002 7.003c-.721.138-1.381.801-1.536 1.545C7.286 20.816 8.25 22 9.497 22c.92 0 1.77-.69 1.957-1.593a1.95 1.95 0 0 0-.552-1.812H10.9c-.492-.49-1.128-.683-1.824-.55zm7.003 0c-.722.138-1.382.801-1.537 1.545C14.288 20.816 15.251 22 16.5 22c1.08 0 2-.92 2-2 0-.523-.21-1.018-.596-1.405-.492-.49-1.128-.682-1.825-.549"/>
</svg>