<svg xmlns="http://www.w3.org/2000/svg" width="26" height="26" fill="currentColor" class="sym sym-dots-grid-02" viewBox="0 0 26 26">
  <path d="M16.24 6.933c.51 0 .927-.455.927-1.012s-.417-1.01-.926-1.01-.926.454-.926 1.01c0 .557.417 1.012.926 1.012m-.001 7.078c.51 0 .927-.455.927-1.011s-.417-1.011-.926-1.011-.926.455-.926 1.011.417 1.011.926 1.011m-.001 7.079c.51 0 .927-.455.927-1.011s-.417-1.012-.926-1.012-.926.456-.926 1.012.417 1.01.926 1.01M9.76 6.933c.508 0 .925-.455.925-1.012s-.417-1.01-.926-1.01-.926.454-.926 1.01c0 .557.417 1.012.926 1.012m.001 7.078c.508 0 .925-.455.925-1.011s-.417-1.011-.926-1.011-.926.455-.926 1.011.417 1.011.926 1.011m.001 7.079c.508 0 .925-.455.925-1.011s-.417-1.012-.926-1.012-.926.456-.926 1.012.417 1.01.926 1.01"/>
  <path d="M16.24 7.843c-.971 0-1.758-.86-1.758-1.922S15.269 4 16.24 4 18 4.86 18 5.921c0 1.062-.787 1.922-1.76 1.922m0-2.023c-.055 0-.092.04-.092.101 0 .112.185.112.185 0 0-.06-.037-.1-.092-.1m-.001 9.1c-.971 0-1.758-.86-1.758-1.921 0-1.062.787-1.921 1.759-1.921S18 11.939 18 13c0 1.062-.787 1.921-1.76 1.921m0-2.022c-.055 0-.092.04-.092.101 0 .111.185.111.185 0 0-.06-.037-.101-.092-.101M16.24 22c-.971 0-1.758-.86-1.758-1.921 0-1.062.787-1.922 1.759-1.922S18 19.017 18 20.08 17.213 22 16.24 22m0-2.023c-.055 0-.092.041-.092.102 0 .11.185.11.185 0 0-.061-.037-.102-.092-.102M9.76 7.843C8.786 7.843 8 6.983 8 5.92S8.787 4 9.76 4c.972 0 1.758.86 1.758 1.921 0 1.062-.787 1.922-1.759 1.922m0-2.023c-.056 0-.093.04-.093.101 0 .112.185.112.185 0 0-.06-.037-.1-.093-.1m.002 9.1C8.786 14.921 8 14.061 8 13c0-1.062.787-1.921 1.76-1.921.972 0 1.758.86 1.758 1.921 0 1.062-.787 1.921-1.759 1.921m0-2.022c-.056 0-.093.04-.093.101 0 .111.185.111.185 0 0-.06-.037-.101-.093-.101M9.76 22C8.786 22 8 21.14 8 20.079c0-1.062.787-1.922 1.76-1.922.972 0 1.758.86 1.758 1.922S10.731 22 9.76 22m0-2.023c-.056 0-.093.041-.093.102 0 .11.185.11.185 0 0-.061-.037-.102-.093-.102"/>
</svg>