<svg xmlns="http://www.w3.org/2000/svg" width="26" height="26" fill="currentColor" class="sym sym-dots-grid-solid" viewBox="0 0 26 26">
  <path d="M5.642 4.037c-.345.051-.796.286-1.065.555-.955.955-.686 2.588.524 3.18a1.98 1.98 0 0 0 2.653-.882l.005-.011c.716-1.462-.492-3.084-2.117-2.841m6.935.003c-.723.138-1.384.802-1.539 1.547-.255 1.225.709 2.41 1.96 2.41 1.082 0 2.004-.92 2.004-2.002 0-.523-.21-1.018-.597-1.405-.493-.49-1.13-.683-1.828-.55m7.096-.004c-.346.051-.797.286-1.066.555-.955.955-.685 2.588.524 3.18a1.98 1.98 0 0 0 2.653-.882l.006-.011c.715-1.462-.493-3.084-2.118-2.841m-14.03 7.009c-.345.05-.796.286-1.065.555-.955.954-.686 2.588.524 3.18a1.98 1.98 0 0 0 2.653-.882l.005-.012c.716-1.462-.492-3.083-2.117-2.84zm7.016 0c-.346.05-.797.286-1.066.555-.955.954-.686 2.588.524 3.18a1.98 1.98 0 0 0 2.653-.882l.005-.012c.716-1.462-.492-3.083-2.117-2.84zm7.015 0c-.346.05-.797.286-1.066.555-.955.954-.685 2.588.524 3.18a1.98 1.98 0 0 0 2.653-.882l.006-.012c.715-1.462-.493-3.083-2.118-2.84zM5.642 18.056c-.345.051-.796.286-1.065.555-.955.955-.686 2.589.524 3.18a1.98 1.98 0 0 0 2.653-.882l.005-.011c.716-1.462-.492-3.084-2.117-2.84zm7.016 0c-.346.051-.797.286-1.066.555-.955.955-.686 2.589.524 3.18a1.98 1.98 0 0 0 2.653-.882l.005-.011c.716-1.462-.492-3.084-2.117-2.84zm7.015 0c-.584.087-1.164.524-1.436 1.079-.707 1.441.472 3.063 2.067 2.843 1.316-.182 2.08-1.63 1.49-2.833-.39-.796-1.223-1.224-2.122-1.09z"/>
</svg>