<svg xmlns="http://www.w3.org/2000/svg" width="26" height="26" fill="currentColor" class="sym sym-dots-horizontal" viewBox="0 0 26 26">
  <path d="M13 15c-1.062 0-1.921-.895-1.921-2s.86-2 1.921-2c1.062 0 1.921.895 1.921 2s-.86 2-1.921 2m0-2.105c-.06 0-.101.042-.101.105 0 .116.202.116.202 0 0-.063-.04-.105-.101-.105M20.079 15c-1.062 0-1.922-.895-1.922-2s.86-2 1.922-2S22 11.895 22 13s-.86 2-1.921 2m0-2.105c-.061 0-.102.042-.102.105 0 .116.203.116.203 0 0-.063-.04-.105-.101-.105M5.921 15C4.86 15 4 14.105 4 13s.86-2 1.921-2c1.062 0 1.922.895 1.922 2s-.86 2-1.922 2m0-2.105c-.06 0-.1.042-.1.105 0 .116.201.116.201 0 0-.063-.04-.105-.1-.105"/>
</svg>