<svg xmlns="http://www.w3.org/2000/svg" width="26" height="26" fill="currentColor" class="sym sym-dots-vertical-solid" viewBox="0 0 26 26">
  <path d="M12.66 4.024c-.345.05-.795.286-1.063.555-.953.955-.684 2.59.523 3.182a1.974 1.974 0 0 0 2.648-.883l.005-.01c.714-1.464-.491-3.086-2.113-2.844m-.08 7.019C11.707 11.21 11 12.085 11 13c0 .922.69 1.772 1.592 1.96C13.816 15.215 15 14.25 15 13a1.98 1.98 0 0 0-.596-1.407c-.491-.49-1.127-.683-1.824-.55m.08 7.01c-.345.051-.795.287-1.063.556-.953.955-.684 2.59.523 3.182a1.974 1.974 0 0 0 2.648-.883l.005-.011c.714-1.463-.491-3.086-2.113-2.843"/>
</svg>