<svg xmlns="http://www.w3.org/2000/svg" width="26" height="26" fill="currentColor" class="sym sym-dots-horizontal-solid" viewBox="0 0 26 26">
  <path d="M5.642 11.037c-.345.05-.796.286-1.065.555-.955.955-.686 2.591.524 3.183a1.98 1.98 0 0 0 2.653-.883l.005-.011c.716-1.464-.492-3.087-2.117-2.844m6.935.004c-.875.168-1.583 1.043-1.583 1.957 0 .923.691 1.773 1.595 1.96 1.226.256 2.413-.708 2.413-1.96 0-.524-.21-1.019-.597-1.407-.493-.49-1.13-.683-1.828-.55m7.096-.004c-.346.05-.797.286-1.066.555-.955.955-.685 2.591.524 3.183a1.98 1.98 0 0 0 2.653-.883l.006-.011c.715-1.464-.493-3.087-2.118-2.844"/>
</svg>