<svg xmlns="http://www.w3.org/2000/svg" width="26" height="26" fill="currentColor" class="sym sym-dots-grid" viewBox="0 0 26 26">
  <path d="M13 6.933c.556 0 1.011-.455 1.011-1.012s-.455-1.01-1.011-1.01-1.011.454-1.011 1.01c0 .557.455 1.012 1.011 1.012m0 7.078c.556 0 1.011-.455 1.011-1.011s-.455-1.011-1.011-1.011-1.011.455-1.011 1.011.455 1.011 1.011 1.011m0 7.079c.556 0 1.011-.455 1.011-1.011s-.455-1.012-1.011-1.012-1.011.456-1.011 1.012.455 1.01 1.011 1.01m7.079-14.156a1.012 1.012 0 1 0-1.012-1.012c0 .557.456 1.012 1.012 1.012m0 7.078c.556 0 1.01-.455 1.01-1.011s-.454-1.011-1.01-1.011-1.012.455-1.012 1.011.456 1.011 1.012 1.011m0 7.079c.556 0 1.01-.455 1.01-1.011s-.454-1.012-1.01-1.012-1.012.456-1.012 1.012.456 1.01 1.012 1.01M5.921 6.933c.557 0 1.012-.455 1.012-1.012s-.455-1.01-1.012-1.01a1.012 1.012 0 0 0 0 2.022m0 7.078c.557 0 1.012-.455 1.012-1.011s-.455-1.011-1.012-1.011-1.01.455-1.01 1.011.454 1.011 1.01 1.011m0 7.079c.557 0 1.012-.455 1.012-1.011s-.455-1.012-1.012-1.012-1.01.456-1.01 1.012.454 1.01 1.01 1.01"/>
  <path d="M13 7.843A1.92 1.92 0 1 1 13 4a1.92 1.92 0 1 1 0 3.843m0-2.023c-.06 0-.101.04-.101.101 0 .112.202.112.202 0 0-.06-.04-.1-.101-.1m0 9.1a1.92 1.92 0 1 1 0-3.842 1.92 1.92 0 1 1 0 3.842m0-2.022c-.06 0-.101.04-.101.101 0 .111.202.111.202 0 0-.06-.04-.101-.101-.101M13 22a1.92 1.92 0 1 1 0-3.843A1.92 1.92 0 1 1 13 22m0-2.023c-.06 0-.101.041-.101.102 0 .11.202.11.202 0 0-.061-.04-.102-.101-.102m7.079-12.134a1.92 1.92 0 1 1 0-3.843 1.92 1.92 0 1 1 0 3.843m0-2.023c-.061 0-.102.04-.102.101 0 .112.203.112.203 0 0-.06-.04-.1-.101-.1m0 9.1a1.92 1.92 0 1 1 0-3.842 1.92 1.92 0 1 1 0 3.842m0-2.022c-.061 0-.102.04-.102.101 0 .111.203.111.203 0 0-.06-.04-.101-.101-.101m0 9.101a1.92 1.92 0 1 1 0-3.843 1.92 1.92 0 1 1 0 3.843m0-2.023c-.061 0-.102.041-.102.102 0 .11.203.11.203 0 0-.061-.04-.102-.101-.102M5.921 7.843a1.92 1.92 0 1 1 0-3.843 1.92 1.92 0 1 1 0 3.843m0-2.023c-.06 0-.1.04-.1.101 0 .112.201.112.201 0 0-.06-.04-.1-.1-.1m-.001 9.1a1.92 1.92 0 1 1 0-3.842 1.92 1.92 0 1 1 0 3.842m0-2.022c-.06 0-.1.04-.1.101 0 .111.201.111.201 0 0-.06-.04-.101-.1-.101M5.921 22a1.92 1.92 0 1 1 0-3.843 1.92 1.92 0 1 1 0 3.843m0-2.023c-.06 0-.1.041-.1.102 0 .11.201.11.201 0 0-.061-.04-.102-.1-.102"/>
</svg>