<svg xmlns="http://www.w3.org/2000/svg" width="26" height="26" fill="currentColor" class="sym sym-download-cloud-02" viewBox="0 0 26 26">
  <path d="M12.99 23a.9.9 0 0 1-.323-.07.7.7 0 0 1-.293-.203L8.338 18.69a.907.907 0 0 1 1.282-1.282l2.482 2.483v-6.895c0-.505.403-.909.908-.909s.908.404.908.909v6.896l2.483-2.484a.907.907 0 0 1 1.282 1.282l-4.037 4.038a1.1 1.1 0 0 1-.293.202c-.1.04-.212.06-.323.071zm8.083-4.3a.87.87 0 0 1-.696-.334.913.913 0 0 1 .121-1.282 4.64 4.64 0 0 0 1.685-3.584 4.644 4.644 0 0 0-4.642-4.644c-.545 0-1.05-.283-1.322-.747a6.69 6.69 0 0 0-5.742-3.292 6.67 6.67 0 0 0-6.66 6.664c0 1.776.686 3.442 1.937 4.704a.907.907 0 0 1-1.282 1.282A8.43 8.43 0 0 1 2 11.481C2 6.806 5.805 3 10.477 3a8.53 8.53 0 0 1 7.226 4.038C21.195 7.12 24 9.986 24 13.5a6.44 6.44 0 0 1-2.351 4.987.9.9 0 0 1-.576.212"/>
</svg>