<svg xmlns="http://www.w3.org/2000/svg" width="26" height="26" fill="currentColor" class="sym sym-download-02-solid" viewBox="0 0 26 26">
  <path d="M13.117 2.197c.366.414.658 1.04.793 1.709.06.294.068.864.082 5.507l.014 5.18 1.232-1.223c1.085-1.078 1.253-1.23 1.427-1.287.39-.13.768-.045 1.046.233s.364.654.235 1.044c-.06.178-.271.405-2.195 2.33-1.514 1.517-2.18 2.157-2.306 2.218a1 1 0 0 1-.778.05l.007.003c-.201-.066-.343-.198-2.35-2.196-1.52-1.512-2.16-2.177-2.222-2.302a.99.99 0 0 1 .186-1.145c.28-.28.658-.364 1.048-.234.174.057.343.21 1.43 1.29l1.235 1.225-.023-10.444-.094-.277c-.156-.462-.384-.747-.82-1.028-.697-.45-1.212-.454-2.246-.014-3.075 1.307-5.326 3.746-6.317 6.842-.375 1.17-.501 2.008-.501 3.32 0 1.345.126 2.192.501 3.36.553 1.73 1.4 3.105 2.722 4.424 1.32 1.32 2.698 2.166 4.43 2.718 1.167.372 2.022.5 3.347.5s2.18-.128 3.346-.5c1.733-.552 3.11-1.398 4.431-2.718 1.322-1.319 2.169-2.694 2.722-4.424.373-1.164.501-2.018.501-3.34 0-.728-.018-1.105-.07-1.461-.286-1.95-.984-3.636-2.142-5.18-.376-.5-1.412-1.568-1.874-1.931q-2.842-2.233-6.432-2.418L12.942 2l.174.197"/>
</svg>