<svg xmlns="http://www.w3.org/2000/svg" width="26" height="26" fill="currentColor" class="sym sym-download-cloud-solid" viewBox="0 0 26 26">
  <path fill-rule="evenodd" d="M12.207 4.04c-2.462.252-4.687 1.73-6.033 4.005l-.226.379-.453.153c-1.69.572-3.159 1.942-3.898 3.633a8 8 0 0 0-.494 1.594l-.009.052c-.12.63-.126 1.828-.016 2.46.25 1.45.9 2.707 1.826 3.67v.001c.785.832 1.594 1.358 2.627 1.707.964.326.468.306 7.73.306h6.49l.412-.095c2.447-.562 4.203-2.415 4.742-5.002.126-.607.127-1.887.002-2.485-.358-1.715-1.237-3.103-2.555-4.04-.411-.294-1.137-.664-1.54-.788-.312-.096-.315-.098-.384-.29-.198-.56-.672-1.437-1.092-2.019-.285-.392-.906-1.057-1.33-1.418a7.7 7.7 0 0 0-5.832-1.82zm1.135 4.266c.115.042.263.143.361.248.31.327.3.2.3 3.623v3.033l1.231-1.296c1.087-1.144 1.255-1.306 1.43-1.367a.945.945 0 0 1 1.046.248 1.105 1.105 0 0 1 .184 1.22l.002-.006c-.06.133-.702.838-2.22 2.44-1.927 2.035-2.153 2.26-2.332 2.323a.92.92 0 0 1-.693-.003l.007.003c-.178-.063-.405-.287-2.332-2.323-1.518-1.602-2.159-2.307-2.22-2.44a1.1 1.1 0 0 1-.105-.47c0-.29.11-.553.291-.743a.945.945 0 0 1 1.047-.248c.174.06.342.222 1.429 1.366l1.231 1.296v-3.033c0-3.423-.011-3.296.3-3.624a.95.95 0 0 1 1.049-.244z"/>
</svg>