<svg xmlns="http://www.w3.org/2000/svg" width="26" height="26" fill="currentColor" class="sym sym-download" viewBox="0 0 26 26">
  <path d="M17.242 23H8.758c-1.839 0-2.768 0-3.606-.434a3.9 3.9 0 0 1-1.718-1.716C3 20.012 3 19.083 3 17.245v-1.211c0-.505.404-.909.91-.909.504 0 .908.404.908.909v1.211c0 1.505 0 2.322.233 2.777.202.404.525.727.929.929.454.232 1.283.232 2.778.232h8.484c1.505 0 2.324 0 2.778-.232.404-.202.717-.526.93-.93.232-.454.232-1.282.232-2.776v-1.211c0-.505.404-.909.909-.909s.909.404.909.909v1.211c0 1.838 0 2.767-.434 3.605a3.9 3.9 0 0 1-1.717 1.716C20.01 23 19.08 23 17.242 23m-4.252-6.058a.9.9 0 0 1-.323-.07.7.7 0 0 1-.293-.202l-5.05-5.048a.908.908 0 0 1 1.282-1.282l3.495 3.493V3.909c0-.505.404-.909.91-.909.504 0 .908.404.908.909v9.924l3.495-3.493a.908.908 0 0 1 1.283 1.282l-5.05 5.048a1.1 1.1 0 0 1-.293.202 1.2 1.2 0 0 1-.324.07z"/>
</svg>