<svg xmlns="http://www.w3.org/2000/svg" width="26" height="26" fill="currentColor" class="sym sym-download-cloud-02-solid" viewBox="0 0 26 26">
  <path fill-rule="evenodd" d="M9.341 4.01c-1.314.137-2.249.392-3.28.895-2.72 1.346-4.638 3.952-4.998 7.035l-.003.042c-.439 3.754 1.573 7.413 5.001 9.094a8.9 8.9 0 0 0 2.932.858c.76.09 8.749.087 9.43-.002 1.705-.224 3.177-.944 4.376-2.144 2.243-2.244 2.83-5.594 1.49-8.49-.824-1.778-2.437-3.231-4.311-3.883-.866-.301-1.922-.459-2.77-.414l-.454.024-.366-.369a8.96 8.96 0 0 0-4.144-2.379l-.062-.013c-.264-.064-.66-.144-.88-.178-.391-.06-1.641-.108-1.96-.075m4 5.045c.115.039.264.135.361.233.31.309.3.19.3 3.418v2.862l1.23-1.224c1.084-1.078 1.252-1.231 1.426-1.288.39-.13.767-.046 1.046.234a.99.99 0 0 1 .183 1.15l.003-.005c-.061.125-.701.79-2.218 2.302-1.924 1.92-2.15 2.131-2.328 2.19a.98.98 0 0 1-.692-.002l.006.003c-.178-.06-.404-.271-2.328-2.191-1.517-1.512-2.156-2.177-2.218-2.302a.99.99 0 0 1 .186-1.145c.279-.28.656-.364 1.045-.234.174.057.342.21 1.428 1.288L12 15.568v-2.862c0-3.23-.012-3.11.3-3.419a.97.97 0 0 1 1.046-.23z"/>
</svg>