<svg xmlns="http://www.w3.org/2000/svg" width="26" height="26" fill="currentColor" class="sym sym-download-cloud" viewBox="0 0 26 26">
  <path d="M12.99 23a.9.9 0 0 1-.323-.07.7.7 0 0 1-.293-.203l-4.036-4.04a.907.907 0 0 1 1.282-1.283l2.482 2.485v-6.9c0-.504.403-.908.908-.908s.908.404.908.909v6.899l2.483-2.485a.907.907 0 0 1 1.282 1.283l-4.037 4.04a1.1 1.1 0 0 1-.293.202c-.1.04-.212.06-.323.071zm8.083-4.808a.9.9 0 0 1-.756-.404.904.904 0 0 1 .252-1.263 3.64 3.64 0 0 0 1.614-3.02 3.61 3.61 0 0 0-3.29-3.616.92.92 0 0 1-.817-.758A5.13 5.13 0 0 0 13 4.818a5.115 5.115 0 0 0-5.076 4.313.92.92 0 0 1-.818.758 3.61 3.61 0 0 0-3.29 3.616c0 1.212.606 2.343 1.615 3.02a.92.92 0 0 1 .252 1.263.916.916 0 0 1-1.261.252A5.46 5.46 0 0 1 2 13.505a5.42 5.42 0 0 1 4.269-5.323A6.935 6.935 0 0 1 13 3c3.2 0 5.934 2.141 6.731 5.182A5.434 5.434 0 0 1 24 13.505a5.46 5.46 0 0 1-2.422 4.535.9.9 0 0 1-.505.152"/>
</svg>