<svg xmlns="http://www.w3.org/2000/svg" width="26" height="26" fill="currentColor" class="sym sym-download-solid" viewBox="0 0 26 26">
  <path d="M12.665 3.057a1 1 0 0 0-.531.443l-.002.005-.111.189L12 13.576l-1.731-1.724c-1.55-1.545-1.75-1.73-1.927-1.79-.39-.129-.766-.044-1.045.235a.98.98 0 0 0-.183 1.15l-.002-.005c.06.126.83.92 2.717 2.802 2.391 2.385 2.65 2.633 2.83 2.691a1 1 0 0 0 .692-.002l-.007.002c.18-.06.438-.306 2.83-2.691 1.887-1.883 2.656-2.676 2.717-2.802a.98.98 0 0 0-.185-1.145c-.28-.28-.656-.364-1.047-.235-.177.06-.375.244-1.928 1.79l-1.73 1.725V8.712c0-5.467.02-5.1-.3-5.42a.99.99 0 0 0-1.044-.233z"/>
  <path d="M3.776 15.036c-.296.08-.537.277-.672.537l-.003.006c-.08.151-.087.226-.099 1.23-.015 1.26.043 2.597.135 3.074.189.983.791 1.863 1.675 2.445.665.437 1.187.577 2.385.636.963.048 10.642.048 11.606 0 1.199-.06 1.72-.199 2.385-.636.863-.567 1.463-1.429 1.661-2.382.1-.483.166-1.856.148-3.173-.012-.966-.018-1.043-.099-1.194-.196-.366-.498-.553-.894-.553s-.699.187-.894.553c-.084.156-.087.22-.11 1.942-.024 1.924-.037 2.055-.245 2.45-.145.275-.54.664-.815.803-.423.215-.232.21-6.94.21s-6.517.005-6.94-.21c-.276-.139-.67-.528-.815-.803-.208-.394-.222-.526-.246-2.45-.022-1.723-.027-1.786-.11-1.942-.222-.416-.702-.65-1.113-.543"/>
</svg>