<svg xmlns="http://www.w3.org/2000/svg" width="26" height="26" fill="currentColor" class="sym sym-download-02" viewBox="0 0 26 26">
  <path d="M12.99 24C6.93 24 2 18.913 2 12.661c0-4.244 2.269-8.093 5.908-10.06.777-.415 1.341-.727 2.581-.55.888.124 2.168.925 2.682 1.674.726 1.051.726 1.987.726 3.516v7.313l2.48-2.559a.887.887 0 0 1 1.281 0 .957.957 0 0 1 0 1.322l-4.033 4.16a.8.8 0 0 1-.272.188.92.92 0 0 1-.706 0 .8.8 0 0 1-.272-.187l-4.033-4.162a.957.957 0 0 1 0-1.32.887.887 0 0 1 1.28 0l2.48 2.558V7.241c0-1.456-.02-1.893-.393-2.444-.221-.323-1.058-.853-1.441-.905-.666-.094-.827 0-1.493.353-3.044 1.644-4.94 4.858-4.94 8.395 0 5.223 4.114 9.467 9.175 9.467s9.175-4.244 9.175-9.467c0-3.37-1.754-6.512-4.587-8.197a.953.953 0 0 1-.333-1.28.893.893 0 0 1 1.24-.343C21.893 4.85 24 8.604 24 12.64c0 6.252-4.93 11.34-10.99 11.34z"/>
</svg>