<svg xmlns="http://www.w3.org/2000/svg" width="26" height="26" fill="currentColor" class="sym sym-dropper-solid" viewBox="0 0 26 26">
  <path d="M18.252 4.048c-.48.105-.9.3-1.266.567l.01-.007c-.312.226-2.189 2.112-2.285 2.296-.1.191-.11.551-.018.727.08.15 3.54 3.608 3.69 3.687.176.091.536.082.729-.018.183-.096 2.07-1.97 2.297-2.282.209-.286.394-.661.502-1.015.082-.268.089-.335.089-.868 0-.534-.007-.601-.09-.869-.36-1.176-1.305-2.027-2.482-2.235a4.6 4.6 0 0 0-1.177.015zM11.54 7.616a.81.81 0 0 0-.509.75v.008c0 .285.09.434.519.867l.367.371-2.779 2.783c-2.1 2.103-2.84 2.864-3.027 3.115-.795 1.067-1.41 2.437-1.812 4.042C4.16 20.114 4 20.95 4 21.134c0 .489.377.866.867.866.208 0 1.064-.167 1.704-.332 1.565-.403 2.87-.995 3.935-1.787.239-.176 1.04-.953 3.107-3.014l2.786-2.776.371.366c.425.417.586.516.853.52.377.005.7-.245.812-.629.057-.196.04-.353-.06-.557-.042-.087-1.082-1.15-3.029-3.097-2.29-2.291-3.001-2.984-3.128-3.048a.9.9 0 0 0-.677-.03"/>
</svg>