<svg xmlns="http://www.w3.org/2000/svg" width="26" height="26" fill="currentColor" class="sym sym-drop-solid" viewBox="0 0 26 26">
  <path d="M13.2 4.044c-.179.064-.679.537-1.848 1.747-2.458 2.543-3.995 4.437-4.635 5.714a7.6 7.6 0 0 0-.538 1.512l-.01.054A7 7 0 0 0 6 14.622c0 2.897 1.7 5.403 4.172 6.61l.044.018c3.71 1.788 8.194.27 10.02-3.392A7.1 7.1 0 0 0 21 14.635c0-.827-.14-1.622-.398-2.363l.016.052a8 8 0 0 0-.262-.68c-.64-1.377-2.619-3.774-5.518-6.678-.582-.584-.85-.83-.963-.883a.94.94 0 0 0-.68-.038z"/>
</svg>