<svg xmlns="http://www.w3.org/2000/svg" width="26" height="26" fill="currentColor" class="sym sym-dropper" viewBox="0 0 26 26">
  <path d="M4.916 22a.91.91 0 0 1-.91-1.011c.02-.162.465-4.015 2.71-6.26l5.068-5.066-.577-.576a.91.91 0 0 1 1.285-1.285l.576.577 3.44-3.439a3.224 3.224 0 0 1 4.551 0 3.22 3.22 0 0 1 0 4.551l-3.439 3.438.577.577a.91.91 0 0 1-1.285 1.284l-.576-.576-5.068 5.066c-2.246 2.245-6.09 2.69-6.261 2.71h-.101zm8.163-11.043L8.01 16.024c-1.093 1.092-1.67 2.78-1.952 3.923 1.143-.283 2.832-.85 3.924-1.951l5.068-5.067-1.983-1.982zm1.284-1.284 1.983 1.982 3.439-3.438a1.404 1.404 0 0 0 0-1.982 1.404 1.404 0 0 0-1.983 0z"/>
</svg>