<svg xmlns="http://www.w3.org/2000/svg" width="26" height="26" fill="currentColor" class="sym sym-drop" viewBox="0 0 26 26">
  <path d="M12.5 22C8.36 22 5 18.694 5 14.62c0-.96.185-1.89.545-2.77 1.017-2.477 5.774-7.077 6.308-7.592a.94.94 0 0 1 1.294 0c.534.515 5.291 5.115 6.309 7.592.359.88.544 1.81.544 2.77 0 4.074-3.37 7.38-7.5 7.38m0-15.801c-1.664 1.658-4.592 4.772-5.24 6.339a5.3 5.3 0 0 0-.41 2.082c0 3.063 2.537 5.56 5.65 5.56s5.65-2.497 5.65-5.56c0-.718-.133-1.425-.41-2.082-.647-1.568-3.576-4.681-5.24-6.34"/>
</svg>