<svg xmlns="http://www.w3.org/2000/svg" width="26" height="26" fill="currentColor" class="sym sym-edit" viewBox="0 0 26 26">
  <path d="M2.9 23.98a.895.895 0 0 1-.895-.993l.378-3.358c.05-.437.08-.706.169-.984.08-.258.199-.487.338-.705.159-.239.348-.428.666-.745L13.686 7.07l.01-.01.01-.01 2.972-2.97a3.715 3.715 0 0 1 5.238 0A3.7 3.7 0 0 1 23 6.702c0 .994-.388 1.918-1.084 2.623L8.785 22.45c-.328.328-.507.507-.746.666a3 3 0 0 1-.696.338c-.288.089-.546.119-.994.168L2.99 24h-.1zM14.332 8.95l-9.514 9.507c-.248.249-.377.378-.437.467s-.1.18-.13.269c-.029.099-.049.268-.089.625l-.248 2.256 2.256-.249c.358-.04.527-.06.637-.09a.9.9 0 0 0 .258-.128c.09-.06.219-.19.457-.428l9.524-9.517zm1.262-1.262 2.714 2.712 2.346-2.345a1.917 1.917 0 0 0 0-2.702 1.927 1.927 0 0 0-2.714 0l-2.346 2.345z"/>
</svg>