<svg xmlns="http://www.w3.org/2000/svg" width="26" height="26" fill="currentColor" class="sym sym-edit-02" viewBox="0 0 26 26">
  <path d="M16.151 23.99h-8.43c-1.827 0-2.75 0-3.583-.432a3.9 3.9 0 0 1-1.706-1.708C2 21.016 2 20.09 2 18.263v-8.44c0-1.83 0-2.754.432-3.588a3.87 3.87 0 0 1 1.716-1.708c.833-.422 1.756-.422 3.583-.422h4.215a.9.9 0 0 1 .904.904.9.9 0 0 1-.904.905H7.731c-1.496 0-2.309 0-2.76.23a2.1 2.1 0 0 0-.924.925c-.23.452-.23 1.276-.23 2.763v8.44c0 1.498 0 2.312.23 2.764.201.402.522.713.924.924.451.231 1.274.231 2.76.231h8.43c1.496 0 2.309 0 2.76-.23.402-.202.723-.523.924-.925.23-.452.23-1.276.23-2.763v-4.22a.9.9 0 0 1 .904-.905.9.9 0 0 1 .903.905v4.22c0 1.828 0 2.753-.431 3.587a3.85 3.85 0 0 1-1.707 1.708c-.832.432-1.756.432-3.582.432zm-5.54-6.029H8.925a.9.9 0 0 1-.903-.904v-1.678c0-.543 0-.844.08-1.186.07-.291.19-.583.351-.834.181-.291.402-.522.773-.894l9.595-9.606c1.144-1.145 3.142-1.145 4.286 0 .572.573.893 1.336.893 2.15s-.311 1.578-.893 2.15l-9.595 9.607c-.392.391-.602.592-.893.773a2.8 2.8 0 0 1-.844.352c-.33.08-.632.08-1.174.08zm-.783-1.808h.783c.402 0 .633 0 .753-.03.11-.03.22-.07.321-.131.11-.07.271-.221.552-.513l9.605-9.616c.231-.23.361-.542.361-.864s-.13-.633-.36-.864c-.462-.462-1.276-.462-1.737 0l-9.595 9.606c-.311.312-.452.452-.512.563-.06.1-.1.2-.13.321-.03.13-.03.352-.03.754v.774z"/>
</svg>