<svg xmlns="http://www.w3.org/2000/svg" width="26" height="26" fill="currentColor" class="sym sym-equal-solid" viewBox="0 0 26 26">
  <path d="M2.888 7.587c-.315.116-.57.333-.73.61l-.003.007c-.132.222-.153.322-.153.674s.021.452.153.674c.083.142.234.323.334.398.426.326-.238.306 10.499.306 11.051 0 10.161.034 10.608-.412a1.355 1.355 0 0 0 0-1.933c-.446-.447.447-.413-10.629-.409-8.417.003-9.896.016-10.078.083zm.16 8.235c-1.033.253-1.4 1.537-.654 2.285.087.086.256.21.377.274l.222.119h19.996l.222-.119c.504-.27.761-.686.761-1.232s-.257-.963-.76-1.232l-.223-.12-9.888-.007c-5.437-.006-9.962.009-10.053.032"/>
</svg>