<svg xmlns="http://www.w3.org/2000/svg" width="26" height="26" fill="currentColor" class="sym sym-equal-not-solid" viewBox="0 0 26 26">
  <path d="M19.645 5.066c-.153.053-.466.347-2.123 1.998L15.58 9h-4.868c-5.301 0-5.04-.011-5.344.222a1.2 1.2 0 0 0-.24.284l-.003.005c-.096.162-.111.234-.111.49 0 .255.015.328.11.489.062.103.171.234.244.289.302.23.137.222 4.344.222h3.868l-4.003 4.002H7.711c-2.022 0-2.056.003-2.343.223a1.2 1.2 0 0 0-.24.283l-.003.005c-.096.162-.111.234-.111.49 0 .255.015.327.11.489.062.103.171.234.244.289.259.197.407.222 1.341.222h.864l-1.224 1.23c-1.08 1.086-1.232 1.254-1.29 1.428-.13.39-.045.767.234 1.045.278.278.655.363 1.045.234.177-.06.39-.258 2.14-2.001l1.941-1.936h4.866c5.47 0 5.103.02 5.422-.3a.983.983 0 0 0 0-1.403c-.316-.315-.073-.3-4.422-.3h-3.867L16.422 11h1.865c2.114 0 2.121 0 2.42-.3a.983.983 0 0 0 0-1.403c-.268-.267-.415-.299-1.418-.299h-.862l1.224-1.23c1.08-1.086 1.232-1.254 1.29-1.428.129-.39.044-.767-.234-1.045a1 1 0 0 0-1.069-.229l.007-.002z"/>
</svg>