<svg xmlns="http://www.w3.org/2000/svg" width="26" height="26" fill="currentColor" class="sym sym-equal-not" viewBox="0 0 26 26">
  <path d="M5.92 21a.95.95 0 0 1-.647-.263.91.91 0 0 1 0-1.287l2.49-2.492H5.91a.91.91 0 0 1-.91-.912c0-.507.405-.912.91-.912h3.674l4.25-4.255H5.912A.91.91 0 0 1 5 9.967c0-.507.405-.912.91-.912h9.747l3.785-3.789a.91.91 0 0 1 1.285 1.287l-2.49 2.492h1.852c.506 0 .911.405.911.912a.907.907 0 0 1-.91.912h-3.674l-4.25 4.255h7.923c.506 0 .911.405.911.912a.907.907 0 0 1-.91.911h-9.746l-3.785 3.79A.9.9 0 0 1 5.91 21z"/>
</svg>