<svg xmlns="http://www.w3.org/2000/svg" width="26" height="26" fill="currentColor" class="sym sym-eraser-solid" viewBox="0 0 26 26">
  <path d="M15.99 4.01c-.779.121-1.248.348-1.876.903-.372.33-1.364 1.343-1.471 1.502a.85.85 0 0 0-.105.722l-.001-.006.058.209 3.055 3.17c2.042 2.12 3.099 3.194 3.189 3.239a.75.75 0 0 0 .612.052l-.006.002c.189-.056.225-.087.867-.76.972-1.015 1.299-1.463 1.498-2.046.12-.338.19-.73.19-1.138s-.07-.8-.198-1.162l.008.023c-.116-.339-.3-.661-.598-1.05-.268-.35-2.37-2.535-2.714-2.824-.527-.44-.939-.658-1.461-.773-.247-.055-.864-.092-1.047-.063m-5.377 4.57c-.11.054-.753.697-2.357 2.353-2.453 2.531-3.32 3.46-3.618 3.874a3.27 3.27 0 0 0-.625 1.684v.011c-.069.854.143 1.633.625 2.304.347.482 2.028 2.273 2.49 2.653.244.2.65.401.967.479.242.059.61.062 6.455.062h6.198l.135-.075a.84.84 0 0 0 .463-.776.84.84 0 0 0-.463-.777l-.135-.074-7.4-.02 2.078-2.16c1.548-1.61 2.097-2.203 2.15-2.321a.96.96 0 0 0 .001-.733l.003.006c-.099-.227-6.044-6.391-6.263-6.493a.9.9 0 0 0-.71.006z"/>
</svg>