<svg xmlns="http://www.w3.org/2000/svg" width="26" height="26" fill="currentColor" class="sym sym-eraser" viewBox="0 0 26 26">
  <path d="M20.486 22H9.103c-.448 0-.711 0-1.004-.07a2.4 2.4 0 0 1-.732-.314c-.263-.172-.448-.364-.76-.688l-.556-.577c-1.054-1.092-1.63-1.689-1.883-2.488a3.57 3.57 0 0 1 0-2.165c.254-.799.83-1.396 1.883-2.488l6.837-7.09c1.053-1.093 1.629-1.69 2.4-1.953a3.35 3.35 0 0 1 2.086 0c.77.263 1.346.86 2.4 1.952l.175.182c1.054 1.093 1.63 1.69 1.883 2.489a3.57 3.57 0 0 1 0 2.164c-.254.8-.83 1.396-1.883 2.489l-6.496 6.736h7.033c.487 0 .877.405.877.91 0 .506-.39.911-.877.911m-8.32-12.563L7.29 14.495c-.858.89-1.336 1.385-1.453 1.77a1.7 1.7 0 0 0 0 1.031c.117.385.595.87 1.453 1.77l.556.577c.234.243.361.374.44.425.067.04.146.08.224.101.087.02.282.02.594.02h1.122c.312 0 .507 0 .595-.02a.7.7 0 0 0 .224-.101c.079-.05.205-.182.43-.415l5.257-5.462-4.584-4.754zm1.239-1.285 4.584 4.754.712-.738c.858-.89 1.336-1.386 1.453-1.77a1.7 1.7 0 0 0 0-1.032c-.117-.384-.595-.87-1.453-1.77l-.176-.182c-.858-.89-1.336-1.386-1.706-1.507a1.55 1.55 0 0 0-1.005 0c-.37.121-.839.617-1.707 1.507l-.722.748z"/>
</svg>