<svg xmlns="http://www.w3.org/2000/svg" width="26" height="26" fill="currentColor" class="sym sym-expand-03-solid" viewBox="0 0 26 26">
  <path d="M5.515 5.054a.9.9 0 0 0-.275.184C4.993 5.485 5 5.41 5 7.8c0 1.359.012 2.159.034 2.236a.85.85 0 0 0 .391.468.786.786 0 0 0 .936-.138c.23-.23.24-.29.24-1.536V7.739l1.386 1.38c1.241 1.238 1.401 1.386 1.543 1.434a.79.79 0 0 0 .836-.188.79.79 0 0 0 .187-.836c-.047-.141-.195-.3-1.433-1.543L7.74 6.6h1.09c1.246 0 1.306-.01 1.535-.24a.785.785 0 0 0 0-1.122c-.247-.247-.17-.24-2.576-.237-1.846.002-2.152.01-2.274.052zm10.52-.026c-.602.15-.815.893-.38 1.328.05.05.149.122.219.16.124.066.173.068 1.263.078l1.134.01-1.347 1.351c-.914.917-1.37 1.398-1.42 1.496a.81.81 0 0 0 .15.91.81.81 0 0 0 .91.15c.097-.05.578-.507 1.495-1.42l1.351-1.348.01 1.134c.01 1.09.012 1.14.079 1.264.157.293.399.442.716.442s.559-.15.715-.442C21 10.013 21 10 21 7.8s0-2.21-.07-2.339a.9.9 0 0 0-.374-.376l-.005-.003c-.127-.067-.145-.069-2.275-.074-1.18-.002-2.188.005-2.241.02M5.625 15.44a.85.85 0 0 0-.538.43l-.002.004c-.07.128-.07.139-.07 2.339s0 2.211.07 2.339a.9.9 0 0 0 .379.379C5.59 21 5.602 21 7.802 21s2.211 0 2.34-.07c.292-.156.442-.398.442-.715s-.15-.559-.443-.716c-.124-.066-.173-.069-1.263-.078l-1.134-.01 1.347-1.352c.914-.917 1.37-1.398 1.42-1.496a.805.805 0 0 0-.15-.91.81.81 0 0 0-.913-.148l.004-.002c-.097.05-.578.507-1.495 1.421l-1.351 1.347-.01-1.134c-.01-1.09-.013-1.14-.08-1.263-.178-.333-.562-.52-.891-.435m10.41.001a.84.84 0 0 0-.535.43l-.003.004c-.095.183-.091.496.007.69.05.097.507.578 1.42 1.495l1.348 1.351-1.134.01c-1.09.01-1.14.013-1.264.08-.293.156-.442.398-.442.715s.15.56.442.716c.128.069.14.069 2.34.069s2.21 0 2.338-.07a.9.9 0 0 0 .379-.378c.069-.128.069-.139.069-2.34s0-2.21-.07-2.338c-.156-.293-.398-.443-.715-.443s-.559.15-.716.443c-.066.124-.069.173-.078 1.263l-.01 1.134-1.352-1.347c-.853-.85-1.4-1.371-1.483-1.412a.9.9 0 0 0-.541-.073"/>
</svg>