<svg xmlns="http://www.w3.org/2000/svg" width="26" height="26" fill="currentColor" class="sym sym-expand-02" viewBox="0 0 26 26">
  <path d="M5.911 21h-.02a.9.9 0 0 1-.324-.07.7.7 0 0 1-.294-.203 1.1 1.1 0 0 1-.202-.294.9.9 0 0 1-.071-.324v-4.75c0-.506.405-.91.911-.91.507 0 .912.404.912.91v2.522l3.17-3.17a.91.91 0 0 1 1.285 0 .91.91 0 0 1 0 1.287l-3.17 3.17h2.522c.507 0 .912.404.912.91a.91.91 0 0 1-.912.912H5.901zm10.4 0H14.58a.91.91 0 0 1-.912-.911c0-.507.405-.912.912-.912h1.731c1.135 0 1.762 0 2.076-.162.274-.142.497-.364.638-.638.152-.304.152-.931.152-2.076V14.57c0-.507.405-.912.912-.912.506 0 .911.405.911.912v1.73c0 1.418 0 2.208-.354 2.907a3.25 3.25 0 0 1-1.428 1.428c-.699.354-1.479.354-2.907.354zm-10.4-8.668A.91.91 0 0 1 5 11.42V9.69c0-1.418 0-2.208.354-2.907a3.24 3.24 0 0 1 1.428-1.428C7.481 5 8.261 5 9.69 5h1.731c.507 0 .912.405.912.911a.91.91 0 0 1-.912.912H9.69c-1.135 0-1.762 0-2.076.162a1.5 1.5 0 0 0-.638.638c-.152.304-.152.931-.152 2.076v1.731a.91.91 0 0 1-.912.912zm9.449-.79a.95.95 0 0 1-.649-.264.91.91 0 0 1 0-1.286l3.17-3.17H15.36a.91.91 0 0 1-.912-.91c0-.507.405-.912.912-.912h4.749c.111 0 .223.03.324.07a.7.7 0 0 1 .294.203c.09.092.151.193.202.294.04.101.071.213.071.324v4.75a.91.91 0 0 1-.911.91.91.91 0 0 1-.912-.91V8.118l-3.17 3.17a.9.9 0 0 1-.648.263z"/>
</svg>