<svg xmlns="http://www.w3.org/2000/svg" width="26" height="26" fill="currentColor" class="sym sym-expand-solid" viewBox="0 0 26 26">
  <path d="M15.125 5.05a.8.8 0 0 0-.424.355l-.002.004c-.076.13-.089.187-.089.392 0 .204.013.262.089.391a1 1 0 0 0 .194.231c.23.176.257.178 1.874.178h1.494l-2.182 2.186c-1.984 1.988-2.187 2.2-2.233 2.344a.79.79 0 0 0 .187.836.79.79 0 0 0 .836.187c.143-.047.356-.25 2.343-2.233L19.4 7.739v1.489c0 .927.012 1.534.033 1.608a.85.85 0 0 0 .392.468.786.786 0 0 0 .936-.138c.25-.25.24-.125.24-2.964s.01-2.715-.24-2.964-.123-.24-2.977-.237c-2.114.002-2.553.01-2.657.048zm-3.911 8.788q-.118.035-.216.085l.008-.004c-.062.032-1.081 1.024-2.265 2.206L6.59 18.273l-.01-1.536c-.01-1.5-.011-1.538-.079-1.663-.156-.294-.398-.443-.715-.443s-.56.15-.716.442c-.069.13-.069.13-.069 2.74s0 2.61.069 2.74a.9.9 0 0 0 .379.378c.129.069.13.069 2.74.069 2.609 0 2.61 0 2.738-.07.293-.156.443-.398.443-.715s-.15-.559-.443-.715c-.125-.068-.164-.07-1.663-.08l-1.536-.009 2.148-2.152c1.504-1.506 2.17-2.196 2.222-2.297a.805.805 0 0 0-.15-.91c-.183-.181-.502-.274-.733-.214"/>
</svg>