<svg xmlns="http://www.w3.org/2000/svg" width="26" height="26" fill="currentColor" class="sym sym-expand-02-solid" viewBox="0 0 26 26">
  <path d="M8.072 5.031c-.7.048-1.205.21-1.703.545-.434.293-.91.875-1.102 1.345-.112.277-.196.662-.234 1.085-.044.485-.044 3.465 0 3.624a.85.85 0 0 0 .391.468.79.79 0 0 0 .936-.139c.236-.234.234-.22.25-2.193.01-1.083.03-1.817.052-1.936.052-.284.182-.518.417-.753s.468-.365.753-.418c.12-.022.853-.04 1.936-.05 1.972-.017 1.958-.016 2.193-.25a.787.787 0 0 0 .001-1.123c-.24-.24-.238-.24-1.983-.235-.847.003-1.705.017-1.907.03m7.155-.004c-.602.148-.814.892-.38 1.326.05.05.149.122.219.16.125.067.164.068 1.663.078l1.535.01-1.747 1.75c-1.209 1.212-1.77 1.797-1.82 1.896a.81.81 0 0 0 .15.909c.235.233.62.297.908.15.1-.05.684-.612 1.896-1.82l1.75-1.747.01 1.535c.01 1.499.012 1.537.079 1.663.156.293.398.442.715.442s.559-.15.715-.442c.07-.13.07-.13.07-2.738s0-2.609-.07-2.738a.9.9 0 0 0-.373-.376l-.005-.003c-.13-.069-.137-.069-2.674-.073-1.4-.003-2.588.004-2.641.018m4.802 8.803a.85.85 0 0 0-.537.43l-.003.004c-.067.127-.069.166-.088 1.97-.021 1.995-.024 2.03-.204 2.362-.109.2-.428.514-.626.616-.316.163-.37.167-2.336.188-1.804.019-1.843.02-1.97.088-.293.157-.442.399-.442.715 0 .317.15.56.442.716.125.066.171.069 1.361.078 2.088.018 2.913-.048 3.45-.274.697-.293 1.354-.95 1.647-1.646.226-.538.292-1.364.274-3.45-.01-1.19-.012-1.238-.078-1.362-.179-.333-.563-.52-.892-.434zm-14.406.8a.85.85 0 0 0-.537.43l-.002.004c-.07.13-.07.13-.07 2.738s0 2.609.07 2.738a.9.9 0 0 0 .379.379c.129.069.13.069 2.737.069s2.609 0 2.738-.07c.293-.156.442-.398.442-.715s-.15-.558-.442-.715c-.126-.067-.164-.069-1.663-.079L7.74 19.4l1.747-1.75c1.208-1.212 1.77-1.797 1.82-1.896a.8.8 0 0 0-.15-.909.805.805 0 0 0-.913-.148l.005-.002c-.1.05-.684.612-1.895 1.82l-1.751 1.748-.01-1.535c-.01-1.5-.011-1.538-.079-1.663-.178-.333-.562-.52-.891-.435"/>
</svg>