<svg xmlns="http://www.w3.org/2000/svg" width="26" height="26" fill="currentColor" class="sym sym-expand" viewBox="0 0 26 26">
  <path d="M5.891 21a.9.9 0 0 1-.324-.07.7.7 0 0 1-.294-.203 1.1 1.1 0 0 1-.202-.294A1.2 1.2 0 0 1 5 20.109v-4.74c0-.506.405-.91.911-.91.507 0 .912.404.912.91v2.522l3.96-3.96a.91.91 0 0 1 1.285 1.287l-3.96 3.96h2.522c.507 0 .912.404.912.91a.91.91 0 0 1-.912.912zm8.679-8.668a.95.95 0 0 1-.649-.264.91.91 0 0 1 0-1.286l3.96-3.96H15.36a.91.91 0 0 1-.912-.91c0-.507.405-.912.912-.912h4.749c.111 0 .223.03.324.07a.75.75 0 0 1 .294.203c.09.092.151.193.202.294.04.101.06.213.071.324v4.74a.91.91 0 0 1-.911.91.91.91 0 0 1-.912-.91V8.108l-3.96 3.96a.9.9 0 0 1-.647.263"/>
</svg>