<svg xmlns="http://www.w3.org/2000/svg" width="26" height="26" fill="currentColor" class="sym sym-eye-solid" viewBox="0 0 26 26">
  <path d="M12.593 11.052c-.848.168-1.534 1.042-1.534 1.956 0 .922.67 1.772 1.545 1.96 1.188.255 2.337-.71 2.337-1.96a2 2 0 0 0-.579-1.406 1.87 1.87 0 0 0-1.77-.55"/>
  <path fill-rule="evenodd" d="M12.358 5.036c-2.313.153-4.572 1.24-6.656 3.21-1.184 1.116-2.776 3.223-3.11 4.115-.122.323-.122.97 0 1.294.164.44.744 1.345 1.42 2.218 1.093 1.412 2.166 2.445 3.456 3.327 1.926 1.316 3.99 1.919 6.102 1.78a8.3 8.3 0 0 0 1.885-.315l-.06.015c2.025-.541 4.158-1.957 5.812-3.859 1.003-1.153 1.965-2.535 2.202-3.166.121-.322.121-.97 0-1.294-.334-.889-1.9-2.964-3.09-4.095-1.82-1.726-3.783-2.785-5.806-3.13-.334-.057-1.416-.148-1.61-.135l-.543.036zm1.671 4.101c1.359.417 2.306 1.394 2.723 2.809.1.334.107.412.107 1.062s-.008.727-.107 1.062c-.416 1.415-1.353 2.382-2.723 2.811-.324.102-.399.11-1.029.11s-.704-.008-1.029-.11c-.685-.215-1.193-.517-1.678-1a4.06 4.06 0 0 1-1.18-2.877c0-.648.15-1.26.414-1.802l-.01.024a4.03 4.03 0 0 1 2.212-2.011l.028-.01c.5-.17.727-.203 1.34-.188.491.011.636.03.93.12z"/>
</svg>