<svg xmlns="http://www.w3.org/2000/svg" width="26" height="26" fill="currentColor" class="sym sym-eye-off-solid" viewBox="0 0 26 26">
  <path fill-rule="evenodd" d="M3.938 3.06a.995.995 0 0 0-.64.936q.001.176.055.333l-.002-.007c.063.2.17.322 1.555 1.756l1.487 1.54-.2.16c-.338.273-1.509 1.495-1.915 2.002-.759.948-1.519 2.086-1.69 2.533-.073.19-.088.304-.088.688 0 .564.05.717.455 1.369 1.154 1.86 2.822 3.668 4.383 4.746 2.4 1.66 4.968 2.235 7.543 1.689.91-.193 2.038-.624 2.814-1.077l.286-.168 1.614 1.658c1.444 1.483 1.635 1.665 1.805 1.723a.94.94 0 0 0 1.015-.235 1 1 0 0 0 .282-.7 1 1 0 0 0-.105-.45l.002.005c-.062-.129-2.43-2.594-8.946-9.306-8.193-8.44-8.877-9.136-9.054-9.196a.95.95 0 0 0-.666 0l.007-.002zm6.464 8.685.724.746-.033.145c-.046.204-.043.524.008.774.21 1.039 1.294 1.787 2.254 1.557l.14-.034.731.755c.841.867.818.774.248 1.01-.541.226-.872.287-1.513.284-.477-.003-.62-.02-.937-.106a3.92 3.92 0 0 1-2.208-1.59l-.008-.013a4.8 4.8 0 0 1-.573-1.298l-.008-.034c-.165-.691-.11-1.688.13-2.316.102-.27.272-.623.3-.623.012 0 .348.334.745.743"/>
  <path d="M12.33 5.04a9.4 9.4 0 0 0-1.94.354l.068-.017a5 5 0 0 0-.562.177l.04-.013c-.011.011.728.792 1.643 1.735l1.663 1.714.218.026c.811.097 1.629.503 2.246 1.118.617.613 1.066 1.533 1.158 2.379l.026.238 4.133 4.259.264-.293c.82-.911 1.895-2.466 2.122-3.069.121-.323.121-.97 0-1.293-.334-.888-1.9-2.96-3.091-4.09-1.82-1.724-3.783-2.782-5.806-3.126-.343-.058-1.407-.147-1.63-.135-.052.002-.301.02-.552.037"/>
</svg>