<svg xmlns="http://www.w3.org/2000/svg" width="26" height="26" fill="currentColor" class="sym sym-eye-off" viewBox="0 0 26 26">
  <path d="M22.215 23a.96.96 0 0 1-.655-.263l-3.285-3.242c-1.678.99-3.459 1.485-5.28 1.485-5.638 0-9.281-4.737-10.58-6.777-.154-.242-.297-.454-.369-.777a2 2 0 0 1 0-.859c.072-.313.205-.515.368-.778.635-1 1.914-2.757 3.776-4.231l-3.05-3.01a.9.9 0 0 1 0-1.283.93.93 0 0 1 1.3 0l3.725 3.676c.062.04.113.101.154.162l7.47 7.373s.02.02.03.02c0 0 .02.02.02.03l3.121 3.08q.107.077.185.182l3.714 3.667a.9.9 0 0 1 0 1.282.92.92 0 0 1-.655.263zM7.51 8.86c-1.74 1.334-2.936 2.98-3.52 3.909-.061.09-.102.152-.133.212.03.111.072.162.123.253 1.146 1.787 4.308 5.928 9.025 5.928 1.34 0 2.65-.333 3.92-1l-1.832-1.808a4 4 0 0 1-2.098.586c-2.2 0-3.99-1.767-3.99-3.939 0-.737.204-1.454.593-2.07L7.5 8.86zm3.48 3.434a2.1 2.1 0 0 0-.123.717c0 1.172.961 2.121 2.148 2.121.246 0 .492-.04.727-.12zm10.426 4.232a.95.95 0 0 1-.593-.212.904.904 0 0 1-.113-1.283q.721-.848 1.32-1.787c.062-.101.103-.152.133-.212-.03-.101-.071-.162-.122-.243-1.147-1.787-4.308-5.938-9.036-5.938-.389 0-.767.03-1.156.08a.92.92 0 0 1-1.044-.767.913.913 0 0 1 .778-1.03c.47-.071.941-.101 1.422-.101 5.638 0 9.281 4.736 10.58 6.776.164.253.297.465.369.778.061.263.061.596 0 .859-.072.313-.205.525-.358.757q-.673 1.06-1.484 2a.93.93 0 0 1-.706.323z"/>
</svg>