<svg xmlns="http://www.w3.org/2000/svg" width="26" height="26" fill="currentColor" class="sym sym-eye" viewBox="0 0 26 26">
  <path d="M12.5 20.99c-5.384 0-8.863-4.746-10.104-6.79-.147-.244-.284-.456-.352-.78a2.1 2.1 0 0 1 0-.86c.068-.314.195-.527.352-.77C3.636 9.747 7.116 5 12.5 5s8.863 4.746 10.104 6.79c.147.244.284.456.352.78.059.263.059.597 0 .86-.068.314-.195.526-.352.78C21.364 16.253 17.884 21 12.5 21zm0-14.168c-4.505 0-7.524 4.149-8.619 5.94a1 1 0 0 0-.117.213c.02.111.068.172.117.253 1.085 1.791 4.114 5.94 8.619 5.94s7.534-4.149 8.619-5.94c.058-.091.098-.152.127-.213-.03-.111-.069-.162-.117-.253-1.095-1.791-4.114-5.94-8.62-5.94z"/>
  <path d="M12.5 16.942c-2.101 0-3.811-1.771-3.811-3.947s1.71-3.947 3.81-3.947c2.102 0 3.812 1.771 3.812 3.947s-1.71 3.947-3.811 3.947m0-6.072c-1.134 0-2.052.951-2.052 2.125s.918 2.125 2.052 2.125 2.052-.951 2.052-2.125-.919-2.125-2.052-2.125"/>
</svg>