<svg xmlns="http://www.w3.org/2000/svg" width="26" height="26" fill="currentColor" class="sym sym-face-wink" viewBox="0 0 26 26">
  <path d="M13 24C6.935 24 2 19.065 2 13S6.935 2 13 2s11 4.935 11 11-4.935 11-11 11m0-20.183c-5.066 0-9.183 4.117-9.183 9.183S7.934 22.183 13 22.183s9.183-4.117 9.183-9.183S18.066 3.817 13 3.817m0 14.128c-2.947 0-4.693-2.28-4.763-2.382a.905.905 0 0 1 .181-1.271.905.905 0 0 1 1.272.181c.03.04 1.302 1.655 3.31 1.655s3.3-1.645 3.31-1.655a.91.91 0 0 1 1.272-.171.91.91 0 0 1 .181 1.261c-.07.101-1.816 2.382-4.763 2.382m3.028-6.56a1.417 1.417 0 0 1-1.413-1.413c0-.777.636-1.412 1.412-1.412.778 0 1.413.635 1.413 1.412s-.635 1.413-1.413 1.413m-5.046-.504H8.963a.905.905 0 0 1-.908-.909c0-.504.404-.908.908-.908h2.019c.504 0 .908.404.908.908a.905.905 0 0 1-.908.909"/>
</svg>