<svg xmlns="http://www.w3.org/2000/svg" width="26" height="26" fill="currentColor" class="sym sym-face-id-solid" viewBox="0 0 26 26">
  <path d="M7.455 4.035c-.788.054-1.355.235-1.915.612-.488.33-1.025.985-1.24 1.513-.127.312-.22.745-.264 1.22-.048.535-.048 2.102 0 2.277a.96.96 0 0 0 .44.527.885.885 0 0 0 1.053-.156c.243-.241.262-.346.282-1.55.02-1.148.05-1.414.195-1.71.125-.255.51-.64.764-.764.295-.145.562-.176 1.71-.195 1.202-.021 1.309-.04 1.55-.281a.885.885 0 0 0 0-1.263c-.245-.246-.367-.27-1.33-.264a26 26 0 0 0-1.245.034m8.948-.005c-.675.164-.915 1.004-.427 1.492.056.056.167.135.246.178.136.07.217.078 1.298.1 1.246.024 1.422.047 1.753.22.248.13.598.486.723.732.156.31.18.51.204 1.727.022 1.08.028 1.161.1 1.298.173.329.447.497.803.497s.632-.17.803-.497c.063-.12.078-.227.09-.613.022-.694-.051-2.029-.132-2.416-.27-1.295-1.368-2.375-2.67-2.624-.515-.099-2.495-.165-2.79-.094M8.705 8.547a.86.86 0 0 0-.538.451l-.002.006-.1.196.01.918c.011 1.009.016 1.026.248 1.258.191.192.31.236.627.236.318 0 .436-.044.628-.236.232-.232.236-.251.248-1.246.01-.866.008-.915-.068-1.09a.885.885 0 0 0-1.057-.491l.006-.002zm4.501 0a.86.86 0 0 0-.537.449L12.667 9l-.1.194v1.525c0 1.666.003 1.639-.21 1.82a.56.56 0 0 1-.31.113c-.5.058-.824.407-.824.887 0 .356.17.63.498.803.115.06.204.075.44.072.973-.013 1.853-.72 2.1-1.689.066-.256.071-.402.071-1.902V9.2l-.085-.181a.88.88 0 0 0-1.047-.47zm3.601 0a.86.86 0 0 0-.538.451l-.002.006-.1.196.01.918c.012 1.009.015 1.026.248 1.258.191.192.31.236.627.236.318 0 .436-.044.628-.236.232-.232.236-.251.248-1.246.01-.866.008-.915-.068-1.09a.885.885 0 0 0-1.057-.491l.006-.002zm-7.021 6.482c-.516.143-.783.736-.553 1.23.212.454 1.265 1.175 2.147 1.47.544.181.83.22 1.585.22.766 0 1.025-.038 1.605-.234a5.2 5.2 0 0 0 1.713-.995l-.006.005c.396-.357.481-.506.481-.846a.85.85 0 0 0-.877-.876c-.28 0-.44.072-.725.326-.69.619-1.325.859-2.246.853-.44-.003-.546-.016-.828-.102a3.6 3.6 0 0 1-1.268-.7l.005.004a3 3 0 0 0-.43-.317.98.98 0 0 0-.61-.037zm-5.086.703a.95.95 0 0 0-.604.489c-.064.122-.078.224-.09.65-.019.67.047 1.94.12 2.322.168.874.707 1.668 1.483 2.185.63.42 1.07.533 2.279.592 1.112.054 1.701.034 1.891-.065.328-.17.498-.446.498-.803s-.17-.63-.498-.804c-.135-.071-.216-.078-1.297-.1-.718-.014-1.227-.04-1.35-.068-.593-.137-1.127-.67-1.26-1.26-.029-.122-.055-.643-.07-1.35-.02-1.081-.027-1.162-.098-1.298-.198-.374-.631-.586-1.002-.49zm16.204 0a.95.95 0 0 0-.606.489c-.071.136-.078.217-.1 1.297-.024 1.247-.047 1.424-.22 1.754-.131.248-.486.598-.732.723-.31.156-.51.18-1.727.204-1.08.022-1.161.028-1.297.1-.33.173-.498.447-.498.803s.17.632.497.804c.19.099.78.119 1.892.065 1.208-.06 1.65-.173 2.278-.592.756-.503 1.295-1.281 1.47-2.128.082-.387.155-1.722.133-2.416-.016-.51-.06-.651-.267-.86-.205-.204-.564-.31-.824-.242z"/>
</svg>