<svg xmlns="http://www.w3.org/2000/svg" width="26" height="26" fill="currentColor" class="sym sym-face-id" viewBox="0 0 26 26">
  <path d="M16.768 21.99h-.182a.905.905 0 0 1-.91-.91c0-.505.405-.91.91-.91h.182c1.313 0 2.04 0 2.424-.191.343-.172.606-.445.778-.778.192-.385.192-1.112.192-2.426v-.182c0-.505.404-.91.909-.91s.909.405.909.91v.182c0 1.597 0 2.486-.394 3.254a3.6 3.6 0 0 1-1.576 1.577c-.768.394-1.646.394-3.252.394zm-7.364 0h-.182c-1.596 0-2.485 0-3.252-.394a3.6 3.6 0 0 1-1.576-1.577C4 19.251 4 18.372 4 16.765v-.182c0-.505.404-.91.91-.91.504 0 .908.405.908.91v.182c0 1.314 0 2.041.192 2.425.172.344.445.607.778.779.384.192 1.111.192 2.424.192h.182c.505 0 .909.404.909.91a.905.905 0 0 1-.909.909zm3.546-4.002a5.04 5.04 0 0 1-3.566-1.476.908.908 0 0 1 1.283-1.283c1.222 1.223 3.333 1.223 4.545 0a.908.908 0 0 1 1.283 1.283 5.02 5.02 0 0 1-3.566 1.476zm-.85-3.548a.906.906 0 0 1-.91-.91c0-.505.405-.909.91-.909.212 0 .434-.222.434-.434v-2.79c0-.505.404-.91.91-.91.505 0 .909.405.909.91v2.79c0 1.222-1.03 2.253-2.253 2.253m4.94-2.78a.906.906 0 0 1-.91-.909V9.407c0-.505.404-.91.91-.91.505 0 .909.405.909.91v1.344c0 .506-.404.91-.91.91m-8.081 0a.906.906 0 0 1-.91-.909V9.407c0-.505.405-.91.91-.91s.909.405.909.91v1.344c0 .506-.404.91-.91.91m12.12-1.343a.906.906 0 0 1-.908-.91v-.182c0-1.314 0-2.041-.192-2.425a1.76 1.76 0 0 0-.778-.779c-.384-.192-1.111-.192-2.424-.192h-.182a.906.906 0 0 1-.91-.91c0-.505.405-.909.91-.909h.182c1.596 0 2.485 0 3.252.394a3.6 3.6 0 0 1 1.576 1.577C22 6.749 22 7.628 22 9.235v.182c0 .506-.404.91-.91.91zm-16.16 0a.906.906 0 0 1-.91-.91v-.182c0-1.597 0-2.486.394-3.254A3.6 3.6 0 0 1 5.98 4.394C6.747 4 7.626 4 9.232 4h.182c.505 0 .91.404.91.91 0 .505-.405.91-.91.91h-.182c-1.313 0-2.04 0-2.424.191a1.76 1.76 0 0 0-.778.778c-.192.385-.192 1.112-.192 2.426v.182c0 .505-.404.91-.909.91z"/>
</svg>