<svg xmlns="http://www.w3.org/2000/svg" width="26" height="26" fill="currentColor" class="sym sym-face-content-solid" viewBox="0 0 26 26">
  <path fill-rule="evenodd" d="M12.069 2.024c-2.252.22-4.209 1.004-5.98 2.397-.462.363-1.498 1.433-1.873 1.934C3.057 7.9 2.36 9.586 2.074 11.54c-.099.673-.099 2.251 0 2.924.286 1.952.982 3.637 2.141 5.185.456.608 1.529 1.681 2.137 2.137 1.55 1.158 3.235 1.853 5.187 2.14.673.099 2.253.099 2.926 0 1.952-.286 3.637-.982 5.187-2.14.607-.456 1.68-1.529 2.137-2.137 1.159-1.548 1.854-3.233 2.141-5.185.052-.357.07-.734.07-1.462 0-.729-.018-1.106-.07-1.462-.286-1.953-.984-3.64-2.142-5.185-.375-.501-1.411-1.57-1.873-1.934-1.6-1.259-3.358-2.023-5.33-2.315-.635-.094-1.946-.136-2.516-.082M8.307 9.298c.157.047.277.126.483.32.3.283.482.38.715.378.224 0 .442-.119.716-.388.363-.355.7-.447 1.118-.306.37.127.662.539.662.936 0 .315-.112.52-.478.882-.393.387-.722.596-1.186.75-.28.093-.385.106-.841.108-.467 0-.554-.012-.842-.11a3.05 3.05 0 0 1-1.206-.764c-.343-.343-.457-.559-.457-.865 0-.517.454-.988.965-.999a1.4 1.4 0 0 1 .351.06zm7.013 0c.157.047.277.126.483.32.3.283.482.38.715.378.225 0 .442-.119.717-.388.363-.355.7-.447 1.118-.306.37.127.66.539.66.936 0 .315-.111.52-.476.882-.393.387-.723.596-1.187.75-.28.093-.385.106-.841.108-.467 0-.554-.012-.841-.11a3.05 3.05 0 0 1-1.206-.764h-.001c-.343-.343-.457-.559-.457-.865 0-.517.455-.988.965-.999a1.4 1.4 0 0 1 .351.06zm-6.013 4.767c.178.053.273.127.679.534.686.684 1.235 1.028 2.043 1.275.316.096.414.107.973.107s.656-.011.973-.107c.808-.247 1.357-.59 2.044-1.275.406-.407.5-.481.679-.534.264-.079.411-.078.652.005.404.137.694.588.652 1.014-.03.311-.173.541-.607.981-1.216 1.225-2.638 1.88-4.212 1.933-1.673.058-3.27-.617-4.572-1.931-.435-.441-.578-.67-.608-.982-.052-.544.41-1.065.956-1.077.078-.003.235.024.349.057"/>
</svg>