<svg xmlns="http://www.w3.org/2000/svg" width="26" height="26" fill="currentColor" class="sym sym-face-wink-solid" viewBox="0 0 26 26">
  <path fill-rule="evenodd" d="M12.069 2.024c-2.252.22-4.209 1.004-5.98 2.397-.462.363-1.498 1.433-1.873 1.934C3.057 7.9 2.36 9.586 2.074 11.54c-.099.673-.099 2.251 0 2.924.286 1.952.982 3.637 2.141 5.185.456.608 1.529 1.681 2.137 2.137 1.55 1.158 3.235 1.853 5.187 2.14.673.099 2.253.099 2.926 0 1.952-.286 3.637-.982 5.187-2.14.607-.456 1.68-1.529 2.137-2.137 1.159-1.548 1.854-3.233 2.141-5.185.052-.357.07-.734.07-1.462 0-.729-.018-1.106-.07-1.462-.286-1.953-.984-3.64-2.142-5.185-.375-.501-1.411-1.57-1.873-1.934-1.6-1.259-3.358-2.023-5.33-2.315-.635-.094-1.946-.136-2.516-.082m4.587 6.624c.265.13.604.473.727.739.073.157.088.262.088.61 0 .376-.012.444-.11.642-.29.592-.949.942-1.582.84a1.57 1.57 0 0 1-1.118-.825l-.004-.01c-.137-.282-.171-.768-.076-1.095.12-.412.503-.814.92-.961.316-.114.86-.085 1.155.06m-5.317.414c.37.126.66.539.66.936s-.29.81-.66.936c-.289.098-2.397.098-2.685 0-.37-.127-.662-.539-.662-.936 0-.387.292-.808.644-.933.27-.095 2.424-.097 2.703-.003m-2.032 5.003c.178.053.273.127.679.534.686.684 1.235 1.028 2.043 1.275.316.096.414.107.973.107s.656-.011.973-.107c.808-.247 1.358-.59 2.044-1.275.406-.407.5-.481.679-.534.264-.079.411-.078.652.005.404.137.694.588.652 1.014-.03.311-.173.541-.607.981-.975.983-2.035 1.569-3.352 1.852-.478.102-1.604.102-2.082 0-1.316-.283-2.376-.87-3.351-1.852-.435-.439-.578-.67-.608-.981-.052-.544.41-1.065.956-1.077a1.4 1.4 0 0 1 .35.058"/>
</svg>