<svg xmlns="http://www.w3.org/2000/svg" width="26" height="26" fill="currentColor" class="sym sym-face-neutral" viewBox="0 0 26 26">
  <path d="M13 24C6.935 24 2 19.065 2 13S6.935 2 13 2s11 4.935 11 11-4.935 11-11 11m0-20.183c-5.066 0-9.183 4.117-9.183 9.183S7.934 22.183 13 22.183s9.183-4.117 9.183-9.183S18.066 3.817 13 3.817m4.037 13.119H8.963a.905.905 0 0 1-.908-.909c0-.504.404-.908.908-.908h8.074c.504 0 .908.404.908.909a.904.904 0 0 1-.908.908m-1.01-5.55a1.417 1.417 0 0 1-1.412-1.414c0-.777.636-1.412 1.412-1.412.778 0 1.413.635 1.413 1.412s-.635 1.413-1.413 1.413m-6.055 0A1.417 1.417 0 0 1 8.56 9.971c0-.777.635-1.412 1.412-1.412s1.413.635 1.413 1.412-.636 1.413-1.413 1.413"/>
</svg>