<svg xmlns="http://www.w3.org/2000/svg" width="26" height="26" fill="currentColor" class="sym sym-face-happy" viewBox="0 0 26 26">
  <path d="M13 24C6.935 24 2 19.065 2 13S6.935 2 13 2s11 4.935 11 11-4.935 11-11 11m0-20.183c-5.066 0-9.183 4.117-9.183 9.183S7.934 22.183 13 22.183s9.183-4.117 9.183-9.183S18.066 3.817 13 3.817m0 15.642c-2.856 0-5.45-2.12-5.45-4.44 0-.505.404-.909.909-.909h9.082c.505 0 .909.404.909.908 0 2.321-2.594 4.44-5.45 4.44m-3.35-3.532c.544.908 1.836 1.715 3.35 1.715s2.806-.807 3.35-1.715zm6.378-4.542a1.417 1.417 0 0 1-1.413-1.413c0-.777.636-1.412 1.413-1.412s1.412.635 1.412 1.412-.635 1.413-1.412 1.413m-6.055 0A1.417 1.417 0 0 1 8.56 9.972c0-.777.635-1.412 1.413-1.412.777 0 1.412.635 1.412 1.412s-.635 1.413-1.412 1.413"/>
</svg>