<svg xmlns="http://www.w3.org/2000/svg" width="26" height="26" fill="currentColor" class="sym sym-face-happy-solid" viewBox="0 0 26 26">
  <path d="M9.99 16.175c.545.688 1.618 1.225 2.633 1.318 1.274.117 2.685-.432 3.388-1.318l.126-.16H9.864z"/>
  <path fill-rule="evenodd" d="M12.539 2.008c-2.322.1-4.616.959-6.44 2.41a14 14 0 0 0-1.678 1.673l-.016.02c-1.026 1.286-1.812 2.926-2.156 4.495-.183.83-.249 1.473-.249 2.402 0 1.788.349 3.293 1.13 4.87.577 1.166 1.18 2.008 2.084 2.91.904.904 1.745 1.506 2.911 2.083C9.705 23.651 11.21 24 13 24s3.296-.349 4.875-1.129c1.158-.573 2.014-1.184 2.911-2.083.899-.897 1.51-1.752 2.084-2.91.781-1.577 1.13-3.082 1.13-4.87 0-1.79-.349-3.294-1.13-4.872-.577-1.166-1.18-2.007-2.084-2.91-.902-.903-1.744-1.504-2.911-2.082a10.9 10.9 0 0 0-5.359-1.135zm-1.924 6.625c.328.153.593.42.754.76.11.234.126.309.126.609s-.015.373-.126.61a1.6 1.6 0 0 1-.758.762l-.01.004c-.235.111-.31.126-.61.126s-.373-.015-.61-.126a1.6 1.6 0 0 1-.763-.757l-.004-.01c-.111-.235-.126-.31-.126-.61s.015-.373.126-.609c.204-.43.598-.76 1.047-.873.264-.067.67-.018.954.114m6.018 0c.328.153.593.42.754.76.11.234.126.309.126.609s-.015.373-.127.61a1.6 1.6 0 0 1-.757.762l-.01.004c-.235.111-.31.126-.61.126s-.373-.015-.61-.126a1.6 1.6 0 0 1-.763-.757l-.005-.01c-.11-.235-.126-.31-.126-.61s.015-.373.126-.609c.204-.43.598-.76 1.047-.873.264-.067.671-.018.955.114m1.242 5.436c.23.095.4.25.525.473.107.194.116.24.11.591-.008.471-.112.883-.349 1.377-.706 1.472-2.21 2.555-4.057 2.922-.623.123-1.585.123-2.209 0q-1.54-.307-2.69-1.229c-1.049-.838-1.7-2.003-1.717-3.07-.006-.352.003-.397.11-.592q.181-.327.516-.471c.198-.087 9.555-.088 9.76-.003z"/>
</svg>