<svg xmlns="http://www.w3.org/2000/svg" width="26" height="26" fill="currentColor" class="sym sym-face-neutral-solid" viewBox="0 0 26 26">
  <path fill-rule="evenodd" d="M12.069 2.024c-2.252.22-4.209 1.004-5.98 2.397-.462.363-1.498 1.433-1.873 1.934C3.057 7.9 2.36 9.586 2.074 11.54c-.099.673-.099 2.251 0 2.924.286 1.952.982 3.637 2.141 5.185.456.608 1.529 1.681 2.137 2.137 1.55 1.158 3.235 1.853 5.187 2.14.673.099 2.253.099 2.926 0 1.952-.286 3.637-.982 5.187-2.14.607-.456 1.68-1.529 2.137-2.137 1.159-1.548 1.854-3.233 2.141-5.185.052-.357.07-.734.07-1.462 0-.729-.018-1.106-.07-1.462-.286-1.953-.984-3.64-2.142-5.185-.375-.501-1.411-1.57-1.873-1.934-1.6-1.259-3.358-2.023-5.33-2.315-.635-.094-1.946-.136-2.516-.082m-1.425 6.624c.266.13.604.473.727.739.073.157.088.262.088.61 0 .376-.011.444-.11.642-.29.592-.949.942-1.581.84a1.57 1.57 0 0 1-1.119-.825l-.004-.01c-.137-.282-.171-.768-.076-1.095.12-.412.503-.814.92-.961.316-.114.86-.085 1.155.06m6.012 0c.265.13.604.473.727.739.073.157.088.262.088.61 0 .376-.012.444-.11.642-.29.592-.949.942-1.582.84a1.57 1.57 0 0 1-1.118-.825l-.004-.01c-.137-.282-.171-.768-.076-1.095.12-.412.503-.814.92-.961.316-.114.86-.085 1.155.06m.694 6.423c.37.126.662.539.662.936 0 .242-.12.522-.3.702-.318.318-.039.3-4.71.3s-4.392.018-4.71-.3a.98.98 0 0 1 .002-1.405c.31-.31.021-.292 4.691-.295 3.782-.003 4.19.002 4.365.062"/>
</svg>