<svg xmlns="http://www.w3.org/2000/svg" width="26" height="26" fill="currentColor" class="sym sym-face-sad" viewBox="0 0 26 26">
  <path d="M13 24C6.935 24 2 19.065 2 13S6.935 2 13 2s11 4.935 11 11-4.935 11-11 11m0-20.183c-5.066 0-9.183 4.117-9.183 9.183S7.934 22.183 13 22.183s9.183-4.117 9.183-9.183S18.066 3.817 13 3.817m4.037 14.128a.9.9 0 0 1-.727-.363c-.03-.04-1.302-1.655-3.31-1.655s-3.3 1.645-3.31 1.655a.91.91 0 0 1-1.272.171c-.393-.302-.484-.868-.181-1.261.07-.101 1.816-2.382 4.763-2.382s4.693 2.28 4.763 2.382a.907.907 0 0 1-.727 1.453m-.505-6.055c-.827 0-1.615-.384-2.21-1.09a.92.92 0 0 1 .101-1.282.91.91 0 0 1 1.281.101c.495.586 1.171.565 1.635 0a.91.91 0 1 1 1.403 1.16c-.575.697-1.382 1.1-2.21 1.1zm-7.064 0c-.828 0-1.615-.384-2.21-1.09a.92.92 0 0 1 .1-1.282.91.91 0 0 1 1.282.101c.495.586 1.17.565 1.635 0a.91.91 0 1 1 1.403 1.16c-.575.697-1.383 1.1-2.21 1.1z"/>
</svg>