<svg xmlns="http://www.w3.org/2000/svg" width="26" height="26" fill="currentColor" class="sym sym-face-sad-solid" viewBox="0 0 26 26">
  <path fill-rule="evenodd" d="M12.069 2.024c-2.252.22-4.209 1.004-5.98 2.397-.462.363-1.498 1.433-1.873 1.934C3.057 7.9 2.36 9.586 2.074 11.54c-.099.673-.099 2.251 0 2.924.286 1.952.982 3.637 2.141 5.185.456.608 1.529 1.681 2.137 2.137 1.55 1.158 3.235 1.853 5.187 2.14.673.099 2.253.099 2.926 0 1.952-.286 3.637-.982 5.187-2.14.607-.456 1.68-1.529 2.137-2.137 1.159-1.548 1.854-3.233 2.141-5.185.052-.357.07-.734.07-1.462 0-.729-.018-1.106-.07-1.462-.286-1.953-.984-3.64-2.142-5.185-.375-.501-1.411-1.57-1.873-1.934-1.6-1.259-3.358-2.023-5.33-2.315-.635-.094-1.946-.136-2.516-.082M8.307 9.298c.157.047.277.126.483.32.3.283.482.38.715.378.224 0 .442-.119.716-.388.363-.355.7-.447 1.118-.306.37.127.662.539.662.936 0 .315-.112.52-.478.882-.393.387-.722.596-1.186.75-.28.093-.385.106-.841.108-.467 0-.554-.012-.842-.11a3.05 3.05 0 0 1-1.206-.764c-.343-.343-.457-.559-.457-.865 0-.517.454-.988.965-.999a1.4 1.4 0 0 1 .351.06zm7.013 0c.157.047.277.126.483.32.3.283.482.38.715.378.225 0 .442-.119.717-.388.363-.355.7-.447 1.118-.306.37.127.66.539.66.936 0 .315-.111.52-.476.882-.393.387-.723.596-1.187.75-.28.093-.385.106-.841.108-.467 0-.554-.012-.841-.11a3.05 3.05 0 0 1-1.206-.764h-.001c-.343-.343-.457-.559-.457-.865 0-.517.455-.988.965-.999a1.4 1.4 0 0 1 .351.06zm-1.207 4.824c1.295.263 2.659 1.068 3.518 2.072.37.435.454.743.314 1.155-.14.414-.59.695-1.036.649-.306-.031-.411-.102-.91-.603-.673-.675-1.308-1.06-2.104-1.276-.444-.12-1.34-.12-1.785 0-.795.216-1.43.601-2.103 1.276-.5.501-.604.571-.91.603q-.046.005-.1.005a.996.996 0 0 1-.938-1.332l-.002.006c.078-.23.467-.69.9-1.065 1.015-.877 2.177-1.415 3.39-1.568.431-.055 1.306-.016 1.768.078z"/>
</svg>