<svg xmlns="http://www.w3.org/2000/svg" width="26" height="26" fill="currentColor" class="sym sym-fast-forward" viewBox="0 0 26 26">
  <path d="M14.847 19.456c-.5 0-1-.23-1.32-.63-.39-.47-.39-1.05-.39-2.19v-7.28c0-1.14 0-1.71.39-2.19.34-.41.85-.65 1.39-.63.62.02 1.04.4 1.89 1.16l4.1 3.65c.45.4.75.66.89 1.08.13.37.13.77 0 1.14-.15.43-.45.69-.9 1.09l-4.1 3.64c-.86.76-1.28 1.14-1.9 1.16h-.07zm.1-10.99c-.01.23-.01.56-.01.89v7.28c0 .33 0 .66.01.89.18-.14.43-.36.67-.58l4.1-3.65c.12-.11.26-.23.35-.31-.07-.06-.22-.19-.35-.3l-4.09-3.64c-.25-.22-.5-.44-.68-.58m-9.131 10.99c-.51 0-1-.23-1.32-.63-.39-.47-.39-1.05-.39-2.19v-7.28c0-1.14 0-1.72.39-2.19.33-.41.85-.65 1.39-.62.62.02 1.04.4 1.9 1.16l4.1 3.64c.45.41.75.67.9 1.09.13.37.13.77 0 1.14-.15.42-.44.68-.89 1.08l-4.1 3.65c-.85.76-1.28 1.14-1.9 1.16h-.07zm.1-10.99c-.01.23-.01.56-.01.89v7.28c0 .33 0 .66.01.89.18-.14.43-.36.67-.58l4.1-3.64c.13-.12.26-.23.35-.32-.07-.06-.21-.18-.34-.3l-4.1-3.65c-.25-.22-.5-.44-.68-.58z"/>
</svg>