<svg xmlns="http://www.w3.org/2000/svg" width="26" height="26" fill="currentColor" class="sym sym-fast-backward-solid" viewBox="0 0 26 26">
  <path d="M10.637 6.578c-.257.09-.435.197-.754.453-.41.326-5.324 4.708-5.476 4.88A1.56 1.56 0 0 0 4 13.002V13c0 .424.13.774.406 1.088.16.181 5.095 4.578 5.502 4.902.475.377.794.511 1.212.511.442 0 .81-.153 1.144-.473.228-.22.352-.442.442-.789.055-.213.059-.577.059-5.238 0-5.528.011-5.203-.207-5.648-.108-.222-.434-.543-.675-.664-.4-.203-.868-.244-1.247-.11m9.254-.004c-.272.093-.466.206-.778.454-.44.351-5.405 4.784-5.52 4.93a1.64 1.64 0 0 0 .002 2.084l-.003-.004c.12.151 5.05 4.55 5.526 4.93.575.461 1.021.603 1.55.493a1.73 1.73 0 0 0 1.028-.686l.003-.005c.16-.242.234-.533.27-1.062.043-.617.043-8.805 0-9.42-.036-.53-.11-.821-.27-1.063-.386-.583-1.176-.868-1.808-.652z"/>
</svg>