<svg xmlns="http://www.w3.org/2000/svg" width="26" height="26" fill="currentColor" class="sym sym-fast-backward" viewBox="0 0 26 26">
  <path d="M20.26 20h-.07c-.617-.02-1.052-.402-1.912-1.167l-4.147-3.662c-.455-.402-.758-.674-.91-1.086a1.7 1.7 0 0 1 0-1.147c.152-.423.445-.684.9-1.087l4.157-3.672c.86-.764 1.295-1.146 1.922-1.166a1.72 1.72 0 0 1 1.406.633C22 8.12 22 8.693 22 9.85v7.324c0 1.147 0 1.73-.395 2.203a1.74 1.74 0 0 1-1.335.624zm-5.269-6.489c.07.06.212.181.344.302l4.147 3.662c.253.221.505.442.687.583.01-.231.01-.573.01-.895V9.839c0-.332 0-.664-.01-.895-.182.14-.434.362-.677.583l-4.147 3.662c-.132.121-.263.232-.354.322M11.128 20h-.07c-.618-.02-1.053-.402-1.912-1.167l-4.147-3.672c-.455-.402-.759-.664-.9-1.086a1.72 1.72 0 0 1 0-1.147c.151-.433.455-.694.91-1.097L9.156 8.17c.87-.765 1.294-1.147 1.921-1.167a1.69 1.69 0 0 1 1.416.633c.395.473.395 1.057.395 2.203v7.324c0 1.147 0 1.73-.395 2.203a1.75 1.75 0 0 1-1.345.634zm-5.27-6.489c.071.06.223.192.354.302l4.147 3.662c.253.221.506.443.688.583.01-.23.01-.563.01-.895V9.84c0-.332 0-.663-.01-.895-.182.141-.435.362-.678.584L6.223 13.2c-.122.11-.263.23-.354.321z"/>
</svg>