<svg xmlns="http://www.w3.org/2000/svg" width="26" height="26" fill="currentColor" class="sym sym-fast-forward-solid" viewBox="0 0 26 26">
  <path d="M5.284 6.546a1.7 1.7 0 0 0-.735.396l.002-.002c-.35.32-.47.631-.519 1.348-.043.617-.043 8.805 0 9.422.036.53.11.82.27 1.062.243.344.602.592 1.019.69l.012.002c.527.11.975-.032 1.546-.488.475-.38 5.412-4.786 5.53-4.936a1.64 1.64 0 0 0-.002-2.084l.002.004c-.109-.138-5.03-4.534-5.492-4.908-.604-.488-1.088-.637-1.633-.505zm9.183.004c-.42.113-.856.453-1.027.801-.218.446-.206.123-.206 5.631 0 4.67.004 5.01.06 5.245.078.33.202.564.419.783.295.303.707.49 1.164.49h.003c.418 0 .737-.134 1.211-.511.408-.324 5.342-4.721 5.502-4.903.276-.313.407-.663.407-1.087s-.13-.774-.407-1.088c-.15-.172-5.062-4.55-5.476-4.882-.312-.25-.526-.377-.779-.462a1.67 1.67 0 0 0-.883-.015z"/>
</svg>