<svg xmlns="http://www.w3.org/2000/svg" width="26" height="26" fill="currentColor" class="sym sym-figma-solid" viewBox="0 0 26 26">
  <path fill-rule="evenodd" d="M9.678 4.057c-.666.146-1.208.454-1.703.968a3.67 3.67 0 0 0-.913 1.718l-.004.025c-.077.348-.077 1.12 0 1.473.154.682.473 1.27.911 1.737l.25.27-.25.266a3.7 3.7 0 0 0-.907 1.714l-.004.024c-.077.35-.077 1.123 0 1.474.154.681.474 1.27.911 1.737v-.001l.25.27-.25.267a3.7 3.7 0 0 0-.907 1.713l-.004.025c-.077.35-.077 1.123 0 1.473.325 1.498 1.523 2.623 2.995 2.773l.014.001c.784.085 1.678-.18 2.323-.686q.94-.74 1.265-1.978l.078-.298.022-3.086.221.126c.987.565 2.134.6 3.132.092a3.57 3.57 0 0 0 1.829-2.405l.005-.024c.077-.35.077-1.123 0-1.473a3.7 3.7 0 0 0-.912-1.737l-.25-.27.25-.269a3.7 3.7 0 0 0 .907-1.712l.005-.024c.077-.35.077-1.123 0-1.473-.288-1.3-1.223-2.315-2.424-2.669l-.024-.006-.292-.084-3.127-.006c-2.972-.005-3.14-.003-3.397.054zm2.57 3.466v1.962l-1.09-.014c-1.203-.016-1.236-.02-1.64-.228a2.1 2.1 0 0 1-.712-.659l-.004-.007a2.3 2.3 0 0 1-.199-.428l-.005-.016c-.081-.24-.09-.308-.09-.629s.009-.39.09-.629c.113-.332.26-.566.508-.808a2 2 0 0 1 .804-.461c.113-.028.474-.04 1.248-.043l1.09-.002zm3.794-1.928c.087.02.274.092.414.16.208.104.3.175.496.382.381.403.54.805.54 1.367 0 .364-.045.564-.204.907-.138.298-.505.677-.802.829-.412.21-.441.214-1.646.23l-1.09.015V5.56h1.066c.651 0 1.127.014 1.225.035m-3.794 7.414v1.962l-1.09-.015c-1.203-.016-1.236-.02-1.64-.228a2.1 2.1 0 0 1-.712-.659l-.004-.007a2.3 2.3 0 0 1-.199-.428l-.005-.016c-.081-.24-.09-.307-.09-.629 0-.321.009-.39.09-.628.113-.332.26-.567.508-.809.21-.204.543-.395.804-.46.113-.029.474-.041 1.248-.043l1.09-.003zm3.794-1.928c.087.019.274.09.414.16.208.103.3.174.496.381.381.404.54.806.54 1.367 0 .562-.159.964-.54 1.368-.372.394-.805.585-1.323.585-.312 0-.511-.05-.818-.202a1.92 1.92 0 0 1-.948-1.109l-.004-.014c-.081-.239-.09-.307-.09-.628 0-.322.009-.39.09-.629.113-.332.26-.566.508-.808a2 2 0 0 1 .803-.461c.2-.05.662-.057.871-.011m-3.801 6.603c-.013 1.264-.013 1.264-.214 1.7-.147.316-.505.678-.832.84-.315.155-.513.204-.826.204s-.512-.05-.819-.202a1.92 1.92 0 0 1-.948-1.11l-.004-.013c-.081-.239-.09-.307-.09-.628 0-.322.009-.39.09-.63.113-.331.26-.566.508-.808.21-.203.543-.395.804-.46.113-.029.474-.04 1.25-.043l1.092-.003z"/>
</svg>