<svg xmlns="http://www.w3.org/2000/svg" width="26" height="26" fill="currentColor" class="sym sym-figma" viewBox="0 0 26 26">
  <path d="M10.335 21.91a3.572 3.572 0 0 1-2.37-6.24c-.74-.65-1.2-1.61-1.2-2.67s.46-2.01 1.2-2.67a3.572 3.572 0 0 1 2.37-6.24h5.33a3.572 3.572 0 0 1 2.37 6.24 3.572 3.572 0 0 1-4.14 5.77v2.24c0 1.97-1.6 3.57-3.57 3.57zm0-5.33c-.97 0-1.77.79-1.77 1.77s.79 1.77 1.77 1.77 1.77-.79 1.77-1.77v-1.77zm3.57-3.57c0 .97.79 1.77 1.77 1.77s1.77-.79 1.77-1.77-.79-1.77-1.77-1.77-1.77.79-1.77 1.77m-3.57 1.77h1.77v-3.53h-1.77c-.97 0-1.77.79-1.77 1.77s.79 1.77 1.77 1.77zm5.33-5.33c.97 0 1.77-.79 1.77-1.77s-.79-1.77-1.77-1.77h-1.77v3.53h1.77zm-5.33 0h1.77V5.92h-1.77c-.97 0-1.77.79-1.77 1.77s.79 1.77 1.77 1.77z"/>
</svg>