<svg xmlns="http://www.w3.org/2000/svg" width="26" height="26" fill="currentColor" class="sym sym-file-lock" viewBox="0 0 26 26">
  <path d="M11.338 22H9.925c-1.496 0-2.317 0-3.055-.364a3.42 3.42 0 0 1-1.496-1.456C5 19.462 5 18.663 5 17.207V8.793c0-1.456 0-2.255.374-2.973A3.37 3.37 0 0 1 6.87 4.364C7.608 4 8.43 4 9.925 4h5.32c1.495 0 2.316 0 3.054.364a3.43 3.43 0 0 1 1.496 1.456c.374.718.374 1.517.374 2.973v2.59a.92.92 0 0 1-.935.91.92.92 0 0 1-.935-.91v-2.59c0-1.173 0-1.82-.166-2.144a1.52 1.52 0 0 0-.686-.657c-.333-.162-.998-.162-2.203-.162h-5.32c-1.205 0-1.87 0-2.202.162-.29.142-.53.374-.686.668-.166.323-.166.97-.166 2.143v8.414c0 1.173 0 1.82.166 2.144.156.283.385.515.686.657.333.162.997.162 2.203.162h1.413c.52 0 .935.404.935.91s-.416.91-.935.91m7.397-.809h-3.158c-.561 0-.925 0-1.3-.192a1.75 1.75 0 0 1-.768-.748c-.197-.364-.197-.729-.197-1.265v-.647c0-.536 0-.9.197-1.264a1.7 1.7 0 0 1 1.257-.9v-.546c0-1.284 1.07-2.326 2.39-2.326s2.39 1.042 2.39 2.326v.546c.166.03.332.071.488.152.332.172.602.425.769.748.197.364.197.728.197 1.264v.648c0 .535 0 .9-.197 1.264a1.7 1.7 0 0 1-.77.748c-.384.192-.747.192-1.298.192m-3.553-3.236v1.416h3.948v-1.416zm1.454-1.82h1.04v-.506a.51.51 0 0 0-.52-.505.51.51 0 0 0-.52.505z"/>
</svg>