<svg xmlns="http://www.w3.org/2000/svg" width="26" height="26" fill="currentColor" class="sym sym-file-02" viewBox="0 0 26 26">
  <path d="M15.806 22h-5.611c-1.579 0-2.444 0-3.222-.364a3.53 3.53 0 0 1-1.578-1.456C5 19.462 5 18.663 5 17.207V8.793c0-1.456 0-2.255.395-2.973.35-.637.898-1.132 1.578-1.456C7.75 4 8.616 4 10.195 4h5.61c1.579 0 2.444 0 3.222.364a3.53 3.53 0 0 1 1.578 1.456C21 6.538 21 7.337 21 8.793v8.414c0 1.456 0 2.255-.395 2.973a3.53 3.53 0 0 1-1.578 1.456C18.25 22 17.384 22 15.805 22m-5.61-16.18c-1.272 0-1.973 0-2.324.162a1.6 1.6 0 0 0-.723.667c-.175.324-.175.971-.175 2.144v8.414c0 1.173 0 1.82.175 2.143.153.284.405.516.723.658.35.162 1.052.162 2.323.162h5.611c1.272 0 1.973 0 2.324-.162a1.6 1.6 0 0 0 .723-.668c.175-.323.175-.97.175-2.143V8.783c0-1.173 0-1.82-.175-2.144a1.52 1.52 0 0 0-.723-.657c-.35-.162-1.052-.162-2.324-.162zm6.312 12.944c-.548 0-.987-.404-.987-.91V13c0-.506.439-.91.987-.91s.986.404.986.91v4.854c0 .506-.438.91-.986.91m-3.507 0c-.548 0-.986-.404-.986-.91v-8.09c0-.506.438-.91.986-.91s.986.404.986.91v8.09c0 .506-.438.91-.986.91m-3.507 0c-.548 0-.986-.404-.986-.91v-3.236c0-.506.438-.91.986-.91s.986.404.986.91v3.236c0 .506-.438.91-.986.91"/>
</svg>