<svg xmlns="http://www.w3.org/2000/svg" width="26" height="26" fill="currentColor" class="sym sym-file-minus-solid" viewBox="0 0 26 26">
  <path fill-rule="evenodd" d="M8.988 4.023c-.683.05-1.171.215-1.656.558-.421.3-.885.896-1.07 1.376-.11.284-.191.678-.229 1.11-.044.518-.044 11.34 0 11.858.062.704.186 1.117.483 1.596.227.366.546.702.893.941.476.326.863.45 1.591.51.301.025 1.651.033 4.298.025 4.25-.013 4.122-.007 4.707-.22.765-.276 1.52-1.072 1.784-1.877.2-.614.196-.502.207-4.758.01-2.911.003-3.9-.025-4.005-.045-.171-.241-.412-.414-.509-.128-.072-.135-.072-2.322-.089-2.002-.016-2.209-.023-2.365-.077-.476-.164-.826-.527-1.001-1.04-.072-.209-.073-.21-.088-2.518-.012-1.7-.026-2.333-.054-2.398a1.2 1.2 0 0 0-.396-.43c-.126-.071-.137-.071-2.056-.076a66 66 0 0 0-2.288.022zm6.613 11.485c.287.103.513.44.513.765a.9.9 0 0 1-.233.574c-.242.256-.122.245-2.88.245s-2.637.01-2.879-.245a.82.82 0 0 1-.228-.574c0-.225.088-.429.23-.575.237-.25.106-.238 2.865-.241 2.213-.003 2.475.002 2.612.05"/>
  <path d="M15.476 5.177c-.081.086-.107.145-.123.287-.011.098-.017.85-.011 1.67.01 1.597.009 1.581.173 1.695.075.052.212.058 1.5.068.78.006 1.493 0 1.587-.012.135-.017.19-.044.273-.13.085-.09.102-.132.102-.255s-.02-.175-.121-.307c-.14-.182-2.774-2.946-2.909-3.053a.35.35 0 0 0-.212-.07h-.017c-.116 0-.156.017-.242.107"/>
</svg>