<svg xmlns="http://www.w3.org/2000/svg" width="26" height="26" fill="currentColor" class="sym sym-file-03-solid" viewBox="0 0 26 26">
  <path fill-rule="evenodd" d="M9.775 5.22c-.635.044-1.088.187-1.538.484-.391.26-.822.776-.994 1.192a3.5 3.5 0 0 0-.212.962c-.041.449-.041 9.829 0 10.277.057.61.173.968.448 1.383a2.9 2.9 0 0 0 .83.816c.441.282.8.39 1.477.442.28.022 1.533.028 3.99.021 3.947-.01 3.828-.006 4.371-.19.71-.24 1.413-.93 1.657-1.627.186-.532.182-.435.193-4.124.008-2.523.002-3.38-.024-3.47-.042-.149-.224-.357-.384-.442-.12-.062-.125-.062-2.157-.077-1.858-.014-2.05-.02-2.196-.066a1.44 1.44 0 0 1-.93-.902c-.066-.18-.067-.182-.081-2.183-.011-1.473-.024-2.02-.05-2.078a1.05 1.05 0 0 0-.367-.372c-.117-.062-.128-.062-1.91-.066-.985-.001-1.94.007-2.124.02m6.862 8.534c.267.09.477.382.477.663 0 .172-.086.37-.216.498-.23.225-.028.212-3.396.212s-3.167.013-3.396-.212a.69.69 0 0 1 .001-.996c.223-.22.016-.207 3.383-.21 2.727-.001 3.02.002 3.147.045m-1.444 2.839c.266.09.476.381.476.663a.74.74 0 0 1-.216.497c-.224.222-.113.213-2.673.213s-2.45.009-2.674-.213a.69.69 0 0 1 0-.995c.221-.217.1-.207 2.662-.21 2.054-.001 2.298.003 2.425.045"/>
  <path d="M15.8 6.22c-.076.075-.1.126-.115.249-.01.085-.016.736-.01 1.447.01 1.384.008 1.37.16 1.469.07.045.197.05 1.393.059.724.005 1.387 0 1.474-.01.125-.015.177-.038.253-.113.08-.078.095-.115.095-.221 0-.107-.019-.151-.112-.266-.13-.158-2.576-2.553-2.701-2.646a.34.34 0 0 0-.197-.061h-.016c-.108 0-.145.015-.225.093"/>
</svg>