<svg xmlns="http://www.w3.org/2000/svg" width="26" height="26" fill="currentColor" class="sym sym-file-lock-solid" viewBox="0 0 26 26">
  <path d="M8.277 4.026c-.856.042-1.332.179-1.845.53-.64.438-1.109 1.09-1.276 1.78-.139.57-.139.565-.152 6.137-.013 5.456.002 6.427.105 6.977.15.805.633 1.524 1.34 2 .531.358.95.473 1.908.521.727.038 3.446.039 3.664.003.32-.054.362-.222.24-.97-.053-.334-.062-.55-.062-1.46 0-1.132.026-1.421.165-1.863.185-.588.586-1.154 1.125-1.589.112-.089.126-.12.181-.392.317-1.536 1.484-2.725 2.964-3.039l.024-.004c.58-.122 1.107-.099 1.826.08.667.168.841.121.89-.232.035-.253.033-4.347-.003-5.073-.047-.981-.159-1.409-.509-1.952a3.3 3.3 0 0 0-.9-.926l-.012-.007c-.532-.358-.95-.472-1.909-.52-.683-.036-7.046-.036-7.764 0"/>
  <path fill-rule="evenodd" d="M17.118 14.247a2.2 2.2 0 0 0-1.675 1.214l-.006.013c-.17.351-.203.516-.225 1.09l-.02.537-.175.046a1.5 1.5 0 0 0-.68.367h.002a1.55 1.55 0 0 0-.449.687c-.071.21-.074.253-.074 1.347s.003 1.136.074 1.348c.094.278.222.473.445.682.193.181.313.253.586.348.166.059.305.062 2.497.062h2.321l.19-.074c.39-.152.732-.459.897-.803.161-.338.184-.562.17-1.694-.011-1.016-.012-1.035-.093-1.253a1.6 1.6 0 0 0-1.105-1.015l-.01-.003-.177-.046-.019-.536c-.021-.576-.053-.732-.23-1.101a2.2 2.2 0 0 0-2.244-1.216m.636 1.745c.19.148.239.3.24.732v.368H16.81v-.368c0-.49.067-.646.336-.794.154-.085.458-.054.608.062"/>
</svg>