<svg xmlns="http://www.w3.org/2000/svg" width="26" height="26" fill="currentColor" class="sym sym-file" viewBox="0 0 26 26">
  <path d="M15.56 21.9h-5.12c-1.44 0-2.23 0-2.94-.36-.62-.32-1.12-.82-1.44-1.44-.36-.71-.36-1.5-.36-2.94V8.84c0-1.44 0-2.23.36-2.94.32-.63.82-1.12 1.44-1.44.71-.36 1.5-.36 2.94-.36h5.12c1.44 0 2.23 0 2.94.36.62.32 1.12.82 1.44 1.44.36.71.36 1.5.36 2.94v8.32c0 1.44 0 2.23-.36 2.94-.32.62-.82 1.12-1.44 1.44-.71.36-1.5.36-2.94.36m-5.12-16c-1.16 0-1.8 0-2.12.16q-.435.225-.66.66c-.16.32-.16.96-.16 2.12v8.32c0 1.16 0 1.8.16 2.12.14.28.37.51.66.65.32.16.96.16 2.12.16h5.12c1.16 0 1.8 0 2.12-.16q.435-.225.66-.66c.16-.32.16-.96.16-2.12V8.83c0-1.16 0-1.8-.16-2.12-.14-.28-.37-.51-.66-.65-.32-.16-.96-.16-2.12-.16zm.96 10.4H9.8c-.5 0-.9-.4-.9-.9s.4-.9.9-.9h1.6c.5 0 .9.4.9.9s-.4.9-.9.9m3.2-3.2H9.8c-.5 0-.9-.4-.9-.9s.4-.9.9-.9h4.8c.5 0 .9.4.9.9s-.4.9-.9.9m1.6-3.2H9.8c-.5 0-.9-.4-.9-.9s.4-.9.9-.9h6.4c.5 0 .9.4.9.9s-.4.9-.9.9"/>
</svg>