<svg xmlns="http://www.w3.org/2000/svg" width="26" height="26" fill="currentColor" class="sym sym-file-shield-solid" viewBox="0 0 26 26">
  <path d="M9.234 4.025c-.845.041-1.315.178-1.821.53-.632.437-1.094 1.09-1.26 1.779-.136.57-.136.565-.15 6.137-.012 5.457.003 6.427.104 6.977.147.795.62 1.517 1.3 1.988.758.522 1.234.58 4.625.561 1.782-.01 1.95-.015 2.043-.068.124-.07.167-.147.167-.302 0-.137-.081-.312-.36-.78-.354-.593-.505-.943-.659-1.53l-.1-.376-.011-1.514c-.011-1.443-.01-1.528.054-1.785.17-.705.633-1.316 1.234-1.628.255-.132 2.214-.847 2.527-.923.176-.042.441-.07.764-.083.62-.023.954.03 1.644.26q.495.164.575.144a.39.39 0 0 0 .274-.314v-.002c.036-.197.036-4.9-.002-5.665-.046-.98-.156-1.408-.502-1.951a3.2 3.2 0 0 0-.889-.926l-.012-.007c-.525-.358-.937-.473-1.883-.521-.674-.035-6.954-.034-7.662 0z"/>
  <path d="M17.448 14.664c-.242.04-.443.108-1.442.477-1.004.372-1.094.423-1.227.69l-.079.16v1.343c0 1.3.003 1.352.073 1.622.239.915.914 1.767 1.996 2.52.148.104.384.253.522.332.25.143.257.145.554.143.289-.002.31-.006.521-.127 1.175-.668 2.112-1.632 2.43-2.503.188-.516.187-.51.2-1.916.012-1.425.009-1.468-.17-1.71a.9.9 0 0 0-.233-.195l-.004-.003c-.175-.091-1.737-.674-2.065-.77-.248-.073-.823-.108-1.075-.065z"/>
</svg>