<svg xmlns="http://www.w3.org/2000/svg" width="26" height="26" fill="currentColor" class="sym sym-file-02-solid" viewBox="0 0 26 26">
  <path fill-rule="evenodd" d="M8.418 4.031c-.78.05-1.34.214-1.894.558-.482.3-1.013.895-1.225 1.375-.126.284-.218.677-.261 1.11-.05.517-.05 11.335 0 11.853.07.703.213 1.116.552 1.595.26.366.624.702 1.022.94.544.326.986.45 1.82.51.344.025 1.888.033 4.915.025 4.01-.01 4.445-.017 4.752-.07.775-.13 1.326-.393 1.867-.89.545-.503.83-1.01.97-1.734.06-.307.064-.706.064-6.304 0-5.597-.005-5.996-.064-6.303a2.98 2.98 0 0 0-.933-1.703 3.3 3.3 0 0 0-1.005-.666l-.02-.008c-.369-.162-.815-.252-1.458-.292-.598-.038-8.5-.035-9.102.002zm4.893 4.93a1 1 0 0 1 .321.191c.285.263.267-.066.267 4.667 0 4.734.018 4.405-.267 4.667a.9.9 0 0 1-.624.24.9.9 0 0 1-.623-.24c-.285-.262-.267.067-.267-4.667s-.018-4.404.267-4.667a.9.9 0 0 1 .621-.24q.166 0 .31.051zm3.56 3.275c.102.032.234.11.321.19.278.255.266.129.266 3.03 0 2.902.012 2.776-.266 3.03a.98.98 0 0 1-.624.245.98.98 0 0 1-.624-.245c-.277-.254-.266-.128-.266-3.03s-.011-2.774.267-3.03a.9.9 0 0 1 .621-.24q.165 0 .31.052zm-7.119 1.637c.102.032.234.11.321.191.269.248.266.224.266 2.211s.003 1.964-.266 2.211a.9.9 0 0 1-.624.24.9.9 0 0 1-.624-.24c-.269-.247-.266-.224-.266-2.21 0-1.988-.003-1.964.267-2.212a.9.9 0 0 1 .621-.24q.165 0 .31.051z"/>
</svg>