<svg xmlns="http://www.w3.org/2000/svg" width="26" height="26" fill="currentColor" class="sym sym-file-check-02" viewBox="0 0 26 26">
  <path d="M15.455 22h-4.91c-1.38 0-2.138 0-2.819-.364a3.3 3.3 0 0 1-1.38-1.456C6 19.462 6 18.663 6 17.207V8.793c0-1.456 0-2.255.345-2.973a3.24 3.24 0 0 1 1.381-1.456C8.406 4 9.164 4 10.546 4h3.988c.23 0 .45.091.614.263l4.603 4.854a.94.94 0 0 1 .249.647v7.443c0 1.456 0 2.255-.345 2.973a3.3 3.3 0 0 1-1.381 1.456c-.68.364-1.438.364-2.82.364m-4.91-16.18c-1.112 0-1.726 0-2.033.162a1.5 1.5 0 0 0-.633.667c-.153.324-.153.971-.153 2.144v8.414c0 1.173 0 1.82.153 2.143.135.284.355.516.633.658.307.162.92.162 2.033.162h4.91c1.112 0 1.726 0 2.033-.162q.417-.228.633-.668c.153-.323.153-.97.153-2.143v-6.533h-2.512c-.509 0-.854 0-1.199-.182a1.7 1.7 0 0 1-.71-.748c-.182-.374-.182-.728-.182-1.264V5.82zm4.852 1.284v1.75h1.659zm-3.164 11.66a.87.87 0 0 1-.614-.263l-1.534-1.618a.945.945 0 0 1 0-1.284.83.83 0 0 1 1.218 0l.92.97 2.839-2.993a.83.83 0 0 1 1.217 0 .945.945 0 0 1 0 1.285l-3.452 3.64a.83.83 0 0 1-.613.263z"/>
</svg>