<svg xmlns="http://www.w3.org/2000/svg" width="26" height="26" fill="currentColor" class="sym sym-file-03" viewBox="0 0 26 26">
  <path d="M15.461 21h-4.913c-1.381 0-2.14 0-2.82-.324a3.1 3.1 0 0 1-1.383-1.294C6 18.744 6 18.034 6 16.739V9.261c0-1.295 0-2.005.345-2.643a3.06 3.06 0 0 1 1.382-1.294C8.408 5 9.167 5 10.548 5h2.466c.615 0 .95 0 1.315.08.326.073.633.19.912.36.316.18.547.405.978.8l2.457 2.302c.432.404.672.629.863.925.173.261.298.558.375.863.086.342.086.656.086 1.223v5.186c0 1.295 0 2.005-.346 2.643a3.1 3.1 0 0 1-1.381 1.294c-.681.324-1.44.324-2.821.324zM10.548 6.618c-1.113 0-1.727 0-2.034.144a1.4 1.4 0 0 0-.633.593c-.154.288-.154.863-.154 1.906v7.478c0 1.043 0 1.618.154 1.906.134.252.355.458.633.584.307.144.921.144 2.034.144h4.913c1.113 0 1.728 0 2.034-.144a1.4 1.4 0 0 0 .634-.593c.153-.288.153-.863.153-1.906v-5.806h-2.504c-.509 0-.854 0-1.2-.162a1.6 1.6 0 0 1-.71-.665c-.182-.333-.182-.648-.182-1.124V6.627h-3.128zm4.856 1.142v1.555h1.66zm-.864 9.644H9.934c-.48 0-.863-.36-.863-.808 0-.45.383-.81.863-.81h4.606c.48 0 .864.36.864.81 0 .449-.384.808-.864.808m1.535-2.876h-6.14c-.48 0-.864-.36-.864-.809s.383-.809.863-.809h6.141c.48 0 .864.36.864.81 0 .448-.384.808-.864.808"/>
</svg>