<svg xmlns="http://www.w3.org/2000/svg" width="26" height="26" fill="currentColor" class="sym sym-file-download" viewBox="0 0 26 26">
  <path d="M16.769 21.98h-.01a.82.82 0 0 1-.574-.233l-2.334-2.424a.933.933 0 0 1 0-1.283.85.85 0 0 1 1.235 0l.836.87v-2.657c0-.505.39-.91.876-.91s.875.405.875.91v2.656l.837-.869a.85.85 0 0 1 1.235 0c.34.354.34.93 0 1.283l-2.335 2.424-.01.01a.83.83 0 0 1-.574.242h-.009zm-4.28 0H9.61c-1.4 0-2.169 0-2.86-.364a3.3 3.3 0 0 1-1.4-1.454C5 19.444 5 18.647 5 17.192V8.788c0-1.455 0-2.253.35-2.97a3.3 3.3 0 0 1 1.4-1.454C7.442 4 8.21 4 9.61 4h4.98c1.4 0 2.169 0 2.86.364a3.3 3.3 0 0 1 1.4 1.454c.35.717.35 1.515.35 2.97v4.606c0 .505-.389.909-.875.909-.487 0-.876-.404-.876-.909V8.788c0-1.172 0-1.818-.155-2.142a1.47 1.47 0 0 0-.642-.656c-.311-.162-.934-.162-2.062-.162H9.61c-1.128 0-1.75 0-2.062.162a1.54 1.54 0 0 0-.642.667c-.155.323-.155.97-.155 2.141v8.404c0 1.172 0 1.818.155 2.141.136.283.36.516.642.657.311.162.934.162 2.062.162h2.88c.485 0 .874.404.874.909s-.389.909-.875.909"/>
</svg>