<svg xmlns="http://www.w3.org/2000/svg" width="26" height="26" fill="currentColor" class="sym sym-file-check-solid" viewBox="0 0 26 26">
  <path fill-rule="evenodd" d="M8.883 4.03c-.657.048-1.13.214-1.597.557-.407.3-.855.895-1.034 1.374-.106.285-.184.678-.22 1.11-.043.518-.043 11.335 0 11.852.06.704.18 1.117.466 1.595.219.366.527.702.862.94.444.315.825.447 1.478.508.207.02 1.31.034 2.583.034 2.177 0 2.225 0 2.321-.066a.43.43 0 0 0 .172-.42v.003a.7.7 0 0 0-.149-.265 2.52 2.52 0 0 1-.617-1.67v-.038.002c0-.815.327-1.522.915-1.98.425-.331.79-.457 1.321-.457.521.001.94.147 1.337.464l.165.133 1.006-1.089c.874-.945 1.04-1.11 1.27-1.26.169-.11.279-.205.308-.268.04-.085.045-.554.036-4.098-.011-4.407-.006-4.278-.2-4.893-.17-.538-.632-1.185-1.078-1.512-.488-.356-.928-.504-1.666-.56-.504-.037-7.17-.034-7.679.003m7.133 3.292c.277.103.495.44.495.765 0 .198-.09.427-.225.574-.238.26-.028.245-3.529.245s-3.29.014-3.529-.245a.84.84 0 0 1-.22-.574.84.84 0 0 1 .221-.575c.232-.252.016-.238 3.516-.24 2.834-.003 3.139.001 3.27.05m-1.502 3.274c.277.103.495.44.495.765a.9.9 0 0 1-.224.574c-.234.255-.118.245-2.779.245s-2.545.01-2.779-.245a.84.84 0 0 1-.22-.574.84.84 0 0 1 .222-.575c.229-.25.103-.238 2.765-.24 2.135-.003 2.388.002 2.52.05m-3.003 3.274c.277.104.495.44.495.765s-.218.662-.495.765c-.122.045-.284.054-1.006.054-.988 0-1.067-.015-1.277-.245a.84.84 0 0 1-.22-.574c0-.224.084-.428.221-.574.208-.227.27-.238 1.263-.241.738-.003.896.005 1.02.051z"/>
  <path d="M19.95 16.776c-.118.061-.463.42-1.607 1.669l-1.456 1.59-.541-.584c-.298-.321-.57-.601-.605-.62a1 1 0 0 0-.2-.07h-.007c-.447-.11-.886.28-.885.783 0 .335.058.417.994 1.43.916.99.938 1.007 1.243 1.007.322 0 .253.064 2.171-2.022.98-1.065 1.807-1.98 1.838-2.035a.9.9 0 0 0 .09-.594c-.076-.364-.369-.631-.72-.631a.7.7 0 0 0-.32.079z"/>
</svg>