<svg xmlns="http://www.w3.org/2000/svg" width="26" height="26" fill="currentColor" class="sym sym-file-download-solid" viewBox="0 0 26 26">
  <path d="M9.072 4.026c-.802.042-1.249.179-1.73.53-.6.438-1.039 1.09-1.196 1.779-.13.57-.13.565-.142 6.137-.012 5.456.001 6.427.098 6.977.14.795.589 1.517 1.235 1.987.523.379.895.485 1.885.537.94.048 5.495.027 5.606-.026a.46.46 0 0 0 .202-.33c0-.143-.101-.287-.569-.81-.499-.556-.614-.715-.753-1.04a2.6 2.6 0 0 1-.209-1.033c0-.958.502-1.787 1.233-2.194l.013-.007c.273-.147.646-.26.86-.26h.146v-.16c0-.216.1-.63.22-.905.28-.62.77-1.084 1.37-1.288l.015-.005c.291-.099.743-.119 1.2-.052.744.108.878.065.92-.295.032-.282.03-5.424-.003-6.137-.045-.98-.15-1.408-.477-1.951a3.2 3.2 0 0 0-.845-.926l-.011-.007c-.499-.358-.89-.472-1.79-.52-.64-.036-6.605-.036-7.278 0"/>
  <path d="M17.75 15.505a.78.78 0 0 0-.398.363l-.002.004-.083.154-.017 3.17-.547-.589c-.463-.498-.57-.598-.695-.643a.69.69 0 0 0-.783.19c-.209.229-.272.537-.176.855.045.145.178.302 1.269 1.497.856.937 1.258 1.356 1.351 1.406a.7.7 0 0 0 .578.042c.15-.053.245-.148 1.384-1.387 1.284-1.395 1.339-1.466 1.366-1.774.04-.455-.321-.883-.744-.883-.273 0-.372.072-.953.699l-.548.59v-1.522c0-1.727 0-1.734-.225-1.978a.72.72 0 0 0-.53-.24.7.7 0 0 0-.253.05l.005-.002z"/>
</svg>