<svg xmlns="http://www.w3.org/2000/svg" width="26" height="26" fill="currentColor" class="sym sym-file-attachment-solid" viewBox="0 0 26 26">
  <path d="M9.87 4.033c-.288.05-.546.16-.773.315l.008-.006c-.454.314-.766.874-.829 1.485-.016.168-.025 1.25-.02 2.609.008 2.306.009 2.323.073 2.454.147.3.374.452.67.452.298 0 .525-.152.672-.452.064-.13.065-.153.08-2.581l.015-2.45.112-.112c.094-.094.135-.112.251-.112.122 0 .154.017.257.127l.116.128v2.453c0 2.16-.006 2.473-.048 2.63a1.65 1.65 0 0 1-.378.705c-.292.331-.66.504-1.076.504-.397 0-.737-.15-1.03-.454a1.65 1.65 0 0 1-.389-.623l-.003-.01c-.063-.168-.065-.222-.08-2.104-.015-1.898-.015-1.933-.079-2.063-.147-.3-.374-.452-.67-.452-.298 0-.525.153-.672.452-.063.13-.065.165-.074 1.85-.013 2.275.014 2.537.324 3.225.797 1.761 2.843 2.342 4.362 1.238.558-.406 1.01-1.094 1.193-1.811.115-.45.128-.819.115-3.322-.012-2.634-.004-2.524-.205-2.976-.345-.77-1.105-1.204-1.923-1.1"/>
  <path fill-rule="evenodd" d="M13.479 4.042a.35.35 0 0 0-.224.336v.026-.001c.003.075.046.313.096.53.156.676.16.74.146 3.584-.013 2.857-.009 2.778-.187 3.454a5.8 5.8 0 0 1-.566 1.297c-.822 1.327-2.197 2.188-3.757 2.188q-.322 0-.632-.047l.024.003c-.466-.067-.639-.067-.727 0-.15.114-.154.167-.154 1.706 0 1.855.043 2.362.252 2.919.194.519.639 1.092 1.108 1.425.459.326.832.45 1.535.51.291.025 1.594.033 4.149.025 3.383-.01 3.75-.017 4.01-.07.654-.13 1.119-.393 1.575-.89.46-.502.7-1.009.819-1.733.05-.307.054-.706.054-6.302s-.004-5.995-.054-6.302c-.115-.7-.355-1.22-.787-1.703a2.8 2.8 0 0 0-.848-.665l-.017-.008c-.312-.162-.688-.253-1.231-.292-.64-.048-4.456-.04-4.585.01m4.788 6.558c.277.103.495.44.495.765 0 .198-.09.426-.224.574-.225.245-.225.245-1.861.245l-1.444-.001-.15-.076a.9.9 0 0 1-.393-.43l-.002-.005a1.2 1.2 0 0 1 0-.613.86.86 0 0 1 .493-.48l.006-.002c.041-.013.718-.026 1.504-.028 1.256-.002 1.446.005 1.575.052m0 3.274c.277.103.495.44.495.765 0 .198-.09.426-.224.574-.23.25-.181.245-2.236.245l-1.82-.001-.15-.076a.9.9 0 0 1-.392-.43l-.002-.005a1.2 1.2 0 0 1 0-.613.86.86 0 0 1 .493-.48l.006-.002c.04-.013.886-.026 1.88-.028 1.604-.002 1.82.003 1.95.052m0 3.274c.277.103.495.44.495.764a.9.9 0 0 1-.224.574c-.239.26-.03.245-3.53.245-3.502 0-3.292.015-3.53-.245a.84.84 0 0 1-.22-.574c0-.224.084-.428.22-.574.233-.253.017-.238 3.517-.241 2.835-.003 3.14.002 3.272.05"/>
</svg>