<svg xmlns="http://www.w3.org/2000/svg" width="26" height="26" fill="currentColor" class="sym sym-file-shield" viewBox="0 0 26 26">
  <path d="M12.495 22H9.614c-1.402 0-2.17 0-2.862-.364A3.3 3.3 0 0 1 5.35 20.18C5 19.462 5 18.663 5 17.207V8.793c0-1.456 0-2.255.35-2.973a3.26 3.26 0 0 1 1.402-1.456C7.443 4 8.212 4 9.614 4h4.984c1.401 0 2.17 0 2.861.364.604.324 1.1.84 1.402 1.456.35.718.35 1.517.35 2.973v2.59c0 .505-.389.91-.875.91-.487 0-.876-.405-.876-.91v-2.59c0-1.173 0-1.82-.156-2.144a1.47 1.47 0 0 0-.643-.657c-.311-.162-.934-.162-2.063-.162H9.614c-1.13 0-1.752 0-2.064.162a1.5 1.5 0 0 0-.642.668c-.156.323-.156.97-.156 2.143v8.414c0 1.173 0 1.82.156 2.144.146.283.36.515.642.657.312.162.935.162 2.064.162h2.881c.487 0 .876.404.876.91s-.39.91-.876.91m4.283-.809a.9.9 0 0 1-.38-.091c-.292-.142-2.832-1.466-2.832-3.711v-2.023c0-.384.233-.728.584-.86l1.703-.626a2.67 2.67 0 0 1 1.86 0l1.703.627c.35.131.584.475.584.86v2.022c0 2.245-2.54 3.57-2.833 3.711a.8.8 0 0 1-.38.091zm-1.46-5.188v1.386c0 .748.866 1.466 1.46 1.85.594-.384 1.46-1.102 1.46-1.85v-1.386l-1.12-.414a1 1 0 0 0-.68 0z"/>
</svg>