<svg xmlns="http://www.w3.org/2000/svg" width="26" height="26" fill="currentColor" class="sym sym-file-check" viewBox="0 0 26 26">
  <path d="M12.119 22H9.622c-1.404 0-2.174 0-2.867-.364a3.3 3.3 0 0 1-1.404-1.456C5 19.462 5 18.663 5 17.207V8.793c0-1.456 0-2.255.351-2.973.312-.627.8-1.132 1.404-1.456C7.448 4 8.218 4 9.622 4h4.993c1.404 0 2.174 0 2.867.364.604.324 1.092.83 1.404 1.456.351.718.35 1.517.35 2.973v4.612c0 .505-.39.91-.877.91s-.877-.405-.877-.91V8.793c0-1.173 0-1.82-.156-2.144a1.47 1.47 0 0 0-.644-.657c-.312-.162-.936-.162-2.067-.162H9.622c-1.131 0-1.755 0-2.067.162a1.55 1.55 0 0 0-.644.668c-.156.323-.156.97-.156 2.143v8.414c0 1.173 0 1.82.156 2.144.137.283.361.515.644.657.312.162.936.162 2.067.162h2.496c.488 0 .878.404.878.91s-.39.91-.878.91m3.51-.809a.9.9 0 0 1-.624-.263l-1.56-1.618a.933.933 0 0 1 0-1.284.855.855 0 0 1 1.238 0l.936.97 2.887-2.993a.855.855 0 0 1 1.238 0 .933.933 0 0 1 0 1.285l-3.51 3.64a.86.86 0 0 1-.625.263zm-5.07-4.854H8.997c-.488 0-.878-.404-.878-.91s.39-.91.878-.91h1.56c.488 0 .878.404.878.91s-.39.91-.878.91m3.12-3.236H8.998c-.488 0-.878-.404-.878-.91s.39-.91.878-.91h4.68c.488 0 .878.404.878.91s-.39.91-.877.91m1.56-3.236H8.998c-.488 0-.878-.404-.878-.91s.39-.91.878-.91h6.24c.489 0 .878.404.878.91s-.39.91-.877.91"/>
</svg>