<svg xmlns="http://www.w3.org/2000/svg" width="26" height="26" fill="currentColor" class="sym sym-file-download-02-solid" viewBox="0 0 26 26">
  <path fill-rule="evenodd" d="M8.988 4.023c-.683.05-1.171.215-1.656.558-.421.3-.885.896-1.07 1.376-.11.284-.191.678-.229 1.11-.044.518-.044 11.34 0 11.858.062.704.186 1.117.483 1.596.227.366.546.702.893.941.476.326.863.45 1.591.51.301.025 1.651.033 4.298.025 4.25-.013 4.122-.007 4.707-.22.765-.276 1.52-1.072 1.784-1.877.2-.614.196-.502.207-4.758.01-2.911.003-3.9-.025-4.005-.045-.171-.241-.412-.414-.509-.128-.072-.135-.072-2.322-.089-2.002-.016-2.209-.023-2.365-.077-.476-.164-.826-.527-1.001-1.04-.072-.209-.073-.21-.088-2.518-.012-1.7-.026-2.333-.054-2.398a1.2 1.2 0 0 0-.396-.43c-.126-.071-.137-.071-2.056-.076a66 66 0 0 0-2.288.022zm4.279 9.028c.196.071.394.28.462.486.045.14.05.35.05 1.683v1.523l.57-.59c.601-.628.704-.7.987-.7.438 0 .812.428.772.883-.028.308-.085.38-1.416 1.775-1.182 1.24-1.28 1.335-1.435 1.388a.76.76 0 0 1-.6-.043c-.096-.049-.513-.468-1.4-1.406-1.131-1.195-1.27-1.353-1.316-1.497-.1-.319-.034-.628.182-.855a.74.74 0 0 1 .812-.19c.13.045.24.144.721.645l.568.59V15.22c0-1.728 0-1.734.233-1.979a.74.74 0 0 1 .815-.188z"/>
  <path d="M15.476 5.177c-.081.086-.107.145-.123.287-.011.098-.017.85-.011 1.67.01 1.597.009 1.581.173 1.695.075.052.212.058 1.5.068.78.006 1.493 0 1.587-.012.135-.017.19-.044.273-.13.085-.09.102-.132.102-.255s-.02-.175-.121-.307c-.14-.182-2.774-2.946-2.909-3.053a.35.35 0 0 0-.212-.07h-.017c-.116 0-.156.017-.242.107"/>
</svg>