<svg xmlns="http://www.w3.org/2000/svg" width="26" height="26" fill="currentColor" class="sym sym-file-solid" viewBox="0 0 26 26">
  <path fill-rule="evenodd" d="M8.704 4.031c-.73.05-1.256.214-1.775.558-.453.3-.95.895-1.149 1.375-.117.284-.204.677-.244 1.11-.048.517-.048 11.335 0 11.853.065.703.2 1.116.517 1.595.243.366.585.702.958.94.51.326.925.45 1.706.51.323.025 1.77.033 4.609.025 3.758-.01 4.166-.017 4.454-.07.727-.13 1.243-.393 1.75-.89.511-.503.778-1.01.91-1.734.056-.307.06-.706.06-6.304 0-5.597-.004-5.996-.06-6.303-.128-.7-.395-1.22-.875-1.703a3.1 3.1 0 0 0-.942-.666l-.018-.008c-.346-.162-.765-.252-1.368-.292-.56-.038-7.968-.035-8.533.002zm7.925 4.112a.85.85 0 0 1 .55.764.85.85 0 0 1-.249.574c-.265.26-.032.245-3.922.245s-3.656.015-3.921-.245a.795.795 0 0 1 .001-1.148c.258-.253.018-.238 3.907-.241 3.149-.003 3.488.002 3.634.05m-1.668 3.274c.307.104.55.44.55.765 0 .199-.1.427-.25.574-.259.256-.13.245-3.087.245s-2.828.01-3.088-.245a.794.794 0 0 1 .002-1.148c.254-.25.114-.238 3.072-.242 2.373-.002 2.654.003 2.8.052m-3.338 3.275c.308.103.551.44.551.765a.85.85 0 0 1-.55.764c-.136.045-.316.054-1.118.054-1.098 0-1.186-.014-1.42-.245a.794.794 0 0 1 .002-1.148c.231-.226.3-.238 1.404-.241.82-.003.995.005 1.132.051"/>
</svg>