<svg xmlns="http://www.w3.org/2000/svg" width="26" height="26" fill="currentColor" class="sym sym-film-solid" viewBox="0 0 26 26">
  <path fill-rule="evenodd" d="M7.145 4.032c-.717.049-1.233.214-1.742.557-.444.3-.933.895-1.128 1.375-.115.284-.2.678-.24 1.11-.047.517-.047 11.335 0 11.853.064.703.196 1.116.508 1.595.239.366.575.702.94.94.501.326.909.45 1.675.51.321.025 2.202.033 6.162.025 5.267-.01 5.723-.015 6.01-.069.715-.132 1.22-.395 1.718-.891.502-.503.764-1.01.893-1.734.055-.307.059-.706.059-6.304 0-5.597-.004-5.995-.059-6.303-.125-.7-.387-1.22-.858-1.703a3 3 0 0 0-.925-.666l-.019-.007c-.34-.163-.75-.253-1.342-.293-.555-.037-11.094-.036-11.652.003zm.95 2.83v1.227H5.628l.023-.483c.03-.632.069-.87.176-1.087.177-.353.578-.696.922-.787.161-.044.665-.088 1.075-.094l.27-.005v1.228zm4.094 1.227H9.732V5.633h2.457zm4.095 0h-2.457V5.633h2.457zM19.1 5.701c.3.046.538.175.787.423.366.365.435.583.477 1.482l.023.483H17.92V5.623l.484.023c.266.012.579.038.696.055M8.095 20.38l-.516-.022c-.85-.035-1.143-.136-1.493-.514-.324-.35-.395-.584-.435-1.447l-.022-.483h2.467zm4.094-.011H9.732v-2.456h2.457zm4.095 0h-2.457v-2.456h2.457zm4.081-1.973c-.04.867-.11 1.098-.434 1.447-.35.379-.643.48-1.493.514l-.516.022v-2.466h2.467z"/>
</svg>