<svg xmlns="http://www.w3.org/2000/svg" width="26" height="26" fill="currentColor" class="sym sym-film" viewBox="0 0 26 26">
  <path d="M17.207 22H8.793c-1.456 0-2.255 0-2.973-.364a3.4 3.4 0 0 1-1.456-1.456C4 19.462 4 18.663 4 17.207V8.793c0-1.456 0-2.255.364-2.973A3.4 3.4 0 0 1 5.82 4.364C6.538 4 7.337 4 8.793 4h8.414c1.456 0 2.255 0 2.973.364.627.324 1.132.83 1.456 1.456C22 6.538 22 7.337 22 8.793v8.414c0 1.456 0 2.255-.364 2.973a3.4 3.4 0 0 1-1.456 1.456c-.718.364-1.517.364-2.973.364m-3.297-1.82h2.225v-2.225H13.91zm-4.045 0h2.225v-2.225H9.865zM5.82 17.955c0 .718.04 1.153.162 1.396.142.283.384.515.667.667.243.121.678.152 1.396.162v-2.225zm12.135 0v2.225c.718 0 1.153-.04 1.396-.162.283-.142.515-.384.667-.668.121-.242.152-.677.162-1.395zm-4.045-1.82h6.27v-6.27h-6.27zm-8.09 0h6.27v-6.27H5.82zm12.135-8.09h2.225c0-.718-.04-1.153-.162-1.396a1.6 1.6 0 0 0-.667-.667c-.243-.121-.678-.152-1.396-.162zm-4.045 0h2.225V5.82H13.91zm-4.045 0h2.225V5.82H9.865zm-4.045 0h2.225V5.82c-.718 0-1.153.04-1.396.162a1.57 1.57 0 0 0-.667.667c-.121.243-.152.678-.162 1.396"/>
</svg>