<svg xmlns="http://www.w3.org/2000/svg" width="26" height="26" fill="currentColor" class="sym sym-filter-lines-solid" viewBox="0 0 26 26">
  <path d="M3.763 6.024c-.752.184-1.02 1.118-.476 1.662.063.062.186.152.274.199l.162.086h18.562l.161-.086c.367-.196.554-.5.554-.896 0-.397-.187-.7-.554-.896l-.162-.086-9.2-.006c-5.06-.003-9.255.006-9.321.023m2.89 6.04c-.23.084-.415.242-.531.444l-.003.005c-.095.161-.11.234-.11.49s.015.328.11.49c.061.103.171.234.244.29.309.235-.078.222 6.64.222 6.92 0 6.395.023 6.717-.3a.985.985 0 0 0 0-1.405c-.322-.325.205-.3-6.733-.298-5.256.003-6.2.012-6.333.06zm3.123 5.989c-.753.186-1.019 1.117-.475 1.661.063.063.186.153.274.2.162.086.162.086 3.429.086s3.267 0 3.428-.086c.367-.197.554-.5.554-.896 0-.397-.187-.7-.554-.896-.161-.087-.17-.087-3.349-.093-1.752-.004-3.24.006-3.307.023"/>
</svg>