<svg xmlns="http://www.w3.org/2000/svg" width="26" height="26" fill="currentColor" class="sym sym-filter-funnel" viewBox="0 0 26 26">
  <path d="M10.49 23c-.078 0-.167 0-.245-.03a1.4 1.4 0 0 1-.867-.603c-.227-.358-.227-.736-.227-1.247v-7.119a2 2 0 0 0-.167-.214L3.36 7.27l.66-.613-.67.602c-.886-1.021-1.32-1.532-1.349-2.237a1.98 1.98 0 0 1 .68-1.573C3.203 3 3.863 3 5.192 3h14.616c1.33 0 2 0 2.511.45.453.388.7.97.68 1.572-.03.695-.473 1.206-1.36 2.237l-5.623 6.517c-.089.102-.138.154-.167.205v5.74c0 .256 0 .47-.09.715a1.5 1.5 0 0 1-.354.552c-.197.184-.384.255-.61.347l-3.349 1.39c-.364.152-.65.265-.945.265zM4.66 6.054l5.624 6.517c.167.194.286.327.394.52.089.164.157.348.197.532.04.194.04.378.04.654v6.7l3.151-1.307v-5.393c0-.276 0-.45.05-.664.039-.174.098-.347.186-.521.099-.194.217-.327.375-.51l5.633-6.528c.424-.49.857-.99.916-1.164-.148-.03-.798-.03-1.428-.03H5.182c-.63-.001-1.28-.001-1.447.06.078.133.512.634.925 1.124L4 6.667z"/>
</svg>