<svg xmlns="http://www.w3.org/2000/svg" width="26" height="26" fill="currentColor" class="sym sym-filter-funnel-solid" viewBox="0 0 26 26">
  <path d="M4.346 3.028c-.615.063-.986.234-1.322.61-.602.676-.692 1.578-.236 2.365.216.371.38.568 3.68 4.396l3.094 3.59v3.67c.001 2.098.018 3.797.04 3.968.02.164.079.395.13.513.284.642.989.99 1.648.815.288-.076 4.108-1.656 4.333-1.792.342-.204.608-.63.678-1.079.026-.159.041-1.365.041-3.175v-2.92l3.094-3.59c.758-.866 1.84-2.127 2.917-3.394l.4-.48c.58-.737.764-1.349.6-1.995-.191-.74-.71-1.275-1.417-1.454-.242-.062-.988-.068-8.815-.076-4.702-.003-8.692.009-8.865.027"/>
</svg>