<svg xmlns="http://www.w3.org/2000/svg" width="26" height="26" fill="currentColor" class="sym sym-fingerprint-02-solid" viewBox="0 0 26 26">
  <path d="M13 4.01c-1.312.09-2.556.427-3.599.978-.387.205-.43.243-.552.47a.87.87 0 0 0 .188 1.055c.205.178.361.235.643.235.214 0 .283-.023.771-.251a7 7 0 0 1 1.725-.58l.046-.008c.38-.076.541-.087 1.254-.087.916 0 1.327.057 2.064.288 2.036.637 3.68 2.232 4.298 4.17.201.632.253.976.275 1.813.048 1.82-.237 3.997-.769 5.89-.162.576-.169.81-.032 1.073.238.458.88.613 1.333.322.307-.198.342-.27.596-1.242.412-1.513.68-3.263.742-5.064l.001-.04c.058-1.486-.039-2.34-.382-3.368-.951-2.76-3.32-4.838-6.263-5.466l-.056-.01c-.68-.139-1.698-.218-2.283-.178M6.693 7.653c-.2.05-.43.18-.526.303-.12.15-.477.831-.626 1.19-.401.97-.552 1.743-.614 3.142-.058 1.33-.257 2.182-.752 3.233-.145.307-.171.4-.174.601L4 16.16a.82.82 0 0 0 .425.71l.005.001c.347.202.643.202.997 0 .187-.106.217-.144.4-.496a9.5 9.5 0 0 0 .754-2.114c.12-.546.171-.986.226-1.955.083-1.445.226-2.03.744-3.037.239-.465.263-.531.263-.736 0-.265-.057-.412-.233-.604-.203-.221-.604-.346-.889-.276z"/>
  <path d="M12.849 7.662a4.9 4.9 0 0 0-1.471.44l.026-.012c-1.311.612-2.268 1.751-2.578 3.121l-.005.03c-.032.136-.074.608-.095 1.048-.02.44-.056.962-.078 1.162a11.4 11.4 0 0 1-1.698 4.81l.03-.052c-.36.585-.395.713-.288 1.056a.94.94 0 0 0 .899.634c.23 0 .442-.08.605-.211l-.001.001c.382-.312 1.269-1.982 1.683-3.17.473-1.355.673-2.448.746-4.068.04-.861.07-1.016.297-1.466a2.74 2.74 0 0 1 1.34-1.27l.016-.006c.457-.205.679-.252 1.197-.252.519 0 .74.047 1.197.252 1.05.47 1.652 1.417 1.652 2.593 0 .472-.062 1.396-.137 2.047-.035.297-.05.607-.035.699.034.218.227.485.442.612.5.293 1.201.055 1.376-.468.134-.401.276-2.216.242-3.12-.023-.661-.118-1.104-.352-1.644-.818-1.889-2.879-3.024-5.013-2.764z"/>
  <path d="M13.267 11.286a1 1 0 0 0-.635.487l-.003.006c-.067.127-.082.244-.107.89a14.9 14.9 0 0 1-1.193 5.37l.04-.103c-.214.518-.774 1.592-1.109 2.125-.287.456-.297.482-.311.737-.014.23-.002.29.088.463.235.461.863.624 1.326.344.204-.125.367-.351.826-1.15a16.2 16.2 0 0 0 2.207-7.878v-.016c.01-.591.005-.646-.07-.782-.212-.378-.669-.59-1.06-.493m2.934 5.466a.99.99 0 0 0-.637.651l-.002.007c-.194.702-.668 1.9-1.125 2.851-.18.371-.294.661-.305.763-.037.361.166.702.524.882.184.093.237.104.462.088.292-.02.54-.136.694-.33.367-.46 1.55-3.372 1.607-3.955.037-.387-.123-.691-.468-.885-.206-.115-.54-.147-.749-.073"/>
</svg>