<svg xmlns="http://www.w3.org/2000/svg" width="26" height="26" fill="currentColor" class="sym sym-fingerprint" viewBox="0 0 26 26">
  <path d="M10.638 22a.7.7 0 0 1-.253-.04C7.217 21.03 5 18.075 5 14.77v-3.287c0-.819.132-1.618.395-2.386a.92.92 0 0 1 1.154-.577.92.92 0 0 1 .576 1.153 5.8 5.8 0 0 0-.293 1.81v3.287a5.7 5.7 0 0 0 4.069 5.44.91.91 0 0 1 .617 1.133.92.92 0 0 1-.87.657zm4.109-.131a.93.93 0 0 1-.86-.597.904.904 0 0 1 .546-1.163 5.7 5.7 0 0 0 3.492-3.68.909.909 0 0 1 1.741.525 7.5 7.5 0 0 1-4.615 4.864.9.9 0 0 1-.314.05zM12.5 19.38c-.84 0-1.66-.233-2.379-.657a.92.92 0 0 1-.313-1.254.93.93 0 0 1 1.255-.314 2.798 2.798 0 0 0 4.23-2.397v-2.436c0-.506.405-.91.912-.91.506 0 .91.404.91.91v2.436A4.624 4.624 0 0 1 12.5 19.37zm0-3.701a.907.907 0 0 1-.91-.91v-3.287c0-.506.404-.91.91-.91s.91.404.91.91v3.287c0 .505-.404.91-.91.91m-3.704-.86a.907.907 0 0 1-.911-.91v-2.427a4.624 4.624 0 0 1 4.615-4.61c.84 0 1.67.232 2.389.667.425.263.567.82.303 1.254a.917.917 0 0 1-1.255.304 2.8 2.8 0 0 0-1.437-.405 2.8 2.8 0 0 0-2.793 2.791v2.427c0 .506-.405.91-.911.91m10.283-1.405a.907.907 0 0 1-.911-.91v-1.012A5.67 5.67 0 0 0 12.5 5.83a5.64 5.64 0 0 0-3.229 1.002.91.91 0 0 1-1.032-1.497A7.46 7.46 0 0 1 12.5 4c4.13 0 7.5 3.357 7.5 7.493v1.011c0 .506-.405.91-.911.91z"/>
</svg>