<svg xmlns="http://www.w3.org/2000/svg" width="26" height="26" fill="currentColor" class="sym sym-fingerprint-solid" viewBox="0 0 26 26">
  <path d="M13.09 4.009c-1.33.078-2.703.537-3.756 1.255-.327.224-.432.402-.433.73-.002.476.335.822.8.822.208 0 .319-.045.712-.287a6 6 0 0 1 1.96-.778l.039-.007c.325-.065.479-.076 1.096-.076s.77.01 1.096.076c2.374.48 4.17 2.265 4.649 4.621.062.305.077.52.095 1.36.02.933.026 1.008.093 1.132a.82.82 0 0 0 .734.457h.01a.82.82 0 0 0 .746-.457c.068-.128.072-.17.068-1.048-.003-.958-.032-1.3-.165-1.914a7.51 7.51 0 0 0-5.69-5.715l-.05-.01a8.6 8.6 0 0 0-2.004-.162z"/>
  <path d="M12.723 6.967c-1.687.308-3.074 1.515-3.586 3.121-.207.65-.218.78-.22 2.487v1.548l.078.158c.167.34.553.536.904.463a.85.85 0 0 0 .668-.641c.022-.103.035-.699.035-1.577 0-1.546.011-1.665.2-2.137a2.97 2.97 0 0 1 2.108-1.76l.019-.003c.195-.04.372-.05.71-.037.529.02.733.074 1.27.336.428.209.607.225.908.078a.808.808 0 0 0 .255-1.272c-.216-.243-.93-.573-1.563-.72-.385-.09-1.4-.115-1.787-.045z"/>
  <path d="M6.793 8.63c-.276.146-.38.331-.545.963-.228.878-.263 1.452-.243 3.929.017 2.06.025 2.203.186 2.933.47 2.137 1.95 4.026 3.928 5.017.92.461 1.5.616 1.82.481a.827.827 0 0 0 .42-1.112l.002.005c-.116-.247-.256-.35-.675-.496-.915-.32-1.567-.715-2.231-1.35a5.8 5.8 0 0 1-1.69-3.062l-.006-.037c-.077-.376-.078-.405-.078-2.743 0-2.61 0-2.61.225-3.363.078-.264.095-.373.082-.527a.77.77 0 0 0-.368-.601l-.004-.002c-.138-.086-.202-.103-.416-.11s-.276.004-.407.074m6.532 2.046a.9.9 0 0 0-.56.446l-.003.005c-.07.133-.072.155-.072 2.015s0 1.883.072 2.015c.163.305.415.46.746.46.33 0 .583-.155.746-.46.07-.132.072-.154.072-2.015 0-1.86 0-1.882-.072-2.015-.186-.346-.587-.54-.93-.451"/>
  <path d="M17.047 11.54a.94.94 0 0 0-.556.48l-.002.006c-.055.12-.062.288-.078 1.731-.016 1.37-.027 1.625-.076 1.793-.413 1.408-1.716 2.303-3.127 2.15a3.4 3.4 0 0 1-1.174-.372l.019.008c-.224-.117-.28-.134-.476-.133-.282.001-.45.075-.628.276a.8.8 0 0 0 .079 1.156l.001.001c.298.253 1.11.577 1.71.681a5.5 5.5 0 0 0 1.527.004 4.9 4.9 0 0 0 1.91-.792l-.016.011a5.8 5.8 0 0 0 1.082-1.074l.01-.014c.371-.521.66-1.215.786-1.889.05-.261.058-.534.058-1.838 0-1.213-.008-1.558-.045-1.66a.97.97 0 0 0-.416-.46c-.146-.074-.456-.107-.59-.064zm2.631 4.409a.84.84 0 0 0-.46.33 3 3 0 0 0-.167.403 5.98 5.98 0 0 1-3.26 3.494l-.04.015a3 3 0 0 0-.497.254c-.265.217-.351.641-.198.97.206.44.656.572 1.204.35 2.06-.832 3.639-2.485 4.348-4.541l.015-.054c.119-.347.124-.557.017-.785a.82.82 0 0 0-.967-.435z"/>
</svg>