<svg xmlns="http://www.w3.org/2000/svg" width="26" height="26" fill="currentColor" class="sym sym-fingerprint-02" viewBox="0 0 26 26">
  <path d="M15.067 22a.9.9 0 0 1-.423-.101.9.9 0 0 1-.422-1.225 18.3 18.3 0 0 0 1.352-3.328c.138-.486.666-.76 1.173-.628.508.142.804.638.656 1.123a20.3 20.3 0 0 1-1.48 3.653.98.98 0 0 1-.856.506m-4.196-.243a.94.94 0 0 1-.507-.142.88.88 0 0 1-.296-1.254 14.87 14.87 0 0 0 2.463-8.196c0-.506.422-.91.95-.91.53 0 .952.404.952.91 0 3.248-.951 6.415-2.758 9.167a.96.96 0 0 1-.804.425m-3.265-1.851a.95.95 0 0 1-.582-.193.883.883 0 0 1-.19-1.244c0-.01.021-.03.021-.04a11.3 11.3 0 0 0 1.881-6.264c0-2.499 2.125-4.543 4.746-4.543 2.62 0 4.735 2.034 4.735 4.543 0 .962-.064 1.913-.201 2.843-.074.496-.529.85-1.068.78-.518-.071-.888-.527-.814-1.022.117-.85.18-1.72.18-2.6 0-1.498-1.268-2.722-2.832-2.722s-2.843 1.214-2.843 2.721c0 2.58-.75 5.08-2.177 7.235-.043.06-.074.121-.106.151a.96.96 0 0 1-.75.355m12.513-.355a.8.8 0 0 1-.264-.04c-.508-.142-.793-.637-.656-1.123a21.7 21.7 0 0 0 .899-6.223c0-3.5-2.97-6.344-6.627-6.344a6.76 6.76 0 0 0-3.318.85.975.975 0 0 1-1.3-.334c-.265-.435-.106-.991.348-1.244A8.8 8.8 0 0 1 13.471 4C18.174 4 22 7.663 22 12.165a23.6 23.6 0 0 1-.972 6.719c-.117.404-.497.657-.92.657zM4.953 17.042q-.206 0-.412-.09c-.476-.224-.677-.76-.444-1.215a7.9 7.9 0 0 0 .845-3.562 8 8 0 0 1 1.142-4.087.975.975 0 0 1 1.3-.334c.454.253.613.81.348 1.244a6.1 6.1 0 0 0-.887 3.167 9.55 9.55 0 0 1-1.036 4.351.97.97 0 0 1-.856.516z"/>
</svg>