<svg xmlns="http://www.w3.org/2000/svg" width="26" height="26" fill="currentColor" class="sym sym-flag" viewBox="0 0 26 26">
  <path d="M4.91 24a.905.905 0 0 1-.91-.908V3.917c0-.242.091-.474.263-.645C4.394 3.14 5.638 2 8.955 2c1.689 0 3.064.545 4.379 1.07 1.213.484 2.366.948 3.711.948 2.528 0 3.418-.756 3.418-.767a.94.94 0 0 1 .991-.151.92.92 0 0 1 .546.817v12.11a.9.9 0 0 1-.263.646c-.131.132-1.375 1.272-4.692 1.272-1.689 0-3.064-.545-4.379-1.07-1.213-.484-2.366-.948-3.71-.948-1.74 0-2.7.353-3.136.585v6.58a.905.905 0 0 1-.91.908m4.045-9.89c1.689 0 3.064.545 4.379 1.07 1.213.484 2.366.948 3.711.948 1.74 0 2.7-.353 3.135-.585V5.391c-.728.242-1.75.444-3.135.444-1.689 0-3.064-.545-4.379-1.07-1.213-.484-2.366-.948-3.71-.948-1.74 0-2.7.353-3.136.585v10.152c.728-.242 1.75-.444 3.135-.444"/>
</svg>