<svg xmlns="http://www.w3.org/2000/svg" width="26" height="26" fill="currentColor" class="sym sym-flag-solid" viewBox="0 0 26 26">
  <path d="M7.96 2.023c-1.59.136-2.998.616-3.635 1.237C3.969 3.607 4 2.59 4 13.493c0 6.527.014 9.702.042 9.803.06.22.273.474.489.585a.98.98 0 0 0 1.169-.173c.314-.314.3-.137.3-3.868v-3.313l.254-.103c.667-.266 1.518-.399 2.585-.403 1.268-.005 1.745.11 3.76.9 2.157.845 3.133 1.08 4.472 1.08 1.97 0 3.854-.523 4.607-1.278.348-.347.32.22.32-6.731 0-6.912.024-6.387-.299-6.709a1 1 0 0 0-1.034-.24l.006-.003a1.8 1.8 0 0 0-.345.199c-.586.43-1.605.687-2.91.734-.76.026-1.218-.016-1.87-.172-.574-.138-.891-.247-2.207-.757-1.654-.642-2.258-.828-3.125-.963-.48-.075-1.682-.106-2.254-.058"/>
</svg>