<svg xmlns="http://www.w3.org/2000/svg" width="26" height="26" fill="currentColor" class="sym sym-flex-align-bottom-solid" viewBox="0 0 26 26">
  <path fill-rule="evenodd" d="M6.611 4.01c-.805.067-1.335.293-1.813.772-.442.442-.683.958-.758 1.628-.053.483-.053 12.681 0 13.165.052.47.178.847.388 1.167.475.723 1.127 1.12 1.996 1.217.483.055 12.67.055 13.152 0 .869-.097 1.521-.494 1.996-1.217.21-.32.335-.697.387-1.167.055-.484.055-12.682 0-13.165-.051-.47-.177-.848-.387-1.167a2.65 2.65 0 0 0-1.68-1.177c-.224-.051-.936-.059-6.694-.063a913 913 0 0 0-6.808.008h.222zm11.737 13.222c.17.092.362.297.432.467.064.152.064.521 0 .674a1.03 1.03 0 0 1-.472.479l-.18.083H7.87l-.18-.083a1.04 1.04 0 0 1-.47-.473l-.002-.006a1 1 0 0 1-.05-.328v-.01c0-.12.023-.271.05-.336a1 1 0 0 1 .59-.53l.008-.001c.049-.016 2.406-.025 5.236-.022l5.147.006.147.08z"/>
</svg>