<svg xmlns="http://www.w3.org/2000/svg" width="26" height="26" fill="currentColor" class="sym sym-flex-align-left-solid" viewBox="0 0 26 26">
  <path fill-rule="evenodd" d="M6.611 4.01c-.805.067-1.335.293-1.813.772-.442.442-.683.958-.758 1.628-.053.483-.053 12.681 0 13.165.052.47.178.847.388 1.167.475.723 1.127 1.12 1.996 1.217.483.055 12.67.055 13.152 0 .869-.097 1.521-.494 1.996-1.217.21-.32.335-.697.387-1.167.055-.484.055-12.682 0-13.165-.051-.47-.177-.848-.387-1.167a2.65 2.65 0 0 0-1.68-1.177c-.224-.051-.936-.059-6.694-.063a913 913 0 0 0-6.808.008h.222zm1.91 3.274a.9.9 0 0 1 .284.285l.109.176v10.494l-.109.178c-.123.2-.398.388-.62.424-.328.053-.706-.127-.89-.424l-.108-.178-.011-5.173c-.008-3.495.002-5.214.027-5.302a.88.88 0 0 1 .434-.514l.005-.002c.165-.083.227-.095.448-.085.209.01.287.032.431.121"/>
</svg>