<svg xmlns="http://www.w3.org/2000/svg" width="26" height="26" fill="currentColor" class="sym sym-flex-align-top-solid" viewBox="0 0 26 26">
  <path fill-rule="evenodd" d="M6.611 4.01c-.805.067-1.335.293-1.813.772-.442.442-.683.958-.758 1.628-.053.483-.053 12.681 0 13.165.052.47.178.847.388 1.167.475.723 1.127 1.12 1.996 1.217.483.055 12.67.055 13.152 0 .869-.097 1.521-.494 1.996-1.217.21-.32.335-.697.387-1.167.055-.484.055-12.682 0-13.165-.051-.47-.177-.848-.387-1.167a2.65 2.65 0 0 0-1.68-1.177c-.224-.051-.936-.059-6.694-.063a913 913 0 0 0-6.808.008h.222zm11.807 3.273a.9.9 0 0 1 .285.286c.098.158.109.206.109.47s-.01.31-.109.47c-.123.2-.397.389-.619.424-.177.03-9.992.03-10.17 0a1.03 1.03 0 0 1-.617-.421.75.75 0 0 1-.122-.401c-.025-.397.138-.697.466-.861l.191-.095 10.41.018z"/>
</svg>