<svg xmlns="http://www.w3.org/2000/svg" width="26" height="26" fill="currentColor" class="sym sym-flip-forward" viewBox="0 0 26 26">
  <path d="M13.005 21H8.427C5.435 21 3 18.388 3 15.178s2.435-5.822 5.427-5.822h11.675l-2.614-2.804a.96.96 0 0 1 0-1.286.81.81 0 0 1 1.199 0l4.068 4.364.009.01a.9.9 0 0 1 .17.283 1 1 0 0 1 .066.334v.02a1 1 0 0 1-.066.335.75.75 0 0 1-.18.283l-4.067 4.364a.81.81 0 0 1-1.199 0 .96.96 0 0 1 0-1.286l2.614-2.804H8.427c-2.057 0-3.728 1.792-3.728 3.999s1.67 4 3.728 4h4.578c.472 0 .85.404.85.91 0 .507-.378.912-.85.912z"/>
</svg>