<svg xmlns="http://www.w3.org/2000/svg" width="26" height="26" fill="currentColor" class="sym sym-flip-backward-solid" viewBox="0 0 26 26">
  <path d="M7.639 5.066c-.154.056-.49.393-2.314 2.335-1.519 1.612-2.16 2.322-2.22 2.456a1.15 1.15 0 0 0-.05.83l-.003-.009c.065.215.198.365 2.198 2.503 1.512 1.619 2.178 2.302 2.304 2.367a.9.9 0 0 0 .444.112.96.96 0 0 0 .702-.31c.28-.298.364-.7.234-1.116-.057-.186-.21-.365-1.29-1.523l-1.225-1.313h5.67c6.136 0 6.018-.004 6.618.228.968.4 1.72 1.2 2.085 2.206l.009.026a3.9 3.9 0 0 1 .207 1.267c0 .98-.354 1.872-.932 2.54l.002-.003a3.45 3.45 0 0 1-1.614 1.068l-.353.118-5.369.044-.199.11c-.792.435-.67 1.702.19 1.958.128.037.851.047 2.855.035 2.56-.016 2.699-.02 3.044-.106 1.112-.278 2-.796 2.764-1.61a6 6 0 0 0 1.52-2.995l.005-.039c.105-.538.105-1.68 0-2.22a6.05 6.05 0 0 0-1.525-3.034c-.77-.823-1.65-1.33-2.794-1.61-.37-.09-.407-.092-6.276-.106l-5.905-.013L7.645 7.95c1.08-1.157 1.231-1.336 1.288-1.522.13-.415.045-.818-.233-1.114a.955.955 0 0 0-1.07-.244l.007-.003z"/>
</svg>