<svg xmlns="http://www.w3.org/2000/svg" width="26" height="26" fill="currentColor" class="sym sym-flip-backward" viewBox="0 0 26 26">
  <path d="M17.573 20.99h-4.578c-.472 0-.85-.405-.85-.911 0-.507.378-.912.85-.912h4.578c2.058 0 3.728-1.792 3.728-3.999s-1.67-4-3.728-4H5.898l2.614 2.805c.33.355.33.932 0 1.286a.81.81 0 0 1-1.199 0l-4.068-4.364a1.1 1.1 0 0 1-.179-.283A1 1 0 0 1 3 10.278v-.02a.98.98 0 0 1 .236-.618l.01-.01 4.067-4.364a.81.81 0 0 1 1.2 0c.33.354.33.931 0 1.286L5.897 9.356h11.675c2.992 0 5.427 2.613 5.427 5.822S20.565 21 17.573 21z"/>
</svg>