<svg xmlns="http://www.w3.org/2000/svg" width="26" height="26" fill="currentColor" class="sym sym-flip-forward-solid" viewBox="0 0 26 26">
  <path d="M17.643 5.069c-.352.132-.644.582-.644.994 0 .086.03.25.066.366.057.185.21.365 1.288 1.522l1.224 1.312-5.905.012c-5.867.014-5.906.016-6.275.106-1.143.281-2.022.788-2.793 1.61a6.03 6.03 0 0 0-1.52 2.995l-.005.039c-.105.538-.105 1.68 0 2.22a6.03 6.03 0 0 0 1.525 3.032c.764.815 1.651 1.333 2.764 1.61.344.087.48.09 3.056.106 3.055.018 2.957.028 3.27-.307.481-.512.353-1.379-.25-1.695l-.19-.1-5.365-.045-.352-.117c-1.336-.441-2.26-1.54-2.491-2.963a3.96 3.96 0 0 1 .162-1.933l-.008.025c.376-1.031 1.126-1.832 2.07-2.222l.024-.01c.6-.232.483-.227 6.617-.227h5.67l-1.225 1.312c-1.08 1.159-1.233 1.338-1.29 1.524-.13.415-.046.817.235 1.115a.946.946 0 0 0 1.152.196l-.007.003c.125-.065.791-.749 2.304-2.367 2-2.138 2.133-2.288 2.198-2.503a1.14 1.14 0 0 0-.054-.828l.002.006c-.06-.133-.701-.843-2.22-2.456-1.926-2.048-2.152-2.275-2.33-2.338a1 1 0 0 0-.708.006l.006-.002z"/>
</svg>