<svg xmlns="http://www.w3.org/2000/svg" width="26" height="26" fill="currentColor" class="sym sym-folder-minus-solid" viewBox="0 0 26 26">
  <path fill-rule="evenodd" d="M5.64 4.007c-.815.07-1.354.298-1.834.774-.447.443-.69.959-.765 1.628-.054.474-.054 11.63-.001 12.208.071.774.217 1.23.564 1.756.265.403.639.772 1.045 1.035.556.359 1.01.495 1.86.562.358.027 2.447.035 6.847.027 6.996-.014 6.62-.001 7.324-.242.894-.304 1.778-1.18 2.086-2.066.237-.68.234-.614.234-4.892 0-3.564-.006-3.903-.066-4.235-.139-.77-.43-1.342-.953-1.874-.483-.49-1.07-.823-1.684-.955-.535-.116-1.221-.143-3.593-.143l-2.22-.001-.504-1c-.304-.62-.528-1.04-.76-1.455l.088.172a2.77 2.77 0 0 0-1.642-1.235l-.02-.005c-.19-.05-.567-.059-3.038-.065-1.552-.003-2.886 0-2.966.006zm5.55 1.82c.35.073.447.186.863.988.205.396.373.732.373.746.001.014-1.71.027-3.802.027H4.821v-.37c.003-.543.055-.88.164-1.042.134-.201.332-.316.605-.351.364-.047 5.379-.045 5.6.001m4.859 8.128c.335.114.6.485.6.842a.95.95 0 0 1-.272.632c-.284.28-.143.27-3.368.27s-3.085.01-3.368-.27a.88.88 0 0 1 .002-1.264c.277-.275.125-.262 3.351-.266 2.588-.002 2.895.003 3.055.056"/>
</svg>