<svg xmlns="http://www.w3.org/2000/svg" width="26" height="26" fill="currentColor" class="sym sym-folder-lock-solid" viewBox="0 0 26 26">
  <path d="M12.724 12.162a.73.73 0 0 0-.38.425l-.002.005a2.2 2.2 0 0 0-.028.494l.011.36h1.347l.01-.36a2.3 2.3 0 0 0-.027-.494.73.73 0 0 0-.657-.495.8.8 0 0 0-.28.068zm-1.771 3.161c-.182.097-.21.208-.21.826 0 .624.028.732.217.828.16.082 3.917.082 4.077 0 .189-.096.217-.204.217-.828 0-.623-.027-.732-.217-.828-.158-.081-3.933-.08-4.084.002"/>
  <path fill-rule="evenodd" d="M5.65 4.022c-.668.043-1.066.171-1.505.482-.407.287-.772.746-.935 1.17-.197.515-.19.307-.206 6.24-.014 5.603.004 6.681.12 7.278.17.886.718 1.678 1.522 2.202.603.394 1.079.52 2.168.573.877.044 11.492.044 12.37 0 1.09-.053 1.564-.179 2.168-.573.798-.521 1.352-1.321 1.522-2.201.098-.506.126-1.499.126-4.397s-.028-3.891-.126-4.396c-.17-.88-.724-1.68-1.522-2.202-.84-.548-1.306-.606-4.87-.608h-2.028l-.55-1.091c-.302-.6-.622-1.199-.71-1.332a2.7 2.7 0 0 0-.995-.87l-.015-.007c-.584-.286-.5-.279-3.478-.289-1.45-.005-2.826.005-3.056.02zm5.61 1.809c.286.084.42.252.823 1.035l.374.724H4.804l.016-.586c.011-.473.027-.61.08-.712a.87.87 0 0 1 .598-.47l.006-.001c.232-.046 5.596-.038 5.755.008zm2.525 4.583c.747.24 1.367.875 1.624 1.66.054.165.076.358.09.8l.018.58.194.043c.333.073.606.234.872.513.453.476.524.765.524 2.138 0 1.4-.074 1.684-.564 2.172-.301.3-.538.422-.962.498-.396.07-4.77.07-5.171 0a1.67 1.67 0 0 1-.987-.52l-.002-.001c-.459-.471-.532-.764-.532-2.15 0-1.382.073-1.677.53-2.146.265-.273.54-.432.87-.505l.198-.044v-.471c.002-.592.062-.886.27-1.303.253-.508.717-.959 1.206-1.174a2.72 2.72 0 0 1 1.84-.085l-.02-.005z"/>
</svg>