<svg xmlns="http://www.w3.org/2000/svg" width="26" height="26" fill="currentColor" class="sym sym-folder-lock" viewBox="0 0 26 26">
  <path d="M17.72 21.99H8.28c-1.613 0-2.512 0-3.288-.394a3.62 3.62 0 0 1-1.594-1.577C3 19.251 3 18.362 3 16.765V7.78c0-1.112 0-1.728.296-2.304a2.7 2.7 0 0 1 1.195-1.183C5.074 4 5.697 4 6.821 4h3.472c.725 0 1.134 0 1.563.152.378.131.736.343 1.021.626.327.314.511.677.838 1.314l.756 1.506h3.248c1.675 0 2.513 0 3.29.394a3.52 3.52 0 0 1 1.593 1.577c.398.768.398 1.647.398 3.254v3.952c0 1.597 0 2.486-.398 3.254a3.62 3.62 0 0 1-1.594 1.577C20.232 22 19.394 22 17.72 22zM4.838 9.417v7.358c0 1.314 0 2.041.194 2.426.173.333.45.606.786.778.388.192 1.124.192 2.452.192h9.438c1.338 0 2.063 0 2.451-.192.348-.172.613-.445.787-.778.194-.385.194-1.112.194-2.426v-3.952c0-1.314 0-2.041-.194-2.425a1.77 1.77 0 0 0-.787-.779c-.388-.192-1.123-.192-2.451-.192H4.829zm0-1.819h7.579l-.348-.687c-.224-.455-.367-.728-.48-.829a.9.9 0 0 0-.337-.202c-.143-.05-.45-.05-.96-.05H6.82c-.786 0-1.307 0-1.491.09a.97.97 0 0 0-.398.384c-.092.172-.092.617-.092 1.294m9.887 11.249h-3.452c-.593 0-.98 0-1.369-.192a1.76 1.76 0 0 1-.797-.789c-.204-.384-.204-.778-.204-1.364v-.718c0-.586 0-.98.204-1.364a1.8 1.8 0 0 1 .797-.788c.194-.091.378-.142.593-.172v-.687c0-1.365 1.123-2.487 2.512-2.487s2.513 1.112 2.513 2.487v.687c.215.02.398.07.592.172.348.172.624.454.797.798.204.384.204.768.204 1.354v.718c0 .586 0 .97-.204 1.364a1.76 1.76 0 0 1-.797.789c-.388.202-.786.202-1.368.202zm-3.452-3.598c-.256 0-.511 0-.582.02.05 0 .05.263.05.515v.718c0 .253 0 .505.021.576 0-.05.266-.05.51-.05h3.453c.256 0 .511 0 .582-.02-.05 0-.05-.264-.05-.506v-.718c0-.252 0-.505-.021-.576 0 .05-.266.05-.51.05h-3.453zm1.062-1.82h1.338v-.656a.67.67 0 0 0-.674-.667.655.655 0 0 0-.664.667z"/>
</svg>