<svg xmlns="http://www.w3.org/2000/svg" width="26" height="26" fill="currentColor" class="sym sym-folder-closed-solid" viewBox="0 0 26 26">
  <path d="M12.616 12.118a3 3 0 0 0-.662.187l-.12.06 3.632 3.597.058-.136c.265-.628.261-1.407-.009-2.064-.304-.74-1.023-1.362-1.83-1.58-.201-.055-.874-.095-1.069-.064M10.46 13.83a2.9 2.9 0 0 0-.167.98q.001.325.067.628l-.004-.02a2.74 2.74 0 0 0 1.996 1.993l.02.004c.493.116 1.204.064 1.636-.119l.155-.065-3.63-3.595z"/>
  <path fill-rule="evenodd" d="M5.65 4.022c-.668.043-1.066.171-1.505.482-.407.287-.772.746-.935 1.17-.197.515-.19.307-.206 6.24-.014 5.603.004 6.681.12 7.278.17.886.718 1.678 1.522 2.202.603.394 1.079.52 2.168.573.877.044 11.492.044 12.37 0 1.09-.053 1.564-.179 2.168-.573.798-.521 1.352-1.321 1.522-2.201.098-.506.126-1.499.126-4.397s-.028-3.891-.126-4.396c-.17-.88-.724-1.68-1.522-2.202-.84-.548-1.306-.606-4.87-.608h-2.028l-.55-1.091c-.302-.6-.622-1.199-.71-1.332a2.7 2.7 0 0 0-.995-.87l-.015-.007c-.584-.286-.5-.279-3.478-.289-1.45-.005-2.826.005-3.056.02zm5.61 1.809c.286.084.42.252.823 1.035l.374.724H4.804l.016-.586c.011-.473.027-.61.08-.712a.87.87 0 0 1 .598-.47l.006-.001c.232-.046 5.596-.038 5.755.008zm2.505 4.52a4.61 4.61 0 0 1 3.544 2.991l.01.032c.144.425.227.915.227 1.423 0 .509-.083.999-.237 1.456l.01-.032a4.63 4.63 0 0 1-2.852 2.847l-.032.009a4.586 4.586 0 0 1-5.51-2.262c-.824-1.604-.562-3.64.64-4.973.726-.807 1.629-1.315 2.65-1.493a5.7 5.7 0 0 1 1.55 0z"/>
</svg>