<svg xmlns="http://www.w3.org/2000/svg" width="26" height="26" fill="currentColor" class="sym sym-function-solid" viewBox="0 0 26 26">
  <path d="M1.914 19.483q-.707 0-1.06-.224t-.354-.68q0-.32.185-.526.186-.216.564-.259.068-.009.143-.008a2 2 0 0 1 .177-.009q.615 0 .892-.31.287-.31.446-1.068l.85-4.118h-.8q-.36 0-.58-.207t-.219-.586q0-.405.253-.629.26-.232.673-.232h1.01l.27-1.327q.31-1.482 1.035-2.137.724-.663 2.07-.663.733 0 1.095.233.37.224.37.697 0 .672-.74.767l-.177.017h-.202q-.631 0-.918.32-.278.318-.429 1.067l-.21 1.026h1.279a.8.8 0 0 1 .572.206q.228.207.228.586 0 .405-.261.638-.253.224-.665.224H5.92l-.9 4.41q-.32 1.534-1.028 2.163-.707.63-2.079.629m10.75.017q-.313 0-.573-.172-.261-.164-.522-.552a8.6 8.6 0 0 1-1.313-2.653q-.43-1.456-.43-3.127 0-1.655.43-3.119a8.5 8.5 0 0 1 1.313-2.653q.261-.388.522-.552.261-.172.572-.172.286 0 .463.164.185.163.185.439 0 .12-.033.233a3 3 0 0 1-.118.31q-.707 1.275-1.06 2.627-.345 1.345-.346 2.731 0 1.431.354 2.757.362 1.318 1.052 2.585.084.214.118.327a.7.7 0 0 1 .033.224q0 .293-.185.448a.68.68 0 0 1-.463.155m2.222-2.016a.9.9 0 0 1-.615-.224.78.78 0 0 1-.244-.586q0-.18.05-.344t.186-.345l2.146-2.99-2.062-2.816a1.2 1.2 0 0 1-.168-.31 1.2 1.2 0 0 1-.06-.388q0-.37.27-.638a.92.92 0 0 1 .673-.267q.32 0 .522.147.202.138.396.43l1.717 2.61h.042l1.709-2.601q.185-.293.37-.44a.8.8 0 0 1 .497-.146q.378 0 .64.241.26.242.26.62 0 .354-.252.69l-2.104 2.877 2.12 2.955q.12.156.17.31.05.156.05.328 0 .396-.261.646-.253.24-.665.241a.9.9 0 0 1-.446-.112q-.186-.113-.38-.405l-1.843-2.713h-.042l-1.784 2.662q-.228.336-.421.456a.93.93 0 0 1-.471.112m7.777 2.016a.7.7 0 0 1-.471-.164.57.57 0 0 1-.177-.439q0-.12.025-.224.034-.113.118-.327.69-1.267 1.044-2.585.362-1.326.362-2.757 0-1.387-.354-2.73-.345-1.353-1.052-2.628a3 3 0 0 1-.118-.31 1 1 0 0 1-.025-.233.57.57 0 0 1 .177-.44.7.7 0 0 1 .471-.163q.303 0 .564.172.27.164.53.552a8.6 8.6 0 0 1 1.305 2.653q.438 1.464.438 3.119 0 1.67-.43 3.127a8.6 8.6 0 0 1-1.312 2.653q-.27.389-.53.552a1 1 0 0 1-.565.172"/>
</svg>