<svg xmlns="http://www.w3.org/2000/svg" width="26" height="26" fill="currentColor" class="sym sym-git-merge-solid" viewBox="0 0 26 26">
  <path d="M7.075 4.021a3.9 3.9 0 0 0-1.535.605c-.7.475-1.204 1.194-1.443 2.052C4.01 6.993 4 7.09 4 7.59c0 .475.014.605.087.865.258.927.775 1.653 1.53 2.145.326.213.444.27.815.397l.234.08.036 10.3.1.17c.365.621 1.27.6 1.582-.035l.084-.171.036-5.607.303.362c1.432 1.713 3.494 2.836 5.76 3.138l.33.043.08.251c.304.943 1.082 1.797 1.982 2.174.546.23.825.285 1.442.284.49 0 .602-.013.911-.095.913-.247 1.73-.862 2.194-1.655.954-1.63.487-3.744-1.06-4.795a4.3 4.3 0 0 0-1.168-.532l-.031-.008c-.467-.115-1.236-.114-1.693.002a3.76 3.76 0 0 0-1.713.977 3.5 3.5 0 0 0-.77 1.161l-.009.024a7 7 0 0 1-.165.387c-.025.024-.619-.084-1.02-.187-2.21-.565-4.031-2.185-4.896-4.358a7 7 0 0 1-.378-1.362l-.006-.043c-.065-.368-.066-.4-.011-.441a.2.2 0 0 1 .103-.045h.001c.106 0 .633-.254.898-.433.748-.504 1.264-1.243 1.502-2.151.07-.266.083-.406.08-.859 0-.464-.014-.589-.094-.887a3.64 3.64 0 0 0-1.432-2.05l-.012-.007a4.2 4.2 0 0 0-1.151-.526l-.03-.007c-.349-.085-1.06-.123-1.376-.073"/>
</svg>