<svg xmlns="http://www.w3.org/2000/svg" width="26" height="26" fill="currentColor" class="sym sym-git-pull-request-solid" viewBox="0 0 26 26">
  <path d="M7.077 4.022a3.9 3.9 0 0 0-1.536.606c-.7.475-1.205 1.193-1.444 2.052-.087.314-.097.41-.097.91 0 .475.014.605.087.865.259.927.776 1.653 1.53 2.145.327.213.446.27.816.397l.235.08.036 10.299.1.17c.365.621 1.27.6 1.583-.035l.084-.171.036-10.263.235-.08c.37-.127.489-.184.816-.397.762-.497 1.292-1.245 1.533-2.166.07-.27.084-.407.082-.862 0-.465-.014-.589-.095-.888a3.64 3.64 0 0 0-1.433-2.049l-.011-.007a4.2 4.2 0 0 0-1.153-.526l-.03-.007c-.348-.085-1.06-.123-1.376-.073zm6.626 2.7a.876.876 0 0 0-.68.852v.018c0 .356.168.628.498.804.14.075.195.079 1.75.096 1.559.017 1.61.02 1.75.095a.9.9 0 0 1 .412.445c.072.159.073.222.074 3.03v2.866l-.167.045c-.468.125-1.076.494-1.473.893a3.5 3.5 0 0 0-1.028 2.199l-.001.012a3.56 3.56 0 0 0 1.946 3.524l.02.01c.47.241 1.024.382 1.612.382a3.583 3.583 0 0 0 3.563-3.2l.001-.015a3.59 3.59 0 0 0-1.03-2.913c-.402-.402-1.005-.767-1.469-.89l-.165-.045-.014-2.976c-.014-3.267-.006-3.144-.238-3.657a2.74 2.74 0 0 0-1.337-1.348l-.017-.007c-.483-.218-.538-.224-2.295-.235-.883-.006-1.654.002-1.713.017z"/>
</svg>