<svg xmlns="http://www.w3.org/2000/svg" width="26" height="26" fill="currentColor" class="sym sym-git-branch" viewBox="0 0 26 26">
  <path d="M18.4 22a3.6 3.6 0 0 1-3.489-2.698H9.228c-1.598 0-2.488 0-3.256-.395a3.5 3.5 0 0 1-1.578-1.576C4 16.563 4 15.683 4 14.076V4.91c0-.506.405-.91.91-.91.506 0 .91.404.91.91v3.577h9.081A3.62 3.62 0 0 1 18.39 5.79 3.61 3.61 0 0 1 22 9.397a3.61 3.61 0 0 1-3.61 3.608 3.6 3.6 0 0 1-3.489-2.698h-9.08v3.76c0 1.313 0 2.04.191 2.425.172.343.445.606.779.778.384.192 1.112.192 2.427.192h5.683a3.62 3.62 0 0 1 3.489-2.698A3.61 3.61 0 0 1 22 18.372a3.61 3.61 0 0 1-3.61 3.608zm0-5.387c-.98 0-1.79.799-1.79 1.789s.799 1.789 1.79 1.789 1.79-.799 1.79-1.789-.799-1.789-1.79-1.789m0-8.985c-.98 0-1.79.799-1.79 1.79 0 .99.799 1.788 1.79 1.788s1.79-.798 1.79-1.789-.799-1.789-1.79-1.789"/>
</svg>