<svg xmlns="http://www.w3.org/2000/svg" width="26" height="26" fill="currentColor" class="sym sym-git-commit-solid" viewBox="0 0 26 26">
  <path d="M12.453 9.033c-.623.077-1.4.388-1.905.76-.506.38-.917.856-1.209 1.402l-.01.024c-.136.271-.332.815-.332.925 0 .06-.056.06-2.159.06-2.342 0-2.306-.002-2.548.179a1 1 0 0 0-.197.227l-.002.004c-.078.13-.091.187-.091.393 0 .205.013.262.09.392.05.082.14.187.2.231.241.18.206.178 2.541.178h2.151l.044.185a4.07 4.07 0 0 0 2.684 2.818l.03.009c.52.159.672.18 1.27.18.495 0 .598-.01.911-.087 1.44-.353 2.52-1.328 2.973-2.686.054-.163.098-.323.098-.357 0-.06.056-.06 2.157-.06 2.433 0 2.36.006 2.61-.24a.78.78 0 0 0 0-1.125c-.25-.246-.178-.24-2.603-.24h-2.15l-.041-.185a4 4 0 0 0-.182-.526l.01.029c-.688-1.697-2.476-2.723-4.339-2.49z"/>
</svg>