<svg xmlns="http://www.w3.org/2000/svg" width="26" height="26" fill="currentColor" class="sym sym-git-branch-solid" viewBox="0 0 26 26">
  <path d="M4.593 4.052a.9.9 0 0 0-.478.4l-.002.004-.1.17-.01 5.39c-.008 3.678.001 5.54.028 5.859.069.818.208 1.27.56 1.81a3.65 3.65 0 0 0 1.035 1.036c.532.347.99.491 1.773.56.26.021 1.844.036 3.972.037 3.34 0 3.541.003 3.56.063.335 1.075 1.087 1.938 2.034 2.337.52.22.853.284 1.456.282.466 0 .588-.014.893-.097.91-.245 1.727-.861 2.19-1.654.954-1.63.488-3.745-1.057-4.796a4.3 4.3 0 0 0-1.168-.533l-.03-.008c-.467-.115-1.235-.114-1.692.002-1.274.327-2.218 1.24-2.626 2.54-.02.062-.188.064-3.793.051-3.376-.01-3.8-.019-4.023-.073a1.72 1.72 0 0 1-1.248-1.305c-.028-.146-.047-1.126-.059-3.02l-.016-2.803h4.56c4.311 0 4.562.003 4.58.063.335 1.075 1.087 1.938 2.034 2.337.52.22.853.284 1.456.282.467 0 .588-.014.893-.097.91-.245 1.727-.861 2.191-1.654.953-1.63.487-3.745-1.058-4.796a4.3 4.3 0 0 0-1.168-.533l-.03-.007c-.467-.116-1.235-.115-1.691.002-1.273.326-2.222 1.243-2.626 2.537-.019.06-.268.063-4.578.063H5.798V6.633c0-2.115.002-2.098-.27-2.37a.89.89 0 0 0-.94-.21z"/>
</svg>