<svg xmlns="http://www.w3.org/2000/svg" width="26" height="26" fill="currentColor" class="sym sym-git-merge" viewBox="0 0 26 26">
  <path d="M18.384 21.97a3.61 3.61 0 0 1-3.495-2.728 8.9 8.9 0 0 1-5.556-2.596 10 10 0 0 1-.818-.929v5.354a.905.905 0 0 1-.909.909.905.905 0 0 1-.909-.91v-9.98A3.62 3.62 0 0 1 4 7.607 3.61 3.61 0 0 1 7.606 4a3.61 3.61 0 0 1 3.606 3.606 3.6 3.6 0 0 1-2.646 3.475 7.1 7.1 0 0 0 2.06 4.293 7.1 7.1 0 0 0 4.293 2.06 3.6 3.6 0 0 1 3.475-2.646A3.61 3.61 0 0 1 22 18.394 3.61 3.61 0 0 1 18.394 22zm0-5.384c-.98 0-1.788.798-1.788 1.788s.798 1.788 1.788 1.788 1.788-.798 1.788-1.788-.798-1.788-1.788-1.788M7.606 5.808c-.98 0-1.788.798-1.788 1.788s.798 1.788 1.788 1.788 1.788-.798 1.788-1.788-.798-1.788-1.788-1.788"/>
</svg>