<svg xmlns="http://www.w3.org/2000/svg" width="26" height="26" fill="currentColor" class="sym sym-git-pull-request" viewBox="0 0 26 26">
  <path d="M18.4 22a3.61 3.61 0 0 1-3.61-3.61 3.6 3.6 0 0 1 2.7-3.489V9.4a.86.86 0 0 0-.263-.627.88.88 0 0 0-.627-.263h-2.7a.906.906 0 0 1-.91-.91c0-.506.404-.91.91-.91h2.7c.718 0 1.406.283 1.911.789.506.515.789 1.193.789 1.91v5.502A3.62 3.62 0 0 1 22 18.38a3.61 3.61 0 0 1-3.61 3.61zm0-5.39c-.98 0-1.79.799-1.79 1.79s.799 1.79 1.79 1.79 1.79-.799 1.79-1.79-.799-1.79-1.79-1.79M7.61 22a.906.906 0 0 1-.91-.91v-9.991A3.62 3.62 0 0 1 4 7.61 3.61 3.61 0 0 1 7.61 4a3.61 3.61 0 0 1 3.61 3.61 3.6 3.6 0 0 1-2.7 3.489v9.99a.906.906 0 0 1-.91.911m0-16.18c-.98 0-1.79.8-1.79 1.79 0 .991.8 1.79 1.79 1.79.991 0 1.79-.799 1.79-1.79 0-.99-.799-1.79-1.79-1.79"/>
</svg>