<svg xmlns="http://www.w3.org/2000/svg" width="26" height="26" fill="currentColor" class="sym sym-glasses-solid" viewBox="0 0 26 26">
  <path d="M6.256 5.023C4.847 5.2 3.561 6.16 3.034 7.43c-.236.565-.268.788-.6 4.115a300 300 0 0 1-.384 3.707c-.224 1.703.312 3.25 1.524 4.399a5 5 0 0 0 2.49 1.29l.032.004c.369.073 1.433.073 1.8 0 1.687-.334 3.075-1.461 3.72-3.018a5.6 5.6 0 0 0 .36-1.415l.002-.028.03-.303.165-.045a2.9 2.9 0 0 1 1.674.005l-.02-.005.164.045.03.303a5.1 5.1 0 0 0 1.062 2.633l-.008-.012c.765.96 1.778 1.577 3.027 1.842.327.069 1.446.068 1.8-.002a4.95 4.95 0 0 0 2.624-1.403v-.001c1.155-1.157 1.642-2.624 1.423-4.29a272 272 0 0 1-.385-3.706c-.33-3.327-.363-3.55-.6-4.116-.46-1.108-1.541-2.023-2.735-2.317-.47-.114-1.277-.149-1.527-.063a1 1 0 0 0-.566.453l-.002.005c-.096.161-.111.233-.111.49 0 .255.015.327.11.489.207.35.523.511 1.008.511.606 0 1.082.166 1.466.511.254.228.495.59.58.868.056.184.395 3.263.363 3.295-.008.008-.201-.075-.43-.183a4.94 4.94 0 0 0-2.134-.477 5 5 0 0 0-1.339.18l.036-.008c-.483.13-1.247.503-1.662.814-.374.28-.842.758-1.112 1.135-.158.222-.506.849-.558 1.005-.009.03-.128.019-.372-.032-.493-.103-1.46-.103-1.95-.001-.195.04-.358.067-.366.06a4 4 0 0 1-.142-.285l-.014-.031a5.3 5.3 0 0 0-1.51-1.84l-.013-.01c-.417-.31-1.181-.685-1.665-.815-.39-.11-.84-.172-1.303-.172a5 5 0 0 0-2.164.49l.03-.013c-.229.108-.423.192-.43.184-.032-.033.307-3.111.363-3.295.085-.279.326-.64.58-.868.383-.345.86-.51 1.463-.51.378 0 .634-.092.842-.3a.985.985 0 0 0 0-1.404c-.229-.23-.458-.302-.938-.294a8 8 0 0 0-.53.022l.026-.001z"/>
</svg>