<svg xmlns="http://www.w3.org/2000/svg" width="26" height="26" fill="currentColor" class="sym sym-glasses" viewBox="0 0 26 26">
  <path d="M19.058 21a4.88 4.88 0 0 1-3.496-1.457 4.9 4.9 0 0 1-1.445-3.4 3.12 3.12 0 0 0-2.224 0 4.94 4.94 0 0 1-1.445 3.4A4.9 4.9 0 0 1 6.952 21a4.9 4.9 0 0 1-3.497-1.457A4.97 4.97 0 0 1 2 16.05v-.02c0-.314.03-.638.09-.941l.627-6.244c.03-.334.051-.466.071-.587A3.94 3.94 0 0 1 6.366 5.02c.131 0 .283-.01.586-.01.505 0 .91.405.91.91a.907.907 0 0 1-.91.912h-.455c-.96.07-1.758.79-1.93 1.74-.02.092-.02.193-.04.385l-.294 2.925a4.93 4.93 0 0 1 2.719-.81c1.324 0 2.567.516 3.496 1.457a4.9 4.9 0 0 1 1.142 1.792 5 5 0 0 1 2.83 0 4.9 4.9 0 0 1 1.142-1.792 4.9 4.9 0 0 1 3.496-1.457c.98 0 1.91.284 2.719.81l-.283-2.864c-.03-.253-.04-.354-.05-.446a2.14 2.14 0 0 0-1.93-1.75h-.456a.906.906 0 0 1-.91-.911c0-.506.405-.911.91-.911.303 0 .465 0 .587.01a3.94 3.94 0 0 1 3.577 3.239c.02.121.04.253.06.516l.627 6.315q.09.455.091.94v.021c0 1.316-.515 2.56-1.455 3.492a4.9 4.9 0 0 1-3.497 1.457zm0-8.096a3.08 3.08 0 0 0-2.213.92 3.14 3.14 0 0 0-.92 2.217c0 .84.324 1.63.92 2.216 1.183 1.185 3.244 1.185 4.427 0a3.1 3.1 0 0 0 .92-2.175l-.072-.719a3.1 3.1 0 0 0-.849-1.548 3.1 3.1 0 0 0-2.213-.921zm-15.26 3.178c.01.82.334 1.588.92 2.175 1.183 1.185 3.244 1.185 4.427 0 .596-.597.92-1.376.92-2.216s-.324-1.63-.92-2.216c-1.183-1.184-3.244-1.184-4.427 0a3.13 3.13 0 0 0-.848 1.548l-.071.719z"/>
</svg>