<svg xmlns="http://www.w3.org/2000/svg" width="26" height="26" fill="currentColor" class="sym sym-globe-slated-02" viewBox="0 0 26 26">
  <path d="M16.776 22h-8.29a.9.9 0 0 1-.897-.91.9.9 0 0 1 .897-.909h3.248v-.728a8.65 8.65 0 0 1-5.051-1.98l-1.156 1.172a.887.887 0 0 1-1.265 0 .92.92 0 0 1 0-1.283l1.703-1.738.05-.05.05-.051 1.425-1.445a5.97 5.97 0 0 1-1.136-3.517c0-3.284 2.64-5.962 5.878-5.962s5.869 2.668 5.869 5.962-2.63 5.962-5.869 5.962a5.8 5.8 0 0 1-3.477-1.152l-.797.808a6.925 6.925 0 0 0 9.206-.606 7.1 7.1 0 0 0 2.043-5.012c0-1.9-.728-3.668-2.043-5.012a.92.92 0 0 1 0-1.284.887.887 0 0 1 1.265 0A8.93 8.93 0 0 1 21 10.561a8.93 8.93 0 0 1-2.57 6.295 8.7 8.7 0 0 1-4.903 2.506v.809h3.249a.9.9 0 0 1 .896.91.9.9 0 0 1-.896.909zM12.222 6.438c-2.251 0-4.085 1.86-4.085 4.143 0 2.284 1.834 4.143 4.085 4.143s4.075-1.86 4.075-4.143c0-2.284-1.823-4.143-4.075-4.143"/>
</svg>