<svg xmlns="http://www.w3.org/2000/svg" width="26" height="26" fill="currentColor" class="sym sym-globe-03" viewBox="0 0 26 26">
  <path d="M12.995 23.99c-4.65 0-8.625-2.896-10.238-6.984v-.01A11 11 0 0 1 2 12.99C2 8.5 4.713 4.624 8.577 2.918c.03-.01.05-.02.08-.03A10.9 10.9 0 0 1 12.995 2c2.956 0 5.649 1.17 7.626 3.078.05.04.1.08.141.131A10.95 10.95 0 0 1 24 12.99c0 .183 0 .364-.01.546a.91.91 0 0 1-.908.868h-.02c-.121 0-2.865-.081-4.913-1.1-.907-.454-2.249-1.978-2.239-3.795 0-1.07.494-2.543 2.572-3.875a9.15 9.15 0 0 0-5.477-1.816 9.2 9.2 0 0 0-2.592.373l2.542 3.613c.312.444.343 1.04.07 1.524l-1.856 3.178v3.21c.02.424-.171.817-.494 1.09a1.4 1.4 0 0 1-1.17.302l-3.642-.676-1.089.626c1.503 3.038 4.63 5.127 8.231 5.127.151 0 .313 0 .464-.01.464 0 .928.363.948.867a.905.905 0 0 1-.867.949c-.182 0-.363.01-.545.01zM8.678 4.886a9.18 9.18 0 0 0-4.56 10.435l.959-.555c.292-.171.645-.232.968-.161l3.298.615v-2.836c-.01-.252.05-.504.182-.716L11.3 8.62 8.678 4.876zm11.186 2.019c-1.079.605-2.138 1.483-2.148 2.603 0 1.08.928 2.009 1.23 2.16 1.03.515 2.34.737 3.218.838a9.16 9.16 0 0 0-2.3-5.611zm-2.068 17.024a.89.89 0 0 1-.837-.585l-3.197-8.427a.93.93 0 0 1 .211-.968.93.93 0 0 1 .969-.212l8.423 3.199a.89.89 0 0 1 .585.837.9.9 0 0 1-.575.848l-3.37 1.352-1.351 3.371a.92.92 0 0 1-.848.575zm-1.634-7.77 1.655 4.36.625-1.575a.9.9 0 0 1 .504-.505l1.574-.625z"/>
</svg>