<svg xmlns="http://www.w3.org/2000/svg" width="26" height="26" fill="currentColor" class="sym sym-globe" viewBox="0 0 26 26">
  <path d="M13 23C7.486 23 3 18.514 3 13S7.486 3 13 3s10 4.486 10 10-4.486 10-10 10m4.459-9.174a14.85 14.85 0 0 1-2.578 7.312c3.44-.799 6.073-3.725 6.431-7.312zm-12.762 0c.358 3.587 2.991 6.513 6.431 7.312a14.9 14.9 0 0 1-2.578-7.312zm5.505 0A13.2 13.2 0 0 0 13 20.899a13.25 13.25 0 0 0 2.798-7.073h-5.605zm7.257-1.652h3.853c-.358-3.587-2.99-6.513-6.431-7.312a14.9 14.9 0 0 1 2.578 7.312m-7.257 0h5.605a13.2 13.2 0 0 0-2.798-7.073 13.25 13.25 0 0 0-2.798 7.073zm-5.505 0H8.55a14.85 14.85 0 0 1 2.578-7.312c-3.44.799-6.073 3.725-6.43 7.312"/>
</svg>