<svg xmlns="http://www.w3.org/2000/svg" width="26" height="26" fill="currentColor" class="sym sym-globe-solid" viewBox="0 0 26 26">
  <path fill-rule="evenodd" d="M12.154 3.022c-2.047.2-3.827.912-5.436 2.179-.42.33-1.362 1.302-1.704 1.758-1.053 1.405-1.687 2.938-1.947 4.714-.09.611-.09 2.046 0 2.658.26 1.774.893 3.306 1.947 4.714.414.552 1.39 1.528 1.943 1.942 1.408 1.053 2.94 1.685 4.715 1.946.612.09 2.048.09 2.66 0 1.775-.26 3.307-.893 4.715-1.946.552-.414 1.528-1.39 1.943-1.942 1.053-1.408 1.686-2.94 1.947-4.714.047-.324.063-.667.063-1.33 0-.662-.016-1.004-.064-1.328-.26-1.776-.894-3.31-1.947-4.714-.341-.456-1.283-1.428-1.703-1.758-1.455-1.144-3.052-1.84-4.845-2.105-.577-.085-1.77-.124-2.288-.074m-1.265 2.095c0 .009-.072.129-.16.265-.94 1.469-1.682 3.357-2.025 5.16-.058.306-.22 1.43-.22 1.532 0 .009-.814.016-1.809.016H4.867l.023-.217c.074-.712.375-1.698.75-2.46a8.1 8.1 0 0 1 3.773-3.771c.59-.289 1.476-.606 1.476-.527zm4.827.153c.779.267 1.768.82 2.44 1.361a8.8 8.8 0 0 1 1.71 1.895l.02.033c.62.957 1.124 2.314 1.228 3.315l.022.218h-3.613l-.018-.118c-.01-.066-.038-.282-.06-.483a15.5 15.5 0 0 0-.598-2.75l.03.109c-.313-1.016-.952-2.416-1.51-3.316a6 6 0 0 1-.233-.386l-.02-.037c0-.03.223.029.602.159m-2.534.276c1.335 1.867 2.105 3.755 2.423 5.93.03.214.056.438.056.501v.114h-5.329l.025-.281c.056-.614.274-1.66.5-2.396.246-.806.762-1.963 1.215-2.732.278-.47.885-1.362.93-1.362.01-.001.09.1.18.226M8.498 14.03c.01.065.036.282.059.482.238 2.062 1.05 4.349 2.165 6.098l.178.282c.015.024-.1.005-.276-.05a8.3 8.3 0 0 1-4.488-3.366l-.02-.032c-.613-.944-1.122-2.317-1.226-3.315l-.023-.218H8.48zm7.163-.005c0 .17-.1.827-.205 1.343a13.2 13.2 0 0 1-1.946 4.618l.03-.048c-.286.424-.517.745-.538.744-.044 0-.652-.893-.93-1.363-.453-.768-.968-1.925-1.215-2.731-.226-.737-.443-1.782-.499-2.396l-.025-.281h5.329zm5.453.104c-.074.712-.373 1.69-.754 2.462a8.23 8.23 0 0 1-4.925 4.237l-.059.015-.303.093.065-.098c.669-1.015 1.381-2.525 1.74-3.685.265-.86.48-1.858.568-2.64.022-.2.05-.418.06-.483l.018-.118h3.613z"/>
</svg>