<svg xmlns="http://www.w3.org/2000/svg" width="26" height="26" fill="currentColor" class="sym sym-globe-slated-02-solid" viewBox="0 0 26 26">
  <path d="M17.506 4.066a.8.8 0 0 0-.496.768c0 .276.063.407.344.714 1.045 1.145 1.653 2.407 1.897 3.938.082.517.082 1.59 0 2.106-.286 1.8-1.14 3.35-2.462 4.471a7.1 7.1 0 0 1-3.404 1.596c-.621.112-1.71.112-2.332 0a7.2 7.2 0 0 1-2.955-1.24l.022.015-.304-.219.897-.91.282.193c1.247.85 2.885 1.173 4.388.865a5.92 5.92 0 0 0 4.076-3.175l.016-.034a5.9 5.9 0 0 0 .598-2.615 5.95 5.95 0 0 0-3.466-5.424L14.57 5.1c-1.201-.54-2.683-.64-3.975-.265-2.916.848-4.714 3.858-4.11 6.887.167.792.462 1.492.865 2.115l-.014-.024.19.286-1.692 1.718c-1.385 1.407-1.703 1.748-1.763 1.886a.8.8 0 0 0-.071.34c0 .465.37.842.828.842.314.001.44-.087 1.153-.807l.653-.66.217.175a9 9 0 0 0 1.83 1.106l.057.023c.922.397 1.692.589 2.873.715l.192.021v.845h-1.735c-1.881 0-1.893 0-2.134.188q-.12.105-.2.24l-.003.005c-.08.137-.093.198-.093.415s.013.278.093.415c.05.087.142.199.203.245.256.198.013.189 4.704.189 4.84 0 4.503.018 4.77-.254a.84.84 0 0 0 .246-.595.84.84 0 0 0-.246-.596c-.251-.255-.236-.254-2.198-.254h-1.734v-.936l.394-.074c2.924-.547 5.446-2.674 6.525-5.502 1.008-2.646.747-5.559-.713-7.952-.441-.723-1.18-1.606-1.463-1.749a.88.88 0 0 0-.712-.024z"/>
</svg>