<svg xmlns="http://www.w3.org/2000/svg" width="26" height="26" fill="currentColor" class="sym sym-globe-02-solid" viewBox="0 0 26 26">
  <path d="M12.83 13.185c-.253.068-.605.307-.754.514-.202.279-.632 1.04-.781 1.383-.302.695-.321 1.006-.106 1.715.066.22.195.67.286 1 .495 1.799.92 2.203 2.48 2.354.833.081 2.007-.058 2.466-.292.216-.11.625-.502.87-.836.175-.249.378-.563.57-.884l.043-.078c.23-.386.484-.802.56-.923.22-.345.295-.578.29-.922-.007-.593-.284-1.022-.848-1.314-.43-.222-3.25-1.418-3.642-1.545-.73-.235-1.05-.274-1.433-.172"/>
  <path fill-rule="evenodd" d="M12.539 2.008c-2.322.1-4.616.959-6.44 2.41a14 14 0 0 0-1.678 1.673l-.016.02c-1.026 1.286-1.812 2.926-2.156 4.495-.183.83-.249 1.473-.249 2.402 0 1.788.349 3.293 1.13 4.87.577 1.166 1.18 2.008 2.084 2.91.904.904 1.745 1.506 2.911 2.083C9.705 23.651 11.21 24 13 24s3.296-.349 4.875-1.129c1.158-.573 2.014-1.184 2.911-2.083.899-.897 1.51-1.752 2.084-2.91.781-1.577 1.13-3.082 1.13-4.87 0-1.79-.349-3.294-1.13-4.872-.577-1.166-1.18-2.007-2.084-2.91-.902-.903-1.744-1.504-2.911-2.082a10.9 10.9 0 0 0-5.359-1.135zm4.186 2.773c1.629.726 3.116 2.062 4.06 3.645a9.1 9.1 0 0 1 1.195 3.544l.004.044c.063.561.054 1.556-.019 2.103q-.405 3.09-2.585 5.267c-1.723 1.723-3.948 2.645-6.38 2.645s-4.656-.922-6.38-2.645q-2.18-2.178-2.585-5.267c-.072-.541-.082-1.615-.02-2.112.087-.717.388-1.963.474-1.963.017 0 .815.559 1.773 1.244.959.683 1.85 1.297 1.983 1.363a1.45 1.45 0 0 0 1.722-.327l.001-.002c.093-.104.394-.487.667-.853l.497-.664.282-.117c.155-.064.652-.252 1.104-.416 1.345-.488 1.984-.775 2.544-1.144 1.009-.664 1.224-1.31 1.165-3.485-.02-.792-.015-1.052.02-1.052.026 0 .24.086.478.192"/>
</svg>