<svg xmlns="http://www.w3.org/2000/svg" width="26" height="26" fill="currentColor" class="sym sym-globe-slated" viewBox="0 0 26 26">
  <path d="M11.5 22c-2.45 0-4.912-.84-6.873-2.54-.215-.183-.409-.355-.531-.638a1.45 1.45 0 0 1-.062-.83c.113-.375.307-.557.521-.78l1.277-1.265a7.07 7.07 0 0 1-1.491-4.332c0-3.918 3.217-7.096 7.16-7.096s7.16 3.188 7.16 7.095c0 3.908-3.218 7.096-7.16 7.096a7.2 7.2 0 0 1-4.372-1.478l-1.062 1.053c3.411 2.733 8.426 2.49 11.562-.607a8.48 8.48 0 0 0 2.533-6.064 8.48 8.48 0 0 0-2.533-6.063.904.904 0 0 1 0-1.285.924.924 0 0 1 1.297 0A10.28 10.28 0 0 1 22 11.615c0 2.773-1.093 5.385-3.074 7.348A10.56 10.56 0 0 1 11.49 22zm0-15.67c-2.93 0-5.32 2.37-5.32 5.274 0 2.906 2.39 5.274 5.32 5.274 2.932 0 5.322-2.369 5.322-5.274s-2.39-5.273-5.321-5.273"/>
</svg>