<svg xmlns="http://www.w3.org/2000/svg" width="26" height="26" fill="currentColor" class="sym sym-globe-slated-solid" viewBox="0 0 26 26">
  <path d="M18.134 4.02a.84.84 0 0 0-.617.712v.003c-.026.31.037.45.36.806.878.966 1.414 1.795 1.832 2.826.393.958.62 2.07.62 3.233a8.7 8.7 0 0 1-.642 3.292l.022-.06a8.84 8.84 0 0 1-8.511 5.505 8.8 8.8 0 0 1-4.379-1.319c-.34-.212-.924-.632-.924-.667 0-.011.265-.28.589-.601l.588-.582.108.08a7.2 7.2 0 0 0 4.085 1.424 7.17 7.17 0 0 0 6.366-3.423c.648-1.047 1.024-2.392 1.024-3.65-.009-2.525-1.344-4.74-3.353-5.997l-.03-.017a7.3 7.3 0 0 0-4.286-1.042c-1.758.137-3.308.84-4.537 2.056-1.425 1.41-2.167 3.273-2.093 5.25a7.06 7.06 0 0 0 1.423 4.01l.094.124-.825.825c-.649.647-.845.864-.917 1.01-.254.521-.134 1.096.316 1.509.625.573 1.517 1.17 2.37 1.588 1.126.552 2.104.848 3.37 1.021.672.092 2.086.083 2.744-.017 1.26-.192 2.16-.47 3.25-1.002a10.6 10.6 0 0 0 3.869-3.25l.021-.03c.797-1.096 1.406-2.462 1.711-3.838.175-.788.218-1.218.218-2.2 0-.98-.043-1.41-.218-2.2a10.5 10.5 0 0 0-2.145-4.401l.015.019c-.311-.38-.798-.867-.933-.935a.95.95 0 0 0-.592-.06z"/>
</svg>