<svg xmlns="http://www.w3.org/2000/svg" width="26" height="26" fill="currentColor" class="sym sym-globe-03-solid" viewBox="0 0 26 26">
  <path d="M12.06 2.024c-2.25.22-4.205 1.003-5.974 2.395-.462.363-1.497 1.432-1.872 1.933-1.158 1.544-1.854 3.23-2.14 5.181-.099.673-.099 2.25 0 2.923.286 1.95.982 3.634 2.14 5.182.455.607 1.527 1.68 2.135 2.135a10.9 10.9 0 0 0 4.99 2.108l.06.008c.761.114 2.058.15 2.356.063.92-.267.987-1.52.1-1.89-.1-.043-.306-.059-.736-.059-1.486 0-2.783-.291-4.064-.914a9.1 9.1 0 0 1-3.941-3.725l-.023-.045-.142-.26.473-.271c.26-.15.501-.27.533-.27.031 0 .876.154 1.876.343 2.02.381 2.124.39 2.555.195.296-.132.606-.445.753-.759l.111-.24.024-3.549.906-1.547c.497-.851.939-1.624.98-1.719a1.48 1.48 0 0 0-.03-1.26l.005.008c-.05-.099-.642-.964-1.316-1.921-.795-1.13-1.207-1.75-1.177-1.768.07-.037.79-.18 1.21-.24.534-.077 1.86-.066 2.422.02.993.143 1.89.433 2.712.85l-.05-.023c.506.247 1.334.744 1.297.778l-.42.316c-.797.597-1.465 1.418-1.762 2.163-.581 1.458-.195 3.147 1.012 4.43.412.438.695.647 1.19.885.796.379 1.823.662 3.268.899 1.267.207 1.884.14 2.235-.238.231-.25.264-.456.235-1.425-.071-2.374-.804-4.474-2.22-6.364-.376-.5-1.41-1.569-1.873-1.932-1.598-1.258-3.354-2.022-5.324-2.314-.635-.094-1.944-.137-2.514-.082"/>
  <path d="M14.264 13.65c-.23.088-.415.247-.536.45l-.003.004c-.09.157-.109.233-.108.47 0 .273.049.408 1.63 4.564 1.095 2.877 1.667 4.33 1.741 4.424.166.21.49.36.772.36.278 0 .592-.149.76-.36.065-.081.39-.837.782-1.821.368-.925.69-1.702.714-1.726s.8-.345 1.725-.713c.985-.393 1.74-.717 1.822-.782.211-.168.36-.482.36-.76a1.06 1.06 0 0 0-.36-.77l-.001-.002c-.096-.075-1.54-.642-4.425-1.736-4.521-1.717-4.549-1.726-4.874-1.604z"/>
</svg>