<svg xmlns="http://www.w3.org/2000/svg" width="26" height="26" fill="currentColor" class="sym sym-globe-02" viewBox="0 0 26 26">
  <path d="M13 24C6.935 24 2 19.065 2 13c0-1.756.414-3.421 1.15-4.894.02-.05.04-.091.071-.142a11.01 11.01 0 0 1 12.262-5.681c.04 0 .08.02.12.03C20.418 3.483 24 7.833 24 13c0 6.065-4.935 11-11 11M4.382 9.831A9.2 9.2 0 0 0 3.817 13c0 5.066 4.117 9.183 9.183 9.183s9.183-4.117 9.183-9.183c0-3.956-2.512-7.327-6.014-8.618l-.212 3.148c-.02.243-.03.424-.111.626-.08.192-.192.353-.343.494-.192.172-.364.243-.555.334l-3.876 1.725-.898 1.201c-.222.293-.383.505-.686.656a1.43 1.43 0 0 1-.848.131c-.323-.05-.555-.212-.837-.413L4.392 9.84zm.807-1.655 3.583 2.563.857-1.14c.081-.11.132-.171.182-.222.09-.08.151-.131.222-.182.07-.04.131-.08.252-.13l3.865-1.716.233-3.432c-.454-.07-.909-.1-1.373-.1a9.17 9.17 0 0 0-7.81 4.36zm10.405 11.787h-2.019c-.272 0-.484 0-.736-.1a1.44 1.44 0 0 1-.556-.394c-.181-.222-.252-.434-.333-.687l-.716-2.149a2.2 2.2 0 0 1-.111-.444c-.01-.141 0-.293.03-.434a1.6 1.6 0 0 1 .172-.424l.545-1.09c.131-.272.252-.504.484-.696.222-.172.474-.283.737-.313.323-.03.555.05.848.141l.847.283s.05.02.07.03l2.645 1.13c.383.162.676.293.908.596.202.272.303.605.283.928-.03.384-.212.656-.434 1l-1.241 1.856a1.8 1.8 0 0 1-.374.444 1.4 1.4 0 0 1-.484.253c-.202.06-.374.06-.575.06zm-1.938-1.816h1.887l1.14-1.716-2.492-1.07-.727-.242-.484.98.686 2.048z"/>
</svg>