<svg xmlns="http://www.w3.org/2000/svg" width="26" height="26" fill="currentColor" class="sym sym-graduation-hat-solid" viewBox="0 0 26 26">
  <path d="M12.6 4.068c-.318.108-9.16 4.775-9.31 4.913-.208.192-.29.39-.29.704 0 .306.077.497.277.694.074.074 1.933 1.076 4.797 2.586l4.676 2.467h.5l4.675-2.467c2.865-1.511 4.724-2.512 4.798-2.586.2-.197.277-.388.277-.694 0-.314-.082-.512-.29-.704-.157-.146-9.055-4.834-9.345-4.925a1.2 1.2 0 0 0-.775.014z"/>
  <path d="M5.876 14.313c-.112.119-.12.146-.145.492-.014.2-.02.907-.01 1.569.018 1.336.039 1.474.283 1.873.273.448.288.457 3.432 2.111 1.618.852 3.002 1.556 3.118 1.588.265.072.63.072.894 0 .115-.032 1.5-.737 3.116-1.587 3.13-1.646 3.154-1.663 3.419-2.096a2.6 2.6 0 0 0 .201-.442c.076-.227.083-.326.098-1.41.008-.64.003-1.346-.01-1.57-.026-.39-.031-.408-.146-.529-.225-.236-.078-.3-3.553 1.521-2.416 1.266-3.201 1.66-3.362 1.69-.412.075-.386.088-3.78-1.69-3.476-1.82-3.328-1.757-3.552-1.521z"/>
</svg>