<svg xmlns="http://www.w3.org/2000/svg" width="26" height="26" fill="currentColor" class="sym sym-graduation-hat-02-solid" viewBox="0 0 26 26">
  <path d="M12.6 4.066c-.318.106-9.16 4.646-9.31 4.78-.208.188-.29.38-.29.685 0 .299.077.484.277.675.074.072 1.935 1.048 4.796 2.517l4.673 2.4h.505l1.728-.883c.95-.486 1.778-.927 1.84-.98.251-.218.23-.53-.05-.722-.09-.06-.9-.49-1.8-.955-1.78-.918-1.798-.93-1.918-1.3-.21-.643.336-1.301.995-1.2.114.017.897.399 2.448 1.192 2.139 1.095 2.297 1.182 2.532 1.404.22.206.27.235.389.232.169-.004 3.12-1.526 3.308-1.705.2-.192.277-.377.277-.675 0-.306-.082-.498-.29-.685-.157-.142-9.055-4.703-9.345-4.791a1.24 1.24 0 0 0-.775.014z"/>
  <path d="M5.068 13.48c-.252.116-.248.076-.26 1.916-.006 1.009.004 1.78.027 1.976.073.653.47 1.197 1.02 1.466l.01.005c.964.48 6.527 3.061 6.693 3.105.258.07.626.07.884 0 .197-.052 6.115-2.807 6.745-3.14.538-.272.915-.802.978-1.428v-.008c.024-.196.034-.966.028-1.975-.014-1.854-.007-1.803-.279-1.92-.12-.051-.15-.051-.316.005-.308.103-1.048.515-1.128.63-.069.095-.077.173-.093.932-.017.756-.025.84-.096.975-.352.666-1.29.668-1.623.004a1.4 1.4 0 0 1-.104-.365v-.008c-.038-.27-.146-.395-.345-.395-.09 0-.636.261-1.957.934-1.982 1.01-2.065 1.042-2.46.971-.162-.028-1.035-.457-3.8-1.867-1.973-1.005-3.637-1.836-3.698-1.846l-.043-.002a.5.5 0 0 0-.185.038l.004-.001z"/>
</svg>