<svg xmlns="http://www.w3.org/2000/svg" width="26" height="26" fill="currentColor" class="sym sym-graduation-hat" viewBox="0 0 26 26">
  <path d="M13 21.99c-.106 0-.211 0-.317-.03-.25-.051-.432-.142-.682-.273L7.025 19.07c-.336-.182-.548-.294-.759-.506-.211-.252-.346-.465-.423-.697-.105-.323-.105-.586-.105-.99v-5.215L3.48 10.47A.92.92 0 0 1 3 9.65c0-.353.183-.656.48-.818l8.81-4.628c.134-.071.278-.152.45-.182a1.4 1.4 0 0 1 .5 0c.192.04.336.11.48.192l8.8 4.628c.288.152.48.465.48.818a.91.91 0 0 1-.48.819l-2.258 1.192v5.215c0 .404 0 .667-.096.96a2 2 0 0 1-.394.677c-.25.252-.46.374-.787.546l-4.957 2.607c-.288.151-.47.242-.701.293q-.175.03-.337.03zm-5.524-4.71s.173.082.317.162l4.948 2.598c.144.08.211.12.278.141.048-.02.115-.06.221-.121l4.976-2.617a3 3 0 0 0 .336-.193c0-.06-.01-.171-.01-.363v-4.305l-4.822 2.536a1.4 1.4 0 0 1-.451.182 1.4 1.4 0 0 1-.5 0c-.192-.04-.345-.121-.48-.192l-4.813-2.526v4.709zm-1.68-7.619 7.223 3.8 5.917-3.123s.097-.06.154-.08l1.115-.586L13 5.882l-7.205 3.79z"/>
</svg>