<svg xmlns="http://www.w3.org/2000/svg" width="26" height="26" fill="currentColor" class="sym sym-graduation-hat-02" viewBox="0 0 26 26">
  <path d="M13 21.99c-.109 0-.207 0-.316-.03-.227-.04-.405-.122-.661-.243L6.198 18.98c-.365-.172-.602-.283-.819-.506a1.9 1.9 0 0 1-.444-.697c-.109-.293-.109-.566-.109-.98v-5.78l-1.332-.678A.9.9 0 0 1 3 9.52a.91.91 0 0 1 .494-.819l8.785-4.496c.148-.071.287-.152.474-.182q.252-.045.504 0c.187.04.325.11.473.182L22.507 8.7a.9.9 0 0 1 .493.82.91.91 0 0 1-.494.819l-1.332.677v5.78c0 .404 0 .677-.099.98a1.9 1.9 0 0 1-.444.707c-.217.223-.464.334-.82.506l-5.834 2.738c-.256.121-.434.202-.671.243-.099.02-.197.03-.306.03zM6.603 11.925v5.265c.05.02.158.06.326.141l5.834 2.739c.119.05.188.09.247.111.04-.02.108-.06.227-.111l5.834-2.739c.168-.08.267-.12.346-.171 0-.051-.01-.172-.01-.354v-4.87l-.958.484v2.698c0 .506-.395.91-.888.91a.895.895 0 0 1-.889-.91V13.33l-2.942 1.505c-.157.081-.286.152-.483.182-.158.03-.326.03-.484 0a2 2 0 0 1-.484-.182l-5.676-2.9zm-.72-2.405L13 13.168l2.567-1.314-2.962-1.515a.926.926 0 0 1-.395-1.223.88.88 0 0 1 1.195-.404l4.156 2.122 2.33-1.193h.02l.226-.11-7.117-3.649L5.902 9.53z"/>
</svg>