<svg xmlns="http://www.w3.org/2000/svg" width="26" height="26" fill="currentColor" class="sym sym-grid-02" viewBox="0 0 26 26">
  <path d="M16.6 22a.906.906 0 0 1-.91-.91c0-.506.404-.91.91-.91h1.618c.779 0 1.284 0 1.476-.101a.9.9 0 0 0 .395-.385c.09-.182.09-.697.09-1.476V16.6c0-.506.405-.91.91-.91.507 0 .911.404.911.91v1.618c0 1.112 0 1.72-.283 2.296-.263.505-.678.93-1.183 1.193-.587.293-1.194.293-2.306.293zm-7.2 0H7.782c-1.112 0-1.73 0-2.306-.293a2.73 2.73 0 0 1-1.183-1.183C4 19.937 4 19.33 4 18.218V16.6c0-.506.405-.91.91-.91.506 0 .91.404.91.91v1.618c0 .779 0 1.294.091 1.486a.97.97 0 0 0 .395.385c.182.09.697.09 1.476.09H9.4c.506 0 .91.405.91.91A.906.906 0 0 1 9.4 22m3.6-3.6a.906.906 0 0 1-.91-.91v-3.58H8.51A.906.906 0 0 1 7.6 13c0-.506.404-.91.91-.91h3.58V8.51c0-.506.404-.91.91-.91s.91.404.91.91v3.58h3.58c.505 0 .91.404.91.91s-.405.91-.91.91h-3.58v3.58c0 .506-.404.91-.91.91m8.09-8.09a.906.906 0 0 1-.91-.91V7.782c0-.779 0-1.294-.091-1.487a.96.96 0 0 0-.395-.384c-.182-.09-.697-.09-1.476-.09H16.6a.906.906 0 0 1-.91-.91c0-.507.404-.911.91-.911h1.618c1.112 0 1.73 0 2.305.293.516.263.93.688 1.184 1.183C22 6.063 22 6.67 22 7.782V9.4c0 .506-.404.91-.91.91m-16.18 0A.906.906 0 0 1 4 9.4V7.782c0-1.112 0-1.72.283-2.295.263-.506.678-.93 1.183-1.194C6.053 4 6.66 4 7.772 4H9.39c.505 0 .91.404.91.91s-.405.91-.91.91H7.772c-.779 0-1.284 0-1.476.101a.9.9 0 0 0-.395.385c-.09.182-.09.697-.09 1.476V9.4c0 .506-.405.91-.911.91z"/>
</svg>