<svg xmlns="http://www.w3.org/2000/svg" width="26" height="26" fill="currentColor" class="sym sym-grid-03" viewBox="0 0 26 26">
  <path d="M16.6 22a.906.906 0 0 1-.91-.91c0-.506.404-.911.91-.911h1.618c.779 0 1.284 0 1.476-.101a.9.9 0 0 0 .395-.385c.09-.182.09-.698.09-1.477v-1.619c0-.506.405-.91.91-.91.507 0 .911.404.911.91v1.619c0 1.113 0 1.72-.283 2.297-.263.505-.678.93-1.183 1.194-.587.293-1.194.293-2.306.293zm-7.2 0H7.782c-1.112 0-1.73 0-2.306-.293a2.73 2.73 0 0 1-1.183-1.184C4 19.936 4 19.329 4 18.216v-1.619c0-.506.405-.91.91-.91.506 0 .91.404.91.91v1.619c0 .779 0 1.295.091 1.487a.97.97 0 0 0 .395.385c.182.09.697.09 1.476.09H9.4c.506 0 .91.406.91.911A.907.907 0 0 1 9.4 22m3.6-4.492a4.516 4.516 0 0 1-4.51-4.513A4.516 4.516 0 0 1 13 8.482a4.516 4.516 0 0 1 4.51 4.513A4.516 4.516 0 0 1 13 17.508m0-7.194a2.69 2.69 0 0 0-2.69 2.691 2.69 2.69 0 1 0 5.38 0A2.69 2.69 0 0 0 13 10.314m8.09 0a.907.907 0 0 1-.91-.91v-1.62c0-.779 0-1.295-.091-1.487a.96.96 0 0 0-.395-.385c-.182-.09-.697-.09-1.476-.09H16.6a.906.906 0 0 1-.91-.911c0-.506.404-.911.91-.911h1.618c1.112 0 1.73 0 2.305.293.516.263.93.688 1.184 1.184C22 6.064 22 6.671 22 7.784v1.62c0 .505-.404.91-.91.91m-16.18 0a.907.907 0 0 1-.91-.91v-1.62c0-1.113 0-1.72.283-2.297.263-.506.678-.93 1.183-1.194C6.053 4 6.66 4 7.772 4H9.39c.505 0 .91.405.91.91a.907.907 0 0 1-.91.911H7.772c-.779 0-1.284 0-1.476.101a.9.9 0 0 0-.395.385c-.09.182-.09.698-.09 1.477v1.62c0 .505-.405.91-.911.91z"/>
</svg>