<svg xmlns="http://www.w3.org/2000/svg" width="26" height="26" fill="currentColor" class="sym sym-grid-dots-left-solid" viewBox="0 0 26 26">
  <path d="M4.685 4.027a.96.96 0 0 0-.605.483l-.002.006L4 4.66v16.686l.078.145c.176.33.448.498.805.498s.63-.168.806-.498l.077-.145V4.66l-.077-.145c-.201-.375-.633-.586-1.004-.49m4.02.001a1 1 0 0 0-.439.284v.002a.87.87 0 0 0 .003 1.172c.423.47 1.161.393 1.458-.152.176-.324.163-.619-.041-.942A.9.9 0 0 0 9 4.01a1 1 0 0 0-.295.016m4.091.001c-.678.175-.916 1.005-.428 1.494a.88.88 0 0 0 1.06.145l-.005.002a.8.8 0 0 0 .416-.478l.001-.005a.9.9 0 0 0-.141-.85l.001.002c-.175-.23-.623-.384-.904-.311m4.01.02c-.516.138-.784.735-.554 1.23a.873.873 0 0 0 1.056.466l-.006.002c.366-.1.631-.43.631-.822v-.028.001a.85.85 0 0 0-.617-.845c-.223-.065-.281-.067-.51-.004m4.101-.019c-.679.175-.917 1.005-.428 1.494a.88.88 0 0 0 1.059.145l-.005.002a.8.8 0 0 0 .416-.478l.002-.005a.9.9 0 0 0-.141-.85v.002c-.175-.23-.623-.384-.904-.311m-8.311 4.14a.877.877 0 0 0-.006 1.565l.005.002a.895.895 0 0 0 1.2-.382l.003-.005c.057-.107.078-.208.078-.396s-.02-.29-.078-.397a.897.897 0 0 0-1.208-.385zm8.111 0a.877.877 0 0 0-.005 1.565l.005.002a.895.895 0 0 0 1.2-.382l.002-.005c.058-.107.078-.208.078-.396s-.02-.29-.078-.397a.897.897 0 0 0-1.208-.385l.005-.002zM8.694 12.154c-.515.139-.783.735-.553 1.23.312.669 1.283.671 1.607.002a1 1 0 0 0-.003-.773l.003.007a.93.93 0 0 0-.537-.46l-.006-.002c-.223-.066-.281-.066-.51-.004m4.101-.019c-.678.176-.916 1.005-.428 1.495a.88.88 0 0 0 1.06.145l-.005.002a.8.8 0 0 0 .416-.479l.001-.005a.9.9 0 0 0-.141-.85l.001.003c-.175-.23-.623-.385-.904-.312zm4.01.019c-.516.139-.784.735-.554 1.23a.873.873 0 0 0 1.056.466l-.006.002c.366-.1.631-.43.631-.821v-.029.002a.85.85 0 0 0-.617-.845c-.223-.066-.281-.067-.51-.005m4.101-.019c-.679.176-.917 1.005-.428 1.495a.88.88 0 0 0 1.059.145l-.005.002a.8.8 0 0 0 .416-.479l.002-.005a.9.9 0 0 0-.141-.85v.003c-.175-.23-.623-.385-.904-.312zm-8.312 4.139a.877.877 0 0 0-.006 1.566l.005.002a.894.894 0 0 0 1.2-.382l.003-.005c.057-.108.078-.208.078-.397 0-.188-.02-.29-.078-.396a.897.897 0 0 0-1.208-.386zm8.111 0a.877.877 0 0 0-.005 1.566l.005.002a.894.894 0 0 0 1.2-.382l.002-.005c.058-.108.078-.208.078-.397 0-.188-.02-.29-.078-.396a.897.897 0 0 0-1.208-.386l.005-.002zM8.694 20.263c-.515.139-.783.735-.553 1.23.312.67 1.283.671 1.607.002a1 1 0 0 0-.003-.773l.003.007a.93.93 0 0 0-.537-.46l-.006-.002c-.223-.065-.281-.066-.51-.004m4.101-.019c-.678.176-.916 1.005-.428 1.494a.88.88 0 0 0 1.06.146l-.005.002a.8.8 0 0 0 .416-.479l.001-.005a.9.9 0 0 0-.141-.85l.001.003c-.175-.23-.623-.384-.904-.311m4.01.019c-.516.139-.784.735-.554 1.23a.873.873 0 0 0 1.056.466l-.006.003c.366-.1.631-.43.631-.822v-.028.001a.85.85 0 0 0-.617-.845c-.223-.066-.281-.067-.51-.005m4.101-.019c-.679.176-.917 1.005-.428 1.494a.88.88 0 0 0 1.059.146l-.005.002a.8.8 0 0 0 .416-.479l.002-.005a.9.9 0 0 0-.141-.85v.003c-.175-.23-.623-.384-.904-.311"/>
</svg>