<svg xmlns="http://www.w3.org/2000/svg" width="26" height="26" fill="currentColor" class="sym sym-grid-dots-outer-solid" viewBox="0 0 26 26">
  <path d="M12.6 8.162a.877.877 0 0 0-.005 1.564l.004.002a.895.895 0 0 0 1.2-.382l.002-.005c.057-.107.078-.208.078-.396s-.02-.289-.078-.396a.896.896 0 0 0-1.207-.385l.005-.002m-3.886 3.966a.97.97 0 0 0-.438.285l-.001.001a.87.87 0 0 0 .003 1.172c.423.47 1.161.393 1.457-.152.177-.324.163-.619-.04-.942-.135-.21-.405-.362-.686-.38-.113-.007-.246 0-.295.016m4.088.002c-.678.175-.915 1.004-.427 1.493a.88.88 0 0 0 1.058.145l-.005.002a.8.8 0 0 0 .416-.478l.001-.005a.9.9 0 0 0-.141-.849l.002.002c-.176-.23-.624-.384-.905-.312zm4.006.018c-.515.139-.783.735-.553 1.23a.873.873 0 0 0 1.055.466l-.006.002c.366-.1.631-.43.631-.821v-.029.002a.85.85 0 0 0-.617-.845c-.222-.066-.281-.067-.51-.005M12.6 16.267a.877.877 0 0 0-.005 1.564l.004.002a.893.893 0 0 0 1.2-.382l.002-.005c.057-.107.078-.208.078-.396s-.02-.289-.078-.396a.896.896 0 0 0-1.207-.385l.005-.002"/>
  <path fill-rule="evenodd" d="M7.687 4.029c-.963.046-1.499.196-2.076.583-.72.481-1.247 1.199-1.435 1.957-.154.618-.155.676-.171 5.844-.016 5.097.003 6.186.118 6.781.17.885.712 1.677 1.507 2.2.598.395 1.068.52 2.146.574.867.043 9.578.043 10.446 0 1.079-.054 1.548-.18 2.146-.573.79-.521 1.339-1.321 1.507-2.2.105-.547.125-1.562.125-6.197s-.02-5.65-.125-6.196c-.168-.88-.717-1.68-1.507-2.2-.598-.394-1.068-.52-2.146-.573-.77-.039-9.728-.039-10.535 0m11.22 1.84c.302.083.552.235.786.48.249.259.376.493.443.814.072.344.072 11.325 0 11.67-.067.321-.194.555-.444.815a1.6 1.6 0 0 1-.847.486l-.011.002c-.346.071-11.324.071-11.67 0a1.6 1.6 0 0 1-.856-.487l-.002-.001c-.25-.26-.377-.494-.443-.815-.072-.344-.072-11.326 0-11.67.067-.322.194-.555.443-.815.32-.332.605-.463 1.164-.532.06-.007 2.613-.01 5.674-.008 4.872.005 5.59.013 5.763.06"/>
</svg>