<svg xmlns="http://www.w3.org/2000/svg" width="26" height="26" fill="currentColor" class="sym sym-grid" viewBox="0 0 26 26">
  <path d="M9.764 12.11H6.346c-.607 0-.97 0-1.355-.202a1.77 1.77 0 0 1-.799-.81C4 10.736 4 10.352 4 9.755V6.336c0-.587 0-.981.202-1.365.152-.314.435-.607.8-.779C5.374 4 5.748 4 6.345 4h3.418c.587 0 .98 0 1.365.202a1.9 1.9 0 0 1 .779.769c.202.414.202.778.202 1.375v3.418c0 .597 0 .96-.182 1.335a1.9 1.9 0 0 1-.789.809c-.404.202-.788.202-1.375.202M6.346 5.82c-.243 0-.495 0-.576.02.05 0 .05.263.05.516v3.418c0 .243 0 .506.02.577 0-.051.263-.051.506-.051h3.934V5.851H6.346zm13.308 6.29h-3.418c-.587 0-.98 0-1.365-.202a1.9 1.9 0 0 1-.779-.769c-.202-.414-.202-.778-.202-1.375V6.346c0-.597 0-.96.182-1.335.192-.364.465-.637.789-.809C15.265 4 15.649 4 16.236 4h3.418c.607 0 .97 0 1.355.202.344.172.637.465.799.81.192.363.192.748.192 1.344v3.418c0 .587 0 .981-.202 1.365a1.77 1.77 0 0 1-.8.79c-.373.191-.748.191-1.344.191zm-3.934-1.83h3.934c.243 0 .495 0 .576-.02-.05 0-.05-.263-.05-.516V6.326c0-.243 0-.506-.02-.577 0 .051-.263.051-.506.051H15.72zM19.654 22h-3.418c-.587 0-.98 0-1.365-.203a1.9 1.9 0 0 1-.779-.768c-.202-.415-.202-.779-.202-1.375v-3.418c0-.597 0-.96.182-1.335.192-.364.465-.637.789-.81.404-.201.788-.201 1.375-.201h3.418c.607 0 .97 0 1.355.202.344.172.637.465.799.809.192.364.192.748.192 1.345v3.418c0 .586 0 .98-.202 1.365a1.7 1.7 0 0 1-.8.779c-.373.192-.748.192-1.344.192m-3.934-1.83h3.934c.243 0 .495 0 .576-.02-.05 0-.05-.264-.05-.516v-3.419c0-.242 0-.505-.02-.576 0 .05-.263.05-.506.05H15.72v4.48M9.764 22H6.346c-.607 0-.97 0-1.355-.202a1.77 1.77 0 0 1-.799-.81C4 20.626 4 20.242 4 19.645v-3.418c0-.587 0-.981.202-1.365.152-.314.435-.607.8-.79.373-.191.747-.191 1.344-.191h3.418c.587 0 .98 0 1.365.202.334.182.607.445.779.769.202.414.202.778.202 1.375v3.418c0 .597 0 .96-.182 1.335a1.9 1.9 0 0 1-.789.809c-.404.202-.788.202-1.375.202zm-3.418-6.29c-.243 0-.495 0-.576.02.05 0 .05.263.05.516v3.418c0 .243 0 .506.02.576 0-.05.263-.05.506-.05h3.934v-4.45H6.346z"/>
</svg>