<svg xmlns="http://www.w3.org/2000/svg" width="26" height="26" fill="currentColor" class="sym sym-grid-dots-blank-solid" viewBox="0 0 26 26">
  <path d="M4.583 4.049a.93.93 0 0 0-.478.402l-.002.004c-.085.145-.1.21-.1.44s.015.295.1.44a.9.9 0 0 0 .873.451c.91-.094 1.115-1.283.295-1.708-.156-.08-.514-.095-.688-.03m4.113-.002c-.516.138-.784.735-.553 1.23.311.669 1.282.67 1.606.002a1 1 0 0 0-.003-.773l.003.007a.93.93 0 0 0-.536-.46l-.007-.002c-.222-.066-.281-.066-.51-.004m4.101-.019c-.678.176-.916 1.005-.427 1.494a.88.88 0 0 0 1.058.146l-.004.002a.8.8 0 0 0 .416-.479l.001-.005a.9.9 0 0 0-.141-.85l.001.003c-.175-.23-.623-.385-.904-.312zm4.009.019c-.515.138-.784.735-.553 1.23a.873.873 0 0 0 1.056.466l-.006.002c.366-.1.63-.43.63-.821v-.029.002a.85.85 0 0 0-.617-.845c-.222-.066-.28-.067-.51-.005m4.101-.019c-.679.176-.916 1.005-.428 1.494a.88.88 0 0 0 1.059.146l-.005.002a.8.8 0 0 0 .416-.479l.002-.005a.9.9 0 0 0-.141-.85v.003c-.175-.23-.623-.385-.904-.312zM4.486 8.166a.877.877 0 0 0-.005 1.566l.005.002a.895.895 0 0 0 1.2-.382l.003-.006c.057-.107.077-.208.077-.396s-.02-.29-.077-.397a.897.897 0 0 0-1.209-.385zm8.11 0a.877.877 0 0 0-.005 1.566l.004.002a.895.895 0 0 0 1.2-.382l.003-.006c.057-.107.078-.208.078-.396s-.02-.29-.078-.397a.897.897 0 0 0-1.208-.385l.005-.002m8.11 0a.877.877 0 0 0-.005 1.566l.005.002a.895.895 0 0 0 1.2-.382l.002-.006c.058-.107.078-.208.078-.396s-.02-.29-.078-.397a.896.896 0 0 0-1.208-.385zM4.687 12.135c-.678.176-.916 1.005-.428 1.495a.88.88 0 0 0 1.059.145l-.005.002a.8.8 0 0 0 .416-.478l.001-.006a.9.9 0 0 0-.141-.85l.002.003c-.176-.23-.624-.384-.905-.311zm4.009.019c-.516.139-.784.735-.553 1.23.311.67 1.282.671 1.606.002a1 1 0 0 0-.003-.773l.003.007a.93.93 0 0 0-.536-.46l-.007-.002c-.222-.065-.281-.066-.51-.004m4.101-.019c-.678.176-.916 1.005-.427 1.495a.88.88 0 0 0 1.058.145l-.004.002a.8.8 0 0 0 .416-.478l.001-.006a.9.9 0 0 0-.141-.85l.001.003c-.175-.23-.623-.384-.904-.311m4.009.019c-.515.139-.784.735-.553 1.23a.873.873 0 0 0 1.056.466l-.006.002c.366-.1.63-.43.63-.821v-.028.001a.85.85 0 0 0-.617-.845c-.222-.066-.28-.067-.51-.005m4.101-.019c-.679.176-.916 1.005-.428 1.495a.88.88 0 0 0 1.059.145l-.005.002a.8.8 0 0 0 .416-.478l.002-.006a.9.9 0 0 0-.141-.85v.003c-.175-.23-.623-.384-.904-.311m-16.42 4.14a.877.877 0 0 0-.005 1.565l.005.002a.894.894 0 0 0 1.2-.382l.003-.005c.057-.108.077-.208.077-.397 0-.188-.02-.289-.077-.396a.897.897 0 0 0-1.209-.386zm8.11 0a.877.877 0 0 0-.005 1.565l.004.002a.894.894 0 0 0 1.2-.382l.003-.005c.057-.108.078-.208.078-.397 0-.188-.02-.289-.078-.396a.897.897 0 0 0-1.208-.386l.005-.002m8.11.001a.877.877 0 0 0-.005 1.565l.005.002a.894.894 0 0 0 1.2-.382l.002-.005c.058-.108.078-.208.078-.397 0-.188-.02-.289-.078-.396a.896.896 0 0 0-1.208-.386zM4.687 20.244c-.678.176-.916 1.005-.428 1.495a.88.88 0 0 0 1.059.145l-.005.002a.8.8 0 0 0 .416-.479l.001-.005a.9.9 0 0 0-.141-.85l.002.003c-.176-.23-.624-.384-.905-.311zm4.009.019c-.516.139-.784.735-.553 1.23.311.67 1.282.671 1.606.002a1 1 0 0 0-.003-.773l.003.007a.93.93 0 0 0-.536-.46l-.007-.002c-.222-.065-.281-.066-.51-.004m4.101-.019c-.678.176-.916 1.005-.427 1.495a.88.88 0 0 0 1.058.145l-.004.002a.8.8 0 0 0 .416-.479l.001-.005a.9.9 0 0 0-.141-.85l.001.003c-.175-.23-.623-.384-.904-.311m4.009.019c-.515.139-.784.735-.553 1.23a.873.873 0 0 0 1.056.466l-.006.003c.366-.1.63-.43.63-.822v-.028.001a.85.85 0 0 0-.617-.845c-.222-.066-.28-.067-.51-.005m4.101-.019c-.679.176-.916 1.005-.428 1.495a.88.88 0 0 0 1.059.145l-.005.002a.8.8 0 0 0 .416-.479l.002-.005a.9.9 0 0 0-.141-.85v.003c-.175-.23-.623-.384-.904-.311"/>
</svg>