<svg xmlns="http://www.w3.org/2000/svg" width="26" height="26" fill="currentColor" class="sym sym-grid-dots-bottom" viewBox="0 0 26 26">
  <path d="M21.09 22H4.91a.906.906 0 0 1-.91-.91c0-.506.404-.91.91-.91h16.18c.506 0 .91.404.91.91s-.404.91-.91.91m0-4.045a.906.906 0 0 1-.91-.91c0-.506.404-.91.91-.91s.91.404.91.91-.404.91-.91.91m-8.09 0a.906.906 0 0 1-.91-.91c0-.506.404-.91.91-.91s.91.404.91.91-.404.91-.91.91m-8.09 0a.906.906 0 0 1-.91-.91c0-.506.404-.91.91-.91s.91.404.91.91-.404.91-.91.91m16.18-4.045a.906.906 0 0 1-.91-.91c0-.506.404-.91.91-.91s.91.404.91.91-.404.91-.91.91m-4.045 0a.906.906 0 0 1-.91-.91c0-.506.404-.91.91-.91s.91.404.91.91-.404.91-.91.91m-4.045 0a.906.906 0 0 1-.91-.91c0-.506.404-.91.91-.91s.91.404.91.91-.404.91-.91.91m-4.045 0a.906.906 0 0 1-.91-.91c0-.506.404-.91.91-.91s.91.404.91.91-.404.91-.91.91m-4.045 0A.906.906 0 0 1 4 13c0-.506.404-.91.91-.91s.91.404.91.91-.404.91-.91.91m16.18-4.045a.906.906 0 0 1-.91-.91c0-.506.404-.91.91-.91s.91.404.91.91-.404.91-.91.91m-8.09 0a.906.906 0 0 1-.91-.91c0-.506.404-.91.91-.91s.91.404.91.91-.404.91-.91.91m-8.09 0a.906.906 0 0 1-.91-.91c0-.506.404-.91.91-.91s.91.404.91.91-.404.91-.91.91M21.09 5.82a.906.906 0 0 1-.91-.91c0-.506.404-.91.91-.91s.91.404.91.91-.404.91-.91.91m-4.045 0a.906.906 0 0 1-.91-.91c0-.506.404-.91.91-.91s.91.404.91.91-.404.91-.91.91M13 5.82a.906.906 0 0 1-.91-.91c0-.506.404-.91.91-.91s.91.404.91.91-.404.91-.91.91m-4.045 0a.906.906 0 0 1-.91-.91c0-.506.404-.91.91-.91s.91.404.91.91-.404.91-.91.91m-4.045 0A.906.906 0 0 1 4 4.91c0-.506.404-.91.91-.91s.91.404.91.91-.404.91-.91.91"/>
</svg>