<svg xmlns="http://www.w3.org/2000/svg" width="26" height="26" fill="currentColor" class="sym sym-grid-dots-right-solid" viewBox="0 0 26 26">
  <path d="M4.688 4.027c-.68.175-.917 1.005-.428 1.494a.88.88 0 0 0 1.058.145l-.004.002a.8.8 0 0 0 .416-.478l.002-.005a.9.9 0 0 0-.141-.85v.002c-.175-.23-.623-.384-.905-.311zm4.022-.001a1 1 0 0 0-.44.284v.002a.87.87 0 0 0 .003 1.172.894.894 0 0 0 1.46-.152c.176-.324.162-.619-.042-.942-.135-.211-.405-.362-.686-.38a1 1 0 0 0-.296.016m4.094.001c-.679.175-.917 1.005-.428 1.494a.88.88 0 0 0 1.06.145l-.005.002a.8.8 0 0 0 .417-.478v-.005a.9.9 0 0 0-.141-.85l.002.002c-.176-.23-.624-.384-.905-.311m4.012.02c-.516.138-.785.735-.554 1.23a.874.874 0 0 0 1.057.466l-.006.002c.366-.1.631-.43.631-.822v-.028.001a.85.85 0 0 0-.618-.845c-.222-.065-.281-.067-.51-.004m4.103-.019a.96.96 0 0 0-.605.483l-.003.006-.077.145v16.686l.077.145c.177.33.45.498.806.498s.63-.168.806-.498l.078-.145V4.66l-.078-.145c-.2-.375-.633-.586-1.004-.49M4.487 8.166a.877.877 0 0 0-.006 1.565l.005.002a.896.896 0 0 0 1.201-.382l.003-.005c.057-.107.077-.208.077-.396s-.02-.29-.077-.397a.897.897 0 0 0-1.21-.385l.005-.002zm8.115 0a.877.877 0 0 0-.006 1.565l.005.002a.896.896 0 0 0 1.201-.382l.003-.005c.057-.107.077-.208.077-.396s-.02-.29-.077-.397a.897.897 0 0 0-1.21-.385l.005-.002zm-7.914 3.969c-.68.176-.917 1.005-.428 1.495a.88.88 0 0 0 1.058.145l-.004.002a.8.8 0 0 0 .416-.479l.002-.005a.9.9 0 0 0-.141-.85v.003c-.175-.23-.623-.385-.905-.312zm4.012.019c-.517.139-.785.735-.555 1.23.312.669 1.284.671 1.608.002a1 1 0 0 0-.003-.773l.003.007a.93.93 0 0 0-.537-.46l-.006-.002c-.223-.066-.282-.066-.51-.004m4.103-.019c-.679.176-.917 1.005-.428 1.495a.88.88 0 0 0 1.06.145l-.005.002a.8.8 0 0 0 .417-.479v-.005a.9.9 0 0 0-.141-.85l.002.003c-.176-.23-.624-.385-.905-.312zm4.012.019c-.516.139-.785.735-.554 1.23a.874.874 0 0 0 1.057.466l-.006.002c.366-.1.631-.43.631-.821v-.029.002a.85.85 0 0 0-.618-.845c-.222-.066-.281-.067-.51-.005m-12.328 4.12a.877.877 0 0 0-.006 1.566l.005.002a.895.895 0 0 0 1.201-.382l.003-.005c.057-.108.077-.208.077-.397 0-.188-.02-.29-.077-.396a.897.897 0 0 0-1.21-.386l.005-.002zm8.115 0a.877.877 0 0 0-.006 1.566l.005.002a.895.895 0 0 0 1.201-.382l.003-.005c.057-.108.077-.208.077-.397 0-.188-.02-.29-.077-.396a.897.897 0 0 0-1.21-.386l.005-.002zm-7.914 3.97c-.68.176-.917 1.005-.428 1.494a.88.88 0 0 0 1.058.146l-.004.002a.8.8 0 0 0 .416-.479l.002-.005a.9.9 0 0 0-.141-.85v.003c-.175-.23-.623-.384-.905-.311zm4.012.019c-.517.139-.785.735-.555 1.23.312.67 1.284.671 1.608.002a1 1 0 0 0-.003-.773l.003.007a.93.93 0 0 0-.537-.46l-.006-.002c-.223-.065-.282-.066-.51-.004m4.103-.019c-.679.176-.917 1.005-.428 1.494a.88.88 0 0 0 1.06.146l-.005.002a.8.8 0 0 0 .417-.479v-.005a.9.9 0 0 0-.141-.85l.002.003c-.176-.23-.624-.384-.905-.311m4.012.019c-.516.139-.785.735-.554 1.23a.874.874 0 0 0 1.057.466l-.006.003c.366-.1.631-.43.631-.822v-.028.001a.85.85 0 0 0-.618-.845c-.222-.066-.281-.067-.51-.005"/>
</svg>