<svg xmlns="http://www.w3.org/2000/svg" width="26" height="26" fill="currentColor" class="sym sym-grid-dots-left" viewBox="0 0 26 26">
  <path d="M21.09 22a.906.906 0 0 1-.91-.91c0-.506.405-.91.91-.91.506 0 .91.404.91.91s-.404.91-.91.91m-4.042 0a.906.906 0 0 1-.91-.91c0-.506.404-.91.91-.91.505 0 .91.404.91.91s-.405.91-.91.91m-4.043 0a.906.906 0 0 1-.91-.91c0-.506.405-.91.91-.91s.91.404.91.91-.405.91-.91.91m-4.043 0a.906.906 0 0 1-.91-.91c0-.506.405-.91.91-.91.506 0 .91.404.91.91s-.404.91-.91.91M4.91 22a.906.906 0 0 1-.91-.91V4.91c0-.506.404-.91.91-.91.505 0 .91.404.91.91v16.18c0 .506-.405.91-.91.91m16.18-4.045a.906.906 0 0 1-.91-.91c0-.506.405-.91.91-.91.506 0 .91.404.91.91s-.404.91-.91.91m-8.085 0a.906.906 0 0 1-.91-.91c0-.506.405-.91.91-.91s.91.404.91.91-.405.91-.91.91m8.085-4.045a.906.906 0 0 1-.91-.91c0-.506.405-.91.91-.91.506 0 .91.404.91.91s-.404.91-.91.91m-4.042 0a.906.906 0 0 1-.91-.91c0-.506.404-.91.91-.91.505 0 .91.404.91.91s-.405.91-.91.91m-4.043 0a.906.906 0 0 1-.91-.91c0-.506.405-.91.91-.91s.91.404.91.91-.405.91-.91.91m-4.043 0a.906.906 0 0 1-.91-.91c0-.506.405-.91.91-.91.506 0 .91.404.91.91s-.404.91-.91.91M21.09 9.865a.906.906 0 0 1-.91-.91c0-.506.405-.91.91-.91.506 0 .91.404.91.91s-.404.91-.91.91m-8.085 0a.906.906 0 0 1-.91-.91c0-.506.405-.91.91-.91s.91.404.91.91-.405.91-.91.91M21.09 5.82a.906.906 0 0 1-.91-.91c0-.506.405-.91.91-.91.506 0 .91.404.91.91s-.404.91-.91.91m-4.042 0a.906.906 0 0 1-.91-.91c0-.506.404-.91.91-.91.505 0 .91.404.91.91s-.405.91-.91.91m-4.043 0a.906.906 0 0 1-.91-.91c0-.506.405-.91.91-.91s.91.404.91.91-.405.91-.91.91m-4.043 0a.906.906 0 0 1-.91-.91c0-.506.405-.91.91-.91.506 0 .91.404.91.91s-.404.91-.91.91"/>
</svg>