<svg xmlns="http://www.w3.org/2000/svg" width="26" height="26" fill="currentColor" class="sym sym-grid-03-solid" viewBox="0 0 26 26">
  <path d="M6.61 4.028c-.636.043-.969.14-1.375.4-.451.289-.866.787-1.042 1.25-.168.447-.187.68-.191 2.37-.005 1.559-.003 1.59.072 1.732.177.33.45.498.806.498s.629-.168.805-.498c.075-.14.079-.195.096-1.75.016-1.475.023-1.614.085-1.73a1 1 0 0 1 .401-.41c.14-.074.191-.077 1.748-.094 1.554-.017 1.608-.021 1.749-.096.33-.176.498-.449.498-.805s-.169-.63-.498-.806c-.14-.075-.189-.078-1.443-.082l-.338-.001q-.726 0-1.443.027l.069-.002zm9.681.017a.9.9 0 0 0-.586.742v.004a.88.88 0 0 0 .47.89l.003.002.18.092 1.568.022c1.08.016 1.613.035 1.708.066.178.056.438.316.494.494.03.096.051.635.066 1.726l.022 1.586.1.17a.896.896 0 0 0 1.414.192c.263-.263.27-.31.27-1.884 0-1.498-.03-1.93-.165-2.357-.208-.657-.838-1.325-1.497-1.586-.43-.17-.605-.186-2.302-.2-1.354-.01-1.626-.004-1.745.041M12.56 9.44a3.7 3.7 0 0 0-1.837.777l.007-.006a3.61 3.61 0 0 0-1.306 3.168l-.002-.016c.054.485.15.819.36 1.247.957 1.94 3.412 2.58 5.234 1.364 1.066-.713 1.683-2.043 1.542-3.326a3.4 3.4 0 0 0-.37-1.266l.01.019c-.54-1.095-1.59-1.824-2.83-1.964a2.6 2.6 0 0 0-.81.003zm-7.878 6.303a.96.96 0 0 0-.605.484l-.003.005c-.075.143-.077.173-.072 1.732.004 1.692.023 1.923.193 2.373.23.611.859 1.238 1.473 1.47.443.168.678.187 2.366.192 1.558.004 1.588.002 1.731-.073.33-.177.498-.45.498-.806s-.168-.63-.498-.806c-.14-.075-.195-.079-1.749-.095-1.475-.017-1.613-.024-1.73-.086a1 1 0 0 1-.406-.396l-.003-.005c-.075-.14-.078-.191-.095-1.749-.017-1.555-.021-1.609-.095-1.75-.201-.375-.634-.585-1.004-.489zm16.219 0a.96.96 0 0 0-.604.484l-.003.005c-.075.14-.078.195-.095 1.75-.017 1.557-.021 1.609-.096 1.749a1 1 0 0 1-.404.398l-.005.003c-.116.062-.255.07-1.73.086-1.554.017-1.608.02-1.748.095-.33.177-.498.45-.498.806s.168.63.498.806c.142.075.173.078 1.73.073 1.688-.005 1.924-.024 2.367-.192.615-.232 1.242-.859 1.472-1.47.17-.45.19-.68.194-2.372.005-1.56.003-1.59-.073-1.732-.2-.376-.634-.586-1.004-.49"/>
</svg>