<svg xmlns="http://www.w3.org/2000/svg" width="26" height="26" fill="currentColor" class="sym sym-grid-solid" viewBox="0 0 26 26">
  <path d="M5.523 4.024A1.755 1.755 0 0 0 4.06 5.402l-.002.011c-.079.371-.079 4.892 0 5.263.078.368.214.617.483.887.27.27.519.405.886.483.371.08 4.887.08 5.258 0 .367-.078.617-.214.886-.483.27-.27.405-.52.483-.887.08-.371.08-4.892 0-5.263-.133-.63-.546-1.097-1.174-1.324l-.23-.083L8.183 4c-1.357-.002-2.554.008-2.66.024m10.007.001a1.7 1.7 0 0 0-.777.257 1.78 1.78 0 0 0-.775 1.095c-.038.17-.049.743-.049 2.686 0 2.716-.002 2.69.225 3.116.126.235.444.553.68.68.426.227.396.225 3.13.225s2.706.002 3.132-.225c.235-.127.553-.444.68-.68.226-.427.224-.397.224-3.134s.002-2.707-.225-3.134a2 2 0 0 0-.683-.68l-.01-.005c-.396-.213-.383-.212-2.936-.222-1.288-.005-2.465.005-2.614.021zm-9.907 9.917c-.33.037-.512.097-.777.256a1.78 1.78 0 0 0-.775 1.095c-.071.316-.071 5.021 0 5.337a1.78 1.78 0 0 0 1.257 1.303l.012.003c.21.059.452.064 2.717.064 2.734 0 2.705.002 3.13-.225a2 2 0 0 0 .68-.68c.227-.427.225-.397.225-3.134 0-2.267-.005-2.509-.064-2.719a1.76 1.76 0 0 0-1.223-1.25l-.012-.003c-.191-.054-.463-.062-2.555-.07-1.288-.004-2.465.006-2.615.022m9.907.001a1.7 1.7 0 0 0-.777.256 1.78 1.78 0 0 0-.775 1.095c-.071.316-.071 5.021 0 5.337a1.78 1.78 0 0 0 1.257 1.303l.013.003c.21.059.45.064 2.716.064 2.735 0 2.705.002 3.131-.225.235-.127.553-.444.68-.68.226-.427.224-.397.224-3.134s.002-2.707-.225-3.134a2 2 0 0 0-.683-.68l-.009-.006c-.396-.213-.384-.212-2.937-.222-1.288-.005-2.464.006-2.614.022"/>
</svg>