<svg xmlns="http://www.w3.org/2000/svg" width="26" height="26" fill="currentColor" class="sym sym-hand-solid" viewBox="0 0 26 26">
  <path fill-rule="evenodd" d="m12.724 4.008-.236.051a2 2 0 0 0-.409.148l.014-.006c-.372.179-.624.404-.908.812-.037.054-.05.053-.244-.01a2.4 2.4 0 0 0-1.072-.05 2.16 2.16 0 0 0-1.461 1.165l-.006.013c-.22.47-.217.428-.23 2.469l-.012 1.84-.116-.028c-.215-.052-.705-.034-.967.035-.755.2-1.358.852-1.537 1.658-.033.148-.042.514-.04 1.538.003 1.202.01 1.393.07 1.805a8.7 8.7 0 0 0 .431 1.673c.861 2.287 2.793 4.044 5.112 4.65.697.182 1.08.229 1.88.229s1.183-.047 1.88-.229c2.833-.74 5.01-3.153 5.506-6.104.109-.65.13-1.33.118-3.826-.011-2.137-.017-2.379-.068-2.556-.227-.794-.797-1.379-1.538-1.578a2.7 2.7 0 0 0-.899-.036l-.16.025-.02-.467c-.021-.53-.069-.76-.228-1.097a2.16 2.16 0 0 0-1.453-1.174l-.014-.003a2.4 2.4 0 0 0-1.072.05c-.194.063-.208.064-.245.01-.35-.506-.744-.803-1.246-.945-.17-.049-.715-.088-.829-.061zm.52 1.694q.12.066.203.166h.001c.064.092.064.128.08 3.245.016 3.11.017 3.154.083 3.3a.96.96 0 0 0 .37.418c.139.077.566.077.705 0a.97.97 0 0 0 .37-.418c.065-.145.067-.197.083-2.835.012-2.08.024-2.704.056-2.76a.7.7 0 0 1 .153-.163h.002c.1-.08.144-.092.325-.092s.226.012.326.091q.09.069.154.162v.002c.032.056.045.68.057 2.76.016 2.639.017 2.69.082 2.836a.96.96 0 0 0 .371.418c.138.077.566.077.704 0a.97.97 0 0 0 .371-.418c.064-.14.067-.217.083-1.475.014-1.223.02-1.335.074-1.417.215-.33.733-.317.936.023.065.11.065.118.055 2.874l-.012 2.764-.082.382c-.27 1.234-.805 2.227-1.67 3.095a5.826 5.826 0 0 1-8.26 0c-.866-.87-1.406-1.87-1.67-3.095-.079-.371-.082-.42-.094-1.776l-.013-1.393.074-.113c.12-.185.258-.263.466-.263a.51.51 0 0 1 .455.24c.064.09.067.138.082 1.426.016 1.318.017 1.334.09 1.488a.77.77 0 0 0 .715.462c.32 0 .592-.183.733-.495.052-.113.056-.406.071-4.186.013-3.19.024-4.08.056-4.137a.7.7 0 0 1 .153-.162l.002-.001c.1-.08.144-.092.326-.092.181 0 .225.012.326.092q.09.07.153.161l.001.003c.032.056.045.68.057 2.76.016 2.639.017 2.69.082 2.835a.96.96 0 0 0 .37.419c.139.076.566.076.705 0a.97.97 0 0 0 .37-.419c.066-.145.067-.19.083-3.3.016-3.117.016-3.153.08-3.245a.7.7 0 0 1 .457-.24.7.7 0 0 1 .255.076z"/>
</svg>