<svg xmlns="http://www.w3.org/2000/svg" width="26" height="26" fill="currentColor" class="sym sym-hand" viewBox="0 0 26 26">
  <path d="M13 21.9c-4.25 0-7.7-3.39-7.7-7.57v-1.78c0-1.23 1.01-2.23 2.26-2.23.16 0 .31.02.46.05V7.22c0-1.23 1.01-2.23 2.26-2.23q.435 0 .81.15A2.28 2.28 0 0 1 13 4.1c.8 0 1.51.41 1.91 1.04.25-.1.53-.15.81-.15 1.25 0 2.26 1 2.26 2.23v.48c.15-.03.3-.05.46-.05 1.25 0 2.26 1 2.26 2.23v4.44c0 4.17-3.45 7.57-7.7 7.57zm-5.44-9.78c-.25 0-.46.19-.46.43v1.78c0 3.18 2.65 5.77 5.9 5.77s5.9-2.59 5.9-5.77V9.89c0-.24-.21-.43-.46-.43s-.46.19-.46.43v2.22c0 .5-.4.9-.9.9s-.9-.4-.9-.9V7.22c0-.24-.21-.43-.46-.43s-.46.19-.46.43v4.89c0 .5-.4.9-.9.9s-.9-.4-.9-.9V6.33c0-.24-.21-.43-.46-.43s-.46.19-.46.43v5.78c0 .5-.4.9-.9.9s-.9-.4-.9-.9V7.22c0-.24-.21-.43-.46-.43s-.46.19-.46.43v7.56c0 .5-.4.9-.9.9s-.9-.4-.9-.9v-2.22c0-.24-.21-.43-.46-.43z"/>
</svg>