<svg xmlns="http://www.w3.org/2000/svg" width="26" height="26" fill="currentColor" class="sym sym-hard-drive-solid" viewBox="0 0 26 26">
  <path d="M9.251 5.533a3.15 3.15 0 0 0-2.33 1.418l-.007.012c-.154.234-1.86 3.607-2.236 4.419-.181.39-.14.622.128.739.157.067 16.23.067 16.388 0 .244-.105.303-.304.182-.609-.158-.397-2.11-4.273-2.29-4.549-.553-.844-1.373-1.334-2.39-1.431-.449-.043-7-.043-7.445.001"/>
  <path fill-rule="evenodd" d="M4.717 13.866a.75.75 0 0 0-.634.467c-.06.135-.068.233-.08.984-.016.992.035 2.19.108 2.585.154.815.641 1.542 1.36 2.032.535.365.981.486 1.963.535.79.041 10.343.041 11.132 0 .98-.049 1.408-.165 1.951-.53a3.18 3.18 0 0 0 1.36-1.985c.083-.407.137-1.586.12-2.637-.012-.751-.02-.849-.08-.984a.8.8 0 0 0-.4-.411l-.005-.002-.147-.07-8.235-.004c-4.529-.003-8.315.006-8.413.02m6.973 1.703c.199.092.32.215.413.415a.8.8 0 0 1 .078.353c0 .339-.2.63-.486.76l-.005.002c-.142.065-.207.067-1.964.068H7.908l-.164-.079a.82.82 0 0 1-.473-.743v-.012c0-.332.174-.61.473-.754l.164-.078h1.818c1.757 0 1.822.003 1.964.068"/>
</svg>