<svg xmlns="http://www.w3.org/2000/svg" width="26" height="26" fill="currentColor" class="sym sym-hard-drive" viewBox="0 0 26 26">
  <path d="M17.155 20.3h-8.32c-1.44 0-2.24 0-2.94-.36-.62-.32-1.13-.83-1.44-1.44-.36-.71-.36-1.5-.36-2.94v-1.65c0-.39 0-.59.03-.78.03-.23.08-.43.16-.63.06-.21.16-.41.33-.73l1.72-3.45c.4-.81.64-1.28 1.03-1.67.38-.36.8-.62 1.25-.77.52-.18 1.03-.18 1.96-.18h4.86c.93 0 1.44 0 1.96.18.45.15.86.41 1.23.75.4.41.65.88 1.05 1.69l1.73 3.46c.16.3.26.51.33.74.06.17.11.37.14.58.02.21.03.41.03.8v1.65c0 1.44 0 2.23-.36 2.94-.31.62-.83 1.13-1.44 1.44-.7.36-1.5.36-2.94.36zm-11.26-6.4v1.66c0 1.16 0 1.8.16 2.12.14.28.38.51.66.65.32.16 1 .16 2.12.16h8.32c1.12 0 1.8 0 2.12-.16.28-.15.52-.38.66-.66.16-.32.16-.96.16-2.12V13.9zm.56-1.8h13.08l-1.49-2.98c-.34-.68-.52-1.03-.69-1.21a1.4 1.4 0 0 0-.55-.33c-.24-.08-.65-.08-1.38-.08h-4.86c-.73 0-1.14 0-1.38.08-.21.07-.4.19-.57.35-.16.16-.34.5-.67 1.18l-1.49 2.98zm4.94 5h-3.2c-.5 0-.9-.4-.9-.9s.4-.9.9-.9h3.2c.5 0 .9.4.9.9s-.4.9-.9.9"/>
</svg>