<svg xmlns="http://www.w3.org/2000/svg" width="26" height="26" fill="currentColor" class="sym sym-hash" viewBox="0 0 26 26">
  <path d="M16 22.9s-.1 0-.15-.01a.905.905 0 0 1-.74-1.04l.66-3.95H9.6l-.71 4.25a.9.9 0 0 1-1.04.74.905.905 0 0 1-.74-1.04l.66-3.95H4c-.5 0-.9-.4-.9-.9s.4-.9.9-.9h4.07L9.1 9.9H5c-.5 0-.9-.4-.9-.9s.4-.9.9-.9h4.4l.71-4.25a.9.9 0 0 1 1.04-.74c.49.08.82.55.74 1.04l-.66 3.95h6.17l.71-4.25a.9.9 0 0 1 1.04-.74c.49.08.82.55.74 1.04l-.66 3.95H22c.5 0 .9.4.9.9s-.4.9-.9.9h-3.07l-1.03 6.2H21c.5 0 .9.4.9.9s-.4.9-.9.9h-3.4l-.71 4.25a.9.9 0 0 1-.89.75m-6.11-6.8h6.18l1.03-6.2h-6.18z"/>
</svg>