<svg xmlns="http://www.w3.org/2000/svg" width="26" height="26" fill="currentColor" class="sym sym-hash-solid" viewBox="0 0 26 26">
  <path fill-rule="evenodd" d="M10.739 3.024c-.294.096-.553.32-.655.565-.03.077-.216 1.098-.41 2.27l-.355 2.13-2.301.012c-2.278.011-2.305.012-2.466.098a.995.995 0 0 0 .037 1.798l.006.002.2.093 2.091.001c1.151 0 2.092.01 2.092.021 0 .036-.96 5.798-.981 5.892l-.021.088-2.13.012c-2.103.011-2.134.012-2.295.098a.995.995 0 0 0 .037 1.798l.006.002.2.093 3.864.001-.02.09c-.013.05-.165.955-.34 2.011-.337 2.03-.34 2.077-.184 2.376.151.289.547.524.883.525.366 0 .779-.27.915-.6.03-.077.216-1.098.41-2.27l.355-2.133h5.987l-.02.09c-.013.05-.165.955-.34 2.011-.337 2.03-.34 2.077-.184 2.376.151.289.547.524.883.525.366.001.779-.27.914-.6.031-.077.217-1.098.412-2.27l.354-2.133h1.762c1.76 0 1.76 0 1.961-.093a.996.996 0 0 0 .049-1.798l-.006-.002c-.16-.085-.207-.087-1.794-.1-.898-.005-1.632-.02-1.632-.03 0-.036.96-5.799.982-5.891l.021-.09h1.59c1.581-.001 1.59-.001 1.79-.094a.996.996 0 0 0 .05-1.798l-.007-.002c-.158-.084-.21-.087-1.634-.1l-1.472-.011.02-.088c.012-.048.163-.953.34-2.01.336-2.03.339-2.077.183-2.375-.073-.14-.287-.34-.462-.43-.204-.108-.649-.102-.861.012-.203.108-.4.312-.474.492-.031.077-.217 1.099-.412 2.271l-.354 2.132h-5.987l.021-.09c.012-.049.164-.954.34-2.012.336-2.03.34-2.077.183-2.375-.073-.14-.289-.34-.458-.427-.156-.078-.535-.114-.685-.065zm6.244 6.99c0 .036-.96 5.798-.981 5.893l-.021.09H13c-1.64 0-2.982-.01-2.982-.021 0-.036.96-5.798.982-5.893l.02-.09h2.982c1.639 0 2.981.01 2.981.021"/>
</svg>