<svg xmlns="http://www.w3.org/2000/svg" width="26" height="26" fill="currentColor" class="sym sym-heading-solid" viewBox="0 0 26 26">
  <path d="M4.644 4.067a1 1 0 0 0-.53.444l-.003.004c-.095.161-.111.233-.111.489s.016.328.111.489c.24.408.501.51 1.296.51h.576v13.998h-.576c-.795 0-1.056.102-1.296.51-.095.162-.111.234-.111.49 0 .255.016.327.111.488.061.103.17.234.243.29.291.221.297.221 2.628.221 2.434 0 2.404.003 2.707-.3a.98.98 0 0 0 0-1.402C9.442 20.053 9.247 20 8.56 20h-.573v-6H18v6h-.576c-.795 0-1.055.102-1.296.51-.095.161-.11.233-.11.49 0 .255.015.327.11.488.061.103.17.234.244.289.29.221.296.221 2.627.221 2.434 0 2.405.003 2.707-.299a.98.98 0 0 0 0-1.402c-.247-.246-.442-.299-1.129-.299h-.574V6h.574c.687 0 .882-.051 1.13-.299a.98.98 0 0 0 0-1.402C21.403 3.997 21.432 4 18.998 4c-2.331 0-2.337 0-2.627.222a1.2 1.2 0 0 0-.24.283l-.004.006c-.095.16-.11.233-.11.488 0 .256.015.328.11.49.24.408.501.51 1.296.51H18v6H7.986v-6h.574c.687 0 .882-.052 1.13-.3a.98.98 0 0 0 0-1.402c-.304-.302-.272-.298-2.723-.295-1.775.002-2.194.012-2.323.06z"/>
</svg>