<svg xmlns="http://www.w3.org/2000/svg" width="26" height="26" fill="currentColor" class="sym sym-heading-1" viewBox="0 0 26 26">
  <path fill-rule="evenodd" d="M4.333 5.417c.599 0 1.084.485 1.084 1.083v5.417h6.5V6.5a1.083 1.083 0 1 1 2.166 0v13a1.083 1.083 0 1 1-2.166 0v-5.417h-6.5V19.5a1.083 1.083 0 0 1-2.167 0v-13c0-.598.485-1.083 1.083-1.083"/>
  <path d="M16.874 20.583v-1.469h2.34v-5.07c-.325.624-.845.988-1.508.988h-.832v-1.469h.832c1.118 0 1.508-.962 1.508-2.08h1.924v7.631h2.34v1.47z"/>
</svg>