<svg xmlns="http://www.w3.org/2000/svg" width="26" height="26" fill="currentColor" class="sym sym-heading-6" viewBox="0 0 26 26">
  <path fill-rule="evenodd" d="M4.333 5.417c.599 0 1.084.485 1.084 1.083v5.417h6.5V6.5a1.083 1.083 0 1 1 2.166 0v13a1.083 1.083 0 1 1-2.166 0v-5.417h-6.5V19.5a1.083 1.083 0 0 1-2.167 0v-13c0-.598.485-1.083 1.083-1.083"/>
  <path d="M20.514 20.791c-2.353 0-3.848-1.82-3.848-4.68 0-2.912 1.612-4.836 4.069-4.836 1.794 0 3.159 1.014 3.536 2.613l-1.924.13c-.273-.806-.91-1.274-1.755-1.274-1.3 0-2.158 1.105-2.262 2.808.481-.793 1.378-1.274 2.522-1.274 1.911 0 3.276 1.326 3.276 3.198 0 1.911-1.534 3.315-3.614 3.315m-1.677-3.263c0 1.053.702 1.794 1.69 1.794s1.677-.74 1.677-1.794c0-1.053-.689-1.78-1.677-1.78s-1.69.727-1.69 1.78"/>
</svg>