<svg xmlns="http://www.w3.org/2000/svg" width="26" height="26" fill="currentColor" class="sym sym-heading-5-solid" viewBox="0 0 26 26">
  <path fill-rule="evenodd" d="M4.333 5.417c.599 0 1.084.485 1.084 1.083v5.417h6.5V6.5a1.083 1.083 0 1 1 2.166 0v13a1.083 1.083 0 1 1-2.166 0v-5.417h-6.5V19.5a1.083 1.083 0 0 1-2.167 0v-13c0-.598.485-1.083 1.083-1.083"/>
  <path d="M20.436 20.791c-1.963 0-3.393-1.079-3.666-2.795l1.937-.13c0 .845.741 1.47 1.742 1.47 1.053 0 1.768-.69 1.768-1.717s-.741-1.703-1.872-1.703c-.715 0-1.313.273-1.625.741l-1.755-.13.676-5.044h5.811v1.47h-4.264l-.325 2.105c.507-.364 1.157-.559 1.924-.559 1.963 0 3.354 1.287 3.354 3.081 0 1.885-1.534 3.211-3.705 3.211"/>
</svg>