<svg xmlns="http://www.w3.org/2000/svg" width="26" height="26" fill="currentColor" class="sym sym-heading-4-solid" viewBox="0 0 26 26">
  <path fill-rule="evenodd" d="M4.333 5.417c.599 0 1.084.485 1.084 1.083v5.417h6.5V6.5a1.083 1.083 0 1 1 2.166 0v13a1.083 1.083 0 1 1-2.166 0v-5.417h-6.5V19.5a1.083 1.083 0 0 1-2.167 0v-13c0-.598.485-1.083 1.083-1.083"/>
  <path d="M16.796 16.865c1.274-.91 1.794-2.47 1.794-5.382h1.794c0 2.51-.52 4.277-1.612 5.382h3.302v-5.382h1.794v5.382h1.43v1.47h-1.43v2.248h-1.794v-2.249h-5.278z"/>
</svg>