<svg xmlns="http://www.w3.org/2000/svg" width="26" height="26" fill="currentColor" class="sym sym-heading-3-solid" viewBox="0 0 26 26">
  <path fill-rule="evenodd" d="M4.333 5.417c.599 0 1.084.485 1.084 1.083v5.417h6.5V6.5a1.083 1.083 0 1 1 2.166 0v13a1.083 1.083 0 1 1-2.166 0v-5.417h-6.5V19.5a1.083 1.083 0 0 1-2.167 0v-13c0-.598.485-1.083 1.083-1.083"/>
  <path d="M20.527 20.791c-2.392 0-3.978-1.222-3.978-3.055l1.924-.13c0 1.014.819 1.716 2.002 1.716 1.066 0 1.768-.546 1.768-1.378s-.728-1.365-1.833-1.365h-1.105V15.11h1.105c.91 0 1.521-.48 1.521-1.183 0-.702-.611-1.183-1.508-1.183-.962 0-1.638.546-1.638 1.34l-1.924-.13c0-1.613 1.43-2.679 3.588-2.679 2.054 0 3.38.962 3.38 2.444 0 .988-.585 1.755-1.56 2.12 1.183.363 1.898 1.195 1.898 2.326 0 1.586-1.43 2.626-3.64 2.626"/>
</svg>