<svg xmlns="http://www.w3.org/2000/svg" width="26" height="26" fill="currentColor" class="sym sym-headphones-solid" viewBox="0 0 26 26">
  <path d="M12.237 5.02c-1.84.175-3.438.802-4.885 1.917-.377.29-1.223 1.146-1.53 1.547-.926 1.21-1.484 2.51-1.735 4.043-.065.396-.07.574-.083 2.498-.01 1.441-.002 2.111.023 2.202a.85.85 0 0 0 .403.481c.413.209.91.056 1.109-.34l.076-.151.02-2.068c.02-2.229.027-2.32.216-3.077a7.4 7.4 0 0 1 1.465-2.854l-.01.014a7.5 7.5 0 0 1 3.925-2.427c.624-.149 1.04-.195 1.768-.195 1.225 0 2.154.207 3.228.721 2.184 1.044 3.66 3.01 4.06 5.414.047.284.059.671.075 2.42l.02 2.083.09.152a.82.82 0 0 0 .71.405c.225 0 .43-.09.577-.236.256-.251.25-.185.235-2.54-.012-1.928-.017-2.106-.083-2.502-.25-1.533-.81-2.833-1.735-4.043-.306-.4-1.153-1.256-1.53-1.547a9.14 9.14 0 0 0-4.353-1.853c-.52-.075-1.59-.108-2.056-.064"/>
  <path d="M8.927 13.038c-1.042.131-1.972.885-2.309 1.872-.054.158-.1.346-.13.54l-.002.02c-.045.352-.045 2.725 0 3.078a2.75 2.75 0 0 0 .817 1.633c.982.96 2.49 1.09 3.661.315.395-.26.805-.773.998-1.249.2-.492.202-.506.202-2.238 0-1.41-.007-1.612-.057-1.807-.147-.561-.387-.982-.778-1.365a2.84 2.84 0 0 0-1.654-.8H9.66a2.2 2.2 0 0 0-.747.003zm7.367 0c-1.042.131-1.972.885-2.309 1.872-.054.158-.1.346-.13.54l-.003.02c-.044.352-.044 2.725 0 3.078.083.644.38 1.208.818 1.633.981.96 2.49 1.09 3.66.315.396-.26.806-.773.999-1.249.2-.492.202-.506.202-2.238 0-1.41-.007-1.612-.057-1.807-.148-.561-.388-.982-.779-1.365a2.84 2.84 0 0 0-1.654-.8h-.014a2.2 2.2 0 0 0-.747.003z"/>
</svg>