<svg xmlns="http://www.w3.org/2000/svg" width="26" height="26" fill="currentColor" class="sym sym-heading-2-solid" viewBox="0 0 26 26">
  <path fill-rule="evenodd" d="M4.333 5.417c.599 0 1.084.485 1.084 1.083v5.417h6.5V6.5a1.083 1.083 0 1 1 2.166 0v13a1.083 1.083 0 1 1-2.166 0v-5.417h-6.5V19.5a1.083 1.083 0 0 1-2.167 0v-13c0-.598.485-1.083 1.083-1.083"/>
  <path d="M16.913 19.114c3.666-2.002 5.018-3.289 5.018-4.797 0-.975-.559-1.573-1.443-1.573-.949 0-1.664.69-1.664 1.6l-1.924-.13c0-1.69 1.482-2.939 3.484-2.939s3.471 1.261 3.471 2.977c0 1.768-1.547 3.562-4.147 4.862h4.355v1.47h-7.15z"/>
</svg>