<svg xmlns="http://www.w3.org/2000/svg" width="26" height="26" fill="currentColor" class="sym sym-headphones" viewBox="0 0 26 26">
  <path d="M16.6 21.1c-1.6 0-2.9-1.3-2.9-2.9v-2.4c0-1.6 1.3-2.9 2.9-2.9s2.9 1.3 2.9 2.9v2.4c0 1.6-1.3 2.9-2.9 2.9m0-6.4c-.61 0-1.1.49-1.1 1.1v2.4c0 .61.49 1.1 1.1 1.1s1.1-.49 1.1-1.1v-2.4c0-.61-.49-1.1-1.1-1.1m-7.2 6.4c-1.6 0-2.9-1.3-2.9-2.9v-2.4c0-1.6 1.3-2.9 2.9-2.9s2.9 1.3 2.9 2.9v2.4c0 1.6-1.3 2.9-2.9 2.9m0-6.4c-.61 0-1.1.49-1.1 1.1v2.4c0 .61.49 1.1 1.1 1.1s1.1-.49 1.1-1.1v-2.4c0-.61-.49-1.1-1.1-1.1M21 17.9c-.5 0-.9-.4-.9-.9v-3.2c0-3.92-3.18-7.1-7.1-7.1s-7.1 3.18-7.1 7.1V17c0 .5-.4.9-.9.9s-.9-.4-.9-.9v-3.2c0-4.91 3.99-8.9 8.9-8.9s8.9 3.99 8.9 8.9V17c0 .5-.4.9-.9.9"/>
</svg>