<svg xmlns="http://www.w3.org/2000/svg" width="26" height="26" fill="currentColor" class="sym sym-heart" viewBox="0 0 26 26">
  <path d="M13.003 22.825q-.195 0-.39-.06c-.3-.09-.5-.26-.72-.46-1.96-1.74-6.68-5.99-8.33-8.11-2.29-2.95-1.86-7.03 1.02-9.49 2.5-2.13 5.97-1.99 8.42.22 2.45-2.22 5.85-2.36 8.42-.23a6.844 6.844 0 0 1 1.03 9.49c-1.65 2.12-6.37 6.37-8.32 8.1-.22.2-.42.37-.72.46-.13.04-.27.06-.4.06zm-4.41-17.84c-.96 0-1.94.33-2.84 1.1-2.13 1.82-2.46 4.83-.77 7.01 1.57 2.02 6.44 6.39 8.02 7.79 1.58-1.4 6.44-5.77 8.02-7.79 1.72-2.21 1.39-5.22-.75-7.01-2.29-1.9-5.04-1.08-6.58.72a.89.89 0 0 1-.68.31c-.26 0-.51-.12-.68-.31-.93-1.09-2.3-1.83-3.73-1.83z"/>
</svg>