<svg xmlns="http://www.w3.org/2000/svg" width="26" height="26" fill="currentColor" class="sym sym-hearts" viewBox="0 0 26 26">
  <path d="M11.668 23.89c-.1 0-.2-.01-.3-.04-.26-.06-.5-.2-.69-.4-.21-.23-.3-.47-.39-.76-.62-1.85-1.59-4.9-2.08-7-1.91-1.03-3.24-1.83-3.96-2.38-2.33-1.77-2.83-4.94-1.15-7.38 1.42-2.07 3.99-2.69 6.25-1.63 1.42-2.02 3.95-2.76 6.22-1.72a5.35 5.35 0 0 1 2.7 6.97c-.15.35-.37.8-.66 1.34.13.24.25.49.34.76 2.43-.42 4.74.84 5.61 3.18a5.36 5.36 0 0 1-3.02 6.84c-1.85.75-6.43 1.73-8.31 2.12-.2.04-.37.08-.56.08zm-1.78-8.92c.43 2.02 1.54 5.46 2.07 7.06 1.55-.32 6.18-1.3 7.9-2 1.83-.75 2.69-2.7 2.01-4.55-.76-2.05-2.74-2.4-4.26-1.87a.898.898 0 0 1-1.18-.68c-.31-1.66-1.7-3.13-3.73-2.76-1.94.36-3.21 2.09-2.95 4.02.03.2.07.43.12.68 0 .03.02.06.02.1m-2.8-9.36c-.93 0-1.85.4-2.51 1.36-1.12 1.63-.79 3.75.76 4.92.5.38 1.38.92 2.58 1.59.08-2.5 1.87-4.6 4.45-5.08 1.49-.28 2.92.12 4 1 .1-.2.18-.38.25-.53.77-1.82 0-3.81-1.79-4.64-1.98-.92-3.63.24-4.33 1.69a.9.9 0 0 1-1.32.35c-.61-.42-1.35-.67-2.08-.67z"/>
</svg>