<svg xmlns="http://www.w3.org/2000/svg" width="26" height="26" fill="currentColor" class="sym sym-hearts-solid" viewBox="0 0 26 26">
  <path d="M12.88 2.034c-1.247.132-2.487.813-3.317 1.82l-.27.328-.178-.076c-1.071-.457-2.508-.514-3.622-.145-1.883.623-3.268 2.466-3.471 4.619a5.3 5.3 0 0 0 .537 2.863l-.014-.031c.487.998 1.032 1.6 2.103 2.324.51.345 1.112.727 1.145.727.01 0 .01-.275.003-.612a6.7 6.7 0 0 1 .226-2.024l-.01.047a7.2 7.2 0 0 1 1.352-2.777c1.135-1.434 2.655-2.365 4.517-2.765.463-.1.572-.108 1.443-.108.83 0 .992.011 1.363.092a6.6 6.6 0 0 1 1.739.624l-.036-.017c.681.339 1.197.717 1.806 1.326l.446.444.05-.232c.074-.351.1-1.352.045-1.743a5.47 5.47 0 0 0-4.663-4.665l-.029-.003a4.2 4.2 0 0 0-1.188-.013l.021-.002z"/>
  <path d="M12.655 8.248a5.6 5.6 0 0 0-3.258 1.6c-.498.5-.769.882-1.063 1.496-.54 1.13-.668 2.28-.4 3.64.21 1.07.68 2.822 1.282 4.772.48 1.563 1.03 3.225 1.134 3.44.056.116.2.302.316.413.471.446.82.487 2.021.24 3.888-.801 7.1-1.65 8.185-2.166a5.64 5.64 0 0 0 2.51-2.414l.015-.03c.38-.694.602-1.52.602-2.399v-.054.003l.001-.123c0-.588-.102-1.152-.29-1.675l.01.035c-.53-1.59-1.655-2.756-3.133-3.247a6 6 0 0 0-.623-.174l-.047-.009c-.402-.082-1.231-.12-1.611-.071l-.289.036-.205-.424c-.732-1.506-1.965-2.497-3.526-2.833-.358-.076-1.227-.106-1.63-.056"/>
</svg>