<svg xmlns="http://www.w3.org/2000/svg" width="26" height="26" fill="currentColor" class="sym sym-help-circle-solid" viewBox="0 0 26 26">
  <path fill-rule="evenodd" d="M12.069 2.024c-2.252.22-4.209 1.004-5.98 2.397-.462.363-1.498 1.433-1.873 1.934C3.057 7.9 2.36 9.586 2.074 11.54c-.099.673-.099 2.251 0 2.924.286 1.952.982 3.637 2.141 5.185.456.608 1.529 1.681 2.137 2.137 1.55 1.158 3.235 1.853 5.187 2.14.673.099 2.253.099 2.926 0 1.952-.286 3.637-.982 5.187-2.14.607-.456 1.68-1.529 2.137-2.137 1.159-1.548 1.854-3.233 2.141-5.185.052-.357.07-.734.07-1.462 0-.729-.018-1.106-.07-1.462-.286-1.953-.984-3.64-2.142-5.185-.375-.501-1.411-1.57-1.873-1.934-1.6-1.259-3.358-2.023-5.33-2.315-.635-.094-1.946-.136-2.516-.082m1.892 5.108a4.03 4.03 0 0 1 2.53 2.062l.01.024c.293.579.405 1.065.406 1.761 0 .434-.014.571-.092.822-.32 1.032-1.084 1.88-2.323 2.581-.517.294-1.222.586-1.475.612-.568.061-1.097-.415-1.097-.99 0-.24.12-.521.297-.698.12-.118.27-.205.55-.314.939-.37 1.786-1.005 2.038-1.528.35-.729-.15-1.857-1-2.257-1.069-.502-2.21-.074-2.728 1.02-.184.392-.306.541-.534.659a.99.99 0 0 1-1.442-.882v-.01c-.001-.24.018-.304.225-.726.588-1.2 1.596-1.97 2.895-2.213.479-.09 1.253-.055 1.74.077m-.531 9.969c.745.385.767 1.422.038 1.796-.652.336-1.468-.158-1.468-.888 0-.385.288-.804.644-.936.214-.078.607-.064.786.028"/>
</svg>