<svg xmlns="http://www.w3.org/2000/svg" width="26" height="26" fill="currentColor" class="sym sym-help-circle" viewBox="0 0 26 26">
  <path d="M13 23.9C6.99 23.9 2.1 19.01 2.1 13S6.99 2.1 13 2.1 23.9 6.99 23.9 13 19.01 23.9 13 23.9m0-20c-5.02 0-9.1 4.08-9.1 9.1s4.08 9.1 9.1 9.1 9.1-4.08 9.1-9.1-4.08-9.1-9.1-9.1m0 15c-.5 0-.91-.4-.91-.9s.4-.9.9-.9.9.4.9.9-.4.9-.9.9zm-.09-4c-.38 0-.73-.24-.85-.62-.16-.47.1-.98.57-1.14.62-.21 2.38-1.05 2.38-2.15 0-.5-.17-.98-.49-1.36s-.76-.63-1.25-.72-.99 0-1.42.26c-.43.25-.75.65-.92 1.11-.17.47-.68.72-1.15.55a.907.907 0 0 1-.55-1.15c.31-.87.91-1.6 1.7-2.07.79-.46 1.73-.64 2.63-.48.91.15 1.73.63 2.32 1.33s.92 1.6.92 2.52c0 2.62-3.47 3.8-3.62 3.85-.09.03-.19.05-.28.05z"/>
</svg>