<svg xmlns="http://www.w3.org/2000/svg" width="26" height="26" fill="currentColor" class="sym sym-home-smile-solid" viewBox="0 0 26 26">
  <path fill-rule="evenodd" d="M12.418 2.582c-.135.043-.35.148-.48.234-.468.307-7.841 6.15-8.096 6.414q-.628.656-.783 1.537c-.07.396-.082 9.381-.014 10.003.108.978.55 1.713 1.352 2.247.354.238.773.378 1.295.437.537.061 14.078.061 14.615 0 .965-.109 1.69-.557 2.217-1.37.233-.36.372-.784.43-1.313.069-.622.057-9.607-.014-10.003a2.9 2.9 0 0 0-.782-1.538c-.255-.264-7.629-6.106-8.096-6.413a2 2 0 0 0-1.66-.231zM9.622 14.518c.242.143.389.36.517.762.165.525.347.815.776 1.248.314.316.446.416.724.554.507.251.773.312 1.36.312s.853-.06 1.36-.312c.278-.138.41-.238.724-.554.43-.432.61-.723.777-1.248.126-.399.275-.618.51-.758.608-.362 1.395.036 1.493.755.035.26-.103.73-.383 1.31-.612 1.267-1.644 2.18-2.947 2.608-.561.185-.86.229-1.534.229-.675 0-.974-.045-1.535-.229A5.07 5.07 0 0 1 9 17.412l-.009-.013c-.476-.645-.91-1.722-.856-2.121.053-.386.348-.744.707-.856a1.1 1.1 0 0 1 .78.097z"/>
</svg>