<svg xmlns="http://www.w3.org/2000/svg" width="26" height="26" fill="currentColor" class="sym sym-home-solid" viewBox="0 0 26 26">
  <path fill-rule="evenodd" d="M12.418 2.582c-.135.043-.35.148-.48.234-.468.307-7.841 6.15-8.096 6.414q-.628.656-.783 1.537c-.07.396-.082 9.381-.014 10.003.108.978.55 1.713 1.352 2.247.354.238.773.378 1.295.437.537.061 14.078.061 14.615 0 .965-.109 1.69-.557 2.217-1.37.233-.36.372-.784.43-1.313.069-.622.057-9.607-.014-10.003a2.9 2.9 0 0 0-.782-1.538c-.255-.264-7.629-6.106-8.096-6.413a2 2 0 0 0-1.66-.231zm1.337 8.853c.58.161 1.197.57 1.574 1.044.22.279.512.866.587 1.189.343 1.446-.48 3.029-1.842 3.544-1.498.567-3.099-.094-3.777-1.558-.225-.487-.276-.723-.276-1.277s.05-.79.276-1.276a3.04 3.04 0 0 1 2.187-1.72l.018-.003c.267-.05.988-.017 1.253.057"/>
</svg>