<svg xmlns="http://www.w3.org/2000/svg" width="26" height="26" fill="currentColor" class="sym sym-home-line" viewBox="0 0 26 26">
  <path d="M18.575 23H7.444c-1.17 0-1.823 0-2.418-.311a2.8 2.8 0 0 1-1.219-1.237C3.5 20.85 3.5 20.197 3.5 19v-7.037c0-.623 0-.963.106-1.333.086-.331.24-.643.441-.915.23-.312.509-.536.979-.906l6.506-5.139c.384-.302.643-.506.998-.603a1.75 1.75 0 0 1 .95 0c.355.097.614.301.998.603l6.506 5.14c.46.37.748.584.969.895.201.282.355.594.442.925.105.37.105.71.105 1.333V19c0 1.187 0 1.849-.307 2.452a2.8 2.8 0 0 1-1.219 1.236C20.38 23 19.736 23 18.556 23zM12.597 5.061l-6.506 5.14c-.374.301-.566.447-.643.554a1 1 0 0 0-.163.35c-.039.147-.039.4-.039.857V19c0 .885 0 1.42.116 1.654.105.205.259.37.46.467.23.117.758.117 1.632.117h11.13c.874 0 1.402 0 1.632-.117.202-.107.365-.262.46-.467.116-.224.116-.769.116-1.654v-7.038c0-.467 0-.72-.039-.856a1.2 1.2 0 0 0-.172-.35c-.077-.108-.269-.264-.643-.556l-6.506-5.139c-.163-.126-.346-.272-.403-.302-.067.03-.25.176-.422.302zm4.251 14.046H9.171a.866.866 0 0 1-.863-.876c0-.487.383-.876.863-.876h7.677c.48 0 .864.389.864.876a.866.866 0 0 1-.864.876"/>
</svg>