<svg xmlns="http://www.w3.org/2000/svg" width="26" height="26" fill="currentColor" class="sym sym-home-line-solid" viewBox="0 0 26 26">
  <path fill-rule="evenodd" d="M12.447 3.078a2.3 2.3 0 0 0-.456.223c-.444.292-7.45 5.856-7.691 6.108a2.77 2.77 0 0 0-.744 1.464c-.066.377-.078 8.935-.013 9.527.102.932.522 1.632 1.284 2.14.337.226.735.36 1.23.417.51.058 13.374.058 13.884 0 .917-.105 1.606-.53 2.106-1.305.223-.343.354-.747.41-1.25.065-.594.053-9.15-.014-9.528A2.77 2.77 0 0 0 21.7 9.41c-.242-.252-7.247-5.816-7.69-6.108a1.88 1.88 0 0 0-1.577-.22zm4.675 14.192c.35.122.626.52.626.902 0 .234-.113.503-.284.677-.301.306-.036.288-4.465.288-4.428 0-4.163.018-4.465-.288a.95.95 0 0 1-.278-.677c0-.265.107-.505.28-.677.293-.299.02-.281 4.448-.285 3.585-.003 3.971.002 4.138.06"/>
</svg>