<svg xmlns="http://www.w3.org/2000/svg" width="26" height="26" fill="currentColor" class="sym sym-home-smile" viewBox="0 0 26 26">
  <path d="M18.81 23.274H7.21c-1.22 0-1.9 0-2.52-.32-.55-.28-.99-.72-1.27-1.27-.32-.62-.32-1.29-.32-2.52v-7.23c0-.64 0-.99.11-1.37.09-.34.25-.66.46-.94.24-.32.53-.55 1.02-.93l6.78-5.28c.4-.31.67-.52 1.04-.62.33-.09.67-.09.99 0 .37.1.64.31 1.04.62l6.78 5.28c.48.38.78.6 1.01.92.21.29.37.61.46.95.11.38.11.73.11 1.37v7.23c0 1.22 0 1.9-.32 2.52-.28.55-.72.99-1.27 1.27-.62.32-1.29.32-2.52.32zm-6.23-18.43-6.78 5.28c-.39.31-.59.46-.67.57s-.14.23-.17.36c-.04.15-.04.41-.04.88v7.23c0 .91 0 1.46.12 1.7.11.21.27.38.48.48.24.12.79.12 1.7.12h11.6c.91 0 1.46 0 1.7-.12.21-.11.38-.27.48-.48.12-.23.12-.79.12-1.7v-7.23c0-.48 0-.74-.04-.88q-.06-.195-.18-.36c-.08-.11-.28-.27-.67-.57l-6.78-5.28c-.17-.13-.36-.28-.42-.31-.07.03-.26.18-.44.31zm.43 14.43a4.9 4.9 0 0 1-4.75-3.68c-.12-.48.17-.97.65-1.1.48-.12.97.17 1.1.65a3.09 3.09 0 0 0 3 2.32c1.41 0 2.65-.96 3-2.32.12-.48.62-.77 1.1-.65s.77.61.65 1.1a4.91 4.91 0 0 1-4.75 3.68"/>
</svg>