<svg xmlns="http://www.w3.org/2000/svg" width="26" height="26" fill="currentColor" class="sym sym-hourglass" viewBox="0 0 26 26">
  <path d="M21.09 24H4.91a.906.906 0 0 1-.91-.909c0-.505.405-.908.91-.908h1.112v-1.868c0-.889 0-1.373.132-1.878a3.8 3.8 0 0 1 .586-1.242c.294-.424.668-.737 1.345-1.302l3.49-2.898-3.48-2.898c-.687-.565-1.051-.878-1.355-1.302a4 4 0 0 1-.586-1.242c-.132-.505-.132-.99-.132-1.868V3.817H4.91A.906.906 0 0 1 4 2.91c0-.506.405-.91.91-.91h16.18c.506 0 .91.404.91.909a.906.906 0 0 1-.91.908h-1.113v1.868c0 .889 0 1.373-.13 1.878a3.8 3.8 0 0 1-.587 1.242c-.294.424-.668.737-1.345 1.302l-3.49 2.898 3.48 2.898c.687.565 1.051.878 1.355 1.302.262.374.465.798.586 1.242.131.505.131.99.131 1.868v1.868h1.113c.506 0 .91.404.91.908a.906.906 0 0 1-.91.909M7.843 22.183h10.314v-1.868c0-.757 0-1.131-.07-1.404a2 2 0 0 0-.314-.666c-.162-.232-.455-.475-1.031-.949L13 14.186l-3.742 3.11c-.576.485-.87.727-1.031.95a2 2 0 0 0-.314.665c-.07.273-.07.647-.07 1.404zm0-18.376v1.868c0 .757 0 1.13.07 1.404.061.242.172.464.314.666.162.232.455.474 1.031.949L13 11.804l3.742-3.11c.576-.485.87-.727 1.031-.95.142-.201.253-.423.314-.665.07-.273.07-.647.07-1.404V3.807z"/>
</svg>