<svg xmlns="http://www.w3.org/2000/svg" width="26" height="26" fill="currentColor" class="sym sym-hourglass-solid" viewBox="0 0 26 26">
  <path fill-rule="evenodd" d="M4.644 2.065a1 1 0 0 0-.53.443l-.003.004c-.095.162-.111.234-.111.49 0 .255.016.327.111.488.24.409.501.51 1.296.51h.576v1.392c0 .765.019 1.54.042 1.723.072.579.324 1.244.651 1.726.255.374.787.856 2.722 2.467 1.097.913 1.993 1.675 1.993 1.693s-.852.74-1.892 1.605c-1.988 1.65-2.543 2.152-2.794 2.515a4.1 4.1 0 0 0-.677 1.743l-.002.022c-.023.183-.042.959-.042 1.724V22h-.576c-.795 0-1.056.102-1.296.511-.095.161-.111.233-.111.489s.016.328.11.489c.062.103.171.234.244.288.31.238-.268.223 8.636.223 9.16 0 8.39.026 8.715-.3a.98.98 0 0 0 0-1.402c-.247-.247-.442-.299-1.129-.299h-.574v-1.391c0-.765-.018-1.54-.042-1.723a4.2 4.2 0 0 0-.66-1.741l.01.016c-.255-.375-.788-.857-2.723-2.467-1.096-.914-1.993-1.675-1.993-1.694s.897-.78 1.993-1.693c1.936-1.61 2.468-2.094 2.72-2.467a4.2 4.2 0 0 0 .652-1.726c.024-.182.043-.958.043-1.723V4h.573c.687 0 .883-.052 1.13-.3a.98.98 0 0 0 0-1.402c-.325-.326.446-.3-8.73-.296-6.99.002-8.198.011-8.331.06zM17.998 5.33c0 .731-.017 1.444-.036 1.584a2.1 2.1 0 0 1-.533 1.06h.001c-.22.219-4.395 3.706-4.437 3.706S8.776 8.195 8.556 7.974a2.1 2.1 0 0 1-.53-1.046l-.003-.013c-.02-.14-.036-.853-.036-1.583l-.001-1.33H18v1.33z"/>
</svg>