<svg xmlns="http://www.w3.org/2000/svg" width="26" height="26" fill="currentColor" class="sym sym-hourglass-02-solid" viewBox="0 0 26 26">
  <path fill-rule="evenodd" d="M5.891 2.027c-.694.09-1.35.51-1.648 1.053-.24.435-.257.63-.237 2.708.014 1.67.026 1.93.095 2.14.106.315.3.691.48.93.08.106 1.14 1.08 2.356 2.165l2.21 1.97-2.21 1.972C5.72 16.05 4.662 17.023 4.58 17.129a3.6 3.6 0 0 0-.48.93c-.07.21-.08.47-.095 2.14-.02 2.086-.003 2.27.243 2.72.156.286.64.716.962.855.54.234.255.226 7.789.226s7.248.008 7.79-.226c.32-.139.804-.568.96-.855.247-.45.263-.634.244-2.72-.015-1.67-.026-1.93-.096-2.14a3.6 3.6 0 0 0-.49-.945l.01.015c-.08-.106-1.14-1.08-2.355-2.164l-2.209-1.971 2.209-1.971c1.215-1.084 2.275-2.059 2.356-2.165.18-.238.374-.615.48-.93.07-.21.08-.47.095-2.14.014-1.608.006-1.948-.052-2.201-.169-.719-.678-1.234-1.472-1.489l-.287-.092L13.158 2c-3.864-.004-7.134.008-7.267.026m13.854 3.691c-.013 1.596-.02 1.743-.097 1.872-.116.194-4.601 4.187-4.826 4.295-.175.085-.22.087-1.823.087s-1.648-.002-1.824-.087c-.223-.108-4.708-4.1-4.825-4.295-.077-.13-.084-.276-.097-1.872l-.013-1.73h13.517zM16.797 18.57c.213.08.47.291.582.481.136.23.136.66 0 .888a1.3 1.3 0 0 1-.627.502c-.142.045-.837.055-3.754.055-3.944 0-3.78.01-4.107-.252-.272-.22-.371-.418-.371-.75 0-.329.101-.533.364-.739.32-.25.108-.238 4.104-.24 3.007-.002 3.686.009 3.808.054z"/>
</svg>