<svg xmlns="http://www.w3.org/2000/svg" width="26" height="26" fill="currentColor" class="sym sym-hourglass-02" viewBox="0 0 26 26">
  <path d="M19.175 23.905H6.835c-.74 0-1.15 0-1.57-.19-.39-.17-.7-.45-.91-.8-.25-.42-.25-.85-.25-1.51v-2.08c0-.53 0-.85.09-1.2.09-.31.22-.6.41-.86.2-.29.44-.5.88-.88l3.35-2.93c.22-.2.48-.42.53-.5-.06 0-.31-.22-.53-.41l-3.35-2.93c-.44-.38-.67-.59-.88-.88-.18-.26-.32-.55-.41-.86-.1-.35-.1-.67-.1-1.2v-2.08c0-.65 0-1.08.25-1.51.21-.35.52-.63.91-.8.42-.19.83-.19 1.57-.19h12.34c.74 0 1.15 0 1.57.19.39.17.7.45.91.8.25.42.25.85.25 1.51v2.08c0 .53 0 .85-.09 1.2-.09.31-.22.6-.41.86-.2.29-.44.5-.88.88l-3.35 2.93c-.22.2-.48.42-.53.5.02.01.3.21.53.41l3.35 2.93c.44.38.67.59.88.88.18.26.32.55.41.86.1.35.1.67.1 1.2v2.08c0 .65 0 1.08-.25 1.51-.21.35-.52.63-.91.8-.42.19-.83.19-1.57.19m-13.25-1.87s.03.02.07.03c.09.03.47.03.84.03h12.34c.37 0 .75 0 .84-.03.05-.02.08-.05.09-.07v-2.68c0-.38 0-.61-.03-.73-.03-.1-.08-.21-.14-.3-.08-.11-.26-.27-.59-.56l-3.35-2.93c-.53-.46-.85-.74-1.01-1.19-.15-.4-.15-.84 0-1.25.16-.44.48-.72 1.01-1.18l3.35-2.93c.33-.29.51-.45.59-.56.07-.09.11-.19.14-.3s.03-.34.03-.72v-2.08c0-.27 0-.55-.02-.64 0 .01-.03-.01-.07-.03-.09-.03-.47-.03-.84-.03H6.835c-.37 0-.75 0-.84.03-.05.02-.08.05-.09.07v2.68c0 .38 0 .61.03.73.03.1.08.21.14.3.08.11.26.27.59.56l3.35 2.93c.53.46.85.74 1.01 1.19.15.4.15.84 0 1.25-.16.44-.48.72-1.01 1.18l-3.35 2.93c-.33.29-.51.45-.59.56-.07.09-.11.19-.14.3s-.03.34-.03.72v2.08c0 .27 0 .55.02.64m10.51-1.63h-6.86c-.5 0-.9-.4-.9-.9s.4-.9.9-.9h6.86c.5 0 .9.4.9.9s-.4.9-.9.9"/>
</svg>