<svg xmlns="http://www.w3.org/2000/svg" width="26" height="26" fill="currentColor" class="sym sym-image-down" viewBox="0 0 26 26">
  <path d="M16.835 21.99H8.373c-.233 0-.446 0-.628-.01-.79-.03-1.346-.111-1.852-.364A3.44 3.44 0 0 1 4.375 20.1C4 19.362 4 18.523 4 16.997V9.852c0-1.526 0-2.365.375-3.103a3.44 3.44 0 0 1 1.518-1.516c.749-.374 1.59-.374 3.107-.374h4.009c.506 0 .91.404.91.91 0 .505-.404.91-.91.91H9c-1.245 0-1.933 0-2.277.181a1.64 1.64 0 0 0-.719.718c-.182.353-.182 1.03-.182 2.274v7.145c0 1.243 0 1.93.182 2.274.142.273.355.495.608.657.162-.222.394-.434.698-.707l7.207-6.55.607.678-.597-.688c.354-.323.587-.525.942-.646.324-.101.668-.112.981-.03.365.09.618.292 1.003.606l2.388 1.9c.355.283.567.454.75.687.242.303.404.647.495 1.02.071.294.071.567.071 1.021v.465c0 .87 0 1.304-.121 1.749q-.076.273-.182.515a3.4 3.4 0 0 1-1.721 1.729c-.172.08-.365.151-.547.202-.445.121-.88.121-1.75.121zM8.99 20.17h7.38c1.062 0 1.65 0 1.963-.13.04-.02.091-.041.132-.061a1.7 1.7 0 0 0 .688-.698c.02-.03.03-.07.05-.1.132-.314.132-.9.132-1.962 0-.323 0-.515-.02-.596a.9.9 0 0 0-.152-.313 4 4 0 0 0-.455-.394l-2.39-1.9c-.13-.101-.222-.182-.303-.243-.07.06-.152.142-.273.243l-.628-.657.618.677L8.96 20.18h.03zm.598-7.114a2.616 2.616 0 0 1-2.612-2.608 2.616 2.616 0 0 1 2.612-2.607 2.616 2.616 0 0 1 2.611 2.607 2.616 2.616 0 0 1-2.611 2.608m0-3.406a.79.79 0 0 0-.79.798c0 .445.354.788.79.788a.79.79 0 0 0 .789-.788.8.8 0 0 0-.79-.798m8.948 1.273h-.02a.8.8 0 0 1-.304-.06.9.9 0 0 1-.314-.203l-2.561-2.557a.908.908 0 1 1 1.285-1.283l1.003 1V4.91c0-.506.404-.91.91-.91.507 0 .912.404.912.91v2.91l1.002-1a.908.908 0 1 1 1.286 1.284l-2.562 2.556a.9.9 0 0 1-.283.182.8.8 0 0 1-.314.06h-.03z"/>
</svg>