<svg xmlns="http://www.w3.org/2000/svg" width="26" height="26" fill="currentColor" class="sym sym-image-check" viewBox="0 0 26 26">
  <path d="M17.292 22H7.839c-.268 0-.493 0-.696-.01-.878-.03-1.499-.111-2.055-.384a3.7 3.7 0 0 1-1.67-1.577C3 19.261 3 18.432 3 16.775v-7.55c0-1.657 0-2.486.418-3.254a3.6 3.6 0 0 1 1.67-1.577C5.9 4 6.832 4 8.535 4h4.474c.536 0 .964.404.964.91 0 .505-.428.91-.964.91H8.535c-1.392 0-2.163 0-2.57.191a1.8 1.8 0 0 0-.824.778c-.203.385-.203 1.112-.203 2.426v7.55c0 1.324 0 2.051.203 2.425.171.314.428.566.75.738.17-.242.438-.475.792-.778l8.05-6.913c.396-.344.664-.566 1.06-.687a2 2 0 0 1 1.07-.03c.396.09.664.303 1.092.616l2.677 2.021c.385.293.62.475.824.718.257.313.439.667.535 1.05.075.304.075.577.075 1.062v.485c0 .91 0 1.375-.128 1.83a3 3 0 0 1-.15.414c0 .02-.022.05-.032.07-.386.86-1.103 1.527-2.013 1.9h-.032c-.15.071-.31.122-.482.172-.482.122-.974.122-1.937.122zm-8.757-1.82h8.232c1.199 0 1.852 0 2.216-.14.439-.183.803-.526.985-.94.15-.334.15-.96.15-2.083 0-.343 0-.545-.022-.646a.8.8 0 0 0-.182-.344c-.064-.08-.225-.202-.524-.425l-2.666-2.01a4 4 0 0 0-.417-.304c.032.03-.15.182-.31.323l-7.666 6.58h.172zm.674-7.62c-1.584 0-2.869-1.212-2.869-2.708s1.285-2.709 2.869-2.709 2.87 1.213 2.87 2.709-1.286 2.708-2.87 2.708m0-3.598c-.514 0-.942.395-.942.89s.417.89.942.89.942-.395.942-.89-.417-.89-.942-.89m9.035.455a1 1 0 0 1-.685-.263l-1.905-1.799a.873.873 0 0 1 0-1.283 1.004 1.004 0 0 1 1.36 0l1.22 1.152 3.125-2.951a1.003 1.003 0 0 1 1.36 0 .873.873 0 0 1 0 1.283l-3.811 3.598a1 1 0 0 1-.685.263z"/>
</svg>