<svg xmlns="http://www.w3.org/2000/svg" width="26" height="26" fill="currentColor" class="sym sym-image-indent-left" viewBox="0 0 26 26">
  <path d="M22.09 22H3.91a.906.906 0 0 1-.91-.91c0-.506.404-.91.91-.91h18.18c.506 0 .91.404.91.91s-.404.91-.91.91m-11.716-4.045H5.525c-.666 0-1.07 0-1.475-.212a1.92 1.92 0 0 1-.838-.84C3 16.49 3 16.094 3 15.427v-4.854c0-.667 0-1.072.212-1.476.182-.364.475-.648.838-.84.415-.212.819-.212 1.475-.212h4.849c.666 0 1.07 0 1.474.212.364.192.657.476.839.84.212.414.212.809.212 1.476v4.854c0 .667 0 1.072-.212 1.476a1.92 1.92 0 0 1-.838.84c-.415.212-.819.212-1.475.212m-4.849-8.09c-.293 0-.596 0-.677.02-.03.091-.03.395-.03.688v4.854c0 .293 0 .597.02.678.091.03.394.03.687.03h4.849c.293 0 .596 0 .676-.02.03-.091.03-.395.03-.688v-4.854c0-.293 0-.597-.02-.678-.09-.03-.393-.03-.686-.03zm16.566 6.826h-6.06a.906.906 0 0 1-.91-.91c0-.506.404-.91.91-.91h6.06c.505 0 .909.404.909.91 0 .505-.404.91-.91.91m0-5.562h-6.06a.906.906 0 0 1-.91-.91c0-.506.404-.91.91-.91h6.06c.505 0 .909.404.909.91s-.404.91-.91.91m0-5.309H3.909A.906.906 0 0 1 3 4.91c0-.506.404-.91.91-.91h18.18c.506 0 .91.404.91.91s-.404.91-.91.91"/>
</svg>