<svg xmlns="http://www.w3.org/2000/svg" width="26" height="26" fill="currentColor" class="sym sym-image-right" viewBox="0 0 26 26">
  <path d="M16.851 21.99H8.378c-.233 0-.446 0-.628-.01-.79-.03-1.348-.111-1.855-.364a3.44 3.44 0 0 1-1.52-1.517C4 19.361 4 18.522 4 16.995V9.847c0-1.527 0-2.366.375-3.104a3.44 3.44 0 0 1 1.52-1.517c.75-.374 1.591-.374 3.112-.374h4.013c.507 0 .912.404.912.91 0 .505-.405.91-.912.91H9.007c-1.247 0-1.936 0-2.28.182a1.64 1.64 0 0 0-.72.718c-.183.354-.183 1.031-.183 2.275v7.148c0 1.244 0 1.931.183 2.275.142.273.355.495.608.657.162-.222.395-.434.7-.707l7.215-6.552.609.677-.598-.687c.354-.324.587-.526.942-.648a1.8 1.8 0 0 1 .983-.03c.365.091.618.293 1.004.607l2.391 1.9c.355.284.568.456.75.688.244.303.406.647.497 1.021.071.293.071.566.071 1.021v.465c0 .87 0 1.305-.122 1.75q-.075.273-.182.516a3.42 3.42 0 0 1-1.723 1.728 3.6 3.6 0 0 1-.547.203c-.446.121-.882.121-1.754.121zm-7.854-1.82h7.388c1.064 0 1.652 0 1.966-.132.04-.02.091-.04.132-.06.294-.162.537-.405.69-.698.02-.03.03-.07.05-.101.132-.313.132-.9.132-1.961 0-.324 0-.516-.02-.597a.9.9 0 0 0-.153-.313 4 4 0 0 0-.456-.395l-2.392-1.9c-.131-.102-.223-.183-.304-.243-.07.06-.152.141-.273.242l-.629-.657.619.678-6.78 6.147h.03zm.598-7.118a2.62 2.62 0 0 1-2.615-2.609 2.62 2.62 0 0 1 2.615-2.608 2.62 2.62 0 0 1 2.614 2.608 2.62 2.62 0 0 1-2.614 2.609m0-3.408a.793.793 0 0 0-.791.8.79.79 0 0 0 1.581 0 .8.8 0 0 0-.79-.8m8.959 1.274a.95.95 0 0 1-.649-.262.91.91 0 0 1 0-1.285l1.004-1h-2.92a.907.907 0 0 1-.911-.91c0-.506.405-.91.912-.91h2.919l-1.004-1.002a.91.91 0 0 1 0-1.284.913.913 0 0 1 1.287 0l2.555 2.548.02.02c.05.061.101.122.132.183 0 .02.02.04.03.06.04.101.071.213.071.334v.02a.9.9 0 0 1-.071.334 1 1 0 0 1-.182.283l-.01.01-2.555 2.558a.9.9 0 0 1-.648.263z"/>
</svg>