<svg xmlns="http://www.w3.org/2000/svg" width="26" height="26" fill="currentColor" class="sym sym-image-02-solid" viewBox="0 0 26 26">
  <path d="M8.91 7.63a2.9 2.9 0 0 0-1.635.933l-.002.003a2.66 2.66 0 0 0-.427 2.765 2.78 2.78 0 0 0 1.451 1.448l.018.007c.309.13.668.207 1.045.207.752 0 1.434-.303 1.925-.793a2.664 2.664 0 0 0 .116-3.69l.003.002c-.317-.356-.882-.703-1.355-.83-.24-.066-.897-.096-1.14-.052"/>
  <path fill-rule="evenodd" d="M6.724 4.029c-.973.046-1.514.196-2.097.583-.727.481-1.26 1.199-1.45 1.956-.155.618-.156.677-.172 5.844-.016 5.096.003 6.184.12 6.78.17.885.718 1.677 1.521 2.2.572.373 1.046.508 2.023.573.701.047 11.959.047 12.66 0 .976-.065 1.451-.2 2.023-.573.798-.52 1.352-1.32 1.522-2.2.106-.546.126-1.561.126-6.195s-.02-5.65-.126-6.195c-.17-.88-.724-1.68-1.522-2.2-.605-.394-1.08-.52-2.168-.573-.778-.039-11.645-.039-12.46 0m13.151 1.84c.11.03.274.093.363.139.224.114.587.468.711.693.218.395.212.305.227 3.7l.013 3.112-.797-.772c-1.067-1.034-1.23-1.13-1.935-1.13-.755 0-.828.048-2.39 1.578l-1.245 1.22-.348-.319c-.369-.338-.703-.562-.946-.636-.216-.065-.91-.055-1.103.016-.418.156-.52.249-3.486 3.182-1.603 1.585-2.997 2.976-3.098 3.091l-.183.21-.253-.236c-.292-.273-.454-.546-.524-.886-.073-.346-.072-11.326 0-11.67.067-.32.196-.554.448-.814.322-.332.612-.463 1.176-.532.06-.007 3.048-.01 6.639-.008 5.769.005 6.554.012 6.73.062z"/>
</svg>