<svg xmlns="http://www.w3.org/2000/svg" width="26" height="26" fill="currentColor" class="sym sym-image-left" viewBox="0 0 26 26">
  <path d="M16.815 21.99H8.366c-.232 0-.445 0-.627-.01-.788-.03-1.344-.112-1.85-.365a3.44 3.44 0 0 1-1.515-1.52C4 19.358 4 18.517 4 16.988v-7.16c0-1.53 0-2.37.374-3.11a3.44 3.44 0 0 1 1.516-1.52c.748-.374 1.587-.374 3.103-.374h4.002c.505 0 .91.405.91.911a.907.907 0 0 1-.91.912H8.993c-1.243 0-1.93 0-2.274.182a1.64 1.64 0 0 0-.718.72c-.182.354-.182 1.032-.182 2.278v7.16c0 1.246 0 1.935.182 2.28.142.273.354.496.607.658.161-.223.394-.436.697-.71l7.196-6.562.606.678-.596-.688c.354-.324.586-.527.94-.649.323-.1.667-.11.98-.03.364.091.617.294 1 .608l2.386 1.904c.354.284.566.456.748.689.242.303.404.648.495 1.022.07.294.07.568.07 1.023v.466c0 .871 0 1.307-.12 1.752q-.077.274-.182.517a3.4 3.4 0 0 1-1.718 1.732 3.6 3.6 0 0 1-.546.203c-.445.121-.88.121-1.749.121zm-7.832-1.823h7.367c1.061 0 1.648 0 1.961-.132.04-.02.091-.04.131-.06.293-.163.536-.406.688-.7.02-.03.03-.07.05-.1.132-.315.132-.902.132-1.966 0-.324 0-.516-.02-.597a.9.9 0 0 0-.152-.314 4 4 0 0 0-.455-.395L16.3 13.999c-.132-.101-.223-.182-.303-.243-.071.06-.152.142-.273.243l-.627-.659.617.68-6.762 6.157h.03zm.596-7.13a2.617 2.617 0 0 1-2.608-2.613A2.617 2.617 0 0 1 9.58 7.81a2.617 2.617 0 0 1 2.607 2.613 2.617 2.617 0 0 1-2.607 2.613m0-3.413a.79.79 0 0 0-.788.8c0 .445.353.79.788.79a.79.79 0 0 0 .788-.79c0-.436-.354-.8-.788-.8m8.934 1.276a.94.94 0 0 1-.647-.264L15.32 8.074l-.01-.01a1 1 0 0 1-.132-.172s-.02-.04-.03-.071a1.1 1.1 0 0 1-.071-.314v-.06c0-.112.03-.214.06-.315a.84.84 0 0 1 .203-.304l2.557-2.562a.908.908 0 1 1 1.283 1.286l-1 1.003h2.91c.506 0 .91.405.91.911a.907.907 0 0 1-.91.912h-2.91l1 1.003a.91.91 0 0 1 0 1.286.9.9 0 0 1-.647.263z"/>
</svg>