<svg xmlns="http://www.w3.org/2000/svg" width="26" height="26" fill="currentColor" class="sym sym-image-check-solid" viewBox="0 0 26 26">
  <path d="M6.901 4.031c-1.019.046-1.585.197-2.196.583-.763.482-1.32 1.2-1.52 1.957-.161.618-.163.677-.18 5.844-.016 5.096.004 6.185.125 6.78.177.875.747 1.669 1.568 2.186.638.4 1.132.529 2.28.59.482.026 2.568.035 6.232.025 5.397-.013 5.514-.015 5.852-.088 1.176-.26 2.128-1.001 2.622-1.988l.01-.022c.305-.622.38-1.217.348-2.737-.023-1.097-.049-1.27-.254-1.698a3 3 0 0 0-.617-.831 86 86 0 0 0-1.938-1.488c-1.248-.943-1.851-1.374-2.041-1.463-.694-.324-1.495-.21-2.114.3-1.082.893-9.002 7.74-9.086 7.854l-.11.151-.112-.062c-.18-.1-.546-.48-.65-.678-.206-.38-.2-.208-.2-6.246s-.006-5.866.2-6.247c.127-.238.495-.597.742-.724.416-.213.321-.208 3.994-.23 2.98-.018 3.389-.027 3.507-.078.352-.152.571-.47.572-.828-.005-.415-.309-.762-.718-.857l-.007-.001c-.22-.045-5.334-.047-6.308-.003"/>
  <path d="M21.71 4.056c-.146.048-.421.29-1.82 1.607l-1.648 1.552-.696-.65c-.59-.551-.725-.66-.884-.71-.37-.117-.73-.042-.995.21a.85.85 0 0 0-.222.94c.054.155.193.302 1.133 1.195.734.699 1.123 1.043 1.239 1.096.234.107.486.123.734.047.192-.058.326-.178 2.235-1.976 1.445-1.36 2.054-1.96 2.113-2.072.377-.737-.363-1.507-1.19-1.24M8.578 7.223c-1.09.235-1.932 1.038-2.166 2.056l-.004.017c-.411 1.903 1.34 3.558 3.363 3.18.264-.06.494-.142.711-.247l-.017.007c.343-.16.446-.229.727-.495.283-.265.355-.362.524-.687.418-.81.42-1.6.008-2.398-.472-.893-1.43-1.495-2.539-1.495q-.323 0-.626.066z"/>
</svg>