<svg xmlns="http://www.w3.org/2000/svg" width="26" height="26" fill="currentColor" class="sym sym-image-up" viewBox="0 0 26 26">
  <path d="M16.85 21.99H8.378c-.233 0-.446 0-.629-.01-.79-.03-1.347-.111-1.854-.364a3.44 3.44 0 0 1-1.52-1.517C4 19.36 4 18.52 4 16.994v-7.15c0-1.526 0-2.365.375-3.104a3.44 3.44 0 0 1 1.52-1.516c.75-.375 1.591-.375 3.111-.375h4.013c.507 0 .912.405.912.91 0 .506-.405.91-.912.91H9.006c-1.246 0-1.935 0-2.28.183a1.64 1.64 0 0 0-.72.718c-.182.354-.182 1.031-.182 2.275v7.15c0 1.243 0 1.93.182 2.275.142.273.355.495.609.657.162-.223.395-.435.699-.708l7.215-6.553.608.678-.598-.688c.355-.323.588-.526.943-.647.324-.101.668-.111.982-.03.365.09.619.293 1.004.606l2.391 1.901c.355.284.568.456.75.688.243.303.406.647.497 1.021.07.294.07.567.07 1.022v.465c0 .87 0 1.305-.121 1.75q-.075.272-.182.515a3.42 3.42 0 0 1-1.723 1.73c-.172.08-.365.151-.547.202-.446.121-.882.121-1.754.121zm-7.854-1.82h7.387c1.064 0 1.652 0 1.966-.132.04-.02.091-.04.132-.06.294-.162.537-.405.69-.698.02-.03.03-.071.05-.101.132-.314.131-.9.131-1.962 0-.324 0-.516-.02-.597a.9.9 0 0 0-.152-.313 4 4 0 0 0-.456-.395l-2.391-1.9c-.132-.102-.223-.183-.304-.244-.071.061-.152.142-.274.243l-.628-.657.618.678-6.78 6.148h.03zm.598-7.12a2.62 2.62 0 0 1-2.615-2.608 2.62 2.62 0 0 1 2.615-2.61 2.62 2.62 0 0 1 2.614 2.61 2.62 2.62 0 0 1-2.614 2.609m0-3.407a.793.793 0 0 0-.79.799.79.79 0 0 0 1.58 0 .8.8 0 0 0-.79-.8m8.958 1.274a.907.907 0 0 1-.912-.91V7.094l-1.003 1.002a.908.908 0 1 1-1.287-1.284l2.564-2.56a1 1 0 0 1 .192-.14c.03-.01.05-.031.081-.041A.9.9 0 0 1 18.522 4h.03a.9.9 0 0 1 .324.07c.03.01.061.031.091.041.071.04.142.091.203.152l2.564 2.558a.908.908 0 1 1-1.287 1.285l-1.003-1.001v2.912c0 .506-.406.91-.912.91z"/>
</svg>