<svg xmlns="http://www.w3.org/2000/svg" width="26" height="26" fill="currentColor" class="sym sym-image-indent-right-solid" viewBox="0 0 26 26">
  <path d="M3.646 4.063a1 1 0 0 0-.53.444l-.003.005c-.095.161-.111.233-.111.489s.016.328.111.49a1 1 0 0 0 .547.45c.153.054 1.24.06 9.332.06 10.279 0 9.388.028 9.714-.299a.984.984 0 0 0 0-1.404c-.326-.327.567-.3-9.73-.296-7.857.002-9.195.011-9.33.06zm11.147 3.983c-.366.041-.57.108-.864.285-.414.249-.75.724-.862 1.216-.078.35-.078 6.576 0 6.927.172.71.71 1.26 1.398 1.447l.014.003c.235.066.523.072 3.52.072 3.595 0 3.5.006 3.98-.25.262-.14.616-.493.756-.755.256-.48.25-.387.25-3.98 0-2.997-.006-3.285-.071-3.52a1.98 1.98 0 0 0-1.376-1.397l-.014-.003c-.186-.05-.719-.06-3.325-.07-1.707-.004-3.239.007-3.406.025M3.599 9.343a.99.99 0 0 0-.474 1.384l-.002-.005c.064.118.173.258.24.31.29.22.208.216 3.623.216s3.333.005 3.623-.217c.152-.116.324-.427.36-.653.063-.378-.188-.832-.554-1.01-.168-.082-.22-.083-3.432-.081-2.636 0-3.285.011-3.385.055zm.047 5.492c-.402.147-.639.496-.639.939a.87.87 0 0 0 .32.72c.288.253.105.24 3.665.24 3.202 0 3.254 0 3.422-.081.367-.178.617-.633.555-1.01-.037-.227-.21-.538-.361-.655-.29-.221-.205-.216-3.637-.213-2.645.002-3.194.012-3.325.06m.116 5.22c-.751.184-1.018 1.116-.475 1.66.063.062.186.152.274.199l.161.086h18.542l.162-.086c.366-.196.553-.499.553-.895s-.187-.7-.553-.895l-.162-.086-9.19-.006c-5.055-.003-9.246.006-9.312.023"/>
</svg>