<svg xmlns="http://www.w3.org/2000/svg" width="26" height="26" fill="currentColor" class="sym sym-image-plus" viewBox="0 0 26 26">
  <path d="M16.83 21.99H8.37c-.233 0-.445 0-.627-.01-.79-.03-1.346-.111-1.852-.364a3.44 3.44 0 0 1-1.518-1.515C4 19.364 4 18.525 4 17V9.859c0-1.526 0-2.364.374-3.101a3.44 3.44 0 0 1 1.518-1.516c.749-.373 1.589-.373 3.106-.373h4.007c.506 0 .91.404.91.909s-.404.909-.91.909H8.998c-1.244 0-1.932 0-2.276.182a1.64 1.64 0 0 0-.719.717c-.182.353-.182 1.03-.182 2.273V17c0 1.242 0 1.93.182 2.273.142.272.355.495.607.656.162-.222.395-.434.699-.707l7.204-6.545.607.677-.597-.687c.354-.324.587-.526.94-.647.325-.1.668-.11.982-.03.364.09.617.293 1.002.606l2.388 1.899c.354.283.566.455.749.687a2.6 2.6 0 0 1 .495 1.02c.071.293.071.566.071 1.02v.464c0 .87 0 1.304-.121 1.748q-.076.273-.183.515a3.4 3.4 0 0 1-1.72 1.728 3.6 3.6 0 0 1-.546.202c-.445.121-.88.121-1.75.121zm-7.842-1.818h7.376c1.063 0 1.65 0 1.963-.132.04-.02.091-.04.132-.06.293-.162.536-.404.688-.697.02-.03.03-.07.05-.101.132-.313.132-.9.132-1.96 0-.323 0-.515-.02-.596a.9.9 0 0 0-.152-.313 4 4 0 0 0-.456-.394l-2.387-1.899c-.132-.1-.223-.182-.304-.242-.07.06-.152.141-.273.242l-.627-.656.617.676-6.77 6.142h.031zm.597-7.111a2.615 2.615 0 0 1-2.61-2.606 2.615 2.615 0 0 1 2.61-2.607 2.615 2.615 0 0 1 2.61 2.607 2.615 2.615 0 0 1-2.61 2.606m0-3.404a.79.79 0 0 0-.79.798c0 .444.355.787.79.787a.79.79 0 0 0 .79-.787.8.8 0 0 0-.79-.798m8.944 1.272a.906.906 0 0 1-.91-.909V8.374h-1.65a.906.906 0 0 1-.91-.91c0-.504.405-.908.91-.908h1.65V4.909c0-.505.405-.909.91-.909.506 0 .911.404.911.91v1.646h1.65c.505 0 .91.404.91.909s-.405.909-.91.909h-1.65v1.646c0 .505-.405.91-.91.91"/>
</svg>