<svg xmlns="http://www.w3.org/2000/svg" width="26" height="26" fill="currentColor" class="sym sym-image-x-solid" viewBox="0 0 26 26">
  <path d="M16.449 4.036c-.477.179-.7.77-.467 1.23.033.062.433.489.889.949l.83.836-.83.835c-.456.46-.86.891-.895.96-.09.166-.093.637-.006.796.077.142.25.314.391.391.16.087.631.083.797-.006.068-.036.499-.438.96-.894l.835-.83.837.83c.46.456.89.859.959.894.166.09.638.093.797.006a1.14 1.14 0 0 0 .391-.39c.086-.16.083-.631-.006-.798-.036-.068-.439-.498-.895-.959l-.83-.835.83-.836c.456-.46.86-.891.895-.96.09-.165.092-.637.006-.796a1.15 1.15 0 0 0-.387-.388l-.005-.003c-.159-.086-.63-.083-.797.006-.068.036-.499.439-.96.894l-.835.83-.836-.83c-.46-.455-.892-.857-.96-.891-.158-.082-.54-.103-.708-.04"/>
  <path d="M7.602 4.448c-.94.045-1.464.192-2.028.57-.704.47-1.218 1.17-1.402 1.91-.15.604-.152.661-.167 5.71-.016 4.977.003 6.04.115 6.622.164.854.69 1.63 1.448 2.135.589.391 1.045.517 2.105.577.445.025 2.371.034 5.755.024 4.983-.013 5.091-.015 5.403-.086a3.56 3.56 0 0 0 2.421-1.942l.01-.021c.281-.608.35-1.189.32-2.674-.02-1.071-.044-1.24-.234-1.658a3 3 0 0 0-.57-.812c-.084-.082-.889-.736-1.789-1.454-1.152-.92-1.71-1.342-1.885-1.43-.64-.315-1.38-.205-1.951.293-1 .873-8.313 7.561-8.39 7.673l-.101.148-.104-.061c-.166-.097-.504-.47-.601-.662-.19-.372-.184-.203-.184-6.101 0-5.899-.005-5.73.184-6.102.118-.233.457-.583.686-.707.383-.209.296-.204 3.688-.225 2.751-.018 3.128-.027 3.238-.077a.89.89 0 0 0 .528-.809.87.87 0 0 0-.663-.837h-.006c-.203-.045-4.926-.046-5.825-.003z"/>
  <path d="M9.063 7.58a2.63 2.63 0 0 0-1.705 1.388 2.4 2.4 0 0 0-.273 1.16c0 .792.33 1.493.957 2.036.235.202.738.453 1.074.535.323.079.874.079 1.197 0a2.7 2.7 0 0 0 1.751-1.393l.007-.016a2.4 2.4 0 0 0 .274-1.16c0-.44-.072-.746-.274-1.161a2.63 2.63 0 0 0-1.7-1.387l-.019-.004a3 3 0 0 0-1.308.007z"/>
</svg>