<svg xmlns="http://www.w3.org/2000/svg" width="26" height="26" fill="currentColor" class="sym sym-image-02" viewBox="0 0 26 26">
  <path d="M17.72 22H8.28c-1.613 0-2.512 0-3.288-.394a3.62 3.62 0 0 1-1.594-1.577C3 19.261 3 18.432 3 16.775v-7.55c0-1.657 0-2.486.398-3.254a3.62 3.62 0 0 1 1.594-1.577C5.768 4 6.667 4 8.28 4h9.438c1.675 0 2.513 0 3.29.394.683.344 1.235.89 1.593 1.577C23 6.739 23 7.568 23 9.225v7.55c0 1.657 0 2.486-.398 3.254a3.57 3.57 0 0 1-1.594 1.577C20.232 22 19.394 22 17.72 22m-9.766-1.82h10.092l-4.658-4.608c-.174-.172-.357-.354-.429-.394.041.04-.153.222-.327.394l-4.668 4.619zm8.161-4.476 4.23 4.184c.265-.172.47-.405.612-.678.194-.384.194-1.111.194-2.425v-.697l-2.339-2.315c-.184-.182-.358-.354-.429-.394.03.04-.143.222-.327.394l-1.961 1.94zM8.281 5.829c-1.328 0-2.063 0-2.452.192a1.8 1.8 0 0 0-.786.779c-.194.384-.194 1.111-.194 2.425v7.55c0 1.324 0 2.041.194 2.426.143.282.357.515.613.677l5.669-5.61c.419-.414.694-.687 1.113-.818a1.78 1.78 0 0 1 1.124 0c.419.131.694.404 1.113.818l.143.142 1.951-1.93c.419-.415.695-.688 1.114-.82a1.8 1.8 0 0 1 1.133 0c.42.132.695.405 1.104.82l1.041 1.03V9.235c0-1.324 0-2.041-.194-2.425a1.77 1.77 0 0 0-.786-.779c-.388-.192-1.124-.192-2.452-.192H8.291zm1.093 7.186c-1.512 0-2.738-1.213-2.738-2.708s1.226-2.709 2.738-2.709 2.737 1.213 2.737 2.709-1.225 2.708-2.737 2.708m0-3.588a.89.89 0 1 0 0 1.779.889.889 0 1 0 0-1.779"/>
</svg>