<svg xmlns="http://www.w3.org/2000/svg" width="26" height="26" fill="currentColor" class="sym sym-image-down-solid" viewBox="0 0 26 26">
  <path d="M18.397 4.022a.9.9 0 0 0-.576.46l-.003.006c-.072.134-.074.175-.084 1.782l-.01 1.642-.591-.583c-.674-.666-.79-.742-1.123-.742-.34 0-.603.162-.764.474-.101.195-.099.53.007.738.109.216 2.74 2.844 2.955 2.954a.92.92 0 0 0 .756 0c.215-.11 2.846-2.738 2.955-2.954.105-.208.108-.543.007-.738-.161-.312-.424-.474-.764-.474-.333 0-.45.076-1.123.742l-.59.583-.011-1.642c-.01-1.606-.012-1.647-.084-1.782-.191-.357-.605-.558-.957-.466"/>
  <path d="M7.514 4.884c-.918.044-1.428.187-1.978.555-.687.459-1.19 1.142-1.369 1.864-.146.589-.147.645-.163 5.567-.014 4.854.004 5.89.113 6.458.16.833.673 1.59 1.413 2.082.574.382 1.02.504 2.053.563.434.024 2.313.033 5.613.023 4.86-.013 4.966-.015 5.27-.084a3.47 3.47 0 0 0 2.362-1.893l.01-.021c.274-.593.341-1.16.313-2.608-.021-1.044-.044-1.208-.23-1.617a2.9 2.9 0 0 0-.555-.791c-.082-.08-.867-.718-1.745-1.418-1.125-.898-1.668-1.309-1.839-1.394-.624-.308-1.346-.2-1.904.286-.975.85-8.107 7.373-8.183 7.482l-.099.144-.1-.06c-.162-.094-.493-.457-.587-.645-.185-.363-.18-.199-.18-5.95s-.005-5.587.18-5.95c.115-.227.446-.569.67-.69.373-.203.288-.198 3.596-.219 2.684-.017 3.052-.026 3.159-.075a.86.86 0 0 0 .515-.788.85.85 0 0 0-.647-.816l-.006-.002c-.198-.043-4.804-.044-5.681-.002z"/>
  <path d="M8.939 7.939a2.56 2.56 0 0 0-1.663 1.353 2.3 2.3 0 0 0-.267 1.132c0 .771.321 1.456.933 1.984.23.198.72.442 1.048.522.315.077.852.077 1.168 0a2.63 2.63 0 0 0 1.708-1.359l.007-.014c.196-.405.267-.705.267-1.132 0-.428-.07-.728-.267-1.132a2.56 2.56 0 0 0-1.66-1.352l-.017-.004a2.9 2.9 0 0 0-1.276.006z"/>
</svg>