<svg xmlns="http://www.w3.org/2000/svg" width="26" height="26" fill="currentColor" class="sym sym-image-indent-left-solid" viewBox="0 0 26 26">
  <path d="M3.65 4.063a1 1 0 0 0-.53.444l-.003.005c-.095.161-.111.233-.111.489s.016.328.11.49c.13.22.307.365.548.45.152.054 1.24.06 9.33.06 10.277 0 9.386.028 9.712-.299a.984.984 0 0 0 0-1.404c-.326-.327.567-.3-9.727-.296-7.856.002-9.195.011-9.33.06zm1.135 3.983c-.367.041-.57.108-.864.285-.415.249-.75.724-.862 1.216-.079.35-.079 6.576 0 6.927.171.71.71 1.26 1.398 1.447l.013.003c.235.066.523.072 3.52.072 3.594 0 3.5.006 3.98-.25a2.25 2.25 0 0 0 .755-.755c.256-.48.25-.387.25-3.98 0-2.997-.006-3.285-.072-3.52a1.98 1.98 0 0 0-1.375-1.397l-.014-.003c-.186-.05-.718-.06-3.324-.07-1.707-.004-3.239.007-3.405.025m10.83 1.297a.99.99 0 0 0-.474 1.384l-.002-.005c.064.118.173.258.24.31.29.22.208.216 3.623.216s3.332.005 3.621-.217c.153-.116.325-.427.361-.653.063-.378-.188-.832-.555-1.01-.168-.082-.22-.083-3.431-.081-2.635 0-3.284.011-3.384.055zm.047 5.492c-.402.147-.639.496-.639.939a.87.87 0 0 0 .32.72c.287.253.105.24 3.664.24 3.201 0 3.254 0 3.422-.081.366-.178.617-.633.555-1.01-.037-.227-.21-.538-.362-.655-.29-.221-.204-.216-3.636-.213-2.645.002-3.193.012-3.324.06m-11.897 5.22c-.75.184-1.017 1.116-.475 1.66.063.062.186.152.274.199l.162.086h18.538l.162-.086c.366-.196.553-.499.553-.895s-.187-.7-.553-.895l-.162-.086-9.189-.006c-5.054-.003-9.243.006-9.31.023"/>
</svg>