<svg xmlns="http://www.w3.org/2000/svg" width="26" height="26" fill="currentColor" class="sym sym-image-left-solid" viewBox="0 0 26 26">
  <path d="M18.4 4.015a1.4 1.4 0 0 0-.23.091l.007-.004c-.185.093-2.826 2.75-2.921 2.937a.91.91 0 0 0 .003.761l-.003-.006c.108.216 2.74 2.846 2.956 2.955.208.106.543.108.739.007.311-.161.474-.424.474-.764 0-.333-.076-.449-.743-1.122l-.584-.591 1.644-.01c1.607-.01 1.648-.013 1.784-.085.314-.168.474-.427.474-.767s-.16-.599-.474-.767c-.135-.072-.176-.074-1.784-.084l-1.644-.01.584-.59c.667-.675.743-.79.743-1.123v-.021c0-.323-.187-.6-.457-.734l-.005-.002a1 1 0 0 0-.563-.07z"/>
  <path d="M7.515 4.877c-.918.044-1.429.187-1.98.555-.686.46-1.188 1.143-1.368 1.865-.146.589-.147.645-.163 5.57-.014 4.855.004 5.893.113 6.46.16.833.673 1.59 1.413 2.083.574.382 1.02.504 2.054.563.434.024 2.313.033 5.614.023 4.862-.013 4.968-.015 5.272-.084a3.48 3.48 0 0 0 2.362-1.894l.01-.021c.274-.593.342-1.16.313-2.609-.02-1.045-.044-1.209-.23-1.617a2.9 2.9 0 0 0-.555-.792c-.082-.08-.868-.718-1.746-1.418-1.124-.899-1.668-1.31-1.839-1.395-.624-.308-1.347-.2-1.904.286-.975.851-8.11 7.376-8.186 7.485l-.098.144-.101-.06c-.162-.094-.492-.457-.587-.645-.184-.363-.18-.199-.18-5.953 0-5.753-.004-5.59.18-5.952.116-.227.446-.569.67-.69.374-.203.289-.198 3.598-.22 2.684-.017 3.052-.025 3.159-.074a.86.86 0 0 0 .515-.789.85.85 0 0 0-.647-.817h-.006c-.197-.044-4.805-.045-5.683-.003z"/>
  <path d="M8.94 7.933a2.56 2.56 0 0 0-1.663 1.354 2.3 2.3 0 0 0-.268 1.132c0 .772.322 1.456.934 1.985.23.198.72.442 1.048.522.315.077.853.077 1.168 0a2.63 2.63 0 0 0 1.709-1.359l.007-.015c.196-.404.267-.704.267-1.132s-.07-.728-.267-1.133a2.56 2.56 0 0 0-1.66-1.352l-.017-.004a2.9 2.9 0 0 0-1.277.006z"/>
</svg>