<svg xmlns="http://www.w3.org/2000/svg" width="26" height="26" fill="currentColor" class="sym sym-image-solid" viewBox="0 0 26 26">
  <path d="M9.181 7.236c-.76.195-1.405.72-1.744 1.42a2.45 2.45 0 0 0-.28 1.189c0 .81.337 1.528.98 2.083.24.207.754.464 1.098.547.33.082.894.082 1.225 0a2.76 2.76 0 0 0 1.792-1.426l.008-.015c.206-.425.28-.74.28-1.189s-.074-.763-.28-1.188a2.69 2.69 0 0 0-1.741-1.42l-.018-.003a3.1 3.1 0 0 0-1.339.007z"/>
  <path fill-rule="evenodd" d="M7.687 4.029c-.963.046-1.499.196-2.076.583-.72.481-1.247 1.199-1.435 1.956-.154.618-.155.677-.171 5.845-.016 5.096.003 6.184.118 6.78.17.885.712 1.676 1.507 2.2.566.373 1.036.508 2.003.573.664.045 9.688.045 10.589 0 1.079-.053 1.548-.179 2.146-.573.79-.52 1.339-1.32 1.507-2.2.105-.546.125-1.561.125-6.196s-.02-5.65-.125-6.195c-.168-.88-.717-1.68-1.507-2.2-.598-.394-1.068-.52-2.146-.573-.77-.039-9.728-.039-10.535 0m11.219 1.84c.108.031.27.093.359.139.222.114.581.468.704.693.215.396.21.305.224 3.7l.013 3.116-1.236-1.224c-1.55-1.533-1.622-1.581-2.37-1.581-.454 0-.575.03-.928.237-.155.09-1.26 1.173-4.442 4.353-2.33 2.329-4.318 4.328-4.418 4.443l-.181.21-.251-.236c-.289-.273-.449-.546-.519-.886-.072-.346-.07-11.327 0-11.67.067-.321.194-.555.444-.815.319-.332.605-.462 1.164-.531.06-.008 2.613-.01 5.673-.008 4.893.005 5.59.011 5.763.061"/>
</svg>