<svg xmlns="http://www.w3.org/2000/svg" width="26" height="26" fill="currentColor" class="sym sym-image-x" viewBox="0 0 26 26">
  <path d="M17.164 22H8.48c-.243 0-.455 0-.647-.01-.809-.03-1.375-.111-1.9-.374a3.52 3.52 0 0 1-1.548-1.548C4 19.309 4 18.449 4 16.89V9.536c0-1.568 0-2.428.384-3.176a3.57 3.57 0 0 1 1.547-1.548c.759-.385 1.618-.385 3.175-.385h4.105c.506 0 .91.405.91.91a.906.906 0 0 1-.91.911H9.106c-1.284 0-1.982 0-2.356.183a1.68 1.68 0 0 0-.748.748c-.182.364-.182 1.072-.182 2.357v7.355c0 1.285 0 1.983.182 2.347.152.294.374.536.657.698.162-.233.405-.455.718-.748l7.391-6.728c.354-.324.607-.556.98-.678a1.87 1.87 0 0 1 1.002-.03c.374.09.627.303 1.021.617l2.447 1.963c.364.293.576.465.768.708.233.303.405.657.496 1.032.07.293.07.576.07 1.042v.475c0 .89 0 1.346-.12 1.79a5 5 0 0 1-.132.406c0 .02-.02.05-.03.07a3.53 3.53 0 0 1-2.336 2.024c-.445.121-.9.121-1.79.121zm-8.048-1.821h7.573c1.092 0 1.699 0 2.022-.142a1.72 1.72 0 0 0 .91-.94c.122-.334.122-.931.122-1.993 0-.334 0-.526-.02-.617a.9.9 0 0 0-.162-.334c-.06-.071-.213-.203-.465-.405l-2.457-1.963c-.142-.111-.243-.202-.324-.253-.08.061-.202.172-.313.274l-6.997 6.363h.09zm.617-7.365a2.663 2.663 0 0 1-2.66-2.66 2.663 2.663 0 0 1 2.66-2.661 2.663 2.663 0 0 1 2.659 2.66 2.663 2.663 0 0 1-2.66 2.661m0-3.5a.837.837 0 0 0-.84.84c0 .465.375.84.84.84s.84-.375.84-.84a.837.837 0 0 0-.84-.84m11.365.88a.95.95 0 0 1-.647-.263l-1.547-1.548-1.547 1.548a.909.909 0 0 1-1.285-1.285l1.547-1.548-1.547-1.548a.909.909 0 0 1 1.284-1.285l1.548 1.548 1.547-1.547a.909.909 0 0 1 1.284 1.284l-1.547 1.548 1.547 1.548a.91.91 0 0 1 0 1.285.9.9 0 0 1-.648.263z"/>
</svg>