<svg xmlns="http://www.w3.org/2000/svg" width="26" height="26" fill="currentColor" class="sym sym-image-right-solid" viewBox="0 0 26 26">
  <path d="M18.4 4.016a.834.834 0 0 0-.648.811v.017c0 .333.076.448.742 1.122l.584.59-1.644.01c-1.606.01-1.648.013-1.783.085-.314.168-.474.427-.474.767s.16.599.474.767c.135.072.176.074 1.783.084l1.644.01-.584.591c-.666.674-.742.79-.742 1.122 0 .34.163.604.474.764.196.101.532.099.739-.007.216-.108 2.846-2.739 2.956-2.954a.74.74 0 0 0 .078-.38v.002L22 7.376a.75.75 0 0 0-.081-.341l.002.004c-.104-.205-2.741-2.845-2.942-2.946-.162-.08-.43-.116-.58-.077"/>
  <path d="M7.515 4.878c-.918.044-1.429.187-1.98.556-.686.458-1.188 1.142-1.368 1.864-.146.589-.147.645-.163 5.569-.014 4.856.004 5.893.113 6.46.16.833.673 1.59 1.413 2.083.574.382 1.02.504 2.053.563.435.024 2.314.033 5.615.023 4.861-.013 4.967-.015 5.271-.084a3.47 3.47 0 0 0 2.362-1.894l.01-.02c.274-.594.341-1.16.313-2.61-.021-1.044-.044-1.208-.23-1.617a2.9 2.9 0 0 0-.555-.792 79 79 0 0 0-1.746-1.418c-1.124-.898-1.668-1.31-1.839-1.394-.624-.308-1.346-.2-1.904.286-.975.85-8.109 7.375-8.185 7.484l-.098.144-.101-.06c-.162-.094-.492-.457-.587-.645-.185-.363-.18-.199-.18-5.952s-.005-5.59.18-5.952c.115-.227.446-.569.67-.69.374-.203.289-.198 3.597-.22 2.684-.017 3.053-.025 3.16-.074a.86.86 0 0 0 .514-.789.85.85 0 0 0-.647-.816l-.005-.002C13 4.838 8.392 4.837 7.515 4.88"/>
  <path d="M8.94 7.934a2.56 2.56 0 0 0-1.664 1.354 2.3 2.3 0 0 0-.267 1.132c0 .771.322 1.456.934 1.985.23.197.72.442 1.048.522.315.077.852.077 1.168 0a2.63 2.63 0 0 0 1.708-1.36l.007-.014c.196-.405.267-.705.267-1.132 0-.428-.07-.728-.267-1.133a2.56 2.56 0 0 0-1.66-1.352l-.017-.004a2.9 2.9 0 0 0-1.276.006z"/>
</svg>