<svg xmlns="http://www.w3.org/2000/svg" width="26" height="26" fill="currentColor" class="sym sym-image-plus-solid" viewBox="0 0 26 26">
  <path d="M18.4 4.022a.9.9 0 0 0-.576.46l-.003.006c-.069.13-.074.193-.084 1.105l-.011.967-.968.01c-.913.01-.975.016-1.106.085-.314.168-.474.428-.474.767 0 .34.16.599.474.767.13.07.193.074 1.106.085l.968.01.01.967c.01.912.016.975.085 1.105.169.314.428.474.768.474s.6-.16.767-.474c.07-.13.075-.193.085-1.105l.011-.966.968-.011c.912-.01.975-.016 1.106-.085.314-.168.474-.427.474-.767s-.16-.599-.474-.767c-.131-.069-.194-.074-1.106-.084l-.968-.011-.01-.967c-.011-.912-.016-.975-.086-1.105-.191-.357-.603-.558-.956-.466"/>
  <path d="M7.515 4.884c-.918.044-1.429.187-1.98.555-.686.459-1.188 1.142-1.368 1.864-.146.589-.147.645-.163 5.567-.014 4.854.004 5.89.113 6.458.16.833.673 1.59 1.413 2.082.574.382 1.02.504 2.054.563.434.024 2.313.033 5.614.023 4.862-.013 4.968-.015 5.272-.084a3.47 3.47 0 0 0 2.362-1.893l.01-.021c.274-.593.342-1.16.313-2.608-.02-1.044-.044-1.208-.23-1.617a2.9 2.9 0 0 0-.555-.791 78 78 0 0 0-1.746-1.418c-1.124-.898-1.668-1.309-1.839-1.394-.624-.308-1.347-.2-1.904.286-.975.85-8.11 7.373-8.186 7.482l-.098.144-.101-.06c-.162-.094-.492-.457-.587-.645-.184-.363-.18-.199-.18-5.95s-.004-5.587.18-5.95c.116-.227.446-.569.67-.69.374-.203.289-.198 3.598-.219 2.684-.017 3.052-.026 3.159-.075a.86.86 0 0 0 .515-.788.85.85 0 0 0-.647-.816l-.006-.002c-.197-.043-4.805-.044-5.683-.002"/>
  <path d="M8.94 7.939a2.56 2.56 0 0 0-1.663 1.353 2.3 2.3 0 0 0-.268 1.132c0 .771.322 1.456.934 1.984.23.198.72.442 1.048.522.315.077.853.077 1.168 0a2.63 2.63 0 0 0 1.709-1.359l.007-.014c.196-.405.267-.705.267-1.132 0-.428-.07-.728-.267-1.132a2.56 2.56 0 0 0-1.66-1.352l-.017-.004a2.9 2.9 0 0 0-1.277.006z"/>
</svg>