<svg xmlns="http://www.w3.org/2000/svg" width="26" height="26" fill="currentColor" class="sym sym-image" viewBox="0 0 26 26">
  <path d="M16.775 22H8.447c-.273 0-.505 0-.708-.02-.747-.03-1.273-.122-1.768-.374a3.55 3.55 0 0 1-1.577-1.577C4 19.261 4 18.432 4 16.775v-7.55c0-1.657 0-2.486.394-3.254a3.55 3.55 0 0 1 1.577-1.577C6.739 4 7.568 4 9.225 4h7.55c1.657 0 2.486 0 3.254.394.688.344 1.223.89 1.577 1.577C22 6.739 22 7.568 22 9.225v7.55c0 1.657 0 2.486-.394 3.254a3.55 3.55 0 0 1-1.577 1.577c-.768.394-1.597.394-3.254.394m-7.863-1.82h7.863c1.324 0 2.041 0 2.426-.191a1.76 1.76 0 0 0 .778-.779c.192-.384.192-1.111.192-2.425v-.697l-3.214-3.214c-.172-.172-.354-.354-.425-.395.03.04-.151.233-.323.395L8.902 20.19zm.323-14.35c-1.324 0-2.041 0-2.425.191a1.76 1.76 0 0 0-.779.779c-.192.384-.192 1.111-.192 2.425v7.55c0 1.324 0 2.041.192 2.426.152.293.374.535.647.707.142-.212.354-.425.627-.698l7.64-7.64c.415-.415.688-.687 1.102-.819a1.85 1.85 0 0 1 1.122 0c.414.132.687.405 1.102.819l1.92 1.92V9.215c0-1.324 0-2.041-.192-2.426a1.76 1.76 0 0 0-.778-.778c-.384-.192-1.112-.192-2.426-.192h-7.55zm.627 6.74a2.709 2.709 0 1 1 0-5.417 2.709 2.709 0 0 1 0 5.417m0-3.597a.89.89 0 0 0-.89.889c0 .495.395.89.89.89s.89-.395.89-.89a.884.884 0 0 0-.89-.89"/>
</svg>