<svg xmlns="http://www.w3.org/2000/svg" width="26" height="26" fill="currentColor" class="sym sym-image-up-solid" viewBox="0 0 26 26">
  <path d="M18.398 4.016c-.087.026-.16.055-.231.091l.007-.004c-.184.093-2.825 2.75-2.92 2.937-.106.208-.108.543-.007.739.161.311.424.474.764.474.333 0 .449-.077 1.123-.743l.59-.583.01 1.643c.011 1.606.013 1.647.085 1.782.168.314.428.474.767.474.34 0 .6-.16.768-.474.072-.134.073-.175.084-1.782l.01-1.643.59.583c.675.666.79.743 1.123.743.34 0 .604-.163.765-.474.101-.196.099-.531-.007-.739-.104-.206-2.74-2.846-2.941-2.947-.163-.08-.43-.116-.58-.077"/>
  <path d="M7.514 4.878c-.918.044-1.428.187-1.978.555-.687.46-1.19 1.143-1.369 1.865-.146.589-.147.645-.163 5.569-.014 4.856.004 5.893.113 6.46.16.833.673 1.59 1.413 2.083.574.382 1.02.504 2.053.563.434.024 2.313.033 5.614.023 4.86-.013 4.966-.015 5.27-.084a3.47 3.47 0 0 0 2.362-1.894l.01-.02c.274-.594.342-1.16.313-2.61-.02-1.044-.044-1.208-.23-1.617a2.9 2.9 0 0 0-.555-.792 78 78 0 0 0-1.745-1.418c-1.125-.898-1.668-1.31-1.84-1.394-.623-.309-1.346-.2-1.903.285-.975.852-8.108 7.376-8.184 7.485l-.099.144-.1-.06c-.162-.094-.492-.457-.587-.645-.185-.363-.18-.199-.18-5.952s-.005-5.59.18-5.952c.115-.227.446-.57.67-.69.373-.203.288-.198 3.597-.22 2.683-.017 3.051-.025 3.158-.074a.87.87 0 0 0 .515-.789.85.85 0 0 0-.647-.816l-.005-.002c-.198-.043-4.805-.044-5.682-.002"/>
  <path d="M8.94 7.934a2.56 2.56 0 0 0-1.664 1.353 2.3 2.3 0 0 0-.267 1.133c0 .771.322 1.456.934 1.985.229.197.72.442 1.048.522.314.077.852.077 1.167 0a2.63 2.63 0 0 0 1.708-1.36l.007-.014a2.3 2.3 0 0 0 .268-1.133c0-.427-.07-.727-.268-1.132a2.56 2.56 0 0 0-1.659-1.352l-.017-.004a2.9 2.9 0 0 0-1.276.006z"/>
</svg>