<svg xmlns="http://www.w3.org/2000/svg" width="26" height="26" fill="currentColor" class="sym sym-inbox-02" viewBox="0 0 26 26">
  <path d="M18.255 22h-10.5c-1.838 0-2.766 0-3.604-.435a3.92 3.92 0 0 1-1.717-1.719C2 18.996 2 18.076 2 16.236V9.764c0-1.84 0-2.77.424-3.61a3.92 3.92 0 0 1 1.716-1.72C4.978 4 5.907 4 7.745 4h10.5c1.838 0 2.767 0 3.604.435a3.92 3.92 0 0 1 1.717 1.719c.434.85.434 1.77.434 3.61v6.472c0 1.84 0 2.77-.424 3.61a3.92 3.92 0 0 1-1.716 1.72c-.838.434-1.767.434-3.605.434M3.817 13.91v2.326c0 1.507 0 2.326.233 2.78.201.405.525.719.928.931.455.233 1.283.233 2.777.233h10.5c1.505 0 2.322 0 2.777-.233a2.12 2.12 0 0 0 .928-.93c.233-.455.233-1.284.233-2.781V13.91h-3.009a.9.9 0 0 0-.818.506 2.73 2.73 0 0 1-2.443 1.517h-5.816a2.71 2.71 0 0 1-2.443-1.517.91.91 0 0 0-.818-.506zm3.01-1.82c1.039 0 1.978.576 2.442 1.517a.91.91 0 0 0 .818.505h5.816a.9.9 0 0 0 .818-.505 2.73 2.73 0 0 1 2.443-1.517h3.009V9.764c0-1.507 0-2.326-.233-2.78a2.12 2.12 0 0 0-.928-.931c-.455-.233-1.283-.233-2.777-.233h-10.5c-1.505 0-2.322 0-2.777.233a2.12 2.12 0 0 0-.929.93c-.232.455-.232 1.284-.232 2.781v2.326z"/>
</svg>