<svg xmlns="http://www.w3.org/2000/svg" width="26" height="26" fill="currentColor" class="sym sym-inbox" viewBox="0 0 26 26">
  <path d="M7.75 22c-1.836 0-2.764 0-3.601-.435a3.9 3.9 0 0 1-1.715-1.719C2 18.996 2 18.076 2 16.236v-2.093c0-.486 0-.739.04-.971.04-.253.091-.496.172-.718.08-.253.191-.475.393-.88l2.19-4.389c.514-1.031.796-1.597 1.27-2.062a3.9 3.9 0 0 1 1.473-.91C8.163 4 8.788 4 9.938 4h6.123c1.15 0 1.786 0 2.401.212a4.1 4.1 0 0 1 1.473.91c.474.466.756 1.032 1.27 2.063l2.19 4.38c.201.414.313.626.403.889.07.212.131.455.162.708.03.242.04.485.04.98v2.094c0 1.84 0 2.77-.424 3.61a3.9 3.9 0 0 1-1.715 1.72c-.837.434-1.765.434-3.6.434zm-3.934-8.09v2.326c0 1.507 0 2.326.232 2.78.201.405.524.719.928.931.454.233 1.28.233 2.774.233h10.49c1.503 0 2.32 0 2.774-.233a2.12 2.12 0 0 0 .928-.93c.232-.455.232-1.284.232-2.781V13.91h-3.006a.9.9 0 0 0-.817.506 2.72 2.72 0 0 1-2.44 1.517H10.1a2.7 2.7 0 0 1-2.441-1.517.91.91 0 0 0-.817-.506zm.565-1.82h2.45c1.04 0 1.978.576 2.442 1.517a.91.91 0 0 0 .817.505h5.81a.9.9 0 0 0 .817-.505 2.72 2.72 0 0 1 2.441-1.517h2.451l-2.037-4.085c-.444-.88-.656-1.325-.918-1.578a2.2 2.2 0 0 0-.787-.496c-.333-.11-.827-.11-1.816-.11H9.928c-.988 0-1.472 0-1.815.11a2.2 2.2 0 0 0-.797.496c-.252.253-.474.688-.918 1.567L4.36 12.08z"/>
</svg>