<svg xmlns="http://www.w3.org/2000/svg" width="26" height="26" fill="currentColor" class="sym sym-inbox-02-solid" viewBox="0 0 26 26">
  <path d="M5.841 4.036c-.876.06-1.506.262-2.128.681q-.623.452-1.041 1.073l-.01.015C2.102 6.666 2 7.255 2 9.659c0 1.591.015 1.714.24 1.985.065.081.205.19.31.24l.19.094 2.32.023c2.592.027 2.521.019 3.101.32.521.27.891.632 1.206 1.179.083.144.208.288.31.36l.171.12h6.307l.171-.12c.102-.072.228-.216.31-.36.315-.547.685-.908 1.206-1.178.58-.301.51-.294 3.1-.32l2.321-.024.19-.094a.95.95 0 0 0 .494-.595l.002-.007c.054-.183.06-.45.042-1.92-.02-1.866-.048-2.167-.266-2.797-.226-.657-.841-1.449-1.435-1.848-.65-.435-1.236-.617-2.22-.684-.678-.045-13.549-.044-14.232.003zM2.88 14.037c-.374.05-.623.231-.773.562-.075.163-.084.277-.099 1.22-.018 1.215.042 2.578.135 3.063.188.983.79 1.863 1.673 2.445.665.438 1.187.577 2.385.636.964.05 12.638.05 13.602 0 1.199-.059 1.72-.198 2.385-.636.862-.567 1.462-1.429 1.66-2.382.103-.489.169-1.904.148-3.165-.015-.902-.025-1.019-.098-1.181a.98.98 0 0 0-.489-.494l-.006-.002c-.176-.082-.228-.084-2.34-.084h-2.161l-.18.107c-.136.079-.223.177-.34.38-.34.58-.762.976-1.327 1.24-.555.259-.458.253-4.053.253-3.596 0-3.499.006-4.054-.253-.565-.264-.987-.66-1.326-1.24-.118-.204-.205-.301-.34-.38l-.18-.107-2-.006c-1.101-.003-2.1.008-2.222.024"/>
</svg>