<svg xmlns="http://www.w3.org/2000/svg" width="26" height="26" fill="currentColor" class="sym sym-inbox-solid" viewBox="0 0 26 26">
  <path d="M8.418 4.04c-1.173.111-2.196.728-2.866 1.73-.246.367-2.75 5.322-2.837 5.615-.042.139-.039.184.021.311.14.295.027.28 2.459.306 2.437.027 2.386.02 2.963.32.521.27.891.632 1.206 1.179.083.144.208.288.31.36l.17.12h6.31l.17-.12c.103-.072.228-.216.31-.36.316-.547.686-.908 1.207-1.178.577-.3.526-.294 2.96-.32 1.597-.018 2.205-.037 2.266-.072a.6.6 0 0 0 .154-.155l.002-.002c.163-.25.168-.237-1.23-3.03-.745-1.49-1.409-2.768-1.544-2.972-.69-1.031-1.68-1.617-2.934-1.734-.548-.051-8.554-.05-9.098.002zm-5.542 9.998c-.375.05-.624.23-.774.562-.073.162-.084.279-.099 1.18-.018 1.19.043 2.628.133 3.102.188.978.783 1.85 1.663 2.44.653.437 1.198.582 2.398.641.965.05 12.64.05 13.606 0 1.198-.059 1.72-.198 2.384-.636.863-.567 1.463-1.428 1.662-2.382.102-.488.168-1.904.147-3.164-.015-.902-.025-1.02-.098-1.181a.98.98 0 0 0-.488-.494l-.006-.002c-.177-.082-.229-.084-2.342-.084h-2.161l-.18.107c-.136.079-.223.176-.34.379-.34.581-.762.977-1.327 1.24-.555.26-.458.254-4.055.254s-3.5.006-4.054-.253c-.565-.264-.988-.66-1.327-1.241-.117-.203-.204-.3-.34-.379l-.18-.107-2-.006c-1.101-.003-2.1.008-2.222.024"/>
</svg>