<svg xmlns="http://www.w3.org/2000/svg" width="26" height="26" fill="currentColor" class="sym sym-infinity-solid" viewBox="0 0 26 26">
  <path fill-rule="evenodd" d="M7.116 9.033c-1.52.189-2.663 1.326-3.038 3.022-.104.474-.104 1.431 0 1.906.197.888.602 1.635 1.174 2.16q.615.567 1.481.794c.288.076.375.084.924.085.683.002.953-.037 1.568-.224 1.13-.344 2.055-.935 3.225-2.063l.549-.528.583.558c1.104 1.056 1.988 1.634 3.034 1.984.639.215 1.019.274 1.727.272.552 0 .636-.009.933-.087 1.364-.358 2.305-1.41 2.646-2.951.104-.475.104-1.432 0-1.907-.194-.88-.607-1.642-1.164-2.15q-1.134-1.035-2.828-.882a5 5 0 0 0-1.295.262c-1.027.334-1.994.966-3.086 2.018l-.548.528-.55-.528c-.845-.815-1.524-1.314-2.315-1.703-.975-.479-2.07-.685-3.019-.566m1.066 1.615c1.069.157 2.027.726 3.27 1.938.22.215.4.405.4.423 0 .02-.201.23-.45.47-1.364 1.32-2.378 1.865-3.58 1.924-.678.034-1.064-.098-1.477-.5-.3-.292-.487-.625-.612-1.085-.074-.272-.085-.376-.085-.81 0-.433.01-.537.085-.81.243-.892.815-1.457 1.597-1.576.189-.028.56-.017.852.026m10.76.031c.638.196 1.113.742 1.325 1.52.074.272.085.376.085.81s-.01.537-.085.81c-.125.46-.312.793-.612 1.084-.413.403-.8.535-1.476.5-1.201-.059-2.212-.6-3.581-1.921-.249-.24-.45-.452-.45-.473 0-.052.832-.851 1.212-1.163q1.221-1.002 2.425-1.197c.337-.054.932-.039 1.157.03"/>
</svg>