<svg xmlns="http://www.w3.org/2000/svg" width="26" height="26" fill="currentColor" class="sym sym-infinity" viewBox="0 0 26 26">
  <path d="M17.998 17c-2.123 0-3.618-1.298-5.003-2.712C11.6 15.683 9.973 17 7.689 17 5.263 17 4 14.99 4 13c0-1.005.313-1.961.88-2.683C5.555 9.468 6.546 9 7.688 9c2.284 0 3.911 1.317 5.306 2.712C14.38 10.298 15.875 9 17.998 9 20.625 9 22 11.01 22 13c0 1.024-.354 1.99-.99 2.712-.738.84-1.78 1.288-3.012 1.288m-3.76-4c1.213 1.249 2.325 2.244 3.76 2.244 1.718 0 2.183-1.415 2.183-2.244s-.455-2.244-2.183-2.244c-1.435 0-2.547.995-3.76 2.244M7.69 10.756c-1.476 0-1.87 1.415-1.87 2.244s.394 2.244 1.87 2.244c1.617 0 2.85-1.015 4.063-2.244-1.213-1.23-2.446-2.244-4.063-2.244"/>
</svg>