<svg xmlns="http://www.w3.org/2000/svg" width="26" height="26" fill="currentColor" class="sym sym-info-octagon-solid" viewBox="0 0 26 26">
  <path fill-rule="evenodd" d="M9.237 3.039a2 2 0 0 0-.431.151l.013-.005c-.218.101-.441.316-2.88 2.752-2.479 2.477-2.65 2.656-2.75 2.878-.054.12-.104.263-.142.411l-.004.019c-.057.27-.057 7.235 0 7.506.022.106.088.299.146.428.1.222.273.403 2.75 2.881s2.659 2.65 2.88 2.75c.13.058.323.124.429.147.27.057 7.234.057 7.504 0 .106-.022.3-.088.429-.146.221-.1.403-.273 2.88-2.75 2.477-2.479 2.65-2.66 2.75-2.882.058-.13.123-.322.146-.428.057-.271.057-7.236 0-7.506a2.6 2.6 0 0 0-.153-.446l.007.016c-.1-.222-.271-.4-2.75-2.878-2.442-2.44-2.662-2.65-2.88-2.751a2.2 2.2 0 0 0-.437-.147l-.015-.003c-.276-.05-7.227-.047-7.493.003zm4.182 5.513c.648.333.65 1.283.004 1.614-.592.305-1.332-.144-1.332-.806 0-.35.261-.73.584-.85.21-.076.551-.058.743.041zm-.11 3.595c.23.08.46.31.54.54.052.156.06.407.06 2.128 0 2.207.002 2.18-.272 2.456a.893.893 0 0 1-1.274 0c-.276-.275-.273-.25-.273-2.456s-.003-2.18.273-2.456a.89.89 0 0 1 .951-.21z"/>
</svg>