<svg xmlns="http://www.w3.org/2000/svg" width="26" height="26" fill="currentColor" class="sym sym-info-square-solid" viewBox="0 0 26 26">
  <path fill-rule="evenodd" d="M5.901 3.01c-.895.076-1.483.327-2.015.859-.49.491-.758 1.065-.841 1.808-.06.538-.06 14.091 0 14.628.058.523.197.942.431 1.297.527.803 1.252 1.245 2.217 1.353.537.06 14.077.06 14.614 0 .965-.108 1.69-.55 2.217-1.353.234-.355.372-.774.431-1.297.06-.537.06-14.09 0-14.628-.058-.522-.197-.941-.431-1.296q-.68-1.036-1.865-1.307c-.25-.057-1.04-.066-7.439-.07a1017 1017 0 0 0-7.565.008h.248zm7.525 5.07c.743.386.766 1.422.038 1.796-.65.335-1.465-.159-1.465-.888 0-.385.288-.804.643-.935.213-.078.605-.064.784.028m-.087 3.976c.252.087.507.342.594.595.057.17.066.448.066 2.342 0 2.429.003 2.4-.3 2.702a.98.98 0 0 1-1.402 0c-.302-.302-.299-.273-.299-2.702 0-2.43-.003-2.4.3-2.704a.97.97 0 0 1 1.047-.23z"/>
</svg>