<svg xmlns="http://www.w3.org/2000/svg" width="26" height="26" fill="currentColor" class="sym sym-info-default-solid" viewBox="0 0 26 26">
  <path fill-rule="evenodd" d="M12.154 3.022c-2.047.2-3.827.912-5.436 2.179-.42.33-1.362 1.302-1.704 1.758-1.053 1.405-1.687 2.938-1.947 4.714-.09.611-.09 2.046 0 2.658.26 1.774.893 3.306 1.947 4.714.414.552 1.39 1.528 1.943 1.942 1.408 1.053 2.94 1.685 4.715 1.946.612.09 2.048.09 2.66 0 1.775-.26 3.307-.893 4.715-1.946.552-.414 1.528-1.39 1.943-1.942 1.053-1.408 1.686-2.94 1.947-4.714.047-.324.063-.667.063-1.33 0-.662-.016-1.004-.064-1.328-.26-1.776-.894-3.31-1.947-4.714-.341-.456-1.283-1.428-1.703-1.758-1.455-1.144-3.052-1.84-4.845-2.105-.577-.085-1.77-.124-2.288-.074m1.183 4.865c.682.232.885 1.113.38 1.65-.346.366-.97.393-1.363.059-.411-.353-.457-1.007-.1-1.43.241-.287.709-.407 1.083-.28m.041 3.36a1.85 1.85 0 0 1 1.045 1.663v.004c0 .123-.139.747-.382 1.725-.21.843-.383 1.537-.383 1.542 0 .004.096.008.213.01a.975.975 0 0 1 .918.693l.002.007c.069.246.024.6-.1.799-.147.238-.322.363-.673.486-.69.24-1.38.08-1.89-.435a1.8 1.8 0 0 1-.546-1.296c0-.127.134-.733.382-1.728.21-.843.383-1.54.383-1.55s-.047-.008-.104.005c-.18.035-.535-.09-.721-.254a.997.997 0 0 1 .188-1.635c.325-.17.523-.21.954-.199.396.012.418.016.716.164z"/>
</svg>