<svg xmlns="http://www.w3.org/2000/svg" width="26" height="26" fill="currentColor" class="sym sym-info-circle-solid" viewBox="0 0 26 26">
  <path fill-rule="evenodd" d="M12.154 3.022c-2.047.2-3.827.912-5.436 2.179-.42.33-1.362 1.302-1.704 1.758-1.053 1.405-1.687 2.938-1.947 4.714-.09.611-.09 2.046 0 2.658.26 1.774.893 3.306 1.947 4.714.414.552 1.39 1.528 1.943 1.942 1.408 1.053 2.94 1.685 4.715 1.946.612.09 2.048.09 2.66 0 1.775-.26 3.307-.893 4.715-1.946.552-.414 1.528-1.39 1.943-1.942 1.053-1.408 1.686-2.94 1.947-4.714.047-.324.063-.667.063-1.33 0-.662-.016-1.004-.064-1.328-.26-1.776-.894-3.31-1.947-4.714-.341-.456-1.283-1.428-1.703-1.758-1.455-1.144-3.052-1.84-4.845-2.105-.577-.085-1.77-.124-2.288-.074m1.236 5.512c.678.35.698 1.293.035 1.633-.593.305-1.334-.144-1.334-.808 0-.35.262-.73.585-.85.195-.071.552-.059.714.025m-.079 3.617c.23.08.462.31.541.54.053.156.06.408.06 2.132 0 2.21.003 2.184-.272 2.459a.895.895 0 0 1-1.277 0c-.276-.275-.273-.25-.273-2.46s-.003-2.183.273-2.46a.89.89 0 0 1 .954-.209z"/>
</svg>