<svg xmlns="http://www.w3.org/2000/svg" width="26" height="26" fill="currentColor" class="sym sym-info-circle" viewBox="0 0 26 26">
  <path d="M13 23C7.486 23 3 18.514 3 13S7.486 3 13 3s10 4.486 10 10-4.486 10-10 10m0-18.349c-4.605 0-8.349 3.744-8.349 8.349S8.395 21.349 13 21.349s8.349-3.744 8.349-8.349S17.605 4.651 13 4.651m0 12.844a.82.82 0 0 1-.826-.825V13c0-.459.367-.826.826-.826s.826.367.826.826v3.67a.82.82 0 0 1-.826.825m0-7.339a.83.83 0 0 1-.835-.826c0-.458.367-.825.826-.825s.825.367.825.825a.82.82 0 0 1-.825.826z"/>
</svg>