<svg xmlns="http://www.w3.org/2000/svg" width="26" height="26" fill="currentColor" class="sym sym-info-square" viewBox="0 0 26 26">
  <path d="M17.2 22.9H8.8c-1.82 0-2.74 0-3.57-.43a3.88 3.88 0 0 1-1.7-1.7c-.43-.83-.43-1.75-.43-3.57V8.8c0-1.82 0-2.74.43-3.57.38-.74.97-1.33 1.7-1.7.83-.43 1.75-.43 3.57-.43h8.4c1.82 0 2.74 0 3.57.43.74.38 1.33.97 1.7 1.7.43.83.43 1.75.43 3.57v8.4c0 1.82 0 2.74-.43 3.57a3.88 3.88 0 0 1-1.7 1.7c-.83.43-1.75.43-3.57.43m-8.4-18c-1.49 0-2.3 0-2.75.23-.4.2-.72.52-.92.92-.23.45-.23 1.27-.23 2.75v8.4c0 1.49 0 2.3.23 2.75.2.4.52.71.92.92.45.23 1.27.23 2.75.23h8.4c1.49 0 2.3 0 2.75-.23.4-.2.72-.52.92-.92.23-.45.23-1.27.23-2.75V8.8c0-1.49 0-2.3-.23-2.75-.2-.4-.52-.71-.92-.92-.45-.23-1.27-.23-2.75-.23zm4.2 13c-.5 0-.9-.4-.9-.9v-4c0-.5.4-.9.9-.9s.9.4.9.9v4c0 .5-.4.9-.9.9m0-8c-.5 0-.9-.4-.9-.9s.4-.9.9-.9.9.4.9.9-.4.9-.9.9"/>
</svg>