<svg xmlns="http://www.w3.org/2000/svg" width="26" height="26" fill="currentColor" class="sym sym-info-default" viewBox="0 0 26 26">
  <path d="M13 8.379a.78.78 0 0 0-.78.78v.007c0 .43.35.78.78.78h.008a.78.78 0 0 0 .78-.78v-.008a.78.78 0 0 0-.78-.78zm1.12 4.894c.32-1.283-1.012-2.351-2.194-1.76l-.043.021a.78.78 0 0 0 .49 1.464.142.142 0 0 1 .164.175l-.656 2.627c-.321 1.283 1.01 2.352 2.194 1.76l.042-.02a.78.78 0 0 0-.49-1.465.142.142 0 0 1-.164-.175z"/>
  <path fill-rule="evenodd" d="M13 3C7.477 3 3 7.477 3 13s4.477 10 10 10 10-4.477 10-10S18.523 3 13 3M4.559 13a8.441 8.441 0 1 1 16.882 0 8.441 8.441 0 0 1-16.882 0"/>
</svg>