<svg xmlns="http://www.w3.org/2000/svg" width="26" height="26" fill="currentColor" class="sym sym-info-octagon" viewBox="0 0 26 26">
  <path d="M16.19 23H9.81c-.256 0-.421 0-.623-.046a1.6 1.6 0 0 1-.504-.21c-.184-.111-.303-.23-.495-.423l-4.51-4.514c-.201-.201-.32-.32-.421-.495a1.35 1.35 0 0 1-.211-.532C3 16.624 3 16.45 3 16.183V9.807c0-.266 0-.44.055-.651.028-.156.11-.349.23-.523.073-.128.192-.248.347-.404l4.556-4.56c.183-.183.302-.302.477-.412.165-.101.339-.174.513-.211C9.388 3 9.554 3 9.81 3h6.38c.256 0 .421 0 .623.046.183.046.348.11.504.21.183.111.303.23.495.423l4.51 4.514c.201.202.32.32.421.495.092.129.175.321.211.532.046.156.046.33.046.597v6.376c0 .266 0 .44-.055.651-.027.156-.11.349-.23.523-.073.128-.192.248-.348.404l-4.555 4.56c-.183.183-.302.302-.477.412a1.7 1.7 0 0 1-.513.211c-.21.046-.376.046-.632.046m-6.38-1.651h6.636a1 1 0 0 0 .193-.184l4.51-4.523c.1-.1.146-.147.174-.183.018-.083.009-.156.009-.266V9.569c-.037-.064-.083-.101-.147-.165l-4.546-4.55c-.092-.093-.138-.148-.183-.184-.074-.01-.138 0-.266 0H9.554c-.055.036-.11.091-.193.183l-4.51 4.523c-.1.101-.146.147-.174.184-.018.082-.009.156-.009.266v6.623c.037.065.083.101.147.166l4.546 4.55c.092.092.138.147.183.184.074.009.138 0 .266 0M13 17.495a.82.82 0 0 1-.825-.825V13c0-.459.367-.826.825-.826s.825.367.825.826v3.67a.82.82 0 0 1-.825.825m0-7.339a.83.83 0 0 1-.834-.826c0-.458.367-.825.825-.825s.825.367.825.825a.82.82 0 0 1-.825.826z"/>
</svg>