<svg xmlns="http://www.w3.org/2000/svg" width="26" height="26" fill="currentColor" class="sym sym-interactive" viewBox="0 0 26 26">
  <path d="M22.25 11c0-1.656-.001-2.84-.098-3.756-.083-.79-.233-1.315-.472-1.725l-.108-.17a3.8 3.8 0 0 0-.66-.721l-.26-.2c-.435-.304-.993-.485-1.896-.58-.917-.097-2.1-.098-3.756-.098h-4c-1.656 0-2.84.001-3.756.098-.79.083-1.315.233-1.725.472l-.17.108a3.8 3.8 0 0 0-.721.66l-.2.26c-.304.435-.485.993-.58 1.896-.097.917-.098 2.1-.098 3.756s.001 2.84.098 3.756c.095.903.276 1.461.58 1.895l.2.26q.317.377.72.661l.17.108c.41.24.936.389 1.726.472.917.097 2.1.098 3.756.098h4c1.656 0 2.84-.001 3.756-.098.903-.095 1.461-.276 1.895-.58l.26-.2q.377-.317.661-.72l.108-.17c.24-.41.389-.936.472-1.726.097-.917.098-2.1.098-3.756m-10.044 8.75a4.74 4.74 0 0 1-.338 2.5h2.264a4.74 4.74 0 0 1-.338-2.5zm-3.818-5.184c2.055-2.9 6.73-3.17 9.016-.28l.214.29.04.065a.75.75 0 0 1-1.23.844l-.046-.06-.152-.207c-1.64-2.066-5.11-1.912-6.618.216a.75.75 0 0 1-1.224-.868M14.25 9a1.25 1.25 0 1 0-2.5 0 1.25 1.25 0 0 0 2.5 0m9.5 2c0 1.623.001 2.9-.105 3.913-.095.899-.28 1.656-.666 2.32l-.178.279a5.3 5.3 0 0 1-1.105 1.153l-.184.136c-.728.51-1.572.735-2.599.844-.948.1-2.125.104-3.6.104-.17.857.015 1.777.47 2.38l.091.121H18a.75.75 0 0 1 0 1.5H8a.75.75 0 0 1 0-1.5h2.126l.09-.12.098-.14c.383-.601.529-1.448.373-2.241-1.476 0-2.653-.005-3.6-.104-.899-.095-1.656-.28-2.32-.666l-.279-.178a5.3 5.3 0 0 1-1.153-1.105l-.136-.184c-.51-.728-.735-1.572-.844-2.599C2.25 13.9 2.25 12.623 2.25 11s-.001-2.9.105-3.913c.109-1.027.334-1.87.844-2.599l.136-.184a5.3 5.3 0 0 1 1.153-1.105l.28-.178c.663-.386 1.42-.57 2.319-.666C8.1 2.25 9.377 2.25 11 2.25h4c1.623 0 2.9-.001 3.913.105 1.027.109 1.87.334 2.599.844l.184.136c.425.326.797.714 1.105 1.153l.178.28c.386.663.57 1.42.666 2.319.106 1.013.105 2.29.105 3.913m-8-2a2.75 2.75 0 1 1-5.5 0 2.75 2.75 0 0 1 5.5 0"/>
</svg>