<svg xmlns="http://www.w3.org/2000/svg" width="26" height="26" fill="currentColor" class="sym sym-italic-solid" viewBox="0 0 26 26">
  <path d="M10.654 5.06a.95.95 0 0 0-.652.775L10 5.839a.92.92 0 0 0 .522.933l.005.002.2.096 3.816.038-5.252 13.204h-1.73c-1.873 0-1.923.005-2.207.21a1.2 1.2 0 0 0-.24.267l-.004.005c-.095.152-.111.22-.111.462 0 .241.016.31.111.461.061.098.17.221.244.273.305.219.063.21 5.132.21 5.233 0 4.893.019 5.212-.283a.908.908 0 0 0-.252-1.498c-.19-.089-.198-.089-2.098-.108l-1.907-.02 5.252-13.203h1.728c1.962 0 1.988-.003 2.284-.283A.9.9 0 0 0 21 5.943a.9.9 0 0 0-.294-.662c-.319-.301.025-.283-5.227-.28-3.948.002-4.694.01-4.827.057z"/>
</svg>