<svg xmlns="http://www.w3.org/2000/svg" width="26" height="26" fill="currentColor" class="sym sym-key-solid" viewBox="0 0 26 26">
  <path fill-rule="evenodd" d="M15.032 4.035a6.33 6.33 0 0 0-5.277 4.171l-.013.044a6.6 6.6 0 0 0-.266 3.105l-.005-.037.043.283-2.556 2.562c-1.407 1.41-2.606 2.635-2.665 2.724a2.6 2.6 0 0 0-.187.361l-.006.017c-.084.214-.086.237-.097 1.623-.012 1.544.006 1.748.197 2.14.125.257.51.643.769.769.381.185.569.203 2.18.203 1.681 0 1.715-.003 1.98-.268.221-.222.269-.398.269-1.015V20.2h.515c.618 0 .794-.047 1.016-.27.222-.222.27-.397.27-1.015V18.4h.515c.786 0 .703.048 1.777-1.018l.907-.9.281.043a6.6 6.6 0 0 0 3.114-.286l-.047.015a6.31 6.31 0 0 0 4.201-6.761C21.53 6.378 18.89 4 15.693 4q-.349 0-.689.037zm1.333 3.646a2.73 2.73 0 0 1 2.02 2.412l.001.01c.03.378-.043.612-.254.825a.897.897 0 0 1-1.218.052l.001.001q-.264-.218-.319-.707c-.048-.43-.243-.693-.607-.822a1 1 0 0 0-.286-.054h-.002c-.476 0-.902-.425-.902-.901 0-.346.26-.723.58-.841.186-.068.69-.056.987.025z"/>
</svg>