<svg xmlns="http://www.w3.org/2000/svg" width="26" height="26" fill="currentColor" class="sym sym-key" viewBox="0 0 26 26">
  <path d="M8.56 21.9H6.42c-.6 0-.96 0-1.34-.2-.34-.17-.63-.46-.79-.8-.19-.36-.19-.74-.19-1.33v-1.54c0-.3 0-.46.04-.6 0-.04.02-.08.03-.11.04-.13.1-.29.2-.45.12-.19.25-.32.43-.49l4.53-4.53c.14-.14.21-.2.25-.26-.03 0-.04-.12-.07-.29l-.02-.14a6 6 0 0 1-.06-.83c0-3.44 2.8-6.23 6.24-6.23s6.23 2.8 6.23 6.23-2.79 6.23-6.23 6.23q-.435 0-.84-.06c-.26-.04-.4-.06-.5-.06.03.01-.02.06-.09.13l-1.5 1.5a.9.9 0 0 1-.64.26h-.88v.88c0 .5-.4.9-.9.9h-.87v.88c0 .5-.4.9-.9.9zm-2.68-4.06s.02.07.02.19v1.54c0 .24 0 .5.02.57 0-.05.26-.05.5-.05h1.24v-.88c0-.5.4-.9.9-.9h.87v-.88c0-.5.4-.9.9-.9h1.41l1.25-1.25c.18-.18.32-.31.51-.42.2-.11.37-.17.61-.21.25-.04.47 0 .92.05.23.03.43.04.64.04 2.44 0 4.43-1.99 4.43-4.43s-1.99-4.43-4.43-4.43-4.44 1.99-4.44 4.43c0 .21.02.41.04.6l.02.13c.05.37.08.59.04.83-.03.18-.07.36-.2.59-.12.21-.27.37-.48.58l-4.6 4.6c-.11.1-.16.16-.18.18zm11.56-6.61c-.5 0-.9-.4-.9-.9a.87.87 0 0 0-.87-.88c-.5 0-.9-.4-.9-.9s.4-.9.9-.9c.71 0 1.4.29 1.89.79.5.49.78 1.17.78 1.89 0 .5-.4.9-.9.9"/>
</svg>