<svg xmlns="http://www.w3.org/2000/svg" width="26" height="26" fill="currentColor" class="sym sym-keyboard" viewBox="0 0 26 26">
  <path d="M7.56 18.7c-1 0-1.55 0-2.09-.27-.47-.24-.85-.62-1.09-1.08-.28-.55-.28-1.11-.28-2.11v-4.48c0-1 0-1.55.26-2.09.26-.49.64-.87 1.1-1.1.55-.27 1.1-.27 2.1-.27h10.88c1 0 1.55 0 2.09.27.47.24.84.61 1.09 1.08.28.55.28 1.11.28 2.11v4.48c0 1 0 1.55-.26 2.09-.26.49-.63.86-1.09 1.1-.55.27-1.1.27-2.1.27zm0-9.6c-.68 0-1.13 0-1.29.08-.12.06-.23.17-.31.32-.06.13-.06.61-.06 1.26v4.48c0 .66 0 1.13.08 1.29.06.12.17.23.31.3.15.07.6.07 1.28.07h10.88c.68 0 1.13 0 1.29-.08.12-.06.23-.17.31-.32.06-.13.06-.61.06-1.26v-4.48c0-.66 0-1.13-.08-1.29a.8.8 0 0 0-.3-.3c-.15-.08-.6-.08-1.28-.08H7.57zm8.65 6.4c-.5 0-.91-.4-.91-.9s.4-.9.9-.9.9.4.9.9-.4.9-.9.9zm-3.2 0c-.5 0-.91-.4-.91-.9s.4-.9.9-.9.9.4.9.9-.4.9-.9.9zm-3.2 0c-.5 0-.91-.4-.91-.9s.4-.9.89-.9h.01c.5 0 .9.4.9.9s-.4.9-.9.9zm8-3.2c-.5 0-.91-.4-.91-.9s.4-.9.89-.9h.01c.5 0 .9.4.9.9s-.4.9-.9.9zm-3.2 0c-.5 0-.91-.4-.91-.9s.4-.9.89-.9h.01c.5 0 .9.4.9.9s-.4.9-.9.9zm-3.2 0c-.5 0-.91-.4-.91-.9s.4-.9.9-.9.9.4.9.9-.4.9-.9.9zm-3.2 0c-.5 0-.91-.4-.91-.9s.4-.9.9-.9.9.4.9.9-.4.9-.9.9z"/>
</svg>