<svg xmlns="http://www.w3.org/2000/svg" width="26" height="26" fill="currentColor" class="sym sym-keyboard-solid" viewBox="0 0 26 26">
  <path fill-rule="evenodd" d="M6.374 7.508c-.732.059-1.214.257-1.65.675-.401.386-.62.837-.688 1.421-.048.415-.048 6.363 0 6.778.048.41.162.74.353 1.02.431.63 1.025.978 1.814 1.063.44.047 13.155.047 13.595 0 .427-.046.77-.155 1.06-.34.656-.414 1.017-.984 1.106-1.743.048-.416.048-6.363 0-6.779-.048-.41-.162-.74-.353-1.019a2.4 2.4 0 0 0-1.526-1.027c-.206-.045-.913-.051-6.905-.056-3.671-.002-6.734 0-6.806.006zm2.067 3.198c.608.303.627 1.117.031 1.411-.532.264-1.199-.125-1.199-.698 0-.302.236-.631.526-.735.175-.06.496-.05.642.022m3.272 0c.609.303.627 1.117.031 1.411-.532.264-1.198-.125-1.198-.698 0-.302.235-.631.525-.735.175-.06.496-.05.642.022m3.273 0c.608.303.627 1.117.031 1.411-.532.264-1.199-.125-1.199-.698 0-.302.236-.631.527-.735.175-.06.495-.05.641.022m3.272 0c.608.303.627 1.117.031 1.411-.532.264-1.199-.125-1.199-.698 0-.302.236-.631.527-.735.175-.06.495-.05.641.022m-8.181 3.147c.608.302.627 1.117.031 1.41-.532.264-1.198-.124-1.198-.697 0-.303.235-.632.525-.735.175-.061.496-.05.642.022m3.272 0c.609.302.627 1.117.031 1.41-.532.264-1.198-.124-1.198-.697 0-.303.235-.632.525-.735.175-.061.496-.05.642.022m3.273 0c.608.302.627 1.117.031 1.41-.532.264-1.199-.124-1.199-.697 0-.303.236-.632.527-.735.175-.061.495-.051.641.021"/>
</svg>