<svg xmlns="http://www.w3.org/2000/svg" width="26" height="26" fill="currentColor" class="sym sym-laptop-solid" viewBox="0 0 26 26">
  <path d="M7.189 5.509c-.311.027-.637.09-.827.164-.619.238-1.203.856-1.397 1.482-.14.455-.15.713-.15 4.253 0 3.787-.012 3.587.246 3.85.265.27-.428.25 7.94.25 8.366 0 7.673.021 7.939-.25.257-.263.245-.063.245-3.85 0-3.54-.01-3.798-.15-4.253-.189-.609-.76-1.227-1.36-1.469-.462-.187-.135-.178-6.494-.183a815 815 0 0 0-6.193.007h.202zM4.666 17.21c-.09.014-.21.05-.265.078a1 1 0 0 0-.36.411c-.061.153-.054.477.02.817.2.95.906 1.691 1.81 1.923l.018.003c.205.054.684.058 7.111.058 6.428 0 6.907-.004 7.111-.058a2.5 2.5 0 0 0 1.825-1.91l.003-.016c.074-.34.081-.663.02-.816a.95.95 0 0 0-.409-.434l-.005-.002-.147-.07-8.283-.004c-4.556-.003-8.357.007-8.448.02z"/>
</svg>