<svg xmlns="http://www.w3.org/2000/svg" width="26" height="26" fill="currentColor" class="sym sym-laptop" viewBox="0 0 26 26">
  <path d="M18.886 20.305H7.146c-.56 0-.86 0-1.18-.09-.86-.23-1.54-.91-1.77-1.77-.09-.32-.09-.62-.09-1.18 0-.3 0-.49.06-.71.11-.42.38-.78.74-1v-6.4c0-1.01 0-1.56.27-2.1.24-.47.62-.85 1.09-1.09.53-.27 1.09-.27 2.09-.27h9.28c1.01 0 1.56 0 2.1.27.47.24.85.62 1.09 1.09.27.54.27 1.09.27 2.1v6.4c.36.23.63.58.74 1 .06.21.06.41.06.71 0 .56 0 .86-.09 1.18-.23.86-.91 1.54-1.77 1.77-.32.09-.62.09-1.18.09zm-12.97-3.2v.17c0 .35 0 .62.02.71.06.24.25.43.49.5.09.02.37.02.71.02h11.73c.35 0 .62 0 .71-.02.24-.06.43-.25.5-.5.02-.09.02-.36.02-.71v-.17zm13.4-1.8v-6.14c0-.65 0-1.13-.08-1.28a.7.7 0 0 0-.31-.31c-.15-.08-.62-.08-1.28-.08h-9.27c-.65 0-1.13 0-1.28.08-.13.07-.24.17-.31.31-.08.15-.08.62-.08 1.28v6.14z"/>
</svg>