<svg xmlns="http://www.w3.org/2000/svg" width="26" height="26" fill="currentColor" class="sym sym-layers-two-solid" viewBox="0 0 26 26">
  <path d="M12.56 4.045c-.091.032-2.522 1.263-5.399 2.736-4.204 2.154-5.263 2.712-5.387 2.844-.393.414-.359 1.12.075 1.511.089.08 2.345 1.259 5.39 2.816 5.71 2.919 5.495 2.822 6.022 2.725.213-.038 1.231-.543 5.5-2.725 3.044-1.557 5.3-2.735 5.39-2.816.438-.394.469-1.104.065-1.518-.132-.135-1.197-.697-5.475-2.886l-5.312-2.717-.351-.013c-.216-.007-.414.008-.518.043"/>
  <path d="M2.506 14.52c-.305.16-.614.346-.684.415-.32.306-.396.85-.178 1.26a1.2 1.2 0 0 0 .245.322c.07.053 2.495 1.31 5.39 2.79L12.54 22h.918l5.262-2.693c2.895-1.48 5.32-2.736 5.39-2.79s.18-.199.245-.322c.225-.423.14-.97-.2-1.275-.086-.077-.4-.264-.697-.417l-.54-.277-4.3 2.2c-3.277 1.675-4.385 2.222-4.656 2.3-.295.084-.456.102-.941.103-.97.003-.733.105-5.64-2.405 4.199 1.92 2.785 1.187 1.37.458l-5.68-2.654c-.005 0-.259.132-.564.292z"/>
</svg>