<svg xmlns="http://www.w3.org/2000/svg" width="26" height="26" fill="currentColor" class="sym sym-layers-three-solid" viewBox="0 0 26 26">
  <path d="M12.655 4.035c-.272.092-8.32 4.175-8.412 4.268a.82.82 0 0 0 .007 1.153c.061.06 1.706.907 4.261 2.194l4.162 2.096h.652l4.162-2.096c2.555-1.287 4.2-2.135 4.261-2.194a.817.817 0 0 0 0-1.159c-.06-.06-1.704-.906-4.256-2.191l-4.156-2.094-.275-.01a1.4 1.4 0 0 0-.405.033z"/>
  <path d="M4.538 12.23a.84.84 0 0 0-.497.51c-.107.327 0 .71.255.904.059.044 1.956 1.011 4.216 2.148 4.422 2.225 4.296 2.168 4.676 2.101.146-.025 1.1-.492 4.298-2.1 2.26-1.138 4.158-2.106 4.216-2.149a.84.84 0 0 0 .294-.547v-.004l.004-.08a.825.825 0 0 0-.912-.824h.004c-.115.012-1.106.498-4.122 2.018l-3.97 2-3.974-2.002c-4.364-2.199-4.12-2.09-4.487-1.973z"/>
  <path d="M4.647 16.335a.815.815 0 0 0-.334 1.434l.002.001c.066.045 1.973 1.015 4.238 2.156L12.673 22h.652l4.119-2.074c2.265-1.141 4.172-2.111 4.238-2.156.373-.255.41-.873.074-1.213a.76.76 0 0 0-.548-.231h-.012l-.205-.005-7.992 4.028-3.974-2.003c-2.901-1.462-4.013-2.007-4.118-2.019a1 1 0 0 0-.266.008z"/>
</svg>