<svg xmlns="http://www.w3.org/2000/svg" width="26" height="26" fill="currentColor" class="sym sym-layers-two" viewBox="0 0 26 26">
  <path d="M12.983 21.901c-.09 0-.17 0-.25-.02-.21-.04-.36-.12-.53-.2l-10.36-5.18a.906.906 0 0 1-.4-1.21c.22-.44.76-.62 1.21-.4l10.35 5.17 10.35-5.17c.44-.22.98-.04 1.21.4.22.44.04.98-.4 1.21l-10.37 5.18c-.17.09-.32.16-.52.2-.09.02-.18.02-.27.02zm0-5.38c-.09 0-.17 0-.25-.02-.21-.04-.36-.12-.53-.2l-10.36-5.18a.89.89 0 0 1-.5-.81c0-.35.19-.65.5-.81l10.37-5.18c.17-.09.32-.16.52-.2.18-.03.36-.03.53 0 .21.04.36.12.53.2l10.36 5.18c.31.15.5.46.5.81s-.19.65-.5.81l-10.37 5.18c-.17.09-.32.16-.52.2-.09.02-.18.02-.27.02zm-8.74-6.21 8.74 4.37 8.74-4.37-8.74-4.37z"/>
</svg>