<svg xmlns="http://www.w3.org/2000/svg" width="26" height="26" fill="currentColor" class="sym sym-layers-three" viewBox="0 0 26 26">
  <path d="M13 21.901c-.08 0-.15 0-.23-.02-.18-.03-.31-.1-.45-.17l-7.77-3.88a.906.906 0 0 1-.4-1.21c.22-.44.76-.63 1.21-.4l7.64 3.82 7.65-3.82c.44-.22.98-.04 1.21.4.22.44.04.98-.4 1.21l-7.76 3.88c-.15.07-.28.14-.45.17-.08.01-.16.02-.24.02zm0-4.02c-.09 0-.18 0-.26-.03-.16-.03-.3-.1-.44-.17l-7.76-3.88a.906.906 0 0 1-.4-1.21c.22-.44.76-.62 1.21-.4l7.66 3.83 7.63-3.83c.44-.22.98-.04 1.21.4.22.44.04.98-.4 1.21l-7.76 3.88c-.13.07-.27.14-.46.17-.07.02-.15.02-.23.02zm0-4.02c-.08 0-.16 0-.24-.02-.19-.04-.32-.1-.45-.17l-7.76-3.88a.89.89 0 0 1-.5-.81c0-.35.19-.65.5-.81l7.76-3.88c.14-.07.27-.14.45-.17.16-.03.32-.03.47 0 .18.03.31.1.44.16l7.77 3.89c.31.15.5.46.5.81s-.19.65-.5.81l-7.76 3.88c-.13.06-.26.13-.44.17-.08.02-.17.02-.25.02zm-6.03-4.88 6.03 3.02 6.04-3.02-6.03-3.02z"/>
</svg>