<svg xmlns="http://www.w3.org/2000/svg" width="26" height="26" fill="currentColor" class="sym sym-layout-grid-02-solid" viewBox="0 0 26 26">
  <path d="M6.613 4.01c-.346.029-.702.098-.911.177-.681.257-1.324.925-1.537 1.6C4.045 6.17 4 6.632 4 7.492c0 .692.005.743.084.913.1.213.32.422.515.492.2.07 6.655.074 6.89.003.188-.057.416-.257.523-.455.077-.145.079-.179.09-1.892.01-1.924.005-1.99-.209-2.247a1 1 0 0 0-.275-.213l-.005-.003-.171-.084L9.1 4.002c-1.29-.002-2.408.002-2.487.009zm8.09.01c-.337.046-.558.207-.699.507-.074.157-.076.208-.076 1.948 0 1.56.008 1.801.058 1.911a1 1 0 0 0 .406.444l.148.079 6.759.02.18-.078a.94.94 0 0 0 .463-.463c.05-.108.057-.265.052-1.03-.009-1.255-.084-1.619-.445-2.159-.296-.442-.767-.829-1.22-1-.464-.176-.592-.184-3.086-.197-1.288-.006-2.432 0-2.541.016zM4.666 10.8a.88.88 0 0 0-.589.502l-.002.005c-.05.11-.057.335-.057 1.695s.007 1.587.057 1.695a1 1 0 0 0 .406.444l.149.08h6.847l.149-.08a1 1 0 0 0 .406-.444c.05-.108.057-.334.057-1.695s-.007-1.586-.057-1.695a1 1 0 0 0-.402-.44l-.004-.003-.149-.08-3.352-.005c-1.843-.003-3.4.006-3.459.021m9.911 0a.88.88 0 0 0-.59.502l-.001.005c-.05.11-.058.335-.058 1.695s.008 1.587.058 1.695a1 1 0 0 0 .406.444l.148.08h6.848l.148-.08a1 1 0 0 0 .407-.444c.05-.108.057-.334.057-1.695s-.007-1.586-.057-1.695a1 1 0 0 0-.402-.44l-.005-.003-.148-.08-3.352-.005c-1.844-.003-3.4.006-3.46.021M4.52 17.163a.93.93 0 0 0-.442.45l-.002.007c-.049.106-.057.268-.052 1.028.01 1.223.083 1.6.411 2.11.297.46.79.873 1.248 1.046.492.187.602.193 3.254.195 2.437.003 2.471.002 2.631-.073a.9.9 0 0 0 .445-.441l.002-.006c.074-.157.076-.208.076-1.948 0-1.559-.008-1.802-.058-1.911a1 1 0 0 0-.401-.441l-.005-.003-.149-.079-6.775-.018zm10.057-.051a.89.89 0 0 0-.59.502l-.001.005c-.05.11-.058.352-.058 1.912 0 1.739.002 1.79.076 1.948.09.2.247.356.441.445l.006.002c.16.075.194.075 2.63.073 2.648-.003 2.763-.01 3.25-.193.451-.171.923-.559 1.218-1 .362-.54.436-.904.446-2.16.005-.758-.003-.92-.052-1.027a.93.93 0 0 0-.44-.453l-.005-.003-.182-.084-3.316.003c-1.823.002-3.364.015-3.424.03"/>
</svg>