<svg xmlns="http://www.w3.org/2000/svg" width="26" height="26" fill="currentColor" class="sym sym-layout-alt-02" viewBox="0 0 26 26">
  <path d="M16.735 21.905h-7.47c-1.64 0-2.46 0-3.22-.39-.68-.34-1.21-.88-1.56-1.56-.39-.76-.39-1.58-.39-3.22v-7.47c0-1.64 0-2.46.39-3.22.34-.68.88-1.21 1.56-1.56.76-.39 1.58-.39 3.22-.39h7.47c1.64 0 2.46 0 3.22.39.68.34 1.21.88 1.56 1.56.39.76.39 1.58.39 3.22v7.47c0 1.64 0 2.46-.39 3.22-.34.68-.88 1.21-1.56 1.56-.76.39-1.58.39-3.22.39m-5.5-1.8h5.5c1.31 0 2.02 0 2.4-.19.34-.17.6-.44.77-.77.19-.38.19-1.1.19-2.4v-7.47c0-1.31 0-2.02-.19-2.4-.17-.34-.44-.6-.77-.77-.38-.19-1.1-.19-2.4-.19h-5.5v14.2zm-1.97-14.2c-1.31 0-2.02 0-2.4.19-.34.17-.6.44-.77.77-.19.38-.19 1.1-.19 2.4v7.47c0 1.31 0 2.02.19 2.4.17.34.44.6.77.77.38.19 1.1.19 2.4.19h.17v-14.2h-.17zm8.62 10.67h-4.45c-.5 0-.9-.4-.9-.9s.4-.9.9-.9h4.45c.5 0 .9.4.9.9s-.4.9-.9.9m0-3.56h-4.45c-.5 0-.9-.4-.9-.9s.4-.9.9-.9h4.45c.5 0 .9.4.9.9s-.4.9-.9.9m0-3.55h-4.45c-.5 0-.9-.4-.9-.9s.4-.9.9-.9h4.45c.5 0 .9.4.9.9s-.4.9-.9.9"/>
</svg>