<svg xmlns="http://www.w3.org/2000/svg" width="26" height="26" fill="currentColor" class="sym sym-layout-top-solid" viewBox="0 0 26 26">
  <path d="M6.61 4.009c-.342.029-.7.098-.91.178-.68.256-1.322.924-1.535 1.6C4.04 6.184 4 6.635 4 7.674c0 1.08.024 1.205.27 1.452.291.292-.47.27 8.73.27s8.439.023 8.73-.27c.246-.247.27-.372.27-1.452 0-1.432-.084-1.908-.427-2.43a2.65 2.65 0 0 0-1.679-1.179c-.224-.051-.936-.059-6.696-.063a913 913 0 0 0-6.81.008h.223zm-1.818 7.225a.83.83 0 0 0-.699.506c-.075.162-.075.174-.073 3.985 0 4.129 0 4.09.193 4.604.232.616.858 1.243 1.468 1.473.545.207.203.198 7.319.198s6.774.009 7.319-.198c.61-.23 1.236-.858 1.468-1.473.193-.514.192-.475.193-4.604.003-3.811.003-3.824-.073-3.985a.9.9 0 0 0-.44-.445l-.006-.002-.162-.076-8.154-.004c-4.484-.003-8.243.007-8.352.021z"/>
</svg>