<svg xmlns="http://www.w3.org/2000/svg" width="26" height="26" fill="currentColor" class="sym sym-layout-left" viewBox="0 0 26 26">
  <path d="M16.775 22.286h-7.55c-1.597 0-2.486 0-3.254-.407a3.66 3.66 0 0 1-1.577-1.627C4 19.46 4 18.605 4 16.895v-7.79c0-1.71 0-2.565.394-3.357A3.6 3.6 0 0 1 5.971 4.12c.768-.407 1.647-.407 3.254-.407h7.55c1.597 0 2.486 0 3.254.407a3.66 3.66 0 0 1 1.577 1.627C22 6.54 22 7.395 22 9.105v7.79c0 1.71 0 2.565-.394 3.357a3.6 3.6 0 0 1-1.577 1.627c-.768.407-1.647.407-3.254.407m-5.559-1.877h5.559c1.314 0 2.041 0 2.426-.198.343-.178.606-.46.778-.803.192-.397.192-1.147.192-2.503v-7.79c0-1.365 0-2.106-.192-2.502a1.8 1.8 0 0 0-.778-.803c-.385-.198-1.112-.198-2.426-.198h-5.559v14.807zM9.226 5.602c-1.315 0-2.042 0-2.426.198a1.8 1.8 0 0 0-.779.803c-.192.396-.192 1.147-.192 2.502v7.79c0 1.366 0 2.106.192 2.502.172.355.445.626.779.803.384.198 1.111.198 2.425.198h.172V5.591h-.172z"/>
</svg>