<svg xmlns="http://www.w3.org/2000/svg" width="26" height="26" fill="currentColor" class="sym sym-layout-alt-04-solid" viewBox="0 0 26 26">
  <path d="M6.615 4.01c-.81.068-1.337.294-1.816.773-.443.442-.683.958-.758 1.627-.055.484-.055 12.683 0 13.167.021.19.078.472.126.624.224.71.924 1.41 1.634 1.634.464.146.83.165 3.238.165 2.579 0 2.528.005 2.802-.27.293-.292.27.47.27-8.737 0-9.003.014-8.411-.216-8.689a1 1 0 0 0-.275-.213l-.005-.003-.171-.084L9.1 4c-1.288-.002-2.407.003-2.486.01m8.091.01c-.337.046-.559.207-.7.507-.074.161-.075.183-.075 3.512s0 3.352.076 3.513c.09.2.247.356.44.445l.006.002c.162.075.183.075 3.514.075s3.352 0 3.514-.075a.9.9 0 0 0 .444-.441l.002-.006c.075-.16.076-.194.073-2.63-.002-2.651-.008-2.762-.195-3.253-.23-.61-.858-1.237-1.472-1.47-.465-.175-.593-.183-3.087-.196-1.288-.006-2.43 0-2.54.016m0 9.909c-.336.045-.559.206-.7.506-.074.162-.075.183-.075 3.513s0 3.351.076 3.513a.9.9 0 0 0 .44.444l.006.002c.16.075.195.076 2.63.073 2.653-.003 2.763-.009 3.255-.195.611-.23 1.237-.858 1.47-1.472.184-.486.19-.6.192-3.248.003-2.435.002-2.47-.073-2.63a.9.9 0 0 0-.44-.444l-.006-.002c-.16-.075-.19-.076-3.37-.081-1.764-.003-3.296.007-3.405.021"/>
</svg>