<svg xmlns="http://www.w3.org/2000/svg" width="26" height="26" fill="currentColor" class="sym sym-layout-grid-solid" viewBox="0 0 26 26">
  <path d="M6.613 4.009c-.345.03-.702.098-.911.178-.681.256-1.324.924-1.537 1.6-.146.464-.165.83-.165 3.24 0 2.582-.005 2.531.27 2.805.28.281.11.27 3.785.27 3.674 0 3.504.011 3.785-.27.28-.281.27-.111.27-3.788 0-3.566.005-3.472-.216-3.739a1 1 0 0 0-.275-.214l-.005-.002-.171-.085L9.1 4.001c-1.289-.002-2.407.001-2.487.008m8.091.009c-.337.047-.559.209-.7.508-.074.162-.075.184-.075 3.517 0 3.334 0 3.356.076 3.517.09.2.247.356.44.445l.006.002c.162.075.183.076 3.514.076s3.353 0 3.515-.076a.9.9 0 0 0 .444-.441l.002-.006c.075-.16.076-.195.073-2.633-.002-2.655-.008-2.765-.195-3.257-.23-.612-.858-1.238-1.472-1.471-.465-.176-.594-.184-3.088-.197-1.288-.006-2.43 0-2.54.016m-9.911 9.921c-.336.045-.56.206-.7.506-.075.16-.075.195-.073 2.634.003 2.65.01 2.764.193 3.251.232.616.859 1.243 1.47 1.474.491.187.601.193 3.254.195 2.437.003 2.471.002 2.631-.073a.9.9 0 0 0 .445-.441l.002-.006c.075-.161.075-.183.075-3.517s0-3.355-.075-3.517a.9.9 0 0 0-.441-.444l-.006-.002c-.16-.076-.19-.076-3.37-.082-1.764-.002-3.297.008-3.405.022m9.911 0c-.336.045-.559.206-.7.506-.074.162-.075.184-.075 3.517 0 3.334 0 3.356.076 3.517.09.2.247.357.44.445l.006.002c.16.075.195.076 2.631.073 2.653-.002 2.763-.008 3.255-.195.61-.23 1.237-.859 1.47-1.474.184-.486.19-.6.192-3.251.003-2.439.002-2.473-.073-2.634a.9.9 0 0 0-.44-.444l-.006-.002c-.16-.076-.19-.076-3.37-.082-1.765-.002-3.297.008-3.406.022"/>
</svg>