<svg xmlns="http://www.w3.org/2000/svg" width="26" height="26" fill="currentColor" class="sym sym-layout-right-solid" viewBox="0 0 26 26">
  <path d="M6.614 4.01c-.805.068-1.337.294-1.816.773-.442.442-.682.958-.757 1.628-.055.483-.055 12.682 0 13.166.052.47.177.847.388 1.167.475.722 1.128 1.12 1.997 1.217.225.025 1.623.039 3.964.039 4.086 0 3.87.013 4.153-.27.293-.292.27.47.27-8.737 0-9.002.014-8.41-.215-8.688a1 1 0 0 0-.275-.214l-.006-.002-.17-.085-3.694-.003c-2.032-.002-3.759.002-3.838.009m10.791.01c-.338.048-.559.208-.699.507l-.075.162v16.609l.075.162c.09.199.247.355.441.444l.006.002c.154.072.213.076 1.28.07 1.184-.005 1.487-.035 1.897-.19.614-.232 1.241-.858 1.472-1.469.206-.544.197-.203.197-7.324 0-5.915-.006-6.567-.059-6.827a2.5 2.5 0 0 0-.392-.968 2.57 2.57 0 0 0-1.676-1.123l-.016-.002c-.314-.058-2.144-.098-2.45-.054"/>
</svg>