<svg xmlns="http://www.w3.org/2000/svg" width="26" height="26" fill="currentColor" class="sym sym-layout-alt-04" viewBox="0 0 26 26">
  <path d="M16.735 21.905h-7.47c-1.58 0-2.46 0-3.22-.39-.67-.34-1.21-.88-1.56-1.56-.39-.76-.39-1.58-.39-3.22v-7.47c0-1.64 0-2.46.39-3.22.34-.68.88-1.21 1.56-1.56.76-.39 1.63-.39 3.22-.39h7.47c1.58 0 2.46 0 3.22.39.67.34 1.21.88 1.56 1.56.39.76.39 1.58.39 3.22v7.47c0 1.64 0 2.46-.39 3.22-.34.68-.88 1.21-1.56 1.56-.76.39-1.63.39-3.22.39m-2.83-1.8h2.83c1.3 0 2.02 0 2.4-.19.34-.17.6-.44.77-.77.19-.38.19-1.1.19-2.4v-2.83h-6.2v6.2zm-4.63-14.2c-1.3 0-2.02 0-2.4.19-.34.17-.6.44-.77.77-.19.38-.19 1.1-.19 2.4v7.47c0 1.31 0 2.02.19 2.4.17.34.44.6.77.77.38.19 1.1.19 2.4.19h2.83v-14.2h-2.83zm4.63 6.2h6.2v-2.83c0-1.31 0-2.02-.19-2.4-.17-.34-.44-.6-.77-.77-.38-.19-1.1-.19-2.4-.19h-2.83v6.2z"/>
</svg>