<svg xmlns="http://www.w3.org/2000/svg" width="26" height="26" fill="currentColor" class="sym sym-layout-alt-03-solid" viewBox="0 0 26 26">
  <path d="M6.61 4.01c-.806.068-1.336.294-1.815.774C4.191 5.389 4 6.005 4 7.33c0 .63.034.764.238.956.24.225-.446.209 8.762.209s8.522.016 8.762-.21c.204-.19.237-.326.238-.955.002-1.062-.109-1.603-.426-2.086a2.65 2.65 0 0 0-1.68-1.178c-.224-.051-.936-.059-6.696-.063a914 914 0 0 0-6.811.008z"/>
  <path fill-rule="evenodd" d="M4.791 10.333a.83.83 0 0 0-.699.506c-.075.162-.075.167-.074 4.436.002 4.622-.002 4.535.194 5.054.232.616.858 1.243 1.468 1.473.545.207.203.198 7.32.198s6.775.009 7.32-.198c.61-.23 1.236-.858 1.468-1.473.197-.519.192-.432.194-5.054.001-4.27.001-4.274-.075-4.436a.9.9 0 0 0-.44-.445l-.006-.002-.162-.076-8.155-.005c-4.485-.002-8.244.008-8.353.022m13.485 2.722a.94.94 0 0 1 .47.425c.259.47.04 1.06-.47 1.274-.187.078-10.365.078-10.552 0a.94.94 0 0 1-.467-.421l-.003-.005c-.256-.466-.045-1.051.462-1.27.178-.079 10.375-.08 10.56-.003m0 3.607a.94.94 0 0 1 .47.425c.259.47.04 1.06-.47 1.273-.187.079-10.365.079-10.552 0a.94.94 0 0 1-.467-.42l-.003-.005c-.256-.466-.045-1.051.462-1.27.178-.079 10.375-.08 10.56-.003"/>
</svg>