<svg xmlns="http://www.w3.org/2000/svg" width="26" height="26" fill="currentColor" class="sym sym-layout-left-solid" viewBox="0 0 26 26">
  <path d="M6.614 3.725c-.818.076-1.336.304-1.815.799-.443.456-.683.989-.758 1.679-.055.499-.055 13.083 0 13.582.097.897.495 1.57 1.218 2.06.522.354.998.44 2.428.44 1.08 0 1.205-.024 1.45-.277.293-.302.27.485.27-9.014 0-9.287.014-8.676-.215-8.963a1 1 0 0 0-.275-.22l-.006-.003c-.165-.084-.2-.087-1.162-.092a26 26 0 0 0-1.175.01zm5.388.012a.84.84 0 0 0-.7.523l-.075.167V21.56l.075.168c.09.205.248.367.441.458l.006.002c.161.078.173.078 3.982.076 4.125 0 4.086 0 4.6-.2.614-.24 1.241-.885 1.472-1.515.206-.563.197-.21.197-7.556 0-7.347.009-6.994-.197-7.556-.23-.63-.858-1.276-1.472-1.516-.497-.194-.471-.192-4.438-.203-2.032-.006-3.783.002-3.892.017z"/>
</svg>