<svg xmlns="http://www.w3.org/2000/svg" width="26" height="26" fill="currentColor" class="sym sym-layout-bottom-solid" viewBox="0 0 26 26">
  <path d="M6.61 4.01c-.342.029-.7.098-.91.177-.68.257-1.322.925-1.535 1.6C4.01 6.278 4 6.557 4 10.38c0 4.089-.013 3.873.27 4.156.292.293-.47.27 8.73.27s8.438.024 8.73-.27c.283-.283.27-.067.27-4.156 0-3.823-.01-4.102-.165-4.593-.208-.657-.837-1.325-1.495-1.586-.508-.202-.149-.192-7.142-.198a913 913 0 0 0-6.81.008h.223zM4.792 16.644a.83.83 0 0 0-.699.506c-.072.154-.075.213-.07 1.28.006 1.486.067 1.808.445 2.375.295.442.766.83 1.218 1 .538.204.206.195 7.313.195 7.115 0 6.774.009 7.32-.198.61-.23 1.235-.858 1.467-1.473.154-.409.184-.713.19-1.899.005-1.067.002-1.125-.07-1.28a.9.9 0 0 0-.441-.445l-.006-.002-.162-.076-8.153-.005c-4.485-.003-8.243.008-8.352.022"/>
</svg>