<svg xmlns="http://www.w3.org/2000/svg" width="26" height="26" fill="currentColor" class="sym sym-layout-alt-02-solid" viewBox="0 0 26 26">
  <path d="M6.614 4.01c-.818.074-1.336.295-1.815.775-.443.442-.683.958-.758 1.627-.055.484-.055 12.68 0 13.164.097.87.495 1.523 1.218 1.997.522.343.998.427 2.428.427 1.08 0 1.205-.024 1.45-.27.293-.292.27.47.27-8.736 0-9 .014-8.41-.215-8.687a1 1 0 0 0-.275-.213L8.91 4.09c-.165-.082-.2-.084-1.162-.089a27 27 0 0 0-1.175.01z"/>
  <path fill-rule="evenodd" d="M12.002 4.022c-.338.046-.56.207-.7.507l-.075.162v16.606l.075.162c.09.2.248.356.441.444l.006.003c.161.075.173.075 3.982.073 4.125 0 4.086 0 4.6-.194.614-.232 1.241-.858 1.472-1.468.206-.546.197-.204.197-7.324s.009-6.779-.197-7.324c-.23-.61-.858-1.236-1.472-1.468-.497-.189-.471-.187-4.438-.198-2.032-.005-3.783.003-3.892.017zm7.675 3.643c.218.1.352.232.455.448a.897.897 0 0 1-.45 1.202l-.005.002c-.158.073-.222.073-3.063.074h-2.9l-.181-.085a.88.88 0 0 1-.52-.802v-.013c0-.359.191-.658.52-.814l.18-.084h2.901c2.841 0 2.905 0 3.063.072m0 3.603c.218.1.352.232.455.448a.897.897 0 0 1-.45 1.202l-.005.002c-.158.072-.222.073-3.063.074h-2.9l-.181-.085a.88.88 0 0 1-.52-.802v-.013c0-.36.191-.658.52-.814l.18-.085h2.901c2.841 0 2.905.002 3.063.073m0 3.602c.218.1.352.232.455.448a.897.897 0 0 1-.45 1.202l-.005.002c-.158.072-.222.073-3.063.074h-2.9l-.181-.085a.88.88 0 0 1-.52-.803v-.013c0-.359.191-.658.52-.814l.18-.084h2.901c2.841 0 2.905.002 3.063.073"/>
</svg>