<svg xmlns="http://www.w3.org/2000/svg" width="26" height="26" fill="currentColor" class="sym sym-left-indent" viewBox="0 0 26 26">
  <path d="M21.165 21H4.817a.81.81 0 1 1 0-1.618h16.348a.81.81 0 1 1 0 1.618M5.27 17.494h-.018c-.39 0-.744-.188-.98-.494-.264-.324-.264-.72-.264-1.303v-5.214c0-.593 0-.98.282-1.321a1.24 1.24 0 0 1 .962-.477h.018c.436 0 .754.243 1.208.576l3.515 2.606c.309.234.581.432.708.773.118.27.118.62-.018.926-.118.315-.372.504-.7.737L6.47 16.91c-.445.333-.772.575-1.199.575zm.373-6.831v4.854l3.27-2.427zm15.539 5.618h-8.174a.81.81 0 1 1 0-1.618h8.174a.81.81 0 1 1 0 1.618m0-4.944h-8.174a.81.81 0 1 1 0-1.618h8.174a.81.81 0 1 1 0 1.618m0-4.719H4.836a.81.81 0 1 1 0-1.618h16.347a.81.81 0 1 1 0 1.618"/>
</svg>