<svg xmlns="http://www.w3.org/2000/svg" width="26" height="26" fill="currentColor" class="sym sym-left-indent-solid" viewBox="0 0 26 26">
  <path d="M4.596 5.056a.9.9 0 0 0-.477.395l-.002.004c-.086.143-.1.207-.1.435 0 .227.014.291.1.435a.9.9 0 0 0 .492.4c.137.048 1.115.054 8.391.054 9.244 0 8.442.024 8.736-.266a.867.867 0 0 0 0-1.248c-.294-.29.51-.266-8.75-.263-7.065.002-8.269.01-8.39.053zm.424 3.642c-.21.054-.462.196-.618.35-.217.215-.33.473-.37.854-.043.407-.043 5.985 0 6.392.06.543.295.9.742 1.113.19.09.255.102.557.104.314 0 .362-.009.577-.113.26-.126 4.377-3.161 4.607-3.395.079-.08.189-.237.244-.348.089-.179.1-.24.1-.557s-.011-.379-.1-.557a1.6 1.6 0 0 0-.245-.35v.002c-.224-.23-4.347-3.268-4.6-3.392a1 1 0 0 0-.484-.122h-.022.001l-.103-.003q-.151 0-.296.023zm7.636 1.052a.88.88 0 0 0-.536.806c0 .154.04.299.11.424l-.002-.005c.058.105.156.23.217.275.265.2.064.192 4.608.192s4.342.008 4.607-.192c.137-.103.292-.38.325-.581.056-.336-.17-.74-.499-.898-.152-.072-.184-.073-4.437-.072-3.498.001-4.303.01-4.393.05m.043 4.882a.85.85 0 0 0-.575.835.77.77 0 0 0 .287.64c.263.227-.033.214 4.647.214 4.243 0 4.277-.001 4.429-.073.33-.158.555-.563.499-.898-.033-.201-.189-.478-.325-.582-.267-.2-.061-.192-4.621-.189-3.551.002-4.222.01-4.341.053M4.7 19.271c-.675.163-.915.992-.427 1.475a1.2 1.2 0 0 0 .246.177l.145.077h16.674l.145-.077c.33-.174.498-.443.498-.795s-.168-.621-.498-.796l-.145-.076-8.264-.006c-4.546-.002-8.314.006-8.374.021"/>
</svg>