<svg xmlns="http://www.w3.org/2000/svg" width="26" height="26" fill="currentColor" class="sym sym-letter-spacing" viewBox="0 0 26 26">
  <path d="M21.09 22a.906.906 0 0 1-.91-.91V4.91c0-.506.404-.91.91-.91s.91.404.91.91v16.18c0 .506-.404.91-.91.91M4.91 22a.906.906 0 0 1-.91-.91V4.91c0-.506.405-.91.91-.91.506 0 .91.404.91.91v16.18c0 .506-.404.91-.91.91m12.58-3.6a.92.92 0 0 1-.83-.536L15.276 14.8h-4.54L9.35 17.864a.915.915 0 0 1-1.203.455.92.92 0 0 1-.455-1.203l3.833-8.444c.293-.627.455-.981.88-1.193a1.4 1.4 0 0 1 1.193-.01c.444.222.606.586.87 1.132l3.862 8.525a.907.907 0 0 1-.83 1.284zm-5.936-5.41h2.892L13 9.804z"/>
</svg>