<svg xmlns="http://www.w3.org/2000/svg" width="26" height="26" fill="currentColor" class="sym sym-letter-spacing-solid" viewBox="0 0 26 26">
  <path d="M4.59 4.051a.9.9 0 0 0-.477.4l-.002.004-.1.17L4 12.923c-.005 5.64.004 8.344.029 8.438.054.2.244.43.44.532a.885.885 0 0 0 1.054-.155c.296-.294.27.509.27-8.738 0-9.244.025-8.443-.269-8.737a.9.9 0 0 0-.941-.21zm16.329-.024a.96.96 0 0 0-.605.484l-.003.005-.078.145v16.68l.078.145c.176.33.449.498.806.498s.629-.168.805-.498l.078-.145V4.66l-.078-.145c-.2-.375-.633-.586-1.003-.489"/>
  <path fill-rule="evenodd" d="M12.608 7.413c-.394.126-.619.342-.865.83a774 774 0 0 0-2.119 4.63c-1.982 4.354-2.002 4.4-2.002 4.631v.036a.83.83 0 0 0 .238.583c.325.35.959.346 1.29-.009.053-.056.422-.82.826-1.707l.732-1.604h4.596l.731 1.604c.404.888.774 1.651.826 1.707.332.355.966.36 1.291.009a.83.83 0 0 0 .239-.583v-.038.002c-.001-.231-.022-.277-2.003-4.63-2.173-4.773-2.179-4.783-2.36-5.03-.3-.413-.903-.596-1.418-.431zm1.143 3.976.725 1.594-.736.01a67 67 0 0 1-1.47 0l-.736-.01.725-1.594c.398-.877.734-1.594.746-1.594.011 0 .348.717.746 1.594"/>
</svg>