<svg xmlns="http://www.w3.org/2000/svg" width="26" height="26" fill="currentColor" class="sym sym-lightbulb" viewBox="0 0 26 26">
  <path d="M13 22a2.53 2.53 0 0 1-2.528-2.528v-1.295A5.78 5.78 0 0 1 7.236 13 5.774 5.774 0 0 1 13 7.236 5.774 5.774 0 0 1 18.764 13a5.77 5.77 0 0 1-3.236 5.177v1.295A2.53 2.53 0 0 1 13 22m-.708-3.276v.748c0 .394.314.708.708.708a.703.703 0 0 0 .708-.708v-.748c-.465.06-.95.06-1.416 0M13 9.056A3.95 3.95 0 0 0 9.056 13 3.95 3.95 0 0 0 13 16.944 3.95 3.95 0 0 0 16.944 13 3.95 3.95 0 0 0 13 9.056m8.09 4.854h-.81a.906.906 0 0 1-.91-.91c0-.506.405-.91.91-.91h.81c.506 0 .91.404.91.91s-.404.91-.91.91m-15.37 0h-.81A.906.906 0 0 1 4 13c0-.506.404-.91.91-.91h.81c.505 0 .91.404.91.91s-.405.91-.91.91m12.538-5.258a.95.95 0 0 1-.647-.263.91.91 0 0 1 0-1.285l.486-.485a.91.91 0 0 1 1.284 0 .91.91 0 0 1 0 1.284l-.486.486a.9.9 0 0 1-.647.263zm-10.516 0a.95.95 0 0 1-.648-.263l-.485-.486a.91.91 0 0 1 0-1.284.91.91 0 0 1 1.284 0l.486.485a.91.91 0 0 1 0 1.285.9.9 0 0 1-.648.263zM13 6.629a.906.906 0 0 1-.91-.91V4.91c0-.505.404-.91.91-.91s.91.405.91.91v.81c0 .505-.404.91-.91.91"/>
</svg>