<svg xmlns="http://www.w3.org/2000/svg" width="26" height="26" fill="currentColor" class="sym sym-lightbulb-solid" viewBox="0 0 26 26">
  <path d="M12.82 4.021a.87.87 0 0 0-.55.44l-.002.005c-.065.122-.071.18-.071.754s.005.632.07.754c.161.3.409.452.734.452.324 0 .572-.153.733-.452.064-.123.07-.18.07-.754s-.005-.633-.07-.754c-.183-.341-.577-.533-.914-.445M6.894 6.426c-.445.166-.654.716-.434 1.144.07.138.686.75.833.83.155.082.594.085.743.005A1.06 1.06 0 0 0 8.4 8.04c.08-.148.077-.587-.005-.742-.081-.151-.694-.761-.84-.836-.148-.076-.505-.096-.661-.037m11.646.002c-.16.06-.323.19-.625.506-.336.35-.37.418-.37.743 0 .29.04.396.215.571s.282.214.572.214c.194 0 .293-.016.377-.061.148-.08.76-.69.84-.839.083-.154.086-.593.006-.741a1 1 0 0 0-.36-.359l-.006-.002c-.138-.072-.497-.09-.65-.032m-6.145.876A5.8 5.8 0 0 0 8.767 9.13l-.004.003a5.7 5.7 0 0 0-1.494 4.088v-.01c.048 1.172.4 2.195 1.096 3.17.257.362.91 1.006 1.288 1.273.172.12.44.287.598.37l.288.151v.802c0 .88.03 1.115.192 1.512a2.5 2.5 0 0 0 1.308 1.317l.016.006a2.46 2.46 0 0 0 3.351-1.773l.002-.016c.038-.18.051-.452.051-1.046v-.802l.288-.15c.676-.357 1.463-1.05 1.92-1.687.3-.42.683-1.198.823-1.671a5.6 5.6 0 0 0 .249-1.666c0-.668-.115-1.31-.326-1.906l.013.04c-.86-2.516-3.374-4.112-6.034-3.834zm-7.775 4.905a.8.8 0 0 0-.619.775V13q.002.488.453.73c.123.065.18.072.755.072.576 0 .634-.006.756-.071.3-.16.453-.408.453-.732s-.154-.573-.453-.731c-.118-.062-.194-.07-.69-.077a5 5 0 0 0-.657.018zm15.583 0a.8.8 0 0 0-.619.775V13q.002.488.453.73c.123.065.18.072.755.072s.634-.006.756-.071c.3-.16.453-.408.453-.732s-.154-.573-.453-.731c-.118-.062-.194-.07-.69-.077a5 5 0 0 0-.656.018"/>
</svg>