<svg xmlns="http://www.w3.org/2000/svg" width="26" height="26" fill="currentColor" class="sym sym-line-height-solid" viewBox="0 0 26 26">
  <path d="M4.582 4.057a.9.9 0 0 0-.478.4l-.002.003c-.086.146-.1.21-.1.44 0 .231.014.296.1.441a.9.9 0 0 0 .492.406c.138.048 1.116.054 8.398.054 9.252 0 8.45.025 8.744-.27a.885.885 0 0 0 0-1.263c-.294-.294.51-.27-8.757-.266-7.072.002-8.277.01-8.397.054z"/>
  <path fill-rule="evenodd" d="M12.597 7.42c-.394.126-.619.342-.865.83-.064.128-1.017 2.213-2.118 4.632-1.982 4.355-2.001 4.4-2.002 4.632v.036a.83.83 0 0 0 .238.582c.325.351.959.346 1.29-.008.052-.056.422-.82.826-1.707l.731-1.605h4.596l.73 1.605c.404.887.774 1.65.826 1.707.332.354.965.36 1.29.009a.83.83 0 0 0 .24-.583l-.001-.038v.002c-.001-.232-.021-.278-2.002-4.632-2.173-4.774-2.178-4.784-2.359-5.031-.3-.414-.904-.597-1.418-.432zm1.143 3.977.724 1.594-.735.01c-.405.006-1.066.006-1.47 0l-.735-.01.724-1.594c.398-.878.734-1.595.746-1.595.011 0 .348.718.746 1.595"/>
  <path d="M4.686 20.25c-.676.165-.917 1.004-.428 1.493.057.056.167.137.246.18L4.65 22h16.688l.145-.078c.33-.176.498-.448.498-.805s-.168-.629-.498-.805l-.145-.078-8.272-.005c-4.55-.003-8.321.006-8.38.02"/>
</svg>