<svg xmlns="http://www.w3.org/2000/svg" width="26" height="26" fill="currentColor" class="sym sym-link-broken-solid" viewBox="0 0 26 26">
  <path d="M9.657 2.058c-.23.084-.415.242-.532.444l-.002.004-.111.19L9 3.905c-.013 1.325-.001 1.431.203 1.7.469.612 1.481.456 1.728-.267.098-.289.098-2.396 0-2.684-.171-.501-.772-.783-1.274-.598m7.614 1.048c-.29.037-.976.229-1.274.357a4.7 4.7 0 0 0-1.14.686l.008-.007c-.336.262-2.665 2.579-2.74 2.726-.034.078-.065.17-.085.267l-.001.01c-.133.595.342 1.181.959 1.18.408 0 .513-.08 1.727-1.3 1.181-1.186 1.437-1.414 1.845-1.637.433-.237.82-.327 1.403-.324.518 0 .674.03 1.123.207a3.05 3.05 0 0 1 1.56 1.436c.2.392.318.857.318 1.348 0 .616-.185 1.19-.502 1.667l.006-.011c-.088.135-.684.77-1.387 1.479-.9.904-1.256 1.29-1.316 1.422a.992.992 0 0 0 .685 1.36l.007.002c.22.045.495.011.684-.085.147-.075 2.466-2.402 2.729-2.738.426-.523.746-1.15.919-1.835l.007-.033c.145-.562.182-1.473.081-2.061a4.87 4.87 0 0 0-1.361-2.653 4.94 4.94 0 0 0-2.655-1.424l-.03-.005c-.328-.057-1.242-.077-1.57-.033zM4.133 3.57c-.542.203-.797.872-.531 1.4.035.07.437.5.892.954.943.94 1.003.978 1.485.95.233-.012.31-.036.452-.135.094-.066.226-.197.292-.291.099-.141.122-.22.135-.451.028-.483-.01-.542-.952-1.484-.454-.455-.889-.859-.966-.898-.183-.092-.618-.116-.808-.045zM2.756 9.04A.974.974 0 0 0 2 9.989v.02c0 .396.187.698.554.894.156.083.208.086 1.424.086 1.217 0 1.27-.003 1.425-.086.367-.196.554-.499.554-.895 0-.397-.187-.7-.554-.896-.154-.081-.217-.086-1.344-.093-.65-.003-1.237.006-1.304.024zm4.411 2.995c-.328.079-.375.118-1.578 1.311-1.503 1.492-1.808 1.868-2.146 2.657-.243.568-.35 1.074-.375 1.76a6 6 0 0 0 .03.964l-.003-.026c.31 2.118 1.988 3.827 4.109 4.187.588.1 1.5.063 2.063-.082.72-.18 1.346-.5 1.879-.932l-.01.007c.337-.262 2.666-2.579 2.741-2.726.096-.189.13-.463.085-.684a.995.995 0 0 0-1.369-.688l.006-.002c-.131.059-.518.415-1.423 1.314-1.265 1.252-1.502 1.45-1.982 1.651-1.53.641-3.338-.114-3.942-1.646-.178-.448-.207-.604-.208-1.122-.002-.583.087-.969.325-1.402.223-.408.451-.663 1.639-1.843 1.219-1.21 1.3-1.319 1.3-1.723 0-.387-.24-.761-.58-.903-.144-.06-.448-.1-.561-.072M20.8 15.05a.974.974 0 0 0-.757.946v.02c0 .396.187.698.554.894.156.084.208.087 1.425.087 1.216 0 1.268-.003 1.424-.087.367-.196.554-.498.554-.895s-.187-.7-.554-.895c-.153-.082-.217-.086-1.344-.093-.65-.004-1.237.006-1.303.023m-1.122 4.166a1.04 1.04 0 0 0-.476.487l-.003.006c-.09.213-.08.612.02.832.096.21 1.61 1.745 1.842 1.868.19.1.727.103.908.006.162-.088.358-.285.446-.446.097-.18.094-.717-.006-.907-.123-.232-1.66-1.744-1.87-1.84-.236-.107-.638-.11-.86-.006m-3.891.841a1.07 1.07 0 0 0-.673.537l-.003.006c-.083.156-.086.208-.086 1.423s.003 1.268.086 1.424c.197.366.5.553.896.553.397 0 .7-.187.896-.553.084-.156.087-.209.087-1.424s-.003-1.267-.087-1.423c-.223-.416-.704-.65-1.116-.543"/>
</svg>