<svg xmlns="http://www.w3.org/2000/svg" width="26" height="26" fill="currentColor" class="sym sym-link-external" viewBox="0 0 26 26">
  <path d="M17.242 23H8.758c-1.839 0-2.768 0-3.606-.434a3.92 3.92 0 0 1-1.718-1.717C3 20.01 3 19.08 3 17.242V8.758c0-1.839 0-2.768.434-3.606a3.87 3.87 0 0 1 1.718-1.718C5.99 3 6.919 3 8.758 3h2.222c.505 0 .909.404.909.91a.905.905 0 0 1-.91.908h-2.22c-1.505 0-2.324 0-2.778.233a2.07 2.07 0 0 0-.93.929c-.232.454-.232 1.283-.232 2.778v8.484c0 1.505 0 2.324.233 2.778.202.404.525.717.929.93.454.232 1.283.232 2.778.232h8.484c1.505 0 2.324 0 2.778-.232a2.12 2.12 0 0 0 .93-.93c.232-.454.232-1.283.232-2.778V15.02c0-.505.404-.909.909-.909s.909.404.909.91v2.221c0 1.839 0 2.768-.434 3.607a3.92 3.92 0 0 1-1.717 1.717c-.84.434-1.77.434-3.608.434M13 13.91a.95.95 0 0 1-.646-.264.91.91 0 0 1 0-1.282l7.535-7.536H16.02a.905.905 0 0 1-.909-.909c0-.505.404-.909.91-.909h6.08c.111 0 .222.03.323.07a.74.74 0 0 1 .293.203c.091.09.152.192.202.293.04.1.06.212.07.323v6.08c0 .506-.403.91-.908.91a.905.905 0 0 1-.91-.91V6.112l-7.535 7.536a.9.9 0 0 1-.646.262z"/>
</svg>