<svg xmlns="http://www.w3.org/2000/svg" width="26" height="26" fill="currentColor" class="sym sym-link-broken-02" viewBox="0 0 26 26">
  <path d="M16.028 24a.905.905 0 0 1-.909-.908v-2.019c0-.504.404-.908.909-.908.504 0 .908.404.908.908v2.019a.905.905 0 0 1-.909.908m-8.023-1.06a4.952 4.952 0 0 1-3.502-8.447l2.14-2.139a.91.91 0 0 1 1.28 0 .91.91 0 0 1 0 1.282l-2.139 2.14a3.137 3.137 0 0 0 0 4.43 3.12 3.12 0 0 0 2.21.918c.838 0 1.625-.323 2.21-.918l2.14-2.14a.907.907 0 0 1 1.282 1.282l-2.14 2.14a4.9 4.9 0 0 1-3.502 1.452zm13.573-.454a.94.94 0 0 1-.646-.262L19.51 20.8a.908.908 0 0 1 1.282-1.282l1.423 1.423a.907.907 0 0 1 0 1.282.9.9 0 0 1-.646.262zM9.468 17.44a.94.94 0 0 1-.646-.262.91.91 0 0 1 0-1.282l7.064-7.064a.91.91 0 0 1 1.282 0 .91.91 0 0 1 0 1.282l-7.064 7.064a.9.9 0 0 1-.646.262zm13.624-.504h-2.019a.905.905 0 0 1-.908-.909c0-.504.404-.908.908-.908h2.019c.504 0 .908.404.908.909a.905.905 0 0 1-.908.908m-4.38-3.028a.94.94 0 0 1-.646-.262.91.91 0 0 1 0-1.282l2.14-2.14a3.125 3.125 0 0 0 0-4.42 3.12 3.12 0 0 0-2.21-.918 3.07 3.07 0 0 0-2.21.919l-2.14 2.139a.91.91 0 0 1-1.282 0 .91.91 0 0 1 0-1.282l2.14-2.14a4.9 4.9 0 0 1 3.502-1.452 4.952 4.952 0 0 1 3.502 8.447l-2.14 2.139a.9.9 0 0 1-.646.262zM4.927 10.881H2.908A.904.904 0 0 1 2 9.972c0-.504.404-.908.908-.908h2.019c.504 0 .908.404.908.908a.904.904 0 0 1-.908.909m.918-4.128a.94.94 0 0 1-.646-.262L3.776 5.068a.91.91 0 0 1 0-1.282.91.91 0 0 1 1.282 0L6.48 5.21a.91.91 0 0 1 0 1.282.9.9 0 0 1-.646.262zm4.127-.918a.905.905 0 0 1-.908-.908V2.908c0-.504.404-.908.908-.908.505 0 .909.404.909.908v2.019a.905.905 0 0 1-.909.908"/>
</svg>