<svg xmlns="http://www.w3.org/2000/svg" width="26" height="26" fill="currentColor" class="sym sym-link-solid" viewBox="0 0 26 26">
  <path d="M16.547 3.023a6 6 0 0 0-2.71.996l.022-.014c-.284.188-.598.471-1.358 1.224-.632.626-1.018 1.037-1.068 1.14-.15.311-.087.765.144 1.035a.99.99 0 0 0 1.154.235c.105-.053.526-.436 1.091-.993.953-.94 1.156-1.101 1.696-1.355.577-.27.89-.332 1.653-.329.777.003 1.042.059 1.653.349.46.217.816.478 1.183.864.451.475.772 1.05.95 1.701.079.286.091.425.091.98 0 .739-.065 1.063-.331 1.628-.25.534-.449.783-1.374 1.718-.549.555-.923.965-.976 1.07a.99.99 0 0 0 .235 1.154c.27.231.724.294 1.036.144.102-.05.514-.435 1.14-1.067.754-.76 1.037-1.074 1.225-1.358a6.1 6.1 0 0 0 .924-2.274l.006-.038c.09-.5.09-1.458 0-1.957a5.85 5.85 0 0 0-1.584-3.1c-1.084-1.115-2.443-1.714-4.017-1.772a6 6 0 0 0-.81.02l.023-.001z"/>
  <path d="M16.016 8.701c-.252.112-7.164 7.01-7.314 7.298a.99.99 0 0 0 .162 1.11c.147.161.452.291.69.293.446.004.294.14 4.105-3.666 1.924-1.92 3.54-3.562 3.59-3.649.157-.264.194-.487.123-.733-.135-.463-.484-.736-.943-.734-.152 0-.3.03-.413.081"/>
  <path d="M6.36 11.44c-.1.049-.534.456-1.14 1.067-.75.759-1.034 1.074-1.223 1.356a6.1 6.1 0 0 0-.924 2.274l-.006.038c-.09.507-.089 1.456.003 1.977a5.89 5.89 0 0 0 4.038 4.595c.61.188 1.055.253 1.741.253.941 0 1.717-.173 2.53-.561.744-.358 1.044-.593 2.121-1.659.632-.627 1.018-1.038 1.068-1.14.15-.311.087-.765-.144-1.035a.99.99 0 0 0-1.16-.233l.006-.003c-.105.053-.515.427-1.072.977-.936.924-1.185 1.123-1.718 1.372-.566.265-.89.331-1.63.331-.765 0-1.073-.066-1.703-.367a3.6 3.6 0 0 1-1.14-.835l-.003-.003a3.3 3.3 0 0 1-.694-1.004l-.008-.02c-.287-.604-.342-.872-.345-1.646-.003-.762.058-1.076.328-1.652.254-.54.415-.742 1.356-1.695.554-.561.941-.986.994-1.089a.99.99 0 0 0-.236-1.154v-.001c-.271-.232-.732-.296-1.04-.143"/>
</svg>