<svg xmlns="http://www.w3.org/2000/svg" width="26" height="26" fill="currentColor" class="sym sym-link-broken-02-solid" viewBox="0 0 26 26">
  <path d="M9.773 2.026c-.297.08-.537.277-.673.538l-.003.006c-.083.155-.086.208-.086 1.423s.003 1.268.086 1.424c.196.366.5.553.896.553.397 0 .7-.187.896-.553.084-.156.087-.209.087-1.424s-.003-1.268-.087-1.423c-.223-.417-.704-.651-1.116-.544M17.271 3.1c-.23.04-.41.081-.588.129l.054-.013a4.9 4.9 0 0 0-1.784.84l.013-.009c-.258.184-2.696 2.592-2.807 2.772-.124.199-.17.48-.12.727a.986.986 0 0 0 1.389.676l-.006.002c.152-.073.465-.363 1.303-1.204 1.181-1.187 1.437-1.414 1.845-1.637.433-.238.82-.327 1.403-.325.518.001.674.03 1.123.208a3.05 3.05 0 0 1 1.56 1.436c.2.393.318.857.318 1.349a3 3 0 0 1-.502 1.666l.006-.01c-.088.134-.684.77-1.387 1.479-.9.904-1.256 1.291-1.316 1.422a.993.993 0 0 0 .685 1.36l.007.002c.22.045.495.012.684-.085.146-.075 2.465-2.402 2.729-2.738.466-.596.734-1.143.933-1.9.138-.527.172-1.456.075-2.03a4.87 4.87 0 0 0-1.362-2.654 4.93 4.93 0 0 0-2.655-1.424l-.03-.004c-.328-.057-1.24-.078-1.569-.034zm-13.138.465c-.542.204-.797.873-.531 1.4.035.071.437.501.892.955.943.94 1.003.978 1.485.95.233-.012.31-.035.452-.135.094-.066.226-.197.292-.29.099-.142.122-.22.135-.452.028-.483-.01-.542-.952-1.485-.454-.454-.889-.858-.966-.897-.183-.093-.618-.117-.808-.045z"/>
  <path d="M16.088 8.604c-.258.114-7.335 7.174-7.488 7.47-.332.637.15 1.431.872 1.436.456.003.3.143 4.203-3.753 1.97-1.966 3.624-3.646 3.676-3.735.16-.27.198-.498.125-.75-.138-.475-.495-.753-.965-.751-.155 0-.307.03-.423.083m-13.332.434A.974.974 0 0 0 2 9.985v.02c0 .396.187.698.554.894.156.083.208.086 1.424.086 1.217 0 1.27-.003 1.425-.086.367-.196.554-.499.554-.895 0-.397-.187-.7-.554-.896-.154-.082-.217-.086-1.344-.093-.65-.004-1.237.006-1.304.023z"/>
  <path d="M7.167 12.032c-.328.08-.375.118-1.578 1.312-1.487 1.475-1.813 1.877-2.132 2.627A5.2 5.2 0 0 0 3.052 18q0 .448.071.873l-.005-.03c.358 2.053 2.015 3.693 4.085 4.044.589.1 1.5.063 2.063-.082.72-.179 1.347-.5 1.879-.932l-.01.007c.337-.262 2.666-2.58 2.742-2.727.096-.188.13-.462.084-.683a.995.995 0 0 0-1.368-.689l.006-.002c-.132.06-.518.415-1.424 1.314-1.264 1.253-1.502 1.45-1.981 1.652-1.53.642-3.339-.114-3.943-1.646-.177-.449-.207-.604-.207-1.123-.003-.582.087-.968.324-1.402.223-.408.451-.663 1.639-1.843 1.22-1.21 1.3-1.319 1.3-1.723 0-.388-.24-.762-.58-.904-.144-.06-.449-.099-.562-.072zM20.8 15.047a.974.974 0 0 0-.757.948v.02c0 .396.187.698.554.894.156.083.208.086 1.425.086 1.216 0 1.268-.003 1.424-.086.367-.196.554-.5.554-.896s-.187-.699-.554-.895c-.153-.082-.217-.086-1.344-.093-.65-.004-1.237.006-1.303.023m-1.122 4.167a1.04 1.04 0 0 0-.476.487l-.003.006c-.09.213-.08.612.02.832.096.21 1.61 1.745 1.842 1.868.19.1.727.103.908.006.162-.088.358-.284.446-.445.097-.181.094-.717-.006-.907-.123-.233-1.66-1.745-1.87-1.84-.236-.108-.638-.111-.86-.007m-3.891.841c-.297.08-.537.277-.673.538l-.003.006c-.083.155-.086.208-.086 1.423s.003 1.268.086 1.423c.197.367.5.554.896.554.397 0 .7-.187.896-.554.084-.155.087-.208.087-1.423s-.003-1.268-.087-1.423c-.223-.417-.704-.652-1.116-.544"/>
</svg>