<svg xmlns="http://www.w3.org/2000/svg" width="26" height="26" fill="currentColor" class="sym sym-link-02-solid" viewBox="0 0 26 26">
  <path d="M17.271 2.022a6.2 6.2 0 0 0-2.76 1.05l.02-.014c-.226.154-.657.532-1.147 1.007-1.207 1.17-1.488 1.463-1.573 1.65a1.16 1.16 0 0 0-.002.826l-.002-.008c.157.348.532.594.91.597.402.004.447-.028 1.573-1.14.576-.57 1.165-1.119 1.31-1.221a3.95 3.95 0 0 1 2.338-.758h.042-.002a4.034 4.034 0 0 1 3.867 2.956l.007.03c.081.3.093.432.09 1.068-.002.674-.01.753-.112 1.088-.163.501-.39.937-.677 1.326l.01-.013c-.11.144-.976 1.037-1.924 1.983-1.836 1.83-2.02 1.987-2.653 2.25-.42.188-.91.302-1.425.313h-.005c-1.286.057-2.448-.466-3.283-1.478-.174-.21-.324-.348-.439-.404-.505-.245-1.064-.082-1.342.392-.096.163-.112.236-.112.493 0 .357.047.456.457.943.47.558 1.213 1.131 1.904 1.467a5.7 5.7 0 0 0 2.388.602h.009c1.422.061 2.672-.323 3.894-1.194.395-.282 3.955-3.87 4.233-4.266 1.317-1.871 1.499-4.21.489-6.245-.903-1.761-2.591-3.008-4.59-3.283l-.031-.004c-.314-.04-1.201-.048-1.462-.013"/>
  <path d="M10.342 9.01a5.8 5.8 0 0 0-2.086.625l.032-.016c-.83.411-1.093.631-2.796 2.318a84 84 0 0 0-1.906 1.936c-.797.892-1.278 1.845-1.509 2.987-.11.55-.1 1.79.02 2.346a6 6 0 0 0 1.656 3.04c.87.874 1.837 1.392 3.081 1.66.547.117 1.715.126 2.258.018a6.16 6.16 0 0 0 2.673-1.228l-.013.01c.34-.267 2.277-2.197 2.351-2.343.097-.19.131-.466.086-.688a1 1 0 0 0-1.376-.693l.006-.003c-.13.06-.478.378-1.228 1.123-.576.571-1.163 1.117-1.304 1.212a4.15 4.15 0 0 1-1.883.688l-.02.001c-1.69.197-3.499-.894-4.109-2.48-.239-.618-.288-.88-.292-1.515-.004-.657.068-1.04.303-1.604.268-.644.458-.866 2.437-2.835 1.942-1.931 1.996-1.977 2.659-2.27.526-.234.815-.285 1.584-.285.833 0 1.105.058 1.752.375.595.291.864.512 1.546 1.268a.983.983 0 0 0 1.72-.66 1 1 0 0 0-.128-.49l.002.006c-.174-.327-1.033-1.175-1.506-1.488a6.3 6.3 0 0 0-2.297-.945l-.04-.007c-.41-.075-1.285-.108-1.673-.063"/>
</svg>