<svg xmlns="http://www.w3.org/2000/svg" width="26" height="26" fill="currentColor" class="sym sym-link-02" viewBox="0 0 26 26">
  <path d="M7.984 24h-.05a5.93 5.93 0 0 1-4.18-1.756A5.98 5.98 0 0 1 2 18.06a5.94 5.94 0 0 1 1.684-4.213l3.053-3.056a5.98 5.98 0 0 1 4.655-1.746c.863.06 1.684.304 2.445.72.76.417 1.41.975 1.927 1.665a.91.91 0 0 1-.183 1.28.91.91 0 0 1-1.278-.183 4.1 4.1 0 0 0-1.339-1.157 4.14 4.14 0 0 0-3.448-.244 4.2 4.2 0 0 0-1.491.954l-3.043 3.046a4.13 4.13 0 0 0-1.156 2.914c0 1.096.446 2.132 1.217 2.903a4.14 4.14 0 0 0 2.9 1.218h.041a4.15 4.15 0 0 0 2.891-1.167l1.724-1.726a.912.912 0 0 1 1.288 1.29l-1.734 1.735a5.96 5.96 0 0 1-4.169 1.696zm7.04-7.035c-.142 0-.284 0-.426-.02a5.9 5.9 0 0 1-2.445-.722 6 6 0 0 1-1.927-1.665.91.91 0 0 1 .182-1.279.91.91 0 0 1 1.279.183c.354.477.81.873 1.338 1.157a4.14 4.14 0 0 0 3.449.244 4.2 4.2 0 0 0 1.49-.954l3.044-3.046a4.13 4.13 0 0 0 1.156-2.914 4.1 4.1 0 0 0-1.217-2.903 4.12 4.12 0 0 0-2.901-1.219c-1.065-.04-2.14.407-2.921 1.168L13.39 6.72a.911.911 0 0 1-1.288-1.29l1.745-1.736A6.1 6.1 0 0 1 18.067 2c1.582.01 3.063.64 4.178 1.756A5.98 5.98 0 0 1 24 7.94a5.94 5.94 0 0 1-1.684 4.213l-3.053 3.056a6.1 6.1 0 0 1-2.14 1.38c-.67.255-1.39.377-2.1.377"/>
</svg>