<svg xmlns="http://www.w3.org/2000/svg" width="26" height="26" fill="currentColor" class="sym sym-link-external-solid" viewBox="0 0 26 26">
  <path d="M15.662 3.064a1 1 0 0 0-.53.443l-.003.005c-.095.16-.11.233-.11.489 0 .255.015.327.11.489.061.102.17.234.243.288.288.22.321.222 2.341.222h1.866l-3.226 3.23c-2.943 2.949-3.231 3.248-3.29 3.428-.129.39-.045.767.234 1.044.278.277.654.362 1.044.234.18-.06.48-.347 3.428-3.29l3.23-3.225v1.86c0 1.157.016 1.915.043 2.008.06.22.272.473.488.585a.98.98 0 0 0 1.17-.172c.313-.313.3-.156.3-3.703 0-3.544.013-3.39-.3-3.702-.311-.312-.153-.3-3.718-.296-2.642.002-3.19.012-3.32.06z"/>
  <path d="M7.095 5.042c-1.073.053-1.665.22-2.306.648-.8.534-1.385 1.332-1.594 2.173-.166.67-.171.81-.19 5.481-.018 4.653.007 5.893.13 6.54.189.983.791 1.862 1.675 2.444.664.437 1.186.577 2.384.636.962.048 8.64.048 9.603 0 1.198-.06 1.72-.199 2.384-.636.863-.567 1.463-1.428 1.662-2.381.108-.521.162-1.85.147-3.664-.012-1.487-.015-1.546-.099-1.7-.195-.367-.498-.554-.894-.554s-.698.187-.894.553c-.084.158-.086.207-.11 2.462-.026 2.493-.03 2.537-.255 2.95-.141.261-.54.646-.803.78-.426.216-.267.21-5.94.21-5.732 0-5.522.008-5.97-.229-.276-.145-.664-.539-.803-.812-.216-.427-.21-.267-.21-5.94s-.006-5.513.21-5.94c.133-.263.52-.66.78-.802.413-.225.458-.229 2.951-.255 2.255-.024 2.304-.026 2.462-.11.366-.196.553-.498.553-.894s-.187-.699-.553-.894c-.157-.084-.201-.087-1.941-.091a73 73 0 0 0-2.381.025z"/>
</svg>