<svg xmlns="http://www.w3.org/2000/svg" width="26" height="26" fill="currentColor" class="sym sym-link" viewBox="0 0 26 26">
  <path d="M8.821 23a5.74 5.74 0 0 1-4.114-1.707A5.82 5.82 0 0 1 3 17.179c0-1.55.602-3.02 1.707-4.115l1.401-1.391a.887.887 0 0 1 1.253 0 .887.887 0 0 1 0 1.253L5.97 14.317a4.02 4.02 0 0 0-1.184 2.862 4.04 4.04 0 0 0 4.045 4.045 4.04 4.04 0 0 0 2.862-1.184l1.39-1.391a.887.887 0 0 1 1.254 0 .887.887 0 0 1 0 1.253l-1.391 1.391A5.8 5.8 0 0 1 8.83 23zm.73-5.663a.92.92 0 0 1-.63-.257.887.887 0 0 1 0-1.253l6.906-6.907a.887.887 0 0 1 1.253 1.253l-6.907 6.907a.88.88 0 0 1-.631.257zm9.73-2.753a.92.92 0 0 1-.632-.257.887.887 0 0 1 0-1.253l1.391-1.391a4.02 4.02 0 0 0 1.184-2.862 4.04 4.04 0 0 0-4.045-4.045 4.04 4.04 0 0 0-2.862 1.184l-1.391 1.391a.887.887 0 0 1-1.253 0 .887.887 0 0 1 0-1.253l1.391-1.391A5.8 5.8 0 0 1 17.18 3a5.76 5.76 0 0 1 4.114 1.707A5.82 5.82 0 0 1 23 8.82a5.76 5.76 0 0 1-1.707 4.115l-1.401 1.391a.88.88 0 0 1-.631.257z"/>
</svg>