<svg xmlns="http://www.w3.org/2000/svg" width="26" height="26" fill="currentColor" class="sym sym-loading-solid" viewBox="0 0 26 26">
  <path d="M13.023 2.023c-.34.085-.648.347-.752.644-.095.265-.098 2.95-.006 3.205a1 1 0 0 0 .49.552l.005.002c.144.077.315.122.497.122.454 0 .84-.28.983-.669l.003-.007c.05-.136.06-.446.06-1.594 0-1.593-.012-1.679-.278-1.943-.264-.262-.681-.392-1.002-.311M5.581 5.11c-.219.115-.39.29-.496.502l-.004.007c-.085.2-.071.607.03.823.114.244 2.35 2.416 2.645 2.572.52.272 1.114.116 1.41-.371.1-.163.12-.24.12-.478 0-.234-.022-.319-.12-.491-.17-.299-2.416-2.452-2.674-2.565-.259-.113-.672-.113-.91 0m14.223.201c-.267.119-1.852 1.65-1.97 1.903-.117.249-.117.63 0 .871.171.352.507.548.935.546.433 0 .541-.074 1.5-1.004.978-.948 1.027-1.02.997-1.48a.93.93 0 0 0-.468-.773l-.005-.002a1.17 1.17 0 0 0-.997-.06zm-17.028 6.6a1.11 1.11 0 0 0-.716.59l-.003.007c-.088.202-.073.604.028.81.12.238.371.443.633.519.327.093 3.946.093 4.273 0a.96.96 0 0 0 .719-.95v-.04a.9.9 0 0 0-.335-.703l-.002-.001c-.299-.261-.372-.268-2.537-.264-1.064.002-1.991.017-2.06.033zm18.392-.002c-.374.094-.633.316-.755.65-.17.468.025.951.487 1.199l.226.12h2.1l.226-.12a.94.94 0 0 0 .484-.54l.002-.006c.17-.468-.025-.951-.487-1.199l-.226-.12-.966-.007c-.531-.006-1.022.006-1.091.023M8.341 16.291c-.256.112-3.304 3.049-3.445 3.32-.19.366-.107.856.196 1.149.303.292.811.373 1.191.19.28-.137 3.325-3.078 3.44-3.325.104-.221.115-.615.025-.825-.22-.507-.87-.741-1.407-.509m10.613 1.471a1.1 1.1 0 0 0-.563.457l-.003.005c-.098.161-.117.237-.116.475 0 .386.08.523.58 1.022.511.508.737.656 1.053.687.355.036.593-.046.846-.289.357-.343.416-.83.149-1.23-.176-.265-.91-.95-1.135-1.06-.231-.113-.6-.143-.812-.067m-5.93.224c-.31.08-.563.28-.704.543l-.003.006c-.09.162-.09.188-.09 2.453s0 2.291.09 2.452c.205.37.522.56.938.56s.733-.19.938-.56c.09-.16.09-.187.09-2.452s0-2.291-.09-2.453c-.234-.421-.737-.658-1.169-.55"/>
</svg>