<svg xmlns="http://www.w3.org/2000/svg" width="26" height="26" fill="currentColor" class="sym sym-loading" viewBox="0 0 26 26">
  <path d="M13.264 24c-.528 0-.951-.408-.951-.919v-4.083c0-.51.423-.92.951-.92.53 0 .952.41.952.92v4.083c0 .51-.423.919-.952.919m-7.488-2.981a1 1 0 0 1-.677-.265.896.896 0 0 1 0-1.297l2.993-2.889a.976.976 0 0 1 1.344 0c.37.357.37.94 0 1.296l-2.994 2.89a.96.96 0 0 1-.677.265zm14.321-.633c-.243 0-.486-.092-.677-.265l-.75-.725a.896.896 0 0 1 0-1.297.976.976 0 0 1 1.342 0l.752.725c.37.357.37.94 0 1.297a.96.96 0 0 1-.677.265zm2.951-6.595h-1.586c-.53 0-.952-.408-.952-.919 0-.51.423-.918.951-.918h1.587c.529 0 .952.408.952.918s-.423.92-.952.92m-16.394 0H2.952c-.529 0-.952-.408-.952-.919 0-.51.423-.918.952-.918h3.702c.529 0 .952.408.952.918s-.423.92-.952.92M8.24 9.024c-.243 0-.486-.092-.677-.266L5.321 6.594a.896.896 0 0 1 0-1.297.976.976 0 0 1 1.343 0l2.243 2.165c.37.357.37.939 0 1.296a.96.96 0 0 1-.677.266zm10.577-.51c-.243 0-.486-.093-.677-.266a.896.896 0 0 1 0-1.297l1.492-1.44a.976.976 0 0 1 1.343 0c.37.358.37.94 0 1.297l-1.491 1.44a.96.96 0 0 1-.677.265zM13.264 6.39c-.528 0-.951-.409-.951-.919V2.919c0-.51.423-.919.951-.919.53 0 .952.408.952.919V5.47c0 .51-.423.919-.952.919"/>
</svg>