<svg xmlns="http://www.w3.org/2000/svg" width="26" height="26" fill="currentColor" class="sym sym-lock-02-solid" viewBox="0 0 26 26">
  <path fill-rule="evenodd" d="M12.298 4.037a5 5 0 0 0-1.702.538l.028-.014C9.152 5.31 8.15 6.631 7.77 8.318c-.067.298-.077.478-.091 1.671l-.016 1.338-.214.06c-.69.194-1.427.763-1.861 1.438-.34.527-.481.982-.552 1.756-.048.537-.048 3.5 0 4.036.07.774.213 1.229.552 1.756.26.403.625.772 1.022 1.035.544.359.987.495 1.82.562.345.027 1.89.035 4.917.027 4.862-.015 4.715-.009 5.385-.242.875-.304 1.74-1.18 2.04-2.066.215-.631.228-.81.228-3.09 0-2.281-.013-2.459-.228-3.09-.32-.946-1.27-1.86-2.204-2.123l-.213-.06-.015-1.32c-.016-1.448-.038-1.63-.276-2.352a5.39 5.39 0 0 0-4.128-3.583c-.435-.078-1.23-.095-1.639-.035m1.565 1.858a3.7 3.7 0 0 1 1.66.953c.304.308.506.604.712 1.045.282.6.308.771.326 2.12l.015 1.18h-7.13l.016-1.18c.014-1.063.024-1.21.094-1.485a4.5 4.5 0 0 1 .539-1.196c.518-.777 1.437-1.351 2.412-1.51.312-.05 1.014-.012 1.358.073"/>
</svg>