<svg xmlns="http://www.w3.org/2000/svg" width="26" height="26" fill="currentColor" class="sym sym-lock-02" viewBox="0 0 26 26">
  <path d="M15.846 22h-5.682c-1.578 0-2.457 0-3.216-.394a3.6 3.6 0 0 1-1.558-1.578C5 19.26 5 18.37 5 16.772v-.364c0-1.659 0-2.488.39-3.256a3.5 3.5 0 0 1 1.558-1.578c.22-.111.459-.202.719-.253V9.4C7.667 6.417 10.064 4 13 4s5.333 2.427 5.333 5.4v1.921c.26.061.49.142.72.253.669.344 1.208.89 1.557 1.578.39.768.39 1.597.39 3.256v.364c0 1.598 0 2.488-.39 3.256a3.5 3.5 0 0 1-1.558 1.578c-.759.394-1.578.394-3.216.394zm-5.682-8.99c-1.309 0-2.018 0-2.397.192-.34.172-.6.445-.77.779-.19.384-.19 1.112-.19 2.427v.364c0 1.325 0 2.043.19 2.427.17.334.44.607.77.778.38.193 1.098.193 2.397.193h5.682c1.309 0 2.018 0 2.397-.193.34-.171.6-.444.77-.778.19-.384.19-1.113.19-2.427v-.364c0-1.325 0-2.043-.19-2.427a1.8 1.8 0 0 0-.77-.779c-.38-.192-1.098-.192-2.397-.192zM13 5.82c-1.948 0-3.536 1.608-3.536 3.58v1.79h7.082V9.4c0-1.972-1.588-3.58-3.536-3.58z"/>
</svg>