<svg xmlns="http://www.w3.org/2000/svg" width="26" height="26" fill="currentColor" class="sym sym-lock-unlocked-solid" viewBox="0 0 26 26">
  <path fill-rule="evenodd" d="M12.297 4.038a5 5 0 0 0-1.702.538l.028-.014C9.15 5.311 8.14 6.642 7.771 8.32c-.059.27-.078.507-.093 1.221l-.019.888-.211.06c-.69.193-1.426.763-1.86 1.436-.34.527-.481.983-.552 1.756-.048.54-.048 4.397 0 4.937.07.775.213 1.23.552 1.756.26.403.625.772 1.022 1.035.544.359.987.495 1.82.562.344.027 1.889.035 4.916.027 4.862-.015 4.715-.009 5.384-.242.875-.304 1.74-1.18 2.041-2.065.222-.651.229-.762.229-3.541 0-2.264-.007-2.56-.064-2.883-.136-.77-.421-1.342-.933-1.874-.473-.49-1.046-.824-1.647-.955-.565-.125-1.225-.144-5.13-.144H9.44l.018-.73c.022-.851.08-1.143.325-1.67.207-.44.409-.736.713-1.044a3.7 3.7 0 0 1 1.652-.953l.026-.006c.453-.114 1.216-.114 1.67 0a3.62 3.62 0 0 1 2.336 1.885l.01.02c.223.452.448.643.807.686.273.032.482-.045.697-.258.148-.145.198-.226.246-.396.076-.268.042-.444-.165-.862-.744-1.468-2.091-2.532-3.7-2.865l-.035-.006a6 6 0 0 0-1.744-.055m1.045 10.377c.167.07.37.262.46.433.076.143.079.183.079 1.3s-.003 1.159-.078 1.3c-.28.53-.947.664-1.37.276a1.2 1.2 0 0 1-.216-.27l-.003-.005c-.075-.142-.078-.184-.078-1.3 0-1.118.003-1.158.079-1.3.088-.168.29-.36.453-.433.143-.064.526-.064.674-.002"/>
</svg>