<svg xmlns="http://www.w3.org/2000/svg" width="26" height="26" fill="currentColor" class="sym sym-lock-unlocked" viewBox="0 0 26 26">
  <path d="M15.833 21.98h-5.676c-1.576 0-2.454 0-3.212-.394a3.58 3.58 0 0 1-1.556-1.577C5 19.241 5 18.352 5 16.755V15.5c0-1.647 0-2.486.389-3.254a3.53 3.53 0 0 1 1.556-1.577c.23-.12.459-.202.718-.252v-1.02C7.663 6.416 10.057 4 12.99 4a5.33 5.33 0 0 1 4.888 3.244c.2.465 0 1-.459 1.203a.877.877 0 0 1-1.177-.465A3.54 3.54 0 0 0 13 5.829c-1.945 0-3.531 1.607-3.531 3.578v.89h6.374c1.636 0 2.454 0 3.212.394a3.53 3.53 0 0 1 1.556 1.576c.389.768.389 1.607.389 3.255v1.253c0 1.597 0 2.486-.389 3.254a3.48 3.48 0 0 1-1.556 1.577c-.758.394-1.576.394-3.212.394zm-5.676-9.885c-1.307 0-2.015 0-2.394.192-.34.172-.598.445-.768.779-.19.384-.19 1.111-.19 2.425v1.253c0 1.325 0 2.042.19 2.426.17.334.439.607.768.778.38.192 1.097.192 2.394.192h5.676c1.307 0 2.015 0 2.394-.192.34-.171.598-.444.768-.778.19-.384.19-1.112.19-2.426v-1.253c0-1.324 0-2.041-.19-2.425a1.8 1.8 0 0 0-.768-.779c-.38-.192-1.097-.192-2.394-.192zm2.833 5.842a.9.9 0 0 1-.898-.91v-1.799a.9.9 0 0 1 .898-.91.9.9 0 0 1 .898.91v1.8a.9.9 0 0 1-.898.91"/>
</svg>