<svg xmlns="http://www.w3.org/2000/svg" width="26" height="26" fill="currentColor" class="sym sym-lock" viewBox="0 0 26 26">
  <path d="M15.826 22h-5.672c-1.628 0-2.447 0-3.216-.394a3.55 3.55 0 0 1-1.558-1.588C5 19.249 5 18.37 5 16.772v-1.254c0-1.648 0-2.488.39-3.256a3.6 3.6 0 0 1 1.548-1.578c.23-.121.469-.202.729-.263V9.4C7.667 6.417 10.064 4 13 4s5.333 2.427 5.333 5.4v1.021c.26.061.49.142.72.253a3.5 3.5 0 0 1 1.557 1.568c.39.778.39 1.607.39 3.266v1.254c0 1.598 0 2.487-.39 3.256a3.55 3.55 0 0 1-1.568 1.578c-.759.394-1.578.394-3.206.394zm-5.672-9.89c-1.309 0-2.028 0-2.417.202-.33.172-.6.445-.76.769-.2.394-.2 1.112-.2 2.437v1.254c0 1.325 0 2.043.19 2.427.17.334.44.607.77.778.38.193 1.098.193 2.407.193h5.672c1.299 0 2.018 0 2.397-.193.34-.171.6-.444.78-.788.19-.374.19-1.102.19-2.427v-1.254c0-1.325 0-2.043-.19-2.427a1.8 1.8 0 0 0-.77-.779c-.38-.202-1.098-.202-2.407-.202h-5.672zm2.836-6.29c-1.948 0-3.536 1.608-3.536 3.58v.89h7.072V9.4c0-1.972-1.588-3.58-3.536-3.58m0 12.135a.9.9 0 0 1-.899-.91v-1.8a.9.9 0 0 1 .899-.91.9.9 0 0 1 .899.91v1.8a.9.9 0 0 1-.899.91"/>
</svg>