<svg xmlns="http://www.w3.org/2000/svg" width="26" height="26" fill="currentColor" class="sym sym-lock-unlocked-02-solid" viewBox="0 0 26 26">
  <path d="M12.298 4.04a5 5 0 0 0-1.702.539l.028-.014C9.152 5.313 8.15 6.633 7.77 8.321c-.067.298-.077.478-.091 1.671l-.016 1.338-.214.059c-.69.195-1.427.763-1.861 1.438-.34.526-.481.982-.552 1.755-.048.537-.048 3.5 0 4.036.07.774.213 1.229.552 1.755.26.403.625.772 1.022 1.035.544.359.987.495 1.82.562.345.027 1.89.035 4.917.027 4.862-.015 4.715-.009 5.385-.241.875-.305 1.74-1.18 2.04-2.066.215-.632.228-.81.228-3.09 0-1.827-.007-2.114-.063-2.433-.136-.769-.42-1.342-.933-1.873-.473-.49-1.047-.824-1.648-.956-.564-.124-1.225-.143-5.128-.143H9.442l.016-1.18c.018-1.349.044-1.52.325-2.12a3.5 3.5 0 0 1 .713-1.045 3.73 3.73 0 0 1 1.652-.953l.026-.006c.46-.115 1.22-.114 1.67.002.638.165 1.38.605 1.783 1.06.432.485.67.958.888 1.766a.884.884 0 0 0 .852.665c.231 0 .441-.09.598-.238v.001c.262-.24.34-.514.258-.912a5.5 5.5 0 0 0-.443-1.262l.014.031c-.736-1.49-2.094-2.572-3.72-2.904l-.034-.006a6 6 0 0 0-1.744-.055z"/>
</svg>