<svg xmlns="http://www.w3.org/2000/svg" width="26" height="26" fill="currentColor" class="sym sym-lock-unlocked-02" viewBox="0 0 26 26">
  <path d="M15.833 21.98h-5.676c-1.576 0-2.454 0-3.212-.394A3.58 3.58 0 0 1 5.39 20.01C5 19.242 5 18.353 5 16.758v-.364c0-1.646 0-2.485.389-3.252a3.58 3.58 0 0 1 1.556-1.576 2.8 2.8 0 0 1 .718-.253V9.394C7.663 6.414 10.057 4 12.99 4c2.524 0 4.718 1.818 5.227 4.323a.91.91 0 0 1-.698 1.071c-.48.111-.958-.222-1.058-.707A3.55 3.55 0 0 0 13 5.828c-1.945 0-3.531 1.606-3.531 3.576v1.788h6.374c1.636 0 2.454 0 3.212.394a3.53 3.53 0 0 1 1.556 1.576c.389.767.389 1.596.389 3.252v.364c0 1.596 0 2.485-.389 3.252a3.53 3.53 0 0 1-1.556 1.576c-.758.394-1.576.394-3.212.394zM10.157 13c-1.297 0-2.015 0-2.394.192a1.74 1.74 0 0 0-.768.778c-.19.383-.19 1.11-.19 2.424v.364c0 1.323 0 2.04.19 2.424.17.333.439.606.768.778.38.192 1.097.192 2.394.192h5.676c1.297 0 2.015 0 2.394-.192.34-.172.598-.445.768-.778.19-.384.19-1.111.19-2.424v-.364c0-1.313 0-2.04-.19-2.424a1.74 1.74 0 0 0-.768-.778C17.847 13 17.13 13 15.833 13z"/>
</svg>