<svg xmlns="http://www.w3.org/2000/svg" width="26" height="26" fill="currentColor" class="sym sym-lock-solid" viewBox="0 0 26 26">
  <path fill-rule="evenodd" d="M12.297 4.036a5 5 0 0 0-1.702.538l.028-.013C9.15 5.309 8.14 6.64 7.771 8.317c-.059.27-.078.508-.093 1.222l-.019.888-.211.06c-.69.193-1.426.763-1.86 1.436-.34.527-.481.983-.552 1.756-.048.54-.048 4.397 0 4.938.07.774.213 1.229.552 1.756.26.403.625.772 1.022 1.035.544.359.987.495 1.82.562.344.027 1.889.035 4.916.027 4.862-.015 4.715-.009 5.384-.242.875-.304 1.74-1.18 2.041-2.066.222-.65.229-.761.229-3.54s-.007-2.891-.229-3.542c-.32-.945-1.27-1.859-2.203-2.12l-.212-.061-.017-.869c-.018-.95-.064-1.261-.275-1.903a5.39 5.39 0 0 0-4.128-3.583c-.435-.078-1.23-.095-1.64-.035m1.564 1.858a3.7 3.7 0 0 1 1.66.954v-.001c.304.308.507.605.713 1.045.245.527.302.818.325 1.67l.019.73H9.44l.02-.73c.021-.852.079-1.143.324-1.67a3.5 3.5 0 0 1 .713-1.045 3.65 3.65 0 0 1 2.008-1.024c.311-.051 1.013-.013 1.357.072m-.52 8.52c.168.07.371.262.462.433.075.143.078.183.078 1.301 0 1.116-.003 1.158-.078 1.3-.28.53-.947.664-1.37.275a1.2 1.2 0 0 1-.216-.269l-.003-.005c-.075-.143-.078-.185-.078-1.3 0-1.118.003-1.158.079-1.302.088-.167.29-.36.453-.431.143-.065.526-.065.674-.002"/>
</svg>