<svg xmlns="http://www.w3.org/2000/svg" width="26" height="26" fill="currentColor" class="sym sym-log-out-02" viewBox="0 0 26 26">
  <path d="M8.96 23h-.505c-1.536 0-2.303 0-3.02-.303a3.94 3.94 0 0 1-2.132-2.131C3 19.838 3 19.07 3 17.546V8.455c0-1.536 0-2.303.303-3.02a3.94 3.94 0 0 1 2.131-2.132C6.162 3 6.93 3 8.454 3h.506c1.02 0 1.525 0 2.03.131a3.96 3.96 0 0 1 2.788 2.788c.131.505.131 1.01.131 2.03 0 .506-.404.91-.909.91a.905.905 0 0 1-.91-.91c0-.828 0-1.292-.07-1.555a2.14 2.14 0 0 0-1.505-1.505c-.273-.07-.727-.07-1.555-.07h-.505c-1.253 0-1.94 0-2.324.16-.515.213-.94.637-1.151 1.152-.162.384-.162 1.081-.162 2.324v9.09c0 1.253 0 1.94.162 2.324a2.1 2.1 0 0 0 1.151 1.151c.384.162 1.081.162 2.324.162h.505c.828 0 1.292 0 1.555-.07a2.14 2.14 0 0 0 1.505-1.506c.07-.273.07-.727.07-1.556 0-.505.405-.909.91-.909s.91.405.91.91c0 1.02 0 1.525-.132 2.03a3.96 3.96 0 0 1-2.788 2.788C10.485 23 9.98 23 8.96 23m8.08-4.04a.94.94 0 0 1-.646-.263.91.91 0 0 1 0-1.283l3.495-3.495h-9.93a.905.905 0 0 1-.909-.909c0-.505.405-.909.91-.909h9.929l-3.495-3.495a.908.908 0 0 1 1.283-1.283l5.05 5.05c.091.092.152.193.202.294.04.1.06.212.071.323v.04c0 .122-.03.233-.07.324a.7.7 0 0 1-.203.293l-5.05 5.05a.9.9 0 0 1-.647.263z"/>
</svg>