<svg xmlns="http://www.w3.org/2000/svg" width="26" height="26" fill="currentColor" class="sym sym-log-in" viewBox="0 0 26 26">
  <path d="M17.245 23h-1.211a.905.905 0 0 1-.909-.91c0-.504.404-.908.909-.908h1.211c1.505 0 2.322 0 2.777-.232a2.13 2.13 0 0 0 .929-.93c.232-.454.232-1.283.232-2.778V8.758c0-1.505 0-2.324-.232-2.778a2.07 2.07 0 0 0-.93-.93c-.454-.232-1.282-.232-2.776-.232h-1.211a.905.905 0 0 1-.909-.909c0-.505.404-.909.909-.909h1.211c1.838 0 2.767 0 3.605.434.747.384 1.342.97 1.716 1.718C23 5.99 23 6.919 23 8.758v8.484c0 1.839 0 2.768-.434 3.607a3.9 3.9 0 0 1-1.716 1.717c-.838.434-1.767.434-3.605.434m-6.26-4.04a.94.94 0 0 1-.645-.263.91.91 0 0 1 0-1.283l3.493-3.495H3.909A.905.905 0 0 1 3 13.01c0-.505.404-.909.909-.909h9.924L10.34 8.606a.908.908 0 0 1 1.282-1.283l5.048 5.05c.09.092.151.193.202.294.04.1.06.212.07.323v.04c0 .122-.03.233-.07.324a.7.7 0 0 1-.202.293l-5.048 5.05a.9.9 0 0 1-.646.263z"/>
</svg>