<svg xmlns="http://www.w3.org/2000/svg" width="26" height="26" fill="currentColor" class="sym sym-log-out" viewBox="0 0 26 26">
  <path d="M9.97 23H8.758c-1.839 0-2.768 0-3.606-.434a3.92 3.92 0 0 1-1.718-1.717C3 20.01 3 19.08 3 17.242V8.758c0-1.839 0-2.768.434-3.606a3.9 3.9 0 0 1 1.718-1.718C5.99 3 6.919 3 8.758 3H9.97c.505 0 .909.404.909.91a.905.905 0 0 1-.91.908h-1.21c-1.505 0-2.324 0-2.778.233a2.1 2.1 0 0 0-.93.929c-.232.454-.232 1.283-.232 2.778v8.484c0 1.505 0 2.324.233 2.778.202.404.525.717.929.93.454.232 1.283.232 2.778.232H9.97c.505 0 .909.404.909.909s-.404.909-.91.909m7.07-4.04a.95.95 0 0 1-.646-.263.91.91 0 0 1 0-1.283l3.495-3.495h-9.93a.905.905 0 0 1-.908-.909c0-.505.404-.909.909-.909h9.929l-3.495-3.495a.91.91 0 0 1 0-1.283.91.91 0 0 1 1.283 0l5.05 5.05c.091.092.152.193.202.294.04.1.06.212.071.323v.04c0 .122-.03.233-.07.324a.7.7 0 0 1-.203.293l-5.05 5.05a.9.9 0 0 1-.647.263z"/>
</svg>