<svg xmlns="http://www.w3.org/2000/svg" width="26" height="26" fill="currentColor" class="sym sym-log-in-02-solid" viewBox="0 0 26 26">
  <path d="M9.521 3.036a3.98 3.98 0 0 0-3.42 2.993l-.006.028c-.1.397-.155 1.931-.079 2.211.197.72 1.137.966 1.668.435.25-.25.301-.442.302-1.14.003-1.114.116-1.49.596-1.97.34-.34.673-.504 1.138-.56.49-.06 9.43-.023 9.752.04.358.07.65.232.943.523.31.31.46.592.53 1.002.074.438.074 12.38 0 12.817a1.89 1.89 0 0 1-1.383 1.507l-.013.003c-.25.06-.747.069-4.97.082-3.344.01-4.765 0-4.95-.031-.821-.141-1.5-.84-1.605-1.648a9 9 0 0 1-.039-.868v-.01c0-.699-.052-.89-.301-1.14-.532-.53-1.472-.285-1.668.435-.076.28-.021 1.813.079 2.211.38 1.505 1.513 2.615 3.032 2.969.303.071.58.075 5.252.075 5.45 0 5.299.006 6.065-.258.985-.338 1.96-1.311 2.298-2.296.268-.779.258-.458.258-7.44 0-6.98.011-6.66-.258-7.44-.226-.658-.843-1.45-1.439-1.849-.651-.435-1.238-.616-2.224-.684-.675-.045-9.079-.044-9.558.003"/>
  <path d="M12.777 8.036a1.05 1.05 0 0 0-.67.538l-.003.006c-.12.229-.115.62.008.862.061.118.505.594 1.28 1.37l1.186 1.192-10.862.021-.162.087c-.367.196-.554.498-.554.895 0 .396.187.699.554.895l.162.086 10.862.02-1.186 1.193c-.775.777-1.218 1.252-1.28 1.37a1.01 1.01 0 0 0 .189 1.137c.292.292.775.372 1.138.189.252-.129 4.325-4.197 4.453-4.449a.86.86 0 0 0 .091-.443v.002a.9.9 0 0 0-.093-.445l.002.005c-.122-.24-4.2-4.321-4.437-4.44-.19-.093-.502-.135-.678-.09"/>
</svg>