<svg xmlns="http://www.w3.org/2000/svg" width="26" height="26" fill="currentColor" class="sym sym-log-out-02-solid" viewBox="0 0 26 26">
  <path d="M6.668 3.04c-.54.044-.978.155-1.39.353-1.19.568-1.941 1.533-2.206 2.83-.068.335-.072.745-.072 6.784 0 6.024.005 6.45.072 6.781.096.474.24.867.451 1.23.588 1.012 1.517 1.672 2.692 1.91.312.064.587.072 2.357.072 1.966 0 2.012-.002 2.355-.092 1.526-.404 2.563-1.437 2.96-2.952.124-.47.162-1.949.057-2.263-.246-.74-1.256-.91-1.731-.287-.181.237-.211.387-.214 1.048-.002.778-.049 1.107-.205 1.435a2.2 2.2 0 0 1-.916.919c-.427.202-.618.217-2.511.199-1.467-.015-1.753-.027-1.959-.085a1.99 1.99 0 0 1-1.353-1.434c-.039-.166-.05-1.597-.05-6.502 0-5.914.004-6.303.071-6.548.182-.659.765-1.223 1.413-1.365.286-.063 3.313-.097 3.76-.043.482.06.81.22 1.154.562.48.48.593.855.596 1.967.003.66.033.81.214 1.048.475.621 1.485.453 1.731-.288.105-.313.067-1.792-.057-2.263-.33-1.257-1.065-2.146-2.223-2.683a3.3 3.3 0 0 0-1.24-.339h-.011c-.48-.048-3.156-.043-3.744.003z"/>
  <path d="M16.79 7.036a1.05 1.05 0 0 0-.67.538l-.002.006c-.12.229-.115.619.008.862.062.122.636.725 1.78 1.87l1.686 1.692-9.858.021-.161.087c-.367.195-.554.498-.554.895 0 .396.187.699.554.895l.161.086 9.858.022-1.686 1.69c-1.145 1.147-1.718 1.75-1.78 1.872-.184.36-.105.843.188 1.136a1.01 1.01 0 0 0 1.144.186l-.006.002c.254-.128 5.327-5.196 5.456-5.45a.86.86 0 0 0 .09-.443v.002a.9.9 0 0 0-.093-.445l.003.005c-.123-.242-5.202-5.323-5.44-5.441-.189-.094-.501-.136-.676-.09z"/>
</svg>