<svg xmlns="http://www.w3.org/2000/svg" width="26" height="26" fill="currentColor" class="sym sym-log-in-solid" viewBox="0 0 26 26">
  <path d="M15.668 3.06a.99.99 0 0 0-.653.821v.005a.98.98 0 0 0 .522.988l.005.002.2.102 1.724.026c1.84.027 2.114.052 2.467.225.283.139.712.565.85.85.215.433.212.339.212 6.92 0 6.584.003 6.49-.211 6.92a2.24 2.24 0 0 1-.74.793c-.39.234-.58.255-2.538.284l-1.765.025-.199.102c-.796.41-.67 1.594.196 1.836.28.079 3.485.035 3.994-.054.862-.152 1.491-.477 2.103-1.086.614-.614.934-1.233 1.093-2.119.067-.373.072-.822.072-6.701 0-6.973.011-6.653-.258-7.432-.226-.657-.843-1.448-1.438-1.847-.913-.61-1.568-.724-4.138-.72-1.06.002-1.376.015-1.5.06z"/>
  <path d="M10.772 7.035a1.05 1.05 0 0 0-.67.537l-.003.006c-.12.229-.115.619.009.861.062.122.635.725 1.78 1.869l1.686 1.689-9.859.022-.161.086c-.367.196-.554.498-.554.894s.187.698.554.894l.161.086 9.859.022-1.687 1.689c-1.144 1.145-1.718 1.748-1.78 1.869-.184.36-.104.842.19 1.136a1.01 1.01 0 0 0 1.143.185l-.006.002c.126-.064.953-.861 2.773-2.678 1.82-1.815 2.619-2.64 2.683-2.766a.86.86 0 0 0 .09-.443v.003a.9.9 0 0 0-.093-.445l.003.005c-.123-.242-5.202-5.317-5.44-5.435-.189-.094-.501-.136-.677-.09z"/>
</svg>