<svg xmlns="http://www.w3.org/2000/svg" width="26" height="26" fill="currentColor" class="sym sym-log-out-solid" viewBox="0 0 26 26">
  <path d="M6.845 3.04c-.877.06-1.507.262-2.13.681-.543.366-1.14 1.094-1.379 1.68-.14.348-.245.828-.293 1.356-.057.63-.057 11.853 0 12.483.079.859.24 1.364.62 1.949.293.447.703.857 1.15 1.149.864.561 1.448.66 3.897.662 1.647 0 1.71-.009 2-.3a.98.98 0 0 0 0-1.402c-.286-.285-.33-.291-2.264-.312-1.893-.018-2.08-.04-2.473-.276a2.25 2.25 0 0 1-.733-.782l-.006-.011c-.214-.43-.21-.336-.21-6.92 0-6.581-.004-6.487.21-6.92.139-.285.567-.711.85-.85.357-.174.622-.198 2.403-.218 1.889-.02 1.938-.027 2.223-.311a.98.98 0 0 0 .001-1.403c-.29-.29-.354-.3-1.98-.294a48 48 0 0 0-1.885.037z"/>
  <path d="M16.797 7.035a1.05 1.05 0 0 0-.67.537l-.002.006c-.12.229-.115.619.008.86.063.123.635.725 1.778 1.87l1.685 1.689-9.848.021-.161.087c-.367.195-.553.498-.553.894s.186.698.553.894l.161.086 9.848.022-1.685 1.689c-1.144 1.145-1.716 1.747-1.778 1.869-.184.36-.104.842.189 1.135a1.01 1.01 0 0 0 1.142.186l-.006.002c.253-.129 5.321-5.191 5.45-5.445a.86.86 0 0 0 .09-.442v.002a.9.9 0 0 0-.093-.444l.003.005c-.123-.242-5.196-5.317-5.433-5.435-.19-.094-.502-.136-.677-.09z"/>
</svg>