<svg xmlns="http://www.w3.org/2000/svg" width="26" height="26" fill="currentColor" class="sym sym-log-in-02" viewBox="0 0 26 26">
  <path d="M17.245 23h-6.26c-1.019 0-1.524 0-2.028-.131A3.96 3.96 0 0 1 6.17 20.08c-.131-.505-.131-1.01-.131-2.03 0-.505.404-.91.908-.91.505 0 .91.405.91.91 0 .828 0 1.292.07 1.555a2.14 2.14 0 0 0 1.504 1.505c.273.07.727.07 1.555.07h6.26c1.504 0 2.321 0 2.776-.232.404-.202.716-.525.929-.929.232-.454.232-1.283.232-2.778V8.758c0-1.505 0-2.324-.232-2.778a2.07 2.07 0 0 0-.93-.93c-.454-.232-1.282-.232-2.776-.232h-6.26c-.827 0-1.291 0-1.554.07a2.14 2.14 0 0 0-1.504 1.506c-.07.273-.07.727-.07 1.555 0 .506-.405.91-.91.91a.905.905 0 0 1-.908-.91c0-1.02 0-1.525.131-2.03a3.96 3.96 0 0 1 2.787-2.788C9.46 3 9.967 3 10.986 3h6.26c1.837 0 2.766 0 3.604.434.747.384 1.342.97 1.716 1.718C23 5.99 23 6.919 23 8.758v8.484c0 1.839 0 2.768-.434 3.607a3.9 3.9 0 0 1-1.716 1.717c-.838.434-1.767.434-3.605.434m-4.24-5.05a.94.94 0 0 1-.646-.263.91.91 0 0 1 0-1.283l2.483-2.485H3.91A.905.905 0 0 1 3 13.01c0-.505.404-.909.909-.909h10.933L12.36 9.616a.908.908 0 0 1 1.282-1.283l4.039 4.04c.09.092.15.193.201.294.04.1.06.212.071.323v.03c0 .121-.03.232-.07.323a.7.7 0 0 1-.203.293l-4.038 4.04a.9.9 0 0 1-.646.263z"/>
</svg>