<svg xmlns="http://www.w3.org/2000/svg" width="26" height="26" fill="currentColor" class="sym sym-mail-02" viewBox="0 0 26 26">
  <path d="M17.233 21.98H8.777c-1.457 0-2.262 0-2.971-.374A3.43 3.43 0 0 1 4.359 20.1C4 19.362 4 18.533 4 17.017V10.81c0-.313 0-.535.078-.788.068-.233.174-.435.32-.617.155-.192.33-.313.573-.475l6.136-4.154c.563-.384.893-.607 1.32-.708a2.44 2.44 0 0 1 1.146 0c.427.101.767.334 1.32.708h.01L21.01 8.92c.262.182.437.303.602.506q.206.257.31.606c.078.253.078.475.078.788v6.207c0 1.516 0 2.355-.36 3.093a3.38 3.38 0 0 1-1.446 1.506C19.485 22 18.69 22 17.233 22zM5.757 11.75v5.267c0 1.233 0 1.91.175 2.264.146.303.388.556.68.707.34.182.99.182 2.174.182h8.457c1.184 0 1.835 0 2.175-.182a1.64 1.64 0 0 0 .689-.707c.175-.344.175-1.031.175-2.264V11.75l-5.36 3.63c-.553.373-.893.606-1.32.707a2.44 2.44 0 0 1-1.146 0c-.427-.101-.767-.334-1.32-.708l-5.36-3.629zm.728-1.678 5.583 3.78c.388.264.64.435.767.466.107.03.233.03.34 0 .126-.03.378-.202.767-.465l5.582-3.78-5.582-3.781c-.389-.263-.641-.435-.767-.465a.65.65 0 0 0-.34 0c-.126.03-.379.202-.767.465z"/>
</svg>