<svg xmlns="http://www.w3.org/2000/svg" width="26" height="26" fill="currentColor" class="sym sym-mail" viewBox="0 0 26 26">
  <path d="M7.752 22c-1.836 0-2.765 0-3.602-.435a3.92 3.92 0 0 1-1.716-1.719C2 18.996 2 18.076 2 16.236V9.764c0-.647 0-1.183.02-1.638a.95.95 0 0 1 .03-.475c.05-.597.162-1.062.384-1.497a3.92 3.92 0 0 1 1.716-1.72C4.987 4 5.916 4 7.752 4h10.496c1.836 0 2.765 0 3.602.435a3.92 3.92 0 0 1 1.716 1.719c.222.445.333.9.384 1.497a.96.96 0 0 1 .03.475c.02.455.02.99.02 1.638v6.472c0 1.84 0 2.77-.424 3.61a3.92 3.92 0 0 1-1.715 1.72c-.838.434-1.767.434-3.603.434zm-3.935-5.764c0 1.507 0 2.326.232 2.78.201.405.524.719.928.931.454.233 1.282.233 2.775.233h10.496c1.503 0 2.32 0 2.775-.233a2.12 2.12 0 0 0 .928-.93c.232-.455.232-1.284.232-2.781V9.693l-6.811 4.773c-.737.516-1.14.8-1.666.93a3 3 0 0 1-1.412 0c-.525-.13-.929-.414-1.655-.93L3.817 9.683zm.07-8.707 7.78 5.45c.546.385.869.607 1.06.658.172.04.364.04.535 0 .202-.05.525-.273 1.05-.647l7.78-5.46a1.8 1.8 0 0 0-.15-.547 2.1 2.1 0 0 0-.93-.93c-.453-.233-1.28-.233-2.774-.233H7.742c-1.503 0-2.32 0-2.775.233a2.12 2.12 0 0 0-.928.93q-.107.213-.152.546"/>
</svg>