<svg xmlns="http://www.w3.org/2000/svg" width="26" height="26" fill="currentColor" class="sym sym-mail-solid" viewBox="0 0 26 26">
  <path d="M6.081 4.034c-1.04.05-1.681.232-2.31.653-.591.399-1.17 1.064-1.17 1.35 0 .084.02.197.044.251.028.062 1.83 1.375 4.891 3.562 2.666 1.904 4.927 3.51 5.026 3.566.146.084.233.102.464.104.274 0 .295-.007.62-.212.574-.364 9.611-6.634 9.739-6.759.101-.098.12-.148.12-.311 0-.17-.027-.235-.199-.487-.57-.836-1.466-1.434-2.422-1.617a10 10 0 0 0-1.058-.101h-.022c-.872-.045-12.818-.043-13.723 0"/>
  <path d="M2.28 8.906c-.298.149-.28-.154-.28 4.613 0 2.655.016 4.438.042 4.724.079.86.24 1.365.62 1.95a4.05 4.05 0 0 0 1.15 1.15c.61.398 1.109.55 2.045.623.392.031 2.689.04 7.526.03 7.69-.015 7.277 0 8.051-.268.983-.338 1.955-1.31 2.294-2.295.255-.744.25-.643.267-5.541.012-3.98.006-4.465-.05-4.574-.133-.259-.486-.318-.782-.129-3.8 2.54-5.11 3.454-6.416 4.37l2.397-1.595c-4.453 3.085-4.486 3.108-4.8 3.267-.819.414-1.728.431-2.528.052-.434-.207-.344-.144-4.94-3.429-2.205-1.576-4.073-2.899-4.151-2.942-.177-.094-.266-.096-.445-.006"/>
</svg>