<svg xmlns="http://www.w3.org/2000/svg" width="26" height="26" fill="currentColor" class="sym sym-mail-02-solid" viewBox="0 0 26 26">
  <path d="M12.636 4.022a2.5 2.5 0 0 0-.875.337l.011-.006c-.215.129-2.856 1.907-5.648 3.8-.834.568-.879.604-.922.751-.048.169-.014.295.117.422.098.096 6.691 4.605 7.196 4.92.384.24.596.236 1-.02a1534 1534 0 0 0 6.797-4.623c.497-.341.585-.483.462-.749-.07-.15.267.086-3.88-2.715-2.681-1.813-2.686-1.816-2.939-1.932a2.47 2.47 0 0 0-1.334-.184l.013-.001z"/>
  <path d="M4.191 10.93c-.185.105-.177-.033-.188 3.464-.012 3.43.014 4.467.12 5 .245 1.228 1.243 2.251 2.427 2.488.501.1 1.46.118 6.45.118s5.948-.018 6.45-.118c.79-.158 1.52-.675 1.987-1.405.547-.858.576-1.172.56-6.1-.01-3.089-.012-3.211-.073-3.315-.112-.194-.33-.236-.56-.11-.071.04-1.573 1.056-3.339 2.258-3.909 2.663-3.697 2.52-3.933 2.645-.379.199-.64.261-1.092.261s-.713-.063-1.092-.261c-.236-.125-.025.018-3.934-2.645.102.022-.987-.723-2.08-1.461l-1.259-.797c-.149-.082-.322-.091-.444-.022"/>
</svg>