<svg xmlns="http://www.w3.org/2000/svg" width="26" height="26" fill="currentColor" class="sym sym-map-solid" viewBox="0 0 26 26">
  <path d="M18.908 22.965c.097.011.18.004.344-.01.561-.045 1.079-.143 1.564-.39a4 4 0 0 0 1.748-1.749c.247-.486.346-1.002.392-1.564.044-.542.044-1.206.044-2.01V8.758c0-.805 0-1.47-.044-2.01-.046-.563-.144-1.08-.392-1.565a4 4 0 0 0-1.748-1.748c-.485-.247-1.002-.346-1.564-.392C18.711 3 18.047 3 17.242 3h-6.226c-.405 0-.607 0-.734.086a.5.5 0 0 0-.212.32c-.029.15.05.337.21.71l7.744 18.067c.077.181.116.272.171.352.155.227.44.4.713.43M6.748 3.046h.002c.164-.014.245-.02.343-.01.273.032.557.203.712.43.054.08.093.17.17.347l.002.005 3.747 8.744-7.544 4.162c-.386.213-.58.32-.739.301a.5.5 0 0 1-.347-.205C3 16.69 3 16.467 3 16.021V8.76c0-.805 0-1.47.044-2.01.046-.563.145-1.08.392-1.565a4 4 0 0 1 1.748-1.748c.485-.248 1.002-.346 1.564-.392M4.043 19.084c-.336.186-.504.279-.635.462a1.2 1.2 0 0 0-.187.555c-.006.226.045.34.146.567q.033.075.07.148a4 4 0 0 0 1.748 1.748c.486.248 1.002.346 1.564.392C7.291 23 7.954 23 8.76 23h6.226c.405 0 .608 0 .734-.085a.5.5 0 0 0 .213-.322c.028-.15-.051-.335-.211-.708l-3.204-7.476-8.473 4.675"/>
</svg>