<svg xmlns="http://www.w3.org/2000/svg" width="26" height="26" fill="currentColor" class="sym sym-map" viewBox="0 0 26 26">
  <path d="M17.03 23H8.747c-1.838 0-2.767 0-3.606-.434a3.9 3.9 0 0 1-1.717-1.716c-.353-.697-.414-1.454-.424-2.736V8.755c0-1.838 0-2.767.434-3.605a3.9 3.9 0 0 1 1.718-1.716C6 3 6.919 3 8.758 3h8.484c1.839 0 2.768 0 3.607.434.747.384 1.343.98 1.717 1.716C23 5.998 23 6.917 23 8.755v8.48c0 1.838 0 2.767-.434 3.605a3.9 3.9 0 0 1-1.717 1.716c-.849.434-1.768.434-3.607.434h-.202zM4.818 18.578c.02.697.07 1.15.222 1.444.202.404.526.716.93.929.454.232 1.283.232 2.777.232h6.89l-3.071-6.896-7.748 4.301zm9.01-5.936 3.798 8.54c1.263 0 1.98-.02 2.394-.231.404-.202.717-.526.93-.93.232-.454.232-1.282.232-2.776v-8.48c0-1.505 0-2.322-.232-2.777a2.1 2.1 0 0 0-.93-.928c-.454-.233-1.283-.233-2.778-.233h-6.889l3.465 7.805v.02zM8.364 4.827c-1.263 0-1.98.02-2.394.233a2.1 2.1 0 0 0-.93.928c-.232.455-.232 1.283-.232 2.777v7.743l7.01-3.897-3.464-7.784z"/>
</svg>