<svg xmlns="http://www.w3.org/2000/svg" width="26" height="26" fill="currentColor" class="sym sym-marker-pin-solid" viewBox="0 0 26 26">
  <path fill-rule="evenodd" d="M12.34 2.011c-.088.01-.313.036-.5.06-1.941.24-3.815 1.167-5.228 2.587C4.37 6.916 3.48 10.218 4.3 13.243q.703 2.595 3.213 5.527c1.101 1.287 4.73 4.982 5.044 5.137.252.124.634.124.887 0 .314-.155 3.942-3.85 5.044-5.137 2.31-2.7 3.416-5.061 3.506-7.49.13-3.512-1.86-6.81-5.047-8.368a8.5 8.5 0 0 0-2.578-.818l-.047-.006c-.41-.062-1.66-.11-1.981-.077m1.417 6.081c.337.092.84.35 1.118.575.68.548 1.127 1.47 1.127 2.332 0 .782-.36 1.605-.948 2.176-1.084 1.048-2.83 1.104-3.974.124-.457-.39-.867-1.051-1.006-1.62-.069-.281-.07-1.076 0-1.361.08-.331.414-.993.628-1.242a3.2 3.2 0 0 1 1.781-1.038l.02-.004c.268-.049.99-.015 1.254.057z"/>
</svg>