<svg xmlns="http://www.w3.org/2000/svg" width="26" height="26" fill="currentColor" class="sym sym-marker-pin-02-solid" viewBox="0 0 26 26">
  <path d="M12.432 2.525a4.4 4.4 0 0 0-1.706.673c-.777.528-1.339 1.327-1.604 2.282-.097.35-.109.458-.108 1.013 0 .529.016.673.096.962.288 1.031.863 1.839 1.7 2.385.364.238.496.302.907.442l.261.09.04 7.445.111.19c.406.69 1.411.667 1.758-.04l.094-.19.04-7.406.26-.089c.413-.14.544-.204.908-.442.847-.552 1.435-1.384 1.703-2.408.078-.3.093-.453.091-.959 0-.517-.016-.655-.105-.987a4.05 4.05 0 0 0-1.592-2.28l-.013-.008a4.7 4.7 0 0 0-1.28-.584l-.034-.009c-.387-.094-1.178-.136-1.528-.08z"/>
  <path d="M8.17 13.047c-3.67.879-5.918 2.562-6.15 4.606-.113 1.003.244 1.969 1.04 2.805 1.535 1.614 4.487 2.69 8.216 2.995.32.026 1.096.047 1.724.047 1.624 0 2.848-.112 4.248-.393 4.422-.883 7.012-2.981 6.731-5.453-.201-1.774-1.953-3.308-4.847-4.244-.742-.24-1.679-.466-2.024-.488-.295-.019-.339-.012-.541.093-.688.355-.73 1.334-.072 1.71.097.055.393.146.673.207 1.914.418 3.437 1.117 4.27 1.96.436.438.56.69.56 1.126 0 .441-.124.686-.581 1.144-.403.403-.806.68-1.463 1.003-1.273.628-2.815 1.033-4.81 1.268-.867.102-3.43.102-4.288 0-2.004-.237-3.538-.641-4.81-1.268-.658-.324-1.06-.6-1.463-1.003-.457-.457-.58-.703-.58-1.144 0-.436.123-.688.558-1.126.834-.843 2.357-1.542 4.271-1.96.28-.06.576-.152.673-.207.656-.376.616-1.359-.069-1.707-.291-.148-.55-.142-1.265.03z"/>
</svg>