<svg xmlns="http://www.w3.org/2000/svg" width="26" height="26" fill="currentColor" class="sym sym-mark-solid" viewBox="0 0 26 26">
  <path d="M12.502 10.039a3.1 3.1 0 0 0-.924.333l.016-.008c-1.368.709-1.956 2.342-1.365 3.792.316.73.887 1.302 1.598 1.61l.02.008c.34.145.736.23 1.152.23a2.98 2.98 0 0 0 2.12-.882 2.98 2.98 0 0 0 .883-2.12c0-.762-.285-1.458-.755-1.985l.002.003c-.35-.396-.972-.782-1.492-.924-.266-.073-.988-.106-1.255-.057"/>
  <path fill-rule="evenodd" d="M12.78 2.022a1.06 1.06 0 0 0-.675.544c-.074.14-.086.244-.1.828l-.015.667-.226.027a9.05 9.05 0 0 0-7.008 5.293l-.023.058c-.306.707-.565 1.633-.65 2.328l-.027.226-.667.015c-.73.017-.855.051-1.103.298a.987.987 0 0 0 0 1.392c.249.248.374.282 1.103.299l.667.015.027.226c.57 3.99 3.69 7.108 7.633 7.673l.048.006.226.027.015.667c.018.73.051.855.299 1.103a.99.99 0 0 0 1.393 0c.247-.249.281-.373.298-1.103l.015-.667.226-.027c.402-.05.976-.178 1.442-.324 2.83-.9 5.013-3.084 5.897-5.849l.017-.063c.133-.406.247-.893.319-1.394l.006-.048.027-.227.667-.014c.73-.018.855-.052 1.103-.299a.99.99 0 0 0 0-1.392c-.249-.247-.374-.282-1.103-.298l-.667-.015-.027-.226a9 9 0 0 0-.343-1.507l.018.065c-.9-2.829-3.084-5.012-5.85-5.895l-.064-.018a8.5 8.5 0 0 0-1.393-.318l-.276-.033-.015-.667c-.017-.73-.051-.855-.298-1.103-.229-.227-.628-.344-.917-.27m1.064 6.037a5.1 5.1 0 0 1 1.871.726l-.02-.012a5.4 5.4 0 0 1 1.79 1.977l.014.03c.57 1.137.67 2.58.261 3.806a5.12 5.12 0 0 1-3.141 3.164l-.036.011c-2.352.786-4.934-.285-6.07-2.515-.907-1.783-.618-4.047.707-5.529.799-.897 1.793-1.461 2.918-1.66.444-.077 1.247-.076 1.706.002"/>
</svg>