<svg xmlns="http://www.w3.org/2000/svg" width="26" height="26" fill="currentColor" class="sym sym-mark" viewBox="0 0 26 26">
  <path d="M13 24a.905.905 0 0 1-.908-.908v-1.16a8.984 8.984 0 0 1-8.023-8.024h-1.16A.905.905 0 0 1 2 13c0-.505.404-.908.908-.908h1.16a8.984 8.984 0 0 1 8.024-8.023v-1.16c0-.505.403-.909.908-.909s.908.404.908.908v1.16a8.984 8.984 0 0 1 8.023 8.024h1.16c.505 0 .909.403.909.908a.904.904 0 0 1-.908.908h-1.16a8.984 8.984 0 0 1-8.024 8.023v1.16A.905.905 0 0 1 13 24m0-3.835A7.167 7.167 0 0 0 20.165 13 7.167 7.167 0 0 0 13 5.835 7.167 7.167 0 0 0 5.835 13 7.167 7.167 0 0 0 13 20.165m0-3.23A3.94 3.94 0 0 1 9.064 13 3.94 3.94 0 0 1 13 9.064 3.94 3.94 0 0 1 16.936 13 3.94 3.94 0 0 1 13 16.936m0-6.054a2.119 2.119 0 1 0 0 4.238 2.119 2.119 0 0 0 0-4.238"/>
</svg>