<svg xmlns="http://www.w3.org/2000/svg" width="26" height="26" fill="currentColor" class="sym sym-marker-pin" viewBox="0 0 26 26">
  <path d="M13.01 14.918a3.945 3.945 0 0 1-3.944-3.936 3.945 3.945 0 0 1 7.888 0c0 2.17-1.77 3.936-3.944 3.936m0-6.056a2.12 2.12 0 0 0-2.123 2.12c0 1.17.95 2.119 2.123 2.119a2.12 2.12 0 0 0 2.124-2.12c0-1.17-.95-2.119-2.124-2.119"/>
  <path d="M13.01 24a.95.95 0 0 1-.647-.262l-.97-.96C7.59 19.016 4 15.463 4 10.983 4 6.027 8.035 2 13 2s9 4.027 9 8.982c0 4.48-3.59 8.033-7.392 11.797l-.97.959a.9.9 0 0 1-.648.262zm0-20.183c-3.964 0-7.18 3.209-7.18 7.165 0 3.724 3.327 7.013 6.846 10.505l.334.323.334-.323c3.519-3.492 6.846-6.781 6.846-10.505 0-3.956-3.216-7.165-7.18-7.165"/>
</svg>