<svg xmlns="http://www.w3.org/2000/svg" width="26" height="26" fill="currentColor" class="sym sym-marker-pin-02" viewBox="0 0 26 26">
  <path d="M12.99 23C6.729 23 2 20.77 2 17.808c0-2.183 2.601-4.03 6.786-4.818a.906.906 0 0 1 1.068.683c.101.471-.222.923-.716 1.02-3.135.586-5.313 1.874-5.313 3.115 0 1.634 3.922 3.461 9.175 3.461s9.175-1.827 9.175-3.461c0-1.25-2.188-2.53-5.313-3.116-.494-.096-.817-.548-.716-1.019a.906.906 0 0 1 1.069-.683c4.184.79 6.785 2.635 6.785 4.818C24 20.769 19.271 23 13.01 23zm0-4.808c-.504 0-.908-.384-.908-.865v-6.933C10.349 10 9.058 8.52 9.058 6.75 9.058 4.683 10.822 3 12.99 3s3.932 1.683 3.932 3.75c0 1.77-1.29 3.26-3.025 3.644v6.933c0 .48-.403.865-.907.865m0-13.461c-1.17 0-2.117.904-2.117 2.019s.947 2.02 2.117 2.02 2.117-.905 2.117-2.02-.947-2.02-2.117-2.02"/>
</svg>