<svg xmlns="http://www.w3.org/2000/svg" width="26" height="26" fill="currentColor" class="sym sym-maximize" viewBox="0 0 26 26">
  <path d="M10.304 22H4.91a.85.85 0 0 1-.355-.07.8.8 0 0 1-.273-.183l-.03-.03a.8.8 0 0 1-.182-.273A1 1 0 0 1 4 21.09V15.7c0-.506.405-.91.91-.91.507 0 .911.404.911.91v3.195l4.736-4.742a.91.91 0 0 1 1.285 1.284L7.106 20.18h3.198c.505 0 .91.404.91.91s-.405.91-.91.91m4.502-9.89a.95.95 0 0 1-.647-.263.91.91 0 0 1 0-1.284l4.735-4.743h-3.198a.907.907 0 0 1-.91-.91c0-.506.405-.91.91-.91h5.393c.122 0 .243.02.355.07a.8.8 0 0 1 .303.213q.122.122.182.273c.04.111.071.223.071.354v5.39c0 .506-.405.91-.91.91a.907.907 0 0 1-.911-.91V7.104l-4.735 4.743a.9.9 0 0 1-.648.263z"/>
</svg>