<svg xmlns="http://www.w3.org/2000/svg" width="26" height="26" fill="currentColor" class="sym sym-maximize-solid" viewBox="0 0 26 26">
  <path d="M15.39 4.057a.9.9 0 0 0-.477.4l-.002.003c-.085.145-.1.21-.1.44 0 .231.014.296.1.441.055.093.154.21.22.26.258.197.288.2 2.107.2h1.68l-2.454 2.46c-2.232 2.236-2.46 2.475-2.513 2.636-.116.351-.04.69.211.94.25.25.59.328.94.211.162-.053.401-.28 2.637-2.512l2.46-2.455v1.675c0 1.043.014 1.726.037 1.81a.96.96 0 0 0 .44.526.884.884 0 0 0 1.053-.155c.282-.282.27-.14.27-3.335 0-3.192.012-3.054-.269-3.334-.28-.281-.138-.27-3.349-.267-2.379.002-2.873.01-2.99.054zm-4.4 9.885a1.4 1.4 0 0 0-.242.096l.008-.004c-.07.035-1.216 1.151-2.547 2.481l-2.422 2.418-.01-1.729c-.011-1.687-.013-1.73-.089-1.871-.176-.33-.448-.498-.805-.498s-.629.168-.805.498C4 15.478 4 15.479 4 18.414s0 2.937.078 3.082q.148.277.426.426C4.649 22 4.65 22 7.586 22s2.936 0 3.081-.078c.33-.176.498-.448.498-.805s-.168-.629-.498-.805c-.141-.076-.184-.078-1.872-.089l-1.728-.01 2.417-2.422c1.692-1.694 2.442-2.47 2.5-2.584a.91.91 0 0 0-.17-1.023c-.204-.204-.563-.31-.823-.242"/>
</svg>