<svg xmlns="http://www.w3.org/2000/svg" width="26" height="26" fill="currentColor" class="sym sym-maximize-02" viewBox="0 0 26 26">
  <path d="M16.772 21.99H16.6a.906.906 0 0 1-.91-.91c0-.504.404-.908.91-.908h.172c1.315 0 2.043 0 2.427-.192.344-.172.607-.445.789-.788.192-.374.192-1.101.192-2.424v-.182c0-.505.404-.91.91-.91s.91.405.91.91v.182c0 1.656 0 2.485-.394 3.252a3.57 3.57 0 0 1-1.588 1.576c-.769.394-1.598.394-3.246.394m-7.372 0h-.172c-1.648 0-2.488 0-3.256-.394a3.53 3.53 0 0 1-1.578-1.566C4 19.253 4 18.424 4 16.778v-.182c0-.505.405-.91.91-.91.506 0 .91.405.91.91v.182c0 1.323 0 2.05.192 2.424.172.343.445.606.779.778.384.202 1.112.202 2.437.202H9.4c.506 0 .91.404.91.909S9.906 22 9.4 22zm11.69-11.677a.906.906 0 0 1-.91-.909v-.182c0-1.323 0-2.05-.192-2.424a1.76 1.76 0 0 0-.779-.778c-.384-.202-1.112-.202-2.437-.202H16.6a.906.906 0 0 1-.91-.909c0-.505.404-.909.91-.909h.172c1.648 0 2.488 0 3.256.394a3.53 3.53 0 0 1 1.578 1.566C22 6.737 22 7.566 22 9.212v.182a.905.905 0 0 1-.91.909zm-16.18 0A.906.906 0 0 1 4 9.404v-.182c0-1.656 0-2.485.394-3.252a3.57 3.57 0 0 1 1.588-1.576C6.751 4 7.58 4 9.228 4H9.4c.506 0 .91.404.91.91a.905.905 0 0 1-.91.908h-.172c-1.314 0-2.043 0-2.427.192a1.8 1.8 0 0 0-.789.788c-.192.374-.192 1.101-.192 2.424v.182c0 .505-.404.91-.91.91"/>
</svg>