<svg xmlns="http://www.w3.org/2000/svg" width="26" height="26" fill="currentColor" class="sym sym-message-notification-square" viewBox="0 0 26 26">
  <path d="M9.414 20.99c-.377 0-.727-.172-.957-.478-.266-.344-.266-.726-.266-1.31v-1.08a3.2 3.2 0 0 1-.8-.105c-1.113-.306-1.977-1.214-2.28-2.371C5 15.216 5 14.795 5 13.953V9.641c0-1.482 0-2.295.35-3.012.312-.63.8-1.137 1.406-1.463.69-.363 1.472-.363 2.897-.363H12.2c.46 0 .828.383.828.86 0 .479-.368.861-.828.861H9.653c-1.168 0-1.812 0-2.143.172a1.55 1.55 0 0 0-.68.708c-.175.354-.175 1.013-.175 2.228v4.312c0 .669 0 1.042.055 1.252.147.555.57 1.004 1.104 1.148.193.057.552.057 1.204.057.46 0 .828.383.828.86v1.53l1.59-1.329c.424-.353.654-.535.939-.688.257-.134.533-.24.818-.297.322-.066.616-.066 1.15-.066h1.213c1.168 0 1.812 0 2.143-.173.294-.152.533-.401.68-.707.166-.344.166-1.014.166-2.228v-.162c0-.478.368-.86.827-.86.46 0 .828.382.828.86v.162c0 1.482 0 2.295-.35 3.012a3.27 3.27 0 0 1-1.406 1.463c-.69.363-1.472.363-2.897.363h-1.214c-.469 0-.67 0-.818.029a1.5 1.5 0 0 0-.395.143c-.138.077-.313.22-.653.498l-1.904 1.587c-.432.363-.726.602-1.158.602zm8.368-10.326a3.13 3.13 0 0 1-2.272-.975 3.4 3.4 0 0 1-.947-2.371c0-.899.331-1.73.947-2.371 1.214-1.263 3.338-1.263 4.552 0 1.25 1.31 1.25 3.423 0 4.732a3.15 3.15 0 0 1-2.28.976zm0-4.972c-.414 0-.81.172-1.104.478a1.66 1.66 0 0 0 0 2.295c.589.612 1.619.612 2.207 0a1.674 1.674 0 0 0 0-2.295 1.53 1.53 0 0 0-1.103-.478"/>
</svg>