<svg xmlns="http://www.w3.org/2000/svg" width="26" height="26" fill="currentColor" class="sym sym-message-chat-circle-solid" viewBox="0 0 26 26">
  <path d="M14.392 3.003c-2.68.15-5.139 1.602-6.532 3.86a9 9 0 0 0-.69 1.386l-.022.064c-.12.321-.397 1.326-.372 1.348a5 5 0 0 0 .423-.096 7.6 7.6 0 0 1 3.666.016l-.052-.012c2.764.698 4.903 2.9 5.574 5.736.263 1.113.263 2.475.002 3.566-.046.189-.07.344-.054.344.082 0 1.03-.262 1.282-.355l.29-.107 1.684.251c1.965.292 2.126.298 2.512.107.267-.136.477-.35.607-.61l.003-.009c.147-.3.134-.629-.098-2.518l-.207-1.68.166-.503A8.1 8.1 0 0 0 23 11.17q-.001-.886-.178-1.716l.01.054a8.1 8.1 0 0 0-2.228-4.12 8.12 8.12 0 0 0-5.522-2.38 11 11 0 0 0-.704-.003h.015z"/>
  <path d="M8.361 11.21c-2.595.292-4.666 2.357-5.071 5.056-.111.745-.02 1.858.215 2.59l.109.34-.307 1.394C3.139 21.357 3 22.037 3 22.103c0 .456.435.897.885.897.062 0 .762-.09 1.556-.2l1.445-.2.402.126c.667.209.975.254 1.707.255.397 0 .757-.02.923-.05a5.9 5.9 0 0 0 4.842-6.095l.001.014a5.96 5.96 0 0 0-1.158-3.337c-.28-.381-.977-1.058-1.36-1.32-1.167-.796-2.514-1.137-3.883-.983z"/>
</svg>