<svg xmlns="http://www.w3.org/2000/svg" width="26" height="26" fill="currentColor" class="sym sym-message-circle-solid" viewBox="0 0 26 26">
  <path d="M12.437 4.024a8.7 8.7 0 0 0-2.688.711l.058-.023C7.288 5.818 5.378 8.12 4.74 10.818c-.203.859-.244 1.222-.244 2.177 0 1.122.074 1.636.391 2.719l.152.519-.934 1.774c-.513.976-.972 1.886-1.02 2.024a1.38 1.38 0 0 0 .372 1.513c.454.428.538.43 3.881.071l2.586-.278.277.106c2.172.832 4.621.728 6.771-.287.42-.197 1.09-.616 1.539-.956.497-.38 1.382-1.288 1.752-1.8.886-1.227 1.422-2.55 1.67-4.116.05-.314.066-.634.066-1.29 0-.657-.017-.976-.067-1.29-.194-1.237-.556-2.287-1.127-3.277-1.35-2.318-3.624-3.944-6.287-4.346l-.048-.006c-.467-.07-1.595-.099-2.035-.052"/>
</svg>