<svg xmlns="http://www.w3.org/2000/svg" width="26" height="26" fill="currentColor" class="sym sym-message-alert-circle" viewBox="0 0 26 26">
  <path d="M13.25 21.99a8.6 8.6 0 0 1-3.15-.597 2 2 0 0 0-.196-.07c-.02 0-.069 0-.148.02l-4.744.505c-.59.061-.974.102-1.368-.141a1.36 1.36 0 0 1-.63-.971c-.069-.455.118-.809.394-1.335l1.516-2.892c.069-.131.118-.212.138-.283q-.03-.076-.119-.334A9.4 9.4 0 0 1 4.481 13c0-4.965 3.927-9 8.76-9C18.072 4 22 8.035 22 13s-3.927 9-8.76 9zm-3.326-2.498h.039c.138 0 .226.02.354.05.079.02.187.051.394.142a6.8 6.8 0 0 0 2.53.486c3.858 0 6.987-3.216 6.987-7.18s-3.14-7.18-6.988-7.18-6.988 3.216-6.988 7.18c0 .789.119 1.557.365 2.295.118.375.187.567.206.8.02.212 0 .394-.049.596-.059.232-.148.415-.295.677l-1.388 2.63 4.468-.476c.168-.02.276-.03.355-.03zm3.336-2.74a.894.894 0 0 1-.886-.91c0-.506.394-.91.886-.91s.886.404.886.91c0 .505-.394.91-.886.91m0-3.327a.894.894 0 0 1-.886-.91V9.188c0-.506.394-.91.886-.91s.886.404.886.91v3.327c0 .505-.394.91-.886.91"/>
</svg>