<svg xmlns="http://www.w3.org/2000/svg" width="26" height="26" fill="currentColor" class="sym sym-message-notification-circle" viewBox="0 0 26 26">
  <path d="M13.707 20.98a8.2 8.2 0 0 1-2.982-.562 2 2 0 0 0-.187-.067c-.018 0-.065 0-.14.019l-4.492.477c-.55.058-.923.096-1.295-.133a1.28 1.28 0 0 1-.597-.917c-.065-.43.103-.754.373-1.25l1.445-2.73c.065-.124.111-.2.13-.267a5 5 0 0 1-.112-.334 8.6 8.6 0 0 1-.429-2.72c0-4.42 3.235-8.057 7.522-8.458a.85.85 0 0 1 .913.773.85.85 0 0 1-.755.936C9.681 6.07 7.1 8.973 7.1 12.495c0 .745.112 1.47.345 2.167.112.344.177.534.196.754.018.2 0 .372-.047.573-.056.21-.14.382-.28.64L6 19.11l4.232-.449c.196-.019.289-.028.373-.019.13 0 .214.02.335.048.075.02.177.048.382.134a6.4 6.4 0 0 0 2.386.458c3.449 0 6.273-2.644 6.59-6.157a.856.856 0 0 1 .913-.773.84.84 0 0 1 .755.935c-.391 4.4-3.942 7.713-8.258 7.713zm4.828-9.878a3.4 3.4 0 0 1-2.451-1.04 3.58 3.58 0 0 1-1.016-2.511c0-.945.364-1.842 1.016-2.51A3.42 3.42 0 0 1 18.535 4c.923 0 1.799.372 2.451 1.04 1.352 1.385 1.352 3.637 0 5.03a3.42 3.42 0 0 1-2.45 1.041zm0-5.393c-.475 0-.932.19-1.267.534a1.86 1.86 0 0 0-.522 1.298c0 .487.186.955.522 1.298.67.697 1.854.697 2.535 0 .68-.696.699-1.88 0-2.596a1.77 1.77 0 0 0-1.268-.534"/>
</svg>