<svg xmlns="http://www.w3.org/2000/svg" width="26" height="26" fill="currentColor" class="sym sym-message-notification-square-solid" viewBox="0 0 26 26">
  <path d="M8.278 4.026c-.855.043-1.331.182-1.844.54A3.17 3.17 0 0 0 5.11 6.59C5.021 7.077 5 8 5 11.339c0 3.36.016 3.925.122 4.354.326 1.312 1.493 2.33 2.765 2.415l.312.02v.72c0 .893.034 1.246.14 1.486.098.227.318.452.556.572.16.08.222.092.49.094.285 0 .32-.007.52-.113.136-.072.714-.529 1.599-1.263a64 64 0 0 1 1.528-1.245 1.7 1.7 0 0 1 .348-.161c.191-.062.306-.066 1.936-.067 1.895-.002 2.772-.033 3.19-.117.782-.156 1.493-.664 1.956-1.394.35-.554.462-.989.51-1.986.035-.734.037-3.806.002-4.058-.017-.126-.048-.203-.11-.267-.12-.125-.296-.115-.754.04-.723.245-.854.268-1.507.27-.547 0-.62-.008-.936-.093-.772-.21-1.322-.53-1.86-1.082a4.18 4.18 0 0 1-1.206-2.973c0-.5.06-.863.245-1.466.179-.582.193-.759.068-.888-.06-.065-.135-.097-.256-.115-.213-.032-5.732-.028-6.38.004"/>
  <path d="m18.298 4.01-.238.052c-.54.115-1.14.548-1.467 1.061a2.6 2.6 0 0 0-.387 1.37q.001.256.047.498l-.002-.016c.1.509.309.911.66 1.277 1.354 1.409 3.654.682 4.043-1.279a2.55 2.55 0 0 0-.148-1.461l.007.016a2.5 2.5 0 0 0-1.619-1.458c-.162-.047-.779-.088-.896-.06"/>
</svg>