<svg xmlns="http://www.w3.org/2000/svg" width="26" height="26" fill="currentColor" class="sym sym-message-notification-circle-solid" viewBox="0 0 26 26">
  <path d="M13.115 4.026c-2.725.2-5.065 1.72-6.437 3.93l-.02.035a10 10 0 0 0-.741 1.526l-.025.07c-.636 1.763-.652 3.9-.045 5.716l.085.253-.89 1.683c-.487.926-.922 1.772-.964 1.88a1.3 1.3 0 0 0-.078.503c-.002.275.009.329.111.543.135.28.354.5.633.634.183.087.231.095.618.09.245-.002 1.407-.11 2.79-.26l2.37-.255.286.107c.858.329 1.85.519 2.884.519.744 0 1.466-.098 2.154-.283l-.06.014c1.407-.364 2.697-1.126 3.766-2.22a8.4 8.4 0 0 0 2.169-3.857c.238-.953.325-2.226.215-3.153-.092-.795-.242-.899-.938-.646-.68.246-.903.285-1.62.287-.598 0-.677-.008-1.023-.1-.844-.225-1.446-.57-2.033-1.164a4.46 4.46 0 0 1-1.319-3.2c0-.532.067-.924.263-1.541.087-.27.157-.541.157-.605q-.001-.281-.253-.376c-.303-.113-1.366-.18-2.056-.13z"/>
  <path d="M19.046 4.01c-.039.009-.155.035-.26.056-.59.123-1.246.59-1.603 1.142a2.75 2.75 0 0 0-.423 1.474q0 .276.05.536l-.002-.018c.11.548.338.981.721 1.374 1.482 1.517 3.995.734 4.421-1.376a2.7 2.7 0 0 0-.161-1.572l.006.018a2.71 2.71 0 0 0-1.769-1.57c-.178-.05-.851-.094-.98-.064"/>
</svg>