<svg xmlns="http://www.w3.org/2000/svg" width="26" height="26" fill="currentColor" class="sym sym-message-dots-circle" viewBox="0 0 26 26">
  <path d="M13 22a9 9 0 0 1-3.388-.657c-.1-.04-.172-.071-.212-.081l-.091.02-3.256.546c-.425.07-.759.131-1.133-.03a1.38 1.38 0 0 1-.718-.718c-.162-.374-.1-.708-.03-1.133l.566-3.387s-.04-.071-.08-.172A9 9 0 0 1 4 13c0-4.965 4.035-9 9-9s9 4.035 9 9-4.035 9-9 9m-3.58-2.558c.132 0 .253.01.395.04.1.02.232.07.485.172A7.18 7.18 0 0 0 20.18 13 7.18 7.18 0 0 0 13 5.82 7.18 7.18 0 0 0 5.82 13c0 .93.172 1.84.526 2.7.101.253.152.384.172.495.03.142.04.253.04.395 0 .101-.01.212-.04.404l-.496 3.004 2.933-.486c.253-.04.364-.05.465-.05zm7.625-5.077a1.355 1.355 0 1 1 0-2.71 1.355 1.355 0 0 1 0 2.71m-4.045 0a1.355 1.355 0 1 1 0-2.71 1.355 1.355 0 0 1 0 2.71m-4.045 0a1.355 1.355 0 1 1 0-2.71 1.355 1.355 0 0 1 0 2.71"/>
</svg>