<svg xmlns="http://www.w3.org/2000/svg" width="26" height="26" fill="currentColor" class="sym sym-message-circle" viewBox="0 0 26 26">
  <path d="M13.24 21.99a8.6 8.6 0 0 1-3.146-.597 2 2 0 0 0-.197-.07c-.02 0-.069 0-.147.02l-4.74.505c-.58.061-.973.102-1.366-.141a1.36 1.36 0 0 1-.63-.971c-.068-.455.109-.799.394-1.325l1.524-2.892c.069-.131.118-.212.138-.283a6 6 0 0 1-.118-.354A9.2 9.2 0 0 1 4.499 13c0-4.965 3.923-9 8.75-9C18.078 4 22 8.035 22 13s-3.923 9-8.75 9zm-3.323-2.488h.04c.137 0 .225.02.353.05.079.021.187.051.403.142a6.7 6.7 0 0 0 2.517.486c3.854 0 6.98-3.216 6.98-7.18s-3.126-7.18-6.98-7.18S6.25 9.036 6.25 13c0 .789.117 1.557.363 2.296.118.364.187.566.207.798.02.213 0 .395-.05.607-.058.223-.147.405-.294.678l-1.387 2.629 4.464-.475c.167-.02.275-.03.354-.03z"/>
</svg>