<svg xmlns="http://www.w3.org/2000/svg" width="26" height="26" fill="currentColor" class="sym sym-message-chat-circle" viewBox="0 0 26 26">
  <path d="M4.007 22.989a.98.98 0 0 1-.739-.326 1.02 1.02 0 0 1-.246-.898l.582-2.662s-.034-.033-.067-.146a6 6 0 0 1-.314-1.92c0-2.38 1.377-4.447 3.358-5.39 0-.146-.011-.292-.011-.45C6.57 6.673 10.252 3 14.785 3S23 6.683 23 11.198c0 1-.18 1.976-.537 2.908l-.067.191s.01.022.022.09l.358 2.942c.045.427.09.764-.078 1.134a1.42 1.42 0 0 1-.739.73c-.392.169-.727.112-1.142.056l-3.01-.438-.067.045a8.4 8.4 0 0 1-3.37.54C13.476 21.517 11.417 23 9.033 23c-.65 0-1.298-.112-1.903-.326-.123-.045-.179-.067-.223-.078l-.09.022-2.686.37h-.134zm2.966-2.415c.145 0 .224 0 .37.034.077.011.2.056.436.135 2.585.92 5.07-1.1 5.07-3.706 0-2.167-1.702-3.93-3.795-3.93S5.26 14.87 5.26 17.037c0 .427.067.854.202 1.258.1.303.134.449.156.539.023.157.023.27.023.404 0 .101-.023.225-.067.438l-.247 1.1 1.254-.168c.224-.034.325-.045.425-.045zm2.07-9.477c3.201 0 5.82 2.672 5.82 5.951v.337c.739 0 1.455-.135 2.138-.393.28-.1.392-.135.481-.157.134-.023.213-.034.392-.034.09 0 .201 0 .414.045l2.474.36-.314-2.56a4 4 0 0 1-.033-.428c0-.146.01-.258.044-.393 0-.056.045-.18.135-.393a6.2 6.2 0 0 0 .414-2.223c0-3.403-2.787-6.176-6.2-6.176S8.65 7.75 8.606 11.119a6 6 0 0 1 .447-.022z"/>
</svg>