<svg xmlns="http://www.w3.org/2000/svg" width="26" height="26" fill="currentColor" class="sym sym-message-dots-circle-solid" viewBox="0 0 26 26">
  <path fill-rule="evenodd" d="M12.206 4.022c-1.624.163-3.073.692-4.358 1.592C5.51 7.256 4 9.94 4 12.98q0 .18.007.356v-.016a8.8 8.8 0 0 0 .561 2.841l-.02-.06c.091.25.166.49.166.533 0 .04-.139.906-.309 1.92-.353 2.109-.36 2.201-.165 2.597a1.3 1.3 0 0 0 1.102.735c.202.012.635-.049 2.1-.294.168-.045.821-.154 1.477-.254l.443-.055c.042 0 .281.075.532.165a9.02 9.02 0 0 0 6.46-.095 8.85 8.85 0 0 0 3-1.996l.001-.001a8.6 8.6 0 0 0 1.603-2.157A8.9 8.9 0 0 0 22 12.995a8.99 8.99 0 0 0-3.823-7.362l-.029-.02a8.9 8.9 0 0 0-3.806-1.52c-.526-.082-1.65-.12-2.137-.071zm-2.657 7.776c.964.476.987 1.874.04 2.377-1.1.585-2.313-.466-1.903-1.648.12-.346.393-.623.765-.78.177-.073.256-.085.532-.077.284.009.356.026.566.128m4.032-.017c.239.117.543.426.653.664.066.142.08.236.08.55 0 .339-.01.4-.099.578-.261.532-.853.847-1.422.755a1.41 1.41 0 0 1-1.005-.742l-.003-.008c-.124-.254-.154-.691-.069-.986.109-.37.452-.732.827-.865.284-.101.774-.076 1.039.054m4.072.017c.963.476.987 1.874.04 2.377-1.1.585-2.314-.466-1.903-1.648.12-.346.392-.623.764-.78.178-.073.257-.085.533-.077.283.009.356.025.565.128"/>
</svg>