<svg xmlns="http://www.w3.org/2000/svg" width="26" height="26" fill="currentColor" class="sym sym-microphone" viewBox="0 0 26 26">
  <path d="M12.5 22C7.81 22 4 18.373 4 13.91V13c0-.454.382-.818.86-.818.477 0 .86.364.86.818v.91c0 3.563 3.046 6.454 6.78 6.454s6.78-2.891 6.78-6.455V13c0-.454.383-.818.86-.818.478 0 .86.364.86.818v.91c0 4.463-3.81 8.09-8.5 8.09m0-3.636c-2.579 0-4.68-2-4.68-4.455V8.455C7.82 6 9.921 4 12.5 4s4.68 2 4.68 4.455v5.454c0 2.455-2.101 4.455-4.68 4.455m0-12.728c-1.633 0-2.96 1.264-2.96 2.819v5.454c0 1.555 1.327 2.818 2.96 2.818s2.96-1.263 2.96-2.818V8.455c0-1.555-1.327-2.819-2.96-2.819"/>
</svg>