<svg xmlns="http://www.w3.org/2000/svg" width="26" height="26" fill="currentColor" class="sym sym-microphone-solid" viewBox="0 0 26 26">
  <path d="M12.005 4.033c-1.969.201-3.561 1.535-4.055 3.298l-.008.03a5 5 0 0 0-.128.707l-.002.025c-.052.516-.051 5.758 0 6.236.205 1.905 1.589 3.45 3.504 3.914 2.525.61 5.102-.834 5.736-3.215.159-.597.173-.982.157-4.136-.014-2.883-.016-2.962-.097-3.305-.216-.916-.619-1.622-1.29-2.262a4.72 4.72 0 0 0-2.886-1.294h-.018c-.442-.041-.45-.041-.913.002"/>
  <path d="M4.622 12.154a.94.94 0 0 0-.5.4l-.003.003c-.104.17-.105.175-.117.927-.008.416.007.943.03 1.171.297 2.875 2.13 5.287 4.694 6.502l.05.02a8.7 8.7 0 0 0 3.726.823 8.7 8.7 0 0 0 5.33-1.798l-.015.013c1.249-.967 2.198-2.24 2.725-3.701l.019-.057c.323-.942.439-1.689.439-2.849 0-.864-.031-1.001-.283-1.242a.97.97 0 0 0-.663-.258.96.96 0 0 0-.742.342l-.001.002c-.176.22-.2.348-.2 1.056 0 1.01-.097 1.685-.342 2.381-.998 2.853-3.999 4.649-7.116 4.26-3.048-.385-5.42-2.704-5.726-5.606l-.002-.026a12 12 0 0 1-.04-.988v-.025.002c0-.751-.038-.907-.283-1.139a.98.98 0 0 0-.987-.21z"/>
</svg>