<svg xmlns="http://www.w3.org/2000/svg" width="26" height="26" fill="currentColor" class="sym sym-microscope" viewBox="0 0 26 26">
  <path d="M12.995 22H5.888A.896.896 0 0 1 5 21.09c0-.506.395-.91.888-.91h7.107c.494 0 .888.404.888.91s-.394.91-.888.91m3.159-.465a.875.875 0 0 1-.82-.567.913.913 0 0 1 .494-1.183c2.063-.86 3.395-2.882 3.395-5.157 0-3.064-2.438-5.562-5.428-5.562-.227 0-.464.01-.691.04v4.47a2.5 2.5 0 0 1 .74 1.366c.05.242.05.475.05.9 0 .424 0 .657-.05.9-.197 1.01-.957 1.79-1.935 1.982-.237.05-.464.05-.878.05H7.872c-.414 0-.641 0-.878-.05a2.49 2.49 0 0 1-1.935-1.982c-.05-.243-.05-.476-.05-.9s0-.658.05-.9a2.56 2.56 0 0 1 .74-1.366V7.742C5.8 5.679 7.439 4 9.453 4c1.855 0 3.395 1.426 3.622 3.276.237-.02.474-.04.72-.04 3.978 0 7.206 3.307 7.206 7.382 0 3.024-1.767 5.713-4.5 6.846a1 1 0 0 1-.337.07zm-8.292-6.816c-.256 0-.463 0-.523.01a.69.69 0 0 0-.543.556c-.01.071-.01.273-.01.547 0 .273 0 .475.01.546.06.283.267.495.543.556.07.01.267.01.533.01h3.159c.256 0 .464 0 .533-.01a.69.69 0 0 0 .543-.556c.01-.071.01-.273.01-.546 0-.274 0-.476-.01-.547a.71.71 0 0 0-.543-.556c-.07-.01-.277-.01-.533-.01zm-.296-1.82h3.751V7.742c0-1.062-.839-1.922-1.875-1.922s-1.876.86-1.876 1.922z"/>
</svg>