<svg xmlns="http://www.w3.org/2000/svg" width="26" height="26" fill="currentColor" class="sym sym-microphone-off-solid" viewBox="0 0 26 26">
  <path d="M4.526 4.051c-.288.101-.526.446-.526.762 0 .066.024.192.053.28.049.148.268.377 2.454 2.569l2.401 2.407.013 2.177c.012 2.363.007 2.285.205 2.876a4.17 4.17 0 0 0 2.057 2.36c.313.154.75.302 1.083.368.302.06 1.172.06 1.473 0a4.4 4.4 0 0 0 1.712-.756l-.012.009.287-.216.57.57c.313.312.57.576.57.586 0 .009-.123.113-.27.233a5.67 5.67 0 0 1-3.592 1.271 5.7 5.7 0 0 1-2.592-.62l.033.014a5.68 5.68 0 0 1-2.618-2.683c-.403-.841-.553-1.604-.553-2.797 0-.684-.033-.823-.245-1.036a.8.8 0 0 0-.961-.139l.004-.002a.88.88 0 0 0-.398.473l-.002.006c-.051.184-.042 1.402.014 1.88a7.38 7.38 0 0 0 4.05 5.773l.042.02c.941.472 2.05.749 3.224.749a7.3 7.3 0 0 0 3.268-.77l-.042.02a7.7 7.7 0 0 0 1.513-.98c.148-.128.28-.233.294-.233s.628.603 1.367 1.338c1.202 1.197 1.36 1.343 1.504 1.392.32.105.628.036.856-.192a.8.8 0 0 0 .149-.942l.002.005c-.052-.106-2.26-2.334-8.361-8.433C5.882 4.72 5.248 4.097 5.1 4.048a.85.85 0 0 0-.579.006l.006-.002zm8.05.798a4.2 4.2 0 0 0-1.84.661l.016-.01c-.302.202-.691.54-.834.729l-.086.111 7.266 7.265L17.086 11c-.013-2.536-.015-2.611-.084-2.922-.187-.832-.536-1.475-1.117-2.057a4 4 0 0 0-2.501-1.175l-.016-.002c-.382-.037-.39-.037-.791.003z"/>
</svg>