<svg xmlns="http://www.w3.org/2000/svg" width="26" height="26" fill="currentColor" class="sym sym-microphone-off" viewBox="0 0 26 26">
  <path d="M21.087 22a.95.95 0 0 1-.647-.263l-2.468-2.468a7.37 7.37 0 0 1-4.977 1.932c-4.076 0-7.384-3.318-7.384-7.385v-.81c0-.505.404-.91.91-.91s.91.405.91.91v.81a5.574 5.574 0 0 0 5.564 5.564c1.376 0 2.68-.506 3.692-1.396l-1.001-1.002a4.14 4.14 0 0 1-2.68.981 4.153 4.153 0 0 1-4.148-4.147v-3.673L4.266 5.55A.91.91 0 0 1 5.55 4.265l12.997 13s.081.071.112.112l3.075 3.075a.91.91 0 0 1 0 1.285.9.9 0 0 1-.648.263M10.67 11.954v1.851a2.327 2.327 0 0 0 3.712 1.872l-3.713-3.713zm5.563.658a.907.907 0 0 1-.91-.91V8.95a2.327 2.327 0 0 0-2.327-2.327c-.546 0-1.052.182-1.467.526a.914.914 0 0 1-1.284-.132.916.916 0 0 1 .131-1.285 4.14 4.14 0 0 1 2.62-.94 4.153 4.153 0 0 1 4.147 4.147v2.752c0 .506-.404.91-.91.91z"/>
</svg>