<svg xmlns="http://www.w3.org/2000/svg" width="26" height="26" fill="currentColor" class="sym sym-minimize-02" viewBox="0 0 26 26">
  <path d="M16.59 21.99a.906.906 0 0 1-.91-.91v-.18c0-1.596 0-2.485.394-3.253a3.55 3.55 0 0 1 1.578-1.575c.768-.394 1.597-.394 3.256-.394h.182c.506 0 .91.404.91.909s-.404.909-.91.909h-.182c-1.325 0-2.043 0-2.427.192a1.8 1.8 0 0 0-.779.778c-.192.384-.192 1.11-.192 2.424v.182a.905.905 0 0 1-.91.909zm-7.19 0a.906.906 0 0 1-.91-.91v-.18c0-1.313 0-2.04-.192-2.424a1.8 1.8 0 0 0-.779-.778c-.384-.192-1.112-.192-2.427-.192H4.91a.906.906 0 0 1-.91-.909c0-.505.404-.91.91-.91h.182c1.659 0 2.488 0 3.256.395a3.5 3.5 0 0 1 1.578 1.576c.394.767.394 1.646.394 3.252v.182a.905.905 0 0 1-.91.909zm11.69-11.677h-.182c-1.659 0-2.488 0-3.256-.394a3.5 3.5 0 0 1-1.578-1.576c-.394-.767-.394-1.646-.394-3.252v-.182c0-.505.404-.909.91-.909s.91.404.91.91v.18c0 1.314 0 2.041.192 2.425.172.333.445.606.779.778.384.192 1.112.192 2.427.192h.182c.505 0 .91.404.91.909s-.405.909-.91.909zm-15.998 0H4.91A.906.906 0 0 1 4 9.404c0-.505.404-.909.91-.909h.182c1.325 0 2.043 0 2.427-.192.334-.172.607-.444.779-.778.192-.384.192-1.11.192-2.424v-.182c0-.505.404-.909.91-.909s.91.404.91.91v.18c0 1.596 0 2.485-.394 3.253a3.55 3.55 0 0 1-1.578 1.575c-.768.394-1.598.394-3.256.394z"/>
</svg>