<svg xmlns="http://www.w3.org/2000/svg" width="26" height="26" fill="currentColor" class="sym sym-minimize-solid" viewBox="0 0 26 26">
  <path d="M20.782 4.057c-.14.048-.503.394-2.623 2.51l-2.46 2.455V7.344c0-1.904-.001-1.91-.27-2.18a.885.885 0 0 0-1.06-.152l.006-.002a.96.96 0 0 0-.441.528l-.002.007c-.025.094-.034 1.095-.028 3.035l.01 2.894.1.17c.055.093.154.211.22.26.268.206.183.2 3.265.2 3.197 0 3.058.012 3.337-.27a.885.885 0 0 0 0-1.263c-.268-.268-.275-.27-2.178-.27H16.98l2.456-2.46c2.232-2.236 2.46-2.476 2.513-2.636a.905.905 0 0 0-1.173-1.147zM5.588 13.94c-.678.168-.917 1.005-.428 1.494.057.056.167.137.246.18.142.075.185.077 1.873.088l1.729.01-2.418 2.423c-1.692 1.694-2.443 2.47-2.501 2.584a.91.91 0 0 0 .17 1.023.91.91 0 0 0 1.022.17c.114-.058.89-.809 2.585-2.501l2.423-2.418.01 1.729c.011 1.688.014 1.73.09 1.872.176.33.448.498.805.498s.629-.168.805-.498c.078-.145.078-.146.078-3.082s0-2.937-.078-3.083a1.03 1.03 0 0 0-.42-.423l-.006-.003c-.145-.078-.154-.078-3.01-.083-1.577-.004-2.915.005-2.975.02"/>
</svg>