<svg xmlns="http://www.w3.org/2000/svg" width="26" height="26" fill="currentColor" class="sym sym-minimize" viewBox="0 0 26 26">
  <path d="M4.912 22a.95.95 0 0 1-.647-.263.91.91 0 0 1 0-1.285l4.732-4.745H5.802a.906.906 0 0 1-.91-.91c0-.506.405-.91.91-.91h5.388c.122 0 .243.02.344.07a.9.9 0 0 1 .293.192.9.9 0 0 1 .192.294c.04.111.071.222.071.344v5.392c0 .506-.404.91-.91.91a.906.906 0 0 1-.91-.91v-3.197l-4.73 4.745a.9.9 0 0 1-.648.263zm15.276-9.894H14.8a.8.8 0 0 1-.344-.07.9.9 0 0 1-.293-.193.9.9 0 0 1-.193-.293 1 1 0 0 1-.07-.344V5.813c0-.505.404-.91.91-.91.505 0 .91.405.91.91V9.01l4.73-4.744a.909.909 0 0 1 1.285 1.284l-4.732 4.745h3.195c.505 0 .91.405.91.91a.907.907 0 0 1-.91.911z"/>
</svg>