<svg xmlns="http://www.w3.org/2000/svg" width="26" height="26" fill="currentColor" class="sym sym-minimize-02-solid" viewBox="0 0 26 26">
  <path d="M9.099 4.05a.9.9 0 0 0-.478.4l-.002.004-.1.17-.024 1.1c-.027 1.221-.06 1.513-.203 1.801a2 2 0 0 1-.665.716c-.322.194-.561.227-1.832.254-1.126.024-1.139.025-1.316.116-.719.37-.603 1.437.179 1.656.124.035.43.042 1.255.027 1.196-.021 1.562-.064 2.073-.24.886-.305 1.763-1.18 2.067-2.067.177-.514.219-.876.24-2.086.017-.99.013-1.124-.043-1.295a.906.906 0 0 0-1.157-.554zm7.317-.024a.95.95 0 0 0-.606.49c-.062.119-.078.226-.09.613-.02.642.049 1.99.12 2.362.168.876.708 1.67 1.484 2.188.631.42 1.073.534 2.283.592 1.114.054 1.704.035 1.895-.065.328-.17.498-.446.498-.804s-.17-.631-.498-.805c-.136-.071-.217-.078-1.3-.1-.719-.014-1.229-.04-1.352-.068-.594-.137-1.129-.67-1.263-1.263-.027-.121-.054-.643-.068-1.352-.021-1.081-.028-1.162-.1-1.299-.197-.374-.632-.586-1.003-.49M4.695 15.746c-.676.165-.917 1.006-.428 1.495.057.056.168.136.247.178.136.071.217.078 1.3.1 1.247.025 1.424.048 1.756.222.248.13.599.486.723.732.157.31.18.51.205 1.73.021 1.081.028 1.162.1 1.299.173.329.447.498.804.498s.633-.17.805-.498c.062-.12.078-.227.09-.614.021-.695-.052-2.031-.133-2.419-.27-1.297-1.37-2.378-2.673-2.627-.517-.1-2.5-.166-2.795-.095zm14.714.003c-.97.049-1.502.198-2.078.584-.382.254-.7.567-.954.929l-.007.011c-.513.743-.624 1.273-.634 3.035-.006 1.01-.003 1.054.072 1.194.177.33.449.498.806.498s.63-.17.805-.498c.071-.136.078-.217.1-1.3.014-.719.04-1.229.068-1.352.137-.594.67-1.128 1.263-1.262.121-.028.643-.054 1.352-.069 1.081-.021 1.162-.027 1.3-.099.328-.174.497-.448.497-.805s-.168-.63-.498-.805c-.132-.07-.206-.078-.848-.083a27 27 0 0 0-1.244.022"/>
</svg>