<svg xmlns="http://www.w3.org/2000/svg" width="26" height="26" fill="currentColor" class="sym sym-minus-square-solid" viewBox="0 0 26 26">
  <path fill-rule="evenodd" d="M5.901 3.01c-.895.076-1.483.327-2.015.859-.49.491-.758 1.065-.841 1.808-.06.538-.06 14.091 0 14.628.058.523.197.942.431 1.297.527.803 1.252 1.245 2.217 1.353.537.06 14.077.06 14.614 0 .965-.108 1.69-.55 2.217-1.353.234-.355.372-.774.431-1.297.06-.537.06-14.09 0-14.628-.058-.522-.197-.941-.431-1.296q-.68-1.036-1.865-1.307c-.25-.057-1.04-.066-7.439-.07a1017 1017 0 0 0-7.565.008h.248zm11.437 9.046c.37.127.66.538.66.935 0 .243-.12.522-.299.702-.317.317-.038.3-4.7.3-4.661 0-4.382.017-4.7-.3a.98.98 0 0 1-.293-.702.98.98 0 0 1 .295-.702c.309-.31.022-.291 4.682-.295 3.774-.003 4.18.002 4.355.062"/>
</svg>