<svg xmlns="http://www.w3.org/2000/svg" width="26" height="26" fill="currentColor" class="sym sym-minus-square" viewBox="0 0 26 26">
  <path d="M17.242 23H8.758c-1.839 0-2.768 0-3.606-.424a3.92 3.92 0 0 1-1.718-1.718C3 20.018 3 19.088 3 17.25V8.76c0-1.839 0-2.769.434-3.607a3.92 3.92 0 0 1 1.718-1.718C6 3 6.919 3 8.758 3h8.484c1.839 0 2.768 0 3.607.424a3.92 3.92 0 0 1 1.717 1.718C23 5.982 23 6.912 23 8.75v8.49c0 1.839 0 2.769-.434 3.607a3.92 3.92 0 0 1-1.717 1.718C20 23 19.08 23 17.242 23M8.758 4.809c-1.505 0-2.324 0-2.778.232a2.17 2.17 0 0 0-.93.93c-.232.455-.232 1.284-.232 2.78v8.489c0 1.505 0 2.324.233 2.779.202.404.525.717.929.93.454.232 1.283.232 2.778.232h8.484c1.505 0 2.324 0 2.778-.233a2.12 2.12 0 0 0 .93-.93c.232-.454.232-1.283.232-2.779V8.75c0-1.505 0-2.324-.232-2.779a2.17 2.17 0 0 0-.93-.93c-.454-.232-1.283-.232-2.778-.232zm8.282 9.096H8.96a.906.906 0 0 1-.91-.91c0-.505.405-.91.91-.91h8.08c.506 0 .91.405.91.91s-.404.91-.91.91"/>
</svg>