<svg xmlns="http://www.w3.org/2000/svg" width="26" height="26" fill="currentColor" class="sym sym-modem" viewBox="0 0 26 26">
  <path d="M18.505 21h-11c-1.021 0-1.577 0-2.123-.263a2.53 2.53 0 0 1-1.102-1.062c-.273-.526-.273-1.062-.273-2.047v-.467c0-.985 0-1.52.273-2.047a2.48 2.48 0 0 1 1.102-1.062c.536-.263 1.102-.263 2.113-.263h4.59v-3.8c0-.487.404-.877.91-.877s.91.39.91.877v3.8h4.59c1.021 0 1.577 0 2.123.273.475.234.86.595 1.102 1.062.273.526.273 1.062.273 2.047v.467c0 .984 0 1.52-.273 2.037a2.45 2.45 0 0 1-1.112 1.062c-.536.263-1.102.263-2.113.263zm-11-5.457c-.637 0-1.142 0-1.284.078a.77.77 0 0 0-.313.302c-.081.146-.081.604-.081 1.248v.467c0 .643 0 1.101.08 1.247a.67.67 0 0 0 .304.293c.152.078.657.078 1.294.078h11c.637 0 1.143 0 1.294-.078a.77.77 0 0 0 .314-.302c.07-.146.07-.604.07-1.248v-.467c0-.643 0-1.101-.08-1.248a.67.67 0 0 0-.304-.292c-.151-.078-.657-.078-1.294-.078zm3.478 2.729H7.748c-.506 0-.91-.39-.91-.877 0-.488.404-.877.91-.877h3.235c.505 0 .91.39.91.877s-.405.877-.91.877m9.827-5.38c-.08 0-.162 0-.232-.028-.486-.127-.779-.605-.647-1.072.616-2.232.05-4.6-1.507-6.334a.85.85 0 0 1 .091-1.238.927.927 0 0 1 1.284.088c1.962 2.173 2.67 5.145 1.89 7.942a.91.91 0 0 1-.879.652zm-15.62 0a.91.91 0 0 1-.88-.652c-.778-2.797-.07-5.76 1.89-7.942.334-.36.9-.4 1.285-.087a.85.85 0 0 1 .09 1.237C6.01 7.183 5.443 9.55 6.07 11.782c.132.468-.161.945-.647 1.072a1 1 0 0 1-.232.029zm12.496-.808c-.08 0-.162 0-.232-.03-.486-.126-.779-.603-.648-1.071A3.73 3.73 0 0 0 16.1 7.64a.85.85 0 0 1 .151-1.228c.395-.293.971-.234 1.274.146a5.43 5.43 0 0 1 1.042 4.882.91.91 0 0 1-.88.653zm-9.372 0a.91.91 0 0 1-.88-.653A5.43 5.43 0 0 1 8.476 6.55a.927.927 0 0 1 1.274-.146.85.85 0 0 1 .151 1.228 3.7 3.7 0 0 0-.708 3.342c.132.468-.161.945-.647 1.072a1 1 0 0 1-.232.03z"/>
</svg>