<svg xmlns="http://www.w3.org/2000/svg" width="26" height="26" fill="currentColor" class="sym sym-modem-solid" viewBox="0 0 26 26">
  <path d="M6.62 4.014c-.258.082-.396.202-.773.675a8.44 8.44 0 0 0-1.66 7.039l-.01-.057c.117.554.165.69.3.841.176.2.343.273.62.273.255 0 .385-.05.567-.215a.7.7 0 0 0 .236-.414c.028-.123.02-.206-.047-.5-.29-1.263-.28-2.3.03-3.485a7.1 7.1 0 0 1 1.42-2.707l-.01.013c.267-.32.341-.472.343-.701a.8.8 0 0 0-.496-.717l-.005-.002c-.121-.05-.412-.075-.515-.043m12.201.083a.76.76 0 0 0-.427.762v-.003c.022.212.063.284.35.632 1.45 1.743 1.968 3.952 1.44 6.13-.084.34-.08.532.015.728.129.262.4.44.717.44a.8.8 0 0 0 .392-.1l-.003.002c.236-.123.343-.28.44-.648.343-1.304.337-2.88-.017-4.225a8.6 8.6 0 0 0-1.797-3.407l.013.015c-.269-.311-.399-.385-.705-.398-.214-.008-.27.002-.418.073zM8.99 6.265c-.285.05-.437.182-.77.67a5.4 5.4 0 0 0-.811 4.142c.081.382.15.538.297.673.156.142.334.206.578.204h.023c.269 0 .503-.14.629-.349l.001-.004c.148-.235.163-.378.075-.75a4.4 4.4 0 0 1-.05-1.527c.117-.673.33-1.143.83-1.83.15-.207.194-.398.145-.625a.79.79 0 0 0-.785-.62 1 1 0 0 0-.167.016l.006-.002zm7.738-.005a.88.88 0 0 0-.515.309l-.001.001a.77.77 0 0 0 .018.924c.5.688.712 1.158.83 1.83a4.5 4.5 0 0 1-.05 1.528c-.088.372-.074.514.074.75.32.51 1.147.464 1.4-.08.086-.18.19-.7.23-1.15.082-.92-.124-1.964-.556-2.83-.184-.365-.498-.838-.693-1.042a.83.83 0 0 0-.741-.24z"/>
  <path fill-rule="evenodd" d="M12.843 9.189c-.184.03-.428.21-.534.39l-.1.174-.02 4.15-2.989.014c-3.2.015-3.222.016-3.666.178-.565.206-1.127.748-1.34 1.29-.158.402-.174.592-.174 2.077 0 1.487.015 1.674.175 2.079.21.535.78 1.085 1.338 1.288.494.18.108.17 7.477.17 7.368 0 6.983.01 7.476-.17.56-.203 1.13-.753 1.339-1.288.16-.405.175-.592.175-2.079 0-1.485-.017-1.674-.174-2.076-.213-.544-.775-1.085-1.34-1.291-.443-.162-.467-.163-3.667-.178l-2.99-.015v-1.98c-.002-1.089-.01-2.033-.022-2.1a.84.84 0 0 0-.385-.529l-.004-.002a1 1 0 0 0-.582-.102zm-1.633 7.518a.82.82 0 0 1 .535.516c.066.213.066.265.001.475a.86.86 0 0 1-.534.519l-.006.001c-.26.074-3.505.074-3.765 0-.315-.09-.592-.443-.592-.755 0-.165.108-.409.241-.545.256-.26.243-.259 2.22-.26 1.49-.001 1.746.006 1.9.05"/>
</svg>