<svg xmlns="http://www.w3.org/2000/svg" width="26" height="26" fill="currentColor" class="sym sym-monitor-solid" viewBox="0 0 26 26">
  <path d="M7.351 5.026c-.875.04-1.362.175-1.887.518-.655.428-1.133 1.066-1.305 1.74-.13.516-.138.694-.154 3.586-.017 2.923.008 3.933.106 4.435.154.787.647 1.49 1.37 1.957.543.35.971.461 1.951.509.79.039 10.344.039 11.133 0 .981-.048 1.408-.16 1.951-.51.72-.463 1.218-1.174 1.37-1.956.089-.449.114-1.332.114-3.907s-.025-3.458-.114-3.907c-.152-.782-.651-1.493-1.37-1.957-.543-.35-.97-.461-1.95-.509-.7-.034-10.48-.033-11.215.001m4.863 13.614c-.987.081-2.113.363-2.947.737-.385.173-.5.259-.609.452-.309.547.153 1.231.788 1.167.093-.01.272-.063.397-.12a7.8 7.8 0 0 1 2.464-.637l.03-.003a7.8 7.8 0 0 1 3.867.66l-.047-.02q.637.287 1.024-.105c.197-.2.253-.325.253-.567l.002-.048a.6.6 0 0 0-.097-.33l.002.003c-.108-.194-.224-.28-.609-.452-1.31-.59-2.985-.863-4.518-.737"/>
</svg>