<svg xmlns="http://www.w3.org/2000/svg" width="26" height="26" fill="currentColor" class="sym sym-monitor" viewBox="0 0 26 26">
  <path d="M16.58 21a.95.95 0 0 1-.395-.089 7.66 7.66 0 0 0-6.38 0c-.456.208-1.002.03-1.214-.415a.88.88 0 0 1 .425-1.185 9.5 9.5 0 0 1 7.958 0 .87.87 0 0 1 .425 1.185.91.91 0 0 1-.82.504m.627-3.16H8.793c-1.456 0-2.255 0-2.973-.356a3.34 3.34 0 0 1-1.456-1.422C4 15.36 4 14.58 4 13.158V9.681c0-1.422 0-2.202.364-2.903A3.34 3.34 0 0 1 5.82 5.356C6.538 5 7.337 5 8.793 5h8.414c1.456 0 2.255 0 2.973.356.637.316 1.132.81 1.456 1.422C22 7.479 22 8.259 22 9.68v3.477c0 1.422 0 2.203-.364 2.904a3.34 3.34 0 0 1-1.456 1.422c-.718.355-1.517.355-2.973.355M8.793 6.778c-1.173 0-1.82 0-2.144.158a1.48 1.48 0 0 0-.657.652c-.162.316-.162.948-.162 2.093v3.477c0 1.146 0 1.778.162 2.094.152.276.374.504.668.652.323.158.97.158 2.143.158h8.414c1.173 0 1.82 0 2.144-.158a1.44 1.44 0 0 0 .657-.652c.162-.316.162-.948.162-2.094V9.681c0-1.145 0-1.777-.162-2.093a1.56 1.56 0 0 0-.667-.652c-.324-.158-.971-.158-2.144-.158z"/>
</svg>