<svg xmlns="http://www.w3.org/2000/svg" width="26" height="26" fill="currentColor" class="sym sym-mouse-solid" viewBox="0 0 26 26">
  <path fill-rule="evenodd" d="M11.85 4.031c-2.22.216-4.22 1.627-5.2 3.671a6.6 6.6 0 0 0-.613 2.13l-.003.03c-.044.417-.046 5.857 0 6.263.252 2.282 1.617 4.235 3.646 5.222A6.3 6.3 0 0 0 12.5 22a6.4 6.4 0 0 0 2.86-.67l-.037.016c2.026-.985 3.391-2.941 3.644-5.22.044-.394.044-5.86 0-6.254-.255-2.301-1.631-4.255-3.694-5.244A6.4 6.4 0 0 0 12.486 4q-.336 0-.663.034zm.926 3.292c.206.072.412.28.483.487.046.137.053.338.053 1.506 0 1.531-.004 1.56-.243 1.801a.793.793 0 0 1-1.139 0c-.239-.24-.243-.27-.243-1.801 0-1.532.004-1.561.244-1.803a.79.79 0 0 1 .85-.188z"/>
</svg>