<svg xmlns="http://www.w3.org/2000/svg" width="26" height="26" fill="currentColor" class="sym sym-move-solid" viewBox="0 0 26 26">
  <path d="M12.706 4.051c-.125.044-.353.255-1.483 1.381-1.4 1.395-1.46 1.466-1.49 1.774-.043.454.351.883.812.883.298 0 .406-.072 1.04-.7l.597-.59v5.382H6.801l.59-.597c.627-.634.7-.742.7-1.04 0-.46-.429-.854-.883-.811-.308.029-.38.089-1.774 1.49-1.19 1.194-1.335 1.352-1.384 1.496a.8.8 0 0 0 .002.566l-.002-.005c.049.144.194.302 1.384 1.496 1.394 1.401 1.465 1.46 1.774 1.49.454.044.882-.35.882-.811 0-.298-.072-.406-.699-1.04l-.59-.598h5.381v5.382l-.597-.59c-.634-.628-.742-.7-1.04-.7-.46 0-.854.428-.811.883.03.308.089.379 1.49 1.774 1.194 1.19 1.352 1.335 1.496 1.384a.8.8 0 0 0 .566-.002l-.005.002c.144-.049.302-.194 1.496-1.384 1.4-1.394 1.46-1.466 1.49-1.774.043-.454-.35-.883-.812-.883-.297 0-.405.072-1.04.7l-.597.59v-5.382h5.381l-.59.598c-.627.633-.7.741-.7 1.04 0 .46.429.854.883.811.308-.03.38-.089 1.774-1.49 1.19-1.194 1.335-1.352 1.384-1.496a.8.8 0 0 0-.002-.567l.002.006c-.049-.144-.194-.302-1.384-1.497-1.394-1.4-1.465-1.46-1.774-1.49-.454-.043-.882.351-.882.812 0 .298.072.406.699 1.04l.59.597h-5.381V6.8l.598.59c.633.628.741.7 1.04.7.46 0 .854-.428.81-.883-.029-.307-.088-.379-1.489-1.774-1.194-1.19-1.352-1.335-1.496-1.384a.84.84 0 0 0-.581.005z"/>
</svg>