<svg xmlns="http://www.w3.org/2000/svg" width="26" height="26" fill="currentColor" class="sym sym-move" viewBox="0 0 26 26">
  <path d="M12.985 22a.7.7 0 0 1-.326-.071 1 1 0 0 1-.275-.173l-.02-.02-2.442-2.444a.915.915 0 0 1 1.292-1.293l.875.875v-5.019H7.073l.875.876a.915.915 0 0 1-1.292 1.293L4.214 13.58s-.01 0-.02-.02A.9.9 0 0 1 4 13.02v-.04a.9.9 0 0 1 .192-.54l.02-.02 2.443-2.444a.915.915 0 0 1 1.292 1.293l-.875.876h5.016v-5.02l-.875.876a.915.915 0 0 1-1.292-1.293l2.442-2.443.02-.02c.082-.072.173-.133.265-.174A.9.9 0 0 1 12.985 4h.03c.112 0 .224.02.326.071a1 1 0 0 1 .295.194l2.442 2.443a.915.915 0 0 1-1.292 1.293l-.875-.875v5.019h5.016l-.875-.876a.915.915 0 0 1 1.292-1.293l2.442 2.444s.01 0 .02.02a.9.9 0 0 1 .193.54v.04a.9.9 0 0 1-.192.54l-.02.02-2.443 2.444a.915.915 0 0 1-1.292-1.293l.875-.876h-5.016v5.02l.875-.876a.915.915 0 0 1 1.292 1.293l-2.442 2.443-.02.02a.9.9 0 0 1-.6.244z"/>
</svg>