<svg xmlns="http://www.w3.org/2000/svg" width="26" height="26" fill="currentColor" class="sym sym-navigation-pointer-02" viewBox="0 0 26 26">
  <path d="M20.718 22.99c-.36 0-.73-.164-1.293-.405l-6.415-2.798-6.416 2.798c-.719.319-1.147.502-1.642.357a1.37 1.37 0 0 1-.895-.878c-.155-.482.02-.887.35-1.62l7.086-16.026c.292-.656.467-1.051.904-1.273.38-.193.836-.193 1.215 0 .438.222.613.617.904 1.273l7.077 16.016c.33.742.505 1.148.35 1.63a1.33 1.33 0 0 1-.895.878 1.1 1.1 0 0 1-.35.058zM13.01 5.306l-6.892 15.59 6.221-2.72a1.8 1.8 0 0 1 .437-.145q.234-.044.467 0c.155.03.282.078.418.145l6.23 2.72L13 5.307z"/>
</svg>