<svg xmlns="http://www.w3.org/2000/svg" width="26" height="26" fill="currentColor" class="sym sym-navigation-pointer-off-solid" viewBox="0 0 26 26">
  <path d="M21.217 3.058c-.145.04-2.494.942-5.22 2.007L11.042 7l3.973 3.974a556 556 0 0 0 3.982 3.963c.049-.048 3.887-9.968 3.945-10.194.097-.383.074-.667-.084-.988-.297-.605-.953-.885-1.641-.697m-17.034.559c-.332.117-.606.515-.606.88 0 .075.027.22.061.322.056.167.238.363 1.796 1.927.955.958 1.72 1.75 1.703 1.76-.018.01-.695.279-1.504.595-1.838.718-1.98.784-2.248 1.053C3.11 10.428 3 10.7 3 11.1c0 .576.3 1.019.88 1.293.154.074 1.776.715 3.602 1.424 1.827.71 3.34 1.31 3.365 1.334s.625 1.54 1.334 3.366 1.35 3.449 1.424 3.604c.274.578.717.879 1.292.879.4 0 .673-.111.947-.385.273-.272.348-.435 1.054-2.248.315-.81.582-1.486.592-1.505.011-.017.803.749 1.76 1.703 1.564 1.56 1.76 1.74 1.927 1.797.367.122.723.042.986-.222a.93.93 0 0 0 .172-1.084l.002.005c-.06-.122-2.361-2.447-8.694-8.777-7.963-7.96-8.628-8.615-8.8-8.672a.98.98 0 0 0-.667.006z"/>
</svg>