<svg xmlns="http://www.w3.org/2000/svg" width="26" height="26" fill="currentColor" class="sym sym-navigation-pointer-off-02-solid" viewBox="0 0 26 26">
  <path d="M2.643 2.06C2.29 2.186 2 2.607 2 2.994c0 .08.03.234.065.343.06.18.354.486 3.38 3.519l3.313 3.322-2.438 5.558c-1.341 3.057-2.485 5.687-2.542 5.844-.146.402-.169.782-.064 1.076a1.52 1.52 0 0 0 1.05.974c.309.08.58.051.998-.102.165-.06 1.862-.798 3.77-1.638L13 20.362l3.493 1.536c1.922.845 3.628 1.587 3.794 1.648.428.16.842.161 1.188.003q.179-.078.319-.19l-.003.002c.065-.072.078-.065.375.219.216.208.363.313.5.36a.993.993 0 0 0 1.224-1.384l.003.006c-.063-.13-2.762-2.852-10.22-10.307C4.3 2.882 3.524 2.119 3.343 2.059a1.04 1.04 0 0 0-.707.007l.007-.003zm9.957.744c-.386.11-.676.351-.908.759-.11.191-1.169 2.592-1.169 2.649 0 .023 2 2.04 4.442 4.484l4.444 4.443-.18-.405-2.465-5.624c-1.258-2.87-2.351-5.342-2.43-5.492-.285-.547-.69-.822-1.246-.851a1.7 1.7 0 0 0-.5.038z"/>
</svg>