<svg xmlns="http://www.w3.org/2000/svg" width="26" height="26" fill="currentColor" class="sym sym-navigation-pointer-02-solid" viewBox="0 0 26 26">
  <path d="M12.54 3.054c-.385.138-.652.387-.866.81-.177.35-7.405 16.713-7.553 17.101a1.5 1.5 0 0 0-.12.651c-.004.304.01.37.104.564.145.292.4.544.688.68.335.157.572.178.948.083.196-.049 1.56-.623 3.78-1.593l3.472-1.517 3.366 1.47c1.852.808 3.496 1.517 3.655 1.575.41.15.818.155 1.128.011a1.63 1.63 0 0 0 .741-.72l.005-.009c.141-.31.15-.726.02-1.092-.104-.299-7.49-17.028-7.63-17.286a1.47 1.47 0 0 0-.646-.642l-.01-.004c-.22-.108-.303-.126-.585-.135-.226-.006-.383.01-.5.052z"/>
</svg>