<svg xmlns="http://www.w3.org/2000/svg" width="26" height="26" fill="currentColor" class="sym sym-navigation-pointer-off-02" viewBox="0 0 26 26">
  <path d="M23.1 23.99a.94.94 0 0 1-.647-.262l-.494-.495a1.36 1.36 0 0 1-.596.373c-.505.162-.959-.04-1.706-.363l-6.662-2.938-6.652 2.938c-.747.323-1.191.525-1.706.363a1.43 1.43 0 0 1-.929-.918c-.161-.505.02-.93.364-1.696l4.764-10.873-6.571-6.572a.908.908 0 0 1 1.282-1.282l20.188 20.19a.91.91 0 0 1 0 1.283.9.9 0 0 1-.646.262zM10.22 11.482l-4.382 9.974 6.46-2.847c.162-.07.293-.121.465-.151a1.3 1.3 0 0 1 .484 0c.142.02.283.08.424.141l6.48 2.847-.03-.08-9.892-9.894zm6.722 1.302a.89.89 0 0 1-.828-.545l-3.109-7.087-.707 1.615a.906.906 0 0 1-1.2.465c-.465-.202-.667-.737-.465-1.202l.797-1.827c.303-.696.485-1.1.94-1.332a1.39 1.39 0 0 1 1.26 0c.455.222.637.636.94 1.332l3.2 7.3a.906.906 0 0 1-.465 1.2 1 1 0 0 1-.363.081"/>
</svg>