<svg xmlns="http://www.w3.org/2000/svg" width="26" height="26" fill="currentColor" class="sym sym-navigation-pointer" viewBox="0 0 26 26">
  <path d="M14.908 23a1.3 1.3 0 0 1-.628-.152c-.437-.228-.59-.637-.856-1.312l-2.51-6.447-6.392-2.491.314-.799-.333.79c-.695-.277-1.113-.438-1.35-.866a1.37 1.37 0 0 1-.02-1.217c.248-.466.666-.628 1.35-.904l16.103-6.285c.666-.256 1.065-.409 1.522-.256.39.133.694.437.827.836.162.457 0 .875-.257 1.512l-6.315 16.184c-.247.618-.418 1.036-.856 1.255-.18.095-.39.143-.6.143zm-9.54-11.905 6.201 2.415c.143.058.267.105.4.19s.247.21.342.353c.057.066.114.2.162.313l2.444 6.266L21.015 5 5.378 11.105zm6.268 3.509-.78.352s.02.038.057.095l.723-.437zm-6.6-3.375-.21.58.228-.59h-.019z"/>
</svg>