<svg xmlns="http://www.w3.org/2000/svg" width="26" height="26" fill="currentColor" class="sym sym-navigation-pointer-off" viewBox="0 0 26 26">
  <path d="M14.913 22.99a1.3 1.3 0 0 1-.618-.152c-.447-.237-.608-.646-.894-1.378l-2.482-6.386-6.39-2.48c-.742-.286-1.151-.447-1.38-.894a1.33 1.33 0 0 1 0-1.226c.229-.447.638-.599 1.37-.894l2.787-1.083-3.462-3.46A.854.854 0 0 1 5.052 3.83l4.336 4.334s.076.067.114.114l8.264 8.26.048.047 4.365 4.362a.854.854 0 0 1-1.208 1.207l-3.462-3.46-1.084 2.776c-.294.741-.447 1.15-.894 1.378-.19.095-.4.152-.608.152zM5.385 11.093l6.2 2.413c.142.057.266.105.4.19.142.105.237.2.323.314.095.143.142.266.2.409l2.405 6.197 1.265-3.241-7.55-7.547zm13.17 3.412a.9.9 0 0 1-.313-.058.86.86 0 0 1-.485-1.112l3.261-8.344-8.32 3.25a.864.864 0 0 1-1.113-.484.867.867 0 0 1 .485-1.112l8.52-3.327c.666-.256 1.056-.408 1.512-.256.4.133.714.446.837.836.152.456 0 .855-.256 1.511l-3.338 8.554a.85.85 0 0 1-.8.542z"/>
</svg>