<svg xmlns="http://www.w3.org/2000/svg" width="26" height="26" fill="currentColor" class="sym sym-navigation-pointer-solid" viewBox="0 0 26 26">
  <path d="M21.197 3.051c-.18.051-15.93 6.187-16.957 6.606-.498.204-.725.343-.923.569-.314.356-.405.92-.226 1.387.118.31.417.606.791.784.155.074 1.776.715 3.601 1.423 1.826.71 3.339 1.309 3.363 1.334.025.024.625 1.538 1.334 3.364.708 1.827 1.348 3.448 1.422 3.603.274.578.717.879 1.292.879s1.017-.3 1.292-.88c.198-.415 6.695-17.094 6.765-17.366.173-.676-.12-1.328-.734-1.631-.265-.131-.7-.161-1.02-.072"/>
</svg>