<svg xmlns="http://www.w3.org/2000/svg" width="26" height="26" fill="currentColor" class="sym sym-notification-box" viewBox="0 0 26 26">
  <path d="M16.239 23H8.761c-1.84 0-2.77 0-3.608-.435a3.92 3.92 0 0 1-1.718-1.72C3 19.994 3 19.072 3 17.231v-7.49c0-1.841 0-2.772.435-3.612a3.92 3.92 0 0 1 1.718-1.72c.849-.436 1.768-.436 3.608-.436h3.234c.505 0 .909.405.909.91a.907.907 0 0 1-.91.912H8.762c-1.506 0-2.325 0-2.78.232a2.12 2.12 0 0 0-.93.932c-.232.455-.232 1.285-.232 2.783v7.489c0 1.507 0 2.327.233 2.783.202.404.525.718.93.93.454.233 1.283.233 2.779.233h7.478c1.506 0 2.324 0 2.78-.232.403-.203.717-.527.929-.931.232-.456.232-1.286.232-2.783v-3.239c0-.506.405-.91.91-.91s.91.404.91.91v3.239c0 1.841 0 2.772-.435 3.612a3.92 3.92 0 0 1-1.718 1.72c-.849.436-1.769.436-3.608.436m2.83-12.144a3.95 3.95 0 0 1-2.79-1.154 3.9 3.9 0 0 1-1.152-2.793c0-1.063.415-2.044 1.152-2.793 1.486-1.488 4.083-1.488 5.569 0A3.92 3.92 0 0 1 23 6.909a3.96 3.96 0 0 1-1.152 2.793 3.9 3.9 0 0 1-2.79 1.154zm0-6.072c-.566 0-1.102.222-1.496.617a2.13 2.13 0 0 0-.01 3.006c.798.8 2.203.8 3.001 0 .405-.405.627-.931.627-1.508s-.222-1.103-.616-1.498a2.08 2.08 0 0 0-1.496-.617z"/>
</svg>