<svg xmlns="http://www.w3.org/2000/svg" width="26" height="26" fill="currentColor" class="sym sym-notification-box-solid" viewBox="0 0 26 26">
  <path d="M5.903 3.032c-.705.048-1.076.154-1.528.444-.502.321-.963.874-1.158 1.39-.227.601-.217.228-.217 8.14 0 7.917-.01 7.538.22 8.144.255.68.953 1.375 1.635 1.634.599.226.23.216 8.136.216 7.916 0 7.537.01 8.143-.22.678-.255 1.374-.953 1.633-1.636.21-.555.207-.498.226-5.274.01-2.446.005-4.597-.01-4.782-.024-.289-.042-.35-.14-.46-.099-.11-.138-.126-.307-.122-.106.002-.399.07-.65.152-.904.295-1.07.322-1.886.324-.684 0-.774-.008-1.17-.111-.966-.252-1.654-.637-2.327-1.301-.988-.973-1.51-2.209-1.51-3.575 0-.6.077-1.038.308-1.762.223-.7.24-.913.085-1.068-.076-.078-.17-.117-.321-.139-.275-.039-8.559-.033-9.162.006"/>
  <path d="M19.62 3.012c-.045.01-.179.04-.299.063-.675.138-1.426.659-1.834 1.275a3 3 0 0 0-.484 1.648q0 .308.058.599l-.003-.02c.127.612.387 1.096.826 1.535 1.695 1.694 4.572.82 5.059-1.537a2.96 2.96 0 0 0-.185-1.757l.008.02c-.348-.843-1.107-1.5-2.025-1.754-.203-.056-.975-.106-1.122-.072"/>
</svg>