<svg xmlns="http://www.w3.org/2000/svg" width="26" height="26" fill="currentColor" class="sym sym-number-list-solid" viewBox="0 0 26 26">
  <path fill-rule="evenodd" d="M5.98 7.255h.212v.002a.638.638 0 1 1 0 1.277H4.064a.638.638 0 0 1 0-1.277h.213a.213.213 0 0 0 .213-.213V4.491a.213.213 0 0 0-.213-.214h-.213a.638.638 0 1 1 0-1.277h.532a1.17 1.17 0 0 1 1.17 1.17v2.874a.213.213 0 0 0 .213.211m16.169-.636H9.383a.851.851 0 1 1 0-1.702H22.15a.851.851 0 0 1 0 1.702M9.383 12.15H22.15a.851.851 0 0 1 0 1.702H9.383a.851.851 0 0 1 0-1.702m12.766 7.234H9.383a.851.851 0 0 0 0 1.702H22.15a.851.851 0 0 0 0-1.702M3.633 17.82a1.7 1.7 0 0 1 1.037-.352v-.001a1.7 1.7 0 0 1 1.415 2.647.21.21 0 0 0 0 .237 1.702 1.702 0 1 1-3.055 1.403.638.638 0 1 1 1.23-.34.425.425 0 1 0 .41-.541.638.638 0 0 1 0-1.277.425.425 0 1 0-.41-.536.638.638 0 1 1-1.235-.329c.097-.362.31-.682.608-.91m2.772-5.884a1.702 1.702 0 0 0-3.404 0 .638.638 0 1 0 1.276 0 .426.426 0 0 1 .851 0 .88.88 0 0 1-.193.55L3.14 14.728a.639.639 0 0 0 .499 1.037h2.128a.638.638 0 0 0 0-1.276H5.41a.212.212 0 0 1-.166-.346l.693-.861c.303-.383.468-.858.468-1.347"/>
</svg>