<svg xmlns="http://www.w3.org/2000/svg" width="26" height="26" fill="currentColor" class="sym sym-paint-pour" viewBox="0 0 26 26">
  <path d="M14.676 22H5.043a.903.903 0 0 1-.903-.911c0-.506.402-.911.903-.911h9.633c.501 0 .903.405.903.911a.903.903 0 0 1-.903.911m-4.014-3.097c-.26 0-.522-.041-.772-.122-.572-.192-.964-.587-1.676-1.296l-2.8-2.824c-.712-.718-1.103-1.113-1.294-1.69a2.6 2.6 0 0 1 0-1.57c.191-.576.582-.97 1.295-1.69l3.963-3.998-.16-.162a.916.916 0 0 1 0-1.285.897.897 0 0 1 1.274 0l1.605 1.62.02.02 4.696 4.737c.381.384.632.637.752 1.032.11.334.11.719 0 1.063-.12.385-.371.638-.752 1.022l-3.703 3.736c-.722.728-1.103 1.113-1.675 1.305a2.5 2.5 0 0 1-.773.122zm-4.244-5.81c.08.09.18.181.271.273l2.79 2.814c.45.455.802.81.963.86.14.04.29.04.43 0 .161-.05.503-.405.944-.85l3.07-3.098H6.408zm0-1.823h8.478l-4.244-4.28-3.962 3.997-.271.273zm13.074 7.49a2.52 2.52 0 0 1-2.509-2.53c0-1.164 1.325-2.55 1.887-3.087a.9.9 0 0 1 1.244 0C20.686 13.69 22 15.076 22 16.23c0 1.397-1.124 2.53-2.508 2.53m0-3.633c-.392.465-.683.911-.703 1.113a.7.7 0 0 0 .703.699.7.7 0 0 0 .702-.699c-.02-.192-.321-.647-.702-1.103z"/>
</svg>