<svg xmlns="http://www.w3.org/2000/svg" width="26" height="26" fill="currentColor" class="sym sym-paint-solid" viewBox="0 0 26 26">
  <path fill-rule="evenodd" d="M11.682 4.018c-.246.08-.466.282-.537.493-.104.31-.031.576.234.85l.189.197-2.866 2.855C6.709 10.4 5.77 11.355 5.624 11.551c-.481.642-.678 1.318-.612 2.105.048.576.237 1.058.612 1.558.285.38 4.828 4.9 5.205 5.178a3.2 3.2 0 0 0 1.049.523l.022.005c.26.069.366.08.774.08s.514-.011.774-.08q.557-.148 1.071-.528c.286-.211 5.989-5.84 6.188-6.108a1.55 1.55 0 0 0 .132-1.598c-.088-.177-.505-.603-4.288-4.37-2.568-2.558-4.24-4.198-4.315-4.238-.135-.07-.428-.1-.554-.06m3.998 5.624 2.976 2.958H6.796l.105-.133a8 8 0 0 1 .34-.383c.424-.454 5.4-5.4 5.433-5.4.017 0 1.37 1.33 3.006 2.958"/>
</svg>