<svg xmlns="http://www.w3.org/2000/svg" width="26" height="26" fill="currentColor" class="sym sym-paint" viewBox="0 0 26 26">
  <path d="M12.684 21a3 3 0 0 1-.99-.162c-.73-.239-1.269-.773-2.259-1.756L6.927 16.59c-.99-.983-1.538-1.527-1.768-2.253a3.13 3.13 0 0 1 0-1.966c.24-.725.778-1.269 1.768-2.252l4.527-4.495-.164-.162a.854.854 0 0 1 0-1.212.87.87 0 0 1 1.221 0l7.68 7.625c.364.363.605.601.73.983.105.325.105.687 0 1.012-.125.372-.366.61-.73.973l-4.258 4.228c-.99.983-1.538 1.527-2.269 1.756a3.2 3.2 0 0 1-.99.153zm-5.632-6.767c.221.287.586.65 1.105 1.155l2.5 2.482c.797.792 1.239 1.23 1.575 1.336.298.095.615.095.913 0 .337-.105.779-.544 1.577-1.336l3.671-3.646H7.062zm0-1.718h11.331l-5.699-5.659-4.527 4.495c-.51.515-.884.878-1.105 1.155z"/>
</svg>