<svg xmlns="http://www.w3.org/2000/svg" width="26" height="26" fill="currentColor" class="sym sym-palette" viewBox="0 0 26 26">
  <path d="M13 22c-4.965 0-9-4.035-9-9s4.035-9 9-9 9 4.035 9 9a3.34 3.34 0 0 1-3.337 3.337h-.405c-.313 0-.475 0-.606.01a1.52 1.52 0 0 0-1.305 1.305c-.02.131-.01.293-.01.606v.405A3.34 3.34 0 0 1 13 22m0-16.18A7.18 7.18 0 0 0 5.82 13c0 3.964 3.226 7.18 7.18 7.18.84 0 1.517-.678 1.517-1.517v-.405c0-.444 0-.657.03-.839a3.34 3.34 0 0 1 2.872-2.872c.182-.02.405-.03.84-.03h.404c.84 0 1.517-.678 1.517-1.517 0-3.964-3.226-7.18-7.18-7.18"/>
  <path d="M8.955 14.72a1.72 1.72 0 1 1 0-3.436 1.72 1.72 0 0 1 0 3.435m0-1.82c-.06 0-.1.04-.1.1 0 .111.201.111.201 0 0-.06-.04-.1-.1-.1m7.28-1.416a1.72 1.72 0 1 1 0-3.441 1.72 1.72 0 0 1 0 3.442m0-1.82c-.06 0-.1.04-.1.101 0 .111.201.111.201 0 0-.06-.04-.101-.1-.101m-4.855 1.01a1.718 1.718 0 1 1 0-3.438 1.718 1.718 0 1 1-.001 3.438m0-1.82c-.061 0-.101.04-.101.101 0 .111.202.111.202 0 0-.06-.04-.1-.101-.1"/>
</svg>