<svg xmlns="http://www.w3.org/2000/svg" width="26" height="26" fill="currentColor" class="sym sym-palette-solid" viewBox="0 0 26 26">
  <path fill-rule="evenodd" d="M12.231 4.02c-1.84.18-3.44.82-4.888 1.96-.378.297-1.225 1.171-1.532 1.58-.947 1.264-1.517 2.643-1.75 4.24-.081.55-.081 1.841 0 2.391a9.1 9.1 0 0 0 1.75 4.24c.373.496 1.25 1.374 1.747 1.747 1.528 1.142 3.255 1.752 5.141 1.814.509.017.613.01.918-.052.19-.04.454-.116.59-.17a3.33 3.33 0 0 0 1.949-2.19l.006-.023c.076-.288.087-.407.108-1.156.025-.917.041-1.003.248-1.343.206-.326.51-.573.87-.702l.012-.004c.131-.046.331-.062 1-.081.749-.02.868-.032 1.156-.108a3.32 3.32 0 0 0 2.208-1.939l.008-.022a4 4 0 0 0 .168-.584c.063-.304.069-.408.052-.917a8.9 8.9 0 0 0-1.816-5.14c-.307-.41-1.154-1.284-1.532-1.582-1.308-1.029-2.745-1.654-4.356-1.893-.52-.076-1.59-.11-2.057-.066m-.56 3.278c.656.12 1.192.68 1.296 1.353a1.645 1.645 0 0 1-1.61 1.888 1.65 1.65 0 0 1-1.61-1.379l-.002-.01a1.59 1.59 0 0 1 .462-1.4c.4-.399.902-.554 1.463-.452m4.913.82c.657.12 1.193.679 1.297 1.352a1.645 1.645 0 0 1-1.61 1.888 1.65 1.65 0 0 1-1.61-1.379l-.002-.01a1.59 1.59 0 0 1 .461-1.399c.401-.4.903-.555 1.464-.452m-7.371 3.275c.657.12 1.193.68 1.297 1.353a1.645 1.645 0 0 1-1.611 1.887 1.65 1.65 0 0 1-1.61-1.378l-.001-.01a1.59 1.59 0 0 1 .461-1.4c.4-.4.903-.555 1.464-.452"/>
</svg>