<svg xmlns="http://www.w3.org/2000/svg" width="26" height="26" fill="currentColor" class="sym sym-paperclip" viewBox="0 0 26 26">
  <path d="M10.024 21a4.96 4.96 0 0 1-3.548-1.494A5.1 5.1 0 0 1 5 15.907c0-1.359.53-2.641 1.476-3.599l7.18-7.266c1.372-1.388 3.766-1.388 5.137 0a3.66 3.66 0 0 1 1.07 2.604c0 .986-.379 1.915-1.08 2.604l-6.896 6.98c-.842.86-2.327.86-3.178 0a2.25 2.25 0 0 1-.663-1.61c0-.612.237-1.177.663-1.608l6.054-6.127a.844.844 0 0 1 1.202 0 .87.87 0 0 1 0 1.216L9.91 15.227a.55.55 0 0 0-.16.393.544.544 0 0 0 .926.383l6.897-6.989a1.96 1.96 0 0 0 .577-1.388 1.95 1.95 0 0 0-.568-1.388c-.738-.747-2.005-.737-2.734 0l-7.18 7.266a3.36 3.36 0 0 0-.975 2.384c0 .9.35 1.742.975 2.384a3.24 3.24 0 0 0 2.346.986c.89 0 1.731-.355 2.356-.986l7.18-7.267a.844.844 0 0 1 1.202 0 .87.87 0 0 1 0 1.216l-7.18 7.266a4.96 4.96 0 0 1-3.567 1.494z"/>
</svg>