<svg xmlns="http://www.w3.org/2000/svg" width="26" height="26" fill="currentColor" class="sym sym-paperclip-solid" viewBox="0 0 26 26">
  <path d="M15.959 4.006c-.59.082-.963.184-1.303.355-.554.282-.522.25-4.489 4.257-2.076 2.096-3.865 3.92-3.975 4.055-.692.834-1.07 1.763-1.175 2.88a5.2 5.2 0 0 0 .278 2.103 5.02 5.02 0 0 0 3.903 3.287c.538.092 1.378.07 1.877-.049a5.3 5.3 0 0 0 1.852-.832l-.017.011c.197-.14 1.23-1.163 4.115-4.077 3.54-3.575 3.857-3.905 3.915-4.063a.7.7 0 0 0-.002-.57.87.87 0 0 0-.428-.458l-.006-.003c-.159-.067-.482-.056-.654.022-.112.051-.99.92-3.956 3.915-2.454 2.48-3.876 3.893-3.994 3.97-.288.184-.62.34-.972.452l-.03.008c-.357.107-1.027.144-1.417.08-1.544-.25-2.743-1.55-2.854-3.098-.065-.887.164-1.704.66-2.363.116-.155 1.721-1.8 3.969-4.072 4.106-4.148 3.916-3.971 4.428-4.12a2.5 2.5 0 0 1 1.06-.01 2.07 2.07 0 0 1 1.421 1.444l.004.015c.063.253.061.75-.003 1.001q-.126.45-.399.783l.003-.004c-.087.11-1.733 1.79-3.659 3.735-3.767 3.806-3.584 3.637-3.89 3.6-.375-.041-.624-.46-.491-.822.02-.052 1.407-1.483 3.17-3.268 3.42-3.464 3.28-3.307 3.278-3.682a.82.82 0 0 0-.484-.732l-.006-.002a.9.9 0 0 0-.645.019c-.21.102-6.478 6.459-6.637 6.73a2.16 2.16 0 0 0-.303 1.068v.003a2 2 0 0 0 .22 1.082c.104.22.185.328.407.554.306.31.501.436.886.572.229.08.3.09.672.09s.444-.01.673-.09c.14-.05.335-.135.432-.19.135-.075 1.056-.987 3.903-3.862 3.312-3.346 3.748-3.798 3.933-4.078.38-.565.607-1.263.607-2.014 0-.418-.07-.82-.2-1.193l.008.026c-.402-1.212-1.473-2.164-2.7-2.398-.266-.051-.823-.088-.986-.067z"/>
</svg>