<svg xmlns="http://www.w3.org/2000/svg" width="26" height="26" fill="currentColor" class="sym sym-paragraph-spacing-solid" viewBox="0 0 26 26">
  <path d="M6.64 4.062c-.152.054-.431.312-1.813 1.688C3.113 7.454 3.04 7.541 3.004 7.918c-.053.555.429 1.078.993 1.078.364 0 .496-.087 1.272-.854L6 7.42v11.154l-.73-.722c-.775-.767-.907-.854-1.272-.854-.564 0-1.046.522-.993 1.078.036.376.109.463 1.823 2.168 1.461 1.454 1.654 1.631 1.83 1.69.11.037.264.066.344.066s.234-.03.343-.065c.177-.06.37-.237 1.831-1.691 1.714-1.704 1.787-1.791 1.823-2.168.053-.555-.429-1.078-.993-1.078-.364 0-.496.087-1.272.854l-.73.722V7.42l.73.722c.775.767.907.854 1.272.854.564 0 1.045-.522.993-1.078-.036-.376-.109-.463-1.823-2.168-1.461-1.454-1.654-1.631-1.83-1.69a1.04 1.04 0 0 0-.711.005zm7.152 1.97c-.751.185-1.019 1.115-.476 1.658.063.063.187.153.274.2l.162.086h8.533l.162-.087c.366-.196.553-.498.553-.894s-.187-.698-.553-.894l-.162-.086-4.186-.006c-2.303-.004-4.241.006-4.307.023m0 4.002c-.751.185-1.019 1.115-.476 1.658.063.063.187.152.274.199l.162.086h8.533l.162-.086c.366-.196.553-.498.553-.894s-.187-.698-.553-.894l-.162-.086-4.186-.006c-2.303-.004-4.241.006-4.307.023m0 4.001c-.751.185-1.019 1.115-.476 1.658.063.063.187.152.274.199l.162.086h8.533l.162-.086c.366-.196.553-.498.553-.894s-.187-.698-.553-.894l-.162-.086-4.186-.007c-2.303-.003-4.241.007-4.307.024m0 4.001c-.751.185-1.019 1.115-.476 1.658.063.063.187.152.274.199l.162.086h8.533l.162-.086c.366-.196.553-.498.553-.894s-.187-.698-.553-.894l-.162-.087-4.186-.006c-2.303-.003-4.241.007-4.307.024"/>
</svg>