<svg xmlns="http://www.w3.org/2000/svg" width="26" height="26" fill="currentColor" class="sym sym-paragraph-wrap-solid" viewBox="0 0 26 26">
  <path d="M2.711 4.071a1.12 1.12 0 0 0-.584.5l-.002.005c-.105.181-.122.262-.122.55s.017.37.122.551c.142.248.337.411.602.507.167.06 1.363.068 10.264.068 11.307 0 10.327.03 10.686-.337.2-.2.323-.48.323-.79 0-.309-.124-.588-.323-.79-.36-.368.624-.336-10.702-.333-8.644.003-10.116.013-10.264.068zm.127 6.73c-.826.206-1.12 1.257-.522 1.868.069.07.204.171.301.223l.178.098 17.312.044.231.098c.376.158.592.306.854.588.38.398.616.944.616 1.546 0 .636-.261 1.209-.682 1.613a2.15 2.15 0 0 1-.934.563l-.015.004c-.19.058-.45.072-1.27.072h-1.031l.205-.234c.303-.345.39-.544.39-.892 0-.447-.209-.792-.608-1.003-.252-.133-.683-.13-.949.009-.13.068-.61.524-1.394 1.326s-1.23 1.293-1.296 1.426a1.22 1.22 0 0 0 .003 1l-.003-.008c.139.277 2.419 2.61 2.69 2.752.267.138.697.142.948.009.4-.212.61-.557.61-1.004 0-.348-.088-.546-.39-.892l-.206-.234h.895c1.367 0 1.967-.097 2.664-.426 2.767-1.307 3.423-5.052 1.27-7.254a4.3 4.3 0 0 0-2.622-1.283l-.019-.002c-.459-.053-17.012-.057-17.224-.004z"/>
  <path d="M2.838 17.56c-.827.209-1.12 1.256-.522 1.867.069.07.204.172.301.224l.178.097h8.282l.177-.097c.403-.22.609-.56.609-1.007s-.206-.786-.609-1.007l-.177-.097-4.053-.007c-2.23-.004-4.113.008-4.186.026"/>
</svg>