<svg xmlns="http://www.w3.org/2000/svg" width="26" height="26" fill="currentColor" class="sym sym-paragraph-wrap" viewBox="0 0 26 26">
  <path d="M17.502 22a.9.9 0 0 1-.629-.263l-2.251-2.316a.8.8 0 0 1-.187-.293 1.1 1.1 0 0 1-.069-.354c0-.121.03-.243.07-.354a.8.8 0 0 1 .176-.273l2.251-2.316a.867.867 0 0 1 1.249 0 .93.93 0 0 1 0 1.285l-.738.758h2.36a2.43 2.43 0 0 0 1.76-.748 2.6 2.6 0 0 0 .727-1.81c0-.678-.256-1.325-.728-1.81a2.43 2.43 0 0 0-1.76-.749H2.886a.894.894 0 0 1-.885-.91c0-.505.393-.91.885-.91h16.849c1.14 0 2.202.455 3.008 1.284a4.4 4.4 0 0 1 1.248 3.095 4.4 4.4 0 0 1-1.248 3.094 4.16 4.16 0 0 1-3.008 1.284h-2.36l.738.759a.93.93 0 0 1 0 1.284.86.86 0 0 1-.63.263zm-6.743-2.316H2.895a.894.894 0 0 1-.885-.91c0-.506.393-.91.885-.91h7.864c.491 0 .884.404.884.91s-.393.91-.884.91M23.115 5.82H2.895a.894.894 0 0 1-.885-.91c0-.505.393-.91.885-.91h20.22c.492 0 .885.405.885.91 0 .506-.393.91-.885.91"/>
</svg>