<svg xmlns="http://www.w3.org/2000/svg" width="26" height="26" fill="currentColor" class="sym sym-paragraph-spacing" viewBox="0 0 26 26">
  <path d="M6.925 22h-.01a.9.9 0 0 1-.323-.07.7.7 0 0 1-.294-.203l-3.033-3.032a.909.909 0 0 1 1.284-1.283l1.476 1.475V7.113L4.55 8.588a.909.909 0 0 1-1.284-1.284l3.033-3.031a1.1 1.1 0 0 1 .294-.202A.9.9 0 0 1 6.915 4h.03c.112 0 .223.03.324.07a.7.7 0 0 1 .293.203l3.033 3.032a.909.909 0 0 1-1.284 1.283L7.835 7.113v11.774l1.476-1.476a.909.909 0 0 1 1.284 1.284l-3.033 3.032a1.1 1.1 0 0 1-.293.202.9.9 0 0 1-.324.071zm15.165-2.021h-8.088a.906.906 0 0 1-.91-.91c0-.505.405-.91.91-.91h8.088c.506 0 .91.405.91.91s-.404.91-.91.91m0-4.043h-8.088a.906.906 0 0 1-.91-.91c0-.505.405-.91.91-.91h8.088c.506 0 .91.405.91.91 0 .506-.404.91-.91.91m0-4.043h-8.088a.906.906 0 0 1-.91-.91c0-.505.405-.909.91-.909h8.088c.506 0 .91.404.91.91 0 .505-.404.91-.91.91m0-4.042h-8.088a.906.906 0 0 1-.91-.91c0-.505.405-.91.91-.91h8.088c.506 0 .91.405.91.91s-.404.91-.91.91"/>
</svg>