<svg xmlns="http://www.w3.org/2000/svg" width="26" height="26" fill="currentColor" class="sym sym-passcode-lock-solid" viewBox="0 0 26 26">
  <path d="M4.9 4.008c-.379.032-.779.109-1.011.198-.756.284-1.469 1.027-1.706 1.777C2.017 6.51 2 6.888 2 9.995s.017 3.484.183 4.011c.249.79 1.026 1.568 1.814 1.818.538.17.876.183 4.614.183 3.98 0 3.777.015 4.09-.3.48-.48.35-1.294-.251-1.59l-.19-.094-7.52-.04-.19-.094a.96.96 0 0 1-.48-.54l-.002-.007c-.074-.24-.07-6.464.003-6.708.07-.228.346-.505.574-.575.257-.077 16.452-.077 16.709 0 .216.066.501.345.57.556.035.11.056.783.072 2.419l.024 2.265.11.189a.995.995 0 0 0 1.57.213c.302-.302.3-.287.3-2.596 0-2.18-.026-2.622-.183-3.12-.23-.731-.93-1.474-1.662-1.764-.569-.225-.068-.213-8.936-.22-4.488-.003-8.232 0-8.32.008z"/>
  <path d="M7.7 8.787a1.37 1.37 0 0 0-.82.679l-.004.007c-.076.148-.093.244-.093.521 0 .29.016.37.105.541.126.24.347.46.592.585.147.076.243.094.52.094.276 0 .372-.018.519-.094a1.44 1.44 0 0 0 .588-.577l.004-.008c.089-.17.105-.252.105-.541 0-.277-.018-.373-.093-.52-.217-.422-.592-.677-1.038-.703a1.6 1.6 0 0 0-.395.017zm5 0a1.37 1.37 0 0 0-.82.679l-.004.007c-.075.148-.093.244-.093.521 0 .29.016.37.105.541.126.24.348.46.592.585.147.076.243.094.52.094.276 0 .372-.018.52-.094.251-.134.454-.334.588-.577l.004-.008c.089-.17.105-.252.105-.541 0-.277-.018-.373-.093-.52-.217-.422-.592-.677-1.038-.703a1.6 1.6 0 0 0-.395.017zm5 0c-.361.11-.652.357-.82.679l-.003.007c-.076.148-.093.244-.093.521 0 .29.015.37.105.541.126.24.347.46.591.585.147.076.243.094.52.094s.373-.018.52-.094a1.44 1.44 0 0 0 .588-.577l.004-.008c.09-.17.105-.252.105-.541 0-.277-.017-.373-.093-.52-.217-.422-.592-.677-1.038-.703a1.6 1.6 0 0 0-.395.017z"/>
  <path fill-rule="evenodd" d="M17.899 12.579c-.924.201-1.706.922-2.008 1.854-.086.264-.104.41-.12.961l-.02.65-.214.044c-.698.145-1.302.75-1.463 1.463-.075.339-.075 2.587 0 2.926.171.71.709 1.261 1.397 1.449l.013.003c.233.065.501.071 3.016.071 3.037 0 3.004.002 3.477-.25.26-.14.614-.494.754-.756.228-.428.25-.598.25-1.98s-.022-1.553-.25-1.98c-.24-.447-.768-.842-1.266-.946l-.213-.045-.02-.649c-.028-.88-.162-1.293-.598-1.852a2.88 2.88 0 0 0-1.518-.958l-.02-.004a3.4 3.4 0 0 0-1.218.002zm.852 1.967c.082.034.2.112.264.17.2.193.239.314.258.82l.018.472h-1.57v-.37c.002-.632.109-.878.457-1.054.228-.115.366-.124.573-.037"/>
</svg>