<svg xmlns="http://www.w3.org/2000/svg" width="26" height="26" fill="currentColor" class="sym sym-passcode-solid" viewBox="0 0 26 26">
  <path fill-rule="evenodd" d="M4.9 7.01c-.894.074-1.484.326-2.015.858-.492.492-.758 1.066-.842 1.81-.057.521-.057 6.104 0 6.625.108.967.55 1.692 1.352 2.22.355.235.774.373 1.296.432.538.06 16.08.06 16.618 0 .522-.058.941-.197 1.296-.432.802-.527 1.244-1.253 1.352-2.22.057-.521.057-6.104 0-6.626-.058-.522-.198-.942-.431-1.297q-.68-1.036-1.866-1.308c-.251-.057-1.116-.065-8.44-.07-4.488-.004-8.232 0-8.32.007m3.637 4.857c.25.123.463.334.586.586.14.284.139.792 0 1.077-.565 1.147-2.283.807-2.356-.465l-.004-.099q0-.172.038-.331l-.002.01c.12-.379.42-.695.791-.837.232-.09.706-.06.947.06m5 0c.25.123.463.334.586.586.14.284.139.792 0 1.077-.46.933-1.79.933-2.244 0-.114-.236-.152-.655-.078-.886.12-.378.42-.694.79-.836.232-.09.705-.06.946.06m5 0c.25.123.463.334.586.586.14.284.139.792 0 1.077-.46.933-1.79.933-2.244 0-.114-.236-.152-.655-.078-.886.12-.378.42-.694.79-.836.232-.09.705-.06.946.06"/>
</svg>