<svg xmlns="http://www.w3.org/2000/svg" width="26" height="26" fill="currentColor" class="sym sym-passcode" viewBox="0 0 26 26">
  <path d="M19.856 19H6.144c-1.23 0-1.916 0-2.54-.325a2.92 2.92 0 0 1-1.281-1.29C2 16.757 2 16.066 2 14.828v-3.654c0-1.239 0-1.93.323-2.559a2.92 2.92 0 0 1 1.28-1.29C4.228 7 4.913 7 6.143 7h13.713c1.23 0 1.916 0 2.54.325.555.284 1 .73 1.281 1.29.323.629.323 1.319.323 2.558v3.654c0 1.239 0 1.93-.323 2.559a2.92 2.92 0 0 1-1.28 1.29c-.625.324-1.31.324-2.54.324M6.144 8.848c-.918 0-1.472 0-1.714.122a1.13 1.13 0 0 0-.484.487c-.121.233-.121.802-.121 1.726v3.655c0 .923 0 1.482.12 1.725q.167.32.485.488c.232.122.796.122 1.714.122h13.712c.918 0 1.472 0 1.714-.122q.318-.167.484-.488c.121-.233.121-.802.121-1.725v-3.655c0-.924 0-1.483-.12-1.726a1.13 1.13 0 0 0-.485-.487c-.232-.122-.796-.122-1.714-.122zm11.897 5.33a1.17 1.17 0 0 1-1.16-1.168c0-.64.525-1.167 1.16-1.167s1.16.527 1.16 1.167a1.17 1.17 0 0 1-1.16 1.168m-5.041 0a1.17 1.17 0 0 1-1.16-1.168c0-.64.525-1.167 1.16-1.167s1.16.527 1.16 1.167A1.17 1.17 0 0 1 13 14.178m-5.041 0a1.17 1.17 0 0 1-1.16-1.168c0-.64.525-1.167 1.16-1.167s1.16.527 1.16 1.167a1.17 1.17 0 0 1-1.16 1.168"/>
</svg>