<svg xmlns="http://www.w3.org/2000/svg" width="26" height="26" fill="currentColor" class="sym sym-passcode-lock" viewBox="0 0 26 26">
  <path d="M20.461 22H16.63c-.666 0-1.07 0-1.472-.212a1.92 1.92 0 0 1-.837-.838c-.212-.415-.212-.819-.212-1.475v-.808c0-.667 0-1.071.212-1.475a1.92 1.92 0 0 1 .837-.838c.222-.122.453-.172.716-.192v-.88c0-1.474 1.2-2.676 2.671-2.676a2.68 2.68 0 0 1 2.672 2.677v.879c.273.02.494.07.716.192.363.181.645.474.837.838.212.414.212.818.212 1.475v.808c0 .666 0 1.07-.212 1.474a1.92 1.92 0 0 1-.837.839c-.413.212-.806.212-1.472.212m-3.831-4.04c-.293 0-.595 0-.676.02-.03.09-.03.394-.03.687v.808c0 .293 0 .596.02.676.09.03.393.03.686.03h3.831c.292 0 .595 0 .676-.02.03-.09.03-.393.03-.686v-.808c0-.293 0-.596-.02-.677-.091-.03-.394-.03-.686-.03zm1.058-1.819h1.714v-.858a.857.857 0 1 0-1.714 0zm-5.696-.202H6.144c-1.23 0-1.916 0-2.54-.323a2.9 2.9 0 0 1-1.281-1.283C2 13.707 2 13.02 2 11.788V8.152c0-1.233 0-1.92.323-2.546.282-.556.726-1 1.28-1.283C4.228 4 4.913 4 6.143 4h13.713c1.23 0 1.916 0 2.54.323.555.283 1 .727 1.281 1.283C24 6.232 24 6.919 24 8.152v2.828a.904.904 0 0 1-.907.909.905.905 0 0 1-.908-.91V8.153c0-.92 0-1.475-.12-1.718a1.12 1.12 0 0 0-.485-.485c-.232-.12-.796-.12-1.714-.12H6.154c-.918 0-1.472 0-1.714.12a1.12 1.12 0 0 0-.484.485c-.121.233-.121.798-.121 1.718v3.636c0 .919 0 1.475.121 1.717q.166.318.484.485c.232.121.796.121 1.714.121h5.848c.504 0 .907.404.907.91a.904.904 0 0 1-.907.908zm6.05-4.798c-.636 0-1.16-.525-1.16-1.161 0-.637.524-1.162 1.16-1.162.634 0 1.159.525 1.159 1.162s-.525 1.161-1.16 1.161m-5.042 0c-.635 0-1.16-.525-1.16-1.161 0-.637.525-1.162 1.16-1.162s1.16.525 1.16 1.162-.525 1.161-1.16 1.161m-5.041 0c-.635 0-1.16-.525-1.16-1.161 0-.637.525-1.162 1.16-1.162s1.16.525 1.16 1.162-.525 1.161-1.16 1.161"/>
</svg>