<svg xmlns="http://www.w3.org/2000/svg" width="26" height="26" fill="currentColor" class="sym sym-pencil-02-solid" viewBox="0 0 26 26">
  <path d="M17.615 4.052c-.288.101-.527.446-.527.763 0 .066.024.192.053.28.049.146.222.332 1.795 1.909 1.238 1.242 1.783 1.766 1.886 1.817a.814.814 0 0 0 1.091-1.092c-.05-.102-.574-.647-1.817-1.885-1.577-1.573-1.762-1.747-1.908-1.795a.83.83 0 0 0-.58.004zm-2.612 2.664q-.232.117-.412.277l.002-.002c-.38.328-8.953 8.932-9.083 9.115-.27.381-.264.364-.95 2.869-.608 2.221-.626 2.315-.493 2.575a.9.9 0 0 0 .383.384c.257.132.352.113 2.575-.495a113 113 0 0 0 2.238-.626c.314-.108.557-.256.864-.525.16-.141 2.253-2.224 4.652-4.629 4.964-4.974 4.555-4.515 4.555-5.109 0-.567.06-.489-1.669-2.216-1.706-1.706-1.648-1.663-2.183-1.677-.248-.007-.345.006-.48.06"/>
</svg>