<svg xmlns="http://www.w3.org/2000/svg" width="26" height="26" fill="currentColor" class="sym sym-pencil-solid" viewBox="0 0 26 26">
  <path fill-rule="evenodd" d="M18.42 4.019a3.34 3.34 0 0 0-1.457.536l.012-.008c-.188.123-1.367 1.281-5.285 5.193-3.037 3.032-5.123 5.14-5.245 5.3a4 4 0 0 0-.303.47l-.01.02c-.122.242-2.05 5.23-2.111 5.463-.083.311.089.693.394.875.211.127.373.158.578.112s5.198-1.968 5.48-2.11a4 4 0 0 0 .489-.314c.16-.122 2.265-2.204 5.301-5.244 5.256-5.263 5.2-5.203 5.451-5.74a3.34 3.34 0 0 0 .192-2.138 3.26 3.26 0 0 0-3.486-2.415M8.754 18.746l-2.44.938.044-.108.48-1.248.438-1.14.767.768c.61.609.757.772.71.79"/>
</svg>