<svg xmlns="http://www.w3.org/2000/svg" width="26" height="26" fill="currentColor" class="sym sym-pencil-02" viewBox="0 0 26 26">
  <path d="M4.915 21.99a.9.9 0 0 1-.648-.263.89.89 0 0 1-.232-.88l1.031-3.781c.091-.324.132-.475.203-.617.07-.162.162-.313.263-.455.09-.121.202-.242.435-.475l8.364-8.352c.212-.212.394-.394.688-.495.273-.091.556-.091.819 0 .303.1.486.283.688.485l2.326 2.326c.212.212.394.394.496.687.09.273.09.556 0 .82-.102.303-.284.485-.496.697l-8.364 8.362c-.233.232-.354.343-.486.434a2.2 2.2 0 0 1-.455.263 4.4 4.4 0 0 1-.607.192L5.137 21.97a1 1 0 0 1-.242.03zM15.433 8.613l-8.172 8.17c-.131.131-.202.192-.253.263-.03.04-.06.08-.08.131-.041.081-.051.172-.102.334l-.617 2.265 2.246-.617c.182-.05.273-.07.354-.101.04-.02.08-.04.121-.071.08-.06.142-.121.273-.253l8.172-8.17-1.952-1.95zm5.664.435a.95.95 0 0 1-.647-.263L17.214 5.55a.91.91 0 0 1 1.284-1.285l3.236 3.236a.91.91 0 0 1 0 1.284.9.9 0 0 1-.647.263z"/>
</svg>