<svg xmlns="http://www.w3.org/2000/svg" width="26" height="26" fill="currentColor" class="sym sym-pencil-line" viewBox="0 0 26 26">
  <path d="M4.914 21.99a.95.95 0 0 1-.647-.263.9.9 0 0 1-.192-.283.95.95 0 0 1-.02-.688l1.79-4.643c.14-.354.201-.526.292-.688a2.6 2.6 0 0 1 .314-.475 5 5 0 0 1 .516-.546l9.442-9.448a3.28 3.28 0 0 1 4.63 0 3.27 3.27 0 0 1 0 4.633l-9.442 9.447a6 6 0 0 1-.546.506 3.5 3.5 0 0 1-.475.314c-.162.09-.334.151-.647.283l-4.691 1.8a.9.9 0 0 1-.324.061zm2.437-4.724-.86 2.225 2.225-.85-1.365-1.365zm.94-1.639s.06.051.08.081l1.891 1.892.081.08 9.403-9.406c.273-.273.424-.638.424-1.032 0-.395-.152-.759-.425-1.032a1.464 1.464 0 0 0-2.062 0l-9.402 9.407zm12.101 5.938H13.7a.906.906 0 0 1-.91-.91c0-.506.404-.91.91-.91h6.692c.506 0 .91.404.91.91 0 .505-.404.91-.91.91"/>
</svg>