<svg xmlns="http://www.w3.org/2000/svg" width="26" height="26" fill="currentColor" class="sym sym-perspective-solid" viewBox="0 0 26 26">
  <path fill-rule="evenodd" d="M5.52 4.022A1.755 1.755 0 0 0 4.06 5.4l-.003.011c-.076.358-.076 2.199 0 2.557.078.367.213.617.483.886.284.284.537.415.954.494l.308.059v7.186l-.135.021c-.548.083-.804.203-1.127.522-.47.467-.537.735-.537 2.163 0 1.426.067 1.693.537 2.164.47.47.736.537 2.162.537 1.376 0 1.656-.063 2.102-.47.38-.35.548-.73.59-1.347l.025-.359L13 19.311c1.97-.283 3.598-.514 3.619-.516.021 0 .06.08.084.179.095.375.492.837.88 1.026.345.17.598.199 1.715.199 1.425 0 1.692-.067 2.162-.537s.537-.738.537-2.165-.067-1.695-.537-2.162c-.323-.32-.58-.44-1.127-.522l-.135-.021v-3.583l.308-.06c.417-.078.67-.21.954-.494.27-.269.405-.518.483-.886.076-.357.076-2.198 0-2.556-.133-.63-.546-1.096-1.173-1.323-.224-.08-.265-.083-1.471-.083s-1.248.003-1.471.083c-.553.2-.985.634-1.124 1.124a2 2 0 0 1-.059.186l.004-.012c-.005.008-1.638-.219-3.628-.503l-3.619-.517v-.253c-.003-.888-.447-1.548-1.228-1.825-.217-.076-.29-.08-1.345-.089-.614-.005-1.203.006-1.308.022zM13 8.502l3.58.513.025.359c.042.617.21.998.59 1.347.254.23.514.356.895.427l.308.06v3.583l-.135.02c-.548.084-.804.203-1.127.523-.365.362-.535.802-.537 1.387v.254l-3.62.516c-1.99.285-3.624.51-3.629.503a2 2 0 0 1-.055-.174l-.003-.012c-.063-.232-.27-.546-.491-.745-.286-.256-.567-.375-1.065-.451l-.135-.02V9.404l.307-.06a2.4 2.4 0 0 0 .502-.152c.394-.193.79-.653.885-1.03.025-.098.063-.178.085-.178.02 0 1.649.232 3.619.515z"/>
</svg>