<svg xmlns="http://www.w3.org/2000/svg" width="26" height="26" fill="currentColor" class="sym sym-perspective" viewBox="0 0 26 26">
  <path d="M7.06 22h-.717c-.585 0-.97 0-1.363-.202a1.85 1.85 0 0 1-.788-.788C4 20.626 4 20.242 4 19.657v-.718c0-.585 0-.97.202-1.363a1.75 1.75 0 0 1 .788-.788c.252-.131.505-.172.808-.192V9.414c-.303-.02-.556-.06-.808-.192a1.8 1.8 0 0 1-.788-.788c-.192-.384-.192-.777-.192-1.363v-.718c0-.585 0-.97.202-1.363A1.86 1.86 0 0 1 5 4.202C5.384 4 5.778 4 6.364 4h.717c.586 0 .97 0 1.363.202.344.172.617.444.788.788.182.353.192.697.202 1.192l7.212 1.03c.03-.151.071-.283.142-.424A1.85 1.85 0 0 1 17.576 6c.384-.202.777-.202 1.363-.202h.718c.585 0 .97 0 1.363.202.344.172.616.444.788.788.192.384.192.778.192 1.364v.717c0 .586 0 .97-.202 1.363a1.85 1.85 0 0 1-.788.788c-.252.132-.505.172-.808.192v3.586c.303.02.556.06.808.192.333.172.616.454.788.788.192.384.192.767.192 1.353v.717c0 .586 0 .97-.202 1.364A1.75 1.75 0 0 1 21 20c-.384.202-.778.202-1.364.202h-.717c-.586 0-.97 0-1.363-.202a1.75 1.75 0 0 1-.788-.788 1.4 1.4 0 0 1-.142-.424l-7.212 1.03c0 .495-.02.838-.202 1.192a1.75 1.75 0 0 1-.788.788C8.04 22 7.646 22 7.061 22m-.717-3.596c-.252 0-.505 0-.575.02.05 0 .05.263.05.515v.718c0 .252 0 .505.02.575 0-.05.263-.05.505-.05h.718c.252 0 .505 0 .575-.02-.05 0-.05-.263-.05-.505v-.727c0-.253 0-.506-.02-.576 0 .05-.263.05-.516.05h-.717zm12.04-.636v.09c0 .253 0 .506.021.576 0-.05.263-.05.515-.05h.717c.253 0 .505 0 .576-.02-.05 0-.05-.263-.05-.505v-.718c0-.252 0-.505-.02-.575 0 .05-.263.05-.506.05h-.717c-.252 0-.505 0-.576.02.05 0 .05.263.05.505v.637zM7.607 16.596c.303.02.556.06.808.192.344.172.616.444.788.788.07.141.121.273.141.424l7.212-1.03c0-.495.02-.839.203-1.192a1.75 1.75 0 0 1 .788-.788c.252-.131.505-.172.808-.192v-3.586c-.303-.02-.556-.06-.808-.192a1.75 1.75 0 0 1-.788-.788c-.182-.343-.192-.697-.203-1.192L9.343 8.01c-.03.141-.07.283-.141.424a1.75 1.75 0 0 1-.788.788c-.252.132-.505.172-.808.192zm10.778-8.323v.606c0 .252 0 .505.02.576 0-.051.263-.051.515-.051h.717c.253 0 .505 0 .576-.02-.05 0-.05-.263-.05-.505v-.717c0-.253 0-.505-.02-.576 0 .05-.263.05-.506.05h-.717c-.252 0-.505 0-.576.02.05 0 .05.263.05.506v.12zM6.344 5.838c-.253 0-.506 0-.576.02.05 0 .05.263.05.506v.717c0 .252 0 .505.02.576 0-.051.263-.05.505-.05h.718c.252 0 .505-.001.575-.021-.05 0-.05-.263-.05-.515v-.728c0-.252 0-.505-.02-.575 0 .05-.263.05-.516.05h-.717z"/>
</svg>