<svg xmlns="http://www.w3.org/2000/svg" width="26" height="26" fill="currentColor" class="sym sym-phone-solid" viewBox="0 0 26 26">
  <path d="M7.401 4.042c-.319.069-.872.344-1.224.61a7.6 7.6 0 0 0-1.535 1.627c-.442.658-.687 1.524-.635 2.236.058.784.667 2.621 1.311 3.957 2.197 4.475 6.104 7.825 10.846 9.234l.124.032c.792.229 1.133.284 1.584.255 1.012-.063 1.905-.527 2.873-1.491C21.648 19.6 22 18.913 22 18.05c0-.632-.151-1.075-.568-1.662-.436-.616-1.353-1.437-1.896-1.695-.504-.24-1.21-.32-1.744-.196-.496.115-.852.326-1.342.8-.373.357-.316.35-.808.09a12 12 0 0 1-4.992-4.979c-.124-.234-.224-.457-.224-.495s.08-.146.179-.242c.675-.655.952-1.253.954-2.063.002-.66-.17-1.135-.632-1.749-.641-.85-1.516-1.542-2.232-1.765-.325-.102-.95-.126-1.294-.052"/>
</svg>