<svg xmlns="http://www.w3.org/2000/svg" width="26" height="26" fill="currentColor" class="sym sym-phone-02-solid" viewBox="0 0 26 26">
  <path fill-rule="evenodd" d="M8.357 4.007c-.73.064-1.205.268-1.637.704-.399.402-.616.871-.683 1.48-.05.44-.05 13.165 0 13.605.046.427.16.77.35 1.06.428.658 1.017 1.02 1.8 1.108.433.048 8.193.048 8.625 0 .784-.089 1.373-.45 1.801-1.107.19-.29.303-.634.35-1.061.05-.44.05-13.165 0-13.605-.046-.428-.16-.771-.35-1.061a2.4 2.4 0 0 0-1.515-1.07c-.2-.046-.725-.052-4.419-.057a446 446 0 0 0-4.466.006zm4.565 12.342c.322.114.587.385.716.733a1.3 1.3 0 0 1-.06.962 1.24 1.24 0 0 1-.584.573l-.007.003c-.152.072-.225.084-.488.084s-.335-.012-.487-.084a1.24 1.24 0 0 1-.589-.569l-.003-.007a1.28 1.28 0 0 1-.055-.975l-.002.009a1.2 1.2 0 0 1 1.205-.795h-.003c.116.008.277.037.357.066"/>
</svg>