<svg xmlns="http://www.w3.org/2000/svg" width="26" height="26" fill="currentColor" class="sym sym-phone-incoming" viewBox="0 0 26 26">
  <path d="M17.356 21.99c-.478 0-.803-.091-1.31-.233a17.15 17.15 0 0 1-7.435-4.353 17.1 17.1 0 0 1-4.367-7.399C4.102 9.5 4.01 9.165 4 8.7c0-.546.173-1.224.447-1.7.233-.415.518-.699.995-1.174l.132-.132c.508-.506.782-.78 1.148-.962a2.61 2.61 0 0 1 2.356 0c.376.193.65.466 1.148.962l.162.172c.325.324.508.506.66.739a2.6 2.6 0 0 1 0 2.834c-.152.233-.335.415-.66.74l-.101.1c.62 1.185 1.371 2.237 2.295 3.159.925.92 1.98 1.67 3.149 2.227 0 0 .04.02.071.03 0-.02.01-.04.04-.071.336-.334.518-.516.742-.658a2.63 2.63 0 0 1 2.844 0c.233.152.416.334.741.658l.163.162c.508.506.782.78.975 1.154.376.739.376 1.61 0 2.348-.183.365-.467.648-.965 1.144l-.142.132c-.467.475-.762.759-1.178.992a3.8 3.8 0 0 1-1.696.445zM7.91 6.26a.9.9 0 0 0-.355.08c-.112.051-.346.294-.68.628l-.133.132c-.436.435-.589.587-.69.78a2 2 0 0 0-.214.799c0 .213.04.354.173.81a15.25 15.25 0 0 0 3.9 6.61 15.3 15.3 0 0 0 6.632 3.887c.468.131.61.172.823.172.224 0 .6-.102.802-.213.193-.101.346-.263.783-.688l.142-.132c.325-.324.569-.567.62-.678a.79.79 0 0 0 0-.709c-.062-.11-.295-.354-.63-.678l-.163-.162c-.224-.222-.386-.384-.447-.425a.81.81 0 0 0-.853 0c-.071.04-.224.193-.427.405a1.85 1.85 0 0 1-1.859.557c-.111-.03-.192-.071-.355-.142a13.5 13.5 0 0 1-3.666-2.591 13.3 13.3 0 0 1-2.59-3.634 2 2 0 0 1-.153-.375 1.78 1.78 0 0 1 .264-1.508 3 3 0 0 1 .285-.314c.223-.222.376-.374.426-.445a.76.76 0 0 0 0-.85c-.04-.071-.203-.223-.426-.446l-.163-.172c-.335-.334-.568-.567-.68-.627a.9.9 0 0 0-.356-.081zm12.34 4.605h-4.245c-.122 0-.244-.03-.355-.07a.9.9 0 0 1-.285-.183h-.01v-.01a1.1 1.1 0 0 1-.193-.283.9.9 0 0 1-.071-.324V5.754c0-.506.406-.911.914-.911s.914.405.914.91v2.025l3.524-3.512a.916.916 0 0 1 1.29 0 .91.91 0 0 1 0 1.285L18.21 9.064h2.031a.91.91 0 0 1 .915.91.91.91 0 0 1-.915.912z"/>
</svg>