<svg xmlns="http://www.w3.org/2000/svg" width="26" height="26" fill="currentColor" class="sym sym-phone-hang-up" viewBox="0 0 26 26">
  <path d="M17.65 21.98c-.485 0-.818-.101-1.333-.243a17.5 17.5 0 0 1-6.982-3.878l-3.718 3.717a.908.908 0 0 1-1.283-1.283l15.64-15.635a.908.908 0 0 1 1.283 1.283l-7.87 7.868a11.8 11.8 0 0 0 2.606 1.717l.111.05s0-.04.04-.09c.344-.344.526-.526.759-.677a2.67 2.67 0 0 1 2.89 0c.232.151.424.333.757.676l.172.172c.515.515.798.798.99 1.172a2.63 2.63 0 0 1 0 2.393c-.192.374-.465.657-.98 1.162l-.142.141c-.485.485-.777.778-1.202 1.02A3.8 3.8 0 0 1 17.66 22zm-7.032-5.414a15.75 15.75 0 0 0 6.184 3.414c.485.141.626.172.848.172.243 0 .627-.101.829-.212.192-.112.364-.273.808-.718l.132-.13c.353-.354.596-.597.656-.708a.81.81 0 0 0 0-.747c-.06-.122-.303-.364-.646-.707l-.172-.172c-.223-.222-.384-.384-.465-.434a.83.83 0 0 0-.9 0c-.07.05-.232.212-.464.434a2.4 2.4 0 0 1-.333.293 1.8 1.8 0 0 1-1.526.252c-.111-.03-.192-.07-.364-.151a13.8 13.8 0 0 1-3.122-2.07l-1.475 1.474zm-3.496-1.798a.92.92 0 0 1-.768-.414 17.3 17.3 0 0 1-2.112-4.676C4.091 9.152 4 8.819 4 8.334c0-.555.182-1.252.455-1.727.232-.424.525-.717 1.01-1.202l.142-.141c.515-.515.798-.798 1.172-.98a2.67 2.67 0 0 1 2.394 0c.374.192.657.475 1.172.99l.172.172c.333.333.525.525.677.757a2.67 2.67 0 0 1 0 2.889c-.152.232-.334.424-.677.757l-.101.101.06.04c.102.213.203.415.314.607.242.444.08.99-.364 1.232a.906.906 0 0 1-1.233-.364c-.12-.232-.242-.454-.353-.686-.081-.172-.121-.253-.152-.364a1.8 1.8 0 0 1 .556-1.859c.222-.222.384-.383.434-.454a.81.81 0 0 0 0-.899c-.05-.07-.212-.232-.434-.465l-.172-.171c-.343-.344-.586-.586-.707-.647a.81.81 0 0 0-.748 0c-.11.06-.364.303-.697.637l-.152.151c-.444.445-.606.606-.717.808a1.9 1.9 0 0 0-.212.838c0 .223.04.364.172.839a15.6 15.6 0 0 0 1.9 4.202.901.901 0 0 1-.769 1.393z"/>
</svg>