<svg xmlns="http://www.w3.org/2000/svg" width="26" height="26" fill="currentColor" class="sym sym-phone-outgoing-02-solid" viewBox="0 0 26 26">
  <path d="M17.925 4.019c-.387.126-.626.439-.627.822-.002.33.065.42.95 1.295.444.44.808.813.808.827s-1.119.026-2.485.026c-2.723 0-2.592-.01-2.842.209a.836.836 0 0 0-.014 1.246h.001c.257.243.114.231 2.871.241l2.48.01-.841.843c-.898.899-.93.943-.93 1.269 0 .597.64 1.021 1.177.781.116-.052.545-.457 1.759-1.66C21.967 8.206 22 8.165 22 7.824c0-.335-.025-.364-1.74-2.074-.932-.93-1.655-1.624-1.734-1.665-.146-.076-.465-.11-.602-.067m-10.476.483c-.676.098-1.358.52-2.12 1.31-.657.68-1.043 1.3-1.232 1.979-.087.307-.096.394-.096.886 0 .641.043.84.428 1.995 1.674 5.01 5.474 8.894 10.5 10.737.45.17 1.039.352 1.64.503l.124.027c.73.159 1.696.005 2.387-.379.586-.326 1.425-1.075 1.872-1.668.406-.541.59-.994.629-1.558.062-.87-.266-1.568-1.152-2.45-.545-.542-.83-.763-1.252-.967a2.35 2.35 0 0 0-1.075-.257h-.048.003c-.762.001-1.361.273-1.98.9-.12.123-.24.225-.266.225-.07 0-.675-.313-1.088-.563-.832-.503-1.45-.993-2.212-1.752-.905-.901-1.661-1.935-2.175-2.975l-.13-.26.252-.268c.359-.381.504-.572.64-.84.18-.355.255-.69.255-1.131 0-.859-.307-1.452-1.217-2.354-.715-.71-1.214-1.011-1.854-1.122a2.3 2.3 0 0 0-.845-.015l.013-.002"/>
</svg>