<svg xmlns="http://www.w3.org/2000/svg" width="26" height="26" fill="currentColor" class="sym sym-phone" viewBox="0 0 26 26">
  <path d="M17.633 21.98c-.485 0-.818-.101-1.333-.243a17.5 17.5 0 0 1-7.594-4.467 17.5 17.5 0 0 1-4.464-7.59C4.091 9.156 4 8.823 4 8.338c0-.556.182-1.253.454-1.728.233-.425.526-.718 1.01-1.203l.142-.142c.515-.515.797-.798 1.171-.98a2.66 2.66 0 0 1 2.393 0c.374.192.657.475 1.172.99l.171.172c.334.334.525.526.677.758.565.88.565 2.011 0 2.89-.152.233-.333.425-.677.759l-.1.1.06.041a11.7 11.7 0 0 0 2.292 3.234c.95.95 2.03 1.718 3.232 2.294l.11.05s0-.04.041-.09c.343-.344.525-.526.758-.677a2.67 2.67 0 0 1 2.888 0c.232.151.424.333.757.677l.172.172c.515.515.797.798.99 1.172a2.64 2.64 0 0 1 0 2.395c-.193.374-.465.657-.98 1.162l-.142.142c-.484.485-.777.778-1.201 1.02a3.8 3.8 0 0 1-1.727.455zM7.958 5.81a.8.8 0 0 0-.373.091c-.111.06-.364.303-.697.637l-.151.151c-.445.445-.606.607-.717.809a1.9 1.9 0 0 0-.212.839c0 .222.04.364.171.838A15.72 15.72 0 0 0 16.774 19.99c.485.141.626.172.848.172.243 0 .627-.101.829-.213.191-.11.363-.272.807-.717l.132-.131c.353-.354.595-.597.656-.708a.82.82 0 0 0 0-.748c-.06-.12-.303-.363-.646-.707l-.172-.172c-.222-.222-.384-.384-.465-.434a.83.83 0 0 0-.898 0c-.07.05-.232.212-.465.434a2.4 2.4 0 0 1-.333.293 1.8 1.8 0 0 1-1.525.253c-.11-.03-.192-.07-.363-.152a13.5 13.5 0 0 1-3.737-2.647 13.7 13.7 0 0 1-2.645-3.74l.818-.394-.818.384c-.081-.172-.111-.253-.152-.354a1.8 1.8 0 0 1 .556-1.86 6 6 0 0 0 .434-.454.81.81 0 0 0 0-.9c-.05-.07-.212-.232-.434-.464l-.172-.172c-.343-.344-.586-.586-.707-.647a.8.8 0 0 0-.374-.09z"/>
</svg>