<svg xmlns="http://www.w3.org/2000/svg" width="26" height="26" fill="currentColor" class="sym sym-phone-outgoing-02" viewBox="0 0 26 26">
  <path d="M17.355 22c-.477 0-.803-.091-1.29-.233a17.13 17.13 0 0 1-7.46-4.36 17.1 17.1 0 0 1-4.371-7.395C4.09 9.486 4 9.152 4 8.697c0-.557.183-1.235.447-1.7.234-.405.508-.688.986-1.163l.142-.142c.539-.526.803-.79 1.17-.971a2.6 2.6 0 0 1 2.347 0c.356.182.61.435 1.088.89l.08.081.163.162c.346.354.529.526.671.759.55.84.55 1.952-.01 2.812-.132.212-.305.384-.59.668l-.772-.516.66.627v.081h.01a11.2 11.2 0 0 0 2.237 3.126c.925.92 1.982 1.67 3.15 2.226 0 0 .031.01.052.03l.06-.06.072-.071c.274-.284.447-.446.67-.587a2.64 2.64 0 0 1 2.846 0c.204.131.366.283.61.526l.295.293c.488.486.762.759.955 1.113.376.769.376 1.639.02 2.357-.213.395-.487.668-.975 1.164l-.132.131c-.478.486-.773.759-1.19 1.002a3.8 3.8 0 0 1-1.697.445zM7.893 6.279a.8.8 0 0 0-.346.08c-.112.051-.335.274-.64.577l-.183.182c-.437.435-.59.597-.691.78a2 2 0 0 0-.204.799c0 .202.03.333.153.748a15.3 15.3 0 0 0 3.923 6.667 15.3 15.3 0 0 0 6.637 3.885c.478.131.61.172.823.172.224 0 .6-.091.793-.202s.356-.264.793-.688l.132-.132c.346-.354.58-.587.65-.718.092-.182.092-.465-.02-.688-.05-.091-.284-.324-.63-.668l-.274-.273c-.153-.142-.275-.273-.326-.303a.77.77 0 0 0-.854 0c-.06.04-.203.182-.365.343l-.082.081a4 4 0 0 1-.284.264c-.468.333-1.047.434-1.555.283a3 3 0 0 1-.366-.152 12.9 12.9 0 0 1-3.649-2.58 13.2 13.2 0 0 1-2.592-3.642c-.06-.131-.122-.253-.162-.414a1.76 1.76 0 0 1 .264-1.457c.05-.081.112-.142.213-.253l.133-.132c.152-.151.304-.313.345-.364a.78.78 0 0 0 .01-.87c-.04-.07-.203-.223-.355-.384l-.234-.233c-.346-.344-.58-.567-.681-.617a.73.73 0 0 0-.356-.081zm2.409 3.925-.773.496.813-.385c-.01-.06-.03-.1-.03-.111zm7.816 1.528a.95.95 0 0 1-.651-.263.907.907 0 0 1 0-1.285l1.413-1.406h-4.584a.91.91 0 0 1-.915-.91c0-.507.407-.911.915-.911h4.584L17.467 5.55a.907.907 0 0 1 0-1.284.917.917 0 0 1 1.29 0l2.969 2.954c.091.09.152.192.203.293.04.101.06.212.071.324v.03a.9.9 0 0 1-.071.334c-.04.07-.081.142-.142.212l-2.968 2.954a.9.9 0 0 1-.65.263z"/>
</svg>