<svg xmlns="http://www.w3.org/2000/svg" width="26" height="26" fill="currentColor" class="sym sym-phone-02" viewBox="0 0 26 26">
  <path d="M15.537 22H9.453c-1.011 0-1.562 0-2.092-.273a2.5 2.5 0 0 1-1.09-1.112C6 20.079 6 19.512 6 18.5v-11c0-1.021 0-1.578.27-2.124.24-.475.62-.86 1.091-1.102C7.901 4 8.451 4 9.463 4h6.084c1.011 0 1.562 0 2.092.273.48.253.85.627 1.09 1.112C19 5.921 19 6.488 19 7.5v11c0 1.021 0 1.578-.27 2.114-.24.475-.62.86-1.091 1.102-.54.273-1.09.273-2.102.273zM9.453 5.82c-.66 0-1.131 0-1.281.081a.67.67 0 0 0-.3.303c-.08.152-.08.658-.08 1.295V18.5c0 .637 0 1.143.08 1.284.07.132.18.243.31.314.15.07.62.07 1.28.07h6.085c.66 0 1.131 0 1.281-.08a.67.67 0 0 0 .3-.304c.08-.151.08-.657.08-1.294V7.489c0-.637 0-1.143-.08-1.295a.8.8 0 0 0-.31-.313c-.15-.07-.62-.07-1.28-.07H9.452zm3.042 12.944c-.72 0-1.301-.587-1.301-1.314 0-.729.58-1.315 1.301-1.315.72 0 1.301.586 1.301 1.314s-.58 1.315-1.301 1.315"/>
</svg>