<svg xmlns="http://www.w3.org/2000/svg" width="26" height="26" fill="currentColor" class="sym sym-phone-outgoing" viewBox="0 0 26 26">
  <path d="M17.355 22c-.477 0-.803-.091-1.29-.233A17.13 17.13 0 0 1 4.234 10.01c-.144-.526-.235-.86-.235-1.315 0-.557.183-1.235.447-1.7.234-.405.508-.688.986-1.164l.142-.141c.539-.526.803-.79 1.17-.972a2.6 2.6 0 0 1 2.347 0c.356.183.61.435 1.088.89l.08.082.163.162c.346.354.529.526.671.758.55.84.55 1.953-.01 2.813-.132.213-.305.385-.59.668l-.772-.516.66.627v.081h.01a11.2 11.2 0 0 0 2.237 3.127 11.4 11.4 0 0 0 3.15 2.226s.031.01.052.03l.06-.06.072-.071c.274-.284.447-.446.67-.587a2.63 2.63 0 0 1 2.846 0c.204.131.366.283.61.526l.295.293c.488.486.762.76.955 1.113.376.77.376 1.64.02 2.358-.213.394-.487.668-.975 1.163l-.132.132c-.478.485-.773.759-1.19 1.002a3.8 3.8 0 0 1-1.697.445zM7.893 6.277a.8.8 0 0 0-.346.08c-.112.051-.335.274-.64.577l-.183.182c-.437.435-.59.597-.691.78a2 2 0 0 0-.204.799c0 .202.03.334.153.749a15.3 15.3 0 0 0 3.923 6.667 15.3 15.3 0 0 0 6.637 3.886c.478.131.61.172.823.172.224 0 .6-.091.793-.203.193-.111.356-.263.793-.688l.132-.131c.346-.354.58-.587.65-.719.092-.182.092-.465-.02-.688-.05-.09-.284-.323-.63-.667l-.274-.274c-.153-.141-.275-.273-.326-.303a.77.77 0 0 0-.854 0 4 4 0 0 0-.365.344l-.082.08a4 4 0 0 1-.284.264c-.468.334-1.047.435-1.555.283a3 3 0 0 1-.366-.152 12.9 12.9 0 0 1-3.649-2.58 13.2 13.2 0 0 1-2.592-3.642c-.06-.132-.122-.253-.162-.415a1.76 1.76 0 0 1 .264-1.457c.05-.081.112-.142.213-.253l.133-.132c.152-.151.304-.313.345-.364a.78.78 0 0 0 .01-.87c-.04-.07-.203-.223-.355-.384l-.234-.233c-.346-.344-.58-.567-.681-.617a.73.73 0 0 0-.356-.081zm2.409 3.925-.773.496.813-.384c-.01-.061-.03-.101-.03-.112zm5.691.678a.95.95 0 0 1-.65-.263.907.907 0 0 1 0-1.285l3.527-3.51h-2.033a.91.91 0 0 1-.915-.911.91.91 0 0 1 .915-.911h4.258c.112 0 .224.03.326.07a.9.9 0 0 1 .305.203c.091.091.152.192.203.294.04.1.071.212.071.323v4.24c0 .506-.407.91-.915.91a.91.91 0 0 1-.915-.91V7.106l-3.526 3.511a.9.9 0 0 1-.65.263"/>
</svg>