<svg xmlns="http://www.w3.org/2000/svg" width="26" height="26" fill="currentColor" class="sym sym-phone-outgoing-solid" viewBox="0 0 26 26">
  <path d="M16.574 4.054a.86.86 0 0 0-.454.377l-.002.004c-.081.137-.095.198-.095.416s.014.28.095.417c.052.087.146.199.208.245.237.18.313.19 1.576.19h1.168l-1.905 1.899c-1.722 1.717-1.91 1.915-1.96 2.067a.83.83 0 0 0 .2.889c.239.236.56.309.894.199.152-.05.352-.237 2.079-1.95l1.91-1.894V8.07c0 .693.014 1.208.035 1.284a.9.9 0 0 0 .42.499.84.84 0 0 0 1.001-.147c.264-.263.256-.184.256-2.727s.008-2.464-.256-2.726c-.264-.263-.183-.255-2.756-.252-1.89.002-2.303.01-2.413.05zm-9.126.458c-.677.098-1.359.519-2.12 1.31C4.67 6.5 4.284 7.12 4.095 7.798c-.087.306-.096.394-.096.886 0 .64.043.84.428 1.993 1.674 5.006 5.473 8.889 10.499 10.73.45.17 1.039.352 1.64.503l.125.027c.729.159 1.695.005 2.386-.378.586-.327 1.425-1.075 1.872-1.668.405-.54.589-.993.629-1.557.061-.87-.267-1.567-1.152-2.448-.545-.542-.83-.763-1.252-.967a2.35 2.35 0 0 0-1.075-.256h-.048.003c-.762 0-1.36.273-1.98.899-.12.123-.24.224-.266.224-.07 0-.675-.312-1.087-.562-.833-.503-1.45-.992-2.213-1.75-.905-.902-1.66-1.935-2.174-2.974l-.13-.26.252-.268c.358-.38.504-.571.64-.84.179-.354.254-.688.254-1.13 0-.857-.306-1.45-1.216-2.352C9.42 4.943 8.92 4.641 8.28 4.53a2.3 2.3 0 0 0-.846-.015z"/>
</svg>