<svg xmlns="http://www.w3.org/2000/svg" width="26" height="26" fill="currentColor" class="sym sym-phone-call-solid" viewBox="0 0 26 26">
  <path d="M14.509 4.023a.87.87 0 0 0-.559.474l-.002.005c-.069.163-.057.486.022.65a.9.9 0 0 0 .749.468c.167 0 .863.163 1.254.293.998.33 1.867.88 2.628 1.663A6.4 6.4 0 0 1 20.345 11l.005.038c.088.527.108.59.236.745.317.382.958.364 1.26-.035.156-.208.186-.4.124-.818a8.05 8.05 0 0 0-2.342-4.617l-.001-.001a7.8 7.8 0 0 0-1.998-1.442l-.044-.02a8.2 8.2 0 0 0-2.495-.8l-.046-.007c-.379-.053-.391-.054-.536-.02zM7.296 5.295c-.647.093-1.299.495-2.027 1.25-.628.65-.997 1.242-1.178 1.89C4.01 8.727 4 8.81 4 9.28c0 .612.041.802.41 1.903 1.52 4.484 4.816 8.024 9.035 9.855l.105.04c.86.367 1.9.714 2.58.862.697.151 1.62.005 2.28-.362.56-.311 1.362-1.026 1.789-1.592.388-.517.563-.949.601-1.487.06-.831-.254-1.497-1.1-2.34-.521-.517-.794-.728-1.197-.923a2.25 2.25 0 0 0-1.073-.244h.002c-.728 0-1.3.26-1.891.858-.116.118-.231.215-.255.215-.067 0-.645-.299-1.04-.537-.795-.48-1.386-.948-2.114-1.673a10.7 10.7 0 0 1-2.036-2.757l-.169-.33.241-.255c.344-.366.483-.548.613-.804a2.24 2.24 0 0 0 .243-1.08c0-.82-.293-1.386-1.162-2.247-.684-.677-1.16-.965-1.772-1.07a2.2 2.2 0 0 0-.808-.016z"/>
  <path d="M14.492 7.276c-.524.159-.764.716-.505 1.17.139.243.294.344.686.444 1.22.313 2.105 1.193 2.422 2.407.046.178.106.357.132.397a.83.83 0 0 0 1.088.29.77.77 0 0 0 .421-.784c-.025-.283-.196-.827-.383-1.219a4.92 4.92 0 0 0-3.2-2.646l-.034-.007c-.322-.082-.48-.095-.626-.051"/>
</svg>