<svg xmlns="http://www.w3.org/2000/svg" width="26" height="26" fill="currentColor" class="sym sym-phone-hang-up-solid" viewBox="0 0 26 26">
  <path d="M7.528 4.028c-.693.1-1.39.533-2.17 1.345-.671.698-1.066 1.335-1.26 2.031-.089.315-.098.405-.098.91 0 .658.045.867.437 2.047a17.5 17.5 0 0 0 2.188 4.41l-.04-.06.35.52 2.045-2.04c1.909-1.906 2.04-2.046 1.998-2.112a13 13 0 0 1-.475-.85l-.04-.085-.115-.233.256-.274c.368-.39.516-.587.655-.862.183-.362.26-.706.26-1.161 0-.88-.313-1.49-1.243-2.416-.732-.728-1.242-1.038-1.897-1.151a2.4 2.4 0 0 0-.865-.016zm12.82.409c-.139.046-1.134 1.028-8.158 8.035-5.88 5.868-8.019 8.023-8.074 8.136a.86.86 0 0 0 .162 1 .86.86 0 0 0 .916.206c.156-.052.361-.245 2.135-2.008l1.963-1.953.368.316c2.035 1.744 4.515 3.046 7.065 3.703.904.233 1.746.149 2.56-.255.869-.433 2.02-1.559 2.436-2.383.176-.346.279-.755.279-1.187 0-.408-.091-.794-.256-1.14l.008.017c-.358-.75-1.48-1.87-2.225-2.226-.505-.24-1.213-.32-1.748-.196-.497.116-.854.326-1.345.8-.27.258-.337.306-.403.286-.131-.037-.966-.5-1.342-.743-.475-.319-.88-.62-1.27-.941l.027.022-.121-.105 4.05-4.05c3.72-3.717 4.057-4.062 4.109-4.221a.86.86 0 0 0-.205-.913.88.88 0 0 0-.936-.2l.006-.002z"/>
</svg>