<svg xmlns="http://www.w3.org/2000/svg" width="26" height="26" fill="currentColor" class="sym sym-phone-call" viewBox="0 0 26 26">
  <path d="M16.733 22c-.457 0-.771-.091-1.248-.223a16.4 16.4 0 0 1-7.088-4.146 16.3 16.3 0 0 1-4.163-7.05c-.132-.476-.224-.8-.234-1.254 0-.526.173-1.184.426-1.639.224-.394.498-.677.955-1.122l.122-.122c.487-.485.751-.748 1.117-.93a2.57 2.57 0 0 1 2.274 0c.356.172.62.435 1.097.91l.173.172c.294.293.487.475.63.708.547.84.547 1.912 0 2.751-.153.223-.336.405-.64.708l-.041.04v.02a11 11 0 0 0 2.122 2.964c.873.87 1.879 1.578 2.975 2.104h.02l.031-.02c.315-.314.498-.496.721-.638a2.52 2.52 0 0 1 2.752 0c.223.142.396.314.71.628l.163.161c.477.476.741.739.924 1.103a2.54 2.54 0 0 1 0 2.265c-.183.354-.447.627-.924 1.103l-.122.121c-.457.455-.73.729-1.127.951a3.7 3.7 0 0 1-1.635.425zM7.757 7.061a.7.7 0 0 0-.315.071c-.101.05-.335.283-.63.576l-.141.142c-.407.405-.559.556-.65.728a1.85 1.85 0 0 0-.193.739c0 .202.04.333.162.758a14.5 14.5 0 0 0 3.696 6.261 14.44 14.44 0 0 0 6.276 3.682c.447.12.579.161.771.161.214 0 .559-.09.742-.192.172-.09.325-.242.73-.647l.123-.121c.304-.304.538-.537.589-.638a.68.68 0 0 0 0-.627c-.051-.1-.285-.334-.59-.637l-.162-.162c-.193-.192-.355-.354-.416-.394a.69.69 0 0 0-.762 0c-.06.04-.213.192-.416.394a1.79 1.79 0 0 1-1.797.526c-.112-.03-.193-.07-.356-.141a12.9 12.9 0 0 1-3.483-2.458 12.8 12.8 0 0 1-2.467-3.47c-.071-.161-.112-.242-.142-.333a1.8 1.8 0 0 1 .243-1.497c.061-.081.132-.162.275-.304a5 5 0 0 0 .396-.414.69.69 0 0 0 0-.759c-.041-.06-.204-.222-.396-.414l-.163-.162c-.305-.304-.538-.536-.63-.587a.7.7 0 0 0-.324-.08zm10.104 5.128a.91.91 0 0 1-.894-.738 3.1 3.1 0 0 0-.853-1.598 3.14 3.14 0 0 0-1.604-.85.905.905 0 0 1-.721-1.072c.091-.496.579-.81 1.076-.718a5.04 5.04 0 0 1 2.549 1.345 4.95 4.95 0 0 1 1.36 2.539.918.918 0 0 1-.893 1.092zm3.218 0a.91.91 0 0 1-.903-.809 6.34 6.34 0 0 0-1.818-3.763 6.4 6.4 0 0 0-3.777-1.81.9.9 0 0 1-.803-1.001.9.9 0 0 1 1.006-.8 8.2 8.2 0 0 1 4.864 2.327 8.14 8.14 0 0 1 2.345 4.845.917.917 0 0 1-.802 1.011z"/>
</svg>