<svg xmlns="http://www.w3.org/2000/svg" width="26" height="26" fill="currentColor" class="sym sym-phone-incoming-02-solid" viewBox="0 0 26 26">
  <path d="M17.022 4.038a1 1 0 0 1-.154.051c-.008 0-.747.726-1.64 1.612-1.754 1.74-1.786 1.78-1.786 2.122s.034.383 1.769 2.103c1.214 1.204 1.643 1.609 1.76 1.66.319.144.713.052.963-.225a.78.78 0 0 0 .213-.539v-.017c0-.325-.032-.37-.93-1.268l-.842-.842 2.482-.01c2.758-.01 2.615.001 2.872-.242a.837.837 0 0 0-.013-1.246c-.25-.218-.119-.21-2.843-.21-1.367 0-2.486-.011-2.486-.025s.364-.386.809-.827c.884-.875.95-.965.95-1.295v-.004a.84.84 0 0 0-.466-.75l-.005-.002a.95.95 0 0 0-.654-.045M7.45 4.5c-.677.098-1.36.519-2.122 1.31-.657.68-1.043 1.3-1.232 1.98-.087.306-.096.393-.096.885 0 .641.043.84.428 1.995 1.675 5.01 5.476 8.895 10.504 10.738.45.17 1.04.352 1.64.503l.126.027c.73.159 1.695.005 2.387-.379.586-.326 1.425-1.075 1.872-1.668.406-.541.59-.994.63-1.558.062-.87-.267-1.568-1.153-2.45-.544-.543-.83-.764-1.252-.968a2.35 2.35 0 0 0-1.076-.256h-.047.002c-.762 0-1.361.273-1.98.9-.121.123-.241.224-.266.224-.07 0-.675-.312-1.088-.562-.833-.504-1.451-.993-2.214-1.752-.905-.902-1.662-1.936-2.175-2.976l-.13-.26.252-.268c.359-.38.504-.572.64-.84.18-.355.254-.69.254-1.131 0-.859-.306-1.452-1.216-2.354-.716-.71-1.215-1.011-1.855-1.122a2.3 2.3 0 0 0-.846-.015z"/>
</svg>