<svg xmlns="http://www.w3.org/2000/svg" width="26" height="26" fill="currentColor" class="sym sym-phone-incoming-02" viewBox="0 0 26 26">
  <path d="M17.363 22c-.478 0-.804-.092-1.292-.235a17.1 17.1 0 0 1-7.464-4.405 17.34 17.34 0 0 1-4.373-7.47C4.092 9.357 4 9.02 4 8.56c0-.561.183-1.246.447-1.716.234-.41.52-.705.987-1.176l.132-.132c.54-.532.803-.798 1.17-.982a2.57 2.57 0 0 1 2.349 0c.356.184.62.44 1.098.92l.224.225c.346.358.529.532.671.767a2.63 2.63 0 0 1-.01 2.84c-.122.205-.305.39-.59.675l-.773-.52.661.633v.082h.01a11.3 11.3 0 0 0 2.238 3.157c.925.93 1.983 1.687 3.152 2.249l.05.03s.052-.04.082-.081l.061-.062c.275-.286.448-.45.672-.592a2.62 2.62 0 0 1 2.847 0c.203.132.366.286.61.531l.295.296c.488.491.763.767.956 1.125.376.776.376 1.655.02 2.38-.213.4-.488.675-.976 1.176l-.132.133c-.478.49-.773.767-1.19 1.012-.468.266-1.15.45-1.698.45zM7.895 6.118a.8.8 0 0 0-.346.082c-.112.051-.335.276-.64.582l-.173.174c-.438.44-.59.603-.702.787a2 2 0 0 0-.203.807c0 .205.03.338.152.757a15.5 15.5 0 0 0 3.925 6.735 15.25 15.25 0 0 0 6.641 3.924c.478.133.61.174.824.174.224 0 .6-.092.793-.204.193-.113.356-.266.793-.695l.133-.133c.345-.358.58-.593.65-.726.092-.184.092-.47-.02-.695-.05-.092-.285-.327-.63-.674l-.275-.276c-.153-.143-.275-.276-.325-.307a.765.765 0 0 0-.855 0c-.06.041-.203.184-.366.348l-.081.081c-.153.143-.214.205-.285.256a1.79 1.79 0 0 1-1.566.286 3 3 0 0 1-.366-.153 12.9 12.9 0 0 1-3.651-2.606 13.3 13.3 0 0 1-2.593-3.68c-.061-.133-.122-.255-.163-.419-.132-.5-.03-1.052.265-1.471.05-.082.111-.143.213-.256l.132-.133c.153-.153.305-.316.346-.368a.79.79 0 0 0 .01-.878c-.04-.072-.203-.236-.356-.389l-.234-.235c-.356-.347-.58-.572-.681-.623a.7.7 0 0 0-.356-.082zm2.41 3.966-.773.5.814-.388c-.01-.062-.03-.102-.03-.112zm6.976 1.543a.95.95 0 0 1-.65-.266l-2.98-2.984s-.082-.092-.112-.143c0 0-.02-.051-.03-.072a1 1 0 0 1-.072-.347c0-.123.02-.246.072-.348 0-.03.02-.051.03-.071 0 0 .071-.103.112-.143l2.98-2.985a.91.91 0 0 1 1.291 0 .92.92 0 0 1 0 1.298l-1.413 1.42h4.576c.508 0 .915.41.915.92 0 .512-.407.92-.915.92h-4.576l1.413 1.421a.92.92 0 0 1 0 1.298.9.9 0 0 1-.65.266z"/>
</svg>