<svg xmlns="http://www.w3.org/2000/svg" width="26" height="26" fill="currentColor" class="sym sym-phone-incoming-solid" viewBox="0 0 26 26">
  <path d="M20.84 4.053c-.131.045-.427.324-2.064 1.948l-1.91 1.894v-1.16c0-1.325-.01-1.389-.257-1.634a.84.84 0 0 0-1.006-.144l.005-.002a.9.9 0 0 0-.417.492l-.002.006c-.023.082-.036.933-.036 2.378 0 2.54-.008 2.462.256 2.725.263.262.184.254 2.742.254s2.479.008 2.742-.254a.833.833 0 0 0 0-1.195c-.246-.245-.31-.255-1.642-.255h-1.166l1.905-1.9c1.723-1.718 1.91-1.915 1.961-2.067a.858.858 0 0 0-1.115-1.084l.006-.002zm-13.39.454c-.678.098-1.36.519-2.122 1.31-.657.68-1.043 1.3-1.232 1.978C4.009 8.1 4 8.189 4 8.68c0 .64.043.84.428 1.993 1.675 5.008 5.475 8.892 10.503 10.734.45.17 1.039.352 1.64.503l.125.027c.73.159 1.695.005 2.387-.379.586-.326 1.425-1.074 1.872-1.667.406-.541.59-.994.63-1.558.061-.87-.267-1.567-1.153-2.449-.545-.542-.83-.763-1.252-.967a2.35 2.35 0 0 0-1.076-.256h-.047.002c-.762 0-1.36.273-1.98.899-.12.123-.24.225-.266.225-.07 0-.675-.313-1.088-.562-.832-.504-1.45-.993-2.213-1.752-.905-.901-1.662-1.935-2.175-2.974l-.13-.26.252-.268c.359-.38.504-.572.64-.84.18-.355.254-.689.254-1.13 0-.859-.306-1.452-1.216-2.353-.716-.71-1.215-1.011-1.855-1.122a2.3 2.3 0 0 0-.846-.015z"/>
</svg>