<svg xmlns="http://www.w3.org/2000/svg" width="26" height="26" fill="currentColor" class="sym sym-pin-02" viewBox="0 0 26 26">
  <path d="M3.867 22.98a.9.9 0 0 1-.615-.249.863.863 0 0 1 0-1.219l4.822-4.817-2.795-2.793c-.768-.768-1.191-1.19-1.278-1.795a1.8 1.8 0 0 1 .442-1.459c.413-.46 1-.575 2.066-.787l3.515-.7a3 3 0 0 0 .192-.039c.039-.028.077-.067.145-.134l1.508-1.507.086-.086c.01-.029.029-.058.048-.115l1.028-2.4c.355-.825.547-1.285 1.009-1.583a1.8 1.8 0 0 1 1.364-.26c.538.106.893.462 1.527 1.105l4.937 4.933c.625.623.99.988 1.096 1.526.096.48 0 .96-.26 1.362-.298.46-.759.653-1.585 1.008l-2.603 1.17-1.498 1.498c-.068.067-.116.106-.145.144-.01.048-.019.106-.038.192l-.701 3.522c-.212 1.075-.337 1.66-.788 2.063a1.85 1.85 0 0 1-1.46.442c-.605-.086-1.028-.5-1.787-1.267l-2.805-2.802-4.822 4.817a.86.86 0 0 1-.615.25zm9.231-14.29L11.6 10.189a3 3 0 0 1-.365.326 1.5 1.5 0 0 1-.384.202 3.4 3.4 0 0 1-.442.115l-3.555.71c-.509.105-1.027.201-1.152.278.067.106.442.48.807.845l6.81 6.804c.375.375.74.74.874.806.058-.115.154-.633.26-1.132l.71-3.532c.048-.25.077-.364.125-.49.039-.114.106-.24.192-.364.087-.115.164-.211.337-.384l1.498-1.497c.115-.115.173-.163.23-.22.078-.058.154-.116.231-.154.058-.039.135-.077.288-.135l2.392-1.027c.375-.163.769-.326.855-.403-.057-.096-.346-.393-.624-.671L15.73 5.312c-.288-.288-.586-.585-.691-.643-.077.087-.24.48-.404.855l-1.028 2.39c-.057.143-.096.21-.134.278-.048.086-.106.163-.154.23a1.7 1.7 0 0 1-.23.24z"/>
</svg>