<svg xmlns="http://www.w3.org/2000/svg" width="26" height="26" fill="currentColor" class="sym sym-pin-02-solid" viewBox="0 0 26 26">
  <path d="M14.527 3.045a1.8 1.8 0 0 0-1.07.794l-.004.008c-.17.27-.381.734-1.108 2.443l-.474 1.112-1.674 1.666-2.246.448c-2.22.442-2.692.554-3.026.725-.742.379-1.13 1.334-.876 2.158.136.438.369.71 2.194 2.543l1.725 1.732-2.4 2.397c-1.394 1.393-2.432 2.461-2.48 2.55-.12.22-.117.621.005.867a.96.96 0 0 0 1.037.49c.106-.024.264-.094.351-.156.088-.06 1.212-1.165 2.5-2.453l2.339-2.343 1.732 1.724c.953.949 1.844 1.803 1.982 1.9.348.245.601.337.99.361.242.014.385.003.552-.046.683-.197 1.084-.58 1.319-1.26.059-.172.311-1.336.565-2.61l.46-2.298 1.678-1.684 1.451-.62a59 59 0 0 0 1.737-.762c.805-.4 1.168-.904 1.21-1.68a1.7 1.7 0 0 0-.305-1.107l.003.006c-.109-.165-1.09-1.178-3.055-3.15-1.593-1.598-3.05-3.042-3.239-3.209a3.4 3.4 0 0 0-.602-.43l-.017-.01c-.255-.126-.308-.137-.666-.149-.262-.008-.453.006-.588.043"/>
</svg>