<svg xmlns="http://www.w3.org/2000/svg" width="26" height="26" fill="currentColor" class="sym sym-pin-solid" viewBox="0 0 26 26">
  <path d="M8.188 2.026a3 3 0 0 0-.513.117l.02-.006c-.78.273-1.343 1.123-1.275 1.925.033.381.162.752.883 2.538l.642 1.591v2.453L6.777 12.09c-1.564 1.938-1.724 2.193-1.772 2.808-.056.707.37 1.488.99 1.816.496.26.485.26 3.375.276l2.619.016v3.07c0 1.992.015 3.123.042 3.22.062.22.276.474.495.585A1 1 0 0 0 13 24a1 1 0 0 0 .708-.291c.315-.312.303-.165.303-3.631v-3.073l2.619-.016c2.89-.016 2.88-.016 3.374-.276.62-.328 1.046-1.108.991-1.815-.046-.614-.217-.883-1.803-2.85l-1.137-1.406V8.194l.642-1.595c.354-.877.692-1.747.752-1.933.2-.625.181-1.027-.07-1.56-.148-.313-.564-.742-.849-.877-.489-.232-.202-.22-5.348-.228-2.603-.004-4.85.007-4.995.024"/>
</svg>