<svg xmlns="http://www.w3.org/2000/svg" width="26" height="26" fill="currentColor" class="sym sym-pin" viewBox="0 0 26 26">
  <path d="M13.01 24a.91.91 0 0 1-.922-.907v-6.15H8.227c-1.301 0-1.957 0-2.49-.414A1.89 1.89 0 0 1 5 15.027c0-.676.41-1.17 1.219-2.178l1.608-1.986c.072-.091.113-.142.144-.192.01-.06 0-.131 0-.252l-.052-2.41-1.034-2.55c-.359-.878-.553-1.362-.44-1.926.102-.505.399-.928.829-1.21C7.766 2 8.298 2 9.261 2h7.447c.963 0 1.496 0 1.987.323.43.282.727.716.83 1.21.123.564-.072 1.038-.43 1.915l-1.086 2.813v2.38c.041.06.082.12.154.201l1.608 1.976c.809 1.009 1.219 1.503 1.229 2.178 0 .585-.266 1.14-.727 1.503-.533.413-1.189.413-2.49.413h-3.861v6.15a.91.91 0 0 1-.922.908zM9.282 3.835c-.44 0-.891 0-1.004.04.01.121.174.525.338.928l1.034 2.54c.062.162.093.243.113.323s.041.182.051.283c0 .09.01.171.01.332v2.148c0 .302 0 .444-.04.585a2 2 0 0 1-.175.494 3 3 0 0 1-.348.494l-1.608 1.976c-.39.474-.779.958-.83 1.12.144.03.779.03 1.393.03h9.568c.614 0 1.25 0 1.403-.061-.072-.131-.461-.615-.85-1.089l-1.608-1.976a2.4 2.4 0 0 1-.349-.494 2 2 0 0 1-.174-.484c-.04-.182-.04-.343-.04-.595V8.281c0-.171 0-.262.01-.342q.015-.152.06-.303c.011-.05.042-.131.103-.292l1.035-2.541c.164-.403.328-.807.338-.938-.113-.03-.564-.03-1.004-.03H9.261z"/>
</svg>