<svg xmlns="http://www.w3.org/2000/svg" width="26" height="26" fill="currentColor" class="sym sym-placeholder-solid" viewBox="0 0 26 26">
  <path d="M6.894 4.69c-.944.123-1.619.562-1.945 1.266-.255.551-.27.668-.29 2.157L4.644 9.44h1.444l.02-1.141c.02-1.253.039-1.384.25-1.673q.116-.153.263-.264l.003-.003c.29-.21.422-.231 1.655-.25L9.4 6.09V4.65l-1.14.006c-.628.003-1.243.017-1.366.034m3.73 1.409h4.75V4.65h-4.75zM16.6 6.09l1.122.018c.932.014 1.154.028 1.308.08.383.132.632.374.767.747.074.203.081.311.097 1.363l.018 1.141h1.444l-.016-1.327c-.014-1.218-.022-1.351-.095-1.624q-.258-.95-.95-1.388c-.292-.184-.445-.248-.82-.346-.264-.069-.436-.078-1.586-.094l-1.29-.017zM4.65 15.343h1.446v-4.678H4.65zm15.253 0h1.447v-4.678h-1.447zM4.658 17.895c.014 1.221.022 1.35.097 1.624.123.452.3.79.554 1.06.26.278.525.448.906.581.458.16.834.196 2.063.197H9.4v-1.441l-1.14-.014c-1.094-.014-1.151-.019-1.363-.102-.279-.111-.545-.356-.65-.602-.112-.26-.148-.681-.148-1.73l-.001-.9H4.644l.016 1.327zm15.236-.186c-.016 1.045-.024 1.16-.095 1.358a1.16 1.16 0 0 1-.422.582l-.004.002c-.294.213-.42.231-1.65.247l-1.123.015v1.442h1.123c1.229 0 1.604-.036 2.063-.197.755-.264 1.232-.799 1.46-1.64.075-.274.081-.407.095-1.625l.016-1.327h-1.444l-.017 1.14zm-9.27 3.647h4.75V19.91h-4.75z"/>
</svg>