<svg xmlns="http://www.w3.org/2000/svg" width="26" height="26" fill="currentColor" class="sym sym-placeholder" viewBox="0 0 26 26">
  <path d="M4.643 9.422V7.455c0-.938.232-1.643.706-2.107.483-.473 1.19-.705 2.146-.705h1.896V6.1H7.514q-.681 0-1.04.362c-.242.232-.363.594-.363 1.058v1.893H4.652zM10.636 6.1V4.643h4.729V6.1zm9.263 1.43c0-.474-.121-.827-.372-1.059-.242-.241-.585-.362-1.04-.362H16.61V4.652h1.895c.948 0 1.663.232 2.137.705.474.464.715 1.17.715 2.107v1.968H19.9zm0 7.795v-4.66h1.458v4.66zm-3.29 4.566h1.877c.446 0 .79-.12 1.041-.353.25-.241.372-.603.372-1.067v-1.893h1.458v1.967c0 .937-.241 1.643-.715 2.107-.474.473-1.19.705-2.137.705H16.61zm-5.973 1.457V19.89h4.729v1.457zm-3.14 0c-.948 0-1.664-.232-2.147-.706-.474-.463-.706-1.169-.706-2.106v-1.968h1.459v1.894q0 .707.362 1.067c.242.232.595.352 1.04.352h1.877v1.457H7.486zm-2.853-6.023v-4.66h1.459v4.66z"/>
</svg>