<svg xmlns="http://www.w3.org/2000/svg" width="26" height="26" fill="currentColor" class="sym sym-plane" viewBox="0 0 26 26">
  <path d="M9.714 24a2 2 0 0 1-.848-.193c-.47-.223-.735-.618-1.175-1.268l-1.788-2.586-2.421-1.603c-.665-.436-1.063-.7-1.288-1.176a1.93 1.93 0 0 1-.133-1.329c.133-.507.47-.842 1.032-1.4l.205-.203c.224-.223.388-.385.623-.517.194-.111.419-.192.654-.223.255-.04.48-.02.807.02l1.686.183c.163.02.245.04.337.03.072-.05.143-.121.245-.233l2.37-2.353-4.75-1.572c-.981-.325-1.523-.507-1.89-.994a1.88 1.88 0 0 1-.348-1.481c.102-.599.51-.994 1.236-1.714l.389-.386c.286-.274.46-.446.715-.588.235-.122.49-.193.746-.213.296-.02.541.03.91.122l7.621 1.744c.174.04.287.071.368.081.082-.05.154-.131.276-.253l2.78-2.85A3.45 3.45 0 0 1 20.523 2h.031c.92 0 1.788.355 2.442 1.004a3.433 3.433 0 0 1 .051 4.798l-2.84 2.951c-.123.132-.204.203-.256.274 0 .091.031.193.072.365L21.79 19c.093.385.144.618.123.912a1.9 1.9 0 0 1-.214.74c-.133.264-.317.437-.583.7l-.378.376c-.725.72-1.134 1.126-1.737 1.227A2 2 0 0 1 17.5 22.6c-.49-.365-.674-.902-1.001-1.876l-1.584-4.717-2.37 2.353c-.113.112-.184.173-.225.234 0 .091 0 .182.02.334l.194 1.694c.031.315.062.548.02.802-.04.233-.112.446-.224.649-.133.233-.296.395-.521.619l-.204.202c-.552.558-.9.893-1.41 1.025q-.246.06-.49.06zm-4.843-8.692h-.02c-.072.05-.143.121-.245.233l-.205.203c-.245.243-.52.517-.562.608.072.081.388.294.675.487l2.4 1.593c.154.1.225.152.287.202.071.061.153.142.225.224.05.05.102.121.183.253l1.615 2.404c.204.304.409.608.49.67.092-.051.368-.325.613-.558l.205-.203c.112-.112.184-.173.225-.244 0-.091 0-.182-.031-.334l-.184-1.674c-.04-.345-.061-.548-.02-.801a1.8 1.8 0 0 1 .235-.65c.122-.223.275-.375.51-.608l3.423-3.398a.93.93 0 0 1 .859-.243.94.94 0 0 1 .664.598l2.053 6.116c.154.447.307.913.389 1.015.112-.061.46-.406.797-.74l.378-.376c.133-.132.214-.203.265-.274 0-.102-.03-.203-.071-.365l-1.768-7.618c-.082-.365-.143-.598-.122-.892a1.8 1.8 0 0 1 .204-.73c.133-.254.296-.426.562-.7l2.84-2.952a1.596 1.596 0 0 0-.03-2.241c-.307-.305-.726-.508-1.155-.467-.44 0-.848.172-1.144.487l-2.77 2.84c-.265.274-.438.446-.694.588a1.95 1.95 0 0 1-.787.233c-.296.02-.541-.04-.91-.121L6.63 6.128c-.174-.04-.286-.07-.378-.081-.082.05-.154.132-.276.254l-.399.395c-.337.335-.684.68-.746.801.102.071.572.224 1.022.376l6.161 2.038a.9.9 0 0 1 .603.66.9.9 0 0 1-.245.852L8.948 14.81c-.225.224-.388.386-.623.518a1.9 1.9 0 0 1-.654.223c-.266.04-.48.02-.818-.02l-1.686-.183a2 2 0 0 0-.306-.03z"/>
</svg>