<svg xmlns="http://www.w3.org/2000/svg" width="26" height="26" fill="currentColor" class="sym sym-plane-solid" viewBox="0 0 26 26">
  <path d="M19.919 2.025a3.94 3.94 0 0 0-1.595.696l.01-.007c-.118.09-.924.888-1.787 1.774-1.57 1.61-1.57 1.61-1.7 1.576-.072-.019-1.925-.448-4.119-.953-3.872-.891-4-.917-4.413-.917-.506.003-.74.074-1.184.365-.61.4-1.787 1.71-1.993 2.22-.382.947.051 2.019 1.004 2.48.173.085 1.521.553 2.995 1.043s2.689.897 2.699.906c.01.008-.528.558-1.195 1.22l-1.213 1.205-1.053-.12a18 18 0 0 0-1.37-.12l-.047-.002c-.782-.004-1.213.256-2.185 1.316-.486.529-.681.874-.755 1.328a1.96 1.96 0 0 0 .508 1.6l-.001-.002c.267.279.983.795 2.01 1.45 1.457.93 1.44.918 1.647 1.225.103.152.449.683.769 1.18.64.993 1.17 1.724 1.436 1.98.377.365.829.538 1.387.532.69-.007 1.007-.187 1.927-1.099.554-.547.65-.664.78-.93.248-.514.26-.714.112-2.005a23 23 0 0 1-.119-1.144l-.007-.105c0-.14.064-.21 1.193-1.334.657-.652 1.2-1.178 1.208-1.168.01.01.412 1.196.895 2.636.484 1.443.959 2.787 1.057 2.993.291.61.703.954 1.334 1.114a1.9 1.9 0 0 0 1.369-.17c.268-.144 1.192-.926 1.573-1.328.357-.379.579-.696.723-1.038.09-.212.102-.297.1-.704-.002-.459-.012-.508-.899-4.31l-.955-4.094-.057-.245 1.557-1.627c.858-.896 1.64-1.731 1.74-1.86.427-.55.655-1.195.69-1.946.025-.575-.043-.987-.249-1.492-.427-1.048-1.405-1.855-2.533-2.093-.244-.051-1.055-.07-1.296-.03z"/>
</svg>