<svg xmlns="http://www.w3.org/2000/svg" width="26" height="26" fill="currentColor" class="sym sym-play-solid" viewBox="0 0 26 26">
  <path d="M7.27 4.055c-.324.095-.6.275-.813.514l-.001.001c-.226.246-.32.438-.41.831-.061.264-.061 14.935 0 15.198.09.393.184.585.41.831.559.609 1.297.736 2.054.352.125-.063 2.586-1.73 5.47-3.706 4.57-3.132 5.275-3.626 5.504-3.863.355-.366.516-.745.516-1.213 0-.467-.16-.847-.516-1.213-.229-.235-.93-.728-5.505-3.86-2.883-1.976-5.35-3.645-5.48-3.71-.438-.219-.831-.271-1.23-.162"/>
</svg>