<svg xmlns="http://www.w3.org/2000/svg" width="26" height="26" fill="currentColor" class="sym sym-play" viewBox="0 0 26 26">
  <path d="M7.73 22h-.088a1.73 1.73 0 0 1-1.288-.708C6 20.816 6 20.25 6 19.218V6.795c0-1.031 0-1.598.354-2.083a1.73 1.73 0 0 1 1.288-.709c.58-.04 1.043.284 1.879.85l9.058 6.212c.678.465 1.092.748 1.288 1.254.177.435.177.94 0 1.376-.197.495-.61.779-1.288 1.244L9.52 21.15c-.787.547-1.24.85-1.79.85m.04-16.145v13.353c0 .364 0 .738.02.94.118-.08.433-.303.747-.515l9.058-6.211c.227-.162.463-.314.59-.425-.127-.101-.363-.263-.59-.425L8.537 6.36c-.295-.202-.6-.414-.767-.505"/>
</svg>