<svg xmlns="http://www.w3.org/2000/svg" width="26" height="26" fill="currentColor" class="sym sym-plus-solid" viewBox="0 0 26 26">
  <path d="M12.655 5.06a1 1 0 0 0-.531.443l-.002.004-.111.19-.022 6.305H8.91c-3.344 0-3.257-.006-3.556.222a1.2 1.2 0 0 0-.24.283l-.003.006c-.095.16-.111.233-.111.489s.016.328.111.49c.061.102.17.233.244.288.298.228.21.222 3.557.222h3.08v3.073c0 1.992.015 3.124.042 3.221.06.22.273.474.49.585a.984.984 0 0 0 1.171-.173c.312-.311.3-.164.3-3.631V14h3.078c3.468 0 3.322.013 3.633-.299a.983.983 0 0 0 0-1.403c-.311-.312-.165-.3-3.633-.3h-3.078V8.924c0-3.465.012-3.32-.3-3.63a1 1 0 0 0-1.045-.235l.006-.002z"/>
</svg>