<svg xmlns="http://www.w3.org/2000/svg" width="26" height="26" fill="currentColor" class="sym sym-plus-square-solid" viewBox="0 0 26 26">
  <path fill-rule="evenodd" d="M5.901 3.01c-.895.076-1.483.327-2.015.859-.49.491-.758 1.065-.841 1.808-.06.538-.06 14.091 0 14.628.058.523.197.942.431 1.297.527.803 1.252 1.245 2.217 1.353.537.06 14.077.06 14.614 0 .965-.108 1.69-.55 2.217-1.353.234-.355.372-.774.431-1.297.06-.537.06-14.09 0-14.628-.058-.522-.197-.941-.431-1.296q-.68-1.036-1.865-1.307c-.25-.057-1.04-.066-7.439-.07a1017 1017 0 0 0-7.565.008h.248zm7.438 5.044c.252.087.507.341.594.594.057.168.066.408.066 1.768v1.574h1.572c1.79 0 1.836.006 2.128.3a.984.984 0 0 1 0 1.403c-.292.293-.339.3-2.128.3H14v1.574c0 1.79-.006 1.837-.3 2.13a.98.98 0 0 1-1.402 0c-.293-.293-.299-.34-.299-2.13v-1.575h-1.572c-1.79 0-1.836-.006-2.128-.299a.984.984 0 0 1 0-1.403c.292-.294.339-.3 2.128-.3h1.572v-1.574c0-1.791.006-1.836.3-2.13a.97.97 0 0 1 1.047-.23z"/>
</svg>