<svg xmlns="http://www.w3.org/2000/svg" width="26" height="26" fill="currentColor" class="sym sym-plus-circle" viewBox="0 0 26 26">
  <path d="M13 24C6.935 24 2 19.065 2 13S6.935 2 13 2s11 4.935 11 11-4.935 11-11 11m0-20.183c-5.066 0-9.183 4.117-9.183 9.183S7.934 22.183 13 22.183s9.183-4.117 9.183-9.183S18.066 3.817 13 3.817m0 14.128a.905.905 0 0 1-.908-.908v-3.129H8.963A.905.905 0 0 1 8.055 13c0-.505.404-.908.908-.908h3.129V8.963c0-.504.403-.908.908-.908s.908.404.908.908v3.129h3.129c.504 0 .908.403.908.908a.905.905 0 0 1-.908.908h-3.129v3.129a.905.905 0 0 1-.908.908"/>
</svg>