<svg xmlns="http://www.w3.org/2000/svg" width="26" height="26" fill="currentColor" class="sym sym-podcast-solid" viewBox="0 0 26 26">
  <path d="M12.386 3.021a9.1 9.1 0 0 0-4.95 1.869l.022-.017c-.558.445-1.05.926-1.491 1.453l-.013.015C4.644 7.981 4.003 9.803 4 11.883c-.002 2.014.57 3.7 1.826 5.389.47.63 1.673 1.736 2.165 1.989a.92.92 0 0 0 .826-.03.91.91 0 0 0 .442-.917c-.051-.29-.185-.461-.607-.776a9 9 0 0 1-1.412-1.373 7.1 7.1 0 0 1-1.332-2.888L5.9 13.23c-.114-.546-.156-1.563-.088-2.116a7.13 7.13 0 0 1 3.334-5.229c2.308-1.445 5.399-1.445 7.707 0a7.14 7.14 0 0 1 3.335 5.23c.067.55.024 1.565-.09 2.115a7.2 7.2 0 0 1-1.351 2.95l.011-.015a9 9 0 0 1-1.412 1.373c-.422.314-.556.485-.606.776a.91.91 0 0 0 .442.916c.247.14.587.153.825.03.492-.252 1.691-1.355 2.167-1.99 1.006-1.346 1.578-2.745 1.784-4.368.07-.545.05-1.666-.038-2.267a8.7 8.7 0 0 0-2.588-5.068c-.725-.708-1.416-1.19-2.38-1.66A8.9 8.9 0 0 0 13.003 3q-.327 0-.646.023z"/>
  <path d="M12.482 6.661a5.4 5.4 0 0 0-3.384 1.597v.001c-.891.902-1.37 1.931-1.478 3.182a5.15 5.15 0 0 0 .246 2.053l-.01-.036a5.4 5.4 0 0 0 1.01 1.757c.357.4.506.486.847.486.509 0 .88-.374.88-.887 0-.294-.068-.432-.385-.794a3.26 3.26 0 0 1-.598-3.356c.336-.854 1.047-1.569 1.926-1.936.525-.22.773-.265 1.463-.265.537 0 .676.013.922.08.752.205 1.336.555 1.822 1.09a3.26 3.26 0 0 1 .048 4.386c-.317.362-.384.5-.384.794 0 .513.37.887.88.887.34 0 .49-.086.847-.486a5.07 5.07 0 0 0 1.245-3.793l.002.019c-.106-1.239-.593-2.284-1.479-3.182-.936-.946-2.078-1.477-3.439-1.598a4 4 0 0 0-.98 0z"/>
  <path d="M12.693 10.303c-.312.046-.718.26-.96.504-.86.868-.617 2.353.472 2.89.232.12.506.19.797.19a1.78 1.78 0 0 0 1.593-.991l.005-.01a1.803 1.803 0 0 0-1.908-2.582zm-.143 5.457c-.934.17-1.756.85-2.077 1.716-.162.435-.181.641-.181 1.881-.001 1.284.021 1.499.21 1.965a2.78 2.78 0 0 0 1.44 1.463l.018.007c.306.132.662.208 1.037.208 1.308 0 2.4-.936 2.651-2.18l.003-.017c.08-.39.08-2.487 0-2.878a2.66 2.66 0 0 0-.965-1.593l-.006-.004a3.2 3.2 0 0 0-.976-.51l-.023-.006c-.239-.066-.89-.096-1.13-.051"/>
</svg>