<svg xmlns="http://www.w3.org/2000/svg" width="26" height="26" fill="currentColor" class="sym sym-podcast" viewBox="0 0 26 26">
  <path d="M13.02 23c-1.496 0-2.71-1.226-2.71-2.738v-1.818c0-1.511 1.214-2.737 2.71-2.737 1.497 0 2.71 1.226 2.71 2.737v1.819c0 1.511-1.213 2.737-2.71 2.737m0-5.444a.896.896 0 0 0-.89.899v1.818a.89.89 0 1 0 1.78 0v-1.818a.896.896 0 0 0-.89-.9m4.601 1.818a.926.926 0 0 1-.516-1.685 7.02 7.02 0 0 0 3.085-5.792c0-3.892-3.226-7.058-7.18-7.058s-7.18 3.166-7.18 7.058a7.02 7.02 0 0 0 3.085 5.792.926.926 0 0 1 .242 1.276.905.905 0 0 1-1.264.245C5.456 17.546 4 14.808 4 11.898 4 6.994 8.035 3 13 3s9 3.994 9 8.897c0 2.911-1.456 5.649-3.893 7.313a.93.93 0 0 1-.506.164zm-1.324-3.636a.916.916 0 0 1-.637-1.563 3.3 3.3 0 0 0 .96-2.309c0-1.87-1.608-3.391-3.58-3.391s-3.58 1.522-3.58 3.391c0 .848.344 1.675.961 2.309a.925.925 0 0 1 0 1.297.91.91 0 0 1-1.284 0 5.12 5.12 0 0 1-1.486-3.596c0-2.88 2.427-5.23 5.4-5.23s5.4 2.35 5.4 5.23a5.12 5.12 0 0 1-1.487 3.596.9.9 0 0 1-.647.276zm-3.277-1.819a1.82 1.82 0 0 1-1.81-1.828c0-1.011.81-1.828 1.81-1.828s1.81.817 1.81 1.828a1.82 1.82 0 0 1-1.81 1.828m-.01-1.828.01.01h.9z"/>
</svg>