<svg xmlns="http://www.w3.org/2000/svg" width="26" height="26" fill="currentColor" class="sym sym-printer" viewBox="0 0 26 26">
  <path d="M10.211 24c-1.249 0-1.929 0-2.584-.334a3.1 3.1 0 0 1-1.348-1.348c-.31-.606-.334-1.237-.334-2.288a4 4 0 0 1-.928-.123 4.09 4.09 0 0 1-2.881-2.882C2 16.505 2 16 2 14.972v-2.176c0-1.78 0-2.758.445-3.636a4.13 4.13 0 0 1 1.781-1.78c.495-.26 1.039-.36 1.731-.409v-.705c0-1.249 0-1.929.334-2.584A3.1 3.1 0 0 1 7.64 2.334C8.307 2 8.987 2 10.236 2h5.54c1.25 0 1.93 0 2.585.334a3.1 3.1 0 0 1 1.348 1.348c.334.668.334 1.348.334 2.597v.705c.692.05 1.236.148 1.731.408a4.13 4.13 0 0 1 1.78 1.78c.446.879.446 1.855.446 3.636v2.177c0 1.014 0 1.533-.136 2.053a4.09 4.09 0 0 1-2.881 2.881 4 4 0 0 1-.928.124c0 1.05-.025 1.681-.334 2.275a3.1 3.1 0 0 1-1.348 1.348c-.668.334-1.348.334-2.597.334zM8.16 19.721c0 .78 0 1.398.098 1.583.087.16.21.297.384.383.185.087.804.087 1.583.087h5.54c.779 0 1.397 0 1.583-.099a.9.9 0 0 0 .383-.383c.1-.186.1-.804.1-1.583v-1.583c0-.816 0-1.398-.1-1.583a.8.8 0 0 0-.383-.371c-.186-.099-.804-.099-1.583-.099h-5.54c-.78 0-1.398 0-1.583.099a.95.95 0 0 0-.384.383c-.098.186-.098.767-.098 1.583zm2.052-5.861h5.54c1.25 0 1.93 0 2.598.333a3.1 3.1 0 0 1 1.347 1.348c.31.606.334 1.225.334 2.251.149 0 .272-.025.359-.05a1.85 1.85 0 0 0 1.31-1.31c.063-.235.063-.705.063-1.472v-2.176c0-1.435 0-2.226-.198-2.622a1.83 1.83 0 0 0-.816-.804c-.396-.198-1.188-.198-2.622-.198H7.837c-1.435 0-2.226 0-2.622.198a1.78 1.78 0 0 0-.804.816c-.197.396-.197 1.188-.197 2.622v2.176c0 .767 0 1.237.061 1.472a1.85 1.85 0 0 0 1.311 1.31c.087.026.21.038.359.05 0-1.038.037-1.657.334-2.25a3.02 3.02 0 0 1 1.348-1.348c.655-.334 1.348-.334 2.584-.334zM8.16 6.934h9.645v-.668c0-.779 0-1.397-.098-1.582a.9.9 0 0 0-.384-.384c-.185-.086-.804-.086-1.583-.086H10.2c-.78 0-1.397 0-1.583.099a.9.9 0 0 0-.383.383c-.1.185-.1.804-.1 1.583v.668zm10.758 5.689H15.95a1.11 1.11 0 0 1-1.113-1.113c0-.618.495-1.113 1.113-1.113h2.968c.619 0 1.113.495 1.113 1.113s-.494 1.113-1.113 1.113"/>
</svg>