<svg xmlns="http://www.w3.org/2000/svg" width="26" height="26" fill="currentColor" class="sym sym-printer-solid" viewBox="0 0 26 26">
  <path fill-rule="evenodd" d="M8.897 2.01c-.385.034-.778.11-1.011.198-.756.284-1.47 1.026-1.707 1.775-.138.44-.183.942-.183 2.058v.975l-.33.028c-1.289.107-2.331.716-3.01 1.756-.62.954-.676 1.392-.652 5.212.015 2.498.02 2.615.102 2.922.288 1.086.928 1.95 1.85 2.5.516.305 1.073.477 1.75.543l.29.026v.459c0 .999.14 1.632.474 2.14.528.803 1.253 1.245 2.219 1.354.528.059 8.094.059 8.622 0 .965-.108 1.69-.55 2.218-1.353.334-.508.474-1.142.474-2.14v-.456l.414-.047c.851-.095 1.516-.374 2.159-.905.633-.522 1.07-1.226 1.317-2.121.086-.312.088-.387.103-2.922.023-3.82-.032-4.259-.654-5.212-.678-1.041-1.72-1.65-3.01-1.756l-.33-.028v-.975c0-1.116-.044-1.618-.182-2.058-.232-.73-.93-1.47-1.663-1.76-.542-.216-.45-.211-4.937-.22a363 363 0 0 0-4.467.007zm8.478 2.051c.2.066.487.355.549.552.029.096.055.573.067 1.265l.02 1.11H7.997v-.91c.003-1.095.04-1.449.18-1.66.147-.222.365-.35.666-.39.14-.018 2.083-.03 4.316-.026 3.188.006 4.095.018 4.216.06m2.001 6.504c.19.079.417.291.517.481.065.123.087.234.087.444 0 .331-.088.53-.33.75-.277.249-.29.251-2.15.251-1.858 0-1.871-.002-2.149-.252-.242-.219-.33-.417-.33-.749 0-.33.09-.534.323-.74.277-.242.235-.238 2.148-.239 1.398-.002 1.778.009 1.883.053zm-2 5.504c.21.07.488.356.554.57.04.136.052.67.052 2.356s-.012 2.22-.052 2.355c-.066.213-.337.496-.552.571-.232.082-8.524.082-8.756 0-.203-.072-.484-.354-.548-.551-.067-.207-.1-3.948-.04-4.445.069-.56.309-.824.81-.89.14-.019 2.083-.03 4.316-.027 3.188.006 4.095.018 4.216.06"/>
</svg>