<svg xmlns="http://www.w3.org/2000/svg" width="26" height="26" fill="currentColor" class="sym sym-puzzle-piece-solid" viewBox="0 0 26 26">
  <path d="M10.93 4.021a2.97 2.97 0 0 0-1.807 1.05c-.24.316-.426.686-.536 1.09l-.006.022a5 5 0 0 0-.088.68l-.02.4h-.48c-.633 0-1.29.055-1.6.134-.947.24-1.807 1.008-2.154 1.92-.17.45-.21.744-.23 1.688-.022.989-.01 1.062.216 1.312.223.248.297.265 1.28.284l.868.017.219.107c.875.432.897 1.703.036 2.16-.27.144-.484.172-1.295.172-.532 0-.742.012-.822.045a.94.94 0 0 0-.435.43C4 15.696 4 15.697 4 17.12c0 1.846.047 2.354.273 2.912.211.52.697 1.093 1.208 1.426.705.46 1.183.54 3.184.542 1.296 0 1.362-.008 1.593-.197a.9.9 0 0 0 .193-.253c.074-.15.078-.192.094-1.105.015-.882.021-.96.086-1.102.106-.222.279-.399.492-.507l.006-.003c.156-.077.225-.091.447-.09.233 0 .284.012.468.112.205.11.334.242.451.46.056.102.064.216.079 1.08.02 1.093.031 1.151.284 1.38.258.232.282.235 1.654.216 1.335-.018 1.616-.047 2.112-.218.805-.277 1.6-1.073 1.877-1.878.167-.488.2-.784.217-2.042l.017-1.149.398-.021c.5-.027.871-.115 1.249-.298a2.86 2.86 0 0 0 1.167-4.114l.007.01a3 3 0 0 0-1.33-1.115 2.8 2.8 0 0 0-1.116-.203h-.372l-.024-.416c-.05-.911-.241-1.46-.714-2.064a3.3 3.3 0 0 0-1.644-1.082l-.023-.006c-.31-.078-.967-.133-1.6-.133h-.48l-.02-.4c-.027-.505-.115-.876-.299-1.255a2.9 2.9 0 0 0-1.814-1.515l-.02-.005c-.3-.079-.882-.112-1.169-.066"/>
</svg>