<svg xmlns="http://www.w3.org/2000/svg" width="26" height="26" fill="currentColor" class="sym sym-puzzle-piece" viewBox="0 0 26 26">
  <path d="M13.4 22a.906.906 0 0 1-.91-.91v-1.416a.906.906 0 0 0-.91-.91.906.906 0 0 0-.91.91v1.416c0 .506-.404.91-.91.91h-.97c-1.455 0-2.253 0-2.97-.364a3.37 3.37 0 0 1-1.456-1.456C4 19.462 4 18.663 4 17.207V15.83c0-.505.404-.91.91-.91h1.212c.617 0 1.112-.495 1.112-1.112s-.495-1.112-1.112-1.112H4.91a.906.906 0 0 1-.91-.91c0-1.214 0-1.881.253-2.488a3.3 3.3 0 0 1 1.809-1.81c.596-.243 1.243-.253 2.385-.253v-.303A2.934 2.934 0 0 1 11.377 4a2.934 2.934 0 0 1 2.932 2.933v.303c1.142 0 1.789 0 2.385.253a3.3 3.3 0 0 1 1.81 1.81c.181.435.231.91.252 1.577h.313A2.934 2.934 0 0 1 22 13.81a2.934 2.934 0 0 1-2.931 2.933h-.303v.465c0 1.456 0 2.255-.364 2.973a3.37 3.37 0 0 1-1.455 1.456C16.229 22 15.43 22 13.975 22zm-7.58-5.258v.465c0 1.173 0 1.82.16 2.143.142.284.385.516.668.668.323.162.97.162 2.143.162h.06v-.506a2.73 2.73 0 0 1 2.729-2.73 2.73 2.73 0 0 1 2.729 2.73v.506c.96 0 1.506-.02 1.799-.162a1.52 1.52 0 0 0 .667-.668c.162-.323.162-.97.162-2.143V15.83c0-.505.404-.91.91-.91h1.212c.616 0 1.112-.495 1.112-1.112s-.495-1.112-1.112-1.112h-1.213a.906.906 0 0 1-.91-.91c0-.981 0-1.517-.11-1.79a1.48 1.48 0 0 0-.82-.82c-.282-.11-.818-.11-1.788-.11h-.809a.906.906 0 0 1-.91-.91V6.942c0-.617-.495-1.113-1.111-1.113a1.11 1.11 0 0 0-1.112 1.113v1.213c0 .506-.404.91-.91.91h-.808c-.98 0-1.516 0-1.789.112a1.48 1.48 0 0 0-.818.819c-.071.172-.101.455-.112.88h.293a2.934 2.934 0 0 1 2.931 2.932 2.934 2.934 0 0 1-2.93 2.933z"/>
</svg>