<svg xmlns="http://www.w3.org/2000/svg" width="26" height="26" fill="currentColor" class="sym sym-qr-code" viewBox="0 0 26 26">
  <path d="M19.644 22h-1.618c-.587 0-.981 0-1.365-.203a1.76 1.76 0 0 1-.79-.794c-.201-.387-.201-.774-.201-1.364v-1.628c0-.59 0-.977.202-1.374.172-.336.445-.61.789-.794.394-.203.778-.203 1.365-.203h1.618c.586 0 .97 0 1.355.193.344.183.617.458.789.804.202.387.202.773.202 1.363v1.629c0 .59 0 .977-.202 1.374a1.76 1.76 0 0 1-.79.794c-.383.203-.768.203-1.354.203m-1.618-4.518c-.253 0-.506 0-.587.02.05 0 .05.264.05.509v1.628c0 .254 0 .509.021.58 0-.05.263-.05.506-.05h1.618c.253 0 .505 0 .576-.021-.05 0-.05-.265-.05-.52V18c0-.254 0-.508-.02-.58 0 .051-.264.051-.506.051h-1.618zM13 22a.91.91 0 0 1-.91-.916.91.91 0 1 1 1.82 0A.91.91 0 0 1 13 22m-3.6 0H4.91a.91.91 0 0 1-.91-.916.91.91 0 0 1 .91-.916H9.4a.91.91 0 0 1 .91.916.91.91 0 0 1-.91.916m3.59-3.613a.91.91 0 0 1-.91-.916V13.87H8.5a.91.91 0 0 1-.91-.916.91.91 0 0 1 .91-.916h4.49a.91.91 0 0 1 .91.916v4.518a.91.91 0 0 1-.91.916m-3.58 0a.91.91 0 0 1-.91-.916.91.91 0 1 1 1.82 0 .91.91 0 0 1-.91.916m-3.155 0H4.91a.91.91 0 0 1-.91-.916.91.91 0 0 1 .91-.916h1.345a.91.91 0 0 1 .91.916.91.91 0 0 1-.91.916M21.09 13.87a.91.91 0 0 1-.91-.916.91.91 0 1 1 1.82 0 .91.91 0 0 1-.91.916m-3.155 0h-1.8a.91.91 0 0 1-.91-.916.91.91 0 0 1 .91-.916h1.8a.91.91 0 0 1 .91.916.91.91 0 0 1-.91.916m-13.015 0a.91.91 0 0 1-.91-.916.91.91 0 1 1 1.82 0 .91.91 0 0 1-.91.916m14.724-3.613h-1.618c-.587 0-.97 0-1.355-.193a1.83 1.83 0 0 1-.789-.804c-.202-.387-.202-.774-.202-1.364V6.267c0-.59 0-.977.202-1.374.172-.346.445-.62.789-.794.384-.203.768-.203 1.355-.203h1.618c.586 0 .97 0 1.355.203.344.173.617.448.789.794.202.387.202.773.202 1.364v1.628c0 .59 0 .977-.202 1.374-.172.336-.445.61-.79.793-.393.204-.778.204-1.364.204zm-1.618-4.518c-.253 0-.506 0-.577.02.051 0 .051.265.051.509v1.628c0 .254 0 .509.02.58 0-.05.263-.05.506-.05h1.618c.253 0 .505 0 .586-.021-.05 0-.05-.265-.05-.509V6.267c0-.255 0-.51-.02-.58 0 .05-.263.05-.506.05zM13 10.256a.91.91 0 0 1-.91-.916V3.916a.91.91 0 1 1 1.82 0V9.34a.91.91 0 0 1-.91.916m-5.026 0H6.356c-.586 0-.97 0-1.355-.193a1.8 1.8 0 0 1-.799-.804c-.192-.387-.192-.774-.192-1.364V6.267c0-.59 0-.977.192-1.364.172-.346.445-.62.789-.794.384-.203.769-.203 1.355-.203h1.618c.587 0 .97 0 1.355.193.344.173.617.448.789.804.202.387.202.774.202 1.364v1.628c0 .59 0 .977-.202 1.374-.172.336-.445.61-.789.794-.394.203-.779.203-1.365.203zM6.356 5.738c-.253 0-.505 0-.576.02.05 0 .05.265.05.509v1.628c0 .254 0 .509.02.58 0-.05.264-.05.506-.05h1.618c.253 0 .506 0 .587-.021-.05 0-.05-.265-.05-.509V6.267c0-.255 0-.51-.021-.58 0 .05-.263.05-.506.05z"/>
</svg>