<svg xmlns="http://www.w3.org/2000/svg" width="26" height="26" fill="currentColor" class="sym sym-qr-code-solid" viewBox="0 0 26 26">
  <path d="M12.797 3.523a.96.96 0 0 0-.605.487l-.003.005c-.078.146-.078.147-.078 3.1 0 2.952 0 2.953.078 3.099.177.331.449.5.806.5.356 0 .629-.169.805-.5.078-.146.078-.147.078-3.1 0-2.952 0-2.953-.078-3.099-.2-.377-.633-.589-1.003-.492m-7.193.911c-.33.037-.514.098-.778.258-.261.166-.47.392-.611.66l-.005.01c-.198.377-.209.494-.209 2.224 0 1.728.01 1.817.225 2.225.127.236.444.556.68.683.406.218.492.227 2.231.227 1.74 0 1.825-.01 2.232-.227.235-.127.553-.446.68-.683.216-.408.225-.495.225-2.243 0-1.749-.01-1.835-.225-2.244-.171-.28-.4-.51-.67-.677l-.009-.005c-.387-.208-.482-.219-2.052-.229-.793-.005-1.564.004-1.714.022zm11.714 0c-.33.037-.514.098-.778.258a1.74 1.74 0 0 0-.61.66l-.005.01c-.198.377-.21.494-.21 2.224 0 1.728.01 1.817.226 2.225.126.236.444.556.68.683.406.218.492.227 2.23.227 1.74 0 1.825-.01 2.232-.227a2 2 0 0 0 .68-.683c.216-.408.225-.495.225-2.243 0-1.413-.008-1.621-.064-1.827a1.78 1.78 0 0 0-1.239-1.262l-.012-.002c-.233-.062-2.893-.095-3.355-.043M4.582 12.605a.93.93 0 0 0-.478.404l-.002.004c-.086.146-.1.212-.1.443 0 .232.014.297.1.443.184.315.521.49.872.454.91-.096 1.116-1.291.296-1.718-.156-.08-.514-.096-.688-.03m3.708-.021c-.676.17-.915 1.01-.427 1.502.057.056.168.138.247.18.142.076.179.078 2.063.09l1.918.01.01 1.928c.011 1.893.013 1.93.089 2.074.176.332.449.5.805.5s.63-.168.806-.5c.078-.145.078-.157.078-2.646 0-2.49 0-2.501-.078-2.646a1.04 1.04 0 0 0-.421-.426l-.006-.003c-.144-.077-.164-.078-2.56-.084-1.328-.003-2.464.005-2.523.021m7.613.018a.9.9 0 0 0-.638.854.894.894 0 0 0 .678.864l.006.002c.242.052 1.958.052 2.2 0a.9.9 0 0 0 .684-.866.896.896 0 0 0-.678-.864l-.006-.002c-.266-.057-2.025-.048-2.246.012m5.003-.019c-.679.176-.917 1.01-.428 1.502a.88.88 0 0 0 1.059.146l-.005.003a.82.82 0 0 0 .416-.481l.002-.006a.9.9 0 0 0-.141-.854v.002c-.175-.231-.623-.386-.904-.313m-3.588 3.629c-.33.038-.514.098-.778.258a1.74 1.74 0 0 0-.61.66l-.005.01c-.198.377-.21.495-.21 2.206s.012 1.827.21 2.21c.138.264.446.582.696.717.406.217.492.226 2.23.226 1.74 0 1.825-.009 2.232-.226a2 2 0 0 0 .68-.684c.216-.408.225-.494.225-2.243 0-1.412-.008-1.62-.064-1.827a1.78 1.78 0 0 0-1.239-1.261l-.012-.003c-.233-.062-2.893-.095-3.355-.043m-12.632.903a.9.9 0 0 0-.428 1.502c.238.239.316.256 1.175.27.5.008.853-.003.982-.03a.89.89 0 0 0 .705-.87.896.896 0 0 0-.679-.864l-.006-.002c-.202-.043-1.575-.048-1.748-.006zm4.506-.001c-.679.176-.917 1.01-.428 1.502a.88.88 0 0 0 1.059.147l-.005.002a.82.82 0 0 0 .416-.482l.002-.005a.9.9 0 0 0-.141-.854v.002c-.175-.232-.623-.386-.904-.313m-4.505 3.626c-.677.169-.916 1.01-.428 1.502.057.056.168.138.247.18.144.078.156.078 2.632.078s2.488 0 2.632-.078c.33-.178.498-.451.498-.81s-.168-.632-.498-.81c-.144-.076-.164-.078-2.56-.084-1.329-.003-2.464.006-2.523.022m8.111-.001c-.679.177-.917 1.01-.428 1.503a.88.88 0 0 0 1.059.146l-.005.002a.82.82 0 0 0 .416-.481l.002-.006a.91.91 0 0 0-.141-.854v.003c-.175-.232-.623-.387-.904-.314z"/>
</svg>