<svg xmlns="http://www.w3.org/2000/svg" width="26" height="26" fill="currentColor" class="sym sym-quiz" viewBox="0 0 26 26">
  <path d="M20.746 10.488c0-1.436-.002-2.439-.103-3.195-.087-.643-.235-1.02-.457-1.291l-.1-.11c-.34-.341-.84-.525-1.9-.605a2.5 2.5 0 0 1-2.44 1.963h-5.5a2.5 2.5 0 0 1-2.441-1.963c-.979.074-1.48.236-1.82.53l-.08.076c-.276.277-.457.666-.555 1.4-.102.756-.104 1.759-.104 3.195v6.506c0 1.437.002 2.44.104 3.195.098.735.278 1.125.555 1.402s.666.457 1.4.555c.755.102 1.756.104 3.191.104h5c1.435 0 2.436-.002 3.191-.104.734-.098 1.123-.278 1.4-.555s.457-.667.556-1.402c.101-.756.103-1.758.103-3.195zm-2.423 4.784a.75.75 0 0 1 .498 1.406l-.071.029c-.224.08-.504.26-.82.536a8.4 8.4 0 0 0-.883.925 14 14 0 0 0-.852 1.14l-.047.073-.012.017-.003.004a.75.75 0 0 1-1.304-.067c-.205-.41-.377-.549-.433-.586l-.011-.01a.749.749 0 0 1 .115-1.489v.599c0-.599.001-.599.002-.599h.023l.029.002a1 1 0 0 1 .238.043c.129.037.278.1.437.206q.13.087.263.21c.121-.158.256-.329.402-.504.302-.361.66-.752 1.047-1.09.38-.333.827-.653 1.309-.824zm-3.866 3.477.02.001h.022v-.001l-.062-.003zM11.5 16.25a.75.75 0 0 1 0 1.5h-4a.75.75 0 0 1 0-1.5zm6.823-6.979a.75.75 0 0 1 .498 1.407l-.071.029c-.224.08-.504.26-.82.536a8.4 8.4 0 0 0-.883.925 14 14 0 0 0-.852 1.14l-.047.073-.012.017-.003.004a.75.75 0 0 1-1.304-.067c-.205-.41-.377-.549-.433-.586l-.011-.01a.749.749 0 0 1 .115-1.489v.599c0-.599.001-.599.002-.599h.023l.029.002a1 1 0 0 1 .238.043c.129.037.278.1.437.206q.13.087.263.21c.121-.158.256-.329.402-.504.302-.362.66-.752 1.047-1.09.38-.333.827-.653 1.309-.824zm-3.866 3.478.02.001h.022v-.001l-.062-.003zM11.5 10.25a.75.75 0 0 1 0 1.5h-4a.75.75 0 0 1 0-1.5zm-1.254-6.5a1 1 0 0 0 0 2h5.5a1 1 0 1 0 0-2zm12 13.244c0 1.394.002 2.515-.116 3.395-.121.9-.38 1.66-.982 2.261-.601.603-1.36.863-2.26.984-.879.118-2 .116-3.392.116h-5c-1.393 0-2.513.002-3.392-.116-.9-.121-1.658-.381-2.26-.984-.602-.602-.86-1.36-.982-2.261-.118-.88-.116-2-.116-3.395v-6.506c0-1.394-.002-2.515.116-3.394.121-.9.38-1.66.982-2.262l.168-.155c.75-.645 1.73-.837 2.932-.905a2.5 2.5 0 0 1 2.302-1.522h5.5a2.5 2.5 0 0 1 2.3 1.522c1.295.073 2.333.29 3.102 1.06l.109.115c.524.583.76 1.302.873 2.147.118.879.116 2 .116 3.394z"/>
</svg>