<svg xmlns="http://www.w3.org/2000/svg" width="26" height="26" fill="currentColor" class="sym sym-quote" viewBox="0 0 26 26">
  <path d="M3 10.333C3 7.94 5.079 6 7.643 6s4.643 1.94 4.643 4.333v.075c0 1.611 0 3.235-.49 4.79-.515 1.633-1.544 3.134-3.484 4.583a1.124 1.124 0 0 1-1.506-.156.956.956 0 0 1 .168-1.406c1.631-1.218 2.388-2.383 2.766-3.585q.077-.247.137-.501a4.9 4.9 0 0 1-2.234.534C5.079 14.667 3 12.727 3 10.333m10.714 0C13.714 7.94 15.793 6 18.357 6S23 7.94 23 10.333v.075c0 1.611 0 3.235-.49 4.79-.514 1.633-1.544 3.134-3.484 4.583a1.124 1.124 0 0 1-1.505-.156.956.956 0 0 1 .167-1.406c1.631-1.218 2.388-2.383 2.766-3.585a7 7 0 0 0 .137-.501 4.9 4.9 0 0 1-2.234.534c-2.564 0-4.643-1.94-4.643-4.334"/>
</svg>