<svg xmlns="http://www.w3.org/2000/svg" width="26" height="26" fill="currentColor" class="sym sym-recording" viewBox="0 0 26 26">
  <path d="M13 22a.906.906 0 0 1-.91-.91V4.91c0-.505.404-.91.91-.91s.91.405.91.91v16.18c0 .506-.404.91-.91.91m4.045-2.7a.906.906 0 0 1-.91-.91V7.6c0-.506.404-.91.91-.91s.91.404.91.91v10.79c0 .505-.404.91-.91.91m-8.09 0a.906.906 0 0 1-.91-.91V7.6c0-.506.404-.91.91-.91s.91.404.91.91v10.79c0 .505-.404.91-.91.91m12.135-3.59a.906.906 0 0 1-.91-.91v-3.6c0-.506.404-.91.91-.91s.91.404.91.91v3.6c0 .506-.404.91-.91.91m-16.18 0A.906.906 0 0 1 4 14.8v-3.6c0-.506.405-.91.91-.91.506 0 .91.404.91.91v3.6c0 .506-.404.91-.91.91"/>
</svg>