<svg xmlns="http://www.w3.org/2000/svg" width="26" height="26" fill="currentColor" class="sym sym-recording-solid" viewBox="0 0 26 26">
  <path d="M12.808 4.023a.96.96 0 0 0-.605.484l-.003.006-.077.145v16.698l.077.146c.177.33.45.498.806.498s.63-.168.806-.498l.077-.146V4.658l-.077-.145c-.201-.375-.634-.586-1.004-.49M8.706 6.745a.86.86 0 0 0-.538.45l-.002.005-.1.194v11.228l.1.195a.877.877 0 0 0 1.566.005l.002-.004.1-.196L9.831 7.4l-.084-.181A.88.88 0 0 0 8.7 6.748l.006-.001zm8.111 0a.86.86 0 0 0-.538.45l-.002.005-.099.194v11.228l.1.195a.877.877 0 0 0 1.565.005l.002-.004.1-.196L17.944 7.4l-.085-.181a.88.88 0 0 0-1.048-.471l.006-.001zM4.592 10.359a.9.9 0 0 0-.477.4l-.002.004-.1.17-.01 1.994c-.008 1.322.002 2.041.027 2.135a.95.95 0 0 0 .443.536.885.885 0 0 0 1.054-.155c.272-.274.27-.246.27-2.436s.002-2.163-.27-2.436a.89.89 0 0 0-.941-.21zm16.327-.024a.96.96 0 0 0-.605.484l-.003.005c-.076.143-.078.167-.078 2.183s.001 2.04.078 2.183c.177.33.449.499.806.499s.629-.169.805-.499c.077-.143.078-.167.078-2.183s0-2.04-.078-2.183c-.2-.375-.633-.586-1.003-.49"/>
</svg>