<svg xmlns="http://www.w3.org/2000/svg" width="26" height="26" fill="currentColor" class="sym sym-reflect" viewBox="0 0 26 26">
  <path d="M13.005 22a.91.91 0 0 1-.92-.91v-2.7c0-.506.41-.91.92-.91.511 0 .92.404.92.91v2.7c0 .506-.409.91-.92.91m8.626-4.055c-.46 0-.787-.243-1.268-.617l-3.985-3.034c-.338-.253-.583-.455-.726-.799a1.33 1.33 0 0 1 0-.97c.143-.354.399-.556.715-.8l3.996-3.043.562.718-.562-.728c.49-.374.838-.587 1.288-.617.409 0 .797.192 1.053.516.296.374.296.778.296 1.395v6.068c0 .617 0 1.021-.296 1.385a1.35 1.35 0 0 1-1.063.516h-.02zM17.696 13l3.475 2.65v-5.29l-3.475 2.65zM4.38 17.945h-.02c-.41 0-.798-.192-1.064-.516C3 17.055 3 16.651 3 16.034V9.966c0-.617 0-1.021.296-1.395a1.35 1.35 0 0 1 1.063-.516c.501.03.797.243 1.278.607h.01l3.986 3.033c.327.253.582.445.725.8.123.313.123.657 0 .97-.143.364-.398.556-.725.81l-3.986 3.033c-.49.374-.807.617-1.278.617zm.47-2.296L8.325 13 4.85 10.35zm8.165-.384a.91.91 0 0 1-.92-.91v-2.7c0-.506.41-.91.92-.91.511 0 .92.404.92.91v2.7c0 .506-.409.91-.92.91m0-6.745a.91.91 0 0 1-.92-.91v-2.7c0-.505.41-.91.92-.91.511 0 .92.405.92.91v2.7c0 .506-.409.91-.92.91"/>
</svg>