<svg xmlns="http://www.w3.org/2000/svg" width="26" height="26" fill="currentColor" class="sym sym-reflect-solid" viewBox="0 0 26 26">
  <path d="M12.696 4.052a.92.92 0 0 0-.482.4l-.002.004-.1.17-.012 1.541c-.006 1.013.003 1.59.028 1.684a.96.96 0 0 0 .448.537.9.9 0 0 0 1.063-.155c.268-.266.272-.298.272-1.986s-.004-1.718-.272-1.983a.91.91 0 0 0-.949-.21zM4.019 8.126c-.576.16-.91.565-.982 1.19-.05.431-.05 6.954 0 7.384.047.406.166.656.425.89.26.236.526.335.902.337.33.003.564-.083.904-.33.52-.376 4.644-3.532 4.763-3.645a1.6 1.6 0 0 0 .254-.365c.107-.213.117-.264.117-.578s-.01-.364-.117-.578a1.6 1.6 0 0 0-.255-.366c-.12-.112-4.242-3.268-4.763-3.644-.423-.307-.848-.407-1.248-.295m17.335-.018a2 2 0 0 0-.355.148l.01-.005c-.205.108-4.823 3.61-5.053 3.831a1.5 1.5 0 0 0-.233.34l-.004.01c-.106.213-.117.264-.117.577 0 .314.01.365.117.578.064.128.178.293.254.366.076.072 1.194.937 2.484 1.921 2.652 2.022 2.71 2.059 3.181 2.054.62-.006 1.085-.341 1.28-.92.06-.182.066-.441.078-3.729.013-3.853.003-4.14-.163-4.475-.252-.51-.935-.832-1.48-.697zm-8.755 2.765a.87.87 0 0 0-.465.58l-.002.006c-.053.248-.053 2.853 0 3.101a.9.9 0 0 0 .87.685.9.9 0 0 0 .867-.678l.002-.006c.053-.248.053-2.853 0-3.101a.9.9 0 0 0-.87-.686h-.014a.8.8 0 0 0-.392.102zm.203 6.676a.97.97 0 0 0-.61.484l-.003.005c-.076.143-.078.178-.078 1.732s.002 1.59.078 1.732c.178.33.453.498.813.498s.635-.168.813-.498c.076-.143.078-.178.078-1.732s-.002-1.589-.078-1.732c-.203-.375-.64-.586-1.013-.489"/>
</svg>