<svg xmlns="http://www.w3.org/2000/svg" width="26" height="26" fill="currentColor" class="sym sym-refresh-ccw" viewBox="0 0 26 26">
  <path d="M12.89 20.97c-3.59 0-6.788-2.38-7.783-5.783a.9.9 0 0 1 .636-1.124.914.914 0 0 1 1.138.628c.77 2.623 3.24 4.466 6.009 4.466 3.445 0 6.254-2.775 6.254-6.177 0-3.403-2.81-6.177-6.254-6.177-1.672 0-3.24.648-4.42 1.812-.543.537-1.158 1.256-1.67 1.884h2.9c.514 0 .924.405.924.911s-.41.912-.923.912H4.923c-.072 0-.195-.01-.298-.041a.9.9 0 0 1-.297-.162.9.9 0 0 1-.236-.294.9.9 0 0 1-.092-.354V6.7c0-.506.41-.911.923-.911.512 0 .923.405.923.911v2.096c.43-.506.892-1.022 1.322-1.448A8.12 8.12 0 0 1 12.9 5c4.47 0 8.1 3.585 8.1 8s-3.63 8-8.1 8z"/>
</svg>