<svg xmlns="http://www.w3.org/2000/svg" width="26" height="26" fill="currentColor" class="sym sym-refresh-ccw-02" viewBox="0 0 26 26">
  <path d="M11.635 20.97H7.552c-.486 0-.875-.404-.875-.908 0-.505.389-.908.875-.908h1.506a43 43 0 0 1-1.01-1.02c-2.732-2.834-2.732-7.444 0-10.269a6.9 6.9 0 0 1 3.391-1.947.877.877 0 0 1 1.05.686c.107.484-.185.979-.661 1.09a5.24 5.24 0 0 0-2.546 1.462c-2.051 2.129-2.051 5.58 0 7.708.612.635 1.098 1.11 1.477 1.453v-2.472c0-.505.389-.908.874-.908.486 0 .875.404.875.908v4.307a.7.7 0 0 1-.078.313.84.84 0 0 1-.213.303.94.94 0 0 1-.35.202 1 1 0 0 1-.234.03zm2.72-.868a.89.89 0 0 1-.854-.706c-.107-.484.184-.979.66-1.09a5.13 5.13 0 0 0 2.547-1.462c2.04-2.129 2.04-5.58 0-7.708a31 31 0 0 0-1.477-1.453v2.472c0 .505-.39.908-.875.908-.486 0-.875-.404-.875-.908V5.848c0-.112.03-.212.078-.313a.84.84 0 0 1 .214-.303.9.9 0 0 1 .36-.202c.077-.02.165-.03.242-.03h4.072c.486 0 .875.404.875.908s-.389.908-.875.908h-1.506c.301.292.632.625 1.01 1.019 2.732 2.835 2.732 7.445 0 10.27a6.93 6.93 0 0 1-3.391 1.947c-.068.02-.127.02-.194.02z"/>
</svg>