<svg xmlns="http://www.w3.org/2000/svg" width="26" height="26" fill="currentColor" class="sym sym-refresh-ccw-solid" viewBox="0 0 26 26">
  <path d="M12.69 5.02c-2.041.2-3.774 1.038-5.21 2.515-.34.35-1.07 1.164-1.277 1.424l-.088.112V7.772c0-1.478-.005-1.508-.244-1.745a.8.8 0 0 0-.95-.135l.004-.002a.86.86 0 0 0-.396.469l-.002.006c-.023.084-.031.974-.025 2.697l.009 2.572.09.151c.05.083.138.188.197.232.24.182.165.177 2.935.177 2.872 0 2.747.01 2.999-.24a.788.788 0 0 0-.204-1.27l-.153-.075-3.415-.032.355-.429c1.4-1.692 2.169-2.38 3.248-2.901 3.211-1.555 7.086-.236 8.658 2.945a6.2 6.2 0 0 1 .657 2.806c0 1.72-.688 3.28-1.807 4.427l.002-.002a6.3 6.3 0 0 1-1.82 1.321l-.038.016a6.4 6.4 0 0 1-2.812.64 6.5 6.5 0 0 1-2.849-.656l.038.016a6 6 0 0 1-1.673-1.152 6.46 6.46 0 0 1-1.661-2.582l-.013-.045c-.121-.355-.154-.418-.287-.545a.813.813 0 0 0-1.13-.001c-.254.252-.291.529-.135 1.01.248.755.577 1.41.988 2.006l-.018-.027A8.12 8.12 0 0 0 13.403 21a8.1 8.1 0 0 0 3.115-.615l-.054.02a7.9 7.9 0 0 0 2.656-1.755h.001a7.6 7.6 0 0 0 1.442-1.918c.59-1.082.937-2.37.937-3.736 0-2.706-1.36-5.098-3.44-6.545l-.025-.017a8.05 8.05 0 0 0-3.423-1.35c-.473-.074-1.484-.108-1.922-.065"/>
</svg>