<svg xmlns="http://www.w3.org/2000/svg" width="26" height="26" fill="currentColor" class="sym sym-refresh-ccw-02-solid" viewBox="0 0 26 26">
  <path d="M14.164 5.047a.7.7 0 0 0-.372.322l-.002.003-.078.138-.008 2.338c-.004 1.567.003 2.376.022 2.452.043.164.191.35.345.432.354.19.78.05.95-.308l.067-.139.028-3.185.406.37c.577.524 1.598 1.571 1.852 1.9a5.9 5.9 0 0 1 1.169 2.746l.004.032a7.6 7.6 0 0 1 0 1.718 5.86 5.86 0 0 1-1.664 3.332l-.002.003c-.739.74-1.51 1.174-2.663 1.5a.56.56 0 0 0-.31.197c-.219.233-.27.512-.143.792.12.269.357.42.655.42.3 0 1.12-.287 1.735-.61a6.5 6.5 0 0 0 1.81-1.368 6.7 6.7 0 0 0 1.32-1.908c.215-.431.396-.932.52-1.456l.01-.048c.15-.635.185-.958.185-1.714 0-.757-.035-1.08-.185-1.715a7.55 7.55 0 0 0-1.327-2.82l.012.016c-.196-.259-1.025-1.137-1.6-1.693l-.352-.34h1.083c1.233 0 1.267-.004 1.473-.217a.73.73 0 0 0 .206-.51c0-.2-.08-.38-.206-.51-.22-.228-.108-.219-2.61-.216-1.853.001-2.238.008-2.329.043zm-2.95.927A7.1 7.1 0 0 0 7.16 8.978l-.017.026a8.6 8.6 0 0 0-.798 1.718 7.7 7.7 0 0 0-.309 1.417l-.003.038a10.5 10.5 0 0 0 0 1.66 7.6 7.6 0 0 0 1.513 3.742c.228.296.937 1.043 1.538 1.621l.37.356-1.128.008c-1.092.01-1.13.011-1.24.072a.7.7 0 0 0-.388.65c0 .289.131.509.388.651.113.063.114.063 2.4.063 2.288 0 2.289 0 2.402-.063a.8.8 0 0 0 .332-.344c.06-.117.06-.118.06-2.49s0-2.373-.06-2.49q-.209-.402-.628-.403c-.277 0-.49.136-.627.403-.059.115-.06.15-.074 1.713l-.014 1.594-.295-.265c-.48-.433-1.517-1.466-1.77-1.763a5.9 5.9 0 0 1-1.4-3.214 8 8 0 0 1 .001-1.37l-.002.029c.216-1.825 1.211-3.369 2.624-4.285l.023-.014c.461-.297.997-.528 1.675-.722.204-.058.317-.134.419-.28a.73.73 0 0 0 .128-.416.73.73 0 0 0-.326-.61l-.003-.001c-.185-.119-.404-.129-.737-.035"/>
</svg>