<svg xmlns="http://www.w3.org/2000/svg" width="26" height="26" fill="currentColor" class="sym sym-repeat-solid" viewBox="0 0 26 26">
  <path d="M17.18 3.06c-.316.112-.578.495-.578.847 0 .073.027.213.06.312.05.158.188.31 1.159 1.298l1.1 1.12h-5.435c-3.136 0-5.654.016-5.949.035-.887.061-1.416.227-1.997.623-.488.333-1.025.995-1.24 1.528-.127.316-.22.754-.264 1.234-.048.54-.048 2.125 0 2.302.055.2.246.43.44.532a.88.88 0 0 0 1.053-.158c.243-.243.262-.35.282-1.566.01-.58.036-1.162.059-1.292.057-.337.198-.6.468-.875.262-.265.524-.412.847-.477.16-.032 1.723-.046 5.978-.057l5.762-.014-1.102 1.12c-.972.99-1.11 1.143-1.161 1.301a.9.9 0 0 0 .21.951.88.88 0 0 0 1.036.168l-.006.002c.113-.056.712-.638 2.072-2.018 1.798-1.823 1.918-1.951 1.976-2.134a.93.93 0 0 0-.049-.706l.003.005c-.054-.114-.63-.719-1.996-2.094-1.732-1.746-1.935-1.94-2.096-1.993a.9.9 0 0 0-.637.005l.007-.002zm3.725 9.979a.95.95 0 0 0-.606.494c-.07.137-.078.219-.1 1.312-.024 1.23-.047 1.432-.204 1.746-.119.238-.467.6-.701.73-.413.227-.032.213-6.402.226l-5.815.011 1.067-1.083c.696-.709 1.095-1.14 1.15-1.248a.92.92 0 0 0-.17-1.033.9.9 0 0 0-1.027-.168l.005-.002c-.226.116-3.884 3.813-4 4.043a.98.98 0 0 0 .003.807l-.002-.006c.115.229 3.773 3.926 4 4.043a.9.9 0 0 0 1.022-.172.93.93 0 0 0 .169-1.033c-.055-.107-.453-.54-1.149-1.246l-1.066-1.083h5.238c5.298-.003 6.323-.022 6.877-.13.869-.168 1.672-.718 2.185-1.498.419-.635.533-1.082.592-2.303.054-1.123.034-1.72-.065-1.912-.195-.376-.63-.591-1.001-.494z"/>
</svg>