<svg xmlns="http://www.w3.org/2000/svg" width="26" height="26" fill="currentColor" class="sym sym-repeat" viewBox="0 0 26 26">
  <path d="M8.515 22.98a.94.94 0 0 1-.648-.266l-3.604-3.622a1 1 0 0 1-.192-.295A1.2 1.2 0 0 1 4 18.47v-.04c0-.123.03-.235.07-.337a.75.75 0 0 1 .193-.286l3.594-3.632a.905.905 0 0 1 1.286 0 .923.923 0 0 1 0 1.295l-2.045 2.061h9.678c1.316 0 2.045 0 2.43-.194a1.82 1.82 0 0 0 .78-.785c.192-.388.192-1.122.192-2.449v-.184a.91.91 0 1 1 1.822 0v.184c0 1.612 0 2.51-.395 3.286a3.62 3.62 0 0 1-1.58 1.591c-.768.398-1.66.398-3.259.398H7.088l2.045 2.061a.923.923 0 0 1 0 1.296.9.9 0 0 1-.648.265zM4.911 13A.91.91 0 0 1 4 12.083v-.184c0-1.612 0-2.51.395-3.285a3.62 3.62 0 0 1 1.58-1.592c.769-.397 1.65-.397 3.259-.397h9.678l-2.045-2.061a.92.92 0 0 1 0-1.296.905.905 0 0 1 1.286 0L21.747 6.9a.9.9 0 0 1 .162.265.9.9 0 0 1 .07.327v.04c0 .123-.03.235-.07.337a.9.9 0 0 1-.192.296l-3.604 3.622a.906.906 0 0 1-1.286 0 .923.923 0 0 1 0-1.296l2.045-2.06H9.193c-1.316 0-2.045 0-2.43.193a1.77 1.77 0 0 0-.779.786c-.192.388-.192 1.122-.192 2.449v.183a.91.91 0 0 1-.911.918z"/>
</svg>