<svg xmlns="http://www.w3.org/2000/svg" width="26" height="26" fill="currentColor" class="sym sym-reverse-left-solid" viewBox="0 0 26 26">
  <path d="M9.122 5.057c-.137.048-.435.328-2.056 1.944-1.349 1.343-1.918 1.934-1.972 2.046a.9.9 0 0 0-.045.69l-.002-.007c.058.179.176.304 1.952 2.084 1.344 1.348 1.936 1.916 2.047 1.97a.88.88 0 0 0 1.018-.165.87.87 0 0 0 .208-.928c-.05-.155-.187-.304-1.146-1.269L8.038 10.33h3.487c2.195 0 3.598.014 3.787.038.748.1 1.417.364 1.994.755l-.016-.01c.36.24.911.79 1.152 1.15 1.184 1.767.997 4.057-.457 5.577-.619.648-1.352 1.06-2.306 1.295-.22.054-.706.062-5.135.08l-4.894.02-.176.09c-.687.354-.61 1.356.123 1.615.229.08 9.361.082 9.976 0a6.24 6.24 0 0 0 4.755-3.355l.016-.035c.414-.81.656-1.765.656-2.778a6.21 6.21 0 0 0-2.94-5.282l-.027-.015a6.3 6.3 0 0 0-1.905-.773l-.044-.008c-.637-.132-.984-.143-4.557-.143h-3.49l1.088-1.093c.959-.964 1.095-1.113 1.146-1.268a.891.891 0 0 0-1.157-1.13l.005-.003z"/>
</svg>