<svg xmlns="http://www.w3.org/2000/svg" width="26" height="26" fill="currentColor" class="sym sym-reverse-right-solid" viewBox="0 0 26 26">
  <path d="M16.241 5.056c-.312.11-.572.485-.572.828 0 .071.027.208.059.305.05.154.187.304 1.146 1.269l1.088 1.093h-3.49c-3.572 0-3.92.01-4.557.143-1.215.252-2.445.957-3.287 1.885A6.2 6.2 0 0 0 5 14.781q0 .417.053.82l-.003-.03a6.24 6.24 0 0 0 5.345 5.372l.032.003c.345.046 1.136.054 5.114.054 5.287 0 4.914.018 5.199-.266a.88.88 0 0 0-.223-1.411l-.17-.083-4.891-.02c-5.359-.022-4.979-.007-5.65-.232a4.53 4.53 0 0 1-2.14-1.55l-.008-.011c-.275-.369-.607-1.048-.722-1.477a4.4 4.4 0 0 1-.151-1.16c0-.936.285-1.806.773-2.526l-.01.016c.686-1.025 1.893-1.76 3.14-1.912.19-.024 1.593-.037 3.788-.037h3.486l-1.087 1.093c-.96.965-1.096 1.114-1.146 1.269a.87.87 0 0 0 .208.93.88.88 0 0 0 1.023.163l-.006.002c.112-.054.703-.624 2.047-1.972 1.776-1.78 1.895-1.906 1.952-2.085a.9.9 0 0 0-.048-.69l.003.005c-.054-.11-.624-.702-1.972-2.046-1.711-1.706-1.912-1.895-2.07-1.947a.9.9 0 0 0-.63.005z"/>
</svg>