<svg xmlns="http://www.w3.org/2000/svg" width="26" height="26" fill="currentColor" class="sym sym-reverse-left" viewBox="0 0 26 26">
  <path d="M14.776 21H5.921a.91.91 0 0 1-.91-.912c0-.506.404-.912.91-.912h8.855a4.408 4.408 0 0 0 0-8.814H8.117l1.984 1.986a.91.91 0 0 1-1.285 1.287l-3.543-3.546a1.1 1.1 0 0 1-.202-.294A.9.9 0 0 1 5 9.47v-.03c0-.121.03-.233.07-.334a.7.7 0 0 1 .203-.294l3.542-3.546a.91.91 0 0 1 1.286 1.287L8.117 8.538h6.66c3.43 0 6.223 2.797 6.223 6.231C21 18.204 18.207 21 14.776 21"/>
</svg>