<svg xmlns="http://www.w3.org/2000/svg" width="26" height="26" fill="currentColor" class="sym sym-right-indent-solid" viewBox="0 0 26 26">
  <path d="M4.581 5.056a.9.9 0 0 0-.477.395l-.002.004c-.086.143-.1.207-.1.435 0 .227.014.291.1.435a.9.9 0 0 0 .492.4c.137.048 1.116.054 8.397.054 9.25 0 8.448.024 8.742-.266a.866.866 0 0 0 0-1.248c-.294-.29.51-.266-8.756-.263-7.07.002-8.275.01-8.396.053zm15.836 3.542a1.8 1.8 0 0 0-.37.132l.01-.005c-.265.129-4.457 3.236-4.623 3.429-.244.28-.297.434-.297.855s.052.574.297.856c.166.192 4.358 3.3 4.622 3.427.53.255 1.094.176 1.518-.214.224-.207.351-.494.394-.892.043-.406.043-5.948 0-6.354q-.082-.758-.633-1.073a1.4 1.4 0 0 0-.925-.16zM4.539 9.75a.88.88 0 0 0-.537.806c0 .154.04.299.11.424l-.001-.005c.057.105.156.23.216.275.266.2.065.192 4.611.192 4.547 0 4.345.008 4.61-.192.138-.103.293-.38.326-.581.056-.336-.17-.74-.5-.898-.152-.072-.184-.073-4.44-.072-3.5.001-4.306.01-4.396.05m.043 4.882a.85.85 0 0 0-.575.835.77.77 0 0 0 .288.64c.262.227-.033.214 4.65.214 4.245 0 4.278-.001 4.431-.073.33-.158.556-.563.5-.898-.034-.201-.19-.478-.326-.582-.266-.2-.061-.192-4.624-.189-3.553.002-4.225.01-4.344.053m.104 4.64c-.675.163-.916.992-.427 1.475.057.056.167.136.246.177L4.65 21h16.685l.145-.077c.33-.174.498-.443.498-.795s-.169-.621-.498-.796l-.145-.076-8.27-.006c-4.55-.002-8.32.006-8.38.021"/>
</svg>