<svg xmlns="http://www.w3.org/2000/svg" width="26" height="26" fill="currentColor" class="sym sym-right-indent" viewBox="0 0 26 26">
  <path d="M21.182 21H4.818A.81.81 0 0 1 4 20.191a.81.81 0 0 1 .818-.809h16.364a.81.81 0 0 1 .818.809.81.81 0 0 1-.818.809m-.455-3.596c-.427 0-.736-.233-1.2-.575l-3.518-2.607c-.336-.251-.582-.431-.718-.764a1.2 1.2 0 0 1 0-.907c.127-.333.373-.513.709-.764l3.518-2.607c.464-.342.773-.576 1.2-.576h.018c.382 0 .737.18.982.477.273.341.273.728.273 1.312v5.214c0 .584 0 .97-.273 1.312a1.27 1.27 0 0 1-.982.485h-.018zM17.091 13l3.273 2.427v-4.854zM13 16.28H4.818A.81.81 0 0 1 4 15.473a.81.81 0 0 1 .818-.81H13a.81.81 0 0 1 .818.81.81.81 0 0 1-.818.809m0-4.943H4.818A.81.81 0 0 1 4 10.528a.81.81 0 0 1 .818-.809H13a.81.81 0 0 1 .818.81.81.81 0 0 1-.818.808m8.182-4.719H4.818A.81.81 0 0 1 4 5.809.81.81 0 0 1 4.818 5h16.364a.81.81 0 0 1 .818.809.81.81 0 0 1-.818.809"/>
</svg>