<svg xmlns="http://www.w3.org/2000/svg" width="26" height="26" fill="currentColor" class="sym sym-route" viewBox="0 0 26 26">
  <path d="M20.064 24a3.94 3.94 0 0 1-3.936-3.936 3.94 3.94 0 0 1 3.936-3.936A3.94 3.94 0 0 1 24 20.064 3.94 3.94 0 0 1 20.064 24m0-6.055a2.119 2.119 0 1 0 0 4.238 2.119 2.119 0 0 0 0-4.238m-6.56 3.532h-.938c-3.522 0-4.975 0-5.823-.797a2.9 2.9 0 0 1-.858-2.705c.232-1.14 1.413-1.978 4.29-4.016l4.107-2.907c1.786-1.261 3.471-2.452 3.552-2.886a1.07 1.07 0 0 0-.323-1.02c-.323-.302-2.392-.302-4.572-.302h-.434a.905.905 0 0 1-.908-.908c0-.505.404-.908.909-.908h.433c3.523 0 4.976 0 5.823.797a2.9 2.9 0 0 1 .858 2.704c-.232 1.14-1.413 1.978-4.289 4.017l-4.107 2.906c-1.786 1.262-3.472 2.453-3.552 2.887-.081.383.04.756.323 1.019.322.302 2.391.302 4.571.302h.939c.504 0 .908.404.908.909a.904.904 0 0 1-.908.908M5.937 9.872A3.94 3.94 0 0 1 2 5.936 3.94 3.94 0 0 1 5.936 2a3.94 3.94 0 0 1 3.936 3.936 3.94 3.94 0 0 1-3.936 3.936m0-6.055a2.119 2.119 0 1 0 0 4.238 2.119 2.119 0 0 0 0-4.238"/>
</svg>