<svg xmlns="http://www.w3.org/2000/svg" width="26" height="26" fill="currentColor" class="sym sym-route-solid" viewBox="0 0 26 26">
  <path d="M5.417 2.025a4.4 4.4 0 0 0-1.705.673c-.777.529-1.34 1.327-1.604 2.281-.096.348-.108.46-.108 1.012 0 .554.012.664.11 1.019a4.07 4.07 0 0 0 2.366 2.693l.027.01c1.817.723 3.95-.006 4.933-1.685 1.061-1.812.542-4.162-1.177-5.33a4.7 4.7 0 0 0-1.28-.584l-.034-.009c-.387-.094-1.177-.136-1.528-.08m6.809 3.022a.99.99 0 0 0-.71.944c.003.463.323.85.754.956l.007.001c.128.028.792.045 1.775.045 2.118 0 3.087.08 3.354.275.15.111.294.423.313.682.015.214.008.238-.145.43-.417.528-.8.813-6.42 4.784a154 154 0 0 0-3.762 2.686l.577-.406c-1.346 1.038-1.85 1.598-2.075 2.307-.114.365-.12 1.107-.014 1.5.225.814.727 1.474 1.361 1.785.762.372 1.842.474 4.815.453 1.944-.014 1.868-.003 2.14-.276.214-.213.263-.345.263-.698 0-.354-.049-.485-.262-.699-.274-.273-.156-.26-2.541-.29-2.441-.03-3.174-.083-3.515-.258-.229-.117-.426-.629-.35-.91.056-.2.365-.524.937-.983.624-.501.883-.688 4.591-3.312 3.206-2.21 4.387-3.057 5.565-3.908l-1.938 1.332c1.72-1.252 2.33-1.863 2.624-2.635.07-.183.095-.35.11-.718.024-.628-.043-.953-.31-1.49-.462-.938-1.165-1.372-2.484-1.534-.897-.11-4.315-.157-4.66-.064m7.306 11.007a4.13 4.13 0 0 0-2.042.863l.009-.007a4.01 4.01 0 0 0-1.453 3.52l-.002-.017c.06.538.166.91.4 1.385 1.064 2.156 3.793 2.867 5.819 1.515 1.186-.792 1.872-2.27 1.715-3.696a3.8 3.8 0 0 0-.411-1.406l.01.021c-.6-1.216-1.767-2.026-3.146-2.182-.405-.046-.477-.046-.9.003z"/>
</svg>