<svg xmlns="http://www.w3.org/2000/svg" width="26" height="26" fill="currentColor" class="sym sym-rows-03-solid" viewBox="0 0 26 26">
  <path d="M6.61 4.01c-.807.067-1.337.294-1.815.773-.442.443-.683.96-.757 1.63-.049.435-.051 1.3-.003 1.47.046.169.258.414.445.513l.149.08H21.37l.15-.08c.186-.1.397-.344.444-.512.048-.171.046-1.036-.003-1.472-.052-.47-.177-.848-.388-1.168a2.65 2.65 0 0 0-1.679-1.178c-.225-.051-.937-.059-6.697-.063a914 914 0 0 0-6.81.008zm-1.82 6.323a.83.83 0 0 0-.698.505c-.073.16-.075.205-.075 2.165s.002 2.005.075 2.164c.09.2.247.356.441.445l.005.002.162.076h16.598l.162-.076c.2-.09.356-.248.444-.442l.002-.005c.074-.159.076-.205.076-2.164s-.002-2.006-.076-2.165a.9.9 0 0 0-.44-.444l-.006-.002-.162-.076-8.155-.005c-4.485-.003-8.243.007-8.352.022m-.029 7.214c-.282.032-.481.162-.637.414l-.108.176.006.705c.01 1.013.1 1.433.41 1.915.297.46.79.872 1.247 1.045.544.207.203.198 7.32.198 7.116 0 6.775.009 7.32-.198.456-.173.95-.586 1.246-1.046.31-.48.4-.901.41-1.914l.007-.705-.109-.176c-.162-.263-.348-.379-.67-.416-.318-.037-16.117-.035-16.442.002"/>
</svg>