<svg xmlns="http://www.w3.org/2000/svg" width="26" height="26" fill="currentColor" class="sym sym-rows-solid" viewBox="0 0 26 26">
  <path d="M6.627 4.021c-.635.043-.968.14-1.374.4-.45.288-.865.786-1.04 1.25-.173.457-.191.673-.191 2.367 0 1.692.018 1.91.19 2.365.232.614.857 1.242 1.467 1.472.545.206.203.197 7.32.197 7.116 0 6.774.009 7.319-.197.61-.23 1.236-.858 1.468-1.472.172-.456.19-.673.19-2.365s-.019-1.91-.19-2.366c-.232-.614-.858-1.241-1.468-1.471-.527-.2-.225-.192-7.013-.2-3.445-.004-6.45.004-6.678.02m-.017 9.894c-.806.068-1.336.294-1.815.773-.442.442-.682.958-.757 1.628-.05.45-.05 2.808 0 3.259.052.47.177.847.388 1.167.474.722 1.127 1.12 1.996 1.217.483.055 12.673.055 13.156 0 .869-.097 1.521-.495 1.996-1.217.21-.32.335-.697.388-1.167.05-.45.05-2.809 0-3.26-.052-.47-.177-.847-.388-1.166a2.65 2.65 0 0 0-1.68-1.177c-.224-.051-.936-.059-6.696-.063a885 885 0 0 0-6.81.008z"/>
</svg>