<svg xmlns="http://www.w3.org/2000/svg" width="26" height="26" fill="currentColor" class="sym sym-rows-02-solid" viewBox="0 0 26 26">
  <path d="M6.61 4.01c-.342.029-.7.098-.91.177-.68.257-1.322.925-1.535 1.6-.146.464-.165.83-.165 3.24 0 2.581-.005 2.53.27 2.804.291.293-.47.27 8.73.27s8.439.024 8.73-.27c.274-.274.27-.223.27-2.803 0-2.411-.019-2.777-.165-3.241-.207-.657-.837-1.325-1.495-1.586-.508-.202-.149-.192-7.142-.198a913 913 0 0 0-6.81.008h.223zm-1.818 9.93a.83.83 0 0 0-.699.505c-.075.16-.075.195-.073 2.633.003 2.65.009 2.765.193 3.251.232.616.857 1.243 1.467 1.473.545.207.204.198 7.32.198 7.115 0 6.774.009 7.318-.198.61-.23 1.236-.858 1.468-1.473.184-.486.19-.601.192-3.251.003-2.438.002-2.473-.073-2.633a.9.9 0 0 0-.44-.445l-.006-.002-.162-.075-8.153-.005c-4.485-.003-8.243.007-8.352.021"/>
</svg>