<svg xmlns="http://www.w3.org/2000/svg" width="26" height="26" fill="currentColor" class="sym sym-rows-03" viewBox="0 0 26 26">
  <path d="M16.775 22h-7.55c-1.657 0-2.486 0-3.254-.394a3.55 3.55 0 0 1-1.577-1.577C4 19.261 4 18.432 4 16.775v-7.55c0-1.657 0-2.486.394-3.254a3.55 3.55 0 0 1 1.577-1.577C6.739 4 7.568 4 9.225 4h7.55c1.657 0 2.486 0 3.254.394a3.55 3.55 0 0 1 1.577 1.577C22 6.739 22 7.568 22 9.225v7.55c0 1.657 0 2.486-.394 3.254a3.55 3.55 0 0 1-1.577 1.577c-.768.394-1.597.394-3.254.394M5.829 16.613v.172c0 1.324 0 2.041.192 2.425.172.344.445.607.779.779.384.192 1.111.192 2.425.192h7.55c1.324 0 2.041 0 2.425-.192.344-.172.607-.445.779-.779.192-.384.192-1.111.192-2.425v-.172H5.819zm0-1.82h14.352v-3.567H5.829zm0-5.386h14.352v-.172c0-1.324 0-2.041-.192-2.425a1.76 1.76 0 0 0-.779-.779c-.384-.192-1.111-.192-2.425-.192h-7.55c-1.324 0-2.041 0-2.425.192a1.76 1.76 0 0 0-.779.779c-.192.384-.192 1.111-.192 2.425v.172z"/>
</svg>