<svg xmlns="http://www.w3.org/2000/svg" width="26" height="26" fill="currentColor" class="sym sym-rows" viewBox="0 0 26 26">
  <path d="M18.216 12.105H7.784c-1.113 0-1.73 0-2.307-.294a2.68 2.68 0 0 1-1.184-1.184C4 10.051 4 9.433 4 8.32v-.536c0-1.113 0-1.73.293-2.307.263-.516.668-.92 1.184-1.184C6.054 4 6.671 4 7.784 4h10.432c1.113 0 1.73 0 2.307.293.516.263.92.668 1.184 1.184C22 6.054 22 6.671 22 7.784v.536c0 1.113 0 1.73-.293 2.307a2.7 2.7 0 0 1-1.184 1.184c-.577.294-1.194.294-2.307.294M7.784 5.81c-.779 0-1.295 0-1.477.101a.83.83 0 0 0-.385.385c-.1.192-.1.708-.1 1.477v.536c0 .78 0 1.295.1 1.488a.9.9 0 0 0 .385.384c.192.101.708.101 1.487.101h10.432c.78 0 1.295 0 1.477-.1a.83.83 0 0 0 .385-.385c.1-.193.1-.709.1-1.478v-.536c0-.779 0-1.295-.1-1.477a.83.83 0 0 0-.385-.385c-.192-.1-.708-.1-1.477-.1H7.794zM18.216 22H7.784c-1.113 0-1.73 0-2.307-.293a2.68 2.68 0 0 1-1.184-1.184C4 19.946 4 19.329 4 18.216v-.536c0-1.113 0-1.73.293-2.307a2.68 2.68 0 0 1 1.184-1.184c.577-.294 1.194-.294 2.307-.294h10.432c1.113 0 1.73 0 2.307.294.516.263.92.668 1.184 1.184.293.576.293 1.194.293 2.307v.536c0 1.113 0 1.73-.293 2.307a2.68 2.68 0 0 1-1.184 1.184c-.577.293-1.194.293-2.307.293M7.784 15.707c-.779 0-1.295 0-1.477.1a.83.83 0 0 0-.385.385c-.1.192-.1.709-.1 1.477v.537c0 .779 0 1.295.1 1.477a.83.83 0 0 0 .385.384c.192.102.708.102 1.477.102h10.432c.779 0 1.295 0 1.477-.102a.83.83 0 0 0 .385-.384c.1-.192.1-.708.1-1.477v-.537c0-.779 0-1.295-.1-1.487a.9.9 0 0 0-.385-.384c-.192-.101-.708-.101-1.487-.101H7.774z"/>
</svg>