<svg xmlns="http://www.w3.org/2000/svg" width="26" height="26" fill="currentColor" class="sym sym-ruler" viewBox="0 0 26 26">
  <path d="M8.867 22c-.142 0-.284-.02-.415-.06-.293-.092-.486-.284-.698-.497l-3.198-3.197.648-.647-.648.637c-.212-.212-.394-.395-.495-.698a1.4 1.4 0 0 1 0-.82c.09-.303.283-.485.495-.698L16.02 4.557c.213-.213.405-.405.709-.496.263-.081.556-.081.82 0 .293.09.485.283.697.496l3.198 3.197c.222.212.404.405.495.708.081.263.081.546 0 .82-.09.303-.283.485-.495.698L9.98 21.444c-.213.212-.405.404-.709.495q-.195.06-.404.061m-2.854-4.867 2.844 2.843 11.11-11.11-2.844-2.842-1.194 1.194 1.012 1.011a.91.91 0 0 1 0 1.285.91.91 0 0 1-1.285 0l-1.012-1.011-1.194 1.193 1.012 1.012a.91.91 0 0 1 0 1.285.91.91 0 0 1-1.285 0l-1.012-1.011-1.194 1.193 1.012 1.012a.91.91 0 0 1-1.285 1.285L9.686 13.46l-1.194 1.194 1.012 1.012a.91.91 0 0 1 0 1.285.91.91 0 0 1-1.285 0L7.207 15.94z"/>
</svg>