<svg xmlns="http://www.w3.org/2000/svg" width="26" height="26" fill="currentColor" class="sym sym-ruler-solid" viewBox="0 0 26 26">
  <path fill-rule="evenodd" d="M16.92 4.018c-.38.08-.15-.14-6.598 6.307-5.888 5.884-6.106 6.107-6.212 6.333-.097.207-.11.266-.11.518 0 .251.013.31.11.517.103.22.22.345 2.037 2.16s1.94 1.934 2.16 2.037c.208.098.267.11.518.11.252 0 .31-.012.518-.11.225-.105.449-.324 6.335-6.21s6.106-6.11 6.212-6.335c.098-.207.11-.266.11-.517 0-.252-.012-.31-.11-.518-.103-.22-.22-.344-2.037-2.16-1.772-1.771-1.945-1.935-2.144-2.027a1.34 1.34 0 0 0-.798-.103zm-.628 3.656c.12.06.371.29.886.81.621.626.729.75.776.892a.82.82 0 0 1-.195.871.82.82 0 0 1-.871.195c-.142-.048-.266-.155-.892-.776-.812-.805-.892-.916-.892-1.247 0-.338.154-.598.44-.74a.84.84 0 0 1 .748-.005m-2.504 2.505c.12.06.37.29.886.81.62.626.728.75.776.891a.82.82 0 0 1-.195.872.82.82 0 0 1-.871.194c-.143-.047-.266-.155-.892-.775-.813-.805-.893-.916-.893-1.247 0-.338.155-.598.44-.74a.84.84 0 0 1 .749-.005m-2.505 2.505c.12.059.37.29.886.81.62.626.728.75.776.891a.82.82 0 0 1-.195.871.82.82 0 0 1-.871.195c-.142-.048-.266-.155-.892-.776-.812-.805-.893-.916-.893-1.247 0-.338.155-.598.44-.74a.84.84 0 0 1 .749-.004m-2.505 2.504c.12.06.37.29.886.81.62.626.728.75.776.892a.82.82 0 0 1-.195.87.82.82 0 0 1-.871.196c-.142-.048-.266-.156-.892-.776-.812-.805-.893-.916-.893-1.247 0-.338.155-.598.44-.74a.84.84 0 0 1 .749-.005"/>
</svg>