<svg xmlns="http://www.w3.org/2000/svg" width="26" height="26" fill="currentColor" class="sym sym-sale" viewBox="0 0 26 26">
  <path d="M13 22c-.92 0-1.85-.324-2.597-.96a2.1 2.1 0 0 0-1.244-.516 4.01 4.01 0 0 1-3.688-3.68c-.04-.466-.213-.9-.516-1.244a4.01 4.01 0 0 1 0-5.197 2.17 2.17 0 0 0 .516-1.244 4.01 4.01 0 0 1 3.678-3.68 2.17 2.17 0 0 0 1.244-.516 4 4 0 0 1 5.204 0c.354.303.779.485 1.243.516a4.01 4.01 0 0 1 3.69 3.68c.04.465.212.9.515 1.244a4.01 4.01 0 0 1 0 5.197 2.17 2.17 0 0 0-.516 1.243 4.01 4.01 0 0 1-3.678 3.68c-.465.041-.89.213-1.243.517A4.04 4.04 0 0 1 13 22M9.301 7.289A2.17 2.17 0 0 0 7.29 9.301a4.04 4.04 0 0 1-.94 2.285 2.19 2.19 0 0 0 0 2.84c.546.638.88 1.437.94 2.286a2.17 2.17 0 0 0 2.01 2.002c.839.07 1.627.394 2.274.95a2.19 2.19 0 0 0 2.84 0 3.97 3.97 0 0 1 2.274-.94 2.17 2.17 0 0 0 2.011-2.012c.071-.85.394-1.638.94-2.285a2.19 2.19 0 0 0 0-2.841A3.94 3.94 0 0 1 18.7 9.3a2.17 2.17 0 0 0-2.011-2.002 3.98 3.98 0 0 1-2.274-.95 2.19 2.19 0 0 0-2.84 0 3.97 3.97 0 0 1-2.274.94m.465 9.858a.94.94 0 0 1-.647-.263.91.91 0 0 1 0-1.284l6.468-6.471a.909.909 0 0 1 1.284 1.284l-6.468 6.47a.9.9 0 0 1-.647.264zm5.66-.405a1.31 1.31 0 0 1-1.314-1.314c0-.728.586-1.315 1.314-1.315.727 0 1.313.587 1.313 1.315s-.586 1.314-1.313 1.314m-4.852-4.853a1.31 1.31 0 0 1-1.313-1.314c0-.728.586-1.315 1.313-1.315.728 0 1.314.587 1.314 1.315s-.586 1.314-1.314 1.314"/>
</svg>