<svg xmlns="http://www.w3.org/2000/svg" width="26" height="26" fill="currentColor" class="sym sym-save-solid" viewBox="0 0 26 26">
  <path fill-rule="evenodd" d="M6.844 3.028c-.879.062-1.507.263-2.13.682-.542.366-1.14 1.094-1.378 1.68-.14.348-.245.83-.293 1.358-.057.63-.057 11.86 0 12.49.079.86.24 1.364.62 1.95.292.447.703.857 1.15 1.15.592.384 1.1.545 1.971.62.653.056 11.799.056 12.452 0 .87-.075 1.377-.234 1.97-.62.68-.44 1.293-1.204 1.537-1.91.264-.766.257-.608.257-6.115 0-4.706-.004-4.998-.073-5.242a3.7 3.7 0 0 0-.438-.964l.009.014c-.165-.245-4.044-4.146-4.434-4.46a3.2 3.2 0 0 0-1.108-.579l-.022-.006c-.24-.063-.618-.07-4.944-.075-2.577-.004-4.891.008-5.145.024zm9.81 2.087c.098.059.447.376.774.705l.594.597-.014.916c-.013.866-.019.928-.108 1.107a.96.96 0 0 1-.576.49h-.007c-.297.088-8.318.088-8.614 0a.96.96 0 0 1-.581-.485L8.12 8.44c-.094-.189-.094-.204-.106-1.822L8 4.986l8.473.021zm.81 8.992c.206.102.368.27.467.487.057.124.065.504.075 3.273l.012 3.132H8.005v-2.997c0-1.863.015-3.078.042-3.211a.92.92 0 0 1 .716-.753h.007c.098-.02 2.05-.034 4.34-.03l4.165.006z"/>
</svg>