<svg xmlns="http://www.w3.org/2000/svg" width="26" height="26" fill="currentColor" class="sym sym-save" viewBox="0 0 26 26">
  <path d="M18.05 22.98H7.89c-1.283-.01-2.04-.07-2.737-.424a3.9 3.9 0 0 1-1.728-1.728C3 20 3 19.071 3 17.232V8.747c0-1.838 0-2.767.434-3.606a3.9 3.9 0 0 1 1.718-1.717C5.848 3.071 6.596 3.01 7.879 3h7.808c.555 0 .858 0 1.192.08.303.072.596.193.848.354.283.172.495.384.839.718l3.212 3.222c.384.373.596.586.777.879.203.353.303.626.364.909.08.282.081.606.081 1.141v6.95c0 1.838 0 2.767-.434 3.606a3.87 3.87 0 0 1-1.717 1.717c-.698.353-1.445.414-2.728.424h-.06zm-9.19-1.818h8.282v-5.556c0-.293 0-.596-.02-.677-.09-.03-.394-.03-.687-.03H9.566c-.293 0-.596 0-.677.02-.03.091-.03.394-.03.687zm.707-8.081h6.868c.667 0 1.071 0 1.475.212.374.192.677.495.849.859.201.383.202.787.202 1.454v5.535c.485-.03.828-.08 1.06-.202.404-.202.727-.525.92-.919.242-.464.242-1.293.242-2.788v-6.95c0-.403 0-.625-.03-.737a1.3 1.3 0 0 0-.142-.373c-.05-.071-.192-.223-.505-.526L18.96 7.101v.232c0 .667 0 1.071-.213 1.485a1.87 1.87 0 0 1-.838.839c-.404.212-.808.212-1.475.212H9.566c-.667 0-1.071 0-1.475-.212a1.9 1.9 0 0 1-.849-.859c-.202-.384-.202-.788-.202-1.455V4.838c-.484.03-.828.081-1.06.202a2.03 2.03 0 0 0-.92.92c-.242.464-.242 1.293-.242 2.787v8.485c0 1.495 0 2.324.233 2.778.202.404.525.727.929.93.242.12.576.181 1.06.211v-5.535c0-.666 0-1.07.213-1.485a1.87 1.87 0 0 1 .838-.838c.404-.212.808-.212 1.475-.212m-.707-8.283v2.525c0 .293 0 .596.02.677.09.03.394.03.687.03h6.868c.293 0 .596 0 .677-.02.03-.09.03-.394.03-.687v-2.05C16.96 5.1 16.86 5 16.788 4.96a1.1 1.1 0 0 0-.323-.132c-.122-.03-.354-.03-.758-.03z"/>
</svg>