<svg xmlns="http://www.w3.org/2000/svg" width="26" height="26" fill="currentColor" class="sym sym-scale-02-solid" viewBox="0 0 26 26">
  <path d="M7.459 4.034c-.79.054-1.357.235-1.918.613-.488.33-1.025.984-1.24 1.512-.127.313-.221.745-.265 1.22-.048.535-.048 2.103 0 2.278a.96.96 0 0 0 .441.527.89.89 0 0 0 1.054-.156c.243-.241.261-.347.282-1.55.02-1.149.05-1.415.195-1.71.125-.255.509-.64.765-.765.391-.192.306-.19 6.235-.19s5.844-.002 6.235.19c.254.125.64.51.765.764.192.391.19.306.19 6.23 0 5.928.002 5.844-.19 6.23a2 2 0 0 1-.665.714c-.323.194-.56.227-1.831.254-1.126.024-1.138.025-1.316.116-.718.37-.603 1.436.18 1.654.238.068 2.217.03 2.686-.051.77-.132 1.34-.427 1.89-.976.553-.553.84-1.11.983-1.908.06-.335.065-.74.065-6.032 0-6.278.01-5.99-.232-6.69-.203-.593-.758-1.304-1.293-1.663-.586-.392-1.114-.555-2-.615-.608-.042-10.406-.039-11.018.002z"/>
  <path d="M12.811 7.63c-.677.168-.916 1.004-.428 1.493.057.056.168.137.247.179.139.074.203.078 1.415.095l1.272.018-2.942 2.94-.322-.095c-.493-.142-1.21-.172-3.584-.15-2.156.02-2.332.032-2.78.202-.622.235-1.24.853-1.475 1.472-.187.494-.192.594-.192 3.266 0 2.675.005 2.772.194 3.27.23.61.858 1.237 1.472 1.47.493.185.595.19 3.268.19s2.774-.005 3.267-.19c.614-.233 1.242-.86 1.472-1.47.173-.453.185-.625.206-2.783.022-2.373-.009-3.09-.151-3.582l-.094-.321 2.94-2.94.019 1.27c.017 1.212.022 1.276.095 1.415.177.329.449.497.806.497.356 0 .629-.168.805-.497.078-.144.078-.156.078-2.63s0-2.486-.078-2.63a1.03 1.03 0 0 0-.42-.423l-.006-.003c-.144-.076-.165-.078-2.56-.084-1.329-.002-2.464.006-2.523.022"/>
</svg>