<svg xmlns="http://www.w3.org/2000/svg" width="26" height="26" fill="currentColor" class="sym sym-scale-03" viewBox="0 0 26 26">
  <path d="M16.775 22h-7.55c-1.597 0-2.486 0-3.254-.394a3.6 3.6 0 0 1-1.577-1.577C4 19.261 4 18.382 4 16.775v-7.55c0-1.597 0-2.486.394-3.254a3.6 3.6 0 0 1 1.577-1.577C6.739 4 7.618 4 9.225 4h7.55c1.597 0 2.486 0 3.254.394.677.344 1.223.89 1.577 1.577C22 6.739 22 7.618 22 9.225v7.55c0 1.597 0 2.486-.394 3.254a3.6 3.6 0 0 1-1.577 1.577c-.768.394-1.647.394-3.254.394M9.225 5.83c-1.314 0-2.041 0-2.425.191a1.76 1.76 0 0 0-.779.779c-.192.384-.192 1.111-.192 2.425v7.55c0 1.314 0 2.041.192 2.425.172.344.445.607.779.779.384.192 1.111.192 2.425.192h7.55c1.314 0 2.041 0 2.426-.192a1.76 1.76 0 0 0 .778-.779c.192-.384.192-1.111.192-2.425v-3.022c-.495.152-1.061.152-1.961.152h-2.335c-1.071 0-1.677 0-2.233-.263l-2.931 2.93h2.294c.505 0 .91.405.91.91 0 .506-.405.91-.91.91H8.518a1 1 0 0 1-.354-.07 1.1 1.1 0 0 1-.303-.213.8.8 0 0 1-.172-.263.85.85 0 0 1-.07-.354v-4.487c0-.505.403-.91.909-.91.505 0 .91.405.91.91v2.294l2.93-2.93c-.262-.557-.262-1.163-.262-2.234V7.8c0-.9 0-1.476.151-1.96H9.235zm6.65 0c-.778 0-1.293 0-1.475.09a.88.88 0 0 0-.384.384c-.101.192-.101.708-.101 1.486v2.335c0 .778 0 1.293.09 1.475a.9.9 0 0 0 .385.384c.192.101.707.101 1.485.101h2.335c.778 0 1.294 0 1.476-.09a.9.9 0 0 0 .384-.385c.1-.192.1-.707.1-1.485v-.9c0-1.314 0-2.041-.191-2.425a1.76 1.76 0 0 0-.778-.779c-.385-.192-1.112-.192-2.426-.192z"/>
</svg>