<svg xmlns="http://www.w3.org/2000/svg" width="26" height="26" fill="currentColor" class="sym sym-scale-02" viewBox="0 0 26 26">
  <path d="M16.765 21.99h-.182a.906.906 0 0 1-.91-.91c0-.505.405-.91.91-.91h.182c1.314 0 2.041 0 2.425-.191.344-.172.607-.445.778-.778.193-.385.193-1.112.193-2.426v-7.55c0-1.314 0-2.041-.193-2.425a1.76 1.76 0 0 0-.778-.779c-.384-.192-1.111-.192-2.425-.192h-7.55c-1.314 0-2.041 0-2.426.192a1.76 1.76 0 0 0-.778.779c-.192.384-.192 1.111-.192 2.425v.182c0 .505-.404.91-.91.91A.906.906 0 0 1 4 9.407v-.182c0-1.597 0-2.486.394-3.254a3.6 3.6 0 0 1 1.577-1.577C6.739 4 7.618 4 9.225 4h7.55c1.597 0 2.486 0 3.254.394.677.344 1.223.89 1.577 1.577C22 6.739 22 7.618 22 9.225v7.55c0 1.597 0 2.486-.394 3.254a3.6 3.6 0 0 1-1.577 1.577c-.768.394-1.647.394-3.254.394zm-6.65 0H7.78c-1.112 0-1.728 0-2.304-.293a2.68 2.68 0 0 1-1.183-1.183C4 19.938 4 19.322 4 18.21v-2.335c0-1.111 0-1.728.293-2.304.263-.515.667-.92 1.183-1.182.576-.293 1.192-.293 2.304-.293h2.334c1.072 0 1.678 0 2.234.262l2.931-2.93h-2.294a.906.906 0 0 1-.91-.91c0-.506.405-.91.91-.91h4.487c.121 0 .243.03.354.07.09.041.182.102.263.173l.04.04a.8.8 0 0 1 .172.263c.05.111.07.232.07.354v4.487c0 .505-.404.91-.909.91a.906.906 0 0 1-.91-.91v-2.294l-2.93 2.93c.262.557.262 1.163.262 2.234V18.2c0 1.112 0 1.728-.293 2.304-.262.516-.667.92-1.182 1.183-.576.293-1.193.293-2.305.293zM7.78 13.905c-.778 0-1.294 0-1.476.09a.9.9 0 0 0-.384.385c-.1.192-.1.707-.1 1.485V18.2c0 .778 0 1.294.09 1.476a.88.88 0 0 0 .384.384c.192.1.708.1 1.486.1h2.334c.779 0 1.294 0 1.476-.09a.9.9 0 0 0 .384-.384c.101-.192.101-.708.101-1.486v-2.335c0-.778 0-1.293-.09-1.475a.9.9 0 0 0-.385-.384c-.192-.101-.707-.101-1.485-.101z"/>
</svg>