<svg xmlns="http://www.w3.org/2000/svg" width="26" height="26" fill="currentColor" class="sym sym-scale-solid" viewBox="0 0 26 26">
  <path d="M6.89 4.032A3.26 3.26 0 0 0 4.099 6.48l-.004.023c-.082.324-.127 1.578-.065 1.807.16.589.928.79 1.362.356.204-.204.245-.361.246-.933.003-.91.095-1.217.487-1.61.393-.392.7-.484 1.61-.487.57 0 .728-.042.931-.245a.804.804 0 0 0 0-1.148c-.21-.21-.356-.245-.98-.24-.29.002-.647.016-.795.03m4.294-.006c-.615.154-.832.913-.389 1.357.052.051.152.125.224.163.13.07.152.07 1.982.07s1.851 0 1.981-.07c.3-.16.453-.407.453-.732 0-.324-.153-.571-.453-.731-.13-.07-.157-.07-1.915-.076-.982-.003-1.83.005-1.883.02m6.547-.001c-.613.15-.832.914-.388 1.357.209.21.29.228 1.06.251.73.023.799.035 1.114.196.182.093.505.4.61.58.197.335.217.433.239 1.188.017.627.027.718.089.836.156.298.405.452.73.452q.49-.001.731-.452c.067-.125.071-.172.065-.836-.004-.553-.02-.77-.07-1.015-.24-1.173-1.175-2.162-2.323-2.459-.394-.101-1.582-.164-1.857-.098M4.638 10.575a.87.87 0 0 0-.55.44l-.002.004-.07.132-.01 3.323c-.01 3.533.013 4.514.12 5.033a3.12 3.12 0 0 0 2.37 2.37c.514.108 1.524.13 5.049.121l3.307-.01.131-.07c.3-.16.453-.408.453-.732s-.153-.572-.453-.732c-.12-.064-.19-.07-.862-.08-.541-.009-.727-.022-.715-.05.179-.41.236-.574.287-.822.162-.776.17-3.943.01-4.766a2.85 2.85 0 0 0-.443-1.077l.006.01c-.473-.719-1.2-1.217-2-1.37-.823-.158-3.99-.15-4.765.01-.248.052-.41.109-.822.288-.027.012-.04-.174-.049-.715-.01-.672-.016-.741-.08-.863-.182-.34-.576-.532-.912-.444m16.368 0a.87.87 0 0 0-.55.44l-.002.004c-.07.13-.07.152-.07 1.982s0 1.852.07 1.982c.16.3.407.452.731.452s.572-.152.732-.452c.07-.13.07-.152.07-1.982s0-1.852-.07-1.982c-.182-.34-.575-.532-.912-.444m.001 6.548a.86.86 0 0 0-.55.445c-.062.117-.072.209-.09.836-.023.73-.035.799-.196 1.114-.093.182-.4.505-.58.611-.335.196-.432.216-1.187.238-.627.018-.718.028-.836.09-.298.156-.452.405-.452.73s.153.571.452.731c.125.067.172.07.836.065.553-.005.77-.02 1.015-.07 1.173-.24 2.16-1.175 2.458-2.324.077-.298.14-1.134.12-1.578-.015-.34-.073-.499-.241-.667-.187-.186-.513-.282-.75-.22"/>
</svg>