<svg xmlns="http://www.w3.org/2000/svg" width="26" height="26" fill="currentColor" class="sym sym-scale-03-solid" viewBox="0 0 26 26">
  <path fill-rule="evenodd" d="M7.46 4.034c-.789.054-1.356.235-1.917.613-.489.33-1.026.984-1.24 1.512-.127.313-.221.746-.264 1.221-.052.567-.052 10.672 0 11.239.07.774.215 1.228.558 1.755.263.402.632.772 1.035 1.035.55.358 1 .494 1.842.56.351.028 2.168.036 5.877.028 5.923-.015 5.663-.005 6.352-.241.885-.305 1.76-1.18 2.065-2.065.241-.701.232-.413.232-6.692 0-6.278.01-5.99-.232-6.691-.203-.592-.758-1.304-1.293-1.663-.585-.392-1.113-.555-1.999-.615-.608-.042-10.404-.039-11.016.002zm4.793 1.772c0 .005-.027.122-.06.26-.052.219-.062.57-.075 2.612-.017 2.56.002 2.959.157 3.42l.09.268-2.96 2.958v-1.227c0-1.402-.01-1.47-.27-1.729a.885.885 0 0 0-1.058-.152l.005-.002a.96.96 0 0 0-.442.535q-.038.14-.028 2.583l.01 2.442.1.17c.055.093.153.211.219.26.265.203.225.2 2.814.2 2.692 0 2.608.008 2.885-.27a.885.885 0 0 0 0-1.263c-.258-.258-.326-.269-1.728-.269h-1.228l2.958-2.956.28.09c.472.155.856.173 3.41.157 2.043-.013 2.395-.024 2.612-.075.044-.013.133-.034.223-.053l.042-.007c.035 0-.028 4.866-.064 5.06-.083.438-.403.886-.804 1.127-.424.255-.095.243-6.334.243s-5.91.012-6.333-.243a2 2 0 0 1-.66-.704l-.005-.01c-.193-.387-.19-.302-.19-6.23s-.003-5.845.19-6.23c.194-.387.636-.766 1.01-.866.3-.079.868-.099 3.043-.103 1.204-.003 2.189 0 2.189.004z"/>
</svg>