<svg xmlns="http://www.w3.org/2000/svg" width="26" height="26" fill="currentColor" class="sym sym-scale" viewBox="0 0 26 26">
  <path d="M17.854 22a.906.906 0 0 1-.91-.91c0-.506.404-.91.91-.91.627 0 1.011 0 1.203-.05.526-.142.93-.547 1.072-1.073.05-.192.05-.576.05-1.203 0-.506.405-.91.91-.91.507 0 .911.404.911.91 0 .83 0 1.254-.111 1.679a3.34 3.34 0 0 1-2.356 2.356c-.425.111-.84.111-1.669.111zm-3.236 0H8.793c-1.456 0-2.255 0-2.973-.364a3.4 3.4 0 0 1-1.456-1.456C4 19.462 4 18.663 4 17.207v-5.825c0-.506.405-.91.91-.91.506 0 .91.404.91.91v1.072c.718-.364 1.517-.364 2.973-.364h.324c1.456 0 2.255 0 2.973.364.627.324 1.133.83 1.456 1.456.364.718.364 1.517.364 2.973v.324c0 1.456 0 2.255-.364 2.973h1.072c.506 0 .91.404.91.91s-.404.91-.91.91m-5.825-1.82h.324c1.173 0 1.82 0 2.144-.162.283-.142.515-.384.667-.668.162-.323.162-.97.162-2.143v-.324c0-1.173 0-1.82-.162-2.144a1.57 1.57 0 0 0-.667-.667c-.324-.162-.971-.162-2.144-.162h-.324c-1.173 0-1.82 0-2.144.162a1.57 1.57 0 0 0-.667.667c-.162.324-.162.971-.162 2.144v.324c0 1.173 0 1.82.162 2.143.142.284.384.516.667.668.324.162.971.162 2.144.162m12.297-4.652a.906.906 0 0 1-.91-.91v-3.236c0-.506.404-.91.91-.91s.91.404.91.91v3.236c0 .506-.404.91-.91.91m0-6.472a.906.906 0 0 1-.91-.91c0-.627 0-1.011-.05-1.203a1.51 1.51 0 0 0-1.073-1.072c-.192-.05-.576-.05-1.203-.05a.906.906 0 0 1-.91-.91c0-.506.404-.911.91-.911.83 0 1.254 0 1.679.111a3.34 3.34 0 0 1 2.356 2.356c.111.425.111.84.111 1.669 0 .506-.404.91-.91.91zm-16.18 0a.906.906 0 0 1-.91-.91c0-.83 0-1.254.111-1.679a3.34 3.34 0 0 1 2.356-2.356c.425-.11.84-.111 1.669-.111.506 0 .91.405.91.91 0 .506-.404.91-.91.91-.627 0-1.011 0-1.203.05-.526.142-.93.547-1.072 1.073-.05.192-.05.576-.05 1.203 0 .506-.405.91-.911.91zm9.708-3.236h-3.236a.906.906 0 0 1-.91-.91c0-.505.404-.91.91-.91h3.236c.506 0 .91.405.91.91 0 .506-.404.91-.91.91"/>
</svg>