<svg xmlns="http://www.w3.org/2000/svg" width="26" height="26" fill="currentColor" class="sym sym-scan" viewBox="0 0 26 26">
  <path d="M16.775 21.99h-.182a.906.906 0 0 1-.91-.91c0-.504.405-.908.91-.908h.182c1.324 0 2.041 0 2.426-.192.343-.172.606-.445.778-.778.192-.384.192-1.111.192-2.424v-.182c0-.505.404-.91.91-.91.505 0 .909.405.909.91v.182c0 1.596 0 2.485-.394 3.252a3.6 3.6 0 0 1-1.577 1.576c-.768.394-1.597.394-3.254.394zm-7.368 0h-.182c-1.657 0-2.486 0-3.254-.394a3.5 3.5 0 0 1-1.577-1.576C4 19.253 4 18.374 4 16.768v-.182c0-.505.404-.91.91-.91.505 0 .91.405.91.91v.182c0 1.313 0 2.04.191 2.424.172.343.445.606.778.778.385.192 1.112.192 2.426.192h.182c.505 0 .91.404.91.909s-.405.909-.91.909zm11.683-8.08a.906.906 0 0 1-.91-.91c0-.505.405-.91.91-.91.506 0 .91.405.91.91s-.404.91-.91.91m-4.042 0a.906.906 0 0 1-.91-.91c0-.505.404-.91.91-.91.505 0 .91.405.91.91s-.405.91-.91.91m-4.043 0a.905.905 0 0 1-.91-.91c0-.505.405-.91.91-.91s.91.405.91.91-.405.91-.91.91m-4.043 0a.906.906 0 0 1-.91-.91c0-.505.405-.91.91-.91.506 0 .91.405.91.91s-.404.91-.91.91m-4.042 0a.906.906 0 0 1-.91-.91c0-.505.404-.91.91-.91.505 0 .91.405.91.91s-.405.91-.91.91m16.16-3.597a.906.906 0 0 1-.91-.909v-.182c0-1.313 0-2.04-.191-2.424a1.76 1.76 0 0 0-.778-.778c-.385-.192-1.112-.192-2.426-.192h-.182a.906.906 0 0 1-.91-.909c0-.505.405-.909.91-.909h.182c1.657 0 2.486 0 3.254.394a3.55 3.55 0 0 1 1.577 1.576C22 6.747 22 7.626 22 9.232v.182c0 .505-.404.91-.91.91zm-16.17 0A.906.906 0 0 1 4 9.404v-.182c0-1.596 0-2.485.394-3.252a3.6 3.6 0 0 1 1.577-1.576C6.739 4 7.568 4 9.225 4h.182c.505 0 .91.404.91.91a.906.906 0 0 1-.91.908h-.182c-1.324 0-2.041 0-2.425.192a1.76 1.76 0 0 0-.779.778c-.192.384-.192 1.111-.192 2.424v.182a.905.905 0 0 1-.91.909z"/>
</svg>