<svg xmlns="http://www.w3.org/2000/svg" width="26" height="26" fill="currentColor" class="sym sym-scheduled" viewBox="0 0 26 26">
  <path d="M16.75 11.53a5.256 5.256 0 0 0-5.25 5.25c0 2.878 2.356 5.22 5.25 5.22A5.256 5.256 0 0 0 22 16.75c0-2.879-2.356-5.22-5.25-5.22m0 8.97c-2.068 0-3.75-1.67-3.75-3.72a3.754 3.754 0 0 1 3.75-3.75c2.068 0 3.75 1.669 3.75 3.72a3.754 3.754 0 0 1-3.75 3.75m1.28-3.53a.75.75 0 1 1-1.06 1.06l-.75-.75a.75.75 0 0 1-.22-.53v-1.5a.75.75 0 1 1 1.5 0v1.19zM22 9.25v1.5a.75.75 0 1 1-1.5 0v-1.5C20.5 8.01 19.49 7 18.25 7H7.75C6.51 7 5.5 8.01 5.5 9.25V10h6.75a.75.75 0 0 1 0 1.5H5.5v6.75c0 1.24 1.01 2.25 2.25 2.25h3a.75.75 0 0 1 0 1.5h-3A3.754 3.754 0 0 1 4 18.25v-9A3.754 3.754 0 0 1 7.75 5.5h.75v-.75a.75.75 0 0 1 1.5 0v.75h6v-.75a.75.75 0 1 1 1.5 0v.75h.75A3.754 3.754 0 0 1 22 9.25"/>
</svg>