<svg xmlns="http://www.w3.org/2000/svg" width="26" height="26" fill="currentColor" class="sym sym-scheduled-solid" viewBox="0 0 26 26">
  <path d="M21 9.667v.666H5v-.666a3.334 3.334 0 0 1 3.333-3.334H9v-.666a.667.667 0 0 1 1.333 0v.666h5.334v-.666a.667.667 0 0 1 1.333 0v.666h.667A3.334 3.334 0 0 1 21 9.667m0 6.666A4.67 4.67 0 0 1 16.333 21a4.67 4.67 0 0 1-4.666-4.667 4.67 4.67 0 0 1 4.666-4.666A4.67 4.67 0 0 1 21 16.333m-3.333.391L17 16.057V15a.667.667 0 0 0-1.333 0v1.333c0 .177.07.347.195.472l.862.862a.667.667 0 0 0 .943-.943m-7.334-.39c0-1.887.872-3.567 2.233-4.667H5v6A3.334 3.334 0 0 0 8.333 21h4.233a5.99 5.99 0 0 1-2.233-4.667"/>
</svg>