<svg xmlns="http://www.w3.org/2000/svg" width="26" height="26" fill="currentColor" class="sym sym-scissors-cut" viewBox="0 0 26 26">
  <path d="M7.127 22C5.126 22 3.5 20.382 3.5 18.39a3.57 3.57 0 0 1 1.737-3.074 1 1 0 0 1 .122-.071l.061-.03s.102-.051.153-.071L9.799 13l-4.226-2.144s-.102-.05-.153-.07l-.06-.031s-.082-.04-.123-.07A3.62 3.62 0 0 1 3.5 7.61C3.5 5.618 5.126 4 7.127 4s3.628 1.618 3.628 3.61c0 1.254-.65 2.366-1.636 3.014l2.682 1.365L20.255 7.7a.913.913 0 0 1 1.229.395.907.907 0 0 1-.396 1.223L13.813 13l7.275 3.68c.447.233.63.78.396 1.224a.913.913 0 0 1-1.23.395l-8.453-4.288-2.682 1.365a3.6 3.6 0 0 1 1.636 3.014c0 1.992-1.626 3.61-3.628 3.61m-.863-5.167a1.79 1.79 0 0 0-.925 1.567c0 .98.803 1.79 1.798 1.79.996 0 1.799-.799 1.799-1.79s-.803-1.79-1.799-1.79c-.264 0-.528.06-.751.162l-.112.06zm.111-7.605c.234.101.488.162.752.162.986 0 1.799-.799 1.799-1.79s-.803-1.79-1.799-1.79-1.797.8-1.797 1.79c0 .667.376 1.254.925 1.567l.111.061zm15.21 4.682a.91.91 0 0 1-.914-.91c0-.506.407-.91.915-.91s.914.404.914.91-.406.91-.915.91m-4.064 0a.91.91 0 0 1-.914-.91c0-.506.406-.91.914-.91s.915.404.915.91-.407.91-.915.91"/>
</svg>