<svg xmlns="http://www.w3.org/2000/svg" width="26" height="26" fill="currentColor" class="sym sym-scissors-cut-solid" viewBox="0 0 26 26">
  <path fill-rule="evenodd" d="M6.602 4.023a4 4 0 0 0-1.541.605c-1.461.988-1.976 2.928-1.203 4.53a3.8 3.8 0 0 0 1.248 1.427c.139.09 1.052.566 2.027 1.058.976.491 1.976.999 2.222 1.128l.447.234-1.352.683c-3.59 1.813-3.46 1.74-3.906 2.188-1.48 1.485-1.37 3.934.236 5.275 1.322 1.105 3.251 1.134 4.582.07a3.586 3.586 0 0 0 1.065-4.272l.01.022c-.229-.537-.665-1.095-1.107-1.415-.123-.089-.21-.171-.195-.185.11-.074.551-.305.996-.532l.352-.162 1.322-.668 4.164 2.112c-.914-.365.517.367 1.952 1.091l2.412 1.105c.36.15.73.081.997-.185a.877.877 0 0 0-.001-1.26c-.12-.116-.922-.535-3.83-2.003-2.022-1.02-3.667-1.868-3.653-1.882s1.662-.855 3.663-1.869c2.001-1.012 3.696-1.886 3.766-1.941.306-.241.404-.738.215-1.102a.9.9 0 0 0-.969-.457c-.094.021-2.094 1.012-4.445 2.203l-4.272 2.164-1.231-.624c-.678-.343-1.285-.65-1.35-.685l-.119-.062.264-.209a3.62 3.62 0 0 0 1.265-1.962l.005-.025c.117-.467.11-1.26-.02-1.734A3.64 3.64 0 0 0 9.18 4.635l-.011-.007a4.2 4.2 0 0 0-1.157-.526l-.03-.007c-.35-.085-1.064-.123-1.381-.073zm.86 1.805c.726.133 1.318.747 1.434 1.488a1.813 1.813 0 0 1-1.78 2.077 1.82 1.82 0 0 1-1.78-1.517l-.002-.01a1.74 1.74 0 0 1 .51-1.54c.443-.44.998-.61 1.618-.498m0 10.811c.726.133 1.318.747 1.434 1.488a1.813 1.813 0 0 1-1.78 2.077 1.82 1.82 0 0 1-1.78-1.517l-.002-.01a1.74 1.74 0 0 1 .51-1.54c.443-.44.998-.61 1.618-.498"/>
  <path d="M17.281 12.147c-.518.138-.787.735-.556 1.23a.88.88 0 0 0 1.061.466l-.006.002c.368-.1.634-.43.634-.821v-.029.002a.85.85 0 0 0-.62-.846c-.223-.065-.282-.066-.513-.004m4.121-.019c-.682.175-.921 1.005-.43 1.494a.89.89 0 0 0 1.064.145l-.005.002c.2-.098.35-.27.418-.478l.001-.005a.9.9 0 0 0-.142-.85l.002.002c-.177-.23-.627-.384-.91-.31z"/>
</svg>