<svg xmlns="http://www.w3.org/2000/svg" width="26" height="26" fill="currentColor" class="sym sym-scissors" viewBox="0 0 26 26">
  <path d="M7.61 22A3.614 3.614 0 0 1 4 18.386c0-1.306.688-2.44 1.73-3.078.04-.03.08-.05.12-.07l.071-.031s.081-.04.132-.06L10.27 13l-4.217-2.146s-.081-.04-.132-.061l-.07-.03s-.081-.051-.122-.071A3.63 3.63 0 0 1 4 7.614 3.614 3.614 0 0 1 7.61 4c1.992 0 3.61 1.62 3.61 3.614a3.62 3.62 0 0 1-1.628 3.017l2.67 1.357 8.413-4.293a.91.91 0 0 1 .83 1.62L14.263 13l7.24 3.685a.91.91 0 0 1-.83 1.62l-8.412-4.293-2.67 1.357a3.62 3.62 0 0 1 1.628 3.017A3.614 3.614 0 0 1 7.61 22m-.86-5.183a1.78 1.78 0 0 0-.93 1.569c0 .982.799 1.792 1.79 1.792s1.79-.8 1.79-1.792a1.788 1.788 0 0 0-2.548-1.62zm.102-7.613c.232.111.485.172.758.172.98 0 1.79-.8 1.79-1.792s-.8-1.792-1.79-1.792-1.79.8-1.79 1.792c0 .678.374 1.265.93 1.569z"/>
</svg>