<svg xmlns="http://www.w3.org/2000/svg" width="26" height="26" fill="currentColor" class="sym sym-scissors-solid" viewBox="0 0 26 26">
  <path fill-rule="evenodd" d="M7.086 4.023a3.9 3.9 0 0 0-1.533.605c-1.454.988-1.966 2.928-1.197 4.53.26.543.754 1.11 1.241 1.427.139.09 1.047.566 2.017 1.058.97.491 1.965.999 2.21 1.128l.444.234-1.344.683c-3.571 1.813-3.442 1.74-3.886 2.188-1.471 1.485-1.363 3.934.235 5.275 1.315 1.105 3.234 1.134 4.558.07a3.59 3.59 0 0 0 1.06-4.272l.009.022c-.227-.537-.66-1.095-1.101-1.415-.122-.089-.209-.171-.194-.185.11-.074.548-.305.991-.532l.35-.162 1.315-.668 4.142 2.112c-.909-.365.514.367 1.942 1.091l2.399 1.105c.358.15.725.081.991-.185a.88.88 0 0 0 0-1.26c-.12-.116-.917-.535-3.81-2.003-2.011-1.02-3.648-1.868-3.633-1.882.013-.014 1.653-.855 3.643-1.869 1.99-1.012 3.677-1.886 3.746-1.941.304-.241.401-.738.214-1.102a.89.89 0 0 0-.964-.457c-.094.021-2.083 1.012-4.421 2.203l-4.25 2.164-1.225-.624c-.674-.343-1.277-.65-1.342-.685l-.118-.062.262-.209a3.62 3.62 0 0 0 1.258-1.962l.005-.025c.117-.467.109-1.26-.019-1.734a3.64 3.64 0 0 0-1.43-2.049l-.012-.007a4.2 4.2 0 0 0-1.15-.526l-.031-.007C8.11 4.01 7.4 3.972 7.084 4.022zm.855 1.805c.723.133 1.312.747 1.426 1.488.168 1.08-.682 2.077-1.771 2.077a1.816 1.816 0 0 1-1.77-1.517l-.001-.01a1.75 1.75 0 0 1 .507-1.54c.44-.44.993-.61 1.61-.498m0 10.811c.723.133 1.312.747 1.426 1.488.168 1.08-.682 2.077-1.771 2.077a1.816 1.816 0 0 1-1.77-1.517l-.001-.01a1.75 1.75 0 0 1 .507-1.54c.44-.44.993-.61 1.61-.498"/>
</svg>