<svg xmlns="http://www.w3.org/2000/svg" width="26" height="26" fill="currentColor" class="sym sym-search-default-solid" viewBox="0 0 26 26">
  <path fill-rule="evenodd" d="M11.887 3.009a14 14 0 0 0-1.202.166c-3.672.718-6.66 3.618-7.463 7.242-.184.828-.222 1.196-.222 2.131s.038 1.303.222 2.13c.519 2.34 2.007 4.49 4.04 5.836 1.208.799 2.465 1.274 3.988 1.509.588.09 1.998.09 2.586 0 1.523-.235 2.78-.71 3.987-1.51 2.031-1.344 3.524-3.5 4.04-5.834.184-.83.223-1.196.223-2.131s-.039-1.301-.223-2.13c-.518-2.343-2.015-4.5-4.059-5.847q-1.778-1.173-3.986-1.494c-.355-.052-1.637-.097-1.931-.068m1.366 1.84a7.68 7.68 0 0 1 4.755 2.235c1.332 1.331 2.096 3.002 2.246 4.906.224 2.874-1.216 5.656-3.722 7.188-1.372.838-3.173 1.243-4.765 1.07a7.7 7.7 0 0 1-4.69-2.237 7.6 7.6 0 0 1-1.842-2.925l-.016-.054c-.943-2.821-.233-5.858 1.858-7.947a7.68 7.68 0 0 1 6.206-2.234z"/>
  <path d="M20.084 19.408a.95.95 0 0 0-.609.489l-.003.006c-.107.208-.104.563.008.783.115.225 2 2.11 2.225 2.224a.92.92 0 0 0 1.034-.171.92.92 0 0 0 .171-1.033c-.109-.216-2-2.11-2.21-2.216-.172-.086-.456-.124-.616-.082"/>
</svg>