<svg xmlns="http://www.w3.org/2000/svg" width="26" height="26" fill="currentColor" class="sym sym-search-default" viewBox="0 0 26 26">
  <path fill-rule="evenodd" d="M3 12.536C3 7.27 7.27 3 12.536 3s9.536 4.27 9.536 9.536-4.27 9.536-9.536 9.536S3 17.802 3 12.536m9.536-8.14a8.144 8.144 0 0 0-8.14 8.14 8.144 8.144 0 0 0 8.14 8.14 8.144 8.144 0 0 0 8.14-8.14 8.144 8.144 0 0 0-8.14-8.14"/>
  <path d="m21.811 22.798-1.86-1.861a.7.7 0 0 1 0-.986c.27-.27.716-.27.986 0l1.86 1.86c.27.27.27.717 0 .987a.7.7 0 0 1-.986 0"/>
</svg>