<svg xmlns="http://www.w3.org/2000/svg" width="26" height="26" fill="currentColor" class="sym sym-send" viewBox="0 0 26 26">
  <path d="M14.699 22c-.213 0-.425-.05-.617-.152-.445-.232-.597-.636-.86-1.303l-2.174-5.59-5.592-2.172c-.677-.263-1.072-.415-1.304-.86a1.31 1.31 0 0 1 0-1.222c.232-.445.627-.596 1.284-.86l14.218-5.548c.586-.232.98-.384 1.446-.232.394.131.708.445.84.839.15.455 0 .849-.234 1.435l-5.541 14.2c-.263.667-.415 1.07-.86 1.303a1.3 1.3 0 0 1-.616.152zm-1.881-7.51 1.88 4.842 4.308-11.016-6.188 6.185zM6.69 11.329l4.844 1.88 6.188-6.186L6.7 11.317z"/>
</svg>