<svg xmlns="http://www.w3.org/2000/svg" width="26" height="26" fill="currentColor" class="sym sym-send-02" viewBox="0 0 26 26">
  <path d="M6.242 22c-.138 0-.275-.02-.423-.08a1.34 1.34 0 0 1-.776-.89c-.128-.466.049-.86.304-1.446l6.271-14.285c.256-.576.423-.95.836-1.163a1.28 1.28 0 0 1 1.15 0c.423.213.59.597.835 1.173l6.222 14.275c.256.586.423.97.295 1.435a1.36 1.36 0 0 1-.776.89c-.443.182-.836.04-1.426-.162l-5.74-1.971-5.78 1.981c-.403.142-.707.243-1.002.243zm6.782-15.478L7.156 19.877l4.954-1.688V12.85c0-.506.393-.91.884-.91.492 0 .885.404.885.91v5.318l4.954 1.708-5.819-13.345zm-.118 13.213s.04.02.05.02c0 0-.04-.02-.06-.02z"/>
</svg>