<svg xmlns="http://www.w3.org/2000/svg" width="26" height="26" fill="currentColor" class="sym sym-send-03" viewBox="0 0 26 26">
  <path d="M5.212 21c-.092 0-.194-.01-.295-.038a1.3 1.3 0 0 1-.84-.783c-.167-.449-.038-.83.165-1.47l2.005-6.188-2.005-6.235c-.203-.64-.332-1.022-.166-1.46a1.29 1.29 0 0 1 .84-.784c.444-.124.795.038 1.396.315l14.42 6.713c.564.267.933.439 1.136.86a1.33 1.33 0 0 1 0 1.155c-.203.42-.572.591-1.136.85l-14.42 6.702c-.462.21-.776.363-1.1.363m2.522-7.639-1.801 5.576 13.83-6.435-13.84-6.435 1.793 5.576h4.157c.462 0 .831.382.831.859s-.37.86-.831.86z"/>
</svg>