<svg xmlns="http://www.w3.org/2000/svg" width="26" height="26" fill="currentColor" class="sym sym-send-02-solid" viewBox="0 0 26 26">
  <path d="M12.656 4.064c-.34.111-.597.355-.785.741-.232.476-6.727 15.304-6.796 15.513a1.1 1.1 0 0 0-.069.527v-.005c.02.348.13.581.394.833.28.267.492.345.888.324.286-.015.426-.059 2.796-.87 1.372-.469 2.565-.89 2.652-.934a.8.8 0 0 0 .244-.2c.19-.254.184-.154.184-3.858 0-3.843-.014-3.621.25-3.893a.817.817 0 0 1 1.33.216l.078.164.033 7.059.072.137q.134.254.397.387c.073.039 1.257.454 2.628.925l2.495.857h.335c.297 0 .356-.01.519-.093.568-.288.825-.908.639-1.541-.116-.392-6.717-15.513-6.887-15.777-.316-.488-.861-.69-1.398-.513z"/>
</svg>