<svg xmlns="http://www.w3.org/2000/svg" width="26" height="26" fill="currentColor" class="sym sym-send-solid" viewBox="0 0 26 26">
  <path d="M20.377 4.047c-.162.046-14.336 5.568-15.26 5.945-.45.183-.654.309-.832.512-.282.32-.364.827-.203 1.249.106.278.376.545.712.704.39.186 4.966 1.957 5.118 1.981.085.013.207 0 .333-.036.199-.056.208-.065 2.525-2.376 2.111-2.107 2.34-2.324 2.492-2.375a.84.84 0 0 1 .886.2.84.84 0 0 1 .198.885c-.05.152-.268.38-2.373 2.494-2.31 2.317-2.318 2.326-2.376 2.525a.8.8 0 0 0-.034.337v-.003c.023.15 1.793 4.73 1.979 5.12.247.52.645.791 1.162.791.518 0 .915-.27 1.164-.791.178-.375 6.025-15.386 6.088-15.63.156-.609-.108-1.196-.66-1.468-.24-.118-.632-.146-.92-.065z"/>
</svg>