<svg xmlns="http://www.w3.org/2000/svg" width="26" height="26" fill="currentColor" class="sym sym-send-03-solid" viewBox="0 0 26 26">
  <path d="M4.837 4.063c-.258.1-.472.27-.627.486l-.003.004c-.17.266-.222.478-.203.829.015.283.082.507.87 2.956.47 1.458.89 2.725.934 2.818q.079.153.2.26c.254.2.154.195 3.859.195 3.842 0 3.62-.015 3.892.266.15.155.258.408.258.606 0 .331-.196.664-.473.805l-.164.084-7.059.035-.142.08c-.332.183-.305.116-1.274 3.118-.828 2.564-.887 2.763-.9 3.047-.019.4.062.631.325.925.252.28.485.398.833.418.219.014.308 0 .529-.076.414-.144 15.52-7.178 15.743-7.332.258-.177.42-.4.509-.705a1.43 1.43 0 0 0-.007-.825l.002.01c-.064-.227-.252-.465-.503-.64-.165-.115-2.577-1.254-7.866-3.712-4.195-1.951-7.739-3.586-7.874-3.632a1.32 1.32 0 0 0-.858-.021z"/>
</svg>