<svg xmlns="http://www.w3.org/2000/svg" width="26" height="26" fill="currentColor" class="sym sym-server" viewBox="0 0 26 26">
  <path d="M17.854 20H8.146C5.861 20 4 18.236 4 16.069c0-1.237.607-2.35 1.557-3.069C4.607 12.28 4 11.168 4 9.931 4 7.764 5.86 6 8.146 6h9.708C20.139 6 22 7.764 22 9.931c0 1.238-.607 2.35-1.557 3.069.95.72 1.557 1.832 1.557 3.069C22 18.236 20.14 20 17.854 20m-9.708-6.137c-1.284 0-2.326.988-2.326 2.206s1.042 2.205 2.326 2.205h9.708c1.284 0 2.326-.988 2.326-2.206s-1.042-2.205-2.326-2.205zm0-1.726h9.708c1.284 0 2.326-.988 2.326-2.206s-1.042-2.205-2.326-2.205H8.146c-1.284 0-2.326.988-2.326 2.205s1.042 2.206 2.326 2.206m0 4.794c-.506 0-.92-.383-.92-.863 0-.479.404-.863.91-.863s.91.384.91.864c0 .479-.404.863-.91.863zm0-6.137c-.506 0-.92-.383-.92-.863 0-.479.404-.862.91-.862s.91.383.91.862c0 .48-.404.864-.91.864z"/>
</svg>