<svg xmlns="http://www.w3.org/2000/svg" width="26" height="26" fill="currentColor" class="sym sym-server-solid" viewBox="0 0 26 26">
  <path fill-rule="evenodd" d="M7.101 6.045C5.555 6.25 4.32 7.299 4.052 8.634c-.34 1.702 1.018 3.333 3.022 3.628.275.04.9.045 5.926.045 6.197 0 5.91.008 6.513-.174a3.7 3.7 0 0 0 1.404-.753c.67-.568 1.083-1.355 1.083-2.226 0-.876-.42-1.67-1.098-2.238a3.87 3.87 0 0 0-2.013-.87l-.02-.002c-.457-.06-11.323-.058-11.767.001m1.437 2.327c.188.076.363.227.476.41.062.1.074.163.074.372 0 .283-.051.4-.265.603-.376.356-1.088.356-1.465 0-.213-.203-.265-.32-.265-.603 0-.208.013-.273.074-.37.282-.453.853-.625 1.37-.412m-1.27 5.366a3.9 3.9 0 0 0-1.304.351c-.964.428-1.647 1.212-1.884 2.156-.077.305-.077.928 0 1.233a3.03 3.03 0 0 0 .945 1.547h-.001c.299.268.585.452.972.621.361.16.6.232.983.303.262.048.587.051 6.021.051s5.76-.003 6.021-.051c1.491-.275 2.583-1.206 2.9-2.472.038-.15.056-.351.056-.616 0-.576-.1-.936-.405-1.444-.503-.84-1.372-1.408-2.517-1.643-.23-.046-.585-.05-5.891-.054-3.105-.003-5.758.005-5.895.017zm1.268 2.333c.343.15.577.468.58.788.005.315-.233.639-.58.796-.143.064-.206.075-.444.075s-.303-.011-.443-.074c-.85-.383-.74-1.393.181-1.653.162-.046.53-.01.707.068z"/>
</svg>