<svg xmlns="http://www.w3.org/2000/svg" width="26" height="26" fill="currentColor" class="sym sym-settings-02" viewBox="0 0 26 26">
  <path d="M13 24a3.2 3.2 0 0 1-1.725-.505 3.2 3.2 0 0 1-1.167-1.361l-.589-1.322a1.5 1.5 0 0 0-.64-.707 1.6 1.6 0 0 0-.943-.201l-1.451.151a3.24 3.24 0 0 1-1.766-.323 3.05 3.05 0 0 1-1.299-1.23 3.15 3.15 0 0 1-.416-1.736 3.17 3.17 0 0 1 .599-1.685l.862-1.17c.193-.263.295-.586.295-.909a1.54 1.54 0 0 0-.295-.908l-.862-1.17a3.06 3.06 0 0 1-.599-1.685c-.03-.605.112-1.21.416-1.735a3.17 3.17 0 0 1 1.3-1.231 3.24 3.24 0 0 1 1.765-.323l1.451.151a1.56 1.56 0 0 0 1.583-.908l.599-1.331a3.1 3.1 0 0 1 1.167-1.363 3.21 3.21 0 0 1 3.44 0 3.17 3.17 0 0 1 1.167 1.363l.599 1.321c.132.303.355.545.64.717.284.161.608.232.933.191l1.451-.151c.609-.06 1.218.05 1.766.323a3.15 3.15 0 0 1 1.715 2.966 3.17 3.17 0 0 1-.599 1.685l-.862 1.17a1.54 1.54 0 0 0-.295.908c0 .333.102.646.295.919l.862 1.17a3.14 3.14 0 0 1 .183 3.42 3.24 3.24 0 0 1-1.3 1.231 3.15 3.15 0 0 1-1.765.323l-1.451-.151c-.325-.03-.65.03-.934.201a1.5 1.5 0 0 0-.639.707l-.589 1.322A3.16 3.16 0 0 1 13.01 24zm-1.806-3.925.588 1.322c.102.232.274.434.487.575a1.35 1.35 0 0 0 1.451 0c.214-.141.386-.333.488-.575l.588-1.322a3.35 3.35 0 0 1 1.39-1.533 3.3 3.3 0 0 1 2.05-.434l1.452.151c.253.03.517-.02.74-.141.234-.121.427-.293.549-.515.131-.222.192-.474.172-.736a1.27 1.27 0 0 0-.254-.707l-.862-1.17a3.27 3.27 0 0 1-.64-1.988c0-.706.224-1.392.65-1.967l.862-1.17a1.3 1.3 0 0 0 .254-.707c.01-.252-.05-.504-.172-.736a1.3 1.3 0 0 0-.548-.515 1.35 1.35 0 0 0-.741-.13l-1.451.15a3.34 3.34 0 0 1-2.04-.433 3.3 3.3 0 0 1-1.39-1.544l-.6-1.322a1.3 1.3 0 0 0-.497-.575 1.35 1.35 0 0 0-1.45 0 1.3 1.3 0 0 0-.488.575l-.588 1.322a3.37 3.37 0 0 1-1.39 1.544c-.63.353-1.33.504-2.05.434l-1.462-.152a1.33 1.33 0 0 0-.74.131 1.34 1.34 0 0 0-.549.515 1.24 1.24 0 0 0-.172.736c.01.253.101.505.253.707l.863 1.17a3.3 3.3 0 0 1 .65 1.978 3.3 3.3 0 0 1-.65 1.977l-.863 1.17a1.3 1.3 0 0 0-.253.707c-.01.252.05.504.172.736.132.222.315.404.548.515.234.12.487.161.741.141l1.451-.151c.72-.07 1.421.07 2.04.434a3.4 3.4 0 0 1 1.4 1.543z"/>
  <path d="M13 16.937c-2.182 0-3.958-1.765-3.958-3.935S10.818 9.068 13 9.068s3.958 1.765 3.958 3.934-1.776 3.935-3.958 3.935m0-6.053a2.125 2.125 0 0 0-2.131 2.118c0 1.17.954 2.12 2.131 2.12a2.125 2.125 0 0 0 2.131-2.12c0-1.17-.954-2.118-2.13-2.118"/>
</svg>