<svg xmlns="http://www.w3.org/2000/svg" width="26" height="26" fill="currentColor" class="sym sym-settings-solid" viewBox="0 0 26 26">
  <path fill-rule="evenodd" d="M12.676 2.012A2.07 2.07 0 0 0 11.1 3.354l-.005.014a4 4 0 0 0-.1.68c-.035.544-.111.79-.334 1.095-.255.345-.615.541-1.186.645-.45.082-1-.101-1.4-.467-.468-.43-.9-.612-1.436-.612-1.137 0-2.01.86-2.007 1.98 0 .549.162.95.564 1.401.138.154.306.397.374.54.117.243.125.29.125.701 0 .412-.008.457-.128.71-.326.69-.745.966-1.566 1.033-.676.057-1.102.246-1.482.661A1.98 1.98 0 0 0 2 13.072c0 .516.197.985.519 1.338l-.001-.002c.405.444.806.617 1.538.666.74.049 1.138.247 1.458.728.224.335.295.603.275 1.031-.02.438-.16.749-.512 1.144-.402.45-.564.852-.564 1.4v.02c0 1.086.879 1.965 1.963 1.965h.021c.549 0 .95-.162 1.4-.564a3 3 0 0 1 .54-.375c.242-.117.29-.125.7-.125.424 0 .451.005.74.145.166.08.373.208.46.286.318.278.54.797.54 1.256A2.03 2.03 0 0 0 13.093 24c.456 0 .974-.205 1.322-.523.442-.404.617-.807.665-1.538.049-.741.247-1.14.727-1.459.336-.224.603-.295 1.03-.275.439.02.75.16 1.144.512.45.402.852.565 1.4.565h.02c1.085 0 1.964-.88 1.964-1.965v-.02c0-.55-.162-.95-.564-1.4-.352-.396-.491-.706-.512-1.144-.02-.429.05-.696.275-1.031.311-.468.714-.674 1.418-.729.698-.054 1.107-.236 1.499-.665.96-1.05.537-2.71-.818-3.213-.165-.06-.387-.1-.72-.121q-.48-.033-.69-.113c-.688-.265-1.082-.919-1.044-1.728.021-.438.16-.75.513-1.143.401-.45.564-.852.564-1.4.002-1.122-.87-1.982-2.008-1.982-.537 0-.969.183-1.437.612-.428.39-.969.557-1.474.452-.83-.173-1.367-.83-1.367-1.67 0-1.09-.827-1.966-1.898-2.016a2.6 2.6 0 0 0-.433.005h.01zm1.076 8.077c.337.092.84.35 1.118.574.68.549 1.127 1.47 1.127 2.33 0 .782-.36 1.605-.948 2.175-1.083 1.047-2.83 1.103-3.973.124-.456-.39-.866-1.05-1.005-1.618-.069-.282-.07-1.076 0-1.36.078-.327.413-.991.62-1.234a3.17 3.17 0 0 1 1.788-1.045l.02-.003c.268-.049.988-.016 1.253.057"/>
</svg>