<svg xmlns="http://www.w3.org/2000/svg" width="26" height="26" fill="currentColor" class="sym sym-settings-02-solid" viewBox="0 0 26 26">
  <path fill-rule="evenodd" d="M12.46 2.056a2.47 2.47 0 0 0-1.137.6l.002-.001c-.364.335-.447.474-.92 1.525-.221.489-.472.995-.56 1.124a2.74 2.74 0 0 1-2.01 1.153l-.01.001Q7.5 6.48 6.5 6.373c-1.113-.119-1.342-.113-1.82.045-.39.125-.722.34-.983.622l-.001.001c-.58.604-.812 1.392-.64 2.168.1.443.274.752.909 1.607.84 1.133.935 1.355.935 2.181s-.095 1.049-.935 2.181c-.311.418-.627.882-.702 1.031-.48.944-.283 2.057.497 2.808.307.296.538.438.929.569.45.152.731.157 1.872.036.683-.073 1.106-.101 1.28-.083.819.08 1.525.48 1.98 1.12.098.137.36.653.582 1.146.475 1.055.555 1.188.92 1.532a2.45 2.45 0 0 0 1.68.663c.653 0 1.247-.255 1.687-.67l-.001.002c.357-.337.439-.474.913-1.527.222-.492.483-1.008.582-1.145.437-.613 1.083-.993 1.873-1.102.283-.038.456-.03 1.29.06 1.107.12 1.38.126 1.737.042.468-.11.825-.315 1.185-.675.375-.375.58-.743.681-1.224a2.44 2.44 0 0 0-.263-1.653l.007.012a18 18 0 0 0-.687-.967l.034.046c-.841-1.136-.981-1.48-.944-2.32.033-.742.14-.979.942-2.062.65-.876.778-1.098.887-1.524.1-.393.1-.761 0-1.153a2.34 2.34 0 0 0-.596-1.074 2.27 2.27 0 0 0-.989-.64l-.015-.005c-.474-.156-.71-.164-1.796-.048-1.172.123-1.328.126-1.76.021q-.748-.178-1.287-.718c-.338-.338-.437-.51-.96-1.661-.395-.877-.491-1.03-.844-1.356a2.46 2.46 0 0 0-2.234-.597l.017-.003zm1.297 8.035c.337.092.84.35 1.118.574.68.549 1.127 1.47 1.127 2.33 0 .782-.36 1.605-.948 2.175-1.083 1.047-2.83 1.103-3.973.124-.456-.39-.867-1.05-1.005-1.618-.07-.282-.07-1.076-.001-1.361.079-.326.414-.99.621-1.233a3.17 3.17 0 0 1 1.788-1.045l.02-.003c.267-.049.988-.016 1.253.057"/>
</svg>