<svg xmlns="http://www.w3.org/2000/svg" width="26" height="26" fill="currentColor" class="sym sym-settings" viewBox="0 0 26 26">
  <path d="M12.99 16.907a3.94 3.94 0 0 1-3.936-3.934 3.94 3.94 0 0 1 3.936-3.935 3.94 3.94 0 0 1 3.936 3.935 3.94 3.94 0 0 1-3.936 3.934m0-6.053a2.119 2.119 0 1 0 0 4.237 2.119 2.119 0 0 0 0-4.237"/>
  <path d="M13.06 23.97a2.7 2.7 0 0 1-1.937-.807 2.76 2.76 0 0 1-.807-1.937c0-.192-.04-.313-.111-.414a.56.56 0 0 0-.273-.202c-.171-.07-.293-.09-.404-.07a.55.55 0 0 0-.312.16s-.081.072-.081.082a2.6 2.6 0 0 1-.868.565 2.75 2.75 0 0 1-2.1 0 2.75 2.75 0 0 1-1.483-1.494 2.6 2.6 0 0 1-.212-1.049c0-.393.071-.746.223-1.08.12-.312.322-.605.585-.867l.09-.08a.6.6 0 0 0 .122-.263.7.7 0 0 0-.04-.363.61.61 0 0 0-.555-.363h-.152a2.77 2.77 0 0 1-1.948-.807A2.72 2.72 0 0 1 2 13.044c0-.737.283-1.423.797-1.938a2.75 2.75 0 0 1 1.948-.807c.182 0 .303-.04.404-.12a.66.66 0 0 0 .201-.263c.081-.182.091-.313.071-.424a.6.6 0 0 0-.171-.302l-.071-.081a3 3 0 0 1-.565-.827 2.8 2.8 0 0 1-.222-1.08c0-.353.07-.706.212-1.05.171-.362.363-.655.605-.897a2.8 2.8 0 0 1 .888-.595 2.8 2.8 0 0 1 2.1 0c.332.14.635.343.887.595.142.131.253.192.364.212.12.02.242 0 .353-.04q.09-.046.182-.061a.59.59 0 0 0 .262-.494V4.72c0-.736.283-1.422.797-1.937 1.07-1.05 2.826-1.039 3.885 0 .525.525.808 1.21.808 1.947 0 .192.04.313.1.414s.152.171.263.222a.6.6 0 0 0 .353.05.55.55 0 0 0 .313-.161s.08-.07.08-.08c.233-.233.536-.435.869-.566a2.75 2.75 0 0 1 2.099 0 2.75 2.75 0 0 1 1.483 1.493c.132.293.212.656.212 1.05 0 .393-.07.746-.222 1.08a2.5 2.5 0 0 1-.585.867l-.09.08a.6.6 0 0 0-.122.263.7.7 0 0 0 .04.363c.02.06.04.111.061.172.04.07.1.12.172.16a.63.63 0 0 0 .343.112h.151c.727 0 1.433.292 1.948.807s.797 1.2.797 1.937-.283 1.423-.797 1.937a2.75 2.75 0 0 1-1.948.807c-.192 0-.313.04-.394.101a.6.6 0 0 0-.222.252v.02a.65.65 0 0 0-.05.364c.02.1.08.212.172.302 0 0 .06.071.07.081.212.212.404.494.565.827.152.374.222.727.222 1.08s-.07.706-.212 1.05a3.1 3.1 0 0 1-.605.897 2.8 2.8 0 0 1-.888.595 2.8 2.8 0 0 1-2.1 0 2.8 2.8 0 0 1-.887-.595c-.142-.131-.253-.192-.364-.212a.7.7 0 0 0-.353.04.61.61 0 0 0-.373.555v.162c0 .736-.283 1.422-.797 1.937A2.77 2.77 0 0 1 13.09 24zm-3.44-5.246c.332 0 .675.07.978.211.384.132.777.434 1.08.828.303.433.454.898.454 1.382 0 .323.101.555.283.736.343.353.969.343 1.312 0a.92.92 0 0 0 .272-.655v-.162a2.45 2.45 0 0 1 1.473-2.22 2.37 2.37 0 0 1 1.403-.16c.474.08.919.312 1.262.655.151.141.252.212.363.252a.95.95 0 0 0 .706 0 1 1 0 0 0 .303-.202c.08-.08.162-.191.222-.332.03-.091.06-.212.06-.323a1 1 0 0 0-.07-.364c-.05-.1-.121-.211-.202-.292l-.08-.08a2.45 2.45 0 0 1-.636-1.222 2.5 2.5 0 0 1 .161-1.412c.182-.444.495-.817.898-1.07a2.36 2.36 0 0 1 1.312-.393c.333 0 .576-.1.747-.272a.92.92 0 0 0 .273-.656.88.88 0 0 0-.273-.656.94.94 0 0 0-.656-.272h-.151a2.4 2.4 0 0 1-1.332-.404 2.4 2.4 0 0 1-.889-1.05.7.7 0 0 1-.07-.251 2.5 2.5 0 0 1-.101-1.221c.08-.484.303-.918.646-1.271l.1-.091a1 1 0 0 0 .162-.262.9.9 0 0 0 .07-.364.8.8 0 0 0-.06-.332.86.86 0 0 0-.212-.323 1 1 0 0 0-.302-.202.9.9 0 0 0-.707 0 1 1 0 0 0-.303.202l-.08.08a2.4 2.4 0 0 1-1.252.636c-.464.08-.968.03-1.402-.172a2.3 2.3 0 0 1-1.05-.887 2.43 2.43 0 0 1-.404-1.332c0-.333-.09-.565-.272-.737a.967.967 0 0 0-1.322 0 .92.92 0 0 0-.262.646v.151c0 .465-.142.929-.404 1.332a2.36 2.36 0 0 1-1.07.888 1 1 0 0 1-.232.06 2.5 2.5 0 0 1-1.241.101 2.35 2.35 0 0 1-1.262-.655c-.151-.142-.252-.212-.363-.253a.95.95 0 0 0-.706 0 1 1 0 0 0-.303.202c-.081.08-.162.192-.222.333-.03.09-.06.212-.06.323s.02.242.07.363a1.2 1.2 0 0 0 .282.373c.313.313.535.747.636 1.221.081.505.02.989-.171 1.423-.132.393-.434.787-.828 1.08a2.4 2.4 0 0 1-1.362.453h-.101a.92.92 0 0 0-.656.273.92.92 0 0 0-.273.655.88.88 0 0 0 .273.656.94.94 0 0 0 .656.273h.151c.485 0 .939.14 1.332.403a2.44 2.44 0 0 1 1.06 2.452c-.08.484-.303.918-.646 1.27-.01.011-.09.082-.1.092a1 1 0 0 0-.162.262.9.9 0 0 0-.07.363q0 .197.06.333c.06.141.12.242.212.323.09.09.191.151.302.202.222.09.475.1.707 0a1 1 0 0 0 .302-.202l.081-.08a2.4 2.4 0 0 1 1.252-.636c.14-.03.282-.04.423-.04z"/>
</svg>