<svg xmlns="http://www.w3.org/2000/svg" width="26" height="26" fill="currentColor" class="sym sym-share-04" viewBox="0 0 26 26">
  <path d="M17.235 23h-8.48c-1.838 0-2.767 0-3.605-.434a3.9 3.9 0 0 1-1.716-1.717C3 20.01 3 19.08 3 17.242V8.758c0-1.839 0-2.768.434-3.606A3.9 3.9 0 0 1 5.15 3.434C5.988 3 6.917 3 8.755 3h2.22c.506 0 .91.404.91.91a.905.905 0 0 1-.91.908h-2.22c-1.505 0-2.322 0-2.777.233a2.1 2.1 0 0 0-.929.929c-.232.454-.232 1.283-.232 2.778v8.484c0 1.505 0 2.324.232 2.778.202.404.525.727.93.93.454.232 1.281.232 2.776.232h8.48c1.505 0 2.322 0 2.777-.232.404-.203.716-.526.928-.93.233-.454.233-1.283.233-2.778V15.02c0-.505.404-.909.908-.909.505 0 .909.404.909.91v2.221c0 1.839 0 2.768-.434 3.607a3.9 3.9 0 0 1-1.716 1.717c-.838.434-1.767.434-3.605.434m-3.23-9.09a.905.905 0 0 1-.91-.91v-1.212c0-1.838 0-2.768.435-3.606a3.9 3.9 0 0 1 1.716-1.717c.838-.435 1.767-.435 3.605-.435h1.04l-1.475-1.474a.908.908 0 0 1 1.282-1.283l3.03 3.03c.09.09.15.192.201.293.04.101.06.212.071.323v.04a.9.9 0 0 1-.07.334.7.7 0 0 1-.203.293l-3.028 3.03a.908.908 0 0 1-1.283-1.283L19.89 7.86h-1.04c-1.504 0-2.322 0-2.776.232a2.1 2.1 0 0 0-.929.93c-.232.454-.232 1.282-.232 2.777v1.212c0 .505-.404.91-.909.91z"/>
</svg>