<svg xmlns="http://www.w3.org/2000/svg" width="26" height="26" fill="currentColor" class="sym sym-share-05" viewBox="0 0 26 26">
  <path d="M12.39 22.5a1.4 1.4 0 0 1-1.09-.53c-.309-.397-.309-.835-.309-1.569v-3.24a10.3 10.3 0 0 0-2.867.918 10.6 10.6 0 0 0-3.536 2.811.89.89 0 0 1-.999.275A.91.91 0 0 1 3 20.3v-.621c0-2.649.959-5.196 2.687-7.172a10.6 10.6 0 0 1 5.304-3.27V5.599c0-.734 0-1.172.31-1.57.27-.335.699-.519 1.118-.529.5.01.83.295 1.369.774l8.46 7.397c.3.264.55.478.67.835.11.316.11.652 0 .968-.13.356-.37.57-.67.835l-8.46 7.396c-.54.48-.87.764-1.369.775h-.03zm-.5-7.274c.23 0 .45.092.61.244.18.174.289.418.289.673v4.044l8.21-7.172-8.21-7.172V10c0 .448-.31.825-.74.906a8.8 8.8 0 0 0-5.024 2.843 9 9 0 0 0-2.057 4.217c.729-.6 1.528-1.11 2.387-1.528a11.9 11.9 0 0 1 4.485-1.202h.06z"/>
</svg>