<svg xmlns="http://www.w3.org/2000/svg" width="26" height="26" fill="currentColor" class="sym sym-share-04-solid" viewBox="0 0 26 26">
  <path d="M6.841 3.04c-.876.06-1.506.262-2.128.681-.542.366-1.139 1.094-1.377 1.68-.141.348-.245.829-.293 1.357-.057.63-.057 11.856 0 12.486.078.86.239 1.364.62 1.95a4.05 4.05 0 0 0 1.149 1.149c.611.398 1.109.55 2.045.623.39.031 2.407.04 6.525.03 6.575-.015 6.286-.005 7.05-.268.984-.338 1.956-1.31 2.294-2.294.23-.67.248-.881.267-3.32.019-2.537.023-2.501-.288-2.813a.993.993 0 0 0-1.568.206l-.003.005-.11.19-.025 2.24c-.016 1.41-.042 2.339-.072 2.501-.09.501-.437.998-.893 1.272-.47.283-.105.27-7.031.27s-6.56.013-7.032-.27a2.25 2.25 0 0 1-.732-.783l-.006-.01c-.213-.43-.21-.336-.21-6.922 0-6.583-.003-6.49.21-6.923.14-.283.567-.71.85-.85.12-.06.327-.129.459-.153.15-.027 1.066-.051 2.42-.063 2.464-.021 2.447-.02 2.74-.312a.983.983 0 0 0 .002-1.404c-.3-.3-.298-.3-2.479-.293-1.058.003-2.13.02-2.383.036z"/>
  <path d="M18.783 3.033a.97.97 0 0 0-.755.946V4c0 .388.09.522.867 1.31l.683.69h-.818c-1.107.003-2.226.063-2.638.142-1.368.261-2.58 1.385-2.917 2.704-.144.562-.177 1.07-.18 2.777-.003 1.605-.001 1.643.083 1.802.195.366.498.553.894.553s.698-.187.894-.553c.083-.156.087-.22.108-1.942.024-1.89.04-2.047.228-2.42.132-.262.519-.661.779-.803.39-.212.53-.228 2.111-.248l1.46-.018-.685.694c-.78.79-.869.926-.869 1.313 0 .397.19.704.553.892.228.117.62.114.86-.009.252-.126 3.317-3.193 3.445-3.445a.9.9 0 0 0 .092-.392l-.002-.05v.002l.002-.048a.9.9 0 0 0-.095-.398l.003.006c-.121-.24-3.194-3.319-3.428-3.436-.189-.094-.5-.136-.675-.09"/>
</svg>