<svg xmlns="http://www.w3.org/2000/svg" width="26" height="26" fill="currentColor" class="sym sym-share-05-solid" viewBox="0 0 26 26">
  <path d="M11.92 3.563a1.48 1.48 0 0 0-.896.883l-.003.01c-.09.228-.09.244-.102 2.474l-.011 2.246-.641.214a12 12 0 0 0-1.057.41 10.83 10.83 0 0 0-6.166 8.82l-.003.043c-.06.66-.053 1.722.014 1.91.078.225.238.42.449.546.16.096.23.112.483.112.393 0 .56-.1.972-.589 1.058-1.254 2.603-2.322 4.252-2.938a14 14 0 0 1 1.553-.434l.149-.027v1.898c0 1.1.017 1.99.039 2.116.133.73.655 1.204 1.365 1.24.386.02.65-.067 1.007-.336.306-.231 9.034-7.879 9.258-8.113.095-.1.227-.298.294-.443.11-.23.124-.305.124-.606 0-.303-.015-.376-.125-.607a2 2 0 0 0-.259-.409l.003.003c-.134-.145-8.81-7.759-9.214-8.087-.336-.273-.597-.38-.97-.396-.23-.01-.368.006-.514.06z"/>
</svg>