<svg xmlns="http://www.w3.org/2000/svg" width="26" height="26" fill="currentColor" class="sym sym-share-solid" viewBox="0 0 26 26">
  <path d="M12.64 3.062c-.154.054-.488.37-2.312 2.189C8.811 6.762 8.171 7.428 8.11 7.553a.99.99 0 0 0 .186 1.145c.279.28.656.364 1.046.234.174-.057.342-.21 1.427-1.289L12 6.42v4.861c0 3.225.015 4.912.043 5.01.06.22.273.474.489.586a.98.98 0 0 0 1.17-.173c.32-.32.3.049.3-5.42V6.42l1.23 1.224c1.085 1.079 1.253 1.232 1.428 1.289.389.13.766.046 1.045-.234a.99.99 0 0 0 .184-1.15l.002.005c-.06-.125-.701-.79-2.218-2.302-1.925-1.92-2.15-2.132-2.33-2.192a1.04 1.04 0 0 0-.71.005z"/>
  <path d="M3.776 12.034c-.297.08-.537.277-.672.537l-.003.006c-.084.16-.086.19-.098 2.742-.02 4.365.046 4.94.679 5.887.581.87 1.463 1.47 2.434 1.655.607.117 1.735.139 6.884.139 5.148 0 6.277-.022 6.883-.139.965-.185 1.857-.79 2.428-1.647.64-.962.707-1.537.685-5.934-.012-2.512-.012-2.543-.098-2.702-.196-.366-.498-.553-.894-.553s-.699.187-.895.553c-.084.16-.086.183-.108 3.463-.025 3.592-.02 3.52-.256 3.953-.141.26-.54.646-.804.78-.424.215-.232.21-6.94.21s-6.518.005-6.94-.21c-.266-.134-.664-.52-.805-.78-.236-.433-.231-.361-.256-3.953-.023-3.28-.024-3.302-.109-3.463-.223-.416-.703-.65-1.114-.543z"/>
</svg>