<svg xmlns="http://www.w3.org/2000/svg" width="26" height="26" fill="currentColor" class="sym sym-share-02-solid" viewBox="0 0 26 26">
  <path d="M6.841 3.04c-.876.06-1.506.262-2.128.681-.542.366-1.139 1.094-1.377 1.68-.141.348-.245.829-.293 1.357-.057.63-.057 11.856 0 12.486.078.86.239 1.364.62 1.95a4.05 4.05 0 0 0 1.149 1.149c.611.398 1.109.55 2.045.623.39.031 2.407.04 6.525.03 6.575-.015 6.286-.005 7.05-.268.984-.338 1.956-1.31 2.294-2.294.23-.67.248-.881.267-3.32.019-2.537.023-2.501-.288-2.813a.993.993 0 0 0-1.568.206l-.003.005-.11.19-.025 2.24c-.016 1.41-.042 2.339-.072 2.501-.09.501-.437.998-.893 1.272-.47.283-.105.27-7.031.27s-6.56.013-7.032-.27a2.25 2.25 0 0 1-.732-.783l-.006-.01c-.213-.43-.21-.336-.21-6.922 0-6.583-.003-6.49.21-6.923.14-.283.567-.71.85-.85.12-.06.327-.129.459-.153.15-.027 1.066-.051 2.42-.063 2.464-.021 2.447-.02 2.74-.312a.983.983 0 0 0 .002-1.404c-.3-.3-.298-.3-2.479-.293-1.058.003-2.13.02-2.383.036z"/>
  <path d="M15.782 3.034c-.751.186-1.017 1.115-.475 1.659.063.062.186.152.274.198.157.084.205.087 2.08.099l1.917.012-3.684 3.69c-2.614 2.617-3.712 3.741-3.775 3.869a1.01 1.01 0 0 0 .188 1.136c.292.292.773.371 1.135.188.128-.064 1.251-1.161 3.869-3.777l3.688-3.685.012 1.918c.012 1.875.014 1.923.098 2.08.196.366.498.552.894.552s.698-.186.894-.553c.086-.16.086-.162.086-3.422s0-3.261-.086-3.422a1.15 1.15 0 0 0-.467-.47l-.006-.004c-.162-.086-.17-.086-3.342-.092-1.749-.004-3.235.006-3.3.023"/>
</svg>