<svg xmlns="http://www.w3.org/2000/svg" width="26" height="26" fill="currentColor" class="sym sym-share-03" viewBox="0 0 26 26">
  <path d="M16.053 2.105c-.236.16-.362.376-.362.627s.126.467.362.627l.154.104h2.619c1.44 0 2.618.016 2.618.034 0 .02-1.779 1.813-3.953 3.986s-3.982 4.009-4.018 4.076c-.304.572.404 1.28.976.976.068-.037 1.9-1.846 4.073-4.02 2.172-2.176 3.965-3.956 3.984-3.956.017 0 .034 1.179.034 2.62V9.8l.103.154c.328.487.926.487 1.253 0L24 9.8V2.516l-.104-.154a1.2 1.2 0 0 0-.255-.256l-.003-.002L23.484 2h-7.279l-.154.104z"/>
  <path d="M5.787 4.336c-1.079.096-1.866.454-2.573 1.168-.75.76-1.066 1.465-1.178 2.636-.033.34-.043 2.45-.031 6.38.016 5.768.017 5.878.112 6.282.052.226.14.527.192.665.35.927 1.313 1.89 2.238 2.24.14.052.45.14.688.194.432.099.462.099 6.621.099s6.19 0 6.621-.099c.24-.053.549-.14.688-.194.927-.35 1.889-1.314 2.239-2.24.052-.14.138-.439.189-.665.088-.383.096-.593.113-3.061l.02-2.65-.107-.159c-.332-.49-.928-.493-1.257-.004-.103.154-.103.158-.105 1.986-.001 2.092-.055 3.356-.159 3.747-.212.804-.902 1.501-1.713 1.736-.483.14-1.387.162-6.529.162s-6.045-.022-6.528-.162c-.6-.173-1.217-.668-1.503-1.204-.345-.648-.368-1.09-.368-7.04 0-4.729.03-6.026.157-6.506a2.54 2.54 0 0 1 1.72-1.735l.019-.005c.398-.105 1.632-.157 3.722-.158 1.852-.001 1.854-.001 2.008-.105.486-.328.486-.927 0-1.254l-.154-.104-2.355.007c-1.296.003-2.55.023-2.787.044z"/>
</svg>