<svg xmlns="http://www.w3.org/2000/svg" width="26" height="26" fill="currentColor" class="sym sym-share-02" viewBox="0 0 26 26">
  <path d="M15.228 23H8.76c-1.839 0-2.769 0-3.607-.435a3.92 3.92 0 0 1-1.718-1.718C3 20.01 3 19.08 3 17.24v-6.467c0-1.84 0-2.77.435-3.608a3.92 3.92 0 0 1 1.718-1.718C5.99 5.01 6.92 5.01 8.76 5.01h2.224c.505 0 .91.404.91.91 0 .505-.405.91-.91.91H8.76c-1.505 0-2.324 0-2.779.232a2.12 2.12 0 0 0-.93.93c-.232.454-.232 1.283-.232 2.779v6.467c0 1.506 0 2.325.233 2.78.202.404.525.727.93.93.454.232 1.283.232 2.778.232h6.468c1.506 0 2.325 0 2.78-.233a2.12 2.12 0 0 0 .93-.93c.232-.454.232-1.283.232-2.779v-2.223c0-.505.404-.91.91-.91.505 0 .909.405.909.91v2.223c0 1.84 0 2.77-.435 3.608a3.92 3.92 0 0 1-1.718 1.718c-.838.435-1.768.435-3.608.435m-1.212-10.106a.95.95 0 0 1-.647-.263.91.91 0 0 1 0-1.283l6.528-6.529h-3.87a.906.906 0 0 1-.91-.91c0-.505.404-.909.91-.909h6.083c.112 0 .223.03.324.07a.7.7 0 0 1 .293.203c.091.09.152.192.202.293.04.101.06.212.071.323v6.084c0 .505-.404.91-.91.91a.906.906 0 0 1-.91-.91v-3.87l-6.528 6.528a.9.9 0 0 1-.646.263z"/>
</svg>