<svg xmlns="http://www.w3.org/2000/svg" width="26" height="26" fill="currentColor" class="sym sym-share-03-solid" viewBox="0 0 26 26">
  <path d="M15.928 2.07a1.1 1.1 0 0 0-.583.488l-.003.005c-.105.177-.122.256-.122.538 0 .281.017.36.122.538.067.113.188.257.268.317.316.241.353.244 2.575.244h2.052l-3.55 3.554c-3.236 3.243-3.553 3.572-3.618 3.77-.141.429-.049.843.257 1.148.307.305.72.399 1.149.258.198-.066.527-.382 3.77-3.619L21.8 5.763v2.046c0 1.273.018 2.107.047 2.21.066.24.3.52.538.643a1.08 1.08 0 0 0 1.286-.19c.344-.344.33-.172.33-4.073 0-3.899.014-3.73-.33-4.072-.343-.343-.168-.33-4.09-.326-2.906.002-3.51.013-3.652.066z"/>
  <path d="M6.505 4.246c-1.18.058-1.832.242-2.537.713-.88.588-1.524 1.465-1.754 2.39-.182.736-.188.891-.208 6.03-.02 5.118.007 6.481.143 7.193.207 1.082.87 2.049 1.842 2.689.73.48 1.305.634 2.622.7 1.06.052 9.505.052 10.563 0 1.319-.066 1.893-.22 2.623-.7.95-.624 1.61-1.571 1.828-2.62.12-.573.178-2.034.162-4.03-.014-1.636-.017-1.7-.108-1.87-.216-.403-.548-.609-.984-.609s-.768.206-.983.608c-.093.175-.095.228-.122 2.708-.029 2.743-.033 2.79-.28 3.246-.155.287-.594.71-.883.858-.47.237-.294.23-6.535.23-6.304 0-6.073.01-6.567-.251-.303-.16-.73-.593-.883-.894-.237-.469-.23-.293-.23-6.533s-.007-6.065.23-6.534c.146-.29.571-.727.858-.883.455-.248.504-.252 3.246-.28 2.48-.027 2.534-.03 2.708-.122.403-.215.608-.548.608-.983 0-.436-.205-.768-.608-.984-.172-.092-.22-.094-2.135-.1a80 80 0 0 0-2.619.028z"/>
</svg>