<svg xmlns="http://www.w3.org/2000/svg" width="26" height="26" fill="currentColor" class="sym sym-share" viewBox="0 0 26 26">
  <path d="M17.242 23H8.758c-1.839 0-2.768 0-3.606-.434a3.9 3.9 0 0 1-1.718-1.716C3 20.012 3 19.083 3 17.245v-4.24c0-.505.404-.909.91-.909.504 0 .908.404.908.91v4.24c0 1.504 0 2.321.233 2.776.202.404.525.716.929.929.454.232 1.283.232 2.778.232h8.484c1.505 0 2.324 0 2.778-.232.404-.202.727-.526.93-.93.232-.454.232-1.282.232-2.776v-4.24c0-.505.404-.909.909-.909s.909.404.909.91v4.24c0 1.837 0 2.766-.434 3.604a3.9 3.9 0 0 1-1.717 1.716C20.01 23 19.08 23 17.242 23M13 16.942a.905.905 0 0 1-.91-.908V6.11L9.607 8.593a.908.908 0 0 1-1.283-1.282l4.04-4.038c.091-.091.193-.152.294-.202.1-.04.212-.06.323-.071h.04c.111 0 .222.03.323.07a.7.7 0 0 1 .293.203l4.04 4.038a.908.908 0 0 1-1.282 1.282L13.909 6.11v9.924a.905.905 0 0 1-.909.909"/>
</svg>