<svg xmlns="http://www.w3.org/2000/svg" width="26" height="26" fill="currentColor" class="sym sym-shield-tick" viewBox="0 0 26 26">
  <path d="M13 22.479c-.13 0-.26-.011-.38-.032-.294-.064-.49-.181-.718-.31C9.826 20.955 5 17.68 5 13.022V8.894c0-.778 0-1.205.174-1.674.152-.405.413-.767.75-1.055.37-.32.804-.48 1.532-.747l4.707-1.738c.196-.074.359-.128.554-.16a2 2 0 0 1 .544 0c.217.032.38.096.576.17l4.707 1.728c.717.267 1.152.427 1.532.757.326.288.587.65.75 1.056.174.458.174.885.174 1.674v4.126c0 4.66-4.826 7.934-6.902 9.117-.228.128-.424.245-.718.31-.12.02-.26.042-.39.042zm-.043-17.071s-.011.032-.11.063L8.13 7.21c-.489.18-.815.298-.923.394a.74.74 0 0 0-.218.299c-.054.128-.054.48-.054.991v4.127c0 3.774 4.543 6.664 5.935 7.464a.5.5 0 0 0 .12.064 1 1 0 0 1 .119-.064c1.391-.8 5.935-3.69 5.935-7.464V8.894c0-.512 0-.853-.055-.991a.74.74 0 0 0-.206-.299c-.11-.096-.435-.213-.924-.394L13.14 5.47c-.087-.031-.141-.053-.195-.063zm-.837 9.863c-.261 0-.511-.107-.696-.278l-1.761-1.727a.946.946 0 0 1 0-1.354.99.99 0 0 1 1.38 0l1.066 1.045 3.26-3.199a.99.99 0 0 1 1.381 0c.38.373.38.98 0 1.354l-3.956 3.881a1 1 0 0 1-.696.278z"/>
</svg>