<svg xmlns="http://www.w3.org/2000/svg" width="26" height="26" fill="currentColor" class="sym sym-shield" viewBox="0 0 26 26">
  <path d="M13 21.98c-.122 0-.245-.01-.357-.03-.275-.061-.458-.172-.672-.293C10.024 20.535 5.5 17.434 5.5 13.02V9.11c0-.737 0-1.141.163-1.586a2.5 2.5 0 0 1 .703-1c.347-.303.754-.454 1.437-.707l4.412-1.646a2.5 2.5 0 0 1 .52-.152c.184-.02.347-.03.51 0 .203.03.356.091.54.162l4.412 1.636c.673.253 1.08.404 1.437.717.305.273.55.617.703 1 .163.435.163.839.163 1.586v3.91c0 4.414-4.524 7.515-6.47 8.637-.215.12-.398.232-.673.293a2 2 0 0 1-.367.04zm-.112-1.9s.081.051.112.061c.03-.02.071-.04.112-.06 1.304-.758 5.564-3.495 5.564-7.071V9.1c0-.485 0-.808-.051-.94a.7.7 0 0 0-.194-.282c-.102-.091-.407-.202-.866-.374l-4.422-1.646c-.082-.03-.133-.05-.184-.061.041.01-.01.03-.102.06L8.435 7.505c-.459.172-.764.283-.866.374a.7.7 0 0 0-.204.283c-.051.121-.051.454-.051.94v3.909c0 3.576 4.26 6.313 5.564 7.07z"/>
</svg>