<svg xmlns="http://www.w3.org/2000/svg" width="26" height="26" fill="currentColor" class="sym sym-shield-off-solid" viewBox="0 0 26 26">
  <path d="M12.634 4.043c-.143.037-3.478 1.32-3.548 1.364-.026.017 10.311 10.727 10.354 10.727.056 0 .404-.91.522-1.366.227-.873.252-1.328.234-4.323-.015-2.705-.01-2.636-.261-3.16-.238-.495-.532-.807-1.003-1.065-.264-.145-5.28-2.105-5.578-2.18a1.56 1.56 0 0 0-.73.005zm-7.12.767C5.23 4.918 5 5.264 5 5.582c0 .288.08.419.568.932l.461.484-.066.135c-.166.336-.167.34-.155 3.605.01 2.965.012 3.04.081 3.398.285 1.487.943 2.813 2.042 4.116a22 22 0 0 0 1.358 1.408c.995.896 2.675 2.076 3.229 2.267.285.098.707.097.98-.003.516-.187 2.01-1.22 2.978-2.056.176-.152.482-.44.682-.64l.361-.361 1.111 1.143c.611.63 1.161 1.17 1.223 1.205.08.043.183.061.352.061.206.001.262-.012.392-.09.343-.21.484-.603.357-1.003-.048-.15-.604-.733-7.355-7.714C8.367 7.06 6.26 4.9 6.16 4.85a.9.9 0 0 0-.652-.039z"/>
</svg>