<svg xmlns="http://www.w3.org/2000/svg" width="26" height="26" fill="currentColor" class="sym sym-shield-tick-solid" viewBox="0 0 26 26">
  <path fill-rule="evenodd" d="M12.627 4.024c-.268.067-5.493 2.032-5.766 2.167A2.4 2.4 0 0 0 5.59 7.707l-.004.017c-.07.248-.072.306-.083 2.95-.011 2.926-.002 3.134.176 3.86.533 2.177 2.152 4.27 4.748 6.139.8.575 1.713 1.131 2.057 1.251.285.1.723.101 1.021.003.68-.226 2.612-1.57 3.68-2.561 1.974-1.832 3.018-3.613 3.268-5.576.047-.362.053-.79.043-3.117-.01-2.643-.013-2.701-.083-2.95a2.4 2.4 0 0 0-1.262-1.527l-.014-.006c-.161-.08-1.522-.603-3.024-1.161l-2.73-1.017-.317-.01-.11-.002a2.4 2.4 0 0 0-.342.025zm3.663 5.783a.97.97 0 0 1 .399.425c.06.144.058.48-.006.632-.035.085-.665.733-2.043 2.103-2.129 2.119-2.124 2.114-2.456 2.117-.34.003-.361-.011-1.396-1.032-.528-.52-.994-1.006-1.033-1.079-.1-.185-.1-.542 0-.731a1 1 0 0 1 .432-.398c.147-.06.484-.057.637.006.077.031.355.278.733.652l.61.602 1.659-1.645c.55-.55 1.095-1.086 1.646-1.618l.03-.028c.007 0 .075-.022.149-.05a.93.93 0 0 1 .64.044"/>
</svg>