<svg xmlns="http://www.w3.org/2000/svg" width="26" height="26" fill="currentColor" class="sym sym-shield-off" viewBox="0 0 26 26">
  <path d="M13 21.99c-.117 0-.235-.01-.343-.03-.264-.061-.44-.172-.646-.294-1.87-1.122-6.216-4.224-6.216-8.641V7.94c0-.303.079-.597.206-.86l-.744-.767a.93.93 0 0 1 0-1.284.86.86 0 0 1 1.243 0l14.243 14.706a.93.93 0 0 1 0 1.284.86.86 0 0 1-1.243 0l-2.026-2.093c-1.273 1.314-2.683 2.254-3.476 2.74-.205.12-.381.232-.646.292-.107.02-.235.041-.352.041zM7.557 8.689v4.336c0 3.578 4.082 6.317 5.335 7.075.04.03.079.05.108.07.03-.02.069-.04.108-.07.714-.435 1.987-1.284 3.122-2.446L7.557 8.699zm11.522 6.943a.8.8 0 0 1-.264-.04.904.904 0 0 1-.578-1.132c.137-.475.215-.95.215-1.425V9.123c0-.495 0-.818-.049-.94a.8.8 0 0 0-.185-.283c-.098-.09-.392-.202-.833-.374L13.137 5.88c-.078-.03-.127-.05-.176-.06.039.01-.01.03-.098.06l-2.085.808a.876.876 0 0 1-1.136-.535.926.926 0 0 1 .52-1.173l2.084-.808a2.3 2.3 0 0 1 .5-.152c.176-.03.332-.02.489 0 .196.03.343.091.519.162l4.238 1.637c.646.253 1.038.405 1.38.718.294.263.53.616.676 1 .157.445.157.85.157 1.587v3.912c0 .657-.098 1.314-.294 1.96a.89.89 0 0 1-.842.648z"/>
</svg>