<svg xmlns="http://www.w3.org/2000/svg" width="26" height="26" fill="currentColor" class="sym sym-shield-solid" viewBox="0 0 26 26">
  <path d="M12.627 4.024c-.268.067-5.493 2.032-5.766 2.167A2.4 2.4 0 0 0 5.59 7.707l-.004.017c-.07.248-.072.305-.083 2.95-.011 2.925-.002 3.133.176 3.86.533 2.177 2.152 4.268 4.75 6.138.823.593 1.727 1.14 2.066 1.253.304.1.706.1 1.01 0 .68-.225 2.612-1.569 3.68-2.56 1.974-1.833 3.018-3.613 3.268-5.576.047-.362.053-.79.043-3.117-.01-2.643-.013-2.7-.083-2.95a2.4 2.4 0 0 0-1.262-1.526l-.014-.006c-.161-.08-1.522-.603-3.024-1.161l-2.73-1.017-.317-.01-.11-.002a2.4 2.4 0 0 0-.342.025z"/>
</svg>