<svg xmlns="http://www.w3.org/2000/svg" width="26" height="26" fill="currentColor" class="sym sym-shopping-bag" viewBox="0 0 26 26">
  <path d="M18.08 21.5H7.92c-1.075 0-1.564 0-2.052-.195-.489-.196-.782-.489-1.075-.977-.293-.489-.293-.977-.293-1.954V8.408c0-.195.098-.39.195-.586.098-.196.196-.391.489-.586l1.66-1.954c.196-.196.294-.391.49-.489.195-.098.292-.195.488-.195.195-.098.39-.098.684-.098h8.988c.293 0 .489 0 .684.098a.75.75 0 0 1 .489.195c.195.098.293.293.488.489l1.368 1.66.293.294c.196.293.39.39.489.586.097.195.195.39.195.586v9.966c0 .977 0 1.465-.293 1.954-.195.39-.586.781-1.075.977-.488.195-1.075.195-2.052.195M5.869 8.897v9.379c0 .684 0 1.172.098 1.368a.76.76 0 0 0 .39.39c.293.098.684.098 1.564.098h10.063c.88 0 1.368 0 1.563-.098.195-.097.39-.195.489-.39.097-.196.097-.586.097-1.368V8.994H6.552c-.293 0-.489 0-.684-.097m.684-1.173h12.896l-1.367-1.563-.196-.195H8.213c-.196-.098-.293 0-.391.097zM13 15.15c-1.075 0-2.15-.39-2.833-1.074-.782-.684-1.27-1.661-1.27-2.638 0-.391.293-.586.586-.586s.586.293.586.586c0 .684.293 1.27.782 1.758 1.074.977 3.028.977 4.103 0 .489-.488.782-1.074.782-1.758 0-.391.293-.586.684-.586.39 0 .683.293.683.586 0 .977-.488 1.954-1.27 2.638-.684.781-1.758 1.074-2.833 1.074"/>
</svg>