<svg xmlns="http://www.w3.org/2000/svg" width="26" height="26" fill="currentColor" class="sym sym-shopping-bag-solid" viewBox="0 0 26 26">
  <path d="M7.933 4.549c-.3.065-.56.194-.77.371-.14.122-1.609 1.87-1.76 2.096a.32.32 0 0 0-.001.384c.142.211-.499.195 7.606.195 7.215 0 7.336-.002 7.443-.06a.37.37 0 0 0 .21-.323.34.34 0 0 0-.063-.197l.002.001c-.15-.222-1.602-1.952-1.752-2.086a1.7 1.7 0 0 0-.784-.38l-.01-.003c-.334-.064-9.795-.062-10.12.002"/>
  <path fill-rule="evenodd" d="M5.25 9.171c-.332.036-.542.171-.678.435l-.072.139v4.826c.001 5.24-.005 5.04.185 5.498.222.532.807 1.062 1.394 1.264.509.175.195.167 6.921.167 6.733 0 6.41.008 6.926-.17.578-.197 1.17-.736 1.39-1.263.19-.455.183-.258.183-5.496l.001-4.826-.072-.14a.8.8 0 0 0-.417-.38l-.005-.003-.153-.065-7.7-.004c-4.235-.002-7.79.007-7.903.018m4.702 2.365c.327.14.472.366.51.793.058.656.306 1.16.773 1.565.497.432 1.067.638 1.766.638.572 0 1.03-.13 1.477-.42.643-.417.993-1.006 1.062-1.783.038-.427.182-.652.51-.793a.9.9 0 0 1 .362-.074c.339 0 .631.182.765.444l.002.005c.149.287.092.922-.14 1.552a3.66 3.66 0 0 1-1.033 1.507h-.001c-.821.742-1.859 1.133-3.002 1.133h-.021c-1.17 0-2.228-.434-2.99-1.134a4.3 4.3 0 0 1-.788-.965l-.012-.023c-.378-.682-.563-1.686-.378-2.055a.86.86 0 0 1 .777-.463q.198 0 .366.075z"/>
</svg>