<svg xmlns="http://www.w3.org/2000/svg" width="26" height="26" fill="currentColor" class="sym sym-shuffle" viewBox="0 0 26 26">
  <path d="M18.39 22a.95.95 0 0 1-.647-.263.91.91 0 0 1 0-1.283l1.142-1.142c-.9 0-1.395 0-1.9-.152a3.6 3.6 0 0 1-1.245-.666c-.414-.344-.687-.758-1.193-1.506l-.212-.324a.903.903 0 0 1 .253-1.263.905.905 0 0 1 1.264.253l.212.323c.435.657.637.95.84 1.112.181.151.384.263.616.323.253.081.627.081 1.375.081l-1.142-1.142a.908.908 0 0 1 1.284-1.283l2.69 2.688c.091.09.152.192.202.303.04.101.06.212.071.323v.04a.9.9 0 0 1-.07.334.74.74 0 0 1-.193.283l-2.7 2.698a.9.9 0 0 1-.647.263M7.094 19.302H4.91a.906.906 0 0 1-.91-.91c0-.505.405-.91.91-.91h2.184c.749 0 1.133 0 1.386-.08.222-.07.435-.182.617-.333.202-.162.394-.455.829-1.112l4.631-6.942c.496-.748.769-1.162 1.194-1.506a3.7 3.7 0 0 1 1.243-.667c.506-.151 1.002-.151 1.901-.151l-1.142-1.142a.908.908 0 0 1 1.284-1.284l2.7 2.698c.081.081.142.182.192.283.04.101.071.213.071.324v.04c0 .121-.03.233-.07.334a.84.84 0 0 1-.203.303l-2.69 2.688a.908.908 0 0 1-1.284-1.283l1.142-1.143c-.748 0-1.122 0-1.375.081a1.8 1.8 0 0 0-.617.334c-.202.162-.394.455-.829 1.111l-4.631 6.943c-.496.747-.769 1.162-1.194 1.505a3.7 3.7 0 0 1-1.243.667c-.516.152-1.012.152-1.912.152m3.813-8.529a.9.9 0 0 1-.759-.404l-.212-.323c-.435-.657-.637-.95-.84-1.112a1.6 1.6 0 0 0-.616-.323c-.253-.081-.637-.081-1.386-.081H4.91A.906.906 0 0 1 4 7.62c0-.505.405-.91.91-.91h2.184c.9 0 1.406 0 1.912.152.455.142.88.364 1.243.667.415.344.688.758 1.194 1.506l.212.323a.903.903 0 0 1-.253 1.263.93.93 0 0 1-.505.152z"/>
</svg>