<svg xmlns="http://www.w3.org/2000/svg" width="26" height="26" fill="currentColor" class="sym sym-shuffle-solid" viewBox="0 0 26 26">
  <path d="M18.085 4.057c-.317.111-.58.491-.58.84 0 .327.08.446.77 1.144l.65.658h-.448c-.93.001-1.41.092-1.998.378-.437.208-.807.49-1.108.834l-.004.004c-.116.135-1.472 2.134-3.013 4.444-2.09 3.216-3.069 4.66-4.056 6.098l1.081-1.667a1.9 1.9 0 0 1-.817.62c-.222.081-.262.083-2.065.103l-1.838.02-.18.092c-.695.358-.617 1.375.126 1.637.13.046.422.055 1.817.055 1.666 0 2.08-.022 2.49-.135a3.6 3.6 0 0 0 1.888-1.281l.006-.009a453 453 0 0 0 2.98-4.441c1.839-2.757 2.885-4.295 3.012-4.426.246-.252.634-.445.983-.49.135-.018.447-.032.694-.033h.448l-.65.657c-.69.697-.77.816-.77 1.145 0 .507.471.94.972.893.338-.032.416-.098 1.952-1.64 1.363-1.37 1.468-1.484 1.526-1.663a.92.92 0 0 0-.046-.694c-.055-.111-.516-.595-1.547-1.623-1.314-1.31-1.488-1.47-1.647-1.524a.94.94 0 0 0-.637.005l.006-.001z"/>
  <path d="M4.698 6.73a.88.88 0 0 0-.68.87c0 .357.169.63.498.806.141.076.19.078 2 .097 1.82.018 1.86.02 2.058.099.475.191.66.376 1.25 1.243.434.643.574.787.823.857.534.15 1.08-.21 1.123-.74.028-.338-.009-.421-.507-1.167-.716-1.07-1.185-1.502-1.98-1.827-.545-.222-.71-.238-2.694-.253-.98-.008-1.831 0-1.891.015m13.511 8.113a.876.876 0 0 0-.68.852v.018c0 .349.08.47.781 1.18l.615.621h-.558c-1.11 0-1.402-.179-2.187-1.34-.434-.645-.573-.79-.823-.86-.534-.149-1.08.21-1.123.74-.027.336.009.42.506 1.165.712 1.07 1.183 1.503 1.979 1.828.395.161.78.224 1.554.256l.64.025-.608.616c-.695.703-.776.827-.776 1.175 0 .358.171.634.498.803.205.106.558.104.775-.007.111-.056.618-.538 1.59-1.511.974-.974 1.456-1.481 1.511-1.592a.8.8 0 0 0 .082-.399v.002a.8.8 0 0 0-.084-.401l.002.005c-.109-.217-2.876-2.99-3.086-3.096-.17-.084-.452-.122-.609-.08"/>
</svg>