<svg xmlns="http://www.w3.org/2000/svg" width="26" height="26" fill="currentColor" class="sym sym-signal" viewBox="0 0 26 26">
  <path d="M18.728 19.551a.95.95 0 0 1-.647-.26.89.89 0 0 1 0-1.27 7.044 7.044 0 0 0 0-10.04.89.89 0 0 1 0-1.27.92.92 0 0 1 1.285 0 8.84 8.84 0 0 1 0 12.59.9.9 0 0 1-.648.26zm-11.446 0a.95.95 0 0 1-.648-.26 8.84 8.84 0 0 1 0-12.59.92.92 0 0 1 1.285 0 .89.89 0 0 1 0 1.27 7.044 7.044 0 0 0 0 10.04.89.89 0 0 1 0 1.27.9.9 0 0 1-.647.26zm9.16-2.26a.95.95 0 0 1-.649-.26.89.89 0 0 1 0-1.27 3.83 3.83 0 0 0 1.154-2.76c0-1.05-.415-2.02-1.154-2.76a.89.89 0 0 1 0-1.27.92.92 0 0 1 1.286 0 5.62 5.62 0 0 1 1.69 4.03c0 1.52-.597 2.95-1.69 4.03a.9.9 0 0 1-.648.26zm-6.873 0a.95.95 0 0 1-.648-.26 5.62 5.62 0 0 1-1.69-4.03c0-1.52.597-2.95 1.69-4.03a.92.92 0 0 1 1.286 0c.354.35.354.92 0 1.27a3.83 3.83 0 0 0-1.154 2.76c0 1.05.415 2.02 1.154 2.76.354.35.354.92 0 1.27a.9.9 0 0 1-.648.26zM13 15.501c-1.397 0-2.53-1.12-2.53-2.5s1.133-2.5 2.53-2.5 2.53 1.12 2.53 2.5-1.133 2.5-2.53 2.5m0-3.2a.7.7 0 1 0 0 1.4.7.7 0 1 0 0-1.4"/>
</svg>