<svg xmlns="http://www.w3.org/2000/svg" width="26" height="26" fill="currentColor" class="sym sym-signal-solid" viewBox="0 0 26 26">
  <path d="M6.839 6.568c-.158.078-.509.429-.868.87a9.1 9.1 0 0 0-1.767 3.626A8 8 0 0 0 4 13.001c0 .747.054 1.264.204 1.937a9.04 9.04 0 0 0 2.256 4.18c.29.299.451.383.738.381.474-.001.794-.32.794-.791 0-.284-.037-.355-.38-.72-1.306-1.396-1.997-3.12-1.997-4.988s.69-3.591 1.998-4.987c.342-.366.38-.437.38-.72 0-.345-.157-.594-.458-.732a.97.97 0 0 0-.696.007m11.625-.006c-.3.137-.458.386-.458.731 0 .284.038.355.38.72 1.307 1.396 1.998 3.12 1.998 4.988s-.691 3.592-1.998 4.987c-.342.366-.38.437-.38.72.001.471.32.79.795.792.286 0 .447-.082.737-.381a9.1 9.1 0 0 0 2.142-3.72c.22-.771.32-1.521.32-2.398 0-1.119-.153-1.992-.538-3.06a10.3 10.3 0 0 0-.932-1.823c-.478-.705-1.119-1.429-1.373-1.55a.97.97 0 0 0-.693-.006"/>
  <path d="M9.334 8.794c-.198.05-.394.196-.636.472-.672.768-1.131 1.68-1.314 2.61a5.62 5.62 0 0 0 1.333 4.882l-.005-.005c.315.356.506.465.809.463.457-.001.796-.33.796-.773 0-.264-.08-.426-.36-.733a3.9 3.9 0 0 1-1.06-2.677v-.035V13c0-1.022.357-1.938 1.05-2.7.291-.32.37-.478.37-.743v-.012c0-.3-.177-.56-.434-.683L9.88 8.86a.95.95 0 0 0-.55-.066zm6.87.016a.823.823 0 0 0-.497 1.023l-.002-.006c.04.116.126.242.298.429a4 4 0 0 1 1.072 2.349l.001.016c.116 1.13-.268 2.249-1.072 3.125-.335.364-.414.616-.296.943a.8.8 0 0 0 .369.442c.132.077.191.09.401.09.315 0 .466-.083.777-.423a5.6 5.6 0 0 0 1.113-5.808l.013.039c-.307-.821-1.058-1.902-1.496-2.155a.93.93 0 0 0-.682-.064m-3.499 1.798a2.44 2.44 0 0 0-2.084 1.82l-.004.016a3 3 0 0 0 0 1.114 2.47 2.47 0 0 0 1.8 1.788l.018.003c.129.03.364.052.565.052.202 0 .437-.022.566-.052a2.47 2.47 0 0 0 1.814-1.774l.004-.017a3 3 0 0 0 0-1.114 2.456 2.456 0 0 0-2.69-1.835z"/>
</svg>