<svg xmlns="http://www.w3.org/2000/svg" width="26" height="26" fill="currentColor" class="sym sym-skew-solid" viewBox="0 0 26 26">
  <path fill-rule="evenodd" d="M6.35 4.023a1.765 1.765 0 0 0-1.476 1.378l-.002.012c-.077.357-.077 2.198 0 2.556.079.367.216.617.488.886.281.278.535.41.937.49l.29.056-.03.148c-.016.082-.3 1.656-.632 3.5-.33 1.842-.61 3.392-.62 3.443-.018.093-.024.094-.432.116-.65.035-1.054.206-1.409.598-.401.442-.464.724-.464 2.093 0 1.426.067 1.693.542 2.164.474.47.744.537 2.184.537s1.71-.067 2.185-.537c.287-.284.419-.537.499-.955l.059-.308h7.24l.06.308c.08.418.212.67.499.955.474.47.744.537 2.184.537s1.71-.067 2.185-.537c.474-.47.541-.737.541-2.164 0-1.12-.03-1.372-.201-1.72-.191-.387-.653-.776-1.045-.88-.093-.024-.17-.062-.17-.083.001-.02.235-1.65.52-3.622l.519-3.584.362-.025c.622-.042 1.007-.21 1.36-.591a1.67 1.67 0 0 0 .42-.826c.076-.357.076-2.198 0-2.556-.135-.63-.552-1.096-1.186-1.323-.226-.08-.267-.083-1.486-.083s-1.26.003-1.486.083a1.9 1.9 0 0 0-.774.506l-.001.002c-.227.248-.35.508-.422.884l-.06.308h-7.24l-.06-.308c-.07-.375-.195-.636-.421-.884a1.85 1.85 0 0 0-.763-.503l-.013-.004c-.219-.076-.293-.08-1.359-.089-.62-.005-1.214.006-1.321.022zM17.585 7.9c.032.17.101.395.154.502.195.395.658.79 1.04.886.098.025.18.063.18.085-.002.02-.235 1.65-.52 3.622l-.519 3.585-.376.029c-.616.046-1.016.222-1.355.598-.226.248-.35.509-.422.885l-.06.308h-7.24l-.059-.308a2.4 2.4 0 0 0-.16-.518l.005.015a1.9 1.9 0 0 0-.916-.84l-.013-.005a1 1 0 0 1-.164-.08l.003.002c-.019-.017.234-1.508.619-3.647L8.434 9.4l.2-.025c.482-.06.851-.244 1.16-.58.233-.252.36-.513.432-.895l.06-.308h7.24z"/>
</svg>