<svg xmlns="http://www.w3.org/2000/svg" width="26" height="26" fill="currentColor" class="sym sym-skew" viewBox="0 0 26 26">
  <path d="M18.084 21.99c-.592 0-.98 0-1.37-.192a1.87 1.87 0 0 1-.796-.789c-.133-.253-.174-.506-.194-.809H8.457c-.02.303-.061.556-.194.809-.174.334-.46.617-.797.789-.388.202-.787.202-1.37.202h-.725c-.593 0-.981 0-1.37-.192a1.76 1.76 0 0 1-.797-.789C3 20.635 3 20.251 3 19.664v-.718c0-.586 0-.97.194-1.355a1.76 1.76 0 0 1 .797-.789c.378-.192.746-.202 1.298-.202l1.298-7.18c-.286-.02-.531-.06-.766-.182a1.87 1.87 0 0 1-.798-.789c-.204-.384-.204-.768-.204-1.365v-.718c0-.586 0-.98.204-1.365.174-.334.46-.617.798-.789.388-.202.787-.202 1.37-.202h.725c.592 0 .98 0 1.37.192.347.172.623.445.796.79.133.252.174.505.194.808h7.267a1.9 1.9 0 0 1 .184-.809c.173-.344.46-.627.807-.789C18.922 4 19.311 4 19.904 4h.725c.593 0 .981 0 1.37.192.337.172.623.455.797.789.204.384.204.768.204 1.355v.718c0 .586 0 .97-.194 1.355-.174.344-.45.617-.797.789-.358.182-.706.202-1.206.202l-1.043 7.22c.143.03.287.071.43.142.347.182.623.455.797.789.204.384.204.768.204 1.365v.718c0 .586 0 .98-.204 1.365-.174.334-.46.617-.797.789-.389.202-.787.202-1.37.202zm-12.723-3.6c-.256 0-.511 0-.593.02.051 0 .051.263.051.516v.718c0 .253 0 .506.02.576 0-.05.266-.05.522-.05h.725c.256 0 .511 0 .583-.02-.051 0-.051-.263-.051-.506v-.718c0-.253 0-.506-.02-.587 0 .05-.266.05-.512.05zm12.182.89v.364c0 .253 0 .506.02.576 0-.05.266-.05.521-.05h.726c.255 0 .51 0 .582-.02-.05 0-.05-.263-.05-.506v-.718c0-.253 0-.506-.021-.576 0 .05-.266.05-.511.05h-.726c-.255 0-.51 0-.592.02.05 0 .05.263.05.516v.354zm-9.096-.91h7.266c.02-.304.062-.556.195-.81.173-.333.45-.606.797-.788.357-.182.705-.192 1.206-.202l1.042-7.22a1.6 1.6 0 0 1-.43-.142 1.76 1.76 0 0 1-.796-.789c-.133-.253-.174-.506-.195-.809h-7.266c-.02.303-.061.556-.194.81-.174.333-.45.616-.797.788-.256.131-.521.172-.838.192l-1.308 7.25c.112.03.214.071.327.122.347.182.623.455.797.789.133.253.174.505.194.809M19.362 6.7v.354c0 .253 0 .506.02.586 0-.05.266-.05.511-.05h.726c.255 0 .51 0 .593-.02-.052 0-.052-.263-.052-.516v-.718c0-.253 0-.506-.02-.576 0 .05-.266.05-.511.05h-.726c-.255 0-.51 0-.582.02.051 0 .051.263.051.506V6.7zM7.18 5.81c-.256 0-.511 0-.583.02.051 0 .051.263.051.506v.718c0 .253 0 .506.02.576 0-.05.267-.05.512-.05h.725c.256 0 .511 0 .593-.02-.05 0-.05-.263-.05-.516v-.718c0-.253 0-.506-.021-.577 0 .051-.266.051-.522.051H7.18z"/>
</svg>