<svg xmlns="http://www.w3.org/2000/svg" width="26" height="26" fill="currentColor" class="sym sym-skip-back-solid" viewBox="0 0 26 26">
  <path d="M5.656 5.059a1 1 0 0 0-.53.443l-.003.005-.11.189-.01 7.22c-.009 4.895.003 7.269.03 7.373.06.225.271.48.49.592a.98.98 0 0 0 1.17-.173c.325-.324.3.324.3-7.707 0-8.03.025-7.383-.299-7.708a.99.99 0 0 0-1.045-.234l.006-.002zm13.074.058c-.265.038-.704.248-1.09.522-.649.46-7.278 5.802-7.502 6.044a1.85 1.85 0 0 0-.503 1.029 1.89 1.89 0 0 0 .503 1.609c.223.242 6.853 5.583 7.502 6.043.401.285.82.48 1.113.523.72.102 1.5-.243 1.873-.825.213-.332.292-.631.336-1.266.05-.75.05-10.84 0-11.59-.066-.956-.279-1.398-.853-1.774a2.04 2.04 0 0 0-1.389-.315z"/>
</svg>