<svg xmlns="http://www.w3.org/2000/svg" width="26" height="26" fill="currentColor" class="sym sym-skip-forward-solid" viewBox="0 0 26 26">
  <path d="M19.662 5.059a1 1 0 0 0-.531.443l-.002.005-.111.189-.01 7.22c-.008 4.895.003 7.269.03 7.373.06.225.272.48.49.592a.98.98 0 0 0 1.17-.173c.326-.324.302.324.302-7.707 0-8.03.024-7.383-.3-7.708a1 1 0 0 0-1.045-.234l.007-.002zm-12.96.057c-.631.084-1.19.476-1.456 1.02-.258.527-.246.182-.246 6.866 0 6.685-.012 6.34.246 6.867.273.556.828.937 1.49 1.02.519.067.995-.089 1.604-.522.63-.446 7.285-5.802 7.5-6.036.266-.275.45-.63.512-1.028l.001-.01q.022-.136.023-.295c0-.515-.204-.982-.536-1.325h.001c-.22-.236-6.883-5.6-7.496-6.032-.653-.46-1.087-.598-1.642-.525"/>
</svg>