<svg xmlns="http://www.w3.org/2000/svg" width="26" height="26" fill="currentColor" class="sym sym-skip-forward" viewBox="0 0 26 26">
  <path d="M20.188 21.1a.91.91 0 0 1-.911-.911V6.012c0-.507.405-.912.911-.912.507 0 .912.405.912.912v14.177a.91.91 0 0 1-.912.911m-13.164-.08a1.91 1.91 0 0 1-1.5-.72c-.424-.527-.424-1.175-.424-2.46V8.38c0-1.286 0-1.934.415-2.46a1.99 1.99 0 0 1 1.509-.73c.668 0 1.174.405 2.177 1.205l5.914 4.73c.628.506 1.013.81 1.195 1.306.162.435.162.911 0 1.347-.182.496-.567.8-1.185 1.296l-5.914 4.739-.567-.709.567.72c-1.003.8-1.509 1.204-2.187 1.204zM6.963 6.993c-.03.142-.03.77-.03 1.377v9.458c0 .608 0 1.236.06 1.387.132-.07.618-.455 1.094-.83l.577.709-.567-.709 5.914-4.729c.294-.233.587-.466.638-.557-.06-.091-.354-.324-.638-.547L8.087 7.814c-.476-.385-.962-.77-1.124-.82"/>
</svg>