<svg xmlns="http://www.w3.org/2000/svg" width="26" height="26" fill="currentColor" class="sym sym-slash-octagon" viewBox="0 0 26 26">
  <path d="M16.505 24h-7.02c-.293 0-.475 0-.697-.05a1.8 1.8 0 0 1-.556-.233c-.181-.11-.323-.242-.515-.444l-4.98-4.975c-.202-.202-.333-.333-.454-.525a1.9 1.9 0 0 1-.233-.565C2 16.996 2 16.805 2 16.522V9.498c0-.292 0-.484.05-.706.04-.182.122-.364.223-.545.12-.202.252-.333.454-.535l4.98-4.975c.212-.212.344-.343.535-.454.162-.101.354-.182.556-.233C9.02 2 9.212 2 9.495 2h7.02c.293 0 .475 0 .697.05a1.8 1.8 0 0 1 .556.233c.181.11.323.242.515.444l4.98 4.975c.202.202.333.333.454.525.111.191.192.373.233.565.05.212.05.403.05.686v7.024c0 .293 0 .484-.05.706-.04.182-.122.364-.223.545-.12.202-.252.333-.454.535l-4.98 4.975c-.212.212-.343.343-.535.454a2 2 0 0 1-.556.233c-.222.05-.414.05-.697.05m0-1.817h.283c.06-.04.121-.1.212-.201l1.849-1.847-13-12.988L4.01 8.983c-.1.101-.162.152-.202.212v7.599c.04.061.101.122.192.212l4.98 4.976c.1.1.151.161.202.201.08.01.161 0 .293 0zM7.141 5.865l13 12.988 1.839-1.837c.1-.1.161-.15.202-.211V9.206a1.5 1.5 0 0 0-.192-.212l-4.98-4.976c-.1-.1-.151-.161-.202-.201-.08-.01-.162 0-.293 0H9.212c-.06.04-.121.1-.212.201L7.152 5.865z"/>
</svg>