<svg xmlns="http://www.w3.org/2000/svg" width="26" height="26" fill="currentColor" class="sym sym-slash-circle-solid" viewBox="0 0 26 26">
  <path fill-rule="evenodd" d="M12.069 2.024c-2.252.22-4.209 1.004-5.98 2.397-.462.363-1.498 1.433-1.873 1.934C3.057 7.9 2.36 9.586 2.074 11.54c-.099.673-.099 2.251 0 2.924.286 1.952.982 3.637 2.141 5.185.456.608 1.529 1.681 2.137 2.137 1.55 1.158 3.235 1.853 5.187 2.14.673.099 2.253.099 2.926 0 1.952-.286 3.637-.982 5.187-2.14.607-.456 1.68-1.529 2.137-2.137 1.159-1.548 1.854-3.233 2.141-5.185.052-.357.07-.734.07-1.462 0-.729-.018-1.106-.07-1.462-.286-1.953-.984-3.64-2.142-5.185-.375-.501-1.411-1.57-1.873-1.934-1.6-1.259-3.358-2.023-5.33-2.315-.635-.094-1.946-.136-2.516-.082m2.255 2.065c4.374.668 7.686 4.402 7.686 8.91A9 9 0 0 1 21.074 17l.024-.052c-.276.562-.646 1.168-.913 1.496l-.142.174-6.324-6.322C7.614 6.193 7.396 5.97 7.462 5.897c.145-.162 1.056-.728 1.592-.99 1.032-.504 1.968-.76 3.286-.895.322-.033 1.574.015 1.984.077m4.228 16.024c-.354.276-1.136.757-1.6.984a8.86 8.86 0 0 1-3.953.916 8.96 8.96 0 0 1-5.655-2l.017.013c-1.521-1.219-2.652-2.985-3.108-4.86-.187-.765-.245-1.274-.245-2.164 0-1.137.14-1.99.486-2.985.274-.782.887-1.92 1.325-2.458l.142-.174 6.335 6.333c6.05 6.048 6.33 6.335 6.256 6.395"/>
</svg>