<svg xmlns="http://www.w3.org/2000/svg" width="26" height="26" fill="currentColor" class="sym sym-slash-circle" viewBox="0 0 26 26">
  <path d="M12.995 24C6.933 24 2 19.067 2 13.005c0-3.006 1.21-5.73 3.167-7.717l.06-.06.061-.06A10.96 10.96 0 0 1 13.005 2C19.067 2 24 6.933 24 12.995a10.97 10.97 0 0 1-3.228 7.777l-.06.06A10.97 10.97 0 0 1 12.995 24M5.894 7.195a9.13 9.13 0 0 0-2.078 5.81c0 5.064 4.115 9.18 9.179 9.18a9.1 9.1 0 0 0 5.81-2.079zm1.28-1.281 12.912 12.911a9.13 9.13 0 0 0 2.078-5.81c0-5.064-4.115-9.18-9.18-9.18a9.1 9.1 0 0 0-5.81 2.079"/>
</svg>