<svg xmlns="http://www.w3.org/2000/svg" width="26" height="26" fill="currentColor" class="sym sym-slash-octagon-solid" viewBox="0 0 26 26">
  <path fill-rule="evenodd" d="M8.86 2.043a2.4 2.4 0 0 0-.474.166l.015-.006c-.24.112-.486.348-3.168 3.027-2.727 2.726-2.914 2.923-3.025 3.167-.06.132-.115.289-.156.452l-.005.02c-.063.298-.063 7.959 0 8.256.025.117.097.33.161.472.11.244.3.443 3.025 3.17C7.958 23.491 8.158 23.68 8.4 23.79c.143.064.355.136.472.162.297.063 7.957.063 8.254 0a3 3 0 0 0 .472-.162c.244-.11.443-.3 3.168-3.025s2.914-2.925 3.025-3.169c.063-.143.135-.355.16-.472.064-.297.064-7.958 0-8.256-.045-.183-.1-.34-.168-.49l.008.018c-.11-.244-.298-.441-3.025-3.167-2.686-2.683-2.928-2.914-3.168-3.026a2.4 2.4 0 0 0-.48-.162l-.017-.002c-.304-.055-7.95-.052-8.242.003m13.138 7.213v7.482l-1.92 1.919L7.342 5.916l1.919-1.92h7.48zm-9.698 4.46 6.359 6.361-1.919 1.92H9.26l-5.259-5.26v-7.48l.95-.951c.522-.522.959-.95.97-.95s2.881 2.862 6.379 6.36"/>
</svg>