<svg xmlns="http://www.w3.org/2000/svg" width="26" height="26" fill="currentColor" class="sym sym-sliders-solid" viewBox="0 0 26 26">
  <path d="M6.988 5.046a.82.82 0 0 0-.434.355l-.002.003-.091.152-.01 2.975c-.005 2 .003 3.015.026 3.1.05.18.223.384.403.475.11.06.244.095.384.095a.8.8 0 0 0 .574-.234c.259-.252.246-.077.246-3.367 0-3.288.012-3.115-.245-3.366a.82.82 0 0 0-.857-.187zm5.834-.022a.87.87 0 0 0-.55.43l-.002.005c-.07.127-.071.16-.08 1.833l-.01 1.705-.926.01c-.872.01-.932.014-1.057.08-.3.156-.453.398-.453.716s.153.559.453.716c.133.069.133.069 2.805.069s2.672 0 2.804-.07c.3-.156.454-.398.454-.715 0-.318-.154-.56-.454-.717-.124-.065-.184-.07-1.056-.079l-.926-.01-.01-1.705c-.01-1.674-.011-1.707-.08-1.833-.182-.333-.577-.52-.914-.435zm5.739 0a.87.87 0 0 0-.55.43l-.003.005-.07.13v7.628l.07.129c.16.293.409.443.733.443.325 0 .573-.15.733-.443l.07-.13V5.589l-.07-.129c-.183-.333-.576-.52-.913-.435m-5.739 7.21a.87.87 0 0 0-.55.43l-.002.005-.071.13v7.628l.07.13c.161.292.409.442.733.442.325 0 .573-.15.733-.443l.071-.129V12.8l-.07-.13c-.183-.333-.577-.52-.914-.435M4.624 13.84c-.616.148-.834.893-.39 1.328.053.05.153.122.225.159.125.065.185.07 1.058.08l.925.01.01 2.505c.009 2.494.009 2.506.079 2.635a.79.79 0 0 0 .733.442c.324 0 .572-.15.733-.442.07-.128.07-.14.079-2.635l.01-2.506.925-.01c.873-.01.933-.014 1.057-.08.3-.156.453-.398.453-.715 0-.318-.153-.56-.453-.717-.132-.069-.14-.069-2.738-.074-1.434-.002-2.652.005-2.706.02m11.478 1.602c-.617.149-.834.893-.39 1.328.052.05.153.122.225.16.124.064.184.069 1.057.079l.925.01.01 1.704c.01 1.674.011 1.707.08 1.834a.79.79 0 0 0 .733.442c.324 0 .572-.15.733-.442.069-.127.07-.16.08-1.834l.01-1.704.925-.01c.873-.01.932-.015 1.057-.08.3-.157.453-.399.453-.716s-.153-.56-.453-.716c-.132-.07-.14-.07-2.74-.074-1.433-.003-2.651.005-2.705.018"/>
</svg>