<svg xmlns="http://www.w3.org/2000/svg" width="26" height="26" fill="currentColor" class="sym sym-sliders-02" viewBox="0 0 26 26">
  <path d="M19.29 22a.906.906 0 0 1-.91-.91v-2.84a2.72 2.72 0 0 1-1.8-2.546 2.71 2.71 0 0 1 5.42 0 2.7 2.7 0 0 1-1.8 2.546v2.84c0 .506-.404.91-.91.91m0-7.186a.89.89 0 0 0-.89.89c0 .495.394.889.89.889.495 0 .89-.394.89-.89a.885.885 0 0 0-.89-.889M13 22a.906.906 0 0 1-.91-.91v-5.386c0-.506.404-.91.91-.91s.91.404.91.91v5.386c0 .506-.404.91-.91.91m-6.29 0a.906.906 0 0 1-.91-.91v-4.639A2.7 2.7 0 0 1 4 13.905a2.71 2.71 0 0 1 5.42 0 2.7 2.7 0 0 1-1.8 2.546v4.64a.905.905 0 0 1-.91.909m0-8.985a.89.89 0 0 0-.89.89c0 .495.395.889.89.889.496 0 .89-.394.89-.89a.885.885 0 0 0-.89-.889m6.29 0a2.71 2.71 0 0 1-2.71-2.708c0-1.173.748-2.173 1.8-2.547V4.92c0-.506.404-.91.91-.91s.91.404.91.91v2.84a2.7 2.7 0 0 1 1.8 2.547A2.71 2.71 0 0 1 13 13.015m0-3.598a.89.89 0 0 0-.89.89c0 .495.395.889.89.889s.89-.394.89-.89a.885.885 0 0 0-.89-.889m6.29 1.8a.906.906 0 0 1-.91-.91V4.92c0-.506.404-.91.91-.91s.91.404.91.91v5.387c0 .505-.404.91-.91.91m-12.58-1.8a.906.906 0 0 1-.91-.91V4.91c0-.506.404-.91.91-.91s.91.404.91.91v3.598c0 .505-.404.91-.91.91"/>
</svg>