<svg xmlns="http://www.w3.org/2000/svg" width="26" height="26" fill="currentColor" class="sym sym-sliders-02-solid" viewBox="0 0 26 26">
  <path d="M6.377 4.051a.9.9 0 0 0-.48.4l-.001.004-.1.17-.01 1.994c-.008 1.321.002 2.04.027 2.134a.95.95 0 0 0 .444.537.89.89 0 0 0 1.056-.155c.273-.274.27-.247.27-2.436s.003-2.163-.27-2.435a.9.9 0 0 0-.943-.21zm6.425-.024a.96.96 0 0 0-.606.484l-.003.005c-.076.142-.078.189-.088 1.7l-.011 1.557-.158.06c-.72.273-1.365 1.04-1.56 1.85-.074.314-.074.924.001 1.243.19.805.759 1.489 1.524 1.835.344.156.668.22 1.1.22.22 0 .48-.024.622-.057a2.74 2.74 0 0 0 1.996-1.978l.004-.02c.075-.315.075-.926 0-1.242-.19-.807-.84-1.576-1.558-1.85l-.158-.06-.01-1.557c-.012-1.511-.014-1.559-.09-1.7-.2-.375-.635-.586-1.006-.49m6.321 0a.96.96 0 0 0-.606.484l-.002.005c-.078.146-.078.146-.078 3.084s0 2.939.078 3.084c.176.33.45.498.807.498s.63-.168.807-.498c.078-.145.078-.146.078-3.084s0-2.938-.078-3.084c-.201-.375-.635-.586-1.006-.489M6.355 11.243A2.7 2.7 0 0 0 4.06 13.27l-.004.018c-.076.32-.076.93 0 1.243.194.81.84 1.576 1.559 1.851l.159.06.01 2.457c.01 2.435.011 2.457.088 2.602.177.33.45.498.807.498s.63-.168.807-.498c.076-.144.078-.167.087-2.602l.011-2.457.16-.06c.718-.275 1.366-1.045 1.558-1.851.075-.316.075-.927 0-1.243a2.713 2.713 0 0 0-2.962-2.046l.013-.001m12.643 1.804a2.7 2.7 0 0 0-2.294 2.029l-.004.018c-.076.32-.076.929 0 1.243.193.81.84 1.577 1.558 1.85l.158.06.01 1.557c.012 1.511.014 1.558.09 1.7.176.33.45.498.807.498s.63-.168.807-.498c.076-.142.078-.189.088-1.7l.011-1.556.158-.06c.72-.274 1.368-1.044 1.559-1.851.075-.316.075-.927 0-1.243a2.713 2.713 0 0 0-2.962-2.046zm-6.194 1.8a.96.96 0 0 0-.606.484l-.003.005c-.078.146-.078.146-.078 3.084s0 2.939.078 3.084c.177.33.45.498.807.498s.63-.168.807-.498c.078-.145.078-.146.078-3.084s0-2.938-.078-3.084c-.2-.375-.634-.586-1.005-.49"/>
</svg>