<svg xmlns="http://www.w3.org/2000/svg" width="26" height="26" fill="currentColor" class="sym sym-sliders-03" viewBox="0 0 26 26">
  <path d="M7.608 20C5.618 20 4 18.428 4 16.493s1.617-3.508 3.608-3.508c1.678 0 3.083 1.11 3.487 2.623h9.985c.506 0 .91.393.91.885a.893.893 0 0 1-.91.884h-9.985C10.69 18.88 9.275 20 7.608 20m0-5.236c-.98 0-1.789.776-1.789 1.739 0 .962.799 1.738 1.79 1.738.99 0 1.788-.776 1.788-1.738 0-.963-.798-1.74-1.789-1.74m10.784-1.75c-1.678 0-3.083-1.11-3.487-2.622H4.92a.893.893 0 0 1-.91-.885c0-.49.404-.884.91-.884h9.985C15.31 7.12 16.725 6 18.392 6 20.382 6 22 7.572 22 9.507s-1.617 3.508-3.608 3.508m0-5.236c-.98 0-1.789.776-1.789 1.74 0 .962.798 1.738 1.789 1.738s1.789-.776 1.789-1.739-.799-1.739-1.79-1.739"/>
</svg>