<svg xmlns="http://www.w3.org/2000/svg" width="26" height="26" fill="currentColor" class="sym sym-sliders" viewBox="0 0 26 26">
  <path d="M18.663 21a.896.896 0 0 1-.91-.889V17.05h-1.517a.896.896 0 0 1-.91-.889c0-.493.404-.888.91-.888h4.854c.506 0 .91.395.91.888a.896.896 0 0 1-.91.89h-1.517v3.061a.896.896 0 0 1-.91.889M13 21a.896.896 0 0 1-.91-.889V13c0-.494.404-.889.91-.889s.91.395.91.889v7.111A.896.896 0 0 1 13 21m-5.663 0a.896.896 0 0 1-.91-.889V15.47H4.91a.896.896 0 0 1-.91-.89c0-.494.405-.889.91-.889h4.854c.506 0 .91.395.91.89a.896.896 0 0 1-.91.888H8.247v4.642a.896.896 0 0 1-.91.889m11.326-7.111a.896.896 0 0 1-.91-.889V5.889c0-.494.404-.889.91-.889s.91.395.91.889V13a.896.896 0 0 1-.91.889m-11.326-1.58a.896.896 0 0 1-.91-.89V5.89c0-.494.404-.889.91-.889s.91.395.91.889v5.53a.896.896 0 0 1-.91.89m8.09-1.58h-4.854a.896.896 0 0 1-.91-.89c0-.493.404-.888.91-.888h1.517V5.889c0-.494.404-.889.91-.889s.91.395.91.889V8.95h1.517c.506 0 .91.395.91.888a.896.896 0 0 1-.91.89"/>
</svg>