<svg xmlns="http://www.w3.org/2000/svg" width="26" height="26" fill="currentColor" class="sym sym-solid-strikethrough-solid" viewBox="0 0 26 26">
  <path d="M4.579 4.057c-.317.111-.579.49-.579.838 0 .314.09.456.637 1.013l.518.526-.07.18c-.139.35-.184.695-.184 1.369 0 .714.023.842.19 1.061a.898.898 0 0 0 1.34.086c.201-.2.27-.413.27-.828v-.327l5.403 5.404v5.926h-.968c-1.045 0-1.156.015-1.397.2q-.128.112-.216.255l-.002.004c-.086.146-.1.21-.1.44 0 .231.014.296.1.441.054.093.153.21.218.26.268.205.184.2 3.263.2 3.193 0 3.053.011 3.333-.27a.885.885 0 0 0 0-1.263c-.25-.25-.353-.269-1.465-.269h-.966V15.18l3.358 3.355c3.073 3.069 3.373 3.359 3.535 3.412.351.116.69.04.941-.211a.88.88 0 0 0 .164-1.036l.002.005c-.057-.116-2.253-2.335-8.296-8.376-7.6-7.597-8.234-8.222-8.398-8.276a.94.94 0 0 0-.637.006zm5.938.871a.95.95 0 0 0-.44.284c-.4.444-.244 1.14.314 1.4.17.078.22.083.945.084h.765v.765c.001.726.006.775.085.946.046.1.15.238.229.31.447.404 1.141.25 1.403-.31.079-.171.083-.22.084-.948v-.767l4.736.022.17.084a1 1 0 0 1 .266.198c.178.21.2.319.226 1.07.023.681.027.708.123.872a.896.896 0 0 0 1.413.189c.249-.249.281-.402.259-1.239-.014-.562-.033-.766-.095-.993a2.64 2.64 0 0 0-1.41-1.711l-.015-.007c-.57-.273-.311-.26-4.88-.27-2.248-.005-4.127.004-4.177.02"/>
</svg>