<svg xmlns="http://www.w3.org/2000/svg" width="26" height="26" fill="currentColor" class="sym sym-solid-solid" viewBox="0 0 26 26">
  <path d="M6.666 4.028a2.935 2.935 0 0 0-2.545 2.16l-.005.02c-.104.389-.157 1.763-.079 2.049.195.72 1.134.965 1.665.433.245-.244.29-.427.31-1.262.018-.75.045-.873.243-1.108.06-.07.192-.169.297-.22l.189-.093 5.261-.024v14.016h-1.075c-1.161 0-1.284.017-1.552.222a1.2 1.2 0 0 0-.24.284l-.003.005c-.095.162-.11.233-.11.49 0 .255.015.328.11.489.061.103.17.234.243.289.298.228.205.222 3.626.222 3.547 0 3.393.013 3.703-.3a.984.984 0 0 0 0-1.404c-.278-.277-.393-.299-1.628-.299h-1.074V5.981l2.63.012c2.873.013 2.75.003 3.039.247.257.216.3.382.329 1.26.025.766.03.795.136.978a.995.995 0 0 0 1.57.21c.276-.276.312-.447.288-1.377-.016-.625-.037-.85-.105-1.104a2.94 2.94 0 0 0-1.567-1.902l-.018-.007c-.645-.31-.141-.29-7.101-.297-3.422-.004-6.363.008-6.537.026"/>
</svg>