<svg xmlns="http://www.w3.org/2000/svg" width="26" height="26" fill="currentColor" class="sym sym-solid" viewBox="0 0 26 26">
  <path d="M16.05 21.99H9.98a.906.906 0 0 1-.91-.91c0-.505.404-.91.91-.91h2.124V5.82H7.957c-.769 0-1.234 0-1.447.08a1.13 1.13 0 0 0-.607.617c-.08.192-.08.657-.08 1.425 0 .505-.405.91-.911.91A.906.906 0 0 1 4 7.941c0-1.031 0-1.597.223-2.133A2.94 2.94 0 0 1 5.81 4.222C6.358 4 6.924 4 7.946 4h10.118c1.032 0 1.599 0 2.135.222A2.94 2.94 0 0 1 21.777 5.8C22 6.345 22 6.911 22 7.942c0 .505-.405.91-.91.91a.906.906 0 0 1-.911-.91c0-.768 0-1.233-.081-1.436a1.1 1.1 0 0 0-.597-.596c-.203-.08-.668-.08-1.437-.08h-4.148v14.35h2.125c.505 0 .91.405.91.91 0 .506-.405.91-.91.91z"/>
</svg>