<svg xmlns="http://www.w3.org/2000/svg" width="26" height="26" fill="currentColor" class="sym sym-solid-strikethrough" viewBox="0 0 26 26">
  <path d="M21.087 22a.95.95 0 0 1-.647-.263l-6.535-6.535v4.087h1.79c.506 0 .911.404.911.91s-.405.91-.91.91h-5.402a.907.907 0 0 1-.91-.91c0-.506.404-.91.91-.91h1.79V13.38l-5.37-5.372v.495c0 .506-.405.91-.911.91a.907.907 0 0 1-.91-.91v-.9c0-.405.09-.8.263-1.163l-.89-.89A.91.91 0 0 1 5.55 4.265l16.184 16.186a.91.91 0 0 1 0 1.285.9.9 0 0 1-.648.263m-.9-12.585a.907.907 0 0 1-.91-.91c0-.648 0-1.083-.071-1.255a.88.88 0 0 0-.486-.465c-.162-.071-.617-.071-1.244-.071h-3.58v1.335c0 .506-.405.91-.911.91a.907.907 0 0 1-.91-.91V6.714h-1.336a.907.907 0 0 1-.91-.91c0-.507.404-.911.91-.911h6.737c.93 0 1.446 0 1.942.212.658.273 1.194.8 1.467 1.467.202.506.202 1.012.202 1.932 0 .506-.404.91-.91.91z"/>
</svg>