<svg xmlns="http://www.w3.org/2000/svg" width="26" height="26" fill="currentColor" class="sym sym-spacing-height" viewBox="0 0 26 26">
  <path d="M21.09 22H4.91a.906.906 0 0 1-.91-.91c0-.506.404-.91.91-.91h16.18c.506 0 .91.404.91.91s-.404.91-.91.91M13 19.3a.8.8 0 0 1-.263-.04.8.8 0 0 1-.253-.132l-2.68-1.79a.91.91 0 0 1-.252-1.264.92.92 0 0 1 1.264-.253l1.284.85V9.289l-1.284.85a.913.913 0 0 1-1.264-.254.913.913 0 0 1 .253-1.264l2.68-1.79s.06-.04.09-.05c.05-.03.112-.05.172-.07.081-.021.172-.041.263-.041s.182.01.263.04a.8.8 0 0 1 .253.132l2.68 1.79a.911.911 0 1 1-1.012 1.516l-1.284-.85v7.383l1.284-.85a.913.913 0 0 1 1.264.253.913.913 0 0 1-.252 1.264l-2.68 1.79s-.06.04-.091.05c-.05.031-.111.051-.172.072a1 1 0 0 1-.263.04m8.09-13.48H4.91A.906.906 0 0 1 4 4.91c0-.506.404-.91.91-.91h16.18c.506 0 .91.404.91.91s-.404.91-.91.91"/>
</svg>