<svg xmlns="http://www.w3.org/2000/svg" width="26" height="26" fill="currentColor" class="sym sym-spacing-width-solid" viewBox="0 0 26 26">
  <path d="M4.59 4.051a.9.9 0 0 0-.477.4l-.002.004-.1.17L4 12.923c-.005 5.64.004 8.344.029 8.438.054.2.244.43.44.532a.885.885 0 0 0 1.054-.155c.296-.294.27.509.27-8.738 0-9.244.025-8.443-.269-8.737a.9.9 0 0 0-.941-.21zm16.329-.024a.96.96 0 0 0-.605.484l-.003.005-.078.145v16.68l.078.145c.176.33.449.498.806.498s.629-.168.805-.498l.078-.145V4.66l-.078-.145c-.2-.375-.633-.586-1.003-.489m-11.7 5.405a1.3 1.3 0 0 0-.291.117l.006-.003c-.14.078-.266.249-1.122 1.53a65 65 0 0 0-1.026 1.567c-.087.167-.087.55 0 .718.116.225 1.935 2.935 2.014 3.002a.91.91 0 0 0 1.226-.033.82.82 0 0 0 .253-.594v-.033.001c0-.284-.006-.297-.56-1.125a15 15 0 0 1-.427-.658c0-.01 1.67-.019 3.713-.019 2.042 0 3.713.008 3.713.02 0 .01-.192.305-.427.657-.553.828-.56.84-.56 1.125.001.26.078.45.252.626a.91.91 0 0 0 1.226.032c.08-.065 1.899-2.775 2.015-3 .087-.168.087-.552 0-.72-.116-.224-1.935-2.934-2.015-3a.91.91 0 0 0-1.226.032.82.82 0 0 0-.252.627c0 .284.007.297.56 1.125.235.351.427.648.427.657 0 .011-1.67.02-3.713.02s-3.713-.009-3.713-.02c0-.01.192-.306.427-.657.554-.828.56-.84.56-1.125v-.007a.88.88 0 0 0-1.066-.86z"/>
</svg>