<svg xmlns="http://www.w3.org/2000/svg" width="26" height="26" fill="currentColor" class="sym sym-spacing-width" viewBox="0 0 26 26">
  <path d="M21.09 22a.906.906 0 0 1-.91-.91V4.91c0-.506.404-.91.91-.91s.91.404.91.91v16.18c0 .506-.404.91-.91.91M4.91 22a.906.906 0 0 1-.91-.91V4.91c0-.506.404-.91.91-.91s.91.404.91.91v16.18c0 .506-.404.91-.91.91m11.69-5.39a.911.911 0 0 1-.758-1.416l.849-1.284H9.309l.85 1.284a.913.913 0 0 1-.253 1.264.913.913 0 0 1-1.264-.252l-1.79-2.68-.061-.091a1 1 0 0 1-.07-.172A.8.8 0 0 1 6.68 13a.8.8 0 0 1 .04-.263c.02-.06.04-.111.071-.172l.06-.09 1.79-2.68a.911.911 0 1 1 1.517 1.011L9.31 12.09h7.382l-.85-1.284a.913.913 0 0 1 .253-1.264.913.913 0 0 1 1.264.252l1.79 2.68.061.091c.03.05.05.111.07.172.031.081.041.172.041.263s-.01.172-.04.263c-.02.06-.04.111-.071.172l-.06.09-1.79 2.68a.9.9 0 0 1-.759.405"/>
</svg>