<svg xmlns="http://www.w3.org/2000/svg" width="26" height="26" fill="currentColor" class="sym sym-stand-solid" viewBox="0 0 26 26">
  <path d="M12.725 4.047a.83.83 0 0 0-.434.363l-.002.004c-.087.149-.09.174-.1.685l-.013.53-3.015.013c-2.588.011-3.05.02-3.246.064A2.4 2.4 0 0 0 4.39 6.774c-.191.29-.305.634-.353 1.06-.048.435-.048 7.441 0 7.875.089.79.45 1.383 1.106 1.815.492.323.893.388 2.4.388h1.022l-1.41 1.416c-1.264 1.27-1.415 1.433-1.464 1.578a.8.8 0 0 0 .192.854.8.8 0 0 0 .854.192c.146-.049.347-.24 2.158-2.047l1.996-1.993h1.292v1.695c0 1.067.013 1.74.034 1.816a.87.87 0 0 0 .4.479.8.8 0 0 0 .956-.141c.248-.248.246-.231.246-2.152v-1.697h1.292l1.996 1.993c1.81 1.807 2.012 1.998 2.158 2.047a.8.8 0 0 0 .854-.192.81.81 0 0 0 .192-.854c-.049-.145-.2-.308-1.464-1.578l-1.41-1.416h1.023c1.506 0 1.907-.065 2.399-.388.656-.432 1.017-1.025 1.106-1.815.048-.434.048-7.44 0-7.874-.048-.427-.162-.77-.353-1.06a2.4 2.4 0 0 0-1.526-1.069c-.197-.044-.658-.053-3.248-.064l-3.019-.013v-.467c0-.56-.042-.72-.245-.922a.81.81 0 0 0-.854-.192z"/>
</svg>