<svg xmlns="http://www.w3.org/2000/svg" width="26" height="26" fill="currentColor" class="sym sym-stand" viewBox="0 0 26 26">
  <path d="M19.49 21.998a.95.95 0 0 1-.647-.264L15.06 17.95h-1.143v3.137a.907.907 0 0 1-.91.912.907.907 0 0 1-.912-.912V17.95h-1.143l-3.784 3.785a.91.91 0 0 1-1.285-1.285l2.489-2.49h-.88c-1.022 0-1.579 0-2.115-.274a2.53 2.53 0 0 1-1.103-1.103C4 16.035 4 15.479 4 14.456V9.112c0-1.023 0-1.58.273-2.116.243-.476.628-.86 1.103-1.103.546-.273 1.103-.273 2.125-.273h4.593v-.71c0-.506.405-.911.911-.911s.91.405.91.911v.709h4.594c1.022 0 1.579 0 2.115.273.476.243.86.627 1.103 1.103C22 7.543 22 8.1 22 9.122v5.345c0 1.022 0 1.579-.273 2.115-.243.476-.628.86-1.103 1.103-.546.274-1.103.274-2.125.274h-.88l2.489 2.49a.91.91 0 0 1 0 1.285.9.9 0 0 1-.648.263zm-.97-5.872c.637 0 1.143 0 1.294-.08a.72.72 0 0 0 .314-.314c.071-.152.071-.658.071-1.296V9.092c0-.638 0-1.144-.081-1.296a.72.72 0 0 0-.314-.314c-.151-.07-.657-.07-1.295-.07H7.501c-.638 0-1.144 0-1.295.08a.72.72 0 0 0-.314.314c-.08.152-.08.658-.08 1.296v5.344c0 .638 0 1.144.08 1.296.07.131.172.243.314.314.151.07.657.07 1.295.07z"/>
</svg>