<svg xmlns="http://www.w3.org/2000/svg" width="26" height="26" fill="currentColor" class="sym sym-star" viewBox="0 0 26 26">
  <path d="M12.602 3.316c.258-.088.538-.088.796 0l.127.052.1.054c.22.135.353.33.432.457.096.155.196.358.3.565l2.087 4.19.002.005.009.002 4.67.676c.231.034.456.065.634.108.145.034.371.099.57.264l.082.078.09.104c.194.255.281.578.238.9-.041.31-.217.534-.328.663-.12.138-.283.294-.45.456l-3.378 3.26-.002.001.797 4.605c.04.228.08.45.094.632.013.17.022.454-.128.728a1.23 1.23 0 0 1-.855.617c-.304.056-.57-.039-.728-.104-.17-.07-.37-.175-.576-.282l-4.176-2.176-.009-.005-.009.005-4.176 2.176c-.206.107-.407.212-.576.282-.158.065-.424.16-.728.104a1.23 1.23 0 0 1-.855-.617c-.15-.273-.141-.558-.128-.728.015-.182.055-.404.094-.632l.797-4.605-.002-.002-3.378-3.26a8 8 0 0 1-.45-.455c-.111-.129-.287-.353-.328-.662a1.22 1.22 0 0 1 .328-1.005l.083-.078a1.36 1.36 0 0 1 .57-.264c.177-.043.402-.074.633-.108l4.67-.676.008-.002q0-.003.003-.004l2.088-4.19.152-.302q.076-.146.147-.264c.09-.146.251-.378.532-.51zm.384 1.797-2.088 4.19c-.044.09-.129.276-.27.426a1.2 1.2 0 0 1-.38.275c-.185.085-.388.107-.488.121l-4.67.677-.016.002.007.007 3.378 3.26c.054.052.154.141.242.258l.083.126.053.107q.048.109.074.225l.02.117.007.152c-.002.147-.029.278-.042.351L8.1 20.012l-.004.016.027-.012 4.175-2.175c.09-.047.266-.147.467-.186l.117-.017q.118-.012.236 0l.117.017.145.04c.138.046.255.11.322.146l4.175 2.175.026.012-.003-.016-.796-4.605c-.017-.098-.06-.298-.036-.503l.02-.117q.04-.175.128-.332l.083-.126c.088-.117.188-.206.242-.259l3.378-3.26.006-.006-.015-.002-4.67-.677c-.1-.014-.303-.036-.488-.121a1.2 1.2 0 0 1-.38-.275c-.141-.15-.226-.336-.27-.425l-2.088-4.19L13 5.085z"/>
</svg>