<svg xmlns="http://www.w3.org/2000/svg" width="26" height="26" fill="currentColor" class="sym sym-star-solid" viewBox="0 0 26 26">
  <path d="M14.088 4.132a1.38 1.38 0 0 0-1.176 0c-.322.151-.5.415-.589.56-.092.149-.187.339-.28.524L10.08 9.152l-4.394.635c-.207.03-.419.06-.59.102-.167.04-.475.125-.72.38a1.34 1.34 0 0 0-.363 1.108c.046.349.245.597.356.726.115.133.269.28.419.425l3.178 3.062-.75 4.324c-.035.204-.072.413-.086.588-.013.169-.026.485.144.795.197.358.546.61.952.683.35.065.65-.045.808-.11.164-.067.354-.166.54-.262l3.927-2.044 3.928 2.044c.185.096.375.195.538.262.159.065.459.175.81.11.405-.074.754-.325.951-.683.17-.31.157-.626.144-.795a7 7 0 0 0-.086-.588l-.75-4.324 3.178-3.062c.15-.144.304-.292.419-.425.111-.129.31-.377.356-.726a1.34 1.34 0 0 0-.363-1.107c-.245-.256-.552-.342-.72-.381a7 7 0 0 0-.59-.102l-4.394-.635-1.964-3.936c-.093-.185-.188-.375-.28-.525-.09-.144-.267-.408-.589-.56"/>
</svg>