<svg xmlns="http://www.w3.org/2000/svg" width="26" height="26" fill="currentColor" class="sym sym-sticker-square" viewBox="0 0 26 26">
  <path d="M16.775 22h-7.55c-1.657 0-2.486 0-3.254-.394a3.6 3.6 0 0 1-1.577-1.577C4 19.261 4 18.372 4 16.775v-7.55c0-1.597 0-2.486.394-3.254a3.5 3.5 0 0 1 1.577-1.577C6.739 4 7.568 4 9.225 4h2.88c.708 0 1.102 0 1.517.101.363.08.717.232 1.04.425.364.222.647.505 1.143 1l4.659 4.66c.505.505.778.777 1 1.141.192.324.344.667.435 1.041.101.415.101.809.101 1.516v2.89c0 1.598 0 2.487-.394 3.255a3.5 3.5 0 0 1-1.577 1.577c-.768.394-1.647.394-3.254.394M9.225 5.83c-1.324 0-2.041 0-2.425.191a1.76 1.76 0 0 0-.779.779c-.192.384-.192 1.111-.192 2.425v7.55c0 1.324 0 2.041.192 2.425.172.334.445.607.779.779.384.192 1.111.192 2.425.192h7.55c1.324 0 2.041 0 2.425-.192.344-.172.607-.445.779-.779.192-.384.192-1.111.192-2.425v-2.89c0-.415 0-.678-.02-.88H18.2c-1.597 0-2.486 0-3.254-.394a3.55 3.55 0 0 1-1.577-1.577c-.394-.768-.394-1.647-.394-3.254V5.83a10 10 0 0 0-.88-.02h-2.88zm5.579 1.283v.677c0 1.324 0 2.042.192 2.426.172.333.445.606.778.778.384.192 1.112.192 2.426.192h.677l-4.083-4.083z"/>
</svg>