<svg xmlns="http://www.w3.org/2000/svg" width="26" height="26" fill="currentColor" class="sym sym-sticker-square-solid" viewBox="0 0 26 26">
  <path d="M7.457 4.036c-.788.054-1.355.236-1.915.613-.488.33-1.025.985-1.24 1.513-.126.312-.22.745-.264 1.22-.05.567-.05 10.67 0 11.237.071.774.216 1.229.559 1.755a3.6 3.6 0 0 0 1.034 1.035c.55.358.998.494 1.84.56.352.028 2.167.036 5.873.028 5.919-.015 5.658-.005 6.347-.241.885-.305 1.76-1.18 2.064-2.065.219-.637.225-.723.238-3.665.014-2.657.013-2.684-.06-2.802-.142-.229-.078-.223-2.71-.223-1.333-.001-2.577-.017-2.817-.038-.784-.068-1.241-.211-1.773-.559-.75-.488-1.308-1.276-1.486-2.097-.117-.534-.144-1.21-.144-3.663 0-2.249-.002-2.308-.073-2.424-.14-.229-.076-.224-2.69-.218a95 95 0 0 0-2.783.033z"/>
  <path d="M14.965 5.306c-.097.097-.124.158-.146.331-.048.38.01 3.854.07 4.167.065.348.2.605.454.858.254.254.51.39.857.454.314.06 3.786.116 4.165.07.174-.022.235-.049.332-.146.1-.1.119-.146.119-.28v-.02a.42.42 0 0 0-.078-.246v.001c-.116-.156-4.954-5.004-5.156-5.167-.145-.117-.202-.14-.337-.14s-.181.02-.28.118"/>
</svg>