<svg xmlns="http://www.w3.org/2000/svg" width="26" height="26" fill="currentColor" class="sym sym-stop-solid" viewBox="0 0 26 26">
  <path d="M7.321 5.008c-.716.06-1.187.262-1.612.687-.393.393-.606.852-.673 1.447-.048.43-.048 11.273 0 11.702.046.418.158.754.345 1.038.421.642 1.001.995 1.773 1.082.43.048 11.262.048 11.692 0 .772-.086 1.352-.44 1.773-1.082.187-.284.298-.62.345-1.038.048-.43.048-11.272 0-11.702-.046-.418-.158-.753-.345-1.037a2.36 2.36 0 0 0-1.492-1.046c-.2-.046-.832-.052-5.95-.056a813 813 0 0 0-6.053.007l.198-.001z"/>
</svg>