<svg xmlns="http://www.w3.org/2000/svg" width="26" height="26" fill="currentColor" class="sym sym-stop" viewBox="0 0 26 26">
  <path d="M16.308 21H9.692c-1.419 0-2.21 0-2.909-.355a3.25 3.25 0 0 1-1.428-1.428C5 18.517 5 17.737 5 16.308V9.692c0-1.42 0-2.21.355-2.909a3.25 3.25 0 0 1 1.428-1.428C7.483 5 8.263 5 9.692 5h6.616c1.419 0 2.21 0 2.909.355.618.314 1.114.81 1.428 1.428.355.7.355 1.48.355 2.909v6.616c0 1.419 0 2.21-.355 2.909a3.25 3.25 0 0 1-1.428 1.428c-.7.355-1.48.355-2.909.355M9.692 6.814c-1.135 0-1.764 0-2.078.162a1.5 1.5 0 0 0-.638.638c-.162.314-.162.933-.162 2.078v6.616c0 1.135 0 1.764.162 2.078a1.5 1.5 0 0 0 .638.638c.314.162.933.162 2.078.162h6.616c1.135 0 1.764 0 2.078-.162a1.5 1.5 0 0 0 .638-.638c.162-.314.162-.933.162-2.078V9.692c0-1.135 0-1.764-.162-2.078a1.5 1.5 0 0 0-.638-.638c-.314-.162-.933-.162-2.078-.162z"/>
</svg>