<svg xmlns="http://www.w3.org/2000/svg" width="26" height="26" fill="currentColor" class="sym sym-strikethrough" viewBox="0 0 26 26">
  <path d="M14.818 21h-3.636c-2.455 0-4.455-1.977-4.455-4.404a.81.81 0 0 1 .818-.81.81.81 0 0 1 .819.81c0 1.537 1.263 2.786 2.818 2.786h3.636c1.555 0 2.818-1.25 2.818-2.786 0-1.538-1.263-2.787-2.818-2.787h-10A.81.81 0 0 1 4 13a.81.81 0 0 1 .818-.809h16.364A.81.81 0 0 1 22 13a.81.81 0 0 1-.818.809h-2.918a4.35 4.35 0 0 1 1.009 2.787c0 2.427-2 4.404-4.455 4.404m3.637-10.786a.81.81 0 0 1-.819-.81c0-1.537-1.263-2.786-2.818-2.786h-3.636c-1.555 0-2.818 1.25-2.818 2.787a.81.81 0 0 1-.819.809.81.81 0 0 1-.818-.81c0-2.426 2-4.404 4.455-4.404h3.636c2.455 0 4.455 1.978 4.455 4.405a.81.81 0 0 1-.818.809"/>
</svg>