<svg xmlns="http://www.w3.org/2000/svg" width="26" height="26" fill="currentColor" class="sym sym-strikethrough-solid" viewBox="0 0 26 26">
  <path d="M10.604 5.036c-.684.086-1.527.424-2.093.842a4.43 4.43 0 0 0-1.809 3.285v.013c-.025.42.014.593.178.806a.91.91 0 0 0 1.344.084c.182-.18.255-.384.283-.79.027-.392.077-.578.255-.955a2.6 2.6 0 0 1 1.285-1.275l.016-.007c.549-.254.47-.248 2.94-.248s2.393-.006 2.941.248c.58.263 1.034.712 1.295 1.266l.006.016c.173.361.222.56.268 1.059.024.275.05.381.124.506a.9.9 0 0 0 1.412.179c.224-.222.285-.433.256-.905a4.4 4.4 0 0 0-.963-2.473l.007.009a4.6 4.6 0 0 0-2.976-1.66l-.023-.003c-.373-.046-4.382-.043-4.746.003m-5.918 7.108c-.676.163-.917.992-.428 1.474.057.056.168.136.247.177l.145.077 10.681.035.253.084c.916.303 1.543.927 1.827 1.82.071.224.085.342.085.747 0 .403-.014.523-.085.747-.283.896-.935 1.538-1.847 1.82l-.27.083h-4.582l-.27-.083c-.904-.278-1.564-.924-1.837-1.798-.05-.18-.09-.394-.11-.615l-.001-.015c-.036-.414-.098-.58-.276-.757a.9.9 0 0 0-.627-.255.9.9 0 0 0-.627.255c-.21.208-.257.349-.251.76.018 1.112.484 2.175 1.31 2.99.64.631 1.352 1.012 2.265 1.212.333.073.464.078 2.4.093 2.218.017 2.673-.003 3.25-.147 1.578-.417 2.796-1.617 3.212-3.141l.008-.031c.088-.335.138-.718.138-1.114 0-.556-.1-1.09-.284-1.584l.01.032a5 5 0 0 0-.515-.978l-.094-.125 1.471-.018c1.42-.016 1.477-.02 1.617-.094.33-.174.499-.443.499-.795s-.168-.62-.498-.795l-.146-.076-8.28-.006c-4.555-.002-8.33.006-8.39.02"/>
</svg>