<svg xmlns="http://www.w3.org/2000/svg" width="26" height="26" fill="currentColor" class="sym sym-subscript-solid" viewBox="0 0 26 26">
  <path fill-rule="evenodd" d="M3.626 4.71a1 1 0 0 1 1.415 0l3.626 3.626 3.626-3.626a1 1 0 1 1 1.414 1.414L10.081 9.75l3.626 3.626a1 1 0 0 1-1.414 1.414l-3.626-3.626L5.04 14.79a1 1 0 0 1-1.415-1.414L7.253 9.75 3.626 6.124a1 1 0 0 1 0-1.414m14.19 7.712a3.286 3.286 0 0 1 4.08.685l.009.01c.491.57.762 1.3.762 2.05 0 1.137-.634 1.937-1.297 2.47-.62.5-1.38.857-1.926 1.115l-.059.027c-.523.247-.722.42-.83.587a1 1 0 0 0-.103.217h3.215a1 1 0 1 1 0 2h-4.334a1 1 0 0 1-1-1c0-.891.127-1.66.543-2.303.417-.645 1.031-1.015 1.656-1.31.599-.282 1.16-.55 1.584-.891.405-.325.55-.61.55-.912 0-.268-.096-.533-.273-.74a1.29 1.29 0 0 0-1.59-.265 1.18 1.18 0 0 0-.527.625 1 1 0 1 1-1.885-.67 3.18 3.18 0 0 1 1.421-1.693z"/>
</svg>