<svg xmlns="http://www.w3.org/2000/svg" width="26" height="26" fill="currentColor" class="sym sym-subscript" viewBox="0 0 26 26">
  <path fill-rule="evenodd" d="M3.626 4.71a1 1 0 0 1 1.414 0l3.626 3.626 3.627-3.626a1 1 0 1 1 1.414 1.414L10.08 9.75l3.626 3.626a1 1 0 0 1-1.414 1.414l-3.627-3.626L5.04 14.79a1 1 0 0 1-1.414-1.414L7.252 9.75 3.626 6.124a1 1 0 0 1 0-1.414m14.19 7.712a3.286 3.286 0 0 1 4.08.685l.008.01c.492.57.762 1.3.762 2.05 0 1.137-.634 1.937-1.296 2.47-.621.5-1.38.857-1.927 1.115l-.058.027c-.524.247-.722.42-.83.587a1 1 0 0 0-.103.217h3.214a1 1 0 1 1 0 2h-4.333a1 1 0 0 1-1-1c0-.891.127-1.66.542-2.303.417-.645 1.032-1.015 1.656-1.31.6-.282 1.161-.55 1.585-.891.404-.325.55-.61.55-.912 0-.268-.096-.533-.273-.74a1.286 1.286 0 0 0-1.59-.265 1.18 1.18 0 0 0-.528.625 1 1 0 1 1-1.884-.67 3.18 3.18 0 0 1 1.42-1.693z"/>
</svg>