<svg xmlns="http://www.w3.org/2000/svg" width="26" height="26" fill="currentColor" class="sym sym-superscript-solid" viewBox="0 0 26 26">
  <path fill-rule="evenodd" d="M17.813 4.846a3.28 3.28 0 0 1 4.079.68l.004.005c.5.572.77 1.302.77 2.055 0 1.139-.634 1.938-1.298 2.47-.616.495-1.369.85-1.912 1.107l-.07.033c-.523.247-.721.419-.83.587a1 1 0 0 0-.103.217h3.214a1 1 0 1 1 0 2h-4.334a1 1 0 0 1-1-1c0-.892.128-1.662.544-2.304.417-.644 1.03-1.014 1.654-1.308.6-.284 1.161-.55 1.585-.891.405-.325.55-.608.55-.911 0-.27-.096-.531-.275-.738a1.28 1.28 0 0 0-1.59-.263 1.17 1.17 0 0 0-.527.619 1 1 0 0 1-1.881-.68 3.17 3.17 0 0 1 1.42-1.677M3.626 11.21a1 1 0 0 1 1.415 0l3.626 3.626 3.626-3.626a1 1 0 1 1 1.414 1.414l-3.626 3.626 3.626 3.626a1 1 0 0 1-1.414 1.414l-3.626-3.626L5.04 21.29a1 1 0 1 1-1.415-1.414l3.627-3.626-3.627-3.626a1 1 0 0 1 0-1.414"/>
</svg>