<svg xmlns="http://www.w3.org/2000/svg" width="26" height="26" fill="currentColor" class="sym sym-switch-horizontal-solid" viewBox="0 0 26 26">
  <path d="M9.606 5.05c-.12.043-.38.296-1.799 1.752-1.18 1.21-1.678 1.743-1.726 1.844a.82.82 0 0 0-.039.622l-.002-.006c.051.16.154.274 1.709 1.878 1.176 1.214 1.694 1.726 1.791 1.776a.76.76 0 0 0 .89-.149.8.8 0 0 0 .183-.837c-.045-.14-.164-.274-1.003-1.143l-.952-.985h5.34c5.998 0 5.522.02 5.774-.24A.8.8 0 0 0 20 9.001a.8.8 0 0 0-.228-.562c-.252-.26.224-.24-5.773-.24H8.658l.952-.985c.84-.869.958-1.003 1.003-1.143a.8.8 0 0 0-.182-.836.77.77 0 0 0-.83-.183zm6.336 7.984a.82.82 0 0 0-.52.43l-.003.005c-.093.183-.089.497.007.69.047.094.391.474.993 1.096l.921.953-10.77.017-.125.07a.77.77 0 0 0-.43.715c0 .317.146.56.43.716l.126.069 10.77.017-.922.953c-.602.622-.945 1.002-.993 1.096a.825.825 0 0 0 .146.91.77.77 0 0 0 .884.15c.196-.102 3.358-3.356 3.458-3.558a.7.7 0 0 0 .072-.314l-.001-.04v.002l.001-.039a.7.7 0 0 0-.074-.318l.002.005c-.095-.193-3.262-3.457-3.446-3.552a.9.9 0 0 0-.526-.072"/>
</svg>