<svg xmlns="http://www.w3.org/2000/svg" width="26" height="26" fill="currentColor" class="sym sym-switch-horizontal" viewBox="0 0 26 26">
  <path d="M16.075 21a.9.9 0 0 1-.63-.264.935.935 0 0 1 0-1.29l1.544-1.595H6.885A.896.896 0 0 1 6 16.937c0-.508.394-.914.885-.914H16.99l-1.544-1.605a.935.935 0 0 1 0-1.29.865.865 0 0 1 1.25 0l3.059 3.16a.8.8 0 0 1 .177.273c.04.112.069.224.069.356s-.03.244-.069.355c-.04.092-.088.183-.157.264l-3.06 3.16a.86.86 0 0 1-.63.263zm-6.12-7.902a.9.9 0 0 1-.63-.264l-3.06-3.16a.8.8 0 0 1-.176-.273 1 1 0 0 1-.07-.356c0-.132.03-.244.07-.355.039-.092.088-.183.157-.265l3.06-3.158a.865.865 0 0 1 1.25 0 .935.935 0 0 1 0 1.29L9.01 8.15h10.105c.491 0 .885.407.885.914a.896.896 0 0 1-.886.915H9.01l1.545 1.604a.935.935 0 0 1 0 1.29.85.85 0 0 1-.63.264z"/>
</svg>