<svg xmlns="http://www.w3.org/2000/svg" width="26" height="26" fill="currentColor" class="sym sym-switch-vertical-solid" viewBox="0 0 26 26">
  <path d="M8.29 5.027a.96.96 0 0 0-.604.478l-.003.005-.078.144-.019 12.307-1.072-1.052c-.7-.688-1.127-1.08-1.234-1.136a.91.91 0 0 0-1.023.167.89.89 0 0 0-.167 1.015l-.002-.005c.115.224 3.777 3.838 4.004 3.952a.8.8 0 0 0 .353.082l.046-.001h-.002l.043.001c.128 0 .25-.03.357-.084l-.004.002c.227-.114 3.888-3.728 4.004-3.952a.89.89 0 0 0-.17-1.01.91.91 0 0 0-1.028-.165l.005-.002c-.106.054-.534.447-1.233 1.135L9.39 17.96 9.371 5.653l-.078-.143c-.2-.37-.634-.579-1.004-.483zm8.886.028c-.138.048-.44.329-2.082 1.946-1.367 1.344-1.943 1.936-1.999 2.047a.87.87 0 0 0 .168 1.018c.251.249.591.323.942.208.157-.05.308-.187 1.286-1.146l1.108-1.088v6.1c0 4.094.013 6.145.038 6.234a.95.95 0 0 0 .44.52.9.9 0 0 0 .424.106.9.9 0 0 0 .63-.259c.293-.289.27.257.27-6.598V8.04l1.109 1.088c.978.96 1.129 1.095 1.286 1.146.35.115.69.04.942-.208a.87.87 0 0 0 .165-1.023l.002.005c-.054-.111-.632-.703-1.998-2.047-1.734-1.707-1.937-1.896-2.098-1.948a.95.95 0 0 0-.64.005z"/>
</svg>