<svg xmlns="http://www.w3.org/2000/svg" width="26" height="26" fill="currentColor" class="sym sym-switch-vertical" viewBox="0 0 26 26">
  <path d="M8.615 20.905c-.11 0-.22-.03-.32-.07a.7.7 0 0 1-.29-.2l-3.5-3.5a.9.9 0 0 1 0-1.27.9.9 0 0 1 1.27 0l1.96 1.96V5.995c0-.5.4-.9.9-.9s.9.4.9.9v11.83l1.96-1.96a.9.9 0 0 1 1.27 0 .9.9 0 0 1 0 1.27l-3.5 3.5c-.09.09-.19.15-.29.2-.1.04-.21.06-.32.07zm8.76 0c-.5 0-.9-.4-.9-.9V8.175l-1.96 1.96a.9.9 0 0 1-1.27 0 .9.9 0 0 1 0-1.27l3.5-3.5c.09-.09.19-.15.29-.2.1-.04.21-.06.32-.07h.03c.11 0 .22.03.32.07.11.04.21.11.29.2l3.5 3.5a.9.9 0 0 1 0 1.27.9.9 0 0 1-1.27 0l-1.96-1.96v11.83c0 .5-.4.9-.9.9z"/>
</svg>