<svg xmlns="http://www.w3.org/2000/svg" width="26" height="26" fill="currentColor" class="sym sym-tablet-solid" viewBox="0 0 26 26">
  <path fill-rule="evenodd" d="M7.918 4.009c-.746.062-1.236.267-1.68.702-.409.402-.631.871-.7 1.48-.05.44-.05 13.164 0 13.604.048.428.164.77.359 1.061.439.657 1.043 1.019 1.847 1.107.445.05 10.067.05 10.512 0 .804-.088 1.408-.45 1.847-1.107.195-.29.31-.633.36-1.06.05-.44.05-13.165 0-13.606-.049-.427-.165-.77-.36-1.06a2.45 2.45 0 0 0-1.554-1.07c-.207-.046-.805-.052-5.365-.057a642 642 0 0 0-5.444.007zm5.515 12.34c.33.115.603.385.735.733.11.285.084.671-.06.962a1.26 1.26 0 0 1-.6.573l-.008.003c-.155.072-.23.084-.5.084s-.344-.012-.5-.084a1.26 1.26 0 0 1-.604-.569l-.003-.007a1.25 1.25 0 0 1-.056-.975l-.002.01a1.23 1.23 0 0 1 1.236-.796h-.004c.12.008.284.038.367.066"/>
</svg>