<svg xmlns="http://www.w3.org/2000/svg" width="26" height="26" fill="currentColor" class="sym sym-tablet" viewBox="0 0 26 26">
  <path d="M16.845 21.9h-7.68c-1 0-1.55 0-2.09-.27-.47-.24-.85-.62-1.09-1.08-.28-.55-.28-1.11-.28-2.11V7.56c0-1 0-1.55.26-2.09.26-.49.64-.86 1.09-1.1.55-.27 1.1-.27 2.1-.27h7.68c1 0 1.55 0 2.09.27.47.24.85.62 1.09 1.08.28.55.28 1.11.28 2.11v10.88c0 1 0 1.55-.26 2.09-.26.49-.64.86-1.09 1.1-.55.27-1.1.27-2.1.27m-7.68-16c-.68 0-1.13 0-1.29.08-.12.06-.23.17-.31.32-.06.13-.06.61-.06 1.26v10.88c0 .66 0 1.13.08 1.29.07.12.17.23.31.3.15.07.6.07 1.28.07h7.68c.68 0 1.13 0 1.29-.08.12-.06.23-.17.31-.32.06-.13.06-.61.06-1.26V7.56c0-.66 0-1.13-.08-1.29a.75.75 0 0 0-.31-.3c-.15-.07-.6-.07-1.28-.07zm3.84 12.8c-.72 0-1.3-.58-1.3-1.3s.58-1.3 1.3-1.3 1.3.58 1.3 1.3-.58 1.3-1.3 1.3"/>
</svg>