<svg xmlns="http://www.w3.org/2000/svg" width="26" height="26" fill="currentColor" class="sym sym-table-solid" viewBox="0 0 26 26">
  <path d="M6.615 4.01c-.82.073-1.337.294-1.816.774-.443.443-.683.96-.758 1.63-.063.56-.051 2.137.018 2.367a.87.87 0 0 0 .553.558l.006.002c.284.085 3.89.085 4.173 0a.87.87 0 0 0 .558-.553l.002-.007c.082-.275.085-3.892.004-4.164a.86.86 0 0 0-.438-.524l-.005-.002c-.165-.082-.2-.084-1.162-.089a27 27 0 0 0-1.175.01h.04zm5.387.01c-.338.046-.56.208-.7.508-.073.159-.075.205-.075 2.164s.002 2.006.075 2.165a.9.9 0 0 0 .442.444l.005.002.162.076h9.406l.162-.076a.9.9 0 0 0 .445-.441l.002-.005c.072-.155.076-.214.07-1.281-.006-1.486-.067-1.808-.446-2.375-.295-.442-.767-.83-1.219-1-.496-.189-.47-.187-4.437-.198-2.032-.005-3.784.003-3.892.017m-7.207 7.214c-.338.046-.56.207-.7.507-.075.161-.075.174-.073 3.985 0 4.128 0 4.09.194 4.603.17.453.557.925.999 1.22.567.38.888.44 2.373.446 1.066.006 1.124.002 1.28-.07a.9.9 0 0 0 .444-.441l.002-.006.076-.162v-9.414l-.076-.162a.9.9 0 0 0-.441-.445l-.005-.002c-.158-.073-.214-.075-2.018-.08-1.021-.004-1.945.005-2.055.02zm7.207 0c-.336.046-.56.207-.7.507l-.075.162v9.414l.075.162c.09.2.248.356.442.445l.005.002c.161.076.174.076 3.982.074 4.125-.001 4.086 0 4.6-.195.615-.232 1.242-.859 1.472-1.47.197-.52.195-.474.197-4.61.002-3.81.002-3.823-.074-3.984a.9.9 0 0 0-.441-.445l-.006-.002c-.162-.076-.168-.076-4.72-.08-2.508-.003-4.649.005-4.757.02"/>
</svg>