<svg xmlns="http://www.w3.org/2000/svg" width="26" height="26" fill="currentColor" class="sym sym-tag-solid" viewBox="0 0 26 26">
  <path fill-rule="evenodd" d="M6.396 4.007a3.5 3.5 0 0 0-.837.163c-.627.236-1.215.85-1.412 1.473-.143.453-.156.781-.143 3.675.011 2.465.017 2.717.071 2.899.101.344.302.716.528.977.365.424 7.769 7.792 8.067 8.029.537.426.97.632 1.547.733.719.124 1.519-.017 2.115-.374.447-.267.816-.608 2.729-2.523 1.913-1.914 2.254-2.283 2.521-2.73.357-.597.498-1.398.373-2.116-.101-.577-.306-1.01-.732-1.549-.269-.338-7.738-7.84-8.083-8.118a2.6 2.6 0 0 0-.916-.477l-.018-.005C12.01 4.012 11.74 4.006 9.26 4c-1.501-.003-2.79 0-2.863.006zm3.71 4.155c.664.122 1.205.687 1.31 1.368.154.993-.627 1.909-1.627 1.909a1.67 1.67 0 0 1-1.627-1.394l-.001-.01a1.6 1.6 0 0 1 .466-1.415 1.6 1.6 0 0 1 1.479-.458"/>
</svg>