<svg xmlns="http://www.w3.org/2000/svg" width="26" height="26" fill="currentColor" class="sym sym-tag" viewBox="0 0 26 26">
  <path d="M14.723 21.905c-.35 0-.69-.06-1.03-.17-.76-.25-1.32-.81-2.35-1.83l-6.22-6.22c-.32-.32-.5-.5-.66-.77-.12-.19-.23-.44-.29-.7-.07-.3-.07-.56-.07-1v-3.63c0-1.01 0-1.57.27-2.12.25-.48.64-.87 1.11-1.1.53-.27 1.09-.27 2.11-.27h3.62c.44 0 .69 0 .97.06.27.07.52.17.75.32.25.15.43.33.73.63l6.23 6.23c1.03 1.03 1.6 1.59 1.84 2.36.22.67.22 1.38 0 2.05-.25.75-.8 1.31-1.81 2.32l-1.83 1.83c-1.03 1.03-1.6 1.59-2.36 1.84-.34.11-.68.17-1.03.17zm-7.13-16c-.66 0-1.14 0-1.29.08-.14.07-.25.18-.32.32-.08.15-.08.63-.08 1.3v3.63c0 .3 0 .49.02.57.02.06.04.13.08.18.06.1.19.23.39.43l6.22 6.22c.83.83 1.29 1.29 1.64 1.4.31.1.64.1.94 0 .35-.11.81-.57 1.64-1.4l1.79-1.79c.84-.85 1.29-1.3 1.4-1.64.1-.31.1-.63 0-.94-.11-.35-.57-.81-1.4-1.64l-6.21-6.21c-.22-.21-.35-.35-.42-.39a.6.6 0 0 0-.21-.09c-.07-.01-.26-.01-.57-.01h-3.62zm2.27 5.26c-.72 0-1.3-.58-1.3-1.3s.59-1.31 1.3-1.31 1.3.59 1.3 1.31-.59 1.3-1.3 1.3"/>
</svg>