<svg xmlns="http://www.w3.org/2000/svg" width="26" height="26" fill="currentColor" class="sym sym-telescope-solid" viewBox="0 0 26 26">
  <path fill-rule="evenodd" d="M19.603 4.045c-.525.113-1.452.401-1.747.543-.25.12-.378.211-.597.42a2.8 2.8 0 0 0-.397.464l-.117.2-5.056 1.34C8.57 7.84 6.552 8.39 6.424 8.45c-.334.155-.572.455-.673.847l-.046.175-.727.197c-.407.109-.791.233-.875.283a1.33 1.33 0 0 0-.506.54l-.003.007c-.084.17-.095.226-.094.528 0 .311.02.403.234 1.18.129.464.271.923.317 1.021.159.34.521.607.925.682.235.044.426.013 1.213-.197l.613-.164.194.181c.293.275.446.332.88.328.336-.003.415-.02 1.344-.272l.988-.269.02.324c.025.48.174.92.415 1.297l-.006-.011.074.12-1.9 2.76c-1.046 1.518-1.921 2.815-1.945 2.882A.846.846 0 0 0 7.672 22a.84.84 0 0 0 .557-.207c.066-.06.964-1.337 1.998-2.839l1.878-2.732.175.016c.27.025.804.02.993-.01l.17-.025 1.906 2.77c1.056 1.535 1.952 2.806 2.011 2.85.665.503 1.604-.152 1.328-.927-.028-.076-.903-1.38-1.946-2.895l-1.896-2.756.074-.118c.248-.395.371-.782.401-1.25.031-.493-.109-1.066-.347-1.423a.6.6 0 0 1-.083-.149l-.001-.004c0-.014.765-.23 1.698-.476l1.699-.45.153.088c.22.129.605.253.91.296.217.03.338.027.654-.017.473-.068 1.604-.363 1.838-.48.23-.116.457-.349.567-.581.078-.167.091-.236.091-.513 0-.31-.02-.397-.675-2.8-.371-1.363-.704-2.545-.74-2.624a1.28 1.28 0 0 0-.83-.696l-.009-.002c-.232-.06-.368-.06-.643 0m.568 3.746c.295 1.094.538 2.006.538 2.027.001.042-.398.157-.824.236-.225.042-.3.043-.424.01a.83.83 0 0 1-.488-.371c-.086-.167-.307-.92-.583-1.989-.164-.634-.202-.83-.191-.984a.75.75 0 0 1 .365-.598l.003-.002c.15-.083.973-.342 1.034-.326.018.005.274.904.57 1.997"/>
</svg>