<svg xmlns="http://www.w3.org/2000/svg" width="26" height="26" fill="currentColor" class="sym sym-telescope" viewBox="0 0 26 26">
  <path d="M7.826 21.897c-.17 0-.35-.05-.51-.16a.9.9 0 0 1-.24-1.25l3.61-5.3c-.29-.42-.46-.92-.46-1.47v-.13l-1.63.44c-.29.08-.54.15-.85.08-.28-.06-.52-.2-.71-.4-.03-.03-.05-.06-.08-.1l-.98.26c-.29.08-.55.15-.85.08-.27-.06-.52-.2-.7-.41-.21-.23-.28-.48-.35-.78l-.3-1.12c-.08-.29-.15-.54-.08-.85.06-.27.19-.51.4-.69.25-.22.5-.29.79-.36l.98-.26s0-.07.02-.11c.06-.29.21-.53.41-.71.22-.21.47-.27.76-.35l9.53-2.55c.14-.27.33-.51.56-.72.46-.41 1.01-.56 2.01-.83.29-.08.54-.15.85-.08.28.06.52.2.7.4.21.24.28.49.36.78l1.16 4.32c.07.28.15.54.08.85-.06.28-.2.53-.41.71-.23.21-.48.27-.77.35l-.23-.87.22.87c-.99.26-1.54.41-2.13.28-.3-.06-.59-.18-.84-.34l-3.2.86a2.56 2.56 0 0 1-.05 2.86l3.62 5.3a.9.9 0 0 1-1.49 1.01l-3.62-5.3a2.7 2.7 0 0 1-1.2 0l-3.61 5.3c-.17.26-.46.39-.74.39zm4.6-7.51c.21.12.5.12.72 0 .02-.02.04-.03.06-.05.02-.01.04-.03.07-.04.16-.14.27-.34.27-.58a.749.749 0 1 0-1.5 0c0 .23.1.44.27.58.02.01.04.03.06.04s.04.03.06.05zm-4.19-2.66.13.5 8.64-2.32-.17-.64c-.02-.06-.03-.13-.05-.2l-.14-.53c-.03-.11-.06-.21-.08-.3l-.16-.59-8.64 2.32.13.48s.02.06.02.08l.3 1.12s.01.05.02.07zm-2.65-.31.18.66.66-.18-.18-.66zm15.07-1.55.23.79-.22-.8zm-2.08-1.07c.14.53.25.91.36 1.02.11.12.25.2.4.23.16.03.54-.06 1.08-.2l-1.03-3.85c-.54.14-.92.26-1.04.36-.12.11-.2.25-.23.41-.03.15.05.5.19 1l.21.78s0 .03.01.04l.06.21z"/>
</svg>