<svg xmlns="http://www.w3.org/2000/svg" width="26" height="26" fill="currentColor" class="sym sym-terminal-square-solid" viewBox="0 0 26 26">
  <path fill-rule="evenodd" d="M6.611 4.01c-.805.067-1.335.293-1.813.772-.442.442-.683.958-.758 1.628-.053.483-.053 12.681 0 13.165.052.47.178.847.388 1.167.475.723 1.127 1.12 1.996 1.217.483.055 12.67.055 13.152 0 .869-.097 1.521-.494 1.996-1.217.21-.32.335-.697.387-1.167.055-.484.055-12.682 0-13.165-.051-.47-.177-.848-.387-1.167a2.65 2.65 0 0 0-1.68-1.177c-.224-.051-.936-.059-6.694-.063a913 913 0 0 0-6.808.008h.222zM8.81 9.447c.159.053.332.213 1.645 1.522 1.03 1.028 1.491 1.51 1.545 1.622a.92.92 0 0 1 .047.694c-.059.179-.163.294-1.525 1.661-1.025 1.032-1.509 1.493-1.62 1.547a.89.89 0 0 1-1.03-.168.89.89 0 0 1-.21-.941c.05-.157.188-.308 1.158-1.285l1.1-1.108-1.1-1.107c-.97-.978-1.107-1.129-1.159-1.285a.89.89 0 0 1 .21-.942.89.89 0 0 1 .94-.21m8.995 5.405c.332.113.594.484.594.841a.95.95 0 0 1-.27.632c-.271.272-.246.27-2.43.27s-2.158.002-2.43-.27a.885.885 0 0 1 0-1.264c.267-.267.225-.262 2.415-.265 1.721-.003 1.966.005 2.12.056z"/>
</svg>