<svg xmlns="http://www.w3.org/2000/svg" width="26" height="26" fill="currentColor" class="sym sym-terminal-square" viewBox="0 0 26 26">
  <path d="M16.73 21.9H9.27c-1.63 0-2.46 0-3.22-.39a3.5 3.5 0 0 1-1.56-1.55c-.39-.77-.39-1.64-.39-3.22V9.27c0-1.58 0-2.46.39-3.22.36-.69.9-1.23 1.57-1.56.76-.39 1.58-.39 3.21-.39h7.46c1.63 0 2.46 0 3.22.39.67.33 1.21.87 1.56 1.55.39.77.39 1.64.39 3.22v7.47c0 1.58 0 2.46-.39 3.22-.36.69-.9 1.23-1.57 1.56-.76.39-1.58.39-3.21.39m-7.46-16c-1.3 0-2.02 0-2.4.19-.34.17-.6.44-.78.78-.19.37-.19 1.09-.19 2.4v7.47c0 1.31 0 2.02.19 2.4.17.34.44.6.77.77.38.2 1.1.2 2.41.2h7.46c1.3 0 2.02 0 2.4-.19.34-.17.6-.44.78-.78.19-.37.19-1.09.19-2.4V9.27c0-1.31 0-2.02-.19-2.4-.17-.34-.44-.6-.77-.77-.38-.2-1.1-.2-2.41-.2zm-.71 10.67c-.23 0-.46-.09-.64-.26a.9.9 0 0 1 0-1.27l2.03-2.03-2.03-2.03a.9.9 0 0 1 1.27-1.27l2.66 2.67a.9.9 0 0 1 0 1.27l-2.66 2.67c-.18.18-.41.26-.64.26zm8.88 0h-3.55c-.5 0-.9-.4-.9-.9s.4-.9.9-.9h3.55c.5 0 .9.4.9.9s-.4.9-.9.9"/>
</svg>