<svg xmlns="http://www.w3.org/2000/svg" width="26" height="26" fill="currentColor" class="sym sym-terminal-solid" viewBox="0 0 26 26">
  <path d="M4.644 5.063C4.29 5.187 4 5.61 4 5.996c0 .08.03.234.065.343.06.18.313.446 2.793 2.932l2.729 2.734-2.729 2.735c-2.48 2.486-2.734 2.752-2.793 2.931-.129.39-.044.768.235 1.047a.98.98 0 0 0 1.152.183l-.006.002c.127-.06 1.05-.96 3.306-3.221 2.97-2.975 3.134-3.147 3.2-3.35a1 1 0 0 0-.056-.777l.002.005c-.06-.127-.96-1.049-3.22-3.306-2.86-2.855-3.153-3.136-3.333-3.195a1.04 1.04 0 0 0-.708.007zm8.149 13.991c-.751.186-1.018 1.117-.476 1.66.063.063.187.153.274.2l.162.086h8.532l.162-.086c.366-.196.553-.5.553-.896s-.187-.699-.553-.895l-.162-.086-4.186-.006c-2.302-.004-4.24.007-4.305.023z"/>
</svg>