<svg xmlns="http://www.w3.org/2000/svg" width="26" height="26" fill="currentColor" class="sym sym-text-input-solid" viewBox="0 0 26 26">
  <path d="M15.028 4.022a.96.96 0 0 0-.444.283c-.405.444-.248 1.14.316 1.4.173.079.222.083.955.084h.774v14.406l-.81.011c-.75.011-.82.017-.958.09a.9.9 0 0 0-.5.801c0 .364.218.677.534.817l.005.002.182.084h4.914l.183-.084a.9.9 0 0 0 .54-.819.9.9 0 0 0-.496-.799l-.006-.002c-.137-.073-.208-.079-.958-.09l-.81-.01v-1.797h.876c1.393 0 1.882-.087 2.405-.427.73-.475 1.132-1.128 1.23-1.997.053-.47.053-5.491 0-5.96a4 4 0 0 0-.134-.655l.008.03c-.21-.657-.846-1.324-1.512-1.585-.385-.15-.658-.182-1.788-.203L18.45 7.58V5.79h.773c.734 0 .783-.006.956-.085a.9.9 0 0 0 .54-.819.9.9 0 0 0-.496-.799l-.005-.002c-.148-.078-.157-.078-2.624-.084-1.361-.004-2.516.006-2.566.021"/>
  <path d="M5.637 7.629c-.641.042-.977.138-1.389.399-.456.288-.875.786-1.052 1.25C3.003 9.782 3 9.83 3 12.994c0 3.162.003 3.213.194 3.716.235.615.868 1.242 1.485 1.472.53.198.434.194 5.125.196l4.332.002.147-.077a1.03 1.03 0 0 0 .43-.426l.079-.146V8.258l-.079-.146a1.04 1.04 0 0 0-.425-.423l-.005-.003-.147-.077-4.04-.004c-2.223-.003-4.229.008-4.46.024"/>
</svg>