<svg xmlns="http://www.w3.org/2000/svg" width="26" height="26" fill="currentColor" class="sym sym-text-input" viewBox="0 0 26 26">
  <path d="M19.665 21.9h-4.45c-.5 0-.9-.4-.9-.9s.4-.9.9-.9h1.32V5.9h-1.32c-.5 0-.9-.4-.9-.9s.4-.9.9-.9h4.45c.5 0 .9.4.9.9s-.4.9-.9.9h-1.32v1.75h.7c1.1 0 1.71 0 2.28.29.51.26.91.66 1.17 1.17.29.57.29 1.18.29 2.28v3.2c0 1.1 0 1.71-.29 2.28-.26.51-.66.91-1.17 1.17-.57.29-1.18.29-2.28.29h-.7v1.75h1.32c.5 0 .9.4.9.9s-.4.9-.9.9zm-1.32-5.36h.7c.77 0 1.28 0 1.46-.09.16-.08.3-.22.38-.38.09-.19.09-.7.09-1.47v-3.2c0-.77 0-1.28-.1-1.47a.87.87 0 0 0-.38-.38c-.19-.09-.69-.09-1.46-.09h-.7v7.09zm-4.46 1.8h-6.93c-1.1 0-1.71 0-2.28-.29-.51-.26-.91-.66-1.17-1.17-.29-.58-.29-1.18-.29-2.28v-3.2c0-1.1 0-1.71.29-2.28.26-.51.66-.91 1.17-1.17.57-.29 1.18-.29 2.28-.29h6.93c.5 0 .9.4.9.9s-.4.9-.9.9h-6.93c-.77 0-1.28 0-1.47.09-.16.08-.3.22-.38.39-.09.19-.09.69-.09 1.46v3.2c0 .77 0 1.28.1 1.47.08.16.22.3.38.38.19.09.69.09 1.46.09h6.93c.5 0 .9.4.9.9s-.4.9-.9.9"/>
</svg>