<svg xmlns="http://www.w3.org/2000/svg" width="26" height="26" fill="currentColor" class="sym sym-text-color-solid" viewBox="0 0 26 26">
  <path fill-rule="evenodd" d="M13.687 4.161c.377.187.578.515.68.697.11.193.222.443.337.698l.016.034 4.746 10.512a1.01 1.01 0 0 1-.497 1.333.997.997 0 0 1-1.324-.5l-1.754-3.884H10.11l-1.754 3.885a.997.997 0 0 1-1.324.5 1.01 1.01 0 0 1-.497-1.334L11.28 5.59l.016-.034c.115-.255.228-.505.337-.698.102-.182.304-.51.68-.697a1.55 1.55 0 0 1 1.374 0m-2.67 6.877h3.965L13 6.648zM2 20.993c0-.556.448-1.006 1-1.006h20c.552 0 1 .45 1 1.006S23.552 22 23 22H3c-.552 0-1-.45-1-1.007"/>
</svg>