<svg xmlns="http://www.w3.org/2000/svg" width="26" height="26" fill="currentColor" class="sym sym-thumbs-down-solid" viewBox="0 0 26 26">
  <path d="M7.138 2.037c-1.018.086-1.823.455-2.485 1.14-.608.626-.886 1.208-1.098 2.297-.089.459-.806 5.159-.944 6.183-.102.762-.135 1.425-.094 1.869.086.845.44 1.592.973 2.164l-.002-.001c.668.728 1.264 1.05 2.26 1.217.302.05.783.069 2.215.084l1.827.018.015 2.067c.014 2 .017 2.076.1 2.36.443 1.492 1.62 2.467 3.082 2.556.308.019.44.01.624-.045.474-.14.846-.409 1.069-.771.065-.105.898-1.988 1.85-4.184L18.266 15h1.11c1.681 0 2.18-.086 2.758-.474.786-.527 1.218-1.253 1.323-2.219.059-.525.059-7.096 0-7.622-.056-.522-.192-.941-.421-1.296-.448-.696-1.08-1.146-1.827-1.3-.38-.078-1.789-.12-2.007-.059a.9.9 0 0 0-.52.458l-.003.005c-.067.15-.07.385-.072 4.406 0 4.774.017 4.483-.294 4.8a.95.95 0 0 1-1.372 0c-.31-.317-.293-.04-.293-4.683 0-4.528.008-4.37-.234-4.668a1.1 1.1 0 0 0-.299-.238l-.006-.003-.186-.093-4.189-.006c-2.304-.003-4.372.01-4.595.03"/>
</svg>