<svg xmlns="http://www.w3.org/2000/svg" width="26" height="26" fill="currentColor" class="sym sym-thumbs-down" viewBox="0 0 26 26">
  <path d="M13.212 23.89c-1.86 0-3.37-1.51-3.37-3.37v-2.93c0-.29 0-.59-.02-.67-.09-.03-.39-.03-.68-.03h-.81c-2.08 0-3.13 0-4.03-.51a3.96 3.96 0 0 1-1.72-2c-.37-.96-.21-2 .11-4.06l.52-3.4c.23-1.52.36-2.36.82-3.06.41-.62.98-1.12 1.66-1.42.77-.35 1.62-.35 3.15-.35h10.68c1.22 0 1.9 0 2.52.32.55.28.99.72 1.27 1.27.32.62.32 1.3.32 2.52v4.6c0 1.22 0 1.9-.32 2.52-.28.55-.72.99-1.27 1.27-.62.32-1.3.32-2.52.32h-.76c-.21 0-.34 0-.44.01-.06.08-.1.2-.18.38l-3.37 7.59c-.28.62-.89 1.02-1.57 1.02zm-4.35-20c-1.29 0-2 0-2.41.19-.37.17-.67.43-.89.77-.25.38-.36 1.08-.55 2.35l-.52 3.4c-.26 1.69-.4 2.62-.21 3.14.17.45.5.84.92 1.08.48.27 1.42.27 3.13.27h.81c.66 0 1.06 0 1.46.21.35.18.65.48.83.83.21.41.21.8.21 1.46v2.93c0 .86.7 1.57 1.57 1.57l3.29-7.51c.13-.29.22-.5.34-.68v-10h-7.98zm9.78 0v9.2h.9c.91 0 1.46 0 1.7-.12q.315-.165.48-.48c.12-.23.12-.79.12-1.7v-4.6c0-.91 0-1.46-.12-1.7q-.165-.315-.48-.48c-.23-.12-.79-.12-1.7-.12z"/>
</svg>