<svg xmlns="http://www.w3.org/2000/svg" width="26" height="26" fill="currentColor" class="sym sym-thumbs-up" viewBox="0 0 26 26">
  <path d="M18.68 23.9H5.25c-1.6 0-2.9-1.3-2.9-2.9v-7c0-1.6 1.3-2.9 2.9-2.9H7.6s.08-.02.09-.06l3.52-7.92c.28-.62.89-1.02 1.57-1.02 1.86 0 3.37 1.51 3.37 3.37V9c0 .05.04.1.1.1h3.5c1.14 0 2.22.5 2.96 1.36.74.87 1.07 2.01.89 3.13l-1.08 7a3.876 3.876 0 0 1-3.85 3.31zm-9.53-1.8h9.53c1.04 0 1.92-.75 2.08-1.78l1.08-7c.09-.61-.08-1.22-.48-1.69s-.98-.73-1.59-.73h-3.5a1.9 1.9 0 0 1-1.9-1.9V5.47c0-.86-.7-1.57-1.57-1.57l-3.45 7.87c-.05.12-.11.23-.19.33v10zm-3.9-9.2c-.61 0-1.1.49-1.1 1.1v7c0 .61.49 1.1 1.1 1.1h2.1v-9.2z"/>
</svg>