<svg xmlns="http://www.w3.org/2000/svg" width="26" height="26" fill="currentColor" class="sym sym-thumbs-up-solid" viewBox="0 0 26 26">
  <path d="M12.377 2.059c-.44.12-.838.409-1.059.767-.064.105-.897 1.984-1.849 4.177l-1.73 3.985-1.337.022c-1.401.023-1.663.05-2.095.225-.716.29-1.4 1.03-1.626 1.76a4.4 4.4 0 0 0-.135.672l-.003.022c-.057.525-.057 7.094 0 7.62.106.964.538 1.69 1.324 2.217.524.352 1.11.475 2.264.473.683 0 .83-.038 1.038-.264.238-.26.226-.012.226-4.647 0-4.764-.017-4.473.293-4.79a.95.95 0 0 1 1.373 0c.31.317.292.04.292 4.68 0 4.66-.015 4.408.293 4.723s.052.299 4.696.299c4.244 0 4.734-.015 5.302-.163a3.8 3.8 0 0 0 1.647-.965c.69-.698.967-1.294 1.196-2.587.101-.564.843-5.483.919-6.087.149-1.19.124-1.886-.091-2.53-.387-1.156-1.408-2.16-2.492-2.452-.578-.155-.925-.18-2.785-.205l-1.828-.023-.014-2.066c-.014-1.998-.017-2.074-.1-2.358-.261-.878-.772-1.58-1.474-2.027-.7-.447-1.635-.645-2.242-.478z"/>
</svg>