<svg xmlns="http://www.w3.org/2000/svg" width="26" height="26" fill="currentColor" class="sym sym-ticket" viewBox="0 0 26 26">
  <path d="M19.8 21.91H6.2c-1.22 0-1.9 0-2.52-.32-.55-.28-.99-.72-1.27-1.27-.32-.62-.32-1.3-.32-2.52v-1.3c0-.5.4-.9.9-.9 1.43 0 2.6-1.17 2.6-2.6s-1.17-2.6-2.6-2.6c-.5 0-.9-.4-.9-.9V8.2c0-1.22 0-1.9.32-2.52.28-.55.72-.99 1.27-1.27.62-.32 1.3-.32 2.52-.32h13.6c1.22 0 1.9 0 2.52.32.55.28.99.72 1.27 1.27.32.62.32 1.3.32 2.52v1.3c0 .5-.4.9-.9.9-1.43 0-2.6 1.17-2.6 2.6s1.17 2.6 2.6 2.6c.5 0 .9.4.9.9v1.3c0 1.22 0 1.9-.32 2.52-.28.55-.72.99-1.27 1.27-.62.32-1.3.32-2.52.32M3.9 17.32v.49c0 .91 0 1.46.12 1.7q.165.315.48.48c.23.12.79.12 1.7.12h13.6c.91 0 1.46 0 1.7-.12q.315-.165.48-.48c.12-.23.12-.79.12-1.7v-.49c-2-.42-3.5-2.19-3.5-4.31s1.5-3.89 3.5-4.31v-.49c0-.91 0-1.46-.12-1.7q-.165-.315-.48-.48c-.23-.12-.79-.12-1.7-.12H6.2c-.91 0-1.46 0-1.7.12q-.315.165-.48.48c-.12.23-.12.79-.12 1.7v.49c2 .42 3.5 2.19 3.5 4.31s-1.5 3.89-3.5 4.31m7.1 1.59c-.5 0-.9-.4-.9-.9v-1c0-.5.4-.9.9-.9s.9.4.9.9v1c0 .5-.4.9-.9.9m0-4.5c-.5 0-.9-.4-.9-.9v-1c0-.5.4-.9.9-.9s.9.4.9.9v1c0 .5-.4.9-.9.9m0-4.5c-.5 0-.9-.4-.9-.9v-1c0-.5.4-.9.9-.9s.9.4.9.9v1c0 .5-.4.9-.9.9"/>
</svg>