<svg xmlns="http://www.w3.org/2000/svg" width="26" height="26" fill="currentColor" class="sym sym-ticket-solid" viewBox="0 0 26 26">
  <path fill-rule="evenodd" d="M4.9 4.009c-.379.032-.779.108-1.011.197-.756.284-1.47 1.026-1.706 1.776-.146.463-.183.95-.183 2.393 0 1.298.002 1.315.095 1.513.112.236.306.431.516.519.083.035.326.08.54.101.438.042.648.097.974.259.483.237.86.619 1.112 1.13.325.656.326 1.528.002 2.182-.233.47-.48.746-.93 1.037-.317.205-.65.31-1.2.373-.607.07-.839.21-1.026.624-.076.169-.08.259-.082 1.493 0 1.442.036 1.93.183 2.393.249.789 1.026 1.567 1.814 1.816.168.053.482.116.693.14.538.06 16.08.06 16.618 0a4.5 4.5 0 0 0 .693-.14c.789-.25 1.565-1.027 1.814-1.816.146-.463.183-.95.183-2.393-.001-1.234-.006-1.324-.082-1.493-.187-.412-.418-.553-1.025-.624-.708-.083-1.131-.257-1.582-.654-.318-.279-.624-.806-.73-1.252-.265-1.129.28-2.318 1.295-2.816.326-.162.536-.217.974-.259a2.6 2.6 0 0 0 .54-.101c.21-.088.404-.283.516-.52.093-.197.093-.215.095-1.512 0-1.443-.037-1.93-.183-2.393-.23-.73-.93-1.471-1.662-1.761-.569-.225-.068-.213-8.935-.22-4.488-.003-8.232 0-8.32.008m6.474 2.551c.188.078.416.291.518.481.082.153.088.219.088.945s-.006.793-.087.944a.999.999 0 0 1-1.783.005l-.003-.006c-.081-.15-.087-.218-.087-.944s.006-.791.087-.945c.1-.186.327-.4.51-.48.16-.07.59-.071.757-.001zm0 5.004c.188.078.416.291.518.481.082.153.088.219.088.945s-.006.793-.087.944a1 1 0 0 1-1.783.005l-.003-.006c-.081-.15-.087-.218-.087-.944s.006-.791.087-.945c.1-.186.327-.4.51-.479.16-.071.59-.072.757-.002zm0 5.004c.188.078.416.291.518.481.082.153.088.219.088.945s-.006.793-.087.944a1.002 1.002 0 0 1-1.783.005l-.003-.006c-.081-.15-.087-.218-.087-.944s.006-.791.087-.944c.1-.187.327-.4.51-.48.16-.071.59-.072.757-.002z"/>
</svg>