<svg xmlns="http://www.w3.org/2000/svg" width="26" height="26" fill="currentColor" class="sym sym-transform" viewBox="0 0 26 26">
  <path d="M18.865 21.9c-.58 0-.97 0-1.35-.19a1.9 1.9 0 0 1-.78-.76c-.14-.26-.18-.51-.2-.82h-7.1c-.02.31-.06.56-.19.81-.19.34-.46.61-.78.77-.38.19-.76.19-1.34.19h-.71c-.6 0-.96 0-1.34-.2-.34-.17-.63-.46-.79-.8-.19-.36-.19-.74-.19-1.33v-.71c0-.58 0-.97.2-1.35.15-.31.43-.6.78-.77.25-.13.49-.17.8-.19v-7.1c-.31-.02-.55-.06-.8-.19-.35-.18-.63-.46-.79-.8-.19-.36-.19-.74-.19-1.33v-.71c0-.58 0-.97.2-1.36.15-.31.43-.6.79-.77.38-.19.74-.19 1.33-.19h.71c.58 0 .97 0 1.35.19.32.16.59.43.78.76.13.26.18.51.2.82h7.1c.02-.31.06-.56.2-.81.18-.34.45-.61.78-.77.38-.19.76-.19 1.34-.19h.71c.6 0 .96 0 1.34.2.34.17.63.46.79.8.19.36.19.74.19 1.33v.71c0 .58 0 .97-.2 1.35-.15.31-.43.6-.78.77-.25.13-.49.17-.8.19v7.1c.31.02.55.06.8.19.35.18.63.46.79.8.19.36.19.74.19 1.33v.71c0 .58 0 .97-.2 1.36-.15.31-.43.6-.79.77-.38.19-.74.19-1.33.19zm-12.45-3.56c-.24 0-.5 0-.57.02.05 0 .05.26.05.51v.71c0 .24 0 .5.02.57 0-.05.26-.05.5-.05h.71c.25 0 .5 0 .58-.02-.05 0-.05-.26-.05-.5v-.71c0-.24 0-.5-.02-.57 0 .05-.26.05-.51.05h-.71zm11.92.88v.36c0 .24 0 .49.02.57 0-.04.27-.04.51-.04h.71c.24 0 .5 0 .57-.02-.05 0-.05-.26-.05-.51v-.71c0-.24 0-.5-.02-.57 0 .05-.26.05-.5.05h-.71c-.25 0-.5 0-.58.02.05.01.05.26.05.51v.35zm-8.89-.9h7.1c.02-.31.06-.56.2-.81.18-.34.45-.61.78-.77.25-.13.49-.17.8-.19V9.44c-.3-.02-.55-.06-.8-.19-.33-.17-.59-.43-.78-.76-.14-.26-.18-.51-.2-.82h-7.1c-.02.31-.06.56-.19.81-.19.34-.45.61-.78.77-.25.13-.49.17-.8.19v7.11c.3.02.55.06.8.19.33.17.59.43.78.76.13.26.18.51.2.82zM6.415 5.9c-.24 0-.5 0-.57.02.05 0 .05.26.05.51v.71c0 .24 0 .5.02.57 0-.05.26-.05.5-.05h.71c.25 0 .5 0 .58-.02-.05 0-.05-.26-.05-.51v-.71c0-.24 0-.5-.02-.57 0 .05-.26.05-.51.05zm11.92 1.23c0 .24 0 .5.02.57 0-.04.27-.04.51-.04h.71c.24 0 .5 0 .57-.02-.05 0-.05-.26-.05-.51v-.71c0-.24 0-.5-.02-.57 0 .05-.26.05-.5.05h-.71c-.25 0-.5 0-.58.02.05.01.05.26.05.5z"/>
</svg>