<svg xmlns="http://www.w3.org/2000/svg" width="26" height="26" fill="currentColor" class="sym sym-translate" viewBox="0 0 26 26">
  <path d="M22.998 22.904a.89.89 0 0 1-.81-.51l-1.67-3.49h-6.04l-1.67 3.49a.89.89 0 0 1-1.2.42.89.89 0 0 1-.42-1.2l1.9-3.98s.01-.02.02-.03l2.86-5.97c.29-.61.48-1.01.93-1.22.39-.19.83-.19 1.22 0 .44.21.63.61.92 1.22l2.86 5.97s.01.02.02.03l1.9 3.98a.9.9 0 0 1-.81 1.29zm-7.66-5.8h4.32l-2.16-4.51zm-12.34 2.8c-.33 0-.65-.18-.81-.5a.907.907 0 0 1 .41-1.21c2.07-1.03 3.86-2.43 5.31-4.18-1.22-1.09-2.2-2.39-2.74-3.67a.9.9 0 1 1 1.66-.7c.42.98 1.2 2.03 2.17 2.92 1.13-1.7 1.94-3.6 2.41-5.67h-8.41c-.5 0-.9-.4-.9-.9s.4-.9.9-.9h5.1v-1.1c0-.5.4-.9.9-.9s.9.4.9.9v1.1h5.1c.5 0 .9.4.9.9s-.4.9-.9.9h-1.75c-.51 2.47-1.46 4.74-2.82 6.77.32.2.63.37.94.51.45.2.66.74.45 1.19-.2.45-.74.66-1.19.45-.43-.19-.86-.43-1.29-.71a18.05 18.05 0 0 1-5.94 4.69c-.13.06-.27.09-.4.09z"/>
</svg>