<svg xmlns="http://www.w3.org/2000/svg" width="26" height="26" fill="currentColor" class="sym sym-transform-solid" viewBox="0 0 26 26">
  <path fill-rule="evenodd" d="M5.52 4.023A1.755 1.755 0 0 0 4.06 5.4l-.003.012c-.076.357-.076 2.198 0 2.556.078.367.213.617.483.886.284.284.537.415.954.494l.308.06v7.185l-.135.021c-.548.083-.804.203-1.127.522-.47.467-.537.735-.537 2.163 0 1.426.067 1.693.537 2.164.47.47.736.537 2.162.537s1.692-.067 2.162-.537c.284-.284.415-.537.494-.956l.059-.307h7.166l.06.308c.078.418.209.67.493.955.47.47.737.537 2.162.537 1.426 0 1.692-.067 2.162-.537s.537-.737.537-2.164-.067-1.696-.537-2.163c-.323-.32-.58-.44-1.127-.522l-.135-.02V9.406l.308-.059c.417-.079.67-.21.954-.494.27-.27.405-.519.483-.886.076-.357.076-2.198 0-2.556-.133-.63-.546-1.096-1.173-1.323-.224-.08-.265-.083-1.471-.083s-1.248.003-1.47.083a1.86 1.86 0 0 0-.767.506l-.002.002c-.224.248-.346.508-.417.884l-.059.308H9.417l-.058-.308c-.071-.375-.194-.636-.418-.884a1.8 1.8 0 0 0-.755-.503l-.013-.004c-.216-.076-.29-.08-1.345-.089-.614-.005-1.203.006-1.309.022m11.12 3.875c.08.419.21.672.495.956.284.284.537.415.954.494l.308.06v7.185l-.135.021c-.548.083-.804.203-1.127.522-.284.283-.415.535-.494.954l-.059.308H9.415l-.058-.308c-.08-.42-.21-.671-.494-.954-.323-.32-.58-.44-1.128-.522l-.135-.02V9.406l.308-.059c.418-.079.67-.21.955-.494s.415-.537.494-.956l.058-.307h7.167z"/>
</svg>