<svg xmlns="http://www.w3.org/2000/svg" width="26" height="26" fill="currentColor" class="sym sym-translate-solid" viewBox="0 0 26 26">
  <path d="M8.668 3.051a1.03 1.03 0 0 0-.53.447l-.004.004c-.107.183-.111.213-.124.84l-.014.652H5.421c-2.202 0-2.6.009-2.747.06a.993.993 0 0 0-.381 1.643c.318.318.03.3 4.779.3 4.001 0 4.22.004 4.2.07.09-.407.04-.229-.008-.051l-.137.582c-.417 1.556-1.146 3.235-1.966 4.525l-.189.297-.328-.337A8.8 8.8 0 0 1 7.057 9.89l-.024-.05c-.261-.522-.398-.673-.708-.778a1.008 1.008 0 0 0-1.327.946c0 .433.64 1.597 1.412 2.572.178.225.559.647.844.939l.519.529-.241.272c-.132.15-.517.542-.856.873a15.8 15.8 0 0 1-3.621 2.668l-.085.04c-.594.311-.708.395-.838.617a1.008 1.008 0 0 0 .535 1.441l.007.003c.346.114.56.07 1.143-.239 1.973-1.044 3.765-2.442 5.175-4.036l.378-.428.288.175c.456.277 1.05.549 1.248.57.705.08 1.272-.622 1.047-1.298-.104-.313-.256-.461-.715-.694a11 11 0 0 1-.599-.319l.06.032-.129-.079.216-.333c1.033-1.601 1.893-3.63 2.392-5.636L13.346 7h.906c1.052 0 1.192-.03 1.463-.3a.992.992 0 0 0-.373-1.64l-.007-.003c-.147-.052-.546-.06-2.75-.06h-2.579v-.571c0-.65-.03-.802-.212-1.04-.247-.322-.757-.473-1.126-.332z"/>
  <path fill-rule="evenodd" d="M17.227 10.203c-.52.11-.811.375-1.16 1.062a760 760 0 0 0-2.639 5.49l-2.395 5.009v.26c0 .57.408.978.976.975l.036.001a.9.9 0 0 0 .671-.293c.08-.082.427-.76.976-1.908l.853-1.78h5.944l.852 1.78c.55 1.15.897 1.826.976 1.907.168.18.407.293.671.293h.038-.001c.567.003.975-.405.975-.976v-.26l-2.395-5.009c-2.908-6.08-2.822-5.912-3.093-6.177a1.48 1.48 0 0 0-1.293-.373zm1.312 4.74.983 2.051-.99.012c-.544.006-1.448.006-2.006 0l-1.017-.012 1.637-3.422c.193-.405.364-.724.38-.709s.473.951 1.013 2.08"/>
</svg>