<svg xmlns="http://www.w3.org/2000/svg" width="26" height="26" fill="currentColor" class="sym sym-trash-solid" viewBox="0 0 26 26">
  <path fill-rule="evenodd" d="M10.89 2.011c-.913.084-1.486.327-2.019.86-.645.645-.885 1.366-.885 2.656v.463H5.91c-2.252 0-2.266 0-2.555.222a1.2 1.2 0 0 0-.24.284l-.003.005c-.095.161-.111.233-.111.49 0 .255.016.327.111.489.24.409.5.51 1.296.51h.576v5.896c0 3.792.015 6.059.042 6.355.079.86.24 1.366.62 1.951.409.624 1.11 1.219 1.744 1.476.796.324 1.198.346 5.985.328 4.358-.018 4.321-.015 5.057-.268.984-.339 1.957-1.312 2.296-2.296.264-.767.253-.45.267-7.266l.013-6.175h.571c.686 0 .881-.052 1.128-.3a.983.983 0 0 0 0-1.403c-.3-.301-.282-.3-2.631-.3H18v-.462c0-.618-.065-1.168-.183-1.542-.232-.73-.931-1.471-1.664-1.761-.498-.197-.636-.207-2.939-.218a91 91 0 0 0-2.396.006l.073-.001zm.475 9.559c.188.078.416.291.518.481l.088.164v2.783c0 2.78 0 2.782-.087 2.945a1.004 1.004 0 0 1-1.785.005l-.003-.006c-.087-.162-.087-.164-.087-2.945v-2.782l.088-.165c.099-.186.327-.4.51-.48.16-.07.591-.071.758-.002zm4.005 0c.188.078.416.291.518.481l.088.164v2.783c0 2.78 0 2.782-.087 2.945a1.003 1.003 0 0 1-1.785.005l-.003-.006c-.087-.162-.087-.164-.087-2.945v-2.782l.088-.165c.1-.186.328-.4.51-.48.161-.07.592-.071.758-.002z"/>
</svg>