<svg xmlns="http://www.w3.org/2000/svg" width="26" height="26" fill="currentColor" class="sym sym-trash" viewBox="0 0 26 26">
  <path d="M15.19 23.895h-4.4c-1.82 0-2.74 0-3.57-.42a3.88 3.88 0 0 1-1.7-1.7c-.43-.83-.43-1.75-.43-3.57v-10.3h-1.1c-.5 0-.9-.4-.9-.9s.4-.9.9-.9h4.1c0-1.16 0-1.81.32-2.42.28-.55.72-.99 1.27-1.27.62-.32 1.29-.32 2.52-.32h1.6c1.22 0 1.9 0 2.52.32.55.28.99.72 1.27 1.27.31.61.32 1.26.32 2.42h4.1c.5 0 .9.4.9.9s-.4.9-.9.9h-1.1v10.3c0 1.82 0 2.74-.43 3.57a3.88 3.88 0 0 1-1.7 1.7c-.84.43-1.75.43-3.57.43zm-8.3-16v10.3c0 1.49 0 2.3.23 2.75.2.4.52.72.92.92.45.23 1.27.23 2.75.23h4.4c1.49 0 2.3 0 2.75-.23.4-.2.71-.52.92-.92.23-.45.23-1.27.23-2.75v-10.3zm3-1.8h6.2c0-.85 0-1.37-.12-1.6q-.165-.315-.48-.48c-.23-.12-.79-.12-1.7-.12h-1.6c-.91 0-1.46 0-1.7.12q-.315.165-.48.48c-.11.23-.12.74-.12 1.6m5.1 12.3c-.5 0-.9-.4-.9-.9v-5c0-.5.4-.9.9-.9s.9.4.9.9v5c0 .5-.4.9-.9.9m-4 0c-.5 0-.9-.4-.9-.9v-5c0-.5.4-.9.9-.9s.9.4.9.9v5c0 .5-.4.9-.9.9"/>
</svg>