<svg xmlns="http://www.w3.org/2000/svg" width="26" height="26" fill="currentColor" class="sym sym-underline-solid" viewBox="0 0 26 26">
  <path d="M7.456 5.022a.95.95 0 0 0-.597.48l-.003.006c-.076.144-.076.148-.087 3.331-.007 2.007.003 3.385.027 3.722.082 1.147.421 2.16 1.03 3.068 1.04 1.558 2.733 2.607 4.675 2.751l.02.002c.146.012.316.02.488.02 2.95 0 5.418-2.075 6.043-4.853l.008-.041c.15-.674.168-1.214.156-4.668-.01-3.183-.01-3.188-.087-3.331-.174-.328-.443-.495-.796-.495-.352 0-.621.167-.795.495-.077.144-.077.148-.097 3.743-.022 3.93-.01 3.71-.233 4.364a4.56 4.56 0 0 1-2.808 2.79c-1.485.5-3.178.157-4.326-.875-.752-.674-1.204-1.435-1.449-2.434-.053-.218-.062-.64-.08-3.844-.02-3.595-.02-3.6-.097-3.744-.198-.372-.626-.582-.992-.486zM5.573 20.266a.9.9 0 0 0-.472.397l-.002.004c-.085.144-.099.209-.099.438s.014.293.099.437c.054.092.151.21.216.259.276.212-.238.199 7.677.199 8.142 0 7.458.023 7.747-.268a.88.88 0 0 0 0-1.255c-.289-.293.397-.269-7.76-.266-6.213.002-7.287.01-7.406.054z"/>
</svg>