<svg xmlns="http://www.w3.org/2000/svg" width="26" height="26" fill="currentColor" class="sym sym-upload-cloud-solid" viewBox="0 0 26 26">
  <path fill-rule="evenodd" d="M12.273 5.036c-2.257.223-4.296 1.537-5.53 3.56l-.207.336-.416.137c-1.549.508-2.895 1.726-3.572 3.23a7 7 0 0 0-.453 1.415l-.009.047c-.109.56-.115 1.625-.014 2.187a6.13 6.13 0 0 0 1.673 3.262h.001c.719.74 1.46 1.207 2.407 1.518.884.29.43.272 7.087.272h5.949l.378-.084c2.242-.5 3.852-2.147 4.346-4.447.115-.539.116-1.678.002-2.209-.328-1.524-1.134-2.758-2.342-3.591-.377-.26-1.043-.59-1.412-.7-.286-.085-.289-.087-.352-.258-.182-.498-.616-1.278-1.001-1.794a9 9 0 0 0-1.22-1.261 7.2 7.2 0 0 0-5.346-1.618zm1.043 3.791c.163.056.371.255 2.138 2.065 1.391 1.424 1.979 2.05 2.035 2.169.06.121.096.265.096.417a.94.94 0 0 1-.267.661.885.885 0 0 1-.96.22c-.159-.053-.313-.197-1.31-1.213l-1.128-1.153v2.696c0 3.041.009 2.93-.275 3.22a.89.89 0 0 1-1.287 0c-.284-.29-.275-.178-.275-3.22v-2.696l-1.129 1.152c-.996 1.017-1.15 1.161-1.31 1.215a.885.885 0 0 1-.959-.22.96.96 0 0 1-.169-1.084l-.002.005c.056-.118.644-.745 2.036-2.17 1.673-1.713 1.98-2.01 2.121-2.061a.95.95 0 0 1 .645-.003"/>
</svg>