<svg xmlns="http://www.w3.org/2000/svg" width="26" height="26" fill="currentColor" class="sym sym-upload-cloud-02" viewBox="0 0 26 26">
  <path d="M13.01 23a.905.905 0 0 1-.908-.909v-6.895L9.619 17.68a.907.907 0 0 1-1.281-1.283l4.036-4.038c.091-.091.192-.152.293-.202.1-.04.212-.06.323-.07h.04c.111 0 .222.03.323.07.111.04.212.111.293.202l4.037 4.038A.907.907 0 0 1 16.4 17.68l-2.483-2.483v6.895a.905.905 0 0 1-.908.909m8.074-4.3a.913.913 0 0 1-.585-1.615 4.64 4.64 0 0 0 1.685-3.585 4.644 4.644 0 0 0-4.643-4.644 1.55 1.55 0 0 1-1.322-.747 6.68 6.68 0 0 0-5.742-3.292 6.67 6.67 0 0 0-6.66 6.664c0 1.776.686 3.442 1.937 4.704a.907.907 0 0 1-1.282 1.282A8.42 8.42 0 0 1 2 11.481C2 6.806 5.805 3 10.477 3a8.53 8.53 0 0 1 7.226 4.038C21.195 7.12 24 9.986 24 13.5a6.44 6.44 0 0 1-2.351 4.987.9.9 0 0 1-.576.212z"/>
</svg>