<svg xmlns="http://www.w3.org/2000/svg" width="26" height="26" fill="currentColor" class="sym sym-upload-02" viewBox="0 0 26 26">
  <path d="M16.189 23.49c-.202 0-.414-.02-.656-.05-.888-.119-2.17-.883-2.684-1.598-.727-1.003-.727-1.887-.727-3.356v-6.98l-2.483 2.442a.92.92 0 0 1-1.281 0 .883.883 0 0 1 0-1.26l4.037-3.972a.8.8 0 0 1 .272-.18.96.96 0 0 1 .706 0q.152.06.273.18l4.037 3.971a.883.883 0 0 1 0 1.261.92.92 0 0 1-1.282 0l-2.483-2.442v6.98c0 1.39.02 1.807.384 2.323.222.308 1.06.814 1.443.864.666.09.828 0 1.493-.337 3.048-1.57 4.945-4.637 4.945-8.013 0-4.985-4.117-9.036-9.183-9.036s-9.183 4.051-9.183 9.036c0 3.217 1.756 6.215 4.591 7.824a.886.886 0 0 1 .333 1.221.917.917 0 0 1-1.241.328C4.11 20.769 2 17.176 2 13.323 2 7.355 6.935 2.5 13 2.5s11 4.855 11 10.823c0 4.05-2.27 7.724-5.924 9.601-.625.318-1.11.576-1.927.576z"/>
</svg>