<svg xmlns="http://www.w3.org/2000/svg" width="26" height="26" fill="currentColor" class="sym sym-upload-solid" viewBox="0 0 26 26">
  <path d="M12.64 3.062c-.155.054-.545.426-2.812 2.688C7.94 7.634 7.17 8.427 7.11 8.553a.98.98 0 0 0 .185 1.145c.28.279.655.363 1.046.234.177-.059.376-.244 1.929-1.79L12 6.417v4.862c0 3.225.015 4.912.042 5.01.061.22.273.474.49.586a.98.98 0 0 0 1.17-.172c.32-.32.3.047.3-5.421V6.417l1.73 1.725c1.552 1.546 1.751 1.731 1.928 1.79.39.13.767.045 1.046-.235a.98.98 0 0 0 .182-1.15l.002.006c-.06-.126-.83-.92-2.717-2.803-2.39-2.385-2.65-2.632-2.829-2.69a1.04 1.04 0 0 0-.71.005z"/>
  <path d="M3.775 15.036c-.296.08-.536.277-.671.537l-.003.006c-.081.151-.087.226-.1 1.23-.014 1.26.044 2.597.136 3.074.188.983.79 1.863 1.674 2.445.665.437 1.187.577 2.385.636.964.048 10.643.048 11.607 0 1.199-.06 1.72-.199 2.385-.636.863-.567 1.463-1.429 1.662-2.382.1-.483.165-1.856.147-3.173-.012-.966-.018-1.043-.099-1.194-.195-.366-.498-.553-.894-.553s-.698.187-.894.553c-.084.156-.087.22-.109 1.942-.025 1.924-.038 2.055-.246 2.45-.145.275-.54.664-.815.803-.423.215-.232.21-6.94.21-6.71 0-6.518.005-6.94-.21-.276-.139-.67-.528-.816-.803-.207-.394-.221-.526-.246-2.45-.021-1.723-.026-1.786-.109-1.942-.222-.416-.702-.65-1.114-.543"/>
</svg>