<svg xmlns="http://www.w3.org/2000/svg" width="26" height="26" fill="currentColor" class="sym sym-upload-02-solid" viewBox="0 0 26 26">
  <path d="M12.067 2.523c-2.25.21-4.208.957-5.978 2.284-.462.347-1.498 1.366-1.874 1.844a10.3 10.3 0 0 0-2.141 4.942c-.099.641-.099 2.146 0 2.787.286 1.86.982 3.466 2.14 4.942.457.58 1.53 1.602 2.138 2.037 1.694 1.233 3.816 2.012 6.122 2.114l.024.001.56.026-.174-.187c-.367-.397-.658-.995-.793-1.631-.06-.28-.069-.825-.082-5.255l-.014-4.942-1.232 1.167C9.68 13.68 9.51 13.825 9.336 13.879c-.39.124-.768.044-1.047-.223a.92.92 0 0 1-.184-1.098l-.002.005c.06-.119.702-.754 2.22-2.196 1.928-1.832 2.154-2.035 2.333-2.091a1.03 1.03 0 0 1 .693.002l-.006-.002c.178.056.405.258 2.332 2.09 1.519 1.443 2.16 2.078 2.221 2.198a.9.9 0 0 1 .106.423.92.92 0 0 1-.292.669c-.28.267-.657.347-1.047.223-.174-.054-.343-.2-1.43-1.23l-1.234-1.17.012 4.983c.015 5.415.003 5.111.232 5.55.18.343.676.734 1.15.903.6.214 1.075.124 2.315-.437a12 12 0 0 0 1.97-1.14l-.03.02c.61-.432 1.682-1.454 2.137-2.036 1.162-1.481 1.851-3.076 2.141-4.942.1-.638.098-2.14 0-2.787a10.3 10.3 0 0 0-2.142-4.942c-.375-.478-1.411-1.497-1.873-1.844a11.35 11.35 0 0 0-5.328-2.206c-.636-.09-1.946-.13-2.516-.078"/>
</svg>