<svg xmlns="http://www.w3.org/2000/svg" width="26" height="26" fill="currentColor" class="sym sym-upload-cloud-02-solid" viewBox="0 0 26 26">
  <path fill-rule="evenodd" d="M9.646 5.01c-1.204.12-2.062.347-3.007.794-2.493 1.197-4.25 3.513-4.58 6.253l-.004.038c-.402 3.337 1.442 6.59 4.584 8.084a8.4 8.4 0 0 0 2.688.763c.697.079 8.02.077 8.643-.003 1.564-.199 2.913-.839 4.012-1.905 2.056-1.994 2.595-4.972 1.366-7.547-.755-1.58-2.234-2.872-3.952-3.452-.793-.267-1.761-.407-2.539-.368l-.415.022-.337-.328a8.3 8.3 0 0 0-3.798-2.115l-.057-.012a12 12 0 0 0-.807-.158c-.358-.053-1.504-.096-1.797-.066m3.67 4.482c.163.052.37.24 2.134 1.947 1.39 1.344 1.977 1.935 2.033 2.047a.865.865 0 0 1-.17 1.018c-.256.248-.602.322-.959.207-.16-.05-.313-.187-1.308-1.145l-1.127-1.088v2.544c0 2.869.008 2.764-.275 3.038a.9.9 0 0 1-.643.261.92.92 0 0 1-.642-.26c-.284-.275-.274-.17-.274-3.04v-2.543l-1.128 1.088c-.995.958-1.149 1.095-1.308 1.145-.357.115-.703.04-.958-.208a.864.864 0 0 1-.169-1.023l-.002.006c.056-.112.643-.703 2.033-2.047 1.671-1.616 1.978-1.897 2.118-1.945a1 1 0 0 1 .645-.002"/>
</svg>