<svg xmlns="http://www.w3.org/2000/svg" width="26" height="26" fill="currentColor" class="sym sym-upload-cloud" viewBox="0 0 26 26">
  <path d="M12.98 23a.905.905 0 0 1-.909-.91v-6.898L9.59 17.677a.907.907 0 0 1-1.282-1.283l4.037-4.04c.09-.091.192-.152.293-.202.1-.04.212-.061.323-.071H13c.111 0 .222.03.323.07.11.04.212.112.293.203l4.036 4.04a.907.907 0 0 1-1.282 1.283l-2.482-2.485v6.899a.905.905 0 0 1-.908.909m8.073-4.808a.9.9 0 0 1-.757-.404.904.904 0 0 1 .253-1.263 3.64 3.64 0 0 0 1.614-3.02 3.61 3.61 0 0 0-3.29-3.616.9.9 0 0 1-.807-.758 5.13 5.13 0 0 0-5.076-4.313 5.115 5.115 0 0 0-5.076 4.313.92.92 0 0 1-.808.758 3.61 3.61 0 0 0-3.29 3.616c0 1.212.606 2.343 1.615 3.02a.92.92 0 0 1 .252 1.263.916.916 0 0 1-1.261.252A5.46 5.46 0 0 1 2 13.505a5.42 5.42 0 0 1 4.269-5.323A6.935 6.935 0 0 1 13 3c3.2 0 5.934 2.141 6.731 5.182A5.434 5.434 0 0 1 24 13.505a5.46 5.46 0 0 1-2.422 4.535.9.9 0 0 1-.505.152z"/>
</svg>