<svg xmlns="http://www.w3.org/2000/svg" width="26" height="26" fill="currentColor" class="sym sym-user-edit-solid" viewBox="0 0 26 26">
  <path fill-rule="evenodd" d="M18.615 11.706a1.97 1.97 0 0 1 2.804 0c.775.782.775 2.05 0 2.832-1.83 1.847-3.664 3.691-5.49 5.542-.082.083-.184.187-.306.273q-.159.112-.34.183c-.15.06-.306.088-.424.112l-1.663.336a.82.82 0 0 1-.742-.227.83.83 0 0 1-.225-.749l.34-1.71c.021-.114.05-.258.104-.397a1.7 1.7 0 0 1 .182-.343c.085-.123.188-.227.27-.309 1.833-1.844 3.66-3.695 5.49-5.543m-8.717 2.381c.232.119.42.31.538.543.126.25.135.522.135.795v3.687c0 .099 0 .217-.009.32a1.3 1.3 0 0 1-.126.474 1.24 1.24 0 0 1-.538.544 1.2 1.2 0 0 1-.47.127c-.102.008-.219.008-.317.008H5.46c-.098 0-.215 0-.318-.008a1.2 1.2 0 0 1-.47-.128 1.24 1.24 0 0 1-.54-.546 1.3 1.3 0 0 1-.124-.475C4 19.324 4 19.206 4 19.108c.004-.862-.021-1.785.312-2.597a4.13 4.13 0 0 1 2.223-2.244c.418-.175.86-.248 1.36-.282l1.216-.034c.27 0 .54.009.787.136m5.251-9.327a.82.82 0 0 1 1.07-.458 4.15 4.15 0 0 1 2.566 3.844 4.15 4.15 0 0 1-2.567 3.845.82.82 0 0 1-1.07-.458.83.83 0 0 1 .454-1.08 2.49 2.49 0 0 0 1.54-2.307 2.49 2.49 0 0 0-1.54-2.307.83.83 0 0 1-.453-1.08"/>
  <path fill-rule="evenodd" d="M6.874 8.146C6.874 5.856 8.714 4 10.981 4c2.269 0 4.107 1.856 4.107 4.146s-1.838 4.147-4.107 4.147c-2.268 0-4.107-1.857-4.107-4.147"/>
</svg>