<svg xmlns="http://www.w3.org/2000/svg" width="26" height="26" fill="currentColor" class="sym sym-users-left-solid" viewBox="0 0 26 26">
  <path d="M9.98 3.02a4.6 4.6 0 0 0-1.783.542l.025-.012a5 5 0 0 0-2.299 2.44l-.012.032a5 5 0 0 0-.397 1.963c0 .709.146 1.384.41 1.996l-.013-.033a5 5 0 0 0 2.282 2.458l.028.013c.758.387 1.413.544 2.276.544.864 0 1.519-.157 2.277-.544a5.1 5.1 0 0 0 2.296-2.435l.012-.033c.709-1.642.454-3.634-.641-5.03-.738-.94-1.897-1.645-3.02-1.84-.447-.077-1.063-.103-1.441-.06"/>
  <path d="M16.048 3.403a.94.94 0 0 0-.527.841c0 .47.19.726.755 1.017.468.24.845.542 1.105.887a3.02 3.02 0 0 1 .327 3.139c-.294.617-.755 1.075-1.432 1.423-.59.303-.788.593-.746 1.098.056.673.75 1.044 1.433.766 1.065-.434 2.01-1.343 2.54-2.446.532-1.105.626-2.446.256-3.655-.27-.886-.914-1.816-1.648-2.386-.926-.719-1.565-.93-2.061-.684zM7.056 15.035c-1.082.048-1.592.16-2.288.502-1.339.659-2.319 1.909-2.617 3.344-.093.453-.177 1.909-.144 2.524.03.537.123.8.385 1.088q.356.388.909.468c.167.024 1.997.039 4.695.039s4.53-.015 4.696-.039c.356-.052.666-.207.89-.447.21-.225.32-.46.377-.806.053-.328.053-5.041 0-5.414-.04-.35-.2-.655-.44-.879h-.001c-.244-.229-.46-.329-.822-.382-.319-.046-4.599-.045-5.64.002m12.588.025c-.153.054-.432.313-1.812 1.69-1.146 1.141-1.659 1.679-1.719 1.803-.117.246-.135.51-.051.771.065.2.18.327 1.695 1.847 1.705 1.713 1.792 1.786 2.169 1.822.555.054 1.079-.428 1.079-.992 0-.364-.088-.497-.855-1.272l-.722-.731h1.861c2.112 0 2.12-.001 2.418-.3a.992.992 0 0 0-.373-1.639l-.006-.003c-.144-.05-.471-.06-2.037-.06h-1.863l.722-.732c.767-.774.855-.907.855-1.271 0-.687-.694-1.163-1.361-.934z"/>
</svg>