<svg xmlns="http://www.w3.org/2000/svg" width="26" height="26" fill="currentColor" class="sym sym-users" viewBox="0 0 26 26">
  <path d="M23.083 22.99a.904.904 0 0 1-.907-.909v-2.019a3.124 3.124 0 0 0-2.338-3.029.913.913 0 0 1 .453-1.766A4.956 4.956 0 0 1 24 20.062v2.02a.904.904 0 0 1-.907.908zm-5.039 0a.904.904 0 0 1-.907-.909c0-1.756 0-2.645-.242-3.22a3.14 3.14 0 0 0-1.693-1.696c-.574-.233-1.451-.233-3.215-.233H8.964c-1.754 0-2.64 0-3.215.243a3.17 3.17 0 0 0-1.693 1.696c-.242.575-.242 1.454-.242 3.22a.904.904 0 0 1-.907.909.904.904 0 0 1-.907-.909c0-1.999 0-2.998.373-3.917a4.96 4.96 0 0 1 2.67-2.675c.908-.374 1.915-.374 3.91-.374h3.024c1.995 0 2.993 0 3.91.374a4.96 4.96 0 0 1 2.671 2.675c.373.909.373 1.918.373 3.917a.904.904 0 0 1-.907.909zm-7.558-10.096c-2.721 0-4.939-2.221-4.939-4.947S7.765 3 10.486 3s4.938 2.221 4.938 4.947-2.217 4.947-4.938 4.947m0-8.077a3.13 3.13 0 0 0 0 6.26 3.13 3.13 0 0 0 0-6.26m6.046 7.784a.89.89 0 0 1-.836-.565.905.905 0 0 1 .504-1.181 3.12 3.12 0 0 0 1.955-2.908A3.12 3.12 0 0 0 16.2 5.039a.916.916 0 0 1-.504-1.18.914.914 0 0 1 1.179-.506 4.93 4.93 0 0 1 3.084 4.584c0 2.02-1.21 3.826-3.084 4.583a1 1 0 0 1-.343.071z"/>
</svg>