<svg xmlns="http://www.w3.org/2000/svg" width="26" height="26" fill="currentColor" class="sym sym-users-solid" viewBox="0 0 26 26">
  <path d="M9.97 3.021a4.65 4.65 0 0 0-1.785.542l.025-.012a5 5 0 0 0-2.3 2.44l-.012.032c-.632 1.466-.502 3.23.336 4.576a5.05 5.05 0 0 0 3.34 2.297l.031.005a6.3 6.3 0 0 0 1.798-.004l-.034.004c1.976-.354 3.57-1.894 4.002-3.873.092-.418.124-1.272.065-1.687-.24-1.672-1.203-3.04-2.671-3.79-.69-.352-1.27-.504-2.077-.546a5 5 0 0 0-.74.018l.02-.001zm6.071.383a.94.94 0 0 0-.527.84c0 .472.19.727.755 1.018.468.24.846.542 1.106.887a3.02 3.02 0 0 1 .327 3.14c-.294.617-.755 1.075-1.433 1.422-.59.304-.788.594-.746 1.099.056.673.75 1.044 1.433.766 1.067-.434 2.012-1.343 2.543-2.447s.626-2.446.256-3.655c-.271-.886-.915-1.816-1.65-2.386-.926-.72-1.566-.931-2.062-.684zM6.724 15.036c-.633.04-1.047.123-1.522.304a4.9 4.9 0 0 0-1.78 1.172l-.002.002a4.96 4.96 0 0 0-1.343 2.58l-.005.03c-.054.296-.069.626-.071 1.539-.003 1.137-.001 1.166.093 1.401.135.336.498.697.825.819l.24.09h14.658l.24-.09c.327-.122.69-.483.825-.819.094-.235.096-.264.093-1.401-.002-.913-.017-1.243-.071-1.538a4.94 4.94 0 0 0-1.387-2.647h-.001a4.88 4.88 0 0 0-2.644-1.385l-.03-.005c-.337-.056-.883-.066-3.994-.075-1.982-.005-3.838.005-4.124.023m13.048.118a1.01 1.01 0 0 0-.761 1.067v-.003c.047.462.325.765.828.9.217.058.656.272.89.433.343.235.733.695.929 1.095.307.627.314.674.341 2.257l.024 1.402.11.189a.996.996 0 0 0 1.573.21c.299-.297.309-.368.287-2.013-.02-1.527-.03-1.626-.252-2.285a5.1 5.1 0 0 0-1.745-2.409l-.013-.009c-.385-.287-1.168-.678-1.582-.792-.315-.085-.42-.092-.63-.043"/>
</svg>