<svg xmlns="http://www.w3.org/2000/svg" width="26" height="26" fill="currentColor" class="sym sym-user-edit" viewBox="0 0 26 26">
  <path d="M19.283 11.744a2.014 2.014 0 0 1 2.877 0c.786.8.786 2.09 0 2.89l-6.017 6.118c-.097.098-.207.214-.34.308a1.7 1.7 0 0 1-.57.256l-.214.047-1.83.372a.75.75 0 0 1-.886-.88l.366-1.86c.027-.138.055-.295.113-.445q.07-.182.182-.344c.091-.134.204-.245.302-.344zM3.25 20.541c0-.846 0-1.518.036-2.061.037-.55.114-1.024.295-1.467l.087-.2a4.4 4.4 0 0 1 2.272-2.198c.44-.185.91-.264 1.454-.302.536-.037 1.197-.036 2.029-.036h2.712a.75.75 0 0 1 0 1.5H9.423c-.853 0-1.454 0-1.926.034-.465.032-.75.093-.974.187-.7.295-1.26.862-1.553 1.581-.095.232-.155.526-.187 1.001-.032.482-.033 1.095-.033 1.961a.75.75 0 0 1-1.5 0m17.84-7.745a.514.514 0 0 0-.738 0l-6.017 6.118-.117.121c-.02.021-.021.025-.018.02l-.018.035-.007.027-.034.167-.15.756.729-.147.163-.035.022-.006.032-.016c-.006.004-.004.004.017-.017l.12-.119 6.017-6.118a.565.565 0 0 0 0-.786m-7.445-5.12c0-1.628-1.295-2.926-2.866-2.926-1.57 0-2.866 1.298-2.866 2.926 0 1.627 1.295 2.926 2.866 2.926s2.866-1.299 2.866-2.926m4.067 0a2.93 2.93 0 0 0-1.795-2.715.75.75 0 0 1 .57-1.388 4.43 4.43 0 0 1 2.725 4.103.75.75 0 0 1-1.5 0m-2.567 0c0 2.432-1.943 4.425-4.366 4.426-2.422 0-4.366-1.994-4.366-4.426S8.357 3.25 10.78 3.25s4.366 1.993 4.366 4.426"/>
</svg>