<svg xmlns="http://www.w3.org/2000/svg" width="26" height="26" fill="currentColor" class="sym sym-users-minus" viewBox="0 0 26 26">
  <path d="M2.908 22.99A.905.905 0 0 1 2 22.081c0-1.999 0-2.998.373-3.917a5 5 0 0 1 2.675-2.675c.908-.374 1.917-.374 3.915-.374H13c.505 0 .908.404.908.909a.905.905 0 0 1-.908.908H8.963c-1.756 0-2.644 0-3.219.243A3.17 3.17 0 0 0 4.05 18.87c-.232.575-.233 1.454-.233 3.22a.905.905 0 0 1-.908.909zm20.184-3.029h-6.055a.905.905 0 0 1-.909-.909c0-.504.404-.908.909-.908h6.055c.504 0 .908.404.908.909a.905.905 0 0 1-.908.908m-12.615-7.067a4.954 4.954 0 0 1-4.945-4.947A4.954 4.954 0 0 1 10.477 3a4.954 4.954 0 0 1 4.945 4.947 4.954 4.954 0 0 1-4.945 4.947m0-8.077a3.13 3.13 0 0 0-3.128 3.13 3.13 3.13 0 0 0 3.128 3.13 3.13 3.13 0 0 0 3.128-3.13 3.13 3.13 0 0 0-3.128-3.13m6.055 7.784a.89.89 0 0 1-.838-.565.904.904 0 0 1 .505-1.181 3.12 3.12 0 0 0 1.958-2.908 3.12 3.12 0 0 0-1.958-2.908.916.916 0 0 1-.505-1.18.915.915 0 0 1 1.181-.506 4.93 4.93 0 0 1 3.088 4.584 4.925 4.925 0 0 1-3.088 4.583 1 1 0 0 1-.343.071z"/>
</svg>