<svg xmlns="http://www.w3.org/2000/svg" width="26" height="26" fill="currentColor" class="sym sym-users-x-solid" viewBox="0 0 26 26">
  <path d="M10.295 3.02a4.5 4.5 0 0 0-1.742.542l.025-.012a4.96 4.96 0 0 0-2.245 2.44l-.013.032a5.1 5.1 0 0 0-.388 1.963c0 .708.143 1.383.4 1.996l-.012-.033a4.97 4.97 0 0 0 2.23 2.457l.027.013c.74.388 1.38.544 2.224.544.843 0 1.483-.156 2.223-.544a5.05 5.05 0 0 0 2.243-2.435l.013-.032c.692-1.643.443-3.634-.627-5.03-.72-.94-1.853-1.645-2.95-1.84-.437-.077-1.039-.103-1.408-.06"/>
  <path d="M16.223 3.403a.94.94 0 0 0-.515.841c0 .47.185.726.737 1.017.458.24.826.542 1.08.887a3.08 3.08 0 0 1 .32 3.138c-.288.618-.738 1.075-1.4 1.423-.576.303-.77.594-.728 1.098.055.673.732 1.044 1.4.766 1.04-.433 1.963-1.342 2.481-2.446.52-1.105.612-2.446.25-3.654-.264-.886-.892-1.816-1.61-2.386-.904-.719-1.529-.93-2.013-.684zM7.44 15.035c-1.058.047-1.556.159-2.236.5a4.86 4.86 0 0 0-2.556 3.345c-.092.453-.173 1.909-.14 2.523.029.537.12.801.375 1.089q.346.387.888.467c.163.024 1.951.04 4.587.04s4.424-.015 4.587-.04a1.45 1.45 0 0 0 .869-.446c.206-.225.314-.46.369-.806.052-.329.052-5.041-.001-5.414a1.42 1.42 0 0 0-.43-.879c-.239-.229-.45-.328-.804-.382-.31-.046-4.492-.045-5.509.002m9.951.994c-.443.148-.715.515-.716.966-.002.387.074.493 1.083 1.521.507.518.923.96.923.982 0 .021-.416.463-.923.98-.662.675-.946.993-1.004 1.122a1.1 1.1 0 0 0-.01.788l-.002-.007c.146.351.537.62.903.62.36 0 .475-.088 1.495-1.131l.948-.97.949.97c1.02 1.043 1.136 1.13 1.495 1.131.366 0 .758-.268.903-.62a1.1 1.1 0 0 0-.015-.788l.002.007c-.058-.13-.343-.448-1.004-1.122-.508-.517-.923-.96-.923-.981s.416-.463.923-.981c1.008-1.029 1.084-1.135 1.083-1.522v-.002a1 1 0 0 0-.534-.888l-.006-.003c-.206-.113-.642-.119-.84-.012-.076.04-.565.507-1.086 1.04l-.948.966-.949-.966c-.52-.532-1.007-.998-1.08-1.035-.153-.078-.523-.114-.67-.065z"/>
</svg>