<svg xmlns="http://www.w3.org/2000/svg" width="26" height="26" fill="currentColor" class="sym sym-users-minus-solid" viewBox="0 0 26 26">
  <path d="M9.98 3.02a4.6 4.6 0 0 0-1.783.542l.024-.012a5 5 0 0 0-2.298 2.44l-.013.032a5 5 0 0 0-.397 1.963c0 .709.147 1.384.41 1.996l-.013-.033a5 5 0 0 0 2.283 2.458l.028.013c.757.387 1.412.544 2.276.544s1.518-.157 2.276-.544a5.1 5.1 0 0 0 2.296-2.435l.013-.033c.708-1.642.454-3.634-.642-5.03-.737-.94-1.896-1.645-3.02-1.84-.447-.077-1.063-.103-1.44-.06"/>
  <path d="M16.048 3.403a.94.94 0 0 0-.528.841c0 .47.19.726.755 1.017.468.24.846.542 1.106.887.69.915.816 2.112.326 3.139-.294.617-.755 1.075-1.431 1.423-.59.303-.789.593-.747 1.098.056.673.75 1.044 1.433.766 1.066-.434 2.01-1.343 2.54-2.446.532-1.105.627-2.446.257-3.655-.271-.886-.914-1.816-1.648-2.386-.927-.719-1.566-.93-2.062-.684zM7.056 15.035c-1.082.048-1.592.16-2.288.502-1.339.659-2.319 1.909-2.617 3.344-.093.453-.177 1.909-.144 2.524.03.537.123.8.385 1.088q.356.388.909.468c.167.024 1.997.039 4.695.039s4.529-.015 4.696-.039c.356-.052.666-.207.89-.447.21-.225.32-.46.377-.806.053-.328.053-5.041 0-5.414a1.42 1.42 0 0 0-.44-.879h-.001c-.244-.229-.46-.329-.823-.382-.318-.046-4.598-.045-5.639.002m9.609 3.025a.996.996 0 0 0-.366 1.638c.313.313.156.3 3.704.3s3.392.013 3.704-.3a.99.99 0 0 0-.373-1.639l-.006-.002c-.25-.09-6.422-.087-6.663.002"/>
</svg>