<svg xmlns="http://www.w3.org/2000/svg" width="26" height="26" fill="currentColor" class="sym sym-user-check" viewBox="0 0 26 26">
  <path d="M2.909 23A.905.905 0 0 1 2 22.09c0-1.494 0-2.252.212-2.949a4.96 4.96 0 0 1 3.303-3.303c.707-.212 1.454-.212 2.949-.212h4.545c.505 0 .909.404.909.91a.906.906 0 0 1-.91.909H8.465c-1.313 0-1.98 0-2.424.13a3.12 3.12 0 0 0-2.09 2.092c-.132.444-.132 1.1-.132 2.424A.905.905 0 0 1 2.91 23m16.16-1.01a.94.94 0 0 1-.647-.263l-2.02-2.02a.908.908 0 0 1 1.283-1.283l1.374 1.374 3.393-3.394a.908.908 0 0 1 1.283 1.283l-4.04 4.04a.9.9 0 0 1-.646.263zm-8.08-8.08a5.457 5.457 0 0 1-5.454-5.455A5.457 5.457 0 0 1 10.989 3a5.457 5.457 0 0 1 5.454 5.455 5.457 5.457 0 0 1-5.454 5.454m0-9.092a3.64 3.64 0 0 0-3.636 3.637 3.64 3.64 0 0 0 3.636 3.636c2 0 3.636-1.626 3.636-3.636a3.64 3.64 0 0 0-3.636-3.637"/>
</svg>