<svg xmlns="http://www.w3.org/2000/svg" width="26" height="26" fill="currentColor" class="sym sym-users-right-solid" viewBox="0 0 26 26">
  <path d="M9.98 3.02a4.65 4.65 0 0 0-1.782.542l.024-.012a5 5 0 0 0-2.298 2.44l-.013.032a5 5 0 0 0-.397 1.963c0 .709.146 1.384.41 1.996l-.013-.033a5 5 0 0 0 2.283 2.458l.028.013c.757.387 1.413.544 2.276.544.864 0 1.52-.157 2.277-.544a5.1 5.1 0 0 0 2.296-2.435l.013-.033c.708-1.642.454-3.634-.641-5.03-.738-.94-1.898-1.645-3.022-1.84-.446-.077-1.062-.103-1.44-.06"/>
  <path d="M16.05 3.403a.94.94 0 0 0-.528.841c0 .47.19.726.755 1.017.468.24.846.542 1.106.887a3.02 3.02 0 0 1 .327 3.139c-.294.617-.755 1.075-1.432 1.423-.59.303-.789.593-.747 1.098.057.673.75 1.044 1.434.766 1.065-.434 2.01-1.343 2.54-2.446.532-1.105.626-2.446.256-3.655-.27-.886-.914-1.816-1.648-2.386-.926-.719-1.566-.93-2.062-.684zM7.057 15.035c-1.082.048-1.592.16-2.289.502-1.339.659-2.319 1.909-2.617 3.344-.093.453-.177 1.909-.144 2.524.03.537.123.8.385 1.088q.355.388.91.468c.166.024 1.997.039 4.695.039s4.53-.015 4.696-.039c.357-.052.667-.207.89-.447.211-.225.321-.46.378-.806.053-.328.053-5.041-.001-5.414a1.4 1.4 0 0 0-.44-.879c-.244-.229-.46-.329-.823-.382-.318-.046-4.6-.045-5.64.002m12.592.027c-.352.123-.644.545-.644.932 0 .364.088.496.855 1.272l.722.731h-1.864c-1.565 0-1.892.01-2.036.06a.992.992 0 0 0-.38 1.642c.299.3.305.3 2.418.3h1.86l-.721.732c-.767.774-.855.906-.855 1.271 0 .564.523 1.045 1.08.993.375-.036.462-.11 2.168-1.822 1.515-1.521 1.631-1.648 1.696-1.847a1.02 1.02 0 0 0-.052-.771c-.06-.124-.572-.66-1.718-1.803-1.46-1.455-1.654-1.633-1.83-1.693a1.04 1.04 0 0 0-.708.006l.007-.002z"/>
</svg>