<svg xmlns="http://www.w3.org/2000/svg" width="26" height="26" fill="currentColor" class="sym sym-users-left" viewBox="0 0 26 26">
  <path d="M20.064 22.99a.94.94 0 0 1-.646-.262l-3.027-3.03a1.1 1.1 0 0 1-.202-.292.9.9 0 0 1-.07-.323v-.03a.9.9 0 0 1 .07-.334.7.7 0 0 1 .202-.292l3.027-3.03A.907.907 0 0 1 20.7 16.68l-1.473 1.474h3.865c.504 0 .908.404.908.909a.905.905 0 0 1-.908.908h-3.865l1.473 1.474a.91.91 0 0 1 0 1.282.9.9 0 0 1-.646.263zm-17.156 0A.905.905 0 0 1 2 22.081c0-1.999 0-2.998.373-3.917a5 5 0 0 1 2.675-2.675c.908-.374 1.917-.374 3.915-.374H13c.505 0 .908.404.908.909a.905.905 0 0 1-.908.908H8.963c-1.756 0-2.644 0-3.219.243A3.17 3.17 0 0 0 4.05 18.87c-.232.575-.233 1.454-.233 3.22a.905.905 0 0 1-.908.909zm7.57-10.096a4.954 4.954 0 0 1-4.946-4.947A4.954 4.954 0 0 1 10.477 3a4.954 4.954 0 0 1 4.945 4.947 4.954 4.954 0 0 1-4.945 4.947m0-8.077a3.13 3.13 0 0 0-3.13 3.13 3.13 3.13 0 0 0 3.13 3.13 3.13 3.13 0 0 0 3.127-3.13 3.13 3.13 0 0 0-3.128-3.13m6.054 7.784a.89.89 0 0 1-.838-.565.904.904 0 0 1 .505-1.181 3.12 3.12 0 0 0 1.958-2.908 3.12 3.12 0 0 0-1.958-2.908.916.916 0 0 1-.505-1.18.915.915 0 0 1 1.181-.506 4.93 4.93 0 0 1 3.088 4.584 4.925 4.925 0 0 1-3.088 4.583 1 1 0 0 1-.343.071z"/>
</svg>