<svg xmlns="http://www.w3.org/2000/svg" width="26" height="26" fill="currentColor" class="sym sym-user-x" viewBox="0 0 26 26">
  <path d="M22.62 22.998a.9.9 0 0 1-.632-.263l-1.834-1.879-1.834 1.879a.87.87 0 0 1-1.253 0 .924.924 0 0 1 0-1.283l1.834-1.878-1.834-1.879a.924.924 0 0 1 0-1.282.87.87 0 0 1 1.253 0l1.834 1.878 1.834-1.878a.87.87 0 0 1 1.253 0 .924.924 0 0 1 0 1.282l-1.834 1.879 1.834 1.878a.924.924 0 0 1 0 1.283.87.87 0 0 1-.631.262zm-19.232 0a.895.895 0 0 1-.888-.91c0-1.494 0-2.252.207-2.949.474-1.585 1.677-2.817 3.225-3.302.69-.212 1.42-.212 2.88-.212h4.438c.493 0 .888.404.888.909a.895.895 0 0 1-.888.909H8.812c-1.282 0-1.933 0-2.367.13a3.09 3.09 0 0 0-2.042 2.092c-.128.444-.128 1.1-.128 2.424a.895.895 0 0 1-.887.909m7.89-9.09c-2.94 0-5.326-2.444-5.326-5.454S8.339 3 11.278 3s5.326 2.444 5.326 5.454-2.387 5.454-5.326 5.454m0-9.09c-1.953 0-3.55 1.626-3.55 3.636s1.597 3.636 3.55 3.636 3.55-1.626 3.55-3.636-1.598-3.636-3.55-3.636"/>
</svg>