<svg xmlns="http://www.w3.org/2000/svg" width="26" height="26" fill="currentColor" class="sym sym-user-x-solid" viewBox="0 0 26 26">
  <path d="M10.804 3.02a5.36 5.36 0 0 0-3.785 2.146l-.01.013c-.31.421-.723 1.26-.857 1.746a5.85 5.85 0 0 0 .01 3.163l-.01-.04c.134.485.547 1.324.858 1.745a5.57 5.57 0 0 0 2.628 1.92l.038.012c.484.153 1.04.241 1.617.241a5.5 5.5 0 0 0 1.656-.252l-.04.01c1.095-.354 2.197-1.193 2.811-2.138a5.64 5.64 0 0 0 0-6.2c-.472-.728-1.359-1.498-2.163-1.879a5.35 5.35 0 0 0-2.774-.486zM6.728 15.556a4.73 4.73 0 0 0-2.66 1.3l.002-.002a4.9 4.9 0 0 0-1.248 1.902l-.011.034c-.164.46-.231.791-.28 1.383-.063.784-.028 1.586.086 1.886.125.333.477.693.8.819l.234.09 4.512.015c2.82.009 4.613 0 4.782-.024.679-.1 1.141-.572 1.24-1.266.05-.358.05-4.553 0-4.912-.085-.6-.454-1.038-1.013-1.205-.187-.057-.577-.063-3.205-.06-1.647.003-3.104.02-3.24.039zm10.662.472c-.441.148-.714.516-.715.966-.002.388.074.494 1.084 1.522.507.517.922.96.922.98 0 .023-.415.464-.922.982-.662.674-.947.992-1.005 1.121a1.1 1.1 0 0 0-.01.788l-.002-.007c.146.351.537.62.903.62.36 0 .475-.088 1.495-1.131l.948-.97.948.97c1.02 1.043 1.136 1.13 1.495 1.131.366 0 .758-.268.903-.62a1.1 1.1 0 0 0-.015-.788l.002.007c-.058-.13-.342-.448-1.004-1.122-.507-.517-.923-.96-.923-.98 0-.023.416-.464.923-.982 1.008-1.028 1.084-1.134 1.083-1.521v-.003a1 1 0 0 0-.534-.888l-.006-.002c-.206-.113-.641-.12-.84-.013-.076.04-.564.508-1.085 1.04l-.948.967-.949-.966c-.52-.533-1.007-.999-1.08-1.035-.153-.078-.523-.115-.669-.066z"/>
</svg>