<svg xmlns="http://www.w3.org/2000/svg" width="26" height="26" fill="currentColor" class="sym sym-users-check" viewBox="0 0 26 26">
  <path d="M2.909 22.99A.905.905 0 0 1 2 22.081c0-1.999 0-2.998.374-3.917A5 5 0 0 1 5.05 15.49c.91-.374 1.92-.374 3.919-.374h4.04c.505 0 .909.404.909.909a.905.905 0 0 1-.91.908h-4.04c-1.756 0-2.645 0-3.22.243A3.17 3.17 0 0 0 4.05 18.87c-.232.575-.232 1.454-.232 3.22a.905.905 0 0 1-.909.909zm16.16-1.01a.94.94 0 0 1-.647-.262l-2.02-2.02a.908.908 0 0 1 1.283-1.282l1.374 1.374 3.393-3.393a.908.908 0 0 1 1.283 1.282l-4.04 4.039a.9.9 0 0 1-.646.262zm-8.585-9.086a4.956 4.956 0 0 1-4.95-4.947A4.956 4.956 0 0 1 10.485 3a4.956 4.956 0 0 1 4.949 4.947 4.956 4.956 0 0 1-4.95 4.947m0-8.077a3.133 3.133 0 0 0-3.131 3.13 3.133 3.133 0 0 0 3.13 3.13 3.133 3.133 0 0 0 3.132-3.13 3.133 3.133 0 0 0-3.131-3.13m6.06 7.784a.895.895 0 0 1-.838-.565.904.904 0 0 1 .505-1.181 3.12 3.12 0 0 0 1.959-2.908 3.12 3.12 0 0 0-1.96-2.908.916.916 0 0 1-.505-1.18.916.916 0 0 1 1.182-.506 4.93 4.93 0 0 1 3.09 4.584 4.93 4.93 0 0 1-3.09 4.583c-.11.04-.232.071-.343.071z"/>
</svg>