<svg xmlns="http://www.w3.org/2000/svg" width="26" height="26" fill="currentColor" class="sym sym-users-plus-solid" viewBox="0 0 26 26">
  <path d="M9.979 3.02a4.6 4.6 0 0 0-1.783.542l.025-.012a5 5 0 0 0-2.298 2.44l-.013.032a5 5 0 0 0-.397 1.963c0 .709.147 1.384.41 1.996l-.013-.033a5 5 0 0 0 2.283 2.458l.027.013c.758.387 1.413.544 2.277.544.863 0 1.518-.157 2.276-.544a5.1 5.1 0 0 0 2.296-2.435l.013-.033c.708-1.642.454-3.634-.642-5.03-.737-.94-1.897-1.645-3.02-1.84-.447-.077-1.063-.103-1.441-.06"/>
  <path d="M16.047 3.403a.94.94 0 0 0-.527.841c0 .47.19.726.755 1.017.468.24.845.542 1.105.887a3.02 3.02 0 0 1 .327 3.139c-.294.617-.755 1.075-1.432 1.423-.59.303-.788.593-.746 1.098.056.673.75 1.044 1.433.766 1.065-.434 2.01-1.343 2.54-2.446.531-1.105.626-2.446.256-3.655-.27-.886-.914-1.816-1.648-2.386-.926-.719-1.565-.93-2.061-.684zM7.056 15.035c-1.082.048-1.592.16-2.288.502-1.339.659-2.319 1.909-2.617 3.344-.093.453-.177 1.909-.144 2.524.03.537.123.8.385 1.088q.355.388.909.468c.167.024 1.997.039 4.695.039s4.529-.015 4.695-.039c.357-.052.666-.207.89-.447.21-.225.321-.46.377-.806.054-.328.054-5.041 0-5.414-.04-.35-.2-.655-.44-.879-.245-.229-.46-.329-.823-.382-.318-.046-4.598-.045-5.64.002m12.611.019a1.03 1.03 0 0 0-.53.446l-.002.005-.111.189-.025 2.303h-1.073c-.858 0-1.109.012-1.245.06a.993.993 0 0 0-.38 1.642c.278.28.392.3 1.629.3h1.074v1.075c0 1.236.02 1.35.299 1.63a.983.983 0 0 0 1.403 0c.278-.28.3-.394.3-1.63v-1.075h1.073c1.236 0 1.35-.02 1.63-.3a.992.992 0 0 0-.373-1.639l-.007-.002c-.138-.049-.388-.061-1.248-.061h-1.076v-1.071c0-.615-.018-1.135-.042-1.221a1.07 1.07 0 0 0-.488-.585l-.005-.003c-.236-.12-.578-.148-.801-.063z"/>
</svg>