<svg xmlns="http://www.w3.org/2000/svg" width="26" height="26" fill="currentColor" class="sym sym-user-solid" viewBox="0 0 26 26">
  <path d="M12.499 3.02a5.53 5.53 0 0 0-3.882 2.148l-.01.013c-.318.422-.741 1.262-.88 1.748a5.73 5.73 0 0 0 .01 3.166l-.01-.04c.139.485.562 1.324.88 1.747a5.7 5.7 0 0 0 2.695 1.92l.04.013c1.048.33 2.383.32 3.405-.028 1.096-.372 2.175-1.189 2.791-2.113 1.273-1.905 1.273-4.29.003-6.206-.485-.728-1.395-1.5-2.22-1.88A5.6 5.6 0 0 0 12.973 3q-.251 0-.496.021zM8.21 15.569c-.676.097-1.645.505-2.2.924A5.1 5.1 0 0 0 4.082 19.5l-.006.033c-.061.28-.074.52-.075 1.342L4 21.878l.124.26c.157.33.407.58.738.738l.26.124h15.755l.24-.112c.316-.147.626-.456.77-.766l.113-.244v-1.002c-.002-.822-.015-1.063-.076-1.343a5.14 5.14 0 0 0-1.92-3.03l-.014-.01c-.576-.434-1.52-.825-2.237-.924-.376-.052-9.18-.052-9.544 0"/>
</svg>