<svg xmlns="http://www.w3.org/2000/svg" width="26" height="26" fill="currentColor" class="sym sym-users-down" viewBox="0 0 26 26">
  <path d="M20.062 22.99h-.01a.9.9 0 0 1-.323-.07.7.7 0 0 1-.292-.203l-3.028-3.028a.907.907 0 0 1 1.281-1.282l1.474 1.473v-3.866c0-.505.404-.909.908-.909.505 0 .908.404.908.909v3.866l1.474-1.474a.907.907 0 0 1 1.281 1.283l-3.027 3.028c-.09.091-.192.152-.293.202a.9.9 0 0 1-.323.071zm-17.154 0A.905.905 0 0 1 2 22.081c0-1.999 0-2.998.373-3.917a5 5 0 0 1 2.674-2.675c.909-.374 1.918-.374 3.916-.374h4.036c.504 0 .908.404.908.909a.905.905 0 0 1-.908.908H8.963c-1.756 0-2.644 0-3.22.243a3.17 3.17 0 0 0-1.695 1.696c-.232.575-.232 1.454-.232 3.22a.905.905 0 0 1-.908.909zm7.568-10.096a4.954 4.954 0 0 1-4.944-4.947A4.954 4.954 0 0 1 10.476 3a4.954 4.954 0 0 1 4.945 4.947 4.954 4.954 0 0 1-4.945 4.947m0-8.077a3.13 3.13 0 0 0-3.128 3.13 3.13 3.13 0 0 0 3.128 3.13 3.13 3.13 0 0 0 3.128-3.13 3.13 3.13 0 0 0-3.128-3.13m6.054 7.784a.89.89 0 0 1-.837-.565.904.904 0 0 1 .505-1.181 3.12 3.12 0 0 0 1.957-2.908 3.12 3.12 0 0 0-1.957-2.908.916.916 0 0 1-.505-1.18.915.915 0 0 1 1.18-.506 4.925 4.925 0 0 1 3.088 4.584c0 2.02-1.21 3.826-3.087 4.583a1 1 0 0 1-.343.071z"/>
</svg>