<svg xmlns="http://www.w3.org/2000/svg" width="26" height="26" fill="currentColor" class="sym sym-users-down-solid" viewBox="0 0 26 26">
  <path d="M9.979 3.02a4.6 4.6 0 0 0-1.783.542l.025-.012a5 5 0 0 0-2.298 2.44l-.013.032a5 5 0 0 0-.397 1.963c0 .709.147 1.384.41 1.996l-.013-.033a5 5 0 0 0 2.283 2.458l.027.013c.758.387 1.413.544 2.276.544.864 0 1.52-.157 2.277-.544a5.1 5.1 0 0 0 2.296-2.435l.012-.033c.709-1.642.454-3.634-.641-5.03-.738-.94-1.897-1.645-3.02-1.84-.447-.077-1.063-.103-1.441-.06"/>
  <path d="M16.047 3.403a.94.94 0 0 0-.527.841c0 .47.19.726.754 1.017.468.24.846.542 1.106.887a3.02 3.02 0 0 1 .326 3.139c-.294.617-.754 1.075-1.431 1.423-.59.303-.788.593-.746 1.098.056.673.749 1.044 1.433.766 1.065-.434 2.01-1.343 2.54-2.446.531-1.105.626-2.446.256-3.655-.271-.886-.914-1.816-1.648-2.386-.926-.719-1.566-.93-2.061-.684zM7.056 15.035c-1.082.048-1.592.16-2.288.502-1.339.659-2.319 1.909-2.617 3.344-.093.453-.177 1.909-.144 2.524.03.537.123.8.385 1.088q.355.388.909.468c.167.024 1.997.039 4.695.039s4.528-.015 4.695-.039c.356-.052.666-.207.89-.447.21-.225.321-.46.377-.806.053-.328.053-5.041 0-5.414a1.4 1.4 0 0 0-.44-.879c-.245-.229-.46-.329-.823-.382-.318-.046-4.599-.045-5.64.002m12.611.019a1.03 1.03 0 0 0-.53.446l-.002.005-.111.189-.024 3.877-.728-.721c-.618-.61-.76-.731-.927-.787-.388-.13-.765-.046-1.044.234-.279.278-.363.655-.234 1.045.059.176.237.369 1.69 1.83 1.143 1.146 1.678 1.66 1.803 1.72.245.117.51.135.77.05.2-.064.327-.18 1.846-1.696 1.712-1.705 1.785-1.793 1.821-2.17.053-.555-.428-1.079-.992-1.079-.364 0-.496.088-1.27.855l-.732.722v-1.859c0-1.158-.015-1.915-.042-2.01a1.07 1.07 0 0 0-.487-.584l-.005-.003c-.237-.12-.579-.149-.802-.064"/>
</svg>