<svg xmlns="http://www.w3.org/2000/svg" width="26" height="26" fill="currentColor" class="sym sym-user-down-solid" viewBox="0 0 26 26">
  <path d="M10.5 3.02a5.52 5.52 0 0 0-3.874 2.146l-.01.014c-.318.421-.74 1.26-.878 1.746a5.73 5.73 0 0 0 .01 3.164l-.01-.04c.138.486.56 1.325.878 1.747a5.7 5.7 0 0 0 2.69 1.92l.04.012a5.7 5.7 0 0 0 1.655.241c.59 0 1.16-.088 1.695-.252l-.041.01c1.121-.354 2.25-1.193 2.878-2.139 1.269-1.912 1.269-4.29 0-6.202-.484-.728-1.391-1.499-2.215-1.88A5.6 5.6 0 0 0 10.974 3q-.25 0-.495.021zm9.168 12.04a1 1 0 0 0-.53.444l-.003.004-.11.19L19 19.574l-.729-.72C17.497 18.088 17.366 18 17 18c-.675 0-1.15.673-.938 1.327.065.201.177.324 1.695 1.849 1.14 1.146 1.677 1.659 1.802 1.72.245.117.51.135.77.05.199-.064.326-.18 1.845-1.696 1.712-1.706 1.785-1.793 1.821-2.17.053-.556-.428-1.08-.992-1.08-.364 0-.495.088-1.27.855l-.731.723v-1.863c0-2.113 0-2.12-.3-2.419a.99.99 0 0 0-1.043-.233l.006-.003zm-13.34.5a4.9 4.9 0 0 0-2.723 1.301l.003-.002a4.9 4.9 0 0 0-1.279 1.903l-.01.034c-.169.46-.237.791-.287 1.383-.065.784-.029 1.586.087 1.887.129.333.489.693.82.819l.24.09 4.618.015c2.887.009 4.722 0 4.895-.024.695-.1 1.168-.572 1.269-1.266.05-.358.051-4.555 0-4.914-.087-.6-.465-1.038-1.037-1.206-.191-.056-.59-.063-3.28-.06-1.686.004-3.178.021-3.317.04z"/>
</svg>