<svg xmlns="http://www.w3.org/2000/svg" width="26" height="26" fill="currentColor" class="sym sym-user-down" viewBox="0 0 26 26">
  <path d="M20.062 23h-.01a.9.9 0 0 1-.323-.07.7.7 0 0 1-.293-.203l-3.027-3.03a.907.907 0 0 1 1.281-1.283l1.474 1.475V16.02c0-.505.404-.909.908-.909.505 0 .908.404.908.91v3.868l1.474-1.475a.907.907 0 0 1 1.281 1.283l-3.027 3.03c-.09.091-.192.152-.293.202a.9.9 0 0 1-.323.071zM2.908 23A.905.905 0 0 1 2 22.09c0-1.494 0-2.252.212-2.949a4.96 4.96 0 0 1 3.3-3.303c.706-.212 1.453-.212 2.946-.212h4.54c.505 0 .909.404.909.91a.906.906 0 0 1-.908.909H8.458c-1.312 0-1.978 0-2.422.13a3.12 3.12 0 0 0-2.089 2.092c-.13.444-.13 1.1-.13 2.424a.905.905 0 0 1-.909.909m8.073-9.09a5.455 5.455 0 0 1 0-10.91 5.455 5.455 0 0 1 0 10.91m0-9.092a3.64 3.64 0 0 0-3.633 3.637 3.64 3.64 0 0 0 3.633 3.636 3.64 3.64 0 0 0 3.632-3.636 3.64 3.64 0 0 0-3.632-3.637"/>
</svg>