<svg xmlns="http://www.w3.org/2000/svg" width="26" height="26" fill="currentColor" class="sym sym-user-circle-solid" viewBox="0 0 26 26">
  <path d="M12.114 5.572a5.1 5.1 0 0 0-2.615 1.35L9.5 6.92c-2.02 1.974-2.014 5.19.015 7.177a5 5 0 0 0 3.487 1.41c.552 0 1.082-.088 1.578-.253l-.035.01c.49-.16.805-.312 1.235-.598a5 5 0 0 0 1.962-2.55l.01-.036c.971-2.897-.877-5.984-3.897-6.51-.424-.075-1.325-.073-1.74.002z"/>
  <path fill-rule="evenodd" d="M12.539 2.008c-2.322.1-4.616.959-6.44 2.41a14 14 0 0 0-1.678 1.673l-.016.02c-1.026 1.286-1.812 2.926-2.156 4.495-.183.83-.249 1.473-.249 2.402 0 1.788.349 3.293 1.13 4.87.577 1.166 1.18 2.008 2.084 2.91.904.904 1.745 1.506 2.911 2.083C9.705 23.651 11.21 24 13 24s3.296-.349 4.875-1.129c1.158-.573 2.014-1.184 2.911-2.083.899-.897 1.51-1.752 2.084-2.91.781-1.577 1.13-3.082 1.13-4.87 0-1.79-.349-3.294-1.13-4.872-.577-1.166-1.18-2.007-2.084-2.91-.902-.903-1.744-1.504-2.911-2.082a10.9 10.9 0 0 0-5.359-1.135zm1.57 2.04q3.092.406 5.271 2.584c1.723 1.72 2.649 3.949 2.647 6.368v.126q0 .913-.192 1.77l.01-.055a9 9 0 0 1-1.647 3.618l.017-.023-.313.418-.374-.37a4.92 4.92 0 0 0-3.052-1.425l-.018-.001c-.564-.054-6.351-.054-6.916 0a4.94 4.94 0 0 0-3.07 1.425l-.374.37-.312-.417a9 9 0 0 1-1.767-4.405l-.003-.042c-.06-.517-.051-1.53.015-2.067a8.92 8.92 0 0 1 2.588-5.291V6.63c1.438-1.436 3.201-2.305 5.239-2.581.56-.076 1.677-.077 2.252 0"/>
</svg>