<svg xmlns="http://www.w3.org/2000/svg" width="26" height="26" fill="currentColor" class="sym sym-user-left" viewBox="0 0 26 26">
  <path d="M20.064 23a.94.94 0 0 1-.646-.263l-3.027-3.03a1.1 1.1 0 0 1-.202-.293 1.2 1.2 0 0 1-.07-.323v-.04a.9.9 0 0 1 .07-.334.7.7 0 0 1 .202-.293l3.027-3.03a.907.907 0 0 1 1.282 1.283l-1.473 1.474h3.865c.504 0 .908.404.908.91a.905.905 0 0 1-.908.909h-3.865l1.473 1.474a.91.91 0 0 1 0 1.283.9.9 0 0 1-.646.263zM2.908 23A.905.905 0 0 1 2 22.09c0-1.494 0-2.252.212-2.949a4.96 4.96 0 0 1 3.3-3.303c.706-.212 1.453-.212 2.947-.212H13c.505 0 .908.404.908.91a.905.905 0 0 1-.908.909H8.459c-1.312 0-1.978 0-2.422.13a3.12 3.12 0 0 0-2.09 2.092c-.13.444-.13 1.1-.13 2.424a.905.905 0 0 1-.909.909m8.074-9.09a5.455 5.455 0 0 1 0-10.91 5.455 5.455 0 0 1 0 10.91m0-9.092a3.64 3.64 0 0 0-3.633 3.637 3.64 3.64 0 0 0 3.633 3.636 3.64 3.64 0 0 0 3.633-3.636 3.64 3.64 0 0 0-3.633-3.637"/>
</svg>