<svg xmlns="http://www.w3.org/2000/svg" width="26" height="26" fill="currentColor" class="sym sym-user-right" viewBox="0 0 26 26">
  <path d="M20.064 22.99a.94.94 0 0 1-.646-.262.91.91 0 0 1 0-1.283l1.474-1.474h-3.865a.905.905 0 0 1-.909-.908c0-.505.404-.909.909-.909h3.865l-1.474-1.474a.907.907 0 0 1 1.282-1.282l3.028 3.029c.09.09.15.191.201.292.04.101.06.212.071.323v.04a.9.9 0 0 1-.07.334.7.7 0 0 1-.203.293L20.7 22.738a.9.9 0 0 1-.646.262zm-17.156 0A.905.905 0 0 1 2 22.081c0-1.494 0-2.251.212-2.948a4.96 4.96 0 0 1 3.3-3.301c.706-.212 1.453-.212 2.947-.212H13c.505 0 .908.404.908.909a.905.905 0 0 1-.908.908H8.459c-1.312 0-1.978 0-2.422.131a3.12 3.12 0 0 0-2.09 2.09c-.13.444-.13 1.1-.13 2.423a.905.905 0 0 1-.909.909m8.074-9.086a5.454 5.454 0 0 1-5.45-5.452A5.454 5.454 0 0 1 10.982 3a5.454 5.454 0 0 1 5.45 5.452 5.454 5.454 0 0 1-5.45 5.452m0-9.087a3.64 3.64 0 0 0-3.633 3.635 3.64 3.64 0 0 0 3.633 3.634 3.64 3.64 0 0 0 3.633-3.634 3.64 3.64 0 0 0-3.633-3.635"/>
</svg>