<svg xmlns="http://www.w3.org/2000/svg" width="26" height="26" fill="currentColor" class="sym sym-user-right-solid" viewBox="0 0 26 26">
  <path d="M10.502 3.02a5.52 5.52 0 0 0-3.875 2.146l-.01.014c-.318.42-.74 1.26-.879 1.746a5.73 5.73 0 0 0 .01 3.164l-.01-.04c.138.485.56 1.323.879 1.745a5.7 5.7 0 0 0 2.69 1.92l.04.012a5.7 5.7 0 0 0 1.655.242c.59 0 1.16-.089 1.695-.252l-.04.01c1.12-.354 2.25-1.194 2.878-2.139 1.268-1.912 1.268-4.289 0-6.201-.484-.729-1.392-1.499-2.216-1.88A5.6 5.6 0 0 0 10.976 3q-.25 0-.495.021zm9.168 12.038a.994.994 0 0 0-.6 1.27l-.003-.006c.063.191.152.297.792.946l.723.731h-1.863c-2.018 0-2.053.003-2.34.222a1.2 1.2 0 0 0-.24.284l-.003.006c-.095.16-.111.233-.111.489s.016.328.11.49c.062.102.171.234.244.289.287.219.321.222 2.341.222h1.864l-.704.71c-.388.392-.735.773-.773.847-.34.67.232 1.51.977 1.438.376-.036.463-.11 2.168-1.822 1.515-1.522 1.631-1.648 1.696-1.847a1.02 1.02 0 0 0-.052-.772c-.06-.123-.572-.66-1.718-1.803-1.46-1.455-1.653-1.633-1.829-1.692a1.02 1.02 0 0 0-.686 0zm-13.341.502a4.87 4.87 0 0 0-2.723 1.3l.002-.003a4.9 4.9 0 0 0-1.279 1.903l-.01.034c-.169.46-.237.79-.287 1.383-.065.784-.029 1.586.087 1.886.129.334.489.694.82.82l.24.09 4.619.014c2.887.01 4.723 0 4.895-.024.696-.099 1.169-.571 1.27-1.265.05-.359.051-4.555 0-4.914-.087-.6-.465-1.038-1.037-1.205-.192-.057-.59-.063-3.282-.06-1.686.003-3.177.02-3.316.039z"/>
</svg>