<svg xmlns="http://www.w3.org/2000/svg" width="26" height="26" fill="currentColor" class="sym sym-user-up-solid" viewBox="0 0 26 26">
  <path d="M10.5 3.02a5.5 5.5 0 0 0-3.874 2.146l-.01.014c-.318.421-.74 1.26-.878 1.746a5.73 5.73 0 0 0 .01 3.164l-.01-.04c.138.486.56 1.325.878 1.747a5.7 5.7 0 0 0 2.69 1.92l.04.012A5.7 5.7 0 0 0 11 13.97c.59 0 1.16-.09 1.695-.253l-.041.01c1.121-.354 2.25-1.193 2.878-2.139 1.268-1.912 1.268-4.29 0-6.202-.484-.728-1.392-1.499-2.215-1.88A5.6 5.6 0 0 0 10.973 3q-.25 0-.495.021zm9.142 12.045c-.152.052-.429.31-1.793 1.67-.888.884-1.659 1.683-1.713 1.775-.378.636.12 1.494.866 1.494.364 0 .496-.088 1.27-.855l.731-.723v1.86c0 1.158.016 1.916.042 2.01.06.22.273.474.489.585a.98.98 0 0 0 1.17-.173c.299-.299.3-.306.3-2.42v-1.862l.73.723c.774.767.906.855 1.27.855.564 0 1.045-.523.992-1.08-.036-.376-.109-.463-1.82-2.17-1.46-1.455-1.653-1.633-1.829-1.692a1.04 1.04 0 0 0-.71.005l.007-.002zm-13.314.495a4.9 4.9 0 0 0-2.723 1.301l.002-.002a4.9 4.9 0 0 0-1.278 1.903l-.011.034c-.168.46-.236.791-.286 1.384-.065.784-.029 1.585.087 1.886.129.333.489.694.82.82l.24.09 4.617.014c2.887.01 4.722 0 4.895-.024.695-.099 1.168-.571 1.269-1.266.05-.358.051-4.555 0-4.914-.087-.6-.465-1.038-1.037-1.206-.191-.056-.59-.063-3.28-.059-1.686.003-3.177.02-3.316.038z"/>
</svg>