<svg xmlns="http://www.w3.org/2000/svg" width="26" height="26" fill="currentColor" class="sym sym-users-up-solid" viewBox="0 0 26 26">
  <path d="M9.978 3.02a4.6 4.6 0 0 0-1.782.542l.024-.012a5 5 0 0 0-2.297 2.44l-.013.032a5 5 0 0 0-.397 1.963c0 .709.146 1.384.41 1.996l-.013-.033a5 5 0 0 0 2.282 2.458l.028.013c.757.387 1.412.544 2.276.544s1.518-.157 2.276-.544a5.1 5.1 0 0 0 2.295-2.435l.013-.033c.708-1.642.454-3.634-.641-5.03-.738-.94-1.897-1.645-3.02-1.84-.447-.077-1.063-.103-1.44-.06"/>
  <path d="M16.046 3.403a.94.94 0 0 0-.528.841c0 .47.19.726.755 1.017.468.24.845.542 1.106.887.69.915.816 2.112.326 3.139-.294.617-.755 1.075-1.431 1.423-.59.303-.789.593-.747 1.098.057.673.75 1.044 1.433.766 1.065-.434 2.01-1.343 2.54-2.446.531-1.105.626-2.446.256-3.655-.27-.886-.914-1.816-1.647-2.386-.927-.719-1.566-.93-2.062-.684zM7.055 15.035c-1.081.048-1.592.16-2.288.502-1.338.659-2.318 1.909-2.616 3.344-.093.453-.177 1.909-.144 2.524.03.537.123.8.385 1.088q.355.388.909.468c.167.024 1.997.039 4.694.039s4.529-.015 4.695-.039c.356-.052.666-.207.89-.447.21-.225.32-.46.377-.806.053-.328.053-5.041 0-5.414a1.42 1.42 0 0 0-.44-.879h-.001c-.244-.229-.46-.329-.822-.382-.318-.046-4.598-.045-5.639.002m12.585.025c-.152.054-.43.313-1.811 1.69-1.712 1.706-1.785 1.793-1.82 2.17-.054.555.427 1.08.99 1.08.365 0 .497-.089 1.272-.856l.73-.722v1.862c0 2.112.001 2.12.3 2.419a.983.983 0 0 0 1.403 0c.297-.298.299-.307.299-2.42v-1.861l.73.722c.775.767.907.855 1.271.855.564 0 1.045-.523.992-1.08-.036-.375-.109-.463-1.82-2.169-1.46-1.455-1.653-1.633-1.83-1.692a1.04 1.04 0 0 0-.71.005l.008-.002z"/>
</svg>