<svg xmlns="http://www.w3.org/2000/svg" width="26" height="26" fill="currentColor" class="sym sym-users-x" viewBox="0 0 26 26">
  <path d="M22.62 22.99a.9.9 0 0 1-.632-.262l-1.834-1.878-1.834 1.877a.873.873 0 0 1-1.253 0 .923.923 0 0 1 0-1.282l1.834-1.878-1.834-1.877a.923.923 0 0 1 0-1.283.87.87 0 0 1 1.253 0l1.834 1.878 1.834-1.878a.87.87 0 0 1 1.253 0 .923.923 0 0 1 0 1.283l-1.834 1.877 1.834 1.878a.923.923 0 0 1 0 1.282.87.87 0 0 1-.631.263zm-19.232 0a.895.895 0 0 1-.888-.909c0-1.999 0-2.998.365-3.917.493-1.201 1.44-2.18 2.614-2.675.887-.374 1.873-.374 3.826-.374h3.945c.493 0 .888.404.888.909a.895.895 0 0 1-.888.908H9.305c-1.716 0-2.584 0-3.146.243a3.14 3.14 0 0 0-1.657 1.696c-.227.575-.227 1.454-.227 3.22a.895.895 0 0 1-.887.909zm7.397-10.096c-2.663 0-4.833-2.221-4.833-4.947S8.122 3 10.785 3c2.662 0 4.832 2.221 4.832 4.947s-2.17 4.947-4.832 4.947m0-8.077c-1.687 0-3.058 1.404-3.058 3.13s1.371 3.13 3.058 3.13 3.057-1.404 3.057-3.13-1.37-3.13-3.057-3.13m5.917 7.784a.87.87 0 0 1-.818-.565.91.91 0 0 1 .493-1.181c1.164-.485 1.913-1.616 1.913-2.908s-.75-2.423-1.913-2.908a.923.923 0 0 1-.493-1.18.89.89 0 0 1 1.154-.506c1.834.758 3.017 2.565 3.017 4.584 0 2.02-1.183 3.826-3.017 4.583a1 1 0 0 1-.336.071z"/>
</svg>