<svg xmlns="http://www.w3.org/2000/svg" width="26" height="26" fill="currentColor" class="sym sym-user-left-solid" viewBox="0 0 26 26">
  <path d="M10.5 3.02a5.52 5.52 0 0 0-3.874 2.146l-.01.013c-.318.422-.74 1.261-.878 1.747a5.73 5.73 0 0 0 .01 3.164l-.01-.041c.138.486.56 1.324.879 1.746a5.7 5.7 0 0 0 2.69 1.92l.04.012a5.7 5.7 0 0 0 1.654.242c.59 0 1.16-.089 1.696-.252l-.042.01c1.122-.354 2.25-1.194 2.879-2.139 1.268-1.912 1.268-4.29 0-6.201-.484-.729-1.392-1.499-2.216-1.88A5.6 5.6 0 0 0 10.975 3q-.25 0-.495.021zm9.145 12.043c-.153.054-.432.313-1.812 1.69-1.146 1.14-1.658 1.678-1.718 1.803a1.02 1.02 0 0 0-.052.771c.066.199.181.326 1.696 1.847 1.704 1.713 1.791 1.786 2.168 1.822.555.053 1.078-.429 1.078-.993 0-.364-.087-.496-.854-1.271L19.429 20h1.86c2.112 0 2.12 0 2.418-.3a.984.984 0 0 0 0-1.404c-.298-.297-.306-.299-2.417-.299h-1.86l.72-.73c.768-.776.855-.908.855-1.273 0-.687-.694-1.162-1.36-.933zm-13.317.496a4.9 4.9 0 0 0-2.723 1.3l.003-.002a4.9 4.9 0 0 0-1.279 1.902l-.01.034c-.169.46-.237.791-.287 1.384-.065.784-.029 1.585.087 1.886.129.333.489.694.82.819l.24.09 4.618.015c2.888.009 4.723 0 4.895-.024.695-.1 1.169-.571 1.27-1.266.05-.358.051-4.554 0-4.913-.087-.6-.465-1.038-1.037-1.206-.192-.056-.59-.063-3.282-.059-1.685.003-3.177.02-3.315.038z"/>
</svg>