<svg xmlns="http://www.w3.org/2000/svg" width="26" height="26" fill="currentColor" class="sym sym-users-plus" viewBox="0 0 26 26">
  <path d="M20.164 23.085a.905.905 0 0 1-.908-.909v-2.12h-2.12a.905.905 0 0 1-.908-.909c0-.504.404-.908.908-.908h2.12v-2.12c0-.505.403-.909.908-.909s.908.404.908.909v2.12h2.12c.504 0 .908.404.908.909a.905.905 0 0 1-.909.908h-2.119v2.12a.905.905 0 0 1-.908.909m-17.156 0a.905.905 0 0 1-.908-.909c0-1.999 0-2.998.373-3.917a5 5 0 0 1 2.674-2.675c.909-.374 1.918-.374 3.916-.374H13.1c.504 0 .908.404.908.909a.905.905 0 0 1-.908.908H9.063c-1.756 0-2.644 0-3.22.243a3.17 3.17 0 0 0-1.695 1.696c-.232.575-.232 1.454-.232 3.22a.905.905 0 0 1-.908.909zm7.569-10.096a4.954 4.954 0 0 1-4.945-4.947 4.954 4.954 0 0 1 4.945-4.947 4.954 4.954 0 0 1 4.945 4.947 4.954 4.954 0 0 1-4.945 4.947m0-8.077a3.13 3.13 0 0 0-3.129 3.13 3.13 3.13 0 0 0 3.129 3.13 3.13 3.13 0 0 0 3.128-3.13 3.13 3.13 0 0 0-3.128-3.13m6.055 7.784a.89.89 0 0 1-.838-.565.904.904 0 0 1 .505-1.181 3.12 3.12 0 0 0 1.957-2.908A3.12 3.12 0 0 0 16.3 5.134a.916.916 0 0 1-.505-1.18.915.915 0 0 1 1.18-.506 4.93 4.93 0 0 1 3.089 4.584 4.925 4.925 0 0 1-3.088 4.583 1 1 0 0 1-.343.071z"/>
</svg>