<svg xmlns="http://www.w3.org/2000/svg" width="26" height="26" fill="currentColor" class="sym sym-users-check-solid" viewBox="0 0 26 26">
  <path d="M9.954 3.021a5.07 5.07 0 0 0-3.013 1.464q-.399.39-.69.87l-.011.019a5.3 5.3 0 0 0-.596 1.41l-.008.038c-.097.384-.108.496-.108 1.166s.01.783.108 1.166c.361 1.44 1.285 2.61 2.58 3.272.759.388 1.415.544 2.28.544s1.52-.156 2.278-.544c1.343-.685 2.294-1.934 2.617-3.439.102-.472.102-1.527 0-2-.2-.953-.65-1.78-1.28-2.435l.001.002c-.738-.773-1.712-1.306-2.694-1.475a6 6 0 0 0-1.486-.057z"/>
  <path d="M16.052 3.404a.94.94 0 0 0-.528.841c0 .471.19.727.755 1.018.469.24.847.543 1.108.888.691.916.817 2.114.326 3.141-.294.618-.755 1.076-1.433 1.424-.256.133-.436.255-.527.362a.984.984 0 0 0 .227 1.458l.004.002c.177.109.23.12.52.12.3 0 .35-.012.664-.167 1.469-.726 2.448-2.01 2.747-3.605.088-.468.088-1.323 0-1.788-.227-1.211-.872-2.292-1.797-3.01-.928-.72-1.568-.932-2.065-.684zM6.829 15.045c-.953.06-1.474.19-2.131.526-1.157.592-2.052 1.63-2.439 2.83-.213.664-.253 1.025-.256 2.314L2 21.877l.124.261c.157.33.406.58.738.738l.26.124h9.737l.244-.113c.31-.144.619-.454.766-.77l.112-.24.012-2.705c.012-2.864.006-3.017-.172-3.367-.108-.213-.42-.52-.647-.636a1.7 1.7 0 0 0-.383-.121l-.01-.002c-.269-.05-5.184-.052-5.952-.003zm15.968.997c-.101.03-.187.064-.27.106l.009-.004c-.077.039-.902.831-1.832 1.758l-1.693 1.686-.691-.683c-.79-.781-.925-.87-1.314-.87-.397 0-.704.19-.892.553-.118.23-.115.621.008.863.127.247 2.2 2.322 2.448 2.448.25.126.631.127.882 0 .252-.128 4.322-4.2 4.45-4.452a1.01 1.01 0 0 0-.189-1.138c-.228-.227-.626-.345-.916-.27z"/>
</svg>