<svg xmlns="http://www.w3.org/2000/svg" width="26" height="26" fill="currentColor" class="sym sym-user" viewBox="0 0 26 26">
  <path d="M21.09 23a.906.906 0 0 1-.91-.91c0-1.312 0-1.979-.132-2.423a3.12 3.12 0 0 0-2.093-2.091c-.445-.132-1.112-.131-2.427-.131h-5.056c-1.315 0-1.982 0-2.427.13a3.12 3.12 0 0 0-2.093 2.092c-.132.444-.132 1.1-.132 2.424a.905.905 0 0 1-.91.909.906.906 0 0 1-.91-.91c0-1.494 0-2.252.212-2.949a4.97 4.97 0 0 1 3.307-3.303c.708-.212 1.456-.212 2.953-.212h5.056c1.497 0 2.255 0 2.953.212a4.97 4.97 0 0 1 3.307 3.303c.212.708.212 1.455.212 2.95a.905.905 0 0 1-.91.909M13 13.91a5.46 5.46 0 0 1-5.46-5.455 5.46 5.46 0 0 1 10.92 0A5.46 5.46 0 0 1 13 13.909m0-9.092a3.643 3.643 0 0 0-3.64 3.637A3.643 3.643 0 0 0 13 12.09a3.643 3.643 0 0 0 3.64-3.636A3.643 3.643 0 0 0 13 4.818"/>
</svg>