<svg xmlns="http://www.w3.org/2000/svg" width="26" height="26" fill="currentColor" class="sym sym-variable-solid" viewBox="0 0 26 26">
  <path d="M6.302 5.033a.86.86 0 0 0-.445.3c-.071.1-.364.713-.547 1.145a16.4 16.4 0 0 0-1.084 3.718l-.014.101c-.498 3.14-.114 6.362 1.098 9.215.21.496.48 1.052.563 1.163.34.446 1.051.403 1.342-.08.08-.133.092-.186.09-.394-.002-.224-.015-.265-.186-.612-.786-1.59-1.306-3.514-1.466-5.424a22 22 0 0 1 0-2.338c.16-1.905.665-3.78 1.462-5.424.112-.233.187-.432.197-.532a.79.79 0 0 0-.795-.866.8.8 0 0 0-.22.03zm12.948-.015c-.27.086-.49.297-.557.533-.07.245-.031.442.178.88a15.2 15.2 0 0 1 1.432 5.22c.054.557.054 2.133 0 2.69a15.2 15.2 0 0 1-1.432 5.219c-.133.279-.194.451-.205.569a.8.8 0 0 0 .806.871q.13 0 .249-.038l-.006.002c.248-.073.413-.257.636-.715a17 17 0 0 0 1.402-4.371c.599-3.418.099-7.04-1.395-10.119-.204-.423-.322-.573-.532-.679-.14-.07-.445-.103-.576-.062m-9.222 4.535a.72.72 0 0 0-.398.312.76.76 0 0 0-.04.802l-.001-.005c.076.15.302.339.452.38.065.017.406.032.758.032.463 0 .656.011.694.04.059.045.664 2.085.638 2.147-.02.045-1.776 2.064-1.95 2.242-.182.185-.4.274-.744.305-.42.039-.633.162-.788.454-.086.163-.08.52.01.691a.85.85 0 0 0 .449.382c.123.046.211.053.486.038.43-.024.65-.081 1.056-.276.43-.207.598-.36 1.384-1.261.537-.615.648-.727.67-.676.014.034.094.298.177.59.086.298.204.626.271.752.22.415.634.728 1.101.834.176.04.383.048 1.015.04l.793-.01.16-.096a.84.84 0 0 0 .26-.254c.089-.14.099-.183.099-.418s-.01-.276-.1-.417a.85.85 0 0 0-.255-.252l-.003-.002-.16-.096-.73-.017a10 10 0 0 1-.746-.031c-.058-.15-.166-.498-.267-.848l-.047-.193-.311-1.061c-.013-.037 1.64-1.959 1.956-2.276.211-.211.405-.293.779-.326.363-.034.552-.133.702-.369a.8.8 0 0 0 .037-.768c-.147-.294-.41-.435-.807-.435-.643 0-1.349.278-1.8.712a22 22 0 0 0-.784.868c-.333.382-.616.684-.628.671a6 6 0 0 1-.179-.57 6 6 0 0 0-.258-.752c-.21-.43-.714-.808-1.195-.896-.277-.05-1.599-.04-1.756.015z"/>
</svg>