<svg xmlns="http://www.w3.org/2000/svg" width="26" height="26" fill="currentColor" class="sym sym-variable" viewBox="0 0 26 26">
  <path d="M19.393 21a1 1 0 0 1-.405-.089.88.88 0 0 1-.414-1.195 14.7 14.7 0 0 0 1.597-6.714c0-2.36-.536-4.621-1.597-6.715a.88.88 0 0 1 .414-1.195.92.92 0 0 1 1.223.405A16.5 16.5 0 0 1 22 13.002a16.4 16.4 0 0 1-1.789 7.504.92.92 0 0 1-.819.494M6.607 21a.92.92 0 0 1-.82-.494A16.5 16.5 0 0 1 4 13.002c0-2.637.596-5.164 1.789-7.505a.92.92 0 0 1 1.223-.405.88.88 0 0 1 .414 1.195 14.7 14.7 0 0 0-1.597 6.715c0 2.36.536 4.621 1.597 6.714a.88.88 0 0 1-.414 1.195 1 1 0 0 1-.404.089m9.166-3.555h-1.132a1.82 1.82 0 0 1-1.748-1.293l-.253-.87-1.071 1.225a2.74 2.74 0 0 1-2.062.938c-.505 0-.95-.395-.95-.888 0-.494.374-.89.87-.89.333 0 .585-.108.757-.305l1.86-2.133-.586-2.004h-1.122a.896.896 0 0 1-.91-.89c0-.493.405-.888.91-.888h1.132c.808 0 1.526.533 1.748 1.294l.253.869 1.071-1.225a2.74 2.74 0 0 1 2.062-.928c.505 0 .95.395.95.889a.87.87 0 0 1-.87.888h-.07a.9.9 0 0 0-.687.306l-1.86 2.123.586 2.005h1.122c.506 0 .91.395.91.889a.896.896 0 0 1-.91.888"/>
</svg>