<svg xmlns="http://www.w3.org/2000/svg" width="26" height="26" fill="currentColor" class="sym sym-video-recorder" viewBox="0 0 26 26">
  <path d="M20.695 17.663h-.111c-.486-.043-.79-.366-1.235-.85l-2.944-3.123a1 1 0 0 1-.263-.69c0-.258.1-.506.263-.689l2.944-3.134c.455-.484.759-.807 1.245-.85.414-.044.83.15 1.102.506.304.366.304.829.304 1.518v5.288c0 .689 0 1.152-.334 1.55a1.27 1.27 0 0 1-.981.474zM18.337 13l1.852 1.971v-3.93l-1.852 1.97z"/>
  <path d="M13.167 20H8.796c-1.457 0-2.266 0-2.975-.388a3.44 3.44 0 0 1-1.457-1.55C4 17.297 4 16.446 4 14.895v-3.79c0-1.551 0-2.402.364-3.167a3.44 3.44 0 0 1 1.457-1.55C6.53 6 7.34 6 8.796 6h4.371c1.457 0 2.266 0 2.975.388a3.5 3.5 0 0 1 1.457 1.55c.364.765.364 1.616.364 3.167v3.79c0 1.551 0 2.402-.364 3.167a3.44 3.44 0 0 1-1.457 1.55c-.709.388-1.518.388-2.975.388M8.796 7.938c-1.133 0-1.821 0-2.145.173a1.63 1.63 0 0 0-.668.71c-.162.345-.162 1.034-.162 2.284v3.79c0 1.25 0 1.939.162 2.284.142.301.385.549.668.7.324.172 1.012.172 2.145.172h4.371c1.133 0 1.821 0 2.145-.173.283-.15.526-.409.668-.71.162-.345.162-1.034.162-2.283v-3.791c0-1.25 0-1.939-.162-2.283a1.55 1.55 0 0 0-.668-.7c-.324-.173-1.012-.173-2.145-.173z"/>
</svg>