<svg xmlns="http://www.w3.org/2000/svg" width="26" height="26" fill="currentColor" class="sym sym-video-recorder-off-solid" viewBox="0 0 26 26">
  <path d="M4.634 4.015a.86.86 0 0 0-.547.44l-.002.005c-.098.187-.094.508.007.705.047.093.358.433.838.918l.763.77-.243.16c-.615.403-1.122 1.1-1.29 1.776-.13.528-.138.71-.155 3.67-.024 4.447.013 4.816.553 5.626.475.712 1.197 1.203 1.991 1.355.47.091 1.375.114 4.387.115 3.089 0 3.988-.024 4.475-.126a3.03 3.03 0 0 0 1.53-.843v-.001l.231-.235 1.752 1.747c1.207 1.204 1.797 1.77 1.898 1.822.296.15.69.086.93-.154a.83.83 0 0 0 .154-.93c-.101-.201-16.52-16.649-16.718-16.746-.155-.077-.41-.111-.553-.074zm10.737 7.872 5.434 5.444.158-.017c.49-.055.904-.466 1.004-1 .044-.24.044-6.39 0-6.63a1.22 1.22 0 0 0-.68-.903l-.007-.003c-.158-.078-.22-.09-.493-.09-.287 0-.328.009-.54.113-.203.1-.34.223-1.279 1.157l-1.05 1.044-.02-.78c-.029-1.173-.135-1.66-.485-2.226-.206-.331-.613-.762-.906-.96-.3-.204-.65-.363-1.024-.456l-.022-.005c-.487-.107-1.103-.13-3.38-.13l-2.144-.001z"/>
</svg>