<svg xmlns="http://www.w3.org/2000/svg" width="26" height="26" fill="currentColor" class="sym sym-video-recorder-solid" viewBox="0 0 26 26">
  <path d="M7.142 6.03c-.716.053-1.232.23-1.741.596-.444.32-.931.958-1.127 1.471-.115.304-.2.725-.24 1.187-.045.542-.045 6.884 0 7.426.065.753.196 1.195.508 1.707.239.391.574.75.94 1.006.27.2.587.353.928.436l.017.003c.52.134 1.026.148 4.839.134 4.015-.015 3.932-.01 4.54-.235.805-.296 1.6-1.147 1.877-2.008.145-.451.196-.866.216-1.787l.02-.833 1.05 1.116c.94.997 1.075 1.129 1.28 1.236.21.11.251.12.54.12.268 0 .335-.013.49-.092.37-.19.61-.529.688-.972.044-.257.044-6.828 0-7.085a1.3 1.3 0 0 0-.68-.965l-.007-.003c-.157-.083-.22-.095-.492-.095-.288 0-.329.008-.54.12-.204.107-.34.238-1.28 1.236l-1.05 1.115-.02-.832c-.028-1.254-.134-1.775-.485-2.38-.205-.353-.612-.814-.905-1.025-.532-.38-1.011-.54-1.816-.598-.548-.04-6.999-.038-7.552.002z"/>
</svg>