<svg xmlns="http://www.w3.org/2000/svg" width="26" height="26" fill="currentColor" class="sym sym-video-recorder-off" viewBox="0 0 26 26">
  <path d="M21.07 22a.94.94 0 0 1-.646-.263l-3.302-3.308a3.37 3.37 0 0 1-2.515 1.153H7.335a3.34 3.34 0 0 1-3.332-3.338V9.769c0-1.214.646-2.276 1.615-2.863L4.265 5.55a.907.907 0 1 1 1.283-1.285l12.008 12.03s.02.02.03.02l4.131 4.137a.91.91 0 0 1 0 1.285.9.9 0 0 1-.646.263M7.003 8.282a1.52 1.52 0 0 0-1.181 1.477v6.474c0 .84.676 1.518 1.514 1.518h7.272c.485 0 .94-.243 1.222-.617L6.992 8.282zm13.675 9.105h-.111c-.485-.03-.778-.334-1.232-.8l-2.94-2.943-.02-.02a.9.9 0 0 1-.242-.618v-1.78c0-1.174 0-1.821-.161-2.145a1.5 1.5 0 0 0-.667-.658c-.323-.161-1.01-.161-2.141-.161H10.98a.906.906 0 0 1-.909-.91c0-.507.404-.911.91-.911h2.18c1.455 0 2.263 0 2.97.364.616.313 1.141.84 1.454 1.457.324.647.354 1.355.364 2.56l1.394-1.387c.454-.455.757-.759 1.242-.8.414-.04.828.143 1.101.466.313.344.313.78.313 1.427v4.967c0 .647 0 1.082-.333 1.457a1.3 1.3 0 0 1-.98.445zm-2.353-4.38 1.848 1.85v-3.692l-1.848 1.851z"/>
</svg>