<svg xmlns="http://www.w3.org/2000/svg" width="26" height="26" fill="currentColor" class="sym sym-voicemail-solid" viewBox="0 0 26 26">
  <path d="M7.542 9.034a4.1 4.1 0 0 0-1.27.388l.023-.01a4.03 4.03 0 0 0-2.25 2.873c-.06.295-.06 1.148 0 1.443a4.08 4.08 0 0 0 2.776 3.09c.606.191.275.182 6.212.182h5.46l.354-.087c.852-.213 1.5-.584 2.082-1.195.394-.41.699-.909.882-1.46l.008-.028c.15-.453.182-.682.181-1.256-.002-.464-.012-.572-.09-.875a3.95 3.95 0 0 0-.772-1.57 4.15 4.15 0 0 0-3.604-1.507 3.9 3.9 0 0 0-1.423.4l.022-.01c-1.027.492-1.764 1.319-2.11 2.363-.15.45-.186.69-.186 1.231 0 .294.02.589.045.722a4.3 4.3 0 0 0 .62 1.484l-.01-.017.148.217h-3.286l.08-.104c.26-.341.48-.815.624-1.339.095-.347.101-.405.103-.947.002-.524-.007-.609-.086-.923a4 4 0 0 0-.774-1.57 4.16 4.16 0 0 0-3.78-1.494l.02-.003z"/>
</svg>