<svg xmlns="http://www.w3.org/2000/svg" width="26" height="26" fill="currentColor" class="sym sym-volume-minus-solid" viewBox="0 0 26 26">
  <path d="M11.369 5.077a2 2 0 0 0-.303.167l.008-.005c-.062.044-.834.838-1.717 1.764L7.75 8.688 6.54 8.7c-1.161.012-1.221.015-1.422.09a1.7 1.7 0 0 0-.936.846c-.177.382-.181.433-.181 3.372 0 2.95.002 2.986.185 3.382.114.247.465.617.7.738.336.172.535.194 1.75.194l1.113.001 1.64 1.721c1.508 1.584 1.658 1.73 1.868 1.839s.253.117.54.117c.27 0 .337-.012.493-.09.37-.187.61-.522.688-.959.044-.256.044-13.631 0-13.887a1.28 1.28 0 0 0-.678-.95l-.007-.003c-.259-.134-.665-.148-.923-.034m3.918 7.1c-.616.16-.834.962-.39 1.43.052.055.153.132.225.172l.132.075h6.16l.132-.075c.3-.168.453-.43.453-.771a.84.84 0 0 0-.453-.772l-.132-.074-3.014-.005c-1.658-.004-3.06.006-3.113.02"/>
</svg>