<svg xmlns="http://www.w3.org/2000/svg" width="26" height="26" fill="currentColor" class="sym sym-volume-plus-solid" viewBox="0 0 26 26">
  <path d="M11.368 5.077a2 2 0 0 0-.302.167l.007-.005c-.061.044-.834.838-1.716 1.764L7.75 8.688 6.539 8.7c-1.161.012-1.222.015-1.422.09a1.7 1.7 0 0 0-.936.846c-.177.382-.181.433-.181 3.372 0 2.95.002 2.986.185 3.382.114.247.465.617.7.738.336.172.535.194 1.75.194l1.112.001 1.64 1.721c1.509 1.584 1.658 1.73 1.869 1.839.21.109.253.117.54.117.27 0 .337-.012.492-.09.37-.187.61-.522.688-.959.045-.256.045-13.631 0-13.887a1.28 1.28 0 0 0-.677-.95l-.008-.003a1.2 1.2 0 0 0-.923-.034m6.682 4.11a.85.85 0 0 0-.486.54c-.018.069-.032.623-.032 1.268v1.146l-1.14.01c-1.091.01-1.143.014-1.27.085a.84.84 0 0 0-.452.772c0 .342.153.603.453.771.126.07.178.075 1.269.085l1.137.011.01 1.214c.01 1.338.006 1.31.225 1.54.174.185.282.227.571.227.29 0 .396-.042.571-.226.219-.23.215-.203.226-1.54l.01-1.215 1.136-.01c1.09-.01 1.143-.014 1.27-.086.3-.168.452-.43.452-.771a.84.84 0 0 0-.453-.772c-.126-.07-.178-.075-1.269-.084l-1.136-.011-.01-1.215c-.01-1.071-.017-1.228-.067-1.324a1.05 1.05 0 0 0-.36-.378l-.004-.002c-.138-.076-.497-.094-.65-.035"/>
</svg>