<svg xmlns="http://www.w3.org/2000/svg" width="26" height="26" fill="currentColor" class="sym sym-volume-max-solid" viewBox="0 0 26 26">
  <path d="M11.534 5.01c-.379.1-.535.241-2.212 2.002L7.734 8.679l-1.179.017c-.871.012-1.227.03-1.36.066a1.69 1.69 0 0 0-1.148 1.242l-.003.011C4.01 10.18 4 10.796 4 13.021c0 2.569.005 2.817.058 3.02.147.584.572 1.037 1.112 1.195l.011.003c.16.047.408.06 1.373.073l1.18.016 1.62 1.7c1.476 1.545 1.644 1.711 1.868 1.835.233.13.26.137.54.137.263 0 .317-.011.508-.107.337-.17.536-.415.645-.79.057-.198.06-.531.06-7.1 0-6.568-.003-6.901-.06-7.099-.153-.532-.56-.87-1.077-.899a1.6 1.6 0 0 0-.312.005zm7.542 1.134a.845.845 0 0 0-.55.803v.012c0 .237.047.347.352.834a9.9 9.9 0 0 1 1.282 3.225c.138.707.18 1.176.18 1.986s-.042 1.28-.18 1.987a9.9 9.9 0 0 1-1.282 3.225c-.302.482-.351.598-.351.826 0 .225.06.404.189.562a.775.775 0 0 0 1.094.14l-.002.002c.278-.209.968-1.408 1.325-2.303 1.156-2.903 1.156-5.974 0-8.878-.352-.883-1.053-2.107-1.318-2.297-.231-.168-.503-.213-.74-.124m-3.217 2.58a.85.85 0 0 0-.491.392c-.088.15-.099.2-.099.433 0 .26.003.27.175.555.562.942.824 1.862.824 2.9 0 1.028-.23 1.864-.777 2.808l-.222.384v.263c0 .233.012.283.099.433.145.248.401.41.693.41a.78.78 0 0 0 .472-.159l-.003.002c.247-.188.756-1.124.98-1.804a7 7 0 0 0 .37-2.337c0-.87-.107-1.55-.368-2.333-.191-.571-.64-1.453-.878-1.722-.17-.193-.513-.292-.775-.225"/>
</svg>