<svg xmlns="http://www.w3.org/2000/svg" width="26" height="26" fill="currentColor" class="sym sym-volume-x" viewBox="0 0 26 26">
  <path d="M11.79 21h-.101c-.486-.043-.79-.35-1.245-.83l-2.56-2.689a2 2 0 0 0-.151-.148c.04.032-.03.032-.121.032H6.205c-.536 0-.9 0-1.264-.202a1.77 1.77 0 0 1-.749-.787C4 15.993 4 15.611 4 15.047v-4.082c0-.563 0-.946.182-1.328a1.72 1.72 0 0 1 .749-.787c.364-.202.728-.202 1.264-.202h1.619c-.04 0 0-.043.05-.106l2.57-2.7c.455-.479.759-.798 1.245-.84.424-.021.83.149 1.102.478.314.393.314.84.314 1.51v12.022c0 .68 0 1.127-.314 1.51A1.29 1.29 0 0 1 11.78 21zm-5.585-5.56h1.407c.232 0 .404 0 .597.043.182.053.354.117.505.223.172.107.294.234.456.404l2.124 2.233V7.659L9.18 9.881c-.172.18-.294.308-.466.415a1.7 1.7 0 0 1-.485.212c-.213.053-.375.053-.607.053H5.83v4.89h.385zm14.892 1.063a.92.92 0 0 1-.647-.276l-1.78-1.87-1.781 1.87a.88.88 0 0 1-1.285 0 .99.99 0 0 1 0-1.35l1.78-1.87-1.78-1.872a.99.99 0 0 1 0-1.35.88.88 0 0 1 1.285 0l1.78 1.871 1.78-1.87a.88.88 0 0 1 1.285 0 .99.99 0 0 1 0 1.35l-1.78 1.87 1.78 1.871a.99.99 0 0 1 0 1.35.88.88 0 0 1-.647.276z"/>
</svg>