<svg xmlns="http://www.w3.org/2000/svg" width="26" height="26" fill="currentColor" class="sym sym-volume-min-solid" viewBox="0 0 26 26">
  <path d="M13.639 5.037c-.401.108-.604.254-2.684 1.94l-2.1 1.703-1.547.016c-.953.01-1.62.031-1.735.056-.527.111-1.068.453-1.315.83C4 9.975 4 9.982 4 13.004s0 3.029.258 3.422c.247.378.79.72 1.315.829.113.024.795.046 1.735.056l1.548.018 2.12 1.72c1.952 1.58 2.144 1.727 2.417 1.835.268.106.33.117.657.116.481-.002.788-.099 1.083-.34.248-.202.376-.405.442-.694.065-.285.065-13.637 0-13.921-.139-.613-.684-1.008-1.432-1.04a2 2 0 0 0-.515.035l.01-.002zm5.662 3.694c-.263.068-.52.241-.627.422-.201.337-.155.63.16 1.007.392.47.762 1.204.93 1.842.06.229.076.45.076 1.002 0 .553-.016.773-.076 1.002a5 5 0 0 1-.926 1.835l.017-.022c-.09.107-.172.23-.242.36l-.007.015c-.283.652.547 1.313 1.351 1.08.38-.112.68-.423 1.16-1.213A5.8 5.8 0 0 0 22 12.996c0-.769-.154-1.508-.44-2.2l.018.05c-.297-.733-.988-1.77-1.315-1.973a1.2 1.2 0 0 0-.644-.182q-.17 0-.325.042z"/>
</svg>