<svg xmlns="http://www.w3.org/2000/svg" width="26" height="26" fill="currentColor" class="sym sym-volume-max" viewBox="0 0 26 26">
  <path d="M11.782 21h-.1c-.486-.043-.79-.35-1.244-.828l-2.567-2.696a2 2 0 0 0-.152-.15c.04.033-.03.033-.121.033H6.193c-.536 0-.9 0-1.263-.202a1.74 1.74 0 0 1-.748-.796C4 15.979 4 15.607 4 15.034v-4.077c0-.573 0-.945.192-1.327a1.72 1.72 0 0 1 .748-.785c.364-.202.728-.202 1.263-.202H7.82c-.06 0 0-.042.05-.096l2.578-2.707c.455-.477.758-.796 1.243-.838.435-.021.829.148 1.102.477.313.393.313.84.313 1.508v12.007c0 .68 0 1.125-.313 1.507a1.29 1.29 0 0 1-1 .478zm-5.579-5.552h1.405c.233 0 .404 0 .596.053s.354.117.506.223c.161.106.283.223.444.393l2.123 2.229V7.677L9.165 9.896c-.172.18-.294.308-.465.414-.142.095-.314.17-.486.212-.212.053-.373.053-.606.053H5.82v4.884h.384zm13.058 4.459a.88.88 0 0 1-.526-.18.984.984 0 0 1-.202-1.338c1.082-1.572 1.648-3.44 1.648-5.383s-.566-3.81-1.648-5.382c-.293-.425-.202-1.03.202-1.338a.883.883 0 0 1 1.274.223C21.313 8.41 22 10.66 22 13.006s-.687 4.597-1.991 6.497a.89.89 0 0 1-.738.404zm-3.234-2.548a.84.84 0 0 1-.516-.17.974.974 0 0 1-.222-1.327 5.15 5.15 0 0 0 .85-2.856c0-1.03-.294-2.017-.85-2.856-.283-.435-.182-1.03.223-1.327a.88.88 0 0 1 1.263.234 7.1 7.1 0 0 1 1.182 3.939 7.04 7.04 0 0 1-1.182 3.938.9.9 0 0 1-.748.414z"/>
</svg>