<svg xmlns="http://www.w3.org/2000/svg" width="26" height="26" fill="currentColor" class="sym sym-volume-x-solid" viewBox="0 0 26 26">
  <path d="M11.366 5.077a2 2 0 0 0-.302.167l.007-.005c-.061.044-.834.838-1.716 1.764L7.75 8.688 6.538 8.7c-1.16.012-1.22.015-1.421.09a1.7 1.7 0 0 0-.936.846c-.177.382-.181.433-.181 3.372 0 2.95.002 2.986.185 3.382.113.247.465.617.7.738.336.172.535.194 1.75.194l1.111.001 1.64 1.721c1.508 1.584 1.657 1.73 1.867 1.839.212.109.253.117.54.117.27 0 .337-.012.493-.09.37-.187.61-.522.687-.959.045-.256.045-13.631 0-13.887a1.28 1.28 0 0 0-.677-.95l-.007-.003c-.259-.134-.665-.148-.923-.034m4.736 4.51a.87.87 0 0 0-.547.463l-.002.005c-.098.198-.094.535.006.743.05.102.413.512 1.046 1.183l.97 1.027-.97 1.027c-.633.67-.995 1.08-1.046 1.183a.91.91 0 0 0 .155.98c.24.251.633.32.93.162.096-.052.485-.434 1.121-1.102l.974-1.022.975 1.022c.636.668 1.025 1.049 1.122 1.102.295.159.69.09.93-.162a.91.91 0 0 0 .154-.98c-.05-.102-.412-.512-1.046-1.183l-.969-1.027.97-1.027c.633-.67.994-1.081 1.045-1.183a.9.9 0 0 0-.155-.98.79.79 0 0 0-.934-.16l.005-.003c-.096.053-.485.434-1.121 1.102l-.975 1.022-.974-1.022c-.592-.62-1.028-1.05-1.11-1.093-.153-.082-.41-.118-.552-.078z"/>
</svg>