<svg xmlns="http://www.w3.org/2000/svg" width="26" height="26" fill="currentColor" class="sym sym-volume-min" viewBox="0 0 26 26">
  <path d="M14.068 20.967h-.122c-.526-.033-.87-.312-1.447-.78l-3.42-2.774c-.111-.09-.162-.14-.222-.172-.112-.025-.203-.017-.354-.017H6.63c-.698 0-1.123 0-1.548-.172-.385-.164-.678-.402-.87-.706C4 16.001 4 15.656 4 15.09v-4.202c0-.566 0-.911.212-1.256.193-.304.496-.55.87-.706.426-.18.85-.18 1.559-.18h2.185c.101-.05.152-.099.253-.181L12.5 5.79l.648.525-.638-.525c.597-.485.931-.756 1.467-.788.466-.025.911.123 1.215.41.344.337.344.714.344 1.404v12.377c0 .69 0 1.067-.344 1.396-.274.262-.678.41-1.103.41zM6.62 10.207c-.324 0-.658 0-.75.024-.01 0-.04.025-.05.058-.02.057-.02.328-.02.582v4.203c0 .262 0 .533.03.599 0 .008.04.033.071.05.06.007.395.007.719.007h1.871c.304 0 .506 0 .729.041q.303.062.577.198c.202.098.344.213.556.385l3.34 2.709V6.874l-3.34 2.709a3 3 0 0 1-.556.386q-.258.134-.577.197c-.233.04-.435.04-.739.04H6.61zm13.113 7c-.183 0-.365-.04-.517-.13-.414-.23-.515-.69-.222-1.026.779-.903 1.194-1.97 1.194-3.078 0-1.109-.415-2.176-1.194-3.078-.283-.337-.182-.797.223-1.026.414-.23.981-.148 1.264.18.992 1.158 1.518 2.512 1.518 3.924s-.526 2.766-1.518 3.923c-.172.205-.455.32-.748.32z"/>
</svg>