<svg xmlns="http://www.w3.org/2000/svg" width="26" height="26" fill="currentColor" class="sym sym-wallet-03" viewBox="0 0 26 26">
  <path d="M19.29 22H6.71A2.71 2.71 0 0 1 4 19.29V6.71A2.71 2.71 0 0 1 6.71 4H17.5c.506 0 .91.405.91.91 0 .506-.404.91-.91.91H6.71a.89.89 0 0 0-.89.89c0 .496.395.89.89.89h12.58A2.71 2.71 0 0 1 22 10.3v8.99A2.71 2.71 0 0 1 19.29 22M5.82 9.269V19.29c0 .495.395.89.89.89h12.58c.485 0 .89-.395.89-.89V10.3a.883.883 0 0 0-.89-.88H6.71q-.468 0-.89-.151m11.225 6.886A1.355 1.355 0 0 1 15.69 14.8c0-.748.607-1.365 1.355-1.365s1.355.617 1.355 1.365-.607 1.355-1.355 1.355"/>
</svg>