<svg xmlns="http://www.w3.org/2000/svg" width="26" height="26" fill="currentColor" class="sym sym-wallet-solid" viewBox="0 0 26 26">
  <path d="M4.9 4.009c-.895.075-1.485.327-2.017.86C2.266 5.486 2 6.246 2 7.37c0 .537.177.843.6 1.039l.18.084h20.44l.18-.084c.226-.103.43-.305.526-.517.135-.3.078-1.313-.11-1.91-.228-.729-.93-1.471-1.66-1.76-.57-.226-.069-.214-8.936-.22C8.73 3.997 4.987 4 4.9 4.008m-2.702 6.619c-.157.141-.197.316-.197.872 0 .531.039.72.176.858l.104.104 2.69.024c2.857.025 2.84.024 3.429.229.38.132.706.319 1.668.952.513.337 1.038.656 1.164.708.224.09.252.092 1.768.092s1.543 0 1.769-.093c.126-.05.648-.369 1.16-.705.956-.631 1.289-.82 1.67-.953.588-.204.574-.203 3.43-.229l2.69-.024.104-.104c.137-.138.176-.327.176-.859 0-.555-.04-.73-.197-.871l-.122-.11H2.32zm.541 3.936a.98.98 0 0 0-.654.557l-.002.006c-.057.123-.064.388-.06 2.145.003 2.14.02 2.36.213 2.874.26.69.947 1.377 1.637 1.639.602.228.13.216 9.126.216 9.006 0 8.523.012 9.133-.22.678-.256 1.373-.954 1.63-1.637.194-.51.21-.733.214-2.872.004-1.757-.004-2.022-.06-2.145a1.1 1.1 0 0 0-.446-.49l-.005-.003c-.164-.087-.18-.088-2.461-.1-1.506-.006-2.366.003-2.5.031-.325.068-.564.198-1.51.825-1.004.667-1.363.853-1.934 1.009l-.4.109h-1.62c-1.693.003-1.796-.006-2.36-.186-.42-.135-.764-.327-1.75-.977-.513-.337-1.035-.655-1.16-.706l-.23-.093-2.34-.006c-1.287-.003-2.395.006-2.461.024"/>
</svg>