<svg xmlns="http://www.w3.org/2000/svg" width="26" height="26" fill="currentColor" class="sym sym-wallet-02" viewBox="0 0 26 26">
  <path d="M17.917 22H8.086c-1.055 0-1.63 0-2.187-.293a2.6 2.6 0 0 1-1.123-1.173c-.283-.566-.283-1.163-.273-2.265v-6.804c0-.728 0-1.122.146-1.557a2.8 2.8 0 0 1 .625-1.011c.342-.334.732-.516 1.318-.799L14.11 4.51c.722-.354 1.2-.586 1.747-.485.44.08.85.354 1.113.738.303.455.303.98.303 1.84v2.164h.644c1.045 0 1.63 0 2.167.273a2.64 2.64 0 0 1 1.133 1.172c.283.577.283 1.173.283 2.265v5.793c0 1.092 0 1.699-.283 2.265-.234.495-.625.89-1.113 1.163-.557.293-1.142.293-2.197.293zM6.25 15.823v2.456c0 .728 0 1.254.088 1.436a.87.87 0 0 0 .371.384c.166.091.645.091 1.377.091h9.831c.732 0 1.21 0 1.386-.09a.83.83 0 0 0 .352-.365c.088-.182.088-.707.088-1.445v-5.794c0-.728 0-1.253-.088-1.435a.82.82 0 0 0-.361-.374c-.157-.081-.645-.081-1.377-.081H8.086c-.732 0-1.22 0-1.406.09a.87.87 0 0 0-.342.365c-.088.172-.088.697-.088 1.435v3.337zm3.115-7.047h6.15V6.612c0-.283 0-.586-.01-.758-.165.06-.429.192-.654.303L9.375 8.766zm7.449 7.957c-.723 0-1.299-.607-1.299-1.345s.586-1.355 1.299-1.355c.712 0 1.298.607 1.298 1.355s-.585 1.345-1.298 1.345"/>
</svg>