<svg xmlns="http://www.w3.org/2000/svg" width="26" height="26" fill="currentColor" class="sym sym-wallet-03-solid" viewBox="0 0 26 26">
  <path fill-rule="evenodd" d="M6.252 4.036c-.911.153-1.752.84-2.07 1.694-.19.503-.182.204-.182 7.261 0 7.188-.011 6.8.21 7.345a2.76 2.76 0 0 0 1.436 1.447l.017.006c.544.222.157.21 7.336.21 7.177 0 6.793.012 7.336-.209a2.8 2.8 0 0 0 1.448-1.438l.007-.017c.217-.535.21-.336.21-5.536 0-5.202.007-5-.21-5.537a2.7 2.7 0 0 0-1.308-1.376l-.016-.007c-.591-.285.095-.258-7.341-.28l-6.66-.019-.17-.084a.892.892 0 0 1-.227-1.428c.29-.29-.181-.27 6.031-.27 6.213 0 5.741.021 6.031-.269a.95.95 0 0 0 .27-.63.95.95 0 0 0-.27-.632c-.29-.29.192-.27-6.1-.264-3.081.002-5.682.016-5.779.033zm11.4 9.567c.963.475.987 1.872.04 2.375-1.099.585-2.312-.466-1.902-1.647.12-.345.392-.623.764-.779.178-.073.257-.085.533-.077.283.008.355.025.565.127"/>
</svg>