<svg xmlns="http://www.w3.org/2000/svg" width="26" height="26" fill="currentColor" class="sym sym-wallet-02-solid" viewBox="0 0 26 26">
  <path fill-rule="evenodd" d="M15.318 4.032a3 3 0 0 0-.497.155l.021-.008c-.406.16-8.82 4.191-9.078 4.35a2.54 2.54 0 0 0-1.226 1.893c-.05.374-.05 8.738 0 9.206.049.46.167.829.366 1.141.448.707 1.064 1.096 1.885 1.191.456.053 11.967.053 12.423 0 .444-.05.8-.173 1.101-.38.682-.464 1.058-1.103 1.15-1.953.05-.467.05-8.006 0-8.472a4 4 0 0 0-.126-.64l.007.028c-.15-.493-.548-1.016-1-1.317-.534-.354-.776-.405-2.08-.431l-1.01-.02-.012-1.66c-.012-1.619-.015-1.667-.09-1.907a2.3 2.3 0 0 0-.187-.425l.006.01a1.76 1.76 0 0 0-1.077-.75c-.25-.055-.315-.056-.576-.01m.232 3.275v1.478h-3.151c-1.732 0-3.144-.006-3.136-.013.018-.018 6.118-2.931 6.184-2.955.028-.01.063-.011.076-.003.015.008.027.68.027 1.493m1.793 6.886c.26.122.522.397.642.667.082.185.095.261.096.532.001.284-.01.342-.105.547a1.33 1.33 0 0 1-.617.644l-.007.004c-.197.097-.255.108-.527.108s-.331-.012-.527-.108a1.34 1.34 0 0 1-.622-.64l-.003-.008c-.094-.205-.106-.264-.105-.547 0-.272.013-.347.095-.528.171-.367.48-.641.854-.755l.01-.002c.219-.058.597-.017.816.086"/>
</svg>