<svg xmlns="http://www.w3.org/2000/svg" width="26" height="26" fill="currentColor" class="sym sym-wallet" viewBox="0 0 26 26">
  <path d="M19.862 22H6.138c-1.232 0-1.918 0-2.543-.323a3 3 0 0 1-1.272-1.274C2 19.767 2 19.09 2 17.856V8.154c0-1.233 0-1.92.313-2.547.282-.556.737-1 1.281-1.284C4.22 4 4.897 4 6.139 4h13.724c1.232 0 1.918 0 2.544.323.534.273.989.728 1.271 1.274C24 6.234 24 6.91 24 8.144v9.702c0 1.233 0 1.92-.313 2.547-.282.556-.736 1-1.282 1.284-.625.323-1.301.323-2.543.323M3.817 17.856c0 .92 0 1.486.12 1.718.102.202.273.374.485.475.242.122.797.122 1.716.122h13.724c.919 0 1.474 0 1.716-.122.212-.1.384-.282.495-.485.12-.232.12-.788.12-1.718V14.41H19.52c-.484 0-.736 0-.908.03s-.333.081-.505.152c-.151.07-.333.192-.767.485l-.595.384c-.474.313-.737.485-1.05.637a4.5 4.5 0 0 1-.898.273c-.333.06-.656.06-1.23.06h-1.1c-.586 0-.91 0-1.252-.07a4.3 4.3 0 0 1-.858-.253c-.343-.152-.606-.334-1.08-.647l-.585-.384c-.444-.293-.626-.425-.808-.495a1.8 1.8 0 0 0-.464-.132c-.191-.04-.444-.04-.928-.04H3.817zm0-5.255H6.49c.585 0 .908 0 1.251.07.273.051.565.132.858.253.343.152.606.334 1.08.647l.585.384c.444.293.626.425.807.495.142.061.303.112.465.132.191.04.444.04.928.04h1.1c.485 0 .737 0 .908-.03s.333-.081.505-.152c.151-.07.333-.192.767-.485l.595-.384c.475-.313.737-.485 1.05-.637.323-.131.616-.222.898-.273.333-.06.656-.06 1.231-.06h2.675v-2.224H3.827v2.224zm0-4.043h18.367v-.404c0-.92 0-1.486-.122-1.718a1.05 1.05 0 0 0-.484-.475c-.242-.122-.797-.122-1.716-.122H6.138c-.919 0-1.474 0-1.716.122a1.15 1.15 0 0 0-.494.485c-.122.232-.122.788-.122 1.718v.404z"/>
</svg>