<svg xmlns="http://www.w3.org/2000/svg" width="26" height="26" fill="currentColor" class="sym sym-webcam" viewBox="0 0 26 26">
  <path d="M18.056 24H7.944a.905.905 0 0 1-.91-.908c0-.505.404-.909.91-.909h4.146v-2.27C7.55 19.459 4 15.623 4 10.982 4 6.027 8.035 2 13 2s9 4.027 9 8.982c0 4.642-3.55 8.477-8.09 8.93v2.271h4.146c.506 0 .91.404.91.909a.905.905 0 0 1-.91.908M13 3.817c-3.964 0-7.18 3.209-7.18 7.165s3.226 7.165 7.18 7.165 7.18-3.21 7.18-7.165S16.954 3.817 13 3.817m0 11.1a3.945 3.945 0 0 1-3.944-3.935 3.945 3.945 0 0 1 7.888 0c0 2.17-1.77 3.936-3.944 3.936m0-6.055a2.12 2.12 0 0 0-2.124 2.12c0 1.17.951 2.119 2.124 2.119a2.12 2.12 0 0 0 2.124-2.12c0-1.17-.951-2.119-2.124-2.119"/>
</svg>