<svg xmlns="http://www.w3.org/2000/svg" width="26" height="26" fill="currentColor" class="sym sym-webcam-solid" viewBox="0 0 26 26">
  <path fill-rule="evenodd" d="M12.341 2.012c-1.314.136-2.249.391-3.28.895-2.72 1.346-4.638 3.952-4.998 7.036l-.004.042c-.438 3.755 1.59 7.444 5.002 9.096a8.8 8.8 0 0 0 2.56.81l.36.051.011 1.029.01 1.029H9.927c-2.25 0-2.263 0-2.552.222a1.2 1.2 0 0 0-.24.283l-.003.005c-.095.162-.111.234-.111.49 0 .255.016.328.11.489.062.103.171.234.244.289C7.68 24.01 7.39 24 13 24c5.786 0 5.384.02 5.703-.3a.984.984 0 0 0 0-1.403c-.3-.3-.282-.299-2.63-.299h-2.072l.01-1.029.01-1.028.36-.051a8.8 8.8 0 0 0 2.611-.835l-.05.024a9 9 0 0 0 4.12-4.092l.024-.053A8.8 8.8 0 0 0 22 10.992 8.9 8.9 0 0 0 21.063 7l.023.051a9 9 0 0 0-4.087-4.116l-.053-.023a8.5 8.5 0 0 0-2.577-.817l-.047-.006c-.409-.062-1.658-.11-1.98-.077zm1.416 6.076c.337.092.84.35 1.118.574.68.548 1.127 1.47 1.127 2.33 0 .782-.36 1.604-.948 2.174-1.083 1.048-2.83 1.103-3.973.124-.456-.39-.866-1.05-1.005-1.617-.069-.282-.07-1.076 0-1.361.08-.331.414-.992.628-1.241a3.2 3.2 0 0 1 1.78-1.037l.02-.004c.268-.049.99-.016 1.254.057"/>
</svg>