<svg xmlns="http://www.w3.org/2000/svg" width="26" height="26" fill="currentColor" class="sym sym-wifi" viewBox="0 0 26 26">
  <path d="M13.002 20.5c-.561 0-1.01-.465-1.01-1.047 0-.58.449-1.046 1.01-1.046.562 0 1.01.465 1.01 1.046 0 .582-.448 1.047-1.01 1.047m-3.121-3.174a1 1 0 0 1-.787-.396 1.063 1.063 0 0 1 .158-1.465 5.9 5.9 0 0 1 3.739-1.36c1.348 0 2.639.453 3.694 1.325.438.36.517 1.012.169 1.465a.98.98 0 0 1-1.415.175c-1.426-1.151-3.526-1.14-4.93.023-.19.151-.404.233-.628.233m9.151-3.07A.97.97 0 0 1 18.37 14a7.94 7.94 0 0 0-5.379-2.105 7.95 7.95 0 0 0-5.368 2.093.99.99 0 0 1-1.426-.093 1.074 1.074 0 0 1 .09-1.476 9.9 9.9 0 0 1 6.715-2.628c2.482 0 4.851.93 6.715 2.616.416.384.46 1.047.09 1.477a1.02 1.02 0 0 1-.763.36zm2.942-3.047a1 1 0 0 1-.685-.279c-2.268-2.151-5.221-3.337-8.298-3.337s-6.03 1.186-8.298 3.337a.986.986 0 0 1-1.427-.058 1.06 1.06 0 0 1 .068-1.477C5.973 6.884 9.409 5.5 13.002 5.5c3.594 0 7.018 1.384 9.669 3.895.415.384.438 1.047.067 1.477a1 1 0 0 1-.741.337z"/>
</svg>