<svg xmlns="http://www.w3.org/2000/svg" width="26" height="26" fill="currentColor" class="sym sym-wifi-solid" viewBox="0 0 26 26">
  <path d="M11.879 5.532A14.03 14.03 0 0 0 3.99 8.781l.028-.023c-.583.484-.853.75-.941.924-.102.201-.103.583-.001.781.15.297.437.476.757.476.252 0 .413-.083.735-.377a12.8 12.8 0 0 1 4.335-2.623l.091-.028A12 12 0 0 1 13 7.237c1.434 0 2.81.246 4.096.702l-.09-.028c1.606.55 3.11 1.453 4.45 2.672.301.275.463.356.71.356.32 0 .607-.18.758-.476.102-.198.101-.58 0-.78-.2-.394-1.708-1.596-2.828-2.254a13.76 13.76 0 0 0-5.993-1.896l-.048-.003a19 19 0 0 0-2.227.005z"/>
  <path d="M12.048 9.955c-.802.077-1.728.291-2.496.578-1.349.501-3.226 1.746-3.478 2.306-.081.18-.092.52-.022.696a.82.82 0 0 0 .756.53h.013c.28-.003.401-.06.716-.333 1.241-1.081 2.658-1.733 4.342-2 .54-.086 1.7-.086 2.24 0 1.683.267 3.103.92 4.343 2 .314.274.437.33.717.333h.042a.72.72 0 0 0 .567-.28l.002-.002a.77.77 0 0 0 .205-.529l-.001-.046v.002c0-.373-.097-.525-.605-.95-1.094-.918-2.5-1.657-3.825-2.01a10 10 0 0 0-2.613-.334q-.476 0-.942.042zm.135 4.434a5.9 5.9 0 0 0-2.873 1.277c-.379.32-.427.93-.103 1.282a.74.74 0 0 0 .618.269c.268 0 .323-.024.704-.309a3.98 3.98 0 0 1 2.47-.819c.904 0 1.662.244 2.416.78.369.262.519.33.725.331.345 0 .707-.28.799-.62.05-.188.027-.493-.05-.647-.16-.324-1.006-.893-1.791-1.207-.858-.341-1.974-.47-2.914-.337m.49 4.418a.905.905 0 0 0-.443 1.17c.153.335.428.522.768.523h.015c.46 0 .832-.388.832-.867v-.01c0-.507-.352-.866-.847-.865h-.013q-.168 0-.32.051z"/>
</svg>