<svg xmlns="http://www.w3.org/2000/svg" width="26" height="26" fill="currentColor" class="sym sym-x-circle" viewBox="0 0 26 26">
  <path fill-rule="evenodd" d="M13 3.817a9.183 9.183 0 1 0 0 18.366 9.183 9.183 0 0 0 0-18.366M2 13C2 6.925 6.925 2 13 2s11 4.925 11 11-4.925 11-11 11S2 19.075 2 13m7.33-3.67a.91.91 0 0 1 1.285 0L13 11.716l2.385-2.386a.908.908 0 0 1 1.285 1.285L14.284 13l2.386 2.385a.908.908 0 0 1-1.285 1.285L13 14.284l-2.385 2.386a.908.908 0 1 1-1.285-1.285L11.716 13 9.33 10.615a.91.91 0 0 1 0-1.285"/>
</svg>