<svg xmlns="http://www.w3.org/2000/svg" width="26" height="26" fill="currentColor" class="sym sym-zap" viewBox="0 0 26 26">
  <path d="M11.982 24a.9.9 0 0 1-.906-1.019l.885-7.052H5.577c-.723 0-1.15 0-1.548-.313a1.4 1.4 0 0 1-.529-1.11c0-.514.295-.868.743-1.392l9.073-10.786a.92.92 0 0 1 1.069-.252.9.9 0 0 1 .54.948l-.886 7.053h6.384c.723 0 1.15 0 1.548.313.335.262.529.665.529 1.11 0 .514-.295.867-.743 1.392l-9.073 10.785a.9.9 0 0 1-.702.323M5.79 14.113H13c.265 0 .51.11.682.302a.9.9 0 0 1 .224.717l-.631 5.004 6.934-8.243H13a.9.9 0 0 1-.682-.303.9.9 0 0 1-.224-.716l.631-5.004z"/>
</svg>