<svg xmlns="http://www.w3.org/2000/svg" width="26" height="26" fill="currentColor" class="sym sym-zoom-in" viewBox="0 0 26 26">
  <path d="M21.097 22a.95.95 0 0 1-.647-.263l-3.298-3.299a8.08 8.08 0 0 1-5.049 1.771C7.632 20.21 4 16.577 4 12.105 4 7.632 7.632 4 12.103 4c4.472 0 8.104 3.632 8.104 8.105a8.04 8.04 0 0 1-1.77 5.048l3.297 3.299a.91.91 0 0 1 0 1.285.9.9 0 0 1-.647.263zM12.103 5.811c-3.46 0-6.282 2.823-6.282 6.283s2.823 6.284 6.282 6.284c1.7 0 3.238-.678 4.37-1.77.021-.021.041-.052.062-.072s.05-.04.07-.06a6.28 6.28 0 0 0 1.77-4.371c0-3.46-2.822-6.284-6.282-6.284zm0 9.896a.907.907 0 0 1-.91-.911v-1.79h-1.79a.907.907 0 0 1-.911-.912c0-.505.404-.91.91-.91h1.79V9.393c0-.506.406-.91.911-.91.506 0 .91.404.91.91v1.79h1.792c.505 0 .91.406.91.911a.907.907 0 0 1-.91.911h-1.791v1.79a.907.907 0 0 1-.91.912"/>
</svg>