<svg xmlns="http://www.w3.org/2000/svg" width="26" height="26" fill="currentColor" class="sym sym-zoom-out" viewBox="0 0 26 26">
  <path d="M21.097 22a.95.95 0 0 1-.647-.263l-3.298-3.299a8.08 8.08 0 0 1-5.049 1.771C7.632 20.21 4 16.577 4 12.105 4 7.632 7.632 4 12.103 4c4.472 0 8.104 3.632 8.104 8.105a8.04 8.04 0 0 1-1.77 5.048l3.297 3.299a.91.91 0 0 1 0 1.285.9.9 0 0 1-.647.263zM12.103 5.811c-3.46 0-6.282 2.823-6.282 6.283s2.823 6.284 6.282 6.284c1.7 0 3.238-.678 4.37-1.77a.24.24 0 0 1 .072-.072c.02-.02.05-.04.07-.07a6.28 6.28 0 0 0 1.77-4.372c0-3.46-2.822-6.283-6.282-6.283m2.702 7.194H9.412a.907.907 0 0 1-.91-.91c0-.507.405-.911.91-.911h5.393c.505 0 .91.405.91.91a.907.907 0 0 1-.91.911"/>
</svg>