<svg xmlns="http://www.w3.org/2000/svg" width="26" height="26" fill="currentColor" class="sym sym-zoom-out-solid" viewBox="0 0 26 26">
  <path fill-rule="evenodd" d="M11.509 4.009c-1.183.122-2.025.352-2.953.805-2.449 1.212-4.175 3.559-4.499 6.336l-.003.037c-.395 3.382 1.416 6.677 4.502 8.19a7.9 7.9 0 0 0 3.547.824 8 8 0 0 0 3.594-.844l-.047.02a8.6 8.6 0 0 0 1.371-.836l-.023.017.16-.123 1.73 1.726c1.558 1.554 1.75 1.732 1.909 1.786.35.116.69.04.94-.21a.89.89 0 0 0 .21-.941c-.053-.16-.232-.35-1.784-1.91l-1.725-1.732.122-.159c.275-.361.587-.874.82-1.35a7.95 7.95 0 0 0 .823-3.549 8 8 0 0 0-.844-3.596l.02.047A8.1 8.1 0 0 0 15.7 4.84l-.047-.021a7.6 7.6 0 0 0-2.32-.735l-.042-.006c-.368-.056-1.493-.1-1.783-.07zm3.602 7.245c.332.114.594.485.594.842a.95.95 0 0 1-.27.632c-.28.28-.14.27-3.332.27s-3.052.01-3.332-.27a.883.883 0 0 1 .001-1.264c.275-.275.124-.262 3.316-.266 2.561-.003 2.865.003 3.023.056"/>
</svg>