<svg width="30" height="28" viewBox="0 0 30 28" fill="none" xmlns="http://www.w3.org/2000/svg">
<g id="Group">
<path id="Vector" d="M17.7278 12.7201H12.2722C9.81605 12.7201 7.81781 14.7184 7.81781 17.1745V26.1936C7.81781 26.6856 8.21666 27.0845 8.70869 27.0845H21.2913C21.7833 27.0845 22.1822 26.6857 22.1822 26.1936V17.1745C22.1822 14.7184 20.1839 12.7201 17.7278 12.7201ZM15 0.909134C12.0461 0.909134 9.64302 3.31226 9.64302 6.26617C9.64302 8.26978 10.7489 10.0197 12.382 10.9384C13.1566 11.3741 14.0497 11.6231 15 11.6231C15.9503 11.6231 16.8434 11.3741 17.618 10.9384C19.2512 10.0197 20.357 8.26972 20.357 6.26617C20.357 3.31232 17.9538 0.909134 15 0.909134ZM5.59326 5.90227C3.38413 5.90227 1.58694 7.69946 1.58694 9.90858C1.58694 12.1177 3.38413 13.9149 5.59326 13.9149C6.13613 13.9154 6.67336 13.8049 7.17198 13.5902C8.01006 13.2293 8.70109 12.5906 9.12869 11.7906C9.43845 11.2117 9.60022 10.5651 9.59957 9.90858C9.59957 7.69952 7.80238 5.90227 5.59326 5.90227ZM24.4067 5.90227C22.1976 5.90227 20.4004 7.69946 20.4004 9.90858C20.3998 10.5651 20.5615 11.2117 20.8713 11.7906C21.2989 12.5907 21.9899 13.2294 22.828 13.5902C23.3266 13.8049 23.8639 13.9154 24.4067 13.9149C26.6159 13.9149 28.413 12.1177 28.413 9.90858C28.413 7.69946 26.6159 5.90227 24.4067 5.90227Z" fill="#0F6AF5"/>
<path id="Vector_2" d="M22.8866 14.8182H25.2729C27.7291 14.8182 29.7274 16.8165 29.7273 19.2726V24.1893C29.7273 25.663 28.5284 26.8619 27.0547 26.8619H23.1095C23.2084 26.5831 23.2627 26.2834 23.2627 25.971V16.9519C23.2627 16.2029 23.1298 15.4842 22.8866 14.8182Z" fill="url(#paint0_linear_428_177)"/>
<path id="Vector_3" d="M7.11349 14.8183C6.87025 15.4843 6.73736 16.2029 6.73736 16.9521V25.9712C6.73725 26.2747 6.78908 26.576 6.89062 26.8621H2.94536C1.47163 26.8621 0.27272 25.6631 0.27272 24.1895V19.2727C0.27272 16.8166 2.27096 14.8183 4.72712 14.8183H7.11349Z" fill="url(#paint1_linear_428_177)"/>
</g>
<defs>
<linearGradient id="paint0_linear_428_177" x1="25.6921" y1="17.7126" x2="30.4988" y2="22.5916" gradientUnits="userSpaceOnUse">
<stop stop-color="#FFBD12"/>
<stop offset="0.576042" stop-color="#FF8A00"/>
</linearGradient>
<linearGradient id="paint1_linear_428_177" x1="3.07827" y1="17.7127" x2="7.88496" y2="22.5917" gradientUnits="userSpaceOnUse">
<stop stop-color="#FFBD12"/>
<stop offset="0.576042" stop-color="#FF8A00"/>
</linearGradient>
</defs>
</svg>
