<svg width="24" height="28" viewBox="0 0 24 28" fill="none" xmlns="http://www.w3.org/2000/svg">
<g id="Group">
<path id="Vector" fill-rule="evenodd" clip-rule="evenodd" d="M10.3992 28C10.3074 27.6066 10.273 27.202 10.297 26.7988L10.4846 23.674C10.5238 23.023 10.7142 22.3902 11.0404 21.826L16.4752 12.4124C17.0322 11.4478 17.9495 10.7439 19.0254 10.4556C20.1014 10.1673 21.2477 10.3183 22.2124 10.8752L22.4 10.983V4.2C22.4 3.08609 21.9575 2.0178 21.1698 1.23015C20.3822 0.442499 19.3139 0 18.2 0H4.2C3.0856 0 2.0174 0.4424 1.2306 1.2306C0.840319 1.62033 0.530735 2.08321 0.319572 2.59274C0.108409 3.10227 -0.000186993 3.64845 2.417e-07 4.2V23.8C2.417e-07 24.9144 0.4424 25.9826 1.2306 26.7694C1.62033 27.1597 2.08321 27.4693 2.59274 27.6804C3.10227 27.8916 3.64845 28.0002 4.2 28H10.3992ZM5.6 19.6H8.645C9.0163 19.6 9.3724 19.4525 9.63495 19.1899C9.8975 18.9274 10.045 18.5713 10.045 18.2C10.045 17.8287 9.8975 17.4726 9.63495 17.2101C9.3724 16.9475 9.0163 16.8 8.645 16.8H5.6C5.2287 16.8 4.8726 16.9475 4.61005 17.2101C4.3475 17.4726 4.2 17.8287 4.2 18.2C4.2 18.5713 4.3475 18.9274 4.61005 19.1899C4.8726 19.4525 5.2287 19.6 5.6 19.6ZM5.6 14H11.69C12.0613 14 12.4174 13.8525 12.6799 13.5899C12.9425 13.3274 13.09 12.9713 13.09 12.6C13.09 12.2287 12.9425 11.8726 12.6799 11.61C12.4174 11.3475 12.0613 11.2 11.69 11.2H5.6C5.2287 11.2 4.8726 11.3475 4.61005 11.61C4.3475 11.8726 4.2 12.2287 4.2 12.6C4.2 12.9713 4.3475 13.3274 4.61005 13.5899C4.8726 13.8525 5.2287 14 5.6 14ZM5.6 8.4H14C14.3713 8.4 14.7274 8.2525 14.9899 7.98995C15.2525 7.7274 15.4 7.3713 15.4 7C15.4 6.6287 15.2525 6.2726 14.9899 6.01005C14.7274 5.7475 14.3713 5.6 14 5.6H5.6C5.2287 5.6 4.8726 5.7475 4.61005 6.01005C4.3475 6.2726 4.2 6.6287 4.2 7C4.2 7.3713 4.3475 7.7274 4.61005 7.98995C4.8726 8.2525 5.2287 8.4 5.6 8.4Z" fill="#0F6AF5"/>
<g id="Vector_2">
<path d="M19.7501 12.3965C19.3914 12.4926 19.0857 12.7272 18.9 13.0488L13.4652 22.4624C13.3561 22.6504 13.2928 22.8614 13.2804 23.0784L13.0928 26.2032C13.0774 26.4626 13.1345 26.7212 13.2577 26.95C13.3809 27.1789 13.5654 27.3689 13.7905 27.4988C14.0156 27.6287 14.2724 27.6934 14.5322 27.6856C14.792 27.6779 15.0445 27.5979 15.2614 27.4548L17.8738 25.73C18.0555 25.6109 18.2066 25.4507 18.3148 25.2624L23.7496 15.8488C23.9352 15.5272 23.9855 15.1451 23.8895 14.7865C23.7934 14.4278 23.5587 14.122 23.2372 13.9364L20.8124 12.5364C20.4908 12.3507 20.1087 12.3004 19.7501 12.3965Z" fill="url(#paint0_linear_428_159)" fill-opacity="0.8"/>
<path d="M19.7501 12.3965C19.3914 12.4926 19.0857 12.7272 18.9 13.0488L13.4652 22.4624C13.3561 22.6504 13.2928 22.8614 13.2804 23.0784L13.0928 26.2032C13.0774 26.4626 13.1345 26.7212 13.2577 26.95C13.3809 27.1789 13.5654 27.3689 13.7905 27.4988C14.0156 27.6287 14.2724 27.6934 14.5322 27.6856C14.792 27.6779 15.0445 27.5979 15.2614 27.4548L17.8738 25.73C18.0555 25.6109 18.2066 25.4507 18.3148 25.2624L23.7496 15.8488C23.9352 15.5272 23.9855 15.1451 23.8895 14.7865C23.7934 14.4278 23.5587 14.122 23.2372 13.9364L20.8124 12.5364C20.4908 12.3507 20.1087 12.3004 19.7501 12.3965Z" fill="url(#paint1_linear_428_159)"/>
</g>
</g>
<defs>
<linearGradient id="paint0_linear_428_159" x1="11.9686" y1="-0.763622" x2="11.9686" y2="27.6863" gradientUnits="userSpaceOnUse">
<stop stop-color="#0F6AF5"/>
<stop offset="1" stop-color="#357BE7"/>
</linearGradient>
<linearGradient id="paint1_linear_428_159" x1="17.5389" y1="16.0347" x2="23.4967" y2="23.5645" gradientUnits="userSpaceOnUse">
<stop stop-color="#FFBD12"/>
<stop offset="0.576042" stop-color="#FF8A00"/>
</linearGradient>
</defs>
</svg>
