<svg width="29" height="29" viewBox="0 0 29 29" fill="none" xmlns="http://www.w3.org/2000/svg">
<g id="Group 2">
<path id="Vector" d="M28.2124 5.1256C28.2175 5.07793 28.2175 5.02979 28.2124 4.98212C28.2168 4.931 28.2168 4.87953 28.2124 4.8284C28.2164 4.79781 28.2164 4.76675 28.2124 4.73616C28.1929 4.68828 28.1675 4.64347 28.1369 4.60293C28.1148 4.55727 28.0861 4.51574 28.0519 4.47995L24.2764 0.380593C24.1827 0.254701 24.0629 0.154705 23.9267 0.0887951C23.7905 0.0228853 23.6419 -0.00706311 23.493 0.00140253H4.61543C4.49121 0.000622741 4.36806 0.0264744 4.25307 0.0774751C4.13806 0.128476 4.03347 0.203623 3.94527 0.298606L0.169755 4.39797C0.135558 4.43376 0.106876 4.47528 0.0848062 4.52095C0.0542485 4.56148 0.0288507 4.60629 0.00929579 4.65418C0.00529392 4.68477 0.00529392 4.71582 0.00929579 4.74641C0.00486159 4.79754 0.00486159 4.84901 0.00929579 4.90014C-0.0030986 4.99532 -0.0030986 5.09191 0.00929579 5.18709C0.00486159 5.23822 0.00486159 5.28969 0.00929579 5.34082C0.00529392 5.37141 0.00529392 5.40246 0.00929579 5.43305C0.0288507 5.48094 0.0542485 5.52575 0.0848062 5.56628C0.106876 5.61195 0.135558 5.65347 0.169755 5.68926L7.00344 13.3243C8.51087 11.8053 10.3998 10.8065 12.4307 10.4548L8.51365 6.15044H19.5948L15.6777 10.4035C17.714 10.7698 19.6035 11.7866 21.105 13.3243L27.9387 5.90448C27.9729 5.86869 28.0016 5.82717 28.0236 5.7815C28.0542 5.74097 28.0796 5.69616 28.0991 5.64827C28.1031 5.61768 28.1031 5.58663 28.0991 5.55603C28.1036 5.50491 28.1036 5.45344 28.0991 5.40231C28.1572 5.32154 28.1961 5.22652 28.2124 5.1256Z" fill="#0F6AF5"/>
<g id="Vector_2">
<path d="M13.7162 24.2973C15.6641 24.2973 17.2432 22.5427 17.2432 20.3784C17.2432 18.214 15.6641 16.4595 13.7162 16.4595C11.7683 16.4595 10.1892 18.214 10.1892 20.3784C10.1892 22.5427 11.7683 24.2973 13.7162 24.2973Z" fill="url(#paint0_linear_775_2904)"/>
<path d="M13.7162 24.2973C15.6641 24.2973 17.2432 22.5427 17.2432 20.3784C17.2432 18.214 15.6641 16.4595 13.7162 16.4595C11.7683 16.4595 10.1892 18.214 10.1892 20.3784C10.1892 22.5427 11.7683 24.2973 13.7162 24.2973Z" fill="url(#paint1_linear_775_2904)"/>
</g>
<g id="Vector_3">
<path d="M13.7162 11.7568C12.0885 11.7568 10.4974 12.2624 9.14403 13.2098C7.79066 14.1571 6.73584 15.5036 6.11295 17.079C5.49006 18.6544 5.32709 20.3879 5.64463 22.0604C5.96218 23.7328 6.74598 25.269 7.89693 26.4748C9.04788 27.6805 10.5143 28.5017 12.1107 28.8343C13.7071 29.167 15.3618 28.9963 16.8656 28.3437C18.3694 27.6912 19.6547 26.5861 20.559 25.1683C21.4633 23.7505 21.946 22.0836 21.946 20.3784C21.946 18.0918 21.0789 15.8988 19.5355 14.282C17.9921 12.6651 15.8989 11.7568 13.7162 11.7568ZM13.7162 26.1261C12.6311 26.1261 11.5703 25.789 10.6681 25.1575C9.76585 24.5259 9.06263 23.6282 8.64738 22.5779C8.23212 21.5277 8.12347 20.372 8.33516 19.257C8.54686 18.1421 9.0694 17.1179 9.8367 16.3141C10.604 15.5103 11.5816 14.9629 12.6459 14.7411C13.7101 14.5193 14.8133 14.6331 15.8158 15.0682C16.8183 15.5032 17.6752 16.2399 18.2781 17.1851C18.8809 18.1303 19.2027 19.2416 19.2027 20.3784C19.2027 21.9028 18.6247 23.3647 17.5958 24.4426C16.5668 25.5206 15.1713 26.1261 13.7162 26.1261Z" fill="url(#paint2_linear_775_2904)" fill-opacity="0.8"/>
<path d="M13.7162 11.7568C12.0885 11.7568 10.4974 12.2624 9.14403 13.2098C7.79066 14.1571 6.73584 15.5036 6.11295 17.079C5.49006 18.6544 5.32709 20.3879 5.64463 22.0604C5.96218 23.7328 6.74598 25.269 7.89693 26.4748C9.04788 27.6805 10.5143 28.5017 12.1107 28.8343C13.7071 29.167 15.3618 28.9963 16.8656 28.3437C18.3694 27.6912 19.6547 26.5861 20.559 25.1683C21.4633 23.7505 21.946 22.0836 21.946 20.3784C21.946 18.0918 21.0789 15.8988 19.5355 14.282C17.9921 12.6651 15.8989 11.7568 13.7162 11.7568ZM13.7162 26.1261C12.6311 26.1261 11.5703 25.789 10.6681 25.1575C9.76585 24.5259 9.06263 23.6282 8.64738 22.5779C8.23212 21.5277 8.12347 20.372 8.33516 19.257C8.54686 18.1421 9.0694 17.1179 9.8367 16.3141C10.604 15.5103 11.5816 14.9629 12.6459 14.7411C13.7101 14.5193 14.8133 14.6331 15.8158 15.0682C16.8183 15.5032 17.6752 16.2399 18.2781 17.1851C18.8809 18.1303 19.2027 19.2416 19.2027 20.3784C19.2027 21.9028 18.6247 23.3647 17.5958 24.4426C16.5668 25.5206 15.1713 26.1261 13.7162 26.1261Z" fill="url(#paint3_linear_775_2904)"/>
</g>
</g>
<defs>
<linearGradient id="paint0_linear_775_2904" x1="9.65919" y1="15.5635" x2="19.3013" y2="24.565" gradientUnits="userSpaceOnUse">
<stop stop-color="#0F6AF5"/>
<stop offset="1" stop-color="#3591E7"/>
</linearGradient>
<linearGradient id="paint1_linear_775_2904" x1="13.0822" y1="18.343" x2="15.8878" y2="22.8556" gradientUnits="userSpaceOnUse">
<stop stop-color="#FFBD12"/>
<stop offset="0.576042" stop-color="#FF8A00"/>
</linearGradient>
<linearGradient id="paint2_linear_775_2904" x1="4.24983" y1="9.78564" x2="25.5117" y2="30.8378" gradientUnits="userSpaceOnUse">
<stop stop-color="#0F6AF5"/>
<stop offset="1" stop-color="#3591E7"/>
</linearGradient>
<linearGradient id="paint3_linear_775_2904" x1="12.2369" y1="15.9007" x2="18.2424" y2="26.1453" gradientUnits="userSpaceOnUse">
<stop stop-color="#FFBD12"/>
<stop offset="0.576042" stop-color="#FF8A00"/>
</linearGradient>
</defs>
</svg>
