<svg width="31" height="22" viewBox="0 0 31 22" fill="none" xmlns="http://www.w3.org/2000/svg">
<g id="Group 1">
<path id="Vector" d="M2.00988 17.0206V4.07407C1.47682 4.07407 0.965604 4.28391 0.588679 4.65744C0.211754 5.03097 0 5.53759 0 6.06584V20.0082C0 20.5365 0.211754 21.0431 0.588679 21.4166C0.965604 21.7901 1.47682 22 2.00988 22H11.4362C9.5538 20.7041 7.31675 20.0091 5.02469 20.0082C4.22511 20.0082 3.45828 19.6935 2.8929 19.1332C2.32751 18.5729 2.00988 17.8129 2.00988 17.0206ZM28.1383 4.07407V17.0206C28.1383 17.8129 27.8206 18.5729 27.2553 19.1332C26.6899 19.6935 25.923 20.0082 25.1235 20.0082C22.8314 20.0091 20.5943 20.7041 18.712 22H28.1383C28.6713 22 29.1825 21.7901 29.5595 21.4166C29.9364 21.0431 30.1481 20.5365 30.1481 20.0082V6.06584C30.1481 5.53759 29.9364 5.03097 29.5595 4.65744C29.1825 4.28391 28.6713 4.07407 28.1383 4.07407Z" fill="url(#paint0_linear_775_2882)"/>
<path id="Vector_2" d="M5.07407 0C4.80886 0 4.5545 0.103911 4.36697 0.288873C4.17943 0.473836 4.07407 0.724698 4.07407 0.986275V16.7667C4.07407 17.0282 4.17943 17.2791 4.36697 17.4641C4.5545 17.649 4.80886 17.7529 5.07407 17.7529C8.0825 17.756 11.0011 18.7642 13.3541 20.6131L14.0741 21.1852V0.177529C13.7534 0.0627047 13.4152 0.00266744 13.0741 0H5.07407ZM26.0741 16.7667V0.986275C26.0741 0.724698 25.9687 0.473836 25.7812 0.288873C25.5936 0.103911 25.3393 0 25.0741 0H17.0741C16.7329 0.00266744 16.3947 0.0627047 16.0741 0.177529V21.1852L16.7941 20.6131C19.147 18.7642 22.0656 17.756 25.0741 17.7529C25.3393 17.7529 25.5936 17.649 25.7812 17.4641C25.9687 17.2791 26.0741 17.0282 26.0741 16.7667Z" fill="url(#paint1_linear_775_2882)"/>
</g>
<defs>
<linearGradient id="paint0_linear_775_2882" x1="12.3644" y1="8.38203" x2="16.6511" y2="21.2659" gradientUnits="userSpaceOnUse">
<stop stop-color="#FFBD12"/>
<stop offset="0.576042" stop-color="#FF8A00"/>
</linearGradient>
<linearGradient id="paint1_linear_775_2882" x1="4.07407" y1="-2.42172" x2="30.1416" y2="21.9896" gradientUnits="userSpaceOnUse">
<stop stop-color="#0F6AF5"/>
<stop offset="1" stop-color="#3591E7"/>
</linearGradient>
</defs>
</svg>
