<svg width="34" height="28" viewBox="0 0 34 28" fill="none" xmlns="http://www.w3.org/2000/svg">
<g id="Group">
<path id="Vector" d="M20.4177 4.02572L24.4434 0L33.0957 8.65236L29.07 12.6781L20.4177 4.02572ZM18.8566 5.20234L11.5869 9.52726L7.32291 24.5693L15.6722 16.2385L15.6639 14.2834L18.996 14.2454L19.0341 17.5915L17.0549 17.5997L8.69387 25.9429L23.893 21.5616L27.9243 14.27L18.8566 5.20234Z" fill="url(#paint0_linear_428_163)"/>
<path id="Vector_2" d="M7.32271 24.5698L6.6375 25.255C6.11855 25.774 5.42861 26.0598 4.69471 26.0598C3.96081 26.0598 3.27087 25.774 2.75187 25.255C1.7105 24.2137 1.67293 22.5462 2.6664 21.4589L3.97756 20.0238C5.67254 18.1688 5.60853 15.3238 3.83164 13.547L1.37186 11.0872L0 12.4591L2.45978 14.9189C3.50116 15.9603 3.53872 17.6278 2.54525 18.715L1.23409 20.1501C-0.460886 22.0052 -0.396883 24.8502 1.38001 26.627C2.26538 27.5124 3.44258 28 4.69478 28C5.94697 28 7.12411 27.5124 8.00949 26.627L8.6938 25.9427L8.69386 25.9428L7.32271 24.5698Z" fill="url(#paint1_linear_428_163)"/>
</g>
<defs>
<linearGradient id="paint0_linear_428_163" x1="7.32291" y1="-2.96558" x2="39.1209" y2="25.5214" gradientUnits="userSpaceOnUse">
<stop stop-color="#0F6AF5"/>
<stop offset="1" stop-color="#2B97FB"/>
</linearGradient>
<linearGradient id="paint1_linear_428_163" x1="3.56555" y1="15.1517" x2="10.292" y2="21.3308" gradientUnits="userSpaceOnUse">
<stop stop-color="#FFBD12"/>
<stop offset="0.576042" stop-color="#FF8A00"/>
</linearGradient>
</defs>
</svg>
