<svg width="30" height="30" viewBox="0 0 30 30" fill="none" xmlns="http://www.w3.org/2000/svg">
<g id="icon-dashboard (1) 1">
<g id="Group">
<g id="Vector">
<path d="M10.066 1.36365H5.28883C3.12463 1.36365 1.36363 3.12465 1.36363 5.28855V10.0657C1.36363 12.2299 3.12463 13.9906 5.28883 13.9906H12.889C13.1812 13.9906 13.4615 13.8744 13.6681 13.6678C13.8747 13.4612 13.9909 13.181 13.9909 12.8887V5.28855C13.9909 3.12465 12.2302 1.36365 10.066 1.36365ZM24.4417 1.36365H19.6645C17.5003 1.36365 15.7393 3.12465 15.7393 5.28855V12.8887C15.7393 13.181 15.8554 13.4613 16.0621 13.6679C16.2687 13.8746 16.549 13.9906 16.8412 13.9906H24.4417C26.6059 13.9906 28.3666 12.2299 28.3666 10.0657V5.28855C28.3666 3.12465 26.6059 1.36365 24.4417 1.36365ZM12.889 15.7393H5.28883C3.12463 15.7393 1.36363 17.5 1.36363 19.6642V24.4414C1.36363 26.6056 3.12463 28.3663 5.28883 28.3663H10.066C12.2302 28.3663 13.9909 26.6053 13.9909 24.4414V16.8412C13.9909 16.549 13.8748 16.2687 13.6682 16.0621C13.4615 15.8554 13.1813 15.7393 12.889 15.7393ZM24.4417 15.7393H16.8412C16.549 15.7394 16.2688 15.8555 16.0622 16.0622C15.8555 16.2688 15.7394 16.549 15.7393 16.8412V24.4414C15.7393 26.6056 17.5003 28.3663 19.6645 28.3663H24.4417C26.6059 28.3663 28.3666 26.6053 28.3666 24.4414V19.6642C28.3666 17.5 26.6059 15.7393 24.4417 15.7393Z" fill="#7C8AA0"/>
<path d="M10.066 1.36365H5.28883C3.12463 1.36365 1.36363 3.12465 1.36363 5.28855V10.0657C1.36363 12.2299 3.12463 13.9906 5.28883 13.9906H12.889C13.1812 13.9906 13.4615 13.8744 13.6681 13.6678C13.8747 13.4612 13.9909 13.181 13.9909 12.8887V5.28855C13.9909 3.12465 12.2302 1.36365 10.066 1.36365ZM24.4417 1.36365H19.6645C17.5003 1.36365 15.7393 3.12465 15.7393 5.28855V12.8887C15.7393 13.181 15.8554 13.4613 16.0621 13.6679C16.2687 13.8746 16.549 13.9906 16.8412 13.9906H24.4417C26.6059 13.9906 28.3666 12.2299 28.3666 10.0657V5.28855C28.3666 3.12465 26.6059 1.36365 24.4417 1.36365ZM12.889 15.7393H5.28883C3.12463 15.7393 1.36363 17.5 1.36363 19.6642V24.4414C1.36363 26.6056 3.12463 28.3663 5.28883 28.3663H10.066C12.2302 28.3663 13.9909 26.6053 13.9909 24.4414V16.8412C13.9909 16.549 13.8748 16.2687 13.6682 16.0621C13.4615 15.8554 13.1813 15.7393 12.889 15.7393ZM24.4417 15.7393H16.8412C16.549 15.7394 16.2688 15.8555 16.0622 16.0622C15.8555 16.2688 15.7394 16.549 15.7393 16.8412V24.4414C15.7393 26.6056 17.5003 28.3663 19.6645 28.3663H24.4417C26.6059 28.3663 28.3666 26.6053 28.3666 24.4414V19.6642C28.3666 17.5 26.6059 15.7393 24.4417 15.7393Z" fill="url(#paint0_linear_419_7599)"/>
</g>
<g id="Vector_2">
<path d="M5.28883 1.36365H10.066C12.2302 1.36365 13.9909 3.12465 13.9909 5.28855V12.8887C13.9909 13.181 13.8747 13.4612 13.6681 13.6678C13.4615 13.8744 13.1812 13.9906 12.889 13.9906H5.28883C3.12463 13.9906 1.36363 12.2299 1.36363 10.0657V5.28855C1.36363 3.12465 3.12463 1.36365 5.28883 1.36365Z" fill="#0F6AF5"/>
<path d="M19.6645 1.36365H24.4417C26.6059 1.36365 28.3666 3.12465 28.3666 5.28855V10.0657C28.3666 12.2299 26.6059 13.9906 24.4417 13.9906H16.8412C16.549 13.9906 16.2687 13.8746 16.0621 13.6679C15.8554 13.4613 15.7393 13.181 15.7393 12.8887V5.28855C15.7393 3.12465 17.5003 1.36365 19.6645 1.36365Z" fill="#0F6AF5"/>
<path d="M5.28883 15.7393H12.889C13.1813 15.7393 13.4615 15.8554 13.6682 16.0621C13.8748 16.2687 13.9909 16.549 13.9909 16.8412V24.4414C13.9909 26.6053 12.2302 28.3663 10.066 28.3663H5.28883C3.12463 28.3663 1.36363 26.6056 1.36363 24.4414V19.6642C1.36363 17.5 3.12463 15.7393 5.28883 15.7393Z" fill="#0F6AF5"/>
</g>
</g>
</g>
<defs>
<linearGradient id="paint0_linear_419_7599" x1="12.4382" y1="7.85294" x2="21.624" y2="24.269" gradientUnits="userSpaceOnUse">
<stop stop-color="#FFBD12"/>
<stop offset="0.576042" stop-color="#FF8A00"/>
</linearGradient>
</defs>
</svg>
