<svg width="36" height="36" viewBox="0 0 36 36" fill="none" xmlns="http://www.w3.org/2000/svg">
<g id="Type=Karirlink">
<path id="Vector" d="M25.0406 30.1236H5.40896C5.35937 30.1236 5.31885 30.0837 5.31885 30.0335V5.96596C5.31885 5.91637 5.35876 5.87585 5.40896 5.87585H10.4024C10.452 5.87585 10.4925 5.91577 10.4925 5.96596V24.8616C10.4925 24.9112 10.5325 24.9517 10.5827 24.9517H15.5761C15.6257 24.9517 15.6662 24.9118 15.6662 24.8616V20.7474L25.0406 30.1236Z" fill="#28489E"/>
<path id="Vector_2" d="M25.0406 30.1236H5.40896C5.35937 30.1236 5.31885 30.0837 5.31885 30.0335V5.96596C5.31885 5.91637 5.35876 5.87585 5.40896 5.87585H10.4024C10.452 5.87585 10.4925 5.91577 10.4925 5.96596V24.8616C10.4925 24.9112 10.5325 24.9517 10.5827 24.9517H15.5761C15.6257 24.9517 15.6662 24.9118 15.6662 24.8616V20.7474L25.0406 30.1236Z" fill="#28489E"/>
<path id="Vector_3" d="M15.665 14.1743V5.96596C15.665 5.91637 15.705 5.87585 15.7551 5.87585H23.9635L15.665 14.1743Z" fill="#28489E"/>
<path id="Vector_4" d="M30.6805 6.48669V28.4533L19.6885 17.4612L30.6805 6.48669Z" fill="#F15A25"/>
</g>
</svg>
