<svg width="31" height="31" viewBox="0 0 31 31" fill="none" xmlns="http://www.w3.org/2000/svg">
<g id="Group">
<g id="Vector">
<path d="M7.48257 17.0878L7.48263 17.0881C7.50133 17.0692 7.50009 17.0703 7.48257 17.0878Z" fill="black"/>
<path d="M7.48257 17.0878L7.48263 17.0881C7.50133 17.0692 7.50009 17.0703 7.48257 17.0878Z" fill="url(#paint0_linear_428_194)"/>
</g>
<path id="Vector_2" d="M30.3129 12.8029L28.7714 12.4322C28.4362 10.9688 27.8589 9.57809 27.0519 8.28501L27.8331 6.97327C27.9365 6.79967 27.979 6.59656 27.9539 6.39609C27.9288 6.19562 27.8377 6.00922 27.6948 5.8664L25.1346 3.30585C24.9916 3.16314 24.8053 3.07208 24.6049 3.04703C24.4045 3.02197 24.2015 3.06435 24.0278 3.16748L22.7163 3.94882C21.4233 3.14175 20.0328 2.56436 18.5696 2.22913L18.1989 0.687415C18.1497 0.491068 18.0364 0.316783 17.8768 0.192239C17.7173 0.0676956 17.5207 3.4032e-05 17.3183 0H13.686C13.4836 2.34996e-05 13.287 0.0676812 13.1275 0.192226C12.968 0.316772 12.8546 0.491062 12.8054 0.687415L12.4348 2.22913C10.9715 2.56436 9.581 3.14175 8.28808 3.94882L6.97652 3.16748C6.80294 3.06415 6.59986 3.02165 6.39941 3.04671C6.19896 3.07177 6.01259 3.16296 5.86979 3.30585L3.30944 5.86634C3.16659 6.00917 3.07542 6.19557 3.05036 6.39603C3.02531 6.5965 3.06779 6.7996 3.17109 6.97321L3.95233 8.28495C3.14536 9.57803 2.56805 10.9687 2.23286 12.4321L0.69134 12.8029C0.495018 12.852 0.320755 12.9654 0.196228 13.125C0.0717001 13.2845 0.00404709 13.4811 0.00401306 13.6836V17.3163C0.00401306 17.7332 0.287796 18.0968 0.692188 18.1971L2.23371 18.5678C2.45719 19.5375 2.79352 20.4691 3.22547 21.3627C3.89239 20.6929 7.24196 17.3286 7.48269 17.0881C7.47082 17.027 7.34107 15.8636 7.33762 15.637C7.26036 11.009 10.9876 7.32697 15.5056 7.32697C20.0546 7.32697 23.682 10.9955 23.6649 15.5283C23.6454 19.7203 20.517 23.289 16.1477 23.6154C15.9587 23.6299 15.1041 23.756 13.913 23.5212L9.65105 27.7837C10.5411 28.2131 11.4691 28.5473 12.4347 28.7699L12.8054 30.3126C12.8545 30.5089 12.9679 30.6832 13.1274 30.8077C13.287 30.9323 13.4836 30.9999 13.686 31H17.3183C17.5207 30.9999 17.7172 30.9323 17.8768 30.8077C18.0363 30.6832 18.1497 30.5089 18.1989 30.3126L18.5695 28.7708C20.0328 28.4356 21.4233 27.8582 22.7162 27.0511L24.0278 27.8325C24.3834 28.0454 24.8401 27.9868 25.1345 27.6941L27.6947 25.1336C27.8376 24.9907 27.9287 24.8043 27.9538 24.6039C27.9789 24.4034 27.9364 24.2003 27.8331 24.0267L27.0518 22.715C27.8597 21.4219 28.4361 20.0312 28.7713 18.5669L30.3119 18.1971C30.7163 18.0968 31.0001 17.7332 31.0001 17.3163V13.6836C31.0001 13.4812 30.9325 13.2846 30.8079 13.125C30.6834 12.9655 30.5092 12.8521 30.3129 12.8029Z" fill="#0F6AF5"/>
<path id="Vector_3" d="M21.6466 13.8397C21.6075 13.6861 21.5283 13.5455 21.4172 13.4324C21.3061 13.3193 21.1671 13.2377 21.0142 13.1958C20.8614 13.154 20.7002 13.1534 20.5471 13.1941C20.3939 13.2348 20.2543 13.3153 20.1424 13.4275L18.0702 15.5001C17.3618 16.2085 16.2104 16.2085 15.502 15.5001C14.7943 14.7923 14.7943 13.6394 15.502 12.9316L17.5751 10.8582C17.6871 10.7461 17.7675 10.6064 17.808 10.4532C17.8486 10.3 17.8478 10.1388 17.8059 9.98592C17.764 9.83309 17.6824 9.69408 17.5694 9.58302C17.4563 9.47195 17.3159 9.39279 17.1624 9.35357C13.3306 8.37967 9.88237 10.8759 9.24996 14.3231C9.04688 15.4584 9.13734 16.5892 9.50885 17.6304C8.99215 18.1472 1.01123 26.129 0.796717 26.3437C-0.268361 27.4089 -0.268361 29.1419 0.813549 30.224C1.88535 31.2401 3.52683 31.2828 4.6596 30.2071L13.3718 21.4938C14.767 21.9918 16.323 21.9817 17.8457 21.4444C20.5893 20.4761 22.5096 17.2266 21.6466 13.8397Z" fill="url(#paint1_linear_428_194)"/>
</g>
<defs>
<linearGradient id="paint0_linear_428_194" x1="7.48938" y1="17.0743" x2="7.48938" y2="17.0881" gradientUnits="userSpaceOnUse">
<stop stop-color="#0F6AF5"/>
<stop offset="1" stop-color="#357BE7"/>
</linearGradient>
<linearGradient id="paint1_linear_428_194" x1="8.96333" y1="14.3942" x2="16.4001" y2="27.682" gradientUnits="userSpaceOnUse">
<stop stop-color="#FFBD12"/>
<stop offset="0.576042" stop-color="#FF8A00"/>
</linearGradient>
</defs>
</svg>
