<svg width="31" height="26" viewBox="0 0 31 26" fill="none" xmlns="http://www.w3.org/2000/svg">
<g id="Group">
<path id="Vector" d="M8.66667 15.1667H2.16667C0.97005 15.1667 0 16.1367 0 17.3333V23.8333C0 25.03 0.97005 26 2.16667 26H8.66667C9.86328 26 10.8333 25.03 10.8333 23.8333V17.3333C10.8333 16.1367 9.86328 15.1667 8.66667 15.1667Z" fill="url(#paint0_linear_428_183)"/>
<path id="Vector_2" d="M5.41667 9.75C4.98977 9.75123 4.56689 9.66758 4.17262 9.50392C3.77834 9.34026 3.42053 9.09985 3.12 8.79667L2.03667 7.71333C1.58272 7.25882 1.27365 6.67999 1.14848 6.04992C1.02332 5.41986 1.08767 4.76684 1.33342 4.17333C1.57917 3.57982 1.99529 3.07245 2.52923 2.7153C3.06316 2.35815 3.69096 2.16723 4.33333 2.16667C4.58134 2.16812 4.82842 2.19719 5.07 2.25333L7.32333 0H2.16667C1.59256 0.00171462 1.04245 0.230538 0.636496 0.636496C0.230538 1.04245 0.00171462 1.59256 0 2.16667V8.66667C0.00171462 9.24078 0.230538 9.79088 0.636496 10.1968C1.04245 10.6028 1.59256 10.8316 2.16667 10.8333H8.66667C9.24078 10.8316 9.79088 10.6028 10.1968 10.1968C10.6028 9.79088 10.8316 9.24078 10.8333 8.66667V5.67667L7.71333 8.79667C7.4128 9.09985 7.05499 9.34026 6.66072 9.50392C6.26644 9.66758 5.84356 9.75123 5.41667 9.75ZM14.0833 4.33333H29.25C29.5373 4.33333 29.8129 4.2192 30.016 4.01603C30.2192 3.81287 30.3333 3.53732 30.3333 3.25C30.3333 2.96268 30.2192 2.68713 30.016 2.48397C29.8129 2.2808 29.5373 2.16667 29.25 2.16667H14.0833C13.796 2.16667 13.5205 2.2808 13.3173 2.48397C13.1141 2.68713 13 2.96268 13 3.25C13 3.53732 13.1141 3.81287 13.3173 4.01603C13.5205 4.2192 13.796 4.33333 14.0833 4.33333ZM14.0833 8.66667H23.8333C24.1207 8.66667 24.3962 8.55253 24.5994 8.34937C24.8025 8.1462 24.9167 7.87065 24.9167 7.58333C24.9167 7.29602 24.8025 7.02047 24.5994 6.8173C24.3962 6.61414 24.1207 6.5 23.8333 6.5H14.0833C13.796 6.5 13.5205 6.61414 13.3173 6.8173C13.1141 7.02047 13 7.29602 13 7.58333C13 7.87065 13.1141 8.1462 13.3173 8.34937C13.5205 8.55253 13.796 8.66667 14.0833 8.66667ZM29.25 17.3333H14.0833C13.796 17.3333 13.5205 17.4475 13.3173 17.6506C13.1141 17.8538 13 18.1293 13 18.4167C13 18.704 13.1141 18.9795 13.3173 19.1827C13.5205 19.3859 13.796 19.5 14.0833 19.5H29.25C29.5373 19.5 29.8129 19.3859 30.016 19.1827C30.2192 18.9795 30.3333 18.704 30.3333 18.4167C30.3333 18.1293 30.2192 17.8538 30.016 17.6506C29.8129 17.4475 29.5373 17.3333 29.25 17.3333ZM23.8333 21.6667H14.0833C13.796 21.6667 13.5205 21.7808 13.3173 21.984C13.1141 22.1871 13 22.4627 13 22.75C13 23.0373 13.1141 23.3129 13.3173 23.516C13.5205 23.7192 13.796 23.8333 14.0833 23.8333H23.8333C24.1207 23.8333 24.3962 23.7192 24.5994 23.516C24.8025 23.3129 24.9167 23.0373 24.9167 22.75C24.9167 22.4627 24.8025 22.1871 24.5994 21.984C24.3962 21.7808 24.1207 21.6667 23.8333 21.6667Z" fill="#0F6AF5"/>
<path id="Vector_3" d="M8.98408 1.40075L5.41666 4.96817L5.09924 4.65075C4.89492 4.45341 4.62127 4.34422 4.33723 4.34669C4.05318 4.34916 3.78147 4.46309 3.58061 4.66395C3.37975 4.86481 3.26581 5.13652 3.26335 5.42057C3.26088 5.70461 3.37007 5.97827 3.56741 6.18258L4.65074 7.26592C4.8539 7.46901 5.1294 7.5831 5.41666 7.5831C5.70392 7.5831 5.97942 7.46901 6.18258 7.26592L10.5159 2.93258C10.6194 2.83265 10.7019 2.71311 10.7587 2.58094C10.8155 2.44877 10.8453 2.30661 10.8466 2.16277C10.8478 2.01893 10.8204 1.87627 10.766 1.74313C10.7115 1.61 10.6311 1.48904 10.5293 1.38732C10.4276 1.28561 10.3067 1.20517 10.1735 1.15069C10.0404 1.09622 9.89774 1.06881 9.75389 1.07006C9.61005 1.07131 9.46789 1.1012 9.33572 1.15798C9.20355 1.21475 9.08401 1.29728 8.98408 1.40075Z" fill="url(#paint1_linear_428_183)"/>
</g>
<defs>
<linearGradient id="paint0_linear_428_183" x1="4.44299" y1="17.7701" x2="8.12831" y2="24.3561" gradientUnits="userSpaceOnUse">
<stop stop-color="#FFBD12"/>
<stop offset="0.576042" stop-color="#FF8A00"/>
</linearGradient>
<linearGradient id="paint1_linear_428_183" x1="6.3734" y1="2.63525" x2="8.40333" y2="6.85902" gradientUnits="userSpaceOnUse">
<stop stop-color="#FFBD12"/>
<stop offset="0.576042" stop-color="#FF8A00"/>
</linearGradient>
</defs>
</svg>
