<svg width="26" height="26" viewBox="0 0 26 26" fill="none" xmlns="http://www.w3.org/2000/svg">
<g id="Group">
<g id="Vector">
<path d="M10.7027 3.9294C10.7027 2.53595 11.9015 1.40229 13.3751 1.40229H14.3L14.021 0.668925C13.8642 0.256501 13.4531 0 13.0151 0C12.8937 0 12.7702 0.0197114 12.6495 0.0612571L3.30372 3.27781C2.74811 3.46906 2.46215 4.05045 2.66558 4.57543L3.1594 5.85H10.7027V3.9294Z" fill="url(#paint0_linear_428_172)" fill-opacity="0.8"/>
<path d="M10.7027 3.9294C10.7027 2.53595 11.9015 1.40229 13.3751 1.40229H14.3L14.021 0.668925C13.8642 0.256501 13.4531 0 13.0151 0C12.8937 0 12.7702 0.0197114 12.6495 0.0612571L3.30372 3.27781C2.74811 3.46906 2.46215 4.05045 2.66558 4.57543L3.1594 5.85H10.7027V3.9294Z" fill="url(#paint1_linear_428_172)"/>
</g>
<path id="Vector_2" d="M12.9777 3.25C12.4242 3.25 11.9756 3.69843 11.9756 4.25164V6.15476H20.7443V4.25164C20.7443 3.69843 20.2957 3.25 19.7422 3.25H12.9777ZM23.4 20.6034H19.8925C17.8203 20.6034 16.1345 18.9184 16.1345 16.8473C16.1345 14.7761 17.8203 13.0911 19.8925 13.0911H23.4V9.6605C23.4 8.55413 22.5026 7.65722 21.3957 7.65722H2.00428C0.897368 7.65722 0 8.55413 0 9.6605V23.9967C0 25.1031 0.897368 26 2.00428 26H21.3957C22.5026 26 23.4 25.1031 23.4 23.9967V20.6034Z" fill="#0F6AF5"/>
<g id="Vector_3">
<path d="M25.2689 14.3H20.3939C19.1843 14.3 18.2001 15.3206 18.2001 16.575C18.2001 17.8295 19.1843 18.85 20.3939 18.85H25.2689C25.6721 18.85 26.0001 18.5098 26.0001 18.0917V15.0584C26.0001 14.6402 25.6721 14.3 25.2689 14.3ZM20.3939 17.3334C19.9901 17.3334 19.6626 16.9938 19.6626 16.575C19.6626 16.1562 19.9901 15.8167 20.3939 15.8167C20.7977 15.8167 21.1251 16.1562 21.1251 16.575C21.1251 16.9938 20.7977 17.3334 20.3939 17.3334Z" fill="url(#paint2_linear_428_172)" fill-opacity="0.8"/>
<path d="M25.2689 14.3H20.3939C19.1843 14.3 18.2001 15.3206 18.2001 16.575C18.2001 17.8295 19.1843 18.85 20.3939 18.85H25.2689C25.6721 18.85 26.0001 18.5098 26.0001 18.0917V15.0584C26.0001 14.6402 25.6721 14.3 25.2689 14.3ZM20.3939 17.3334C19.9901 17.3334 19.6626 16.9938 19.6626 16.575C19.6626 16.1562 19.9901 15.8167 20.3939 15.8167C20.7977 15.8167 21.1251 16.1562 21.1251 16.575C21.1251 16.9938 20.7977 17.3334 20.3939 17.3334Z" fill="url(#paint3_linear_428_172)"/>
</g>
</g>
<defs>
<linearGradient id="paint0_linear_428_172" x1="8.85148" y1="0" x2="8.85148" y2="5.94399" gradientUnits="userSpaceOnUse">
<stop stop-color="#0F6AF5"/>
<stop offset="1" stop-color="#357BE7"/>
</linearGradient>
<linearGradient id="paint1_linear_428_172" x1="7.39847" y1="1.40587" x2="8.61021" y2="5.73686" gradientUnits="userSpaceOnUse">
<stop stop-color="#FFBD12"/>
<stop offset="0.576042" stop-color="#FF8A00"/>
</linearGradient>
<linearGradient id="paint2_linear_428_172" x1="22.3678" y1="14.3" x2="22.3678" y2="18.9231" gradientUnits="userSpaceOnUse">
<stop stop-color="#0F6AF5"/>
<stop offset="1" stop-color="#357BE7"/>
</linearGradient>
<linearGradient id="paint3_linear_428_172" x1="21.3991" y1="15.3935" x2="22.4706" y2="18.676" gradientUnits="userSpaceOnUse">
<stop stop-color="#FFBD12"/>
<stop offset="0.576042" stop-color="#FF8A00"/>
</linearGradient>
</defs>
</svg>
