<svg width="40" height="40" viewBox="0 0 40 40" fill="none" xmlns="http://www.w3.org/2000/svg">
<path d="M7.75 4C7.75 2.20508 9.20508 0.75 11 0.75H27C27.1212 0.75 27.2375 0.798159 27.3232 0.883885L38.1161 11.6768C38.2018 11.7625 38.25 11.8788 38.25 12V36C38.25 37.7949 36.7949 39.25 35 39.25H11C9.20507 39.25 7.75 37.7949 7.75 36V4Z" fill="white" stroke="#EAECF0" stroke-width="1.5"/>
<path d="M27 0.5V8C27 10.2091 28.7909 12 31 12H38.5" stroke="#EAECF0" stroke-width="1.5"/>
<rect x="0.558475" y="18" width="27.883" height="16" rx="2" fill="#875BF7"/>
<path d="M4.55848 29.6L7.13848 22.4H8.45848L6.08848 29.6H4.55848ZM9.83848 29.6L7.47848 22.4H8.85848L11.4385 29.6H9.83848ZM5.91848 26.81H9.95848V28.01H5.91848V26.81Z" fill="white"/>
<path d="M12.1818 29.6V22.4H13.7218V29.6H12.1818ZM12.9018 29.6V28.42H17.5418V29.6H12.9018ZM12.9018 26.5V25.34H17.1918V26.5H12.9018ZM12.9018 23.58V22.4H17.4218V23.58H12.9018Z" fill="white"/>
<path d="M18.4415 29.6V22.4H21.8615C22.3949 22.4 22.8515 22.4933 23.2315 22.68C23.6182 22.8667 23.9149 23.1267 24.1215 23.46C24.3349 23.7933 24.4415 24.1833 24.4415 24.63C24.4415 25.0767 24.3349 25.47 24.1215 25.81C23.9082 26.15 23.6082 26.4167 23.2215 26.61C22.8415 26.7967 22.3882 26.89 21.8615 26.89H19.6615V25.71H21.7815C22.1349 25.71 22.4082 25.6133 22.6015 25.42C22.8015 25.22 22.9015 24.96 22.9015 24.64C22.9015 24.32 22.8015 24.0633 22.6015 23.87C22.4082 23.6767 22.1349 23.58 21.7815 23.58H19.9815V29.6H18.4415Z" fill="white"/>
</svg>
