<svg width="40" height="40" viewBox="0 0 40 40" fill="none" xmlns="http://www.w3.org/2000/svg">
<path d="M4 4C4 1.79086 5.79086 0 8 0H24L36 12V36C36 38.2091 34.2091 40 32 40H8C5.79086 40 4 38.2091 4 36V4Z" fill="#875BF7"/>
<path opacity="0.3" d="M24 0L36 12H28C25.7909 12 24 10.2091 24 8V0Z" fill="white"/>
<path d="M11.0622 32L13.3842 25.52H14.5722L12.4392 32H11.0622ZM15.8142 32L13.6902 25.52H14.9322L17.2542 32H15.8142ZM12.2862 29.489H15.9222V30.569H12.2862V29.489Z" fill="white"/>
<path d="M17.9231 32V25.52H19.3091V32H17.9231ZM18.5711 32V30.938H22.7471V32H18.5711ZM18.5711 29.21V28.166H22.4321V29.21H18.5711ZM18.5711 26.582V25.52H22.6391V26.582H18.5711Z" fill="white"/>
<path d="M23.5569 32V25.52H26.6349C27.1149 25.52 27.5259 25.604 27.8679 25.772C28.2159 25.94 28.4829 26.174 28.6689 26.474C28.8609 26.774 28.9569 27.125 28.9569 27.527C28.9569 27.929 28.8609 28.283 28.6689 28.589C28.4769 28.895 28.2069 29.135 27.8589 29.309C27.5169 29.477 27.1089 29.561 26.6349 29.561H24.6549V28.499H26.5629C26.8809 28.499 27.1269 28.412 27.3009 28.238C27.4809 28.058 27.5709 27.824 27.5709 27.536C27.5709 27.248 27.4809 27.017 27.3009 26.843C27.1269 26.669 26.8809 26.582 26.5629 26.582H24.9429V32H23.5569Z" fill="white"/>
</svg>
