<svg width="40" height="40" viewBox="0 0 40 40" fill="none" xmlns="http://www.w3.org/2000/svg">
<path d="M7.75 4C7.75 2.20508 9.20508 0.75 11 0.75H27C27.1212 0.75 27.2375 0.798159 27.3232 0.883885L38.1161 11.6768C38.2018 11.7625 38.25 11.8788 38.25 12V36C38.25 37.7949 36.7949 39.25 35 39.25H11C9.20507 39.25 7.75 37.7949 7.75 36V4Z" fill="white" stroke="#EAECF0" stroke-width="1.5"/>
<path d="M27 0.5V8C27 10.2091 28.7909 12 31 12H38.5" stroke="#EAECF0" stroke-width="1.5"/>
<rect x="0.918365" y="18" width="17.1633" height="16" rx="2" fill="#EC3D27"/>
<path d="M4.91837 29.6L7.49837 22.4H8.81837L6.44837 29.6H4.91837ZM10.1984 29.6L7.83837 22.4H9.21837L11.7984 29.6H10.1984ZM6.27837 26.81H10.3184V28.01H6.27837V26.81Z" fill="white"/>
<path d="M12.5416 29.6V22.4H14.0816V29.6H12.5416Z" fill="white"/>
</svg>
