<svg width="40" height="40" viewBox="0 0 40 40" fill="none" xmlns="http://www.w3.org/2000/svg">
<path d="M4 4C4 1.79086 5.79086 0 8 0H24L36 12V36C36 38.2091 34.2091 40 32 40H8C5.79086 40 4 38.2091 4 36V4Z" fill="#EC3D27"/>
<path opacity="0.3" d="M24 0L36 12H28C25.7909 12 24 10.2091 24 8V0Z" fill="white"/>
<path d="M15.7599 32L18.0819 25.52H19.2699L17.1369 32H15.7599ZM20.5119 32L18.3879 25.52H19.6299L21.9519 32H20.5119ZM16.9839 29.489H20.6199V30.569H16.9839V29.489Z" fill="white"/>
<path d="M22.6209 32V25.52H24.0069V32H22.6209Z" fill="white"/>
</svg>
