<svg width="40" height="40" viewBox="0 0 40 40" fill="none" xmlns="http://www.w3.org/2000/svg">
<path d="M7.75 4C7.75 2.20508 9.20508 0.75 11 0.75H27C27.1212 0.75 27.2375 0.798159 27.3232 0.883885L38.1161 11.6768C38.2018 11.7625 38.25 11.8788 38.25 12V36C38.25 37.7949 36.7949 39.25 35 39.25H11C9.20507 39.25 7.75 37.7949 7.75 36V4Z" fill="white" stroke="#EAECF0" stroke-width="1.5"/>
<path d="M27 0.5V8C27 10.2091 28.7909 12 31 12H38.5" stroke="#EAECF0" stroke-width="1.5"/>
<rect x="0.866577" y="18" width="23.2668" height="16" rx="2" fill="#0F6AF5"/>
<path d="M4.86658 29.6L7.44658 22.4H8.76658L6.39658 29.6H4.86658ZM10.1466 29.6L7.78658 22.4H9.16658L11.7466 29.6H10.1466ZM6.22658 26.81H10.2666V28.01H6.22658V26.81Z" fill="white"/>
<path d="M13.5501 29.6L10.9701 22.4H12.5701L14.5401 28.4H14.3501L16.3301 22.4H17.8501L15.2701 29.6H13.5501Z" fill="white"/>
<path d="M18.5934 29.6V22.4H20.1334V29.6H18.5934Z" fill="white"/>
</svg>
