<svg width="40" height="40" viewBox="0 0 40 40" fill="none" xmlns="http://www.w3.org/2000/svg">
<path d="M4 4C4 1.79086 5.79086 0 8 0H24L36 12V36C36 38.2091 34.2091 40 32 40H8C5.79086 40 4 38.2091 4 36V4Z" fill="url(#paint0_linear_264_26172)"/>
<path d="M24 0L36 12H28C25.7909 12 24 10.2091 24 8V0Z" fill="#EAECF0"/>
<path fill-rule="evenodd" clip-rule="evenodd" d="M21.4961 17.2679C21.9004 17.3577 22.1554 17.7583 22.0655 18.1627L19.3989 30.1627C19.309 30.567 18.9084 30.822 18.504 30.7321C18.0997 30.6423 17.8447 30.2416 17.9346 29.8373L20.6012 17.8373C20.6911 17.4329 21.0917 17.178 21.4961 17.2679ZM17.1971 20.1363C17.4899 20.4292 17.4899 20.9041 17.1971 21.197L14.394 24L17.1971 26.803C17.4899 27.0959 17.4899 27.5708 17.1971 27.8637C16.9042 28.1565 16.4293 28.1565 16.1364 27.8637L12.8031 24.5303C12.5102 24.2374 12.5102 23.7626 12.8031 23.4697L16.1364 20.1363C16.4293 19.8434 16.9042 19.8434 17.1971 20.1363ZM22.8031 20.1363C23.096 19.8434 23.5708 19.8434 23.8637 20.1363L27.1971 23.4697C27.4899 23.7626 27.4899 24.2374 27.1971 24.5303L23.8637 27.8637C23.5708 28.1565 23.096 28.1565 22.8031 27.8637C22.5102 27.5708 22.5102 27.0959 22.8031 26.803L25.6061 24L22.8031 21.197C22.5102 20.9041 22.5102 20.4292 22.8031 20.1363Z" fill="#36383A"/>
<defs>
<linearGradient id="paint0_linear_264_26172" x1="20" y1="0" x2="20" y2="40" gradientUnits="userSpaceOnUse">
<stop stop-color="#F9FAFB"/>
<stop offset="1" stop-color="#EDF0F3"/>
</linearGradient>
</defs>
</svg>
