<svg width="40" height="40" viewBox="0 0 40 40" fill="none" xmlns="http://www.w3.org/2000/svg">
<path d="M7.75 4C7.75 2.20508 9.20508 0.75 11 0.75H27C27.1212 0.75 27.2375 0.798159 27.3232 0.883885L38.1161 11.6768C38.2018 11.7625 38.25 11.8788 38.25 12V36C38.25 37.7949 36.7949 39.25 35 39.25H11C9.20507 39.25 7.75 37.7949 7.75 36V4Z" fill="white" stroke="#EAECF0" stroke-width="1.5"/>
<path d="M27 0.5V8C27 10.2091 28.7909 12 31 12H38.5" stroke="#EAECF0" stroke-width="1.5"/>
<rect x="0.734558" y="18" width="28.5309" height="16" rx="2" fill="#1D7A5B"/>
<path d="M8.34456 29.705C7.82456 29.705 7.34456 29.615 6.90456 29.435C6.46456 29.2483 6.08122 28.9883 5.75456 28.655C5.43456 28.3217 5.18456 27.9283 5.00456 27.475C4.82456 27.015 4.73456 26.515 4.73456 25.975C4.73456 25.435 4.82122 24.9417 4.99456 24.495C5.17456 24.0483 5.42456 23.6617 5.74456 23.335C6.07122 23.0017 6.45456 22.7483 6.89456 22.575C7.33456 22.395 7.81789 22.305 8.34456 22.305C8.93789 22.305 9.47122 22.4217 9.94456 22.655C10.4246 22.8817 10.8146 23.205 11.1146 23.625C11.4212 24.0383 11.6079 24.525 11.6746 25.085H10.1746C10.0879 24.5717 9.87789 24.185 9.54456 23.925C9.21123 23.6583 8.81456 23.525 8.35456 23.525C7.94789 23.525 7.58789 23.6217 7.27456 23.815C6.96789 24.0083 6.72789 24.2883 6.55456 24.655C6.38122 25.015 6.29456 25.4517 6.29456 25.965C6.29456 26.485 6.38122 26.935 6.55456 27.315C6.73456 27.6883 6.98123 27.9783 7.29456 28.185C7.60789 28.385 7.96789 28.485 8.37456 28.485C8.80789 28.485 9.19123 28.355 9.52456 28.095C9.85789 27.835 10.0746 27.4483 10.1746 26.935H11.6946C11.6079 27.495 11.4112 27.985 11.1046 28.405C10.7979 28.8183 10.4079 29.1383 9.93456 29.365C9.46123 29.5917 8.93123 29.705 8.34456 29.705Z" fill="white"/>
<path d="M15.3946 29.695C14.4612 29.695 13.7146 29.4883 13.1546 29.075C12.5946 28.655 12.2679 28.065 12.1746 27.305H13.6546C13.7012 27.6917 13.8879 27.9983 14.2146 28.225C14.5412 28.445 14.9579 28.555 15.4646 28.555C15.8779 28.555 16.1946 28.4817 16.4146 28.335C16.6412 28.1883 16.7546 27.9917 16.7546 27.745C16.7546 27.5117 16.6879 27.325 16.5546 27.185C16.4212 27.0383 16.1912 26.9217 15.8646 26.835L14.5246 26.465C13.8379 26.2717 13.3346 26.0083 13.0146 25.675C12.7012 25.335 12.5446 24.9117 12.5446 24.405C12.5446 23.9717 12.6546 23.5983 12.8746 23.285C13.1012 22.965 13.4179 22.7217 13.8246 22.555C14.2312 22.3817 14.7079 22.295 15.2546 22.295C16.0946 22.295 16.7646 22.495 17.2646 22.895C17.7646 23.2883 18.0479 23.8117 18.1146 24.465H16.6346C16.5679 24.1117 16.4046 23.8517 16.1446 23.685C15.8912 23.5183 15.5646 23.435 15.1646 23.435C14.8179 23.435 14.5412 23.5017 14.3346 23.635C14.1279 23.7683 14.0246 23.9483 14.0246 24.175C14.0246 24.3483 14.0812 24.5083 14.1946 24.655C14.3079 24.795 14.5446 24.915 14.9046 25.015L16.2446 25.385C16.9512 25.5783 17.4579 25.845 17.7646 26.185C18.0779 26.5183 18.2346 26.9417 18.2346 27.455C18.2346 28.175 17.9846 28.7283 17.4846 29.115C16.9846 29.5017 16.2879 29.695 15.3946 29.695Z" fill="white"/>
<path d="M20.9655 29.605L18.3855 22.405H19.9855L21.9555 28.405H21.7655L23.7455 22.405H25.2655L22.6855 29.605H20.9655Z" fill="white"/>
</svg>
