<svg width="40" height="40" viewBox="0 0 40 40" fill="none" xmlns="http://www.w3.org/2000/svg">
<path d="M4 4C4 1.79086 5.79086 0 8 0H24L36 12V36C36 38.2091 34.2091 40 32 40H8C5.79086 40 4 38.2091 4 36V4Z" fill="#0F6AF5"/>
<path opacity="0.3" d="M24 0L36 12H28C25.7909 12 24 10.2091 24 8V0Z" fill="white"/>
<path d="M10.8854 32V30.92H12.5234C12.9914 30.92 13.3874 30.827 13.7114 30.641C14.0414 30.449 14.2904 30.188 14.4584 29.858C14.6324 29.528 14.7194 29.15 14.7194 28.724C14.7194 28.304 14.6354 27.935 14.4674 27.617C14.2994 27.299 14.0504 27.05 13.7204 26.87C13.3964 26.69 12.9974 26.6 12.5234 26.6H10.9124V25.52H12.5234C13.2494 25.52 13.8824 25.652 14.4224 25.916C14.9624 26.174 15.3794 26.546 15.6734 27.032C15.9734 27.512 16.1234 28.082 16.1234 28.742C16.1234 29.402 15.9734 29.978 15.6734 30.47C15.3734 30.956 14.9534 31.334 14.4134 31.604C13.8794 31.868 13.2524 32 12.5324 32H10.8854ZM10.0394 32V25.52H11.4254V32H10.0394Z" fill="white"/>
<path d="M20.027 32.09C19.547 32.09 19.103 32.009 18.695 31.847C18.293 31.685 17.942 31.457 17.642 31.163C17.348 30.863 17.117 30.509 16.949 30.101C16.787 29.687 16.706 29.231 16.706 28.733C16.706 28.073 16.847 27.497 17.129 27.005C17.411 26.507 17.801 26.12 18.299 25.844C18.803 25.568 19.376 25.43 20.018 25.43C20.672 25.43 21.248 25.568 21.746 25.844C22.244 26.12 22.634 26.507 22.916 27.005C23.204 27.503 23.348 28.082 23.348 28.742C23.348 29.234 23.264 29.687 23.096 30.101C22.934 30.509 22.703 30.863 22.403 31.163C22.109 31.457 21.758 31.685 21.35 31.847C20.948 32.009 20.507 32.09 20.027 32.09ZM20.018 30.992C20.396 30.992 20.729 30.896 21.017 30.704C21.305 30.512 21.53 30.248 21.692 29.912C21.86 29.57 21.944 29.174 21.944 28.724C21.944 28.28 21.863 27.893 21.701 27.563C21.539 27.233 21.314 26.978 21.026 26.798C20.738 26.618 20.402 26.528 20.018 26.528C19.64 26.528 19.307 26.618 19.019 26.798C18.731 26.978 18.506 27.233 18.344 27.563C18.188 27.887 18.11 28.274 18.11 28.724C18.11 29.18 18.191 29.579 18.353 29.921C18.515 30.257 18.74 30.521 19.028 30.713C19.316 30.899 19.646 30.992 20.018 30.992Z" fill="white"/>
<path d="M27.1797 32.09C26.7117 32.09 26.2797 32.009 25.8837 31.847C25.4877 31.679 25.1427 31.445 24.8487 31.145C24.5607 30.845 24.3357 30.491 24.1737 30.083C24.0117 29.669 23.9307 29.219 23.9307 28.733C23.9307 28.247 24.0087 27.803 24.1647 27.401C24.3267 26.999 24.5517 26.651 24.8397 26.357C25.1337 26.057 25.4787 25.829 25.8747 25.673C26.2707 25.511 26.7057 25.43 27.1797 25.43C27.7137 25.43 28.1937 25.535 28.6197 25.745C29.0517 25.949 29.4027 26.24 29.6727 26.618C29.9487 26.99 30.1167 27.428 30.1767 27.932H28.8267C28.7487 27.47 28.5597 27.122 28.2597 26.888C27.9597 26.648 27.6027 26.528 27.1887 26.528C26.8227 26.528 26.4987 26.615 26.2167 26.789C25.9407 26.963 25.7247 27.215 25.5687 27.545C25.4127 27.869 25.3347 28.262 25.3347 28.724C25.3347 29.192 25.4127 29.597 25.5687 29.939C25.7307 30.275 25.9527 30.536 26.2347 30.722C26.5167 30.902 26.8407 30.992 27.2067 30.992C27.5967 30.992 27.9417 30.875 28.2417 30.641C28.5417 30.407 28.7367 30.059 28.8267 29.597H30.1947C30.1167 30.101 29.9397 30.542 29.6637 30.92C29.3877 31.292 29.0367 31.58 28.6107 31.784C28.1847 31.988 27.7077 32.09 27.1797 32.09Z" fill="white"/>
</svg>
