<svg width="40" height="40" viewBox="0 0 40 40" fill="none" xmlns="http://www.w3.org/2000/svg">
<path d="M7.75 4C7.75 2.20508 9.20508 0.75 11 0.75H27C27.1212 0.75 27.2375 0.798159 27.3232 0.883885L38.1161 11.6768C38.2018 11.7625 38.25 11.8788 38.25 12V36C38.25 37.7949 36.7949 39.25 35 39.25H11C9.20507 39.25 7.75 37.7949 7.75 36V4Z" fill="white" stroke="#EAECF0" stroke-width="1.5"/>
<path d="M27 0.5V8C27 10.2091 28.7909 12 31 12H38.5" stroke="#EAECF0" stroke-width="1.5"/>
<rect x="0.302612" y="18" width="30.3948" height="16" rx="2" fill="#0F6AF5"/>
<path d="M5.24261 29.6V28.4H7.06261C7.58261 28.4 8.02261 28.2967 8.38261 28.09C8.74928 27.8767 9.02595 27.5867 9.21261 27.22C9.40595 26.8533 9.50261 26.4333 9.50261 25.96C9.50261 25.4933 9.40928 25.0833 9.22261 24.73C9.03595 24.3767 8.75928 24.1 8.39261 23.9C8.03261 23.7 7.58928 23.6 7.06261 23.6H5.27261V22.4H7.06261C7.86928 22.4 8.57261 22.5467 9.17261 22.84C9.77261 23.1267 10.2359 23.54 10.5626 24.08C10.8959 24.6133 11.0626 25.2467 11.0626 25.98C11.0626 26.7133 10.8959 27.3533 10.5626 27.9C10.2293 28.44 9.76261 28.86 9.16261 29.16C8.56928 29.4533 7.87261 29.6 7.07261 29.6H5.24261ZM4.30261 29.6V22.4H5.84261V29.6H4.30261Z" fill="white"/>
<path d="M15.4 29.7C14.8667 29.7 14.3734 29.61 13.92 29.43C13.4734 29.25 13.0834 28.9967 12.75 28.67C12.4234 28.3367 12.1667 27.9433 11.98 27.49C11.8 27.03 11.71 26.5233 11.71 25.97C11.71 25.2367 11.8667 24.5967 12.18 24.05C12.4934 23.4967 12.9267 23.0667 13.48 22.76C14.04 22.4533 14.6767 22.3 15.39 22.3C16.1167 22.3 16.7567 22.4533 17.31 22.76C17.8634 23.0667 18.2967 23.4967 18.61 24.05C18.93 24.6033 19.09 25.2467 19.09 25.98C19.09 26.5267 18.9967 27.03 18.81 27.49C18.63 27.9433 18.3734 28.3367 18.04 28.67C17.7134 28.9967 17.3234 29.25 16.87 29.43C16.4234 29.61 15.9334 29.7 15.4 29.7ZM15.39 28.48C15.81 28.48 16.18 28.3733 16.5 28.16C16.82 27.9467 17.07 27.6533 17.25 27.28C17.4367 26.9 17.53 26.46 17.53 25.96C17.53 25.4667 17.44 25.0367 17.26 24.67C17.08 24.3033 16.83 24.02 16.51 23.82C16.19 23.62 15.8167 23.52 15.39 23.52C14.97 23.52 14.6 23.62 14.28 23.82C13.96 24.02 13.71 24.3033 13.53 24.67C13.3567 25.03 13.27 25.46 13.27 25.96C13.27 26.4667 13.36 26.91 13.54 27.29C13.72 27.6633 13.97 27.9567 14.29 28.17C14.61 28.3767 14.9767 28.48 15.39 28.48Z" fill="white"/>
<path d="M23.3474 29.7C22.8274 29.7 22.3474 29.61 21.9074 29.43C21.4674 29.2433 21.084 28.9833 20.7574 28.65C20.4374 28.3167 20.1874 27.9233 20.0074 27.47C19.8274 27.01 19.7374 26.51 19.7374 25.97C19.7374 25.43 19.824 24.9367 19.9974 24.49C20.1774 24.0433 20.4274 23.6567 20.7474 23.33C21.074 22.9967 21.4574 22.7433 21.8974 22.57C22.3374 22.39 22.8207 22.3 23.3474 22.3C23.9407 22.3 24.474 22.4167 24.9474 22.65C25.4274 22.8767 25.8174 23.2 26.1174 23.62C26.424 24.0333 26.6107 24.52 26.6774 25.08H25.1774C25.0907 24.5667 24.8807 24.18 24.5474 23.92C24.214 23.6533 23.8174 23.52 23.3574 23.52C22.9507 23.52 22.5907 23.6167 22.2774 23.81C21.9707 24.0033 21.7307 24.2833 21.5574 24.65C21.384 25.01 21.2974 25.4467 21.2974 25.96C21.2974 26.48 21.384 26.93 21.5574 27.31C21.7374 27.6833 21.984 27.9733 22.2974 28.18C22.6107 28.38 22.9707 28.48 23.3774 28.48C23.8107 28.48 24.194 28.35 24.5274 28.09C24.8607 27.83 25.0774 27.4433 25.1774 26.93H26.6974C26.6107 27.49 26.414 27.98 26.1074 28.4C25.8007 28.8133 25.4107 29.1333 24.9374 29.36C24.464 29.5867 23.934 29.7 23.3474 29.7Z" fill="white"/>
</svg>
