<svg width="40" height="40" viewBox="0 0 40 40" fill="none" xmlns="http://www.w3.org/2000/svg">
<path d="M4.75 4C4.75 2.20508 6.20508 0.75 8 0.75H24C24.1212 0.75 24.2375 0.798159 24.3232 0.883885L35.1161 11.6768C35.2018 11.7625 35.25 11.8788 35.25 12V36C35.25 37.7949 33.7949 39.25 32 39.25H8C6.20507 39.25 4.75 37.7949 4.75 36V4Z" fill="white" stroke="#EAECF0" stroke-width="1.5"/>
<path d="M24 0.5V8C24 10.2091 25.7909 12 28 12H35.5" stroke="#EAECF0" stroke-width="1.5"/>
<path fill-rule="evenodd" clip-rule="evenodd" d="M11.15 19.5C11.15 19.0858 11.4857 18.75 11.9 18.75H28.1C28.5142 18.75 28.85 19.0858 28.85 19.5C28.85 19.9142 28.5142 20.25 28.1 20.25H11.9C11.4857 20.25 11.15 19.9142 11.15 19.5ZM11.15 23.1C11.15 22.6858 11.4857 22.35 11.9 22.35H28.1C28.5142 22.35 28.85 22.6858 28.85 23.1C28.85 23.5142 28.5142 23.85 28.1 23.85H11.9C11.4857 23.85 11.15 23.5142 11.15 23.1ZM11.15 26.7C11.15 26.2858 11.4857 25.95 11.9 25.95H28.1C28.5142 25.95 28.85 26.2858 28.85 26.7C28.85 27.1142 28.5142 27.45 28.1 27.45H11.9C11.4857 27.45 11.15 27.1142 11.15 26.7ZM11.15 30.3C11.15 29.8858 11.4857 29.55 11.9 29.55H24.5C24.9142 29.55 25.25 29.8858 25.25 30.3C25.25 30.7142 24.9142 31.05 24.5 31.05H11.9C11.4857 31.05 11.15 30.7142 11.15 30.3Z" fill="#0F6AF5"/>
</svg>
