<svg width="40" height="40" viewBox="0 0 40 40" fill="none" xmlns="http://www.w3.org/2000/svg">
<path d="M4 4C4 1.79086 5.79086 0 8 0H24L36 12V36C36 38.2091 34.2091 40 32 40H8C5.79086 40 4 38.2091 4 36V4Z" fill="#0F6AF5"/>
<path opacity="0.3" d="M24 0L36 12H28C25.7909 12 24 10.2091 24 8V0Z" fill="white"/>
<path fill-rule="evenodd" clip-rule="evenodd" d="M12.05 20C12.05 19.5858 12.3857 19.25 12.8 19.25H27.2C27.6142 19.25 27.95 19.5858 27.95 20C27.95 20.4142 27.6142 20.75 27.2 20.75H12.8C12.3857 20.75 12.05 20.4142 12.05 20ZM12.05 23.2C12.05 22.7858 12.3857 22.45 12.8 22.45H27.2C27.6142 22.45 27.95 22.7858 27.95 23.2C27.95 23.6142 27.6142 23.95 27.2 23.95H12.8C12.3857 23.95 12.05 23.6142 12.05 23.2ZM12.05 26.4C12.05 25.9858 12.3857 25.65 12.8 25.65H27.2C27.6142 25.65 27.95 25.9858 27.95 26.4C27.95 26.8142 27.6142 27.15 27.2 27.15H12.8C12.3857 27.15 12.05 26.8142 12.05 26.4ZM12.05 29.6C12.05 29.1858 12.3857 28.85 12.8 28.85H24C24.4142 28.85 24.75 29.1858 24.75 29.6C24.75 30.0142 24.4142 30.35 24 30.35H12.8C12.3857 30.35 12.05 30.0142 12.05 29.6Z" fill="white"/>
</svg>
