<svg width="40" height="40" viewBox="0 0 40 40" fill="none" xmlns="http://www.w3.org/2000/svg">
<path d="M4 4C4 1.79086 5.79086 0 8 0H24L36 12V36C36 38.2091 34.2091 40 32 40H8C5.79086 40 4 38.2091 4 36V4Z" fill="url(#paint0_linear_264_26000)"/>
<path d="M24 0L36 12H28C25.7909 12 24 10.2091 24 8V0Z" fill="#EAECF0"/>
<path d="M11.7444 32V25.52H13.1304V32H11.7444ZM12.3924 32V30.938H16.5684V32H12.3924ZM12.3924 29.21V28.166H16.2534V29.21H12.3924ZM12.3924 26.582V25.52H16.4604V26.582H12.3924Z" fill="#36383A"/>
<path d="M17.3782 32V25.52H20.4562C20.9362 25.52 21.3472 25.604 21.6892 25.772C22.0372 25.94 22.3042 26.174 22.4902 26.474C22.6822 26.774 22.7782 27.125 22.7782 27.527C22.7782 27.929 22.6822 28.283 22.4902 28.589C22.2982 28.895 22.0282 29.135 21.6802 29.309C21.3382 29.477 20.9302 29.561 20.4562 29.561H18.4762V28.499H20.3842C20.7022 28.499 20.9482 28.412 21.1222 28.238C21.3022 28.058 21.3922 27.824 21.3922 27.536C21.3922 27.248 21.3022 27.017 21.1222 26.843C20.9482 26.669 20.7022 26.582 20.3842 26.582H18.7642V32H17.3782Z" fill="#36383A"/>
<path d="M25.9485 32.081C25.1085 32.081 24.4365 31.895 23.9325 31.523C23.4285 31.145 23.1345 30.614 23.0505 29.93H24.3825C24.4245 30.278 24.5925 30.554 24.8865 30.758C25.1805 30.956 25.5555 31.055 26.0115 31.055C26.3835 31.055 26.6685 30.989 26.8665 30.857C27.0705 30.725 27.1725 30.548 27.1725 30.326C27.1725 30.116 27.1125 29.948 26.9925 29.822C26.8725 29.69 26.6655 29.585 26.3715 29.507L25.1655 29.174C24.5475 29 24.0945 28.763 23.8065 28.463C23.5245 28.157 23.3835 27.776 23.3835 27.32C23.3835 26.93 23.4825 26.594 23.6805 26.312C23.8845 26.024 24.1695 25.805 24.5355 25.655C24.9015 25.499 25.3305 25.421 25.8225 25.421C26.5785 25.421 27.1815 25.601 27.6315 25.961C28.0815 26.315 28.3365 26.786 28.3965 27.374H27.0645C27.0045 27.056 26.8575 26.822 26.6235 26.672C26.3955 26.522 26.1015 26.447 25.7415 26.447C25.4295 26.447 25.1805 26.507 24.9945 26.627C24.8085 26.747 24.7155 26.909 24.7155 27.113C24.7155 27.269 24.7665 27.413 24.8685 27.545C24.9705 27.671 25.1835 27.779 25.5075 27.869L26.7135 28.202C27.3495 28.376 27.8055 28.616 28.0815 28.922C28.3635 29.222 28.5045 29.603 28.5045 30.065C28.5045 30.713 28.2795 31.211 27.8295 31.559C27.3795 31.907 26.7525 32.081 25.9485 32.081Z" fill="#36383A"/>
<defs>
<linearGradient id="paint0_linear_264_26000" x1="20" y1="0" x2="20" y2="40" gradientUnits="userSpaceOnUse">
<stop stop-color="#F9FAFB"/>
<stop offset="1" stop-color="#EDF0F3"/>
</linearGradient>
</defs>
</svg>
