<svg width="40" height="40" viewBox="0 0 40 40" fill="none" xmlns="http://www.w3.org/2000/svg">
<path d="M7.75 4C7.75 2.20508 9.20508 0.75 11 0.75H27C27.1212 0.75 27.2375 0.798159 27.3232 0.883885L38.1161 11.6768C38.2018 11.7625 38.25 11.8788 38.25 12V36C38.25 37.7949 36.7949 39.25 35 39.25H11C9.20507 39.25 7.75 37.7949 7.75 36V4Z" fill="white" stroke="#EAECF0" stroke-width="1.5"/>
<path d="M27 0.5V8C27 10.2091 28.7909 12 31 12H38.5" stroke="#EAECF0" stroke-width="1.5"/>
<rect x="0.688873" y="18" width="26.6223" height="16" rx="2" fill="#0F6AF5"/>
<path d="M4.68887 29.61V22.41H6.22887V29.61H4.68887ZM5.40887 29.61V28.43H10.0489V29.61H5.40887ZM5.40887 26.51V25.35H9.69887V26.51H5.40887ZM5.40887 23.59V22.41H9.92887V23.59H5.40887Z" fill="white"/>
<path d="M10.9486 29.61V22.41H14.3686C14.902 22.41 15.3586 22.5033 15.7386 22.69C16.1253 22.8767 16.422 23.1367 16.6286 23.47C16.842 23.8033 16.9486 24.1933 16.9486 24.64C16.9486 25.0867 16.842 25.48 16.6286 25.82C16.4153 26.16 16.1153 26.4267 15.7286 26.62C15.3486 26.8067 14.8953 26.9 14.3686 26.9H12.1686V25.72H14.2886C14.642 25.72 14.9153 25.6233 15.1086 25.43C15.3086 25.23 15.4086 24.97 15.4086 24.65C15.4086 24.33 15.3086 24.0733 15.1086 23.88C14.9153 23.6867 14.642 23.59 14.2886 23.59H12.4886V29.61H10.9486Z" fill="white"/>
<path d="M20.4711 29.7C19.5378 29.7 18.7911 29.4933 18.2311 29.08C17.6711 28.66 17.3445 28.07 17.2511 27.31H18.7311C18.7778 27.6967 18.9645 28.0033 19.2911 28.23C19.6178 28.45 20.0345 28.56 20.5411 28.56C20.9545 28.56 21.2711 28.4867 21.4911 28.34C21.7178 28.1933 21.8311 27.9967 21.8311 27.75C21.8311 27.5167 21.7645 27.33 21.6311 27.19C21.4978 27.0433 21.2678 26.9267 20.9411 26.84L19.6011 26.47C18.9145 26.2767 18.4111 26.0133 18.0911 25.68C17.7778 25.34 17.6211 24.9167 17.6211 24.41C17.6211 23.9767 17.7311 23.6033 17.9511 23.29C18.1778 22.97 18.4945 22.7267 18.9011 22.56C19.3078 22.3867 19.7845 22.3 20.3311 22.3C21.1711 22.3 21.8411 22.5 22.3411 22.9C22.8411 23.2933 23.1245 23.8167 23.1911 24.47H21.7111C21.6445 24.1167 21.4811 23.8567 21.2211 23.69C20.9678 23.5233 20.6411 23.44 20.2411 23.44C19.8945 23.44 19.6178 23.5067 19.4111 23.64C19.2045 23.7733 19.1011 23.9533 19.1011 24.18C19.1011 24.3533 19.1578 24.5133 19.2711 24.66C19.3845 24.8 19.6211 24.92 19.9811 25.02L21.3211 25.39C22.0278 25.5833 22.5345 25.85 22.8411 26.19C23.1545 26.5233 23.3111 26.9467 23.3111 27.46C23.3111 28.18 23.0611 28.7333 22.5611 29.12C22.0611 29.5067 21.3645 29.7 20.4711 29.7Z" fill="white"/>
</svg>
