<svg width="40" height="40" viewBox="0 0 40 40" fill="none" xmlns="http://www.w3.org/2000/svg">
<path d="M7.75 4C7.75 2.20508 9.20508 0.75 11 0.75H27C27.1212 0.75 27.2375 0.798159 27.3232 0.883885L38.1161 11.6768C38.2018 11.7625 38.25 11.8788 38.25 12V36C38.25 37.7949 36.7949 39.25 35 39.25H11C9.20507 39.25 7.75 37.7949 7.75 36V4Z" fill="white" stroke="#EAECF0" stroke-width="1.5"/>
<path d="M27 0.5V8C27 10.2091 28.7909 12 31 12H38.5" stroke="#EAECF0" stroke-width="1.5"/>
<rect x="0.776993" y="18" width="23.446" height="16" rx="2" fill="#0F6AF5"/>
<path d="M8.53699 29.7C7.75699 29.7 7.08699 29.5467 6.52699 29.24C5.96699 28.9333 5.53366 28.5033 5.22699 27.95C4.92699 27.3967 4.77699 26.75 4.77699 26.01C4.77699 25.2767 4.93033 24.6333 5.23699 24.08C5.54366 23.52 5.96699 23.0833 6.50699 22.77C7.05366 22.4567 7.68699 22.3 8.40699 22.3C9.00033 22.3 9.53033 22.4067 9.99699 22.62C10.4703 22.8333 10.8503 23.1267 11.137 23.5C11.4303 23.8667 11.6037 24.2933 11.657 24.78H10.117C10.0503 24.3867 9.86366 24.08 9.55699 23.86C9.25699 23.6333 8.88033 23.52 8.42699 23.52C8.00699 23.52 7.64033 23.62 7.32699 23.82C7.01366 24.0133 6.77033 24.2933 6.59699 24.66C6.42366 25.0267 6.33699 25.4667 6.33699 25.98C6.33699 26.5133 6.42366 26.97 6.59699 27.35C6.77033 27.7233 7.02366 28.01 7.35699 28.21C7.69699 28.4033 8.11366 28.5 8.60699 28.5C9.00699 28.5 9.34699 28.45 9.62699 28.35C9.90699 28.25 10.1203 28.11 10.267 27.93L11.727 28.51C11.3403 28.8967 10.8903 29.1933 10.377 29.4C9.87033 29.6 9.25699 29.7 8.53699 29.7ZM10.187 28.51V26.53L10.497 26.84H8.59699V25.66H11.727V28.51H10.187Z" fill="white"/>
<path d="M12.6039 29.6V22.4H14.1439V29.6H12.6039Z" fill="white"/>
<path d="M15.143 29.6V22.4H16.683V29.6H15.143ZM15.863 26.81V25.63H19.993V26.81H15.863ZM15.863 23.58V22.4H20.223V23.58H15.863Z" fill="white"/>
</svg>
