<svg width="40" height="40" viewBox="0 0 40 40" fill="none" xmlns="http://www.w3.org/2000/svg">
<path d="M4 4C4 1.79086 5.79086 0 8 0H24L36 12V36C36 38.2091 34.2091 40 32 40H8C5.79086 40 4 38.2091 4 36V4Z" fill="url(#paint0_linear_264_26542)"/>
<path d="M24 0L36 12H28C25.7909 12 24 10.2091 24 8V0Z" fill="#EAECF0"/>
<path d="M7.51251 32V25.52H8.89851V32H7.51251ZM11.7065 32V25.52H13.0925V32H11.7065ZM8.16051 28.094H12.3365V29.156H8.16051V28.094Z" fill="#36383A"/>
<path d="M15.8711 32V26.582H13.7561V25.52H19.3721V26.582H17.2571V32H15.8711Z" fill="#36383A"/>
<path d="M20.0369 32V25.52H22.1969L23.9969 31.766H23.2139L25.0139 25.52H27.1829V32H25.8149V25.907H26.0489L24.2939 32H22.8629L21.1259 25.961H21.3509V32H20.0369Z" fill="#36383A"/>
<path d="M28.0789 32V25.52H29.4649V32H28.0789ZM28.7269 32V30.938H32.5789V32H28.7269Z" fill="#36383A"/>
<defs>
<linearGradient id="paint0_linear_264_26542" x1="20" y1="0" x2="20" y2="40" gradientUnits="userSpaceOnUse">
<stop stop-color="#F9FAFB"/>
<stop offset="1" stop-color="#EDF0F3"/>
</linearGradient>
</defs>
</svg>
