<svg width="40" height="40" viewBox="0 0 40 40" fill="none" xmlns="http://www.w3.org/2000/svg">
<path d="M4 4C4 1.79086 5.79086 0 8 0H24L36 12V36C36 38.2091 34.2091 40 32 40H8C5.79086 40 4 38.2091 4 36V4Z" fill="#0F6AF5"/>
<path opacity="0.3" d="M24 0L36 12H28C25.7909 12 24 10.2091 24 8V0Z" fill="white"/>
<path fill-rule="evenodd" clip-rule="evenodd" d="M23.9999 18.75C23.3096 18.75 22.7499 19.3096 22.7499 20C22.7499 20.6904 23.3096 21.25 23.9999 21.25C24.6903 21.25 25.2499 20.6904 25.2499 20C25.2499 19.3096 24.6903 18.75 23.9999 18.75ZM21.2499 20C21.2499 18.4812 22.4812 17.25 23.9999 17.25C25.5187 17.25 26.7499 18.4812 26.7499 20C26.7499 21.5188 25.5187 22.75 23.9999 22.75C22.4812 22.75 21.2499 21.5188 21.2499 20ZM18.1331 21.1922C18.4752 21.0531 18.858 21.0531 19.2001 21.1922C19.4612 21.2983 19.6396 21.4813 19.7648 21.6313C19.8836 21.7735 20.0108 21.9573 20.1441 22.1499L21.9381 24.7412C22.036 24.5957 22.1299 24.4606 22.2192 24.35C22.3442 24.195 22.524 24.0038 22.7906 23.8932C23.138 23.7492 23.5285 23.7492 23.876 23.8932C24.1426 24.0038 24.3224 24.195 24.4474 24.35C24.5667 24.4979 24.6943 24.6895 24.8289 24.8913L26.8691 27.9517C27.0337 28.1985 27.1848 28.425 27.2895 28.6183C27.3942 28.8116 27.5214 29.0894 27.5017 29.4178C27.4771 29.8313 27.2726 30.2132 26.9423 30.4631C26.68 30.6616 26.3783 30.7099 26.1593 30.73C25.9405 30.75 25.6682 30.75 25.3716 30.75H14.6708C14.3684 30.75 14.0917 30.75 13.8698 30.7297C13.6489 30.7095 13.3427 30.6608 13.0784 30.4586C12.7466 30.2049 12.5437 29.8176 12.5239 29.4004C12.5082 29.0679 12.6424 28.7885 12.7515 28.5954C12.8611 28.4014 13.0186 28.1739 13.1908 27.9252L17.173 22.1732C17.1784 22.1654 17.1837 22.1577 17.1891 22.1499C17.3224 21.9573 17.4496 21.7735 17.5684 21.6313C17.6937 21.4813 17.872 21.2983 18.1331 21.1922ZM21.3233 26.4883C21.3296 26.498 21.3362 26.5074 21.3429 26.5168L23.2352 29.25H14.7024C14.4333 29.25 14.2484 29.2495 14.1114 29.243C14.184 29.1266 14.2888 28.9744 14.4421 28.7531L18.4063 23.027C18.525 22.8555 18.6046 22.7413 18.6666 22.6597C18.7287 22.7413 18.8082 22.8555 18.927 23.027L21.3233 26.4883ZM25.0596 29.25L22.8563 26.0675L23.0698 25.7473C23.1896 25.5676 23.2702 25.4475 23.3333 25.3615C23.3964 25.4475 23.4769 25.5676 23.5968 25.7473L25.6037 28.7577C25.7501 28.9773 25.8501 29.1281 25.9191 29.2432C25.7851 29.2495 25.6042 29.25 25.3402 29.25H25.0596Z" fill="white"/>
</svg>
