<svg width="40" height="40" viewBox="0 0 40 40" fill="none" xmlns="http://www.w3.org/2000/svg">
<path d="M7.75 4C7.75 2.20508 9.20508 0.75 11 0.75H27C27.1212 0.75 27.2375 0.798159 27.3232 0.883885L38.1161 11.6768C38.2018 11.7625 38.25 11.8788 38.25 12V36C38.25 37.7949 36.7949 39.25 35 39.25H11C9.20507 39.25 7.75 37.7949 7.75 36V4Z" fill="white" stroke="#EAECF0" stroke-width="1.5"/>
<path d="M27 0.5V8C27 10.2091 28.7909 12 31 12H38.5" stroke="#EAECF0" stroke-width="1.5"/>
<rect x="0.472538" y="18" width="32.0549" height="16" rx="2" fill="#D444F1"/>
<path d="M4.47254 29.6V22.4H6.01254V29.6H4.47254Z" fill="white"/>
<path d="M7.0116 29.6V22.4H9.0016L12.2016 28.76L11.7116 28.88V22.4H13.2116V29.6H11.2216L8.0216 23.24L8.5116 23.12V29.6H7.0116Z" fill="white"/>
<path d="M15.1489 29.6V28.4H16.9689C17.4889 28.4 17.9289 28.2967 18.2889 28.09C18.6555 27.8767 18.9322 27.5867 19.1189 27.22C19.3122 26.8533 19.4089 26.4333 19.4089 25.96C19.4089 25.4933 19.3155 25.0833 19.1289 24.73C18.9422 24.3767 18.6655 24.1 18.2989 23.9C17.9389 23.7 17.4955 23.6 16.9689 23.6H15.1789V22.4H16.9689C17.7755 22.4 18.4789 22.5467 19.0789 22.84C19.6789 23.1267 20.1422 23.54 20.4689 24.08C20.8022 24.6133 20.9689 25.2467 20.9689 25.98C20.9689 26.7133 20.8022 27.3533 20.4689 27.9C20.1355 28.44 19.6689 28.86 19.0689 29.16C18.4755 29.4533 17.7789 29.6 16.9789 29.6H15.1489ZM14.2089 29.6V22.4H15.7489V29.6H14.2089Z" fill="white"/>
<path d="M22.7075 29.6V28.4H24.5275C25.0475 28.4 25.4875 28.2967 25.8475 28.09C26.2141 27.8767 26.4908 27.5867 26.6775 27.22C26.8708 26.8533 26.9675 26.4333 26.9675 25.96C26.9675 25.4933 26.8741 25.0833 26.6875 24.73C26.5008 24.3767 26.2241 24.1 25.8575 23.9C25.4975 23.7 25.0541 23.6 24.5275 23.6H22.7375V22.4H24.5275C25.3341 22.4 26.0375 22.5467 26.6375 22.84C27.2375 23.1267 27.7008 23.54 28.0275 24.08C28.3608 24.6133 28.5275 25.2467 28.5275 25.98C28.5275 26.7133 28.3608 27.3533 28.0275 27.9C27.6941 28.44 27.2275 28.86 26.6275 29.16C26.0341 29.4533 25.3375 29.6 24.5375 29.6H22.7075ZM21.7675 29.6V22.4H23.3075V29.6H21.7675Z" fill="white"/>
</svg>
