<svg width="40" height="40" viewBox="0 0 40 40" fill="none" xmlns="http://www.w3.org/2000/svg">
<path d="M4 4C4 1.79086 5.79086 0 8 0H24L36 12V36C36 38.2091 34.2091 40 32 40H8C5.79086 40 4 38.2091 4 36V4Z" fill="url(#paint0_linear_264_26654)"/>
<path d="M24 0L36 12H28C25.7909 12 24 10.2091 24 8V0Z" fill="#EAECF0"/>
<path d="M10.6723 32.09C10.4443 32.09 10.2253 32.072 10.0153 32.036C9.80531 32.006 9.65231 31.967 9.55631 31.919V30.857C9.66431 30.899 9.79331 30.935 9.94331 30.965C10.0933 30.995 10.2463 31.01 10.4023 31.01C10.7383 31.01 10.9813 30.956 11.1313 30.848C11.2873 30.734 11.3653 30.53 11.3653 30.236V25.52H12.7513V30.299C12.7513 30.899 12.5743 31.349 12.2203 31.649C11.8663 31.943 11.3503 32.09 10.6723 32.09Z" fill="#36383A"/>
<path d="M13.1364 32L15.4584 25.52H16.6464L14.5134 32H13.1364ZM17.8884 32L15.7644 25.52H17.0064L19.3284 32H17.8884ZM14.3604 29.489H17.9964V30.569H14.3604V29.489Z" fill="#36383A"/>
<path d="M20.9516 32L18.6296 25.52H20.0696L21.8426 30.92H21.6716L23.4536 25.52H24.8216L22.4996 32H20.9516Z" fill="#36383A"/>
<path d="M24.1227 32L26.4447 25.52H27.6327L25.4997 32H24.1227ZM28.8747 32L26.7507 25.52H27.9927L30.3147 32H28.8747ZM25.3467 29.489H28.9827V30.569H25.3467V29.489Z" fill="#36383A"/>
<defs>
<linearGradient id="paint0_linear_264_26654" x1="20" y1="0" x2="20" y2="40" gradientUnits="userSpaceOnUse">
<stop stop-color="#F9FAFB"/>
<stop offset="1" stop-color="#EDF0F3"/>
</linearGradient>
</defs>
</svg>
