<svg width="40" height="40" viewBox="0 0 40 40" fill="none" xmlns="http://www.w3.org/2000/svg">
<path d="M4 4C4 1.79086 5.79086 0 8 0H24L36 12V36C36 38.2091 34.2091 40 32 40H8C5.79086 40 4 38.2091 4 36V4Z" fill="url(#paint0_linear_264_25904)"/>
<path d="M24 0L36 12H28C25.7909 12 24 10.2091 24 8V0Z" fill="#EAECF0"/>
<path d="M10.1977 32.09C9.9697 32.09 9.7507 32.072 9.5407 32.036C9.3307 32.006 9.1777 31.967 9.0817 31.919V30.857C9.1897 30.899 9.3187 30.935 9.4687 30.965C9.6187 30.995 9.7717 31.01 9.9277 31.01C10.2637 31.01 10.5067 30.956 10.6567 30.848C10.8127 30.734 10.8907 30.53 10.8907 30.236V25.52H12.2767V30.299C12.2767 30.899 12.0997 31.349 11.7457 31.649C11.3917 31.943 10.8757 32.09 10.1977 32.09Z" fill="#36383A"/>
<path d="M13.1595 32V25.52H16.2375C16.7175 25.52 17.1285 25.604 17.4705 25.772C17.8185 25.94 18.0855 26.174 18.2715 26.474C18.4635 26.774 18.5595 27.125 18.5595 27.527C18.5595 27.929 18.4635 28.283 18.2715 28.589C18.0795 28.895 17.8095 29.135 17.4615 29.309C17.1195 29.477 16.7115 29.561 16.2375 29.561H14.2575V28.499H16.1655C16.4835 28.499 16.7295 28.412 16.9035 28.238C17.0835 28.058 17.1735 27.824 17.1735 27.536C17.1735 27.248 17.0835 27.017 16.9035 26.843C16.7295 26.669 16.4835 26.582 16.1655 26.582H14.5455V32H13.1595Z" fill="#36383A"/>
<path d="M19.2063 32V25.52H20.5923V32H19.2063ZM19.8543 32V30.938H24.0303V32H19.8543ZM19.8543 29.21V28.166H23.7153V29.21H19.8543ZM19.8543 26.582V25.52H23.9223V26.582H19.8543Z" fill="#36383A"/>
<path d="M27.798 32.09C27.096 32.09 26.493 31.952 25.989 31.676C25.485 31.4 25.095 31.013 24.819 30.515C24.549 30.017 24.414 29.435 24.414 28.769C24.414 28.109 24.552 27.53 24.828 27.032C25.104 26.528 25.485 26.135 25.971 25.853C26.463 25.571 27.033 25.43 27.681 25.43C28.215 25.43 28.692 25.526 29.112 25.718C29.538 25.91 29.88 26.174 30.138 26.51C30.402 26.84 30.558 27.224 30.606 27.662H29.22C29.16 27.308 28.992 27.032 28.716 26.834C28.446 26.63 28.107 26.528 27.699 26.528C27.321 26.528 26.991 26.618 26.709 26.798C26.427 26.972 26.208 27.224 26.052 27.554C25.896 27.884 25.818 28.28 25.818 28.742C25.818 29.222 25.896 29.633 26.052 29.975C26.208 30.311 26.436 30.569 26.736 30.749C27.042 30.923 27.417 31.01 27.861 31.01C28.221 31.01 28.527 30.965 28.779 30.875C29.031 30.785 29.223 30.659 29.355 30.497L30.669 31.019C30.321 31.367 29.916 31.634 29.454 31.82C28.998 32 28.446 32.09 27.798 32.09ZM29.283 31.019V29.237L29.562 29.516H27.852V28.454H30.669V31.019H29.283Z" fill="#36383A"/>
<defs>
<linearGradient id="paint0_linear_264_25904" x1="20" y1="0" x2="20" y2="40" gradientUnits="userSpaceOnUse">
<stop stop-color="#F9FAFB"/>
<stop offset="1" stop-color="#EDF0F3"/>
</linearGradient>
</defs>
</svg>
