<svg width="40" height="40" viewBox="0 0 40 40" fill="none" xmlns="http://www.w3.org/2000/svg">
<path d="M7.75 4C7.75 2.20508 9.20508 0.75 11 0.75H27C27.1212 0.75 27.2375 0.798159 27.3232 0.883885L38.1161 11.6768C38.2018 11.7625 38.25 11.8788 38.25 12V36C38.25 37.7949 36.7949 39.25 35 39.25H11C9.20507 39.25 7.75 37.7949 7.75 36V4Z" fill="white" stroke="#EAECF0" stroke-width="1.5"/>
<path d="M27 0.5V8C27 10.2091 28.7909 12 31 12H38.5" stroke="#EAECF0" stroke-width="1.5"/>
<rect x="1.00703" y="18" width="31.9859" height="16" rx="2" fill="#0F6AF5"/>
<path d="M6.24703 29.7C5.9937 29.7 5.75036 29.68 5.51703 29.64C5.2837 29.6067 5.1137 29.5633 5.00703 29.51V28.33C5.12703 28.3767 5.27036 28.4167 5.43703 28.45C5.6037 28.4833 5.7737 28.5 5.94703 28.5C6.32036 28.5 6.59036 28.44 6.75703 28.32C6.93036 28.1933 7.01703 27.9667 7.01703 27.64V22.4H8.55703V27.71C8.55703 28.3767 8.36036 28.8767 7.96703 29.21C7.5737 29.5367 7.00036 29.7 6.24703 29.7Z" fill="white"/>
<path d="M9.53789 29.6V22.4H12.9579C13.4912 22.4 13.9479 22.4933 14.3279 22.68C14.7146 22.8667 15.0112 23.1267 15.2179 23.46C15.4312 23.7933 15.5379 24.1833 15.5379 24.63C15.5379 25.0767 15.4312 25.47 15.2179 25.81C15.0046 26.15 14.7046 26.4167 14.3179 26.61C13.9379 26.7967 13.4846 26.89 12.9579 26.89H10.7579V25.71H12.8779C13.2312 25.71 13.5046 25.6133 13.6979 25.42C13.8979 25.22 13.9979 24.96 13.9979 24.64C13.9979 24.32 13.8979 24.0633 13.6979 23.87C13.5046 23.6767 13.2312 23.58 12.8779 23.58H11.0779V29.6H9.53789Z" fill="white"/>
<path d="M16.2566 29.6V22.4H17.7966V29.6H16.2566ZM16.9766 29.6V28.42H21.6166V29.6H16.9766ZM16.9766 26.5V25.34H21.2666V26.5H16.9766ZM16.9766 23.58V22.4H21.4966V23.58H16.9766Z" fill="white"/>
<path d="M25.803 29.7C25.023 29.7 24.353 29.5467 23.793 29.24C23.233 28.9333 22.7996 28.5033 22.493 27.95C22.193 27.3967 22.043 26.75 22.043 26.01C22.043 25.2767 22.1963 24.6333 22.503 24.08C22.8096 23.52 23.233 23.0833 23.773 22.77C24.3196 22.4567 24.953 22.3 25.673 22.3C26.2663 22.3 26.7963 22.4067 27.263 22.62C27.7363 22.8333 28.1163 23.1267 28.403 23.5C28.6963 23.8667 28.8696 24.2933 28.923 24.78H27.383C27.3163 24.3867 27.1296 24.08 26.823 23.86C26.523 23.6333 26.1463 23.52 25.693 23.52C25.273 23.52 24.9063 23.62 24.593 23.82C24.2796 24.0133 24.0363 24.2933 23.863 24.66C23.6896 25.0267 23.603 25.4667 23.603 25.98C23.603 26.5133 23.6896 26.97 23.863 27.35C24.0363 27.7233 24.2896 28.01 24.623 28.21C24.963 28.4033 25.3796 28.5 25.873 28.5C26.273 28.5 26.613 28.45 26.893 28.35C27.173 28.25 27.3863 28.11 27.533 27.93L28.993 28.51C28.6063 28.8967 28.1563 29.1933 27.643 29.4C27.1363 29.6 26.523 29.7 25.803 29.7ZM27.453 28.51V26.53L27.763 26.84H25.863V25.66H28.993V28.51H27.453Z" fill="white"/>
</svg>
