<svg width="40" height="40" viewBox="0 0 40 40" fill="none" xmlns="http://www.w3.org/2000/svg">
<path d="M7.75 4C7.75 2.20508 9.20508 0.75 11 0.75H27C27.1212 0.75 27.2375 0.798159 27.3232 0.883885L38.1161 11.6768C38.2018 11.7625 38.25 11.8788 38.25 12V36C38.25 37.7949 36.7949 39.25 35 39.25H11C9.20507 39.25 7.75 37.7949 7.75 36V4Z" fill="white" stroke="#EAECF0" stroke-width="1.5"/>
<path d="M27 0.5V8C27 10.2091 28.7909 12 31 12H38.5" stroke="#EAECF0" stroke-width="1.5"/>
<rect x="1.01973" y="18" width="25.9605" height="16" rx="2" fill="#0F6AF5"/>
<path d="M6.25973 29.7C6.0064 29.7 5.76306 29.68 5.52973 29.64C5.2964 29.6067 5.1264 29.5633 5.01973 29.51V28.33C5.13973 28.3767 5.28306 28.4167 5.44973 28.45C5.6164 28.4833 5.7864 28.5 5.95973 28.5C6.33306 28.5 6.60306 28.44 6.76973 28.32C6.94306 28.1933 7.02973 27.9667 7.02973 27.64V22.4H8.56973V27.71C8.56973 28.3767 8.37306 28.8767 7.97973 29.21C7.5864 29.5367 7.01306 29.7 6.25973 29.7Z" fill="white"/>
<path d="M9.55059 29.6V22.4H12.9706C13.5039 22.4 13.9606 22.4933 14.3406 22.68C14.7273 22.8667 15.0239 23.1267 15.2306 23.46C15.4439 23.7933 15.5506 24.1833 15.5506 24.63C15.5506 25.0767 15.4439 25.47 15.2306 25.81C15.0173 26.15 14.7173 26.4167 14.3306 26.61C13.9506 26.7967 13.4973 26.89 12.9706 26.89H10.7706V25.71H12.8906C13.2439 25.71 13.5173 25.6133 13.7106 25.42C13.9106 25.22 14.0106 24.96 14.0106 24.64C14.0106 24.32 13.9106 24.0633 13.7106 23.87C13.5173 23.6767 13.2439 23.58 12.8906 23.58H11.0906V29.6H9.55059Z" fill="white"/>
<path d="M19.7903 29.7C19.0103 29.7 18.3403 29.5467 17.7803 29.24C17.2203 28.9333 16.7869 28.5033 16.4803 27.95C16.1803 27.3967 16.0303 26.75 16.0303 26.01C16.0303 25.2767 16.1836 24.6333 16.4903 24.08C16.7969 23.52 17.2203 23.0833 17.7603 22.77C18.3069 22.4567 18.9403 22.3 19.6603 22.3C20.2536 22.3 20.7836 22.4067 21.2503 22.62C21.7236 22.8333 22.1036 23.1267 22.3903 23.5C22.6836 23.8667 22.8569 24.2933 22.9103 24.78H21.3703C21.3036 24.3867 21.1169 24.08 20.8103 23.86C20.5103 23.6333 20.1336 23.52 19.6803 23.52C19.2603 23.52 18.8936 23.62 18.5803 23.82C18.2669 24.0133 18.0236 24.2933 17.8503 24.66C17.6769 25.0267 17.5903 25.4667 17.5903 25.98C17.5903 26.5133 17.6769 26.97 17.8503 27.35C18.0236 27.7233 18.2769 28.01 18.6103 28.21C18.9503 28.4033 19.3669 28.5 19.8603 28.5C20.2603 28.5 20.6003 28.45 20.8803 28.35C21.1603 28.25 21.3736 28.11 21.5203 27.93L22.9803 28.51C22.5936 28.8967 22.1436 29.1933 21.6303 29.4C21.1236 29.6 20.5103 29.7 19.7903 29.7ZM21.4403 28.51V26.53L21.7503 26.84H19.8503V25.66H22.9803V28.51H21.4403Z" fill="white"/>
</svg>
