<svg width="40" height="40" viewBox="0 0 40 40" fill="none" xmlns="http://www.w3.org/2000/svg">
<path d="M4 4C4 1.79086 5.79086 0 8 0H24L36 12V36C36 38.2091 34.2091 40 32 40H8C5.79086 40 4 38.2091 4 36V4Z" fill="url(#paint0_linear_264_25888)"/>
<path d="M24 0L36 12H28C25.7909 12 24 10.2091 24 8V0Z" fill="#EAECF0"/>
<path d="M12.9091 32.09C12.6811 32.09 12.4621 32.072 12.2521 32.036C12.0421 32.006 11.8891 31.967 11.7931 31.919V30.857C11.9011 30.899 12.0301 30.935 12.1801 30.965C12.3301 30.995 12.4831 31.01 12.6391 31.01C12.9751 31.01 13.2181 30.956 13.3681 30.848C13.5241 30.734 13.6021 30.53 13.6021 30.236V25.52H14.9881V30.299C14.9881 30.899 14.8111 31.349 14.4571 31.649C14.1031 31.943 13.5871 32.09 12.9091 32.09Z" fill="#36383A"/>
<path d="M15.8709 32V25.52H18.9489C19.4289 25.52 19.8399 25.604 20.1819 25.772C20.5299 25.94 20.7969 26.174 20.9829 26.474C21.1749 26.774 21.2709 27.125 21.2709 27.527C21.2709 27.929 21.1749 28.283 20.9829 28.589C20.7909 28.895 20.5209 29.135 20.1729 29.309C19.8309 29.477 19.4229 29.561 18.9489 29.561H16.9689V28.499H18.8769C19.1949 28.499 19.4409 28.412 19.6149 28.238C19.7949 28.058 19.8849 27.824 19.8849 27.536C19.8849 27.248 19.7949 27.017 19.6149 26.843C19.4409 26.669 19.1949 26.582 18.8769 26.582H17.2569V32H15.8709Z" fill="#36383A"/>
<path d="M25.0866 32.09C24.3846 32.09 23.7816 31.952 23.2776 31.676C22.7736 31.4 22.3836 31.013 22.1076 30.515C21.8376 30.017 21.7026 29.435 21.7026 28.769C21.7026 28.109 21.8406 27.53 22.1166 27.032C22.3926 26.528 22.7736 26.135 23.2596 25.853C23.7516 25.571 24.3216 25.43 24.9696 25.43C25.5036 25.43 25.9806 25.526 26.4006 25.718C26.8266 25.91 27.1686 26.174 27.4266 26.51C27.6906 26.84 27.8466 27.224 27.8946 27.662H26.5086C26.4486 27.308 26.2806 27.032 26.0046 26.834C25.7346 26.63 25.3956 26.528 24.9876 26.528C24.6096 26.528 24.2796 26.618 23.9976 26.798C23.7156 26.972 23.4966 27.224 23.3406 27.554C23.1846 27.884 23.1066 28.28 23.1066 28.742C23.1066 29.222 23.1846 29.633 23.3406 29.975C23.4966 30.311 23.7246 30.569 24.0246 30.749C24.3306 30.923 24.7056 31.01 25.1496 31.01C25.5096 31.01 25.8156 30.965 26.0676 30.875C26.3196 30.785 26.5116 30.659 26.6436 30.497L27.9576 31.019C27.6096 31.367 27.2046 31.634 26.7426 31.82C26.2866 32 25.7346 32.09 25.0866 32.09ZM26.5716 31.019V29.237L26.8506 29.516H25.1406V28.454H27.9576V31.019H26.5716Z" fill="#36383A"/>
<defs>
<linearGradient id="paint0_linear_264_25888" x1="20" y1="0" x2="20" y2="40" gradientUnits="userSpaceOnUse">
<stop stop-color="#F9FAFB"/>
<stop offset="1" stop-color="#EDF0F3"/>
</linearGradient>
</defs>
</svg>
