<svg width="40" height="40" viewBox="0 0 40 40" fill="none" xmlns="http://www.w3.org/2000/svg">
<path d="M7.75 4C7.75 2.20508 9.20508 0.75 11 0.75H27C27.1212 0.75 27.2375 0.798159 27.3232 0.883885L38.1161 11.6768C38.2018 11.7625 38.25 11.8788 38.25 12V36C38.25 37.7949 36.7949 39.25 35 39.25H11C9.20507 39.25 7.75 37.7949 7.75 36V4Z" fill="white" stroke="#EAECF0" stroke-width="1.5"/>
<path d="M27 0.5V8C27 10.2091 28.7909 12 31 12H38.5" stroke="#EAECF0" stroke-width="1.5"/>
<rect x="1.3541" y="18" width="18.2918" height="16" rx="2" fill="#875BF7"/>
<path d="M6.5941 29.705C6.34076 29.705 6.09743 29.685 5.8641 29.645C5.63076 29.6117 5.46076 29.5683 5.3541 29.515V28.335C5.4741 28.3817 5.61743 28.4217 5.7841 28.455C5.95076 28.4883 6.12076 28.505 6.2941 28.505C6.66743 28.505 6.93743 28.445 7.1041 28.325C7.27743 28.1983 7.3641 27.9717 7.3641 27.645V22.405H8.9041V27.715C8.9041 28.3817 8.70743 28.8817 8.3141 29.215C7.92076 29.5417 7.34743 29.705 6.5941 29.705Z" fill="white"/>
<path d="M12.8059 29.695C11.8726 29.695 11.1259 29.4883 10.5659 29.075C10.0059 28.655 9.67923 28.065 9.58589 27.305H11.0659C11.1126 27.6917 11.2992 27.9983 11.6259 28.225C11.9526 28.445 12.3692 28.555 12.8759 28.555C13.2892 28.555 13.6059 28.4817 13.8259 28.335C14.0526 28.1883 14.1659 27.9917 14.1659 27.745C14.1659 27.5117 14.0992 27.325 13.9659 27.185C13.8326 27.0383 13.6026 26.9217 13.2759 26.835L11.9359 26.465C11.2492 26.2717 10.7459 26.0083 10.4259 25.675C10.1126 25.335 9.95589 24.9117 9.95589 24.405C9.95589 23.9717 10.0659 23.5983 10.2859 23.285C10.5126 22.965 10.8292 22.7217 11.2359 22.555C11.6426 22.3817 12.1192 22.295 12.6659 22.295C13.5059 22.295 14.1759 22.495 14.6759 22.895C15.1759 23.2883 15.4592 23.8117 15.5259 24.465H14.0459C13.9792 24.1117 13.8159 23.8517 13.5559 23.685C13.3026 23.5183 12.9759 23.435 12.5759 23.435C12.2292 23.435 11.9526 23.5017 11.7459 23.635C11.5392 23.7683 11.4359 23.9483 11.4359 24.175C11.4359 24.3483 11.4926 24.5083 11.6059 24.655C11.7192 24.795 11.9559 24.915 12.3159 25.015L13.6559 25.385C14.3626 25.5783 14.8692 25.845 15.1759 26.185C15.4892 26.5183 15.6459 26.9417 15.6459 27.455C15.6459 28.175 15.3959 28.7283 14.8959 29.115C14.3959 29.5017 13.6992 29.695 12.8059 29.695Z" fill="white"/>
</svg>
