<svg width="40" height="40" viewBox="0 0 40 40" fill="none" xmlns="http://www.w3.org/2000/svg">
<path d="M4 4C4 1.79086 5.79086 0 8 0H24L36 12V36C36 38.2091 34.2091 40 32 40H8C5.79086 40 4 38.2091 4 36V4Z" fill="url(#paint0_linear_264_26622)"/>
<path d="M24 0L36 12H28C25.7909 12 24 10.2091 24 8V0Z" fill="#EAECF0"/>
<path d="M16.4291 32.09C16.2011 32.09 15.9821 32.072 15.7721 32.036C15.5621 32.006 15.4091 31.967 15.3131 31.919V30.857C15.4211 30.899 15.5501 30.935 15.7001 30.965C15.8501 30.995 16.0031 31.01 16.1591 31.01C16.4951 31.01 16.7381 30.956 16.8881 30.848C17.0441 30.734 17.1221 30.53 17.1221 30.236V25.52H18.5081V30.299C18.5081 30.899 18.3311 31.349 17.9771 31.649C17.6231 31.943 17.1071 32.09 16.4291 32.09Z" fill="#36383A"/>
<path d="M22.0198 32.081C21.1798 32.081 20.5078 31.895 20.0038 31.523C19.4998 31.145 19.2058 30.614 19.1218 29.93H20.4538C20.4958 30.278 20.6638 30.554 20.9578 30.758C21.2518 30.956 21.6268 31.055 22.0828 31.055C22.4548 31.055 22.7398 30.989 22.9378 30.857C23.1418 30.725 23.2438 30.548 23.2438 30.326C23.2438 30.116 23.1838 29.948 23.0638 29.822C22.9438 29.69 22.7368 29.585 22.4428 29.507L21.2368 29.174C20.6188 29 20.1658 28.763 19.8778 28.463C19.5958 28.157 19.4548 27.776 19.4548 27.32C19.4548 26.93 19.5538 26.594 19.7518 26.312C19.9558 26.024 20.2408 25.805 20.6068 25.655C20.9728 25.499 21.4018 25.421 21.8938 25.421C22.6498 25.421 23.2528 25.601 23.7028 25.961C24.1528 26.315 24.4078 26.786 24.4678 27.374H23.1358C23.0758 27.056 22.9288 26.822 22.6948 26.672C22.4668 26.522 22.1728 26.447 21.8128 26.447C21.5008 26.447 21.2518 26.507 21.0658 26.627C20.8798 26.747 20.7868 26.909 20.7868 27.113C20.7868 27.269 20.8378 27.413 20.9398 27.545C21.0418 27.671 21.2548 27.779 21.5788 27.869L22.7848 28.202C23.4208 28.376 23.8768 28.616 24.1528 28.922C24.4348 29.222 24.5758 29.603 24.5758 30.065C24.5758 30.713 24.3508 31.211 23.9008 31.559C23.4508 31.907 22.8238 32.081 22.0198 32.081Z" fill="#36383A"/>
<defs>
<linearGradient id="paint0_linear_264_26622" x1="20" y1="0" x2="20" y2="40" gradientUnits="userSpaceOnUse">
<stop stop-color="#F9FAFB"/>
<stop offset="1" stop-color="#EDF0F3"/>
</linearGradient>
</defs>
</svg>
