<svg width="40" height="40" viewBox="0 0 40 40" fill="none" xmlns="http://www.w3.org/2000/svg">
<path d="M7.75 4C7.75 2.20508 9.20508 0.75 11 0.75H27C27.1212 0.75 27.2375 0.798159 27.3232 0.883885L38.1161 11.6768C38.2018 11.7625 38.25 11.8788 38.25 12V36C38.25 37.7949 36.7949 39.25 35 39.25H11C9.20507 39.25 7.75 37.7949 7.75 36V4Z" fill="white" stroke="#EAECF0" stroke-width="1.5"/>
<path d="M27 0.5V8C27 10.2091 28.7909 12 31 12H38.5" stroke="#EAECF0" stroke-width="1.5"/>
<rect x="1.40312" y="18" width="33.1937" height="16" rx="2" fill="#875BF7"/>
<path d="M6.64312 29.705C6.38979 29.705 6.14646 29.685 5.91312 29.645C5.67979 29.6117 5.50979 29.5683 5.40312 29.515V28.335C5.52312 28.3817 5.66646 28.4217 5.83312 28.455C5.99979 28.4883 6.16979 28.505 6.34312 28.505C6.71646 28.505 6.98646 28.445 7.15312 28.325C7.32646 28.1983 7.41312 27.9717 7.41312 27.645V22.405H8.95312V27.715C8.95312 28.3817 8.75646 28.8817 8.36312 29.215C7.96979 29.5417 7.39646 29.705 6.64312 29.705Z" fill="white"/>
<path d="M12.8549 29.695C11.9216 29.695 11.1749 29.4883 10.6149 29.075C10.0549 28.655 9.72825 28.065 9.63492 27.305H11.1149C11.1616 27.6917 11.3483 27.9983 11.6749 28.225C12.0016 28.445 12.4183 28.555 12.9249 28.555C13.3383 28.555 13.6549 28.4817 13.8749 28.335C14.1016 28.1883 14.2149 27.9917 14.2149 27.745C14.2149 27.5117 14.1483 27.325 14.0149 27.185C13.8816 27.0383 13.6516 26.9217 13.3249 26.835L11.9849 26.465C11.2983 26.2717 10.7949 26.0083 10.4749 25.675C10.1616 25.335 10.0049 24.9117 10.0049 24.405C10.0049 23.9717 10.1149 23.5983 10.3349 23.285C10.5616 22.965 10.8783 22.7217 11.2849 22.555C11.6916 22.3817 12.1683 22.295 12.7149 22.295C13.5549 22.295 14.2249 22.495 14.7249 22.895C15.2249 23.2883 15.5083 23.8117 15.5749 24.465H14.0949C14.0283 24.1117 13.8649 23.8517 13.6049 23.685C13.3516 23.5183 13.0249 23.435 12.6249 23.435C12.2783 23.435 12.0016 23.5017 11.7949 23.635C11.5883 23.7683 11.4849 23.9483 11.4849 24.175C11.4849 24.3483 11.5416 24.5083 11.6549 24.655C11.7683 24.795 12.0049 24.915 12.3649 25.015L13.7049 25.385C14.4116 25.5783 14.9183 25.845 15.2249 26.185C15.5383 26.5183 15.6949 26.9417 15.6949 27.455C15.6949 28.175 15.4449 28.7283 14.9449 29.115C14.4449 29.5017 13.7483 29.695 12.8549 29.695Z" fill="white"/>
<path d="M19.9084 29.705C19.375 29.705 18.8817 29.615 18.4284 29.435C17.9817 29.255 17.5917 29.0017 17.2584 28.675C16.9317 28.3417 16.675 27.9483 16.4884 27.495C16.3084 27.035 16.2184 26.5283 16.2184 25.975C16.2184 25.2417 16.375 24.6017 16.6884 24.055C17.0017 23.5017 17.435 23.0717 17.9884 22.765C18.5484 22.4583 19.185 22.305 19.8984 22.305C20.625 22.305 21.265 22.4583 21.8184 22.765C22.3717 23.0717 22.805 23.5017 23.1184 24.055C23.4384 24.6083 23.5984 25.2517 23.5984 25.985C23.5984 26.5317 23.505 27.035 23.3184 27.495C23.1384 27.9483 22.8817 28.3417 22.5484 28.675C22.2217 29.0017 21.8317 29.255 21.3784 29.435C20.9317 29.615 20.4417 29.705 19.9084 29.705ZM19.8984 28.485C20.3184 28.485 20.6884 28.3783 21.0084 28.165C21.3284 27.9517 21.5784 27.6583 21.7584 27.285C21.945 26.905 22.0384 26.465 22.0384 25.965C22.0384 25.4717 21.9484 25.0417 21.7684 24.675C21.5884 24.3083 21.3384 24.025 21.0184 23.825C20.6984 23.625 20.325 23.525 19.8984 23.525C19.4784 23.525 19.1084 23.625 18.7884 23.825C18.4684 24.025 18.2184 24.3083 18.0384 24.675C17.865 25.035 17.7784 25.465 17.7784 25.965C17.7784 26.4717 17.8684 26.915 18.0484 27.295C18.2284 27.6683 18.4784 27.9617 18.7984 28.175C19.1184 28.3817 19.485 28.485 19.8984 28.485Z" fill="white"/>
<path d="M24.3969 29.605V22.405H26.3869L29.5869 28.765L29.0969 28.885V22.405H30.5969V29.605H28.6069L25.4069 23.245L25.8969 23.125V29.605H24.3969Z" fill="white"/>
</svg>
