<svg width="40" height="40" viewBox="0 0 40 40" fill="none" xmlns="http://www.w3.org/2000/svg">
<path d="M7.75 4C7.75 2.20508 9.20508 0.75 11 0.75H27C27.1212 0.75 27.2375 0.798159 27.3232 0.883885L38.1161 11.6768C38.2018 11.7625 38.25 11.8788 38.25 12V36C38.25 37.7949 36.7949 39.25 35 39.25H11C9.20507 39.25 7.75 37.7949 7.75 36V4Z" fill="white" stroke="#EAECF0" stroke-width="1.5"/>
<path d="M27 0.5V8C27 10.2091 28.7909 12 31 12H38.5" stroke="#EAECF0" stroke-width="1.5"/>
<rect x="0.638245" y="18" width="30.7235" height="16" rx="2" fill="#0F6AF5"/>
<path d="M4.63824 29.6V22.4H7.03824L9.03824 29.34H8.16824L10.1682 22.4H12.5782V29.6H11.0582V22.83H11.3182L9.36824 29.6H7.77824L5.84824 22.89H6.09824V29.6H4.63824Z" fill="white"/>
<path d="M13.5738 29.6V22.4H15.1138V29.6H13.5738ZM14.6238 25.86L17.8638 22.4H19.9138L16.4938 25.86H14.6238ZM18.0238 29.6L14.6038 25.86H16.4938L20.1138 29.6H18.0238Z" fill="white"/>
<path d="M23.0618 29.6L20.4818 22.4H22.0818L24.0518 28.4H23.8618L25.8418 22.4H27.3618L24.7818 29.6H23.0618Z" fill="white"/>
</svg>
