<svg width="40" height="40" viewBox="0 0 40 40" fill="none" xmlns="http://www.w3.org/2000/svg">
<path d="M7.75 4C7.75 2.20508 9.20508 0.75 11 0.75H27C27.1212 0.75 27.2375 0.798159 27.3232 0.883885L38.1161 11.6768C38.2018 11.7625 38.25 11.8788 38.25 12V36C38.25 37.7949 36.7949 39.25 35 39.25H11C9.20507 39.25 7.75 37.7949 7.75 36V4Z" fill="white" stroke="#EAECF0" stroke-width="1.5"/>
<path d="M27 0.5V8C27 10.2091 28.7909 12 31 12H38.5" stroke="#EAECF0" stroke-width="1.5"/>
<rect x="1.5" y="18" width="28" height="16" rx="2" fill="#D444F1"/>
<path d="M5.13287 29.6V22.4H7.53287L9.53287 29.34H8.66287L10.6629 22.4H13.0729V29.6H11.5529V22.83H11.8129L9.86287 29.6H8.27287L6.34287 22.89H6.59287V29.6H5.13287Z" fill="white"/>
<path d="M14.0684 29.6V22.4H17.4884C18.0218 22.4 18.4784 22.4933 18.8584 22.68C19.2451 22.8667 19.5418 23.1267 19.7484 23.46C19.9618 23.7933 20.0684 24.1833 20.0684 24.63C20.0684 25.0767 19.9618 25.47 19.7484 25.81C19.5351 26.15 19.2351 26.4167 18.8484 26.61C18.4684 26.7967 18.0151 26.89 17.4884 26.89H15.2884V25.71H17.4084C17.7618 25.71 18.0351 25.6133 18.2284 25.42C18.4284 25.22 18.5284 24.96 18.5284 24.64C18.5284 24.32 18.4284 24.0633 18.2284 23.87C18.0351 23.6767 17.7618 23.58 17.4084 23.58H15.6084V29.6H14.0684Z" fill="white"/>
<path d="M23.2672 29.7C22.7605 29.7 22.3038 29.61 21.8972 29.43C21.4972 29.2433 21.1705 28.9733 20.9172 28.62C20.6705 28.26 20.5272 27.8233 20.4872 27.31H22.0172C22.0705 27.7233 22.1972 28.03 22.3972 28.23C22.5972 28.4233 22.8672 28.52 23.2072 28.52C23.5005 28.52 23.7438 28.4333 23.9372 28.26C24.1372 28.0867 24.2372 27.8333 24.2372 27.5C24.2372 27.18 24.1405 26.9233 23.9472 26.73C23.7605 26.53 23.4405 26.43 22.9872 26.43H22.3472V25.27H22.9572C23.3505 25.27 23.6338 25.1833 23.8072 25.01C23.9805 24.8367 24.0672 24.6167 24.0672 24.35C24.0672 24.0967 24.0005 23.89 23.8672 23.73C23.7338 23.5633 23.5072 23.48 23.1872 23.48C22.9138 23.48 22.6772 23.5633 22.4772 23.73C22.2772 23.8967 22.1538 24.15 22.1072 24.49H20.5672C20.6272 24.0367 20.7705 23.6467 20.9972 23.32C21.2238 22.9933 21.5272 22.7433 21.9072 22.57C22.2872 22.39 22.7305 22.3 23.2372 22.3C23.7438 22.3 24.1772 22.38 24.5372 22.54C24.9038 22.6933 25.1872 22.9133 25.3872 23.2C25.5872 23.4867 25.6872 23.83 25.6872 24.23C25.6872 24.5633 25.6105 24.8567 25.4572 25.11C25.3038 25.3633 25.1105 25.56 24.8772 25.7C24.6505 25.84 24.4205 25.91 24.1872 25.91L24.1772 25.7C24.5305 25.7 24.8338 25.7867 25.0872 25.96C25.3405 26.1267 25.5338 26.3533 25.6672 26.64C25.8005 26.92 25.8672 27.2333 25.8672 27.58C25.8672 28.0133 25.7538 28.39 25.5272 28.71C25.3005 29.03 24.9905 29.2767 24.5972 29.45C24.2038 29.6167 23.7605 29.7 23.2672 29.7Z" fill="white"/>
</svg>
