<svg width="40" height="40" viewBox="0 0 40 40" fill="none" xmlns="http://www.w3.org/2000/svg">
<path d="M4 4C4 1.79086 5.79086 0 8 0H24L36 12V36C36 38.2091 34.2091 40 32 40H8C5.79086 40 4 38.2091 4 36V4Z" fill="#0F6AF5"/>
<path opacity="0.3" d="M24 0L36 12H28C25.7909 12 24 10.2091 24 8V0Z" fill="white"/>
<path d="M7.2796 32V25.52H9.4396L11.2396 31.766H10.4566L12.2566 25.52H14.4256V32H13.0576V25.907H13.2916L11.5366 32H10.1056L8.3686 25.961H8.5936V32H7.2796Z" fill="white"/>
<path d="M15.3216 32V25.52H18.3996C18.8796 25.52 19.2906 25.604 19.6326 25.772C19.9806 25.94 20.2476 26.174 20.4336 26.474C20.6256 26.774 20.7216 27.125 20.7216 27.527C20.7216 27.929 20.6256 28.283 20.4336 28.589C20.2416 28.895 19.9716 29.135 19.6236 29.309C19.2816 29.477 18.8736 29.561 18.3996 29.561H16.4196V28.499H18.3276C18.6456 28.499 18.8916 28.412 19.0656 28.238C19.2456 28.058 19.3356 27.824 19.3356 27.536C19.3356 27.248 19.2456 27.017 19.0656 26.843C18.8916 26.669 18.6456 26.582 18.3276 26.582H16.7076V32H15.3216Z" fill="white"/>
<path d="M21.3685 32V25.52H22.7545V32H21.3685ZM22.0165 32V30.938H26.1925V32H22.0165ZM22.0165 29.21V28.166H25.8775V29.21H22.0165ZM22.0165 26.582V25.52H26.0845V26.582H22.0165Z" fill="white"/>
<path d="M29.9602 32.09C29.2582 32.09 28.6552 31.952 28.1512 31.676C27.6472 31.4 27.2572 31.013 26.9812 30.515C26.7112 30.017 26.5762 29.435 26.5762 28.769C26.5762 28.109 26.7142 27.53 26.9902 27.032C27.2662 26.528 27.6472 26.135 28.1332 25.853C28.6252 25.571 29.1952 25.43 29.8432 25.43C30.3772 25.43 30.8542 25.526 31.2742 25.718C31.7002 25.91 32.0422 26.174 32.3002 26.51C32.5642 26.84 32.7202 27.224 32.7682 27.662H31.3822C31.3222 27.308 31.1542 27.032 30.8782 26.834C30.6082 26.63 30.2692 26.528 29.8612 26.528C29.4832 26.528 29.1532 26.618 28.8712 26.798C28.5892 26.972 28.3702 27.224 28.2142 27.554C28.0582 27.884 27.9802 28.28 27.9802 28.742C27.9802 29.222 28.0582 29.633 28.2142 29.975C28.3702 30.311 28.5982 30.569 28.8982 30.749C29.2042 30.923 29.5792 31.01 30.0232 31.01C30.3832 31.01 30.6892 30.965 30.9412 30.875C31.1932 30.785 31.3852 30.659 31.5172 30.497L32.8312 31.019C32.4832 31.367 32.0782 31.634 31.6162 31.82C31.1602 32 30.6082 32.09 29.9602 32.09ZM31.4452 31.019V29.237L31.7242 29.516H30.0142V28.454H32.8312V31.019H31.4452Z" fill="white"/>
</svg>
