<svg width="40" height="40" viewBox="0 0 40 40" fill="none" xmlns="http://www.w3.org/2000/svg">
<path d="M4 4C4 1.79086 5.79086 0 8 0H24L36 12V36C36 38.2091 34.2091 40 32 40H8C5.79086 40 4 38.2091 4 36V4Z" fill="#EC3D27"/>
<path opacity="0.3" d="M24 0L36 12H28C25.7909 12 24 10.2091 24 8V0Z" fill="white"/>
<path d="M11.3709 32V25.52H14.4489C14.9289 25.52 15.3399 25.604 15.6819 25.772C16.0299 25.94 16.2969 26.174 16.4829 26.474C16.6749 26.774 16.7709 27.125 16.7709 27.527C16.7709 27.929 16.6749 28.283 16.4829 28.589C16.2909 28.895 16.0209 29.135 15.6729 29.309C15.3309 29.477 14.9229 29.561 14.4489 29.561H12.4689V28.499H14.3769C14.6949 28.499 14.9409 28.412 15.1149 28.238C15.2949 28.058 15.3849 27.824 15.3849 27.536C15.3849 27.248 15.2949 27.017 15.1149 26.843C14.9409 26.669 14.6949 26.582 14.3769 26.582H12.7569V32H11.3709Z" fill="white"/>
<path d="M18.2638 32V30.92H19.9018C20.3698 30.92 20.7658 30.827 21.0898 30.641C21.4198 30.449 21.6688 30.188 21.8368 29.858C22.0108 29.528 22.0978 29.15 22.0978 28.724C22.0978 28.304 22.0138 27.935 21.8458 27.617C21.6778 27.299 21.4288 27.05 21.0988 26.87C20.7748 26.69 20.3758 26.6 19.9018 26.6H18.2908V25.52H19.9018C20.6278 25.52 21.2608 25.652 21.8008 25.916C22.3408 26.174 22.7578 26.546 23.0518 27.032C23.3518 27.512 23.5018 28.082 23.5018 28.742C23.5018 29.402 23.3518 29.978 23.0518 30.47C22.7518 30.956 22.3318 31.334 21.7918 31.604C21.2578 31.868 20.6308 32 19.9108 32H18.2638ZM17.4178 32V25.52H18.8038V32H17.4178Z" fill="white"/>
<path d="M24.2205 32V25.52H25.6065V32H24.2205ZM24.8685 29.489V28.427H28.5855V29.489H24.8685ZM24.8685 26.582V25.52H28.7925V26.582H24.8685Z" fill="white"/>
</svg>
