<svg width="40" height="40" viewBox="0 0 40 40" fill="none" xmlns="http://www.w3.org/2000/svg">
<path d="M7.75 4C7.75 2.20508 9.20508 0.75 11 0.75H27C27.1212 0.75 27.2375 0.798159 27.3232 0.883885L38.1161 11.6768C38.2018 11.7625 38.25 11.8788 38.25 12V36C38.25 37.7949 36.7949 39.25 35 39.25H11C9.20507 39.25 7.75 37.7949 7.75 36V4Z" fill="white" stroke="#EAECF0" stroke-width="1.5"/>
<path d="M27 0.5V8C27 10.2091 28.7909 12 31 12H38.5" stroke="#EAECF0" stroke-width="1.5"/>
<rect x="0.32135" y="18" width="27.3573" height="16" rx="2" fill="#EC3D27"/>
<path d="M4.32135 29.6V22.4H7.74135C8.27468 22.4 8.73135 22.4933 9.11135 22.68C9.49802 22.8667 9.79468 23.1267 10.0014 23.46C10.2147 23.7933 10.3214 24.1833 10.3214 24.63C10.3214 25.0767 10.2147 25.47 10.0014 25.81C9.78802 26.15 9.48802 26.4167 9.10135 26.61C8.72135 26.7967 8.26802 26.89 7.74135 26.89H5.54135V25.71H7.66135C8.01468 25.71 8.28802 25.6133 8.48135 25.42C8.68135 25.22 8.78135 24.96 8.78135 24.64C8.78135 24.32 8.68135 24.0633 8.48135 23.87C8.28802 23.6767 8.01468 23.58 7.66135 23.58H5.86135V29.6H4.32135Z" fill="white"/>
<path d="M11.9801 29.6V28.4H13.8001C14.3201 28.4 14.7601 28.2967 15.1201 28.09C15.4868 27.8767 15.7634 27.5867 15.9501 27.22C16.1434 26.8533 16.2401 26.4333 16.2401 25.96C16.2401 25.4933 16.1468 25.0833 15.9601 24.73C15.7734 24.3767 15.4968 24.1 15.1301 23.9C14.7701 23.7 14.3268 23.6 13.8001 23.6H12.0101V22.4H13.8001C14.6068 22.4 15.3101 22.5467 15.9101 22.84C16.5101 23.1267 16.9734 23.54 17.3001 24.08C17.6334 24.6133 17.8001 25.2467 17.8001 25.98C17.8001 26.7133 17.6334 27.3533 17.3001 27.9C16.9668 28.44 16.5001 28.86 15.9001 29.16C15.3068 29.4533 14.6101 29.6 13.8101 29.6H11.9801ZM11.0401 29.6V22.4H12.5801V29.6H11.0401Z" fill="white"/>
<path d="M18.5987 29.6V22.4H20.1387V29.6H18.5987ZM19.3187 26.81V25.63H23.4487V26.81H19.3187ZM19.3187 23.58V22.4H23.6787V23.58H19.3187Z" fill="white"/>
</svg>
