<svg width="40" height="40" viewBox="0 0 40 40" fill="none" xmlns="http://www.w3.org/2000/svg">
<path d="M4 4C4 1.79086 5.79086 0 8 0H24L36 12V36C36 38.2091 34.2091 40 32 40H8C5.79086 40 4 38.2091 4 36V4Z" fill="#0F6AF5"/>
<path opacity="0.3" d="M24 0L36 12H28C25.7909 12 24 10.2091 24 8V0Z" fill="white"/>
<path d="M10.7557 32V25.52H13.8337C14.3137 25.52 14.7247 25.604 15.0667 25.772C15.4147 25.94 15.6817 26.174 15.8677 26.474C16.0597 26.774 16.1557 27.125 16.1557 27.527C16.1557 27.929 16.0597 28.283 15.8677 28.589C15.6757 28.895 15.4057 29.135 15.0577 29.309C14.7157 29.477 14.3077 29.561 13.8337 29.561H11.8537V28.499H13.7617C14.0797 28.499 14.3257 28.412 14.4997 28.238C14.6797 28.058 14.7697 27.824 14.7697 27.536C14.7697 27.248 14.6797 27.017 14.4997 26.843C14.3257 26.669 14.0797 26.582 13.7617 26.582H12.1417V32H10.7557Z" fill="white"/>
<path d="M16.8025 32V25.52H18.5935L21.4735 31.244L21.0325 31.352V25.52H22.3825V32H20.5915L17.7115 26.276L18.1525 26.168V32H16.8025Z" fill="white"/>
<path d="M26.4841 32.09C25.7821 32.09 25.1791 31.952 24.6751 31.676C24.1711 31.4 23.7811 31.013 23.5051 30.515C23.2351 30.017 23.1001 29.435 23.1001 28.769C23.1001 28.109 23.2381 27.53 23.5141 27.032C23.7901 26.528 24.1711 26.135 24.6571 25.853C25.1491 25.571 25.7191 25.43 26.3671 25.43C26.9011 25.43 27.3781 25.526 27.7981 25.718C28.2241 25.91 28.5661 26.174 28.8241 26.51C29.0881 26.84 29.2441 27.224 29.2921 27.662H27.9061C27.8461 27.308 27.6781 27.032 27.4021 26.834C27.1321 26.63 26.7931 26.528 26.3851 26.528C26.0071 26.528 25.6771 26.618 25.3951 26.798C25.1131 26.972 24.8941 27.224 24.7381 27.554C24.5821 27.884 24.5041 28.28 24.5041 28.742C24.5041 29.222 24.5821 29.633 24.7381 29.975C24.8941 30.311 25.1221 30.569 25.4221 30.749C25.7281 30.923 26.1031 31.01 26.5471 31.01C26.9071 31.01 27.2131 30.965 27.4651 30.875C27.7171 30.785 27.9091 30.659 28.0411 30.497L29.3551 31.019C29.0071 31.367 28.6021 31.634 28.1401 31.82C27.6841 32 27.1321 32.09 26.4841 32.09ZM27.9691 31.019V29.237L28.2481 29.516H26.5381V28.454H29.3551V31.019H27.9691Z" fill="white"/>
</svg>
