<svg width="40" height="40" viewBox="0 0 40 40" fill="none" xmlns="http://www.w3.org/2000/svg">
<path d="M4 4C4 1.79086 5.79086 0 8 0H24L36 12V36C36 38.2091 34.2091 40 32 40H8C5.79086 40 4 38.2091 4 36V4Z" fill="url(#paint0_linear_264_26302)"/>
<path d="M24 0L36 12H28C25.7909 12 24 10.2091 24 8V0Z" fill="#EAECF0"/>
<path d="M11.4061 32V25.52H14.4841C14.9641 25.52 15.3751 25.604 15.7171 25.772C16.0651 25.94 16.3321 26.174 16.5181 26.474C16.7101 26.774 16.8061 27.125 16.8061 27.527C16.8061 27.929 16.7101 28.283 16.5181 28.589C16.3261 28.895 16.0561 29.135 15.7081 29.309C15.3661 29.477 14.9581 29.561 14.4841 29.561H12.5041V28.499H14.4121C14.7301 28.499 14.9761 28.412 15.1501 28.238C15.3301 28.058 15.4201 27.824 15.4201 27.536C15.4201 27.248 15.3301 27.017 15.1501 26.843C14.9761 26.669 14.7301 26.582 14.4121 26.582H12.7921V32H11.4061Z" fill="#36383A"/>
<path d="M17.4529 32V25.52H20.5309C21.0109 25.52 21.4219 25.604 21.7639 25.772C22.1119 25.94 22.3789 26.174 22.5649 26.474C22.7569 26.774 22.8529 27.125 22.8529 27.527C22.8529 27.929 22.7569 28.283 22.5649 28.589C22.3729 28.895 22.1029 29.135 21.7549 29.309C21.4129 29.477 21.0049 29.561 20.5309 29.561H18.5509V28.499H20.4589C20.7769 28.499 21.0229 28.412 21.1969 28.238C21.3769 28.058 21.4669 27.824 21.4669 27.536C21.4669 27.248 21.3769 27.017 21.1969 26.843C21.0229 26.669 20.7769 26.582 20.4589 26.582H18.8389V32H17.4529Z" fill="#36383A"/>
<path d="M25.3281 32V26.582H23.2131V25.52H28.8291V26.582H26.7141V32H25.3281Z" fill="#36383A"/>
<defs>
<linearGradient id="paint0_linear_264_26302" x1="20" y1="0" x2="20" y2="40" gradientUnits="userSpaceOnUse">
<stop stop-color="#F9FAFB"/>
<stop offset="1" stop-color="#EDF0F3"/>
</linearGradient>
</defs>
</svg>
