<svg width="40" height="40" viewBox="0 0 40 40" fill="none" xmlns="http://www.w3.org/2000/svg">
<path d="M7.75 4C7.75 2.20508 9.20508 0.75 11 0.75H27C27.1212 0.75 27.2375 0.798159 27.3232 0.883885L38.1161 11.6768C38.2018 11.7625 38.25 11.8788 38.25 12V36C38.25 37.7949 36.7949 39.25 35 39.25H11C9.20507 39.25 7.75 37.7949 7.75 36V4Z" fill="white" stroke="#EAECF0" stroke-width="1.5"/>
<path d="M27 0.5V8C27 10.2091 28.7909 12 31 12H38.5" stroke="#EAECF0" stroke-width="1.5"/>
<rect x="0.577034" y="18" width="27.8459" height="16" rx="2" fill="#0F6AF5"/>
<path d="M4.57703 29.61V22.41H7.99703C8.53037 22.41 8.98703 22.5033 9.36703 22.69C9.7537 22.8767 10.0504 23.1367 10.257 23.47C10.4704 23.8033 10.577 24.1933 10.577 24.64C10.577 25.0867 10.4704 25.48 10.257 25.82C10.0437 26.16 9.7437 26.4267 9.35703 26.62C8.97703 26.8067 8.5237 26.9 7.99703 26.9H5.79703V25.72H7.91703C8.27037 25.72 8.5437 25.6233 8.73703 25.43C8.93703 25.23 9.03703 24.97 9.03703 24.65C9.03703 24.33 8.93703 24.0733 8.73703 23.88C8.5437 23.6867 8.27037 23.59 7.91703 23.59H6.11703V29.61H4.57703Z" fill="white"/>
<path d="M14.0995 29.7C13.1662 29.7 12.4195 29.4933 11.8595 29.08C11.2995 28.66 10.9729 28.07 10.8795 27.31H12.3595C12.4062 27.6967 12.5929 28.0033 12.9195 28.23C13.2462 28.45 13.6629 28.56 14.1695 28.56C14.5829 28.56 14.8995 28.4867 15.1195 28.34C15.3462 28.1933 15.4595 27.9967 15.4595 27.75C15.4595 27.5167 15.3929 27.33 15.2595 27.19C15.1262 27.0433 14.8962 26.9267 14.5695 26.84L13.2295 26.47C12.5429 26.2767 12.0395 26.0133 11.7195 25.68C11.4062 25.34 11.2495 24.9167 11.2495 24.41C11.2495 23.9767 11.3595 23.6033 11.5795 23.29C11.8062 22.97 12.1229 22.7267 12.5295 22.56C12.9362 22.3867 13.4129 22.3 13.9595 22.3C14.7995 22.3 15.4695 22.5 15.9695 22.9C16.4695 23.2933 16.7529 23.8167 16.8195 24.47H15.3395C15.2729 24.1167 15.1095 23.8567 14.8495 23.69C14.5962 23.5233 14.2695 23.44 13.8695 23.44C13.5229 23.44 13.2462 23.5067 13.0395 23.64C12.8329 23.7733 12.7295 23.9533 12.7295 24.18C12.7295 24.3533 12.7862 24.5133 12.8995 24.66C13.0129 24.8 13.2495 24.92 13.6095 25.02L14.9495 25.39C15.6562 25.5833 16.1629 25.85 16.4695 26.19C16.7829 26.5233 16.9395 26.9467 16.9395 27.46C16.9395 28.18 16.6895 28.7333 16.1895 29.12C15.6895 29.5067 14.9929 29.7 14.0995 29.7Z" fill="white"/>
<path d="M18.603 29.61V28.41H20.423C20.943 28.41 21.383 28.3067 21.743 28.1C22.1096 27.8867 22.3863 27.5967 22.573 27.23C22.7663 26.8633 22.863 26.4433 22.863 25.97C22.863 25.5033 22.7696 25.0933 22.583 24.74C22.3963 24.3867 22.1196 24.11 21.753 23.91C21.393 23.71 20.9496 23.61 20.423 23.61H18.633V22.41H20.423C21.2296 22.41 21.933 22.5567 22.533 22.85C23.133 23.1367 23.5963 23.55 23.923 24.09C24.2563 24.6233 24.423 25.2567 24.423 25.99C24.423 26.7233 24.2563 27.3633 23.923 27.91C23.5896 28.45 23.123 28.87 22.523 29.17C21.9296 29.4633 21.233 29.61 20.433 29.61H18.603ZM17.663 29.61V22.41H19.203V29.61H17.663Z" fill="white"/>
</svg>
