<svg width="40" height="40" viewBox="0 0 40 40" fill="none" xmlns="http://www.w3.org/2000/svg">
<path d="M7.75 4C7.75 2.20508 9.20508 0.75 11 0.75H27C27.1212 0.75 27.2375 0.798159 27.3232 0.883885L38.1161 11.6768C38.2018 11.7625 38.25 11.8788 38.25 12V36C38.25 37.7949 36.7949 39.25 35 39.25H11C9.20507 39.25 7.75 37.7949 7.75 36V4Z" fill="white" stroke="#EAECF0" stroke-width="1.5"/>
<path d="M27 0.5V8C27 10.2091 28.7909 12 31 12H38.5" stroke="#EAECF0" stroke-width="1.5"/>
<rect x="0.471985" y="18" width="28.056" height="16" rx="2" fill="#36383A"/>
<path d="M4.47198 29.6V22.4H7.69199C8.21199 22.4 8.66532 22.49 9.05198 22.67C9.43865 22.8433 9.73865 23.09 9.95199 23.41C10.1653 23.73 10.272 24.1033 10.272 24.53C10.272 24.95 10.1653 25.32 9.95199 25.64C9.73865 25.9533 9.43865 26.2 9.05198 26.38C8.66532 26.5533 8.21199 26.64 7.69199 26.64H5.69198V25.51H7.65199C8.01865 25.51 8.29865 25.4267 8.49198 25.26C8.69198 25.0867 8.79199 24.8467 8.79199 24.54C8.79199 24.2267 8.69532 23.99 8.50199 23.83C8.30865 23.6633 8.02532 23.58 7.65199 23.58H6.01198V29.6H4.47198ZM8.53199 29.6L5.64198 25.86H7.27198L10.612 29.6H8.53199Z" fill="white"/>
<path d="M10.9317 29.6L13.5117 22.4H14.8317L12.4617 29.6H10.9317ZM16.2117 29.6L13.8517 22.4H15.2317L17.8117 29.6H16.2117ZM12.2917 26.81H16.3317V28.01H12.2917V26.81Z" fill="white"/>
<path d="M18.388 29.6V22.4H21.608C22.128 22.4 22.5813 22.49 22.968 22.67C23.3547 22.8433 23.6547 23.09 23.868 23.41C24.0813 23.73 24.188 24.1033 24.188 24.53C24.188 24.95 24.0813 25.32 23.868 25.64C23.6547 25.9533 23.3547 26.2 22.968 26.38C22.5813 26.5533 22.128 26.64 21.608 26.64H19.608V25.51H21.568C21.9347 25.51 22.2147 25.4267 22.408 25.26C22.608 25.0867 22.708 24.8467 22.708 24.54C22.708 24.2267 22.6113 23.99 22.418 23.83C22.2247 23.6633 21.9413 23.58 21.568 23.58H19.928V29.6H18.388ZM22.448 29.6L19.558 25.86H21.188L24.528 29.6H22.448Z" fill="white"/>
</svg>
