<svg width="40" height="40" viewBox="0 0 40 40" fill="none" xmlns="http://www.w3.org/2000/svg">
<path d="M4 4C4 1.79086 5.79086 0 8 0H24L36 12V36C36 38.2091 34.2091 40 32 40H8C5.79086 40 4 38.2091 4 36V4Z" fill="#36383A"/>
<path opacity="0.3" d="M24 0L36 12H28C25.7909 12 24 10.2091 24 8V0Z" fill="white"/>
<path d="M11.1459 32V25.52H14.0439C14.5119 25.52 14.9199 25.601 15.2679 25.763C15.6159 25.919 15.8859 26.141 16.0779 26.429C16.2699 26.717 16.3659 27.053 16.3659 27.437C16.3659 27.815 16.2699 28.148 16.0779 28.436C15.8859 28.718 15.6159 28.94 15.2679 29.102C14.9199 29.258 14.5119 29.336 14.0439 29.336H12.2439V28.319H14.0079C14.3379 28.319 14.5899 28.244 14.7639 28.094C14.9439 27.938 15.0339 27.722 15.0339 27.446C15.0339 27.164 14.9469 26.951 14.7729 26.807C14.5989 26.657 14.3439 26.582 14.0079 26.582H12.5319V32H11.1459ZM14.7999 32L12.1989 28.634H13.6659L16.6719 32H14.7999Z" fill="white"/>
<path d="M16.9597 32L19.2817 25.52H20.4697L18.3367 32H16.9597ZM21.7117 32L19.5877 25.52H20.8297L23.1517 32H21.7117ZM18.1837 29.489H21.8197V30.569H18.1837V29.489Z" fill="white"/>
<path d="M23.6703 32V25.52H26.5683C27.0363 25.52 27.4443 25.601 27.7923 25.763C28.1403 25.919 28.4104 26.141 28.6024 26.429C28.7943 26.717 28.8904 27.053 28.8904 27.437C28.8904 27.815 28.7943 28.148 28.6024 28.436C28.4104 28.718 28.1403 28.94 27.7923 29.102C27.4443 29.258 27.0363 29.336 26.5683 29.336H24.7683V28.319H26.5323C26.8623 28.319 27.1143 28.244 27.2883 28.094C27.4683 27.938 27.5583 27.722 27.5583 27.446C27.5583 27.164 27.4713 26.951 27.2973 26.807C27.1234 26.657 26.8683 26.582 26.5323 26.582H25.0563V32H23.6703ZM27.3243 32L24.7233 28.634H26.1903L29.1964 32H27.3243Z" fill="white"/>
</svg>
