<svg width="40" height="40" viewBox="0 0 40 40" fill="none" xmlns="http://www.w3.org/2000/svg">
<path d="M7.75 4C7.75 2.20508 9.20508 0.75 11 0.75H27C27.1212 0.75 27.2375 0.798159 27.3232 0.883885L38.1161 11.6768C38.2018 11.7625 38.25 11.8788 38.25 12V36C38.25 37.7949 36.7949 39.25 35 39.25H11C9.20507 39.25 7.75 37.7949 7.75 36V4Z" fill="white" stroke="#EAECF0" stroke-width="1.5"/>
<path d="M27 0.5V8C27 10.2091 28.7909 12 31 12H38.5" stroke="#EAECF0" stroke-width="1.5"/>
<rect x="0.585846" y="18" width="26.8283" height="16" rx="2" fill="#875BF7"/>
<path d="M4.58585 29.61V22.41H7.80585C8.32585 22.41 8.77918 22.5 9.16585 22.68C9.55251 22.8533 9.85251 23.1 10.0658 23.42C10.2792 23.74 10.3858 24.1133 10.3858 24.54C10.3858 24.96 10.2792 25.33 10.0658 25.65C9.85251 25.9633 9.55251 26.21 9.16585 26.39C8.77918 26.5633 8.32585 26.65 7.80585 26.65H5.80585V25.52H7.76585C8.13251 25.52 8.41251 25.4367 8.60585 25.27C8.80585 25.0967 8.90585 24.8567 8.90585 24.55C8.90585 24.2367 8.80918 24 8.61585 23.84C8.42251 23.6733 8.13918 23.59 7.76585 23.59H6.12585V29.61H4.58585ZM8.64585 29.61L5.75585 25.87H7.38585L10.7258 29.61H8.64585Z" fill="white"/>
<path d="M14.0507 29.7C13.1174 29.7 12.3707 29.4933 11.8107 29.08C11.2507 28.66 10.924 28.07 10.8307 27.31H12.3107C12.3574 27.6967 12.544 28.0033 12.8707 28.23C13.1974 28.45 13.614 28.56 14.1207 28.56C14.534 28.56 14.8507 28.4867 15.0707 28.34C15.2974 28.1933 15.4107 27.9967 15.4107 27.75C15.4107 27.5167 15.344 27.33 15.2107 27.19C15.0774 27.0433 14.8474 26.9267 14.5207 26.84L13.1807 26.47C12.494 26.2767 11.9907 26.0133 11.6707 25.68C11.3574 25.34 11.2007 24.9167 11.2007 24.41C11.2007 23.9767 11.3107 23.6033 11.5307 23.29C11.7574 22.97 12.074 22.7267 12.4807 22.56C12.8874 22.3867 13.364 22.3 13.9107 22.3C14.7507 22.3 15.4207 22.5 15.9207 22.9C16.4207 23.2933 16.704 23.8167 16.7707 24.47H15.2907C15.224 24.1167 15.0607 23.8567 14.8007 23.69C14.5474 23.5233 14.2207 23.44 13.8207 23.44C13.474 23.44 13.1974 23.5067 12.9907 23.64C12.784 23.7733 12.6807 23.9533 12.6807 24.18C12.6807 24.3533 12.7374 24.5133 12.8507 24.66C12.964 24.8 13.2007 24.92 13.5607 25.02L14.9007 25.39C15.6074 25.5833 16.114 25.85 16.4207 26.19C16.734 26.5233 16.8907 26.9467 16.8907 27.46C16.8907 28.18 16.6407 28.7333 16.1407 29.12C15.6407 29.5067 14.944 29.7 14.0507 29.7Z" fill="white"/>
<path d="M20.5741 29.7C19.6408 29.7 18.8941 29.4933 18.3341 29.08C17.7741 28.66 17.4475 28.07 17.3541 27.31H18.8341C18.8808 27.6967 19.0675 28.0033 19.3941 28.23C19.7208 28.45 20.1375 28.56 20.6441 28.56C21.0575 28.56 21.3741 28.4867 21.5941 28.34C21.8208 28.1933 21.9341 27.9967 21.9341 27.75C21.9341 27.5167 21.8675 27.33 21.7341 27.19C21.6008 27.0433 21.3708 26.9267 21.0441 26.84L19.7041 26.47C19.0175 26.2767 18.5141 26.0133 18.1941 25.68C17.8808 25.34 17.7241 24.9167 17.7241 24.41C17.7241 23.9767 17.8341 23.6033 18.0541 23.29C18.2808 22.97 18.5975 22.7267 19.0041 22.56C19.4108 22.3867 19.8875 22.3 20.4341 22.3C21.2741 22.3 21.9441 22.5 22.4441 22.9C22.9441 23.2933 23.2275 23.8167 23.2941 24.47H21.8141C21.7475 24.1167 21.5841 23.8567 21.3241 23.69C21.0708 23.5233 20.7441 23.44 20.3441 23.44C19.9975 23.44 19.7208 23.5067 19.5141 23.64C19.3075 23.7733 19.2041 23.9533 19.2041 24.18C19.2041 24.3533 19.2608 24.5133 19.3741 24.66C19.4875 24.8 19.7241 24.92 20.0841 25.02L21.4241 25.39C22.1308 25.5833 22.6375 25.85 22.9441 26.19C23.2575 26.5233 23.4141 26.9467 23.4141 27.46C23.4141 28.18 23.1641 28.7333 22.6641 29.12C22.1641 29.5067 21.4675 29.7 20.5741 29.7Z" fill="white"/>
</svg>
