<svg width="40" height="40" viewBox="0 0 40 40" fill="none" xmlns="http://www.w3.org/2000/svg">
<path d="M4 4C4 1.79086 5.79086 0 8 0H24L36 12V36C36 38.2091 34.2091 40 32 40H8C5.79086 40 4 38.2091 4 36V4Z" fill="#1D7A5B"/>
<path opacity="0.3" d="M24 0L36 12H28C25.7909 12 24 10.2091 24 8V0Z" fill="white"/>
<path fill-rule="evenodd" clip-rule="evenodd" d="M14.4 20.75C13.9305 20.75 13.55 21.1306 13.55 21.6V24.05H16.85V20.75H14.4ZM18.35 20.75V24.05H26.45V21.6C26.45 21.1306 26.0694 20.75 25.6 20.75H18.35ZM26.45 25.55H18.35V28.85H25.6C26.0694 28.85 26.45 28.4694 26.45 28V25.55ZM16.85 28.85V25.55H13.55V28C13.55 28.4694 13.9305 28.85 14.4 28.85H16.85ZM12.05 21.6C12.05 20.3021 13.1021 19.25 14.4 19.25H25.6C26.8979 19.25 27.95 20.3021 27.95 21.6V28C27.95 29.2979 26.8979 30.35 25.6 30.35H14.4C13.1021 30.35 12.05 29.2979 12.05 28V21.6Z" fill="white"/>
</svg>
