<svg width="40" height="40" viewBox="0 0 40 40" fill="none" xmlns="http://www.w3.org/2000/svg">
<path d="M7.75 4C7.75 2.20508 9.20508 0.75 11 0.75H27C27.1212 0.75 27.2375 0.798159 27.3232 0.883885L38.1161 11.6768C38.2018 11.7625 38.25 11.8788 38.25 12V36C38.25 37.7949 36.7949 39.25 35 39.25H11C9.20507 39.25 7.75 37.7949 7.75 36V4Z" fill="white" stroke="#EAECF0" stroke-width="1.5"/>
<path d="M27 0.5V8C27 10.2091 28.7909 12 31 12H38.5" stroke="#EAECF0" stroke-width="1.5"/>
<rect x="0.531128" y="18" width="27.9377" height="16" rx="2" fill="#875BF7"/>
<path d="M7.75113 29.695C6.81779 29.695 6.07113 29.4883 5.51113 29.075C4.95113 28.655 4.62446 28.065 4.53113 27.305H6.01113C6.05779 27.6917 6.24446 27.9983 6.57113 28.225C6.89779 28.445 7.31446 28.555 7.82113 28.555C8.23446 28.555 8.55113 28.4817 8.77113 28.335C8.9978 28.1883 9.11113 27.9917 9.11113 27.745C9.11113 27.5117 9.04446 27.325 8.91113 27.185C8.77779 27.0383 8.54779 26.9217 8.22113 26.835L6.88113 26.465C6.19446 26.2717 5.69113 26.0083 5.37113 25.675C5.05779 25.335 4.90113 24.9117 4.90113 24.405C4.90113 23.9717 5.01113 23.5983 5.23113 23.285C5.45779 22.965 5.77446 22.7217 6.18113 22.555C6.58779 22.3817 7.06446 22.295 7.61113 22.295C8.45113 22.295 9.12113 22.495 9.62113 22.895C10.1211 23.2883 10.4045 23.8117 10.4711 24.465H8.99113C8.92446 24.1117 8.76113 23.8517 8.50113 23.685C8.24779 23.5183 7.92113 23.435 7.52113 23.435C7.17446 23.435 6.89779 23.5017 6.69113 23.635C6.48446 23.7683 6.38113 23.9483 6.38113 24.175C6.38113 24.3483 6.43779 24.5083 6.55113 24.655C6.66446 24.795 6.90113 24.915 7.26113 25.015L8.60113 25.385C9.30779 25.5783 9.81446 25.845 10.1211 26.185C10.4345 26.5183 10.5911 26.9417 10.5911 27.455C10.5911 28.175 10.3411 28.7283 9.84113 29.115C9.34113 29.5017 8.64446 29.695 7.75113 29.695Z" fill="white"/>
<path d="M14.8046 29.705C14.0912 29.705 13.4546 29.5483 12.8946 29.235C12.3412 28.9217 11.9046 28.485 11.5846 27.925C11.2712 27.365 11.1146 26.715 11.1146 25.975C11.1146 25.2417 11.2712 24.6017 11.5846 24.055C11.8979 23.5017 12.3312 23.0717 12.8846 22.765C13.4446 22.4583 14.0812 22.305 14.7946 22.305C15.5212 22.305 16.1612 22.4583 16.7146 22.765C17.2679 23.0717 17.7012 23.5017 18.0146 24.055C18.3346 24.6083 18.4946 25.2517 18.4946 25.985C18.4946 26.4517 18.4179 26.8917 18.2646 27.305C18.1179 27.7183 17.8779 28.075 17.5446 28.375C17.2179 28.675 16.7846 28.8983 16.2446 29.045L14.8046 29.705ZM14.7946 28.545C15.2146 28.545 15.5846 28.4417 15.9046 28.235C16.2246 28.0283 16.4746 27.7317 16.6546 27.345C16.8412 26.9583 16.9346 26.4983 16.9346 25.965C16.9346 25.4717 16.8446 25.0417 16.6646 24.675C16.4846 24.3083 16.2346 24.025 15.9146 23.825C15.5946 23.625 15.2212 23.525 14.7946 23.525C14.3746 23.525 14.0046 23.625 13.6846 23.825C13.3646 24.025 13.1146 24.3083 12.9346 24.675C12.7612 25.035 12.6746 25.465 12.6746 25.965C12.6746 26.505 12.7646 26.9683 12.9446 27.355C13.1246 27.735 13.3746 28.0283 13.6946 28.235C14.0146 28.4417 14.3812 28.545 14.7946 28.545ZM14.8046 29.705V28.625L18.8646 28.425V29.605C18.4379 29.605 18.0546 29.6083 17.7146 29.615C17.3812 29.6283 17.0646 29.6417 16.7646 29.655C16.4646 29.6683 16.1579 29.6783 15.8446 29.685C15.5312 29.6983 15.1846 29.705 14.8046 29.705Z" fill="white"/>
<path d="M19.4689 29.605V22.405H21.0089V29.605H19.4689ZM20.1889 29.605V28.425H24.4689V29.605H20.1889Z" fill="white"/>
</svg>
