<svg width="40" height="40" viewBox="0 0 40 40" fill="none" xmlns="http://www.w3.org/2000/svg">
<path d="M4 4C4 1.79086 5.79086 0 8 0H24L36 12V36C36 38.2091 34.2091 40 32 40H8C5.79086 40 4 38.2091 4 36V4Z" fill="#875BF7"/>
<path opacity="0.3" d="M24 0L36 12H28C25.7909 12 24 10.2091 24 8V0Z" fill="white"/>
<path d="M13.8547 32.081C13.0147 32.081 12.3427 31.895 11.8387 31.523C11.3347 31.145 11.0407 30.614 10.9567 29.93H12.2887C12.3307 30.278 12.4987 30.554 12.7927 30.758C13.0867 30.956 13.4617 31.055 13.9177 31.055C14.2897 31.055 14.5747 30.989 14.7727 30.857C14.9767 30.725 15.0787 30.548 15.0787 30.326C15.0787 30.116 15.0187 29.948 14.8987 29.822C14.7787 29.69 14.5717 29.585 14.2777 29.507L13.0717 29.174C12.4537 29 12.0007 28.763 11.7127 28.463C11.4307 28.157 11.2897 27.776 11.2897 27.32C11.2897 26.93 11.3887 26.594 11.5867 26.312C11.7907 26.024 12.0757 25.805 12.4417 25.655C12.8077 25.499 13.2367 25.421 13.7287 25.421C14.4847 25.421 15.0877 25.601 15.5377 25.961C15.9877 26.315 16.2427 26.786 16.3027 27.374H14.9707C14.9107 27.056 14.7637 26.822 14.5297 26.672C14.3017 26.522 14.0077 26.447 13.6477 26.447C13.3357 26.447 13.0867 26.507 12.9007 26.627C12.7147 26.747 12.6217 26.909 12.6217 27.113C12.6217 27.269 12.6727 27.413 12.7747 27.545C12.8767 27.671 13.0897 27.779 13.4137 27.869L14.6197 28.202C15.2557 28.376 15.7117 28.616 15.9877 28.922C16.2697 29.222 16.4107 29.603 16.4107 30.065C16.4107 30.713 16.1857 31.211 15.7357 31.559C15.2857 31.907 14.6587 32.081 13.8547 32.081Z" fill="white"/>
<path d="M20.2028 32.09C19.5608 32.09 18.9878 31.949 18.4838 31.667C17.9858 31.385 17.5928 30.992 17.3048 30.488C17.0228 29.984 16.8818 29.399 16.8818 28.733C16.8818 28.073 17.0228 27.497 17.3048 27.005C17.5868 26.507 17.9768 26.12 18.4748 25.844C18.9788 25.568 19.5518 25.43 20.1938 25.43C20.8478 25.43 21.4238 25.568 21.9218 25.844C22.4198 26.12 22.8098 26.507 23.0918 27.005C23.3798 27.503 23.5238 28.082 23.5238 28.742C23.5238 29.162 23.4548 29.558 23.3168 29.93C23.1848 30.302 22.9688 30.623 22.6688 30.893C22.3748 31.163 21.9848 31.364 21.4988 31.496L20.2028 32.09ZM20.1938 31.046C20.5718 31.046 20.9048 30.953 21.1928 30.767C21.4808 30.581 21.7058 30.314 21.8678 29.966C22.0358 29.618 22.1198 29.204 22.1198 28.724C22.1198 28.28 22.0388 27.893 21.8768 27.563C21.7148 27.233 21.4898 26.978 21.2018 26.798C20.9138 26.618 20.5778 26.528 20.1938 26.528C19.8158 26.528 19.4828 26.618 19.1948 26.798C18.9068 26.978 18.6818 27.233 18.5198 27.563C18.3638 27.887 18.2858 28.274 18.2858 28.724C18.2858 29.21 18.3668 29.627 18.5288 29.975C18.6908 30.317 18.9158 30.581 19.2038 30.767C19.4918 30.953 19.8218 31.046 20.1938 31.046ZM20.2028 32.09V31.118L23.8568 30.938V32C23.4728 32 23.1278 32.003 22.8218 32.009C22.5218 32.021 22.2368 32.033 21.9668 32.045C21.6968 32.057 21.4208 32.066 21.1388 32.072C20.8568 32.084 20.5448 32.09 20.2028 32.09Z" fill="white"/>
<path d="M24.4007 32V25.52H25.7867V32H24.4007ZM25.0487 32V30.938H28.9007V32H25.0487Z" fill="white"/>
</svg>
