<svg width="40" height="40" viewBox="0 0 40 40" fill="none" xmlns="http://www.w3.org/2000/svg">
<path d="M4 4C4 1.79086 5.79086 0 8 0H24L36 12V36C36 38.2091 34.2091 40 32 40H8C5.79086 40 4 38.2091 4 36V4Z" fill="url(#paint0_linear_264_25984)"/>
<path d="M24 0L36 12H28C25.7909 12 24 10.2091 24 8V0Z" fill="#EAECF0"/>
<path d="M13.7888 32.081C12.9488 32.081 12.2768 31.895 11.7728 31.523C11.2688 31.145 10.9748 30.614 10.8908 29.93H12.2228C12.2648 30.278 12.4328 30.554 12.7268 30.758C13.0208 30.956 13.3958 31.055 13.8518 31.055C14.2238 31.055 14.5088 30.989 14.7068 30.857C14.9108 30.725 15.0128 30.548 15.0128 30.326C15.0128 30.116 14.9528 29.948 14.8328 29.822C14.7128 29.69 14.5058 29.585 14.2118 29.507L13.0058 29.174C12.3878 29 11.9348 28.763 11.6468 28.463C11.3648 28.157 11.2238 27.776 11.2238 27.32C11.2238 26.93 11.3228 26.594 11.5208 26.312C11.7248 26.024 12.0098 25.805 12.3758 25.655C12.7418 25.499 13.1708 25.421 13.6628 25.421C14.4188 25.421 15.0218 25.601 15.4718 25.961C15.9218 26.315 16.1768 26.786 16.2368 27.374H14.9048C14.8448 27.056 14.6978 26.822 14.4638 26.672C14.2358 26.522 13.9418 26.447 13.5818 26.447C13.2698 26.447 13.0208 26.507 12.8348 26.627C12.6488 26.747 12.5558 26.909 12.5558 27.113C12.5558 27.269 12.6068 27.413 12.7088 27.545C12.8108 27.671 13.0238 27.779 13.3478 27.869L14.5538 28.202C15.1898 28.376 15.6458 28.616 15.9218 28.922C16.2038 29.222 16.3448 29.603 16.3448 30.065C16.3448 30.713 16.1198 31.211 15.6698 31.559C15.2198 31.907 14.5928 32.081 13.7888 32.081Z" fill="#36383A"/>
<path d="M18.8027 32L16.4807 25.52H17.9207L19.6937 30.92H19.5227L21.3047 25.52H22.6727L20.3507 32H18.8027Z" fill="#36383A"/>
<path d="M26.1149 32.09C25.4129 32.09 24.8099 31.952 24.3059 31.676C23.8019 31.4 23.4119 31.013 23.1359 30.515C22.8659 30.017 22.7309 29.435 22.7309 28.769C22.7309 28.109 22.8689 27.53 23.1449 27.032C23.4209 26.528 23.8019 26.135 24.2879 25.853C24.7799 25.571 25.3499 25.43 25.9979 25.43C26.5319 25.43 27.0089 25.526 27.4289 25.718C27.8549 25.91 28.1969 26.174 28.4549 26.51C28.7189 26.84 28.8749 27.224 28.9229 27.662H27.5369C27.4769 27.308 27.3089 27.032 27.0329 26.834C26.7629 26.63 26.4239 26.528 26.0159 26.528C25.6379 26.528 25.3079 26.618 25.0259 26.798C24.7439 26.972 24.5249 27.224 24.3689 27.554C24.2129 27.884 24.1349 28.28 24.1349 28.742C24.1349 29.222 24.2129 29.633 24.3689 29.975C24.5249 30.311 24.7529 30.569 25.0529 30.749C25.3589 30.923 25.7339 31.01 26.1779 31.01C26.5379 31.01 26.8439 30.965 27.0959 30.875C27.3479 30.785 27.5399 30.659 27.6719 30.497L28.9859 31.019C28.6379 31.367 28.2329 31.634 27.7709 31.82C27.3149 32 26.7629 32.09 26.1149 32.09ZM27.5999 31.019V29.237L27.8789 29.516H26.1689V28.454H28.9859V31.019H27.5999Z" fill="#36383A"/>
<defs>
<linearGradient id="paint0_linear_264_25984" x1="20" y1="0" x2="20" y2="40" gradientUnits="userSpaceOnUse">
<stop stop-color="#F9FAFB"/>
<stop offset="1" stop-color="#EDF0F3"/>
</linearGradient>
</defs>
</svg>
