<svg width="40" height="40" viewBox="0 0 40 40" fill="none" xmlns="http://www.w3.org/2000/svg">
<path d="M7.75 4C7.75 2.20508 9.20508 0.75 11 0.75H27C27.1212 0.75 27.2375 0.798159 27.3232 0.883885L38.1161 11.6768C38.2018 11.7625 38.25 11.8788 38.25 12V36C38.25 37.7949 36.7949 39.25 35 39.25H11C9.20507 39.25 7.75 37.7949 7.75 36V4Z" fill="white" stroke="#EAECF0" stroke-width="1.5"/>
<path d="M27 0.5V8C27 10.2091 28.7909 12 31 12H38.5" stroke="#EAECF0" stroke-width="1.5"/>
<rect x="0.947144" y="18" width="28.1057" height="16" rx="2" fill="#0F6AF5"/>
<path d="M8.16714 29.695C7.23381 29.695 6.48714 29.4883 5.92714 29.075C5.36714 28.655 5.04048 28.065 4.94714 27.305H6.42714C6.47381 27.6917 6.66048 27.9983 6.98714 28.225C7.31381 28.445 7.73048 28.555 8.23714 28.555C8.65048 28.555 8.96714 28.4817 9.18714 28.335C9.41381 28.1883 9.52714 27.9917 9.52714 27.745C9.52714 27.5117 9.46048 27.325 9.32714 27.185C9.19381 27.0383 8.96381 26.9217 8.63714 26.835L7.29714 26.465C6.61048 26.2717 6.10714 26.0083 5.78714 25.675C5.47381 25.335 5.31714 24.9117 5.31714 24.405C5.31714 23.9717 5.42714 23.5983 5.64714 23.285C5.87381 22.965 6.19048 22.7217 6.59714 22.555C7.00381 22.3817 7.48048 22.295 8.02714 22.295C8.86714 22.295 9.53714 22.495 10.0371 22.895C10.5371 23.2883 10.8205 23.8117 10.8871 24.465H9.40714C9.34048 24.1117 9.17714 23.8517 8.91714 23.685C8.66381 23.5183 8.33714 23.435 7.93714 23.435C7.59048 23.435 7.31381 23.5017 7.10714 23.635C6.90048 23.7683 6.79714 23.9483 6.79714 24.175C6.79714 24.3483 6.85381 24.5083 6.96714 24.655C7.08048 24.795 7.31714 24.915 7.67714 25.015L9.01714 25.385C9.72381 25.5783 10.2305 25.845 10.5371 26.185C10.8505 26.5183 11.0071 26.9417 11.0071 27.455C11.0071 28.175 10.7571 28.7283 10.2571 29.115C9.75714 29.5017 9.06048 29.695 8.16714 29.695Z" fill="white"/>
<path d="M13.7381 29.605L11.1581 22.405H12.7581L14.7281 28.405H14.5381L16.5181 22.405H18.0381L15.4581 29.605H13.7381Z" fill="white"/>
<path d="M21.8628 29.705C21.0828 29.705 20.4128 29.5517 19.8528 29.245C19.2928 28.9383 18.8595 28.5083 18.5528 27.955C18.2528 27.4017 18.1028 26.755 18.1028 26.015C18.1028 25.2817 18.2562 24.6383 18.5628 24.085C18.8695 23.525 19.2928 23.0883 19.8328 22.775C20.3795 22.4617 21.0128 22.305 21.7328 22.305C22.3262 22.305 22.8562 22.4117 23.3228 22.625C23.7962 22.8383 24.1762 23.1317 24.4628 23.505C24.7562 23.8717 24.9295 24.2983 24.9828 24.785H23.4428C23.3762 24.3917 23.1895 24.085 22.8828 23.865C22.5828 23.6383 22.2062 23.525 21.7528 23.525C21.3328 23.525 20.9662 23.625 20.6528 23.825C20.3395 24.0183 20.0962 24.2983 19.9228 24.665C19.7495 25.0317 19.6628 25.4717 19.6628 25.985C19.6628 26.5183 19.7495 26.975 19.9228 27.355C20.0962 27.7283 20.3495 28.015 20.6828 28.215C21.0228 28.4083 21.4395 28.505 21.9328 28.505C22.3328 28.505 22.6728 28.455 22.9528 28.355C23.2328 28.255 23.4462 28.115 23.5928 27.935L25.0528 28.515C24.6662 28.9017 24.2162 29.1983 23.7028 29.405C23.1962 29.605 22.5828 29.705 21.8628 29.705ZM23.5128 28.515V26.535L23.8228 26.845H21.9228V25.665H25.0528V28.515H23.5128Z" fill="white"/>
</svg>
