<svg width="40" height="40" viewBox="0 0 40 40" fill="none" xmlns="http://www.w3.org/2000/svg">
<path d="M7.75 4C7.75 2.20508 9.20508 0.75 11 0.75H27C27.1212 0.75 27.2375 0.798159 27.3232 0.883885L38.1161 11.6768C38.2018 11.7625 38.25 11.8788 38.25 12V36C38.25 37.7949 36.7949 39.25 35 39.25H11C9.20507 39.25 7.75 37.7949 7.75 36V4Z" fill="white" stroke="#EAECF0" stroke-width="1.5"/>
<path d="M27 0.5V8C27 10.2091 28.7909 12 31 12H38.5" stroke="#EAECF0" stroke-width="1.5"/>
<rect x="0.751877" y="18" width="28.4963" height="16" rx="2" fill="#0F6AF5"/>
<path d="M7.10188 29.6V23.58H4.75188V22.4H10.9919V23.58H8.64188V29.6H7.10188Z" fill="white"/>
<path d="M11.7306 29.6V22.4H13.2706V29.6H11.7306Z" fill="white"/>
<path d="M14.2697 29.6V22.4H15.8097V29.6H14.2697ZM14.9897 26.81V25.63H19.1197V26.81H14.9897ZM14.9897 23.58V22.4H19.3497V23.58H14.9897Z" fill="white"/>
<path d="M20.1681 29.6V22.4H21.7081V29.6H20.1681ZM20.8881 26.81V25.63H25.0181V26.81H20.8881ZM20.8881 23.58V22.4H25.2481V23.58H20.8881Z" fill="white"/>
</svg>
