<svg width="40" height="40" viewBox="0 0 40 40" fill="none" xmlns="http://www.w3.org/2000/svg">
<path d="M4 4C4 1.79086 5.79086 0 8 0H24L36 12V36C36 38.2091 34.2091 40 32 40H8C5.79086 40 4 38.2091 4 36V4Z" fill="url(#paint0_linear_264_26238)"/>
<path d="M24 0L36 12H28C25.7909 12 24 10.2091 24 8V0Z" fill="#EAECF0"/>
<path d="M13.0849 32V26.582H10.9699V25.52H16.5859V26.582H14.4709V32H13.0849Z" fill="#36383A"/>
<path d="M21.4008 32L19.6098 29.165L17.1078 25.52H18.7278L20.4108 28.193L23.0208 32H21.4008ZM19.8078 28.184L21.5538 25.52H23.0208L20.2668 29.345L19.8078 28.184ZM20.1228 29.381L18.4038 32H16.9368L19.6638 28.22L20.1228 29.381Z" fill="#36383A"/>
<path d="M25.5302 32V26.582H23.4152V25.52H29.0312V26.582H26.9162V32H25.5302Z" fill="#36383A"/>
<defs>
<linearGradient id="paint0_linear_264_26238" x1="20" y1="0" x2="20" y2="40" gradientUnits="userSpaceOnUse">
<stop stop-color="#F9FAFB"/>
<stop offset="1" stop-color="#EDF0F3"/>
</linearGradient>
</defs>
</svg>
