<svg width="40" height="40" viewBox="0 0 40 40" fill="none" xmlns="http://www.w3.org/2000/svg">
<path d="M4 4C4 1.79086 5.79086 0 8 0H24L36 12V36C36 38.2091 34.2091 40 32 40H8C5.79086 40 4 38.2091 4 36V4Z" fill="#875BF7"/>
<path opacity="0.3" d="M24 0L36 12H28C25.7909 12 24 10.2091 24 8V0Z" fill="white"/>
<g clip-path="url(#clip0_264_26088)">
<path fill-rule="evenodd" clip-rule="evenodd" d="M20 18.0833C16.7324 18.0833 14.0834 20.7323 14.0834 24C14.0834 27.2677 16.7324 29.9167 20 29.9167C23.2677 29.9167 25.9167 27.2677 25.9167 24C25.9167 20.7323 23.2677 18.0833 20 18.0833ZM12.5834 24C12.5834 19.9039 15.9039 16.5833 20 16.5833C24.0962 16.5833 27.4167 19.9039 27.4167 24C27.4167 28.0961 24.0962 31.4167 20 31.4167C15.9039 31.4167 12.5834 28.0961 12.5834 24ZM19.5406 20.8845C19.5474 20.8888 19.554 20.8931 19.5607 20.8974L22.7077 22.9205C22.7138 22.9244 22.7199 22.9283 22.7261 22.9323C22.8258 22.9963 22.9389 23.069 23.0297 23.1398C23.1264 23.2152 23.2867 23.3538 23.3815 23.5783C23.4954 23.8479 23.4954 24.1521 23.3815 24.4216C23.2867 24.6462 23.1264 24.7848 23.0297 24.8602C22.9389 24.931 22.8258 25.0037 22.7261 25.0677C22.7199 25.0717 22.7138 25.0756 22.7077 25.0795L19.5607 27.1026C19.554 27.1069 19.5473 27.1112 19.5406 27.1155C19.4247 27.1901 19.2984 27.2713 19.1864 27.3296C19.0738 27.3882 18.8586 27.4892 18.5895 27.47C18.2761 27.4476 17.9878 27.2902 17.7995 27.0387C17.6378 26.8228 17.6064 26.5872 17.5948 26.4607C17.5833 26.3349 17.5833 26.1848 17.5834 26.0469C17.5834 26.0389 17.5834 26.031 17.5834 26.0231V21.9769C17.5834 21.969 17.5834 21.961 17.5834 21.9531C17.5833 21.8152 17.5833 21.6651 17.5948 21.5393C17.6064 21.4128 17.6378 21.1772 17.7995 20.9613C17.9878 20.7097 18.2761 20.5524 18.5895 20.53C18.8586 20.5108 19.0738 20.6117 19.1864 20.6704C19.2985 20.7287 19.4247 20.8099 19.5406 20.8845ZM19.0834 22.3737V25.6262L21.6131 24L19.0834 22.3737Z" fill="white"/>
</g>
<defs>
<clipPath id="clip0_264_26088">
<rect width="16" height="16" fill="white" transform="translate(12 16)"/>
</clipPath>
</defs>
</svg>
