<svg width="40" height="40" viewBox="0 0 40 40" fill="none" xmlns="http://www.w3.org/2000/svg">
<path d="M4 4C4 1.79086 5.79086 0 8 0H24L36 12V36C36 38.2091 34.2091 40 32 40H8C5.79086 40 4 38.2091 4 36V4Z" fill="#875BF7"/>
<path opacity="0.3" d="M24 0L36 12H28C25.7909 12 24 10.2091 24 8V0Z" fill="white"/>
<g clip-path="url(#clip0_264_26070)">
<path fill-rule="evenodd" clip-rule="evenodd" d="M16.5029 16.5833H23.4971C24.0312 16.5833 24.4771 16.5833 24.8413 16.6131C25.2212 16.6441 25.5779 16.7112 25.9151 16.8831C26.4326 17.1467 26.8533 17.5674 27.1169 18.0849C27.2888 18.4221 27.3559 18.7788 27.3869 19.1587C27.4167 19.5229 27.4167 19.9687 27.4166 20.5029V27.4971C27.4167 28.0313 27.4167 28.4771 27.3869 28.8413C27.3559 29.2212 27.2888 29.5779 27.1169 29.9151C26.8533 30.4326 26.4326 30.8533 25.9151 31.1169C25.5779 31.2888 25.2212 31.3559 24.8413 31.3869C24.4771 31.4167 24.0312 31.4167 23.4971 31.4167H16.5029C15.9687 31.4167 15.5229 31.4167 15.1586 31.3869C14.7788 31.3559 14.4221 31.2888 14.0848 31.1169C13.5674 30.8533 13.1467 30.4326 12.883 29.9151C12.7112 29.5779 12.6441 29.2212 12.6131 28.8413C12.5833 28.4771 12.5833 28.0312 12.5833 27.4971V20.5029C12.5833 19.9687 12.5833 19.5229 12.6131 19.1587C12.6441 18.7788 12.7112 18.4221 12.883 18.0849C13.1467 17.5674 13.5674 17.1467 14.0848 16.8831C14.4221 16.7112 14.7788 16.6441 15.1586 16.6131C15.5229 16.5833 15.9687 16.5833 16.5029 16.5833ZM14.0833 21.4167V23.25H15.9166V21.4167H14.0833ZM15.9166 19.9167H14.0852C14.0878 19.6604 14.0938 19.4552 14.1081 19.2808C14.1315 18.9937 14.1734 18.8564 14.2196 18.7658C14.3394 18.5306 14.5306 18.3394 14.7658 18.2196C14.8564 18.1734 14.9937 18.1315 15.2808 18.1081C15.4552 18.0938 15.6604 18.0878 15.9166 18.0852V19.9167ZM17.4166 23.25H22.5833V18.0833H17.4166V23.25ZM24.0833 18.0852V19.9167H25.9148C25.9122 19.6604 25.9061 19.4552 25.8919 19.2808C25.8684 18.9937 25.8265 18.8564 25.7804 18.7658C25.6606 18.5306 25.4693 18.3394 25.2341 18.2196C25.1436 18.1734 25.0063 18.1315 24.7192 18.1081C24.5447 18.0938 24.3396 18.0878 24.0833 18.0852ZM25.9166 21.4167H24.0833V23.25H25.9166V21.4167ZM25.9166 24.75H24.0833V26.5833H25.9166V24.75ZM25.9148 28.0833H24.0833V29.9148C24.3396 29.9122 24.5447 29.9062 24.7192 29.8919C25.0063 29.8684 25.1436 29.8266 25.2341 29.7804C25.4693 29.6606 25.6606 29.4694 25.7804 29.2341C25.8265 29.1436 25.8684 29.0063 25.8919 28.7192C25.9061 28.5448 25.9122 28.3396 25.9148 28.0833ZM22.5833 29.9167V24.75H17.4166V29.9167H22.5833ZM15.9166 29.9148V28.0833H14.0852C14.0878 28.3396 14.0938 28.5448 14.1081 28.7192C14.1315 29.0063 14.1734 29.1436 14.2196 29.2341C14.3394 29.4694 14.5306 29.6606 14.7658 29.7804C14.8564 29.8266 14.9937 29.8684 15.2808 29.8919C15.4552 29.9062 15.6604 29.9122 15.9166 29.9148ZM14.0833 26.5833H15.9166V24.75H14.0833V26.5833Z" fill="white"/>
</g>
<defs>
<clipPath id="clip0_264_26070">
<rect width="16" height="16" fill="white" transform="translate(12 16)"/>
</clipPath>
</defs>
</svg>
