<svg width="40" height="40" viewBox="0 0 40 40" fill="none" xmlns="http://www.w3.org/2000/svg">
<path d="M4 4C4 1.79086 5.79086 0 8 0H24L36 12V36C36 38.2091 34.2091 40 32 40H8C5.79086 40 4 38.2091 4 36V4Z" fill="url(#paint0_linear_264_26462)"/>
<path d="M24 0L36 12H28C25.7909 12 24 10.2091 24 8V0Z" fill="#EAECF0"/>
<path d="M11.6872 32L9.86023 25.52H11.2642L12.7762 31.451H12.3352L13.6852 25.52H15.2602L16.5922 31.451H16.1602L17.6812 25.52H19.0222L17.1952 32H15.6472L14.2702 26.186H14.6302L13.2352 32H11.6872Z" fill="#36383A"/>
<path d="M18.5417 32L20.8637 25.52H22.0517L19.9187 32H18.5417ZM23.2937 32L21.1697 25.52H22.4117L24.7337 32H23.2937ZM19.7657 29.489H23.4017V30.569H19.7657V29.489Z" fill="#36383A"/>
<path d="M26.3569 32L24.0349 25.52H25.4749L27.2479 30.92H27.0769L28.8589 25.52H30.2269L27.9049 32H26.3569Z" fill="#36383A"/>
<defs>
<linearGradient id="paint0_linear_264_26462" x1="20" y1="0" x2="20" y2="40" gradientUnits="userSpaceOnUse">
<stop stop-color="#F9FAFB"/>
<stop offset="1" stop-color="#EDF0F3"/>
</linearGradient>
</defs>
</svg>
