<svg width="40" height="40" viewBox="0 0 40 40" fill="none" xmlns="http://www.w3.org/2000/svg">
<path d="M7.75 4C7.75 2.20508 9.20508 0.75 11 0.75H27C27.1212 0.75 27.2375 0.798159 27.3232 0.883885L38.1161 11.6768C38.2018 11.7625 38.25 11.8788 38.25 12V36C38.25 37.7949 36.7949 39.25 35 39.25H11C9.20507 39.25 7.75 37.7949 7.75 36V4Z" fill="white" stroke="#EAECF0" stroke-width="1.5"/>
<path d="M27 0.5V8C27 10.2091 28.7909 12 31 12H38.5" stroke="#EAECF0" stroke-width="1.5"/>
<rect x="0.685181" y="18" width="30.6296" height="16" rx="2" fill="#D444F1"/>
<path d="M6.71518 29.6L4.68518 22.4H6.24518L7.92518 28.99H7.43518L8.93518 22.4H10.6852L12.1652 28.99H11.6852L13.3752 22.4H14.8652L12.8352 29.6H11.1152L9.58518 23.14H9.98518L8.43518 29.6H6.71518Z" fill="white"/>
<path d="M14.3313 29.6L16.9113 22.4H18.2313L15.8613 29.6H14.3313ZM19.6113 29.6L17.2513 22.4H18.6313L21.2113 29.6H19.6113ZM15.6913 26.81H19.7313V28.01H15.6913V26.81Z" fill="white"/>
<path d="M23.0148 29.6L20.4348 22.4H22.0348L24.0048 28.4H23.8148L25.7948 22.4H27.3148L24.7348 29.6H23.0148Z" fill="white"/>
</svg>
