<svg width="40" height="40" viewBox="0 0 40 40" fill="none" xmlns="http://www.w3.org/2000/svg">
<path d="M4 4C4 1.79086 5.79086 0 8 0H24L36 12V36C36 38.2091 34.2091 40 32 40H8C5.79086 40 4 38.2091 4 36V4Z" fill="url(#paint0_linear_264_25936)"/>
<path d="M24 0L36 12H28C25.7909 12 24 10.2091 24 8V0Z" fill="#EAECF0"/>
<path d="M8.51435 32L6.68735 25.52H8.09135L9.60335 31.451H9.16235L10.5123 25.52H12.0873L13.4193 31.451H12.9873L14.5083 25.52H15.8493L14.0223 32H12.4743L11.0973 26.186H11.4573L10.0623 32H8.51435Z" fill="#36383A"/>
<path d="M16.6048 32V25.52H17.9908V32H16.6048ZM17.2528 32V30.938H21.4288V32H17.2528ZM17.2528 29.21V28.166H21.1138V29.21H17.2528ZM17.2528 26.582V25.52H21.3208V26.582H17.2528Z" fill="#36383A"/>
<path d="M23.3111 32V31.01H24.9851C25.285 31.01 25.5101 30.929 25.6601 30.767C25.8161 30.599 25.8941 30.368 25.8941 30.074C25.8941 29.774 25.8101 29.537 25.6421 29.363C25.4801 29.189 25.246 29.102 24.9401 29.102H23.3111V28.112H24.8681C25.1501 28.112 25.3631 28.046 25.5071 27.914C25.6571 27.776 25.732 27.575 25.732 27.311C25.732 27.047 25.66 26.849 25.5161 26.717C25.378 26.579 25.1711 26.51 24.8951 26.51H23.3111V25.52H25.1921C25.7681 25.52 26.2331 25.667 26.5871 25.961C26.9411 26.255 27.1181 26.654 27.1181 27.158C27.1181 27.476 27.0431 27.749 26.8931 27.977C26.7431 28.205 26.5421 28.379 26.2901 28.499C26.038 28.619 25.7561 28.679 25.444 28.679L25.489 28.49C25.8251 28.49 26.128 28.562 26.3981 28.706C26.674 28.85 26.893 29.054 27.055 29.318C27.2171 29.576 27.298 29.882 27.298 30.236C27.298 30.59 27.2141 30.902 27.0461 31.172C26.8841 31.436 26.653 31.64 26.3531 31.784C26.059 31.928 25.7111 32 25.3091 32H23.3111ZM22.1771 32V25.52H23.5631V32H22.1771Z" fill="#36383A"/>
<path d="M28.0218 32V25.52H31.0998C31.5798 25.52 31.9908 25.604 32.3328 25.772C32.6808 25.94 32.9478 26.174 33.1338 26.474C33.3258 26.774 33.4218 27.125 33.4218 27.527C33.4218 27.929 33.3258 28.283 33.1338 28.589C32.9418 28.895 32.6718 29.135 32.3238 29.309C31.9818 29.477 31.5738 29.561 31.0998 29.561H29.1198V28.499H31.0278C31.3458 28.499 31.5918 28.412 31.7658 28.238C31.9458 28.058 32.0358 27.824 32.0358 27.536C32.0358 27.248 31.9458 27.017 31.7658 26.843C31.5918 26.669 31.3458 26.582 31.0278 26.582H29.4078V32H28.0218Z" fill="#36383A"/>
<defs>
<linearGradient id="paint0_linear_264_25936" x1="20" y1="0" x2="20" y2="40" gradientUnits="userSpaceOnUse">
<stop stop-color="#F9FAFB"/>
<stop offset="1" stop-color="#EDF0F3"/>
</linearGradient>
</defs>
</svg>
