<svg width="40" height="40" viewBox="0 0 40 40" fill="none" xmlns="http://www.w3.org/2000/svg">
<path d="M7.75 4C7.75 2.20508 9.20508 0.75 11 0.75H27C27.1212 0.75 27.2375 0.798159 27.3232 0.883885L38.1161 11.6768C38.2018 11.7625 38.25 11.8788 38.25 12V36C38.25 37.7949 36.7949 39.25 35 39.25H11C9.20507 39.25 7.75 37.7949 7.75 36V4Z" fill="white" stroke="#EAECF0" stroke-width="1.5"/>
<path d="M27 0.5V8C27 10.2091 28.7909 12 31 12H38.5" stroke="#EAECF0" stroke-width="1.5"/>
<rect x="0.147537" y="18" width="37.7049" height="16" rx="2" fill="#0F6AF5"/>
<path d="M6.17754 29.6L4.14754 22.4H5.70754L7.38754 28.99H6.89754L8.39754 22.4H10.1475L11.6275 28.99H11.1475L12.8375 22.4H14.3275L12.2975 29.6H10.5775L9.04754 23.14H9.44754L7.89754 29.6H6.17754Z" fill="white"/>
<path d="M15.1669 29.6V22.4H16.7069V29.6H15.1669ZM15.8869 29.6V28.42H20.5269V29.6H15.8869ZM15.8869 26.5V25.34H20.1769V26.5H15.8869ZM15.8869 23.58V22.4H20.4069V23.58H15.8869Z" fill="white"/>
<path d="M22.6183 29.6V28.5H24.4783C24.8117 28.5 25.0617 28.41 25.2283 28.23C25.4017 28.0433 25.4883 27.7867 25.4883 27.46C25.4883 27.1267 25.395 26.8633 25.2083 26.67C25.0283 26.4767 24.7683 26.38 24.4283 26.38H22.6183V25.28H24.3483C24.6617 25.28 24.8983 25.2067 25.0583 25.06C25.225 24.9067 25.3083 24.6833 25.3083 24.39C25.3083 24.0967 25.2283 23.8767 25.0683 23.73C24.915 23.5767 24.685 23.5 24.3783 23.5H22.6183V22.4H24.7083C25.3483 22.4 25.865 22.5633 26.2583 22.89C26.6517 23.2167 26.8483 23.66 26.8483 24.22C26.8483 24.5733 26.765 24.8767 26.5983 25.13C26.4317 25.3833 26.2083 25.5767 25.9283 25.71C25.6483 25.8433 25.335 25.91 24.9883 25.91L25.0383 25.7C25.4117 25.7 25.7483 25.78 26.0483 25.94C26.355 26.1 26.5983 26.3267 26.7783 26.62C26.9583 26.9067 27.0483 27.2467 27.0483 27.64C27.0483 28.0333 26.955 28.38 26.7683 28.68C26.5883 28.9733 26.3317 29.2 25.9983 29.36C25.6717 29.52 25.285 29.6 24.8383 29.6H22.6183ZM21.3583 29.6V22.4H22.8983V29.6H21.3583Z" fill="white"/>
<path d="M27.8525 29.6V22.4H31.2725C31.8058 22.4 32.2625 22.4933 32.6425 22.68C33.0291 22.8667 33.3258 23.1267 33.5325 23.46C33.7458 23.7933 33.8525 24.1833 33.8525 24.63C33.8525 25.0767 33.7458 25.47 33.5325 25.81C33.3191 26.15 33.0191 26.4167 32.6325 26.61C32.2525 26.7967 31.7991 26.89 31.2725 26.89H29.0725V25.71H31.1925C31.5458 25.71 31.8191 25.6133 32.0125 25.42C32.2125 25.22 32.3125 24.96 32.3125 24.64C32.3125 24.32 32.2125 24.0633 32.0125 23.87C31.8191 23.6767 31.5458 23.58 31.1925 23.58H29.3925V29.6H27.8525Z" fill="white"/>
</svg>
