<svg width="40" height="40" viewBox="0 0 40 40" fill="none" xmlns="http://www.w3.org/2000/svg">
<path d="M7.75 4C7.75 2.20508 9.20508 0.75 11 0.75H27C27.1212 0.75 27.2375 0.798159 27.3232 0.883885L38.1161 11.6768C38.2018 11.7625 38.25 11.8788 38.25 12V36C38.25 37.7949 36.7949 39.25 35 39.25H11C9.20507 39.25 7.75 37.7949 7.75 36V4Z" fill="white" stroke="#EAECF0" stroke-width="1.5"/>
<path d="M27 0.5V8C27 10.2091 28.7909 12 31 12H38.5" stroke="#EAECF0" stroke-width="1.5"/>
<rect x="0.602356" y="18" width="26.7953" height="16" rx="2" fill="#1D7A5B"/>
<path d="M9.56236 29.61L7.57236 26.46L4.79236 22.41H6.59236L8.46236 25.38L11.3624 29.61H9.56236ZM7.79236 25.37L9.73236 22.41H11.3624L8.30236 26.66L7.79236 25.37ZM8.14236 26.7L6.23236 29.61H4.60236L7.63236 25.41L8.14236 26.7Z" fill="white"/>
<path d="M12.0606 29.61V22.41H13.6006V29.61H12.0606ZM12.7806 29.61V28.43H17.0606V29.61H12.7806Z" fill="white"/>
<path d="M20.5577 29.7C19.6243 29.7 18.8777 29.4933 18.3177 29.08C17.7577 28.66 17.431 28.07 17.3377 27.31H18.8177C18.8643 27.6967 19.051 28.0033 19.3777 28.23C19.7043 28.45 20.121 28.56 20.6277 28.56C21.041 28.56 21.3577 28.4867 21.5777 28.34C21.8043 28.1933 21.9177 27.9967 21.9177 27.75C21.9177 27.5167 21.851 27.33 21.7177 27.19C21.5843 27.0433 21.3543 26.9267 21.0277 26.84L19.6877 26.47C19.001 26.2767 18.4977 26.0133 18.1777 25.68C17.8643 25.34 17.7077 24.9167 17.7077 24.41C17.7077 23.9767 17.8177 23.6033 18.0377 23.29C18.2643 22.97 18.581 22.7267 18.9877 22.56C19.3943 22.3867 19.871 22.3 20.4177 22.3C21.2577 22.3 21.9277 22.5 22.4277 22.9C22.9277 23.2933 23.211 23.8167 23.2777 24.47H21.7977C21.731 24.1167 21.5677 23.8567 21.3077 23.69C21.0543 23.5233 20.7277 23.44 20.3277 23.44C19.981 23.44 19.7043 23.5067 19.4977 23.64C19.291 23.7733 19.1877 23.9533 19.1877 24.18C19.1877 24.3533 19.2443 24.5133 19.3577 24.66C19.471 24.8 19.7077 24.92 20.0677 25.02L21.4077 25.39C22.1143 25.5833 22.621 25.85 22.9277 26.19C23.241 26.5233 23.3977 26.9467 23.3977 27.46C23.3977 28.18 23.1477 28.7333 22.6477 29.12C22.1477 29.5067 21.451 29.7 20.5577 29.7Z" fill="white"/>
</svg>
