<svg width="40" height="40" viewBox="0 0 40 40" fill="none" xmlns="http://www.w3.org/2000/svg">
<path d="M7.75 4C7.75 2.20508 9.20508 0.75 11 0.75H27C27.1212 0.75 27.2375 0.798159 27.3232 0.883885L38.1161 11.6768C38.2018 11.7625 38.25 11.8788 38.25 12V36C38.25 37.7949 36.7949 39.25 35 39.25H11C9.20507 39.25 7.75 37.7949 7.75 36V4Z" fill="white" stroke="#EAECF0" stroke-width="1.5"/>
<path d="M27 0.5V8C27 10.2091 28.7909 12 31 12H38.5" stroke="#EAECF0" stroke-width="1.5"/>
<rect x="0.671753" y="18" width="33.6565" height="16" rx="2" fill="#1D7A5B"/>
<path d="M9.63175 29.61L7.64175 26.46L4.86175 22.41H6.66175L8.53175 25.38L11.4318 29.61H9.63175ZM7.86175 25.37L9.80175 22.41H11.4318L8.37175 26.66L7.86175 25.37ZM8.21175 26.7L6.30175 29.61H4.67175L7.70175 25.41L8.21175 26.7Z" fill="white"/>
<path d="M12.13 29.61V22.41H13.67V29.61H12.13ZM12.85 29.61V28.43H17.13V29.61H12.85Z" fill="white"/>
<path d="M20.6271 29.7C19.6937 29.7 18.9471 29.4933 18.3871 29.08C17.8271 28.66 17.5004 28.07 17.4071 27.31H18.8871C18.9337 27.6967 19.1204 28.0033 19.4471 28.23C19.7737 28.45 20.1904 28.56 20.6971 28.56C21.1104 28.56 21.4271 28.4867 21.6471 28.34C21.8737 28.1933 21.9871 27.9967 21.9871 27.75C21.9871 27.5167 21.9204 27.33 21.7871 27.19C21.6537 27.0433 21.4237 26.9267 21.0971 26.84L19.7571 26.47C19.0704 26.2767 18.5671 26.0133 18.2471 25.68C17.9337 25.34 17.7771 24.9167 17.7771 24.41C17.7771 23.9767 17.8871 23.6033 18.1071 23.29C18.3337 22.97 18.6504 22.7267 19.0571 22.56C19.4637 22.3867 19.9404 22.3 20.4871 22.3C21.3271 22.3 21.9971 22.5 22.4971 22.9C22.9971 23.2933 23.2804 23.8167 23.3471 24.47H21.8671C21.8004 24.1167 21.6371 23.8567 21.3771 23.69C21.1237 23.5233 20.7971 23.44 20.3971 23.44C20.0504 23.44 19.7737 23.5067 19.5671 23.64C19.3604 23.7733 19.2571 23.9533 19.2571 24.18C19.2571 24.3533 19.3137 24.5133 19.4271 24.66C19.5404 24.8 19.7771 24.92 20.1371 25.02L21.4771 25.39C22.1837 25.5833 22.6904 25.85 22.9971 26.19C23.3104 26.5233 23.4671 26.9467 23.4671 27.46C23.4671 28.18 23.2171 28.7333 22.7171 29.12C22.2171 29.5067 21.5204 29.7 20.6271 29.7Z" fill="white"/>
<path d="M28.5282 29.61L26.5382 26.46L23.7582 22.41H25.5582L27.4282 25.38L30.3282 29.61H28.5282ZM26.7582 25.37L28.6982 22.41H30.3282L27.2682 26.66L26.7582 25.37ZM27.1082 26.7L25.1982 29.61H23.5682L26.5982 25.41L27.1082 26.7Z" fill="white"/>
</svg>
