<svg width="40" height="40" viewBox="0 0 40 40" fill="none" xmlns="http://www.w3.org/2000/svg">
<path d="M4 4C4 1.79086 5.79086 0 8 0H24L36 12V36C36 38.2091 34.2091 40 32 40H8C5.79086 40 4 38.2091 4 36V4Z" fill="url(#paint0_linear_264_26286)"/>
<path d="M24 0L36 12H28C25.7909 12 24 10.2091 24 8V0Z" fill="#EAECF0"/>
<path d="M12.9194 32L11.1284 29.165L8.62638 25.52H10.2464L11.9294 28.193L14.5394 32H12.9194ZM11.3264 28.184L13.0724 25.52H14.5394L11.7854 29.345L11.3264 28.184ZM11.6414 29.381L9.92238 32H8.45538L11.1824 28.22L11.6414 29.381Z" fill="#36383A"/>
<path d="M15.1678 32V25.52H16.5538V32H15.1678ZM15.8158 32V30.938H19.6678V32H15.8158Z" fill="#36383A"/>
<path d="M22.8152 32.081C21.9752 32.081 21.3032 31.895 20.7992 31.523C20.2952 31.145 20.0012 30.614 19.9172 29.93H21.2492C21.2912 30.278 21.4592 30.554 21.7532 30.758C22.0472 30.956 22.4222 31.055 22.8782 31.055C23.2502 31.055 23.5352 30.989 23.7332 30.857C23.9372 30.725 24.0392 30.548 24.0392 30.326C24.0392 30.116 23.9792 29.948 23.8592 29.822C23.7392 29.69 23.5322 29.585 23.2382 29.507L22.0322 29.174C21.4142 29 20.9612 28.763 20.6732 28.463C20.3912 28.157 20.2502 27.776 20.2502 27.32C20.2502 26.93 20.3492 26.594 20.5472 26.312C20.7512 26.024 21.0362 25.805 21.4022 25.655C21.7682 25.499 22.1972 25.421 22.6892 25.421C23.4452 25.421 24.0482 25.601 24.4982 25.961C24.9482 26.315 25.2032 26.786 25.2632 27.374H23.9312C23.8712 27.056 23.7242 26.822 23.4902 26.672C23.2622 26.522 22.9682 26.447 22.6082 26.447C22.2962 26.447 22.0472 26.507 21.8612 26.627C21.6752 26.747 21.5822 26.909 21.5822 27.113C21.5822 27.269 21.6332 27.413 21.7352 27.545C21.8372 27.671 22.0502 27.779 22.3742 27.869L23.5802 28.202C24.2162 28.376 24.6722 28.616 24.9482 28.922C25.2302 29.222 25.3712 29.603 25.3712 30.065C25.3712 30.713 25.1462 31.211 24.6962 31.559C24.2462 31.907 23.6192 32.081 22.8152 32.081Z" fill="#36383A"/>
<path d="M29.9262 32L28.1352 29.165L25.6332 25.52H27.2532L28.9362 28.193L31.5462 32H29.9262ZM28.3332 28.184L30.0792 25.52H31.5462L28.7922 29.345L28.3332 28.184ZM28.6482 29.381L26.9292 32H25.4622L28.1892 28.22L28.6482 29.381Z" fill="#36383A"/>
<defs>
<linearGradient id="paint0_linear_264_26286" x1="20" y1="0" x2="20" y2="40" gradientUnits="userSpaceOnUse">
<stop stop-color="#F9FAFB"/>
<stop offset="1" stop-color="#EDF0F3"/>
</linearGradient>
</defs>
</svg>
