<svg width="40" height="40" viewBox="0 0 40 40" fill="none" xmlns="http://www.w3.org/2000/svg">
<path d="M4 4C4 1.79086 5.79086 0 8 0H24L36 12V36C36 38.2091 34.2091 40 32 40H8C5.79086 40 4 38.2091 4 36V4Z" fill="url(#paint0_linear_264_26606)"/>
<path d="M24 0L36 12H28C25.7909 12 24 10.2091 24 8V0Z" fill="#EAECF0"/>
<path d="M14.7475 32L12.9565 29.165L10.4545 25.52H12.0745L13.7575 28.193L16.3675 32H14.7475ZM13.1545 28.184L14.9005 25.52H16.3675L13.6135 29.345L13.1545 28.184ZM13.4695 29.381L11.7505 32H10.2835L13.0105 28.22L13.4695 29.381Z" fill="#36383A"/>
<path d="M16.9959 32V25.52H19.1559L20.9559 31.766H20.1729L21.9729 25.52H24.1419V32H22.7739V25.907H23.0079L21.2529 32H19.8219L18.0849 25.961H18.3099V32H16.9959Z" fill="#36383A"/>
<path d="M25.0379 32V25.52H26.4239V32H25.0379ZM25.6859 32V30.938H29.5379V32H25.6859Z" fill="#36383A"/>
<defs>
<linearGradient id="paint0_linear_264_26606" x1="20" y1="0" x2="20" y2="40" gradientUnits="userSpaceOnUse">
<stop stop-color="#F9FAFB"/>
<stop offset="1" stop-color="#EDF0F3"/>
</linearGradient>
</defs>
</svg>
