<svg width="40" height="40" viewBox="0 0 40 40" fill="none" xmlns="http://www.w3.org/2000/svg">
<path d="M7.75 4C7.75 2.20508 9.20508 0.75 11 0.75H27C27.1212 0.75 27.2375 0.798159 27.3232 0.883885L38.1161 11.6768C38.2018 11.7625 38.25 11.8788 38.25 12V36C38.25 37.7949 36.7949 39.25 35 39.25H11C9.20507 39.25 7.75 37.7949 7.75 36V4Z" fill="white" stroke="#EAECF0" stroke-width="1.5"/>
<path d="M27 0.5V8C27 10.2091 28.7909 12 31 12H38.5" stroke="#EAECF0" stroke-width="1.5"/>
<rect x="0.303125" y="18" width="29.3937" height="16" rx="2" fill="#875BF7"/>
<path d="M9.26313 29.6L7.27313 26.45L4.49313 22.4H6.29313L8.16313 25.37L11.0631 29.6H9.26313ZM7.49313 25.36L9.43313 22.4H11.0631L8.00313 26.65L7.49313 25.36ZM7.84313 26.69L5.93313 29.6H4.30313L7.33313 25.4L7.84313 26.69Z" fill="white"/>
<path d="M11.7613 29.6V22.4H14.1613L16.1613 29.34H15.2913L17.2913 22.4H19.7013V29.6H18.1813V22.83H18.4413L16.4913 29.6H14.9013L12.9713 22.89H13.2213V29.6H11.7613Z" fill="white"/>
<path d="M20.6969 29.6V22.4H22.2369V29.6H20.6969ZM21.4169 29.6V28.42H25.6969V29.6H21.4169Z" fill="white"/>
</svg>
