<svg width="40" height="40" viewBox="0 0 40 40" fill="none" xmlns="http://www.w3.org/2000/svg">
<path d="M4 4C4 1.79086 5.79086 0 8 0H24L36 12V36C36 38.2091 34.2091 40 32 40H8C5.79086 40 4 38.2091 4 36V4Z" fill="url(#paint0_linear_264_26510)"/>
<path d="M24 0L36 12H28C25.7909 12 24 10.2091 24 8V0Z" fill="#EAECF0"/>
<path d="M13.3375 32V31.064L16.9195 26.069L17.2525 26.582H13.4635V25.52H18.3325V26.456L14.8045 31.388L14.4895 30.938H18.3685V32H13.3375Z" fill="#36383A"/>
<path d="M19.1404 32V25.52H20.5264V32H19.1404Z" fill="#36383A"/>
<path d="M21.4256 32V25.52H24.5036C24.9836 25.52 25.3946 25.604 25.7366 25.772C26.0846 25.94 26.3516 26.174 26.5376 26.474C26.7296 26.774 26.8256 27.125 26.8256 27.527C26.8256 27.929 26.7296 28.283 26.5376 28.589C26.3456 28.895 26.0756 29.135 25.7276 29.309C25.3856 29.477 24.9776 29.561 24.5036 29.561H22.5236V28.499H24.4316C24.7496 28.499 24.9956 28.412 25.1696 28.238C25.3496 28.058 25.4396 27.824 25.4396 27.536C25.4396 27.248 25.3496 27.017 25.1696 26.843C24.9956 26.669 24.7496 26.582 24.4316 26.582H22.8116V32H21.4256Z" fill="#36383A"/>
<defs>
<linearGradient id="paint0_linear_264_26510" x1="20" y1="0" x2="20" y2="40" gradientUnits="userSpaceOnUse">
<stop stop-color="#F9FAFB"/>
<stop offset="1" stop-color="#EDF0F3"/>
</linearGradient>
</defs>
</svg>
