<svg width="40" height="40" viewBox="0 0 40 40" fill="none" xmlns="http://www.w3.org/2000/svg">
<path d="M7.75 4C7.75 2.20508 9.20508 0.75 11 0.75H27C27.1212 0.75 27.2375 0.798159 27.3232 0.883885L38.1161 11.6768C38.2018 11.7625 38.25 11.8788 38.25 12V36C38.25 37.7949 36.7949 39.25 35 39.25H11C9.20507 39.25 7.75 37.7949 7.75 36V4Z" fill="white" stroke="#EAECF0" stroke-width="1.5"/>
<path d="M27 0.5V8C27 10.2091 28.7909 12 31 12H38.5" stroke="#EAECF0" stroke-width="1.5"/>
<rect x="0.506638" y="18" width="22.9867" height="16" rx="2" fill="#36383A"/>
<path d="M4.50664 29.6V28.56L8.48664 23.01L8.85664 23.58H4.64664V22.4H10.0566V23.44L6.13664 28.92L5.78664 28.42H10.0966V29.6H4.50664Z" fill="white"/>
<path d="M10.9543 29.6V22.4H12.4943V29.6H10.9543Z" fill="white"/>
<path d="M13.4934 29.6V22.4H16.9134C17.4467 22.4 17.9034 22.4933 18.2834 22.68C18.67 22.8667 18.9667 23.1267 19.1734 23.46C19.3867 23.7933 19.4934 24.1833 19.4934 24.63C19.4934 25.0767 19.3867 25.47 19.1734 25.81C18.96 26.15 18.66 26.4167 18.2734 26.61C17.8934 26.7967 17.44 26.89 16.9134 26.89H14.7134V25.71H16.8334C17.1867 25.71 17.46 25.6133 17.6534 25.42C17.8534 25.22 17.9534 24.96 17.9534 24.64C17.9534 24.32 17.8534 24.0633 17.6534 23.87C17.46 23.6767 17.1867 23.58 16.8334 23.58H15.0334V29.6H13.4934Z" fill="white"/>
</svg>
