<svg width="60" height="45" viewBox="0 0 60 45" fill="none" xmlns="http://www.w3.org/2000/svg">
<g clip-path="url(#clip0_264_7095)">
<path d="M0 0V44.9996H67.4993V0H0Z" fill="#3399CC"/>
<path d="M0 29.9997V32.4997H67.4993V29.9997H0ZM0 34.9996V37.4996H67.4993V34.9996H0Z" fill="#FFFF00"/>
<path d="M13.3782 2.625L13.65 2.90625L13.3688 2.625H13.3782ZM13.0969 3.1875L13.3782 3.46875L13.0969 3.1875ZM13.65 3.1875L13.9313 3.46875L13.65 3.1875Z" fill="#99CCCC"/>
<path d="M13.0969 3.46873L13.3782 3.7406L13.0969 3.45935M13.65 3.45935L13.9313 3.7406L13.65 3.45935Z" fill="#CCCCFF"/>
<path d="M12.8157 4.01251L13.0969 4.29376L12.8157 4.01251Z" fill="#66CCCC"/>
<path d="M13.3781 4.01251L13.65 4.29376L13.3688 4.01251H13.3781Z" fill="#CC6666"/>
<path d="M13.9313 4.01251L14.2031 4.29376L13.9219 4.01251H13.9313Z" fill="#66CCCC"/>
<path d="M12.8157 4.29376L13.0969 4.57501L12.8157 4.29376ZM13.9313 4.29376L14.2032 4.57501L13.9219 4.29376H13.9313Z" fill="#CCCCFF"/>
<path d="M13.0969 4.56561L13.3782 4.84686L13.0969 4.56561ZM13.65 4.56561L13.9313 4.84686L13.65 4.56561Z" fill="#FFCCCC"/>
<path d="M12.5437 4.84686L12.825 5.12811L12.5437 4.84686Z" fill="#66CCCC"/>
<path d="M13.3312 3.1875L11.3906 10.5469L4.01245 12.5625L11.3625 14.4844L13.3312 21.8344L15.2906 14.4844L22.6406 12.5156L15.2906 10.5562L13.3218 3.20625L13.3312 3.1875Z" fill="#CC0000"/>
<path fill-rule="evenodd" clip-rule="evenodd" d="M13.1447 3.21492L11.2484 10.4059L3.34094 12.5662L11.2211 14.6266L13.3316 22.5062L15.4324 14.6259L23.3124 12.5152L15.4322 10.4145L13.4894 3.16136L13.3859 3.18907L13.1761 3.10992L13.1373 3.18754L13.1447 3.21492ZM13.3254 3.88979L11.5328 10.6878L4.68406 12.5588L11.5039 14.3421L13.3309 21.1625L15.1489 14.3428L21.9688 12.516L15.149 10.698L13.3254 3.88979Z" fill="#F0F0F0"/>
<path d="M14.2031 4.84686L14.4844 5.12811L14.2031 4.84686Z" fill="#66CCCC"/>
<path d="M12.5437 5.11877L12.825 5.40002L12.5437 5.11877ZM14.2031 5.11877L14.4843 5.40002L14.2031 5.11877Z" fill="#99CCFF"/>
<path d="M12.8157 5.40002L13.0969 5.68127L12.8157 5.40002ZM13.9313 5.40002L14.2032 5.68127L13.9219 5.40002H13.9313Z" fill="#FFCCCC"/>
<path d="M12.2625 5.67188L12.5437 5.95312L12.2625 5.67188Z" fill="#6699CC"/>
<path d="M12.9094 5.85938L13.0032 6.04688L12.9094 5.85938ZM14.0157 5.85938L14.1094 6.04688L14.0157 5.85938Z" fill="#CC3333"/>
<path d="M14.4844 5.67188L14.7656 5.95312L14.4844 5.67188Z" fill="#6699CC"/>
<path d="M12.2625 5.95312L12.5437 6.23438L12.2625 5.95312ZM14.4843 5.95312L14.7656 6.23438L14.4843 5.95312Z" fill="#99CCFF"/>
<path d="M12.5437 6.22498L12.825 6.50623L12.5437 6.22498ZM14.2031 6.22498L14.4843 6.50623L14.2031 6.22498Z" fill="#FFCCCC"/>
<path d="M11.9906 6.50623L12.2718 6.78748L11.9906 6.50623ZM14.7562 6.50623L15.0375 6.78748L14.7562 6.50623Z" fill="#6699CC"/>
<path d="M11.9906 6.77814L12.2718 7.05939L11.9906 6.77814ZM14.7562 6.77814L15.0375 7.05939L14.7562 6.77814Z" fill="#99CCCC"/>
<path d="M11.9906 7.05939L12.2718 7.34064L11.9906 7.05939ZM14.7562 7.05939L15.0375 7.34064L14.7562 7.05939Z" fill="#CCFFFF"/>
<path d="M11.7187 7.34061L11.9906 7.61249L11.7094 7.33124L11.7187 7.34061Z" fill="#6699CC"/>
<path d="M12.2625 7.34061L12.5437 7.61249L12.2625 7.33124M14.4843 7.33124L14.7656 7.61249L14.4843 7.33124Z" fill="#FFCCCC"/>
<path d="M15.0375 7.34061L15.3187 7.61249L15.0375 7.33124V7.34061Z" fill="#6699CC"/>
<path d="M11.7187 7.61249L11.9906 7.89374L11.7094 7.61249H11.7187Z" fill="#99CCCC"/>
<path d="M12.3562 7.79999L12.45 7.98749L12.3562 7.79999ZM14.5687 7.79999L14.6625 7.98749L14.5687 7.79999Z" fill="#CC3333"/>
<path d="M15.0375 7.61249L15.3187 7.89374L15.0375 7.61249Z" fill="#99CCCC"/>
<path d="M11.7187 7.89374L11.9906 8.17499L11.7094 7.89374M15.0375 7.89374L15.3187 8.17499L15.0375 7.89374Z" fill="#CCFFFF"/>
<path d="M11.9906 8.16565L12.2718 8.4469L11.9906 8.16565ZM14.7562 8.16565L15.0375 8.4469L14.7562 8.16565Z" fill="#FFCCCC"/>
<path d="M11.4375 8.4375L11.7188 8.71875L11.4375 8.4375Z" fill="#99CCCC"/>
<path d="M12.0844 8.625L12.1781 8.8125L12.0844 8.625ZM14.85 8.625L14.9437 8.8125L14.85 8.625Z" fill="#CC3333"/>
<path d="M15.3093 8.4375L15.5906 8.71875L15.3093 8.4375Z" fill="#99CCCC"/>
<path d="M11.4375 8.71875L11.7188 9L11.4375 8.71875ZM15.3094 8.71875L15.5906 9L15.3094 8.71875Z" fill="#CCCCFF"/>
<path d="M11.7187 9L11.9906 9.28125L11.7094 9M15.0375 9L15.3187 9.28125L15.0375 9Z" fill="#FFCCCC"/>
<path d="M11.1562 9.28123L11.4375 9.5531L11.1562 9.27185V9.28123Z" fill="#99CCCC"/>
<path d="M11.8125 9.45935L11.8969 9.64685L11.8031 9.45935M15.1219 9.45935L15.2156 9.64685L15.1219 9.45935Z" fill="#CC3333"/>
<path d="M15.5906 9.28123L15.8718 9.5531L15.5906 9.27185V9.28123Z" fill="#99CCCC"/>
<path d="M11.1562 9.5531L11.4375 9.83435L11.1562 9.5531ZM15.5906 9.5531L15.8719 9.83435L15.5906 9.5531Z" fill="#CCCCFF"/>
<path d="M11.4375 9.82501L11.7188 10.1063L11.4375 9.82501ZM15.3094 9.82501L15.5906 10.1063L15.3094 9.82501Z" fill="#FFCCCC"/>
<path d="M10.875 10.1063L11.1562 10.3875L10.875 10.1063Z" fill="#99CCCC"/>
<path d="M11.4375 10.1063L11.7188 10.3875L11.4375 10.1063ZM15.3094 10.1063L15.5906 10.3875L15.3094 10.1063Z" fill="#CC3333"/>
<path d="M15.8625 10.1063L16.1438 10.3875L15.8625 10.1063ZM10.05 10.3875L10.3313 10.6594L10.05 10.3781V10.3875Z" fill="#99CCCC"/>
<path d="M10.3313 10.3781L10.6125 10.6594L10.3313 10.3781ZM16.425 10.3781L16.6969 10.6594L16.4157 10.3781H16.425Z" fill="#CCCCFF"/>
<path d="M16.6875 10.3781L16.9687 10.6594L16.6875 10.3781ZM9.22498 10.6594L9.50623 10.9406L9.22498 10.6594Z" fill="#99CCCC"/>
<path d="M9.49683 10.6594L9.77808 10.9406L9.49683 10.6594Z" fill="#CCCCFF"/>
<path d="M10.6031 10.6594L10.8844 10.9406L10.6031 10.6594Z" fill="#FFCCCC"/>
<path d="M10.875 10.6594L11.1562 10.9406L10.875 10.6594ZM15.8625 10.6594L16.1437 10.9406L15.8625 10.6594Z" fill="#CC3333"/>
<path d="M16.1438 10.6594L16.425 10.9406L16.1438 10.6594Z" fill="#FFCCCC"/>
<path d="M17.25 10.6594L17.5312 10.9406L17.25 10.6594Z" fill="#CCCCFF"/>
<path d="M17.5312 10.6594L17.8031 10.9406L17.5219 10.6594H17.5312Z" fill="#99CCCC"/>
<path d="M8.11877 10.9313L8.40002 11.2125L8.11877 10.9313Z" fill="#6699CC"/>
<path d="M8.39062 10.9313L8.67188 11.2125L8.39062 10.9313Z" fill="#99CCCC"/>
<path d="M8.67188 10.9313L8.95312 11.2125L8.67188 10.9313Z" fill="#CCFFFF"/>
<path d="M9.77808 10.9313L10.0593 11.2125L9.77808 10.9313Z" fill="#FFCCCC"/>
<path d="M10.2375 11.025L10.425 11.1188L10.2375 11.025ZM16.6032 11.025L16.7907 11.1188L16.6032 11.025Z" fill="#CC3333"/>
<path d="M16.9688 10.9313L17.25 11.2125L16.9688 10.9313Z" fill="#FFCCCC"/>
<path d="M18.075 10.9313L18.3562 11.2125L18.075 10.9313Z" fill="#CCFFFF"/>
<path d="M18.3562 10.9313L18.6375 11.2125L18.3562 10.9313Z" fill="#99CCCC"/>
<path d="M18.6282 10.9313L18.9094 11.2125L18.6282 10.9313ZM7.28442 11.2125L7.56567 11.4938L7.28442 11.2125Z" fill="#6699CC"/>
<path d="M7.56567 11.2125L7.84692 11.4938L7.56567 11.2125Z" fill="#99CCCC"/>
<path d="M7.83752 11.2125L8.11877 11.4938L7.83752 11.2125Z" fill="#CCFFFF"/>
<path d="M8.94373 11.2125L9.22498 11.4938L8.94373 11.2125Z" fill="#FFCCCC"/>
<path d="M9.40308 11.3063L9.59058 11.4L9.40308 11.3063ZM17.4281 11.3063L17.6156 11.4L17.4281 11.3063Z" fill="#CC3333"/>
<path d="M17.8031 11.2125L18.0844 11.4938L17.8031 11.2125Z" fill="#FFCCCC"/>
<path d="M18.9094 11.2125L19.1907 11.4938L18.9094 11.2125Z" fill="#CCFFFF"/>
<path d="M19.1813 11.2125L19.4625 11.4938L19.1813 11.2125Z" fill="#99CCCC"/>
<path d="M19.4625 11.2125L19.7437 11.4938L19.4625 11.2125ZM6.44995 11.4938L6.7312 11.7656L6.44995 11.4844V11.4938Z" fill="#6699CC"/>
<path d="M6.7312 11.4844L7.01245 11.7656L6.7312 11.4844Z" fill="#99CCFF"/>
<path d="M8.11877 11.4844L8.40002 11.7656L8.11877 11.4844Z" fill="#FFCCCC"/>
<path d="M8.57812 11.5781L8.76563 11.6719L8.57812 11.5781ZM18.2625 11.5781L18.45 11.6719L18.2625 11.5781Z" fill="#CC3333"/>
<path d="M18.6282 11.4844L18.9094 11.7656L18.6282 11.4844Z" fill="#FFCCCC"/>
<path d="M20.0156 11.4844L20.2969 11.7656L20.0156 11.4844Z" fill="#99CCFF"/>
<path d="M20.2875 11.4844L20.5687 11.7656L20.2875 11.4844Z" fill="#6699CC"/>
<path d="M5.625 11.7656L5.90625 12.0469L5.625 11.7656Z" fill="#66CCCC"/>
<path d="M5.90623 11.7656L6.1781 12.0469L5.89685 11.7656H5.90623Z" fill="#99CCFF"/>
<path d="M7.01255 11.7656L7.28442 12.0469L7.00317 11.7656H7.01255ZM19.7438 11.7656L20.0157 12.0469L19.7344 11.7656H19.7438Z" fill="#FFCCCC"/>
<path d="M20.8406 11.7656L21.1218 12.0469L20.8406 11.7656Z" fill="#99CCFF"/>
<path d="M21.1219 11.7656L21.4032 12.0469L21.1219 11.7656ZM4.79065 12.0469L5.0719 12.3187L4.79065 12.0375V12.0469Z" fill="#66CCCC"/>
<path d="M5.0625 12.0375L5.34375 12.3187L5.0625 12.0375Z" fill="#CCCCFF"/>
<path d="M6.1781 12.0375L6.45935 12.3187L6.1781 12.0375Z" fill="#FFCCCC"/>
<path d="M6.63745 12.1312L6.82495 12.225L6.63745 12.1312ZM20.2031 12.1312L20.3906 12.225L20.2031 12.1312Z" fill="#CC3333"/>
<path d="M20.5687 12.0375L20.85 12.3187L20.5687 12.0375Z" fill="#FFCCCC"/>
<path d="M21.675 12.0375L21.9563 12.3187L21.675 12.0375Z" fill="#CCCCFF"/>
<path d="M21.9563 12.0375L22.2375 12.3187L21.9563 12.0375Z" fill="#66CCCC"/>
<path d="M3.96558 12.3187L4.24683 12.6L3.96558 12.3187Z" fill="#99CCCC"/>
<path d="M4.23755 12.3187L4.5188 12.6L4.23755 12.3187Z" fill="#CCCCFF"/>
<path d="M5.34375 12.3187L5.625 12.6L5.34375 12.3187ZM21.4031 12.3187L21.6844 12.6L21.4031 12.3187Z" fill="#FFCCCC"/>
<path d="M22.5 12.3187L22.7812 12.6L22.5 12.3187Z" fill="#CCCCFF"/>
<path d="M22.7812 12.3187L23.0625 12.6L22.7812 12.3187ZM3.41248 12.6L3.69373 12.8719L3.41248 12.5906V12.6Z" fill="#99CCCC"/>
<path d="M4.79065 12.5906L5.0719 12.8719L4.79065 12.5906ZM21.9469 12.5906L22.2281 12.8719L21.9469 12.5906Z" fill="#CC6666"/>
<path d="M23.3437 12.5906L23.6156 12.8719L23.3343 12.5906M3.96558 12.8719L4.24683 13.1531L3.96558 12.8719Z" fill="#99CCCC"/>
<path d="M4.23755 12.8719L4.5188 13.1531L4.23755 12.8719Z" fill="#CCCCFF"/>
<path d="M5.34375 12.8719L5.625 13.1531L5.34375 12.8719ZM21.4031 12.8719L21.6844 13.1531L21.4031 12.8719Z" fill="#FFCCCC"/>
<path d="M22.5 12.8719L22.7812 13.1531L22.5 12.8719Z" fill="#CCCCFF"/>
<path d="M22.7812 12.8719L23.0625 13.1531L22.7812 12.8719Z" fill="#99CCCC"/>
<path d="M4.79065 13.1531L5.0719 13.425L4.79065 13.1437V13.1531Z" fill="#66CCCC"/>
<path d="M5.0625 13.1531L5.34375 13.425L5.0625 13.1437V13.1531Z" fill="#CCCCFF"/>
<path d="M6.1781 13.1531L6.45935 13.425L6.1781 13.1437V13.1531Z" fill="#FFCCCC"/>
<path d="M6.63745 13.2375L6.82495 13.3312L6.63745 13.2375ZM20.2031 13.2375L20.3906 13.3312L20.2031 13.2375Z" fill="#CC3333"/>
<path d="M20.5687 13.1531L20.85 13.425L20.5687 13.1437V13.1531Z" fill="#FFCCCC"/>
<path d="M21.675 13.1531L21.9563 13.425L21.675 13.1437V13.1531Z" fill="#CCCCFF"/>
<path d="M21.9562 13.1531L22.2375 13.425L21.9562 13.1437M5.625 13.425L5.90625 13.7062L5.625 13.425Z" fill="#66CCCC"/>
<path d="M5.90623 13.425L6.1781 13.7062L5.89685 13.425H5.90623Z" fill="#99CCFF"/>
<path d="M7.01255 13.425L7.28442 13.7062L7.00317 13.425H7.01255ZM19.7438 13.425L20.0157 13.7062L19.7344 13.425H19.7438Z" fill="#FFCCCC"/>
<path d="M20.8406 13.425L21.1218 13.7062L20.8406 13.425Z" fill="#99CCFF"/>
<path d="M21.1218 13.425L21.4031 13.7062L21.1218 13.425Z" fill="#66CCCC"/>
<path d="M6.44995 13.7063L6.7312 13.9781L6.44995 13.6969V13.7063Z" fill="#6699CC"/>
<path d="M6.7312 13.7063L7.01245 13.9781L6.7312 13.6969V13.7063Z" fill="#99CCFF"/>
<path d="M8.11877 13.7063L8.40002 13.9781L8.11877 13.6969V13.7063Z" fill="#FFCCCC"/>
<path d="M8.57812 13.7906L8.76563 13.8844L8.57812 13.7906ZM18.2625 13.7906L18.45 13.8844L18.2625 13.7906Z" fill="#CC3333"/>
<path d="M18.6282 13.7063L18.9094 13.9781L18.6282 13.6969V13.7063Z" fill="#FFCCCC"/>
<path d="M20.0156 13.7063L20.2969 13.9781L20.0156 13.6969V13.7063Z" fill="#99CCFF"/>
<path d="M20.2875 13.7063L20.5688 13.9781L20.2875 13.6969M7.28442 13.9781L7.56567 14.2594L7.28442 13.9781Z" fill="#6699CC"/>
<path d="M7.56567 13.9781L7.84692 14.2594L7.56567 13.9781Z" fill="#99CCCC"/>
<path d="M7.83752 13.9781L8.11877 14.2594L7.83752 13.9781Z" fill="#CCFFFF"/>
<path d="M8.94373 13.9781L9.22498 14.2594L8.94373 13.9781Z" fill="#FFCCCC"/>
<path d="M9.40308 14.0625L9.59058 14.1562L9.40308 14.0625ZM17.4281 14.0625L17.6156 14.1562L17.4281 14.0625Z" fill="#CC3333"/>
<path d="M17.8031 13.9781L18.0844 14.2594L17.8031 13.9781Z" fill="#FFCCCC"/>
<path d="M18.9094 13.9781L19.1907 14.2594L18.9094 13.9781Z" fill="#CCFFFF"/>
<path d="M19.1813 13.9781L19.4625 14.2594L19.1813 13.9781Z" fill="#99CCCC"/>
<path d="M19.4625 13.9781L19.7438 14.2594L19.4625 13.9781ZM8.11875 14.2594L8.39062 14.5313L8.10938 14.25L8.11875 14.2594Z" fill="#6699CC"/>
<path d="M8.39062 14.25L8.67188 14.5312L8.39062 14.25Z" fill="#99CCCC"/>
<path d="M8.67188 14.25L8.95312 14.5312L8.67188 14.25Z" fill="#CCFFFF"/>
<path d="M9.77808 14.25L10.0593 14.5312L9.77808 14.25Z" fill="#FFCCCC"/>
<path d="M10.2375 14.3438L10.425 14.4375L10.2375 14.3438ZM16.6032 14.3438L16.7907 14.4375L16.6032 14.3438Z" fill="#CC3333"/>
<path d="M16.9688 14.25L17.25 14.5312L16.9688 14.25Z" fill="#FFCCCC"/>
<path d="M18.075 14.25L18.3562 14.5312L18.075 14.25Z" fill="#CCFFFF"/>
<path d="M18.3562 14.25L18.6375 14.5312L18.3562 14.25Z" fill="#99CCCC"/>
<path d="M18.6282 14.25L18.9094 14.5312L18.6282 14.25Z" fill="#6699CC"/>
<path d="M9.22498 14.5312L9.50623 14.8125L9.22498 14.5312Z" fill="#99CCCC"/>
<path d="M9.49683 14.5312L9.77808 14.8125L9.49683 14.5312Z" fill="#CCCCFF"/>
<path d="M10.6031 14.5312L10.8844 14.8125L10.6031 14.5312Z" fill="#FFCCCC"/>
<path d="M10.875 14.5312L11.1562 14.8125L10.875 14.5312ZM15.8625 14.5312L16.1437 14.8125L15.8625 14.5312Z" fill="#CC3333"/>
<path d="M16.1438 14.5312L16.425 14.8125L16.1438 14.5312Z" fill="#FFCCCC"/>
<path d="M17.25 14.5312L17.5312 14.8125L17.25 14.5312Z" fill="#CCCCFF"/>
<path d="M17.5313 14.5312L17.8032 14.8125L17.5219 14.5312M10.05 14.8125L10.3313 15.0938L10.05 14.8125Z" fill="#99CCCC"/>
<path d="M10.3313 14.8125L10.6125 15.0938L10.3313 14.8125ZM16.425 14.8125L16.6969 15.0938L16.4157 14.8125H16.425Z" fill="#CCCCFF"/>
<path d="M16.6875 14.8125L16.9688 15.0938L16.6875 14.8125ZM10.875 15.0938L11.1562 15.3656L10.875 15.0844V15.0938Z" fill="#99CCCC"/>
<path d="M11.4375 15.0937L11.7188 15.3656L11.4375 15.0844M15.3094 15.0844L15.5906 15.3656L15.3094 15.0844Z" fill="#CC3333"/>
<path d="M15.8625 15.0937L16.1438 15.3656L15.8625 15.0844V15.0937Z" fill="#99CCCC"/>
<path d="M11.4375 15.3656L11.7188 15.6469L11.4375 15.3656ZM15.3094 15.3656L15.5906 15.6469L15.3094 15.3656Z" fill="#FFCCCC"/>
<path d="M11.1562 15.6375L11.4375 15.9188L11.1562 15.6375Z" fill="#CCCCFF"/>
<path d="M11.8125 15.825L11.8969 16.0125L11.8031 15.825M15.1219 15.825L15.2156 16.0125L15.1219 15.825Z" fill="#CC3333"/>
<path d="M15.5906 15.6375L15.8718 15.9188L15.5906 15.6375Z" fill="#CCCCFF"/>
<path d="M11.1562 15.9188L11.4375 16.2L11.1562 15.9188ZM15.5906 15.9188L15.8719 16.2L15.5906 15.9188Z" fill="#99CCCC"/>
<path d="M11.7187 16.1906L11.9906 16.4719L11.7094 16.1906M15.0375 16.1906L15.3187 16.4719L15.0375 16.1906Z" fill="#FFCCCC"/>
<path d="M11.4375 16.4719L11.7188 16.7531L11.4375 16.4719Z" fill="#CCCCFF"/>
<path d="M12.0844 16.65L12.1781 16.8375L12.0844 16.65ZM14.85 16.65L14.9437 16.8375L14.85 16.65Z" fill="#CC3333"/>
<path d="M15.3093 16.4719L15.5906 16.7531L15.3093 16.4719Z" fill="#CCCCFF"/>
<path d="M11.4375 16.7438L11.7188 17.025L11.4375 16.7438ZM15.3094 16.7438L15.5906 17.025L15.3094 16.7438Z" fill="#99CCCC"/>
<path d="M11.9906 17.025L12.2718 17.3063L11.9906 17.025ZM14.7562 17.025L15.0375 17.3063L14.7562 17.025Z" fill="#FFCCCC"/>
<path d="M11.7187 17.2969L11.9906 17.5781L11.7094 17.2969H11.7187Z" fill="#CCFFFF"/>
<path d="M12.3562 17.4844L12.45 17.6719L12.3562 17.4844ZM14.5687 17.4844L14.6625 17.6719L14.5687 17.4844Z" fill="#CC3333"/>
<path d="M15.0375 17.2969L15.3187 17.5781L15.0375 17.2969Z" fill="#CCFFFF"/>
<path d="M11.7187 17.5781L11.9906 17.8594L11.7094 17.5781M15.0375 17.5781L15.3187 17.8594L15.0375 17.5781Z" fill="#99CCCC"/>
<path d="M11.7187 17.85L11.9906 18.1312L11.7094 17.85H11.7187Z" fill="#6699CC"/>
<path d="M12.2625 17.85L12.5437 18.1312L12.2625 17.85ZM14.4843 17.85L14.7656 18.1312L14.4843 17.85Z" fill="#FFCCCC"/>
<path d="M15.0375 17.85L15.3187 18.1312L15.0375 17.85Z" fill="#6699CC"/>
<path d="M11.9906 18.1312L12.2718 18.4125L11.9906 18.1312ZM14.7562 18.1312L15.0375 18.4125L14.7562 18.1312Z" fill="#CCFFFF"/>
<path d="M11.9906 18.4031L12.2718 18.6844L11.9906 18.4031ZM14.7562 18.4031L15.0375 18.6844L14.7562 18.4031Z" fill="#99CCCC"/>
<path d="M11.9906 18.6844L12.2718 18.9656L11.9906 18.6844ZM14.7562 18.6844L15.0375 18.9656L14.7562 18.6844Z" fill="#6699CC"/>
<path d="M12.5437 18.9562L12.825 19.2375L12.5437 18.9562ZM14.2031 18.9562L14.4843 19.2375L14.2031 18.9562Z" fill="#FFCCCC"/>
<path d="M12.2625 19.2375L12.5437 19.5187L12.2625 19.2375Z" fill="#99CCFF"/>
<path d="M12.9094 19.425L13.0032 19.6125L12.9094 19.425ZM14.0157 19.425L14.1094 19.6125L14.0157 19.425Z" fill="#CC3333"/>
<path d="M14.4844 19.2375L14.7656 19.5187L14.4844 19.2375Z" fill="#99CCFF"/>
<path d="M12.2625 19.5188L12.5437 19.7906L12.2625 19.5094M14.4843 19.5094L14.7656 19.7906L14.4843 19.5094Z" fill="#6699CC"/>
<path d="M12.8157 19.7906L13.0969 20.0719L12.8157 19.7906ZM13.9313 19.7906L14.2032 20.0719L13.9219 19.7906H13.9313Z" fill="#FFCCCC"/>
<path d="M12.5437 20.0625L12.825 20.3438L12.5437 20.0625ZM14.2031 20.0625L14.4843 20.3438L14.2031 20.0625Z" fill="#99CCFF"/>
<path d="M12.5437 20.3438L12.825 20.625L12.5437 20.3438ZM14.2031 20.3438L14.4843 20.625L14.2031 20.3438Z" fill="#66CCCC"/>
<path d="M13.0969 20.625L13.3782 20.9062L13.0969 20.625ZM13.65 20.625L13.9313 20.9062L13.65 20.625Z" fill="#FFCCCC"/>
<path d="M12.8157 20.8969L13.0969 21.1781L12.8157 20.8969ZM13.9313 20.8969L14.2032 21.1781L13.9219 20.8969H13.9313Z" fill="#CCCCFF"/>
<path d="M12.8157 21.1781L13.0969 21.4594L12.8157 21.1781Z" fill="#66CCCC"/>
<path d="M13.3781 21.1781L13.65 21.4594L13.3688 21.1781H13.3781Z" fill="#CC6666"/>
<path d="M13.9313 21.1781L14.2031 21.4594L13.9219 21.1781H13.9313Z" fill="#66CCCC"/>
<path d="M13.0969 21.7313L13.3782 22.0125L13.0969 21.7313ZM13.65 21.7313L13.9313 22.0125L13.65 21.7313Z" fill="#CCCCFF"/>
<path d="M13.0969 22.0031L13.3782 22.2844L13.0969 22.0031ZM13.65 22.0031L13.9313 22.2844L13.65 22.0031ZM13.3688 22.5656L13.65 22.8375L13.3688 22.5562V22.5656Z" fill="#99CCCC"/>
</g>
<defs>
<clipPath id="clip0_264_7095">
<rect width="60" height="45" fill="white"/>
</clipPath>
</defs>
</svg>
