<svg width="60" height="45" viewBox="0 0 60 45" fill="none" xmlns="http://www.w3.org/2000/svg">
<g clip-path="url(#clip0_264_7296)">
<path d="M0 0H60V45H0V0Z" fill="#00267F"/>
<path d="M19.9969 0H40.0031V45H19.9969V0Z" fill="#FFC726"/>
<path d="M29.9813 12.7031C29.325 14.4844 28.6688 16.3219 27.2438 17.7375C27.6844 17.5875 28.4625 17.4562 28.95 17.475V24.9281L26.85 25.2375C26.775 25.2375 26.7563 25.1156 26.7563 24.9563C26.55 22.6406 26.0063 20.6906 25.3688 18.675C25.3219 18.4031 24.525 17.3625 25.1438 17.55C25.2188 17.55 26.0344 17.8875 25.9125 17.7281C24.7346 16.5401 23.2127 15.7529 21.5625 15.4781C21.4219 15.45 21.3375 15.525 21.4688 15.6844C23.5688 18.9281 25.3406 22.7625 25.3219 27.3094C26.1469 27.3094 28.1344 26.8219 28.95 26.8219V32.0813H30L30.2344 17.3906L29.9813 12.7031Z" fill="black"/>
</g>
<defs>
<clipPath id="clip0_264_7296">
<rect width="60" height="45" fill="white"/>
</clipPath>
</defs>
</svg>
