<svg width="60" height="45" viewBox="0 0 60 45" fill="none" xmlns="http://www.w3.org/2000/svg">
<g clip-path="url(#clip0_264_8476)">
<path fill-rule="evenodd" clip-rule="evenodd" d="M0 0H60V45H0V0Z" fill="#229E45"/>
<path fill-rule="evenodd" clip-rule="evenodd" d="M30.1313 40.875L58.3969 22.5281L29.9625 4.125L1.60315 22.5656L30.1313 40.875Z" fill="#F8E509"/>
<path fill-rule="evenodd" clip-rule="evenodd" d="M42.45 22.5C42.45 29.0906 37.0969 34.4344 30.4875 34.4344C28.1257 34.4307 25.8179 33.7268 23.8561 32.4117C21.8942 31.0967 20.3662 29.2294 19.4654 27.0461C18.5646 24.8628 18.3313 22.4615 18.795 20.1456C19.2587 17.8297 20.3986 15.7033 22.0707 14.0352C23.7427 12.3671 25.8718 11.2321 28.1888 10.7739C30.5057 10.3156 32.9066 10.5546 35.0877 11.4605C37.2689 12.3665 39.1325 13.8988 40.443 15.8638C41.7534 17.8288 42.4519 20.1381 42.45 22.5Z" fill="#2B49A3"/>
<path fill-rule="evenodd" clip-rule="evenodd" d="M26.5594 29.6531L26.1844 29.4375L25.8094 29.625L25.8937 29.2031L25.5937 28.8844L26.0156 28.8375L26.2219 28.4625L26.4 28.8562L26.8125 28.9312L26.5031 29.2125M34.5656 31.6781L34.2 31.4625L33.825 31.65L33.9 31.2281L33.6094 30.9187L34.0312 30.8719L34.2281 30.4875L34.4156 30.8812L34.8281 30.9562L34.5094 31.2469M31.1156 28.4344L30.7969 28.2469L30.4687 28.4156L30.5437 28.05L30.2812 27.7781L30.6562 27.7406L30.825 27.4031L30.975 27.75L31.3406 27.8156L31.0594 28.0687M39.2156 27.2719L38.8969 27.0844L38.5687 27.2531L38.6437 26.8875L38.3906 26.625L38.7562 26.5875L38.925 26.2594L39.075 26.5969L39.4312 26.6625L39.1594 26.9062M30.975 24.8437L30.6 24.6375L30.225 24.825L30.3 24.3937L30.0094 24.0844L30.4312 24.0375L30.6281 23.6531L30.8156 24.0469L31.2281 24.1219L30.9094 24.4219M21.1031 21.1406L20.7281 20.9344L20.3531 21.1219L20.4469 20.6906L20.1375 20.3812L20.5687 20.3344L20.7562 19.95L20.9437 20.3437L21.3562 20.4187L21.0469 20.7094M22.2937 26.0719L21.9187 25.8562L21.5437 26.0437L21.6281 25.6219L21.3281 25.3125L21.75 25.2562L21.9469 24.8812L22.1344 25.275L22.5469 25.35L22.2375 25.6406M34.6125 19.3312L34.275 19.1437L33.9375 19.3125L34.0125 18.9375L33.75 18.6562L34.125 18.6094L34.3031 18.2719L34.4625 18.6281L34.8375 18.6937L34.5562 18.9469M33.9281 22.5375L33.675 22.3875L33.4031 22.5187L33.4594 22.2187L33.2531 22.0031L33.5531 21.9656L33.6937 21.7031L33.8156 21.9844L34.0969 22.0312L33.8906 22.2375M20.5594 26.9625L20.3062 26.8219L20.0531 26.9437L20.1094 26.6625L19.9125 26.4562L20.1937 26.4187L20.325 26.1656L20.4469 26.4281L20.7281 26.4844L20.5125 26.6719M39.2812 28.1062L39.075 28.0031L38.8687 28.0969L38.9156 27.8812L38.7562 27.7312L38.9812 27.7031L39.0937 27.5156L39.1875 27.7031L39.4219 27.75L39.2437 27.8906" fill="#FFFFEF"/>
<path fill-rule="evenodd" clip-rule="evenodd" d="M20.5594 26.9625L20.3062 26.8219L20.0531 26.9438L20.1094 26.6625L19.9125 26.4563L20.1937 26.4188L20.325 26.1656L20.4469 26.4281L20.7281 26.4844L20.5125 26.6719" fill="#FFFFEF"/>
<path fill-rule="evenodd" clip-rule="evenodd" d="M20.5594 26.9625L20.3062 26.8219L20.0531 26.9437L20.1094 26.6625L19.9125 26.4562L20.1937 26.4187L20.325 26.1656L20.4469 26.4281L20.7281 26.4844L20.5125 26.6719M24.4781 26.9531L24.2344 26.8219L23.9812 26.9437L24.0375 26.6625L23.8406 26.4562L24.1219 26.4187L24.2531 26.1656L24.375 26.4281L24.6562 26.475L24.4406 26.6719M23.9906 28.2656L23.7469 28.125L23.4937 28.2562L23.55 27.975L23.3531 27.7594L23.6344 27.7219L23.7656 27.4687L23.8875 27.7312L24.1687 27.7875L23.9531 27.975M32.1469 25.8937L31.9031 25.7437L31.6406 25.875L31.6969 25.5937L31.5094 25.3781L31.7906 25.35L31.9219 25.0969L32.0344 25.3594L32.3156 25.4062L32.1094 25.6031M29.7562 25.8844L29.5031 25.7437L29.25 25.875L29.3062 25.5937L29.1187 25.3781L29.4 25.35L29.5312 25.0875L29.6437 25.3594L29.925 25.4062L29.7187 25.6031M23.2687 25.0594L23.1094 24.9656L22.95 25.0406L22.9875 24.8625L22.8656 24.7312L23.0437 24.7125L23.1187 24.5531L23.1937 24.7219L23.3719 24.75L23.2406 24.8719M38.9719 29.1281L38.7281 28.9875L38.475 29.1187L38.5312 28.8375L38.3344 28.6219L38.6156 28.5844L38.7468 28.3312L38.8687 28.5937L39.15 28.65L38.9343 28.8375M36.9844 29.4L36.7781 29.2687L36.5625 29.3812L36.6094 29.1375L36.45 28.9687L36.6843 28.9406L36.7969 28.725L36.8906 28.95L37.125 28.9875L36.9469 29.1562M37.9219 29.3719L37.7344 29.2594L37.5375 29.3531L37.575 29.1375L37.425 28.9781L37.6406 28.95L37.7437 28.7625L37.8375 28.95L38.0531 28.9969L37.8937 29.1469M40.6218 27.0094L40.4343 26.9156L40.2468 27.0094L40.2937 26.7937L40.1437 26.6344L40.3594 26.6062L40.4531 26.4187L40.5469 26.6156L40.7437 26.6531L40.5937 26.8031M36.9562 30.7219L36.7219 30.5906L36.4687 30.7031L36.525 30.4406L36.3375 30.2531L36.6187 30.225L36.7406 29.9906L36.8531 30.2344L37.1344 30.2812L36.9187 30.4594M36.975 31.7906L36.75 31.6594L36.525 31.7812L36.5812 31.5187L36.4031 31.3312L36.6562 31.2937L36.7687 31.0594L36.8718 31.3031L37.125 31.35L36.9375 31.5375M35.1562 29.3719L34.9781 29.2594L34.7906 29.3531L34.8281 29.1469L34.6875 28.9875L34.8937 28.9687L34.9875 28.7812L35.0812 28.9687L35.2875 29.0062L35.1375 29.1562M33.4687 29.3719L33.2812 29.2594L33.0937 29.3531L33.1406 29.1469L32.9906 28.9875L33.2062 28.9687L33.3 28.7812L33.3937 28.9687L33.5906 29.0062L33.4406 29.1562M30.5906 26.85L30.4031 26.7469L30.2156 26.8406L30.2625 26.625L30.1125 26.475L30.3187 26.4469L30.4125 26.2594L30.5062 26.4469L30.7125 26.4937L30.5625 26.6344M30.9094 31.9781L30.7594 31.8937L30.5906 31.9781L30.6281 31.7906L30.5062 31.6594L30.6844 31.6406L30.7687 31.4812L30.8437 31.65L31.0219 31.6781L30.8906 31.8M26.5594 23.6812L26.1844 23.4656L25.8094 23.6531L25.8937 23.2312L25.5937 22.9219L26.0156 22.8656L26.2219 22.4906L26.4 22.8844L26.8125 22.9594L26.5031 23.25" fill="#FFFFEF"/>
<path fill-rule="evenodd" clip-rule="evenodd" d="M41.6625 26.7938C41.8948 26.1911 42.0766 25.5702 42.2063 24.9375C35.85 19.3594 28.7719 16.5 19.8281 17.0906C19.5037 17.7183 19.237 18.3741 19.0312 19.05C29.625 18.0375 37.4062 22.725 41.6625 26.7938Z" fill="#F0F0F0"/>
<path d="M38.8125 23.6625L39.0282 23.7844C38.996 23.848 38.9861 23.9207 39 23.9906C39.022 24.0585 39.0689 24.1154 39.1313 24.15C39.1969 24.1969 39.2625 24.225 39.3188 24.2156C39.375 24.2156 39.4125 24.1875 39.4407 24.15C39.457 24.1251 39.4637 24.0951 39.4594 24.0656C39.4517 24.031 39.4356 23.9988 39.4125 23.9719C39.3938 23.9437 39.3469 23.8781 39.2719 23.8031C39.1948 23.7236 39.1371 23.6273 39.1032 23.5219C39.0798 23.4421 39.0858 23.3565 39.1203 23.2808C39.1547 23.2051 39.2152 23.1442 39.2907 23.1094C39.3589 23.0809 39.4342 23.0744 39.5063 23.0906C39.5944 23.1109 39.6774 23.1492 39.75 23.2031C39.8813 23.2969 39.9657 23.3906 39.9938 23.5031C40.0068 23.5557 40.0085 23.6105 39.9988 23.6638C39.9891 23.7171 39.9682 23.7678 39.9375 23.8125L39.7125 23.6719C39.7407 23.6156 39.75 23.5594 39.7313 23.5125C39.7219 23.4656 39.6844 23.4187 39.6188 23.3812C39.5706 23.3425 39.5117 23.3196 39.45 23.3156C39.4331 23.3151 39.4162 23.3191 39.4014 23.3274C39.3865 23.3356 39.3742 23.3478 39.3657 23.3625C39.3469 23.3906 39.3469 23.4187 39.3563 23.4562C39.3657 23.4937 39.4125 23.5687 39.5063 23.6625C39.6 23.7562 39.6563 23.8406 39.6938 23.8969C39.7273 23.9583 39.7424 24.0281 39.7374 24.0979C39.7325 24.1677 39.7075 24.2346 39.6657 24.2906C39.6218 24.3544 39.5597 24.4034 39.4875 24.4313C39.4172 24.4636 39.3387 24.4734 39.2625 24.4594C39.1782 24.4406 39.0938 24.4031 39 24.3375C38.8594 24.2438 38.775 24.1406 38.7469 24.0281C38.7164 23.9006 38.7365 23.7661 38.8032 23.6531L38.8125 23.6625ZM37.725 22.95L37.9594 23.0719C37.9304 23.1366 37.9238 23.2092 37.9407 23.2781C37.9646 23.3425 38.0113 23.3958 38.0719 23.4281C38.1469 23.475 38.2032 23.4938 38.2594 23.4844C38.3157 23.4844 38.3532 23.4562 38.3813 23.4094C38.3955 23.3871 38.4021 23.3607 38.4 23.3344C38.4 23.3062 38.3813 23.2687 38.3532 23.2406C38.3051 23.1827 38.2551 23.1264 38.2032 23.0719C38.1 22.9688 38.0344 22.8844 38.0157 22.8094C38.0003 22.7611 37.9957 22.7101 38.0022 22.6599C38.0087 22.6097 38.0261 22.5615 38.0532 22.5187C38.0888 22.4609 38.1411 22.4152 38.2032 22.3875C38.2676 22.3578 38.3394 22.348 38.4094 22.3594C38.4961 22.374 38.579 22.4059 38.6532 22.4531C38.7938 22.5469 38.8782 22.6406 38.9063 22.7438C38.9234 22.7964 38.9289 22.8522 38.9224 22.9072C38.9159 22.9622 38.8976 23.0152 38.8688 23.0625L38.6344 22.9313C38.6625 22.8656 38.6719 22.8187 38.6532 22.7719C38.6344 22.725 38.5969 22.6781 38.5313 22.6406C38.4794 22.6034 38.417 22.5837 38.3532 22.5844C38.3378 22.5854 38.3229 22.5902 38.3098 22.5984C38.2967 22.6066 38.2859 22.6179 38.2782 22.6312C38.2594 22.6594 38.2594 22.6875 38.2688 22.725C38.2782 22.7625 38.3344 22.8375 38.4282 22.9313C38.5219 23.025 38.5875 23.1 38.6157 23.1562C38.6532 23.215 38.6732 23.2834 38.6732 23.3531C38.6732 23.4229 38.6532 23.4912 38.6157 23.55C38.5753 23.6154 38.5166 23.6675 38.4469 23.7C38.3766 23.7324 38.298 23.7422 38.2219 23.7281C38.1254 23.7118 38.0331 23.6768 37.95 23.625C37.8289 23.5604 37.7355 23.4537 37.6875 23.325C37.6513 23.1998 37.6648 23.0655 37.725 22.95ZM36.3938 22.5938L37.0782 21.4688L37.9032 21.9844L37.7907 22.1719L37.1907 21.7969L37.0407 22.05L37.6032 22.3969L37.4813 22.5844L36.9188 22.2375L36.7313 22.5469L37.3594 22.9219L37.2469 23.1094L36.4032 22.5938H36.3938ZM34.4532 21L34.5563 20.8125L35.0625 21.0656L34.8282 21.5344C34.7532 21.5531 34.6594 21.5625 34.5469 21.5531C34.4389 21.5412 34.334 21.5094 34.2375 21.4594C34.1241 21.4041 34.0271 21.3201 33.9563 21.2156C33.8918 21.1186 33.8591 21.0039 33.8625 20.8875C33.8673 20.7663 33.8994 20.6477 33.9563 20.5406C34.0126 20.4279 34.0965 20.3312 34.2 20.2594C34.2991 20.1909 34.4171 20.1548 34.5375 20.1562C34.6313 20.1562 34.725 20.1844 34.8375 20.25C34.9875 20.3156 35.0813 20.4094 35.1282 20.5125C35.1769 20.6149 35.1869 20.7314 35.1563 20.8406L34.9032 20.7656C34.9187 20.7028 34.912 20.6366 34.8844 20.5781C34.8563 20.5219 34.8094 20.4844 34.7344 20.4469C34.6907 20.4219 34.6422 20.4065 34.5921 20.4017C34.542 20.3968 34.4915 20.4026 34.4438 20.4188C34.35 20.4469 34.2657 20.5312 34.2 20.6625C34.1344 20.7937 34.1063 20.9156 34.1344 21.0187C34.1474 21.0677 34.1709 21.1131 34.2033 21.152C34.2356 21.1909 34.2762 21.2222 34.3219 21.2438C34.3688 21.2719 34.425 21.2906 34.4813 21.2906C34.5372 21.2991 34.5941 21.2991 34.65 21.2906L34.725 21.1406L34.4532 21ZM25.9969 18.9094L26.1844 17.5969L26.5782 17.6625L26.6813 18.5812L27.0469 17.7375L27.4407 17.7938L27.2532 19.0875L27 19.05L27.1594 18.0281L26.7469 19.0125L26.4938 18.975L26.3907 17.9156L26.2407 18.9469L25.9969 18.9094ZM24.675 18.75L24.7969 17.4375L25.7625 17.5312L25.7438 17.7562L25.0407 17.6906L25.0125 17.9719L25.6688 18.0375L25.6407 18.2625L24.9844 18.1969L24.9563 18.5531L25.6875 18.6188L25.6688 18.8438L24.675 18.75Z" fill="#309E3A"/>
<path d="M20.2969 17.9344C20.2969 17.7938 20.325 17.6906 20.3625 17.5969C20.3954 17.5302 20.4398 17.4699 20.4938 17.4188C20.5419 17.3703 20.5993 17.332 20.6625 17.3063C20.7563 17.2781 20.85 17.2594 20.9438 17.2594C21.1407 17.2594 21.2907 17.3344 21.4125 17.4469C21.4705 17.5186 21.5137 17.6011 21.5394 17.6896C21.5652 17.7781 21.5731 17.8709 21.5625 17.9625C21.5625 18.1688 21.4969 18.3375 21.375 18.4594C21.3124 18.5173 21.2383 18.5614 21.1576 18.5888C21.0768 18.6163 20.9912 18.6265 20.9063 18.6188C20.8225 18.6196 20.7394 18.6034 20.662 18.5712C20.5847 18.539 20.5147 18.4914 20.4563 18.4313C20.3396 18.2932 20.2823 18.1146 20.2969 17.9344Z" fill="#309E3A"/>
<path d="M20.5687 17.9344C20.5687 18.0751 20.5969 18.1875 20.6625 18.2719C20.7281 18.3469 20.8125 18.3938 20.925 18.3938C20.9736 18.3972 21.0225 18.3897 21.0679 18.3719C21.1133 18.354 21.1541 18.3263 21.1875 18.2907C21.2531 18.2157 21.2812 18.1032 21.2906 17.9438C21.2906 17.7938 21.2719 17.6813 21.1969 17.6063C21.1663 17.5685 21.1278 17.538 21.084 17.5169C21.0402 17.4958 20.9923 17.4847 20.9437 17.4844C20.8944 17.4828 20.8453 17.4921 20.8 17.5115C20.7546 17.531 20.7141 17.5601 20.6812 17.5969C20.6062 17.6719 20.5781 17.7844 20.5687 17.9344Z" fill="#F7FFFF"/>
<path d="M21.8438 18.6094L21.8625 17.2969H22.425C22.5656 17.2969 22.6594 17.3156 22.725 17.3438C22.7906 17.3625 22.8375 17.4094 22.875 17.4656C22.9125 17.5219 22.9313 17.5969 22.9313 17.6813C22.932 17.7714 22.8985 17.8585 22.8375 17.925C22.7682 17.9899 22.679 18.0296 22.5844 18.0375L22.725 18.15C22.7625 18.1875 22.8094 18.2625 22.8656 18.3656L23.025 18.6281H22.7062L22.5187 18.3281L22.3875 18.1406C22.3648 18.1148 22.3357 18.0954 22.3031 18.0844C22.2605 18.0719 22.2163 18.0656 22.1719 18.0656H22.1156V18.6094H21.8438Z" fill="#309E3A"/>
<path d="M22.125 17.8594H22.3125C22.4437 17.8594 22.5281 17.8594 22.5563 17.8406C22.5844 17.8406 22.6125 17.8125 22.6312 17.7937C22.65 17.775 22.6594 17.7281 22.6594 17.7C22.6594 17.6437 22.65 17.6062 22.6219 17.5875C22.6031 17.5594 22.5656 17.5406 22.5281 17.5312H22.3406L22.125 17.5219V17.85V17.8594Z" fill="#F0F0F0"/>
<path d="M23.3437 17.3625L23.8312 17.3906C23.9343 17.3906 24.0187 17.4 24.0749 17.4187C24.1479 17.4452 24.2126 17.4905 24.2624 17.55C24.3165 17.6155 24.3549 17.6925 24.375 17.775C24.4031 17.8594 24.4124 17.9625 24.4031 18.0844C24.403 18.18 24.3872 18.2751 24.3562 18.3656C24.3187 18.4594 24.2625 18.5344 24.1968 18.5906C24.1422 18.6356 24.0781 18.6677 24.0093 18.6844C23.9531 18.7031 23.8687 18.7031 23.775 18.7031L23.2781 18.675L23.3437 17.3625Z" fill="#309E3A"/>
<path d="M23.5968 17.5969L23.5499 18.4687H23.9062C23.9531 18.4687 23.9906 18.45 24.0187 18.4219C24.0468 18.3937 24.0749 18.3562 24.0937 18.3C24.1124 18.2437 24.1312 18.1594 24.1312 18.0562L24.1218 17.8219C24.1084 17.7724 24.0826 17.7272 24.0468 17.6906C24.0157 17.6593 23.9769 17.6367 23.9343 17.625C23.8634 17.6092 23.7912 17.5998 23.7187 17.5969H23.5968Z" fill="#F0F0F0"/>
<path d="M29.775 19.7063L30.0844 18.4313L30.4969 18.525L30.7969 18.6188C30.8625 18.6563 30.9188 18.7125 30.9469 18.7969C30.9844 18.8719 30.9844 18.9563 30.9656 19.0594C30.9469 19.1344 30.9188 19.2 30.8719 19.2469C30.8375 19.2881 30.7945 19.3212 30.7459 19.3438C30.6973 19.3665 30.6443 19.3782 30.5906 19.3781C30.525 19.3781 30.4313 19.3594 30.3094 19.3313L30.15 19.2844L30.0375 19.7719L29.775 19.7063Z" fill="#309E3A"/>
<path d="M30.2813 18.7125L30.2063 19.0688L30.3469 19.1063C30.4407 19.125 30.5157 19.1438 30.5532 19.1344C30.5896 19.1293 30.6236 19.1131 30.6505 19.0879C30.6774 19.0627 30.6958 19.0298 30.7032 18.9938C30.7032 18.9469 30.7032 18.9094 30.6844 18.8719C30.6639 18.8338 30.6307 18.804 30.5907 18.7875L30.4125 18.7406L30.2907 18.7125H30.2813Z" fill="#F0F0F0"/>
<path d="M30.9938 20.0719L31.4344 18.8344L31.95 19.0219C32.0906 19.0687 32.175 19.1156 32.2313 19.1531C32.2781 19.2 32.3156 19.2469 32.325 19.3219C32.3344 19.3969 32.3438 19.4625 32.325 19.5375C32.2875 19.6312 32.2313 19.6969 32.1563 19.7437C32.0813 19.7812 31.9875 19.7906 31.875 19.7719C31.9125 19.8187 31.95 19.8656 31.9688 19.9219L32.0438 20.175L32.1 20.4656L31.8094 20.3625L31.7156 20.025C31.6986 19.9487 31.6767 19.8735 31.65 19.8C31.6376 19.7708 31.6183 19.7451 31.5938 19.725C31.575 19.6969 31.5375 19.6781 31.4719 19.6594L31.425 19.6406L31.2375 20.1656L30.9938 20.0719Z" fill="#309E3A"/>
<path d="M31.5 19.4437L31.6781 19.5093C31.8 19.5562 31.875 19.575 31.9125 19.575C31.9406 19.575 31.9687 19.575 31.9969 19.5468C32.025 19.5281 32.0437 19.5 32.0531 19.4625C32.0719 19.425 32.0719 19.3875 32.0531 19.35C32.0392 19.3136 32.0126 19.2836 31.9781 19.2656L31.7906 19.2L31.6031 19.1343L31.4906 19.4437H31.5Z" fill="#F0F0F0"/>
<path d="M32.5312 20.025C32.5635 19.9152 32.6177 19.8131 32.6906 19.725C32.738 19.6684 32.7952 19.6208 32.8594 19.5844C32.9175 19.5515 32.981 19.5293 33.0469 19.5187C33.1406 19.5187 33.2344 19.5187 33.3375 19.5562C33.4213 19.577 33.4997 19.6153 33.5676 19.6686C33.6355 19.7219 33.6913 19.7891 33.7312 19.8656C33.8062 20.0156 33.8062 20.1937 33.75 20.4C33.7036 20.5772 33.589 20.7288 33.4312 20.8219C33.2906 20.9062 33.1219 20.9156 32.9437 20.8594C32.8602 20.8381 32.782 20.7996 32.7142 20.7463C32.6464 20.693 32.5904 20.6261 32.55 20.55C32.5124 20.468 32.4914 20.3795 32.4882 20.2894C32.485 20.1993 32.4996 20.1094 32.5312 20.025Z" fill="#309E3A"/>
<path d="M32.7937 20.1C32.7562 20.2406 32.7468 20.3625 32.7937 20.4563C32.8406 20.55 32.9062 20.6063 33.0093 20.6438C33.1031 20.6719 33.1968 20.6625 33.2906 20.6063C33.3843 20.5594 33.4406 20.4563 33.4875 20.3063C33.5343 20.1656 33.5343 20.0531 33.4875 19.9594C33.4689 19.9149 33.4409 19.8751 33.4052 19.8427C33.3696 19.8102 33.3272 19.7861 33.2812 19.7719C33.2351 19.756 33.186 19.7502 33.1375 19.7551C33.0889 19.7599 33.042 19.7753 33 19.8C32.9062 19.8563 32.8406 19.95 32.7937 20.1Z" fill="#F0F0F0"/>
<path d="M35.0906 21.8531L35.6906 20.6906L36.1875 20.9437C36.2811 20.9887 36.3667 21.0489 36.4406 21.1219C36.4875 21.1687 36.5156 21.225 36.5156 21.3C36.5156 21.375 36.5156 21.4406 36.4781 21.5062C36.442 21.5905 36.3749 21.6577 36.2906 21.6937C36.1968 21.7125 36.1031 21.7125 36 21.675C36.0375 21.7312 36.0562 21.7875 36.075 21.8344C36.0937 21.8906 36.1031 21.975 36.1125 22.0969L36.1312 22.3969L35.85 22.2562L35.8125 21.9094C35.808 21.8307 35.7986 21.7524 35.7843 21.675C35.7779 21.6399 35.7617 21.6074 35.7375 21.5812L35.625 21.5156L35.5781 21.4875L35.325 21.975L35.0906 21.8531Z" fill="#309E3A"/>
<path d="M35.6719 21.3L35.85 21.3937C35.9625 21.45 36.0375 21.4875 36.0656 21.4875C36.0938 21.4875 36.1313 21.4875 36.1594 21.4688C36.1875 21.4594 36.2062 21.4312 36.225 21.3937C36.2437 21.3562 36.2531 21.3187 36.2438 21.2812C36.2322 21.2439 36.2092 21.2111 36.1781 21.1875C36.1233 21.1538 36.067 21.1225 36.0094 21.0938L35.8219 21L35.6719 21.3Z" fill="#F0F0F0"/>
<path d="M39.9468 24.2531C40.0075 24.1567 40.0873 24.0737 40.1812 24.0093C40.2443 23.969 40.3142 23.9404 40.3875 23.925C40.4555 23.9111 40.5257 23.9111 40.5937 23.925C40.6875 23.9437 40.7718 23.9812 40.8562 24.0375C40.9292 24.0829 40.9919 24.1431 41.0403 24.2141C41.0887 24.2851 41.1218 24.3654 41.1375 24.45C41.1656 24.6093 41.1187 24.7875 41.0062 24.9656C40.9121 25.1205 40.7604 25.2318 40.5843 25.275C40.5004 25.2931 40.4136 25.2933 40.3296 25.2755C40.2456 25.2577 40.1662 25.2224 40.0968 25.1718C40.0239 25.1264 39.9612 25.0662 39.9128 24.9952C39.8643 24.9242 39.8312 24.8439 39.8156 24.7593C39.7875 24.5906 39.8343 24.4218 39.9468 24.2531Z" fill="#309E3A"/>
<path d="M40.1812 24.4031C40.0875 24.525 40.0594 24.6375 40.0781 24.7406C40.085 24.7881 40.102 24.8335 40.1278 24.874C40.1537 24.9144 40.1879 24.9488 40.2281 24.975C40.3219 25.0406 40.4156 25.0593 40.5094 25.0312C40.6031 25.0031 40.6969 24.9375 40.7812 24.8062C40.8656 24.675 40.9031 24.5625 40.8844 24.4687C40.875 24.375 40.8187 24.2906 40.7344 24.225C40.65 24.1593 40.5469 24.15 40.4531 24.1781C40.3594 24.1968 40.2656 24.2718 40.1719 24.4031H40.1812Z" fill="#F0F0F0"/>
<path d="M28.2937 19.1719L28.5093 18.2531L29.1843 18.4125L29.1562 18.5625L28.6593 18.45L28.6125 18.6562L29.0718 18.7594L29.0343 18.9187L28.575 18.8062L28.5187 19.0594L29.0343 19.1812L28.9968 19.3312L28.2937 19.1719Z" fill="#309E3A"/>
</g>
<defs>
<clipPath id="clip0_264_8476">
<rect width="60" height="45" fill="white"/>
</clipPath>
</defs>
</svg>
