<svg width="60" height="45" viewBox="0 0 60 45" fill="none" xmlns="http://www.w3.org/2000/svg">
<g clip-path="url(#clip0_264_7474)">
<path d="M0 0H60V45H0V0Z" fill="#F7E017"/>
<path d="M0 3.12189V23.1281L60 32.5031V21.8719L0 3.12189Z" fill="#F0F0F0"/>
<path d="M0 13.7531V23.1281L60 41.8781V32.5031L0 13.7531Z" fill="black"/>
<path d="M28.4815 35.6064C27.3844 35.4853 26.329 35.1178 25.3939 34.5314C25.2439 34.4314 25.1064 34.3439 25.0814 34.3439C25.0564 34.3439 25.0439 34.4627 25.0439 34.6002C25.0439 35.0002 24.8814 35.2002 24.4814 35.3064C24.0939 35.4064 23.5064 35.2064 23.0314 34.8064C22.581 34.4211 22.0553 34.1337 21.4877 33.9627C20.8964 33.8219 20.2741 33.9019 19.7377 34.1877C19.6846 34.225 19.6254 34.2525 19.5627 34.2689C19.4939 34.2689 19.5002 33.8377 19.5752 33.7064C19.6689 33.5189 19.8939 33.3439 20.1627 33.2502C20.3002 33.2002 20.4127 33.1377 20.4127 33.1064C20.4127 33.0814 20.3627 32.9814 20.3064 32.8814C20.1252 32.5627 20.2002 32.2564 20.5189 32.0127C20.8439 31.7627 21.3939 31.7252 21.8752 31.9064C21.9565 31.9411 22.04 31.9703 22.1252 31.9939C22.1877 31.9939 22.1502 31.9002 21.9752 31.6439C21.7752 31.3502 21.7314 31.2064 21.7564 30.8502C21.7736 30.6321 21.868 30.4273 22.0227 30.2727C22.1773 30.118 22.3821 30.0236 22.6002 30.0064C22.9627 29.9814 23.1877 30.1064 23.7252 30.6127C25.1688 32.0657 27.0649 32.9829 29.1002 33.2127C29.619 33.2752 30.6502 33.2439 31.2565 33.1502C33.177 32.8297 34.9577 31.9416 36.369 30.6002C36.769 30.2252 36.9565 30.1252 37.2877 30.1252C37.569 30.1252 37.769 30.2127 37.9752 30.4377C38.1627 30.6439 38.2253 30.8377 38.2003 31.1564C38.1878 31.3564 38.1565 31.4502 38.0377 31.6502C37.8627 31.9314 37.894 31.9627 38.2377 31.8252C38.7128 31.6377 39.294 31.7252 39.6065 32.0252C39.8815 32.2877 39.9065 32.5502 39.694 32.9002C39.6128 33.0314 39.5503 33.1502 39.5503 33.1752C39.5503 33.2127 39.6128 33.2252 39.894 33.2752C40.269 33.3377 40.4878 33.6127 40.4878 34.0377C40.4878 34.1627 40.469 34.2689 40.4503 34.2689C40.4315 34.2689 40.2878 34.2127 40.1378 34.1502C39.7003 33.9689 39.4503 33.9252 38.9378 33.9314C38.5503 33.9314 38.419 33.9502 38.1503 34.0377C37.7004 34.1941 37.2861 34.4385 36.9315 34.7564C36.5315 35.1127 36.2815 35.2252 35.894 35.2189C35.5315 35.2189 35.2877 35.1127 35.1565 34.9064C35.0877 34.7939 35.0752 34.7314 35.094 34.4814C35.1065 34.3189 35.1002 34.1877 35.094 34.1877C35.0752 34.1877 34.9377 34.2752 34.7815 34.3814C34.4247 34.6373 34.036 34.8453 33.6252 35.0002C31.9803 35.596 30.2199 35.8035 28.4815 35.6064Z" fill="#CF1126"/>
<path d="M29.1439 32.8252C27.9349 32.7141 26.7636 32.346 25.7084 31.7456C24.6531 31.1452 23.7383 30.3264 23.0251 29.3439C21.5001 27.2689 21.0251 24.5251 21.4876 22.0189C21.7376 20.8751 22.2376 19.7314 23.0813 18.9188C22.3858 20.3624 22.1943 21.9975 22.5376 23.5626C23.1001 26.6751 25.7251 29.3064 28.8689 29.7627C30.1189 30.1189 31.4001 29.7377 32.5876 29.3564C35.2127 28.4314 37.2127 25.9439 37.4502 23.1626C37.6564 21.6626 37.4314 20.0939 36.7502 18.7251C37.1377 18.9313 37.6252 19.7376 37.9127 20.2751C38.9127 22.2126 38.9564 24.5314 38.3689 26.6001C37.5689 29.2314 35.5564 31.5377 32.9001 32.3752C31.6883 32.7538 30.4172 32.9063 29.1501 32.8252H29.1439Z" fill="#CF1126"/>
<path d="M17.0001 29.3689C16.8439 29.3439 16.6689 29.5001 16.7314 29.6626C16.8439 29.8251 17.0439 29.9126 17.2189 29.9876C17.68 30.1676 18.1749 30.2445 18.6689 30.2126C19.0313 30.2127 19.3909 30.1492 19.7314 30.0251C19.9189 29.9626 20.1564 29.9001 20.2314 29.6876C20.3126 29.5564 20.1689 29.4189 20.0376 29.4439C19.8501 29.4876 19.6626 29.5689 19.4751 29.6251C19.063 29.7418 18.6334 29.7841 18.2064 29.7501C17.8956 29.7049 17.5927 29.6166 17.3064 29.4876C17.2064 29.4439 17.1126 29.3814 17.0001 29.3689Z" fill="#CF1126"/>
<path d="M17.1751 28.7189C17.0189 28.6939 16.8814 28.8814 16.9439 29.0314C17.0689 29.2064 17.2751 29.3001 17.4689 29.3814C17.8069 29.5139 18.1686 29.5756 18.5314 29.5626H18.6252C18.9337 29.564 19.2396 29.5045 19.5252 29.3876C19.6939 29.3189 19.9064 29.2501 19.9814 29.0626C20.0377 28.9564 19.9939 28.8064 19.8564 28.7939C19.7439 28.7939 19.6377 28.8689 19.5252 28.9001C19.118 29.0683 18.6766 29.1368 18.2376 29.1001C17.9626 29.0689 17.7064 28.9689 17.4564 28.8501C17.3626 28.8064 17.2814 28.7376 17.1751 28.7251V28.7189Z" fill="#CF1126"/>
<path d="M17.3939 28.1001C17.2564 28.0814 17.1626 28.2376 17.1876 28.3564C17.2064 28.4689 17.3001 28.5439 17.3814 28.6064C17.7217 28.8421 18.1304 28.9586 18.5439 28.9376H18.6439C18.9038 28.9357 19.16 28.8759 19.3939 28.7626C19.5501 28.7001 19.7314 28.6189 19.7876 28.4376C19.8126 28.3564 19.8251 28.2376 19.7314 28.1876C19.6314 28.1376 19.5376 28.2189 19.4501 28.2501C19.1512 28.4072 18.8191 28.4907 18.4814 28.4939C18.1915 28.4823 17.9095 28.3962 17.6626 28.2439C17.5689 28.2001 17.4939 28.1189 17.3939 28.1001Z" fill="#CF1126"/>
<path d="M15.0938 18.9188C14.8938 19.1251 15.0501 19.5001 15.0313 19.7626C15.1438 20.5876 15.2751 21.4188 15.5813 22.2001C15.9563 22.9501 16.7564 23.3563 17.2376 24.0251C17.4126 24.3438 17.3501 24.7314 17.3876 25.0876C17.4126 26.0439 17.4064 27.0064 17.3876 27.9626C17.8251 28.1876 18.2939 28.4001 18.7939 28.3189C19.0876 28.2501 19.6376 28.2064 19.7001 27.9126L19.6376 22.9438C19.4689 22.4376 18.9501 22.1751 18.5689 21.8501C18.2502 21.5355 17.9537 21.1993 17.6814 20.8438C17.5189 20.5626 16.8751 20.4688 17.1064 20.9438C17.2439 21.3626 17.5876 21.6688 17.6751 22.1063C17.6939 22.3501 17.9876 22.7938 17.7376 22.9313C17.5836 22.6597 17.3503 22.4416 17.0689 22.3063C16.7939 22.1001 16.3376 22.0126 16.2376 21.6501C16.1476 21.1345 15.9086 20.6565 15.5501 20.2751C15.6438 19.8126 15.5501 19.2313 15.1501 18.9313L15.0938 18.9188Z" fill="#CF1126"/>
<path d="M15.7126 19.0126C15.5251 19.0438 15.5376 19.2751 15.6189 19.4001C15.7115 19.6691 15.7352 19.9571 15.6876 20.2376C16.0304 20.6192 16.2598 21.0889 16.3501 21.5938C16.3501 21.7813 16.5501 21.8438 16.6814 21.9376C16.9876 22.1313 17.3251 22.2751 17.6002 22.5188C17.6564 22.5813 17.7002 22.6438 17.6627 22.5188C17.6189 22.3563 17.6002 22.1813 17.4751 22.0626C17.3001 21.8751 17.0876 21.7126 16.8376 21.6626C16.8189 21.4001 16.6939 21.1626 16.5814 20.9376C16.4564 20.7188 16.3251 20.4876 16.1126 20.3501C16.1126 19.9688 16.1126 19.5688 15.9501 19.2126C15.9001 19.1251 15.8251 19.0188 15.7126 19.0126Z" fill="#CF1126"/>
<path d="M16.2313 19.1626C16.1063 19.2001 16.1313 19.3626 16.1688 19.4563C16.2234 19.7277 16.2444 20.0048 16.2313 20.2814C16.4751 20.4689 16.6188 20.7439 16.7563 21.0064C16.8438 21.1814 16.9188 21.3689 16.9501 21.5626C17.1438 21.6251 17.3126 21.7501 17.4626 21.8751C17.4001 21.7001 17.2751 21.5626 17.1813 21.3939C17.0876 21.2251 16.9938 21.0439 16.9501 20.8501C16.7626 20.6564 16.6626 20.3751 16.7001 20.1001C16.7126 19.8064 16.6188 19.5001 16.4188 19.2751C16.3688 19.2251 16.3063 19.1688 16.2313 19.1626Z" fill="#CF1126"/>
<path d="M16.8251 19.2501C16.7501 19.2626 16.7126 19.3251 16.6751 19.3813C16.6563 19.4376 16.7251 19.4938 16.7376 19.5563C16.8193 19.7626 16.8493 19.9858 16.8251 20.2063C16.8188 20.3626 16.8751 20.5188 16.9501 20.6438C16.9641 20.5957 16.9927 20.5531 17.0318 20.5218C17.071 20.4905 17.1188 20.472 17.1688 20.4688C17.2001 20.4688 17.2563 20.4813 17.2313 20.4251C17.2063 20.1251 17.1626 19.8251 17.0563 19.5501C17.0256 19.4418 16.9649 19.3443 16.8813 19.2688C16.8688 19.2563 16.8438 19.2438 16.8188 19.2501H16.8251Z" fill="#CF1126"/>
<path d="M29.7314 29.7502C29.3093 29.7045 28.909 29.539 28.5779 29.2732C28.2467 29.0074 27.9986 28.6524 27.8627 28.2501C27.8814 28.1126 28.0502 28.3251 28.1314 28.3439C28.2839 28.4347 28.4547 28.4903 28.6314 28.5064C28.8502 28.6001 28.9877 28.8189 29.2002 28.9376C29.3002 29.0126 29.6502 29.1626 29.5814 28.9189C29.5002 28.7939 29.4439 28.6314 29.5189 28.4814C29.6314 28.2251 29.8127 28.0001 30.0002 27.7814C30.1314 27.7376 30.2252 28.0064 30.3189 28.0939C30.4502 28.3001 30.6127 28.5501 30.5314 28.8001C30.4564 28.8939 30.4064 29.1751 30.6127 29.0876C30.8627 28.9751 31.0689 28.7876 31.2752 28.6126C31.4627 28.4876 31.6939 28.4814 31.8814 28.3626C31.9752 28.3439 32.1564 28.1689 32.1939 28.2626C32.082 28.542 31.9258 28.8016 31.7314 29.0314C31.4309 29.3882 31.0154 29.6291 30.5564 29.7126C30.2814 29.7626 30.0064 29.7752 29.7314 29.7502Z" fill="#CF1126"/>
<path d="M30.7189 28.7626C30.7376 28.5939 30.7001 28.4251 30.6126 28.2626C30.4814 28.0001 30.3001 27.7626 30.1126 27.5189C29.9376 27.4189 29.8439 27.7501 29.7314 27.8439C29.5501 28.1126 29.3251 28.3876 29.3126 28.7189C29.2126 28.8751 29.0251 28.5939 28.9439 28.5001C28.7773 28.286 28.6891 28.0213 28.6939 27.7501C28.6788 27.31 28.7554 26.8715 28.9189 26.4626C29.0439 26.1126 29.2376 25.7751 29.2189 25.4001C29.2314 25.1063 29.1751 24.7938 28.9439 24.6001C28.7189 24.4251 29.0876 24.3876 29.2001 24.4751C29.4001 24.4938 29.5064 24.8188 29.6876 24.7376C29.7564 24.5688 29.7751 24.3626 29.9251 24.2313C30.0689 24.0313 30.2189 24.3126 30.2689 24.4501C30.3751 24.5626 30.2689 24.8563 30.4314 24.8626C30.6314 24.7188 30.7751 24.4876 31.0314 24.4313C31.1376 24.3688 31.3126 24.4313 31.1751 24.5438C30.9876 24.7251 30.8251 24.9438 30.7876 25.2126C30.7314 25.5438 30.8126 25.8813 30.9564 26.1751C31.2376 26.7626 31.4564 27.4251 31.3126 28.0814C31.2501 28.3689 31.0501 28.6189 30.8126 28.7876C30.7814 28.8064 30.7314 28.8064 30.7189 28.7626Z" fill="#CF1126"/>
<path d="M30.4189 24.3501C30.3348 24.181 30.2154 24.0318 30.0689 23.9126C29.9189 23.9126 29.8252 24.1001 29.7252 24.2001C29.6564 24.3314 29.5689 24.5501 29.3939 24.3814C29.1127 24.2189 29.0689 23.8626 29.0689 23.5689C29.0502 23.0939 29.2439 22.6501 29.4127 22.2189C29.5189 21.9501 29.4939 21.6439 29.4252 21.3689C29.3439 21.0564 29.0877 20.8314 28.8939 20.5814C28.9064 20.4876 29.1564 20.5376 29.2502 20.5564C29.4627 20.6126 29.5877 20.7939 29.7439 20.9314C29.8564 20.8939 29.8064 20.6689 29.8627 20.5626C29.8627 20.4126 30.0627 20.2189 30.1439 20.4314C30.2689 20.5689 30.1439 20.8376 30.3002 20.9189C30.4502 20.8626 30.5252 20.7001 30.6627 20.6251C30.7345 20.5786 30.817 20.5514 30.9024 20.5459C30.9877 20.5404 31.073 20.5569 31.1502 20.5939C31.2064 20.7314 30.9877 20.8439 30.9252 20.9689C30.8002 21.1247 30.7137 21.3077 30.6724 21.5031C30.6312 21.6985 30.6364 21.9008 30.6877 22.0939C30.7752 22.4064 30.9252 22.6876 30.9814 23.0001C31.0489 23.3565 31.0383 23.7233 30.9502 24.0751C30.8939 24.2876 30.7127 24.4251 30.5252 24.5126C30.4752 24.4689 30.4502 24.4064 30.4189 24.3501Z" fill="#CF1126"/>
<path d="M29.4752 20.4313C29.2627 20.2751 29.1939 20.1313 29.1939 19.8376C29.1939 19.6938 29.2252 19.6126 29.3189 19.4751C29.4689 19.2751 29.4439 19.2126 29.2377 19.2688C28.9064 19.3626 28.7502 19.2813 28.7377 19.0001C28.7377 18.8626 28.7627 18.8063 28.9439 18.5813C29.0939 18.4063 29.1502 18.3126 29.1189 18.2813C29.0877 18.2563 28.9127 18.4063 28.5564 18.7688C28.333 19.0043 28.095 19.2256 27.8439 19.4313C27.2314 19.8438 26.6439 19.9063 26.3752 19.5876C26.2376 19.4251 26.2439 19.3376 26.4002 19.2376C26.4997 19.1703 26.5918 19.0928 26.6752 19.0063C26.9815 18.7266 27.3191 18.4833 27.6814 18.2813C27.9064 18.1688 27.9564 18.0938 27.8127 18.0938C27.6252 18.0938 27.0314 18.4813 26.5752 18.8938C26.4439 19.0188 26.2502 19.1563 26.1502 19.2063C25.8721 19.3077 25.5711 19.3294 25.2814 19.2688C25.1439 19.2251 24.8876 18.9876 24.8876 18.9001C24.8876 18.8813 24.9501 18.8313 25.0126 18.7876C25.1145 18.73 25.2108 18.663 25.3001 18.5876C25.6626 18.2751 26.3501 17.9438 26.8939 17.8251C27.0689 17.7938 27.0002 17.7001 26.8064 17.7126C26.2327 17.8221 25.6956 18.0735 25.2439 18.4438C24.7251 18.8751 23.9439 18.8313 23.6939 18.3626C23.6501 18.2813 23.6189 18.2063 23.6314 18.1938C24.0741 18.0821 24.5021 17.9184 24.9064 17.7063C25.2546 17.5011 25.6384 17.3632 26.0376 17.3001C26.2126 17.2688 26.2252 17.1813 26.0564 17.1626C25.8314 17.1376 25.4939 17.2501 24.9001 17.5376C24.1314 17.9188 23.9126 17.9876 23.5126 17.9626C23.1376 17.9376 22.9314 17.8438 22.6376 17.5626C22.4376 17.3751 22.1626 16.9063 22.2126 16.8501C22.5371 16.9183 22.8689 16.9456 23.2001 16.9313C23.7189 16.9313 23.8626 16.9188 24.1376 16.8375C24.6749 16.6673 25.1813 16.412 25.6376 16.0813C26.281 15.5371 27.095 15.2362 27.9377 15.2313C28.7127 15.2313 29.2002 15.4063 29.6377 15.85C29.7877 16 29.9127 16.0938 29.9314 16.075C29.9502 16.0563 29.9689 15.7938 29.9752 15.4938C29.9752 15.4938 30.2064 15.4688 30.2564 15.5375C30.2564 16.0188 30.2564 16.0625 30.3314 16.0625C30.3752 16.0625 30.4252 16.0125 30.4564 15.9375C30.5189 15.7813 30.7689 15.5625 31.0314 15.425C31.5939 15.1438 32.5752 15.1313 33.3627 15.4063C33.7392 15.5491 34.0913 15.7494 34.4064 16C34.8663 16.3234 35.3718 16.5762 35.9064 16.7501C36.3314 16.8751 37.094 16.9063 37.4752 16.8126C37.5867 16.7867 37.6993 16.7659 37.8127 16.7501C37.9565 16.7501 37.7127 17.2251 37.4252 17.5063C36.9002 18.0188 36.219 18.0126 35.2627 17.5001C34.6627 17.1751 33.9502 17.0001 33.9502 17.1751C33.9502 17.2126 33.9877 17.2376 34.0439 17.2376C34.2502 17.2376 34.6502 17.3751 35.2127 17.6438C35.5661 17.8476 35.9537 17.9853 36.3565 18.0501C36.5002 18.0501 36.5065 18.1438 36.369 18.3438C36.2252 18.5563 35.9814 18.6563 35.6377 18.6563C35.3064 18.6563 35.1189 18.5876 34.8252 18.3438C34.3252 17.9313 33.1002 17.4688 33.1439 17.7188C33.1564 17.7626 33.2127 17.7938 33.3439 17.8126C33.8718 17.9272 34.3659 18.1626 34.7877 18.5001L35.1564 18.7688C35.2252 18.8063 35.2252 18.8188 35.1689 18.9251C35.0814 19.1001 34.8439 19.2313 34.5939 19.2563C34.2689 19.2938 33.9814 19.1938 33.6877 18.9438C33.0627 18.4251 32.4814 18.0501 32.2939 18.0501C32.1377 18.0501 32.2064 18.1376 32.4814 18.2813C32.8372 18.4697 33.1688 18.7006 33.4689 18.9688C33.5939 19.0876 33.7377 19.2001 33.7814 19.2251C33.9002 19.2876 33.8939 19.3751 33.7689 19.5376C33.6439 19.7001 33.4314 19.7751 33.1627 19.7438C32.6252 19.6876 32.2002 19.4313 31.5377 18.7438C31.3801 18.5679 31.2088 18.4049 31.0252 18.2563C30.9377 18.2563 30.9939 18.3751 31.1627 18.5688C31.3752 18.8001 31.4127 18.9313 31.3314 19.1313C31.2627 19.2938 31.1439 19.3376 30.9064 19.2688C30.6564 19.2063 30.6189 19.2688 30.7814 19.4626C31.0189 19.7688 30.9877 20.1313 30.6877 20.3876C30.6256 20.4473 30.5537 20.496 30.4752 20.5313C30.4502 20.5313 30.3877 20.4688 30.3314 20.3813C30.1439 20.0938 29.9752 20.0938 29.7877 20.3813C29.7481 20.4452 29.7064 20.5077 29.6627 20.5688C29.5994 20.524 29.5369 20.4782 29.4752 20.4313Z" fill="#CF1126"/>
<path d="M30.4189 14.5626L30.0939 14.8126L29.8064 14.6001V16.3376H30.4189V14.5626Z" fill="#CF1126"/>
<path d="M28.4314 12.7688C28.3746 13.4715 28.1836 14.1567 27.8689 14.7876L28.5626 14.1438L29.0439 14.7188L29.5689 14.1313L30.1002 14.6313L30.6127 14.1126L31.1439 14.7376L31.6064 14.2251L32.3939 14.7876C32.1064 14.1626 31.7252 13.6251 31.7689 12.7375C31.0127 13.3001 29.2064 13.4001 28.4314 12.7625V12.7688Z" fill="#CF1126"/>
<path d="M29.8127 12.3501C29.5314 12.3501 29.2377 12.3563 28.9752 12.4126C28.8013 12.4402 28.6352 12.5041 28.4877 12.6001C28.5064 13.1376 31.0502 13.3563 31.7314 12.6126C31.5781 12.5064 31.403 12.436 31.2189 12.4063C30.9689 12.3563 30.6814 12.3563 30.4127 12.3438V12.7876H29.8127V12.3501Z" fill="#CF1126"/>
<path d="M30.3065 9.62506H29.9127V12.7126H30.3127L30.3065 9.62506Z" fill="#CF1126"/>
<path d="M30.3064 9.70004L30.1564 11.1813L31.6752 11.925L30.9064 10.8938L31.9564 10.55L30.3064 9.70004ZM30.1377 9.31879C29.9064 9.31879 29.7377 9.40629 29.7377 9.50629C29.7377 9.60629 29.9064 9.69379 30.1377 9.69379C30.3689 9.69379 30.5377 9.60629 30.5377 9.50629C30.5377 9.40629 30.3689 9.31879 30.1377 9.31879Z" fill="#CF1126"/>
<path d="M29.4375 35.2406C29.6907 35.1563 29.8313 35.0063 29.9344 34.7156C29.9813 34.5656 30.0188 34.4156 30.0094 34.3781C29.9907 34.2844 29.8782 34.2844 29.7657 34.3875C29.6813 34.4531 29.6719 34.4906 29.6907 34.6313C29.7563 34.9781 29.625 35.0719 28.9688 35.1375C28.9032 35.1375 28.7063 35.1375 28.5469 35.1094C28.2282 35.0719 28.1157 35.1094 28.2282 35.2031C28.2887 35.2419 28.3552 35.2704 28.425 35.2875C28.6032 35.3344 29.25 35.3063 29.4375 35.2406ZM30.8157 35.1844C30.8532 35.1469 30.975 35.0906 31.0969 35.0438C31.2563 34.9969 31.3407 34.95 31.4063 34.8375C31.6032 34.5563 31.5657 34.3031 31.2844 33.9656C31.125 33.7781 31.0594 33.7875 30.9375 33.9938C30.825 34.1625 30.8344 34.1813 30.9844 34.2188C31.0688 34.2375 31.1438 34.2938 31.1813 34.3688C31.35 34.6594 31.3032 34.8375 31.05 34.8375C30.825 34.8375 30.7688 34.875 30.7032 35.025L30.6469 35.2031C30.6469 35.2594 30.7407 35.25 30.8157 35.1844ZM30.3657 34.8563C30.4032 34.7344 30.4219 34.5281 30.4125 34.1063C30.4226 33.9058 30.4132 33.7049 30.3844 33.5063C30.3469 33.4688 30.1688 33.5813 30.1407 33.6656C30.1313 33.7348 30.148 33.805 30.1875 33.8625C30.2438 33.975 30.2532 34.0875 30.2344 34.5188C30.2063 35.0813 30.2438 35.175 30.3657 34.8563Z" fill="#F7E017"/>
<path d="M29.3062 34.5938L29.3718 34.125C29.3812 33.9656 29.4187 33.7688 29.4374 33.6844C29.5031 33.4688 29.4374 33.4125 29.2687 33.5344L29.1468 33.6281L29.1656 33.9375C29.1937 34.2188 29.1468 34.7344 29.0812 34.9406C29.0624 34.9969 29.0906 34.9781 29.1656 34.8938C29.2218 34.8281 29.2874 34.6875 29.3062 34.5844V34.5938ZM28.3687 34.7438C28.5937 34.5563 28.5656 34.2188 28.6218 33.9563C28.6218 33.7781 28.7343 33.5719 28.6593 33.4125C28.4437 33.45 28.3124 33.6563 28.4249 33.8531C28.4249 34.0875 28.4249 34.3406 28.3031 34.5469C28.2093 34.6875 27.8906 34.65 27.9093 34.4531C27.9843 34.1719 27.6374 34.3125 27.5062 34.3875C27.4031 34.4625 27.1781 34.4719 27.2624 34.2938C27.2062 34.0406 26.8968 34.2 26.7281 34.2C26.5687 34.2 26.7187 33.8719 26.4843 33.9188C26.0624 33.8906 25.5937 33.9281 25.2187 33.675C25.0031 33.5719 25.0312 33.3094 25.1531 33.1406C25.2843 32.9156 25.3218 32.625 25.5281 32.4469C25.7437 32.25 25.3406 32.3344 25.2468 32.4C25.0406 32.5125 25.2281 32.8031 25.0593 32.9625C24.9656 33.1313 24.8343 33.3563 24.6093 33.3281C24.2812 33.2625 24.0937 32.9531 23.8593 32.7656C23.6531 32.7188 23.7656 33.0844 23.8781 33.1594C24.0859 33.3147 24.3213 33.4292 24.5718 33.4969C24.8156 33.45 24.8249 33.7781 25.0406 33.825C25.4156 34.0125 25.8468 34.0594 26.2687 34.0875C26.4374 34.0969 26.3437 34.3969 26.5593 34.3313C26.6812 34.3688 26.9624 34.2844 26.9718 34.425C26.7843 34.65 27.1499 34.6406 27.2812 34.6125C27.4593 34.575 27.6749 34.5188 27.7218 34.7438C27.8624 34.9031 28.1249 34.875 28.3031 34.7906L28.3687 34.7438Z" fill="#F7E017"/>
<path d="M24.6375 32.85C24.7256 32.7267 24.801 32.5948 24.8625 32.4563C24.9102 32.3361 24.9732 32.2227 25.05 32.1188C25.1625 32.0063 25.0968 31.9313 24.9187 31.9688C24.825 31.9875 24.7875 32.025 24.7781 32.1094C24.7361 32.3394 24.6569 32.561 24.5437 32.7656C24.3843 33 24.3843 33.0094 24.45 33.0094C24.4781 33.0094 24.5625 32.9344 24.6375 32.85ZM22.2937 31.3781C22.1156 31.3781 22.1062 31.4906 22.275 31.5469C22.3687 31.575 22.4343 31.6406 22.4906 31.7625C22.65 32.0906 22.7531 32.1562 23.1937 32.1937L23.475 32.2125L23.4937 32.3906C23.4937 32.4844 23.5218 32.5594 23.5406 32.5594L23.7843 32.4656C23.9906 32.3531 24.1875 32.1094 24.1875 31.95C24.1875 31.8562 24.0187 31.7438 23.8687 31.7438C23.8031 31.7438 23.6812 31.8 23.5781 31.875C23.2593 32.1 22.9218 32.0625 22.7343 31.7625C22.5937 31.5187 22.4343 31.3875 22.2937 31.3875V31.3781ZM23.8218 31.9875C23.9062 31.9875 23.9156 32.0531 23.8781 32.175C23.8723 32.1915 23.8616 32.2059 23.8473 32.216C23.833 32.2262 23.8159 32.2316 23.7984 32.2316C23.7809 32.2316 23.7638 32.2262 23.7495 32.216C23.7352 32.2059 23.7245 32.1915 23.7187 32.175C23.6812 32.0813 23.7281 31.9875 23.8125 31.9875H23.8218ZM35.6812 31.6125C35.5593 31.6125 35.5312 31.6313 35.4562 31.7438C35.3343 31.9219 35.325 32.3063 35.4375 32.4375C35.5031 32.5219 35.5125 32.5219 35.6531 32.4563C35.8593 32.3719 35.8968 32.3812 35.8875 32.4844C35.8875 32.7656 35.4937 33.3 35.0812 33.5813C34.9966 33.6312 34.9206 33.6945 34.8562 33.7688C34.8281 33.8438 34.9781 33.8344 35.1656 33.7312C35.476 33.5532 35.7321 33.2939 35.9062 32.9812C36.0093 32.7656 36.0281 32.7 36.0468 32.325C36.0468 31.9687 36.0468 31.8563 35.9906 31.7438C35.9156 31.6125 35.8968 31.6031 35.7281 31.6031H35.6812V31.6125ZM35.6906 31.8469C35.7843 31.8469 35.7843 31.8656 35.8031 31.9969C35.8031 32.0906 35.7937 32.1563 35.7375 32.2125C35.6625 32.2781 35.6437 32.2781 35.5875 32.175C35.4937 32.025 35.55 31.8469 35.6906 31.8469ZM33.7968 34.5188C34.1625 34.3313 34.3781 34.1344 34.5093 33.8438C34.5581 33.7505 34.5988 33.6532 34.6312 33.5531C34.6312 33.4969 34.4531 33.4125 34.35 33.4125C34.2468 33.4125 34.2187 33.3375 34.2562 33.1312C34.3031 32.9344 34.2562 32.6813 34.1625 32.6813C34.1343 32.6813 34.0687 32.7281 34.0406 32.7844C33.9843 32.8781 33.975 32.9156 34.0218 33.0375C34.0875 33.225 34.0312 33.375 33.8625 33.4969C33.7781 33.5531 33.7406 33.6187 33.7406 33.6844L33.75 33.7781L33.9468 33.6844L34.1343 33.5719L34.2375 33.6656C34.3031 33.7031 34.35 33.7781 34.35 33.825C34.35 34.05 33.7125 34.425 33.2812 34.4625C33.0468 34.4813 33 34.4625 32.925 34.3875C32.8593 34.3219 32.8406 34.2656 32.8593 34.2L32.9062 33.9563C32.9437 33.7594 32.8687 33.7875 32.7187 34.0125C32.6062 34.2 32.5687 34.3969 32.6343 34.5C32.6906 34.5938 33.0468 34.6688 33.3093 34.65C33.4687 34.65 33.6281 34.6031 33.7968 34.5188ZM36.2343 33.1594C36.4593 32.925 36.5625 32.6438 36.5625 32.2219V31.8938L36.75 31.8C37.0031 31.6875 37.2375 31.4531 37.2375 31.3219C37.2375 31.1906 37.1718 31.1906 37.0687 31.3406C36.9843 31.4437 36.8812 31.5094 36.5062 31.6875C36.4125 31.725 36.4031 31.7531 36.375 32.1562C36.3562 32.625 36.2812 32.7938 36.0281 33.1125C35.8687 33.3 35.8593 33.3375 35.9718 33.3375C36.0187 33.3375 36.1406 33.2531 36.2343 33.15V33.1594ZM33.7312 32.8969C33.75 32.8312 33.6187 32.7844 33.5718 32.8406C33.5437 32.8594 33.5343 32.8969 33.5531 32.925C33.5906 32.9813 33.7031 32.9625 33.7312 32.8969ZM37.1812 32.0062C37.2093 31.9312 37.0781 31.8844 37.0218 31.9406C37.0031 31.9688 36.9937 32.0063 37.0125 32.0344C37.05 32.0906 37.1625 32.0719 37.1812 32.0062ZM33.0281 29.5781C32.9343 29.625 32.8875 29.7187 32.8312 29.7937C32.7843 29.8219 32.8218 29.85 32.8406 29.8875C33 30.0469 33.0656 30.2812 33.1406 30.4969C33.2156 30.75 33.3093 31.0219 33.2343 31.2844C33.2062 31.3781 33.1218 31.4813 33.0093 31.4531C32.8218 31.4438 32.6343 31.3875 32.4468 31.3875C32.2687 31.3969 32.1375 31.5562 31.9687 31.5375C31.8562 31.5375 31.8562 31.3125 31.7625 31.3781C31.7062 31.5 31.7343 31.6313 31.725 31.7531C31.7437 31.7813 31.8 31.7625 31.8281 31.7719H32.175C32.1937 31.8844 32.1937 32.025 32.2687 32.1188C32.3906 32.1563 32.5312 32.1188 32.6437 32.0719C32.7562 32.0156 32.775 31.875 32.8125 31.7625C32.85 31.6406 33 31.6687 33.0937 31.6219C33.2065 31.5868 33.3045 31.5153 33.3723 31.4186C33.4402 31.3219 33.4741 31.2055 33.4687 31.0875C33.45 30.7219 33.3187 30.3938 33.2062 30.0563C33.1593 29.9063 33.1218 29.7469 33.0656 29.5969L33.0281 29.5781ZM32.4656 31.6219C32.5875 31.6219 32.6437 31.7719 32.6156 31.875C32.5687 32.0156 32.3906 31.9313 32.3625 31.8281C32.2968 31.7344 32.3343 31.6125 32.4562 31.6219H32.4656Z" fill="#F7E017"/>
<path d="M27.75 30.45C27.6937 30.45 27.6281 30.4688 27.5625 30.5156C27.2344 30.75 27.1406 31.0219 27.375 31.1344C27.5344 31.2094 27.4969 31.3031 27.2344 31.4344C26.8594 31.6219 26.5312 31.5938 25.9031 31.3406C25.7531 31.275 25.7156 31.3031 25.7437 31.4344C25.7812 31.575 25.9125 31.65 26.2219 31.7156C26.5594 31.8094 26.9719 31.7813 27.2344 31.6688C27.3884 31.5901 27.5254 31.4818 27.6375 31.35L27.8437 31.1344L28.0781 31.1625C28.3687 31.2 28.3781 31.2 28.3781 31.3406C28.3781 31.4531 28.3781 31.4531 28.65 31.4813L29.0906 31.5C29.2125 31.5 29.2781 31.5281 29.3156 31.5844C29.3719 31.65 29.4 31.6594 29.8406 31.6219C30.2531 31.5844 30.3281 31.5844 30.5156 31.65C30.6469 31.6875 30.7969 31.7063 30.9 31.6969C31.2187 31.6594 31.65 31.4063 31.7156 31.2188C31.7156 31.1906 31.8375 31.1531 31.9687 31.125C32.2875 31.0594 32.2969 30.9938 32.0062 30.9563C31.8593 30.9369 31.7148 30.9023 31.575 30.8531C31.4704 30.8089 31.3598 30.7804 31.2469 30.7688C31.0875 30.7688 30.9375 30.8625 30.9375 30.975C30.9375 31.0406 30.9562 31.05 31.1531 31.0313C31.3219 31.0125 31.3781 31.0219 31.4719 31.0969C31.5375 31.1438 31.575 31.2 31.5656 31.2188C31.5187 31.2938 31.1437 31.4625 30.9844 31.4906C30.888 31.5066 30.7891 31.4901 30.7031 31.4438C30.5531 31.3688 30.3469 31.3594 30.3 31.425C30.2812 31.4531 30.2437 31.4344 30.1781 31.3781L30.0844 31.2844L29.8594 31.3781C29.6344 31.4719 29.55 31.4719 29.55 31.3594C29.55 31.3125 29.4844 31.3031 29.1562 31.3313C28.7906 31.35 28.7531 31.3406 28.6875 31.2656C28.6219 31.2 28.6219 31.1719 28.6687 31.1063C28.7062 31.0313 28.7062 31.0125 28.6687 30.9656C28.6312 30.9281 28.575 30.9281 28.4344 30.9656C28.0687 31.0594 27.9656 31.0125 27.9656 30.7313C27.9656 30.5531 27.8719 30.45 27.75 30.45ZM27.6562 30.7125C27.675 30.7125 27.6937 30.7219 27.7219 30.75C27.75 30.7781 27.7687 30.8438 27.75 30.8719C27.7219 30.9563 27.5625 30.9563 27.5344 30.8719C27.5156 30.825 27.5344 30.7781 27.5812 30.75L27.6562 30.7125Z" fill="#F7E017"/>
<path d="M27 30.975C27.225 30.8344 27.225 30.8438 27.2532 30.4594C27.2719 30.1781 27.2719 30.1594 27.1969 30.1594C27.0844 30.1594 27.0282 30.2813 27.0282 30.5063C27.0282 30.6563 27.0094 30.7219 26.9344 30.7875C26.7469 30.975 26.2969 30.8906 26.2313 30.6656C26.2125 30.5906 26.2407 30.5156 26.3344 30.3844C26.5313 30.1031 26.4938 30.0281 26.2407 30.2438C26.0813 30.3938 26.0532 30.3938 26.0813 30.2719C26.1094 30.15 26.0532 30.1031 25.9125 30.1406C25.8469 30.1594 25.8 30.1969 25.7907 30.2906C25.7719 30.3656 25.7344 30.4125 25.6688 30.4313C25.5563 30.4594 25.3688 30.3563 25.3688 30.2625C25.3688 30.1969 25.65 29.85 26.0157 29.475C26.1469 29.3344 26.2594 29.1938 26.2594 29.1844C26.2594 29.1656 26.1844 29.1469 26.1 29.1469C25.9688 29.1469 25.9313 29.1656 25.9313 29.2219C25.9313 29.2594 25.7532 29.5031 25.5282 29.7563C25.0594 30.2813 25.0219 30.3844 25.2469 30.525C25.3406 30.5827 25.4491 30.6117 25.5591 30.6084C25.6691 30.6051 25.7757 30.5696 25.8657 30.5063L26.0157 30.4031V30.5906C26.0157 30.825 26.0625 30.9188 26.25 31.0125C26.3673 31.0727 26.4984 31.101 26.6301 31.0944C26.7617 31.0878 26.8893 31.0466 27 30.975ZM36.7875 27.7313C36.6188 27.8344 36.75 28.05 36.7875 28.2C36.7125 28.3875 36.4594 28.4438 36.2719 28.4813C36.0094 28.5281 35.8219 28.7438 35.7282 28.9781C35.6719 29.1281 35.5407 29.3531 35.4 29.1281C35.2782 29.0063 35.0532 28.9031 34.9125 29.0531C34.8 29.1563 34.7719 29.3063 34.725 29.4469C34.6594 29.3438 34.6313 29.1844 34.5 29.1469C34.275 29.175 34.3594 29.4563 34.4625 29.5688C34.5563 29.7094 34.65 29.8781 34.5563 30.0375C34.4625 30.225 34.1813 30.3563 34.0219 30.1969C33.8719 30.1125 33.975 29.8219 33.8157 29.8031C33.7407 29.8594 33.7407 30.1688 33.6188 30C33.525 29.8594 33.5813 29.6625 33.4688 29.5406C33.3469 29.5594 33.2438 29.775 33.2813 29.8875C33.45 30.1125 33.525 30.3938 33.5907 30.6656C33.6282 30.7781 33.5813 30.9938 33.6844 31.0406C33.75 30.8625 33.6844 30.6656 33.7407 30.4875C33.9094 30.4688 34.0875 30.5438 34.2563 30.5063C34.5094 30.4781 34.6969 30.2625 34.7813 30.0469C34.8094 29.8781 34.7813 29.7094 34.7719 29.5406C34.9594 29.5781 35.1657 29.5781 35.3532 29.6344C35.4469 29.775 35.325 29.9813 35.2969 30.1313C35.2032 30.45 34.95 30.675 34.7157 30.8813C34.6125 30.9469 34.6032 31.1063 34.7438 31.0219C35.0644 30.8696 35.3156 30.6017 35.4469 30.2719C35.55 30.0281 35.4657 29.7563 35.5407 29.5125C35.6344 29.325 35.8688 29.3625 36.0469 29.3625C36.225 29.3625 36.375 29.1469 36.3188 28.9688C36.2625 28.7625 36.4782 28.6688 36.6188 28.5938C36.8157 28.5 36.9657 28.3031 36.9469 28.0781C36.9469 27.9563 36.9469 27.7406 36.7875 27.7313ZM36.1032 28.9031C36.3094 28.9594 36.0657 29.3531 35.9532 29.1C35.9157 29.0063 36 28.9031 36.1032 28.9031ZM35.1375 29.1844C35.4094 29.175 35.3063 29.5594 35.0813 29.3906C34.9594 29.325 34.9969 29.1844 35.1375 29.1844ZM25.3125 30.7125C25.3125 30.675 25.2938 30.6469 25.2563 30.6469C25.1907 30.6469 25.1438 30.7125 25.1719 30.7688C25.2094 30.8344 25.2938 30.7969 25.3125 30.7125ZM28.5 30.375C28.5 30.3094 28.4719 30.2906 28.425 30.3C28.3219 30.3188 28.3032 30.4594 28.4157 30.4594C28.4719 30.4594 28.5 30.4313 28.5 30.3656V30.375ZM24.5625 28.4625C24.4407 28.4344 24.3563 28.5469 24.3094 28.65C24.2157 28.8094 24.1032 28.9688 23.9344 29.0531C23.8125 29.0906 23.6813 29.0438 23.5688 28.9781C23.4469 28.9125 23.475 28.7625 23.4188 28.6594C23.325 28.5844 23.1657 28.6875 23.175 28.8C23.1657 28.95 23.2969 29.0344 23.4188 29.0906C23.5125 29.1563 23.6625 29.1844 23.7 29.3063C23.7 29.4094 23.7375 29.5313 23.8594 29.4938C24 29.4938 24.0469 29.6625 23.9813 29.7656C23.9186 29.88 23.8955 30.0118 23.9157 30.1406C23.9813 30.2063 24.0469 30.0469 24.1032 30.0094L24.1969 29.8781C24.45 29.8875 24.6938 29.925 24.9469 29.9156C25.1344 29.9156 25.275 29.8031 25.3875 29.6719C25.5563 29.5031 25.6875 29.3063 25.8657 29.1656C25.9969 29.1281 25.9313 28.8844 25.7907 28.9594C25.6688 29.0063 25.6313 29.1469 25.5469 29.2313C25.4102 29.4115 25.2528 29.5751 25.0782 29.7188C24.9375 29.775 24.7875 29.7469 24.6469 29.7188C24.5907 29.6719 24.7594 29.625 24.7875 29.5688C24.8625 29.4938 24.9563 29.4188 25.0032 29.3156C24.9563 29.2219 24.825 29.2219 24.7313 29.2219C24.5063 29.2406 24.3282 29.4375 24.0938 29.4563C23.9157 29.4563 24.0094 29.2688 24.0938 29.2031C24.2438 29.0156 24.4125 28.8469 24.5719 28.6688C24.6188 28.6125 24.7875 28.5563 24.6844 28.4813C24.6469 28.4625 24.6 28.4625 24.5625 28.4625ZM24.675 29.4C24.7969 29.4656 24.6 29.5688 24.525 29.5594C24.4219 29.5875 24.4125 29.4844 24.5063 29.4656C24.5625 29.4281 24.6188 29.4 24.675 29.4ZM24.3188 29.6438C24.3844 29.6438 24.525 29.7094 24.3938 29.7469C24.3 29.8219 24.2063 29.6719 24.3188 29.6438Z" fill="#F7E017"/>
<path d="M27.1312 29.7938C27.1312 29.7 26.9812 29.7188 26.9625 29.8125C26.9437 29.8688 26.9625 29.8781 27.0375 29.8688C27.0937 29.8688 27.1312 29.8313 27.1312 29.7938ZM34.1344 29.175C34.1531 29.0906 34.0406 29.0344 33.975 29.1C33.9094 29.1563 33.975 29.2781 34.05 29.2594C34.0875 29.2594 34.125 29.2125 34.1437 29.175H34.1344ZM23.25 28.3219C23.3531 28.2281 23.3625 28.2188 23.3156 28.0125C23.2406 27.7219 23.25 27.6844 23.3625 27.6563C23.5031 27.6281 23.8594 27.8156 23.925 27.9656C24 28.0875 23.9906 28.0969 23.8875 28.1906C23.775 28.2938 23.775 28.4156 23.8875 28.4156C23.9812 28.4156 24.2344 28.1719 24.2344 28.0875C24.2344 27.9656 23.9531 27.675 23.7281 27.5719C23.5931 27.509 23.4458 27.477 23.2969 27.4781C23.0062 27.4781 22.9687 27.5438 23.0437 27.8719C23.1375 28.2656 23.0156 28.3219 22.6969 28.0219C22.5834 27.9221 22.4948 27.7973 22.4378 27.6574C22.3809 27.5175 22.3572 27.3663 22.3687 27.2156C22.3687 26.8406 22.5187 26.6438 22.8469 26.5969C23.0719 26.5688 23.0625 26.5125 22.8469 26.4844C22.5094 26.4281 22.2281 26.6531 22.125 27.0469C22.0031 27.4875 22.275 28.0219 22.7531 28.2938C23.0062 28.4344 23.1 28.4438 23.25 28.3219ZM36.3 27.8344C36.3281 27.8156 36.3469 27.75 36.3469 27.7031C36.3469 27.6563 36.3937 27.5531 36.45 27.4781C36.5062 27.4031 36.5437 27.3281 36.5437 27.3094C36.5437 27.2344 36.4219 27.2344 36.3281 27.3094C36.225 27.3938 36.1406 27.4031 36.1406 27.3094L36.2531 27.225C36.4031 27.1594 36.4125 27.0844 36.2906 27.0281C36.1312 26.9531 35.9625 27.0844 35.9531 27.3094C35.9437 27.4594 35.9531 27.4781 36.0656 27.5438C36.1687 27.6094 36.1875 27.6375 36.1687 27.7313C36.1406 27.8813 36.2062 27.9375 36.3 27.8344ZM37.5187 27.7031C37.6125 27.6094 37.6875 27.525 37.6875 27.4969C37.6875 27.4688 37.7719 27.3844 37.8656 27.3094C38.1281 27.1219 38.1937 26.9344 38.0719 26.625C38.025 26.5031 37.8844 26.3438 37.5562 26.0625C37.4067 25.9029 37.2365 25.7642 37.05 25.65C36.9656 25.65 36.9844 25.9688 37.0687 25.9969C37.2281 26.0531 37.3312 26.1188 37.575 26.3438C37.875 26.6063 38.0062 26.8594 37.9312 27C37.8656 27.1313 37.7719 27.0938 37.5094 26.8125C37.4242 26.7067 37.323 26.615 37.2094 26.5406C37.1812 26.5406 37.1625 26.5969 37.1625 26.6719C37.1625 26.7656 37.2094 26.8594 37.35 27C37.5656 27.2438 37.5844 27.3844 37.4156 27.5156C37.3776 27.5542 37.3332 27.586 37.2844 27.6094C37.07 27.2426 36.7829 26.9235 36.4406 26.6719C36.4125 26.6719 36.3937 26.7094 36.3937 26.8031C36.3937 26.925 36.4125 26.9625 36.5062 27.0094C36.7527 27.1986 36.9733 27.4192 37.1625 27.6656L37.3312 27.8531C37.4012 27.8095 37.4644 27.7558 37.5187 27.6938V27.7031ZM38.0812 26.1281C38.0344 26.0156 37.2937 25.2469 37.2094 25.2469C37.1719 25.2469 37.1625 25.2938 37.1719 25.4156C37.1719 25.5656 37.2 25.5844 37.3031 25.6125C37.4632 25.7062 37.6086 25.8231 37.7344 25.9594C37.8362 26.069 37.953 26.1636 38.0812 26.2406V26.1281ZM33.6 34.8094C33.605 34.8234 33.606 34.8382 33.6029 34.8525C33.5999 34.8669 33.5928 34.8805 33.5824 34.8922C33.5719 34.9039 33.5583 34.9134 33.5426 34.92C33.527 34.9265 33.5097 34.9299 33.4922 34.9299C33.4746 34.9299 33.4574 34.9265 33.4417 34.92C33.426 34.9134 33.4124 34.9039 33.402 34.8922C33.3915 34.8805 33.3844 34.8669 33.3814 34.8525C33.3783 34.8382 33.3793 34.8234 33.3844 34.8094C33.3793 34.7954 33.3783 34.7806 33.3814 34.7662C33.3844 34.7519 33.3915 34.7383 33.402 34.7266C33.4124 34.7149 33.426 34.7054 33.4417 34.6988C33.4574 34.6923 33.4746 34.6889 33.4922 34.6889C33.5097 34.6889 33.527 34.6923 33.5426 34.6988C33.5583 34.7054 33.5719 34.7149 33.5824 34.7266C33.5928 34.7383 33.5999 34.7519 33.6029 34.7662C33.606 34.7806 33.605 34.7954 33.6 34.8094ZM33.9937 34.6781C33.9937 34.6904 33.9908 34.7026 33.9852 34.714C33.9795 34.7254 33.9712 34.7357 33.9608 34.7444C33.9503 34.7531 33.9379 34.76 33.9243 34.7648C33.9106 34.7695 33.896 34.7719 33.8812 34.7719C33.8665 34.7719 33.8518 34.7695 33.8382 34.7648C33.8245 34.76 33.8121 34.7531 33.8017 34.7444C33.7912 34.7357 33.7829 34.7254 33.7773 34.714C33.7716 34.7026 33.7687 34.6904 33.7687 34.6781C33.7687 34.6658 33.7716 34.6536 33.7773 34.6423C33.7829 34.6309 33.7912 34.6206 33.8017 34.6118C33.8121 34.6031 33.8245 34.5962 33.8382 34.5915C33.8518 34.5868 33.8665 34.5844 33.8812 34.5844C33.896 34.5844 33.9106 34.5868 33.9243 34.5915C33.9379 34.5962 33.9503 34.6031 33.9608 34.6118C33.9712 34.6206 33.9795 34.6309 33.9852 34.6423C33.9908 34.6536 33.9937 34.6658 33.9937 34.6781Z" fill="#F7E017"/>
</g>
<defs>
<clipPath id="clip0_264_7474">
<rect width="60" height="45" fill="white"/>
</clipPath>
</defs>
</svg>
