<svg width="60" height="45" viewBox="0 0 60 45" fill="none" xmlns="http://www.w3.org/2000/svg">
<g clip-path="url(#clip0_264_7321)">
<path fill-rule="evenodd" clip-rule="evenodd" d="M-7.68518 0L30.0023 22.5L-7.68518 45V0ZM67.6898 0L30.0023 22.5L67.6898 45V0Z" fill="#18B637"/>
<path fill-rule="evenodd" clip-rule="evenodd" d="M-7.68518 0L30.0023 22.5L67.6898 0H-7.68518ZM-7.68518 45L30.0023 22.5L67.6898 45H-7.68518Z" fill="#CF0921"/>
<path fill-rule="evenodd" clip-rule="evenodd" d="M67.6898 0H60.6674L-7.68518 40.8076V45H-0.66272L67.6898 4.19238V0Z" fill="#F0F0F0"/>
<path fill-rule="evenodd" clip-rule="evenodd" d="M43.0189 22.5C43.0189 25.9511 41.648 29.2608 39.2077 31.701C36.7675 34.1413 33.4578 35.5122 30.0067 35.5122C26.5557 35.5122 23.246 34.1413 20.8057 31.701C18.3654 29.2608 16.9945 25.9511 16.9945 22.5C16.9945 19.0501 18.365 15.7415 20.8044 13.3021C23.2438 10.8626 26.5524 9.49219 30.0023 9.49219C33.4522 9.49219 36.7608 10.8626 39.2002 13.3021C41.6397 15.7415 43.0101 19.0501 43.0101 22.5H43.0189Z" fill="#F0F0F0"/>
<path fill-rule="evenodd" clip-rule="evenodd" d="M-7.68518 0V4.19238L60.6674 45H67.6898V40.8076L-0.66272 0H-7.68518Z" fill="#F0F0F0"/>
<path fill-rule="evenodd" clip-rule="evenodd" d="M32.5687 17.5957L30.8724 17.6221L29.9935 19.0635L29.1234 17.6221L27.4359 17.5869L28.2533 16.1016L27.4447 14.625L29.1322 14.5898L30.0111 13.1484L30.8812 14.5986L32.5687 14.6338L31.7513 16.1104L32.5687 17.5957ZM26.891 27.4043L25.2035 27.4307L24.3246 28.8721L23.4545 27.4307L21.767 27.3955L22.5843 25.9102L21.7758 24.4336L23.4633 24.3984L24.3422 22.957L25.2123 24.4072L26.8998 24.4424L26.0824 25.9189L26.891 27.4043ZM38.3695 27.4043L36.682 27.4307L35.8031 28.8721L34.9242 27.4307L33.2455 27.3955L34.0629 25.9102L33.2455 24.4336L34.933 24.3984L35.8119 22.957L36.6908 24.4072L38.3783 24.4424L37.5521 25.9189L38.3695 27.4043Z" fill="#CF0921"/>
<path fill-rule="evenodd" clip-rule="evenodd" d="M30.0123 12.8173L30.9795 14.4293L32.8562 14.4684L31.9471 16.1106L32.8562 17.7627L30.9696 17.792L29.9928 19.3939L29.0255 17.7915L27.1492 17.7524L28.0578 16.1014L27.1587 14.4596L29.0347 14.4205L30.0123 12.8173ZM30.0099 13.4796L29.2296 14.7593L27.7307 14.7905L28.4488 16.1018L27.7226 17.4215L29.2213 17.4527L29.9943 18.7331L30.7753 17.4522L32.2812 17.4288L31.5556 16.1101L32.2812 14.7993L30.783 14.768L30.0099 13.4796ZM24.3433 22.6259L25.3105 24.2379L27.1872 24.277L26.2779 25.9197L27.177 27.5713L25.3006 27.6006L24.3238 29.2025L23.3565 27.6001L21.4803 27.561L22.3888 25.91L21.4897 24.2682L23.3658 24.2291L24.3433 22.6259ZM35.8123 22.6271L36.7885 24.2379L38.6672 24.277L37.7481 25.9197L38.657 27.5712L36.7791 27.6006L35.8031 29.2013L34.8267 27.6001L32.9588 27.561L33.8671 25.9104L32.958 24.2682L34.8355 24.2291L35.8123 22.6271ZM24.341 23.2882L23.5607 24.5679L22.0618 24.5991L22.7799 25.9104L22.0536 27.2301L23.5524 27.2613L24.3253 28.5417L25.1063 27.2608L26.605 27.2374L25.8869 25.9183L26.6123 24.6078L25.114 24.5766L24.341 23.2882ZM35.8114 23.287L35.0304 24.5679L33.5329 24.5991L34.2586 25.9099L33.5321 27.2301L35.0216 27.2613L35.8031 28.5429L36.5849 27.2608L38.082 27.2374L37.3561 25.9183L38.0893 24.6078L36.593 24.5766L35.8114 23.287Z" fill="#18B637"/>
</g>
<defs>
<clipPath id="clip0_264_7321">
<rect width="60" height="45" fill="white"/>
</clipPath>
</defs>
</svg>
