<svg width="60" height="45" viewBox="0 0 60 45" fill="none" xmlns="http://www.w3.org/2000/svg">
<g clip-path="url(#clip0_264_8939)">
<path fill-rule="evenodd" clip-rule="evenodd" d="M-0.0277477 20.5331H74.5613V38.6869H-0.0365601L-0.0277477 20.5331Z" fill="#F0F0F0"/>
<path fill-rule="evenodd" clip-rule="evenodd" d="M0.025116 0H74.5789V22.6129H0.025116V0ZM0.0515537 34.0074H75.1429V45.12H0.0515537V34.0074Z" fill="#081873"/>
<path fill-rule="evenodd" clip-rule="evenodd" d="M0.0515747 26.6666H74.6053V30.1564H0.0515747V26.6666Z" fill="#DE3929"/>
<path fill-rule="evenodd" clip-rule="evenodd" d="M22.3913 35.1795L22.9729 36.9772H24.8588L23.3254 38.0964L23.907 39.903L22.3913 38.775L20.8579 39.8942L21.4483 38.0876L19.9149 36.9684H21.8096M38.7825 22.0665L39.3729 23.873H41.25L39.7166 24.9834L40.2983 26.79L38.7649 25.6708L37.2315 26.79L37.8131 24.9834L36.2798 23.873H38.1833M18.6195 29.5483L19.2011 31.3548H21.0958L19.5713 32.4828L20.1617 34.2806L18.6283 33.1702L17.0949 34.2806L17.6766 32.4828L16.1432 31.3637H18.0379M38.7825 29.0372L39.3729 30.8349H41.25L39.7166 31.9541L40.2983 33.7518L38.7649 32.6415L37.2315 33.7607L37.8131 31.9541L36.2798 30.8349H38.1833M34.6142 16.5851L35.2046 18.3828H37.1081L35.5748 19.502L36.1564 21.3086L34.623 20.1894L33.0896 21.3086L33.6801 19.502L32.1379 18.3828H34.0414M28.3573 14.3996L28.9478 16.2062H30.8424L29.3091 17.3165L29.8907 19.1231L28.3573 18.0127L26.8239 19.1231L27.4144 17.3165L25.881 16.2062H27.7669M22.0828 16.4617L22.6733 18.2683H24.5679L23.0346 19.3787L23.625 21.1852L22.0828 20.066L20.5494 21.1852L21.1399 19.3787L19.6065 18.2683H21.51M18.4433 22.0753L19.0249 23.8818H20.9284L19.3862 24.9922L19.9766 26.7988L18.4433 25.6796L16.9099 26.7988L17.4915 24.9922L15.9581 23.8818H17.8528M28.3573 37.0477L28.9478 38.8543H30.8424L29.3091 39.9647L29.8995 41.7712L28.3573 40.652L26.8239 41.7712L27.4144 39.9647L25.881 38.8543H27.7669M35.0108 35.1795L35.5924 36.9772H37.4871L35.9625 38.0964L36.5529 39.903L35.0196 38.7838L33.4774 39.903L34.0678 38.0964L32.5344 36.9772H34.4291" fill="#FFCE08"/>
</g>
<defs>
<clipPath id="clip0_264_8939">
<rect width="60" height="45" fill="white"/>
</clipPath>
</defs>
</svg>
