<svg width="60" height="45" viewBox="0 0 60 45" fill="none" xmlns="http://www.w3.org/2000/svg">
<g clip-path="url(#clip0_264_19645)">
<path d="M0 0H60V45H0V0Z" fill="#032EA1"/>
<path d="M0 11.25H60V33.75H0V11.25Z" fill="#E00025"/>
<path d="M23.6626 21.2063H36.4651V26.1338H23.6626V21.2063Z" fill="#F0F0F0"/>
<path fill-rule="evenodd" clip-rule="evenodd" d="M23.6063 21.2063L23.6626 21.15H36.4651L36.5213 21.2063V26.1338L36.4651 26.19H23.6626L23.6063 26.1338V21.2063ZM23.7188 21.2625V26.0775H36.4088V21.2625H23.7188Z" fill="black"/>
<path d="M35.8126 23.9175H36.2063V25.7738H35.8126V23.9175ZM23.6626 23.0063H36.4651V23.5688H23.6626V23.0063ZM23.6626 22.2188H36.4651V22.7363H23.6626V22.2188Z" fill="#F0F0F0"/>
<path fill-rule="evenodd" clip-rule="evenodd" d="M23.6063 22.2188L23.6626 22.1625H36.4651L36.5213 22.2188V22.7363L36.4651 22.7925H23.6626L23.6063 22.7363V22.2188ZM23.7188 22.275V22.68H36.4088V22.275H23.7188ZM23.6063 23.0063L23.6626 22.95H36.4651L36.5213 23.0063V23.5688L36.4651 23.625H23.6626L23.6063 23.5688V23.0063ZM23.7188 23.0625V23.5125H36.4088V23.0625H23.7188ZM35.7563 23.9175L35.8126 23.8613H36.2063L36.2626 23.9175V25.7738L36.2063 25.83H35.8126L35.7563 25.7738V23.9175ZM35.8688 23.9738V25.7175H36.1501V23.9738H35.8688Z" fill="black"/>
<path d="M23.6626 21.4538H36.4651V21.9375H23.6626V21.4538Z" fill="#F0F0F0"/>
<path fill-rule="evenodd" clip-rule="evenodd" d="M23.6119 21.4538L23.6626 21.4031H36.4651L36.5157 21.4538V21.9375L36.4651 21.9881H23.6626L23.6119 21.9375V21.4538ZM23.7132 21.5044V21.8869H36.4144V21.5044H23.7132Z" fill="black"/>
<path d="M27.0375 23.9175H27.4425V25.7738H27.0375V23.9175ZM32.55 23.9175H32.955V25.7738H32.55V23.9175ZM23.775 23.9175H24.1688V25.7738H23.775V23.9175ZM24.5625 23.9175H24.9563V25.7738H24.5625V23.9175ZM25.4063 23.9175H25.8V25.7738H25.4063V23.9175ZM26.25 23.9175H26.6438V25.7738H26.25V23.9175ZM33.315 23.9175H33.72V25.7738H33.315V23.9175ZM34.1588 23.9175H34.5638V25.7738H34.1588V23.9175ZM35.0025 23.9175H35.4075V25.7738H35.0025V23.9175Z" fill="#F0F0F0"/>
<path fill-rule="evenodd" clip-rule="evenodd" d="M23.7188 23.9175L23.775 23.8613H24.1688L24.225 23.9175V25.7738L24.1688 25.83H23.775L23.7188 25.7738V23.9175ZM23.8313 23.9738V25.7175H24.1125V23.9738H23.8313ZM24.5063 23.9175L24.5625 23.8613H24.9563L25.0125 23.9175V25.7738L24.9563 25.83H24.5625L24.5063 25.7738V23.9175ZM24.6188 23.9738V25.7175H24.9V23.9738H24.6188ZM25.35 23.9175L25.4063 23.8613H25.8L25.8563 23.9175V25.7738L25.8 25.83H25.4063L25.35 25.7738V23.9175ZM25.4625 23.9738V25.7175H25.7438V23.9738H25.4625ZM26.1938 23.9175L26.25 23.8613H26.6438L26.7 23.9175V25.7738L26.6438 25.83H26.25L26.1938 25.7738V23.9175ZM26.3063 23.9738V25.7175H26.5875V23.9738H26.3063ZM26.9812 23.9175L27.0375 23.8613H27.4425L27.4988 23.9175V25.7738L27.4425 25.83H27.0375L26.9812 25.7738V23.9175ZM27.0938 23.9738V25.7175H27.3863V23.9738H27.0938ZM32.4937 23.9175L32.55 23.8613H32.955L33.0113 23.9175V25.7738L32.955 25.83H32.55L32.4937 25.7738V23.9175ZM32.6063 23.9738V25.7175H32.8988V23.9738H32.6063ZM33.2588 23.9175L33.315 23.8613H33.72L33.7762 23.9175V25.7738L33.72 25.83H33.315L33.2588 25.7738V23.9175ZM33.3713 23.9738V25.7175H33.6637V23.9738H33.3713ZM34.1025 23.9175L34.1588 23.8613H34.5637L34.62 23.9175V25.7738L34.5637 25.83H34.1588L34.1025 25.7738V23.9175ZM34.215 23.9738V25.7175H34.5075V23.9738H34.215ZM34.9463 23.9175L35.0025 23.8613H35.4075L35.4637 23.9175V25.7738L35.4075 25.83H35.0025L34.9463 25.7738V23.9175ZM35.0588 23.9738V25.7175H35.3512V23.9738H35.0588Z" fill="black"/>
<path d="M18.6562 26.3813C18.8915 26.2532 19.0687 26.0398 19.1513 25.785H40.875C40.9576 26.0398 41.1348 26.2532 41.37 26.3813H18.6562Z" fill="#F0F0F0"/>
<path fill-rule="evenodd" clip-rule="evenodd" d="M19.1104 25.7288H40.9159L40.9285 25.7677C41.0067 26.0088 41.1743 26.2107 41.3969 26.3319L41.37 26.4375H18.6563L18.6294 26.3319C18.852 26.2107 19.0196 26.0088 19.0978 25.7677L19.1104 25.7288ZM19.1914 25.8413C19.1214 26.0324 19.0003 26.1995 18.8426 26.325H41.1838C41.026 26.1995 40.9049 26.0324 40.835 25.8413H19.1914Z" fill="black"/>
<path d="M29.7375 13.7025C29.7375 13.7025 29.7263 13.2413 29.9963 13.23C30.255 13.23 30.2438 13.7025 30.2438 13.7025H29.7375ZM28.3313 19.8338V19.215C28.3313 18.9 28.0163 18.8775 28.0163 18.6525C28.0163 18.6525 27.9713 18.315 28.0613 18.1575C28.185 18.6075 28.3988 18.5288 28.3988 18.3375C28.3988 18.18 28.2863 18.0225 28.0275 17.6288C27.9375 17.505 27.9938 17.1113 28.1063 16.965C28.1513 17.3025 28.2075 17.4713 28.3538 17.4713C28.4438 17.4713 28.5113 17.415 28.5113 17.2463C28.5113 17.0213 28.365 16.9088 28.2863 16.7063C28.2475 16.6055 28.2385 16.4957 28.2605 16.3899C28.2824 16.2842 28.3343 16.187 28.41 16.11C28.4663 16.4475 28.455 16.5825 28.6013 16.5825C28.905 16.4813 28.6013 16.0425 28.5338 15.93C28.4663 15.8063 28.6463 15.5475 28.6463 15.5475C28.7363 15.8513 28.7588 15.8738 28.8713 15.84C29.0063 15.8063 28.9838 15.615 28.8263 15.4575C28.725 15.345 28.7363 15.1988 28.8488 15.0863C28.9613 15.3 29.0963 15.2888 29.1075 15.1538L29.0175 14.6588H30.975L30.8738 15.1425C30.8513 15.2775 31.0313 15.3113 31.1438 15.0863C31.2563 15.1988 31.2675 15.3563 31.1663 15.4575C31.0088 15.615 30.9863 15.8063 31.1213 15.84C31.2338 15.8738 31.2563 15.84 31.3463 15.5475C31.3463 15.5475 31.515 15.7163 31.4588 15.93C31.3913 16.0425 31.0875 16.4925 31.3913 16.5825C31.5375 16.5825 31.5263 16.4475 31.5825 16.11C31.6563 16.1882 31.7061 16.286 31.7261 16.3917C31.746 16.4973 31.7352 16.6065 31.695 16.7063C31.6275 16.9088 31.47 17.0213 31.47 17.2463C31.47 17.415 31.5488 17.4713 31.6388 17.4713C31.785 17.4713 31.8413 17.3138 31.8863 16.965C31.9988 17.1113 32.055 17.505 31.965 17.64C31.7063 18.0225 31.5825 18.18 31.5825 18.3375C31.5825 18.5288 31.8075 18.6075 31.92 18.1575C32.0213 18.315 31.9763 18.6525 31.9763 18.6525C31.9763 18.8775 31.6725 18.9 31.6613 19.215V19.8338H28.3313ZM29.1413 14.6588L29.0963 14.31H30.885L30.84 14.6588H29.1413ZM29.2538 14.2988L29.2313 14.0175H30.75L30.7163 14.2988H29.2538ZM29.5125 14.0063L29.4788 13.7138H30.4913L30.48 14.0063H29.5125ZM33.225 26.3813C33 26.3025 32.6625 26.055 32.6625 25.8188V23.085L32.955 22.7025H27.0375L27.3188 23.085V25.8188C27.3188 26.055 27.0938 26.3025 26.8688 26.3813H33.225Z" fill="#F0F0F0"/>
<path d="M28.0725 23.9175H28.4775V25.7738H28.0725V23.9175ZM31.4925 23.9175H31.8975V25.7738H31.4925V23.9175Z" fill="#F0F0F0"/>
<path fill-rule="evenodd" clip-rule="evenodd" d="M28.0162 23.9175L28.0725 23.8613H28.4775L28.5337 23.9175V25.7738L28.4775 25.83H28.0725L28.0162 25.7738V23.9175ZM28.1287 23.9738V25.7175H28.4212V23.9738H28.1287ZM31.4362 23.9175L31.4925 23.8613H31.8975L31.9537 23.9175V25.7738L31.8975 25.83H31.4925L31.4362 25.7738V23.9175ZM31.5487 23.9738V25.7175H31.8412V23.9738H31.5487Z" fill="black"/>
<path d="M26.9251 19.5975V22.7025H33.0001V19.5975C32.9299 19.6231 32.8668 19.6651 32.8159 19.7198C32.7651 19.7746 32.7279 19.8406 32.7076 19.9125V21.24H27.2288V19.9125C27.2288 19.9125 27.1613 19.6875 26.9138 19.5975H26.9251Z" fill="#F0F0F0"/>
<path fill-rule="evenodd" clip-rule="evenodd" d="M33.0563 19.5171V22.7588H26.8688V19.5975H26.9039L26.9138 19.5413H26.9813V19.5646C27.0909 19.6157 27.1637 19.691 27.21 19.7563C27.2363 19.7934 27.2542 19.8276 27.2656 19.8527C27.2713 19.8653 27.2754 19.8758 27.2782 19.8832C27.2796 19.887 27.2806 19.89 27.2813 19.8922L27.2822 19.8949L27.2825 19.8958L27.2826 19.8961L27.2826 19.8962C27.2826 19.8963 27.2827 19.8964 27.2288 19.9125L27.2827 19.8964L27.285 19.9043V21.1838H32.6513V19.9047L32.6534 19.8972C32.6762 19.8167 32.7178 19.7428 32.7747 19.6816C32.8316 19.6203 32.9022 19.5734 32.9807 19.5447L33.0563 19.5171ZM27.1725 19.9219C27.1706 19.9167 27.1675 19.9089 27.1631 19.8992C27.1541 19.8793 27.1397 19.8516 27.1182 19.8213C27.0878 19.7784 27.0437 19.7307 26.9813 19.6922V22.6463H32.9438V19.687C32.9119 19.7066 32.8827 19.7305 32.8571 19.7581C32.814 19.8045 32.7821 19.8601 32.7638 19.9206V21.2963H27.1725V19.9219Z" fill="black"/>
<path d="M32.1675 26.3813C31.965 26.3025 31.5375 26.055 31.5375 25.8188V22.7588C31.5825 22.59 31.8075 22.4888 31.9537 22.3763H27.9375C28.1287 22.4888 28.3425 22.5675 28.4212 22.7588V25.8188C28.4212 26.055 28.0837 26.3025 27.8812 26.3813H32.1675Z" fill="#F0F0F0"/>
<path fill-rule="evenodd" clip-rule="evenodd" d="M27.731 22.32H32.1192L31.9881 22.4208C31.9496 22.4504 31.9064 22.479 31.8643 22.5067L31.8634 22.5073C31.821 22.5353 31.7797 22.5626 31.7416 22.5913C31.6659 22.6484 31.6129 22.7042 31.5938 22.7666V25.8188C31.5938 25.8609 31.6131 25.9089 31.6525 25.9615C31.6916 26.0136 31.7471 26.0656 31.8108 26.1144C31.9384 26.2121 32.0911 26.2912 32.1879 26.3288L32.1675 26.4375H27.8813L27.8609 26.3288C27.9552 26.2921 28.0843 26.2145 28.1891 26.1177C28.2962 26.0188 28.365 25.9121 28.365 25.8188V22.7703C28.3308 22.6945 28.27 22.6374 28.1906 22.5849C28.1491 22.5575 28.1038 22.5321 28.0558 22.506C28.0462 22.5008 28.0364 22.4955 28.0265 22.4901C27.9879 22.4693 27.9479 22.4476 27.909 22.4247L27.731 22.32ZM28.1555 22.4325C28.1886 22.4511 28.2213 22.4704 28.2526 22.4911C28.3442 22.5516 28.4278 22.6268 28.4733 22.7373L28.4775 22.7476V25.8188C28.4775 25.9616 28.3776 26.0968 28.2654 26.2004C28.2155 26.2464 28.1607 26.2886 28.1057 26.325H31.9254C31.864 26.2895 31.8009 26.2485 31.7424 26.2037C31.6739 26.1513 31.6099 26.0922 31.5625 26.029C31.5154 25.9662 31.4813 25.8947 31.4813 25.8188V22.7514L31.4832 22.7443C31.5108 22.6406 31.5918 22.5634 31.6738 22.5015C31.7058 22.4774 31.7396 22.4544 31.7726 22.4325H28.1555Z" fill="black"/>
<path d="M32.7075 22.41V20.205H32.1563V19.9913H27.7913V20.2163H27.2288V22.41H32.7075ZM31.3125 26.3813C31.11 26.3025 30.8288 26.055 30.8288 25.8188V23.2088L30.9863 22.9725H28.995L29.1638 23.1975V25.8188C29.1638 26.055 28.8713 26.3025 28.68 26.3813H31.3125Z" fill="#F0F0F0"/>
<path fill-rule="evenodd" clip-rule="evenodd" d="M27.735 19.935H32.2125V20.1487H32.7637V22.4662H27.1725V20.16H27.735V19.935ZM27.8475 20.0475V20.2725H27.285V22.3537H32.6512V20.2612H32.1V20.0475H27.8475ZM28.8825 22.9162H31.0913L30.885 23.2258V25.8187C30.885 25.9158 30.9439 26.0234 31.0356 26.1204C31.1262 26.2164 31.2403 26.2928 31.3329 26.3288L31.3125 26.4375H28.68L28.6586 26.3292C28.7462 26.2932 28.8607 26.2164 28.953 26.1201C29.0465 26.0226 29.1075 25.9151 29.1075 25.8187V23.2162L28.8825 22.9162ZM29.1075 23.0287L29.22 23.1787V25.8187C29.22 25.9586 29.1347 26.093 29.0342 26.198C28.9892 26.2449 28.9393 26.2879 28.8887 26.325H31.0989C31.0478 26.2878 30.9982 26.2447 30.9538 26.1977C30.8542 26.0922 30.7725 25.958 30.7725 25.8187V23.1917L30.8811 23.0287H29.1075Z" fill="black"/>
<path d="M29.4788 22.9725H30.4913V26.3813H29.4788V22.9725Z" fill="#F0F0F0"/>
<path fill-rule="evenodd" clip-rule="evenodd" d="M29.4225 22.9163H30.5475V26.4375H29.4225V22.9163ZM29.535 23.0288V26.325H30.435V23.0288H29.535Z" fill="black"/>
<path d="M31.02 22.2188C31.02 21.9938 31.6725 21.9825 32.01 21.7913H27.96C28.2975 21.9825 28.9387 21.9938 28.9387 22.2188L29.0737 22.6575L30.7612 22.725L31.02 22.2188Z" fill="#F0F0F0"/>
<path fill-rule="evenodd" clip-rule="evenodd" d="M27.9323 21.8402L27.96 21.735H32.01L32.0377 21.8402C31.9475 21.8913 31.8384 21.9293 31.7286 21.9611C31.6598 21.981 31.588 21.9993 31.5192 22.0167C31.479 22.0269 31.4398 22.0369 31.4029 22.0467C31.3001 22.0742 31.2138 22.1013 31.1538 22.1335C31.0922 22.1666 31.0762 22.195 31.0762 22.2188L31.0701 22.2444L30.8113 22.7506L30.759 22.7812L29.0715 22.7137L29.02 22.6741L28.885 22.2353L28.8825 22.2188C28.8825 22.1945 28.8666 22.1662 28.8063 22.1333C28.7474 22.1012 28.6626 22.0741 28.5612 22.0467C28.5244 22.0367 28.4853 22.0266 28.445 22.0163C28.3775 21.9989 28.307 21.9808 28.2395 21.9611C28.1307 21.9293 28.0223 21.8913 27.9323 21.8402ZM28.2522 21.8475C28.2584 21.8494 28.2648 21.8513 28.2711 21.8531C28.3374 21.8725 28.4039 21.8896 28.4696 21.9064C28.5103 21.9169 28.5507 21.9273 28.5906 21.9381C28.6917 21.9654 28.7883 21.9953 28.8602 22.0346C28.9282 22.0717 28.9904 22.1265 28.9947 22.2095L29.1158 22.6029L30.7275 22.6674L30.9644 22.204C30.9712 22.1236 31.0334 22.0705 31.1006 22.0344C31.1735 21.9953 31.2714 21.9654 31.3739 21.938C31.4137 21.9274 31.4542 21.9171 31.4949 21.9068C31.562 21.8898 31.6298 21.8726 31.6973 21.8531C31.7036 21.8512 31.7099 21.8494 31.7162 21.8475H28.2522Z" fill="black"/>
<path d="M31.8076 19.8338C31.8076 19.2825 31.8301 19.08 31.9988 19.08V20.8125C31.5826 20.97 31.2901 21.4875 31.2901 21.4875H28.6801C28.6801 21.4875 28.3876 20.97 27.9713 20.8125V19.0688C28.1738 19.0688 28.1738 19.2938 28.1738 19.8225L31.8076 19.8338ZM31.9988 19.6088C31.9988 18.9788 32.5501 18.9113 32.5501 18.9113V19.4738C32.3363 19.4625 32.2351 19.6538 32.2351 19.9238C32.2351 20.205 32.4038 20.205 32.4038 20.205V21.8025H31.9988V19.6088Z" fill="#F0F0F0"/>
<path fill-rule="evenodd" clip-rule="evenodd" d="M32.6063 18.8477V19.533L32.5471 19.5299C32.461 19.5254 32.401 19.56 32.3596 19.6239C32.3158 19.6913 32.2913 19.7943 32.2913 19.9237C32.2913 20.0527 32.3295 20.105 32.3554 20.1266C32.3693 20.1382 32.3829 20.1437 32.3925 20.1464C32.3973 20.1477 32.401 20.1483 32.4032 20.1486C32.4039 20.1487 32.4044 20.1487 32.4047 20.1487H32.46V21.8587H31.9425V20.8988C31.7798 20.981 31.6381 21.1182 31.5314 21.2452C31.4705 21.3178 31.4221 21.3857 31.3891 21.4353C31.3726 21.4601 31.3599 21.4803 31.3515 21.4942C31.3472 21.5012 31.344 21.5065 31.342 21.5101L31.3396 21.5141L31.3391 21.515L31.339 21.5152L31.3229 21.5437H28.6472L28.6311 21.5152L28.631 21.515L28.6304 21.5141L28.6281 21.5101C28.626 21.5065 28.6229 21.5012 28.6186 21.4942C28.6102 21.4803 28.5975 21.4601 28.581 21.4353C28.548 21.3857 28.4996 21.3178 28.4387 21.2452C28.3157 21.0988 28.1461 20.9388 27.9514 20.8651L27.915 20.8514V19.0125H27.9713C28.0332 19.0125 28.0872 19.0302 28.1287 19.073C28.1681 19.1136 28.19 19.1706 28.2036 19.2359C28.2284 19.356 28.2299 19.533 28.23 19.7664L31.7514 19.7773C31.7522 19.5328 31.7586 19.3558 31.785 19.2379C31.7992 19.1742 31.8208 19.1201 31.8567 19.0818C31.8949 19.0409 31.9439 19.0237 31.9988 19.0237H32.055V19.1736C32.1083 19.0879 32.175 19.0243 32.2423 18.9775C32.3171 18.9257 32.3915 18.8954 32.4471 18.878C32.475 18.8692 32.4984 18.8637 32.5151 18.8603C32.5235 18.8586 32.5302 18.8574 32.5349 18.8566C32.5373 18.8562 32.5392 18.856 32.5406 18.8558L32.5423 18.8555L32.5429 18.8555L32.5431 18.8554C32.5431 18.8554 32.5432 18.8554 32.55 18.9112L32.5432 18.8554L32.6063 18.8477ZM32.4938 18.9814C32.4896 18.9826 32.4852 18.9839 32.4807 18.9853C32.433 19.0003 32.3696 19.0262 32.3065 19.07C32.1827 19.1559 32.055 19.3136 32.055 19.6087V21.7462H32.3475V20.2501C32.3282 20.2431 32.3057 20.2316 32.2834 20.2131C32.225 20.1643 32.1788 20.076 32.1788 19.9237C32.1788 19.7832 32.2049 19.6555 32.2652 19.5626C32.3177 19.4817 32.3949 19.4297 32.4938 19.4191V18.9814ZM31.9425 19.1549C31.9412 19.1561 31.94 19.1574 31.9388 19.1587C31.923 19.1755 31.9073 19.2066 31.8948 19.2624C31.8697 19.3747 31.8638 19.5564 31.8638 19.8337V19.8902L28.1175 19.8786V19.8225C28.1175 19.555 28.1172 19.374 28.0934 19.2587C28.0816 19.2018 28.0656 19.1695 28.048 19.1513C28.0422 19.1454 28.0356 19.1403 28.0275 19.1361V20.7746C28.233 20.8632 28.4045 21.0296 28.5248 21.1729C28.589 21.2494 28.6399 21.3207 28.6747 21.373C28.6904 21.3967 28.703 21.4166 28.712 21.4312H31.2581C31.2671 21.4166 31.2796 21.3967 31.2954 21.373C31.3302 21.3207 31.381 21.2494 31.4452 21.1729C31.5655 21.0296 31.7371 20.8632 31.9425 20.7746V19.1549Z" fill="black"/>
<path d="M27.9713 19.6088C27.9713 18.9788 27.42 18.9113 27.42 18.9113V19.4738C27.6338 19.4625 27.735 19.6538 27.735 19.9238C27.735 20.205 27.5663 20.205 27.5663 20.205V21.8025H27.9713V19.6088Z" fill="#F0F0F0"/>
<path fill-rule="evenodd" clip-rule="evenodd" d="M27.4269 18.8554L27.42 18.9112C27.4269 18.8554 27.4268 18.8554 27.4269 18.8554L27.427 18.8554L27.4272 18.8555L27.4278 18.8555L27.4294 18.8558C27.4308 18.856 27.4327 18.8562 27.4351 18.8566C27.4399 18.8574 27.4466 18.8586 27.455 18.8603C27.4717 18.8637 27.4951 18.8692 27.523 18.878C27.5786 18.8954 27.653 18.9257 27.7277 18.9775C27.8795 19.0829 28.0275 19.2739 28.0275 19.6087V21.8587H27.51V20.1487H27.5653C27.5656 20.1487 27.5661 20.1487 27.5669 20.1486C27.569 20.1483 27.5728 20.1477 27.5776 20.1464C27.5872 20.1437 27.6007 20.1382 27.6146 20.1266C27.6406 20.105 27.6788 20.0527 27.6788 19.9237C27.6788 19.7943 27.6543 19.6913 27.6105 19.6239C27.569 19.56 27.5091 19.5254 27.423 19.5299L27.3638 19.533V18.8477L27.4269 18.8554ZM27.6225 20.2501V21.7462H27.915V19.6087C27.915 19.3136 27.7874 19.1559 27.6636 19.07C27.6005 19.0262 27.5371 19.0003 27.4894 18.9853C27.4848 18.9839 27.4805 18.9826 27.4763 18.9814V19.4191C27.5752 19.4297 27.6523 19.4817 27.7049 19.5626C27.7652 19.6555 27.7913 19.7832 27.7913 19.9237C27.7913 20.076 27.7451 20.1643 27.6867 20.2131C27.6644 20.2316 27.6418 20.2431 27.6225 20.2501Z" fill="black"/>
<path fill-rule="evenodd" clip-rule="evenodd" d="M30.975 15.3H29.04V15.21H30.975V15.3ZM31.1775 15.9075H28.815V15.8175H31.1775V15.9075ZM31.3913 16.6388H28.59V16.5488H31.3913V16.6388ZM31.6725 17.5275H28.3538V17.4375H31.6725V17.5275ZM31.695 18.54H28.275V18.45H31.695V18.54Z" fill="black"/>
<path fill-rule="evenodd" clip-rule="evenodd" d="M28.9162 21.8813H27.24V21.7688H32.7075V21.8813H31.0537V22.6238H28.9162V21.8813ZM29.0287 21.8813V22.5113H30.9412V21.8813H29.0287Z" fill="black"/>
<path d="M28.725 20.16C29.0625 20.565 29.0175 21.2513 29.0175 21.6563H30.975C30.975 21.2513 30.93 20.565 31.2675 20.16H28.725ZM29.8162 15.5475L29.5462 15.4013V15.0075C29.6587 15.0413 29.7712 15.0525 29.7937 15.2325C29.8275 14.9738 29.9062 14.9963 30.0075 14.895C30.12 14.9963 30.1762 14.9738 30.2212 15.2325C30.2212 15.0525 30.3562 15.0413 30.4575 15.0075V15.4013L30.1987 15.5363L29.8162 15.5475Z" fill="#F0F0F0"/>
<path fill-rule="evenodd" clip-rule="evenodd" d="M30.0054 14.8175L30.0451 14.8532C30.0678 14.8737 30.0878 14.8884 30.1077 14.9031C30.1103 14.905 30.1129 14.907 30.1155 14.9089C30.1375 14.9252 30.161 14.9432 30.1823 14.9681C30.2014 14.9903 30.2174 15.0164 30.2312 15.0496C30.2436 15.0372 30.2571 15.0267 30.2712 15.0177C30.3004 14.9991 30.3321 14.9872 30.3607 14.978C30.3739 14.9738 30.3871 14.97 30.3994 14.9664L30.4025 14.9655C30.416 14.9616 30.4282 14.958 30.4397 14.9542L30.5137 14.9295V15.4354L30.2133 15.5921L29.8027 15.6042L29.49 15.4348V14.9319L29.5624 14.9536C29.5716 14.9564 29.5825 14.9595 29.594 14.9627C29.6116 14.9676 29.6305 14.9729 29.6464 14.9781C29.6753 14.9874 29.706 14.9994 29.7346 15.0181C29.7506 15.0287 29.7653 15.0409 29.7784 15.055C29.7936 15.0184 29.812 14.9902 29.834 14.9664C29.8557 14.9431 29.8796 14.9257 29.9004 14.9105C29.9012 14.9099 29.9021 14.9093 29.9029 14.9086C29.9249 14.8926 29.9457 14.8772 29.9677 14.8552L30.0054 14.8175ZM30.0088 14.9694C29.9945 14.981 29.9812 14.9908 29.9693 14.9995C29.9463 15.0163 29.9305 15.0279 29.9165 15.043C29.8914 15.07 29.8657 15.1156 29.8495 15.2398L29.7379 15.2395C29.7283 15.1629 29.7017 15.1311 29.6728 15.1122C29.6564 15.1014 29.6365 15.0931 29.6119 15.0851C29.6087 15.0841 29.6056 15.0831 29.6025 15.0822V15.3678L29.8297 15.4908L30.1841 15.4804L30.4012 15.3672V15.0832C30.3991 15.0839 30.397 15.0845 30.395 15.0852C30.3697 15.0933 30.3487 15.1017 30.3316 15.1126C30.3151 15.1231 30.3025 15.1357 30.2936 15.1525C30.2845 15.1696 30.2775 15.1946 30.2775 15.2325L30.1658 15.2422C30.1437 15.1154 30.1205 15.0688 30.0969 15.0413C30.0845 15.0268 30.0701 15.0153 30.0485 14.9993C30.046 14.9975 30.0436 14.9956 30.041 14.9937C30.0312 14.9865 30.0204 14.9786 30.0088 14.9694ZM28.6049 20.1038H31.3876L31.3107 20.196C31.1523 20.386 31.081 20.6458 31.0505 20.9145C31.0262 21.129 31.0284 21.3429 31.0303 21.525C31.0308 21.5709 31.0312 21.6149 31.0312 21.6563V21.7125H28.9612V21.6563C28.9612 21.6149 28.9617 21.5709 28.9621 21.525C28.964 21.3429 28.9662 21.129 28.9419 20.9145C28.9114 20.6458 28.8401 20.386 28.6817 20.196L28.6049 20.1038ZM28.8362 20.2163C28.9671 20.4172 29.0266 20.6628 29.0537 20.9018C29.0789 21.124 29.0765 21.3469 29.0746 21.5293C29.0744 21.5536 29.0741 21.5772 29.0739 21.6H30.9185C30.9183 21.5772 30.918 21.5536 30.9178 21.5293C30.9159 21.3469 30.9136 21.124 30.9388 20.9018C30.9659 20.6628 31.0254 20.4172 31.1562 20.2163H28.8362Z" fill="black"/>
<path d="M29.7937 16.1888L29.3438 15.8738V15.525C29.5125 15.5588 29.6812 15.5813 29.7037 15.7725C29.7487 15.4913 29.85 15.3563 30.0075 15.2438C30.1537 15.3563 30.255 15.4913 30.3113 15.7725C30.3225 15.5813 30.5025 15.5588 30.6488 15.525V15.885L30.21 16.1888H29.7937Z" fill="#F0F0F0"/>
<path fill-rule="evenodd" clip-rule="evenodd" d="M30.0087 15.1737L30.0418 15.1992C30.1189 15.2585 30.186 15.3252 30.2411 15.4155C30.2734 15.4684 30.301 15.5285 30.3241 15.5985C30.3475 15.5737 30.3748 15.5547 30.4033 15.5398C30.4646 15.5079 30.5393 15.4915 30.6018 15.4778C30.6137 15.4752 30.6252 15.4727 30.6361 15.4702L30.705 15.4543V15.9145L30.2275 16.245H29.776L29.2875 15.903V15.4564L29.3548 15.4698C29.3637 15.4716 29.3727 15.4734 29.3819 15.4752C29.4557 15.4896 29.5376 15.5056 29.6042 15.5396C29.6336 15.5546 29.6614 15.5737 29.6853 15.5986C29.7064 15.5287 29.733 15.4686 29.7654 15.4155C29.821 15.3244 29.8917 15.2573 29.9748 15.198L30.0087 15.1737ZM29.8614 15.4741C29.8156 15.5492 29.781 15.6458 29.7593 15.7814L29.6479 15.7791C29.6432 15.7396 29.6315 15.7118 29.6163 15.6911C29.6011 15.6703 29.5802 15.6537 29.553 15.6398C29.5108 15.6183 29.4594 15.6057 29.4 15.5936V15.8445L29.8115 16.1325H30.1924L30.5925 15.8555V15.5952C30.5413 15.6069 30.4947 15.619 30.4554 15.6396C30.4287 15.6534 30.4085 15.6699 30.3942 15.6902C30.3801 15.7102 30.3697 15.7371 30.3674 15.7758L30.2561 15.7835C30.2289 15.6476 30.1914 15.5501 30.1451 15.4741C30.1065 15.4109 30.0606 15.3607 30.0062 15.3149C29.9476 15.361 29.8999 15.4111 29.8614 15.4741Z" fill="black"/>
<path d="M29.76 17.19L29.2537 16.74V16.2113C29.4337 16.2563 29.6362 16.2788 29.6587 16.56C29.715 16.1663 29.8275 15.9525 29.9962 15.795C30.1762 15.9525 30.2887 16.1663 30.3562 16.56C30.3787 16.2788 30.5812 16.2563 30.7612 16.2113V16.74L30.2437 17.19H29.76ZM30.705 17.7863L30.255 18.4275H29.7262L29.265 17.7863H30.705ZM28.995 18.855C29.22 18.9788 29.31 19.2375 29.3325 19.71H30.6375C30.66 19.2375 30.75 18.9788 30.975 18.855H28.995Z" fill="#F0F0F0"/>
<path fill-rule="evenodd" clip-rule="evenodd" d="M29.995 15.7192L30.0333 15.7527C30.1905 15.8903 30.297 16.0668 30.3683 16.3443C30.3959 16.3044 30.4306 16.2734 30.4704 16.249C30.5419 16.2053 30.6293 16.1847 30.705 16.1669C30.7197 16.1635 30.734 16.1601 30.7476 16.1567L30.8175 16.1392V16.7656L30.2648 17.2463H29.7386L29.1975 16.7653V16.1392L29.2674 16.1567C29.281 16.1601 29.2953 16.1635 29.31 16.1669C29.3857 16.1847 29.4731 16.2053 29.5446 16.249C29.5826 16.2722 29.6158 16.3015 29.6428 16.3387C29.7077 16.0646 29.8118 15.8902 29.9579 15.7539L29.995 15.7192ZM29.9975 15.8728C29.8607 16.0161 29.765 16.2139 29.7144 16.568L29.6027 16.5645C29.5927 16.4402 29.5452 16.3813 29.486 16.345C29.4362 16.3146 29.3771 16.2988 29.31 16.2827V16.7148L29.7814 17.1338H30.2227L30.705 16.7144V16.2827C30.6379 16.2988 30.5788 16.3146 30.529 16.345C30.4698 16.3813 30.4223 16.4402 30.4123 16.5645L30.3008 16.5695C30.2398 16.2136 30.1429 16.016 29.9975 15.8728ZM29.1553 17.73H30.8132L30.2842 18.4838H29.6974L29.1553 17.73ZM29.3748 17.8425L29.7551 18.3713H30.2258L30.5968 17.8425H29.3748ZM28.9679 18.9043L28.995 18.7988H30.975L31.0021 18.9043C30.8061 19.0121 30.7162 19.2406 30.6937 19.7127L30.6911 19.7663H29.2789L29.2763 19.7127C29.2538 19.2406 29.1639 19.0121 28.9679 18.9043ZM29.159 18.9113C29.303 19.0644 29.3648 19.3069 29.3858 19.6538H30.5842C30.6053 19.3069 30.667 19.0644 30.8111 18.9113H29.159Z" fill="black"/>
<path d="M30.9975 17.775V17.145C30.9007 17.1656 30.8106 17.2105 30.7359 17.2755C30.6611 17.3404 30.604 17.4232 30.57 17.5162C30.57 17.2912 30.2888 16.8075 29.985 16.56C29.6813 16.83 29.3888 17.28 29.4 17.505C29.3438 17.3362 29.1975 17.2012 28.9725 17.145V17.7862L30.9975 17.775Z" fill="#F0F0F0"/>
<path fill-rule="evenodd" clip-rule="evenodd" d="M29.9476 16.518L30.0205 16.5164C30.1788 16.6454 30.329 16.8337 30.4396 17.0176C30.4951 17.1098 30.5413 17.202 30.5738 17.2865C30.5818 17.3072 30.589 17.3276 30.5953 17.3477C30.625 17.3056 30.6598 17.267 30.699 17.233C30.7809 17.1618 30.8796 17.1126 30.9858 17.09L31.0538 17.145V17.775L30.9978 17.8313L28.9728 17.8425L28.9163 17.7863V17.145L28.9862 17.0905C29.1563 17.133 29.2878 17.2189 29.3726 17.3327C29.3783 17.3152 29.3846 17.2976 29.3916 17.2799C29.4238 17.1977 29.4706 17.1088 29.5268 17.0194C29.639 16.841 29.7914 16.6568 29.9476 16.518ZM29.9864 16.635C29.8513 16.7618 29.7204 16.9229 29.622 17.0793C29.5685 17.1644 29.5253 17.247 29.4963 17.3209C29.467 17.3959 29.454 17.4575 29.4562 17.5022L29.3466 17.5228C29.3031 17.3923 29.1972 17.281 29.0288 17.2207V17.7297L30.9413 17.7191V17.2194C30.8796 17.2414 30.8225 17.2748 30.7727 17.318C30.7052 17.3766 30.6536 17.4515 30.6228 17.5356L30.5138 17.5163C30.5138 17.4701 30.4989 17.4051 30.4688 17.3269C30.4391 17.2497 30.396 17.1634 30.3432 17.0756C30.2462 16.9144 30.1188 16.7522 29.9864 16.635Z" fill="black"/>
<path d="M31.0876 18.855V18.225C30.8513 18.2925 30.6938 18.4163 30.6263 18.5963C30.6263 18.3713 30.3226 17.8875 29.9851 17.64C29.6476 17.9213 29.3326 18.36 29.3438 18.5963C29.2876 18.4275 29.1188 18.2925 28.8826 18.225V18.8663L31.0876 18.855Z" fill="#F0F0F0"/>
<path fill-rule="evenodd" clip-rule="evenodd" d="M29.949 17.5968L30.0183 17.5946C30.1938 17.7233 30.3584 17.9116 30.4793 18.0957C30.5398 18.188 30.5901 18.2803 30.6255 18.365C30.6352 18.3884 30.644 18.4115 30.6515 18.4341C30.7445 18.3102 30.8885 18.2234 31.0721 18.1709L31.1438 18.225V18.855L31.0878 18.9112L28.8828 18.9225L28.8263 18.8662V18.225L28.898 18.1709C29.0756 18.2217 29.2232 18.3108 29.3157 18.4289C29.3228 18.4077 29.3309 18.3863 29.34 18.3648C29.375 18.2817 29.426 18.1925 29.4872 18.1032C29.6097 17.9246 29.7763 17.7407 29.949 17.5968ZM29.987 17.7122C29.8344 17.8448 29.6886 18.0084 29.58 18.1668C29.5218 18.2518 29.475 18.3342 29.4436 18.4086C29.4119 18.4838 29.3977 18.5465 29.4 18.5936L29.2904 18.614C29.2475 18.4852 29.1247 18.3715 28.9388 18.3025V18.8097L31.0313 18.799V18.3023C30.8479 18.3693 30.7317 18.4754 30.679 18.616L30.57 18.5962C30.57 18.5509 30.5542 18.4865 30.5216 18.4084C30.4895 18.3314 30.4428 18.2451 30.3852 18.1574C30.2782 17.9943 30.1363 17.83 29.987 17.7122Z" fill="black"/>
<path d="M31.3576 20.1712V19.4287C31.1233 19.5019 30.9209 19.6527 30.7838 19.8562C30.7838 19.4625 30.3338 18.8437 29.9851 18.6525C29.6251 18.855 29.1863 19.485 29.1863 19.8562C29.0457 19.6513 28.8393 19.5005 28.6013 19.4287V20.1712H31.3576Z" fill="#F0F0F0"/>
<path fill-rule="evenodd" clip-rule="evenodd" d="M29.9575 18.6035L30.0121 18.6032C30.1972 18.7047 30.4029 18.915 30.5616 19.1466C30.6856 19.3276 30.7865 19.5297 30.8241 19.7117C30.9614 19.5547 31.1399 19.4378 31.3408 19.3751L31.4138 19.4288V20.1713L31.3575 20.2275H28.6013L28.545 20.1713V19.4288L28.6175 19.3749C28.8228 19.4368 29.0057 19.5546 29.1465 19.7139C29.184 19.5389 29.2823 19.3401 29.404 19.1596C29.5613 18.9266 29.7669 18.7107 29.9575 18.6035ZM29.9854 18.7176C29.8227 18.8182 29.6413 19.0091 29.4973 19.2226C29.3443 19.4493 29.2425 19.6879 29.2425 19.8563L29.1399 19.8881C29.021 19.7148 28.8526 19.5823 28.6575 19.5074V20.115H31.3013V19.5083C31.1103 19.5843 30.946 19.7162 30.8304 19.8877L30.7275 19.8563C30.7275 19.6767 30.6229 19.4352 30.4688 19.2102C30.3238 18.9987 30.1429 18.8132 29.9854 18.7176Z" fill="black"/>
<path d="M31.2 21.825V21.06C30.93 21.1612 30.8625 21.4088 30.7725 21.5888C30.8063 20.8125 30.345 19.9912 29.985 19.7775C29.625 19.9912 29.1525 20.835 29.1975 21.5775C29.1075 21.42 29.0288 21.1612 28.77 21.06V21.8138L31.2 21.825Z" fill="#F0F0F0"/>
<path fill-rule="evenodd" clip-rule="evenodd" d="M29.3886 20.455C29.548 20.1206 29.7621 19.8444 29.9563 19.7291H30.0137C30.2077 19.8443 30.4191 20.1148 30.5772 20.4481C30.7038 20.7149 30.7992 21.0283 30.8241 21.3464C30.8935 21.2135 30.9936 21.0773 31.1802 21.0073L31.2562 21.06V21.825L31.1997 21.8812L28.7697 21.87L28.7137 21.8137V21.06L28.7905 21.0076C28.9344 21.0639 29.027 21.1639 29.0941 21.2669C29.1119 21.2941 29.1279 21.3217 29.1428 21.3488C29.1642 21.0378 29.2604 20.724 29.3886 20.455ZM29.4901 20.5034C29.3354 20.8281 29.2319 21.215 29.2536 21.5741L29.1487 21.6054C29.1304 21.5735 29.1125 21.5374 29.0945 21.5012C29.0893 21.4906 29.0841 21.4801 29.0788 21.4697C29.055 21.4221 29.0298 21.3742 28.9999 21.3284C28.9549 21.2593 28.9002 21.1966 28.8262 21.1507V21.7578L31.1437 21.7685V21.1484C30.9978 21.2326 30.9342 21.3724 30.8702 21.5131C30.8548 21.5469 30.8394 21.5808 30.8228 21.6139L30.7163 21.5863C30.7327 21.2094 30.6288 20.8192 30.4756 20.4963C30.3303 20.19 30.1449 19.9529 29.985 19.8442C29.825 19.9534 29.6369 20.1955 29.4901 20.5034Z" fill="black"/>
<path d="M31.02 22.9725V22.2075C30.7387 22.275 30.7275 22.3763 30.6375 22.545C30.6712 22.0838 30.345 21.555 29.985 21.3525C29.625 21.555 29.31 22.0838 29.3325 22.545C29.2425 22.3763 29.2312 22.275 28.95 22.2075V22.9725H31.02Z" fill="#F0F0F0"/>
<path fill-rule="evenodd" clip-rule="evenodd" d="M29.985 21.288L30.0126 21.3035C30.2034 21.4108 30.3817 21.602 30.5079 21.8239C30.5979 21.9823 30.6632 22.1594 30.6867 22.3367C30.6953 22.3244 30.7048 22.3124 30.7152 22.3007C30.775 22.2341 30.8604 22.188 31.0069 22.1528L31.0763 22.1362V23.0288H28.8938V22.1362L28.9632 22.1528C29.1097 22.188 29.1951 22.2341 29.2549 22.3007C29.2665 22.3137 29.2769 22.3271 29.2864 22.3409C29.3114 22.1625 29.3765 21.984 29.4663 21.8242C29.591 21.6024 29.7664 21.411 29.9575 21.3035L29.985 21.288ZM29.5644 21.8793C29.4473 22.0877 29.3781 22.3247 29.3887 22.5423L29.2829 22.5715C29.2713 22.5496 29.2609 22.5289 29.2514 22.5099C29.2506 22.5082 29.2498 22.5065 29.249 22.5049C29.2403 22.4875 29.2325 22.4718 29.2246 22.4568C29.2074 22.4243 29.1913 22.3983 29.1712 22.3759C29.1399 22.341 29.0941 22.3093 29.0063 22.2813V22.9163H30.9638V22.2813C30.876 22.3093 30.8302 22.341 30.7989 22.3759C30.7788 22.3983 30.7627 22.4243 30.7455 22.4568C30.7376 22.4718 30.7298 22.4875 30.7212 22.5048C30.7203 22.5065 30.7195 22.5082 30.7187 22.5099C30.7092 22.5289 30.6988 22.5496 30.6872 22.5715L30.5814 22.5409C30.5973 22.3243 30.5285 22.0879 30.4101 21.8795C30.298 21.6825 30.1445 21.5158 29.9851 21.4178C29.8262 21.5156 29.6752 21.6821 29.5644 21.8793Z" fill="black"/>
<path d="M19.1625 25.785V23.49C19.0838 23.1975 18.825 22.9275 18.645 22.8825V20.8575L19.0613 21.0825L19.545 23.2088V25.7963L19.1625 25.785Z" fill="#F0F0F0"/>
<path fill-rule="evenodd" clip-rule="evenodd" d="M18.5887 20.7632L19.1104 21.0451L19.6012 23.2024V25.8542L19.1062 25.8396V23.4976C19.0688 23.3638 18.9905 23.2335 18.8996 23.1307C18.8058 23.0247 18.7054 22.9556 18.6314 22.9371L18.5887 22.9264V20.7632ZM18.7012 20.9518V22.8416C18.7957 22.8782 18.8968 22.9578 18.9838 23.0562C19.0854 23.171 19.1747 23.3191 19.2168 23.4754L19.2187 23.4826V25.7304L19.4887 25.7383V23.2151L19.0121 21.1199L18.7012 20.9518Z" fill="black"/>
<path d="M19.1625 25.7963V23.49C19.0838 23.1975 18.825 22.9275 18.645 22.8825V20.7225C18.9263 20.7225 19.0613 21.0825 19.0613 21.0825L19.545 23.2088V25.785L19.1625 25.7963Z" fill="#F0F0F0"/>
<path fill-rule="evenodd" clip-rule="evenodd" d="M18.5887 20.6663H18.645C18.8116 20.6663 18.9302 20.7729 19.0033 20.8683C19.0404 20.9168 19.0678 20.965 19.086 21.0009C19.0951 21.0189 19.1019 21.034 19.1066 21.0448C19.1089 21.0502 19.1106 21.0545 19.1119 21.0575L19.1133 21.0611L19.1137 21.0622L19.1138 21.0626L19.1139 21.0627C19.1139 21.0627 19.1139 21.0628 19.0612 21.0825L19.1139 21.0627L19.1152 21.0663L19.6012 23.2024V25.8396L19.1062 25.8542V23.4976C19.0688 23.3638 18.9905 23.2335 18.8996 23.1307C18.8058 23.0247 18.7054 22.9556 18.6314 22.9371L18.5887 22.9264V20.6663ZM19.0073 21.0991C19.0064 21.0969 19.0051 21.0936 19.0032 21.0893C18.9994 21.0804 18.9935 21.0674 18.9855 21.0516C18.9696 21.02 18.9457 20.9782 18.9139 20.9367C18.8601 20.8665 18.7893 20.804 18.7012 20.7848V22.8416C18.7957 22.8782 18.8968 22.9578 18.9838 23.0562C19.0854 23.171 19.1747 23.3191 19.2168 23.4754L19.2187 23.4826V25.7383L19.4887 25.7304V23.2151L19.0073 21.0991Z" fill="black"/>
<path d="M18.8588 26.3812C19.05 26.3025 19.3313 26.055 19.3313 25.8187V22.9387L19.1963 22.7137H24.1125L23.9213 22.9387V25.8187C23.9295 25.938 23.9693 26.0529 24.0365 26.1517C24.1037 26.2505 24.1959 26.3297 24.3038 26.3812H18.8588Z" fill="#F0F0F0"/>
<path fill-rule="evenodd" clip-rule="evenodd" d="M19.0968 22.6575H24.2341L23.9774 22.9594V25.8168C23.9853 25.9254 24.0217 26.03 24.0829 26.1201C24.1445 26.2107 24.2291 26.2833 24.3279 26.3305L24.3037 26.4375H18.8587L18.8373 26.3292C18.9245 26.2933 19.0361 26.2168 19.1255 26.1207C19.2159 26.0235 19.2749 25.9159 19.2749 25.8187V22.9543L19.0968 22.6575ZM19.2955 22.77L19.3874 22.9232V25.8187C19.3874 25.9579 19.3058 26.0921 19.2078 26.1974C19.164 26.2445 19.1151 26.2877 19.0653 26.325H24.116C24.0682 26.2836 24.0257 26.2361 23.9899 26.1833C23.9171 26.0763 23.874 25.9518 23.8651 25.8226L23.8649 25.8207V22.9181L23.9908 22.77H19.2955Z" fill="black"/>
<path d="M23.3025 26.3812C23.1113 26.3025 22.83 26.055 22.83 25.8187V23.085L23.235 22.7025H19.905L20.31 23.085V25.8187C20.31 26.055 20.0288 26.3025 19.8375 26.3812H23.3025Z" fill="#F0F0F0"/>
<path fill-rule="evenodd" clip-rule="evenodd" d="M19.7635 22.6462H23.3765L22.8863 23.1092V25.8187C22.8863 25.9159 22.9453 26.0235 23.0357 26.1207C23.1252 26.2168 23.2367 26.2933 23.3239 26.3292L23.3025 26.4375H19.8375L19.8161 26.3292C19.9033 26.2933 20.0149 26.2168 20.1043 26.1207C20.1948 26.0235 20.2538 25.9159 20.2538 25.8187V23.1092L19.7635 22.6462ZM20.0465 22.7587L20.3663 23.0607V25.8187C20.3663 25.9579 20.2847 26.0921 20.1867 26.1974C20.1428 26.2445 20.094 26.2877 20.0441 26.325H23.096C23.0461 26.2877 22.9972 26.2445 22.9534 26.1974C22.8554 26.0921 22.7738 25.9579 22.7738 25.8187V23.0607L23.0935 22.7587H20.0465Z" fill="black"/>
<path d="M22.8412 26.3813C22.65 26.3025 22.3575 26.055 22.3575 25.8188V23.3438L22.6275 22.9725H20.5125L20.7825 23.3438V25.8188C20.7825 26.055 20.5012 26.3025 20.2987 26.3813H22.8412Z" fill="#F0F0F0"/>
<path fill-rule="evenodd" clip-rule="evenodd" d="M20.402 22.9163H22.7379L22.4137 23.362V25.8188C22.4137 25.9151 22.4747 26.0226 22.5682 26.1202C22.6605 26.2164 22.775 26.2932 22.8626 26.3292L22.8412 26.4375H20.2987L20.2783 26.3288C20.3709 26.2928 20.485 26.2164 20.5756 26.1204C20.6673 26.0234 20.7262 25.9158 20.7262 25.8188V23.3621L20.402 22.9163ZM20.6229 23.0288L20.8387 23.3255V25.8188C20.8387 25.958 20.757 26.0922 20.6574 26.1977C20.613 26.2447 20.5634 26.2878 20.5123 26.325H22.6325C22.5819 26.2879 22.5319 26.2449 22.487 26.198C22.3864 26.0931 22.3012 25.9586 22.3012 25.8188V23.3255L22.517 23.0288H20.6229Z" fill="black"/>
<path d="M21.075 22.9725H22.0762V26.3925H21.0637L21.075 22.9725Z" fill="#F0F0F0"/>
<path fill-rule="evenodd" clip-rule="evenodd" d="M21.0189 22.9163H22.1325V26.4488H21.0073L21.0189 22.9163ZM21.1311 23.0288L21.1202 26.3363H22.02V23.0288H21.1311Z" fill="black"/>
<path d="M19.6913 23.9175H20.0963V25.7737H19.6913V23.9175ZM23.1563 23.9175H23.55V25.7737H23.145L23.1563 23.9175ZM19.3425 20.79H19.8375V22.7025H19.3425V20.79ZM19.3425 20.43H19.8263V20.79H19.3425V20.43ZM23.3475 21.2062H24.0338V22.6687H23.3475V21.2062Z" fill="#F0F0F0"/>
<path fill-rule="evenodd" clip-rule="evenodd" d="M19.2863 20.43L19.3425 20.3737H19.8263L19.8825 20.43V20.7788L19.8938 20.79V22.7025L19.8375 22.7588H19.3425L19.2863 22.7025V20.43ZM19.3988 20.8463V22.6463H19.7813V20.8463H19.3988ZM19.77 20.7338H19.3988V20.4862H19.77V20.7338ZM23.2913 21.2063L23.3475 21.15H24.0338L24.09 21.2063V22.6688L24.0338 22.725H23.3475L23.2913 22.6688V21.2063ZM23.4038 21.2625V22.6125H23.9775V21.2625H23.4038ZM19.635 23.9175L19.6913 23.8612H20.0963L20.1525 23.9175V25.7737L20.0963 25.83H19.6913L19.635 25.7737V23.9175ZM19.7475 23.9737V25.7175H20.04V23.9737H19.7475ZM23.1 23.9172L23.1563 23.8612H23.55L23.6063 23.9175V25.7737L23.55 25.83H23.145L23.0888 25.7734L23.1 23.9172ZM23.2122 23.9737L23.2016 25.7175H23.4938V23.9737H23.2122Z" fill="black"/>
<path d="M19.8263 22.68V19.4175C19.9613 19.4175 19.9838 19.9012 20.2988 19.9012C20.4675 19.9012 20.4563 19.6987 20.355 19.5412C20.2763 19.395 20.175 19.2037 20.31 18.8325C20.4113 19.1137 20.6588 19.2037 20.6138 19.035C20.535 18.7312 20.2988 18.675 20.4788 18.2137C20.535 18.5962 20.7825 18.585 20.7263 18.36C20.6588 18.1012 20.5125 17.9887 20.6925 17.6287C20.7938 18.045 20.9175 18.0225 20.9175 17.7637C20.9175 17.3812 20.9175 16.9762 21.39 16.83C21.39 16.83 21.4238 16.4925 21.6038 16.4925C21.7725 16.4925 21.8063 16.83 21.8063 16.83C22.29 16.9762 22.2788 17.3925 22.2788 17.7637C22.2788 18.0225 22.4025 18.045 22.5038 17.6287C22.6838 17.9887 22.5375 18.1012 22.47 18.36C22.4138 18.585 22.6613 18.5962 22.7176 18.2137C22.8976 18.675 22.6613 18.7312 22.5825 19.035C22.5375 19.2037 22.785 19.1137 22.8863 18.8325C23.0213 19.2037 22.92 19.395 22.8413 19.5412C22.7513 19.6987 22.7288 19.9012 22.8975 19.9012C23.2125 19.9012 23.235 19.4287 23.37 19.4287V22.68H19.8263ZM19.05 20.2162V22.7025H19.3313V20.2162C19.23 20.16 19.14 20.16 19.05 20.2162Z" fill="#F0F0F0"/>
<path fill-rule="evenodd" clip-rule="evenodd" d="M21.446 16.8356L21.4423 16.8727L21.4067 16.8837C21.1878 16.9515 21.0829 17.076 21.0296 17.227C20.9744 17.3835 20.9738 17.5701 20.9738 17.7638C20.9738 17.8314 20.9659 17.8899 20.9486 17.9318C20.9401 17.9526 20.927 17.9746 20.9063 17.9898C20.8829 18.007 20.8541 18.0121 20.8257 18.0029C20.8007 17.9948 20.7807 17.9773 20.7652 17.9589C20.7491 17.9398 20.7341 17.9154 20.7199 17.8867C20.7077 17.862 20.6956 17.8329 20.6837 17.7993C20.6566 17.8906 20.6585 17.959 20.6716 18.0206C20.6818 18.0683 20.6991 18.1138 20.7197 18.1669L20.7217 18.1721C20.7414 18.2229 20.7635 18.2798 20.7807 18.3458L20.7808 18.3464C20.7968 18.4104 20.7943 18.4705 20.7674 18.515C20.7535 18.5379 20.7333 18.5561 20.7078 18.5659C20.6824 18.5757 20.6553 18.5759 20.6299 18.569C20.5802 18.5554 20.5357 18.5152 20.5012 18.4591C20.4929 18.4456 20.485 18.431 20.4776 18.4151C20.4724 18.4445 20.4697 18.4711 20.4691 18.4954C20.4674 18.561 20.4805 18.6129 20.501 18.6615C20.5168 18.6987 20.5359 18.7323 20.5576 18.7704C20.5659 18.7849 20.5745 18.8 20.5834 18.8163C20.6148 18.8733 20.6468 18.9384 20.6682 19.0207C20.6808 19.0681 20.6815 19.131 20.6281 19.1625C20.6045 19.1765 20.5784 19.1781 20.5563 19.175C20.534 19.1718 20.5116 19.1634 20.4904 19.1522C20.4344 19.1225 20.3732 19.0655 20.3225 18.9857C20.2962 19.0982 20.2958 19.188 20.3079 19.2622C20.3244 19.3637 20.3645 19.4403 20.4035 19.5127C20.4577 19.5977 20.4911 19.699 20.4842 19.7848C20.4807 19.8288 20.4661 19.873 20.4331 19.9066C20.3993 19.941 20.3527 19.9575 20.2988 19.9575C20.1054 19.9575 20.007 19.8064 19.9449 19.685C19.9316 19.6589 19.9192 19.6327 19.9078 19.6086C19.9056 19.6039 19.9034 19.5992 19.9012 19.5947C19.8947 19.5809 19.8885 19.568 19.8825 19.556V22.6237H23.3138V19.5647C23.3077 19.5765 23.3015 19.5892 23.2948 19.6028C23.2927 19.6073 23.2905 19.6118 23.2883 19.6164C23.2769 19.64 23.2645 19.6656 23.2511 19.6911C23.1887 19.8102 23.0902 19.9575 22.8975 19.9575C22.8436 19.9575 22.7971 19.9409 22.764 19.9057C22.7318 19.8716 22.7188 19.827 22.7162 19.7837C22.7111 19.6986 22.7443 19.5978 22.7921 19.514C22.8313 19.4411 22.8718 19.3642 22.8884 19.2622C22.9005 19.188 22.9001 19.0982 22.8738 18.9857C22.8231 19.0655 22.7619 19.1225 22.7059 19.1522C22.6847 19.1634 22.6623 19.1718 22.64 19.175C22.6179 19.1781 22.5918 19.1765 22.5682 19.1625C22.5147 19.131 22.5155 19.068 22.5281 19.0207C22.5495 18.9384 22.5815 18.8733 22.6129 18.8163C22.6218 18.8 22.6304 18.7849 22.6387 18.7704C22.6604 18.7323 22.6795 18.6987 22.6953 18.6615C22.7158 18.6129 22.7289 18.561 22.7272 18.4954C22.7266 18.4711 22.7239 18.4445 22.7187 18.4151C22.7113 18.431 22.7034 18.4456 22.6951 18.4591C22.6606 18.5152 22.6161 18.5554 22.5664 18.569C22.5409 18.5759 22.5139 18.5757 22.4885 18.5659C22.463 18.5561 22.4428 18.5379 22.4289 18.515C22.402 18.4705 22.3995 18.4104 22.4155 18.3464L22.4156 18.3458C22.4328 18.2798 22.4549 18.2229 22.4746 18.1721L22.4766 18.1669C22.4972 18.1138 22.5145 18.0683 22.5247 18.0206C22.5378 17.959 22.5397 17.8906 22.5126 17.7993C22.5007 17.8329 22.4886 17.862 22.4763 17.8867C22.4622 17.9154 22.4472 17.9398 22.4311 17.9589C22.4156 17.9773 22.3956 17.9948 22.3706 18.0029C22.3422 18.0121 22.3134 18.007 22.29 17.9898C22.2693 17.9746 22.2562 17.9526 22.2477 17.9318C22.2304 17.8899 22.2225 17.8314 22.2225 17.7638C22.2225 17.7567 22.2225 17.7497 22.2225 17.7427C22.2226 17.5612 22.2227 17.3828 22.1707 17.2307C22.1187 17.0786 22.0141 16.9516 21.79 16.8838L21.754 16.873L21.7503 16.8356L21.7502 16.8351L21.75 16.8327C21.7497 16.8306 21.7493 16.8273 21.7488 16.8231C21.7476 16.8146 21.7458 16.8023 21.743 16.7874C21.7376 16.7575 21.7287 16.7184 21.7152 16.6798C21.7015 16.6407 21.6843 16.6058 21.6637 16.5817C21.644 16.5584 21.6247 16.5487 21.6038 16.5487C21.5787 16.5487 21.557 16.5598 21.5362 16.5829C21.5145 16.607 21.4965 16.6417 21.4822 16.6806C21.4682 16.719 21.459 16.7579 21.4534 16.7877C21.4506 16.8025 21.4487 16.8147 21.4475 16.8232C21.447 16.8274 21.4466 16.8307 21.4463 16.8328L21.446 16.8351L21.446 16.8356ZM21.8572 16.7873C21.8562 16.7812 21.855 16.7744 21.8537 16.7671C21.8476 16.7337 21.8374 16.6885 21.8214 16.6427C21.8056 16.5975 21.7827 16.548 21.7495 16.5088C21.7154 16.4688 21.6673 16.4362 21.6038 16.4362C21.5389 16.4362 21.4888 16.4674 21.4526 16.5076C21.4174 16.5468 21.3933 16.5964 21.3766 16.6419C21.3597 16.6879 21.3492 16.7333 21.3428 16.7668C21.3414 16.7743 21.3402 16.7813 21.3392 16.7875C21.1078 16.8687 20.9854 17.0143 20.9235 17.1896C20.8613 17.366 20.8613 17.571 20.8613 17.7584V17.7638C20.8613 17.8191 20.8552 17.8581 20.8473 17.8815C20.8398 17.8716 20.8308 17.8571 20.8208 17.837C20.7975 17.7897 20.772 17.7174 20.7472 17.6155L20.7109 17.4662L20.6422 17.6036C20.5478 17.7925 20.5359 17.9237 20.5616 18.0441C20.5739 18.1019 20.5946 18.1555 20.6148 18.2076L20.6162 18.2112C20.6362 18.2628 20.6562 18.3144 20.6718 18.3739C20.6838 18.4222 20.6765 18.4478 20.6711 18.4567C20.6699 18.4588 20.6689 18.4598 20.6683 18.4603C20.6681 18.4605 20.6679 18.4606 20.6677 18.4607C20.6675 18.4609 20.6674 18.4609 20.6672 18.461C20.6672 18.461 20.665 18.4619 20.6595 18.4604C20.6473 18.4571 20.623 18.4424 20.597 18.4002C20.5717 18.3589 20.5477 18.2956 20.5344 18.2056L20.5035 17.9956L20.4264 18.1933C20.3798 18.3127 20.3588 18.4092 20.3566 18.4925C20.3545 18.5766 20.3716 18.6443 20.3974 18.7054C20.4159 18.7491 20.4399 18.7911 20.4626 18.8311C20.4703 18.8444 20.4778 18.8576 20.4849 18.8705C20.5143 18.9239 20.5413 18.9797 20.5593 19.0491L20.5594 19.0495C20.5606 19.0541 20.5615 19.0579 20.5621 19.0611C20.5569 19.0594 20.5505 19.0568 20.5431 19.0528C20.4888 19.024 20.4098 18.9436 20.3629 18.8135L20.3103 18.6672L20.2572 18.8133C20.1869 19.0064 20.1768 19.1568 20.1968 19.2803C20.2168 19.403 20.2661 19.4947 20.3055 19.5679L20.3065 19.5698L20.3077 19.5717C20.3541 19.6438 20.3764 19.7216 20.3721 19.7758C20.37 19.8022 20.3621 19.8184 20.3529 19.8277C20.3445 19.8362 20.3292 19.845 20.2988 19.845C20.1772 19.845 20.1068 19.7543 20.0451 19.6338C20.0326 19.6094 20.0211 19.5851 20.0097 19.5609C20.0074 19.5561 20.0052 19.5513 20.0029 19.5465C19.9895 19.5182 19.9758 19.4899 19.9616 19.4651C19.9476 19.4407 19.9311 19.4161 19.9108 19.3972C19.8899 19.3776 19.8617 19.3612 19.8263 19.3612H19.77V22.7362H23.4263V19.3725H23.37C23.335 19.3725 23.307 19.3883 23.286 19.4075C23.2656 19.4261 23.2491 19.4502 23.235 19.4741C23.2208 19.4984 23.2071 19.5261 23.1937 19.5537C23.1914 19.5584 23.1891 19.5631 23.1868 19.5678C23.1754 19.5914 23.1639 19.6151 23.1514 19.6389C23.0901 19.7561 23.0198 19.845 22.8975 19.845C22.8671 19.845 22.8531 19.8363 22.8458 19.8286C22.8376 19.8198 22.8301 19.8039 22.8285 19.7769C22.8252 19.7216 22.8481 19.6427 22.8901 19.5692L22.8905 19.5685L22.8908 19.5679C22.9302 19.4947 22.9795 19.403 22.9995 19.2803C23.0195 19.1568 23.0094 19.0064 22.9391 18.8133L22.886 18.6672L22.8333 18.8135C22.7865 18.9436 22.7075 19.024 22.6532 19.0528C22.6457 19.0568 22.6394 19.0594 22.6342 19.0611C22.6348 19.0579 22.6357 19.0541 22.6369 19.0495L22.637 19.0491C22.655 18.9797 22.682 18.9239 22.7114 18.8705C22.7185 18.8576 22.726 18.8444 22.7337 18.8311C22.7564 18.7911 22.7803 18.7491 22.7989 18.7054C22.8247 18.6443 22.8418 18.5766 22.8397 18.4925C22.8375 18.4092 22.8165 18.3127 22.7699 18.1933L22.6928 17.9956L22.6619 18.2056C22.6486 18.2956 22.6246 18.3589 22.5993 18.4002C22.5733 18.4424 22.549 18.4571 22.5368 18.4604C22.5313 18.4619 22.5291 18.461 22.529 18.461C22.529 18.461 22.5289 18.4609 22.5287 18.4608C22.5286 18.4607 22.5283 18.4606 22.528 18.4603C22.5274 18.4598 22.5264 18.4588 22.5252 18.4567C22.5198 18.4478 22.5125 18.4223 22.5245 18.3739C22.5401 18.3144 22.5601 18.2628 22.5801 18.2112L22.5815 18.2076C22.6017 18.1555 22.6224 18.1019 22.6347 18.0441C22.6604 17.9237 22.6485 17.7925 22.5541 17.6036L22.4854 17.4662L22.4491 17.6155C22.4243 17.7174 22.3988 17.7897 22.3755 17.837C22.3655 17.8571 22.3565 17.8716 22.349 17.8815C22.3411 17.8581 22.335 17.8191 22.335 17.7638C22.335 17.7546 22.335 17.7453 22.335 17.736C22.3352 17.5604 22.3354 17.3648 22.2772 17.1943C22.2167 17.0173 22.0941 16.8687 21.8572 16.7873ZM22.6337 19.0752C22.6336 19.0753 22.6334 19.0747 22.6333 19.0734C22.6337 19.0744 22.6338 19.0751 22.6337 19.0752ZM20.5626 19.0752C20.5625 19.0751 20.5626 19.0744 20.563 19.0734C20.5629 19.0747 20.5627 19.0753 20.5626 19.0752ZM20.5756 19.0638C20.5757 19.0638 20.5757 19.0638 20.5757 19.0638L20.5756 19.0638ZM19.1864 20.1178C19.2446 20.1178 19.3018 20.1355 19.3586 20.1671L19.3875 20.1832V22.7587H18.9938V20.1851L19.0202 20.1686C19.0727 20.1358 19.1279 20.1178 19.1864 20.1178ZM19.1063 20.2494V22.6462H19.275V20.251C19.2425 20.2366 19.2133 20.2303 19.1864 20.2303C19.1603 20.2303 19.1339 20.2362 19.1063 20.2494Z" fill="black"/>
<path d="M19.0725 21.825C19.4213 22.005 19.77 22.2188 19.86 22.7025H19.0725V21.825ZM23.9325 21.0825V22.7025H24.1575V21.0825C24.09 21.0488 23.9888 21.0375 23.9325 21.0825Z" fill="#F0F0F0"/>
<path fill-rule="evenodd" clip-rule="evenodd" d="M24.0427 20.9968C24.0917 20.9985 24.1418 21.0118 24.1826 21.0322L24.2137 21.0477V22.7588H23.8762V21.0555L23.8973 21.0386C23.9398 21.0046 23.9945 20.9951 24.0427 20.9968ZM23.9887 21.1154V22.6463H24.1012V21.1203C24.0814 21.114 24.0597 21.1099 24.0388 21.1092C24.0187 21.1085 24.0019 21.1109 23.9887 21.1154ZM19.0162 21.7327L19.0983 21.775C19.4481 21.9556 19.82 22.1801 19.9153 22.6922L19.9277 22.7588H19.0162V21.7327ZM19.1287 21.9182V22.6463H19.7902C19.6959 22.2712 19.4273 22.0789 19.1287 21.9182Z" fill="black"/>
<path d="M24.1575 21.825C23.8087 21.9938 23.46 22.1963 23.37 22.6913H24.1575V21.825ZM21.84 18.0338L22.0425 17.865V17.64C21.975 17.64 21.93 17.6738 21.8737 17.7525C21.8519 17.6803 21.8157 17.6131 21.7674 17.5552C21.7191 17.4972 21.6596 17.4495 21.5925 17.415C21.5244 17.4471 21.4634 17.4924 21.4132 17.5485C21.3629 17.6045 21.3244 17.6701 21.3 17.7413C21.2437 17.6625 21.21 17.6513 21.1312 17.6288V17.8538L21.3337 18.0338H21.84Z" fill="#F0F0F0"/>
<path fill-rule="evenodd" clip-rule="evenodd" d="M21.5935 17.3523L21.6182 17.365C21.692 17.4029 21.7574 17.4554 21.8106 17.5192C21.8427 17.5577 21.8699 17.5999 21.8917 17.6447C21.9015 17.6357 21.9116 17.6275 21.9221 17.6203C21.9586 17.5953 21.998 17.5838 22.0425 17.5838H22.0987V17.8914L21.8603 18.09H21.3123L21.075 17.879V17.5542L21.1467 17.5747C21.1848 17.5856 21.2204 17.5958 21.2533 17.6159C21.2639 17.6224 21.2738 17.6296 21.2834 17.6377C21.3072 17.5921 21.3367 17.5495 21.3712 17.5109C21.4265 17.4493 21.4936 17.3994 21.5685 17.3641L21.5935 17.3523ZM21.5913 17.4786C21.5401 17.5062 21.494 17.5426 21.455 17.586C21.4098 17.6365 21.3752 17.6955 21.3532 17.7595L21.3177 17.8628L21.2542 17.774C21.2283 17.7378 21.211 17.7219 21.1947 17.7119C21.1923 17.7105 21.1899 17.7091 21.1875 17.7078V17.8285L21.3551 17.9775H21.8196L21.9862 17.8387V17.7128C21.986 17.7129 21.9858 17.713 21.9856 17.7132C21.967 17.7259 21.9462 17.7478 21.9195 17.7852L21.853 17.8783L21.8199 17.7688C21.8002 17.7038 21.7677 17.6434 21.7242 17.5912C21.6867 17.5462 21.6417 17.5081 21.5913 17.4786ZM24.2137 21.7353V22.7475H23.3026L23.3146 22.6812C23.4099 22.1571 23.7826 21.9439 24.1329 21.7744L24.2137 21.7353ZM23.4394 22.635H24.1012V21.9155C23.8023 22.0668 23.5334 22.2511 23.4394 22.635Z" fill="black"/>
<path d="M21.9525 18.585L22.0425 18.3712V18.09C21.975 18.09 21.93 18.1237 21.8737 18.2025C21.8519 18.1302 21.8157 18.0631 21.7674 18.0051C21.7191 17.9472 21.6596 17.8995 21.5925 17.865C21.5244 17.897 21.4634 17.9424 21.4132 17.9985C21.3629 18.0545 21.3244 18.1201 21.3 18.1912C21.2437 18.1125 21.21 18.1012 21.1312 18.09V18.3712L21.2212 18.585H21.9525Z" fill="#F0F0F0"/>
<path fill-rule="evenodd" clip-rule="evenodd" d="M21.5935 17.8023L21.6182 17.815C21.692 17.8529 21.7574 17.9054 21.8106 17.9691C21.8427 18.0077 21.8699 18.0498 21.8917 18.0947C21.9015 18.0857 21.9116 18.0775 21.9221 18.0703C21.9586 18.0453 21.998 18.0337 22.0425 18.0337H22.0987V18.3826L21.9898 18.6412H21.1839L21.075 18.3826V18.0251L21.1392 18.0343C21.1786 18.0399 21.2161 18.0465 21.2513 18.0661C21.2626 18.0724 21.2731 18.0797 21.2832 18.088C21.3071 18.0423 21.3366 17.9995 21.3712 17.9609C21.4265 17.8993 21.4936 17.8493 21.5685 17.8141L21.5935 17.8023ZM21.5913 17.9285C21.5401 17.9562 21.494 17.9926 21.455 18.036C21.4098 18.0865 21.3752 18.1454 21.3532 18.2095L21.3177 18.3128L21.2542 18.2239C21.2281 18.1874 21.2114 18.1726 21.1967 18.1645C21.1938 18.1629 21.1907 18.1614 21.1875 18.16V18.3599L21.2586 18.5287H21.9151L21.9862 18.3599V18.1627C21.986 18.1629 21.9858 18.163 21.9856 18.1631C21.967 18.1759 21.9462 18.1978 21.9195 18.2352L21.853 18.3283L21.8199 18.2188C21.8002 18.1537 21.7677 18.0933 21.7242 18.0412C21.6867 17.9962 21.6417 17.9581 21.5913 17.9285Z" fill="black"/>
<path d="M21.975 19.3275L22.2675 18.9563V18.5963C22.155 18.5963 22.0988 18.6525 22.02 18.7763C21.9413 18.5175 21.795 18.4725 21.5925 18.3488C21.3787 18.4613 21.2325 18.5175 21.165 18.765C21.075 18.6413 21.0188 18.6075 20.9062 18.5963V18.9563L21.21 19.3275H21.975Z" fill="#F0F0F0"/>
<path fill-rule="evenodd" clip-rule="evenodd" d="M21.5945 18.2841L21.6218 18.3007C21.6499 18.3179 21.6782 18.3342 21.7059 18.3502C21.7718 18.3881 21.8351 18.4246 21.8884 18.4685C21.9472 18.5169 21.9961 18.5754 22.0348 18.6574C22.0542 18.6335 22.0745 18.6126 22.0965 18.5954C22.1455 18.5574 22.2002 18.54 22.2675 18.54H22.3237V18.9757L22.0023 19.3837H21.1833L20.85 18.9763V18.5341L20.9118 18.5403C20.973 18.5464 21.0249 18.5592 21.0745 18.5911C21.0993 18.6071 21.1224 18.6271 21.1453 18.6515C21.181 18.5708 21.2288 18.5117 21.2881 18.4628C21.3528 18.4095 21.4316 18.3688 21.5157 18.3253C21.5324 18.3166 21.5493 18.3079 21.5663 18.299L21.5945 18.2841ZM21.3596 18.5497C21.2974 18.6009 21.2501 18.6666 21.2192 18.7798L21.1884 18.8929L21.1195 18.7981C21.0758 18.738 21.0441 18.7054 21.0136 18.6857C20.9983 18.6759 20.982 18.6685 20.9625 18.663V18.9362L21.2366 19.2712H21.9477L22.2112 18.9367V18.66C22.1941 18.6653 22.1795 18.6734 22.1656 18.6842C22.1359 18.7074 22.1065 18.7451 22.0674 18.8064L22.0018 18.9096L21.9662 18.7926C21.9298 18.6733 21.8796 18.607 21.8169 18.5553C21.7711 18.5176 21.7205 18.4885 21.6593 18.4533C21.6378 18.4409 21.6149 18.4278 21.5905 18.4132C21.5816 18.4179 21.5728 18.4224 21.5643 18.4269C21.4802 18.4705 21.4143 18.5047 21.3596 18.5497Z" fill="black"/>
<path d="M22.0538 20.0587C22.0538 20.0587 22.4138 19.755 22.425 19.5862V19.1925C22.29 19.2037 22.1663 19.2375 22.065 19.4063C21.975 19.08 21.84 18.99 21.5925 18.8438C21.3338 18.99 21.1988 19.08 21.12 19.4063C21.0075 19.2375 20.895 19.2038 20.7488 19.1813V19.5862C20.8433 19.7647 20.969 19.9247 21.12 20.0587H22.0538Z" fill="#F0F0F0"/>
<path fill-rule="evenodd" clip-rule="evenodd" d="M21.5931 18.7788L21.6211 18.7953C21.744 18.8679 21.8467 18.9308 21.929 19.0192C21.9937 19.0886 22.0441 19.1719 22.0852 19.2841C22.1228 19.2428 22.1634 19.2124 22.2067 19.1902C22.2768 19.1544 22.35 19.1423 22.4203 19.1364L22.4813 19.1314V19.5881L22.4811 19.59C22.4773 19.6479 22.4452 19.709 22.4088 19.7628C22.3711 19.8185 22.3228 19.8747 22.2761 19.9243C22.2292 19.9742 22.1828 20.0184 22.1482 20.0501C22.1309 20.066 22.1164 20.0788 22.1063 20.0877C22.1012 20.0921 22.0972 20.0956 22.0944 20.098L22.0912 20.1007L22.0904 20.1014L22.0901 20.1016L22.09 20.1017C22.09 20.1017 22.09 20.1017 22.0538 20.0587L22.09 20.1017L22.0743 20.115H21.0986L21.0827 20.1008C20.9266 19.9623 20.7967 19.797 20.699 19.6126L20.6925 19.6002V19.1157L20.7573 19.1256C20.8319 19.1371 20.9044 19.1523 20.9736 19.1893C21.0169 19.2125 21.0573 19.2433 21.0962 19.2848C21.1338 19.1725 21.1826 19.089 21.2476 19.0192C21.3303 18.9303 21.4363 18.8674 21.5648 18.7948L21.5931 18.7788ZM22.0328 20.0025C22.0424 19.9941 22.0559 19.9821 22.0722 19.9672C22.1054 19.9367 22.1497 19.8944 22.1942 19.8472C22.2389 19.7998 22.2827 19.7484 22.3157 19.6997C22.3492 19.6501 22.3664 19.6106 22.3688 19.5841V19.2558C22.3288 19.2624 22.2922 19.2729 22.258 19.2904C22.2081 19.3159 22.1592 19.3586 22.1132 19.4352L22.0457 19.5478L22.0108 19.4212C21.9675 19.2641 21.9148 19.169 21.8466 19.0958C21.7824 19.0268 21.7019 18.9744 21.5919 18.9088C21.4766 18.9746 21.394 19.027 21.3299 19.0958C21.2624 19.1684 21.2125 19.2627 21.1747 19.4194L21.1445 19.5444L21.0732 19.4374C21.021 19.3592 20.9713 19.3157 20.9205 19.2885C20.8854 19.2697 20.8479 19.2577 20.805 19.2485V19.5721C20.8922 19.7335 21.006 19.879 21.1416 20.0025H22.0328Z" fill="black"/>
<path d="M22.2 21.4087C22.2 21.4087 22.695 20.88 22.7063 20.6662V20.0587C22.5263 20.0812 22.3463 20.205 22.2113 20.4637C22.0988 19.9575 21.9188 19.6087 21.5925 19.3612C21.255 19.6087 21.075 19.9575 20.9625 20.4637C20.8275 20.205 20.6588 20.0812 20.4788 20.0587V20.6662C20.5125 20.88 20.9738 21.4087 20.9738 21.4087H22.2Z" fill="#F0F0F0"/>
<path fill-rule="evenodd" clip-rule="evenodd" d="M21.5931 19.2911L21.6265 19.3164C21.9367 19.5517 22.1176 19.8737 22.2337 20.3169C22.3654 20.1253 22.5291 20.0242 22.6993 20.0029L22.7625 19.995V20.6677L22.7624 20.6692C22.7588 20.738 22.7186 20.8218 22.6706 20.9015C22.6209 20.984 22.5563 21.0722 22.4931 21.1525C22.4297 21.233 22.3667 21.3066 22.3197 21.36C22.2962 21.3867 22.2766 21.4084 22.2629 21.4235C22.256 21.431 22.2506 21.4369 22.2469 21.4409L22.2426 21.4455L22.2415 21.4467L22.2411 21.4472C22.2411 21.4472 22.241 21.4472 22.2 21.4088L22.2411 21.4472L22.2244 21.465H20.9482L20.9313 21.4457L20.9737 21.4088C20.9313 21.4457 20.9314 21.4457 20.9313 21.4457L20.9299 21.4441L20.926 21.4395C20.9225 21.4355 20.9175 21.4296 20.911 21.4221C20.8982 21.407 20.8799 21.3853 20.8578 21.3586C20.8137 21.3053 20.7544 21.2318 20.6939 21.1515C20.6336 21.0713 20.5715 20.9834 20.5221 20.9015C20.474 20.8216 20.4335 20.7403 20.4232 20.675L20.4225 20.6707V19.995L20.4857 20.0029C20.6565 20.0243 20.8118 20.1258 20.9403 20.3161C21.0565 19.8731 21.2385 19.5511 21.5592 19.3159L21.5931 19.2911ZM20.9995 21.3525H22.1753C22.1767 21.351 22.1782 21.3494 22.1797 21.3477C22.1931 21.3331 22.2122 21.3118 22.2353 21.2856C22.2814 21.2332 22.343 21.1613 22.4047 21.0829C22.4666 21.0042 22.5279 20.9202 22.5742 20.8434C22.6216 20.7648 22.6475 20.7028 22.65 20.6646V20.1273C22.5124 20.1656 22.3728 20.2758 22.2611 20.4898L22.1898 20.6265L22.1563 20.476C22.0495 19.9951 21.8829 19.6671 21.5919 19.4322C21.2909 19.667 21.1243 19.9948 21.0174 20.476L20.9839 20.6265L20.9126 20.4898C20.8006 20.2751 20.6693 20.1657 20.535 20.1274V20.6615C20.5428 20.7032 20.5722 20.7665 20.6185 20.8434C20.6651 20.9207 20.7246 21.0051 20.7838 21.0838C20.8429 21.1624 20.9011 21.2345 20.9445 21.2869C20.9662 21.3132 20.9841 21.3344 20.9967 21.3491C20.9977 21.3503 20.9986 21.3514 20.9995 21.3525Z" fill="black"/>
<path d="M22.2 22.2075C22.2 22.2075 22.6163 21.7912 22.7063 21.6112V21.0037C22.5263 21.0262 22.3463 21.15 22.2113 21.3975C22.1812 21.1928 22.111 20.996 22.0049 20.8184C21.8987 20.6408 21.7586 20.4859 21.5925 20.3625C21.255 20.61 21.075 20.8912 20.9625 21.3975C20.8275 21.15 20.6588 21.0262 20.4788 21.0037V21.6112C20.5913 21.7912 20.9738 22.2075 20.9738 22.2075H22.2Z" fill="#F0F0F0"/>
<path fill-rule="evenodd" clip-rule="evenodd" d="M21.5927 20.2926L21.626 20.3173C21.798 20.4452 21.9432 20.6056 22.0531 20.7896C22.1383 20.932 22.201 21.0863 22.2395 21.2472C22.3703 21.0672 22.5318 20.9689 22.6993 20.9479L22.7625 20.94V21.6245L22.7565 21.6364C22.7312 21.6872 22.685 21.7509 22.633 21.8156C22.5803 21.8812 22.519 21.951 22.4609 22.0147C22.4028 22.0786 22.3476 22.1366 22.3069 22.1787C22.2865 22.1998 22.2698 22.2169 22.2581 22.2287C22.2523 22.2347 22.2477 22.2393 22.2446 22.2424L22.241 22.246L22.2399 22.2472L22.2398 22.2473C22.2398 22.2473 22.2398 22.2473 22.2 22.2075L22.2398 22.2473L22.2233 22.2637H20.949L20.9323 22.2456L20.9737 22.2075C20.9323 22.2456 20.9323 22.2456 20.9323 22.2456L20.9279 22.2407L20.9155 22.2271C20.9047 22.2153 20.8893 22.1983 20.8704 22.1772C20.8326 22.1352 20.781 22.0773 20.7259 22.0137C20.6168 21.8878 20.49 21.7354 20.431 21.641L20.4225 21.6274V20.94L20.4857 20.9479C20.656 20.9692 20.8112 21.0703 20.9397 21.2536C20.9922 21.0572 21.0584 20.8946 21.1452 20.7535C21.251 20.5816 21.3858 20.4443 21.5592 20.3171L21.5927 20.2926ZM20.9985 22.1512H22.1765C22.177 22.1508 22.1775 22.1503 22.178 22.1498C22.1894 22.1382 22.2059 22.1213 22.226 22.1006C22.2662 22.059 22.3206 22.0017 22.3778 21.939C22.435 21.8761 22.4946 21.8082 22.5453 21.7451C22.592 21.687 22.6289 21.6357 22.65 21.5974V21.0723C22.5121 21.1105 22.3722 21.2198 22.2606 21.4244L22.1801 21.5721L22.1556 21.4057C22.1266 21.2083 22.0589 21.0185 21.9566 20.8473C21.8613 20.688 21.7378 20.5476 21.5921 20.433C21.4446 20.546 21.331 20.6662 21.241 20.8124C21.144 20.97 21.0728 21.1605 21.0174 21.4097L20.9849 21.556L20.9131 21.4244C20.8011 21.2191 20.6697 21.1106 20.535 21.0724V21.5948C20.592 21.6816 20.7062 21.8192 20.8109 21.94C20.8655 22.003 20.9166 22.0604 20.954 22.102C20.9727 22.1228 20.9879 22.1396 20.9985 22.1512Z" fill="black"/>
<path d="M22.3688 22.68C22.2563 22.1512 22.1438 21.7575 21.57 21.3637C20.985 21.7575 20.8838 22.1512 20.76 22.68H22.3688Z" fill="#F0F0F0"/>
<path fill-rule="evenodd" clip-rule="evenodd" d="M21.5703 21.2957L21.6019 21.3174C21.8951 21.5186 22.0733 21.722 22.192 21.9448C22.31 22.1662 22.3675 22.4039 22.4238 22.6683L22.4382 22.7363H20.6891L20.7053 22.6672C20.7669 22.4037 20.8245 22.166 20.9424 21.9448C21.0612 21.7219 21.2395 21.5184 21.5386 21.3171L21.5703 21.2957ZM20.8311 22.6238H22.2991C22.2475 22.3887 22.193 22.1859 22.0927 21.9977C21.9878 21.8008 21.8312 21.6172 21.5697 21.4321C21.3032 21.6172 21.1466 21.8008 21.0417 21.9977C20.9414 22.1858 20.887 22.3883 20.8311 22.6238Z" fill="black"/>
<path d="M22.6725 22.9725V22.2075C22.4025 22.32 22.1663 22.4662 22.0763 22.635C21.9863 22.2075 21.795 22.0275 21.5588 21.7687C21.3225 22.0275 21.165 22.2187 21.0638 22.635C20.9738 22.4662 20.7375 22.3087 20.4788 22.2075V22.9725H22.6725Z" fill="#F0F0F0"/>
<path fill-rule="evenodd" clip-rule="evenodd" d="M21.5587 21.6853L21.6003 21.7308C21.6186 21.7509 21.6366 21.7705 21.6545 21.7898C21.8444 21.9958 22.0076 22.173 22.1016 22.5028C22.1494 22.4491 22.2088 22.3994 22.2749 22.3538C22.3832 22.2792 22.5135 22.2128 22.6509 22.1556L22.7287 22.1231V23.0288H20.4225V22.1251L20.4992 22.1551C20.6322 22.2071 20.7601 22.2739 20.8672 22.3501C20.9334 22.3973 20.993 22.4491 21.0407 22.5044C21.1458 22.1533 21.3012 21.9674 21.5172 21.7308L21.5587 21.6853ZM21.559 21.8522C21.3488 22.0854 21.2105 22.2697 21.1184 22.6483L21.0835 22.7916L21.0141 22.6615C20.9748 22.5878 20.9008 22.5123 20.8019 22.4418C20.7238 22.3862 20.6324 22.3352 20.535 22.2919V22.9163H22.6162V22.2933C22.5135 22.34 22.4188 22.3913 22.3388 22.4465C22.2383 22.5157 22.1649 22.5883 22.1259 22.6615L22.0531 22.798L22.0212 22.6466C21.9414 22.2675 21.7815 22.0939 21.5707 21.865C21.5668 21.8607 21.5629 21.8565 21.559 21.8522Z" fill="black"/>
<path d="M16.2038 29.1713H43.8V30.5775H16.2038V29.1713ZM15.4725 30.5775H44.5313V31.9838H15.4725V30.5775ZM17.655 27.0563H42.3375V27.9675H17.655V27.0563Z" fill="#F0F0F0"/>
<path fill-rule="evenodd" clip-rule="evenodd" d="M17.5988 27H42.3938V28.0237H17.5988V27ZM17.7113 27.1125V27.9112H42.2813V27.1125H17.7113ZM16.1475 29.115H43.8563V30.5212H44.5875V32.04H15.4163V30.5212H16.1475V29.115ZM16.26 30.5212H43.7438V29.2275H16.26V30.5212ZM15.5288 30.6337V31.9275H44.475V30.6337H15.5288Z" fill="black"/>
<path d="M16.9351 27.9675H43.0801V29.16H16.9351V27.9675ZM18.0826 26.3588H41.9326V27.0563H18.0826V26.3588Z" fill="#F0F0F0"/>
<path fill-rule="evenodd" clip-rule="evenodd" d="M18.0263 26.3025H41.9888V27.1125H18.0263V26.3025ZM18.1388 26.415V27H41.8763V26.415H18.1388ZM16.8788 27.9113H43.1363V29.2163H16.8788V27.9113ZM16.9913 28.0238V29.1038H43.0238V28.0238H16.9913Z" fill="black"/>
<path d="M20.67 26.3588H22.47V31.9838H20.67V26.3588Z" fill="#F0F0F0"/>
<path fill-rule="evenodd" clip-rule="evenodd" d="M20.6138 26.3025H22.5263V32.04H20.6138V26.3025ZM20.7263 26.415V31.9275H22.4138V26.415H20.7263Z" fill="black"/>
<path d="M21.075 26.3588H22.0762V31.9838H21.0637L21.075 26.3588ZM29.0625 26.3588H30.8625V31.9838H29.0625V26.3588Z" fill="#F0F0F0"/>
<path fill-rule="evenodd" clip-rule="evenodd" d="M21.0189 26.3025H22.1326V32.04H21.0074L21.0189 26.3025ZM21.1312 26.415L21.1202 31.9275H22.0201V26.415H21.1312ZM29.0063 26.3025H30.9188V32.04H29.0063V26.3025ZM29.1188 26.415V31.9275H30.8063V26.415H29.1188Z" fill="black"/>
<path d="M29.4788 26.3588H30.4913V31.9838H29.4788V26.3588ZM37.5225 26.3588H39.3225V31.9838H37.5225V26.3588Z" fill="#F0F0F0"/>
<path fill-rule="evenodd" clip-rule="evenodd" d="M29.4225 26.3025H30.5475V32.04H29.4225V26.3025ZM29.535 26.415V31.9275H30.435V26.415H29.535ZM37.4662 26.3025H39.3787V32.04H37.4662V26.3025ZM37.5787 26.415V31.9275H39.2662V26.415H37.5787Z" fill="black"/>
<path d="M37.9163 26.3588H38.9288V31.9838H37.9163V26.3588Z" fill="#F0F0F0"/>
<path fill-rule="evenodd" clip-rule="evenodd" d="M37.86 26.3025H38.985V32.04H37.86V26.3025ZM37.9725 26.415V31.9275H38.8725V26.415H37.9725Z" fill="black"/>
<path fill-rule="evenodd" clip-rule="evenodd" d="M40.875 25.8413H19.1625V25.7288H40.875V25.8413ZM22.0875 27.1125H21.0525V27H22.0875V27.1125ZM30.4575 27.1125H29.49V27H30.4575V27.1125ZM38.94 27.1125H37.905V27H38.94V27.1125ZM22.0875 27.81H21.0525V27.6975H22.0875V27.81ZM30.4575 27.81H29.49V27.6975H30.4575V27.81ZM38.94 27.81H37.905V27.6975H38.94V27.81ZM22.0875 28.5188H21.0525V28.4063H22.0875V28.5188ZM30.4575 28.5188H29.49V28.4063H30.4575V28.5188ZM38.94 28.5188H37.905V28.4063H38.94V28.5188ZM22.0875 29.2163H21.0525V29.1038H22.0875V29.2163ZM30.4575 29.2163H29.49V29.1038H30.4575V29.2163ZM38.94 29.2163H37.905V29.1038H38.94V29.2163ZM22.0875 29.925H21.0525V29.8125H22.0875V29.925ZM30.4575 29.925H29.49V29.8125H30.4575V29.925ZM38.94 29.925H37.905V29.8125H38.94V29.925ZM22.0875 30.6225H21.0525V30.51H22.0875V30.6225ZM30.4575 30.6225H29.49V30.51H30.4575V30.6225ZM38.94 30.6225H37.905V30.51H38.94V30.6225ZM22.0875 31.3313H21.0525V31.2188H22.0875V31.3313ZM30.4575 31.3313H29.49V31.2188H30.4575V31.3313ZM38.94 31.3313H37.905V31.2188H38.94V31.3313Z" fill="black"/>
</g>
<defs>
<clipPath id="clip0_264_19645">
<rect width="60" height="45" fill="white"/>
</clipPath>
</defs>
</svg>
