<svg width="60" height="45" viewBox="0 0 60 45" fill="none" xmlns="http://www.w3.org/2000/svg">
<g clip-path="url(#clip0_264_8951)">
<path d="M0 0H60V45H0V0Z" fill="#0021AD"/>
<path d="M0 0H60V45L0 0Z" fill="#1C8A42"/>
<path d="M30 27.9187C32.9927 27.9187 35.4187 25.4927 35.4187 22.5C35.4187 19.5073 32.9927 17.0812 30 17.0812C27.0073 17.0812 24.5812 19.5073 24.5812 22.5C24.5812 25.4927 27.0073 27.9187 30 27.9187Z" fill="#FFC639"/>
<path d="M26.6906 20.0625C27.0656 20.5781 27.6281 21.4312 28.0781 21.2062C28.425 21.2062 28.6125 21.2344 28.6594 21.4687C29.2465 21.5268 29.8388 21.4342 30.3801 21.1996C30.9215 20.965 31.394 20.5962 31.7531 20.1281C31.7531 20.1281 31.8281 20.1281 31.8 19.7062C31.8 19.5187 32.0625 19.5562 32.0625 19.6125C32.1 19.7062 32.1 19.7719 32.1469 19.7812C32.2406 19.7437 32.4 19.5 32.5219 19.35C32.55 19.2844 32.5313 19.2094 32.5406 19.125C32.6063 18.9656 32.7656 19.0031 32.8031 19.0875L32.8594 19.2375C33.0281 19.35 33.3281 19.2375 33.3469 19.2375C33.375 19.1062 33.4594 19.125 33.4594 19.125C33.5719 19.0969 33.525 19.1062 33.6 19.1437C33.5344 19.8656 33.7406 19.8937 33.7219 20.2687C33.7313 20.6812 33.6 20.7937 33.6 20.9531C33.6375 21.1406 34.2563 21.15 34.0313 21.3187C33.8438 21.4125 34.0313 21.6 33.75 21.675C32.925 22.0969 32.775 22.4531 32.775 22.4531C32.775 22.4531 32.5688 22.8469 32.5406 22.8469C32.4 23.1094 32.2313 22.9594 32.1281 23.0906C32.0813 23.25 32.0344 23.6062 32.1281 23.7844C32.175 24.0375 32.1281 24.1781 32.0625 24.4312C32.0063 24.9562 31.8 25.0406 31.7719 25.2187C31.6781 25.425 31.7906 26.3437 31.6969 26.3437C31.0875 26.3625 30.6188 26.2312 30.375 26.1844C30.6094 25.1625 30.5156 24.2719 30.5156 24.1781C30.4594 23.4469 29.4281 23.625 29.2688 23.5219C29.1375 23.5031 29.0531 23.4 29.0156 23.3531C28.8656 23.3344 28.8094 23.2969 28.6688 23.2875C28.5938 23.325 28.6406 23.3625 28.4813 23.4094C28.0594 23.4562 27.8813 23.0531 27.8813 23.0531C27.9 22.9125 26.9531 23.0812 26.4469 22.9594C26.2313 23.0812 26.1375 23.4281 25.9688 23.4656C25.9688 23.5687 25.6875 23.3719 25.6313 23.2781C25.6125 22.9594 25.8938 22.8281 25.8938 22.8281C26.1188 22.6687 26.25 22.6406 26.3625 22.5375C26.4094 22.2656 26.3813 22.0687 26.5031 21.8719C26.5969 21.7125 26.7375 21.7781 26.8313 21.7219C26.9344 21.6469 26.9813 21.1969 26.8875 21.0656L26.4469 20.6719C26.3156 20.2875 26.6063 20.0344 26.6906 20.0625Z" fill="#1C8A42"/>
<path d="M52.6781 13.35C52.4344 12.3844 50.2406 10.2844 48.5812 8.9531C48.1875 8.6906 47.925 8.84998 47.9812 9.23435C48.1875 9.57185 48.3375 9.94685 48.5437 10.2937C48.6 10.5281 48.7125 10.6875 48.7687 10.9125C48.7687 10.9125 48.7875 11.3062 48.825 11.3437C49.3312 11.9062 49.4062 12.3844 49.4062 12.3844C49.6647 12.9388 50.0312 13.436 50.4844 13.8469C51.0656 14.2125 50.6344 15.3468 50.6531 15.9562C50.6531 16.3312 50.3812 16.2937 50.1375 16.2375C48.2531 14.5031 46.3781 14.5031 44.7187 13.9969C44.0812 13.9312 44.0625 14.2406 44.2781 14.4094C45.3113 15.5602 46.5557 16.5023 47.9437 17.1844L48.6656 17.6344L49.4906 18.3187C50.1281 18.7312 50.175 19.1062 50.175 19.1437C50.1937 19.9125 49.7812 20.5125 49.6594 20.7562C49.4437 21.5718 49.0031 21.7125 49.0031 21.7125C45.4781 24.0937 43.6219 24.7125 37.9031 23.9718C37.8094 23.9343 37.2656 24.0187 37.9031 24.2531C39.3562 24.7406 42.9375 25.5187 46.3969 23.8781C47.2406 23.2968 47.7844 23.4843 48.3937 23.1281C49.2504 22.5976 50.1362 22.1156 51.0469 21.6843C51.825 21.2625 53.9812 20.8031 54.4781 20.3906C55.05 20.3437 55.6406 20.2687 55.6781 19.7812C55.8656 19.6594 56.1469 19.7531 56.3531 19.35C56.8031 19.2656 56.7281 19.1062 56.7281 19.1062C56.6156 18.7875 56.1844 18.6562 55.8844 18.4219C55.4344 18.2719 55.1344 18.2344 54.8062 18.3844L54.4969 18.525C54.4969 18.525 54.0187 18.4594 54.0187 18.4219C52.95 18.3656 53.0531 14.8312 52.6781 13.3594V13.35Z" fill="#FFC639"/>
<path d="M55.1813 19.1437C55.1738 19.1649 55.1598 19.1838 55.1401 19.1993C55.1204 19.2148 55.0955 19.2267 55.0667 19.2342C55.0379 19.2418 55.0057 19.2449 54.9722 19.2433C54.9386 19.2417 54.9042 19.2355 54.8709 19.2251C54.8377 19.2146 54.8063 19.2001 54.7784 19.1823C54.7506 19.1645 54.7269 19.1439 54.7087 19.1215C54.6905 19.0992 54.6782 19.0756 54.6724 19.052C54.6666 19.0285 54.6675 19.0055 54.675 18.9844C54.6902 18.9417 54.7314 18.9091 54.7896 18.8939C54.8478 18.8786 54.9182 18.8819 54.9854 18.903C55.0525 18.9242 55.1109 18.9614 55.1476 19.0065C55.1843 19.0517 55.1965 19.101 55.1813 19.1437Z" fill="#1C8A42"/>
<path d="M11.292 18.96L10.524 18.24L9.75002 18.948L9.83402 17.904L8.79602 17.736L9.66602 17.148L9.15002 16.236L10.152 16.554L10.542 15.582L10.92 16.56L11.922 16.26L11.394 17.16L12.258 17.76L11.22 17.91L11.292 18.954V18.96Z" fill="#F0F0F0"/>
<path d="M14.004 27.6301L13.176 27.0841L12.372 27.6601L12.66 26.7301L11.844 26.1601L12.84 26.1361L13.14 25.2061L13.476 26.1241L14.478 26.1181L13.68 26.7001L13.998 27.6241L14.004 27.6301Z" fill="#F0F0F0"/>
</g>
<defs>
<clipPath id="clip0_264_8951">
<rect width="60" height="45" fill="white"/>
</clipPath>
</defs>
</svg>
