<svg width="60" height="45" viewBox="0 0 60 45" fill="none" xmlns="http://www.w3.org/2000/svg">
<g clip-path="url(#clip0_264_19796)">
<path fill-rule="evenodd" clip-rule="evenodd" d="M0 0H67.5703V11.25H0V0Z" fill="#FFFF00"/>
<path fill-rule="evenodd" clip-rule="evenodd" d="M0 11.25H67.5703V22.5H0V11.25Z" fill="#F0F0F0"/>
<path fill-rule="evenodd" clip-rule="evenodd" d="M0 22.5H67.5703V33.75H0V22.5Z" fill="#BE0027"/>
<path fill-rule="evenodd" clip-rule="evenodd" d="M0 33.75H67.5703V45H0V33.75Z" fill="#3B5AA3"/>
<path fill-rule="evenodd" clip-rule="evenodd" d="M0 0V45L33.5654 22.5615L0 0Z" fill="#239E46"/>
<path fill-rule="evenodd" clip-rule="evenodd" d="M13.8165 12.4277C6.34575 12.0498 2.9268 18.0088 2.93559 22.6143C2.91801 28.0635 8.08598 32.5459 12.8497 32.2822C10.2832 31.0693 7.13676 27.6504 7.11918 22.5879C7.09282 18.0088 9.71196 14.0185 13.8252 12.4277H13.8165Z" fill="#F0F0F0"/>
<path fill-rule="evenodd" clip-rule="evenodd" d="M13.7109 17.3145L12.6562 16.4971L11.373 16.9014L11.8301 15.6357L11.0566 14.5459L12.3926 14.5986L13.1836 13.5176L13.5615 14.8096L14.8271 15.2314L13.7197 15.9785L13.7109 17.3145ZM13.6846 21.8936L12.6299 21.0674L11.3467 21.4717L11.8125 20.2148L11.0303 19.125L12.375 19.1689L13.166 18.0967L13.5352 19.3799L14.8096 19.8105L13.6934 20.5576L13.6846 21.8936ZM13.7021 26.5166L12.6475 25.6904L11.373 26.0947L11.8301 24.8379L11.0566 23.748L12.3926 23.792L13.1836 22.7197L13.5615 24.0029L14.8271 24.4248L13.7197 25.1807L13.7021 26.5166ZM13.6846 31.1748L12.6299 30.3574L11.3379 30.7617L11.8037 29.4961L11.0215 28.4063L12.3662 28.459L13.1572 27.3779L13.5264 28.6699L14.8008 29.0918L13.6846 29.8389V31.1748Z" fill="#F0F0F0"/>
</g>
<defs>
<clipPath id="clip0_264_19796">
<rect width="60" height="45" fill="white"/>
</clipPath>
</defs>
</svg>
