<svg width="60" height="45" viewBox="0 0 60 45" fill="none" xmlns="http://www.w3.org/2000/svg">
<g clip-path="url(#clip0_264_16912)">
<path d="M0 30H60V45H0V30Z" fill="black"/>
<path d="M0 15H60V30H0V15Z" fill="#F0F0F0"/>
<path d="M0 0H60V15H0V0Z" fill="#CE1126"/>
<path d="M30.06 22.68L35.1975 27.45L34.83 18.7875C34.7775 17.475 33.6375 17.775 32.805 18.2475C31.9725 18.7875 31.005 18.7875 30 18.435C28.9875 18.7875 28.0275 18.7875 27.195 18.2475C26.37 17.775 25.2225 17.475 25.17 18.7875L24.8025 27.45L30.06 22.68Z" fill="#F0F0F0"/>
<path fill-rule="evenodd" clip-rule="evenodd" d="M25.8891 17.7995C26.3009 17.7683 26.8048 17.9678 27.2192 18.2052C27.22 18.2056 27.2208 18.2061 27.2215 18.2066C28.0374 18.7358 28.9805 18.7383 29.984 18.3889C29.9944 18.3853 30.0057 18.3853 30.0161 18.389C31.012 18.7382 31.9626 18.7358 32.7785 18.2066C32.7793 18.206 32.7801 18.2055 32.7809 18.2051C33.1989 17.9678 33.7028 17.7683 34.1137 17.7995C34.3213 17.8152 34.508 17.8902 34.6456 18.0513C34.7824 18.2115 34.8653 18.4509 34.8787 18.7855L35.2462 27.4479C35.247 27.4676 35.2359 27.4859 35.2179 27.4942C35.2 27.5025 35.1788 27.4991 35.1643 27.4857L30.0596 22.7461L24.8353 27.4861C24.8207 27.4993 24.7996 27.5025 24.7818 27.4941C24.764 27.4858 24.753 27.4675 24.7538 27.4479L25.1213 18.7855C25.1213 18.7855 25.1213 18.7855 25.1213 18.7855C25.1347 18.4508 25.2181 18.2114 25.3555 18.0512C25.4937 17.8901 25.6811 17.8152 25.8891 17.7995ZM30.06 22.68L30.0932 22.6442L35.1438 27.3336L34.7813 18.7895L34.7813 18.7894C34.7684 18.4678 34.6892 18.2525 34.5714 18.1146C34.4545 17.9776 34.2944 17.911 34.1063 17.8967C33.7263 17.8679 33.2446 18.0542 32.8303 18.2892C31.986 18.8362 31.008 18.8365 29.9999 18.4866C28.9847 18.8365 28.014 18.8362 27.1696 18.2891C26.7593 18.0542 26.2775 17.8679 25.8965 17.8967C25.7079 17.911 25.5471 17.9776 25.4295 18.1147C25.3113 18.2526 25.2316 18.4679 25.2187 18.7894L25.2187 18.7895L24.8562 27.3355L30.0272 22.6439L30.06 22.68Z" fill="#C09300"/>
<path d="M25.7625 18.4875L25.4025 26.91L24.8025 27.45L25.17 18.7875C25.3472 18.6516 25.5481 18.5499 25.7625 18.4875ZM26.4825 19.0875L26.1825 26.1375L25.5825 26.7525L25.9425 18.615C26.0625 18.735 26.415 19.0275 26.4825 19.0875ZM27.135 19.6275L26.9025 25.5075L26.415 25.98L26.715 19.275C26.835 19.3875 27.075 19.56 27.135 19.6275ZM27.8475 19.9275L27.615 24.9375L27.1425 25.32L27.375 19.7475C27.495 19.8 27.7275 19.9275 27.8475 19.9275ZM28.5075 19.9275L28.335 24.105L27.8475 24.5775L28.035 19.98C28.1475 19.98 28.455 19.98 28.5075 19.9275Z" fill="#C09300"/>
<path d="M30.24 23.625L30.96 26.91L30.72 27.15L30.4725 26.9625L30.0675 24.0375L30.24 26.9625L30 27.2625L29.7675 26.9625L29.94 24.0375L29.5275 26.9625L29.28 27.15L29.04 26.91L29.76 23.6325H30.24V23.625Z" fill="#C09300"/>
<path fill-rule="evenodd" clip-rule="evenodd" d="M29.7268 23.5912H30.24V23.6205L30.2803 23.6162L31.0051 26.9232L30.7238 27.2046L30.434 26.9851L30.1704 25.0813L30.2821 26.9759L29.9995 27.3292L29.7254 26.9755L29.839 25.0488L29.566 26.9851L29.2763 27.2046L28.9949 26.9232L29.7268 23.5912ZM30.2085 23.6737H29.7932L29.0851 26.8968L29.2838 27.0954L29.489 26.9399L29.8992 24.0317L29.9812 24.0399L29.8096 26.9495L30.0005 27.1958L30.1979 26.9491L30.0263 24.0399L30.1084 24.0318L30.511 26.9399L30.7163 27.0954L30.9149 26.8968L30.2085 23.6737Z" fill="#C09300"/>
<path d="M28.3875 22.1849L26.955 27.2624L28.9275 27.5624L29.76 23.7449L28.3875 22.1849Z" fill="#F0F0F0"/>
<path fill-rule="evenodd" clip-rule="evenodd" d="M28.3775 22.1411C28.3936 22.1374 28.4104 22.1429 28.4213 22.1552L29.7938 23.7152C29.8032 23.726 29.807 23.7406 29.804 23.7545L28.9715 27.572C28.9664 27.5952 28.9442 27.6105 28.9207 27.6069L26.9482 27.3069C26.9355 27.305 26.9242 27.2977 26.9172 27.2868C26.9102 27.276 26.9082 27.2627 26.9117 27.2502L28.3442 22.1727C28.3487 22.1569 28.3615 22.1447 28.3775 22.1411ZM28.4084 22.2768L27.0122 27.2256L28.8925 27.5116L29.7112 23.7576L28.4084 22.2768Z" fill="#C09300"/>
<path fill-rule="evenodd" clip-rule="evenodd" d="M29.0511 23.4877L28.1211 24.3727C28.1095 24.3838 28.0932 24.3884 28.0775 24.3851C28.0618 24.3818 28.0487 24.371 28.0425 24.3562L27.87 23.9437L27.96 23.9061L28.1052 24.2533L28.9839 23.4171L29.0511 23.4877Z" fill="#C09300"/>
<path fill-rule="evenodd" clip-rule="evenodd" d="M28.7065 24.7026L28.5115 22.8801L28.6085 22.8698L28.7904 24.5702L29.3087 23.8879L29.3863 23.9469L29.1644 24.2391L29.4039 25.0744L29.5168 24.9031L29.5982 24.9568L29.4393 25.1979L29.4769 25.329L29.3831 25.3559L29.3686 25.3051L28.9512 25.9384L29.1552 26.8998L29.0598 26.9201L28.8742 26.0449L28.4883 26.6366C28.4781 26.6523 28.4597 26.6607 28.441 26.6583C28.4224 26.6558 28.4069 26.6428 28.4011 26.6249L28.2011 26.0054L27.8215 26.6205C27.8113 26.6371 27.7922 26.646 27.773 26.6432C27.7537 26.6404 27.738 26.6264 27.7329 26.6076L27.4254 25.4676C27.4209 25.451 27.4256 25.4332 27.4376 25.4209L28.0526 24.7909C28.0648 24.7784 28.0828 24.7734 28.0997 24.7777C28.1166 24.7821 28.1299 24.7952 28.1345 24.812L28.2956 25.3984L28.6784 24.8858C28.6901 24.8702 28.7098 24.863 28.7287 24.8675C28.7476 24.872 28.7621 24.8872 28.7655 24.9063L28.9256 25.8001L29.3332 25.1817L29.0908 24.336L28.7938 24.7269C28.7817 24.7428 28.7612 24.7498 28.7419 24.7444C28.7227 24.739 28.7087 24.7225 28.7065 24.7026ZM28.8461 25.9095L28.6893 25.0341L28.3141 25.5366C28.3029 25.5515 28.2843 25.5588 28.266 25.5553C28.2477 25.5519 28.2329 25.5383 28.228 25.5204L28.063 24.9198L27.5268 25.4691L27.7977 26.4734L28.1735 25.8643C28.1835 25.8482 28.202 25.8393 28.2209 25.8415C28.2397 25.8438 28.2556 25.8569 28.2614 25.875L28.4625 26.4977L28.8461 25.9095Z" fill="#C09300"/>
<path fill-rule="evenodd" clip-rule="evenodd" d="M27.7805 26.5394C27.7989 26.5424 27.814 26.5557 27.8193 26.5736L28.0428 27.3297L28.3457 26.8249C28.3555 26.8085 28.3741 26.7993 28.393 26.8015C28.412 26.8037 28.428 26.8168 28.4339 26.835L28.6664 27.555L28.5736 27.5849L28.3741 26.9671L28.0693 27.475C28.0594 27.4916 28.0405 27.5007 28.0214 27.4983C28.0022 27.4959 27.9862 27.4823 27.9808 27.4638L27.7543 26.6977L27.4148 27.1781L27.3352 27.1218L27.7327 26.5593C27.7435 26.5441 27.762 26.5363 27.7805 26.5394Z" fill="#C09300"/>
<path d="M30 29.535C31.5 29.535 32.925 29.415 33.765 29.1825C34.1175 29.115 34.1175 28.935 34.1175 28.695C34.4775 28.575 34.2975 28.155 34.545 28.155C34.29 28.23 34.245 27.7425 33.945 27.8025C33.945 27.3825 33.5175 27.33 33.165 27.45C32.4525 27.6825 31.1925 27.7425 30 27.7425C28.8 27.6825 27.555 27.6825 26.835 27.4425C26.4825 27.33 26.0625 27.3825 26.0625 27.8025C25.7625 27.7425 25.71 28.2225 25.4625 28.155C25.71 28.155 25.5225 28.5825 25.8825 28.695C25.8825 28.935 25.8825 29.115 26.2425 29.1825C27.0675 29.415 28.5075 29.535 30 29.535Z" fill="#F0F0F0"/>
<path fill-rule="evenodd" clip-rule="evenodd" d="M26.2871 27.3378C26.4612 27.2776 26.6756 27.2972 26.8624 27.3568L26.8635 27.3571L26.8635 27.3571C27.2117 27.4732 27.6929 27.5328 28.2436 27.5702C28.5829 27.5933 28.9434 27.6078 29.3114 27.6225C29.5399 27.6317 29.7712 27.641 30.0022 27.6525C31.1961 27.6524 32.4402 27.5917 33.1366 27.3646C33.3238 27.301 33.54 27.2795 33.7158 27.3384C33.8053 27.3685 33.8867 27.4203 33.9453 27.5001C33.9882 27.5586 34.0163 27.6286 34.0283 27.7092C34.0869 27.7155 34.1379 27.7381 34.1819 27.7697C34.2448 27.8148 34.2942 27.8787 34.3333 27.9296L34.3346 27.9314C34.3771 27.9866 34.4078 28.0266 34.4405 28.0516C34.4555 28.0631 34.4688 28.0699 34.483 28.0721C34.5028 28.0673 34.5235 28.065 34.545 28.065C34.5898 28.065 34.6277 28.0979 34.6341 28.1422C34.6405 28.1865 34.6133 28.2287 34.5704 28.2414C34.5511 28.247 34.5324 28.2505 34.5144 28.252C34.5114 28.2544 34.5074 28.2587 34.5026 28.2671C34.489 28.2909 34.4808 28.3233 34.4676 28.3751C34.4654 28.3837 34.4631 28.3928 34.4606 28.4025C34.4449 28.4635 34.4229 28.5402 34.3762 28.6101C34.3373 28.6681 34.2832 28.7189 34.2074 28.7556C34.2065 28.8529 34.1997 28.957 34.153 29.0455C34.0915 29.162 33.9735 29.2336 33.7856 29.2702C32.933 29.5054 31.4999 29.625 30 29.625C28.5081 29.625 27.06 29.5055 26.2219 29.2702C26.031 29.2338 25.9111 29.1626 25.8483 29.0462C25.8006 28.9578 25.7936 28.8537 25.7926 28.7566C25.717 28.7212 25.6631 28.6709 25.6247 28.6128C25.5784 28.5427 25.5576 28.4653 25.5428 28.4039C25.5403 28.3934 25.538 28.3836 25.5358 28.3744C25.5237 28.3231 25.516 28.2907 25.5029 28.2667C25.4976 28.257 25.4934 28.2529 25.4906 28.2509C25.474 28.2497 25.4567 28.2467 25.4388 28.2418C25.3953 28.23 25.3673 28.1878 25.3733 28.1431C25.3793 28.0984 25.4174 28.065 25.4625 28.065C25.4818 28.065 25.5006 28.0669 25.5186 28.0708C25.533 28.0687 25.5469 28.0616 25.5632 28.049C25.5953 28.024 25.6254 27.9856 25.6662 27.9335C25.6681 27.931 25.67 27.9286 25.672 27.9261C25.7118 27.8752 25.7619 27.8123 25.8256 27.7679C25.8698 27.7371 25.9208 27.7151 25.9791 27.709C25.9909 27.6288 26.0185 27.5591 26.0606 27.5006C26.1183 27.4206 26.1986 27.3684 26.2871 27.3378ZM25.6684 28.1951C25.6896 28.24 25.7021 28.2939 25.7123 28.3382C25.7142 28.3464 25.716 28.3543 25.7178 28.3618C25.7321 28.4213 25.7473 28.4718 25.7749 28.5136C25.8004 28.5523 25.8392 28.5872 25.9093 28.6091C25.9469 28.6209 25.9725 28.6557 25.9725 28.695C25.9725 28.822 25.9747 28.9014 26.0067 28.9607C26.0335 29.0103 26.0923 29.0628 26.2591 29.0941C26.2617 29.0946 26.2643 29.0952 26.2669 29.0959C27.0794 29.3249 28.5091 29.445 30 29.445C31.4981 29.445 32.9131 29.3249 33.741 29.0958C33.7433 29.0951 33.7457 29.0946 33.7481 29.0941C33.9105 29.063 33.9677 29.011 33.9939 28.9614C34.0254 28.9017 34.0275 28.8219 34.0275 28.695C34.0275 28.6563 34.0523 28.6219 34.089 28.6096C34.1599 28.586 34.1999 28.5498 34.2266 28.51C34.2551 28.4674 34.2711 28.4166 34.2863 28.3576C34.2882 28.3503 34.29 28.3427 34.292 28.3348C34.3025 28.2925 34.3152 28.2415 34.3358 28.1981C34.3342 28.197 34.3327 28.1958 34.3312 28.1946C34.2788 28.1546 34.2346 28.0968 34.1985 28.0497C34.1958 28.0461 34.1931 28.0426 34.1905 28.0392C34.149 27.9851 34.1149 27.9431 34.0771 27.916C34.0439 27.8922 34.0098 27.8813 33.9627 27.8908C33.9362 27.8961 33.9088 27.8892 33.8879 27.8721C33.8671 27.855 33.855 27.8295 33.855 27.8025C33.855 27.7133 33.8325 27.6508 33.8001 27.6066C33.7676 27.5623 33.72 27.5297 33.6586 27.5091C33.5327 27.4669 33.3591 27.479 33.194 27.5352L33.1929 27.5356L33.1929 27.5356C32.4646 27.7732 31.1902 27.8325 30 27.8325C29.9985 27.8325 29.997 27.8325 29.9955 27.8324C29.7678 27.821 29.5373 27.8118 29.3085 27.8026C28.9382 27.7877 28.5725 27.773 28.2314 27.7498C27.6799 27.7123 27.1788 27.6519 26.8071 27.5281C26.6415 27.4753 26.47 27.465 26.346 27.5079C26.2855 27.5288 26.2387 27.5614 26.2066 27.6059C26.1747 27.6502 26.1525 27.7129 26.1525 27.8025C26.1525 27.8295 26.1404 27.855 26.1196 27.8721C26.0987 27.8892 26.0713 27.8961 26.0449 27.8908C25.9972 27.8812 25.9623 27.8921 25.9284 27.9156C25.8901 27.9423 25.8554 27.9839 25.8137 28.0371C25.8104 28.0412 25.8071 28.0455 25.8038 28.0498C25.7678 28.0959 25.7243 28.1517 25.6738 28.191C25.672 28.1924 25.6702 28.1938 25.6684 28.1951Z" fill="#C09300"/>
<path d="M27.9675 27.2625C28.4475 27.33 28.9875 27.3825 29.4075 27.33C29.6475 27.33 29.82 27.7425 29.34 27.8025C28.9275 27.855 28.2675 27.8025 27.915 27.7425C27.4511 27.6613 26.9907 27.5612 26.535 27.4425C26.115 27.2625 26.415 26.9175 26.655 26.9625C27.0832 27.0997 27.5223 27.2 27.9675 27.2625ZM32.0325 27.2625C31.5525 27.33 31.0125 27.3825 30.6075 27.33C30.3525 27.33 30.18 27.7425 30.66 27.8025C31.08 27.855 31.7325 27.8025 32.085 27.7425C32.385 27.6825 33.045 27.57 33.465 27.4425C33.885 27.2625 33.585 26.9175 33.345 26.9625C32.9169 27.0997 32.4778 27.2001 32.0325 27.2625Z" fill="#F0F0F0"/>
<path fill-rule="evenodd" clip-rule="evenodd" d="M26.5509 27.3963C26.4545 27.3543 26.4069 27.3063 26.3868 27.2642C26.3671 27.223 26.3705 27.1805 26.391 27.1402C26.4119 27.099 26.4508 27.0613 26.4985 27.0364C26.5451 27.0121 26.5967 27.0019 26.6432 27.0099C27.073 27.1474 27.5138 27.2481 27.9607 27.3108M26.5509 27.3963C27.0041 27.5142 27.462 27.6137 27.9233 27.6945C28.2735 27.754 28.9281 27.8058 29.3339 27.7541L29.334 27.7541C29.4475 27.7399 29.5151 27.7057 29.5525 27.6687C29.5888 27.6328 29.6002 27.5907 29.5953 27.5495C29.585 27.4621 29.5024 27.3804 29.4103 27.3788C28.9838 27.4315 28.4397 27.3781 27.9607 27.3108M26.4534 26.95C26.5164 26.9171 26.5913 26.9009 26.664 26.9146C26.666 26.915 26.668 26.9154 26.6699 26.9161C27.0954 27.0524 27.5318 27.1521 27.9743 27.2142L27.9675 27.2625L27.9743 27.2142C28.4542 27.2817 28.9885 27.3332 29.4015 27.2816C29.4035 27.2814 29.4055 27.2812 29.4075 27.2812C29.5543 27.2812 29.6764 27.405 29.6922 27.538C29.7004 27.6074 29.68 27.6797 29.6211 27.738C29.5634 27.7952 29.4726 27.835 29.3461 27.8509C28.927 27.9042 28.2617 27.851 27.9068 27.7906L27.9066 27.7905C27.4414 27.7091 26.9797 27.6087 26.5227 27.4897C26.5204 27.4891 26.518 27.4883 26.5158 27.4873C26.4044 27.4396 26.3329 27.3776 26.2988 27.3062C26.2641 27.2335 26.2721 27.1589 26.3041 27.096C26.3356 27.0341 26.3905 26.9828 26.4534 26.95ZM33.7012 27.3062C33.6671 27.3776 33.5956 27.4396 33.4842 27.4873C33.4826 27.488 33.4809 27.4886 33.4792 27.4891C33.1427 27.5913 32.6534 27.6839 32.3177 27.7474C32.2315 27.7637 32.1553 27.7781 32.0946 27.7903L32.0932 27.7906C31.7383 27.851 31.0806 27.9042 30.654 27.8509C30.5275 27.8351 30.4366 27.7952 30.3791 27.7379C30.3203 27.6795 30.3004 27.6068 30.3098 27.5372C30.328 27.4032 30.4548 27.2812 30.6075 27.2812C30.6096 27.2812 30.6117 27.2814 30.6138 27.2816C31.0116 27.3332 31.5457 27.2817 32.0257 27.2142L32.0325 27.2625L32.0257 27.2142C32.4682 27.1522 32.9046 27.0524 33.3301 26.9161C33.3321 26.9154 33.334 26.915 33.336 26.9146C33.4088 26.9009 33.4836 26.9171 33.5466 26.95C33.6096 26.9828 33.6644 27.0341 33.696 27.096C33.728 27.1589 33.7359 27.2335 33.7012 27.3062ZM32.0393 27.3108C31.5606 27.3781 31.0164 27.4315 30.6046 27.3788C30.5035 27.3804 30.4182 27.4639 30.4064 27.5503C30.4009 27.5913 30.4119 27.633 30.4478 27.6688C30.4849 27.7057 30.5525 27.7399 30.6661 27.7541C31.0792 27.8058 31.7259 27.7541 32.0761 27.6945C32.1386 27.6821 32.2161 27.6674 32.3033 27.6509C32.6383 27.5875 33.1176 27.4967 33.4482 27.3966C33.5452 27.3546 33.5931 27.3064 33.6132 27.2642C33.6329 27.223 33.6296 27.1805 33.6091 27.1402C33.5881 27.099 33.5492 27.0613 33.5015 27.0364C33.4549 27.0121 33.4033 27.002 33.3568 27.0099C32.927 27.1475 32.4862 27.2481 32.0393 27.3108" fill="#C09300"/>
<path d="M26.475 27.03C26.115 26.9625 25.95 27.3825 26.0625 27.6225C26.115 27.5025 26.3625 27.5025 26.415 27.3825C26.4825 27.2025 26.3625 27.2025 26.4825 27.03H26.475ZM27.915 28.1325C27.915 27.8925 28.1475 27.9225 28.1475 27.6825C28.1475 27.57 28.0875 27.3825 27.9675 27.3825C27.905 27.3861 27.846 27.4125 27.8018 27.4568C27.7575 27.501 27.7311 27.56 27.7275 27.6225C27.675 27.855 27.915 27.8925 27.915 28.1325ZM29.6175 27.45C29.97 27.45 29.9325 27.9225 29.7675 28.1625C29.7675 27.99 29.4675 27.9225 29.4675 27.8025C29.4675 27.6225 29.7375 27.6225 29.6175 27.45ZM33.5175 27.03C33.885 26.9625 34.0575 27.3825 33.9375 27.6225C33.885 27.5025 33.6375 27.5025 33.585 27.3825C33.5175 27.2025 33.6375 27.2025 33.5175 27.03ZM32.1 28.125C32.1 27.885 31.86 27.915 31.86 27.675C31.86 27.5625 31.92 27.375 32.04 27.375C32.1025 27.3786 32.1615 27.405 32.2057 27.4493C32.25 27.4935 32.2764 27.5525 32.28 27.615C32.3325 27.8475 32.0925 27.885 32.0925 28.125H32.1ZM30.375 27.45C30.0225 27.45 30.06 27.9225 30.225 28.1625C30.225 27.99 30.525 27.9225 30.525 27.8025C30.525 27.6225 30.255 27.6225 30.375 27.45Z" fill="#F0F0F0"/>
<path fill-rule="evenodd" clip-rule="evenodd" d="M26.4794 26.9812C26.2777 26.9453 26.1291 27.0466 26.0492 27.1868C25.9704 27.3249 25.9544 27.5067 26.0184 27.6432C26.0265 27.6605 26.044 27.6715 26.0631 27.6712C26.0823 27.671 26.0995 27.6595 26.1072 27.642C26.1145 27.6252 26.1301 27.6094 26.1573 27.5931C26.1848 27.5767 26.2185 27.5631 26.2569 27.5477L26.2588 27.547C26.2949 27.5325 26.3354 27.5163 26.3702 27.4956C26.4057 27.4744 26.4408 27.4452 26.4597 27.402C26.46 27.4012 26.4603 27.4004 26.4607 27.3996C26.4793 27.3498 26.4858 27.3104 26.4859 27.2759C26.486 27.2493 26.4821 27.2257 26.4792 27.2078C26.4785 27.2036 26.4778 27.1998 26.4773 27.1962C26.4744 27.1771 26.4736 27.1625 26.4782 27.1442C26.4829 27.1249 26.4945 27.0981 26.5225 27.0578C26.5329 27.0429 26.5341 27.0235 26.5257 27.0074C26.5173 26.9913 26.5007 26.9812 26.4825 26.9812H26.4794ZM26.4014 27.0715C26.2788 27.0709 26.1886 27.1392 26.1339 27.2351C26.0832 27.324 26.0656 27.4329 26.0827 27.5256C26.0908 27.5197 26.099 27.5143 26.1074 27.5094C26.1421 27.4886 26.1826 27.4724 26.2188 27.458L26.2207 27.4572C26.259 27.4419 26.2927 27.4283 26.3202 27.4119C26.3469 27.3959 26.3623 27.3804 26.3699 27.364C26.3845 27.3245 26.3883 27.2968 26.3884 27.2755C26.3885 27.2578 26.3862 27.2442 26.3835 27.2273C26.3826 27.2221 26.3817 27.2166 26.3809 27.2106C26.3771 27.1856 26.3747 27.1567 26.3835 27.1208C26.3874 27.1052 26.3932 27.0889 26.4014 27.0715ZM33.5175 27.03L33.4775 27.0578C33.5055 27.0981 33.5171 27.1249 33.5219 27.1442C33.5264 27.1625 33.5256 27.1771 33.5227 27.1962C33.5222 27.1998 33.5216 27.2036 33.5209 27.2078C33.5179 27.2257 33.514 27.2493 33.5141 27.2759C33.5143 27.3104 33.5207 27.3498 33.5394 27.3996C33.5397 27.4004 33.54 27.4012 33.5403 27.402C33.5593 27.4452 33.5943 27.4744 33.6299 27.4956C33.6646 27.5163 33.7051 27.5325 33.7413 27.547L33.7432 27.5477C33.7815 27.5631 33.8152 27.5767 33.8427 27.5931C33.8699 27.6094 33.8855 27.6252 33.8928 27.642C33.9004 27.6593 33.9173 27.6707 33.9363 27.6712C33.9552 27.6717 33.9727 27.6612 33.9811 27.6443C34.0497 27.5072 34.0334 27.3246 33.9524 27.1863C33.8697 27.0449 33.7158 26.944 33.5087 26.982L33.5175 27.03ZM33.8682 27.2355C33.8131 27.1413 33.722 27.073 33.5986 27.0715C33.6068 27.0889 33.6126 27.1052 33.6165 27.1208C33.6254 27.1567 33.6229 27.1856 33.6192 27.2106C33.6183 27.2166 33.6174 27.2221 33.6165 27.2273C33.6138 27.2442 33.6115 27.2578 33.6116 27.2755C33.6117 27.2968 33.6155 27.3245 33.6301 27.364C33.6377 27.3804 33.6532 27.3959 33.6798 27.4119C33.7073 27.4283 33.741 27.4419 33.7794 27.4572L33.7813 27.458C33.8174 27.4724 33.8579 27.4886 33.8927 27.5094C33.9016 27.5147 33.9104 27.5205 33.919 27.5269C33.9382 27.4343 33.9206 27.325 33.8682 27.2355ZM31.9487 27.5043C31.9223 27.5581 31.9088 27.6257 31.9088 27.675C31.9088 27.7259 31.9212 27.7598 31.9384 27.7863C31.9566 27.8144 31.9814 27.8364 32.0121 27.8633L32.0139 27.8649C32.0387 27.8865 32.0674 27.9117 32.0916 27.9438C32.112 27.9077 32.1361 27.8771 32.1578 27.8495C32.1611 27.8453 32.1644 27.8412 32.1675 27.8372C32.1942 27.8029 32.215 27.7741 32.2273 27.7417C32.2389 27.711 32.2436 27.6749 32.2325 27.6257C32.2319 27.6231 32.2315 27.6204 32.2313 27.6178C32.2284 27.5672 32.2071 27.5195 32.1713 27.4837C32.1358 27.4483 32.0887 27.427 32.0387 27.4237C32.008 27.4244 31.976 27.449 31.9487 27.5043ZM32.1455 28.0756C32.1577 28.0078 32.1947 27.9606 32.2368 27.9069C32.2393 27.9036 32.2418 27.9004 32.2444 27.8972C32.2711 27.8629 32.3005 27.8238 32.3185 27.7762C32.3367 27.728 32.3425 27.6735 32.3284 27.6081C32.3233 27.5352 32.292 27.4665 32.2402 27.4148C32.1875 27.3621 32.1172 27.3306 32.0428 27.3263C32.0423 27.3263 32.0418 27.3263 32.0413 27.3262C32.0408 27.3262 32.0404 27.3262 32.04 27.3262C31.9512 27.3262 31.8937 27.3954 31.8613 27.4613C31.8277 27.5293 31.8113 27.6118 31.8113 27.675C31.8113 27.744 31.8288 27.7964 31.8566 27.8393C31.8828 27.8797 31.9172 27.9098 31.9461 27.9351L31.9479 27.9367C31.9787 27.9636 32.0034 27.9856 32.0216 28.0137C32.0326 28.0307 32.0417 28.0507 32.0468 28.0764C32.0448 28.0918 32.0438 28.1079 32.0438 28.125C32.0438 28.1519 32.0656 28.1737 32.0925 28.1737H32.1C32.1269 28.1737 32.1488 28.1519 32.1488 28.125C32.1488 28.1075 32.1476 28.0911 32.1455 28.0756ZM27.9647 27.3338C27.9656 27.3337 27.9666 27.3337 27.9675 27.3337C28.0563 27.3337 28.1138 27.4029 28.1462 27.4688C28.1798 27.5368 28.1963 27.6193 28.1963 27.6825C28.1963 27.7512 28.1794 27.8034 28.1525 27.8462C28.127 27.8867 28.0937 27.9168 28.0657 27.9421L28.0639 27.9436C28.0342 27.9705 28.0103 27.9925 27.9926 28.0206C27.9759 28.0471 27.9638 28.0812 27.9638 28.1325H27.8663C27.8663 28.0363 27.8223 27.9802 27.7707 27.9144C27.7682 27.9111 27.7657 27.9079 27.7631 27.9047C27.7364 27.8704 27.7071 27.8313 27.6891 27.7837C27.6708 27.7355 27.665 27.681 27.6791 27.6156C27.6843 27.5427 27.7155 27.474 27.7673 27.4223C27.82 27.3696 27.8903 27.3381 27.9647 27.3338ZM27.9185 27.956C27.8976 27.9178 27.8724 27.8858 27.8497 27.857C27.8464 27.8528 27.8432 27.8487 27.84 27.8447C27.8133 27.8104 27.7925 27.7816 27.7803 27.7492C27.7686 27.7185 27.764 27.6824 27.7751 27.6332C27.7757 27.6306 27.776 27.6279 27.7762 27.6253C27.7791 27.5747 27.8005 27.527 27.8362 27.4912C27.8717 27.4558 27.9188 27.4345 27.9688 27.4312C27.9996 27.4319 28.0315 27.4565 28.0588 27.5118C28.0852 27.5656 28.0988 27.6332 28.0988 27.6825C28.0988 27.7337 28.0866 27.7678 28.0699 27.7943C28.0523 27.8224 28.0284 27.8444 27.9986 27.8713L27.9968 27.8729C27.9718 27.8954 27.9426 27.9219 27.9185 27.956ZM29.5743 27.4274C29.5827 27.4113 29.5994 27.4012 29.6175 27.4012C29.7175 27.4012 29.7951 27.4353 29.849 27.4948C29.9017 27.5531 29.9274 27.6309 29.9351 27.7116C29.9503 27.8719 29.8962 28.0613 29.8077 28.1901C29.7956 28.2077 29.7734 28.2154 29.753 28.209C29.7327 28.2027 29.7188 28.1838 29.7188 28.1625C29.7188 28.1348 29.7071 28.1092 29.6838 28.0822C29.6599 28.0546 29.6267 28.0292 29.5892 28.0025C29.583 27.9981 29.5766 27.9936 29.5702 27.989C29.5396 27.9675 29.507 27.9445 29.4814 27.921C29.4508 27.8928 29.4188 27.8538 29.4188 27.8025C29.4188 27.6969 29.4928 27.6372 29.5408 27.5986C29.5463 27.5941 29.5515 27.59 29.5562 27.5861C29.583 27.5636 29.5944 27.5499 29.5982 27.538C29.6004 27.5307 29.6027 27.5141 29.5775 27.4778C29.5671 27.4629 29.5659 27.4435 29.5743 27.4274ZM29.6956 27.5094C29.7303 27.5201 29.7566 27.5381 29.7767 27.5603C29.8109 27.5981 29.8316 27.6534 29.838 27.7208C29.8478 27.8235 29.8233 27.9438 29.7777 28.0445C29.7714 28.0354 29.7646 28.0267 29.7575 28.0184C29.7252 27.9811 29.6833 27.9498 29.6458 27.9231C29.6384 27.9178 29.6312 27.9127 29.6242 27.9078C29.5939 27.8864 29.5679 27.8681 29.5474 27.8492C29.5217 27.8256 29.5163 27.8111 29.5163 27.8025C29.5163 27.7458 29.5518 27.7164 29.603 27.6739C29.6081 27.6697 29.6134 27.6653 29.6188 27.6608C29.6446 27.6392 29.6781 27.6093 29.6912 27.567C29.6971 27.548 29.6984 27.5289 29.6956 27.5094ZM30.1435 27.4948C30.1974 27.4353 30.275 27.4012 30.375 27.4012C30.3932 27.4012 30.4098 27.4113 30.4182 27.4274C30.4266 27.4435 30.4254 27.4629 30.415 27.4778C30.3898 27.5141 30.3921 27.5307 30.3944 27.538C30.3981 27.5499 30.4096 27.5636 30.4363 27.5861C30.441 27.59 30.4462 27.5941 30.4517 27.5986C30.4997 27.6372 30.5738 27.6969 30.5738 27.8025C30.5738 27.8538 30.5417 27.8928 30.5112 27.921C30.4855 27.9445 30.4529 27.9675 30.4224 27.989C30.4159 27.9936 30.4095 27.9981 30.4033 28.0025C30.3658 28.0292 30.3327 28.0546 30.3087 28.0822C30.2854 28.1092 30.2738 28.1348 30.2738 28.1625C30.2738 28.1838 30.2599 28.2027 30.2395 28.209C30.2191 28.2154 30.1969 28.2077 30.1848 28.1901C30.0963 28.0613 30.0422 27.8719 30.0574 27.7116C30.0651 27.6309 30.0908 27.5531 30.1435 27.4948ZM30.2148 28.0445C30.1692 27.9438 30.1447 27.8235 30.1545 27.7208C30.1609 27.6534 30.1816 27.5981 30.2158 27.5603C30.2359 27.5381 30.2622 27.5201 30.2969 27.5094C30.2941 27.5289 30.2954 27.548 30.3013 27.567C30.3144 27.6093 30.348 27.6392 30.3737 27.6608C30.3791 27.6653 30.3844 27.6697 30.3895 27.6739C30.4407 27.7164 30.4763 27.7458 30.4763 27.8025C30.4763 27.8111 30.4708 27.8256 30.4451 27.8492C30.4246 27.8681 30.3986 27.8864 30.3683 27.9078C30.3613 27.9127 30.3541 27.9178 30.3467 27.9231C30.3092 27.9498 30.2674 27.9811 30.235 28.0184C30.2279 28.0267 30.2211 28.0354 30.2148 28.0445Z" fill="#C09300"/>
<path d="M26.6025 27.15C26.7225 27.15 26.9025 27.2025 26.955 27.27L26.6025 27.15ZM27.195 27.33C27.255 27.33 27.495 27.3825 27.6075 27.45L27.195 27.33ZM29.34 27.57C29.2275 27.57 28.9875 27.57 28.9275 27.6225L29.34 27.5625V27.57ZM28.6875 27.57C28.62 27.5025 28.3875 27.5025 28.2675 27.57H28.6875ZM33.3975 27.15C33.2703 27.1516 33.1468 27.1936 33.045 27.27L33.3975 27.15ZM32.8125 27.33C32.7375 27.33 32.5125 27.3825 32.3925 27.45L32.8125 27.33ZM30.66 27.57C30.7725 27.57 31.0125 27.57 31.08 27.6225L30.66 27.5625V27.57ZM31.3125 27.57C31.38 27.5025 31.6125 27.5025 31.7325 27.57H31.3125Z" fill="#F0F0F0"/>
<path fill-rule="evenodd" clip-rule="evenodd" d="M33.4308 27.1443C33.4336 27.1607 33.4241 27.1766 33.4084 27.182L33.0559 27.302C33.0402 27.3073 33.0229 27.3005 33.0152 27.2858C33.0074 27.2711 33.0115 27.253 33.0248 27.243C33.1323 27.1624 33.2627 27.118 33.3971 27.1163C33.4137 27.1161 33.428 27.1279 33.4308 27.1443ZM26.5692 27.1445C26.5719 27.1282 26.586 27.1163 26.6025 27.1163C26.6667 27.1163 26.7452 27.1302 26.8145 27.1526C26.8492 27.1639 26.8825 27.1775 26.911 27.1932C26.939 27.2087 26.9645 27.2273 26.9816 27.2493C26.9908 27.2611 26.9911 27.2775 26.9825 27.2896C26.9738 27.3017 26.9582 27.3068 26.9441 27.302L26.5916 27.182C26.576 27.1767 26.5665 27.1608 26.5692 27.1445ZM27.1616 27.3253C27.164 27.3086 27.1782 27.2963 27.195 27.2963C27.2298 27.2963 27.3085 27.3105 27.3902 27.3321C27.4724 27.3538 27.5644 27.3848 27.6249 27.4211C27.6394 27.4298 27.6452 27.448 27.6384 27.4635C27.6316 27.4791 27.6144 27.4872 27.5981 27.4824L27.1856 27.3624C27.1694 27.3577 27.1592 27.3419 27.1616 27.3253ZM32.6107 27.3321C32.6918 27.3104 32.7703 27.2963 32.8125 27.2963C32.8293 27.2963 32.8436 27.3087 32.8459 27.3253C32.8483 27.342 32.838 27.3578 32.8218 27.3625L32.4018 27.4825C32.3853 27.4872 32.368 27.4788 32.3614 27.463C32.3548 27.4472 32.361 27.429 32.376 27.4206C32.4396 27.3848 32.529 27.3539 32.6107 27.3321ZM28.6186 27.4993C28.6543 27.5084 28.6883 27.5231 28.7114 27.5462C28.721 27.5558 28.7239 27.5703 28.7187 27.5829C28.7135 27.5955 28.7012 27.6038 28.6875 27.6038H28.2675C28.2522 27.6038 28.2387 27.5934 28.2349 27.5786C28.231 27.5637 28.2376 27.5481 28.251 27.5406C28.3177 27.503 28.4122 27.4856 28.4972 27.4856C28.5401 27.4856 28.5821 27.4901 28.6186 27.4993ZM31.5028 27.4856C31.5878 27.4856 31.6823 27.503 31.7491 27.5406C31.7624 27.5481 31.769 27.5637 31.7652 27.5786C31.7613 27.5934 31.7479 27.6038 31.7325 27.6038H31.3125C31.2989 27.6038 31.2866 27.5955 31.2813 27.5829C31.2761 27.5703 31.279 27.5558 31.2886 27.5462C31.3117 27.5231 31.3457 27.5084 31.3814 27.4993C31.4179 27.4901 31.4599 27.4856 31.5028 27.4856ZM29.3621 27.537C29.3695 27.5434 29.3738 27.5527 29.3738 27.5625V27.57C29.3738 27.5887 29.3586 27.6038 29.34 27.6038C29.3252 27.6038 29.3084 27.6038 29.2901 27.6039L28.9324 27.6559C28.9176 27.6581 28.9031 27.6502 28.8969 27.6366C28.8906 27.6231 28.894 27.607 28.9053 27.5971C28.9271 27.5781 28.9606 27.5668 28.994 27.5592C29.0289 27.5514 29.0698 27.5463 29.1114 27.5429C29.1708 27.5382 29.2336 27.5368 29.285 27.5364L29.3352 27.5291C29.3448 27.5277 29.3547 27.5306 29.3621 27.537ZM30.6379 27.537C30.6453 27.5306 30.6551 27.5277 30.6648 27.5291L30.716 27.5364C30.7673 27.5368 30.8298 27.5382 30.8896 27.5429C30.9316 27.5463 30.9731 27.5514 31.0089 27.5592C31.0436 27.5668 31.0776 27.5779 31.1007 27.5959C31.1128 27.6053 31.1171 27.6216 31.1111 27.6357C31.1051 27.6498 31.0904 27.6581 31.0752 27.6559L30.711 27.6039C30.6923 27.6038 30.6751 27.6038 30.66 27.6038C30.6414 27.6038 30.6263 27.5887 30.6263 27.57V27.5625C30.6263 27.5527 30.6305 27.5434 30.6379 27.537Z" fill="#C09300"/>
<path d="M26.4975 28.095C26.46 28.0875 26.4375 28.05 26.4525 28.02C26.46 27.9675 26.4975 27.945 26.5275 27.96C26.5575 27.96 26.595 28.005 26.595 28.02L26.565 28.0725L26.55 28.08C26.55 28.095 26.52 28.095 26.4975 28.095ZM30.6225 28.3875C30.6075 28.3875 30.5775 28.35 30.5775 28.335C30.5775 28.305 30.6225 28.26 30.6525 28.26L30.7125 28.29C30.735 28.3125 30.735 28.3575 30.705 28.38C30.69 28.395 30.645 28.395 30.6225 28.38V28.3875ZM30.645 28.575C30.615 28.56 30.6075 28.545 30.6 28.515C30.6 28.4775 30.6 28.47 30.6375 28.4475L30.6675 28.4325L30.6975 28.4475C30.7275 28.4625 30.75 28.4775 30.75 28.5075C30.75 28.53 30.7275 28.5525 30.6975 28.5675C30.675 28.5825 30.6675 28.5825 30.645 28.5675V28.575Z" fill="#C09300"/>
<path d="M26.835 27.75C26.805 27.75 26.7675 27.78 26.745 27.795C26.7 27.8025 26.64 27.8325 26.595 27.795C26.55 27.7875 26.49 27.795 26.4825 27.855C26.49 27.9075 26.5575 27.93 26.6025 27.9C26.6325 27.8625 26.715 27.8325 26.73 27.9C26.6925 27.96 26.7 28.0275 26.67 28.08C26.67 28.1175 26.6475 28.1475 26.6325 28.1775C26.595 28.1775 26.5575 28.1775 26.5275 28.2C26.5042 28.2 26.4813 28.2054 26.4604 28.2158C26.4396 28.2263 26.4215 28.2414 26.4075 28.26C26.3775 28.305 26.3475 28.35 26.34 28.41C26.3475 28.455 26.415 28.47 26.46 28.4775L26.61 28.5225L26.85 28.59C26.97 28.6275 27.09 28.6425 27.21 28.6725L27.2475 28.68C27.3 28.695 27.3225 28.6425 27.3225 28.605L27.3975 28.335C27.4125 28.2975 27.435 28.2225 27.3675 28.2375C27.33 28.26 27.2925 28.2975 27.2475 28.2975C27.18 28.2975 27.2175 28.3725 27.2475 28.395C27.2475 28.44 27.2325 28.4925 27.21 28.53C27.165 28.5525 27.12 28.53 27.075 28.515C27.0375 28.515 26.9475 28.4925 26.985 28.44L27.0225 28.305C27.045 28.26 27.045 28.2075 27.06 28.155C27.03 28.1025 26.985 28.1775 26.9475 28.185C26.9175 28.2 26.8275 28.2075 26.8725 28.26C26.9175 28.29 26.8875 28.3425 26.8725 28.3875C26.8725 28.44 26.8125 28.4625 26.7675 28.44C26.7225 28.44 26.655 28.4025 26.6925 28.3575L26.73 28.2225L26.7825 28.0725C26.7825 28.02 26.805 27.9825 26.8275 27.9375C26.8275 27.885 26.865 27.84 26.865 27.7875C26.865 27.765 26.85 27.7575 26.835 27.7575V27.75ZM26.5575 28.2975C26.5609 28.2955 26.5648 28.2945 26.5688 28.2945C26.5727 28.2945 26.5766 28.2955 26.58 28.2975C26.595 28.3125 26.595 28.3275 26.58 28.3425L26.5575 28.3575C26.52 28.3575 26.5125 28.35 26.5125 28.335C26.5125 28.3275 26.5125 28.32 26.535 28.3125C26.5441 28.3059 26.5543 28.3009 26.565 28.2975H26.5575ZM26.4825 28.6725C26.445 28.6425 26.4525 28.62 26.505 28.575C26.535 28.56 26.5425 28.56 26.5725 28.5825C26.6175 28.62 26.6175 28.6425 26.5725 28.68C26.5575 28.695 26.55 28.695 26.535 28.695C26.5125 28.695 26.505 28.695 26.4825 28.68V28.6725ZM26.7075 28.7475C26.6908 28.7423 26.6767 28.7308 26.6683 28.7154C26.6599 28.7 26.6578 28.6819 26.6625 28.665C26.6775 28.635 26.685 28.6275 26.73 28.6275C26.7825 28.6275 26.79 28.635 26.7975 28.68C26.7975 28.71 26.7975 28.7175 26.775 28.7325C26.7667 28.7391 26.757 28.7439 26.7466 28.7465C26.7363 28.7491 26.7255 28.7494 26.715 28.7475H26.7075ZM33.3975 28.7475C33.3825 28.74 33.375 28.7325 33.375 28.71C33.375 28.68 33.39 28.6575 33.435 28.6425C33.48 28.62 33.51 28.62 33.525 28.6575C33.5475 28.7025 33.5475 28.7175 33.5175 28.7475C33.5025 28.77 33.495 28.77 33.4575 28.77C33.42 28.77 33.4125 28.77 33.3975 28.755V28.7475ZM27.0225 28.8375C26.9925 28.8375 26.9775 28.8075 26.9775 28.7775C26.9775 28.755 26.9775 28.7475 26.9925 28.7325L27.0375 28.7175L27.0825 28.725C27.12 28.755 27.1275 28.785 27.105 28.815C27.0825 28.845 27.06 28.845 27.015 28.8375H27.0225ZM28.6575 28.9125L28.6425 28.89C28.6425 28.845 28.6425 28.8075 28.6575 28.7625C28.665 28.725 28.6575 28.6875 28.6725 28.65L28.7025 28.44C28.7025 28.4025 28.7025 28.365 28.7175 28.335C28.725 28.275 28.7175 28.2225 28.7325 28.17C28.7325 28.1475 28.755 28.095 28.7775 28.125C28.8075 28.17 28.845 28.2 28.8825 28.2375C28.9125 28.26 28.8825 28.29 28.86 28.2975C28.83 28.305 28.8225 28.3425 28.8225 28.3725L28.8075 28.4625C28.8075 28.515 28.8075 28.56 28.7925 28.6125L28.785 28.7475L28.77 28.8375C28.77 28.8675 28.77 28.905 28.74 28.92C28.7175 28.935 28.68 28.935 28.665 28.9125H28.6575ZM30.885 28.1775L30.7875 28.2675C30.7425 28.305 30.825 28.32 30.8325 28.35C30.8475 28.395 30.8475 28.44 30.8475 28.485C30.8625 28.53 30.87 28.5675 30.8625 28.6125C30.8625 28.665 30.8025 28.65 30.7725 28.68C30.735 28.695 30.72 28.7325 30.6975 28.755C30.6797 28.7926 30.6695 28.8334 30.6675 28.875C30.6675 28.9125 30.645 28.95 30.6675 28.98L30.675 28.995H30.7125L30.825 28.9875C30.915 28.9725 31.0125 28.9725 31.1025 28.965L31.2675 28.95C31.3125 28.9575 31.335 28.9125 31.335 28.875C31.305 28.8225 31.3275 28.77 31.305 28.725C31.29 28.665 31.2975 28.6125 31.29 28.56C31.29 28.515 31.2375 28.5 31.215 28.53C31.185 28.56 31.14 28.5675 31.125 28.5975C31.1025 28.6425 31.17 28.6425 31.185 28.6725L31.1925 28.785C31.2 28.83 31.155 28.83 31.1175 28.8375C31.08 28.8525 31.0275 28.86 31.005 28.815C30.99 28.7775 30.99 28.74 30.99 28.7025C30.99 28.6275 30.9675 28.5675 30.9675 28.5C30.9675 28.425 30.945 28.3425 30.945 28.26C30.945 28.2225 30.9375 28.17 30.885 28.1775ZM30.84 28.7925H30.8625V28.8525L30.84 28.86C30.8302 28.8631 30.8202 28.8656 30.81 28.8675C30.805 28.8677 30.8 28.8677 30.795 28.8675C30.78 28.8525 30.78 28.83 30.8025 28.8075L30.84 28.7925ZM28.59 28.1025C28.5675 28.1025 28.53 28.155 28.5 28.1475C28.4325 28.155 28.44 28.2225 28.4925 28.245V28.305C28.5 28.365 28.4625 28.4175 28.47 28.4775C28.47 28.5375 28.4475 28.605 28.4475 28.6725C28.425 28.74 28.425 28.8075 28.4175 28.875C28.41 28.935 28.365 28.9125 28.3275 28.8975V28.8225C28.335 28.755 28.29 28.74 28.2375 28.7325C28.185 28.7325 28.1625 28.695 28.1775 28.65C28.2 28.62 28.2525 28.6275 28.29 28.6275C28.365 28.6425 28.3575 28.545 28.32 28.5075C28.29 28.4625 28.23 28.4325 28.215 28.3875C28.215 28.3275 28.1775 28.26 28.125 28.23C28.0425 28.2225 27.975 28.29 27.9525 28.365C27.915 28.365 27.8775 28.38 27.8475 28.395C27.795 28.41 27.72 28.5 27.795 28.5375C27.8325 28.545 27.96 28.575 27.9 28.6275C27.87 28.6875 27.81 28.6875 27.7575 28.6725C27.705 28.6725 27.645 28.6425 27.645 28.5825C27.6375 28.5225 27.6375 28.4625 27.615 28.41C27.6 28.35 27.5325 28.365 27.525 28.425C27.4725 28.4625 27.48 28.53 27.5175 28.575C27.54 28.6275 27.5175 28.695 27.495 28.74C27.48 28.815 27.405 28.815 27.3525 28.83C27.33 28.845 27.2325 28.83 27.27 28.8825C27.3263 28.9084 27.3891 28.9163 27.45 28.905C27.51 28.905 27.5625 28.8525 27.6 28.8C27.6375 28.7625 27.705 28.785 27.765 28.785C27.8175 28.785 27.8775 28.8225 27.9375 28.7925C27.9525 28.755 28.0275 28.68 28.05 28.755C28.05 28.8225 28.1025 28.8525 28.1625 28.845C28.23 28.845 28.2 28.89 28.2 28.935C28.2 29.0025 28.2525 29.04 28.3125 29.07H28.3725C28.425 29.0475 28.485 29.025 28.5075 28.965C28.53 28.9125 28.53 28.8525 28.545 28.8C28.56 28.7175 28.575 28.6275 28.575 28.545C28.5975 28.47 28.59 28.3875 28.605 28.305L28.6275 28.1325C28.6275 28.095 28.6125 28.095 28.59 28.1025ZM28.0875 28.41C28.095 28.41 28.1025 28.425 28.1025 28.4475C28.1025 28.4775 28.1175 28.5 28.14 28.5075V28.53L28.08 28.545C28.0425 28.545 28.0125 28.53 27.99 28.5075L27.975 28.4925L27.9975 28.4775L28.035 28.44C28.0575 28.4175 28.0725 28.41 28.0875 28.41ZM33.0375 27.8175C32.9944 27.8206 32.9516 27.8281 32.91 27.84C32.835 27.84 32.7975 27.915 32.8725 27.96C32.9175 28.0725 32.985 27.93 33.06 27.945C33.165 27.96 33.1725 28.08 33.195 28.17C33.195 28.2525 33.225 28.335 33.2475 28.4175C33.3225 28.5 33.195 28.5525 33.1425 28.4925C33.0975 28.44 32.9925 28.38 32.94 28.4475C32.8725 28.4775 32.865 28.5675 32.8125 28.5975C32.7225 28.62 32.715 28.5075 32.6625 28.4625C32.6175 28.395 32.535 28.3875 32.4675 28.3725C32.4375 28.305 32.4525 28.1925 32.3925 28.1475C32.3325 28.17 32.2275 28.275 32.3175 28.3275C32.3925 28.4025 32.28 28.4325 32.2425 28.4775C32.1825 28.545 32.1675 28.6275 32.1675 28.7025C32.07 28.755 32.055 28.6425 32.04 28.575C32.04 28.4925 31.965 28.515 31.9125 28.545C31.8375 28.575 31.8075 28.6425 31.7625 28.695V28.845C31.7775 28.9125 31.8525 28.8825 31.8975 28.875C31.9725 28.845 32.0025 28.9275 31.9425 28.9725C31.8975 29.0175 31.7775 28.995 31.7925 29.0775H31.9125C31.9875 29.055 32.0775 28.995 32.085 28.905C32.1 28.83 32.2125 28.8375 32.2725 28.8225C32.3475 28.8 32.445 28.7925 32.4675 28.8975C32.52 28.95 32.6325 29.01 32.6925 28.935C32.7211 28.9169 32.744 28.8911 32.7586 28.8606C32.7732 28.8301 32.7789 28.7961 32.775 28.7625C32.7675 28.7025 32.8725 28.7025 32.9025 28.74C32.94 28.8 33.06 28.785 33.12 28.74C33.18 28.7025 33.195 28.62 33.285 28.62L33.69 28.5075C33.795 28.485 33.675 28.4175 33.645 28.3725C33.57 28.335 33.495 28.5 33.405 28.4175C33.33 28.365 33.3375 28.2675 33.315 28.185C33.2925 28.08 33.3 27.96 33.225 27.885C33.18 27.8325 33.105 27.8175 33.0375 27.8175ZM32.5275 28.53C32.535 28.53 32.55 28.53 32.565 28.545C32.595 28.56 32.6175 28.59 32.6175 28.62C32.6175 28.635 32.6175 28.635 32.595 28.6425L32.5575 28.6575C32.5425 28.6575 32.505 28.635 32.505 28.62V28.59C32.49 28.56 32.49 28.56 32.505 28.545L32.5275 28.53ZM33.015 28.56C33.045 28.56 33.06 28.56 33.075 28.5825C33.0825 28.6125 33.075 28.6275 33.045 28.6425L33.0075 28.6575L32.9775 28.635C32.9625 28.6275 32.955 28.62 32.955 28.605C32.955 28.5825 32.985 28.56 33.015 28.5525V28.56ZM32.34 28.56C32.355 28.56 32.3625 28.56 32.37 28.575C32.385 28.59 32.3925 28.5975 32.3925 28.62V28.665C32.3925 28.6875 32.3925 28.68 32.3475 28.68C32.3025 28.68 32.295 28.68 32.295 28.635C32.295 28.605 32.295 28.5975 32.3175 28.5825C32.325 28.5675 32.34 28.5675 32.3475 28.5675L32.34 28.56ZM31.935 28.6725C31.9421 28.6746 31.9485 28.6785 31.9538 28.6837C31.959 28.689 31.9629 28.6954 31.965 28.7025C31.965 28.725 31.965 28.74 31.95 28.7475C31.9275 28.755 31.89 28.7625 31.875 28.7475C31.8748 28.745 31.8748 28.7425 31.875 28.74C31.86 28.7325 31.86 28.725 31.875 28.7175V28.71L31.89 28.6875C31.8946 28.6802 31.9016 28.6747 31.9098 28.672C31.918 28.6692 31.9269 28.6694 31.935 28.6725ZM32.625 28.7625L32.6625 28.77V28.815H32.5725L32.565 28.8C32.565 28.785 32.565 28.7775 32.58 28.77L32.625 28.7625ZM31.3425 29.1225C31.335 29.1225 31.32 29.115 31.335 29.1075C31.3425 29.085 31.3725 29.0775 31.395 29.0625C31.4359 29.0469 31.472 29.0211 31.5 28.9875C31.5 28.9575 31.53 28.9425 31.53 28.9125L31.5225 28.8075C31.5124 28.776 31.491 28.7493 31.4625 28.7325C31.44 28.725 31.41 28.7175 31.4025 28.6875C31.4025 28.665 31.425 28.6425 31.4325 28.62L31.4775 28.53C31.5 28.5075 31.53 28.53 31.5375 28.545L31.575 28.62C31.5975 28.6425 31.6125 28.665 31.62 28.695C31.635 28.725 31.65 28.7475 31.65 28.77L31.665 28.8675C31.665 28.905 31.665 28.95 31.65 28.9875L31.605 29.0475C31.5825 29.07 31.56 29.0925 31.53 29.1C31.5075 29.1075 31.4925 29.13 31.4625 29.13H31.35L31.3425 29.1225ZM30.825 29.1525C30.81 29.1375 30.8025 29.13 30.8025 29.1075C30.8025 29.085 30.8025 29.085 30.825 29.0625C30.855 29.0325 30.87 29.0325 30.93 29.0625C30.9825 29.0925 31.005 29.0925 31.005 29.07C31.0125 29.055 31.0425 29.0325 31.08 29.0325C31.0939 29.033 31.1071 29.0383 31.1175 29.0475C31.1325 29.0625 31.14 29.07 31.14 29.1C31.14 29.1375 31.14 29.1375 31.1175 29.16C31.095 29.175 31.095 29.175 31.065 29.175C31.0517 29.1743 31.0389 29.1696 31.0282 29.1616C31.0175 29.1536 31.0094 29.1426 31.005 29.13C31.005 29.115 31.005 29.1075 30.99 29.1225L30.975 29.13C30.96 29.13 30.93 29.1525 30.915 29.1675L30.8775 29.175C30.8475 29.175 30.8475 29.175 30.825 29.1525ZM29.34 28.485C29.2875 28.485 29.235 28.53 29.2275 28.5825C29.2425 28.635 29.2875 28.695 29.2575 28.7475C29.28 28.8225 29.1975 28.8525 29.145 28.815C29.115 28.74 29.1 28.665 29.0475 28.59C28.9875 28.575 28.965 28.6725 28.92 28.71C28.9425 28.7625 29.0025 28.815 29.01 28.8825C29.025 28.9575 28.98 29.0325 28.9275 29.0625C28.875 29.115 28.8 29.1 28.74 29.1075C28.665 29.1525 28.7925 29.1675 28.83 29.1675C28.905 29.175 28.9875 29.1675 29.055 29.1075C29.1075 29.085 29.1 28.98 29.1675 28.9725L29.5275 28.995C29.5875 29.01 29.685 28.9875 29.73 29.0325C29.73 29.1075 29.805 29.1675 29.8725 29.1975C29.91 29.2125 29.9475 29.16 29.985 29.1525C30.06 29.13 30.0375 29.04 30.0825 29.0025H30.4575C30.4725 29.0025 30.48 28.965 30.5025 28.95L30.4875 28.8075C30.465 28.7475 30.4875 28.6725 30.45 28.62C30.3825 28.605 30.33 28.6575 30.27 28.665C30.195 28.695 30.1425 28.7625 30.135 28.8375C30.0975 28.905 30.03 28.8225 30.06 28.7625L30.0525 28.6875C30.015 28.65 29.9475 28.665 29.895 28.6575L29.67 28.6425C29.595 28.6425 29.5275 28.65 29.4675 28.635C29.3925 28.635 29.3925 28.56 29.3925 28.5C29.3775 28.4886 29.3588 28.4832 29.34 28.485ZM29.49 28.7625L29.565 28.77H29.6625C29.7375 28.785 29.8125 28.785 29.8875 28.785C29.9025 28.785 29.9175 28.8 29.9325 28.815V28.965C29.9325 28.9875 29.9325 29.0175 29.9175 29.025C29.9136 29.031 29.9085 29.0361 29.9025 29.04C29.8915 29.0381 29.8811 29.0337 29.872 29.0272C29.8629 29.0207 29.8554 29.0123 29.85 29.0025V28.8975C29.8351 28.8849 29.8169 28.8771 29.7975 28.875L29.6025 28.8675L29.4525 28.86C29.43 28.8525 29.4 28.86 29.385 28.83C29.37 28.815 29.3925 28.785 29.415 28.7775C29.4386 28.767 29.4642 28.7618 29.49 28.7625ZM30.3375 28.785C30.345 28.785 30.3525 28.785 30.3525 28.8075L30.3675 28.845C30.3675 28.8525 30.3675 28.86 30.3525 28.86C30.315 28.875 30.2775 28.875 30.2625 28.86C30.2625 28.8525 30.2625 28.8225 30.2775 28.815L30.3375 28.785Z" fill="#C09300"/>
<path d="M30 24.54C32.445 22.665 32.235 19.905 32.235 19.905L32.0475 19.92C31.53 19.92 30.3075 19.62 30.0225 19.2525C29.7225 19.59 28.4625 19.9275 27.9525 19.9275L27.765 19.905C27.765 19.905 27.5475 22.6575 30 24.54Z" fill="#F0F0F0"/>
<path fill-rule="evenodd" clip-rule="evenodd" d="M30.0247 19.188L30.0551 19.2272C30.1204 19.3115 30.2433 19.3957 30.4045 19.4748C30.5646 19.5533 30.758 19.6245 30.9596 19.6845C31.3626 19.8046 31.7924 19.8784 32.0459 19.8788L32.273 19.8606L32.2761 19.9019L32.235 19.905C32.2761 19.9019 32.2761 19.9018 32.2761 19.9019L32.2762 19.9025L32.2763 19.9042L32.2767 19.9105C32.277 19.916 32.2775 19.924 32.278 19.9346C32.2789 19.9557 32.28 19.9867 32.2805 20.0268C32.2815 20.1068 32.2801 20.223 32.2708 20.3682C32.2521 20.6585 32.2016 21.0649 32.0742 21.5303C31.8193 22.4612 31.2564 23.6285 30.0251 24.5727L30 24.592L29.9749 24.5727C28.7399 23.6248 28.177 22.4575 27.923 21.5274C27.7961 21.0625 27.7462 20.6568 27.7282 20.3671C27.7191 20.2222 27.718 20.1063 27.7192 20.0264C27.7198 19.9864 27.721 19.9555 27.722 19.9344C27.7225 19.9239 27.7229 19.9158 27.7233 19.9103L27.7237 19.9041L27.7238 19.9024L27.7239 19.902L27.7239 19.9018C27.7239 19.9018 27.7239 19.9018 27.765 19.905L27.7239 19.9018L27.7273 19.8589L27.955 19.8863C28.2044 19.8857 28.6408 19.8028 29.0543 19.6771C29.2611 19.6142 29.4607 19.541 29.6267 19.463C29.7939 19.3844 29.9225 19.3029 29.9917 19.2251L30.0247 19.188ZM27.8038 19.9512C27.803 19.9705 27.8022 19.9961 27.8017 20.0276C27.8006 20.1055 27.8016 20.2194 27.8105 20.3619C27.8283 20.6471 27.8774 21.0472 28.0026 21.5057C28.2513 22.4162 28.8 23.5569 30 24.4879C31.1963 23.5606 31.745 22.42 31.9946 21.5085C32.1203 21.0495 32.1701 20.6487 32.1885 20.3629C32.1976 20.22 32.199 20.1059 32.198 20.0278C32.1976 19.9953 32.1968 19.9691 32.196 19.9495L32.0492 19.9613H32.0475C31.7833 19.9613 31.344 19.8852 30.936 19.7636C30.7317 19.7027 30.5337 19.63 30.3682 19.5489C30.2238 19.4781 30.1006 19.3992 30.0205 19.3136C29.937 19.3924 29.8101 19.468 29.6618 19.5377C29.4912 19.6179 29.2877 19.6924 29.0783 19.756C28.6605 19.8831 28.2135 19.9688 27.9525 19.9688H27.95L27.8038 19.9512Z" fill="#C09300"/>
<path d="M32.04 20.1H31.98C31.515 20.1 30.435 19.8675 30.015 19.5075C29.58 19.8375 28.4775 20.1075 28.02 20.1075C27.9998 20.1067 27.9798 20.1042 27.96 20.1C27.9641 20.574 28.0297 21.0454 28.155 21.5025C28.4558 22.6038 29.1026 23.5793 30 24.285C30.8979 23.5766 31.5447 22.5986 31.845 21.495C31.9697 21.0403 32.0353 20.5715 32.04 20.1Z" fill="#F0F0F0"/>
<path fill-rule="evenodd" clip-rule="evenodd" d="M30.0163 19.4641L30.037 19.4818C30.2409 19.6566 30.6096 19.8032 30.9895 19.9061C31.3684 20.0088 31.7515 20.0662 31.98 20.0662H32.04V20.1L32.0738 20.1003C32.069 20.5746 32.003 21.0464 31.8776 21.5039C31.5753 22.6144 30.9245 23.5986 30.0209 24.3114L30 24.3279L29.9791 24.3115C29.0761 23.6013 28.4252 22.6196 28.1224 21.5113C27.9963 21.0514 27.9304 20.5771 27.9263 20.1002L27.9259 20.0582L27.967 20.0669C27.9847 20.0707 28.0026 20.073 28.0207 20.0737C28.245 20.0736 28.6312 20.007 29.0168 19.8987C29.4033 19.7902 29.7825 19.6415 29.9946 19.4806L30.0163 19.4641ZM32.0058 20.1337H31.98C31.7435 20.1337 31.3541 20.0749 30.9718 19.9713C30.6024 19.8712 30.2329 19.7276 30.0138 19.5503C29.7879 19.7129 29.4107 19.8582 29.0351 19.9637C28.6467 20.0728 28.2533 20.1412 28.02 20.1412H28.0187L28.0187 20.1412C28.0105 20.1409 28.0024 20.1403 27.9942 20.1395C28.0015 20.5971 28.0665 21.052 28.1875 21.4935L28.1876 21.4936C28.4841 22.5793 29.1191 23.542 30 24.2419C30.8814 23.5393 31.5163 22.5741 31.8124 21.4861L31.8125 21.486C31.9334 21.0451 31.9983 20.5908 32.0058 20.1337Z" fill="#C09300"/>
<path d="M29.205 19.875C28.8022 20.0062 28.3833 20.0819 27.96 20.1L27.9675 20.4075C27.9931 20.7754 28.0559 21.1398 28.155 21.495C28.3566 22.2326 28.7147 22.9182 29.205 23.505V19.875ZM30.75 19.875V23.565C31.2639 22.9647 31.6379 22.2576 31.845 21.495C31.944 21.1397 32.0068 20.7754 32.0325 20.4075L32.04 20.1075H31.98C31.695 20.1075 31.2 20.0175 30.75 19.8675V19.875Z" fill="#C09300"/>
<path d="M30.9225 18.975C30.975 18.9825 30.855 18.7125 30.855 18.7125C30.99 18.8475 31.485 18.885 31.485 18.885C31.185 18.75 30.885 17.7525 30.9225 16.95C30.9525 16.155 30.81 15.84 30.6975 15.72C30.5475 15.57 30.06 15.435 29.745 15.42C29.5575 15.4125 29.595 15.555 29.595 15.555C29.2575 15.4725 28.92 15.435 28.77 15.54C28.635 15.63 28.605 16.1025 28.71 16.02C28.9575 15.8175 29.175 16.005 29.325 16.2225C29.46 16.41 29.4525 16.95 29.2575 17.5875C29.0848 18.0694 28.8312 18.5183 28.5075 18.915C28.8075 18.915 29.2275 18.6525 29.2275 18.6525L29.13 19.065C29.445 18.915 29.6925 18.6825 29.6925 18.6825L29.9925 18.9975C30.09 18.8625 30.2925 18.6825 30.2925 18.6825C30.2925 18.6825 30.54 18.945 30.9225 18.9825V18.975Z" fill="#F0F0F0"/>
<path fill-rule="evenodd" clip-rule="evenodd" d="M29.6211 15.3983C29.6532 15.381 29.6946 15.3729 29.7468 15.375L29.7471 15.375C29.9091 15.3827 30.1134 15.4211 30.2961 15.4763C30.3877 15.5039 30.4747 15.5361 30.549 15.5713C30.6225 15.6061 30.6865 15.6453 30.7293 15.6882L30.7298 15.6887L30.7303 15.6892C30.8557 15.823 30.9976 16.1539 30.9675 16.9517L30.9674 16.9521C30.949 17.3476 31.0137 17.7926 31.1204 18.1551C31.1736 18.3363 31.237 18.4954 31.3046 18.6166C31.3733 18.7399 31.4424 18.8165 31.5035 18.8439L31.4816 18.9299L31.485 18.885C31.4816 18.9299 31.4816 18.9299 31.4816 18.9299L31.4815 18.9298L31.4812 18.9298L31.48 18.9297L31.4756 18.9294C31.4718 18.929 31.4663 18.9286 31.4593 18.9279C31.4452 18.9266 31.425 18.9246 31.4004 18.9217C31.3512 18.916 31.284 18.907 31.2124 18.8936C31.1409 18.8803 31.064 18.8624 30.9957 18.8389C30.9792 18.8332 30.9628 18.8271 30.9469 18.8205C30.9482 18.8242 30.9496 18.8279 30.9509 18.8316C30.9627 18.8652 30.974 18.9015 30.9785 18.93C30.9806 18.9431 30.9825 18.961 30.9782 18.9772C30.9766 18.9834 30.9735 18.9916 30.9675 18.9993V19.0321L30.9181 19.0273C30.7177 19.0076 30.5534 18.9292 30.4398 18.8563C30.3828 18.8198 30.3382 18.7845 30.3077 18.7581C30.3019 18.7531 30.2966 18.7484 30.2917 18.744C30.2911 18.7446 30.2905 18.7452 30.2899 18.7457C30.2697 18.7645 30.2416 18.7909 30.2106 18.8214C30.1481 18.883 30.0754 18.9596 30.029 19.0238L29.9973 19.0677L29.69 18.7451C29.6864 18.7483 29.6824 18.7517 29.6782 18.7553C29.6495 18.7799 29.608 18.8143 29.5566 18.8533C29.4539 18.9313 29.3106 19.0288 29.1493 19.1056L29.0646 19.146L29.1597 18.7435C29.1169 18.7669 29.0615 18.7958 28.9988 18.8246C28.8555 18.8906 28.6679 18.96 28.5075 18.96H28.4127L28.4726 18.8865C28.7929 18.4942 29.0438 18.05 29.2148 17.5733C29.3112 17.2579 29.3608 16.9678 29.37 16.7345C29.3746 16.6176 29.369 16.516 29.3545 16.433C29.3398 16.3493 29.3167 16.2879 29.2885 16.2488L29.2879 16.248C29.2143 16.1412 29.128 16.0481 29.035 16.0045C28.9893 15.9831 28.9429 15.974 28.8952 15.9802C28.8475 15.9864 28.7951 16.0085 28.7385 16.0548L28.7378 16.0554C28.7175 16.0713 28.6859 16.084 28.6543 16.0657C28.6295 16.0512 28.6184 16.0242 28.6129 16.0049C28.6007 15.9627 28.5994 15.9018 28.6052 15.8404C28.6111 15.7778 28.6249 15.7091 28.6466 15.6492C28.6675 15.5916 28.6986 15.5337 28.7446 15.5028C28.8326 15.4415 28.9675 15.4256 29.1142 15.4322C29.2471 15.4382 29.3979 15.4632 29.5494 15.4979C29.5511 15.4883 29.5538 15.4781 29.558 15.4678C29.5686 15.4416 29.5883 15.416 29.6211 15.3983ZM29.2037 18.6143L29.2965 18.5563L29.1961 18.9808C29.3153 18.9163 29.4213 18.8431 29.5022 18.7816C29.552 18.7438 29.592 18.7107 29.6196 18.687C29.6334 18.6752 29.644 18.6658 29.6511 18.6593C29.6547 18.6561 29.6574 18.6537 29.6592 18.652L29.6611 18.6502L29.6617 18.6497M29.2037 18.6143L29.2034 18.6144L29.2026 18.615L29.1993 18.617C29.1963 18.6189 29.1917 18.6216 29.1859 18.6251C29.1741 18.6321 29.1569 18.6421 29.1352 18.6542C29.0919 18.6784 29.0311 18.7106 28.9612 18.7429C28.8521 18.7931 28.7247 18.8414 28.6081 18.8609C28.9038 18.481 29.1373 18.0563 29.2999 17.6027L29.3002 17.6017L29.3005 17.6006C29.3989 17.2789 29.4504 16.9807 29.46 16.738C29.4647 16.6167 29.4591 16.5084 29.4432 16.4174C29.4274 16.3274 29.401 16.2512 29.3618 16.1966C29.2855 16.086 29.1881 15.9768 29.0732 15.923C29.0147 15.8956 28.951 15.8822 28.8836 15.891C28.8216 15.8991 28.7593 15.9256 28.6975 15.9726C28.6915 15.9455 28.6898 15.9015 28.6948 15.8489C28.7001 15.7924 28.7126 15.7313 28.7312 15.6799C28.7506 15.6264 28.7737 15.5916 28.795 15.5774L28.7958 15.5768C28.8578 15.5334 28.9665 15.5156 29.1102 15.5221C29.2514 15.5285 29.417 15.5578 29.5843 15.5987L29.6578 15.6166L29.6386 15.5439C29.6386 15.5438 29.6386 15.5438 29.6386 15.5437C29.6385 15.5433 29.6383 15.5425 29.6381 15.5413C29.6377 15.539 29.6372 15.5353 29.637 15.5308C29.6366 15.5216 29.6376 15.511 29.6414 15.5016C29.6448 15.4931 29.6509 15.4844 29.6638 15.4775C29.6774 15.4702 29.7016 15.4633 29.743 15.4649C29.8961 15.4722 30.0929 15.5089 30.2701 15.5624C30.3586 15.5892 30.4412 15.6198 30.5104 15.6526C30.5799 15.6855 30.633 15.7193 30.6652 15.7513C30.7647 15.858 30.9074 16.1573 30.8775 16.9481C30.8586 17.355 30.925 17.8099 31.034 18.1805C31.0885 18.3659 31.1541 18.5316 31.226 18.6605C31.2605 18.7224 31.2976 18.7778 31.3368 18.8228" fill="#C09300"/>
<path fill-rule="evenodd" clip-rule="evenodd" d="M29.9288 17.0296L29.9775 17.0325C30.0262 17.0354 30.0262 17.0354 30.0262 17.0354L30.0259 17.0391L30.0253 17.0498C30.0246 17.0592 30.0237 17.0729 30.0225 17.0905C30.02 17.1257 30.0163 17.1764 30.0111 17.2385C30.0007 17.3625 29.9847 17.5322 29.9621 17.7144C29.9395 17.8966 29.9103 18.0919 29.8733 18.2671C29.8366 18.4411 29.7915 18.5995 29.7356 18.7053L29.6494 18.6597C29.6985 18.5667 29.7415 18.4196 29.7779 18.2469C29.8141 18.0755 29.843 17.8831 29.8654 17.7024C29.8878 17.5219 29.9036 17.3536 29.9139 17.2304C29.9191 17.1688 29.9228 17.1185 29.9252 17.0837C29.9265 17.0663 29.9274 17.0527 29.928 17.0435L29.9286 17.0331L29.9288 17.0296ZM29.6592 17.0635L29.7075 17.07C29.7558 17.0765 29.7558 17.0765 29.7558 17.0765L29.7557 17.0775L29.7553 17.0802L29.7538 17.0907C29.7525 17.0999 29.7506 17.1135 29.748 17.1307C29.7428 17.1653 29.7351 17.215 29.7249 17.2757C29.7044 17.397 29.6737 17.5626 29.6331 17.7391C29.5926 17.9154 29.5419 18.1036 29.4812 18.2701C29.421 18.4351 29.349 18.5843 29.2635 18.6779L29.1915 18.6121C29.2635 18.5333 29.3303 18.3993 29.3896 18.2367C29.4484 18.0755 29.498 17.8915 29.5381 17.7172C29.5782 17.5431 29.6084 17.3795 29.6287 17.2595C29.6389 17.1995 29.6465 17.1504 29.6516 17.1163C29.6541 17.0993 29.656 17.0861 29.6573 17.0771L29.6587 17.0669L29.6591 17.0643L29.6592 17.0635ZM30.1612 17.085C30.1612 17.085 30.1612 17.085 30.21 17.085C30.2587 17.085 30.2587 17.085 30.2587 17.085L30.2588 17.1003C30.2588 17.1103 30.2588 17.1251 30.2589 17.1439C30.259 17.1816 30.2593 17.2358 30.2599 17.3015C30.2611 17.4329 30.2634 17.6105 30.2681 17.7953C30.2728 17.9802 30.2798 18.1719 30.2903 18.3316C30.2955 18.4115 30.3016 18.4829 30.3086 18.5413C30.3158 18.6006 30.3236 18.6433 30.3314 18.6675L30.2386 18.6975C30.2277 18.6636 30.219 18.6128 30.2118 18.5529C30.2045 18.4921 30.1983 18.4188 30.193 18.338C30.1824 18.1764 30.1753 17.9832 30.1706 17.7978C30.1659 17.6123 30.1636 17.4341 30.1624 17.3024C30.1618 17.2365 30.1615 17.1822 30.1614 17.1443C30.1613 17.1254 30.1613 17.1106 30.1613 17.1005L30.1612 17.085ZM30.4613 17.1551C30.4613 17.1551 30.4613 17.1551 30.51 17.1525L30.5587 17.15L30.5587 17.1507L30.5589 17.1531L30.5594 17.1626C30.5599 17.171 30.5607 17.1834 30.5618 17.1993C30.5639 17.2312 30.5674 17.2773 30.5724 17.334C30.5824 17.4473 30.5987 17.6026 30.6238 17.7706C30.649 17.9387 30.6829 18.1187 30.7278 18.2818C30.7731 18.4457 30.8285 18.5885 30.8951 18.6848L30.8149 18.7402C30.739 18.6303 30.68 18.475 30.6339 18.3077C30.5875 18.1395 30.5529 17.9553 30.5274 17.785C30.5019 17.6146 30.4854 17.4572 30.4753 17.3425C30.4702 17.2852 30.4667 17.2384 30.4645 17.2059C30.4634 17.1897 30.4626 17.177 30.4621 17.1684L30.4615 17.1585L30.4614 17.156L30.4613 17.1551Z" fill="#C09300"/>
<path d="M29.4 16.47C29.3933 16.383 29.3677 16.2985 29.325 16.2225C29.175 15.9975 28.9575 15.8175 28.71 16.02C28.71 16.02 28.7925 15.7575 28.98 15.75C29.115 15.7425 29.4375 15.855 29.7225 16.335C29.7225 16.335 29.5125 16.29 29.46 16.335C29.37 16.41 29.4075 16.47 29.4075 16.47H29.4Z" fill="#C09300"/>
<path fill-rule="evenodd" clip-rule="evenodd" d="M29.6998 16.3192C29.4194 15.8596 29.108 15.7542 28.9806 15.7612L28.9804 15.7612C28.8922 15.7648 28.8275 15.8284 28.7841 15.894C28.7625 15.9266 28.7466 15.959 28.7361 15.9833C28.7356 15.9847 28.735 15.986 28.7344 15.9874C28.7866 15.9509 28.8379 15.9304 28.8878 15.9234C28.9478 15.915 29.0051 15.926 29.0588 15.9507C29.1657 15.9998 29.259 16.1032 29.3344 16.2163L29.3348 16.217C29.3653 16.2712 29.3871 16.3296 29.3999 16.3901C29.4094 16.3705 29.4258 16.3489 29.4527 16.3264C29.4688 16.3127 29.495 16.3069 29.5223 16.3048C29.5503 16.3026 29.5822 16.3041 29.612 16.3069C29.6419 16.3098 29.6701 16.314 29.6908 16.3176C29.694 16.3181 29.697 16.3187 29.6998 16.3192ZM29.417 16.4641L29.4169 16.4639C29.4168 16.4636 29.4165 16.4631 29.4162 16.4624C29.4156 16.4611 29.4147 16.459 29.4138 16.4561C29.412 16.4505 29.4104 16.442 29.4112 16.4315C29.4128 16.4107 29.424 16.3796 29.4672 16.3436L29.4673 16.3435C29.4775 16.3348 29.4972 16.3293 29.524 16.3272C29.5502 16.3252 29.5806 16.3265 29.6099 16.3293C29.639 16.3321 29.6666 16.3363 29.687 16.3398C29.6971 16.3415 29.7054 16.3431 29.7112 16.3442C29.7141 16.3448 29.7163 16.3452 29.7179 16.3455L29.7196 16.3459L29.72 16.346L29.7201 16.346L29.7453 16.3514L29.7322 16.3293C29.446 15.8472 29.1202 15.731 28.9795 15.7388C28.8802 15.7428 28.81 15.8141 28.7653 15.8816C28.7428 15.9156 28.7263 15.9493 28.7155 15.9744C28.7101 15.987 28.706 15.9975 28.7033 16.0049C28.702 16.0085 28.701 16.0114 28.7003 16.0134L28.6995 16.0158L28.6993 16.0164L28.6993 16.0166C28.6993 16.0166 28.6993 16.0166 28.71 16.02L28.6993 16.0166L28.688 16.0526L28.7171 16.0287C28.7777 15.9791 28.8359 15.9535 28.891 15.9457C28.9461 15.938 28.999 15.948 29.0494 15.9712C29.1505 16.0176 29.2408 16.1166 29.3154 16.2284C29.3572 16.3029 29.3822 16.3857 29.3888 16.4709L29.3896 16.4812H29.4278L29.417 16.4641C29.4171 16.4641 29.4171 16.4641 29.417 16.4641Z" fill="#C09300"/>
<path d="M28.68 15.6975C28.7025 15.6225 28.7325 15.5625 28.7775 15.54C28.9275 15.435 29.2575 15.465 29.595 15.555C29.595 15.555 29.565 15.4125 29.745 15.42C30.06 15.435 30.54 15.57 30.69 15.72C30.738 15.7727 30.7761 15.8337 30.8025 15.9C30.7275 15.795 30.5175 15.8025 30.465 15.81C30.39 15.8175 30.3375 15.81 30.2325 15.84C30.18 15.855 30.105 15.87 30.06 15.9C30.03 15.93 30 16.02 29.955 16.02C29.88 16.02 29.88 16.005 29.8575 15.9825C29.835 15.945 29.82 15.9 29.79 15.9075C29.715 15.915 29.58 15.855 29.415 15.72C29.2425 15.585 29.175 15.555 28.965 15.57C28.74 15.585 28.68 15.7125 28.68 15.7125V15.6975Z" fill="#C09300"/>
<path fill-rule="evenodd" clip-rule="evenodd" d="M29.606 15.5527L29.606 15.5525L29.6058 15.5515C29.6056 15.5506 29.6054 15.5493 29.6052 15.5475C29.6048 15.544 29.6044 15.5389 29.6044 15.5328C29.6044 15.5206 29.6061 15.5046 29.6128 15.4891C29.6194 15.4738 29.631 15.4588 29.651 15.4478C29.6712 15.4367 29.7009 15.4294 29.7445 15.4312C29.9009 15.4387 30.0987 15.476 30.2761 15.5301C30.3648 15.5572 30.4481 15.5884 30.5185 15.6221C30.5889 15.6558 30.6457 15.6916 30.6819 15.7278C30.7158 15.7651 30.7447 15.8066 30.7679 15.8513C30.7275 15.8236 30.6757 15.809 30.627 15.8017C30.5576 15.7912 30.491 15.7949 30.4636 15.7988C30.4637 15.7988 30.4638 15.7988 30.4639 15.7988L30.465 15.81L30.4634 15.7988C30.4635 15.7988 30.4636 15.7988 30.4636 15.7988M29.8665 15.9755C29.8621 15.9682 29.8581 15.9607 29.854 15.9531C29.8532 15.9516 29.8524 15.9501 29.8516 15.9486C29.8466 15.9392 29.8414 15.9298 29.8358 15.9217C29.8303 15.9137 29.8239 15.9062 29.816 15.9012C29.8079 15.8961 29.7985 15.894 29.7881 15.8964C29.7538 15.8996 29.7038 15.8875 29.6412 15.857C29.5784 15.8266 29.5041 15.7784 29.4221 15.7113L29.4221 15.7113L29.4219 15.7111C29.3357 15.6436 29.2744 15.6013 29.2078 15.5781C29.1409 15.5549 29.0697 15.5512 28.9642 15.5588C28.8496 15.5664 28.7761 15.6028 28.7312 15.638C28.7202 15.6466 28.711 15.6551 28.7033 15.663C28.7113 15.6412 28.7201 15.6216 28.73 15.6047C28.7453 15.5786 28.7627 15.56 28.7825 15.55L28.7833 15.5497L28.7839 15.5492C28.8558 15.4989 28.9726 15.48 29.1155 15.4856C29.2578 15.4912 29.4238 15.521 29.5921 15.5659L29.6098 15.5706L29.606 15.5527L29.606 15.5527L29.606 15.5527M28.6912 15.6991C28.695 15.6866 28.6991 15.6745 28.7033 15.663C28.6952 15.6713 28.6888 15.679 28.6839 15.6856C28.6808 15.6896 28.6783 15.6933 28.6763 15.6964L28.6692 15.6943C28.6806 15.6563 28.694 15.6216 28.7106 15.5934C28.727 15.5654 28.7469 15.543 28.7717 15.5303C28.7715 15.5305 28.7713 15.5306 28.771 15.5308L28.7775 15.54L28.7725 15.5299C28.7722 15.53 28.772 15.5302 28.7717 15.5303C28.8499 15.476 28.9728 15.4575 29.1164 15.4631C29.2564 15.4686 29.4182 15.4971 29.582 15.5399C29.5822 15.544 29.5826 15.5475 29.5829 15.5502C29.5831 15.5524 29.5834 15.5541 29.5836 15.5553L29.5839 15.5567L29.5839 15.5571L29.584 15.5572L29.584 15.5573L29.584 15.5573C29.584 15.5573 29.584 15.5573 29.595 15.555L29.5979 15.5441C29.5926 15.5427 29.5873 15.5413 29.582 15.5399C29.5819 15.5377 29.5819 15.5353 29.5819 15.5328C29.5819 15.5186 29.5839 15.4994 29.5922 15.4802C29.6006 15.4608 29.6153 15.4417 29.6402 15.428C29.665 15.4145 29.6991 15.4068 29.7455 15.4087L29.7455 15.4087V15.4087C29.9041 15.4163 30.1038 15.454 30.2827 15.5086C30.3721 15.5359 30.4566 15.5675 30.5282 15.6018C30.5997 15.636 30.6591 15.6732 30.698 15.712L30.6983 15.7124L30.6983 15.7124C30.7473 15.7661 30.7861 15.8283 30.813 15.8958L30.7933 15.9065C30.7586 15.8579 30.6914 15.8341 30.6236 15.8239C30.5564 15.8138 30.4919 15.8175 30.4666 15.8211L30.4661 15.8212L30.4661 15.8212C30.4439 15.8234 30.4239 15.8243 30.4043 15.8253C30.3559 15.8275 30.3094 15.8297 30.2356 15.8508C30.2242 15.854 30.2124 15.8572 30.2001 15.8604C30.1829 15.8649 30.1649 15.8696 30.1467 15.8751C30.1164 15.8843 30.0882 15.895 30.0672 15.9087C30.061 15.9152 30.0543 15.9251 30.0469 15.9373C30.0442 15.9417 30.0413 15.9464 30.0384 15.9513C30.0333 15.9599 30.028 15.9689 30.0226 15.9773C30.014 15.9907 30.0045 16.0038 29.9938 16.0137C29.9831 16.0236 29.9702 16.0312 29.955 16.0312C29.9172 16.0312 29.896 16.0275 29.8812 16.0196C29.8737 16.0155 29.8683 16.0106 29.8635 16.0056C29.8613 16.0032 29.8595 16.0012 29.8577 15.9992C29.8553 15.9965 29.8529 15.9938 29.8495 15.9904L29.8486 15.9895L29.8479 15.9883C29.843 15.9801 29.8384 15.9716 29.8341 15.9636C29.8333 15.9621 29.8325 15.9606 29.8318 15.9592C29.8267 15.9498 29.8221 15.9414 29.8173 15.9345C29.8125 15.9275 29.8081 15.9228 29.8041 15.9203C29.8004 15.918 29.797 15.9173 29.7927 15.9184L29.7919 15.9186L29.7911 15.9187C29.7505 15.9227 29.6957 15.9085 29.6313 15.8773C29.5666 15.8459 29.4909 15.7966 29.408 15.7288C29.3218 15.6613 29.2631 15.6212 29.2004 15.5994C29.1379 15.5776 29.0703 15.5737 28.9658 15.5812L28.9657 15.5812C28.8554 15.5886 28.7863 15.6234 28.7451 15.6557C28.7244 15.6719 28.7105 15.6876 28.7019 15.6991C28.6976 15.7048 28.6946 15.7095 28.6927 15.7127C28.6918 15.7143 28.6911 15.7155 28.6907 15.7163L28.6902 15.7171L28.6902 15.7173C28.6902 15.7173 28.6902 15.7173 28.6901 15.7173L28.6687 15.7125V15.6975H28.6756C28.6759 15.6971 28.6761 15.6968 28.6763 15.6964L28.68 15.6975M28.9642 15.5588C28.9642 15.5588 28.9642 15.5588 28.9642 15.5588L28.965 15.57L28.9642 15.5588C28.9642 15.5588 28.9642 15.5588 28.9642 15.5588ZM29.7881 15.8964C29.7879 15.8964 29.7876 15.8965 29.7873 15.8966L29.79 15.9075L29.7889 15.8963C29.7886 15.8963 29.7884 15.8963 29.7881 15.8964ZM29.8665 15.9755C29.8667 15.9759 29.8669 15.9763 29.8671 15.9767L29.8575 15.9825L29.8655 15.9745C29.8658 15.9749 29.8661 15.9752 29.8665 15.9755Z" fill="#C09300"/>
<path d="M29.91 15.8925C29.9597 15.8925 30 15.8522 30 15.8025C30 15.7528 29.9597 15.7125 29.91 15.7125C29.8603 15.7125 29.82 15.7528 29.82 15.8025C29.82 15.8522 29.8603 15.8925 29.91 15.8925Z" fill="#F0F0F0"/>
</g>
<defs>
<clipPath id="clip0_264_16912">
<rect width="60" height="45" fill="white"/>
</clipPath>
</defs>
</svg>
