<svg width="60" height="45" viewBox="0 0 60 45" fill="none" xmlns="http://www.w3.org/2000/svg">
<g clip-path="url(#clip0_264_18322)">
<path d="M0 0H60V45H0V0Z" fill="#E32118"/>
<path d="M0 0H60V30H0V0Z" fill="#F0F0F0"/>
<path d="M0 0H60V15H0V0Z" fill="#3E9A00"/>
<path d="M0 0V45L16.875 22.5L0 0Z" fill="#0073CE"/>
<path d="M26.4 17.9812H33.5813V25.5C33.5813 28.0312 30.2813 26.0812 30 27.4312C29.5125 26.0437 26.4188 28.05 26.4188 25.35L26.4 17.9812Z" fill="#F0F0F0"/>
<path fill-rule="evenodd" clip-rule="evenodd" d="M26.447 18.0281L26.4656 25.35C26.4656 26.016 26.656 26.3796 26.9371 26.581C27.2219 26.7851 27.6106 26.8312 28.0271 26.8359C28.1626 26.8374 28.2989 26.8346 28.4347 26.8318C28.5074 26.8303 28.58 26.8288 28.6521 26.828C28.8576 26.8257 29.0583 26.8288 29.2412 26.8539C29.424 26.879 29.5922 26.9264 29.7313 27.0146C29.8386 27.0826 29.9273 27.1742 29.9919 27.2957C30.0388 27.1799 30.1126 27.0917 30.208 27.0259C30.3338 26.9391 30.4941 26.8932 30.672 26.8694C30.8502 26.8457 31.0501 26.8436 31.2576 26.8475C31.3379 26.849 31.419 26.8513 31.5006 26.8537C31.6315 26.8575 31.7638 26.8613 31.8962 26.8617C32.3261 26.8629 32.7352 26.8265 33.0366 26.6399C33.3328 26.4565 33.5344 26.1215 33.5344 25.5V18.0281H26.447ZM26.4 17.9812V17.9344H33.6281V25.5C33.6281 26.1441 33.4173 26.5145 33.0859 26.7196C32.7598 26.9215 32.3263 26.9566 31.896 26.9555C31.7628 26.9551 31.6278 26.9512 31.4956 26.9473C31.4143 26.945 31.334 26.9426 31.2559 26.9412C31.0492 26.9374 30.8552 26.9396 30.6844 26.9624C30.5134 26.9852 30.3698 27.0282 30.2613 27.1031C30.1544 27.1768 30.0787 27.2834 30.0459 27.4408L30.0116 27.6056L29.9558 27.4468C29.8984 27.2833 29.8034 27.1713 29.6811 27.0938C29.5577 27.0155 29.4042 26.9709 29.2284 26.9468C29.0527 26.9227 28.8579 26.9194 28.6532 26.9218C28.5829 26.9226 28.5112 26.924 28.4389 26.9255C28.3021 26.9283 28.1629 26.9312 28.0261 26.9297C27.6082 26.925 27.193 26.8797 26.8825 26.6572C26.5683 26.4321 26.3719 26.0339 26.3719 25.35L26.3531 17.9814L26.4 17.9812Z" fill="black"/>
<path d="M30.5063 26.2312C30.5063 26.2312 30.4125 26.325 30.2438 26.25C30.075 26.175 30.0563 21.4312 30.0563 21.4312C30.4313 21.0187 30.7313 20.8875 30.7313 20.8875L30.9563 21.075C30.1125 21.5062 30.1875 22.125 30.2625 23.1937C30.2813 23.5875 30.2813 24.0937 30.375 24.5812C30.5063 25.2 30.7688 25.725 30.7875 26.1187C30.8063 26.3625 30.5063 26.2312 30.5063 26.2312Z" fill="#73452B"/>
<path fill-rule="evenodd" clip-rule="evenodd" d="M30.7328 20.8766L30.9732 21.0769L30.9605 21.0833C30.7504 21.1907 30.5981 21.3095 30.4886 21.4436C30.3792 21.5777 30.3124 21.7275 30.274 21.8974C30.2023 22.2148 30.2298 22.6013 30.2643 23.0857C30.2668 23.121 30.2693 23.1568 30.2719 23.1931L30.2719 23.1933C30.2755 23.2702 30.2785 23.3512 30.2815 23.4356C30.2942 23.7839 30.3089 24.1876 30.3842 24.5794C30.4428 24.8554 30.5275 25.1128 30.6051 25.3486C30.6143 25.3765 30.6234 25.4041 30.6324 25.4315C30.7166 25.689 30.7874 25.9198 30.7969 26.1182C30.8017 26.1808 30.7861 26.2217 30.7576 26.2463C30.7295 26.2705 30.6909 26.277 30.6536 26.2758C30.6161 26.2746 30.5783 26.2655 30.5501 26.2569C30.536 26.2526 30.5241 26.2483 30.5158 26.2452C30.5127 26.244 30.5102 26.243 30.5081 26.2422C30.508 26.2422 30.508 26.2423 30.5079 26.2423C30.5048 26.2449 30.5002 26.2485 30.4942 26.2525C30.4821 26.2605 30.4644 26.2703 30.4411 26.2777C30.3944 26.2924 30.3264 26.297 30.24 26.2586C30.2353 26.2565 30.2315 26.2528 30.2285 26.2487C30.2253 26.2446 30.2225 26.2394 30.2198 26.2334C30.2145 26.2215 30.2095 26.2054 30.2047 26.1857C30.1952 26.1463 30.1863 26.0911 30.178 26.0225C30.1613 25.8853 30.1467 25.6936 30.1339 25.466C30.1084 25.0105 30.0903 24.4104 30.0774 23.8127C30.0645 23.215 30.0569 22.6196 30.0525 22.1737C30.0503 21.9508 30.0489 21.7652 30.048 21.6353C30.0476 21.5704 30.0473 21.5194 30.0471 21.4846L30.0469 21.4313C30.0469 21.4313 30.0469 21.4313 30.0563 21.4312L30.0469 21.4313L30.0469 21.4276L30.0493 21.4249C30.2373 21.2181 30.4066 21.0817 30.5291 20.997C30.5903 20.9546 30.6398 20.9251 30.674 20.9062C30.6911 20.8968 30.7044 20.89 30.7135 20.8855C30.718 20.8833 30.7215 20.8817 30.7239 20.8806L30.7265 20.8793L30.7272 20.879L30.7274 20.8789C30.7274 20.8789 30.7275 20.8789 30.7313 20.8875L30.7274 20.8789L30.7328 20.8766ZM30.7298 20.8985C30.7277 20.8995 30.725 20.9007 30.7218 20.9024C30.713 20.9067 30.6999 20.9134 30.6831 20.9227C30.6493 20.9413 30.6004 20.9704 30.5397 21.0124C30.4189 21.096 30.2517 21.2307 30.0657 21.4349L30.0659 21.4845C30.0661 21.5193 30.0664 21.5702 30.0668 21.6352C30.0676 21.765 30.069 21.9506 30.0712 22.1735C30.0756 22.6194 30.0832 23.2147 30.0961 23.8123C30.109 24.4099 30.1272 25.0098 30.1526 25.4649C30.1654 25.6925 30.1799 25.8837 30.1966 26.0203C30.2049 26.0886 30.2137 26.143 30.223 26.1813C30.2276 26.2005 30.2323 26.2153 30.2369 26.2258C30.2393 26.231 30.2415 26.2348 30.2435 26.2375C30.2455 26.2402 30.2469 26.2412 30.2476 26.2414C30.3298 26.278 30.3931 26.2732 30.4355 26.2598C30.4568 26.2531 30.473 26.2441 30.4838 26.2369C30.4892 26.2333 30.4932 26.2302 30.4959 26.2279C30.4972 26.2268 30.4982 26.2259 30.4988 26.2254L30.4995 26.2247L30.4996 26.2246C30.4996 26.2246 30.4996 26.2246 30.5063 26.2312L30.51 26.2227L30.5102 26.2227L30.5108 26.223L30.5132 26.224C30.5153 26.2249 30.5185 26.2261 30.5225 26.2276C30.5305 26.2307 30.5419 26.2348 30.5556 26.239C30.583 26.2474 30.6191 26.2559 30.6542 26.257C30.6896 26.2582 30.7225 26.2518 30.7454 26.2321C30.7678 26.2127 30.7827 26.1786 30.7782 26.1195L30.7781 26.1192C30.7688 25.9238 30.699 25.6953 30.6145 25.4373C30.6056 25.41 30.5965 25.3824 30.5873 25.3544C30.5097 25.1187 30.4246 24.8603 30.3658 24.5832L30.3658 24.583C30.2902 24.1897 30.2754 23.784 30.2628 23.4356C30.2597 23.3515 30.2568 23.2708 30.2532 23.1943C30.2506 23.1576 30.248 23.1214 30.2455 23.0858C30.2111 22.6028 30.1833 22.2135 30.2557 21.8932C30.2947 21.721 30.3626 21.5684 30.4741 21.4318C30.5833 21.2979 30.7341 21.1797 30.9394 21.0731L30.7298 20.8985Z" fill="black"/>
<path d="M29.925 20.775H30.2625C29.9812 23.4937 30.225 25.1062 30.225 25.8937C30.225 26.1562 30.375 26.25 30.3562 26.25C30.0187 26.625 29.85 26.2312 29.85 26.2312L29.925 20.775Z" fill="#73452B"/>
<path fill-rule="evenodd" clip-rule="evenodd" d="M29.9157 20.7656H30.2729L30.2718 20.776C30.06 22.8236 30.146 24.2426 30.2014 25.1554C30.2195 25.4544 30.2344 25.6991 30.2344 25.8938C30.2344 26.0231 30.2713 26.1104 30.3056 26.1653C30.3228 26.1928 30.3394 26.2123 30.3506 26.225C30.3519 26.2264 30.3531 26.2277 30.3542 26.229C30.3581 26.2334 30.3614 26.2371 30.3635 26.2398C30.3642 26.2408 30.3649 26.2418 30.3655 26.2429C30.366 26.2439 30.367 26.2457 30.3672 26.248C30.3675 26.251 30.3665 26.2549 30.3629 26.2574C30.3624 26.2578 30.3619 26.258 30.3614 26.2583C30.277 26.3515 30.2023 26.398 30.137 26.4144C30.071 26.4309 30.0157 26.4161 29.9717 26.3892C29.9279 26.3625 29.8954 26.3238 29.8739 26.2922C29.8631 26.2763 29.855 26.2621 29.8496 26.2518C29.8469 26.2467 29.8448 26.2425 29.8435 26.2396C29.8428 26.2381 29.8423 26.237 29.8419 26.2362L29.8415 26.2353L29.8414 26.235L29.8414 26.235C29.8414 26.2349 29.8414 26.2349 29.85 26.2312L29.8414 26.235L29.8406 26.2331L29.9157 20.7656ZM29.8594 26.2293C29.8597 26.2299 29.86 26.2307 29.8604 26.2316C29.8617 26.2343 29.8636 26.2382 29.8662 26.2431C29.8713 26.2529 29.8791 26.2665 29.8894 26.2816C29.9101 26.3121 29.9408 26.3484 29.9814 26.3732C30.0218 26.3979 30.072 26.4113 30.1325 26.3962C30.1924 26.3812 30.2635 26.3379 30.3457 26.2477C30.3443 26.2461 30.3427 26.2443 30.3407 26.2421C30.3395 26.2407 30.3381 26.2392 30.3366 26.2375C30.325 26.2244 30.3077 26.204 30.2897 26.1753C30.2537 26.1177 30.2156 26.0269 30.2156 25.8938C30.2156 25.7001 30.2008 25.4563 30.1827 25.158C30.1275 24.2469 30.0414 22.8283 30.2521 20.7844H29.9342L29.8594 26.2293Z" fill="black"/>
<path d="M29.4001 26.2312C29.0813 26.3812 29.0438 26.0812 29.0626 26.0437C29.7563 24.6375 30.0563 21.5437 29.4188 21.2062L29.4563 20.9062C29.7001 20.9813 29.9251 21.3 29.9251 21.3C30.0188 24.7687 29.9251 26.1937 29.8688 26.25C29.5313 26.6062 29.4001 26.1937 29.3813 26.1562" fill="#A36629"/>
<path fill-rule="evenodd" clip-rule="evenodd" d="M29.4484 20.894L29.459 20.8973C29.5833 20.9355 29.7018 21.0354 29.7888 21.1247C29.8324 21.1695 29.8683 21.2119 29.8934 21.2432C29.9059 21.2588 29.9157 21.2716 29.9224 21.2805C29.9257 21.285 29.9283 21.2885 29.93 21.2909L29.932 21.2936L29.9325 21.2943L29.9326 21.2945L29.9343 21.2969L29.9344 21.2998C29.9813 23.0342 29.9813 24.2578 29.9625 25.0549C29.9532 25.4534 29.9391 25.7454 29.9238 25.9414C29.9162 26.0393 29.9083 26.1134 29.9005 26.1648C29.8966 26.1905 29.8927 26.2108 29.8888 26.2256C29.8869 26.233 29.8849 26.2393 29.8828 26.2443C29.8809 26.249 29.8786 26.2534 29.8755 26.2565C29.7905 26.3463 29.7173 26.3888 29.6545 26.4002C29.5912 26.4116 29.5399 26.391 29.4996 26.358C29.4595 26.3253 29.4301 26.28 29.4096 26.2412C29.3993 26.2217 29.3912 26.2036 29.3851 26.1893C29.3825 26.1832 29.3804 26.178 29.3786 26.1736C29.376 26.1674 29.3742 26.163 29.3729 26.1604L29.3897 26.1521C29.3912 26.1552 29.3935 26.1607 29.3964 26.1677C29.3982 26.172 29.4002 26.1768 29.4024 26.182C29.4084 26.196 29.4163 26.2136 29.4262 26.2325C29.4462 26.2704 29.4742 26.313 29.5114 26.3435C29.5484 26.3738 29.5944 26.392 29.6512 26.3817C29.7085 26.3714 29.7783 26.3319 29.862 26.2436L29.8622 26.2434C29.8626 26.243 29.8638 26.2413 29.8655 26.2371C29.8671 26.2332 29.8688 26.2279 29.8706 26.2209C29.8743 26.207 29.8781 26.1874 29.8819 26.162C29.8896 26.1112 29.8975 26.0377 29.9051 25.9399C29.9204 25.7444 29.9344 25.4528 29.9438 25.0545C29.9625 24.2582 29.9625 23.0359 29.9157 21.3031L29.9149 21.3019C29.9132 21.2996 29.9107 21.2962 29.9074 21.2918C29.9008 21.283 29.8911 21.2703 29.8788 21.2549C29.854 21.224 29.8185 21.1821 29.7754 21.1378C29.6914 21.0516 29.5799 20.9578 29.4642 20.9187L29.4289 21.2011C29.5086 21.2457 29.5729 21.3319 29.6236 21.4496C29.6755 21.5703 29.7135 21.7252 29.7389 21.9054C29.7897 22.2659 29.7903 22.7289 29.7492 23.225C29.6671 24.217 29.4185 25.3433 29.0709 26.0479C29.0696 26.0506 29.0681 26.0576 29.068 26.0689C29.0678 26.0797 29.0689 26.0932 29.0717 26.1082C29.0774 26.1383 29.0898 26.1731 29.1122 26.2021C29.1343 26.2309 29.1663 26.2541 29.2117 26.2613C29.2573 26.2685 29.3174 26.2598 29.396 26.2228L29.404 26.2397C29.3233 26.2777 29.2592 26.2878 29.2087 26.2798C29.158 26.2717 29.122 26.2456 29.0973 26.2135C29.0727 26.1816 29.0594 26.1438 29.0533 26.1117C29.0503 26.0956 29.0491 26.0808 29.0492 26.0686C29.0494 26.0569 29.0508 26.0463 29.0541 26.0396C29.4003 25.3379 29.6486 24.2142 29.7305 23.2235C29.7715 22.7281 29.7709 22.2666 29.7203 21.9081C29.6951 21.7288 29.6574 21.5756 29.6064 21.457C29.5553 21.3383 29.4914 21.2553 29.4144 21.2145L29.4087 21.2115L29.4484 20.894Z" fill="black"/>
<path fill-rule="evenodd" clip-rule="evenodd" d="M29.442 25.8718C29.3995 25.9988 29.3769 26.101 29.3905 26.1733L29.372 26.1767C29.3575 26.099 29.3818 25.9926 29.4242 25.8659C29.4519 25.7832 29.4877 25.6909 29.5264 25.5911C29.5472 25.5374 29.5688 25.4816 29.5904 25.424C29.7146 25.0937 29.8405 24.7015 29.8219 24.3004L29.8406 24.2996C29.8595 24.7047 29.7323 25.1 29.608 25.4306C29.5862 25.4887 29.5645 25.5447 29.5436 25.5984C29.5051 25.6979 29.4695 25.7896 29.442 25.8718ZM30.4969 26.2304C30.5342 25.8384 30.4597 25.4274 30.2912 24.9594L30.3088 24.9531C30.4779 25.4226 30.5533 25.8365 30.5156 26.2321L30.4969 26.2304Z" fill="black"/>
<path d="M31.0312 19.5C31.1437 19.3687 31.1437 19.3687 31.35 19.3687C31.3875 19.0875 31.8562 19.0875 31.8937 19.4437C32.2687 19.3687 32.3437 19.5937 32.1937 19.8187C32.55 19.725 32.8687 19.8187 32.775 20.2312C33.4125 20.4 33.1687 20.85 32.8875 20.9437C32.85 21.225 32.5875 21.3187 32.2312 21.2062C31.7812 21.525 31.5187 21.4125 31.3125 21.0937C30.8062 21.1687 30.7687 21.0562 30.5437 20.775C30.15 20.9437 30.075 20.9437 29.7375 20.7375C29.7187 21 29.625 20.925 29.4562 20.9062C29.475 21.2437 29.3437 21.3937 29.0437 21.2812C29.2687 21.75 28.6875 21.9562 28.4062 21.5625C28.1437 21.5812 28.125 21.5062 27.9937 21.4125C27.8812 21.7875 27.4687 21.7312 27.3937 21.525C26.8687 21.45 26.925 21.1687 27.3562 21.15C27.3937 20.85 27.6562 20.9062 27.825 20.9437C27.8437 20.7562 27.9562 20.7937 28.05 20.8312C27.9937 20.7 28.0312 20.625 28.2 20.5875C27.9562 20.2687 28.1062 20.1562 28.35 20.0437C28.2187 19.7437 28.4437 19.7625 28.6125 19.7437C28.5937 19.425 28.6875 19.3687 29.025 19.3312C28.9875 19.2187 29.0437 19.125 29.2312 19.125C29.1187 18.8062 29.2687 18.7312 29.6062 18.7875C29.6625 18.3187 30.6562 18.5437 30.5812 19.1812C30.8625 19.2187 30.9562 19.275 31.0312 19.5Z" fill="#009A3B"/>
<path fill-rule="evenodd" clip-rule="evenodd" d="M29.7959 18.5705C29.6989 18.6043 29.6291 18.6755 29.6155 18.7886L29.6143 18.7984L29.6047 18.7967C29.5207 18.7827 29.4488 18.777 29.3901 18.781C29.3312 18.7851 29.2865 18.7989 29.2558 18.823C29.2254 18.8469 29.2076 18.8817 29.2042 18.9305C29.2008 18.9797 29.2121 19.0428 29.2401 19.1219L29.2445 19.1344H29.2312C29.1387 19.1344 29.081 19.1576 29.0508 19.1921C29.0209 19.2263 29.0158 19.274 29.0339 19.3283L29.0375 19.3393L29.026 19.3406C28.9417 19.3499 28.8732 19.3604 28.818 19.3757C28.7628 19.391 28.7216 19.411 28.6915 19.4389C28.6316 19.4944 28.6125 19.584 28.6218 19.7432L28.6223 19.7521L28.6135 19.7531C28.5951 19.7551 28.5761 19.7567 28.5571 19.7583C28.5541 19.7586 28.5511 19.7588 28.5481 19.7591C28.5261 19.7609 28.5042 19.7629 28.483 19.7656C28.4405 19.7712 28.4022 19.7798 28.3734 19.7964C28.3452 19.8127 28.326 19.8367 28.3212 19.8742C28.3162 19.9124 28.326 19.9656 28.3585 20.04L28.3622 20.0484L28.3539 20.0523C28.2931 20.0803 28.2386 20.1082 28.1948 20.139C28.151 20.1699 28.1185 20.2033 28.1007 20.2422C28.0655 20.3192 28.086 20.423 28.2074 20.5818L28.2163 20.5935L28.202 20.5967C28.1182 20.6153 28.07 20.6427 28.0487 20.679C28.0275 20.7149 28.0308 20.7628 28.0586 20.8276L28.0675 20.8484L28.0465 20.84C28.0231 20.8306 27.999 20.8214 27.9757 20.8157C27.9523 20.8101 27.9305 20.808 27.9114 20.8123C27.8926 20.8164 27.876 20.8267 27.8627 20.847C27.8492 20.8675 27.8389 20.8986 27.8343 20.9447L27.8332 20.9552L27.8229 20.9529C27.7381 20.9341 27.6323 20.9112 27.5433 20.9295C27.4991 20.9386 27.4594 20.9577 27.4285 20.9922C27.3976 21.0267 27.3747 21.0775 27.3655 21.1512L27.3645 21.159L27.3566 21.1594C27.2497 21.164 27.1668 21.1849 27.1107 21.2143C27.0542 21.2438 27.0268 21.2806 27.0257 21.3167C27.0247 21.3527 27.0499 21.3929 27.1106 21.4294C27.1709 21.4657 27.2645 21.4971 27.395 21.5157L27.4006 21.5165L27.4025 21.5218C27.4382 21.62 27.5555 21.6842 27.6791 21.6774C27.8017 21.6706 27.9296 21.5936 27.9847 21.4098L27.9885 21.3973L27.9992 21.4049C28.0259 21.4239 28.048 21.4423 28.0682 21.459C28.0731 21.4631 28.0779 21.467 28.0826 21.4709C28.1068 21.4907 28.129 21.5078 28.1551 21.5214C28.2068 21.5484 28.2751 21.5625 28.4055 21.5531L28.4108 21.5528L28.4138 21.5571C28.5522 21.7507 28.7633 21.7958 28.9113 21.7366C28.9853 21.707 29.0435 21.6515 29.0697 21.5753C29.096 21.499 29.0907 21.4008 29.0353 21.2853L29.0252 21.2643L29.047 21.2725C29.1958 21.3283 29.2989 21.3176 29.363 21.2558C29.4278 21.1931 29.4562 21.075 29.4469 20.9068L29.4462 20.8957L29.4572 20.8969C29.4877 20.9003 29.5159 20.9055 29.5413 20.9102C29.5514 20.9121 29.5611 20.9139 29.5703 20.9155C29.6032 20.921 29.6295 20.9236 29.6508 20.9182C29.6712 20.9132 29.6879 20.9006 29.7009 20.8732C29.7142 20.8452 29.7234 20.8021 29.7281 20.7368L29.7292 20.7215L29.7424 20.7295C29.9113 20.8327 30.0125 20.8829 30.1199 20.8875C30.2276 20.8921 30.3428 20.8509 30.54 20.7664L30.5466 20.7636L30.551 20.7691C30.5697 20.7925 30.587 20.8146 30.6034 20.8355C30.6366 20.8778 30.6659 20.9152 30.6946 20.9478C30.7373 20.9963 30.778 21.0335 30.827 21.0597C30.9249 21.1121 31.0582 21.1219 31.3111 21.0845L31.3171 21.0836L31.3203 21.0887C31.4229 21.2472 31.5382 21.3524 31.6822 21.3799C31.8262 21.4073 32.0017 21.3574 32.2258 21.1986L32.2296 21.1959L32.234 21.1973C32.4111 21.2532 32.5634 21.2574 32.6755 21.2139C32.7869 21.1707 32.8598 21.08 32.8782 20.9425L32.8789 20.9367L32.8845 20.9349C33.0225 20.8889 33.1505 20.7555 33.1664 20.6146C33.1743 20.5446 33.1547 20.4723 33.0942 20.407C33.0334 20.3413 32.9309 20.2822 32.7726 20.2403L32.7638 20.238L32.7658 20.2292C32.789 20.1272 32.7865 20.0458 32.7649 19.9826C32.7434 19.9196 32.7029 19.8739 32.6485 19.8433C32.5392 19.7818 32.3734 19.7812 32.1961 19.8278L32.1722 19.8341L32.1859 19.8136C32.2602 19.7022 32.2766 19.594 32.2326 19.5237C32.189 19.4539 32.082 19.4157 31.8956 19.4529L31.8855 19.455L31.8844 19.4447C31.8662 19.2716 31.7436 19.1856 31.6211 19.1765C31.498 19.1674 31.3772 19.2356 31.3593 19.37L31.3582 19.3781H31.35C31.2983 19.3781 31.26 19.3781 31.2296 19.3802C31.1993 19.3822 31.1776 19.3862 31.159 19.3938C31.1217 19.4092 31.0952 19.4398 31.0383 19.5061L31.0312 19.5L31.0223 19.503C30.9851 19.3913 30.9438 19.3232 30.8782 19.278C30.8123 19.2325 30.7205 19.2093 30.58 19.1905L30.5708 19.1893L30.5719 19.1802C30.6087 18.8675 30.3836 18.655 30.1401 18.5785C30.0185 18.5402 29.8934 18.5364 29.7959 18.5705ZM31.0348 19.4814C31.0837 19.4244 31.1123 19.3928 31.1519 19.3765C31.1731 19.3677 31.1971 19.3635 31.2283 19.3614C31.2578 19.3595 31.2944 19.3594 31.3419 19.3594C31.3652 19.2179 31.4949 19.1484 31.6225 19.1578C31.7507 19.1673 31.8789 19.2563 31.9018 19.4326C32.0846 19.3982 32.1993 19.435 32.2485 19.5138C32.2954 19.5888 32.2795 19.6967 32.2143 19.8039C32.3849 19.7626 32.547 19.7647 32.6577 19.827C32.7158 19.8597 32.7596 19.9089 32.7827 19.9766C32.805 20.0421 32.8077 20.1243 32.7861 20.2245C32.9416 20.2668 33.045 20.3263 33.1079 20.3942C33.1722 20.4636 33.1936 20.5413 33.1851 20.6167C33.1684 20.7645 33.0372 20.9013 32.8959 20.9508C32.8755 21.0914 32.7989 21.1862 32.6823 21.2314C32.5656 21.2766 32.4102 21.2719 32.2328 21.2166C32.0087 21.3745 31.8291 21.4269 31.6787 21.3983C31.5289 21.3697 31.4108 21.2614 31.3079 21.1039C31.0583 21.1404 30.921 21.1312 30.8182 21.0762C30.7664 21.0485 30.7239 21.0095 30.6805 20.9602C30.6515 20.9272 30.6216 20.8891 30.5882 20.8465C30.5732 20.8274 30.5575 20.8074 30.5408 20.7864C30.3482 20.8688 30.2305 20.911 30.1191 20.9062C30.0091 20.9016 29.9066 20.8512 29.7456 20.7534C29.7406 20.8113 29.7315 20.8525 29.7178 20.8813C29.7027 20.9131 29.6819 20.9298 29.6554 20.9364C29.6298 20.9428 29.5999 20.9395 29.5671 20.934C29.5575 20.9323 29.5475 20.9305 29.5372 20.9286C29.5151 20.9245 29.4916 20.9201 29.4661 20.9169C29.4737 21.0805 29.4455 21.2021 29.376 21.2692C29.3075 21.3354 29.2022 21.3458 29.0615 21.2976C29.1098 21.4079 29.114 21.5041 29.0874 21.5814C29.0592 21.6634 28.9967 21.7227 28.9183 21.754C28.7627 21.8162 28.5447 21.7687 28.4017 21.5722C28.2729 21.5809 28.2017 21.5669 28.1464 21.538C28.1186 21.5235 28.0951 21.5054 28.0707 21.4854C28.0659 21.4814 28.061 21.4774 28.0561 21.4733C28.0387 21.4589 28.0203 21.4436 27.9988 21.4278C27.9394 21.61 27.8078 21.689 27.6802 21.6961C27.5528 21.7032 27.4283 21.6384 27.3869 21.5335C27.2578 21.5145 27.1633 21.483 27.1009 21.4454C27.0379 21.4075 27.0057 21.3621 27.007 21.3161C27.0083 21.2702 27.043 21.2285 27.102 21.1977C27.1598 21.1674 27.243 21.1464 27.3479 21.141C27.3581 21.0687 27.3816 21.0165 27.4146 20.9797C27.4487 20.9415 27.4923 20.9208 27.5395 20.9111C27.6295 20.8927 27.7343 20.9141 27.8168 20.9323C27.822 20.89 27.8324 20.8589 27.847 20.8366C27.863 20.8123 27.8838 20.7992 27.9073 20.794C27.9304 20.7888 27.9554 20.7915 27.9801 20.7975C27.9979 20.8019 28.0158 20.808 28.0332 20.8146C28.0119 20.7571 28.0094 20.7087 28.0325 20.6695C28.0566 20.6285 28.1069 20.6005 28.1838 20.5817C28.069 20.4279 28.0448 20.3194 28.0836 20.2344C28.1033 20.1913 28.1388 20.1555 28.184 20.1237C28.2272 20.0933 28.2799 20.066 28.3377 20.0391C28.3075 19.9676 28.2972 19.9133 28.3026 19.8717C28.3083 19.8278 28.3313 19.799 28.364 19.7802C28.3962 19.7616 28.4376 19.7527 28.4806 19.7471C28.5022 19.7442 28.5245 19.7422 28.5466 19.7404C28.5496 19.7401 28.5526 19.7399 28.5556 19.7396C28.5715 19.7383 28.5873 19.737 28.6026 19.7354C28.5944 19.5811 28.6133 19.4857 28.6787 19.4252C28.7119 19.3945 28.7562 19.3734 28.813 19.3577C28.8672 19.3426 28.9332 19.3323 29.0127 19.3232C28.9973 19.269 29.0032 19.218 29.0367 19.1798C29.0704 19.1412 29.1303 19.1179 29.2181 19.1158C29.1928 19.0411 29.1821 18.9793 29.1855 18.9292C29.1892 18.8761 29.2089 18.836 29.2442 18.8083C29.2791 18.7808 29.3281 18.7665 29.3888 18.7623C29.4473 18.7583 29.5175 18.7637 29.5982 18.7767C29.6155 18.661 29.6897 18.5877 29.7897 18.5528C29.892 18.5171 30.0213 18.5215 30.1457 18.5606C30.3921 18.638 30.6243 18.8534 30.5915 19.1732C30.7273 19.1918 30.8204 19.2154 30.8889 19.2626C30.956 19.3089 30.9983 19.377 31.0348 19.4814Z" fill="black"/>
<path fill-rule="evenodd" clip-rule="evenodd" d="M30.4899 19.2428C30.5262 19.2223 30.556 19.2022 30.5734 19.1761L30.589 19.1865C30.5689 19.2166 30.5355 19.2386 30.4991 19.2591C30.4884 19.2652 30.4774 19.2711 30.4663 19.2771C30.4391 19.2918 30.4113 19.3068 30.385 19.3249C30.3482 19.3502 30.3156 19.3807 30.2943 19.4228C30.273 19.4648 30.2626 19.5191 30.2718 19.5926L30.2548 19.5992C30.2093 19.5355 30.1413 19.4949 30.076 19.4859C30.0111 19.4769 29.9496 19.4992 29.9144 19.5609L29.8981 19.5516C29.9378 19.4821 30.0075 19.4575 30.0786 19.4673C30.1402 19.4758 30.2032 19.51 30.2503 19.5634C30.2469 19.5021 30.2576 19.4537 30.2775 19.4143C30.3008 19.3685 30.3361 19.3358 30.3743 19.3095C30.4015 19.2908 30.4308 19.275 30.4583 19.2601C30.4692 19.2542 30.4798 19.2485 30.4899 19.2428ZM29.0768 19.3583C29.0586 19.3537 29.0392 19.3488 29.0208 19.3396L29.0292 19.3229C29.0457 19.3311 29.0632 19.3356 29.0817 19.3402C29.083 19.3406 29.0843 19.3409 29.0856 19.3412C29.1051 19.3462 29.1257 19.3517 29.1446 19.3631C29.1799 19.3842 29.2069 19.424 29.2187 19.5091C29.2526 19.4563 29.2885 19.4223 29.3245 19.4054C29.3661 19.3858 29.407 19.3896 29.4425 19.4124C29.4776 19.435 29.5067 19.4756 29.5271 19.5289C29.5475 19.5823 29.5593 19.6491 29.5593 19.725H29.5406C29.5406 19.6509 29.529 19.5865 29.5096 19.5356C29.4901 19.4846 29.463 19.4479 29.4324 19.4282C29.4023 19.4088 29.3682 19.4056 29.3325 19.4224C29.2962 19.4394 29.2576 19.4774 29.2206 19.5422L29.2058 19.568L29.2031 19.5384C29.1939 19.4365 29.1664 19.398 29.135 19.3791C29.1187 19.3694 29.1006 19.3644 29.081 19.3594C29.0796 19.359 29.0782 19.3587 29.0768 19.3583ZM31.0032 19.6906C31.0172 19.6114 31.0218 19.537 31.0218 19.5H31.0406C31.0406 19.5381 31.0359 19.6136 31.0217 19.6938C31.0076 19.7738 30.9839 19.8598 30.9453 19.9177L30.9297 19.9073C30.966 19.8527 30.9892 19.77 31.0032 19.6906ZM32.1852 19.8207C32.1853 19.8236 32.1869 19.8252 32.1871 19.8254L32.2003 19.8121C32.2017 19.8135 32.2039 19.8162 32.204 19.8202C32.2041 19.8245 32.2017 19.8274 32.1999 19.829C32.1982 19.8304 32.1963 19.8313 32.1948 19.8319C32.1933 19.8325 32.1915 19.833 32.1897 19.8334C32.1828 19.8351 32.1722 19.8363 32.1594 19.8375C32.151 19.8382 32.1414 19.839 32.1309 19.8398C32.1088 19.8416 32.0827 19.8437 32.0541 19.8468C31.9697 19.8562 31.8688 19.8748 31.8054 19.9201L31.7945 19.9049C31.8623 19.8564 31.9678 19.8376 32.0521 19.8282C32.0809 19.825 32.1077 19.8229 32.1299 19.8211C32.1403 19.8203 32.1496 19.8195 32.1577 19.8188C32.1707 19.8176 32.18 19.8165 32.1854 19.8152C32.1867 19.8149 32.1875 19.8146 32.1881 19.8144C32.1887 19.8142 32.1883 19.8142 32.1877 19.8148C32.187 19.8154 32.1851 19.8174 32.1852 19.8207ZM29.1754 20.0269C29.1106 20.047 29.023 20.1151 28.9203 20.2738L28.9097 20.2902L28.9036 20.2717C28.89 20.231 28.8699 20.2033 28.8462 20.1844C28.8225 20.1654 28.7948 20.1547 28.7654 20.1491C28.7359 20.1434 28.7051 20.1428 28.6754 20.1437C28.6632 20.144 28.651 20.1446 28.6392 20.1452C28.6228 20.1461 28.6073 20.1469 28.5937 20.1469V20.1281C28.6071 20.1281 28.6216 20.1274 28.6373 20.1266C28.6491 20.126 28.6616 20.1253 28.6749 20.1249C28.705 20.124 28.7375 20.1246 28.7689 20.1306C28.8004 20.1367 28.8313 20.1483 28.858 20.1697C28.881 20.1882 28.9005 20.2136 28.9148 20.2481C29.0141 20.0989 29.1011 20.0304 29.1698 20.009C29.2419 19.9867 29.2936 20.0164 29.3146 20.0583L29.2978 20.0667C29.2813 20.0336 29.2393 20.0071 29.1754 20.0269ZM29.9576 20.0916C29.8554 20.0289 29.7555 20.0072 29.6845 20.0338L29.6779 20.0162C29.7569 19.9866 29.8633 20.0117 29.9674 20.0756C30.0674 20.137 30.1672 20.2352 30.2419 20.3597C30.2789 20.2678 30.3249 20.2271 30.3764 20.2084C30.4034 20.1986 30.4314 20.195 30.4591 20.1926C30.4664 20.192 30.4737 20.1915 30.4809 20.1909C30.5014 20.1894 30.5217 20.1879 30.5422 20.1845L30.5453 20.203C30.5239 20.2066 30.5024 20.2082 30.4816 20.2097C30.4745 20.2102 30.4676 20.2107 30.4607 20.2113C30.4334 20.2136 30.4074 20.2171 30.3829 20.226C30.3346 20.2435 30.2894 20.2831 30.2525 20.3845L30.2456 20.4035L30.2356 20.3859C30.1613 20.256 30.0593 20.154 29.9576 20.0916ZM31.5485 20.4147C31.4733 20.3623 31.3784 20.3352 31.2601 20.3898L31.2523 20.3727C31.3778 20.3148 31.4797 20.3439 31.5592 20.3993C31.6269 20.4465 31.6787 20.513 31.7154 20.5601C31.7187 20.5643 31.7218 20.5684 31.7248 20.5722C31.7791 20.5025 31.8298 20.4661 31.8811 20.4474C31.9343 20.4281 31.9872 20.4281 32.0429 20.4281H32.0437V20.4469C31.9872 20.4469 31.9373 20.447 31.8875 20.4651C31.8381 20.483 31.7879 20.5192 31.7325 20.5931L31.7252 20.6028L31.7176 20.5934C31.7122 20.5866 31.7064 20.5792 31.7003 20.5713C31.6634 20.524 31.6136 20.4601 31.5485 20.4147ZM30.5291 20.7181C30.5318 20.7388 30.5343 20.7586 30.5343 20.775H30.5156C30.5156 20.7599 30.5132 20.7417 30.5105 20.7209C30.51 20.7169 30.5095 20.7127 30.5089 20.7085C30.5057 20.683 30.5027 20.6548 30.5039 20.6269C30.5051 20.5991 30.5106 20.5711 30.5247 20.5462C30.539 20.5212 30.5617 20.4999 30.5963 20.4851L30.6037 20.5024C30.5726 20.5157 30.5531 20.5343 30.541 20.5555C30.5288 20.5769 30.5237 20.6017 30.5226 20.6278C30.5215 20.6539 30.5243 20.6807 30.5275 20.7062C30.528 20.7102 30.5286 20.7142 30.5291 20.7181ZM28.3918 20.5477C28.3223 20.5453 28.26 20.5594 28.2253 20.5941L28.2121 20.5809C28.2524 20.5406 28.3214 20.5265 28.3925 20.5289C28.464 20.5313 28.5404 20.5504 28.5979 20.5791L28.5895 20.5959C28.5346 20.5684 28.4609 20.55 28.3918 20.5477ZM29.3246 20.6012C29.2918 20.6339 29.2689 20.6918 29.278 20.774L29.2801 20.7928L29.2639 20.783C29.1736 20.7288 29.0485 20.7477 28.9955 20.8361L28.9794 20.8264C29.0358 20.7325 29.1621 20.7108 29.2579 20.7584C29.2532 20.6808 29.2763 20.6229 29.3113 20.5879C29.3488 20.5504 29.3999 20.5395 29.4417 20.5604L29.4333 20.5771C29.4 20.5605 29.3574 20.5683 29.3246 20.6012ZM32.5591 20.9366C32.5583 20.897 32.5542 20.8406 32.5328 20.7901C32.5194 20.7585 32.4991 20.7288 32.4684 20.707C32.4375 20.6852 32.3969 20.6719 32.3437 20.6719V20.6906C32.3936 20.6906 32.4304 20.7031 32.4575 20.7223C32.4848 20.7416 32.5032 20.7681 32.5155 20.7974C32.5405 20.8564 32.5406 20.9248 32.5406 20.9625V20.9906L32.5575 20.9681C32.5847 20.9319 32.6138 20.9108 32.6429 20.8998C32.6721 20.8888 32.7021 20.8876 32.7313 20.8921C32.7818 20.8998 32.8289 20.9242 32.8655 20.9431C32.8717 20.9463 32.8777 20.9493 32.8833 20.9521L32.8917 20.9354C32.8864 20.9327 32.8807 20.9298 32.8746 20.9266C32.8383 20.9078 32.788 20.8818 32.7342 20.8736C32.7025 20.8687 32.6692 20.8698 32.6363 20.8823C32.6096 20.8923 32.5835 20.9097 32.5591 20.9366ZM31.5019 20.8972C31.5394 20.8956 31.579 20.9069 31.6181 20.9363L31.6068 20.9513C31.5709 20.9243 31.5355 20.9145 31.5027 20.9159C31.4697 20.9173 31.4386 20.9299 31.4116 20.9491C31.3846 20.9682 31.3621 20.9936 31.3463 21.0198C31.3304 21.0461 31.3218 21.0726 31.3218 21.0938H31.3031C31.3031 21.0681 31.3133 21.0383 31.3302 21.0101C31.3472 20.9818 31.3715 20.9545 31.4008 20.9338C31.4301 20.913 31.4646 20.8987 31.5019 20.8972ZM32.2167 21.0042C32.2312 21.05 32.2406 21.1119 32.2406 21.2063H32.2218C32.2218 21.1131 32.2125 21.0532 32.1988 21.0099C32.1852 20.9667 32.1671 20.9395 32.1484 20.9115L32.164 20.9011L32.1641 20.9012C32.1829 20.9294 32.2023 20.9584 32.2167 21.0042ZM28.5451 21.269C28.5323 21.1954 28.4848 21.1273 28.4141 21.1014C28.3392 21.0739 28.2418 21.0949 28.1371 21.1996L28.1503 21.2129C28.2519 21.1113 28.342 21.0949 28.4077 21.119C28.474 21.1433 28.5191 21.2102 28.5282 21.2824L28.5281 21.2824L28.5283 21.2831C28.5324 21.304 28.5283 21.3191 28.5193 21.3334C28.5112 21.3462 28.4992 21.358 28.4846 21.3724C28.4821 21.3749 28.4796 21.3775 28.4769 21.3801C28.4411 21.4159 28.3975 21.4644 28.3783 21.5607L28.3967 21.5643C28.4149 21.4731 28.4557 21.4279 28.4902 21.3934C28.4927 21.3909 28.4951 21.3884 28.4976 21.386C28.512 21.3717 28.5257 21.3582 28.5351 21.3434C28.5453 21.3274 28.5506 21.3097 28.548 21.2877C28.6004 21.2714 28.6522 21.2676 28.6954 21.2741C28.741 21.281 28.7755 21.2989 28.7922 21.324L28.8078 21.3136C28.7869 21.2823 28.7464 21.2628 28.6982 21.2556C28.6527 21.2488 28.5991 21.2526 28.5451 21.269Z" fill="black"/>
<path d="M29.7562 16.9219L29.3438 16.9406L29.1375 17.3156L28.9125 16.9594L28.5 16.9781L28.6875 16.6031L28.4625 16.2562L28.8938 16.2375L29.0813 15.8625L29.3063 16.2187L29.7188 16.2L29.5312 16.575L29.7562 16.9219ZM27.9938 17.0625L27.5813 17.1562L27.4688 17.5594L27.1687 17.2594L26.775 17.3531L26.8875 16.9594L26.6062 16.6594L27 16.5562L27.1125 16.1531L27.4125 16.4531L27.825 16.3594L27.6937 16.7625L27.9938 17.0625ZM26.2875 17.4094L25.9125 17.5969L25.8938 18.0094L25.5375 17.7844L25.1625 17.9719L25.2 17.55L24.8438 17.325L25.2188 17.1375L25.2562 16.7156L25.5938 16.95L25.9688 16.7625L25.95 17.175L26.2875 17.4094ZM30.3 16.9219L30.7125 16.9406L30.9 17.3156L31.125 16.9594L31.5375 16.9781L31.35 16.6031L31.575 16.2562L31.1625 16.2375L30.9563 15.8625L30.7312 16.2187L30.3187 16.2L30.5062 16.575L30.3 16.9219ZM32.0625 17.0625L32.4563 17.1562L32.5687 17.5594L32.8688 17.2594L33.2625 17.3531L33.15 16.9594L33.45 16.6594L33.0375 16.5562L32.925 16.1531L32.625 16.4531L32.2312 16.3594L32.3438 16.7625L32.0625 17.0625ZM33.75 17.4094L34.125 17.5969L34.1438 18.0094L34.5 17.7844L34.875 17.9719L34.8562 17.55L35.1937 17.325L34.8187 17.1375L34.8 16.7156L34.4437 16.95L34.0687 16.7625L34.1062 17.175L33.75 17.4094Z" fill="#FFD700"/>
<path fill-rule="evenodd" clip-rule="evenodd" d="M29.0779 15.7958L29.3238 16.1851L29.773 16.1647L29.5689 16.5729L29.8149 16.952L29.3636 16.9726L29.1394 17.3802L28.8949 16.993L28.4456 17.0134L28.6497 16.6052L28.4037 16.226L28.873 16.2055L29.0779 15.7958ZM30.9581 15.798L31.1823 16.2055L31.6336 16.2261L31.3877 16.6052L31.5918 17.0134L31.1425 16.993L30.8966 17.3823L30.6917 16.9725L30.2438 16.9522L30.4688 16.5736L30.2643 16.1647L30.7136 16.1851L30.9581 15.798ZM30.9542 15.927L30.7488 16.2524L30.373 16.2353L30.5436 16.5764L30.3561 16.8916L30.7332 16.9087L30.9033 17.2489L31.1074 16.9257L31.4831 16.9428L31.3122 16.601L31.5163 16.2864L31.1426 16.2694L30.9542 15.927ZM29.0845 15.9292L29.2886 16.2524L29.6643 16.2353L29.4935 16.5771L29.6975 16.8917L29.3238 16.9087L29.1355 17.2511L28.93 16.9257L28.5543 16.9428L28.7252 16.601L28.5212 16.2865L28.9144 16.2694L29.0845 15.9292ZM27.0959 16.0902L27.4228 16.4171L27.874 16.3146L27.7311 16.7535L28.0589 17.0813L27.6075 17.1839L27.4852 17.6223L27.1585 17.2955L26.728 17.398L26.8508 16.9682L26.5446 16.6416L26.9734 16.5293L27.0959 16.0902ZM32.9415 16.0902L33.0639 16.529L33.5141 16.6416L33.1868 16.9689L33.3094 17.398L32.8789 17.2955L32.5522 17.6223L32.4298 17.1837L31.9998 17.0813L32.3071 16.7535L32.1846 16.3145L32.6147 16.417L32.9415 16.0902ZM32.9084 16.216L32.6352 16.4893L32.2778 16.4042L32.3803 16.7715L32.1251 17.0437L32.4826 17.1288L32.5852 17.4965L32.8585 17.2232L33.2155 17.3082L33.1131 16.9498L33.3858 16.6771L33.011 16.5834L32.9084 16.216ZM27.129 16.216L27.0265 16.5832L26.6678 16.6771L26.9241 16.9505L26.8219 17.3082L27.1789 17.2232L27.4522 17.4965L27.5548 17.1286L27.9285 17.0437L27.6563 16.7715L27.7758 16.4042L27.4021 16.4891L27.129 16.216ZM25.2285 16.6564L25.5964 16.9119L26.004 16.7081L25.9835 17.1584L26.3516 17.414L25.9443 17.6176L25.9239 18.0673L25.5356 17.822L25.1246 18.0275L25.1655 17.567L24.777 17.3217L25.1876 17.1163L25.2285 16.6564ZM34.8302 16.6565L34.8506 17.1168L35.2589 17.3209L34.8898 17.567L34.9102 18.0262L34.5018 17.822L34.1135 18.0673L34.093 17.6176L33.6843 17.4133L34.0717 17.1584L34.0307 16.7068L34.4415 16.9122L34.8302 16.6565ZM34.7697 16.7748L34.4459 16.9878L34.1067 16.8182L34.1406 17.1916L33.8155 17.4055L34.1568 17.5761L34.1739 17.9515L34.4981 17.7467L34.8397 17.9176L34.8226 17.533L35.1284 17.3291L34.7868 17.1582L34.7697 16.7748ZM25.2839 16.7748L25.2498 17.1586L24.9104 17.3283L25.2344 17.5329L25.2003 17.9162L25.5393 17.7467L25.8635 17.9515L25.8805 17.5761L26.2233 17.4048L25.9163 17.1916L25.9334 16.8168L25.591 16.988L25.2839 16.7748Z" fill="black"/>
<path d="M34.2562 25.35L34.725 26.025L35.1562 25.3875L34.8562 24.8438L34.2562 25.35ZM31.275 27.3187L31.3125 27.9938C31.3125 27.9938 31.5 27.9938 31.6687 27.9375C31.8187 27.8812 31.95 27.7688 31.95 27.7688L31.9312 27.4125L31.275 27.3187ZM28.7625 27.3187L28.725 27.975C28.725 27.975 28.5562 27.975 28.3875 27.9375C28.2375 27.9 28.1062 27.8063 28.1062 27.8063L27.9187 27.3562L28.7625 27.3187ZM25.7437 25.35L25.2562 26.025L24.7312 25.1625L25.125 24.75L25.7437 25.35Z" fill="#F0F0F0"/>
<path fill-rule="evenodd" clip-rule="evenodd" d="M25.1242 24.7034L25.787 25.3462L25.254 26.0843L24.6902 25.1581L25.1242 24.7034ZM25.126 24.7966L24.7724 25.167L25.2586 25.9657L25.7006 25.3538L25.126 24.7966ZM34.8657 24.7929L35.1947 25.3892L34.7254 26.083L34.2123 25.3442L34.8657 24.7929ZM34.3003 25.3558L34.7247 25.967L35.1179 25.3858L34.8469 24.8946L34.3003 25.3558ZM31.2401 27.2806L31.9627 27.3838L31.9837 27.7832L31.9714 27.7937L31.9501 27.7688C31.9714 27.7937 31.9714 27.7937 31.9714 27.7937L31.9713 27.7938L31.9709 27.7941L31.9696 27.7952C31.9686 27.7961 31.967 27.7974 31.9649 27.7991C31.9609 27.8024 31.9549 27.8072 31.9474 27.8131C31.9323 27.8249 31.9106 27.8411 31.8842 27.8592C31.8315 27.8951 31.7587 27.9388 31.6803 27.9682L31.6792 27.9687C31.5917 27.9978 31.5 28.0122 31.4308 28.0194C31.396 28.023 31.3667 28.0248 31.3459 28.0257C31.3355 28.0261 31.3273 28.0263 31.3216 28.0265C31.3188 28.0265 31.3165 28.0265 31.315 28.0266L31.3133 28.0266L31.3128 28.0266H31.3126C31.3126 28.0266 31.3126 28.0266 31.3126 27.9938L31.3126 28.0266L31.2815 28.0266L31.2401 27.2806ZM31.3435 27.9601C31.3632 27.9592 31.3911 27.9575 31.424 27.9541C31.4906 27.9472 31.5768 27.9335 31.6578 27.9066C31.7292 27.8797 31.7969 27.8392 31.8472 27.8049C31.8723 27.7878 31.8928 27.7724 31.907 27.7613C31.9106 27.7586 31.9137 27.7561 31.9164 27.7539L31.9 27.4412L31.31 27.3569L31.3435 27.9601ZM28.7974 27.2844L28.756 28.0078H28.7251H28.7249L28.7245 28.0078L28.7229 28.0078L28.717 28.0077C28.7119 28.0077 28.7044 28.0075 28.695 28.0072C28.6762 28.0066 28.6493 28.0054 28.6172 28.003C28.553 27.9983 28.4669 27.9888 28.3804 27.9695L28.3796 27.9694C28.3009 27.9497 28.2278 27.9155 28.175 27.8866C28.1484 27.8721 28.1266 27.8588 28.1115 27.8491C28.1039 27.8443 28.0979 27.8403 28.0938 27.8375C28.0917 27.8361 28.0902 27.835 28.089 27.8342L28.0878 27.8333L28.0873 27.833C28.0873 27.833 28.0872 27.833 28.1063 27.8063L28.0873 27.833L28.0796 27.8275L27.8705 27.3256L28.7974 27.2844ZM28.1329 27.7847C28.1364 27.7871 28.1411 27.7902 28.1468 27.7939C28.161 27.8029 28.1814 27.8154 28.2064 27.829C28.2565 27.8564 28.324 27.8877 28.3951 27.9056C28.4773 27.9238 28.5598 27.933 28.622 27.9376C28.6514 27.9398 28.6762 27.9409 28.6941 27.9415L28.7277 27.3532L27.9671 27.387L28.1329 27.7847Z" fill="black"/>
<path d="M28.0875 28.6687C28.0875 29.3062 31.95 29.3062 31.95 28.6687V27.7687C31.95 28.2375 28.0875 28.1437 28.0875 27.7687V28.6687Z" fill="#F0F0F0"/>
<path fill-rule="evenodd" clip-rule="evenodd" d="M31.8849 27.8255C31.9089 27.8043 31.9172 27.7855 31.9172 27.7687H31.9828V28.6687C31.9828 28.767 31.9085 28.8452 31.8002 28.9065C31.6904 28.9686 31.5359 29.0193 31.3535 29.0594C30.9883 29.1397 30.5029 29.1797 30.0187 29.1797C29.5346 29.1797 29.0492 29.1397 28.684 29.0594C28.5016 29.0193 28.3471 28.9686 28.2373 28.9065C28.129 28.8452 28.0547 28.767 28.0547 28.6687V27.7687H28.1203C28.1203 27.7768 28.1255 27.7907 28.1505 27.8094C28.175 27.8277 28.2129 27.8464 28.2645 27.8647C28.3671 27.9012 28.5155 27.9334 28.6959 27.9604C29.056 28.0143 29.5373 28.0465 30.0191 28.0523C30.5011 28.0582 30.9821 28.0377 31.3419 27.9867C31.5221 27.9612 31.67 27.9283 31.772 27.8882C31.8231 27.868 31.8607 27.8469 31.8849 27.8255ZM31.9172 27.884C31.8859 27.9086 31.8445 27.9302 31.796 27.9492C31.6868 27.9922 31.533 28.026 31.3511 28.0517C30.9867 28.1033 30.502 28.1238 30.0184 28.118C29.5346 28.1121 29.0502 28.0798 28.6862 28.0253C28.5044 27.9981 28.3511 27.9651 28.2425 27.9265C28.1933 27.9091 28.1516 27.8899 28.1203 27.8685V28.6687C28.1203 28.7299 28.1667 28.7911 28.2696 28.8494C28.3711 28.9068 28.5183 28.9557 28.6981 28.9953C29.0571 29.0743 29.5373 29.114 30.0187 29.114C30.5002 29.114 30.9804 29.0743 31.3394 28.9953C31.5192 28.9557 31.6664 28.9068 31.7679 28.8494C31.8708 28.7911 31.9172 28.7299 31.9172 28.6687V27.884Z" fill="black"/>
<path d="M24.6375 26.5875C24.975 28.3125 28.0875 28.35 28.0875 28.35V27.7688C28.0125 27.5438 28.1437 27.4688 28.65 27.3938C28.8562 27.375 28.7625 27.075 28.7625 27.075C28.7625 27.075 27.4125 27.3187 26.4562 26.9437C25.1625 26.4187 24.975 25.4062 24.975 25.4062C24.975 25.4062 24.8812 26.1938 24.6375 26.5875ZM35.3812 26.5875C35.0625 28.3125 31.95 28.35 31.95 28.35V27.7688C32.0062 27.5438 31.875 27.4688 31.3687 27.3938C31.1625 27.375 31.275 27.075 31.275 27.075C31.275 27.075 32.625 27.3187 33.5812 26.9437C34.8562 26.4187 35.0062 25.4062 35.0062 25.4062C35.0062 25.4062 35.1375 26.1938 35.3812 26.5875Z" fill="#F0F0F0"/>
<path fill-rule="evenodd" clip-rule="evenodd" d="M25.258 25.9601C25.4632 26.2738 25.8284 26.6535 26.4685 26.9133C26.9404 27.0983 27.5115 27.1312 27.967 27.1172C28.1944 27.1102 28.392 27.0915 28.5328 27.0746C28.6031 27.0662 28.6592 27.0582 28.6977 27.0523C28.7169 27.0494 28.7318 27.0469 28.7417 27.0453C28.7443 27.0448 28.7466 27.0444 28.7486 27.0441C28.7503 27.0438 28.7518 27.0436 28.753 27.0433L28.7558 27.0429L28.7565 27.0427L28.7567 27.0427L28.7625 27.075C28.7939 27.0652 28.7939 27.0652 28.7939 27.0652L28.794 27.0656L28.7942 27.0664L28.7951 27.0693C28.7958 27.0717 28.7968 27.0752 28.7979 27.0796C28.8002 27.0884 28.8032 27.1009 28.8062 27.1158C28.812 27.1456 28.8177 27.1863 28.8164 27.2283C28.8152 27.2699 28.807 27.3161 28.7821 27.354C28.7562 27.3935 28.7144 27.4206 28.654 27.4263C28.5282 27.445 28.4267 27.4635 28.3462 27.4841C28.2651 27.5049 28.2076 27.5273 28.1687 27.5525C28.1306 27.5772 28.1117 27.6036 28.1045 27.6335C28.0969 27.6647 28.1008 27.7047 28.1187 27.7584L28.1204 27.7634V28.3832L28.0872 28.3828L28.0876 28.35C28.0872 28.3828 28.0872 28.3828 28.0872 28.3828L28.087 28.3828L28.0865 28.3828L28.0848 28.3828L28.0779 28.3826C28.0719 28.3825 28.0631 28.3823 28.0515 28.3819C28.0284 28.3812 27.9946 28.38 27.9515 28.3778C27.8652 28.3734 27.7418 28.3651 27.5926 28.3498C27.2944 28.3192 26.8929 28.2604 26.4804 28.1473C25.6592 27.922 24.7781 27.4768 24.6053 26.5938L24.6375 26.5875L24.6096 26.5702C24.7284 26.3784 24.8118 26.0879 24.8657 25.8422C24.8924 25.7199 24.9117 25.6098 24.9242 25.5303C24.9304 25.4906 24.935 25.4585 24.938 25.4364C24.9395 25.4254 24.9407 25.4168 24.9414 25.411L24.9422 25.4045L24.9424 25.4029L24.9425 25.4024L25.0072 25.4003C25.0073 25.4002 25.0073 25.4002 25.0073 25.4002L25.0074 25.4007L25.0078 25.4026C25.0081 25.4043 25.0087 25.407 25.0095 25.4106C25.0111 25.4177 25.0136 25.4284 25.0173 25.4423C25.0248 25.4701 25.0368 25.5108 25.0554 25.5614C25.0924 25.6625 25.1552 25.8032 25.258 25.9601ZM24.9857 25.5614C24.973 25.6397 24.9546 25.7428 24.9298 25.8562C24.8768 26.0982 24.7936 26.3919 24.6722 26.5936C24.8428 27.4275 25.6824 27.8603 26.4978 28.084C26.9057 28.1958 27.3034 28.2542 27.5993 28.2845C27.7472 28.2997 27.8695 28.3079 27.9548 28.3122C27.9975 28.3144 28.0308 28.3157 28.0535 28.3163C28.0539 28.3164 28.0543 28.3164 28.0547 28.3164V27.774C28.0364 27.7171 28.0293 27.6651 28.0407 27.618C28.0528 27.5682 28.0843 27.529 28.133 27.4975C28.1807 27.4665 28.2463 27.442 28.3299 27.4205C28.4139 27.399 28.5183 27.3801 28.6452 27.3613L28.6462 27.3611L28.6471 27.3611C28.6893 27.3572 28.7128 27.3399 28.7272 27.318C28.7427 27.2944 28.7498 27.2621 28.7508 27.2263C28.7519 27.191 28.7471 27.1555 28.7418 27.1285C28.7406 27.1226 28.7395 27.1172 28.7384 27.1123C28.7298 27.1137 28.7196 27.1153 28.7076 27.1172C28.6685 27.1231 28.6117 27.1312 28.5406 27.1398C28.3983 27.1569 28.1987 27.1757 27.969 27.1828C27.5105 27.1969 26.9286 27.1642 26.4443 26.9743L26.444 26.9741C25.7903 26.7089 25.415 26.3199 25.2031 25.9961C25.0972 25.8343 25.0323 25.6891 24.9938 25.5839C24.9909 25.5762 24.9882 25.5687 24.9857 25.5614ZM28.7625 27.075L28.7939 27.0652L28.7852 27.0375L28.7567 27.0427L28.7625 27.075ZM34.974 25.4014L35.0387 25.4008L35.0388 25.4014L35.039 25.403L35.0402 25.4096C35.0412 25.4153 35.0427 25.4239 35.0447 25.435C35.0487 25.4571 35.0548 25.4892 35.0628 25.529C35.0788 25.6085 35.1027 25.7187 35.1342 25.841C35.1974 26.0868 35.2901 26.3779 35.4092 26.5702L35.3813 26.5875L35.4136 26.5935C35.2504 27.4767 34.3737 27.922 33.5548 28.1472C33.1436 28.2604 32.7426 28.3192 32.4447 28.3498C32.2957 28.3651 32.1723 28.3734 32.0861 28.3778C32.043 28.38 32.0092 28.3812 31.9861 28.3819C31.9745 28.3823 31.9657 28.3825 31.9597 28.3826L31.9528 28.3828L31.9511 28.3828L31.9506 28.3828L31.9505 28.3828C31.9505 28.3828 31.9504 28.3828 31.95 28.35L31.9505 28.3828L31.9172 28.3832V27.7647L31.9182 27.7608C31.9316 27.7074 31.9326 27.6672 31.9228 27.6355C31.9133 27.6047 31.8924 27.5777 31.8528 27.5527C31.8126 27.5273 31.7543 27.5049 31.673 27.4841C31.5922 27.4635 31.4906 27.445 31.3649 27.4263C31.3044 27.4206 31.2632 27.3933 31.239 27.3529C31.2159 27.3144 31.2105 27.2678 31.2118 27.2263C31.2131 27.1843 31.2213 27.1437 31.2289 27.114C31.2328 27.099 31.2366 27.0866 31.2394 27.0778C31.2408 27.0734 31.242 27.0699 31.2429 27.0675L31.2439 27.0646L31.2442 27.0638L31.2443 27.0636L31.2443 27.0635C31.2443 27.0635 31.2443 27.0635 31.2751 27.075L31.2809 27.0427L31.2811 27.0427L31.2818 27.0429L31.2846 27.0433C31.2871 27.0438 31.2909 27.0444 31.2959 27.0453C31.3058 27.0469 31.3207 27.0494 31.3399 27.0523C31.3784 27.0582 31.4345 27.0662 31.5048 27.0746C31.6456 27.0915 31.8432 27.1102 32.0706 27.1172C32.526 27.1312 33.0972 27.0983 33.5691 26.9133C34.1994 26.6537 34.5505 26.2742 34.744 25.9609C34.8409 25.804 34.8985 25.6634 34.9318 25.5624C34.9484 25.5119 34.959 25.4712 34.9654 25.4434C34.9686 25.4295 34.9707 25.4188 34.9721 25.4117C34.9727 25.4081 34.9732 25.4055 34.9735 25.4038L34.9738 25.4019L34.9738 25.4015C34.9738 25.4015 34.9738 25.4014 34.974 25.4014ZM35.0019 25.5587C34.9994 25.5665 34.9968 25.5746 34.9941 25.5829C34.9594 25.6881 34.8998 25.8335 34.7998 25.9954C34.5997 26.3194 34.2382 26.7087 33.5938 26.9741L33.5933 26.9743C33.109 27.1642 32.5271 27.1969 32.0686 27.1828C31.8389 27.1757 31.6393 27.1569 31.497 27.1398C31.4259 27.1312 31.3691 27.1231 31.33 27.1172C31.3172 27.1152 31.3064 27.1135 31.2975 27.1121C31.2959 27.1175 31.2942 27.1236 31.2925 27.1303C31.2855 27.1575 31.2785 27.193 31.2774 27.2283C31.2763 27.2642 31.2815 27.2962 31.2953 27.3191C31.3078 27.3401 31.3296 27.3572 31.3718 27.3611L31.3727 27.3611L31.3736 27.3613C31.5006 27.3801 31.605 27.399 31.6892 27.4205C31.7732 27.442 31.8391 27.4664 31.8879 27.4972C31.9374 27.5285 31.9704 27.5671 31.9855 27.6161C32 27.6629 31.9968 27.7152 31.9829 27.7727V28.3164C31.9833 28.3164 31.9837 28.3164 31.9841 28.3163C32.0067 28.3157 32.0401 28.3144 32.0827 28.3122C32.168 28.3079 32.2902 28.2997 32.438 28.2845C32.7336 28.2542 33.1308 28.1958 33.5374 28.084C34.3506 27.8603 35.1853 27.4275 35.3467 26.5938C35.2253 26.3926 35.1328 26.0994 35.0706 25.8574C35.041 25.7421 35.018 25.6375 35.0019 25.5587ZM31.2751 27.075L31.2809 27.0427L31.2539 27.0378L31.2443 27.0635L31.2751 27.075Z" fill="black"/>
<path d="M24.8813 25.9312C24.0188 25.4625 24.6938 24.975 24.7688 23.5875C24.9 24.4312 25.8563 24.7875 25.7438 25.3312C25.35 25.35 25.1625 24.75 24.975 25.4062L24.8813 25.9312ZM35.1375 25.9312C36 25.4437 35.2875 24.975 35.2125 23.5875C35.0813 24.4312 34.1438 24.7875 34.2563 25.3312C34.6313 25.35 34.8188 24.75 35.0063 25.4062L35.1375 25.9125V25.9312Z" fill="#F0F0F0"/>
<path fill-rule="evenodd" clip-rule="evenodd" d="M24.736 23.5857L24.8012 23.5825C24.8651 23.9932 25.1297 24.2864 25.3718 24.5497C25.3753 24.5535 25.3788 24.5573 25.3823 24.561C25.4985 24.6874 25.6096 24.8082 25.6853 24.9308C25.7637 25.0581 25.8063 25.1909 25.7759 25.3379L25.7707 25.3628L25.7453 25.364C25.6381 25.3691 25.5461 25.3319 25.4676 25.2871C25.4284 25.2647 25.3919 25.24 25.3585 25.2174L25.3582 25.2171C25.3245 25.1943 25.2944 25.1739 25.2662 25.1585C25.2379 25.1429 25.2141 25.1338 25.1935 25.1317C25.1741 25.1297 25.1564 25.1336 25.1381 25.1469C25.1188 25.1609 25.0975 25.1864 25.0749 25.2304C25.0526 25.2739 25.03 25.3336 25.007 25.4137L24.9136 25.937L24.8813 25.9313L24.8656 25.9601C24.6467 25.8411 24.52 25.7181 24.4591 25.5753C24.3983 25.4328 24.4057 25.2765 24.4413 25.0975C24.4623 24.9917 24.4931 24.8774 24.5271 24.7513C24.6091 24.4472 24.7096 24.0743 24.736 23.5857ZM24.8571 25.8801L24.943 25.3988L24.9435 25.3972C24.9672 25.3141 24.9913 25.2495 25.0165 25.2004C25.0416 25.1515 25.0688 25.1161 25.0996 25.0938C25.1314 25.0707 25.1654 25.0629 25.2002 25.0664C25.2336 25.0699 25.2664 25.0837 25.2978 25.1009C25.3287 25.1179 25.3609 25.1397 25.3934 25.1617L25.3953 25.163C25.429 25.1858 25.4635 25.2091 25.5002 25.2301C25.5662 25.2679 25.6371 25.2966 25.7161 25.2987C25.7325 25.1837 25.6976 25.0759 25.6294 24.9653C25.5571 24.8481 25.4498 24.7313 25.3315 24.6027C25.3288 24.5999 25.3262 24.597 25.3235 24.5941C25.1224 24.3754 24.8943 24.1251 24.7855 23.796C24.7454 24.194 24.6591 24.5142 24.5886 24.7761C24.5553 24.8998 24.5255 25.0105 24.5056 25.1103C24.4709 25.2852 24.4665 25.4255 24.5194 25.5495C24.5688 25.6653 24.6703 25.7723 24.8571 25.8801ZM34.6186 24.5499C34.856 24.2866 35.1162 23.9934 35.1801 23.5825L35.2453 23.5857C35.2724 24.087 35.3825 24.4646 35.4719 24.7708C35.5056 24.8863 35.5364 24.9916 35.5586 25.0896C35.5988 25.2673 35.6112 25.423 35.5541 25.5666C35.4969 25.7106 35.3725 25.8361 35.1537 25.9598L35.1047 25.9875V25.9167L34.9747 25.4153C34.9747 25.4151 34.9746 25.415 34.9746 25.4149C34.9515 25.3342 34.9288 25.2741 34.9064 25.2304C34.8838 25.1863 34.8625 25.1608 34.8434 25.1468C34.8252 25.1336 34.8078 25.1297 34.7888 25.1317C34.7686 25.1338 34.7453 25.1428 34.7176 25.1583C34.69 25.1738 34.6606 25.1942 34.6277 25.2171L34.6262 25.2181C34.5942 25.2404 34.5593 25.2648 34.522 25.2868C34.4462 25.3317 34.3576 25.3692 34.2546 25.364L34.2293 25.3628L34.2241 25.3379C34.1938 25.1911 34.235 25.0584 34.3116 24.9311C34.3858 24.808 34.4952 24.6867 34.6097 24.5598L34.6186 24.5499ZM35.1626 25.8786C35.3482 25.7671 35.447 25.6584 35.4931 25.5424C35.5427 25.4176 35.534 25.2781 35.4946 25.1041C35.4735 25.0112 35.4437 24.9091 35.4107 24.7959C35.3335 24.5314 35.2386 24.2062 35.196 23.7961C35.0885 24.125 34.8646 24.3751 34.6673 24.5939L34.661 24.6009C34.5444 24.7301 34.4387 24.8474 34.3679 24.965C34.3013 25.0755 34.2674 25.1834 34.2839 25.2987C34.358 25.2963 34.4251 25.2679 34.4886 25.2304C34.5237 25.2095 34.557 25.1864 34.5895 25.1637L34.5902 25.1633C34.6224 25.1408 34.6546 25.1184 34.6855 25.1011C34.7164 25.0838 34.7488 25.0699 34.782 25.0664C34.8166 25.0628 34.8504 25.0707 34.882 25.0938C34.9127 25.1162 34.9397 25.1516 34.9648 25.2004C34.9899 25.2495 35.014 25.3141 35.0378 25.3972L35.038 25.398L35.1626 25.8786Z" fill="black"/>
<path d="M25.4063 26.5687L25.5 26.6438L25.2938 26.8688C25.2 26.9625 25.1906 27.0187 25.2469 27.075C25.3125 27.1406 25.3688 27.1125 25.4344 27.0375L25.6688 26.7937L25.7438 26.8688L25.5188 27.1312C25.3969 27.2719 25.2844 27.2438 25.1813 27.15C25.1063 27.075 25.05 26.9625 25.1813 26.8219L25.4063 26.5687ZM25.7813 26.8875L25.875 26.9437L25.8563 27.3938L26.0625 27.075L26.1563 27.1312L25.8563 27.6188L25.7438 27.5625L25.7625 27.1125L25.5563 27.4313L25.4625 27.375L25.7813 26.8875ZM25.95 27.675L26.2125 27.15L26.3063 27.2063L26.0625 27.7125L25.95 27.675ZM26.3625 27.225L26.1563 27.7688L26.3625 27.8438C26.55 27.9094 26.6438 27.825 26.7 27.6656C26.7656 27.4969 26.7375 27.3844 26.55 27.3L26.3625 27.225ZM26.4375 27.3562C26.625 27.4219 26.6438 27.4969 26.5875 27.6375C26.5313 27.7594 26.4938 27.8063 26.3063 27.7125L26.4375 27.3562ZM26.9813 27.4313L26.6438 27.9375L26.775 27.975L26.85 27.8438L27.075 27.9L27.0938 28.0312L27.225 28.05L27.0938 27.45L26.9813 27.4313ZM27.0188 27.5625L27.0563 27.7875L26.9063 27.7688L27.0188 27.5625ZM27.3 27.4781L27.2813 28.0594H27.4969C27.7031 28.0687 27.7594 27.9656 27.7688 27.7781C27.7688 27.6094 27.7031 27.4969 27.4969 27.4969L27.3 27.4781ZM27.4125 27.5719C27.6188 27.5813 27.6469 27.6469 27.6469 27.7875C27.6375 27.9281 27.6094 27.9844 27.4031 27.9563V27.5813L27.4125 27.5719ZM29.2688 28.2937V28.8938H29.4V28.6687C29.4 28.6687 29.5125 28.6688 29.6063 28.65C29.6719 28.6313 29.7281 28.5844 29.7281 28.4625C29.7281 28.35 29.6625 28.2937 29.55 28.2937H29.2688ZM29.4 28.3875H29.5313C29.6344 28.3875 29.625 28.5563 29.5313 28.5563H29.4V28.3875ZM29.9438 28.2937L29.7 28.8938H29.8313L29.8875 28.7438H30.1313L30.1875 28.8938H30.3188L30.075 28.2937H29.9438ZM30 28.425L30.0938 28.65H29.925L30 28.425ZM30.3188 28.7812L30.6375 28.3875H30.3563V28.2937H30.8063V28.3875L30.4688 28.7812H30.8063V28.8938H30.3188V28.7812ZM32.2125 27.6188L32.325 27.6L32.3813 27.9375C32.4 28.0594 32.3438 28.1344 32.2594 28.1719C32.1656 28.2094 32.0344 28.1719 32.025 28.0125L32.1188 27.9938C32.1375 28.0875 32.175 28.0969 32.2125 28.0875C32.2594 28.0688 32.2781 28.0125 32.2688 27.9563L32.2125 27.6188ZM32.4 27.5813L32.5031 27.5625L32.5594 27.8438C32.5781 27.9656 32.6156 28.0125 32.7 28.0031C32.7938 27.9844 32.8031 27.9281 32.7844 27.8156L32.7188 27.525L32.8313 27.5062L32.9063 27.8156C32.9438 28.0031 32.85 28.0688 32.7188 28.0969C32.6156 28.1156 32.4938 28.0969 32.4563 27.9094L32.4 27.5813ZM32.9813 27.8438L33.075 27.8063C33.1219 27.8906 33.1875 27.8813 33.2438 27.8625C33.3188 27.825 33.3375 27.7594 33.2906 27.7312C33.2344 27.7031 33.1031 27.75 33.0375 27.7312C32.9531 27.6937 32.9156 27.6375 32.925 27.5719C32.925 27.4781 33 27.4406 33.0844 27.4125C33.1781 27.3844 33.2719 27.3937 33.3375 27.5062L33.225 27.5437C33.1875 27.4781 33.1313 27.4875 33.0938 27.5062C33.0563 27.525 33 27.5531 33.0375 27.6C33.0563 27.6469 33.1969 27.6188 33.2719 27.6188C33.3469 27.6188 33.4031 27.675 33.4125 27.7406C33.4313 27.8437 33.3938 27.9 33.2719 27.9469C33.1313 28.0031 33 27.9469 32.9813 27.8438ZM33.4875 27.375L33.3375 27.45L33.3 27.3562L33.7125 27.1875L33.75 27.2625L33.6 27.3375L33.7688 27.75L33.675 27.8063L33.4875 27.375ZM33.7313 27.1687L33.825 27.1125L34.0875 27.6L33.9938 27.6562L33.7313 27.1687ZM34.3688 27.2063L34.4813 27.1687C34.4957 27.2042 34.5009 27.2428 34.4963 27.2808C34.4917 27.3189 34.4774 27.3551 34.4549 27.3861C34.4324 27.4171 34.4023 27.4418 34.3675 27.4579C34.3328 27.474 34.2945 27.481 34.2563 27.4781C33.975 27.4781 33.9375 27.1594 33.9844 27.0563C34.0594 26.8781 34.2656 26.8875 34.3594 26.9812L34.2656 27.0563C34.2094 26.9813 34.0781 27.0281 34.0781 27.0938C34.0657 27.1485 34.0718 27.2059 34.0956 27.2569C34.1194 27.3078 34.1594 27.3493 34.2094 27.375C34.3031 27.4125 34.4344 27.3 34.3688 27.2063ZM34.3125 26.8125L34.4063 26.7375L34.7438 27.1875L34.65 27.2625L34.3125 26.8125ZM34.6688 26.5312L34.575 26.6062L34.7813 27.1687L34.875 27.075L34.8188 26.9625L34.9875 26.8125L35.1 26.8688L35.1938 26.7937L34.6688 26.5312ZM34.7063 26.6625L34.8938 26.7562L34.7813 26.8688L34.7063 26.6625Z" fill="black"/>
</g>
<defs>
<clipPath id="clip0_264_18322">
<rect width="60" height="45" fill="white"/>
</clipPath>
</defs>
</svg>
