<svg width="60" height="45" viewBox="0 0 60 45" fill="none" xmlns="http://www.w3.org/2000/svg">
<g clip-path="url(#clip0_264_23588)">
<path d="M0 0H60V45H0V0Z" fill="#3E5EB9"/>
<path d="M0 8.4375H60V36.5625H0V8.4375Z" fill="#FFD900"/>
<path d="M0 11.25H60V33.75H0V11.25Z" fill="#B10C0C"/>
<path d="M51.4012 17.3587L48.6675 18.3262L51.39 19.2825L54.1237 18.3262L51.4012 17.3587Z" fill="#F0F0F0"/>
<path fill-rule="evenodd" clip-rule="evenodd" d="M51.4013 17.2991L54.2929 18.3267L51.39 19.3421L48.4984 18.3265L51.4013 17.2991ZM48.8367 18.3261L51.3901 19.2229L53.9546 18.3258L51.4012 17.4184L48.8367 18.3261Z" fill="black"/>
<path d="M49.59 18H10.1138C9.92116 18 9.76501 18.1435 9.76501 18.3206C9.76501 18.4977 9.92116 18.6412 10.1138 18.6412H49.59C49.7826 18.6412 49.9388 18.4977 49.9388 18.3206C49.9388 18.1435 49.7826 18 49.59 18Z" fill="#FFD900"/>
<path fill-rule="evenodd" clip-rule="evenodd" d="M10.1137 18.0563C9.94765 18.0563 9.82124 18.179 9.82124 18.3206C9.82124 18.4623 9.94765 18.585 10.1137 18.585H49.59C49.7561 18.585 49.8825 18.4623 49.8825 18.3206C49.8825 18.179 49.7561 18.0563 49.59 18.0563H10.1137ZM9.70874 18.3206C9.70874 18.1081 9.89461 17.9438 10.1137 17.9438H49.59C49.8091 17.9438 49.995 18.1081 49.995 18.3206C49.995 18.5331 49.8091 18.6975 49.59 18.6975H10.1137C9.89461 18.6975 9.70874 18.5331 9.70874 18.3206Z" fill="black"/>
<path d="M48.9825 18.6412C49.0663 18.6386 49.1461 18.6049 49.2064 18.5467C49.2667 18.4885 49.3032 18.4099 49.3087 18.3262C49.3059 18.2406 49.2707 18.1593 49.2101 18.0987C49.1495 18.0381 49.0681 18.0028 48.9825 18M48.6675 18.6412C48.7493 18.636 48.8264 18.6011 48.8843 18.5431C48.9423 18.4851 48.9772 18.4081 48.9825 18.3262C48.9799 18.2425 48.9462 18.1626 48.888 18.1023C48.8297 18.042 48.7511 18.0055 48.6675 18M48.3412 18.6412C48.425 18.6386 48.5049 18.6049 48.5652 18.5467C48.6255 18.4885 48.6619 18.4099 48.6675 18.3262C48.6647 18.2406 48.6294 18.1593 48.5688 18.0987C48.5082 18.0381 48.4269 18.0028 48.3412 18" fill="#FFD900"/>
<path fill-rule="evenodd" clip-rule="evenodd" d="M48.3431 17.9438C48.443 17.9471 48.5379 17.9882 48.6086 18.0589C48.6793 18.1296 48.7205 18.2245 48.7237 18.3244L48.7238 18.3272L48.7236 18.33C48.7172 18.4276 48.6746 18.5193 48.6042 18.5872C48.5339 18.6551 48.4408 18.6944 48.343 18.6975L48.3395 18.585C48.4093 18.5829 48.4758 18.5548 48.5261 18.5063C48.5757 18.4584 48.6059 18.394 48.6112 18.3253C48.6082 18.255 48.5789 18.1883 48.5291 18.1385C48.4786 18.088 48.4108 18.0586 48.3394 18.0562L48.3431 17.9438ZM48.9844 17.9438C49.0843 17.9471 49.1792 17.9882 49.2499 18.0589C49.3205 18.1296 49.3617 18.2245 49.365 18.3244L49.3651 18.3272L49.3649 18.33C49.3584 18.4276 49.3159 18.5193 49.2455 18.5872C49.1751 18.6551 49.082 18.6944 48.9843 18.6975L48.9808 18.585C49.0506 18.5829 49.1171 18.5548 49.1674 18.5063C49.2169 18.4584 49.2472 18.394 49.2524 18.3253C49.2494 18.255 49.2201 18.1883 49.1703 18.1385C49.1198 18.088 49.052 18.0586 48.9807 18.0562L48.9844 17.9438ZM48.6712 17.9439C48.7688 17.9504 48.8605 17.9929 48.9284 18.0633C48.9964 18.1336 49.0357 18.2268 49.0387 18.3245L49.0388 18.3272L49.0386 18.3299C49.0325 18.4253 48.9918 18.5153 48.9241 18.5829C48.8565 18.6505 48.7666 18.6912 48.6711 18.6974L48.6639 18.5851C48.732 18.5807 48.7963 18.5516 48.8446 18.5033C48.8923 18.4557 48.9212 18.3925 48.9262 18.3253C48.9234 18.2565 48.8954 18.191 48.8475 18.1414C48.799 18.0912 48.7335 18.0608 48.6638 18.0561L48.6712 17.9439Z" fill="black"/>
<path d="M56.8463 22.0163H3.15002C2.88907 22.0163 2.67752 22.2328 2.67752 22.5C2.67752 22.7672 2.88907 22.9838 3.15002 22.9838H56.8463C57.1072 22.9838 57.3188 22.7672 57.3188 22.5C57.3188 22.2328 57.1072 22.0163 56.8463 22.0163Z" fill="#FFD900"/>
<path fill-rule="evenodd" clip-rule="evenodd" d="M3.15001 22.0781C2.92459 22.0781 2.73938 22.2656 2.73938 22.5C2.73938 22.7344 2.92459 22.9219 3.15001 22.9219H56.8463C57.0717 22.9219 57.2569 22.7344 57.2569 22.5C57.2569 22.2656 57.0717 22.0781 56.8463 22.0781H3.15001ZM2.61563 22.5C2.61563 22.2 2.85351 21.9544 3.15001 21.9544H56.8463C57.1428 21.9544 57.3806 22.2 57.3806 22.5C57.3806 22.8 57.1428 23.0456 56.8463 23.0456H3.15001C2.85351 23.0456 2.61563 22.8 2.61563 22.5Z" fill="black"/>
<path d="M45.7687 22.5C42.5531 25.7156 38.2687 32.1469 29.7 32.1469C22.2 32.1469 16.8469 25.7156 13.6312 22.5C16.8375 19.2844 22.2 12.8531 29.7 12.8531C38.2687 12.8531 42.5531 19.2844 45.7687 22.5Z" fill="#F0F0F0"/>
<path fill-rule="evenodd" clip-rule="evenodd" d="M13.7107 22.4999C14.0359 22.8261 14.3824 23.1839 14.7503 23.5638C16.1988 25.0597 17.9781 26.8972 20.0927 28.4843C22.7652 30.4901 25.9668 32.0906 29.7 32.0906C36.914 32.0906 41.0767 27.5197 44.14 24.1559C44.6879 23.5543 45.2006 22.9913 45.6893 22.5C45.2006 22.0087 44.6879 21.4457 44.14 20.8441C41.0767 17.4803 36.914 12.9094 29.7 12.9094C25.9668 12.9094 22.7628 14.5099 20.0892 16.5157C17.9626 18.1111 16.1756 19.9595 14.7253 21.4597C14.3665 21.8308 14.0283 22.1806 13.7107 22.4999ZM45.7687 22.5L45.8085 22.4602C45.3128 21.9645 44.7907 21.3909 44.2305 20.7754C41.1689 17.4117 36.9685 12.7969 29.7 12.7969C25.9332 12.7969 22.7059 14.412 20.0217 16.4257C17.8871 18.0271 16.092 19.884 14.6414 21.3845C14.2686 21.7701 13.9186 22.1321 13.5914 22.4603L13.5518 22.5001L13.5915 22.5398C13.9262 22.8745 14.2845 23.2445 14.6663 23.6389C16.1152 25.1352 17.9026 26.9812 20.0252 28.5743C22.7082 30.588 25.9332 32.2031 29.7 32.2031C36.9685 32.2031 41.1689 27.5883 44.2305 24.2246C44.7907 23.6091 45.3128 23.0355 45.8085 22.5398L45.7687 22.5Z" fill="black"/>
<path d="M28.575 16.2187C29.4375 17.175 28.7156 17.5594 29.625 17.625C30.5812 17.6906 30.0375 18.6375 30.8437 18.675C31.4062 18.6937 30.7875 20.9437 31.3218 21.675C31.875 22.4531 32.3344 21.9094 32.3531 22.4625C32.3531 23.0437 30.8531 22.9781 30.825 24.7594C30.7781 25.7812 29.55 25.8469 29.4937 26.5031C29.4187 27.1219 31.9125 27.4687 31.875 28.0219C31.8468 28.5844 29.1844 28.4906 29.0625 29.1187C29.0062 29.6812 32.7187 30.15 33.0187 31.7906C32.4562 31.9781 30.8906 32.1375 29.7 32.1469C22.2 32.1469 16.8469 25.7156 13.6312 22.4906C16.8469 19.2844 22.2 12.8531 29.7 12.8531C29.7 12.8531 27.4781 14.8875 28.575 16.2094V16.2187Z" fill="black"/>
<path d="M20.025 21.645V19.0688V21.645ZM21.5775 19.0688V21.645V19.0688ZM23.13 19.0688V21.645V19.0688Z" fill="black"/>
<path fill-rule="evenodd" clip-rule="evenodd" d="M20.4132 19.0688V21.645H19.6369V19.0688H20.4132ZM21.1894 21.645V19.0688H21.9657V21.645H21.1894ZM22.7419 21.645V19.0688H23.5182V21.645H22.7419Z" fill="#F0F0F0"/>
<path d="M53.475 22.125C52.9875 22.9594 53.85 21.8437 55.95 23.25C56.1635 23.4264 56.3385 23.6447 56.4643 23.8914C56.5901 24.1381 56.6639 24.408 56.6812 24.6844C56.5875 24.6187 56.5031 24.4687 56.4 24.3844C56.25 24.5344 56.55 25.2281 56.5875 25.5562C56.2594 25.3687 56.2875 25.2937 56.1844 25.0687C56.2031 25.3312 56.1187 26.0812 56.2594 26.3812C55.9969 26.3062 56.0156 26.1 55.8844 26.0531C55.9781 26.3812 55.8 26.7281 55.8469 27.1031C55.6969 26.9531 55.5281 26.8312 55.4625 26.775C55.4437 26.9625 55.1719 27.4125 55.1625 27.5812C55.1135 27.5498 55.0716 27.5086 55.0394 27.4602C55.0071 27.4118 54.9852 27.3573 54.975 27.3C54.6775 27.6547 54.4255 28.0452 54.225 28.4625C53.7844 28.0875 52.6688 27.15 52.5188 26.6437C52.3875 26.925 52.2 27.0187 51.8438 27.225C51.6938 26.4375 51.1406 25.5562 51.4312 24.8719C51.2343 24.9936 51.0434 25.1251 50.8594 25.2656C51.0271 24.5749 51.3509 23.9317 51.8059 23.3857C52.261 22.8396 52.8352 22.4051 53.4844 22.1156L53.475 22.125Z" fill="#333333"/>
<path fill-rule="evenodd" clip-rule="evenodd" d="M53.3661 22.2224C52.7797 22.5074 52.26 22.9139 51.8419 23.4157C51.4198 23.9222 51.1118 24.5131 50.9381 25.1481C51.09 25.0366 51.2463 24.9311 51.4066 24.832L51.532 24.7545L51.4744 24.8902C51.336 25.216 51.3968 25.5932 51.5172 25.9964C51.5595 26.1382 51.6086 26.2812 51.658 26.4253C51.6786 26.4855 51.6993 26.5459 51.7196 26.6064C51.7808 26.789 51.838 26.9722 51.8767 27.1518C51.8791 27.1504 51.8815 27.1491 51.8839 27.1477C52.2008 26.9649 52.36 26.8731 52.4763 26.6239L52.5286 26.5119L52.5637 26.6304C52.5985 26.7478 52.6914 26.8954 52.8232 27.0594C52.9541 27.2223 53.12 27.3972 53.2957 27.5688C53.6237 27.8892 53.9835 28.1956 54.2093 28.3876C54.4071 27.9873 54.6521 27.6121 54.9391 27.2699L55.0036 27.193L55.0212 27.2918C55.0302 27.3427 55.0497 27.3912 55.0784 27.4342C55.0936 27.4571 55.1113 27.4782 55.1311 27.4971C55.1403 27.4644 55.1529 27.4292 55.1671 27.3933C55.1947 27.3231 55.2307 27.244 55.2663 27.1657L55.2667 27.1649C55.3024 27.0864 55.3378 27.0087 55.3655 26.939C55.3937 26.8681 55.4119 26.8101 55.4159 26.7703L55.4248 26.6809L55.493 26.7394C55.509 26.7531 55.5329 26.772 55.5622 26.7952C55.6231 26.8434 55.7072 26.9099 55.7921 26.9867C55.7903 26.8508 55.8108 26.7196 55.8303 26.5958C55.8325 26.5816 55.8347 26.5674 55.8369 26.5534C55.8639 26.3781 55.883 26.219 55.8393 26.066L55.8143 25.9783L55.9001 26.009C55.9446 26.0248 55.9748 26.054 55.9986 26.0851C56.0129 26.1037 56.0273 26.1266 56.041 26.1483C56.0481 26.1597 56.0551 26.1708 56.0617 26.1806C56.0897 26.2227 56.1235 26.2648 56.1802 26.2979C56.1634 26.2354 56.152 26.1651 56.1444 26.0914C56.1319 25.9723 56.1287 25.8403 56.1293 25.7107C56.1298 25.6048 56.1328 25.4996 56.1356 25.4038C56.1362 25.3824 56.1368 25.3615 56.1374 25.3411C56.1405 25.2286 56.1421 25.1349 56.1376 25.0721L56.227 25.0492C56.2468 25.0924 56.2621 25.1307 56.2754 25.1641C56.2798 25.1752 56.284 25.1857 56.2881 25.1958C56.3048 25.2366 56.3198 25.2694 56.3406 25.3006C56.3733 25.3496 56.423 25.3986 56.5245 25.4636C56.5123 25.405 56.4954 25.3389 56.4761 25.2682C56.464 25.224 56.4509 25.1779 56.4376 25.131C56.4173 25.0593 56.3965 24.9859 56.3781 24.9154C56.3475 24.7984 56.322 24.6841 56.314 24.5885C56.31 24.5407 56.3102 24.4956 56.3173 24.4561C56.3243 24.4168 56.3389 24.3792 56.3669 24.3512L56.3969 24.3212L56.4297 24.3481C56.4831 24.3918 56.531 24.4509 56.5741 24.5039C56.5762 24.5066 56.5784 24.5092 56.5805 24.5118C56.5951 24.5298 56.6091 24.5469 56.6227 24.5628C56.5941 24.3364 56.5264 24.1165 56.4226 23.9127C56.3 23.6724 56.1297 23.4597 55.922 23.2876C54.8815 22.5914 54.1508 22.5211 53.7421 22.5199C53.6906 22.5198 53.644 22.5207 53.6021 22.5217C53.5964 22.5219 53.5908 22.522 53.5853 22.5221C53.5503 22.523 53.5183 22.5238 53.4901 22.5237C53.4577 22.5237 53.4282 22.5226 53.403 22.5188C53.3786 22.5151 53.3528 22.5081 53.3322 22.4922C53.3089 22.4743 53.2972 22.4492 53.2956 22.4208C53.2942 22.3951 53.3009 22.3674 53.3112 22.3392C53.3229 22.3072 53.3413 22.2686 53.3661 22.2224ZM53.5124 22.1539L53.5175 22.1488L53.4653 22.0728C52.8095 22.3652 52.2296 22.8041 51.7699 23.3557C51.3103 23.9072 50.9832 24.5568 50.8138 25.2546L50.7826 25.3833L50.8878 25.3029C51.0353 25.1903 51.1872 25.0836 51.3431 24.983C51.2533 25.3083 51.3207 25.6658 51.4274 26.0232C51.4703 26.1669 51.5203 26.3128 51.5699 26.4576C51.5904 26.5174 51.6109 26.577 51.6307 26.6362C51.699 26.8399 51.7608 27.0402 51.7977 27.2338L51.8101 27.2987L51.8672 27.2656C51.8914 27.2516 51.9149 27.2381 51.9376 27.225C52.2102 27.0681 52.3859 26.967 52.5121 26.7565C52.564 26.8681 52.6481 26.9912 52.7501 27.1181C52.8844 27.2851 53.0531 27.463 53.2301 27.6359C53.5639 27.9619 53.9299 28.2731 54.1551 28.4646C54.1688 28.4762 54.182 28.4875 54.1946 28.4982L54.2409 28.5376L54.2673 28.4828C54.4533 28.0957 54.6839 27.7318 54.9545 27.3986C54.9666 27.4292 54.982 27.4586 55.0004 27.4862C55.0362 27.54 55.0828 27.5858 55.1372 27.6207L55.2049 27.6641L55.2093 27.5839C55.2112 27.55 55.2272 27.4966 55.2543 27.4276C55.2809 27.3601 55.3158 27.2834 55.3517 27.2046L55.3526 27.2025C55.3879 27.1249 55.4241 27.0455 55.4526 26.9737C55.4683 26.9342 55.4823 26.8955 55.4925 26.8598C55.4982 26.8643 55.504 26.8689 55.5101 26.8736C55.592 26.9384 55.7065 27.029 55.8137 27.1363L55.9103 27.2329L55.8934 27.0973C55.8727 26.9315 55.8977 26.7712 55.9232 26.6085C55.9253 26.5949 55.9274 26.5813 55.9295 26.5677C55.9488 26.4429 55.9661 26.3158 55.9559 26.1893C55.9565 26.1902 55.9571 26.1912 55.9577 26.1922C55.9653 26.2043 55.9736 26.2176 55.9837 26.2326C56.0321 26.3052 56.1011 26.3848 56.2465 26.4263L56.3455 26.4546L56.3018 26.3614C56.27 26.2935 56.2496 26.1967 56.2376 26.0817C56.2257 25.9675 56.2225 25.8394 56.2231 25.7112C56.2235 25.6065 56.2265 25.5027 56.2293 25.4069C56.2299 25.3854 56.2305 25.3643 56.2311 25.3437C56.2315 25.329 56.2319 25.3145 56.2322 25.3003C56.2412 25.3179 56.2511 25.3353 56.2626 25.3526C56.3155 25.4319 56.398 25.502 56.5642 25.597L56.6446 25.6429L56.6341 25.5509C56.6242 25.4649 56.5975 25.3569 56.5665 25.2434C56.5539 25.1974 56.5406 25.1506 56.5273 25.1036C56.5073 25.0329 56.4871 24.9617 56.4688 24.8917C56.4384 24.7755 56.4147 24.6677 56.4075 24.5807C56.4038 24.5373 56.4045 24.501 56.4096 24.4726C56.4104 24.468 56.4113 24.4637 56.4124 24.4597C56.4429 24.4911 56.4727 24.5278 56.5039 24.5662L56.5078 24.571C56.5524 24.6259 56.6011 24.6855 56.6544 24.7228L56.7341 24.7786L56.728 24.6814C56.7103 24.3987 56.6348 24.1225 56.5061 23.8701C56.3774 23.6177 56.1983 23.3943 55.9799 23.2139L55.978 23.2124L55.9761 23.2111C54.9176 22.5022 54.1677 22.4274 53.7423 22.4262C53.6895 22.426 53.6419 22.427 53.5998 22.428C53.5941 22.4281 53.5884 22.4283 53.5829 22.4284C53.5477 22.4293 53.5171 22.43 53.4902 22.43C53.459 22.4299 53.4351 22.4288 53.4171 22.4261C53.3989 22.4233 53.3917 22.4196 53.3895 22.418C53.3894 22.4175 53.3893 22.4167 53.3892 22.4155C53.3888 22.4086 53.3906 22.3951 53.3993 22.3713C53.4163 22.3246 53.453 22.2559 53.5124 22.1539Z" fill="black"/>
<path d="M51.6562 26.2969C51.8625 25.8938 52.05 25.7625 52.1812 25.5C52.4062 25.05 52.4437 24.675 52.65 24.7312C52.8375 24.7875 52.8375 24.975 52.5844 25.425C52.3313 25.875 52.2094 25.9688 51.6562 26.2969ZM53.025 27.2531C53.0062 26.9531 53.0906 26.8219 53.0813 26.625C53.0438 26.2688 52.9031 26.0344 53.0906 26.0156C53.2781 26.0063 53.3625 26.1187 53.3625 26.4656C53.3625 26.8219 53.3062 26.9156 53.025 27.2531ZM54.0656 27.8531C53.9813 27.4313 54.0469 27.2438 53.9906 26.9625C53.8969 26.475 53.7188 26.1563 53.8969 26.1094C54.0656 26.0625 54.1781 26.2219 54.2437 26.7188C54.3 27.2063 54.2719 27.3469 54.0656 27.8625V27.8531ZM55.1438 24.8531C54.8906 24.6656 54.7406 24.6469 54.5813 24.525C54.3 24.3 54.15 24.075 54.0562 24.1875C53.9625 24.3 54.0281 24.4313 54.3375 24.6281C54.6469 24.825 54.7313 24.8438 55.1438 24.8531ZM54.9656 26.2781C54.8344 25.9969 54.6844 25.9313 54.6094 25.7531C54.4594 25.4344 54.4594 25.1625 54.2812 25.2281C54.1219 25.3031 54.1031 25.4438 54.2812 25.7531C54.4688 26.0531 54.5625 26.1094 54.9563 26.2781H54.9656Z" fill="#B3B3B3"/>
<path d="M5.04377 22.9312C5.00627 22.6875 5.06252 22.65 4.91252 22.4625C5.13752 22.5562 5.13752 22.8094 5.40939 22.6312C5.50314 22.5844 5.55002 22.5844 5.42814 22.3031C5.70939 22.3219 6.61877 22.6312 6.76877 22.6406C7.15314 22.6594 7.85627 22.2375 8.34377 22.7531C8.81252 23.2219 8.64377 23.7187 8.64377 24.3656C8.45627 24.2719 8.55002 24.2437 8.34377 24C8.49377 24.5812 8.34377 25.6031 8.34377 26.2125C8.26877 26.0625 8.27814 26.1281 8.20314 25.9781C8.01564 26.5312 7.77189 26.6344 7.77189 27.3C7.69689 27.0375 7.77189 27.0937 7.68752 26.9625C7.50002 27.3844 6.18752 27.7406 6.69377 28.1625C6.24377 27.9 6.03752 27.9187 5.85002 27.6937C5.75627 27.7406 5.68127 27.8531 5.60627 27.9937C4.80939 27.6375 5.09064 26.85 4.47189 26.3156C4.35939 26.5406 4.40627 26.5125 4.28439 26.8687C4.17189 26.3719 4.13439 26.0531 3.99377 25.6875C3.87189 25.8937 3.88127 25.8094 3.65627 26.1187C3.56252 25.5187 3.42189 25.3687 3.46877 24.9656C3.24377 25.1344 3.39377 25.0594 3.15939 25.2656C3.38439 23.7187 4.34064 22.5656 5.03439 22.9219L5.04377 22.9312Z" fill="#333333"/>
<path fill-rule="evenodd" clip-rule="evenodd" d="M5.33249 22.2357L5.43219 22.2423C5.5086 22.2474 5.62303 22.2716 5.74994 22.3033C5.8782 22.3354 6.02381 22.3764 6.1645 22.4168C6.20736 22.4291 6.24971 22.4414 6.291 22.4534C6.38576 22.4808 6.47494 22.5066 6.55179 22.5278C6.6069 22.5431 6.65497 22.5558 6.69363 22.5649C6.73322 22.5742 6.7591 22.5789 6.77219 22.5798C6.85863 22.5839 6.96656 22.5632 7.09501 22.5342C7.11623 22.5294 7.13793 22.5244 7.16006 22.5193C7.26902 22.4941 7.38819 22.4666 7.50939 22.4502C7.80274 22.4103 8.12433 22.4328 8.38745 22.7106C8.63395 22.9574 8.71325 23.2138 8.73036 23.4888C8.73882 23.6247 8.73213 23.7655 8.72363 23.9103C8.72256 23.9286 8.72145 23.9471 8.72034 23.9656C8.71263 24.094 8.7047 24.2262 8.7047 24.3656V24.4642L8.61651 24.4201C8.56723 24.3955 8.53196 24.373 8.50496 24.3475C8.48084 24.3248 8.4656 24.3017 8.45274 24.2784C8.47832 24.528 8.47405 24.8146 8.46088 25.0985C8.45373 25.2526 8.444 25.4057 8.43464 25.5529C8.41915 25.7963 8.4047 26.0235 8.4047 26.2125L8.28925 26.2397C8.2544 26.17 8.23994 26.1515 8.22643 26.1341L8.22535 26.1327C8.22218 26.1286 8.21902 26.1246 8.21578 26.1202C8.1605 26.2595 8.10212 26.3707 8.04924 26.4715C8.02168 26.524 7.99562 26.5737 7.97227 26.623C7.89157 26.7933 7.83282 26.9766 7.83282 27.3L7.71329 27.3167C7.67834 27.1944 7.67417 27.1361 7.67275 27.0973C7.60688 27.1767 7.51434 27.2502 7.41695 27.3185C7.34489 27.3691 7.26694 27.4189 7.18981 27.4678C7.18057 27.4737 7.17133 27.4795 7.16212 27.4853C7.09408 27.5284 7.02723 27.5707 6.96456 27.613C6.8193 27.711 6.7092 27.801 6.66245 27.8858C6.64046 27.9256 6.63485 27.9602 6.64268 27.9929C6.6508 28.0268 6.67559 28.068 6.73277 28.1157L6.66305 28.2151C6.47939 28.108 6.33812 28.049 6.21918 27.9994C6.19507 27.9894 6.17188 27.9797 6.14944 27.9701C6.03076 27.9192 5.93168 27.8693 5.83906 27.7729C5.81612 27.791 5.793 27.8152 5.76932 27.8458C5.73258 27.8934 5.69697 27.9532 5.66003 28.0224L5.63328 28.0726L5.58139 28.0494C5.15941 27.8607 5.02299 27.5544 4.91469 27.2414C4.90304 27.2077 4.89173 27.1741 4.88044 27.1406C4.79396 26.8835 4.70928 26.6318 4.4912 26.4164C4.46397 26.4767 4.45266 26.5134 4.44051 26.5587C4.43786 26.5686 4.43516 26.579 4.43228 26.59C4.41622 26.6517 4.39439 26.7355 4.34204 26.8885L4.27244 27.0919L4.22495 26.8822C4.1912 26.7331 4.16433 26.6012 4.13964 26.4799C4.08984 26.2352 4.04888 26.034 3.97819 25.824C3.95341 25.8578 3.93273 25.8801 3.90795 25.9063L3.90509 25.9093C3.86584 25.9508 3.81357 26.0061 3.70554 26.1546L3.61881 26.2738L3.59605 26.1282C3.55954 25.8945 3.51613 25.7312 3.47897 25.5915C3.469 25.554 3.45949 25.5182 3.45068 25.4832C3.41871 25.3563 3.3966 25.2413 3.39865 25.1005C3.38139 25.1169 3.37467 25.1264 3.36786 25.136L3.36731 25.1368C3.36668 25.1377 3.36605 25.1386 3.36541 25.1395C3.34296 25.1712 3.31669 25.2084 3.19964 25.3114L3.07523 25.4209L3.09908 25.2569C3.21289 24.4744 3.51187 23.7887 3.87374 23.3417C4.05458 23.1184 4.25361 22.9516 4.45627 22.8643C4.62842 22.7901 4.80424 22.7731 4.97062 22.8289C4.9694 22.8133 4.96847 22.7987 4.96769 22.785C4.96724 22.7772 4.96684 22.7699 4.96646 22.7629C4.96475 22.7315 4.96345 22.7077 4.96004 22.6847C4.95273 22.6353 4.93558 22.5889 4.86492 22.5006L4.93595 22.4062C5.00156 22.4336 5.04993 22.4723 5.08883 22.5093C5.10494 22.5246 5.11995 22.5402 5.13337 22.5541C5.13586 22.5567 5.1383 22.5592 5.14069 22.5617C5.15645 22.5779 5.16978 22.5913 5.18281 22.6024C5.208 22.6238 5.22704 22.6322 5.2489 22.6323C5.2734 22.6324 5.31236 22.622 5.37599 22.5803L5.37896 22.5783L5.38213 22.5767C5.39081 22.5724 5.39802 22.5689 5.40415 22.5659C5.41815 22.5592 5.42655 22.5551 5.43403 22.5499C5.43943 22.5461 5.43959 22.545 5.43978 22.5437C5.4398 22.5435 5.43983 22.5433 5.43986 22.5431C5.44112 22.5368 5.44158 22.5202 5.43112 22.4829C5.42096 22.4466 5.40234 22.3969 5.37222 22.3274L5.33249 22.2357ZM4.99823 22.9719C4.84614 22.897 4.67865 22.9012 4.50449 22.9762C4.32571 23.0533 4.14153 23.2047 3.96846 23.4184C3.65056 23.8111 3.37851 24.4039 3.25021 25.0906C3.25628 25.0828 3.26073 25.0765 3.26482 25.0707C3.26585 25.0692 3.26686 25.0678 3.26786 25.0663C3.29329 25.0304 3.31807 25.0025 3.4322 24.9169L3.54567 24.8318L3.52929 24.9727C3.507 25.1643 3.52889 25.2947 3.56887 25.4535C3.57724 25.4867 3.58645 25.5214 3.59622 25.558C3.62584 25.6694 3.66055 25.7999 3.69242 25.9694C3.75104 25.8948 3.78761 25.8562 3.81743 25.8247L3.81941 25.8226C3.85764 25.7822 3.88291 25.7553 3.9413 25.6565L4.0054 25.548L4.05063 25.6656C4.15202 25.9292 4.20133 26.1714 4.26115 26.4652C4.27202 26.5186 4.28324 26.5737 4.29518 26.6309C4.30285 26.6034 4.30891 26.5802 4.31439 26.5591C4.3173 26.548 4.32005 26.5374 4.32279 26.5272C4.34154 26.4572 4.35949 26.4041 4.41738 26.2884L4.45242 26.2183L4.51171 26.2695C4.80111 26.5194 4.90316 26.8242 4.99614 27.1019C5.00741 27.1356 5.01854 27.1688 5.02986 27.2016C5.12995 27.4908 5.24497 27.7457 5.58042 27.9141C5.60985 27.862 5.64034 27.8134 5.67288 27.7713C5.7157 27.7159 5.76455 27.6683 5.82276 27.6392L5.86592 27.6177L5.89682 27.6547C5.9813 27.7561 6.06908 27.803 6.19745 27.858C6.21885 27.8672 6.24133 27.8766 6.26497 27.8865C6.33792 27.9169 6.42199 27.9519 6.52005 28.0001C6.51093 27.9387 6.5263 27.8803 6.55573 27.8269C6.61855 27.713 6.75337 27.6085 6.89639 27.512C6.96066 27.4686 7.02915 27.4253 7.09701 27.3823C7.10621 27.3765 7.11541 27.3707 7.12458 27.3649C7.20178 27.316 7.2775 27.2675 7.34693 27.2188C7.48898 27.1191 7.59255 27.0261 7.63182 26.9377L7.67769 26.8345L7.73877 26.9295C7.73971 26.931 7.74065 26.9325 7.74156 26.9339C7.76841 26.7914 7.81108 26.6785 7.86212 26.5708C7.88886 26.5143 7.91693 26.4609 7.94564 26.4062C8.01165 26.2806 8.08105 26.1484 8.14542 25.9586L8.19232 25.8202L8.25764 25.9509C8.26969 25.975 8.2793 25.993 8.28728 26.0069C8.29285 25.8622 8.30295 25.7031 8.31339 25.5387C8.32268 25.3923 8.33224 25.2416 8.33914 25.0929C8.35791 24.6881 8.35718 24.2959 8.28475 24.0152L8.39028 23.9606C8.48464 24.0722 8.52016 24.1425 8.54466 24.191C8.54822 24.198 8.55154 24.2046 8.55477 24.2108C8.56509 24.2305 8.57304 24.2431 8.58434 24.2547C8.58706 24.1517 8.59301 24.0527 8.59869 23.9581C8.5998 23.9396 8.6009 23.9213 8.60197 23.9031C8.61047 23.7582 8.61667 23.6241 8.60872 23.4964C8.59303 23.2443 8.52244 23.018 8.30067 22.7962L8.30007 22.7956L8.29948 22.795C8.07521 22.5578 7.80175 22.5335 7.52579 22.5709C7.41067 22.5866 7.29797 22.6125 7.18907 22.6376C7.16651 22.6428 7.14412 22.648 7.1219 22.653C6.9954 22.6816 6.87146 22.7066 6.76579 22.7015L6.76496 22.7014C6.74042 22.6999 6.70519 22.6928 6.66562 22.6835C6.62473 22.6738 6.57495 22.6607 6.51932 22.6453C6.44173 22.6239 6.35139 22.5977 6.25626 22.5702C6.21513 22.5583 6.17311 22.5461 6.13083 22.534C5.99027 22.4935 5.84642 22.4531 5.72039 22.4216C5.64619 22.403 5.57969 22.388 5.52441 22.3778C5.53453 22.4048 5.54252 22.4287 5.54848 22.45C5.56058 22.4932 5.56632 22.5323 5.55937 22.567C5.5515 22.6064 5.52922 22.632 5.50398 22.6497C5.48775 22.661 5.46668 22.6712 5.44949 22.6795C5.44603 22.6811 5.44273 22.6827 5.43966 22.6843C5.36866 22.7303 5.30663 22.7543 5.24848 22.7541C5.18685 22.7539 5.14085 22.7266 5.10393 22.6953C5.09635 22.6888 5.08896 22.6821 5.08176 22.6752C5.08523 22.7018 5.08673 22.7297 5.08827 22.7583C5.08863 22.7648 5.08898 22.7714 5.08936 22.778C5.09165 22.8178 5.09502 22.8637 5.10399 22.922L5.13229 23.106L4.99823 22.9719Z" fill="black"/>
<path d="M4.06879 25.4719C4.26566 24.9656 4.44379 24.8156 4.58441 24.4969C4.81879 23.925 4.85629 23.4656 5.05316 23.5312C5.24066 23.6062 5.24066 23.8312 4.97816 24.3937C4.71566 24.9562 4.60316 25.0687 4.06879 25.4719ZM4.83754 26.7187C4.91254 26.2687 5.04379 26.1187 5.10004 25.8187C5.19379 25.3125 5.14691 24.9375 5.32504 24.9562C5.51254 24.975 5.55004 25.1719 5.42816 25.6687C5.30629 26.1844 5.22191 26.3062 4.82816 26.7187H4.83754ZM5.75629 27.6C5.78441 27.1687 5.88754 26.9906 5.90629 26.7094C5.93441 26.2219 5.83129 25.8656 6.00004 25.8656C6.18754 25.8656 6.24379 26.0437 6.18754 26.5312C6.13129 27.0187 6.07504 27.15 5.75629 27.6ZM7.74379 24.75C7.36879 24.375 7.14379 24.3 6.90004 24.0562C6.46879 23.625 6.25316 23.2312 6.09379 23.3719C5.94379 23.5125 6.03754 23.7187 6.49691 24.1219C6.94691 24.5437 7.10629 24.6 7.75316 24.75H7.74379ZM7.51879 26.2125C7.27504 25.8375 7.08754 25.7344 6.92816 25.4812C6.64691 25.0594 6.55316 24.6937 6.39379 24.7781C6.23441 24.8719 6.27191 25.0594 6.57191 25.4812C6.88129 25.8937 6.99379 25.9687 7.51879 26.2125Z" fill="#B3B3B3"/>
<path d="M24.5063 14.5687C24.0563 15.4312 25.2844 14.2875 27.2063 15.7312C27.6734 16.2311 27.9746 16.863 28.0688 17.5406C27.6772 17.4154 27.3 17.2489 26.9438 17.0437C26.9438 17.0437 27.7875 17.9062 27.7875 18.8812C27.4875 18.6937 27.3375 18.7219 27.225 18.4969C27.225 18.8062 27.5063 19.0125 27.5063 19.5C27.3215 19.3514 27.1239 19.2196 26.9156 19.1062C27.1969 19.6031 26.4 20.5594 26.8031 20.8687C26.4647 20.8222 26.1395 20.7067 25.8476 20.5293C25.5557 20.3519 25.3034 20.1164 25.1063 19.8375C24.9563 19.9312 24.9375 20.0906 24.9281 20.2687C24.9563 20.2781 23.8688 19.4531 23.9719 19.1437C23.8478 19.2989 23.7756 19.4891 23.7656 19.6875C23.3547 19.3451 23.0437 18.8981 22.8656 18.3937C22.6969 18.6187 22.6781 18.6187 22.5 18.8625C22.3688 18.0469 22.3688 18.075 22.6313 17.3812C22.4495 17.5066 22.2743 17.6411 22.1063 17.7844C22.2434 17.1042 22.5298 16.4629 22.9448 15.9068C23.3598 15.3507 23.8932 14.8937 24.5063 14.5687Z" fill="#333333"/>
<path fill-rule="evenodd" clip-rule="evenodd" d="M24.4022 14.6795C23.848 14.9955 23.3645 15.4227 22.9823 15.9348C22.5985 16.449 22.3259 17.0369 22.181 17.661C22.3178 17.5492 22.4591 17.443 22.6046 17.3427L22.7282 17.2575L22.6751 17.3978C22.6696 17.4123 22.6642 17.4265 22.659 17.4403C22.5377 17.7607 22.4797 17.9139 22.4646 18.0804C22.4504 18.2384 22.4747 18.409 22.5286 18.7453C22.5794 18.678 22.6151 18.634 22.6501 18.5914C22.6539 18.5867 22.6577 18.582 22.6616 18.5774C22.7057 18.5236 22.7511 18.4683 22.8281 18.3656L22.8807 18.2956L22.9098 18.3781C23.0752 18.8464 23.3568 19.2644 23.7277 19.5931C23.753 19.4185 23.8243 19.2531 23.9353 19.1145L24.0163 19.1586C24.0083 19.1826 24.0103 19.2172 24.0283 19.2646C24.0461 19.3115 24.0775 19.3653 24.1198 19.424C24.2042 19.5412 24.3272 19.6706 24.4542 19.7919C24.5809 19.9128 24.7101 20.0239 24.8062 20.1045C24.8374 20.1307 24.8649 20.1535 24.8879 20.1725C24.9018 20.0275 24.9391 19.8867 25.0814 19.7977L25.119 19.7743L25.1445 19.8104C25.338 20.0841 25.5855 20.3152 25.872 20.4892C26.1225 20.6415 26.398 20.7473 26.6853 20.802C26.6425 20.7226 26.6339 20.6277 26.6435 20.5282C26.6577 20.381 26.7128 20.2117 26.7692 20.0429C26.7726 20.0327 26.776 20.0225 26.7795 20.0123C26.8334 19.8513 26.8874 19.6902 26.9138 19.5396C26.942 19.3793 26.9372 19.2395 26.8748 19.1293L26.7941 18.9867L26.938 19.0651C27.1188 19.1635 27.2917 19.2756 27.4552 19.4004C27.4395 19.2175 27.3821 19.0782 27.3231 18.9514C27.3153 18.9346 27.3074 18.9179 27.2995 18.9012C27.2383 18.7723 27.1781 18.6453 27.1781 18.4969L27.2669 18.4759C27.3175 18.5771 27.3744 18.62 27.4569 18.6612C27.4805 18.673 27.507 18.6849 27.5363 18.6981C27.5933 18.7238 27.6609 18.7542 27.7385 18.7978C27.7164 18.3539 27.5225 17.9364 27.3259 17.6217C27.2217 17.4551 27.1175 17.3184 27.0394 17.2235C27.0003 17.1761 26.9679 17.1392 26.9452 17.1142C26.9339 17.1017 26.9251 17.0922 26.9191 17.0858C26.9161 17.0827 26.9139 17.0803 26.9124 17.0787L26.9107 17.077L26.9102 17.0765C26.9102 17.0765 26.9102 17.0765 26.9173 17.0696C26.9221 17.0649 26.9302 17.057 26.9437 17.0437H26.8969V16.9627L26.9671 17.0031C27.2986 17.194 27.6484 17.3512 28.0111 17.4725C27.9073 16.8341 27.6166 16.2401 27.1748 15.7663C26.2255 15.0543 25.45 14.9812 24.9666 14.9789C24.9057 14.9786 24.8494 14.9794 24.7976 14.9803C24.7931 14.9804 24.7887 14.9804 24.7844 14.9805C24.7378 14.9813 24.6947 14.982 24.6558 14.9818C24.5734 14.9813 24.5002 14.977 24.4489 14.954C24.4214 14.9417 24.3973 14.9229 24.3822 14.8946C24.3674 14.8668 24.3641 14.8352 24.3676 14.8022C24.3713 14.7674 24.3831 14.7267 24.4022 14.6795ZM24.5062 14.5687L24.4843 14.5273C23.8651 14.8555 23.3264 15.3171 22.9072 15.8787C22.488 16.4404 22.1988 17.0881 22.0603 17.7751L22.0335 17.908L22.1367 17.82C22.2647 17.7109 22.397 17.6068 22.5331 17.508C22.4378 17.7609 22.3858 17.9107 22.3713 18.072C22.3547 18.2552 22.3865 18.4527 22.4479 18.8338C22.4498 18.8456 22.4517 18.8577 22.4537 18.8699L22.4716 18.9809L22.5378 18.8902C22.6263 18.7691 22.6749 18.7089 22.7226 18.6508C22.7264 18.6461 22.7302 18.6415 22.734 18.6368C22.7676 18.5959 22.8024 18.5536 22.8512 18.4902C23.036 18.9694 23.3402 19.3941 23.7356 19.7235L23.8077 19.7836L23.8124 19.6899C23.8197 19.545 23.8619 19.4047 23.9345 19.2806C23.9364 19.2864 23.9385 19.2922 23.9407 19.2979C23.9625 19.3554 23.999 19.4167 24.0437 19.4788C24.1332 19.603 24.2611 19.7372 24.3895 19.8597C24.5183 19.9826 24.6492 20.0952 24.7459 20.1763C24.7816 20.2062 24.8127 20.232 24.8373 20.2523C24.8461 20.2595 24.854 20.2661 24.8609 20.2719C24.8686 20.2782 24.875 20.2835 24.8802 20.2879L24.8794 20.3019L24.9133 20.3132C24.9148 20.3137 24.9178 20.3146 24.9215 20.3152C24.9243 20.3156 24.933 20.3167 24.9433 20.3133C24.9569 20.3088 24.9702 20.2972 24.9743 20.2792C24.9756 20.2736 24.9757 20.2684 24.9753 20.2641C24.984 20.1053 25.0015 19.9831 25.0957 19.903C25.2923 20.1704 25.5394 20.3968 25.8233 20.5694C26.1206 20.7501 26.452 20.8678 26.7967 20.9152L26.972 20.9393L26.8317 20.8316C26.7495 20.7685 26.7239 20.6709 26.7368 20.5372C26.7498 20.4026 26.8009 20.2438 26.8581 20.0727C26.8617 20.0619 26.8654 20.0511 26.869 20.0402C26.9223 19.8811 26.9785 19.7137 27.0062 19.5559C27.027 19.437 27.0327 19.3192 27.0066 19.2116C27.171 19.3083 27.3282 19.4169 27.4769 19.5365L27.5531 19.5979V19.5C27.5531 19.2461 27.4795 19.0653 27.4081 18.9119C27.4001 18.8946 27.3921 18.8777 27.3844 18.8613C27.3531 18.795 27.3248 18.735 27.3044 18.6756C27.3379 18.7032 27.3745 18.7248 27.415 18.745C27.4434 18.7593 27.4728 18.7725 27.5039 18.7865C27.5767 18.8192 27.6592 18.8563 27.7626 18.921L27.8344 18.9658V18.8812C27.8344 18.381 27.6183 17.9127 27.4054 17.572C27.314 17.4259 27.2228 17.3024 27.1481 17.2089C27.439 17.3595 27.7422 17.4854 28.0545 17.5853L28.1254 17.608L28.1152 17.5342C28.0197 16.847 27.7142 16.2061 27.2405 15.6992L27.2377 15.6962L27.2344 15.6938C26.2633 14.9642 25.4651 14.8875 24.967 14.8852C24.9051 14.8849 24.8479 14.8857 24.796 14.8866C24.7916 14.8866 24.7873 14.8867 24.783 14.8868C24.7362 14.8876 24.6941 14.8883 24.6563 14.888C24.5712 14.8876 24.5177 14.8821 24.4871 14.8684C24.4737 14.8624 24.468 14.8562 24.465 14.8506C24.4617 14.8444 24.4586 14.8331 24.4608 14.8121C24.4655 14.7677 24.4916 14.6982 24.5478 14.5904L24.5062 14.5687Z" fill="black"/>
<path d="M23.4 18.7688C23.475 18.1781 23.625 17.9625 23.6813 17.5688C23.7563 16.9125 23.6625 16.4063 23.9063 16.425C24.1313 16.4438 24.2063 16.6875 24.0938 17.3625C23.9719 18.0281 23.8688 18.1875 23.4094 18.7781L23.4 18.7688ZM24.6469 19.8563C24.6 19.3688 24.6938 19.1438 24.6563 18.825C24.6094 18.2625 24.4313 17.8688 24.6375 17.8406C24.8438 17.8031 24.9563 17.9906 24.975 18.5719C24.9938 19.1344 24.9469 19.2938 24.6469 19.8563ZM26.5969 20.7563C26.3813 20.3156 26.1938 20.1938 26.0625 19.9125C25.8188 19.4156 25.7625 19.0219 25.5844 19.0875C25.3969 19.1625 25.4063 19.3688 25.6781 19.8563C25.9406 20.325 26.0625 20.4281 26.5875 20.7563H26.5969ZM27.2625 16.8656C26.7188 16.5844 26.4469 16.5844 26.1 16.3969C25.4906 16.0781 25.1344 15.7313 25.0125 15.9281C24.8813 16.1156 25.05 16.3125 25.6781 16.6031C26.3063 16.8938 26.5031 16.9031 27.2531 16.8656H27.2625ZM27.45 18.4875C27.075 18.1688 26.8313 18.1125 26.5781 17.9063C26.1281 17.5313 25.9125 17.1844 25.7719 17.325C25.6219 17.475 25.7156 17.6625 26.1844 18.0094C26.6531 18.3563 26.8125 18.3938 27.4594 18.4875H27.45Z" fill="#B3B3B3"/>
</g>
<defs>
<clipPath id="clip0_264_23588">
<rect width="60" height="45" fill="white"/>
</clipPath>
</defs>
</svg>
