<svg width="60" height="45" viewBox="0 0 60 45" fill="none" xmlns="http://www.w3.org/2000/svg">
<g clip-path="url(#clip0_264_18016)">
<path fill-rule="evenodd" clip-rule="evenodd" d="M-15.0543 0H75.1857V45.12H-15.0543V0Z" fill="#6797D6"/>
<path fill-rule="evenodd" clip-rule="evenodd" d="M30.0481 10.8394L27.1928 12.7958L28.2856 9.63209L25.4215 7.67571H28.9553L30.0481 4.51202L31.1408 7.68452H34.6658L31.8106 9.63209L32.9033 12.7958M30.0481 34.3688L27.1928 32.4124L28.2856 35.5849L25.4215 37.5325H28.9553L30.0481 40.6961L31.1408 37.5236L34.6658 37.5325L31.8106 35.5761L32.9033 32.4124M16.3006 24.2696L14.1415 26.9663L14.2649 23.6175L10.9602 22.5865L14.3442 21.5554L14.4588 18.2067L16.424 20.9209L19.808 19.881L17.6401 22.5865L19.6141 25.2919M43.778 24.2608L45.9458 26.9663L45.8225 23.6175L49.1271 22.5865L45.7431 21.5554L45.6286 18.2067L43.6634 20.9209L40.2794 19.881L42.4473 22.5865L40.4733 25.2919" fill="#F0F0F0"/>
</g>
<defs>
<clipPath id="clip0_264_18016">
<rect width="60" height="45" fill="white"/>
</clipPath>
</defs>
</svg>
