<svg width="60" height="45" viewBox="0 0 60 45" fill="none" xmlns="http://www.w3.org/2000/svg">
<g clip-path="url(#clip0_264_18840)">
<path d="M0 0H60V45H0V0Z" fill="#00008B"/>
<path d="M3.51562 0L14.9531 8.48438L26.3438 0H30V2.90625L18.75 11.2969L30 19.6406V22.5H26.25L15 14.1094L3.79688 22.5H0V19.6875L11.2031 11.3438L0 3V0H3.51562Z" fill="#F0F0F0"/>
<path d="M19.875 13.1719L30 20.625V22.5L17.2969 13.1719H19.875ZM11.25 14.1094L11.5312 15.75L2.53125 22.5H0L11.25 14.1094ZM30 0V0.140625L18.3281 8.95312L18.4219 6.89062L27.6562 0H30ZM0 0L11.2031 8.25H8.39062L0 1.96875V0Z" fill="#FF0000"/>
<path d="M11.2969 0V22.5H18.7969V0H11.2969ZM0 7.5V15H30V7.5H0Z" fill="#F0F0F0"/>
<path d="M0 9.04688V13.5469H30V9.04688H0ZM12.7969 0V22.5H17.2969V0H12.7969Z" fill="#FF0000"/>
<path d="M49.4063 37.1906L47.4844 37.4344L47.6907 39.3563L46.3031 38.0063L44.925 39.3656L45.1125 37.4438L43.1907 37.2188L44.8125 36.1688L43.7906 34.5281L45.6282 35.1375L46.275 33.3094L46.9407 35.1281L48.7688 34.5L47.7656 36.15L49.3969 37.1906H49.4063ZM49.0594 26.2031L49.3125 24.9844L48.3938 24.1406L49.6313 24L50.1469 22.8656L50.6625 24L51.9 24.1406L50.9813 24.9844L51.2344 26.2031L50.1469 25.5844L49.0594 26.2031ZM39.3 20.5781L37.3969 20.7844L37.5657 22.6875L36.2156 21.3281L34.8281 22.65L35.0531 20.7469L33.1594 20.4938L34.7813 19.4813L33.7969 17.8406L35.6063 18.4781L36.2813 16.6875L36.9094 18.4969L38.7281 17.9063L37.7063 19.5281L39.3094 20.5781H39.3ZM58.4063 17.5031L56.4469 17.7563L56.6625 19.7156L55.2469 18.3375L53.8406 19.725L54.0375 17.7563L52.0781 17.5313L53.7375 16.4531L52.6969 14.775L54.5719 15.4031L55.2281 13.5469L55.9031 15.4031L57.7688 14.7563L56.7375 16.4438L58.4063 17.5031ZM49.3969 9.67501L47.4563 9.89063L47.6344 11.8406L46.2563 10.4531L44.8406 11.8031L45.0657 9.86251L43.125 9.60001L44.7844 8.56876L43.7813 6.89063L45.6282 7.53751L46.3125 5.70938L46.95 7.55626L48.8063 6.94688L47.7656 8.59688L49.3969 9.67501ZM21.9375 36.1594L17.6438 36.6656L18.075 40.9688L15 37.9313L11.9063 40.95L12.3656 36.6469L8.0719 36.1031L11.7188 33.7781L9.46877 30.0844L13.5563 31.4906L15.0375 27.4219L16.4906 31.5L20.5875 30.1219L18.3094 33.7969L21.9469 36.15L21.9375 36.1594Z" fill="#F0F0F0"/>
</g>
<defs>
<clipPath id="clip0_264_18840">
<rect width="60" height="45" fill="white"/>
</clipPath>
</defs>
</svg>
