<svg width="60" height="45" viewBox="0 0 60 45" fill="none" xmlns="http://www.w3.org/2000/svg">
<g clip-path="url(#clip0_264_18812)">
<path fill-rule="evenodd" clip-rule="evenodd" d="M62.2894 45.12H-2.16525V0H62.2894V45.12Z" fill="#BA0000"/>
<path fill-rule="evenodd" clip-rule="evenodd" d="M29.1456 21.8374C29.1456 21.8374 24.5983 19.881 25.2505 14.805C25.8761 12.364 26.9953 10.6984 29.0134 9.7907C29.9651 9.49989 30.9345 9.3677 31.9215 9.28839C31.6571 9.53514 31.4456 9.78189 31.3311 10.0815C31.1196 10.6455 31.2782 11.1743 31.569 11.7118C31.9303 12.3287 32.1506 12.9632 32.2211 13.7916C32.2874 14.3561 32.2032 14.928 31.9773 15.4495C31.7514 15.9711 31.3916 16.4236 30.9345 16.7614C30.3529 17.2108 29.6655 17.3695 29.1015 17.8806C28.6609 18.3036 28.3965 18.7354 28.3084 19.4756C28.2908 20.8945 28.6697 21.0971 29.1456 21.8374Z" fill="#F0F0F0"/>
<path fill-rule="evenodd" clip-rule="evenodd" d="M28.3657 14.4701V14.4966H28.1806V14.4701H28.3657Z" fill="black"/>
<path fill-rule="evenodd" clip-rule="evenodd" d="M27.3577 17.8091C27.3719 19.1406 27.7719 20.4842 28.6252 21.2393L28.5026 21.3779C27.5934 20.5733 27.1871 19.1673 27.1726 17.811C27.1654 17.1306 27.2565 16.4569 27.4357 15.8686C27.6145 15.2814 27.883 14.7731 28.235 14.4303L28.3641 14.5628C28.042 14.8766 27.7861 15.3531 27.6127 15.9225C27.4396 16.4908 27.3506 17.1456 27.3577 17.8091Z" fill="#BA0000"/>
<path fill-rule="evenodd" clip-rule="evenodd" d="M29.3835 13.6153L29.6743 14.1L29.1456 13.8797L28.7314 14.3203L28.8019 13.7475L28.2731 13.5272L28.8459 13.395L28.9164 12.831L29.2073 13.3157L29.7889 13.1835" fill="#BA0000"/>
<path fill-rule="evenodd" clip-rule="evenodd" d="M29.5333 21.5025C29.5333 21.5025 30.0621 16.5763 35.1116 15.7127C37.632 15.6069 39.5531 16.1798 41.016 17.8541C41.5712 18.6737 41.9766 19.5638 42.3379 20.4803C42.0295 20.304 41.7386 20.1718 41.4038 20.1542C40.8133 20.1101 40.3463 20.4186 39.9233 20.8504C39.4293 21.3972 38.8134 21.8199 38.1255 22.0841C37.6058 22.3139 37.0347 22.4023 36.4698 22.3404C35.905 22.2785 35.3665 22.0685 34.9089 21.7316C34.3097 21.2998 33.9572 20.6918 33.3051 20.304C32.7751 19.989 32.1469 19.8822 31.5426 20.0044C30.1766 20.4098 30.1061 20.8328 29.5333 21.5025Z" fill="#F0F0F0"/>
<path fill-rule="evenodd" clip-rule="evenodd" d="M36.3189 18.6164H36.2925V18.4313H36.3189V18.6164Z" fill="black"/>
<path fill-rule="evenodd" clip-rule="evenodd" d="M32.8605 18.6143C31.5913 19.0181 30.4215 19.7947 29.9435 20.8361L29.7753 20.7589C30.2842 19.6501 31.5114 18.8493 32.8044 18.4379C33.453 18.2316 34.1236 18.1213 34.7381 18.1199C35.3515 18.1185 35.9154 18.2256 36.3456 18.4603L36.257 18.6227C35.8633 18.408 35.3333 18.3036 34.7385 18.3049C34.1449 18.3063 33.493 18.413 32.8605 18.6143Z" fill="#BA0000"/>
<path fill-rule="evenodd" clip-rule="evenodd" d="M37.4646 19.3258L37.0856 19.74L37.1385 19.1672L36.6097 18.9028L37.1649 18.8147L37.2178 18.2242L37.5174 18.753L38.0814 18.6472L37.7025 19.0614L37.9933 19.5902" fill="#BA0000"/>
<path fill-rule="evenodd" clip-rule="evenodd" d="M29.8682 21.855C29.8682 21.855 34.715 20.7975 37.1297 25.3183C38.0374 27.6712 38.099 29.6717 36.9798 31.584C36.3806 32.3771 35.658 33.038 34.9089 33.6814C34.9794 33.3289 35.0059 33.0116 34.9177 32.6944C34.7767 32.1127 34.3361 31.769 33.7897 31.5047C33.1118 31.2082 32.5138 30.7552 32.0448 30.1828C31.6647 29.7628 31.4018 29.2502 31.2826 28.6963C31.1635 28.1425 31.1924 27.5671 31.3663 27.0279C31.5778 26.3229 32.0449 25.7942 32.2035 25.0539C32.3354 24.4529 32.2379 23.8243 31.9303 23.2914C31.1107 22.1282 30.6877 22.1899 29.8682 21.855Z" fill="#F0F0F0"/>
<path fill-rule="evenodd" clip-rule="evenodd" d="M34.8384 27.3276L34.8561 27.3452L34.8384 27.3276Z" fill="#BA0000"/>
<path fill-rule="evenodd" clip-rule="evenodd" d="M34.7906 27.4106L34.773 27.393L34.9039 27.2621L34.9215 27.2798L34.7906 27.4106Z" fill="black"/>
<path fill-rule="evenodd" clip-rule="evenodd" d="M33.6676 24.0972C32.8829 23.0211 31.7776 22.1589 30.6425 22.0351L30.6625 21.8511C31.8714 21.9829 33.0178 22.892 33.8171 23.9882C34.2181 24.5381 34.5353 25.1396 34.7318 25.7231C34.928 26.3055 35.0058 26.876 34.9208 27.3612L34.7385 27.3292C34.8164 26.8847 34.7467 26.347 34.5564 25.7821C34.3666 25.2183 34.0586 24.6335 33.6676 24.0972Z" fill="#BA0000"/>
<path fill-rule="evenodd" clip-rule="evenodd" d="M34.4507 28.6935L33.9307 28.4644L34.5035 28.3322L34.574 27.7418L34.8472 28.2441L35.42 28.1119L35.0235 28.5525L35.2878 29.0548L34.7767 28.8257L34.3802 29.2751" fill="#BA0000"/>
<path fill-rule="evenodd" clip-rule="evenodd" d="M29.7625 22.3573C29.7625 22.3573 32.133 26.7107 28.4846 30.2886C26.4754 31.8219 24.5719 32.4476 22.4216 31.9101C21.4963 31.5576 20.6591 31.0553 19.822 30.5089C20.1745 30.4824 20.5005 30.4208 20.7825 30.2445C21.2936 29.9449 21.4963 29.4249 21.6021 28.8345C21.6938 28.0982 21.9597 27.3943 22.3776 26.7812C22.6733 26.2974 23.0913 25.9001 23.5895 25.6294C24.0877 25.3586 24.6484 25.224 25.2152 25.239C25.9555 25.2478 26.59 25.5563 27.3478 25.5034C27.9559 25.4241 28.4318 25.2566 28.9693 24.7279C29.8506 23.6263 29.6743 23.2298 29.7625 22.3485V22.3573Z" fill="#F0F0F0"/>
<path fill-rule="evenodd" clip-rule="evenodd" d="M25.9026 28.6671L25.8937 28.6847L25.9026 28.6671Z" fill="#BA0000"/>
<path fill-rule="evenodd" clip-rule="evenodd" d="M25.811 28.6433L25.8198 28.6257L25.9853 28.7084L25.9765 28.7261L25.811 28.6433Z" fill="black"/>
<path fill-rule="evenodd" clip-rule="evenodd" d="M28.6778 26.6301C29.4897 25.5737 30.0039 24.2674 29.7948 23.1409L29.9768 23.1071C30.1995 24.3071 29.6518 25.6666 28.8246 26.7428C28.4096 27.2827 27.9209 27.7561 27.4155 28.1074C26.911 28.4581 26.3845 28.6909 25.8944 28.7415L25.8754 28.5574C26.3239 28.5111 26.8208 28.2955 27.3099 27.9555C27.7981 27.6161 28.2732 27.1565 28.6778 26.6301Z" fill="#BA0000"/>
<path fill-rule="evenodd" clip-rule="evenodd" d="M24.4838 28.6759L24.5631 28.1119L24.8539 28.6142L25.4355 28.5261L25.0301 28.9314L25.3209 29.4338L24.7834 29.1782L24.378 29.5836L24.4485 29.0196L23.9109 28.764" fill="#BA0000"/>
<path fill-rule="evenodd" clip-rule="evenodd" d="M29.2249 22.2604C29.2249 22.2604 25.9114 25.944 21.3113 23.7056C19.1963 22.3221 17.9802 20.727 17.7775 18.5239C17.8039 17.5281 17.989 16.5763 18.2269 15.6158C18.3767 15.933 18.5442 16.215 18.7997 16.4265C19.2492 16.8054 19.8132 16.8231 20.4124 16.7261C21.1317 16.5686 21.8783 16.5868 22.5891 16.779C23.1456 16.8962 23.6613 17.1584 24.0838 17.5391C24.5063 17.9198 24.8206 18.4055 24.9949 18.9469C25.2328 19.6431 25.1535 20.3481 25.462 21.0443C25.7263 21.5906 26.0436 21.9784 26.7222 22.3133C28.0617 22.7803 28.3701 22.4807 29.2249 22.2692V22.2604Z" fill="#F0F0F0"/>
<path fill-rule="evenodd" clip-rule="evenodd" d="M21.9898 20.727L21.9722 20.7182L21.9898 20.727Z" fill="#BA0000"/>
<path fill-rule="evenodd" clip-rule="evenodd" d="M22.0135 20.6354L22.0312 20.6442L21.9484 20.8098L21.9308 20.801L22.0135 20.6354Z" fill="black"/>
<path fill-rule="evenodd" clip-rule="evenodd" d="M24.8342 22.6593C26.1002 23.0741 27.5017 23.1265 28.4915 22.559L28.5835 22.7196C27.5288 23.3242 26.0662 23.2576 24.7766 22.8352C24.1297 22.6233 23.5206 22.3201 23.0209 21.961C22.522 21.6025 22.1268 21.1844 21.9151 20.7404L22.0822 20.6607C22.2759 21.0671 22.6451 21.4631 23.1289 21.8107C23.6117 22.1577 24.2033 22.4527 24.8342 22.6593Z" fill="#BA0000"/>
<path fill-rule="evenodd" clip-rule="evenodd" d="M21.5139 19.3875L22.0691 19.2729L21.6902 19.7136L21.9634 20.2335L21.4522 19.9867L21.0733 20.4274L21.135 19.8281L20.6151 19.5814L21.1702 19.4668L21.2319 18.8676" fill="#BA0000"/>
</g>
<defs>
<clipPath id="clip0_264_18812">
<rect width="60" height="45" fill="white"/>
</clipPath>
</defs>
</svg>
