<svg width="60" height="45" viewBox="0 0 60 45" fill="none" xmlns="http://www.w3.org/2000/svg">
<g clip-path="url(#clip0_264_19361)">
<path d="M0 15H60V30H0V15Z" fill="#F0F0F0"/>
<path d="M0 0H60V15H0V0Z" fill="#CE1126"/>
<path d="M0 30H60V45H0V30Z" fill="black"/>
<path d="M36.6485 19.7452C36.563 19.7041 36.4852 19.6486 36.4186 19.581C36.3693 19.4988 36.4022 19.4988 36.6157 19.5481C36.9934 19.6631 37.2397 19.6138 37.4861 19.4167L37.6996 19.2361L37.9459 19.351C38.0938 19.4331 38.2416 19.4824 38.2744 19.466C38.3894 19.4331 38.6193 19.1375 38.6029 19.039C38.6029 18.924 38.7014 18.9569 38.7671 19.0883C38.8657 19.351 38.7178 19.6631 38.4386 19.7288C38.3237 19.7616 38.2087 19.7452 38.0116 19.6795C37.7817 19.5974 37.7324 19.5974 37.6175 19.6795C37.4799 19.7835 37.3149 19.8451 37.1428 19.8568C36.9707 19.8684 36.7989 19.8297 36.6485 19.7452ZM37.6011 18.8748C37.4899 18.6739 37.4332 18.4474 37.4368 18.2178C37.4532 18.1193 37.4861 18.0864 37.5682 18.1193C37.7324 18.1686 37.7653 18.2835 37.7324 18.612C37.7324 18.9076 37.6832 18.9897 37.6011 18.8748ZM26.4989 18.5627C26.4825 18.7762 26.8931 19.3182 27.0737 19.4167C26.9423 19.466 26.7945 19.4496 26.6796 19.4988C26.0226 20.1558 23.6577 22.455 23.2307 23.0134C24.5117 23.0463 25.9241 22.997 27.123 22.9477C27.123 22.0773 27.9442 22.028 28.5025 21.716C28.7817 22.1594 29.4879 22.1266 29.5865 22.7999V25.6904H18.665C18.6237 25.9096 18.5368 26.1176 18.41 26.3011C18.2832 26.4846 18.1193 26.6394 17.9288 26.7555C17.7384 26.8716 17.5257 26.9464 17.3046 26.9752C17.0834 27.0039 16.8587 26.9858 16.6449 26.9222C16.9734 26.5937 17.5318 26.4623 17.7289 25.986C17.8931 24.935 17.4004 24.2944 17.0719 23.6868C17.4851 23.5543 17.8735 23.3546 18.2216 23.0955C17.8438 24.2452 19.2398 24.1302 20.258 24.0974C20.2909 23.7032 20.2745 23.2434 19.9788 23.1777C20.3566 23.0299 20.4223 22.9806 21.0628 22.455V24.0317L28.6339 24.0152C28.6339 23.5226 28.7653 22.7178 28.3712 22.7178C28.0098 22.7178 28.3712 23.7361 28.0755 23.7361H22.2124V22.7507C22.4588 22.4879 22.4259 22.5043 24.1175 20.8127C24.2818 20.6485 25.4807 19.5645 26.5153 18.5627H26.4989ZM41.1321 18.5134C41.5427 18.7434 41.8711 19.039 42.3638 19.1704C42.3146 19.3839 42.1175 19.466 42.0682 19.6795V24.1138C42.6266 24.2288 42.758 23.9003 43.0208 23.7361C43.0864 24.4423 43.5463 25.132 43.5135 25.7069H41.1321V18.5299V18.5134ZM37.9459 20.8948C37.9459 20.8948 38.8164 20.1558 38.8164 20.1229V23.9824H39.4405L39.424 19.6631C39.6704 19.4003 40.1795 19.039 40.2945 18.7762V25.674H34.8091C34.727 24.2452 34.7106 22.7671 36.3857 23.0791V22.5043C36.3365 22.4058 36.2379 22.5207 36.2215 22.3893C36.4843 22.1266 36.5664 22.0609 37.289 21.4368L37.3054 23.9824H37.9459V20.8948ZM35.8766 23.9496C35.9916 24.1138 36.4022 24.1138 36.3693 23.8182C36.32 23.5718 35.7945 23.6539 35.8766 23.9496Z" fill="#007A3D"/>
<path d="M19.9788 26.8401C20.1603 26.8401 20.3073 26.693 20.3073 26.5116C20.3073 26.3302 20.1603 26.1831 19.9788 26.1831C19.7974 26.1831 19.6504 26.3302 19.6504 26.5116C19.6504 26.693 19.7974 26.8401 19.9788 26.8401Z" fill="#007A3D"/>
<path d="M30.3255 18.5299C30.7361 18.7434 31.0646 19.0554 31.5737 19.1868C31.508 19.3839 31.3274 19.466 31.2781 19.6795V24.1138C31.8365 24.2288 31.9514 23.9167 32.2142 23.7361C32.2963 24.4423 32.7398 25.1485 32.7233 25.7069H30.3255V18.5299Z" fill="#007A3D"/>
</g>
<defs>
<clipPath id="clip0_264_19361">
<rect width="60" height="45" fill="white"/>
</clipPath>
</defs>
</svg>
