<svg width="60" height="45" viewBox="0 0 60 45" fill="none" xmlns="http://www.w3.org/2000/svg">
<g clip-path="url(#clip0_264_19568)">
<path d="M0 0H60V45H0V0Z" fill="#F0F0F0"/>
<path fill-rule="evenodd" clip-rule="evenodd" d="M-7.5 0V3L25.35 22.5L-7.35 42V45H-2.55L30.15 25.5L62.7 45H67.5V42L34.95 22.5L67.65 3V0H62.7L30 19.5L-2.55 0H-7.35H-7.5Z" fill="#DF112D"/>
<path d="M33.9 6.74999C34.95 10.65 34.35 15.45 30 18.15C25.65 15.45 25.05 10.65 26.1 6.74999C27.15 5.84999 31.8 5.24999 33.9 6.74999Z" fill="#E8112D"/>
<path d="M30 5.99999C31.5 5.99999 32.7 6.29999 33.9 6.89999C34.116 5.60045 34.6293 4.36841 35.4 3.29999C34.65 3.29999 34.35 3.59999 34.35 4.04999C34.2 3.59999 33.45 3.59999 33.15 3.89999C34.05 4.34999 33.45 5.39999 32.7 5.24999C32.25 5.09999 32.1 4.79999 32.1 4.49999C32.2113 4.48118 32.3114 4.42127 32.3806 4.33212C32.4497 4.24297 32.4829 4.13109 32.4734 4.01865C32.464 3.90621 32.4127 3.80142 32.3296 3.72505C32.2466 3.64867 32.1378 3.60628 32.025 3.60628C31.9122 3.60628 31.8035 3.64867 31.7204 3.72505C31.6374 3.80142 31.586 3.90621 31.5766 4.01865C31.5672 4.13109 31.6003 4.24297 31.6695 4.33212C31.7386 4.42127 31.8388 4.48118 31.95 4.49999C31.6731 4.78261 31.2957 4.94435 30.9 4.94999C30.7278 4.86853 30.5809 4.74174 30.4752 4.58319C30.3695 4.42465 30.3089 4.24033 30.3 4.04999C30.3 3.29999 31.2 3.14999 31.35 3.29999C31.35 2.84999 30.45 2.24999 30.3 2.84999C30.4549 2.55872 30.5094 2.22452 30.4552 1.89912C30.401 1.57372 30.241 1.27528 30 1.04999C29.7914 1.26386 29.6513 1.53517 29.5979 1.82915C29.5444 2.12312 29.58 2.42636 29.7 2.69999C29.4 2.24999 28.65 2.69999 28.65 3.29999C28.8 3.14999 29.55 3.29999 29.55 4.04999C29.55 4.34999 29.55 4.79999 29.1 4.79999C28.9163 4.872 28.714 4.88164 28.5243 4.82743C28.3346 4.77323 28.1679 4.65818 28.05 4.49999L28.35 4.34999C28.4358 4.30046 28.5029 4.224 28.5408 4.13248C28.5787 4.04096 28.5853 3.93949 28.5597 3.84381C28.534 3.74812 28.4775 3.66357 28.399 3.60327C28.3204 3.54296 28.2241 3.51028 28.125 3.51028C28.026 3.51028 27.9297 3.54296 27.8511 3.60327C27.7725 3.66357 27.716 3.74812 27.6903 3.84381C27.6647 3.93949 27.6714 4.04096 27.7093 4.13248C27.7472 4.224 27.8142 4.30046 27.9 4.34999C27.9 4.79999 27.6 5.09999 27.3 5.09999C27.1426 5.09999 26.9892 5.05046 26.8615 4.95842C26.7338 4.86638 26.6383 4.73649 26.5885 4.58716C26.5387 4.43782 26.5372 4.27661 26.5841 4.12636C26.6311 3.97611 26.7241 3.84444 26.85 3.74999C26.55 3.44999 25.8 3.44999 25.65 4.04999C25.65 3.59999 25.35 3.29999 24.45 3.29999C25.2207 4.36841 25.734 5.60045 25.95 6.89999C27.1966 6.24681 28.5941 5.93624 30 5.99999Z" fill="#F9DD16"/>
<path d="M33.4501 9.89999H33.1501H33.6001C33.7501 9.89999 33.9001 9.74999 33.7501 9.59999H34.0501L33.7501 9.29999H34.0501L33.7501 8.99999H33.9001C33.8737 8.95439 33.8599 8.90265 33.8599 8.84999C33.8599 8.79733 33.8737 8.7456 33.9001 8.69999H32.8501L32.1001 8.54999L33.0001 8.09999C33.0001 7.79999 32.5501 7.34999 31.8001 7.64999L30.1501 7.49999L31.2001 7.19999L32.4001 7.04999H31.3501C30.9001 7.04999 29.8501 6.89999 29.8501 7.49999C29.8501 8.09999 30.9001 7.94999 31.9501 7.79999L32.8501 7.94999L31.9501 8.24999C31.5059 8.14743 31.0442 8.14743 30.6001 8.24999H29.5501C29.2501 8.24999 28.8001 8.24999 28.5001 7.94999C28.5001 7.94999 27.9001 8.24999 27.9001 8.54999V8.99999C28.2001 9.29999 27.9001 9.14999 27.6001 9.14999L26.8501 8.99999C26.7001 8.69999 26.5501 8.54999 26.2501 8.69999V8.99999H26.5501C26.5045 8.97366 26.4527 8.9598 26.4001 8.9598C26.3474 8.9598 26.2957 8.97366 26.2501 8.99999V9.29999H26.7001H26.4001V9.44999H27.0001C26.9205 9.44999 26.8442 9.4816 26.7879 9.53786C26.7317 9.59412 26.7001 9.67043 26.7001 9.74999C26.8501 9.59999 27.0001 9.74999 27.3001 9.74999L27.0001 9.89999C27.1501 9.89999 28.0501 10.05 28.0501 9.74999V9.89999C28.0501 9.89999 28.5001 9.89999 28.5001 9.59999V9.89999C28.5001 9.89999 28.8001 9.89999 28.9501 9.59999V9.29999H29.7001C30.0001 8.99999 30.1501 9.29999 30.3001 9.14999H30.6001C30.7501 9.14999 30.9001 9.14999 31.0501 8.84999C31.3501 8.99999 31.8001 9.14999 32.7001 8.99999C33.1501 8.99999 33.4501 9.14999 33.4501 9.44999H32.7001C32.7001 9.44999 32.5501 9.59999 32.7001 9.74999C32.8501 9.89999 32.7001 9.74999 32.8501 9.74999C32.8501 9.74999 32.7001 9.89999 32.8501 10.05L33.3001 9.89999H33.4501ZM27.4501 7.34999V7.49999L27.6001 7.79999L27.7501 7.34999H27.4501Z" fill="#F9DD16"/>
<path d="M28.5001 7.50001C28.6501 7.35001 28.8001 7.35001 28.8001 7.50001L28.6501 7.80001L28.5001 7.35001V7.50001Z" fill="#F9DD16"/>
<path d="M28.05 7.19998C28.5 7.19998 28.65 7.49998 28.65 7.79998L28.35 8.39998L28.05 8.54998L27.75 8.39998C27.75 7.94998 27.45 8.09998 27.45 7.79998C27.45 7.49998 27.45 7.19998 28.05 7.19998Z" fill="#F9DD16"/>
<path d="M26.85 8.39999H26.55C26.7 8.39999 26.7 8.69999 27.15 8.69999H26.85C27 8.69999 27.15 8.99999 27.6 8.99999C27.6 8.99999 27.75 8.99999 27.6 8.99999C27.6 9.14999 27.9 8.99999 28.05 9.29999C28.05 9.14999 27.75 8.84999 28.05 8.54999C27.45 8.54999 27.3 8.24999 27.15 8.09999C26.85 7.94999 26.85 7.64999 26.7 7.34999C26.7 7.34999 26.55 7.04999 26.4 7.19999V7.49999H26.25C26.4 7.49999 26.25 7.79999 26.55 7.94999C26.4 7.79999 26.25 7.64999 26.1 7.79999H26.25L26.85 8.39999ZM30.75 9.89999H31.5L31.8 9.74999V9.44999C31.65 9.44999 31.5 9.29999 31.65 9.14999C31.2 8.54999 30.3 8.84999 30.3 9.14999L30.9 9.44999H31.05H30L30.15 9.59999L29.85 9.74999C29.85 10.05 30.15 9.74999 30.15 9.74999V9.89999C30.15 9.89999 30.15 10.05 30.3 9.89999C30.3971 9.86567 30.503 9.86567 30.6 9.89999H30.75Z" fill="#F9DD16"/>
<path d="M28.05 8.39998H28.2V8.09998H27.75V8.24998L28.05 8.39998Z" fill="#FF0016"/>
<path d="M26.4 7.2C26.4 7.05 26.1 7.2 26.1 7.2H26.4ZM26.4 7.35L25.95 7.5H26.25L26.4 7.35ZM26.4 7.8H25.95H26.25H26.4ZM26.4 8.85C26.25 8.85 26.1 8.85 26.1 9.15C26.1 9 26.25 9.15 26.4 9.15V8.85ZM26.4 9.15L26.1 9.45L26.4 9.3V9V9.15ZM26.4 9.3C26.4 9.3 26.25 9.45 26.4 9.6V9.15V9.3ZM30.15 9.75C30 9.75 29.85 9.75 29.85 10.05L30.15 9.9V9.75ZM30.3 9.75C30.15 9.75 30 10.05 30.15 10.2L30.3 10.05V9.9V9.75ZM30.3 9.45C30 9.45 29.85 9.45 29.85 9.75L30.15 9.6L30.3 9.45ZM32.7 9.75C32.7 9.75 32.4 9.9 32.55 10.05L32.7 9.9V9.75ZM32.7 9.6L32.4 9.75H32.7V9.3V9.6ZM32.7 9.9C32.7 9.9 32.55 10.2 32.7 10.2H32.85V9.75L32.7 9.9ZM28.2 8.4V9C27.9 9 27.9 9 27.9 8.7V8.4H28.05H28.2Z" fill="#0051BA"/>
<path d="M32.85 13.05H33.15C33.15 13.05 33.3 13.05 33.15 12.9H33.45L33.3 12.6H33.45L33.3 12.3C33.2737 12.2544 33.2599 12.2026 33.2599 12.15C33.2599 12.0973 33.2737 12.0456 33.3 12H32.55L31.8 11.85C32.25 12 32.7 11.7 32.7 11.4C32.7 11.1 32.25 10.8 31.65 11.1L30 10.95L30.9 10.65H32.1L31.05 10.5C30.6 10.35 29.7 10.5 29.7 10.95C29.7 11.4 30.75 11.4 31.65 11.25H32.4L31.65 11.55C31.2551 11.46 30.845 11.46 30.45 11.55L29.4 11.7C29.25 11.7 28.8 11.7 28.5 11.4L27.9 11.85L28.05 12.45C28.2 12.6 28.05 12.45 27.75 12.45H27C27 12.15 26.7 12 26.55 12.15V12.3H26.85C26.8044 12.2736 26.7527 12.2598 26.7 12.2598C26.6474 12.2598 26.5957 12.2736 26.55 12.3V12.6H26.85H26.7C27 12.6 27 12.9 27.15 12.75C27.1009 12.7373 27.0492 12.7373 27 12.75C27 12.75 27.3 13.05 27.45 12.9L27.3 13.2C27.3 13.05 28.2 13.2 28.2 12.9V13.2C28.2 13.2 28.5 13.2 28.65 12.9H28.95V12.6H29.25L29.7 12.45H30.45C30.6 12.45 30.75 12.45 30.9 12.15C31.2 12.3 31.5 12.45 32.4 12.3C32.7 12.3 32.85 12.3 32.85 12.6V12.75H32.2501V13.05C32.2501 13.2 32.4 13.05 32.55 13.05C32.4 13.05 32.25 13.05 32.4 13.2H32.55L32.85 13.05ZM27.75 10.8H27.45L27.6 11.25L27.75 10.8Z" fill="#F9DD16"/>
<path d="M28.5 10.8H28.8L28.65 11.25L28.5 10.8Z" fill="#F9DD16"/>
<path d="M28.2 10.65C28.65 10.65 28.65 10.95 28.65 11.25C28.65 11.55 28.5 11.25 28.35 11.7L28.05 11.85H27.9C27.9 11.4 27.6 11.4 27.6 11.25C27.6 11.1 27.6 10.65 28.2 10.65Z" fill="#F9DD16"/>
<path d="M27 11.7H26.85C26.85 11.7 26.85 12 27.3 12H27L27.6 12.3C27.6 12.3 27.9 12.3 27.6 12.3L28.2 12.6C28.2 12.3 27.9 12.15 28.05 11.85C27.6 11.85 27.45 11.55 27.3 11.4C27 11.4 27 11.1 27 10.8L26.7 10.65C26.55 10.65 26.7 10.65 26.7 10.65V10.95H26.55L26.7 11.25H26.4C26.7 11.25 26.85 11.7 27 11.7ZM30.6 13.05H30.45H31.65V12.75C31.5 12.75 31.35 12.6 31.5 12.3C31.05 11.85 30.3 12.15 30.3 12.3L30.9 12.6C30.9 12.6 31.2 12.6 30.9 12.75H30.6C30.3 12.75 30.15 12.6 30 12.75V13.05H30.15C30.15 13.05 30.15 13.2 30.3 13.05C30.3971 13.0156 30.503 13.0156 30.6 13.05Z" fill="#F9DD16"/>
<path d="M28.2 11.85V11.7C28.2 11.7 28.35 11.55 28.2 11.4C28.2 11.55 28.35 11.55 28.2 11.4C28.2 11.55 27.9 11.55 27.9 11.4V11.7H28.2V11.85Z" fill="#FF0016"/>
<path d="M28.05 11.55L27.75 11.4L28.05 11.55ZM28.05 11.4H27.75H28.05ZM28.05 11.4L27.75 11.55L28.05 11.4ZM28.2 11.55L28.5 11.4L28.2 11.55ZM28.2 11.4H28.5H28.2ZM28.2 11.4L28.5 11.55L28.2 11.4Z" fill="black"/>
<path d="M26.7 10.5L26.4 10.65H26.7V10.5ZM26.7 10.8L26.25 10.95H26.55L26.7 10.8ZM26.55 11.25C26.55 11.1 26.25 11.25 26.25 11.25H26.55ZM26.55 12.15L26.25 12.3H26.7L26.55 12.15ZM26.55 12.45C26.55 12.45 26.25 12.45 26.55 12.75V12.45ZM26.85 12.45L26.55 12.9L26.85 12.75V12.6V12.45ZM29.85 12.9C29.85 12.9 29.7 12.9 29.85 13.2L30 13.05V12.9H29.85ZM30.15 13.05C30.15 13.05 29.85 13.2 30 13.35L30.15 13.2V13.05ZM30.15 12.6C30 12.6 29.7 12.75 29.85 12.9H30V12.75L30.15 12.6ZM32.25 13.05C32.25 13.05 32.1 13.05 32.25 13.2V12.9V13.05ZM32.25 12.75L32.1 12.9H32.4V12.75H32.25ZM32.4 13.2C32.4 13.2 32.25 13.2 32.4 13.35V13.2ZM28.2 11.7V12.3V12C28.2 11.85 28.2 11.7 28.05 11.85V11.7H28.2Z" fill="#0051BA"/>
<path d="M32.847 15.645C32.763 15.645 32.763 15.7575 32.742 15.7575C32.91 15.7575 32.994 15.69 33.036 15.6V15.735C33.162 15.69 33.204 15.5775 33.162 15.51L33.309 15.555C33.225 15.4875 33.288 15.33 33.141 15.24C33.183 15.24 33.267 15.285 33.309 15.3525C33.288 15.195 33.267 15.105 33.141 15.015H33.246C33.2186 14.9954 33.1964 14.9685 33.1817 14.937C33.1669 14.9054 33.1602 14.8702 33.162 14.835C33.162 14.745 33.12 14.745 33.036 14.7675L32.658 14.79C32.448 14.79 32.238 14.79 32.07 14.655C32.343 14.79 32.7 14.52 32.7 14.3175C32.7 14.0925 32.406 13.8675 31.86 14.0025C31.314 14.1375 30.642 14.0925 30.642 13.89C30.642 13.6875 31.125 13.665 31.377 13.71C31.629 13.755 31.797 13.7775 32.259 13.5975C32.154 13.6425 31.776 13.665 31.482 13.575C31.188 13.485 30.474 13.485 30.474 13.89C30.474 14.3175 31.23 14.2725 31.902 14.16C32.28 14.115 32.49 14.16 32.49 14.2725C32.49 14.4075 32.133 14.4525 31.86 14.43C31.5717 14.3883 31.2785 14.4113 30.999 14.4975C30.726 14.5875 30.537 14.4975 30.243 14.565C30.096 14.565 29.739 14.565 29.571 14.25C29.466 14.34 29.151 14.4975 29.088 14.6775C29.025 14.8125 29.088 14.97 29.172 15.1275C29.298 15.3075 29.109 15.285 28.962 15.285C28.794 15.285 28.542 15.285 28.416 15.105C28.29 14.97 28.143 14.8575 28.017 14.9475C27.954 15.015 28.017 15.0825 28.059 15.06L28.227 15.105C28.1933 15.0885 28.1561 15.082 28.1192 15.0859C28.0823 15.0899 28.047 15.1042 28.017 15.1275C27.954 15.1725 28.017 15.2625 28.08 15.24C28.122 15.2175 28.227 15.195 28.29 15.24C28.227 15.24 28.143 15.24 28.122 15.285C28.101 15.33 28.122 15.375 28.185 15.375C28.311 15.375 28.332 15.465 28.458 15.4425C28.4287 15.4442 28.4001 15.4532 28.3746 15.4689C28.3491 15.4845 28.3273 15.5063 28.311 15.5325C28.437 15.465 28.542 15.6225 28.689 15.5775C28.647 15.6 28.542 15.6675 28.542 15.7125C28.626 15.6 29.214 15.8025 29.214 15.555L29.193 15.735C29.256 15.69 29.487 15.6675 29.571 15.51C29.571 15.555 29.571 15.6225 29.529 15.645C29.592 15.645 29.697 15.6 29.802 15.4425C29.844 15.375 29.844 15.33 29.844 15.285C29.949 15.285 30.012 15.2625 30.096 15.195C30.18 15.1275 30.264 15.2625 30.411 15.15C30.537 15.06 30.663 15.15 30.747 15.105C30.81 15.06 30.915 15.105 30.999 15.06C31.083 15.015 31.209 15.0825 31.335 14.97C31.545 15.06 31.818 15.195 32.427 15.0825C32.763 15.015 32.889 15.15 32.889 15.3075C32.889 15.4425 32.805 15.4425 32.763 15.4425C32.553 15.465 32.49 15.375 32.406 15.3975C32.364 15.42 32.322 15.51 32.406 15.555C32.343 15.5775 32.343 15.645 32.385 15.6675C32.427 15.69 32.49 15.6675 32.553 15.645C32.469 15.6675 32.406 15.735 32.448 15.8025C32.469 15.8475 32.532 15.87 32.595 15.8025C32.658 15.7125 32.763 15.645 32.847 15.645ZM28.941 13.845C28.773 13.7775 28.731 13.7775 28.752 13.935C28.752 14.0025 28.815 14.0925 28.857 14.1375C28.857 14.07 28.878 13.9125 28.941 13.8675V13.845Z" fill="#F9DD16"/>
<path fill-rule="evenodd" clip-rule="evenodd" d="M30.8658 13.5362C31.0828 13.4965 31.3365 13.5191 31.4852 13.5646C31.6309 13.6092 31.7977 13.626 31.9414 13.626C32.0132 13.626 32.079 13.6218 32.1333 13.6148C32.1805 13.6088 32.2184 13.6007 32.2438 13.5917C32.2476 13.5903 32.2513 13.5888 32.2551 13.5874L32.2633 13.6075C32.2596 13.609 32.2557 13.6106 32.2514 13.6121C32.0262 13.6991 31.8707 13.7378 31.7402 13.7489C31.6074 13.7603 31.5012 13.7432 31.3751 13.7207C31.2502 13.6984 31.0677 13.6928 30.9168 13.7179C30.8413 13.7305 30.7746 13.7505 30.7271 13.7794C30.6797 13.8081 30.6529 13.8445 30.6529 13.89C30.6529 13.9336 30.6891 13.9717 30.7598 14.002C30.8298 14.0319 30.9296 14.0522 31.0472 14.062C31.2822 14.0816 31.5855 14.0592 31.8574 13.9919C32.1321 13.924 32.3448 13.9463 32.4894 14.0152C32.6341 14.084 32.7109 14.1999 32.7109 14.3175C32.7109 14.3712 32.6873 14.4282 32.6488 14.481C32.6101 14.534 32.5559 14.5834 32.4931 14.6221C32.3911 14.6848 32.265 14.7199 32.1455 14.6931C32.2969 14.7788 32.4755 14.7791 32.6577 14.7791L33.0343 14.7567C33.055 14.7512 33.0736 14.7469 33.0899 14.7451C33.1064 14.7432 33.1217 14.7438 33.1346 14.749C33.1623 14.7601 33.1729 14.7893 33.1729 14.835V14.8356C33.1711 14.869 33.1776 14.9024 33.1915 14.9324C33.2055 14.9623 33.2265 14.9877 33.2523 15.0061L33.28 15.0259H33.1733C33.2223 15.0655 33.2533 15.1064 33.2743 15.154C33.2987 15.2091 33.3093 15.2724 33.3198 15.351L33.2998 15.3582C33.2799 15.3262 33.2497 15.2992 33.2193 15.2801C33.2093 15.2739 33.1996 15.2687 33.1903 15.2644C33.2332 15.3066 33.2488 15.3567 33.2593 15.4036C33.2613 15.4129 33.2632 15.422 33.265 15.4308C33.269 15.4507 33.2728 15.4693 33.2784 15.4866C33.2862 15.5112 33.2971 15.5315 33.3158 15.5465L33.3058 15.5654L33.1823 15.5276C33.208 15.6025 33.1567 15.7034 33.0397 15.7452L33.0252 15.7504V15.6419C33.0047 15.6731 32.9776 15.7005 32.9418 15.7218C32.8925 15.7512 32.8275 15.7684 32.742 15.7684V15.7466C32.7406 15.7466 32.7397 15.7472 32.7395 15.7474C32.7396 15.7472 32.7398 15.7469 32.7402 15.7464C32.7416 15.7444 32.7433 15.741 32.7454 15.7358C32.7466 15.7328 32.748 15.7292 32.7495 15.7252C32.7527 15.7166 32.7565 15.7064 32.761 15.6966C32.7652 15.6878 32.7702 15.6786 32.7766 15.6701C32.7575 15.6773 32.738 15.6871 32.7189 15.6992C32.6755 15.7266 32.6346 15.7649 32.6039 15.8087L32.6035 15.8093L32.603 15.8099C32.5698 15.8454 32.5352 15.8588 32.5046 15.8555C32.4744 15.8522 32.4505 15.833 32.4384 15.8077C32.4271 15.7891 32.4226 15.7702 32.4241 15.7517C32.4256 15.7331 32.4331 15.7157 32.4446 15.7004C32.4486 15.6949 32.4532 15.6897 32.4583 15.6847C32.4303 15.6896 32.4029 15.6894 32.3799 15.6771C32.3547 15.6636 32.3422 15.6366 32.3454 15.61C32.3479 15.5883 32.3606 15.5674 32.3836 15.5536C32.3703 15.5435 32.3609 15.5318 32.3549 15.5192C32.3465 15.5018 32.3451 15.4833 32.3481 15.466C32.3538 15.432 32.3767 15.4009 32.4009 15.3879L32.402 15.3873L32.4032 15.387C32.4265 15.3807 32.4481 15.3824 32.4702 15.3876C32.4854 15.3912 32.5015 15.3966 32.5186 15.4023C32.5257 15.4047 32.5331 15.4072 32.5406 15.4096C32.5921 15.4262 32.6588 15.4427 32.7619 15.4317L32.763 15.4316C32.7844 15.4316 32.8127 15.4314 32.8359 15.4165C32.858 15.4022 32.8782 15.3727 32.8782 15.3075C32.8782 15.2318 32.848 15.1625 32.7783 15.1199C32.7081 15.0769 32.5958 15.0597 32.4292 15.0931L32.429 15.0932C32.1234 15.1496 31.9016 15.1441 31.7295 15.1129C31.5723 15.0844 31.457 15.0345 31.3584 14.9919C31.3512 14.9888 31.3441 14.9857 31.337 14.9827C31.2732 15.0373 31.2093 15.0484 31.1518 15.0512C31.1384 15.0518 31.1254 15.052 31.1128 15.0522L31.1092 15.0523C31.0955 15.0525 31.0825 15.0527 31.07 15.0536C31.045 15.0553 31.0232 15.0594 31.0042 15.0696C30.9597 15.0934 30.9101 15.0934 30.8663 15.0934H30.8651C30.8195 15.0934 30.7815 15.0937 30.7533 15.1138L30.7528 15.1142L30.7522 15.1146C30.7288 15.1271 30.703 15.1299 30.6765 15.1292C30.6587 15.1287 30.6396 15.1265 30.6203 15.1243C30.6115 15.1233 30.6026 15.1223 30.5937 15.1214C30.5368 15.1159 30.4772 15.1162 30.4175 15.1587C30.3795 15.1878 30.345 15.2012 30.3131 15.2057C30.2813 15.2102 30.2529 15.2057 30.2275 15.2C30.2205 15.1984 30.2138 15.1967 30.2074 15.1952C30.19 15.1909 30.1745 15.1871 30.1593 15.1861C30.1395 15.1849 30.1213 15.1886 30.1028 15.2035C30.0603 15.2377 30.0224 15.2609 29.9816 15.2755C29.9435 15.2891 29.9033 15.295 29.8549 15.2958C29.8548 15.315 29.854 15.3352 29.8494 15.3575C29.8439 15.3842 29.8329 15.4135 29.8112 15.4482L29.8111 15.4485C29.7049 15.6077 29.597 15.6559 29.529 15.6559L29.5239 15.6354C29.5406 15.6264 29.5501 15.6079 29.5551 15.5837C29.5575 15.5724 29.5587 15.5604 29.5594 15.5485C29.5133 15.6103 29.4439 15.6481 29.3782 15.6747C29.3475 15.6872 29.3171 15.6975 29.29 15.7066C29.2832 15.7089 29.2767 15.7111 29.2704 15.7133C29.2381 15.7243 29.2135 15.7337 29.1993 15.7438L29.1794 15.7581L29.1933 15.6391C29.1755 15.6575 29.1516 15.67 29.1241 15.6786C29.0657 15.6968 28.9878 15.698 28.9091 15.6952C28.8795 15.6942 28.8498 15.6925 28.8207 15.6909C28.7717 15.6882 28.7245 15.6856 28.6826 15.6861C28.6494 15.6864 28.6205 15.6887 28.5975 15.6941C28.5743 15.6996 28.559 15.708 28.5507 15.719L28.5312 15.7452V15.7125C28.5312 15.6974 28.5397 15.6822 28.5506 15.6687C28.5618 15.6549 28.5769 15.641 28.593 15.6281C28.607 15.6168 28.6221 15.606 28.6364 15.5966C28.5843 15.5971 28.5374 15.5774 28.4943 15.5592C28.4922 15.5583 28.49 15.5575 28.4879 15.5566C28.427 15.531 28.3741 15.511 28.3162 15.5421L28.2804 15.5612L28.3018 15.5267C28.3189 15.4991 28.3419 15.4761 28.3689 15.4596C28.3728 15.4572 28.3768 15.4549 28.3809 15.4528C28.3797 15.4526 28.3785 15.4523 28.3774 15.452C28.3543 15.4464 28.3349 15.4367 28.3164 15.4268C28.3138 15.4254 28.3112 15.424 28.3086 15.4226C28.2745 15.4041 28.2407 15.3859 28.185 15.3859C28.151 15.3859 28.1258 15.3736 28.1128 15.3526C28.0999 15.3318 28.1006 15.3053 28.1122 15.2804C28.1251 15.2527 28.1564 15.2406 28.1884 15.2349C28.2049 15.232 28.2227 15.2305 28.2404 15.2298C28.2206 15.2251 28.1991 15.224 28.1779 15.2255C28.1398 15.2282 28.1046 15.2391 28.0852 15.2496L28.0844 15.2499L28.0837 15.2502C28.0461 15.2636 28.0097 15.2432 27.992 15.2148C27.9831 15.2004 27.9783 15.1831 27.9807 15.1657C27.9831 15.1482 27.9926 15.1316 28.0105 15.1188C28.0347 15.1001 28.0621 15.0869 28.0911 15.0798L28.0601 15.0715C28.0333 15.0829 28.0036 15.0675 27.9893 15.043C27.9734 15.0158 27.9748 14.9768 28.0091 14.9401L28.0098 14.9393L28.0107 14.9386C28.078 14.8906 28.1508 14.8972 28.2213 14.9321C28.2914 14.9668 28.3608 15.0299 28.424 15.0976L28.4245 15.0981L28.4249 15.0988C28.4858 15.1857 28.5774 15.2297 28.6757 15.2519C28.774 15.2741 28.8779 15.2741 28.962 15.2741C28.977 15.2741 28.9922 15.2743 29.0074 15.2746C29.03 15.2749 29.0525 15.2752 29.0744 15.2748C29.1107 15.2741 29.1427 15.2713 29.1659 15.2634C29.1889 15.2557 29.2005 15.2441 29.2022 15.227C29.2041 15.2079 29.1944 15.1784 29.1631 15.1337L29.1624 15.1326C29.1203 15.0537 29.083 14.9739 29.0643 14.8966C29.0456 14.8193 29.0453 14.7437 29.0779 14.6734C29.0945 14.6265 29.1271 14.5818 29.1675 14.5399C29.2081 14.4977 29.2572 14.458 29.3073 14.4212C29.3523 14.3883 29.3983 14.3576 29.4399 14.3298C29.4447 14.3266 29.4494 14.3235 29.4541 14.3204C29.4995 14.2901 29.5383 14.2637 29.5639 14.2417L29.5742 14.2329L29.5806 14.2449C29.7447 14.5526 30.0932 14.5541 30.2418 14.5541C30.3802 14.5225 30.4957 14.5254 30.6062 14.5282C30.6139 14.5284 30.6215 14.5286 30.6292 14.5288C30.7471 14.5316 30.861 14.5315 30.9956 14.4872L30.9958 14.4871C31.2768 14.4005 31.5715 14.3774 31.8612 14.4192C31.9969 14.4303 32.1532 14.4247 32.2752 14.3996C32.3364 14.3871 32.3881 14.3698 32.4243 14.3479C32.4607 14.3259 32.4792 14.3007 32.4792 14.2725C32.4792 14.2483 32.4681 14.2274 32.4448 14.2098C32.421 14.1919 32.3848 14.1775 32.3357 14.1678C32.2376 14.1485 32.092 14.1483 31.9036 14.1707C31.5675 14.227 31.2094 14.2666 30.9349 14.2383C30.7977 14.2242 30.6802 14.193 30.5966 14.1374C30.5125 14.0814 30.4632 14.0008 30.4632 13.89C30.4632 13.785 30.5097 13.706 30.5835 13.6487C30.657 13.5916 30.7573 13.556 30.8658 13.5362ZM28.1516 15.096L28.2242 15.1155L28.2318 15.0952C28.2075 15.0834 28.1816 15.0764 28.1551 15.0745L28.0577 15.0484L28.0539 15.0504C28.0397 15.058 28.0192 15.0512 28.008 15.032C27.9977 15.0144 27.9963 14.9861 28.0242 14.9557C28.0827 14.9144 28.1461 14.9192 28.2117 14.9516C28.2779 14.9844 28.3449 15.0448 28.4076 15.1118C28.4727 15.2044 28.5699 15.2503 28.6709 15.2731C28.7718 15.2959 28.8778 15.2959 28.9616 15.2959H28.962C28.9763 15.2959 28.9912 15.2961 29.0063 15.2963C29.0293 15.2966 29.0528 15.297 29.0748 15.2966C29.1113 15.2958 29.1462 15.293 29.1729 15.284C29.1998 15.2749 29.221 15.2584 29.2239 15.2291C29.2266 15.2019 29.2128 15.1669 29.1813 15.1218C29.1395 15.0434 29.1035 14.9659 29.0855 14.8915C29.0675 14.8171 29.0677 14.7466 29.0979 14.6821L29.0983 14.6811C29.1133 14.6381 29.1436 14.5959 29.1831 14.555C29.2225 14.5141 29.2706 14.4751 29.3202 14.4387C29.3647 14.4061 29.4103 14.3757 29.452 14.3479C29.4568 14.3447 29.4615 14.3416 29.4662 14.3385C29.5058 14.312 29.5415 14.2878 29.5678 14.2667C29.7414 14.5759 30.0973 14.5759 30.2421 14.5759H30.2443L30.2455 14.5756C30.3816 14.5443 30.495 14.5472 30.606 14.55C30.6136 14.5502 30.6211 14.5504 30.6286 14.5505C30.7469 14.5534 30.864 14.5534 31.0023 14.5078C31.2803 14.4222 31.5718 14.3993 31.8585 14.4407L31.8591 14.4408C31.9964 14.4521 32.155 14.4465 32.2796 14.4209C32.3418 14.4082 32.3963 14.3903 32.4356 14.3665C32.4748 14.3428 32.5009 14.3118 32.5009 14.2725C32.5009 14.2404 32.4857 14.2135 32.4579 14.1924C32.4304 14.1717 32.3905 14.1565 32.3399 14.1465C32.2385 14.1265 32.0902 14.1266 31.9007 14.1492L31.9002 14.1493C31.5644 14.2055 31.2086 14.2446 30.9371 14.2167C30.8013 14.2027 30.6879 14.172 30.6087 14.1193C30.5301 14.067 30.4849 13.993 30.4849 13.89C30.4849 13.7925 30.5276 13.7196 30.5968 13.6658C30.6665 13.6118 30.763 13.5771 30.8697 13.5576C31.0833 13.5185 31.3335 13.5409 31.4788 13.5854C31.6272 13.6308 31.7963 13.6477 31.9414 13.6477C32.005 13.6477 32.0641 13.6445 32.1149 13.6389C31.9579 13.6928 31.84 13.7186 31.7383 13.7273C31.6086 13.7384 31.5049 13.7218 31.3789 13.6993C31.2518 13.6766 31.0668 13.6709 30.9132 13.6965C30.8365 13.7092 30.7667 13.7299 30.7158 13.7608C30.6647 13.7918 30.6312 13.8342 30.6312 13.89C30.6312 13.9476 30.679 13.9911 30.7513 14.022C30.8243 14.0532 30.9267 14.0737 31.0454 14.0836C31.2828 14.1034 31.5885 14.0808 31.8626 14.013C32.1339 13.946 32.3412 13.9687 32.4801 14.0348C32.619 14.1009 32.6892 14.2101 32.6892 14.3175C32.6892 14.365 32.6681 14.4177 32.6312 14.4682C32.5944 14.5187 32.5423 14.5662 32.4817 14.6035C32.3602 14.6783 32.2068 14.7105 32.0748 14.6452L32.0632 14.6635C32.2342 14.8009 32.4476 14.8009 32.6562 14.8009H32.658L33.0378 14.7783L33.0388 14.778C33.0597 14.7724 33.0775 14.7683 33.0924 14.7667C33.1074 14.765 33.1184 14.7659 33.1265 14.7691C33.1407 14.7748 33.1511 14.7906 33.1512 14.8347C33.1493 14.8716 33.1564 14.9084 33.1718 14.9416C33.1829 14.9652 33.1979 14.9864 33.2161 15.0041H33.1071L33.1347 15.0238C33.1964 15.0679 33.2317 15.1114 33.2545 15.1628C33.2732 15.2053 33.2836 15.2535 33.2925 15.3129C33.2739 15.2925 33.2523 15.2751 33.2308 15.2617C33.1986 15.2416 33.165 15.2291 33.141 15.2291H33.1025L33.1353 15.2493C33.2051 15.292 33.2251 15.3503 33.238 15.4083C33.2399 15.4167 33.2416 15.4252 33.2434 15.4338C33.2476 15.4543 33.2517 15.4747 33.2577 15.4933C33.2622 15.5074 33.2679 15.521 33.2757 15.5334L33.1375 15.4911L33.1528 15.5157C33.1882 15.5726 33.1574 15.6725 33.0469 15.7191V15.6L33.0262 15.5954C33.0059 15.6387 32.9758 15.6763 32.9307 15.7031C32.8898 15.7275 32.8359 15.7434 32.7646 15.7462C32.765 15.7455 32.7653 15.7447 32.7656 15.744C32.7672 15.74 32.7687 15.7358 32.7703 15.7315C32.7733 15.7234 32.7765 15.7149 32.7807 15.7058C32.7933 15.679 32.8115 15.6559 32.847 15.6559V15.6341C32.8023 15.6341 32.753 15.652 32.7074 15.6808C32.6617 15.7095 32.6189 15.7497 32.5866 15.7956C32.5569 15.8272 32.5287 15.8362 32.5069 15.8339C32.4848 15.8315 32.4669 15.8173 32.4579 15.7979L32.4573 15.7967C32.4479 15.7817 32.4446 15.7671 32.4457 15.7534C32.4468 15.7397 32.4525 15.7261 32.462 15.7134C32.4759 15.6947 32.4978 15.6783 32.5242 15.6666C32.5349 15.663 32.5456 15.6592 32.5562 15.6554L32.5567 15.6552L32.5502 15.6345C32.5385 15.6376 32.5272 15.6416 32.5164 15.6463C32.4964 15.6531 32.4772 15.6589 32.4591 15.6624C32.431 15.6679 32.4078 15.6674 32.3902 15.6579C32.3734 15.6489 32.3648 15.6309 32.3669 15.6125C32.369 15.5945 32.3817 15.5752 32.4097 15.5652L32.4328 15.557L32.4112 15.5454C32.3919 15.5351 32.3806 15.5226 32.3745 15.5099C32.3684 15.4971 32.3672 15.4833 32.3695 15.4696C32.3741 15.4423 32.3926 15.4176 32.4101 15.4077C32.4283 15.403 32.4458 15.4042 32.4652 15.4088C32.4794 15.4121 32.4939 15.417 32.5105 15.4226C32.5179 15.425 32.5256 15.4277 32.5339 15.4303C32.5873 15.4475 32.657 15.4647 32.7636 15.4534H32.7638C32.7845 15.4534 32.8187 15.4534 32.8476 15.4348C32.878 15.4152 32.8999 15.3773 32.8999 15.3075C32.8999 15.2257 32.867 15.1487 32.7897 15.1013C32.7129 15.0543 32.5943 15.0378 32.425 15.0718C32.1216 15.1278 31.9025 15.1221 31.7333 15.0915C31.5788 15.0634 31.4656 15.0145 31.3669 14.9719C31.3576 14.9679 31.3484 14.9639 31.3393 14.96L31.3329 14.9573L31.3278 14.9619C31.2674 15.0158 31.2072 15.0267 31.1507 15.0294C31.1378 15.0301 31.125 15.0303 31.1125 15.0305L31.1089 15.0305C31.0952 15.0307 31.0816 15.031 31.0685 15.0319C31.0423 15.0337 31.0169 15.0381 30.9939 15.0504C30.9547 15.0714 30.9102 15.0716 30.8651 15.0716L30.8631 15.0716C30.8204 15.0716 30.7756 15.0716 30.7413 15.0957C30.7228 15.1054 30.7016 15.1082 30.6771 15.1075C30.6602 15.107 30.6427 15.105 30.624 15.1029C30.6149 15.1018 30.6056 15.1007 30.5958 15.0998C30.5373 15.0941 30.471 15.0938 30.4047 15.1411L30.4044 15.1414C30.369 15.1685 30.3379 15.1803 30.3101 15.1842C30.2821 15.1882 30.2568 15.1843 30.2323 15.1788C30.2263 15.1774 30.2203 15.1759 30.2142 15.1744C30.1962 15.17 30.178 15.1656 30.1607 15.1645C30.1365 15.1629 30.1127 15.1676 30.0892 15.1865C30.0478 15.2198 30.0121 15.2415 29.9742 15.2551C29.9364 15.2686 29.8957 15.2741 29.844 15.2741H29.8332V15.285C29.8332 15.3076 29.8331 15.329 29.8281 15.3531C29.8232 15.377 29.8132 15.4039 29.7929 15.4366C29.7056 15.5675 29.6196 15.6179 29.5599 15.6306C29.5683 15.618 29.5733 15.6031 29.5764 15.5881C29.5819 15.5617 29.5819 15.5327 29.5819 15.5104V15.51L29.5614 15.5049C29.5213 15.5801 29.4456 15.6239 29.3701 15.6546C29.34 15.6668 29.3104 15.6768 29.2833 15.6859C29.2765 15.6882 29.2698 15.6905 29.2633 15.6927C29.2419 15.7 29.2222 15.7071 29.2063 15.7148L29.221 15.5885C29.2236 15.5782 29.2249 15.567 29.2249 15.555L29.2032 15.5537L29.1996 15.5846C29.1959 15.5991 29.1893 15.611 29.1805 15.621C29.166 15.6374 29.1447 15.6494 29.1176 15.6578C29.0631 15.6748 28.9887 15.6763 28.9099 15.6735C28.8813 15.6725 28.852 15.6709 28.8231 15.6693C28.7734 15.6666 28.7248 15.6639 28.6823 15.6644C28.6486 15.6647 28.6178 15.667 28.5925 15.673C28.5843 15.6749 28.5766 15.6773 28.5694 15.6802C28.579 15.6687 28.5921 15.6567 28.6066 15.645C28.6375 15.6202 28.6736 15.5981 28.6942 15.5871L28.6858 15.5671C28.6184 15.5877 28.5603 15.5634 28.5008 15.5384C28.4993 15.5378 28.4978 15.5371 28.4963 15.5365C28.4475 15.516 28.3969 15.4956 28.3429 15.5086C28.354 15.4968 28.3666 15.4865 28.3803 15.4781C28.3975 15.4676 28.4161 15.4603 28.4355 15.4563C28.4432 15.4557 28.4514 15.4547 28.4599 15.4532L28.4574 15.4316C28.449 15.4321 28.4407 15.4332 28.4326 15.4348C28.4133 15.4361 28.397 15.4344 28.3825 15.4309C28.3623 15.4259 28.3449 15.4174 28.3267 15.4076C28.324 15.4062 28.3214 15.4048 28.3187 15.4033C28.2844 15.3847 28.2464 15.3641 28.185 15.3641C28.1561 15.3641 28.1392 15.3539 28.1313 15.3411C28.1232 15.3282 28.1225 15.3097 28.1319 15.2896C28.1399 15.2723 28.1611 15.2619 28.1922 15.2563C28.2226 15.2509 28.2583 15.2509 28.29 15.2509H28.3239L28.2963 15.2311C28.2619 15.2066 28.217 15.2009 28.1764 15.2038C28.1362 15.2067 28.0983 15.2181 28.0757 15.23C28.0504 15.2386 28.0242 15.2253 28.0105 15.2033C28.0037 15.1924 28.0006 15.1802 28.0022 15.1687C28.0037 15.1574 28.0098 15.146 28.0233 15.1363L28.0237 15.1361C28.0522 15.114 28.0855 15.1005 28.1204 15.0967C28.1308 15.0956 28.1412 15.0954 28.1516 15.096ZM32.7394 15.7474C32.7394 15.7474 32.7394 15.7474 32.7395 15.7474L32.7394 15.7474ZM28.8404 13.7979C28.8684 13.8051 28.9031 13.818 28.9451 13.8349L28.9519 13.8376V13.8731L28.9473 13.8763C28.9337 13.8861 28.9215 13.9026 28.9111 13.9239C28.9007 13.9452 28.8924 13.9704 28.886 13.9966C28.873 14.0492 28.8679 14.1046 28.8679 14.1375V14.1651L28.8491 14.1449C28.8276 14.1218 28.8008 14.0874 28.7793 14.0501C28.7582 14.0133 28.7414 13.9722 28.7412 13.9357C28.736 13.8965 28.7345 13.8658 28.7384 13.8432C28.7423 13.8199 28.7524 13.803 28.7717 13.7955C28.7896 13.7885 28.8128 13.7908 28.8404 13.7979ZM28.7598 13.8468C28.7565 13.8662 28.7576 13.8943 28.7628 13.9335L28.7629 13.9343V13.935C28.7629 13.9658 28.7775 14.0032 28.7982 14.0393C28.8131 14.0652 28.8307 14.0897 28.8471 14.1096C28.8491 14.0761 28.8546 14.033 28.8648 13.9915C28.8715 13.9643 28.8803 13.9375 28.8916 13.9144C28.9018 13.8934 28.9145 13.8749 28.9302 13.8621V13.8523C28.8913 13.8369 28.86 13.8254 28.8349 13.8189C28.808 13.812 28.7906 13.8114 28.7796 13.8157C28.77 13.8195 28.763 13.8279 28.7598 13.8468Z" fill="black"/>
<path d="M29.508 13.8675C29.676 13.7775 29.739 13.7775 29.697 13.935C29.697 14.0025 29.634 14.0925 29.592 14.1375C29.592 14.07 29.592 13.9125 29.508 13.8675Z" fill="#F9DD16"/>
<path fill-rule="evenodd" clip-rule="evenodd" d="M29.5293 13.8685C29.565 13.8965 29.5829 13.9446 29.5922 13.9919C29.6002 14.0331 29.6022 14.0757 29.6027 14.1087C29.6189 14.0889 29.6362 14.0648 29.6508 14.0393C29.6715 14.0032 29.6861 13.9658 29.6861 13.935V13.9336L29.6865 13.9322C29.6969 13.8931 29.7004 13.8653 29.698 13.8467C29.6969 13.8376 29.6944 13.8314 29.6913 13.8272C29.6883 13.8232 29.6842 13.8205 29.6784 13.8189C29.6661 13.8156 29.6465 13.8181 29.6179 13.8282C29.5935 13.8368 29.5641 13.8504 29.5293 13.8685ZM29.7079 13.9364C29.7182 13.8974 29.7225 13.8666 29.7196 13.844C29.7181 13.8324 29.7147 13.8222 29.7086 13.8141C29.7025 13.8059 29.6941 13.8006 29.6841 13.7979C29.6649 13.7928 29.6399 13.7974 29.6107 13.8077C29.581 13.8181 29.545 13.8353 29.5029 13.8579L29.485 13.8675L29.5029 13.8771C29.5403 13.8971 29.5604 13.9432 29.5708 13.9961C29.5811 14.0484 29.5811 14.1036 29.5811 14.1375V14.1651L29.5999 14.1449C29.6215 14.1218 29.6482 14.0874 29.6697 14.0501C29.6907 14.0135 29.7074 13.9727 29.7079 13.9364Z" fill="black"/>
<path d="M29.235 13.755C29.571 13.755 29.613 13.935 29.592 14.1375C29.592 14.3625 29.487 14.2725 29.424 14.5875C29.403 14.6775 29.319 14.7 29.214 14.7C29.151 14.7 29.067 14.7 29.025 14.565C28.962 14.2725 28.857 14.34 28.857 14.115C28.857 13.935 28.899 13.755 29.235 13.755Z" fill="#F9DD16"/>
<path fill-rule="evenodd" clip-rule="evenodd" d="M28.9286 13.8742C28.8785 13.9386 28.8679 14.0253 28.8679 14.115C28.8679 14.1704 28.8743 14.207 28.8846 14.2354C28.8949 14.2637 28.9092 14.2845 28.9262 14.3084C28.9271 14.3095 28.9279 14.3107 28.9288 14.3119C28.9452 14.3349 28.9637 14.3608 28.9819 14.3981C29.001 14.4373 29.0196 14.4886 29.0355 14.5622C29.0559 14.6273 29.0857 14.6581 29.1164 14.6734C29.148 14.6889 29.1822 14.6891 29.214 14.6891C29.266 14.6891 29.3114 14.6835 29.346 14.6676C29.3799 14.652 29.4037 14.6266 29.4134 14.5852C29.4293 14.5059 29.4479 14.4516 29.467 14.4113C29.4862 14.3708 29.5058 14.3448 29.523 14.3222L29.5234 14.3216C29.5404 14.2992 29.5544 14.2808 29.5645 14.2545C29.5747 14.228 29.5811 14.1929 29.5811 14.1375V14.1364L29.5812 14.1364C29.5916 14.0356 29.586 13.9435 29.5385 13.8766C29.4915 13.8104 29.4013 13.7658 29.235 13.7658C29.0688 13.7658 28.9782 13.8103 28.9286 13.8742ZM28.9114 13.8608C28.9668 13.7896 29.0652 13.7441 29.235 13.7441C29.4047 13.7441 29.5035 13.7896 29.5562 13.864C29.6084 13.9376 29.6133 14.0365 29.6029 14.138C29.6028 14.1948 29.5962 14.2326 29.5848 14.2623C29.5735 14.2915 29.5579 14.3121 29.5413 14.3339L29.5403 14.3353C29.5233 14.3577 29.5048 14.3823 29.4866 14.4206C29.4684 14.459 29.4503 14.5115 29.4347 14.5896L29.4346 14.5899L29.4346 14.5899C29.4233 14.6385 29.3946 14.6692 29.355 14.6874C29.3161 14.7052 29.267 14.7108 29.214 14.7108H29.2132C29.1821 14.7108 29.1432 14.7109 29.1068 14.6928C29.0694 14.6744 29.0363 14.6378 29.0146 14.5682L29.0143 14.5673L29.0144 14.5673C28.9988 14.4949 28.9807 14.4451 28.9624 14.4077C28.945 14.372 28.9274 14.3473 28.9109 14.3244C28.9101 14.3232 28.9093 14.3221 28.9085 14.321C28.8914 14.297 28.8756 14.2742 28.8642 14.2428C28.8528 14.2114 28.8461 14.1721 28.8461 14.115C28.8461 14.0246 28.8565 13.9314 28.9114 13.8608Z" fill="black"/>
<path d="M28.374 14.5875C28.29 14.5425 28.227 14.5875 28.185 14.5875C28.311 14.61 28.311 14.7675 28.563 14.8125C28.5 14.8125 28.479 14.8575 28.416 14.8125C28.521 14.9025 28.626 15.015 28.878 15.015C29.025 15.015 28.92 15.0825 28.836 15.0375C28.92 15.15 29.109 15.06 29.235 15.2625C29.235 15.105 29.025 14.88 29.13 14.7225C28.773 14.7 28.752 14.4975 28.563 14.34C28.395 14.205 28.374 14.07 28.311 13.8225C28.29 13.71 28.164 13.6425 28.101 13.665C28.038 13.665 27.996 13.7325 28.059 13.7775C28.101 13.8225 28.185 13.8225 28.185 13.935C28.122 13.845 28.017 13.8225 27.975 13.8675C27.954 13.9125 27.975 13.98 28.017 13.98C28.122 13.98 28.059 14.115 28.164 14.205C28.059 14.0925 27.975 14.07 27.912 14.1375C27.891 14.1825 27.912 14.25 27.996 14.25C28.101 14.25 28.206 14.52 28.374 14.5875ZM31.104 15.6225C31.062 15.6225 31.083 15.735 30.999 15.735C31.167 15.735 31.272 15.69 31.335 15.6225L31.293 15.735C31.377 15.6675 31.608 15.645 31.713 15.6675C31.818 15.69 31.839 15.645 31.881 15.5775C31.923 15.4875 31.881 15.4425 31.818 15.3975C31.755 15.33 31.734 15.24 31.755 15.105C31.461 14.655 30.915 14.88 30.915 15.06C31.104 15.3075 31.125 15.285 31.293 15.3075C31.44 15.3525 31.545 15.3525 31.44 15.4425C31.398 15.4875 31.23 15.4425 31.125 15.465C30.852 15.465 30.705 15.2625 30.642 15.375C30.579 15.465 30.642 15.51 30.768 15.51C30.684 15.51 30.558 15.51 30.579 15.6C30.621 15.7575 30.747 15.5775 30.81 15.6225C30.768 15.6225 30.684 15.645 30.684 15.69C30.684 15.735 30.789 15.8025 30.894 15.69C30.955 15.643 31.0289 15.6192 31.104 15.6225Z" fill="#F9DD16"/>
<path fill-rule="evenodd" clip-rule="evenodd" d="M28.3216 13.8201C28.327 13.8413 28.3321 13.8616 28.337 13.8812C28.3893 14.0907 28.4193 14.2106 28.5698 14.3315L28.57 14.3316C28.618 14.3717 28.6553 14.4145 28.6895 14.4561C28.6961 14.4642 28.7026 14.4722 28.7091 14.4801C28.736 14.5133 28.7619 14.545 28.7912 14.5742C28.8628 14.6454 28.9548 14.7006 29.1307 14.7116L29.1495 14.7128L29.139 14.7285C29.09 14.802 29.1136 14.8924 29.1532 14.9884C29.162 15.0098 29.1715 15.0312 29.181 15.0526C29.182 15.0549 29.183 15.0572 29.184 15.0595C29.1945 15.0832 29.2048 15.1067 29.2139 15.1298C29.2321 15.1758 29.2459 15.221 29.2459 15.2625V15.3005L29.2258 15.2682C29.1649 15.1705 29.0894 15.1434 29.0173 15.1268C29.0066 15.1244 28.9957 15.1221 28.9849 15.1199C28.9598 15.1146 28.9351 15.1095 28.9126 15.1019C28.8798 15.091 28.85 15.0745 28.8273 15.044L28.8411 15.0279C28.8603 15.0382 28.8808 15.0421 28.8987 15.0421C28.9168 15.0421 28.931 15.0381 28.9379 15.0338C28.9381 15.0337 28.9383 15.0336 28.9385 15.0335C28.9351 15.0319 28.9293 15.03 28.9201 15.0285C28.9098 15.0269 28.896 15.0259 28.878 15.0259C28.7502 15.0259 28.6591 14.9973 28.5866 14.957C28.5267 14.9237 28.4796 14.8824 28.4356 14.8439C28.4266 14.836 28.4177 14.8283 28.4089 14.8207L28.4223 14.8036C28.4371 14.8142 28.4488 14.819 28.4586 14.8208C28.4683 14.8225 28.4771 14.8214 28.4867 14.8189C28.4914 14.8176 28.4965 14.8159 28.5021 14.814C28.5044 14.8132 28.5068 14.8124 28.5092 14.8115C28.414 14.7853 28.3605 14.7411 28.319 14.6992C28.3105 14.6905 28.3026 14.6822 28.2951 14.6742C28.2812 14.6594 28.2685 14.6459 28.2547 14.634C28.2341 14.6163 28.2122 14.6034 28.1831 14.5982L28.185 14.5766C28.1939 14.5766 28.2044 14.5742 28.2176 14.5707C28.2197 14.5701 28.2218 14.5695 28.224 14.5689C28.2354 14.5658 28.2481 14.5624 28.2618 14.5599C28.2737 14.5578 28.2863 14.5564 28.2997 14.5566C28.2828 14.5438 28.2666 14.5293 28.2512 14.514C28.2155 14.4787 28.183 14.4381 28.1529 14.4002C28.1517 14.3987 28.1504 14.3972 28.1492 14.3956C28.1203 14.3592 28.0937 14.3258 28.0682 14.301C28.0413 14.275 28.0177 14.2609 27.996 14.2609C27.9508 14.2609 27.9206 14.2425 27.9052 14.2161C27.8902 14.1902 27.8903 14.1583 27.9021 14.1329L27.9029 14.1313L27.9041 14.1301C27.9208 14.1121 27.9395 14.0996 27.96 14.0933C27.9806 14.0871 28.0024 14.0872 28.0251 14.0932C28.0488 14.0996 28.0737 14.1125 28.0997 14.1317C28.0911 14.1097 28.0861 14.0882 28.0817 14.069C28.0811 14.0664 28.0805 14.0638 28.0799 14.0612C28.0746 14.0383 28.0697 14.0209 28.0608 14.009C28.0527 13.9982 28.0405 13.9909 28.017 13.9909C27.9892 13.9909 27.9707 13.9686 27.9621 13.9442C27.9534 13.9194 27.9533 13.8883 27.9651 13.8629L27.9659 13.8613L27.9671 13.8601C27.9919 13.8334 28.0337 13.8283 28.0751 13.8402C28.1078 13.8495 28.1418 13.8696 28.1707 13.9003C28.1685 13.8902 28.1654 13.8816 28.1616 13.8742C28.154 13.8596 28.1434 13.8488 28.1312 13.8396C28.1213 13.8322 28.1108 13.8261 28.0997 13.8197C28.0968 13.8181 28.0939 13.8164 28.0909 13.8146C28.0773 13.8067 28.0633 13.7978 28.0518 13.7857C28.0351 13.7735 28.0244 13.7593 28.0197 13.7442C28.0149 13.7287 28.0166 13.7133 28.0229 13.6998C28.0352 13.6735 28.0647 13.6548 28.0991 13.6541C28.1171 13.6482 28.1384 13.6487 28.1599 13.6537C28.1823 13.659 28.2058 13.6694 28.2278 13.6841C28.2715 13.7134 28.3104 13.7606 28.3216 13.8201ZM28.1325 14.1884C28.1395 14.1969 28.1476 14.2052 28.1569 14.2132L28.1719 14.1976C28.164 14.1891 28.1562 14.1811 28.1485 14.1736C28.1201 14.1385 28.111 14.0991 28.1027 14.0634C28.1022 14.061 28.1016 14.0586 28.1011 14.0563C28.0959 14.0341 28.0903 14.0122 28.0782 13.996C28.0653 13.9787 28.046 13.9691 28.017 13.9691C28.0028 13.9691 27.9898 13.9576 27.9826 13.937C27.9758 13.9174 27.9757 13.893 27.9841 13.8737C28.0015 13.8563 28.0327 13.8507 28.0691 13.8611C28.106 13.8716 28.1459 13.8982 28.1761 13.9412L28.1959 13.9695V13.935C28.1959 13.9055 28.1903 13.8826 28.1809 13.8643C28.1714 13.8459 28.1583 13.8328 28.1443 13.8222C28.1332 13.814 28.1212 13.807 28.11 13.8006C28.1072 13.799 28.1045 13.7974 28.1019 13.7959C28.0882 13.7879 28.0763 13.7801 28.0669 13.7701L28.0662 13.7693L28.0653 13.7686C28.0511 13.7585 28.0436 13.7476 28.0405 13.7377C28.0374 13.7278 28.0384 13.7179 28.0426 13.709C28.0511 13.6907 28.0732 13.6759 28.101 13.6759H28.1029L28.1047 13.6752C28.1178 13.6705 28.1352 13.6702 28.155 13.6749C28.1745 13.6795 28.1957 13.6887 28.2157 13.7021C28.2559 13.729 28.2905 13.7717 28.3003 13.8245L28.3005 13.8252C28.3059 13.8467 28.3111 13.8673 28.3161 13.8873C28.3681 14.0959 28.3998 14.2227 28.5561 14.3484C28.6025 14.3871 28.6387 14.4286 28.6727 14.4699C28.6792 14.4778 28.6855 14.4856 28.6919 14.4934C28.7189 14.5267 28.7457 14.5596 28.7758 14.5896C28.8487 14.6621 28.9418 14.7181 29.1116 14.7321C29.0685 14.8128 29.0962 14.9072 29.1331 14.9966C29.142 15.0184 29.1516 15.0401 29.1611 15.0614C29.1621 15.0637 29.1631 15.066 29.1642 15.0683C29.1746 15.092 29.1848 15.1152 29.1937 15.1378C29.2054 15.1675 29.2148 15.1956 29.2199 15.222C29.1593 15.1451 29.088 15.1208 29.0222 15.1056C29.0104 15.1029 28.999 15.1006 28.9879 15.0982C28.9635 15.0932 28.9407 15.0884 28.9195 15.0813C28.9047 15.0764 28.891 15.0703 28.8787 15.0625C28.8855 15.0634 28.8923 15.0638 28.8987 15.0638C28.9192 15.0638 28.9378 15.0594 28.9493 15.0524C28.9546 15.0491 28.9611 15.0437 28.9622 15.0355C28.9636 15.0259 28.9571 15.0192 28.9508 15.0155C28.9443 15.0116 28.9351 15.0089 28.9236 15.0071C28.9118 15.0052 28.8967 15.0041 28.878 15.0041C28.7538 15.0041 28.6664 14.9764 28.5972 14.938C28.5471 14.9102 28.5066 14.8768 28.468 14.8434C28.4766 14.8434 28.4846 14.8419 28.4923 14.8399C28.4993 14.838 28.5057 14.8358 28.512 14.8336C28.5272 14.8284 28.5421 14.8234 28.563 14.8234L28.5649 14.8018C28.4416 14.7798 28.3806 14.7305 28.3345 14.6839C28.3268 14.6762 28.3194 14.6683 28.3121 14.6605C28.2976 14.6451 28.2835 14.6302 28.2689 14.6176C28.2565 14.6069 28.2433 14.5976 28.2284 14.5903C28.2289 14.5901 28.2294 14.59 28.23 14.5898C28.2413 14.5868 28.253 14.5836 28.2657 14.5813C28.2902 14.5769 28.3177 14.5762 28.3486 14.5878C28.3556 14.5914 28.3627 14.5947 28.3699 14.5976L28.374 14.5875L28.3791 14.5779C28.3718 14.574 28.3645 14.5707 28.3575 14.5679C28.3252 14.5513 28.2951 14.5269 28.2665 14.4986C28.2319 14.4643 28.2001 14.4247 28.1699 14.3867C28.1685 14.385 28.1672 14.3832 28.1658 14.3815C28.1373 14.3456 28.1099 14.3112 28.0833 14.2854C28.0557 14.2587 28.0268 14.2391 27.996 14.2391C27.9572 14.2391 27.9349 14.2237 27.924 14.2051C27.9131 14.1865 27.9127 14.1629 27.9212 14.1436C27.9355 14.1286 27.9506 14.119 27.9664 14.1141C27.9825 14.1092 28.0001 14.1091 28.0194 14.1142C28.0525 14.1231 28.0902 14.1473 28.1325 14.1884ZM31.2233 14.8355C31.4002 14.8125 31.6145 14.8701 31.7641 15.099L31.7664 15.1025L31.7657 15.1067C31.7451 15.2392 31.7659 15.3252 31.8252 15.3893C31.8564 15.4117 31.8844 15.4354 31.8987 15.466C31.9136 15.4978 31.9128 15.535 31.8908 15.5821L31.8903 15.5833C31.8881 15.5868 31.8859 15.5902 31.8838 15.5937C31.8759 15.6065 31.8683 15.6187 31.8606 15.6295C31.8508 15.6433 31.8401 15.6557 31.8269 15.6651C31.7999 15.6844 31.7648 15.6897 31.7107 15.6781C31.6599 15.6672 31.5773 15.6671 31.4966 15.6783C31.4564 15.6838 31.417 15.6921 31.3826 15.7032C31.3481 15.7142 31.3193 15.7278 31.2998 15.7435L31.269 15.7682L31.309 15.6609C31.242 15.7134 31.1424 15.7459 30.999 15.7459V15.7241C31.0172 15.7241 31.0288 15.7182 31.0372 15.7097C31.046 15.7009 31.0519 15.6887 31.0571 15.6749C31.0588 15.6703 31.0604 15.6657 31.0619 15.6611C31.0627 15.6589 31.0634 15.6567 31.0642 15.6545C31.0665 15.6479 31.069 15.6412 31.072 15.6352C31.0722 15.6347 31.0725 15.6341 31.0728 15.6336C31.0114 15.6371 30.9518 15.6593 30.9013 15.6981C30.8469 15.7561 30.7909 15.769 30.7473 15.7597C30.7258 15.7551 30.7075 15.745 30.6946 15.7327C30.6818 15.7206 30.6731 15.7053 30.6731 15.69C30.6731 15.6822 30.6751 15.675 30.6783 15.6686C30.6594 15.6757 30.6393 15.6799 30.6206 15.674C30.5967 15.6663 30.5794 15.6436 30.5685 15.6028L30.5684 15.6025C30.5626 15.5774 30.5667 15.5569 30.5794 15.5412C30.5916 15.526 30.6105 15.5167 30.6311 15.5108C30.6402 15.5082 30.65 15.5062 30.6601 15.5046C30.6468 15.4993 30.6355 15.4925 30.6266 15.4841C30.6126 15.4707 30.6054 15.4536 30.6065 15.4334C30.6077 15.4139 30.6166 15.3924 30.6328 15.3692C30.6414 15.354 30.652 15.3432 30.6648 15.3368C30.6778 15.3304 30.692 15.329 30.7069 15.3308C30.7359 15.3342 30.7705 15.3499 30.8093 15.3679C30.8114 15.3689 30.8135 15.3699 30.8156 15.3709C30.8934 15.407 30.9941 15.4538 31.1239 15.4541C31.1709 15.4443 31.2296 15.4474 31.2829 15.4501C31.291 15.4505 31.2989 15.451 31.3066 15.4513C31.3368 15.4527 31.3643 15.4534 31.3867 15.451C31.4096 15.4486 31.4244 15.4433 31.4321 15.4351L31.4329 15.4342C31.4457 15.4232 31.455 15.4139 31.4613 15.4059C31.4677 15.3979 31.4705 15.3919 31.4713 15.3877C31.4721 15.3839 31.4714 15.3811 31.4695 15.3783C31.4673 15.3751 31.463 15.3715 31.4559 15.3677C31.4414 15.36 31.419 15.3532 31.3899 15.3454C31.3831 15.3436 31.3759 15.3417 31.3684 15.3397C31.3449 15.3336 31.3185 15.3266 31.2907 15.3181C31.2748 15.316 31.2602 15.3143 31.2465 15.3127C31.1894 15.306 31.1485 15.3013 31.1065 15.2776C31.0544 15.2482 31.0007 15.1901 30.9064 15.0666L30.9041 15.0637V15.06C30.9041 15.0097 30.9418 14.959 30.9986 14.9189C31.056 14.8784 31.1351 14.8469 31.2233 14.8355ZM30.768 15.4991V15.5209C30.7255 15.5209 30.6747 15.5209 30.6371 15.5317C30.6184 15.537 30.6045 15.5446 30.5963 15.5548C30.5887 15.5643 30.585 15.5775 30.5895 15.5974C30.5997 15.6352 30.6138 15.649 30.6273 15.6533C30.6418 15.6579 30.66 15.6533 30.6822 15.6435C30.6913 15.6395 30.7004 15.6349 30.7098 15.6302C30.7117 15.6293 30.7136 15.6283 30.7154 15.6274C30.7266 15.6218 30.7382 15.6162 30.7494 15.612C30.7713 15.6037 30.7958 15.599 30.8163 15.6136L30.8439 15.6334H30.81C30.7905 15.6334 30.7604 15.6387 30.7355 15.6494C30.7231 15.6547 30.7126 15.6611 30.7054 15.6682C30.6983 15.6752 30.6949 15.6824 30.6949 15.69C30.6949 15.6972 30.6993 15.7072 30.7095 15.7169C30.7195 15.7264 30.7341 15.7346 30.7519 15.7384C30.7869 15.7459 30.8357 15.7365 30.8861 15.6826L30.8867 15.6819L30.8874 15.6814C30.9503 15.6328 31.0268 15.6082 31.1045 15.6116L31.104 15.6225V15.6334C31.0999 15.6334 31.0961 15.6355 31.0914 15.6449C31.0891 15.6495 31.087 15.6551 31.0847 15.6617C31.0841 15.6636 31.0834 15.6656 31.0826 15.6677C31.081 15.6725 31.0793 15.6776 31.0774 15.6825C31.0725 15.6959 31.0659 15.7105 31.0553 15.7223C31.1886 15.7133 31.2739 15.672 31.3271 15.6151L31.3452 15.6263L31.3147 15.7078C31.3327 15.6981 31.3535 15.6896 31.376 15.6825C31.4118 15.671 31.4525 15.6624 31.4936 15.6567C31.5757 15.6454 31.6611 15.6452 31.7153 15.6569C31.7662 15.6678 31.7941 15.6618 31.8143 15.6474C31.8247 15.6399 31.8338 15.6298 31.8429 15.6169C31.8502 15.6067 31.8572 15.5953 31.865 15.5826C31.8671 15.5793 31.8692 15.5758 31.8714 15.5723C31.8912 15.5297 31.8904 15.4996 31.879 15.4752C31.8672 15.4499 31.8431 15.4288 31.8117 15.4063L31.8108 15.4057L31.8101 15.4049C31.7446 15.3348 31.7234 15.2421 31.7436 15.1075C31.5993 14.8893 31.3949 14.8351 31.2261 14.857C31.1411 14.8681 31.0654 14.8984 31.0112 14.9367C30.958 14.9742 30.9277 15.0176 30.9259 15.0564C31.0192 15.1783 31.07 15.232 31.1172 15.2586C31.1551 15.28 31.1907 15.2842 31.2471 15.2909C31.2614 15.2925 31.2771 15.2944 31.2944 15.2967L31.2953 15.2968L31.2962 15.2971C31.3238 15.3056 31.3499 15.3124 31.3736 15.3186C31.3812 15.3206 31.3885 15.3225 31.3956 15.3244C31.4242 15.3321 31.4491 15.3394 31.4661 15.3485C31.4747 15.3531 31.4823 15.3587 31.4873 15.3659C31.4926 15.3735 31.4945 15.3823 31.4927 15.3919C31.4909 15.4009 31.4858 15.4101 31.4784 15.4194C31.471 15.4288 31.4607 15.439 31.4475 15.4504C31.4341 15.4644 31.4124 15.4702 31.389 15.4726C31.3648 15.4752 31.3358 15.4744 31.3056 15.473C31.2976 15.4727 31.2896 15.4722 31.2815 15.4718C31.2273 15.469 31.1714 15.4662 31.1273 15.4756L31.1261 15.4759H31.125C30.9898 15.4759 30.885 15.4271 30.8071 15.3909C30.8048 15.3898 30.8025 15.3887 30.8002 15.3877C30.7602 15.3691 30.7292 15.3553 30.7044 15.3524C30.6924 15.351 30.6826 15.3523 30.6745 15.3563C30.6663 15.3603 30.6586 15.3677 30.6515 15.3803L30.6509 15.3813C30.6358 15.4029 30.6291 15.4206 30.6282 15.4347C30.6274 15.4483 30.632 15.4592 30.6416 15.4684C30.6516 15.4778 30.6673 15.4856 30.6889 15.491C30.7104 15.4964 30.7371 15.4991 30.768 15.4991Z" fill="black"/>
<path fill-rule="evenodd" clip-rule="evenodd" d="M29.4253 14.0281C29.4392 14.0329 29.4522 14.0366 29.466 14.0366V14.0584C29.4484 14.0584 29.4325 14.0536 29.4182 14.0486C29.4149 14.0475 29.4117 14.0463 29.4087 14.0452C29.3977 14.0413 29.3878 14.0377 29.3773 14.0357C29.3645 14.0332 29.3515 14.0332 29.337 14.0387C29.3267 14.0426 29.3152 14.0494 29.3023 14.0606C29.3062 14.0628 29.3104 14.0655 29.3144 14.0681C29.3147 14.0683 29.3151 14.0686 29.3154 14.0688C29.32 14.0718 29.3246 14.0747 29.3294 14.0773C29.339 14.0824 29.3485 14.0856 29.3586 14.0845C29.3684 14.0834 29.3806 14.0781 29.3951 14.0626L29.411 14.0774C29.394 14.0956 29.3773 14.1044 29.3609 14.1061C29.3447 14.1079 29.3306 14.1026 29.3192 14.0965C29.3135 14.0934 29.3082 14.09 29.3036 14.087C29.3033 14.0868 29.303 14.0867 29.3028 14.0865C29.2984 14.0836 29.2948 14.0813 29.2916 14.0796C29.2901 14.0788 29.2889 14.0782 29.2879 14.0778V14.1368C29.2919 14.1665 29.2966 14.1928 29.3008 14.2164C29.3021 14.2236 29.3033 14.2306 29.3045 14.2372C29.3094 14.2655 29.3129 14.29 29.3115 14.3098C29.31 14.3302 29.3031 14.3473 29.2859 14.3586C29.2697 14.3692 29.246 14.3734 29.214 14.3734C29.1872 14.3734 29.1668 14.3692 29.1533 14.3578C29.1391 14.346 29.1349 14.3286 29.1349 14.3091C29.1349 14.2896 29.1391 14.2654 29.1443 14.2371C29.1449 14.2336 29.1456 14.23 29.1463 14.2263C29.1511 14.2004 29.1566 14.1707 29.1612 14.1368V14.0778C29.1602 14.0782 29.159 14.0788 29.1575 14.0796C29.1543 14.0813 29.1507 14.0836 29.1463 14.0865C29.146 14.0867 29.1458 14.0868 29.1455 14.087C29.1409 14.09 29.1356 14.0934 29.1299 14.0965C29.1185 14.1026 29.1044 14.1079 29.0882 14.1061C29.0718 14.1044 29.0551 14.0956 29.0381 14.0774L29.054 14.0626C29.0685 14.0781 29.0807 14.0834 29.0905 14.0845C29.1005 14.0856 29.1101 14.0824 29.1197 14.0773C29.1245 14.0747 29.129 14.0718 29.1336 14.0688C29.134 14.0686 29.1343 14.0683 29.1347 14.0681C29.1386 14.0656 29.1427 14.0629 29.1466 14.0608C29.134 14.0504 29.1229 14.0447 29.1131 14.0417C29.0992 14.0375 29.0867 14.0386 29.0746 14.0412C29.0703 14.0422 29.0663 14.0432 29.0622 14.0443C29.0602 14.0448 29.0582 14.0453 29.0561 14.0458C29.05 14.0474 29.0435 14.0488 29.0369 14.0492C29.0301 14.0496 29.0231 14.049 29.016 14.0463C29.0089 14.0436 29.0023 14.0391 28.9961 14.0324L29.012 14.0176C29.0163 14.0222 29.0202 14.0247 29.0237 14.026C29.0273 14.0273 29.0311 14.0278 29.0355 14.0275C29.0401 14.0272 29.045 14.0262 29.0509 14.0247C29.0525 14.0243 29.0543 14.0239 29.0562 14.0234C29.0605 14.0222 29.0653 14.021 29.07 14.02C29.0841 14.017 29.1005 14.0153 29.1194 14.0209C29.1381 14.0265 29.1581 14.0391 29.18 14.0626L29.172 14.07H29.1829V14.1382L29.1828 14.1389C29.1782 14.1737 29.1725 14.2042 29.1677 14.2303C29.167 14.234 29.1663 14.2376 29.1657 14.2411C29.1604 14.2698 29.1567 14.292 29.1567 14.3091C29.1567 14.326 29.1603 14.3354 29.1672 14.3412C29.1746 14.3474 29.1884 14.3516 29.214 14.3516C29.2451 14.3516 29.2634 14.3474 29.274 14.3404C29.2837 14.3341 29.2887 14.3244 29.2898 14.3083C29.291 14.2915 29.288 14.2696 29.2831 14.2409C29.2819 14.2344 29.2807 14.2276 29.2794 14.2205C29.2752 14.1967 29.2703 14.1694 29.2663 14.1389L29.2662 14.1382V14.07H29.277L29.2691 14.0626C29.2908 14.0393 29.3105 14.0254 29.3293 14.0183C29.3483 14.0112 29.3655 14.0112 29.3815 14.0143C29.3938 14.0167 29.4058 14.0211 29.4169 14.0251C29.4198 14.0261 29.4226 14.0271 29.4253 14.0281ZM31.0388 14.9144C31.1467 14.8912 31.2543 14.9144 31.3402 14.9604L31.3299 14.9796C31.2478 14.9356 31.1454 14.9137 31.0433 14.9356L31.0388 14.9144ZM29.8043 15.1393C29.8016 15.081 29.8126 15.0118 29.8552 14.9204L29.8749 14.9296C29.8335 15.0182 29.8235 15.084 29.826 15.1382C29.8279 15.1794 29.837 15.2139 29.8459 15.2481C29.8489 15.2595 29.8519 15.2709 29.8546 15.2825L29.8335 15.2875C29.831 15.2769 29.8282 15.2661 29.8253 15.2551C29.8162 15.2204 29.8063 15.1829 29.8043 15.1393Z" fill="black"/>
<path d="M29.235 14.6325C29.319 14.6325 29.361 14.6325 29.361 14.4975C29.361 14.4525 29.424 14.43 29.382 14.34C29.424 14.43 29.235 14.43 29.235 14.385C29.235 14.43 29.025 14.43 29.067 14.34C29.046 14.43 29.109 14.4525 29.088 14.4975C29.088 14.6325 29.13 14.6325 29.235 14.6325Z" fill="#FF0016"/>
<path fill-rule="evenodd" clip-rule="evenodd" d="M29.2197 14.3909C29.2238 14.3879 29.2242 14.3858 29.2242 14.385H29.2459C29.2459 14.3863 29.2465 14.3884 29.2499 14.3912C29.2535 14.3941 29.2592 14.3969 29.2669 14.3992C29.2823 14.4036 29.3031 14.405 29.3228 14.4023C29.3428 14.3997 29.3597 14.3931 29.369 14.3837C29.3735 14.3792 29.3762 14.374 29.377 14.3682C29.3778 14.3622 29.3768 14.3544 29.3722 14.3446L29.3919 14.3354C29.4029 14.359 29.4073 14.3788 29.4073 14.3962C29.4073 14.4137 29.4028 14.4279 29.3971 14.4402C29.3943 14.4463 29.3911 14.4519 29.3881 14.4571C29.3874 14.4584 29.3867 14.4596 29.3859 14.4608C29.3837 14.4646 29.3817 14.4681 29.3798 14.4717C29.3749 14.4809 29.3719 14.4889 29.3719 14.4975C29.3719 14.5649 29.3617 14.6037 29.3363 14.6241C29.3237 14.6343 29.3083 14.6389 29.2916 14.6411C29.2751 14.6434 29.2561 14.6434 29.2356 14.6434H29.2345C29.2087 14.6434 29.1859 14.6434 29.1665 14.6412C29.1471 14.639 29.1298 14.6344 29.1158 14.6245C29.0873 14.6041 29.0772 14.5649 29.0772 14.4975V14.4951L29.0782 14.4929C29.0853 14.4775 29.0802 14.4667 29.0707 14.4466C29.0697 14.4446 29.0687 14.4425 29.0677 14.4402C29.0596 14.4229 29.0513 14.4019 29.0518 14.3731C29.0517 14.3727 29.0516 14.3722 29.0515 14.3718C29.0492 14.3604 29.0512 14.3482 29.0572 14.3354L29.0776 14.3425C29.0752 14.3527 29.074 14.362 29.0736 14.3704C29.0752 14.375 29.0782 14.3792 29.0827 14.3831C29.094 14.393 29.1138 14.3996 29.1366 14.4023C29.1591 14.405 29.1826 14.4036 29.2001 14.3991C29.209 14.3968 29.2155 14.3939 29.2197 14.3909ZM29.3856 14.3978C29.3852 14.3982 29.3849 14.3986 29.3845 14.399C29.3702 14.4134 29.3477 14.4209 29.3257 14.4239C29.3034 14.4269 29.2796 14.4254 29.2609 14.42C29.2516 14.4173 29.2428 14.4135 29.2362 14.4081C29.2357 14.4077 29.2352 14.4072 29.2346 14.4068C29.2339 14.4073 29.2332 14.4079 29.2325 14.4084C29.2253 14.4137 29.2158 14.4175 29.2056 14.4201C29.1851 14.4254 29.1587 14.4268 29.134 14.4239C29.1139 14.4215 29.0935 14.4161 29.0778 14.4064C29.0804 14.4155 29.0839 14.4235 29.0874 14.431C29.0884 14.4332 29.0895 14.4354 29.0905 14.4376C29.0994 14.4558 29.109 14.4757 29.0989 14.4998C29.0991 14.5658 29.1099 14.5935 29.1285 14.6068C29.1381 14.6136 29.1511 14.6176 29.169 14.6196C29.1869 14.6216 29.2086 14.6216 29.235 14.6216C29.2562 14.6216 29.2738 14.6216 29.2887 14.6196C29.3034 14.6176 29.3144 14.6138 29.3227 14.6071C29.3393 14.5938 29.3502 14.565 29.3502 14.4975C29.3502 14.4836 29.3551 14.4719 29.3606 14.4614C29.3627 14.4575 29.3651 14.4535 29.3673 14.4496C29.368 14.4484 29.3687 14.4473 29.3693 14.4462C29.3722 14.4411 29.375 14.4362 29.3774 14.431C29.382 14.4212 29.3853 14.4106 29.3856 14.3978Z" fill="black"/>
<path d="M29.13 14.3625L28.92 14.295L29.13 14.3625ZM29.13 14.3625H28.92H29.13ZM29.13 14.385L28.941 14.4525L29.13 14.385ZM29.298 14.3625L29.508 14.295L29.298 14.3625ZM29.298 14.3625H29.55H29.298ZM29.298 14.385L29.508 14.4525L29.298 14.385Z" fill="black"/>
<path fill-rule="evenodd" clip-rule="evenodd" d="M28.9233 14.2846L29.1333 14.3521L29.13 14.3625V14.3734H28.92V14.3516H29.0607L28.9167 14.3053L28.9233 14.2846ZM29.3673 14.3516L29.5113 14.3053L29.5047 14.2846L29.2947 14.3521L29.298 14.3625V14.3734H29.55V14.3516H29.3673ZM29.5047 14.4628L29.2947 14.3953L29.3013 14.3746L29.5113 14.4421L29.5047 14.4628ZM28.9374 14.4422L29.1264 14.3747L29.1337 14.3952L28.9447 14.4627L28.9374 14.4422Z" fill="black"/>
<path d="M27.45 13.8H27.6H27.45ZM27.45 13.95H27.15H27.45ZM27.45 14.25H27.15H27.3H27.45ZM27.45 15.15C27.45 15 27.3 15.15 27.3 15.15H27.45ZM27.45 15.15C27.45 15.15 27.3 15.45 27.45 15.45V15.3V15.15ZM30 15.6C30 15.6 29.7 15.75 29.85 15.9V15.6H30ZM30 15.75V16.05V15.9V15.75ZM30 15.45L29.85 15.6H30V15.45ZM31.65 15.75V15.9V15.75ZM31.65 15.6C31.5 15.6 31.65 15.6 31.65 15.6V15.6ZM31.65 15.9V16.05H31.8V15.9H31.65ZM28.65 14.7V15.15V14.7Z" fill="#0051BA"/>
</g>
<defs>
<clipPath id="clip0_264_19568">
<rect width="60" height="45" fill="white"/>
</clipPath>
</defs>
</svg>
