<svg width="60" height="45" viewBox="0 0 60 45" fill="none" xmlns="http://www.w3.org/2000/svg">
<g clip-path="url(#clip0_264_19949)">
<path fill-rule="evenodd" clip-rule="evenodd" d="M0 0H60V45H0V0Z" fill="#00ABC2"/>
<path fill-rule="evenodd" clip-rule="evenodd" d="M5.64375 43.7812C5.95312 44.0812 5.85 44.5781 6.70312 44.5125C7.99687 44.5125 8.03437 43.725 8.03437 43.1719C8.03437 42.6187 6.09375 41.85 6 41.0344C5.90625 40.2187 6.45 40.0031 6.9 40.0031C7.34062 40.0031 7.65 40.2562 7.65 40.4812C7.65 40.7062 7.44375 40.7812 7.125 40.7812C6.80625 40.7812 7.26562 40.6219 6.99375 40.5C6.72187 40.3781 6.54375 40.6875 6.54375 40.875C6.54375 41.0812 7.21875 41.1375 7.66875 40.9969C7.7625 41.4375 7.8 41.4656 7.17187 42.2156C7.62187 41.925 7.65937 41.8594 8.15625 42.0281C7.65937 41.5969 8.03437 40.7344 8.04375 40.5187C8.05312 40.3031 7.95 40.0406 7.7625 39.9094C7.39687 39.5812 6.61875 39.5625 6.15 39.7781C5.46562 40.0781 5.42812 40.9781 5.60625 41.2781L7.5 43.1906C7.63125 43.4156 7.6875 44.0531 6.88125 44.0812C6.0375 44.1469 5.7375 42.9937 5.5875 42.6094C5.39062 43.0312 5.16562 44.1844 4.3125 44.1187C3.50625 44.0906 3.35625 43.4625 3.4875 43.2281L5.42812 41.2594C5.61562 40.9594 5.57812 40.0594 4.89375 39.7594C4.425 39.5437 3.64687 39.5719 3.29062 39.8906C3.08437 40.0219 2.97187 40.275 2.99062 40.5C3.00937 40.725 3.375 41.5781 2.8875 42C3.375 41.8406 3.42187 41.9062 3.87187 42.1875C3.24375 41.4469 3.29062 41.4187 3.375 40.9687C3.825 41.1187 4.5 41.0625 4.5 40.8656C4.5 40.6687 4.3125 40.3406 4.04062 40.4719C3.77812 40.6031 4.22812 40.7625 3.90937 40.7625C3.6 40.7625 3.375 40.6969 3.375 40.4812C3.375 40.2656 3.68437 39.9844 4.13437 39.9844C4.58437 39.9844 5.11875 40.2094 5.025 41.025C4.93125 41.8406 2.9625 42.7219 2.9625 43.275C2.9625 43.8375 3.09375 44.5031 4.3875 44.5031C5.23125 44.5687 5.33437 44.0719 5.64375 43.7719V43.7812Z" fill="#FFEC2D"/>
<path fill-rule="evenodd" clip-rule="evenodd" d="M5.54063 32.1844C5.85 31.8844 6.10313 31.0031 6.94688 31.0594C8.24063 31.0594 8.72813 31.7812 8.72813 32.3344C8.72813 32.8875 6.10313 37.3969 6.00938 38.2125C5.91563 39.0281 6.45938 39.2531 6.9 39.2531C7.35 39.2531 7.65938 39 7.65938 38.7656C7.65938 38.5312 7.43438 38.4844 7.125 38.4844C6.81563 38.4844 7.25625 38.6437 6.99375 38.7656C6.73125 38.8875 6.54375 38.5781 6.54375 38.3812C6.54375 38.1844 7.21875 38.1187 7.66875 38.2687C7.75313 37.8281 7.79063 37.8 7.17188 37.05C7.62188 37.3312 7.65938 37.4062 8.15625 37.2375C7.65938 37.6687 8.025 38.5219 8.04375 38.7375C8.0625 38.9531 7.95 39.225 7.75313 39.3562C7.39688 39.6844 6.60938 39.6937 6.14063 39.4875C5.46563 39.1781 5.42813 38.2875 5.60625 37.9875L8.15625 32.4937C8.29688 32.2687 7.94063 31.5187 7.13438 31.4906C6.29063 31.425 6 32.3156 5.85 32.7L7.00313 32.6062C7.00313 32.6062 7.05 32.7937 7.00313 32.9062C6.61624 32.9345 6.23125 32.9846 5.85 33.0562L5.80313 33.6375H6.36563L6.32813 33.9C6.32813 33.9 5.85 33.8625 5.80313 33.9C5.75625 33.9281 5.70938 34.4812 5.70938 34.4812C5.70938 34.4812 5.61563 34.5187 5.52188 34.5187C5.42813 34.5187 5.33438 34.4812 5.33438 34.4812C5.33438 34.4812 5.29688 33.9281 5.25 33.9C5.20313 33.8625 4.725 33.9 4.725 33.9L4.67813 33.6375H5.25L5.20313 33.0562C5.20313 33.0562 4.64063 32.9437 4.05 32.9062C4.0125 32.7937 4.05 32.6156 4.05 32.6156L5.20313 32.7C5.05313 32.3156 4.7625 31.425 3.91875 31.4812C3.1125 31.5187 2.75625 32.2687 2.8875 32.4937L5.4375 37.9875C5.61563 38.2781 5.57813 39.1781 4.90313 39.4875C4.43438 39.6937 3.64688 39.675 3.29063 39.3562C3.09375 39.225 2.98125 38.9625 3 38.7469C3.01875 38.5312 3.375 37.6594 2.8875 37.2469C3.38438 37.4062 3.43125 37.3406 3.87188 37.05C3.25313 37.8 3.29063 37.8281 3.38438 38.2687C3.825 38.1187 4.5 38.175 4.5 38.3812C4.5 38.5687 4.3125 38.8969 4.05 38.7656C3.7875 38.6344 4.2375 38.4844 3.91875 38.4844C3.60938 38.4844 3.38438 38.5406 3.38438 38.7656C3.38438 38.9906 3.69375 39.2531 4.13438 39.2531C4.575 39.2531 5.11875 39.0281 5.03438 38.2219C4.94063 37.4062 2.31563 32.8781 2.31563 32.3344C2.31563 31.7719 2.80313 31.0687 4.09688 31.0687C4.94063 31.0031 5.25 31.8844 5.55 32.1844H5.54063Z" fill="#FFEC2D"/>
<path fill-rule="evenodd" clip-rule="evenodd" d="M5.54063 29.9437C5.85 30.2437 6.10313 31.125 6.94688 31.0687C8.24063 31.0687 8.72813 30.3469 8.72813 29.7937C8.72813 29.2406 6.10313 24.7312 6.00938 23.9156C5.91563 23.1 6.45938 22.875 6.9 22.875C7.35 22.875 7.65938 23.1281 7.65938 23.3625C7.65938 23.5969 7.43438 23.6437 7.125 23.6437C6.81563 23.6437 7.25625 23.4937 6.99375 23.3625C6.73125 23.2312 6.54375 23.55 6.54375 23.7469C6.54375 23.9437 7.21875 24.0094 7.66875 23.8594C7.75313 24.3 7.79063 24.3281 7.17188 25.0781C7.62188 24.7969 7.65938 24.7219 8.15625 24.8906C7.65938 24.4594 8.025 23.6062 8.04375 23.3906C8.0625 23.175 7.95 22.9031 7.75313 22.7719C7.39688 22.4531 6.60938 22.4344 6.14063 22.6406C5.46563 22.95 5.42813 23.8406 5.60625 24.1406L8.15625 29.625C8.29688 29.85 7.94063 30.6 7.13438 30.6281C6.29063 30.6937 6 29.8031 5.85 29.4187L7.00313 29.5125C7.00313 29.5125 7.05 29.325 7.00313 29.2125C6.61624 29.1842 6.23125 29.1341 5.85 29.0625L5.80313 28.4812H6.36563L6.32813 28.2187C6.32813 28.2187 5.85 28.2562 5.80313 28.2187C5.75625 28.1906 5.70938 27.6375 5.70938 27.6375C5.70938 27.6375 5.61563 27.6 5.52188 27.6C5.42813 27.6 5.33438 27.6375 5.33438 27.6375C5.33438 27.6375 5.29688 28.1906 5.25 28.2187C5.20313 28.2562 4.725 28.2187 4.725 28.2187L4.67813 28.4812H5.25L5.20313 29.0625C5.20313 29.0625 4.64063 29.175 4.05 29.2125C4.0125 29.325 4.05 29.5031 4.05 29.5031L5.20313 29.4187C5.05313 29.8031 4.7625 30.6937 3.91875 30.6375C3.1125 30.6 2.75625 29.85 2.8875 29.625L5.4375 24.1406C5.61563 23.8406 5.57813 22.95 4.90313 22.6406C4.43438 22.4344 3.64688 22.4531 3.29063 22.7719C3.09375 22.9031 2.98125 23.1656 3 23.3812C3.01875 23.5969 3.375 24.4594 2.8875 24.8812C3.38438 24.7219 3.43125 24.7875 3.87188 25.0781C3.25313 24.3281 3.29063 24.3 3.38438 23.8594C3.825 24.0094 4.5 23.9531 4.5 23.7469C4.5 23.5594 4.3125 23.2312 4.05 23.3625C3.7875 23.4937 4.2375 23.6437 3.91875 23.6437C3.60938 23.6437 3.38438 23.5875 3.38438 23.3625C3.38438 23.1375 3.69375 22.875 4.13438 22.875C4.575 22.875 5.11875 23.1 5.03438 23.9062C4.94063 24.7219 2.31563 29.25 2.31563 29.7937C2.31563 30.3562 2.80313 31.0594 4.09688 31.0594C4.94063 31.125 5.25 30.2437 5.55 29.9437H5.54063Z" fill="#FFEC2D"/>
<path fill-rule="evenodd" clip-rule="evenodd" d="M5.54063 15.0563C5.85 14.7563 6.10313 13.875 6.94688 13.9313C8.24063 13.9313 8.72813 14.6531 8.72813 15.2063C8.72813 15.7594 6.10313 20.2688 6.00938 21.0938C5.91563 21.9 6.45938 22.125 6.9 22.125C7.35 22.125 7.65938 21.8719 7.65938 21.6469C7.65938 21.4219 7.43438 21.3469 7.125 21.3469C6.81563 21.3469 7.25625 21.5156 6.99375 21.6469C6.73125 21.7781 6.54375 21.45 6.54375 21.2531C6.54375 21.0656 7.21875 20.9906 7.66875 21.1406C7.75313 20.7 7.79063 20.6719 7.17188 19.9219C7.62188 20.2125 7.65938 20.2781 8.15625 20.1094C7.65938 20.5406 8.025 21.4031 8.04375 21.6094C8.0625 21.8156 7.95 22.0969 7.75313 22.2281C7.39688 22.5563 6.60938 22.5656 6.14063 22.3594C5.46563 22.05 5.42813 21.1594 5.60625 20.8594L8.15625 15.375C8.29688 15.15 7.94063 14.4 7.13438 14.3719C6.29063 14.3063 6 15.1969 5.85 15.5813L7.00313 15.4875C7.00313 15.4875 7.05 15.675 7.00313 15.7875C6.40313 15.825 5.85 15.9375 5.85 15.9375L5.80313 16.5188H6.36563L6.32813 16.7813C6.32813 16.7813 5.85 16.7531 5.80313 16.7813C5.75625 16.8094 5.70938 17.3719 5.70938 17.3719C5.70938 17.3719 5.61563 17.4 5.52188 17.4C5.42813 17.4 5.33438 17.3719 5.33438 17.3719C5.33438 17.3719 5.29688 16.8094 5.25 16.7813C5.20313 16.7531 4.725 16.7813 4.725 16.7813L4.67813 16.5188H5.25L5.20313 15.9375C5.20313 15.9375 4.64063 15.825 4.05 15.7875C4.0125 15.675 4.05 15.4969 4.05 15.4969L5.20313 15.5813C5.05313 15.1969 4.7625 14.3063 3.91875 14.3625C3.1125 14.4 2.75625 15.15 2.8875 15.375L5.4375 20.8594C5.61563 21.1594 5.57813 22.05 4.90313 22.3594C4.43438 22.5656 3.64688 22.5469 3.29063 22.2281C3.09375 22.0969 2.98125 21.8344 3 21.6188C3.01875 21.4031 3.375 20.5406 2.8875 20.1188C3.38438 20.2781 3.43125 20.2125 3.87188 19.9219C3.25313 20.6719 3.29063 20.7 3.38438 21.1406C3.825 20.9906 4.5 21.0563 4.5 21.2531C4.5 21.4406 4.3125 21.7688 4.05 21.6375C3.7875 21.5156 4.2375 21.3563 3.91875 21.3563C3.60938 21.3563 3.38438 21.4125 3.38438 21.6375C3.38438 21.8625 3.69375 22.125 4.13438 22.125C4.575 22.125 5.11875 21.9 5.03438 21.0938C4.94063 20.2781 2.31563 15.7594 2.31563 15.2063C2.31563 14.6531 2.80313 13.9406 4.09688 13.9406C4.94063 13.875 5.25 14.7563 5.55 15.0656L5.54063 15.0563Z" fill="#FFEC2D"/>
<path fill-rule="evenodd" clip-rule="evenodd" d="M5.54063 12.8156C5.85 13.1156 6.10313 14.0062 6.94688 13.9406C8.24063 13.9406 8.72813 13.2187 8.72813 12.6656C8.72813 12.1125 6.10313 7.60312 6.00938 6.78749C5.91563 5.97187 6.45938 5.74687 6.9 5.74687C7.35 5.74687 7.65938 6.00937 7.65938 6.23437C7.65938 6.45937 7.43438 6.52499 7.125 6.52499C6.81563 6.52499 7.25625 6.36562 6.99375 6.23437C6.73125 6.10312 6.54375 6.42187 6.54375 6.61874C6.54375 6.81562 7.21875 6.88124 7.66875 6.73124C7.75313 7.17187 7.79063 7.19999 7.17188 7.94999C7.62188 7.66874 7.65938 7.59374 8.15625 7.76249C7.65938 7.34062 8.025 6.47812 8.04375 6.26249C8.0625 6.04687 7.95 5.77499 7.75313 5.64374C7.39688 5.32499 6.60938 5.30624 6.14063 5.52187C5.46563 5.82187 5.42813 6.72187 5.60625 7.01249L8.15625 12.5062C8.29688 12.7312 7.94063 13.4812 7.13438 13.5187C6.29063 13.575 6 12.6937 5.85 12.3L7.00313 12.3937C7.00313 12.3937 7.05 12.2062 7.00313 12.0937C6.61644 12.0683 6.23147 12.0213 5.85 11.9531L5.80313 11.3625H6.36563L6.32813 11.1C6.32813 11.1 5.85 11.1375 5.80313 11.1C5.75625 11.0719 5.70938 10.5187 5.70938 10.5187C5.70938 10.5187 5.61563 10.4812 5.52188 10.4812C5.42813 10.4812 5.33438 10.5187 5.33438 10.5187C5.33438 10.5187 5.29688 11.0719 5.25 11.1C5.20313 11.1375 4.725 11.1 4.725 11.1L4.67813 11.3625H5.25L5.20313 11.9531C5.20313 11.9531 4.64063 12.0562 4.05 12.0937C4.0125 12.2156 4.05 12.3937 4.05 12.3937L5.20313 12.3C5.05313 12.6937 4.7625 13.575 3.91875 13.5187C3.1125 13.4812 2.75625 12.7312 2.8875 12.5062L5.4375 7.01249C5.61563 6.72187 5.57813 5.82187 4.90313 5.51249C4.43438 5.30624 3.64688 5.32499 3.29063 5.64374C3.09375 5.77499 2.98125 6.03749 3 6.25312C3.01875 6.46874 3.375 7.34062 2.8875 7.75312C3.38438 7.59374 3.43125 7.65937 3.87188 7.94999C3.25313 7.19999 3.29063 7.17187 3.38438 6.73124C3.83438 6.88124 4.5 6.82499 4.5 6.61874C4.5 6.43124 4.3125 6.10312 4.05 6.23437C3.7875 6.36562 4.2375 6.52499 3.91875 6.52499C3.60938 6.52499 3.38438 6.45937 3.38438 6.23437C3.38438 6.00937 3.69375 5.74687 4.13438 5.74687C4.575 5.74687 5.12813 5.97187 5.03438 6.77812C4.94063 7.59374 2.31563 12.1219 2.31563 12.6656C2.31563 13.2281 2.80313 13.9406 4.09688 13.9406C4.94063 14.0062 5.25 13.1156 5.55 12.8156H5.54063Z" fill="#FFEC2D"/>
<path fill-rule="evenodd" clip-rule="evenodd" d="M5.64375 1.21875C5.95312 0.918751 5.85 0.421875 6.70312 0.4875C7.99687 0.4875 8.03437 1.275 8.03437 1.82813C8.03437 2.38125 6.09375 3.15 6 3.96563C5.90625 4.78125 6.45 4.99688 6.9 4.99688C7.34062 4.99688 7.65 4.74375 7.65 4.51875C7.65 4.29375 7.44375 4.21875 7.125 4.21875C6.80625 4.21875 7.26562 4.37813 6.99375 4.5C6.72187 4.62188 6.54375 4.3125 6.54375 4.125C6.54375 3.91875 7.21875 3.85313 7.66875 4.00313C7.7625 3.5625 7.8 3.53438 7.17187 2.78438C7.62187 3.075 7.65937 3.14063 8.15625 2.97188C7.65937 3.40313 8.03437 4.26563 8.04375 4.48125C8.05312 4.69688 7.95 4.95938 7.7625 5.09063C7.3875 5.4375 6.60937 5.4375 6.14062 5.23125C5.45625 4.93125 5.41875 4.03125 5.59687 3.73125L7.5 1.80938C7.63125 1.58438 7.6875 0.946876 6.88125 0.918751C6.0375 0.853126 5.7375 2.00625 5.5875 2.39063C5.39062 1.96875 5.16562 0.806251 4.3125 0.871876C3.50625 0.900001 3.35625 1.52813 3.4875 1.7625L5.42812 3.73125C5.61562 4.03125 5.57812 4.93125 4.89375 5.23125C4.425 5.44688 3.64687 5.42813 3.29062 5.1C3.08437 4.96875 2.97187 4.71563 2.99062 4.49063C3.00937 4.26563 3.375 3.4125 2.8875 2.99063C3.375 3.15 3.42187 3.08438 3.8625 2.80313C3.24375 3.54375 3.29062 3.57188 3.375 4.02188C3.825 3.87188 4.5 3.92813 4.5 4.125C4.5 4.32188 4.3125 4.65 4.04062 4.51875C3.77812 4.3875 4.22812 4.22813 3.90937 4.22813C3.6 4.22813 3.375 4.29375 3.375 4.50938C3.375 4.725 3.68437 5.00625 4.13437 5.00625C4.58437 5.00625 5.11875 4.78125 5.025 3.96563C4.93125 3.15 2.9625 2.26875 2.9625 1.71563C2.9625 1.15313 3.09375 0.4875 4.3875 0.4875C5.23125 0.421875 5.33437 0.918751 5.64375 1.21875Z" fill="#FFEC2D"/>
<path d="M41.3923 19.3041C41.3923 14.8473 37.58 11.2343 32.8772 11.2343C28.1745 11.2343 24.3622 14.8473 24.3622 19.3041C24.3622 23.7609 28.1745 27.3739 32.8772 27.3739C37.58 27.3739 41.3923 23.7609 41.3923 19.3041Z" fill="#FFEC2D"/>
<path fill-rule="evenodd" clip-rule="evenodd" d="M32.477 6.42147C32.3969 6.42147 32.0167 9.10307 31.8766 9.70342C31.7365 11.0542 33.6777 11.0042 33.3575 9.65339L32.477 6.41147V6.42147ZM33.1574 32.4169C33.2274 32.4169 33.8078 29.7653 33.9979 29.175C34.228 27.8442 32.2869 27.7741 32.497 29.135L33.1574 32.4169ZM19.5893 19.2491C19.5893 19.3191 22.381 19.8795 23.0014 20.0596C24.4022 20.2897 24.5023 18.4586 23.0614 18.6587L19.5893 19.2591V19.2491ZM46.7755 19.5693C46.7755 19.4992 43.9538 19.039 43.3234 18.8789C41.9126 18.7088 41.9026 20.5399 43.3234 20.2897L46.7755 19.5693ZM22.451 10.744C22.401 10.7941 24.2421 12.8753 24.6123 13.3856C25.5729 14.3862 26.8436 12.9854 25.5729 12.305L22.451 10.754V10.744ZM43.5736 27.8542C43.6236 27.8042 41.6024 25.883 41.1822 25.4127C40.1315 24.4922 39.0009 25.9831 40.3216 26.5634L43.5736 27.8642V27.8542ZM26.6635 7.84232C26.6035 7.87234 27.464 10.4539 27.6041 11.0642C28.0844 12.335 29.8254 11.5045 28.9249 10.4138L26.6735 7.84232H26.6635ZM38.9808 31.0961C39.0509 31.0661 38.3805 28.4345 38.2904 27.8242C37.9002 26.5234 36.1091 27.2238 36.9196 28.3845L38.9908 31.0861L38.9808 31.0961ZM42.0126 9.64339C41.9526 9.59336 39.7313 11.3044 39.191 11.6446C38.1203 12.5451 39.5712 13.7658 40.3116 12.5751L42.0126 9.64339ZM23.7018 29.0249C23.7518 29.0749 26.1032 27.524 26.6635 27.2138C27.7942 26.3933 26.4434 25.0725 25.6129 26.2132L23.7118 29.0249H23.7018ZM20.1997 14.6063C20.1697 14.6664 22.6011 16.0772 23.1314 16.4474C24.3822 17.0978 25.1126 15.3968 23.6818 15.1266L20.1997 14.6063ZM45.5848 24.4522C45.6148 24.3921 43.2834 22.8212 42.7831 22.421C41.5824 21.6805 40.7319 23.3315 42.1427 23.6917L45.5848 24.4522ZM37.52 7.15191C37.4499 7.1319 36.0591 9.4933 35.6889 10.0036C35.6896 10.1666 35.7413 10.3252 35.8367 10.4573C35.9321 10.5894 36.0665 10.6883 36.221 10.7402C36.3754 10.7921 36.5423 10.7943 36.6981 10.7465C36.8539 10.6987 36.9908 10.6034 37.0897 10.4739L37.52 7.15191ZM28.1244 31.5964C28.1944 31.6264 29.7554 29.3551 30.1556 28.8648C30.886 27.7041 29.115 26.9637 28.7848 28.3045L28.1244 31.5964ZM20.3698 24.6623C20.3998 24.7223 23.1715 24.0619 23.8219 23.9619C25.1827 23.5817 24.4222 21.9007 23.2215 22.6811L20.3698 24.6623ZM45.5948 14.3862C45.5748 14.3262 42.7631 14.7964 42.1127 14.8565C40.7119 15.1467 41.3623 16.8777 42.613 16.1773L45.5948 14.3862Z" fill="#FFEC2D"/>
<path fill-rule="evenodd" clip-rule="evenodd" d="M35.2386 6.59158C35.1686 6.58157 34.228 9.13309 33.9479 9.69342C33.5376 10.9942 35.4488 11.3144 35.4187 9.93356L35.2486 6.58157L35.2386 6.59158ZM30.3857 32.1968C30.4558 32.2168 31.5865 29.7253 31.9067 29.175C32.4069 27.9142 30.5258 27.474 30.4558 28.8448L30.3757 32.1968H30.3857ZM29.4152 6.84173C29.3451 6.86174 29.6053 9.56334 29.6053 10.1837C29.7954 11.5145 31.6665 11.0542 31.0461 9.81349L29.4152 6.84173ZM36.2192 32.0467C36.2893 32.0367 36.2192 29.3251 36.2692 28.7047C36.1792 27.3539 34.2681 27.6941 34.8084 28.9749L36.2092 32.0467H36.2192ZM24.5923 9.08306C24.5323 9.12308 25.8631 11.5145 26.1132 12.0848C26.8336 13.2555 28.3846 12.1549 27.2939 11.2243L24.5923 9.08306ZM41.0821 29.8854C41.1421 29.8454 39.9814 27.3639 39.7813 26.7836C39.1509 25.5728 37.53 26.5734 38.5406 27.564L41.0821 29.8854ZM21.0702 12.4451C21.0302 12.5051 23.1815 14.2861 23.6317 14.7464C24.7424 15.5869 25.773 14.026 24.4122 13.5357L21.0702 12.4451ZM44.5041 26.4233C44.5442 26.3633 42.533 24.4422 42.1127 23.9619C41.0721 23.0513 39.9314 24.5422 41.2522 25.1226L44.5041 26.4233ZM19.5293 16.6375C19.5093 16.7076 22.1609 17.7182 22.7412 18.0084C24.082 18.4586 24.5123 16.6676 23.0514 16.6275L19.5293 16.6375ZM46.2852 22.421C46.3152 22.3609 43.7437 21.1802 43.1833 20.85C41.8826 20.3097 41.3122 22.0708 42.7631 22.2108L46.2852 22.421ZM19.4393 21.7906C19.4493 21.8506 22.311 21.8106 22.9613 21.8606C24.3822 21.7906 24.042 19.9795 22.6812 20.4698L19.4393 21.7906ZM46.4753 17.2879C46.4753 17.2179 43.6136 17.0678 42.9732 16.9777C41.5424 16.9577 41.7525 18.7888 43.1433 18.3786L46.4753 17.2779V17.2879ZM21.8907 27.1338C21.9307 27.1938 24.4923 25.9731 25.0926 25.7429C26.3333 25.0926 25.1927 23.6017 24.2021 24.6123L21.8907 27.1338ZM44.1339 11.8947C44.0939 11.8347 41.4623 12.8853 40.8319 13.0754C39.5412 13.6458 40.5718 15.2067 41.6324 14.2661L44.1339 11.8947ZM26.0532 30.6759C26.1132 30.7059 27.9443 28.6247 28.4046 28.1844C29.2751 27.1138 27.6041 26.1832 27.1138 27.484L26.0532 30.6759ZM40.0315 8.28258C39.9814 8.24256 38.0003 10.1937 37.51 10.604C36.5694 11.6146 38.1704 12.6552 38.7507 11.3944L40.0215 8.28258H40.0315Z" fill="#FFEC2D"/>
<path fill-rule="evenodd" clip-rule="evenodd" d="M19.8577 24.6716C20.0106 25.1876 20.0324 28.0774 23.1114 30.864C26.1686 33.6299 31.4095 34.2491 31.4095 34.2491C31.4095 34.2491 31.4313 34.6413 31.0601 34.662C30.6888 34.7032 28.8982 34.3523 28.0029 34.084C27.1294 33.8363 26.3433 33.3822 26.2559 33.4029C26.1468 33.4441 25.9721 33.7331 25.71 33.6918C25.448 33.6505 24.1814 32.4121 23.6137 32.0818C22.4781 31.154 21.4727 30.0927 20.622 28.9237C20.0106 27.9948 19.8577 27.3756 19.6612 27.3756C19.4647 27.3756 18.744 27.8297 18.744 27.8297C18.744 27.8297 18.0889 26.9009 17.5212 25.4147C16.9316 23.9285 16.9971 23.0616 17.1281 22.9997C17.281 22.9377 17.281 24.0936 17.7177 25.1463C18.1544 26.2197 18.7659 26.55 18.7659 26.55C18.7659 26.55 18.3728 25.9926 18.0671 24.6097C17.7614 23.2267 17.6303 21.885 17.8487 21.4722C18.0671 21.0594 18.2636 20.9355 18.2855 20.9562C18.3291 20.9975 17.9142 21.5961 18.1981 23.1854C18.482 24.7748 19.2463 26.1165 19.421 26.0546C19.5957 25.9926 19.3118 25.6624 19.2026 24.7335C19.0934 23.8047 19.3118 23.2267 19.552 23.1441C19.6612 23.0616 19.8359 24.1762 19.8577 24.6716ZM17.7177 27.3137C17.1281 26.7977 16.2109 25.0019 16.0144 25.0844C15.796 25.1876 17.4993 27.7678 17.543 27.9742C17.5867 28.2219 17.9579 28.9237 17.674 28.8205C17.3901 28.7173 15.3593 26.6944 15.5995 27.0866C15.8397 27.4788 17.3683 29.254 17.281 29.3572C17.1936 29.4604 16.0144 28.3664 15.9707 28.5109C15.9489 28.6347 17.1281 29.7081 17.1063 29.8319C17.0844 29.9558 16.342 29.1508 16.342 29.3159C16.342 29.481 17.1063 30.286 17.1063 30.4099C17.1063 30.5337 16.4512 29.8319 16.6695 30.2035C16.8661 30.6163 17.4338 30.9672 17.412 31.091C17.3901 31.2149 16.9316 30.9259 16.9316 30.9878C16.9316 31.0497 17.7832 31.3387 17.9797 31.5658C18.1981 31.7928 19.5957 33.3203 20.6439 34.084C21.692 34.8477 24.7055 36.1894 24.9239 36.1894C25.1204 36.1894 25.4261 35.7766 25.3606 35.6115C25.2951 35.4463 22.3471 34.4968 21.5392 33.795C20.7094 33.0932 18.7004 31.4006 18.5257 31.3181C18.3728 31.2149 17.9142 31.2562 17.9142 31.153C17.9142 31.0497 18.5038 31.2149 18.4602 31.153C18.4383 31.091 17.6522 30.7608 17.674 30.6988C17.7177 30.6369 18.2199 30.8227 18.2199 30.7608C18.2199 30.6988 17.3028 30.2241 17.3465 30.1209C17.3683 30.0177 18.0234 30.4099 18.0234 30.3273C18.0234 30.286 17.1499 29.7081 17.1718 29.6049C17.1936 29.5016 17.8487 30.059 17.8269 29.9351C17.805 29.8113 17.3028 29.1095 17.3028 29.0269C17.3028 28.9237 18.0889 29.7287 18.1763 29.5636C18.2199 29.4191 17.8924 28.0774 17.9142 28.0568C17.9361 28.0361 18.5038 28.3457 18.5912 28.16C18.7004 27.9536 18.1981 27.6852 17.7177 27.3137ZM27.7845 37.4692C27.3696 37.5311 27.1731 37.3866 27.4133 37.0563C27.7409 37.0563 28.6143 36.788 28.9201 36.6642C29.2258 36.5403 29.5533 36.3752 29.8154 36.1481C30.0774 35.8798 30.2521 36.2926 30.0993 36.5197C29.9901 36.6642 29.4878 36.9325 29.1166 37.077C28.5707 37.2421 28.0902 37.4898 27.7845 37.4692ZM30.5142 36.4165C30.2303 36.1275 30.4705 35.9211 30.8854 35.694C31.4968 35.3844 31.3221 34.9509 32.1083 34.6C32.4576 34.3936 37.3491 32.5359 38.9432 31.5451C40.5373 30.5544 45.0139 27.355 46.2149 25.1463C47.3941 22.9584 46.8264 22.7932 47.0011 22.7107C47.1539 22.6075 47.3286 23.0203 47.3068 23.5157C47.2631 23.9904 46.87 25.4353 47.0011 25.5798C47.1321 25.7243 48.7917 24.4445 49.4905 22.8965C50.1893 21.3484 50.7133 19.7383 51.0409 19.7383C51.3903 19.7383 50.4731 22.3804 49.8835 23.4125C49.3158 24.4445 48.6388 24.9606 48.7917 25.1876C48.9664 25.394 50.6697 24.0524 51.2593 23.0616C51.827 22.0502 52.3729 21.1626 52.4821 21.3484C52.3084 22.5575 51.8041 23.7029 51.0191 24.6716C50.1019 25.6624 49.0101 26.3848 49.1847 26.5293C49.3376 26.6944 50.5823 26.8596 51.8707 26.0339C53.1809 25.1876 53.3119 23.9698 53.4648 24.0317C53.6395 24.0936 53.3119 25.7656 52.0672 26.7977C50.8225 27.8297 49.1848 27.9329 49.2284 28.16C49.3158 28.3664 52.7878 27.2105 52.7223 27.4788C52.6568 27.7265 48.2239 29.3778 48.1803 29.5429C48.1803 29.6668 48.9445 29.7081 50.1456 29.4397C51.3248 29.192 52.4603 28.3045 52.6132 28.5109C52.6568 28.7998 51.7615 29.5017 50.4076 29.8319C49.0319 30.1622 48.3549 30.5956 48.3113 30.6988C48.2894 30.8021 50.757 30.4099 50.757 30.5337C50.757 30.6576 47.5251 31.2562 47.5033 31.4213C47.4596 31.5658 50.5605 30.8227 50.5168 31.0085C50.4295 31.153 46.3023 32.3089 46.3459 32.3708C46.3678 32.4534 49.7962 31.669 49.7307 31.7928C49.6433 31.9373 43.9657 33.4441 43.922 33.5473C43.8784 33.6299 48.9445 32.474 48.9009 32.5772C48.8572 32.6804 46.2804 33.279 46.2804 33.3409C46.2804 33.4028 48.3549 33.0313 48.3113 33.1345C48.2894 33.2171 43.0704 34.4762 42.9612 34.662C42.852 34.8684 45.669 34.1459 45.6253 34.5175C45.5817 34.889 39.5765 36.788 39.5547 36.4371C39.511 36.0862 43.2014 35.1986 43.1796 35.0954C43.1359 34.9922 41.0614 35.3018 41.0177 35.1161C40.9959 34.9097 42.3935 34.4968 42.2843 34.4143C42.1751 34.3111 41.1269 34.7032 41.2143 34.4762C41.3234 34.2491 43.3106 33.3822 43.2669 33.3203C43.2451 33.2584 42.5463 33.5267 42.6118 33.3203C42.6992 33.0932 46.9137 31.9373 46.8482 31.7928C46.7827 31.669 44.9047 32.0818 44.73 32.1231C44.6645 31.9992 47.3504 31.0497 47.3068 30.8846C47.2194 30.7401 45.8655 31.4419 45.7782 31.2562C45.7345 31.0497 48.1584 30.1622 48.0056 30.0177C47.8527 29.8732 46.7609 30.3892 46.608 30.2447C46.4551 30.1002 48.9009 28.5109 48.5296 28.4696C48.1584 28.4489 47.6998 28.965 47.6562 28.6347C47.6998 28.2219 49.556 27.5407 49.1411 27.2105C48.486 27.0247 46.2804 27.355 45.3633 27.871C44.4461 28.387 41.389 31.2562 40.6465 31.7103C39.904 32.1437 37.371 33.1552 36.8905 33.3616C36.1481 33.6093 36.0171 33.9808 35.2528 34.3523C33.877 34.7032 33.8989 35.0954 33.2438 35.3225C33.0036 35.3844 30.536 36.499 30.5142 36.4165ZM27.0639 37.8614C26.649 38.0678 26.2778 38.5632 26.518 38.7696C26.649 39.0173 27.0639 38.2123 27.3915 38.2535L29.1384 38.3361C30.0774 38.398 30.536 38.1503 31.0601 38.1916C31.5842 38.2329 32.7415 37.9233 33.2874 37.9233C33.8334 37.9233 33.9426 37.9852 33.9862 37.7581C34.0517 37.5517 32.2829 37.6962 31.4968 37.6756C30.7107 37.6343 29.728 37.8201 29.1384 37.8201C28.5925 37.7994 27.6535 37.6343 27.0639 37.8614Z" fill="#FFEC2D"/>
<path d="M29.6843 37.6137C29.6843 37.4427 29.5181 37.304 29.3131 37.304C29.1081 37.304 28.9419 37.4427 28.9419 37.6137C28.9419 37.7847 29.1081 37.9233 29.3131 37.9233C29.5181 37.9233 29.6843 37.7847 29.6843 37.6137Z" fill="#FFEC2D"/>
<path fill-rule="evenodd" clip-rule="evenodd" d="M38.3973 37.0151C38.7685 36.9531 39.773 37.2834 40.4718 37.4279C41.7384 37.9026 44.0967 37.6756 44.0967 37.9026C44.0967 38.1297 43.9439 38.398 43.398 38.4393C42.852 38.4806 41.4763 38.2329 41.52 38.2329C41.5637 38.2329 42.6118 38.7076 42.3061 38.8315C42.0004 38.9553 41.1051 38.5632 40.9522 38.6664C40.7994 38.7696 41.782 38.9553 41.6073 39.0173C41.4763 39.0792 40.7994 38.9347 40.581 38.9553C40.3626 38.9966 40.7557 39.2237 40.4937 39.3062C40.2316 39.4094 39.7949 39.1824 39.6202 39.2443C39.4236 39.3062 40.0132 39.6571 39.7512 39.6984C39.4892 39.7397 38.8777 39.5333 38.5283 39.492C38.1789 39.492 38.8559 39.8223 38.6375 39.8636C38.4191 39.8842 37.8077 39.5952 37.6548 39.5952C37.502 39.5952 37.6548 40.008 37.4365 40.008C37.2181 40.008 36.9561 39.6571 36.825 39.6571C36.694 39.6571 36.825 40.07 36.6067 40.07C36.3883 40.07 36.301 39.6365 36.1263 39.6571C35.9079 39.6984 36.1263 40.2145 35.8205 40.1732C35.5367 40.1525 35.493 39.6365 35.2528 39.6571C35.0344 39.6984 35.2965 40.1732 35.0781 40.1732C34.8597 40.1732 34.816 39.6984 34.5977 39.6571C34.3793 39.6365 34.4666 40.1112 34.3356 40.1112C34.2046 40.1112 34.0736 39.6571 33.9862 39.6571C33.9207 39.6571 33.9862 40.1112 33.7242 40.07C33.4622 40.0287 33.4622 39.5746 33.3966 39.5952C33.3093 39.6365 33.3093 39.9668 33.1346 39.9668C32.9599 39.9668 32.9381 39.6365 32.8726 39.6778C32.7852 39.6984 32.5232 40.1112 32.3485 40.0493C32.1519 39.9874 32.3921 39.6571 32.3048 39.6571C32.2174 39.6571 31.9991 39.8842 31.8681 39.8636C31.737 39.8429 31.8681 39.5746 31.8244 39.5746C31.7807 39.5746 31.4532 39.7397 31.3003 39.7397C31.1474 39.7397 30.7325 39.9461 30.6233 39.7603C30.5142 39.5539 30.9072 39.5539 30.9946 39.3682C31.0601 39.1824 30.7762 38.6251 31.0819 38.4393C31.3658 38.2329 32.3048 38.7076 33.7024 38.3774C36.2354 37.7375 38.2008 36.9944 38.3973 37.0151Z" fill="#FFEC2D"/>
</g>
<defs>
<clipPath id="clip0_264_19949">
<rect width="60" height="45" fill="white"/>
</clipPath>
</defs>
</svg>
