<svg width="60" height="45" viewBox="0 0 60 45" fill="none" xmlns="http://www.w3.org/2000/svg">
<g clip-path="url(#clip0_264_19745)">
<path fill-rule="evenodd" clip-rule="evenodd" d="M-6.84668 0H66.6123V26.9385H-6.84668V0Z" fill="#E73E2D"/>
<path fill-rule="evenodd" clip-rule="evenodd" d="M25.5498 24.7939C23.8447 23.458 20.6631 23.915 20.1357 20.2852C22.5703 22.1748 22.1309 20.1797 25.7607 21.9814L25.5498 24.7939Z" fill="#FEC74A"/>
<path fill-rule="evenodd" clip-rule="evenodd" d="M20.0352 20.1125L20.1815 20.2261C20.7867 20.6958 21.2073 20.9193 21.5526 21.0224C21.8967 21.1251 22.1716 21.1103 22.4957 21.0917L22.501 21.0914C22.8249 21.0727 23.1928 21.0515 23.7067 21.1486C24.2225 21.2461 24.8822 21.462 25.7939 21.9145L25.839 21.9369L25.6138 24.939L25.5037 24.8527C25.0872 24.5264 24.578 24.3077 24.0328 24.1064C23.8918 24.0543 23.7482 24.0033 23.6033 23.9519C23.1915 23.8058 22.7696 23.656 22.3693 23.4673C21.826 23.2113 21.315 22.8804 20.9065 22.3804C20.4976 21.8799 20.1953 21.2147 20.0618 20.2959L20.0352 20.1125ZM20.2392 20.4579C20.3811 21.2587 20.66 21.8426 21.0222 22.2859C21.4119 22.7628 21.9018 23.0818 22.433 23.3322C22.826 23.5175 23.2375 23.6635 23.6473 23.8089C23.7936 23.8609 23.9396 23.9127 24.0845 23.9662C24.5865 24.1516 25.0721 24.3563 25.4855 24.6525L25.6825 22.0261C24.8027 21.593 24.1694 21.3881 23.679 21.2954C23.1831 21.2017 22.8301 21.2221 22.5081 21.2406L22.5043 21.2408C22.1802 21.2595 21.8816 21.2766 21.5099 21.1656C21.1703 21.0642 20.7744 20.8577 20.2392 20.4579Z" fill="#D8AA3F"/>
<path fill-rule="evenodd" clip-rule="evenodd" d="M26.0068 23.1504C24.7851 21.3574 21.6123 20.8125 22.2275 17.2002C23.9765 19.7402 24.1611 17.7012 27.0791 20.5313L26.0068 23.1504Z" fill="#FEC74A"/>
<path fill-rule="evenodd" clip-rule="evenodd" d="M22.1847 17.0063L22.289 17.1578C22.7238 17.7891 23.0571 18.1296 23.3551 18.3325C23.6521 18.5346 23.9187 18.6038 24.2335 18.6846L24.2364 18.6853C24.5516 18.7662 24.9095 18.858 25.3715 19.1083C25.8341 19.359 26.3982 19.7668 27.1311 20.4776L27.1673 20.5128L26.0233 23.3073L25.9451 23.1924C25.6466 22.7544 25.2271 22.39 24.7683 22.0311C24.6509 21.9391 24.5306 21.8475 24.4094 21.755C24.0601 21.4886 23.7022 21.2157 23.3773 20.9121C22.9379 20.5016 22.5526 20.0299 22.3171 19.429C22.0814 18.8274 21.9981 18.1021 22.1539 17.1876L22.1847 17.0063ZM22.273 17.395C22.1614 18.2003 22.2474 18.8414 22.4562 19.3745C22.6808 19.9477 23.0497 20.4016 23.4793 20.8029C23.7983 21.101 24.1474 21.3672 24.495 21.6323C24.6175 21.7257 24.7397 21.819 24.8604 21.9134C25.283 22.2441 25.6844 22.5881 25.989 22.9968L26.9908 20.5498C26.2825 19.8673 25.7402 19.478 25.3004 19.2397C24.8546 18.9982 24.5111 18.9101 24.1979 18.8297L24.1953 18.829C23.881 18.7484 23.5914 18.6741 23.2711 18.456C22.9778 18.2564 22.6626 17.9392 22.273 17.395Z" fill="#D8AA3F"/>
<path fill-rule="evenodd" clip-rule="evenodd" d="M26.5605 21.9727C26.1211 19.8545 23.3965 18.1406 25.3476 15.0293C25.9805 18.0527 26.9297 16.2422 28.5469 19.9687L26.5605 21.9727Z" fill="#FEC74A"/>
<path fill-rule="evenodd" clip-rule="evenodd" d="M25.3828 14.8326L25.4208 15.014C25.5781 15.7655 25.7536 16.2092 25.9498 16.5119C26.1451 16.8134 26.3639 16.9802 26.6231 17.1757L26.6297 17.1807C26.8882 17.3757 27.1822 17.5974 27.5117 18.0029C27.8434 18.4111 28.2092 19.003 28.6154 19.939L28.6355 19.9854L26.5157 22.1241L26.4874 21.9878C26.38 21.4704 26.1324 20.9746 25.8462 20.4685C25.773 20.339 25.6972 20.2087 25.6207 20.0773C25.4 19.6979 25.1737 19.3091 24.9896 18.9043C24.7407 18.3572 24.5651 17.7737 24.5775 17.1275C24.5899 16.4807 24.7905 15.7772 25.2844 14.9896L25.3828 14.8326ZM26.6029 21.8238L28.4581 19.9521C28.0639 19.0518 27.7112 18.4853 27.3957 18.0971C27.0777 17.7057 26.7956 17.4929 26.5386 17.2991L26.5331 17.295C26.2738 17.0994 26.0355 16.919 25.8244 16.5932C25.6315 16.2955 25.4638 15.8808 25.3146 15.228C24.9036 15.931 24.7379 16.5574 24.7269 17.1303C24.7151 17.7468 24.8823 18.3075 25.1256 18.8425C25.3063 19.2399 25.5271 19.6191 25.7467 19.9966C25.824 20.1294 25.9011 20.2619 25.9763 20.3949C26.2398 20.861 26.4785 21.3311 26.6029 21.8238Z" fill="#D8AA3F"/>
<path fill-rule="evenodd" clip-rule="evenodd" d="M27.835 20.8828C28.0723 18.7295 26.0069 16.2598 28.8106 13.9043C28.4942 16.9717 29.9532 15.5479 30.3487 19.582L27.835 20.8828Z" fill="#FEC74A"/>
<path fill-rule="evenodd" clip-rule="evenodd" d="M28.9038 13.7284L28.8849 13.912C28.8062 14.6744 28.8388 15.1502 28.9339 15.4985C29.0285 15.8455 29.1864 16.0718 29.3737 16.3376L29.3777 16.3432C29.5646 16.6085 29.777 16.91 29.9666 17.3972C30.1572 17.887 30.3237 18.5615 30.423 19.5748L30.428 19.6251L27.8693 20.9492L27.835 20.8828L27.7607 20.8746C27.8187 20.3486 27.7363 19.8002 27.6201 19.2302C27.5899 19.0823 27.5574 18.9328 27.5247 18.782C27.4319 18.3549 27.3369 17.9175 27.2862 17.4779C27.2173 16.8808 27.2289 16.2719 27.438 15.6614C27.6474 15.0503 28.0528 14.4434 28.7625 13.8471L28.9038 13.7284ZM27.9213 20.754L30.2693 19.539C30.1704 18.5633 30.0086 17.9172 29.8274 17.4514C29.6444 16.9812 29.4405 16.6918 29.2546 16.428L29.2516 16.4237C29.0642 16.1578 28.892 15.9127 28.7897 15.5379C28.6963 15.1953 28.6623 14.7493 28.7187 14.0827C28.1135 14.6242 27.7648 15.1685 27.5794 15.7098C27.3798 16.2922 27.3672 16.8769 27.4346 17.4608C27.4844 17.8924 27.5771 18.3191 27.6694 18.744C27.7025 18.8963 27.7355 19.0483 27.7665 19.2003C27.8735 19.7253 27.9554 20.2464 27.9213 20.754Z" fill="#D8AA3F"/>
<path fill-rule="evenodd" clip-rule="evenodd" d="M28.9775 20.0127C30.0674 18.1406 29.1973 15.0469 32.7217 14.0449C31.1748 16.708 33.0908 16.0049 31.7988 19.8457L28.9775 20.0127Z" fill="#FEC74A"/>
<path fill-rule="evenodd" clip-rule="evenodd" d="M32.8792 13.9225L32.7863 14.0825C32.4018 14.7444 32.2364 15.1906 32.1804 15.5463C32.1245 15.9006 32.1759 16.1708 32.238 16.4894L32.2393 16.496C32.3012 16.8141 32.3717 17.1755 32.3452 17.6973C32.3185 18.2217 32.1941 18.9048 31.8696 19.8695L31.8536 19.9173L28.9819 20.0873L28.9775 20.0127L28.913 19.9751C29.1792 19.5177 29.3273 18.983 29.4538 18.4151C29.486 18.2706 29.5168 18.1236 29.5479 17.9755C29.6383 17.5452 29.7308 17.1043 29.8654 16.6799C30.0471 16.1072 30.3073 15.5568 30.7485 15.0858C31.1902 14.6143 31.8091 14.2267 32.7012 13.9731L32.8792 13.9225ZM29.1086 19.9301L31.744 19.7741C32.0535 18.8438 32.1706 18.1884 32.1959 17.6897C32.2215 17.1862 32.1539 16.8393 32.0923 16.5231L32.0913 16.518C32.0293 16.1993 31.9724 15.9059 32.0328 15.523C32.0879 15.1733 32.2398 14.7537 32.5644 14.1703C31.7902 14.4167 31.2488 14.7703 30.8576 15.1879C30.4367 15.6372 30.1855 16.1651 30.0078 16.7251C29.8757 17.1417 29.7854 17.5718 29.6955 18.0001C29.6641 18.1497 29.6327 18.2991 29.5996 18.4476C29.4831 18.9705 29.3457 19.48 29.1086 19.9301Z" fill="#D8AA3F"/>
<path fill-rule="evenodd" clip-rule="evenodd" d="M30.6211 20.2412C32.2559 18.8174 32.4141 15.6006 36.0703 15.7676C33.7588 17.8066 35.8066 17.7451 33.3457 20.9883L30.6211 20.2412Z" fill="#FEC74A"/>
<path fill-rule="evenodd" clip-rule="evenodd" d="M30.7718 20.2051L33.3166 20.9029C33.9095 20.1161 34.2312 19.5299 34.4151 19.0637C34.6015 18.5911 34.6477 18.2389 34.6898 17.918L34.6901 17.9153C34.7323 17.5935 34.7712 17.2971 34.9491 16.9532C35.1119 16.6384 35.3886 16.288 35.8817 15.8366C35.0702 15.8249 34.4451 15.989 33.9418 16.2616C33.4004 16.5549 32.9946 16.9766 32.648 17.4519C32.3919 17.8031 32.1705 18.18 31.9501 18.5551C31.8711 18.6896 31.7923 18.8239 31.712 18.9567C31.4345 19.4156 31.1411 19.8546 30.7718 20.2051ZM33.8707 16.1302C34.4388 15.8225 35.1481 15.6507 36.0737 15.693L36.2583 15.7014L36.1197 15.8236C35.5452 16.3304 35.2473 16.7018 35.0818 17.0218C34.9169 17.3406 34.8804 17.6136 34.8381 17.9361L34.8377 17.9389C34.7954 18.2618 34.7472 18.6288 34.5541 19.1185C34.3607 19.6087 34.0233 20.2189 33.4052 21.0334L33.3747 21.0737L30.4669 20.2764L30.572 20.1849C30.9714 19.837 31.2828 19.3776 31.5841 18.8794C31.6622 18.7502 31.7398 18.6181 31.818 18.485C32.0395 18.1079 32.2664 17.7216 32.5273 17.3638C32.8816 16.8778 33.3031 16.4376 33.8707 16.1302Z" fill="#D8AA3F"/>
<path fill-rule="evenodd" clip-rule="evenodd" d="M32.0801 21.085C34.0576 20.1973 35.1475 17.1738 38.5928 18.4043C35.7803 19.6787 37.7578 20.2236 34.4619 22.5967L32.0801 21.085Z" fill="#FEC74A"/>
<path fill-rule="evenodd" clip-rule="evenodd" d="M32.0801 21.085L32.04 21.148L34.4645 22.6868L34.5056 22.6573C35.3334 22.0613 35.8333 21.5777 36.1608 21.1662C36.4874 20.7558 36.6402 20.4194 36.7749 20.1233L36.7766 20.1194C36.9112 19.8233 37.0262 19.5726 37.2777 19.3155C37.5301 19.0575 37.9246 18.7891 38.6236 18.4723L38.7919 18.3961L38.6179 18.3339C37.7457 18.0225 37.0178 17.9786 36.385 18.106C35.7529 18.2332 35.2216 18.5301 34.7412 18.8906C34.3863 19.1568 34.0557 19.4606 33.733 19.7572C33.6205 19.8606 33.5089 19.9632 33.3976 20.0629C32.9643 20.4512 32.5326 20.7999 32.0495 21.0168L32.0801 21.085ZM33.4973 20.1742C33.0982 20.5319 32.6896 20.8664 32.2343 21.0944L34.4592 22.5065C35.2547 21.9297 35.7325 21.4644 36.0438 21.0732C36.359 20.6772 36.5057 20.3545 36.6395 20.0601L36.6406 20.0576C36.7752 19.7616 36.8992 19.4888 37.1709 19.211C37.4192 18.9572 37.7873 18.7027 38.3922 18.415C37.6201 18.1662 36.9749 18.1397 36.4145 18.2525C35.8115 18.3738 35.3007 18.6576 34.8308 19.0101C34.4824 19.2715 34.16 19.5678 33.8388 19.863C33.7252 19.9674 33.6117 20.0717 33.4973 20.1742Z" fill="#D8AA3F"/>
<path fill-rule="evenodd" clip-rule="evenodd" d="M33.3018 22.4121C35.4463 22.1133 37.3447 19.5117 40.3066 21.6738C37.2568 22.1045 38.9883 23.1768 35.165 24.5303L33.3018 22.4033V22.4121Z" fill="#FEC74A"/>
<path fill-rule="evenodd" clip-rule="evenodd" d="M33.279 22.4907L35.1422 24.6176L35.19 24.6007C36.1502 24.2608 36.7654 23.9372 37.1955 23.6346C37.6237 23.3333 37.8656 23.0546 38.0785 22.8093L38.0823 22.805C38.2954 22.5594 38.477 22.352 38.7907 22.1767C39.1056 22.0008 39.5591 21.8549 40.3171 21.7478L40.4994 21.7221L40.3507 21.6135C39.6009 21.0662 38.9142 20.8175 38.2707 20.7606C37.6278 20.7038 37.0342 20.8391 36.4714 21.0502C36.0542 21.2067 35.65 21.4066 35.2556 21.6018C35.12 21.6688 34.9856 21.7353 34.8522 21.7993C34.3429 22.0435 33.8457 22.2524 33.338 22.3313L33.2271 22.2047V22.498L33.279 22.4907ZM34.9168 21.934C34.4354 22.1648 33.9517 22.371 33.4535 22.4632L35.1878 24.4429C36.1117 24.1124 36.7005 23.8001 37.1095 23.5124C37.5228 23.2216 37.755 22.9541 37.9666 22.7103L37.9695 22.707C38.1826 22.4615 38.379 22.2355 38.7178 22.0463C39.0276 21.8733 39.4519 21.7332 40.1118 21.6276C39.4401 21.1685 38.8277 20.9598 38.2576 20.9095C37.6444 20.8553 37.0741 20.9837 36.5239 21.1901C36.1144 21.3437 35.72 21.5388 35.3274 21.733C35.1905 21.8007 35.0538 21.8683 34.9168 21.934Z" fill="#D8AA3F"/>
<path fill-rule="evenodd" clip-rule="evenodd" d="M40.9482 22.8164L31.0957 23.0361L31.5088 25.6904L40.9482 22.8164Z" fill="#FEC74A"/>
<path fill-rule="evenodd" clip-rule="evenodd" d="M40.9466 22.7417L40.97 22.8879L31.4482 25.787L31.0088 22.9634L40.9466 22.7417ZM31.1827 23.1089L31.5694 25.5939L40.4067 22.9032L31.1827 23.1089Z" fill="#D8AA3F"/>
<path fill-rule="evenodd" clip-rule="evenodd" d="M39.498 19.1953L30.375 22.7021L31.8955 25.6289L39.498 19.1953Z" fill="#FEC74A"/>
<path fill-rule="evenodd" clip-rule="evenodd" d="M39.4712 19.1256L39.498 19.1953L39.5463 19.2523L31.8723 25.7464L30.2701 22.6624L39.4712 19.1256ZM39.1128 19.4234L30.4798 22.7419L31.9186 25.5114L39.1128 19.4234Z" fill="#D8AA3F"/>
<path fill-rule="evenodd" clip-rule="evenodd" d="M32.2559 24.6709L36.9756 16.0928L29.7334 22.834L32.2559 24.6709Z" fill="#FEC74A"/>
<path fill-rule="evenodd" clip-rule="evenodd" d="M36.9247 16.0381L37.0411 16.1288L32.2805 24.7812L29.6162 22.841L36.9247 16.0381ZM29.8507 22.8269L32.2313 24.5606L36.6857 16.4647L29.8507 22.8269Z" fill="#D8AA3F"/>
<path fill-rule="evenodd" clip-rule="evenodd" d="M32.1592 23.959L33.6709 14.3438L28.9424 22.8867L32.1592 23.959Z" fill="#FEC74A"/>
<path fill-rule="evenodd" clip-rule="evenodd" d="M33.6055 14.3076L33.7447 14.3554L32.2193 24.0578L28.8335 22.9292L33.6055 14.3076ZM29.0513 22.8443L32.0991 23.8602L33.5314 14.7501L29.0513 22.8443Z" fill="#D8AA3F"/>
<path fill-rule="evenodd" clip-rule="evenodd" d="M31.5879 23.1768L30.0059 13.4912L28.248 23.2207L31.5879 23.1768Z" fill="#FEC74A"/>
<path fill-rule="evenodd" clip-rule="evenodd" d="M29.9324 13.4779L30.0796 13.4792L31.6756 23.2503L28.1584 23.2966L29.9324 13.4779ZM28.3377 23.1448L31.5002 23.1032L30.0022 13.9319L28.3377 23.1448Z" fill="#D8AA3F"/>
<path fill-rule="evenodd" clip-rule="evenodd" d="M30.7705 22.3506L26.1738 14.2646L27.9316 24.0908L30.7705 22.3506Z" fill="#FEC74A"/>
<path fill-rule="evenodd" clip-rule="evenodd" d="M26.1003 14.2778L26.2388 14.2277L30.8712 22.3765L27.8774 24.2117L26.1003 14.2778ZM26.3241 14.68L27.986 23.9699L30.6699 22.3247L26.3241 14.68Z" fill="#D8AA3F"/>
<path fill-rule="evenodd" clip-rule="evenodd" d="M30.0586 22.2891L22.9307 16.2686L27.9932 24.8818L30.0586 22.2891Z" fill="#FEC74A"/>
<path fill-rule="evenodd" clip-rule="evenodd" d="M22.8662 16.3064L22.9788 16.2115L30.1068 22.232L30.0585 22.2891L30.117 22.3356L27.9838 25.0134L22.8662 16.3064ZM29.9549 22.2993L23.2168 16.6081L28.0024 24.7503L29.9549 22.2993Z" fill="#D8AA3F"/>
<path fill-rule="evenodd" clip-rule="evenodd" d="M20.4258 19.2393L28.0723 25.5586L29.25 22.2539L20.4258 19.2393Z" fill="#FEC74A"/>
<path fill-rule="evenodd" clip-rule="evenodd" d="M20.3782 19.2968L20.4499 19.1685L29.3458 22.2077L28.1068 25.6841L20.3782 19.2968ZM20.7885 19.4421L28.0377 25.4331L29.1542 22.3001L20.7885 19.4421Z" fill="#D8AA3F"/>
<path fill-rule="evenodd" clip-rule="evenodd" d="M27.9932 22.9307L19.002 22.7988L27.958 25.7871L27.9932 22.9307Z" fill="#FEC74A"/>
<path fill-rule="evenodd" clip-rule="evenodd" d="M18.9783 22.8697L19.003 22.7241L27.9942 22.856L27.9931 22.9307L28.0678 22.9316L28.0314 25.8904L18.9783 22.8697ZM27.9175 23.0043L19.483 22.8806L27.8845 25.6838L27.9175 23.0043Z" fill="#D8AA3F"/>
<path fill-rule="evenodd" clip-rule="evenodd" d="M35.2881 24.5391C35.3174 25.2655 35.1997 25.9903 34.9419 26.6701C34.6842 27.3499 34.2917 27.9706 33.7881 28.4949C33.2845 29.0193 32.6802 29.4364 32.0113 29.7214C31.3425 30.0064 30.623 30.1533 29.896 30.1533C29.169 30.1533 28.4495 30.0064 27.7807 29.7214C27.1118 29.4364 26.5075 29.0193 26.0039 28.4949C25.5003 27.9706 25.1078 27.3499 24.8501 26.6701C24.5923 25.9903 24.4746 25.2655 24.5039 24.5391C24.5601 23.1467 25.1528 21.83 26.1579 20.8647C27.1629 19.8994 28.5025 19.3603 29.896 19.3603C31.2895 19.3603 32.629 19.8994 33.6341 20.8647C34.6392 21.83 35.2319 23.1467 35.2881 24.5391Z" fill="#FEC74A"/>
<path fill-rule="evenodd" clip-rule="evenodd" d="M29.896 19.435C28.5218 19.435 27.2008 19.9666 26.2096 20.9186C25.2185 21.8705 24.634 23.169 24.5786 24.5421C24.5496 25.2584 24.6657 25.9733 24.9199 26.6436C25.1741 27.314 25.5611 27.9261 26.0578 28.4432C26.5544 28.9603 27.1504 29.3717 27.8099 29.6527C28.4695 29.9337 29.1791 30.0786 29.896 30.0786C30.6129 30.0786 31.3225 29.9337 31.9821 29.6527C32.6416 29.3717 33.2376 28.9603 33.7342 28.4432C34.2309 27.9261 34.6179 27.314 34.8721 26.6436C35.1263 25.9733 35.2424 25.2584 35.2134 24.5421C35.158 23.169 34.5735 21.8705 33.5824 20.9186C32.5912 19.9666 31.2702 19.435 29.896 19.435ZM26.1061 20.8108C27.1251 19.8322 28.4832 19.2856 29.896 19.2856C31.3088 19.2856 32.6669 19.8322 33.6859 20.8108C34.7048 21.7895 35.3057 23.1244 35.3627 24.5361C35.3925 25.2725 35.2731 26.0074 35.0118 26.6966C34.7504 27.3858 34.3526 28.0151 33.842 28.5467C33.3314 29.0783 32.7187 29.5012 32.0406 29.7901C31.3625 30.0791 30.6331 30.228 29.896 30.228C29.1589 30.228 28.4295 30.0791 27.7514 29.7901C27.0733 29.5012 26.4606 29.0783 25.95 28.5467C25.4394 28.0151 25.0416 27.3858 24.7802 26.6966C24.5189 26.0074 24.3995 25.2725 24.4293 24.5361C24.4863 23.1244 25.0872 21.7895 26.1061 20.8108Z" fill="#D8AA3F"/>
<path fill-rule="evenodd" clip-rule="evenodd" d="M-6.91699 26.666H66.9023V45H-6.92578L-6.91699 26.666Z" fill="#005989"/>
<path fill-rule="evenodd" clip-rule="evenodd" d="M-6.96094 39.9023C-5.58984 40.5352 -3.62109 42.126 -1.51172 42.126C2.00391 42.0996 2.0918 39.7178 5.66016 39.832C9.2373 39.9199 8.58691 42.4336 13.4121 42.4248C17.4023 42.4072 18.6855 39.375 22.1309 39.7354C24.6797 39.6035 25.7168 42.6094 29.6279 42.6533C33.6885 42.7412 35.1738 39.375 37.7139 39.6563C40.4385 39.6563 41.3174 42.3633 45.123 42.3809C49.9746 42.4072 50.8271 39.5684 53.8506 39.7441C56.0127 39.7002 57.7178 41.8272 60.8818 41.8799C63.3955 41.9238 65.5137 40.0166 66.9463 39.3311L67.0078 36.0967C65.5137 36.6504 63.2812 38.4785 61.0576 38.4961C57.8408 38.6191 55.8633 36.3867 53.6309 36.4131C50.959 36.4395 49.8955 39.1641 45.3691 39.1641C41.2207 39.1641 40.2715 36.4131 37.5996 36.4131C34.9893 36.4307 34.1895 39.4014 29.6631 39.3486C25.9717 39.3047 24.5391 36.5098 21.9287 36.5361C19.1602 36.5361 16.3037 39.252 13.2275 39.1201C9.00879 38.9443 8.08594 36.5361 5.31738 36.5361C3.25195 36.5361 1.01074 38.7861 -1.47656 38.8213C-3.95508 38.8652 -6.74121 36.5801 -6.99609 36.5361L-6.96094 39.9023ZM-6.96094 33.4863C-5.58984 34.1279 -3.62109 35.7188 -1.51172 35.7188C2.00391 35.6924 2.0918 33.3105 5.66016 33.416C9.2373 33.5039 8.58691 36.0264 13.4121 36.0088C17.4023 36.0088 18.6855 32.9678 22.1309 33.3281C24.6797 33.1963 25.7168 36.2021 29.6279 36.2373C33.6885 36.3252 35.1738 32.9678 37.7139 33.249C40.4385 33.249 41.3174 35.9561 45.123 35.9736C49.9746 36 50.8271 33.1611 53.8506 33.3369C56.0127 33.293 57.7178 35.4199 60.8818 35.4727C63.3955 35.5166 65.5137 33.6094 66.9463 32.9238L67.0078 29.6895C65.5137 30.2432 63.2812 32.0625 61.0576 32.0889C57.8408 32.2031 55.8633 29.9795 53.6309 30.0059C50.959 30.0322 49.8955 32.7568 45.3691 32.7568C41.2207 32.7568 40.2715 30.0059 37.5996 30.0059C34.9893 30.0234 34.1895 32.9941 29.6631 32.9414C25.9717 32.8975 24.5391 30.1025 21.9287 30.1289C19.1602 30.1289 16.3037 32.8359 13.2275 32.7041C9.00879 32.5283 8.08594 30.1201 5.31738 30.1201C3.25195 30.1201 1.01074 32.3789 -1.47656 32.4141C-3.95508 32.4492 -6.74121 30.1729 -6.99609 30.1289L-6.96094 33.4951V33.4863Z" fill="#F0F0F0"/>
<path fill-rule="evenodd" clip-rule="evenodd" d="M-6.96094 27.1582C-5.58984 27.791 -3.62109 29.373 -1.52051 29.373C1.99512 29.3555 2.08301 26.9648 5.65137 27.0791C9.21973 27.167 8.56934 29.6807 13.3945 29.6719C17.376 29.6631 18.668 26.6221 22.0957 26.9912C24.6445 26.8594 25.6816 29.8652 29.5928 29.9004C33.6445 29.9883 35.1299 26.6221 37.6787 26.9033C40.3857 26.9033 41.2822 29.6104 45.0791 29.6279C49.9131 29.6543 50.7656 26.8154 53.7979 26.9912C55.9512 26.9473 57.6562 29.0742 60.8115 29.127C63.334 29.1709 65.4434 27.2637 66.876 26.5781L66.9375 23.3438C65.4434 23.9062 63.2197 25.7256 60.9873 25.7432C57.7881 25.8662 55.8018 23.6426 53.5693 23.6602C50.9062 23.6865 49.8428 26.4111 45.3076 26.4111C41.1768 26.4111 40.2275 23.6602 37.5557 23.6602C34.9453 23.6865 34.1455 26.6484 29.6367 26.5957C25.9453 26.5518 24.5127 23.7656 21.9023 23.7832C19.1338 23.7832 16.2773 26.499 13.2188 26.3672C8.99121 26.1914 8.07715 23.7832 5.30859 23.7832C3.24316 23.7832 1.01074 26.0332 -1.47656 26.0684C-3.95508 26.1123 -6.73242 23.8359 -6.99609 23.7832L-6.96094 27.1494V27.1582Z" fill="#F0F0F0"/>
<path fill-rule="evenodd" clip-rule="evenodd" d="M19.6172 6.67969C24.9785 6.31055 24.0117 5.85352 26.165 5.50195C28.8896 5.87988 29.1973 7.52344 30.7178 8.53418C30.7178 8.53418 30.1465 10.4678 28.2832 10.1953C28.0283 9.42187 29.1797 9.17578 25.8662 7.1543C23.9326 7.04004 20.4785 7.49707 19.626 6.67969H19.6172ZM36.2549 9.65918L32.3877 9.81738V10.7754C34.998 10.8633 35.4639 10.5117 36.2549 9.65918Z" fill="#FFC84B"/>
<path fill-rule="evenodd" clip-rule="evenodd" d="M26.1641 5.42197L26.176 5.42361C27.5571 5.61518 28.33 6.12939 28.9478 6.72376C29.1515 6.91964 29.3398 7.12597 29.5262 7.3301C29.6193 7.43209 29.7119 7.53353 29.8057 7.63284C30.0892 7.93314 30.3887 8.22045 30.7616 8.46831L30.8102 8.50062L30.7937 8.5566L30.7178 8.53419C30.7937 8.5566 30.7937 8.55664 30.7937 8.55669L30.7936 8.55682L30.7935 8.55723L30.7931 8.55855L30.7917 8.56326C30.7904 8.5673 30.7886 8.57311 30.7861 8.58056C30.7812 8.59547 30.7738 8.61697 30.7639 8.64405C30.744 8.69819 30.7135 8.77474 30.6711 8.86552C30.5865 9.04682 30.4534 9.28632 30.26 9.51767C29.8716 9.98215 29.2375 10.4148 28.2718 10.2736L28.2234 10.2665L28.2081 10.2201C28.1415 10.0179 28.163 9.84729 28.1825 9.69244C28.1835 9.68438 28.1845 9.67636 28.1855 9.66837C28.2056 9.50714 28.2196 9.35738 28.1479 9.17125C28.0753 8.98259 27.911 8.74819 27.5536 8.43282C27.199 8.11992 26.6591 7.73145 25.8419 7.23213C25.2563 7.19886 24.537 7.21707 23.7904 7.23597C23.3089 7.24816 22.8162 7.26063 22.3406 7.25977C21.7336 7.25867 21.1566 7.23561 20.6766 7.16077C20.2005 7.08655 19.8032 6.95918 19.5713 6.73679L19.6149 6.69128L19.6118 6.60078C22.2909 6.41631 23.3827 6.21021 24.0719 6.00832C24.2859 5.94565 24.4637 5.88225 24.6403 5.8193C25.0277 5.68119 25.4091 5.54524 26.1523 5.42389L26.1641 5.42197ZM19.8431 6.74313C20.0475 6.8634 20.3398 6.94815 20.701 7.00446C21.1688 7.07739 21.7361 7.10047 22.3409 7.10157C22.8058 7.10241 23.2942 7.09012 23.7743 7.07804C24.5359 7.05888 25.2768 7.04023 25.8709 7.07534L25.8906 7.0765L25.9075 7.08678C26.7376 7.59323 27.2913 7.9904 27.6583 8.3142C28.0249 8.63769 28.21 8.89217 28.2956 9.11441C28.3821 9.33916 28.3631 9.52229 28.3425 9.6879C28.3418 9.69397 28.341 9.7 28.3403 9.70601C28.3224 9.84913 28.3064 9.97654 28.3446 10.1238C29.214 10.2334 29.7823 9.84227 30.1386 9.41618C30.3209 9.19818 30.4471 8.97132 30.5278 8.79858C30.5681 8.71234 30.5968 8.63996 30.6154 8.58942C30.6185 8.58105 30.6213 8.57328 30.6238 8.56616C30.2598 8.31663 29.9651 8.03214 29.6906 7.74144C29.593 7.638 29.4985 7.53449 29.4045 7.43155C29.2204 7.22981 29.0383 7.03027 28.8382 6.83777C28.2427 6.26489 27.5021 5.76958 26.166 5.58196C25.4446 5.70049 25.0848 5.82898 24.7056 5.96437C24.5268 6.0282 24.3437 6.09357 24.1164 6.16015C23.43 6.36119 22.3661 6.56241 19.8431 6.74313ZM36.4435 9.57231L36.3129 9.71299C35.9157 10.1411 35.5903 10.4547 35.029 10.6449C34.4728 10.8333 33.6914 10.8984 32.3851 10.8545L32.3087 10.8519V9.74146L36.4435 9.57231ZM32.4669 9.89332V10.6988C33.7242 10.7376 34.4615 10.6701 34.9782 10.495C35.4403 10.3385 35.7307 10.0945 36.0645 9.74614L32.4669 9.89332Z" fill="#D8AA3F"/>
<path fill-rule="evenodd" clip-rule="evenodd" d="M22.957 9.49219C23.6338 9.14942 23.9678 9.29004 24.5566 9.27246C24.9521 10.002 25.3301 10.0635 26.209 10.1514C26.5979 10.7277 27.1192 11.2025 27.7294 11.5358C28.3396 11.8692 29.0207 12.0515 29.7158 12.0674C32.3437 11.9971 33.1787 10.1602 34.9453 9.95801H36.8086C36.501 9.43067 36.2549 9.12305 35.5781 9.08789C34.1895 9.01758 32.3965 9.05274 30.832 9.4043L28.626 9.95801C27.9756 9.64161 26.4023 7.98926 25.3916 8.02442C24.8027 8.18262 24.8027 8.38477 24.5127 8.61328C23.9414 8.85938 23.3701 8.73633 22.957 9.49219Z" fill="#FFC84B"/>
<path fill-rule="evenodd" clip-rule="evenodd" d="M28.6347 9.87879L30.8138 9.33184L30.8157 9.33141C32.3895 8.97775 34.19 8.94281 35.5819 9.01328L35.582 9.01329C35.9323 9.03148 36.179 9.12096 36.3784 9.27998C36.5749 9.43669 36.7192 9.65648 36.8731 9.92037C36.8866 9.94347 36.8867 9.97202 36.8734 9.99522C36.8601 10.0184 36.8353 10.0327 36.8086 10.0327H34.9496C34.2071 10.1189 33.6348 10.5 32.9993 10.9232C32.8995 10.9897 32.7981 11.0572 32.6943 11.1248C31.9315 11.6211 31.0519 12.1064 29.7178 12.1421C29.7166 12.1421 29.7153 12.1421 29.7141 12.1421C29.0071 12.1259 28.3142 11.9405 27.6936 11.6014C27.0832 11.2679 26.5602 10.7954 26.1668 10.2222C25.7478 10.18 25.4304 10.1409 25.1701 10.0203C24.9069 9.89839 24.7084 9.69685 24.5131 9.34823C24.3742 9.35071 24.2512 9.34545 24.1356 9.3405C23.7694 9.32485 23.4774 9.31236 22.9908 9.55884L22.957 9.49219L22.8915 9.45636C23.1079 9.06045 23.3695 8.89106 23.6505 8.79118C23.7677 8.74953 23.8888 8.71983 24.0077 8.69068C24.0281 8.68567 24.0484 8.68067 24.0687 8.67564C24.2054 8.64167 24.3402 8.60527 24.4741 8.54853C24.5385 8.49698 24.5878 8.44665 24.635 8.39614C24.6438 8.38669 24.6526 8.37712 24.6615 8.36747C24.7014 8.32437 24.7427 8.27967 24.7901 8.23695C24.9105 8.12864 25.0689 8.03375 25.3722 7.95227C25.3777 7.9508 25.3833 7.94995 25.389 7.94976C25.6608 7.9403 25.9624 8.04388 26.2662 8.20084C26.5714 8.35854 26.887 8.57451 27.1886 8.79949C27.3966 8.95462 27.5998 9.11551 27.789 9.26527C27.8739 9.33245 27.956 9.39739 28.0343 9.45857C28.2774 9.64834 28.4826 9.79973 28.6347 9.87879ZM23.1567 9.32032C23.5537 9.1648 23.843 9.17732 24.1607 9.19107C24.2849 9.19644 24.4134 9.202 24.5544 9.19779C24.5826 9.19695 24.6089 9.21206 24.6223 9.23686C24.8154 9.59291 24.9985 9.77614 25.2329 9.88473C25.4731 9.99598 25.7738 10.0328 26.2164 10.077C26.2385 10.0792 26.2585 10.0912 26.2709 10.1096C26.6531 10.676 27.1655 11.1426 27.7652 11.4703C28.3644 11.7976 29.0332 11.9767 29.7157 11.9927C31.0085 11.9576 31.8599 11.4895 32.6128 10.9995C32.7141 10.9336 32.8139 10.867 32.913 10.8009C33.5477 10.3776 34.1537 9.9734 34.9368 9.88379C34.9396 9.88347 34.9425 9.8833 34.9453 9.8833H36.6772C36.5504 9.67516 36.4324 9.51418 36.2852 9.39679C36.1154 9.26138 35.9008 9.17947 35.5743 9.1625C34.1892 9.09237 32.4042 9.12772 30.8493 9.47699L28.6442 10.0305C28.6271 10.0347 28.6091 10.0329 28.5933 10.0252C28.4223 9.94202 28.1958 9.77415 27.9424 9.57635C27.8625 9.51395 27.7795 9.44831 27.6942 9.38075C27.5058 9.23162 27.3055 9.07309 27.0993 8.91926C26.7999 8.69601 26.492 8.48571 26.1976 8.33359C25.9054 8.18257 25.6343 8.09312 25.4026 8.09883C25.1228 8.17496 24.9885 8.25945 24.8901 8.34801C24.8482 8.38569 24.8125 8.42429 24.773 8.467C24.7637 8.47712 24.7541 8.48747 24.7442 8.49809C24.6932 8.55272 24.6358 8.61138 24.5589 8.67197C24.5538 8.67599 24.5482 8.67933 24.5423 8.6819C24.3935 8.74598 24.2457 8.78562 24.1047 8.82064C24.0836 8.82589 24.0627 8.83103 24.042 8.83611C23.9228 8.86536 23.81 8.89306 23.7006 8.93197C23.5048 9.00152 23.3214 9.10639 23.1567 9.32032Z" fill="#D8AA3F"/>
<path fill-rule="evenodd" clip-rule="evenodd" d="M25.6201 8.70118C25.6274 8.74166 25.6256 8.78324 25.6151 8.82299C25.6045 8.86274 25.5853 8.89968 25.5589 8.93122C25.5325 8.96276 25.4995 8.98812 25.4623 9.00553C25.425 9.02293 25.3844 9.03195 25.3433 9.03195C25.3021 9.03195 25.2615 9.02293 25.2242 9.00553C25.187 8.98812 25.154 8.96276 25.1276 8.93122C25.1012 8.89968 25.082 8.86274 25.0715 8.82299C25.0609 8.78324 25.0592 8.74166 25.0664 8.70118C25.078 8.63621 25.1121 8.57739 25.1627 8.53503C25.2134 8.49267 25.2773 8.46945 25.3433 8.46945C25.4093 8.46945 25.4732 8.49267 25.5238 8.53503C25.5744 8.57739 25.6085 8.63621 25.6201 8.70118Z" fill="#FFC84B"/>
<path fill-rule="evenodd" clip-rule="evenodd" d="M25.3433 8.54416C25.2948 8.54416 25.2479 8.56121 25.2107 8.59232C25.1735 8.62343 25.1485 8.66662 25.1399 8.71433C25.1346 8.74407 25.1359 8.7746 25.1437 8.80379C25.1514 8.83298 25.1655 8.86011 25.1849 8.88327C25.2043 8.90643 25.2285 8.92506 25.2559 8.93784C25.2832 8.95062 25.3131 8.95724 25.3433 8.95724C25.3735 8.95724 25.4033 8.95062 25.4307 8.93784C25.458 8.92506 25.4823 8.90643 25.5016 8.88327C25.521 8.86011 25.5351 8.83298 25.5429 8.80379C25.5506 8.7746 25.5519 8.74406 25.5466 8.71433C25.538 8.66662 25.513 8.62343 25.4758 8.59232C25.4387 8.56121 25.3917 8.54416 25.3433 8.54416ZM25.1148 8.47774C25.1789 8.42412 25.2597 8.39474 25.3433 8.39474C25.4268 8.39474 25.5077 8.42412 25.5717 8.47774C25.6358 8.53136 25.6789 8.60579 25.6937 8.68802C25.7028 8.73926 25.7006 8.79189 25.6873 8.84219C25.6739 8.8925 25.6496 8.93925 25.6162 8.97917C25.5828 9.01908 25.5411 9.05119 25.4939 9.07322C25.4467 9.09524 25.3953 9.10666 25.3433 9.10666C25.2912 9.10666 25.2398 9.09524 25.1926 9.07322C25.1455 9.05119 25.1037 9.01908 25.0703 8.97917C25.0369 8.93925 25.0126 8.8925 24.9993 8.84219C24.9859 8.79189 24.9837 8.73926 24.9929 8.68802C25.0076 8.60579 25.0507 8.53136 25.1148 8.47774Z" fill="#D8AA3F"/>
<path fill-rule="evenodd" clip-rule="evenodd" d="M27.4219 9.47461C31.3682 4.71973 34.8135 5.2998 39.3135 4.97461C39.4629 5.52832 39.4014 6.35449 37.2656 7.08398C34.3301 7.52344 29.083 10.6172 29.0566 10.6172C28.0811 10.5645 27.3955 9.54492 27.4219 9.47461Z" fill="#FFC84B"/>
<path fill-rule="evenodd" clip-rule="evenodd" d="M39.3729 4.89102L39.3899 4.95401C39.4684 5.24516 39.4928 5.61704 39.2107 6.00955C38.9328 6.3963 38.3649 6.79212 37.2912 7.15885L37.2844 7.16116L37.2773 7.16223C35.8232 7.37991 33.7877 8.25771 32.1051 9.08635C31.2655 9.49988 30.5165 9.89975 29.9756 10.1963C29.7053 10.3445 29.4869 10.467 29.3354 10.5523C29.3046 10.5697 29.2765 10.5855 29.2513 10.5997C29.2145 10.6205 29.1838 10.6378 29.1596 10.6513C29.1393 10.6627 29.1233 10.6717 29.112 10.6778C29.1064 10.6808 29.1014 10.6835 29.0975 10.6855C29.0956 10.6864 29.0931 10.6877 29.0905 10.6889C29.0893 10.6894 29.0869 10.6904 29.0839 10.6915C29.0824 10.692 29.0788 10.6932 29.0766 10.6938C29.0731 10.6946 29.0632 10.696 29.0566 10.6963H29.0545L29.0524 10.6962C28.5385 10.6684 28.1064 10.3869 27.8096 10.1104C27.6606 9.9715 27.5434 9.83179 27.4646 9.72133C27.4253 9.66624 27.3947 9.61726 27.3744 9.57836C27.3644 9.55915 27.3558 9.54048 27.3502 9.52365C27.3474 9.51532 27.3446 9.50538 27.3431 9.4948C27.3419 9.48609 27.3401 9.46737 27.3478 9.44685L27.4219 9.47462L27.361 9.4241C29.3438 7.03508 31.2057 5.98136 33.1405 5.48685C34.5334 5.13084 35.966 5.06521 37.4992 4.99498C38.0862 4.96809 38.6879 4.94052 39.3078 4.89572L39.3729 4.89102ZM27.5089 9.4937C27.5106 9.49715 27.5125 9.50096 27.5147 9.50512C27.5306 9.53564 27.5569 9.57826 27.5934 9.62947C27.6662 9.73159 27.7765 9.86324 27.9175 9.99463C28.1965 10.2546 28.5871 10.5055 29.0399 10.5369C29.05 10.5314 29.0641 10.5235 29.0822 10.5134C29.1062 10.4999 29.1367 10.4827 29.1733 10.4621C29.1986 10.4478 29.2267 10.432 29.2577 10.4145C29.4096 10.3289 29.6285 10.2062 29.8996 10.0576C30.4417 9.7603 31.1929 9.35927 32.0352 8.94443C33.714 8.11766 35.7659 7.23038 37.2468 7.00684C38.3044 6.64476 38.8333 6.26363 39.0823 5.91723C39.3082 5.60273 39.3094 5.30801 39.2528 5.05826C38.6461 5.10103 38.0603 5.12786 37.4909 5.15395C35.9643 5.22389 34.5557 5.28842 33.1796 5.64013C31.2886 6.12344 29.4626 7.15011 27.5089 9.4937Z" fill="#D8AA3F"/>
<path fill-rule="evenodd" clip-rule="evenodd" d="M35.4552 6.36849C35.4571 6.32485 35.4941 6.29107 35.5378 6.29305L38.4469 6.42489C38.4906 6.42687 38.5244 6.46385 38.5224 6.50749C38.5204 6.55113 38.4834 6.58491 38.4398 6.58293L35.5306 6.45109C35.487 6.44911 35.4532 6.41213 35.4552 6.36849ZM35.1389 6.84893C35.1426 6.80539 35.1808 6.77303 35.2243 6.77664L37.3425 6.95242C37.386 6.95603 37.4184 6.99426 37.4148 7.03779C37.4112 7.08133 37.3729 7.1137 37.3294 7.11008L35.2112 6.9343C35.1677 6.93069 35.1353 6.89247 35.1389 6.84893Z" fill="#D9A43E"/>
</g>
<defs>
<clipPath id="clip0_264_19745">
<rect width="60" height="45" fill="white"/>
</clipPath>
</defs>
</svg>
