<svg width="60" height="45" viewBox="0 0 60 45" fill="none" xmlns="http://www.w3.org/2000/svg">
<g clip-path="url(#clip0_264_19986)">
<path d="M0 0H60V22.5H0V0Z" fill="#002B7F"/>
<path d="M0 22.5H60V45H0V22.5Z" fill="#CE1126"/>
<path d="M16.23 9.1725L16.0875 13.86H11.3325C10.7475 12.72 10.2675 11.76 10.2675 10.4475C10.2675 9.3525 11.13 8.4825 12.3675 8.4825C13.68 8.4825 15.1275 8.925 16.23 9.1725Z" fill="#FFD83D"/>
<path d="M10.8375 9.39V12.09V9.39ZM11.2125 9.1125V12.7125V9.1125ZM11.6025 8.925V13.215V8.925ZM11.9775 8.83501V12.2025V8.83501ZM12.36 8.82V12.2175V8.82ZM12.7425 8.6925V12.2175V8.6925ZM13.125 8.6925V12.2175V8.6925ZM13.5075 8.73V12.255V8.73ZM13.89 8.7675V12.285V8.7675ZM14.2725 8.98501V12.51V8.98501ZM14.6475 9.02251V12.99V9.02251ZM15.0375 9.02251V12.5475V9.02251ZM15.4125 9.02251V12.5475V9.02251Z" fill="#FFD83D"/>
<path fill-rule="evenodd" clip-rule="evenodd" d="M12.7424 8.63626C12.7735 8.63626 12.7987 8.66144 12.7987 8.69251V12.2175C12.7987 12.2486 12.7735 12.2738 12.7424 12.2738C12.7114 12.2738 12.6862 12.2486 12.6862 12.2175V8.69251C12.6862 8.66144 12.7114 8.63626 12.7424 8.63626ZM13.1249 8.63626C13.156 8.63626 13.1812 8.66144 13.1812 8.69251V12.2175C13.1812 12.2486 13.156 12.2738 13.1249 12.2738C13.0939 12.2738 13.0687 12.2486 13.0687 12.2175V8.69251C13.0687 8.66144 13.0939 8.63626 13.1249 8.63626ZM13.5074 8.67376C13.5385 8.67376 13.5637 8.69894 13.5637 8.73001V12.255C13.5637 12.2861 13.5385 12.3113 13.5074 12.3113C13.4764 12.3113 13.4512 12.2861 13.4512 12.255V8.73001C13.4512 8.69894 13.4764 8.67376 13.5074 8.67376ZM13.8899 8.71126C13.921 8.71126 13.9462 8.73644 13.9462 8.76751V12.285C13.9462 12.3161 13.921 12.3413 13.8899 12.3413C13.8589 12.3413 13.8337 12.3161 13.8337 12.285V8.76751C13.8337 8.73644 13.8589 8.71126 13.8899 8.71126ZM12.3599 8.76376C12.391 8.76376 12.4162 8.78894 12.4162 8.82001V12.2175C12.4162 12.2486 12.391 12.2738 12.3599 12.2738C12.3289 12.2738 12.3037 12.2486 12.3037 12.2175V8.82001C12.3037 8.78894 12.3289 8.76376 12.3599 8.76376ZM11.9774 8.77876C12.0085 8.77876 12.0337 8.80395 12.0337 8.83501V12.2025C12.0337 12.2336 12.0085 12.2588 11.9774 12.2588C11.9464 12.2588 11.9212 12.2336 11.9212 12.2025V8.83501C11.9212 8.80395 11.9464 8.77876 11.9774 8.77876ZM11.6024 8.86876C11.6335 8.86876 11.6587 8.89394 11.6587 8.92501V13.215C11.6587 13.2461 11.6335 13.2713 11.6024 13.2713C11.5714 13.2713 11.5462 13.2461 11.5462 13.215V8.92501C11.5462 8.89394 11.5714 8.86876 11.6024 8.86876ZM14.2724 8.92876C14.3035 8.92876 14.3287 8.95395 14.3287 8.98501V12.51C14.3287 12.5411 14.3035 12.5663 14.2724 12.5663C14.2414 12.5663 14.2162 12.5411 14.2162 12.51V8.98501C14.2162 8.95395 14.2414 8.92876 14.2724 8.92876ZM14.6474 8.96626C14.6785 8.96626 14.7037 8.99145 14.7037 9.02251V12.99C14.7037 13.0211 14.6785 13.0463 14.6474 13.0463C14.6164 13.0463 14.5912 13.0211 14.5912 12.99V9.02251C14.5912 8.99145 14.6164 8.96626 14.6474 8.96626ZM15.0374 8.96626C15.0685 8.96626 15.0937 8.99145 15.0937 9.02251V12.5475C15.0937 12.5786 15.0685 12.6038 15.0374 12.6038C15.0064 12.6038 14.9812 12.5786 14.9812 12.5475V9.02251C14.9812 8.99145 15.0064 8.96626 15.0374 8.96626ZM15.4124 8.96626C15.4435 8.96626 15.4687 8.99145 15.4687 9.02251V12.5475C15.4687 12.5786 15.4435 12.6038 15.4124 12.6038C15.3814 12.6038 15.3562 12.5786 15.3562 12.5475V9.02251C15.3562 8.99145 15.3814 8.96626 15.4124 8.96626ZM11.2124 9.05626C11.2435 9.05626 11.2687 9.08144 11.2687 9.11251V12.7125C11.2687 12.7436 11.2435 12.7688 11.2124 12.7688C11.1814 12.7688 11.1562 12.7436 11.1562 12.7125V9.11251C11.1562 9.08144 11.1814 9.05626 11.2124 9.05626ZM10.8374 9.33376C10.8685 9.33376 10.8937 9.35894 10.8937 9.39001V12.09C10.8937 12.1211 10.8685 12.1463 10.8374 12.1463C10.8064 12.1463 10.7812 12.1211 10.7812 12.09V9.39001C10.7812 9.35894 10.8064 9.33376 10.8374 9.33376Z" fill="black"/>
<path d="M13.23 8.85001C14.04 8.97751 15.81 9.81001 15.6075 10.9275C15.3225 12.5175 14.3925 11.88 13.1625 11.655L12.2325 11.9625C11.895 12.3 11.4075 12.615 11.0775 12.2025H10.5225V14.3625H16.6275V9.15001L13.23 8.85001Z" fill="black"/>
<path fill-rule="evenodd" clip-rule="evenodd" d="M13.1741 8.84316C13.1778 8.81307 13.2047 8.79132 13.2349 8.79398L16.6324 9.09398C16.6614 9.09655 16.6837 9.12087 16.6837 9.15002V14.3625C16.6837 14.3936 16.6585 14.4188 16.6274 14.4188H10.5224C10.4914 14.4188 10.4662 14.3936 10.4662 14.3625V12.2025C10.4662 12.1714 10.4914 12.1463 10.5224 12.1463H11.0774C11.0945 12.1463 11.1107 12.154 11.1214 12.1674C11.1971 12.262 11.279 12.3118 11.3627 12.3318C11.4471 12.3519 11.5385 12.3428 11.6341 12.3105C11.8271 12.2453 12.0259 12.0895 12.1927 11.9227C12.1989 11.9165 12.2064 11.9119 12.2148 11.9091L13.1448 11.6016C13.1537 11.5986 13.1633 11.598 13.1726 11.5997C13.4113 11.6434 13.6394 11.7026 13.8516 11.7577C13.9149 11.7741 13.9767 11.7901 14.037 11.8053C14.3019 11.8719 14.5355 11.9211 14.7378 11.9157C14.9373 11.9103 15.1028 11.8521 15.2366 11.7057C15.3727 11.5567 15.4816 11.3106 15.5521 10.9176L15.5521 10.9175C15.647 10.3934 15.2809 9.9248 14.7661 9.56356C14.2543 9.20451 13.6173 8.96794 13.2212 8.90558C13.1912 8.90087 13.1704 8.87326 13.1741 8.84316ZM13.8423 8.96056C14.166 9.07997 14.5206 9.25393 14.8307 9.47147C15.3527 9.83772 15.7703 10.3441 15.6628 10.9375C15.5907 11.3394 15.4765 11.6099 15.3197 11.7816C15.1605 11.9557 14.9632 12.0222 14.7408 12.0281C14.5212 12.034 14.2739 11.9809 14.0096 11.9144C13.9477 11.8988 13.8847 11.8825 13.8208 11.8659C13.6135 11.8121 13.3955 11.7555 13.1664 11.7129L12.2627 12.0118C12.0936 12.1793 11.8838 12.3449 11.6701 12.4171C11.5604 12.4541 11.447 12.4675 11.3366 12.4412C11.2327 12.4165 11.1361 12.3576 11.051 12.2588H10.5787V14.3063H16.5712V9.20152L13.8423 8.96056Z" fill="black"/>
<path d="M15.96 8.8425C16.1629 8.8425 16.3275 8.67796 16.3275 8.475C16.3275 8.27203 16.1629 8.1075 15.96 8.1075C15.757 8.1075 15.5925 8.27203 15.5925 8.475C15.5925 8.67796 15.757 8.8425 15.96 8.8425Z" fill="#FFD83D"/>
<path fill-rule="evenodd" clip-rule="evenodd" d="M15.96 8.1825C15.7984 8.1825 15.6675 8.31346 15.6675 8.475C15.6675 8.63654 15.7984 8.7675 15.96 8.7675C16.1215 8.7675 16.2525 8.63654 16.2525 8.475C16.2525 8.31346 16.1215 8.1825 15.96 8.1825ZM15.5175 8.475C15.5175 8.23062 15.7156 8.0325 15.96 8.0325C16.2043 8.0325 16.4025 8.23062 16.4025 8.475C16.4025 8.71939 16.2043 8.9175 15.96 8.9175C15.7156 8.9175 15.5175 8.71939 15.5175 8.475Z" fill="black"/>
<path d="M15.1274 8.64C15.3304 8.64 15.4949 8.47546 15.4949 8.2725C15.4949 8.06953 15.3304 7.905 15.1274 7.905C14.9245 7.905 14.7599 8.06953 14.7599 8.2725C14.7599 8.47546 14.9245 8.64 15.1274 8.64Z" fill="#FFD83D"/>
<path fill-rule="evenodd" clip-rule="evenodd" d="M15.1274 7.98C14.9659 7.98 14.8349 8.11096 14.8349 8.2725C14.8349 8.43405 14.9659 8.565 15.1274 8.565C15.289 8.565 15.4199 8.43404 15.4199 8.2725C15.4199 8.11096 15.289 7.98 15.1274 7.98ZM14.6849 8.2725C14.6849 8.02812 14.883 7.83 15.1274 7.83C15.3718 7.83 15.5699 8.02812 15.5699 8.2725C15.5699 8.51689 15.3718 8.715 15.1274 8.715C14.8831 8.715 14.6849 8.51689 14.6849 8.2725Z" fill="black"/>
<path d="M14.28 8.43001C14.4829 8.43001 14.6475 8.26547 14.6475 8.06251C14.6475 7.85954 14.4829 7.69501 14.28 7.69501C14.077 7.69501 13.9125 7.85954 13.9125 8.06251C13.9125 8.26547 14.077 8.43001 14.28 8.43001Z" fill="#FFD83D"/>
<path fill-rule="evenodd" clip-rule="evenodd" d="M14.28 7.77001C14.1184 7.77001 13.9875 7.90097 13.9875 8.06251C13.9875 8.22405 14.1184 8.35501 14.28 8.35501C14.4415 8.35501 14.5725 8.22405 14.5725 8.06251C14.5725 7.90097 14.4415 7.77001 14.28 7.77001ZM13.8375 8.06251C13.8375 7.81812 14.0356 7.62001 14.28 7.62001C14.5243 7.62001 14.7225 7.81812 14.7225 8.06251C14.7225 8.3069 14.5243 8.50501 14.28 8.50501C14.0356 8.50501 13.8375 8.3069 13.8375 8.06251Z" fill="black"/>
<path d="M13.4324 8.28751C13.6354 8.28751 13.7999 8.12297 13.7999 7.92001C13.7999 7.71704 13.6354 7.55251 13.4324 7.55251C13.2295 7.55251 13.0649 7.71704 13.0649 7.92001C13.0649 8.12297 13.2295 8.28751 13.4324 8.28751Z" fill="#FFD83D"/>
<path fill-rule="evenodd" clip-rule="evenodd" d="M13.4325 7.62751C13.2709 7.62751 13.14 7.75847 13.14 7.92001C13.14 8.08155 13.2709 8.21251 13.4325 8.21251C13.594 8.21251 13.725 8.08155 13.725 7.92001C13.725 7.75847 13.594 7.62751 13.4325 7.62751ZM12.99 7.92001C12.99 7.67562 13.1881 7.47751 13.4325 7.47751C13.6769 7.47751 13.875 7.67562 13.875 7.92001C13.875 8.16439 13.6769 8.36251 13.4325 8.36251C13.1881 8.36251 12.99 8.16439 12.99 7.92001Z" fill="black"/>
<path d="M12.585 8.205C12.7879 8.205 12.9525 8.04047 12.9525 7.8375C12.9525 7.63454 12.7879 7.47 12.585 7.47C12.382 7.47 12.2175 7.63454 12.2175 7.8375C12.2175 8.04047 12.382 8.205 12.585 8.205Z" fill="#FFD83D"/>
<path fill-rule="evenodd" clip-rule="evenodd" d="M12.585 7.545C12.4234 7.545 12.2925 7.67596 12.2925 7.8375C12.2925 7.99905 12.4234 8.13 12.585 8.13C12.7465 8.13 12.8775 7.99905 12.8775 7.8375C12.8775 7.67596 12.7465 7.545 12.585 7.545ZM12.1425 7.8375C12.1425 7.59312 12.3406 7.395 12.585 7.395C12.8293 7.395 13.0275 7.59312 13.0275 7.8375C13.0275 8.08189 12.8293 8.28 12.585 8.28C12.3406 8.28 12.1425 8.08189 12.1425 7.8375Z" fill="black"/>
<path d="M11.76 8.25C11.9629 8.25 12.1275 8.08546 12.1275 7.8825C12.1275 7.67953 11.9629 7.515 11.76 7.515C11.557 7.515 11.3925 7.67953 11.3925 7.8825C11.3925 8.08546 11.557 8.25 11.76 8.25Z" fill="#FFD83D"/>
<path fill-rule="evenodd" clip-rule="evenodd" d="M11.7599 7.59C11.5984 7.59 11.4674 7.72096 11.4674 7.8825C11.4674 8.04405 11.5984 8.175 11.7599 8.175C11.9215 8.175 12.0524 8.04405 12.0524 7.8825C12.0524 7.72096 11.9215 7.59 11.7599 7.59ZM11.3174 7.8825C11.3174 7.63812 11.5156 7.44 11.7599 7.44C12.0043 7.44 12.2024 7.63812 12.2024 7.8825C12.2024 8.12689 12.0043 8.325 11.7599 8.325C11.5156 8.325 11.3174 8.12689 11.3174 7.8825Z" fill="black"/>
<path d="M10.965 8.52C11.1679 8.52 11.3325 8.35547 11.3325 8.1525C11.3325 7.94954 11.1679 7.785 10.965 7.785C10.762 7.785 10.5975 7.94954 10.5975 8.1525C10.5975 8.35547 10.762 8.52 10.965 8.52Z" fill="#FFD83D"/>
<path fill-rule="evenodd" clip-rule="evenodd" d="M10.965 7.86001C10.8034 7.86001 10.6725 7.99096 10.6725 8.15251C10.6725 8.31405 10.8034 8.44501 10.965 8.44501C11.1265 8.44501 11.2575 8.31405 11.2575 8.15251C11.2575 7.99096 11.1265 7.86001 10.965 7.86001ZM10.5225 8.15251C10.5225 7.90812 10.7206 7.71001 10.965 7.71001C11.2093 7.71001 11.4075 7.90812 11.4075 8.15251C11.4075 8.39689 11.2093 8.59501 10.965 8.59501C10.7206 8.59501 10.5225 8.39689 10.5225 8.15251Z" fill="black"/>
<path d="M10.2975 9.015C10.5005 9.015 10.665 8.85046 10.665 8.6475C10.665 8.44453 10.5005 8.28 10.2975 8.28C10.0945 8.28 9.92999 8.44453 9.92999 8.6475C9.92999 8.85046 10.0945 9.015 10.2975 9.015Z" fill="#FFD83D"/>
<path fill-rule="evenodd" clip-rule="evenodd" d="M10.2975 8.355C10.1359 8.355 10.005 8.48596 10.005 8.6475C10.005 8.80904 10.1359 8.94 10.2975 8.94C10.459 8.94 10.59 8.80905 10.59 8.6475C10.59 8.48596 10.459 8.355 10.2975 8.355ZM9.85498 8.6475C9.85498 8.40312 10.0531 8.205 10.2975 8.205C10.5419 8.205 10.74 8.40312 10.74 8.6475C10.74 8.89189 10.5419 9.09 10.2975 9.09C10.0531 9.09 9.85498 8.89189 9.85498 8.6475Z" fill="black"/>
<path d="M9.82496 9.69751C10.0279 9.69751 10.1925 9.53297 10.1925 9.33001C10.1925 9.12704 10.0279 8.96251 9.82496 8.96251C9.62199 8.96251 9.45746 9.12704 9.45746 9.33001C9.45746 9.53297 9.62199 9.69751 9.82496 9.69751Z" fill="#FFD83D"/>
<path fill-rule="evenodd" clip-rule="evenodd" d="M9.82495 9.0375C9.6634 9.0375 9.53245 9.16845 9.53245 9.33C9.53245 9.49154 9.6634 9.6225 9.82495 9.6225C9.98649 9.6225 10.1174 9.49154 10.1174 9.33C10.1174 9.16845 9.98649 9.0375 9.82495 9.0375ZM9.38245 9.33C9.38245 9.08561 9.58056 8.8875 9.82495 8.8875C10.0693 8.8875 10.2674 9.08561 10.2674 9.33C10.2674 9.57438 10.0693 9.7725 9.82495 9.7725C9.58056 9.7725 9.38245 9.57438 9.38245 9.33Z" fill="black"/>
<path d="M9.59248 10.5075C9.79544 10.5075 9.95998 10.343 9.95998 10.14C9.95998 9.93704 9.79544 9.77251 9.59248 9.77251C9.38951 9.77251 9.22498 9.93704 9.22498 10.14C9.22498 10.343 9.38951 10.5075 9.59248 10.5075Z" fill="#FFD83D"/>
<path fill-rule="evenodd" clip-rule="evenodd" d="M9.59246 9.84751C9.43092 9.84751 9.29996 9.97847 9.29996 10.14C9.29996 10.3016 9.43092 10.4325 9.59246 10.4325C9.75401 10.4325 9.88496 10.3016 9.88496 10.14C9.88496 9.97847 9.75401 9.84751 9.59246 9.84751ZM9.14996 10.14C9.14996 9.89562 9.34808 9.69751 9.59246 9.69751C9.83685 9.69751 10.035 9.89562 10.035 10.14C10.035 10.3844 9.83685 10.5825 9.59246 10.5825C9.34808 10.5825 9.14996 10.3844 9.14996 10.14Z" fill="black"/>
<path d="M9.59998 11.34C9.80295 11.34 9.96748 11.1755 9.96748 10.9725C9.96748 10.7695 9.80295 10.605 9.59998 10.605C9.39702 10.605 9.23248 10.7695 9.23248 10.9725C9.23248 11.1755 9.39702 11.34 9.59998 11.34Z" fill="#FFD83D"/>
<path fill-rule="evenodd" clip-rule="evenodd" d="M9.59997 10.68C9.43843 10.68 9.30747 10.811 9.30747 10.9725C9.30747 11.134 9.43843 11.265 9.59997 11.265C9.76151 11.265 9.89247 11.134 9.89247 10.9725C9.89247 10.811 9.76151 10.68 9.59997 10.68ZM9.15747 10.9725C9.15747 10.7281 9.35558 10.53 9.59997 10.53C9.84436 10.53 10.0425 10.7281 10.0425 10.9725C10.0425 11.2169 9.84436 11.415 9.59997 11.415C9.35558 11.415 9.15747 11.2169 9.15747 10.9725Z" fill="black"/>
<path d="M9.76496 12.1575C9.96793 12.1575 10.1325 11.993 10.1325 11.79C10.1325 11.587 9.96793 11.4225 9.76496 11.4225C9.562 11.4225 9.39746 11.587 9.39746 11.79C9.39746 11.993 9.562 12.1575 9.76496 12.1575Z" fill="#FFD83D"/>
<path fill-rule="evenodd" clip-rule="evenodd" d="M9.76495 11.4975C9.6034 11.4975 9.47245 11.6285 9.47245 11.79C9.47245 11.9515 9.60341 12.0825 9.76495 12.0825C9.92649 12.0825 10.0574 11.9515 10.0574 11.79C10.0574 11.6285 9.92649 11.4975 9.76495 11.4975ZM9.32245 11.79C9.32245 11.5456 9.52056 11.3475 9.76495 11.3475C10.0093 11.3475 10.2074 11.5456 10.2074 11.79C10.2074 12.0344 10.0093 12.2325 9.76495 12.2325C9.52056 12.2325 9.32245 12.0344 9.32245 11.79Z" fill="black"/>
<path d="M16.125 8.96251L16.0875 9.45001C15.165 9.30001 13.86 8.79001 12.6375 8.79001C11.5125 8.79001 10.6425 9.24001 10.6425 10.38C10.6425 11.4975 11.115 12.5175 11.745 13.5525L11.0925 13.8525C10.5075 12.7275 10.02 11.7525 10.02 10.4475C10.02 9.35251 10.8825 8.27251 12.3675 8.27251C13.68 8.27251 15.0225 8.72251 16.125 8.96251Z" fill="#FFD83D"/>
<path fill-rule="evenodd" clip-rule="evenodd" d="M12.3674 8.34751C10.9248 8.34751 10.0949 9.39294 10.0949 10.4475C10.0949 11.708 10.5558 12.656 11.126 13.7545L11.6373 13.5195C11.027 12.5056 10.5674 11.4925 10.5674 10.38C10.5674 9.78813 10.7948 9.36681 11.1746 9.09641C11.5503 8.82886 12.0668 8.71501 12.6374 8.71501C13.2581 8.71501 13.8972 8.84437 14.4929 8.99093C14.6769 9.0362 14.8561 9.08294 15.0294 9.12812C15.3883 9.22169 15.7217 9.30861 16.019 9.36217L16.0452 9.02173C15.7873 8.96424 15.5171 8.89625 15.239 8.82617L15.23 8.82391C14.9312 8.74863 14.623 8.67099 14.3086 8.6007C13.6732 8.45867 13.0156 8.34751 12.3674 8.34751ZM16.1249 8.96251L16.1409 8.88923C15.8667 8.82953 15.5773 8.75672 15.2756 8.68072L15.2658 8.67824C14.9676 8.60311 14.6577 8.52505 14.3413 8.45432C13.7017 8.31134 13.0318 8.19751 12.3674 8.19751C10.84 8.19751 9.94495 9.31208 9.94495 10.4475C9.94495 11.7729 10.4412 12.7627 11.0259 13.8871C11.0444 13.9226 11.0874 13.9374 11.1238 13.9207L11.7763 13.6207C11.7957 13.6117 11.8104 13.5949 11.8167 13.5744C11.8229 13.554 11.8201 13.5318 11.809 13.5135C11.1808 12.4815 10.7174 11.4762 10.7174 10.38C10.7174 9.83189 10.9251 9.45821 11.2616 9.2186C11.6021 8.97616 12.0831 8.86501 12.6374 8.86501C13.2393 8.86501 13.8639 8.99064 14.457 9.13659C14.6354 9.18047 14.8114 9.22636 14.9832 9.27113C15.3786 9.37421 15.7511 9.47131 16.0754 9.52404C16.0961 9.52741 16.1173 9.52194 16.1338 9.50896C16.1503 9.49599 16.1606 9.47669 16.1622 9.45576L16.1997 8.96826L16.1249 8.96251Z" fill="black"/>
<path d="M16.65 3.98251L16.26 4.71001L16.65 5.43001L17.0325 4.71001L16.65 3.97501V3.98251ZM16.65 5.81251L16.26 6.53251L16.65 7.26001L17.025 6.52501L16.6425 5.80501L16.65 5.81251ZM15.27 5.62501L15.8775 6.00751L16.485 5.62501L15.885 5.23501L15.27 5.62501ZM16.8075 5.62501L17.415 6.00751L18.03 5.62501L17.415 5.23501L16.815 5.62501H16.8075Z" fill="#FFD83D"/>
<path fill-rule="evenodd" clip-rule="evenodd" d="M16.6322 3.90215C16.6658 3.89394 16.7006 3.90972 16.7165 3.94038L17.099 4.67538C17.1104 4.69728 17.1103 4.72338 17.0987 4.74519L16.7162 5.46519C16.7033 5.48959 16.6779 5.50489 16.6503 5.505C16.6227 5.50511 16.5972 5.49002 16.5841 5.46572L16.1941 4.74572C16.182 4.72354 16.182 4.6968 16.1939 4.67457L16.5763 3.96133C16.5815 3.93274 16.6031 3.90926 16.6322 3.90215ZM16.651 4.13938L16.3452 4.70982L16.6494 5.27135L16.9478 4.70964L16.651 4.13938ZM15.8448 5.17166C15.8696 5.15595 15.9013 5.15613 15.9259 5.17212L16.5259 5.56212C16.5473 5.57606 16.5602 5.59997 16.56 5.62554C16.5598 5.65112 16.5466 5.67484 16.525 5.68847L15.9175 6.07097C15.893 6.08635 15.862 6.08635 15.8375 6.07097L15.23 5.68847C15.2083 5.67476 15.195 5.65085 15.195 5.62512C15.195 5.59939 15.2081 5.57544 15.2298 5.56166L15.8448 5.17166ZM17.3741 5.17212C17.3987 5.15613 17.4304 5.15595 17.4552 5.17166L18.0702 5.56166C18.092 5.57548 18.1051 5.59953 18.105 5.62533C18.1049 5.65113 18.0915 5.67506 18.0696 5.68869L17.4546 6.07119C17.4302 6.08635 17.3993 6.08627 17.375 6.07097L16.7675 5.68847C16.7393 5.67067 16.7262 5.63631 16.7354 5.60421C16.743 5.57809 16.7638 5.55859 16.7894 5.55223L17.3741 5.17212ZM16.9505 5.62639L17.4153 5.91903L17.889 5.62438L17.4155 5.32413L16.9505 5.62639ZM15.4104 5.62477L15.8775 5.91887L16.3458 5.624L15.8845 5.32413L15.4104 5.62477ZM16.5979 5.7447C16.6278 5.72262 16.6693 5.72571 16.6955 5.75197L16.703 5.75947C16.7137 5.77018 16.7207 5.78352 16.7235 5.79763L17.0912 6.48981C17.1027 6.51143 17.1029 6.53729 17.0918 6.55909L16.7168 7.29409C16.7041 7.31895 16.6787 7.33471 16.6508 7.335C16.6229 7.33528 16.5971 7.32004 16.5839 7.29544L16.1939 6.56794C16.182 6.5457 16.182 6.51896 16.1941 6.49678L16.5675 5.80729C16.5668 5.78338 16.5776 5.75975 16.5979 5.7447ZM16.6476 5.97443L16.3452 6.53269L16.6484 7.0982L16.9405 6.5257L16.6476 5.97443Z" fill="black"/>
<path d="M16.65 5.925C16.8115 5.925 16.9425 5.79404 16.9425 5.6325C16.9425 5.47095 16.8115 5.34 16.65 5.34C16.4884 5.34 16.3575 5.47095 16.3575 5.6325C16.3575 5.79404 16.4884 5.925 16.65 5.925Z" fill="#FFD83D"/>
<path fill-rule="evenodd" clip-rule="evenodd" d="M16.65 5.415C16.5298 5.415 16.4325 5.51238 16.4325 5.6325C16.4325 5.75262 16.5298 5.85 16.65 5.85C16.7701 5.85 16.8675 5.75262 16.8675 5.6325C16.8675 5.51238 16.7701 5.415 16.65 5.415ZM16.2825 5.6325C16.2825 5.42954 16.447 5.265 16.65 5.265C16.8529 5.265 17.0175 5.42954 17.0175 5.6325C17.0175 5.83546 16.8529 6 16.65 6C16.447 6 16.2825 5.83546 16.2825 5.6325Z" fill="black"/>
<path d="M16.65 8.28749C17.0849 8.28749 17.4375 7.93492 17.4375 7.49999C17.4375 7.06507 17.0849 6.71249 16.65 6.71249C16.2151 6.71249 15.8625 7.06507 15.8625 7.49999C15.8625 7.93492 16.2151 8.28749 16.65 8.28749Z" fill="#FFD83D"/>
<path fill-rule="evenodd" clip-rule="evenodd" d="M16.65 6.7875C16.2565 6.7875 15.9375 7.10649 15.9375 7.5C15.9375 7.8935 16.2565 8.2125 16.65 8.2125C17.0435 8.2125 17.3625 7.8935 17.3625 7.5C17.3625 7.10649 17.0435 6.7875 16.65 6.7875ZM15.7875 7.5C15.7875 7.02365 16.1736 6.6375 16.65 6.6375C17.1263 6.6375 17.5125 7.02365 17.5125 7.5C17.5125 7.97634 17.1263 8.3625 16.65 8.3625C16.1736 8.3625 15.7875 7.97634 15.7875 7.5Z" fill="black"/>
<path fill-rule="evenodd" clip-rule="evenodd" d="M16.4475 6.68625C16.4786 6.68625 16.5037 6.71143 16.5037 6.7425V7.2375C16.5037 7.26751 16.4802 7.29224 16.4502 7.29368C16.2664 7.30253 16.0833 7.32233 15.9019 7.35296C15.8712 7.35814 15.8422 7.3375 15.837 7.30686C15.8319 7.27623 15.8525 7.24721 15.8831 7.24203C16.0514 7.21363 16.221 7.19432 16.3912 7.1842V6.7425C16.3912 6.71143 16.4164 6.68625 16.4475 6.68625ZM16.845 6.68625C16.8761 6.68625 16.9012 6.71143 16.9012 6.7425V7.18406C17.074 7.1939 17.2462 7.21325 17.4168 7.24203C17.4475 7.2472 17.4681 7.27622 17.463 7.30685C17.4578 7.33748 17.4288 7.35813 17.3981 7.35297C17.2143 7.32197 17.0287 7.30217 16.8424 7.29369C16.8124 7.29232 16.7887 7.26757 16.7887 7.2375V6.7425C16.7887 6.71143 16.8139 6.68625 16.845 6.68625ZM16.6497 7.57125L16.65 7.57125C16.9082 7.57125 17.1667 7.59403 17.4104 7.63971C17.4409 7.64544 17.461 7.67483 17.4553 7.70536C17.4496 7.7359 17.4202 7.75601 17.3896 7.75029C17.1533 7.70598 16.9019 7.68376 16.6501 7.68375C16.3969 7.6849 16.1441 7.7072 15.8946 7.75042C15.864 7.75572 15.8349 7.73521 15.8296 7.7046C15.8243 7.67399 15.8448 7.64488 15.8754 7.63957C16.1312 7.59528 16.3902 7.57242 16.6497 7.57125Z" fill="black"/>
<path d="M15.885 8.8275C15.81 10.1025 15.66 11.415 15.1575 12.36L15.9675 12.03C16.2525 10.9575 16.3125 9.57 16.395 8.91L15.885 8.8275ZM17.415 8.8275L16.8975 8.91C16.9875 9.57 17.0475 10.9575 17.325 12.03L18.135 12.36C17.64 11.415 17.49 10.11 17.415 8.8275Z" fill="#FFD83D"/>
<path fill-rule="evenodd" clip-rule="evenodd" d="M16.8857 8.83593L17.4032 8.75343L17.415 8.8275L17.4898 8.82312C17.5649 10.1065 17.7148 11.3962 18.2014 12.3252C18.216 12.3531 18.2116 12.3871 18.1905 12.4104C18.1693 12.4337 18.1358 12.4413 18.1067 12.4295L17.2967 12.0995C17.2747 12.0905 17.2583 12.0717 17.2524 12.0488C17.1122 11.5071 17.0274 10.8877 16.9663 10.3234C16.9398 10.0778 16.9178 9.84382 16.8978 9.63075C16.8715 9.35091 16.8486 9.10708 16.8231 8.92013C16.8176 8.87974 16.8454 8.84235 16.8857 8.83593ZM17.345 8.91459L16.9812 8.97259C17.0034 9.15098 17.0243 9.37368 17.0477 9.62234C17.0677 9.83544 17.0895 10.0676 17.1155 10.3072C17.1749 10.857 17.2564 11.4526 17.3883 11.9748L17.9808 12.2162C17.5571 11.2955 17.4169 10.0924 17.345 8.91459ZM15.8969 8.75346L16.4069 8.83596C16.4468 8.84241 16.4744 8.87924 16.4694 8.9193C16.4486 9.08585 16.429 9.30177 16.4067 9.54898C16.3418 10.2663 16.2531 11.2469 16.0399 12.0493C16.0339 12.072 16.0175 12.0906 15.9958 12.0995L15.1858 12.4295C15.1565 12.4414 15.123 12.4337 15.1018 12.4103C15.0806 12.3868 15.0764 12.3527 15.0912 12.3248C15.5851 11.396 15.735 10.0991 15.8101 8.82309L15.885 8.8275L15.8969 8.75346ZM15.9549 8.91478C15.883 10.0856 15.7427 11.2942 15.3131 12.2156L15.9044 11.9747C16.1071 11.1932 16.1921 10.2545 16.2558 9.54938C16.2756 9.33077 16.2934 9.13461 16.3119 8.97254L15.9549 8.91478Z" fill="black"/>
<path d="M16.65 11.6025C15.675 11.6025 14.9625 12.0525 14.925 13.2225C14.685 12.8025 13.6875 11.4975 12.75 11.67C12.195 11.775 11.7 12.5475 11.79 13.425C11.325 12.105 9.98249 11.8875 8.99249 12.675C9.86999 13.3875 10.26 15.51 10.995 16.425H22.2975C23.0325 15.51 23.4225 13.3875 24.3 12.675C23.3175 11.8875 21.9675 12.105 21.51 13.425C21.585 12.5475 21.0975 11.775 20.535 11.67C19.605 11.4975 18.6075 12.8025 18.3675 13.2225C18.33 12.06 17.6175 11.6025 16.6425 11.6025H16.65Z" fill="#FFD83D"/>
<path fill-rule="evenodd" clip-rule="evenodd" d="M16.6411 11.5275C16.6416 11.5275 16.642 11.5275 16.6425 11.5275H16.65M16.6514 11.5275C17.1458 11.5289 17.5842 11.6459 17.9052 11.9195C18.1867 12.1594 18.3695 12.5125 18.4257 12.9913C18.5848 12.7595 18.8385 12.4426 19.1422 12.1684C19.5404 11.8089 20.0464 11.5031 20.5487 11.5963L20.5487 11.5963C20.8584 11.6541 21.1368 11.8924 21.3265 12.2202C21.4648 12.4593 21.5588 12.7503 21.5851 13.0656C21.8438 12.5844 22.2423 12.2915 22.691 12.1867C23.2339 12.0598 23.8402 12.2103 24.3469 12.6165C24.3646 12.6307 24.3749 12.6521 24.375 12.6748C24.3751 12.6974 24.3649 12.7189 24.3473 12.7332C24.1389 12.9024 23.9556 13.1588 23.7861 13.4688C23.6168 13.7783 23.4642 14.1355 23.3147 14.5024C23.2795 14.5889 23.2444 14.676 23.2093 14.7631C23.0962 15.0438 22.9832 15.3243 22.8654 15.5842C22.711 15.9246 22.5457 16.2357 22.356 16.472C22.3417 16.4897 22.3202 16.5 22.2975 16.5H10.995C10.9722 16.5 10.9507 16.4897 10.9365 16.472C10.7468 16.2357 10.5815 15.9246 10.4271 15.5842C10.3092 15.3243 10.1962 15.0438 10.0831 14.763C10.048 14.676 10.013 14.5889 9.97771 14.5024C9.82826 14.1355 9.67564 13.7783 9.50641 13.4688C9.33683 13.1588 9.15352 12.9024 8.9452 12.7332C8.92756 12.7189 8.91737 12.6973 8.91748 12.6746C8.9176 12.6519 8.92801 12.6304 8.94579 12.6163C9.4561 12.2104 10.0623 12.0598 10.6052 12.1867C11.0523 12.2911 11.4494 12.5823 11.7102 13.0601C11.7337 12.747 11.8263 12.458 11.9631 12.2204C12.1518 11.8926 12.4301 11.6542 12.736 11.5963L12.7364 11.5962C13.2422 11.5032 13.7499 11.8087 14.1492 12.1683C14.4537 12.4425 14.7075 12.7593 14.8667 12.9912C14.9226 12.5094 15.1055 12.1559 15.3874 11.9166C15.7085 11.6439 16.1469 11.5289 16.6411 11.5275M16.6462 11.6775C16.1707 11.6781 15.7701 11.7884 15.4845 12.0309C15.1998 12.2726 15.0182 12.6553 14.9999 13.2249C14.9989 13.2584 14.9756 13.2872 14.9431 13.2953C14.9105 13.3034 14.8765 13.2888 14.8599 13.2597C14.7434 13.056 14.439 12.6312 14.0488 12.2798C13.6551 11.9251 13.1954 11.6644 12.7637 11.7437C12.5147 11.7909 12.2681 11.9912 12.0931 12.2952C11.919 12.5977 11.8212 12.9944 11.8646 13.4173C11.8685 13.4551 11.8435 13.4899 11.8064 13.4982C11.7693 13.5065 11.7319 13.4858 11.7192 13.4499C11.4944 12.8116 11.0612 12.4473 10.571 12.3327C10.1034 12.2234 9.57434 12.3394 9.11123 12.6787C9.31084 12.8624 9.48291 13.1133 9.63801 13.3969C9.81167 13.7144 9.96701 14.0785 10.1166 14.4458C10.1524 14.5336 10.1878 14.6216 10.2231 14.7092C10.336 14.9892 10.4473 15.2655 10.5637 15.5223C10.7102 15.8454 10.8625 16.1319 11.0313 16.35H22.2611C22.43 16.1319 22.5822 15.8454 22.7287 15.5223C22.8452 15.2655 22.9565 14.9892 23.0693 14.7091C23.1046 14.6215 23.1401 14.5336 23.1758 14.4458C23.3254 14.0785 23.4808 13.7144 23.6545 13.3969C23.8096 13.1132 23.9818 12.8622 24.1815 12.6784C23.7217 12.3394 23.1928 12.2234 22.7252 12.3327C22.235 12.4473 21.802 12.8116 21.5808 13.4496C21.5685 13.4853 21.5314 13.5062 21.4944 13.4984C21.4574 13.4905 21.432 13.4563 21.4353 13.4186C21.4714 12.9951 21.3717 12.5979 21.1966 12.2954C21.0207 11.9913 20.7741 11.7909 20.5212 11.7437C20.0935 11.6644 19.6358 11.9249 19.2427 12.2797C18.8535 12.6311 18.549 13.056 18.4326 13.2597C18.4159 13.2888 18.382 13.3034 18.3494 13.2953C18.3168 13.2872 18.2936 13.2585 18.2925 13.2249C18.2743 12.6592 18.0927 12.2764 17.8079 12.0336C17.5222 11.7901 17.1215 11.6781 16.6462 11.6775Z" fill="black"/>
<path d="M22.2824 16.425C22.2824 16.845 19.7624 17.3025 16.6499 17.3025C13.5374 17.3025 11.0099 16.8525 11.0099 16.425C11.0099 16.0125 13.5374 15.7875 16.6499 15.7875C19.7549 15.7875 22.2824 16.0125 22.2824 16.425Z" fill="black"/>
<path fill-rule="evenodd" clip-rule="evenodd" d="M11.1539 16.3273C11.0823 16.3707 11.0662 16.4047 11.0662 16.425C11.0662 16.4496 11.0854 16.4887 11.1572 16.5395C11.2263 16.5885 11.3317 16.6391 11.4725 16.6895C11.7534 16.7901 12.1628 16.8858 12.6718 16.9685C13.6892 17.1339 15.0961 17.2462 16.65 17.2462C18.2038 17.2462 19.6088 17.132 20.6243 16.9657C21.1325 16.8825 21.5409 16.7866 21.8211 16.6863C21.9616 16.6361 22.0668 16.5858 22.1358 16.5373C22.2076 16.4868 22.2262 16.4484 22.2262 16.425C22.2262 16.4047 22.2102 16.3707 22.1386 16.3273C22.07 16.2856 21.9649 16.2446 21.824 16.2056C21.5431 16.1277 21.1338 16.0613 20.6247 16.0075C19.6074 15.9 18.2015 15.8437 16.65 15.8437C15.0947 15.8437 13.6869 15.9 12.6687 16.0075C12.1592 16.0613 11.7496 16.1277 11.4686 16.2056C11.3276 16.2446 11.2225 16.2856 11.1539 16.3273ZM12.6569 15.8956C13.6806 15.7875 15.0927 15.7312 16.65 15.7312C18.2035 15.7312 19.6138 15.7875 20.6365 15.8956C21.1475 15.9496 21.5641 16.0168 21.8541 16.0972C21.9986 16.1372 22.1153 16.1815 22.197 16.2311C22.2758 16.2789 22.3387 16.3422 22.3387 16.425C22.3387 16.5066 22.2786 16.5744 22.2005 16.6293C22.1195 16.6862 22.0035 16.7406 21.8591 16.7923C21.5695 16.8959 21.1534 16.9931 20.6425 17.0768C19.6199 17.2442 18.2087 17.3587 16.65 17.3587C15.0914 17.3587 13.6783 17.2461 12.6538 17.0796C12.1419 16.9964 11.7248 16.8994 11.4346 16.7954C11.2898 16.7435 11.1734 16.6889 11.0922 16.6314C11.0136 16.5757 10.9537 16.5073 10.9537 16.425C10.9537 16.3422 11.0167 16.2789 11.0955 16.2311C11.1772 16.1815 11.2939 16.1372 11.4385 16.0972C11.7286 16.0168 12.1455 15.9496 12.6569 15.8956Z" fill="black"/>
<path d="M16.65 8.84249C16.7949 8.84249 16.9125 8.72496 16.9125 8.57999C16.9125 8.43501 16.7949 8.31749 16.65 8.31749C16.505 8.31749 16.3875 8.43501 16.3875 8.57999C16.3875 8.72496 16.505 8.84249 16.65 8.84249Z" fill="#FFD83D"/>
<path fill-rule="evenodd" clip-rule="evenodd" d="M16.65 8.37375C16.5361 8.37375 16.4437 8.46609 16.4437 8.58C16.4437 8.6939 16.5361 8.78625 16.65 8.78625C16.7639 8.78625 16.8562 8.6939 16.8562 8.58C16.8562 8.46609 16.7639 8.37375 16.65 8.37375ZM16.3312 8.58C16.3312 8.40395 16.4739 8.26125 16.65 8.26125C16.826 8.26125 16.9687 8.40395 16.9687 8.58C16.9687 8.75604 16.826 8.89875 16.65 8.89875C16.4739 8.89875 16.3312 8.75604 16.3312 8.58Z" fill="black"/>
<path d="M16.65 9.4275C16.8033 9.4275 16.9275 9.30326 16.9275 9.15C16.9275 8.99674 16.8033 8.8725 16.65 8.8725C16.4967 8.8725 16.3725 8.99674 16.3725 9.15C16.3725 9.30326 16.4967 9.4275 16.65 9.4275Z" fill="#FFD83D"/>
<path fill-rule="evenodd" clip-rule="evenodd" d="M16.65 8.92874C16.5278 8.92874 16.4287 9.0278 16.4287 9.14999C16.4287 9.27218 16.5278 9.37124 16.65 9.37124C16.7722 9.37124 16.8712 9.27218 16.8712 9.14999C16.8712 9.0278 16.7722 8.92874 16.65 8.92874ZM16.3162 9.14999C16.3162 8.96566 16.4656 8.81624 16.65 8.81624C16.8343 8.81624 16.9837 8.96566 16.9837 9.14999C16.9837 9.33431 16.8343 9.48374 16.65 9.48374C16.4656 9.48374 16.3162 9.33431 16.3162 9.14999Z" fill="black"/>
<path d="M16.65 10.0725C16.8198 10.0725 16.9575 9.93482 16.9575 9.76499C16.9575 9.59516 16.8198 9.45749 16.65 9.45749C16.4801 9.45749 16.3425 9.59516 16.3425 9.76499C16.3425 9.93482 16.4801 10.0725 16.65 10.0725Z" fill="#FFD83D"/>
<path fill-rule="evenodd" clip-rule="evenodd" d="M16.6499 9.51375C16.5112 9.51375 16.3987 9.62623 16.3987 9.76499C16.3987 9.90376 16.5112 10.0162 16.6499 10.0162C16.7887 10.0162 16.9012 9.90376 16.9012 9.76499C16.9012 9.62623 16.7887 9.51375 16.6499 9.51375ZM16.2862 9.76499C16.2862 9.5641 16.4491 9.40125 16.6499 9.40125C16.8508 9.40125 17.0137 9.5641 17.0137 9.76499C17.0137 9.96589 16.8508 10.1287 16.6499 10.1287C16.4491 10.1287 16.2862 9.96589 16.2862 9.76499Z" fill="black"/>
<path d="M16.65 10.8C16.8447 10.8 17.0025 10.6422 17.0025 10.4475C17.0025 10.2528 16.8447 10.095 16.65 10.095C16.4553 10.095 16.2975 10.2528 16.2975 10.4475C16.2975 10.6422 16.4553 10.8 16.65 10.8Z" fill="#FFD83D"/>
<path fill-rule="evenodd" clip-rule="evenodd" d="M16.65 10.1512C16.4863 10.1512 16.3537 10.2839 16.3537 10.4475C16.3537 10.6111 16.4863 10.7437 16.65 10.7437C16.8136 10.7437 16.9462 10.6111 16.9462 10.4475C16.9462 10.2839 16.8136 10.1512 16.65 10.1512ZM16.2412 10.4475C16.2412 10.2217 16.4242 10.0387 16.65 10.0387C16.8757 10.0387 17.0587 10.2217 17.0587 10.4475C17.0587 10.6732 16.8757 10.8562 16.65 10.8562C16.4242 10.8562 16.2412 10.6732 16.2412 10.4475Z" fill="black"/>
<path d="M16.65 11.5875C16.8612 11.5875 17.0325 11.4162 17.0325 11.205C17.0325 10.9937 16.8612 10.8225 16.65 10.8225C16.4387 10.8225 16.2675 10.9937 16.2675 11.205C16.2675 11.4162 16.4387 11.5875 16.65 11.5875Z" fill="#FFD83D"/>
<path fill-rule="evenodd" clip-rule="evenodd" d="M16.65 10.8788C16.4698 10.8788 16.3237 11.0248 16.3237 11.205C16.3237 11.3852 16.4698 11.5313 16.65 11.5313C16.8302 11.5313 16.9762 11.3852 16.9762 11.205C16.9762 11.0248 16.8302 10.8788 16.65 10.8788ZM16.2112 11.205C16.2112 10.9627 16.4077 10.7663 16.65 10.7663C16.8923 10.7663 17.0887 10.9627 17.0887 11.205C17.0887 11.4473 16.8923 11.6438 16.65 11.6438C16.4077 11.6438 16.2112 11.4473 16.2112 11.205Z" fill="black"/>
<path d="M16.5 11.94C16.455 11.94 16.4175 11.9775 16.425 12.045L16.47 12.3675C16.485 12.48 16.545 12.4425 16.5675 12.3675C16.5825 12.2775 16.575 12.2175 16.5825 12.06C16.5825 11.9775 16.5375 11.94 16.4925 11.94H16.5ZM16.8 11.94C16.755 11.94 16.7175 11.9775 16.7175 12.06C16.7175 12.2175 16.7175 12.2775 16.7325 12.36C16.7475 12.45 16.8075 12.48 16.83 12.36L16.8675 12.045C16.8825 11.97 16.8375 11.94 16.8 11.94ZM16.2225 11.985C16.2026 11.985 16.1835 11.9929 16.1694 12.007C16.1554 12.021 16.1475 12.0401 16.1475 12.06C16.1475 12.135 16.17 12.2325 16.1775 12.345C16.1925 12.4575 16.275 12.42 16.2825 12.345C16.2825 12.285 16.2975 12.18 16.2825 12.0525C16.2825 12.0075 16.2675 11.985 16.2375 11.9775C16.2325 11.9769 16.2275 11.9769 16.2225 11.9775V11.985ZM17.055 11.985C17.0325 11.985 17.01 12.0075 17.0025 12.06C16.9984 12.1553 17.0035 12.2507 17.0175 12.345C17.0175 12.42 17.1075 12.4575 17.115 12.345C17.115 12.2325 17.145 12.1425 17.145 12.0675C17.145 12.0225 17.1075 11.9925 17.07 11.985C17.065 11.9844 17.06 11.9844 17.055 11.985ZM15.9 12.1125C15.8625 12.12 15.825 12.165 15.84 12.21C15.8625 12.3075 15.885 12.4125 15.885 12.51C15.885 12.5925 15.9525 12.5625 15.96 12.51C15.9658 12.4101 15.9683 12.3101 15.9675 12.21C15.9675 12.135 15.93 12.105 15.8925 12.1125H15.9ZM17.37 12.1125C17.3475 12.12 17.325 12.15 17.325 12.21L17.34 12.51C17.34 12.5625 17.415 12.5925 17.415 12.51C17.415 12.4125 17.43 12.3075 17.4525 12.21C17.4675 12.165 17.43 12.12 17.4 12.1125C17.3926 12.1106 17.3849 12.1106 17.3775 12.1125H17.37ZM12.945 12.1275C12.9 12.1275 12.87 12.18 12.9 12.24C12.945 12.345 12.9975 12.405 13.0425 12.51C13.08 12.6075 13.1475 12.5475 13.125 12.48L13.02 12.2025C12.9975 12.15 12.9675 12.1275 12.945 12.1275ZM20.355 12.1275C20.325 12.1275 20.3025 12.15 20.28 12.2025C20.2125 12.345 20.19 12.4125 20.1675 12.48C20.1525 12.555 20.2125 12.6075 20.2575 12.51L20.3925 12.24C20.4225 12.18 20.3925 12.1275 20.355 12.1275ZM13.245 12.1275C13.2075 12.1425 13.1925 12.18 13.2075 12.225C13.2525 12.315 13.305 12.4125 13.3425 12.51C13.3725 12.5925 13.4475 12.57 13.4175 12.495L13.3425 12.2175C13.3125 12.1425 13.2675 12.12 13.245 12.1275ZM20.0325 12.1275C20.0025 12.135 19.9725 12.165 19.9575 12.2175C19.905 12.3675 19.8975 12.4125 19.875 12.495C19.845 12.57 19.92 12.5925 19.95 12.51L20.085 12.225C20.1 12.18 20.085 12.1425 20.055 12.1275C20.0476 12.1256 20.0399 12.1256 20.0325 12.1275ZM13.62 12.2025C13.575 12.21 13.545 12.27 13.575 12.345C13.605 12.435 13.65 12.5175 13.695 12.6225C13.74 12.7275 13.8075 12.705 13.7925 12.6375C13.77 12.57 13.755 12.465 13.7025 12.3C13.68 12.225 13.65 12.195 13.62 12.2025ZM19.68 12.2025C19.65 12.2025 19.6125 12.225 19.59 12.3C19.545 12.465 19.515 12.57 19.5075 12.6375C19.485 12.7125 19.56 12.7275 19.5975 12.6225C19.6425 12.5175 19.6875 12.435 19.7175 12.345C19.7475 12.27 19.7175 12.21 19.68 12.2025ZM12.69 12.255C12.645 12.255 12.615 12.33 12.6375 12.3825C12.675 12.4575 12.705 12.4875 12.7425 12.5775C12.7875 12.6675 12.8325 12.6 12.8175 12.54C12.795 12.48 12.7725 12.4125 12.7575 12.33C12.7425 12.27 12.7125 12.255 12.6825 12.255H12.69ZM20.61 12.255C20.58 12.255 20.5575 12.27 20.535 12.33L20.4825 12.54C20.4675 12.6 20.5125 12.6675 20.5575 12.5775C20.595 12.4875 20.6175 12.465 20.6625 12.3825C20.685 12.33 20.6475 12.2625 20.61 12.255ZM15.585 12.465C15.5325 12.465 15.4875 12.525 15.51 12.5775C15.525 12.6675 15.57 12.7425 15.5925 12.855C15.6225 12.9525 15.69 12.9075 15.6825 12.84C15.677 12.7392 15.6645 12.639 15.645 12.54C15.63 12.4875 15.6075 12.465 15.5775 12.465H15.585ZM17.715 12.465C17.6925 12.465 17.6625 12.4875 17.655 12.54C17.6329 12.6388 17.6179 12.7391 17.61 12.84C17.61 12.9075 17.6775 12.9525 17.7 12.855L17.79 12.5775C17.805 12.525 17.76 12.465 17.715 12.465ZM16.65 12.555C16.59 12.555 16.5825 12.63 16.5825 12.6825C16.5779 12.8533 16.526 13.0195 16.4325 13.1625C16.3575 13.2525 16.26 13.23 16.17 13.1775C16.0827 13.13 15.9999 13.0747 15.9225 13.0125C15.8175 12.9375 15.7425 12.9825 15.8625 13.155C16.2075 13.65 16.5825 14.07 16.5825 14.88C16.5825 14.9775 16.605 15.0075 16.65 15.0075C16.695 15.0075 16.71 14.9775 16.71 14.8725C16.71 14.07 17.085 13.65 17.43 13.1475C17.55 12.9825 17.475 12.9375 17.3775 13.0125C17.3004 13.0752 17.2175 13.1304 17.13 13.1775C17.0325 13.23 16.935 13.2525 16.8675 13.1625C16.774 13.0195 16.7221 12.8533 16.7175 12.6825C16.71 12.63 16.7025 12.555 16.6425 12.555H16.65ZM14.0025 12.435C13.9975 12.4342 13.9924 12.4342 13.9875 12.435C13.965 12.4425 13.9575 12.465 13.965 12.51L14.0475 12.8025C14.07 12.8775 14.1525 12.855 14.1375 12.765L14.0925 12.5325C14.0775 12.4725 14.0325 12.435 14.0025 12.435ZM19.2975 12.435C19.26 12.435 19.2225 12.4725 19.2075 12.5325C19.1775 12.6375 19.1775 12.6675 19.1625 12.7575C19.14 12.855 19.23 12.87 19.245 12.8025L19.335 12.5025C19.335 12.465 19.3275 12.4425 19.305 12.435C19.3 12.4342 19.2949 12.4342 19.29 12.435H19.2975ZM12.4275 12.465C12.3825 12.465 12.3525 12.525 12.3975 12.6C12.4425 12.69 12.525 12.795 12.5625 12.8625C12.6 12.9225 12.6675 12.8775 12.6225 12.8025C12.5775 12.7275 12.5625 12.63 12.5025 12.5175C12.4975 12.5017 12.4875 12.488 12.4739 12.4785C12.4603 12.469 12.444 12.4642 12.4275 12.465ZM20.865 12.465C20.8425 12.465 20.8125 12.48 20.79 12.5175C20.7375 12.63 20.715 12.72 20.6775 12.8025C20.6325 12.8775 20.6925 12.9225 20.73 12.8625C20.7675 12.795 20.85 12.69 20.895 12.6C20.94 12.525 20.91 12.465 20.865 12.465ZM10.05 12.7125C10.005 12.7125 9.98997 12.8025 10.035 12.8625C10.0932 12.9362 10.1585 13.004 10.23 13.065C10.29 13.125 10.305 13.05 10.275 12.99L10.14 12.7875C10.1025 12.735 10.0725 12.7125 10.05 12.7125ZM23.2425 12.7125C23.22 12.7125 23.19 12.735 23.16 12.7875L23.0175 12.99C22.9875 13.05 23.0025 13.125 23.07 13.065C23.1415 13.0041 23.2068 12.9363 23.265 12.8625C23.31 12.8025 23.295 12.7125 23.2425 12.7125ZM10.4325 12.7875C10.3875 12.7875 10.3575 12.8175 10.395 12.885L10.5375 13.17C10.575 13.245 10.6875 13.2675 10.6425 13.155L10.545 12.87C10.5225 12.8175 10.47 12.795 10.4325 12.795V12.7875ZM22.8675 12.7875C22.8225 12.7875 22.77 12.8175 22.7475 12.87L22.6575 13.155C22.6125 13.2675 22.725 13.245 22.7625 13.17C22.8 13.095 22.86 12.9825 22.8975 12.885C22.935 12.8175 22.905 12.7875 22.8675 12.7875ZM9.69747 12.8175C9.63747 12.8175 9.63747 12.87 9.68997 12.9075C9.75747 12.96 9.83997 13.0125 9.91497 13.08C10.0125 13.155 10.0425 13.08 9.98997 13.02C9.94497 12.96 9.89997 12.9 9.77247 12.8325C9.74247 12.8175 9.71997 12.8175 9.69747 12.8175ZM23.595 12.8175C23.58 12.8175 23.55 12.8175 23.52 12.8325C23.4 12.9 23.3475 12.96 23.295 13.02C23.25 13.0875 23.2875 13.155 23.3775 13.08C23.4525 13.0125 23.5425 12.96 23.6025 12.9075C23.6625 12.87 23.655 12.8175 23.6025 12.8175H23.595ZM15.375 12.87C15.3375 12.87 15.315 12.9075 15.3225 12.96L15.3975 13.23C15.4125 13.3125 15.51 13.3125 15.495 13.23C15.48 13.155 15.4725 13.0575 15.4425 12.9375C15.435 12.8925 15.4125 12.87 15.3825 12.8625C15.38 12.8623 15.3775 12.8623 15.375 12.8625V12.87ZM17.91 12.87C17.8875 12.87 17.865 12.8925 17.85 12.945C17.82 13.0575 17.8125 13.155 17.7975 13.2375C17.7825 13.3125 17.88 13.3125 17.895 13.23L17.97 12.96C17.985 12.9075 17.955 12.87 17.925 12.87C17.92 12.8692 17.9149 12.8692 17.91 12.87ZM13.11 12.72C13.0875 12.72 13.0725 12.7725 13.095 12.8475C13.1745 13.0637 13.2152 13.2922 13.215 13.5225C13.1925 13.6125 13.14 13.62 13.0725 13.5975C12.9989 13.5612 12.9286 13.5185 12.8625 13.47C12.8025 13.4325 12.735 13.4775 12.825 13.5525C13.275 13.9275 13.5975 14.355 13.725 14.8725C13.74 14.9775 13.8075 14.9925 13.7925 14.8725C13.6875 14.22 13.665 13.68 13.8225 13.35C13.8825 13.2225 13.8225 13.1025 13.7325 13.305C13.665 13.44 13.5675 13.4925 13.485 13.38C13.3677 13.197 13.2673 13.0037 13.185 12.8025C13.17 12.75 13.1475 12.7275 13.125 12.72C13.1225 12.7196 13.12 12.7196 13.1175 12.72H13.11ZM20.1675 12.72C20.145 12.72 20.1225 12.75 20.1075 12.795C20.055 12.945 19.89 13.26 19.8075 13.38C19.725 13.5 19.6275 13.44 19.5675 13.305C19.47 13.1025 19.4175 13.2225 19.47 13.35C19.6275 13.68 19.605 14.22 19.5075 14.8725C19.485 14.9925 19.5525 14.9775 19.5825 14.8725C19.7212 14.3457 20.0329 13.8809 20.4675 13.5525C20.5575 13.4775 20.49 13.4325 20.43 13.4775C20.3634 13.5211 20.2932 13.5588 20.22 13.59C20.145 13.62 20.1 13.6125 20.0775 13.515C20.0625 13.425 20.0925 13.2225 20.205 12.84C20.22 12.78 20.205 12.7275 20.1825 12.72C20.1776 12.7183 20.1723 12.7183 20.1675 12.72ZM10.83 12.9C10.7925 12.9 10.755 12.93 10.7775 12.99C10.8075 13.095 10.8675 13.2 10.89 13.26C10.9125 13.3275 10.98 13.2975 10.965 13.2075L10.9275 12.975C10.9275 12.93 10.875 12.9 10.83 12.9ZM22.4625 12.9C22.4175 12.9 22.3725 12.93 22.365 12.975L22.335 13.2075C22.32 13.2975 22.3875 13.3275 22.41 13.26C22.425 13.2 22.485 13.095 22.515 12.99C22.5375 12.93 22.5075 12.9 22.4625 12.9ZM12.24 12.7725C12.195 12.765 12.1875 12.885 12.225 12.9375L12.435 13.17C12.495 13.245 12.5325 13.1775 12.495 13.1175L12.3 12.8325C12.2775 12.795 12.255 12.7725 12.24 12.7725ZM21.0525 12.7725C21.0375 12.7725 21.015 12.795 20.9925 12.8325L20.7975 13.1175C20.76 13.1775 20.7975 13.245 20.865 13.17L21.0675 12.9375C21.105 12.885 21.105 12.765 21.0525 12.7725ZM11.1525 13.0725C11.1225 13.0725 11.1 13.0875 11.115 13.1475C11.13 13.2375 11.1525 13.2975 11.175 13.38C11.1975 13.455 11.25 13.4475 11.25 13.3725L11.2275 13.1325C11.2242 13.1145 11.2151 13.0982 11.2015 13.0859C11.1879 13.0737 11.1707 13.0664 11.1525 13.065V13.0725ZM22.14 13.0725C22.1224 13.0721 22.1053 13.078 22.0916 13.0889C22.0779 13.0999 22.0685 13.1153 22.065 13.1325L22.0425 13.3725C22.0425 13.4475 22.1025 13.4625 22.1175 13.38L22.185 13.155C22.2 13.0875 22.17 13.065 22.14 13.065V13.0725ZM12.135 13.1775C12.09 13.1775 12.0525 13.23 12.105 13.2975C12.1875 13.41 12.285 13.485 12.3225 13.5225C12.3525 13.5675 12.435 13.5525 12.3825 13.47L12.21 13.2075C12.195 13.1775 12.165 13.17 12.135 13.1775ZM21.135 13.1775C21.12 13.1775 21.0975 13.185 21.09 13.2075L20.91 13.47C20.8575 13.5525 20.94 13.5675 20.9775 13.53C21.0075 13.485 21.105 13.41 21.195 13.2975C21.2475 13.2225 21.2025 13.1775 21.1575 13.1775C21.1525 13.1769 21.1475 13.1769 21.1425 13.1775H21.135ZM10.5825 13.485C10.5525 13.485 10.5375 13.515 10.5825 13.5825C10.6983 13.723 10.7827 13.8867 10.83 14.0625C10.8375 14.1675 10.7925 14.1675 10.7475 14.1675C10.605 14.1675 10.5375 14.0625 10.4175 14.0325C10.29 14.01 10.2675 14.07 10.3575 14.1375C10.7874 14.4094 11.1615 14.7606 11.46 15.1725C11.535 15.315 11.6325 15.36 11.58 15.2325C11.4343 14.94 11.372 14.6131 11.4 14.2875C11.4375 14.0775 11.49 13.9425 11.4825 13.8225C11.4825 13.71 11.4075 13.7175 11.385 13.8225L11.31 14.0325C11.28 14.07 11.175 14.0925 11.085 13.965C10.9574 13.8085 10.8169 13.663 10.665 13.53C10.6425 13.5075 10.6125 13.4925 10.59 13.485H10.5825ZM22.71 13.485C22.6875 13.485 22.6575 13.5 22.6275 13.53C22.4782 13.6633 22.3402 13.8088 22.215 13.965C22.1175 14.0925 22.0125 14.07 21.99 14.04C21.9558 13.971 21.9306 13.8979 21.915 13.8225C21.885 13.7175 21.8175 13.71 21.81 13.8225C21.81 13.9425 21.855 14.0775 21.8925 14.2875C21.93 14.4975 21.8925 14.8275 21.72 15.2325C21.66 15.36 21.765 15.3075 21.84 15.1725C22.1357 14.7608 22.5073 14.4095 22.935 14.1375C23.025 14.07 23.01 14.01 22.8825 14.0325C22.755 14.0625 22.6875 14.1675 22.5525 14.1675C22.5075 14.1675 22.455 14.1675 22.4625 14.0625C22.47 13.965 22.5975 13.7325 22.71 13.5825C22.755 13.5075 22.7475 13.485 22.71 13.485Z" fill="black"/>
<path d="M11.2574 15.9525L11.4074 16.41L11.2574 15.9525ZM11.5574 15.8625L11.6924 16.3275L11.5574 15.8625ZM11.8874 15.8025L11.9774 16.2825L11.8874 15.8025ZM12.1874 15.75L12.2849 16.2225L12.1874 15.75ZM12.5699 15.7125L12.6449 16.1925L12.5699 15.7125ZM12.9824 15.7125L13.0649 16.185L12.9824 15.7125ZM13.3874 15.5775L13.4474 16.0575L13.3874 15.5775ZM13.7624 15.6L13.8224 16.08L13.7624 15.6ZM14.1299 15.555L14.1899 16.035L14.1299 15.555ZM14.4899 15.51L14.5274 15.9975L14.4899 15.51ZM14.8874 15.51L14.9174 15.9975L14.8874 15.51ZM15.2474 15.4875L15.2699 15.975L15.2474 15.4875ZM15.6374 15.465L15.6599 15.945L15.6374 15.465ZM16.0874 15.45L16.1099 15.9375L16.0874 15.45ZM22.0349 15.9525L21.8849 16.41L22.0349 15.9525ZM21.7349 15.8625L21.6074 16.3275L21.7349 15.8625ZM21.4124 15.8025L21.3224 16.2825L21.4124 15.8025ZM21.1124 15.75L21.0149 16.2225L21.1124 15.75ZM20.7149 15.7125L20.6399 16.1925L20.7149 15.7125ZM20.3099 15.7125L20.2274 16.1925L20.3099 15.7125ZM19.9124 15.5775L19.8524 16.0575L19.9124 15.5775ZM19.5299 15.6L19.4699 16.08L19.5299 15.6ZM19.1699 15.555L19.1024 16.035L19.1699 15.555ZM18.8024 15.51L18.7649 15.9975L18.8024 15.51ZM18.4049 15.51L18.3749 15.9975L18.4049 15.51ZM18.0524 15.4875L18.0299 15.975L18.0524 15.4875ZM17.6549 15.465L17.6399 15.945L17.6549 15.465ZM17.2049 15.45L17.1899 15.9375L17.2049 15.45ZM16.6499 15.4125V15.9525V15.4125Z" fill="#FFD83D"/>
<path fill-rule="evenodd" clip-rule="evenodd" d="M16.65 15.3562C16.6811 15.3562 16.7062 15.3814 16.7062 15.4125V15.9525C16.7062 15.9836 16.6811 16.0087 16.65 16.0087C16.6189 16.0087 16.5937 15.9836 16.5937 15.9525V15.4125C16.5937 15.3814 16.6189 15.3562 16.65 15.3562ZM16.0849 15.3938C16.1159 15.3924 16.1423 15.4164 16.1437 15.4474L16.1662 15.9349C16.1676 15.9659 16.1436 15.9923 16.1126 15.9937C16.0816 15.9951 16.0552 15.9711 16.0538 15.9401L16.0313 15.4526C16.0299 15.4216 16.0539 15.3952 16.0849 15.3938ZM17.2067 15.3938C17.2378 15.3947 17.2622 15.4207 17.2612 15.4517L17.2462 15.9392C17.2453 15.9703 17.2193 15.9947 17.1883 15.9937C17.1572 15.9928 17.1328 15.9668 17.1338 15.9358L17.1488 15.4483C17.1497 15.4172 17.1757 15.3928 17.2067 15.3938ZM15.6349 15.4088C15.6659 15.4074 15.6922 15.4313 15.6937 15.4624L15.7162 15.9424C15.7176 15.9734 15.6937 15.9997 15.6626 16.0012C15.6316 16.0026 15.6053 15.9787 15.6038 15.9476L15.5813 15.4676C15.5799 15.4366 15.6038 15.4103 15.6349 15.4088ZM17.6568 15.4088C17.6878 15.4097 17.7122 15.4357 17.7112 15.4668L17.6962 15.9468C17.6952 15.9778 17.6693 16.0022 17.6382 16.0012C17.6072 16.0002 17.5828 15.9743 17.5838 15.9432L17.5988 15.4632C17.5997 15.4322 17.6257 15.4078 17.6568 15.4088ZM15.2449 15.4313C15.2759 15.4299 15.3023 15.4539 15.3037 15.4849L15.3262 15.9724C15.3276 16.0034 15.3036 16.0298 15.2726 16.0312C15.2416 16.0326 15.2152 16.0086 15.2138 15.9776L15.1913 15.4901C15.1899 15.4591 15.2139 15.4327 15.2449 15.4313ZM18.0551 15.4313C18.0861 15.4327 18.1101 15.4591 18.1087 15.4901L18.0862 15.9776C18.0848 16.0086 18.0584 16.0326 18.0274 16.0312C17.9964 16.0298 17.9724 16.0034 17.9738 15.9724L17.9963 15.4849C17.9977 15.4539 18.0241 15.4299 18.0551 15.4313ZM14.4857 15.4539C14.5167 15.4515 14.5437 15.4747 14.5461 15.5057L14.5836 15.9932C14.586 16.0242 14.5628 16.0512 14.5318 16.0536C14.5008 16.056 14.4738 16.0328 14.4714 16.0018L14.4339 15.5143C14.4315 15.4833 14.4547 15.4563 14.4857 15.4539ZM18.8068 15.4539C18.8378 15.4563 18.861 15.4833 18.8586 15.5143L18.8211 16.0018C18.8187 16.0328 18.7917 16.056 18.7607 16.0536C18.7297 16.0512 18.7065 16.0242 18.7089 15.9932L18.7464 15.5057C18.7488 15.4747 18.7758 15.4515 18.8068 15.4539ZM14.884 15.4539C14.9151 15.4519 14.9417 15.4755 14.9436 15.5065L14.9736 15.994C14.9755 16.025 14.952 16.0517 14.921 16.0536C14.8899 16.0555 14.8633 16.032 14.8614 16.001L14.8314 15.5135C14.8294 15.4824 14.853 15.4558 14.884 15.4539ZM18.4085 15.4539C18.4395 15.4558 18.463 15.4824 18.4611 15.5135L18.4311 16.001C18.4292 16.032 18.4025 16.0555 18.3715 16.0536C18.3405 16.0517 18.3169 16.025 18.3189 15.994L18.3489 15.5065C18.3508 15.4755 18.3774 15.4519 18.4085 15.4539ZM19.1778 15.4993C19.2086 15.5036 19.23 15.5321 19.2257 15.5628L19.1582 16.0428C19.1539 16.0736 19.1254 16.095 19.0947 16.0907C19.0639 16.0864 19.0425 16.0579 19.0468 16.0272L19.1143 15.5472C19.1186 15.5164 19.1471 15.495 19.1778 15.4993ZM14.123 15.4992C14.1538 15.4953 14.182 15.5172 14.1858 15.548L14.2458 16.028C14.2497 16.0588 14.2278 16.087 14.197 16.0908C14.1661 16.0947 14.138 16.0728 14.1342 16.042L14.0742 15.562C14.0703 15.5311 14.0922 15.503 14.123 15.4992ZM13.3805 15.5217C13.4113 15.5178 13.4395 15.5397 13.4433 15.5705L13.5033 16.0505C13.5072 16.0813 13.4853 16.1095 13.4545 16.1133C13.4236 16.1172 13.3955 16.0953 13.3917 16.0645L13.3317 15.5845C13.3278 15.5536 13.3497 15.5255 13.3805 15.5217ZM19.9195 15.5217C19.9503 15.5255 19.9722 15.5536 19.9683 15.5845L19.9083 16.0645C19.9045 16.0953 19.8763 16.1172 19.8455 16.1133C19.8147 16.1095 19.7928 16.0813 19.7967 16.0505L19.8567 15.5705C19.8605 15.5397 19.8886 15.5178 19.9195 15.5217ZM13.7555 15.5442C13.7863 15.5403 13.8145 15.5622 13.8183 15.593L13.8783 16.073C13.8822 16.1038 13.8603 16.132 13.8295 16.1358C13.7986 16.1397 13.7705 16.1178 13.7667 16.087L13.7067 15.607C13.7028 15.5761 13.7247 15.548 13.7555 15.5442ZM19.537 15.5442C19.5678 15.548 19.5897 15.5761 19.5858 15.607L19.5258 16.087C19.522 16.1178 19.4938 16.1397 19.463 16.1358C19.4322 16.132 19.4103 16.1038 19.4142 16.073L19.4742 15.593C19.478 15.5622 19.5061 15.5403 19.537 15.5442ZM12.9728 15.6571C13.0034 15.6517 13.0326 15.6722 13.0379 15.7028L13.1204 16.1753C13.1258 16.2059 13.1053 16.2351 13.0747 16.2404C13.0441 16.2458 13.0149 16.2253 13.0096 16.1947L12.9271 15.7222C12.9217 15.6916 12.9422 15.6624 12.9728 15.6571ZM20.3195 15.6571C20.3501 15.6623 20.3707 15.6914 20.3654 15.722L20.2829 16.202C20.2777 16.2326 20.2486 16.2532 20.218 16.2479C20.1874 16.2427 20.1668 16.2136 20.1721 16.183L20.2546 15.703C20.2598 15.6724 20.2889 15.6518 20.3195 15.6571ZM12.5613 15.6569C12.592 15.6521 12.6208 15.6731 12.6256 15.7038L12.7006 16.1838C12.7054 16.2145 12.6844 16.2433 12.6537 16.2481C12.623 16.2529 12.5942 16.2319 12.5894 16.2012L12.5144 15.7212C12.5096 15.6905 12.5306 15.6617 12.5613 15.6569ZM20.7237 15.6569C20.7544 15.6617 20.7754 15.6905 20.7706 15.7212L20.6956 16.2012C20.6908 16.2319 20.662 16.2529 20.6313 16.2481C20.6006 16.2433 20.5796 16.2145 20.5844 16.1838L20.6594 15.7038C20.6642 15.6731 20.693 15.6521 20.7237 15.6569ZM12.1761 15.6949C12.2066 15.6886 12.2363 15.7082 12.2426 15.7386L12.3401 16.2111C12.3464 16.2416 12.3268 16.2713 12.2964 16.2776C12.2659 16.2839 12.2362 16.2643 12.2299 16.2339L12.1324 15.7614C12.1261 15.7309 12.1457 15.7012 12.1761 15.6949ZM21.1239 15.6949C21.1543 15.7012 21.1739 15.7309 21.1676 15.7614L21.0701 16.2339C21.0638 16.2643 21.0341 16.2839 21.0036 16.2776C20.9732 16.2713 20.9536 16.2416 20.9599 16.2111L21.0574 15.7386C21.0637 15.7082 21.0934 15.6886 21.1239 15.6949ZM11.8771 15.7472C11.9077 15.7415 11.9371 15.7616 11.9428 15.7921L12.0328 16.2721C12.0385 16.3027 12.0184 16.3321 11.9879 16.3378C11.9573 16.3435 11.9279 16.3234 11.9222 16.2929L11.8322 15.8129C11.8265 15.7823 11.8466 15.7529 11.8771 15.7472ZM21.4229 15.7472C21.4534 15.7529 21.4735 15.7823 21.4678 15.8129L21.3778 16.2929C21.3721 16.3234 21.3427 16.3435 21.3121 16.3378C21.2816 16.3321 21.2615 16.3027 21.2672 16.2721L21.3572 15.7921C21.3629 15.7616 21.3923 15.7415 21.4229 15.7472ZM11.5418 15.8085C11.5716 15.7998 11.6029 15.817 11.6115 15.8468L11.7465 16.3118C11.7552 16.3416 11.738 16.3729 11.7082 16.3815C11.6783 16.3902 11.6471 16.373 11.6385 16.3432L11.5035 15.8782C11.4948 15.8483 11.512 15.8171 11.5418 15.8085ZM21.7499 15.8082C21.7798 15.8165 21.7975 15.8474 21.7892 15.8774L21.6617 16.3424C21.6535 16.3723 21.6226 16.39 21.5926 16.3817C21.5627 16.3735 21.545 16.3426 21.5533 16.3126L21.6807 15.8476C21.689 15.8177 21.7199 15.8 21.7499 15.8082ZM11.24 15.899C11.2695 15.8894 11.3013 15.9055 11.3109 15.935L11.4609 16.3925C11.4706 16.422 11.4545 16.4538 11.425 16.4634C11.3955 16.4731 11.3637 16.457 11.354 16.4275L11.204 15.97C11.1944 15.9405 11.2105 15.9087 11.24 15.899ZM22.0525 15.899C22.082 15.9087 22.0981 15.9405 22.0884 15.97L21.9384 16.4275C21.9288 16.457 21.897 16.4731 21.8675 16.4634C21.838 16.4538 21.8219 16.422 21.8315 16.3925L21.9815 15.935C21.9912 15.9055 22.023 15.8894 22.0525 15.899Z" fill="black"/>
</g>
<defs>
<clipPath id="clip0_264_19986">
<rect width="60" height="45" fill="white"/>
</clipPath>
</defs>
</svg>
