<svg width="60" height="45" viewBox="0 0 60 45" fill="none" xmlns="http://www.w3.org/2000/svg">
<g clip-path="url(#clip0_264_20530)">
<path fill-rule="evenodd" clip-rule="evenodd" d="M30 0H60V45H30V0Z" fill="#CE0000"/>
<path fill-rule="evenodd" clip-rule="evenodd" d="M0 0H30V45H0V0Z" fill="#F0F0F0"/>
<path fill-rule="evenodd" clip-rule="evenodd" d="M14.5437 13.2983C14.5437 13.4332 14.4088 13.5231 14.244 13.5231C14.0641 13.5231 13.9442 13.4332 13.9442 13.3133C13.9442 13.1934 14.0641 13.0885 14.244 13.0885C14.4088 13.0885 14.5437 13.1934 14.5437 13.3133V13.2983Z" fill="#F1EEEE"/>
<path fill-rule="evenodd" clip-rule="evenodd" d="M4.93713 12.2492V17.8244H10.5272C10.5272 18.7535 11.4564 19.6827 12.3856 19.6827V25.2578H17.9757V19.6827C18.9049 19.6827 19.8341 18.7535 19.8341 17.8244H25.4092V12.2492H19.8191C19.8191 11.3201 18.8899 10.3909 17.9607 10.3909V4.81575H12.3856V10.3909C11.4414 10.3909 10.5123 11.3201 10.5123 12.2492H4.93713Z" fill="#CC0000"/>
<path fill-rule="evenodd" clip-rule="evenodd" d="M5.13196 12.4291V17.6445H10.7071C10.7071 18.5737 11.6363 19.5029 12.5654 19.5029V25.078H17.7659V19.5179C18.6951 19.5179 19.6243 18.5887 19.6243 17.6595H25.2144V12.4441H19.6393C19.6393 11.5149 18.7101 10.5857 17.7809 10.5857V4.99559H12.5654V10.5707C11.6363 10.5707 10.7071 11.4999 10.7071 12.4291H5.13196Z" fill="#FFE600"/>
<path fill-rule="evenodd" clip-rule="evenodd" d="M5.31177 12.6239V17.4497H10.8869C10.8869 18.3789 11.8161 19.3081 12.7453 19.3081V24.8832H17.586V19.3081C18.5152 19.3081 19.4444 18.3789 19.4444 17.4497H25.0195V12.6239H19.4444C19.4444 11.6947 18.5152 10.7655 17.586 10.7655V5.19041H12.7453V10.7505C11.8161 10.7505 10.8869 11.6797 10.8869 12.6089H5.31177V12.6239Z" fill="#707070"/>
<path fill-rule="evenodd" clip-rule="evenodd" d="M5.50669 12.8038V17.2698H11.0818C11.0818 18.199 12.011 19.1282 12.9402 19.1282V24.6884H17.3913V19.1132C18.3205 19.1132 19.2497 18.184 19.2497 17.2549H24.8248V12.7888H19.2497C19.2497 11.8596 18.3205 10.9304 17.3913 10.9304V5.37027H12.9402V10.9454C12.011 10.9454 11.0818 11.8746 11.0818 12.8038H5.4917H5.50669Z" fill="#A0A0A0"/>
<path fill-rule="evenodd" clip-rule="evenodd" d="M12.9851 10.4808C13.2998 10.8105 13.045 11.6048 12.3856 12.2642C11.7262 12.9237 10.9469 13.1634 10.6172 12.8637C10.2874 12.519 10.5572 11.7247 11.2166 11.0653C11.8761 10.4059 12.6554 10.1661 12.9851 10.4808Z" fill="#D0D0D0"/>
<path fill-rule="evenodd" clip-rule="evenodd" d="M12.5805 10.8705C12.9102 11.2002 12.8202 11.8146 12.3856 12.2642C11.951 12.7138 11.3365 12.7888 11.0068 12.4591C10.6771 12.1294 10.767 11.5149 11.2017 11.0803C11.6363 10.6457 12.2507 10.5557 12.5805 10.8705Z" fill="#808080"/>
<path fill-rule="evenodd" clip-rule="evenodd" d="M10.9469 11.8596L11.0668 11.7397L11.5913 11.9945L11.3366 11.4699L11.4714 11.3351L11.996 12.3841L10.9469 11.8596ZM11.7262 11.0803L11.8761 10.9304L12.6554 11.7397L12.5205 11.8596L11.7262 11.0803Z" fill="#D0D0D0"/>
<path fill-rule="evenodd" clip-rule="evenodd" d="M19.7143 12.8487C19.3845 13.1784 18.5902 12.9087 17.9458 12.2492C17.3014 11.5898 17.0166 10.8105 17.3463 10.4808C17.676 10.1511 18.4703 10.4208 19.1298 11.0803C19.7892 11.7397 20.029 12.519 19.7292 12.8487H19.7143Z" fill="#D0D0D0"/>
<path fill-rule="evenodd" clip-rule="evenodd" d="M19.3246 12.4591C18.9949 12.7888 18.3804 12.6988 17.9458 12.2642C17.5112 11.8296 17.4213 11.2151 17.736 10.8854C18.0657 10.5557 18.6951 10.6456 19.1298 11.0803C19.5644 11.5149 19.6543 12.1293 19.3246 12.4591Z" fill="#808080"/>
<path fill-rule="evenodd" clip-rule="evenodd" d="M18.3355 10.8105L18.4703 10.9454L18.2006 11.4699L18.7251 11.2002L18.875 11.35L17.8109 11.8596L18.3355 10.8105ZM19.1298 11.6048L19.2497 11.7247L18.4703 12.519L18.3355 12.3841L19.1298 11.6048Z" fill="#D0D0D0"/>
<path fill-rule="evenodd" clip-rule="evenodd" d="M17.3463 19.5928C17.0166 19.2631 17.2863 18.4688 17.9458 17.8094C18.6052 17.1499 19.3845 16.8952 19.7142 17.2099C20.0439 17.5396 19.7742 18.3339 19.1147 18.9933C18.4553 19.6528 17.676 19.9075 17.3463 19.5928Z" fill="#D0D0D0"/>
<path fill-rule="evenodd" clip-rule="evenodd" d="M17.751 19.1882C17.4213 18.8585 17.5112 18.244 17.9458 17.8094C18.3804 17.3748 18.9949 17.2848 19.3246 17.6145C19.6543 17.9443 19.5644 18.5587 19.1298 18.9933C18.6951 19.428 18.0807 19.5179 17.736 19.1882H17.751Z" fill="#808080"/>
<path fill-rule="evenodd" clip-rule="evenodd" d="M19.3846 18.199L19.2497 18.3489L18.7251 18.0791L18.9949 18.6037L18.86 18.7236L18.3355 17.6745L19.3846 18.199ZM18.6202 18.9933L18.4704 19.1282L17.691 18.3339L17.8259 18.199L18.6202 18.9933Z" fill="#D0D0D0"/>
<path fill-rule="evenodd" clip-rule="evenodd" d="M10.6172 17.2249C10.9469 16.8952 11.7412 17.1649 12.3856 17.8094C13.0301 18.4538 13.2998 19.2631 12.9851 19.5778C12.6554 19.9075 11.8611 19.6528 11.2017 18.9933C10.5422 18.3339 10.3025 17.5396 10.6022 17.2249H10.6172Z" fill="#D0D0D0"/>
<path fill-rule="evenodd" clip-rule="evenodd" d="M11.0068 17.6145C11.3365 17.2848 11.951 17.3748 12.3856 17.8094C12.8202 18.244 12.9102 18.8585 12.5805 19.1882C12.2657 19.5179 11.6363 19.428 11.2017 18.9933C10.767 18.5587 10.6771 17.9443 11.0068 17.6145Z" fill="#808080"/>
<path fill-rule="evenodd" clip-rule="evenodd" d="M11.996 19.2631L11.8611 19.1132L12.1309 18.6037L11.6063 18.8585L11.4565 18.7236L12.5205 18.199L11.996 19.2481V19.2631ZM11.2017 18.4688L11.0818 18.3339L11.8611 17.5546L11.996 17.6745L11.2017 18.4688Z" fill="#D0D0D0"/>
<path fill-rule="evenodd" clip-rule="evenodd" d="M15.1818 11.1632C13.0388 11.1632 11.3031 12.8984 11.3031 15.0402C11.3031 17.1819 13.0337 18.9172 15.1766 18.9172C17.3196 18.9172 19.0553 17.1767 19.0553 15.0402V15.0142H19.0604C19.0464 12.8845 17.3161 11.1632 15.1818 11.1632ZM19.1071 15.0661H19.1123V15.0402C19.1123 12.8698 17.3533 11.1113 15.1818 11.1113C13.0102 11.1113 11.2512 12.8698 11.2512 15.0402C11.2512 17.2105 13.005 18.969 15.1766 18.969C17.3396 18.969 19.0931 17.2193 19.1071 15.0661Z" fill="#707070"/>
<path fill-rule="evenodd" clip-rule="evenodd" d="M15.1625 12.0784C13.5298 12.0784 12.2073 13.4005 12.2073 15.0323C12.2073 16.6641 13.5259 17.9862 15.1586 17.9862C16.7913 17.9862 18.1138 16.6601 18.1138 15.0323V15.0125H18.1176C18.107 13.3898 16.7886 12.0784 15.1625 12.0784ZM18.1532 15.052H18.1572V15.0323C18.1572 13.3786 16.817 12.0388 15.1625 12.0388C13.508 12.0388 12.1678 13.3786 12.1678 15.0323C12.1678 16.6858 13.5041 18.0257 15.1586 18.0257C16.8065 18.0257 18.1426 16.6926 18.1532 15.052Z" fill="#707070"/>
<path fill-rule="evenodd" clip-rule="evenodd" d="M13.8693 18.199C13.8693 18.2487 13.8496 18.2964 13.8144 18.3315C13.7793 18.3666 13.7316 18.3864 13.682 18.3864C13.6323 18.3864 13.5846 18.3666 13.5495 18.3315C13.5144 18.2964 13.4946 18.2487 13.4946 18.199C13.4946 18.1493 13.5144 18.1017 13.5495 18.0666C13.5846 18.0314 13.6323 18.0117 13.682 18.0117C13.7316 18.0117 13.7793 18.0314 13.8144 18.0666C13.8496 18.1017 13.8693 18.1493 13.8693 18.199ZM16.8367 18.199C16.8367 18.2487 16.817 18.2964 16.7818 18.3315C16.7467 18.3666 16.6991 18.3864 16.6494 18.3864C16.5997 18.3864 16.552 18.3666 16.5169 18.3315C16.4818 18.2964 16.462 18.2487 16.462 18.199C16.462 18.1493 16.4818 18.1017 16.5169 18.0666C16.552 18.0314 16.5997 18.0117 16.6494 18.0117C16.6991 18.0117 16.7467 18.0314 16.7818 18.0666C16.817 18.1017 16.8367 18.1493 16.8367 18.199ZM15.0383 18.199V18.3939H14.7985C14.5437 18.3939 14.5437 18.5887 14.7985 18.5887H15.0383V18.7685C15.0383 18.9783 15.2631 18.9933 15.2781 18.7835V18.5737H15.5328C15.7876 18.5737 15.7876 18.3939 15.5328 18.3939H15.2931V18.199C15.2931 18.0042 15.0383 18.0042 15.0383 18.199Z" fill="#D0D0D0"/>
<path fill-rule="evenodd" clip-rule="evenodd" d="M14.244 15.4415V15.5613C14.244 15.5613 14.1841 15.6363 13.8094 15.6663C13.4347 15.6962 13.3748 15.6663 13.3748 15.6663C13.3898 15.7712 13.4647 15.951 13.4347 16.1608C13.4497 16.4156 13.3748 16.6404 13.3748 16.6404C13.3748 16.6554 13.3298 16.6704 13.2549 16.6554C13.3148 16.5954 13.3148 16.4456 13.3148 16.2058C13.3148 15.996 13.09 15.6513 13.135 15.5613C13.1799 15.4714 14.244 15.4415 14.244 15.4415ZM15.7127 15.0518L16.6869 15.0368C16.6869 15.0368 16.8367 15.3365 16.8217 15.4864C16.8217 15.6363 16.7618 15.7861 16.7018 15.7112C16.6269 15.6363 16.7318 15.6513 16.7468 15.4864C16.7468 15.3066 16.6269 15.1417 16.6269 15.1417C16.6269 15.1417 16.3572 15.2466 15.9675 15.2316C15.5778 15.2017 15.7577 15.0518 15.7127 15.0518Z" fill="#D0D0D0"/>
<path fill-rule="evenodd" clip-rule="evenodd" d="M16.6935 15.0334L16.6936 15.0337L16.6939 15.0343L16.6952 15.0369C16.6963 15.0392 16.6979 15.0425 16.7 15.0467C16.704 15.0553 16.7099 15.0676 16.7168 15.0829C16.7307 15.1134 16.749 15.1557 16.7669 15.2027C16.7847 15.2497 16.8022 15.3016 16.8142 15.3512C16.8262 15.4005 16.833 15.4481 16.8292 15.4868C16.8291 15.5624 16.814 15.6383 16.791 15.6864C16.7796 15.7101 16.7654 15.7287 16.7487 15.7357C16.74 15.7393 16.7307 15.7397 16.7215 15.7362C16.7126 15.7329 16.7041 15.7261 16.6962 15.7162C16.6775 15.6974 16.6682 15.6826 16.6676 15.668C16.667 15.6533 16.6753 15.6409 16.6844 15.6282C16.6855 15.6267 16.6865 15.6253 16.6876 15.6238C16.7061 15.5981 16.7323 15.5618 16.7392 15.4861C16.7392 15.3978 16.7097 15.3129 16.68 15.2498C16.6652 15.2183 16.6503 15.1923 16.6392 15.1742C16.6336 15.1652 16.629 15.1581 16.6258 15.1533C16.6251 15.1524 16.6245 15.1515 16.624 15.1508C16.6221 15.1514 16.6198 15.1523 16.617 15.1533C16.6087 15.1561 16.5966 15.1602 16.5808 15.165C16.5492 15.1747 16.5031 15.1874 16.4448 15.1996C16.3282 15.2241 16.1627 15.2466 15.9671 15.2391L15.9668 15.2391C15.8691 15.2316 15.8062 15.2165 15.7663 15.1977C15.7263 15.1787 15.7088 15.1556 15.7035 15.1321C15.6984 15.1097 15.7049 15.0885 15.7092 15.0742L15.7095 15.0735C15.7106 15.0698 15.7115 15.0667 15.7122 15.064C15.7127 15.0619 15.713 15.0603 15.713 15.0593C15.7129 15.0593 15.7128 15.0593 15.7126 15.0593L15.7125 15.0443L15.7126 15.0443L16.6914 15.0292L16.6935 15.0334ZM15.728 15.059L16.6822 15.0444C16.6832 15.0465 16.6847 15.0495 16.6864 15.0532C16.6905 15.0617 16.6963 15.0739 16.7031 15.0891C16.7169 15.1194 16.7351 15.1614 16.7528 15.2081C16.7706 15.2547 16.7878 15.3059 16.7996 15.3547C16.8115 15.4036 16.8178 15.4495 16.8142 15.4857L16.8142 15.4864C16.8142 15.5606 16.7993 15.6343 16.7774 15.6799C16.7664 15.7029 16.7543 15.7171 16.7429 15.7219C16.7376 15.7241 16.7323 15.7243 16.7268 15.7222C16.7211 15.72 16.7146 15.7152 16.7076 15.7065L16.7071 15.7059C16.6885 15.6874 16.6829 15.676 16.6826 15.6674C16.6822 15.6586 16.687 15.6503 16.6966 15.6369C16.6976 15.6355 16.6987 15.634 16.6997 15.6326C16.7188 15.6061 16.7469 15.5671 16.7542 15.4871L16.7542 15.4864C16.7542 15.3949 16.7238 15.3076 16.6936 15.2434C16.6784 15.2113 16.6633 15.1848 16.652 15.1664C16.6463 15.1571 16.6415 15.1499 16.6382 15.145C16.6365 15.1425 16.6352 15.1406 16.6343 15.1393L16.6333 15.1378L16.633 15.1374L16.6329 15.1373L16.6295 15.1326L16.6241 15.1347L16.624 15.1348L16.6234 15.135L16.6211 15.1359C16.6191 15.1366 16.616 15.1377 16.612 15.1391C16.604 15.1419 16.592 15.1459 16.5764 15.1507C16.5452 15.1602 16.4995 15.1728 16.4417 15.185C16.3261 15.2092 16.1619 15.2316 15.9679 15.2241C15.8709 15.2167 15.8102 15.2018 15.7727 15.1841C15.7356 15.1665 15.7221 15.1466 15.7181 15.1288C15.7139 15.1104 15.7193 15.0926 15.7238 15.0779C15.7249 15.0743 15.726 15.0708 15.7267 15.0676C15.7274 15.0648 15.728 15.0619 15.728 15.059ZM13.1581 15.5519C13.1481 15.5569 13.1433 15.5614 13.1416 15.5647C13.1369 15.5741 13.1354 15.5876 13.1372 15.6055C13.1389 15.6232 13.1439 15.6444 13.1512 15.6683C13.1655 15.715 13.1885 15.7711 13.2131 15.8315L13.2149 15.8358C13.2402 15.8975 13.267 15.9634 13.2875 16.0269C13.3079 16.0904 13.3222 16.1521 13.3222 16.2058V16.2062C13.3222 16.3257 13.3222 16.4235 13.3147 16.4988C13.308 16.5663 13.295 16.6175 13.2692 16.6504C13.2999 16.6553 13.3244 16.6549 13.3415 16.6518C13.3513 16.65 13.3583 16.6474 13.3626 16.6448C13.367 16.6421 13.3672 16.6404 13.3672 16.6404C13.3672 16.6404 13.3672 16.6404 13.3672 16.6404L13.3672 16.6392L13.3676 16.638L13.3676 16.6379L13.3678 16.6374L13.3684 16.6355C13.3689 16.6339 13.3697 16.6313 13.3707 16.6281C13.3727 16.6215 13.3756 16.6118 13.3789 16.5993C13.3857 16.5744 13.3945 16.5386 13.4029 16.4947C13.4197 16.4071 13.4346 16.2878 13.4272 16.1613L13.4271 16.1605L13.4272 16.1598C13.442 16.056 13.4309 15.9595 13.4142 15.8757C13.4064 15.8369 13.3975 15.8008 13.3893 15.768C13.3886 15.7653 13.388 15.7627 13.3873 15.7601C13.3787 15.7253 13.3711 15.694 13.3673 15.6673L13.3652 15.6532L13.3779 15.6595L13.3782 15.6596C13.3786 15.6598 13.3793 15.66 13.3803 15.6603C13.3824 15.661 13.3859 15.662 13.3914 15.6631C13.4024 15.6654 13.4213 15.6682 13.4519 15.67C13.5133 15.6737 13.6216 15.6738 13.8087 15.6588C13.9956 15.6438 14.1036 15.6177 14.1646 15.5955C14.195 15.5844 14.2137 15.5744 14.2246 15.5672C14.2301 15.5637 14.2336 15.5609 14.2356 15.559C14.2359 15.5588 14.2362 15.5585 14.2364 15.5583V15.4492L14.2322 15.4493C14.2244 15.4495 14.213 15.4499 14.1984 15.4504C14.1692 15.4514 14.1275 15.4529 14.0773 15.455C13.9769 15.4592 13.8425 15.4658 13.7068 15.4751C13.571 15.4845 13.434 15.4967 13.3282 15.5121C13.2753 15.5198 13.2304 15.5283 13.1975 15.5376C13.181 15.5422 13.1678 15.547 13.1581 15.5519ZM14.2439 15.4414C14.2437 15.434 14.2437 15.434 14.2437 15.434L14.2407 15.434L14.2317 15.4343C14.2239 15.4346 14.2125 15.4349 14.1979 15.4354C14.1687 15.4364 14.1269 15.4379 14.0767 15.44C13.9762 15.4443 13.8417 15.4508 13.7058 15.4602C13.5699 15.4696 13.4324 15.4818 13.3261 15.4973C13.2729 15.505 13.2273 15.5136 13.1934 15.5232C13.1765 15.5279 13.1623 15.533 13.1514 15.5385C13.1409 15.5438 13.1321 15.5501 13.1282 15.558C13.1216 15.5711 13.1204 15.588 13.1223 15.607C13.1242 15.6261 13.1294 15.6483 13.1369 15.6727C13.1514 15.7201 13.1746 15.7767 13.1991 15.8367L13.201 15.8414C13.2263 15.9033 13.2529 15.9686 13.2732 16.0315C13.2935 16.0945 13.3072 16.1545 13.3072 16.2058C13.3072 16.3258 13.3072 16.4228 13.2998 16.4973C13.2923 16.5721 13.2774 16.6221 13.2495 16.6501L13.2396 16.66L13.2533 16.6627C13.2915 16.6704 13.3224 16.6705 13.3442 16.6665C13.355 16.6645 13.3639 16.6615 13.3704 16.6576C13.3761 16.6541 13.3815 16.6488 13.3821 16.6418L13.3827 16.6401C13.3832 16.6383 13.384 16.6358 13.385 16.6324C13.3871 16.6257 13.39 16.6159 13.3934 16.6033C13.4002 16.578 13.4092 16.5418 13.4176 16.4976C13.4345 16.4093 13.4496 16.289 13.4422 16.1611C13.4572 16.0553 13.4458 15.9573 13.4289 15.8727C13.421 15.8336 13.412 15.7972 13.4038 15.7644C13.4032 15.7618 13.4025 15.7591 13.4019 15.7565C13.3945 15.7266 13.388 15.7 13.384 15.6768C13.3853 15.6772 13.3868 15.6775 13.3884 15.6778C13.4003 15.6802 13.4199 15.6831 13.451 15.685C13.5133 15.6887 13.6224 15.6887 13.8099 15.6737C13.9977 15.6587 14.107 15.6324 14.1697 15.6096C14.201 15.5982 14.2208 15.5877 14.2328 15.5798C14.2388 15.5759 14.2429 15.5726 14.2456 15.5702C14.2469 15.569 14.2479 15.5681 14.2486 15.5674C14.2489 15.567 14.2492 15.5667 14.2494 15.5665L14.2496 15.5662L14.2497 15.5661C14.2497 15.5661 14.2498 15.566 14.2439 15.5613L14.2498 15.566L14.2514 15.564V15.4414H14.2439Z" fill="#707070"/>
<path fill-rule="evenodd" clip-rule="evenodd" d="M15.8326 15.3365C16.1922 15.3216 16.432 15.3665 16.432 15.3665C16.432 15.3665 16.5819 15.6663 16.5819 15.8161C16.5669 15.966 16.522 16.1159 16.447 16.0409C16.3871 15.981 16.477 15.996 16.492 15.8161C16.492 15.6513 16.3721 15.4714 16.3721 15.4714C16.3721 15.4714 16.1173 15.5763 15.7277 15.5613C15.338 15.5314 15.4579 15.5164 15.4129 15.5014C15.368 15.5014 15.353 15.6213 14.7685 15.6363C14.169 15.6363 13.8693 15.5014 13.8693 15.5014C13.8693 15.5014 13.8093 15.5913 13.4497 15.6213H13C13.015 15.7112 13.09 15.8911 13.075 16.1159C13.075 16.3556 13 16.5954 13 16.5954H12.8951C12.9551 16.5505 12.9401 16.3856 12.9551 16.1608C12.9551 15.936 12.7153 15.6063 12.7603 15.5014C12.8202 15.4115 13.09 15.5014 13.1349 15.4564C13.1799 15.3965 12.8951 15.0518 12.9551 14.7371C13 14.4223 13.3148 14.5123 13.6894 14.5123C14.0641 14.5272 14.8884 14.6322 15.0982 14.5123C15.308 14.4074 15.2181 14.0027 15.3979 13.7479C15.4576 13.6751 15.5333 13.6169 15.619 13.5779C15.7048 13.5389 15.7984 13.5202 15.8925 13.5231C16.0274 13.5231 16.1922 13.9727 16.1922 14.0776L16.1473 14.1376H16.0873V14.1826C15.9375 14.1975 15.9225 14.0627 15.8326 13.9727C15.8026 14.1226 15.9525 14.6322 15.9525 14.9619C15.9525 15.2316 15.8476 15.3515 15.8326 15.3365Z" fill="#D0D0D0"/>
<path fill-rule="evenodd" clip-rule="evenodd" d="M15.8923 13.5306C15.7993 13.5277 15.7069 13.5462 15.6222 13.5847C15.5376 13.6232 15.4629 13.6806 15.404 13.7525C15.323 13.8673 15.2974 14.0131 15.2735 14.1494C15.2712 14.1622 15.269 14.175 15.2667 14.1876C15.2536 14.2606 15.2395 14.3298 15.2152 14.3873C15.1909 14.4449 15.1563 14.4916 15.1018 14.5189C15.0476 14.5497 14.9553 14.5656 14.8428 14.5724C14.7297 14.5792 14.595 14.5769 14.4553 14.5703C14.3157 14.5638 14.1708 14.553 14.0376 14.5429C14.0316 14.5425 14.0256 14.542 14.0197 14.5416C13.8935 14.532 13.7786 14.5233 13.6893 14.5198C13.6175 14.5198 13.5478 14.5164 13.4819 14.5133C13.4618 14.5124 13.442 14.5114 13.4227 14.5106C13.3398 14.5071 13.2645 14.5057 13.1996 14.5141C13.1348 14.5224 13.0812 14.5404 13.041 14.5748C13.0011 14.6092 12.9736 14.6608 12.9625 14.7381L12.9625 14.7385C12.933 14.8934 12.9883 15.0564 13.0463 15.1893C13.0608 15.2224 13.0754 15.2536 13.0888 15.2823L13.0897 15.2841C13.1028 15.312 13.1147 15.3376 13.1243 15.3601C13.1341 15.383 13.1415 15.4031 13.145 15.4197C13.1484 15.4357 13.1487 15.4506 13.141 15.4609L13.1403 15.4618C13.1331 15.4691 13.122 15.4729 13.1097 15.475C13.0972 15.4771 13.0822 15.4776 13.0657 15.4773C13.0437 15.4768 13.0183 15.4747 12.9919 15.4726C12.979 15.4715 12.9658 15.4704 12.9527 15.4695C12.9125 15.4667 12.8724 15.4654 12.8389 15.4702C12.8054 15.475 12.7802 15.4856 12.7669 15.505C12.7622 15.5163 12.7611 15.5313 12.7632 15.5498C12.7654 15.5686 12.7709 15.5904 12.7789 15.6147C12.7943 15.6616 12.8185 15.7166 12.8445 15.7758L12.8477 15.7831C12.8749 15.8449 12.9036 15.9108 12.9255 15.9753C12.9473 16.0398 12.9626 16.1034 12.9626 16.1608V16.1613C12.9589 16.2174 12.957 16.2697 12.9554 16.3175L12.9551 16.3239C12.9536 16.3691 12.9522 16.4102 12.9495 16.4461C12.9467 16.4837 12.9424 16.5162 12.9349 16.5422C12.9297 16.5604 12.9228 16.5759 12.9134 16.5879H12.9945C12.995 16.5865 12.9955 16.5847 12.9961 16.5826C12.9982 16.5756 13.0011 16.5653 13.0046 16.5523C13.0116 16.5262 13.0209 16.4888 13.0302 16.444C13.0489 16.3544 13.0675 16.235 13.0675 16.1159V16.1154C13.075 16.0039 13.0601 15.9035 13.0415 15.8196C13.0325 15.7792 13.0226 15.7426 13.014 15.7105L13.013 15.7068C13.0041 15.6739 12.9965 15.6454 12.9927 15.6225L12.9912 15.6138H13.4494C13.6285 15.5988 13.7325 15.569 13.7914 15.5432C13.8209 15.5303 13.839 15.5185 13.8497 15.51C13.855 15.5058 13.8585 15.5024 13.8606 15.5002C13.8616 15.4991 13.8623 15.4983 13.8627 15.4978L13.8631 15.4972L13.8666 15.492L13.8724 15.4946L13.8726 15.4946L13.8732 15.4949L13.8758 15.496C13.878 15.497 13.8815 15.4984 13.8861 15.5002C13.8954 15.5039 13.9093 15.5091 13.9279 15.5154C13.9652 15.5279 14.0211 15.5447 14.0958 15.5615C14.2451 15.5951 14.4693 15.6288 14.7684 15.6288C15.0602 15.6213 15.2091 15.5876 15.2904 15.5562C15.3309 15.5406 15.3548 15.5254 15.3713 15.5142C15.3732 15.5129 15.375 15.5116 15.3767 15.5104C15.3826 15.5064 15.3879 15.5028 15.3927 15.5001C15.3991 15.4964 15.4055 15.4939 15.413 15.4939H15.4142L15.4153 15.4943C15.4215 15.4963 15.4259 15.4987 15.4289 15.5019C15.4319 15.5051 15.4329 15.5085 15.4334 15.5104C15.4335 15.5105 15.4335 15.5107 15.4335 15.5108C15.434 15.5125 15.4343 15.5131 15.435 15.5139C15.436 15.5149 15.4382 15.5166 15.4438 15.5188C15.455 15.5231 15.4772 15.5282 15.5214 15.534C15.5655 15.5398 15.6308 15.5464 15.7281 15.5539C15.9222 15.5613 16.0826 15.5389 16.1945 15.5147C16.2504 15.5026 16.2942 15.49 16.324 15.4804C16.3388 15.4757 16.3502 15.4717 16.3578 15.4689C16.3617 15.4675 16.3645 15.4664 16.3665 15.4656L16.3686 15.4648L16.3691 15.4646L16.3693 15.4645L16.375 15.4622L16.3784 15.4673L16.3785 15.4674L16.3787 15.4678L16.3798 15.4694C16.3807 15.4708 16.382 15.4728 16.3836 15.4755C16.387 15.4808 16.3917 15.4885 16.3974 15.4983C16.4087 15.5179 16.4238 15.5458 16.4389 15.5788C16.469 15.6448 16.4995 15.7321 16.4995 15.8161V15.8167C16.4919 15.9083 16.465 15.9507 16.4478 15.9775L16.4477 15.9777C16.4434 15.9843 16.4401 15.9895 16.4377 15.9942C16.4354 15.9989 16.4343 16.0026 16.4342 16.006C16.434 16.0125 16.4376 16.0209 16.4524 16.0356C16.47 16.0533 16.4838 16.0558 16.4949 16.0515C16.5071 16.0467 16.5192 16.0326 16.5302 16.0096C16.5521 15.964 16.567 15.8903 16.5745 15.8158C16.5744 15.7794 16.5653 15.7335 16.5513 15.6847C16.5374 15.6359 16.5187 15.5846 16.5001 15.5379C16.4814 15.4912 16.4627 15.4492 16.4487 15.4188C16.4417 15.4037 16.4359 15.3914 16.4318 15.3829C16.4297 15.3787 16.4281 15.3754 16.427 15.3732C16.4253 15.3729 16.4229 15.3725 16.4199 15.372C16.4127 15.3708 16.4019 15.3691 16.3879 15.3671C16.36 15.3632 16.3189 15.358 16.2666 15.3534C16.1639 15.3442 16.0181 15.3368 15.8432 15.3436C15.8412 15.3445 15.8391 15.3451 15.837 15.3452C15.8337 15.3455 15.8301 15.3447 15.8273 15.3418L15.8326 15.3365L15.8323 15.3291C15.8346 15.329 15.837 15.3289 15.8393 15.3288C15.8425 15.3268 15.8468 15.3231 15.8521 15.3173C15.8634 15.3046 15.8775 15.2833 15.8914 15.2529C15.919 15.1921 15.945 15.0958 15.945 14.9619C15.945 14.7978 15.9077 14.5887 15.8739 14.4012L15.8729 14.3953C15.8564 14.3039 15.8409 14.2178 15.8313 14.1451C15.8214 14.0712 15.8175 14.0101 15.8253 13.9713L15.828 13.9575L15.8379 13.9674C15.861 13.9905 15.8791 14.0163 15.8956 14.0415C15.8996 14.0476 15.9035 14.0537 15.9073 14.0597C15.9194 14.0784 15.9308 14.0963 15.9434 14.1124C15.9599 14.1334 15.9778 14.1508 16.0003 14.162C16.0214 14.1725 16.0469 14.178 16.0799 14.1757V14.1301H16.1436L16.1848 14.0752C16.1842 14.0497 16.1743 14.004 16.1573 13.949C16.1398 13.8924 16.1151 13.8266 16.0862 13.7642C16.0573 13.7017 16.0243 13.6428 15.9904 13.5997C15.9734 13.5781 15.9564 13.5607 15.9398 13.5487C15.9231 13.5368 15.9073 13.5306 15.8926 13.5306L15.8923 13.5306ZM15.8627 15.3279C16.0294 15.3224 16.1687 15.3296 16.2679 15.3384C16.3205 15.3431 16.3618 15.3483 16.39 15.3523C16.4042 15.3543 16.415 15.356 16.4223 15.3572C16.426 15.3578 16.4287 15.3583 16.4306 15.3586L16.4327 15.359L16.4333 15.3591L16.4334 15.3591L16.4321 15.3665L16.4388 15.3632L16.4389 15.3634L16.4392 15.364L16.4405 15.3666C16.4416 15.3689 16.4432 15.3722 16.4453 15.3764C16.4494 15.385 16.4553 15.3973 16.4623 15.4126C16.4764 15.4431 16.4952 15.4853 16.514 15.5323C16.5328 15.5793 16.5516 15.6311 16.5657 15.6806C16.5799 15.73 16.5894 15.7776 16.5894 15.8161V15.8169C16.5819 15.892 16.5668 15.968 16.5437 16.0161C16.5323 16.0398 16.5182 16.0585 16.5004 16.0655C16.4815 16.0728 16.4616 16.066 16.4418 16.0462C16.4266 16.031 16.4189 16.0188 16.4192 16.0056C16.4194 15.9992 16.4214 15.9933 16.4243 15.9875C16.427 15.9821 16.4308 15.9763 16.4347 15.9701L16.4351 15.9694C16.4516 15.9439 16.4771 15.9039 16.4845 15.8158C16.4845 15.7351 16.455 15.6502 16.4253 15.5851C16.4104 15.5525 16.3955 15.5251 16.3844 15.5059C16.3788 15.4962 16.3742 15.4886 16.3709 15.4834C16.3703 15.4824 16.3697 15.4815 16.3692 15.4806C16.3675 15.4813 16.3654 15.482 16.363 15.4829C16.3552 15.4858 16.3436 15.4899 16.3285 15.4947C16.2983 15.5044 16.2541 15.5171 16.1976 15.5293C16.0847 15.5538 15.923 15.5764 15.7274 15.5688L15.7271 15.5688C15.6297 15.5613 15.5639 15.5547 15.5195 15.5489C15.4752 15.543 15.4515 15.5378 15.4384 15.5327C15.4318 15.5302 15.4272 15.5275 15.4241 15.5242C15.4208 15.5207 15.4198 15.5172 15.4191 15.515C15.4185 15.5129 15.4184 15.5126 15.418 15.5122C15.4175 15.5116 15.416 15.5104 15.4118 15.5089C15.4084 15.5092 15.4048 15.5104 15.4 15.5131C15.3959 15.5154 15.3914 15.5185 15.3857 15.5225C15.3838 15.5237 15.3819 15.5251 15.3797 15.5266C15.3625 15.5383 15.3377 15.554 15.2958 15.5702C15.2122 15.6025 15.0614 15.6363 14.7687 15.6438L14.7685 15.6438C14.4682 15.6438 14.2429 15.61 14.0925 15.5761C14.0173 15.5592 13.9608 15.5423 13.9231 15.5296C13.9043 15.5232 13.8901 15.5179 13.8806 15.5142C13.8768 15.5127 13.8738 15.5114 13.8715 15.5105C13.8689 15.5133 13.8649 15.5171 13.859 15.5218C13.8472 15.5311 13.8279 15.5436 13.7974 15.557C13.7365 15.5836 13.6307 15.6137 13.4503 15.6288L13.4497 15.6288L13.0091 15.6288C13.0131 15.6493 13.0197 15.674 13.0275 15.7029L13.0285 15.7066C13.0371 15.7388 13.0471 15.7756 13.0561 15.8164C13.0749 15.901 13.09 16.0028 13.0825 16.1161C13.0825 16.2366 13.0637 16.357 13.0449 16.4471C13.0355 16.4922 13.0261 16.5298 13.019 16.5562C13.0155 16.5693 13.0126 16.5797 13.0105 16.5868C13.0095 16.5903 13.0087 16.593 13.0081 16.5949L13.0075 16.5969L13.0073 16.5975L13.0073 16.5976L13.0056 16.6029H12.8727L12.8907 16.5894C12.9038 16.5796 12.9135 16.5627 12.9205 16.5381C12.9276 16.5136 12.9317 16.4823 12.9345 16.445C12.9372 16.4094 12.9386 16.3685 12.9402 16.3232L12.9404 16.317C12.942 16.2693 12.9439 16.2168 12.9476 16.1606C12.9476 16.1056 12.9329 16.0439 12.9113 15.9801C12.8896 15.9163 12.8612 15.851 12.834 15.7892L12.8306 15.7814C12.8047 15.7226 12.7803 15.6669 12.7647 15.6194C12.7565 15.5946 12.7507 15.5717 12.7483 15.5515C12.746 15.5314 12.7471 15.5133 12.7534 15.4984L12.7537 15.4978L12.7541 15.4972C12.7709 15.472 12.8017 15.4603 12.8368 15.4553C12.872 15.4503 12.9135 15.4518 12.9538 15.4546C12.9673 15.4555 12.9807 15.4566 12.9937 15.4577C13.0198 15.4598 13.0445 15.4618 13.0661 15.4623C13.0822 15.4626 13.0961 15.4621 13.1072 15.4602C13.1181 15.4583 13.1252 15.4553 13.1293 15.4515C13.1325 15.4467 13.1336 15.4378 13.1304 15.4228C13.1272 15.4077 13.1202 15.3887 13.1105 15.3659C13.1011 15.3437 13.0892 15.3184 13.076 15.2903L13.0752 15.2886C13.0618 15.26 13.0471 15.2286 13.0326 15.1953C12.9745 15.0622 12.9174 14.8956 12.9477 14.7358C12.9592 14.6559 12.9879 14.6008 13.0313 14.5635C13.0745 14.5263 13.1314 14.5077 13.1977 14.4992C13.264 14.4907 13.3404 14.4921 13.4233 14.4956C13.4428 14.4965 13.4627 14.4974 13.4829 14.4984C13.5487 14.5015 13.618 14.5048 13.6895 14.5048H13.6898C13.7794 14.5084 13.8945 14.5171 14.0207 14.5266C14.0267 14.5271 14.0327 14.5275 14.0387 14.528C14.172 14.538 14.3166 14.5488 14.456 14.5554C14.5955 14.5619 14.7296 14.5642 14.8419 14.5575C14.9545 14.5507 15.0438 14.5348 15.0945 14.5058L15.0949 14.5055C15.1452 14.4804 15.178 14.4371 15.2014 14.3815C15.2249 14.3257 15.2389 14.2581 15.252 14.185C15.2543 14.1723 15.2565 14.1594 15.2588 14.1464C15.2826 14.0107 15.3087 13.8614 15.3919 13.7436L15.3922 13.7432C15.4526 13.6694 15.5292 13.6105 15.616 13.5711C15.7027 13.5316 15.7974 13.5127 15.8927 13.5156C15.9116 13.5157 15.9304 13.5236 15.9485 13.5366C15.9667 13.5496 15.9847 13.5682 16.0022 13.5904C16.0371 13.6348 16.0707 13.6949 16.0998 13.7579C16.129 13.821 16.1539 13.8873 16.1716 13.9445C16.1892 14.0014 16.1998 14.0502 16.1998 14.0776V14.0801L16.1511 14.1451H16.0949V14.1893L16.0881 14.19C16.0495 14.1939 16.019 14.1881 15.9936 14.1754C15.9684 14.1628 15.9489 14.1436 15.9316 14.1216C15.9186 14.1049 15.9066 14.0862 15.8944 14.0673C15.8906 14.0614 15.8869 14.0555 15.883 14.0497C15.8694 14.0288 15.8549 14.0081 15.8377 13.989C15.8337 14.0254 15.8375 14.0785 15.8461 14.1432C15.8557 14.2155 15.8712 14.3012 15.8877 14.3928L15.8887 14.3985C15.9224 14.5857 15.96 14.7962 15.96 14.9619C15.96 15.0977 15.9336 15.1962 15.905 15.2591C15.8907 15.2905 15.8758 15.3132 15.8633 15.3273C15.8631 15.3275 15.8629 15.3277 15.8627 15.3279ZM16.4321 15.3665L16.4388 15.3632L16.4371 15.3598L16.4334 15.3591L16.4321 15.3665Z" fill="#707070"/>
<path fill-rule="evenodd" clip-rule="evenodd" d="M14.6486 14.857C14.6486 14.9619 14.184 15.2166 14.1391 15.3066C14.1091 15.4115 14.259 15.4564 14.214 15.5164C14.169 15.5763 14.1241 15.5464 14.1091 15.5613L13.9293 15.1867C13.9293 15.1867 14.3789 14.9769 14.3639 14.8869C14.3489 14.797 14.0342 14.7371 13.9742 14.5273C13.9143 14.3174 13.9442 13.8828 13.8993 13.7929C13.8543 13.703 13.2998 13.6131 13.2998 13.4932C13.2998 13.3433 13.8693 12.9836 13.9293 12.9237C13.9892 12.8637 14.0491 12.9836 13.9892 13.0286C13.9293 13.0885 13.4946 13.4332 13.4946 13.4782C13.4946 13.5381 13.8543 13.5981 13.9742 13.5981C14.1091 13.5981 14.169 13.5381 14.169 13.4782C14.169 13.4332 14.0342 13.4332 14.0342 13.3283C14.0342 13.2234 14.1091 13.1485 14.229 13.1485C14.2889 13.1485 14.4088 13.2234 14.4088 13.3133C14.4088 13.4032 14.3039 13.4182 14.2889 13.4782C14.274 13.5531 14.4088 13.5981 14.5287 13.5981C14.6486 13.5981 15.0683 13.9128 15.1282 13.9727C15.2031 14.0177 15.2631 14.0177 15.2031 14.0776C15.1432 14.1376 15.1732 14.1975 15.1132 14.1376C15.084 14.1087 15.0633 14.0725 15.0533 14.0327C15.0533 13.9877 14.6037 13.7629 14.5287 13.8079C14.4688 13.8678 14.5287 14.5273 14.5287 14.5872C14.5287 14.6921 14.6636 14.6921 14.6486 14.857Z" fill="#D0D0D0"/>
<path fill-rule="evenodd" clip-rule="evenodd" d="M13.9704 12.9157C13.9605 12.913 13.9482 12.9154 13.9346 12.9289C13.9266 12.9369 13.9107 12.9494 13.8895 12.9652C13.8681 12.9811 13.8409 13.0007 13.81 13.0229L13.8094 13.0234C13.7477 13.0678 13.6713 13.1228 13.5967 13.1806C13.5218 13.2386 13.4491 13.2992 13.3951 13.3546C13.3682 13.3823 13.346 13.4085 13.3307 13.4322C13.3153 13.4561 13.3073 13.4766 13.3073 13.4931C13.3073 13.5051 13.3143 13.5178 13.3289 13.5313C13.3434 13.5447 13.3645 13.558 13.3906 13.5712C13.4427 13.5977 13.513 13.6228 13.5851 13.6472C13.6019 13.6528 13.6188 13.6585 13.6356 13.664C13.6907 13.6824 13.7446 13.7003 13.7894 13.718C13.8187 13.7295 13.8445 13.741 13.8644 13.7526C13.884 13.764 13.8994 13.7762 13.906 13.7895C13.9122 13.8018 13.9167 13.8193 13.9204 13.8404C13.924 13.8616 13.9268 13.887 13.929 13.9155C13.933 13.966 13.9353 14.0264 13.9377 14.0904C13.938 14.0985 13.9383 14.1066 13.9387 14.1148C13.9443 14.2613 13.9518 14.4213 13.9815 14.5252C14.0106 14.627 14.1017 14.6931 14.1898 14.7456C14.2062 14.7554 14.2226 14.7647 14.2384 14.7738C14.2645 14.7886 14.2889 14.8026 14.3093 14.816C14.3257 14.8269 14.34 14.8378 14.3508 14.8491C14.3615 14.8603 14.3691 14.8724 14.3713 14.8857C14.3737 14.9001 14.3667 14.9154 14.3555 14.9301C14.3441 14.9452 14.3273 14.9612 14.307 14.9775C14.2665 15.0102 14.2113 15.0451 14.156 15.077C14.1005 15.109 14.0447 15.1381 14.0027 15.1592C13.9817 15.1697 13.9641 15.1783 13.9518 15.1842C13.9467 15.1867 13.9425 15.1887 13.9393 15.1902L14.1124 15.5509C14.1167 15.5494 14.1212 15.5491 14.1253 15.5489C14.1281 15.5488 14.1308 15.5488 14.1336 15.5488C14.1386 15.5488 14.1437 15.5489 14.1496 15.5483C14.1664 15.5466 14.1869 15.54 14.2081 15.5119C14.2129 15.5054 14.2148 15.4996 14.215 15.4942C14.2152 15.4887 14.2137 15.4829 14.2104 15.4765C14.2044 15.4647 14.1937 15.4526 14.1813 15.4386C14.1797 15.4369 14.1782 15.4351 14.1766 15.4333C14.1486 15.4016 14.1157 15.3612 14.1319 15.3045L14.1321 15.3038L14.1324 15.3032C14.1387 15.2907 14.1517 15.2761 14.1688 15.2602C14.1861 15.2442 14.2081 15.2263 14.2331 15.2072C14.2683 15.1802 14.3097 15.1506 14.3524 15.1201C14.3703 15.1073 14.3884 15.0943 14.4064 15.0813C14.4673 15.0373 14.5264 14.993 14.5703 14.9533C14.5923 14.9334 14.6102 14.9149 14.6226 14.8982C14.6352 14.8814 14.6412 14.8676 14.6412 14.857H14.6487L14.6412 14.8563C14.6449 14.8161 14.6394 14.7865 14.6294 14.7629C14.6193 14.7393 14.6046 14.7214 14.5889 14.7047C14.5848 14.7004 14.5806 14.6961 14.5764 14.6918C14.5489 14.6639 14.5213 14.6359 14.5213 14.5872C14.5213 14.5755 14.5189 14.5399 14.5156 14.4896C14.5147 14.477 14.5138 14.4634 14.5129 14.4491C14.5082 14.3779 14.5026 14.2879 14.4988 14.1978C14.4951 14.1079 14.4932 14.0177 14.496 13.9462C14.4974 13.9105 14.5 13.8792 14.5042 13.8548C14.5063 13.8427 14.5088 13.832 14.5118 13.8234C14.5148 13.8148 14.5186 13.8075 14.5235 13.8026L14.5241 13.8019L14.5249 13.8014C14.5365 13.7945 14.5539 13.7934 14.5736 13.7953C14.5937 13.7973 14.6179 13.8027 14.6445 13.8105C14.6976 13.8261 14.7612 13.8516 14.8223 13.8798C14.8834 13.9079 14.9422 13.939 14.9858 13.9659C15.0076 13.9793 15.0258 13.9918 15.0386 14.0025C15.045 14.0078 15.0503 14.0129 15.0541 14.0175C15.0573 14.0216 15.0604 14.0264 15.0608 14.0316C15.0705 14.0697 15.0905 14.1045 15.1185 14.1323C15.1259 14.1397 15.1318 14.1451 15.1365 14.1488C15.1413 14.1526 15.1444 14.1542 15.1462 14.1547C15.1474 14.1551 15.1476 14.1549 15.1478 14.1548C15.1478 14.1548 15.1478 14.1548 15.1478 14.1548C15.1485 14.1542 15.1497 14.1528 15.1515 14.1492C15.1529 14.1464 15.1544 14.1429 15.1561 14.1387C15.1627 14.1225 15.1731 14.0971 15.1979 14.0723C15.2128 14.0574 15.2187 14.0476 15.2199 14.041C15.2205 14.038 15.22 14.0356 15.2189 14.0334C15.2177 14.031 15.2154 14.0284 15.2117 14.0255C15.2041 14.0195 15.1923 14.0138 15.1768 14.0064L15.1756 14.0059C15.1607 13.9987 15.143 13.9903 15.1244 13.9792L15.1236 13.9787L15.123 13.978C15.0935 13.9486 14.9742 13.8553 14.8468 13.7691C14.7832 13.7261 14.7179 13.6851 14.6611 13.6548C14.6327 13.6396 14.6065 13.6273 14.5838 13.6187C14.561 13.6101 14.5424 13.6056 14.5288 13.6056C14.4681 13.6056 14.4033 13.5942 14.3553 13.5731C14.3313 13.5625 14.311 13.5493 14.2975 13.5333C14.2839 13.5172 14.2774 13.498 14.2816 13.4767L14.2817 13.4763C14.286 13.4594 14.2965 13.446 14.3089 13.4343C14.3175 13.4263 14.3274 13.4185 14.3373 13.4109C14.3416 13.4076 14.3458 13.4044 14.3499 13.4011C14.3776 13.3789 14.4014 13.3546 14.4014 13.3133C14.4014 13.2717 14.3735 13.2324 14.3368 13.203C14.3 13.1736 14.2567 13.1559 14.229 13.1559C14.1707 13.1559 14.1239 13.1742 14.0918 13.2045C14.0597 13.2348 14.0417 13.2777 14.0417 13.3283C14.0417 13.3765 14.0722 13.4008 14.1053 13.4192C14.1122 13.423 14.1191 13.4265 14.1258 13.4299C14.1272 13.4306 14.1285 13.4313 14.1298 13.432C14.1377 13.436 14.1454 13.44 14.152 13.4442C14.1648 13.4522 14.1766 13.4626 14.1766 13.4782C14.1766 13.5108 14.1602 13.543 14.1266 13.5667C14.0931 13.5903 14.0427 13.6056 13.9743 13.6056C13.9136 13.6056 13.7931 13.5905 13.6879 13.5679C13.6353 13.5566 13.5862 13.5434 13.55 13.5292C13.532 13.522 13.5168 13.5145 13.5059 13.5066C13.4955 13.4989 13.4872 13.4895 13.4872 13.4782C13.4872 13.4754 13.488 13.4726 13.489 13.4702C13.4901 13.4677 13.4915 13.4651 13.4933 13.4623C13.4967 13.4569 13.5017 13.4505 13.5078 13.4435C13.5201 13.4294 13.5375 13.4118 13.5584 13.3919C13.6002 13.3522 13.6565 13.3029 13.7146 13.2533C13.7575 13.2166 13.8015 13.1797 13.8413 13.1462C13.8554 13.1343 13.869 13.1229 13.8819 13.112C13.9312 13.0705 13.9692 13.038 13.9839 13.0233L13.9847 13.0225C14.0107 13.003 14.0116 12.9664 13.9976 12.9403C13.9907 12.9274 13.9809 12.9185 13.9704 12.9157ZM14.6562 14.8573C14.656 14.8728 14.6476 14.8898 14.6346 14.9072C14.6214 14.9249 14.6027 14.9442 14.5804 14.9644C14.5358 15.0047 14.476 15.0494 14.4151 15.0935C14.397 15.1066 14.3788 15.1196 14.3609 15.1324C14.3183 15.1629 14.2773 15.1923 14.2423 15.2191C14.2174 15.2381 14.1958 15.2557 14.179 15.2712C14.1624 15.2866 14.1512 15.2994 14.1461 15.3093C14.1328 15.3571 14.1597 15.3915 14.1878 15.4234C14.1894 15.4252 14.191 15.4269 14.1926 15.4287C14.2047 15.4424 14.2169 15.4561 14.2238 15.4697C14.2278 15.4775 14.2303 15.4859 14.23 15.4947C14.2297 15.5036 14.2264 15.5123 14.22 15.5209C14.1962 15.5527 14.1717 15.5611 14.1511 15.5632C14.1445 15.5638 14.1379 15.5638 14.1324 15.5638C14.1299 15.5638 14.1277 15.5638 14.1258 15.5639C14.1188 15.5641 14.1159 15.5652 14.1144 15.5666L14.107 15.5741L13.9193 15.1831L13.9261 15.1799L13.9274 15.1793L13.9311 15.1775C13.9344 15.176 13.9392 15.1737 13.9453 15.1707C13.9576 15.1648 13.975 15.1563 13.996 15.1458C14.0378 15.1247 14.0934 15.0958 14.1485 15.064C14.2036 15.0322 14.258 14.9978 14.2976 14.9659C14.3174 14.9499 14.3332 14.9347 14.3436 14.9211C14.3541 14.9072 14.3579 14.8962 14.3565 14.8882C14.355 14.879 14.3495 14.8695 14.3399 14.8594C14.3303 14.8494 14.3171 14.8392 14.301 14.8285C14.281 14.8153 14.2574 14.8018 14.2317 14.7872C14.2158 14.7781 14.1992 14.7686 14.1821 14.7585C14.0941 14.706 13.9979 14.6373 13.9671 14.5293C13.9368 14.4233 13.9293 14.2612 13.9237 14.1154C13.9234 14.1072 13.9231 14.0991 13.9228 14.091C13.9203 14.0269 13.918 13.9668 13.9141 13.9166C13.9119 13.8884 13.9092 13.8635 13.9056 13.8429C13.902 13.8222 13.8977 13.8065 13.8926 13.7962C13.8881 13.7871 13.8762 13.7768 13.8569 13.7656C13.8379 13.7546 13.813 13.7434 13.7839 13.732C13.7395 13.7144 13.6861 13.6967 13.6311 13.6784C13.6143 13.6727 13.5973 13.6671 13.5803 13.6614C13.5082 13.637 13.437 13.6116 13.3838 13.5846C13.3572 13.5711 13.3347 13.5571 13.3187 13.5423C13.3028 13.5275 13.2924 13.5112 13.2924 13.4931C13.2924 13.4723 13.3022 13.4488 13.3181 13.424C13.3342 13.3992 13.3571 13.3722 13.3844 13.3441C13.4391 13.288 13.5125 13.2269 13.5875 13.1688C13.6623 13.1108 13.7389 13.0556 13.8006 13.0112L13.8013 13.0108C13.8322 12.9885 13.8593 12.969 13.8806 12.9532C13.902 12.9372 13.917 12.9254 13.924 12.9183C13.9404 12.9019 13.9581 12.8968 13.9743 12.9012C13.9901 12.9054 14.0027 12.918 14.0108 12.9332C14.0268 12.9632 14.0277 13.0087 13.9942 13.0342C13.9787 13.0497 13.9402 13.0825 13.8915 13.1235C13.8786 13.1344 13.865 13.1458 13.8509 13.1577C13.8111 13.1912 13.7672 13.228 13.7244 13.2647C13.6663 13.3143 13.6102 13.3634 13.5687 13.4028C13.5479 13.4225 13.5309 13.4397 13.5191 13.4533C13.5132 13.4601 13.5088 13.4658 13.5059 13.4704C13.5044 13.4727 13.5034 13.4745 13.5028 13.476C13.5025 13.4767 13.5024 13.4772 13.5023 13.4776C13.5022 13.478 13.5022 13.4782 13.5022 13.4782C13.5022 13.4818 13.5051 13.4874 13.5148 13.4945C13.5241 13.5013 13.5379 13.5083 13.5555 13.5152C13.5905 13.529 13.6388 13.5421 13.6911 13.5533C13.7957 13.5757 13.9151 13.5906 13.9743 13.5906C14.0407 13.5906 14.0877 13.5758 14.1179 13.5545C14.148 13.5332 14.1616 13.5054 14.1616 13.4782C14.1616 13.4712 14.1565 13.4647 14.144 13.4569C14.138 13.4531 14.1309 13.4494 14.123 13.4453C14.1217 13.4447 14.1204 13.444 14.1191 13.4433C14.1124 13.4399 14.1052 13.4362 14.098 13.4323C14.0637 13.4132 14.0267 13.385 14.0267 13.3283C14.0267 13.274 14.0462 13.227 14.0815 13.1936C14.1169 13.1602 14.1675 13.141 14.229 13.141C14.2614 13.141 14.3079 13.1608 14.3461 13.1913C14.3843 13.2219 14.4164 13.265 14.4164 13.3133C14.4164 13.3619 14.3877 13.3901 14.3592 13.4128C14.3547 13.4165 14.3502 13.42 14.3458 13.4233C14.3362 13.4307 14.3272 13.4377 14.3192 13.4452C14.3078 13.456 14.2996 13.4669 14.2963 13.4798C14.2931 13.4959 14.2978 13.5104 14.309 13.5237C14.3204 13.5372 14.3385 13.5493 14.3613 13.5594C14.407 13.5794 14.4696 13.5906 14.5288 13.5906C14.5451 13.5906 14.5658 13.5959 14.5891 13.6047C14.6126 13.6136 14.6394 13.6263 14.6681 13.6416C14.7256 13.6722 14.7914 13.7135 14.8552 13.7567C14.9817 13.8423 15.1013 13.9356 15.1329 13.9668C15.1506 13.9773 15.1674 13.9854 15.1822 13.9924L15.1832 13.9929C15.1982 14 15.2117 14.0065 15.2209 14.0136C15.2256 14.0173 15.2297 14.0215 15.2322 14.0265C15.2349 14.0318 15.2358 14.0375 15.2347 14.0436C15.2326 14.0552 15.2236 14.0679 15.2085 14.0829C15.1862 14.1053 15.1772 14.1269 15.1705 14.1432C15.1685 14.1479 15.1668 14.1522 15.1649 14.1559C15.163 14.1599 15.1604 14.164 15.1567 14.1668C15.1524 14.17 15.1473 14.1706 15.1421 14.1691C15.1374 14.1678 15.1325 14.1647 15.1272 14.1606C15.1219 14.1563 15.1155 14.1505 15.108 14.1429M14.5335 13.8138C14.5311 13.8165 14.5285 13.8212 14.526 13.8283C14.5233 13.8359 14.521 13.8457 14.5189 13.8574C14.5149 13.8808 14.5124 13.9113 14.511 13.9468C14.5082 14.0177 14.51 14.1074 14.5138 14.1972C14.5175 14.287 14.5231 14.3769 14.5278 14.4481C14.5288 14.4622 14.5296 14.4756 14.5305 14.4881C14.5338 14.5386 14.5363 14.5749 14.5363 14.5872C14.5363 14.6293 14.5592 14.6528 14.5866 14.6808C14.5909 14.6852 14.5953 14.6897 14.5998 14.6944C14.6159 14.7116 14.6321 14.7311 14.6432 14.7571C14.6542 14.7831 14.6599 14.8152 14.6562 14.8573" fill="#707070"/>
<path fill-rule="evenodd" clip-rule="evenodd" d="M13.8693 13.5831H14.6186V14.3474H13.8693V13.5831Z" fill="#A7A7A7"/>
<path d="M16.2533 16.3413L13.7939 12.6494C13.7709 12.615 13.7405 12.5934 13.7259 12.6011C13.7113 12.6089 13.718 12.6432 13.741 12.6776L16.2004 16.3695C16.2234 16.4039 16.2538 16.4255 16.2684 16.4177C16.283 16.4099 16.2763 16.3757 16.2533 16.3413Z" fill="#808080"/>
<path fill-rule="evenodd" clip-rule="evenodd" d="M14.0633 12.9831C14.0633 13.0123 14.0504 13.0403 14.0273 13.0609C14.0042 13.0816 13.9729 13.0932 13.9403 13.0932C13.9077 13.0932 13.8764 13.0816 13.8533 13.0609C13.8302 13.0403 13.8173 13.0123 13.8173 12.9831C13.8173 12.9539 13.8302 12.9259 13.8533 12.9053C13.8764 12.8846 13.9077 12.873 13.9403 12.873C13.9729 12.873 14.0042 12.8846 14.0273 12.9053C14.0504 12.9259 14.0633 12.9539 14.0633 12.9831Z" fill="#D0D0D0"/>
<path fill-rule="evenodd" clip-rule="evenodd" d="M13.9402 12.8812C13.9095 12.8812 13.8801 12.8921 13.8587 12.9114C13.8372 12.9306 13.8254 12.9564 13.8254 12.9831C13.8254 13.0098 13.8372 13.0356 13.8587 13.0548C13.8801 13.074 13.9095 13.085 13.9402 13.085C13.9709 13.085 14.0002 13.074 14.0217 13.0548C14.0432 13.0356 14.055 13.0098 14.055 12.9831C14.055 12.9564 14.0432 12.9306 14.0217 12.9114C14.0002 12.8921 13.9709 12.8812 13.9402 12.8812ZM13.8477 12.8992C13.8724 12.8771 13.9057 12.8648 13.9402 12.8648C13.9747 12.8648 14.008 12.8771 14.0327 12.8992C14.0574 12.9212 14.0714 12.9514 14.0714 12.9831C14.0714 13.0148 14.0574 13.0449 14.0327 13.067C14.008 13.0891 13.9747 13.1014 13.9402 13.1014C13.9057 13.1014 13.8724 13.0891 13.8477 13.067C13.823 13.0449 13.809 13.0148 13.809 12.9831C13.809 12.9514 13.823 12.9212 13.8477 12.8992Z" fill="#707070"/>
<path fill-rule="evenodd" clip-rule="evenodd" d="M16.2073 13.9727C16.2073 14.0177 15.9076 14.0776 15.5929 14.0776C15.2631 14.0776 14.9784 14.0177 14.9784 13.9727C14.9784 13.9278 15.2631 14.0477 15.5779 14.0477C15.9226 14.0477 16.2073 13.9278 16.2073 13.9727Z" fill="#808080"/>
<path fill-rule="evenodd" clip-rule="evenodd" d="M13.9292 14.3474H14.5437V14.5722H13.9442L13.9292 14.3474Z" fill="#A7A7A7"/>
<path fill-rule="evenodd" clip-rule="evenodd" d="M15.9225 13.8079C15.8626 13.9278 15.8176 14.0027 15.8026 13.9877C15.8026 13.9877 15.8326 13.8678 15.8925 13.7629L16.0124 13.5831C16.0274 13.5981 15.9825 13.703 15.9225 13.8079ZM16.0724 14.1076L15.9525 14.1825C15.9836 14.1304 16.0242 14.0846 16.0724 14.0477C16.1473 13.9877 16.2073 13.9577 16.2073 13.9727L16.0874 14.0926L16.0724 14.1076Z" fill="#808080"/>
<path fill-rule="evenodd" clip-rule="evenodd" d="M16.0124 13.9577L16.0873 14.1376L15.9674 13.9877L15.8925 13.8079L16.0124 13.9577ZM15.9525 14.4373C15.9525 14.4373 15.7726 14.4673 15.5328 14.4673C15.293 14.4673 15.0982 14.4523 15.0982 14.4373L15.5328 14.4074C15.7726 14.4074 15.9525 14.4074 15.9525 14.4373ZM14.5437 14.3774C14.5437 14.3924 14.4088 14.4074 14.244 14.4074C14.0641 14.4074 13.9442 14.4074 13.9442 14.3774C13.9442 14.3774 14.0641 14.3474 14.244 14.3474C14.4088 14.3474 14.5437 14.3624 14.5437 14.3774Z" fill="#808080"/>
<path fill-rule="evenodd" clip-rule="evenodd" d="M13.1949 16.2957C13.1949 16.2957 13.2999 16.5355 13.7345 16.5355C14.1541 16.5355 14.304 16.4606 14.1391 16.3407C13.9743 16.2208 13.6296 16.2507 13.6895 16.3556C13.7195 16.4755 13.5546 16.5055 13.5247 16.4306C13.4797 16.3556 13.3298 16.1159 13.5996 16.1009C13.8843 16.0859 14.4688 15.996 14.6187 16.1608C14.7686 16.3257 14.4538 16.4605 14.6936 16.5055C14.9184 16.5355 14.9634 16.4606 15.368 16.4456C15.7727 16.4156 15.9375 16.5205 16.0724 16.5055C16.2223 16.5055 16.1923 16.2507 16.0724 16.2058C15.9675 16.1308 15.7577 16.1159 15.6978 16.0559C15.6528 15.981 15.5029 16.0559 15.5179 15.966C15.5179 15.891 15.7277 16.0109 15.7277 15.981L15.7577 15.951H15.7127L15.7277 15.921L15.6978 15.936L15.7127 15.906C15.7127 15.906 15.6678 15.936 15.6678 15.906H15.6378C15.6678 15.8761 15.6528 15.8761 15.6378 15.8611H15.5928V15.8161C15.5629 15.8161 15.5629 15.8161 15.5479 15.8461V15.7712C15.5479 15.7562 15.5779 15.7412 15.6228 15.7412C15.7277 15.7412 15.7727 15.8611 15.8176 15.8611C15.8476 15.8611 15.8926 15.7412 16.0275 15.7861L16.2523 15.8761C16.3272 15.921 16.2073 15.966 16.2523 16.0259C16.2972 16.0859 16.567 16.2807 16.4921 16.5055C16.4171 16.7153 16.1923 16.7453 16.1923 16.8352C16.1623 16.9251 16.8368 16.8952 17.0016 16.9251C17.1162 16.9459 17.2183 17.0104 17.2864 17.105L16.9866 17.12C16.9866 17.12 16.8368 17.045 16.4621 17.0301C16.0874 17.0301 15.9525 16.8802 15.8027 16.8502L15.2032 16.8802L14.7536 16.8352C14.6637 16.8202 14.1241 17.075 14.1241 17.135H13.7644C13.7644 17.135 13.8094 17.0001 14.0192 16.9851C14.2141 16.9551 14.4239 16.8652 14.4089 16.8052L14.4688 16.4156C14.4688 16.3257 14.5588 16.2657 14.5438 16.2357C14.5288 16.1758 14.289 16.1308 14.0642 16.1308C13.8394 16.1308 13.5996 16.1458 13.5546 16.1908C13.5247 16.2507 13.5546 16.4156 13.5996 16.3856C13.6446 16.3856 13.5846 16.2657 13.6296 16.2507C13.7267 16.2209 13.8277 16.2057 13.9293 16.2058C14.0492 16.2058 14.244 16.3107 14.244 16.3556C14.244 16.3706 14.304 16.4755 14.2141 16.5205C14.0645 16.5701 13.9067 16.5904 13.7495 16.5804C13.5929 16.5723 13.4397 16.5314 13.2999 16.4606C13.2399 16.4156 13.1949 16.3107 13.1949 16.2957Z" fill="#D0D0D0"/>
<path fill-rule="evenodd" clip-rule="evenodd" d="M15.5585 15.7654C15.5559 15.7681 15.5553 15.77 15.5553 15.7712V15.8182C15.5569 15.8165 15.5586 15.8149 15.5605 15.8136C15.5647 15.8108 15.5693 15.8097 15.5744 15.8091C15.5793 15.8086 15.5852 15.8086 15.5924 15.8086L15.6003 15.8086V15.8536H15.6408L15.643 15.8558C15.6455 15.8582 15.6478 15.8601 15.6502 15.8621C15.6511 15.8629 15.6521 15.8636 15.6531 15.8645C15.6561 15.867 15.66 15.8706 15.6617 15.8756C15.6636 15.8812 15.6621 15.8868 15.659 15.8922C15.6578 15.8942 15.6564 15.8963 15.6546 15.8985H15.6752V15.906C15.6752 15.9089 15.6757 15.9103 15.6761 15.9108C15.6763 15.9112 15.6765 15.9114 15.6771 15.9116C15.6789 15.9122 15.6824 15.912 15.6878 15.9102C15.6928 15.9085 15.698 15.9059 15.702 15.9037C15.704 15.9026 15.7056 15.9016 15.7068 15.9009L15.7081 15.9001L15.7084 15.8999L15.7085 15.8998M15.5853 15.8236C15.5815 15.8237 15.5785 15.8238 15.576 15.824C15.5722 15.8244 15.5702 15.8252 15.5688 15.8261C15.5673 15.8271 15.5657 15.8288 15.5633 15.8327C15.561 15.8365 15.5583 15.8418 15.5545 15.8494L15.5403 15.8461V15.7712C15.5403 15.7648 15.5435 15.7592 15.5479 15.7549C15.5523 15.7505 15.5584 15.7467 15.5655 15.7437C15.5797 15.7375 15.5995 15.7337 15.6227 15.7337C15.6783 15.7337 15.7177 15.7656 15.7479 15.7958C15.7546 15.8024 15.7606 15.8088 15.7662 15.8148C15.774 15.8229 15.781 15.8304 15.788 15.8368C15.8002 15.8481 15.8095 15.8536 15.8176 15.8536C15.8189 15.8536 15.8213 15.8529 15.8252 15.85C15.8291 15.8472 15.8335 15.843 15.8387 15.8377C15.8404 15.8361 15.8421 15.8344 15.8439 15.8326C15.8533 15.823 15.8648 15.8114 15.8786 15.8008C15.8951 15.7881 15.9154 15.7768 15.9404 15.7715C15.9655 15.7663 15.9949 15.7674 16.0298 15.779L16.0302 15.7792L16.2561 15.8696L16.256 15.8696C16.276 15.8816 16.285 15.8949 16.285 15.91C16.285 15.924 16.2771 15.9374 16.2698 15.9493C16.269 15.9507 16.2681 15.9521 16.2673 15.9534C16.2604 15.9645 16.254 15.9748 16.251 15.9856C16.2478 15.9969 16.2485 16.0085 16.2582 16.0214C16.2634 16.0284 16.2722 16.0377 16.2838 16.0492C16.2896 16.0551 16.296 16.0613 16.3028 16.0679C16.3095 16.0745 16.3167 16.0816 16.3244 16.0892C16.355 16.1195 16.3909 16.1568 16.423 16.1994C16.4872 16.2843 16.5378 16.3919 16.4991 16.5079L16.499 16.508C16.4608 16.6152 16.3842 16.6763 16.3183 16.7215C16.3086 16.7281 16.2993 16.7343 16.2904 16.7403C16.2684 16.7549 16.2489 16.7679 16.2334 16.781C16.2115 16.7994 16.1997 16.8162 16.1997 16.8352V16.8364L16.1994 16.8376C16.1983 16.8409 16.1987 16.8435 16.2007 16.8464C16.203 16.8497 16.2075 16.8533 16.215 16.857C16.2298 16.8643 16.2534 16.8705 16.2841 16.8756C16.3452 16.8858 16.4314 16.8914 16.5241 16.8952C16.581 16.8975 16.6401 16.8991 16.6971 16.9006C16.7331 16.9016 16.7683 16.9025 16.8016 16.9036C16.8873 16.9064 16.961 16.9102 17.0029 16.9178C17.1194 16.9389 17.2232 17.0045 17.2924 17.1006L17.3004 17.1118L16.985 17.1276M16.0248 15.7932C15.9923 15.7824 15.9656 15.7816 15.9434 15.7862C15.9212 15.7908 15.903 15.801 15.8877 15.8127C15.8748 15.8226 15.8642 15.8334 15.8547 15.8429C15.8529 15.8448 15.8511 15.8466 15.8493 15.8483C15.8441 15.8536 15.839 15.8585 15.8341 15.8621C15.8293 15.8655 15.8237 15.8686 15.8176 15.8686C15.8032 15.8686 15.79 15.8591 15.7778 15.8478C15.7706 15.8412 15.7629 15.833 15.7547 15.8244C15.7491 15.8185 15.7432 15.8123 15.7373 15.8064C15.7077 15.7767 15.6721 15.7487 15.6227 15.7487C15.601 15.7487 15.5833 15.7523 15.5714 15.7574C15.5654 15.76 15.5611 15.7628 15.5585 15.7654M13.5607 16.1953C13.5543 16.2088 13.5508 16.2286 13.5501 16.251C13.5494 16.2738 13.5517 16.2985 13.5563 16.3204C13.5609 16.3425 13.5676 16.361 13.5754 16.3719C13.5793 16.3774 13.5829 16.3802 13.5859 16.3812C13.5884 16.3821 13.5914 16.382 13.5954 16.3794L13.5972 16.3781H13.5995C13.6033 16.3781 13.605 16.377 13.6061 16.3756C13.6075 16.3739 13.6088 16.3709 13.6094 16.3657C13.6107 16.3554 13.609 16.341 13.6071 16.3247C13.6052 16.3091 13.6032 16.2917 13.6047 16.2773C13.6062 16.263 13.6116 16.2488 13.6271 16.2436L13.6273 16.2436C13.7251 16.2135 13.8269 16.1982 13.9292 16.1983M13.5607 16.1953C13.5654 16.1909 13.5728 16.1865 13.583 16.1822C13.5938 16.1777 13.6073 16.1735 13.6233 16.1697C13.6551 16.1621 13.696 16.1561 13.7426 16.1514C13.836 16.1421 13.9518 16.1383 14.0641 16.1383C14.1761 16.1383 14.2917 16.1495 14.3811 16.1681C14.4258 16.1775 14.4636 16.1886 14.491 16.2009C14.5047 16.2071 14.5155 16.2134 14.5232 16.2198C14.531 16.2262 14.5351 16.2322 14.5364 16.2376L14.5366 16.2384L14.537 16.2391C14.5388 16.2428 14.5381 16.2489 14.5318 16.2602C14.5274 16.2679 14.5214 16.2765 14.5144 16.2864C14.5116 16.2904 14.5087 16.2945 14.5057 16.2989C14.4851 16.3289 14.4615 16.3678 14.4613 16.415L14.4012 16.8056L14.4015 16.8071C14.4028 16.8122 14.4019 16.8181 14.3978 16.8253C14.3938 16.8325 14.3868 16.8403 14.3768 16.8487C14.357 16.8654 14.3268 16.8828 14.2896 16.8996C14.2154 16.933 14.115 16.9627 14.0183 16.9776C13.9119 16.9853 13.8466 17.0234 13.8079 17.0602C13.7886 17.0786 13.776 17.0965 13.7682 17.1099C13.7643 17.1166 13.7616 17.1222 13.7599 17.1261C13.759 17.1281 13.7584 17.1297 13.7579 17.1308L13.7575 17.1321L13.7573 17.1324L13.7573 17.1325M14.2413 16.3317C14.2472 16.3393 14.2514 16.3475 14.2514 16.3556C14.2514 16.3556 14.2515 16.3561 14.2519 16.3576C14.2522 16.3589 14.2527 16.3607 14.2535 16.3628C14.2542 16.365 14.255 16.3674 14.256 16.3701C14.2569 16.3728 14.258 16.3758 14.259 16.379C14.2633 16.3918 14.2682 16.4084 14.2701 16.426C14.2721 16.4436 14.2712 16.4629 14.2635 16.4808C14.2557 16.499 14.2413 16.5152 14.2173 16.5272L14.2164 16.5277C14.0659 16.5776 13.9072 16.598 13.749 16.5879C13.5913 16.5797 13.4372 16.5386 13.2964 16.4672L13.2952 16.4666L13.2953 16.4665C13.264 16.4431 13.2372 16.4046 13.2183 16.3705C13.2088 16.3534 13.2012 16.3372 13.1959 16.3243C13.1933 16.3178 13.1912 16.3121 13.1898 16.3074C13.1884 16.3031 13.1874 16.2988 13.1874 16.2957M14.2413 16.3317C14.2352 16.3239 14.2266 16.3157 14.2163 16.3074L14.2413 16.3317ZM14.2163 16.3074C14.1956 16.2908 14.1671 16.2732 14.1349 16.2571L14.2163 16.3074ZM14.1349 16.2571C14.0708 16.2251 13.9909 16.1983 13.9292 16.1983L14.1349 16.2571Z" fill="#808080"/>
<path fill-rule="evenodd" clip-rule="evenodd" d="M15.9226 15.921C15.9226 15.9269 15.9214 15.9328 15.9191 15.9382C15.9169 15.9437 15.9136 15.9486 15.9094 15.9528C15.9052 15.957 15.9003 15.9603 15.8948 15.9626C15.8894 15.9648 15.8835 15.966 15.8776 15.966C15.8717 15.966 15.8659 15.9648 15.8604 15.9626C15.8549 15.9603 15.85 15.957 15.8458 15.9528C15.8416 15.9486 15.8383 15.9437 15.8361 15.9382C15.8338 15.9328 15.8326 15.9269 15.8326 15.921C15.8326 15.9091 15.8374 15.8977 15.8458 15.8892C15.8542 15.8808 15.8657 15.8761 15.8776 15.8761C15.8895 15.8761 15.901 15.8808 15.9094 15.8892C15.9178 15.8977 15.9226 15.9091 15.9226 15.921Z" fill="black"/>
<path d="M18.2454 15.2166L18.4852 15.2616L18.8899 14.9918L18.8599 15.1417L18.6501 15.2766L18.5302 15.3365L18.6051 15.4564L18.74 15.6662L18.71 15.8161L18.4552 15.3815L18.2154 15.3365L18.2454 15.2166ZM17.8408 13.4482L18.2904 13.2384L18.1705 12.9686L18.2304 12.9386L18.5302 13.5981L18.4852 13.628L18.3503 13.3433L17.9007 13.5681L17.8408 13.4482ZM17.1214 12.5789L17.541 12.1893L17.631 12.2792V12.9386L17.9607 12.6389L18.0356 12.7288L17.616 13.1185L17.526 13.0286V12.3691L17.1963 12.6689L17.1214 12.5789ZM15.263 11.8296L15.338 11.2601H15.4579L15.3829 11.7846L15.8325 11.8296V11.9045L15.263 11.8296ZM14.3488 11.9195L14.2439 11.35L14.3638 11.32L14.4537 11.8296L14.9033 11.7397V11.8146L14.3488 11.9195ZM12.6553 12.7438L12.6104 12.6988L12.9101 12.4591L13.06 12.6089C13.0278 12.6737 12.9875 12.7341 12.9401 12.7888C12.9012 12.8439 12.8559 12.8942 12.8052 12.9386C12.7419 12.9893 12.6711 13.0297 12.5954 13.0585C12.5204 13.0735 12.4455 13.0885 12.4005 13.0585C12.3432 13.0524 12.29 13.0258 12.2507 12.9836C12.2203 12.9396 12.2046 12.8872 12.2057 12.8337C12.2057 12.7738 12.2207 12.6988 12.2657 12.6389C12.2956 12.5789 12.3556 12.519 12.4155 12.474C12.4654 12.4317 12.5209 12.3964 12.5804 12.3691L12.7153 12.3392C12.7452 12.3392 12.7902 12.3392 12.8202 12.3691L12.7602 12.4441C12.7319 12.432 12.701 12.4269 12.6703 12.4291L12.5804 12.4441C12.5422 12.4642 12.5069 12.4894 12.4755 12.519C12.4305 12.549 12.3856 12.5789 12.3706 12.6239C12.3453 12.65 12.325 12.6805 12.3106 12.7138V12.7888C12.3106 12.8337 12.3256 12.8787 12.3556 12.9087L12.4605 12.9836L12.6104 12.9686C12.7483 12.9104 12.8602 12.8038 12.9251 12.6689L12.8651 12.5789L12.6553 12.7438ZM12.6403 16.8952L12.1607 17.2399L11.8011 16.7303L11.861 16.6854L12.1607 17.09L12.2956 16.9851L12.0558 16.6404L12.1008 16.6104L12.3556 16.9551L12.5654 16.8052L12.6403 16.8952ZM11.9359 16.1458C12.0109 16.1308 12.0558 16.0859 12.0858 16.0109V15.7861C12.0622 15.7088 12.015 15.6407 11.9509 15.5913C11.906 15.5463 11.831 15.5314 11.7711 15.5463C11.7237 15.5567 11.6813 15.5832 11.6512 15.6213C11.6362 15.6513 11.6062 15.6962 11.6062 15.7412L11.6212 15.906C11.6512 15.996 11.6812 16.0559 11.7411 16.1158C11.7861 16.1608 11.861 16.1758 11.9359 16.1458ZM11.9809 16.2657C11.937 16.2797 11.8901 16.2815 11.8452 16.271C11.8004 16.2604 11.7592 16.2379 11.7261 16.2058C11.6462 16.1338 11.5889 16.04 11.5613 15.936C11.5313 15.8461 11.5313 15.7861 11.5313 15.6962C11.5313 15.6063 11.5613 15.5763 11.5912 15.5314C11.6254 15.478 11.6793 15.4402 11.7411 15.4265C11.7914 15.4152 11.8439 15.4205 11.891 15.4414C11.9509 15.4714 11.9959 15.5014 12.0409 15.5613C12.1329 15.6922 12.1754 15.8516 12.1607 16.0109C12.1553 16.0701 12.1347 16.1269 12.1008 16.1758C12.0708 16.2208 12.0259 16.2507 11.9809 16.2657ZM12.0259 15.0967H11.4264V14.6771L11.4564 14.4973L11.5163 14.3924C11.5285 14.3815 11.5427 14.3733 11.5582 14.3681C11.5736 14.363 11.59 14.361 11.6062 14.3624C11.6512 14.3624 11.6812 14.3774 11.7111 14.4223C11.7261 14.4673 11.7561 14.5272 11.7561 14.6172C11.7759 14.5539 11.8121 14.497 11.861 14.4523L12.0259 14.3024V14.4523L11.906 14.5572L11.8161 14.6471C11.7982 14.6648 11.783 14.685 11.7711 14.7071C11.7686 14.727 11.7686 14.7471 11.7711 14.767V14.827L11.7561 14.9768H12.0259V15.0967ZM11.6962 14.9619V14.7071C11.7012 14.6623 11.7012 14.617 11.6962 14.5722C11.6908 14.5502 11.6806 14.5297 11.6662 14.5123C11.6554 14.497 11.6394 14.4863 11.6212 14.4823C11.5912 14.4823 11.5613 14.4973 11.5463 14.5272L11.5163 14.6771V14.9768H11.7111L11.6962 14.9619ZM13.2998 12.4291V11.7547L13.4196 11.6797L14.0341 11.9795L13.9142 12.0544L13.7344 11.9645L13.4196 12.1593V12.3691L13.2998 12.4291ZM13.4047 12.0844L13.6744 11.9345L13.5246 11.8446C13.4781 11.8224 13.433 11.7974 13.3897 11.7697L13.4047 11.8895V12.0844ZM16.1922 11.9045L16.8217 11.6498L16.9266 11.7247L16.8816 12.4141L16.7767 12.3242L16.7917 12.1293L16.492 11.9045L16.2971 11.9795L16.1922 11.9045ZM16.5519 11.8746L16.8067 12.0544V11.8746C16.8136 11.824 16.8236 11.774 16.8367 11.7247C16.8047 11.7537 16.7695 11.7788 16.7317 11.7996L16.5519 11.8746ZM18.0956 14.0177L18.6651 13.8828L18.755 14.2874L18.7849 14.4673L18.755 14.5722C18.7473 14.5868 18.7367 14.5997 18.7238 14.61C18.7109 14.6203 18.696 14.6279 18.68 14.6321C18.6351 14.6321 18.5901 14.6321 18.5601 14.6022C18.5106 14.552 18.4745 14.4901 18.4552 14.4223C18.4577 14.4472 18.4577 14.4724 18.4552 14.4973L18.3953 14.6172L18.2754 14.797L18.2454 14.6471L18.3353 14.4973L18.3953 14.4073C18.4156 14.3707 18.4259 14.3293 18.4253 14.2874C18.422 14.2622 18.417 14.2371 18.4103 14.2125L18.3803 14.0776L18.1255 14.1376L18.0956 14.0177ZM18.4402 14.0626L18.5002 14.3174C18.5002 14.3624 18.5302 14.4073 18.5452 14.4373C18.5452 14.4673 18.5751 14.4823 18.5901 14.4973L18.6501 14.5123C18.6651 14.5123 18.695 14.4823 18.695 14.4523C18.7071 14.4031 18.7071 14.3517 18.695 14.3024L18.6201 14.0177L18.4402 14.0626Z" fill="#D0D0D0"/>
</g>
<defs>
<clipPath id="clip0_264_20530">
<rect width="60" height="45" fill="white"/>
</clipPath>
</defs>
</svg>
