<svg width="60" height="45" viewBox="0 0 60 45" fill="none" xmlns="http://www.w3.org/2000/svg">
<g clip-path="url(#clip0_264_20107)">
<path fill-rule="evenodd" clip-rule="evenodd" d="M0 0H19.9969V45H0V0Z" fill="#00319C"/>
<path fill-rule="evenodd" clip-rule="evenodd" d="M19.9968 0H40.0031V45H19.9968V0Z" fill="#FFDE00"/>
<path fill-rule="evenodd" clip-rule="evenodd" d="M40.0032 0H60V45H40.0032V0Z" fill="#DE2110"/>
<path fill-rule="evenodd" clip-rule="evenodd" d="M33.7875 30.0375L36.0562 33.3188C36.1875 33.5063 36.3094 33.6844 36.1219 33.8063C35.9344 33.9281 35.9906 34.4063 36.1219 34.5938C36.375 34.9594 36.6844 35.0156 36.8719 34.8938L38.5969 33.8063C38.7844 33.6938 38.85 33.3844 38.5969 33.0188C38.4562 32.8313 38.0344 32.5969 37.8469 32.7188C37.65 32.8406 37.5187 32.6531 37.3969 32.475L35.1187 29.1938" fill="#FF1900"/>
<path fill-rule="evenodd" clip-rule="evenodd" d="M35.1457 29.175L37.4239 32.4565C37.4858 32.5468 37.5459 32.6331 37.6133 32.683C37.6462 32.7075 37.6791 32.7218 37.7131 32.7244C37.7468 32.727 37.785 32.7184 37.8293 32.691C37.8849 32.655 37.955 32.647 38.0271 32.6552C38.0997 32.6635 38.1778 32.6885 38.2531 32.7229C38.4029 32.7912 38.5486 32.8997 38.6231 32.9991L38.6239 33.0001C38.8817 33.3725 38.8253 33.7071 38.6141 33.8342L36.8897 34.9213C36.8897 34.9213 36.8896 34.9213 36.8896 34.9214C36.681 35.0568 36.3533 34.9856 36.0949 34.6125C36.0246 34.5119 35.9767 34.3388 35.9696 34.1768C35.9659 34.0953 35.9725 34.0145 35.9928 33.9451C36.0131 33.876 36.0481 33.815 36.104 33.7787C36.1463 33.7512 36.1683 33.7225 36.1782 33.6942C36.1882 33.6656 36.1875 33.6333 36.177 33.596C36.1554 33.5193 36.0961 33.4328 36.0294 33.3376L36.0292 33.3374L33.7605 30.0562L33.8145 30.0188L36.0831 33.2999C36.0831 33.2999 36.0831 33.3 36.0831 33.2999C36.1477 33.3921 36.2149 33.4885 36.2402 33.5782C36.2531 33.6241 36.2559 33.6709 36.2401 33.7159C36.2243 33.7611 36.1911 33.8004 36.1397 33.8338C36.1019 33.8584 36.0736 33.9029 36.0558 33.9636C36.0381 34.024 36.0317 34.0972 36.0351 34.1739C36.042 34.3284 36.0879 34.488 36.1487 34.5749L36.1488 34.5751C36.3967 34.933 36.6875 34.9744 36.854 34.8662L36.8544 34.866L38.58 33.7781C38.7434 33.6801 38.8181 33.3963 38.5702 33.0379C38.504 32.9499 38.3687 32.8477 38.2258 32.7826C38.1546 32.7501 38.0833 32.7277 38.0197 32.7204C37.9557 32.7131 37.9028 32.7215 37.8647 32.7463L37.8641 32.7467C37.8101 32.7801 37.7582 32.7937 37.7081 32.7898C37.6584 32.786 37.6139 32.7652 37.5742 32.7357C37.4963 32.6779 37.4299 32.5814 37.3699 32.4936C37.3698 32.4936 37.3698 32.4936 37.3698 32.4935L35.0918 29.2125L35.1457 29.175Z" fill="black"/>
<path fill-rule="evenodd" clip-rule="evenodd" d="M34.678 27.7247C35.6927 28.8772 36.0457 30.1987 35.4674 30.6637C34.889 31.1286 33.5869 30.57 32.5722 29.4175C31.5575 28.2649 31.2095 26.9394 31.7878 26.4745C32.3662 26.0096 33.6641 26.5634 34.683 27.7207L34.678 27.7247Z" fill="#A77B3B"/>
<path fill-rule="evenodd" clip-rule="evenodd" d="M31.6608 27.6696C31.7988 28.1896 32.1327 28.7988 32.6337 29.368C33.1349 29.9372 33.7047 30.3569 34.216 30.5767C34.7332 30.7991 35.163 30.8071 35.4152 30.6044C35.6673 30.4017 35.7327 29.9957 35.5919 29.4707C35.4528 28.9517 35.1176 28.3434 34.6165 27.7741L34.5643 27.7149L34.5688 27.7112C34.0787 27.1697 33.5307 26.7713 33.0376 26.5597C32.5211 26.3379 32.0923 26.331 31.84 26.5338C31.5877 26.7366 31.5213 27.1437 31.6608 27.6696ZM34.7913 27.7348L34.7967 27.7305L34.7445 27.6712C34.2289 27.0856 33.6403 26.6496 33.1028 26.4188C32.571 26.1906 32.0617 26.1531 31.7356 26.4152C31.4095 26.6773 31.3608 27.1654 31.5044 27.7066C31.6496 28.2537 31.997 28.8835 32.5106 29.4669C33.0242 30.0503 33.6128 30.4862 34.1508 30.7175C34.6829 30.9463 35.1933 30.9851 35.5195 30.7229C35.8457 30.4607 35.893 29.9735 35.7482 29.4334C35.6068 28.9058 35.2766 28.3011 34.7913 27.7348Z" fill="black"/>
<path fill-rule="evenodd" clip-rule="evenodd" d="M24.5624 28.6969L22.5468 32.1375C22.4343 32.325 22.3218 32.5125 22.1249 32.4187C21.9281 32.3062 21.5062 32.5781 21.3937 32.775C21.1687 33.15 21.2531 33.45 21.4593 33.5625L23.2593 34.5187C23.4468 34.6219 23.7656 34.5375 23.9906 34.1625C24.0937 33.9562 24.1218 33.4781 23.9249 33.375C23.7281 33.2719 23.8312 33.075 23.9531 32.8875L25.9593 29.4469" fill="#FF1900"/>
<path fill-rule="evenodd" clip-rule="evenodd" d="M22.5188 32.1206L24.5342 28.6803L24.5909 28.7135L22.5752 32.1541L22.5751 32.1544L22.5732 32.1575C22.5183 32.2489 22.4599 32.3463 22.3893 32.4083C22.3529 32.4402 22.3116 32.4643 22.2641 32.473C22.2163 32.4818 22.1653 32.4743 22.1109 32.4484L22.1098 32.4479L22.1088 32.4472C22.0689 32.4245 22.0145 32.4195 21.9495 32.4315C21.8849 32.4435 21.8135 32.4715 21.7435 32.5097C21.6023 32.5866 21.4744 32.7001 21.4223 32.7913L21.4219 32.7919C21.3122 32.9747 21.2799 33.136 21.2974 33.2627C21.3148 33.3889 21.3816 33.4826 21.475 33.5336C21.475 33.5336 21.4751 33.5337 21.4751 33.5337L23.2752 34.49C23.4405 34.5809 23.7416 34.5131 23.9619 34.1467C24.0101 34.0495 24.0421 33.8848 24.0376 33.7311C24.0353 33.6542 24.0239 33.5822 24.0021 33.5241C23.9803 33.4657 23.9492 33.4247 23.9098 33.4041C23.8556 33.3757 23.8191 33.3392 23.7993 33.2951C23.7797 33.2514 23.7783 33.204 23.7873 33.1567C23.8051 33.0642 23.8648 32.9633 23.9252 32.8703L25.9311 29.4304L25.9878 29.4634L23.9811 32.9047L23.9807 32.9054C23.9194 32.9997 23.8668 33.0907 23.8518 33.1691C23.8445 33.2074 23.8466 33.2402 23.8592 33.2683C23.8716 33.296 23.896 33.3228 23.9403 33.3459C23.9993 33.3769 24.0386 33.4343 24.0636 33.501C24.0887 33.568 24.1007 33.6477 24.1032 33.7291C24.108 33.8912 24.0746 34.068 24.02 34.1772L24.0195 34.1783L24.0188 34.1794C23.7893 34.562 23.4534 34.6627 23.2438 34.5476C23.2437 34.5476 23.2437 34.5475 23.2436 34.5475L21.444 33.5915L21.4437 33.5913C21.3309 33.5298 21.2525 33.4173 21.2324 33.2717C21.2124 33.1266 21.2503 32.9505 21.3655 32.7584C21.4259 32.6529 21.5651 32.5321 21.7121 32.4521C21.7862 32.4117 21.8642 32.3806 21.9376 32.367C22.0101 32.3536 22.0818 32.3568 22.1402 32.3896C22.1838 32.4102 22.2204 32.4143 22.2523 32.4085C22.2848 32.4025 22.3156 32.3856 22.346 32.3589C22.4081 32.3045 22.4616 32.2159 22.5187 32.1208C22.5187 32.1207 22.5188 32.1207 22.5188 32.1206Z" fill="black"/>
<path fill-rule="evenodd" clip-rule="evenodd" d="M31.05 26.3062H29.2125C29.1563 26.3625 28.6313 29.6437 28.0688 30.9C27.3844 32.4281 25.3313 33.7781 25.3313 33.7781C25.3313 33.7781 26.5594 34.1531 26.925 34.3969C27.0188 34.3687 28.9875 33.9562 29.2125 31.5562C29.4375 33.9562 27.8438 35.0531 27.8438 35.0531C27.8438 35.0531 30.1313 35.7094 30.1313 37.2375C30.1313 35.7094 32.4188 35.0531 32.4188 35.0531C32.4188 35.0531 31.275 33.9562 31.0406 31.5562C31.5094 33.9562 33.2438 34.3687 33.3375 34.3969C33.7031 34.1531 34.9313 33.7781 34.9313 33.7781C34.9313 33.7781 32.8781 32.4281 32.1938 30.9C31.6313 29.6437 31.1063 26.3625 31.05 26.3062ZM23.2688 15.3656L26.7 16.4625C27.8344 16.4625 28.9875 15.3656 28.9875 14.2688C29.025 11.8312 28.0688 10.9875 27.8438 10.9875L28.2938 10.5562L27.6094 9.9C27.6094 9.9 27.8438 8.76563 30.1313 8.80313C32.4188 8.85 32.4188 9.9 32.4188 10.9875C32.4188 12.075 31.275 12.0844 31.275 14.2688C31.275 15.3656 32.4188 16.4625 33.5625 16.4625L36.9938 15.3656V26.3062H23.2594V15.3656H23.2688Z" fill="#A77B3B"/>
<path fill-rule="evenodd" clip-rule="evenodd" d="M27.6997 9.87617L28.4089 10.5563L27.9922 10.9556C27.9945 10.957 27.9969 10.9583 27.9993 10.9597C28.0536 10.9915 28.1143 11.0383 28.1782 11.1003C28.3061 11.2244 28.4505 11.4135 28.5851 11.6779C28.8545 12.2071 29.086 13.0405 29.0672 14.2694C29.067 14.8449 28.7653 15.4127 28.3242 15.8345C27.8828 16.2567 27.292 16.5422 26.7 16.5422H26.6876L23.3391 15.4718V26.2266H36.9141V15.4748L33.5749 16.5422H33.5625C32.9659 16.5422 32.3751 16.2568 31.9347 15.8345C31.4945 15.4123 31.1953 14.8443 31.1953 14.2688C31.1953 13.1587 31.4872 12.5946 31.7814 12.1713C31.8334 12.0966 31.8843 12.0274 31.933 11.9612C32.1607 11.6517 32.3391 11.4093 32.3391 10.9875C32.3391 10.4368 32.3363 9.93079 32.0678 9.5511C31.8039 9.1781 31.2648 8.90609 30.1298 8.8828C28.9993 8.8643 28.3888 9.13538 28.0626 9.39944C27.8991 9.53179 27.8049 9.66409 27.7517 9.76152C27.7256 9.80937 27.7093 9.84896 27.6997 9.87617ZM30.992 26.3859H29.2705C29.2644 26.4108 29.257 26.4439 29.2482 26.4849C29.2275 26.5817 29.2003 26.7188 29.1673 26.8865C29.1609 26.9193 29.1542 26.9533 29.1473 26.9884C29.0839 27.3111 29.0026 27.7251 28.9084 28.1696C28.7002 29.1524 28.4268 30.2953 28.1415 30.9326C27.7921 31.7127 27.0971 32.4414 26.4961 32.9719C26.1946 33.238 25.9147 33.4559 25.7102 33.6074C25.6318 33.6654 25.5645 33.7136 25.5112 33.7512C25.5246 33.7554 25.5386 33.7599 25.5533 33.7647C25.6746 33.8038 25.8403 33.8585 26.0175 33.9209C26.1946 33.9833 26.3839 34.0536 26.5524 34.1238C26.7029 34.1866 26.8408 34.2509 26.9385 34.3109C27.0717 34.276 27.5146 34.1516 27.9711 33.8027C28.4872 33.4083 29.0229 32.7246 29.1332 31.5488H29.2918C29.4062 32.769 29.0581 33.6608 28.6795 34.2479C28.4904 34.541 28.2941 34.7578 28.1445 34.9017C28.0937 34.9506 28.0482 34.9911 28.0102 35.0233C28.0693 35.0438 28.1443 35.0711 28.2307 35.1055C28.448 35.1921 28.7384 35.3238 29.0295 35.5046C29.481 35.7849 29.9487 36.1926 30.1312 36.743C30.3138 36.1926 30.7815 35.7849 31.233 35.5046C31.524 35.3238 31.8145 35.1921 32.0318 35.1055C32.1296 35.0666 32.2128 35.0367 32.275 35.0156C32.2467 34.9833 32.2126 34.9427 32.1739 34.8937C32.0605 34.7502 31.9077 34.5344 31.7477 34.243C31.4278 33.6602 31.0796 32.7756 30.9613 31.564L31.1188 31.541C31.3495 32.7219 31.8899 33.4087 32.3797 33.804C32.8087 34.1502 33.2017 34.2753 33.3247 34.3105C33.4224 34.2506 33.5599 34.1864 33.7101 34.1238C33.8786 34.0536 34.0679 33.9833 34.245 33.9209C34.4222 33.8585 34.5879 33.8038 34.7092 33.7647C34.7239 33.7599 34.7379 33.7554 34.7513 33.7512C34.698 33.7136 34.6307 33.6654 34.5523 33.6074C34.3478 33.4559 34.0679 33.238 33.7664 32.9719C33.1654 32.4414 32.4704 31.7127 32.121 30.9326C31.8357 30.2953 31.5623 29.1524 31.3541 28.1696C31.2599 27.7251 31.1785 27.3111 31.1152 26.9883C31.1083 26.9533 31.1016 26.9193 31.0951 26.8865C31.0622 26.7188 31.035 26.5817 31.0143 26.4849C31.0055 26.4439 30.9981 26.4108 30.992 26.3859ZM32.4739 34.9957L32.5739 35.0915L32.4405 35.1298L32.4394 35.1301L32.4349 35.1314C32.4309 35.1326 32.4247 35.1345 32.4166 35.137C32.4004 35.142 32.3764 35.1496 32.3457 35.1599C32.2844 35.1804 32.1965 35.2115 32.0908 35.2536C31.8792 35.3378 31.5978 35.4656 31.317 35.64C30.7508 35.9916 30.2109 36.5169 30.2109 37.2375H30.0516C30.0516 36.5169 29.5117 35.9916 28.9455 35.64C28.6647 35.4656 28.3833 35.3378 28.1717 35.2536C28.066 35.2115 27.9781 35.1804 27.9168 35.1599C27.8861 35.1496 27.8621 35.142 27.8459 35.137C27.8378 35.1345 27.8316 35.1326 27.8276 35.1314L27.8231 35.1301L27.822 35.1298L27.8218 35.1297L27.6595 35.0832L27.7985 34.9875L27.7986 34.9875L27.7992 34.9871L27.802 34.9851C27.8046 34.9832 27.8087 34.9802 27.8141 34.9762C27.8249 34.9682 27.8411 34.9559 27.8619 34.9392C27.9033 34.9059 27.9629 34.8552 28.034 34.7868C28.1763 34.65 28.3643 34.4426 28.5455 34.1615C28.8217 33.7333 29.0828 33.1333 29.1421 32.3491C28.913 33.112 28.4866 33.6093 28.0679 33.9293C27.5638 34.3146 27.0728 34.4409 26.9662 34.4684C26.9574 34.4706 26.9512 34.4722 26.9479 34.4732L26.912 34.484L26.8808 34.4632C26.7963 34.4068 26.6571 34.3401 26.4911 34.2709C26.3264 34.2023 26.1402 34.1331 25.9645 34.0713C25.789 34.0095 25.6248 33.9552 25.5044 33.9164C25.4442 33.897 25.395 33.8814 25.3609 33.8708C25.3439 33.8654 25.3306 33.8613 25.3216 33.8585L25.3114 33.8554L25.3088 33.8546L25.3082 33.8544L25.308 33.8544L25.1457 33.8048L25.2875 33.7115L25.2877 33.7114L25.2888 33.7107L25.293 33.7079C25.2968 33.7054 25.3024 33.7016 25.3099 33.6965C25.3248 33.6865 25.3469 33.6714 25.3754 33.6517C25.4322 33.6122 25.5145 33.554 25.6153 33.4793C25.8171 33.3299 26.0933 33.1148 26.3906 32.8524C26.9873 32.3258 27.661 31.6155 27.996 30.8674C28.2732 30.2484 28.5436 29.1226 28.7525 28.1366C28.8465 27.6933 28.9276 27.2804 28.9909 26.9576C28.9978 26.9226 29.0045 26.8886 29.011 26.8557C29.0439 26.6883 29.0713 26.5499 29.0923 26.4516C29.0975 26.4275 29.1023 26.4055 29.1068 26.3859H23.1797V15.2859H23.2812L26.7123 16.3828C27.2507 16.3788 27.7985 16.1168 28.2141 15.7194C28.633 15.3187 28.9078 14.7899 28.9078 14.2688V14.2675C28.9264 13.0592 28.6986 12.2522 28.443 11.7502C28.3152 11.499 28.1807 11.3248 28.0671 11.2146C28.0103 11.1594 27.9597 11.1212 27.9188 11.0973C27.8756 11.0721 27.8509 11.0672 27.8437 11.0672H27.6454L28.1786 10.5562L27.5224 9.92703L27.5313 9.88388L27.6094 9.90001C27.5313 9.88388 27.5314 9.8838 27.5314 9.88372L27.5314 9.88353L27.5315 9.88308L27.5318 9.88186C27.532 9.88092 27.5323 9.87969 27.5326 9.87821C27.5333 9.87524 27.5343 9.87122 27.5357 9.86621C27.5385 9.85619 27.5426 9.84223 27.5487 9.82491C27.5609 9.79027 27.5807 9.74214 27.6118 9.68517C27.6741 9.57107 27.7813 9.42213 27.9624 9.27557C28.3252 8.98183 28.9756 8.70449 30.1326 8.72345L30.1329 8.72346C31.2852 8.74707 31.8898 9.02349 32.1979 9.45907C32.4985 9.88412 32.4985 10.4406 32.4984 10.9731V10.9875C32.4984 11.4656 32.2851 11.7541 32.0541 12.0665C32.007 12.1302 31.9592 12.1948 31.9123 12.2623C31.6347 12.6617 31.3547 13.1944 31.3547 14.2688C31.3547 14.7901 31.6274 15.3189 32.045 15.7194C32.4593 16.1167 33.0071 16.3789 33.5502 16.3828L37.0734 15.2565V26.3859H31.1557C31.1602 26.4055 31.165 26.4275 31.1702 26.4516C31.1912 26.5499 31.2186 26.6883 31.2515 26.8557C31.258 26.8886 31.2647 26.9226 31.2716 26.9577C31.335 27.2805 31.416 27.6933 31.51 28.1366C31.7189 29.1226 31.9893 30.2484 32.2665 30.8674C32.6015 31.6155 33.2752 32.3258 33.8719 32.8524C34.1692 33.1148 34.4454 33.3299 34.6472 33.4793C34.748 33.554 34.8303 33.6122 34.8871 33.6517C34.9156 33.6714 34.9377 33.6865 34.9526 33.6965C34.9601 33.7016 34.9657 33.7054 34.9695 33.7079L34.9737 33.7107L34.9748 33.7114L34.975 33.7115L35.1168 33.8048L34.9545 33.8543L34.9543 33.8544L34.9537 33.8546L34.9511 33.8554L34.9409 33.8585C34.9319 33.8613 34.9186 33.8654 34.9016 33.8708C34.8675 33.8814 34.8183 33.897 34.7581 33.9164C34.6377 33.9552 34.4735 34.0095 34.298 34.0713C34.1223 34.1331 33.9361 34.2023 33.7714 34.2709C33.6054 34.3401 33.4662 34.4068 33.3817 34.4632L33.3505 34.484L33.3146 34.4732C33.3118 34.4724 33.3076 34.4712 33.3019 34.4696C33.2116 34.4445 32.7663 34.3208 32.2796 33.928C31.9408 33.6546 31.5836 33.2523 31.3103 32.6655C31.468 33.2984 31.6842 33.7962 31.8874 34.1663C32.0427 34.4492 32.1905 34.6577 32.2989 34.7948C32.3531 34.8634 32.3974 34.9142 32.4279 34.9475C32.4432 34.9642 32.455 34.9765 32.4628 34.9845C32.4667 34.9885 32.4696 34.9914 32.4715 34.9933L32.4735 34.9952L32.4739 34.9957ZM27.6873 9.91652C27.6873 9.91659 27.6873 9.91658 27.6873 9.91652V9.91652Z" fill="black"/>
<path fill-rule="evenodd" clip-rule="evenodd" d="M28.9845 15.7836L29.2147 16.447L29.6729 15.7889L29.8943 16.4755L30.1276 15.7863L30.4663 16.4816L30.8159 15.7867L31.043 16.4413L31.2666 15.8013L31.2789 15.8057L31.043 16.4812L30.8137 15.8203L30.4662 16.5111L30.1297 15.8207L29.894 16.5172L29.6685 15.8181L29.2108 16.4755L28.9845 15.8234L28.7547 16.4812L28.5204 15.8057L28.5328 15.8014L28.7548 16.4413L28.9845 15.7836Z" fill="black"/>
<path fill-rule="evenodd" clip-rule="evenodd" d="M28.9799 15.8072L29.4385 13.3998L29.4509 13.4022L28.9923 15.8095L28.9799 15.8072ZM30.8079 15.809L30.5818 13.4016L30.5944 13.4004L30.8205 15.8078L30.8079 15.809ZM31.2666 15.809L31.0405 13.4016L31.053 13.4004L31.2791 15.8078L31.2666 15.809ZM29.6645 15.8084V13.401H29.6771V15.8084H29.6645ZM30.1231 15.8084V13.401H30.1358V15.8084H30.1231Z" fill="black"/>
<path fill-rule="evenodd" clip-rule="evenodd" d="M20.9682 8.80843C18.6814 9.90101 18.6814 12.0923 18.6814 13.1849C18.7589 14.1787 18.6814 35.0551 18.6814 35.0551C18.6814 35.0551 18.83 33.8205 19.8248 32.8699L20.9618 31.7773L22.1051 30.6848C22.9449 29.9564 23.2485 28.4934 23.2485 27.4008V12.0923C23.2485 12.0923 23.2485 10.9936 20.9618 8.80843H20.9682Z" fill="#A77B3B"/>
<path fill-rule="evenodd" clip-rule="evenodd" d="M20.9815 8.78783L20.9683 8.72949H20.7649L20.8279 8.78961C18.6025 9.92009 18.6025 12.1057 18.6025 13.1804V13.188L18.6028 13.1911C18.6219 13.4356 18.6316 14.9219 18.6352 17.0215C18.6389 19.1183 18.6365 21.8209 18.6316 24.4925C18.6268 27.1642 18.6195 29.8047 18.6134 31.7774C18.6104 32.7637 18.6077 33.5831 18.6057 34.1558C18.6047 34.4422 18.6039 34.667 18.6034 34.8201L18.6025 35.0546C18.6025 35.0547 18.6025 35.0548 18.6815 35.0551L18.6025 35.0548L18.7593 35.0645C18.7598 35.0646 18.7598 35.0646 18.7598 35.0646L18.7599 35.0641L18.7602 35.0618C18.7605 35.0598 18.7609 35.0565 18.7615 35.0522C18.7628 35.0435 18.7647 35.0305 18.7676 35.0133C18.7734 34.979 18.7828 34.9285 18.7972 34.8647C18.826 34.7371 18.8747 34.5567 18.954 34.3469C19.1126 33.927 19.3928 33.3919 19.8794 32.927L19.8796 32.9268L21.0163 31.8344L21.0165 31.8343L22.1584 30.7431C22.5929 30.3655 22.8843 29.8027 23.0673 29.2024C23.2508 28.6005 23.3275 27.9537 23.3275 27.4008V12.0923H23.2486C23.3275 12.0923 23.3275 12.0923 23.3275 12.0922L23.3275 12.092L23.3275 12.0915L23.3275 12.0903C23.3275 12.0893 23.3275 12.0881 23.3274 12.0866C23.3273 12.0836 23.3271 12.0795 23.3268 12.0743C23.3261 12.0641 23.3248 12.0495 23.3224 12.0307C23.3175 11.993 23.3079 11.9383 23.2892 11.8666C23.2519 11.7232 23.1781 11.512 23.0327 11.2333C22.7419 10.676 22.1643 9.84832 21.0163 8.75136L20.9815 8.78783ZM20.949 8.90551C18.7656 9.98239 18.7604 12.0945 18.7604 13.1819C18.7799 13.4433 18.7895 14.9356 18.7931 17.0213C18.7967 19.1183 18.7943 21.8212 18.7895 24.4928C18.7846 27.1645 18.7774 29.8052 18.7713 31.7779C18.7683 32.7642 18.7656 33.5836 18.7636 34.1564C18.7633 34.248 18.763 34.3332 18.7627 34.4119C18.7761 34.3728 18.7906 34.3325 18.8063 34.2911C18.9706 33.8561 19.262 33.2986 19.7702 32.8129C19.7703 32.8129 19.7703 32.8129 19.7703 32.8129" fill="black"/>
<path fill-rule="evenodd" clip-rule="evenodd" d="M22.1123 11.9825L20.9682 13.0757L19.8248 11.9831L18.6269 13.1278L18.736 13.242L19.8248 12.2015L20.9682 13.2941L22.111 12.2021C22.1412 12.2315 22.1826 12.2718 22.2316 12.3196C22.3368 12.422 22.4774 12.5587 22.6188 12.6954C22.7601 12.832 22.9025 12.9688 23.0113 13.0715C23.0656 13.1229 23.1118 13.166 23.1455 13.1965C23.1623 13.2116 23.1765 13.2242 23.1874 13.2333C23.1927 13.2377 23.1982 13.2421 23.2034 13.2458C23.2058 13.2476 23.2096 13.2502 23.2142 13.2528C23.2164 13.2541 23.2202 13.2561 23.2251 13.2581C23.2286 13.2594 23.2399 13.2638 23.255 13.2638V13.106C23.2697 13.106 23.2805 13.1102 23.2833 13.1113C23.2875 13.113 23.2906 13.1147 23.2919 13.1154C23.2946 13.1169 23.296 13.118 23.2956 13.1177C23.295 13.1173 23.2928 13.1156 23.2884 13.112C23.2801 13.105 23.2677 13.0941 23.2514 13.0794C23.219 13.0501 23.1738 13.0079 23.1197 12.9568C23.0116 12.8547 22.8697 12.7184 22.7285 12.5818C22.5873 12.4454 22.4469 12.3089 22.3417 12.2065C22.2892 12.1553 22.2454 12.1126 22.2148 12.0828L22.1669 12.0359C22.1668 12.0359 22.1668 12.0359 22.1116 12.0923L22.1669 12.0359L22.1123 11.9825Z" fill="black"/>
<path fill-rule="evenodd" clip-rule="evenodd" d="M22.1123 15.4768L20.9682 14.3837L19.8248 15.4762L18.6269 14.3315L18.736 14.2174L19.8248 15.2579L20.9682 14.1653L22.111 15.2573C22.1412 15.2279 22.1826 15.1875 22.2316 15.1398C22.3368 15.0373 22.4774 14.9007 22.6188 14.764C22.7601 14.6274 22.9025 14.4906 23.0113 14.3878C23.0656 14.3365 23.1118 14.2934 23.1455 14.2629C23.1623 14.2477 23.1765 14.2352 23.1874 14.2261C23.1927 14.2217 23.1982 14.2172 23.2034 14.2135C23.2058 14.2118 23.2096 14.2091 23.2142 14.2066C23.2164 14.2053 23.2202 14.2032 23.2251 14.2013C23.2286 14.1999 23.2399 14.1955 23.255 14.1955V14.3534C23.2697 14.3534 23.2805 14.3492 23.2833 14.3481C23.2875 14.3464 23.2906 14.3447 23.2919 14.344C23.2946 14.3425 23.296 14.3414 23.2956 14.3417C23.295 14.3421 23.2928 14.3438 23.2884 14.3474C23.2801 14.3543 23.2677 14.3652 23.2514 14.38C23.219 14.4092 23.1738 14.4515 23.1197 14.5026C23.0116 14.6047 22.8697 14.741 22.7285 14.8775C22.5873 15.014 22.4469 15.1505 22.3417 15.2529C22.2892 15.3041 22.2454 15.3467 22.2148 15.3766L22.1669 15.4235C22.1668 15.4235 22.1668 15.4235 22.1116 15.3671L22.1669 15.4235L22.1123 15.4768Z" fill="black"/>
<path fill-rule="evenodd" clip-rule="evenodd" d="M22.1123 16.3513L20.9682 17.4445L19.8248 16.3519L18.6269 17.4966L18.736 17.6107L19.8248 16.5702L20.9682 17.6628L22.111 16.5708C22.1412 16.6003 22.1826 16.6406 22.2316 16.6883C22.3368 16.7908 22.4774 16.9274 22.6188 17.0641C22.7601 17.2007 22.9025 17.3375 23.0113 17.4403C23.0656 17.4916 23.1118 17.5348 23.1455 17.5652C23.1623 17.5804 23.1765 17.593 23.1874 17.602C23.1927 17.6064 23.1982 17.6109 23.2034 17.6146C23.2058 17.6163 23.2096 17.619 23.2142 17.6215C23.2164 17.6228 23.2202 17.6249 23.2251 17.6268C23.2286 17.6282 23.2399 17.6326 23.255 17.6326V17.4747C23.2697 17.4747 23.2805 17.479 23.2833 17.48C23.2875 17.4817 23.2906 17.4834 23.2919 17.4841C23.2946 17.4857 23.296 17.4868 23.2956 17.4864C23.295 17.486 23.2928 17.4843 23.2884 17.4807C23.2801 17.4738 23.2677 17.4629 23.2514 17.4481C23.219 17.4189 23.1738 17.3767 23.1197 17.3255C23.0116 17.2234 22.8697 17.0871 22.7285 16.9506C22.5873 16.8141 22.4469 16.6776 22.3417 16.5752C22.2892 16.524 22.2454 16.4814 22.2148 16.4515L22.1669 16.4047C22.1668 16.4046 22.1668 16.4046 22.1116 16.461L22.1669 16.4047L22.1123 16.3513Z" fill="black"/>
<path fill-rule="evenodd" clip-rule="evenodd" d="M22.2203 30.6855L22.2074 12.0894L21.99 12.0895L22.0029 30.6857L22.2203 30.6855Z" fill="black"/>
<path fill-rule="evenodd" clip-rule="evenodd" d="M21.0896 31.7334L21.0767 13.1825L20.8707 13.1827L20.8836 31.7336L21.0896 31.7334Z" fill="black"/>
<path fill-rule="evenodd" clip-rule="evenodd" d="M19.9519 32.8755L19.939 12.0943L19.721 12.0945L19.7339 32.8757L19.9519 32.8755Z" fill="black"/>
<path fill-rule="evenodd" clip-rule="evenodd" d="M39.2848 8.80843C41.5716 9.90101 41.5716 12.0923 41.5716 13.1849C41.4941 14.1787 41.5716 35.0551 41.5716 35.0551C41.5716 35.0551 41.423 33.8205 40.4282 32.8699L39.2913 31.7773L38.1479 30.6848C37.3081 29.9564 37.0045 28.4934 37.0045 27.4008V12.0923C37.0045 12.0923 37.0045 10.9936 39.2913 8.80843H39.2848Z" fill="#A77B3B"/>
<path fill-rule="evenodd" clip-rule="evenodd" d="M39.2716 8.78783L39.2848 8.72949H39.4881L39.4252 8.78961C41.6505 9.92009 41.6505 12.1057 41.6505 13.1804V13.188L41.6503 13.1911C41.6312 13.4356 41.6214 14.9219 41.6178 17.0215C41.6142 19.1183 41.6166 21.8209 41.6214 24.4925C41.6263 27.1642 41.6336 29.8047 41.6396 31.7774C41.6426 32.7637 41.6454 33.5831 41.6473 34.1558C41.6483 34.4422 41.6491 34.667 41.6497 34.8201L41.6505 35.0546C41.6505 35.0547 41.6505 35.0548 41.5716 35.0551L41.6505 35.0548L41.4937 35.0645C41.4932 35.0646 41.4932 35.0646 41.4932 35.0646L41.4932 35.0641L41.4929 35.0618C41.4926 35.0598 41.4922 35.0565 41.4915 35.0522C41.4903 35.0435 41.4883 35.0305 41.4854 35.0133C41.4796 34.979 41.4702 34.9285 41.4558 34.8647C41.427 34.7371 41.3784 34.5567 41.2991 34.3469C41.1405 33.927 40.8602 33.3919 40.3737 32.927L40.3735 32.9268L39.2367 31.8344L39.2366 31.8343L38.0947 30.7431C37.6601 30.3655 37.3687 29.8027 37.1857 29.2024C37.0023 28.6005 36.9255 27.9537 36.9255 27.4008V12.0923H37.0045C36.9255 12.0923 36.9255 12.0923 36.9255 12.0922L36.9255 12.092L36.9255 12.0915L36.9256 12.0903C36.9256 12.0893 36.9256 12.0881 36.9256 12.0866C36.9257 12.0836 36.9259 12.0795 36.9263 12.0743C36.9269 12.0641 36.9282 12.0495 36.9307 12.0307C36.9356 11.993 36.9451 11.9383 36.9638 11.8666C37.0012 11.7232 37.0749 11.512 37.2203 11.2333C37.5111 10.676 38.0887 9.84832 39.2367 8.75136L39.2716 8.78783ZM39.304 8.90551C41.4874 9.98239 41.4926 12.0945 41.4926 13.1819C41.4731 13.4433 41.4636 14.9356 41.4599 17.0213C41.4563 19.1183 41.4587 21.8212 41.4636 24.4928C41.4684 27.1645 41.4757 29.8052 41.4817 31.7779C41.4848 32.7642 41.4875 33.5836 41.4895 34.1564C41.4898 34.248 41.4901 34.3332 41.4904 34.4119C41.4769 34.3728 41.4624 34.3325 41.4468 34.2911C41.2824 33.8561 40.991 33.2986 40.4828 32.8129C40.4828 32.8129 40.4828 32.8129 40.4827 32.8129" fill="black"/>
<path fill-rule="evenodd" clip-rule="evenodd" d="M38.1408 11.9825L39.2848 13.0757L40.4282 11.9831L41.6261 13.1278L41.5171 13.242L40.4282 12.2015L39.2848 13.2941L38.142 12.2021C38.1118 12.2315 38.0705 12.2718 38.0215 12.3196C37.9163 12.422 37.7757 12.5587 37.6343 12.6954C37.4929 12.832 37.3505 12.9688 37.2418 13.0715C37.1875 13.1229 37.1412 13.166 37.1075 13.1965C37.0908 13.2116 37.0765 13.2242 37.0657 13.2333C37.0604 13.2377 37.0548 13.2421 37.0497 13.2458C37.0473 13.2476 37.0434 13.2502 37.0389 13.2528C37.0367 13.2541 37.0328 13.2561 37.0279 13.2581C37.0245 13.2594 37.0132 13.2638 36.998 13.2638V13.106C36.9833 13.106 36.9725 13.1102 36.9698 13.1113C36.9655 13.113 36.9625 13.1147 36.9612 13.1154C36.9585 13.1169 36.957 13.118 36.9575 13.1177C36.9581 13.1173 36.9603 13.1156 36.9646 13.112C36.973 13.105 36.9853 13.0941 37.0016 13.0794C37.034 13.0501 37.0793 13.0079 37.1334 12.9568C37.2414 12.8547 37.3833 12.7184 37.5246 12.5818C37.6658 12.4454 37.8062 12.3089 37.9113 12.2065C37.9639 12.1553 38.0076 12.1126 38.0382 12.0828L38.0862 12.0359C38.0862 12.0359 38.0862 12.0359 38.1414 12.0923L38.0862 12.0359L38.1408 11.9825Z" fill="black"/>
<path fill-rule="evenodd" clip-rule="evenodd" d="M38.1408 15.4768L39.2848 14.3837L40.4282 15.4762L41.6261 14.3315L41.5171 14.2174L40.4282 15.2579L39.2848 14.1653L38.142 15.2573C38.1118 15.2279 38.0705 15.1875 38.0215 15.1398C37.9163 15.0373 37.7757 14.9007 37.6343 14.764C37.4929 14.6274 37.3505 14.4906 37.2418 14.3878C37.1875 14.3365 37.1412 14.2934 37.1075 14.2629C37.0908 14.2477 37.0765 14.2352 37.0657 14.2261C37.0604 14.2217 37.0548 14.2172 37.0497 14.2135C37.0473 14.2118 37.0434 14.2091 37.0389 14.2066C37.0367 14.2053 37.0328 14.2032 37.0279 14.2013C37.0245 14.1999 37.0132 14.1955 36.998 14.1955V14.3534C36.9833 14.3534 36.9725 14.3492 36.9698 14.3481C36.9655 14.3464 36.9625 14.3447 36.9612 14.344C36.9585 14.3425 36.957 14.3414 36.9575 14.3417C36.9581 14.3421 36.9603 14.3438 36.9646 14.3474C36.973 14.3543 36.9853 14.3652 37.0016 14.38C37.034 14.4092 37.0793 14.4515 37.1334 14.5026C37.2414 14.6047 37.3833 14.741 37.5246 14.8775C37.6658 15.014 37.8062 15.1505 37.9113 15.2529C37.9639 15.3041 38.0076 15.3467 38.0382 15.3766L38.0862 15.4235C38.0862 15.4235 38.0862 15.4235 38.1414 15.3671L38.0862 15.4235L38.1408 15.4768Z" fill="black"/>
<path fill-rule="evenodd" clip-rule="evenodd" d="M38.1408 16.3513L39.2848 17.4445L40.4282 16.3519L41.6261 17.4966L41.5171 17.6107L40.4282 16.5702L39.2848 17.6628L38.142 16.5708C38.1118 16.6003 38.0705 16.6406 38.0215 16.6883C37.9163 16.7908 37.7757 16.9274 37.6343 17.0641C37.4929 17.2007 37.3505 17.3375 37.2418 17.4403C37.1875 17.4916 37.1412 17.5348 37.1075 17.5652C37.0908 17.5804 37.0765 17.593 37.0657 17.602C37.0604 17.6064 37.0548 17.6109 37.0497 17.6146C37.0473 17.6163 37.0434 17.619 37.0389 17.6215C37.0367 17.6228 37.0328 17.6249 37.0279 17.6268C37.0245 17.6282 37.0132 17.6326 36.998 17.6326V17.4747C36.9833 17.4747 36.9725 17.479 36.9698 17.48C36.9655 17.4817 36.9625 17.4834 36.9612 17.4841C36.9585 17.4857 36.957 17.4868 36.9575 17.4864C36.9581 17.486 36.9603 17.4843 36.9646 17.4807C36.973 17.4738 36.9853 17.4629 37.0016 17.4481C37.034 17.4189 37.0793 17.3767 37.1334 17.3255C37.2414 17.2234 37.3833 17.0871 37.5246 16.9506C37.6658 16.8141 37.8062 16.6776 37.9113 16.5752C37.9639 16.524 38.0076 16.4814 38.0382 16.4515L38.0862 16.4047C38.0862 16.4046 38.0862 16.4046 38.1414 16.461L38.0862 16.4047L38.1408 16.3513Z" fill="black"/>
<path fill-rule="evenodd" clip-rule="evenodd" d="M38.0327 30.6855L38.0456 12.0894L38.2631 12.0895L38.2502 30.6857L38.0327 30.6855Z" fill="black"/>
<path fill-rule="evenodd" clip-rule="evenodd" d="M39.1727 31.7334L39.1856 13.1825L39.3916 13.1827L39.3787 31.7336L39.1727 31.7334Z" fill="black"/>
<path fill-rule="evenodd" clip-rule="evenodd" d="M40.3105 32.8755L40.3235 12.0943L40.5415 12.0945L40.5286 32.8757L40.3105 32.8755Z" fill="black"/>
<path fill-rule="evenodd" clip-rule="evenodd" d="M27.1195 28.394C26.5133 29.7843 25.4464 30.6903 24.7487 30.4125C24.0511 30.1348 23.973 28.773 24.5793 27.3827C25.1855 25.9924 26.2583 25.0888 26.956 25.3665C27.6537 25.6443 27.7342 27.0004 27.1255 28.3964L27.1195 28.394Z" fill="#A77B3B"/>
<path fill-rule="evenodd" clip-rule="evenodd" d="M25.7849 25.8076C25.3649 26.163 24.9519 26.7257 24.6527 27.4119C24.3534 28.0982 24.2247 28.7741 24.2548 29.3088C24.2853 29.849 24.4747 30.2185 24.7803 30.3402C25.086 30.4619 25.4939 30.3302 25.9168 29.9704C26.3353 29.6144 26.7469 29.0511 27.0462 28.3648L27.0777 28.2925L27.0832 28.2946C27.3615 27.6307 27.4803 26.9834 27.4509 26.4682C27.4202 25.9289 27.2303 25.5607 26.9245 25.4389C26.6187 25.3172 26.2092 25.4484 25.7849 25.8076ZM27.1608 28.4954L27.1673 28.498L27.1989 28.4256C27.5071 27.7188 27.6425 27.0186 27.6104 26.456C27.5787 25.8989 27.3795 25.4502 26.9876 25.2942C26.5957 25.1382 26.1199 25.3198 25.6819 25.6906C25.2395 26.0651 24.813 26.6494 24.506 27.3535C24.199 28.0575 24.0636 28.7576 24.0953 29.3209C24.1268 29.8785 24.3252 30.3288 24.7172 30.4849C25.1092 30.641 25.5836 30.4585 26.0201 30.0872C26.4458 29.725 26.8567 29.1672 27.1608 28.4954Z" fill="black"/>
<path fill-rule="evenodd" clip-rule="evenodd" d="M23.2594 16.4625H36.9938V23.025H23.2594V16.4625Z" fill="#FF0000"/>
<path fill-rule="evenodd" clip-rule="evenodd" d="M23.2594 23.025H36.9938V26.3062C36.9938 28.4906 33.5625 28.4906 30.1312 30.675C26.6906 28.5 23.25 28.5 23.25 26.3062V23.025H23.2594Z" fill="#564DFF"/>
<path fill-rule="evenodd" clip-rule="evenodd" d="M23.1995 16.3995H37.0594V26.3144C37.0594 26.8807 36.8358 27.3067 36.4491 27.6587C36.0653 28.0079 35.5205 28.2847 34.8763 28.5585C34.5708 28.6883 34.2422 28.8179 33.8959 28.9544C32.7761 29.3958 31.4713 29.9102 30.1634 30.7442L30.1294 30.7659L30.0954 30.7442C28.7902 29.9104 27.4864 29.3961 26.3665 28.9543C26.0199 28.8176 25.6909 28.6879 25.385 28.5577C24.7403 28.2835 24.1949 28.0062 23.8107 27.6561C23.4234 27.3032 23.1995 26.876 23.1995 26.3083V16.3995ZM23.3258 16.5258V26.3083C23.3258 26.8362 23.5314 27.2308 23.8957 27.5627C24.263 27.8974 24.7911 28.1679 25.4344 28.4415C25.7355 28.5696 26.0613 28.698 26.4057 28.8339C27.5174 29.2723 28.8241 29.7877 30.1295 30.6161C31.4375 29.7875 32.7451 29.2721 33.8567 28.8339C34.2008 28.6983 34.5261 28.5701 34.8269 28.4423C35.4698 28.169 35.9973 27.8991 36.3641 27.5653C36.7279 27.2342 36.9331 26.8408 36.9331 26.3144V16.5258H23.3258Z" fill="#FFFF00"/>
<path fill-rule="evenodd" clip-rule="evenodd" d="M27.6084 16.8995C27.6084 16.8995 25.3203 18.5081 25.3203 20.0472C25.3203 21.5863 27.7215 22.1022 27.7215 22.1022C27.7215 22.1022 26.9211 22.1022 26.9211 24.1544C26.9211 25.1833 29.3222 24.6703 29.3222 25.1833C29.3222 25.6963 29.2906 26.9369 29.3222 27.7514C29.3222 28.2644 27.7215 27.7514 27.7215 28.2644C27.7215 28.5195 28.9243 29.8035 30.1271 29.8035C31.33 29.8035 32.5283 28.5195 32.5283 28.2644C32.5283 27.7514 30.9275 28.2644 30.9275 27.7514V25.1833C30.9275 24.6703 33.3287 25.1833 33.3287 24.1544C33.3287 22.1022 32.5283 22.1022 32.5283 22.1022C32.5283 22.1022 34.934 21.5892 34.934 20.0472C34.934 18.5052 32.6413 16.8995 32.6413 16.8995C32.6413 16.8995 33.9301 19.0212 33.9301 20.0472C33.9301 20.5603 33.3287 21.5892 31.7279 21.5892C31.7279 21.5892 31.3209 21.0733 30.9275 21.5892C30.9275 21.5892 30.4663 21.0733 30.1271 21.5892C30.0096 21.7631 29.8016 21.0733 29.3222 21.5892C29.1233 21.7254 28.9605 21.0733 28.5218 21.5892C27.7215 21.5892 26.1207 21.0733 26.1207 20.0472C26.1207 19.0212 27.6084 16.8995 27.6084 16.8995Z" fill="#FFFF00"/>
<path fill-rule="evenodd" clip-rule="evenodd" d="M32.6027 16.923L32.6674 16.8624L32.6414 16.8995L32.6027 16.923ZM32.6998 22.1059C32.7596 22.0896 32.8336 22.0681 32.9181 22.0411C33.1453 21.9684 33.4487 21.8551 33.7525 21.6929C34.3571 21.3702 34.9793 20.8449 34.9793 20.0472C34.9793 19.6508 34.8321 19.2533 34.6149 18.882C34.3975 18.5105 34.1084 18.1623 33.8203 17.8637C33.5321 17.5649 33.2441 17.3148 33.0282 17.1394C32.9202 17.0516 32.8302 16.9825 32.767 16.9353C32.7355 16.9117 32.7107 16.8935 32.6937 16.8812C32.6852 16.8751 32.6787 16.8704 32.6742 16.8673L32.6692 16.8637L32.6679 16.8628L32.6675 16.8625L32.6674 16.8624C32.6674 16.8624 32.6674 16.8624 32.6414 16.8995C32.6027 16.923 32.6027 16.923 32.6027 16.923L32.6028 16.9231L32.6036 16.9245L32.6064 16.929C32.6088 16.933 32.6124 16.9389 32.617 16.9468C32.6264 16.9625 32.6402 16.9857 32.6578 17.0156C32.6929 17.0754 32.7431 17.162 32.8033 17.2692C32.9239 17.4836 33.0845 17.7801 33.2451 18.1085C33.4058 18.4369 33.5661 18.7966 33.6861 19.1376C33.8065 19.4794 33.8849 19.7986 33.8849 20.0472C33.8849 20.5295 33.3126 21.535 31.7489 21.5439C31.7471 21.542 31.7453 21.5399 31.7432 21.5376C31.7305 21.5237 31.7121 21.5045 31.6887 21.4832C31.6422 21.4409 31.5748 21.389 31.4931 21.3541C31.411 21.319 31.3128 21.3004 31.2073 21.3277C31.1127 21.3522 31.0169 21.4123 30.924 21.5215C30.9117 21.51 30.8967 21.4964 30.8791 21.4818C30.8286 21.4399 30.7564 21.3885 30.6717 21.3539C30.587 21.3192 30.4871 21.3003 30.3837 21.3278C30.2798 21.3555 30.179 21.4282 30.0896 21.5641C30.0853 21.5704 30.0825 21.5724 30.0817 21.5728C30.0817 21.5728 30.0817 21.5728 30.0816 21.5728C30.0777 21.5726 30.0671 21.5691 30.0461 21.5536C30.03 21.5417 30.0125 21.5264 29.9917 21.5083C29.9869 21.5041 29.982 21.4999 29.9769 21.4954C29.9503 21.4724 29.9198 21.4467 29.8859 21.4236C29.8178 21.3772 29.7322 21.3387 29.6284 21.3511C29.5262 21.3633 29.4154 21.4237 29.293 21.5543C29.2791 21.5628 29.2674 21.5643 29.2557 21.5625C29.2411 21.5602 29.2232 21.5521 29.2004 21.5367C29.1784 21.5218 29.1555 21.5027 29.1292 21.4807L29.1263 21.4783C29.0994 21.4559 29.0696 21.4312 29.0374 21.4094C28.9726 21.3655 28.8929 21.3298 28.7965 21.3461C28.7054 21.3615 28.6086 21.4219 28.5013 21.5438C28.1086 21.5395 27.5274 21.4124 27.0419 21.1628C26.546 20.9077 26.166 20.5339 26.166 20.0472C26.166 19.7998 26.2562 19.4814 26.3952 19.1396C26.5336 18.7988 26.7186 18.4393 26.904 18.1108C27.0894 17.7825 27.2749 17.4861 27.414 17.2717C27.4836 17.1645 27.5415 17.0779 27.582 17.0181C27.6023 16.9882 27.6182 16.965 27.629 16.9493C27.6345 16.9414 27.6386 16.9355 27.6414 16.9315L27.6445 16.927L27.6455 16.9256C27.6455 16.9255 27.6456 16.9255 27.6085 16.8995C27.5825 16.8625 27.5825 16.8625 27.5824 16.8625L27.5823 16.8626L27.582 16.8628L27.5807 16.8637L27.5756 16.8673C27.5712 16.8705 27.5647 16.8752 27.5562 16.8813C27.5393 16.8936 27.5145 16.9118 27.483 16.9354C27.42 16.9827 27.3302 17.052 27.2224 17.1398C27.0069 17.3155 26.7195 17.5659 26.4318 17.8648C26.1444 18.1636 25.8558 18.5119 25.6388 18.8833C25.4221 19.2544 25.2751 19.6515 25.2751 20.0472C25.2751 20.8434 25.8962 21.3688 26.4996 21.6918C26.8029 21.8541 27.1057 21.9677 27.3325 22.0407C27.4168 22.0678 27.4908 22.0893 27.5504 22.1057C27.473 22.1439 27.3788 22.2116 27.2857 22.3309C27.0767 22.5988 26.8759 23.1237 26.8759 24.1544C26.8759 24.2925 26.9165 24.4068 26.9885 24.5005C27.0599 24.5935 27.1605 24.6638 27.2773 24.7181C27.5098 24.8262 27.8167 24.8751 28.1169 24.9073C28.2225 24.9187 28.3271 24.9279 28.4278 24.9369C28.6173 24.9537 28.7935 24.9694 28.9392 24.9954C29.0506 25.0152 29.1381 25.0402 29.1969 25.0734C29.2543 25.1058 29.2771 25.1414 29.2771 25.1833C29.2771 25.3264 29.2746 25.5269 29.2717 25.7594C29.2643 26.3567 29.2543 27.1651 29.2771 27.7522C29.2769 27.802 29.2582 27.8372 29.2248 27.8647C29.1891 27.8941 29.1348 27.9162 29.0627 27.9316C28.9184 27.9624 28.7238 27.9626 28.5219 27.9626H28.518C28.3209 27.9626 28.117 27.9626 27.9622 27.9957C27.8842 28.0124 27.8134 28.0384 27.7616 28.0812C27.7076 28.1256 27.6763 28.1864 27.6763 28.2644C27.6763 28.2883 27.6831 28.3143 27.6932 28.3401C27.7034 28.3665 27.7182 28.3957 27.7366 28.4268C27.7735 28.4891 27.8269 28.5623 27.8937 28.6416C28.0274 28.8004 28.2176 28.987 28.4454 29.1652C28.8998 29.5207 29.511 29.8487 30.1272 29.8487C30.7434 29.8487 31.3536 29.5206 31.8068 29.1652C32.034 28.987 32.2237 28.8004 32.357 28.6416C32.4236 28.5622 32.4767 28.4891 32.5135 28.4267C32.5319 28.3956 32.5466 28.3664 32.5568 28.3401C32.5668 28.3142 32.5736 28.2883 32.5736 28.2644C32.5736 28.1864 32.5423 28.1256 32.4884 28.0812C32.4365 28.0384 32.3657 28.0124 32.2877 27.9957C32.1329 27.9626 31.9291 27.9626 31.7319 27.9626H31.728C31.5262 27.9626 31.3315 27.9624 31.1872 27.9316C31.1151 27.9162 31.0608 27.8941 31.0252 27.8647C30.9916 27.8371 30.9729 27.8017 30.9729 27.7514V25.1833C30.9729 25.1414 30.9956 25.1058 31.053 25.0734C31.1118 25.0402 31.1994 25.0152 31.3107 24.9954C31.4564 24.9694 31.6327 24.9537 31.8221 24.9369C31.9229 24.9279 32.0274 24.9187 32.133 24.9073C32.4332 24.8751 32.7401 24.8262 32.9726 24.7181C33.0895 24.6638 33.19 24.5935 33.2615 24.5005C33.3334 24.4068 33.374 24.2925 33.374 24.1544C33.374 23.1237 33.1732 22.5988 32.9642 22.3309C32.8713 22.2118 32.7772 22.1441 32.6998 22.1059ZM32.5283 22.1469L32.5189 22.058L32.5193 22.0579L32.5205 22.0577L32.5254 22.0566C32.5298 22.0556 32.5364 22.0541 32.545 22.052C32.5624 22.048 32.5879 22.0418 32.6204 22.0334C32.6855 22.0165 32.7786 21.9907 32.8905 21.9549C33.1143 21.8832 33.4123 21.7719 33.7099 21.6131C34.3082 21.2937 34.8888 20.7916 34.8888 20.0472C34.8888 19.6727 34.7494 19.2912 34.5368 18.9277C34.3243 18.5645 34.0403 18.2221 33.7552 17.9265C33.4702 17.6311 33.1851 17.3835 32.9711 17.2096C32.9042 17.1553 32.8443 17.1082 32.7936 17.0691C32.8197 17.1143 32.8495 17.1666 32.8822 17.2249C33.0033 17.4403 33.1649 17.7384 33.3264 18.0687C33.488 18.3989 33.6499 18.762 33.7715 19.1075C33.8928 19.452 33.9754 19.7829 33.9754 20.0472C33.9754 20.5889 33.35 21.6345 31.728 21.6345H31.706L31.6925 21.6173L31.6924 21.6171L31.6917 21.6163C31.6911 21.6156 31.6901 21.6143 31.6887 21.6127C31.686 21.6094 31.6818 21.6046 31.6762 21.5985C31.6651 21.5863 31.6487 21.5692 31.6278 21.5501C31.5857 21.5118 31.5267 21.4669 31.4575 21.4374C31.3887 21.4079 31.3114 21.3943 31.23 21.4154C31.1486 21.4364 31.0574 21.4936 30.9636 21.6167L30.9304 21.6602L30.8939 21.6194L30.8937 21.6192L30.893 21.6184C30.8922 21.6176 30.8911 21.6163 30.8895 21.6147C30.8864 21.6114 30.8816 21.6064 30.8753 21.6003C30.8628 21.5879 30.8444 21.5707 30.8213 21.5515C30.7748 21.5128 30.7105 21.4675 30.6375 21.4376C30.5645 21.4078 30.4855 21.3944 30.407 21.4153C30.3291 21.436 30.2452 21.4922 30.165 21.6141L30.1647 21.6146C30.1437 21.6457 30.1137 21.6657 30.0755 21.6631C30.0437 21.661 30.015 21.6431 29.9924 21.6264C29.9729 21.6121 29.9519 21.5937 29.931 21.5755C29.9265 21.5716 29.9221 21.5677 29.9176 21.5638C29.8915 21.5411 29.8643 21.5184 29.835 21.4984C29.7764 21.4585 29.7128 21.4322 29.6391 21.441C29.5649 21.4498 29.4712 21.4955 29.3555 21.62L29.352 21.6237L29.3479 21.6266C29.3138 21.6499 29.2779 21.6575 29.2418 21.6519C29.2078 21.6466 29.1769 21.6301 29.1496 21.6116C29.1238 21.5941 29.0977 21.5723 29.0726 21.5514L29.0683 21.5478C29.0412 21.5252 29.0146 21.5032 28.9866 21.4843C28.931 21.4466 28.8753 21.4246 28.8116 21.4353C28.7466 21.4463 28.6629 21.4933 28.5564 21.6185L28.5429 21.6345H28.5219C28.1144 21.6345 27.507 21.5037 27.0005 21.2432C26.496 20.9838 26.0755 20.5866 26.0755 20.0472C26.0755 19.7817 26.1713 19.45 26.3113 19.1055C26.4518 18.7598 26.6388 18.3966 26.8252 18.0663C27.0118 17.736 27.1983 17.4379 27.3381 17.2224C27.3674 17.1773 27.3946 17.1357 27.4194 17.0983C27.3775 17.131 27.3306 17.1684 27.2796 17.21C27.066 17.384 26.7815 17.632 26.4971 17.9276C26.2125 18.2233 25.9291 18.5658 25.717 18.9289C25.5047 19.2923 25.3657 19.6734 25.3657 20.0472C25.3657 20.7901 25.9452 21.2923 26.5423 21.612C26.8394 21.771 27.1368 21.8826 27.3602 21.9545C27.4719 21.9904 27.5648 22.0163 27.6298 22.0333C27.6623 22.0417 27.6877 22.048 27.705 22.052C27.7136 22.0541 27.7202 22.0556 27.7246 22.0566L27.7295 22.0577L27.7307 22.0579L27.731 22.058L27.7216 22.1469C27.7216 22.1475 27.7216 22.1475 27.7217 22.1475L27.7211 22.1475C27.7203 22.1476 27.7187 22.1476 27.7164 22.1478C27.7119 22.1482 27.7048 22.149 27.6953 22.1508C27.6764 22.1542 27.6484 22.1613 27.6143 22.1759C27.5462 22.205 27.4524 22.2644 27.357 22.3866C27.1658 22.6317 26.9664 23.1329 26.9664 24.1544C26.9664 24.2734 27.0009 24.3682 27.0602 24.4454C27.1201 24.5233 27.2071 24.5857 27.3154 24.636C27.5331 24.7372 27.8265 24.7851 28.1266 24.8173C28.2278 24.8282 28.3301 24.8373 28.4299 24.8462C28.6223 24.8633 28.8057 24.8796 28.9551 24.9063C29.0688 24.9265 29.1688 24.9536 29.2414 24.9946C29.3153 25.0364 29.3676 25.097 29.3676 25.1833C29.3676 25.3283 29.3651 25.5303 29.3622 25.764C29.3548 26.3612 29.3448 27.165 29.3675 27.7496L29.3676 27.7505V27.7514C29.3676 27.8293 29.3363 27.8901 29.2823 27.9346C29.2304 27.9773 29.1597 28.0034 29.0817 28.0201C28.9269 28.0531 28.723 28.0531 28.5259 28.0531H28.5219C28.3201 28.0531 28.1255 28.0534 27.9811 28.0842C27.9091 28.0996 27.8548 28.1216 27.8191 28.151C27.7855 28.1787 27.7668 28.2141 27.7668 28.2644C27.7668 28.2723 27.7694 28.2863 27.7775 28.3073C27.7855 28.3277 27.7977 28.3523 27.8145 28.3807C27.8481 28.4374 27.8982 28.5064 27.9629 28.5833C28.0923 28.737 28.2779 28.9193 28.5012 29.0939C28.949 29.4443 29.5406 29.7582 30.1272 29.7582C30.7138 29.7582 31.3043 29.4443 31.7509 29.094C31.9736 28.9193 32.1587 28.7371 32.2877 28.5834C32.3522 28.5065 32.4021 28.4375 32.4356 28.3808C32.4523 28.3524 32.4645 28.3278 32.4724 28.3074C32.4806 28.2864 32.4831 28.2724 32.4831 28.2644C32.4831 28.2141 32.4644 28.1787 32.4308 28.151C32.3952 28.1216 32.3408 28.0996 32.2688 28.0842C32.1244 28.0534 31.9298 28.0531 31.728 28.0531H31.724C31.5269 28.0531 31.323 28.0531 31.1683 28.0201C31.0902 28.0034 31.0195 27.9773 30.9676 27.9346C30.9137 27.8901 30.8823 27.8293 30.8823 27.7514V25.1833C30.8823 25.097 30.9346 25.0364 31.0085 24.9946C31.0811 24.9536 31.1811 24.9265 31.2948 24.9063C31.4443 24.8796 31.6276 24.8633 31.82 24.8462C31.9199 24.8373 32.0221 24.8282 32.1233 24.8173C32.4234 24.7851 32.7168 24.7372 32.9345 24.636C33.0428 24.5857 33.1298 24.5233 33.1897 24.4454C33.249 24.3682 33.2835 24.2734 33.2835 24.1544C33.2835 23.1329 33.0841 22.6317 32.8929 22.3866C32.7976 22.2644 32.7037 22.205 32.6356 22.1759C32.6015 22.1613 32.5735 22.1542 32.5546 22.1508C32.5452 22.149 32.538 22.1482 32.5335 22.1478C32.5325 22.1478 32.5317 22.1477 32.531 22.1476C32.53 22.1476 32.5293 22.1475 32.5288 22.1475L32.5284 22.1475H32.5283C32.5283 22.1475 32.5283 22.1475 32.5283 22.1469Z" fill="black"/>
<path fill-rule="evenodd" clip-rule="evenodd" d="M27.6555 26.0882C27.4927 26.1925 27.8635 27.865 27.972 27.9374C28.1348 28.0389 29.098 28.0389 29.2562 27.9374C29.3693 27.865 29.2562 26.294 29.098 26.1925C28.9352 26.0882 27.7685 26.0186 27.6509 26.0882H27.6555Z" fill="#FFFF00"/>
<path fill-rule="evenodd" clip-rule="evenodd" d="M29.0047 26.1113C29.0527 26.1231 29.0952 26.137 29.1224 26.1545C29.1417 26.1669 29.1559 26.1868 29.1666 26.2061C29.1779 26.2264 29.1882 26.2513 29.1977 26.2791C29.2167 26.3347 29.2341 26.4071 29.2498 26.4893C29.2813 26.6541 29.3069 26.864 29.324 27.0722C29.341 27.2804 29.3496 27.4883 29.3467 27.6493C29.3453 27.7296 29.341 27.7995 29.3332 27.8524C29.3293 27.8788 29.3243 27.9025 29.3176 27.9217C29.3119 27.9384 29.3016 27.9621 29.2807 27.9755C29.2539 27.9927 29.2151 28.0051 29.1723 28.0148C29.1283 28.0249 29.0752 28.033 29.0167 28.0395C28.8995 28.0524 28.7574 28.0588 28.6158 28.0588C28.4742 28.0588 28.3319 28.0524 28.2142 28.0395C28.1553 28.033 28.1019 28.0249 28.0575 28.0149C28.0142 28.0051 27.9752 27.9927 27.9481 27.9758L27.9475 27.9755L27.9469 27.9751C27.9371 27.9686 27.9298 27.9599 27.9246 27.9528C27.919 27.9452 27.9138 27.9364 27.9088 27.9271C27.8989 27.9085 27.8887 27.8849 27.8783 27.8576C27.8574 27.8029 27.8342 27.7298 27.8103 27.6449C27.7624 27.4748 27.7107 27.2545 27.6676 27.0334C27.6245 26.8126 27.5896 26.5896 27.5759 26.4145C27.569 26.3273 27.5672 26.2501 27.5728 26.1904C27.5747 26.1701 27.5776 26.1509 27.5817 26.1335H27.4856L27.6279 26.0493C27.6416 26.0411 27.6588 26.0361 27.6751 26.0326C27.6924 26.0288 27.7128 26.0258 27.7355 26.0234C27.7809 26.0187 27.8383 26.0161 27.9032 26.0152C28.0331 26.0136 28.1963 26.0191 28.3605 26.03C28.5247 26.0409 28.6907 26.0573 28.8264 26.0777C28.8942 26.0879 28.9551 26.0991 29.0047 26.1113ZM27.6843 26.1235L27.6807 26.1258C27.6803 26.1263 27.6774 26.1297 27.6738 26.1401C27.6692 26.1534 27.6654 26.1727 27.6629 26.1989C27.6581 26.2509 27.6594 26.3221 27.6661 26.4074C27.6795 26.5776 27.7136 26.7968 27.7564 27.0161C27.7992 27.2352 27.8503 27.4531 27.8974 27.6203C27.921 27.704 27.9433 27.7742 27.9628 27.8253C27.9726 27.8509 27.9813 27.8707 27.9887 27.8846C27.9924 27.8916 27.9954 27.8963 27.9976 27.8993C27.998 27.8998 27.9983 27.9003 27.9986 27.9006C28.0128 27.9087 28.0387 27.9179 28.0774 27.9266C28.1174 27.9356 28.1672 27.9433 28.224 27.9495C28.3376 27.962 28.4765 27.9683 28.6158 27.9683C28.7551 27.9683 28.8937 27.962 29.0067 27.9495C29.0633 27.9433 29.1127 27.9356 29.1523 27.9266C29.1896 27.9181 29.2145 27.9092 29.2283 27.9015C29.2291 27.8999 29.2304 27.897 29.232 27.8923C29.2361 27.8805 29.2401 27.863 29.2436 27.8392C29.2506 27.7919 29.2548 27.7264 29.2562 27.6477C29.259 27.4906 29.2506 27.2858 29.2337 27.0796C29.2169 26.8733 29.1916 26.6668 29.1609 26.5063C29.1455 26.4259 29.1291 26.3582 29.112 26.3083C29.1035 26.2833 29.0952 26.2639 29.0875 26.25C29.0837 26.2432 29.0803 26.2382 29.0776 26.2349C29.075 26.2317 29.0735 26.2306 29.0735 26.2306C29.0735 26.2306 29.0735 26.2306 29.0735 26.2307C29.06 26.222 29.0305 26.2109 28.9831 26.1992C28.9372 26.1879 28.8793 26.1771 28.813 26.1672C28.6805 26.1473 28.517 26.1311 28.3545 26.1203C28.192 26.1095 28.0313 26.1041 27.9043 26.1057C27.8408 26.1065 27.7865 26.1091 27.7449 26.1134C27.7241 26.1156 27.7073 26.1182 27.6944 26.121C27.6905 26.1218 27.6872 26.1227 27.6843 26.1235Z" fill="black"/>
<path fill-rule="evenodd" clip-rule="evenodd" d="M32.607 26.0882C32.7698 26.1925 32.399 27.865 32.2905 27.9374C32.1277 28.0389 31.1645 28.0389 31.0062 27.9374C30.8932 27.865 31.0062 26.294 31.1645 26.1925C31.3273 26.0882 32.494 26.0186 32.6115 26.0882H32.607Z" fill="#FFFF00"/>
<path fill-rule="evenodd" clip-rule="evenodd" d="M31.2579 26.1113C31.2099 26.1231 31.1674 26.137 31.1402 26.1545C31.1208 26.1669 31.1067 26.1868 31.0959 26.2061C31.0847 26.2264 31.0744 26.2513 31.0649 26.2791C31.0459 26.3347 31.0285 26.4071 31.0128 26.4893C30.9813 26.6541 30.9557 26.864 30.9386 27.0722C30.9216 27.2804 30.913 27.4883 30.9159 27.6493C30.9173 27.7296 30.9216 27.7995 30.9294 27.8524C30.9333 27.8788 30.9383 27.9025 30.945 27.9217C30.9507 27.9384 30.9609 27.9621 30.9819 27.9755C31.0086 27.9927 31.0474 28.0051 31.0902 28.0148C31.1343 28.0249 31.1874 28.033 31.2459 28.0395C31.3631 28.0524 31.5051 28.0588 31.6468 28.0588C31.7884 28.0588 31.9307 28.0524 32.0484 28.0395C32.1072 28.033 32.1606 28.0249 32.2051 28.0149C32.2483 28.0051 32.2874 27.9927 32.3145 27.9758L32.3151 27.9755L32.3157 27.9751C32.3254 27.9686 32.3327 27.9599 32.338 27.9528C32.3436 27.9452 32.3488 27.9364 32.3538 27.9271C32.3636 27.9085 32.3739 27.8849 32.3843 27.8576C32.4052 27.8029 32.4284 27.7298 32.4523 27.6449C32.5001 27.4748 32.5518 27.2545 32.595 27.0334C32.6381 26.8126 32.6729 26.5896 32.6867 26.4145C32.6936 26.3273 32.6953 26.2501 32.6897 26.1904C32.6878 26.1701 32.685 26.1509 32.6809 26.1335H32.777L32.6347 26.0493C32.6209 26.0411 32.6038 26.0361 32.5874 26.0326C32.5702 26.0288 32.5498 26.0258 32.5271 26.0234C32.4817 26.0187 32.4243 26.0161 32.3594 26.0152C32.2294 26.0136 32.0662 26.0191 31.9021 26.03C31.7379 26.0409 31.5718 26.0573 31.4361 26.0777C31.3683 26.0879 31.3074 26.0991 31.2579 26.1113ZM32.5783 26.1235L32.5819 26.1258C32.5823 26.1263 32.5852 26.1297 32.5888 26.1401C32.5933 26.1534 32.5972 26.1727 32.5996 26.1989C32.6045 26.2509 32.6032 26.3221 32.5965 26.4074C32.5831 26.5776 32.549 26.7968 32.5062 27.0161C32.4634 27.2352 32.4122 27.4531 32.3651 27.6203C32.3416 27.704 32.3192 27.7742 32.2997 27.8253C32.2899 27.8509 32.2812 27.8707 32.2738 27.8846C32.2701 27.8916 32.2672 27.8963 32.265 27.8993C32.2646 27.8998 32.2643 27.9003 32.264 27.9006C32.2497 27.9087 32.2239 27.9179 32.1852 27.9266C32.1452 27.9356 32.0954 27.9433 32.0386 27.9495C31.9249 27.962 31.786 27.9683 31.6468 27.9683C31.5075 27.9683 31.3689 27.962 31.2558 27.9495C31.1993 27.9433 31.1499 27.9356 31.1103 27.9266C31.073 27.9181 31.0481 27.9092 31.0343 27.9015C31.0335 27.8999 31.0322 27.897 31.0305 27.8923C31.0265 27.8805 31.0225 27.863 31.019 27.8392C31.012 27.7919 31.0078 27.7264 31.0064 27.6477C31.0036 27.4906 31.012 27.2858 31.0288 27.0796C31.0457 26.8733 31.071 26.6668 31.1017 26.5063C31.117 26.4259 31.1335 26.3582 31.1506 26.3083C31.1591 26.2833 31.1674 26.2639 31.1751 26.25C31.1789 26.2432 31.1822 26.2382 31.185 26.2349C31.1876 26.2317 31.189 26.2306 31.189 26.2306C31.189 26.2306 31.189 26.2306 31.189 26.2307C31.2025 26.222 31.2321 26.2109 31.2795 26.1992C31.3254 26.1879 31.3832 26.1771 31.4496 26.1672C31.5821 26.1473 31.7455 26.1311 31.9081 26.1203C32.0706 26.1095 32.2313 26.1041 32.3582 26.1057C32.4218 26.1065 32.4761 26.1091 32.5177 26.1134C32.5385 26.1156 32.5553 26.1182 32.5681 26.121C32.572 26.1218 32.5754 26.1227 32.5783 26.1235Z" fill="black"/>
<path fill-rule="evenodd" clip-rule="evenodd" d="M29.302 25.4783C29.302 25.6316 29.2144 25.7787 29.0584 25.8871C28.9025 25.9955 28.6909 26.0564 28.4704 26.0564C28.2498 26.0564 28.0383 25.9955 27.8824 25.8871C27.7264 25.7787 27.6388 25.6316 27.6388 25.4783C27.6388 25.325 27.7264 25.1779 27.8824 25.0695C28.0383 24.9611 28.2498 24.9002 28.4704 24.9002C28.6909 24.9002 28.9025 24.9611 29.0584 25.0695C29.2144 25.1779 29.302 25.325 29.302 25.4783Z" fill="#FFFF00"/>
<path fill-rule="evenodd" clip-rule="evenodd" d="M28.4704 24.9543C28.259 24.9543 28.0587 25.0128 27.9133 25.114C27.7679 25.215 27.6929 25.347 27.6929 25.4783C27.6929 25.6096 27.7679 25.7416 27.9133 25.8426C28.0587 25.9438 28.259 26.0023 28.4704 26.0023C28.6817 26.0023 28.882 25.9438 29.0275 25.8426C29.1728 25.7416 29.2478 25.6096 29.2478 25.4783C29.2478 25.347 29.1728 25.215 29.0275 25.114C28.882 25.0128 28.6817 24.9543 28.4704 24.9543ZM27.8514 25.025C28.0178 24.9093 28.2406 24.846 28.4704 24.846C28.7001 24.846 28.9229 24.9093 29.0893 25.025C29.2559 25.1408 29.3561 25.3029 29.3561 25.4783C29.3561 25.6537 29.2559 25.8158 29.0893 25.9316C28.9229 26.0473 28.7001 26.1106 28.4704 26.1106C28.2406 26.1106 28.0178 26.0473 27.8514 25.9316C27.6848 25.8158 27.5846 25.6537 27.5846 25.4783C27.5846 25.3029 27.6848 25.1408 27.8514 25.025Z" fill="black"/>
<path fill-rule="evenodd" clip-rule="evenodd" d="M32.6117 25.4785C32.6117 25.6318 32.5241 25.7789 32.3681 25.8873C32.2122 25.9957 32.0007 26.0567 31.7801 26.0567C31.5595 26.0567 31.348 25.9957 31.1921 25.8873C31.0361 25.7789 30.9485 25.6318 30.9485 25.4785C30.9485 25.3252 31.0361 25.1781 31.1921 25.0697C31.348 24.9613 31.5595 24.9004 31.7801 24.9004C32.0007 24.9004 32.2122 24.9613 32.3681 25.0697C32.5241 25.1781 32.6117 25.3252 32.6117 25.4785Z" fill="#FFFF00"/>
<path fill-rule="evenodd" clip-rule="evenodd" d="M31.7801 24.9545C31.5687 24.9545 31.3684 25.013 31.223 25.1142C31.0776 25.2152 31.0026 25.3472 31.0026 25.4785C31.0026 25.6098 31.0776 25.7418 31.223 25.8428C31.3684 25.944 31.5687 26.0025 31.7801 26.0025C31.9914 26.0025 32.1917 25.944 32.3372 25.8428C32.4825 25.7418 32.5575 25.6098 32.5575 25.4785C32.5575 25.3472 32.4825 25.2152 32.3372 25.1142C32.1917 25.013 31.9914 24.9545 31.7801 24.9545ZM31.1611 25.0252C31.3275 24.9095 31.5503 24.8462 31.7801 24.8462C32.0099 24.8462 32.2326 24.9095 32.399 25.0252C32.5656 25.141 32.6659 25.3031 32.6659 25.4785C32.6659 25.6539 32.5656 25.816 32.399 25.9318C32.2326 26.0475 32.0099 26.1108 31.7801 26.1108C31.5503 26.1108 31.3275 26.0475 31.1611 25.9318C30.9945 25.816 30.8943 25.6539 30.8943 25.4785C30.8943 25.3031 30.9945 25.141 31.1611 25.0252Z" fill="black"/>
<path fill-rule="evenodd" clip-rule="evenodd" d="M31.575 28.8281C31.575 28.9687 31.3875 29.0812 31.1719 29.0812C30.9469 29.0812 30.7688 28.9687 30.7688 28.8281C30.7688 28.6875 30.9562 28.575 31.1719 28.575C31.3875 28.575 31.575 28.6875 31.575 28.8281ZM29.4844 28.8281C29.4844 28.9687 29.3062 29.0812 29.0906 29.0812C28.8656 29.0812 28.6875 28.9687 28.6875 28.8281C28.6875 28.6875 28.8656 28.575 29.0906 28.575C29.3062 28.575 29.4844 28.6875 29.4844 28.8281Z" fill="black"/>
<path fill-rule="evenodd" clip-rule="evenodd" d="M30.13 20.6253L29.6384 20.005L28.8317 20.1074L28.9452 19.3366L28.296 18.8729L28.9452 18.4031L28.8317 17.6323L29.6384 17.7407L30.13 17.1204L30.6216 17.7407L31.422 17.6323L31.3148 18.4031L31.9577 18.8729L31.3148 19.3426L31.422 20.1074L30.6153 20.005L30.13 20.6253Z" fill="#FFFF00"/>
<path fill-rule="evenodd" clip-rule="evenodd" d="M30.1299 17.0658L30.6361 17.7045L31.4616 17.5927L31.3511 18.3877L32.0151 18.8729L31.3512 19.358L31.4616 20.1466L30.6301 20.0411L30.1301 20.6801L29.6237 20.0411L28.7916 20.1467L28.9086 19.3521L28.2379 18.873L28.9086 18.3877L28.7916 17.5927L29.6238 17.7045L30.1299 17.0658ZM30.1299 17.1749L29.6529 17.7768L28.8717 17.6719L28.9816 18.4185L28.354 18.8727L28.9816 19.321L28.8717 20.0682L29.653 19.969L30.1298 20.5706L30.6004 19.969L31.3822 20.0682L31.2784 19.3272L31.9002 18.8729L31.2784 18.4185L31.3822 17.6719L30.607 17.7769L30.1299 17.1749Z" fill="black"/>
<path fill-rule="evenodd" clip-rule="evenodd" d="M33.5596 23.0243L34.9355 23.6848L36.3115 23.0243L34.9355 22.37L33.566 23.0243H33.5596Z" fill="#FFFF00"/>
<path fill-rule="evenodd" clip-rule="evenodd" d="M34.9355 22.3316L36.392 23.0242L34.9355 23.7234L33.5446 23.0557L33.5563 23.004L33.5511 22.993L34.9355 22.3316ZM33.6432 23.026L34.9355 23.6463L36.2309 23.0245L34.9356 22.4085L33.6432 23.026Z" fill="black"/>
<path fill-rule="evenodd" clip-rule="evenodd" d="M23.7158 23.0243L25.0918 23.6848L26.4677 23.0243L25.0918 22.37L23.7223 23.0243H23.7158Z" fill="#FFFF00"/>
<path fill-rule="evenodd" clip-rule="evenodd" d="M25.0917 22.3316L26.5483 23.0242L25.0918 23.7234L23.7008 23.0557L23.7126 23.004L23.7073 22.993L25.0917 22.3316ZM23.7995 23.026L25.0918 23.6463L26.3872 23.0245L25.0918 22.4085L23.7995 23.026Z" fill="black"/>
<path fill-rule="evenodd" clip-rule="evenodd" d="M35.6832 26.9384C35.2619 26.6713 34.5523 26.8044 34.1546 27.0227C33.7568 27.2409 33.3591 27.4592 33.3056 28.2502C32.8488 27.4901 33.2086 26.7873 33.8136 26.4553C34.1344 26.3045 34.5018 26.271 34.8467 26.361C35.1916 26.4509 35.4902 26.6582 35.6864 26.9437L35.6832 26.9384Z" fill="#FFFF00"/>
<path fill-rule="evenodd" clip-rule="evenodd" d="M33.2808 28.1339C33.3203 27.7962 33.4281 27.5684 33.5737 27.3995C33.7335 27.2141 33.937 27.1025 34.1345 26.9941L34.1367 26.9929C34.3399 26.8814 34.6215 26.7922 34.9058 26.7645C35.1325 26.7425 35.3644 26.7593 35.5609 26.8381C35.3742 26.6238 35.1223 26.468 34.8381 26.3939C34.5019 26.3062 34.1436 26.3388 33.8305 26.4856C33.5347 26.6482 33.3002 26.9006 33.1949 27.2036C33.0993 27.479 33.1095 27.7983 33.2808 28.1339ZM35.7074 26.9133C35.5062 26.6267 35.2037 26.4189 34.8553 26.328C34.502 26.2359 34.1259 26.2703 33.7976 26.4245L33.7966 26.425L33.7957 26.4255C33.4869 26.5949 33.2395 26.8596 33.1279 27.1808C33.0161 27.5027 33.0418 27.8787 33.2752 28.2669L33.3334 28.3638L33.3409 28.2531C33.3672 27.8633 33.478 27.6181 33.6283 27.4438C33.7796 27.2684 33.9729 27.162 34.1725 27.0525C34.367 26.9457 34.6391 26.8592 34.9143 26.8325C35.19 26.8057 35.4633 26.8394 35.6642 26.9668L35.6739 26.9523L35.7169 26.927L35.7093 26.9145L35.7074 26.9133Z" fill="black"/>
<path fill-rule="evenodd" clip-rule="evenodd" d="M26.2322 25.6497C26.2322 25.7651 26.1843 25.8758 26.0989 25.9574C26.0135 26.039 25.8976 26.0848 25.7768 26.0848C25.656 26.0848 25.5402 26.039 25.4548 25.9574C25.3694 25.8758 25.3214 25.7651 25.3214 25.6497C25.3214 25.5342 25.3694 25.4236 25.4548 25.3419C25.5402 25.2603 25.656 25.2145 25.7768 25.2145C25.8976 25.2145 26.0135 25.2603 26.0989 25.3419C26.1843 25.4236 26.2322 25.5342 26.2322 25.6497Z" fill="#FFFF00"/>
<path fill-rule="evenodd" clip-rule="evenodd" d="M25.7769 25.2492C25.6648 25.2492 25.5576 25.2918 25.4789 25.367C25.4001 25.4423 25.3562 25.544 25.3562 25.6497C25.3562 25.7553 25.4001 25.857 25.4789 25.9323C25.5576 26.0076 25.6648 26.0501 25.7769 26.0501C25.889 26.0501 25.9961 26.0076 26.0749 25.9323C26.1537 25.857 26.1976 25.7553 26.1976 25.6497C26.1976 25.544 26.1537 25.4423 26.0749 25.367C25.9961 25.2918 25.889 25.2492 25.7769 25.2492ZM25.4309 25.3168C25.5229 25.2289 25.6474 25.1797 25.7769 25.1797C25.9064 25.1797 26.0309 25.2289 26.1229 25.3168C26.215 25.4048 26.267 25.5245 26.267 25.6497C26.267 25.7748 26.215 25.8945 26.1229 25.9825C26.0309 26.0704 25.9064 26.1196 25.7769 26.1196C25.6474 26.1196 25.5229 26.0704 25.4309 25.9825C25.3388 25.8945 25.2867 25.7748 25.2867 25.6497C25.2867 25.5245 25.3388 25.4048 25.4309 25.3168Z" fill="black"/>
<path fill-rule="evenodd" clip-rule="evenodd" d="M25.7729 27.1778C25.7729 27.2932 25.7249 27.4039 25.6395 27.4855C25.5541 27.5671 25.4383 27.613 25.3175 27.613C25.1967 27.613 25.0809 27.5671 24.9954 27.4855C24.91 27.4039 24.8621 27.2932 24.8621 27.1778C24.8621 27.0624 24.91 26.9517 24.9954 26.8701C25.0809 26.7884 25.1967 26.7426 25.3175 26.7426C25.4383 26.7426 25.5541 26.7884 25.6395 26.8701C25.7249 26.9517 25.7729 27.0624 25.7729 27.1778Z" fill="#FFFF00"/>
<path fill-rule="evenodd" clip-rule="evenodd" d="M25.3175 26.7773C25.2055 26.7773 25.0983 26.8199 25.0195 26.8952C24.9408 26.9704 24.8969 27.0721 24.8969 27.1778C24.8969 27.2835 24.9408 27.3852 25.0195 27.4604C25.0983 27.5357 25.2055 27.5782 25.3175 27.5782C25.4296 27.5782 25.5368 27.5357 25.6156 27.4604C25.6943 27.3852 25.7382 27.2835 25.7382 27.1778C25.7382 27.0721 25.6943 26.9704 25.6156 26.8952C25.5368 26.8199 25.4296 26.7773 25.3175 26.7773ZM24.9715 26.845C25.0635 26.757 25.188 26.7079 25.3175 26.7079C25.447 26.7079 25.5715 26.757 25.6636 26.845C25.7556 26.9329 25.8077 27.0526 25.8077 27.1778C25.8077 27.3029 25.7556 27.4226 25.6636 27.5106C25.5715 27.5986 25.447 27.6477 25.3175 27.6477C25.188 27.6477 25.0635 27.5986 24.9715 27.5106C24.8794 27.4226 24.8274 27.3029 24.8274 27.1778C24.8274 27.0526 24.8794 26.9329 24.9715 26.845Z" fill="black"/>
<path fill-rule="evenodd" clip-rule="evenodd" d="M25.5479 26.3059C25.5479 26.4213 25.4999 26.532 25.4145 26.6136C25.3291 26.6952 25.2133 26.7411 25.0925 26.7411C24.9717 26.7411 24.8559 26.6952 24.7705 26.6136C24.6851 26.532 24.6371 26.4213 24.6371 26.3059C24.6371 26.1905 24.6851 26.0798 24.7705 25.9982C24.8559 25.9166 24.9717 25.8707 25.0925 25.8707C25.2133 25.8707 25.3291 25.9166 25.4145 25.9982C25.4999 26.0798 25.5479 26.1905 25.5479 26.3059Z" fill="#FFFF00"/>
<path fill-rule="evenodd" clip-rule="evenodd" d="M25.0924 25.9055C24.9804 25.9055 24.8732 25.948 24.7944 26.0233C24.7157 26.0985 24.6718 26.2002 24.6718 26.3059C24.6718 26.4116 24.7157 26.5133 24.7944 26.5885C24.8732 26.6638 24.9804 26.7064 25.0924 26.7064C25.2045 26.7064 25.3117 26.6638 25.3905 26.5885C25.4692 26.5133 25.5131 26.4116 25.5131 26.3059C25.5131 26.2002 25.4692 26.0985 25.3905 26.0233C25.3117 25.948 25.2045 25.9055 25.0924 25.9055ZM24.7464 25.9731C24.8384 25.8851 24.9629 25.836 25.0924 25.836C25.2219 25.836 25.3464 25.8851 25.4385 25.9731C25.5306 26.0611 25.5826 26.1808 25.5826 26.3059C25.5826 26.4311 25.5306 26.5507 25.4385 26.6387C25.3464 26.7267 25.2219 26.7758 25.0924 26.7758C24.9629 26.7758 24.8384 26.7267 24.7464 26.6387C24.6543 26.5507 24.6023 26.4311 24.6023 26.3059C24.6023 26.1808 24.6543 26.0611 24.7464 25.9731Z" fill="black"/>
<path fill-rule="evenodd" clip-rule="evenodd" d="M26.6917 27.1778C26.6917 27.2932 26.6437 27.4039 26.5583 27.4855C26.4729 27.5671 26.3571 27.613 26.2363 27.613C26.1155 27.613 25.9997 27.5671 25.9143 27.4855C25.8289 27.4039 25.7809 27.2932 25.7809 27.1778C25.7809 27.0624 25.8289 26.9517 25.9143 26.8701C25.9997 26.7884 26.1155 26.7426 26.2363 26.7426C26.3571 26.7426 26.4729 26.7884 26.5583 26.8701C26.6437 26.9517 26.6917 27.0624 26.6917 27.1778Z" fill="#FFFF00"/>
<path fill-rule="evenodd" clip-rule="evenodd" d="M26.2362 26.7773C26.1242 26.7773 26.017 26.8199 25.9382 26.8952C25.8595 26.9704 25.8156 27.0721 25.8156 27.1778C25.8156 27.2835 25.8595 27.3852 25.9382 27.4604C26.017 27.5357 26.1242 27.5782 26.2362 27.5782C26.3483 27.5782 26.4555 27.5357 26.5343 27.4604C26.613 27.3852 26.6569 27.2835 26.6569 27.1778C26.6569 27.0721 26.613 26.9704 26.5343 26.8952C26.4555 26.8199 26.3483 26.7773 26.2362 26.7773ZM25.8902 26.845C25.9822 26.757 26.1067 26.7079 26.2362 26.7079C26.3657 26.7079 26.4902 26.757 26.5823 26.845C26.6743 26.9329 26.7264 27.0526 26.7264 27.1778C26.7264 27.3029 26.6743 27.4226 26.5823 27.5106C26.4902 27.5986 26.3657 27.6477 26.2362 27.6477C26.1067 27.6477 25.9822 27.5986 25.8902 27.5106C25.7981 27.4226 25.7461 27.3029 25.7461 27.1778C25.7461 27.0526 25.7981 26.9329 25.8902 26.845Z" fill="black"/>
<path fill-rule="evenodd" clip-rule="evenodd" d="M26.9167 26.3059C26.9167 26.4213 26.8687 26.532 26.7833 26.6136C26.6979 26.6952 26.5821 26.7411 26.4613 26.7411C26.3405 26.7411 26.2247 26.6952 26.1392 26.6136C26.0538 26.532 26.0059 26.4213 26.0059 26.3059C26.0059 26.1905 26.0538 26.0798 26.1392 25.9982C26.2247 25.9166 26.3405 25.8707 26.4613 25.8707C26.5821 25.8707 26.6979 25.9166 26.7833 25.9982C26.8687 26.0798 26.9167 26.1905 26.9167 26.3059Z" fill="#FFFF00"/>
<path fill-rule="evenodd" clip-rule="evenodd" d="M26.4612 25.9055C26.3491 25.9055 26.242 25.948 26.1632 26.0233C26.0845 26.0985 26.0405 26.2002 26.0405 26.3059C26.0405 26.4116 26.0845 26.5133 26.1632 26.5885C26.242 26.6638 26.3491 26.7064 26.4612 26.7064C26.5733 26.7064 26.6805 26.6638 26.7593 26.5885C26.838 26.5133 26.8819 26.4116 26.8819 26.3059C26.8819 26.2002 26.838 26.0985 26.7593 26.0233C26.6805 25.948 26.5733 25.9055 26.4612 25.9055ZM26.1152 25.9731C26.2072 25.8851 26.3317 25.836 26.4612 25.836C26.5907 25.836 26.7152 25.8851 26.8072 25.9731C26.8993 26.0611 26.9514 26.1808 26.9514 26.3059C26.9514 26.4311 26.8993 26.5507 26.8072 26.6387C26.7152 26.7267 26.5907 26.7758 26.4612 26.7758C26.3317 26.7758 26.2072 26.7267 26.1152 26.6387C26.0231 26.5507 25.9711 26.4311 25.9711 26.3059C25.9711 26.1808 26.0231 26.0611 26.1152 25.9731Z" fill="black"/>
<path fill-rule="evenodd" clip-rule="evenodd" d="M26.2322 26.5215C26.2322 26.6369 26.1843 26.7476 26.0989 26.8292C26.0135 26.9109 25.8976 26.9567 25.7768 26.9567C25.656 26.9567 25.5402 26.9109 25.4548 26.8292C25.3694 26.7476 25.3214 26.6369 25.3214 26.5215C25.3214 26.4061 25.3694 26.2954 25.4548 26.2138C25.5402 26.1322 25.656 26.0863 25.7768 26.0863C25.8976 26.0863 26.0135 26.1322 26.0989 26.2138C26.1843 26.2954 26.2322 26.4061 26.2322 26.5215Z" fill="#FFFF00"/>
<path fill-rule="evenodd" clip-rule="evenodd" d="M25.7769 26.1211C25.6648 26.1211 25.5576 26.1636 25.4789 26.2389C25.4001 26.3142 25.3562 26.4158 25.3562 26.5215C25.3562 26.6272 25.4001 26.7289 25.4789 26.8041C25.5576 26.8794 25.6648 26.922 25.7769 26.922C25.889 26.922 25.9961 26.8794 26.0749 26.8041C26.1537 26.7289 26.1976 26.6272 26.1976 26.5215C26.1976 26.4158 26.1537 26.3142 26.0749 26.2389C25.9961 26.1636 25.889 26.1211 25.7769 26.1211ZM25.4309 26.1887C25.5229 26.1008 25.6474 26.0516 25.7769 26.0516C25.9064 26.0516 26.0309 26.1008 26.1229 26.1887C26.215 26.2767 26.267 26.3964 26.267 26.5215C26.267 26.6467 26.215 26.7664 26.1229 26.8544C26.0309 26.9423 25.9064 26.9914 25.7769 26.9914C25.6474 26.9914 25.5229 26.9423 25.4309 26.8544C25.3388 26.7664 25.2867 26.6467 25.2867 26.5215C25.2867 26.3964 25.3388 26.2767 25.4309 26.1887Z" fill="black"/>
<path fill-rule="evenodd" clip-rule="evenodd" d="M27.9187 11.2875C26.7562 11.2875 26.6062 11.475 26.0812 11.6531C26.0812 11.1469 27.3749 10.5563 28.5187 10.5563C28.5187 10.9219 28.2187 11.2875 27.9187 11.2875Z" fill="#DA4500"/>
<path fill-rule="evenodd" clip-rule="evenodd" d="M29.6718 10.125C29.6718 10.3594 29.4656 10.5562 29.2124 10.5562C28.9593 10.5562 28.7531 10.3594 28.7531 10.1156C28.7531 9.87187 28.9593 9.68437 29.2124 9.68437C29.4656 9.68437 29.6718 9.87187 29.6718 10.1156V10.125Z" fill="#CAC9C7"/>
<path fill-rule="evenodd" clip-rule="evenodd" d="M24.8646 8.59238V9.2467H26.008V12.5244H26.6992V9.2467H27.8426V8.59238H26.6992V7.71585H26.0015V8.59238H24.8582H24.8646Z" fill="#FFFF00"/>
<path fill-rule="evenodd" clip-rule="evenodd" d="M25.9668 7.68112H26.7339V8.55766H27.8773V9.28143H26.7339V12.5592H25.9732V9.28143H24.8298V8.59239H24.8581V8.55766H25.9668V7.68112ZM24.8993 8.62712H26.0362V7.75058H26.6644V8.62712H27.8078V9.21197H26.6644V12.4897H26.0427V9.21197H24.8993V8.62712Z" fill="black"/>
<path fill-rule="evenodd" clip-rule="evenodd" d="M28.5281 10.5563C27.5976 10.5031 26.6655 10.6272 25.7812 10.9219C25.7813 10.2469 26.5687 9.45938 27.9187 9.45938C28.2187 9.45938 28.5281 10.1906 28.5281 10.5563Z" fill="#DA4500"/>
<path fill-rule="evenodd" clip-rule="evenodd" d="M16.618 22.1708C16.2886 21.4606 16.2962 21.234 16.8823 22.0465L23.9421 35.4306L23.726 35.4915L16.6217 22.1736L16.618 22.1708Z" fill="#008500"/>
<path fill-rule="evenodd" clip-rule="evenodd" d="M16.6267 22.1624C16.5451 21.9863 16.4845 21.8406 16.4485 21.7335C16.4304 21.6796 16.4187 21.636 16.4135 21.6035C16.4109 21.5872 16.4101 21.5742 16.4107 21.5643C16.4114 21.5543 16.4135 21.5489 16.4156 21.5462C16.4172 21.544 16.4197 21.5425 16.4247 21.5429C16.4302 21.5433 16.4383 21.5461 16.4492 21.5526C16.4711 21.5657 16.501 21.5916 16.5398 21.6323C16.6171 21.7135 16.7268 21.8508 16.873 22.0534L23.9248 35.4223L23.7312 35.4769L16.63 22.1649L16.6267 22.1624ZM16.555 21.6143C16.6336 21.6968 16.7444 21.8356 16.891 22.0389L16.8916 22.0396L23.9594 35.4389L23.7208 35.5062L16.6133 22.1822L16.6094 22.1792L16.608 22.1762C16.5255 21.9985 16.464 21.8506 16.4273 21.7415C16.4089 21.687 16.3966 21.6416 16.3911 21.6068C16.3884 21.5894 16.3872 21.5742 16.388 21.5614C16.3889 21.5489 16.3917 21.5374 16.3981 21.5291C16.4049 21.5203 16.4146 21.5168 16.4253 21.5176C16.4355 21.5184 16.447 21.5231 16.4593 21.5304C16.484 21.5452 16.5158 21.5731 16.555 21.6143Z" fill="black"/>
<path fill-rule="evenodd" clip-rule="evenodd" d="M21.4125 30.975C21.4875 29.9813 19.6688 28.9125 19.5938 28.9781C19.5282 29.0531 19.7063 29.6344 20.0532 29.925C19.3969 29.5875 18.7032 29.3813 18.6844 29.5219C18.6282 29.7281 19.7157 30.1969 19.8094 30.3844C19.8094 30.5156 19.0032 30.4969 19.0219 30.6281C19.0407 30.7594 21.3 31.9031 21.4125 30.975ZM19.5938 28.0875C19.6688 27.0938 17.85 26.025 17.7844 26.0906C17.7094 26.1563 17.8875 26.7375 18.2344 27.0375C17.5782 26.7 16.8844 26.4844 16.8657 26.6344C16.8188 26.8313 17.8969 27.3094 17.9907 27.4969C18 27.6281 17.1938 27.6094 17.2032 27.7406C17.2219 27.8719 19.4813 29.0063 19.5938 28.0875ZM18.2063 25.4625C18.2813 24.4688 16.4625 23.4 16.3875 23.4656C16.3219 23.5313 16.5 24.1125 16.8469 24.4125C16.1907 24.075 15.4969 23.8594 15.4782 24.0094C15.4313 24.2063 16.5094 24.6844 16.6032 24.8719C16.6032 25.0031 15.8063 24.9844 15.8157 25.1156C15.8344 25.2469 18.0938 26.3906 18.2063 25.4625ZM16.8375 22.6125C16.9032 21.6281 15.0938 20.55 15.0188 20.6156C14.9438 20.6906 15.1313 21.2719 15.4688 21.5719C14.8125 21.225 14.1188 21.0188 14.1094 21.1688C14.0532 21.3656 15.1407 21.8438 15.225 22.0219C15.2344 22.1531 14.4282 22.1438 14.4469 22.275C14.4563 22.4063 16.7157 23.5406 16.8375 22.6125Z" fill="#008F00"/>
<path fill-rule="evenodd" clip-rule="evenodd" d="M17.3062 22.4906C18.1875 21.9563 18.0094 19.9219 17.9156 19.9031C17.8125 19.8938 17.4281 20.3719 17.3812 20.8219C17.2781 20.1094 17.0437 19.4531 16.9125 19.5281C16.7156 19.6031 16.95 20.7188 16.8469 20.8969C16.7531 20.9906 16.2844 20.3531 16.1906 20.4469C16.0781 20.5406 16.4531 22.95 17.3156 22.4906H17.3062ZM18.5812 24.9844C19.5937 24.7594 20.1469 22.7906 20.0531 22.7438C19.9594 22.6969 19.4344 23.025 19.2375 23.4375C19.3875 22.7344 19.3969 22.0406 19.2375 22.0688C19.0219 22.0781 18.8625 23.2031 18.7031 23.3344C18.5812 23.3906 18.3562 22.65 18.2344 22.6969C18.1031 22.7531 17.6156 25.1438 18.5812 24.9844ZM20.1 27.5344C21.0281 27.0844 21.0375 25.0406 20.9437 25.0219C20.85 24.9938 20.4281 25.4438 20.3344 25.8844C20.2969 25.1625 20.1281 24.4969 19.9875 24.5625C19.7812 24.6188 19.9125 25.7438 19.8 25.9125C19.6875 25.9969 19.2844 25.3219 19.1719 25.4063C19.0594 25.4813 19.2094 27.9188 20.1094 27.5344H20.1ZM21.75 30.8719C22.7156 30.5062 22.95 28.4812 22.8562 28.4437C22.7625 28.4156 22.2937 28.8188 22.1531 29.25C22.1906 28.5281 22.0969 27.8438 21.9469 27.9C21.7312 27.9375 21.75 29.0719 21.6187 29.2312C21.4969 29.2969 21.1687 28.5937 21.0562 28.6687C20.9344 28.725 20.8219 31.1719 21.75 30.8719Z" fill="#008F00"/>
<path fill-rule="evenodd" clip-rule="evenodd" d="M23.8767 34.3505C23.631 34.7709 22.8542 34.8089 22.1322 34.4237C21.4102 34.0386 21.0365 33.3867 21.2821 32.9663C21.5277 32.5459 22.3102 32.5109 23.0265 32.893C23.7429 33.2752 24.1223 33.9301 23.8767 34.3505Z" fill="#FF1900"/>
<path fill-rule="evenodd" clip-rule="evenodd" d="M21.9787 32.6628C21.6694 32.6761 21.4271 32.7871 21.3128 32.9826C21.1985 33.1783 21.2255 33.433 21.3752 33.691C21.5246 33.9484 21.7934 34.2036 22.1498 34.3937C22.5061 34.5838 22.8745 34.6686 23.1822 34.655C23.4907 34.6414 23.7317 34.5298 23.8461 34.3341C23.9603 34.1386 23.932 33.8832 23.7815 33.6246C23.6315 33.3668 23.3626 33.1116 23.0091 32.923C22.6556 32.7345 22.2872 32.6496 21.9787 32.6628ZM21.977 32.5946C22.3003 32.5807 22.6813 32.6695 23.0441 32.863C23.407 33.0566 23.6859 33.32 23.8432 33.5902C24.0001 33.8597 24.0387 34.142 23.9074 34.3668C23.7761 34.5916 23.5059 34.7091 23.184 34.7233C22.8614 34.7375 22.4804 34.6488 22.1147 34.4537C21.7491 34.2587 21.4701 33.9953 21.3135 33.7254C21.1572 33.4561 21.1202 33.1747 21.2515 32.9499C21.3829 32.7251 21.6546 32.6084 21.977 32.5946Z" fill="black"/>
<path fill-rule="evenodd" clip-rule="evenodd" d="M42.5173 20.2696L42.6388 19.9558L42.9662 20.0589L43.0878 19.7452L43.4151 19.8483L43.2953 20.1576L43.632 20.2637L43.5088 20.5818L43.1721 20.4757L42.8691 21.2578L42.5417 21.1547L42.8447 20.3727L42.5173 20.2696ZM41.8141 23.0325L42.1415 23.1356L38.6236 32.2155L38.2962 32.1124L41.8141 23.0325Z" fill="#FFFF00"/>
<path fill-rule="evenodd" clip-rule="evenodd" d="M43.0807 19.7304L43.4311 19.8407L43.3112 20.15L43.648 20.256L43.516 20.5966L43.1793 20.4906L42.8763 21.2727L42.5259 21.1623L42.8289 20.3803L42.513 20.2808L42.5173 20.2695L42.5059 20.2659L42.6318 19.941L42.9591 20.0441L43.0807 19.7304ZM42.5332 20.2619L42.8606 20.365L42.5576 21.1471L42.862 21.2429L43.165 20.4609L43.5017 20.5669L43.6163 20.2713L43.2795 20.1652L43.3994 19.8559L43.095 19.7601L42.9734 20.0738L42.646 19.9707L42.5332 20.2619ZM41.807 23.0177L42.1574 23.128L38.6308 32.2304L38.2804 32.12L41.807 23.0177ZM41.8213 23.0474L38.3121 32.1048L38.6165 32.2007L42.1257 23.1433L41.8213 23.0474Z" fill="black"/>
<path fill-rule="evenodd" clip-rule="evenodd" d="M38.1878 31.9048L38.8519 32.1139L37.8813 34.6192L37.2172 34.41L38.1878 31.9048ZM42.0928 21.3653L43.089 21.679C43.7484 21.8867 42.253 23.3492 42.253 23.3492L41.5935 23.1415C41.5935 23.1415 41.4287 21.1562 42.0928 21.3653ZM43.0084 21.3859C42.957 21.5185 42.771 21.5789 42.5886 21.5214C42.4062 21.464 42.2976 21.3108 42.3472 21.1827C42.3969 21.0546 42.5847 20.9898 42.767 21.0472C42.9494 21.1046 43.058 21.2578 43.0067 21.3904L43.0084 21.3859Z" fill="#FFFF00"/>
<path fill-rule="evenodd" clip-rule="evenodd" d="M42.5109 21.0565C42.4376 21.0806 42.3819 21.1266 42.3588 21.1863C42.3357 21.2458 42.349 21.3122 42.3912 21.3716C42.4334 21.4309 42.504 21.4822 42.593 21.5102C42.682 21.5382 42.7714 21.5373 42.8443 21.5138C42.9163 21.4905 42.9716 21.4454 42.9961 21.3845C43.0189 21.3233 43.0057 21.2566 42.9643 21.1975C42.9223 21.1377 42.8518 21.0865 42.7628 21.0584C42.6739 21.0304 42.5841 21.0324 42.5109 21.0565ZM43.0199 21.3895C43.045 21.3201 43.029 21.2466 42.9849 21.1837C42.9398 21.1194 42.8648 21.0654 42.7715 21.036C42.678 21.0065 42.5827 21.0083 42.504 21.0342C42.4253 21.0601 42.3623 21.1106 42.3358 21.1791C42.3092 21.2477 42.3254 21.3219 42.3707 21.3856C42.3913 21.4146 42.4181 21.4416 42.45 21.4652L42.0972 21.3541C42.0114 21.327 41.9375 21.3352 41.8748 21.3716C41.8126 21.4076 41.7632 21.4705 41.7236 21.55C41.6446 21.7088 41.6029 21.9392 41.5819 22.1746C41.561 22.4103 41.5608 22.6524 41.5659 22.8355C41.5685 22.9271 41.5723 23.0039 41.5755 23.0579C41.5772 23.0849 41.5786 23.1062 41.5796 23.1207C41.5802 23.128 41.5806 23.1335 41.5809 23.1373L41.5812 23.1416L41.5813 23.143C41.5813 23.143 41.5813 23.1431 41.5936 23.1415L41.5813 23.1431L41.582 23.1505L42.256 23.3627L42.2616 23.3572L42.253 23.3492C42.2616 23.3572 42.2616 23.3573 42.2616 23.3572L42.2627 23.3562L42.2659 23.353C42.2687 23.3502 42.2729 23.3461 42.2783 23.3407C42.2891 23.3299 42.3049 23.314 42.3248 23.2938C42.3644 23.2533 42.4204 23.1953 42.4854 23.125C42.6155 22.9845 42.7821 22.7948 42.9282 22.5985C43.0741 22.4025 43.2004 22.1987 43.2485 22.0302C43.2725 21.9459 43.2774 21.869 43.2541 21.806C43.2305 21.7424 43.1787 21.6946 43.0934 21.6678L42.7349 21.5549C42.7759 21.5541 42.8152 21.5477 42.8511 21.5361C42.928 21.5112 42.9899 21.4622 43.0182 21.394L43.0199 21.3895ZM42.0885 21.3766C42.0083 21.3513 41.9421 21.3595 41.8867 21.3916C41.8307 21.4241 41.7841 21.482 41.7457 21.5593C41.6688 21.7138 41.6273 21.9405 41.6064 22.1754C41.5856 22.4099 41.5854 22.651 41.5905 22.8337C41.593 22.925 41.5969 23.0016 41.6001 23.0554C41.6017 23.0823 41.6031 23.1034 41.6042 23.1179C41.6046 23.124 41.605 23.129 41.6053 23.1326L42.2501 23.3356C42.2528 23.333 42.2565 23.3293 42.261 23.3248C42.2718 23.314 42.2875 23.2982 42.3073 23.2781C42.3468 23.2378 42.4026 23.1799 42.4674 23.1098C42.5971 22.9697 42.7631 22.7807 42.9085 22.5854C43.054 22.3898 43.178 22.1891 43.2248 22.025C43.2482 21.943 43.2519 21.8716 43.2309 21.8149C43.21 21.7587 43.1643 21.7153 43.0847 21.6903L42.0885 21.3766ZM38.1807 31.8899L38.8679 32.1063L37.8885 34.634L37.2014 34.4176L38.1807 31.8899ZM38.8362 32.1215L38.195 31.9196L37.2331 34.4024L37.8742 34.6043L38.8362 32.1215Z" fill="black"/>
<path fill-rule="evenodd" clip-rule="evenodd" d="M38.7207 33.2062C38.9989 33.6076 38.6779 34.2846 37.9885 34.7209C37.2991 35.1572 36.5214 35.1755 36.2432 34.7741C35.965 34.3726 36.2914 33.6922 36.9754 33.2593C37.6594 32.8265 38.4425 32.8047 38.7207 33.2062Z" fill="#FF1900"/>
<path fill-rule="evenodd" clip-rule="evenodd" d="M36.2806 34.0432C36.1511 34.3119 36.143 34.5686 36.2725 34.7555C36.4021 34.9424 36.6514 35.0363 36.96 35.0276C37.2678 35.0188 37.6284 34.9077 37.9686 34.6923C38.3089 34.477 38.5567 34.2032 38.6852 33.9357C38.814 33.6677 38.8209 33.4117 38.6913 33.2247C38.5618 33.0379 38.3112 32.9448 38.0019 32.9539C37.6933 32.9631 37.3327 33.0743 36.9952 33.2879C36.6577 33.5015 36.4098 33.7753 36.2806 34.0432ZM36.2163 34.0137C36.3517 33.7329 36.6091 33.4501 36.9556 33.2308C37.3021 33.0115 37.675 32.8954 37.9985 32.8858C38.3212 32.8763 38.6013 32.973 38.75 33.1876C38.8987 33.402 38.8841 33.6853 38.7496 33.9652C38.6148 34.2457 38.3574 34.5285 38.0082 34.7495C37.6591 34.9704 37.2861 35.0865 36.9632 35.0957C36.6411 35.1048 36.3624 35.0071 36.2138 34.7926C36.0651 34.5781 36.0812 34.2939 36.2163 34.0137Z" fill="black"/>
</g>
<defs>
<clipPath id="clip0_264_20107">
<rect width="60" height="45" fill="white"/>
</clipPath>
</defs>
</svg>
