<svg width="60" height="45" viewBox="0 0 60 45" fill="none" xmlns="http://www.w3.org/2000/svg">
<g clip-path="url(#clip0_264_20343)">
<path d="M0 0H60V45H0V0Z" fill="#DA2032"/>
<path d="M19.9969 0H40.0031V45H19.9969V0Z" fill="#0066B3"/>
<path d="M10.0031 20.7937C12.0742 20.7937 13.7531 19.1148 13.7531 17.0437C13.7531 14.9727 12.0742 13.2937 10.0031 13.2937C7.93204 13.2937 6.25311 14.9727 6.25311 17.0437C6.25311 19.1148 7.93204 20.7937 10.0031 20.7937Z" fill="#FFD900"/>
<path d="M10.0031 19.425C12.2606 19.425 14.0906 17.595 14.0906 15.3375C14.0906 13.08 12.2606 11.25 10.0031 11.25C7.74569 11.25 5.91565 13.08 5.91565 15.3375C5.91565 17.595 7.74569 19.425 10.0031 19.425Z" fill="#DA2032"/>
<path d="M10.0031 18.75C11.5099 18.75 12.7313 17.5286 12.7313 16.0219C12.7313 14.5152 11.5099 13.2937 10.0031 13.2937C8.49645 13.2937 7.27502 14.5152 7.27502 16.0219C7.27502 17.5286 8.49645 18.75 10.0031 18.75Z" fill="#FFD900"/>
<path d="M10.2844 7.16251C10.146 7.22306 10.0271 7.32086 9.94102 7.44501C9.85494 7.56916 9.80503 7.71478 9.79686 7.86563C9.77811 8.10001 9.88124 8.36251 9.89061 8.58751C9.89061 8.98126 9.48749 9.11251 9.48749 9.66563C9.48749 9.85313 9.66561 10.0688 9.66561 10.5656C9.62811 10.8281 9.47811 10.8938 9.31874 10.9125C9.27362 10.9125 9.22895 10.9035 9.18738 10.8859C9.14581 10.8684 9.10818 10.8427 9.07671 10.8104C9.04525 10.778 9.02059 10.7397 9.00419 10.6977C8.98779 10.6556 8.97998 10.6107 8.98124 10.5656C8.981 10.4783 9.0146 10.3943 9.07499 10.3313C9.08682 10.321 9.09935 10.3116 9.11249 10.3031C9.18749 10.2188 9.29999 10.1906 9.29999 9.98438C9.29999 9.88126 9.22499 9.77813 9.15936 9.59063C9.09374 9.40313 9.14061 9.10313 9.29061 8.92501C9.04686 9.01876 8.90624 9.24376 8.82186 9.45001C8.74686 9.70313 8.82186 9.84376 8.70936 10.0594C8.64374 10.1906 8.56874 10.2469 8.49374 10.3594C8.39999 10.4906 8.30624 10.7719 8.30624 10.9125C8.33814 11.342 8.53125 11.7435 8.84684 12.0365C9.16244 12.3295 9.57715 12.4924 10.0078 12.4924C10.4384 12.4924 10.8532 12.3295 11.1688 12.0365C11.4843 11.7435 11.6775 11.342 11.7094 10.9125C11.7094 10.7719 11.6062 10.4906 11.5219 10.3594C11.4375 10.2469 11.3625 10.1906 11.2969 10.0594C11.1844 9.84376 11.2594 9.70313 11.175 9.45001C11.1 9.24376 10.9594 9.01876 10.7156 8.92501C10.8656 9.11251 10.9031 9.41251 10.8469 9.59063C10.7812 9.77813 10.7156 9.87188 10.7156 9.98438C10.7156 10.1906 10.8187 10.2188 10.9031 10.3031C10.913 10.3119 10.9224 10.3213 10.9312 10.3313C10.9916 10.3943 11.0252 10.4783 11.025 10.5656C11.0262 10.6107 11.0184 10.6556 11.002 10.6977C10.9856 10.7397 10.961 10.778 10.9295 10.8104C10.898 10.8427 10.8604 10.8684 10.8188 10.8859C10.7773 10.9035 10.7326 10.9125 10.6875 10.9125C10.5 10.8844 10.3594 10.8 10.3406 10.5656C10.3406 9.90938 10.6219 9.87188 10.6219 9.38438C10.6219 8.69063 10.0031 8.36251 10.0031 7.85626C10.0031 7.68751 10.0406 7.38751 10.2844 7.16251ZM2.50311 21.4688H5.90624V37.8281H2.50311V21.4688ZM14.0906 21.4688H17.5031V37.8281H14.0906V21.4688ZM6.59061 21.4688H13.4062L10.0031 23.5125L6.59061 21.4688ZM6.59061 24.1875H13.4062V25.5563H6.59061V24.1875ZM6.59061 33.7406H13.4062V35.1094H6.59061V33.7406ZM6.59061 35.7844H13.4062L10.0031 37.8281L6.59061 35.7844Z" fill="#FFD900"/>
<path d="M10.0031 33.075C11.8878 33.075 13.4156 31.5472 13.4156 29.6625C13.4156 27.7778 11.8878 26.25 10.0031 26.25C8.11846 26.25 6.59064 27.7778 6.59064 29.6625C6.59064 31.5472 8.11846 33.075 10.0031 33.075Z" fill="#FFD900"/>
<path d="M9.99877 28.5314C10.3753 28.5314 10.6806 28.2262 10.6806 27.8496C10.6806 27.4731 10.3753 27.1678 9.99877 27.1678C9.62221 27.1678 9.31696 27.4731 9.31696 27.8496C9.31696 28.2262 9.62221 28.5314 9.99877 28.5314Z" fill="#DA2032"/>
<path d="M9.99877 32.1451C10.3753 32.1451 10.6806 31.8398 10.6806 31.4632C10.6806 31.0867 10.3753 30.7814 9.99877 30.7814C9.62221 30.7814 9.31696 31.0867 9.31696 31.4632C9.31696 31.8398 9.62221 32.1451 9.99877 32.1451Z" fill="#DA2032"/>
<path d="M9.99878 25.8383C10.5322 25.8383 11.0438 26.0502 11.421 26.4274C11.7982 26.8046 12.0101 27.3162 12.0101 27.8496C12.0101 28.3831 11.7982 28.8947 11.421 29.2719C11.0438 29.6491 10.5322 29.861 9.99878 29.861C9.57384 29.861 9.16629 30.0298 8.86581 30.3303C8.56533 30.6308 8.39652 31.0383 8.39652 31.4633C8.39652 31.8882 8.56533 32.2957 8.86581 32.5962C9.16629 32.8967 9.57384 33.0655 9.99878 33.0655V33.4746C9.46534 33.4746 8.95374 33.2627 8.57654 32.8855C8.19934 32.5083 7.98743 31.9967 7.98743 31.4633C7.98743 30.9298 8.19934 30.4182 8.57654 30.041C8.95374 29.6638 9.46534 29.4519 9.99878 29.4519C10.4237 29.4519 10.8313 29.2831 11.1318 28.9826C11.4322 28.6821 11.601 28.2746 11.601 27.8496C11.601 27.4247 11.4322 27.0171 11.1318 26.7167C10.8313 26.4162 10.4237 26.2474 9.99878 26.2474V25.8383Z" fill="#DA2032"/>
</g>
<defs>
<clipPath id="clip0_264_20343">
<rect width="60" height="45" fill="white"/>
</clipPath>
</defs>
</svg>
