<svg width="60" height="45" viewBox="0 0 60 45" fill="none" xmlns="http://www.w3.org/2000/svg">
<g clip-path="url(#clip0_264_20496)">
<path d="M0 0H60V45H0V0Z" fill="#012169"/>
<path d="M36.0844 10.4062H55.35L55.3219 24.1219C55.4813 29.625 52.05 33.0469 45.7313 34.5938C41.2406 33.4688 36.075 31.1719 36.0563 24.2812L36.0844 10.4062Z" fill="#F0F0F0"/>
<path d="M36.5063 10.8188H54.9188L54.9 23.9625C55.05 29.2406 51.7688 32.5125 45.7313 33.9938C41.4375 32.925 36.4969 30.7125 36.4875 24.1125L36.5063 10.8188Z" fill="#00A2BD"/>
<path fill-rule="evenodd" clip-rule="evenodd" d="M36.5905 10.9031L36.5718 24.1124C36.5765 27.3878 37.8032 29.5675 39.5574 31.0631C41.3099 32.5573 43.5943 33.3734 45.7313 33.9068C48.7308 33.1682 51.0365 31.9875 52.5743 30.3443C54.1137 28.6994 54.89 26.5843 54.8156 23.9649L54.8156 23.9636L54.8342 10.9031H36.5905ZM36.5062 10.8187V10.7344H55.0032L54.9843 23.9613C55.0596 26.6195 54.2704 28.779 52.6975 30.4596C51.1263 32.1385 48.7795 33.3327 45.7513 34.0757L45.7311 34.0807L45.7108 34.0756C43.5599 33.5402 41.236 32.7161 39.4479 31.1916C37.656 29.6638 36.4078 27.4372 36.4031 24.1126V24.1124L36.4218 10.8186L36.5062 10.8187Z" fill="black"/>
<path d="M54.7781 25.5188C54.1031 30.5531 50.2218 32.7563 45.7312 33.9281C41.7468 32.8594 37.4625 31.1531 36.6375 25.5375L54.7781 25.5188Z" fill="#A53D08"/>
<path d="M45 13.2656L44.9719 11.6156L46.2844 11.625L46.2938 13.2656H49.875L49.8844 14.55L46.2938 14.5688L46.2657 29.7L44.9907 29.7094L44.9719 14.55L41.4094 14.5688V13.2563L45 13.2656Z" fill="black"/>
<path fill-rule="evenodd" clip-rule="evenodd" d="M42.0937 26.1375L45.375 29.5406C46.5093 28.2938 45.7218 23.6344 44.2312 22.7813C44.0531 23.3344 43.7531 24 43.425 24.2063C42.7218 24.6938 40.9781 25.2563 41.5593 25.6125C41.6906 25.4344 42.0375 25.2656 42.2062 25.6688C42.3937 26.3156 41.475 26.3531 41.475 26.3531C41.475 26.3531 40.8937 26.2781 40.7906 25.6969C40.6968 25.0969 41.6625 24.5531 41.7468 24.5156C41.8218 24.4875 43.0875 24.1406 43.3031 23.025C43.575 21.9188 43.8468 22.0875 43.8937 22.0688C45.5531 22.2281 46.6312 25.1906 46.6968 27.2719C46.7531 29.3531 45.8531 30.7406 45.6843 30.8344C45.525 30.9188 41.7468 26.3438 41.7468 26.3438L42.1031 26.1375H42.0937Z" fill="#FF9A08"/>
<path fill-rule="evenodd" clip-rule="evenodd" d="M43.8883 22.0305L43.8973 22.0314C44.3233 22.0723 44.7094 22.2929 45.049 22.6297C45.3884 22.9663 45.6831 23.4207 45.9268 23.9335C46.4143 24.9591 46.7014 26.2251 46.7344 27.2707L46.7344 27.2709C46.7626 28.3171 46.5506 29.1892 46.31 29.8119C46.1897 30.1233 46.0621 30.3726 45.9537 30.5504C45.8995 30.6392 45.8498 30.7106 45.8079 30.7631C45.787 30.7894 45.7678 30.8112 45.7507 30.8283C45.734 30.845 45.7177 30.8588 45.7026 30.8672L45.7019 30.8675C45.6883 30.8748 45.6746 30.8734 45.6663 30.8716C45.6575 30.8697 45.6491 30.866 45.6417 30.8621C45.6267 30.8543 45.6094 30.8422 45.5906 30.8272C45.5525 30.7971 45.5026 30.7511 45.4431 30.6923C45.3237 30.5745 45.1625 30.4021 44.9741 30.1934C44.5971 29.776 44.1096 29.2117 43.6273 28.645C43.145 28.0783 42.6676 27.5089 42.3109 27.0813C42.1325 26.8675 41.9843 26.6891 41.8807 26.5641C41.8288 26.5016 41.7882 26.4525 41.7604 26.419L41.718 26.3677C41.718 26.3676 41.718 26.3676 41.7391 26.3502L41.718 26.3677L41.7093 26.3572C41.6781 26.3642 41.6485 26.3698 41.6217 26.3742C41.5791 26.3811 41.543 26.3852 41.5176 26.3876C41.5048 26.3888 41.4947 26.3895 41.4877 26.39C41.4842 26.3902 41.4815 26.3903 41.4796 26.3904L41.4774 26.3906L41.4768 26.3906L41.4766 26.3906C41.4766 26.3906 41.4765 26.3906 41.475 26.3531C41.4702 26.3903 41.4702 26.3903 41.4702 26.3903L41.4699 26.3903L41.4695 26.3902L41.468 26.39C41.4667 26.3898 41.4648 26.3895 41.4625 26.3892C41.4578 26.3884 41.451 26.3872 41.4425 26.3856C41.4255 26.3822 41.4014 26.3767 41.3722 26.3684C41.3139 26.3516 41.2351 26.323 41.1527 26.2754C40.9874 26.1799 40.8076 26.0075 40.7537 25.7034L40.7536 25.7027C40.7284 25.5416 40.7747 25.3864 40.8562 25.2457C40.9375 25.1051 41.0551 24.9767 41.1769 24.8674C41.42 24.6492 41.6858 24.5017 41.7316 24.4814L41.7327 24.4809L41.7337 24.4805C41.7384 24.4787 41.7472 24.4759 41.7594 24.4719C41.8517 24.4419 42.1444 24.3468 42.4518 24.1467C42.7998 23.9201 43.1611 23.562 43.2663 23.0179L43.2665 23.017L43.2667 23.016C43.4029 22.4619 43.5409 22.2179 43.6575 22.1114C43.7172 22.0569 43.7715 22.0382 43.8157 22.0332C43.8372 22.0308 43.8554 22.0317 43.868 22.0324L43.8682 22.0324C43.8749 22.0328 43.8788 22.033 43.8819 22.0329C43.882 22.0329 43.8822 22.0329 43.8823 22.0329L43.8883 22.0305ZM43.8837 22.0328C43.8837 22.0328 43.8837 22.0328 43.8836 22.0329L43.8837 22.0328ZM41.475 26.3531L41.4702 26.3903L41.4733 26.3907L41.4765 26.3906L41.475 26.3531ZM41.4768 26.3155C41.4783 26.3154 41.4803 26.3153 41.4828 26.3151C41.4892 26.3147 41.4986 26.314 41.5107 26.3129C41.5347 26.3107 41.569 26.3068 41.6096 26.3001C41.6827 26.2882 41.7752 26.2674 41.8651 26.2319L42.0369 26.1325L42.0055 26.1H42.081C42.1032 26.0783 42.123 26.0545 42.1394 26.0285C42.1924 25.9447 42.2143 25.8331 42.1708 25.6812C42.1309 25.5866 42.082 25.529 42.0319 25.4962C41.9818 25.4635 41.9275 25.4537 41.873 25.4599C41.7616 25.4725 41.6506 25.5518 41.5896 25.6347L41.5691 25.6625L41.5398 25.6445C41.4625 25.5971 41.4153 25.5411 41.4066 25.4746C41.3981 25.4089 41.4289 25.3454 41.4781 25.2869C41.576 25.1703 41.7676 25.0484 41.9926 24.9257C42.1577 24.8356 42.3444 24.7433 42.5313 24.6508C42.6006 24.6165 42.67 24.5822 42.7383 24.548C42.9917 24.4211 43.2303 24.2956 43.4036 24.1754L43.4043 24.1749L43.405 24.1745C43.5602 24.077 43.7134 23.8667 43.8512 23.6063C43.9882 23.3474 44.1069 23.0449 44.1955 22.7698L44.2097 22.7257L44.2499 22.7487C44.6327 22.9678 44.9656 23.4277 45.2324 24.0063C45.4998 24.5861 45.7033 25.2908 45.8245 26.007C45.9456 26.7232 45.9846 27.4526 45.9218 28.0821C45.8591 28.7101 45.6946 29.2451 45.4027 29.5659L45.3758 29.5955L42.0922 26.1899C42.0414 26.2305 41.9839 26.2625 41.926 26.2879C41.9167 26.2919 41.9073 26.2958 41.898 26.2996L41.804 26.354L41.8182 26.3712C41.8459 26.4047 41.8866 26.4538 41.9384 26.5162C42.042 26.6411 42.1902 26.8195 42.3685 27.0333C42.7251 27.4608 43.2023 28.0299 43.6844 28.5964C44.1666 29.1629 44.6535 29.7266 45.0297 30.1432C45.2179 30.3516 45.378 30.5227 45.4958 30.639C45.5548 30.6972 45.6024 30.7409 45.6372 30.7685C45.6542 30.7819 45.6668 30.7905 45.6755 30.7952C45.6813 30.7907 45.6887 30.7842 45.6977 30.7752C45.7122 30.7607 45.7296 30.7411 45.7493 30.7164C45.7887 30.6669 45.8366 30.5982 45.8897 30.5113C45.9956 30.3376 46.1212 30.0923 46.24 29.7849C46.4775 29.1702 46.6873 28.308 46.6594 27.273C46.6267 26.2374 46.3419 24.9815 45.8591 23.9657C45.6177 23.4579 45.3276 23.0116 44.9961 22.6829C44.6665 22.3561 44.2978 22.1471 43.8966 22.1067C43.8912 22.1077 43.8864 22.1079 43.8829 22.1079C43.8772 22.108 43.8709 22.1077 43.8655 22.1074L43.8641 22.1073C43.8518 22.1066 43.839 22.1061 43.8241 22.1078C43.7957 22.111 43.7562 22.1228 43.7081 22.1668C43.6092 22.2571 43.4754 22.4816 43.3398 23.033C43.2291 23.604 42.85 23.9769 42.4927 24.2095C42.175 24.4165 41.8702 24.5149 41.7823 24.5433C41.7723 24.5466 41.7651 24.5489 41.7611 24.5504C41.7191 24.5695 41.4623 24.712 41.227 24.9232C41.1085 25.0296 40.997 25.1519 40.9211 25.2832C40.8452 25.4143 40.806 25.5519 40.8276 25.6907C40.8769 25.9677 41.0392 26.1232 41.1902 26.2105C41.2661 26.2543 41.339 26.2808 41.3929 26.2963C41.4198 26.304 41.4419 26.309 41.4571 26.312C41.4647 26.3135 41.4705 26.3145 41.4744 26.3151C41.4753 26.3153 41.4761 26.3154 41.4768 26.3155ZM42.1573 26.1494L45.3737 29.4853C45.6331 29.1792 45.787 28.6775 45.8472 28.0747C45.9092 27.4532 45.8708 26.7307 45.7505 26.0195C45.6302 25.3084 45.4283 24.6103 45.1643 24.0377C44.9093 23.4848 44.5988 23.0538 44.2523 22.8375C44.1645 23.1034 44.0496 23.3917 43.9175 23.6414C43.779 23.9032 43.6184 24.1287 43.4457 24.2375C43.2675 24.361 43.0247 24.4885 42.7719 24.6151C42.7028 24.6497 42.6329 24.6843 42.5632 24.7187C42.3768 24.8109 42.1922 24.9022 42.0285 24.9915C41.8023 25.1149 41.623 25.2309 41.5355 25.3351C41.4919 25.3871 41.4764 25.4298 41.481 25.4649C41.4848 25.4942 41.5038 25.5273 41.5516 25.5622C41.6247 25.4773 41.741 25.3994 41.8645 25.3854C41.9342 25.3775 42.0065 25.39 42.0729 25.4334C42.1391 25.4767 42.1966 25.5485 42.2408 25.6543L42.2417 25.6562L42.2423 25.6583C42.2917 25.8289 42.2691 25.9638 42.2028 26.0686C42.1959 26.0795 42.1887 26.0899 42.181 26.1H42.2427L42.1573 26.1494Z" fill="black"/>
<path d="M44.4938 22.9688L44.5125 29.1094L44.4938 22.9688ZM44.1188 23.0906L44.1469 28.6594L44.1188 23.0906ZM43.725 23.8969L43.7438 28.3219L43.725 23.8969ZM43.3969 24.2063L43.4157 27.8719L43.3969 24.2063ZM43.05 24.375V27.4688V24.375ZM42.675 24.6188V27.0656V24.6188ZM42.3469 24.8156V26.6906V24.8156Z" fill="#FF9A08"/>
<path fill-rule="evenodd" clip-rule="evenodd" d="M44.4749 29.1095L44.4562 22.9689L44.5312 22.9686L44.5499 29.1093L44.4749 29.1095ZM44.1093 28.6596L44.0812 23.0908L44.1562 23.0904L44.1843 28.6592L44.1093 28.6596ZM43.7062 28.322L43.6874 23.897L43.7624 23.8967L43.7812 28.3217L43.7062 28.322ZM43.3781 27.8721L43.3593 24.2064L43.4343 24.2061L43.4531 27.8717L43.3781 27.8721ZM43.0125 27.4687V24.375H43.0875V27.4687H43.0125ZM42.6375 27.0656V24.6187H42.7125V27.0656H42.6375ZM42.3093 26.6906V24.8156H42.3843V26.6906H42.3093Z" fill="black"/>
<path fill-rule="evenodd" clip-rule="evenodd" d="M42.0222 26.503C42.0378 26.4894 42.0615 26.491 42.0751 26.5066L45.4501 30.3691C45.4638 30.3847 45.4622 30.4084 45.4466 30.422C45.431 30.4356 45.4073 30.434 45.3937 30.4184L42.0187 26.5559C42.005 26.5403 42.0066 26.5166 42.0222 26.503Z" fill="#FFDF00"/>
<path fill-rule="evenodd" clip-rule="evenodd" d="M45.5625 24.0324C45.5963 24.0168 45.6364 24.0317 45.652 24.0656L45.5906 24.0937C45.652 24.0656 45.652 24.0655 45.652 24.0656L45.6523 24.0663L45.6532 24.0683L45.6566 24.0759C45.6596 24.0825 45.6639 24.0923 45.6695 24.1052C45.6806 24.1308 45.6966 24.1686 45.7165 24.2176C45.7562 24.3155 45.8111 24.4581 45.8725 24.6378C45.9952 24.997 46.1439 25.5047 46.2478 26.0989C46.4552 27.2861 46.4852 28.8266 45.7631 30.2186C45.7459 30.2517 45.7051 30.2646 45.6721 30.2474C45.639 30.2302 45.6261 30.1895 45.6432 30.1564C46.3461 28.8016 46.3198 27.2952 46.1148 26.1222C46.0124 25.5363 45.8657 25.0356 45.7447 24.6814C45.6842 24.5044 45.6302 24.3641 45.5914 24.2683C45.5719 24.2204 45.5563 24.1836 45.5456 24.1588C45.5403 24.1465 45.5361 24.1372 45.5334 24.131L45.5303 24.124L45.5295 24.1224L45.5293 24.122C45.5293 24.122 45.5293 24.122 45.5293 24.122M45.5625 24.0324C45.5286 24.048 45.5138 24.0881 45.5293 24.122L45.5625 24.0324ZM41.4417 24.9215C41.4661 24.9497 41.463 24.9923 41.4348 25.0167L41.4346 25.0169L41.4335 25.0178C41.4325 25.0187 41.4309 25.0201 41.4289 25.0219C41.4248 25.0256 41.4187 25.0311 41.411 25.0384C41.3955 25.053 41.3736 25.0743 41.3482 25.1011C41.2973 25.1549 41.2336 25.2293 41.1805 25.3134C41.127 25.3982 41.0871 25.4882 41.0781 25.5739C41.0694 25.6565 41.089 25.7366 41.1584 25.8098C41.184 25.8369 41.1829 25.8796 41.1558 25.9052C41.1287 25.9309 41.086 25.9297 41.0604 25.9027C40.9611 25.7978 40.9314 25.6774 40.9438 25.5597C40.9559 25.445 41.0074 25.3346 41.0664 25.2413C41.1258 25.1473 41.1957 25.0658 41.2502 25.0083C41.2776 24.9794 41.3014 24.9562 41.3184 24.9401C41.327 24.9321 41.3338 24.9258 41.3386 24.9215C41.341 24.9194 41.3429 24.9177 41.3443 24.9165L41.3458 24.9151L41.3463 24.9147L41.3464 24.9146C41.3464 24.9146 41.3465 24.9145 41.3906 24.9656L41.3465 24.9145C41.3747 24.8902 41.4174 24.8933 41.4417 24.9215ZM41.7161 25.8431L41.7162 25.8429L41.7169 25.8411C41.7176 25.8394 41.7187 25.8368 41.7201 25.8334C41.7231 25.8266 41.7275 25.8169 41.7332 25.8056C41.7449 25.7824 41.7609 25.7544 41.7798 25.7307C41.7997 25.7057 41.8169 25.6929 41.8287 25.689C41.834 25.6872 41.8429 25.6844 41.8621 25.701C41.8902 25.7254 41.9329 25.7224 41.9573 25.6942C41.9817 25.666 41.9786 25.6234 41.9505 25.599C41.8993 25.5546 41.8414 25.5425 41.786 25.5609C41.7373 25.5772 41.6999 25.6142 41.6742 25.6466C41.6473 25.6804 41.6264 25.7174 41.6126 25.7449C41.6056 25.7589 41.6001 25.7709 41.5963 25.7796C41.5945 25.7839 41.593 25.7874 41.592 25.79L41.5907 25.793L41.5904 25.7939L41.5903 25.7942L41.5902 25.7943C41.5902 25.7943 41.5902 25.7944 41.6531 25.8187L41.5902 25.7943C41.5768 25.8291 41.594 25.8682 41.6288 25.8817C41.6635 25.8951 41.7026 25.8779 41.7161 25.8431Z" fill="#FFDF00"/>
<path d="M46.3125 16.4438C46.5281 16.2563 46.65 16.1344 46.7906 16.1625C46.9312 16.1813 47.1187 16.1625 47.2593 16.125C47.6283 16.0393 48.0105 16.0266 48.3843 16.0875C48.4781 16.1063 48.6187 16.1531 48.8156 16.3219C49.0125 16.4906 49.3031 16.7906 49.2093 17.5969C49.1156 18.4031 49.1437 18.75 49.0968 19.2094C49.0218 20.0063 48.8437 20.6625 48.5343 20.6156C48.9562 21.3656 49.0031 22.0219 49.2843 22.5375C49.5656 23.0531 49.7343 24.1125 49.6312 25.2563C49.5187 26.4094 49.2187 28.9781 50.1281 30.7125C49.9781 30.8156 49.6125 30.7125 49.2843 30.3656C48.9562 30.0188 48.8156 30.0281 48.5531 30.2344C47.7281 30.8625 46.9593 31.6219 45.825 30.8625C45.5625 30.6938 45.4875 30.4875 45.675 29.9531C46.1437 28.6406 46.3781 26.8219 46.3031 25.9781V16.4438H46.3125Z" fill="#008021"/>
<path fill-rule="evenodd" clip-rule="evenodd" d="M47.2628 16.1386C47.1208 16.1765 46.9315 16.1955 46.7887 16.1764L46.7878 16.1763C46.7229 16.1633 46.6612 16.1844 46.5875 16.2339C46.5269 16.2747 46.46 16.3333 46.3783 16.4049C46.3602 16.4207 46.3414 16.4373 46.3217 16.4544L46.3177 16.4578H46.3172V25.9775C46.3547 26.401 46.3147 27.0676 46.2069 27.7919C46.099 28.5167 45.923 29.3004 45.6882 29.9578C45.5947 30.2244 45.5677 30.4066 45.595 30.5421C45.6221 30.6765 45.7032 30.7675 45.8326 30.8507L45.8328 30.8508C46.1148 31.0396 46.3734 31.1336 46.6153 31.1591C46.8571 31.1846 47.083 31.1417 47.2999 31.0557C47.6576 30.9138 47.9891 30.6551 48.3259 30.3924C48.3984 30.3358 48.4712 30.2791 48.5445 30.2233C48.6758 30.1201 48.7808 30.0625 48.8961 30.0786C49.0104 30.0946 49.1306 30.1826 49.2946 30.356C49.4574 30.5281 49.6291 30.6392 49.7779 30.6946C49.9205 30.7477 50.0389 30.7485 50.1096 30.7075C49.6581 29.8395 49.5069 28.7663 49.4824 27.7667C49.4597 26.8432 49.5453 25.9812 49.6029 25.4003C49.6079 25.3497 49.6127 25.3012 49.6172 25.2549C49.6687 24.6841 49.6523 24.1344 49.588 23.6632C49.5237 23.1918 49.4115 22.7999 49.272 22.5442C49.1462 22.3135 49.067 22.0549 48.9811 21.7743C48.9704 21.7394 48.9596 21.7042 48.9487 21.6686C48.8491 21.3466 48.7323 20.9962 48.5221 20.6225L48.508 20.5974L48.5365 20.6017C48.6078 20.6125 48.6726 20.5833 48.7318 20.5183C48.7914 20.4529 48.8442 20.3523 48.8903 20.2242C48.9822 19.968 49.0454 19.6061 49.0829 19.2081L49.0829 19.2079C49.1018 19.0223 49.1085 18.8552 49.1159 18.6681C49.1177 18.6242 49.1195 18.5792 49.1215 18.5326C49.132 18.2875 49.1485 17.9988 49.1954 17.5952C49.242 17.194 49.1929 16.92 49.1086 16.7259C49.0242 16.5319 48.9042 16.4163 48.8065 16.3326C48.6115 16.1655 48.4732 16.1196 48.3818 16.1013C48.0099 16.0408 47.6298 16.0534 47.2628 16.1386ZM46.3072 16.4297C46.3251 16.4141 46.3424 16.3989 46.3592 16.3842C46.441 16.3125 46.5096 16.2524 46.5718 16.2106C46.648 16.1594 46.7174 16.1337 46.7929 16.1486C46.9313 16.167 47.1166 16.1485 47.2557 16.1114L47.2562 16.1113C47.6269 16.0252 48.0109 16.0124 48.3866 16.0736L48.3871 16.0737C48.4833 16.0929 48.6261 16.1409 48.8248 16.3112C48.9239 16.3962 49.0476 16.515 49.1344 16.7147C49.2211 16.9143 49.2704 17.1935 49.2233 17.5985C49.1765 18.0012 49.1601 18.2891 49.1496 18.5338C49.1476 18.5802 49.1458 18.6251 49.144 18.6689C49.1366 18.8561 49.1299 19.0242 49.1109 19.2107C49.0733 19.6095 49.0099 19.9742 48.9167 20.2337C48.8702 20.3633 48.8158 20.4678 48.7526 20.5372C48.6961 20.5992 48.6318 20.6339 48.5596 20.632C48.7631 20.9996 48.8779 21.3445 48.9755 21.6603C48.9865 21.6959 48.9973 21.7311 49.008 21.766C49.094 22.047 49.1723 22.3028 49.2967 22.5308C49.4385 22.7907 49.5513 23.1863 49.6159 23.6594C49.6805 24.1328 49.6969 24.6846 49.6452 25.2575L49.6452 25.2576C49.6407 25.3039 49.6359 25.3524 49.6309 25.403C49.5733 25.9839 49.4879 26.8443 49.5105 27.7661C49.5351 28.7684 49.6873 29.8416 50.1406 30.706L50.1464 30.717L50.1361 30.7241C50.0553 30.7796 49.9206 30.7777 49.7681 30.721C49.6146 30.6639 49.4394 30.55 49.2741 30.3753C49.11 30.2018 48.9958 30.121 48.8922 30.1065C48.7895 30.0922 48.6929 30.1424 48.5618 30.2454L48.5616 30.2456C48.489 30.3009 48.4166 30.3573 48.3444 30.4137C48.0076 30.6765 47.6721 30.9383 47.3102 31.0818C47.09 31.1692 46.8595 31.2131 46.6123 31.187C46.3652 31.161 46.1024 31.0651 45.8173 30.8743C45.6843 30.7887 45.5966 30.6922 45.5674 30.5477C45.5385 30.4044 45.5678 30.2162 45.6617 29.9485C45.8957 29.2933 46.0713 28.5114 46.179 27.7878C46.2868 27.064 46.3265 26.3996 46.2891 25.9794L46.289 25.9781L46.289 16.4297H46.3072Z" fill="black"/>
<path d="M47.0906 15.6375C47.1653 15.844 47.162 16.0708 47.0812 16.275C46.9875 16.5 46.9593 16.7437 47.1281 17.0625C47.3812 16.6875 47.7468 16.7625 47.9718 16.5563C48.1781 16.3406 48.225 16.1344 48.3843 16.0875C48.225 15.9469 47.9812 15.7875 48.0281 15.3844C48.0843 14.9719 48.6562 14.6344 48.1406 14.0156C48.0635 13.9166 47.9628 13.8384 47.8477 13.7884C47.7326 13.7384 47.6068 13.718 47.4818 13.7292C47.3568 13.7404 47.2366 13.7828 47.1322 13.8525C47.0278 13.9222 46.9426 14.017 46.8843 14.1281C46.8562 14.2031 46.9031 14.3531 46.8187 14.4469C46.7625 14.5219 46.6968 14.5875 46.6218 14.6344C46.575 14.6719 46.5468 14.7187 46.6031 14.7844C46.6218 14.8125 46.6593 14.8125 46.6968 14.8219L46.6218 14.9625C46.5937 14.9906 46.6031 15.0188 46.6406 15.0563C46.5937 15.1781 46.6781 15.1969 46.6218 15.2906C46.5656 15.375 46.5093 15.4781 46.6781 15.5719C46.7343 15.6 46.9593 15.6469 47.0906 15.6375ZM44.9812 17.7937C44.6812 17.8688 44.1937 17.7375 43.8281 17.775C43.6593 17.7938 43.5281 17.7094 43.5468 17.55C43.575 17.3906 43.6031 17.1375 43.5656 16.9125C43.569 16.4278 43.6914 15.9514 43.9218 15.525C44.1072 15.1878 44.228 14.819 44.2781 14.4375C44.2781 14.2594 44.2968 14.0719 44.4468 13.9687C44.5593 13.9031 44.5781 13.8375 44.6156 13.7812C44.7093 13.6406 44.8031 13.6125 44.8031 13.6875C44.8125 13.7344 44.8031 13.7813 44.7562 13.8375C44.85 13.7625 45.0187 13.6688 45.0562 13.65C45.0937 13.6125 45.2812 13.4812 45.2906 13.6125C45.3656 13.575 45.4218 13.575 45.4406 13.6125C45.4593 13.6594 45.4406 13.6781 45.4125 13.7062C45.4687 13.7062 45.525 13.7906 45.4125 13.875C45.4781 13.8562 45.5343 13.95 45.4312 14.0344C45.3375 14.1281 45.2062 14.1844 45.1781 14.2594C45.1406 14.3344 44.8781 14.5312 44.775 14.5687C44.6718 14.6156 44.6625 14.6719 44.6625 14.8219C44.6625 16.4906 44.475 16.35 44.475 16.7625C44.475 16.8563 44.4468 16.9594 44.55 16.9313C44.6625 16.8938 44.8218 16.8469 44.9812 16.8469V17.7844V17.7937ZM45.0468 21.375C45.5343 21.1312 46.0968 21.0375 46.3875 20.9625C46.7243 20.8548 47.0506 20.7167 47.3625 20.55C47.5968 20.4281 47.7843 20.2687 47.9156 20.2219C48.0694 20.173 48.1975 20.0651 48.2718 19.9219C48.6412 19.2992 48.8625 18.5999 48.9187 17.8781C48.9187 17.5031 48.825 17.0719 48.45 17.3719C48.0675 17.7016 47.7822 18.1295 47.625 18.6094C47.475 19.2094 47.3437 19.35 47.3156 19.4625C47.2781 19.5844 47.1656 19.5844 47.0156 19.6125C46.5419 19.6863 46.0994 19.8945 45.7406 20.2125C45.3152 20.5274 44.8706 20.8154 44.4093 21.075C44.0625 21.2719 43.9968 21.2906 43.9218 21.45C43.8468 21.6 43.7718 21.7312 43.7156 21.7875C43.6406 21.8625 43.6218 21.9375 43.6406 22.0312C43.65 22.1062 43.6218 22.425 43.6125 22.5375C43.6125 22.65 43.6406 22.6687 43.6781 22.6781C43.7156 22.6781 43.7718 22.6594 43.8 22.5281C43.7812 22.6594 43.9593 22.6219 43.9687 22.5187C43.9687 22.6594 44.1562 22.575 44.1562 22.4437C44.1562 22.5375 44.3156 22.4719 44.3156 22.4437C44.3531 22.3219 44.3812 22.2094 44.4281 22.125C44.4843 21.9937 44.55 21.825 44.6812 21.75C44.8218 21.6375 44.7562 21.525 45.0468 21.375ZM48.5531 30.2344C48.5812 30.3562 48.6468 30.4875 48.6656 30.5719C48.6843 30.6469 48.6468 30.675 48.6281 30.7219C48.5021 30.9831 48.4137 31.2609 48.3656 31.5469C48.3656 31.6594 48.2718 31.7719 48.2437 31.8469C48.1968 31.9219 48.2156 31.9875 48.3187 32.0625C48.3562 32.0906 48.5062 32.0437 48.5156 31.9688C48.5812 32.025 48.6656 32.0062 48.7125 31.9219C48.7687 31.9688 48.8531 31.9406 48.9 31.8562C48.9468 31.8844 49.0218 31.8281 49.05 31.7812C49.125 31.8187 49.2 31.7812 49.2 31.6312C49.2 31.5937 49.2281 31.5375 49.2468 31.5094C49.2656 31.4719 49.275 31.4062 49.275 31.35C49.275 31.2844 49.3031 31.1625 49.3593 31.0875C49.4156 30.9937 49.5 30.8531 49.4625 30.7125C49.425 30.5812 49.3687 30.5906 49.3218 30.4125C49.2 30.2812 49.0406 30.1125 48.8718 30.0938C48.7031 30.0938 48.6093 30.1969 48.5531 30.2344ZM45.4687 31.1625C45.6281 31.3125 45.9656 31.3125 46.2 31.0687C46.1156 31.0312 45.9187 30.9375 45.8437 30.8812C45.7391 30.9995 45.6115 31.0952 45.4687 31.1625Z" fill="#FFE1CF"/>
<path fill-rule="evenodd" clip-rule="evenodd" d="M45.1895 13.5819C45.1388 13.6022 45.0843 13.6431 45.0668 13.6606L45.0651 13.6623L45.0629 13.6634C45.0258 13.682 44.8581 13.7752 44.7656 13.8492L44.7447 13.8279C44.7891 13.7746 44.7967 13.7322 44.7884 13.6904L44.7881 13.689V13.6875C44.7881 13.6714 44.7831 13.6658 44.7796 13.6638C44.7754 13.6615 44.7663 13.6604 44.7504 13.6673C44.7191 13.6808 44.6743 13.7202 44.628 13.7896C44.6209 13.8004 44.6142 13.8118 44.6074 13.8237C44.5798 13.8714 44.5476 13.9272 44.4549 13.9814C44.3124 14.0797 44.2931 14.259 44.2931 14.4375V14.4385L44.2929 14.4395C44.2426 14.8228 44.1212 15.1934 43.935 15.5322C43.7059 15.956 43.5842 16.4296 43.5806 16.9113C43.6181 17.1383 43.5898 17.3925 43.5617 17.5522C43.553 17.6267 43.5792 17.6821 43.6261 17.7173C43.6738 17.753 43.7446 17.7692 43.8264 17.7601L43.8265 17.7601C43.9943 17.7429 44.1873 17.7609 44.3745 17.7783C44.3932 17.7801 44.412 17.7818 44.4306 17.7835C44.631 17.8018 44.8205 17.8153 44.9662 17.7819V16.862C44.8144 16.8648 44.6634 16.9092 44.5547 16.9455L44.5539 16.9457C44.5266 16.9532 44.504 16.9531 44.487 16.9428C44.4696 16.9323 44.4622 16.9138 44.459 16.8951C44.4557 16.8763 44.4561 16.8541 44.4572 16.8317C44.4575 16.8253 44.4578 16.8189 44.4581 16.8126C44.459 16.7959 44.4599 16.7791 44.4599 16.7625C44.4599 16.658 44.4719 16.5882 44.4897 16.5163C44.4956 16.4925 44.5021 16.4687 44.5089 16.4435C44.5228 16.3924 44.5383 16.3354 44.554 16.2602C44.6006 16.0367 44.6474 15.6558 44.6474 14.8219C44.6474 14.7474 44.6496 14.6929 44.6661 14.6511C44.6832 14.6076 44.715 14.5795 44.7687 14.5551L44.7698 14.5546C44.819 14.5367 44.9089 14.4794 44.992 14.4162C45.0333 14.3848 45.0725 14.3523 45.1035 14.3231C45.1346 14.2939 45.156 14.2694 45.1643 14.2533C45.1725 14.232 45.1876 14.2128 45.2058 14.195C45.2244 14.177 45.2471 14.1594 45.2712 14.1418C45.2801 14.1353 45.2891 14.1288 45.2983 14.1221C45.3396 14.0925 45.3831 14.0612 45.4206 14.0238L45.4211 14.0232L45.4217 14.0228C45.4702 13.983 45.4778 13.9443 45.4707 13.9203C45.4635 13.8959 45.4408 13.8825 45.4166 13.8894L45.4034 13.863C45.457 13.8228 45.4664 13.786 45.4611 13.7622C45.4556 13.7374 45.4334 13.7212 45.4124 13.7212H45.3762L45.4018 13.6956C45.4165 13.681 45.4257 13.6714 45.4302 13.6606C45.4341 13.6513 45.435 13.6393 45.4269 13.6187C45.4207 13.6068 45.4084 13.5994 45.3867 13.5994C45.3641 13.5994 45.3337 13.6077 45.2973 13.6259L45.2772 13.636L45.2756 13.6136C45.2746 13.5989 45.2711 13.5894 45.267 13.5834C45.263 13.5776 45.2578 13.574 45.2511 13.5721C45.2367 13.568 45.2152 13.5716 45.1895 13.5819ZM45.3022 13.5904C45.2999 13.5813 45.2964 13.5733 45.2917 13.5664C45.2835 13.5544 45.2722 13.547 45.2594 13.5433C45.2349 13.5363 45.2054 13.5432 45.1784 13.554C45.1251 13.5754 45.0689 13.617 45.0474 13.6377C45.0139 13.6546 44.9009 13.7173 44.8094 13.78C44.8223 13.7476 44.824 13.7169 44.8181 13.686C44.8177 13.6652 44.8109 13.6469 44.7942 13.6376C44.778 13.6286 44.7578 13.6314 44.7385 13.6398C44.6995 13.6567 44.6506 13.7016 44.6031 13.7729C44.5949 13.7852 44.5877 13.7977 44.5804 13.8102C44.5532 13.8572 44.525 13.9058 44.4393 13.9558L44.4383 13.9564C44.2815 14.0642 44.2631 14.2592 44.2631 14.4365C44.2131 14.8158 44.093 15.1825 43.9087 15.5178L43.9086 15.5179C43.677 15.9464 43.554 16.4253 43.5506 16.9124L43.5506 16.9137L43.5508 16.915C43.5879 17.1375 43.5601 17.3886 43.532 17.5474L43.5319 17.5482C43.522 17.6329 43.552 17.6992 43.6081 17.7413C43.6636 17.7829 43.7427 17.7996 43.8297 17.7899M44.5456 16.9169C44.5216 16.9234 44.5091 16.9211 44.5025 16.9171C44.4961 16.9132 44.4912 16.9053 44.4885 16.89C44.4859 16.8748 44.4861 16.8555 44.4871 16.8331C44.4874 16.8272 44.4877 16.8211 44.4881 16.8149C44.489 16.798 44.4899 16.78 44.4899 16.7625C44.4899 16.6608 44.5015 16.5934 44.5188 16.5235C44.5244 16.5008 44.5308 16.4775 44.5375 16.4526C44.5516 16.401 44.5675 16.3423 44.5834 16.2663C44.6305 16.0399 44.6774 15.6567 44.6774 14.8219C44.6774 14.7463 44.68 14.6977 44.694 14.6621C44.7073 14.6284 44.7316 14.605 44.7806 14.5826C44.8346 14.5628 44.9272 14.5031 45.0102 14.4401C45.0521 14.4082 45.0921 14.3751 45.124 14.345C45.1555 14.3155 45.1808 14.2875 45.1915 14.2661L45.1918 14.2654L45.1921 14.2646C45.198 14.2488 45.2098 14.233 45.2268 14.2165C45.2437 14.2 45.2649 14.1835 45.2889 14.166C45.2973 14.1598 45.3061 14.1535 45.3151 14.147C45.3563 14.1175 45.402 14.0846 45.4413 14.0455C45.4954 14.001 45.5111 13.9509 45.4995 13.9118C45.4922 13.8871 45.4741 13.8684 45.4513 13.861C45.4866 13.8247 45.4974 13.7876 45.4904 13.7557C45.4843 13.7283 45.4651 13.7071 45.4417 13.6973C45.4483 13.6896 45.4541 13.6814 45.4579 13.6722C45.4657 13.6534 45.4648 13.6328 45.4545 13.6069L45.454 13.6058C45.4413 13.5804 45.4162 13.5694 45.3867 13.5694C45.3623 13.5694 45.3336 13.5767 45.3022 13.5904C45.3039 13.5969 45.305 13.6039 45.3055 13.6114M45.4417 13.6973C45.4324 13.6934 45.4225 13.6912 45.4124 13.6912V13.7062L45.423 13.7169L45.4243 13.7156C45.4302 13.7097 45.4362 13.7037 45.4417 13.6973ZM45.4513 13.861C45.4381 13.8567 45.4234 13.8563 45.4083 13.8606L45.4124 13.875L45.4214 13.887C45.4329 13.8784 45.4428 13.8697 45.4513 13.861ZM45.4413 14.0455C45.4414 14.0453 45.4416 14.0452 45.4418 14.045L45.4312 14.0344L45.4407 14.046C45.4409 14.0458 45.4411 14.0457 45.4413 14.0455ZM44.7806 14.5826C44.7808 14.5826 44.781 14.5825 44.7811 14.5824L44.7749 14.5687L44.7801 14.5828C44.7803 14.5828 44.7804 14.5827 44.7806 14.5826ZM44.5456 16.9169C44.5457 16.9168 44.5459 16.9168 44.546 16.9168L44.5499 16.9312L44.5452 16.917C44.5453 16.917 44.5455 16.9169 44.5456 16.9169ZM47.4804 13.7143C47.6079 13.7028 47.7363 13.7236 47.8537 13.7746C47.971 13.8257 48.0736 13.9053 48.1522 14.0062C48.2824 14.1624 48.3448 14.3019 48.3633 14.4304C48.3818 14.5589 48.3561 14.6747 48.3127 14.7829C48.2797 14.8652 48.2361 14.9438 48.1937 15.0203C48.1806 15.0439 48.1676 15.0674 48.1551 15.0906C48.1017 15.1897 48.0566 15.2861 48.0429 15.3863C48.02 15.584 48.0682 15.721 48.1412 15.8258C48.2003 15.9109 48.2755 15.9748 48.3448 16.0337C48.3617 16.0481 48.3783 16.0622 48.3942 16.0763L48.4146 16.0942L48.3885 16.1019C48.3145 16.1237 48.2656 16.1825 48.208 16.267C48.1981 16.2816 48.188 16.2969 48.1774 16.3128C48.1275 16.3881 48.0687 16.4767 47.9827 16.5666L47.982 16.5673C47.9239 16.6206 47.857 16.6554 47.7862 16.6836C47.7434 16.7006 47.6982 16.7156 47.6525 16.7307C47.6235 16.7403 47.5944 16.7499 47.5655 16.7602C47.4158 16.8136 47.2645 16.8872 47.1405 17.0709L47.1265 17.0916L47.1148 17.0695C47.0295 16.9084 46.9936 16.7655 46.9912 16.6339C46.9888 16.5024 47.0199 16.3831 47.0673 16.2694C47.1453 16.072 47.1498 15.8533 47.0802 15.6531C47.0142 15.6562 46.9292 15.6469 46.8536 15.6335C46.8134 15.6264 46.7755 15.6181 46.744 15.6098C46.7128 15.6016 46.6869 15.5931 46.6714 15.5853L46.6708 15.585C46.5838 15.5367 46.5506 15.4833 46.5506 15.4277C46.5506 15.3747 46.5813 15.3243 46.6091 15.2826C46.622 15.261 46.6263 15.2448 46.6269 15.2309C46.6275 15.2166 46.6243 15.2038 46.6202 15.1877L46.6199 15.1867C46.6159 15.1713 46.6112 15.1533 46.6108 15.1314C46.6103 15.1111 46.6135 15.0879 46.6232 15.0599C46.6075 15.0431 46.5959 15.0264 46.592 15.0092C46.5872 14.9885 46.5939 14.9699 46.6096 14.9536L46.6742 14.8323C46.6723 14.8319 46.6704 14.8316 46.6685 14.8312L46.6661 14.8307C46.6571 14.829 46.6477 14.8271 46.6388 14.8246C46.6211 14.8195 46.6033 14.8113 46.5911 14.7935C46.5614 14.7586 46.5519 14.7259 46.5592 14.6954C46.5662 14.6658 46.5882 14.642 46.6124 14.6227L46.6131 14.6221L46.6139 14.6217C46.6869 14.576 46.7512 14.5118 46.8067 14.4379L46.8071 14.4373L46.8075 14.4368C46.846 14.3941 46.8553 14.3378 46.8576 14.2799C46.8582 14.2655 46.8583 14.2512 46.8584 14.2371L46.8585 14.2336C46.8586 14.2207 46.8587 14.208 46.8591 14.1959C46.86 14.1696 46.8623 14.1441 46.8703 14.1229L46.8706 14.122L46.871 14.1212C46.9304 14.0078 47.0174 13.9111 47.1238 13.84C47.2303 13.7689 47.3529 13.7257 47.4804 13.7143ZM47.0906 15.6375L47.1047 15.6324C47.1807 15.8424 47.1773 16.0729 47.0951 16.2805L47.095 16.2808C47.0487 16.392 47.0189 16.5071 47.0212 16.6333C47.0234 16.7536 47.0547 16.885 47.13 17.0335C47.2563 16.8573 47.4084 16.7844 47.5554 16.732C47.5858 16.7211 47.6155 16.7113 47.6446 16.7017C47.6894 16.6869 47.7328 16.6725 47.7751 16.6557C47.8439 16.6283 47.907 16.5952 47.9613 16.5455C48.0452 16.4578 48.1022 16.3719 48.152 16.2968C48.1627 16.2807 48.173 16.2651 48.1832 16.2502C48.2348 16.1744 48.2838 16.1121 48.3551 16.082C48.3458 16.074 48.3363 16.0659 48.3266 16.0576C48.2571 15.9986 48.1781 15.9315 48.1165 15.8429C48.0395 15.7322 47.9893 15.5879 48.0132 15.3826L48.0132 15.3823C48.0277 15.2763 48.0751 15.1759 48.1287 15.0764C48.1416 15.0524 48.1548 15.0285 48.1681 15.0046C48.2103 14.9285 48.2526 14.8521 48.2848 14.7718C48.327 14.6667 48.3511 14.5563 48.3336 14.4347C48.316 14.3129 48.2566 14.1783 48.129 14.0252L48.1287 14.0248C48.0532 13.9278 47.9545 13.8512 47.8417 13.8022C47.7289 13.7531 47.6056 13.7332 47.4831 13.7441C47.3606 13.7551 47.2428 13.7966 47.1405 13.8649C47.0385 13.9331 46.9551 14.0256 46.898 14.1342C46.8922 14.1504 46.8899 14.1715 46.8891 14.1969C46.8887 14.2086 46.8886 14.221 46.8885 14.2339L46.8884 14.2373C46.8883 14.2514 46.8882 14.2662 46.8876 14.2811C46.8852 14.3401 46.8758 14.4055 46.8303 14.4564C46.7735 14.532 46.707 14.5987 46.6305 14.6466C46.6082 14.6646 46.593 14.6829 46.5884 14.7023C46.584 14.7208 46.5883 14.7441 46.6145 14.7746L46.615 14.7753L46.6155 14.7761C46.6221 14.7858 46.6321 14.7915 46.647 14.7957C46.6545 14.7979 46.6627 14.7995 46.6718 14.8013L46.6743 14.8018C46.6825 14.8034 46.6915 14.8051 46.7005 14.8073L46.7191 14.812L46.634 14.9715L46.6324 14.9731C46.6211 14.9844 46.6191 14.9934 46.6212 15.0025C46.6237 15.0134 46.6328 15.0273 46.6512 15.0456L46.6581 15.0525L46.6546 15.0616C46.6435 15.0905 46.6404 15.1126 46.6408 15.1308C46.6412 15.1491 46.6451 15.1642 46.6492 15.1801L46.6492 15.1802L46.6493 15.1805C46.6533 15.196 46.6577 15.2129 46.6569 15.2322C46.656 15.252 46.6498 15.2732 46.6347 15.2983L46.6343 15.299C46.6059 15.3416 46.5806 15.3848 46.5806 15.4277C46.5806 15.4682 46.6036 15.5132 46.6851 15.5586C46.6977 15.5649 46.7209 15.5727 46.7516 15.5808C46.7822 15.5889 46.8193 15.597 46.8588 15.604C46.9381 15.618 47.0257 15.6271 47.0895 15.6225L47.0906 15.6375ZM48.913 17.5962C48.9278 17.6857 48.9337 17.7838 48.9337 17.8781V17.8793C48.8773 18.6033 48.6553 19.3046 48.2849 19.9292C48.2088 20.0756 48.0777 20.186 47.9204 20.2361C47.8569 20.2588 47.7789 20.3091 47.6859 20.3703C47.6813 20.3734 47.6767 20.3764 47.672 20.3795C47.5829 20.4382 47.4815 20.505 47.3694 20.5633C47.0568 20.7304 46.7296 20.8688 46.392 20.9768L46.3912 20.977C46.331 20.9926 46.2595 21.0088 46.1796 21.027C45.8715 21.0972 45.4392 21.1956 45.0536 21.3884C44.9106 21.4622 44.8565 21.526 44.8205 21.5844C44.8122 21.598 44.8046 21.6117 44.7971 21.6254C44.772 21.6708 44.7466 21.7169 44.6906 21.7617L44.6896 21.7624L44.6886 21.763C44.6262 21.7987 44.5787 21.8571 44.5394 21.924C44.5048 21.9831 44.4773 22.0476 44.4519 22.1074C44.4485 22.1153 44.4452 22.1232 44.4418 22.1309L44.4415 22.1316L44.4412 22.1323C44.4043 22.1986 44.3794 22.2826 44.3513 22.3769C44.3446 22.3996 44.3377 22.4228 44.3304 22.4466C44.3293 22.4552 44.3236 22.462 44.3193 22.4663C44.3137 22.4718 44.3063 22.4771 44.2982 22.4818C44.2819 22.4912 44.2604 22.4997 44.2389 22.5041C44.2178 22.5085 44.1942 22.5094 44.175 22.501C44.1707 22.4991 44.1666 22.4967 44.1629 22.4938C44.1463 22.5427 44.1073 22.5805 44.0683 22.597C44.0426 22.6079 44.0139 22.6109 43.9907 22.5979C43.9798 22.5918 43.9712 22.5829 43.965 22.5714C43.9439 22.6023 43.9086 22.6218 43.8758 22.6262C43.8512 22.6295 43.8253 22.6248 43.8068 22.6075C43.8027 22.6036 43.7991 22.5993 43.7961 22.5945C43.7837 22.6259 43.7689 22.648 43.7528 22.6632C43.7271 22.6876 43.6996 22.6931 43.6781 22.6931H43.6762L43.6744 22.6927C43.654 22.6876 43.6329 22.679 43.6183 22.6541C43.6044 22.6306 43.5974 22.5944 43.5974 22.5375V22.5362C43.5981 22.5278 43.599 22.5182 43.5999 22.5077C43.6049 22.4478 43.6126 22.3568 43.6186 22.2693C43.6221 22.2178 43.625 22.1676 43.6265 22.1257C43.6279 22.0837 43.6279 22.0511 43.6257 22.0336C43.6161 21.9852 43.616 21.9407 43.6285 21.8981C43.6411 21.8554 43.6661 21.8158 43.705 21.7769C43.7317 21.7501 43.7637 21.7046 43.7988 21.6462C43.8337 21.5881 43.8709 21.5182 43.9083 21.4434C43.9468 21.3618 43.9835 21.3152 44.0549 21.2643C44.1064 21.2277 44.1766 21.1884 44.2788 21.1312C44.3155 21.1107 44.3563 21.0878 44.4019 21.062C44.8624 20.8028 45.3064 20.5152 45.7311 20.2008C46.0919 19.8813 46.5368 19.6719 47.013 19.5977C47.0337 19.5938 47.0545 19.5904 47.0742 19.5871C47.0895 19.5845 47.1043 19.582 47.1178 19.5796C47.1498 19.5738 47.1781 19.5675 47.2026 19.5586C47.2271 19.5497 47.2473 19.5383 47.2635 19.5226C47.2796 19.5071 47.2924 19.4866 47.3011 19.4585C47.3086 19.4287 47.3227 19.3977 47.3412 19.3596C47.3451 19.3515 47.3492 19.3431 47.3536 19.3342C47.3699 19.3008 47.3892 19.2615 47.4108 19.2127C47.4655 19.0893 47.5356 18.905 47.6104 18.6057L47.6106 18.6047C47.7688 18.1222 48.0556 17.692 48.4401 17.3605L48.4406 17.3602C48.5355 17.2842 48.6153 17.2522 48.6824 17.2567C48.7504 17.2612 48.8011 17.303 48.8378 17.3642C48.8744 17.4251 48.8982 17.5069 48.913 17.5962ZM44.1412 22.4437H44.1712C44.1712 22.4533 44.1732 22.4597 44.1758 22.464C44.1784 22.4682 44.1821 22.4713 44.1871 22.4735C44.1979 22.4783 44.2141 22.4786 44.2329 22.4748C44.2512 22.471 44.2696 22.4637 44.2832 22.4558C44.29 22.4519 44.295 22.4481 44.2982 22.445C44.2995 22.4437 44.3002 22.4427 44.3006 22.4423V22.4415L44.3012 22.4393C44.3084 22.416 44.3153 22.3928 44.3221 22.37C44.3501 22.2756 44.3762 22.1877 44.4146 22.1184C44.4178 22.111 44.421 22.1034 44.4243 22.0957C44.4496 22.0361 44.4779 21.9697 44.5136 21.9088C44.5538 21.8401 44.6044 21.777 44.6727 21.7376C44.7231 21.697 44.7449 21.6576 44.7692 21.6135C44.7772 21.5992 44.7854 21.5843 44.795 21.5687C44.834 21.5052 44.8924 21.4378 45.0399 21.3617L45.0468 21.375L45.0401 21.3616C45.4294 21.1669 45.8668 21.0674 46.1748 20.9973C46.2538 20.9793 46.3243 20.9633 46.3833 20.9481C46.7191 20.8406 47.0444 20.703 47.3554 20.5368L47.3555 20.5367C47.4662 20.4791 47.5665 20.4131 47.6558 20.3542C47.6604 20.3512 47.6649 20.3482 47.6694 20.3453C47.7615 20.2847 47.8428 20.2319 47.9105 20.2077L47.911 20.2076C48.061 20.1599 48.186 20.0547 48.2585 19.915L48.2589 19.9142C48.627 19.2937 48.8476 18.5969 48.9037 17.8775C48.9037 17.7845 48.8978 17.6883 48.8834 17.6011C48.8689 17.5134 48.8458 17.4359 48.8121 17.3796C48.7785 17.3236 48.7354 17.2903 48.6804 17.2866C48.6244 17.2829 48.552 17.3095 48.4595 17.3834C48.0794 17.7112 47.7958 18.1365 47.6394 18.6135C47.5642 18.914 47.4937 19.0998 47.4383 19.2248C47.4163 19.2743 47.3968 19.3142 47.3804 19.3476C47.3761 19.3564 47.372 19.3647 47.3682 19.3727C47.3495 19.4111 47.3367 19.4397 47.3301 19.4661L47.3299 19.4669C47.3199 19.4995 47.3046 19.5246 47.2844 19.5442C47.2643 19.5636 47.24 19.5769 47.2129 19.5868C47.1859 19.5966 47.1556 19.6032 47.1231 19.6091C47.1082 19.6118 47.0934 19.6143 47.0782 19.6168C47.0592 19.62 47.0395 19.6233 47.0183 19.6272L47.0179 19.6273C46.547 19.7007 46.1071 19.9077 45.7505 20.2237L45.7495 20.2246C45.3236 20.5398 44.8785 20.8282 44.4167 21.0881C44.3702 21.1145 44.3288 21.1376 44.2919 21.1583C44.1904 21.215 44.1224 21.2531 44.0723 21.2888C44.0055 21.3363 43.9719 21.3788 43.9354 21.4564L43.9352 21.4567C43.8976 21.5319 43.8599 21.6026 43.8245 21.6616C43.7892 21.7204 43.7557 21.7686 43.7262 21.7981C43.69 21.8342 43.6682 21.8696 43.6573 21.9066C43.6464 21.9435 43.6462 21.9832 43.6553 22.0283L43.6555 22.0294C43.658 22.0495 43.6579 22.0847 43.6564 22.1267C43.655 22.1691 43.652 22.2197 43.6485 22.2713C43.6425 22.3591 43.6348 22.4504 43.6298 22.5102C43.6289 22.5205 43.6281 22.5299 43.6274 22.5381C43.6275 22.5934 43.6346 22.6226 43.6441 22.6389C43.6526 22.6532 43.6638 22.6589 43.6799 22.6631C43.6955 22.6628 43.7141 22.6586 43.7322 22.6415C43.7514 22.6232 43.7716 22.589 43.7853 22.525L43.8148 22.5302C43.8106 22.5599 43.8178 22.5766 43.8273 22.5856C43.8373 22.5949 43.853 22.599 43.8718 22.5965C43.9101 22.5913 43.9499 22.5602 43.9537 22.5174L43.9837 22.5187C43.9837 22.5507 43.9942 22.5655 44.0053 22.5717C44.0173 22.5784 44.0354 22.5784 44.0566 22.5694C44.0989 22.5514 44.1412 22.5023 44.1412 22.4437ZM48.5774 30.1973C48.6353 30.1518 48.7281 30.0787 48.8718 30.0787H48.8726L48.8735 30.0788C48.962 30.0887 49.0468 30.1376 49.1238 30.1992C49.2009 30.261 49.2719 30.3368 49.3328 30.4023L49.3354 30.405L49.3363 30.4087C49.3592 30.4958 49.3842 30.5364 49.4081 30.5717C49.4103 30.5749 49.4124 30.5781 49.4146 30.5813C49.437 30.614 49.4591 30.6463 49.4769 30.7084L49.4769 30.7086C49.4968 30.783 49.4842 30.8566 49.4601 30.9227C49.4362 30.9885 49.4004 31.0481 49.3724 31.0948L49.3718 31.0959L49.3713 31.0965C49.3446 31.1321 49.3242 31.1794 49.3104 31.2265C49.2967 31.2735 49.2899 31.3189 49.2899 31.35C49.2899 31.407 49.2805 31.4754 49.2602 31.5161L49.2598 31.5169L49.2593 31.5177C49.2504 31.531 49.2392 31.5512 49.2302 31.5726C49.221 31.5944 49.2149 31.6156 49.2149 31.6312C49.2149 31.708 49.1958 31.7604 49.1627 31.7881C49.1319 31.8137 49.0928 31.8151 49.0554 31.8001C49.0394 31.8224 49.0154 31.8448 48.9895 31.8598C48.9644 31.8745 48.9336 31.8843 48.906 31.8754C48.8817 31.9138 48.8492 31.9405 48.8146 31.9525C48.7815 31.9639 48.7467 31.9616 48.7169 31.9435C48.6925 31.9804 48.6601 32.0043 48.6244 32.0127C48.5907 32.0205 48.5555 32.0141 48.5239 31.9936C48.5176 32.0074 48.5077 32.0197 48.4962 32.0301C48.4786 32.0461 48.4562 32.0589 48.4333 32.0682C48.4104 32.0775 48.3864 32.0835 48.3652 32.0852C48.345 32.0869 48.3238 32.085 48.3097 32.0745M48.5531 30.2344L48.5447 30.2219C48.5541 30.2156 48.565 30.2071 48.5774 30.1973M48.57 30.2408C48.584 30.2976 48.6058 30.3564 48.6269 30.4119C48.6286 30.4165 48.6304 30.4212 48.6322 30.4258C48.6523 30.4786 48.6712 30.5284 48.6802 30.5684C48.6903 30.6091 48.6853 30.6382 48.6747 30.6632C48.6699 30.6747 48.664 30.6852 48.6585 30.6949L48.6575 30.6966C48.6517 30.707 48.6463 30.7168 48.642 30.7274L48.6416 30.7284C48.5164 30.988 48.4285 31.264 48.3806 31.5482C48.3802 31.6078 48.3554 31.6663 48.3285 31.7179C48.3187 31.7365 48.3085 31.7547 48.2988 31.7718C48.295 31.7785 48.2913 31.7851 48.2877 31.7915C48.2749 31.8143 48.2643 31.8346 48.2577 31.8521L48.2572 31.8535L48.2564 31.8548C48.2346 31.8897 48.2293 31.9202 48.2392 31.9499C48.2494 31.9807 48.2769 32.0135 48.3275 32.0504L48.3277 32.0505C48.3324 32.0541 48.344 32.0569 48.3627 32.0553C48.3805 32.0538 48.4016 32.0487 48.422 32.0404C48.4425 32.0321 48.4617 32.0209 48.476 32.0079C48.4904 31.9948 48.4989 31.9808 48.5007 31.9669L48.5041 31.9392L48.5253 31.9574C48.5549 31.9827 48.5876 31.9904 48.6176 31.9834C48.6478 31.9764 48.6775 31.9539 48.6993 31.9146L48.7081 31.8988L48.722 31.9103C48.7457 31.9301 48.7753 31.9343 48.8048 31.9241C48.8347 31.9138 48.8648 31.8885 48.8868 31.849L48.8944 31.8354L48.9077 31.8434C48.9238 31.8531 48.9476 31.8496 48.9744 31.8339C49.0005 31.8187 49.0244 31.7947 49.0371 31.7735L49.0442 31.7616L49.0566 31.7678C49.0907 31.7848 49.1213 31.7835 49.1435 31.765C49.1665 31.7458 49.1849 31.7045 49.1849 31.6312C49.1849 31.6094 49.1929 31.5838 49.2025 31.561C49.2121 31.5383 49.224 31.5167 49.2338 31.5019C49.2507 31.4673 49.2599 31.4051 49.2599 31.35C49.2599 31.3154 49.2673 31.2671 49.2816 31.218C49.2959 31.1693 49.3175 31.1185 49.3468 31.0791C49.375 31.0322 49.4092 30.9751 49.4319 30.9125C49.4548 30.8497 49.4656 30.7827 49.448 30.7165C49.4316 30.6592 49.4118 30.6303 49.3898 30.5982C49.3877 30.595 49.3854 30.5918 49.3832 30.5885C49.3582 30.5516 49.332 30.5085 49.3083 30.42C49.2479 30.3549 49.1792 30.282 49.105 30.2226C49.0299 30.1626 48.9509 30.1179 48.871 30.1087C48.7393 30.109 48.6567 30.1737 48.5984 30.2192C48.5882 30.2271 48.5788 30.2345 48.57 30.2408ZM45.8416 30.8609L45.8527 30.8692C45.889 30.8965 45.9559 30.9335 46.0251 30.9687C46.094 31.0037 46.1641 31.0364 46.206 31.055L46.2256 31.0637L46.2107 31.0791C45.9719 31.3275 45.625 31.3302 45.4584 31.1734L45.4687 31.1625L45.4623 31.1489C45.6033 31.0825 45.7292 30.988 45.8325 30.8713L45.8416 30.8609ZM45.4956 31.1661C45.6505 31.2918 45.9533 31.2893 46.174 31.0736C46.1313 31.0542 46.071 31.0256 46.0115 30.9954C45.9487 30.9634 45.8858 30.9291 45.8459 30.9013C45.7467 31.0108 45.6279 31.1006 45.4956 31.1661Z" fill="black"/>
<path d="M47.0062 13.9688C47.0625 13.5938 47.3344 13.5938 47.5031 13.6406C47.5781 13.65 47.7469 13.6688 47.9156 13.6219C48.2344 13.5375 48.4781 13.65 48.4406 13.9594C48.5344 14.025 48.6281 14.175 48.6 14.3063C48.5906 14.4375 48.6187 14.4938 48.7312 14.5031C48.8531 14.5219 49.1062 14.6719 48.9375 14.8781C49.0969 14.9719 49.2187 15.225 49.1343 15.3844C49.05 15.5531 48.7968 15.5813 48.6844 15.4313C48.5625 15.4875 48.375 15.4969 48.2531 15.375C48.1687 15.4688 47.9719 15.4594 47.925 15.375C47.8875 15.2813 47.8312 15.2438 47.7469 15.2156C47.6625 15.1875 47.6531 14.9531 47.7844 14.925C47.775 14.85 47.7844 14.775 47.8125 14.7375C47.8406 14.7 47.8125 14.625 47.7375 14.5688C47.6625 14.5031 47.5969 14.2875 47.6719 14.1563C47.5406 14.2031 47.2594 14.0719 47.2031 13.9875C47.1375 13.8938 47.0531 13.8938 47.0062 13.9688Z" fill="#870F00"/>
<path fill-rule="evenodd" clip-rule="evenodd" d="M48.3046 13.6551C48.213 13.6015 48.0768 13.5938 47.9193 13.6354C47.7477 13.6831 47.5765 13.664 47.5013 13.6546L47.5003 13.6544L47.4993 13.6542C47.4163 13.6311 47.3098 13.6202 47.218 13.6594C47.1357 13.6945 47.0625 13.771 47.0291 13.9223C47.0495 13.9068 47.0732 13.8991 47.0986 13.9008C47.1395 13.9035 47.1804 13.9305 47.2146 13.9794L47.2148 13.9797L47.2148 13.9797C47.2272 13.9983 47.2534 14.0211 47.2892 14.0442C47.3247 14.0671 47.3684 14.0896 47.4146 14.108C47.4607 14.1265 47.5089 14.1408 47.5533 14.1476C47.5979 14.1545 47.6375 14.1536 47.6671 14.143L47.7029 14.1302L47.6841 14.1632C47.6489 14.2247 47.6461 14.3074 47.6622 14.3842C47.6782 14.461 47.7122 14.5277 47.7463 14.5578C47.7852 14.5871 47.8126 14.6216 47.8266 14.6547C47.8404 14.6873 47.8421 14.7215 47.8237 14.7459C47.8117 14.762 47.8028 14.7875 47.7983 14.8192C47.7938 14.8506 47.7937 14.8868 47.7983 14.9232L47.7999 14.936L47.7873 14.9387C47.7311 14.9508 47.7022 15.0078 47.6988 15.0711C47.6971 15.1021 47.7019 15.1328 47.7117 15.157C47.7216 15.1816 47.7358 15.1971 47.7513 15.2023C47.7943 15.2166 47.8313 15.2337 47.8625 15.2599C47.8937 15.2861 47.9183 15.3207 47.9377 15.3689C47.9475 15.3861 47.9655 15.4005 47.9897 15.4108C48.0141 15.4213 48.0439 15.4272 48.0752 15.4277C48.1383 15.4289 48.2041 15.4084 48.2426 15.3656L48.2526 15.3546L48.263 15.3651C48.3792 15.4812 48.5597 15.4733 48.6784 15.4185L48.6888 15.4137L48.6956 15.4228C48.7484 15.4932 48.8345 15.5223 48.9184 15.5134C49.0023 15.5044 49.082 15.4575 49.1218 15.3781L49.1219 15.3778L49.1219 15.3778C49.1614 15.3033 49.1533 15.2049 49.1143 15.1121C49.0754 15.0194 49.0069 14.9353 48.9303 14.8902L48.9162 14.8819L48.9266 14.8692C48.9671 14.8197 48.9812 14.7749 48.9795 14.7358C48.9778 14.6964 48.96 14.6607 48.9327 14.6296C48.8779 14.5669 48.7877 14.5262 48.7295 14.5171C48.6716 14.5122 48.6312 14.4948 48.608 14.4579C48.5855 14.4221 48.5812 14.3711 48.5859 14.3052L48.586 14.3043L48.5862 14.3033C48.5994 14.2418 48.5842 14.1749 48.5535 14.1146C48.5228 14.0543 48.4773 14.0023 48.4325 13.9709L48.4256 13.9661L48.4266 13.9577C48.4449 13.8073 48.3948 13.7079 48.3046 13.6551ZM47.0062 13.9687L46.9923 13.9667C47.021 13.7755 47.1054 13.6769 47.2069 13.6335C47.3069 13.5909 47.4202 13.6032 47.5059 13.6268C47.5811 13.6362 47.7467 13.6542 47.9118 13.6083L47.912 13.6083L47.912 13.6083C48.0732 13.5656 48.2182 13.5719 48.3188 13.6308C48.419 13.6895 48.472 13.7982 48.4555 13.9528C48.5021 13.9873 48.5474 14.0408 48.5785 14.1018C48.6109 14.1654 48.6285 14.2387 48.6139 14.3082C48.6094 14.373 48.6146 14.4155 48.6318 14.4429C48.6483 14.4691 48.6781 14.4846 48.7324 14.4891L48.7334 14.4892L48.7334 14.4892C48.7971 14.499 48.894 14.5426 48.9539 14.611C48.9841 14.6455 49.0055 14.6871 49.0076 14.7345C49.0095 14.7784 48.9948 14.8254 48.9582 14.8744C49.0352 14.9246 49.1017 15.0094 49.1403 15.1012C49.181 15.1981 49.1917 15.306 49.1468 15.3908C49.1022 15.48 49.0132 15.5315 48.9214 15.5413C48.833 15.5508 48.7402 15.5217 48.68 15.4485C48.5583 15.5007 48.3774 15.5087 48.2534 15.3948C48.2072 15.4383 48.138 15.457 48.0747 15.4559C48.0404 15.4552 48.0069 15.4488 47.9786 15.4367C47.9504 15.4246 47.9264 15.4065 47.9127 15.3818L47.9122 15.381L47.9119 15.3802C47.8939 15.3351 47.8717 15.3043 47.8444 15.2815C47.8171 15.2585 47.7838 15.2428 47.7424 15.229C47.7157 15.2201 47.697 15.1958 47.6856 15.1676C47.674 15.139 47.6688 15.1041 47.6707 15.0696C47.6741 15.0054 47.7028 14.9357 47.769 14.9145C47.7656 14.88 47.7661 14.8458 47.7704 14.8152C47.7753 14.7813 47.7851 14.7505 47.8012 14.7291C47.811 14.716 47.8126 14.6939 47.8007 14.6656C47.7889 14.6379 47.7649 14.6069 47.729 14.58L47.7282 14.5794L47.7282 14.5793C47.6875 14.5437 47.6514 14.47 47.6346 14.39C47.62 14.3201 47.6196 14.2422 47.6461 14.1772C47.6166 14.1819 47.5833 14.1807 47.549 14.1754C47.502 14.1682 47.4517 14.1532 47.4041 14.1341C47.3565 14.1151 47.3111 14.0918 47.274 14.0679C47.2373 14.0442 47.2072 14.0189 47.1915 13.9954C47.1601 13.9507 47.1261 13.9308 47.0967 13.9289C47.0679 13.9269 47.0395 13.942 47.0181 13.9762L47.0062 13.9687Z" fill="black"/>
<path fill-rule="evenodd" clip-rule="evenodd" d="M47.1739 13.9174C47.1754 13.9311 47.1819 13.945 47.195 13.9581L47.1738 13.9793C47.1564 13.962 47.1465 13.942 47.1441 13.9208C47.1417 13.8998 47.1468 13.8788 47.1577 13.8595C47.1794 13.8213 47.224 13.7892 47.2823 13.7727C47.3997 13.7393 47.5761 13.7675 47.7572 13.9391L47.7575 13.9394C47.7916 13.9734 47.8462 13.9915 47.9 13.9984C47.9266 14.0018 47.9523 14.0023 47.974 14.0009C47.9961 13.9995 48.013 13.9961 48.0226 13.9923L48.0337 14.0202C48.0199 14.0257 47.9993 14.0294 47.9759 14.0309C47.9523 14.0324 47.9247 14.0318 47.8962 14.0282C47.8398 14.021 47.7774 14.0016 47.7364 13.9607C47.5613 13.7949 47.3956 13.7716 47.2905 13.8015C47.2374 13.8166 47.2005 13.8448 47.1838 13.8743C47.1755 13.8889 47.1723 13.9036 47.1739 13.9174ZM47.943 14.1615C47.8569 14.1434 47.7584 14.1524 47.6752 14.1709L47.6686 14.1416C47.7541 14.1226 47.8573 14.1128 47.9492 14.1322C48.0416 14.1516 48.1241 14.201 48.164 14.3007C48.1818 14.3453 48.203 14.3697 48.2256 14.3853C48.2474 14.4003 48.2712 14.4079 48.2987 14.4166C48.3006 14.4173 48.3026 14.4179 48.3046 14.4185C48.3341 14.428 48.3666 14.4391 48.3989 14.4629C48.4313 14.4868 48.4625 14.5228 48.4915 14.5807C48.5477 14.6883 48.6168 14.7983 48.6938 14.8606C48.7322 14.8916 48.7713 14.9099 48.8109 14.9113C48.8502 14.9128 48.8922 14.8978 48.9369 14.8576L48.9569 14.8799C48.9078 14.9241 48.8585 14.9431 48.8098 14.9413C48.7615 14.9395 48.7163 14.9174 48.675 14.8839C48.5927 14.8174 48.5212 14.7024 48.4649 14.5944L48.4647 14.5942C48.4375 14.5397 48.409 14.5077 48.3811 14.4871C48.353 14.4664 48.3246 14.4564 48.2955 14.4471C48.2932 14.4464 48.291 14.4457 48.2888 14.445C48.2621 14.4365 48.2342 14.4276 48.2086 14.41C48.1803 14.3905 48.1558 14.3609 48.1361 14.3118C48.101 14.224 48.0287 14.1796 47.943 14.1615ZM48.192 14.9212C48.1885 14.9785 48.1981 15.0321 48.2269 15.0651L48.2324 15.0714L48.23 15.0793C48.2157 15.1272 48.2115 15.1775 48.2177 15.2271C48.2239 15.2767 48.2404 15.3244 48.266 15.3673L48.2403 15.3827C48.2125 15.3362 48.1947 15.2845 48.1879 15.2308C48.1816 15.1797 48.1853 15.128 48.1991 15.0784C48.1667 15.0365 48.1586 14.9763 48.162 14.9194C48.1656 14.859 48.1825 14.7984 48.2022 14.7589L48.2291 14.7723C48.2113 14.8079 48.1954 14.8644 48.192 14.9212ZM46.7829 14.891L46.6892 14.8347L46.7046 14.809L46.7984 14.8653L46.7829 14.891ZM47.7878 14.9892C47.7763 14.967 47.7694 14.9446 47.7694 14.925H47.7994C47.7994 14.9381 47.8042 14.9556 47.8144 14.9754C47.8245 14.9949 47.8394 15.0157 47.8584 15.0352C47.8965 15.0744 47.9499 15.1076 48.0115 15.1164L48.0073 15.1461C47.9377 15.1361 47.8785 15.099 47.8369 15.0561C47.8161 15.0347 47.7994 15.0115 47.7878 14.9892ZM46.6792 15.0875L46.6329 15.0597L46.6484 15.034L46.6959 15.0625L46.6965 15.063C46.7303 15.0883 46.7827 15.0975 46.8188 15.0975V15.1275C46.78 15.1275 46.7204 15.118 46.6792 15.0875ZM48.6523 15.1337C48.6336 15.2461 48.6256 15.3337 48.6961 15.4219L48.6727 15.4406C48.5932 15.3413 48.604 15.2414 48.6227 15.1288L48.6523 15.1337ZM47.3345 15.5652C47.271 15.5992 47.1987 15.6379 47.0927 15.6524L47.0886 15.6226C47.1889 15.609 47.2571 15.5726 47.3203 15.5387L47.3226 15.5375C47.3847 15.5041 47.4436 15.4725 47.5219 15.4725V15.5025C47.4512 15.5025 47.3981 15.531 47.3345 15.5652Z" fill="black"/>
<path fill-rule="evenodd" clip-rule="evenodd" d="M47.956 13.7103C48.1403 13.7464 48.3112 13.8319 48.4507 13.9576L48.4306 13.9799C48.2952 13.8578 48.1292 13.7748 47.9503 13.7397L47.956 13.7103ZM47.9233 14.5122C47.8966 14.4587 47.8819 14.3978 47.8819 14.3437H47.9119C47.9119 14.3928 47.9253 14.4491 47.9502 14.4987C47.975 14.5485 48.0105 14.59 48.0536 14.6116L48.0581 14.6138L48.0603 14.6183C48.0871 14.6719 48.1857 14.8156 48.4019 14.7975L48.4044 14.8274C48.1762 14.8464 48.0682 14.698 48.0357 14.6361C47.9872 14.6103 47.9492 14.564 47.9233 14.5122ZM46.8883 18.1523C46.8127 17.6611 46.9261 17.3101 47.1161 17.0536L47.1402 17.0714C46.9553 17.3211 46.8436 17.6638 46.9179 18.1474C46.9648 18.3909 47.0213 18.6922 47.0224 18.9726C47.0236 19.2526 46.9697 19.516 46.7914 19.6798L46.7711 19.6577C46.9397 19.5028 46.9936 19.2505 46.9924 18.9727C46.9913 18.6954 46.9353 18.3968 46.8884 18.1528L46.8883 18.1523L46.8883 18.1523ZM48.1079 20.562C48.2538 20.5513 48.4055 20.5679 48.5289 20.6011L48.5211 20.6301C48.4008 20.5977 48.2525 20.5815 48.1101 20.5919C47.9674 20.6023 47.8324 20.6394 47.7372 20.7119L47.7371 20.712C47.6403 20.7846 47.5058 20.8227 47.369 20.8286C47.2322 20.8346 47.0912 20.8085 46.9806 20.7508L46.9945 20.7242C47.0995 20.779 47.2351 20.8044 47.3677 20.7987C47.5005 20.7929 47.6285 20.756 47.7191 20.688" fill="black"/>
<path fill-rule="evenodd" clip-rule="evenodd" d="M48.3793 20.7088C48.4276 20.8116 48.4557 20.9808 48.4557 21.2437H48.4257C48.4257 20.9817 48.3975 20.8181 48.3521 20.7216C48.3295 20.6737 48.3031 20.6431 48.2744 20.6249C48.2541 20.612 48.232 20.605 48.2084 20.6028C48.1986 20.6026 48.1885 20.6025 48.1782 20.6025L48.1772 20.5725C48.1883 20.5718 48.1992 20.5719 48.2099 20.5728C48.2502 20.5738 48.2891 20.5776 48.3259 20.5908C48.373 20.6077 48.4153 20.6396 48.4532 20.6977C48.5281 20.8123 48.5869 21.0314 48.6337 21.4483L48.6337 21.4487L48.6337 21.4487C48.6754 21.9213 48.7582 22.1549 48.8637 22.4527C48.9 22.5552 48.939 22.6654 48.98 22.7955L48.98 22.7957C49.1729 23.4353 49.2197 24.2458 49.2432 24.9827C49.2471 25.1064 49.2504 25.228 49.2536 25.3464C49.2599 25.5811 49.2659 25.8032 49.276 26.0042C49.2912 26.3067 49.3158 26.5595 49.3645 26.7335L49.3356 26.7415C49.2859 26.564 49.2612 26.3081 49.246 26.0057C49.2359 25.8044 49.2299 25.5817 49.2236 25.3467C49.2204 25.2284 49.2171 25.107 49.2132 24.9837C49.1897 24.2464 49.1429 23.4398 48.9513 22.8044C48.9109 22.6759 48.8722 22.5666 48.836 22.4644C48.7301 22.1656 48.6459 21.928 48.6039 21.4515C48.557 21.0342 48.4986 20.822 48.4281 20.7141C48.3935 20.661 48.3563 20.6337 48.3161 20.6192C48.34 20.6408 48.3612 20.6704 48.3793 20.7088ZM47.7513 20.7434C47.8041 20.6437 47.8858 20.5921 47.9975 20.5727L48.0026 20.6023C47.8987 20.6204 47.8257 20.6672 47.7778 20.7574C47.7291 20.849 47.7057 20.9866 47.7057 21.1875C47.7057 21.3159 47.6957 21.4645 47.6849 21.6259C47.6791 21.7126 47.6731 21.8031 47.6682 21.8961C47.6541 22.163 47.6495 22.4525 47.6868 22.7418L47.6571 22.7457C47.6194 22.4537 47.6241 22.162 47.6382 21.8945C47.6432 21.8003 47.6493 21.7093 47.6551 21.6224C47.6658 21.4617 47.6757 21.3149 47.6757 21.1875C47.6757 20.9853 47.6991 20.8416 47.7513 20.7434ZM47.577 20.7594C47.5888 20.7566 47.6006 20.7539 47.612 20.7511L47.6193 20.7802C47.6066 20.7834 47.5942 20.7862 47.582 20.789C47.5572 20.7947 47.5335 20.8001 47.5108 20.8076C47.4774 20.8184 47.4483 20.833 47.4248 20.857C47.3782 20.9047 47.3495 20.9948 47.3681 21.186L47.3383 21.189C47.3194 20.9958 47.3469 20.8937 47.4034 20.836C47.4315 20.8073 47.4656 20.7907 47.5015 20.779C47.5255 20.7712 47.5514 20.7652 47.577 20.7594ZM46.9575 20.8909C46.9179 20.9668 46.8947 21.0769 46.89 21.1881L46.8601 21.1869C46.8648 21.0731 46.8885 20.9582 46.9309 20.877C46.9521 20.8364 46.9786 20.8031 47.0109 20.7832C47.0437 20.7629 47.0816 20.757 47.1233 20.7701L47.1143 20.7987C47.081 20.7883 47.0521 20.793 47.0266 20.8087C47.0006 20.8248 46.9773 20.853 46.9575 20.8909ZM48.0891 26.0103C48.6488 24.5264 48.662 22.8917 48.1266 21.3988L48.1548 21.3887C48.692 22.8865 48.6794 24.5265 48.1192 26.0158C48.2999 26.5199 48.4805 26.968 48.6375 27.3574C48.6753 27.4512 48.7117 27.5415 48.7464 27.6284C48.9255 28.0768 49.0599 28.4347 49.1024 28.6945L49.0728 28.6993C49.0309 28.4434 48.898 28.0888 48.7185 27.6395C48.6839 27.5528 48.6475 27.4625 48.6097 27.3688C48.4522 26.9781 48.2706 26.5276 48.0891 26.0207L48.0872 26.0155L48.0891 26.0103ZM46.9908 22.4519C46.9813 22.582 46.9506 22.7471 46.899 22.9536L46.899 22.9537C46.7775 23.4257 46.7872 23.6672 46.8171 23.8237C46.8246 23.863 46.8335 23.8972 46.842 23.9286C46.8435 23.9342 46.845 23.9396 46.8464 23.945C46.8533 23.9702 46.8598 23.994 46.8648 24.0173C46.8772 24.0747 46.8809 24.13 46.8614 24.2009L46.8325 24.1929C46.8504 24.1278 46.8471 24.0776 46.8355 24.0237C46.8306 24.0012 46.8244 23.9783 46.8176 23.9532C46.8161 23.9477 46.8145 23.9422 46.813 23.9365C46.8044 23.9048 46.7954 23.8698 46.7877 23.8294C46.7567 23.6672 46.7477 23.4211 46.8699 22.9463C46.9214 22.7404 46.9516 22.5773 46.9609 22.4497C46.9702 22.3218 46.9583 22.2312 46.9273 22.1692L46.9541 22.1558C46.9887 22.225 47.0002 22.322 46.9908 22.4519Z" fill="black"/>
<path fill-rule="evenodd" clip-rule="evenodd" d="M46.9316 23.0979C46.91 22.9566 46.902 22.8277 46.9261 22.7217L46.9553 22.7283C46.9326 22.8286 46.9398 22.9528 46.9613 23.0933C46.9766 23.1939 46.9991 23.3016 47.0224 23.4138C47.0317 23.4584 47.0411 23.5036 47.0503 23.5494C47.1147 23.8702 47.1673 24.2161 47.0674 24.5111L47.039 24.5014C47.136 24.2151 47.0854 23.8767 47.0209 23.5553C47.0118 23.5101 47.0025 23.4651 46.9932 23.4208C46.9698 23.3082 46.9471 23.1993 46.9316 23.0979ZM46.5562 25.1505C46.5394 24.9632 46.5226 24.777 46.5226 24.6094H46.5526C46.5526 24.7755 46.5692 24.9603 46.5861 25.1479C46.5882 25.171 46.5903 25.1942 46.5924 25.2174C46.6111 25.4283 46.6276 25.6402 46.6182 25.8289L46.6182 25.8289C46.6038 26.1102 46.69 26.2716 46.8094 26.4952C46.843 26.5581 46.8793 26.6259 46.9166 26.7027C47.554 27.9587 47.9684 28.8525 47.9213 30.0381L47.9213 30.0387L47.9213 30.0387C47.9169 30.0909 47.9177 30.1556 47.9185 30.2266L47.9187 30.2398C47.9196 30.3156 47.9202 30.3976 47.9143 30.4769C47.9084 30.5561 47.8959 30.6333 47.8702 30.6995C47.8445 30.7657 47.8052 30.8217 47.7451 30.8567L47.73 30.8308C47.7825 30.8002 47.8182 30.7506 47.8423 30.6886C47.8664 30.6264 47.8785 30.5525 47.8843 30.4747C47.8901 30.3969 47.8896 30.316 47.8887 30.2401C47.8886 30.2355 47.8886 30.2309 47.8885 30.2264C47.8877 30.1561 47.8869 30.0902 47.8914 30.0366C47.938 28.8598 47.5273 27.9724 46.8898 26.7162L46.8897 26.7159C46.8535 26.6414 46.8179 26.5748 46.7845 26.5125C46.6641 26.2874 46.5733 26.1177 46.5882 25.8274C46.5882 25.8274 46.5882 25.8274 46.5882 25.8273L46.6032 25.8281L46.5882 25.8274C46.5882 25.8274 46.5882 25.8274 46.5882 25.8274C46.5975 25.641 46.5812 25.4311 46.5625 25.2201C46.5604 25.1969 46.5583 25.1737 46.5562 25.1505ZM47.0119 28.7801C47.0669 29.5083 46.9905 30.2405 46.7864 30.9417L46.7861 30.9427L46.7856 30.9436C46.7431 31.0381 46.7047 31.0964 46.6673 31.1313C46.6293 31.1668 46.5928 31.1775 46.5563 31.1775V31.1475C46.5855 31.1475 46.6146 31.1395 46.6469 31.1093C46.6798 31.0786 46.7161 31.0248 46.7579 30.9323C46.9608 30.2349 47.0367 29.5067 46.982 28.7824L47.0119 28.7801ZM46.9923 30.8383C47.1505 30.4289 47.1506 29.9254 47.1134 29.6835L47.143 29.679C47.1808 29.9245 47.1809 30.4336 47.0203 30.8491L46.9923 30.8383Z" fill="black"/>
<path fill-rule="evenodd" clip-rule="evenodd" d="M44.8597 13.9193L45.2816 13.6005L45.2997 13.6245L44.8778 13.9432L44.8597 13.9193ZM45.3841 13.6985C45.3938 13.6943 45.4036 13.6912 45.4125 13.6912V13.7212C45.4098 13.7212 45.4045 13.7223 45.3961 13.726C45.3879 13.7296 45.3778 13.7351 45.3657 13.7427C45.3414 13.7578 45.3102 13.7803 45.2716 13.8096C45.2379 13.8351 45.199 13.8655 45.1543 13.9002C45.1478 13.9053 45.1411 13.9105 45.1343 13.9158C45.0813 13.9571 45.0209 14.0041 44.9528 14.0557L44.9347 14.0318C45.0026 13.9803 45.0629 13.9335 45.1159 13.8922C45.1227 13.8869 45.1294 13.8817 45.1359 13.8766C45.1805 13.8418 45.2197 13.8113 45.2535 13.7857C45.2922 13.7564 45.3243 13.7332 45.3498 13.7172C45.3626 13.7093 45.374 13.7029 45.3841 13.6985ZM44.5957 13.9863L44.7457 13.8363L44.7669 13.8575L44.6169 14.0075L44.5957 13.9863ZM45.2366 13.9853C45.3041 13.9294 45.3669 13.8809 45.4163 13.8611L45.4275 13.8889C45.3832 13.9066 45.3241 13.9518 45.2557 14.0084C45.2376 14.0234 45.2188 14.0392 45.1997 14.0553C45.1476 14.0991 45.0923 14.1456 45.0371 14.187L45.0191 14.163C45.0736 14.1222 45.1279 14.0765 45.1798 14.0328C45.1991 14.0166 45.218 14.0006 45.2366 13.9853ZM43.8134 22.3871C43.8142 22.4288 43.815 22.4752 43.815 22.5281H43.785C43.785 22.4771 43.7842 22.4315 43.7834 22.39C43.782 22.3108 43.7808 22.2467 43.7863 22.1892C43.7947 22.0999 43.819 22.025 43.8812 21.9293L43.9063 21.9457C43.8467 22.0375 43.8241 22.1079 43.8161 22.192C43.8108 22.2479 43.812 22.3093 43.8134 22.3871ZM43.9881 22.4208C43.9868 22.451 43.9854 22.4838 43.9838 22.5194L43.9538 22.5181C43.9554 22.4829 43.9568 22.4504 43.9581 22.4203C43.9643 22.2748 43.9681 22.1854 43.981 22.122C43.9889 22.0831 44.0004 22.0531 44.0181 22.0255C44.0357 21.9981 44.0591 21.9736 44.0898 21.9452L44.1102 21.9673C44.08 21.9951 44.0589 22.0175 44.0434 22.0417C44.028 22.0656 44.0178 22.0919 44.0104 22.128C43.9981 22.1888 43.9943 22.2752 43.9881 22.4208ZM44.1744 22.3884C44.1736 22.4071 44.1728 22.4257 44.1712 22.445L44.1413 22.4425C44.1427 22.4255 44.1435 22.408 44.1443 22.3899C44.146 22.3506 44.1478 22.3083 44.1568 22.2627C44.1701 22.1949 44.1991 22.118 44.2659 22.0226L44.2904 22.0398C44.2259 22.132 44.1987 22.2051 44.1862 22.2685C44.1777 22.3119 44.1761 22.3502 44.1744 22.3884ZM48.6532 29.0685C48.4899 28.5825 48.3194 28.075 48.128 27.7768L48.1533 27.7606C48.3467 28.0621 48.5183 28.5727 48.6809 29.0567C48.6888 29.0801 48.6966 29.1035 48.7045 29.1269C48.7895 29.3795 48.8722 29.6219 48.9547 29.821C49.0376 30.0208 49.1192 30.1744 49.2009 30.2516L49.1803 30.2734C49.0934 30.1912 49.0097 30.0319 48.927 29.8324C48.844 29.6322 48.761 29.3889 48.676 29.1364C48.6684 29.1138 48.6608 29.0912 48.6532 29.0685ZM47.5355 30.2776C47.6192 29.9429 47.6194 29.467 47.5259 28.9433L47.5554 28.938C47.6494 29.4642 47.6496 29.9446 47.5646 30.2849L47.5355 30.2776ZM48.4754 29.7328C48.4908 29.8301 48.4931 29.9342 48.4931 30.0187H48.4631C48.4631 29.9345 48.4608 29.8324 48.4458 29.7375C48.4306 29.6421 48.4031 29.5568 48.3546 29.5039L48.3767 29.4836C48.4314 29.5432 48.46 29.636 48.4754 29.7328ZM47.323 30.4C47.3177 30.3551 47.313 30.315 47.3101 30.2826L47.34 30.2799C47.3428 30.311 47.3474 30.3502 47.3526 30.3946C47.3644 30.4953 47.3793 30.6223 47.3834 30.7389C47.3863 30.8231 47.3837 30.9034 47.37 30.966C47.3565 31.0275 47.3309 31.0782 47.2824 31.0925L47.2739 31.0637C47.3051 31.0546 47.3275 31.0198 47.3407 30.9596C47.3536 30.9007 47.3563 30.8234 47.3534 30.74C47.3494 30.6245 47.3348 30.5003 47.323 30.4ZM49.044 31.7673C49.0437 31.767 49.0427 31.7662 49.0406 31.7662V31.7962C49.0269 31.7962 49.0189 31.7857 49.0151 31.7765C49.0111 31.7668 49.0092 31.7541 49.0092 31.7391C49.0092 31.7087 49.0168 31.6649 49.0358 31.6078L49.0643 31.6172C49.0458 31.6726 49.0392 31.7131 49.0392 31.7391C49.0392 31.7522 49.0409 31.7605 49.0428 31.7649C49.0438 31.7675 49.0444 31.7677 49.044 31.7673ZM48.8834 31.7901C48.8845 31.8204 48.8951 31.837 48.9067 31.8428L48.8933 31.8697C48.8674 31.8567 48.8546 31.8264 48.8534 31.7912C48.8521 31.7552 48.8623 31.7105 48.8866 31.662L48.9134 31.6755C48.8908 31.7207 48.8823 31.7604 48.8834 31.7901ZM48.7213 31.8825C48.7227 31.8991 48.7269 31.9069 48.7309 31.9099L48.7129 31.9339C48.6981 31.9228 48.693 31.9036 48.6914 31.885C48.6898 31.8657 48.6918 31.8427 48.6953 31.8189C48.7006 31.7837 48.7098 31.7445 48.718 31.7098C48.7208 31.6975 48.7236 31.6857 48.726 31.6749L48.7553 31.6814C48.7527 31.6929 48.7499 31.7052 48.7469 31.7178C48.7388 31.7522 48.7301 31.7895 48.725 31.8233C48.7216 31.8464 48.72 31.8667 48.7213 31.8825ZM48.5254 31.9569C48.526 31.9578 48.5263 31.9582 48.5263 31.9581L48.505 31.9794C48.5005 31.9748 48.4975 31.9688 48.4954 31.9629C48.4933 31.9569 48.4917 31.9499 48.4907 31.9422C48.4886 31.9269 48.4883 31.9079 48.4902 31.8866C48.4938 31.844 48.5059 31.7907 48.5301 31.7375L48.5574 31.75C48.5347 31.7999 48.5234 31.8498 48.52 31.8892C48.5184 31.9089 48.5187 31.9256 48.5204 31.9381C48.5213 31.9444 48.5224 31.9493 48.5237 31.9529C48.5243 31.9547 48.5249 31.956 48.5254 31.9569Z" fill="black"/>
<path d="M46.9219 14.3156C46.9969 14.4094 47.0813 14.4094 47.0906 14.4656C47.1094 14.5406 47.1188 14.5406 47.1281 14.5594C47.1469 14.5781 47.0906 14.5781 47.0719 14.5594H46.9406C46.9031 14.5594 46.8656 14.5125 46.8844 14.5125C46.9125 14.5031 46.9125 14.4937 46.9031 14.475C46.9031 14.4469 46.9219 14.4187 46.9406 14.4094L46.9313 14.3812C46.9125 14.3531 46.9031 14.2875 46.9219 14.3062V14.3156ZM46.9688 14.2125C47.0876 14.2295 47.1987 14.2817 47.2875 14.3625C47.3531 14.4375 47.2969 14.4187 47.2688 14.4187C47.2406 14.4187 47.175 14.4 47.1375 14.3625C47.0883 14.3108 47.0271 14.2722 46.9594 14.25C46.9313 14.25 46.9031 14.2125 46.9594 14.2125H46.9688Z" fill="black"/>
<path d="M0 0H30V22.5H0V0Z" fill="#012169"/>
<path d="M3.51562 0L14.9531 8.48438L26.3438 0H30V2.90625L18.75 11.2969L30 19.6406V22.5H26.25L15 14.1094L3.79688 22.5H0V19.6875L11.2031 11.3438L0 3V0H3.51562Z" fill="#F0F0F0"/>
<path d="M19.875 13.1719L30 20.625V22.5L17.2969 13.1719H19.875ZM11.25 14.1094L11.5312 15.75L2.53125 22.5H0L11.25 14.1094ZM30 0V0.140625L18.3281 8.95312L18.4219 6.89062L27.6562 0H30ZM0 0L11.2031 8.25H8.39062L0 1.96875V0Z" fill="#C8102E"/>
<path d="M11.2969 0V22.5H18.7969V0H11.2969ZM0 7.5V15H30V7.5H0Z" fill="#F0F0F0"/>
<path d="M0 9.04688V13.5469H30V9.04688H0ZM12.7969 0V22.5H17.2969V0H12.7969Z" fill="#C8102E"/>
</g>
<defs>
<clipPath id="clip0_264_20496">
<rect width="60" height="45" fill="white"/>
</clipPath>
</defs>
</svg>
