<svg width="60" height="45" viewBox="0 0 60 45" fill="none" xmlns="http://www.w3.org/2000/svg">
<g clip-path="url(#clip0_264_21065)">
<path fill-rule="evenodd" clip-rule="evenodd" d="M0 0H60V45H0V0Z" fill="#F0F0F0"/>
<path fill-rule="evenodd" clip-rule="evenodd" d="M-2.47501 0.01875L-2.40001 32.4187L48.0469 0L-2.47501 0.01875Z" fill="#3662A2"/>
<path fill-rule="evenodd" clip-rule="evenodd" d="M62.475 44.9625L62.3437 11.2781L11.4656 44.9813L62.4656 44.9625H62.475Z" fill="#38A100"/>
<path fill-rule="evenodd" clip-rule="evenodd" d="M-2.4375 34.8563L-2.4 45L8.61563 44.9906L62.3813 8.94375L62.3156 0.121872L51.4406 0.0281219L-2.4375 34.8469V34.8563Z" fill="#C70000"/>
<path fill-rule="evenodd" clip-rule="evenodd" d="M20.5875 16.125L18.5437 14.8875L17.3625 16.9594L16.2187 14.8781L14.1562 16.0875L14.2125 13.7062L11.8312 13.725L13.0687 11.6812L10.9969 10.5094L13.0781 9.35625L11.8781 7.29375L14.2594 7.35L14.25 4.95938L16.2844 6.19687L17.4656 4.125L18.6094 6.20625L20.6719 4.99687L20.6156 7.37812L22.9969 7.35938L21.7594 9.40313L23.8312 10.575L21.75 11.7281L22.95 13.7906L20.5687 13.7344L20.5875 16.125Z" fill="#FFE700"/>
<path fill-rule="evenodd" clip-rule="evenodd" d="M21.7875 10.5375C21.7875 12.9375 19.8281 14.8781 17.4187 14.8781C15.0094 14.8781 13.05 12.9375 13.05 10.5375C13.05 8.1375 15 6.20625 17.4187 6.20625C19.8375 6.20625 21.7875 8.14688 21.7875 10.5375Z" fill="#3662A2"/>
<path fill-rule="evenodd" clip-rule="evenodd" d="M20.8406 10.5375C20.8406 11.445 20.4801 12.3154 19.8384 12.9571C19.1966 13.5989 18.3263 13.9594 17.4187 13.9594C16.5112 13.9594 15.6408 13.5989 14.9991 12.9571C14.3574 12.3154 13.9969 11.445 13.9969 10.5375C13.9969 9.62996 14.3574 8.75959 14.9991 8.11787C15.6408 7.47614 16.5112 7.11562 17.4187 7.11562C18.3263 7.11562 19.1966 7.47614 19.8384 8.11787C20.4801 8.75959 20.8406 9.62996 20.8406 10.5375Z" fill="#FFE700"/>
</g>
<defs>
<clipPath id="clip0_264_21065">
<rect width="60" height="45" fill="white"/>
</clipPath>
</defs>
</svg>
