<svg width="60" height="45" viewBox="0 0 60 45" fill="none" xmlns="http://www.w3.org/2000/svg">
<g clip-path="url(#clip0_264_21189)">
<path d="M0 0H60V45H0V0Z" fill="#FEDD00"/>
<path d="M0 0H30V22.5H0V0Z" fill="#012169"/>
<path d="M3.51562 0L14.9531 8.48438L26.3438 0H30V2.90625L18.75 11.2969L30 19.6406V22.5H26.25L15 14.1094L3.79688 22.5H0V19.6875L11.2031 11.3438L0 3V0H3.51562Z" fill="#F0F0F0"/>
<path d="M19.875 13.1719L30 20.625V22.5L17.2969 13.1719H19.875ZM11.25 14.1094L11.5312 15.75L2.53125 22.5H0L11.25 14.1094ZM30 0V0.140625L18.3281 8.95312L18.4219 6.89062L27.6562 0H30ZM0 0L11.2031 8.25H8.39062L0 1.96875V0Z" fill="#C8102E"/>
<path d="M11.2969 0V22.5H18.7969V0H11.2969ZM0 7.5V15H30V7.5H0Z" fill="#F0F0F0"/>
<path d="M0 9.04688V13.5469H30V9.04688H0ZM12.7969 0V22.5H17.2969V0H12.7969Z" fill="#C8102E"/>
<path d="M15 15.075C17.1125 15.075 18.825 13.3625 18.825 11.25C18.825 9.13751 17.1125 7.425 15 7.425C12.8876 7.425 11.175 9.13751 11.175 11.25C11.175 13.3625 12.8876 15.075 15 15.075Z" fill="#012169"/>
<path d="M15 7.425L17.25 14.3437L11.3625 10.0687H18.6375L12.75 14.3437M6.2531 9.21562L7.5656 13.2844L4.1156 10.7812H8.39997L4.93123 13.2937M23.7468 9.21562L25.0687 13.2844L21.6094 10.7719H25.8937L22.425 13.2844M15 16.7156L16.3219 20.7844L12.8531 18.2719H17.1375L13.6687 20.7844M15 1.71562L16.3219 5.78437L12.8531 3.27187H17.1375L13.6687 5.78437" fill="#FEDD00"/>
</g>
<defs>
<clipPath id="clip0_264_21189">
<rect width="60" height="45" fill="white"/>
</clipPath>
</defs>
</svg>
