<svg width="60" height="45" viewBox="0 0 60 45" fill="none" xmlns="http://www.w3.org/2000/svg">
<g clip-path="url(#clip0_264_21784)">
<path fill-rule="evenodd" clip-rule="evenodd" d="M0.149994 0L0.103119 45H60.1031L0.149994 0Z" fill="black"/>
<path fill-rule="evenodd" clip-rule="evenodd" d="M60.0562 45L60.1031 0H0.103119L60.0562 45Z" fill="#FF0000"/>
<path d="M37.1475 11.1979L36.3567 11.1565C36.107 10.5758 35.4202 10.3685 34.9831 10.6173C34.1783 10.6175 33.3734 10.6036 32.569 10.5758L34.0466 11.2187C34.442 12.2348 35.6907 12.4422 35.6907 12.4422C35.5659 14.267 33.8385 12.2141 32.3817 13.2509C31.3411 13.873 31.3411 14.5988 30.7792 15.8015C30.5919 16.1333 29.8635 17.0043 29.8635 17.0043L31.0914 16.9006L30.696 17.419L32.1528 17.2117L31.8406 17.502C32.0487 17.5435 33.5055 17.1494 33.5055 17.1494L33.4015 17.6264L35.0664 17.025C35.0664 17.025 35.3994 17.2946 35.6907 17.419L35.8989 16.5896L36.7313 16.7969L36.9394 15.9674C38.1881 17.6264 38.6043 19.2854 40.8936 19.7001L40.6855 18.8706C41.294 19.1361 41.8977 19.4126 42.4961 19.7001L42.6834 19.3476C43.6823 20.0526 44.494 20.0319 45.0559 20.1148L44.6397 19.078L45.0559 19.2854L44.4316 17.6264L45.0559 17.8338L44.2234 16.5896L44.5356 16.3822L44.4316 15.7601C45.6802 16.1748 47.3452 16.7969 47.5533 18.2485C47.7614 20.5296 45.264 21.1517 43.5991 20.9443C44.8478 21.9812 47.137 21.5664 48.1776 20.5296C48.5938 20.1148 48.802 19.4927 49.0101 18.8706C49.2182 19.4927 49.6344 20.3222 49.6344 21.1517C49.4263 23.018 46.9289 23.6401 45.264 23.8475C47.137 24.8843 50.4669 23.6401 50.675 20.9443C50.675 18.6632 49.2182 17.6264 48.5938 16.5896L48.3857 15.4698L49.0101 15.7601C49.0101 15.7601 48.6355 15.0758 48.5938 14.9306C48.5938 14.9306 47.9487 13.168 47.7198 12.774L48.1776 12.8569L46.4711 10.721L46.9497 10.6795C46.9497 10.6795 44.9726 9.12425 44.4316 8.91688L45.0559 8.70951C43.8072 8.08741 42.3504 8.50214 41.1017 9.33162L41.3098 8.70951L40.9352 8.75099V8.02519L41.3098 7.4653L40.6855 7.25793L41.1017 6.22108L40.4774 6.42845L40.6855 5.3916C40.6855 5.3916 40.2276 5.59897 39.9363 5.57824C40.0558 5.34732 40.1669 5.11214 40.2693 4.87318C40.0611 4.56213 40.2693 3.94002 40.2693 3.94002C38.8125 4.14739 38.6043 4.35476 37.7719 5.59897C36.5232 7.88004 36.9394 8.91688 37.1475 11.1979Z" fill="#FFCC00"/>
<path fill-rule="evenodd" clip-rule="evenodd" d="M40.1136 4.07854C39.4937 4.17411 39.1397 4.27581 38.8513 4.47473C38.5351 4.69286 38.287 5.03463 37.8697 5.65828C37.2543 6.78357 37.0529 7.59455 37.0276 8.40204C37.0103 8.95227 37.074 9.49778 37.1495 10.1458C37.1866 10.4641 37.2266 10.8071 37.2613 11.1876L37.2733 11.319L36.2798 11.2669L36.2517 11.2016C36.0267 10.6785 35.4128 10.5042 35.0397 10.7166L35.0134 10.7316L34.9832 10.7316C34.3751 10.7317 33.7671 10.7238 33.1592 10.708L34.1358 11.1329L34.1531 11.1772C34.3365 11.6484 34.7196 11.9369 35.0676 12.1091C35.2409 12.1947 35.4026 12.2501 35.5209 12.284C35.58 12.301 35.6279 12.3125 35.6608 12.3197C35.6772 12.3233 35.6898 12.3258 35.6981 12.3274C35.7005 12.3278 35.7025 12.3282 35.7042 12.3285C35.7054 12.3287 35.7064 12.3289 35.7072 12.3291L35.7092 12.3294L35.7094 12.3294L35.7095 12.3295C35.7096 12.3295 35.7096 12.3295 35.7095 12.3295L35.8118 12.3464L35.8047 12.45C35.7726 12.9189 35.6339 13.1932 35.3681 13.2988C35.243 13.3484 35.1035 13.3541 34.9619 13.3403C34.82 13.3265 34.666 13.2919 34.5083 13.253C34.4659 13.2425 34.4232 13.2317 34.3801 13.2209C33.7663 13.0662 33.081 12.8934 32.448 13.344L32.4442 13.3466L32.4403 13.349C31.9412 13.6474 31.6954 13.9666 31.5036 14.3587C31.4093 14.5514 31.3283 14.7614 31.2365 14.9995L31.2269 15.0242C31.1316 15.2712 31.025 15.5453 30.8827 15.8499L30.8809 15.8539L30.8787 15.8577C30.7798 16.033 30.5446 16.3411 30.3407 16.5983C30.2621 16.6974 30.187 16.7904 30.1241 16.8676L31.3385 16.7651L30.9559 17.2666L32.4974 17.0472L32.1701 17.3516C32.3327 17.321 32.5311 17.2764 32.7245 17.2301C32.9187 17.1837 33.1065 17.1359 33.2459 17.0998C33.3156 17.0817 33.3731 17.0665 33.4132 17.0559C33.4332 17.0505 33.4489 17.0464 33.4595 17.0435L33.4756 17.0392C33.4757 17.0392 33.4757 17.0392 33.5055 17.1494L33.4756 17.0392L33.6572 16.99L33.5572 17.4487L35.0882 16.8957L35.1383 16.9362L35.1384 16.9363L35.139 16.9368L35.1415 16.9388C35.1438 16.9407 35.1473 16.9434 35.1519 16.9471C35.1612 16.9543 35.1748 16.965 35.1922 16.9782C35.2269 17.0046 35.2762 17.0411 35.3344 17.0815C35.4174 17.139 35.5159 17.2024 35.6141 17.255L35.8158 16.4511L36.6482 16.6585L36.8868 15.7076L37.0307 15.8987C37.3311 16.2979 37.5837 16.6967 37.8229 17.0746C37.8348 17.0934 37.8467 17.1123 37.8586 17.1311C38.1095 17.527 38.3467 17.8974 38.6151 18.2284C39.1186 18.8496 39.7308 19.3318 40.7388 19.5527L40.5181 18.6729L40.7312 18.7659C41.3075 19.0173 41.8794 19.2786 42.4466 19.5497L42.6433 19.1794L42.7493 19.2542C43.5657 19.8304 44.2451 19.9062 44.7824 19.9661C44.8146 19.9697 44.8462 19.9732 44.8774 19.9768L44.4217 18.8417L44.8465 19.0534L44.2402 17.4425L44.7756 17.6203L44.0647 16.5578L44.4107 16.328L44.2876 15.5919L44.4676 15.6516C45.0916 15.8589 45.8329 16.122 46.4449 16.5197C47.0582 16.9182 47.5559 17.4615 47.6664 18.2323L47.6668 18.2352L47.6671 18.2381C47.7211 18.8307 47.5996 19.3223 47.3547 19.721C47.1105 20.1186 46.7481 20.4166 46.3308 20.6312C45.636 20.9885 44.7786 21.1202 44.0202 21.0923C44.5738 21.396 45.2666 21.484 45.9527 21.4011C46.7917 21.2998 47.5985 20.9453 48.097 20.4486C48.4903 20.0567 48.6913 19.4635 48.9017 18.8344L49.0101 18.5105L49.1184 18.8344C49.1668 18.9788 49.2267 19.1351 49.2911 19.3032L49.3021 19.332C49.3704 19.5101 49.4427 19.7001 49.5086 19.8971C49.6402 20.2906 49.7487 20.7189 49.7487 21.1517V21.158L49.748 21.1643C49.6376 22.1541 48.9196 22.8022 48.0452 23.2246C47.301 23.5841 46.4266 23.7892 45.6668 23.9067C46.5242 24.2258 47.6086 24.1367 48.5449 23.6924C49.6085 23.1877 50.459 22.2354 50.5607 20.9399C50.5598 19.8291 50.2057 19.0224 49.773 18.363C49.5576 18.0347 49.3229 17.7433 49.1001 17.4665L49.0934 17.4583C48.8702 17.1811 48.6568 16.9156 48.496 16.6485L48.4853 16.6308L48.2329 15.2727L48.7474 15.5119C48.7371 15.4925 48.7267 15.4727 48.7163 15.4527C48.6666 15.3576 48.6153 15.2573 48.5736 15.1713C48.5349 15.0914 48.4998 15.0145 48.4853 14.9665L48.4793 14.9501C48.4745 14.9372 48.4675 14.9181 48.4585 14.8937C48.4404 14.8448 48.4144 14.7746 48.3824 14.689C48.3185 14.5179 48.2308 14.2857 48.1361 14.0413C47.9447 13.5475 47.7298 13.0187 47.621 12.8314L47.4967 12.6174L47.8981 12.6902L46.2486 10.6256L46.6496 10.5908C46.6226 10.5699 46.5935 10.5476 46.5627 10.5238C46.3693 10.3751 46.1059 10.1747 45.8257 9.9679C45.5454 9.76098 45.2491 9.5483 44.9897 9.37474C44.7267 9.19873 44.512 9.0701 44.3907 9.02357L44.0922 8.9092L44.7358 8.69542C43.6024 8.2769 42.3086 8.66707 41.1649 9.4268L40.8878 9.61088L41.1448 8.84274L40.821 8.87859V7.9905L41.1314 7.52644L40.5342 7.32808L40.9039 6.40718L40.3266 6.59892L40.5321 5.57518C40.508 5.58378 40.4823 5.59258 40.4556 5.60131C40.3033 5.65103 40.0977 5.70427 39.9282 5.69221L39.755 5.67988L39.8348 5.52571C39.9443 5.3142 40.0466 5.09908 40.1416 4.88072C40.0979 4.79479 40.0765 4.69925 40.0677 4.60702C40.0569 4.49344 40.0643 4.37724 40.078 4.2748C40.0877 4.20225 40.1008 4.13507 40.1136 4.07854ZM40.6384 5.28751L40.8414 5.19557L40.6281 6.25798L41.2995 6.03498L40.8368 7.18778L41.4882 7.40415L41.0495 8.05989V8.62338L41.4749 8.57628L41.3119 9.06349C42.5139 8.34088 43.8967 8.00432 45.1068 8.60725L45.3546 8.73069L44.7277 8.9389C44.8439 9.00621 44.9768 9.09111 45.1168 9.18482C45.3804 9.36119 45.6798 9.57621 45.9614 9.78404C46.2431 9.99199 46.5078 10.1934 46.702 10.3427C46.7991 10.4174 46.8787 10.4791 46.9339 10.5222C46.9616 10.5437 46.9832 10.5605 46.9978 10.572L47.0203 10.5896L47.0203 10.5897C47.0204 10.5897 47.0204 10.5897 46.9497 10.6795L47.0203 10.5897L47.2475 10.7684L46.6936 10.8164L48.4571 13.0237L47.9246 12.9272C48.0467 13.1917 48.2075 13.5932 48.3492 13.9587C48.4444 14.2042 48.5323 14.4373 48.5965 14.609C48.6286 14.6949 48.6547 14.7654 48.6729 14.8145C48.6819 14.839 48.689 14.8582 48.6938 14.8713L48.7011 14.8912C48.7011 14.8913 48.7011 14.8913 48.5938 14.9306L48.7011 14.8913L48.7025 14.8952L48.7037 14.8991C48.7108 14.9241 48.7372 14.9849 48.7793 15.0716C48.8195 15.1547 48.8696 15.2527 48.9188 15.3469C48.968 15.4409 49.0159 15.5305 49.0515 15.5967C49.0693 15.6298 49.084 15.6569 49.0943 15.6758L49.1062 15.6976L49.11 15.7047L49.1102 15.7051L49.1103 15.7052L49.2773 16.0104L48.5386 15.6668L48.7024 16.5481C48.8525 16.7937 49.0511 17.0414 49.2714 17.315L49.2806 17.3263C49.5019 17.6013 49.7425 17.9 49.9641 18.2377C50.4153 18.9254 50.7892 19.7763 50.7892 20.9443V20.9487L50.7889 20.9531C50.681 22.3511 49.7632 23.3673 48.6428 23.8989C47.5257 24.4289 46.185 24.4879 45.2087 23.9474L44.9016 23.7775L45.2499 23.7341C46.0777 23.631 47.1039 23.4255 47.9458 23.0188C48.7864 22.6127 49.4201 22.0185 49.5201 21.1453C49.5191 20.7507 49.4198 20.3518 49.2919 19.9696C49.2278 19.7778 49.1571 19.592 49.0887 19.4137L49.077 19.3832C49.0555 19.327 49.0342 19.2715 49.0135 19.2169C48.8345 19.7334 48.624 20.2461 48.2583 20.6105C47.7161 21.1507 46.858 21.522 45.9801 21.628C45.1023 21.734 44.1825 21.5772 43.5261 21.0322L43.2255 20.7826L43.6132 20.8309C44.4291 20.9325 45.4452 20.8296 46.2263 20.428C46.6155 20.2278 46.9424 19.9556 47.16 19.6014C47.3765 19.249 47.4891 18.8084 47.4397 18.2618C47.3413 17.5826 46.9028 17.0898 46.3204 16.7113C45.7912 16.3674 45.1548 16.1256 44.5756 15.9289L44.6605 16.4364L44.3821 16.6213L45.3362 18.0473L44.6229 17.8103L45.2653 19.5173L44.8576 19.3142L45.2361 20.2569L45.0392 20.2279C44.9542 20.2153 44.8621 20.2052 44.7633 20.1943C44.2461 20.1372 43.5459 20.06 42.7243 19.5141L42.5455 19.8506L42.4466 19.8031C41.9194 19.5498 41.3881 19.3051 40.853 19.0689L41.0475 19.8441L40.8732 19.8125C39.6974 19.5995 38.9981 19.0638 38.4375 18.3723C38.1596 18.0294 37.9156 17.648 37.6656 17.2534C37.6541 17.2352 37.6425 17.217 37.631 17.1987C37.4307 16.8824 37.2249 16.5573 36.9911 16.2309L36.8144 16.9354L35.9819 16.728L35.769 17.5767L35.6459 17.5241C35.4895 17.4573 35.3259 17.3536 35.2042 17.2693C35.1427 17.2266 35.0906 17.188 35.0538 17.16C35.051 17.1579 35.0484 17.1559 35.0458 17.1539L33.2457 17.8041L33.354 17.3078C33.338 17.312 33.3211 17.3164 33.3034 17.321C33.1631 17.3574 32.9737 17.4055 32.7777 17.4524C32.5819 17.4992 32.3782 17.5451 32.2096 17.5767C32.1255 17.5925 32.0485 17.605 31.9848 17.6123C31.9262 17.6189 31.864 17.6231 31.8183 17.614L31.5993 17.5704L31.8082 17.3761L30.436 17.5714L30.8443 17.0361L29.6001 17.1412L29.7759 16.931L29.776 16.9309L29.784 16.9213C29.7893 16.9149 29.7971 16.9055 29.8072 16.8933C29.8274 16.869 29.8564 16.8338 29.8919 16.7906C29.9629 16.7041 30.0593 16.5853 30.1616 16.4564C30.367 16.1973 30.5878 15.9065 30.6776 15.7491C30.8153 15.4539 30.9189 15.1876 31.0137 14.9419L31.0249 14.9131C31.1154 14.6785 31.1996 14.4602 31.2983 14.2583C31.5067 13.8323 31.7803 13.4782 32.3192 13.1552C33.041 12.644 33.827 12.8441 34.4261 12.9966C34.4729 13.0085 34.5186 13.0201 34.5631 13.0311C34.7202 13.0699 34.8601 13.1008 34.9841 13.1129C35.1083 13.125 35.2065 13.1171 35.2837 13.0864C35.4116 13.0356 35.527 12.9012 35.568 12.5328C35.537 12.5253 35.5 12.5158 35.458 12.5037C35.3298 12.467 35.1547 12.407 34.9663 12.3139C34.6015 12.1335 34.1764 11.8228 33.9583 11.3048L32.5234 10.6806L32.573 10.4616C33.3664 10.4891 34.1602 10.5029 34.954 10.5031C35.4371 10.2509 36.14 10.4681 36.4312 11.046L37.0214 11.0769C36.9911 10.7629 36.957 10.4703 36.9247 10.1932C36.848 9.53399 36.7814 8.96204 36.7992 8.39488C36.8259 7.54448 37.0402 6.69757 37.6717 5.54411L37.6741 5.53966L37.6769 5.53544C38.0903 4.91756 38.3621 4.53458 38.7216 4.28663C39.0839 4.03664 39.5246 3.93061 40.2532 3.8269L40.4363 3.80083L40.3776 3.97619L40.3776 3.97633L40.3773 3.97728L40.3758 3.98171C40.3746 3.98578 40.3726 3.99201 40.3702 4.00018C40.3653 4.01654 40.3584 4.04059 40.3506 4.07056C40.3352 4.13069 40.3167 4.21358 40.3045 4.30511C40.2922 4.39707 40.2865 4.49472 40.2952 4.58528C40.3039 4.67658 40.3265 4.7532 40.3642 4.80964L40.3987 4.86118L40.3743 4.91818C40.2973 5.09779 40.2155 5.27527 40.1289 5.45045C40.2126 5.43559 40.3017 5.41118 40.3847 5.38408C40.4571 5.36044 40.521 5.33611 40.5667 5.31769C40.5895 5.3085 40.6077 5.30083 40.6201 5.29551C40.6263 5.29286 40.631 5.29079 40.6341 5.28942L40.6375 5.28791L40.6382 5.28757L40.6384 5.28751Z" fill="#FFCC00"/>
<path fill-rule="evenodd" clip-rule="evenodd" d="M45.0143 14.5988C45.1183 14.7854 46.3046 15.3453 47.1787 15.843C46.9497 14.8891 45.2224 14.6818 45.0143 14.5988Z" fill="#FF0000"/>
<path fill-rule="evenodd" clip-rule="evenodd" d="M44.688 14.3122L45.0681 14.4637C45.0813 14.469 45.1183 14.4788 45.1901 14.4952C45.2117 14.5002 45.2358 14.5056 45.2619 14.5114C45.3148 14.5233 45.376 14.5371 45.4415 14.5525C45.6387 14.5991 45.888 14.6643 46.1395 14.7581C46.3901 14.8515 46.6493 14.9758 46.8629 15.1434C47.0773 15.3116 47.2529 15.5293 47.3201 15.8091L47.3984 16.1355L47.1067 15.9694C46.811 15.801 46.4808 15.6263 46.1669 15.4601C46.0188 15.3817 45.8743 15.3053 45.7388 15.2323C45.5291 15.1194 45.3404 15.0146 45.1968 14.9255C45.1252 14.8811 45.0621 14.839 45.0123 14.8004C44.9676 14.7659 44.916 14.7212 44.8873 14.6696L44.688 14.3122ZM45.8673 14.9712C45.8704 14.9729 45.8735 14.9745 45.8766 14.9762C46.0083 15.0471 46.1506 15.1224 46.2975 15.2002C46.4567 15.2844 46.6213 15.3716 46.7838 15.4591C46.7526 15.4292 46.7191 15.4002 46.6834 15.3723C46.5023 15.2302 46.2737 15.1185 46.0378 15.0306C45.9808 15.0093 45.9237 14.9895 45.8673 14.9712Z" fill="#FF0000"/>
<path fill-rule="evenodd" clip-rule="evenodd" d="M16.4062 37.4062L15.075 36.5625L13.2937 37.4156L13.6969 35.8969L12.3375 34.4812L13.9031 34.3875L14.8406 32.6625L15.4125 34.1156L17.3531 34.4719L16.1344 35.4656L16.4062 37.4062ZM19.8 30L19.1812 29.7188L18.5906 30.0563L18.6844 29.3813L18.1781 28.9219L18.8437 28.8L19.125 28.1813L19.4531 28.7812L20.1281 28.8562L19.6594 29.3438L19.8 30ZM22.8 25.7625L21.4406 25.1062L20.1375 25.8375L20.3531 24.3656L19.2469 23.3531L20.7187 23.0906L21.3375 21.7406L22.05 23.0531L23.5312 23.2219L22.5 24.3L22.8 25.7625ZM16.6312 19.8563L15.0375 19.0594L13.4906 19.9125L13.7531 18.1688L12.4594 16.95L14.2125 16.6688L14.9625 15.075L15.7781 16.6406L17.5406 16.8563L16.2937 18.1125L16.6312 19.8563ZM10.9312 25.9875L9.3375 25.05L7.74375 26.0156L8.14687 24.2063L6.73125 22.9875L8.57812 22.8187L9.3 21.1031L10.0406 22.8094L11.8969 22.9594L10.5 24.1781L10.9312 25.9875Z" fill="#F0F0F0"/>
</g>
<defs>
<clipPath id="clip0_264_21784">
<rect width="60" height="45" fill="white"/>
</clipPath>
</defs>
</svg>
