<svg width="60" height="45" viewBox="0 0 60 45" fill="none" xmlns="http://www.w3.org/2000/svg">
<g clip-path="url(#clip0_264_23534)">
<path fill-rule="evenodd" clip-rule="evenodd" d="M0 0H67.5V22.5H29.9971L0 0Z" fill="#ED2939"/>
<path fill-rule="evenodd" clip-rule="evenodd" d="M0 45H67.5V22.5H29.9971L0 45Z" fill="#002395"/>
<path fill-rule="evenodd" clip-rule="evenodd" d="M0 0L29.9971 22.5L0 45V0Z" fill="#F0F0F0"/>
<path d="M15.1436 16.9805L15.1523 16.6289C15.1523 16.6289 14.9678 16.3301 15.1875 16.0137C15.1875 16.0137 14.7217 15.7676 14.8359 15.3809C14.8359 15.3809 14.4141 15.2754 14.4404 14.8184C14.4404 14.8184 14.001 14.792 13.9482 14.4053C13.9482 14.4053 13.5 14.4756 13.2979 14.1064C13.2979 14.1064 12.8584 14.1943 12.7354 13.8867C12.7354 13.8867 12.3047 14.0273 12.0586 13.667C12.0586 13.667 11.6016 13.8516 11.417 13.5088C11.2324 13.8516 10.7754 13.667 10.7754 13.667C10.5293 14.0273 10.0986 13.8779 10.0986 13.8779C9.97559 14.1855 9.54492 14.0977 9.54492 14.0977C9.34277 14.4756 8.89453 14.3965 8.89453 14.3965C8.85059 14.7832 8.40234 14.8184 8.40234 14.8184C8.41503 14.9427 8.38311 15.0676 8.31228 15.1706C8.24144 15.2737 8.1363 15.3482 8.01562 15.3809C8.12988 15.7588 7.66406 16.0049 7.66406 16.0049C7.89258 16.3301 7.70801 16.6201 7.70801 16.6201L7.69922 16.9453L15.1436 16.9805Z" fill="#FFFF00"/>
<path fill-rule="evenodd" clip-rule="evenodd" d="M11.4266 13.4817L11.4396 13.5062C11.5266 13.6704 11.6784 13.7096 11.8114 13.7072C11.8779 13.7059 11.939 13.6942 11.9836 13.6828C12.0059 13.6771 12.0239 13.6714 12.0364 13.6672C12.0426 13.6651 12.0474 13.6634 12.0506 13.6622C12.0523 13.6616 12.0535 13.6612 12.0543 13.6608L12.0552 13.6605L12.0554 13.6604L12.0666 13.6559L12.0734 13.6658C12.196 13.8423 12.3624 13.8937 12.4989 13.9011C12.5673 13.9048 12.628 13.8974 12.6717 13.8891C12.6935 13.8849 12.711 13.8805 12.723 13.8772C12.729 13.8755 12.7336 13.8741 12.7367 13.8732C12.7375 13.8729 12.7382 13.8727 12.7388 13.8725C12.7393 13.8723 12.7398 13.8722 12.7402 13.8721L12.741 13.8718L12.7412 13.8717M10.787 13.6604L10.7873 13.6605L10.7881 13.6608C10.7889 13.6612 10.7902 13.6616 10.7918 13.6622C10.795 13.6634 10.7998 13.6651 10.8061 13.6672C10.8185 13.6714 10.8366 13.6771 10.859 13.6828C10.9037 13.6942 10.9652 13.7059 11.0323 13.7072C11.1665 13.7096 11.3211 13.6704 11.4131 13.5059L11.4266 13.4817" fill="black"/>
<path d="M14.9678 16.541C13.7988 16.4268 12.4541 16.1455 11.417 16.7344C10.7139 16.3213 9.74707 16.3477 8.9209 16.4268C8.47266 16.5146 7.94531 16.5146 7.4707 16.585L7.40039 16.5938C6.54785 16.6553 5.77441 16.4004 5.02734 16.0664C5.27344 17.4023 5.52832 18.7646 5.66016 20.1621C5.94141 22.2363 4.68457 23.9678 5.18555 26.0156C5.49316 27 6.57422 27.5713 7.55859 27.6855C8.51059 27.7457 9.45666 27.8779 10.3887 28.0811C10.5545 28.1219 10.7163 28.1778 10.8721 28.248C11.092 28.3441 11.2895 28.4847 11.4521 28.6611C11.9795 28.1074 12.7705 27.9492 13.5352 27.8701C14.9238 27.7031 16.6377 27.791 17.4902 26.5342V26.4639C17.9561 25.7607 17.8945 24.7061 17.6924 23.915C17.6748 23.6426 17.6045 23.3965 17.5605 23.1328C16.7168 20.8916 17.4463 18.3691 17.8066 16.1016C17.3516 16.3303 16.8662 16.4931 16.3652 16.585C15.9697 16.6377 15.5303 16.6201 15.1348 16.5938L14.959 16.5498" fill="#FF0000"/>
<path d="M16.7168 22.9834C16.7168 23.124 16.7959 23.2471 16.8223 23.3789C16.9893 24.3633 17.1387 25.6641 16.1367 26.2705C15.0117 26.9736 13.5527 26.6748 12.2607 27.0527C11.9971 27.123 11.6455 27.3604 11.4697 27.5273C11.3467 27.4482 11.2324 27.334 11.083 27.2637C10.0195 26.7012 8.63086 26.8857 7.43555 26.5781C6.8291 26.3936 6.20508 25.9189 6.04688 25.3037C5.66016 23.6865 6.5918 22.3066 6.48633 20.6982C6.41602 19.4678 6.20508 18.2988 5.92383 17.1475C6.86426 17.5869 7.94531 17.6572 9 17.4463C9.8135 17.297 10.6524 17.3729 11.4258 17.666C11.8301 17.4902 12.3047 17.4111 12.7441 17.3672C13.5615 17.4551 14.4492 17.5957 15.3018 17.5957C15.873 17.5605 16.3916 17.4023 16.8838 17.1826C16.5938 19.0811 16.0225 21.0674 16.7168 22.9834Z" fill="#80CFE1"/>
<path d="M15.0293 23.3613V21.5684H15.2402L12.5156 19.8105L12.5068 18.8877H12.7705L11.3994 17.9209L10.0459 18.8877H10.3096V19.8105L7.59375 21.5684H7.81348V23.3525H15.0293" fill="#F0F0F0"/>
<path fill-rule="evenodd" clip-rule="evenodd" d="M11.4061 17.8408L12.9637 18.9629H12.5756L12.5846 19.7759L15.4494 21.6322H15.0938V23.3648H15.0334V23.4152H7.75867V21.6322H7.39301L10.2571 19.7764L10.248 18.9528H9.8581L11.4061 17.8408ZM14.9729 23.2943V21.5114H15.0405L12.4644 19.8421L12.4533 18.842H12.5891L11.406 17.9897L10.2336 18.8319H10.3676L10.3787 19.8416L7.80189 21.5114H7.87956V23.2943H14.9729Z" fill="black"/>
<path d="M15.873 25.708V26.2617H7.0752V25.6992H15.8643" fill="#F0F0F0"/>
<path fill-rule="evenodd" clip-rule="evenodd" d="M7.01306 25.6413H15.9402V26.3263H7.01306V25.6413ZM7.13396 25.7622V26.2054H15.8193V25.7622H7.13396Z" fill="black"/>
<path d="M7.65527 25.6729V23.7832H8.00684L7.98926 25.6904L8.00684 23.792L7.49707 23.7832V23.3701L15.3545 23.3877V23.7832H14.8799V25.6992L14.8711 23.7832H15.2227L15.2402 25.6816" fill="#F0F0F0"/>
<path fill-rule="evenodd" clip-rule="evenodd" d="M7.44632 23.3144L15.4263 23.3246V23.8483H15.2957L15.3054 25.6813L15.1845 25.682L15.1748 23.8483H14.943L14.9528 25.7011L14.9528 25.7015L14.8319 25.7024L14.8319 25.7021L14.8111 23.7274H15.3054V23.4453L7.56721 23.4354V23.7197L7.59746 23.7209V23.7174H8.07164L8.0714 23.7399L8.07162 23.7399L8.05085 25.6923L7.92996 25.6911L7.94928 23.856L7.71835 23.8468V25.6716H7.59746V23.8419L7.44632 23.8359V23.3144Z" fill="black"/>
<path fill-rule="evenodd" clip-rule="evenodd" d="M8.22217 23.8282H9.4111V25.2082H9.34057L9.34 25.2686L8.22217 25.258V23.8282ZM9.2902 25.1473V23.9491H8.34306V25.1383L9.2902 25.1473Z" fill="black"/>
<path fill-rule="evenodd" clip-rule="evenodd" d="M13.4011 23.8382H14.5694L14.5804 25.2686H13.4011V23.8382ZM13.522 23.9591V25.1478H14.4586L14.4494 23.9591H13.522ZM8.57478 24.1001H9.12894V24.9866H8.52441V24.1606H8.57478V24.1001ZM8.64531 24.221V24.8657H9.00805V24.221H8.64531Z" fill="black"/>
<path fill-rule="evenodd" clip-rule="evenodd" d="M13.391 21.6927H14.5699V23.1231H13.391V21.6927ZM13.5119 21.8136V23.0022H14.449V21.8136H13.5119ZM13.6832 24.1102H14.2878V24.9967H13.6832V24.1102ZM13.8041 24.2311V24.8758H14.1669V24.2311H13.8041Z" fill="black"/>
<path fill-rule="evenodd" clip-rule="evenodd" d="M8.22217 21.6826H9.40102V23.0626H9.34057V23.113H8.22217V21.6826ZM9.28013 22.9921V21.8035H8.34306V22.9921H9.28013ZM13.6732 21.9646H14.2777V22.8511H13.6732V21.9646ZM13.7941 22.0855V22.7302H14.1568V22.0855H13.7941Z" fill="black"/>
<path fill-rule="evenodd" clip-rule="evenodd" d="M10.1365 21.6826H11.3154V23.0626H11.2549V23.113H10.1365V21.6826ZM11.1945 22.9921V21.8035H10.2574V22.9921H11.1945ZM8.51434 21.9546H9.11888V22.841H8.51434V21.9546ZM8.63524 22.0755V22.7201H8.99798V22.0755H8.63524Z" fill="black"/>
<path fill-rule="evenodd" clip-rule="evenodd" d="M11.6076 21.682L12.7865 21.6932V23.1236L11.6076 23.1124V21.682ZM11.7285 21.8041V22.9927L12.6656 23.0016V21.813L11.7285 21.8041ZM10.4187 21.9546H11.0232V22.841H10.4187V21.9546ZM10.5396 22.0754V22.7201H10.9023V22.0754H10.5396Z" fill="black"/>
<path fill-rule="evenodd" clip-rule="evenodd" d="M11.8897 21.9546H12.5043V22.841H11.8897V21.9546ZM12.0106 22.0755V22.7201H12.3835V22.0755H12.0106Z" fill="black"/>
<path d="M12.9814 22.6582L12.999 25.6992H9.93164L9.92285 22.6582H12.9727" fill="#F0F0F0"/>
<path fill-rule="evenodd" clip-rule="evenodd" d="M10.5396 19.0031H12.2928V19.8896H10.5396V19.0031ZM10.6605 19.124V19.7687H12.1719V19.124H10.6605ZM10.4292 20.0507H12.4132L14.2919 21.4207H8.55054L10.4292 20.0507ZM10.4686 20.1716L8.9215 21.2998H13.9209L12.3738 20.1716H10.4686ZM9.87439 22.5992H13.0482L13.0587 25.7622H9.88487L9.87439 22.5992ZM9.99569 22.7201L9.99815 23.4655H12.9302L12.9278 22.7201H9.99569ZM12.9306 23.5864H12.6857V25.6413H12.9374L12.9306 23.5864ZM12.5648 25.6413V23.5864H10.3582V25.6413H12.5648ZM10.2373 25.6413V23.5864H9.99856L10.0054 25.6413H10.2373Z" fill="black"/>
<path fill-rule="evenodd" clip-rule="evenodd" d="M10.6987 18.7614H12.1236L11.4111 18.2549L10.6987 18.7614ZM11.4111 18.1701L11.3812 18.1279L10.32 18.8823H12.5023L11.4411 18.1279L11.4111 18.1701ZM10.9829 19.1945H11.8494V19.6982H10.9829V19.1945ZM11.1038 19.3154V19.5773H11.7285V19.3154H11.1038Z" fill="black"/>
<path d="M15.0645 17.7539C15.3193 17.7539 15.3809 18.8086 15.3809 19.3359C15.6094 19.4062 16.0928 19.7139 16.3125 19.9863H13.834C14.0449 19.7139 14.5283 19.4063 14.748 19.3447C14.748 18.8174 14.8008 17.7451 15.0645 17.7627" fill="#F0F0F0"/>
<path fill-rule="evenodd" clip-rule="evenodd" d="M14.8728 18.3581C14.8268 18.6854 14.8117 19.0802 14.8117 19.3456V19.3912L14.7678 19.4037C14.6715 19.4313 14.5016 19.52 14.3267 19.6387C14.1957 19.7275 14.0669 19.8298 13.9684 19.9299H16.1789C16.0804 19.8299 15.9514 19.7276 15.8195 19.6388C15.6435 19.5202 15.4712 19.4315 15.3701 19.4039L15.3256 19.3918V19.3456C15.3256 19.0802 15.3105 18.6855 15.2632 18.3583C15.2395 18.1941 15.2082 18.0508 15.1683 17.9499C15.1483 17.8993 15.1276 17.8632 15.1075 17.8408C15.0881 17.8189 15.0736 17.8145 15.0636 17.8145C15.0557 17.8145 15.0426 17.818 15.0237 17.84C15.0044 17.8624 14.9844 17.8985 14.965 17.9493C14.9263 18.0503 14.8959 18.1938 14.8728 18.3581ZM14.932 17.7611C14.9646 17.7232 15.0085 17.6936 15.0636 17.6936C15.119 17.6936 15.1638 17.7222 15.1978 17.7603C15.2312 17.7978 15.2582 17.8486 15.2807 17.9054C15.3258 18.0196 15.3587 18.174 15.3829 18.341C15.4287 18.6581 15.4447 19.0343 15.4463 19.3013C15.5654 19.3431 15.7287 19.4318 15.887 19.5385C16.0669 19.6596 16.2492 19.8099 16.3607 19.9532L16.4366 20.0508H13.7107L13.7866 19.9532C13.8981 19.8099 14.0804 19.6597 14.2589 19.5386C14.4155 19.4323 14.5761 19.3439 14.6909 19.3019C14.6925 19.0349 14.7085 18.6585 14.7531 18.3412C14.7766 18.1743 14.8085 18.02 14.8521 17.9061C14.8737 17.8493 14.8998 17.7987 14.932 17.7611ZM15.5573 17.6936H15.9406L15.8392 17.8819C15.8494 17.9001 15.861 17.925 15.8689 17.9553C15.8846 18.015 15.8854 18.0933 15.8396 18.1774L15.9361 18.3383H15.511L15.6097 18.1737C15.6093 18.1726 15.6088 18.1714 15.6082 18.1702C15.5993 18.1488 15.5885 18.1186 15.5812 18.0837C15.569 18.0251 15.5652 17.9443 15.6073 17.8712L15.5573 17.7796V17.6936ZM15.7246 18.1346C15.7632 18.0739 15.7615 18.0224 15.752 17.986C15.7468 17.966 15.7389 17.9497 15.7323 17.9385C15.7291 17.933 15.7263 17.9289 15.7244 17.9264C15.7235 17.9251 15.7229 17.9243 15.7226 17.9239C15.7225 17.9238 15.7225 17.9238 15.7225 17.9237C15.7224 17.9237 15.7224 17.9237 15.7224 17.9237C15.7224 17.9236 15.7224 17.9237 15.7224 17.9237L15.7195 17.9202C15.6912 17.9591 15.6892 18.0092 15.6996 18.059C15.7049 18.0845 15.713 18.1072 15.7198 18.1237C15.7215 18.1278 15.7231 18.1314 15.7246 18.1346ZM15.7262 17.8368L15.7382 17.8145H15.7141L15.7262 17.8368ZM16.2078 17.8145L16.2199 17.8368L16.2319 17.8145H16.2078ZM16.2132 17.9202C16.1849 17.9591 16.1829 18.0092 16.1933 18.059C16.1986 18.0845 16.2067 18.1072 16.2135 18.1237C16.2153 18.1278 16.2169 18.1314 16.2183 18.1346C16.2569 18.0739 16.2553 18.0224 16.2457 17.986C16.2405 17.966 16.2326 17.9497 16.226 17.9385C16.2228 17.933 16.22 17.9289 16.2182 17.9264C16.2173 17.9251 16.2166 17.9243 16.2163 17.9239L16.2162 17.9238L16.2161 17.9236L16.2132 17.9202ZM16.1047 18.1765C16.1038 18.1745 16.1029 18.1724 16.102 18.1702C16.0931 18.1488 16.0822 18.1186 16.075 18.0837C16.0628 18.0251 16.0589 17.9443 16.101 17.8712L16.0584 17.7931L16.1115 17.7641V17.6936H16.4343L16.3329 17.8819C16.3431 17.9001 16.3547 17.925 16.3626 17.9553C16.3783 18.015 16.3791 18.0933 16.3333 18.1774L16.4298 18.3383H16.0237L16.1047 18.1765ZM16.5033 17.7037H16.9321L16.8274 17.8832C16.8374 17.9012 16.8486 17.9257 16.8564 17.9553C16.872 18.015 16.8728 18.0933 16.827 18.1774L16.9235 18.3383H16.5174L16.5984 18.1765C16.5975 18.1745 16.5966 18.1724 16.5957 18.1702C16.5868 18.1488 16.576 18.1186 16.5687 18.0837C16.5565 18.0251 16.5526 17.9443 16.5948 17.8712L16.5033 17.7037ZM16.712 18.1346C16.7506 18.0739 16.749 18.0224 16.7394 17.986C16.7342 17.966 16.7263 17.9497 16.7197 17.9385C16.7165 17.933 16.7137 17.9289 16.7119 17.9264C16.711 17.9251 16.7103 17.9243 16.71 17.9239C16.7099 17.9238 16.71 17.9238 16.7099 17.9238C16.7099 17.9237 16.7098 17.9236 16.7098 17.9236L16.7069 17.9202C16.6787 17.9591 16.6766 18.0092 16.687 18.059C16.6923 18.0845 16.7004 18.1072 16.7073 18.1237C16.709 18.1278 16.7106 18.1314 16.712 18.1346ZM16.7141 17.8375L16.7216 17.8246H16.707L16.7141 17.8375ZM9.97826 22.6798H10.3956L10.3058 22.8593C10.3153 22.8783 10.3265 22.9054 10.334 22.9384C10.3476 22.9983 10.3489 23.0777 10.3071 23.1622L10.4045 23.3245H9.9693L10.0681 23.1599C10.0676 23.1588 10.0671 23.1576 10.0666 23.1564C10.0577 23.135 10.0469 23.1048 10.0396 23.0699C10.0273 23.011 10.0235 22.9295 10.0664 22.8561L9.97826 22.6798ZM10.1869 23.1969L10.1829 23.2036H10.191L10.1869 23.1969ZM10.1871 23.1296C10.2263 23.0658 10.2258 23.0079 10.2161 22.9652C10.2111 22.9432 10.2036 22.9251 10.1974 22.9127C10.1943 22.9066 10.1916 22.902 10.1899 22.8991C10.189 22.8977 10.1884 22.8967 10.1881 22.8963C10.188 22.8961 10.1879 22.8961 10.1879 22.896C10.1879 22.8959 10.1878 22.8959 10.1878 22.8959L10.1871 22.8949L10.183 22.8999C10.1498 22.9396 10.1469 22.9925 10.1579 23.0452C10.1632 23.0707 10.1713 23.0934 10.1782 23.1099C10.1815 23.118 10.1846 23.1244 10.1866 23.1286C10.1868 23.1289 10.1869 23.1293 10.1871 23.1296ZM10.1869 22.8267L10.1999 22.8007H10.1739L10.1869 22.8267ZM10.4317 22.6798H10.849L10.7592 22.8593C10.7687 22.8783 10.7799 22.9054 10.7874 22.9384C10.801 22.9983 10.8023 23.0777 10.7605 23.1622L10.8579 23.3245H10.4227L10.5215 23.1599C10.521 23.1588 10.5205 23.1576 10.52 23.1564C10.5111 23.135 10.5003 23.1048 10.493 23.0699C10.4807 23.011 10.4769 22.9295 10.5198 22.8561L10.4317 22.6798ZM10.6403 23.1969L10.6363 23.2036H10.6444L10.6403 23.1969ZM10.6405 23.1296C10.6797 23.0658 10.6792 23.0079 10.6695 22.9652C10.6645 22.9432 10.657 22.9251 10.6508 22.9127C10.6477 22.9066 10.6451 22.902 10.6433 22.8991C10.6424 22.8977 10.6418 22.8967 10.6415 22.8963C10.6414 22.8961 10.6413 22.8961 10.6413 22.896L10.6412 22.8959L10.6405 22.8949L10.6364 22.8999C10.6032 22.9396 10.6003 22.9925 10.6113 23.0452C10.6166 23.0707 10.6247 23.0934 10.6316 23.1099C10.635 23.118 10.638 23.1244 10.64 23.1286C10.6402 23.1289 10.6404 23.1293 10.6405 23.1296ZM10.6403 22.8267L10.6533 22.8007H10.6273L10.6403 22.8267ZM10.9254 22.6798H11.3427L11.2529 22.8593C11.2624 22.8783 11.2736 22.9054 11.2811 22.9384C11.2948 22.9983 11.296 23.0777 11.2542 23.1622L11.3516 23.3245H10.9355L11.0164 23.1627C11.0155 23.1607 11.0146 23.1586 11.0137 23.1564C11.0048 23.135 10.994 23.1048 10.9867 23.0699C10.9744 23.011 10.9706 22.9295 11.0135 22.8561L10.9254 22.6798ZM11.1343 23.1973L11.1311 23.2036H11.1381L11.1343 23.1973ZM11.1342 23.1296C11.1734 23.0658 11.173 23.0079 11.1633 22.9652C11.1582 22.9432 11.1507 22.9251 11.1445 22.9127C11.1414 22.9066 11.1388 22.902 11.137 22.8991C11.1361 22.8977 11.1355 22.8967 11.1352 22.8963C11.1351 22.8961 11.1351 22.8961 11.135 22.896C11.135 22.8959 11.135 22.8959 11.135 22.8959C11.1349 22.8959 11.135 22.8959 11.135 22.8959L11.1342 22.8949L11.1301 22.8999C11.0969 22.9396 11.0941 22.9925 11.105 23.0452C11.1104 23.0707 11.1184 23.0934 11.1253 23.1099C11.1287 23.118 11.1317 23.1244 11.1337 23.1286C11.1339 23.1289 11.1341 23.1293 11.1342 23.1296ZM11.134 22.8267L11.147 22.8007H11.121L11.134 22.8267Z" fill="black"/>
<path d="M11.4697 29.6016C12.6123 29.6016 14.0186 29.3643 14.6777 29.0303L16.1279 28.8984L16.1631 30.665C14.9326 31.3418 12.1025 31.4912 11.4785 31.4824C10.8545 31.4824 7.98926 31.3418 6.75 30.665L6.76758 28.8896L8.21777 29.0215C9.25418 29.4228 10.3585 29.6198 11.4697 29.6016Z" fill="#FFFF00"/>
<path fill-rule="evenodd" clip-rule="evenodd" d="M6.75631 28.8784L8.22645 29.0111L8.22907 29.0125C8.55947 29.1826 9.08661 29.3259 9.67435 29.4265C10.2618 29.5271 10.9083 29.585 11.4766 29.585C12.05 29.585 12.6864 29.5271 13.2625 29.4265C13.8388 29.3259 14.3534 29.1827 14.6839 29.0125L14.6866 29.0111L16.1465 28.8886L16.1771 30.6767L16.1692 30.6811C15.5568 31.0201 14.5391 31.2268 13.5995 31.3477C12.6595 31.4686 11.7949 31.5039 11.4866 31.4989C11.1735 31.4989 10.2989 31.4636 9.34747 31.3426C8.3966 31.2217 7.36623 31.015 6.74377 30.671L6.73587 30.6666L6.75631 28.8784ZM6.78616 28.9115L6.7663 30.6489C7.38399 30.9872 8.4044 31.1923 9.35128 31.3126C10.3016 31.4334 11.175 31.4687 11.4867 31.4687L11.4869 31.4687C11.7934 31.4737 12.6567 31.4385 13.5957 31.3177C14.5311 31.1973 15.5389 30.9923 16.1466 30.659L16.1168 28.9214L14.695 29.0407C14.3604 29.2124 13.8435 29.3558 13.2677 29.4563C12.69 29.5572 12.0519 29.6152 11.4766 29.6152C10.9064 29.6152 10.2582 29.5572 9.66925 29.4563C9.08219 29.3558 8.55261 29.2124 8.21786 29.0407L6.78616 28.9115Z" fill="black"/>
<path d="M3.02345 22.0605L4.29786 22.4648L3.91114 24.5303L2.70704 24.7236C2.70704 24.7236 2.50489 23.6338 3.02345 22.0605Z" fill="#FFFF00"/>
<path fill-rule="evenodd" clip-rule="evenodd" d="M3.02351 22.0465L4.31997 22.4579L3.93271 24.5465L2.69853 24.7419L2.69585 24.7274L2.71071 24.7247C2.69585 24.7274 2.69585 24.7275 2.69585 24.7274L2.6958 24.7272L2.69569 24.7266L2.69526 24.7241C2.69488 24.7219 2.69434 24.7187 2.69365 24.7145C2.69229 24.706 2.69036 24.6934 2.6881 24.6769C2.68358 24.6439 2.67772 24.595 2.67235 24.5314C2.6616 24.4043 2.65276 24.2187 2.66034 23.9838C2.67549 23.5141 2.75631 22.8479 3.0188 22.0606L3.02351 22.0465ZM2.72313 24.7074L3.90689 24.52L4.28539 22.4787L3.04277 22.0843C2.78505 22.8623 2.70553 23.5205 2.69055 23.9848C2.68301 24.2184 2.6918 24.4029 2.70246 24.5289C2.70779 24.5919 2.71359 24.6403 2.71804 24.6728C2.72008 24.6877 2.72183 24.6993 2.72313 24.7074Z" fill="black"/>
<path d="M3.91113 24.5127L2.70703 24.7236L3.47168 23.6338L3.91113 24.5127Z" fill="#7E7E7E"/>
<path fill-rule="evenodd" clip-rule="evenodd" d="M3.47862 23.6076L3.94254 24.5247L2.67731 24.7355L3.47862 23.6076ZM2.74405 24.6937L3.89701 24.5016L3.47426 23.6659L2.74405 24.6937Z" fill="black"/>
<path d="M2.25878 23.5547L3.48925 23.6426C3.51562 24.6797 3.64745 28.6523 8.39355 28.8721L8.24413 30.3223C2.46972 30.375 2.03027 25.4443 2.26757 23.5547" fill="#FFFF00"/>
<path fill-rule="evenodd" clip-rule="evenodd" d="M2.28064 23.5722C2.16723 24.52 2.22114 26.2142 3.0174 27.6663C3.41737 28.3958 4.00462 29.0641 4.85218 29.5463C5.67659 30.0154 6.74807 30.309 8.13451 30.3108L8.22904 30.2904L8.23334 30.3104C8.23514 30.3104 8.23694 30.3104 8.23874 30.3104L8.38682 28.8892C6.01432 28.7742 4.79437 27.7258 4.16471 26.5728C3.53979 25.4284 3.4973 24.1828 3.48189 23.651L2.28064 23.5722ZM8.1377 30.341C8.17574 30.341 8.21402 30.3409 8.25253 30.3405L8.266 30.3403L8.42019 28.8605L8.40421 28.8597C6.03145 28.7492 4.81712 27.7044 4.19124 26.5583C3.56465 25.4109 3.52682 24.1601 3.5117 23.6363L3.51131 23.6226L2.26834 23.5411L2.26735 23.5562L2.25235 23.5544C2.13625 24.5031 2.18657 26.214 2.9909 27.6809C3.3932 28.4145 3.98419 29.0872 4.83723 29.5726C5.63983 30.0293 6.67366 30.3198 7.99924 30.3399L6.77812 30.6027L6.78448 30.6322L8.1377 30.341Z" fill="black"/>
<path d="M19.8105 22.0781L18.5449 22.4824L18.9492 24.5391L20.1621 24.7324C20.1621 24.7324 20.3555 23.6514 19.8105 22.0781Z" fill="#FFFF00"/>
<path fill-rule="evenodd" clip-rule="evenodd" d="M19.8289 22.0566L19.8337 22.0705C20.1062 22.8628 20.1921 23.5317 20.2098 24.0026C20.2186 24.2381 20.2104 24.4241 20.2 24.5514C20.1948 24.615 20.189 24.6639 20.1845 24.697C20.1823 24.7136 20.1804 24.7261 20.179 24.7346C20.1783 24.7389 20.1778 24.7421 20.1774 24.7442L20.177 24.7467L20.1769 24.7473L20.1768 24.7475C20.1768 24.7475 20.1768 24.7476 20.1619 24.7448L20.1768 24.7475L20.1741 24.7622L18.94 24.5566L18.5324 22.468L19.8289 22.0566ZM20.1495 24.7274C20.1508 24.7193 20.1526 24.7078 20.1546 24.693C20.159 24.6604 20.1647 24.612 20.1699 24.5489C20.1802 24.4227 20.1884 24.2379 20.1796 24.0038C20.1621 23.5382 20.0776 22.8774 19.8099 22.0943L18.5672 22.4887L18.9657 24.5302L20.1495 24.7274Z" fill="black"/>
<path d="M18.9492 24.5215L20.1533 24.7412L19.3799 23.6514L18.9404 24.5215" fill="#7E7E7E"/>
<path fill-rule="evenodd" clip-rule="evenodd" d="M19.3838 23.6278L20.1959 24.756L18.9303 24.5346L19.3838 23.6278ZM19.3885 23.686L18.9755 24.5118L20.128 24.7135L19.3885 23.686Z" fill="black"/>
<path d="M20.5928 23.5635L19.3623 23.6514C19.3447 24.6885 19.248 28.6611 14.502 28.8809L14.6777 30.3223C20.4521 30.3926 20.8477 25.4531 20.6016 23.5635" fill="#FFFF00"/>
<path fill-rule="evenodd" clip-rule="evenodd" d="M20.6103 23.5501V23.5753C20.7364 24.5193 20.7009 26.227 19.9095 27.6909C19.5135 28.4233 18.9281 29.0948 18.0792 29.5786C17.2731 30.038 16.2301 30.3278 14.8872 30.3408L16.1448 30.6027L16.1386 30.6323L14.7405 30.3411C14.7173 30.341 14.6939 30.3407 14.6705 30.3405L14.6571 30.3403L14.4926 28.8705L14.5088 28.8698C16.8815 28.7643 18.0857 27.7195 18.7002 26.5723C19.3155 25.4237 19.3408 24.1703 19.3508 23.6466L19.3511 23.6327L20.6103 23.5501ZM14.7437 30.3109L14.6939 30.3005L14.6918 30.3105C14.6893 30.3104 14.6867 30.3104 14.6842 30.3104L14.5262 28.8993C16.8986 28.7892 18.1085 27.7409 18.7269 26.5865C19.3405 25.441 19.3705 24.193 19.3808 23.661L20.5808 23.5824C20.7058 24.5231 20.6694 26.2217 19.8829 27.6765C19.4892 28.4046 18.9077 29.0717 18.0642 29.5523C17.235 30.0249 16.1518 30.3178 14.7437 30.3109Z" fill="black"/>
<path d="M10.7051 30.4717C10.6699 30.4893 10.6172 30.498 10.5733 30.4893L10.3447 30.4805L10.3623 30.1904L10.5908 30.208C10.6348 30.208 10.6787 30.2168 10.6963 30.2344C10.7402 30.2519 10.7578 30.2959 10.7578 30.3574C10.7578 30.4101 10.7315 30.4453 10.6963 30.4717M10.3184 30.9111L10.336 30.5684L10.5996 30.5859C10.6875 30.5947 10.7578 30.5684 10.8018 30.5244C10.8457 30.4893 10.8721 30.4365 10.8721 30.3662C10.8765 30.3348 10.874 30.3029 10.8649 30.2725C10.8558 30.2422 10.8403 30.2142 10.8193 30.1904C10.7719 30.1442 10.7097 30.1162 10.6436 30.1113L10.2568 30.085L10.2041 30.9111H10.3184ZM11.1445 30.2344H11.4258L11.5225 30.2519C11.5664 30.2783 11.584 30.3135 11.584 30.375C11.584 30.4277 11.5752 30.4629 11.5401 30.4893C11.5023 30.5094 11.4597 30.5185 11.417 30.5156H11.1445V30.2344ZM11.1445 30.9551V30.6035L11.4082 30.6123C11.4522 30.6123 11.4961 30.6123 11.5137 30.6299C11.5488 30.6475 11.5752 30.6826 11.5752 30.7353V30.9375L11.5928 30.9639H11.7334V30.9463C11.7248 30.9418 11.7173 30.9355 11.7112 30.928C11.7052 30.9204 11.7008 30.9117 11.6983 30.9023C11.6925 30.8793 11.6896 30.8557 11.6895 30.832V30.7178C11.6895 30.665 11.6719 30.6299 11.6543 30.6123C11.6367 30.5881 11.6122 30.5697 11.584 30.5596C11.6192 30.542 11.6543 30.5156 11.6719 30.4893C11.6895 30.4541 11.707 30.4189 11.707 30.3662C11.707 30.2783 11.6631 30.208 11.584 30.1728C11.5341 30.1508 11.4803 30.1388 11.4258 30.1377H11.0303V30.9639H11.1445M12.0235 30.7881C11.9707 30.7231 11.9399 30.6431 11.9356 30.5596C11.9356 30.4453 11.9531 30.3574 12.0059 30.2959C12.0326 30.2668 12.0653 30.2439 12.1017 30.2288C12.1381 30.2136 12.1774 30.2065 12.2168 30.208C12.255 30.2037 12.2936 30.2077 12.3301 30.2198C12.3665 30.232 12.3998 30.2519 12.4277 30.2783C12.4893 30.331 12.5156 30.4102 12.5244 30.5068C12.5312 30.5922 12.5129 30.6778 12.4717 30.7529C12.4277 30.8232 12.3574 30.8672 12.252 30.8672C12.1465 30.8672 12.0762 30.8496 12.0147 30.7881M11.8828 30.2695C11.8319 30.3574 11.8075 30.4581 11.8125 30.5596C11.8213 30.6826 11.8565 30.7881 11.9356 30.8584C11.977 30.899 12.0267 30.9303 12.0813 30.95C12.1359 30.9697 12.1941 30.9774 12.252 30.9726C12.312 30.972 12.3711 30.9573 12.4244 30.9299C12.4778 30.9024 12.5241 30.8629 12.5596 30.8144C12.6218 30.721 12.6526 30.6102 12.6475 30.498C12.6444 30.3979 12.6072 30.3017 12.542 30.2256C12.4629 30.1377 12.3486 30.0937 12.1992 30.1025C12.0586 30.1025 11.9531 30.1641 11.8828 30.2695ZM15.75 29.083C15.8379 29.0742 15.9082 29.0742 15.9697 29.0918C16.0576 29.1269 16.1192 29.1885 16.1631 29.2939L16.0488 29.3115C16.0295 29.2614 15.9918 29.2205 15.9434 29.1973C15.8878 29.1743 15.8266 29.1682 15.7676 29.1797C15.732 29.1857 15.6981 29.1989 15.6679 29.2186C15.6376 29.2382 15.6117 29.2639 15.5918 29.2939C15.5479 29.3555 15.5303 29.4434 15.5479 29.5576C15.5572 29.6432 15.5942 29.7235 15.6533 29.7861C15.7061 29.8389 15.7852 29.8564 15.8818 29.8477C15.9503 29.8381 16.0129 29.8037 16.0576 29.751C16.1104 29.6982 16.1192 29.6279 16.1016 29.5312L15.8379 29.5752L15.8291 29.4873L16.1983 29.4258L16.2686 29.8652H16.1895L16.1455 29.7773L16.0576 29.8652C16.0137 29.9092 15.9522 29.9268 15.8818 29.9443C15.7837 29.9617 15.6826 29.9396 15.6006 29.8828C15.5542 29.8467 15.5155 29.8017 15.4868 29.7503C15.4581 29.699 15.44 29.6424 15.4336 29.584C15.4192 29.5243 15.4173 29.4623 15.4279 29.4018C15.4385 29.3413 15.4613 29.2837 15.4951 29.2324C15.5256 29.1899 15.565 29.1544 15.6105 29.1286C15.656 29.1028 15.7066 29.0873 15.7588 29.083M16.585 29.0215L16.8486 28.9248C16.8838 28.9072 16.919 28.9072 16.9453 28.9072C16.9981 28.9072 17.0332 28.9424 17.0508 28.9951C17.0684 29.0478 17.0684 29.0918 17.0508 29.1269C17.0244 29.1533 16.9893 29.1797 16.9365 29.1973L16.6904 29.2852L16.585 29.0215ZM16.8486 29.6982L16.7256 29.373L16.9717 29.2852C17.0019 29.2703 17.0348 29.2613 17.0684 29.2588C17.1123 29.2676 17.1475 29.2939 17.1738 29.3467L17.2266 29.4697L17.2529 29.5312L17.2705 29.5576L17.4024 29.5049V29.4873C17.376 29.4873 17.3584 29.4785 17.3496 29.4521C17.332 29.4434 17.3233 29.417 17.3145 29.3906L17.2705 29.2852C17.2529 29.2412 17.2266 29.2148 17.209 29.1973C17.1813 29.1852 17.1513 29.1792 17.1211 29.1797L17.1738 29.0742C17.1738 29.0391 17.1738 28.9951 17.1563 28.9512C17.1211 28.8633 17.0684 28.8105 16.9805 28.8105C16.9236 28.8072 16.8666 28.8162 16.8135 28.8369L16.4443 28.9687L16.7432 29.7422L16.8486 29.707M17.8154 29.2939L17.3496 28.6084L17.8594 28.2744L17.9209 28.3623L17.499 28.626L17.6397 28.8369L18.0352 28.5908L18.0879 28.6699L17.6924 28.916L17.8506 29.1533L18.2901 28.8721L18.3428 28.96L17.8154 29.2939ZM18.2285 28.081L18.3604 27.9316C18.4307 27.8613 18.4922 27.835 18.5625 27.8437C18.6416 27.8437 18.7119 27.8877 18.791 27.958C18.8468 28.0047 18.8893 28.0654 18.9141 28.1338C18.9317 28.1865 18.9229 28.2305 18.9141 28.2744C18.8982 28.3067 18.8774 28.3363 18.8526 28.3623L18.7207 28.5029L18.2285 28.081ZM18.9404 28.3975C19.0371 28.292 19.0547 28.1865 19.002 28.0459C18.9652 27.9749 18.9144 27.9121 18.8526 27.8613C18.7781 27.7909 18.6821 27.7476 18.5801 27.7383C18.4746 27.7295 18.3867 27.7646 18.3076 27.8525L18.0791 28.0986L18.7119 28.6523L18.9404 28.4062M19.4326 27.7646L18.7031 27.3252L18.7647 27.2373L19.4942 27.668L19.4326 27.7559M19.7227 27.2637L18.9317 26.9473L19.1602 26.3935L19.2568 26.4287L19.0723 26.8857L19.3096 26.9736L19.4854 26.5605L19.5733 26.5957L19.3975 27.0176L19.6611 27.123L19.8633 26.666L19.9512 26.7012L19.7227 27.2637ZM20.0742 26.2969L19.2481 26.1211L19.2832 25.9893L20.0479 25.7256L19.3711 25.5762L19.3975 25.4795L20.2236 25.6553L20.1973 25.7783L19.4326 26.042L20.1094 26.1914L20.083 26.2969M20.0127 25.2422L20.0215 25.1367C20.0742 25.1367 20.1094 25.1367 20.1445 25.1191C20.2061 25.084 20.2324 25.0225 20.25 24.9346C20.255 24.8934 20.252 24.8516 20.2412 24.8115C20.2236 24.75 20.1885 24.706 20.127 24.706C20.0742 24.6973 20.0391 24.706 20.0215 24.7324C19.9951 24.7588 19.9776 24.8027 19.96 24.8643L19.916 24.9697C19.8985 25.04 19.8721 25.0928 19.8457 25.1191C19.8106 25.1719 19.7578 25.1894 19.6875 25.1807C19.6537 25.1789 19.6207 25.1701 19.5905 25.155C19.5602 25.1399 19.5334 25.1187 19.5117 25.0928C19.459 25.04 19.4414 24.9609 19.4502 24.8643C19.459 24.7764 19.4854 24.706 19.5381 24.6533C19.582 24.6006 19.6524 24.5654 19.749 24.583L19.7402 24.6885C19.6963 24.6885 19.6524 24.6885 19.6348 24.7148C19.582 24.7412 19.5557 24.8027 19.5469 24.8818C19.5469 24.9434 19.5469 24.9873 19.582 25.0225C19.6084 25.0576 19.6348 25.0752 19.6699 25.0752C19.7139 25.0752 19.749 25.0752 19.7666 25.04L19.8281 24.8906L19.8633 24.7764C19.8809 24.7236 19.9072 24.6885 19.9336 24.6533C19.9776 24.6094 20.0391 24.5918 20.1094 24.5918C20.2061 24.6006 20.2764 24.6445 20.3027 24.7148C20.3379 24.7852 20.3555 24.8555 20.3467 24.9521C20.3418 25.0389 20.3041 25.1206 20.2412 25.1807C20.1797 25.2334 20.1094 25.251 20.0127 25.2422ZM2.8213 25.1894L2.84767 25.2949C2.79494 25.3037 2.75978 25.3213 2.73341 25.3476C2.68947 25.3916 2.67189 25.4619 2.68947 25.5586C2.69552 25.5954 2.70738 25.631 2.72462 25.6641C2.75978 25.7256 2.81251 25.7519 2.87404 25.7432C2.91798 25.7344 2.94435 25.7168 2.96193 25.6816L2.98829 25.541V25.4268C2.98829 25.3564 3.00587 25.2949 3.01466 25.2685C3.04103 25.2158 3.09376 25.1807 3.16408 25.1631C3.23439 25.1543 3.3047 25.1631 3.35744 25.2158C3.41896 25.251 3.45411 25.3213 3.47169 25.4092C3.48878 25.4861 3.47949 25.5666 3.44533 25.6377C3.41017 25.708 3.35743 25.7432 3.26076 25.7607L3.24318 25.6641C3.27564 25.6524 3.3055 25.6345 3.33107 25.6113C3.37501 25.5674 3.3838 25.5059 3.37501 25.4268C3.35744 25.3564 3.33986 25.3125 3.3047 25.2949C3.29001 25.2833 3.273 25.2749 3.25481 25.2704C3.23662 25.2658 3.21768 25.2652 3.19923 25.2685C3.17985 25.2677 3.16071 25.2732 3.14481 25.2843C3.12891 25.2955 3.11714 25.3116 3.11134 25.3301L3.10255 25.4883L3.09376 25.6025C3.09341 25.6515 3.08136 25.6998 3.05861 25.7432C3.04434 25.7717 3.02323 25.7963 2.99716 25.8147C2.97109 25.8331 2.94087 25.8447 2.90919 25.8486C2.8213 25.8662 2.73341 25.8398 2.68947 25.7783C2.63575 25.7189 2.59928 25.646 2.584 25.5674C2.57401 25.5241 2.57275 25.4793 2.5803 25.4355C2.58784 25.3917 2.60404 25.3499 2.62794 25.3125C2.64977 25.2804 2.67842 25.2535 2.71185 25.2337C2.74527 25.214 2.78265 25.2019 2.8213 25.1982M2.76857 26.2793L3.58595 26.0332L3.77052 26.6045L3.67384 26.6396L3.51564 26.1738L3.26954 26.2441L3.41896 26.6836L3.32228 26.71L3.18165 26.2705L2.9004 26.3584L3.05861 26.833L2.97072 26.8594L2.76857 26.2793ZM3.12892 27.2725L3.87599 26.8769L3.96388 27.0176L3.44533 27.5537L4.1924 27.4307L4.2715 27.5625L3.52443 27.958L3.47169 27.8701L3.91115 27.6328L3.99025 27.5977L4.10451 27.5361L3.35744 27.668L3.3047 27.5713L3.81447 27.0264L3.7881 27.0439L3.70021 27.0879C3.67496 27.1045 3.64852 27.1191 3.62111 27.1318L3.18165 27.3603L3.12892 27.2725ZM4.51759 28.3711C4.48244 28.3623 4.44728 28.3359 4.41212 28.3008L4.25392 28.1426L4.46486 27.9492L4.62306 28.1074C4.64937 28.1322 4.67032 28.1621 4.68458 28.1953C4.70216 28.2393 4.68458 28.2832 4.64064 28.3271C4.59669 28.3623 4.55275 28.3799 4.51759 28.3711ZM3.91993 28.4414L4.18361 28.2041L4.35939 28.3887C4.4297 28.4502 4.49122 28.4766 4.55275 28.4766C4.61803 28.4757 4.68066 28.4506 4.72853 28.4062C4.77292 28.3584 4.79797 28.2957 4.79884 28.2305C4.79884 28.1777 4.77247 28.1162 4.71974 28.0635L4.45607 27.7998L3.84083 28.3623L3.92872 28.4502M4.66701 29.1094L5.11525 28.4062L5.64259 28.7226L5.58986 28.8105L5.1504 28.5469L5.01857 28.7666L5.41408 29.0039L5.37013 29.0918L4.96583 28.8457L4.81642 29.083L5.25587 29.3467L5.20314 29.4346L4.66701 29.1094ZM5.98536 28.9687L6.25783 29.0566L6.34572 29.1006C6.38087 29.1357 6.38966 29.1797 6.36329 29.2324C6.34572 29.2852 6.32814 29.3203 6.28419 29.3291L6.15236 29.3203L5.89747 29.2324L5.98536 28.9687ZM5.75685 29.6631L5.87111 29.3291L6.1172 29.4082C6.16115 29.417 6.20509 29.4346 6.21388 29.4521C6.24025 29.4785 6.24904 29.5225 6.24025 29.5752L6.1963 29.707L6.18751 29.7685V29.7949L6.31935 29.8389V29.8213L6.30177 29.7598L6.31935 29.6982L6.35451 29.5928C6.36329 29.54 6.37208 29.5049 6.35451 29.4873C6.35451 29.4609 6.32814 29.4346 6.30177 29.4082C6.34572 29.4082 6.38966 29.3906 6.41603 29.3643C6.4424 29.3379 6.46876 29.3027 6.47755 29.2588C6.51271 29.1709 6.49513 29.0918 6.42482 29.0391C6.383 29.0046 6.33539 28.9778 6.28419 28.96L5.90626 28.8457L5.64259 29.6279L5.75685 29.6631Z" fill="#009FC5"/>
<path d="M6.89942 15.4336C6.98731 15.1963 7.89258 14.5547 10.8369 14.8359C10.8369 14.8359 11.3379 15.1436 11.6279 15.0996C11.8037 15.082 11.54 15.1172 11.3115 14.9326C11.0918 14.7568 11.0479 14.3789 11.5488 14.3965C12.0586 14.4053 13.9482 14.5107 13.9834 14.6865C14.0186 14.8535 12.9814 14.9238 12.6035 14.915C12.2168 14.9062 12.252 15.0996 12.6387 15.0908C13.8428 15.0381 15.1523 14.6162 16.5322 15.6006C16.6992 15.7148 16.1191 15.7324 15.6709 15.5478C15.6709 15.5478 14.4404 15.6094 13.9131 15.5215C13.9131 15.5215 13.5176 15.8555 12.9814 15.8203C13.0518 15.9961 12.7881 16.6289 11.1357 16.1455C10.8545 16.2334 9.86133 16.4004 9.9668 16.1016C9.70313 16.1016 9.2461 16.1895 9.17578 16.04C9.10547 15.8906 9.98438 15.6709 10.1426 15.5127C10.1426 15.5127 8.2793 15.5303 7.92774 15.3984C7.92774 15.3984 6.8291 15.6445 6.89942 15.4336Z" fill="#BC715F"/>
<path d="M7.49708 18.0352C7.53223 17.9824 7.54981 17.877 7.6377 17.8857C7.81348 17.9297 7.94532 18.2725 8.16505 18.0527C8.25294 18.0352 8.2793 18.1406 8.34083 18.1582C8.38477 18.3428 8.54298 18.1143 8.64845 18.1318C8.89454 18.0264 9.18458 18 9.47462 18.0439C9.47462 18.2373 9.33399 18.4395 9.15821 18.5449C9.15821 18.7207 9.33399 18.8437 9.3252 19.0283C9.29884 19.0986 9.3252 19.2041 9.21973 19.2305C9.07911 19.2041 8.95606 19.1953 8.8418 19.1162C8.82423 19.1074 8.81544 19.0811 8.78907 19.0898C8.77149 19.1514 8.87696 19.2129 8.91212 19.2744C8.8418 19.3887 8.73634 19.2832 8.63966 19.2832C8.61329 19.3535 8.63966 19.4326 8.56934 19.4766C8.45509 19.4766 8.42872 19.3447 8.35841 19.2832C8.2793 19.3623 8.41114 19.4062 8.42872 19.4678C8.37598 19.7139 8.38477 19.9512 8.14747 20.1094L7.98048 20.1885C7.93653 20.0654 7.9629 19.8809 7.93653 19.749C7.84864 19.9072 7.76075 20.0479 7.62891 20.1797C7.45313 20.127 7.36524 19.9336 7.33009 19.7666C7.29424 19.6745 7.28596 19.5739 7.30625 19.4772C7.32653 19.3804 7.37451 19.2916 7.44434 19.2217C7.4004 19.1338 7.22462 19.1514 7.19825 19.0107C6.93458 18.835 6.80274 19.3008 6.63575 19.0635C6.60987 18.9462 6.61231 18.8244 6.64288 18.7082C6.67345 18.5921 6.73126 18.4849 6.81153 18.3955C6.76759 18.3076 6.64454 18.3252 6.57423 18.2725C6.41602 18.1318 6.17872 17.9912 6.1963 17.7451C6.4169 17.6653 6.65572 17.6501 6.88463 17.7015C7.11354 17.7529 7.32299 17.8687 7.48829 18.0352" fill="#008737"/>
<path d="M7.72557 18.0088C7.71678 18.2109 7.85741 18.0615 7.97166 18.1846C7.88377 18.1494 7.82225 18.334 7.73436 18.2285L7.68163 18.2813C7.71678 18.3516 7.76952 18.3604 7.71678 18.4395C7.62889 18.4746 7.60252 18.3516 7.55858 18.3076C7.55858 18.29 7.57616 18.2549 7.541 18.2373C7.48827 18.2813 7.43553 18.2988 7.36522 18.29C7.34764 18.2549 7.3037 18.2021 7.34764 18.167C7.41795 18.0791 7.52342 18.2021 7.57616 18.1406C7.58495 18.0791 7.53221 18.0088 7.60252 17.9648C7.64647 17.9736 7.70799 17.9473 7.72557 18.0088ZM8.27049 18.1758C8.27928 18.2109 8.25292 18.2637 8.30565 18.2988C8.37596 18.2637 8.44627 18.29 8.48143 18.3516C8.48143 18.3867 8.49022 18.4395 8.44627 18.457L8.34081 18.4307C8.34959 18.4131 8.31444 18.4043 8.30565 18.3779C8.2617 18.3691 8.22655 18.4043 8.20018 18.4307C8.22655 18.4658 8.28807 18.4922 8.27049 18.5361C8.20897 18.5977 8.1826 18.4834 8.11229 18.5186C8.05956 18.501 8.12108 18.4043 8.05077 18.3691C7.96288 18.3691 8.0244 18.5098 7.91014 18.457C7.87499 18.4131 7.83983 18.3516 7.87499 18.3076C7.90101 18.2922 7.93131 18.2856 7.96139 18.2887C7.99148 18.2919 8.01974 18.3047 8.04198 18.3252C8.11229 18.2461 8.11229 17.9648 8.27928 18.1758M7.59374 18.4658C7.63768 18.5361 7.57616 18.624 7.63768 18.6943C7.72557 18.5186 7.81346 18.7295 7.91893 18.7119C7.95409 18.7559 7.92772 18.8086 7.93651 18.8525C7.80467 18.8877 7.64647 18.9316 7.53221 18.8262L7.49706 18.8613C7.56737 18.9229 7.62889 19.002 7.57616 19.1074C7.47948 19.125 7.32127 19.1338 7.27733 19.0283C7.25096 18.9404 7.33885 18.8877 7.24217 18.8174C7.18065 18.9053 7.18065 19.0107 7.04881 18.9316C7.01108 18.9111 6.98271 18.8768 6.96961 18.8359C6.95652 18.7949 6.9597 18.7506 6.9785 18.7119C7.06639 18.5713 7.22459 18.7119 7.31249 18.6504C7.33006 18.5273 7.28612 18.4219 7.40038 18.3604C7.48827 18.3428 7.53221 18.4131 7.59374 18.4658Z" fill="#FFFF00"/>
<path d="M7.96289 18.5449C7.91895 18.7471 7.76953 18.5361 7.69922 18.5274C7.78711 18.3516 7.84863 18.5801 7.96289 18.5449ZM8.4375 18.7647C8.33203 18.791 8.34961 18.6592 8.29688 18.6065L8.34082 18.5713C8.37598 18.6152 8.40234 18.7031 8.4375 18.7647Z" fill="#F0F0F0"/>
<path d="M8.29688 18.7207C8.32324 18.791 8.22656 18.8525 8.31445 18.8965L8.38477 18.835C8.46387 18.8525 8.54297 18.8701 8.5957 18.9404C8.64844 19.0898 8.49902 19.0898 8.41992 19.1338H8.33203C8.34961 19.0811 8.28809 19.0635 8.2793 19.0459C8.26241 19.0399 8.24411 19.0392 8.22683 19.044C8.20955 19.0487 8.19413 19.0585 8.18262 19.0723C8.2002 19.1602 8.31445 19.2481 8.2002 19.3272C8.09473 19.3272 7.93652 19.3623 7.94531 19.2217C7.91016 19.1338 8.05078 19.0195 7.90137 19.0107C7.84863 19.125 7.7959 19.2217 7.66406 19.125L7.68164 18.9668C7.80469 18.9668 7.9541 18.9932 8.00684 18.8525C8.04199 18.7559 7.94531 18.6592 8.0332 18.5889C8.16504 18.5537 8.23535 18.6416 8.29688 18.7207Z" fill="#FFFF00"/>
<path d="M8.20897 18.9492C8.23534 19.0283 8.15624 19.0371 8.11229 19.0723C8.05956 19.0723 8.0244 19.0547 7.98924 19.0195C7.96288 18.9316 8.03319 18.9141 8.07714 18.8789C8.13866 18.8525 8.16503 18.9229 8.20897 18.9492Z" fill="black"/>
<path d="M8.12988 19.002C8.12109 19.0195 8.09473 19.0107 8.07715 19.0195L8.05957 18.9316C8.10352 18.9316 8.14746 18.9404 8.12988 19.002Z" fill="#F0F0F0"/>
</g>
<defs>
<clipPath id="clip0_264_23534">
<rect width="60" height="45" fill="white"/>
</clipPath>
</defs>
</svg>
