<svg width="60" height="45" viewBox="0 0 60 45" fill="none" xmlns="http://www.w3.org/2000/svg">
<g clip-path="url(#clip0_264_19821)">
<path fill-rule="evenodd" clip-rule="evenodd" d="M-0.0012207 0.00234985H60.0105V45.0023H-0.0012207V0.00234985Z" fill="#F0F0F0"/>
<path fill-rule="evenodd" clip-rule="evenodd" d="M6.57349 13.6701L12.8155 4.31059L14.3754 5.35092L8.1334 14.7104L6.57349 13.6701ZM8.91336 15.2306L15.1554 5.87109L16.7153 6.91142L10.4733 16.2709L8.91336 15.2306ZM11.2532 16.7911L17.4952 7.43159L19.0551 8.47192L12.8131 17.8314L11.2532 16.7911Z" fill="black"/>
<path fill-rule="evenodd" clip-rule="evenodd" d="M50.7722 36.9492L42.9727 31.7475L43.4928 30.9675L51.2924 36.1692L50.7722 36.9492Z" fill="#F0F0F0"/>
<path fill-rule="evenodd" clip-rule="evenodd" d="M20.6139 16.2727C22.2694 13.7904 24.8431 12.0674 27.769 11.4828C30.6948 10.8981 33.7331 11.4997 36.2154 13.1552C38.6977 14.8107 40.4207 17.3844 41.0053 20.3103C41.5899 23.2361 40.9883 26.2744 39.3329 28.7567L20.6139 16.2727Z" fill="#CD2E3A"/>
<path fill-rule="evenodd" clip-rule="evenodd" d="M20.614 16.2727C18.9585 18.755 18.3569 21.7932 18.9415 24.7191C19.5262 27.6449 21.2491 30.2187 23.7314 31.8742C26.2137 33.5297 29.252 34.1312 32.1778 33.5466C35.1037 32.962 37.6774 31.239 39.3329 28.7567C40.1607 27.5155 40.4615 25.9964 40.1691 24.5335C39.8768 23.0706 39.0153 21.7837 37.7742 20.9559C36.533 20.1282 35.0139 19.8274 33.551 20.1197C32.0881 20.412 30.8012 21.2735 29.9734 22.5147L20.614 16.2727Z" fill="#0047A0"/>
<path d="M29.9734 22.5147C31.6971 19.9301 30.9992 16.4376 28.4147 14.7139C25.8301 12.9903 22.3376 13.6881 20.6139 16.2727C18.8902 18.8572 19.5881 22.3497 22.1727 24.0734C24.7572 25.7971 28.2497 25.0992 29.9734 22.5147Z" fill="#CD2E3A"/>
<path fill-rule="evenodd" clip-rule="evenodd" d="M14.2702 33.5716L11.9303 35.1321L11.4101 34.3522L13.75 32.7917L14.2702 33.5716ZM46.2484 12.2448L43.5186 14.0654L42.9984 13.2854L45.7282 11.4648L46.2484 12.2448ZM50.9282 9.1238L48.5883 10.6843L48.0681 9.90434L50.408 8.34384L50.9282 9.1238Z" fill="#F0F0F0"/>
</g>
<defs>
<clipPath id="clip0_264_19821">
<rect width="60" height="45" fill="white"/>
</clipPath>
</defs>
</svg>
