<svg width="60" height="45" viewBox="0 0 60 45" fill="none" xmlns="http://www.w3.org/2000/svg">
<g clip-path="url(#clip0_264_23792)">
<path d="M0 0H60V45H0V0Z" fill="#006600"/>
<path d="M0 0H60V32.1469H0V0Z" fill="#F0F0F0"/>
<path d="M0 0H60V12.8531H0V0Z" fill="#CC0000"/>
<path d="M28.1999 21.9C28.2883 21.7502 28.4227 21.633 28.5831 21.5658C28.7435 21.4987 28.9213 21.4852 29.09 21.5274C29.2587 21.5695 29.4092 21.6651 29.5192 21.7999C29.6291 21.9346 29.6925 22.1013 29.6999 22.275V25.5H30.3V22.2844C30.3074 22.1106 30.3708 21.944 30.4807 21.8092C30.5907 21.6745 30.7412 21.5789 30.9099 21.5367C31.0786 21.4946 31.2564 21.5081 31.4168 21.5752C31.5772 21.6424 31.7116 21.7596 31.8 21.9094C31.8929 21.625 31.9172 21.3227 31.8708 21.0272C31.8244 20.7317 31.7086 20.4513 31.533 20.2092C31.3574 19.967 31.1269 19.7699 30.8605 19.634C30.594 19.498 30.2991 19.4272 30 19.4272C29.7008 19.4272 29.4059 19.498 29.1394 19.634C28.873 19.7699 28.6425 19.967 28.4669 20.2092C28.2913 20.4513 28.1755 20.7317 28.1291 21.0272C28.0827 21.3227 28.107 21.625 28.1999 21.9094" fill="#F8C300"/>
<path d="M28.6312 21.0656C28.8944 21.0112 29.1681 21.0407 29.4137 21.1501C29.6592 21.2594 29.8643 21.443 30 21.675C30.1357 21.443 30.3407 21.2594 30.5863 21.1501C30.8318 21.0407 31.1055 21.0112 31.3687 21.0656C31.3294 20.7302 31.1683 20.4209 30.916 20.1964C30.6636 19.972 30.3377 19.848 30 19.848C29.6623 19.848 29.3363 19.972 29.084 20.1964C28.8317 20.4209 28.6706 20.7302 28.6312 21.0656Z" fill="#F0F0F0"/>
<path d="M29.7 24.2156C29.6602 24.6725 29.4922 25.1089 29.2155 25.4747C28.9387 25.8404 28.5644 26.1206 28.1356 26.2832C27.7067 26.4457 27.2407 26.4839 26.791 26.3935C26.3414 26.3031 25.9264 26.0876 25.5938 25.7719C25.4527 26.1319 25.231 26.4548 24.9457 26.7159C24.6604 26.9769 24.3191 27.1691 23.948 27.2778C23.5769 27.3864 23.1858 27.4085 22.8048 27.3425C22.4238 27.2765 22.0629 27.124 21.75 26.8969C21.9844 29.2406 25.5 28.7625 25.7625 26.4844C26.8594 28.425 29.2875 27.8625 30 25.4906L29.7 24.2156Z" fill="#F8C300"/>
<path d="M27.3562 28.3687C26.8594 29.4281 25.8844 29.6062 25.0312 28.7531C25.0312 28.7531 25.3688 28.5094 25.7438 28.4437C25.6688 28.1531 25.8094 27.7406 26.0156 27.525C26.2886 27.7041 26.4908 27.9725 26.5875 28.2844C27.1031 28.2187 27.3562 28.3781 27.3562 28.3781V28.3687Z" fill="#F8C300"/>
<path fill-rule="evenodd" clip-rule="evenodd" d="M36.0873 31.2254C32.1152 30.0431 27.8848 30.0431 23.9127 31.2254L23.6185 30.2371C27.7826 28.9976 32.2174 28.9976 36.3815 30.2371L36.0873 31.2254Z" fill="#F8C300"/>
<path d="M30.9704 16.767L28.4297 14.921H31.5702L29.0295 16.767L30 13.7802L30.9704 16.767Z" fill="#F8C300"/>
</g>
<defs>
<clipPath id="clip0_264_23792">
<rect width="60" height="45" fill="white"/>
</clipPath>
</defs>
</svg>
