<svg width="60" height="45" viewBox="0 0 60 45" fill="none" xmlns="http://www.w3.org/2000/svg">
<g clip-path="url(#clip0_264_23803)">
<path d="M0 0H60V45H0V0Z" fill="#00247D"/>
<path d="M10.1344 33.2437C9.50625 33.2344 16.0219 29.775 21.4688 25.3312C28.6125 19.5094 43.9969 10.2 48.525 8.68125C48.9937 8.52187 47.5594 9.4875 47.3719 9.79687C42.5437 15.5156 46.3969 26.2969 52.4344 31.725C54.2531 33.1125 54.1594 33.1875 57.525 33.3187V33.6375L10.1344 33.2437ZM9.74063 33.8719C9.74063 33.8719 9.28125 34.2 9.28125 34.4437C9.28125 34.7156 9.79688 35.0719 9.79688 35.0719L56.5312 35.5875L57.3938 35.0156L56.1938 34.275L9.74063 33.8719Z" fill="#FED100"/>
<path d="M10.0125 10.2281L9.6375 11.3719L10.6125 10.6688L11.5781 11.3719L11.2125 10.2281L12.1781 9.52501H10.9781L10.6125 8.38126L10.2375 9.52501H9.0375L10.0125 10.2281ZM17.3344 15.6094L18.1406 15.0188H17.1375L16.8281 14.0719L16.5187 15.0188H15.525L16.3312 15.6094L16.0219 16.5563L16.8281 15.9656L17.6437 16.5563L17.3344 15.6094ZM3.72188 16.8281L3.34688 15.6844L2.98125 16.8281H1.78125L2.74687 17.5313L2.38125 18.675L3.34688 17.9719L4.32187 18.675L3.94687 17.5313L4.92188 16.8281H3.72188ZM11.0438 28.2938L10.6125 26.9625L10.1812 28.2938H8.775L9.90937 29.1094L9.47812 30.45L10.6125 29.625L11.7469 30.45L11.3062 29.1094L12.4406 28.2938H11.0438Z" fill="#F0F0F0"/>
</g>
<defs>
<clipPath id="clip0_264_23803">
<rect width="60" height="45" fill="white"/>
</clipPath>
</defs>
</svg>
