<svg width="60" height="45" viewBox="0 0 60 45" fill="none" xmlns="http://www.w3.org/2000/svg">
<g clip-path="url(#clip0_264_23813)">
<path fill-rule="evenodd" clip-rule="evenodd" d="M-3.75 0H63.75V45H-3.75V0Z" fill="#00843D"/>
<path fill-rule="evenodd" clip-rule="evenodd" d="M19.3916 12.085C21.8438 13.2627 24.7617 12.085 25.8164 10.4502C26.9063 8.9209 27.0381 6.36328 25.166 4.0166C28.0664 6.4248 28.7168 9.1582 27.2666 11.4082C25.333 13.9834 21.0615 13.9043 19.3916 12.085Z" fill="#F0F0F0"/>
<path fill-rule="evenodd" clip-rule="evenodd" d="M23.7422 6.09961L24.2344 6.1084L23.8477 6.41602L23.9971 6.9082L23.584 6.61816L23.1885 6.9082L23.3203 6.4248L22.9248 6.11719L23.417 6.1084L23.584 5.625L23.7422 6.09961ZM21.3076 9.1582H21.7998L21.4131 9.47461L21.5625 9.95801L21.1494 9.66797L20.7451 9.9668L20.8857 9.47461L20.4902 9.17578L20.9824 9.1582L21.1406 8.6748L21.3076 9.1582ZM21.4658 6.75H21.9668L21.5713 7.06641L21.7207 7.5498L21.3164 7.25977L20.9121 7.55859L21.0527 7.06641L20.6572 6.75879L21.1494 6.75L21.3076 6.2666L21.4658 6.75ZM21.4658 4.33301H21.9668L21.5625 4.6582L21.7119 5.1416L21.3076 4.86035L20.9033 5.15039L21.0439 4.66699L20.6484 4.35937L21.1406 4.35059L21.2988 3.86719L21.4658 4.33301ZM18.7676 7.3916H19.2598L18.8643 7.70801L19.0137 8.19141L18.6094 7.90137L18.2051 8.2002L18.3457 7.70801L17.9502 7.40918L18.4424 7.3916L18.6006 6.9082L18.7676 7.3916Z" fill="#F0F0F0"/>
<path fill-rule="evenodd" clip-rule="evenodd" d="M0.424805 0H14.8916V45H0.424805V0Z" fill="#CA3745"/>
<path fill-rule="evenodd" clip-rule="evenodd" d="M0.424805 11.7334V11.4082L1.02246 10.6084L0.908203 10.4414L1.25977 9.9668L1.14551 9.7998L0.908203 10.125L0.785156 9.9668L1.62891 8.8418L1.75195 9L1.62891 9.1582L1.875 9.49219L2.47266 8.68359L1.86621 7.90137L1.62891 8.2002L1.75195 8.36719L1.62891 8.52539L0.785156 7.40039L0.908203 7.24219L1.14551 7.55859L1.26855 7.40039L0.908203 6.91699L1.02246 6.75879L0.424805 5.9502V5.625L1.26855 6.75L1.14551 6.9082L1.50586 7.3916L1.26855 7.7168L1.50586 8.0332L1.875 7.55859L2.72754 8.70117L1.875 9.80859L1.52344 9.3252L1.27734 9.65039L1.51465 9.97559L1.16309 10.4502L1.27734 10.6172L0.433594 11.7422L0.424805 11.7334Z" fill="#FAAE29"/>
<path fill-rule="evenodd" clip-rule="evenodd" d="M0.424805 7.7168L0.547852 8.0332V8.52539H0.908203L1.1543 8.68359L0.908203 8.85059H0.556641V9.32519L0.433594 9.65039V7.7168H0.424805Z" fill="#FAAE29"/>
<path fill-rule="evenodd" clip-rule="evenodd" d="M0.424805 19.4502V19.125L1.02246 18.3252L0.908203 18.1582L1.25977 17.6748L1.14551 17.5166L0.908203 17.8418L0.785156 17.6748L1.62891 16.5498L1.75195 16.7168L1.62891 16.875L1.875 17.2002L2.47266 16.3916L1.86621 15.6094L1.62891 15.9082L1.75195 16.0752L1.62891 16.2334L0.785156 15.1084L0.908203 14.9414L1.14551 15.2578L1.26855 15.0996L0.908203 14.6162L1.02246 14.458L0.424805 13.6494V13.333L1.26855 14.458L1.14551 14.6162L1.50586 15.0996L1.26855 15.416L1.50586 15.7412L1.86621 15.2578L2.71875 16.4004L1.86621 17.5078L1.51465 17.0244L1.26855 17.3496L1.50586 17.666L1.1543 18.1494L1.26855 18.3164L0.424805 19.4414V19.4502Z" fill="#FAAE29"/>
<path fill-rule="evenodd" clip-rule="evenodd" d="M0.424805 15.4248L0.547852 15.75V16.2334H0.908203L1.1543 16.3916L0.908203 16.5498H0.556641V17.0332L0.433594 17.3584V15.4248H0.424805Z" fill="#FAAE29"/>
<path fill-rule="evenodd" clip-rule="evenodd" d="M0.424805 27.1582V26.8418L1.02246 26.0332L0.908203 25.875L1.25977 25.3916L1.14551 25.2334L0.908203 25.5498L0.785156 25.3916L1.62891 24.2666L1.75195 24.4248L1.62891 24.5918L1.875 24.917L2.47266 24.1084L1.86621 23.3174L1.62891 23.625L1.75195 23.7832L1.62891 23.9414L0.785156 22.8164L0.908203 22.6582L1.14551 22.9834L1.26855 22.8164L0.908203 22.3418L1.02246 22.1748L0.424805 21.375V21.0498L1.26855 22.1748L1.14551 22.3418L1.50586 22.8164L1.26855 23.1416L1.50586 23.4668L1.875 22.9834L2.71875 24.126L1.86621 25.2334L1.51465 24.75L1.26855 25.0664L1.50586 25.3916L1.1543 25.875L1.26855 26.0332L0.424805 27.1582Z" fill="#FAAE29"/>
<path fill-rule="evenodd" clip-rule="evenodd" d="M0.424805 23.1416L0.556641 23.4668V23.9502H0.908203L1.1543 24.1084L0.908203 24.2578H0.556641V24.7412L0.433594 25.0664V23.1328L0.424805 23.1416Z" fill="#FAAE29"/>
<path fill-rule="evenodd" clip-rule="evenodd" d="M0.424805 34.3916V34.0664L1.02246 33.2666L0.908203 33.1084L1.25977 32.625L1.14551 32.4668L0.908203 32.7832L0.785156 32.625L1.62891 31.5L1.75195 31.6582L1.62891 31.8164L1.875 32.1416L2.47266 31.3418L1.86621 30.5508L1.62891 30.8584L1.75195 31.0166L1.62891 31.1748L0.785156 30.0498L0.908203 29.8916L1.14551 30.2168L1.26855 30.0498L0.908203 29.5664L1.02246 29.4082L0.424805 28.6084V28.2832L1.26855 29.4082L1.14551 29.5664L1.50586 30.0498L1.26855 30.375L1.50586 30.6914L1.875 30.2168L2.71875 31.3594L1.86621 32.4668L1.51465 31.9834L1.26855 32.2998L1.50586 32.625L1.1543 33.1084L1.26855 33.2666L0.424805 34.3916Z" fill="#FAAE29"/>
<path fill-rule="evenodd" clip-rule="evenodd" d="M0.424805 30.375L0.547852 30.6914V31.1748H0.908203L1.1543 31.3418L0.908203 31.5H0.556641V31.9834L0.433594 32.2998V30.3662L0.424805 30.375Z" fill="#FAAE29"/>
<path fill-rule="evenodd" clip-rule="evenodd" d="M14.8916 11.7334V11.4082L14.2939 10.6084L14.417 10.4414L14.0566 9.9668L14.1709 9.7998L14.417 10.125L14.54 9.9668L13.6963 8.8418L13.5732 9L13.6963 9.1582L13.4414 9.4834L12.8525 8.6748L13.4502 7.89258L13.6963 8.19141L13.5732 8.3584L13.6875 8.5166L14.5312 7.3916L14.417 7.2334L14.1709 7.5498L14.0566 7.3916L14.4082 6.9082L14.2939 6.75L14.8916 5.94141V5.625L14.0566 6.75L14.1709 6.9082L13.8193 7.3916L14.0566 7.7168L13.8105 8.0332L13.4502 7.5498L12.5977 8.69238L13.4502 9.7998L13.8105 9.31641L14.0566 9.6416L13.8105 9.9668L14.1709 10.4414L14.0566 10.6084L14.8916 11.7334Z" fill="#FAAE29"/>
<path fill-rule="evenodd" clip-rule="evenodd" d="M14.8916 7.7168L14.7686 8.0332V8.52539H14.417L14.1709 8.68359L14.4082 8.85059H14.7686V9.32519L14.8916 9.65039V7.7168Z" fill="#FAAE29"/>
<path fill-rule="evenodd" clip-rule="evenodd" d="M14.9355 19.4502V19.125L14.3379 18.3252L14.4521 18.1582L14.1006 17.6748L14.2148 17.5166L14.4521 17.8418L14.5752 17.6748L13.7314 16.5498L13.6084 16.7168L13.7314 16.875L13.4854 17.2002L12.8877 16.3916L13.4941 15.6094L13.7314 15.9082L13.6084 16.0664L13.7314 16.2334L14.5752 15.1084L14.4521 14.9414L14.2148 15.2666L14.0918 15.1084L14.4521 14.625L14.3379 14.4668L14.9355 13.6582V13.3418L14.0918 14.4668L14.2148 14.625L13.8545 15.1084L14.0918 15.4248L13.8545 15.75L13.4941 15.2666L12.6416 16.4092L13.4941 17.5166L13.8457 17.0332L14.0918 17.3584L13.8545 17.6748L14.2061 18.1582L14.0918 18.3164L14.9355 19.4414V19.4502Z" fill="#FAAE29"/>
<path fill-rule="evenodd" clip-rule="evenodd" d="M14.9355 15.4248L14.8125 15.75V16.2334H14.4434L14.1973 16.3916L14.4434 16.5498H14.7949V17.0332L14.9268 17.3584V15.4248H14.9355Z" fill="#FAAE29"/>
<path fill-rule="evenodd" clip-rule="evenodd" d="M14.8916 27.1582V26.8418L14.2939 26.0332L14.417 25.875L14.0566 25.3916L14.1709 25.2334L14.417 25.5498L14.54 25.3916L13.6963 24.2666L13.5732 24.4248L13.6963 24.5918L13.4414 24.917L12.8525 24.1084L13.4502 23.3174L13.6963 23.625L13.5732 23.7832L13.6875 23.9414L14.5312 22.8164L14.417 22.6582L14.1709 22.9834L14.0566 22.8164L14.4082 22.3418L14.2939 22.1748L14.8916 21.375V21.0498L14.0566 22.1748L14.1709 22.3418L13.8193 22.8164L14.0566 23.1416L13.8105 23.4668L13.4502 22.9834L12.5977 24.126L13.4502 25.2334L13.8105 24.75L14.0566 25.0664L13.8105 25.3916L14.1709 25.875L14.0566 26.0332L14.8828 27.1582H14.8916Z" fill="#FAAE29"/>
<path fill-rule="evenodd" clip-rule="evenodd" d="M14.8916 23.1416L14.7686 23.4668V23.9502H14.417L14.1709 24.1084L14.4082 24.2666H14.7686V24.75L14.8916 25.0752V23.1416Z" fill="#FAAE29"/>
<path fill-rule="evenodd" clip-rule="evenodd" d="M14.8916 34.3916V34.0664L14.2939 33.2666L14.417 33.1084L14.0566 32.625L14.1709 32.4668L14.417 32.7832L14.54 32.625L13.6963 31.5L13.5732 31.6582L13.6963 31.8164L13.4414 32.1416L12.8525 31.3418L13.4502 30.5508L13.6963 30.8584L13.5732 31.0166L13.6875 31.1748L14.5312 30.0586L14.417 29.9004L14.1709 30.2256L14.0566 30.0586L14.4082 29.5752L14.2939 29.417L14.8916 28.6172V28.292L14.0566 29.417L14.1709 29.5752L13.8193 30.0586L14.0566 30.3838L13.8105 30.7002L13.4502 30.2256L12.5977 31.3682L13.4502 32.4756L13.8105 31.9922L14.0566 32.3086L13.8105 32.6338L14.1709 33.1172L14.0566 33.2754L14.8916 34.4004V34.3916Z" fill="#FAAE29"/>
<path fill-rule="evenodd" clip-rule="evenodd" d="M14.8916 30.375L14.7686 30.6914V31.1748H14.417L14.1709 31.3418L14.4082 31.5H14.7686V31.9834L14.8916 32.2998V30.3662V30.375Z" fill="#FAAE29"/>
<path fill-rule="evenodd" clip-rule="evenodd" d="M0.424805 3.0498V2.7334L1.02246 1.9248L0.908203 1.7666L1.25977 1.2832L1.14551 1.125L0.908203 1.4502L0.785156 1.2832L1.62891 0.158203L1.75195 0.325195L1.62891 0.483398L1.875 0.808594L2.47266 0H2.71875L1.875 1.125L1.50586 0.641602L1.26855 0.966797L1.50586 1.2832L1.1543 1.7666L1.25977 1.93359L0.424805 3.05859V3.0498ZM0.424805 0H1.1543L0.908203 0.158203H0.55664V0.641602L0.416016 0.966797V0H0.424805ZM14.8916 3.0498V2.7334L14.2939 1.9248L14.417 1.7666L14.0566 1.2832L14.1709 1.125L14.417 1.4502L14.5312 1.2832L13.6875 0.158203L13.5732 0.325195L13.6875 0.483398L13.4414 0.808594L12.8438 0H12.5977L13.4502 1.125L13.8105 0.641602L14.0566 0.966797L13.8105 1.2832L14.1709 1.7666L14.0566 1.9248L14.8916 3.0498ZM14.8916 0H14.1709L14.4082 0.158203H14.7686V0.641602L14.8916 0.966797V0ZM6.4541 44.3584C6.4541 44.3584 6.98144 43.4443 8.28223 43.1719C9.5918 42.8906 9.82031 43.7783 10.5674 43.7783C11.3145 43.7783 12.501 43.1631 12.501 43.1631C12.501 43.1631 11.3145 44.332 10.3916 44.3057C9.48633 44.2793 9.17871 43.6904 8.23828 43.7783C7.30664 43.8662 6.4541 44.3848 6.4541 44.3584Z" fill="#FAAE29"/>
<path fill-rule="evenodd" clip-rule="evenodd" d="M8.97656 44.3584C8.97656 44.3584 8.45801 43.4443 7.15723 43.1719C5.83887 42.8906 5.61914 43.7783 4.87207 43.7783C4.125 43.7783 2.93848 43.1631 2.93848 43.1631C2.93848 43.1631 4.125 44.332 5.03906 44.3057C5.95313 44.2793 6.26953 43.6904 7.19238 43.7783C8.13281 43.8662 8.97656 44.3848 8.97656 44.3584Z" fill="#FAAE29"/>
<path fill-rule="evenodd" clip-rule="evenodd" d="M4.705 42.8467C4.59074 42.6094 4.3007 41.5547 4.45012 41.4229C4.68742 41.335 5.30265 42.416 5.24113 43.374C4.83683 43.5938 3.48332 43.2861 3.49211 43.0049C3.58879 42.6094 4.36222 42.7412 4.705 42.8467Z" fill="#FAAE29"/>
<path fill-rule="evenodd" clip-rule="evenodd" d="M3.87885 41.9238C3.80853 41.6602 3.68549 40.5527 3.86127 40.4648C4.09857 40.4473 4.52924 41.669 4.32709 42.5918C3.89643 42.6973 2.61322 42.0205 2.67475 41.7481C2.83295 41.3965 3.55365 41.7305 3.87885 41.9238Z" fill="#FAAE29"/>
<path fill-rule="evenodd" clip-rule="evenodd" d="M3.21084 40.9043C3.1581 40.623 3.14052 39.498 3.3163 39.4453C3.55361 39.4629 3.8788 40.7461 3.59755 41.6338C3.1581 41.6689 1.94521 40.79 2.0331 40.5352C2.20888 40.2012 2.91201 40.6494 3.21084 40.9043Z" fill="#FAAE29"/>
<path fill-rule="evenodd" clip-rule="evenodd" d="M2.6835 39.8145C2.66592 39.5244 2.77139 38.4082 2.95596 38.3906C3.19327 38.4521 3.36026 39.7881 2.97354 40.6055C2.54288 40.5527 1.44424 39.4365 1.56729 39.1992C1.77823 38.9092 2.41983 39.498 2.6835 39.8145Z" fill="#FAAE29"/>
<path fill-rule="evenodd" clip-rule="evenodd" d="M2.3144 38.6631C2.33197 38.373 2.56049 37.3008 2.74506 37.3096C2.96479 37.4238 2.99115 38.7685 2.52533 39.5068C2.10346 39.3662 1.12787 38.0566 1.2685 37.8369C1.52338 37.5908 2.08588 38.3027 2.32319 38.6631H2.3144Z" fill="#FAAE29"/>
<path fill-rule="evenodd" clip-rule="evenodd" d="M2.41991 37.3535C2.39355 38.4961 2.18261 38.5137 1.80468 37.6699C1.6289 37.3447 1.61132 36.0264 1.76073 35.9736C1.98046 35.9736 2.41112 36.9141 2.41991 37.3535Z" fill="#FAAE29"/>
<path fill-rule="evenodd" clip-rule="evenodd" d="M10.6641 42.9785C10.7784 42.7324 11.0684 41.6777 10.919 41.5459C10.6817 41.458 10.0753 42.5303 10.128 43.4971C10.5323 43.7168 11.8946 43.4092 11.877 43.1279C11.7803 42.7324 11.0157 42.8643 10.6641 42.9697V42.9785Z" fill="#FAAE29"/>
<path fill-rule="evenodd" clip-rule="evenodd" d="M11.4903 42.0469C11.5694 41.7832 11.6836 40.6758 11.5166 40.5879C11.2793 40.5703 10.8399 41.7832 11.0508 42.7149C11.4727 42.8203 12.7647 42.1436 12.6944 41.8711C12.5449 41.5107 11.8155 41.8535 11.4903 42.0469Z" fill="#FAAE29"/>
<path fill-rule="evenodd" clip-rule="evenodd" d="M12.1583 41.0273C12.211 40.7461 12.2286 39.6211 12.0528 39.5684C11.8155 39.5859 11.4903 40.8604 11.7804 41.748C12.2198 41.7832 13.4327 40.9131 13.3448 40.6494C13.1515 40.3154 12.4659 40.7725 12.1583 41.0273Z" fill="#FAAE29"/>
<path fill-rule="evenodd" clip-rule="evenodd" d="M12.6856 39.9287C12.7032 39.6475 12.5977 38.5312 12.4131 38.5137C12.1758 38.5752 12.0088 39.9111 12.3956 40.7285C12.835 40.6758 13.9249 39.5596 13.8106 39.3223C13.5909 39.0234 12.9581 39.6211 12.6856 39.9287Z" fill="#FAAE29"/>
<path fill-rule="evenodd" clip-rule="evenodd" d="M13.0548 38.7773C13.046 38.4961 12.8087 37.415 12.6329 37.4326C12.4044 37.5381 12.378 38.8916 12.8526 39.6299C13.2745 39.4893 14.2413 38.1797 14.1007 37.96C13.8458 37.7139 13.2833 38.4258 13.046 38.7773H13.0548Z" fill="#FAAE29"/>
<path fill-rule="evenodd" clip-rule="evenodd" d="M12.9492 37.4766C12.9844 38.6191 13.1865 38.6279 13.5645 37.7842C13.7402 37.4678 13.7578 36.1406 13.6084 36.0967C13.3887 36.0967 12.958 37.0371 12.9492 37.4766Z" fill="#FAAE29"/>
<path fill-rule="evenodd" clip-rule="evenodd" d="M12.6496 28.9086H11.9302V29.3912H11.237V29.8738H8.46408L7.99321 30.3702L8.22864 30.6183H9.39274L9.61509 30.3702H8.46408L8.68643 30.122H10.3083L9.61509 30.8527H8.00629L7.5485 30.6183L7.07763 30.8527H5.45575L4.76253 30.122H6.38441L6.61984 30.3702H5.45575L5.69119 30.6183H6.85528L7.07763 30.3702L6.61984 29.8738H4.06931V29.3912H3.37608V28.9086H2.68286V26.7025H3.37608V26.2199H4.06931V25.7235H6.61984L7.07763 25.241L6.85528 24.9928H5.69119L5.45575 25.241H6.61984L6.38441 25.4754H4.76253L5.45575 24.7446H7.09071L7.56158 24.9928L8.01937 24.7446H9.64125L10.3345 25.4754H8.71259L8.49024 25.241H9.64125L9.40582 24.9928H8.2548L8.00629 25.241L8.47716 25.7235H11.2501V26.2199H11.9433V26.7025H12.6496V28.9086Z" fill="#CA3745"/>
<path fill-rule="evenodd" clip-rule="evenodd" d="M5.45287 24.7379H7.09237L7.56154 24.9852L8.01767 24.7379H9.64414L10.3501 25.4821H8.70971L8.47461 25.2342H9.62563L9.40293 24.9995H8.25758L8.01573 25.241L8.47999 25.7168H11.2568V26.2132H11.95V26.6958H12.6563V28.9086H12.6496V28.9153H11.9369V29.3979H11.2437V29.8805H8.46697L8.00247 30.3702L8.23153 30.6116H9.38974L9.60006 30.3769H8.44905L8.68343 30.1153H10.3239L9.61798 30.8595H8.00467L7.54846 30.6259L7.07921 30.8595H5.45287L4.74691 30.1153H6.3873L6.63547 30.3769H5.47138L5.69407 30.6116H6.85228L7.06856 30.3702L6.6169 29.8805H4.06259V29.3979H3.36937V28.9153H2.67615V26.6958H3.36937V26.2132H4.06259V25.7168H6.61696L7.0685 25.2408L6.85228 24.9995H5.69407L5.47138 25.2342H6.63611L6.38718 25.4821H4.74691L5.45287 24.7379ZM12.6429 28.9019V26.7092H11.9366V26.2266H11.2433V25.7303H8.47433L7.99685 25.2409L8.25203 24.9861H9.4087L9.65688 25.2477H8.50586L8.71548 25.4686H10.3188L9.63836 24.7513H8.02107L7.56163 25.0004L7.08905 24.7513H5.45864L4.77816 25.4686H6.38164L6.60358 25.2477H5.44013L5.6883 24.9861H6.85828L7.08677 25.2411L6.62273 25.7303H4.07602V26.2266H3.3828V26.7092H2.68958V28.9019H3.3828V29.3845H4.07602V29.8671H6.62279L7.08671 30.3701L6.85828 30.6251H5.6883L5.44013 30.3634H6.60422L6.38152 30.1287H4.77816L5.45864 30.846H7.07606L7.54854 30.6108L8.00791 30.846H9.61221L10.2927 30.1287H8.68943L8.47911 30.3634H9.63012L9.39574 30.6251H8.22576L7.98396 30.3702L8.46119 29.8671H11.2303V29.3845H11.9235V28.9019H12.6429Z" fill="black"/>
<path fill-rule="evenodd" clip-rule="evenodd" d="M2.91516 26.9594V28.6691H3.60838V29.1517H4.30159V29.6343H6.6232L7.55184 30.3719L8.47395 29.6412H11.0245V29.1586L11.7177 29.1517V28.6691H12.424V26.9525H11.7242V26.4699H11.031V25.9735H8.48049L7.55838 25.2427L6.62974 25.9735H4.30813V26.4699H3.61491V26.9525H2.9217L2.91516 26.9594Z" fill="#00843D"/>
<path fill-rule="evenodd" clip-rule="evenodd" d="M7.55849 25.1828L8.49686 25.9265H11.078V26.4229H11.7712V26.9055H12.471V28.7161H11.7647V29.1982L11.0715 29.2051V29.6882H8.49032L7.55182 30.4319L6.60681 29.6813H4.25459V29.1987H3.56138V28.7161H2.86816V26.9406L2.90151 26.9055H3.56792V26.4229H4.26113V25.9265H6.61347L7.55849 25.1828ZM7.55829 25.3026L6.64602 26.0205H4.35513V26.5169H3.66192V26.9995H2.96217V28.6221H3.65538V29.1047H4.34859V29.5873H6.6396L7.55188 30.3119L8.45759 29.5942H10.9775V29.112L11.6707 29.1051V28.6221H12.377V26.9995H11.6772V26.5169H10.984V26.0205H8.46413L7.55829 25.3026Z" fill="#FAAE29"/>
<path fill-rule="evenodd" clip-rule="evenodd" d="M6.15629 26.2128L4.76782 27.4359V26.2128H6.15629ZM8.93321 26.2128L10.3305 27.4359V26.2128H8.93321ZM6.15629 29.393L4.76782 28.1698V29.393H6.15629ZM8.93321 29.393L10.3305 28.1698V29.393H8.93321ZM9.39896 26.9467L8.93321 27.4359H9.86471L9.39896 26.9467ZM5.69054 26.9467L5.23357 27.4359H6.15629L5.69054 26.9467ZM5.69054 28.6591L5.23357 28.1698H6.15629L5.69054 28.6591ZM9.39896 28.6591L8.93321 28.1698H9.86471L9.39896 28.6591Z" fill="#CA3745"/>
<path fill-rule="evenodd" clip-rule="evenodd" d="M7.54473 29.8822L7.07898 29.393H8.01048L7.54473 29.8822ZM7.54473 27.4359L7.07898 26.9467H8.01048L7.54473 27.4359ZM7.54473 25.7235L7.07898 26.2239H8.01048L7.54473 25.7235ZM7.54473 28.1698L7.07898 28.6591H8.01048L7.54473 28.1698Z" fill="#FAAE29"/>
<path fill-rule="evenodd" clip-rule="evenodd" d="M8.93823 27.442H9.87342V27.6832H8.94477L8.93823 27.442Z" fill="#FAAE29"/>
<path fill-rule="evenodd" clip-rule="evenodd" d="M8.93481 27.4386H9.8768V27.6866H8.94153L8.93481 27.4386ZM8.94171 27.4453L8.94807 27.6799H9.87009V27.4453H8.94171Z" fill="black"/>
<path fill-rule="evenodd" clip-rule="evenodd" d="M5.4657 27.6832H5.92348V27.9314H5.4657V27.6832ZM9.17374 27.6832H9.63152V27.9314H9.17374V27.6832Z" fill="#CC0000"/>
<path fill-rule="evenodd" clip-rule="evenodd" d="M5.46228 27.6799H5.92678V27.9348H5.46228V27.6799ZM5.46899 27.6866V27.9281H5.92006V27.6866H5.46899ZM9.17032 27.6799H9.63482V27.9348H9.17032V27.6799ZM9.17703 27.6866V27.9281H9.6281V27.6866H9.17703Z" fill="black"/>
<path fill-rule="evenodd" clip-rule="evenodd" d="M7.08752 26.2217H8.00963V26.463H7.08752V26.2217ZM7.08752 26.7043H8.00963V26.9525H7.08752V26.7043Z" fill="#990000"/>
<path fill-rule="evenodd" clip-rule="evenodd" d="M7.08411 26.2183H8.01293V26.4663H7.08411V26.2183ZM7.09082 26.2251V26.4596H8.00621V26.2251H7.09082ZM7.08411 26.7009H8.01293V26.9558H7.08411V26.7009ZM7.09082 26.7076V26.9491H8.00621V26.7076H7.09082Z" fill="black"/>
<path fill-rule="evenodd" clip-rule="evenodd" d="M6.85205 26.463H8.24502V26.7112H6.85205V26.463ZM7.08748 28.6691H8.00959V28.9035H7.08748V28.6691ZM7.08748 29.1517H8.00959V29.393H7.08748V29.1517ZM6.85205 28.9104H8.24502V29.1517H6.85205V28.9104Z" fill="#990000"/>
<path fill-rule="evenodd" clip-rule="evenodd" d="M6.84875 26.4596H8.24844V26.7145H6.84875V26.4596ZM6.85547 26.4664V26.7078H8.24172V26.4664H6.85547ZM7.08419 28.6657H8.01301V28.9069H7.08419V28.6657ZM7.0909 28.6725V28.9001H8.00629V28.6725H7.0909ZM6.84875 28.907H8.24844V29.155H8.01301V29.3963H7.08419V29.155H6.84875V28.907ZM8.24172 29.1483V28.9138H6.85547V29.1483H8.24172ZM7.0909 29.155V29.3896H8.00629V29.155H7.0909Z" fill="black"/>
<path fill-rule="evenodd" clip-rule="evenodd" d="M8.93827 27.9314H9.87346V28.1727H8.94481L8.93827 27.9314ZM5.23023 27.442H6.15888V27.6832H5.23023V27.442ZM5.23023 27.9245H6.15888V28.1727H5.23023V27.9245ZM5.00134 27.6832H5.45913V27.9314H5.00134V27.6832ZM5.92999 27.6832H6.38777V27.9314H5.92999V27.6832ZM8.70938 27.6832H9.16717V27.9314H8.70938V27.6832ZM9.63803 27.6832H10.0958V27.9314H9.63803V27.6832Z" fill="#FAAE29"/>
<path fill-rule="evenodd" clip-rule="evenodd" d="M5.22682 27.4386H6.16218V27.6799H6.39107V27.9348H6.16218V28.1761H5.22682V27.9348H4.99792V27.6799H5.22682V27.4386ZM5.23353 27.6799H6.15546V27.4453H5.23353V27.6799ZM5.92657 27.6866H5.46242V27.9212H5.92657V27.6866ZM5.92657 27.9279H5.46242V27.9348H5.23353V28.1694H6.15546V27.9348H5.92657V27.9279ZM6.16218 27.9281V27.9212H5.93328V27.6866H6.38435V27.9281H6.16218ZM6.15546 27.9281H5.93328V27.9279H6.15546V27.9281ZM5.23353 27.9281H5.45571V27.9279H5.23353V27.9281ZM5.45571 27.9212V27.6866H5.00464V27.9281H5.22682V27.9212H5.45571ZM8.70596 27.6799H9.17046V27.9281H9.63461V27.6799H10.0991V27.9348H9.87675V28.1761H8.94148L8.93495 27.9348H8.70596V27.6799ZM9.16375 27.9281V27.6866H8.71268V27.9281H9.16375ZM8.94166 27.9348L8.94802 28.1694H9.87004V27.9348H8.94166ZM10.0924 27.9281V27.6866H9.64132V27.9281H10.0924Z" fill="black"/>
<path d="M6.97976 29.0814C7.01226 29.0814 7.03862 29.0536 7.03862 29.0194C7.03862 28.9851 7.01226 28.9573 6.97976 28.9573C6.94725 28.9573 6.9209 28.9851 6.9209 29.0194C6.9209 29.0536 6.94725 29.0814 6.97976 29.0814Z" fill="#F0F0F0"/>
<path d="M7.55105 29.0814C7.58355 29.0814 7.6099 29.0536 7.6099 29.0194C7.6099 28.9851 7.58355 28.9573 7.55105 28.9573C7.51854 28.9573 7.49219 28.9851 7.49219 29.0194C7.49219 29.0536 7.51854 29.0814 7.55105 29.0814Z" fill="#F0F0F0"/>
<path d="M8.131 29.0814C8.16351 29.0814 8.18986 29.0536 8.18986 29.0194C8.18986 28.9851 8.16351 28.9573 8.131 28.9573C8.0985 28.9573 8.07214 28.9851 8.07214 29.0194C8.07214 29.0536 8.0985 29.0814 8.131 29.0814Z" fill="#F0F0F0"/>
<path d="M7.20827 28.8479C7.24078 28.8479 7.26713 28.8201 7.26713 28.7858C7.26713 28.7516 7.24078 28.7238 7.20827 28.7238C7.17577 28.7238 7.14941 28.7516 7.14941 28.7858C7.14941 28.8201 7.17577 28.8479 7.20827 28.8479Z" fill="#F0F0F0"/>
<path d="M7.8937 28.8479C7.9262 28.8479 7.95256 28.8201 7.95256 28.7858C7.95256 28.7516 7.9262 28.7238 7.8937 28.7238C7.86119 28.7238 7.83484 28.7516 7.83484 28.7858C7.83484 28.8201 7.86119 28.8479 7.8937 28.8479Z" fill="#F0F0F0"/>
<path d="M7.19948 29.326C7.23199 29.326 7.25834 29.2983 7.25834 29.264C7.25834 29.2297 7.23199 29.2019 7.19948 29.2019C7.16698 29.2019 7.14062 29.2297 7.14062 29.264C7.14062 29.2983 7.16698 29.326 7.19948 29.326Z" fill="#F0F0F0"/>
<path d="M7.8937 29.3372C7.9262 29.3372 7.95256 29.3094 7.95256 29.2751C7.95256 29.2408 7.9262 29.2131 7.8937 29.2131C7.86119 29.2131 7.83484 29.2408 7.83484 29.2751C7.83484 29.3094 7.86119 29.3372 7.8937 29.3372Z" fill="#F0F0F0"/>
<path d="M8.81643 27.8583C8.84893 27.8583 8.87529 27.8305 8.87529 27.7962C8.87529 27.7619 8.84893 27.7342 8.81643 27.7342C8.78392 27.7342 8.75757 27.7619 8.75757 27.7962C8.75757 27.8305 8.78392 27.8583 8.81643 27.8583Z" fill="#F0F0F0"/>
<path d="M9.39638 27.8583C9.42889 27.8583 9.45524 27.8305 9.45524 27.7962C9.45524 27.7619 9.42889 27.7342 9.39638 27.7342C9.36388 27.7342 9.33752 27.7619 9.33752 27.7962C9.33752 27.8305 9.36388 27.8583 9.39638 27.8583Z" fill="#F0F0F0"/>
<path d="M9.97646 27.8583C10.009 27.8583 10.0353 27.8305 10.0353 27.7962C10.0353 27.7619 10.009 27.7342 9.97646 27.7342C9.94396 27.7342 9.9176 27.7619 9.9176 27.7962C9.9176 27.8305 9.94396 27.8583 9.97646 27.8583Z" fill="#F0F0F0"/>
<path d="M9.05373 27.6136C9.08624 27.6136 9.11259 27.5858 9.11259 27.5516C9.11259 27.5173 9.08624 27.4895 9.05373 27.4895C9.02123 27.4895 8.99487 27.5173 8.99487 27.5516C8.99487 27.5858 9.02123 27.6136 9.05373 27.6136Z" fill="#F0F0F0"/>
<path d="M9.73916 27.6136C9.77166 27.6136 9.79801 27.5858 9.79801 27.5516C9.79801 27.5173 9.77166 27.4895 9.73916 27.4895C9.70665 27.4895 9.6803 27.5173 9.6803 27.5516C9.6803 27.5858 9.70665 27.6136 9.73916 27.6136Z" fill="#F0F0F0"/>
<path d="M9.04494 28.0918C9.07745 28.0918 9.1038 28.064 9.1038 28.0297C9.1038 27.9955 9.07745 27.9677 9.04494 27.9677C9.01244 27.9677 8.98608 27.9955 8.98608 28.0297C8.98608 28.064 9.01244 28.0918 9.04494 28.0918Z" fill="#F0F0F0"/>
<path d="M9.73916 28.1029C9.77166 28.1029 9.79801 28.0751 9.79801 28.0409C9.79801 28.0066 9.77166 27.9788 9.73916 27.9788C9.70665 27.9788 9.6803 28.0066 9.6803 28.0409C9.6803 28.0751 9.70665 28.1029 9.73916 28.1029Z" fill="#F0F0F0"/>
<path d="M6.97097 26.6462C7.00347 26.6462 7.02983 26.6185 7.02983 26.5842C7.02983 26.5499 7.00347 26.5221 6.97097 26.5221C6.93846 26.5221 6.91211 26.5499 6.91211 26.5842C6.91211 26.6185 6.93846 26.6462 6.97097 26.6462Z" fill="#F0F0F0"/>
<path d="M7.55105 26.6462C7.58355 26.6462 7.6099 26.6185 7.6099 26.5842C7.6099 26.5499 7.58355 26.5221 7.55105 26.5221C7.51854 26.5221 7.49219 26.5499 7.49219 26.5842C7.49219 26.6185 7.51854 26.6462 7.55105 26.6462Z" fill="#F0F0F0"/>
<path d="M8.131 26.6351C8.16351 26.6351 8.18986 26.6073 8.18986 26.5731C8.18986 26.5388 8.16351 26.511 8.131 26.511C8.0985 26.511 8.07214 26.5388 8.07214 26.5731C8.07214 26.6073 8.0985 26.6351 8.131 26.6351Z" fill="#F0F0F0"/>
<path d="M7.19948 26.4016C7.23199 26.4016 7.25834 26.3738 7.25834 26.3396C7.25834 26.3053 7.23199 26.2775 7.19948 26.2775C7.16698 26.2775 7.14062 26.3053 7.14062 26.3396C7.14062 26.3738 7.16698 26.4016 7.19948 26.4016Z" fill="#F0F0F0"/>
<path d="M7.8937 26.4016C7.9262 26.4016 7.95256 26.3738 7.95256 26.3396C7.95256 26.3053 7.9262 26.2775 7.8937 26.2775C7.86119 26.2775 7.83484 26.3053 7.83484 26.3396C7.83484 26.3738 7.86119 26.4016 7.8937 26.4016Z" fill="#F0F0F0"/>
<path d="M7.19948 26.8798C7.23199 26.8798 7.25834 26.852 7.25834 26.8177C7.25834 26.7834 7.23199 26.7557 7.19948 26.7557C7.16698 26.7557 7.14062 26.7834 7.14062 26.8177C7.14062 26.852 7.16698 26.8798 7.19948 26.8798Z" fill="#F0F0F0"/>
<path d="M7.8937 26.8909C7.9262 26.8909 7.95256 26.8631 7.95256 26.8288C7.95256 26.7946 7.9262 26.7668 7.8937 26.7668C7.86119 26.7668 7.83484 26.7946 7.83484 26.8288C7.83484 26.8631 7.86119 26.8909 7.8937 26.8909Z" fill="#F0F0F0"/>
<path d="M5.11684 27.8805C5.14935 27.8805 5.1757 27.8527 5.1757 27.8185C5.1757 27.7842 5.14935 27.7564 5.11684 27.7564C5.08434 27.7564 5.05798 27.7842 5.05798 27.8185C5.05798 27.8527 5.08434 27.8805 5.11684 27.8805Z" fill="#F0F0F0"/>
<path d="M5.6968 27.8805C5.72931 27.8805 5.75566 27.8527 5.75566 27.8185C5.75566 27.7842 5.72931 27.7564 5.6968 27.7564C5.66429 27.7564 5.63794 27.7842 5.63794 27.8185C5.63794 27.8527 5.66429 27.8805 5.6968 27.8805Z" fill="#F0F0F0"/>
<path d="M6.27675 27.8694C6.30926 27.8694 6.33561 27.8416 6.33561 27.8073C6.33561 27.7731 6.30926 27.7453 6.27675 27.7453C6.24425 27.7453 6.2179 27.7731 6.2179 27.8073C6.2179 27.8416 6.24425 27.8694 6.27675 27.8694Z" fill="#F0F0F0"/>
<path d="M5.35403 27.6359C5.38653 27.6359 5.41288 27.6081 5.41288 27.5738C5.41288 27.5396 5.38653 27.5118 5.35403 27.5118C5.32152 27.5118 5.29517 27.5396 5.29517 27.5738C5.29517 27.6081 5.32152 27.6359 5.35403 27.6359Z" fill="#F0F0F0"/>
<path d="M6.03945 27.6359C6.07196 27.6359 6.09831 27.6081 6.09831 27.5738C6.09831 27.5396 6.07196 27.5118 6.03945 27.5118C6.00694 27.5118 5.98059 27.5396 5.98059 27.5738C5.98059 27.6081 6.00694 27.6359 6.03945 27.6359Z" fill="#F0F0F0"/>
<path d="M5.34524 28.114C5.37774 28.114 5.40409 28.0862 5.40409 28.052C5.40409 28.0177 5.37774 27.9899 5.34524 27.9899C5.31273 27.9899 5.28638 28.0177 5.28638 28.052C5.28638 28.0862 5.31273 28.114 5.34524 28.114Z" fill="#F0F0F0"/>
<path d="M6.03945 28.1251C6.07196 28.1251 6.09831 28.0974 6.09831 28.0631C6.09831 28.0288 6.07196 28.001 6.03945 28.001C6.00694 28.001 5.98059 28.0288 5.98059 28.0631C5.98059 28.0974 6.00694 28.1251 6.03945 28.1251Z" fill="#F0F0F0"/>
<path fill-rule="evenodd" clip-rule="evenodd" d="M8.45801 22.4824L8.85352 22.2891L9.25781 22.4824H8.45801ZM7.2627 22.4824L7.6582 22.2891L8.0625 22.4824H7.2627ZM6.06738 22.4824L6.46289 22.2891L6.86719 22.4824H6.06738ZM8.45801 18.1758L8.85352 18.3691L9.25781 18.1846H8.45801V18.1758ZM7.2627 18.1758L7.6582 18.3691L8.0625 18.1846H7.2627V18.1758ZM6.06738 18.1758L6.46289 18.3691L6.86719 18.1846H6.06738V18.1758Z" fill="#F0F0F0"/>
<path fill-rule="evenodd" clip-rule="evenodd" d="M8.12402 23.0361L7.6582 23.4141L7.19238 23.0361L6.72656 23.4141L6.26074 23.0361V23.2295L6.57715 23.4053L6.41894 23.5986V23.7832H6.57715L6.72656 23.6074L6.88477 23.7832H7.04297V23.6074L6.88477 23.4141L7.19238 23.2295L7.50879 23.4053L7.35059 23.5986V23.7832H7.50879L7.6582 23.6074L7.81641 23.7832H7.96582V23.6074L7.81641 23.4141L8.12402 23.2295L8.43164 23.4053L8.28223 23.5986V23.7832H8.43164L8.58984 23.6074L8.74805 23.7832H8.89746V23.6074L8.74805 23.4141L9.05566 23.2295V23.0273L8.58984 23.4053L8.12402 23.0273V23.0361ZM8.12402 17.6221L7.6582 17.2441L7.19238 17.6221L6.72656 17.2441L6.26074 17.6221V17.4375L6.57715 17.2441L6.41894 17.0684V16.875H6.57715L6.72656 17.0596L6.88477 16.875H7.04297V17.0596L6.88477 17.2529L7.19238 17.4287L7.50879 17.2529L7.35059 17.0596V16.875H7.50879L7.6582 17.0596L7.81641 16.875H7.96582V17.0596L7.81641 17.2529L8.12402 17.4287L8.43164 17.2529L8.28223 17.0596V16.875H8.43164L8.58984 17.0596L8.74805 16.875H8.89746V17.0596L8.74805 17.2529L9.05566 17.4287V17.6221L8.58984 17.2441L8.12402 17.6221ZM11.6396 20.7334L12.1494 20.3291L11.6484 19.9248L12.1494 19.5205L11.6484 19.1162H11.8945L12.1494 19.3799L12.3955 19.248H12.6416V19.3887L12.3955 19.5205L12.6416 19.6523V19.793H12.3955L12.1494 19.6523L11.8945 19.9248L12.1494 20.1885L12.3955 20.0654H12.6416V20.1973L12.3955 20.3291L12.6416 20.4609V20.6016H12.3955L12.1494 20.4609L11.8945 20.7334L12.1494 20.9971L12.3955 20.8652H12.6416V21.0059L12.3955 21.1377L12.6416 21.2783V21.4102H12.3955L12.1494 21.2783L11.8945 21.542H11.6484L12.1494 21.1377L11.6484 20.7334H11.6396ZM3.67676 20.7334L3.17578 20.3291L3.67676 19.9248L3.17578 19.5205L3.67676 19.1162H3.42187L3.17578 19.3799L2.92969 19.248H2.66602V19.3887L2.92969 19.5117L2.6748 19.6436V19.7842H2.92969L3.17578 19.6436L3.42187 19.916L3.17578 20.1797L2.92969 20.0566H2.66602V20.1885L2.9209 20.3203L2.66602 20.4521V20.5928H2.92969L3.17578 20.4521L3.42187 20.7246L3.17578 20.9971L2.92969 20.8652H2.66602V20.9971L2.9209 21.1289L2.66602 21.2695V21.4014H2.92969L3.17578 21.2695L3.42187 21.5332H3.67676L3.17578 21.1289L3.67676 20.7246V20.7334Z" fill="#00843D"/>
<path fill-rule="evenodd" clip-rule="evenodd" d="M11.838 22.1109H12.0405V22.2901H11.838V22.1109ZM11.6355 22.2901H11.838V22.4799H11.6468L11.6355 22.2901ZM10.6457 23.2284H10.8482V23.4182H10.6457V23.2284ZM10.8482 23.0386H11.0394V23.2284H10.8482V23.0386ZM4.26794 23.0386H4.47041V23.2284H4.25669L4.26794 23.0386ZM3.26685 22.1109H3.46931V22.2901H3.26685V22.1109ZM3.46931 22.2901H3.67178V22.4799H3.46931V22.2901ZM3.46931 18.1785H3.67178V18.3683H3.46931V18.1785ZM3.26685 18.3683H3.46931V18.5581H3.26685V18.3683ZM4.47041 17.2508H4.66163V17.4406H4.48166L4.47041 17.2508ZM4.26794 17.4406H4.47041V17.6303H4.25669L4.26794 17.4406ZM10.6457 17.2508H10.8482V17.4406H10.6457V17.2508ZM10.8482 17.4406H11.0394V17.6303H10.8482V17.4406ZM11.6355 18.1785H11.838V18.3683H11.6468L11.6355 18.1785ZM11.838 18.3789H12.0405V18.5581H11.838V18.3789ZM4.48166 23.2284H4.67288V23.4182H4.48166V23.2284Z" fill="#00843D"/>
<path fill-rule="evenodd" clip-rule="evenodd" d="M4.45318 17.2345H4.67806V17.4569H4.48684V17.6467H4.23946L4.25264 17.4242H4.46442L4.45318 17.2345ZM4.49715 17.4242H4.64539V17.2671H4.48784L4.49715 17.4242ZM4.45417 17.4569H4.28343L4.27412 17.614H4.45417V17.4569ZM10.6295 17.2345H10.8646V17.4242H11.0558V17.6467H10.8319V17.4569H10.6295V17.2345ZM10.8646 17.4569V17.614H11.0231V17.4569H10.8646ZM10.8319 17.4242V17.2671H10.6621V17.4242H10.8319ZM3.45308 18.1622H3.68822V18.3846H3.48575V18.5744H3.25061V18.352H3.45308V18.1622ZM3.45308 18.3846H3.28328V18.5417H3.45308V18.3846ZM3.48575 18.352H3.65555V18.1949H3.48575V18.352ZM11.6183 18.1622H11.8544V18.3625H12.0569V18.5744H11.8218V18.3846H11.6315L11.6183 18.1622ZM11.8544 18.3952V18.5417H12.0242V18.3952H11.8544ZM11.8218 18.352V18.1949H11.653L11.6623 18.352H11.8218ZM3.25061 22.0945H3.48575V22.2738H3.68822V22.4962H3.45308V22.3064H3.25061V22.0945ZM3.48575 22.3064V22.4635H3.65555V22.3064H3.48575ZM3.45308 22.2738V22.1272H3.28328V22.2738H3.45308ZM11.8218 22.0945H12.0569V22.3064H11.8544V22.4962H11.6315L11.6183 22.2738H11.8218V22.0945ZM11.8218 22.3064H11.653L11.6623 22.4635H11.8218V22.3064ZM11.8544 22.2738H12.0242V22.1272H11.8544V22.2738ZM4.25264 23.0223H4.48684V23.2121H4.68931V23.4345H4.46542V23.2447H4.23946L4.25264 23.0223ZM4.49809 23.2447V23.4018H4.65664V23.2447H4.49809ZM4.45417 23.2121V23.055H4.28343L4.27412 23.2121H4.45417ZM10.8319 23.0223H11.0558V23.2447H10.8646V23.4345H10.6295V23.2121H10.8319V23.0223ZM10.8319 23.2447H10.6621V23.4018H10.8319V23.2447ZM10.8646 23.2121H11.0231V23.055H10.8646V23.2121Z" fill="black"/>
<path fill-rule="evenodd" clip-rule="evenodd" d="M7.05176 20.3291H6.46289V19.96H6.8584V19.6172H7.24512V19.3008H7.64063V19.6963C7.31543 19.6963 7.05176 19.96 7.05176 20.3291Z" fill="#F0F0F0"/>
<path fill-rule="evenodd" clip-rule="evenodd" d="M8.22949 20.3291H8.81836V19.96H8.42285V19.6172H8.02734V19.3008H7.64062V19.6963C7.96582 19.6963 8.22949 19.96 8.22949 20.3291Z" fill="#FAAE29"/>
<path fill-rule="evenodd" clip-rule="evenodd" d="M8.22949 20.3291H8.81836V20.6982H8.42285V21.041H8.02734V21.3574H7.64062V20.9619C7.96582 20.9619 8.22949 20.6982 8.22949 20.3291Z" fill="#F0F0F0"/>
<path fill-rule="evenodd" clip-rule="evenodd" d="M7.05176 20.3291H6.46289V20.6982H6.8584V21.041H7.24512V21.3574H7.64063V20.9619C7.31543 20.9619 7.05176 20.6982 7.05176 20.3291Z" fill="#FAAE29"/>
<path fill-rule="evenodd" clip-rule="evenodd" d="M8.22949 20.3291H7.64062V19.6963C7.96582 19.6963 8.22949 19.9863 8.22949 20.3291Z" fill="#00843D"/>
<path fill-rule="evenodd" clip-rule="evenodd" d="M8.22949 20.3291H7.64062V20.9619C7.96582 20.9619 8.22949 20.6807 8.22949 20.3291Z" fill="#CA3745"/>
<path fill-rule="evenodd" clip-rule="evenodd" d="M7.05176 20.3291H7.64063V20.9619C7.31543 20.9619 7.05176 20.6807 7.05176 20.3291Z" fill="#00843D"/>
<path fill-rule="evenodd" clip-rule="evenodd" d="M7.05176 20.3291H7.64063V19.6963C7.31543 19.6963 7.05176 19.9863 7.05176 20.3291Z" fill="#CA3745"/>
<path fill-rule="evenodd" clip-rule="evenodd" d="M8.25586 22.667L7.6582 22.2891L7.06055 22.667L6.46289 22.2891L5.86523 22.667V22.4824L6.26074 22.2891L6.06738 22.1045V21.9199H6.26074L6.46289 22.1045L6.66504 21.9199H6.86719V22.1045L6.66504 22.2891L7.06055 22.4824L7.46484 22.2891L7.2627 22.1045V21.9199H7.46484L7.6582 22.1045L7.86035 21.9199H8.0625V22.1045L7.86035 22.2891L8.25586 22.4824L8.66016 22.2891L8.45801 22.1045V21.9199H8.66016L8.85351 22.1045L9.05566 21.9199H9.25781V22.1045L9.05566 22.2891L9.45117 22.4824V22.6582L8.85351 22.2891L8.25586 22.667ZM8.25586 18L7.6582 18.3691L7.06055 18L6.46289 18.3691L5.86523 18V18.1758L6.26074 18.3691L6.06738 18.5537V18.7471H6.26074L6.46289 18.5537L6.66504 18.7471H6.86719V18.5449L6.66504 18.3691L7.06055 18.1758L7.46484 18.3604L7.2627 18.5449V18.7383H7.46484L7.6582 18.5449L7.86035 18.7383H8.0625V18.5449L7.86035 18.3691L8.25586 18.1758L8.66016 18.3604L8.45801 18.5449V18.7383H8.66016L8.85351 18.5449L9.05566 18.7383H9.25781V18.5449L9.05566 18.3691L9.45117 18.1758V17.9912L8.85351 18.3604L8.25586 17.9912V18ZM10.4531 20.7949L10.1543 20.3291L10.4531 19.8633L10.1543 19.3975L10.4531 18.9316H10.3037L10.1543 19.2393L10.0049 19.0811H9.85547V19.2393L10.0049 19.3975L9.85547 19.5557V19.7051H10.0049L10.1543 19.5557L10.3037 19.8633L10.1543 20.1709L10.0049 20.0215H9.85547V20.1709L10.0049 20.3291L9.85547 20.4873V20.6455H10.0049L10.1543 20.4873L10.3037 20.7949L10.1543 21.1113L10.0049 20.9531H9.85547V21.1113L10.0049 21.2607L9.85547 21.4189V21.5771H10.0049L10.1543 21.4189L10.3037 21.7354H10.4531L10.1543 21.2607L10.4531 20.7949Z" fill="#00843D"/>
<path fill-rule="evenodd" clip-rule="evenodd" d="M5.86882 18.1891L5.08145 18.9271V21.7314L5.86882 22.4799H9.46826L10.2556 21.7419V18.9376L9.45701 18.1891H5.86882ZM5.66635 17.6198L3.67542 19.4964V21.1832L5.6776 23.0386H9.65948L11.6504 21.1726V19.4858L9.65948 17.6198H5.6776H5.66635Z" fill="#00843D"/>
<path fill-rule="evenodd" clip-rule="evenodd" d="M5.65764 17.598H9.66802L11.6721 19.4764V21.1821L9.66802 23.0604H5.66899L3.65356 21.1927V19.487L5.65764 17.598ZM5.67493 17.6416L3.69712 19.5058V21.1737L5.68607 23.0169H9.6508L11.6286 21.1632V19.4953L9.6508 17.6416H5.67493ZM5.86014 18.1673H9.46555L10.2773 18.9282V21.7513L9.4768 22.5017H5.86005L5.05959 21.7407V18.9176L5.86014 18.1673ZM5.87736 18.2109L5.10315 18.9365V21.722L5.87745 22.4581H9.45958L10.2338 21.7325V18.947L9.44833 18.2109H5.87736Z" fill="black"/>
<path fill-rule="evenodd" clip-rule="evenodd" d="M6.69686 22.6626L7.01182 23.0421L7.33576 22.6626H6.68787H6.69686Z" fill="#FAAE29"/>
<path fill-rule="evenodd" clip-rule="evenodd" d="M7.36157 22.6507L7.01162 23.0606L6.6912 22.6745H6.6878V22.6704L6.68762 22.6702L6.6878 22.6701V22.6507H7.36157ZM6.7222 22.6745H7.30984L7.01188 23.0236L6.7222 22.6745Z" fill="black"/>
<path fill-rule="evenodd" clip-rule="evenodd" d="M6.69686 17.9956L7.01182 17.6161L7.33576 17.9956H6.68787H6.69686Z" fill="#FAAE29"/>
<path fill-rule="evenodd" clip-rule="evenodd" d="M7.36157 18.0075L7.01162 17.5976L6.6912 17.9837H6.6878V17.9878L6.68762 17.988L6.6878 17.9881V18.0075H7.36157ZM6.7222 17.9837H7.30984L7.01188 17.6346L6.7222 17.9837Z" fill="black"/>
<path fill-rule="evenodd" clip-rule="evenodd" d="M7.98007 17.9956L8.29502 17.6161L8.61897 17.9956H7.97107H7.98007Z" fill="#FAAE29"/>
<path fill-rule="evenodd" clip-rule="evenodd" d="M8.64477 18.0075L8.29483 17.5976L7.9744 17.9837H7.97101V17.9878L7.97083 17.988L7.97101 17.9881V18.0075H8.64477ZM8.00541 17.9837H8.59304L8.29508 17.6346L8.00541 17.9837Z" fill="black"/>
<path fill-rule="evenodd" clip-rule="evenodd" d="M7.98007 22.6626L8.29502 23.0421L8.61897 22.6626H7.97107H7.98007Z" fill="#FAAE29"/>
<path fill-rule="evenodd" clip-rule="evenodd" d="M8.64477 22.6507L8.29483 23.0606L7.9744 22.6745H7.97101V22.6704L7.97083 22.6702L7.97101 22.6701V22.6507H8.64477ZM8.00541 22.6745H8.59304L8.29508 23.0236L8.00541 22.6745Z" fill="black"/>
<path fill-rule="evenodd" clip-rule="evenodd" d="M6.06393 17.9956L6.37888 17.6161L6.70283 17.9956H6.05493H6.06393Z" fill="#CA3745"/>
<path fill-rule="evenodd" clip-rule="evenodd" d="M6.72876 18.0075L6.37881 17.5976L6.05839 17.9837H6.05499V17.9878L6.05481 17.988L6.05499 17.9881V18.0075H6.72876ZM6.08939 17.9837H6.67702L6.37907 17.6346L6.08939 17.9837Z" fill="black"/>
<path fill-rule="evenodd" clip-rule="evenodd" d="M7.33834 17.9956L7.65329 17.6161L7.97724 17.9956H7.32935H7.33834Z" fill="#CA3745"/>
<path fill-rule="evenodd" clip-rule="evenodd" d="M8.00317 18.0075L7.65323 17.5976L7.3328 17.9837H7.3294V17.9878L7.32922 17.988L7.3294 17.9881V18.0075H8.00317ZM7.3638 17.9837H7.95144L7.65348 17.6346L7.3638 17.9837Z" fill="black"/>
<path fill-rule="evenodd" clip-rule="evenodd" d="M8.61276 17.9956L8.92771 17.6161L9.25166 17.9956H8.60376H8.61276Z" fill="#CA3745"/>
<path fill-rule="evenodd" clip-rule="evenodd" d="M9.27758 18.0075L8.92764 17.5976L8.60722 17.9837H8.60382V17.9878L8.60364 17.988L8.60382 17.9881V18.0075H9.27758ZM8.63822 17.9837H9.22585L8.9279 17.6346L8.63822 17.9837Z" fill="black"/>
<path fill-rule="evenodd" clip-rule="evenodd" d="M5.27649 22.1047L5.86699 22.6582H5.27649V22.1047Z" fill="#CA3745"/>
<path fill-rule="evenodd" clip-rule="evenodd" d="M5.25208 22.6827H5.92905L5.25208 22.0482V22.6827ZM5.30108 22.6337V22.1613L5.80511 22.6337H5.30108Z" fill="black"/>
<path fill-rule="evenodd" clip-rule="evenodd" d="M4.86328 20.7949L5.1709 20.3291L4.86328 19.8633L5.16211 19.3975L4.86328 18.9316H5.0127L5.16211 19.2393L5.31152 19.0811H5.46094V19.2393L5.31152 19.3975L5.46094 19.5557V19.7051H5.31152L5.16211 19.5557L5.0127 19.8633L5.16211 20.1709L5.31152 20.0215H5.46094V20.1709L5.31152 20.3291L5.46094 20.4873V20.6455H5.31152L5.16211 20.4873L5.0127 20.7949L5.16211 21.1113L5.31152 20.9531H5.46094V21.1113L5.31152 21.2607L5.46094 21.4189V21.5771H5.31152L5.16211 21.4189L5.0127 21.7354H4.86328L5.16211 21.2607L4.86328 20.7949Z" fill="#00843D"/>
<path fill-rule="evenodd" clip-rule="evenodd" d="M10.6447 19.8249H11.4433L11.6457 19.9957L11.4433 20.1665H10.6559V19.8154L10.6447 19.8249Z" fill="#CA3745"/>
<path fill-rule="evenodd" clip-rule="evenodd" d="M10.6404 19.8404H10.6023L10.6714 19.7821V19.8094H11.449L11.6698 19.9957L11.449 20.182H10.6404V19.8404ZM10.6714 19.8404H11.4377L11.6218 19.9957L11.4377 20.151H10.6714V19.8404Z" fill="black"/>
<path fill-rule="evenodd" clip-rule="evenodd" d="M5.27145 18.5581L4.86651 18.9376V21.7314L5.27145 22.1109H4.67529V18.5581H5.27145Z" fill="#CA3745"/>
<path fill-rule="evenodd" clip-rule="evenodd" d="M4.65344 18.5363H5.32646L4.88822 18.947V21.7219L5.32646 22.1327H4.65344V18.5363ZM4.697 18.5799V22.0891H5.21629L4.84466 21.7408V18.9282L5.21629 18.5799H4.697Z" fill="black"/>
<path fill-rule="evenodd" clip-rule="evenodd" d="M6.06393 22.6626L6.37888 23.0421L6.70283 22.6626H6.05493H6.06393Z" fill="#CA3745"/>
<path fill-rule="evenodd" clip-rule="evenodd" d="M6.72876 22.6507L6.37881 23.0606L6.05839 22.6745H6.05499V22.6704L6.05481 22.6702L6.05499 22.6701V22.6507H6.72876ZM6.08939 22.6745H6.67702L6.37907 23.0236L6.08939 22.6745Z" fill="black"/>
<path fill-rule="evenodd" clip-rule="evenodd" d="M7.33834 22.6626L7.65329 23.0421L7.97724 22.6626H7.32935H7.33834Z" fill="#CA3745"/>
<path fill-rule="evenodd" clip-rule="evenodd" d="M8.00317 22.6507L7.65323 23.0606L7.3328 22.6745H7.3294V22.6704L7.32922 22.6702L7.3294 22.6701V22.6507H8.00317ZM7.3638 22.6745H7.95144L7.65348 23.0236L7.3638 22.6745Z" fill="black"/>
<path fill-rule="evenodd" clip-rule="evenodd" d="M8.61276 22.6626L8.92771 23.0421L9.25166 22.6626H8.60376H8.61276Z" fill="#CA3745"/>
<path fill-rule="evenodd" clip-rule="evenodd" d="M9.27758 22.6507L8.92764 23.0606L8.60722 22.6745H8.60382V22.6704L8.60364 22.6702L8.60382 22.6701V22.6507H9.27758ZM8.63822 22.6745H9.22585L8.9279 23.0236L8.63822 22.6745Z" fill="black"/>
<path fill-rule="evenodd" clip-rule="evenodd" d="M10.045 18.5581L10.4499 18.9376V21.7314L10.045 22.1109H10.6411V18.5581H10.045Z" fill="#CA3745"/>
<path fill-rule="evenodd" clip-rule="evenodd" d="M10.663 18.5363H9.98994L10.4282 18.947V21.7219L9.98994 22.1327H10.663V18.5363ZM10.6194 18.5799V22.0891H10.1001L10.4717 21.7408V18.9282L10.1001 18.5799H10.6194Z" fill="black"/>
<path fill-rule="evenodd" clip-rule="evenodd" d="M10.0487 22.1047L9.4582 22.6582H10.0487V22.1047Z" fill="#CA3745"/>
<path fill-rule="evenodd" clip-rule="evenodd" d="M10.0731 22.6827H9.39615L10.0731 22.0482V22.6827ZM10.0241 22.6337V22.1613L9.52009 22.6337H10.0241Z" fill="black"/>
<path fill-rule="evenodd" clip-rule="evenodd" d="M10.0487 18.5535L9.4582 18H10.0487V18.5535Z" fill="#CA3745"/>
<path fill-rule="evenodd" clip-rule="evenodd" d="M10.0731 17.9755H9.39615L10.0731 18.61V17.9755ZM10.0241 18.0245V18.4969L9.52009 18.0245H10.0241Z" fill="black"/>
<path fill-rule="evenodd" clip-rule="evenodd" d="M5.27649 18.5535L5.86699 18H5.27649V18.5535Z" fill="#CA3745"/>
<path fill-rule="evenodd" clip-rule="evenodd" d="M5.25208 17.9755H5.92905L5.25208 18.61V17.9755ZM5.30108 18.0245V18.4969L5.80511 18.0245H5.30108Z" fill="black"/>
<path fill-rule="evenodd" clip-rule="evenodd" d="M5.86875 18.1891L5.08137 18.9271V21.7314L5.86875 22.4799H9.46819L10.2556 21.7419V18.9376L9.45694 18.1891H5.86875ZM5.86875 17.9993L4.87891 18.9271V21.7314L5.86875 22.6696H9.46819L10.458 21.7314V18.9271L9.45694 17.9993H5.86875Z" fill="#00843D"/>
<path fill-rule="evenodd" clip-rule="evenodd" d="M5.86019 17.9775H9.46553L10.4799 18.9175V21.7407L9.47692 22.6914H5.86012L4.85718 21.7407V18.9176L5.86019 17.9775ZM5.87741 18.0211L4.90074 18.9365V21.722L5.87748 22.6479H9.45956L10.4363 21.722V18.9366L9.44845 18.0211H5.87741ZM5.86019 18.1673H9.4656L10.2774 18.9282V21.7513L9.47685 22.5017H5.8601L5.05965 21.7407V18.9176L5.86019 18.1673ZM5.87741 18.2109L5.10321 18.9365V21.722L5.8775 22.4581H9.45963L10.2338 21.7325V18.947L9.44838 18.2109H5.87741Z" fill="black"/>
<path fill-rule="evenodd" clip-rule="evenodd" d="M10.6447 20.1598H11.4433L11.6457 20.3306L11.4433 20.5014H10.6559V20.1503L10.6447 20.1598Z" fill="#FAAE29"/>
<path fill-rule="evenodd" clip-rule="evenodd" d="M10.6404 20.1753H10.6023L10.6714 20.117V20.1443H11.449L11.6698 20.3306L11.449 20.5169H10.6404V20.1753ZM10.6714 20.1753H11.4377L11.6218 20.3306L11.4377 20.4859H10.6714V20.1753Z" fill="black"/>
<path fill-rule="evenodd" clip-rule="evenodd" d="M10.6447 20.4929H11.4433L11.6457 20.6636L11.4433 20.8344H10.6559V20.4834L10.6447 20.4929Z" fill="#CA3745"/>
<path fill-rule="evenodd" clip-rule="evenodd" d="M10.6404 20.5084H10.6023L10.6714 20.45V20.4774H11.449L11.6698 20.6637L11.449 20.8499H10.6404V20.5084ZM10.6714 20.5084H11.4377L11.6218 20.6637L11.4377 20.819H10.6714V20.5084Z" fill="black"/>
<path fill-rule="evenodd" clip-rule="evenodd" d="M10.6447 20.8278H11.4433L11.6457 20.9986L11.4433 21.1694H10.6559V20.8183L10.6447 20.8278Z" fill="#FAAE29"/>
<path fill-rule="evenodd" clip-rule="evenodd" d="M10.6404 20.8433H10.6023L10.6714 20.785V20.8123H11.449L11.6698 20.9986L11.449 21.1849H10.6404V20.8433ZM10.6714 20.8433H11.4377L11.6218 20.9986L11.4377 21.1539H10.6714V20.8433Z" fill="black"/>
<path fill-rule="evenodd" clip-rule="evenodd" d="M10.6447 19.4831H11.4433L11.6457 19.6539L11.4433 19.8247H10.6559V19.4736L10.6447 19.4831Z" fill="#FAAE29"/>
<path fill-rule="evenodd" clip-rule="evenodd" d="M10.6404 19.4986H10.6023L10.6714 19.4402V19.4676H11.449L11.6698 19.6539L11.449 19.8402H10.6404V19.4986ZM10.6714 19.4986H11.4377L11.6218 19.6539L11.4377 19.8092H10.6714V19.4986Z" fill="black"/>
<path fill-rule="evenodd" clip-rule="evenodd" d="M4.67175 19.8249H3.87313L3.67066 19.9957L3.87313 20.1665H4.6605V19.8154L4.67175 19.8249Z" fill="#CA3745"/>
<path fill-rule="evenodd" clip-rule="evenodd" d="M4.67596 19.8404H4.71411L4.64497 19.7821V19.8094H3.86742L3.64658 19.9957L3.86742 20.182H4.67596V19.8404ZM4.64497 19.8404H3.87875L3.69465 19.9957L3.87875 20.151H4.64497V19.8404Z" fill="black"/>
<path fill-rule="evenodd" clip-rule="evenodd" d="M4.67175 20.1598H3.87313L3.67066 20.3306L3.87313 20.5014H4.6605V20.1503L4.67175 20.1598Z" fill="#FAAE29"/>
<path fill-rule="evenodd" clip-rule="evenodd" d="M4.67596 20.1753H4.71411L4.64497 20.117V20.1443H3.86742L3.64658 20.3306L3.86742 20.5169H4.67596V20.1753ZM4.64497 20.1753H3.87875L3.69465 20.3306L3.87875 20.4859H4.64497V20.1753Z" fill="black"/>
<path fill-rule="evenodd" clip-rule="evenodd" d="M4.67175 20.4929H3.87313L3.67066 20.6636L3.87313 20.8344H4.6605V20.4834L4.67175 20.4929Z" fill="#CA3745"/>
<path fill-rule="evenodd" clip-rule="evenodd" d="M4.67596 20.5084H4.71411L4.64497 20.45V20.4774H3.86742L3.64658 20.6637L3.86742 20.8499H4.67596V20.5084ZM4.64497 20.5084H3.87875L3.69465 20.6637L3.87875 20.819H4.64497V20.5084Z" fill="black"/>
<path fill-rule="evenodd" clip-rule="evenodd" d="M4.67175 20.8278H3.87313L3.67066 20.9986L3.87313 21.1694H4.6605V20.8183L4.67175 20.8278Z" fill="#FAAE29"/>
<path fill-rule="evenodd" clip-rule="evenodd" d="M4.67596 20.8433H4.71411L4.64497 20.785V20.8123H3.86742L3.64658 20.9986L3.86742 21.1849H4.67596V20.8433ZM4.64497 20.8433H3.87875L3.69465 20.9986L3.87875 21.1539H4.64497V20.8433Z" fill="black"/>
<path fill-rule="evenodd" clip-rule="evenodd" d="M4.67175 19.4831H3.87313L3.67066 19.6539L3.87313 19.8247H4.6605V19.4736L4.67175 19.4831Z" fill="#FAAE29"/>
<path fill-rule="evenodd" clip-rule="evenodd" d="M4.67596 19.4986H4.71411L4.64497 19.4402V19.4676H3.86742L3.64658 19.6539L3.86742 19.8402H4.67596V19.4986ZM4.64497 19.4986H3.87875L3.69465 19.6539L3.87875 19.8092H4.64497V19.4986Z" fill="black"/>
<path fill-rule="evenodd" clip-rule="evenodd" d="M3.46936 18.3788V22.2796H4.47045V23.2178H10.8482V22.2796H11.8381V18.3788H10.8482V17.4511H4.47045V18.3788H3.46936ZM3.67183 18.5581V22.1109H4.66167V23.0386H10.6457V22.1109H11.6468V18.5581H10.6457V17.6409H4.66167V18.5686H3.67183V18.5581Z" fill="#970000"/>
<path fill-rule="evenodd" clip-rule="evenodd" d="M4.4541 17.4348H10.8645V18.3625H11.8544V22.2959H10.8645V23.2342H4.4541V22.2959H3.453V18.3625H4.4541V17.4348ZM4.48677 17.4675V18.3952H3.48567V22.2632H4.48677V23.2015H10.8319V22.2632H11.8217V18.3952H10.8319V17.4675H4.48677ZM4.64532 17.6245H10.6621V18.5417H11.6631V22.1272H10.6621V23.055H4.64532V22.1272H3.65547V18.5581H3.67181V18.5523H4.64532V17.6245ZM3.68814 18.585V22.0946H4.67799V23.0223H10.6294V22.0946H11.6305V18.5744H10.6294V17.6572H4.67799V18.585H3.68814Z" fill="black"/>
<path fill-rule="evenodd" clip-rule="evenodd" d="M12.6376 3.7799L12.0414 3.06009V2.52277L11.4452 1.98544H10.2529L9.25183 1.44812H6.06858L5.06749 1.98544H3.87517L3.27902 2.52277V3.06009L2.68286 3.76976V5.21952L3.27902 5.9292V6.47666L3.87517 7.01398H5.06749L6.06858 7.55131H9.25183L10.2529 7.01398H11.4452L12.0526 6.47666V5.93934L12.6488 5.21952V3.76976L12.6376 3.7799Z" fill="#CA3745"/>
<path fill-rule="evenodd" clip-rule="evenodd" d="M6.06458 1.4321H9.25589L10.257 1.96942H11.4514L12.0574 2.51564V3.05432L12.6393 3.75682L12.6649 3.73376V5.22529L12.0687 5.9451V6.48387L11.4513 7.03H10.257L9.25589 7.56732H6.06458L5.06349 7.03H3.86905L3.26303 6.48378V5.93503L2.66687 5.22536V3.76393L3.26303 3.05425V2.51564L3.86905 1.96942H5.06349L6.06458 1.4321ZM12.6328 3.79925L12.0254 3.06586V2.52989L11.4391 2.00146H10.2489L9.24784 1.46413H6.07264L5.07154 2.00146H3.88136L3.29506 2.52989V3.06592L2.69891 3.7756V5.21369L3.29506 5.92336V6.46953L3.88136 6.99796H5.07154L6.07264 7.53529H9.24783L10.2489 6.99796H11.4392L12.0367 6.46944V5.93356L12.6328 5.21375V3.79925Z" fill="black"/>
<path fill-rule="evenodd" clip-rule="evenodd" d="M2.87695 4.5V5.03613L3.47461 5.75684V6.29297L4.07227 6.83789H5.26758L6.26953 7.36523H7.6582V4.50879H2.87695V4.5Z" fill="#FAAE29"/>
<path fill-rule="evenodd" clip-rule="evenodd" d="M5.97949 5.75684L5.25 6.22266H4.81055L4.95996 6.37207L4.66992 6.67969L4.81934 6.83789L5.25879 6.67969L5.39941 6.83789L5.46094 6.4248L6.26953 5.93262L5.97949 5.75684Z" fill="#CA3745"/>
<path fill-rule="evenodd" clip-rule="evenodd" d="M5.17969 5.39648L4.4502 5.8623H4.01953L4.16016 6.01172L3.87891 6.31934L4.01953 6.47754L4.45898 6.31934L4.59961 6.47754L4.66992 6.06445L5.46973 5.58105L5.17969 5.40527V5.39648ZM4.78418 4.67578L4.05469 5.1416H3.61523L3.76465 5.2998L3.47461 5.60742L3.62402 5.75684L4.06348 5.59863L4.2041 5.75684L4.26562 5.34375L5.07422 4.86035L4.78418 4.68457V4.67578Z" fill="#CA3745"/>
<path fill-rule="evenodd" clip-rule="evenodd" d="M12.4395 4.5V3.96387L11.8418 3.24316V2.70703L11.2441 2.16211H10.0488L9.05566 1.62598H7.6582V4.5H12.4395Z" fill="#FAAE29"/>
<path fill-rule="evenodd" clip-rule="evenodd" d="M7.6582 7.37402H7.28906L6.86719 7.01367H6.18164L5.8125 6.83789L5.99707 6.66211L6.36621 6.83789H6.73535L7.10449 6.29297L7.6582 6.46875V6.83789H7.10449L7.6582 7.36523V7.37402Z" fill="#CA3745"/>
<path fill-rule="evenodd" clip-rule="evenodd" d="M2.87695 4.5V3.96387L3.47461 3.24316V2.70703L4.07227 2.16211H5.26758L6.26953 1.62598H7.6582V4.5H2.87695Z" fill="#F0F0F0"/>
<path fill-rule="evenodd" clip-rule="evenodd" d="M7.6582 1.62598H7.28906L6.86719 1.97754H6.18164L5.8125 2.16211L5.99707 2.33789L6.36621 2.16211H6.73535L7.10449 2.70703L7.6582 2.53125V2.16211H7.10449L7.6582 1.62598Z" fill="#CA3745"/>
<path fill-rule="evenodd" clip-rule="evenodd" d="M7.6582 1.62598H8.02734L8.45801 1.97754H9.13477L9.50391 2.16211L9.32812 2.33789L8.9502 2.16211H8.58105L8.21191 2.70703L7.6582 2.53125V2.16211H8.21191L7.6582 1.62598Z" fill="#CA3745"/>
<path fill-rule="evenodd" clip-rule="evenodd" d="M12.4395 4.5V5.03613L11.8418 5.75684V6.29297L11.2441 6.83789H10.0488L9.05566 7.36523H7.6582V4.50879H12.4395V4.5Z" fill="#F0F0F0"/>
<path fill-rule="evenodd" clip-rule="evenodd" d="M7.6582 7.37402H8.02734L8.45801 7.01367H9.13477L9.50391 6.83789L9.32812 6.66211L8.95019 6.83789H8.58105L8.21191 6.29297L7.6582 6.46875V6.83789H8.21191L7.6582 7.36523V7.37402ZM5.17969 3.59473L4.4502 3.1377H4.01953L4.16016 2.98828L3.87891 2.68066L4.01953 2.52246L4.45898 2.68066L4.59961 2.52246L4.66992 2.93555L5.46973 3.41895L5.17969 3.59473ZM9.3457 3.24316L10.0664 2.77734H10.5059L10.3564 2.62793L10.6465 2.32031L10.5059 2.16211L10.0664 2.32031L9.92578 2.16211L9.85547 2.5752L9.05566 3.06738L9.3457 3.24316Z" fill="#CA3745"/>
<path fill-rule="evenodd" clip-rule="evenodd" d="M5.97949 3.24316L5.25 2.77734H4.81055L4.95996 2.62793L4.66992 2.32031L4.81934 2.16211L5.25879 2.32031L5.39941 2.16211L5.46094 2.5752L6.26953 3.05859L5.97949 3.23437V3.24316ZM4.77539 4.32422L4.0459 3.8584H3.60645L3.75586 3.7002L3.46582 3.39258L3.63281 3.25195L4.07227 3.41016L4.21289 3.25195L4.27441 3.66504L5.08301 4.14844L4.79297 4.32422H4.77539Z" fill="#CA3745"/>
<path fill-rule="evenodd" clip-rule="evenodd" d="M3.2373 4.5H3.41309L3.59766 4.67578L3.78223 4.5H7.6582V7.01367H7.48242L7.6582 7.18945V7.38281L7.10449 6.84668V6.6709H7.28906V6.84668H7.47363V6.6709L5.97949 5.87988H4.71387V5.08887L4.16016 4.69336H3.79102L3.60645 4.86914L3.78223 5.04492H3.60645L3.2373 4.51758V4.5Z" fill="#F0F0F0"/>
<path fill-rule="evenodd" clip-rule="evenodd" d="M3.2373 4.5H3.41309L3.59766 4.32422L3.78223 4.5H7.6582V1.98633H7.48242L7.6582 1.81055V1.62598L7.10449 2.16211V2.33789H7.28906V2.16211H7.47363V2.33789L5.97949 3.1377H4.71387V3.91992L4.16016 4.32422H3.79102L3.60645 4.14844L3.78223 3.96387H3.60645L3.2373 4.5Z" fill="#FAAE29"/>
<path fill-rule="evenodd" clip-rule="evenodd" d="M4.07227 4.5H7.6582V6.65332L6.06738 5.75684H4.87207V5.03613L4.08105 4.5H4.07227Z" fill="#00843D"/>
<path fill-rule="evenodd" clip-rule="evenodd" d="M10.1367 3.60352L10.8662 3.1377H11.3057L11.1563 2.98828L11.4463 2.68066L11.3057 2.52246L10.8662 2.68066L10.7256 2.52246L10.6553 2.93555L9.85547 3.41895L10.1367 3.59473V3.60352ZM10.541 4.32422L11.2705 3.8584H11.7012L11.5518 3.7002L11.8418 3.39258L11.7012 3.24316L11.2617 3.40137L11.1211 3.24316L11.0508 3.65625L10.251 4.13965L10.541 4.31543V4.32422Z" fill="#CA3745"/>
<path fill-rule="evenodd" clip-rule="evenodd" d="M12.0879 4.5H11.9033L11.7188 4.32422L11.5342 4.5H7.6582V1.98633H7.84277L7.6582 1.81055V1.62598L8.21191 2.16211V2.33789H8.02734V2.16211H7.84277V2.33789L9.33691 3.1377H10.6025V3.91992L11.165 4.32422H11.5342L11.71 4.14844L11.5342 3.96387H11.71L12.0879 4.5Z" fill="#F0F0F0"/>
<path fill-rule="evenodd" clip-rule="evenodd" d="M11.2441 4.5H7.6582V2.34668L9.25781 3.24316H10.4531V3.96387L11.2529 4.5H11.2441Z" fill="#00843D"/>
<path fill-rule="evenodd" clip-rule="evenodd" d="M9.3457 5.75684L10.0664 6.22266H10.5059L10.3564 6.37207L10.6465 6.67969L10.5059 6.83789L10.0664 6.67969L9.92578 6.83789L9.85547 6.4248L9.05566 5.93262L9.3457 5.75684Z" fill="#CA3745"/>
<path fill-rule="evenodd" clip-rule="evenodd" d="M10.1367 5.39648L10.8662 5.8623H11.3057L11.1563 6.01172L11.4463 6.31934L11.3057 6.47754L10.8662 6.31934L10.7256 6.47754L10.6553 6.06445L9.85547 5.58105L10.1367 5.40527V5.39648ZM10.541 4.67578L11.2705 5.1416H11.7012L11.5518 5.29102L11.8418 5.59863L11.7012 5.75684L11.2617 5.59863L11.1211 5.75684L11.0508 5.34375L10.251 4.86035L10.541 4.68457V4.67578Z" fill="#CA3745"/>
<path fill-rule="evenodd" clip-rule="evenodd" d="M12.0879 4.5H11.9033L11.7188 4.67578L11.5342 4.5H7.6582V7.01367H7.84277L7.6582 7.18945V7.38281L8.21191 6.84668V6.6709H8.02734V6.84668H7.84277V6.6709L9.33691 5.87988H10.6025V5.08887L11.165 4.69336H11.5342L11.71 4.86914L11.5342 5.04492H11.71L12.0879 4.51758V4.5Z" fill="#FAAE29"/>
<path fill-rule="evenodd" clip-rule="evenodd" d="M11.2441 4.5H7.6582V6.65332L9.25781 5.75684H10.4531V5.03613L11.2529 4.5H11.2441ZM4.07227 4.5H7.6582V2.34668L6.06738 3.24316H4.87207V3.96387L4.08105 4.5H4.07227Z" fill="#CA3745"/>
<path fill-rule="evenodd" clip-rule="evenodd" d="M8.05371 4.5L9.05566 3.96387H9.65332L9.45117 3.78809L9.85547 3.41895L9.65332 3.24316L9.05566 3.41895L8.85351 3.24316L8.76562 3.72656L7.6582 4.28906L8.05371 4.5ZM7.2627 4.5L6.26953 5.03613H5.67187L5.86523 5.21191L5.46973 5.58105L5.67187 5.75684L6.26953 5.58105L6.46289 5.75684L6.55078 5.27344L7.6582 4.71094L7.2627 4.5Z" fill="#CA3745"/>
<path fill-rule="evenodd" clip-rule="evenodd" d="M7.2627 4.5L6.26953 3.96387H5.67187L5.87402 3.78809L5.47852 3.41895L5.68066 3.24316L6.27832 3.41895L6.47168 3.24316L6.55957 3.72656L7.66699 4.28906L7.27148 4.5H7.2627ZM8.05371 4.5L9.05566 5.03613H9.65332L9.45117 5.21191L9.85547 5.58105L9.65332 5.75684L9.05566 5.58105L8.85351 5.75684L8.76562 5.27344L7.6582 4.71094L8.05371 4.5Z" fill="#00843D"/>
<path fill-rule="evenodd" clip-rule="evenodd" d="M6.46289 4.5L7.6582 3.60352L8.85352 4.5L7.6582 5.39648L6.46289 4.5Z" fill="#F0F0F0"/>
<path fill-rule="evenodd" clip-rule="evenodd" d="M3.78223 4.86035L3.9668 5.03613L3.79102 5.21191H3.59766L3.04395 4.5H3.22852L3.59766 5.03613H3.78223L3.60644 4.86035L3.78223 4.68457H4.16016V4.86035H3.79102H3.78223Z" fill="#CA3745"/>
<path fill-rule="evenodd" clip-rule="evenodd" d="M3.78223 4.13965L3.9668 3.96387L3.79102 3.78809H3.59766L3.04395 4.5H3.22852L3.59766 3.96387H3.78223L3.60644 4.13965L3.78223 4.31543H4.16016V4.13965H3.79102H3.78223ZM11.5342 4.86035L11.3584 5.03613L11.5342 5.21191H11.7188L12.2725 4.5H12.0967L11.7188 5.03613H11.543L11.7188 4.86035L11.543 4.68457H11.165V4.86035H11.5342Z" fill="#CA3745"/>
<path fill-rule="evenodd" clip-rule="evenodd" d="M11.543 4.13965L11.3496 3.96387L11.5342 3.78809H11.7188L12.2725 4.5H12.0967L11.7188 3.96387H11.543L11.7188 4.13965L11.543 4.31543H11.165V4.13965H11.5342H11.543ZM7.47363 3.78809H7.84277V5.2207H7.47363V3.78809Z" fill="#CA3745"/>
<path fill-rule="evenodd" clip-rule="evenodd" d="M6.91992 4.13965H8.39648V4.86035H6.91992V4.13965Z" fill="#CA3745"/>
<path fill-rule="evenodd" clip-rule="evenodd" d="M5.97202 31.7979L2.66003 33.6238V36.5992L6.00327 38.425H9.31525L12.6272 36.5992V33.6238L9.31525 31.8318H6.00327L5.97202 31.7979Z" fill="#00843D"/>
<path fill-rule="evenodd" clip-rule="evenodd" d="M5.97533 31.7776L6.01039 31.8155H9.31938L12.6435 33.6141V36.6088L9.31945 38.4413H5.99913L2.6438 36.6088V33.6142L5.97533 31.7776ZM2.6763 33.6334V36.5895L6.00743 38.4088H9.31108L12.611 36.5896V33.6335L9.31115 31.848H5.99617L5.96874 31.8183L2.6763 33.6334Z" fill="black"/>
<path fill-rule="evenodd" clip-rule="evenodd" d="M3.91406 34.8311H4.10742V34.4531H4.51172V34.8223H4.71387V33.9609H4.51172V34.3301H4.11621V33.9609H3.91406V34.8223V34.8311ZM9.00293 37.6963H9.20508V37.3271H9.60058V37.6963H9.80273V36.8262H9.60938V37.1953H9.20508V36.8262H9.01172V37.6875L9.00293 37.6963ZM5.78613 33.3896H5.98828V33.0293H6.39258V33.3984H6.58594V32.5371H6.39258V32.9062H5.98828V32.5371H5.78613V33.3984V33.3896ZM8.73047 33.3896H8.93262V33.0293H9.33691V33.3984H9.53906V32.5371H9.33691V32.9062H8.93262V32.5371H8.73047V33.3984V33.3896ZM10.6113 34.8311H10.8047V34.4531H11.209V34.8223H11.4111V33.9609H11.209V34.3301H10.8047V33.9609H10.6113V34.8223V34.8311ZM10.6113 36.2637H10.8047V35.8945H11.209V36.2637H11.4111V35.4023H11.209V35.7715H10.8047V35.4023H10.6113V36.2637Z" fill="#CC0000"/>
<path fill-rule="evenodd" clip-rule="evenodd" d="M7.6582 38.2676V35.1123H12.4834V36.5449L9.25781 38.2676H7.64941H7.6582ZM7.6582 31.9658V35.1123H2.8418V33.6797L6.0498 31.9658H7.6582Z" fill="#FAAE29"/>
<path fill-rule="evenodd" clip-rule="evenodd" d="M7.6582 31.9658V35.1123H12.4834V33.6797L9.25781 31.9658H7.64941H7.6582ZM7.6582 38.2676V35.1123H2.8418V36.5449L6.0498 38.2676H7.6582Z" fill="#F0F0F0"/>
<path fill-rule="evenodd" clip-rule="evenodd" d="M10.2344 33.8309H12.1665L10.2344 32.9738V33.8309ZM12.484 33.6853V35.1165H9.43612V33.9764H8.79206L7.98473 33.5479V32.5452L8.47457 32.1086H7.83052V33.5479H7.66724V31.9711H9.27284L12.484 33.6853Z" fill="#FAAE29"/>
<path fill-rule="evenodd" clip-rule="evenodd" d="M7.66296 31.9668H9.27392L12.4861 33.6815L12.484 33.6853H12.4883V35.1208H9.43185V33.9807H8.79101L7.98046 33.5504V32.5433L8.46334 32.1128H7.83481V33.5521H7.66296V31.9668ZM12.4798 33.6879L9.27178 31.9754H7.67153V33.5436H7.82625V32.1043H8.48582L7.98902 32.5471V33.5453L8.79314 33.9721H9.44041V35.1122H12.4798V33.6879ZM10.2301 32.9672L12.1683 33.8269L12.1666 33.8351H10.2301V32.9672ZM10.2387 32.9803V33.8266H12.1463L10.2387 32.9803Z" fill="black"/>
<path fill-rule="evenodd" clip-rule="evenodd" d="M6.0498 34.1104V36.123H6.5332L7.6582 36.7031L8.7832 36.123H9.2666V34.1191H8.7832L7.6582 33.5479L6.5332 34.1191H6.0498V34.1104Z" fill="#CA3745"/>
<path fill-rule="evenodd" clip-rule="evenodd" d="M5.09081 36.4025H3.15865L5.09081 37.2596V36.4025ZM2.84116 36.5481V35.1169H5.88908V36.257H6.53313L7.34047 36.6855V37.6882L6.85062 38.1248H7.49468V36.6855H7.65796V38.2623H6.05236L2.84116 36.5481Z" fill="#FAAE29"/>
<path fill-rule="evenodd" clip-rule="evenodd" d="M7.66223 38.2666H6.05128L2.83913 36.5519L2.84115 36.5481H2.83686V35.1126H5.89335V36.2527H6.53419L7.34474 36.683V37.6901L6.86185 38.1206H7.49039V36.6813H7.66223V38.2666ZM2.84543 36.5455L6.05342 38.258H7.65367V36.6898H7.49895V38.1291H6.83937L7.33618 37.6863V36.6881L6.53206 36.2613H5.88478V35.1212H2.84543V36.5455ZM5.09508 37.2662L3.1569 36.4065L3.15864 36.3983H5.09508V37.2662ZM5.08652 37.2531V36.4068H3.17885L5.08652 37.2531Z" fill="black"/>
<path fill-rule="evenodd" clip-rule="evenodd" d="M5.09081 33.8309H3.15865L5.09081 32.9738V33.8309ZM2.84116 33.6853V35.1165H5.88908V33.9764H6.53313L7.34047 33.5479V32.5452L6.85062 32.1086H7.49468V33.5479H7.65796V31.9711H6.05236L2.84116 33.6853Z" fill="#F0F0F0"/>
<path fill-rule="evenodd" clip-rule="evenodd" d="M7.66223 31.9668H6.05128L2.83913 33.6815L2.84115 33.6853H2.83686V35.1208H5.89335V33.9807H6.53419L7.34474 33.5504V32.5433L6.86185 32.1128H7.49039V33.5521H7.66223V31.9668ZM2.84543 33.6879L6.05342 31.9754H7.65367V33.5436H7.49895V32.1043H6.83937L7.33618 32.5471V33.5453L6.53206 33.9721H5.88478V35.1122H2.84543V33.6879ZM5.09508 32.9672L3.1569 33.8269L3.15864 33.8351H5.09508V32.9672ZM5.08652 32.9803V33.8266H3.17885L5.08652 32.9803Z" fill="black"/>
<path fill-rule="evenodd" clip-rule="evenodd" d="M10.2344 36.4025H12.1665L10.2344 37.2596V36.4025ZM12.484 36.5481V35.1169H9.43612V36.257H8.79206L7.98473 36.6855V37.6882L8.47457 38.1248H7.83052V36.6855H7.66724V38.2623H9.27284L12.484 36.5481Z" fill="#F0F0F0"/>
<path fill-rule="evenodd" clip-rule="evenodd" d="M7.66296 38.2666H9.27392L12.4861 36.5519L12.484 36.5481H12.4883V35.1126H9.43185V36.2527H8.79101L7.98046 36.683V37.6901L8.46334 38.1206H7.83481V36.6813H7.66296V38.2666ZM12.4798 36.5455L9.27178 38.258H7.67153V36.6898H7.82625V38.1291H8.48582L7.98902 37.6863V36.6881L8.79314 36.2613H9.44041V35.1212H12.4798V36.5455ZM10.2301 37.2662L12.1683 36.4065L12.1666 36.3983H10.2301V37.2662ZM10.2387 37.2531V36.4068H12.1463L10.2387 37.2531Z" fill="black"/>
<path fill-rule="evenodd" clip-rule="evenodd" d="M3.80859 36.2637H4.00195V35.8242H4.40625V36.2637H4.6084V35.2617H4.40625V35.6924H4.00195V35.2529H3.80859V36.2637ZM5.7334 37.6963H5.93555V37.2568H6.33105V37.6963H6.5332V36.6943H6.33105V37.125H5.93555V36.6855H5.7334V37.7051V37.6963ZM3.7998 33.9697H4.00195V34.4004H4.40625V33.9609H4.6084V34.9805H4.40625V34.541H4.00195V34.9717H3.80859V33.9697H3.7998ZM5.7334 32.5371H5.93555V32.9678H6.33105V32.5283H6.5332V33.5391H6.33105V33.1084H5.93555V33.5479H5.7334V32.5371ZM8.7832 37.6963H8.98535V37.2568H9.38965V37.6963H9.5918V36.6943H9.38965V37.125H8.98535V36.6855H8.7832V37.7051V37.6963ZM10.7168 34.9717H10.9189V34.541H11.3145V34.9805H11.5166V33.9697H11.3145V34.4004H10.9277V33.9609H10.7256V34.9805L10.7168 34.9717Z" fill="#CA3745"/>
<path fill-rule="evenodd" clip-rule="evenodd" d="M8.7832 37.6963H8.98535V37.2568H9.38965V37.6963H9.5918V36.6943H9.38965V37.125H8.98535V36.6855H8.7832V37.7051V37.6963Z" fill="#CA3745"/>
<path fill-rule="evenodd" clip-rule="evenodd" d="M8.7832 37.6963H8.98535V37.2568H9.38965V37.6963H9.5918V36.6943H9.38965V37.125H8.98535V36.6855H8.7832V37.7051V37.6963ZM10.7168 36.2637H10.9189V35.8242H11.3145V36.2637H11.5166V35.2617H11.3145V35.6836H10.9277V35.2529H10.7256V36.2637H10.7168ZM8.7832 33.5391H8.98535V33.1084H9.38965V33.5479H9.5918V32.5371H9.38965V32.9678H8.98535V32.5283H8.7832V33.5391Z" fill="#CA3745"/>
<path fill-rule="evenodd" clip-rule="evenodd" d="M7.8252 35.1123L8.4668 34.585H8.7832V34.8486H8.4668V34.9805H8.9502V34.4619H8.4668V34.0664H7.8252V34.4619H7.9834V34.1982H8.29981V34.4619L7.6582 34.9893L7.0166 34.4619V34.1982H7.3418V34.4619H7.5V34.0664H6.8584V34.4619H6.375V34.9893H6.8584V34.8574H6.5332V34.5938H6.8584L7.5 35.1211L6.8584 35.6396H6.5332V35.376H6.8584V35.2441H6.375V35.7715H6.8584V36.1582H7.5V35.7715H7.3418V36.0352H7.0166V35.7715L7.6582 35.2441L8.29981 35.7715V36.0352H7.9834V35.7715H7.8252V36.1582H8.4668V35.7715H8.9502V35.2441H8.4668V35.376H8.7832V35.6396H8.4668L7.8252 35.1123Z" fill="#F0F0F0"/>
<path fill-rule="evenodd" clip-rule="evenodd" d="M3.15592 12.9121L3.46434 12.592H5.33301L6.72997 11.1853H8.59864L9.9956 12.6004H11.8643L12.1727 12.9121L11.8643 13.2237H9.98653L8.58957 14.6388H6.7209L5.33301 13.2237H3.45527L3.14685 12.9121H3.15592Z" fill="#CA3745"/>
<path fill-rule="evenodd" clip-rule="evenodd" d="M3.31433 12.9377L3.48324 12.7846H5.40885L6.85305 11.299H8.45773L9.91038 12.7922H11.836L11.9965 12.9454L11.836 13.0909H9.91038L8.61819 14.4309H6.69259L5.40885 13.0909H3.4748L3.31433 12.9377Z" fill="#CA3745"/>
<path fill-rule="evenodd" clip-rule="evenodd" d="M6.84799 11.287H8.46285L9.9155 12.7802H11.8408L12.0142 12.9456L11.8407 13.1029H9.91553L8.62335 14.443H6.68747L5.40373 13.1029H3.46999L3.30603 12.9464L3.31436 12.9377L3.30626 12.9288L3.47862 12.7725H5.40378L6.84799 11.287ZM3.33207 12.9379L3.47966 13.0788H5.41403L6.69776 14.4189H8.6131L9.90528 13.0788H11.8314L11.9788 12.9452L11.8312 12.8043H9.90531L8.45266 11.3111H6.85818L5.41397 12.7966H3.48793L3.33207 12.9379Z" fill="black"/>
<path fill-rule="evenodd" clip-rule="evenodd" d="M8.44442 13.0721L9.06126 13.6954L8.75284 14.0071L8.58956 13.8555H8.44442V14.0071L8.59863 14.1671H8.91612L9.22454 13.8555V13.5354L8.59863 12.9121L9.22454 12.2803V11.9687L8.91612 11.657H8.59863L8.44442 11.8086V11.9687H8.59863L8.76191 11.8086L9.07033 12.1287L8.44442 12.752L7.82758 12.1287L8.44442 11.4969V11.3369H8.29021L7.67337 11.9687L7.04746 11.3369H6.89325V11.4969L7.51009 12.1287L6.89325 12.752L6.26733 12.1287L6.58483 11.8086L6.73904 11.9687H6.89325V11.8086L6.73904 11.657H6.42154L6.11312 11.9687V12.2803L6.73904 12.9121L6.11312 13.5354V13.8555L6.42154 14.1671H6.73904L6.89325 14.0071V13.8555H6.72089L6.56668 14.0071L6.24919 13.6954L6.8751 13.0721L7.49194 13.6954L6.8751 14.3272V14.4788H7.02931L7.65523 13.8555L8.27207 14.4788H8.42628V14.3272L7.80944 13.6954L8.42628 13.0721H8.44442ZM7.6643 12.2803L7.03838 12.9121L7.6643 13.5354L8.28114 12.9121L7.6643 12.2803ZM6.72996 14.6388V15.9023L6.88417 15.7338L7.03838 15.9023L7.1926 15.7338L7.34681 15.9023L7.51009 15.7338L7.6643 15.9023L7.81851 15.7338L7.97272 15.9023L8.12693 15.7338L8.28114 15.9023L8.43535 15.7338L8.59863 15.9023V14.6388H6.72089H6.72996ZM8.59863 11.1853V9.9218L8.43535 10.0903L8.28114 9.9218L8.12693 10.0903L7.97272 9.9218L7.81851 10.0903L7.6643 9.9218L7.50102 10.0903L7.34681 9.9218L7.1926 10.0903L7.03838 9.9218L6.88417 10.0903L6.72996 9.9218V11.1853H8.59863ZM11.2293 12.6004V11.3369L11.0841 11.5054L10.9299 11.3369L10.7757 11.5054L10.6124 11.3369L10.4582 11.5054L10.304 11.3369L10.1498 11.5054L9.99559 11.3369V12.6004H11.2383H11.2293ZM5.333 12.6004V11.3369L5.16972 11.5054L5.01551 11.3369L4.8613 11.5054L4.70709 11.3369L4.55288 11.5054L4.39867 11.3369L4.23539 11.5054L4.08118 11.3369V12.6004H5.32393H5.333ZM11.2383 13.2237V14.4872L11.0841 14.3187L10.9299 14.4872L10.7757 14.3187L10.6124 14.4872L10.4582 14.3187L10.304 14.4872L10.1498 14.3187L9.99559 14.4872V13.2237H11.2383ZM5.32393 13.2237V14.4872L5.16972 14.3187L5.01551 14.4872L4.8613 14.3187L4.70709 14.4872L4.55288 14.3187L4.39867 14.4872L4.23539 14.3187L4.08118 14.4872V13.2237H5.32393Z" fill="#FAAE29"/>
<path fill-rule="evenodd" clip-rule="evenodd" d="M8.58951 14.6388V15.4222L8.7528 15.2621L8.90701 15.4306L9.06122 15.2621L9.21543 15.4306L9.36964 15.2621L9.52385 15.4306L9.68713 15.2621L9.84134 15.4306L9.99555 15.2621V13.2237L8.58951 14.6388ZM6.72992 14.6388V15.4222L6.56664 15.2621L6.41243 15.4306L6.25822 15.2621L6.10401 15.4306L5.9498 15.2621L5.79559 15.4306L5.64138 15.2621L5.48717 15.4306L5.32389 15.2621V13.2237L6.72992 14.6388ZM6.72992 11.1853V10.4019L6.56664 10.5535L6.41243 10.4019L6.25822 10.5535L6.10401 10.4019L5.9498 10.5535L5.79559 10.4019L5.64138 10.5535L5.48717 10.4019L5.32389 10.5535V12.6004L6.72992 11.1853ZM8.58951 11.1853V10.4019L8.7528 10.5535L8.90701 10.4019L9.06122 10.5535L9.21543 10.4019L9.36964 10.5535L9.52385 10.4019L9.67806 10.5535L9.84134 10.4019L9.99555 10.5535V12.6004L8.58951 11.1853ZM4.08113 14.1671L3.92692 14.0071L3.77271 14.1755L3.6185 14.0071L3.46429 14.1755L3.31008 14.0071L3.1468 14.1755L2.99259 14.0071L2.83838 14.1755V11.6486L2.99259 11.817L3.1468 11.6486L3.31008 11.817L3.46429 11.6486L3.6185 11.817L3.77271 11.6486L3.92692 11.817L4.08113 11.6486V12.6004H3.46429L3.1468 12.912L3.46429 13.2237H4.08113V14.1671ZM11.2383 14.1671L11.3925 14.0071L11.5467 14.1755L11.7009 14.0071L11.8642 14.1755L12.0184 14.0071L12.1726 14.1755L12.3268 14.0071L12.4811 14.1755V11.6486L12.3268 11.817L12.1726 11.6486L12.0184 11.817L11.8642 11.6486L11.7009 11.817L11.5467 11.6486L11.3925 11.817L11.2383 11.6486V12.6004H11.8642L12.1726 12.912L11.8642 13.2237H11.2383V14.1671Z" fill="#00843D"/>
<path fill-rule="evenodd" clip-rule="evenodd" d="M5.9589 14.7399C5.9589 14.7399 5.83191 14.8578 5.83191 14.9252C5.83191 14.9842 5.96797 15.1105 6.03147 15.1105C6.10404 15.1105 6.22197 14.9842 6.22197 14.9252C6.22197 14.8662 6.09497 14.7399 6.09497 14.7399V14.4872C6.09497 14.4872 6.36711 14.9168 6.36711 14.7315C6.36711 14.5967 6.09497 14.3693 6.09497 14.3693H5.9589C5.9589 14.3693 5.68677 14.6388 5.68677 14.7315C5.68677 14.9168 5.9589 14.4872 5.9589 14.4872V14.7399Z" fill="#F0F0F0"/>
<path fill-rule="evenodd" clip-rule="evenodd" d="M7.5826 15.22C7.5826 15.22 7.42839 15.3885 7.42839 15.4727C7.42839 15.557 7.59167 15.7423 7.66424 15.7423C7.75495 15.7423 7.89102 15.5654 7.89102 15.4811C7.89102 15.3969 7.73681 15.22 7.73681 15.22V14.8662C7.73681 14.8662 8.00895 15.439 8.00895 15.1779C8.00895 15.0094 7.73681 14.6978 7.73681 14.6978H7.5826C7.5826 14.6978 7.26511 15.0853 7.31047 15.1779C7.31047 15.439 7.5826 14.8662 7.5826 14.8662V15.22Z" fill="#CA3745"/>
<path d="M5.94714 13.0626C6.11683 13.0626 6.25439 12.9912 6.25439 12.903C6.25439 12.8149 6.11683 12.7434 5.94714 12.7434C5.77745 12.7434 5.63989 12.8149 5.63989 12.903C5.63989 12.9912 5.77745 13.0626 5.94714 13.0626Z" fill="#00843D"/>
<path d="M7.66162 13.0626C7.83131 13.0626 7.96887 12.9912 7.96887 12.903C7.96887 12.8149 7.83131 12.7434 7.66162 12.7434C7.49193 12.7434 7.35437 12.8149 7.35437 12.903C7.35437 12.9912 7.49193 13.0626 7.66162 13.0626Z" fill="#00843D"/>
<path d="M9.36694 13.0626C9.53663 13.0626 9.67419 12.9912 9.67419 12.903C9.67419 12.8149 9.53663 12.7434 9.36694 12.7434C9.19725 12.7434 9.05969 12.8149 9.05969 12.903C9.05969 12.9912 9.19725 13.0626 9.36694 13.0626Z" fill="#00843D"/>
<path fill-rule="evenodd" clip-rule="evenodd" d="M5.93172 11.101C5.93172 11.101 5.80472 10.9747 5.80472 10.9157C5.80472 10.8568 5.94079 10.722 5.99522 10.722C6.06779 10.722 6.18571 10.8483 6.18571 10.9073C6.18571 10.9747 6.05872 11.101 6.05872 11.101V11.3537C6.05872 11.3537 6.33992 10.9157 6.33992 11.101C6.33992 11.2358 6.06779 11.4717 6.06779 11.4717H5.93172C5.93172 11.4717 5.65051 11.2021 5.65051 11.1095C5.65051 10.9242 5.92265 11.3453 5.92265 11.3453V11.0926L5.93172 11.101Z" fill="#F0F0F0"/>
<path fill-rule="evenodd" clip-rule="evenodd" d="M7.54638 10.6125C7.54638 10.6125 7.39217 10.444 7.39217 10.3598C7.39217 10.2756 7.56453 10.0987 7.62802 10.0987C7.71874 10.0987 7.86388 10.2671 7.86388 10.3514C7.86388 10.4356 7.70967 10.6209 7.70967 10.6209V10.9579C7.70967 10.9579 7.9818 10.3935 7.9818 10.6546C7.9818 10.8231 7.70967 11.1432 7.70967 11.1432H7.53731C7.53731 11.1432 7.21982 10.7473 7.26518 10.6546C7.26518 10.4019 7.53731 10.9663 7.53731 10.9663V10.6125H7.54638Z" fill="#CA3745"/>
<path fill-rule="evenodd" clip-rule="evenodd" d="M9.26985 14.7399C9.26985 14.7399 9.14285 14.8578 9.14285 14.9252C9.14285 14.9842 9.27892 15.1105 9.34242 15.1105C9.41499 15.1105 9.53291 14.9842 9.53291 14.9252C9.53291 14.8662 9.40591 14.7399 9.40591 14.7399V14.4872C9.40591 14.4872 9.67805 14.9168 9.67805 14.7315C9.67805 14.5967 9.40591 14.3693 9.40591 14.3693H9.26078C9.26078 14.3693 8.98864 14.6388 8.98864 14.7315C8.98864 14.9168 9.26078 14.4872 9.26078 14.4872V14.7399H9.26985ZM9.24263 11.101C9.24263 11.101 9.11564 10.9747 9.11564 10.9073C9.11564 10.8568 9.2517 10.722 9.30613 10.722C9.3787 10.722 9.49663 10.8483 9.49663 10.9073C9.49663 10.9747 9.36963 11.101 9.36963 11.101V11.3537C9.36963 11.3537 9.65084 10.9157 9.65084 11.101C9.65084 11.2358 9.3787 11.4717 9.3787 11.4717H9.24263C9.24263 11.4717 8.96143 11.2021 8.96143 11.1095C8.96143 10.9242 9.23356 11.3453 9.23356 11.3453V11.0926L9.24263 11.101Z" fill="#F0F0F0"/>
<path fill-rule="evenodd" clip-rule="evenodd" d="M4.60732 13.8639C4.60732 13.8639 4.43497 13.9818 4.43497 14.0323C4.43497 14.0913 4.61639 14.2177 4.69803 14.2092C4.78874 14.2092 4.95202 14.0997 4.95202 14.0408C4.95202 13.9818 4.77967 13.8639 4.77967 13.8639V13.628C4.77967 13.628 5.08809 14.0071 5.08809 13.8386C5.08809 13.7207 4.77967 13.5101 4.77967 13.5101H4.60732C4.60732 13.5101 4.25354 13.7796 4.30797 13.8386C4.30797 14.0071 4.60732 13.628 4.60732 13.628V13.8639ZM4.57103 12.0866C4.57103 12.0866 4.39868 11.9686 4.39868 11.9097C4.39868 11.8507 4.5801 11.7328 4.66175 11.7412C4.75246 11.7412 4.91574 11.8507 4.91574 11.9097C4.91574 11.9686 4.74339 12.0781 4.74339 12.0781V12.314C4.74339 12.314 5.05181 11.9349 5.05181 12.1118C5.05181 12.2213 4.74339 12.4319 4.74339 12.4319H4.57103C4.57103 12.4319 4.21726 12.1708 4.27168 12.1118C4.27168 11.9434 4.57103 12.314 4.57103 12.314V12.0866ZM10.5852 13.8218C10.5852 13.8218 10.4038 13.9397 10.4038 13.9986C10.4038 14.0576 10.5943 14.1755 10.6759 14.1755C10.7667 14.1755 10.9299 14.0576 10.9299 14.0071C10.9299 13.9397 10.7485 13.8218 10.7485 13.8218V13.5943C10.7485 13.5943 11.0569 13.9734 11.0569 13.7965C11.0569 13.687 10.7576 13.4764 10.7576 13.4764H10.5762C10.5762 13.4764 10.2315 13.7375 10.2768 13.7965C10.2768 13.9734 10.5852 13.5943 10.5852 13.5943V13.8302V13.8218ZM10.5489 12.0529C10.5489 12.0529 10.3675 11.9349 10.3675 11.876C10.3675 11.817 10.558 11.6991 10.6397 11.6991C10.7304 11.6991 10.8937 11.817 10.8937 11.8676C10.8937 11.9349 10.7122 12.0445 10.7122 12.0445V12.2803C10.7122 12.2803 11.0206 11.9013 11.0206 12.0697C11.0206 12.1876 10.7213 12.3982 10.7213 12.3982H10.5399C10.5399 12.3982 10.1952 12.1371 10.2405 12.0781C10.2405 11.9013 10.5489 12.2803 10.5489 12.2803V12.0445V12.0529Z" fill="#CA3745"/>
<path fill-rule="evenodd" clip-rule="evenodd" d="M3.33728 13.847C3.28286 13.7375 3.301 13.687 3.301 13.628C3.301 13.5691 3.45521 13.4596 3.50964 13.4596C3.58221 13.4596 3.70013 13.5775 3.70013 13.6449C3.70013 13.7038 3.70013 13.7544 3.67292 13.8639L3.60035 13.687C3.50056 13.9397 3.49149 13.9397 3.43707 13.6786L3.34635 13.847H3.33728ZM3.33728 12.036C3.29193 12.1455 3.301 12.1961 3.301 12.255C3.301 12.314 3.45521 12.4235 3.51871 12.4235C3.59128 12.4235 3.7092 12.3056 3.7092 12.2382C3.7092 12.1792 3.7092 12.1287 3.68199 12.0192L3.60035 12.1961C3.50964 11.9434 3.50056 11.9434 3.43707 12.2045L3.34635 12.036H3.33728ZM11.7281 13.8218C11.6737 13.7123 11.6828 13.6617 11.6828 13.6028C11.6828 13.5438 11.8461 13.4343 11.9005 13.4343C11.9731 13.4343 12.091 13.5606 12.091 13.6196C12.091 13.6786 12.091 13.7375 12.0638 13.8386L11.9821 13.6617C11.8914 13.9144 11.8823 13.9228 11.8188 13.6617L11.7281 13.8218ZM11.7281 12.0192C11.6737 12.1203 11.6918 12.1708 11.6918 12.2382C11.6918 12.2887 11.8461 12.4066 11.9005 12.4066C11.9731 12.4066 12.1001 12.2803 12.1001 12.2213C12.1001 12.154 12.1001 12.1034 12.0728 11.9939L11.9821 12.1792C11.8914 11.9181 11.8914 11.9097 11.8279 12.1792L11.7372 12.0108L11.7281 12.0192Z" fill="#F0F0F0"/>
<path fill-rule="evenodd" clip-rule="evenodd" d="M6.70274 15.9358V15.481H5.25135V14.5881H3.96324V14.2933H2.83841V11.5979H3.96324V11.3031H5.25135V10.4102H6.70274V9.96381H8.62583V10.4102H10.0772V11.3031H11.3563V11.6063H12.4902V14.2933H11.3653V14.5881H10.0863V15.481H8.63491V15.9274H6.71181L6.70274 15.9358ZM6.53946 16.079V15.6326H5.08807V14.7398H3.80903V14.4365H2.6842V11.4547H3.80903V11.1599H5.08807V10.2586H6.53946V9.81219H8.78912V10.2586H10.2405V11.1599H11.5195V11.4547H12.6444V14.4365H11.5195V14.7398H10.2314V15.6326H8.78005V16.079H6.53946Z" fill="#CA3745"/>
<path fill-rule="evenodd" clip-rule="evenodd" d="M6.53507 9.80783H8.79346V10.2543H10.2449V11.1555H11.5239V11.4504H12.6487V14.4409H11.5239V14.7441H10.2358V15.637H8.78439V16.0834H6.53944V16.079H6.53507V15.637H5.08368V14.7441H3.80464V14.4409H2.67981V11.4504H3.80464V11.1555H5.08368V10.2543H6.53507V9.80783ZM6.54381 16.0747H8.77565V15.6282H10.227V14.7354H11.5152V14.4322H12.64V11.4591H11.5152V11.1643H10.2361V10.263H8.78472V9.81657H6.54381V10.263H5.09242V11.1643H3.81338V11.4591H2.68855V14.4322H3.81338V14.7354H5.09242V15.6282H6.54381V16.0747ZM6.69835 9.95945H8.63018V10.4059H10.0816V11.2987H11.3606V11.602H12.4945V14.2977H11.3697V14.5925H10.0906V15.4854H8.63925V15.9318H6.71351L6.69835 15.9459V15.4854H5.24696V14.5925H3.95885V14.2977H2.83402V11.5935H3.95885V11.2987H5.24696V10.4059H6.69835V9.95945ZM6.70709 9.96819V10.4146H5.2557V11.3075H3.96759V11.6023H2.84276V14.289H3.96759V14.5838H5.2557V15.4766H6.70709V15.9258L6.71007 15.9231H8.63051V15.4766H10.0819V14.5838H11.3609V14.289H12.4858V11.6107H11.3519V11.3075H10.0728V10.4146H8.62144V9.96819H6.70709Z" fill="black"/>
</g>
<defs>
<clipPath id="clip0_264_23813">
<rect width="60" height="45" fill="white"/>
</clipPath>
</defs>
</svg>
