<svg width="60" height="45" viewBox="0 0 60 45" fill="none" xmlns="http://www.w3.org/2000/svg">
<g clip-path="url(#clip0_264_24066)">
<path d="M0 0H60V45H0V0Z" fill="#009FCA"/>
<path fill-rule="evenodd" clip-rule="evenodd" d="M55.6219 11.5031H58.2187L56.1281 12.9281L56.925 15.2438L54.8344 13.8094L52.7531 15.2438L53.55 12.9281L51.4594 11.5031H54.0375L54.8344 9.1875L55.6219 11.5031ZM49.1344 29.9531H51.7219L49.6312 31.3781L50.4281 33.6937L48.3375 32.2594L46.2469 33.6937L47.0531 31.3781L44.9625 29.9531H47.5312L48.3281 27.6375L49.1344 29.9531ZM55.6219 25.7719H58.2187L56.1281 27.1969L56.925 29.5125L54.8344 28.0781L52.7531 29.5125L53.55 27.1969L51.4594 25.7719H54.0375L54.8344 23.4562L55.6219 25.7719ZM27.7312 39.1594H30.3187L28.2187 40.575L29.025 42.8812L26.9344 41.4563L24.8437 42.8812L25.65 40.575L23.55 39.1406H26.1375L26.9344 36.8344L27.7312 39.1594ZM33.6 31.9875H31.0125L33.1031 30.5531L32.3062 28.2469L34.3969 29.6719L36.4875 28.2469L35.6812 30.5531L37.7719 31.9875H35.1937L34.3969 34.2937L33.6 31.9875ZM41.2219 21.4406H38.625L40.7156 20.0156L39.9187 17.7L42.0094 19.1344L44.1 17.7L43.2937 20.0156L45.3844 21.4406H42.8062L42.0094 23.7562L41.2219 21.4406ZM47.625 19.2562H45.0375L47.1375 17.8219L46.3312 15.5156L48.4219 16.9406L50.5125 15.5156L49.7062 17.8219L51.8062 19.2562H49.2187L48.4219 21.5625L47.625 19.2562ZM41.2219 37.5H38.625L40.7156 36.075L39.9375 33.75L42.0281 35.175L44.1187 33.75L43.3125 36.0656L45.4031 37.4906H42.825L42.0281 39.8063L41.2219 37.5ZM33.6 39.3656H31.0125L33.1031 37.9406L32.3062 35.625L34.3969 37.05L36.4875 35.625L35.6812 37.9313L37.7812 39.375H35.2031L34.4062 41.6906L33.6 39.3656Z" fill="#FFF40D"/>
<path d="M0 0H30V22.5H0V0Z" fill="#012169"/>
<path d="M3.51562 0L14.9531 8.48438L26.3438 0H30V2.90625L18.75 11.2969L30 19.6406V22.5H26.25L15 14.1094L3.79688 22.5H0V19.6875L11.2031 11.3438L0 3V0H3.51562Z" fill="#F0F0F0"/>
<path d="M19.875 13.1719L30 20.625V22.5L17.2969 13.1719H19.875ZM11.25 14.1094L11.5312 15.75L2.53125 22.5H0L11.25 14.1094ZM30 0V0.140625L18.3281 8.95312L18.4219 6.89062L27.6562 0H30ZM0 0L11.2031 8.25H8.39062L0 1.96875V0Z" fill="#C8102E"/>
<path d="M11.2969 0V22.5H18.7969V0H11.2969ZM0 7.5V15H30V7.5H0Z" fill="#F0F0F0"/>
<path d="M0 9.04688V13.5469H30V9.04688H0ZM12.7969 0V22.5H17.2969V0H12.7969Z" fill="#C8102E"/>
</g>
<defs>
<clipPath id="clip0_264_24066">
<rect width="60" height="45" fill="white"/>
</clipPath>
</defs>
</svg>
