<svg width="60" height="45" viewBox="0 0 60 45" fill="none" xmlns="http://www.w3.org/2000/svg">
<g clip-path="url(#clip0_264_24155)">
<path fill-rule="evenodd" clip-rule="evenodd" d="M0 0H60V45H0V0Z" fill="#4B92DB"/>
<path d="M33.5381 33.0187C33.3749 33.1958 33.1961 33.3577 33.0037 33.5025C31.8112 32.265 30.405 30.9037 29.0719 30.9037C28.245 30.9037 27.6544 31.5337 26.9569 31.9725C25.995 32.5912 24.6731 32.94 23.5425 32.4844C22.903 32.2654 22.3352 31.8765 21.9 31.3594C22.3787 31.658 22.9213 31.8391 23.4834 31.888C24.0455 31.9369 24.6113 31.8521 25.1344 31.6406C26.2425 31.1794 27.3787 30.5662 28.6444 30.5662C30.5119 30.5662 32.2894 31.8319 33.5381 33.0187ZM19.7231 29.1375C20.9606 30.5437 22.98 30.0937 24.6281 30.4425C24.8587 30.4987 25.0781 30.5719 25.3256 30.5325C25.1287 30.4087 24.8644 30.3919 24.6394 30.3075C23.3569 29.8237 23.16 28.4512 22.4569 27.5119C23.3569 28.1081 24.0937 28.9181 24.9319 29.6887C25.5226 30.1773 26.2372 30.4927 26.9962 30.6C26.8162 30.6675 26.58 30.6562 26.3775 30.7012C25.0275 31.0387 23.5312 31.5675 22.0912 31.095C21.0871 30.7602 20.2444 30.0619 19.7287 29.1375H19.7231ZM17.7431 25.875C18.5137 27.6244 20.4544 27.765 21.7369 28.8337C21.9668 29.038 22.222 29.2119 22.4962 29.3512L22.5131 29.34C22.196 29.0635 21.9111 28.7522 21.6637 28.4119C20.9269 27.3431 21.1687 25.8806 20.6006 24.7444C21.1283 25.331 21.5662 25.9925 21.9 26.7075C22.3781 27.8437 22.5412 29.1431 23.6156 30.0094C22.4512 29.6269 21.1125 29.7 20.0719 29.0194C18.9694 28.2994 17.9512 27.1631 17.7431 25.8806V25.875ZM16.9162 22.3425C17.0287 23.8837 18.66 24.705 19.4475 25.9706C19.6162 26.2406 19.785 26.5219 20.0269 26.7356C19.9875 26.5725 19.8581 26.4262 19.7794 26.2687C19.5211 25.7001 19.4183 25.0732 19.4812 24.4519C19.5544 23.6644 19.8806 22.9331 19.7569 22.1062C20.4319 23.5631 20.2125 25.38 20.6006 26.9494C20.6906 27.2981 20.8987 27.6019 21.0281 27.9337C20.37 27.4275 19.5037 26.9775 18.7781 26.415C18.0547 25.8949 17.4899 25.1841 17.1469 24.3619C16.926 23.7131 16.8473 23.0244 16.9162 22.3425ZM16.9612 19.5075C17.04 19.1644 17.1019 18.81 17.2481 18.495C16.9669 19.9462 17.9344 20.9925 18.2606 22.2525C18.3844 22.725 18.4294 23.2256 18.6206 23.67C18.6375 23.6756 18.6544 23.6587 18.6656 23.6475C18.1875 22.3087 18.8906 21.0712 19.5656 20.0194C19.731 19.7308 19.8488 19.4174 19.9144 19.0912C19.9875 19.6987 19.8581 20.3962 19.7456 21.0206C19.605 21.825 19.3294 22.5787 19.11 23.355C18.9912 23.8609 18.9816 24.3863 19.0819 24.8962L19.0087 24.84C18.5025 23.9062 17.5012 23.175 17.2031 22.1512C16.9181 21.3008 16.8353 20.3956 16.9612 19.5075ZM17.4956 17.9437C17.514 16.9105 17.8919 15.916 18.5644 15.1312C18.5812 15.12 18.5981 15.1031 18.6206 15.1087C17.9119 16.1775 18.5587 17.5387 18.4631 18.7594L18.3731 20.0081C18.3844 20.0194 18.3844 20.0587 18.4181 20.0419C18.4631 19.9012 18.4744 19.755 18.4969 19.6087C18.6656 18.5962 19.5544 17.8987 20.3025 17.19C20.4755 17.0266 20.61 16.8268 20.6962 16.605C20.6344 17.1112 20.4937 17.6231 20.2687 18.0787C19.6894 19.2487 18.5756 20.1937 18.3731 21.5269C18.2775 20.25 17.4956 19.2994 17.4956 17.9437ZM19.3519 14.2369C19.6752 13.8481 20.1055 13.5626 20.5894 13.4156C19.6612 14.0512 19.7119 15.1819 19.4306 16.1269C19.3294 16.47 19.1775 16.7962 19.0931 17.1506L19.1212 17.1731C19.287 16.7477 19.5466 16.365 19.8806 16.0537C20.5275 15.4462 21.5006 15.075 21.8212 14.1806C21.8044 15.4237 20.7469 16.3687 19.7794 17.1C19.3487 17.4249 18.9984 17.8445 18.7556 18.3262C18.7894 17.9887 18.8119 17.6962 18.7781 17.3644C18.6769 16.2787 18.6094 15.0581 19.3575 14.2369H19.3519ZM23.0925 12.15C22.4119 12.7519 21.9562 13.5225 21.4275 14.2144C20.9944 14.7937 20.3925 15.1481 19.8806 15.6319C20.1619 15.0581 20.2069 14.3944 20.5612 13.8375C21.1631 12.8812 22.1644 12.51 23.0925 12.15Z" fill="#F0F0F0"/>
<path d="M38.3438 24.5625L38.1469 24.45C37.7193 25.3289 37.1526 26.1329 36.4688 26.8313L35.2969 25.65C35.8633 25.065 36.329 24.3902 36.675 23.6531L36.4781 23.5406C36.1395 24.261 35.6833 24.9201 35.1281 25.4906L34.0594 24.4219C34.5119 23.9544 34.8798 23.412 35.1469 22.8188L34.95 22.7063C34.6929 23.282 34.3376 23.8086 33.9 24.2625L32.7281 23.0906C33.0504 22.7477 33.3049 22.3469 33.4781 21.9094L33.2813 21.7969C33.1174 22.2137 32.8756 22.5956 32.5688 22.9219L31.4906 21.8531C31.7933 21.5164 31.9719 21.0864 31.9969 20.6344H33.5156C33.5043 21.0324 33.425 21.4256 33.2813 21.7969L33.4781 21.9094C33.6397 21.503 33.7285 21.0715 33.7406 20.6344H35.4094C35.3924 21.3493 35.233 22.0536 34.9406 22.7063L35.1469 22.8188C35.4541 22.1306 35.6199 21.3878 35.6344 20.6344H37.1531C37.1363 21.64 36.9063 22.6306 36.4781 23.5406L36.675 23.6531C37.1184 22.7077 37.3549 21.6785 37.3688 20.6344H39.0469C39.0312 21.957 38.7239 23.2598 38.1469 24.45L38.3438 24.5625C38.9573 23.307 39.2778 21.9286 39.2813 20.5313C39.2824 19.3392 39.0532 18.1582 38.6063 17.0531L38.4 17.1469C38.8202 18.1873 39.0427 19.2968 39.0563 20.4188H37.3782C37.3681 19.5196 37.1933 18.6299 36.8625 17.7938L36.6563 17.8875C36.9777 18.6934 37.1493 19.5512 37.1625 20.4188H35.625C35.6144 19.758 35.4875 19.1042 35.25 18.4875L35.0438 18.5813C35.2686 19.1683 35.3891 19.7902 35.4 20.4188H33.75C33.7392 20.0154 33.6632 19.6165 33.525 19.2375L33.3188 19.3313C33.4445 19.6806 33.5141 20.0476 33.525 20.4188H32.0063C31.9813 19.9667 31.8027 19.5367 31.5 19.2L32.5781 18.1219C32.904 18.4674 33.1559 18.8757 33.3188 19.3219L33.525 19.2375C33.3517 18.7635 33.0838 18.3297 32.7375 17.9625L33.9188 16.7813C34.4161 17.2991 34.8049 17.9111 35.0625 18.5813L35.2688 18.4875C34.9968 17.792 34.5888 17.1578 34.0688 16.6219L35.1469 15.5531C35.7994 16.2274 36.3124 17.0239 36.6563 17.8969L36.8625 17.8031C36.504 16.9049 35.972 16.0862 35.2969 15.3938L36.4781 14.2125C37.3046 15.0554 37.9576 16.0524 38.4 17.1469L38.6063 17.0531C38.1385 15.9012 37.4434 14.8554 36.5625 13.9781C35.6808 13.0916 34.6283 12.3931 33.4688 11.925L33.3938 12.1406C34.4875 12.5802 35.4844 13.23 36.3281 14.0531L35.1469 15.2344C34.4658 14.5744 33.6636 14.0524 32.7844 13.6969L32.6906 13.9031C33.5462 14.2496 34.3263 14.7591 34.9875 15.4031L33.9188 16.4719C33.4044 15.9746 32.7998 15.5801 32.1375 15.3094L32.0625 15.5156C32.6895 15.7751 33.262 16.1504 33.75 16.6219L32.5781 17.8031C32.2504 17.4934 31.8693 17.2456 31.4531 17.0719L31.3688 17.2875C31.7563 17.4479 32.112 17.6765 32.4188 17.9625L31.3313 19.0313C30.9945 18.7286 30.5646 18.55 30.1125 18.525V17.0063C30.5413 17.0198 30.9639 17.112 31.3594 17.2781L31.4438 17.0719C31.0216 16.8941 30.5704 16.7956 30.1125 16.7813V15.1125C30.7781 15.123 31.4361 15.2565 32.0531 15.5063L32.1375 15.3C31.4938 15.0386 30.8072 14.8988 30.1125 14.8875V13.3688C30.997 13.3824 31.8713 13.5604 32.6906 13.8938L32.7656 13.6875C31.9219 13.3469 31.0223 13.1657 30.1125 13.1531V11.475C31.2345 11.4885 32.344 11.7111 33.3844 12.1313L33.4594 11.9156C32.3589 11.4775 31.1845 11.2547 30 11.2594C28.5616 11.2565 27.1425 11.5904 25.8563 12.2344L25.95 12.4219C27.1743 11.8145 28.5209 11.4939 29.8875 11.4844V13.1531C28.7908 13.1664 27.7111 13.4259 26.7281 13.9125L26.8313 14.1C27.7828 13.6315 28.827 13.3817 29.8875 13.3688V14.8875C29.0747 14.9026 28.2749 15.0945 27.5438 15.45L27.6375 15.6469C28.34 15.3081 29.1077 15.1258 29.8875 15.1125V16.7813C29.3777 16.7979 28.8767 16.9191 28.4156 17.1375L28.5094 17.325C28.9423 17.1262 29.4113 17.0178 29.8875 17.0063V18.525C29.6619 18.5375 29.44 18.5882 29.2313 18.675L29.325 18.8625C29.54 18.7785 29.7693 18.7371 30 18.7406C30.233 18.7398 30.4639 18.7848 30.6795 18.8733C30.8951 18.9618 31.0911 19.0919 31.2563 19.2563C31.4246 19.4229 31.5577 19.6216 31.6479 19.8406C31.7381 20.0596 31.7834 20.2944 31.7813 20.5313C31.7813 21.0037 31.5936 21.4567 31.2596 21.7908C30.9255 22.1248 30.4724 22.3125 30 22.3125C29.7664 22.3122 29.5351 22.2656 29.3195 22.1755C29.1039 22.0854 28.9082 21.9535 28.7438 21.7875C28.5778 21.6231 28.4459 21.4274 28.3558 21.2118C28.2657 20.9962 28.2191 20.7649 28.2188 20.5313C28.2179 20.296 28.2638 20.0629 28.354 19.8456C28.4441 19.6283 28.5766 19.4312 28.7438 19.2656C28.9103 19.1005 29.1079 18.9699 29.325 18.8813L29.2219 18.6844C29.0159 18.771 28.8257 18.8914 28.6594 19.0406L27.5906 17.9625C27.8644 17.7049 28.1778 17.4928 28.5188 17.3344L28.4156 17.1469C28.0549 17.3122 27.7226 17.5337 27.4313 17.8031L26.25 16.6219C26.6592 16.2294 27.1274 15.9036 27.6375 15.6563L27.5438 15.4688C27.0132 15.7259 26.5261 16.0644 26.1 16.4719L25.0219 15.375C25.5552 14.8587 26.1656 14.4285 26.8313 14.1L26.7375 13.9125C26.0483 14.2502 25.4157 14.693 24.8625 15.225L23.6813 14.0344C24.3528 13.3824 25.1213 12.8384 25.9594 12.4219L25.8563 12.225C24.0465 13.1349 22.5821 14.6092 21.6844 16.425L21.8719 16.5188C22.2957 15.6615 22.8526 14.8768 23.5219 14.1938L24.7125 15.3844C24.1582 15.9541 23.6992 16.6094 23.3531 17.325L23.5406 17.4281C23.8758 16.7294 24.3222 16.0899 24.8625 15.5344L25.9406 16.6031C25.5039 17.0562 25.1458 17.579 24.8813 18.15L25.0688 18.2531C25.3261 17.7017 25.6747 17.1977 26.1 16.7625L27.2813 17.9438C26.9737 18.2661 26.7261 18.6407 26.55 19.05L26.7469 19.1625C26.9091 18.7709 27.141 18.412 27.4313 18.1031L28.5094 19.1719C28.2054 19.5115 28.0268 19.9449 28.0031 20.4H26.4844C26.4964 19.975 26.5853 19.5557 26.7469 19.1625L26.5594 19.05C26.3759 19.4773 26.2742 19.9352 26.2594 20.4H24.5906C24.6037 19.6585 24.7697 18.9276 25.0781 18.2531L24.8906 18.1594C24.5623 18.8618 24.3836 19.6248 24.3656 20.4H22.8469C22.8637 19.3702 23.1036 18.3563 23.55 17.4281L23.3531 17.325C22.8917 18.2853 22.6453 19.3347 22.6313 20.4H20.9531C20.9696 19.0563 21.2867 17.7333 21.8813 16.5281L21.6844 16.425C21.0554 17.6958 20.7282 19.0946 20.7281 20.5125C20.728 21.3978 20.8543 22.2785 21.1031 23.1281L21.3188 23.0719C21.0858 22.2768 20.9628 21.4535 20.9531 20.625H22.6313C22.639 21.3142 22.7431 21.999 22.9406 22.6594L23.1563 22.6031C22.961 21.9615 22.8569 21.2956 22.8469 20.625H24.375C24.384 21.1724 24.4724 21.7156 24.6375 22.2375L24.8625 22.1813C24.6995 21.6781 24.6111 21.1538 24.6 20.625H26.25C26.2619 21.0152 26.3347 21.4011 26.4656 21.7688L26.6813 21.7125C26.5557 21.3631 26.4861 20.9961 26.475 20.625H27.9938C28.0188 21.0771 28.1974 21.507 28.5 21.8438L27.4219 22.9219C27.0952 22.5734 26.8432 22.1619 26.6813 21.7125L26.4656 21.7688C26.6399 22.2577 26.9146 22.7048 27.2719 23.0813L26.0813 24.2625C25.5163 23.6716 25.0931 22.9599 24.8438 22.1813L24.6188 22.2375C24.8828 23.0567 25.3319 23.8042 25.9313 24.4219L24.8625 25.5C24.0749 24.6864 23.4931 23.6965 23.1656 22.6125L22.95 22.6688C23.2869 23.7914 23.8881 24.817 24.7031 25.6594L23.5313 26.8406C22.5001 25.7869 21.7435 24.4959 21.3281 23.0813L21.1031 23.1375C21.5404 24.6264 22.3466 25.9808 23.4469 27.075C24.1905 27.8222 25.056 28.4373 26.0063 28.8938L26.1188 28.6969C25.2183 28.2695 24.3946 27.6962 23.6813 27L24.8625 25.8188C25.468 26.4021 26.1687 26.8777 26.9344 27.225L27.0469 27.0375C26.2977 26.698 25.6126 26.2318 25.0219 25.6594L26.0906 24.5906C26.5859 25.0667 27.1642 25.448 27.7969 25.7156L27.9094 25.5188C27.2939 25.2618 26.7312 24.8931 26.25 24.4313L27.4313 23.25C27.8086 23.604 28.2556 23.8754 28.7438 24.0469L28.8469 23.85C28.3793 23.6884 27.9511 23.4296 27.5906 23.0906L28.6688 22.0125C29.0055 22.3151 29.4355 22.4937 29.8875 22.5188V24.0375C29.5363 24.0269 29.1887 23.9637 28.8563 23.85L28.7344 24.0375C29.1045 24.1729 29.4937 24.2489 29.8875 24.2625V25.9313C29.208 25.9197 28.5369 25.7797 27.9094 25.5188L27.7969 25.7063C28.4586 25.9886 29.1683 26.1413 29.8875 26.1563V27.675C28.9069 27.6603 27.9398 27.4432 27.0469 27.0375L26.9344 27.225C27.8612 27.6526 28.867 27.8825 29.8875 27.9V29.5688C28.5829 29.5547 27.297 29.2572 26.1188 28.6969L26.0063 28.8844C27.2527 29.4826 28.6175 29.7934 30 29.7938C31.4813 29.7938 32.9063 29.4469 34.1813 28.8L34.0688 28.5938C32.8421 29.2176 31.4886 29.5511 30.1125 29.5688V27.8906C31.2201 27.8751 32.3098 27.6091 33.3 27.1125L33.2063 26.9156C32.2451 27.3967 31.1873 27.6531 30.1125 27.6656V26.1656C30.9472 26.1468 31.7672 25.9418 32.5125 25.5656L32.4094 25.3688C31.695 25.7242 30.9104 25.9164 30.1125 25.9313V24.2625C30.6428 24.2478 31.1638 24.12 31.6406 23.8875L31.5469 23.6813C31.0996 23.9008 30.6106 24.0223 30.1125 24.0375V22.5188C30.5646 22.4937 30.9945 22.3151 31.3313 22.0125L32.4094 23.0906C32.1499 23.3299 31.856 23.529 31.5375 23.6813L31.6406 23.8875C31.9803 23.7229 32.2932 23.508 32.5688 23.25L33.75 24.4219C33.3537 24.8036 32.9017 25.1229 32.4094 25.3688L32.5031 25.5656C33.0193 25.3111 33.4936 24.9792 33.9094 24.5813L34.9781 25.65C34.4525 26.1604 33.8518 26.5872 33.1969 26.9156L33.3094 27.1125C33.9817 26.7739 34.5982 26.3345 35.1375 25.8094L36.3094 26.9906C35.6484 27.6358 34.8928 28.1764 34.0688 28.5938L34.1813 28.8C35.0583 28.3543 35.8589 27.7721 36.5531 27.075C37.286 26.3433 37.8913 25.494 38.3438 24.5625Z" fill="#F0F0F0"/>
<path d="M30.5344 18.375H30.4782V18.4406H30.5344V18.375ZM30.3938 18.2813H30.4688V18.3375H30.3938V18.2813ZM30.2625 18.2625L30.3188 18.2719L30.3281 18.2156H30.2625V18.2625ZM30.2063 18.2438H30.1406V18.1781L30.2156 18.1875L30.2063 18.2438ZM29.6625 18.1688H29.7375V18.225H29.6625V18.1688ZM29.5032 18.2813L29.5688 18.2906V18.2344H29.5125L29.5032 18.2813ZM29.5032 18.375L29.4375 18.3469V18.2906L29.5219 18.3188L29.5032 18.375ZM29.3719 18.4406V18.3844L29.4188 18.375L29.4281 18.4313L29.3719 18.4406ZM22.0031 24.2156V24.1688H21.9563V24.2625H22.0313V24.3844H22.0875V24.2438L22.0031 24.2156ZM22.7063 25.0594L22.6125 24.9656L22.5282 24.8625L22.4906 24.7688L22.425 24.6L22.5656 24.675L22.6125 24.8063L22.6781 24.8531L22.7438 24.9938L22.7063 25.0594ZM24.6469 27.6L24.6375 27.5156L24.5531 27.4031L24.675 27.4219L24.7875 27.525L24.8438 27.6469L24.7688 27.6844L24.7406 27.6281L24.6469 27.6ZM29.7094 18.9844H29.6156L29.5875 18.7781L29.6438 18.7406V18.6375H29.3157V18.5344L29.3532 18.5063L29.2781 18.4781L29.2219 18.5531L29.2031 18.6375L29.1094 18.6563V18.7031H29.0438V18.825L28.7813 19.0406L28.2563 19.0219C28.2281 19.1156 28.1344 19.0219 28.1344 19.0219C28.1063 18.9563 27.9844 19.0219 27.9844 19.0219C27.9844 19.1156 27.7969 18.9656 27.7969 18.9656L27.4782 18.7313C27.2907 18.5625 27.0094 18.7781 27 18.825C27 18.9563 26.7844 18.8531 26.7844 18.8531C26.7844 18.8531 26.5969 18.7969 26.5688 18.8719C26.5406 18.9469 26.4188 18.9281 26.4188 18.9281L26.4 18.9656L26.3063 18.9844L26.2875 19.0406L26.175 19.0594H26.4563C26.5313 19.0406 26.4281 19.2188 26.3813 19.2094H26.25L26.2031 19.2656H26.0813L26.025 19.3406L25.8469 19.3313C25.8469 19.3313 25.7532 19.4156 25.7532 19.4438C25.7625 19.4719 25.7344 19.5563 25.7063 19.5563C25.6782 19.5563 25.6219 19.65 25.6406 19.6688C25.6594 19.6969 25.5844 19.7906 25.5844 19.7906L25.5657 19.8844L25.5094 19.9125V20.1656L25.3969 20.2406V20.3531L25.2282 20.5406L25.2469 20.6813L25.1063 20.8406L25.125 20.9906L25.0407 21.0188L25.0219 21.0844L24.9844 21.2813L25.0781 21.2906C25.125 21.2719 25.1156 21.4125 25.0781 21.4406C25.0406 21.4594 24.9375 21.4969 24.9938 21.5344C25.05 21.5719 24.8438 21.5625 24.8438 21.5063C24.8438 21.4406 24.7313 21.3938 24.7031 21.4125C24.675 21.4313 24.6282 21.3281 24.6282 21.3281C24.5344 21.2344 24.2156 21.3375 24.2156 21.3375L24.1688 21.4969C24.0656 21.5063 24 21.6844 24 21.6844C23.9063 21.7125 23.85 21.8156 23.8781 21.8438C23.9063 21.8719 23.8313 21.8813 23.8313 21.8813V22.0875L23.7844 22.1531V22.3875C23.85 22.3875 23.8407 22.4813 23.8407 22.4813C23.7469 22.5 23.7657 22.6219 23.7657 22.6219L23.5688 22.6875L23.5313 22.7438H23.2875L23.2219 22.8L23.1563 22.7344H22.6875L22.6688 22.6875L22.575 22.6688V22.5656H22.425L22.3969 22.6313L22.2469 22.6406C22.2563 22.7344 22.0969 22.875 22.0781 22.8375C22.0594 22.8 21.9563 22.6969 22.0031 22.6781C22.0584 22.6617 22.1148 22.6491 22.1719 22.6406V22.575L21.825 22.5656L21.7875 22.6219L21.6469 22.6313V22.7813L21.5813 22.8C21.5344 22.8281 21.5907 22.9313 21.5907 22.9313C21.6563 22.9969 21.5907 23.1094 21.5907 23.1094C21.525 23.1656 21.6281 23.2688 21.6281 23.2688C21.7031 23.2875 21.5813 23.3438 21.5813 23.3438C21.6 23.4375 21.6563 23.4656 21.6563 23.4656C21.6 23.5594 21.6938 23.6063 21.6938 23.6063L21.7031 23.7656L21.7688 23.8031V23.9156L21.8063 23.9813H21.9563V23.7375C21.8156 23.5875 22.0594 23.55 22.0688 23.6063C22.0781 23.6625 22.1813 23.7 22.1813 23.7C22.2 23.8406 22.3688 23.925 22.4063 23.775C22.4531 23.6344 22.5 23.7188 22.5188 23.7844C22.5469 23.8594 22.725 24.0188 22.725 24.0188H22.8656L22.8844 24.15C23.0438 24.1406 23.0906 24.15 23.1563 24.375C23.172 24.4377 23.2023 24.4958 23.2446 24.5447C23.287 24.5935 23.3402 24.6318 23.4 24.6563L23.5313 24.6469C23.5313 24.525 23.6625 24.6656 23.6625 24.7219C23.6625 24.7781 23.9157 24.9938 23.9157 24.9938L24.1688 25.05L24.4031 25.2375L24.5813 25.2188H24.6563C24.7031 25.0594 24.9281 25.2281 24.9375 25.2844C24.9563 25.3406 25.1063 25.4438 25.125 25.3969C25.1438 25.35 25.2469 25.3781 25.2656 25.5188C25.2844 25.6594 25.3594 25.6313 25.3594 25.6313L25.8844 25.6219L26.0719 25.4625L26.55 25.4531C26.7938 25.4438 26.6438 25.1063 26.5969 25.1063C26.5125 25.0406 26.625 24.7688 26.625 24.7688L25.9407 24.1313C25.7813 24.1313 25.9219 23.9063 25.9219 23.9063C26.0438 23.8313 25.8938 23.7 25.8938 23.7C25.9125 23.5875 25.8281 23.4563 25.8281 23.4563C25.6594 23.3438 25.7063 23.1281 25.7063 23.1281V22.9688C25.5657 22.8375 25.7625 22.8188 25.7625 22.8188C25.8281 22.7063 25.7156 22.6219 25.7156 22.6219V22.5L25.5563 22.4813L25.5375 22.0313L25.2 21.5531C25.1344 21.5344 25.1813 21.4125 25.1813 21.4125C25.275 21.3656 25.1625 21.2531 25.1625 21.2531V21.0469L25.35 21.0281L25.3969 20.9531H25.4906V20.7094C25.5281 20.5781 25.6406 20.6438 25.6406 20.6438L25.7719 20.6531L25.8469 20.5125L25.8656 20.4H25.7719C25.65 20.325 25.7063 20.0813 25.7063 20.0813C25.8938 19.8094 26.0906 19.9688 26.0906 19.9688L26.2219 19.9594C26.4188 20.0906 26.2406 20.3344 26.2406 20.3344C26.2031 20.3906 26.2219 20.5688 26.2219 20.5688L26.2688 20.8781L26.1469 20.9719C26.0531 21.0375 26.0531 21.1688 26.1563 21.1969C26.2313 21.2063 26.2031 21.3844 26.0906 21.2625C25.9219 21.2625 26.1844 21.4125 26.1094 21.375C26.2781 21.4688 26.2406 21.3 26.2406 21.3L26.4656 21.1219C26.5594 21.0563 26.7 21.2625 26.7 21.2906C26.7 21.3188 27.075 21.3 27.075 21.3C27.1688 21.3656 27.2156 21.5438 27.2156 21.5438C27.3094 21.4031 27.5344 21.5344 27.375 21.6094C27.525 21.7031 27.525 21.7875 27.525 21.7875C27.6469 21.75 27.6469 21.8438 27.6469 21.8719L27.6844 21.7313C27.5438 21.6281 27.8719 21.5906 27.7781 21.7781L27.7219 21.8625L27.8157 21.9375V22.1531C28.0313 22.1344 27.975 21.8813 27.975 21.8813L28.0688 21.8625C28.0688 21.7688 28.1344 21.825 28.1344 21.825C28.0688 21.5063 28.2844 21.45 28.2844 21.45C28.4063 21.4125 28.4157 21.1594 28.4157 21.1594C28.3219 21.1219 28.3782 20.9906 28.4719 21.1031C28.5657 21.2156 28.4157 20.8781 28.4157 20.8781L28.3406 20.8125L28.2375 20.8031L28.2282 20.7H28.0594L28.0313 20.8313L27.9656 20.85L27.9469 20.8125L27.9188 20.9063H27.75L27.7406 20.8031L27.8344 20.775L27.8813 20.7188L27.9094 20.5594H28.0313L28.1907 20.5125C28.1907 20.3531 28.2844 20.3906 28.2844 20.3906L28.3406 20.4375L28.425 20.5031V20.5594L28.3782 20.5875L28.3688 20.6625L28.3969 20.775H28.4625C28.4907 20.6156 28.6875 20.6156 28.7438 20.7188L28.8 20.5781C28.6688 20.5125 28.8 20.4094 28.8375 20.4563C28.875 20.5031 28.9594 20.3344 28.9594 20.3344C28.9594 20.3344 29.025 20.4281 28.9594 20.3063C28.8938 20.1938 29.0063 20.1375 29.0063 20.1375C28.9875 20.025 29.1282 20.0438 29.1282 20.0438L29.1375 19.8844H29.0063C28.9781 20.0156 28.8656 19.8938 28.9219 19.8656C28.9781 19.8375 29.0344 19.7813 29.0344 19.7813V19.6875L29.0906 19.6688L29.1 19.575H29.2406L29.3625 19.5188L29.3906 19.4719L29.5219 19.4625L29.7094 19.2938L29.6907 19.2188C29.5782 19.2188 29.6907 19.125 29.6907 19.125L29.7094 18.9844Z" fill="#F0F0F0"/>
<path d="M25.9406 20.8688L25.7719 20.85L25.7813 20.9156H25.8281C25.9031 21.0469 25.8375 21.3656 25.8375 21.3656C25.8375 21.3656 25.725 21.375 25.7063 21.3188C25.6875 21.2625 25.6406 21.4406 25.6781 21.4781C25.7156 21.5063 25.8469 21.4781 25.8656 21.5719C25.8656 21.6844 25.9406 21.5156 25.9406 21.5156V20.8594V20.8688Z" fill="#F0F0F0"/>
<path d="M25.9406 21.675L25.9969 21.6656L26.0062 21.6L25.8656 21.6938L25.7719 21.6375V21.8625L25.9219 22.0594L25.9781 21.9281L25.9969 21.8438L25.9312 21.8156L25.9406 21.675ZM26.0156 22.275V22.1813H25.95V22.2656L26.0156 22.275ZM25.9312 22.725V22.6594L25.8562 22.6688V22.7344L25.9312 22.725ZM26.0437 22.4344C26.0549 22.4344 26.0656 22.4299 26.0736 22.422C26.0815 22.4141 26.0859 22.4034 26.0859 22.3922C26.0859 22.381 26.0815 22.3703 26.0736 22.3624C26.0656 22.3545 26.0549 22.35 26.0437 22.35C26.0379 22.3498 26.0321 22.351 26.0268 22.3534C26.0215 22.3559 26.0169 22.3595 26.0132 22.3641C26.0096 22.3686 26.0071 22.3739 26.0059 22.3796C26.0046 22.3853 26.0048 22.3912 26.0062 22.3969C26.0062 22.4156 26.025 22.4344 26.0437 22.4344Z" fill="#F0F0F0"/>
<path d="M26.1094 22.6312C26.1301 22.6312 26.1469 22.6145 26.1469 22.5937C26.1469 22.573 26.1301 22.5562 26.1094 22.5562C26.0887 22.5562 26.0719 22.573 26.0719 22.5937C26.0719 22.6145 26.0887 22.6312 26.1094 22.6312Z" fill="#F0F0F0"/>
<path d="M26.1094 21.5438C26.1301 21.5438 26.1469 21.527 26.1469 21.5062C26.1469 21.4855 26.1301 21.4688 26.1094 21.4688C26.0887 21.4688 26.0719 21.4855 26.0719 21.5062C26.0719 21.527 26.0887 21.5438 26.1094 21.5438Z" fill="#F0F0F0"/>
<path d="M29.2875 20.1094L29.1938 20.1L29.1656 20.1469H29.1188V20.2219H29.1656L29.175 20.2781L29.1375 20.3156L29.1188 20.3625L29.0438 20.3812L28.875 20.5406V20.6156L28.8188 20.6812L28.7625 20.8312H28.575L28.5281 21.0094L28.5563 21.15L28.725 21.2156L28.7438 21.1219L28.8 21.0937L28.8094 21L28.8469 20.9344L28.9031 20.8687L28.9219 20.7937L29.0156 20.7375L29.1281 20.7094L29.175 20.6531L29.1938 20.5406V20.4562L29.2406 20.4L29.3531 20.3531V20.1656H29.2969L29.2875 20.1094ZM29.55 20.7562V20.6156L29.5313 20.4937L29.3906 20.4281L29.2969 20.5219L29.2688 20.6531V20.7469L29.175 20.7656L29.1563 21.0187L29.0813 21.0469L29.0906 21.1406L28.9969 21.1687L28.8844 21.1969L28.8656 21.3187L28.7906 21.3656L28.7531 21.4875L28.7063 21.7594C28.7063 21.7594 28.8 21.9187 28.8375 21.8437C28.8844 21.7687 28.9594 21.75 28.9594 21.75L28.9875 21.6937H29.2406C29.2594 21.6 29.3813 21.6375 29.3813 21.6844C29.3813 21.7312 29.475 21.6844 29.475 21.6844L29.5406 21.5906H29.6438L29.6531 21.4687L29.7 21.4406V21.2812C29.85 21.2344 29.8313 21.0937 29.8313 21.0937L29.8688 21.0469L29.85 20.9812C29.775 20.9531 29.8125 20.8875 29.8594 20.9062C29.9063 20.925 29.7938 20.8125 29.7938 20.8125C29.7375 20.8687 29.7 20.7656 29.7 20.7656H29.55V20.7562ZM29.7 21.9C29.7 22.0125 29.55 22.05 29.55 22.05L29.4563 22.0219L29.3906 21.975V21.8437L29.4656 21.8344L29.4844 21.8906L29.7 21.9ZM30.2063 21.2906C30.225 21.3844 30.225 21.1594 30.2625 21.1687C30.3 21.1781 30.2719 21.0375 30.2719 21.0375L30.1031 21.1594C30.1875 21.1687 30.1969 21.2531 30.2063 21.2906ZM30.7031 20.8031C30.7406 20.8875 30.7313 21.0094 30.8719 21.1031C30.9188 21.1312 30.8438 21.1969 30.7969 21.1687C30.7262 21.0975 30.6633 21.0189 30.6094 20.9344V20.8125C30.6469 20.7375 30.6844 20.7656 30.7031 20.8031ZM30.7313 23.7094L30.7594 23.7562L30.825 23.6625L30.7688 23.6344L30.7031 23.6812L30.7313 23.7094ZM30.4688 23.5312V23.6437V23.5312ZM31.8188 23.4L31.8938 23.3531L31.8656 23.2969L31.7906 23.3437L31.8188 23.4ZM33.1781 25.5L33.2625 25.5469V25.7062C33.3844 25.8187 33.75 25.725 33.75 25.6969L33.7313 25.3406L33.6844 25.2937L33.675 25.0594C33.7125 24.9375 33.4875 24.7594 33.4781 24.7969C33.4594 24.8344 33.3375 24.7969 33.3375 24.8437C33.3375 24.8812 33.2625 25.0687 33.3 25.1344C33.3375 25.2 33.2719 25.2 33.2625 25.2656C33.2531 25.3312 33.1594 25.4531 33.1688 25.5094L33.1781 25.5ZM32.9719 25.125C32.9531 25.2 32.8781 25.2375 32.85 25.2187C32.8125 25.1812 32.8969 25.2562 32.9156 25.2937C32.9344 25.3312 32.9906 25.3312 33.0094 25.2937C33.0281 25.2562 33.0094 25.1719 33.0375 25.1344C33.0563 25.0969 32.9813 25.0875 32.9719 25.1344V25.125ZM32.5313 23.3812H32.5969V23.5687H32.5313V23.3812ZM33.5063 21.5625C33.4594 21.5062 33.6938 21.4031 33.7313 21.525C33.7688 21.6375 33.7313 21.6187 33.6938 21.6094C33.6563 21.6 33.5625 21.6375 33.5063 21.5625ZM33.7031 20.2875V20.3437L33.7969 20.3625L33.8063 20.3062L33.7031 20.2875ZM33.2813 20.4375L33.3563 20.4844H33.3844L33.4406 20.4469V20.4656L33.4969 20.4469L33.4781 20.4V20.3719L33.4406 20.3812L33.375 20.4281L33.3094 20.3812L33.2813 20.4375ZM35.1563 18H35.0156C35.0156 18 35.0625 18.0187 34.9219 17.8969C34.8 17.775 34.7156 17.925 34.7156 17.925L34.5656 17.9437V18.0937L34.4906 18.1219V18.2156H34.6031C34.6031 18.2156 34.6031 18.3187 34.6313 18.2719C34.6594 18.225 34.8938 18.2812 34.875 18.4031C34.8656 18.45 35.1094 18.5719 35.0813 18.7219C35.2031 18.7406 35.175 18.8625 35.175 18.8625L35.3344 18.8812L35.3813 18.7875L35.4281 18.7969V18.7406L35.325 18.7125L35.3063 18.4031L35.2406 18.3562L35.2594 18.2812L35.1844 18.2531L35.2219 18.1312L35.1563 18ZM35.5594 18.9656H35.4844L35.3156 18.9844L35.2219 19.1719C35.2219 19.1719 35.2688 19.2 35.3156 19.2656C35.3438 19.3312 35.3625 19.7156 35.25 19.7812C35.1375 19.8469 35.2594 19.8094 35.2594 19.8094L35.2406 20.025C35.2688 20.1187 35.3156 20.0719 35.3438 20.025C35.3719 19.9781 35.4 19.9687 35.4375 19.9219C35.475 19.875 35.5313 19.7812 35.5406 19.7156C35.55 19.65 35.5969 19.5469 35.5688 19.5187C35.5406 19.4906 35.5969 19.3594 35.5969 19.3594C35.5969 19.3594 35.6344 19.2844 35.5969 19.2094C35.5594 19.1344 35.6063 19.0406 35.6344 19.0031L35.5594 18.9656ZM35.6719 19.3594L35.6813 19.2844H35.7375V19.3594H35.6719ZM35.6719 19.6219L35.625 19.5937L35.6531 19.5375L35.7 19.5656L35.6719 19.6219ZM35.5875 18.8719L35.55 18.7781C35.55 18.7781 35.55 18.7031 35.5688 18.6656C35.5875 18.6281 35.5313 18.5906 35.5031 18.5719C35.475 18.5719 35.4844 18.4969 35.475 18.4594C35.475 18.4219 35.4 18.3937 35.4 18.3937L35.3813 18.2156C35.3813 18.1875 35.2969 18.15 35.325 18.1219L35.4 18.0375C35.4281 18.0187 35.3719 17.8875 35.4188 17.9156C35.4656 17.9437 35.4656 17.9906 35.4844 18.0281C35.5031 18.0656 35.4844 18.1969 35.5219 18.225C35.5688 18.2531 35.5219 18.3562 35.5875 18.3562C35.6625 18.3562 35.6156 18.5344 35.6156 18.5344C35.6156 18.5344 35.5969 18.6656 35.6438 18.675C35.6906 18.6844 35.6625 18.9094 35.6625 18.9094L35.5875 18.8625V18.8719ZM34.9875 17.325C35.0156 17.3625 35.0719 17.3906 35.0719 17.4281C35.0719 17.4656 35.0531 17.4937 35.1094 17.5031C35.1656 17.5125 35.2031 17.5031 35.2219 17.5406C35.2406 17.5875 35.2406 17.6719 35.2219 17.7094C35.2219 17.7469 35.2406 17.8031 35.2875 17.8031C35.3344 17.8031 35.3438 17.8031 35.3438 17.8406C35.3438 17.8687 35.4 17.7375 35.4 17.7375C35.3531 17.7 35.3063 17.6156 35.3063 17.6156L35.2688 17.4562C35.2688 17.4375 35.2031 17.4187 35.175 17.4094C35.1469 17.4094 35.1 17.3156 35.1 17.3156L34.9875 17.325ZM35.0813 17.2406C35.0531 17.2031 35.025 17.175 34.9875 17.1562C34.95 17.1375 34.9219 17.1187 34.8844 17.1187C34.8736 17.1182 34.8631 17.1151 34.8538 17.1095C34.8445 17.104 34.8367 17.0962 34.8311 17.0869C34.8256 17.0777 34.8224 17.0671 34.8218 17.0563C34.8213 17.0455 34.8235 17.0348 34.8281 17.025C34.8469 16.9875 34.8 16.9687 34.8 16.9312C34.8 16.8937 34.8281 16.8937 34.875 16.9219C34.9219 16.95 34.9125 16.9594 34.95 17.0062C34.9875 17.0531 35.0063 17.1 35.0438 17.0906C35.0813 17.0812 35.1094 17.175 35.1375 17.1469C35.1844 17.1187 35.175 17.2125 35.175 17.2125L35.0813 17.2406ZM33.9844 18.3094C34.0313 18.3656 33.7031 18.3469 33.7031 18.3094C33.7031 18.2719 33.7313 18.1406 33.8156 18.1687C33.9 18.1969 33.9094 18 33.9094 18C33.9094 18 33.8344 18.0094 33.9 17.9719C33.9656 17.9344 33.9 17.8781 33.8719 17.85L33.8156 17.775H33.9469C34.0031 17.7375 34.0219 17.5594 34.0219 17.5594C34.1344 17.5969 34.1906 17.5125 34.1906 17.5125L34.2469 17.625C34.2844 17.6719 34.1531 17.6906 34.2 17.7187C34.2469 17.7469 34.2656 17.8312 34.2469 17.8594C34.2281 17.8875 34.125 17.8594 34.125 17.8312C34.125 17.8031 34.0875 17.8781 34.125 17.925C34.1625 17.9719 34.0781 18.0375 34.0594 18.0375C34.0406 18.0375 33.9188 18.0562 34.0219 18.1125C34.1156 18.1687 34.2375 18.1406 34.2375 18.1406C34.2375 18.1406 34.3219 18.1406 34.35 18.1781C34.3781 18.225 34.3406 18.2344 34.2938 18.2344L34.0125 18.2156C34.0125 18.2156 33.9563 18.2812 33.9844 18.3094ZM33.3844 18.4031C33.4313 18.3937 33.5438 18.3844 33.5719 18.4031C33.5813 18.4406 33.4969 18.4781 33.4969 18.4781L33.3844 18.4969C33.3469 18.45 33.3375 18.4031 33.3844 18.4031ZM34.5938 17.6062C34.6688 17.5687 34.8281 17.5687 34.8188 17.5125C34.8094 17.4469 34.9125 17.4281 34.9125 17.4281L34.9406 17.5406L35.025 17.6062V17.7L34.9594 17.7187C34.8563 17.7469 34.9219 17.7937 34.9219 17.7937H34.6875L34.6594 17.7L34.5844 17.6062H34.5938ZM34.2188 17.0906C34.2844 17.0906 34.2094 17.3062 34.3594 17.2875C34.5094 17.2687 34.3594 17.3531 34.4813 17.3625C34.5938 17.3719 34.5656 17.2781 34.6031 17.2125C34.6406 17.1469 34.6219 17.1094 34.5563 17.0906C34.4906 17.0719 34.4906 17.0719 34.4625 16.9969C34.4531 16.9219 34.3688 16.9031 34.3688 16.9031L34.35 16.7906L34.2281 16.8656L34.1063 17.025C34.1063 17.1469 34.1719 17.0906 34.2281 17.0906H34.2188ZM34.4719 17.8875L34.5 17.8312L34.5563 17.8594L34.5281 17.9156L34.4719 17.8875ZM34.3781 17.7937H34.4344V17.8687H34.3781V17.7937ZM34.425 16.5375V16.6219H34.3781L34.3688 16.5469L34.425 16.5375ZM34.2656 17.4187H34.3219V17.4656H34.2656V17.4187ZM34.1156 17.4187V17.3625H34.2094V17.4094L34.1156 17.4187ZM33.3469 18.3375L33.2906 18.3094L33.3188 18.2437L33.375 18.2719L33.3469 18.3375ZM33.0469 18.1594V18.1031H33.1406V18.15L33.0469 18.1594ZM31.425 18.1406L31.2188 18.15V18.2062H31.4344L31.425 18.1406ZM31.0875 18.225L31.0688 18.1406L31.125 18.1312L31.1438 18.2156L31.0875 18.225ZM31.05 18.2812L31.0313 18.2344L31.0594 18.225L31.0781 18.2719L31.05 18.2812ZM31.5188 18.1219L31.5094 18.1875L31.6031 18.1969C31.6031 18.1969 31.65 18.2344 31.65 18.2625C31.65 18.2906 31.7156 18.3187 31.7531 18.3187C31.7906 18.3187 31.8938 18.2437 31.8938 18.2437C31.8938 18.2437 31.9406 18.1125 31.9031 18.1219C31.8656 18.1312 31.7906 18.1875 31.7813 18.1312C31.7813 18.075 31.6594 18.1031 31.6594 18.1031L31.5094 18.1219H31.5188ZM31.9875 18.0281C31.9875 18.0469 31.9594 18.0844 32.0156 18.0937C32.0719 18.1031 32.175 18.0562 32.1844 18.1125C32.1938 18.1687 32.1938 18.2062 32.2781 18.2344C32.3316 18.2572 32.3888 18.2699 32.4469 18.2719L32.6344 18.2531C32.6344 18.2531 32.7563 18.2812 32.7844 18.3C32.8875 18.4125 32.9531 18.4406 32.9813 18.3937C33.0094 18.3469 32.9813 18.2344 32.9625 18.2062C32.9625 18.1594 32.8219 17.9812 32.775 18.0187C32.7281 18.0562 32.7188 18.0187 32.6344 18.0469C32.55 18.075 32.3719 18.0562 32.3625 18.0187C32.3625 17.9812 32.2219 17.9625 32.2219 17.925C32.2219 17.8875 32.1281 17.8312 32.1375 17.8969C32.1469 17.9531 32.0719 17.9812 32.0531 17.9625C32.0344 17.9437 31.9781 18.0187 31.9781 18.0187L31.9875 18.0281ZM34.1344 16.8094L34.2 16.5937C34.1063 16.575 34.125 16.4719 34.125 16.4719C34.1156 16.3781 33.9844 16.2844 33.9375 16.3219C33.8906 16.35 33.9094 16.125 33.9094 16.125C33.9094 16.125 33.9938 16.0687 34.0313 16.0969C34.0688 16.125 33.7125 15.6187 33.6375 15.6656C33.5625 15.7125 33.3938 15.6187 33.4031 15.5344C33.4125 15.4406 33.0656 15.1594 33.0656 15.1594C33.0656 15.1594 32.9531 15.0844 32.9344 15.1406C32.9156 15.1969 32.8781 15.2344 32.9344 15.2719C32.9906 15.3 32.9813 15.225 33.0469 15.2906C33.1125 15.3562 33.2344 15.4406 33.1875 15.4969C33.1406 15.5531 33.0938 15.5719 33.0938 15.5719L33.15 15.6469H33.2531L33.2719 15.8062C33.2719 15.8062 33.3844 15.8625 33.4125 15.9281C33.4406 15.9937 33.4406 16.0312 33.4125 16.0781C33.3844 16.1156 33.3281 16.1719 33.3375 16.2469C33.3469 16.3125 33.4313 16.3406 33.4313 16.3406H33.4969L33.5531 16.3781V16.5C33.6281 16.4812 33.75 16.5937 33.7406 16.65C33.7406 16.7156 33.7594 16.6781 33.8531 16.7437C33.9469 16.8094 33.9188 16.8187 33.9844 16.875C34.05 16.9219 34.1063 16.8937 34.1344 16.8V16.8094Z" fill="#F0F0F0"/>
<path d="M32.5781 15.525C32.5781 15.4875 32.55 15.3562 32.6062 15.3656C32.6625 15.3656 32.625 15.3656 32.7 15.3937C32.775 15.4219 32.7656 15.3469 32.7656 15.3469H32.8688L33 15.4406L32.9812 15.5344H32.8875C32.8406 15.4687 32.7469 15.4969 32.7656 15.5625C32.7844 15.6281 32.7188 15.75 32.6813 15.7594C32.6438 15.7687 32.5219 15.7687 32.5312 15.7125L32.5781 15.525ZM32.5031 15.2719V15.1875C32.5031 15.1875 32.5031 15.1125 32.4469 15.1125C32.3906 15.1125 32.3156 15.0562 32.3344 15.0187C32.3531 14.9812 32.175 14.9437 32.175 14.9437C32.175 14.9437 32.0156 14.7937 32.0813 14.8125C32.1281 14.8312 32.1 14.7469 32.1 14.7469C32.1 14.7469 31.9875 14.7656 31.9594 14.7469C31.9312 14.7469 31.9406 14.6531 31.9406 14.6531C31.9406 14.6531 31.8281 14.6344 31.8281 14.6531C31.8281 14.6719 31.8656 14.6906 31.8844 14.7469C31.9031 14.8031 31.8938 14.8969 31.9781 14.9156C32.0719 14.9344 32.0812 14.9531 32.0906 14.9906C32.1 15.0281 32.2031 15.0375 32.2031 15.0375L32.2781 15.075L32.5031 15.2625V15.2719ZM31.5 14.2969L31.4719 14.2219L31.3969 14.2031V14.2969H31.5ZM31.4719 13.9031C31.3781 13.8281 31.6031 13.9594 31.6031 13.9594C31.6781 13.9594 31.725 14.0156 31.725 14.0437C31.725 14.0719 31.8187 14.0625 31.8187 14.0625L31.8281 13.9969L31.7531 13.9031L31.6875 13.8562C31.6875 13.8562 31.5938 13.8469 31.5938 13.8187C31.5938 13.7906 31.5 13.9312 31.4625 13.9031H31.4719ZM33.1875 13.9594C33.1594 14.0437 33.15 14.1562 33.1031 14.1562C33.0563 14.1562 33.075 14.2781 33.075 14.2781L33.2344 14.2875C33.2719 14.2969 33.2719 14.3906 33.2719 14.3906C33.4125 14.3906 33.4687 14.5781 33.4594 14.625C33.4312 14.6719 33.5062 14.6719 33.5062 14.6719C33.5062 14.6719 33.5063 14.8219 33.4875 14.8594C33.4688 14.8969 33.6094 14.925 33.6469 14.9812C33.6844 15.0375 33.6281 15.225 33.6 15.2344C33.5719 15.2531 33.675 15.2812 33.6656 15.3281C33.6563 15.375 33.6937 15.3281 33.7031 15.4031L33.7312 15.6375L33.8625 15.6469C33.8813 15.525 34.125 15.5156 34.1625 15.5344C34.3219 15.5906 34.4437 15.8344 34.4437 15.8906C34.4437 15.9469 34.3406 15.9562 34.3406 15.9562L34.3594 16.2375C34.5188 16.2844 34.6406 16.5187 34.6312 16.5469C34.6125 16.5844 34.7438 16.575 34.7438 16.575C34.7625 16.4062 34.9219 16.4625 34.9313 16.5187C34.9313 16.575 34.9688 16.7062 34.9688 16.7062L35.0156 16.7812L35.0813 16.8469H35.175L35.2125 16.9031L35.325 16.9219C35.325 16.9219 35.4281 17.0344 35.4375 17.0625C35.4469 17.0906 35.5875 17.0812 35.625 17.0906C35.6625 17.0906 35.7188 17.1281 35.7281 17.175C35.7375 17.2219 35.7937 17.2969 35.7937 17.2969C35.7937 17.2969 35.9063 17.325 35.9156 17.3625L35.9719 17.4844L36.0656 17.5594L36.075 17.6531H36.1781L36.2063 17.775L36.375 17.7656L36.4688 17.7C36.5556 17.6571 36.6298 17.5925 36.6844 17.5125C36.6937 17.4656 36.7125 17.325 36.8063 17.3531C36.9 17.3812 36.8344 17.1469 36.8344 17.1469C36.8344 17.1469 36.7031 17.0531 36.7125 17.0062C36.7219 16.9594 36.5812 16.8656 36.5906 16.8187C36.6 16.7906 36.4688 16.7062 36.4781 16.6687C36.4875 16.6312 36.4125 16.5281 36.4125 16.5281L36.2812 16.4062L36.2625 16.3125H36.15L35.925 16.0312L35.9344 15.9562H35.8688V15.8437L35.8031 15.8062H35.7094L35.4938 15.5719L35.475 15.4687H35.3812L35.4 15.2719C35.4656 15.1781 35.4281 15.0187 35.4281 15.0187C35.4281 15.0187 35.2969 15.0844 35.2312 15.0562C35.1656 15.0281 35.2594 14.9625 35.2594 14.9625V14.8875L35.2031 14.8312C35.2031 14.8312 35.0438 14.85 35.0344 14.8219L34.9969 14.6719L34.9875 14.5125L34.9219 14.4844L34.9125 14.4187L34.8094 14.4281V14.3156L34.7531 14.2969L34.6969 14.2687L34.6875 14.1562L34.4812 14.1469L34.4156 14.0531L34.3406 13.9406L34.1062 13.9219L34.05 13.8656L33.9563 13.8469L33.8906 13.8187L33.8625 13.8656H33.675V13.9312C33.5813 13.9781 33.2063 13.9312 33.2063 13.9687L33.1875 13.9594ZM34.1719 13.7062C34.1531 13.6406 34.3594 13.5656 34.4062 13.6219C34.4531 13.6781 34.5844 13.6875 34.5938 13.9781C34.6031 14.0719 34.4344 13.875 34.4344 13.875L34.2937 13.8281C34.2187 13.8094 34.1813 13.7625 34.1719 13.7156V13.7062ZM31.425 13.8281L31.3781 13.8L31.4156 13.7156L31.4625 13.7437L31.425 13.8281ZM30.9469 12.8906L30.825 12.7687V12.675L30.7875 12.6281L30.75 12.4969L30.6281 12.4594L30.5062 12.5062L30.375 12.5906L30.2344 12.6094L30.1594 12.7031L30.4594 12.7219L30.5156 12.8156L30.7312 12.8344L30.8719 12.975C30.9937 13.0219 31.0219 12.9562 30.9469 12.8906ZM30.9281 12.4219C30.9094 12.3469 30.7875 12.5344 30.9094 12.5719C31.0313 12.6094 31.1531 12.5719 31.1531 12.5719L31.1813 12.5156L31.65 12.525C31.6875 12.4875 31.7063 12.4312 31.7063 12.4312C31.7063 12.4312 31.8187 12.3937 31.8656 12.4125C31.9125 12.4312 31.8656 12.2812 31.8281 12.3C31.7812 12.3187 31.6875 12.3 31.6875 12.3H31.5188C31.5094 12.2437 31.3594 12.2719 31.35 12.3C31.3406 12.3469 31.2844 12.3562 31.2844 12.3562L31.0687 12.375C31.05 12.4312 30.9375 12.4687 30.9281 12.4312V12.4219ZM30 14.0344C30.1406 14.0812 30.1969 14.0344 30.2063 14.0062C30.2156 13.9687 30.225 13.9594 30.2812 13.95C30.3375 13.9406 30.2719 13.8281 30.2156 13.8375C30.1594 13.8375 30.1031 13.8187 30.0938 13.7719C30.0844 13.7156 29.9906 13.5937 29.9812 13.6875C29.9719 13.7812 29.9156 13.7812 29.925 13.8562C29.9344 13.9219 29.9625 14.0156 30 14.0344ZM28.9219 14.1375C28.9219 14.1 29.1094 14.1 29.1375 14.1281C29.1656 14.1562 29.1469 14.2031 29.2312 14.2031C29.3156 14.2031 29.2781 14.2594 29.2688 14.2969C29.2688 14.3156 29.175 14.3062 29.1562 14.2781C29.1562 14.25 29.0062 14.2406 29.0062 14.2406C29.0062 14.2406 28.9313 14.1844 28.9219 14.1375ZM32.1094 12.1031L32.0344 12.1594L31.9875 12.1125L31.9406 12.1594L32.0062 12.225L32.025 12.2437L32.0437 12.225L32.1375 12.15L32.1094 12.1031ZM31.5938 11.9344L31.5281 11.8969L31.5 11.9437L31.575 11.9906H31.6031L31.7063 11.925L31.6781 11.8781L31.5938 11.9344ZM31.2844 13.8844H31.275L31.1813 13.875V13.9312H31.2562L31.3125 14.025L31.3594 13.9969L31.2937 13.9031L31.2844 13.8844ZM28.1906 16.5281L28.2 16.6312H28.3406C28.3969 16.6312 28.2937 16.5656 28.2937 16.5656C28.2937 16.5656 28.1812 16.575 28.2 16.5281H28.1906ZM28.3781 16.5281L28.4062 16.4906L28.4625 16.5375L28.425 16.575L28.3781 16.5281ZM26.6719 14.7562L26.7094 14.7187L26.7656 14.775L26.7281 14.8125L26.6719 14.7562ZM29.3906 26.9719L29.2969 26.925L29.2688 26.9719L29.325 27L29.3063 27.0187L29.3438 27.0656L29.3906 27.0187L29.4187 26.9906L29.3906 26.9719ZM28.6594 26.2875L28.6219 26.2406L28.5656 26.2875L28.5375 26.3156L28.575 26.3344L28.6406 26.3812L28.6687 26.3344L28.6312 26.3062L28.6594 26.2875ZM35.6156 24.4875C35.6062 24.4406 35.55 24.4219 35.5406 24.4125L35.5219 24.4687L35.5406 24.4781L35.55 24.525L35.5406 24.5437L35.5781 24.5812C35.6156 24.5531 35.625 24.5156 35.6156 24.4875ZM35.7094 24.3H35.6156V24.2156L35.7094 24.2344V24.3ZM37.8656 23.5687C37.9125 23.5406 37.9594 23.4937 37.9594 23.6062C37.95 23.7094 37.9031 23.6719 37.8656 23.7094C37.8375 23.7469 37.8094 23.6062 37.8656 23.5687ZM38.3438 23.1656C38.3436 23.1625 38.3436 23.1594 38.3438 23.1562C38.3426 23.1332 38.3362 23.1108 38.325 23.0906L38.2781 23.1187L38.2875 23.1562C38.2875 23.175 38.2875 23.1937 38.3063 23.2031C38.3156 23.2125 38.325 23.2125 38.3438 23.2031L38.3344 23.1562L38.3438 23.1656ZM38.2219 23.2125L38.2594 23.325L38.3063 23.3062C38.2949 23.2693 38.2855 23.2317 38.2781 23.1937L38.2219 23.2125ZM38.0156 23.4375H37.9594C37.9594 23.475 37.9594 23.5312 38.0062 23.5312L38.025 23.4844L38.0156 23.4375ZM37.7719 22.3125C37.7707 22.3019 37.7665 22.2919 37.7599 22.2836C37.7533 22.2753 37.7444 22.2691 37.7344 22.2656C37.6969 22.2469 37.6313 22.275 37.5938 22.3031L37.6219 22.35C37.6594 22.3219 37.7062 22.3125 37.7156 22.3125L37.7719 22.3031V22.3125ZM35.175 19.275C35.1375 19.3125 35.0531 19.3312 35.0531 19.3312L35.025 19.425L34.9875 19.4719V19.5656C34.9875 19.6312 34.8938 19.6687 34.8938 19.6687L34.8562 19.7156H34.6031C34.5094 19.6781 34.575 19.5656 34.6312 19.575C34.6875 19.5844 34.6219 19.4156 34.6219 19.4156L34.6969 19.4062C34.6969 19.4062 34.6969 19.2375 34.7344 19.2375C34.7625 19.2375 34.725 19.1812 34.6875 19.1437C34.65 19.1156 34.5938 19.0219 34.5656 19.0312H34.3781L34.35 19.0875L34.2469 19.1062L34.2375 19.2C34.1813 19.275 33.9563 19.4156 34.05 19.1812L34.0875 19.1156V19.0312H33.9187C33.9187 19.0312 33.825 18.9937 33.825 18.9562V18.8719L33.6281 18.6562L33.3938 18.6281L33.375 18.5812L33.2344 18.5625C33.0656 18.4687 32.9156 18.5531 32.9531 18.6937C32.9719 18.8344 33.0188 18.8906 32.925 18.8906C32.8313 18.8906 32.8125 18.8156 32.8125 18.8156C32.8125 18.8156 32.7375 18.7875 32.7375 18.825C32.7375 18.8625 32.7094 18.9375 32.7375 18.975C32.7656 19.0125 32.7 19.0687 32.6719 19.0406C32.6438 19.0125 32.5781 18.9281 32.5875 18.9C32.6063 18.8719 32.4562 18.6937 32.6062 18.6656C32.7562 18.6375 32.6062 18.5531 32.6531 18.5344L32.7281 18.4969H32.8031L32.85 18.4594L32.7281 18.4406L32.6531 18.4312L32.5125 18.4219C32.434 18.4689 32.3743 18.5418 32.3438 18.6281C32.2688 18.7687 32.0906 18.5719 32.1562 18.4969C32.2219 18.4219 31.95 18.4875 31.9031 18.525C31.8562 18.5625 31.7156 18.5437 31.7156 18.5437C31.6875 18.6281 31.5563 18.5344 31.5938 18.4781C31.6312 18.4219 31.6312 18.3844 31.6312 18.3844L31.5844 18.3656L31.5281 18.4781C31.4062 18.4781 31.3687 18.5531 31.3875 18.6C31.4156 18.6469 31.35 18.5906 31.3313 18.6562C31.3219 18.7219 31.35 18.7219 31.3969 18.75C31.4531 18.7781 31.3688 18.7781 31.4062 18.825C31.4437 18.8719 31.5563 18.825 31.5 18.8906C31.425 18.9562 31.3031 18.9281 31.3031 18.9281C31.2937 19.0219 31.1156 18.9937 31.0969 18.9656L30.9375 18.7687L30.75 18.7594C30.7406 18.6281 30.8437 18.6937 30.8812 18.5906C30.9187 18.4875 30.9375 18.3094 30.9375 18.3094C30.9375 18.3094 30.7875 18.3094 30.7781 18.3469C30.7687 18.3937 30.675 18.4312 30.675 18.4312C30.675 18.4312 30.6 18.4594 30.6281 18.4969C30.6563 18.5344 30.5719 18.5531 30.5719 18.5531C30.5719 18.5531 30.5812 18.6094 30.5625 18.6375C30.4875 18.7125 30.3 18.6375 30.2719 18.6187L30.1594 18.5719L30.0469 18.4969L29.9156 18.5531L29.8781 18.5906H29.7375L29.7281 18.7031L29.9812 18.7312L30 18.9656L29.8969 18.9281H29.8313L29.8031 18.8719H29.7469V19.0687L29.8031 19.1156L29.85 19.1625L29.9437 19.1719L29.9625 19.2937H30.1969L30.225 19.35H30.3656L30.6375 19.6312L30.6188 19.725L30.5719 19.7437C30.5906 19.8094 30.45 19.7719 30.45 19.7719V19.8281L30.5156 19.8375L30.5813 19.875L30.675 19.7156C30.7688 19.65 30.825 19.7437 30.8344 19.8094C30.8344 19.8562 30.7875 19.8469 30.7875 19.8469V19.9875L30.8438 20.0062C30.9375 20.1187 30.8063 20.1844 30.8063 20.1844L30.7781 20.2781C30.75 20.3625 30.6469 20.3437 30.6469 20.3437L30.6094 20.4L30.4969 20.4281L30.7219 20.4562C30.7406 20.3812 30.7969 20.3625 30.8156 20.4C30.8531 20.4375 30.8531 20.5031 30.8531 20.5031L30.9094 20.5125L30.9 20.6156L30.9563 20.6344V20.9437L31.0219 21.0187C31.1344 20.9719 31.1344 21.0469 31.0781 21.0844C31.0219 21.1219 31.0594 21.2906 31.0594 21.2906L31.0125 21.3375V21.4125L30.9563 21.45V21.5625C30.8625 21.5156 30.75 21.5344 30.7219 21.5625C30.6281 21.5062 30.4594 21.525 30.4594 21.5625C30.5156 21.6469 30.3938 21.6562 30.3938 21.6562L30.3281 21.7406C30.375 21.8344 30.2812 21.8437 30.2812 21.8437V22.0312L30.1687 22.125V22.3781C30.1687 22.4437 30.3188 22.4531 30.3469 22.4156C30.375 22.3781 30.4875 22.4906 30.4875 22.4906H30.5719L30.5906 22.3219L30.5344 22.2937V22.0125L30.6281 21.9187C30.7406 21.8719 30.7031 22.1531 30.7031 22.1812C30.7031 22.2937 30.7594 22.275 30.7969 22.2562C30.8906 22.2187 30.825 22.3687 30.75 22.35C30.675 22.35 30.7219 22.4437 30.7219 22.4437L30.7688 22.4719L30.675 22.5375L30.6094 22.6219L30.5156 22.5937L30.4031 22.5844L30.3656 22.5187L30.3 22.5094L30.2906 22.6406L30.2438 22.6969L30.1312 22.8094C30.2812 22.8094 30.1125 22.9125 30.075 22.9125C30.1594 22.9406 30.0656 23.025 29.85 22.9594V23.025L29.775 23.0344L29.8406 23.1187H29.9156L29.8875 23.2875C29.8875 23.4094 29.5781 23.325 29.55 23.2875V23.475H29.4844L29.4938 23.5875V23.7469L29.5875 23.7281V23.7937L29.8406 23.8031L30.2063 23.4187L30.4219 23.3719C30.4406 23.2781 30.5344 23.3906 30.5344 23.3906C30.6281 23.3812 30.6469 23.4469 30.6469 23.4469L30.7688 23.4656C30.8625 23.4937 30.8063 23.5031 30.8156 23.5406C30.8156 23.5969 30.8719 23.5781 30.8719 23.5781L30.8906 23.4562L30.9469 23.4656L30.8906 23.4L30.7875 23.3531L30.675 23.3062C30.6 23.2031 30.6938 23.2125 30.7688 23.2312H30.8906C30.8906 23.2312 31.0312 23.4187 31.0312 23.4656C31.0312 23.5125 31.0969 23.5219 31.0969 23.5219H31.1813L31.2094 23.5781H31.2937L31.3219 23.6344H31.4906V23.55L31.3406 23.5219L31.3313 23.4281L31.2188 23.4C31.1813 23.2406 31.2469 23.1937 31.2937 23.2687H31.35L31.3313 23.1375L31.3969 23.1187L31.3781 22.9125L31.3219 22.8937V22.8281L31.5563 22.8375C31.5375 22.7156 31.5563 22.6594 31.5563 22.6594H31.6312V22.7062L31.9219 22.7344L32.1281 22.5C32.1188 22.4812 32.1469 22.4719 32.1281 22.4531C32.0906 22.425 32.0531 22.4531 32.0062 22.425C31.9594 22.3969 32.0062 22.2375 32.0062 22.1906C31.9875 22.1531 32.1563 22.0969 32.1281 22.1906C32.1 22.2656 32.1281 22.3125 32.1281 22.3125C32.25 22.1906 32.3531 22.3125 32.3438 22.35C32.3438 22.3781 32.4094 22.4062 32.4563 22.3781C32.5031 22.35 32.5594 22.4625 32.55 22.5187C32.5219 22.575 32.3625 22.5656 32.3438 22.5094C32.3438 22.4531 32.3062 22.4719 32.2875 22.5C32.2687 22.5281 32.1937 22.5469 32.1375 22.5187C32.133 22.5133 32.1298 22.5069 32.1281 22.5L31.9219 22.7344H31.9313C32.0438 22.8 31.9875 22.8844 31.95 22.9031C31.9125 22.9219 31.8562 22.9219 31.8562 22.9219L31.8281 22.9594L31.5844 22.9781L31.5656 23.0719C31.4531 23.0625 31.4062 23.1937 31.4344 23.2594C31.4625 23.325 31.4344 23.3812 31.4344 23.3812L31.5281 23.4281L31.6687 23.3906C31.6875 23.2969 31.7625 23.2781 31.8375 23.2219C31.9125 23.1656 32.0344 23.3156 31.9969 23.4C31.9594 23.475 31.9594 23.5031 31.9594 23.5031L31.9688 23.5969L31.875 23.625L31.8 23.6625V23.7094H31.5375L31.5 23.7562L31.3781 23.7656L31.3406 23.8312H31.2469C31.2469 23.8312 31.1156 23.9062 31.1719 23.9812C31.2281 24.0562 30.9375 24.0469 30.8719 23.9437C30.8531 24.0375 30.75 23.9437 30.75 23.9437L30.6469 23.925L30.6375 23.7844C30.6187 23.6906 30.4406 23.6906 30.45 23.7562C30.45 23.8219 30.1125 23.7844 30.1125 23.7844L30 23.8312L29.8969 23.8969L29.8875 23.9437L29.7188 23.9625L29.6438 24L29.6156 23.9437H29.5406L29.4656 24.0375C29.2781 24.0562 29.0906 24.1687 29.1 24.225C29.1187 24.2625 29.025 24.3187 29.025 24.3187L28.9406 24.3375L28.8844 24.4312L28.7719 24.4594L28.7531 24.6656L28.6969 24.7031V24.7875L28.6312 24.8062V24.8531H28.5375L28.5938 25.0031L28.6687 25.0406C28.8 25.0594 28.7438 25.2281 28.7438 25.2281H28.8187L28.8562 25.3312L28.9313 25.4906C28.9594 25.6031 29.0438 25.575 29.0813 25.5656C29.1188 25.5562 29.1562 25.6781 29.1562 25.6781L29.5312 25.6875C29.5312 25.6875 29.5125 25.725 29.5781 25.7437C29.6437 25.7625 30.075 25.7812 30.0938 25.7531C30.075 25.6687 30.3281 25.65 30.4313 25.725C30.525 25.8 30.675 25.7531 30.675 25.7531L30.8156 25.9219L30.9094 26.1375L31.0687 26.1844L31.1813 26.2125L31.2188 26.3719H31.3031L31.3313 26.4844C31.425 26.5594 31.3031 26.7187 31.3031 26.7187V26.9344L31.3781 26.9719L31.3688 27.0469L31.4906 27.1687H31.6312L31.9781 27.5531L32.2594 27.6469L32.3063 27.7969L32.3812 27.7875L32.4375 27.7406L32.6625 27.7312L32.775 27.6187L32.8969 27.6L33.9281 26.7187L33.8344 26.6625V26.4562C34.0125 26.3344 34.0219 26.1094 33.8625 26.0906C33.7406 26.0812 33.7969 25.95 33.9094 25.9312L33.975 25.9031V25.8187L34.1906 25.6219V25.4719L33.7219 25.0781C33.5156 25.0031 33.7219 24.5437 33.8625 24.5531C34.0031 24.5625 33.8531 23.8594 33.8531 23.8594L33.7781 23.8219L33.7969 23.5875H33.6937L33.525 23.8125L33.4781 23.9625C33.4594 24.1594 32.8781 24.1219 32.85 24.0937C32.8219 24.0656 32.625 23.9812 32.625 23.9812C32.625 23.9812 32.475 23.8594 32.4469 23.8875C32.4188 23.9344 32.2875 23.85 32.2875 23.8781C32.2875 23.9062 32.1656 23.8031 32.1656 23.8031L31.9781 23.7375L32.1188 23.7094L32.0906 23.5969L32.3344 23.7187C32.3625 23.7562 32.4844 23.7469 32.4844 23.7469L32.5219 23.7937C32.5219 23.7937 32.5969 23.7937 32.6438 23.8406C32.6906 23.9062 32.9344 23.8594 32.9344 23.8594L33 23.9156L33.1031 23.9531H33.3938L33.4031 23.775L33.4594 23.7187V23.6062L33.5156 23.55V23.4562L33.5719 23.4375L33.5813 23.2312L33.6281 23.2219V22.7625L33.4875 22.6312C33.4781 22.6781 33.3281 22.6781 33.3281 22.6781C33.3281 22.6781 33.2906 22.7437 33.2625 22.7437C33.2344 22.7437 33.3 22.8375 33.2812 22.8844C33.2625 22.9406 33.1875 22.9406 33.1875 22.9406L33.0469 22.9781L33.0094 23.025H32.8594L32.8406 22.9031L33.0094 22.8562L33.1031 22.8094L33.15 22.7156C33.1594 22.6219 33.2719 22.6312 33.2719 22.6312C33.2719 22.6312 33.4875 22.4437 33.4969 22.3687C33.5062 22.275 33.5813 22.0406 33.7125 22.0406H33.9563C34.05 22.0031 34.0219 21.8812 34.0219 21.8812L34.1438 21.8625L34.1625 21.9281C34.1625 21.9281 34.3312 21.9469 34.35 21.9281C34.3687 21.8906 34.4062 21.8344 34.4437 21.8531C34.5 21.8812 34.65 21.7875 34.65 21.7875C34.65 21.7219 34.8938 21.75 34.8938 21.75L34.9219 21.6562C34.9219 21.6562 34.7625 21.4406 34.7344 21.4406C34.7063 21.4406 34.5469 21.3094 34.5375 21.3562C34.3875 21.3187 34.3969 21.1125 34.3969 21.1125L34.3406 20.9812C34.3406 20.9062 34.2 20.7469 34.1719 20.7656C34.1505 20.7533 34.1327 20.7355 34.1203 20.7141C34.1079 20.6927 34.1014 20.6685 34.1014 20.6437C34.1014 20.619 34.1079 20.5947 34.1203 20.5733C34.1327 20.552 34.1505 20.5342 34.1719 20.5219C34.2094 20.5219 34.3031 20.3812 34.3031 20.3812L34.35 20.25L34.5094 20.2031L34.5281 20.0812L34.4344 20.0719C34.4344 20.0719 34.5281 19.8937 34.5844 19.8937C34.6406 19.8937 34.9406 19.8937 34.9594 19.875C34.9969 19.8562 35.0531 19.7062 35.0531 19.6875C35.0531 19.65 35.1281 19.6406 35.1469 19.6312C35.1844 19.6312 35.2406 19.5469 35.2688 19.5094C35.2875 19.4719 35.2219 19.2281 35.175 19.275Z" fill="#F0F0F0"/>
<path d="M30 22.6875C30.0094 22.6875 30.0281 22.7344 30.0563 22.725C30.0844 22.725 30.1031 22.7813 30.0656 22.7813C30.0469 22.7813 30.0469 22.8094 30.0469 22.8281C30.0469 22.8375 30.0469 22.875 30.0188 22.9031C30 22.9219 29.9812 22.9031 29.9531 22.8938C29.925 22.875 29.9063 22.875 29.8688 22.875C29.8406 22.875 29.8688 22.9313 29.8688 22.9313C29.8688 22.9313 29.7187 22.9313 29.7469 22.9031C29.775 22.8844 29.8031 22.875 29.7844 22.8656C29.7656 22.8469 29.7844 22.8375 29.7844 22.8094C29.7844 22.7813 29.85 22.7906 29.8313 22.7719C29.8125 22.7531 29.8313 22.6688 29.8688 22.7156L29.8875 22.6688C29.8687 22.6406 29.8875 22.6406 29.8406 22.6219C29.7937 22.6031 29.8313 22.5281 29.8313 22.5281V22.4625C29.85 22.3969 29.9906 22.3875 30 22.4531V22.5563L30.0469 22.575C30.0469 22.575 30.0375 22.6125 30 22.6125C29.9625 22.6125 30 22.6313 29.9812 22.6594L30 22.6969V22.6875ZM29.5312 22.7625C29.5594 22.725 29.6062 22.5375 29.6625 22.5938C29.7187 22.65 29.7562 22.5938 29.7562 22.5938C29.7562 22.5938 29.7844 22.6219 29.7656 22.6875C29.7562 22.7344 29.7375 22.7906 29.7094 22.8C29.6719 22.8 29.6438 22.8281 29.5969 22.8375C29.5594 22.8375 29.5406 22.7625 29.5406 22.7625H29.5312Z" fill="#F0F0F0"/>
</g>
<defs>
<clipPath id="clip0_264_24155">
<rect width="60" height="45" fill="white"/>
</clipPath>
</defs>
</svg>
