<svg width="60" height="45" viewBox="0 0 60 45" fill="none" xmlns="http://www.w3.org/2000/svg">
<g clip-path="url(#clip0_264_24175)">
<path d="M0 0H60V45H0V0Z" fill="#F0F0F0"/>
<path d="M24.9375 4.99689H60V10.0031H24.9375V4.99689ZM24.9375 15H60V19.9969H24.9375V15ZM0 25.0031H60V30H0V25.0031ZM0 34.9969H60V40.0031H0V34.9969Z" fill="#0038A8"/>
<path d="M11.9309 14.9413L12.7585 16.1771C9.35786 18.638 11.434 20.0933 9.02409 20.8811C10.523 19.4183 8.78808 19.295 10.0509 16.2462" fill="#FCD116"/>
<path fill-rule="evenodd" clip-rule="evenodd" d="M11.9535 14.8269L12.8713 16.1973L12.8068 16.2439C11.9631 16.8545 11.463 17.3999 11.1484 17.8844C10.8341 18.3686 10.7022 18.7961 10.5994 19.178C10.588 19.2204 10.5769 19.2625 10.5658 19.3043C10.4788 19.6342 10.3981 19.9401 10.2139 20.2067C10.0029 20.512 9.66283 20.7591 9.04969 20.9595L8.71272 21.0696L8.96644 20.822C9.33564 20.4617 9.49671 20.1924 9.55933 19.948C9.62239 19.7019 9.58905 19.4707 9.54438 19.1705L9.54421 19.1694C9.49987 18.8714 9.4471 18.5168 9.48625 18.0441C9.52543 17.571 9.65628 16.9833 9.97468 16.2146L10.0063 16.1384L10.1587 16.2016L10.1271 16.2778C9.81409 17.0335 9.68823 17.6045 9.65069 18.0577C9.61316 18.5107 9.66345 18.8497 9.70758 19.1463L9.70878 19.1543C9.75215 19.4457 9.79118 19.7079 9.71916 19.989C9.66407 20.204 9.54591 20.4244 9.3283 20.6787C9.71014 20.513 9.93209 20.3243 10.0781 20.1129C10.2449 19.8716 10.318 19.5954 10.4065 19.2612C10.4174 19.2201 10.4285 19.178 10.4401 19.1351C10.5445 18.747 10.6818 18.3001 11.01 17.7946C11.3296 17.3023 11.8276 16.7584 12.6458 16.1571L11.8164 14.9187L11.9535 14.8269Z" fill="black"/>
<path fill-rule="evenodd" clip-rule="evenodd" d="M10.0318 18.8725C10.1663 17.9665 10.3432 16.7744 11.2687 15.2488L11.4098 15.3344C10.5015 16.8314 10.3286 17.9969 10.1949 18.8976C10.1918 18.9183 10.1888 18.9389 10.1857 18.9593C10.1183 19.4124 10.0558 19.8087 9.90108 20.1412C9.74383 20.4793 9.49331 20.7485 9.05958 20.9555L8.98852 20.8066C9.38953 20.6152 9.61126 20.3731 9.75147 20.0716C9.89425 19.7647 9.95436 19.3932 10.0225 18.935C10.0256 18.9144 10.0287 18.8935 10.0318 18.8725Z" fill="black"/>
<path d="M12.4969 12.4969H14.1469L12.4969 21.5718L10.8469 12.4969H12.4969V21.5718V12.4969Z" fill="#FCD116"/>
<path fill-rule="evenodd" clip-rule="evenodd" d="M10.748 12.4144H14.2457L12.4969 22.033L10.748 12.4144ZM10.9458 12.5794L12.4144 20.6569V12.5794H10.9458ZM12.5794 12.5794V20.6569L14.048 12.5794H12.5794Z" fill="black"/>
<path d="M12.4969 15.5219C14.1676 15.5219 15.5219 14.1675 15.5219 12.4969C15.5219 10.8262 14.1676 9.47186 12.4969 9.47186C10.8263 9.47186 9.47192 10.8262 9.47192 12.4969C9.47192 14.1675 10.8263 15.5219 12.4969 15.5219Z" fill="#FCD116"/>
<path fill-rule="evenodd" clip-rule="evenodd" d="M12.4969 9.55437C10.8718 9.55437 9.5544 10.8718 9.5544 12.4969C9.5544 14.122 10.8718 15.4394 12.4969 15.4394C14.122 15.4394 15.4394 14.122 15.4394 12.4969C15.4394 10.8718 14.122 9.55437 12.4969 9.55437ZM9.3894 12.4969C9.3894 10.7806 10.7807 9.38937 12.4969 9.38937C14.2131 9.38937 15.6044 10.7806 15.6044 12.4969C15.6044 14.2131 14.2131 15.6044 12.4969 15.6044C10.7807 15.6044 9.3894 14.2131 9.3894 12.4969Z" fill="black"/>
<path d="M14.7244 11.2869C14.5319 11.5069 14.4219 11.1219 13.7344 11.1219C13.0469 11.1219 12.9369 11.5344 12.8269 11.4519C12.7169 11.3694 13.4044 10.8744 13.6244 10.8469C13.8444 10.8194 14.4769 11.0394 14.7244 11.2869ZM13.9269 11.5344C14.1194 11.6994 13.9544 12.0569 13.7619 12.0569C13.5694 12.0569 13.2119 11.7269 13.3769 11.5069" fill="black"/>
<path d="M13.0194 11.7819C13.0469 11.4519 13.3219 11.3969 13.7619 11.3969C14.2019 11.3969 14.3944 11.7269 14.5594 11.8094C14.3669 11.8094 14.2019 11.5344 13.7619 11.5344C13.3219 11.5344 13.3219 11.5344 13.0194 11.8094M13.1019 11.8644C13.2119 11.6994 13.3494 12.0294 13.6519 12.0294C13.9544 12.0294 14.1194 11.9469 14.3119 11.8094C14.5044 11.6719 14.0369 12.1394 13.7344 12.1394C13.4319 12.1394 13.0194 11.9744 13.1019 11.8644Z" fill="black"/>
<path d="M14.0369 12.0294C14.3944 11.8369 14.1744 11.5619 14.0369 11.5069C14.0919 11.5619 14.3119 11.8369 14.0369 12.0294ZM12.4969 13.6794C12.6619 13.6794 12.7169 13.6244 12.9369 13.6244C13.1569 13.6244 13.6794 13.9269 13.9819 13.8169C13.3494 14.0644 13.5969 13.8994 12.4969 13.8994H12.3594M14.0919 14.0644C13.9819 13.8719 14.0094 13.9269 13.7894 13.6244C14.0094 13.7894 14.0644 13.8719 14.0919 14.0644ZM12.4969 14.3394C13.1844 14.3394 13.0744 14.2019 13.9819 13.8169C13.3219 13.8994 13.1844 14.1194 12.4969 14.1194H12.3594M12.4969 13.3219C12.6894 13.3219 12.7444 13.1844 12.9644 13.1844C13.1844 13.1844 13.4869 13.2669 13.6244 13.3769C13.6519 13.4044 13.5419 13.1569 13.3219 13.1294C13.1019 13.1019 13.1844 12.7444 12.9369 12.6894C12.9369 12.7994 13.0194 12.7719 13.0469 12.9369C13.0469 13.0744 12.7994 13.0744 12.7444 12.9369C12.7994 13.1569 12.6344 13.1569 12.4969 13.1569" fill="black"/>
<path d="M12.4969 14.5869C12.3594 14.5869 12.0019 14.6694 12.4969 14.6694C12.9919 14.6694 12.6344 14.5869 12.4969 14.5869Z" fill="black"/>
</g>
<defs>
<clipPath id="clip0_264_24175">
<rect width="60" height="45" fill="white"/>
</clipPath>
</defs>
</svg>
