<svg width="60" height="45" viewBox="0 0 60 45" fill="none" xmlns="http://www.w3.org/2000/svg">
<g clip-path="url(#clip0_264_24195)">
<path d="M0 30H60V45H0V30Z" fill="#1EB53A"/>
<path d="M0 0H60V15H0V0Z" fill="#0099B5"/>
<path d="M0 14.4H60V30.6H0V14.4Z" fill="#CE1126"/>
<path d="M0 15.3H60V29.7H0V15.3Z" fill="#F0F0F0"/>
<path d="M12.5999 12.6C15.5823 12.6 18 10.1823 18 7.19999C18 4.21765 15.5823 1.79999 12.5999 1.79999C9.61761 1.79999 7.19995 4.21765 7.19995 7.19999C7.19995 10.1823 9.61761 12.6 12.5999 12.6Z" fill="#F0F0F0"/>
<path d="M14.4 12.6C17.3823 12.6 19.8 10.1823 19.8 7.19999C19.8 4.21765 17.3823 1.79999 14.4 1.79999C11.4177 1.79999 9 4.21765 9 7.19999C9 10.1823 11.4177 12.6 14.4 12.6Z" fill="#0099B5"/>
<path d="M24.4781 10.4419L24.1361 11.4679L24.6581 11.6479" fill="#F0F0F0"/>
</g>
<defs>
<clipPath id="clip0_264_24195">
<rect width="60" height="45" fill="white"/>
</clipPath>
</defs>
</svg>
