<svg width="60" height="45" viewBox="0 0 60 45" fill="none" xmlns="http://www.w3.org/2000/svg">
<g clip-path="url(#clip0_264_25215)">
<path d="M0 0H60V45H0V0Z" fill="#009543"/>
<path d="M0 0H60V22.5H0V0Z" fill="#D21034"/>
<path d="M0 0L28 18.4738H59.9999V26.5264H28L0 45.0002" fill="black"/>
<path fill-rule="evenodd" clip-rule="evenodd" d="M-2.40715 3.64843L2.40714 -3.64841L29.312 14.1028H64.3709V30.8974H29.312L2.40714 48.6486L-2.40715 41.3518L26.1656 22.5001L-2.40715 3.64843Z" fill="#FDCE12"/>
<path fill-rule="evenodd" clip-rule="evenodd" d="M-1.31299 1.99007L1.31299 -1.99002L28.7156 16.0896H59.9999V20.8579H27.2843L-1.31299 1.99007ZM27.2843 24.1423H59.9999V28.9106H28.7156L1.31299 46.9902L-1.31299 43.0101L27.2843 24.1423Z" fill="black"/>
<path d="M8.06491 26.8106V29.3685C10.2912 29.3685 14.6681 27.6632 14.6681 22.159C14.6681 16.6548 9.99755 15.6316 8.60491 15.6316C7.2028 15.6316 2.89226 16.6358 2.89226 21.1264C2.89226 25.6359 7.12701 26.0527 7.9607 26.0527C8.79438 26.0527 11.9207 25.2948 11.5607 21.9222C11.4674 22.7453 11.0735 23.505 10.4546 24.0557C9.83577 24.6064 9.03542 24.9093 8.20701 24.9064C5.93332 24.9064 4.51226 23.2201 4.51226 21.5527C4.51226 19.8853 5.89543 17.6495 8.29228 17.6495C10.6891 17.6495 12.4418 19.7811 12.4418 21.9222C12.4418 24.0727 10.7554 26.8011 8.06491 26.8011V26.8106Z" fill="#FDCE12"/>
<path d="M6.10385 23.4664L6.23648 23.5611C6.23648 23.5611 7.29754 21.1453 10.1302 19.4306C9.77018 19.6201 7.87544 20.5674 6.10385 23.4664Z" fill="#FDCE12"/>
<path fill-rule="evenodd" clip-rule="evenodd" d="M10.0866 19.4107C10.0959 19.4058 10.1046 19.4012 10.1125 19.3971L10.1498 19.463C8.73844 20.3174 7.76843 21.3464 7.15131 22.1618C6.84277 22.5694 6.62251 22.9236 6.47949 23.1756C6.40799 23.3016 6.35579 23.402 6.32153 23.4709C6.30441 23.5053 6.29176 23.5318 6.28342 23.5496C6.27926 23.5585 6.27617 23.5653 6.27413 23.5698L6.27187 23.5748L6.27133 23.576L6.27121 23.5763L6.25242 23.6191L6.08183 23.4972L6.10385 23.4664L6.07152 23.4466C7.80923 20.6031 9.66631 19.6307 10.0866 19.4107ZM6.15461 23.4561L6.22128 23.5037C6.22944 23.4865 6.24022 23.4642 6.25369 23.4371C6.28852 23.3671 6.34135 23.2654 6.41358 23.1382C6.55803 22.8836 6.78008 22.5267 7.09088 22.116C7.13887 22.0526 7.18899 21.9879 7.24126 21.9221C6.88366 22.3587 6.51671 22.8666 6.15461 23.4561Z" fill="#FDCE12"/>
<path d="M6.37859 23.0496C6.37859 23.0496 6.05649 22.3864 6.3407 22.0832C6.62491 21.7896 6.50175 22.8696 6.50175 22.8696L6.62491 22.6896C6.62491 22.6896 6.43544 21.8748 6.64386 21.7043C6.86175 21.5243 6.75754 22.4906 6.75754 22.4906L6.89018 22.3201C6.89018 22.3201 6.74807 21.5243 6.95649 21.3727C7.17439 21.2211 7.04175 22.1306 7.04175 22.1306L7.19333 21.9411C7.19333 21.9411 7.07965 21.1832 7.33544 21.0032C7.59123 20.8232 7.36386 21.7232 7.36386 21.7232L7.53439 21.5338C7.53439 21.5338 7.4586 20.8422 7.67649 20.6811C7.89439 20.5295 7.71439 21.3443 7.71439 21.3443L7.86597 21.1738C7.86597 21.1738 7.8186 20.5295 8.02702 20.378C8.24492 20.2264 8.04597 20.9938 8.04597 20.9938L8.20702 20.8422C8.20702 20.8422 8.16913 20.1885 8.43439 20.0653C8.69966 19.9422 8.38702 20.6717 8.38702 20.6717L8.5765 20.5201C8.5765 20.5201 8.62387 19.7622 8.85123 19.6959C9.0786 19.6201 8.7565 20.359 8.7565 20.359L8.91755 20.2264C8.91755 20.2264 9.00281 19.5822 9.24913 19.5064C9.50492 19.4211 9.09755 20.0938 9.09755 20.0938L9.2586 19.9706C9.2586 19.9706 9.43861 19.3264 9.67545 19.2506C9.90282 19.1843 9.42913 19.8664 9.42913 19.8664L9.59018 19.7527C9.59018 19.7527 9.84598 19.1653 10.0639 19.1274C10.2628 19.0895 9.81755 19.6106 9.81755 19.6106L10.0165 19.4969C10.0165 19.4969 10.3481 18.8906 10.4712 19.0706C10.5849 19.2601 9.99756 19.5348 9.99756 19.5348L9.80808 19.6485C9.80808 19.6485 10.5186 19.3074 10.6039 19.478C10.6891 19.6485 9.62808 19.7622 9.62808 19.7622L9.45755 19.8759C9.45755 19.8759 10.1681 19.6864 10.0828 19.8664C9.98808 20.0464 9.28703 20.0085 9.28703 20.0085L9.12597 20.1222C9.12597 20.1222 9.8365 19.9517 9.74176 20.1222C9.64703 20.2738 8.95545 20.2643 8.95545 20.2643L8.78492 20.4064C8.78492 20.4064 9.4765 20.2169 9.37229 20.4348C9.27755 20.6432 8.48176 20.6338 8.48176 20.6338L8.29229 20.8232C8.29229 20.8232 9.02176 20.5674 8.95545 20.7664C8.8986 20.9559 8.06492 21.0506 8.06492 21.0506L7.87544 21.2401C7.87544 21.2401 8.66176 20.9843 8.42492 21.2211C8.19755 21.4674 7.61965 21.5243 7.61965 21.5243L7.40176 21.8085C7.40176 21.8085 8.1786 21.3348 8.06492 21.6001C7.96071 21.8653 7.19333 22.0453 7.19333 22.0453L7.04175 22.2348C7.04175 22.2348 7.74281 21.8274 7.66702 22.0453C7.6007 22.2822 6.85228 22.519 6.85228 22.519L6.72912 22.6896C6.72912 22.6896 7.55334 22.1969 7.48702 22.4527C7.41123 22.699 6.62491 22.879 6.62491 22.879L6.53017 23.0401C6.53017 23.0401 7.28807 22.5948 7.28807 22.8127C7.30702 23.0211 6.39754 23.2296 6.39754 23.2296L6.37859 23.0496Z" fill="#FDCE12"/>
</g>
<defs>
<clipPath id="clip0_264_25215">
<rect width="60" height="45" fill="white"/>
</clipPath>
</defs>
</svg>
