<svg width="60" height="45" viewBox="0 0 60 45" fill="none" xmlns="http://www.w3.org/2000/svg">
<g clip-path="url(#clip0_264_16954)">
<path fill-rule="evenodd" clip-rule="evenodd" d="M-0.000183105 0H60.0041V22.4983H-0.000183105V0Z" fill="black"/>
<path fill-rule="evenodd" clip-rule="evenodd" d="M-0.000183105 22.4983H60.0041V44.9966H-0.000183105V22.4983Z" fill="#007A3D"/>
<path fill-rule="evenodd" clip-rule="evenodd" d="M-0.000183105 13.1218H60.0041V31.8748H-0.000183105V13.1218Z" fill="#F0F0F0"/>
<path fill-rule="evenodd" clip-rule="evenodd" d="M-0.000183105 0L29.9976 22.4983L-0.000183105 44.9966V0Z" fill="#C4111B"/>
<path d="M44.9964 28.4996C48.3109 28.4996 50.9977 25.8128 50.9977 22.4983C50.9977 19.1839 48.3109 16.497 44.9964 16.497C41.682 16.497 38.9951 19.1839 38.9951 22.4983C38.9951 25.8128 41.682 28.4996 44.9964 28.4996Z" fill="#C4111B"/>
<path d="M47.2524 28.4996C50.5669 28.4996 53.2538 25.8128 53.2538 22.4983C53.2538 19.1839 50.5669 16.497 47.2524 16.497C43.938 16.497 41.2511 19.1839 41.2511 22.4983C41.2511 25.8128 43.938 28.4996 47.2524 28.4996Z" fill="#F0F0F0"/>
<path fill-rule="evenodd" clip-rule="evenodd" d="M43.3837 26.1291L45.9482 24.3049L48.4862 26.1555L47.5344 23.1593L50.0901 21.3175L46.944 21.2998L45.9746 18.3036L44.9876 21.291L41.8416 21.2734L44.3707 23.1417L43.3926 26.1379L43.3837 26.1291Z" fill="#C4111B"/>
</g>
<defs>
<clipPath id="clip0_264_16954">
<rect width="60" height="45" fill="white"/>
</clipPath>
</defs>
</svg>
