<svg width="28" height="20" viewBox="0 0 28 20" fill="none" xmlns="http://www.w3.org/2000/svg">
<path fill-rule="evenodd" clip-rule="evenodd" d="M12.0519 9.97431H11.1387V9.61168C11.1387 9.14002 11.4049 9.00505 11.6347 9.00505C11.8881 9.00505 12.0856 9.11888 12.0856 9.11888L12.3965 8.39986C12.3965 8.39986 12.0813 8.19141 11.5084 8.19141C10.8643 8.19141 10.1314 8.55884 10.1314 9.71206V9.97431H8.60257V9.61168C8.60257 9.14002 8.86885 9.00505 9.09811 9.00505C9.22864 9.00505 9.40426 9.03579 9.54951 9.11888L9.86041 8.39986C9.67482 8.28939 9.37673 8.19141 8.97233 8.19141C8.32821 8.19141 7.59534 8.55884 7.59534 9.71206V9.97431H7.01056V10.7611H7.59534V13.5406H8.60257V10.7611H10.1314V13.5406H11.1387V10.7611H12.0519V9.97431ZM4.69817 12.9007C4.43331 12.9007 4.30135 12.7691 4.30135 12.5515C4.30135 12.149 4.74658 12.0112 5.5592 11.9243C5.5592 12.4627 5.19941 12.9007 4.69817 12.9007ZM5.04846 9.8695C4.46796 9.8695 3.79964 10.1466 3.437 10.4391L3.76831 11.1447C4.05928 10.8753 4.52966 10.6452 4.95401 10.6452C5.35699 10.6452 5.57961 10.7816 5.57961 11.0559C5.57961 11.2413 5.43199 11.3344 5.15289 11.3709C4.11149 11.5083 3.29413 11.7989 3.29413 12.6116C3.29413 13.2557 3.74743 13.6457 4.45562 13.6457C4.96065 13.6457 5.41063 13.3613 5.6247 12.9862V13.5405H6.56642V11.2182C6.56642 10.259 5.9076 9.8695 5.04846 9.8695ZM14.5056 9.97431V13.5406H15.5138V11.8225C15.5138 11.0055 16.0022 10.7659 16.343 10.7659C16.4759 10.7659 16.6553 10.8048 16.774 10.8946L16.9577 9.95174C16.802 9.88449 16.6392 9.8696 16.5058 9.8696C15.9875 9.8696 15.6619 10.1021 15.4468 10.5737V9.97431H14.5056ZM20.4921 10.496C20.6995 10.1886 21.0977 9.86968 21.6308 9.86968C22.2749 9.86968 22.8079 10.2741 22.8079 11.0757V13.5407H21.8007V11.398C21.8007 10.9259 21.5197 10.7299 21.2534 10.7299C20.9202 10.7299 20.587 11.0383 20.587 11.7049V13.5407H19.5798V11.4052C19.5798 10.9187 19.3149 10.7299 19.0268 10.7299C18.7083 10.7299 18.3675 11.0455 18.3675 11.7049V13.5407H17.3589V9.97439H18.3305V10.5138C18.5009 10.1694 18.8697 9.86968 19.4027 9.86968C19.8912 9.86968 20.2994 10.0988 20.4921 10.496ZM13.6596 13.5407H12.6533V9.97445H13.6596V13.5407Z" fill="#060809"/>
<path fill-rule="evenodd" clip-rule="evenodd" d="M18.524 5C15.8032 5 13.3782 6.91115 12.6899 9.36841H13.6763C14.2511 7.53843 16.2024 5.93228 18.524 5.93228C21.3458 5.93228 23.7846 8.10615 23.7846 11.4904C23.7846 12.2503 23.6873 12.9352 23.5031 13.5404H24.46L24.4695 13.5072C24.6262 12.8828 24.7059 12.2046 24.7059 11.4904C24.7059 7.71614 21.988 5 18.524 5Z" fill="#0FA0EA"/>
</svg>
