<svg width="46" height="32" viewBox="0 0 46 32" fill="none" xmlns="http://www.w3.org/2000/svg">
<path fill-rule="evenodd" clip-rule="evenodd" d="M19.5126 15.9588H18.034V15.3786C18.034 14.624 18.4651 14.408 18.8371 14.408C19.2475 14.408 19.5672 14.5902 19.5672 14.5902L20.0705 13.4397C20.0705 13.4397 19.5602 13.1062 18.6327 13.1062C17.5898 13.1062 16.4033 13.6941 16.4033 15.5393V15.9588H13.928V15.3786C13.928 14.624 14.3591 14.408 14.7303 14.408C14.9416 14.408 15.2259 14.4572 15.4611 14.5902L15.9645 13.4397C15.664 13.263 15.1814 13.1062 14.5266 13.1062C13.4838 13.1062 12.2972 13.6941 12.2972 15.5393V15.9588H11.3504V17.2176H12.2972V21.6649H13.928V17.2176H16.4033V21.6649H18.034V17.2176H19.5126V15.9588ZM7.60655 20.6411C7.17773 20.6411 6.96409 20.4305 6.96409 20.0824C6.96409 19.4384 7.68493 19.2179 9.0006 19.0788C9.0006 19.9402 8.41808 20.6411 7.60655 20.6411ZM8.1737 15.7911C7.23383 15.7911 6.15179 16.2346 5.56466 16.7026L6.10107 17.8315C6.57216 17.4004 7.33373 17.0323 8.02077 17.0323C8.67322 17.0323 9.03364 17.2505 9.03364 17.6893C9.03364 17.986 8.79464 18.1351 8.34277 18.1935C6.65669 18.4132 5.33334 18.8782 5.33334 20.1785C5.33334 21.209 6.06726 21.833 7.21385 21.833C8.03153 21.833 8.76006 21.3781 9.10665 20.7779V21.6647H10.6313V17.9491C10.6313 16.4144 9.56467 15.7911 8.1737 15.7911ZM23.4852 15.9588V21.6649H25.1175V18.916C25.1175 17.6088 25.9083 17.2253 26.4601 17.2253C26.6753 17.2253 26.9658 17.2876 27.1579 17.4313L27.4553 15.9227C27.2032 15.8151 26.9396 15.7913 26.7237 15.7913C25.8845 15.7913 25.3573 16.1633 25.0092 16.9179V15.9588H23.4852ZM33.1776 16.7936C33.5135 16.3017 34.1582 15.7914 35.0213 15.7914C36.0641 15.7914 36.9271 16.4385 36.9271 17.7211V21.665H35.2964V18.2368C35.2964 17.4814 34.8414 17.1678 34.4103 17.1678C33.8708 17.1678 33.3313 17.6612 33.3313 18.7279V21.665H31.7006V18.2483C31.7006 17.4698 31.2718 17.1678 30.8053 17.1678C30.2896 17.1678 29.7379 17.6727 29.7379 18.7279V21.665H28.1048V15.959H29.6779V16.822C29.9538 16.271 30.5509 15.7914 31.414 15.7914C32.2047 15.7914 32.8656 16.158 33.1776 16.7936ZM22.1155 21.6651H20.4863V15.9591H22.1155V21.6651Z" fill="#060809"/>
<path fill-rule="evenodd" clip-rule="evenodd" d="M29.9911 8C25.5861 8 21.6599 11.0578 20.5456 14.9894H22.1425C23.0732 12.0615 26.2324 9.49165 29.9911 9.49165C34.5598 9.49165 38.5084 12.9698 38.5084 18.3847C38.5084 19.6004 38.3508 20.6963 38.0526 21.6646H39.6019L39.6173 21.6116C39.8709 20.6125 40 19.5274 40 18.3847C40 12.3458 35.5996 8 29.9911 8Z" fill="#0FA0EA"/>
</svg>
