<svg width="28" height="20" viewBox="0 0 28 20" fill="none" xmlns="http://www.w3.org/2000/svg">
<path d="M8.31847 10.7363C8.18067 10.7677 8.03898 10.8261 7.89924 10.9097C7.55958 11.1122 7.40043 11.5716 7.53435 11.9705L7.70127 12.4758H9.04436L8.31847 10.7363ZM13.8713 8.55413C13.7937 8.66064 13.6811 8.74208 13.5569 8.76712C13.4172 8.79845 13.2677 8.75459 13.1299 8.72746C12.9863 8.69821 12.8388 8.68359 12.6932 8.68359C12.3167 8.68568 11.9227 8.8089 11.6257 9.06158C11.1852 9.43745 11.0105 10.0013 11.0105 10.6445C11.0105 11.9183 11.8645 12.1772 12.2779 12.1772C13.0969 12.1772 13.3686 11.5696 13.3686 11.5696V11.9496C13.6869 11.8974 14.0072 11.841 14.3313 11.7867L14.4633 11.7637V9.34975L14.4652 9.29755V8.45389C14.4633 8.46851 13.9276 8.54577 13.8713 8.55413ZM13.3512 10.7677C13.3512 10.7677 13.0076 11.1373 12.5942 11.1143C12.0624 11.0851 11.8742 10.3939 12.1304 9.95534C12.2429 9.76322 12.4642 9.60451 12.6835 9.57945C12.9882 9.54605 13.2968 9.65045 13.3512 9.68387C13.3531 9.75069 13.3512 10.7677 13.3512 10.7677ZM7.12481 7.87127L5.89429 7.67916L4 12.6053C4.21156 12.597 4.42699 12.5886 4.63273 12.5447C4.78218 12.5134 4.92774 12.4675 5.06943 12.4069C6.05151 12.0039 6.76188 11.0872 7.74785 10.6925C7.907 10.6298 8.07003 10.5818 8.23307 10.5484L7.12481 7.87127ZM6.66677 10.0806C6.40281 10.1934 5.93118 10.4962 5.71963 10.7572L6.4591 8.86945L7.04913 10.2184L6.66677 10.0806ZM20.3675 6.58075C20.3539 6.22783 20.1132 5.99186 19.7541 6.00021C19.3698 6.00857 19.1195 6.2696 19.1195 6.63922C19.1195 7.00466 19.3698 7.2448 19.7522 7.23436C20.1229 7.22601 20.3675 6.97542 20.3675 6.61207C20.3694 6.59954 20.3675 6.5891 20.3675 6.58075ZM20.1656 7.75851C19.8551 7.75851 19.529 7.76687 19.1971 7.78358V11.0955C19.529 11.0788 19.8531 11.0705 20.1637 11.0705C20.2083 11.0705 20.2529 11.0705 20.2976 11.0705V7.75851C20.2529 7.75851 20.2103 7.75851 20.1656 7.75851ZM18.4441 6.29048C18.0947 6.3218 17.7337 6.36148 17.3474 6.4116V8.11977C16.9573 7.94853 16.3033 7.93184 15.8452 8.21165C15.2765 8.55831 14.9912 9.21402 14.9912 9.93655C14.9912 10.4043 15.1135 10.9118 15.4434 11.1999C15.8666 11.5696 16.3518 11.5445 16.7652 11.4192C17.1126 11.3148 17.5144 10.8888 17.8366 11.2187C18.0423 11.1957 18.248 11.1749 18.446 11.1561V10.3458C18.4441 10.3458 18.4441 6.29048 18.4441 6.29048ZM17.3377 10.1433C17.3377 10.1433 17 10.4544 16.6565 10.4544C16.313 10.4544 16.0374 10.2018 16.0063 9.81124C15.9655 9.28293 16.3071 8.96134 16.6876 8.91956C17.1145 8.87154 17.3377 9.13049 17.3377 9.13049V10.1433ZM23.3215 8.04251C23.1061 7.96942 22.8771 7.95062 22.6538 7.97568C22.4792 7.99448 22.3065 8.05922 22.1318 8.05922C21.9939 8.05922 21.8813 8.01746 21.7882 7.92975C21.7629 7.90678 21.7415 7.8838 21.7222 7.85875C21.499 7.83369 21.2718 7.8128 21.0409 7.79609V11.108C21.4155 11.1331 21.7843 11.1707 22.1414 11.2229C22.1414 11.2229 22.1414 9.10333 22.1414 8.9864C22.3162 8.94463 22.6247 8.9321 22.782 8.97805C22.9547 9.02816 23.2768 9.18269 23.2768 9.70893V11.438C23.6475 11.5257 24.0182 11.6301 24.3773 11.7491V9.61287C24.3792 8.89869 23.9542 8.26805 23.3215 8.04251ZM9.34324 7.60816V12.4758C9.69649 12.4571 10.0556 12.4299 10.436 12.3923V7.52672C10.0536 7.56431 9.69649 7.59145 9.34324 7.60816Z" fill="#1B21CC"/>
<path d="M18.1588 14.3114C18.1588 14.4764 17.8327 14.443 17.3048 14.5014C16.7769 14.5453 16.0471 14.6852 15.2436 14.8585C14.4381 15.0318 13.7083 15.0486 13.1823 14.894C12.6544 14.7541 12.3284 14.4472 12.3284 14.3093C12.3284 14.1443 12.6544 14.1778 13.1823 14.1193C13.7103 14.0754 14.4401 13.9355 15.2436 13.7622C16.0491 13.5889 16.7788 13.5722 17.3048 13.7267C17.8308 13.8666 18.1588 14.1757 18.1588 14.3114Z" fill="#D9D9D9"/>
</svg>
