<svg width="46" height="32" viewBox="0 0 46 32" fill="none" xmlns="http://www.w3.org/2000/svg">
<path d="M12.6773 16.4202C12.4323 16.4759 12.1804 16.5798 11.932 16.7283C11.3281 17.0884 11.0452 17.9051 11.2833 18.6142L11.58 19.5126H13.9677L12.6773 16.4202ZM22.549 12.5407C22.411 12.73 22.2109 12.8748 21.9901 12.9193C21.7416 12.975 21.4759 12.8971 21.231 12.8488C20.9756 12.7968 20.7134 12.7708 20.4546 12.7708C19.7852 12.7745 19.0848 12.9936 18.5568 13.4428C17.7736 14.111 17.4631 15.1134 17.4631 16.2568C17.4631 18.5214 18.9813 18.9817 19.7162 18.9817C21.1723 18.9817 21.6553 17.9014 21.6553 17.9014V18.5771C22.2212 18.4843 22.7906 18.384 23.3668 18.2875L23.6014 18.2467V13.9551L23.6049 13.8623V12.3625C23.6014 12.3885 22.6491 12.5258 22.549 12.5407ZM21.6243 16.4759C21.6243 16.4759 21.0136 17.1329 20.2786 17.0921C19.3332 17.0401 18.9985 15.8113 19.454 15.0317C19.6541 14.6902 20.0474 14.408 20.4374 14.3635C20.9791 14.3041 21.5277 14.4897 21.6243 14.5491C21.6278 14.6679 21.6243 16.4759 21.6243 16.4759ZM10.5552 11.3267L8.36763 10.9852L5 19.7428C5.3761 19.7279 5.7591 19.7131 6.12485 19.6351C6.39053 19.5794 6.64932 19.4977 6.9012 19.3901C8.64712 18.6736 9.91 17.0439 11.6628 16.3422C11.9458 16.2308 12.2356 16.1454 12.5255 16.086L10.5552 11.3267ZM9.74092 15.2545C9.27166 15.4549 8.4332 15.9932 8.05711 16.4573L9.37174 13.1012L10.4207 15.4995L9.74092 15.2545ZM34.0977 9.03244C34.0736 8.40504 33.6457 7.98553 33.0074 8.00038C32.3242 8.01523 31.8791 8.47928 31.8791 9.13638C31.8791 9.78606 32.3242 10.213 33.0039 10.1944C33.6629 10.1796 34.0977 9.73408 34.0977 9.08812C34.1012 9.06585 34.0977 9.04728 34.0977 9.03244ZM33.7389 11.1262C33.1868 11.1262 32.6071 11.1411 32.0171 11.1708V17.0587C32.6071 17.029 33.1833 17.0141 33.7354 17.0141C33.8148 17.0141 33.8941 17.0141 33.9735 17.0141V11.1262C33.8941 11.1262 33.8182 11.1262 33.7389 11.1262ZM30.6783 8.51641C30.0572 8.5721 29.4154 8.64263 28.7288 8.73173V11.7685C28.0353 11.4641 26.8725 11.4344 26.0582 11.9318C25.0472 12.5481 24.5399 13.7138 24.5399 14.9983C24.5399 15.8299 24.7573 16.732 25.3439 17.2443C26.0961 17.9014 26.9587 17.8569 27.6937 17.6341C28.3113 17.4485 29.0255 16.6912 29.5983 17.2777C29.9641 17.2369 30.3298 17.1997 30.6818 17.1664V15.7259C30.6783 15.7259 30.6783 8.51641 30.6783 8.51641ZM28.7116 15.3658C28.7116 15.3658 28.1112 15.919 27.5004 15.919C26.8897 15.919 26.3997 15.4698 26.3445 14.7755C26.2721 13.8363 26.8793 13.2646 27.5557 13.1903C28.3148 13.105 28.7116 13.5653 28.7116 13.5653V15.3658ZM39.3493 11.6311C38.9665 11.5012 38.5592 11.4678 38.1622 11.5123C37.8519 11.5457 37.5449 11.6608 37.2342 11.6608C36.9891 11.6608 36.7889 11.5866 36.6235 11.4307C36.5785 11.3898 36.5405 11.349 36.5061 11.3044C36.1094 11.2599 35.7055 11.2228 35.2949 11.1931V17.081C35.9609 17.1255 36.6166 17.1924 37.2514 17.2852C37.2514 17.2852 37.2514 13.517 37.2514 13.3092C37.5621 13.2349 38.1106 13.2126 38.3902 13.2943C38.6972 13.3834 39.2699 13.6581 39.2699 14.5937V17.6675C39.9289 17.8234 40.5879 18.0091 41.2264 18.2207V14.4229C41.2297 13.1532 40.4741 12.0321 39.3493 11.6311ZM14.4991 10.8589V19.5126C15.1271 19.4792 15.7654 19.4309 16.4417 19.3641V10.7142C15.762 10.781 15.1271 10.8292 14.4991 10.8589Z" fill="#1B21CC"/>
<path d="M30.1712 22.7758C30.1712 23.0691 29.5915 23.0097 28.653 23.1137C27.7144 23.1916 26.417 23.4404 24.9885 23.7485C23.5566 24.0566 22.2592 24.0863 21.3242 23.8116C20.3857 23.5629 19.806 23.0172 19.806 22.7721C19.806 22.4789 20.3857 22.5383 21.3242 22.4343C22.2627 22.3563 23.5601 22.1076 24.9885 21.7995C26.4205 21.4913 27.7179 21.4616 28.653 21.7364C29.588 21.9851 30.1712 22.5345 30.1712 22.7758Z" fill="#D9D9D9"/>
</svg>
