<svg width="34" height="24" viewBox="0 0 34 24" fill="none" xmlns="http://www.w3.org/2000/svg">
<path d="M8.75796 12.3151C8.57422 12.3569 8.3853 12.4348 8.19898 12.5462C7.74611 12.8163 7.53391 13.4289 7.71246 13.9607L7.93503 14.6344H9.72581L8.75796 12.3151ZM16.1618 9.40551C16.0583 9.54751 15.9082 9.6561 15.7425 9.6895C15.5562 9.73127 15.357 9.67279 15.1732 9.63661C14.9817 9.59762 14.785 9.57812 14.5909 9.57812C14.0889 9.58091 13.5636 9.7452 13.1676 10.0821C12.5802 10.5833 12.3473 11.335 12.3473 12.1926C12.3473 13.891 13.486 14.2363 14.0372 14.2363C15.1292 14.2363 15.4915 13.4261 15.4915 13.4261V13.9328C15.9159 13.8632 16.3429 13.788 16.7751 13.7156L16.9511 13.685V10.4663L16.9537 10.3967V9.27185C16.9511 9.29135 16.2368 9.39437 16.1618 9.40551ZM15.4682 12.3569C15.4682 12.3569 15.0102 12.8497 14.459 12.8191C13.7499 12.7801 13.4989 11.8585 13.8405 11.2738C13.9906 11.0176 14.2856 10.806 14.578 10.7726C14.9843 10.7281 15.3958 10.8673 15.4682 10.9118C15.4708 11.0009 15.4682 12.3569 15.4682 12.3569ZM7.16642 8.49502L5.52573 8.23888L3 14.8071C3.28207 14.7959 3.56932 14.7848 3.84364 14.7263C4.0429 14.6846 4.23699 14.6233 4.4259 14.5426C5.73534 14.0052 6.6825 12.7829 7.99713 12.2566C8.20933 12.1731 8.42671 12.1091 8.64409 12.0645L7.16642 8.49502ZM6.55569 11.4408C6.20375 11.5912 5.5749 11.9949 5.29284 12.343L6.2788 9.82594L7.06551 11.6246L6.55569 11.4408ZM24.8233 6.77433C24.8052 6.30378 24.4843 5.98915 24.0055 6.00029C23.4931 6.01142 23.1593 6.35946 23.1593 6.85229C23.1593 7.33954 23.4931 7.65974 24.0029 7.64582C24.4972 7.63468 24.8233 7.30056 24.8233 6.81609C24.8259 6.79938 24.8233 6.78546 24.8233 6.77433ZM24.5542 8.34468C24.1401 8.34468 23.7053 8.35582 23.2628 8.3781V12.794C23.7053 12.7718 24.1375 12.7606 24.5516 12.7606C24.6111 12.7606 24.6706 12.7606 24.7301 12.7606V8.34468C24.6706 8.34468 24.6137 8.34468 24.5542 8.34468ZM22.2587 6.38731C21.7929 6.42907 21.3116 6.48197 20.7966 6.5488V8.82636C20.2765 8.59804 19.4043 8.57579 18.7936 8.94887C18.0354 9.41108 17.655 10.2854 17.655 11.2487C17.655 11.8724 17.818 12.549 18.2579 12.9332C18.8221 13.4261 19.469 13.3927 20.0202 13.2256C20.4835 13.0864 21.0192 12.5184 21.4487 12.9583C21.7231 12.9277 21.9974 12.8998 22.2613 12.8748V11.7945C22.2587 11.7945 22.2587 6.38731 22.2587 6.38731ZM20.7837 11.5244C20.7837 11.5244 20.3334 11.9392 19.8753 11.9392C19.4173 11.9392 19.0498 11.6023 19.0084 11.0817C18.9541 10.3772 19.4095 9.94845 19.9167 9.89275C20.4861 9.82872 20.7837 10.174 20.7837 10.174V11.5244ZM28.7619 8.72334C28.4748 8.62589 28.1694 8.60083 27.8717 8.63425C27.6389 8.65931 27.4087 8.74562 27.1757 8.74562C26.9918 8.74562 26.8417 8.68994 26.7176 8.573C26.6839 8.54237 26.6554 8.51173 26.6296 8.47834C26.3321 8.44492 26.0291 8.41707 25.7212 8.39479V12.8107C26.2207 12.8441 26.7124 12.8943 27.1886 12.9639C27.1886 12.9639 27.1886 10.1378 27.1886 9.98187C27.4216 9.92617 27.833 9.90946 28.0426 9.97073C28.2729 10.0375 28.7024 10.2436 28.7024 10.9452V13.2506C29.1967 13.3676 29.6909 13.5068 30.1698 13.6655V10.8172C30.1723 9.86492 29.6056 9.02407 28.7619 8.72334ZM10.1243 8.14421V14.6344C10.5953 14.6094 11.0741 14.5732 11.5813 14.5231V8.03562C11.0715 8.08574 10.5953 8.12194 10.1243 8.14421Z" fill="#1B21CC"/>
<path d="M21.8783 17.0819C21.8783 17.3019 21.4436 17.2573 20.7397 17.3353C20.0358 17.3938 19.0628 17.5803 17.9914 17.8114C16.9174 18.0425 15.9444 18.0648 15.2431 17.8587C14.5392 17.6722 14.1045 17.2629 14.1045 17.0791C14.1045 16.8592 14.5392 16.9037 15.2431 16.8258C15.947 16.7673 16.92 16.5807 17.9914 16.3496C19.0654 16.1185 20.0384 16.0963 20.7397 16.3023C21.441 16.4889 21.8783 16.9009 21.8783 17.0819Z" fill="#D9D9D9"/>
</svg>
