<svg width="58" height="40" viewBox="0 0 58 40" fill="none" xmlns="http://www.w3.org/2000/svg">
<path d="M15.5966 20.5252C15.2904 20.5948 14.9755 20.7247 14.665 20.9104C13.9102 21.3605 13.5565 22.3814 13.8541 23.2678L14.225 24.3907H17.2097L15.5966 20.5252ZM27.9363 15.6758C27.7638 15.9125 27.5136 16.0935 27.2376 16.1492C26.927 16.2188 26.5949 16.1213 26.2887 16.061C25.9695 15.996 25.6417 15.9635 25.3182 15.9635C24.4815 15.9682 23.6059 16.242 22.9461 16.8035C21.967 17.6388 21.5788 18.8917 21.5788 20.321C21.5788 23.1517 23.4766 23.7272 24.3953 23.7272C26.2154 23.7272 26.8192 22.3768 26.8192 22.3768V23.2213C27.5265 23.1053 28.2382 22.98 28.9585 22.8594L29.2518 22.8083V17.4439L29.2561 17.3279V15.4531C29.2518 15.4856 28.0614 15.6573 27.9363 15.6758ZM26.7804 20.5948C26.7804 20.5948 26.017 21.4162 25.0983 21.3651C23.9165 21.3002 23.4981 19.7641 24.0675 18.7897C24.3176 18.3627 24.8093 18.01 25.2967 17.9543C25.9738 17.8801 26.6596 18.1121 26.7804 18.1864C26.7847 18.3349 26.7804 20.5948 26.7804 20.5948ZM12.944 14.1584L10.2095 13.7315L6 24.6785C6.47012 24.6599 6.94887 24.6413 7.40606 24.5439C7.73817 24.4743 8.06165 24.3722 8.3765 24.2376C10.5589 23.342 12.1375 21.3048 14.3286 20.4277C14.6822 20.2885 15.0445 20.1818 15.4068 20.1075L12.944 14.1584ZM11.9261 19.0681C11.3396 19.3187 10.2915 19.9915 9.82139 20.5716L11.4647 16.3766L12.7758 19.3743L11.9261 19.0681ZM42.3722 11.2905C42.342 10.5063 41.8071 9.98192 41.0092 10.0005C40.1552 10.019 39.5988 10.5991 39.5988 11.4205C39.5988 12.2326 40.1552 12.7662 41.0049 12.743C41.8287 12.7245 42.3722 12.1676 42.3722 11.3602C42.3765 11.3323 42.3722 11.3091 42.3722 11.2905ZM41.9236 13.9078C41.2335 13.9078 40.5089 13.9264 39.7714 13.9635V21.3233C40.5089 21.2863 41.2292 21.2677 41.9193 21.2677C42.0185 21.2677 42.1177 21.2677 42.2169 21.2677V13.9078C42.1177 13.9078 42.0228 13.9078 41.9236 13.9078ZM38.0979 10.6455C37.3216 10.7151 36.5193 10.8033 35.661 10.9147V14.7106C34.7941 14.3301 33.3406 14.293 32.3227 14.9148C31.059 15.6851 30.4249 17.1423 30.4249 18.7479C30.4249 19.7873 30.6967 20.915 31.4299 21.5554C32.3701 22.3768 33.4484 22.3211 34.3671 22.0426C35.1391 21.8106 36.0319 20.864 36.7479 21.5972C37.2051 21.5461 37.6623 21.4997 38.1022 21.458V19.6574C38.0979 19.6574 38.0979 10.6455 38.0979 10.6455ZM35.6394 19.2073C35.6394 19.2073 34.889 19.8987 34.1256 19.8987C33.3621 19.8987 32.7497 19.3372 32.6807 18.4694C32.5901 17.2954 33.3492 16.5807 34.1946 16.4879C35.1434 16.3812 35.6394 16.9566 35.6394 16.9566V19.2073ZM48.9366 14.5389C48.4581 14.3765 47.949 14.3347 47.4528 14.3904C47.0649 14.4322 46.6811 14.576 46.2928 14.576C45.9864 14.576 45.7362 14.4832 45.5294 14.2883C45.4732 14.2373 45.4256 14.1862 45.3826 14.1306C44.8868 14.0749 44.3819 14.0284 43.8686 13.9913V21.3512C44.7011 21.4069 45.5207 21.4904 46.3143 21.6064C46.3143 21.6064 46.3143 16.8963 46.3143 16.6364C46.7026 16.5436 47.3883 16.5158 47.7377 16.6179C48.1215 16.7292 48.8373 17.0726 48.8373 18.2421V22.0844C49.6611 22.2793 50.4849 22.5113 51.283 22.7758V18.0286C51.2871 16.4415 50.3426 15.0401 48.9366 14.5389ZM17.8739 13.5737V24.3907C18.6589 24.349 19.4568 24.2887 20.3021 24.2051V13.3927C19.4525 13.4762 18.6589 13.5366 17.8739 13.5737Z" fill="#1B21CC"/>
<path d="M37.4639 28.4698C37.4639 28.8364 36.7393 28.7622 35.5662 28.8921C34.393 28.9895 32.7713 29.3005 30.9857 29.6856C29.1957 30.0708 27.574 30.1079 26.4052 29.7645C25.232 29.4536 24.5074 28.7714 24.5074 28.4651C24.5074 28.0985 25.232 28.1728 26.4052 28.0429C27.5783 27.9454 29.2001 27.6345 30.9857 27.2493C32.7756 26.8642 34.3973 26.827 35.5662 27.1705C36.735 27.4814 37.4639 28.1682 37.4639 28.4698Z" fill="#D9D9D9"/>
</svg>
