<svg width="46" height="32" viewBox="0 0 46 32" fill="none" xmlns="http://www.w3.org/2000/svg">
<path d="M11.8395 11.7311H5.49541C4.66923 11.7311 4 12.4065 4 13.2388V19.6367C4 20.469 4.66923 21.1444 5.49541 21.1444H11.8395C12.6656 21.1444 13.334 20.469 13.334 19.6367V13.2388C13.3349 12.4056 12.6656 11.7311 11.8395 11.7311Z" fill="#1677FF"/>
<path d="M11.6851 17.6422C11.3122 17.5161 10.8105 17.323 10.2523 17.1194C10.5874 16.5313 10.8554 15.862 11.0318 15.1346H9.1916V14.4662H11.4453V14.0933H9.1916V12.9788H8.27196C8.1106 12.9788 8.1106 13.1392 8.1106 13.1392V14.0924H5.83133V14.4654H8.1106V15.1337H6.22811V15.5067H9.87847C9.74533 15.9705 9.56546 16.4069 9.35296 16.8028C8.1688 16.4087 6.9044 16.0895 6.11084 16.2861C5.60296 16.4122 5.27584 16.6371 5.08362 16.8734C4.20189 17.9552 4.83409 19.5988 6.69631 19.5988C7.79759 19.5988 8.85831 18.9798 9.68008 17.9597C10.9066 18.5539 13.334 19.575 13.334 19.575V18.1201C13.3349 18.1201 13.0298 18.0954 11.6851 17.6422ZM6.52261 18.9701C5.0704 18.9701 4.641 17.8168 5.35872 17.1855C5.59855 16.9721 6.03589 16.8681 6.26867 16.8451C7.131 16.7596 7.92985 17.0911 8.87242 17.5549C8.21024 18.4261 7.36642 18.9701 6.52261 18.9701Z" fill="white"/>
<path d="M24.2683 13.1093C24.2683 13.596 24.6245 13.924 25.1209 13.924C25.6174 13.924 25.9736 13.596 25.9736 13.1093C25.9736 12.6314 25.6174 12.2946 25.1209 12.2946C24.6245 12.2946 24.2683 12.6314 24.2683 13.1093Z" fill="#1677FF"/>
<path d="M23.3689 12.5H21.8894V19.3369H23.3689V12.5Z" fill="#0C0E19"/>
<path d="M19.2954 12.7345H17.3097L15.0904 19.3378H16.458L16.8327 18.0452H19.1834L19.5396 19.3378H21.2907L19.2954 12.7345ZM17.1413 16.9677L18.0213 13.9239H18.0583L18.8915 16.9677H17.1413Z" fill="#0C0E19"/>
<path d="M25.8607 14.3173H24.3812V19.3378H25.8607V14.3173Z" fill="#0C0E19"/>
<path d="M41.3245 14.327L41.3333 14.3173H39.9384L39.0576 17.3707H39.0108L37.9995 14.3173H36.3419L38.3363 19.3563L37.5031 20.8923V20.9294H38.8045L41.3245 14.327Z" fill="#0C0E19"/>
<path d="M29.5419 14.2141C28.9988 14.2141 28.5773 14.4204 28.0994 14.8137V14.3173H26.6199V20.9294H28.0994V19.2902C28.3807 19.3652 28.6426 19.4031 28.9609 19.4031C30.2817 19.4031 31.4711 18.4288 31.4711 16.6962C31.4711 15.1417 30.6097 14.2141 29.5419 14.2141ZM28.6046 18.4755C28.4362 18.4755 28.2766 18.457 28.0985 18.4006V15.6848C28.408 15.4697 28.6602 15.3665 28.9785 15.3665C29.5313 15.3665 29.9713 15.8065 29.9713 16.7438C29.9722 17.9421 29.3259 18.4755 28.6046 18.4755Z" fill="#0C0E19"/>
<path d="M36.0509 18.0823V15.9846C36.0509 14.8419 35.3764 14.2141 34.1869 14.2141C33.4278 14.2141 32.904 14.3455 31.9482 14.6356L32.2101 15.788C33.0812 15.3947 33.4648 15.2263 33.8677 15.2263C34.3545 15.2263 34.5705 15.5729 34.5705 16.1072V16.1442C32.8749 16.4625 32.3503 16.6406 32.0232 16.9686C31.7798 17.212 31.6766 17.5585 31.6766 17.9615C31.6766 18.9261 32.4261 19.441 33.128 19.441C33.6526 19.441 34.0741 19.2444 34.6454 18.8132L34.7486 19.3378H36.2281L36.0509 18.0823ZM34.5714 18.1202C34.1781 18.3353 33.9533 18.42 33.6914 18.42C33.3352 18.42 33.1103 18.1854 33.1103 17.8116C33.1103 17.6714 33.1385 17.5303 33.2505 17.4183C33.4286 17.2402 33.7752 17.1088 34.5714 16.9219V18.1202Z" fill="#0C0E19"/>
</svg>
