<svg width="34" height="24" viewBox="0 0 34 24" fill="none" xmlns="http://www.w3.org/2000/svg">
<path d="M8.8796 8.79834H4.12156C3.50193 8.79834 3 9.30489 3 9.92916V14.7275C3 15.3518 3.50193 15.8584 4.12156 15.8584H8.8796C9.49923 15.8584 10.0005 15.3518 10.0005 14.7275V9.92916C10.0012 9.30423 9.49923 8.79834 8.8796 8.79834Z" fill="#1677FF"/>
<path d="M8.76385 13.2317C8.48412 13.1372 8.10785 12.9923 7.68924 12.8396C7.94054 12.3985 8.14157 11.8966 8.27383 11.351H6.8937V10.8497H8.58398V10.57H6.8937V9.73413H6.20397C6.08295 9.73413 6.08295 9.85449 6.08295 9.85449V10.5693H4.3735V10.8491H6.08295V11.3503H4.67108V11.6301H7.40885C7.309 11.9779 7.17409 12.3053 7.01472 12.6022C6.1266 12.3066 5.1783 12.0672 4.58313 12.2147C4.20222 12.3092 3.95688 12.4779 3.81272 12.6551C3.15142 13.4665 3.62557 14.6992 5.02223 14.6992C5.84819 14.6992 6.64373 14.2349 7.26006 13.4698C8.17993 13.9155 10.0005 14.6813 10.0005 14.6813V13.5902C10.0011 13.5902 9.77233 13.5716 8.76385 13.2317ZM4.89196 14.2276C3.8028 14.2276 3.48075 13.3627 4.01904 12.8892C4.19892 12.7291 4.52692 12.6511 4.7015 12.6339C5.34825 12.5698 5.94739 12.8184 6.65431 13.1663C6.15768 13.8196 5.52482 14.2276 4.89196 14.2276Z" fill="white"/>
<path d="M18.2012 9.83199C18.2012 10.197 18.4684 10.443 18.8407 10.443C19.213 10.443 19.4802 10.197 19.4802 9.83199C19.4802 9.47356 19.213 9.22095 18.8407 9.22095C18.4684 9.22095 18.2012 9.47356 18.2012 9.83199Z" fill="#1677FF"/>
<path d="M17.5267 9.375H16.4171V14.5027H17.5267V9.375Z" fill="#0C0E19"/>
<path d="M14.4715 9.5509H12.9823L11.3178 14.5034H12.3435L12.6245 13.5339H14.3876L14.6547 14.5034H15.9681L14.4715 9.5509ZM12.856 12.7258L13.516 10.443H13.5437L14.1687 12.7258H12.856Z" fill="#0C0E19"/>
<path d="M19.3955 10.7379H18.2859V14.5033H19.3955V10.7379Z" fill="#0C0E19"/>
<path d="M30.9934 10.7452L31 10.7379H29.9538L29.2932 13.028H29.2582L28.4996 10.7379H27.2564L28.7523 14.5172L28.1273 15.6692V15.697H29.1034L30.9934 10.7452Z" fill="#0C0E19"/>
<path d="M22.1564 10.6605C21.7491 10.6605 21.433 10.8153 21.0746 11.1102V10.7379H19.9649V15.697H21.0746V14.4676C21.2855 14.5238 21.4819 14.5523 21.7206 14.5523C22.7113 14.5523 23.6034 13.8215 23.6034 12.5221C23.6034 11.3562 22.9573 10.6605 22.1564 10.6605ZM21.4535 13.8566C21.3272 13.8566 21.2075 13.8427 21.0739 13.8004V11.7636C21.306 11.6022 21.4951 11.5248 21.7339 11.5248C22.1485 11.5248 22.4785 11.8548 22.4785 12.5578C22.4792 13.4565 21.9944 13.8566 21.4535 13.8566Z" fill="#0C0E19"/>
<path d="M27.0381 13.5616V11.9884C27.0381 11.1314 26.5323 10.6605 25.6402 10.6605C25.0708 10.6605 24.678 10.7591 23.9611 10.9766L24.1575 11.8409C24.8109 11.546 25.0986 11.4197 25.4008 11.4197C25.7658 11.4197 25.9278 11.6796 25.9278 12.0803V12.1081C24.6562 12.3468 24.2627 12.4804 24.0173 12.7264C23.8348 12.9089 23.7574 13.1688 23.7574 13.471C23.7574 14.1945 24.3196 14.5807 24.8459 14.5807C25.2394 14.5807 25.5555 14.4332 25.984 14.1098L26.0614 14.5033H27.1711L27.0381 13.5616ZM25.9285 13.5901C25.6335 13.7514 25.4649 13.8149 25.2685 13.8149C25.0013 13.8149 24.8327 13.639 24.8327 13.3586C24.8327 13.2535 24.8539 13.1477 24.9379 13.0637C25.0714 12.9301 25.3313 12.8316 25.9285 12.6914V13.5901Z" fill="#0C0E19"/>
</svg>
