<svg width="28" height="20" viewBox="0 0 28 20" fill="none" xmlns="http://www.w3.org/2000/svg">
<path d="M7.3126 7.33191H3.39422C2.88393 7.33191 2.47058 7.75404 2.47058 8.27426V12.2729C2.47058 12.7931 2.88393 13.2153 3.39422 13.2153H7.3126C7.82289 13.2153 8.23569 12.7931 8.23569 12.2729V8.27426C8.23624 7.75349 7.82289 7.33191 7.3126 7.33191Z" fill="#1677FF"/>
<path d="M7.21727 11.0264C6.9869 10.9476 6.67703 10.8269 6.3323 10.6996C6.53924 10.332 6.7048 9.91373 6.81372 9.45909H5.67715V9.04137H7.06914V8.80826H5.67715V8.11169H5.10913C5.00947 8.11169 5.00947 8.21199 5.00947 8.21199V8.80771H3.60168V9.04082H5.00947V9.45854H3.84675V9.69164H6.10139C6.01915 9.98151 5.90806 10.2543 5.77681 10.5017C5.04541 10.2554 4.26446 10.0559 3.77432 10.1788C3.46063 10.2576 3.25859 10.3981 3.13986 10.5458C2.59527 11.222 2.98574 12.2492 4.13593 12.2492C4.81614 12.2492 5.47129 11.8624 5.97885 11.2248C6.73639 11.5962 8.23567 12.2343 8.23567 12.2343V11.325C8.23621 11.325 8.04778 11.3096 7.21727 11.0264ZM4.02865 11.8563C3.13169 11.8563 2.86648 11.1355 3.30978 10.7409C3.45791 10.6075 3.72803 10.5425 3.8718 10.5282C4.40442 10.4747 4.89783 10.6819 5.48 10.9718C5.07101 11.5163 4.54983 11.8563 4.02865 11.8563Z" fill="white"/>
<path d="M14.9893 8.19328C14.9893 8.49748 15.2093 8.70248 15.5159 8.70248C15.8225 8.70248 16.0425 8.49748 16.0425 8.19328C16.0425 7.8946 15.8225 7.68408 15.5159 7.68408C15.2093 7.68408 14.9893 7.8946 14.9893 8.19328Z" fill="#1677FF"/>
<path d="M14.4337 7.8125H13.5199V12.0856H14.4337V7.8125Z" fill="#0C0E19"/>
<path d="M11.9177 7.95898H10.6912L9.3205 12.086H10.1652L10.3966 11.2781H11.8485L12.0685 12.086H13.1501L11.9177 7.95898ZM10.5872 10.6047L11.1307 8.70239H11.1536L11.6683 10.6047H10.5872Z" fill="#0C0E19"/>
<path d="M15.9728 8.94824H15.059V12.0861H15.9728V8.94824Z" fill="#0C0E19"/>
<path d="M25.5239 8.9543L25.5294 8.94824H24.6678L24.1238 10.8566H24.0949L23.4703 8.94824H22.4464L23.6783 12.0977L23.1636 13.0577V13.0808H23.9675L25.5239 8.9543Z" fill="#0C0E19"/>
<path d="M18.2465 8.88379C17.911 8.88379 17.6507 9.01274 17.3555 9.25852V8.94827H16.4417V13.0808H17.3555V12.0564C17.5293 12.1032 17.691 12.1269 17.8876 12.1269C18.7034 12.1269 19.4381 11.518 19.4381 10.4351C19.4381 9.46353 18.906 8.88379 18.2465 8.88379ZM17.6676 11.5472C17.5636 11.5472 17.465 11.5356 17.355 11.5003V9.80299C17.5462 9.66853 17.7019 9.60405 17.8985 9.60405C18.24 9.60405 18.5117 9.87904 18.5117 10.4648C18.5123 11.2138 18.1131 11.5472 17.6676 11.5472Z" fill="#0C0E19"/>
<path d="M22.2667 11.3014V9.99036C22.2667 9.27616 21.8501 8.88379 21.1154 8.88379C20.6465 8.88379 20.323 8.9659 19.7327 9.14721L19.8944 9.86747C20.4325 9.62169 20.6694 9.51643 20.9183 9.51643C21.2189 9.51643 21.3523 9.73301 21.3523 10.067V10.0901C20.3051 10.289 19.981 10.4004 19.779 10.6054C19.6287 10.7575 19.5649 10.974 19.5649 11.2259C19.5649 11.8288 20.0279 12.1506 20.4614 12.1506C20.7854 12.1506 21.0457 12.0277 21.3986 11.7582L21.4623 12.0861H22.3762L22.2667 11.3014ZM21.3529 11.3251C21.11 11.4595 20.9711 11.5124 20.8094 11.5124C20.5893 11.5124 20.4505 11.3659 20.4505 11.1322C20.4505 11.0446 20.4679 10.9564 20.5371 10.8864C20.6471 10.7751 20.8611 10.693 21.3529 10.5762V11.3251Z" fill="#0C0E19"/>
</svg>
