<svg width="28" height="20" viewBox="0 0 28 20" fill="none" xmlns="http://www.w3.org/2000/svg">
<path d="M18.1352 10.7141C16.8162 10.7203 15.8495 9.73875 15.8394 8.38269C15.8296 7.04945 16.8088 6.03856 18.1109 6.03796C19.4374 6.03796 20.4074 7.00886 20.4142 8.34566C20.4213 9.72127 19.4732 10.7079 18.1352 10.7141ZM16.901 8.40314C16.8847 8.58979 16.9261 8.80133 17.0088 9.00309C17.1762 9.41077 17.4674 9.68008 17.9101 9.75326C18.3604 9.82763 18.7648 9.71564 19.0439 9.34381C19.44 8.81585 19.4643 8.2233 19.1894 7.64319C18.8196 6.86398 17.7483 6.75436 17.199 7.4195C16.9729 7.69296 16.8921 8.01857 16.901 8.40284V8.40314Z" fill="#FFBC25"/>
<path d="M10.0125 10.0518C9.81077 10.3368 9.56545 10.5259 9.25703 10.6222C8.76491 10.7744 8.27931 10.765 7.8266 10.4959C7.3499 10.2118 7.1345 9.78073 7.1905 9.2264C7.2465 8.67207 7.58544 8.34083 8.08881 8.15981C8.45678 8.02737 8.84905 8.01433 9.23036 7.94708C9.37346 7.9216 9.51834 7.90708 9.66174 7.88308C10.014 7.82383 10.0149 7.53289 9.89017 7.25439C9.83834 7.14 9.7449 7.04964 9.62885 7.00166C9.29139 6.85827 8.95542 6.84464 8.62537 7.03099C8.42982 7.14269 8.31753 7.31542 8.26183 7.52903C8.22065 7.68636 8.20999 7.69228 8.05207 7.65584C7.83727 7.60666 7.62217 7.5557 7.40767 7.51126C7.29568 7.48785 7.26724 7.43334 7.2936 7.32253C7.42248 6.78271 7.75817 6.41444 8.25887 6.20883C8.87394 5.9561 9.50323 5.96796 10.1139 6.22631C10.6655 6.45977 10.9476 6.90774 10.9843 7.49585C11.0255 8.15655 10.9917 8.81902 11 9.4809C11.0024 9.67052 10.9867 9.86013 11.0145 10.0492C11.0379 10.2086 11.1034 10.3431 11.2314 10.4438C11.2631 10.4687 11.2996 10.4909 11.2809 10.5395C11.2622 10.5881 11.2187 10.5825 11.1796 10.5828C10.9811 10.5828 10.7823 10.589 10.584 10.5828C10.3212 10.5745 10.1236 10.4162 10.0487 10.168C10.0401 10.1377 10.0306 10.1093 10.0125 10.0518ZM9.96276 8.83887C9.96276 8.77487 9.9592 8.73488 9.96276 8.69547C9.9749 8.58704 9.94913 8.54556 9.82499 8.57519C9.67152 8.61192 9.51005 8.61281 9.3548 8.64392C9.09644 8.69577 8.82654 8.69162 8.57885 8.79591C8.34716 8.89368 8.2091 9.11056 8.22332 9.34847C8.22957 9.46642 8.27311 9.57935 8.34765 9.67098C8.42219 9.76261 8.52389 9.82822 8.63811 9.85836C8.79148 9.90202 8.95259 9.91138 9.10999 9.88578C9.26739 9.86018 9.41723 9.80024 9.54886 9.71022C9.86735 9.50164 9.95061 9.17277 9.96276 8.83887Z" fill="#FFBC25"/>
<path d="M14.0031 6.95189C14.0031 6.02988 14.0031 5.10777 14.0031 4.18556C14.0031 4.01194 14.012 4.00335 14.1808 4.00305C14.4722 4.00305 14.7634 4.00305 15.0546 4.00305C15.2226 4.00305 15.2341 4.01668 15.2341 4.20037V9.15055C15.2341 9.31824 15.2314 9.48594 15.2341 9.65422C15.2406 10.0023 15.4042 10.2577 15.7037 10.4287C15.7458 10.4527 15.803 10.4642 15.7926 10.5273C15.7784 10.602 15.7123 10.583 15.6628 10.5833C15.4157 10.5851 15.1686 10.5866 14.9221 10.5833C14.3808 10.5771 14.0078 10.2062 14.006 9.66489C14.001 8.76095 14.0031 7.85642 14.0031 6.95189Z" fill="#FFBC25"/>
<path d="M11.6616 6.94306V4.20398C11.6616 4.01229 11.6705 4.00341 11.8639 4.00341C12.2651 4.00341 12.6666 4.00341 13.068 4.00341C13.1302 4.00341 13.2084 3.97911 13.2422 4.06029C13.276 4.14147 13.2079 4.18265 13.1687 4.23154C12.8882 4.58233 12.6043 4.93105 12.3223 5.28065C12.295 5.31472 12.2601 5.3488 12.2485 5.3885C12.2239 5.47205 12.2725 5.51382 12.3522 5.51678C12.4491 5.52064 12.5463 5.51678 12.6434 5.51915C12.8348 5.52182 12.8953 5.57841 12.8971 5.77425C12.9 6.04771 12.8971 6.32117 12.8971 6.59464C12.8971 7.58696 12.8971 8.57929 12.8971 9.57162C12.8971 9.95115 13.0399 10.2465 13.3818 10.4308C13.4212 10.4524 13.4671 10.4711 13.4579 10.5256C13.4464 10.592 13.3886 10.5825 13.3412 10.5825C13.0722 10.5825 12.8031 10.5893 12.5341 10.5825C12.0408 10.5674 11.666 10.1805 11.6643 9.68213C11.661 8.76901 11.6643 7.85618 11.6643 6.94335L11.6616 6.94306Z" fill="#FFBC25"/>
<path d="M7 15.9267V11.0974H7.63936V13.1749H7.67788C7.72483 13.0917 7.77843 13.0124 7.83816 12.9379C7.91787 12.8398 8.0169 12.7591 8.12911 12.7009C8.25295 12.6333 8.41689 12.5995 8.62093 12.5995C8.87251 12.5954 9.11976 12.6652 9.33199 12.8004C9.53997 12.9343 9.70352 13.1275 9.82262 13.3799C9.94172 13.6323 10.001 13.9359 10.0004 14.2907C10.0004 14.6462 9.94113 14.9502 9.82262 15.2026C9.70411 15.455 9.54155 15.6498 9.33495 15.7869C9.12465 15.924 8.87816 15.9951 8.62715 15.991C8.42766 15.991 8.2648 15.9575 8.13859 15.8906C8.02461 15.8335 7.92372 15.7534 7.84231 15.6553C7.78099 15.5801 7.72589 15.5001 7.67758 15.4159H7.62425V15.9267H7ZM7.62662 14.2847C7.62254 14.4916 7.65658 14.6973 7.72706 14.8918C7.78409 15.052 7.88476 15.1931 8.01771 15.2992C8.15208 15.3994 8.31648 15.4512 8.48405 15.4459C8.67485 15.4459 8.83444 15.3948 8.96283 15.2927C9.09636 15.1838 9.19733 15.0403 9.25466 14.8779C9.38658 14.4971 9.38742 14.083 9.25703 13.7017C9.2004 13.5409 9.09955 13.3994 8.96609 13.2934C8.83711 13.1935 8.67643 13.1436 8.48405 13.1438C8.29858 13.1438 8.14205 13.1915 8.01445 13.2869C7.88171 13.3898 7.78125 13.5286 7.72499 13.6869C7.65587 13.8785 7.62253 14.0811 7.62662 14.2847Z" fill="#282828"/>
<path d="M11.533 15.9996C11.3391 16.0023 11.147 15.9625 10.9701 15.8829C10.8078 15.8101 10.6695 15.6927 10.5713 15.5443C10.4737 15.3959 10.425 15.2141 10.425 14.9988C10.425 14.8137 10.4606 14.6613 10.5319 14.5414C10.6017 14.423 10.7012 14.325 10.8205 14.2569C10.9475 14.1847 11.0843 14.1314 11.2267 14.0987C11.3776 14.0629 11.5304 14.0358 11.6844 14.0176C11.8819 13.9946 12.0415 13.9757 12.1632 13.9607C12.2849 13.9457 12.3738 13.9211 12.4299 13.8869C12.4576 13.8693 12.4799 13.8444 12.4946 13.815C12.5093 13.7857 12.5157 13.7528 12.5131 13.7201V13.7053C12.5131 13.5186 12.4608 13.3739 12.3561 13.2712C12.2514 13.1685 12.0956 13.1172 11.8886 13.1172C11.6731 13.1172 11.5038 13.1646 11.3807 13.2594C11.2688 13.3398 11.1805 13.4488 11.1251 13.5749L10.5257 13.438C10.5876 13.2528 10.6954 13.0862 10.8389 12.9536C10.9762 12.8306 11.1385 12.7387 11.3147 12.6843C11.4982 12.6275 11.6893 12.599 11.8814 12.5999C12.022 12.6008 12.1621 12.6162 12.2995 12.6458C12.4467 12.6763 12.5872 12.7331 12.7143 12.8135C12.8481 12.9003 12.9574 13.02 13.0319 13.161C13.1146 13.3115 13.1559 13.5065 13.1557 13.7459V15.9268H12.53V15.4779H12.5042C12.4564 15.5691 12.3935 15.6516 12.3182 15.7217C12.2257 15.8077 12.1175 15.8752 11.9997 15.9205C11.8507 15.9767 11.6922 16.0036 11.533 15.9996ZM11.672 15.4865C11.8297 15.4909 11.9858 15.4547 12.1256 15.3816C12.2451 15.3181 12.345 15.2231 12.4144 15.107C12.4797 14.9965 12.514 14.8705 12.5137 14.7422V14.3189C12.4752 14.3496 12.4302 14.3712 12.3822 14.382C12.3095 14.4029 12.2356 14.4194 12.1608 14.4312C12.0782 14.4448 11.9979 14.4569 11.9194 14.4676L11.7226 14.4943C11.6075 14.508 11.4942 14.5346 11.3849 14.5734C11.2914 14.6048 11.2074 14.6597 11.1411 14.7328C11.0778 14.8099 11.0455 14.9078 11.0504 15.0074C11.0504 15.1654 11.1088 15.2848 11.2255 15.3656C11.3422 15.4464 11.4913 15.4867 11.6726 15.4865H11.672Z" fill="#282828"/>
<path d="M14.5062 13.9766V15.9267H13.8668V12.6425H14.4804V13.1758H14.521C14.5949 13.0037 14.7188 12.8578 14.8765 12.7568C15.0383 12.6514 15.2425 12.5986 15.4892 12.5986C15.6944 12.5945 15.8971 12.6434 16.0779 12.7405C16.2475 12.8356 16.384 12.9804 16.469 13.1553C16.5616 13.3394 16.6079 13.5666 16.6079 13.8368V15.9258H15.9686V13.9147C15.9686 13.6777 15.9067 13.4913 15.7828 13.3556C15.659 13.2199 15.4886 13.1526 15.2717 13.1536C15.1341 13.1508 14.998 13.184 14.8771 13.2498C14.7611 13.3151 14.6668 13.4128 14.6057 13.531C14.5359 13.6689 14.5017 13.8221 14.5062 13.9766Z" fill="#282828"/>
<path d="M19.3989 15.9268H20.1837L18.7642 14.0522L20.0936 12.6425H19.3283L18.0197 14.0324H17.964V11.0444H17.3249V15.9268H17.964V14.7615L18.2816 14.4439L19.3989 15.9268Z" fill="#282828"/>
</svg>
