<svg width="34" height="24" viewBox="0 0 34 24" fill="none" xmlns="http://www.w3.org/2000/svg">
<path d="M22.9191 13.3925C21.2703 13.4003 20.0618 12.1733 20.0493 10.4783C20.037 8.81172 21.261 7.5481 22.8887 7.54736C24.5467 7.54736 25.7592 8.76098 25.7678 10.432C25.7766 12.1515 24.5915 13.3847 22.9191 13.3925ZM21.3762 10.5038C21.3558 10.7371 21.4077 11.0016 21.511 11.2538C21.7203 11.7634 22.0843 12.1 22.6376 12.1915C23.2005 12.2844 23.706 12.1445 24.0549 11.6797C24.5501 11.0197 24.5804 10.279 24.2367 9.55389C23.7746 8.57989 22.4354 8.44286 21.7488 9.27428C21.4662 9.61611 21.3651 10.0231 21.3762 10.5035V10.5038Z" fill="#FFBC25"/>
<path d="M12.7657 12.5648C12.5135 12.9211 12.2068 13.1574 11.8213 13.2777C11.2062 13.4681 10.5992 13.4562 10.0333 13.12C9.43739 12.7648 9.16815 12.2259 9.23814 11.533C9.30814 10.8401 9.73181 10.4261 10.361 10.1998C10.821 10.0342 11.3113 10.0179 11.788 9.93388C11.9668 9.90203 12.1479 9.88388 12.3272 9.85389C12.7675 9.77982 12.7686 9.41614 12.6127 9.06801C12.5479 8.92503 12.4311 8.81208 12.2861 8.75211C11.8643 8.57286 11.4443 8.55583 11.0317 8.78877C10.7873 8.92839 10.6469 9.1443 10.5773 9.41132C10.5258 9.60798 10.5125 9.61538 10.3151 9.56983C10.0466 9.50835 9.77773 9.44465 9.5096 9.3891C9.36961 9.35985 9.33406 9.2917 9.36702 9.15319C9.52812 8.47842 9.94772 8.01809 10.5736 7.76107C11.3424 7.44516 12.1291 7.45997 12.8923 7.78292C13.5819 8.07475 13.9345 8.63471 13.9804 9.36984C14.0319 10.1957 13.9897 11.0238 14 11.8512C14.003 12.0882 13.9834 12.3252 14.0182 12.5615C14.0474 12.7607 14.1293 12.9289 14.2893 13.0548C14.3289 13.0859 14.3745 13.1137 14.3511 13.1744C14.3278 13.2351 14.2734 13.2281 14.2245 13.2285C13.9763 13.2285 13.7278 13.2362 13.4801 13.2285C13.1516 13.2181 12.9046 13.0203 12.8109 12.71C12.8001 12.6722 12.7883 12.6367 12.7657 12.5648ZM12.7035 11.0486C12.7035 10.9686 12.699 10.9186 12.7035 10.8694C12.7186 10.7338 12.6864 10.682 12.5312 10.719C12.3394 10.7649 12.1376 10.766 11.9435 10.8049C11.6206 10.8697 11.2832 10.8646 10.9736 10.9949C10.684 11.1171 10.5114 11.3882 10.5292 11.6856C10.537 11.8331 10.5914 11.9742 10.6846 12.0888C10.7778 12.2033 10.9049 12.2853 11.0476 12.323C11.2394 12.3776 11.4408 12.3893 11.6375 12.3573C11.8343 12.3253 12.0215 12.2503 12.1861 12.1378C12.5842 11.8771 12.6883 11.466 12.7035 11.0486Z" fill="#FFBC25"/>
<path d="M17.7539 8.68995C17.7539 7.53744 17.7539 6.3848 17.7539 5.23204C17.7539 5.01502 17.765 5.00428 17.9761 5.00391C18.3402 5.00391 18.7043 5.00391 19.0682 5.00391C19.2782 5.00391 19.2926 5.02094 19.2926 5.25056V11.4383C19.2926 11.6479 19.2893 11.8575 19.2926 12.0679C19.3008 12.503 19.5052 12.8223 19.8796 13.0359C19.9322 13.0659 20.0037 13.0804 19.9907 13.1593C19.973 13.2526 19.8904 13.2289 19.8285 13.2293C19.5197 13.2315 19.2108 13.2333 18.9027 13.2293C18.226 13.2215 17.7598 12.7578 17.7576 12.0812C17.7513 10.9513 17.7539 9.82061 17.7539 8.68995Z" fill="#FFBC25"/>
<path d="M14.827 8.67882V5.25498C14.827 5.01537 14.8381 5.00426 15.08 5.00426C15.5814 5.00426 16.0832 5.00426 16.5851 5.00426C16.6628 5.00426 16.7606 4.97389 16.8028 5.07536C16.845 5.17684 16.7599 5.22832 16.711 5.28942C16.3603 5.72791 16.0055 6.16381 15.6529 6.60081C15.6188 6.6434 15.5751 6.68599 15.5607 6.73562C15.5299 6.84006 15.5907 6.89228 15.6903 6.89598C15.8114 6.90079 15.9329 6.89598 16.0543 6.89894C16.2936 6.90228 16.3691 6.97301 16.3714 7.21781C16.3751 7.55964 16.3714 7.90147 16.3714 8.24329C16.3714 9.4837 16.3714 10.7241 16.3714 11.9645C16.3714 12.4389 16.5499 12.8082 16.9772 13.0385C17.0265 13.0656 17.0839 13.0889 17.0724 13.157C17.058 13.24 16.9858 13.2281 16.9265 13.2281C16.5902 13.2281 16.254 13.2367 15.9177 13.2281C15.3011 13.2093 14.8326 12.7256 14.8304 12.1027C14.8263 10.9613 14.8304 9.82022 14.8304 8.67919L14.827 8.67882Z" fill="#FFBC25"/>
<path d="M9 19.9084V13.8718H9.7992V16.4687H9.84735C9.90604 16.3647 9.97304 16.2656 10.0477 16.1724C10.1473 16.0498 10.2711 15.9489 10.4114 15.8761C10.5662 15.7917 10.7711 15.7495 11.0262 15.7495C11.3406 15.7443 11.6497 15.8316 11.915 16.0006C12.175 16.168 12.3794 16.4094 12.5283 16.725C12.6772 17.0405 12.7512 17.42 12.7505 17.8634C12.7505 18.3078 12.6764 18.6878 12.5283 19.0033C12.3801 19.3189 12.1769 19.5623 11.9187 19.7336C11.6558 19.905 11.3477 19.9939 11.0339 19.9888C10.7846 19.9888 10.581 19.947 10.4232 19.8633C10.2808 19.7919 10.1546 19.6918 10.0529 19.5692C9.97623 19.4752 9.90737 19.3752 9.84698 19.27H9.78032V19.9084H9ZM9.78328 17.856C9.77817 18.1145 9.82073 18.3717 9.90883 18.6148C9.98011 18.8151 10.1059 18.9915 10.2721 19.1241C10.4401 19.2494 10.6456 19.314 10.8551 19.3074C11.0936 19.3074 11.2931 19.2436 11.4535 19.1159C11.6204 18.9799 11.7467 18.8005 11.8183 18.5974C11.9832 18.1214 11.9843 17.6039 11.8213 17.1272C11.7505 16.9262 11.6244 16.7493 11.4576 16.6168C11.2964 16.4919 11.0955 16.4296 10.8551 16.4298C10.6232 16.4298 10.4276 16.4894 10.2681 16.6087C10.1021 16.7373 9.97657 16.9108 9.90623 17.1086C9.81984 17.3481 9.77816 17.6015 9.78328 17.856Z" fill="#282828"/>
<path d="M14.6663 19.9995C14.4239 20.0028 14.1837 19.953 13.9626 19.8536C13.7597 19.7626 13.5868 19.6158 13.4641 19.4303C13.3422 19.2449 13.2812 19.0176 13.2812 18.7485C13.2812 18.5171 13.3258 18.3265 13.4149 18.1767C13.5021 18.0287 13.6264 17.9062 13.7756 17.8211C13.9343 17.7309 14.1054 17.6643 14.2833 17.6234C14.472 17.5785 14.663 17.5447 14.8555 17.5219C15.1024 17.4932 15.3019 17.4695 15.454 17.4508C15.6061 17.432 15.7172 17.4013 15.7873 17.3586C15.8219 17.3365 15.8499 17.3055 15.8682 17.2687C15.8866 17.232 15.8946 17.191 15.8914 17.1501V17.1315C15.8914 16.8982 15.826 16.7174 15.6951 16.589C15.5642 16.4606 15.3694 16.3964 15.1107 16.3964C14.8413 16.3964 14.6297 16.4557 14.4759 16.5742C14.336 16.6747 14.2257 16.8109 14.1563 16.9686L13.4071 16.7975C13.4845 16.5659 13.6192 16.3576 13.7986 16.192C13.9702 16.0382 14.1731 15.9233 14.3933 15.8553C14.6227 15.7843 14.8616 15.7487 15.1018 15.7498C15.2775 15.7509 15.4526 15.7702 15.6244 15.8072C15.8084 15.8453 15.984 15.9163 16.1428 16.0168C16.3101 16.1254 16.4467 16.2749 16.5399 16.4512C16.6433 16.6394 16.6949 16.883 16.6947 17.1823V19.9084H15.9125V19.3473H15.8803C15.8205 19.4613 15.7419 19.5644 15.6477 19.6521C15.5321 19.7596 15.3969 19.844 15.2496 19.9006C15.0633 19.9708 14.8653 20.0044 14.6663 19.9995ZM14.84 19.3581C15.0371 19.3635 15.2323 19.3184 15.407 19.227C15.5564 19.1476 15.6812 19.0288 15.7681 18.8836C15.8497 18.7456 15.8925 18.5881 15.8921 18.4277V17.8985C15.844 17.937 15.7878 17.964 15.7277 17.9774C15.6368 18.0036 15.5444 18.0241 15.451 18.0389C15.3477 18.0559 15.2473 18.0711 15.1492 18.0844L14.9033 18.1178C14.7593 18.135 14.6177 18.1682 14.4811 18.2167C14.3642 18.256 14.2593 18.3246 14.1763 18.4159C14.0973 18.5123 14.0569 18.6347 14.063 18.7592C14.063 18.9567 14.1359 19.106 14.2819 19.207C14.4278 19.3079 14.6141 19.3583 14.8407 19.3581H14.84Z" fill="#282828"/>
<path d="M18.3827 17.4708V19.9084H17.5835V15.8032H18.3505V16.4698H18.4012C18.4937 16.2547 18.6485 16.0723 18.8456 15.9461C19.0478 15.8143 19.3031 15.7483 19.6115 15.7483C19.868 15.7432 20.1214 15.8043 20.3474 15.9257C20.5594 16.0446 20.73 16.2255 20.8362 16.4442C20.952 16.6743 21.0099 16.9583 21.0099 17.296V19.9073H20.2107V17.3934C20.2107 17.0971 20.1333 16.8642 19.9785 16.6946C19.8237 16.525 19.6108 16.4408 19.3397 16.442C19.1676 16.4386 18.9976 16.4801 18.8464 16.5624C18.7014 16.6439 18.5835 16.7661 18.5071 16.9138C18.4199 17.0862 18.3772 17.2777 18.3827 17.4708Z" fill="#282828"/>
<path d="M24.4986 19.9085H25.4796L23.7053 17.5653L25.367 15.8032H24.4104L22.7746 17.5405H22.705V13.8055H21.9062V19.9085H22.705V18.4519L23.102 18.0549L24.4986 19.9085Z" fill="#282828"/>
</svg>
