<svg width="46" height="32" viewBox="0 0 46 32" fill="none" xmlns="http://www.w3.org/2000/svg">
<path d="M31.4146 17.3091C28.9964 17.3205 27.224 15.521 27.2056 13.0349C27.1877 10.5906 28.9828 8.73729 31.3701 8.73621C33.8019 8.73621 35.5802 10.5162 35.5927 12.967C35.6057 15.4889 33.8676 17.2977 31.4146 17.3091ZM29.1518 13.0724C29.1219 13.4146 29.1979 13.8024 29.3495 14.1723C29.6564 14.9197 30.1903 15.4134 31.0018 15.5476C31.8274 15.6839 32.5689 15.4786 33.0805 14.7969C33.8068 13.829 33.8513 12.7426 33.3472 11.6791C32.6694 10.2506 30.7052 10.0496 29.6982 11.269C29.2838 11.7704 29.1355 12.3673 29.1518 13.0718V13.0724Z" fill="#FFBC25"/>
<path d="M16.523 16.0951C16.1531 16.6176 15.7033 16.9642 15.1379 17.1407C14.2357 17.4199 13.3454 17.4025 12.5154 16.9093C11.6415 16.3884 11.2466 15.5981 11.3493 14.5818C11.4519 13.5656 12.0733 12.9583 12.9962 12.6264C13.6708 12.3836 14.3899 12.3597 15.089 12.2364C15.3513 12.1897 15.617 12.1631 15.8799 12.1191C16.5257 12.0105 16.5273 11.4771 16.2986 10.9665C16.2036 10.7568 16.0323 10.5911 15.8196 10.5032C15.2009 10.2403 14.5849 10.2153 13.9798 10.5569C13.6213 10.7617 13.4155 11.0784 13.3134 11.47C13.2379 11.7584 13.2183 11.7693 12.9288 11.7025C12.535 11.6123 12.1407 11.5189 11.7474 11.4374C11.5421 11.3945 11.4899 11.2946 11.5383 11.0914C11.7746 10.1017 12.39 9.42658 13.3079 9.04962C14.4356 8.58629 15.5893 8.60802 16.7087 9.08167C17.7201 9.50969 18.2372 10.331 18.3046 11.4092C18.3801 12.6204 18.3182 13.835 18.3334 15.0484C18.3377 15.3961 18.3089 15.7437 18.36 16.0902C18.4029 16.3825 18.5229 16.6291 18.7576 16.8137C18.8157 16.8594 18.8825 16.9001 18.8483 16.9892C18.8141 17.0783 18.7342 17.0679 18.6625 17.0685C18.2986 17.0685 17.9341 17.0799 17.5708 17.0685C17.089 17.0533 16.7267 16.7632 16.5892 16.308C16.5735 16.2526 16.5561 16.2005 16.523 16.0951ZM16.4317 13.8714C16.4317 13.754 16.4252 13.6807 16.4317 13.6085C16.454 13.4097 16.4067 13.3336 16.1791 13.3879C15.8978 13.4553 15.6017 13.4569 15.3171 13.514C14.8435 13.609 14.3487 13.6014 13.8946 13.7926C13.4698 13.9719 13.2167 14.3695 13.2428 14.8056C13.2542 15.0219 13.334 15.2289 13.4707 15.3969C13.6073 15.5649 13.7938 15.6852 14.0032 15.7404C14.2844 15.8205 14.5797 15.8376 14.8683 15.7907C15.1569 15.7438 15.4316 15.6339 15.6729 15.4688C16.2568 15.0864 16.4094 14.4835 16.4317 13.8714Z" fill="#FFBC25"/>
<path d="M23.839 10.4119C23.839 8.72158 23.839 7.03105 23.839 5.34033C23.839 5.02203 23.8553 5.00628 24.1649 5.00574C24.699 5.00574 25.2329 5.00574 25.7667 5.00574C26.0747 5.00574 26.0959 5.03072 26.0959 5.36749V14.4428C26.0959 14.7503 26.091 15.0577 26.0959 15.3662C26.1078 16.0044 26.4076 16.4727 26.9568 16.7861C27.0339 16.8301 27.1388 16.8512 27.1197 16.9669C27.0937 17.1038 26.9725 17.0691 26.8818 17.0696C26.4288 17.0729 25.9758 17.0756 25.5239 17.0696C24.5315 17.0582 23.8477 16.3781 23.8444 15.3858C23.8352 13.7285 23.839 12.0702 23.839 10.4119Z" fill="#FFBC25"/>
<path d="M19.5463 10.3956V5.37397C19.5463 5.02254 19.5626 5.00624 19.9173 5.00624C20.6527 5.00624 21.3887 5.00624 22.1247 5.00624C22.2388 5.00624 22.3822 4.9617 22.4441 5.11053C22.506 5.25936 22.3811 5.33486 22.3094 5.42449C21.795 6.0676 21.2746 6.70692 20.7575 7.34786C20.7076 7.41033 20.6435 7.47279 20.6223 7.54558C20.5772 7.69875 20.6663 7.77534 20.8124 7.78077C20.99 7.78783 21.1682 7.78077 21.3463 7.78512C21.6972 7.79 21.808 7.89375 21.8113 8.25279C21.8167 8.75414 21.8113 9.25548 21.8113 9.75683C21.8113 11.5761 21.8113 13.3954 21.8113 15.2146C21.8113 15.9104 22.0731 16.452 22.6999 16.7898C22.7722 16.8295 22.8564 16.8637 22.8395 16.9636C22.8183 17.0853 22.7124 17.0679 22.6255 17.0679C22.1323 17.0679 21.6391 17.0804 21.1459 17.0679C20.2415 17.0402 19.5544 16.3309 19.5512 15.4172C19.5452 13.7432 19.5512 12.0697 19.5512 10.3961L19.5463 10.3956Z" fill="#FFBC25"/>
<path d="M11 26.8657V18.012H12.1722V21.8207H12.2428C12.3289 21.6682 12.4271 21.5228 12.5366 21.3862C12.6828 21.2063 12.8643 21.0583 13.07 20.9516C13.2971 20.8278 13.5976 20.7658 13.9717 20.7658C14.4329 20.7583 14.8862 20.8863 15.2753 21.1341C15.6566 21.3796 15.9565 21.7338 16.1748 22.1966C16.3932 22.6593 16.5018 23.2159 16.5007 23.8663C16.5007 24.5181 16.3921 25.0754 16.1748 25.5382C15.9575 26.0009 15.6595 26.358 15.2807 26.6093C14.8952 26.8606 14.4433 26.991 13.9831 26.9835C13.6174 26.9835 13.3188 26.9222 13.0874 26.7994C12.8784 26.6948 12.6935 26.5479 12.5442 26.3681C12.4318 26.2303 12.3308 26.0835 12.2422 25.9292H12.1445V26.8657H11ZM12.1488 23.8554C12.1413 24.2346 12.2037 24.6118 12.3329 24.9684C12.4375 25.2621 12.6221 25.5208 12.8658 25.7152C13.1121 25.899 13.4136 25.9938 13.7208 25.9841C14.0706 25.9841 14.3631 25.8905 14.5985 25.7033C14.8433 25.5038 15.0284 25.2407 15.1335 24.9428C15.3754 24.2446 15.3769 23.4856 15.1379 22.7864C15.0341 22.4917 14.8492 22.2323 14.6045 22.038C14.368 21.8547 14.0735 21.7633 13.7208 21.7637C13.3807 21.7637 13.0937 21.8511 12.8598 22.026C12.6165 22.2147 12.4323 22.4692 12.3291 22.7593C12.2024 23.1105 12.1413 23.4821 12.1488 23.8554Z" fill="#282828"/>
<path d="M19.3105 26.9993C18.955 27.0042 18.6028 26.9311 18.2785 26.7853C17.9809 26.6518 17.7273 26.4365 17.5474 26.1644C17.3685 25.8925 17.2791 25.5592 17.2791 25.1645C17.2791 24.8252 17.3444 24.5456 17.4752 24.3258C17.6031 24.1089 17.7855 23.9291 18.0042 23.8044C18.237 23.672 18.4879 23.5743 18.7489 23.5143C19.0255 23.4486 19.3057 23.3989 19.5881 23.3655C19.9502 23.3235 20.2428 23.2887 20.4659 23.2612C20.6889 23.2337 20.8519 23.1886 20.9547 23.1259C21.0055 23.0936 21.0466 23.0481 21.0734 22.9942C21.1003 22.9403 21.1121 22.8802 21.1074 22.8201V22.793C21.1074 22.4508 21.0114 22.1855 20.8195 21.9972C20.6276 21.8089 20.3419 21.7148 19.9624 21.7148C19.5673 21.7148 19.257 21.8017 19.0314 21.9755C18.8262 22.1229 18.6643 22.3227 18.5626 22.554L17.4638 22.303C17.5773 21.9634 17.7748 21.6579 18.0379 21.4149C18.2897 21.1894 18.5872 21.0209 18.9102 20.9212C19.2467 20.817 19.5971 20.7648 19.9493 20.7664C20.207 20.7681 20.4638 20.7963 20.7157 20.8506C20.9857 20.9065 21.2433 21.0106 21.4762 21.158C21.7215 21.3172 21.9219 21.5366 22.0585 21.7952C22.2102 22.0711 22.2859 22.4285 22.2855 22.8674V26.8657H21.1383V26.0428H21.0911C21.0035 26.21 20.8881 26.3612 20.75 26.4898C20.5804 26.6475 20.3822 26.7712 20.166 26.8543C19.8929 26.9573 19.6024 27.0065 19.3105 26.9993ZM19.5653 26.0585C19.8544 26.0665 20.1407 26.0003 20.3969 25.8662C20.616 25.7498 20.7991 25.5757 20.9265 25.3627C21.0462 25.1603 21.1091 24.9293 21.1084 24.6941V23.9179C21.0379 23.9743 20.9554 24.0138 20.8673 24.0336C20.734 24.072 20.5985 24.1021 20.4615 24.1237C20.31 24.1487 20.1628 24.171 20.0188 24.1906L19.6582 24.2394C19.447 24.2647 19.2394 24.3134 19.039 24.3845C18.8675 24.4422 18.7136 24.5428 18.5919 24.6767C18.476 24.8181 18.4167 24.9976 18.4257 25.1802C18.4257 25.4699 18.5327 25.6888 18.7467 25.8369C18.9607 25.985 19.234 26.0589 19.5664 26.0585H19.5653Z" fill="#282828"/>
<path d="M24.7613 23.2905V26.8657H23.5891V20.8446H24.714V21.8223H24.7884C24.924 21.5069 25.1511 21.2394 25.4402 21.0543C25.7368 20.8609 26.1112 20.7642 26.5635 20.7642C26.9397 20.7567 27.3114 20.8463 27.6428 21.0244C27.9538 21.1988 28.204 21.4641 28.3598 21.7849C28.5296 22.1223 28.6145 22.5388 28.6145 23.0342V26.8641H27.4424V23.177C27.4424 22.7425 27.3289 22.4008 27.1018 22.152C26.8748 21.9033 26.5624 21.7798 26.1648 21.7816C25.9124 21.7766 25.6631 21.8375 25.4413 21.9581C25.2287 22.0777 25.0558 22.2569 24.9438 22.4736C24.8159 22.7265 24.7532 23.0073 24.7613 23.2905Z" fill="#282828"/>
<path d="M33.7312 26.8657H35.1701L32.5677 23.4291L35.005 20.8447H33.6019L31.2028 23.3927H31.1006V17.9148H29.929V26.8657H31.1006V24.7294L31.6829 24.1472L33.7312 26.8657Z" fill="#282828"/>
</svg>
