<svg width="58" height="40" viewBox="0 0 58 40" fill="none" xmlns="http://www.w3.org/2000/svg">
<path d="M38.9822 21.6661C35.9045 21.6806 33.6487 19.3903 33.6252 16.2262C33.6024 13.1153 35.8872 10.7565 38.9255 10.7551C42.0205 10.7551 44.2839 13.0206 44.2998 16.1397C44.3164 19.3495 42.1042 21.6516 38.9822 21.6661ZM36.1022 16.2739C36.0642 16.7094 36.161 17.203 36.3538 17.6738C36.7444 18.625 37.424 19.2534 38.4568 19.4242C39.5076 19.5977 40.4512 19.3364 41.1024 18.4688C42.0267 17.2369 42.0834 15.8542 41.4419 14.5006C40.5791 12.6825 38.0793 12.4267 36.7977 13.9787C36.2702 14.6168 36.0815 15.3765 36.1022 16.2732V16.2739Z" fill="#FFBC25"/>
<path d="M20.0292 20.1211C19.5585 20.7861 18.986 21.2272 18.2664 21.4519C17.1181 21.8072 15.9851 21.7851 14.9287 21.1574C13.8164 20.4944 13.3138 19.4885 13.4445 18.1951C13.5752 16.9017 14.366 16.1288 15.5406 15.7064C16.3992 15.3974 17.3145 15.3669 18.2042 15.21C18.5381 15.1506 18.8761 15.1167 19.2107 15.0607C20.0327 14.9224 20.0348 14.2436 19.7437 13.5937C19.6228 13.3268 19.4048 13.116 19.134 13.004C18.3466 12.6694 17.5626 12.6376 16.7925 13.0725C16.3363 13.3331 16.0742 13.7361 15.9443 14.2346C15.8482 14.6017 15.8233 14.6155 15.4548 14.5305C14.9536 14.4157 14.4517 14.2968 13.9512 14.1931C13.6899 14.1385 13.6235 14.0113 13.6851 13.7527C13.9858 12.4932 14.7691 11.6339 15.9374 11.1541C17.3725 10.5644 18.8409 10.5921 20.2657 11.1949C21.5529 11.7396 22.211 12.7849 22.2967 14.1571C22.3928 15.6988 22.314 17.2445 22.3334 18.7889C22.3389 19.2314 22.3023 19.6738 22.3672 20.1149C22.4219 20.4868 22.5746 20.8006 22.8733 21.0357C22.9473 21.0938 23.0323 21.1456 22.9887 21.259C22.9452 21.3724 22.8436 21.3592 22.7523 21.3599C22.2891 21.3599 21.8253 21.3744 21.3628 21.3599C20.7496 21.3406 20.2885 20.9714 20.1136 20.3921C20.0935 20.3216 20.0714 20.2552 20.0292 20.1211ZM19.9131 17.2909C19.9131 17.1415 19.9048 17.0482 19.9131 16.9563C19.9414 16.7032 19.8813 16.6065 19.5916 16.6756C19.2335 16.7613 18.8568 16.7634 18.4945 16.836C17.8917 16.957 17.2619 16.9473 16.684 17.1906C16.1434 17.4188 15.8212 17.9248 15.8544 18.4799C15.869 18.7551 15.9706 19.0186 16.1445 19.2325C16.3184 19.4463 16.5557 19.5993 16.8222 19.6697C17.1801 19.7715 17.556 19.7934 17.9233 19.7336C18.2906 19.6739 18.6402 19.5341 18.9473 19.324C19.6905 18.8373 19.8848 18.07 19.9131 17.2909Z" fill="#FFBC25"/>
<path d="M29.3405 12.8878C29.3405 10.7365 29.3405 8.58487 29.3405 6.43305C29.3405 6.02794 29.3613 6.00789 29.7553 6.0072C30.4351 6.0072 31.1147 6.0072 31.794 6.0072C32.186 6.0072 32.2129 6.039 32.2129 6.46762V18.018C32.2129 18.4093 32.2067 18.8006 32.2129 19.1933C32.2281 20.0056 32.6097 20.6015 33.3087 21.0003C33.4068 21.0563 33.5402 21.0833 33.516 21.2306C33.4829 21.4048 33.3287 21.3605 33.2133 21.3612C32.6367 21.3654 32.0601 21.3688 31.485 21.3612C30.2219 21.3467 29.3516 20.4812 29.3474 19.2182C29.3357 17.109 29.3405 14.9984 29.3405 12.8878Z" fill="#FFBC25"/>
<path d="M23.8771 12.8671V6.47596C23.8771 6.02869 23.8978 6.00795 24.3492 6.00795C25.2853 6.00795 26.222 6.00795 27.1587 6.00795C27.3039 6.00795 27.4864 5.95126 27.5652 6.14068C27.644 6.3301 27.485 6.42619 27.3938 6.54026C26.7391 7.35877 26.0768 8.17244 25.4187 8.98819C25.3551 9.06769 25.2735 9.14719 25.2466 9.23982C25.1892 9.43477 25.3026 9.53225 25.4885 9.53916C25.7146 9.54815 25.9413 9.53916 26.1681 9.54469C26.6147 9.55091 26.7557 9.68295 26.7598 10.1399C26.7668 10.778 26.7598 11.4161 26.7598 12.0541C26.7598 14.3696 26.7598 16.685 26.7598 19.0004C26.7598 19.886 27.0931 20.5752 27.8908 21.0052C27.9828 21.0557 28.0899 21.0993 28.0685 21.2265C28.0415 21.3813 27.9067 21.3592 27.7961 21.3592C27.1684 21.3592 26.5407 21.3751 25.913 21.3592C24.762 21.3239 23.8874 20.4211 23.8833 19.2583C23.8757 17.1277 23.8833 14.9978 23.8833 12.8678L23.8771 12.8671Z" fill="#FFBC25"/>
<path d="M13 33.829V22.5607H14.4918V27.4081H14.5817C14.6913 27.214 14.8163 27.0291 14.9557 26.8551C15.1417 26.6261 15.3728 26.4379 15.6346 26.302C15.9236 26.1444 16.3061 26.0656 16.7822 26.0656C17.3692 26.056 17.9461 26.2189 18.4413 26.5343C18.9266 26.8468 19.3082 27.2975 19.5861 27.8865C19.864 28.4755 20.0023 29.1839 20.0009 30.0116C20.0009 30.8412 19.8626 31.5505 19.5861 32.1395C19.3096 32.7285 18.9303 33.1829 18.4482 33.5027C17.9575 33.8226 17.3824 33.9885 16.7967 33.979C16.3312 33.979 15.9512 33.9009 15.6567 33.7447C15.3908 33.6116 15.1553 33.4246 14.9654 33.1958C14.8223 33.0204 14.6937 32.8335 14.581 32.6372H14.4566V33.829H13ZM14.4621 29.9978C14.4526 30.4803 14.532 30.9605 14.6965 31.4143C14.8295 31.7881 15.0644 32.1174 15.3747 32.3648C15.6882 32.5988 16.0718 32.7194 16.4628 32.707C16.908 32.707 17.2804 32.5879 17.5799 32.3496C17.8915 32.0957 18.1271 31.7608 18.2609 31.3818C18.5687 30.4932 18.5706 29.5271 18.2664 28.6373C18.1343 28.2622 17.899 27.932 17.5875 27.6847C17.2866 27.4515 16.9117 27.3351 16.4628 27.3355C16.03 27.3355 15.6648 27.4469 15.367 27.6695C15.0573 27.9096 14.8229 28.2335 14.6916 28.6027C14.5304 29.0498 14.4526 29.5226 14.4621 29.9978Z" fill="#282828"/>
<path d="M23.5771 33.9991C23.1246 34.0053 22.6763 33.9124 22.2636 33.7268C21.8848 33.5569 21.5621 33.2829 21.3331 32.9366C21.1054 32.5905 20.9916 32.1662 20.9916 31.6639C20.9916 31.232 21.0748 30.8762 21.2411 30.5965C21.4039 30.3204 21.636 30.0916 21.9145 29.9328C22.2108 29.7644 22.5301 29.64 22.8623 29.5637C23.2143 29.48 23.571 29.4168 23.9303 29.3743C24.3912 29.3208 24.7636 29.2766 25.0475 29.2415C25.3314 29.2065 25.5388 29.1491 25.6697 29.0694C25.7343 29.0282 25.7865 28.9703 25.8208 28.9017C25.855 28.8332 25.8699 28.7566 25.8639 28.6802V28.6456C25.8639 28.2101 25.7418 27.8725 25.4975 27.6328C25.2533 27.3932 24.8896 27.2734 24.4067 27.2734C23.9038 27.2734 23.5089 27.384 23.2217 27.6052C22.9606 27.7928 22.7546 28.0471 22.6251 28.3414L21.2266 28.0221C21.3712 27.5898 21.6225 27.201 21.9573 26.8918C22.2778 26.6047 22.6565 26.3903 23.0676 26.2634C23.4958 26.1307 23.9418 26.0642 24.3901 26.0663C24.718 26.0685 25.0449 26.1044 25.3655 26.1735C25.709 26.2446 26.0369 26.3772 26.3333 26.5648C26.6455 26.7674 26.9006 27.0466 27.0744 27.3757C27.2675 27.7269 27.3638 28.1817 27.3634 28.7403V33.8291H25.9033V32.7817H25.8432C25.7317 32.9946 25.5849 33.187 25.409 33.3507C25.1932 33.5513 24.941 33.7088 24.6659 33.8145C24.3182 33.9457 23.9485 34.0083 23.5771 33.9991ZM23.9013 32.8018C24.2692 32.812 24.6336 32.7277 24.9597 32.5571C25.2386 32.4088 25.4716 32.1872 25.6337 31.9162C25.7861 31.6585 25.8661 31.3645 25.8653 31.0652V30.0773C25.7755 30.1491 25.6705 30.1995 25.5584 30.2246C25.3888 30.2735 25.2163 30.3118 25.042 30.3393C24.8491 30.3711 24.6617 30.3995 24.4785 30.4244L24.0195 30.4866C23.7508 30.5187 23.4865 30.5806 23.2314 30.6712C23.0132 30.7446 22.8173 30.8726 22.6625 31.0431C22.5149 31.2231 22.4395 31.4515 22.4509 31.6839C22.4509 32.0526 22.5871 32.3312 22.8595 32.5197C23.1319 32.7082 23.4796 32.8022 23.9027 32.8018H23.9013Z" fill="#282828"/>
<path d="M30.5144 29.2788V33.829H29.0225V26.1659H30.4542V27.4102H30.5489C30.7215 27.0088 31.0105 26.6683 31.3785 26.4327C31.756 26.1866 32.2325 26.0635 32.8081 26.0635C33.2869 26.054 33.76 26.168 34.1818 26.3947C34.5776 26.6166 34.8961 26.9543 35.0943 27.3625C35.3105 27.7921 35.4185 28.3221 35.4185 28.9525V33.827H33.9267V29.1343C33.9267 28.5813 33.7822 28.1465 33.4932 27.8298C33.2043 27.5132 32.8068 27.3561 32.3007 27.3584C31.9795 27.3521 31.6621 27.4295 31.3799 27.583C31.1093 27.7352 30.8892 27.9633 30.7467 28.2391C30.5839 28.5609 30.5041 28.9183 30.5144 29.2788Z" fill="#282828"/>
<path d="M41.9307 33.829H43.7619L40.4499 29.4551L43.5518 26.1658H41.7661L38.7126 29.4088H38.5826V22.4369H37.0915V33.829H38.5826V31.1101L39.3237 30.369L41.9307 33.829Z" fill="#282828"/>
</svg>
