<svg width="34" height="24" viewBox="0 0 34 24" fill="none" xmlns="http://www.w3.org/2000/svg">
<ellipse cx="17.1773" cy="12.5" rx="11.1773" ry="7.5" fill="#FCDB00"/>
<path fill-rule="evenodd" clip-rule="evenodd" d="M25.8907 15.9985C26.8162 14.9741 27.3487 13.773 27.3487 12.4888C27.3487 11.2046 26.8162 10.0035 25.8907 8.97913H8.48639C7.5609 10.0035 7.02832 11.2046 7.02832 12.4888C7.02832 13.773 7.5609 14.9741 8.48639 15.9985H25.8907Z" fill="#0C0E19"/>
<path fill-rule="evenodd" clip-rule="evenodd" d="M25.8907 8.97913H8.48639C10.2657 7.00965 13.4972 5.69299 17.1885 5.69299C20.8798 5.69299 24.1114 7.00965 25.8907 8.97913Z" fill="#007CC2"/>
<path fill-rule="evenodd" clip-rule="evenodd" d="M25.8907 15.9985C24.1114 17.968 20.8798 19.2847 17.1885 19.2847C13.4972 19.2847 10.2657 17.968 8.48639 15.9985H25.8907Z" fill="#DA251C"/>
<path fill-rule="evenodd" clip-rule="evenodd" d="M22.1205 10.9061C21.7163 11.2816 21.5142 11.8064 21.5142 12.4805C21.5142 12.963 21.6162 13.3648 21.8204 13.6859C22.0245 14.007 22.2903 14.2417 22.6177 14.39C22.9471 14.5384 23.3624 14.6125 23.8637 14.6125C24.3568 14.6125 24.7681 14.5271 25.0976 14.3562C25.429 14.1835 25.6817 13.9431 25.8555 13.6352C26.0313 13.3254 26.1192 12.9292 26.1192 12.4467C26.1192 11.782 25.9191 11.2656 25.519 10.8976C25.1188 10.5277 24.5488 10.3428 23.8091 10.3428C23.0876 10.3428 22.5247 10.5305 22.1205 10.9061ZM23.1361 13.3845C22.9704 13.2024 22.8875 12.9029 22.8875 12.4861C22.8875 12.0655 22.9714 11.7641 23.1391 11.582C23.3069 11.3999 23.5292 11.3088 23.8061 11.3088C24.0951 11.3088 24.3235 11.3989 24.4912 11.5792C24.661 11.7576 24.7459 12.0411 24.7459 12.4298C24.7459 12.8917 24.665 13.2118 24.5034 13.3902C24.3417 13.5686 24.1133 13.6577 23.8182 13.6577C23.5312 13.6577 23.3038 13.5667 23.1361 13.3845ZM21.2683 10.4881H17.0701V11.4842H18.4627V14.5231H19.8599V11.4842H21.2683V10.4881ZM9.85618 13.8646L9.63408 14.523H8.22748L9.88971 10.4993H11.421L13.0976 14.523H11.6334L11.421 13.8646H9.85618ZM11.1304 12.9806L10.6386 11.5388L10.158 12.9806H11.1304ZM13.511 10.4993H14.886V13.5075H17.0544V14.5231H13.511V10.4993Z" fill="white"/>
</svg>
