<svg width="58" height="40" viewBox="0 0 58 40" fill="none" xmlns="http://www.w3.org/2000/svg">
<ellipse cx="28.8644" cy="20" rx="20.8644" ry="14" fill="#FCDB00"/>
<path fill-rule="evenodd" clip-rule="evenodd" d="M45.1292 26.5306C46.8568 24.6183 47.851 22.3764 47.851 19.9791C47.851 17.5819 46.8568 15.34 45.1292 13.4277H12.6412C10.9137 15.34 9.91953 17.5819 9.91953 19.9791C9.91953 22.3764 10.9137 24.6183 12.6412 26.5306H45.1292Z" fill="#0C0E19"/>
<path fill-rule="evenodd" clip-rule="evenodd" d="M45.1292 13.4277H12.6413C15.9626 9.75135 21.9948 7.29358 28.8852 7.29358C35.7757 7.29358 41.8079 9.75135 45.1292 13.4277Z" fill="#007CC2"/>
<path fill-rule="evenodd" clip-rule="evenodd" d="M45.1292 26.5305C41.8079 30.2069 35.7757 32.6646 28.8852 32.6646C21.9948 32.6646 15.9626 30.2069 12.6413 26.5305H45.1292Z" fill="#DA251C"/>
<path fill-rule="evenodd" clip-rule="evenodd" d="M38.0916 17.0246C37.337 17.7256 36.9598 18.7052 36.9598 19.9635C36.9598 20.8643 37.1503 21.6143 37.5313 22.2137C37.9124 22.813 38.4085 23.2511 39.0197 23.528C39.6346 23.8049 40.4099 23.9433 41.3455 23.9433C42.2661 23.9433 43.0338 23.7839 43.6488 23.4649C44.2675 23.1425 44.7391 22.6938 45.0635 22.119C45.3918 21.5407 45.5559 20.8012 45.5559 19.9004C45.5559 18.6597 45.1824 17.6958 44.4354 17.0088C43.6884 16.3184 42.6245 15.9731 41.2437 15.9731C39.8968 15.9731 38.8461 16.3236 38.0916 17.0246ZM39.9874 21.6511C39.678 21.3111 39.5233 20.7521 39.5233 19.974C39.5233 19.1889 39.6799 18.6264 39.993 18.2864C40.3062 17.9464 40.7212 17.7764 41.238 17.7764C41.7775 17.7764 42.2038 17.9447 42.517 18.2811C42.8339 18.6141 42.9923 19.1433 42.9923 19.8689C42.9923 20.7311 42.8414 21.3287 42.5396 21.6616C42.2378 21.9946 41.8115 22.1611 41.2606 22.1611C40.7249 22.1611 40.3005 21.9911 39.9874 21.6511ZM36.5007 16.2445H28.6642V18.1039H31.2638V23.7764H33.8718V18.1039H36.5007V16.2445ZM18.1192 22.5471H15.1982L14.7836 23.7763H12.158L15.2608 16.2652H18.1192L21.2489 23.7763H18.5156L18.1192 22.5471ZM17.5767 20.8971L16.6587 18.2056L15.7615 20.8971H17.5767ZM22.0205 16.2652H24.5872V21.8806H28.6349V23.7764H22.0205V16.2652Z" fill="white"/>
</svg>
