<svg width="46" height="32" viewBox="0 0 46 32" fill="none" xmlns="http://www.w3.org/2000/svg">
<ellipse cx="23.3934" cy="16" rx="16.3934" ry="11" fill="#FCDB00"/>
<path fill-rule="evenodd" clip-rule="evenodd" d="M36.173 21.1311C37.5304 19.6287 38.3115 17.8671 38.3115 15.9836C38.3115 14.1001 37.5304 12.3385 36.173 10.8361H10.6467C9.28932 12.3385 8.50821 14.1001 8.50821 15.9836C8.50821 17.8671 9.28932 19.6287 10.6467 21.1311H36.173Z" fill="#0C0E19"/>
<path fill-rule="evenodd" clip-rule="evenodd" d="M36.173 10.836H10.6467C13.2563 7.94746 17.9959 6.01636 23.4098 6.01636C28.8238 6.01636 33.5634 7.94746 36.173 10.836Z" fill="#007CC2"/>
<path fill-rule="evenodd" clip-rule="evenodd" d="M36.173 21.1311C33.5634 24.0197 28.8238 25.9508 23.4098 25.9508C17.9959 25.9508 13.2563 24.0197 10.6467 21.1311H36.173Z" fill="#DA251C"/>
<path fill-rule="evenodd" clip-rule="evenodd" d="M30.6434 13.6622C30.0505 14.213 29.7541 14.9827 29.7541 15.9713C29.7541 16.6791 29.9038 17.2684 30.2032 17.7393C30.5026 18.2102 30.8924 18.5545 31.3726 18.772C31.8558 18.9896 32.4649 19.0984 33.2001 19.0984C33.9233 19.0984 34.5266 18.9731 35.0098 18.7225C35.4959 18.4691 35.8664 18.1166 36.1214 17.665C36.3792 17.2106 36.5082 16.6295 36.5082 15.9218C36.5082 14.9469 36.2147 14.1896 35.6278 13.6498C35.0409 13.1073 34.205 12.8361 33.12 12.8361C32.0618 12.8361 31.2362 13.1114 30.6434 13.6622ZM32.1329 17.2973C31.8899 17.0302 31.7683 16.591 31.7683 15.9796C31.7683 15.3627 31.8913 14.9207 32.1374 14.6536C32.3834 14.3865 32.7095 14.2529 33.1156 14.2529C33.5395 14.2529 33.8744 14.3851 34.1205 14.6495C34.3695 14.9111 34.494 15.3269 34.494 15.897C34.494 16.5744 34.3754 17.044 34.1383 17.3056C33.9011 17.5672 33.5662 17.698 33.1334 17.698C32.7124 17.698 32.379 17.5645 32.1329 17.2973ZM29.3934 13.0493H23.2362V14.5102H25.2787V18.9672H27.3279V14.5102H29.3934V13.0493ZM12.6557 18.0013L12.33 18.9671H10.267L12.7049 13.0656H14.9508L17.4098 18.9671H15.2623L14.9508 18.0013H12.6557ZM14.5246 16.7049L13.8033 14.5902L13.0984 16.7049H14.5246ZM18.0161 13.0656H20.0328V17.4776H23.2131V18.9672H18.0161V13.0656Z" fill="white"/>
</svg>
