<svg width="28" height="20" viewBox="0 0 28 20" fill="none" xmlns="http://www.w3.org/2000/svg">
<ellipse cx="13.9419" cy="10" rx="8.94188" ry="6" fill="#FCDB00"/>
<path fill-rule="evenodd" clip-rule="evenodd" d="M20.9125 12.7988C21.6529 11.9793 22.079 11.0185 22.079 9.9911C22.079 8.96371 21.6529 8.00288 20.9125 7.18335H6.98912C6.24873 8.00288 5.82266 8.96371 5.82266 9.9911C5.82266 11.0185 6.24873 11.9793 6.98912 12.7988H20.9125Z" fill="#0C0E19"/>
<path fill-rule="evenodd" clip-rule="evenodd" d="M20.9125 7.18336H6.98911C8.41254 5.60777 10.9978 4.55444 13.9508 4.55444C16.9039 4.55444 19.4891 5.60777 20.9125 7.18336Z" fill="#007CC2"/>
<path fill-rule="evenodd" clip-rule="evenodd" d="M20.9125 12.7988C19.4891 14.3744 16.9039 15.4277 13.9508 15.4277C10.9978 15.4277 8.41254 14.3744 6.98911 12.7988H20.9125Z" fill="#DA251C"/>
<path fill-rule="evenodd" clip-rule="evenodd" d="M17.8964 8.7248C17.573 9.02522 17.4113 9.44506 17.4113 9.98432C17.4113 10.3704 17.493 10.6918 17.6563 10.9487C17.8196 11.2055 18.0322 11.3933 18.2941 11.512C18.5577 11.6306 18.89 11.69 19.2909 11.69C19.6855 11.69 20.0145 11.6216 20.278 11.4849C20.5432 11.3467 20.7453 11.1545 20.8844 10.9081C21.025 10.6603 21.0954 10.3433 21.0954 9.95728C21.0954 9.42554 20.9353 9.01246 20.6152 8.71804C20.295 8.42213 19.8391 8.27417 19.2473 8.27417C18.6701 8.27417 18.2198 8.42438 17.8964 8.7248ZM18.7089 10.7076C18.5763 10.5619 18.51 10.3223 18.51 9.98883C18.51 9.65236 18.5771 9.41127 18.7113 9.26556C18.8455 9.11986 19.0234 9.04701 19.2449 9.04701C19.4761 9.04701 19.6588 9.11911 19.793 9.26331C19.9288 9.40601 19.9967 9.63283 19.9967 9.94377C19.9967 10.3133 19.932 10.5694 19.8027 10.7121C19.6733 10.8548 19.4906 10.9261 19.2546 10.9261C19.025 10.9261 18.8431 10.8533 18.7089 10.7076ZM17.2146 8.39047H13.8561V9.18733H14.9702V11.6184H16.0879V9.18733H17.2146V8.39047ZM8.08494 11.0916L7.90726 11.6184H6.78198L8.11177 8.39936H9.33681L10.6781 11.6184H9.5067L9.33681 11.0916H8.08494ZM9.10432 10.3845L8.71088 9.23095L8.32638 10.3845H9.10432ZM11.0088 8.39936H12.1088V10.8059H13.8435V11.6184H11.0088V8.39936Z" fill="white"/>
</svg>
