<svg width="58" height="40" viewBox="0 0 58 40" fill="none" xmlns="http://www.w3.org/2000/svg">
<path fill-rule="evenodd" clip-rule="evenodd" d="M45.4888 23.2469H46.8864H46.8877C47.0339 23.2498 47.1554 23.129 47.1608 22.9754V18.9029C47.1608 18.3914 47.1868 17.9294 47.3829 17.4675C47.5176 17.1161 47.8348 16.8796 48.1947 16.8621C49.0888 16.8621 49.0802 17.8919 49.0734 18.701C49.0729 18.7693 49.0723 18.8359 49.0723 18.9003V23.0093C49.0896 23.1412 49.1941 23.2411 49.3206 23.2469H50.7306C50.8643 23.2498 50.9795 23.1483 51 23.0093V18.2478C51 17.5158 51 16.4967 50.6338 15.8912C50.2379 15.2388 49.6247 15 48.9966 15C48.0284 15 47.4785 15.4932 47.0863 16.528H47.059V15.3706C47.0307 15.2496 46.9292 15.1632 46.8107 15.1592H45.5099C45.3724 15.1556 45.2553 15.2634 45.2405 15.4071V22.9754C45.2423 23.1205 45.3509 23.2393 45.4888 23.2469ZM44.1731 19.2774C44.1731 16.8895 43.0473 15.0104 40.9657 15.0104C38.9374 15.0104 37.8116 16.8581 37.8116 19.1978C37.8116 21.5374 38.9238 23.4165 40.9657 23.4165C42.9318 23.4165 44.1731 21.5857 44.1731 19.2774ZM39.8795 18.959C39.8795 18.0351 39.9453 16.5554 40.9793 16.5554C41.4237 16.5554 41.7377 16.7655 41.8953 17.2874C42.079 17.8916 42.1051 18.6563 42.1051 19.293C42.1051 20.2639 42.0642 21.8558 40.9656 21.8558C39.8791 21.8558 39.8794 19.9257 39.8795 18.9896L39.8795 18.959ZM13.6517 23.2625H15.0531H15.0543C15.1247 23.2642 15.1928 23.2364 15.2436 23.1852C15.2943 23.1341 15.3236 23.0637 15.3249 22.9897V18.9799L15.3249 18.9171C15.3243 18.0452 15.3236 16.8921 16.2931 16.8921C17.1894 16.8921 17.1756 17.9052 17.1644 18.7234L17.1644 18.7235C17.1632 18.8118 17.162 18.8977 17.162 18.9799V22.9911C17.1644 23.1359 17.2727 23.2543 17.4103 23.2625H18.8154C18.8855 23.2639 18.9533 23.2359 19.0038 23.1848C19.0543 23.1336 19.0834 23.0635 19.0847 22.9897V18.9799L19.0846 18.8845C19.0837 18.4597 19.0826 17.8863 19.2163 17.5301C19.3526 17.166 19.6821 16.9223 20.0541 16.9103C20.46 16.9103 20.7741 17.0539 20.8783 17.5628C20.9316 17.8077 20.9247 18.3755 20.9201 18.752V18.752L20.9201 18.7522C20.919 18.841 20.9181 18.9191 20.9181 18.9799V22.9911C20.9198 23.1362 21.0285 23.2549 21.1663 23.2625H22.5677C22.638 23.2642 22.7061 23.2364 22.7569 23.1852C22.8077 23.1341 22.837 23.0637 22.8383 22.9897V18.2152C22.8383 18.0988 22.8402 17.9798 22.8421 17.8596C22.8536 17.1466 22.8658 16.3878 22.4845 15.8429C22.0223 15.2249 21.279 14.9169 20.54 15.0372C19.8009 15.1576 19.1811 15.6875 18.9184 16.4236C18.5249 15.4671 17.9626 15.0222 17.0987 15.0222C16.2348 15.0222 15.593 15.4671 15.2529 16.4236H15.2269V15.4358C15.2195 15.295 15.1125 15.1826 14.9786 15.1748H13.6716C13.5272 15.1733 13.4082 15.2933 13.4035 15.4449V23.0132C13.4162 23.1494 13.5217 23.2554 13.6517 23.2625ZM11.2126 23.3199C11.1203 23.4041 10.9877 23.4182 10.8812 23.3551C10.484 23.0078 10.3643 22.82 10.1804 22.5316C10.1488 22.482 10.1153 22.4295 10.0781 22.3726C9.30728 23.1973 8.76236 23.4439 7.76563 23.4439C6.58519 23.4439 5.66666 22.6779 5.66666 21.146C5.66666 19.9494 6.28729 19.1365 7.15617 18.7372C7.79777 18.4412 8.65383 18.3493 9.39393 18.2699L9.39397 18.2699C9.53157 18.2551 9.66516 18.2408 9.79261 18.2257V18.0352C9.79261 17.9988 9.79289 17.9617 9.79318 17.9242C9.79563 17.5994 9.79836 17.2377 9.62256 16.9652C9.45127 16.6937 9.12606 16.5828 8.8356 16.5828C8.30062 16.5828 7.82397 16.8712 7.70729 17.4675C7.6925 17.6066 7.59068 17.718 7.45904 17.739L6.11103 17.5837C6.04376 17.5735 5.98339 17.5349 5.94398 17.4767C5.90457 17.4185 5.88958 17.3459 5.9025 17.2757C6.21405 15.5428 7.70357 15.0196 9.03793 15.0196C9.72062 15.0196 10.6118 15.2101 11.1481 15.7529C11.7776 16.3725 11.7737 17.1836 11.7694 18.0699C11.7691 18.1431 11.7687 18.2168 11.7687 18.2909V20.5862C11.7687 21.2044 11.9869 21.5119 12.2167 21.8357L12.2167 21.8358L12.2167 21.8358L12.2167 21.8358L12.2167 21.8358L12.2167 21.8358C12.244 21.8743 12.2715 21.9129 12.2987 21.9524C12.3881 22.0829 12.408 22.246 12.2987 22.3439C12.012 22.5957 11.5031 23.0602 11.2238 23.3225L11.2126 23.3199ZM9.7988 19.7263L9.79884 19.7977C9.79933 20.3405 9.79975 20.8007 9.53689 21.2921C9.31346 21.7071 8.9597 21.9628 8.56498 21.9628C8.02752 21.9628 7.71348 21.5322 7.71348 20.8928C7.71348 19.6375 8.78469 19.4092 9.7988 19.4092V19.7263ZM30.5948 21.8305L30.5949 21.8307C30.6222 21.8691 30.6496 21.9077 30.6769 21.9472C30.7712 22.0829 30.7911 22.2421 30.6707 22.3321C30.3839 22.584 29.875 23.0498 29.5957 23.3108C29.5029 23.3938 29.3707 23.4073 29.2643 23.3447C28.8655 22.9958 28.7473 22.8108 28.5608 22.5187C28.5296 22.4699 28.4966 22.4181 28.46 22.3621C27.6904 23.1868 27.1418 23.4334 26.1488 23.4334C24.9683 23.4334 24.0498 22.6675 24.0498 21.1368C24.0498 19.939 24.6667 19.126 25.5455 18.7267C26.1885 18.4296 27.0493 18.3382 27.7916 18.2594C27.9263 18.245 28.0571 18.2312 28.1819 18.2165V18.0299C28.1819 17.9937 28.1822 17.9569 28.1825 17.9195C28.1849 17.5946 28.1877 17.2328 28.0107 16.9612C27.8443 16.6898 27.5129 16.5776 27.2237 16.5776C26.6887 16.5776 26.2145 16.866 26.0966 17.4623C26.0814 17.6012 25.9798 17.7123 25.8484 17.7337L24.4892 17.5797C24.4214 17.57 24.3605 17.5313 24.3208 17.4727C24.2811 17.4142 24.2661 17.341 24.2794 17.2705C24.5922 15.5363 26.0817 15.0144 27.4161 15.0144C28.0975 15.0144 28.9888 15.2049 29.5262 15.7477C30.157 16.3641 30.1526 17.1688 30.1477 18.0507C30.1473 18.1284 30.1469 18.2068 30.1469 18.2857V20.5823C30.1469 21.1992 30.365 21.5065 30.5947 21.8303L30.5948 21.8305ZM26.9506 21.955C27.3441 21.955 27.6991 21.6992 27.9213 21.2856C28.185 20.7915 28.1848 20.3291 28.1844 19.7795L28.1844 19.721V19.4026C27.1703 19.4026 26.0991 19.6297 26.0991 20.8863C26.0991 21.5244 26.4131 21.955 26.9506 21.955ZM31.8635 15.4188V16.4967C31.8627 16.5706 31.8909 16.6416 31.9413 16.6932C31.9917 16.7447 32.0601 16.7723 32.1303 16.7694H34.5434L31.7766 20.945C31.6503 21.169 31.5906 21.4276 31.6053 21.6875V22.7901C31.6053 22.9493 31.7729 23.1307 31.933 23.0406C33.459 22.2089 35.2736 22.2054 36.8025 23.0315C36.9775 23.1268 37.1426 22.9428 37.1426 22.7836V21.6248C37.1379 21.4477 37.0431 21.2868 36.8943 21.2034C36.0887 20.7271 35.1516 20.5875 34.2653 20.6097L36.6535 17.0265C36.8757 16.7055 36.9998 16.5019 36.9998 16.3466V15.4188C37.0005 15.3451 36.9726 15.2743 36.9224 15.2228C36.8723 15.1713 36.8043 15.1436 36.7342 15.1461H32.1254C32.0552 15.142 31.9867 15.1693 31.9367 15.2213C31.8868 15.2733 31.8602 15.3451 31.8635 15.4188Z" fill="#0C0E19"/>
<path fill-rule="evenodd" clip-rule="evenodd" d="M34.1685 28.0749C34.4875 27.241 35.1975 25.3725 34.8599 24.9197H34.8624C34.5262 24.4659 32.6395 24.704 31.7908 24.8111L31.789 24.8114C31.5308 24.844 31.4911 24.6078 31.7232 24.4369C33.2301 23.3238 35.699 23.6422 35.9857 24.018C36.2725 24.3938 35.9075 26.9957 34.4962 28.238C34.279 28.4285 34.0717 28.3267 34.1685 28.0749ZM24.0286 29.3615C27.3105 29.3615 31.1324 28.2719 33.7651 26.2298V26.2337C34.2008 25.8892 33.8272 25.3829 33.3828 25.5813C30.5091 26.8555 27.4243 27.5207 24.3054 27.5386C19.9784 27.5386 15.7928 26.2911 12.4067 24.2203C12.11 24.0389 11.8891 24.3586 12.1373 24.5922C15.3973 27.6841 19.638 29.385 24.0286 29.3615Z" fill="#FF9900"/>
</svg>
