<svg width="28" height="20" viewBox="0 0 28 20" fill="none" xmlns="http://www.w3.org/2000/svg">
<path fill-rule="evenodd" clip-rule="evenodd" d="M22.4768 11.6234H23.1674H23.168C23.2403 11.6249 23.3003 11.5645 23.303 11.4877V9.45144C23.303 9.19569 23.3158 8.96472 23.4127 8.73376C23.4793 8.55807 23.636 8.43978 23.8139 8.43103C24.2556 8.43103 24.2514 8.94597 24.248 9.35051C24.2478 9.38463 24.2475 9.41797 24.2475 9.45014V11.5047C24.256 11.5706 24.3077 11.6206 24.3701 11.6234H25.0669C25.133 11.6249 25.1899 11.5741 25.2 11.5047V9.12392C25.2 8.7579 25.2 8.24835 25.0191 7.94562C24.8234 7.6194 24.5204 7.5 24.2101 7.5C23.7317 7.5 23.46 7.74662 23.2662 8.26401H23.2527V7.68529C23.2387 7.62479 23.1885 7.5816 23.13 7.5796H22.4872C22.4193 7.57782 22.3615 7.63171 22.3541 7.70356V11.4877C22.355 11.5603 22.4087 11.6196 22.4768 11.6234ZM21.8267 9.63869C21.8267 8.44473 21.2704 7.50522 20.2418 7.50522C19.2397 7.50522 18.6834 8.42907 18.6834 9.5989C18.6834 10.7687 19.2329 11.7082 20.2418 11.7082C21.2134 11.7082 21.8267 10.7929 21.8267 9.63869ZM19.7052 9.4795C19.7052 9.01757 19.7377 8.27771 20.2486 8.27771C20.4682 8.27771 20.6233 8.38275 20.7012 8.64372C20.792 8.9458 20.8049 9.32813 20.8049 9.64652C20.8049 10.1319 20.7846 10.9279 20.2418 10.9279C19.705 10.9279 19.7051 9.96284 19.7052 9.49481L19.7052 9.4795ZM6.74554 11.6313H7.43799H7.43861C7.47336 11.6321 7.50701 11.6182 7.5321 11.5926C7.5572 11.567 7.57167 11.5318 7.57231 11.4949V9.48993L7.5723 9.45855C7.57201 9.0226 7.57164 8.44603 8.05071 8.44603C8.4936 8.44603 8.48675 8.95262 8.48122 9.36171V9.36173V9.36175V9.36177V9.36178C8.48062 9.40589 8.48004 9.44885 8.48004 9.48993V11.4955C8.48122 11.568 8.53472 11.6271 8.60271 11.6313H9.297C9.33165 11.6319 9.36514 11.618 9.3901 11.5924C9.41506 11.5668 9.42944 11.5317 9.43009 11.4949V9.48993L9.43002 9.44226C9.42961 9.22984 9.42904 8.94317 9.4951 8.76507C9.56245 8.58302 9.72527 8.46114 9.9091 8.45516C10.1097 8.45516 10.2648 8.52693 10.3163 8.78138C10.3426 8.90384 10.3392 9.18773 10.337 9.37599V9.376V9.376V9.37603V9.37606V9.37608V9.37611C10.3364 9.42049 10.336 9.45956 10.336 9.48993V11.4955C10.3369 11.5681 10.3905 11.6275 10.4586 11.6313H11.1511C11.1858 11.6321 11.2195 11.6182 11.2446 11.5926C11.2697 11.567 11.2842 11.5318 11.2848 11.4949V9.1076C11.2848 9.0494 11.2857 8.98992 11.2867 8.92978C11.2924 8.57333 11.2984 8.1939 11.11 7.92147C10.8816 7.61245 10.5143 7.45845 10.1492 7.51862C9.78399 7.57879 9.4777 7.84376 9.3479 8.2118C9.15348 7.73357 8.87564 7.51108 8.44876 7.51108C8.02188 7.51108 7.70479 7.73357 7.53674 8.2118H7.52386V7.71791C7.52021 7.64751 7.46737 7.5913 7.40119 7.58742H6.75536C6.68404 7.58667 6.62521 7.64664 6.62288 7.72247V11.5066C6.62916 11.5747 6.68131 11.6277 6.74554 11.6313ZM5.54034 11.66C5.49474 11.702 5.42919 11.7091 5.37659 11.6776C5.18034 11.5039 5.12118 11.41 5.03032 11.2658C5.01469 11.241 4.99813 11.2147 4.97976 11.1863C4.59888 11.5986 4.32963 11.7219 3.83713 11.7219C3.25385 11.7219 2.79999 11.339 2.79999 10.573C2.79999 9.97471 3.10665 9.56824 3.53598 9.36859C3.85301 9.22061 4.276 9.17467 4.6417 9.13496C4.7097 9.12758 4.77571 9.12041 4.8387 9.11284V9.01758L4.83897 8.9621C4.84019 8.79968 4.84154 8.61885 4.75467 8.48258C4.67003 8.34688 4.50934 8.29142 4.36582 8.29142C4.10147 8.29142 3.86595 8.43561 3.8083 8.73377C3.801 8.80332 3.75068 8.85899 3.68564 8.86948L3.01956 8.79184C2.98632 8.78678 2.95649 8.76744 2.93702 8.73834C2.91755 8.70925 2.91014 8.67293 2.91652 8.63786C3.07047 7.77142 3.80646 7.5098 4.46579 7.5098C4.80312 7.5098 5.24349 7.60505 5.50845 7.87647C5.81949 8.18625 5.81757 8.59178 5.81546 9.03496C5.81529 9.07155 5.81512 9.10839 5.81512 9.14546V10.2931C5.81512 10.6022 5.92292 10.7559 6.03647 10.9179C6.04996 10.9371 6.06353 10.9565 6.07701 10.9762C6.12117 11.0414 6.13098 11.123 6.07701 11.1719C5.93533 11.2979 5.68386 11.5301 5.54586 11.6613L5.54034 11.66ZM4.84175 9.86313L4.84177 9.89886C4.84202 10.1702 4.84222 10.4004 4.71234 10.6461C4.60194 10.8535 4.42714 10.9814 4.2321 10.9814C3.96653 10.9814 3.81136 10.7661 3.81136 10.4464C3.81136 9.81877 4.34066 9.70459 4.84175 9.70459V9.86313ZM15.1174 10.9152C15.1309 10.9344 15.1445 10.9538 15.158 10.9736C15.2046 11.0414 15.2144 11.121 15.1549 11.1661C15.0132 11.292 14.7618 11.5249 14.6238 11.6554C14.5779 11.6969 14.5126 11.7036 14.46 11.6723C14.2629 11.4979 14.2046 11.4054 14.1124 11.2593L14.1124 11.2593C14.097 11.2349 14.0806 11.2091 14.0626 11.1811C13.6823 11.5934 13.4112 11.7167 12.9206 11.7167C12.3373 11.7167 11.8834 11.3337 11.8834 10.5684C11.8834 9.96948 12.1882 9.56301 12.6225 9.36337C12.9402 9.21482 13.3656 9.1691 13.7323 9.12968C13.7989 9.12252 13.8635 9.11558 13.9252 9.10826V9.01497L13.9255 8.95976C13.9267 8.79727 13.928 8.61638 13.8406 8.48062C13.7584 8.34491 13.5946 8.2888 13.4517 8.2888C13.1874 8.2888 12.9531 8.43299 12.8948 8.73116C12.8873 8.80061 12.8371 8.85616 12.7721 8.86686L12.1005 8.78987C12.0671 8.78499 12.037 8.76563 12.0173 8.73636C11.9977 8.70709 11.9903 8.67051 11.9969 8.63525C12.1514 7.76816 12.8874 7.50718 13.5468 7.50718C13.8835 7.50718 14.3239 7.60244 14.5894 7.87385C14.9011 8.18203 14.8989 8.58442 14.8965 9.02534V9.02549V9.02564V9.02579V9.02594C14.8963 9.06463 14.8961 9.10361 14.8961 9.14284V10.2911C14.8961 10.5996 15.0039 10.7533 15.1174 10.9152ZM13.3168 10.9775C13.5112 10.9775 13.6866 10.8496 13.7964 10.6428C13.9267 10.3958 13.9266 10.1645 13.9264 9.88977L13.9264 9.86052V9.70132C13.4253 9.70132 12.896 9.81484 12.896 10.4431C12.896 10.7622 13.0512 10.9775 13.3168 10.9775ZM15.7443 7.70942V8.24834C15.7439 8.2853 15.7578 8.32081 15.7828 8.34658C15.8077 8.37235 15.8414 8.38613 15.8762 8.3847H17.0685L15.7014 10.4725C15.639 10.5845 15.6095 10.7138 15.6167 10.8437V11.395C15.6167 11.4746 15.6995 11.5653 15.7786 11.5203C16.5327 11.1044 17.4293 11.1027 18.1847 11.5157C18.2712 11.5634 18.3528 11.4714 18.3528 11.3918V10.8124C18.3505 10.7238 18.3036 10.6434 18.2301 10.6017C17.8321 10.3635 17.369 10.2937 16.9311 10.3048L18.1111 8.51323C18.2209 8.35273 18.2823 8.25095 18.2823 8.17331V7.70942C18.2826 7.67257 18.2688 7.63717 18.244 7.61142C18.2192 7.58567 18.1856 7.57182 18.151 7.57306H15.8737C15.839 7.57099 15.8052 7.58465 15.7805 7.61064C15.7558 7.63663 15.7427 7.67253 15.7443 7.70942Z" fill="#0C0E19"/>
<path fill-rule="evenodd" clip-rule="evenodd" d="M16.8833 14.0374C17.0409 13.6205 17.3917 12.6862 17.2249 12.4598H17.2261C17.06 12.2329 16.1277 12.352 15.7084 12.4056L15.7075 12.4057C15.5799 12.422 15.5603 12.3039 15.675 12.2184C16.4196 11.6619 17.6395 11.8211 17.7812 12.009C17.9229 12.1969 17.7425 13.4979 17.0452 14.119C16.9379 14.2142 16.8354 14.1633 16.8833 14.0374ZM11.873 14.6807C13.4946 14.6807 15.3831 14.136 16.6839 13.1149V13.1168C16.8992 12.9446 16.7146 12.6915 16.495 12.7906C15.0751 13.4278 13.5508 13.7603 12.0097 13.7693C9.87168 13.7693 7.80353 13.1456 6.13036 12.1101C5.98378 12.0194 5.87461 12.1793 5.99727 12.2961C7.60806 13.8421 9.70349 14.6925 11.873 14.6807Z" fill="#FF9900"/>
</svg>
