<svg width="46" height="32" viewBox="0 0 46 32" fill="none" xmlns="http://www.w3.org/2000/svg">
<rect width="46" height="32" rx="4" fill="#1F72CD"/>
<path fill-rule="evenodd" clip-rule="evenodd" d="M8.12719 11.3334L3.88571 20.9957H8.96336L9.59284 19.4551H11.0317L11.6612 20.9957H17.2502V19.8199L17.7483 20.9957H20.6394L21.1374 19.795V20.9957H32.7611L34.1745 19.4951L35.4979 20.9957L41.4681 21.0081L37.2133 16.1915L41.4681 11.3334H35.5905L34.2147 12.8062L32.9329 11.3334H20.2878L19.202 13.8273L18.0907 11.3334H13.0236V12.4692L12.4599 11.3334H8.12719ZM9.10969 12.7054H11.5848L14.3981 19.2575V12.7054H17.1095L19.2825 17.4032L21.2852 12.7054H23.983V19.6388H22.3414L22.328 14.2059L19.9348 19.6388H18.4664L16.0597 14.2059V19.6388H12.6827L12.0425 18.0844H8.58355L7.94465 19.6374H6.13527L9.10969 12.7054ZM32.1597 12.7054H25.4848V19.6347H32.0564L34.1745 17.3382L36.216 19.6347H38.3502L35.2483 16.1902L38.3502 12.7054H36.3086L34.2013 14.9755L32.1597 12.7054ZM10.3137 13.8785L9.17416 16.6475H11.452L10.3137 13.8785ZM27.1332 15.4067V14.141V14.1398H31.2981L33.1155 16.1639L31.2176 18.1991H27.1332V16.8174H30.7746V15.4067H27.1332Z" fill="white"/>
</svg>
