<svg width="28" height="20" viewBox="0 0 28 20" fill="none" xmlns="http://www.w3.org/2000/svg">
<rect width="28" height="20" rx="4" fill="#1F72CD"/>
<path fill-rule="evenodd" clip-rule="evenodd" d="M5.01973 7.08337L2.39999 13.1223H5.53619L5.92498 12.1595H6.81369L7.20248 13.1223H10.6546V12.3874L10.9622 13.1223H12.7478L13.0554 12.3719V13.1223H20.2348L21.1078 12.1845L21.9252 13.1223L25.6127 13.1301L22.9847 10.1197L25.6127 7.08337H21.9824L21.1326 8.0039L20.3409 7.08337H12.5307L11.86 8.64208L11.1736 7.08337H8.044V7.79325L7.69584 7.08337H5.01973ZM5.62657 7.94091H7.1553L8.89297 12.036V7.94091H10.5676L11.9098 10.877L13.1467 7.94091H14.813V12.2743H13.7991L13.7908 8.87868L12.3127 12.2743H11.4057L9.91924 8.87868V12.2743H7.83342L7.43798 11.3028H5.3016L4.90699 12.2734H3.78943L5.62657 7.94091ZM19.8634 7.94091H15.7406V12.2717H19.7995L21.1078 10.8364L22.3687 12.2717H23.6869L21.771 10.1189L23.6869 7.94091H22.4259L21.1243 9.35973L19.8634 7.94091ZM6.37024 8.67409L5.66639 10.4047H7.07328L6.37024 8.67409ZM16.7587 9.62918V8.83813V8.83737H19.3312L20.4537 10.1025L19.2815 11.3745H16.7587V10.5109H19.0079V9.62918H16.7587Z" fill="white"/>
</svg>
