<svg width="58" height="40" viewBox="0 0 58 40" fill="none" xmlns="http://www.w3.org/2000/svg">
<rect width="58" height="40" rx="6" fill="#1F72CD"/>
<path fill-rule="evenodd" clip-rule="evenodd" d="M10.159 14.1666L4.85715 26.2445H11.2042L11.9911 24.3188H13.7896L14.5765 26.2445H21.5628V24.7748L22.1853 26.2445H25.7992L26.4217 24.7437V26.2445H40.9514L42.7181 24.3688L44.3724 26.2445L51.8352 26.2601L46.5166 20.2393L51.8352 14.1666H44.4882L42.7684 16.0077L41.1661 14.1666H25.3598L24.0025 17.284L22.6133 14.1666H16.2795V15.5864L15.5749 14.1666H10.159ZM11.3871 15.8817H14.481L17.9977 24.0718V15.8817H21.3869L24.1031 21.754L26.6065 15.8817H29.9787V24.5484H27.9268L27.91 17.7572L24.9185 24.5484H23.083L20.0747 17.7572V24.5484H15.8534L15.0531 22.6054H10.7294L9.93082 24.5467H7.66909L11.3871 15.8817ZM40.1997 15.8817H31.8561V24.5433H40.0705L42.7181 21.6727L45.2701 24.5433H47.9377L44.0603 20.2376L47.9377 15.8817H45.3858L42.7516 18.7193L40.1997 15.8817ZM12.8922 17.3481L11.4677 20.8093H14.315L12.8922 17.3481ZM33.9165 19.2582V17.6761V17.6746H39.1227L41.3943 20.2048L39.022 22.7488H33.9165V21.0216H38.4683V19.2582H33.9165Z" fill="white"/>
</svg>
