<svg width="34" height="24" viewBox="0 0 34 24" fill="none" xmlns="http://www.w3.org/2000/svg">
<path fill-rule="evenodd" clip-rule="evenodd" d="M25.7541 11.1827C25.7541 10.7236 25.3891 10.3514 24.9259 10.3514C24.4627 10.3514 24.0978 10.7236 24.0978 11.1827C24.0978 11.3581 24.1528 11.5206 24.2465 11.6548C24.2838 11.7209 24.3247 11.7788 24.3626 11.8326C24.4195 11.9132 24.4697 11.9843 24.4913 12.0593C24.546 12.2488 24.4881 12.3759 24.3951 12.4138C24.2747 12.4629 24.0857 12.3792 24.0857 12.3792C23.2335 12.0494 22.6298 11.2281 22.6298 10.2667C22.6298 9.01486 23.6626 8 24.9259 8C26.1892 8 27.222 9.01486 27.222 10.2667C27.222 11.2281 26.6184 12.0494 25.7661 12.3792C25.7661 12.3792 25.5771 12.4629 25.4569 12.4138C25.3637 12.3759 25.3059 12.2488 25.3606 12.0593C25.3821 11.9844 25.4323 11.9133 25.4891 11.8327C25.5271 11.7789 25.568 11.7209 25.6053 11.6548C25.699 11.5206 25.7541 11.3581 25.7541 11.1827ZM23.3701 15.8184C23.8 15.5544 23.9249 14.9597 23.9249 14.4188C23.9249 13.2833 22.9959 12.3626 21.85 12.3626C21.4145 12.3626 21.0202 12.4298 20.7462 12.671C20.5301 12.8611 20.6084 13.0627 20.7424 13.2136L22.866 15.7496C22.866 15.7496 23.0626 16.0075 23.3701 15.8184ZM26.4817 15.8184C26.0518 15.5544 25.9269 14.9597 25.9269 14.4188C25.9269 13.2833 26.8559 12.3626 28.0019 12.3626C28.4373 12.3626 28.8316 12.4298 29.1057 12.671C29.3217 12.8611 29.2433 13.0627 29.1094 13.2136L26.9858 15.7496C26.9858 15.7496 26.7893 16.0075 26.4817 15.8184Z" fill="#169CD4"/>
<path fill-rule="evenodd" clip-rule="evenodd" d="M9.38558 13.1504L8.96517 10.9077C8.89425 10.6056 8.58292 10.6231 8.58292 10.6231L7.89412 10.6469C7.16718 10.6712 6.70246 11.4028 6.70246 11.4028L5.5807 13.1504H9.38558ZM17.6649 12.1241H15.853C15.7293 12.1241 15.6275 12.0319 15.6135 11.9131H15.6116V11.8848V11.2666V10.8587C15.6116 10.7266 15.7197 10.6231 15.853 10.6231H19.9385C20.0716 10.6231 20.1797 10.7266 20.1797 10.8587V11.5039C20.1797 11.5039 20.1991 11.7813 19.9386 12.0396L19.098 13.1504H16.8858C17.1908 12.7481 17.4809 12.3662 17.6318 12.1677L17.6649 12.1241ZM18.0446 14.5423H19.9385C20.0669 14.5423 20.1716 14.6419 20.1789 14.7674L20.1797 14.7673V15.7796C20.1797 15.9115 20.0716 15.9985 19.9385 15.9985H15.853C15.7197 15.9985 15.6116 15.9115 15.6116 15.7796V15.0344C15.6116 15.0344 15.64 14.8094 15.8244 14.5564C15.9024 14.4494 16.2574 13.9799 16.6407 13.4738H18.8532L18.0446 14.5423ZM7.97924 15.6531L7.61171 13.4736H9.4466L9.87831 15.7482C9.87831 15.7482 9.97082 15.9984 9.71545 15.9984H8.43322C8.43322 15.9984 8.05199 16.0147 7.97924 15.6531ZM5.37587 13.4736L4.12049 15.4561C3.79419 15.9622 4.23401 15.9984 4.23401 15.9984H5.62428C5.82289 16.0265 6.04994 15.681 6.04994 15.681L7.40789 13.4736H5.37587ZM13.4836 13.1504L13.6822 13.4738H15.1009V15.7514C15.1009 15.8834 14.993 15.9985 14.8596 15.9985H13.6115C13.3893 16.0076 13.2207 15.8428 13.0865 15.639L11.9374 13.6708V15.7515C11.9374 15.8836 11.8293 15.9985 11.6961 15.9985H10.4904C10.3571 15.9985 10.2491 15.8834 10.2491 15.7514V13.4737H11.8381L11.6395 13.1504H10.2491V10.8587C10.2491 10.7267 10.3571 10.6231 10.4904 10.6231H11.6961C11.9239 10.6231 12.1572 10.7672 12.2919 11.0273C12.3663 11.1708 13.3703 12.9246 13.3703 12.9246V10.8728C13.3703 10.7407 13.4782 10.6231 13.6115 10.6231H14.8596C14.993 10.6231 15.1009 10.7267 15.1009 10.8587V13.1504H13.4836Z" fill="#169CD4"/>
</svg>
