<svg width="58" height="40" viewBox="0 0 58 40" fill="none" xmlns="http://www.w3.org/2000/svg">
<path fill-rule="evenodd" clip-rule="evenodd" d="M45.0698 18.5697C45.0698 17.7662 44.431 17.1149 43.6203 17.1149C42.8097 17.1149 42.1711 17.7662 42.1711 18.5697C42.1711 18.8767 42.2674 19.1611 42.4313 19.3959C42.4967 19.5115 42.5683 19.6129 42.6346 19.707C42.7342 19.8481 42.8221 19.9726 42.8598 20.1038C42.9556 20.4354 42.8542 20.6578 42.6913 20.7242C42.4807 20.8102 42.1499 20.6636 42.1499 20.6636C40.6587 20.0864 39.6022 18.6491 39.6022 16.9668C39.6022 14.776 41.4096 13 43.6203 13C45.831 13 47.6384 14.776 47.6384 16.9668C47.6384 18.6491 46.5821 20.0864 45.0907 20.6636C45.0907 20.6636 44.76 20.8102 44.5495 20.7242C44.3864 20.6578 44.2853 20.4354 44.381 20.1038C44.4186 19.9726 44.5065 19.8482 44.606 19.7072C44.6724 19.6131 44.744 19.5116 44.8093 19.3959C44.9732 19.1611 45.0698 18.8767 45.0698 18.5697ZM40.8977 26.6822C41.65 26.2201 41.8685 25.1794 41.8685 24.233C41.8685 22.2458 40.2428 20.6346 38.2375 20.6346C37.4754 20.6346 36.7853 20.7521 36.3058 21.1742C35.9277 21.507 36.0648 21.8598 36.2992 22.1238L40.0155 26.5618C40.0155 26.5618 40.3595 27.013 40.8977 26.6822ZM46.3429 26.6822C45.5906 26.2201 45.3721 25.1794 45.3721 24.233C45.3721 22.2458 46.9979 20.6346 49.0033 20.6346C49.7652 20.6346 50.4553 20.7521 50.935 21.1742C51.313 21.507 51.1759 21.8598 50.9414 22.1238L47.2251 26.5618C47.2251 26.5618 46.8813 27.013 46.3429 26.6822Z" fill="#169CD4"/>
<path fill-rule="evenodd" clip-rule="evenodd" d="M16.4248 22.0132L15.6891 18.0884C15.5649 17.5597 15.0201 17.5904 15.0201 17.5904L13.8147 17.632C12.5426 17.6746 11.7293 18.9548 11.7293 18.9548L9.76622 22.0132H16.4248ZM30.9136 20.2171H27.7427C27.5262 20.2171 27.3482 20.0559 27.3236 19.8479H27.3204V19.7984V18.7164V18.0028C27.3204 17.7716 27.5095 17.5903 27.7427 17.5903H34.8923C35.1254 17.5903 35.3144 17.7716 35.3144 18.0028V19.1318C35.3144 19.1318 35.3484 19.6173 34.8925 20.0693L33.4215 22.0131H29.5501C30.0842 21.3088 30.5921 20.6402 30.856 20.2929L30.9136 20.2171ZM31.5781 24.449H34.8923C35.1172 24.449 35.3002 24.6233 35.313 24.843L35.3144 24.8428V26.6142C35.3144 26.8452 35.1254 26.9973 34.8923 26.9973H27.7427C27.5095 26.9973 27.3204 26.8452 27.3204 26.6142V25.3102C27.3204 25.3102 27.37 24.9165 27.6927 24.4737C27.8292 24.2864 28.4504 23.4647 29.1212 22.5791H32.9932L31.5781 24.449ZM13.9637 26.3929L13.3205 22.5788H16.5316L17.287 26.5593C17.287 26.5593 17.4489 26.9972 17.002 26.9972H14.7581C14.7581 26.9972 14.091 27.0257 13.9637 26.3929ZM9.40778 22.5788L7.21085 26.0482C6.63983 26.9338 7.40952 26.9972 7.40952 26.9972H9.84249C10.1901 27.0463 10.5874 26.4418 10.5874 26.4418L12.9638 22.5788H9.40778ZM23.5963 22.0132L23.9438 22.5791H26.4266V26.5649C26.4266 26.7958 26.2377 26.9973 26.0043 26.9973H23.8201C23.4312 27.0133 23.1362 26.7249 22.9013 26.3682L20.8905 22.9239V26.5651C20.8905 26.7962 20.7012 26.9973 20.4682 26.9973H18.3582C18.1249 26.9973 17.9359 26.7958 17.9359 26.5649V22.5789H20.7166L20.369 22.0132H17.9359V18.0026C17.9359 17.7716 18.1249 17.5904 18.3582 17.5904H20.4682C20.8669 17.5904 21.275 17.8426 21.5109 18.2978C21.641 18.5489 23.398 21.618 23.398 21.618V18.0274C23.398 17.7962 23.5869 17.5904 23.8201 17.5904H26.0043C26.2377 17.5904 26.4266 17.7716 26.4266 18.0026V22.0132H23.5963Z" fill="#169CD4"/>
</svg>
