<svg width="46" height="32" viewBox="0 0 46 32" fill="none" xmlns="http://www.w3.org/2000/svg">
<path fill-rule="evenodd" clip-rule="evenodd" d="M36.6312 13.774C36.6312 13.0853 36.0837 12.5271 35.3888 12.5271C34.694 12.5271 34.1466 13.0853 34.1466 13.774C34.1466 14.0372 34.2292 14.281 34.3697 14.4822C34.4257 14.5813 34.4871 14.6682 34.544 14.7488C34.6293 14.8698 34.7046 14.9765 34.737 15.089C34.8191 15.3732 34.7322 15.5639 34.5926 15.6207C34.412 15.6944 34.1285 15.5688 34.1285 15.5688C32.8503 15.074 31.9448 13.8421 31.9448 12.4001C31.9448 10.5223 33.4939 9 35.3888 9C37.2837 9 38.8329 10.5223 38.8329 12.4001C38.8329 13.8421 37.9275 15.074 36.6492 15.5688C36.6492 15.5688 36.3657 15.6944 36.1853 15.6207C36.0455 15.5639 35.9588 15.3732 36.0409 15.089C36.0731 14.9766 36.1484 14.8699 36.2337 14.749C36.2906 14.6684 36.352 14.5814 36.408 14.4822C36.5485 14.281 36.6312 14.0372 36.6312 13.774ZM33.0552 20.7276C33.7 20.3315 33.8873 19.4395 33.8873 18.6283C33.8873 16.925 32.4938 15.544 30.775 15.544C30.1218 15.544 29.5303 15.6446 29.1193 16.0065C28.7951 16.2917 28.9127 16.5941 29.1136 16.8204L32.299 20.6244C32.299 20.6244 32.5939 21.0112 33.0552 20.7276ZM37.7225 20.7276C37.0777 20.3315 36.8904 19.4395 36.8904 18.6283C36.8904 16.925 38.2839 15.544 40.0028 15.544C40.6559 15.544 41.2474 15.6446 41.6586 16.0065C41.9825 16.2917 41.865 16.5941 41.6641 16.8204L38.4787 20.6244C38.4787 20.6244 38.184 21.0112 37.7225 20.7276Z" fill="#169CD4"/>
<path fill-rule="evenodd" clip-rule="evenodd" d="M12.0784 16.7256L11.4478 13.3614C11.3414 12.9083 10.8744 12.9346 10.8744 12.9346L9.84118 12.9703C8.75077 13.0068 8.05369 14.1041 8.05369 14.1041L6.37105 16.7256H12.0784ZM24.4974 15.1861H21.7795C21.5939 15.1861 21.4413 15.0479 21.4202 14.8696H21.4175V14.8271V13.8998V13.288C21.4175 13.0899 21.5795 12.9345 21.7795 12.9345H27.9077C28.1074 12.9345 28.2695 13.0899 28.2695 13.288V14.2558C28.2695 14.2558 28.2986 14.6719 27.9079 15.0594L26.647 16.7255H23.3286C23.782 16.1276 24.2134 15.5599 24.4414 15.2597L24.4446 15.2555L24.4458 15.2539L24.4974 15.1861ZM25.067 18.8134H27.9077C28.1004 18.8134 28.2573 18.9628 28.2683 19.1511L28.2695 19.1509V20.6693C28.2695 20.8673 28.1074 20.9977 27.9077 20.9977H21.7795C21.5795 20.9977 21.4175 20.8673 21.4175 20.6693V19.5516C21.4175 19.5516 21.46 19.2141 21.7366 18.8346C21.8536 18.674 22.3861 17.9697 22.961 17.2106H26.2799L25.067 18.8134ZM9.96886 20.4796L9.41757 17.2104H12.1699L12.8175 20.6222C12.8175 20.6222 12.9562 20.9976 12.5732 20.9976H10.6498C10.6498 20.9976 10.078 21.022 9.96886 20.4796ZM6.06381 17.2104L4.18073 20.1841C3.69129 20.9432 4.35102 20.9976 4.35102 20.9976H6.43642C6.73433 21.0397 7.07491 20.5215 7.07491 20.5215L9.11183 17.2104H6.06381ZM18.2254 16.7255L18.5233 17.2106H20.6514V20.627C20.6514 20.825 20.4895 20.9977 20.2894 20.9977H18.4173C18.0839 21.0114 17.831 20.7642 17.6297 20.4584L15.9061 17.5062V20.6272C15.9061 20.8253 15.7439 20.9977 15.5441 20.9977H13.7356C13.5357 20.9977 13.3736 20.825 13.3736 20.627V17.2104H15.7571L15.4592 16.7255H13.3736V13.2879C13.3736 13.0899 13.5357 12.9346 13.7356 12.9346H15.5441C15.8859 12.9346 16.2357 13.1507 16.4379 13.5409C16.5494 13.7562 18.0554 16.3868 18.0554 16.3868V13.3091C18.0554 13.111 18.2173 12.9346 18.4173 12.9346H20.2894C20.4895 12.9346 20.6514 13.0899 20.6514 13.2879V16.7255H18.2254Z" fill="#169CD4"/>
</svg>
