<svg width="28" height="20" viewBox="0 0 28 20" fill="none" xmlns="http://www.w3.org/2000/svg">
<path fill-rule="evenodd" clip-rule="evenodd" d="M21.3156 9.387C21.3156 9.04267 21.0418 8.76355 20.6944 8.76355C20.347 8.76355 20.0733 9.04267 20.0733 9.387C20.0733 9.51858 20.1146 9.64048 20.1849 9.74108C20.2129 9.79065 20.2435 9.83411 20.272 9.87441C20.3147 9.93488 20.3523 9.98825 20.3685 10.0445C20.4095 10.1866 20.3661 10.2819 20.2963 10.3104C20.206 10.3472 20.0642 10.2844 20.0642 10.2844C19.4252 10.037 18.9724 9.42104 18.9724 8.70005C18.9724 7.76114 19.747 7 20.6944 7C21.6419 7 22.4165 7.76114 22.4165 8.70005C22.4165 9.42104 21.9638 10.037 21.3246 10.2844C21.3246 10.2844 21.1828 10.3472 21.0926 10.3104C21.0227 10.2819 20.9794 10.1866 21.0204 10.0445C21.0366 9.98828 21.0742 9.93494 21.1168 9.87451C21.1453 9.83418 21.176 9.79069 21.204 9.74108C21.2742 9.64048 21.3156 9.51858 21.3156 9.387ZM19.5276 12.8638C19.85 12.6658 19.9436 12.2197 19.9436 11.8141C19.9436 10.9625 19.2469 10.272 18.3875 10.272C18.0609 10.272 17.7651 10.3223 17.5596 10.5032C17.3976 10.6458 17.4563 10.797 17.5568 10.9102L19.1495 12.8122C19.1495 12.8122 19.2969 13.0056 19.5276 12.8638ZM21.8612 12.8638C21.5388 12.6658 21.4452 12.2197 21.4452 11.8141C21.4452 10.9625 22.1419 10.272 23.0014 10.272C23.3279 10.272 23.6237 10.3223 23.8293 10.5032C23.9913 10.6458 23.9325 10.797 23.832 10.9102L22.2393 12.8122C22.2393 12.8122 22.092 13.0056 21.8612 12.8638Z" fill="#169CD4"/>
<path fill-rule="evenodd" clip-rule="evenodd" d="M9.03918 10.8628L8.72388 9.18072C8.67069 8.95415 8.43719 8.96731 8.43719 8.96731L7.92059 8.98513C7.37538 9.00338 7.02685 9.55204 7.02685 9.55204L6.18552 10.8628H9.03918ZM15.2487 10.093H13.8897C13.797 10.093 13.7206 10.0239 13.7101 9.93479H13.7087V9.91357V9.44988V9.14402C13.7087 9.04495 13.7898 8.96727 13.8897 8.96727H16.9538C17.0537 8.96727 17.1348 9.04495 17.1348 9.14402V9.6279C17.1348 9.6279 17.1493 9.83597 16.9539 10.0297L16.3235 10.8627H14.6643C14.8908 10.5641 15.1062 10.2805 15.2203 10.1303L15.2204 10.1303L15.2223 10.1278L15.2229 10.127L15.2487 10.093ZM15.5335 11.9067H16.9538C17.0502 11.9067 17.1287 11.9814 17.1342 12.0755L17.1348 12.0755V12.8346C17.1348 12.9336 17.0537 12.9988 16.9538 12.9988H13.8897C13.7898 12.9988 13.7087 12.9336 13.7087 12.8346V12.2758C13.7087 12.2758 13.73 12.107 13.8683 11.9173C13.9268 11.837 14.193 11.4849 14.4805 11.1053H16.1399L15.5335 11.9067ZM7.98443 12.7398L7.70879 11.1052H9.08495L9.40873 12.8111C9.40873 12.8111 9.47812 12.9988 9.28659 12.9988H8.32492C8.32492 12.9988 8.03899 13.011 7.98443 12.7398ZM6.03191 11.1052L5.09037 12.5921C4.84564 12.9716 5.17551 12.9988 5.17551 12.9988H6.21821C6.36717 13.0198 6.53745 12.7608 6.53745 12.7608L7.55591 11.1052H6.03191ZM12.1127 10.8628L12.2616 11.1053H13.3257V12.8135C13.3257 12.9125 13.2447 12.9988 13.1447 12.9988H12.2086C12.0419 13.0057 11.9155 12.8821 11.8149 12.7292L10.9531 11.2531V12.8136C10.9531 12.9127 10.872 12.9988 10.7721 12.9988H9.86779C9.76783 12.9988 9.6868 12.9125 9.6868 12.8135V11.1052H10.8785L10.7296 10.8628H9.6868V9.14396C9.6868 9.04497 9.76783 8.9673 9.86779 8.9673H10.7721C10.943 8.9673 11.1179 9.07537 11.2189 9.27045C11.2747 9.37809 12.0277 10.6934 12.0277 10.6934V9.15457C12.0277 9.0555 12.1087 8.9673 12.2086 8.9673H13.1447C13.2447 8.9673 13.3257 9.04497 13.3257 9.14396V10.8628H12.1127Z" fill="#169CD4"/>
</svg>
