<svg width="28" height="20" viewBox="0 0 28 20" fill="none" xmlns="http://www.w3.org/2000/svg">
<path fill-rule="evenodd" clip-rule="evenodd" d="M7.78173 6.95261C7.54671 7.24586 7.17068 7.47715 6.79464 7.44411C6.74764 7.04761 6.93174 6.62632 7.14717 6.36612C7.38219 6.06461 7.79348 5.84983 8.12643 5.83331C8.1656 6.24634 8.01283 6.6511 7.78173 6.95261ZM8.12248 7.52258C7.7912 7.50248 7.48892 7.62763 7.24477 7.72873C7.08764 7.79378 6.95459 7.84887 6.85337 7.84887C6.73977 7.84887 6.60123 7.79084 6.44567 7.72568C6.24184 7.64029 6.00881 7.54268 5.76444 7.54736C5.20431 7.55562 4.68334 7.89017 4.3974 8.42298C3.80985 9.48858 4.24464 11.0663 4.81261 11.9337C5.09071 12.3632 5.42366 12.8341 5.86236 12.8176C6.05537 12.8099 6.1942 12.7478 6.33789 12.6835C6.5033 12.6095 6.67514 12.5326 6.94346 12.5326C7.20247 12.5326 7.3668 12.6075 7.52454 12.6793C7.67453 12.7477 7.81856 12.8133 8.03239 12.8093C8.48676 12.801 8.7727 12.3798 9.05081 11.9502C9.35093 11.4892 9.48282 11.0393 9.50283 10.971L9.50518 10.9631C9.5047 10.9626 9.50099 10.9608 9.49445 10.9576C9.39412 10.9092 8.62729 10.539 8.61994 9.5464C8.61255 8.71324 9.22817 8.29111 9.32508 8.22466C9.33098 8.22061 9.33495 8.21789 9.33675 8.21646C8.94505 7.60519 8.334 7.5391 8.12248 7.52258ZM11.2679 12.7639V6.32481H13.5593C14.7423 6.32481 15.5687 7.1839 15.5687 8.4395C15.5687 9.69509 14.7266 10.5624 13.528 10.5624H12.2158V12.7639H11.2679ZM12.2157 7.16738H13.3085C14.1311 7.16738 14.6012 7.62997 14.6012 8.44363C14.6012 9.25729 14.1311 9.724 13.3046 9.724H12.2157V7.16738ZM18.6985 11.9915C18.4478 12.4954 17.8955 12.8134 17.3001 12.8134C16.4188 12.8134 15.8038 12.26 15.8038 11.4257C15.8038 10.5996 16.3992 10.1246 17.4999 10.0544L18.6828 9.98008V9.62488C18.6828 9.10034 18.3577 8.81535 17.778 8.81535C17.3001 8.81535 16.9515 9.07556 16.881 9.47206H16.0271C16.0545 8.63775 16.7987 8.03061 17.8054 8.03061C18.8904 8.03061 19.5955 8.62949 19.5955 9.5588V12.7639H18.7181V11.9915H18.6985ZM17.5546 12.0493C17.0493 12.0493 16.7282 11.7933 16.7282 11.4009C16.7282 10.9961 17.0376 10.7607 17.6291 10.7235L18.6827 10.6533V11.0168C18.6827 11.6198 18.197 12.0493 17.5546 12.0493ZM22.5058 13.0158C22.1258 14.1434 21.691 14.5151 20.7666 14.5151C20.6961 14.5151 20.4611 14.5068 20.4063 14.4903V13.718C20.465 13.7262 20.6099 13.7345 20.6844 13.7345C21.1035 13.7345 21.3385 13.5486 21.4834 13.0654L21.5696 12.7804L19.9636 8.09256H20.9546L22.071 11.8965H22.0906L23.2069 8.09256H24.1705L22.5058 13.0158Z" fill="#0C0E19"/>
</svg>
