<svg width="28" height="20" viewBox="0 0 28 20" fill="none" xmlns="http://www.w3.org/2000/svg">
<rect width="28" height="20" rx="4" fill="#0073C0"/>
<g clip-path="url(#clip0_301_5263)">
<path d="M4 14.9642C4 11.6577 4 8.35118 4 5.04467C4.00272 5.03079 4.0065 5.0171 4.00808 5.00314C4.06075 4.55618 4.38656 4.17269 4.82439 4.0453C4.89076 4.02599 4.9595 4.01493 5.02711 4C11.0757 4 17.1243 4 23.1729 4C23.1775 4.0072 23.1851 4.00676 23.1921 4.00781C23.645 4.07489 23.9557 4.32335 24.1298 4.74485C24.1671 4.83528 24.1822 4.93159 24.2 5.02702V14.9818C24.1927 14.9862 24.1931 14.994 24.192 15.001C24.113 15.4766 23.8442 15.7912 23.3891 15.9482C23.3075 15.9764 23.2216 15.9831 23.1379 16.0001H5.03589C5.01692 15.9837 4.99243 15.9888 4.97065 15.9846C4.49858 15.8946 4.19016 15.6206 4.04276 15.1638C4.02169 15.0985 4.01668 15.0301 4 14.9642ZM17.8665 6.8657C17.8495 6.88089 17.8354 6.89326 17.8216 6.90591C17.2577 7.42003 16.6937 7.93407 16.1298 8.44819C15.5779 8.95143 15.0259 9.45475 14.474 9.95808C14.3022 10.1147 14.1307 10.2716 13.9587 10.4279C13.8731 10.5056 13.7465 10.4795 13.7042 10.3761C13.6917 10.3456 13.6917 10.3134 13.6917 10.2811C13.6918 9.09023 13.6916 7.8993 13.6928 6.70846C13.6928 6.66763 13.6816 6.65894 13.6424 6.65894C12.845 6.66008 12.0476 6.66017 11.2502 6.65894C11.2092 6.65894 11.2019 6.66702 11.2128 6.70661C11.3101 7.06007 11.6337 7.30774 12.0011 7.30774C12.3303 7.30774 12.6594 7.30757 12.9887 7.30792C13.0605 7.30792 13.0494 7.30002 13.0494 7.36762C13.0497 8.35223 13.0491 9.33685 13.0498 10.3214C13.0503 10.8927 13.6064 11.2893 14.144 11.0996C14.3754 11.0179 14.5655 10.8733 14.7401 10.7017C15.0737 10.3736 15.4144 10.0528 15.7522 9.72911C16.1544 9.34369 16.5568 8.95836 16.9591 8.57303C17.0325 8.5028 17.1059 8.43256 17.1813 8.36048C17.1915 8.38164 17.1872 8.3992 17.1873 8.41588C17.1876 9.0128 17.1873 9.60971 17.1877 10.2066C17.1879 10.5469 17.4016 10.858 17.7193 10.97C18.0475 11.0858 18.3426 11.0203 18.5942 10.7817C19.0228 10.3752 19.4477 9.96475 19.874 9.55589C20.2518 9.19357 20.6294 8.83097 21.0073 8.46873C21.015 8.46136 21.0214 8.4496 21.0385 8.45214V8.49937C21.0385 9.06705 21.0381 9.63464 21.0387 10.2023C21.039 10.5825 21.2919 10.9063 21.6566 10.9994C21.6941 11.009 21.7002 11.0006 21.7002 10.9649C21.6994 9.6292 21.6996 8.2935 21.6993 6.95779C21.6993 6.94726 21.7047 6.93479 21.6914 6.92382C21.5773 7.03075 21.4634 7.13742 21.3497 7.24427C20.8449 7.71888 20.3402 8.19376 19.8353 8.66829C19.4166 9.0617 18.9976 9.45484 18.5789 9.84816C18.4318 9.98626 18.2851 10.1247 18.1377 10.2625C18.0906 10.3064 18.0345 10.3166 17.9748 10.2945C17.9143 10.272 17.883 10.2248 17.8763 10.1614C17.8744 10.144 17.8748 10.1264 17.8748 10.1088C17.8748 9.04668 17.8748 7.98455 17.8746 6.92241C17.8746 6.90547 17.8789 6.88773 17.8668 6.86552L17.8665 6.8657ZM14.0107 9.94974C14.0254 9.95053 14.0313 9.9385 14.0392 9.9313C14.2674 9.72376 14.4951 9.51577 14.723 9.30796C15.7848 8.33976 16.8468 7.37183 17.9082 6.4032C17.9624 6.35377 18.0197 6.32725 18.0909 6.35851C18.1625 6.38994 18.1871 6.44823 18.1871 6.52462C18.1863 7.59114 18.1865 8.65767 18.1865 9.72419V9.78231C18.2023 9.7702 18.2117 9.76405 18.2197 9.7565C18.2955 9.68565 18.3711 9.61445 18.4467 9.54343C19.0357 8.98979 19.6249 8.43625 20.2136 7.88236C20.7247 7.40151 21.2353 6.92022 21.7461 6.43902C21.7678 6.41847 21.7924 6.40355 21.8216 6.39679C21.9254 6.37291 22.0126 6.45043 22.0126 6.56676C22.0126 7.87902 22.0126 9.19128 22.0126 10.5035C22.0126 10.6601 22.0135 10.8166 22.0119 10.9732C22.0115 11.0049 22.0218 11.0091 22.0496 11.0033C22.4018 10.9293 22.6807 10.5876 22.6809 10.2252C22.6815 8.9876 22.6812 7.74996 22.6811 6.51232C22.6811 6.44771 22.6733 6.38397 22.6578 6.32137C22.505 5.70488 21.747 5.4846 21.2884 5.9234C21.0898 6.11339 20.8917 6.3039 20.6933 6.49406C20.1307 7.0333 19.568 7.57253 19.0054 8.11167C18.9502 8.16461 18.8945 8.21712 18.8313 8.27699V8.21905C18.8313 7.65286 18.8318 7.08676 18.831 6.52058C18.8305 6.17317 18.6254 5.87459 18.3044 5.74755C18.1748 5.69628 18.0403 5.69074 17.9034 5.6939C17.7008 5.69865 17.5222 5.76581 17.3724 5.9011C17.2455 6.01576 17.1245 6.13683 17.001 6.25526C16.6761 6.56702 16.3514 6.87904 16.0263 7.19071C15.6253 7.57516 15.224 7.95944 14.8228 8.34372C14.7814 8.3834 14.7396 8.42264 14.6923 8.46759C14.6923 8.08314 14.6925 7.7087 14.6919 7.33426C14.6919 7.31231 14.6999 7.30721 14.72 7.30757C14.7784 7.30862 14.837 7.30669 14.8955 7.30818C15.1321 7.31415 15.3319 7.22653 15.5036 7.06929C15.6384 6.94585 15.7711 6.82031 15.9042 6.69511C15.9138 6.68607 15.9299 6.68054 15.9301 6.66131C15.9222 6.66087 15.9152 6.66017 15.9081 6.66017C15.2863 6.66017 14.6645 6.66061 14.0427 6.65903C13.9978 6.65894 14.0063 6.68344 14.0063 6.70837C14.0063 7.7734 14.0063 8.83844 14.0065 9.90347C14.0065 9.91875 14.0022 9.9349 14.0105 9.95L14.0107 9.94974ZM5.65326 10.6457C5.66019 10.6404 5.6652 10.6373 5.66932 10.6335C5.98029 10.341 6.29117 10.0486 6.60214 9.75615C7.06534 9.32043 7.52846 8.8847 7.99157 8.44898C8.48989 7.98025 8.98812 7.51142 9.48645 7.04269C9.68346 6.85736 9.88029 6.67193 10.0776 6.48695C10.1542 6.41514 10.2634 6.42453 10.3223 6.50609C10.3489 6.54279 10.352 6.58396 10.352 6.62698C10.3518 8.06795 10.3518 9.50892 10.3519 10.95C10.3519 11.0023 10.3521 11.0023 10.4016 10.9894C10.7595 10.8958 11.0126 10.5692 11.0127 10.1997C11.0128 8.97522 11.0128 7.75075 11.0123 6.52628C11.0123 6.47817 11.0105 6.42927 11.002 6.38213C10.9437 6.05843 10.762 5.83201 10.4496 5.72806C10.1444 5.62648 9.86422 5.69189 9.62815 5.91005C9.37697 6.14218 9.13307 6.38213 8.88611 6.61891C8.56311 6.92856 8.24047 7.23847 7.91747 7.54803C7.53636 7.91326 7.15507 8.27813 6.77386 8.64327C6.46562 8.93852 6.16036 9.23711 5.84807 9.52806C5.67169 9.69241 5.54343 9.87713 5.52253 10.1237C5.50655 10.3123 5.55177 10.4851 5.65343 10.6459L5.65326 10.6457ZM9.37258 8.4258V8.48656C9.37258 9.05854 9.37258 9.63052 9.37258 10.2024C9.37258 10.5739 9.63298 10.9043 9.99381 10.9931C10.0272 11.0013 10.0329 10.9925 10.0329 10.9611C10.0323 9.64316 10.0324 8.3251 10.032 7.00713C10.032 6.99695 10.0386 6.98352 10.0223 6.9757C9.95149 7.04269 9.88047 7.11003 9.80918 7.1771C9.13509 7.81089 8.46083 8.4445 7.78683 9.07838C7.16069 9.66722 6.53497 10.2565 5.90847 10.845C5.88451 10.8675 5.8802 10.8777 5.91225 10.8973C6.2284 11.09 6.64217 11.0434 6.90863 10.7862C7.20845 10.4968 7.50984 10.2092 7.81071 9.92085C8.26567 9.48495 8.7207 9.04923 9.17565 8.61351C9.23851 8.55328 9.30164 8.49332 9.37258 8.42572V8.4258ZM7.75338 12.7653C7.80615 12.7534 7.84855 12.744 7.89087 12.7341C8.24688 12.6519 8.49586 12.4172 8.5064 12.0396C8.5121 11.8372 8.44942 11.6624 8.29358 11.5282C8.11984 11.3786 7.90896 11.3228 7.68745 11.3046C7.42337 11.283 7.15814 11.2899 6.89379 11.298C6.55587 11.3083 6.29626 11.5033 6.19021 11.817C6.15474 11.9219 6.13077 12.0306 6.10197 12.1377C5.9112 12.848 5.72077 13.5584 5.52929 14.2685C5.52016 14.3025 5.52771 14.3105 5.5623 14.3104C6.07572 14.3086 6.58914 14.3107 7.10248 14.3059C7.33821 14.3037 7.56735 14.2575 7.78139 14.1546C8.00527 14.0468 8.17673 13.8869 8.24416 13.6402C8.3287 13.3305 8.25838 13.0526 7.97805 12.8793C7.90975 12.8371 7.83503 12.8076 7.75347 12.7652L7.75338 12.7653ZM17.5342 12.2613C17.531 12.2598 17.528 12.2583 17.5248 12.2567C17.5426 12.1893 17.5604 12.1218 17.5784 12.0543C17.5834 12.0356 17.5874 12.0223 17.5576 12.0227C17.4303 12.0243 17.303 12.0212 17.1758 12.0241C17.0671 12.0265 16.9844 12.0896 16.9592 12.1842C16.7739 12.8788 16.5892 13.5736 16.4031 14.2681C16.3945 14.3006 16.3959 14.3109 16.4334 14.3106C16.6016 14.3087 16.7698 14.3089 16.938 14.3106C16.9694 14.3108 16.9792 14.3 16.987 14.2706C17.0696 13.9589 17.153 13.6473 17.2386 13.3363C17.2831 13.1747 17.3141 13.0088 17.3802 12.8537C17.4798 12.6199 17.6632 12.4954 17.8947 12.5015C18.12 12.5075 18.2424 12.6391 18.2315 12.8634C18.2281 12.9308 18.2166 12.9968 18.1992 13.062C18.092 13.4623 17.9855 13.8628 17.8769 14.2628C17.8657 14.3038 17.8746 14.3112 17.9147 14.3107C18.0799 14.3086 18.2453 14.3091 18.4106 14.3105C18.4388 14.3107 18.4511 14.3026 18.4585 14.2749C18.5458 13.9463 18.633 13.6177 18.7228 13.2897C18.7628 13.1435 18.7899 12.9931 18.8523 12.8539C18.9509 12.6343 19.1089 12.4984 19.362 12.5016C19.5839 12.5044 19.7066 12.6291 19.7038 12.8503C19.7028 12.9281 19.6876 13.0042 19.6674 13.0792C19.5611 13.4751 19.4546 13.8712 19.3472 14.2668C19.3381 14.3001 19.3414 14.3111 19.3798 14.3107C19.5436 14.3086 19.7075 14.3085 19.8713 14.3108C19.9094 14.3114 19.9234 14.2989 19.9328 14.2632C20.0422 13.8483 20.1543 13.4342 20.2635 13.0193C20.3089 12.8466 20.345 12.673 20.3208 12.4915C20.2845 12.2201 20.091 12.0226 19.8205 11.9876C19.5269 11.9497 19.2694 12.0319 19.0419 12.2176C18.96 12.2845 18.8916 12.3643 18.8246 12.4456C18.8088 12.4327 18.8076 12.4155 18.8025 12.401C18.7063 12.127 18.5129 11.9867 18.223 11.9779C17.9779 11.9704 17.7612 12.0357 17.5861 12.2151C17.57 12.2316 17.5518 12.2459 17.5345 12.2612L17.5342 12.2613ZM13.7396 6.33638C14.5647 6.33638 15.3899 6.33638 16.2151 6.33638C16.2254 6.33638 16.2356 6.33568 16.2458 6.33656C16.2633 6.33805 16.2754 6.33243 16.2863 6.31733C16.3285 6.25886 16.3636 6.1967 16.3844 6.12752C16.4362 5.9536 16.3765 5.79285 16.2311 5.71664C16.1639 5.68144 16.091 5.66686 16.0153 5.6666C15.9099 5.66625 15.8046 5.6666 15.6992 5.6666C14.4732 5.6666 13.2471 5.66643 12.0211 5.66669C11.6272 5.66678 11.299 5.91804 11.2084 6.28748C11.2003 6.32003 11.2131 6.33633 11.2465 6.33638C12.0776 6.33638 12.9086 6.33638 13.7396 6.33638H13.7396ZM9.88486 13.3239C10.0867 13.3239 10.2885 13.3244 10.4904 13.3238C10.604 13.3234 10.6593 13.2805 10.6907 13.1724C10.7378 13.0106 10.7576 12.8464 10.7334 12.6786C10.6953 12.4143 10.5711 12.2044 10.3351 12.072C10.0828 11.9305 9.81058 11.9162 9.53517 11.9772C8.82667 12.1338 8.35776 12.8238 8.47014 13.5432C8.51684 13.8424 8.66882 14.0732 8.94475 14.2126C9.107 14.2946 9.28145 14.3264 9.46125 14.331C9.76712 14.339 10.0521 14.2701 10.3064 14.0935C10.3562 14.0589 10.358 14.052 10.3229 14.0039C10.266 13.926 10.2086 13.8485 10.1506 13.7714C10.104 13.7094 10.0965 13.7081 10.0295 13.7491C9.84491 13.862 9.64588 13.9003 9.43245 13.8669C9.21042 13.8321 9.06003 13.6981 9.01043 13.4783C8.95318 13.2249 9.00472 12.9865 9.13843 12.7683C9.2897 12.5215 9.51041 12.3916 9.80567 12.4006C9.99864 12.4065 10.1433 12.5121 10.1848 12.6801C10.2023 12.7507 10.2005 12.8218 10.1892 12.8934C10.1843 12.924 10.1723 12.9333 10.141 12.9331C9.90847 12.9317 9.67591 12.9334 9.44334 12.9315C9.38978 12.9311 9.35414 12.9522 9.32859 12.9963C9.31235 13.0242 9.29971 13.0535 9.29163 13.0849C9.27442 13.1512 9.25915 13.2182 9.23878 13.2836C9.22789 13.3187 9.23614 13.3249 9.27047 13.3246C9.47521 13.3232 9.68003 13.3239 9.88477 13.3239H9.88486ZM21.7022 14.0631C21.6814 14.1402 21.6654 14.2083 21.6442 14.2748C21.6338 14.3075 21.6442 14.3105 21.6725 14.3103C21.8334 14.3093 21.9942 14.3088 22.1552 14.3107C22.1879 14.311 22.1995 14.2999 22.2075 14.2696C22.2938 13.9422 22.3833 13.6157 22.4683 13.2879C22.5159 13.1047 22.5794 12.9247 22.5877 12.7328C22.5963 12.5353 22.5564 12.3541 22.4059 12.2129C22.3006 12.1141 22.1708 12.0627 22.0319 12.032C21.8297 11.9873 21.6254 11.9889 21.421 12.0086C21.2974 12.0205 21.174 12.0378 21.0558 12.078C20.9191 12.1245 20.8577 12.2297 20.8829 12.3675C20.8945 12.4307 20.91 12.4932 20.9204 12.5566C20.9254 12.5869 20.9349 12.5899 20.9628 12.58C21.1135 12.5263 21.2692 12.4938 21.4289 12.4831C21.5607 12.4744 21.6921 12.4764 21.8186 12.522C21.9341 12.5637 22.007 12.6415 22.0201 12.7676C22.0254 12.8176 22.0201 12.8673 22.0082 12.9155C21.9644 13.0941 21.9191 13.2722 21.8738 13.4505C21.8428 13.5726 21.7822 13.6782 21.6873 13.7612C21.516 13.9111 21.3176 13.9749 21.0942 13.9171C20.8802 13.8617 20.7944 13.6171 20.9614 13.4507C20.9937 13.4186 21.0277 13.3889 21.0657 13.3641C21.2313 13.256 21.4129 13.1924 21.6094 13.1721C21.6359 13.1694 21.6513 13.1603 21.6621 13.1358C21.6941 13.0638 21.7292 12.9932 21.761 12.9211C21.7888 12.8581 21.7855 12.852 21.7176 12.8467C21.3919 12.8212 21.0842 12.885 20.7953 13.0376C20.6423 13.1185 20.507 13.2211 20.4065 13.3646C20.2614 13.5715 20.2521 13.824 20.3888 14.0072C20.5332 14.2006 20.7308 14.3064 20.971 14.3071C21.2347 14.308 21.4828 14.243 21.7022 14.0628V14.0631ZM15.6889 14.0634C15.668 14.1401 15.6517 14.2065 15.6316 14.2719C15.6221 14.3026 15.6266 14.311 15.6605 14.3107C15.8199 14.3089 15.9794 14.3089 16.1388 14.3107C16.1723 14.311 16.1858 14.3024 16.1946 14.2684C16.283 13.9312 16.375 13.595 16.463 13.2577C16.5075 13.0872 16.5651 12.9193 16.574 12.7409C16.5831 12.5585 16.5529 12.3874 16.426 12.2469C16.3168 12.1261 16.1736 12.0659 16.0178 12.0321C15.7891 11.9824 15.5588 11.989 15.3286 12.0183C15.2316 12.0306 15.1345 12.0457 15.0418 12.0782C14.908 12.1251 14.8467 12.2248 14.8687 12.3597C14.8797 12.4274 14.8975 12.4939 14.909 12.5616C14.9136 12.5892 14.9234 12.5897 14.9459 12.5816C15.0981 12.5273 15.255 12.4945 15.4162 12.4833C15.5437 12.4745 15.6708 12.4767 15.7935 12.5178C15.9143 12.5582 15.9928 12.6363 16.0065 12.7687C16.0116 12.8174 16.0066 12.8657 15.9953 12.9124C15.9516 13.0925 15.9085 13.2728 15.8598 13.4517C15.7929 13.697 15.6302 13.8503 15.3869 13.9154C15.2542 13.951 15.1203 13.9547 14.9961 13.8804C14.8488 13.7923 14.8176 13.6094 14.9257 13.4767C14.962 13.432 15.0052 13.3951 15.0531 13.3638C15.2174 13.2564 15.3979 13.1942 15.5925 13.1721C15.6147 13.1696 15.634 13.1685 15.6453 13.143C15.6796 13.0657 15.7179 12.9901 15.7521 12.9127C15.7748 12.8613 15.7691 12.8526 15.7121 12.8477C15.4254 12.8229 15.1504 12.8698 14.8874 12.9864C14.7046 13.0674 14.5402 13.1738 14.4159 13.3336C14.2414 13.558 14.2309 13.832 14.3946 14.0328C14.5391 14.21 14.7303 14.3078 14.9588 14.3075C15.2225 14.3072 15.4702 14.2425 15.6889 14.0632V14.0634ZM13.1627 14.3307C13.178 14.3298 13.1984 14.3283 13.2188 14.3275C13.3905 14.3201 13.5553 14.2847 13.7049 14.1978C13.9742 14.0412 14.0989 13.8028 14.0852 13.4941C14.0776 13.3209 13.9768 13.1995 13.8413 13.1032C13.7276 13.0225 13.6015 12.9647 13.4749 12.9078C13.3844 12.8671 13.2925 12.8289 13.2127 12.7683C13.0789 12.6666 13.0947 12.4881 13.2439 12.4097C13.2672 12.3974 13.2917 12.3887 13.3174 12.3824C13.3928 12.3641 13.4684 12.3678 13.544 12.3787C13.719 12.4039 13.8707 12.483 14.0119 12.5853C14.0293 12.598 14.0411 12.6093 14.0611 12.5849C14.1306 12.5002 14.2032 12.418 14.2738 12.3341C14.3071 12.2945 14.3076 12.2562 14.2771 12.2143C14.2517 12.1794 14.2174 12.1539 14.1801 12.1335C13.8619 11.9598 13.5256 11.8925 13.1698 11.9824C12.8897 12.0531 12.6804 12.2159 12.5999 12.5031C12.505 12.8416 12.5995 13.0475 12.8723 13.2128C12.9786 13.2772 13.0917 13.328 13.2054 13.3774C13.291 13.4146 13.3781 13.4495 13.452 13.5084C13.5485 13.5853 13.5599 13.7076 13.4804 13.8022C13.4453 13.844 13.3994 13.8692 13.3479 13.8835C13.2291 13.9165 13.1102 13.9043 12.9921 13.8793C12.8061 13.84 12.6461 13.7501 12.5047 13.6249C12.4902 13.6121 12.4801 13.5983 12.4595 13.6204C12.3827 13.7027 12.3034 13.7827 12.2262 13.8645C12.2013 13.8907 12.1949 13.9229 12.2077 13.9581C12.2239 14.0025 12.2541 14.0353 12.2922 14.0615C12.5527 14.2412 12.8435 14.323 13.1626 14.3308L13.1627 14.3307ZM11.6499 12.2155C11.6691 12.1386 11.6834 12.0723 11.7028 12.0076C11.713 11.9736 11.7028 11.9685 11.6718 11.9688C11.5563 11.9702 11.4407 11.9692 11.3252 11.9694C11.2465 11.9696 11.2019 12.0059 11.181 12.0829C11.0959 12.3953 11.018 12.7095 10.9298 13.021C10.8125 13.435 10.7067 13.8521 10.5952 14.2677C10.587 14.2983 10.5881 14.3111 10.626 14.3107C10.784 14.3086 10.9419 14.3088 11.0998 14.3107C11.1307 14.311 11.1387 14.2981 11.1449 14.2721C11.1739 14.1485 11.2032 14.025 11.2348 13.902C11.3154 13.5884 11.3964 13.275 11.5051 12.9693C11.5601 12.8145 11.6666 12.7165 11.8133 12.6546C11.9726 12.5873 12.1399 12.5568 12.3117 12.5464C12.3878 12.5418 12.4168 12.5159 12.4352 12.442C12.4636 12.3288 12.4917 12.2156 12.5201 12.1025C12.5391 12.0267 12.5093 11.984 12.4312 11.9849C12.1537 11.9879 11.8811 12.0104 11.65 12.2155H11.6499Z" fill="#0073C0"/>
<path d="M17.8665 6.86564C17.8786 6.88785 17.8743 6.90559 17.8743 6.92253C17.8746 7.98467 17.8745 9.0468 17.8746 10.1089C17.8746 10.1265 17.8741 10.1441 17.876 10.1615C17.8828 10.225 17.914 10.2721 17.9746 10.2946C18.0342 10.3167 18.0904 10.3065 18.1374 10.2626C18.2848 10.1248 18.4316 9.98638 18.5786 9.84828C18.9974 9.45496 19.4163 9.06182 19.835 8.66841C20.3399 8.19388 20.8447 7.71909 21.3495 7.24438C21.4632 7.13754 21.5771 7.03087 21.6911 6.92393C21.7044 6.93491 21.699 6.94738 21.699 6.95791C21.6993 8.29361 21.6992 9.62932 21.7 10.965C21.7 11.0008 21.6938 11.0091 21.6563 10.9995C21.2916 10.9065 21.0388 10.5826 21.0384 10.2024C21.0378 9.63476 21.0383 9.06717 21.0383 8.49949V8.45226C21.021 8.44971 21.0147 8.46148 21.007 8.46885C20.6291 8.83109 20.2515 9.19359 19.8737 9.55601C19.4474 9.96487 19.0226 10.3753 18.594 10.7818C18.3424 11.0203 18.0474 11.0858 17.719 10.9701C17.4014 10.8581 17.1877 10.547 17.1874 10.2067C17.187 9.60983 17.1874 9.01291 17.1871 8.416C17.1871 8.39923 17.1913 8.38167 17.181 8.3606C17.1057 8.43268 17.0322 8.50292 16.9588 8.57315C16.5565 8.95848 16.1542 9.34381 15.752 9.72923C15.4141 10.0529 15.0734 10.3738 14.7399 10.7018C14.5653 10.8735 14.3751 11.0181 14.1438 11.0997C13.6061 11.2893 13.05 10.8929 13.0496 10.3215C13.0488 9.33687 13.0494 8.35226 13.0491 7.36773C13.0491 7.30013 13.0601 7.30803 12.9884 7.30803C12.6592 7.30768 12.33 7.30786 12.0008 7.30786C11.6335 7.30786 11.3099 7.06019 11.2126 6.70673C11.2017 6.66714 11.2091 6.65897 11.25 6.65906C12.0473 6.66029 12.8448 6.66029 13.6421 6.65906C13.6813 6.65906 13.6925 6.66775 13.6925 6.70857C13.6913 7.89942 13.6915 9.09035 13.6914 10.2812C13.6914 10.3135 13.6914 10.3456 13.7039 10.3762C13.7462 10.4796 13.8728 10.5057 13.9584 10.428C14.1305 10.2717 14.302 10.1148 14.4737 9.9582C15.0257 9.45487 15.5776 8.95163 16.1296 8.44831C16.6935 7.93418 17.2574 7.42006 17.8213 6.90602C17.8352 6.89338 17.8492 6.881 17.8662 6.86581L17.8665 6.86564Z" fill="#FDFEFE"/>
<path d="M14.0108 9.94968C14.0026 9.93467 14.0068 9.91852 14.0067 9.90315C14.0065 8.83812 14.0065 7.77308 14.0065 6.70805C14.0065 6.68312 13.9981 6.65853 14.043 6.65871C14.6647 6.66038 15.2865 6.65985 15.9083 6.65985C15.9154 6.65985 15.9224 6.66055 15.9304 6.66099C15.9302 6.68022 15.9141 6.68575 15.9045 6.69479C15.7714 6.81999 15.6386 6.94553 15.5039 7.06897C15.3321 7.2263 15.1323 7.31392 14.8958 7.30786C14.8373 7.30637 14.7788 7.3083 14.7202 7.30725C14.7001 7.3069 14.692 7.31199 14.6921 7.33394C14.6927 7.70838 14.6926 8.08282 14.6926 8.46727C14.7399 8.42232 14.7816 8.38308 14.823 8.3434C15.2242 7.95912 15.6256 7.57484 16.0266 7.19039C16.3517 6.87872 16.6764 6.5667 17.0013 6.25494C17.1247 6.13651 17.2458 6.01544 17.3727 5.90078C17.5224 5.7654 17.701 5.69824 17.9036 5.69359C18.0404 5.69043 18.1751 5.69596 18.3047 5.74723C18.6257 5.87427 18.8308 6.17286 18.8313 6.52026C18.8321 7.08644 18.8315 7.65254 18.8315 8.21873V8.27667C18.8947 8.21671 18.9503 8.16421 19.0056 8.11136C19.5683 7.57221 20.131 7.03298 20.6936 6.49374C20.892 6.30358 21.0901 6.11307 21.2886 5.92308C21.7473 5.48428 22.5053 5.70465 22.6581 6.32105C22.6736 6.38374 22.6813 6.44748 22.6813 6.51201C22.6813 7.74964 22.6817 8.98728 22.6812 10.2249C22.681 10.5873 22.4021 10.929 22.0499 11.003C22.0222 11.0087 22.0119 11.0045 22.0122 10.9728C22.0137 10.8163 22.0129 10.6598 22.0129 10.5032C22.0129 9.19096 22.0129 7.8787 22.0129 6.56644C22.0129 6.45011 21.9257 6.37268 21.8218 6.39647C21.7927 6.40314 21.7681 6.41815 21.7463 6.4387C21.2356 6.9199 20.725 7.40119 20.2139 7.88204C19.6251 8.43593 19.0359 8.98947 18.4469 9.54311C18.3713 9.61422 18.2957 9.68533 18.22 9.75618C18.2119 9.76373 18.2025 9.76979 18.1868 9.78199V9.72388C18.1868 8.65735 18.1865 7.59082 18.1874 6.5243C18.1874 6.44792 18.1628 6.38953 18.0912 6.35819C18.02 6.32693 17.9626 6.35354 17.9085 6.40288C16.847 7.37151 15.7852 8.33953 14.7233 9.30764C14.4954 9.51545 14.2676 9.72344 14.0395 9.93098C14.0316 9.93818 14.0256 9.95012 14.0109 9.94942L14.0108 9.94968Z" fill="#FDFEFE"/>
<path d="M5.65326 10.6456C5.55159 10.4848 5.50638 10.3121 5.52235 10.1235C5.54325 9.87686 5.67152 9.69214 5.8479 9.52779C6.16018 9.23684 6.46544 8.93833 6.77369 8.64299C7.15489 8.27786 7.53618 7.91298 7.9173 7.54776C8.24029 7.2382 8.56302 6.92828 8.88593 6.61863C9.13281 6.38194 9.37679 6.14191 9.62797 5.90978C9.86405 5.69161 10.1442 5.6262 10.4495 5.72778C10.7619 5.83173 10.9435 6.05815 11.0018 6.38185C11.0103 6.429 11.012 6.4779 11.0121 6.52601C11.0127 7.75048 11.0127 8.97494 11.0125 10.1994C11.0125 10.5689 10.7594 10.8955 10.4014 10.9891C10.3519 11.002 10.3517 11.002 10.3517 10.9497C10.3517 9.50873 10.3517 8.06777 10.3518 6.62671C10.3518 6.58369 10.3487 6.54251 10.3222 6.50582C10.2633 6.42425 10.154 6.41477 10.0774 6.48668C9.88012 6.67166 9.68328 6.85717 9.48627 7.04241C8.98795 7.51115 8.48972 7.97997 7.9914 8.44871C7.52828 8.88443 7.06508 9.32015 6.60196 9.75588C6.29108 10.0483 5.98011 10.3408 5.66915 10.6332C5.66502 10.6372 5.66002 10.6401 5.65308 10.6454L5.65326 10.6456Z" fill="#FDFDFE"/>
<path d="M9.37266 8.42584C9.30181 8.49344 9.23869 8.55341 9.17574 8.61363C8.7207 9.04936 8.26566 9.48517 7.8108 9.92098C7.50993 10.2092 7.20844 10.4969 6.90871 10.7863C6.64226 11.0435 6.22848 11.0901 5.91234 10.8974C5.88038 10.8779 5.88459 10.8677 5.90856 10.8451C6.53506 10.2566 7.16077 9.66743 7.78692 9.07851C8.46092 8.44463 9.13518 7.81102 9.80927 7.17723C9.88055 7.11016 9.95158 7.04282 10.0224 6.97583C10.0387 6.98364 10.0321 6.99708 10.0321 7.00726C10.0324 8.32523 10.0324 9.64329 10.033 10.9613C10.033 10.9926 10.0273 11.0014 9.9939 10.9932C9.63306 10.9045 9.37266 10.5739 9.37266 10.2025C9.37266 9.63056 9.37266 9.05858 9.37266 8.48668V8.42593V8.42584Z" fill="#FDFEFE"/>
<path d="M7.75347 12.7653C7.83512 12.8076 7.90975 12.8372 7.97805 12.8794C8.25838 13.0527 8.3287 13.3306 8.24416 13.6403C8.17673 13.887 8.00527 14.0469 7.78139 14.1547C7.56735 14.2576 7.33821 14.3038 7.10248 14.306C6.58915 14.3108 6.07572 14.3086 5.5623 14.3105C5.52762 14.3106 5.52007 14.3026 5.52929 14.2686C5.72068 13.5585 5.9112 12.8482 6.10197 12.1378C6.13077 12.0307 6.15474 11.922 6.19021 11.8171C6.29626 11.5034 6.55587 11.3084 6.89379 11.2981C7.15814 11.2901 7.42337 11.2831 7.68745 11.3047C7.90896 11.3228 8.11984 11.3787 8.29359 11.5283C8.44951 11.6625 8.51211 11.8373 8.5064 12.0397C8.49586 12.4173 8.24679 12.6519 7.89087 12.7342C7.84856 12.744 7.80615 12.7535 7.75339 12.7654L7.75347 12.7653ZM6.23033 13.7957C6.24262 13.7968 6.25114 13.7982 6.25974 13.7982C6.54937 13.7983 6.83892 13.799 7.12855 13.7979C7.22416 13.7976 7.31731 13.7797 7.40669 13.7447C7.62573 13.6588 7.73153 13.4611 7.67007 13.2525C7.62284 13.0922 7.46999 12.9786 7.28026 12.9726C7.11372 12.9672 6.94682 12.9696 6.7801 12.9707C6.74638 12.9708 6.74085 12.9616 6.7499 12.9311C6.76763 12.8709 6.78291 12.8101 6.79827 12.7492C6.80916 12.7065 6.824 12.6656 6.84884 12.6288C6.87246 12.5938 6.9031 12.5748 6.94779 12.5758C7.034 12.578 7.12039 12.5758 7.20669 12.5766C7.31793 12.5776 7.42907 12.5774 7.53785 12.55C7.71616 12.5052 7.85303 12.4133 7.90141 12.2234C7.93802 12.0795 7.89061 11.9539 7.77226 11.8809C7.70492 11.8393 7.6303 11.8191 7.5526 11.8132C7.32477 11.7961 7.0966 11.808 6.86851 11.8062C6.80055 11.8056 6.74902 11.8542 6.72997 11.9255C6.60214 12.4032 6.47431 12.8811 6.34657 13.3589C6.30785 13.5037 6.2694 13.6488 6.23024 13.7957H6.23033Z" fill="#FDFDFE"/>
<path d="M17.5342 12.2613C17.5514 12.2459 17.5697 12.2316 17.5858 12.2152C17.7609 12.0358 17.9777 11.9705 18.2228 11.978C18.5127 11.9868 18.7062 12.1271 18.8022 12.4011C18.8073 12.4156 18.8086 12.4328 18.8243 12.4457C18.8913 12.3644 18.9597 12.2847 19.0416 12.2178C19.2691 12.032 19.5266 11.9497 19.8203 11.9877C20.0907 12.0227 20.2844 12.2202 20.3205 12.4916C20.3448 12.6732 20.3087 12.8468 20.2632 13.0194C20.154 13.4343 20.042 13.8484 19.9326 14.2633C19.9232 14.299 19.9091 14.3116 19.871 14.3109C19.7072 14.3086 19.5434 14.3087 19.3796 14.3108C19.3411 14.3113 19.3379 14.3002 19.3469 14.2669C19.4544 13.8712 19.5609 13.4752 19.6672 13.0793C19.6873 13.0043 19.7025 12.9282 19.7035 12.8504C19.7063 12.6292 19.5836 12.5045 19.3617 12.5017C19.1086 12.4985 18.9506 12.6344 18.8521 12.854C18.7897 12.9932 18.7625 13.1436 18.7225 13.2898C18.6328 13.6177 18.5454 13.9463 18.4582 14.275C18.4509 14.3028 18.4387 14.3109 18.4103 14.3106C18.245 14.3092 18.0797 14.3087 17.9144 14.3108C17.8743 14.3113 17.8655 14.3039 17.8766 14.2629C17.9852 13.8629 18.0918 13.4625 18.1989 13.0621C18.2163 12.9969 18.2279 12.9309 18.2312 12.8635C18.2422 12.6392 18.1197 12.5076 17.8944 12.5016C17.6629 12.4954 17.4795 12.62 17.38 12.8538C17.3138 13.009 17.2828 13.1748 17.2383 13.3364C17.1527 13.6474 17.0693 13.959 16.9867 14.2707C16.9789 14.3001 16.9692 14.3109 16.9377 14.3107C16.7695 14.309 16.6013 14.3088 16.4331 14.3107C16.3955 14.3111 16.3941 14.3008 16.4029 14.2682C16.5889 13.5737 16.7736 12.8789 16.959 12.1843C16.9842 12.0897 17.067 12.0266 17.1756 12.0242C17.3028 12.0214 17.4301 12.0243 17.5573 12.0228C17.5871 12.0224 17.5831 12.0358 17.5781 12.0545C17.5601 12.1219 17.5424 12.1893 17.5245 12.2568C17.5277 12.2583 17.5308 12.2598 17.5339 12.2614L17.5342 12.2613Z" fill="#FDFDFE"/>
<path d="M13.7396 6.3364C12.9086 6.3364 12.0776 6.3364 11.2465 6.3364C11.2131 6.3364 11.2003 6.3201 11.2084 6.2875C11.299 5.91806 11.6272 5.6668 12.0211 5.66671C13.2471 5.66645 14.4732 5.66662 15.6992 5.66662C15.8046 5.66662 15.9099 5.66636 16.0153 5.66662C16.091 5.66688 16.1638 5.68146 16.2311 5.71666C16.3765 5.79278 16.4363 5.95362 16.3844 6.12754C16.3637 6.19672 16.3286 6.25888 16.2863 6.31735C16.2754 6.33245 16.2633 6.33807 16.2458 6.33658C16.2356 6.3357 16.2254 6.3364 16.2151 6.3364C15.3899 6.3364 14.5647 6.3364 13.7396 6.3364H13.7396Z" fill="#FDFEFE"/>
<path d="M9.88494 13.3239C9.68021 13.3239 9.47538 13.3232 9.27065 13.3246C9.23632 13.3249 9.22798 13.3186 9.23895 13.2836C9.25932 13.2182 9.2746 13.1512 9.29181 13.0848C9.29988 13.0535 9.31253 13.0242 9.32877 12.9963C9.3544 12.9522 9.38996 12.931 9.44351 12.9315C9.67608 12.9334 9.90865 12.9316 10.1412 12.9331C10.1725 12.9332 10.1845 12.9241 10.1893 12.8934C10.2007 12.8217 10.2025 12.7507 10.185 12.6801C10.1435 12.5122 9.99881 12.4065 9.80584 12.4006C9.51068 12.3915 9.28987 12.5215 9.1386 12.7683C9.00481 12.9866 8.95327 13.2249 9.0106 13.4783C9.06029 13.6981 9.2106 13.8321 9.43263 13.8668C9.64606 13.9002 9.84509 13.862 10.0296 13.7491C10.0967 13.708 10.1043 13.7094 10.1508 13.7714C10.2087 13.8485 10.2661 13.926 10.323 14.0039C10.3582 14.052 10.3564 14.0588 10.3066 14.0934C10.0523 14.2701 9.7673 14.339 9.46142 14.331C9.28162 14.3263 9.10717 14.2946 8.94493 14.2126C8.66899 14.0731 8.51702 13.8423 8.47031 13.5431C8.35794 12.8237 8.82685 12.1338 9.53535 11.9771C9.81085 11.9162 10.083 11.9304 10.3352 12.072C10.5712 12.2044 10.6955 12.4143 10.7336 12.6785C10.7578 12.8464 10.738 13.0106 10.6909 13.1724C10.6595 13.2805 10.6042 13.3234 10.4905 13.3237C10.2887 13.3243 10.0869 13.3239 9.88503 13.3239H9.88494Z" fill="#FDFDFE"/>
<path d="M21.7022 14.0631C21.4828 14.2433 21.2347 14.3084 20.9711 14.3074C20.7309 14.3066 20.5333 14.2008 20.3889 14.0075C20.2521 13.8243 20.2615 13.5718 20.4066 13.3649C20.5071 13.2214 20.6424 13.1189 20.7954 13.0379C21.0843 12.8852 21.392 12.8215 21.7177 12.847C21.7856 12.8522 21.7889 12.8584 21.7611 12.9214C21.7293 12.9935 21.6942 13.0641 21.6622 13.1361C21.6513 13.1605 21.636 13.1697 21.6094 13.1724C21.413 13.1928 21.2314 13.2563 21.0658 13.3643C21.0278 13.3891 20.9938 13.4189 20.9615 13.451C20.7946 13.6174 20.8804 13.862 21.0943 13.9174C21.3177 13.9752 21.5161 13.9114 21.6874 13.7615C21.7822 13.6785 21.8428 13.5729 21.8739 13.4507C21.9192 13.2725 21.9645 13.0944 22.0083 12.9158C22.0201 12.8675 22.0255 12.8178 22.0202 12.7679C22.007 12.6418 21.9341 12.564 21.8187 12.5223C21.6921 12.4766 21.5608 12.4746 21.4289 12.4834C21.2692 12.494 21.1137 12.5267 20.9628 12.5803C20.9351 12.5901 20.9255 12.5871 20.9205 12.5569C20.9101 12.4935 20.8946 12.431 20.883 12.3678C20.8577 12.23 20.9192 12.1248 21.0559 12.0783C21.1741 12.0382 21.2975 12.0208 21.4211 12.0089C21.6255 11.9892 21.8298 11.9876 22.032 12.0322C22.1709 12.063 22.3006 12.1143 22.406 12.2132C22.5565 12.3543 22.5964 12.5356 22.5878 12.7331C22.5795 12.9248 22.516 13.105 22.4684 13.2882C22.3834 13.6159 22.2939 13.9425 22.2076 14.2699C22.1996 14.3001 22.188 14.3113 22.1553 14.3109C21.9944 14.3091 21.8335 14.3096 21.6726 14.3106C21.6444 14.3108 21.6338 14.3077 21.6443 14.275C21.6655 14.2086 21.6814 14.1405 21.7022 14.0634V14.0631Z" fill="#FDFDFE"/>
<path d="M15.6889 14.0634C15.4702 14.2426 15.2226 14.3073 14.9588 14.3077C14.7303 14.308 14.5391 14.2102 14.3946 14.033C14.2309 13.8322 14.2413 13.5582 14.4159 13.3338C14.5402 13.174 14.7046 13.0676 14.8874 12.9866C15.1505 12.87 15.4254 12.8231 15.7121 12.8478C15.7691 12.8528 15.7748 12.8615 15.7521 12.9129C15.7179 12.9902 15.6796 13.0658 15.6453 13.1432C15.634 13.1687 15.6146 13.1698 15.5925 13.1723C15.3979 13.1944 15.2174 13.2566 15.0531 13.364C15.0052 13.3953 14.962 13.4322 14.9257 13.4769C14.8176 13.6096 14.8488 13.7926 14.9961 13.8806C15.1203 13.9548 15.2542 13.9512 15.3869 13.9156C15.6303 13.8505 15.7929 13.6971 15.8598 13.4519C15.9085 13.2731 15.9516 13.0927 15.9953 12.9126C16.0066 12.8658 16.0115 12.8176 16.0065 12.7689C15.9927 12.6365 15.9143 12.5583 15.7935 12.518C15.6708 12.477 15.5436 12.4747 15.4162 12.4835C15.255 12.4946 15.0981 12.5275 14.9459 12.5818C14.9234 12.5899 14.9136 12.5894 14.909 12.5618C14.8975 12.4942 14.8797 12.4276 14.8687 12.3599C14.8467 12.225 14.908 12.1253 15.0418 12.0784C15.1345 12.0459 15.2316 12.0307 15.3286 12.0185C15.5588 11.9892 15.7891 11.9826 16.0178 12.0323C16.1736 12.0661 16.3168 12.1263 16.426 12.2471C16.5529 12.3875 16.5831 12.5587 16.574 12.7411C16.565 12.9195 16.5075 13.0874 16.463 13.2579C16.3749 13.5952 16.283 13.9314 16.1946 14.2686C16.1858 14.3026 16.1723 14.3112 16.1388 14.3109C15.9794 14.309 15.8199 14.3091 15.6605 14.3109C15.6266 14.3112 15.6222 14.3028 15.6316 14.272C15.6517 14.2067 15.668 14.1403 15.6889 14.0636V14.0634Z" fill="#FDFDFE"/>
<path d="M13.1627 14.3306C12.8436 14.3229 12.5527 14.2411 12.2923 14.0613C12.2542 14.0351 12.224 14.0023 12.2078 13.9579C12.195 13.9228 12.2014 13.8907 12.2262 13.8643C12.3035 13.7825 12.3828 13.7025 12.4596 13.6203C12.4802 13.5981 12.4903 13.6119 12.5048 13.6247C12.6462 13.7499 12.8062 13.8398 12.9922 13.8792C13.1102 13.9042 13.2292 13.9163 13.348 13.8834C13.3995 13.8691 13.4454 13.8439 13.4805 13.8021C13.56 13.7074 13.5487 13.5851 13.4521 13.5082C13.3782 13.4493 13.2911 13.4145 13.2055 13.3772C13.0917 13.3278 12.9786 13.277 12.8724 13.2126C12.5995 13.0473 12.5051 12.8414 12.6 12.5029C12.6805 12.2157 12.8898 12.053 13.1699 11.9822C13.5258 11.8923 13.8619 11.9597 14.1802 12.1334C14.2175 12.1537 14.2517 12.1792 14.2772 12.2141C14.3077 12.256 14.3072 12.2943 14.2739 12.334C14.2033 12.4178 14.1306 12.5 14.0611 12.5847C14.0412 12.609 14.0294 12.5977 14.012 12.5852C13.8708 12.4829 13.7191 12.4038 13.544 12.3785C13.4686 12.3676 13.3929 12.3639 13.3175 12.3823C13.2918 12.3885 13.2672 12.3973 13.244 12.4096C13.0948 12.4879 13.079 12.6665 13.2128 12.7681C13.2925 12.8287 13.3845 12.867 13.475 12.9076C13.6015 12.9645 13.7277 13.0223 13.8414 13.1031C13.977 13.1994 14.0777 13.3207 14.0853 13.4939C14.0989 13.8026 13.9742 14.0411 13.705 14.1976C13.5554 14.2845 13.3906 14.32 13.2189 14.3274C13.1985 14.3282 13.1781 14.3296 13.1627 14.3305L13.1627 14.3306Z" fill="#FDFDFE"/>
<path d="M11.6499 12.2155C11.881 12.0103 12.1536 11.9878 12.4312 11.9848C12.5092 11.984 12.539 12.0266 12.52 12.1024C12.4917 12.2156 12.4635 12.3287 12.4351 12.4419C12.4166 12.5158 12.3877 12.5417 12.3116 12.5464C12.1398 12.5568 11.9725 12.5873 11.8132 12.6545C11.6666 12.7165 11.5601 12.8144 11.505 12.9693C11.3963 13.275 11.3153 13.5883 11.2347 13.9019C11.2031 14.0248 11.1739 14.1484 11.1448 14.2721C11.1387 14.298 11.1307 14.3109 11.0998 14.3106C10.9418 14.3088 10.7839 14.3086 10.6259 14.3106C10.5879 14.311 10.5869 14.2982 10.5951 14.2677C10.7066 13.8521 10.8124 13.4349 10.9297 13.021C11.0179 12.7094 11.0958 12.3952 11.1809 12.0828C11.2019 12.0058 11.2465 11.9696 11.3251 11.9694C11.4407 11.9691 11.5562 11.9702 11.6717 11.9688C11.7027 11.9684 11.7129 11.9735 11.7027 12.0076C11.6833 12.0723 11.669 12.1386 11.6498 12.2155H11.6499Z" fill="#FDFDFE"/>
<path d="M6.23033 13.7958C6.26948 13.6488 6.30794 13.5039 6.34666 13.3589C6.4744 12.881 6.60222 12.4033 6.73005 11.9255C6.7491 11.8542 6.80064 11.8056 6.86859 11.8062C7.09659 11.808 7.32486 11.7961 7.55269 11.8132C7.63038 11.8191 7.70501 11.8393 7.77235 11.8809C7.89069 11.954 7.9381 12.0797 7.90149 12.2235C7.85312 12.4133 7.71616 12.5052 7.53794 12.5501C7.42925 12.5775 7.31801 12.5776 7.20678 12.5767C7.12047 12.5759 7.03417 12.578 6.94787 12.5759C6.90318 12.5748 6.87254 12.5939 6.84893 12.6288C6.82417 12.6656 6.80924 12.7065 6.79836 12.7493C6.78291 12.81 6.76772 12.871 6.74998 12.9311C6.74094 12.9616 6.74647 12.9709 6.78018 12.9707C6.94691 12.9696 7.11371 12.9673 7.28035 12.9726C7.46998 12.9787 7.62292 13.0923 7.67016 13.2525C7.73161 13.4611 7.62582 13.6588 7.40677 13.7447C7.3174 13.7797 7.22434 13.7976 7.12864 13.798C6.83901 13.799 6.54946 13.7983 6.25983 13.7982C6.25122 13.7982 6.24262 13.7968 6.23042 13.7958H6.23033Z" fill="#0073C0"/>
</g>
<defs>
<clipPath id="clip0_301_5263">
<rect width="20.2" height="12" fill="white" transform="translate(4 4)"/>
</clipPath>
</defs>
</svg>
