<svg width="46" height="32" viewBox="0 0 46 32" fill="none" xmlns="http://www.w3.org/2000/svg">
<rect width="46" height="32" rx="4" fill="#0073C0"/>
<g clip-path="url(#clip0_301_5290)">
<path d="M6 24.2737C6 18.7628 6 13.252 6 7.74111C6.00454 7.71799 6.01083 7.69516 6.01346 7.6719C6.10126 6.92696 6.64426 6.28782 7.37398 6.0755C7.4846 6.04331 7.59917 6.02488 7.71184 6C17.7928 6 27.8738 6 37.9548 6C37.9624 6.012 37.9751 6.01127 37.9869 6.01302C38.7417 6.12481 39.2594 6.53891 39.5496 7.24141C39.6118 7.39213 39.637 7.55264 39.6667 7.7117V24.3029C39.6545 24.3104 39.6552 24.3233 39.6533 24.335C39.5216 25.1276 39.0736 25.652 38.3152 25.9137C38.1791 25.9606 38.036 25.9719 37.8964 26.0001H7.72648C7.69487 25.9728 7.65405 25.9813 7.61776 25.9744C6.83097 25.8244 6.31694 25.3676 6.07126 24.6063C6.03614 24.4975 6.0278 24.3836 6 24.2737ZM29.1108 10.7762C29.0825 10.8015 29.059 10.8221 29.0359 10.8432C28.0961 11.7001 27.1562 12.5568 26.2164 13.4137C25.2965 14.2524 24.3765 15.0913 23.4566 15.9301C23.1704 16.1912 22.8845 16.4527 22.5978 16.7131C22.4552 16.8426 22.2442 16.7991 22.1736 16.6268C22.1528 16.576 22.1528 16.5223 22.1528 16.4685C22.153 14.4837 22.1527 12.4988 22.1546 10.5141C22.1546 10.4461 22.136 10.4316 22.0706 10.4316C20.7417 10.4335 19.4126 10.4336 18.0837 10.4316C18.0154 10.4316 18.0032 10.445 18.0214 10.511C18.1835 11.1001 18.7229 11.5129 19.3351 11.5129C19.8838 11.5129 20.4324 11.5126 20.9811 11.5132C21.1008 11.5132 21.0823 11.5 21.0823 11.6127C21.0828 13.2537 21.0818 14.8947 21.0831 16.5356C21.0838 17.4879 22.0106 18.1488 22.9067 17.8326C23.2923 17.6966 23.6092 17.4556 23.9002 17.1695C24.4561 16.6227 25.024 16.088 25.5871 15.5485C26.2574 14.9062 26.928 14.2639 27.5984 13.6217C27.7208 13.5047 27.8431 13.3876 27.9688 13.2675C27.9859 13.3027 27.9787 13.332 27.9789 13.3598C27.9793 14.3547 27.9789 15.3495 27.9795 16.3444C27.9799 16.9115 28.3361 17.43 28.8655 17.6167C29.4126 17.8097 29.9044 17.7005 30.3237 17.3028C31.0381 16.6253 31.7461 15.9413 32.4567 15.2598C33.0863 14.6559 33.7157 14.0516 34.3454 13.4479C34.3583 13.4356 34.369 13.416 34.3975 13.4202V13.499C34.3975 14.4451 34.3968 15.3911 34.3978 16.3372C34.3984 16.9708 34.8198 17.5106 35.4277 17.6657C35.4901 17.6816 35.5004 17.6677 35.5004 17.6082C35.4991 15.382 35.4993 13.1558 35.4988 10.9297C35.4988 10.9121 35.5078 10.8913 35.4856 10.873C35.2955 11.0512 35.1057 11.229 34.9162 11.4071C34.0749 12.1981 33.2337 12.9896 32.3922 13.7805C31.6943 14.4362 30.9961 15.0914 30.2981 15.7469C30.053 15.9771 29.8085 16.2079 29.5628 16.4374C29.4844 16.5106 29.3909 16.5277 29.2914 16.4908C29.1904 16.4534 29.1384 16.3747 29.1271 16.269C29.124 16.24 29.1247 16.2106 29.1247 16.1814C29.1247 14.4111 29.1247 12.6409 29.1243 10.8707C29.1243 10.8424 29.1315 10.8129 29.1113 10.7759L29.1108 10.7762ZM22.6844 15.9162C22.709 15.9175 22.7188 15.8975 22.732 15.8855C23.1123 15.5396 23.4919 15.193 23.8717 14.8466C25.6414 13.2329 27.4113 11.6197 29.1803 10.0053C29.2706 9.92295 29.3662 9.87876 29.4848 9.93085C29.6042 9.98323 29.6452 10.0804 29.6452 10.2077C29.6438 11.9852 29.6442 13.7628 29.6442 15.5403V15.6372C29.6705 15.617 29.6862 15.6068 29.6995 15.5942C29.8258 15.4761 29.9518 15.3574 30.0778 15.239C31.0594 14.3163 32.0414 13.3938 33.0227 12.4706C33.8744 11.6692 34.7254 10.867 35.5768 10.065C35.613 10.0308 35.654 10.0059 35.7026 9.99464C35.8757 9.95484 36.021 10.084 36.021 10.2779C36.021 12.465 36.021 14.6521 36.021 16.8392C36.021 17.1001 36.0225 17.361 36.0198 17.6219C36.0192 17.6748 36.0364 17.6818 36.0827 17.6721C36.6696 17.5489 37.1345 16.9793 37.1348 16.3754C37.1358 14.3127 37.1353 12.2499 37.1351 10.1872C37.1351 10.0795 37.1222 9.97328 37.0963 9.86895C36.8417 8.84147 35.5784 8.47434 34.814 9.20567C34.483 9.52231 34.1529 9.83983 33.8222 10.1568C32.8845 11.0555 31.9467 11.9542 31.009 12.8528C30.9169 12.941 30.8242 13.0285 30.7188 13.1283V13.0317C30.7188 12.0881 30.7197 11.1446 30.7184 10.201C30.7175 9.62196 30.3757 9.12431 29.8407 8.91258C29.6247 8.82713 29.4004 8.81791 29.1723 8.82317C28.8346 8.83108 28.537 8.94301 28.2873 9.1685C28.0759 9.3596 27.8741 9.56138 27.6684 9.75877C27.1268 10.2784 26.5856 10.7984 26.0439 11.3179C25.3755 11.9586 24.7066 12.5991 24.0379 13.2395C23.969 13.3057 23.8994 13.3711 23.8205 13.446C23.8205 12.8052 23.8208 12.1812 23.8198 11.5571C23.8198 11.5205 23.8331 11.512 23.8666 11.5126C23.964 11.5144 24.0616 11.5111 24.1592 11.5136C24.5534 11.5236 24.8865 11.3776 25.1727 11.1155C25.3973 10.9098 25.6185 10.7005 25.8404 10.4919C25.8563 10.4768 25.8832 10.4676 25.8835 10.4355C25.8704 10.4348 25.8586 10.4336 25.8468 10.4336C24.8105 10.4336 23.7741 10.4343 22.7379 10.4317C22.6631 10.4316 22.6771 10.4724 22.6771 10.5139C22.6771 12.289 22.6771 14.0641 22.6774 15.8391C22.6774 15.8646 22.6704 15.8915 22.6841 15.9167L22.6844 15.9162ZM8.75543 17.0761C8.76699 17.0674 8.77533 17.0622 8.7822 17.0558C9.30048 16.5684 9.81862 16.081 10.3369 15.5936C11.1089 14.8674 11.8808 14.1412 12.6526 13.415C13.4832 12.6337 14.3135 11.8524 15.1441 11.0712C15.4724 10.7623 15.8005 10.4532 16.1293 10.1449C16.257 10.0252 16.439 10.0409 16.5372 10.1768C16.5814 10.238 16.5867 10.3066 16.5867 10.3783C16.5864 12.7799 16.5864 15.1815 16.5865 17.5833C16.5865 17.6705 16.5868 17.6705 16.6694 17.649C17.2658 17.493 17.6876 16.9487 17.6878 16.3328C17.6881 14.292 17.6881 12.2513 17.6872 10.2105C17.6872 10.1303 17.6841 10.0488 17.6699 9.97021C17.5728 9.43071 17.27 9.05334 16.7494 8.8801C16.2406 8.7108 15.7737 8.81981 15.3802 9.18342C14.9616 9.57031 14.5551 9.97021 14.1435 10.3648C13.6052 10.8809 13.0674 11.3975 12.5291 11.9134C11.8939 12.5221 11.2584 13.1302 10.6231 13.7388C10.1094 14.2309 9.60059 14.7285 9.08012 15.2134C8.78615 15.4874 8.57238 15.7952 8.53755 16.2062C8.51092 16.5205 8.58628 16.8085 8.75572 17.0764L8.75543 17.0761ZM14.9543 13.3763V13.4776C14.9543 14.4309 14.9543 15.3842 14.9543 16.3373C14.9543 16.9564 15.3883 17.5072 15.9897 17.6551C16.0453 17.6688 16.0548 17.6541 16.0548 17.6019C16.0538 15.4053 16.0539 13.2085 16.0533 11.0119C16.0533 10.9949 16.0643 10.9725 16.0372 10.9595C15.9192 11.0712 15.8008 11.1834 15.682 11.2952C14.5585 12.3515 13.4347 13.4075 12.3114 14.464C11.2678 15.4454 10.225 16.4275 9.18079 17.4083C9.14084 17.4458 9.13367 17.4629 9.18708 17.4955C9.71399 17.8167 10.4036 17.739 10.8477 17.3103C11.3474 16.828 11.8497 16.3486 12.3512 15.8681C13.1094 15.1416 13.8678 14.4154 14.6261 13.6892C14.7309 13.5888 14.8361 13.4889 14.9543 13.3762V13.3763ZM12.2556 20.6088C12.3436 20.5889 12.4143 20.5733 12.4848 20.5569C13.0781 20.4198 13.4931 20.0287 13.5107 19.3993C13.5202 19.062 13.4157 18.7707 13.156 18.547C12.8664 18.2977 12.5149 18.2046 12.1458 18.1743C11.7056 18.1383 11.2636 18.1499 10.823 18.1633C10.2598 18.1804 9.8271 18.5056 9.65034 19.0284C9.59123 19.2031 9.55128 19.3844 9.50329 19.5629C9.18533 20.7467 8.86795 21.9306 8.54882 23.1142C8.5336 23.1708 8.54618 23.1841 8.60383 23.184C9.45954 23.1809 10.3152 23.1844 11.1708 23.1765C11.5637 23.1729 11.9456 23.0959 12.3023 22.9243C12.6754 22.7447 12.9612 22.4781 13.0736 22.067C13.2145 21.5509 13.0973 21.0876 12.6301 20.7989C12.5162 20.7285 12.3917 20.6794 12.2558 20.6087L12.2556 20.6088ZM28.557 19.7688C28.5517 19.7663 28.5466 19.7638 28.5414 19.7612C28.5711 19.6488 28.6006 19.5363 28.6306 19.4239C28.639 19.3927 28.6457 19.3705 28.5959 19.3711C28.3839 19.3739 28.1716 19.3687 27.9597 19.3734C27.7786 19.3775 27.6407 19.4827 27.5987 19.6403C27.2898 20.798 26.982 21.956 26.6719 23.1135C26.6574 23.1676 26.6598 23.1849 26.7223 23.1843C27.0026 23.1812 27.283 23.1815 27.5633 23.1843C27.6157 23.1847 27.6319 23.1667 27.645 23.1177C27.7827 22.5981 27.9217 22.0788 28.0643 21.5605C28.1385 21.2912 28.1902 21.0147 28.3004 20.7562C28.4663 20.3665 28.772 20.159 29.1578 20.1691C29.5333 20.1791 29.7374 20.3984 29.7191 20.7723C29.7136 20.8847 29.6944 20.9947 29.6653 21.1033C29.4867 21.7705 29.3091 22.438 29.1281 23.1047C29.1095 23.173 29.1243 23.1853 29.1912 23.1844C29.4666 23.1809 29.7421 23.1818 30.0176 23.1841C30.0647 23.1846 30.0852 23.171 30.0975 23.1249C30.243 22.5772 30.3884 22.0295 30.5379 21.4828C30.6047 21.2392 30.6499 20.9886 30.7539 20.7565C30.9181 20.3905 31.1815 20.164 31.6033 20.1693C31.9731 20.174 32.1776 20.3819 32.173 20.7505C32.1714 20.8801 32.146 21.007 32.1124 21.1319C31.9352 21.7919 31.7577 22.4519 31.5786 23.1113C31.5635 23.1669 31.5689 23.1852 31.633 23.1844C31.9061 23.1811 32.1791 23.1808 32.4522 23.1847C32.5157 23.1856 32.5391 23.1648 32.5547 23.1053C32.737 22.4139 32.9238 21.7237 33.1058 21.0322C33.1816 20.7443 33.2417 20.4551 33.2013 20.1525C33.1409 19.7002 32.8183 19.3709 32.3676 19.3127C31.8781 19.2495 31.449 19.3864 31.0698 19.6961C30.9333 19.8076 30.8193 19.9404 30.7077 20.0759C30.6813 20.0544 30.6793 20.0259 30.6708 20.0016C30.5106 19.5449 30.1882 19.3111 29.7051 19.2965C29.2965 19.284 28.9353 19.3929 28.6435 19.6918C28.6167 19.7193 28.5863 19.7432 28.5574 19.7686L28.557 19.7688ZM22.2326 9.89397C23.6079 9.89397 24.9832 9.89397 26.3585 9.89397C26.3756 9.89397 26.3927 9.8928 26.4097 9.89427C26.4388 9.89675 26.459 9.88739 26.4772 9.86222C26.5475 9.76477 26.6061 9.66117 26.6406 9.54587C26.7271 9.256 26.6274 8.98808 26.3851 8.86107C26.2732 8.8024 26.1516 8.77811 26.0255 8.77767C25.8499 8.77708 25.6743 8.77767 25.4987 8.77767C23.4553 8.77767 21.4119 8.77738 19.3684 8.77781C18.712 8.77796 18.1651 9.19674 18.0139 9.81247C18.0006 9.86671 18.0218 9.89388 18.0776 9.89397C19.4627 9.89397 20.8476 9.89397 22.2327 9.89397H22.2326ZM15.8081 21.5399C16.1445 21.5399 16.4809 21.5406 16.8173 21.5396C17.0066 21.539 17.0988 21.4675 17.1512 21.2873C17.2296 21.0177 17.2627 20.744 17.2223 20.4643C17.1588 20.0238 16.9518 19.674 16.5584 19.4533C16.1381 19.2174 15.6843 19.1937 15.2253 19.2953C14.0445 19.5563 13.2629 20.7063 13.4502 21.9053C13.5281 22.4039 13.7814 22.7886 14.2413 23.021C14.5117 23.1577 14.8024 23.2106 15.1021 23.2184C15.6119 23.2317 16.0868 23.1168 16.5107 22.8224C16.5937 22.7648 16.5966 22.7534 16.5381 22.6732C16.4433 22.5434 16.3476 22.4142 16.251 22.2857C16.1733 22.1824 16.1609 22.1802 16.0491 22.2485C15.7415 22.4367 15.4098 22.5005 15.0541 22.4448C14.684 22.3868 14.4334 22.1635 14.3507 21.7971C14.2553 21.3748 14.3412 20.9776 14.564 20.6138C14.8162 20.2025 15.184 19.9859 15.6761 20.001C15.9977 20.0108 16.2389 20.1868 16.3081 20.4669C16.3372 20.5845 16.3341 20.7029 16.3153 20.8223C16.3072 20.8734 16.2872 20.8888 16.2351 20.8885C15.8475 20.8861 15.4598 20.8891 15.0722 20.8858C14.983 20.8851 14.9236 20.9204 14.881 20.9938C14.8539 21.0403 14.8328 21.0892 14.8194 21.1415C14.7907 21.2521 14.7652 21.3637 14.7313 21.4727C14.7132 21.5311 14.7269 21.5415 14.7841 21.5411C15.1253 21.5387 15.4667 21.5399 15.8079 21.5399H15.8081ZM35.5036 22.7718C35.4691 22.9003 35.4423 23.0138 35.407 23.1246C35.3896 23.1792 35.407 23.1841 35.4541 23.1838C35.7223 23.1822 35.9904 23.1814 36.2586 23.1844C36.3132 23.185 36.3325 23.1664 36.3458 23.116C36.4897 22.5703 36.6388 22.0261 36.7806 21.4799C36.8599 21.1745 36.9657 20.8744 36.9796 20.5547C36.9939 20.2255 36.9273 19.9235 36.6765 19.6882C36.5009 19.5236 36.2847 19.4378 36.0532 19.3866C35.7162 19.3121 35.3757 19.3149 35.0351 19.3477C34.829 19.3676 34.6233 19.3964 34.4264 19.4634C34.1985 19.5408 34.0961 19.7161 34.1382 19.9458C34.1576 20.0512 34.1833 20.1554 34.2007 20.261C34.2091 20.3115 34.2249 20.3165 34.2713 20.3C34.5225 20.2105 34.7819 20.1563 35.0481 20.1386C35.2679 20.1239 35.4869 20.1273 35.6976 20.2034C35.8902 20.2729 36.0116 20.4025 36.0336 20.6126C36.0424 20.696 36.0334 20.7789 36.0137 20.8592C35.9407 21.1568 35.8652 21.4537 35.7897 21.7508C35.738 21.9543 35.637 22.1303 35.4789 22.2687C35.1934 22.5185 34.8627 22.6249 34.4903 22.5285C34.1337 22.4361 33.9907 22.0285 34.2691 21.7512C34.3228 21.6976 34.3795 21.6482 34.4429 21.6068C34.7189 21.4266 35.0215 21.3207 35.3489 21.2869C35.3931 21.2824 35.4189 21.2672 35.4369 21.2263C35.4901 21.1063 35.5487 20.9887 35.6016 20.8686C35.648 20.7635 35.6425 20.7533 35.5293 20.7445C34.9865 20.702 34.4736 20.8083 33.9922 21.0627C33.7372 21.1975 33.5117 21.3686 33.3441 21.6076C33.1024 21.9525 33.0868 22.3734 33.3147 22.6787C33.5553 23.0009 33.8847 23.1773 34.285 23.1786C34.7246 23.18 35.1379 23.0716 35.5036 22.7714V22.7718ZM25.4814 22.7724C25.4467 22.9001 25.4195 23.0109 25.386 23.1198C25.3702 23.171 25.3777 23.185 25.4342 23.1844C25.6999 23.1815 25.9656 23.1815 26.2313 23.1844C26.2871 23.185 26.3096 23.1707 26.3244 23.1141C26.4716 22.552 26.6249 21.9916 26.7717 21.4296C26.8459 21.1454 26.9419 20.8655 26.9567 20.5682C26.9719 20.2641 26.9215 19.9789 26.71 19.7448C26.5279 19.5435 26.2893 19.4432 26.0297 19.3869C25.6485 19.3041 25.2647 19.315 24.8811 19.3638C24.7194 19.3843 24.5575 19.4096 24.403 19.4637C24.18 19.5418 24.0779 19.7081 24.1145 19.9328C24.1328 20.0456 24.1625 20.1566 24.1816 20.2694C24.1894 20.3153 24.2056 20.3162 24.2432 20.3027C24.4968 20.2122 24.7583 20.1574 25.0269 20.1388C25.2396 20.1242 25.4513 20.1279 25.6558 20.1964C25.8572 20.2637 25.988 20.3939 26.0108 20.6145C26.0193 20.6956 26.011 20.7761 25.9921 20.8539C25.9194 21.1542 25.8475 21.4547 25.7663 21.7528C25.6548 22.1616 25.3837 22.4171 24.9782 22.5257C24.757 22.5849 24.5338 22.5912 24.3268 22.4673C24.0814 22.3205 24.0293 22.0156 24.2094 21.7945C24.27 21.72 24.342 21.6586 24.4219 21.6063C24.6957 21.4274 24.9965 21.3236 25.3208 21.2869C25.3578 21.2827 25.39 21.2809 25.4088 21.2383C25.4661 21.1096 25.5299 20.9836 25.5868 20.8545C25.6247 20.7688 25.6152 20.7543 25.5202 20.7461C25.0423 20.7048 24.584 20.783 24.1456 20.9773C23.841 21.1123 23.5671 21.2897 23.3599 21.556C23.069 21.93 23.0516 22.3867 23.3243 22.7213C23.5652 23.0167 23.8839 23.1796 24.2646 23.1792C24.7042 23.1787 25.1171 23.0709 25.4814 22.7719V22.7724ZM21.2711 23.2178C21.2967 23.2163 21.3307 23.2138 21.3647 23.2125C21.6508 23.2002 21.9255 23.1411 22.1748 22.9963C22.6237 22.7354 22.8315 22.338 22.8087 21.8235C22.7959 21.5348 22.628 21.3326 22.4022 21.172C22.2127 21.0374 22.0024 20.9411 21.7916 20.8463C21.6407 20.7786 21.4875 20.7148 21.3545 20.6138C21.1315 20.4444 21.1578 20.1469 21.4064 20.0162C21.4454 19.9957 21.4862 19.9811 21.5291 19.9707C21.6546 19.9401 21.7807 19.9463 21.9066 19.9644C22.1984 20.0066 22.4512 20.1384 22.6865 20.3089C22.7155 20.3299 22.7352 20.3488 22.7684 20.3081C22.8843 20.1669 23.0053 20.03 23.123 19.8902C23.1786 19.8241 23.1793 19.7603 23.1285 19.6905C23.0861 19.6323 23.029 19.5898 22.9668 19.5559C22.4364 19.2663 21.876 19.1541 21.283 19.3039C20.8162 19.4219 20.4673 19.6931 20.3332 20.1718C20.175 20.736 20.3324 21.0791 20.7872 21.3547C20.9643 21.4621 21.1529 21.5466 21.3424 21.629C21.485 21.6911 21.6302 21.7491 21.7534 21.8473C21.9142 21.9755 21.9332 22.1793 21.8006 22.3371C21.7421 22.4067 21.6657 22.4487 21.5798 22.4726C21.3819 22.5274 21.1836 22.5072 20.9868 22.4655C20.6769 22.4 20.4101 22.2502 20.1745 22.0415C20.1504 22.0201 20.1336 21.9972 20.0992 22.034C19.9712 22.1711 19.839 22.3044 19.7103 22.4408C19.6689 22.4846 19.6582 22.5381 19.6795 22.5968C19.7065 22.6708 19.7568 22.7254 19.8203 22.7692C20.2544 23.0687 20.7392 23.2051 21.271 23.2179L21.2711 23.2178ZM18.7498 19.6926C18.7818 19.5644 18.8057 19.4539 18.838 19.3461C18.855 19.2893 18.838 19.2808 18.7864 19.2814C18.5938 19.2836 18.4012 19.282 18.2087 19.2824C18.0774 19.2827 18.0031 19.3431 17.9683 19.4715C17.8265 19.9921 17.6967 20.5158 17.5496 21.0351C17.3542 21.725 17.1778 22.4202 16.992 23.1129C16.9784 23.1638 16.9801 23.1852 17.0434 23.1844C17.3066 23.1811 17.5698 23.1814 17.8331 23.1844C17.8846 23.185 17.8979 23.1635 17.9081 23.1202C17.9564 22.9142 18.0053 22.7083 18.058 22.5033C18.1923 21.9806 18.3274 21.4584 18.5085 20.9489C18.6002 20.6908 18.7777 20.5275 19.0221 20.4243C19.2877 20.3121 19.5664 20.2613 19.8528 20.2441C19.9796 20.2363 20.0279 20.1931 20.0587 20.0699C20.1059 19.8813 20.1529 19.6927 20.2002 19.5041C20.2318 19.3778 20.1822 19.3067 20.0521 19.3082C19.5895 19.3131 19.1352 19.3506 18.7499 19.6926H18.7498Z" fill="#0073C0"/>
<path d="M29.1108 10.7762C29.131 10.8132 29.1239 10.8428 29.1239 10.871C29.1243 12.6412 29.1242 14.4115 29.1243 16.1817C29.1243 16.211 29.1236 16.2404 29.1266 16.2693C29.1381 16.3751 29.19 16.4537 29.291 16.4912C29.3903 16.528 29.484 16.5109 29.5624 16.4378C29.8081 16.2082 30.0526 15.9774 30.2977 15.7473C30.9956 15.0917 31.6939 14.4365 32.3917 13.7808C33.2332 12.9899 34.0744 12.1986 34.9158 11.4074C35.1053 11.2294 35.2952 11.0516 35.4852 10.8733C35.5074 10.8916 35.4983 10.9124 35.4983 10.93C35.4988 13.1561 35.4986 15.3823 35.4999 17.6085C35.4999 17.668 35.4897 17.6819 35.4272 17.666C34.8194 17.5109 34.398 16.9711 34.3974 16.3375C34.3964 15.3914 34.3971 14.4454 34.3971 13.4993V13.4206C34.3684 13.4163 34.3579 13.4359 34.345 13.4482C33.7152 14.0519 33.0859 14.6561 32.4563 15.2601C31.7457 15.9416 31.0376 16.6256 30.3233 17.3031C29.9041 17.7007 29.4123 17.8098 28.865 17.617C28.3356 17.4303 27.9795 16.9118 27.979 16.3447C27.9783 15.3498 27.979 14.355 27.9784 13.3601C27.9784 13.3322 27.9855 13.3029 27.9683 13.2678C27.8428 13.3879 27.7203 13.505 27.598 13.622C26.9275 14.2643 26.2569 14.9065 25.5866 15.5488C25.0236 16.0883 24.4557 16.6231 23.8998 17.1698C23.6089 17.456 23.2918 17.697 22.9063 17.833C22.0102 18.149 21.0834 17.4882 21.0826 16.5359C21.0813 14.8949 21.0823 13.2539 21.0819 11.613C21.0819 11.5003 21.1002 11.5135 20.9806 11.5135C20.4319 11.5129 19.8834 11.5132 19.3346 11.5132C18.7224 11.5132 18.1832 11.1004 18.021 10.5113C18.0028 10.4453 18.0151 10.4317 18.0833 10.4319C19.4122 10.4339 20.7413 10.4339 22.0702 10.4319C22.1354 10.4319 22.1542 10.4464 22.1542 10.5144C22.1521 12.4992 22.1526 14.484 22.1524 16.4688C22.1524 16.5226 22.1524 16.5762 22.1732 16.6271C22.2437 16.7995 22.4547 16.8429 22.5974 16.7134C22.8842 16.453 23.1699 16.1915 23.4562 15.9304C24.3761 15.0916 25.296 14.2528 26.216 13.414C27.1558 12.5571 28.0957 11.7002 29.0355 10.8435C29.0586 10.8224 29.082 10.8018 29.1104 10.7765L29.1108 10.7762Z" fill="#FDFEFE"/>
<path d="M22.6846 15.9161C22.671 15.8911 22.678 15.8642 22.6779 15.8385C22.6774 14.0635 22.6774 12.2884 22.6776 10.5134C22.6776 10.4718 22.6635 10.4308 22.7383 10.4311C23.7746 10.4339 24.8108 10.433 25.8472 10.433C25.8589 10.433 25.8707 10.4342 25.884 10.4349C25.8837 10.467 25.8569 10.4762 25.8408 10.4913C25.619 10.6999 25.3977 10.9092 25.1731 11.1149C24.8869 11.3771 24.5539 11.5232 24.1597 11.5131C24.0622 11.5106 23.9646 11.5138 23.867 11.512C23.8335 11.5115 23.8201 11.5199 23.8202 11.5565C23.8212 12.1806 23.8209 12.8047 23.8209 13.4454C23.8998 13.3705 23.9693 13.3051 24.0384 13.239C24.7071 12.5985 25.3759 11.958 26.0443 11.3173C26.5862 10.7978 27.1273 10.2778 27.6688 9.7582C27.8746 9.56081 28.0763 9.35903 28.2878 9.16793C28.5374 8.9423 28.835 8.83036 29.1727 8.8226C29.4007 8.81733 29.6252 8.82655 29.8411 8.91201C30.3761 9.12374 30.7179 9.62138 30.7188 10.2004C30.7201 11.144 30.7192 12.0875 30.7192 13.0312V13.1277C30.8244 13.0278 30.9172 12.9403 31.0094 12.8522C31.9472 11.9536 32.885 11.0549 33.8226 10.1562C34.1533 9.83926 34.4834 9.52174 34.8144 9.20509C35.5788 8.47377 36.8422 8.84104 37.0968 9.86838C37.1227 9.97286 37.1355 10.0791 37.1355 10.1866C37.1355 12.2494 37.1361 14.3121 37.1353 16.3748C37.135 16.9788 36.6701 17.5483 36.0832 17.6715C36.0369 17.6812 36.0198 17.6742 36.0203 17.6214C36.0229 17.3605 36.0214 17.0996 36.0214 16.8387C36.0214 14.6516 36.0214 12.4645 36.0214 10.2774C36.0214 10.0835 35.8761 9.95442 35.703 9.99407C35.6545 10.0052 35.6135 10.0302 35.5772 10.0645C34.726 10.8665 33.875 11.6686 33.0231 12.47C32.0419 13.3932 31.0599 14.3158 30.0782 15.2385C29.9522 15.357 29.8262 15.4755 29.6999 15.5936C29.6865 15.6062 29.6708 15.6163 29.6446 15.6366V15.5398C29.6446 13.7622 29.6442 11.9847 29.6457 10.2071C29.6457 10.0798 29.6047 9.98251 29.4853 9.93027C29.3666 9.87818 29.2709 9.92252 29.1808 10.0048C27.4117 11.6191 25.6419 13.2325 23.8722 14.846C23.4923 15.1924 23.1127 15.539 22.7324 15.8849C22.7193 15.8969 22.7093 15.9168 22.6849 15.9157L22.6846 15.9161Z" fill="#FDFEFE"/>
<path d="M8.75542 17.076C8.58598 16.8081 8.51062 16.5201 8.53725 16.2058C8.57208 15.7948 8.78586 15.4869 9.07982 15.213C9.6003 14.7281 10.1091 14.2306 10.6228 13.7384C11.2581 13.1298 11.8936 12.5217 12.5288 11.913C13.0672 11.397 13.605 10.8805 14.1432 10.3644C14.5547 9.96994 14.9613 9.56989 15.3799 9.18301C15.7734 8.81939 16.2403 8.71038 16.7491 8.87968C17.2699 9.05292 17.5725 9.43029 17.6696 9.96979C17.6838 10.0484 17.6867 10.1299 17.6869 10.2101C17.6878 12.2508 17.6878 14.2916 17.6875 16.3324C17.6875 16.9483 17.2656 17.4926 16.6691 17.6486C16.5865 17.6701 16.5862 17.6701 16.5862 17.5829C16.5862 15.1813 16.5861 12.7796 16.5864 10.3779C16.5864 10.3062 16.5811 10.2376 16.5369 10.1764C16.4387 10.0405 16.2567 10.0247 16.129 10.1445C15.8002 10.4528 15.4721 10.762 15.1438 11.0707C14.3132 11.852 13.4829 12.6333 12.6523 13.4145C11.8805 14.1408 11.1085 14.867 10.3366 15.5932C9.81847 16.0806 9.30019 16.5681 8.78191 17.0554C8.77503 17.062 8.76669 17.0669 8.75513 17.0757L8.75542 17.076Z" fill="#FDFDFE"/>
<path d="M14.9544 13.3763C14.8364 13.489 14.7311 13.5889 14.6262 13.6893C13.8678 14.4155 13.1094 15.1418 12.3513 15.8682C11.8499 16.3486 11.3474 16.8281 10.8479 17.3103C10.4038 17.7391 9.71414 17.8166 9.18722 17.4956C9.13396 17.4631 9.14099 17.446 9.18093 17.4084C10.2251 16.4276 11.268 15.4456 12.3115 14.4641C13.4349 13.4076 14.5586 12.3516 15.6821 11.2953C15.8009 11.1835 15.9193 11.0712 16.0374 10.9596C16.0644 10.9726 16.0535 10.995 16.0535 11.012C16.0541 13.2086 16.0539 15.4054 16.0549 17.602C16.0549 17.6542 16.0454 17.6688 15.9898 17.6552C15.3884 17.5073 14.9544 16.9564 14.9544 16.3374C14.9544 15.3841 14.9544 14.4308 14.9544 13.4777V13.3764V13.3763Z" fill="#FDFEFE"/>
<path d="M12.2558 20.6088C12.3919 20.6793 12.5162 20.7286 12.6301 20.799C13.0973 21.0877 13.2145 21.5509 13.0736 22.067C12.9612 22.4782 12.6754 22.7448 12.3023 22.9243C11.9456 23.096 11.5637 23.1729 11.1708 23.1766C10.3152 23.1846 9.45954 23.181 8.60383 23.1841C8.54604 23.1842 8.53345 23.1709 8.54882 23.1143C8.8678 21.9308 9.18533 20.7469 9.50329 19.563C9.55128 19.3845 9.59123 19.2033 9.65034 19.0285C9.8271 18.5056 10.2598 18.1805 10.823 18.1634C11.2636 18.1501 11.7056 18.1384 12.1458 18.1744C12.5149 18.2045 12.8664 18.2977 13.156 18.5471C13.4158 18.7708 13.5202 19.0621 13.5107 19.3994C13.4931 20.0287 13.078 20.4197 12.4848 20.557C12.4143 20.5732 12.3436 20.589 12.2556 20.6089L12.2558 20.6088ZM9.71721 22.3262C9.7377 22.3279 9.75189 22.3303 9.76623 22.3303C10.249 22.3304 10.7315 22.3316 11.2143 22.3298C11.3736 22.3292 11.5288 22.2994 11.6778 22.241C12.0429 22.0979 12.2192 21.7684 12.1168 21.4207C12.0381 21.1535 11.7833 20.9643 11.4671 20.9542C11.1895 20.9453 10.9114 20.9493 10.6335 20.951C10.5773 20.9513 10.5681 20.9359 10.5832 20.885C10.6127 20.7848 10.6382 20.6834 10.6638 20.582C10.6819 20.5107 10.7067 20.4425 10.7481 20.3812C10.7874 20.323 10.8385 20.2912 10.913 20.293C11.0567 20.2965 11.2006 20.293 11.3445 20.2943C11.5299 20.2959 11.7151 20.2956 11.8964 20.25C12.1936 20.1752 12.4217 20.022 12.5023 19.7057C12.5634 19.4658 12.4843 19.2564 12.2871 19.1347C12.1749 19.0653 12.0505 19.0317 11.921 19.0219C11.5413 18.9933 11.161 19.0132 10.7808 19.0102C10.6676 19.0093 10.5817 19.0902 10.5499 19.209C10.3369 20.0053 10.1238 20.8018 9.91095 21.5981C9.84642 21.8395 9.78233 22.0812 9.71707 22.3262H9.71721Z" fill="#FDFDFE"/>
<path d="M28.557 19.7688C28.5857 19.7432 28.6161 19.7193 28.643 19.692C28.9348 19.393 29.2961 19.2842 29.7046 19.2966C30.1878 19.3112 30.5103 19.5451 30.6704 20.0017C30.6789 20.026 30.681 20.0546 30.7072 20.0761C30.8189 19.9406 30.9329 19.8077 31.0694 19.6962C31.4485 19.3866 31.8777 19.2495 32.3671 19.3128C32.8178 19.3711 33.1406 19.7003 33.2009 20.1526C33.2413 20.4553 33.1811 20.7446 33.1053 21.0323C32.9233 21.7238 32.7366 22.414 32.5543 23.1054C32.5386 23.165 32.5152 23.1859 32.4517 23.1849C32.1787 23.1809 31.9056 23.1811 31.6326 23.1846C31.5685 23.1855 31.5631 23.167 31.5782 23.1114C31.7573 22.4519 31.9348 21.792 32.112 21.1321C32.1455 21.0071 32.1708 20.8803 32.1725 20.7506C32.1772 20.382 31.9727 20.1741 31.6029 20.1694C31.181 20.1642 30.9177 20.3907 30.7535 20.7566C30.6494 20.9887 30.6042 21.2393 30.5375 21.483C30.388 22.0295 30.2424 22.5772 30.0971 23.125C30.0848 23.1713 30.0644 23.1847 30.0172 23.1843C29.7416 23.1819 29.4661 23.1811 29.1907 23.1846C29.1239 23.1855 29.1091 23.1732 29.1277 23.1048C29.3087 22.4382 29.4863 21.7708 29.6648 21.1034C29.6938 20.9948 29.7131 20.8848 29.7187 20.7724C29.737 20.3986 29.5328 20.1792 29.1574 20.1693C28.7715 20.159 28.4659 20.3667 28.2999 20.7563C28.1897 21.0149 28.1381 21.2913 28.0639 21.5607C27.9212 22.079 27.7822 22.5983 27.6445 23.1179C27.6315 23.1667 27.6154 23.1849 27.5629 23.1844C27.2825 23.1817 27.0022 23.1814 26.7218 23.1844C26.6592 23.1852 26.6568 23.1679 26.6715 23.1136C26.9815 21.9562 27.2894 20.7982 27.5983 19.6405C27.6403 19.4829 27.7783 19.3777 27.9593 19.3736C28.1713 19.3689 28.3835 19.3739 28.5955 19.3712C28.6452 19.3706 28.6385 19.3929 28.6302 19.424C28.6002 19.5364 28.5706 19.6488 28.5409 19.7613C28.5462 19.7638 28.5513 19.7663 28.5566 19.7689L28.557 19.7688Z" fill="#FDFDFE"/>
<path d="M22.2327 9.89397C20.8476 9.89397 19.4627 9.89397 18.0776 9.89397C18.0218 9.89397 18.0006 9.8668 18.0139 9.81246C18.1651 9.19673 18.712 8.77795 19.3684 8.77781C21.4119 8.77737 23.4553 8.77766 25.4987 8.77766C25.6743 8.77766 25.8499 8.77722 26.0255 8.77766C26.1516 8.7781 26.273 8.80239 26.3851 8.86107C26.6274 8.98793 26.7272 9.25599 26.6406 9.54586C26.6062 9.66117 26.5477 9.76476 26.4772 9.86221C26.459 9.88738 26.4388 9.89675 26.4097 9.89426C26.3927 9.8928 26.3756 9.89397 26.3585 9.89397C24.9832 9.89397 23.6079 9.89397 22.2326 9.89397H22.2327Z" fill="#FDFEFE"/>
<path d="M15.8082 21.5399C15.467 21.5399 15.1256 21.5388 14.7844 21.5411C14.7272 21.5415 14.7133 21.5312 14.7316 21.4728C14.7655 21.3638 14.791 21.2521 14.8197 21.1415C14.8331 21.0893 14.8542 21.0404 14.8813 20.9939C14.924 20.9204 14.9833 20.8851 15.0725 20.8859C15.4601 20.8891 15.8477 20.8862 16.2354 20.8885C16.2875 20.8888 16.3075 20.8736 16.3155 20.8224C16.3344 20.703 16.3375 20.5846 16.3084 20.4669C16.2392 20.187 15.998 20.011 15.6764 20.001C15.1845 19.986 14.8165 20.2025 14.5643 20.6138C14.3413 20.9778 14.2555 21.3749 14.351 21.7972C14.4338 22.1636 14.6843 22.3869 15.0544 22.4448C15.4101 22.5004 15.7418 22.4368 16.0494 22.2486C16.1612 22.1801 16.1738 22.1824 16.2513 22.2857C16.3479 22.4142 16.4436 22.5434 16.5384 22.6732C16.5969 22.7534 16.594 22.7648 16.511 22.8225C16.0871 23.1169 15.6122 23.2317 15.1024 23.2184C14.8027 23.2107 14.512 23.1577 14.2416 23.021C13.7817 22.7885 13.5284 22.404 13.4505 21.9053C13.2632 20.7062 14.0447 19.5564 15.2256 19.2953C15.6847 19.1938 16.1383 19.2175 16.5587 19.4534C16.9521 19.674 17.1591 20.0239 17.2226 20.4643C17.263 20.7441 17.2299 21.0177 17.1515 21.2874C17.0991 21.4675 17.0069 21.5391 16.8176 21.5396C16.4812 21.5407 16.1448 21.5399 15.8084 21.5399H15.8082Z" fill="#FDFDFE"/>
<path d="M35.5037 22.7718C35.1379 23.0722 34.7246 23.1806 34.2852 23.179C33.8848 23.1777 33.5556 23.0014 33.3149 22.6792C33.0868 22.3738 33.1026 21.953 33.3443 21.6081C33.5118 21.369 33.7373 21.1981 33.9924 21.0632C34.4738 20.8086 34.9866 20.7025 35.5295 20.7449C35.6426 20.7537 35.6482 20.7639 35.6018 20.869C35.5488 20.9891 35.4903 21.1068 35.437 21.2268C35.4189 21.2674 35.3933 21.2828 35.3491 21.2873C35.0217 21.3213 34.719 21.4271 34.443 21.6072C34.3797 21.6485 34.3231 21.6981 34.2692 21.7516C33.991 22.0289 34.134 22.4366 34.4904 22.5289C34.8628 22.6253 35.1935 22.5189 35.479 22.2692C35.637 22.1307 35.738 21.9547 35.7898 21.7512C35.8653 21.4541 35.9408 21.1573 36.0138 20.8596C36.0336 20.7792 36.0425 20.6963 36.0337 20.6131C36.0116 20.403 35.8902 20.2733 35.6978 20.2038C35.4869 20.1276 35.268 20.1244 35.0482 20.139C34.7821 20.1567 34.5228 20.2111 34.2714 20.3004C34.2252 20.3168 34.2092 20.3118 34.2009 20.2615C34.1835 20.1558 34.1577 20.0516 34.1384 19.9463C34.0962 19.7165 34.1987 19.5413 34.4265 19.4638C34.6235 19.397 34.8292 19.368 35.0352 19.3481C35.3759 19.3153 35.7163 19.3125 36.0533 19.387C36.2848 19.4382 36.5011 19.5238 36.6767 19.6886C36.9275 19.9237 36.994 20.2259 36.9797 20.5551C36.9658 20.8747 36.86 21.175 36.7807 21.4803C36.6389 22.0264 36.4898 22.5707 36.346 23.1164C36.3327 23.1669 36.3133 23.1854 36.2588 23.1849C35.9907 23.1818 35.7225 23.1827 35.4543 23.1843C35.4073 23.1846 35.3898 23.1794 35.4072 23.125C35.4424 23.0143 35.4691 22.9008 35.5037 22.7722V22.7718Z" fill="#FDFDFE"/>
<path d="M25.4814 22.7723C25.1171 23.0711 24.7043 23.179 24.2646 23.1796C23.8839 23.18 23.5652 23.017 23.3243 22.7217C23.0514 22.3871 23.0688 21.9304 23.3599 21.5564C23.5671 21.2901 23.841 21.1127 24.1456 20.9777C24.5842 20.7834 25.0423 20.7052 25.5202 20.7465C25.6152 20.7547 25.6247 20.7692 25.5868 20.8549C25.5299 20.9838 25.4661 21.1098 25.4089 21.2387C25.39 21.2813 25.3576 21.2831 25.3208 21.2873C24.9965 21.324 24.6957 21.4278 24.4219 21.6067C24.342 21.659 24.27 21.7204 24.2094 21.7949C24.0293 22.016 24.0814 22.3211 24.3268 22.4677C24.5338 22.5915 24.757 22.5853 24.9782 22.5261C25.3838 22.4175 25.6548 22.1619 25.7663 21.7532C25.8475 21.4553 25.9194 21.1546 25.9921 20.8543C26.011 20.7765 26.0192 20.696 26.0108 20.6149C25.9879 20.3943 25.8572 20.2639 25.6558 20.1968C25.4513 20.1284 25.2394 20.1246 25.0269 20.1392C24.7583 20.1578 24.4968 20.2126 24.2432 20.3031C24.2056 20.3166 24.1894 20.3157 24.1816 20.2698C24.1625 20.1571 24.1329 20.046 24.1145 19.9332C24.0779 19.7085 24.18 19.5422 24.403 19.4641C24.5575 19.41 24.7194 19.3847 24.8811 19.3642C25.2647 19.3154 25.6485 19.3045 26.0297 19.3873C26.2893 19.4436 26.5279 19.5439 26.71 19.7452C26.9215 19.9793 26.9719 20.2646 26.9567 20.5686C26.9417 20.8659 26.8459 21.1458 26.7717 21.43C26.6248 21.992 26.4716 22.5524 26.3244 23.1145C26.3096 23.1711 26.2871 23.1854 26.2313 23.1848C25.9656 23.1818 25.6999 23.1819 25.4342 23.1848C25.3777 23.1854 25.3704 23.1714 25.386 23.1202C25.4195 23.0113 25.4467 22.9005 25.4814 22.7728V22.7723Z" fill="#FDFDFE"/>
<path d="M21.2711 23.2178C20.7394 23.2049 20.2544 23.0686 19.8204 22.769C19.7569 22.7253 19.7066 22.6707 19.6797 22.5967C19.6583 22.5381 19.669 22.4846 19.7104 22.4407C19.8392 22.3043 19.9713 22.171 20.0993 22.0339C20.1337 21.997 20.1506 22.02 20.1747 22.0414C20.4103 22.25 20.677 22.3999 20.9869 22.4654C21.1837 22.5071 21.382 22.5273 21.58 22.4724C21.6659 22.4486 21.7423 22.4066 21.8008 22.3369C21.9334 22.179 21.9145 21.9754 21.7535 21.8472C21.6303 21.749 21.4852 21.6909 21.3425 21.6289C21.1529 21.5465 20.9644 21.4618 20.7874 21.3545C20.3326 21.079 20.1751 20.7357 20.3333 20.1716C20.4675 19.693 20.8163 19.4217 21.2831 19.3038C21.8763 19.1539 22.4366 19.2663 22.967 19.5558C23.0292 19.5897 23.0863 19.6321 23.1287 19.6904C23.1795 19.7602 23.1787 19.824 23.1231 19.8901C23.0055 20.0298 22.8843 20.1668 22.7686 20.308C22.7354 20.3485 22.7156 20.3297 22.6866 20.3087C22.4514 20.1383 22.1985 20.0064 21.9067 19.9643C21.781 19.9461 21.6548 19.94 21.5292 19.9706C21.4863 19.981 21.4454 19.9956 21.4066 20.0161C21.158 20.1466 21.1317 20.4442 21.3547 20.6137C21.4875 20.7146 21.6409 20.7784 21.7917 20.8462C22.0026 20.941 22.2128 21.0373 22.4023 21.1719C22.6283 21.3324 22.7961 21.5346 22.8088 21.8233C22.8315 22.3378 22.6237 22.7352 22.1749 22.9961C21.9256 23.141 21.651 23.2001 21.3649 23.2124C21.3308 23.2138 21.2969 23.2162 21.2713 23.2177L21.2711 23.2178Z" fill="#FDFDFE"/>
<path d="M18.7498 19.6926C19.1351 19.3506 19.5894 19.3132 20.0519 19.3082C20.182 19.3067 20.2316 19.3778 20.2 19.5041C20.1529 19.6927 20.1058 19.8813 20.0585 20.0699C20.0276 20.1931 19.9795 20.2363 19.8526 20.2441C19.5663 20.2615 19.2875 20.3123 19.022 20.4243C18.7776 20.5276 18.6003 20.6908 18.5084 20.9489C18.3272 21.4584 18.1922 21.9806 18.0578 22.5033C18.0052 22.7082 17.9564 22.9142 17.908 23.1202C17.8979 23.1634 17.8844 23.185 17.8329 23.1844C17.5697 23.1814 17.3065 23.1811 17.0432 23.1844C16.9799 23.1852 16.9781 23.1638 16.9919 23.1129C17.1777 22.4203 17.354 21.725 17.5495 21.0351C17.6966 20.5158 17.8263 19.9921 17.9681 19.4715C18.0031 19.3431 18.0774 19.2827 18.2085 19.2824C18.4011 19.282 18.5937 19.2837 18.7862 19.2814C18.8379 19.2808 18.8549 19.2893 18.8379 19.3461C18.8055 19.4539 18.7817 19.5644 18.7496 19.6926H18.7498Z" fill="#FDFDFE"/>
<path d="M9.71722 22.3263C9.78248 22.0813 9.84657 21.8397 9.9111 21.5981C10.124 20.8017 10.337 20.0054 10.5501 19.2091C10.5818 19.0903 10.6677 19.0092 10.781 19.0103C11.161 19.0133 11.5414 18.9934 11.9211 19.022C12.0506 19.0318 12.175 19.0654 12.2873 19.1348C12.4845 19.2567 12.5635 19.4661 12.5025 19.7057C12.4219 20.0221 12.1936 20.1753 11.8966 20.2501C11.7154 20.2957 11.53 20.296 11.3446 20.2944C11.2008 20.2931 11.057 20.2966 10.9131 20.2931C10.8386 20.2913 10.7876 20.3231 10.7482 20.3813C10.707 20.4426 10.6821 20.5108 10.6639 20.5821C10.6382 20.6833 10.6129 20.7849 10.5833 20.8851C10.5682 20.936 10.5775 20.9514 10.6336 20.9511C10.9115 20.9493 11.1895 20.9454 11.4673 20.9543C11.7833 20.9644 12.0382 21.1538 12.1169 21.4208C12.2194 21.7685 12.043 22.098 11.678 22.2411C11.529 22.2995 11.3739 22.3293 11.2144 22.3299C10.7317 22.3317 10.2491 22.3305 9.76638 22.3304C9.75204 22.3304 9.7377 22.328 9.71736 22.3263H9.71722Z" fill="#0073C0"/>
</g>
<defs>
<clipPath id="clip0_301_5290">
<rect width="33.6667" height="20" fill="white" transform="translate(6 6)"/>
</clipPath>
</defs>
</svg>
