<svg width="58" height="40" viewBox="0 0 58 40" fill="none" xmlns="http://www.w3.org/2000/svg">
<rect width="58" height="40" rx="6" fill="#0073C0"/>
<g clip-path="url(#clip0_301_5317)">
<path d="M9 29.9284C9 23.3154 9 16.7024 9 10.0893C9.00544 10.0616 9.01299 10.0342 9.01615 10.0063C9.12151 9.11235 9.77312 8.34538 10.6488 8.0906C10.7815 8.05197 10.919 8.02985 11.0542 8C23.1514 8 35.2486 8 47.3458 8C47.3549 8.0144 47.3702 8.01352 47.3842 8.01563C48.2901 8.14978 48.9113 8.64669 49.2595 9.4897C49.3341 9.67055 49.3643 9.86317 49.4 10.054V29.9635C49.3854 29.9725 49.3863 29.9879 49.384 30.002C49.226 30.9531 48.6883 31.5825 47.7782 31.8964C47.6149 31.9528 47.4432 31.9663 47.2757 32.0002H11.0718C11.0338 31.9673 10.9849 31.9775 10.9413 31.9693C9.99717 31.7893 9.38033 31.2411 9.08551 30.3275C9.04337 30.1971 9.03336 30.0603 9 29.9284ZM36.733 13.7314C36.6989 13.7618 36.6709 13.7865 36.6431 13.8118C35.5153 14.8401 34.3875 15.8681 33.2597 16.8964C32.1558 17.9029 31.0518 18.9095 29.9479 19.9162C29.6045 20.2294 29.2614 20.5432 28.9174 20.8557C28.7462 21.0111 28.493 20.959 28.4083 20.7521C28.3834 20.6912 28.3834 20.6268 28.3834 20.5621C28.3836 18.1805 28.3832 15.7986 28.3855 13.4169C28.3855 13.3353 28.3632 13.3179 28.2847 13.3179C26.69 13.3202 25.0952 13.3203 23.5005 13.3179C23.4185 13.3179 23.4039 13.334 23.4257 13.4132C23.6202 14.1201 24.2674 14.6155 25.0021 14.6155C25.6606 14.6155 26.3188 14.6151 26.9773 14.6158C27.1209 14.6158 27.0988 14.6 27.0988 14.7352C27.0993 16.7045 27.0981 18.6737 27.0997 20.6427C27.1006 21.7855 28.2127 22.5786 29.2881 22.1992C29.7507 22.0359 30.1311 21.7467 30.4803 21.4034C31.1474 20.7472 31.8288 20.1056 32.5045 19.4582C33.3089 18.6874 34.1136 17.9167 34.9181 17.1461C35.0649 17.0056 35.2117 16.8651 35.3625 16.721C35.3831 16.7633 35.3745 16.7984 35.3747 16.8318C35.3752 18.0256 35.3747 19.2194 35.3754 20.4132C35.3759 21.0938 35.8033 21.7159 36.4386 21.94C37.0951 22.1716 37.6852 22.0406 38.1885 21.5634C39.0457 20.7504 39.8954 19.9295 40.748 19.1118C41.5036 18.3871 42.2588 17.6619 43.0145 16.9375C43.03 16.9227 43.0428 16.8992 43.077 16.9043V16.9987C43.077 18.1341 43.0762 19.2693 43.0774 20.4046C43.0781 21.1649 43.5838 21.8127 44.3132 21.9988C44.3882 22.018 44.4004 22.0013 44.4004 21.9298C44.3989 19.2584 44.3992 16.587 44.3985 13.9156C44.3985 13.8945 44.4094 13.8696 44.3827 13.8476C44.1546 14.0615 43.9269 14.2748 43.6995 14.4885C42.6899 15.4378 41.6804 16.3875 40.6706 17.3366C39.8332 18.1234 38.9953 18.9097 38.1577 19.6963C37.8636 19.9725 37.5702 20.2494 37.2754 20.5249C37.1813 20.6127 37.0691 20.6333 36.9497 20.589C36.8285 20.5441 36.766 20.4496 36.7525 20.3228C36.7488 20.2881 36.7497 20.2528 36.7497 20.2176C36.7497 18.0934 36.7497 15.9691 36.7492 13.8448C36.7492 13.8109 36.7578 13.7755 36.7335 13.731L36.733 13.7314ZM29.0213 19.8995C29.0508 19.9011 29.0626 19.877 29.0784 19.8626C29.5348 19.4475 29.9902 19.0315 30.4461 18.6159C32.5696 16.6795 34.6936 14.7437 36.8164 12.8064C36.9248 12.7075 37.0394 12.6545 37.1818 12.717C37.3251 12.7799 37.3743 12.8965 37.3743 13.0492C37.3725 15.1823 37.373 17.3153 37.373 19.4484V19.5646C37.4046 19.5404 37.4234 19.5281 37.4394 19.513C37.5909 19.3713 37.7421 19.2289 37.8933 19.0869C39.0713 17.9796 40.2497 16.8725 41.4272 15.7647C42.4493 14.803 43.4705 13.8404 44.4921 12.878C44.5356 12.8369 44.5848 12.8071 44.6431 12.7936C44.8508 12.7458 45.0252 12.9009 45.0252 13.1335C45.0252 15.758 45.0252 18.3826 45.0252 21.0071C45.0252 21.3202 45.027 21.6332 45.0238 21.9463C45.0231 22.0097 45.0436 22.0181 45.0993 22.0065C45.8036 21.8587 46.3614 21.1751 46.3618 20.4505C46.363 17.9752 46.3623 15.4999 46.3621 13.0246C46.3621 12.8954 46.3467 12.7679 46.3156 12.6427C46.0101 11.4098 44.494 10.9692 43.5768 11.8468C43.1796 12.2268 42.7835 12.6078 42.3866 12.9881C41.2614 14.0666 40.1361 15.1451 39.0108 16.2233C38.9003 16.3292 38.789 16.4342 38.6626 16.554V16.4381C38.6626 15.3057 38.6636 14.1735 38.662 13.0412C38.661 12.3463 38.2508 11.7492 37.6089 11.4951C37.3497 11.3926 37.0805 11.3815 36.8068 11.3878C36.4015 11.3973 36.0444 11.5316 35.7448 11.8022C35.4911 12.0315 35.2489 12.2737 35.0021 12.5105C34.3522 13.134 33.7027 13.7581 33.0527 14.3814C32.2506 15.1503 31.448 15.9189 30.6455 16.6874C30.5628 16.7668 30.4792 16.8453 30.3846 16.9352C30.3846 16.1663 30.385 15.4174 30.3837 14.6685C30.3837 14.6246 30.3997 14.6144 30.4399 14.6151C30.5569 14.6172 30.674 14.6134 30.7911 14.6164C31.2641 14.6283 31.6638 14.4531 32.0072 14.1386C32.2767 13.8917 32.5422 13.6406 32.8084 13.3902C32.8276 13.3721 32.8599 13.3611 32.8602 13.3226C32.8444 13.3217 32.8304 13.3203 32.8162 13.3203C31.5726 13.3203 30.3289 13.3212 29.0854 13.3181C28.9957 13.3179 29.0126 13.3669 29.0126 13.4167C29.0126 15.5468 29.0126 17.6769 29.0129 19.8069C29.0129 19.8375 29.0045 19.8698 29.021 19.9L29.0213 19.8995ZM12.3065 21.2914C12.3204 21.2808 12.3304 21.2747 12.3386 21.267C12.9606 20.6821 13.5823 20.0972 14.2043 19.5123C15.1307 18.6409 16.0569 17.7694 16.9831 16.898C17.9798 15.9605 18.9762 15.0228 19.9729 14.0854C20.3669 13.7147 20.7606 13.3439 21.1551 12.9739C21.3084 12.8303 21.5269 12.8491 21.6447 13.0122C21.6977 13.0856 21.704 13.1679 21.704 13.254C21.7037 16.1359 21.7037 19.0178 21.7038 21.9C21.7038 22.0046 21.7042 22.0046 21.8032 21.9788C22.5189 21.7916 23.0252 21.1384 23.0253 20.3994C23.0257 17.9504 23.0257 15.5015 23.0246 13.0526C23.0246 12.9563 23.0209 12.8585 23.0039 12.7643C22.8873 12.1169 22.524 11.664 21.8993 11.4561C21.2888 11.253 20.7284 11.3838 20.2563 11.8201C19.7539 12.2844 19.2661 12.7643 18.7722 13.2378C18.1262 13.8571 17.4809 14.4769 16.8349 15.0961C16.0727 15.8265 15.3101 16.5563 14.5477 17.2865C13.9312 17.877 13.3207 18.4742 12.6961 19.0561C12.3434 19.3848 12.0869 19.7543 12.0451 20.2475C12.0131 20.6247 12.1035 20.9702 12.3069 21.2917L12.3065 21.2914ZM19.7452 16.8516V16.9731C19.7452 18.1171 19.7452 19.261 19.7452 20.4048C19.7452 21.1477 20.266 21.8087 20.9876 21.9862C21.0543 22.0025 21.0658 21.9849 21.0658 21.9223C21.0645 19.2863 21.0647 16.6502 21.064 14.0143C21.064 13.9939 21.0772 13.967 21.0447 13.9514C20.903 14.0854 20.7609 14.2201 20.6184 14.3542C19.2702 15.6218 17.9217 16.889 16.5737 18.1568C15.3214 19.3344 14.0699 20.513 12.8169 21.69C12.769 21.7349 12.7604 21.7554 12.8245 21.7946C13.4568 22.18 14.2843 22.0868 14.8173 21.5723C15.4169 20.9936 16.0197 20.4183 16.6214 19.8417C17.5313 18.9699 18.4414 18.0985 19.3513 17.227C19.477 17.1066 19.6033 16.9866 19.7452 16.8514V16.8516ZM16.5068 25.5306C16.6123 25.5067 16.6971 25.4879 16.7817 25.4683C17.4938 25.3037 17.9917 24.8344 18.0128 24.0792C18.0242 23.6745 17.8988 23.3249 17.5872 23.0564C17.2397 22.7572 16.8179 22.6455 16.3749 22.6092C15.8467 22.566 15.3163 22.5798 14.7876 22.596C14.1117 22.6165 13.5925 23.0067 13.3804 23.6341C13.3095 23.8437 13.2615 24.0613 13.2039 24.2755C12.8224 25.696 12.4415 27.1167 12.0586 28.537C12.0403 28.605 12.0554 28.621 12.1246 28.6208C13.1514 28.6171 14.1783 28.6213 15.205 28.6118C15.6764 28.6075 16.1347 28.5151 16.5628 28.3091C17.0105 28.0937 17.3535 27.7738 17.4883 27.2804C17.6574 26.661 17.5168 26.1051 16.9561 25.7587C16.8195 25.6742 16.6701 25.6152 16.5069 25.5304L16.5068 25.5306ZM36.0684 24.5226C36.0621 24.5196 36.0559 24.5166 36.0496 24.5134C36.0853 24.3786 36.1207 24.2435 36.1567 24.1087C36.1667 24.0713 36.1748 24.0446 36.1151 24.0453C35.8607 24.0486 35.6059 24.0425 35.3517 24.0481C35.1343 24.053 34.9689 24.1793 34.9185 24.3684C34.5478 25.7576 34.1784 27.1473 33.8063 28.5362C33.7889 28.6011 33.7917 28.6218 33.8667 28.6211C34.2031 28.6175 34.5396 28.6178 34.876 28.6211C34.9388 28.6217 34.9583 28.6001 34.974 28.5413C35.1392 27.9177 35.306 27.2946 35.4772 26.6726C35.5662 26.3494 35.6282 26.0177 35.7604 25.7074C35.9595 25.2398 36.3263 24.9908 36.7894 25.003C37.2399 25.0149 37.4849 25.2781 37.4629 25.7267C37.4563 25.8616 37.4333 25.9936 37.3983 26.1239C37.1841 26.9246 36.9709 27.7256 36.7537 28.5256C36.7314 28.6076 36.7492 28.6224 36.8294 28.6213C37.1599 28.6171 37.4905 28.6182 37.8211 28.621C37.8777 28.6215 37.9023 28.6052 37.917 28.5499C38.0915 27.8926 38.2661 27.2354 38.4455 26.5794C38.5256 26.287 38.5799 25.9863 38.7047 25.7078C38.9017 25.2686 39.2178 24.9968 39.724 25.0031C40.1677 25.0088 40.4132 25.2583 40.4076 25.7006C40.4056 25.8561 40.3753 26.0084 40.3349 26.1583C40.1222 26.9502 39.9092 27.7423 39.6943 28.5335C39.6762 28.6003 39.6827 28.6222 39.7596 28.6213C40.0873 28.6173 40.4149 28.6169 40.7426 28.6217C40.8188 28.6227 40.8469 28.5978 40.8657 28.5263C41.0845 27.6967 41.3085 26.8684 41.5269 26.0386C41.6179 25.6932 41.6901 25.3461 41.6416 24.9829C41.5691 24.4402 41.1819 24.0451 40.6411 23.9752C40.0537 23.8994 39.5387 24.0637 39.0838 24.4353C38.92 24.5691 38.7832 24.7285 38.6492 24.8911C38.6176 24.8653 38.6152 24.8311 38.605 24.8019C38.4127 24.2539 38.0259 23.9733 37.4461 23.9558C36.9558 23.9408 36.5223 24.0715 36.1722 24.4302C36.14 24.4632 36.1035 24.4918 36.0689 24.5224L36.0684 24.5226ZM28.4791 12.6728C30.1295 12.6728 31.7798 12.6728 33.4302 12.6728C33.4507 12.6728 33.4713 12.6714 33.4916 12.6731C33.5266 12.6761 33.5508 12.6649 33.5726 12.6347C33.657 12.5177 33.7273 12.3934 33.7687 12.255C33.8725 11.9072 33.7529 11.5857 33.4621 11.4333C33.3278 11.3629 33.1819 11.3337 33.0305 11.3332C32.8198 11.3325 32.6091 11.3332 32.3984 11.3332C29.9463 11.3332 27.4942 11.3329 25.0421 11.3334C24.2544 11.3336 23.5981 11.8361 23.4167 12.575C23.4007 12.6401 23.4261 12.6727 23.4931 12.6728C25.1552 12.6728 26.8172 12.6728 28.4793 12.6728H28.4791ZM20.7697 26.6479C21.1734 26.6479 21.5771 26.6488 21.9807 26.6475C22.208 26.6468 22.3186 26.561 22.3814 26.3448C22.4756 26.0212 22.5152 25.6929 22.4668 25.3571C22.3906 24.8286 22.1421 24.4088 21.6701 24.144C21.1657 23.8609 20.6212 23.8325 20.0703 23.9543C18.6533 24.2676 17.7155 25.6476 17.9403 27.0863C18.0337 27.6847 18.3376 28.1464 18.8895 28.4252C19.214 28.5892 19.5629 28.6528 19.9225 28.6621C20.5342 28.678 21.1042 28.5402 21.6129 28.1869C21.7125 28.1177 21.716 28.104 21.6457 28.0078C21.5319 27.8521 21.4171 27.697 21.3012 27.5429C21.208 27.4189 21.1931 27.4163 21.0589 27.4983C20.6898 27.7241 20.2918 27.8006 19.8649 27.7337C19.4208 27.6642 19.1201 27.3962 19.0209 26.9566C18.9064 26.4498 19.0094 25.9731 19.2769 25.5366C19.5794 25.043 20.0208 24.7831 20.6113 24.8012C20.9973 24.813 21.2866 25.0242 21.3697 25.3603C21.4046 25.5015 21.401 25.6435 21.3783 25.7868C21.3686 25.8481 21.3446 25.8665 21.2821 25.8662C20.8169 25.8633 20.3518 25.8669 19.8867 25.863C19.7796 25.8621 19.7083 25.9044 19.6572 25.9926C19.6247 26.0484 19.5994 26.1071 19.5833 26.1698C19.5488 26.3025 19.5183 26.4365 19.4776 26.5673C19.4558 26.6373 19.4723 26.6498 19.5409 26.6493C19.9504 26.6465 20.3601 26.6479 20.7695 26.6479H20.7697ZM44.4043 28.1262C44.3629 28.2803 44.3307 28.4166 44.2884 28.5495C44.2675 28.615 44.2884 28.621 44.345 28.6206C44.6668 28.6187 44.9885 28.6176 45.3103 28.6213C45.3758 28.622 45.399 28.5997 45.415 28.5391C45.5876 27.8844 45.7665 27.2314 45.9367 26.5759C46.0318 26.2094 46.1588 25.8493 46.1755 25.4656C46.1927 25.0706 46.1128 24.7082 45.8118 24.4258C45.6011 24.2283 45.3416 24.1254 45.0638 24.0639C44.6594 23.9745 44.2508 23.9779 43.8421 24.0172C43.5948 24.0411 43.348 24.0757 43.1116 24.1561C42.8382 24.249 42.7153 24.4593 42.7659 24.735C42.7891 24.8614 42.82 24.9865 42.8409 25.1132C42.8509 25.1738 42.8698 25.1798 42.9255 25.1599C43.227 25.0527 43.5383 24.9875 43.8577 24.9663C44.1214 24.9487 44.3843 24.9527 44.6371 25.0441C44.8682 25.1275 45.014 25.283 45.0403 25.5352C45.0508 25.6353 45.0401 25.7346 45.0164 25.831C44.9288 26.1882 44.8382 26.5445 44.7476 26.9009C44.6856 27.1451 44.5644 27.3564 44.3746 27.5225C44.0321 27.8222 43.6352 27.9499 43.1884 27.8342C42.7604 27.7234 42.5889 27.2342 42.9229 26.9014C42.9873 26.8372 43.0554 26.7778 43.1315 26.7281C43.4626 26.512 43.8257 26.3848 44.2187 26.3443C44.2717 26.3388 44.3026 26.3206 44.3242 26.2716C44.3882 26.1276 44.4584 25.9864 44.522 25.8423C44.5776 25.7162 44.5709 25.7039 44.4352 25.6934C43.7838 25.6425 43.1683 25.7699 42.5907 26.0753C42.2846 26.237 42.014 26.4423 41.813 26.7292C41.5229 27.143 41.5041 27.648 41.7777 28.0145C42.0663 28.4011 42.4616 28.6127 42.942 28.6143C43.4695 28.6161 43.9655 28.4859 44.4043 28.1256V28.1262ZM32.3777 28.1269C32.3361 28.2802 32.3034 28.4131 32.2632 28.5437C32.2443 28.6052 32.2532 28.622 32.321 28.6213C32.6399 28.6178 32.9587 28.6178 33.2776 28.6213C33.3445 28.622 33.3715 28.6048 33.3893 28.5369C33.5659 27.8624 33.7499 27.1899 33.9261 26.5155C34.0151 26.1745 34.1303 25.8386 34.148 25.4818C34.1663 25.1169 34.1059 24.7747 33.852 24.4938C33.6335 24.2521 33.3471 24.1319 33.0356 24.0643C32.5782 23.9649 32.1177 23.9781 31.6573 24.0365C31.4632 24.0611 31.269 24.0915 31.0836 24.1565C30.816 24.2502 30.6935 24.4497 30.7374 24.7194C30.7593 24.8548 30.795 24.9879 30.818 25.1232C30.8273 25.1784 30.8468 25.1794 30.8919 25.1633C31.1962 25.0546 31.5099 24.9889 31.8323 24.9666C32.0875 24.9491 32.3415 24.9534 32.587 25.0356C32.8286 25.1164 32.9856 25.2727 33.013 25.5375C33.0232 25.6347 33.0132 25.7313 32.9905 25.8247C32.9032 26.185 32.817 26.5457 32.7196 26.9034C32.5858 27.394 32.2604 27.7005 31.7739 27.8308C31.5084 27.9019 31.2406 27.9095 30.9921 27.7608C30.6977 27.5846 30.6352 27.2187 30.8513 26.9534C30.924 26.864 31.0104 26.7903 31.1063 26.7276C31.4348 26.5129 31.7958 26.3884 32.1849 26.3443C32.2293 26.3392 32.268 26.3371 32.2906 26.286C32.3593 26.1315 32.4358 25.9803 32.5041 25.8254C32.5496 25.7225 32.5382 25.7051 32.4242 25.6953C31.8508 25.6458 31.3008 25.7396 30.7748 25.9727C30.4092 26.1348 30.0805 26.3476 29.8319 26.6672C29.4828 27.116 29.4619 27.664 29.7892 28.0656C30.0782 28.4201 30.4606 28.6155 30.9175 28.615C31.445 28.6145 31.9405 28.4851 32.3777 28.1263V28.1269ZM27.3253 28.6614C27.356 28.6596 27.3968 28.6566 27.4377 28.655C27.781 28.6403 28.1106 28.5693 28.4098 28.3955C28.9485 28.0824 29.1978 27.6055 29.1704 26.9882C29.1551 26.6417 28.9536 26.3991 28.6826 26.2064C28.4552 26.0449 28.2029 25.9294 27.9499 25.8156C27.7689 25.7343 27.585 25.6577 27.4254 25.5366C27.1578 25.3332 27.1894 24.9763 27.4877 24.8195C27.5344 24.7949 27.5834 24.7773 27.6349 24.7649C27.7855 24.7282 27.9369 24.7355 28.0879 24.7573C28.438 24.8079 28.7414 24.9661 29.0238 25.1707C29.0586 25.1959 29.0823 25.2186 29.1221 25.1698C29.2612 25.0003 29.4064 24.836 29.5476 24.6683C29.6143 24.5889 29.6152 24.5124 29.5542 24.4286C29.5033 24.3587 29.4348 24.3078 29.3602 24.2671C28.7237 23.9196 28.0512 23.7849 27.3395 23.9647C26.7794 24.1062 26.3608 24.4318 26.1998 25.0061C26.01 25.6832 26.1989 26.0949 26.7446 26.4256C26.9571 26.5545 27.1834 26.656 27.4108 26.7548C27.582 26.8293 27.7562 26.899 27.9041 27.0168C28.097 27.1706 28.1199 27.4152 27.9608 27.6045C27.8905 27.6881 27.7989 27.7385 27.6958 27.7671C27.4582 27.8329 27.2203 27.8087 26.9841 27.7587C26.6123 27.68 26.2922 27.5002 26.0095 27.2498C25.9805 27.2242 25.9603 27.1966 25.919 27.2408C25.7654 27.4054 25.6068 27.5653 25.4523 27.729C25.4026 27.7815 25.3898 27.8457 25.4154 27.9162C25.4477 28.005 25.5082 28.0705 25.5844 28.123C26.1053 28.4824 26.6871 28.6461 27.3251 28.6615L27.3253 28.6614ZM24.2998 24.4311C24.3382 24.2773 24.3668 24.1447 24.4056 24.0153C24.426 23.9471 24.4056 23.937 24.3436 23.9377C24.1126 23.9403 23.8815 23.9384 23.6504 23.9389C23.4929 23.9392 23.4037 24.0118 23.3619 24.1658C23.1918 24.7905 23.036 25.4189 22.8596 26.0421C22.625 26.87 22.4134 27.7042 22.1904 28.5355C22.1741 28.5966 22.1762 28.6222 22.252 28.6213C22.5679 28.6173 22.8838 28.6176 23.1997 28.6213C23.2615 28.622 23.2775 28.5962 23.2898 28.5442C23.3477 28.297 23.4064 28.05 23.4696 27.804C23.6308 27.1768 23.7928 26.5501 24.0102 25.9387C24.1203 25.6289 24.3333 25.433 24.6265 25.3092C24.9452 25.1745 25.2797 25.1136 25.6233 25.0929C25.7756 25.0836 25.8335 25.0318 25.8704 24.8839C25.9271 24.6576 25.9835 24.4312 26.0402 24.2049C26.0781 24.0534 26.0186 23.968 25.8625 23.9698C25.3075 23.9758 24.7622 24.0207 24.2999 24.4311H24.2998Z" fill="#0073C0"/>
<path d="M36.733 13.7314C36.7572 13.7758 36.7486 13.8113 36.7486 13.8452C36.7492 15.9695 36.749 18.0937 36.7492 20.218C36.7492 20.2531 36.7483 20.2884 36.752 20.3232C36.7657 20.4501 36.828 20.5444 36.9492 20.5894C37.0684 20.6336 37.1808 20.6131 37.2749 20.5253C37.5697 20.2498 37.8631 19.9729 38.1572 19.6967C38.9948 18.91 39.8327 18.1238 40.6701 17.3369C41.6799 16.3879 42.6893 15.4383 43.699 14.4889C43.9264 14.2752 44.1543 14.0619 44.3822 13.848C44.4089 13.8699 44.398 13.8949 44.398 13.9159C44.3985 16.5874 44.3983 19.2588 44.3999 21.9302C44.3999 22.0016 44.3876 22.0183 44.3126 21.9992C43.5833 21.813 43.0776 21.1653 43.0769 20.405C43.0756 19.2696 43.0765 18.1345 43.0765 16.9991V16.9046C43.0421 16.8995 43.0294 16.9231 43.014 16.9378C42.2583 17.6623 41.5031 18.3873 40.7475 19.1121C39.8948 19.9299 39.0452 20.7507 38.1879 21.5637C37.6849 22.0408 37.0947 22.1718 36.438 21.9403C35.8027 21.7163 35.3754 21.0942 35.3748 20.4136C35.374 19.2198 35.3748 18.0259 35.3741 16.8321C35.3741 16.7986 35.3826 16.7635 35.362 16.7213C35.2114 16.8655 35.0644 17.006 34.9176 17.1464C34.1131 17.9171 33.3083 18.6877 32.504 19.4586C31.8283 20.106 31.1468 20.7478 30.4798 21.4038C30.1307 21.7472 29.7502 22.0364 29.2875 22.1995C28.2122 22.5788 27.1 21.7858 27.0992 20.6431C27.0976 18.6739 27.0988 16.7046 27.0983 14.7356C27.0983 14.6004 27.1202 14.6162 26.9768 14.6162C26.3183 14.6155 25.66 14.6158 25.0016 14.6158C24.2669 14.6158 23.6199 14.1205 23.4251 13.4136C23.4034 13.3344 23.4181 13.3181 23.4999 13.3182C25.0946 13.3207 26.6895 13.3207 28.2842 13.3182C28.3625 13.3182 28.385 13.3356 28.385 13.4173C28.3825 15.799 28.3831 18.1808 28.3829 20.5625C28.3829 20.6271 28.3829 20.6914 28.4078 20.7525C28.4925 20.9593 28.7457 21.0115 28.9169 20.8561C29.261 20.5435 29.6039 20.2298 29.9474 19.9165C31.0513 18.9099 32.1552 17.9034 33.2592 16.8967C34.387 15.8685 35.5148 14.8402 36.6426 13.8122C36.6703 13.7869 36.6984 13.7621 36.7325 13.7318L36.733 13.7314Z" fill="#FDFEFE"/>
<path d="M29.0215 19.8992C29.0052 19.8692 29.0136 19.8369 29.0134 19.8062C29.0129 17.6761 29.0129 15.546 29.0131 13.416C29.0131 13.3661 28.9962 13.3169 29.086 13.3173C30.3295 13.3206 31.573 13.3196 32.8167 13.3196C32.8307 13.3196 32.8448 13.321 32.8608 13.3219C32.8604 13.3603 32.8283 13.3714 32.809 13.3895C32.5428 13.6399 32.2773 13.8909 32.0077 14.1378C31.6643 14.4525 31.2647 14.6277 30.7916 14.6156C30.6747 14.6126 30.5576 14.6165 30.4404 14.6144C30.4002 14.6137 30.3841 14.6239 30.3843 14.6678C30.3855 15.4166 30.3851 16.1655 30.3851 16.9344C30.4798 16.8445 30.5632 16.766 30.6461 16.6867C31.4485 15.9181 32.2511 15.1496 33.0532 14.3807C33.7034 13.7573 34.3527 13.1333 35.0026 12.5098C35.2495 12.2729 35.4916 12.0308 35.7453 11.8014C36.0449 11.5307 36.402 11.3964 36.8073 11.387C37.0809 11.3807 37.3502 11.3918 37.6094 11.4943C38.2513 11.7484 38.6615 12.3456 38.6626 13.0404C38.6641 14.1728 38.6631 15.305 38.6631 16.4373V16.5532C38.7893 16.4333 38.9007 16.3283 39.0113 16.2226C40.1366 15.1443 41.262 14.0658 42.3871 12.9874C42.784 12.607 43.1801 12.226 43.5773 11.846C44.4946 10.9684 46.0106 11.4092 46.3161 12.642C46.3472 12.7674 46.3627 12.8948 46.3627 13.0239C46.3627 15.4992 46.3634 17.9744 46.3623 20.4497C46.362 21.1745 45.8041 21.8579 45.0998 22.0058C45.0443 22.0174 45.0238 22.0089 45.0243 21.9456C45.0275 21.6325 45.0257 21.3194 45.0257 21.0063C45.0257 18.3818 45.0257 15.7573 45.0257 13.1328C45.0257 12.9001 44.8514 12.7452 44.6436 12.7928C44.5853 12.8062 44.5362 12.8362 44.4926 12.8773C43.4712 13.8397 42.45 14.8023 41.4277 15.764C40.2502 16.8717 39.0719 17.9788 37.8938 19.0861C37.7427 19.2283 37.5915 19.3705 37.4399 19.5122C37.4238 19.5273 37.405 19.5395 37.3736 19.5639V19.4476C37.3736 17.3146 37.373 15.1815 37.3748 13.0485C37.3748 12.8957 37.3256 12.7789 37.1823 12.7163C37.0399 12.6537 36.9251 12.707 36.8169 12.8056C34.6941 14.7429 32.5703 16.6789 30.4466 18.6152C29.9908 19.0308 29.5353 19.4468 29.0789 19.8618C29.0631 19.8762 29.0512 19.9001 29.0219 19.8987L29.0215 19.8992Z" fill="#FDFEFE"/>
<path d="M12.3065 21.2912C12.1032 20.9697 12.0127 20.6241 12.0447 20.2469C12.0865 19.7537 12.343 19.3843 12.6958 19.0556C13.3204 18.4737 13.9309 17.8767 14.5474 17.286C15.3098 16.5557 16.0724 15.826 16.8346 15.0955C17.4806 14.4764 18.126 13.8566 18.7719 13.2373C19.2656 12.7639 19.7536 12.2838 20.2559 11.8196C20.7281 11.3832 21.2884 11.2524 21.8989 11.4556C22.5238 11.6635 22.887 12.1163 23.0035 12.7637C23.0206 12.858 23.0241 12.9558 23.0243 13.052C23.0253 15.501 23.0253 17.9499 23.025 20.3988C23.025 21.1379 22.5187 21.7911 21.8029 21.9782C21.7038 22.0041 21.7035 22.0041 21.7035 21.8994C21.7035 19.0175 21.7033 16.1355 21.7037 13.2534C21.7037 13.1674 21.6973 13.085 21.6443 13.0116C21.5265 12.8485 21.3081 12.8295 21.1548 12.9734C20.7602 13.3433 20.3666 13.7143 19.9725 14.0848C18.9759 15.0223 17.9794 15.9599 16.9828 16.8974C16.0566 17.7689 15.1301 18.6403 14.2039 19.5118C13.5822 20.0966 12.9602 20.6817 12.3383 21.2664C12.33 21.2743 12.32 21.2803 12.3062 21.2908L12.3065 21.2912Z" fill="#FDFDFE"/>
<path d="M19.7453 16.8516C19.6036 16.9868 19.4774 17.1067 19.3515 17.2271C18.4414 18.0986 17.5313 18.9702 16.6216 19.8418C16.0199 20.4183 15.4169 20.9937 14.8174 21.5724C14.2845 22.0869 13.457 22.18 12.8247 21.7947C12.7608 21.7558 12.7692 21.7352 12.8171 21.6901C14.0701 20.5131 15.3216 19.3347 16.5739 18.1569C17.9218 16.8891 19.2704 15.6219 20.6185 14.3543C20.7611 14.2202 20.9032 14.0855 21.0449 13.9515C21.0774 13.9672 21.0642 13.994 21.0642 14.0144C21.0649 16.6503 21.0647 19.2865 21.0659 21.9224C21.0659 21.9851 21.0545 22.0026 20.9878 21.9863C20.2661 21.8088 19.7453 21.1477 19.7453 20.405C19.7453 19.261 19.7453 18.117 19.7453 16.9732V16.8517V16.8516Z" fill="#FDFEFE"/>
<path d="M16.5069 25.5306C16.6702 25.6152 16.8195 25.6744 16.9561 25.7589C17.5168 26.1053 17.6574 26.6612 17.4883 27.2805C17.3535 27.7739 17.0105 28.0939 16.5628 28.3093C16.1347 28.5153 15.6764 28.6076 15.205 28.612C14.1783 28.6217 13.1514 28.6173 12.1246 28.621C12.0552 28.6211 12.0401 28.6052 12.0586 28.5372C12.4414 27.1171 12.8224 25.6964 13.2039 24.2757C13.2615 24.0615 13.3095 23.8441 13.3804 23.6343C13.5925 23.0069 14.1117 22.6167 14.7876 22.5962C15.3163 22.5802 15.8467 22.5661 16.3749 22.6093C16.8179 22.6455 17.2397 22.7574 17.5872 23.0566C17.899 23.325 18.0242 23.6746 18.0128 24.0794C17.9917 24.8346 17.4936 25.3038 16.7817 25.4685C16.6971 25.4879 16.6123 25.5069 16.5068 25.5308L16.5069 25.5306ZM13.4607 27.5915C13.4852 27.5936 13.5023 27.5964 13.5195 27.5964C14.0987 27.5966 14.6778 27.598 15.2571 27.5959C15.4483 27.5952 15.6346 27.5594 15.8134 27.4893C16.2515 27.3176 16.463 26.9222 16.3401 26.505C16.2457 26.1843 15.94 25.9573 15.5605 25.9452C15.2274 25.9345 14.8936 25.9392 14.5602 25.9413C14.4928 25.9417 14.4817 25.9232 14.4998 25.8621C14.5353 25.7418 14.5658 25.6202 14.5965 25.4985C14.6183 25.413 14.648 25.3311 14.6977 25.2576C14.7449 25.1877 14.8062 25.1496 14.8956 25.1517C15.068 25.1559 15.2408 25.1517 15.4134 25.1533C15.6358 25.1552 15.8581 25.1549 16.0757 25.1001C16.4323 25.0103 16.7061 24.8265 16.8028 24.4469C16.876 24.1591 16.7812 23.9078 16.5445 23.7617C16.4098 23.6785 16.2606 23.6381 16.1052 23.6264C15.6495 23.5921 15.1932 23.616 14.737 23.6123C14.6011 23.6113 14.498 23.7084 14.4599 23.8509C14.2043 24.8065 13.9486 25.7622 13.6931 26.7178C13.6157 27.0075 13.5388 27.2976 13.4605 27.5915H13.4607Z" fill="#FDFDFE"/>
<path d="M36.0684 24.5225C36.1028 24.4917 36.1393 24.4631 36.1717 24.4303C36.5218 24.0716 36.9553 23.9409 37.4455 23.9558C38.0253 23.9734 38.4123 24.254 38.6044 24.802C38.6146 24.8312 38.6173 24.8654 38.6487 24.8912C38.7827 24.7286 38.9194 24.5692 39.0833 24.4354C39.5382 24.0638 40.0532 23.8993 40.6406 23.9753C41.1814 24.0452 41.5687 24.4403 41.6411 24.983C41.6895 25.3463 41.6174 25.6935 41.5264 26.0387C41.308 26.8685 41.0839 27.6968 40.8651 28.5264C40.8464 28.5979 40.8183 28.623 40.7421 28.6218C40.4144 28.617 40.0868 28.6172 39.7591 28.6214C39.6822 28.6225 39.6757 28.6003 39.6938 28.5336C39.9087 27.7422 40.1217 26.9503 40.3343 26.1584C40.3745 26.0085 40.4049 25.8562 40.407 25.7007C40.4126 25.2584 40.1672 25.0089 39.7235 25.0032C39.2172 24.9969 38.9012 25.2687 38.7042 25.7079C38.5793 25.9864 38.5251 26.2871 38.445 26.5795C38.2655 27.2353 38.0908 27.8925 37.9165 28.55C37.9017 28.6054 37.8773 28.6216 37.8206 28.6211C37.49 28.6183 37.1593 28.6172 36.8289 28.6214C36.7486 28.6225 36.7309 28.6077 36.7532 28.5257C36.9704 27.7257 37.1836 26.9249 37.3978 26.124C37.4326 25.9937 37.4557 25.8617 37.4624 25.7268C37.4844 25.2782 37.2394 25.015 36.7888 25.0031C36.3258 24.9908 35.959 25.2399 35.7599 25.7075C35.6277 26.0178 35.5657 26.3495 35.4767 26.6727C35.3055 27.2947 35.1387 27.9178 34.9734 28.5413C34.9578 28.6 34.9385 28.6218 34.8755 28.6212C34.539 28.6179 34.2026 28.6176 33.8662 28.6212C33.791 28.6221 33.7882 28.6014 33.8058 28.5363C34.1778 27.1473 34.5473 25.7577 34.9179 24.3685C34.9683 24.1794 35.1339 24.0531 35.3511 24.0482C35.6056 24.0426 35.8602 24.0486 36.1146 24.0454C36.1743 24.0447 36.1662 24.0714 36.1562 24.1088C36.1202 24.2436 36.0847 24.3785 36.0491 24.5135C36.0554 24.5165 36.0616 24.5195 36.0679 24.5226L36.0684 24.5225Z" fill="#FDFDFE"/>
<path d="M28.4793 12.6727C26.8172 12.6727 25.1552 12.6727 23.4931 12.6727C23.4261 12.6727 23.4007 12.6401 23.4167 12.5749C23.5981 11.836 24.2544 11.3335 25.0421 11.3333C27.4942 11.3328 29.9463 11.3331 32.3984 11.3331C32.6091 11.3331 32.8198 11.3326 33.0305 11.3331C33.1819 11.3336 33.3276 11.3628 33.4621 11.4332C33.7529 11.5854 33.8727 11.9071 33.7687 12.255C33.7275 12.3933 33.6572 12.5176 33.5726 12.6346C33.5508 12.6648 33.5266 12.676 33.4916 12.673C33.4713 12.6713 33.4507 12.6727 33.4302 12.6727C31.7798 12.6727 30.1295 12.6727 28.4791 12.6727H28.4793Z" fill="#FDFEFE"/>
<path d="M20.7699 26.6478C20.3604 26.6478 19.9508 26.6464 19.5413 26.6492C19.4726 26.6498 19.456 26.6373 19.4779 26.5672C19.5186 26.4364 19.5492 26.3024 19.5836 26.1697C19.5998 26.107 19.6251 26.0484 19.6575 25.9925C19.7088 25.9044 19.7799 25.8621 19.887 25.8629C20.3522 25.8668 20.8173 25.8633 21.2824 25.8661C21.3449 25.8665 21.369 25.8482 21.3787 25.7867C21.4013 25.6435 21.405 25.5014 21.3701 25.3602C21.287 25.0243 20.9976 24.8131 20.6117 24.8012C20.0214 24.7831 19.5797 25.0429 19.2772 25.5365C19.0096 25.9732 18.9065 26.4498 19.0212 26.9565C19.1206 27.3962 19.4212 27.6641 19.8653 27.7337C20.2921 27.8004 20.6902 27.724 21.0593 27.4982C21.1934 27.416 21.2085 27.4188 21.3016 27.5428C21.4175 27.697 21.5323 27.852 21.6461 28.0078C21.7163 28.104 21.7128 28.1177 21.6132 28.1869C21.1046 28.5401 20.5346 28.678 19.9228 28.662C19.5632 28.6527 19.2143 28.5891 18.8899 28.4251C18.338 28.1461 18.034 27.6847 17.9406 27.0863C17.7159 25.6473 18.6537 24.2675 20.0707 23.9543C20.6217 23.8324 21.166 23.8609 21.6705 24.1439C22.1425 24.4087 22.3909 24.8285 22.4671 25.3571C22.5156 25.6928 22.4759 26.0211 22.3818 26.3448C22.3189 26.5609 22.2083 26.6468 21.9811 26.6475C21.5774 26.6487 21.1737 26.6478 20.7701 26.6478H20.7699Z" fill="#FDFDFE"/>
<path d="M44.4045 28.1261C43.9655 28.4866 43.4695 28.6167 42.9422 28.6147C42.4618 28.6132 42.0667 28.4016 41.7778 28.0149C41.5041 27.6485 41.5231 27.1435 41.8131 26.7296C42.0142 26.4427 42.2848 26.2376 42.5908 26.0757C43.1685 25.7702 43.7839 25.6429 44.4354 25.6938C44.5711 25.7044 44.5778 25.7166 44.5221 25.8427C44.4586 25.9869 44.3883 26.1281 44.3244 26.272C44.3026 26.3208 44.2719 26.3393 44.2189 26.3447C43.8261 26.3855 43.4628 26.5124 43.1316 26.7286C43.0556 26.7781 42.9877 26.8376 42.923 26.9019C42.5892 27.2346 42.7608 27.7238 43.1885 27.8346C43.6354 27.9503 44.0322 27.8227 44.3748 27.5229C44.5644 27.3568 44.6856 27.1456 44.7478 26.9013C44.8384 26.5449 44.929 26.1886 45.0166 25.8315C45.0403 25.7349 45.051 25.6355 45.0405 25.5356C45.0139 25.2835 44.8682 25.1279 44.6373 25.0445C44.3843 24.953 44.1216 24.9491 43.8579 24.9667C43.5385 24.988 43.2273 25.0533 42.9257 25.1604C42.8702 25.18 42.851 25.1741 42.841 25.1137C42.8201 24.9869 42.7892 24.8619 42.7661 24.7355C42.7155 24.4598 42.8384 24.2494 43.1118 24.1565C43.3481 24.0763 43.595 24.0415 43.8422 24.0177C44.251 23.9783 44.6596 23.975 45.064 24.0644C45.3418 24.1258 45.6013 24.2285 45.812 24.4262C46.113 24.7084 46.1928 25.071 46.1756 25.4661C46.159 25.8496 46.032 26.2099 45.9368 26.5763C45.7667 27.2316 45.5878 27.8848 45.4152 28.5396C45.3992 28.6002 45.376 28.6225 45.3105 28.6218C44.9888 28.6181 44.667 28.6191 44.3451 28.6211C44.2888 28.6214 44.2677 28.6153 44.2886 28.5499C44.3309 28.417 44.3629 28.2809 44.4045 28.1266V28.1261Z" fill="#FDFDFE"/>
<path d="M32.3777 28.1268C31.9405 28.4854 31.4452 28.6148 30.9175 28.6155C30.4606 28.616 30.0782 28.4204 29.7892 28.0661C29.4617 27.6645 29.4826 27.1165 29.8318 26.6677C30.0805 26.3481 30.4092 26.1353 30.7748 25.9732C31.301 25.7401 31.8508 25.6463 32.4242 25.6958C32.5382 25.7056 32.5496 25.723 32.5041 25.8259C32.4358 25.9806 32.3593 26.1318 32.2906 26.2865C32.268 26.3376 32.2292 26.3397 32.1849 26.3448C31.7958 26.3889 31.4348 26.5134 31.1063 26.7281C31.0104 26.7908 30.924 26.8645 30.8513 26.9539C30.6352 27.2192 30.6977 27.5853 30.9921 27.7613C31.2406 27.9098 31.5084 27.9024 31.7739 27.8313C32.2606 27.701 32.5858 27.3943 32.7196 26.9039C32.817 26.5464 32.9032 26.1855 32.9905 25.8252C33.0132 25.7318 33.023 25.6352 33.013 25.538C32.9854 25.2732 32.8286 25.1167 32.587 25.0361C32.3415 24.9541 32.0873 24.9496 31.8323 24.9671C31.5099 24.9894 31.1962 25.0551 30.8919 25.1638C30.8467 25.1799 30.8273 25.1789 30.818 25.1237C30.795 24.9885 30.7595 24.8553 30.7374 24.7199C30.6935 24.4502 30.816 24.2507 31.0836 24.157C31.269 24.092 31.4632 24.0616 31.6573 24.037C32.1177 23.9786 32.5782 23.9654 33.0356 24.0648C33.3471 24.1324 33.6335 24.2527 33.8519 24.4943C34.1059 24.7752 34.1663 25.1176 34.148 25.4823C34.1301 25.8391 34.0151 26.175 33.926 26.516C33.7498 27.1904 33.5659 27.8629 33.3893 28.5374C33.3715 28.6053 33.3445 28.6225 33.2776 28.6218C32.9587 28.6181 32.6399 28.6183 32.321 28.6218C32.2532 28.6225 32.2444 28.6057 32.2632 28.5442C32.3034 28.4136 32.3361 28.2807 32.3777 28.1274V28.1268Z" fill="#FDFDFE"/>
<path d="M27.3253 28.6613C26.6872 28.6459 26.1053 28.4822 25.5845 28.1228C25.5083 28.0703 25.4479 28.0048 25.4156 27.916C25.39 27.8457 25.4028 27.7815 25.4525 27.7288C25.607 27.5651 25.7656 27.4052 25.9192 27.2406C25.9605 27.1964 25.9807 27.224 26.0096 27.2496C26.2923 27.5 26.6124 27.6798 26.9843 27.7585C27.2205 27.8085 27.4584 27.8327 27.696 27.7669C27.7991 27.7383 27.8907 27.6879 27.961 27.6043C28.12 27.4148 28.0974 27.1704 27.9042 27.0166C27.7564 26.8988 27.5822 26.8291 27.411 26.7546C27.1834 26.6558 26.9573 26.5541 26.7448 26.4254C26.1991 26.0948 26.0102 25.6828 26.2 25.0059C26.361 24.4316 26.7796 24.106 27.3397 23.9645C28.0516 23.7847 28.7239 23.9196 29.3604 24.2669C29.435 24.3076 29.5035 24.3585 29.5544 24.4284C29.6153 24.5122 29.6145 24.5887 29.5477 24.6681C29.4066 24.8358 29.2612 25.0001 29.1223 25.1696C29.0824 25.2182 29.0587 25.1956 29.024 25.1705C28.7416 24.9659 28.4382 24.8077 28.0881 24.7571C27.9372 24.7353 27.7857 24.728 27.6351 24.7647C27.5836 24.7771 27.5344 24.7947 27.4879 24.8193C27.1896 24.9759 27.158 25.3331 27.4256 25.5364C27.585 25.6575 27.769 25.7341 27.9501 25.8154C28.2031 25.9292 28.4554 26.0447 28.6828 26.2063C28.9539 26.3989 29.1553 26.6415 29.1706 26.988C29.1978 27.6053 28.9485 28.0822 28.4099 28.3953C28.1107 28.5692 27.7812 28.6401 27.4379 28.6548C27.397 28.6566 27.3562 28.6594 27.3255 28.6612L27.3253 28.6613Z" fill="#FDFDFE"/>
<path d="M24.2997 24.4311C24.7621 24.0207 25.3073 23.9758 25.8623 23.9698C26.0184 23.968 26.0779 24.0534 26.04 24.2049C25.9835 24.4312 25.9269 24.6576 25.8702 24.8839C25.8332 25.0317 25.7754 25.0835 25.6232 25.0929C25.2795 25.1137 24.945 25.1747 24.6263 25.3092C24.3331 25.4331 24.1203 25.6289 24.01 25.9387C23.7926 26.5501 23.6306 27.1767 23.4694 27.8039C23.4062 28.0498 23.3477 28.297 23.2896 28.5442C23.2775 28.596 23.2613 28.622 23.1995 28.6213C22.8836 28.6176 22.5677 28.6173 22.2519 28.6213C22.1758 28.6222 22.1737 28.5966 22.1902 28.5354C22.4132 27.7044 22.6248 26.87 22.8594 26.0421C23.0359 25.4189 23.1916 24.7905 23.3618 24.1657C23.4037 24.0118 23.4929 23.9392 23.6502 23.9389C23.8813 23.9384 24.1124 23.9405 24.3435 23.9377C24.4055 23.937 24.4258 23.9471 24.4055 24.0153C24.3666 24.1447 24.338 24.2772 24.2996 24.4311H24.2997Z" fill="#FDFDFE"/>
<path d="M13.4607 27.5914C13.539 27.2975 13.6159 27.0076 13.6933 26.7177C13.9488 25.762 14.2045 24.8064 14.4601 23.8509C14.4982 23.7083 14.6013 23.611 14.7372 23.6122C15.1932 23.6159 15.6497 23.592 16.1054 23.6263C16.2608 23.6381 16.41 23.6784 16.5447 23.7617C16.7814 23.9079 16.8762 24.1592 16.803 24.4468C16.7062 24.8264 16.4323 25.0103 16.0759 25.1C15.8585 25.1548 15.636 25.1551 15.4136 25.1532C15.241 25.1516 15.0684 25.1558 14.8957 25.1516C14.8064 25.1495 14.7451 25.1876 14.6979 25.2575C14.6483 25.3311 14.6185 25.4129 14.5967 25.4984C14.5658 25.6199 14.5354 25.7418 14.5 25.8621C14.4819 25.9232 14.4929 25.9416 14.5604 25.9413C14.8938 25.9391 15.2274 25.9344 15.5607 25.9451C15.94 25.9572 16.2459 26.1844 16.3403 26.5049C16.4632 26.9221 16.2516 27.3175 15.8136 27.4892C15.6348 27.5593 15.4487 27.5951 15.2573 27.5958C14.678 27.5979 14.0989 27.5965 13.5197 27.5964C13.5025 27.5964 13.4852 27.5935 13.4608 27.5914H13.4607Z" fill="#0073C0"/>
</g>
<defs>
<clipPath id="clip0_301_5317">
<rect width="40.4" height="24" fill="white" transform="translate(9 8)"/>
</clipPath>
</defs>
</svg>
