<svg width="34" height="24" viewBox="0 0 34 24" fill="none" xmlns="http://www.w3.org/2000/svg">
<rect width="34" height="24" rx="4" fill="#0073C0"/>
<g clip-path="url(#clip0_301_5236)">
<path d="M4 18.6189C4 14.2103 4 9.80157 4 5.39289C4.00363 5.37439 4.00866 5.35613 4.01077 5.33752C4.081 4.74157 4.51541 4.23026 5.09919 4.0604C5.18768 4.03465 5.27934 4.0199 5.36948 4C13.4343 4 21.4991 4 29.5638 4C29.5699 4.0096 29.5801 4.00901 29.5895 4.01042C30.1934 4.09985 30.6075 4.43113 30.8397 4.99313C30.8894 5.1137 30.9096 5.24212 30.9333 5.36936V18.6423C30.9236 18.6483 30.9242 18.6586 30.9227 18.668C30.8173 19.3021 30.4589 19.7216 29.8522 19.9309C29.7433 19.9685 29.6288 19.9775 29.5171 20.0001H5.38118C5.3559 19.9782 5.32324 19.985 5.29421 19.9795C4.66478 19.8595 4.25355 19.4941 4.05701 18.885C4.02891 18.798 4.02224 18.7068 4 18.6189ZM22.4887 7.82093C22.466 7.84118 22.4472 7.85769 22.4287 7.87454C21.6769 8.56004 20.925 9.24542 20.1731 9.93092C19.4372 10.6019 18.7012 11.273 17.9653 11.9441C17.7363 12.1529 17.5076 12.3621 17.2783 12.5705C17.1641 12.6741 16.9953 12.6393 16.9389 12.5014C16.9223 12.4608 16.9223 12.4178 16.9223 12.3748C16.9224 10.787 16.9222 9.19907 16.9237 7.61128C16.9237 7.55684 16.9088 7.54525 16.8565 7.54525C15.7934 7.54678 14.7301 7.54689 13.667 7.54525C13.6123 7.54525 13.6026 7.55602 13.6171 7.60882C13.7468 8.0801 14.1783 8.41032 14.6681 8.41032C15.107 8.41032 15.5459 8.41009 15.9849 8.41056C16.0806 8.41056 16.0659 8.40002 16.0659 8.49016C16.0662 9.80297 16.0654 11.1158 16.0665 12.4285C16.067 13.1903 16.8085 13.7191 17.5254 13.4661C17.8338 13.3572 18.0874 13.1644 18.3202 12.9356C18.7649 12.4981 19.2192 12.0704 19.6697 11.6388C20.2059 11.1249 20.7424 10.6112 21.2788 10.0974C21.3766 10.0037 21.4745 9.91008 21.575 9.81398C21.5887 9.84219 21.583 9.8656 21.5831 9.88784C21.5835 10.6837 21.5831 11.4796 21.5836 12.2755C21.5839 12.7292 21.8688 13.144 22.2924 13.2933C22.7301 13.4477 23.1235 13.3604 23.459 13.0422C24.0305 12.5003 24.5969 11.953 25.1653 11.4079C25.6691 10.9248 26.1725 10.4413 26.6763 9.95831C26.6867 9.94848 26.6952 9.93279 26.718 9.93619V9.99917C26.718 10.7561 26.7174 11.5129 26.7183 12.2698C26.7187 12.7766 27.0559 13.2085 27.5421 13.3325C27.5921 13.3453 27.6003 13.3342 27.6003 13.2865C27.5992 11.5056 27.5995 9.72466 27.599 7.94372C27.599 7.92968 27.6063 7.91305 27.5885 7.89842C27.4364 8.041 27.2846 8.18323 27.133 8.32569C26.4599 8.95851 25.7869 9.59168 25.1137 10.2244C24.5555 10.7489 23.9969 11.2731 23.4385 11.7975C23.2424 11.9817 23.0468 12.1663 22.8503 12.3499C22.7875 12.4085 22.7127 12.4222 22.6331 12.3927C22.5524 12.3627 22.5107 12.2997 22.5017 12.2152C22.4992 12.192 22.4998 12.1685 22.4998 12.1451C22.4998 10.7289 22.4998 9.31273 22.4994 7.89655C22.4994 7.87396 22.5052 7.85031 22.489 7.82069L22.4887 7.82093ZM17.3476 11.933C17.3672 11.934 17.3751 11.918 17.3856 11.9084C17.6898 11.6317 17.9935 11.3544 18.2974 11.0773C19.7131 9.78635 21.129 8.49578 22.5443 7.20426C22.6165 7.13836 22.6929 7.103 22.7879 7.14468C22.8834 7.18659 22.9162 7.26431 22.9162 7.36615C22.915 8.78819 22.9154 10.2102 22.9154 11.6323V11.7098C22.9364 11.6936 22.949 11.6854 22.9596 11.6753C23.0606 11.5809 23.1614 11.4859 23.2622 11.3912C24.0476 10.6531 24.8331 9.915 25.6181 9.17647C26.2995 8.53534 26.9804 7.89362 27.6614 7.25202C27.6904 7.22463 27.7232 7.20473 27.7621 7.19572C27.9006 7.16388 28.0168 7.26724 28.0168 7.42234C28.0168 9.17203 28.0168 10.9217 28.0168 12.6714C28.0168 12.8801 28.018 13.0888 28.0159 13.2975C28.0154 13.3398 28.0291 13.3454 28.0662 13.3377C28.5357 13.2391 28.9076 12.7834 28.9079 12.3003C28.9087 10.6501 28.9082 8.99995 28.9081 7.34977C28.9081 7.26361 28.8978 7.17863 28.8771 7.09516C28.6734 6.27317 27.6627 5.97947 27.0512 6.56453C26.7864 6.81785 26.5223 7.07187 26.2577 7.32542C25.5076 8.04439 24.7574 8.76337 24.0072 9.48223C23.9335 9.55282 23.8593 9.62282 23.775 9.70266V9.6254C23.775 8.87048 23.7757 8.11568 23.7747 7.36077C23.774 6.89757 23.5005 6.49945 23.0726 6.33006C22.8998 6.2617 22.7203 6.25433 22.5378 6.25854C22.2677 6.26486 22.0296 6.35441 21.8299 6.5348C21.6607 6.68768 21.4993 6.8491 21.3347 7.00702C20.9015 7.42269 20.4685 7.83872 20.0351 8.25428C19.5004 8.76688 18.9653 9.27925 18.4304 9.79162C18.3752 9.84453 18.3195 9.89686 18.2564 9.95679C18.2564 9.44419 18.2566 8.94493 18.2558 8.44567C18.2558 8.41641 18.2665 8.40962 18.2933 8.41009C18.3712 8.41149 18.4493 8.40892 18.5274 8.41091C18.8428 8.41887 19.1092 8.30204 19.3381 8.09239C19.5178 7.9278 19.6948 7.76041 19.8723 7.59348C19.885 7.58143 19.9066 7.57405 19.9068 7.54841C19.8963 7.54783 19.8869 7.54689 19.8774 7.54689C19.0484 7.54689 18.2193 7.54748 17.3903 7.54537C17.3305 7.54525 17.3417 7.57791 17.3417 7.61116C17.3417 9.0312 17.3417 10.4512 17.3419 11.8713C17.3419 11.8917 17.3363 11.9132 17.3473 11.9333L17.3476 11.933ZM6.20434 12.8609C6.21359 12.8539 6.22026 12.8498 6.22576 12.8446C6.64039 12.4547 7.05489 12.0648 7.46952 11.6749C8.08712 11.0939 8.70461 10.5129 9.32209 9.93197C9.98652 9.30699 10.6508 8.6819 11.3153 8.05692C11.5779 7.80981 11.8404 7.56258 12.1034 7.31594C12.2056 7.22018 12.3512 7.23271 12.4298 7.34145C12.4651 7.39039 12.4693 7.44529 12.4693 7.50264C12.4691 9.42394 12.4691 11.3452 12.4692 13.2666C12.4692 13.3364 12.4695 13.3364 12.5355 13.3192C13.0126 13.1944 13.3501 12.759 13.3502 12.2663C13.3505 10.6336 13.3505 9.001 13.3497 7.36838C13.3497 7.30423 13.3473 7.23903 13.3359 7.17617C13.2582 6.74457 13.016 6.44267 12.5995 6.30408C12.1925 6.16864 11.819 6.25585 11.5042 6.54674C11.1693 6.85624 10.8441 7.17617 10.5148 7.49188C10.0841 7.90474 9.65396 8.31796 9.2233 8.73071C8.71514 9.21768 8.20676 9.70418 7.69848 10.191C7.28749 10.5847 6.88047 10.9828 6.4641 11.3707C6.22892 11.5899 6.0579 11.8362 6.03004 12.165C6.00874 12.4164 6.06902 12.6468 6.20458 12.8611L6.20434 12.8609ZM11.1634 9.90107V9.98208C11.1634 10.7447 11.1634 11.5074 11.1634 12.2699C11.1634 12.7652 11.5106 13.2058 11.9917 13.3241C12.0362 13.335 12.0438 13.3233 12.0438 13.2815C12.043 11.5242 12.0431 9.7668 12.0427 8.00951C12.0427 7.99593 12.0514 7.97802 12.0298 7.9676C11.9353 8.05692 11.8406 8.1467 11.7456 8.23614C10.8468 9.08119 9.94778 9.926 9.04911 10.7712C8.21425 11.5563 7.37997 12.342 6.54463 13.1266C6.51268 13.1566 6.50694 13.1703 6.54967 13.1964C6.9712 13.4533 7.5229 13.3912 7.87817 13.0482C8.27793 12.6624 8.67979 12.2789 9.08095 11.8945C9.68755 11.3133 10.2943 10.7323 10.9009 10.1513C10.9847 10.071 11.0689 9.99109 11.1634 9.90095V9.90107ZM9.00451 15.6871C9.07487 15.6712 9.13141 15.6586 9.18783 15.6455C9.6625 15.5358 9.99448 15.2229 10.0085 14.7195C10.0161 14.4496 9.93256 14.2166 9.72478 14.0376C9.49312 13.8381 9.21194 13.7637 8.9166 13.7394C8.56449 13.7106 8.21085 13.7199 7.85839 13.7307C7.40783 13.7444 7.06168 14.0045 6.92027 14.4227C6.87298 14.5625 6.84103 14.7075 6.80263 14.8503C6.54826 15.7973 6.29436 16.7445 6.03905 17.6914C6.02688 17.7367 6.03695 17.7473 6.08307 17.7472C6.76763 17.7447 7.45219 17.7475 8.13664 17.7412C8.45094 17.7383 8.75646 17.6767 9.04186 17.5394C9.34036 17.3958 9.56897 17.1825 9.65887 16.8536C9.7716 16.4407 9.67784 16.0701 9.30407 15.8391C9.213 15.7828 9.11338 15.7435 9.00463 15.687L9.00451 15.6871ZM22.0456 15.015C22.0414 15.013 22.0373 15.0111 22.0331 15.0089C22.0568 14.919 22.0805 14.829 22.1045 14.7391C22.1112 14.7142 22.1165 14.6964 22.0767 14.6969C21.9071 14.6991 21.7373 14.695 21.5678 14.6987C21.4229 14.702 21.3126 14.7862 21.279 14.9123C21.0319 15.8384 20.7856 16.7648 20.5375 17.6908C20.5259 17.7341 20.5278 17.7479 20.5778 17.7474C20.8021 17.745 21.0264 17.7452 21.2507 17.7474C21.2926 17.7478 21.3056 17.7334 21.316 17.6942C21.4261 17.2785 21.5373 16.863 21.6515 16.4484C21.7108 16.2329 21.7521 16.0118 21.8403 15.805C21.973 15.4932 22.2176 15.3272 22.5263 15.3353C22.8266 15.3433 22.9899 15.5187 22.9753 15.8178C22.9708 15.9077 22.9555 15.9958 22.9322 16.0826C22.7894 16.6164 22.6473 17.1504 22.5025 17.6838C22.4876 17.7384 22.4994 17.7483 22.5529 17.7475C22.7732 17.7447 22.9937 17.7454 23.2141 17.7473C23.2518 17.7477 23.2682 17.7368 23.278 17.6999C23.3944 17.2618 23.5107 16.8236 23.6304 16.3863C23.6837 16.1914 23.7199 15.9908 23.8031 15.8052C23.9345 15.5124 24.1452 15.3312 24.4827 15.3354C24.7785 15.3392 24.9421 15.5055 24.9384 15.8004C24.9371 15.9041 24.9168 16.0056 24.8899 16.1056C24.7482 16.6335 24.6062 17.1615 24.4629 17.689C24.4508 17.7335 24.4552 17.7481 24.5064 17.7475C24.7249 17.7449 24.9433 17.7446 25.1617 17.7478C25.2125 17.7485 25.2313 17.7319 25.2438 17.6842C25.3896 17.1311 25.539 16.5789 25.6846 16.0257C25.7453 15.7955 25.7934 15.564 25.7611 15.322C25.7127 14.9601 25.4546 14.6968 25.0941 14.6502C24.7025 14.5996 24.3592 14.7092 24.0559 14.9569C23.9466 15.0461 23.8555 15.1523 23.7661 15.2607C23.7451 15.2435 23.7434 15.2207 23.7366 15.2013C23.6085 14.8359 23.3506 14.6489 22.9641 14.6372C22.6372 14.6272 22.3482 14.7143 22.1148 14.9535C22.0934 14.9755 22.069 14.9945 22.046 15.0149L22.0456 15.015ZM16.9861 7.11518C18.0863 7.11518 19.1866 7.11518 20.2868 7.11518C20.3005 7.11518 20.3142 7.11424 20.3278 7.11541C20.3511 7.1174 20.3672 7.10991 20.3817 7.08978C20.438 7.01182 20.4849 6.92894 20.5125 6.8367C20.5817 6.6048 20.5019 6.39047 20.3081 6.28886C20.2185 6.24192 20.1213 6.22249 20.0204 6.22213C19.8799 6.22167 19.7394 6.22213 19.599 6.22213C17.9642 6.22213 16.3295 6.2219 14.6948 6.22225C14.1696 6.22237 13.7321 6.55739 13.6111 7.04998C13.6005 7.09337 13.6174 7.1151 13.6621 7.11518C14.7701 7.11518 15.8781 7.11518 16.9862 7.11518H16.9861ZM11.8465 16.4319C12.1156 16.4319 12.3847 16.4325 12.6538 16.4317C12.8053 16.4312 12.8791 16.374 12.921 16.2299C12.9837 16.0141 13.0102 15.7952 12.9779 15.5714C12.927 15.2191 12.7614 14.9392 12.4468 14.7627C12.1104 14.574 11.7474 14.555 11.3802 14.6362C10.4356 14.8451 9.81035 15.765 9.96018 16.7242C10.0225 17.1232 10.2251 17.4309 10.593 17.6168C10.8093 17.7261 11.0419 17.7685 11.2817 17.7747C11.6895 17.7854 12.0695 17.6935 12.4086 17.4579C12.475 17.4118 12.4773 17.4027 12.4305 17.3385C12.3546 17.2347 12.2781 17.1313 12.2008 17.0286C12.1387 16.9459 12.1287 16.9442 12.0393 16.9988C11.7932 17.1494 11.5278 17.2004 11.2433 17.1558C10.9472 17.1095 10.7467 16.9308 10.6806 16.6377C10.6042 16.2999 10.673 15.9821 10.8512 15.6911C11.0529 15.362 11.3472 15.1888 11.7409 15.2008C11.9982 15.2087 12.1911 15.3495 12.2465 15.5735C12.2698 15.6676 12.2673 15.7623 12.2522 15.8579C12.2458 15.8987 12.2297 15.911 12.1881 15.9108C11.878 15.9089 11.5679 15.9112 11.2578 15.9087C11.1864 15.9081 11.1389 15.9363 11.1048 15.9951C11.0831 16.0323 11.0663 16.0714 11.0555 16.1132C11.0326 16.2017 11.0122 16.291 10.985 16.3782C10.9705 16.4249 10.9815 16.4332 11.0273 16.4329C11.3003 16.431 11.5734 16.4319 11.8464 16.4319H11.8465ZM27.6029 17.4174C27.5752 17.5202 27.5538 17.6111 27.5256 17.6997C27.5117 17.7433 27.5256 17.7473 27.5633 17.7471C27.7779 17.7458 27.9923 17.7451 28.2069 17.7475C28.2506 17.748 28.266 17.7331 28.2767 17.6928C28.3917 17.2562 28.511 16.8209 28.6244 16.3839C28.6879 16.1396 28.7725 15.8995 28.7836 15.6438C28.7951 15.3804 28.7419 15.1388 28.5412 14.9505C28.4007 14.8188 28.2277 14.7502 28.0425 14.7093C27.773 14.6497 27.5006 14.6519 27.2281 14.6781C27.0632 14.6941 26.8986 14.7171 26.7411 14.7707C26.5588 14.8327 26.4769 14.9729 26.5106 15.1567C26.526 15.241 26.5466 15.3243 26.5606 15.4088C26.5673 15.4492 26.5799 15.4532 26.617 15.44C26.818 15.3684 27.0255 15.325 27.2385 15.3108C27.4143 15.2991 27.5895 15.3018 27.7581 15.3627C27.9121 15.4183 28.0093 15.522 28.0269 15.6901C28.0339 15.7568 28.0267 15.8231 28.0109 15.8874C27.9525 16.1255 27.8921 16.363 27.8317 16.6006C27.7904 16.7634 27.7096 16.9043 27.5831 17.015C27.3547 17.2148 27.0902 17.2999 26.7922 17.2228C26.507 17.1489 26.3926 16.8228 26.6152 16.601C26.6582 16.5581 26.7036 16.5185 26.7543 16.4854C26.9751 16.3413 27.2172 16.2566 27.4791 16.2295C27.5145 16.2259 27.5351 16.2137 27.5495 16.1811C27.5921 16.0851 27.6389 15.991 27.6813 15.8949C27.7184 15.8108 27.714 15.8026 27.6235 15.7956C27.1892 15.7616 26.7789 15.8466 26.3938 16.0502C26.1897 16.158 26.0093 16.2948 25.8753 16.4861C25.6819 16.762 25.6694 17.0987 25.8518 17.343C26.0442 17.6008 26.3077 17.7418 26.628 17.7429C26.9797 17.744 27.3103 17.6573 27.6029 17.4171V17.4174ZM19.5851 17.4179C19.5574 17.5201 19.5356 17.6087 19.5088 17.6958C19.4962 17.7368 19.5021 17.748 19.5473 17.7475C19.7599 17.7452 19.9725 17.7452 20.1851 17.7475C20.2297 17.748 20.2477 17.7365 20.2595 17.6912C20.3773 17.2416 20.5 16.7933 20.6174 16.3437C20.6767 16.1163 20.7535 15.8924 20.7653 15.6545C20.7775 15.4113 20.7372 15.1831 20.568 14.9958C20.4223 14.8348 20.2314 14.7546 20.0238 14.7095C19.7188 14.6433 19.4118 14.652 19.1048 14.691C18.9755 14.7074 18.846 14.7277 18.7224 14.771C18.544 14.8335 18.4623 14.9665 18.4916 15.1463C18.5062 15.2365 18.53 15.3252 18.5453 15.4155C18.5515 15.4523 18.5645 15.453 18.5946 15.4422C18.7974 15.3697 19.0066 15.3259 19.2216 15.3111C19.3916 15.2994 19.561 15.3023 19.7247 15.3571C19.8857 15.4109 19.9904 15.5151 20.0087 15.6916C20.0154 15.7565 20.0088 15.8209 19.9937 15.8831C19.9355 16.1234 19.878 16.3638 19.8131 16.6022C19.7239 16.9293 19.5069 17.1337 19.1826 17.2205C19.0056 17.268 18.8271 17.273 18.6614 17.1738C18.4651 17.0564 18.4234 16.8125 18.5675 16.6356C18.616 16.576 18.6736 16.5269 18.7375 16.4851C18.9565 16.3419 19.1972 16.2589 19.4566 16.2295C19.4862 16.2261 19.512 16.2247 19.5271 16.1907C19.5728 16.0876 19.6239 15.9869 19.6694 15.8836C19.6997 15.815 19.6921 15.8034 19.6162 15.7969C19.2338 15.7639 18.8672 15.8264 18.5165 15.9818C18.2728 16.0899 18.0537 16.2317 17.8879 16.4448C17.6552 16.744 17.6413 17.1093 17.8595 17.3771C18.0521 17.6134 18.3071 17.7437 18.6117 17.7433C18.9633 17.743 19.2937 17.6567 19.5851 17.4176V17.4179ZM16.2169 17.7742C16.2374 17.7731 16.2645 17.7711 16.2918 17.77C16.5206 17.7602 16.7404 17.7129 16.9398 17.597C17.299 17.3883 17.4652 17.0704 17.4469 16.6588C17.4368 16.4278 17.3024 16.266 17.1217 16.1376C16.9702 16.0299 16.8019 15.9529 16.6333 15.8771C16.5126 15.8229 16.39 15.7718 16.2836 15.6911C16.1052 15.5555 16.1263 15.3175 16.3252 15.213C16.3563 15.1966 16.389 15.1849 16.4233 15.1766C16.5237 15.1521 16.6246 15.157 16.7253 15.1715C16.9587 15.2053 17.161 15.3107 17.3492 15.4471C17.3724 15.464 17.3882 15.4791 17.4147 15.4465C17.5075 15.3336 17.6043 15.224 17.6984 15.1122C17.7429 15.0593 17.7434 15.0082 17.7028 14.9524C17.6689 14.9058 17.6232 14.8719 17.5735 14.8447C17.1491 14.6131 16.7008 14.5233 16.2264 14.6431C15.8529 14.7375 15.5739 14.9545 15.4665 15.3374C15.34 15.7888 15.4659 16.0633 15.8298 16.2837C15.9714 16.3696 16.1223 16.4373 16.2739 16.5032C16.388 16.5528 16.5041 16.5993 16.6027 16.6779C16.7314 16.7804 16.7466 16.9435 16.6405 17.0697C16.5937 17.1254 16.5326 17.159 16.4639 17.1781C16.3055 17.222 16.1469 17.2058 15.9894 17.1724C15.7415 17.12 15.5281 17.0001 15.3396 16.8332C15.3203 16.8161 15.3069 16.7977 15.2794 16.8272C15.1769 16.9369 15.0712 17.0436 14.9682 17.1527C14.9351 17.1877 14.9265 17.2305 14.9436 17.2774C14.9652 17.3367 15.0054 17.3803 15.0562 17.4153C15.4036 17.655 15.7914 17.7641 16.2168 17.7744L16.2169 17.7742ZM14.1998 14.954C14.2255 14.8515 14.2445 14.7631 14.2704 14.6769C14.284 14.6314 14.2704 14.6246 14.2291 14.6251C14.075 14.6269 13.921 14.6256 13.7669 14.6259C13.6619 14.6262 13.6025 14.6745 13.5746 14.7772C13.4612 15.1937 13.3574 15.6126 13.2397 16.0281C13.0833 16.58 12.9423 17.1361 12.7936 17.6903C12.7827 17.731 12.7841 17.7481 12.8347 17.7475C13.0453 17.7449 13.2559 17.7451 13.4665 17.7475C13.5077 17.748 13.5183 17.7308 13.5265 17.6962C13.5651 17.5313 13.6042 17.3666 13.6464 17.2026C13.7538 16.7845 13.8619 16.3667 14.0068 15.9591C14.0802 15.7526 14.2222 15.622 14.4177 15.5395C14.6301 15.4497 14.8531 15.4091 15.0822 15.3952C15.1837 15.389 15.2223 15.3545 15.2469 15.2559C15.2847 15.1051 15.3223 14.9542 15.3601 14.8033C15.3854 14.7023 15.3457 14.6454 15.2417 14.6465C14.8716 14.6505 14.5082 14.6805 14.2 14.954H14.1998Z" fill="#0073C0"/>
<path d="M22.4887 7.82097C22.5048 7.85059 22.4991 7.87424 22.4991 7.89683C22.4994 9.31301 22.4993 10.7292 22.4994 12.1454C22.4994 12.1688 22.4989 12.1923 22.5013 12.2155C22.5104 12.3001 22.552 12.363 22.6328 12.393C22.7123 12.4225 22.7872 12.4088 22.8499 12.3502C23.0465 12.1666 23.2421 11.982 23.4381 11.7978C23.9965 11.2734 24.5551 10.7492 25.1134 10.2247C25.7866 9.59196 26.4596 8.95891 27.1326 8.32597C27.2842 8.18351 27.4362 8.04128 27.5881 7.8987C27.6059 7.91333 27.5987 7.92996 27.5987 7.944C27.599 9.72494 27.5989 11.5059 27.5999 13.2868C27.5999 13.3345 27.5918 13.3456 27.5418 13.3328C27.0555 13.2087 26.7184 12.7769 26.7179 12.27C26.7171 11.5131 26.7177 10.7563 26.7177 9.99944V9.93647C26.6947 9.93307 26.6863 9.94876 26.676 9.95859C26.1722 10.4416 25.6687 10.9249 25.165 11.4081C24.5966 11.9533 24.0301 12.5005 23.4586 13.0425C23.1233 13.3606 22.7298 13.4479 22.292 13.2936C21.8685 13.1442 21.5836 12.7295 21.5832 12.2758C21.5826 11.4799 21.5832 10.684 21.5828 9.88812C21.5828 9.86576 21.5884 9.84235 21.5747 9.81426C21.4742 9.91036 21.3763 10.004 21.2784 10.0977C20.742 10.6114 20.2056 11.1252 19.6693 11.6391C19.2189 12.0707 18.7646 12.4985 18.3198 12.9359C18.0871 13.1648 17.8335 13.3576 17.525 13.4664C16.8081 13.7192 16.0667 13.1906 16.0661 12.4288C16.0651 11.116 16.0659 9.80314 16.0655 8.49043C16.0655 8.4003 16.0802 8.41083 15.9845 8.41083C15.5455 8.41037 15.1067 8.4106 14.6677 8.4106C14.1779 8.4106 13.7466 8.08038 13.6168 7.6091C13.6022 7.5563 13.6121 7.54542 13.6666 7.54553C14.7298 7.54717 15.793 7.54717 16.8561 7.54553C16.9083 7.54553 16.9233 7.55712 16.9233 7.61155C16.9217 9.19934 16.922 10.7873 16.9219 12.375C16.9219 12.4181 16.9219 12.461 16.9385 12.5017C16.995 12.6396 17.1638 12.6744 17.2779 12.5708C17.5073 12.3624 17.736 12.1532 17.9649 11.9444C18.7009 11.2733 19.4368 10.6023 20.1728 9.9312C20.9246 9.2457 21.6765 8.5602 22.4284 7.87482C22.4469 7.85796 22.4656 7.84146 22.4883 7.82121L22.4887 7.82097Z" fill="#FDFEFE"/>
<path d="M17.3477 11.9328C17.3368 11.9128 17.3424 11.8913 17.3423 11.8708C17.3419 10.4507 17.3419 9.0307 17.3421 7.61065C17.3421 7.57741 17.3308 7.54463 17.3906 7.54486C18.2196 7.54709 19.0487 7.54639 19.8778 7.54639C19.8872 7.54639 19.8965 7.54732 19.9072 7.54791C19.9069 7.57354 19.8855 7.58092 19.8726 7.59298C19.6952 7.7599 19.5182 7.9273 19.3385 8.09188C19.1095 8.30165 18.8431 8.41848 18.5277 8.4104C18.4498 8.40841 18.3717 8.41099 18.2936 8.40958C18.2668 8.40911 18.2561 8.4159 18.2562 8.44517C18.257 8.94442 18.2568 9.44368 18.2568 9.95628C18.3199 9.89635 18.3755 9.84402 18.4307 9.79111C18.9657 9.27875 19.5007 8.76638 20.0355 8.25378C20.4689 7.83822 20.9018 7.42219 21.3351 7.00651C21.4996 6.8486 21.6611 6.68717 21.8302 6.53429C22.0299 6.35379 22.268 6.26424 22.5382 6.25803C22.7206 6.25382 22.9001 6.26119 23.0729 6.32956C23.5009 6.49894 23.7743 6.89706 23.775 7.36026C23.7761 8.11518 23.7754 8.86997 23.7754 9.62489V9.70215C23.8596 9.6222 23.9338 9.5522 24.0075 9.48173C24.7578 8.76287 25.508 8.04389 26.2581 7.32491C26.5227 7.07136 26.7867 6.81734 27.0515 6.56403C27.663 5.97896 28.6737 6.27278 28.8774 7.09465C28.8981 7.17824 28.9084 7.26322 28.9084 7.34926C28.9084 8.99944 28.9089 10.6496 28.9082 12.2998C28.908 12.783 28.5361 13.2386 28.0665 13.3372C28.0296 13.3449 28.0159 13.3393 28.0162 13.297C28.0183 13.0883 28.0171 12.8796 28.0171 12.6709C28.0171 10.9212 28.0171 9.17152 28.0171 7.42184C28.0171 7.26673 27.9009 7.16349 27.7624 7.19521C27.7236 7.20411 27.6908 7.22412 27.6618 7.25151C26.9808 7.89312 26.3 8.53483 25.6185 9.17597C24.8335 9.91449 24.0479 10.6526 23.2626 11.3907C23.1618 11.4855 23.061 11.5804 22.96 11.6748C22.9492 11.6849 22.9367 11.693 22.9157 11.7092V11.6318C22.9157 10.2097 22.9154 8.78768 22.9165 7.36565C22.9165 7.26381 22.8838 7.18596 22.7882 7.14417C22.6933 7.1025 22.6167 7.13797 22.5446 7.20375C21.1294 8.49527 19.7136 9.78596 18.2977 11.0768C17.9938 11.3539 17.6902 11.6312 17.386 11.9079C17.3754 11.9175 17.3675 11.9334 17.3479 11.9325L17.3477 11.9328Z" fill="#FDFEFE"/>
<path d="M6.20434 12.8607C6.06879 12.6464 6.0085 12.416 6.02981 12.1646C6.05767 11.8358 6.22869 11.5895 6.46386 11.3703C6.88024 10.9824 7.28726 10.5844 7.69825 10.1906C8.20652 9.70377 8.71491 9.21727 9.22306 8.7303C9.65372 8.31755 10.084 7.90434 10.5146 7.49147C10.8437 7.17588 11.1691 6.85584 11.504 6.54633C11.8187 6.25544 12.1923 6.16823 12.5993 6.30367C13.0159 6.44227 13.258 6.74416 13.3357 7.17576C13.3471 7.23862 13.3494 7.30382 13.3495 7.36797C13.3502 9.00059 13.3502 10.6332 13.35 12.2658C13.35 12.7585 13.0125 13.194 12.5353 13.3188C12.4692 13.336 12.469 13.336 12.469 13.2662C12.469 11.3449 12.4689 9.42365 12.4691 7.50224C12.4691 7.44488 12.4649 7.38998 12.4295 7.34105C12.351 7.2323 12.2054 7.21966 12.1032 7.31553C11.8402 7.56217 11.5777 7.80952 11.315 8.05651C10.6506 8.68149 9.98629 9.30659 9.32186 9.93157C8.70437 10.5125 8.08677 11.0935 7.46928 11.6745C7.05478 12.0644 6.64015 12.4544 6.22553 12.8442C6.22003 12.8495 6.21335 12.8535 6.20411 12.8605L6.20434 12.8607Z" fill="#FDFDFE"/>
<path d="M11.1636 9.901C11.0691 9.99114 10.9849 10.0711 10.901 10.1514C10.2943 10.7324 9.68755 11.3134 9.08107 11.8945C8.67991 12.2788 8.27793 12.6624 7.87829 13.0483C7.52301 13.3912 6.97131 13.4533 6.54978 13.1965C6.50717 13.1705 6.51279 13.1568 6.54475 13.1267C7.38008 12.342 8.21436 11.5565 9.04923 10.7712C9.94789 9.92605 10.8469 9.08124 11.7457 8.23619C11.8407 8.14675 11.9354 8.05697 12.0299 7.96765C12.0516 7.97807 12.0428 7.99598 12.0428 8.00956C12.0433 9.76685 12.0431 11.5243 12.044 13.2816C12.044 13.3233 12.0363 13.335 11.9919 13.3242C11.5107 13.2058 11.1636 12.7651 11.1636 12.2699C11.1636 11.5073 11.1636 10.7446 11.1636 9.98212V9.90112V9.901Z" fill="#FDFEFE"/>
<path d="M9.00463 15.687C9.11349 15.7435 9.213 15.7829 9.30407 15.8392C9.67784 16.0702 9.7716 16.4408 9.65887 16.8536C9.56897 17.1826 9.34036 17.3959 9.04185 17.5395C8.75646 17.6768 8.45094 17.7384 8.13664 17.7413C7.45219 17.7477 6.76763 17.7448 6.08307 17.7473C6.03683 17.7474 6.02676 17.7367 6.03905 17.6914C6.29424 16.7447 6.54826 15.7975 6.80263 14.8504C6.84103 14.7076 6.87298 14.5627 6.92027 14.4228C7.06168 14.0045 7.40783 13.7444 7.85839 13.7307C8.21085 13.7201 8.56449 13.7107 8.9166 13.7395C9.21194 13.7636 9.49312 13.8382 9.72478 14.0377C9.93267 14.2167 10.0161 14.4497 10.0085 14.7195C9.99448 15.223 9.66239 15.5358 9.18783 15.6456C9.1314 15.6586 9.07487 15.6712 9.00451 15.6872L9.00463 15.687ZM6.97377 17.061C6.99016 17.0624 7.00151 17.0642 7.01299 17.0642C7.39916 17.0644 7.78522 17.0653 8.1714 17.0639C8.29888 17.0634 8.42308 17.0395 8.54225 16.9928C8.83431 16.8783 8.97536 16.6147 8.89342 16.3366C8.83045 16.1228 8.62665 15.9715 8.37368 15.9634C8.15162 15.9563 7.92909 15.9594 7.70679 15.9608C7.66184 15.9611 7.65447 15.9488 7.66653 15.908C7.69017 15.8279 7.71054 15.7467 7.73103 15.6656C7.74554 15.6086 7.76532 15.5541 7.79845 15.505C7.82994 15.4584 7.87079 15.433 7.93038 15.4344C8.04533 15.4372 8.16052 15.4344 8.27559 15.4355C8.4239 15.4368 8.5721 15.4365 8.71713 15.4C8.95488 15.3402 9.13738 15.2176 9.20187 14.9645C9.25069 14.7727 9.18748 14.6052 9.02968 14.5078C8.9399 14.4523 8.8404 14.4254 8.7368 14.4175C8.43303 14.3947 8.12879 14.4106 7.82467 14.4082C7.73407 14.4075 7.66536 14.4722 7.63995 14.5672C7.46952 15.2043 7.29908 15.8414 7.12876 16.4785C7.07713 16.6716 7.02586 16.865 6.97365 17.061H6.97377Z" fill="#FDFDFE"/>
<path d="M22.0456 15.015C22.0685 14.9945 22.0929 14.9754 22.1144 14.9535C22.3479 14.7144 22.6369 14.6273 22.9637 14.6372C23.3502 14.6489 23.6082 14.836 23.7363 15.2013C23.7431 15.2208 23.7448 15.2436 23.7658 15.2608C23.8551 15.1524 23.9463 15.0461 24.0555 14.9569C24.3588 14.7092 24.7021 14.5995 25.0937 14.6502C25.4543 14.6968 25.7125 14.9602 25.7607 15.322C25.793 15.5642 25.7449 15.7956 25.6843 16.0258C25.5387 16.579 25.3893 17.1312 25.2434 17.6843C25.2309 17.7319 25.2122 17.7487 25.1614 17.7478C24.9429 17.7447 24.7245 17.7448 24.5061 17.7476C24.4548 17.7483 24.4505 17.7336 24.4625 17.6891C24.6058 17.1615 24.7478 16.6336 24.8896 16.1056C24.9164 16.0057 24.9366 15.9042 24.938 15.8004C24.9418 15.5056 24.7781 15.3392 24.4823 15.3355C24.1448 15.3313 23.9341 15.5125 23.8028 15.8052C23.7196 15.9909 23.6834 16.1914 23.63 16.3863C23.5104 16.8235 23.3939 17.2617 23.2777 17.7C23.2678 17.737 23.2515 17.7477 23.2137 17.7474C22.9933 17.7455 22.7729 17.7448 22.5526 17.7476C22.4991 17.7483 22.4873 17.7385 22.5021 17.6838C22.6469 17.1505 22.789 16.6166 22.9319 16.0827C22.955 15.9958 22.9705 15.9078 22.9749 15.8179C22.9896 15.5188 22.8263 15.3433 22.5259 15.3354C22.2172 15.3272 21.9727 15.4933 21.8399 15.805C21.7518 16.0119 21.7105 16.233 21.6511 16.4485C21.537 16.8631 21.4258 17.2786 21.3156 17.6942C21.3052 17.7333 21.2923 17.7478 21.2503 17.7475C21.026 17.7453 20.8017 17.745 20.5775 17.7475C20.5273 17.7481 20.5255 17.7343 20.5372 17.6908C20.7852 16.7649 21.0315 15.8385 21.2786 14.9123C21.3122 14.7862 21.4226 14.7021 21.5674 14.6988C21.737 14.6951 21.9068 14.699 22.0764 14.6969C22.1162 14.6965 22.1108 14.7143 22.1041 14.7392C22.0801 14.8291 22.0565 14.919 22.0327 15.009C22.0369 15.011 22.041 15.013 22.0453 15.0151L22.0456 15.015Z" fill="#FDFDFE"/>
<path d="M16.9862 7.11512C15.8781 7.11512 14.7701 7.11512 13.6621 7.11512C13.6174 7.11512 13.6005 7.09339 13.6111 7.04992C13.7321 6.55734 14.1696 6.22231 14.6948 6.2222C16.3295 6.22185 17.9642 6.22208 19.599 6.22208C19.7394 6.22208 19.8799 6.22173 20.0204 6.22208C20.1213 6.22243 20.2184 6.24186 20.3081 6.2888C20.5019 6.39029 20.5818 6.60475 20.5125 6.83664C20.485 6.92888 20.4381 7.01176 20.3817 7.08972C20.3672 7.10986 20.3511 7.11735 20.3278 7.11536C20.3142 7.11419 20.3005 7.11512 20.2868 7.11512C19.1866 7.11512 18.0863 7.11512 16.9861 7.11512H16.9862Z" fill="#FDFEFE"/>
<path d="M11.8466 16.4319C11.5736 16.4319 11.3005 16.431 11.0275 16.4329C10.9818 16.4332 10.9706 16.4249 10.9853 16.3782C11.0124 16.291 11.0328 16.2017 11.0557 16.1132C11.0665 16.0714 11.0834 16.0323 11.105 15.9951C11.1392 15.9363 11.1866 15.9081 11.258 15.9087C11.5681 15.9112 11.8782 15.9089 12.1883 15.9108C12.23 15.911 12.246 15.8988 12.2524 15.8579C12.2675 15.7623 12.27 15.6676 12.2467 15.5735C12.1913 15.3496 11.9984 15.2088 11.7411 15.2008C11.3476 15.1888 11.0532 15.362 10.8515 15.6911C10.6731 15.9822 10.6044 16.2999 10.6808 16.6377C10.7471 16.9308 10.9475 17.1095 11.2435 17.1558C11.5281 17.2003 11.7934 17.1494 12.0395 16.9988C12.1289 16.9441 12.139 16.9459 12.201 17.0286C12.2783 17.1313 12.3549 17.2347 12.4307 17.3385C12.4775 17.4027 12.4752 17.4118 12.4088 17.4579C12.0697 17.6935 11.6897 17.7854 11.2819 17.7747C11.0422 17.7685 10.8096 17.7261 10.5932 17.6168C10.2253 17.4308 10.0227 17.1232 9.96042 16.7242C9.81058 15.7649 10.4358 14.8451 11.3805 14.6362C11.7478 14.555 12.1107 14.574 12.447 14.7627C12.7616 14.9392 12.9273 15.2191 12.9781 15.5714C13.0104 15.7952 12.9839 16.0141 12.9212 16.2299C12.8793 16.374 12.8055 16.4312 12.6541 16.4317C12.3849 16.4325 12.1158 16.4319 11.8467 16.4319H11.8466Z" fill="#FDFDFE"/>
<path d="M27.603 17.4174C27.3103 17.6577 26.9796 17.7444 26.6281 17.7432C26.3078 17.7421 26.0445 17.6011 25.8519 17.3433C25.6694 17.099 25.682 16.7623 25.8754 16.4864C26.0095 16.2951 26.1899 16.1584 26.3939 16.0505C26.779 15.8468 27.1893 15.7619 27.6236 15.7959C27.7141 15.8029 27.7185 15.8111 27.6814 15.8951C27.639 15.9913 27.5922 16.0854 27.5496 16.1814C27.5351 16.2139 27.5146 16.2262 27.4793 16.2298C27.2174 16.257 26.9752 16.3416 26.7544 16.4857C26.7037 16.5187 26.6584 16.5584 26.6154 16.6012C26.3928 16.8231 26.5072 17.1492 26.7924 17.2231C27.0903 17.3002 27.3548 17.2151 27.5832 17.0153C27.7096 16.9045 27.7904 16.7637 27.8318 16.6009C27.8922 16.3633 27.9526 16.1258 28.0111 15.8877C28.0269 15.8233 28.034 15.757 28.027 15.6904C28.0093 15.5223 27.9121 15.4186 27.7582 15.363C27.5895 15.302 27.4144 15.2994 27.2386 15.3111C27.0257 15.3253 26.8182 15.3688 26.6171 15.4403C26.5801 15.4534 26.5674 15.4494 26.5607 15.4091C26.5468 15.3246 26.5262 15.2413 26.5107 15.157C26.477 14.9732 26.5589 14.833 26.7412 14.771C26.8988 14.7175 27.0633 14.6944 27.2282 14.6784C27.5007 14.6522 27.7731 14.65 28.0427 14.7096C28.2278 14.7505 28.4009 14.819 28.5413 14.9508C28.742 15.1389 28.7952 15.3807 28.7838 15.6441C28.7726 15.8997 28.688 16.1399 28.6246 16.3842C28.5111 16.8211 28.3918 17.2565 28.2768 17.6931C28.2661 17.7334 28.2507 17.7483 28.207 17.7478C27.9926 17.7454 27.778 17.7461 27.5634 17.7474C27.5258 17.7476 27.5118 17.7435 27.5257 17.7C27.5539 17.6114 27.5752 17.5206 27.603 17.4177V17.4174Z" fill="#FDFDFE"/>
<path d="M19.5851 17.4179C19.2937 17.6569 18.9634 17.7432 18.6117 17.7436C18.3071 17.744 18.0521 17.6136 17.8595 17.3774C17.6411 17.1096 17.6551 16.7443 17.8879 16.4451C18.0537 16.232 18.2728 16.0902 18.5165 15.9821C18.8673 15.8267 19.2338 15.7642 19.6162 15.7972C19.6921 15.8037 19.6997 15.8153 19.6694 15.8839C19.6239 15.987 19.5729 16.0878 19.5271 16.191C19.512 16.225 19.4861 16.2264 19.4566 16.2298C19.1972 16.2592 18.9565 16.3422 18.7375 16.4854C18.6736 16.5272 18.616 16.5763 18.5675 16.6359C18.4234 16.8128 18.4651 17.0568 18.6614 17.1741C18.8271 17.2732 19.0056 17.2683 19.1826 17.2208C19.5071 17.134 19.7239 16.9295 19.8131 16.6025C19.878 16.3642 19.9355 16.1236 19.9937 15.8834C20.0088 15.8212 20.0153 15.7568 20.0087 15.6919C19.9903 15.5154 19.8857 15.4111 19.7247 15.3574C19.561 15.3027 19.3915 15.2997 19.2216 15.3114C19.0066 15.3262 18.7974 15.37 18.5946 15.4425C18.5645 15.4532 18.5515 15.4525 18.5453 15.4158C18.53 15.3257 18.5063 15.2368 18.4916 15.1466C18.4623 14.9668 18.544 14.8338 18.7224 14.7713C18.846 14.728 18.9755 14.7077 19.1048 14.6913C19.4118 14.6523 19.7188 14.6436 20.0238 14.7098C20.2314 14.7549 20.4223 14.8351 20.568 14.9961C20.7372 15.1834 20.7775 15.4117 20.7653 15.6548C20.7534 15.8927 20.6767 16.1166 20.6174 16.344C20.4998 16.7936 20.3773 17.2419 20.2595 17.6915C20.2477 17.7368 20.2297 17.7483 20.1851 17.7478C19.9725 17.7454 19.7599 17.7455 19.5473 17.7478C19.5021 17.7483 19.4963 17.7371 19.5088 17.6961C19.5356 17.609 19.5574 17.5204 19.5851 17.4182V17.4179Z" fill="#FDFDFE"/>
<path d="M16.2169 17.7743C15.7915 17.764 15.4036 17.6549 15.0564 17.4152C15.0055 17.3802 14.9653 17.3366 14.9437 17.2773C14.9267 17.2305 14.9352 17.1877 14.9683 17.1526C15.0713 17.0435 15.177 16.9368 15.2795 16.8271C15.307 16.7976 15.3204 16.816 15.3398 16.8331C15.5282 17 15.7416 17.1199 15.9895 17.1723C16.147 17.2057 16.3056 17.2219 16.464 17.178C16.5327 17.1589 16.5938 17.1253 16.6406 17.0696C16.7467 16.9433 16.7316 16.7803 16.6028 16.6778C16.5043 16.5992 16.3881 16.5528 16.274 16.5031C16.1223 16.4372 15.9715 16.3694 15.8299 16.2836C15.4661 16.0632 15.3401 15.7886 15.4666 15.3373C15.574 14.9544 15.8531 14.7374 16.2265 14.643C16.701 14.5232 17.1493 14.6131 17.5736 14.8446C17.6233 14.8718 17.669 14.9057 17.7029 14.9523C17.7436 15.0082 17.743 15.0592 17.6985 15.1121C17.6044 15.2239 17.5075 15.3335 17.4149 15.4464C17.3883 15.4789 17.3725 15.4638 17.3493 15.447C17.1611 15.3106 16.9588 15.2052 16.7254 15.1715C16.6248 15.1569 16.5238 15.152 16.4234 15.1765C16.3891 15.1848 16.3563 15.1965 16.3253 15.2129C16.1264 15.3173 16.1053 15.5554 16.2837 15.691C16.39 15.7717 16.5127 15.8228 16.6334 15.877C16.8021 15.9528 16.9703 16.0298 17.1219 16.1375C17.3026 16.266 17.4369 16.4277 17.4471 16.6587C17.4652 17.0703 17.299 17.3882 16.94 17.5969C16.7405 17.7128 16.5208 17.7601 16.2919 17.7699C16.2646 17.7711 16.2375 17.773 16.217 17.7741L16.2169 17.7743Z" fill="#FDFDFE"/>
<path d="M14.1998 14.9541C14.5081 14.6805 14.8715 14.6505 15.2415 14.6466C15.3456 14.6454 15.3853 14.7023 15.36 14.8033C15.3223 14.9542 15.2846 15.1051 15.2468 15.256C15.2221 15.3545 15.1836 15.3891 15.0821 15.3953C14.853 15.4092 14.63 15.4498 14.4176 15.5395C14.2221 15.6221 14.0802 15.7527 14.0067 15.9592C13.8618 16.3668 13.7537 16.7845 13.6463 17.2027C13.6041 17.3666 13.5651 17.5314 13.5264 17.6962C13.5183 17.7307 13.5075 17.748 13.4663 17.7476C13.2558 17.7451 13.0452 17.7449 12.8346 17.7476C12.7839 17.7482 12.7825 17.7311 12.7935 17.6903C12.9422 17.1363 13.0832 16.58 13.2396 16.0281C13.3572 15.6127 13.4611 15.1937 13.5745 14.7772C13.6025 14.6745 13.6619 14.6262 13.7668 14.626C13.9209 14.6256 14.0749 14.627 14.229 14.6251C14.2703 14.6247 14.2839 14.6315 14.2703 14.6769C14.2444 14.7632 14.2254 14.8515 14.1997 14.9541H14.1998Z" fill="#FDFDFE"/>
<path d="M6.97377 17.061C7.02598 16.865 7.07725 16.6717 7.12887 16.4785C7.29919 15.8413 7.46963 15.2043 7.64007 14.5672C7.66547 14.4722 7.73419 14.4073 7.82479 14.4082C8.12879 14.4106 8.43315 14.3947 8.73692 14.4175C8.84051 14.4254 8.94001 14.4523 9.0298 14.5078C9.18759 14.6053 9.25081 14.7728 9.20199 14.9645C9.13749 15.2176 8.95488 15.3402 8.71725 15.4C8.57233 15.4365 8.42402 15.4368 8.2757 15.4355C8.16063 15.4344 8.04556 15.4372 7.93049 15.4344C7.87091 15.433 7.83006 15.4584 7.79857 15.505C7.76556 15.5541 7.74566 15.6086 7.73114 15.6656C7.71054 15.7466 7.69029 15.8279 7.66664 15.908C7.65459 15.9488 7.66196 15.9611 7.70691 15.9608C7.92921 15.9594 8.15162 15.9563 8.3738 15.9634C8.62665 15.9715 8.83056 16.123 8.89354 16.3366C8.97548 16.6147 8.83443 16.8783 8.54236 16.9928C8.4232 17.0395 8.29911 17.0634 8.17152 17.0639C7.78534 17.0653 7.39928 17.0644 7.0131 17.0642C7.00163 17.0642 6.99016 17.0624 6.97389 17.061H6.97377Z" fill="#0073C0"/>
</g>
<defs>
<clipPath id="clip0_301_5236">
<rect width="26.9333" height="16" fill="white" transform="translate(4 4)"/>
</clipPath>
</defs>
</svg>
