<svg width="28" height="20" viewBox="0 0 28 20" fill="none" xmlns="http://www.w3.org/2000/svg">
<path d="M20.9927 6.19836H15.4159L14.8487 6.86435L13.0082 9.02532V9.02539L12.4411 9.6913H6.93803L7.49642 9.01692L7.76073 8.69772L8.31912 8.02333H5.78346C5.32022 8.02333 4.94116 8.42869 4.94116 8.92407V10.8246C4.94116 11.3201 5.32022 11.7255 5.78346 11.7255H15.4911C15.9543 11.7255 16.5871 11.4244 16.8973 11.0564L18.3658 9.31456L20.9927 6.19836Z" fill="#005697"/>
<path d="M22.1132 4.16663C22.5764 4.16663 22.9555 4.57198 22.9555 5.06744V6.96793C22.9555 7.46332 22.5764 7.86875 22.1132 7.86875H19.5858L20.1495 7.19942H20.1495L20.429 6.86758L20.9927 6.19833H15.416L12.4412 9.69379H6.90399L10.875 5.01109L11.0252 4.83387C11.3365 4.46687 11.9702 4.16663 12.4334 4.16663H22.1132V4.16663Z" fill="#FBD500"/>
<path fill-rule="evenodd" clip-rule="evenodd" d="M6.83938 14.9562C6.83938 14.8321 6.8113 14.7247 6.75527 14.634C6.69917 14.5433 6.6254 14.4741 6.53388 14.4264C6.6254 14.3787 6.69632 14.3082 6.74672 14.2151C6.79704 14.1221 6.8222 14.0171 6.8222 13.9002V13.8357C6.8222 13.6925 6.7959 13.5732 6.7433 13.4777C6.69062 13.3823 6.61678 13.3059 6.52183 13.2486C6.42689 13.1913 6.31299 13.1502 6.18034 13.1251C6.04755 13.1 5.9 13.0875 5.73749 13.0875C5.6826 13.0875 5.62536 13.0887 5.56592 13.0911C5.50633 13.0935 5.44859 13.0964 5.39257 13.1C5.33647 13.1036 5.28494 13.1078 5.23811 13.1126C5.19114 13.1174 5.15279 13.1222 5.12306 13.1268C5.0567 13.1389 5.0098 13.1603 4.98236 13.1913C4.95492 13.2224 4.94116 13.2785 4.94116 13.3596V15.5362C4.94116 15.6174 4.95542 15.6734 4.98407 15.7044C5.01265 15.7355 5.06127 15.7569 5.12998 15.7689C5.16426 15.776 5.20546 15.7819 5.2535 15.7868C5.30155 15.7915 5.35358 15.7957 5.40968 15.7993C5.46577 15.8028 5.52351 15.8058 5.58302 15.8083C5.64254 15.8106 5.70085 15.8118 5.75808 15.8118C5.90684 15.8118 6.04698 15.7999 6.17863 15.776C6.31014 15.7522 6.42454 15.7098 6.52183 15.6489C6.61913 15.5881 6.69632 15.5057 6.75356 15.4019C6.81073 15.2981 6.83938 15.1674 6.83938 15.0099V14.9562ZM6.25587 13.9288C6.25587 13.967 6.25017 14.0034 6.23869 14.038C6.22722 14.0725 6.2084 14.1023 6.1821 14.1275C6.15572 14.1525 6.1203 14.1728 6.07568 14.1883C6.03106 14.2038 5.97439 14.2115 5.90575 14.2115H5.52135V13.5922C5.53275 13.5922 5.5505 13.5917 5.57452 13.5905C5.59854 13.5893 5.6237 13.5887 5.65 13.5887H5.78215C5.95835 13.5887 6.08138 13.6119 6.15116 13.6585C6.22094 13.705 6.25587 13.7772 6.25587 13.875V13.9288ZM6.16834 15.2283C6.23584 15.1734 6.26963 15.0958 6.26963 14.9956V14.9562C6.26963 14.8703 6.24325 14.7957 6.19065 14.7324C6.13798 14.6693 6.04303 14.6376 5.90575 14.6376H5.52135V15.307H5.58136C5.60766 15.307 5.63511 15.3077 5.66376 15.3088C5.69234 15.31 5.71978 15.3107 5.74616 15.3107H5.80275C5.97895 15.3107 6.10084 15.2832 6.16834 15.2283ZM8.72045 14.4299C8.72045 14.2987 8.70156 14.1871 8.66378 14.0952C8.62608 14.0034 8.57283 13.9282 8.50419 13.8697C8.43555 13.8112 8.35144 13.7683 8.25186 13.7408C8.15236 13.7134 8.04081 13.6997 7.91721 13.6997C7.80274 13.6997 7.69119 13.7081 7.58256 13.7248C7.47379 13.7414 7.3874 13.7582 7.32339 13.7748C7.27991 13.7869 7.25817 13.813 7.25817 13.8535V14.1435C7.25817 14.1675 7.26387 14.1842 7.27535 14.1936C7.28675 14.2032 7.30158 14.2081 7.31997 14.2081H7.33708L7.44007 14.1991C7.48127 14.1955 7.5276 14.1926 7.57914 14.1901C7.6306 14.1878 7.68435 14.186 7.74044 14.1847C7.79647 14.1835 7.85199 14.1829 7.90695 14.1829C7.98699 14.1829 8.04993 14.1985 8.09569 14.2295C8.14145 14.2605 8.16433 14.3274 8.16433 14.4299V14.5588H7.97901C7.68378 14.5588 7.46923 14.6072 7.33537 14.7038C7.2015 14.8004 7.13457 14.9538 7.13457 15.1638V15.1961C7.13457 15.313 7.15118 15.4108 7.18433 15.4895C7.21747 15.5683 7.26159 15.6316 7.31648 15.6794C7.37143 15.7271 7.43373 15.7611 7.50358 15.7813C7.57336 15.8016 7.64607 15.8118 7.72155 15.8118C7.82455 15.8118 7.91322 15.7974 7.98756 15.7688C8.06191 15.7402 8.13226 15.7008 8.19869 15.6507V15.7079C8.19869 15.7271 8.20553 15.7438 8.21929 15.758C8.23305 15.7724 8.24901 15.7795 8.26733 15.7795H8.65181C8.67006 15.7795 8.68609 15.7724 8.69985 15.758C8.71361 15.7438 8.72045 15.7271 8.72045 15.7079V14.4299ZM8.04253 15.3517C8.08936 15.3363 8.13348 15.3177 8.17468 15.2963V14.9025H7.97902C7.9195 14.9025 7.87032 14.9079 7.8314 14.9186C7.79248 14.9293 7.76155 14.9455 7.73874 14.967C7.71586 14.9884 7.69982 15.0159 7.6907 15.0492C7.6815 15.0827 7.67694 15.1208 7.67694 15.1638V15.1961C7.67694 15.2724 7.69462 15.3213 7.73011 15.3428C7.76561 15.3643 7.81992 15.375 7.8932 15.375C7.9458 15.375 7.99555 15.3673 8.04253 15.3517ZM10.8212 15.7044V14.5122C10.8212 14.4002 10.8126 14.2945 10.7955 14.1955C10.7783 14.0965 10.7474 14.0105 10.7028 13.9377C10.6582 13.8649 10.5964 13.807 10.5174 13.7641C10.4385 13.7211 10.3372 13.6997 10.2136 13.6997C10.1038 13.6997 10.0065 13.7135 9.92188 13.7411C9.8372 13.7688 9.74796 13.8175 9.65416 13.8872V13.8005C9.65416 13.7813 9.64724 13.7644 9.63356 13.75C9.6198 13.7356 9.60376 13.7283 9.58544 13.7283H9.20104C9.18265 13.7283 9.16668 13.7354 9.153 13.7498C9.13924 13.7641 9.1324 13.7808 9.1324 13.7999V15.7044C9.1324 15.7235 9.13974 15.7408 9.15471 15.7563C9.16953 15.7718 9.18614 15.7795 9.20446 15.7795H9.6198C9.63812 15.7795 9.65416 15.7718 9.66784 15.7563C9.6816 15.7409 9.68844 15.7236 9.68844 15.7045V14.2972C9.74796 14.2639 9.80398 14.2365 9.85666 14.2151C9.90926 14.1936 9.96072 14.1829 10.0111 14.1829C10.0637 14.1829 10.1066 14.1883 10.1398 14.1991C10.173 14.2098 10.1987 14.2282 10.217 14.2545C10.2354 14.2806 10.248 14.3151 10.2548 14.3579C10.2617 14.4008 10.2652 14.4532 10.2652 14.5151V15.7045C10.2652 15.7236 10.272 15.7409 10.2858 15.7563C10.2994 15.7718 10.3154 15.7795 10.3338 15.7795H10.7491C10.7674 15.7795 10.784 15.7718 10.7989 15.7563C10.8138 15.7408 10.8212 15.7235 10.8212 15.7044ZM12.51 15.3572V15.6758C12.51 15.702 12.5042 15.7205 12.4928 15.7312C12.4814 15.742 12.463 15.7509 12.4379 15.758C12.3898 15.77 12.3275 15.7819 12.2508 15.794C12.1741 15.8058 12.0843 15.8118 11.9813 15.8118C11.7388 15.8118 11.5448 15.7343 11.3996 15.579C11.2542 15.424 11.1816 15.1996 11.1816 14.9061V14.6054C11.1816 14.3118 11.2542 14.0875 11.3996 13.9324C11.5448 13.7772 11.7388 13.6997 11.9813 13.6997C12.0843 13.6997 12.1741 13.7056 12.2508 13.7175C12.3275 13.7295 12.3898 13.7414 12.4379 13.7533C12.463 13.7605 12.4814 13.7695 12.4928 13.7802C12.5042 13.7909 12.51 13.8095 12.51 13.8357V14.1543C12.51 14.1734 12.5037 14.1883 12.4911 14.1991C12.4785 14.2098 12.463 14.2151 12.4448 14.2151H12.4379C12.3738 14.2081 12.3126 14.202 12.2543 14.1973C12.1959 14.1926 12.1175 14.1901 12.0191 14.1901C11.9802 14.1901 11.9436 14.1967 11.9093 14.2098C11.8749 14.2229 11.8452 14.2456 11.82 14.2778C11.7948 14.31 11.7748 14.3529 11.7599 14.4067C11.745 14.4604 11.7376 14.5266 11.7376 14.6054V14.9061C11.7376 14.9848 11.745 15.051 11.7599 15.1048C11.7748 15.1584 11.7948 15.2014 11.82 15.2336C11.8452 15.2659 11.8749 15.2885 11.9093 15.3016C11.9436 15.3148 11.9802 15.3213 12.0191 15.3213C12.1175 15.3213 12.1959 15.3189 12.2543 15.3142C12.3126 15.3094 12.3738 15.3034 12.4379 15.2963H12.4448C12.463 15.2963 12.4785 15.3016 12.4911 15.3124C12.5037 15.3232 12.51 15.338 12.51 15.3572ZM14.4152 14.6304C14.4152 14.4872 14.3963 14.3584 14.3584 14.2438C14.3206 14.1293 14.2655 14.032 14.1933 13.952C14.1211 13.8721 14.0317 13.8101 13.9251 13.7659C13.8185 13.7218 13.6952 13.6997 13.5553 13.6997C13.4155 13.6997 13.2922 13.7218 13.1856 13.7659C13.079 13.8101 12.9889 13.8721 12.9156 13.952C12.8422 14.032 12.7866 14.1293 12.7488 14.2438C12.7109 14.3584 12.692 14.4872 12.692 14.6304V14.881C12.692 15.0242 12.7109 15.1531 12.7488 15.2676C12.7866 15.3822 12.8422 15.4794 12.9156 15.5594C12.9889 15.6394 13.079 15.7014 13.1856 15.7456C13.2922 15.7896 13.4155 15.8118 13.5553 15.8118C13.6952 15.8118 13.8185 15.7896 13.9251 15.7456C14.0317 15.7014 14.1211 15.6394 14.1933 15.5594C14.2655 15.4794 14.3206 15.3822 14.3584 15.2676C14.3963 15.1531 14.4152 15.0242 14.4152 14.881V14.6304ZM13.5553 15.3213C13.7578 15.3213 13.8591 15.1746 13.8591 14.881V14.6304C13.8591 14.3393 13.7578 14.1936 13.5553 14.1936C13.4552 14.1936 13.379 14.2301 13.3267 14.3028C13.2743 14.3757 13.2481 14.4849 13.2481 14.6304V14.881C13.2481 15.0266 13.2743 15.1364 13.3267 15.2103C13.379 15.2844 13.4552 15.3213 13.5553 15.3213ZM16.4575 15.7044V14.5122C16.4575 14.4002 16.4488 14.2945 16.4317 14.1955C16.4146 14.0965 16.3836 14.0105 16.3389 13.9377C16.2943 13.8649 16.2326 13.807 16.1537 13.7641C16.0747 13.7211 15.9734 13.6997 15.8499 13.6997C15.7401 13.6997 15.6428 13.7135 15.5581 13.7411C15.4734 13.7688 15.3842 13.8175 15.2904 13.8872V13.8005C15.2904 13.7813 15.2835 13.7644 15.2697 13.75C15.2561 13.7356 15.24 13.7283 15.2217 13.7283H14.8372C14.8189 13.7283 14.803 13.7354 14.7892 13.7498C14.7755 13.7641 14.7686 13.7808 14.7686 13.7999V15.7044C14.7686 15.7235 14.776 15.7408 14.7909 15.7563C14.8058 15.7718 14.8223 15.7795 14.8407 15.7795H15.2561C15.2743 15.7795 15.2904 15.7718 15.3041 15.7563C15.3178 15.7409 15.3247 15.7236 15.3247 15.7045V14.2972C15.3842 14.2639 15.4403 14.2365 15.4929 14.2151C15.5455 14.1936 15.597 14.1829 15.6474 14.1829C15.7 14.1829 15.7429 14.1883 15.776 14.1991C15.8092 14.2098 15.835 14.2282 15.8533 14.2545C15.8716 14.2806 15.8842 14.3151 15.8911 14.3579C15.8979 14.4008 15.9014 14.4532 15.9014 14.5151V15.7045C15.9014 15.7236 15.9082 15.7409 15.922 15.7563C15.9357 15.7718 15.9517 15.7795 15.97 15.7795H16.3853C16.4037 15.7795 16.4203 15.7718 16.4352 15.7563C16.45 15.7408 16.4575 15.7235 16.4575 15.7044ZM17.9542 15.4353V15.7124C17.9542 15.7526 17.9324 15.7763 17.889 15.7833C17.8363 15.7928 17.7905 15.7999 17.7517 15.8046C17.7128 15.8094 17.6681 15.8118 17.6178 15.8118C17.5244 15.8118 17.442 15.804 17.3703 15.7885C17.2987 15.773 17.2389 15.7426 17.1911 15.6972C17.1435 15.6519 17.107 15.5892 17.082 15.5092C17.0571 15.4293 17.0445 15.3262 17.0445 15.1996V14.1615L16.77 14.1149C16.7516 14.1101 16.735 14.1012 16.7201 14.0881C16.7052 14.075 16.6978 14.0588 16.6978 14.0397V13.8034C16.6978 13.7844 16.7052 13.7671 16.7201 13.7515C16.735 13.7361 16.7516 13.7283 16.77 13.7283H17.0445V13.4347C17.0445 13.4156 17.0514 13.4001 17.065 13.3882C17.0785 13.3763 17.0946 13.368 17.1128 13.3631L17.529 13.288H17.5392C17.5574 13.288 17.5722 13.2933 17.5836 13.304C17.5949 13.3148 17.6006 13.3298 17.6006 13.3488V13.7283H17.8821C17.9004 13.7283 17.9164 13.7355 17.9302 13.7499C17.9439 13.7643 17.9508 13.7813 17.9508 13.8005V14.0928C17.9508 14.1121 17.9439 14.1289 17.9302 14.1434C17.9164 14.1578 17.9004 14.165 17.8821 14.165H17.6006V15.2068C17.6006 15.2783 17.6063 15.3244 17.6178 15.3446C17.6292 15.3649 17.6612 15.375 17.7138 15.375H17.8821C17.9302 15.375 17.9542 15.3951 17.9542 15.4353ZM19.7871 14.4299C19.7871 14.2987 19.7683 14.1871 19.7304 14.0952C19.6927 14.0034 19.6396 13.9282 19.5709 13.8697C19.5023 13.8112 19.4182 13.7683 19.3186 13.7408C19.2191 13.7134 19.1075 13.6997 18.9839 13.6997C18.8694 13.6997 18.7579 13.7081 18.6493 13.7248C18.5405 13.7414 18.4541 13.7582 18.3901 13.7748C18.3465 13.7869 18.3249 13.813 18.3249 13.8535V14.1435C18.3249 14.1675 18.3305 14.1842 18.342 14.1936C18.3535 14.2032 18.3683 14.2081 18.3866 14.2081H18.4038L18.5068 14.1991C18.548 14.1955 18.5943 14.1926 18.6458 14.1901C18.6973 14.1878 18.7511 14.186 18.8072 14.1847C18.8632 14.1835 18.9187 14.1829 18.9736 14.1829C19.0537 14.1829 19.1167 14.1985 19.1624 14.2295C19.2082 14.2605 19.2311 14.3274 19.2311 14.4299V14.5588H19.0457C18.7504 14.5588 18.536 14.6072 18.4021 14.7038C18.2682 14.8004 18.2013 14.9538 18.2013 15.1638V15.1961C18.2013 15.313 18.2178 15.4108 18.2511 15.4895C18.2841 15.5683 18.3283 15.6316 18.3832 15.6794C18.4382 15.7271 18.5005 15.7611 18.5703 15.7813C18.6401 15.8016 18.7127 15.8118 18.7883 15.8118C18.8913 15.8118 18.9799 15.7974 19.0543 15.7688C19.1286 15.7402 19.1989 15.7008 19.2654 15.6507V15.7079C19.2654 15.7271 19.2723 15.7438 19.286 15.758C19.2997 15.7724 19.3157 15.7795 19.3341 15.7795H19.7185C19.7368 15.7795 19.7528 15.7724 19.7666 15.758C19.7803 15.7438 19.7871 15.7271 19.7871 15.7079V14.4299ZM19.1092 15.3517C19.1561 15.3363 19.2002 15.3177 19.2414 15.2963V14.9025H19.0457C18.9862 14.9025 18.937 14.9079 18.8981 14.9186C18.8592 14.9293 18.8283 14.9455 18.8055 14.967C18.7825 14.9884 18.7665 15.0159 18.7574 15.0492C18.7482 15.0827 18.7437 15.1208 18.7437 15.1638V15.1961C18.7437 15.2724 18.7613 15.3213 18.7968 15.3428C18.8323 15.3643 18.8866 15.375 18.9599 15.375C19.0125 15.375 19.0622 15.3673 19.1092 15.3517ZM21.476 15.6758V15.3572C21.476 15.338 21.4696 15.3232 21.4571 15.3124C21.4445 15.3016 21.4291 15.2963 21.4107 15.2963H21.4039C21.3398 15.3034 21.2786 15.3094 21.2202 15.3142C21.1619 15.3189 21.0835 15.3213 20.9851 15.3213C20.9462 15.3213 20.9095 15.3148 20.8753 15.3016C20.841 15.2885 20.8112 15.2659 20.786 15.2336C20.7608 15.2014 20.7408 15.1584 20.726 15.1048C20.711 15.051 20.7037 14.9848 20.7037 14.9061V14.6054C20.7037 14.5266 20.711 14.4604 20.726 14.4067C20.7408 14.3529 20.7608 14.31 20.786 14.2778C20.8112 14.2456 20.841 14.2229 20.8753 14.2098C20.9095 14.1967 20.9462 14.1901 20.9851 14.1901C21.0835 14.1901 21.1619 14.1926 21.2202 14.1973C21.2786 14.202 21.3398 14.2081 21.4039 14.2151H21.4107C21.4291 14.2151 21.4445 14.2098 21.4571 14.1991C21.4696 14.1883 21.476 14.1734 21.476 14.1543V13.8357C21.476 13.8095 21.4703 13.7909 21.4588 13.7802C21.4472 13.7695 21.4291 13.7605 21.4039 13.7533C21.3559 13.7414 21.2934 13.7295 21.2168 13.7175C21.1401 13.7056 21.0504 13.6997 20.9474 13.6997C20.7047 13.6997 20.5109 13.7772 20.3655 13.9324C20.2202 14.0875 20.1476 14.3118 20.1476 14.6054V14.9061C20.1476 15.1996 20.2202 15.424 20.3655 15.579C20.5109 15.7343 20.7047 15.8118 20.9474 15.8118C21.0504 15.8118 21.1401 15.8058 21.2168 15.794C21.2934 15.7819 21.3559 15.77 21.4039 15.758C21.4291 15.7509 21.4472 15.742 21.4588 15.7312C21.4703 15.7205 21.476 15.702 21.476 15.6758ZM22.9554 15.4353V15.7124C22.9554 15.7526 22.9336 15.7763 22.8902 15.7833C22.8375 15.7928 22.7917 15.7999 22.7529 15.8046C22.7139 15.8094 22.6693 15.8118 22.619 15.8118C22.5256 15.8118 22.4432 15.804 22.3715 15.7885C22.2998 15.773 22.2401 15.7426 22.1924 15.6972C22.1447 15.6519 22.1082 15.5892 22.0832 15.5092C22.0583 15.4293 22.0457 15.3262 22.0457 15.1996V14.1615L21.7712 14.1149C21.7528 14.1101 21.7362 14.1012 21.7213 14.0881C21.7064 14.075 21.699 14.0588 21.699 14.0397V13.8034C21.699 13.7844 21.7064 13.7671 21.7213 13.7515C21.7362 13.7361 21.7528 13.7283 21.7712 13.7283H22.0457V13.4347C22.0457 13.4156 22.0526 13.4001 22.0662 13.3882C22.0797 13.3763 22.0957 13.368 22.1139 13.3631L22.5301 13.288H22.5404C22.5586 13.288 22.5734 13.2933 22.5847 13.304C22.5961 13.3148 22.6018 13.3298 22.6018 13.3488V13.7283H22.8833C22.9016 13.7283 22.9176 13.7355 22.9314 13.7499C22.945 13.7643 22.952 13.7813 22.952 13.8005V14.0928C22.952 14.1121 22.945 14.1289 22.9314 14.1434C22.9176 14.1578 22.9016 14.165 22.8833 14.165H22.6018V15.2068C22.6018 15.2783 22.6075 15.3244 22.619 15.3446C22.6304 15.3649 22.6624 15.375 22.7151 15.375H22.8833C22.9314 15.375 22.9554 15.3951 22.9554 15.4353Z" fill="#005697"/>
</svg>
