<svg width="34" height="24" viewBox="0 0 34 24" fill="none" xmlns="http://www.w3.org/2000/svg">
<rect width="34" height="24" rx="4" fill="white"/>
<path fill-rule="evenodd" clip-rule="evenodd" d="M14.4172 9.70959C15.0642 9.96033 15.7086 10.2299 16.3368 10.5346C14.3255 11.3434 12.3708 12.3113 10.5213 13.4248C9.89314 13.1013 9.24608 12.7777 8.60172 12.4919C10.4674 11.4162 12.4059 10.4834 14.4172 9.70959Z" fill="#0067B1"/>
<path fill-rule="evenodd" clip-rule="evenodd" d="M12.0122 8.86572C9.93088 9.52896 7.91961 10.3917 6 11.4324C6.60931 11.6669 7.22132 11.8988 7.81176 12.1495C9.66127 11.0549 11.6159 10.141 13.6434 9.42111C13.1042 9.2243 12.5676 9.02749 12.0096 8.86572H12.0122Z" fill="#0067B1"/>
<path fill-rule="evenodd" clip-rule="evenodd" d="M18.7767 9.62057C17.1267 8.83062 15.4201 8.16739 13.6811 7.62817C13.0529 7.80881 12.4436 8.00563 11.8505 8.20244C13.6461 8.74165 15.4039 9.42376 17.0917 10.2299C17.647 10.0142 18.2051 9.81739 18.7794 9.62057H18.7767Z" fill="#EE2A24"/>
<path fill-rule="evenodd" clip-rule="evenodd" d="M21.4512 8.83063C19.7823 8.0946 18.0407 7.48529 16.264 7C15.6897 7.10784 15.1343 7.23456 14.5762 7.37745C16.3341 7.89779 18.0568 8.54485 19.7095 9.3348C20.2838 9.15416 20.8769 8.97622 21.4512 8.83333V8.83063Z" fill="#EE2A24"/>
<path fill-rule="evenodd" clip-rule="evenodd" d="M25.7595 10.265C21.5429 11.6832 17.5931 13.7106 14.0235 16.2422C14.9213 16.7976 15.7814 17.3719 16.6252 18.0001C19.998 15.3255 23.751 13.1013 27.7708 11.4135C27.1076 11.001 26.4416 10.6236 25.7595 10.265Z" fill="#EE2A24"/>
<path fill-rule="evenodd" clip-rule="evenodd" d="M22.8505 8.90076C18.472 10.0493 14.3632 11.915 10.648 14.3927C11.473 14.8052 12.298 15.2365 13.1069 15.703C16.7492 13.1902 20.788 11.2167 25.0936 9.92527C24.3576 9.56669 23.6215 9.20811 22.8505 8.90345V8.90076Z" fill="#EE2A24"/>
</svg>
