<svg width="58" height="40" viewBox="0 0 58 40" fill="none" xmlns="http://www.w3.org/2000/svg">
<path fill-rule="evenodd" clip-rule="evenodd" d="M42.0006 19.9995C42.0006 12.8198 36.1793 7 29.0011 7C21.8204 7 16 12.8198 16 19.9995C16 27.1784 21.8204 33 29.0011 33C36.1793 33 42.0006 27.1784 42.0006 19.9995ZM25.7587 30.6222C26.79 30.6222 27.5595 30.5212 27.6149 29.1187H30.1531C30.2086 30.5212 30.9879 30.5668 31.9934 30.5668V31.2781H25.7587V30.6222ZM32.3439 18.8663C33.703 19.2966 36.8927 20.7511 36.8927 23.7604C36.8927 26.7283 34.0951 28.4962 30.7745 28.4962H21.1079L21.1178 27.7261C22.8714 27.7261 23.3908 27.495 23.3908 25.7044V14.3784C23.3908 12.3851 22.604 12.2604 21.1144 12.2604V11.5439C21.3935 11.5374 24.9051 11.542 27.6149 11.5439C27.5595 10.1398 26.79 10.0379 25.7587 10.0379V9.38329H31.9934V10.0942C30.9879 10.0942 30.2086 10.1398 30.1531 11.5439H30.7745C32.1767 11.5439 35.6199 12.0266 35.6264 14.8615C35.6313 16.8508 34.2876 18.1162 32.3439 18.8663ZM34.2189 24.2366C34.2189 21.8823 32.6024 20.315 30.6358 19.3653C29.3532 19.6441 27.8475 19.8073 26.4391 19.8193L26.7931 18.9411C27.1128 18.9306 27.3549 18.9109 27.6149 18.8955V13.0064H30.1531V18.5148C32.2801 17.887 33.1707 16.6247 33.1707 15.159C33.1707 13.2806 31.7463 12.3836 30.1467 12.3836L25.9339 12.3851V25.7565C25.9339 27.1719 26.785 27.4686 27.6149 27.4833V20.5284C28.5664 20.4952 29.5888 20.3599 30.1531 20.2287V27.4833C32.1816 27.4815 34.2189 26.2456 34.2189 24.2366Z" fill="#004F91"/>
</svg>
