<svg width="58" height="40" viewBox="0 0 58 40" fill="none" xmlns="http://www.w3.org/2000/svg">
<path fill-rule="evenodd" clip-rule="evenodd" d="M13.7306 22.9627L14.3962 22.297L15.0723 22.973L14.4066 23.6387L13.7306 22.9627ZM15.5308 22.9627L16.1965 22.297L16.8732 22.973L16.2076 23.6387L15.5308 22.9627ZM9.26847 18.1552L9.94448 17.4784L10.6316 18.1655L9.95557 18.843L9.26847 18.1566V18.1552ZM13.1581 14.8091C12.0132 15.6345 11.4821 16.1804 11.2913 17.2077C10.9711 18.9295 11.6907 20.2401 11.7684 20.4894H10.409C10.9038 20.7926 11.389 21.5382 11.7063 21.5544C12.0406 21.5722 12.224 21.567 12.224 21.567C12.6604 22.4242 12.6049 23.4974 12.3985 24.0285C12.17 24.6202 11.6175 25.2821 10.3417 24.8827C9.0843 24.4878 7.65832 23.4863 7.39723 22.0278C7.29664 21.4642 7.39723 20.6847 7.56069 20.3267C7.80328 19.8038 8.28182 19.2579 8.77218 18.5738C7.81068 19.3496 6.48602 20.7926 6.10955 22.2046C5.6754 23.848 6.61397 25.0151 7.48155 25.74C8.34912 26.4648 9.86386 26.791 10.6079 26.5535C11.3749 26.3132 11.562 26.0114 11.9962 25.5077C12.5294 24.8864 12.934 24.2311 13.0487 23.7489C13.2558 22.8769 13.0768 21.5544 13.0768 21.5544C13.0768 21.5544 15.0146 21.6284 15.9184 21.5722C16.5537 21.5323 17.814 20.9154 17.9109 19.6203C18.0093 18.3112 16.6277 17.3408 15.5375 16.8682C16.1869 17.5694 16.3193 18.3689 16.0966 18.9599C15.8474 19.6255 15.2246 20.1432 14.5079 20.3474C13.9792 20.4915 13.427 20.5287 12.8837 20.4568C12.44 19.7771 12.1922 16.6981 13.1581 14.8091ZM13.7402 14.5946C15.4413 14.8905 17.8725 16.2114 18.7504 18.113C19.706 20.1839 18.8103 22.3288 17.3791 23.7874C16.3599 24.8273 15.0345 25.2037 14.2942 25.3642C13.7853 25.4722 13.4806 25.3376 13.1995 25.4293C12.5339 25.6438 12.0835 26.4544 11.4666 26.9611C13.1441 27.018 15.7498 27.2 17.7881 25.751C20.3302 23.9434 20.0935 20.4369 19.6638 18.9547C19.2341 17.4725 17.9723 14.4607 14.985 13C14.63 13.6805 14.3393 14.1094 13.7402 14.5946Z" fill="#6FBD62"/>
<path fill-rule="evenodd" clip-rule="evenodd" d="M28.1695 18.6484H28.5482V18.3356C28.4084 18.3948 28.1621 18.4044 28.1621 18.1877V16.3386C28.1683 16.1137 28.1399 15.8892 28.0778 15.673C28.033 15.5226 27.9526 15.3853 27.8433 15.2728C27.5963 15.0332 27.2989 15.0103 26.9831 14.9947C26.6016 14.9753 26.2203 15.0365 25.8641 15.1745L25.8589 15.5332C26.2531 15.3675 26.9151 15.2077 27.3322 15.3852C27.4477 15.4292 27.548 15.5059 27.6207 15.6058C27.6935 15.7057 27.7356 15.8247 27.742 15.9481C27.7531 16.116 27.7538 16.2824 27.7538 16.4503C26.7812 16.2573 25.5231 16.3564 25.5349 17.6159C25.5353 17.8239 25.5968 18.0271 25.7117 18.2004C25.8267 18.3737 25.99 18.5095 26.1814 18.5908C26.7339 18.8126 27.4764 18.7158 27.8085 18.1825V18.2823C27.8097 18.379 27.8487 18.4714 27.9171 18.5397C27.9855 18.608 28.078 18.6467 28.1746 18.6477L28.1695 18.6484ZM27.722 17.4961C27.7109 17.8349 27.6155 18.3992 26.7694 18.3992C26.6597 18.4022 26.5505 18.3829 26.4486 18.3424C26.3466 18.3019 26.254 18.241 26.1763 18.1635C26.0986 18.0859 26.0376 17.9934 25.9969 17.8915C25.9562 17.7896 25.9367 17.6805 25.9395 17.5708C25.9395 16.4932 27.0822 16.6382 27.7338 16.7572L27.722 17.4961Z" fill="#420655"/>
<path fill-rule="evenodd" clip-rule="evenodd" d="M29.7352 15.0591H28.9875V15.3668H29.3669V18.6544H29.7412V16.2587C29.7352 15.7284 30.4068 15.2706 30.9305 15.3054C31.1331 15.3187 31.4194 15.4319 31.5532 15.6094C31.6871 15.7869 31.7196 16.0879 31.7196 16.3179V18.6544H32.1309V16.2839C32.1309 15.4614 31.7374 15.0265 30.892 14.9947C30.4031 14.9785 29.9231 15.1685 29.7352 15.5665V15.0591Z" fill="#420655"/>
<path fill-rule="evenodd" clip-rule="evenodd" d="M36.0339 18.3326C35.5797 18.3578 35.6848 18.4428 34.67 16.5886L35.7794 15.0642H35.3223L34.3076 16.4836H33.6937C33.6937 15.5285 33.6937 14.5736 33.6937 13.619H32.9016V14.0561H33.2714V18.6543H33.6966V16.792L34.3165 16.8031C35.4998 18.8001 35.258 18.6521 36.0346 18.6225L36.0339 18.3326Z" fill="#420655"/>
<path fill-rule="evenodd" clip-rule="evenodd" d="M21.3812 13.9674V14.2914H21.8087V18.6551H23.3619C23.751 18.6551 24.1141 18.5893 24.4299 18.3097C24.7095 18.0619 24.8131 17.7121 24.8131 17.3201C24.8131 16.7595 24.5024 16.329 23.9492 16.1789C24.1414 16.0817 24.3016 15.9313 24.4107 15.7456C24.5198 15.5599 24.5732 15.3468 24.5645 15.1316C24.5645 14.409 23.9729 13.9681 23.2761 13.9681L21.3812 13.9674ZM22.2532 16.065V14.2943H23.2332C23.9285 14.3261 24.0934 14.6989 24.0934 15.187C24.0986 15.7344 23.8375 16.0664 23.2732 16.0664L22.2532 16.065ZM22.2532 18.306V16.417H23.2769C23.9995 16.417 24.3316 16.6389 24.3316 17.3194C24.3316 18.0361 23.91 18.306 23.359 18.306H22.2532Z" fill="#420655"/>
<path fill-rule="evenodd" clip-rule="evenodd" d="M29.5644 25.2895C29.3625 25.5854 28.9298 25.6926 28.5467 25.6926C27.6776 25.6926 27.2775 25.1889 27.2775 24.3657V22.0677H27.9956V24.3332C27.9956 24.7067 28.0489 25.1815 28.6916 25.1815C29.0614 25.1815 29.4246 25.1076 29.5429 24.5159V22.0677H30.2419V24.902C30.2515 25.1852 30.3195 25.2459 30.6701 25.0987V25.5062C30.4867 25.663 29.7508 25.8073 29.5644 25.2895Z" fill="#420655"/>
<path fill-rule="evenodd" clip-rule="evenodd" d="M45.0209 21.1491H44.6016V20.6003H45.7317V24.9478C45.7317 25.2148 45.9084 25.2592 46.1806 25.1017V25.5181C45.8581 25.7769 45.0246 25.74 45.0209 25.1142V21.1491Z" fill="#420655"/>
<path fill-rule="evenodd" clip-rule="evenodd" d="M50.8336 22.598H50.2723V22.0847H50.8336V21.1972L51.5474 20.942V22.0862H52.361V22.5995H51.5474V24.6261C51.5451 24.7128 51.5518 24.7996 51.5674 24.8849C51.6605 25.3087 52.25 25.2111 52.5178 25.0107V25.4996C51.9919 25.8095 50.9919 25.8265 50.8581 25.0425C50.8406 24.8952 50.8325 24.747 50.8336 24.5987V22.598Z" fill="#420655"/>
<path fill-rule="evenodd" clip-rule="evenodd" d="M34.0169 24.9464C34.0169 25.2763 34.3128 25.1882 34.4703 25.0736V25.527C34.0916 25.7489 33.6072 25.7341 33.335 25.3591C33.0096 25.8088 31.6035 25.8872 31.2803 25.0721C30.8365 23.9442 31.6294 22.9169 33.3342 23.4117C33.3542 22.0693 32.0333 22.4997 31.48 22.8155L31.4963 22.2727C32.0414 21.8918 33.1235 21.911 33.6649 22.3466C33.7937 22.4542 33.8921 22.5937 33.9504 22.7512C34.028 22.9457 34.0169 23.172 34.0169 23.3799V24.9456V24.9464ZM33.335 24.5026V23.8784C31.838 23.4797 31.7167 24.4338 32.0074 24.9375C32.3121 25.4693 33.3453 25.1993 33.335 24.5063V24.5026Z" fill="#420655"/>
<path fill-rule="evenodd" clip-rule="evenodd" d="M35.7025 22.4879C35.8593 22.2187 36.2816 22.0012 36.664 22.0012C37.1817 22.0012 37.7298 22.1491 37.9147 22.5826C38.0441 22.175 38.6047 21.9509 39.0596 21.985C39.9087 22.0486 40.2578 22.5167 40.2578 23.297V25.6291H39.5182V23.3296C39.5285 22.1765 38.0389 22.4783 38.0434 23.2896V25.6291H37.3511V23.3296C37.3511 22.2128 35.8992 22.442 35.8866 23.2364V25.6291H35.1529V22.5966H34.7025V22.0663L35.5679 22.0582L35.7025 22.4879Z" fill="#420655"/>
<path fill-rule="evenodd" clip-rule="evenodd" d="M25.6451 22.3628L24.3145 25.6031H23.8515L22.4322 22.3539V25.6134H21.7836V21.0056H22.5454L24.0986 24.6261L25.5786 21.0056H26.2975V25.6134H25.6451V22.3628Z" fill="#420655"/>
<path fill-rule="evenodd" clip-rule="evenodd" d="M43.8967 24.9464C43.8967 25.2763 44.1926 25.1882 44.3508 25.0736V25.527C43.9722 25.7489 43.487 25.7341 43.2148 25.3591C42.8894 25.8088 41.4833 25.8872 41.1609 25.0721C40.7171 23.9442 41.51 22.9169 43.2148 23.4117C43.2348 22.0693 41.9131 22.4997 41.3598 22.8155L41.3768 22.2727C41.9219 21.8918 43.004 21.911 43.5454 22.3466C43.6738 22.4546 43.7722 22.594 43.8309 22.7512C43.9049 22.9457 43.8967 23.172 43.8967 23.3799V24.9456V24.9464ZM43.2148 24.5026V23.8784C41.7185 23.4797 41.5965 24.4338 41.8879 24.9375C42.1919 25.4693 43.2259 25.1993 43.2148 24.5063V24.5026Z" fill="#420655"/>
<path fill-rule="evenodd" clip-rule="evenodd" d="M49.563 24.9464C49.563 25.2763 49.8588 25.1882 50.0171 25.0736V25.527C49.6384 25.7489 49.1532 25.7341 48.881 25.3591C48.5556 25.8088 47.1496 25.8872 46.8271 25.0721C46.3834 23.9442 47.1762 22.9169 48.881 23.4117C48.901 22.0693 47.5793 22.4997 47.0261 22.8155L47.0431 22.2727C47.5882 21.8918 48.6702 21.911 49.2116 22.3466C49.3401 22.4546 49.4384 22.594 49.4971 22.7512C49.5711 22.9457 49.563 23.172 49.563 23.3799V24.9456V24.9464ZM48.881 24.5026V23.8784C47.3848 23.4797 47.2628 24.4338 47.5542 24.9375C47.8582 25.4693 48.8921 25.1993 48.881 24.5063V24.5026Z" fill="#420655"/>
</svg>
