<svg width="34" height="24" viewBox="0 0 34 24" fill="none" xmlns="http://www.w3.org/2000/svg">
<path fill-rule="evenodd" clip-rule="evenodd" d="M8.41748 13.693L8.79786 13.3126L9.18415 13.6989L8.80377 14.0793L8.41748 13.693ZM9.44618 13.693L9.82656 13.3126L10.2133 13.6989L9.8329 14.0793L9.44618 13.693ZM5.8677 10.9458L6.25399 10.5591L6.64662 10.9517L6.26033 11.3389L5.8677 10.9466V10.9458ZM8.09036 9.03378C7.43611 9.50544 7.13266 9.81735 7.02361 10.4044C6.84061 11.3883 7.25184 12.1372 7.29622 12.2797H6.51941C6.80215 12.4529 7.0794 12.879 7.26072 12.8883C7.45175 12.8984 7.55656 12.8954 7.55656 12.8954C7.80592 13.3853 7.77422 13.9985 7.65631 14.302C7.52571 14.6401 7.21 15.0184 6.48095 14.7901C5.76246 14.5644 4.94761 13.9922 4.79842 13.1587C4.74094 12.8367 4.79842 12.3912 4.89182 12.1867C5.03045 11.8879 5.30389 11.576 5.5841 11.185C5.03467 11.6284 4.27773 12.4529 4.0626 13.2598C3.81451 14.1989 4.35084 14.8658 4.8466 15.28C5.34235 15.6942 6.20792 15.8805 6.6331 15.7449C7.07137 15.6075 7.1783 15.4351 7.42639 15.1473C7.73111 14.7922 7.9623 14.4178 8.02781 14.1422C8.14615 13.6439 8.04387 12.8883 8.04387 12.8883C8.04387 12.8883 9.15118 12.9305 9.66765 12.8984C10.0307 12.8756 10.7509 12.5231 10.8062 11.7831C10.8625 11.035 10.073 10.4805 9.44999 10.2104C9.82107 10.6111 9.89672 11.0679 9.7695 11.4056C9.62707 11.786 9.27121 12.0819 8.86167 12.1985C8.55954 12.2808 8.24401 12.3021 7.93356 12.2611C7.67997 11.8727 7.53839 10.1132 8.09036 9.03378ZM8.42297 8.91121C9.39505 9.08027 10.7843 9.8351 11.2859 10.9217C11.832 12.1051 11.3202 13.3308 10.5024 14.1642C9.91996 14.7584 9.16259 14.9736 8.73953 15.0653C8.44876 15.127 8.27463 15.0501 8.11403 15.1025C7.73365 15.225 7.47626 15.6882 7.12378 15.9778C8.08233 16.0103 9.57129 16.1143 10.7361 15.2863C12.1887 14.2534 12.0534 12.2496 11.8079 11.4027C11.5623 10.5557 10.8413 8.83471 9.13428 8C8.93141 8.38883 8.76531 8.63396 8.42297 8.91121Z" fill="#6FBD62"/>
<path fill-rule="evenodd" clip-rule="evenodd" d="M16.6682 11.2277H16.8846V11.0489C16.8048 11.0827 16.664 11.0882 16.664 10.9644V9.90776C16.6676 9.77925 16.6513 9.65095 16.6158 9.52739C16.5903 9.44148 16.5443 9.36303 16.4819 9.29874C16.3407 9.16181 16.1708 9.1487 15.9903 9.13983C15.7723 9.12872 15.5544 9.16372 15.3509 9.24253L15.3479 9.44751C15.5732 9.35284 15.9514 9.26155 16.1898 9.36298C16.2558 9.38812 16.3131 9.43191 16.3547 9.48901C16.3962 9.54612 16.4203 9.61407 16.424 9.68461C16.4303 9.78055 16.4307 9.87564 16.4307 9.97158C15.8749 9.86127 15.156 9.91791 15.1628 10.6377C15.163 10.7565 15.1982 10.8726 15.2638 10.9717C15.3295 11.0707 15.4228 11.1482 15.5322 11.1947C15.8479 11.3215 16.2722 11.2661 16.462 10.9614V11.0185C16.4627 11.0737 16.4849 11.1265 16.524 11.1655C16.5631 11.2045 16.616 11.2267 16.6712 11.2272L16.6682 11.2277ZM16.4125 10.5692C16.4062 10.7628 16.3517 11.0852 15.8682 11.0852C15.8055 11.087 15.7431 11.0759 15.6849 11.0528C15.6266 11.0296 15.5737 10.9948 15.5293 10.9505C15.4849 10.9062 15.45 10.8534 15.4268 10.7951C15.4035 10.7369 15.3924 10.6746 15.394 10.6119C15.394 9.9961 16.047 10.0789 16.4193 10.147L16.4125 10.5692Z" fill="#420655"/>
<path fill-rule="evenodd" clip-rule="evenodd" d="M17.563 9.1766H17.1357V9.35242H17.3525V11.2311H17.5664V9.86212C17.563 9.55909 17.9467 9.29748 18.246 9.31734C18.3618 9.32495 18.5253 9.38961 18.6018 9.49105C18.6783 9.59248 18.6969 9.76449 18.6969 9.89593V11.2311H18.9319V9.87649C18.9319 9.40652 18.7071 9.15801 18.224 9.13983C17.9446 9.13053 17.6703 9.23915 17.563 9.46653V9.1766Z" fill="#420655"/>
<path fill-rule="evenodd" clip-rule="evenodd" d="M21.1622 11.0472C20.9027 11.0616 20.9627 11.1102 20.3829 10.0507L21.0168 9.1796H20.7556L20.1758 9.99064H19.825C19.825 9.44487 19.825 8.89925 19.825 8.35376H19.3723V8.60354H19.5836V11.2311H19.8267V10.1669L20.1808 10.1732C20.8571 11.3144 20.7189 11.2298 21.1626 11.2129L21.1622 11.0472Z" fill="#420655"/>
<path fill-rule="evenodd" clip-rule="evenodd" d="M12.7893 8.55286V8.73797H13.0336V11.2315H13.9211C14.1434 11.2315 14.3509 11.1939 14.5314 11.0342C14.6912 10.8926 14.7503 10.6927 14.7503 10.4687C14.7503 10.1483 14.5728 9.90235 14.2567 9.81655C14.3665 9.76103 14.4581 9.67509 14.5204 9.56898C14.5828 9.46287 14.6133 9.34106 14.6083 9.21809C14.6083 8.80517 14.2702 8.55328 13.8721 8.55328L12.7893 8.55286ZM13.2876 9.75146V8.73966H13.8476C14.2448 8.75784 14.3391 8.97085 14.3391 9.24979C14.3421 9.56254 14.1929 9.75231 13.8704 9.75231L13.2876 9.75146ZM13.2876 11.0321V9.95264H13.8725C14.2854 9.95264 14.4752 10.0794 14.4752 10.4683C14.4752 10.8778 14.2343 11.0321 13.9194 11.0321H13.2876Z" fill="#420655"/>
<path fill-rule="evenodd" clip-rule="evenodd" d="M17.4653 15.0225C17.35 15.1916 17.1027 15.2529 16.8838 15.2529C16.3872 15.2529 16.1585 14.9651 16.1585 14.4947V13.1815H16.5689V14.4761C16.5689 14.6895 16.5994 14.9608 16.9666 14.9608C17.178 14.9608 17.3855 14.9186 17.4531 14.5805V13.1815H17.8525V14.8011C17.858 14.9629 17.8969 14.9976 18.0972 14.9135V15.1464C17.9924 15.236 17.5719 15.3184 17.4653 15.0225Z" fill="#420655"/>
<path fill-rule="evenodd" clip-rule="evenodd" d="M26.2977 12.6566H26.058V12.343H26.7038V14.8273C26.7038 14.9799 26.8048 15.0052 26.9604 14.9152V15.1531C26.7761 15.3011 26.2998 15.2799 26.2977 14.9224V12.6566Z" fill="#420655"/>
<path fill-rule="evenodd" clip-rule="evenodd" d="M29.6192 13.4846H29.2984V13.1913H29.6192V12.6841L30.0271 12.5383V13.1922H30.492V13.4855H30.0271V14.6435C30.0258 14.6931 30.0296 14.7426 30.0385 14.7914C30.0917 15.0336 30.4286 14.9778 30.5816 14.8633V15.1426C30.2811 15.3197 29.7097 15.3294 29.6332 14.8814C29.6232 14.7973 29.6185 14.7126 29.6192 14.6279V13.4846Z" fill="#420655"/>
<path fill-rule="evenodd" clip-rule="evenodd" d="M20.0097 14.8264C20.0097 15.0149 20.1787 14.9646 20.2687 14.8991V15.1582C20.0523 15.285 19.7755 15.2765 19.62 15.0623C19.434 15.3192 18.6306 15.364 18.4459 14.8983C18.1923 14.2537 18.6454 13.6667 19.6196 13.9494C19.631 13.1824 18.8761 13.4283 18.56 13.6088L18.5693 13.2986C18.8808 13.0809 19.4991 13.0919 19.8085 13.3408C19.8821 13.4023 19.9384 13.482 19.9716 13.572C20.016 13.6832 20.0097 13.8125 20.0097 13.9313V14.826V14.8264ZM19.62 14.5728V14.2161C18.7646 13.9883 18.6952 14.5335 18.8613 14.8213C19.0355 15.1252 19.6259 14.971 19.62 14.5749V14.5728Z" fill="#420655"/>
<path fill-rule="evenodd" clip-rule="evenodd" d="M20.9728 13.4217C21.0624 13.2678 21.3038 13.1436 21.5223 13.1436C21.8181 13.1436 22.1313 13.2281 22.237 13.4758C22.3109 13.2429 22.6313 13.1148 22.8912 13.1343C23.3764 13.1706 23.5759 13.4381 23.5759 13.884V15.2166H23.1532V13.9026C23.1592 13.2437 22.308 13.4162 22.3105 13.8798V15.2166H21.9149V13.9026C21.9149 13.2644 21.0853 13.3954 21.0781 13.8494V15.2166H20.6588V13.4838H20.4014V13.1807L20.8959 13.1761L20.9728 13.4217Z" fill="#420655"/>
<path fill-rule="evenodd" clip-rule="evenodd" d="M15.2258 13.3503L14.4654 15.2018H14.2009L13.3898 13.3452V15.2078H13.0192V12.5747H13.4545L14.342 14.6435L15.1877 12.5747H15.5985V15.2078H15.2258V13.3503Z" fill="#420655"/>
<path fill-rule="evenodd" clip-rule="evenodd" d="M25.6553 14.8264C25.6553 15.0149 25.8243 14.9646 25.9148 14.8991V15.1582C25.6984 15.285 25.4211 15.2765 25.2656 15.0623C25.0796 15.3192 24.2762 15.364 24.0919 14.8983C23.8383 14.2537 24.2914 13.6667 25.2656 13.9494C25.277 13.1824 24.5217 13.4283 24.2056 13.6088L24.2153 13.2986C24.5268 13.0809 25.1451 13.0919 25.4545 13.3408C25.5279 13.4025 25.5841 13.4822 25.6176 13.572C25.6599 13.6832 25.6553 13.8125 25.6553 13.9313V14.826V14.8264ZM25.2656 14.5728V14.2161C24.4106 13.9883 24.3408 14.5335 24.5074 14.8213C24.6811 15.1252 25.2719 14.971 25.2656 14.5749V14.5728Z" fill="#420655"/>
<path fill-rule="evenodd" clip-rule="evenodd" d="M28.8931 14.8264C28.8931 15.0149 29.0622 14.9646 29.1526 14.8991V15.1582C28.9362 15.285 28.659 15.2765 28.5034 15.0623C28.3175 15.3192 27.514 15.364 27.3298 14.8983C27.0762 14.2537 27.5293 13.6667 28.5034 13.9494C28.5148 13.1824 27.7596 13.4283 27.4435 13.6088L27.4532 13.2986C27.7647 13.0809 28.383 13.0919 28.6923 13.3408C28.7657 13.4025 28.8219 13.4822 28.8555 13.572C28.8977 13.6832 28.8931 13.8125 28.8931 13.9313V14.826V14.8264ZM28.5034 14.5728V14.2161C27.6484 13.9883 27.5787 14.5335 27.7452 14.8213C27.9189 15.1252 28.5098 14.971 28.5034 14.5749V14.5728Z" fill="#420655"/>
</svg>
