<svg width="46" height="32" viewBox="0 0 46 32" fill="none" xmlns="http://www.w3.org/2000/svg">
<path fill-rule="evenodd" clip-rule="evenodd" d="M34.0005 15.9996C34.0005 9.92442 29.0748 5 23.0009 5C16.9249 5 12 9.92442 12 15.9996C12 22.074 16.9249 27 23.0009 27C29.0748 27 34.0005 22.074 34.0005 15.9996ZM20.2573 24.9881C21.13 24.9881 21.7811 24.9026 21.828 23.7158H23.9757C24.0227 24.9026 24.6821 24.9411 25.5328 24.9411V25.543H20.2573V24.9881ZM25.8295 15.0407C26.9794 15.4048 29.6785 16.6356 29.6785 19.1819C29.6785 21.6932 27.3113 23.1891 24.5015 23.1891H16.3221L16.3304 22.5374C17.8143 22.5374 18.2537 22.342 18.2537 20.8268V11.2433C18.2537 9.55665 17.588 9.45108 16.3275 9.45108V8.84482C16.5637 8.83934 19.5351 8.84325 21.828 8.84482C21.7811 7.65678 21.13 7.57051 20.2573 7.57051V7.01663H25.5328V7.61821C24.6821 7.61821 24.0227 7.65678 23.9757 8.84482H24.5015C25.6879 8.84482 28.6015 9.25325 28.6069 11.652C28.6111 13.3353 27.4742 14.406 25.8295 15.0407ZM27.416 19.5848C27.416 17.5927 26.0481 16.2665 24.3842 15.4629C23.2988 15.6988 22.0248 15.837 20.8331 15.8471L21.1326 15.104C21.4031 15.0952 21.608 15.0785 21.828 15.0654V10.0824H23.9757V14.7433C25.7755 14.2121 26.529 13.1439 26.529 11.9038C26.529 10.3144 25.3238 9.55535 23.9703 9.55535L20.4056 9.55665V20.8709C20.4056 22.0685 21.1258 22.3195 21.828 22.3321V16.4471C22.6331 16.419 23.4982 16.3046 23.9757 16.1935V22.3321C25.6921 22.3305 27.416 21.2848 27.416 19.5848Z" fill="#004F91"/>
</svg>
