<svg width="58" height="40" viewBox="0 0 58 40" fill="none" xmlns="http://www.w3.org/2000/svg">
<path d="M18.3591 13.3352C18.3591 13.3352 17.8556 12.1749 17.5863 12.0717C17.317 11.9684 16.7379 15.6302 17.0274 16.4179C17.0274 16.4179 18.5283 17.5984 18.7753 18.6246L19.6716 17.4856L20.2698 15.3471L18.358 13.3352H18.3591Z" fill="url(#paint0_linear_301_1518)" stroke="#A3822E" stroke-width="0.075" stroke-miterlimit="10"/>
<path d="M18.6699 17.2695C18.6699 17.2695 17.8364 15.5302 17.7768 13.2554" stroke="#A3822E" stroke-width="0.025" stroke-miterlimit="10"/>
<path d="M39.9244 13.3352C39.9244 13.3352 40.4279 12.1749 40.6972 12.0717C40.9665 11.9684 41.5456 15.6302 41.2561 16.4179C41.2561 16.4179 39.7552 17.5984 39.5082 18.6246L38.6119 17.4856L38.0137 15.3471L39.9255 13.3352H39.9244Z" fill="url(#paint1_linear_301_1518)" stroke="#A3822E" stroke-width="0.075" stroke-miterlimit="10"/>
<path d="M39.6136 17.2695C39.6136 17.2695 40.4471 15.5302 40.5067 13.2554" stroke="#A3822E" stroke-width="0.025" stroke-miterlimit="10"/>
<path d="M21.3353 10.5111C21.3353 10.5111 20.6903 9.22418 20.3709 9.22418C20.0516 9.22418 19.2937 11.4394 19.6428 12.5273C19.992 13.6152 20.4827 13.7397 20.3613 14.4103C20.241 15.081 22.3061 13.2458 22.3264 13.0957C22.3466 12.9456 22.2071 11.3393 22.2071 11.3393L21.3353 10.5111Z" fill="url(#paint2_linear_301_1518)" stroke="#A3822E" stroke-width="0.075" stroke-miterlimit="10"/>
<path d="M22.9502 7.83716C22.9502 7.83716 20.7222 8.3694 21.4993 12.9573C22.2764 17.5452 23.9125 12.3069 23.9125 12.3069C23.9125 12.3069 26.3171 10.3908 25.4592 9.93206C24.6012 9.47327 22.9502 7.83716 22.9502 7.83716Z" fill="url(#paint3_linear_301_1518)" stroke="#A3822E" stroke-width="0.075" stroke-miterlimit="10"/>
<path d="M21.4993 12.9573C21.4993 12.9573 22.2455 9.31359 24.0221 9.12943C25.7987 8.94528 26.0978 11.0434 26.0978 11.0434L22.3285 12.4772L21.5003 12.9573H21.4993Z" fill="url(#paint4_linear_301_1518)" stroke="#A3822E" stroke-width="0.075" stroke-miterlimit="10"/>
<path d="M19.9068 29.1832L18.6699 29.5899C18.6699 29.5899 19.6471 30.5873 20.4859 30.3776C21.3247 30.1679 22.3722 29.0364 22.3722 29.0364C22.3722 29.0364 22.4701 28.3178 22.3573 28.2816C22.2445 28.2454 19.9622 28.7905 19.9622 28.7905L19.9079 29.1832H19.9068Z" fill="url(#paint5_linear_301_1518)" stroke="#A3822E" stroke-width="0.075" stroke-miterlimit="10"/>
<path d="M18.5092 26.3911L16.9231 26.422C16.9231 26.422 18.1643 28.5307 19.662 29.0459C19.662 29.0459 20.3071 29.5931 21.5185 29.1247C22.7298 28.6563 22.9992 27.8526 22.9992 27.8526L20.8148 25.7971C20.8148 25.7971 19.4725 25.9483 19.3735 25.9621C19.2745 25.976 18.5102 26.3911 18.5102 26.3911H18.5092Z" fill="url(#paint6_linear_301_1518)" stroke="#A3822E" stroke-width="0.075" stroke-miterlimit="10"/>
<path d="M20.0101 26.6338C20.0101 26.6338 17.9854 26.8009 17.0434 25.1541C16.1002 23.5074 16.2503 22.8644 16.2503 22.8644C16.2503 22.8644 16.1758 22.5504 17.3616 23.3839L20.1272 23.583C20.1272 23.583 20.2666 24.3813 20.2719 24.723C20.2773 25.0647 20.487 26.1271 20.487 26.2325C20.487 26.3378 20.0122 26.6348 20.0122 26.6348L20.0101 26.6338Z" fill="url(#paint7_linear_301_1518)" stroke="#A3822E" stroke-width="0.075" stroke-miterlimit="10"/>
<path d="M21.957 28.5924C21.957 28.5924 20.6487 27.9527 19.9004 26.4262C19.1521 24.8997 19.3714 24.4367 19.3714 24.4367L20.3102 24.2515C20.3102 24.2515 20.8585 24.8391 21.0831 25.3937C21.3077 25.9472 22.2519 27.1596 22.4765 27.3544C22.7 27.5492 22.7149 28.1751 22.7149 28.1751L21.957 28.5924Z" fill="url(#paint8_linear_301_1518)" stroke="#A3822E" stroke-width="0.075" stroke-miterlimit="10"/>
<path d="M17.1594 19.9893C17.1594 19.9893 16.3397 19.4517 16.0108 19.4517C16.0108 19.4517 15.8724 20.859 16.5856 22.2204C17.2978 23.5819 18.0897 24.293 19.6098 24.4697C19.6098 24.4697 20.8159 22.2811 20.0676 21.5924C19.3192 20.9037 17.1605 19.9903 17.1605 19.9903L17.1594 19.9893Z" fill="url(#paint9_linear_301_1518)" stroke="#A3822E" stroke-width="0.075" stroke-miterlimit="10"/>
<path d="M18.7763 18.6246C18.7763 18.6246 18.804 17.525 16.6889 16.0688C16.6889 16.0688 15.5318 19.3016 18.176 20.8781L18.7306 21.256L19.3735 19.8041L18.7774 18.6257L18.7763 18.6246Z" fill="url(#paint10_linear_301_1518)" stroke="#A3822E" stroke-width="0.075" stroke-miterlimit="10"/>
<path d="M20.4604 14.3624C20.4604 14.3624 20.4412 12.3367 18.6699 11.5682C18.6699 11.5682 17.4862 13.9132 19.7418 15.4993C19.7418 15.4993 20.5413 14.9585 20.4604 14.3624Z" fill="url(#paint11_linear_301_1518)" stroke="#A3822E" stroke-width="0.075" stroke-miterlimit="10"/>
<path d="M21.1725 28.4274C21.0713 28.453 20.2613 28.3146 19.0999 27.71C18.7327 27.5194 18.3314 27.2821 17.9056 26.9893" stroke="#A3822E" stroke-width="0.025" stroke-miterlimit="10"/>
<path d="M19.1532 25.7971C19.1532 25.7971 17.5969 24.8093 16.9231 23.5819" stroke="#A3822E" stroke-width="0.025" stroke-miterlimit="10"/>
<path d="M18.6092 23.0135C18.6092 23.0135 17.0103 22.0246 16.2407 20.1245" stroke="#A3822E" stroke-width="0.025" stroke-miterlimit="10"/>
<path d="M18.3591 19.803C18.3591 19.803 17.2371 18.8226 16.9231 16.7863" stroke="#A3822E" stroke-width="0.025" stroke-miterlimit="10"/>
<path d="M19.5524 14.5902L18.8541 12.0717" stroke="#A3822E" stroke-width="0.025" stroke-miterlimit="10"/>
<path d="M36.9481 10.5111C36.9481 10.5111 37.5932 9.22418 37.9125 9.22418C38.2319 9.22418 38.9898 11.4394 38.6406 12.5273C38.2915 13.6152 37.8008 13.7397 37.9221 14.4103C38.0424 15.081 35.9773 13.2458 35.9571 13.0957C35.9369 12.9456 36.0763 11.3393 36.0763 11.3393L36.9481 10.5111Z" fill="url(#paint12_linear_301_1518)" stroke="#A3822E" stroke-width="0.075" stroke-miterlimit="10"/>
<path d="M35.3333 7.83716C35.3333 7.83716 37.5612 8.3694 36.7842 12.9573C36.0071 17.5452 34.371 12.3069 34.371 12.3069C34.371 12.3069 31.9663 10.3908 32.8243 9.93206C33.6823 9.47327 35.3333 7.83716 35.3333 7.83716Z" fill="url(#paint13_linear_301_1518)" stroke="#A3822E" stroke-width="0.075" stroke-miterlimit="10"/>
<path d="M36.7842 12.9573C36.7842 12.9573 36.038 9.31359 34.2613 9.12943C32.4847 8.94528 32.1856 11.0434 32.1856 11.0434L35.9549 12.4772L36.7831 12.9573H36.7842Z" fill="url(#paint14_linear_301_1518)" stroke="#A3822E" stroke-width="0.075" stroke-miterlimit="10"/>
<path d="M38.3766 29.1832L39.6136 29.5899C39.6136 29.5899 38.6364 30.5873 37.7976 30.3776C36.9598 30.1668 35.9113 29.0364 35.9113 29.0364C35.9113 29.0364 35.8134 28.3178 35.9262 28.2816C36.039 28.2454 38.3213 28.7905 38.3213 28.7905L38.3756 29.1832H38.3766Z" fill="url(#paint15_linear_301_1518)" stroke="#A3822E" stroke-width="0.075" stroke-miterlimit="10"/>
<path d="M39.7743 26.3911L41.3604 26.422C41.3604 26.422 40.1192 28.5307 38.6214 29.0459C38.6214 29.0459 37.9764 29.5931 36.765 29.1247C35.5536 28.6563 35.2843 27.8526 35.2843 27.8526L37.4686 25.7971C37.4686 25.7971 38.8109 25.9483 38.9099 25.9621C39.0089 25.976 39.7732 26.3911 39.7732 26.3911H39.7743Z" fill="url(#paint16_linear_301_1518)" stroke="#A3822E" stroke-width="0.075" stroke-miterlimit="10"/>
<path d="M38.2734 26.6338C38.2734 26.6338 40.298 26.8009 41.2401 25.1541C42.1832 23.5074 42.0331 22.8644 42.0331 22.8644C42.0331 22.8644 42.1077 22.5504 40.9218 23.3839L38.1563 23.583C38.1563 23.583 38.0169 24.3813 38.0115 24.723C38.0062 25.0647 37.7965 26.1271 37.7965 26.2325C37.7965 26.3378 38.2713 26.6348 38.2713 26.6348L38.2734 26.6338Z" fill="url(#paint17_linear_301_1518)" stroke="#A3822E" stroke-width="0.075" stroke-miterlimit="10"/>
<path d="M36.3254 28.5924C36.3254 28.5924 37.6336 27.9527 38.3819 26.4262C39.1303 24.8997 38.911 24.4367 38.911 24.4367L37.9721 24.2515C37.9721 24.2515 37.4239 24.8391 37.1993 25.3937C36.9747 25.9472 36.0305 27.1596 35.8059 27.3544C35.5813 27.5492 35.5674 28.1751 35.5674 28.1751L36.3254 28.5924Z" fill="url(#paint18_linear_301_1518)" stroke="#A3822E" stroke-width="0.075" stroke-miterlimit="10"/>
<path d="M41.124 19.9893C41.124 19.9893 41.9437 19.4517 42.2726 19.4517C42.2726 19.4517 42.411 20.859 41.6978 22.2204C40.9857 23.5819 40.1937 24.293 38.6736 24.4697C38.6736 24.4697 37.4675 22.2811 38.2159 21.5924C38.9642 20.9037 41.123 19.9903 41.123 19.9903L41.124 19.9893Z" fill="url(#paint19_linear_301_1518)" stroke="#A3822E" stroke-width="0.075" stroke-miterlimit="10"/>
<path d="M39.5071 18.6246C39.5071 18.6246 39.4794 17.525 41.5945 16.0688C41.5945 16.0688 42.7516 19.3016 40.1075 20.8781L39.5529 21.256L38.9099 19.8041L39.506 18.6257L39.5071 18.6246Z" fill="url(#paint20_linear_301_1518)" stroke="#A3822E" stroke-width="0.075" stroke-miterlimit="10"/>
<path d="M37.8231 14.3624C37.8231 14.3624 37.8423 12.3367 39.6136 11.5682C39.6136 11.5682 40.7973 13.9132 38.5417 15.4993C38.5417 15.4993 37.7422 14.9585 37.8231 14.3624Z" fill="url(#paint21_linear_301_1518)" stroke="#A3822E" stroke-width="0.075" stroke-miterlimit="10"/>
<path d="M22.6458 27.9058C22.5425 27.859 20.2507 30.8938 20.2507 30.8938C20.2507 30.8938 23.0694 34 29.4031 34C35.7367 34 37.9913 30.6139 37.9913 30.6139L35.5366 27.6365C35.5366 27.6365 31.2861 31.8498 22.6447 27.9058H22.6458Z" fill="url(#paint22_linear_301_1518)" stroke="#A3822E" stroke-width="0.075" stroke-miterlimit="10"/>
<path d="M22.6159 30.6554L22.6394 30.6714C22.6351 30.7831 22.6479 30.8779 22.6777 30.9556C22.7085 31.0333 22.7639 31.0993 22.8459 31.1546C22.9055 31.1951 22.9693 31.2164 23.0375 31.2185C23.1056 31.2206 23.1705 31.2057 23.2323 31.1738C23.294 31.1419 23.3451 31.0961 23.3845 31.0365C23.4473 30.9428 23.4654 30.8545 23.4366 30.7725C23.4079 30.6905 23.3504 30.5873 23.2642 30.4617C23.178 30.3361 23.1226 30.2243 23.0992 30.1274C23.0758 30.0306 23.1024 29.9241 23.1801 29.8091C23.2738 29.6697 23.3941 29.5941 23.5399 29.5835C23.6857 29.5728 23.8316 29.6165 23.9774 29.7144C24.036 29.7538 24.0892 29.8028 24.136 29.8602C24.1828 29.9177 24.2137 29.9784 24.2276 30.0401C24.1978 30.0582 24.136 30.1072 24.0413 30.1849L24.0189 30.17C24.037 30.0934 24.0338 30.021 24.0083 29.9528C23.9827 29.8847 23.937 29.8283 23.871 29.7836C23.8188 29.7485 23.7634 29.7272 23.7049 29.7197C23.6464 29.7123 23.591 29.7197 23.5378 29.7442C23.4845 29.7676 23.4409 29.8049 23.4068 29.856C23.344 29.9486 23.327 30.0348 23.3547 30.1168C23.3824 30.1987 23.4398 30.3031 23.5282 30.4319C23.6165 30.5607 23.673 30.6724 23.6974 30.7672C23.7219 30.8619 23.6974 30.963 23.6261 31.0706C23.5729 31.1504 23.5101 31.2121 23.4377 31.2568C23.3664 31.3015 23.2887 31.3292 23.2067 31.3388C23.1248 31.3484 23.0417 31.3431 22.9587 31.3207C22.8757 31.2984 22.7948 31.2611 22.7171 31.2089C22.6564 31.1685 22.5968 31.111 22.5382 31.0354C22.4797 30.9609 22.4456 30.8917 22.436 30.8279C22.4871 30.7906 22.5467 30.7331 22.6149 30.6554H22.6159Z" fill="#0C0E19"/>
<path d="M24.9354 31.4304L24.6565 31.9999C24.6406 32.0318 24.6299 32.0563 24.6246 32.0723C24.6193 32.0882 24.6182 32.1042 24.6246 32.118C24.6299 32.1329 24.6427 32.1446 24.6629 32.1553C24.681 32.1638 24.7066 32.1723 24.7406 32.1798L24.714 32.2341C24.68 32.2341 24.6512 32.2287 24.6267 32.2223C24.598 32.2138 24.5703 32.2042 24.5448 32.1915C24.4969 32.1659 24.4628 32.134 24.4436 32.0967C24.4245 32.0595 24.4245 32.0116 24.4436 31.9562L24.4106 31.9679C24.2574 32.0212 24.1105 32.0126 23.971 31.9445C23.8816 31.9009 23.8177 31.8349 23.7815 31.7476C23.7443 31.6603 23.7475 31.5719 23.7911 31.4847C23.8337 31.3984 23.8869 31.341 23.9519 31.3133C24.0168 31.2856 24.0838 31.2771 24.153 31.2877C24.2222 31.2984 24.3116 31.3207 24.4192 31.3537C24.5022 31.3782 24.5629 31.3942 24.6001 31.4006C24.6374 31.4069 24.6693 31.4048 24.6938 31.3931C24.7183 31.3814 24.7406 31.3559 24.7598 31.3165C24.8045 31.2249 24.8141 31.1419 24.7885 31.0663C24.763 30.9918 24.7044 30.9322 24.614 30.8875C24.5607 30.8609 24.5075 30.847 24.4564 30.846C24.4043 30.8449 24.3595 30.8502 24.3223 30.8641C24.285 30.8779 24.2563 30.8939 24.2382 30.913L24.2105 30.8992L24.2776 30.7629C24.4532 30.7374 24.6076 30.7566 24.7396 30.8215C24.8694 30.8854 24.9525 30.9684 24.9855 31.0695C25.0195 31.1717 25.0025 31.2909 24.9354 31.4282V31.4304ZM24.483 31.8572L24.6587 31.4985L24.5639 31.474C24.5054 31.457 24.45 31.4421 24.4 31.4304C24.3489 31.4176 24.2999 31.4112 24.251 31.4091C24.2031 31.4069 24.1562 31.4165 24.1137 31.4378C24.07 31.4591 24.0359 31.4964 24.0104 31.5485C23.9731 31.6252 23.9657 31.6933 23.988 31.7529C24.0115 31.8125 24.0604 31.8604 24.1381 31.8977C24.169 31.9126 24.2073 31.92 24.2552 31.919C24.3031 31.919 24.3446 31.9126 24.3808 31.8998C24.3925 31.8955 24.4053 31.8913 24.4192 31.8881C24.433 31.8838 24.4468 31.8785 24.4607 31.8721C24.4745 31.8657 24.482 31.8604 24.4841 31.8562L24.483 31.8572Z" fill="#0C0E19"/>
<path d="M25.1526 32.4842L25.5028 31.2238C25.5241 31.2313 25.5443 31.2387 25.5613 31.2451C25.5784 31.2515 25.5933 31.2568 25.606 31.26C25.6178 31.2632 25.6327 31.2664 25.6508 31.2696C25.6688 31.2728 25.6891 31.277 25.7136 31.2813L25.6508 31.508C25.6955 31.4644 25.7412 31.4303 25.787 31.4048C25.8338 31.3792 25.8839 31.3643 25.9382 31.3579C25.9924 31.3526 26.0489 31.3579 26.1074 31.3739C26.1958 31.3984 26.2692 31.4442 26.3267 31.5102C26.3852 31.5772 26.4161 31.6539 26.4193 31.7422C26.5715 31.5974 26.7333 31.5485 26.9058 31.5964C27.0612 31.64 27.1591 31.7124 27.1996 31.8157C27.24 31.9189 27.2358 32.0562 27.1889 32.2276L26.9771 32.9898C26.9601 32.9834 26.9462 32.9781 26.9345 32.9738C26.9228 32.9696 26.9143 32.9664 26.9058 32.9632C26.8973 32.96 26.8877 32.9568 26.8728 32.9525C26.8568 32.9483 26.8462 32.9451 26.8408 32.944C26.8355 32.943 26.8259 32.9408 26.811 32.9387C26.7961 32.9355 26.7802 32.9334 26.7642 32.9312L26.959 32.2298C26.9835 32.1403 26.9973 32.0626 27.0005 31.9956C27.0037 31.9285 26.9899 31.87 26.9569 31.8199C26.9249 31.7699 26.8675 31.7326 26.7866 31.7103C26.6673 31.6773 26.5758 31.6954 26.5119 31.7646C26.448 31.8348 26.3991 31.9306 26.365 32.053L26.167 32.7652C26.15 32.7588 26.1362 32.7535 26.1255 32.7492C26.1149 32.745 26.1053 32.7418 26.0978 32.7386C26.0904 32.7354 26.0797 32.7322 26.0638 32.7279C26.0478 32.7237 26.035 32.7205 26.0276 32.7194C26.0201 32.7183 26.0095 32.7162 25.9978 32.7141C25.9861 32.712 25.9722 32.7088 25.9563 32.7066L26.1702 31.9338C26.2053 31.8082 26.2085 31.7103 26.1798 31.6379C26.1521 31.5655 26.0893 31.5165 25.9924 31.4899C25.9052 31.4655 25.8349 31.4644 25.7796 31.4846C25.7242 31.5048 25.6816 31.54 25.6497 31.59C25.6188 31.639 25.5922 31.7007 25.572 31.7731L25.3591 32.5406C25.3421 32.5342 25.3282 32.5289 25.3176 32.5246C25.3059 32.5204 25.2973 32.5172 25.2899 32.514C25.2824 32.5108 25.2718 32.5076 25.2558 32.5033C25.2431 32.5001 25.2271 32.4959 25.2069 32.4927C25.1866 32.4884 25.1675 32.4852 25.1483 32.482L25.1526 32.4842Z" fill="#0C0E19"/>
<path d="M27.8191 32.8354L27.7499 33.7733C27.7318 33.7701 27.718 33.7679 27.7063 33.7658C27.6946 33.7637 27.685 33.7626 27.6775 33.7605C27.6701 33.7594 27.6584 33.7573 27.6424 33.7562C27.6254 33.7552 27.6126 33.7541 27.6052 33.7552C27.5977 33.7552 27.5871 33.7552 27.5754 33.7552C27.5636 33.7552 27.5487 33.7552 27.5328 33.7552L27.6797 31.7529C27.7031 31.7561 27.7233 31.7593 27.7425 31.7624C27.7616 31.7656 27.7765 31.7678 27.7893 31.7688C27.801 31.7688 27.8159 31.7699 27.834 31.7688C27.8521 31.7678 27.8734 31.7688 27.899 31.7688L27.8787 32.0445H27.8841C27.9352 31.9626 27.9926 31.8955 28.0565 31.8455C28.1204 31.7954 28.2236 31.7763 28.3673 31.7869C28.4525 31.7933 28.5281 31.8146 28.593 31.8529C28.659 31.8902 28.7133 31.9402 28.7569 32.003C28.8006 32.0658 28.8325 32.1361 28.8506 32.2117C28.8698 32.2872 28.8751 32.3681 28.8698 32.4522C28.8538 32.6736 28.7867 32.844 28.6686 32.9653C28.5504 33.0856 28.4035 33.1399 28.2268 33.1271C28.0405 33.1133 27.9064 33.0153 27.8266 32.8344H27.8213L27.8191 32.8354ZM27.8468 32.4586C27.8351 32.614 27.8596 32.7428 27.9192 32.845C27.9788 32.9472 28.0757 33.0036 28.2087 33.0132C28.2971 33.0196 28.3705 32.9983 28.4301 32.9504C28.4897 32.9014 28.5355 32.8344 28.5664 32.7482C28.5983 32.6619 28.6185 32.5619 28.6271 32.449C28.6345 32.3522 28.6292 32.2617 28.6111 32.1787C28.593 32.0956 28.5579 32.0264 28.5057 31.9711C28.4536 31.9157 28.3812 31.8859 28.2896 31.8795C28.1917 31.8721 28.1108 31.8976 28.0469 31.9551C27.9831 32.0126 27.9351 32.0882 27.9043 32.1797C27.8734 32.2713 27.8542 32.3649 27.8468 32.4597V32.4586Z" fill="#0C0E19"/>
<path d="M29.1572 32.4842C29.1486 32.3873 29.1593 32.2979 29.187 32.2149C29.2146 32.1319 29.2583 32.0584 29.3168 31.9935C29.3754 31.9296 29.4456 31.8785 29.5255 31.8402C29.6053 31.8019 29.6958 31.7795 29.7958 31.771C29.9204 31.7614 30.0322 31.7785 30.1322 31.8253C30.2323 31.8711 30.3132 31.9424 30.3739 32.0392C30.4345 32.1361 30.4718 32.2511 30.4824 32.3852C30.4899 32.4725 30.4824 32.5577 30.459 32.6417C30.4367 32.7258 30.3983 32.8025 30.3451 32.8717C30.2919 32.9409 30.2238 32.9973 30.1407 33.0399C30.0588 33.0824 29.963 33.1091 29.8555 33.1176C29.7373 33.1271 29.6266 33.1091 29.5244 33.0622C29.4212 33.0154 29.3371 32.943 29.2721 32.8429C29.2061 32.7429 29.1678 32.6237 29.1572 32.4842ZM29.799 31.8551C29.6905 31.8647 29.6053 31.9009 29.5436 31.9658C29.4808 32.0307 29.4392 32.1106 29.418 32.2064C29.3967 32.3022 29.3903 32.4022 29.3988 32.5076C29.4073 32.6066 29.4286 32.696 29.4648 32.778C29.501 32.86 29.5521 32.9249 29.6213 32.9728C29.6894 33.0207 29.7724 33.0409 29.8704 33.0335C29.9672 33.025 30.0439 32.9856 30.1024 32.9132C30.161 32.8408 30.1993 32.7578 30.2206 32.662C30.2408 32.5662 30.2483 32.4757 30.2419 32.3927C30.2365 32.3245 30.2238 32.2575 30.2057 32.1936C30.1865 32.1297 30.1599 32.0712 30.1237 32.018C30.0875 31.9647 30.0428 31.9232 29.9885 31.8934C29.9342 31.8636 29.8714 31.8508 29.799 31.8572V31.8551Z" fill="#0C0E19"/>
<path d="M31.9089 32.464L31.9376 32.6045C31.8769 32.6694 31.8109 32.7248 31.7385 32.7705C31.6662 32.8153 31.5906 32.8472 31.5139 32.8642C31.3915 32.8919 31.2766 32.8887 31.169 32.8578C31.0615 32.8259 30.971 32.7674 30.8955 32.679C30.821 32.5917 30.7677 32.481 30.7379 32.3458C30.7102 32.2202 30.7092 32.1031 30.7337 31.9935C30.7582 31.8838 30.8114 31.7902 30.8912 31.7125C30.971 31.6347 31.0754 31.5826 31.2042 31.5538C31.2766 31.5379 31.3479 31.5347 31.4192 31.5453C31.4905 31.5549 31.5565 31.5794 31.6172 31.6166C31.6779 31.6539 31.7311 31.7071 31.7769 31.7753C31.8226 31.8444 31.8578 31.9285 31.879 32.0297C31.8822 32.0414 31.8844 32.052 31.8854 32.0605C31.8865 32.0691 31.8886 32.0786 31.8897 32.0893C31.7077 32.1233 31.5267 32.1617 31.3468 32.201L30.97 32.2841C30.97 32.2969 30.9742 32.316 30.9796 32.3405C30.9945 32.4076 31.0189 32.4704 31.0519 32.5257C31.0849 32.5821 31.1275 32.629 31.1776 32.6662C31.2276 32.7035 31.2861 32.729 31.35 32.7418C31.4139 32.7546 31.482 32.7524 31.5533 32.7365C31.6885 32.7067 31.8067 32.6162 31.9078 32.464H31.9089ZM30.9487 32.184L31.6587 32.0275C31.6246 31.8913 31.5735 31.7848 31.5054 31.7093C31.4373 31.6337 31.3426 31.6092 31.2233 31.6358C31.1446 31.6539 31.0828 31.6901 31.0381 31.7465C30.9934 31.8019 30.9647 31.8689 30.9508 31.9466C30.937 32.0243 30.937 32.1042 30.9498 32.1851L30.9487 32.184Z" fill="#0C0E19"/>
<path d="M32.44 32.5959L32.0355 31.3526C32.0579 31.3473 32.0792 31.342 32.0973 31.3377C32.1154 31.3335 32.1313 31.3292 32.143 31.326C32.1537 31.3228 32.1675 31.3164 32.1845 31.31C32.2016 31.3026 32.2218 31.2941 32.2442 31.2845L32.3293 31.5453L32.3314 31.5091C32.3815 31.3132 32.4634 31.1962 32.5795 31.1589C32.6135 31.1482 32.6412 31.1429 32.6636 31.1451L32.6987 31.375C32.6902 31.375 32.67 31.375 32.638 31.3697C32.6061 31.3643 32.5805 31.3665 32.5614 31.3729C32.5305 31.3824 32.5018 31.3984 32.4752 31.4186C32.4485 31.4399 32.4283 31.4644 32.4166 31.4921C32.3911 31.5538 32.3794 31.6092 32.3836 31.6581C32.3879 31.7071 32.4028 31.772 32.4294 31.8529L32.6487 32.5257C32.6316 32.5299 32.6167 32.5331 32.605 32.5353C32.5933 32.5385 32.5837 32.5406 32.5752 32.5417C32.5678 32.5427 32.5561 32.547 32.5422 32.5512C32.5262 32.5566 32.5156 32.5598 32.5113 32.5619C32.5071 32.564 32.4975 32.5672 32.4837 32.5736C32.4698 32.5789 32.4549 32.5853 32.4411 32.5928L32.44 32.5959Z" fill="#0C0E19"/>
<path d="M33.3991 32.2713L32.8818 31.0705C32.9041 31.0631 32.9233 31.0567 32.9414 31.0503C32.9595 31.045 32.9744 31.0397 32.985 31.0343C32.9957 31.029 33.0095 31.0226 33.0255 31.0141C33.0414 31.0056 33.0606 30.995 33.083 30.9832L33.182 31.2121C33.2043 31.0099 33.3033 30.8704 33.48 30.7938C33.6248 30.731 33.7451 30.7267 33.8419 30.7778C33.9388 30.83 34.0229 30.9396 34.0953 31.1089L34.4082 31.8348C34.3912 31.8402 34.3774 31.8444 34.3657 31.8487C34.354 31.8529 34.3444 31.8561 34.338 31.8583C34.3305 31.8604 34.3199 31.8646 34.305 31.871C34.289 31.8774 34.2784 31.8827 34.2709 31.887C34.2635 31.8913 34.255 31.8955 34.2443 31.9019C34.2337 31.9072 34.2209 31.9147 34.2071 31.9221L33.9186 31.2536C33.8813 31.1674 33.843 31.0982 33.8015 31.0439C33.761 30.9896 33.7121 30.9534 33.6557 30.9364C33.5992 30.9183 33.5343 30.9258 33.4598 30.9577C33.3363 31.0109 33.2692 31.0897 33.2565 31.194C33.2448 31.2983 33.2756 31.4346 33.348 31.6028L33.5992 32.185C33.5822 32.1904 33.5684 32.1946 33.5567 32.1989C33.5449 32.2031 33.5354 32.2063 33.5279 32.2085C33.5205 32.2106 33.5088 32.2149 33.4949 32.2212C33.4789 32.2276 33.4694 32.2319 33.4651 32.2351C33.4609 32.2372 33.4523 32.2425 33.4385 32.25C33.4247 32.2574 33.4108 32.2649 33.397 32.2723L33.3991 32.2713Z" fill="#0C0E19"/>
<path d="M35.2768 30.3956L35.5824 30.9513C35.5994 30.9822 35.6132 31.0056 35.6239 31.0194C35.6345 31.0333 35.6473 31.0429 35.6611 31.0471C35.676 31.0514 35.6931 31.0471 35.7133 31.0365C35.7303 31.0269 35.7516 31.0109 35.7772 30.9875L35.8059 31.0407C35.7857 31.0684 35.7654 31.0897 35.7473 31.1046C35.7239 31.1238 35.7005 31.1397 35.675 31.1536C35.6271 31.178 35.5813 31.1876 35.5387 31.1823C35.4961 31.177 35.4578 31.1493 35.4237 31.1014L35.4152 31.1355C35.3705 31.2909 35.28 31.4069 35.1438 31.4814C35.0565 31.5293 34.966 31.5432 34.8734 31.524C34.7808 31.5038 34.7105 31.4505 34.6637 31.3654C34.6169 31.2813 34.6009 31.2047 34.6158 31.1355C34.6307 31.0663 34.6616 31.0067 34.7105 30.9566C34.7584 30.9055 34.8276 30.8459 34.9181 30.7767C34.9862 30.7235 35.0341 30.6831 35.0608 30.6554C35.0874 30.6288 35.1033 30.6011 35.1087 30.5745C35.114 30.5479 35.1055 30.5149 35.0842 30.4765C35.0352 30.3871 34.9724 30.3307 34.8968 30.3084C34.8212 30.286 34.7393 30.2998 34.6499 30.3488C34.5977 30.3776 34.5562 30.4127 34.5243 30.4542C34.4934 30.4957 34.4721 30.5362 34.4625 30.5745C34.4519 30.6128 34.4497 30.6458 34.454 30.6713L34.4274 30.6863L34.3539 30.5532C34.4338 30.3946 34.5381 30.2796 34.668 30.2083C34.7946 30.138 34.9096 30.1189 35.0129 30.1498C35.115 30.1806 35.2034 30.2626 35.2779 30.3967L35.2768 30.3956ZM35.3652 31.012L35.1725 30.6618L35.098 30.7256C35.0501 30.764 35.0065 30.8002 34.9671 30.8342C34.9277 30.8683 34.8936 30.9045 34.8638 30.9439C34.834 30.9832 34.8159 31.0258 34.8085 31.0737C34.801 31.1216 34.8117 31.1706 34.8404 31.2227C34.8819 31.2973 34.933 31.343 34.9948 31.3579C35.0565 31.3728 35.1246 31.3601 35.2002 31.3196C35.23 31.3037 35.2577 31.276 35.2854 31.2366C35.313 31.1972 35.3311 31.1599 35.3418 31.1238C35.345 31.112 35.3492 31.0993 35.3535 31.0854C35.3577 31.0716 35.362 31.0578 35.3641 31.0418C35.3663 31.0269 35.3663 31.0173 35.3641 31.013L35.3652 31.012Z" fill="#0C0E19"/>
<path d="M24.4064 10.8837C24.4064 10.8837 24.0774 8.40561 22.9108 7.83611C22.9108 7.83611 29.0177 3.70486 35.3333 7.83611C35.3333 7.83611 33.6663 9.37855 33.7365 10.673L24.4064 10.8837Z" fill="url(#paint23_linear_301_1518)" stroke="#A3822E" stroke-width="0.075" stroke-miterlimit="10"/>
<path d="M26.1021 9.29762L25.6816 7.1942L26.2863 7.07285C26.4406 7.04198 26.5715 7.03027 26.678 7.03666C26.7844 7.04411 26.8696 7.07391 26.9335 7.12607C26.9973 7.17823 27.0399 7.25701 27.0601 7.36132C27.074 7.43158 27.075 7.49864 27.0623 7.56251C27.0495 7.62638 27.0261 7.68599 26.991 7.74241C26.9558 7.79883 26.9122 7.84779 26.86 7.89144C26.8079 7.93402 26.7472 7.97234 26.6801 8.00534C26.7451 7.99576 26.8132 7.99363 26.8834 7.99895C26.9537 8.00427 27.0208 8.02024 27.0825 8.04579C27.1453 8.07133 27.2007 8.11178 27.2475 8.16607C27.2943 8.22036 27.3263 8.29062 27.3444 8.37684C27.388 8.59612 27.3305 8.78879 27.1708 8.95379C27.124 9.00063 27.0665 9.04108 26.9973 9.07408C26.9292 9.10814 26.86 9.13369 26.7919 9.15178C26.7227 9.16988 26.6407 9.18798 26.5428 9.2082L26.1032 9.29655L26.1021 9.29762ZM25.9754 7.25488L26.1383 8.07027L26.265 8.04472C26.3459 8.02875 26.4161 8.00959 26.4736 7.98937C26.5311 7.96914 26.5875 7.9404 26.6397 7.90208C26.7078 7.85099 26.7557 7.78925 26.7844 7.71686C26.8121 7.64448 26.8185 7.56571 26.8015 7.48161C26.7823 7.38794 26.7472 7.31768 26.695 7.26978C26.6429 7.22188 26.5758 7.1942 26.4949 7.18675C26.414 7.1793 26.3161 7.18675 26.2022 7.21017L25.9754 7.25594V7.25488ZM26.1617 8.18523L26.3501 9.12943L26.6429 9.07088C26.7451 9.05066 26.8302 9.01234 26.9005 8.95592C26.9707 8.8995 27.0208 8.83031 27.0495 8.74834C27.0782 8.66638 27.0836 8.58016 27.0655 8.48968C27.0314 8.31829 26.9516 8.20972 26.827 8.16181C26.7014 8.11498 26.5364 8.11072 26.332 8.15223L26.1596 8.1863L26.1617 8.18523Z" fill="#0C0E19"/>
<path d="M28.8708 7.94894L28.9102 8.67811C28.9124 8.71963 28.9155 8.74943 28.9187 8.76966C28.9219 8.78988 28.9305 8.80479 28.9432 8.8165C28.956 8.8282 28.9762 8.83353 29.0028 8.8314C29.0252 8.83033 29.0561 8.82395 29.0944 8.81224L29.0976 8.88143C29.0624 8.89952 29.0316 8.9123 29.0039 8.91869C28.9709 8.92614 28.9368 8.93146 28.9049 8.93359C28.8421 8.93465 28.791 8.92188 28.7495 8.89527C28.709 8.86866 28.6824 8.82075 28.6707 8.75369L28.6441 8.78456C28.5196 8.92294 28.3673 8.99746 28.1896 9.00704C28.0746 9.01342 27.9745 8.98255 27.8883 8.91549C27.8021 8.84843 27.7563 8.75795 27.7499 8.64511C27.7446 8.53441 27.7659 8.44712 27.8149 8.38325C27.8638 8.31938 27.9266 8.27255 28.0022 8.24487C28.0778 8.21719 28.1789 8.18845 28.3067 8.16184C28.4035 8.14055 28.4738 8.12245 28.5142 8.10755C28.5558 8.09265 28.5856 8.07242 28.6037 8.04688C28.6228 8.02133 28.6303 7.98301 28.6281 7.93298C28.6218 7.81482 28.5845 7.72647 28.5174 7.66579C28.4504 7.60512 28.3578 7.5785 28.2417 7.58489C28.1725 7.58808 28.1119 7.60405 28.0597 7.63173C28.0065 7.6594 27.965 7.69027 27.9352 7.7254C27.9054 7.76053 27.8862 7.79246 27.8787 7.82121L27.8436 7.82333L27.834 7.64876C27.9969 7.52422 28.163 7.45715 28.3311 7.44864C28.4972 7.44012 28.6271 7.47738 28.7176 7.56041C28.8091 7.64344 28.8591 7.7733 28.8687 7.95001L28.8708 7.94894ZM28.6548 8.63128L28.6303 8.17248L28.5206 8.20123C28.4514 8.21719 28.3886 8.23316 28.3311 8.24913C28.2737 8.26509 28.2194 8.28532 28.1693 8.31087C28.1193 8.33641 28.0789 8.37154 28.0469 8.41732C28.0161 8.46309 28.0012 8.51951 28.0054 8.58763C28.0107 8.68556 28.0416 8.75795 28.098 8.80479C28.1544 8.85162 28.2322 8.87291 28.3301 8.86759C28.3695 8.86546 28.4121 8.85056 28.46 8.82395C28.5079 8.79733 28.5462 8.76753 28.576 8.73453C28.5856 8.72389 28.5962 8.71218 28.6079 8.70047C28.6196 8.68876 28.6303 8.67598 28.6398 8.66108C28.6494 8.64724 28.6548 8.63766 28.6548 8.63234V8.63128Z" fill="#0C0E19"/>
<path d="M29.3679 8.93998L29.4871 7.44012C29.5138 7.44438 29.5372 7.44864 29.5585 7.45183C29.5798 7.45503 29.5978 7.45822 29.6117 7.45929C29.6245 7.45929 29.6426 7.46035 29.6628 7.45929C29.6841 7.45929 29.7086 7.45929 29.7373 7.45929L29.7139 7.74563C29.8459 7.5519 30.0215 7.46354 30.2429 7.48057C30.4239 7.49548 30.5495 7.55402 30.6198 7.65941C30.69 7.76373 30.7166 7.92127 30.6996 8.13204L30.6272 9.03898C30.607 9.03578 30.5899 9.03259 30.5761 9.03046C30.5623 9.02833 30.5516 9.0262 30.5431 9.02514C30.5346 9.02407 30.5208 9.02194 30.5027 9.02088C30.4835 9.01981 30.4686 9.01875 30.4601 9.01875C30.4516 9.01875 30.4388 9.01875 30.4249 9.01875C30.4111 9.01875 30.3951 9.01875 30.376 9.01875L30.443 8.1842C30.4516 8.07668 30.4494 7.98514 30.4377 7.90743C30.426 7.82972 30.3951 7.76798 30.3472 7.71902C30.2993 7.67005 30.2291 7.64238 30.1375 7.63492C29.9832 7.62215 29.8725 7.66579 29.8044 7.76586C29.7362 7.86592 29.6937 8.02027 29.6766 8.23103L29.6191 8.95914C29.5989 8.95595 29.5819 8.95275 29.568 8.95062C29.5542 8.94849 29.5436 8.94637 29.534 8.9453C29.5244 8.94424 29.5116 8.94211 29.4946 8.94104C29.4754 8.93998 29.4627 8.93891 29.4573 8.93891C29.452 8.93891 29.4403 8.93891 29.4222 8.93891C29.4041 8.93891 29.3871 8.93891 29.3679 8.93891V8.93998Z" fill="#0C0E19"/>
<path d="M31.7854 6.84933L31.4884 8.22889C31.4799 8.27041 31.4745 8.29596 31.4745 8.30766C31.4745 8.31937 31.4767 8.32789 31.482 8.33321C31.5395 8.34492 31.6417 8.30447 31.7886 8.20867L32.0206 8.05645L32.3176 7.84355C32.3431 7.851 32.3666 7.85845 32.3868 7.86484C32.407 7.87123 32.4251 7.87655 32.439 7.87868C32.4496 7.88081 32.4656 7.88294 32.4869 7.88613C32.5081 7.88826 32.5326 7.89145 32.5614 7.89571L32.556 7.91806C32.5177 7.94042 32.4847 7.95851 32.4549 7.97342C32.4262 7.98832 32.3602 8.02238 32.258 8.07667C32.1558 8.13096 32.0547 8.18738 31.9567 8.2438C31.8588 8.30021 31.7896 8.34066 31.7502 8.36515C31.7747 8.40986 31.8088 8.47053 31.8514 8.5493C31.8939 8.62807 31.9429 8.71962 31.9993 8.82394C32.0557 8.92826 32.1079 9.023 32.1547 9.10922C32.2016 9.19544 32.2473 9.27847 32.2921 9.36044L32.2889 9.37534C32.2633 9.36789 32.2431 9.3615 32.2271 9.35724C32.2122 9.35299 32.1994 9.34873 32.1877 9.34553C32.1771 9.34234 32.1611 9.33808 32.1398 9.33382C32.1164 9.3285 32.1004 9.32531 32.093 9.32424C32.0855 9.32318 32.0717 9.32105 32.0504 9.31786C32.0291 9.31466 32.0068 9.31147 31.9844 9.30934C31.9514 9.23802 31.8961 9.13051 31.8173 8.98574C31.7385 8.84097 31.648 8.67598 31.5448 8.48969C31.5224 8.45137 31.5022 8.43008 31.4841 8.42582C31.4586 8.4205 31.4373 8.45456 31.4202 8.53014L31.2851 9.15819C31.2648 9.1518 31.2489 9.14648 31.2361 9.14328C31.2233 9.13902 31.2116 9.13583 31.2031 9.13264C31.1946 9.12944 31.1807 9.12625 31.1648 9.12306C31.1456 9.1188 31.1339 9.11667 31.1275 9.11561C31.1222 9.11561 31.1105 9.11348 31.0934 9.11135C31.0764 9.10922 31.0583 9.10709 31.0402 9.10496L31.5384 6.79291C31.5639 6.80036 31.5874 6.80781 31.6076 6.8142C31.6278 6.82058 31.6459 6.82591 31.6598 6.82804C31.6725 6.83123 31.6896 6.83336 31.7108 6.83549C31.7321 6.83762 31.7566 6.84081 31.7854 6.84507V6.84933Z" fill="#0C0E19"/>
<path d="M29.122 30.616C34.9163 30.616 39.6136 25.9188 39.6136 20.1245C39.6136 14.3302 34.9163 9.63293 29.122 9.63293C23.3277 9.63293 18.6305 14.3302 18.6305 20.1245C18.6305 25.9188 23.3277 30.616 29.122 30.616Z" fill="url(#paint24_linear_301_1518)" stroke="#A3822E" stroke-width="0.075" stroke-miterlimit="10"/>
<path d="M29.2785 27.9047C33.7529 27.9047 37.3802 24.2774 37.3802 19.8029C37.3802 15.3285 33.7529 11.7012 29.2785 11.7012C24.804 11.7012 21.1767 15.3285 21.1767 19.8029C21.1767 24.2774 24.804 27.9047 29.2785 27.9047Z" fill="white"/>
<path d="M29.2785 28.1751C24.6618 28.1751 20.9074 24.4196 20.9074 19.804C20.9074 15.1884 24.6618 11.4319 29.2785 11.4319C33.8951 11.4319 37.6496 15.1874 37.6496 19.803C37.6496 24.4186 33.8941 28.174 29.2785 28.174V28.1751ZM29.2785 11.9705C24.9599 11.9705 21.446 15.4844 21.446 19.803C21.446 24.1216 24.9599 27.6354 29.2785 27.6354C33.5971 27.6354 37.1109 24.1216 37.1109 19.803C37.1109 15.4844 33.5971 11.9705 29.2785 11.9705Z" fill="#0C0E19"/>
<path d="M29.2775 12.6188C25.3123 12.6188 22.0954 15.8356 22.0954 19.804C22.0954 23.7724 25.3123 26.9893 29.2775 26.9893C33.2426 26.9893 36.4627 23.7724 36.4627 19.804C36.4627 15.8356 33.2458 12.6188 29.2775 12.6188ZM29.0316 24.1343H29.2157C29.1518 24.211 29.1103 24.2525 29.1103 24.2525C29.0816 24.2142 29.0582 24.1737 29.0316 24.1343Z" fill="#FF0000"/>
<path d="M34.5146 16.3828C30.9667 15.1405 29.1262 17.3557 29.1262 17.3557C26.2681 15.0064 23.5281 16.7277 23.5281 16.7277C24.3233 20.3948 27.1218 20.7844 27.1218 20.7844C26.2521 23.6266 29.1262 25.9621 29.1262 25.9621C31.5511 24.5857 31.4457 20.679 31.4457 20.679C34.2613 19.6444 34.5146 16.3817 34.5146 16.3817V16.3828ZM29.0432 18.9663C29.237 18.7023 29.8512 19.9605 29.733 20.0787C29.6148 20.2 28.5876 20.2511 28.4993 20.0116C28.4077 19.7742 29.0432 18.9663 29.0432 18.9663ZM27.4348 19.6614C25.5485 19.1685 25.0397 17.4686 25.0397 17.4686C27.19 17.1482 28.3396 18.2094 28.3396 18.2094C27.4348 18.7481 27.4348 19.6614 27.4348 19.6614ZM29.0485 24.1088C28.0437 22.7345 28.1544 21.0218 28.1544 21.0218C28.9921 21.2613 30.0587 21.0218 30.0587 21.0218C30.2929 22.8623 29.0485 24.1088 29.0485 24.1088ZM31.004 19.6614C30.789 18.9578 29.9342 18.1424 29.9342 18.1424C31.3563 16.9512 33.0787 17.3259 33.0787 17.3259C32.4645 18.9131 31.004 19.6614 31.004 19.6614Z" fill="white" stroke="#0C0E19" stroke-width="0.125" stroke-miterlimit="10"/>
<path d="M25.9988 29.1811L26.0127 29.1875C26.0191 29.2333 26.035 29.2769 26.0595 29.3174C26.0851 29.3578 26.1159 29.3855 26.1543 29.4025C26.1819 29.4153 26.2128 29.4206 26.2437 29.4185C26.2756 29.4164 26.3054 29.4068 26.332 29.3897C26.3586 29.3727 26.3789 29.3504 26.3916 29.3206C26.414 29.2695 26.414 29.2269 26.3916 29.1939C26.3682 29.1609 26.3267 29.1183 26.266 29.0672C26.2053 29.0161 26.1638 28.9693 26.1425 28.9256C26.1213 28.882 26.1255 28.8266 26.1543 28.7596C26.1894 28.6808 26.2437 28.6297 26.3161 28.6084C26.3884 28.5871 26.4661 28.5935 26.547 28.6297C26.5864 28.6467 26.6216 28.6691 26.6546 28.6946C26.6876 28.7202 26.7099 28.7425 26.7216 28.7606C26.6897 28.7894 26.6578 28.8234 26.6258 28.8639L26.6109 28.8575C26.6109 28.8362 26.6088 28.8128 26.6013 28.7873C26.5939 28.7617 26.5832 28.7404 26.5694 28.7213C26.5556 28.7021 26.5375 28.6883 26.5162 28.6787C26.4715 28.6595 26.4289 28.6553 26.3884 28.667C26.348 28.6787 26.3171 28.7074 26.298 28.7521C26.2767 28.8 26.2767 28.8415 26.299 28.8756C26.3214 28.9086 26.3618 28.9522 26.4204 29.0044C26.4789 29.0566 26.5194 29.1045 26.5428 29.1492C26.5662 29.1939 26.563 29.2471 26.5364 29.3088C26.5109 29.3663 26.4736 29.4089 26.4246 29.4366C26.3757 29.4643 26.3224 29.4781 26.2639 29.476C26.2064 29.4749 26.1511 29.4632 26.1 29.4398C26.0191 29.4036 25.9552 29.3546 25.9094 29.2907C25.9595 29.2354 25.9893 29.1992 26.001 29.1811H25.9988Z" fill="#0C0E19"/>
<path d="M27.4944 29.2737L27.3784 29.692C27.372 29.7155 27.3678 29.7336 27.3656 29.7453C27.3635 29.757 27.3656 29.7676 27.371 29.7761C27.3763 29.7847 27.3859 29.7921 27.4018 29.7964C27.4146 29.7996 27.4327 29.8017 27.4572 29.8027L27.4465 29.8421C27.4231 29.8453 27.404 29.8464 27.3869 29.8453C27.3667 29.8432 27.3475 29.84 27.3284 29.8347C27.2933 29.824 27.2656 29.8059 27.2485 29.7836C27.2304 29.7602 27.2241 29.7293 27.2304 29.6888L27.2102 29.7016C27.1134 29.7559 27.0144 29.7697 26.9111 29.741C26.8451 29.7229 26.794 29.6867 26.7589 29.6324C26.7227 29.5781 26.7142 29.5185 26.7323 29.4547C26.7504 29.3908 26.778 29.3461 26.8185 29.3195C26.8589 29.2929 26.9026 29.278 26.9505 29.2769C26.9984 29.2758 27.0612 29.279 27.1378 29.2875C27.1974 29.2939 27.239 29.2971 27.2656 29.2961C27.2922 29.295 27.3124 29.2897 27.3273 29.279C27.3433 29.2684 27.3539 29.2482 27.3624 29.2194C27.3816 29.1523 27.3773 29.0949 27.3507 29.048C27.3241 29.0012 27.2773 28.9682 27.2102 28.9501C27.1708 28.9395 27.1336 28.9363 27.0985 28.9416C27.0633 28.9469 27.0335 28.9565 27.0112 28.9714C26.9877 28.9852 26.9707 29.0001 26.9611 29.015L26.9409 29.0097L26.9686 28.9096C27.0835 28.8703 27.19 28.8639 27.2869 28.8905C27.3827 28.9171 27.4487 28.9629 27.4838 29.0267C27.5189 29.0906 27.5232 29.1736 27.4955 29.2748L27.4944 29.2737ZM27.2432 29.6175L27.3167 29.3535L27.2496 29.3493C27.207 29.345 27.1687 29.3429 27.1336 29.3408C27.0985 29.3386 27.0633 29.3408 27.0314 29.345C26.9984 29.3503 26.9686 29.3621 26.942 29.3823C26.9154 29.4025 26.8973 29.4312 26.8856 29.4706C26.8696 29.527 26.8738 29.5739 26.8962 29.6111C26.9186 29.6484 26.959 29.675 27.0154 29.6899C27.0378 29.6963 27.0644 29.6963 27.0974 29.6899C27.1304 29.6835 27.157 29.6739 27.1794 29.6612C27.1868 29.6569 27.1953 29.6527 27.2038 29.6484C27.2124 29.6441 27.2219 29.6388 27.2294 29.6324C27.2379 29.626 27.2422 29.6218 27.2432 29.6186V29.6175Z" fill="#0C0E19"/>
<path d="M27.7499 29.9305L27.9213 28.5339C27.9373 28.5371 27.9511 28.5403 27.9639 28.5424C27.9767 28.5456 27.9873 28.5477 27.9958 28.5477C28.0043 28.5477 28.0139 28.5488 28.0267 28.5498C28.0395 28.5498 28.0544 28.5498 28.0714 28.552L27.9884 29.229C28.0714 29.1172 28.1789 29.0693 28.3099 29.0853C28.4152 29.098 28.4887 29.1374 28.5281 29.2034C28.5675 29.2694 28.5802 29.3631 28.5653 29.4845L28.4993 30.022C28.4876 30.0188 28.478 30.0167 28.4695 30.0156C28.461 30.0135 28.4546 30.0124 28.4504 30.0114C28.4461 30.0103 28.4376 30.0092 28.4259 30.0071C28.4142 30.0061 28.4057 30.005 28.4003 30.005C28.395 30.005 28.3876 30.005 28.3801 30.005C28.3716 30.005 28.362 30.005 28.3514 30.005L28.412 29.51C28.4248 29.4025 28.4195 29.3216 28.395 29.2694C28.3705 29.2162 28.3205 29.1853 28.2439 29.1758C28.081 29.1555 27.9884 29.2449 27.9639 29.444L27.9022 29.9496C27.8905 29.9464 27.8809 29.9443 27.8724 29.9432C27.8638 29.9422 27.8575 29.9401 27.8521 29.939C27.8468 29.9379 27.8394 29.9369 27.8287 29.9347C27.817 29.9337 27.8095 29.9326 27.8064 29.9326C27.8032 29.9326 27.7957 29.9326 27.7861 29.9326C27.7755 29.9326 27.7648 29.9326 27.7542 29.9326L27.7499 29.9305Z" fill="#0C0E19"/>
<path d="M29.5159 29.4387L29.5222 29.873C29.5222 29.8975 29.5233 29.9156 29.5254 29.9273C29.5265 29.939 29.5318 29.9486 29.5393 29.956C29.5467 29.9635 29.5584 29.9667 29.5744 29.9667C29.5882 29.9667 29.6063 29.9635 29.6287 29.9582V29.9997C29.6085 30.0093 29.5893 30.0167 29.5733 30.0199C29.5531 30.0242 29.5329 30.0263 29.5137 30.0263C29.4765 30.0263 29.4467 30.0167 29.4222 29.9997C29.3988 29.9826 29.3839 29.9539 29.3785 29.9135L29.3626 29.9316C29.2849 30.0114 29.1933 30.0518 29.0869 30.0529C29.0187 30.054 28.9591 30.0337 28.9102 29.9912C28.8601 29.9496 28.8346 29.8943 28.8346 29.8272C28.8346 29.7612 28.8484 29.7101 28.8793 29.6729C28.9102 29.6356 28.9485 29.6101 28.9943 29.5941C29.04 29.5792 29.1007 29.5654 29.1774 29.5515C29.2359 29.5409 29.2774 29.5324 29.3019 29.5239C29.3264 29.5164 29.3455 29.5047 29.3573 29.4898C29.369 29.4749 29.3743 29.4525 29.3743 29.4227C29.3743 29.3525 29.353 29.2993 29.3147 29.2609C29.2764 29.2226 29.2221 29.2056 29.1518 29.2066C29.1114 29.2066 29.0752 29.2152 29.0422 29.2301C29.0092 29.245 28.9847 29.2631 28.9666 29.2833C28.9474 29.3035 28.9357 29.3216 28.9304 29.3386H28.9091L28.908 29.2343C29.0081 29.1641 29.1082 29.1279 29.2082 29.1268C29.3072 29.1257 29.3839 29.1502 29.436 29.2024C29.4882 29.2545 29.5148 29.3322 29.5169 29.4376L29.5159 29.4387ZM29.3711 29.84L29.3668 29.5664L29.3008 29.5813C29.2593 29.5899 29.221 29.5973 29.1869 29.6058C29.1518 29.6133 29.1199 29.625 29.089 29.6388C29.0592 29.6527 29.0337 29.6729 29.0134 29.6995C28.9943 29.7261 28.9847 29.7591 28.9847 29.7996C28.9847 29.8581 29.0028 29.9017 29.0347 29.9305C29.0677 29.9592 29.1124 29.9741 29.171 29.9731C29.1944 29.9731 29.2199 29.9646 29.2497 29.9496C29.2785 29.9347 29.3019 29.9177 29.32 29.8996C29.3264 29.8932 29.3328 29.8868 29.3402 29.8805C29.3477 29.8741 29.3541 29.8666 29.3604 29.8581C29.3668 29.8496 29.37 29.8443 29.37 29.8411L29.3711 29.84Z" fill="#0C0E19"/>
<path d="M29.9034 30.0007L29.7086 28.6127C29.7245 28.6127 29.7384 28.6105 29.7511 28.6105C29.7639 28.6105 29.7746 28.6095 29.7831 28.6073C29.7905 28.6063 29.8012 28.6041 29.8129 28.601C29.8256 28.5978 29.8395 28.5946 29.8565 28.5914L29.9534 29.278C29.9853 29.212 30.0258 29.1587 30.0726 29.1172C30.1205 29.0757 30.1791 29.0512 30.2472 29.0416C30.3302 29.0299 30.4026 29.0416 30.4654 29.0746C30.5271 29.1076 30.5772 29.1555 30.6134 29.2183C30.6496 29.2812 30.673 29.3472 30.6826 29.4195C30.6911 29.4823 30.6911 29.5441 30.6804 29.6048C30.6698 29.6644 30.6496 29.7197 30.6198 29.7698C30.5899 29.8198 30.5506 29.8624 30.5027 29.8964C30.4537 29.9305 30.3973 29.9518 30.3313 29.9614C30.2152 29.9773 30.1205 29.9465 30.0492 29.8666C30.0364 29.8794 30.0204 29.8964 30.0024 29.9188C29.9843 29.9411 29.963 29.9667 29.9385 29.9954L29.9034 29.9997V30.0007ZM30.2121 29.1268C30.1141 29.1406 30.0492 29.1917 30.0173 29.2812C29.9853 29.3706 29.9779 29.477 29.996 29.6016C30.0055 29.6665 30.0236 29.724 30.0524 29.7729C30.0801 29.8219 30.1163 29.8581 30.1599 29.8815C30.2035 29.9049 30.2514 29.9124 30.3047 29.9049C30.3547 29.8975 30.3951 29.8794 30.4271 29.8485C30.459 29.8177 30.4835 29.7793 30.4995 29.7336C30.5154 29.6878 30.525 29.642 30.5282 29.5941C30.5314 29.5473 30.5282 29.4983 30.5218 29.4504C30.5122 29.3802 30.4941 29.3195 30.4686 29.2684C30.443 29.2173 30.409 29.179 30.3664 29.1534C30.3238 29.1279 30.2727 29.1183 30.2142 29.1268H30.2121Z" fill="#0C0E19"/>
<path d="M31.5033 29.0896L31.6118 29.51C31.6182 29.5334 31.6235 29.5515 31.6278 29.5622C31.6321 29.5728 31.6384 29.5813 31.648 29.5867C31.6565 29.592 31.6693 29.592 31.6842 29.5888C31.697 29.5856 31.714 29.5782 31.7353 29.5664L31.746 29.6058C31.7279 29.6207 31.7108 29.6314 31.6959 29.6388C31.6778 29.6473 31.6587 29.6548 31.6395 29.6591C31.6033 29.6676 31.5714 29.6665 31.5448 29.6548C31.5171 29.6442 31.4969 29.6197 31.482 29.5813L31.4703 29.6026C31.4138 29.6984 31.334 29.7602 31.2318 29.7868C31.1658 29.8038 31.1041 29.7985 31.0455 29.7687C30.987 29.74 30.9497 29.6931 30.9327 29.6282C30.9167 29.5643 30.9189 29.5111 30.9401 29.4674C30.9614 29.4238 30.9923 29.3897 31.0328 29.3642C31.0732 29.3386 31.1296 29.311 31.2009 29.279C31.2552 29.2546 31.2935 29.2365 31.3159 29.2226C31.3383 29.2098 31.3532 29.1939 31.3617 29.1768C31.3691 29.1598 31.3691 29.1364 31.3617 29.1077C31.3436 29.0395 31.3116 28.9916 31.2659 28.965C31.219 28.9373 31.1626 28.9331 31.0956 28.9501C31.0562 28.9608 31.0221 28.9767 30.9944 28.9991C30.9668 29.0214 30.9465 29.0448 30.9327 29.0683C30.9199 29.0928 30.9125 29.113 30.9114 29.1311L30.8912 29.1364L30.8646 29.0353C30.9444 28.9437 31.0338 28.8852 31.1307 28.8596C31.2265 28.8341 31.3063 28.8415 31.3702 28.8788C31.433 28.9171 31.4777 28.9863 31.5043 29.0874L31.5033 29.0896ZM31.4585 29.5132L31.3894 29.2482L31.3287 29.278C31.2904 29.295 31.2552 29.312 31.2233 29.328C31.1914 29.344 31.1626 29.3621 31.136 29.3834C31.1094 29.4036 31.0902 29.4291 31.0775 29.46C31.0647 29.4909 31.0626 29.5249 31.0732 29.5643C31.0881 29.6207 31.1147 29.6591 31.153 29.6803C31.1914 29.7006 31.2393 29.7038 31.2957 29.6889C31.318 29.6825 31.3414 29.6697 31.3659 29.6473C31.3904 29.6261 31.4096 29.6037 31.4224 29.5813C31.4266 29.5739 31.4319 29.5664 31.4373 29.5579C31.4426 29.5494 31.4479 29.5409 31.4522 29.5313C31.4564 29.5217 31.4575 29.5153 31.4575 29.5122L31.4585 29.5132Z" fill="#0C0E19"/>
<path d="M31.6395 28.5307L31.763 28.4274L31.8418 28.6574L32.0291 28.5935C32.0323 28.6116 32.0355 28.6244 32.0376 28.6307C32.0408 28.6403 32.0461 28.651 32.0525 28.6616L31.8652 28.7255L32.0174 29.1704L32.0398 29.2343C32.0632 29.3024 32.0898 29.3535 32.1217 29.3876C32.1526 29.4227 32.1952 29.4302 32.2484 29.4121C32.2601 29.4078 32.2846 29.395 32.324 29.3727L32.3389 29.4153C32.2878 29.4568 32.2409 29.4845 32.2005 29.4983C32.1675 29.51 32.1377 29.5153 32.11 29.5153C32.0823 29.5153 32.0557 29.5079 32.0312 29.4919C32.0068 29.4759 31.9833 29.4525 31.961 29.4185C31.9397 29.3844 31.9195 29.3418 31.9014 29.2886L31.7247 28.7723L31.615 28.8096C31.615 28.8011 31.6129 28.7883 31.6076 28.7744C31.6023 28.7585 31.5969 28.7478 31.5916 28.7425L31.7013 28.7053L31.6416 28.5296L31.6395 28.5307Z" fill="#0C0E19"/>
<path d="M37.111 28.4274C37.2121 28.453 38.0222 28.3146 39.1835 27.71C39.5508 27.5194 39.9521 27.2821 40.3779 26.9893" stroke="#A3822E" stroke-width="0.025" stroke-miterlimit="10"/>
<path d="M39.1303 25.7971C39.1303 25.7971 40.6866 24.8093 41.3604 23.5819" stroke="#A3822E" stroke-width="0.025" stroke-miterlimit="10"/>
<path d="M39.6732 23.0135C39.6732 23.0135 41.272 22.0246 42.0416 20.1245" stroke="#A3822E" stroke-width="0.025" stroke-miterlimit="10"/>
<path d="M39.9244 19.803C39.9244 19.803 41.0463 18.8226 41.3604 16.7863" stroke="#A3822E" stroke-width="0.025" stroke-miterlimit="10"/>
<path d="M38.7311 14.5902L39.4294 12.0717" stroke="#A3822E" stroke-width="0.025" stroke-miterlimit="10"/>
<defs>
<linearGradient id="paint0_linear_301_1518" x1="18.4187" y1="15.0437" x2="16.5633" y2="17.2589" gradientUnits="userSpaceOnUse">
<stop stop-color="#F7E349"/>
<stop offset="1" stop-color="#A3822E"/>
</linearGradient>
<linearGradient id="paint1_linear_301_1518" x1="39.8648" y1="15.0437" x2="41.7202" y2="17.2589" gradientUnits="userSpaceOnUse">
<stop stop-color="#F7E349"/>
<stop offset="1" stop-color="#A3822E"/>
</linearGradient>
<linearGradient id="paint2_linear_301_1518" x1="20.8478" y1="11.8609" x2="18.6326" y2="12.0099" gradientUnits="userSpaceOnUse">
<stop stop-color="#F7E349"/>
<stop offset="1" stop-color="#A3822E"/>
</linearGradient>
<linearGradient id="paint3_linear_301_1518" x1="23.5729" y1="9.94483" x2="22.0464" y2="13.1777" gradientUnits="userSpaceOnUse">
<stop stop-color="#F7E349"/>
<stop offset="1" stop-color="#A3822E"/>
</linearGradient>
<linearGradient id="paint4_linear_301_1518" x1="25.1696" y1="11.037" x2="20.3209" y2="11.037" gradientUnits="userSpaceOnUse">
<stop stop-color="#F7E349"/>
<stop offset="1" stop-color="#A3822E"/>
</linearGradient>
<linearGradient id="paint5_linear_301_1518" x1="18.3548" y1="28.8969" x2="22.4254" y2="29.5249" gradientUnits="userSpaceOnUse">
<stop stop-color="#F7E349"/>
<stop offset="1" stop-color="#A3822E"/>
</linearGradient>
<linearGradient id="paint6_linear_301_1518" x1="20.0772" y1="26.6189" x2="19.299" y2="30.0912" gradientUnits="userSpaceOnUse">
<stop stop-color="#F7E349"/>
<stop offset="1" stop-color="#A3822E"/>
</linearGradient>
<linearGradient id="paint7_linear_301_1518" x1="18.5443" y1="24.2376" x2="17.2573" y2="26.4528" gradientUnits="userSpaceOnUse">
<stop stop-color="#F7E349"/>
<stop offset="1" stop-color="#A3822E"/>
</linearGradient>
<linearGradient id="paint8_linear_301_1518" x1="19.8802" y1="25.2776" x2="23.4121" y2="28.9299" gradientUnits="userSpaceOnUse">
<stop stop-color="#F7E349"/>
<stop offset="1" stop-color="#A3822E"/>
</linearGradient>
<linearGradient id="paint9_linear_301_1518" x1="18.2068" y1="21.0878" x2="16.3515" y2="25.2787" gradientUnits="userSpaceOnUse">
<stop stop-color="#F7E349"/>
<stop offset="1" stop-color="#A3822E"/>
</linearGradient>
<linearGradient id="paint10_linear_301_1518" x1="18.3931" y1="17.8241" x2="15.6095" y2="21.2358" gradientUnits="userSpaceOnUse">
<stop stop-color="#F7E349"/>
<stop offset="1" stop-color="#A3822E"/>
</linearGradient>
<linearGradient id="paint11_linear_301_1518" x1="19.9909" y1="13.4236" x2="17.4468" y2="13.7823" gradientUnits="userSpaceOnUse">
<stop stop-color="#F7E349"/>
<stop offset="1" stop-color="#A3822E"/>
</linearGradient>
<linearGradient id="paint12_linear_301_1518" x1="37.4356" y1="11.8609" x2="39.6508" y2="12.0099" gradientUnits="userSpaceOnUse">
<stop stop-color="#F7E349"/>
<stop offset="1" stop-color="#A3822E"/>
</linearGradient>
<linearGradient id="paint13_linear_301_1518" x1="34.7105" y1="9.94483" x2="36.237" y2="13.1777" gradientUnits="userSpaceOnUse">
<stop stop-color="#F7E349"/>
<stop offset="1" stop-color="#A3822E"/>
</linearGradient>
<linearGradient id="paint14_linear_301_1518" x1="33.1138" y1="11.037" x2="37.9625" y2="11.037" gradientUnits="userSpaceOnUse">
<stop stop-color="#F7E349"/>
<stop offset="1" stop-color="#A3822E"/>
</linearGradient>
<linearGradient id="paint15_linear_301_1518" x1="39.9287" y1="28.8969" x2="35.8581" y2="29.5249" gradientUnits="userSpaceOnUse">
<stop stop-color="#F7E349"/>
<stop offset="1" stop-color="#A3822E"/>
</linearGradient>
<linearGradient id="paint16_linear_301_1518" x1="38.2063" y1="26.6189" x2="38.9844" y2="30.0912" gradientUnits="userSpaceOnUse">
<stop stop-color="#F7E349"/>
<stop offset="1" stop-color="#A3822E"/>
</linearGradient>
<linearGradient id="paint17_linear_301_1518" x1="39.7392" y1="24.2376" x2="41.0261" y2="26.4528" gradientUnits="userSpaceOnUse">
<stop stop-color="#F7E349"/>
<stop offset="1" stop-color="#A3822E"/>
</linearGradient>
<linearGradient id="paint18_linear_301_1518" x1="38.4032" y1="25.2776" x2="34.8713" y2="28.9299" gradientUnits="userSpaceOnUse">
<stop stop-color="#F7E349"/>
<stop offset="1" stop-color="#A3822E"/>
</linearGradient>
<linearGradient id="paint19_linear_301_1518" x1="40.0766" y1="21.0878" x2="41.932" y2="25.2787" gradientUnits="userSpaceOnUse">
<stop stop-color="#F7E349"/>
<stop offset="1" stop-color="#A3822E"/>
</linearGradient>
<linearGradient id="paint20_linear_301_1518" x1="39.8903" y1="17.8241" x2="42.6739" y2="21.2358" gradientUnits="userSpaceOnUse">
<stop stop-color="#F7E349"/>
<stop offset="1" stop-color="#A3822E"/>
</linearGradient>
<linearGradient id="paint21_linear_301_1518" x1="38.2926" y1="13.4236" x2="40.8367" y2="13.7823" gradientUnits="userSpaceOnUse">
<stop stop-color="#F7E349"/>
<stop offset="1" stop-color="#A3822E"/>
</linearGradient>
<linearGradient id="paint22_linear_301_1518" x1="29.1221" y1="27.6365" x2="29.1221" y2="33.9989" gradientUnits="userSpaceOnUse">
<stop stop-color="#F7E349"/>
<stop offset="1" stop-color="#A3822E"/>
</linearGradient>
<linearGradient id="paint23_linear_301_1518" x1="29.122" y1="10.8837" x2="29.122" y2="6.00095" gradientUnits="userSpaceOnUse">
<stop stop-color="#F7E349"/>
<stop offset="1" stop-color="#A3822E"/>
</linearGradient>
<linearGradient id="paint24_linear_301_1518" x1="29.122" y1="9.63293" x2="29.122" y2="30.616" gradientUnits="userSpaceOnUse">
<stop stop-color="#F7E349"/>
<stop offset="1" stop-color="#A3822E"/>
</linearGradient>
</defs>
</svg>
