<svg width="28" height="20" viewBox="0 0 28 20" fill="none" xmlns="http://www.w3.org/2000/svg">
<rect width="28" height="20" rx="4" fill="white"/>
<path fill-rule="evenodd" clip-rule="evenodd" d="M12.3564 8.72424C12.7681 8.8838 13.1782 9.05537 13.5779 9.24924C12.298 9.76395 11.0542 10.3799 9.87721 11.0885C9.47745 10.8826 9.06569 10.6767 8.65564 10.4948C9.84289 9.81027 11.0765 9.21664 12.3564 8.72424Z" fill="#0067B1"/>
<path fill-rule="evenodd" clip-rule="evenodd" d="M10.826 8.18726C9.50147 8.60931 8.22157 9.15833 7 9.82059C7.38774 9.96985 7.77721 10.1174 8.15294 10.277C9.3299 9.58039 10.5738 8.99877 11.864 8.54069C11.5208 8.41544 11.1794 8.2902 10.8243 8.18726H10.826Z" fill="#0067B1"/>
<path fill-rule="evenodd" clip-rule="evenodd" d="M15.1306 8.66767C14.0806 8.16498 12.9946 7.74292 11.888 7.39978C11.4882 7.51473 11.1005 7.63998 10.723 7.76522C11.8657 8.10836 12.9843 8.54243 14.0583 9.05542C14.4118 8.91816 14.7669 8.79292 15.1323 8.66767H15.1306Z" fill="#EE2A24"/>
<path fill-rule="evenodd" clip-rule="evenodd" d="M16.8326 8.16495C15.7706 7.69657 14.6622 7.30882 13.5316 7C13.1662 7.06863 12.8127 7.14926 12.4576 7.24019C13.5762 7.57132 14.6725 7.98309 15.7243 8.48578C16.0897 8.37083 16.4671 8.2576 16.8326 8.16666V8.16495Z" fill="#EE2A24"/>
<path fill-rule="evenodd" clip-rule="evenodd" d="M19.5743 9.07776C16.8909 9.98021 14.3774 11.2704 12.1059 12.8814C12.6772 13.2349 13.2245 13.6003 13.7615 14.0001C15.9078 12.2981 18.2961 10.8827 20.8542 9.80864C20.4321 9.54614 20.0083 9.30594 19.5743 9.07776Z" fill="#EE2A24"/>
<path fill-rule="evenodd" clip-rule="evenodd" d="M17.723 8.20959C14.9368 8.94048 12.3221 10.1277 9.95784 11.7044C10.4828 11.9669 11.0078 12.2415 11.5225 12.5383C13.8404 10.9392 16.4105 9.68337 19.1505 8.86156C18.6821 8.63337 18.2137 8.40518 17.723 8.21131V8.20959Z" fill="#EE2A24"/>
</svg>
