<svg width="28" height="20" viewBox="0 0 28 20" fill="none" xmlns="http://www.w3.org/2000/svg">
<path fill-rule="evenodd" clip-rule="evenodd" d="M20.0003 9.99979C20.0003 6.68605 17.3135 4 14.0005 4C10.6863 4 8 6.68605 8 9.99979C8 13.3131 10.6863 16 14.0005 16C17.3135 16 20.0003 13.3131 20.0003 9.99979ZM12.504 14.9026C12.98 14.9026 13.3351 14.8559 13.3607 14.2086H14.5322C14.5578 14.8559 14.9175 14.877 15.3816 14.877V15.2053H12.504V14.9026ZM15.5433 9.47674C16.1706 9.67535 17.6428 10.3467 17.6428 11.7356C17.6428 13.1054 16.3516 13.9213 14.819 13.9213H10.3575L10.362 13.5659C11.1714 13.5659 11.4111 13.4592 11.4111 12.6328V7.40544C11.4111 6.48544 11.048 6.42786 10.3605 6.42786V6.09717C10.4893 6.09419 12.11 6.09632 13.3607 6.09717C13.3351 5.44915 12.98 5.4021 12.504 5.4021V5.09998H15.3816V5.42811C14.9175 5.42811 14.5578 5.44915 14.5322 6.09717H14.819C15.4661 6.09717 17.0553 6.31996 17.0583 7.62836C17.0606 8.54651 16.4404 9.13055 15.5433 9.47674ZM16.4087 11.9554C16.4087 10.8687 15.6626 10.1454 14.755 9.70706C14.163 9.83572 13.4681 9.91107 12.8181 9.91662L12.9814 9.51128C13.129 9.50645 13.2407 9.49735 13.3607 9.49024V6.7722H14.5322V9.31452C15.5139 9.02477 15.9249 8.44215 15.9249 7.7657C15.9249 6.89874 15.2675 6.48473 14.5292 6.48473L12.5849 6.48544V12.6568C12.5849 13.3101 12.9777 13.447 13.3607 13.4538V10.2439C13.7999 10.2285 14.2718 10.1661 14.5322 10.1056V13.4538C15.4684 13.453 16.4087 12.8826 16.4087 11.9554Z" fill="#004F91"/>
</svg>
