<svg width="46" height="32" viewBox="0 0 46 32" fill="none" xmlns="http://www.w3.org/2000/svg">
<path d="M15.6851 11.2394C15.6851 11.2394 15.3254 10.4107 15.133 10.3369C14.9407 10.2632 14.5271 12.8787 14.7339 13.4414C14.7339 13.4414 15.806 14.2846 15.9823 15.0176L16.6226 14.204L17.0499 12.6765L15.6843 11.2394H15.6851Z" fill="url(#paint0_linear_301_1387)" stroke="#A3822E" stroke-width="0.075" stroke-miterlimit="10"/>
<path d="M15.9071 14.0497C15.9071 14.0497 15.3117 12.8073 15.2691 11.1824" stroke="#A3822E" stroke-width="0.025" stroke-miterlimit="10"/>
<path d="M31.0889 11.2394C31.0889 11.2394 31.4485 10.4107 31.6409 10.3369C31.8333 10.2632 32.2469 12.8787 32.0401 13.4414C32.0401 13.4414 30.968 14.2846 30.7916 15.0176L30.1514 14.204L29.7241 12.6765L31.0896 11.2394H31.0889Z" fill="url(#paint1_linear_301_1387)" stroke="#A3822E" stroke-width="0.075" stroke-miterlimit="10"/>
<path d="M30.8668 14.0497C30.8668 14.0497 31.4622 12.8073 31.5047 11.1824" stroke="#A3822E" stroke-width="0.025" stroke-miterlimit="10"/>
<path d="M17.811 9.22223C17.811 9.22223 17.3502 8.30298 17.1221 8.30298C16.894 8.30298 16.3526 9.88525 16.602 10.6623C16.8514 11.4394 17.2019 11.5284 17.1153 12.0074C17.0293 12.4864 18.5044 11.1756 18.5189 11.0683C18.5333 10.9611 18.4337 9.81378 18.4337 9.81378L17.811 9.22223Z" fill="url(#paint2_linear_301_1387)" stroke="#A3822E" stroke-width="0.075" stroke-miterlimit="10"/>
<path d="M18.9644 7.31226C18.9644 7.31226 17.373 7.69243 17.9281 10.9695C18.4831 14.2466 19.6518 10.5049 19.6518 10.5049C19.6518 10.5049 21.3694 9.13632 20.7565 8.80861C20.1437 8.4809 18.9644 7.31226 18.9644 7.31226Z" fill="url(#paint3_linear_301_1387)" stroke="#A3822E" stroke-width="0.075" stroke-miterlimit="10"/>
<path d="M17.9281 10.9695C17.9281 10.9695 18.4611 8.36689 19.7301 8.23535C20.9991 8.10381 21.2128 9.60245 21.2128 9.60245L18.5204 10.6266L17.9288 10.9695H17.9281Z" fill="url(#paint4_linear_301_1387)" stroke="#A3822E" stroke-width="0.075" stroke-miterlimit="10"/>
<path d="M16.7906 22.5594L15.9071 22.8499C15.9071 22.8499 16.6051 23.5623 17.2042 23.4125C17.8034 23.2627 18.5515 22.4545 18.5515 22.4545C18.5515 22.4545 18.6215 21.9413 18.5409 21.9154C18.4603 21.8896 16.8301 22.2789 16.8301 22.2789L16.7914 22.5594H16.7906Z" fill="url(#paint5_linear_301_1387)" stroke="#A3822E" stroke-width="0.075" stroke-miterlimit="10"/>
<path d="M15.7922 20.5651L14.6593 20.5871C14.6593 20.5871 15.5459 22.0934 16.6157 22.4614C16.6157 22.4614 17.0765 22.8522 17.9417 22.5176C18.807 22.1831 18.9994 21.609 18.9994 21.609L17.4391 20.1408C17.4391 20.1408 16.4804 20.2488 16.4096 20.2587C16.3389 20.2685 15.793 20.5651 15.793 20.5651H15.7922Z" fill="url(#paint6_linear_301_1387)" stroke="#A3822E" stroke-width="0.075" stroke-miterlimit="10"/>
<path d="M16.8643 20.7384C16.8643 20.7384 15.4182 20.8578 14.7453 19.6816C14.0716 18.5053 14.1788 18.0461 14.1788 18.0461C14.1788 18.0461 14.1256 17.8218 14.9726 18.4171L16.948 18.5593C16.948 18.5593 17.0476 19.1295 17.0514 19.3736C17.0552 19.6177 17.205 20.3765 17.205 20.4518C17.205 20.5271 16.8659 20.7392 16.8659 20.7392L16.8643 20.7384Z" fill="url(#paint7_linear_301_1387)" stroke="#A3822E" stroke-width="0.075" stroke-miterlimit="10"/>
<path d="M18.255 22.1374C18.255 22.1374 17.3205 21.6805 16.786 20.5901C16.2515 19.4998 16.4081 19.169 16.4081 19.169L17.0788 19.0367C17.0788 19.0367 17.4703 19.4565 17.6308 19.8526C17.7912 20.248 18.4656 21.114 18.6261 21.2531C18.7857 21.3923 18.7964 21.8394 18.7964 21.8394L18.255 22.1374Z" fill="url(#paint8_linear_301_1387)" stroke="#A3822E" stroke-width="0.075" stroke-miterlimit="10"/>
<path d="M14.8281 15.9924C14.8281 15.9924 14.2427 15.6084 14.0077 15.6084C14.0077 15.6084 13.9089 16.6136 14.4183 17.5861C14.927 18.5585 15.4927 19.0664 16.5784 19.1927C16.5784 19.1927 17.4399 17.6294 16.9054 17.1374C16.3709 16.6455 14.8289 15.9931 14.8289 15.9931L14.8281 15.9924Z" fill="url(#paint9_linear_301_1387)" stroke="#A3822E" stroke-width="0.075" stroke-miterlimit="10"/>
<path d="M15.9831 15.0176C15.9831 15.0176 16.0029 14.2322 14.4921 13.192C14.4921 13.192 13.6656 15.5012 15.5543 16.6272L15.9504 16.8972L16.4097 15.8601L15.9839 15.0184L15.9831 15.0176Z" fill="url(#paint10_linear_301_1387)" stroke="#A3822E" stroke-width="0.075" stroke-miterlimit="10"/>
<path d="M17.186 11.9732C17.186 11.9732 17.1723 10.5263 15.9071 9.97729C15.9071 9.97729 15.0616 11.6523 16.6727 12.7852C16.6727 12.7852 17.2437 12.399 17.186 11.9732Z" fill="url(#paint11_linear_301_1387)" stroke="#A3822E" stroke-width="0.075" stroke-miterlimit="10"/>
<path d="M17.6946 22.0196C17.6224 22.0378 17.0438 21.939 16.2143 21.5071C15.9519 21.371 15.6653 21.2015 15.3611 20.9924" stroke="#A3822E" stroke-width="0.025" stroke-miterlimit="10"/>
<path d="M16.2523 20.1408C16.2523 20.1408 15.1406 19.4352 14.6593 18.5585" stroke="#A3822E" stroke-width="0.025" stroke-miterlimit="10"/>
<path d="M15.8637 18.1525C15.8637 18.1525 14.7217 17.4461 14.172 16.0889" stroke="#A3822E" stroke-width="0.025" stroke-miterlimit="10"/>
<path d="M15.685 15.8593C15.685 15.8593 14.8836 15.159 14.6593 13.7045" stroke="#A3822E" stroke-width="0.025" stroke-miterlimit="10"/>
<path d="M16.5374 12.1359L16.0386 10.3369" stroke="#A3822E" stroke-width="0.025" stroke-miterlimit="10"/>
<path d="M28.9629 9.22223C28.9629 9.22223 29.4237 8.30298 29.6518 8.30298C29.8799 8.30298 30.4213 9.88525 30.1719 10.6623C29.9225 11.4394 29.5719 11.5284 29.6586 12.0074C29.7445 12.4864 28.2695 11.1756 28.255 11.0683C28.2406 10.9611 28.3402 9.81378 28.3402 9.81378L28.9629 9.22223Z" fill="url(#paint12_linear_301_1387)" stroke="#A3822E" stroke-width="0.075" stroke-miterlimit="10"/>
<path d="M27.8095 7.31226C27.8095 7.31226 29.4009 7.69243 28.8458 10.9695C28.2908 14.2466 27.1221 10.5049 27.1221 10.5049C27.1221 10.5049 25.4045 9.13632 26.0173 8.80861C26.6302 8.4809 27.8095 7.31226 27.8095 7.31226Z" fill="url(#paint13_linear_301_1387)" stroke="#A3822E" stroke-width="0.075" stroke-miterlimit="10"/>
<path d="M28.8458 10.9695C28.8458 10.9695 28.3128 8.36689 27.0438 8.23535C25.7748 8.10381 25.5612 9.60245 25.5612 9.60245L28.2535 10.6266L28.8451 10.9695H28.8458Z" fill="url(#paint14_linear_301_1387)" stroke="#A3822E" stroke-width="0.075" stroke-miterlimit="10"/>
<path d="M29.9833 22.5594L30.8669 22.8499C30.8669 22.8499 30.1689 23.5623 29.5697 23.4125C28.9713 23.262 28.2224 22.4545 28.2224 22.4545C28.2224 22.4545 28.1524 21.9413 28.233 21.9154C28.3136 21.8896 29.9438 22.2789 29.9438 22.2789L29.9826 22.5594H29.9833Z" fill="url(#paint15_linear_301_1387)" stroke="#A3822E" stroke-width="0.075" stroke-miterlimit="10"/>
<path d="M30.9817 20.5651L32.1146 20.5871C32.1146 20.5871 31.228 22.0934 30.1582 22.4614C30.1582 22.4614 29.6974 22.8522 28.8322 22.5176C27.9669 22.1831 27.7745 21.609 27.7745 21.609L29.3348 20.1408C29.3348 20.1408 30.2936 20.2488 30.3643 20.2587C30.435 20.2685 30.9809 20.5651 30.9809 20.5651H30.9817Z" fill="url(#paint16_linear_301_1387)" stroke="#A3822E" stroke-width="0.075" stroke-miterlimit="10"/>
<path d="M29.9095 20.7384C29.9095 20.7384 31.3557 20.8578 32.0286 19.6816C32.7023 18.5053 32.5951 18.0461 32.5951 18.0461C32.5951 18.0461 32.6483 17.8218 31.8013 18.4171L29.8259 18.5593C29.8259 18.5593 29.7263 19.1295 29.7225 19.3736C29.7187 19.6177 29.5689 20.3765 29.5689 20.4518C29.5689 20.5271 29.908 20.7392 29.908 20.7392L29.9095 20.7384Z" fill="url(#paint17_linear_301_1387)" stroke="#A3822E" stroke-width="0.075" stroke-miterlimit="10"/>
<path d="M28.5181 22.1374C28.5181 22.1374 29.4526 21.6805 29.9871 20.5901C30.5216 19.4998 30.365 19.169 30.365 19.169L29.6944 19.0367C29.6944 19.0367 29.3028 19.4565 29.1424 19.8526C28.9819 20.248 28.3075 21.114 28.1471 21.2531C27.9866 21.3923 27.9767 21.8394 27.9767 21.8394L28.5181 22.1374Z" fill="url(#paint18_linear_301_1387)" stroke="#A3822E" stroke-width="0.075" stroke-miterlimit="10"/>
<path d="M31.9458 15.9924C31.9458 15.9924 32.5313 15.6084 32.7662 15.6084C32.7662 15.6084 32.865 16.6136 32.3556 17.5861C31.8469 18.5585 31.2812 19.0664 30.1955 19.1927C30.1955 19.1927 29.334 17.6294 29.8685 17.1374C30.403 16.6455 31.945 15.9931 31.945 15.9931L31.9458 15.9924Z" fill="url(#paint19_linear_301_1387)" stroke="#A3822E" stroke-width="0.075" stroke-miterlimit="10"/>
<path d="M30.7908 15.0176C30.7908 15.0176 30.771 14.2322 32.2818 13.192C32.2818 13.192 33.1083 15.5012 31.2196 16.6272L30.8235 16.8972L30.3643 15.8601L30.79 15.0184L30.7908 15.0176Z" fill="url(#paint20_linear_301_1387)" stroke="#A3822E" stroke-width="0.075" stroke-miterlimit="10"/>
<path d="M29.5879 11.9732C29.5879 11.9732 29.6016 10.5263 30.8668 9.97729C30.8668 9.97729 31.7123 11.6523 30.1011 12.7852C30.1011 12.7852 29.5301 12.399 29.5879 11.9732Z" fill="url(#paint21_linear_301_1387)" stroke="#A3822E" stroke-width="0.075" stroke-miterlimit="10"/>
<path d="M18.7469 21.647C18.6732 21.6136 17.0362 23.7813 17.0362 23.7813C17.0362 23.7813 19.0496 26 23.5736 26C28.0976 26 29.7081 23.5813 29.7081 23.5813L27.9547 21.4547C27.9547 21.4547 24.9186 24.4641 18.7462 21.647H18.7469Z" fill="url(#paint22_linear_301_1387)" stroke="#A3822E" stroke-width="0.075" stroke-miterlimit="10"/>
<path d="M18.7256 23.611L18.7424 23.6224C18.7393 23.7022 18.7484 23.7699 18.7697 23.8254C18.7918 23.8809 18.8313 23.928 18.8899 23.9676C18.9324 23.9965 18.9781 24.0117 19.0267 24.0132C19.0754 24.0147 19.1218 24.0041 19.1659 23.9812C19.21 23.9584 19.2465 23.9257 19.2746 23.8832C19.3195 23.8163 19.3324 23.7531 19.3119 23.6946C19.2913 23.6361 19.2503 23.5623 19.1887 23.4726C19.1271 23.3829 19.0876 23.303 19.0708 23.2338C19.0541 23.1646 19.0731 23.0886 19.1286 23.0065C19.1955 22.9069 19.2814 22.8529 19.3856 22.8453C19.4898 22.8377 19.5939 22.8689 19.6981 22.9388C19.7399 22.967 19.778 23.0019 19.8114 23.043C19.8449 23.084 19.8669 23.1274 19.8768 23.1715C19.8555 23.1844 19.8114 23.2194 19.7437 23.2749L19.7278 23.2642C19.7407 23.2095 19.7384 23.1578 19.7202 23.1091C19.7019 23.0605 19.6692 23.0202 19.6221 22.9882C19.5848 22.9631 19.5453 22.9479 19.5035 22.9426C19.4616 22.9373 19.4221 22.9426 19.3841 22.9601C19.3461 22.9768 19.3149 23.0034 19.2906 23.0399C19.2457 23.1061 19.2335 23.1677 19.2533 23.2262C19.2731 23.2848 19.3141 23.3593 19.3773 23.4513C19.4404 23.5433 19.4807 23.6231 19.4981 23.6908C19.5156 23.7585 19.4981 23.8307 19.4472 23.9075C19.4092 23.9645 19.3643 24.0086 19.3126 24.0406C19.2617 24.0725 19.2062 24.0923 19.1476 24.0991C19.0891 24.1059 19.0298 24.1021 18.9705 24.0862C18.9112 24.0702 18.8534 24.0436 18.7979 24.0063C18.7545 23.9774 18.7119 23.9364 18.6701 23.8824C18.6283 23.8292 18.604 23.7798 18.5971 23.7341C18.6336 23.7075 18.6762 23.6665 18.7249 23.611H18.7256Z" fill="#0C0E19"/>
<path d="M20.3824 24.1645L20.1832 24.5713C20.1718 24.5941 20.1642 24.6116 20.1604 24.623C20.1566 24.6344 20.1558 24.6458 20.1604 24.6557C20.1642 24.6663 20.1733 24.6747 20.1878 24.6823C20.2007 24.6883 20.2189 24.6944 20.2433 24.6998L20.2243 24.7385C20.1999 24.7385 20.1794 24.7347 20.1619 24.7302C20.1414 24.7241 20.1216 24.7172 20.1034 24.7081C20.0692 24.6899 20.0448 24.6671 20.0311 24.6404C20.0175 24.6138 20.0175 24.5796 20.0311 24.5401L20.0076 24.5484C19.8981 24.5865 19.7932 24.5804 19.6935 24.5317C19.6297 24.5005 19.5841 24.4534 19.5582 24.3911C19.5316 24.3287 19.5339 24.2656 19.5651 24.2032C19.5955 24.1417 19.6335 24.1006 19.6799 24.0808C19.7262 24.0611 19.7741 24.055 19.8236 24.0626C19.873 24.0702 19.9369 24.0862 20.0137 24.1097C20.073 24.1272 20.1163 24.1386 20.1429 24.1432C20.1695 24.1477 20.1923 24.1462 20.2098 24.1379C20.2273 24.1295 20.2433 24.1112 20.257 24.0831C20.2889 24.0177 20.2957 23.9584 20.2775 23.9044C20.2592 23.8512 20.2174 23.8086 20.1528 23.7767C20.1148 23.7577 20.0768 23.7478 20.0403 23.747C20.003 23.7463 19.9711 23.7501 19.9445 23.76C19.9179 23.7699 19.8973 23.7813 19.8844 23.7949L19.8646 23.7851L19.9125 23.6877C20.038 23.6695 20.1482 23.6832 20.2425 23.7296C20.3353 23.7752 20.3946 23.8345 20.4182 23.9067C20.4425 23.9797 20.4303 24.0649 20.3824 24.1629V24.1645ZM20.0593 24.4694L20.1847 24.2131L20.1171 24.1956C20.0752 24.1835 20.0357 24.1728 20 24.1645C19.9635 24.1553 19.9285 24.1508 19.8935 24.1493C19.8593 24.1477 19.8258 24.1546 19.7954 24.1698C19.7643 24.185 19.7399 24.2116 19.7217 24.2489C19.6951 24.3036 19.6897 24.3523 19.7057 24.3949C19.7224 24.4374 19.7574 24.4716 19.8129 24.4983C19.835 24.5089 19.8623 24.5142 19.8966 24.5135C19.9308 24.5135 19.9604 24.5089 19.9863 24.4998C19.9946 24.4967 20.0038 24.4937 20.0137 24.4914C20.0235 24.4884 20.0334 24.4846 20.0433 24.48C20.0532 24.4755 20.0585 24.4716 20.06 24.4686L20.0593 24.4694Z" fill="#0C0E19"/>
<path d="M20.5375 24.9172L20.7877 24.017C20.8029 24.0223 20.8173 24.0276 20.8295 24.0322C20.8417 24.0367 20.8523 24.0405 20.8614 24.0428C20.8698 24.0451 20.8804 24.0474 20.8934 24.0497C20.9063 24.0519 20.9207 24.055 20.9382 24.058L20.8934 24.22C20.9253 24.1888 20.958 24.1645 20.9907 24.1462C21.0241 24.128 21.0599 24.1173 21.0987 24.1128C21.1374 24.109 21.1777 24.1128 21.2196 24.1242C21.2827 24.1417 21.3351 24.1744 21.3762 24.2215C21.418 24.2694 21.4401 24.3241 21.4423 24.3873C21.5511 24.2838 21.6666 24.2489 21.7898 24.2831C21.9008 24.3143 21.9708 24.366 21.9997 24.4397C22.0286 24.5135 22.0255 24.6116 21.9921 24.734L21.8408 25.2784C21.8286 25.2738 21.8187 25.27 21.8103 25.267C21.802 25.2639 21.7959 25.2617 21.7898 25.2594C21.7837 25.2571 21.7769 25.2548 21.7662 25.2518C21.7548 25.2487 21.7472 25.2464 21.7434 25.2457C21.7396 25.2449 21.7328 25.2434 21.7221 25.2419C21.7115 25.2396 21.7001 25.2381 21.6887 25.2366L21.8278 24.7355C21.8453 24.6716 21.8552 24.6161 21.8575 24.5682C21.8598 24.5203 21.8499 24.4785 21.8263 24.4428C21.8035 24.407 21.7624 24.3804 21.7047 24.3644C21.6195 24.3409 21.5541 24.3538 21.5085 24.4032C21.4629 24.4534 21.4279 24.5218 21.4036 24.6093L21.2621 25.1179C21.25 25.1134 21.2401 25.1096 21.2325 25.1065C21.2249 25.1035 21.218 25.1012 21.2127 25.0989C21.2074 25.0967 21.1998 25.0944 21.1884 25.0913C21.177 25.0883 21.1679 25.086 21.1625 25.0853C21.1572 25.0845 21.1496 25.083 21.1412 25.0814C21.1329 25.0799 21.123 25.0776 21.1116 25.0761L21.2644 24.5241C21.2895 24.4344 21.2918 24.3644 21.2713 24.3127C21.2515 24.261 21.2066 24.2261 21.1374 24.2071C21.0751 24.1896 21.0249 24.1888 20.9854 24.2033C20.9458 24.2177 20.9154 24.2428 20.8926 24.2785C20.8706 24.3135 20.8515 24.3576 20.8371 24.4093L20.685 24.9575C20.6729 24.953 20.663 24.9491 20.6554 24.9461C20.647 24.9431 20.6409 24.9408 20.6356 24.9385C20.6303 24.9362 20.6227 24.9339 20.6113 24.9309C20.6022 24.9286 20.5908 24.9256 20.5763 24.9233C20.5619 24.9203 20.5482 24.918 20.5345 24.9157L20.5375 24.9172Z" fill="#0C0E19"/>
<path d="M22.4422 25.1682L22.3928 25.838C22.3799 25.8357 22.37 25.8342 22.3616 25.8327C22.3532 25.8312 22.3464 25.8304 22.3411 25.8289C22.3358 25.8281 22.3274 25.8266 22.316 25.8259C22.3038 25.8251 22.2947 25.8243 22.2894 25.8251C22.2841 25.8251 22.2764 25.8251 22.2681 25.8251C22.2597 25.8251 22.2491 25.8251 22.2377 25.8251L22.3426 24.3949C22.3593 24.3972 22.3738 24.3995 22.3875 24.4017C22.4011 24.404 22.4118 24.4055 22.4209 24.4063C22.4293 24.4063 22.4399 24.4071 22.4528 24.4063C22.4658 24.4055 22.481 24.4063 22.4992 24.4063L22.4848 24.6032H22.4886C22.5251 24.5447 22.5661 24.4968 22.6118 24.461C22.6574 24.4253 22.7311 24.4116 22.8338 24.4192C22.8946 24.4238 22.9486 24.439 22.995 24.4664C23.0421 24.493 23.0809 24.5287 23.1121 24.5736C23.1432 24.6184 23.1661 24.6686 23.179 24.7226C23.1927 24.7766 23.1965 24.8344 23.1927 24.8944C23.1813 25.0526 23.1334 25.1742 23.049 25.2609C22.9646 25.3468 22.8596 25.3856 22.7334 25.3765C22.6004 25.3666 22.5046 25.2967 22.4475 25.1674H22.4437L22.4422 25.1682ZM22.462 24.899C22.4536 25.01 22.4711 25.102 22.5137 25.175C22.5563 25.248 22.6254 25.2883 22.7205 25.2951C22.7836 25.2997 22.8361 25.2845 22.8786 25.2503C22.9212 25.2153 22.9539 25.1674 22.976 25.1058C22.9988 25.0442 23.0132 24.9728 23.0193 24.8922C23.0246 24.823 23.0208 24.7583 23.0079 24.699C22.995 24.6397 22.9699 24.5903 22.9326 24.5508C22.8954 24.5112 22.8437 24.4899 22.7783 24.4854C22.7083 24.4801 22.6505 24.4983 22.6049 24.5394C22.5593 24.5804 22.5251 24.6344 22.503 24.6998C22.481 24.7652 22.4673 24.8321 22.462 24.8998V24.899Z" fill="#0C0E19"/>
<path d="M23.3979 24.9172C23.3919 24.848 23.3995 24.7841 23.4192 24.7248C23.439 24.6655 23.4702 24.6131 23.512 24.5667C23.5538 24.5211 23.604 24.4846 23.661 24.4572C23.7181 24.4298 23.7827 24.4139 23.8542 24.4078C23.9431 24.4009 24.023 24.4131 24.0944 24.4466C24.1659 24.4793 24.2237 24.5302 24.267 24.5994C24.3104 24.6686 24.337 24.7507 24.3446 24.8465C24.3499 24.9088 24.3446 24.9697 24.3278 25.0297C24.3119 25.0898 24.2845 25.1446 24.2465 25.194C24.2085 25.2434 24.1598 25.2837 24.1005 25.3141C24.042 25.3445 23.9735 25.3635 23.8967 25.3696C23.8123 25.3765 23.7333 25.3635 23.6603 25.3301C23.5865 25.2966 23.5264 25.2449 23.4801 25.1734C23.4329 25.102 23.4056 25.0168 23.3979 24.9172ZM23.8564 24.4678C23.7789 24.4747 23.7181 24.5005 23.674 24.5469C23.6291 24.5933 23.5994 24.6503 23.5842 24.7188C23.569 24.7872 23.5645 24.8587 23.5705 24.9339C23.5766 25.0046 23.5918 25.0685 23.6177 25.1271C23.6435 25.1856 23.68 25.232 23.7295 25.2662C23.7781 25.3004 23.8374 25.3149 23.9074 25.3095C23.9766 25.3035 24.0313 25.2753 24.0731 25.2236C24.115 25.1719 24.1423 25.1126 24.1575 25.0442C24.172 24.9758 24.1773 24.9111 24.1727 24.8518C24.1689 24.8032 24.1598 24.7553 24.1469 24.7096C24.1332 24.664 24.1142 24.6222 24.0883 24.5842C24.0625 24.5462 24.0306 24.5165 23.9918 24.4952C23.953 24.4739 23.9081 24.4648 23.8564 24.4694V24.4678Z" fill="#0C0E19"/>
<path d="M25.3634 24.9028L25.384 25.0032C25.3406 25.0495 25.2935 25.0891 25.2418 25.1218C25.1901 25.1537 25.1361 25.1765 25.0814 25.1887C24.9939 25.2085 24.9118 25.2062 24.835 25.1841C24.7582 25.1613 24.6936 25.1195 24.6396 25.0564C24.5864 24.994 24.5484 24.915 24.5271 24.8184C24.5073 24.7287 24.5065 24.645 24.524 24.5667C24.5415 24.4884 24.5795 24.4215 24.6366 24.366C24.6936 24.3105 24.7681 24.2732 24.8601 24.2527C24.9118 24.2413 24.9627 24.239 25.0137 24.2466C25.0646 24.2535 25.1118 24.2709 25.1551 24.2976C25.1984 24.3242 25.2365 24.3622 25.2692 24.4109C25.3019 24.4603 25.3269 24.5203 25.3422 24.5926C25.3444 24.6009 25.346 24.6085 25.3467 24.6146C25.3475 24.6207 25.349 24.6276 25.3498 24.6352C25.2197 24.6595 25.0905 24.6869 24.962 24.715L24.6928 24.7743C24.6928 24.7834 24.6959 24.7971 24.6997 24.8146C24.7103 24.8625 24.7278 24.9074 24.7514 24.9469C24.7749 24.9872 24.8053 25.0206 24.8411 25.0473C24.8768 25.0739 24.9186 25.0921 24.9643 25.1012C25.0099 25.1104 25.0585 25.1088 25.1095 25.0974C25.2061 25.0762 25.2904 25.0115 25.3627 24.9028H25.3634ZM24.6776 24.7028L25.1848 24.5911C25.1604 24.4937 25.1239 24.4177 25.0753 24.3637C25.0266 24.3097 24.9589 24.2922 24.8738 24.3112C24.8175 24.3242 24.7734 24.35 24.7415 24.3903C24.7095 24.4299 24.689 24.4778 24.6791 24.5333C24.6692 24.5888 24.6692 24.6458 24.6784 24.7036L24.6776 24.7028Z" fill="#0C0E19"/>
<path d="M25.7428 24.9971L25.4539 24.109C25.4699 24.1052 25.4851 24.1014 25.498 24.0983C25.5109 24.0953 25.5223 24.0923 25.5307 24.09C25.5383 24.0877 25.5482 24.0831 25.5604 24.0786C25.5725 24.0732 25.587 24.0672 25.6029 24.0603L25.6638 24.2466L25.6653 24.2208C25.701 24.0809 25.7596 23.9972 25.8425 23.9706C25.8668 23.963 25.8866 23.9592 25.9025 23.9607L25.9276 24.125C25.9215 24.125 25.9071 24.125 25.8843 24.1212C25.8615 24.1173 25.8432 24.1189 25.8295 24.1234C25.8075 24.1303 25.7869 24.1417 25.7679 24.1561C25.7489 24.1713 25.7345 24.1888 25.7261 24.2086C25.7079 24.2527 25.6995 24.2922 25.7026 24.3272C25.7056 24.3622 25.7162 24.4086 25.7352 24.4663L25.8919 24.9469C25.8797 24.9499 25.8691 24.9522 25.8607 24.9537C25.8523 24.956 25.8455 24.9575 25.8394 24.9583C25.8341 24.959 25.8257 24.9621 25.8158 24.9651C25.8044 24.9689 25.7968 24.9712 25.7938 24.9727C25.7908 24.9743 25.7839 24.9765 25.774 24.9811C25.7641 24.9849 25.7535 24.9895 25.7436 24.9948L25.7428 24.9971Z" fill="#0C0E19"/>
<path d="M26.4279 24.7651L26.0584 23.9075C26.0744 23.9022 26.0881 23.8976 26.101 23.893C26.1139 23.8892 26.1246 23.8854 26.1322 23.8816C26.1398 23.8778 26.1497 23.8733 26.1611 23.8672C26.1725 23.8611 26.1861 23.8535 26.2021 23.8451L26.2728 24.0086C26.2888 23.8641 26.3595 23.7645 26.4857 23.7098C26.5891 23.6649 26.675 23.6619 26.7442 23.6984C26.8134 23.7356 26.8735 23.814 26.9252 23.9349L27.1487 24.4534C27.1366 24.4572 27.1267 24.4603 27.1183 24.4633C27.11 24.4663 27.1031 24.4686 27.0986 24.4701C27.0932 24.4717 27.0856 24.4747 27.075 24.4793C27.0636 24.4838 27.056 24.4876 27.0507 24.4907C27.0453 24.4937 27.0393 24.4967 27.0317 24.5013C27.024 24.5051 27.0149 24.5104 27.005 24.5158L26.799 24.0383C26.7724 23.9767 26.745 23.9273 26.7153 23.8885C26.6865 23.8497 26.6515 23.8238 26.6112 23.8117C26.5709 23.7988 26.5245 23.8041 26.4713 23.8269C26.3831 23.8649 26.3352 23.9212 26.3261 23.9957C26.3177 24.0702 26.3397 24.1675 26.3914 24.2877L26.5709 24.7036C26.5587 24.7074 26.5488 24.7104 26.5405 24.7134C26.5321 24.7165 26.5253 24.7188 26.5199 24.7203C26.5146 24.7218 26.5063 24.7249 26.4964 24.7294C26.485 24.734 26.4781 24.737 26.4751 24.7393C26.472 24.7408 26.466 24.7446 26.4561 24.7499C26.4462 24.7553 26.4363 24.7606 26.4264 24.7659L26.4279 24.7651Z" fill="#0C0E19"/>
<path d="M27.7691 23.4254L27.9874 23.8223C27.9995 23.8444 28.0094 23.8611 28.017 23.871C28.0246 23.8809 28.0337 23.8877 28.0436 23.8908C28.0543 23.8938 28.0664 23.8908 28.0809 23.8832C28.093 23.8763 28.1083 23.8649 28.1265 23.8482L28.147 23.8862C28.1326 23.906 28.1181 23.9212 28.1052 23.9318C28.0885 23.9455 28.0718 23.9569 28.0535 23.9668C28.0193 23.9843 27.9866 23.9911 27.9562 23.9873C27.9258 23.9835 27.8984 23.9638 27.8741 23.9296L27.868 23.9539C27.8361 24.0649 27.7714 24.1478 27.6741 24.201C27.6118 24.2352 27.5471 24.2451 27.481 24.2314C27.4148 24.217 27.3646 24.1789 27.3312 24.1181C27.2977 24.0581 27.2863 24.0033 27.297 23.9539C27.3076 23.9045 27.3297 23.8619 27.3646 23.8261C27.3989 23.7897 27.4483 23.7471 27.5129 23.6976C27.5616 23.6596 27.5958 23.6307 27.6148 23.611C27.6338 23.592 27.6452 23.5722 27.649 23.5532C27.6528 23.5342 27.6467 23.5106 27.6315 23.4832C27.5965 23.4194 27.5517 23.3791 27.4977 23.3631C27.4437 23.3471 27.3852 23.357 27.3213 23.392C27.284 23.4125 27.2544 23.4376 27.2316 23.4673C27.2095 23.4969 27.1943 23.5258 27.1875 23.5532C27.1799 23.5806 27.1784 23.6041 27.1814 23.6224L27.1624 23.633L27.1099 23.538C27.167 23.4247 27.2415 23.3426 27.3342 23.2916C27.4247 23.2414 27.5068 23.2278 27.5806 23.2498C27.6536 23.2719 27.7167 23.3304 27.7699 23.4262L27.7691 23.4254ZM27.8323 23.8657L27.6946 23.6155L27.6414 23.6612C27.6072 23.6885 27.576 23.7144 27.5479 23.7387C27.5197 23.763 27.4954 23.7889 27.4741 23.817C27.4528 23.8452 27.4399 23.8756 27.4346 23.9098C27.4293 23.944 27.4369 23.979 27.4574 24.0162C27.4871 24.0695 27.5236 24.1022 27.5677 24.1128C27.6118 24.1234 27.6604 24.1143 27.7144 24.0854C27.7357 24.074 27.7555 24.0543 27.7752 24.0261C27.795 23.998 27.8079 23.9714 27.8155 23.9455C27.8178 23.9372 27.8208 23.928 27.8239 23.9181C27.8269 23.9083 27.83 23.8984 27.8315 23.887C27.833 23.8763 27.833 23.8695 27.8315 23.8664L27.8323 23.8657Z" fill="#0C0E19"/>
<path d="M20.0046 9.48837C20.0046 9.48837 19.7696 7.71829 18.9363 7.31151C18.9363 7.31151 23.2984 4.36061 27.8095 7.31151C27.8095 7.31151 26.6188 8.41325 26.669 9.33783L20.0046 9.48837Z" fill="url(#paint23_linear_301_1387)" stroke="#A3822E" stroke-width="0.075" stroke-miterlimit="10"/>
<path d="M21.2158 8.35543L20.9155 6.85299L21.3473 6.76631C21.4576 6.74426 21.5511 6.7359 21.6271 6.74046C21.7032 6.74578 21.764 6.76707 21.8096 6.80433C21.8553 6.84159 21.8857 6.89785 21.9001 6.97237C21.91 7.02255 21.9108 7.07045 21.9016 7.11607C21.8925 7.16169 21.8758 7.20427 21.8507 7.24457C21.8256 7.28487 21.7944 7.31984 21.7572 7.35102C21.7199 7.38143 21.6766 7.4088 21.6287 7.43237C21.675 7.42553 21.7237 7.42401 21.7739 7.42781C21.8241 7.43161 21.872 7.44302 21.9161 7.46127C21.9609 7.47952 22.0005 7.50841 22.0339 7.54719C22.0674 7.58596 22.0902 7.63615 22.1031 7.69773C22.1343 7.85436 22.0932 7.99199 21.9792 8.10984C21.9457 8.1433 21.9047 8.17219 21.8553 8.19576C21.8066 8.22009 21.7572 8.23834 21.7085 8.25126C21.6591 8.26419 21.6005 8.27712 21.5306 8.29156L21.2166 8.35467L21.2158 8.35543ZM21.1253 6.89633L21.2417 7.47876L21.3321 7.46051C21.3899 7.4491 21.4401 7.43542 21.4812 7.42097C21.5222 7.40652 21.5625 7.38599 21.5998 7.35862C21.6484 7.32212 21.6827 7.27802 21.7032 7.22632C21.723 7.17462 21.7275 7.11835 21.7153 7.05828C21.7017 6.99137 21.6766 6.94119 21.6393 6.90698C21.6021 6.87276 21.5542 6.85299 21.4964 6.84767C21.4386 6.84235 21.3686 6.84767 21.2873 6.8644L21.1253 6.89709V6.89633ZM21.2584 7.56087L21.393 8.2353L21.6021 8.19348C21.675 8.17903 21.7359 8.15166 21.7861 8.11136C21.8362 8.07106 21.872 8.02164 21.8925 7.96309C21.913 7.90455 21.9168 7.84296 21.9039 7.77833C21.8796 7.65592 21.8226 7.57836 21.7336 7.54414C21.6439 7.51069 21.526 7.50765 21.38 7.5373L21.2569 7.56163L21.2584 7.56087Z" fill="#0C0E19"/>
<path d="M23.1935 7.39208L23.2216 7.91292C23.2231 7.94257 23.2254 7.96386 23.2277 7.97831C23.23 7.99276 23.236 8.0034 23.2452 8.01177C23.2543 8.02013 23.2687 8.02393 23.2877 8.02241C23.3037 8.02165 23.3258 8.01709 23.3531 8.00872L23.3554 8.05815C23.3303 8.07107 23.3083 8.0802 23.2885 8.08476C23.2649 8.09008 23.2406 8.09388 23.2178 8.0954C23.1729 8.09616 23.1364 8.08704 23.1068 8.06803C23.0779 8.04902 23.0589 8.01481 23.0505 7.9669L23.0315 7.98895C22.9425 8.0878 22.8338 8.14102 22.7068 8.14787C22.6247 8.15243 22.5532 8.13038 22.4917 8.08248C22.4301 8.03458 22.3974 7.96995 22.3928 7.88935C22.389 7.81027 22.4042 7.74793 22.4392 7.70231C22.4742 7.65668 22.519 7.62323 22.573 7.60346C22.627 7.58369 22.6992 7.56316 22.7905 7.54415C22.8597 7.52895 22.9098 7.51602 22.9387 7.50538C22.9684 7.49473 22.9897 7.48028 23.0026 7.46204C23.0163 7.44379 23.0216 7.41642 23.0201 7.38068C23.0155 7.29628 22.9889 7.23317 22.941 7.18983C22.8931 7.14649 22.827 7.12749 22.7441 7.13205C22.6947 7.13433 22.6513 7.14573 22.6141 7.1655C22.5761 7.18527 22.5464 7.20732 22.5251 7.23241C22.5038 7.2575 22.4901 7.28031 22.4848 7.30084L22.4597 7.30236L22.4529 7.17767C22.5692 7.08871 22.6878 7.04081 22.808 7.03472C22.9266 7.02864 23.0193 7.05525 23.084 7.11456C23.1494 7.17387 23.1851 7.26663 23.1919 7.39285L23.1935 7.39208ZM23.0391 7.87947L23.0216 7.55176L22.9433 7.57229C22.8939 7.58369 22.849 7.5951 22.808 7.6065C22.7669 7.61791 22.7281 7.63235 22.6924 7.6506C22.6567 7.66885 22.6278 7.69394 22.6049 7.72664C22.5829 7.75933 22.5723 7.79963 22.5753 7.84829C22.5791 7.91824 22.6011 7.96995 22.6414 8.0034C22.6817 8.03686 22.7372 8.05206 22.8072 8.04826C22.8353 8.04674 22.8657 8.0361 22.9 8.01709C22.9342 7.99808 22.9615 7.97679 22.9828 7.95322C22.9897 7.94562 22.9973 7.93725 23.0056 7.92889C23.014 7.92052 23.0216 7.9114 23.0285 7.90075C23.0353 7.89087 23.0391 7.88403 23.0391 7.88023V7.87947Z" fill="#0C0E19"/>
<path d="M23.5485 8.09995L23.6337 7.02863C23.6527 7.03167 23.6694 7.03471 23.6846 7.03699C23.6998 7.03927 23.7128 7.04155 23.7226 7.04231C23.7318 7.04231 23.7447 7.04307 23.7591 7.04231C23.7743 7.04231 23.7918 7.04231 23.8124 7.04231L23.7956 7.24684C23.8899 7.10846 24.0154 7.04535 24.1735 7.05752C24.3028 7.06816 24.3925 7.10998 24.4427 7.18526C24.4929 7.25977 24.5119 7.3723 24.4997 7.52285L24.448 8.17066C24.4336 8.16838 24.4214 8.1661 24.4115 8.16458C24.4016 8.16306 24.394 8.16154 24.3879 8.16078C24.3819 8.16002 24.372 8.1585 24.359 8.15774C24.3454 8.15698 24.3347 8.15622 24.3286 8.15622C24.3226 8.15622 24.3134 8.15622 24.3035 8.15622C24.2937 8.15622 24.2823 8.15622 24.2686 8.15622L24.3165 7.56011C24.3226 7.48331 24.321 7.41792 24.3127 7.36242C24.3043 7.30691 24.2823 7.26281 24.248 7.22784C24.2138 7.19286 24.1636 7.17309 24.0983 7.16777C23.988 7.15864 23.9089 7.18982 23.8603 7.26129C23.8116 7.33276 23.7812 7.44301 23.769 7.59356L23.728 8.11364C23.7135 8.11136 23.7014 8.10907 23.6915 8.10755C23.6816 8.10603 23.674 8.10451 23.6671 8.10375C23.6603 8.10299 23.6512 8.10147 23.639 8.10071C23.6253 8.09995 23.6162 8.09919 23.6124 8.09919C23.6086 8.09919 23.6002 8.09919 23.5873 8.09919C23.5744 8.09919 23.5622 8.09919 23.5485 8.09919V8.09995Z" fill="#0C0E19"/>
<path d="M25.2753 6.60664L25.0631 7.59205C25.0571 7.6217 25.0533 7.63995 25.0533 7.64831C25.0533 7.65668 25.0548 7.66276 25.0586 7.66656C25.0996 7.67493 25.1726 7.64603 25.2776 7.5776L25.4433 7.46887L25.6555 7.3168C25.6737 7.32213 25.6904 7.32745 25.7049 7.33201C25.7193 7.33657 25.7322 7.34038 25.7421 7.3419C25.7497 7.34342 25.7611 7.34494 25.7763 7.34722C25.7916 7.34874 25.809 7.35102 25.8296 7.35406L25.8258 7.37003C25.7984 7.386 25.7748 7.39892 25.7535 7.40957C25.733 7.42021 25.6859 7.44454 25.6129 7.48332C25.5399 7.5221 25.4676 7.5624 25.3977 7.60269C25.3277 7.64299 25.2783 7.67189 25.2502 7.68937C25.2677 7.72131 25.292 7.76465 25.3224 7.82091C25.3528 7.87718 25.3878 7.94257 25.4281 8.01708C25.4684 8.0916 25.5057 8.15927 25.5391 8.22085C25.5726 8.28244 25.6053 8.34175 25.6372 8.40029L25.6349 8.41094C25.6167 8.40562 25.6022 8.40106 25.5908 8.39801C25.5802 8.39497 25.5711 8.39193 25.5627 8.38965C25.5551 8.38737 25.5437 8.38433 25.5285 8.38129C25.5117 8.37748 25.5003 8.3752 25.495 8.37444C25.4897 8.37368 25.4798 8.37216 25.4646 8.36988C25.4494 8.3676 25.4334 8.36532 25.4175 8.3638C25.3939 8.31286 25.3544 8.23606 25.2981 8.13265C25.2418 8.02925 25.1772 7.91139 25.1034 7.77833C25.0875 7.75096 25.073 7.73575 25.0601 7.73271C25.0419 7.72891 25.0267 7.75324 25.0145 7.80723L24.9179 8.25583C24.9035 8.25127 24.8921 8.24747 24.8829 8.24518C24.8738 8.24214 24.8655 8.23986 24.8594 8.23758C24.8533 8.2353 24.8434 8.23302 24.832 8.23074C24.8183 8.2277 24.81 8.22618 24.8054 8.22542C24.8016 8.22542 24.7932 8.22389 24.7811 8.22237C24.7689 8.22085 24.756 8.21933 24.743 8.21781L25.0989 6.56635C25.1171 6.57167 25.1339 6.57699 25.1483 6.58155C25.1628 6.58611 25.1757 6.58992 25.1856 6.59144C25.1947 6.59372 25.2069 6.59524 25.2221 6.59676C25.2373 6.59828 25.2548 6.60056 25.2753 6.6036V6.60664Z" fill="#0C0E19"/>
<path d="M23.3729 23.5829C27.5117 23.5829 30.8668 20.2277 30.8668 16.0889C30.8668 11.9501 27.5117 8.59497 23.3729 8.59497C19.2341 8.59497 15.8789 11.9501 15.8789 16.0889C15.8789 20.2277 19.2341 23.5829 23.3729 23.5829Z" fill="url(#paint24_linear_301_1387)" stroke="#A3822E" stroke-width="0.075" stroke-miterlimit="10"/>
<path d="M23.4846 21.6463C26.6807 21.6463 29.2716 19.0554 29.2716 15.8593C29.2716 12.6632 26.6807 10.0723 23.4846 10.0723C20.2886 10.0723 17.6977 12.6632 17.6977 15.8593C17.6977 19.0554 20.2886 21.6463 23.4846 21.6463Z" fill="white"/>
<path d="M23.4847 21.8394C20.187 21.8394 17.5053 19.1569 17.5053 15.86C17.5053 12.5632 20.187 9.87994 23.4847 9.87994C26.7823 9.87994 29.464 12.5624 29.464 15.8593C29.464 19.1561 26.7815 21.8386 23.4847 21.8386V21.8394ZM23.4847 10.2647C20.3999 10.2647 17.89 12.7746 17.89 15.8593C17.89 18.944 20.3999 21.4539 23.4847 21.4539C26.5694 21.4539 29.0793 18.944 29.0793 15.8593C29.0793 12.7746 26.5694 10.2647 23.4847 10.2647Z" fill="#0C0E19"/>
<path d="M23.4839 10.7277C20.6516 10.7277 18.3539 13.0255 18.3539 15.86C18.3539 18.6946 20.6516 20.9924 23.4839 20.9924C26.3162 20.9924 28.6162 18.6946 28.6162 15.86C28.6162 13.0255 26.3185 10.7277 23.4839 10.7277ZM23.3083 18.9531H23.4398C23.3942 19.0079 23.3645 19.0375 23.3645 19.0375C23.344 19.0101 23.3273 18.9813 23.3083 18.9531Z" fill="#FF0000"/>
<path d="M27.2248 13.4163C24.6906 12.529 23.3759 14.1113 23.3759 14.1113C21.3344 12.4332 19.3773 13.6627 19.3773 13.6627C19.9453 16.282 21.9442 16.5603 21.9442 16.5603C21.323 18.5905 23.3759 20.2586 23.3759 20.2586C25.108 19.2755 25.0327 16.4851 25.0327 16.4851C27.0438 15.746 27.2248 13.4156 27.2248 13.4156V13.4163ZM23.3166 15.2617C23.455 15.0731 23.8937 15.9718 23.8093 16.0562C23.7249 16.1429 22.9912 16.1794 22.9281 16.0083C22.8627 15.8388 23.3166 15.2617 23.3166 15.2617ZM22.1678 15.7582C20.8204 15.4061 20.457 14.1919 20.457 14.1919C21.9929 13.963 22.814 14.7211 22.814 14.7211C22.1678 15.1058 22.1678 15.7582 22.1678 15.7582ZM23.3204 18.9349C22.6027 17.9533 22.6817 16.7299 22.6817 16.7299C23.2801 16.901 24.042 16.7299 24.042 16.7299C24.2093 18.0445 23.3204 18.9349 23.3204 18.9349ZM24.7172 15.7582C24.5636 15.2556 23.953 14.6732 23.953 14.6732C24.9689 13.8223 26.1991 14.09 26.1991 14.09C25.7604 15.2237 24.7172 15.7582 24.7172 15.7582Z" fill="white" stroke="#0C0E19" stroke-width="0.125" stroke-miterlimit="10"/>
<path d="M21.142 22.5579L21.1519 22.5625C21.1565 22.5951 21.1679 22.6263 21.1854 22.6552C21.2036 22.6841 21.2257 22.7039 21.253 22.716C21.2728 22.7252 21.2949 22.729 21.3169 22.7274C21.3397 22.7259 21.361 22.7191 21.38 22.7069C21.399 22.6948 21.4135 22.6788 21.4226 22.6575C21.4386 22.621 21.4386 22.5906 21.4226 22.567C21.4059 22.5434 21.3762 22.513 21.3329 22.4765C21.2895 22.44 21.2599 22.4066 21.2447 22.3754C21.2295 22.3442 21.2325 22.3047 21.253 22.2568C21.2781 22.2005 21.3169 22.164 21.3686 22.1488C21.4203 22.1336 21.4758 22.1382 21.5336 22.164C21.5617 22.1762 21.5868 22.1922 21.6104 22.2104C21.634 22.2287 21.6499 22.2446 21.6583 22.2576C21.6355 22.2781 21.6127 22.3024 21.5899 22.3313L21.5792 22.3267C21.5792 22.3115 21.5777 22.2948 21.5724 22.2766C21.5671 22.2583 21.5595 22.2431 21.5496 22.2294C21.5397 22.2157 21.5268 22.2059 21.5116 22.199C21.4796 22.1853 21.4492 22.1823 21.4203 22.1906C21.3914 22.199 21.3694 22.2195 21.3557 22.2515C21.3405 22.2857 21.3405 22.3153 21.3564 22.3397C21.3724 22.3632 21.4013 22.3944 21.4431 22.4317C21.4849 22.4689 21.5138 22.5031 21.5306 22.5351C21.5473 22.567 21.545 22.605 21.526 22.6491C21.5077 22.6902 21.4811 22.7206 21.4462 22.7404C21.4112 22.7601 21.3732 22.77 21.3314 22.7685C21.2903 22.7677 21.2508 22.7594 21.2143 22.7427C21.1565 22.7168 21.1109 22.6818 21.0782 22.6362C21.1139 22.5967 21.1352 22.5708 21.1435 22.5579H21.142Z" fill="#0C0E19"/>
<path d="M22.2103 22.6241L22.1274 22.9229C22.1229 22.9396 22.1198 22.9526 22.1183 22.9609C22.1168 22.9693 22.1183 22.9769 22.1221 22.983C22.1259 22.9891 22.1327 22.9944 22.1442 22.9974C22.1533 22.9997 22.1662 23.0012 22.1837 23.002L22.1761 23.0301C22.1594 23.0324 22.1457 23.0332 22.1335 23.0324C22.1191 23.0309 22.1054 23.0286 22.0917 23.0248C22.0666 23.0172 22.0468 23.0043 22.0347 22.9883C22.0217 22.9716 22.0172 22.9495 22.0217 22.9206L22.0073 22.9297C21.9381 22.9685 21.8674 22.9784 21.7936 22.9579C21.7465 22.945 21.71 22.9191 21.6849 22.8803C21.6591 22.8415 21.653 22.799 21.6659 22.7533C21.6788 22.7077 21.6986 22.6758 21.7275 22.6568C21.7564 22.6378 21.7875 22.6271 21.8218 22.6264C21.856 22.6256 21.9008 22.6279 21.9556 22.634C21.9982 22.6385 22.0278 22.6408 22.0468 22.6401C22.0658 22.6393 22.0803 22.6355 22.0909 22.6279C22.1023 22.6203 22.1099 22.6058 22.116 22.5853C22.1297 22.5374 22.1267 22.4964 22.1077 22.4629C22.0886 22.4294 22.0552 22.4059 22.0073 22.3929C21.9792 22.3853 21.9525 22.3831 21.9275 22.3869C21.9024 22.3907 21.8811 22.3975 21.8651 22.4082C21.8484 22.418 21.8362 22.4287 21.8294 22.4393L21.8149 22.4355L21.8347 22.3641C21.9168 22.3359 21.9928 22.3314 22.062 22.3504C22.1305 22.3694 22.1776 22.4021 22.2027 22.4477C22.2278 22.4933 22.2308 22.5526 22.2111 22.6248L22.2103 22.6241ZM22.0309 22.8697L22.0833 22.6811L22.0354 22.6781C22.005 22.675 21.9776 22.6735 21.9525 22.672C21.9275 22.6705 21.9024 22.672 21.8796 22.675C21.856 22.6788 21.8347 22.6872 21.8157 22.7016C21.7967 22.7161 21.7837 22.7366 21.7754 22.7648C21.764 22.8051 21.767 22.8385 21.783 22.8651C21.799 22.8917 21.8278 22.9107 21.8681 22.9214C21.8841 22.9259 21.9031 22.9259 21.9267 22.9214C21.9503 22.9168 21.9693 22.91 21.9852 22.9009C21.9906 22.8978 21.9966 22.8948 22.0027 22.8917C22.0088 22.8887 22.0157 22.8849 22.021 22.8803C22.0271 22.8758 22.0301 22.8727 22.0309 22.8704V22.8697Z" fill="#0C0E19"/>
<path d="M22.3928 23.0932L22.5152 22.0956C22.5266 22.0979 22.5365 22.1002 22.5456 22.1017C22.5547 22.104 22.5623 22.1055 22.5684 22.1055C22.5745 22.1055 22.5814 22.1063 22.5905 22.107C22.5996 22.107 22.6102 22.107 22.6224 22.1086L22.5631 22.5921C22.6224 22.5123 22.6992 22.4781 22.7927 22.4895C22.868 22.4986 22.9205 22.5268 22.9486 22.5739C22.9767 22.621 22.9859 22.6879 22.9752 22.7746L22.9281 23.1586C22.9197 23.1563 22.9129 23.1548 22.9068 23.154C22.9007 23.1525 22.8961 23.1518 22.8931 23.151C22.8901 23.1502 22.884 23.1495 22.8756 23.148C22.8672 23.1472 22.8612 23.1464 22.8574 23.1464C22.8536 23.1464 22.8482 23.1464 22.8429 23.1464C22.8368 23.1464 22.83 23.1464 22.8224 23.1464L22.8657 22.7929C22.8748 22.7161 22.871 22.6583 22.8536 22.621C22.8361 22.583 22.8003 22.561 22.7456 22.5541C22.6293 22.5397 22.5631 22.6036 22.5456 22.7457L22.5015 23.1069C22.4932 23.1046 22.4863 23.1031 22.4802 23.1023C22.4741 23.1016 22.4696 23.1001 22.4658 23.0993C22.462 23.0985 22.4567 23.0978 22.4491 23.0963C22.4407 23.0955 22.4354 23.0947 22.4331 23.0947C22.4308 23.0947 22.4255 23.0947 22.4186 23.0947C22.411 23.0947 22.4034 23.0947 22.3958 23.0947L22.3928 23.0932Z" fill="#0C0E19"/>
<path d="M23.6542 22.7419L23.6588 23.0521C23.6588 23.0696 23.6595 23.0825 23.661 23.0909C23.6618 23.0993 23.6656 23.1061 23.6709 23.1114C23.6762 23.1168 23.6846 23.119 23.696 23.119C23.7059 23.119 23.7188 23.1168 23.7348 23.113V23.1426C23.7203 23.1495 23.7067 23.1548 23.6953 23.1571C23.6808 23.1601 23.6664 23.1616 23.6527 23.1616C23.6261 23.1616 23.6048 23.1548 23.5873 23.1426C23.5706 23.1304 23.5599 23.1099 23.5561 23.081L23.5447 23.0939C23.4892 23.151 23.4238 23.1799 23.3478 23.1806C23.2991 23.1814 23.2565 23.1669 23.2216 23.1365C23.1858 23.1069 23.1676 23.0673 23.1676 23.0194C23.1676 22.9723 23.1775 22.9358 23.1995 22.9092C23.2216 22.8826 23.2489 22.8643 23.2816 22.8529C23.3143 22.8423 23.3577 22.8324 23.4124 22.8225C23.4542 22.8149 23.4839 22.8088 23.5014 22.8027C23.5189 22.7974 23.5325 22.7891 23.5409 22.7784C23.5493 22.7678 23.5531 22.7518 23.5531 22.7305C23.5531 22.6803 23.5379 22.6423 23.5105 22.6149C23.4831 22.5876 23.4443 22.5754 23.3942 22.5762C23.3653 22.5762 23.3394 22.5822 23.3158 22.5929C23.2923 22.6035 23.2748 22.6165 23.2619 22.6309C23.2482 22.6453 23.2398 22.6583 23.236 22.6704H23.2208L23.22 22.5959C23.2915 22.5457 23.363 22.5199 23.4345 22.5191C23.5052 22.5184 23.5599 22.5359 23.5972 22.5731C23.6344 22.6104 23.6534 22.6659 23.655 22.7411L23.6542 22.7419ZM23.5508 23.0286L23.5477 22.8332L23.5006 22.8438C23.4709 22.8499 23.4436 22.8552 23.4192 22.8613C23.3942 22.8666 23.3713 22.875 23.3493 22.8849C23.328 22.8947 23.3098 22.9092 23.2953 22.9282C23.2816 22.9472 23.2748 22.9708 23.2748 22.9997C23.2748 23.0415 23.2877 23.0727 23.3105 23.0932C23.3341 23.1137 23.366 23.1244 23.4078 23.1236C23.4246 23.1236 23.4428 23.1175 23.4641 23.1069C23.4846 23.0962 23.5014 23.0841 23.5143 23.0711C23.5189 23.0666 23.5234 23.062 23.5287 23.0575C23.5341 23.0529 23.5386 23.0476 23.5432 23.0415C23.5477 23.0354 23.55 23.0316 23.55 23.0293L23.5508 23.0286Z" fill="#0C0E19"/>
<path d="M23.931 23.1434L23.7918 22.1519C23.8032 22.1519 23.8131 22.1503 23.8222 22.1503C23.8313 22.1503 23.839 22.1496 23.845 22.1481C23.8504 22.1473 23.858 22.1458 23.8663 22.1435C23.8754 22.1412 23.8853 22.1389 23.8975 22.1367L23.9667 22.6271C23.9895 22.5799 24.0184 22.5419 24.0518 22.5123C24.0861 22.4826 24.1279 22.4651 24.1765 22.4583C24.2358 22.4499 24.2876 22.4583 24.3324 22.4819C24.3765 22.5054 24.4122 22.5396 24.4381 22.5845C24.464 22.6294 24.4807 22.6765 24.4875 22.7282C24.4936 22.7731 24.4936 22.8172 24.486 22.8605C24.4784 22.9031 24.464 22.9426 24.4427 22.9784C24.4214 23.0141 24.3932 23.0445 24.359 23.0688C24.324 23.0932 24.2838 23.1084 24.2366 23.1152C24.1537 23.1266 24.0861 23.1046 24.0351 23.0476C24.026 23.0567 24.0146 23.0688 24.0017 23.0848C23.9887 23.1008 23.9735 23.119 23.956 23.1396L23.931 23.1426V23.1434ZM24.1515 22.5191C24.0815 22.529 24.0351 22.5655 24.0123 22.6294C23.9895 22.6932 23.9842 22.7693 23.9971 22.8582C24.0039 22.9046 24.0169 22.9457 24.0374 22.9806C24.0572 23.0156 24.083 23.0415 24.1142 23.0582C24.1454 23.0749 24.1796 23.0802 24.2176 23.0749C24.2533 23.0696 24.2822 23.0567 24.305 23.0346C24.3279 23.0126 24.3453 22.9852 24.3567 22.9525C24.3681 22.9198 24.375 22.8871 24.3773 22.8529C24.3796 22.8194 24.3773 22.7845 24.3727 22.7503C24.3659 22.7001 24.3529 22.6567 24.3347 22.6202C24.3164 22.5837 24.2921 22.5564 24.2617 22.5381C24.2313 22.5199 24.1948 22.513 24.153 22.5191H24.1515Z" fill="#0C0E19"/>
<path d="M25.0738 22.4925L25.1513 22.7929C25.1559 22.8096 25.1597 22.8225 25.1627 22.8301C25.1658 22.8377 25.1703 22.8438 25.1772 22.8476C25.1832 22.8514 25.1924 22.8514 25.203 22.8491C25.2121 22.8469 25.2243 22.8415 25.2395 22.8332L25.2471 22.8613C25.2342 22.8719 25.222 22.8795 25.2114 22.8849C25.1985 22.891 25.1848 22.8963 25.1711 22.8993C25.1452 22.9054 25.1224 22.9046 25.1034 22.8963C25.0836 22.8887 25.0692 22.8712 25.0586 22.8438L25.0502 22.859C25.0099 22.9274 24.9529 22.9715 24.8799 22.9906C24.8327 23.0027 24.7886 22.9989 24.7468 22.9776C24.705 22.9571 24.6784 22.9236 24.6662 22.8773C24.6548 22.8316 24.6563 22.7936 24.6715 22.7625C24.6867 22.7313 24.7088 22.7069 24.7377 22.6887C24.7666 22.6705 24.8069 22.6507 24.8578 22.6279C24.8966 22.6104 24.924 22.5975 24.9399 22.5876C24.9559 22.5785 24.9666 22.567 24.9726 22.5549C24.978 22.5427 24.978 22.526 24.9726 22.5055C24.9597 22.4568 24.9369 22.4226 24.9042 22.4036C24.8707 22.3838 24.8304 22.3808 24.7825 22.3929C24.7544 22.4005 24.7301 22.4119 24.7103 22.4279C24.6905 22.4439 24.6761 22.4606 24.6662 22.4773C24.6571 22.4948 24.6518 22.5093 24.651 22.5222L24.6366 22.526L24.6176 22.4538C24.6746 22.3884 24.7384 22.3465 24.8076 22.3283C24.8761 22.31 24.9331 22.3154 24.9787 22.342C25.0236 22.3694 25.0555 22.4188 25.0745 22.491L25.0738 22.4925ZM25.0418 22.7951L24.9924 22.6058L24.9491 22.6271C24.9217 22.6393 24.8966 22.6514 24.8738 22.6628C24.851 22.6743 24.8305 22.6872 24.8114 22.7024C24.7924 22.7168 24.7787 22.7351 24.7696 22.7571C24.7605 22.7792 24.759 22.8035 24.7666 22.8316C24.7772 22.8719 24.7962 22.8993 24.8236 22.9145C24.851 22.929 24.8852 22.9312 24.9255 22.9206C24.9415 22.916 24.9582 22.9069 24.9757 22.891C24.9932 22.8757 25.0068 22.8598 25.016 22.8438C25.019 22.8385 25.0228 22.8332 25.0266 22.8271C25.0304 22.821 25.0342 22.8149 25.0373 22.8081C25.0403 22.8012 25.0411 22.7967 25.0411 22.7944L25.0418 22.7951Z" fill="#0C0E19"/>
<path d="M25.1711 22.0933L25.2593 22.0196L25.3155 22.1838L25.4493 22.1382C25.4516 22.1511 25.4539 22.1603 25.4554 22.1648C25.4577 22.1717 25.4615 22.1793 25.4661 22.1869L25.3322 22.2325L25.441 22.5503L25.4569 22.5959C25.4737 22.6446 25.4927 22.6811 25.5155 22.7054C25.5375 22.7305 25.568 22.7358 25.606 22.7229C25.6143 22.7199 25.6318 22.7107 25.66 22.6948L25.6706 22.7252C25.6341 22.7548 25.6007 22.7746 25.5718 22.7845C25.5482 22.7929 25.5269 22.7967 25.5071 22.7967C25.4874 22.7967 25.4683 22.7913 25.4509 22.7799C25.4334 22.7685 25.4166 22.7518 25.4007 22.7275C25.3855 22.7031 25.371 22.6727 25.3581 22.6347L25.2319 22.2659L25.1536 22.2926C25.1536 22.2865 25.152 22.2773 25.1482 22.2675C25.1444 22.2561 25.1406 22.2485 25.1368 22.2447L25.2152 22.218L25.1726 22.0926L25.1711 22.0933Z" fill="#0C0E19"/>
<path d="M29.0793 22.0196C29.1515 22.0378 29.7301 21.939 30.5597 21.5071C30.822 21.371 31.1086 21.2015 31.4128 20.9924" stroke="#A3822E" stroke-width="0.025" stroke-miterlimit="10"/>
<path d="M30.5216 20.1408C30.5216 20.1408 31.6332 19.4352 32.1145 18.5585" stroke="#A3822E" stroke-width="0.025" stroke-miterlimit="10"/>
<path d="M30.9094 18.1525C30.9094 18.1525 32.0515 17.4461 32.6012 16.0889" stroke="#A3822E" stroke-width="0.025" stroke-miterlimit="10"/>
<path d="M31.0889 15.8593C31.0889 15.8593 31.8903 15.159 32.1146 13.7045" stroke="#A3822E" stroke-width="0.025" stroke-miterlimit="10"/>
<path d="M30.2365 12.1359L30.7353 10.3369" stroke="#A3822E" stroke-width="0.025" stroke-miterlimit="10"/>
<defs>
<linearGradient id="paint0_linear_301_1387" x1="15.7276" y1="12.4598" x2="14.4024" y2="14.0421" gradientUnits="userSpaceOnUse">
<stop stop-color="#F7E349"/>
<stop offset="1" stop-color="#A3822E"/>
</linearGradient>
<linearGradient id="paint1_linear_301_1387" x1="31.0463" y1="12.4598" x2="32.3716" y2="14.0421" gradientUnits="userSpaceOnUse">
<stop stop-color="#F7E349"/>
<stop offset="1" stop-color="#A3822E"/>
</linearGradient>
<linearGradient id="paint2_linear_301_1387" x1="17.4627" y1="10.1864" x2="15.8805" y2="10.2928" gradientUnits="userSpaceOnUse">
<stop stop-color="#F7E349"/>
<stop offset="1" stop-color="#A3822E"/>
</linearGradient>
<linearGradient id="paint3_linear_301_1387" x1="19.4092" y1="8.81774" x2="18.3189" y2="11.1269" gradientUnits="userSpaceOnUse">
<stop stop-color="#F7E349"/>
<stop offset="1" stop-color="#A3822E"/>
</linearGradient>
<linearGradient id="paint4_linear_301_1387" x1="20.5497" y1="9.59789" x2="17.0864" y2="9.59789" gradientUnits="userSpaceOnUse">
<stop stop-color="#F7E349"/>
<stop offset="1" stop-color="#A3822E"/>
</linearGradient>
<linearGradient id="paint5_linear_301_1387" x1="15.682" y1="22.3549" x2="18.5896" y2="22.8035" gradientUnits="userSpaceOnUse">
<stop stop-color="#F7E349"/>
<stop offset="1" stop-color="#A3822E"/>
</linearGradient>
<linearGradient id="paint6_linear_301_1387" x1="16.9122" y1="20.7278" x2="16.3564" y2="23.208" gradientUnits="userSpaceOnUse">
<stop stop-color="#F7E349"/>
<stop offset="1" stop-color="#A3822E"/>
</linearGradient>
<linearGradient id="paint7_linear_301_1387" x1="15.8173" y1="19.0269" x2="14.8981" y2="20.6092" gradientUnits="userSpaceOnUse">
<stop stop-color="#F7E349"/>
<stop offset="1" stop-color="#A3822E"/>
</linearGradient>
<linearGradient id="paint8_linear_301_1387" x1="16.7716" y1="19.7697" x2="19.2944" y2="22.3785" gradientUnits="userSpaceOnUse">
<stop stop-color="#F7E349"/>
<stop offset="1" stop-color="#A3822E"/>
</linearGradient>
<linearGradient id="paint9_linear_301_1387" x1="15.5763" y1="16.777" x2="14.251" y2="19.7705" gradientUnits="userSpaceOnUse">
<stop stop-color="#F7E349"/>
<stop offset="1" stop-color="#A3822E"/>
</linearGradient>
<linearGradient id="paint10_linear_301_1387" x1="15.7094" y1="14.4458" x2="13.7211" y2="16.8827" gradientUnits="userSpaceOnUse">
<stop stop-color="#F7E349"/>
<stop offset="1" stop-color="#A3822E"/>
</linearGradient>
<linearGradient id="paint11_linear_301_1387" x1="16.8506" y1="11.3026" x2="15.0334" y2="11.5588" gradientUnits="userSpaceOnUse">
<stop stop-color="#F7E349"/>
<stop offset="1" stop-color="#A3822E"/>
</linearGradient>
<linearGradient id="paint12_linear_301_1387" x1="29.3112" y1="10.1864" x2="30.8934" y2="10.2928" gradientUnits="userSpaceOnUse">
<stop stop-color="#F7E349"/>
<stop offset="1" stop-color="#A3822E"/>
</linearGradient>
<linearGradient id="paint13_linear_301_1387" x1="27.3647" y1="8.81774" x2="28.455" y2="11.1269" gradientUnits="userSpaceOnUse">
<stop stop-color="#F7E349"/>
<stop offset="1" stop-color="#A3822E"/>
</linearGradient>
<linearGradient id="paint14_linear_301_1387" x1="26.2242" y1="9.59789" x2="29.6875" y2="9.59789" gradientUnits="userSpaceOnUse">
<stop stop-color="#F7E349"/>
<stop offset="1" stop-color="#A3822E"/>
</linearGradient>
<linearGradient id="paint15_linear_301_1387" x1="31.0919" y1="22.3549" x2="28.1844" y2="22.8035" gradientUnits="userSpaceOnUse">
<stop stop-color="#F7E349"/>
<stop offset="1" stop-color="#A3822E"/>
</linearGradient>
<linearGradient id="paint16_linear_301_1387" x1="29.8617" y1="20.7278" x2="30.4175" y2="23.208" gradientUnits="userSpaceOnUse">
<stop stop-color="#F7E349"/>
<stop offset="1" stop-color="#A3822E"/>
</linearGradient>
<linearGradient id="paint17_linear_301_1387" x1="30.9565" y1="19.0269" x2="31.8758" y2="20.6092" gradientUnits="userSpaceOnUse">
<stop stop-color="#F7E349"/>
<stop offset="1" stop-color="#A3822E"/>
</linearGradient>
<linearGradient id="paint18_linear_301_1387" x1="30.0023" y1="19.7697" x2="27.4795" y2="22.3785" gradientUnits="userSpaceOnUse">
<stop stop-color="#F7E349"/>
<stop offset="1" stop-color="#A3822E"/>
</linearGradient>
<linearGradient id="paint19_linear_301_1387" x1="31.1976" y1="16.777" x2="32.5229" y2="19.7705" gradientUnits="userSpaceOnUse">
<stop stop-color="#F7E349"/>
<stop offset="1" stop-color="#A3822E"/>
</linearGradient>
<linearGradient id="paint20_linear_301_1387" x1="31.0645" y1="14.4458" x2="33.0528" y2="16.8827" gradientUnits="userSpaceOnUse">
<stop stop-color="#F7E349"/>
<stop offset="1" stop-color="#A3822E"/>
</linearGradient>
<linearGradient id="paint21_linear_301_1387" x1="29.9232" y1="11.3026" x2="31.7404" y2="11.5588" gradientUnits="userSpaceOnUse">
<stop stop-color="#F7E349"/>
<stop offset="1" stop-color="#A3822E"/>
</linearGradient>
<linearGradient id="paint22_linear_301_1387" x1="23.3729" y1="21.4547" x2="23.3729" y2="25.9992" gradientUnits="userSpaceOnUse">
<stop stop-color="#F7E349"/>
<stop offset="1" stop-color="#A3822E"/>
</linearGradient>
<linearGradient id="paint23_linear_301_1387" x1="23.3729" y1="9.48837" x2="23.3729" y2="6.00068" gradientUnits="userSpaceOnUse">
<stop stop-color="#F7E349"/>
<stop offset="1" stop-color="#A3822E"/>
</linearGradient>
<linearGradient id="paint24_linear_301_1387" x1="23.3729" y1="8.59497" x2="23.3729" y2="23.5829" gradientUnits="userSpaceOnUse">
<stop stop-color="#F7E349"/>
<stop offset="1" stop-color="#A3822E"/>
</linearGradient>
</defs>
</svg>
