<svg width="58" height="40" viewBox="0 0 58 40" fill="none" xmlns="http://www.w3.org/2000/svg">
<path d="M21.8982 10H27.3879C26.4741 12.056 25.5583 14.1113 24.643 16.1668C23.7847 18.0957 22.9256 20.0244 22.0671 21.953C20.2362 21.9538 18.4053 21.9535 16.5746 21.9533C18.3493 17.9688 20.1224 13.9837 21.8982 10Z" fill="#FFCA08"/>
<path d="M27.3879 10H27.3895C27.9646 11.2952 28.5432 12.5889 29.1181 13.8844L29.1221 13.8935C28.7299 14.749 28.3553 15.6126 27.9704 16.4714C27.5274 17.4621 27.0879 18.4545 26.6455 19.4455C26.552 19.6445 26.4769 19.852 26.3699 20.0442C25.7937 18.752 25.2189 17.459 24.643 16.1668C25.5583 14.1113 26.4741 12.056 27.3879 10Z" fill="#FA9D1C"/>
<path d="M30.849 10H30.8505C31.7653 12.0565 32.6812 14.1126 33.597 16.1686C33.0163 17.4616 32.4442 18.7585 31.8651 20.0523C30.9475 18.0008 30.0364 15.9465 29.1221 13.8935L29.1181 13.8844C29.6982 12.591 30.2734 11.2952 30.849 10Z" fill="#9E9FA3"/>
<path d="M30.8505 10H36.3402C38.1171 13.9834 39.8895 17.9688 41.6646 21.953C39.8342 21.9548 38.0035 21.9533 36.1731 21.9538C35.3136 20.0256 34.4553 18.097 33.597 16.1686C32.6812 14.1126 31.7653 12.0565 30.8505 10Z" fill="#636466"/>
<path d="M38.9495 25.3161C39.3033 25.1224 39.7214 25.0857 40.1166 25.1274C40.4829 25.1661 40.846 25.3048 41.1184 25.5575C41.4339 25.8452 41.6131 26.257 41.6731 26.6749C41.2849 26.6751 40.8967 26.6754 40.5085 26.6746C40.4585 26.4852 40.3606 26.2854 40.1694 26.2058C39.9312 26.1103 39.6231 26.1126 39.4271 26.2965C39.2937 26.4206 39.259 26.6091 39.2382 26.7817C39.1992 27.15 39.2048 27.5211 39.2103 27.8907C39.2214 28.1377 39.2224 28.3915 39.301 28.6287C39.3606 28.8136 39.5384 28.94 39.7281 28.9618C39.952 28.9885 40.2091 28.9452 40.3638 28.7668C40.5018 28.6053 40.5279 28.3819 40.5289 28.1771C40.297 28.1701 40.0648 28.1764 39.8329 28.1741C39.8327 27.851 39.8324 27.5279 39.8332 27.2048C40.4485 27.2048 41.0638 27.2045 41.6794 27.205C41.6699 27.7613 41.7234 28.3329 41.5586 28.8729C41.44 29.2756 41.1367 29.6063 40.7709 29.8025C40.5352 29.9289 40.2681 29.9812 40.0038 30H39.6977C39.4417 29.9819 39.1857 29.9229 38.9585 29.8005C38.6136 29.6148 38.3166 29.3161 38.1884 28.9402C38.0133 28.4425 38.053 27.906 38.0467 27.3877C38.0472 26.9797 38.0495 26.5601 38.1889 26.1711C38.3171 25.7993 38.6106 25.5043 38.9495 25.3161Z" fill="#636466"/>
<path d="M12 25.2055C12.4437 25.2193 12.8884 25.2075 13.3327 25.2115C13.6249 25.2171 13.9224 25.1887 14.209 25.2605C14.5136 25.3314 14.8023 25.5053 14.9721 25.7723C15.144 26.0392 15.1942 26.3733 15.1437 26.6834C15.0824 27.0475 14.8224 27.3721 14.4746 27.5005C14.7171 27.594 14.9362 27.7585 15.0693 27.9844C15.2623 28.3043 15.2731 28.7058 15.1769 29.059C15.09 29.3794 14.8528 29.6515 14.5485 29.7834C14.3251 29.8847 14.0774 29.9231 13.8334 29.9226C13.2224 29.9221 12.6111 29.9226 12 29.9223V25.2055ZM12.5053 25.6635C12.5038 26.2073 12.505 26.7507 12.5048 27.2945C12.9229 27.2952 13.3412 27.2947 13.7595 27.2947C14.0173 27.2914 14.2927 27.2178 14.4704 27.0201C14.642 26.8304 14.6829 26.556 14.6447 26.3103C14.6181 26.1344 14.5291 25.9656 14.3869 25.8563C14.2101 25.7176 13.9802 25.6671 13.7595 25.6638C13.3415 25.6633 12.9234 25.664 12.5053 25.6635ZM12.505 27.747C12.5043 28.3213 12.5045 28.8957 12.5048 29.4701C12.8892 29.4703 13.2734 29.4701 13.6578 29.4703C13.8183 29.4728 13.9817 29.4718 14.1367 29.4236C14.3673 29.359 14.5731 29.1937 14.6626 28.9683C14.7892 28.647 14.7472 28.2362 14.4887 27.9904C14.2887 27.799 14.0003 27.7389 13.7317 27.7467C13.3226 27.7472 12.9138 27.747 12.505 27.747Z" fill="#636466"/>
<path d="M17.2837 25.2116C17.4256 25.2118 17.5676 25.2103 17.7098 25.2123C18.2847 26.7817 18.8585 28.3515 19.4359 29.9198C19.2558 29.9246 19.0754 29.9231 18.8952 29.9208C18.7711 29.5658 18.6472 29.2108 18.5181 28.8578C17.8339 28.8603 17.1498 28.858 16.4656 28.8588C16.3395 29.2131 16.2143 29.5676 16.0892 29.9221C15.9096 29.9231 15.7299 29.9218 15.5505 29.9226C16.1271 28.352 16.7058 26.7819 17.2837 25.2116ZM17.4957 25.9588C17.203 26.7786 16.9106 27.5985 16.6191 28.4188C17.204 28.4191 17.7887 28.4196 18.3734 28.4186C18.0862 27.599 17.7985 26.7796 17.5103 25.9603C17.5068 25.96 17.4995 25.9593 17.4957 25.9588Z" fill="#636466"/>
<path d="M19.9292 25.2118C20.0884 25.2108 20.2477 25.2116 20.4073 25.2116C21.2397 26.4638 22.0711 27.7169 22.9038 28.9691C22.9058 27.7164 22.9033 26.4638 22.9053 25.2111C23.0729 25.2111 23.2407 25.2126 23.4085 25.2103C23.4148 26.7809 23.4096 28.3518 23.4111 29.9224C23.2513 29.9224 23.0917 29.9224 22.9319 29.9224C22.0985 28.6661 21.2681 27.4078 20.4344 26.1515C20.4329 27.4086 20.4339 28.6653 20.4339 29.9221C20.2658 29.9229 20.0975 29.9221 19.9294 29.9224C19.9289 28.3523 19.9294 26.7822 19.9292 25.2118Z" fill="#636466"/>
<path d="M24.505 25.2141C24.6734 25.2081 24.842 25.2131 25.0108 25.2116C25.0113 26.1116 25.0098 27.0116 25.0116 27.9118C25.745 27.0128 26.4726 26.1091 27.2068 25.2108C27.4123 25.2123 27.6176 25.2108 27.8231 25.2116C27.3297 25.8191 26.8339 26.4244 26.3412 27.0324C26.9053 27.996 27.4704 28.9588 28.0339 29.9224C27.8339 29.9219 27.6342 29.9234 27.4344 29.9216C26.958 29.0867 26.4789 28.2533 26.002 27.4186C25.6842 27.7957 25.3709 28.1769 25.0535 28.5545C25.0349 28.5804 25.0035 28.6048 25.0108 28.6412C25.0108 29.0684 25.0106 29.4952 25.0108 29.9224C24.8427 29.9226 24.6746 29.9224 24.5063 29.9224C24.5053 28.353 24.5081 26.7834 24.505 25.2141Z" fill="#636466"/>
<path d="M28.8173 29.9221C28.8198 28.352 28.8128 26.7814 28.8209 25.2115C29.2 25.2171 29.5794 25.2108 29.9588 25.2148C30.3083 25.906 30.6618 26.5955 31.0123 27.2864C31.3673 26.5967 31.7163 25.904 32.0696 25.2136C32.4498 25.2138 32.8299 25.2133 33.2103 25.2138C33.2101 26.7834 33.2103 28.3528 33.2101 29.9224C32.8236 29.9226 32.4369 29.9224 32.0505 29.9224C32.049 29.1397 32.052 28.357 32.049 27.5741C31.8307 27.9558 31.6128 28.3377 31.3935 28.7188C31.3176 28.8492 31.1716 28.9364 31.0199 28.9349C30.8663 28.9404 30.7148 28.8565 30.6369 28.7246C30.4151 28.3435 30.2005 27.958 29.9776 27.5776C29.9771 28.3593 29.9776 29.1409 29.9771 29.9224C29.5905 29.9221 29.204 29.9229 28.8173 29.9221Z" fill="#636466"/>
<path d="M34.1776 25.2139C35.2455 25.2133 36.3133 25.2136 37.3809 25.2139C37.3822 25.5566 37.3789 25.8995 37.3827 26.2422C36.7013 26.2508 36.0193 26.2427 35.3377 26.2463C35.3374 26.5078 35.3372 26.7691 35.3377 27.0307C35.9199 27.0314 36.5018 27.0307 37.0839 27.0312C37.0837 27.3759 37.0837 27.7204 37.0839 28.0651C36.5018 28.0661 35.9196 28.0644 35.3377 28.0659C35.3374 28.3405 35.3372 28.6154 35.3377 28.89C36.0188 28.8907 36.6997 28.89 37.3809 28.8902C37.3812 29.2345 37.3812 29.5784 37.3809 29.9224C36.3131 29.9224 35.2455 29.9226 34.1779 29.9224C34.1774 28.3528 34.1774 26.7835 34.1776 25.2139Z" fill="#636466"/>
<path d="M43.6312 25.2138C43.9302 25.2145 44.2294 25.211 44.5287 25.2156C44.9292 26.3269 45.3357 27.4359 45.7385 28.5462C45.9098 29.0042 46.0651 29.4688 46.2462 29.9231C45.846 29.9213 45.4457 29.9233 45.0457 29.9221C44.9686 29.6884 44.8925 29.4548 44.8143 29.2213C44.3231 29.2218 43.8317 29.2188 43.3405 29.2228C43.2663 29.4568 43.1877 29.6892 43.1111 29.9223C42.7136 29.9226 42.3161 29.9223 41.9189 29.9223C42.4887 28.3525 43.0601 26.7831 43.6312 25.2138ZM44.0766 26.9243C43.9347 27.3754 43.7905 27.8256 43.6483 28.2764C43.9349 28.2771 44.2219 28.2766 44.5091 28.2766C44.3646 27.8259 44.2266 27.3731 44.0766 26.9243Z" fill="#636466"/>
<path d="M29.1221 13.8935C30.0364 15.9465 30.9475 18.0008 31.8651 20.0523C31.6194 20.5922 31.2068 21.0535 30.701 21.3633C29.9518 21.8287 28.9947 21.9342 28.1598 21.653C27.3749 21.3948 26.7096 20.7978 26.3699 20.0442C26.4769 19.852 26.552 19.6445 26.6455 19.4455C27.0879 18.4545 27.5274 17.4621 27.9704 16.4714C28.3553 15.6126 28.7299 14.749 29.1221 13.8935Z" fill="#F37022"/>
</svg>
