<svg width="28" height="20" viewBox="0 0 28 20" fill="none" xmlns="http://www.w3.org/2000/svg">
<path d="M8.93676 3H12.784C12.1436 4.44088 11.5017 5.88123 10.8603 7.32176C10.2588 8.67354 9.65676 10.0252 9.05508 11.3768C7.77197 11.3773 6.48886 11.3771 5.20593 11.3769C6.4496 8.58462 7.69221 5.79178 8.93676 3Z" fill="#FFCA08"/>
<path d="M12.784 3H12.785C13.1881 3.9077 13.5936 4.81435 13.9965 5.72223L13.9993 5.72857C13.7244 6.32813 13.4619 6.93332 13.1921 7.53517C12.8817 8.22946 12.5737 8.92498 12.2636 9.61945C12.1981 9.75891 12.1455 9.90435 12.0705 10.0391C11.6667 9.13347 11.2639 8.22735 10.8603 7.32176C11.5017 5.88123 12.1436 4.44088 12.784 3Z" fill="#FA9D1C"/>
<path d="M15.2095 3H15.2106C15.8517 4.44123 16.4935 5.88211 17.1353 7.32299C16.7284 8.22911 16.3275 9.13805 15.9216 10.0447C15.2785 8.60698 14.6401 7.16734 13.9993 5.72857L13.9965 5.72223C14.403 4.81576 14.8061 3.9077 15.2095 3Z" fill="#9E9FA3"/>
<path d="M15.2106 3H19.0578C20.303 5.79161 21.5451 8.58462 22.7891 11.3768C21.5064 11.378 20.2234 11.3769 18.9407 11.3773C18.3383 10.026 17.7368 8.67442 17.1353 7.32299C16.4935 5.88211 15.8517 4.44123 15.2106 3Z" fill="#636466"/>
<path d="M20.8864 13.7336C21.1343 13.5978 21.4273 13.5721 21.7043 13.6014C21.961 13.6285 22.2155 13.7257 22.4063 13.9028C22.6275 14.1044 22.753 14.393 22.7951 14.6859C22.5231 14.686 22.251 14.6862 21.979 14.6857C21.9439 14.5529 21.8753 14.4129 21.7413 14.3571C21.5743 14.2902 21.3585 14.2918 21.2211 14.4207C21.1276 14.5077 21.1033 14.6397 21.0887 14.7607C21.0614 15.0188 21.0653 15.2789 21.0692 15.5379C21.0769 15.711 21.0776 15.8888 21.1327 16.0551C21.1745 16.1847 21.2991 16.2732 21.4321 16.2886C21.589 16.3072 21.7691 16.2769 21.8776 16.1519C21.9742 16.0387 21.9925 15.8822 21.9932 15.7387C21.8307 15.7337 21.668 15.7381 21.5055 15.7365C21.5053 15.5101 21.5051 15.2837 21.5057 15.0572C21.9369 15.0572 22.3681 15.057 22.7995 15.0574C22.7928 15.4472 22.8303 15.8478 22.7148 16.2262C22.6317 16.5085 22.4192 16.7402 22.1628 16.8777C21.9976 16.9663 21.8105 17.0029 21.6252 17.0161H21.4108C21.2313 17.0034 21.0519 16.9621 20.8927 16.8763C20.651 16.7462 20.4428 16.5368 20.353 16.2734C20.2303 15.9246 20.2581 15.5487 20.2537 15.1854C20.2541 14.8994 20.2557 14.6054 20.3534 14.3328C20.4432 14.0722 20.6489 13.8655 20.8864 13.7336Z" fill="#636466"/>
<path d="M2 13.6561C2.31096 13.6658 2.62263 13.6575 2.93394 13.6604C3.13872 13.6642 3.3472 13.6443 3.54811 13.6947C3.76153 13.7443 3.96384 13.8662 4.08288 14.0534C4.20332 14.2404 4.23853 14.4746 4.20314 14.6918C4.16018 14.947 3.97793 15.1745 3.73423 15.2645C3.90415 15.33 4.0577 15.4453 4.15102 15.6036C4.28625 15.8278 4.29382 16.1091 4.22638 16.3567C4.16546 16.5812 3.99924 16.7719 3.786 16.8643C3.62946 16.9353 3.45585 16.9623 3.28487 16.9619C2.85664 16.9615 2.42823 16.9619 2 16.9617V13.6561ZM2.3541 13.9771C2.35304 14.3582 2.35393 14.739 2.35375 15.1201C2.64675 15.1206 2.93993 15.1203 3.2331 15.1203C3.41376 15.118 3.60675 15.0664 3.73124 14.9278C3.8515 14.7949 3.8802 14.6026 3.85344 14.4304C3.83478 14.3071 3.77244 14.1888 3.67278 14.1122C3.54882 14.015 3.3877 13.9796 3.2331 13.9773C2.9401 13.9769 2.6471 13.9775 2.3541 13.9771ZM2.35393 15.4372C2.3534 15.8397 2.35357 16.2422 2.35375 16.6448C2.62315 16.6449 2.89238 16.6448 3.16179 16.6449C3.27431 16.6467 3.38876 16.646 3.4974 16.6122C3.65905 16.5669 3.80326 16.4511 3.86594 16.2931C3.95469 16.0679 3.92528 15.78 3.74409 15.6078C3.60393 15.4737 3.40179 15.4316 3.21356 15.437C2.9269 15.4374 2.64041 15.4372 2.35393 15.4372Z" fill="#636466"/>
<path d="M5.70283 13.6604C5.80232 13.6605 5.9018 13.6595 6.00147 13.6609C6.40434 14.7607 6.80651 15.8609 7.21115 16.96C7.0849 16.9633 6.95847 16.9623 6.83222 16.9607C6.74524 16.7119 6.65843 16.4631 6.56792 16.2157C6.08845 16.2174 5.60898 16.2158 5.12951 16.2164C5.04111 16.4647 4.95343 16.7131 4.86574 16.9616C4.73984 16.9623 4.61394 16.9614 4.48822 16.9619C4.89232 15.8612 5.29784 14.7609 5.70283 13.6604ZM5.85144 14.184C5.64631 14.7586 5.44135 15.3332 5.23709 15.9081C5.64701 15.9082 6.05676 15.9086 6.4665 15.9079C6.26524 15.3335 6.06362 14.7593 5.86166 14.1851C5.85919 14.1849 5.85409 14.1844 5.85144 14.184Z" fill="#636466"/>
<path d="M7.5568 13.6605C7.66843 13.6598 7.78007 13.6604 7.89188 13.6604C8.47524 14.538 9.0579 15.4161 9.64143 16.2937C9.64284 15.4157 9.64108 14.538 9.64249 13.66C9.75994 13.66 9.87756 13.6611 9.99518 13.6595C9.99958 14.7602 9.99589 15.861 9.99694 16.9617C9.88495 16.9617 9.77314 16.9617 9.66115 16.9617C9.07709 16.0813 8.49514 15.1995 7.9109 14.3191C7.90984 15.2 7.91055 16.0808 7.91055 16.9615C7.79275 16.9621 7.67477 16.9615 7.55698 16.9617C7.55662 15.8614 7.55698 14.7611 7.5568 13.6605Z" fill="#636466"/>
<path d="M10.7636 13.6621C10.8816 13.6579 10.9997 13.6614 11.1181 13.6604C11.1184 14.2911 11.1174 14.9218 11.1186 15.5527C11.6326 14.9227 12.1425 14.2893 12.657 13.6599C12.8011 13.6609 12.9449 13.6599 13.0889 13.6604C12.7431 14.0861 12.3957 14.5103 12.0504 14.9364C12.4457 15.6117 12.8417 16.2865 13.2367 16.9617C13.0965 16.9614 12.9565 16.9624 12.8165 16.9612C12.4827 16.3761 12.1469 15.792 11.8127 15.2071C11.59 15.4714 11.3704 15.7385 11.148 16.0031C11.135 16.0213 11.113 16.0384 11.1181 16.0639C11.1181 16.3632 11.1179 16.6624 11.1181 16.9617C11.0003 16.9619 10.8825 16.9617 10.7645 16.9617C10.7638 15.8619 10.7657 14.7619 10.7636 13.6621Z" fill="#636466"/>
<path d="M13.7857 16.9615C13.7875 15.8612 13.7825 14.7605 13.7882 13.6603C14.0539 13.6642 14.3198 13.6598 14.5856 13.6626C14.8306 14.147 15.0783 14.6302 15.324 15.1144C15.5728 14.6311 15.8173 14.1456 16.0649 13.6617C16.3313 13.6619 16.5977 13.6616 16.8643 13.6619C16.8642 14.7619 16.8643 15.8617 16.8642 16.9617C16.5933 16.9619 16.3223 16.9617 16.0515 16.9617C16.0505 16.4132 16.0526 15.8647 16.0505 15.316C15.8975 15.5835 15.7448 15.8512 15.5911 16.1183C15.5379 16.2097 15.4356 16.2708 15.3292 16.2697C15.2217 16.2736 15.1155 16.2148 15.0609 16.1223C14.9054 15.8552 14.755 15.5851 14.5989 15.3185C14.5985 15.8663 14.5989 16.4141 14.5985 16.9617C14.3275 16.9615 14.0567 16.9621 13.7857 16.9615Z" fill="#636466"/>
<path d="M17.5422 13.6619C18.2906 13.6616 19.0389 13.6618 19.7871 13.6619C19.788 13.9021 19.7857 14.1425 19.7883 14.3827C19.3108 14.3886 18.8329 14.383 18.3552 14.3855C18.355 14.5688 18.3549 14.7519 18.3552 14.9352C18.7632 14.9357 19.171 14.9352 19.579 14.9355C19.5788 15.1771 19.5788 15.4185 19.579 15.6601C19.171 15.6608 18.763 15.6596 18.3552 15.6607C18.355 15.8531 18.3549 16.0457 18.3552 16.2382C18.8326 16.2387 19.3098 16.2382 19.7871 16.2384C19.7873 16.4796 19.7873 16.7207 19.7871 16.9617C19.0388 16.9617 18.2906 16.9619 17.5424 16.9617C17.5421 15.8617 17.5421 14.7619 17.5422 13.6619Z" fill="#636466"/>
<path d="M24.1673 13.662C24.3769 13.6625 24.5866 13.66 24.7963 13.6632C25.077 14.442 25.3619 15.2192 25.6441 15.9974C25.7642 16.3184 25.873 16.6439 26 16.9623C25.7195 16.9611 25.439 16.9625 25.1587 16.9616C25.1046 16.7978 25.0513 16.6341 24.9965 16.4705C24.6523 16.4708 24.3078 16.4687 23.9636 16.4715C23.9117 16.6355 23.8565 16.7984 23.8028 16.9618C23.5243 16.9619 23.2457 16.9618 22.9673 16.9618C23.3667 15.8616 23.7671 14.7618 24.1673 13.662ZM24.4795 14.8607C24.38 15.1768 24.279 15.4924 24.1793 15.8082C24.3802 15.8088 24.5813 15.8084 24.7826 15.8084C24.6813 15.4925 24.5847 15.1752 24.4795 14.8607Z" fill="#636466"/>
<path d="M13.9993 5.72858C14.6401 7.16734 15.2785 8.60699 15.9216 10.0447C15.7494 10.4231 15.4602 10.7464 15.1058 10.9635C14.5807 11.2896 13.91 11.3636 13.3249 11.1665C12.7748 10.9855 12.3086 10.5671 12.0705 10.0391C12.1455 9.90436 12.1981 9.75892 12.2637 9.61946C12.5737 8.925 12.8817 8.22947 13.1921 7.53518C13.4619 6.93333 13.7244 6.32814 13.9993 5.72858Z" fill="#F37022"/>
</svg>
