<svg width="58" height="40" viewBox="0 0 58 40" fill="none" xmlns="http://www.w3.org/2000/svg">
<path fill-rule="evenodd" clip-rule="evenodd" d="M23.729 14.1848C23.5317 15.0104 23.3344 15.9242 23.1319 16.7497C20.946 17.1391 18.6459 18.2243 16.2939 19.5586C18.1423 17.2222 20.9616 15.6801 23.729 14.1848ZM15.3645 20.1713C12.9605 22.8037 11.4341 26.1942 10.3904 30C9.25857 29.2627 8.13188 28.5254 7 27.7829C9.00935 24.7611 11.6469 22.1287 15.3645 20.1661V20.1713Z" fill="#ED1C24"/>
<path fill-rule="evenodd" clip-rule="evenodd" d="M23.1734 10C23.6459 10.2648 24.1236 10.5296 24.5961 10.7944C22.6957 11.8588 20.811 13.0945 19.0353 15.1246C19.783 13.4372 21.2212 11.729 23.1786 10H23.1734ZM16.7871 10.7165C17.1402 10.7632 17.4933 10.8048 17.8463 10.8463C17.2181 11.9315 16.6885 13.0841 16.3769 14.3821C16.1589 13.271 16.4393 12.0042 16.7871 10.7165ZM17.1869 13.3749C17.4154 13.3853 17.6438 13.4008 17.8671 13.4112C17.3479 14.2731 16.9221 15.1817 16.5691 16.1215C16.6469 15.2596 16.8442 14.351 17.1869 13.3749ZM17.6438 14.865C17.9969 15.0779 18.3499 15.2856 18.703 15.4984C17.7632 16.5992 16.8858 17.7466 16.1589 18.9772C16.4652 17.6428 17.0467 16.2513 17.6438 14.865ZM15.1724 15.2233C15.5151 15.1558 15.8577 15.0935 16.1952 15.026C15.9097 16.298 15.8058 17.5701 15.8525 18.8422C15.3749 17.7674 15.2399 16.5109 15.1672 15.2233H15.1724ZM14.7882 16.3188C14.892 17.2118 15.0426 18.1049 15.3126 18.9979C14.8764 18.3956 14.4974 17.6376 14.1443 16.8069C14.3572 16.6459 14.5753 16.4849 14.7882 16.3188ZM12.7684 17.7051C13.0436 17.6116 13.3136 17.5182 13.5888 17.4247C14.0145 18.0114 14.4299 18.6137 14.8349 19.2368C14.1963 18.6812 13.4953 18.1828 12.7684 17.6999V17.7051ZM11.3146 15.6854C11.5275 15.5711 11.7404 15.4569 11.9533 15.3427C12.4621 15.8255 12.9346 16.4174 13.3655 17.1288C12.7165 16.5888 12.0363 16.1059 11.3146 15.6854ZM7.88785 17.9491C8.13188 17.6791 8.37072 17.4039 8.61475 17.134C9.54414 17.4403 10.4476 17.783 11.3302 18.1516C10.1931 18.0374 9.0405 17.9699 7.88266 17.9491H7.88785ZM11.107 19.2835C11.377 18.9823 11.6469 18.6812 11.9221 18.3749C12.9034 18.7331 13.8536 19.1537 14.7778 19.6521C13.5524 19.46 12.3323 19.3562 11.107 19.2835ZM9.3676 20.3063C9.49221 20.026 9.61683 19.7456 9.73624 19.4652C10.6968 19.4548 11.6106 19.595 12.4621 19.9221C11.4289 19.9533 10.4008 20.0986 9.3676 20.3115V20.3063ZM7.45691 21.5732C7.51402 21.298 7.5971 21.028 7.71132 20.758C8.4486 20.6594 9.18588 20.6179 9.92316 20.7009C9.01454 20.919 8.21496 21.2305 7.4621 21.568L7.45691 21.5732ZM9.22223 22.9232C9.48702 22.2638 9.7622 21.5992 10.027 20.9398C11.7352 20.2752 13.3915 20.0363 15.0218 20.0363C12.945 20.7269 11.0447 21.7497 9.22223 22.9232ZM8.49014 24.8598V23.8577C9.27934 23.3229 10.053 22.9855 10.8162 22.7518C9.89201 23.3333 9.12877 24.0498 8.49014 24.8598Z" fill="#FED860"/>
<path fill-rule="evenodd" clip-rule="evenodd" d="M35.8369 24.7508V23.6501L35.3593 23.8422C35.1152 23.9408 34.9439 24.0395 34.8452 24.1433C34.7414 24.2472 34.6947 24.3718 34.6947 24.5223C34.6947 24.6729 34.7414 24.8027 34.8401 24.8962C34.9335 24.9948 35.0581 25.0415 35.2139 25.0415C35.4423 25.0415 35.65 24.9481 35.8421 24.756L35.8369 24.7508ZM36.5379 23.2503V24.8287C36.5379 24.9585 36.5794 25.0208 36.6625 25.0208C36.7144 25.0208 36.7871 24.9948 36.8806 24.9429C37.2025 24.7767 36.9532 25.3479 36.6781 25.4881C36.5846 25.5348 36.4756 25.5452 36.3717 25.5452C36.0654 25.5452 35.8837 25.4206 35.8317 25.1713C35.5254 25.4154 35.2035 25.5348 34.8608 25.5348C34.6116 25.5348 34.4039 25.4517 34.2326 25.2804C34.0664 25.109 33.9782 24.891 33.9782 24.6366C33.9782 24.4029 34.0612 24.19 34.2222 24.0083C34.3883 23.8214 34.6168 23.676 34.9179 23.5722L35.8317 23.2503V23.053C35.8317 22.6064 35.6137 22.3832 35.1827 22.3832C34.7933 22.3832 34.4143 22.5909 34.0457 23.001V22.1963C34.326 21.8588 34.7206 21.6926 35.2398 21.6926C35.6293 21.6926 35.9408 21.7965 36.1796 22.0094C36.2575 22.0769 36.3302 22.1651 36.3925 22.2793C36.4548 22.3884 36.4963 22.5026 36.5119 22.6116C36.5327 22.7259 36.5379 22.9336 36.5379 23.2503ZM44.2897 21.7653V22.2378C44.6064 21.8744 44.9647 21.6926 45.3696 21.6926C45.5929 21.6926 45.8006 21.7498 45.9927 21.8692C46.1848 21.9886 46.3302 22.1547 46.4288 22.3624C46.5327 22.5701 46.5794 22.9024 46.5794 23.3541V25.4777C46.0706 25.5504 45.9823 25.2752 45.8733 25.0156V23.3593C45.8733 22.9803 45.8162 22.7103 45.7071 22.5441C45.5981 22.378 45.406 22.3001 45.1464 22.3001C44.8141 22.3001 44.5285 22.4715 44.2949 22.8193V25.4725H43.5732V21.7549H44.2949L44.2897 21.7653ZM48.324 25.7529C48.0799 25.7529 47.8826 25.8048 47.7269 25.9086C47.5711 26.0125 47.4932 26.1475 47.4932 26.3084C47.4932 26.6874 47.8359 26.8796 48.5109 26.8796C48.8328 26.8796 49.0768 26.8328 49.2533 26.7342C49.4299 26.6407 49.5181 26.5057 49.5181 26.3344C49.5181 26.163 49.4091 26.0229 49.1858 25.9138C48.9626 25.8048 48.677 25.7529 48.324 25.7529ZM48.4953 22.5182C48.298 22.5182 48.1319 22.5857 47.9969 22.7207C47.8567 22.8557 47.7892 23.0166 47.7892 23.2035C47.7892 23.3905 47.8567 23.5514 47.9917 23.676C48.1267 23.8006 48.298 23.8629 48.5057 23.8629C48.7134 23.8629 48.8795 23.8006 49.0197 23.6708C49.1547 23.541 49.2222 23.3853 49.2222 23.1983C49.2222 23.0114 49.1547 22.8453 49.0145 22.7155C48.8743 22.5857 48.703 22.5234 48.4953 22.5234V22.5182ZM47.135 23.162C47.135 22.7674 47.2752 22.4559 47.5607 22.2274C47.8463 21.999 48.2357 21.8847 48.7289 21.8847H50.5669C50.4735 22.1132 50.3645 22.3365 50.0581 22.4559H49.4974C49.6428 22.6013 49.7414 22.7363 49.7933 22.8557C49.8504 22.9751 49.8764 23.1153 49.8764 23.2658C49.8764 23.458 49.8245 23.6449 49.7154 23.8318C49.6064 24.0187 49.4662 24.1589 49.2949 24.2627C49.1235 24.3614 48.8432 24.4393 48.4538 24.5016C48.1786 24.5431 48.0436 24.6366 48.0436 24.7871C48.0436 24.8702 48.0955 24.9429 48.1942 25C48.298 25.0571 48.4797 25.109 48.7497 25.1662C49.1962 25.2648 49.4818 25.3427 49.6116 25.3998C49.7414 25.4569 49.8556 25.54 49.9595 25.6386C50.136 25.8152 50.2243 26.0384 50.2243 26.3032C50.2243 26.6563 50.0685 26.9315 49.7622 27.1443C49.4558 27.352 49.0405 27.4559 48.5265 27.4559C48.0124 27.4559 47.5867 27.352 47.2752 27.1392C46.9636 26.9315 46.8079 26.6459 46.8079 26.2928C46.8079 25.7944 47.1142 25.4725 47.7269 25.3271C47.4828 25.1713 47.3582 25.0156 47.3582 24.8598C47.3582 24.7404 47.4101 24.6366 47.514 24.5379C47.6178 24.4393 47.758 24.3718 47.9397 24.325C47.3998 24.081 47.135 23.6916 47.135 23.1568V23.162ZM40.4475 23.323H42.2752C42.2596 23.0322 42.1713 22.8037 42.0207 22.648C41.8702 22.487 41.6625 22.4091 41.4029 22.4091C41.1433 22.4091 40.9304 22.487 40.7694 22.648C40.6033 22.8037 40.4943 23.0322 40.4475 23.323ZM42.9917 23.7591H40.432C40.4527 24.1122 40.5669 24.3925 40.785 24.6002C40.9979 24.8131 41.2783 24.9169 41.6158 24.9169C42.0882 24.9169 42.5296 24.7664 42.9294 24.4652V25.1817C42.7061 25.3323 42.488 25.4413 42.27 25.5036C42.0519 25.5659 41.7975 25.5971 41.5015 25.5971C41.1017 25.5971 40.7746 25.514 40.5306 25.3427C40.2814 25.1713 40.0841 24.9481 39.9335 24.6625C39.7829 24.377 39.7103 24.0447 39.7103 23.6708C39.7103 23.1049 39.866 22.648 40.1827 22.2949C40.4995 21.9419 40.9044 21.7653 41.4081 21.7653C41.9117 21.7653 42.2752 21.9367 42.5607 22.2793C42.8515 22.622 42.9917 23.0841 42.9917 23.6604V23.7539V23.7591ZM36.9844 22.4091L38.272 21.0644V21.8276H39.4195C39.3676 22.0405 39.2741 22.2534 38.9003 22.487H38.272V24.2939C38.272 24.7196 38.4382 24.9273 38.7653 24.9273C39.0093 24.9273 39.2689 24.8391 39.5441 24.6625V25.3427C39.2793 25.4985 38.9937 25.5815 38.6822 25.5815C38.3707 25.5815 38.1111 25.4829 37.9034 25.2856C37.8411 25.2285 37.784 25.161 37.7424 25.0883C37.7009 25.0156 37.6646 24.9169 37.6334 24.7975C37.6075 24.6781 37.5919 24.4548 37.5919 24.1174V22.4818H36.9896V22.4091H36.9844ZM33.5057 19.891V25.4621C33.5057 25.9813 33.4538 26.3655 33.3499 26.6148C33.2461 26.864 33.0747 27.0613 32.8411 27.2118C32.6075 27.3624 32.3271 27.4351 32 27.4351C31.9481 27.4351 31.865 27.4247 31.7404 27.4091L31.595 26.6563H31.7975C32.0259 26.6563 32.2025 26.6303 32.3219 26.5732C32.4413 26.5161 32.54 26.4175 32.6075 26.2773C32.6801 26.1371 32.7113 25.8307 32.7113 25.3686V20.784C32.7321 20.2544 33.054 20.0052 33.5109 19.8858L33.5057 19.891ZM27.7632 19.8339V25.4777H27.0415V20.5244C27.0882 20.2596 27.3323 20.0312 27.7632 19.8391V19.8339ZM29.3935 21.7601H30.2087L28.703 23.5566C29.2949 24.19 29.9024 24.8442 30.4943 25.4777C30.0789 25.5556 29.596 25.4465 29.1132 25.026L27.7944 23.5826L29.3935 21.7601ZM24.1184 21.7601V22.2326C24.4351 21.8692 24.7933 21.6874 25.1983 21.6874C25.4216 21.6874 25.6293 21.7446 25.8214 21.864C26.0135 21.9834 26.1589 22.1495 26.2575 22.3572C26.3562 22.5649 26.4081 22.8972 26.4081 23.3489V25.4725C25.8992 25.5452 25.811 25.27 25.7019 25.0104V23.3541C25.7019 22.9751 25.6448 22.7051 25.5358 22.5389C25.4268 22.3728 25.2398 22.2949 24.9751 22.2949C24.6428 22.2949 24.3572 22.4663 24.1235 22.8141V25.4673H23.4018V21.7497H24.1235L24.1184 21.7601ZM21.7819 24.7404V23.6397L21.3042 23.8318C21.0654 23.9304 20.8889 24.0291 20.7902 24.1329C20.6864 24.2368 20.6396 24.3614 20.6396 24.512C20.6396 24.6625 20.6864 24.7923 20.785 24.8858C20.8837 24.9844 21.0031 25.0312 21.1537 25.0312C21.3821 25.0312 21.5898 24.9377 21.7819 24.7456V24.7404ZM22.4828 23.2399V24.8183C22.4828 24.9481 22.5244 25.0104 22.6075 25.0104C22.6646 25.0104 22.7321 24.9844 22.8255 24.9325C23.1474 24.7664 22.8982 25.3375 22.623 25.4777C22.5296 25.5244 22.4205 25.5348 22.3167 25.5348C22.0104 25.5348 21.8286 25.4102 21.7767 25.161C21.4756 25.405 21.1537 25.5244 20.811 25.5244C20.5618 25.5244 20.3489 25.4413 20.1827 25.27C20.0166 25.0987 19.9335 24.8806 19.9335 24.6262C19.9335 24.3925 20.0166 24.1797 20.1775 23.9979C20.3437 23.811 20.5721 23.6656 20.8733 23.5618L21.7871 23.2399V23.0426C21.7871 22.5961 21.569 22.3728 21.1381 22.3728C20.7487 22.3728 20.3697 22.5805 20.001 22.9907V22.1859C20.2762 21.8484 20.676 21.6823 21.1952 21.6823C21.5846 21.6823 21.8961 21.7861 22.1298 21.999C22.2077 22.0665 22.2803 22.1547 22.3427 22.269C22.405 22.378 22.4465 22.4922 22.4621 22.6013C22.4776 22.7155 22.488 22.9232 22.488 23.2399H22.4828ZM17.3634 22.9803H16.6469V24.756H17.405C17.8255 24.756 18.1111 24.7248 18.2565 24.6521C18.407 24.5846 18.5265 24.4756 18.6199 24.3302C18.7082 24.1848 18.7549 24.0343 18.7549 23.8681C18.7549 23.702 18.7082 23.541 18.6095 23.3956C18.5109 23.2555 18.3759 23.1516 18.1994 23.0789C18.0228 23.0114 17.7424 22.9751 17.3634 22.9751V22.9803ZM17.3063 20.5815H16.6469V22.269H17.1557C17.5659 22.269 17.8567 22.1859 18.028 22.0249C18.2045 21.8588 18.2876 21.6511 18.2876 21.3915C18.2876 20.8515 17.9605 20.5867 17.3063 20.5867V20.5815ZM17.6957 25.4725H15.8785V19.8702H17.2855C17.7269 19.8702 18.0747 19.9325 18.324 20.0519C18.5732 20.1765 18.7601 20.3479 18.8951 20.5659C19.0249 20.784 19.0924 21.0384 19.0924 21.324C19.0924 21.8744 18.8224 22.269 18.2772 22.5078C18.6666 22.5857 18.9782 22.757 19.2118 23.0166C19.4455 23.2762 19.5597 23.5826 19.5597 23.946C19.5597 24.2316 19.487 24.486 19.3468 24.7092C19.2066 24.9325 18.9989 25.1142 18.7289 25.2596C18.4538 25.3998 18.1163 25.4725 17.7061 25.4725H17.6957Z" fill="#2E3092"/>
</svg>
