<svg width="58" height="40" viewBox="0 0 58 40" fill="none" xmlns="http://www.w3.org/2000/svg">
<g clip-path="url(#clip0_301_4873)">
<path d="M14.4451 13.0283C13.8432 12.9047 13.2171 13.1944 12.9002 13.7429C12.8254 13.8728 12.7714 14.0125 12.7373 14.1563C12.5976 13.5969 12.158 13.1432 11.5996 13.0283C10.9977 12.9047 10.371 13.1944 10.0541 13.7429C9.97928 13.8728 9.92536 14.0125 9.89125 14.1563C9.75095 13.5974 9.31191 13.1432 8.75348 13.0283C8.15158 12.9047 7.52492 13.1944 7.20802 13.7429C6.89001 14.2937 6.94063 15.0158 7.33236 15.5119C7.72353 16.0075 8.3865 16.2001 8.96584 15.9822C9.42745 15.8086 9.77186 15.3981 9.8918 14.9129C9.94351 15.129 10.0387 15.3349 10.1784 15.5119C10.5696 16.0075 11.2326 16.2001 11.8119 15.9822C12.2735 15.8086 12.6179 15.3981 12.7379 14.9129C12.7896 15.129 12.8848 15.3349 13.0245 15.5119C13.4157 16.0075 14.0787 16.2001 14.658 15.9822C15.2351 15.7649 15.6307 15.1768 15.6307 14.5357C15.6302 13.8119 15.1257 13.1685 14.4451 13.0283Z" fill="#FDAF27"/>
<path d="M9.74894 20.4912C9.8986 21.1599 10.2799 21.7837 10.9472 21.9745C11.581 22.1557 12.2875 21.8619 12.6137 21.2622C12.8096 20.9023 12.7848 20.4953 12.7832 20.0968C12.7821 19.8284 12.7804 19.5604 12.781 19.2919C12.781 18.9964 12.781 18.7009 12.7826 18.406C12.7843 18.0277 12.7738 17.6603 12.9543 17.3171C13.2035 16.8422 13.6992 16.5501 14.217 16.5714C14.7396 16.5932 15.2161 16.9359 15.4241 17.4378C15.5621 17.7713 15.5385 18.1329 15.5396 18.4876C15.5407 18.7803 15.5407 19.0735 15.5407 19.3661C15.5407 19.9985 15.5787 20.658 15.4609 21.2806C15.1886 22.722 14.2329 23.9765 12.9378 24.5542C11.6427 25.1321 10.1088 24.9773 8.94128 24.1552C8.36579 23.7499 7.89153 23.1894 7.57903 22.5414C7.27038 21.9004 7.08332 21.0995 7.20161 20.382C7.29019 19.8473 7.69457 19.4104 8.20349 19.3011C8.73221 19.1879 9.28569 19.4432 9.56134 19.9278C9.66146 20.1032 9.70493 20.294 9.74894 20.4912Z" fill="#FDAF27"/>
<path d="M50.4716 20.3925C50.4716 22.3507 48.9361 23.9139 46.9972 23.9139C45.0716 23.9139 43.562 22.3639 43.562 20.3925C43.562 18.421 45.0716 16.8843 47.01 16.8843C48.9367 16.8843 50.4716 18.4343 50.4716 20.3925ZM45.3451 20.4057C45.3451 21.4664 46.0477 22.2276 47.0105 22.2276C47.9606 22.2276 48.6758 21.4526 48.6758 20.4057C48.6758 19.345 47.9601 18.5567 47.0105 18.5567C46.0477 18.5567 45.3451 19.3317 45.3451 20.4057Z" fill="#0C0E19"/>
<path d="M22.6794 21.7157C23.0062 21.9118 23.3204 22.1124 23.7122 22.0883C24.0873 22.0653 24.4301 21.8601 24.6436 21.5375C24.8423 21.238 24.8378 20.8959 24.8378 20.5492C24.8378 19.9639 24.8378 15.9561 24.8378 15.6646C24.8378 15.4629 24.8274 15.2634 24.9016 15.0708C25.1222 14.4998 25.8369 14.3159 26.2859 14.7154C26.5263 14.9293 26.5946 15.2231 26.5946 15.5364C26.5946 16.1671 26.6121 20.5331 26.5901 20.966C26.5505 21.7474 26.2106 22.504 25.6763 23.0496C25.1228 23.6153 24.3641 23.9263 23.5922 23.9258C22.8511 23.9252 22.0682 23.6279 21.583 23.0231C21.3882 22.7799 21.2749 22.4925 21.3513 22.174C21.4251 21.8669 21.6622 21.6215 21.9576 21.549C22.2261 21.4846 22.4517 21.5789 22.6794 21.7157Z" fill="#0C0E19"/>
<path d="M34.8524 22.28L34.8535 22.2795C34.5839 22.1087 34.4173 21.8052 34.4123 21.4757V17.8025C34.4123 17.2955 34.0189 16.8849 33.5337 16.8849C33.0891 16.8849 32.7233 17.2299 32.6643 17.6778C32.221 17.1782 31.5497 16.8849 30.7442 16.8849C28.9358 16.8849 27.6215 18.3671 27.6215 20.4064C27.6215 22.4462 28.9358 23.9278 30.7442 23.9278C30.7525 23.9278 30.7607 23.9272 30.769 23.9272C30.7773 23.9272 30.7856 23.9278 30.7938 23.9278C31.6614 23.9278 32.4141 23.5863 32.9631 23.0062C33.2437 23.4621 33.6965 23.7961 34.2379 23.8984C34.2907 23.9082 34.3436 23.9134 34.3953 23.9134C34.3985 23.9134 34.4018 23.9129 34.4046 23.9123C34.4084 23.9123 34.4129 23.9129 34.4167 23.9129C34.8821 23.9129 35.259 23.519 35.259 23.0326C35.2595 22.713 35.0961 22.4341 34.8524 22.28ZM31.0699 22.2553C30.094 22.2553 29.4045 21.4803 29.4045 20.4064C29.4045 19.3318 30.1071 18.5436 31.0699 18.5436C32.0328 18.5436 32.6963 19.3048 32.6963 20.4064C32.6963 21.5074 32.0454 22.2553 31.0699 22.2553Z" fill="#0C0E19"/>
<path d="M42.6041 17.8088C42.6041 17.2787 42.2399 16.8843 41.7453 16.8843C41.2898 16.8843 40.9255 17.2378 40.8864 17.7271C40.4442 17.197 39.7542 16.8843 38.9217 16.8843C37.1133 16.8843 35.799 18.3664 35.799 20.4057C35.799 22.445 37.1133 23.9271 38.9217 23.9271C39.7338 23.9271 40.4051 23.6333 40.8474 23.1124V23.3309C40.8413 24.4285 40.1893 25.1643 39.221 25.1643C38.8063 25.1643 38.4332 25.0264 38.1427 24.766C38.0344 24.6687 37.9386 24.5549 37.8577 24.4279C37.5893 24.0059 37.044 23.8914 36.6402 24.172C36.2363 24.4526 36.1269 25.0223 36.3953 25.4443C36.5654 25.7112 36.7684 25.9514 36.9989 26.1584C37.6124 26.7092 38.3809 27 39.2216 27C41.1599 27 42.5717 25.4846 42.603 23.3867L42.6046 22.9894C42.6046 22.9894 42.6046 22.9894 42.6046 22.9888V17.8088H42.6041ZM39.2475 22.2552C38.2715 22.2552 37.5821 21.4802 37.5821 20.4063C37.5821 19.3323 38.2847 18.5435 39.2475 18.5435C40.2103 18.5435 40.8738 19.3047 40.8738 20.4063C40.8738 21.5073 40.2229 22.2552 39.2475 22.2552Z" fill="#0C0E19"/>
</g>
<defs>
<clipPath id="clip0_301_4873">
<rect width="58" height="40" rx="6" fill="white"/>
</clipPath>
</defs>
</svg>
