<svg width="46" height="32" viewBox="0 0 46 32" fill="none" xmlns="http://www.w3.org/2000/svg">
<path fill-rule="evenodd" clip-rule="evenodd" d="M18.2196 11.5571C18.0519 12.2588 17.8842 13.0356 17.7121 13.7373C15.8541 14.0683 13.899 14.9907 11.8998 16.1249C13.4709 14.1389 15.8673 12.8282 18.2196 11.5571ZM11.1098 16.6457C9.06646 18.8832 7.76895 21.7651 6.88188 25C5.91978 24.3733 4.9621 23.7466 4 23.1155C5.70794 20.547 7.9499 18.3095 11.1098 16.6412V16.6457Z" fill="#ED1C24"/>
<path fill-rule="evenodd" clip-rule="evenodd" d="M17.7474 8C18.149 8.22508 18.555 8.45016 18.9566 8.67523C17.3414 9.57996 15.7394 10.6303 14.23 12.3559C14.8655 10.9216 16.088 9.46963 17.7518 8H17.7474ZM12.3191 8.60903C12.6192 8.64875 12.9193 8.68406 13.2194 8.71937C12.6854 9.64174 12.2352 10.6215 11.9704 11.7248C11.785 10.7804 12.0234 9.70353 12.3191 8.60903ZM12.6589 10.8686C12.8531 10.8775 13.0472 10.8907 13.237 10.8995C12.7957 11.6321 12.4338 12.4045 12.1337 13.2033C12.1999 12.4707 12.3676 11.6983 12.6589 10.8686ZM13.0472 12.1353C13.3473 12.3162 13.6475 12.4927 13.9476 12.6737C13.1487 13.6093 12.4029 14.5846 11.785 15.6306C12.0454 14.4964 12.5397 13.3136 13.0472 12.1353ZM10.9465 12.4398C11.2378 12.3824 11.5291 12.3294 11.8159 12.2721C11.5732 13.3533 11.4849 14.4346 11.5247 15.5158C11.1186 14.6023 11.0039 13.5343 10.9421 12.4398H10.9465ZM10.6199 13.371C10.7082 14.1301 10.8362 14.8891 11.0657 15.6482C10.695 15.1363 10.3728 14.492 10.0727 13.7858C10.2536 13.649 10.439 13.5122 10.6199 13.371ZM8.90316 14.5493C9.13707 14.4699 9.36656 14.3904 9.60046 14.311C9.96235 14.8097 10.3154 15.3216 10.6597 15.8512C10.1168 15.379 9.52102 14.9553 8.90316 14.5449V14.5493ZM7.66744 12.8326C7.84839 12.7355 8.02933 12.6384 8.21028 12.5413C8.64278 12.9517 9.04439 13.4548 9.41069 14.0594C8.85903 13.6005 8.28089 13.19 7.66744 12.8326ZM4.75467 14.7567C4.96209 14.5273 5.16511 14.2934 5.37253 14.0639C6.16251 14.3242 6.93042 14.6155 7.68068 14.9289C6.71417 14.8318 5.73442 14.7744 4.75026 14.7567H4.75467ZM7.49091 15.891C7.7204 15.635 7.94989 15.379 8.1838 15.1186C9.01791 15.4232 9.82554 15.7806 10.6111 16.2043C9.56957 16.041 8.53245 15.9528 7.49091 15.891ZM6.01246 16.7604C6.11838 16.5221 6.2243 16.2837 6.3258 16.0454C7.14226 16.0366 7.919 16.1558 8.64278 16.4338C7.76453 16.4603 6.8907 16.5839 6.01246 16.7648V16.7604ZM4.38837 17.8372C4.43691 17.6033 4.50753 17.3738 4.60462 17.1443C5.23131 17.0605 5.85799 17.0252 6.48468 17.0958C5.71235 17.2812 5.03271 17.5459 4.39278 17.8328L4.38837 17.8372ZM5.88889 18.9847C6.11396 18.4242 6.34787 17.8593 6.57295 17.2988C8.02492 16.7339 9.43276 16.5309 10.8185 16.5309C9.05322 17.1179 7.43795 17.9873 5.88889 18.9847ZM5.26661 20.6308V19.7791C5.93743 19.3245 6.59501 19.0376 7.24377 18.839C6.4582 19.3333 5.80945 19.9424 5.26661 20.6308Z" fill="#FED860"/>
<path fill-rule="evenodd" clip-rule="evenodd" d="M28.5114 20.5382V19.6025L28.1054 19.7658C27.898 19.8497 27.7523 19.9335 27.6685 20.0218C27.5802 20.1101 27.5405 20.216 27.5405 20.344C27.5405 20.472 27.5802 20.5823 27.6641 20.6617C27.7435 20.7456 27.8494 20.7853 27.9818 20.7853C28.176 20.7853 28.3525 20.7059 28.5158 20.5426L28.5114 20.5382ZM29.1072 19.2627V20.6044C29.1072 20.7147 29.1425 20.7676 29.2131 20.7676C29.2573 20.7676 29.319 20.7456 29.3985 20.7014C29.6721 20.5602 29.4603 21.0457 29.2264 21.1648C29.1469 21.2046 29.0543 21.2134 28.966 21.2134C28.7056 21.2134 28.5511 21.1075 28.507 20.8956C28.2466 21.1031 27.973 21.2046 27.6817 21.2046C27.4699 21.2046 27.2933 21.1339 27.1477 20.9883C27.0065 20.8427 26.9315 20.6573 26.9315 20.4411C26.9315 20.2425 27.0021 20.0615 27.1389 19.9071C27.2801 19.7482 27.4743 19.6246 27.7303 19.5363L28.507 19.2627V19.095C28.507 18.7155 28.3216 18.5257 27.9553 18.5257C27.6243 18.5257 27.3022 18.7022 26.9888 19.0509V18.3668C27.2271 18.0799 27.5626 17.9387 28.0039 17.9387C28.3349 17.9387 28.5997 18.027 28.8027 18.2079C28.8689 18.2653 28.9307 18.3403 28.9836 18.4374C29.0366 18.5301 29.0719 18.6272 29.0851 18.7199C29.1028 18.817 29.1072 18.9935 29.1072 19.2627ZM35.6963 18.0005V18.4021C35.9655 18.0932 36.27 17.9387 36.6142 17.9387C36.804 17.9387 36.9805 17.9873 37.1438 18.0888C37.3071 18.1903 37.4307 18.3315 37.5145 18.508C37.6028 18.6846 37.6425 18.967 37.6425 19.351V21.156C37.21 21.2178 37.135 20.9839 37.0423 20.7632V19.3554C37.0423 19.0332 36.9938 18.8037 36.9011 18.6625C36.8084 18.5213 36.6451 18.4551 36.4244 18.4551C36.142 18.4551 35.8993 18.6007 35.7007 18.8964V21.1516H35.0872V17.9917H35.7007L35.6963 18.0005ZM39.1254 21.3899C38.918 21.3899 38.7503 21.434 38.6179 21.5223C38.4855 21.6106 38.4193 21.7253 38.4193 21.8621C38.4193 22.1843 38.7105 22.3476 39.2843 22.3476C39.5579 22.3476 39.7653 22.3079 39.9154 22.224C40.0654 22.1446 40.1404 22.0298 40.1404 21.8842C40.1404 21.7386 40.0478 21.6194 39.858 21.5267C39.6682 21.4341 39.4255 21.3899 39.1254 21.3899ZM39.271 18.6404C39.1033 18.6404 38.9621 18.6978 38.8473 18.8126C38.7282 18.9273 38.6708 19.0641 38.6708 19.223C38.6708 19.3819 38.7282 19.5187 38.8429 19.6246C38.9577 19.7305 39.1033 19.7835 39.2798 19.7835C39.4564 19.7835 39.5976 19.7305 39.7168 19.6202C39.8315 19.5099 39.8889 19.3775 39.8889 19.2186C39.8889 19.0597 39.8315 18.9185 39.7124 18.8081C39.5932 18.6978 39.4476 18.6448 39.271 18.6448V18.6404ZM38.1147 19.1877C38.1147 18.8523 38.2339 18.5875 38.4766 18.3933C38.7194 18.1991 39.0504 18.102 39.4696 18.102H41.0319C40.9525 18.2962 40.8598 18.486 40.5994 18.5875H40.1228C40.2464 18.711 40.3302 18.8258 40.3743 18.9273C40.4229 19.0288 40.445 19.148 40.445 19.2759C40.445 19.4392 40.4008 19.5981 40.3081 19.757C40.2155 19.9159 40.0963 20.035 39.9507 20.1233C39.805 20.2072 39.5667 20.2734 39.2357 20.3263C39.0018 20.3616 38.8871 20.4411 38.8871 20.569C38.8871 20.6397 38.9312 20.7014 39.015 20.75C39.1033 20.7985 39.2578 20.8427 39.4873 20.8912C39.8668 20.9751 40.1095 21.0413 40.2199 21.0898C40.3302 21.1384 40.4273 21.209 40.5156 21.2928C40.6656 21.4429 40.7406 21.6326 40.7406 21.8577C40.7406 22.1578 40.6082 22.3917 40.3479 22.5727C40.0875 22.7492 39.7344 22.8375 39.2975 22.8375C38.8606 22.8375 38.4987 22.7492 38.2339 22.5683C37.9691 22.3917 37.8367 22.149 37.8367 21.8489C37.8367 21.4252 38.0971 21.1516 38.6179 21.028C38.4104 20.8956 38.3045 20.7632 38.3045 20.6308C38.3045 20.5293 38.3486 20.4411 38.4369 20.3572C38.5252 20.2734 38.6443 20.216 38.7988 20.1763C38.3398 19.9688 38.1147 19.6378 38.1147 19.1833V19.1877ZM32.4304 19.3245H33.9839C33.9707 19.0774 33.8956 18.8832 33.7676 18.7508C33.6397 18.614 33.4631 18.5478 33.2425 18.5478C33.0218 18.5478 32.8409 18.614 32.704 18.7508C32.5628 18.8832 32.4701 19.0774 32.4304 19.3245ZM34.5929 19.6952H32.4172C32.4348 19.9953 32.5319 20.2336 32.7173 20.4102C32.8982 20.5911 33.1365 20.6794 33.4234 20.6794C33.825 20.6794 34.2001 20.5514 34.54 20.2954V20.9045C34.3502 21.0324 34.1648 21.1251 33.9795 21.1781C33.7941 21.231 33.5779 21.2575 33.3263 21.2575C32.9865 21.2575 32.7085 21.1869 32.501 21.0413C32.2892 20.8956 32.1215 20.7059 31.9935 20.4631C31.8655 20.2204 31.8037 19.9379 31.8037 19.6202C31.8037 19.1391 31.9361 18.7508 32.2053 18.4507C32.4746 18.1506 32.8188 18.0005 33.2469 18.0005C33.675 18.0005 33.9839 18.1461 34.2266 18.4374C34.4738 18.7287 34.5929 19.1215 34.5929 19.6114V19.6908V19.6952ZM29.4868 18.5478L30.5812 17.4047V18.0535H31.5566C31.5125 18.2344 31.433 18.4154 31.1153 18.614H30.5812V20.1498C30.5812 20.5117 30.7225 20.6882 31.0005 20.6882C31.2079 20.6882 31.4286 20.6132 31.6625 20.4631V21.0413C31.4374 21.1737 31.1947 21.2443 30.9299 21.2443C30.6651 21.2443 30.4444 21.1604 30.2679 20.9927C30.2149 20.9442 30.1664 20.8868 30.1311 20.825C30.0958 20.7632 30.0649 20.6794 30.0384 20.5779C30.0163 20.4764 30.0031 20.2866 30.0031 19.9997V18.6095H29.4912V18.5478H29.4868ZM26.5298 16.4073V21.1428C26.5298 21.5841 26.4857 21.9107 26.3974 22.1225C26.3092 22.3344 26.1635 22.5021 25.9649 22.6301C25.7663 22.758 25.528 22.8198 25.25 22.8198C25.2059 22.8198 25.1352 22.811 25.0293 22.7978L24.9058 22.1578H25.0779C25.2721 22.1578 25.4221 22.1358 25.5236 22.0872C25.6251 22.0387 25.709 21.9548 25.7663 21.8357C25.8281 21.7165 25.8546 21.4561 25.8546 21.0633V17.1664C25.8723 16.7162 26.1459 16.5044 26.5343 16.4029L26.5298 16.4073ZM21.6487 16.3588V21.156H21.0353V16.9457C21.075 16.7207 21.2824 16.5265 21.6487 16.3632V16.3588ZM23.0345 17.9961H23.7274L22.4476 19.5231C22.9507 20.0615 23.467 20.6176 23.9701 21.156C23.6171 21.2222 23.2066 21.1295 22.7962 20.7721L21.6752 19.5452L23.0345 17.9961ZM18.5506 17.9961V18.3977C18.8198 18.0888 19.1243 17.9343 19.4686 17.9343C19.6584 17.9343 19.8349 17.9829 19.9982 18.0844C20.1615 18.1859 20.285 18.3271 20.3689 18.5036C20.4527 18.6802 20.4969 18.9626 20.4969 19.3466V21.1516C20.0644 21.2134 19.9894 20.9795 19.8967 20.7588V19.351C19.8967 19.0288 19.8481 18.7993 19.7554 18.6581C19.6628 18.5169 19.5039 18.4507 19.2788 18.4507C18.9964 18.4507 18.7536 18.5963 18.555 18.892V21.1472H17.9416V17.9873H18.555L18.5506 17.9961ZM16.5646 20.5293V19.5937L16.1586 19.757C15.9556 19.8409 15.8055 19.9247 15.7217 20.013C15.6334 20.1012 15.5937 20.2072 15.5937 20.3351C15.5937 20.4631 15.6334 20.5735 15.7173 20.6529C15.8011 20.7367 15.9026 20.7765 16.0306 20.7765C16.2248 20.7765 16.4013 20.697 16.5646 20.5337V20.5293ZM17.1604 19.2539V20.5955C17.1604 20.7059 17.1957 20.7588 17.2663 20.7588C17.3149 20.7588 17.3723 20.7367 17.4517 20.6926C17.7253 20.5514 17.5135 21.0369 17.2796 21.156C17.2001 21.1957 17.1075 21.2046 17.0192 21.2046C16.7588 21.2046 16.6044 21.0986 16.5602 20.8868C16.3043 21.0942 16.0306 21.1957 15.7393 21.1957C15.5275 21.1957 15.3466 21.1251 15.2053 20.9795C15.0641 20.8338 14.9935 20.6485 14.9935 20.4322C14.9935 20.2336 15.0641 20.0527 15.2009 19.8982C15.3422 19.7393 15.5363 19.6158 15.7923 19.5275L16.569 19.2539V19.0862C16.569 18.7066 16.3837 18.5169 16.0174 18.5169C15.6864 18.5169 15.3642 18.6934 15.0509 19.042V18.358C15.2848 18.0711 15.6246 17.9299 16.0659 17.9299C16.3969 17.9299 16.6617 18.0182 16.8603 18.1991C16.9265 18.2565 16.9883 18.3315 17.0413 18.4286C17.0942 18.5213 17.1295 18.6184 17.1428 18.711C17.156 18.8081 17.1648 18.9847 17.1648 19.2539H17.1604ZM12.8089 19.0332H12.1999V20.5426H12.8442C13.2017 20.5426 13.4444 20.5161 13.568 20.4543C13.696 20.3969 13.7975 20.3042 13.8769 20.1807C13.952 20.0571 13.9917 19.9291 13.9917 19.7879C13.9917 19.6467 13.952 19.5099 13.8681 19.3863C13.7843 19.2671 13.6695 19.1789 13.5195 19.1171C13.3694 19.0597 13.1311 19.0288 12.8089 19.0288V19.0332ZM12.7604 16.9943H12.1999V18.4286H12.6324C12.981 18.4286 13.2282 18.358 13.3738 18.2212C13.5239 18.0799 13.5945 17.9034 13.5945 17.6828C13.5945 17.2238 13.3165 16.9987 12.7604 16.9987V16.9943ZM13.0914 21.1516H11.5467V16.3897H12.7427C13.1179 16.3897 13.4135 16.4426 13.6254 16.5441C13.8372 16.65 13.9961 16.7957 14.1108 16.981C14.2212 17.1664 14.2786 17.3826 14.2786 17.6254C14.2786 18.0932 14.0491 18.4286 13.5857 18.6316C13.9167 18.6978 14.1815 18.8434 14.3801 19.0641C14.5787 19.2848 14.6757 19.5452 14.6757 19.8541C14.6757 20.0968 14.614 20.3131 14.4948 20.5028C14.3756 20.6926 14.1991 20.8471 13.9696 20.9707C13.7357 21.0898 13.4489 21.1516 13.1002 21.1516H13.0914Z" fill="#2E3092"/>
</svg>
