<svg width="28" height="20" viewBox="0 0 28 20" fill="none" xmlns="http://www.w3.org/2000/svg">
<path d="M4.79532 5.0182C4.40764 4.93859 4.00437 5.12522 3.80025 5.47849C3.75206 5.56218 3.71733 5.65216 3.69536 5.74474C3.60535 5.38443 3.32221 5.09226 2.96253 5.0182C2.57486 4.93859 2.17124 5.12522 1.96712 5.47849C1.91893 5.56218 1.8842 5.65216 1.86222 5.74474C1.77186 5.3848 1.48908 5.09226 1.1294 5.0182C0.741719 4.93859 0.338096 5.12522 0.133981 5.47849C-0.0708421 5.83325 -0.0382406 6.29835 0.214068 6.61792C0.466022 6.93712 0.893031 7.06117 1.26618 6.92083C1.5635 6.809 1.78533 6.5446 1.86258 6.23206C1.89589 6.37129 1.9572 6.50386 2.0472 6.61792C2.29916 6.93712 2.72617 7.06117 3.09931 6.92083C3.39663 6.809 3.61846 6.5446 3.69572 6.23206C3.72903 6.37129 3.79033 6.50386 3.88034 6.61792C4.13229 6.93712 4.5593 7.06117 4.93245 6.92083C5.30418 6.78085 5.55897 6.40203 5.55897 5.98914C5.55862 5.52293 5.23366 5.10856 4.79532 5.0182Z" fill="#FDAF27"/>
<path d="M1.77069 9.82499C1.86708 10.2557 2.11266 10.6574 2.5425 10.7804C2.95073 10.897 3.40574 10.7078 3.61588 10.3216C3.74203 10.0898 3.72608 9.82758 3.72502 9.57097C3.72431 9.39804 3.72325 9.22547 3.7236 9.05254C3.7236 8.8622 3.7236 8.67186 3.72467 8.4819C3.72573 8.23824 3.719 8.00161 3.83523 7.78054C3.99576 7.47468 4.31504 7.28656 4.6485 7.30026C4.98515 7.31433 5.29203 7.53503 5.42598 7.85831C5.51493 8.07308 5.49969 8.30601 5.5004 8.53449C5.50111 8.72297 5.50111 8.91182 5.50111 9.10031C5.50111 9.50764 5.52556 9.93238 5.44973 10.3334C5.27432 11.2618 4.65878 12.0698 3.8246 12.4419C2.99042 12.8141 2.00245 12.7144 1.25049 12.1849C0.879818 11.9239 0.574354 11.5628 0.373074 11.1455C0.174274 10.7326 0.0537901 10.2168 0.129979 9.75464C0.187032 9.41025 0.447491 9.12882 0.77528 9.05846C1.11582 8.98552 1.47232 9.14993 1.64986 9.46209C1.71435 9.57504 1.74234 9.69798 1.77069 9.82499Z" fill="#FDAF27"/>
<path d="M28 9.76136C28 11.0226 27.011 12.0295 25.7622 12.0295C24.5219 12.0295 23.5496 11.0311 23.5496 9.76136C23.5496 8.49159 24.5219 7.50177 25.7704 7.50177C27.0113 7.50177 28 8.50011 28 9.76136ZM24.698 9.76988C24.698 10.4531 25.1506 10.9434 25.7707 10.9434C26.3827 10.9434 26.8433 10.4442 26.8433 9.76988C26.8433 9.08667 26.3824 8.57898 25.7707 8.57898C25.1506 8.57898 24.698 9.07815 24.698 9.76988Z" fill="#0C0E19"/>
<path d="M10.0992 10.6137C10.3097 10.7399 10.512 10.8692 10.7644 10.8536C11.006 10.8388 11.2268 10.7066 11.3643 10.4989C11.4922 10.306 11.4893 10.0856 11.4893 9.86233C11.4893 9.48536 11.4893 6.90396 11.4893 6.71622C11.4893 6.58625 11.4827 6.45775 11.5305 6.33369C11.6726 5.96598 12.1329 5.84749 12.4221 6.10485C12.5769 6.24261 12.6209 6.43183 12.6209 6.63364C12.6209 7.03987 12.6322 9.85196 12.618 10.1308C12.5925 10.634 12.3735 11.1214 12.0294 11.4728C11.673 11.8372 11.1842 12.0375 10.6871 12.0372C10.2097 12.0368 9.70548 11.8453 9.39296 11.4557C9.26751 11.2991 9.19453 11.114 9.24377 10.9088C9.29125 10.7111 9.44397 10.5529 9.63427 10.5063C9.80718 10.4648 9.9525 10.5255 10.0992 10.6137Z" fill="#0C0E19"/>
<path d="M17.9392 10.9771L17.9399 10.9768C17.7663 10.8668 17.6589 10.6713 17.6557 10.4591V8.09321C17.6557 7.7666 17.4023 7.5022 17.0898 7.5022C16.8035 7.5022 16.5679 7.72438 16.5299 8.01285C16.2443 7.69106 15.812 7.5022 15.2932 7.5022C14.1284 7.5022 13.2818 8.45684 13.2818 9.77031C13.2818 11.0842 14.1284 12.0384 15.2932 12.0384C15.2985 12.0384 15.3038 12.0381 15.3091 12.0381C15.3145 12.0381 15.3198 12.0384 15.3251 12.0384C15.8839 12.0384 16.3687 11.8185 16.7223 11.4448C16.9031 11.7385 17.1947 11.9536 17.5434 12.0195C17.5774 12.0258 17.6115 12.0292 17.6448 12.0292C17.6469 12.0292 17.649 12.0288 17.6507 12.0284C17.6532 12.0284 17.6561 12.0288 17.6585 12.0288C17.9583 12.0288 18.2011 11.7751 18.2011 11.4619C18.2014 11.256 18.0962 11.0764 17.9392 10.9771ZM15.5029 10.9612C14.8743 10.9612 14.4303 10.462 14.4303 9.77031C14.4303 9.07821 14.8828 8.57053 15.5029 8.57053C16.1231 8.57053 16.5505 9.06081 16.5505 9.77031C16.5505 10.4794 16.1313 10.9612 15.5029 10.9612Z" fill="#0C0E19"/>
<path d="M22.9326 8.09722C22.9326 7.7558 22.6979 7.50177 22.3794 7.50177C22.086 7.50177 21.8514 7.7295 21.8262 8.04464C21.5414 7.70321 21.097 7.50177 20.5608 7.50177C19.396 7.50177 18.5494 8.45641 18.5494 9.76988C18.5494 11.0834 19.396 12.038 20.5608 12.038C21.0838 12.038 21.5162 11.8488 21.8011 11.5133V11.654C21.7972 12.3609 21.3772 12.8349 20.7536 12.8349C20.4864 12.8349 20.2461 12.746 20.059 12.5783C19.9892 12.5157 19.9275 12.4424 19.8755 12.3605C19.7025 12.0887 19.3513 12.015 19.0913 12.1957C18.8311 12.3765 18.7606 12.7434 18.9336 13.0152C19.0431 13.1871 19.1738 13.3418 19.3223 13.4751C19.7174 13.8299 20.2124 14.0172 20.7539 14.0172C22.0023 14.0172 22.9117 13.0412 22.9318 11.6899L22.9329 11.434C22.9329 11.434 22.9329 11.434 22.9329 11.4337V8.09722H22.9326ZM20.7706 10.9612C20.1419 10.9612 19.6979 10.462 19.6979 9.77025C19.6979 9.07853 20.1505 8.57047 20.7706 8.57047C21.3907 8.57047 21.8181 9.06075 21.8181 9.77025C21.8181 10.4794 21.3989 10.9612 20.7706 10.9612Z" fill="#0C0E19"/>
</svg>
