<svg width="46" height="32" viewBox="0 0 46 32" fill="none" xmlns="http://www.w3.org/2000/svg">
<path d="M11.8497 11.0222C11.3768 10.9251 10.8849 11.1528 10.6359 11.5837C10.5771 11.6858 10.5347 11.7956 10.5079 11.9085C10.3981 11.469 10.0527 11.1126 9.61394 11.0222C9.14102 10.9251 8.64865 11.1528 8.39965 11.5837C8.34086 11.6858 8.2985 11.7956 8.27169 11.9085C8.16146 11.4694 7.8165 11.1126 7.37773 11.0222C6.90481 10.9251 6.41244 11.1528 6.16344 11.5837C5.91358 12.0165 5.95335 12.5838 6.26114 12.9737C6.56849 13.3631 7.08939 13.5144 7.54459 13.3432C7.90728 13.2068 8.17789 12.8842 8.27213 12.503C8.31276 12.6728 8.38755 12.8345 8.49734 12.9737C8.8047 13.3631 9.3256 13.5144 9.7808 13.3432C10.1435 13.2068 10.4141 12.8842 10.5083 12.503C10.549 12.6728 10.6238 12.8345 10.7336 12.9737C11.0409 13.3631 11.5618 13.5144 12.017 13.3432C12.4705 13.1724 12.7813 12.7103 12.7813 12.2066C12.7809 11.6379 12.3844 11.1324 11.8497 11.0222Z" fill="#FDAF27"/>
<path d="M8.16003 16.8859C8.27762 17.4113 8.57719 17.9014 9.10155 18.0514C9.59954 18.1937 10.1546 17.9628 10.4109 17.4917C10.5648 17.2089 10.5454 16.8891 10.5441 16.576C10.5432 16.3651 10.5419 16.1546 10.5424 15.9436C10.5424 15.7114 10.5424 15.4792 10.5437 15.2475C10.5449 14.9503 10.5367 14.6616 10.6785 14.3919C10.8743 14.0188 11.2638 13.7893 11.6706 13.806C12.0813 13.8232 12.4557 14.0924 12.6191 14.4868C12.7276 14.7488 12.709 15.0329 12.7098 15.3116C12.7107 15.5416 12.7107 15.7719 12.7107 16.0019C12.7107 16.4988 12.7405 17.0169 12.648 17.5061C12.434 18.6386 11.6832 19.6243 10.6656 20.0782C9.64796 20.5323 8.44275 20.4107 7.52545 19.7648C7.07327 19.4463 6.70064 19.0059 6.45511 18.4968C6.21259 17.9931 6.06562 17.3638 6.15856 16.8001C6.22816 16.38 6.54589 16.0367 6.94575 15.9508C7.36117 15.8618 7.79605 16.0624 8.01263 16.4432C8.0913 16.581 8.12545 16.731 8.16003 16.8859Z" fill="#FDAF27"/>
<path d="M40.1567 16.8083C40.1567 18.3469 38.9501 19.5752 37.4268 19.5752C35.9138 19.5752 34.7277 18.3573 34.7277 16.8083C34.7277 15.2593 35.9138 14.0519 37.4368 14.0519C38.9506 14.0519 40.1567 15.2697 40.1567 16.8083ZM36.1287 16.8187C36.1287 17.6521 36.6807 18.2502 37.4372 18.2502C38.1837 18.2502 38.7457 17.6413 38.7457 16.8187C38.7457 15.9853 38.1833 15.366 37.4372 15.366C36.6807 15.366 36.1287 15.9749 36.1287 16.8187Z" fill="#0C0E19"/>
<path d="M18.3198 17.848C18.5766 18.0021 18.8234 18.1597 19.1312 18.1407C19.426 18.1227 19.6954 17.9614 19.8631 17.708C20.0192 17.4726 20.0156 17.2039 20.0156 16.9315C20.0156 16.4716 20.0156 13.3226 20.0156 13.0936C20.0156 12.935 20.0075 12.7783 20.0658 12.6269C20.2391 12.1784 20.8007 12.0338 21.1535 12.3478C21.3423 12.5158 21.396 12.7467 21.396 12.9928C21.396 13.4884 21.4097 16.9188 21.3925 17.259C21.3614 17.8729 21.0943 18.4673 20.6745 18.896C20.2396 19.3405 19.6434 19.5849 19.037 19.5845C18.4547 19.584 17.8395 19.3504 17.4583 18.8752C17.3053 18.6842 17.2162 18.4583 17.2763 18.208C17.3342 17.9668 17.5205 17.7739 17.7527 17.717C17.9636 17.6664 18.1409 17.7405 18.3198 17.848Z" fill="#0C0E19"/>
<path d="M27.8837 18.2914L27.8846 18.2909C27.6728 18.1568 27.5418 17.9183 27.5379 17.6594V14.7733C27.5379 14.3749 27.2288 14.0524 26.8475 14.0524C26.4982 14.0524 26.2108 14.3234 26.1645 14.6753C25.8161 14.2828 25.2887 14.0524 24.6558 14.0524C23.2349 14.0524 22.2022 15.2169 22.2022 16.8192C22.2022 18.4219 23.2349 19.586 24.6558 19.586C24.6623 19.586 24.6688 19.5856 24.6753 19.5856C24.6818 19.5856 24.6883 19.586 24.6948 19.586C25.3765 19.586 25.9679 19.3177 26.3993 18.8619C26.6197 19.2201 26.9755 19.4826 27.4009 19.563C27.4424 19.5706 27.4839 19.5747 27.5245 19.5747C27.5271 19.5747 27.5296 19.5743 27.5318 19.5738C27.5348 19.5738 27.5384 19.5743 27.5413 19.5743C27.907 19.5743 28.2032 19.2648 28.2032 18.8827C28.2036 18.6315 28.0752 18.4124 27.8837 18.2914ZM24.9117 18.272C24.1449 18.272 23.6032 17.663 23.6032 16.8192C23.6032 15.9749 24.1552 15.3556 24.9117 15.3556C25.6683 15.3556 26.1896 15.9537 26.1896 16.8192C26.1896 17.6843 25.6782 18.272 24.9117 18.272Z" fill="#0C0E19"/>
<path d="M33.975 14.7783C33.975 14.3618 33.6888 14.0519 33.3002 14.0519C32.9423 14.0519 32.6561 14.3297 32.6254 14.7141C32.2779 14.2976 31.7358 14.0519 31.0817 14.0519C29.6608 14.0519 28.6281 15.2164 28.6281 16.8187C28.6281 18.421 29.6608 19.5855 31.0817 19.5855C31.7198 19.5855 32.2472 19.3547 32.5947 18.9454V19.1171C32.5899 19.9795 32.0777 20.5576 31.3169 20.5576C30.991 20.5576 30.6979 20.4493 30.4696 20.2446C30.3845 20.1682 30.3092 20.0788 30.2457 19.979C30.0348 19.6474 29.6063 19.5575 29.2891 19.778C28.9717 19.9984 28.8857 20.4461 29.0967 20.7776C29.2303 20.9873 29.3898 21.1761 29.5709 21.3387C30.0529 21.7714 30.6568 22 31.3173 22C32.8402 22 33.9495 20.8093 33.9741 19.1609L33.9754 18.8488C33.9754 18.8488 33.9754 18.8488 33.9754 18.8483V14.7783H33.975ZM31.3377 18.2719C30.5708 18.2719 30.0292 17.663 30.0292 16.8192C30.0292 15.9753 30.5812 15.3556 31.3377 15.3556C32.0942 15.3556 32.6155 15.9536 32.6155 16.8192C32.6155 17.6842 32.1041 18.2719 31.3377 18.2719Z" fill="#0C0E19"/>
</svg>
