<svg width="34" height="24" viewBox="0 0 34 24" fill="none" xmlns="http://www.w3.org/2000/svg">
<path fill-rule="evenodd" clip-rule="evenodd" d="M24.0004 12.4997C24.0004 8.35756 20.6419 5 16.5006 5C12.3579 5 9 8.35756 9 12.4997C9 16.6414 12.3579 20 16.5006 20C20.6419 20 24.0004 16.6414 24.0004 12.4997ZM14.63 18.6282C15.225 18.6282 15.6689 18.5699 15.7009 17.7608H17.1653C17.1973 18.5699 17.6469 18.5962 18.2269 18.5962V19.0066H14.63V18.6282ZM18.4292 11.8459C19.2133 12.0942 21.0535 12.9334 21.0535 14.6694C21.0535 16.3817 19.4395 17.4016 17.5237 17.4016H11.9469L11.9526 16.9573C12.9643 16.9573 13.2639 16.8241 13.2639 15.791V9.2568C13.2639 8.1068 12.81 8.03483 11.9506 8.03483V7.62147C12.1116 7.61773 14.1376 7.6204 15.7009 7.62147C15.6689 6.81144 15.225 6.75262 14.63 6.75262V6.37498H18.2269V6.78514C17.6469 6.78514 17.1973 6.81144 17.1653 7.62147H17.5237C18.3327 7.62147 20.3192 7.89994 20.3229 9.53545C20.3258 10.6831 19.5506 11.4132 18.4292 11.8459ZM19.5109 14.9442C19.5109 13.5859 18.5783 12.6817 17.4438 12.1338C16.7037 12.2947 15.8351 12.3888 15.0226 12.3958L15.2268 11.8891C15.4112 11.8831 15.5509 11.8717 15.7009 11.8628V8.46526H17.1653V11.6431C18.3924 11.281 18.9062 10.5527 18.9062 9.70713C18.9062 8.62342 18.0844 8.10592 17.1615 8.10592L14.7311 8.10681V15.821C14.7311 16.6376 15.2221 16.8088 15.7009 16.8173V12.8049C16.2499 12.7857 16.8397 12.7077 17.1653 12.632V16.8173C18.3355 16.8162 19.5109 16.1033 19.5109 14.9442Z" fill="#004F91"/>
</svg>
