<svg width="34" height="24" viewBox="0 0 34 24" fill="none" xmlns="http://www.w3.org/2000/svg">
<path d="M10.348 8.19157C10.348 8.19157 10.0603 7.52855 9.90642 7.46955C9.75252 7.41054 9.42162 9.50301 9.58707 9.95313C9.58707 9.95313 10.4447 10.6277 10.5859 11.2141L11.098 10.5632L11.4399 9.34121L10.3474 8.19157H10.348Z" fill="url(#paint0_linear_301_1125)" stroke="#A3822E" stroke-width="0.075" stroke-miterlimit="10"/>
<path d="M10.5257 10.4397C10.5257 10.4397 10.0494 9.44582 10.0153 8.14594" stroke="#A3822E" stroke-width="0.025" stroke-miterlimit="10"/>
<path d="M22.6711 8.19157C22.6711 8.19157 22.9588 7.52855 23.1127 7.46955C23.2666 7.41054 23.5975 9.50301 23.432 9.95313C23.432 9.95313 22.5744 10.6277 22.4332 11.2141L21.9211 10.5632L21.5792 9.34121L22.6717 8.19157H22.6711Z" fill="url(#paint1_linear_301_1125)" stroke="#A3822E" stroke-width="0.075" stroke-miterlimit="10"/>
<path d="M22.4935 10.4397C22.4935 10.4397 22.9697 9.44582 23.0038 8.14594" stroke="#A3822E" stroke-width="0.025" stroke-miterlimit="10"/>
<path d="M12.0488 6.57781C12.0488 6.57781 11.6802 5.84241 11.4977 5.84241C11.3152 5.84241 10.8821 7.10823 11.0816 7.72988C11.2811 8.35154 11.5615 8.42271 11.4922 8.80592C11.4235 9.18914 12.6035 8.14047 12.6151 8.0547C12.6266 7.96894 12.5469 7.05105 12.5469 7.05105L12.0488 6.57781Z" fill="url(#paint2_linear_301_1125)" stroke="#A3822E" stroke-width="0.075" stroke-miterlimit="10"/>
<path d="M12.9715 5.0498C12.9715 5.0498 11.6984 5.35394 12.1424 7.97561C12.5865 10.5973 13.5214 7.60395 13.5214 7.60395C13.5214 7.60395 14.8955 6.50906 14.4052 6.24689C13.915 5.98472 12.9715 5.0498 12.9715 5.0498Z" fill="url(#paint3_linear_301_1125)" stroke="#A3822E" stroke-width="0.075" stroke-miterlimit="10"/>
<path d="M12.1425 7.97564C12.1425 7.97564 12.5689 5.89351 13.5841 5.78828C14.5993 5.68305 14.7702 6.88196 14.7702 6.88196L12.6163 7.70131L12.1431 7.97564H12.1425Z" fill="url(#paint4_linear_301_1125)" stroke="#A3822E" stroke-width="0.075" stroke-miterlimit="10"/>
<path d="M11.2325 17.2476L10.5257 17.4799C10.5257 17.4799 11.0841 18.0499 11.5634 17.9301C12.0427 17.8102 12.6412 17.1636 12.6412 17.1636C12.6412 17.1636 12.6972 16.7531 12.6327 16.7324C12.5683 16.7117 11.2641 17.0231 11.2641 17.0231L11.2331 17.2476H11.2325Z" fill="url(#paint5_linear_301_1125)" stroke="#A3822E" stroke-width="0.075" stroke-miterlimit="10"/>
<path d="M10.4338 15.652L9.52747 15.6697C9.52747 15.6697 10.2367 16.8747 11.0926 17.1691C11.0926 17.1691 11.4612 17.4817 12.1534 17.2141C12.8456 16.9464 12.9995 16.4872 12.9995 16.4872L11.7513 15.3126C11.7513 15.3126 10.9843 15.399 10.9277 15.4069C10.8711 15.4148 10.4344 15.652 10.4344 15.652H10.4338Z" fill="url(#paint6_linear_301_1125)" stroke="#A3822E" stroke-width="0.075" stroke-miterlimit="10"/>
<path d="M11.2915 15.7907C11.2915 15.7907 10.1345 15.8862 9.5962 14.9452C9.05726 14.0042 9.14303 13.6368 9.14303 13.6368C9.14303 13.6368 9.10045 13.4574 9.77807 13.9337L11.3584 14.0474C11.3584 14.0474 11.4381 14.5036 11.4411 14.6989C11.4441 14.8941 11.564 15.5012 11.564 15.5614C11.564 15.6216 11.2927 15.7913 11.2927 15.7913L11.2915 15.7907Z" fill="url(#paint7_linear_301_1125)" stroke="#A3822E" stroke-width="0.075" stroke-miterlimit="10"/>
<path d="M12.404 16.91C12.404 16.91 11.6564 16.5444 11.2288 15.6721C10.8012 14.7999 10.9265 14.5353 10.9265 14.5353L11.463 14.4294C11.463 14.4294 11.7763 14.7652 11.9046 15.0821C12.033 15.3984 12.5725 16.0913 12.7008 16.2026C12.8286 16.3139 12.8371 16.6715 12.8371 16.6715L12.404 16.91Z" fill="url(#paint8_linear_301_1125)" stroke="#A3822E" stroke-width="0.075" stroke-miterlimit="10"/>
<path d="M9.66251 11.9939C9.66251 11.9939 9.19414 11.6867 9.00618 11.6867C9.00618 11.6867 8.9271 12.4908 9.33465 13.2688C9.74159 14.0468 10.1941 14.4531 11.0628 14.5541C11.0628 14.5541 11.7519 13.3035 11.3243 12.9099C10.8967 12.5164 9.66312 11.9945 9.66312 11.9945L9.66251 11.9939Z" fill="url(#paint9_linear_301_1125)" stroke="#A3822E" stroke-width="0.075" stroke-miterlimit="10"/>
<path d="M10.5865 11.2141C10.5865 11.2141 10.6023 10.5857 9.39366 9.7536C9.39366 9.7536 8.73247 11.6009 10.2434 12.5018L10.5603 12.7177L10.9277 11.888L10.5871 11.2147L10.5865 11.2141Z" fill="url(#paint10_linear_301_1125)" stroke="#A3822E" stroke-width="0.075" stroke-miterlimit="10"/>
<path d="M11.5488 8.77855C11.5488 8.77855 11.5378 7.621 10.5256 7.18182C10.5256 7.18182 9.84924 8.52185 11.1382 9.42818C11.1382 9.42818 11.595 9.11918 11.5488 8.77855Z" fill="url(#paint11_linear_301_1125)" stroke="#A3822E" stroke-width="0.075" stroke-miterlimit="10"/>
<path d="M11.9557 16.8157C11.8979 16.8303 11.435 16.7512 10.7714 16.4057C10.5615 16.2968 10.3322 16.1612 10.0889 15.9939" stroke="#A3822E" stroke-width="0.025" stroke-miterlimit="10"/>
<path d="M10.8018 15.3126C10.8018 15.3126 9.9125 14.7482 9.52747 14.0468" stroke="#A3822E" stroke-width="0.025" stroke-miterlimit="10"/>
<path d="M10.491 13.722C10.491 13.722 9.57736 13.1569 9.13757 12.0711" stroke="#A3822E" stroke-width="0.025" stroke-miterlimit="10"/>
<path d="M10.348 11.8874C10.348 11.8874 9.70691 11.3272 9.52747 10.1636" stroke="#A3822E" stroke-width="0.025" stroke-miterlimit="10"/>
<path d="M11.0299 8.90872L10.6309 7.46954" stroke="#A3822E" stroke-width="0.025" stroke-miterlimit="10"/>
<path d="M20.9703 6.57781C20.9703 6.57781 21.339 5.84241 21.5214 5.84241C21.7039 5.84241 22.137 7.10823 21.9375 7.72988C21.738 8.35154 21.4576 8.42271 21.5269 8.80592C21.5957 9.18914 20.4156 8.14047 20.404 8.0547C20.3925 7.96894 20.4722 7.05105 20.4722 7.05105L20.9703 6.57781Z" fill="url(#paint12_linear_301_1125)" stroke="#A3822E" stroke-width="0.075" stroke-miterlimit="10"/>
<path d="M20.0476 5.0498C20.0476 5.0498 21.3207 5.35394 20.8767 7.97561C20.4326 10.5973 19.4977 7.60395 19.4977 7.60395C19.4977 7.60395 18.1236 6.50906 18.6139 6.24689C19.1042 5.98472 20.0476 5.0498 20.0476 5.0498Z" fill="url(#paint13_linear_301_1125)" stroke="#A3822E" stroke-width="0.075" stroke-miterlimit="10"/>
<path d="M20.8767 7.97564C20.8767 7.97564 20.4503 5.89351 19.4351 5.78828C18.4199 5.68305 18.2489 6.88196 18.2489 6.88196L20.4028 7.70131L20.8761 7.97564H20.8767Z" fill="url(#paint14_linear_301_1125)" stroke="#A3822E" stroke-width="0.075" stroke-miterlimit="10"/>
<path d="M21.7866 17.2476L22.4935 17.4799C22.4935 17.4799 21.9351 18.0499 21.4557 17.9301C20.977 17.8096 20.3779 17.1636 20.3779 17.1636C20.3779 17.1636 20.3219 16.7531 20.3864 16.7324C20.4509 16.7117 21.755 17.0231 21.755 17.0231L21.786 17.2476H21.7866Z" fill="url(#paint15_linear_301_1125)" stroke="#A3822E" stroke-width="0.075" stroke-miterlimit="10"/>
<path d="M22.5853 15.652L23.4917 15.6697C23.4917 15.6697 22.7824 16.8747 21.9266 17.1691C21.9266 17.1691 21.5579 17.4817 20.8657 17.2141C20.1735 16.9464 20.0196 16.4872 20.0196 16.4872L21.2678 15.3126C21.2678 15.3126 22.0348 15.399 22.0914 15.4069C22.148 15.4148 22.5847 15.652 22.5847 15.652H22.5853Z" fill="url(#paint16_linear_301_1125)" stroke="#A3822E" stroke-width="0.075" stroke-miterlimit="10"/>
<path d="M21.7276 15.7907C21.7276 15.7907 22.8846 15.8862 23.4229 14.9452C23.9618 14.0042 23.8761 13.6368 23.8761 13.6368C23.8761 13.6368 23.9187 13.4574 23.241 13.9337L21.6607 14.0474C21.6607 14.0474 21.5811 14.5036 21.578 14.6989C21.575 14.8941 21.4551 15.5012 21.4551 15.5614C21.4551 15.6216 21.7264 15.7913 21.7264 15.7913L21.7276 15.7907Z" fill="url(#paint17_linear_301_1125)" stroke="#A3822E" stroke-width="0.075" stroke-miterlimit="10"/>
<path d="M20.6145 16.91C20.6145 16.91 21.3621 16.5444 21.7897 15.6721C22.2173 14.7999 22.092 14.5353 22.092 14.5353L21.5555 14.4294C21.5555 14.4294 21.2422 14.7652 21.1139 15.0821C20.9855 15.3984 20.446 16.0913 20.3177 16.2026C20.1893 16.3139 20.1814 16.6715 20.1814 16.6715L20.6145 16.91Z" fill="url(#paint18_linear_301_1125)" stroke="#A3822E" stroke-width="0.075" stroke-miterlimit="10"/>
<path d="M23.3566 11.9939C23.3566 11.9939 23.825 11.6867 24.0129 11.6867C24.0129 11.6867 24.092 12.4908 23.6845 13.2688C23.2775 14.0468 22.825 14.4531 21.9563 14.5541C21.9563 14.5541 21.2672 13.3035 21.6948 12.9099C22.1224 12.5164 23.356 11.9945 23.356 11.9945L23.3566 11.9939Z" fill="url(#paint19_linear_301_1125)" stroke="#A3822E" stroke-width="0.075" stroke-miterlimit="10"/>
<path d="M22.4326 11.2141C22.4326 11.2141 22.4168 10.5857 23.6255 9.7536C23.6255 9.7536 24.2867 11.6009 22.7757 12.5018L22.4588 12.7177L22.0914 11.888L22.432 11.2147L22.4326 11.2141Z" fill="url(#paint20_linear_301_1125)" stroke="#A3822E" stroke-width="0.075" stroke-miterlimit="10"/>
<path d="M21.4704 8.77855C21.4704 8.77855 21.4813 7.621 22.4935 7.18182C22.4935 7.18182 23.1699 8.52185 21.8809 9.42818C21.8809 9.42818 21.4241 9.11918 21.4704 8.77855Z" fill="url(#paint21_linear_301_1125)" stroke="#A3822E" stroke-width="0.075" stroke-miterlimit="10"/>
<path d="M12.7976 16.5176C12.7386 16.4908 11.429 18.225 11.429 18.225C11.429 18.225 13.0397 20 16.6589 20C20.2781 20 21.5665 18.0651 21.5665 18.0651L20.1638 16.3637C20.1638 16.3637 17.7349 18.7713 12.797 16.5176H12.7976Z" fill="url(#paint22_linear_301_1125)" stroke="#A3822E" stroke-width="0.075" stroke-miterlimit="10"/>
<path d="M12.7805 18.0888L12.7939 18.0979C12.7915 18.1618 12.7988 18.2159 12.8158 18.2603C12.8335 18.3047 12.8651 18.3424 12.9119 18.374C12.946 18.3972 12.9825 18.4093 13.0214 18.4105C13.0603 18.4118 13.0974 18.4032 13.1327 18.385C13.168 18.3668 13.1972 18.3406 13.2197 18.3065C13.2556 18.253 13.2659 18.2025 13.2495 18.1557C13.2331 18.1088 13.2002 18.0498 13.151 17.9781C13.1017 17.9063 13.0701 17.8424 13.0567 17.7871C13.0433 17.7317 13.0585 17.6709 13.1029 17.6052C13.1564 17.5255 13.2252 17.4823 13.3085 17.4762C13.3918 17.4702 13.4752 17.4951 13.5585 17.5511C13.592 17.5736 13.6224 17.6015 13.6491 17.6344C13.6759 17.6672 13.6936 17.7019 13.7015 17.7372C13.6844 17.7475 13.6491 17.7755 13.595 17.8199L13.5822 17.8114C13.5926 17.7676 13.5908 17.7262 13.5762 17.6873C13.5616 17.6484 13.5354 17.6161 13.4977 17.5906C13.4679 17.5705 13.4363 17.5584 13.4028 17.5541C13.3693 17.5498 13.3377 17.5541 13.3073 17.5681C13.2769 17.5815 13.2519 17.6028 13.2325 17.632C13.1966 17.6849 13.1869 17.7341 13.2027 17.781C13.2185 17.8278 13.2513 17.8874 13.3018 17.961C13.3523 18.0346 13.3846 18.0985 13.3985 18.1526C13.4125 18.2068 13.3985 18.2646 13.3578 18.326C13.3274 18.3716 13.2915 18.4069 13.2501 18.4324C13.2094 18.458 13.165 18.4738 13.1181 18.4793C13.0713 18.4848 13.0238 18.4817 12.9764 18.4689C12.929 18.4562 12.8827 18.4349 12.8383 18.4051C12.8036 18.382 12.7696 18.3491 12.7361 18.3059C12.7027 18.2633 12.6832 18.2238 12.6777 18.1873C12.7069 18.166 12.741 18.1332 12.7799 18.0888H12.7805Z" fill="#0C0E19"/>
<path d="M14.106 18.5316L13.9466 18.857C13.9375 18.8753 13.9314 18.8893 13.9283 18.8984C13.9253 18.9075 13.9247 18.9167 13.9283 18.9246C13.9314 18.9331 13.9387 18.9398 13.9502 18.9458C13.9606 18.9507 13.9752 18.9556 13.9946 18.9598L13.9794 18.9909C13.96 18.9909 13.9436 18.9878 13.9296 18.9842C13.9131 18.9793 13.8973 18.9738 13.8827 18.9665C13.8554 18.9519 13.8359 18.9337 13.8249 18.9124C13.814 18.8911 13.814 18.8637 13.8249 18.8321L13.8061 18.8388C13.7185 18.8692 13.6345 18.8643 13.5549 18.8254C13.5038 18.8005 13.4673 18.7628 13.4466 18.7129C13.4253 18.663 13.4271 18.6125 13.4521 18.5626C13.4764 18.5134 13.5068 18.4805 13.5439 18.4647C13.581 18.4489 13.6193 18.444 13.6589 18.4501C13.6984 18.4562 13.7495 18.469 13.8109 18.4878C13.8584 18.5018 13.8931 18.5109 13.9144 18.5146C13.9356 18.5182 13.9539 18.517 13.9679 18.5103C13.9819 18.5036 13.9946 18.489 14.0056 18.4665C14.0311 18.4142 14.0366 18.3668 14.022 18.3236C14.0074 18.281 13.974 18.2469 13.9223 18.2214C13.8918 18.2062 13.8614 18.1983 13.8322 18.1977C13.8024 18.1971 13.7769 18.2001 13.7556 18.208C13.7343 18.2159 13.7179 18.225 13.7075 18.236L13.6917 18.2281L13.73 18.1502C13.8304 18.1356 13.9186 18.1466 13.994 18.1837C14.0682 18.2202 14.1157 18.2676 14.1346 18.3254C14.154 18.3838 14.1443 18.4519 14.106 18.5304V18.5316ZM13.8474 18.7755L13.9478 18.5705L13.8937 18.5566C13.8602 18.5468 13.8286 18.5383 13.8 18.5316C13.7708 18.5243 13.7428 18.5207 13.7148 18.5194C13.6875 18.5182 13.6607 18.5237 13.6364 18.5359C13.6114 18.548 13.592 18.5693 13.5774 18.5991C13.5561 18.6429 13.5518 18.6819 13.5646 18.7159C13.578 18.75 13.606 18.7774 13.6504 18.7986C13.668 18.8072 13.6899 18.8114 13.7173 18.8108C13.7446 18.8108 13.7684 18.8072 13.7891 18.7999C13.7957 18.7974 13.803 18.795 13.8109 18.7932C13.8189 18.7907 13.8268 18.7877 13.8347 18.784C13.8426 18.7804 13.8468 18.7774 13.8481 18.7749L13.8474 18.7755Z" fill="#0C0E19"/>
<path d="M14.2301 19.1338L14.4302 18.4136C14.4424 18.4178 14.4539 18.4221 14.4636 18.4257C14.4734 18.4294 14.4819 18.4324 14.4892 18.4343C14.4959 18.4361 14.5044 18.4379 14.5147 18.4397C14.5251 18.4416 14.5366 18.444 14.5506 18.4464L14.5147 18.576C14.5403 18.551 14.5664 18.5316 14.5926 18.517C14.6194 18.5024 14.6479 18.4939 14.679 18.4902C14.71 18.4872 14.7422 18.4902 14.7757 18.4993C14.8262 18.5133 14.8681 18.5395 14.901 18.5772C14.9344 18.6155 14.9521 18.6593 14.9539 18.7098C15.0409 18.6271 15.1334 18.5991 15.2319 18.6265C15.3207 18.6514 15.3767 18.6928 15.3998 18.7518C15.4229 18.8108 15.4205 18.8892 15.3937 18.9872L15.2726 19.4227C15.2629 19.4191 15.255 19.416 15.2483 19.4136C15.2416 19.4111 15.2368 19.4093 15.2319 19.4075C15.227 19.4057 15.2216 19.4038 15.213 19.4014C15.2039 19.399 15.1978 19.3972 15.1948 19.3965C15.1917 19.3959 15.1863 19.3947 15.1778 19.3935C15.1692 19.3917 15.1601 19.3905 15.151 19.3892L15.2623 18.9884C15.2763 18.9373 15.2842 18.8929 15.286 18.8546C15.2879 18.8163 15.2799 18.7828 15.2611 18.7542C15.2428 18.7256 15.21 18.7043 15.1638 18.6916C15.0956 18.6727 15.0433 18.683 15.0068 18.7226C14.9703 18.7627 14.9424 18.8175 14.9229 18.8874L14.8097 19.2944C14.8 19.2907 14.7921 19.2877 14.786 19.2852C14.7799 19.2828 14.7745 19.281 14.7702 19.2791C14.766 19.2773 14.7599 19.2755 14.7507 19.2731C14.7416 19.2706 14.7343 19.2688 14.7301 19.2682C14.7258 19.2676 14.7197 19.2664 14.713 19.2652C14.7063 19.2639 14.6984 19.2621 14.6893 19.2609L14.8116 18.8193C14.8316 18.7475 14.8335 18.6916 14.817 18.6502C14.8012 18.6088 14.7653 18.5808 14.71 18.5656C14.6601 18.5517 14.62 18.551 14.5883 18.5626C14.5567 18.5742 14.5324 18.5942 14.5141 18.6228C14.4965 18.6508 14.4813 18.6861 14.4697 18.7274L14.3481 19.166C14.3383 19.1624 14.3304 19.1593 14.3243 19.1569C14.3177 19.1545 14.3128 19.1526 14.3085 19.1508C14.3043 19.149 14.2982 19.1472 14.2891 19.1447C14.2818 19.1429 14.2726 19.1405 14.2611 19.1386C14.2495 19.1362 14.2386 19.1344 14.2276 19.1326L14.2301 19.1338Z" fill="#0C0E19"/>
<path d="M15.7538 19.3345L15.7142 19.8704C15.7039 19.8686 15.696 19.8673 15.6893 19.8661C15.6826 19.8649 15.6771 19.8643 15.6729 19.8631C15.6686 19.8625 15.6619 19.8613 15.6528 19.8607C15.6431 19.86 15.6358 19.8594 15.6315 19.86C15.6273 19.86 15.6212 19.86 15.6145 19.86C15.6078 19.86 15.5993 19.86 15.5901 19.86L15.6741 18.7159C15.6875 18.7177 15.699 18.7195 15.71 18.7214C15.7209 18.7232 15.7294 18.7244 15.7367 18.725C15.7434 18.725 15.752 18.7256 15.7623 18.725C15.7726 18.7244 15.7848 18.725 15.7994 18.725L15.7878 18.8825H15.7909C15.8201 18.8357 15.8529 18.7974 15.8894 18.7688C15.9259 18.7402 15.9849 18.7293 16.067 18.7353C16.1157 18.739 16.1589 18.7512 16.196 18.7731C16.2337 18.7943 16.2647 18.8229 16.2897 18.8588C16.3146 18.8947 16.3329 18.9349 16.3432 18.978C16.3541 19.0212 16.3572 19.0675 16.3541 19.1155C16.345 19.242 16.3067 19.3394 16.2392 19.4087C16.1717 19.4774 16.0877 19.5085 15.9867 19.5012C15.8803 19.4933 15.8037 19.4373 15.758 19.3339H15.755L15.7538 19.3345ZM15.7696 19.1192C15.7629 19.208 15.7769 19.2816 15.811 19.34C15.845 19.3984 15.9004 19.4306 15.9764 19.4361C16.0269 19.4397 16.0689 19.4276 16.1029 19.4002C16.137 19.3722 16.1631 19.3339 16.1808 19.2846C16.199 19.2353 16.2106 19.1782 16.2155 19.1137C16.2197 19.0583 16.2167 19.0066 16.2063 18.9592C16.196 18.9117 16.1759 18.8722 16.1461 18.8406C16.1163 18.8089 16.0749 18.7919 16.0226 18.7883C15.9667 18.784 15.9204 18.7986 15.8839 18.8315C15.8474 18.8643 15.8201 18.9075 15.8024 18.9598C15.7848 19.0121 15.7738 19.0656 15.7696 19.1198V19.1192Z" fill="#0C0E19"/>
<path d="M16.5184 19.1338C16.5135 19.0785 16.5196 19.0274 16.5354 18.9799C16.5512 18.9325 16.5762 18.8905 16.6096 18.8534C16.6431 18.8169 16.6832 18.7877 16.7289 18.7658C16.7745 18.7439 16.8262 18.7311 16.8834 18.7263C16.9545 18.7208 17.0184 18.7305 17.0756 18.7573C17.1327 18.7834 17.179 18.8242 17.2136 18.8795C17.2483 18.9349 17.2696 19.0006 17.2757 19.0772C17.28 19.1271 17.2757 19.1758 17.2623 19.2238C17.2495 19.2719 17.2276 19.3157 17.1972 19.3552C17.1668 19.3948 17.1279 19.427 17.0804 19.4513C17.0336 19.4757 16.9789 19.4909 16.9174 19.4957C16.8499 19.5012 16.7866 19.4909 16.7282 19.4641C16.6692 19.4373 16.6212 19.396 16.5841 19.3388C16.5464 19.2816 16.5245 19.2135 16.5184 19.1338ZM16.8852 18.7743C16.8231 18.7798 16.7745 18.8005 16.7392 18.8376C16.7033 18.8747 16.6796 18.9203 16.6674 18.975C16.6553 19.0298 16.6516 19.087 16.6565 19.1472C16.6613 19.2038 16.6735 19.2549 16.6942 19.3017C16.7149 19.3485 16.7441 19.3856 16.7836 19.413C16.8225 19.4404 16.87 19.4519 16.9259 19.4477C16.9813 19.4428 17.0251 19.4203 17.0585 19.3789C17.092 19.3376 17.1139 19.2901 17.1261 19.2354C17.1376 19.1806 17.1419 19.1289 17.1382 19.0815C17.1352 19.0426 17.1279 19.0042 17.1175 18.9677C17.1066 18.9312 17.0914 18.8978 17.0707 18.8674C17.05 18.837 17.0245 18.8132 16.9935 18.7962C16.9624 18.7792 16.9265 18.7719 16.8852 18.7755V18.7743Z" fill="#0C0E19"/>
<path d="M18.0908 19.1222L18.1072 19.2025C18.0725 19.2396 18.0348 19.2713 17.9934 19.2974C17.9521 19.323 17.9089 19.3412 17.8651 19.3509C17.7951 19.3668 17.7295 19.3649 17.668 19.3473C17.6066 19.329 17.5549 19.2956 17.5117 19.2451C17.4691 19.1952 17.4387 19.132 17.4217 19.0547C17.4058 18.9829 17.4052 18.916 17.4192 18.8534C17.4332 18.7907 17.4636 18.7372 17.5093 18.6928C17.5549 18.6484 17.6145 18.6186 17.6881 18.6022C17.7295 18.593 17.7702 18.5912 17.811 18.5973C17.8517 18.6028 17.8894 18.6168 17.9241 18.638C17.9588 18.6593 17.9892 18.6898 18.0153 18.7287C18.0415 18.7682 18.0616 18.8163 18.0737 18.8741C18.0756 18.8808 18.0768 18.8868 18.0774 18.8917C18.078 18.8966 18.0792 18.902 18.0798 18.9081C17.9758 18.9276 17.8724 18.9495 17.7696 18.972L17.5543 19.0194C17.5543 19.0267 17.5567 19.0377 17.5597 19.0517C17.5683 19.09 17.5822 19.1259 17.6011 19.1575C17.62 19.1898 17.6443 19.2165 17.6729 19.2378C17.7015 19.2591 17.7349 19.2737 17.7714 19.281C17.8079 19.2883 17.8468 19.2871 17.8876 19.278C17.9649 19.2609 18.0324 19.2092 18.0902 19.1222H18.0908ZM17.5421 18.9623L17.9478 18.8728C17.9284 18.795 17.8992 18.7342 17.8602 18.691C17.8213 18.6478 17.7672 18.6338 17.699 18.649C17.654 18.6593 17.6187 18.68 17.5932 18.7123C17.5676 18.7439 17.5512 18.7822 17.5433 18.8266C17.5354 18.871 17.5354 18.9166 17.5427 18.9629L17.5421 18.9623Z" fill="#0C0E19"/>
<path d="M18.3943 19.1976L18.1631 18.4872C18.1759 18.4841 18.1881 18.4811 18.1984 18.4786C18.2088 18.4762 18.2179 18.4738 18.2246 18.472C18.2307 18.4701 18.2386 18.4665 18.2483 18.4628C18.258 18.4586 18.2696 18.4537 18.2824 18.4482L18.331 18.5973L18.3322 18.5766C18.3608 18.4647 18.4077 18.3977 18.474 18.3765C18.4934 18.3704 18.5093 18.3673 18.522 18.3686L18.5421 18.4999C18.5372 18.4999 18.5257 18.4999 18.5074 18.4969C18.4892 18.4939 18.4746 18.4951 18.4636 18.4987C18.446 18.5042 18.4296 18.5133 18.4144 18.5249C18.3992 18.537 18.3876 18.551 18.3809 18.5668C18.3663 18.6021 18.3596 18.6338 18.3621 18.6617C18.3645 18.6897 18.373 18.7268 18.3882 18.7731L18.5135 19.1575C18.5038 19.1599 18.4953 19.1617 18.4886 19.163C18.4819 19.1648 18.4764 19.166 18.4715 19.1666C18.4673 19.1672 18.4606 19.1696 18.4527 19.1721C18.4436 19.1751 18.4375 19.1769 18.435 19.1782C18.4326 19.1794 18.4271 19.1812 18.4192 19.1849C18.4113 19.1879 18.4028 19.1915 18.3949 19.1958L18.3943 19.1976Z" fill="#0C0E19"/>
<path d="M18.9424 19.0121L18.6467 18.326C18.6595 18.3217 18.6705 18.3181 18.6808 18.3144C18.6911 18.3114 18.6996 18.3083 18.7057 18.3053C18.7118 18.3023 18.7197 18.2986 18.7288 18.2937C18.738 18.2889 18.7489 18.2828 18.7617 18.2761L18.8183 18.4069C18.831 18.2913 18.8876 18.2116 18.9886 18.1678C19.0713 18.1319 19.14 18.1295 19.1954 18.1587C19.2507 18.1885 19.2988 18.2512 19.3402 18.3479L19.519 18.7627C19.5093 18.7658 19.5014 18.7682 19.4947 18.7706C19.488 18.7731 19.4825 18.7749 19.4788 18.7761C19.4746 18.7773 19.4685 18.7798 19.46 18.7834C19.4509 18.7871 19.4448 18.7901 19.4405 18.7925C19.4363 18.795 19.4314 18.7974 19.4253 18.801C19.4192 18.8041 19.4119 18.8083 19.404 18.8126L19.2392 18.4306C19.2179 18.3813 19.196 18.3418 19.1723 18.3108C19.1492 18.2798 19.1212 18.2591 19.0889 18.2493C19.0567 18.239 19.0196 18.2433 18.977 18.2615C18.9065 18.2919 18.8681 18.3369 18.8608 18.3965C18.8542 18.4562 18.8718 18.534 18.9132 18.6301L19.0567 18.9628C19.047 18.9659 19.0391 18.9683 19.0324 18.9708C19.0257 18.9732 19.0202 18.975 19.016 18.9762C19.0117 18.9774 19.005 18.9799 18.9971 18.9835C18.988 18.9872 18.9825 18.9896 18.9801 18.9914C18.9776 18.9927 18.9728 18.9957 18.9649 19C18.9569 19.0042 18.949 19.0085 18.9411 19.0127L18.9424 19.0121Z" fill="#0C0E19"/>
<path d="M20.0154 17.9403L20.1899 18.2579C20.1997 18.2755 20.2076 18.2889 20.2136 18.2968C20.2197 18.3047 20.227 18.3102 20.2349 18.3126C20.2435 18.315 20.2532 18.3126 20.2647 18.3065C20.2745 18.3011 20.2866 18.2919 20.3012 18.2785L20.3177 18.309C20.3061 18.3248 20.2945 18.3369 20.2842 18.3455C20.2708 18.3564 20.2574 18.3655 20.2428 18.3734C20.2155 18.3874 20.1893 18.3929 20.165 18.3899C20.1407 18.3868 20.1188 18.371 20.0993 18.3436L20.0944 18.3631C20.0689 18.4519 20.0172 18.5182 19.9393 18.5608C19.8894 18.5882 19.8377 18.5961 19.7848 18.5851C19.7319 18.5736 19.6917 18.5431 19.665 18.4945C19.6382 18.4464 19.6291 18.4026 19.6376 18.3631C19.6461 18.3236 19.6638 18.2895 19.6917 18.2609C19.7191 18.2317 19.7587 18.1976 19.8104 18.1581C19.8493 18.1277 19.8767 18.1046 19.8919 18.0888C19.9071 18.0736 19.9162 18.0577 19.9192 18.0425C19.9223 18.0273 19.9174 18.0085 19.9053 17.9866C19.8773 17.9355 19.8414 17.9032 19.7982 17.8905C19.755 17.8777 19.7082 17.8856 19.6571 17.9136C19.6273 17.93 19.6035 17.9501 19.5853 17.9738C19.5677 17.9975 19.5555 18.0206 19.55 18.0425C19.5439 18.0644 19.5427 18.0833 19.5452 18.0979L19.5299 18.1064L19.488 18.0304C19.5336 17.9397 19.5932 17.874 19.6674 17.8333C19.7398 17.7931 19.8055 17.7822 19.8645 17.7998C19.9229 17.8175 19.9734 17.8643 20.016 17.941L20.0154 17.9403ZM20.0658 18.2925L19.9557 18.0924L19.9132 18.1289C19.8858 18.1508 19.8608 18.1715 19.8383 18.191C19.8158 18.2104 19.7964 18.2311 19.7793 18.2536C19.7623 18.2761 19.752 18.3004 19.7477 18.3278C19.7435 18.3552 19.7495 18.3832 19.766 18.413C19.7897 18.4556 19.8189 18.4817 19.8542 18.4902C19.8894 18.4987 19.9284 18.4914 19.9716 18.4683C19.9886 18.4592 20.0044 18.4434 20.0202 18.4209C20.036 18.3984 20.0464 18.3771 20.0525 18.3564C20.0543 18.3497 20.0567 18.3424 20.0591 18.3345C20.0616 18.3266 20.064 18.3187 20.0652 18.3096C20.0664 18.3011 20.0664 18.2956 20.0652 18.2931L20.0658 18.2925Z" fill="#0C0E19"/>
<path d="M13.8037 6.7907C13.8037 6.7907 13.6157 5.37463 12.949 5.04921C12.949 5.04921 16.4387 2.68849 20.0476 5.04921C20.0476 5.04921 19.095 5.9306 19.1352 6.67026L13.8037 6.7907Z" fill="url(#paint23_linear_301_1125)" stroke="#A3822E" stroke-width="0.075" stroke-miterlimit="10"/>
<path d="M14.7726 5.88437L14.5324 4.68242L14.8779 4.61307C14.9661 4.59543 15.0409 4.58874 15.1017 4.59239C15.1626 4.59665 15.2112 4.61368 15.2477 4.64349C15.2842 4.67329 15.3085 4.71831 15.3201 4.77792C15.328 4.81806 15.3286 4.85638 15.3213 4.89288C15.314 4.92938 15.3006 4.96344 15.2806 4.99568C15.2605 5.02792 15.2355 5.0559 15.2057 5.08084C15.1759 5.10517 15.1413 5.12707 15.1029 5.14592C15.14 5.14045 15.179 5.13923 15.2191 5.14227C15.2593 5.14532 15.2976 5.15444 15.3329 5.16904C15.3688 5.18364 15.4004 5.20675 15.4272 5.23777C15.4539 5.2688 15.4722 5.30894 15.4825 5.35821C15.5074 5.48352 15.4746 5.59361 15.3834 5.6879C15.3566 5.71466 15.3237 5.73778 15.2842 5.75663C15.2453 5.7761 15.2057 5.7907 15.1668 5.80104C15.1273 5.81138 15.0804 5.82172 15.0245 5.83327L14.7733 5.88376L14.7726 5.88437ZM14.7003 4.71709L14.7933 5.18303L14.8657 5.16843C14.9119 5.15931 14.9521 5.14836 14.9849 5.1368C15.0178 5.12524 15.05 5.10882 15.0798 5.08692C15.1188 5.05772 15.1461 5.02244 15.1626 4.98108C15.1784 4.93972 15.182 4.89471 15.1723 4.84665C15.1613 4.79312 15.1413 4.75298 15.1115 4.72561C15.0817 4.69823 15.0433 4.68242 14.9971 4.67816C14.9509 4.6739 14.8949 4.67816 14.8298 4.69154L14.7003 4.7177V4.71709ZM14.8067 5.24872L14.9144 5.78826L15.0817 5.75481C15.14 5.74325 15.1887 5.72135 15.2289 5.68911C15.269 5.65687 15.2976 5.61734 15.314 5.5705C15.3304 5.52366 15.3335 5.47439 15.3231 5.42269C15.3037 5.32476 15.2581 5.26271 15.1869 5.23534C15.1151 5.20858 15.0208 5.20614 14.904 5.22987L14.8055 5.24933L14.8067 5.24872Z" fill="#0C0E19"/>
<path d="M16.3548 5.11372L16.3773 5.53039C16.3785 5.55411 16.3803 5.57114 16.3821 5.5827C16.384 5.59425 16.3888 5.60277 16.3961 5.60946C16.4034 5.61615 16.415 5.61919 16.4302 5.61798C16.443 5.61737 16.4606 5.61372 16.4825 5.60703L16.4843 5.64657C16.4643 5.65691 16.4466 5.66421 16.4308 5.66786C16.412 5.67211 16.3925 5.67515 16.3742 5.67637C16.3384 5.67698 16.3092 5.66968 16.2854 5.65447C16.2623 5.63927 16.2471 5.61189 16.2404 5.57357L16.2252 5.59121C16.154 5.67029 16.0671 5.71287 15.9655 5.71834C15.8998 5.72199 15.8426 5.70435 15.7933 5.66603C15.7441 5.62771 15.7179 5.57601 15.7143 5.51153C15.7112 5.44827 15.7234 5.39839 15.7514 5.36189C15.7793 5.3254 15.8152 5.29863 15.8584 5.28282C15.9016 5.267 15.9594 5.25058 16.0324 5.23537C16.0877 5.22321 16.1279 5.21287 16.151 5.20435C16.1747 5.19583 16.1918 5.18428 16.2021 5.16968C16.213 5.15508 16.2173 5.13318 16.2161 5.10459C16.2124 5.03707 16.1911 4.98659 16.1528 4.95192C16.1145 4.91724 16.0616 4.90204 15.9953 4.90569C15.9557 4.90751 15.9211 4.91664 15.8913 4.93245C15.8609 4.94827 15.8371 4.96591 15.8201 4.98598C15.8031 5.00605 15.7921 5.0243 15.7879 5.04072L15.7678 5.04194L15.7623 4.94218C15.8554 4.87101 15.9503 4.83269 16.0464 4.82783C16.1413 4.82296 16.2155 4.84425 16.2672 4.8917C16.3195 4.93914 16.3481 5.01335 16.3536 5.11432L16.3548 5.11372ZM16.2313 5.50362L16.2173 5.24145L16.1547 5.25788C16.1151 5.267 16.0792 5.27613 16.0464 5.28525C16.0135 5.29437 15.9825 5.30593 15.9539 5.32053C15.9253 5.33513 15.9022 5.3552 15.884 5.38136C15.8663 5.40751 15.8578 5.43975 15.8602 5.47868C15.8633 5.53464 15.8809 5.57601 15.9132 5.60277C15.9454 5.62953 15.9898 5.6417 16.0458 5.63866C16.0683 5.63744 16.0926 5.62893 16.12 5.61372C16.1474 5.59851 16.1693 5.58148 16.1863 5.56262C16.1918 5.55654 16.1978 5.54985 16.2045 5.54316C16.2112 5.53647 16.2173 5.52917 16.2228 5.52065C16.2283 5.51275 16.2313 5.50727 16.2313 5.50423V5.50362Z" fill="#0C0E19"/>
<path d="M16.6388 5.68L16.707 4.82294C16.7222 4.82537 16.7355 4.8278 16.7477 4.82963C16.7599 4.83145 16.7702 4.83328 16.7781 4.83389C16.7854 4.83389 16.7958 4.83449 16.8073 4.83389C16.8195 4.83389 16.8335 4.83389 16.8499 4.83389L16.8365 4.99751C16.9119 4.88681 17.0123 4.83632 17.1388 4.84605C17.2422 4.85457 17.314 4.88802 17.3542 4.94824C17.3943 5.00785 17.4095 5.09788 17.3998 5.21832L17.3584 5.73657C17.3469 5.73474 17.3371 5.73292 17.3292 5.7317C17.3213 5.73048 17.3152 5.72927 17.3104 5.72866C17.3055 5.72805 17.2976 5.72683 17.2872 5.72623C17.2763 5.72562 17.2678 5.72501 17.2629 5.72501C17.258 5.72501 17.2507 5.72501 17.2428 5.72501C17.2349 5.72501 17.2258 5.72501 17.2149 5.72501L17.2532 5.24812C17.258 5.18669 17.2568 5.13437 17.2501 5.08997C17.2434 5.04557 17.2258 5.01029 17.1984 4.98231C17.1711 4.95432 17.1309 4.93851 17.0786 4.93425C16.9904 4.92695 16.9271 4.95189 16.8882 5.00907C16.8493 5.06625 16.825 5.15445 16.8152 5.27489L16.7824 5.69095C16.7708 5.68912 16.7611 5.6873 16.7532 5.68608C16.7453 5.68486 16.7392 5.68365 16.7337 5.68304C16.7282 5.68243 16.7209 5.68121 16.7112 5.6806C16.7003 5.68 16.693 5.67939 16.6899 5.67939C16.6869 5.67939 16.6802 5.67939 16.6698 5.67939C16.6595 5.67939 16.6498 5.67939 16.6388 5.67939V5.68Z" fill="#0C0E19"/>
<path d="M18.0202 4.48536L17.8505 5.27369C17.8456 5.29741 17.8426 5.31201 17.8426 5.3187C17.8426 5.32539 17.8438 5.33026 17.8469 5.3333C17.8797 5.33999 17.9381 5.31688 18.022 5.26213L18.1546 5.17515L18.3244 5.05349C18.339 5.05775 18.3523 5.06201 18.3639 5.06566C18.3754 5.06931 18.3858 5.07235 18.3937 5.07357C18.3998 5.07478 18.4089 5.076 18.4211 5.07782C18.4332 5.07904 18.4472 5.08086 18.4636 5.0833L18.4606 5.09607C18.4387 5.10885 18.4199 5.11919 18.4028 5.1277C18.3864 5.13622 18.3487 5.15568 18.2903 5.1867C18.2319 5.21773 18.1741 5.24997 18.1181 5.2822C18.0622 5.31444 18.0226 5.33756 18.0001 5.35155C18.0141 5.37709 18.0336 5.41177 18.0579 5.45678C18.0823 5.50179 18.1102 5.5541 18.1425 5.61371C18.1747 5.67332 18.2045 5.72746 18.2313 5.77673C18.258 5.826 18.2842 5.87345 18.3098 5.92028L18.3079 5.9288C18.2933 5.92454 18.2818 5.92089 18.2726 5.91846C18.2641 5.91603 18.2568 5.91359 18.2501 5.91177C18.2441 5.90994 18.2349 5.90751 18.2228 5.90508C18.2094 5.90204 18.2003 5.90021 18.196 5.8996C18.1917 5.89899 18.1838 5.89778 18.1717 5.89595C18.1595 5.89413 18.1467 5.8923 18.134 5.89109C18.1151 5.85033 18.0835 5.7889 18.0385 5.70617C17.9935 5.62345 17.9417 5.52916 17.8827 5.42272C17.87 5.40082 17.8584 5.38865 17.8481 5.38622C17.8335 5.38318 17.8213 5.40264 17.8116 5.44583L17.7343 5.80471C17.7228 5.80106 17.7136 5.79802 17.7063 5.7962C17.699 5.79376 17.6924 5.79194 17.6875 5.79011C17.6826 5.78829 17.6747 5.78646 17.6656 5.78464C17.6546 5.78221 17.648 5.78099 17.6443 5.78038C17.6413 5.78038 17.6346 5.77916 17.6248 5.77795C17.6151 5.77673 17.6048 5.77551 17.5944 5.7743L17.8791 4.45312C17.8937 4.45738 17.9071 4.46164 17.9186 4.46529C17.9302 4.46894 17.9405 4.47198 17.9484 4.4732C17.9557 4.47502 17.9655 4.47624 17.9776 4.47746C17.9898 4.47867 18.0038 4.4805 18.0202 4.48293V4.48536Z" fill="#0C0E19"/>
<path d="M16.4983 18.0663C19.8093 18.0663 22.4935 15.3822 22.4935 12.0711C22.4935 8.76011 19.8093 6.07599 16.4983 6.07599C13.1873 6.07599 10.5031 8.76011 10.5031 12.0711C10.5031 15.3822 13.1873 18.0663 16.4983 18.0663Z" fill="url(#paint24_linear_301_1125)" stroke="#A3822E" stroke-width="0.075" stroke-miterlimit="10"/>
<path d="M16.5877 16.517C19.1446 16.517 21.2173 14.4443 21.2173 11.8875C21.2173 9.33061 19.1446 7.25787 16.5877 7.25787C14.0309 7.25787 11.9581 9.33061 11.9581 11.8875C11.9581 14.4443 14.0309 16.517 16.5877 16.517Z" fill="white"/>
<path d="M16.5877 16.6716C13.9496 16.6716 11.8042 14.5256 11.8042 11.8881C11.8042 9.25061 13.9496 7.104 16.5877 7.104C19.2258 7.104 21.3712 9.25 21.3712 11.8875C21.3712 14.525 19.2252 16.671 16.5877 16.671V16.6716ZM16.5877 7.41179C14.1199 7.41179 12.112 9.41971 12.112 11.8875C12.112 14.3553 14.1199 16.3632 16.5877 16.3632C19.0555 16.3632 21.0634 14.3553 21.0634 11.8875C21.0634 9.41971 19.0555 7.41179 16.5877 7.41179Z" fill="#0C0E19"/>
<path d="M16.5871 7.78223C14.3213 7.78223 12.4831 9.62043 12.4831 11.8881C12.4831 14.1557 14.3213 15.9939 16.5871 15.9939C18.8529 15.9939 20.693 14.1557 20.693 11.8881C20.693 9.62043 18.8547 7.78223 16.5871 7.78223ZM16.4466 14.3625H16.5518C16.5153 14.4063 16.4916 14.4301 16.4916 14.4301C16.4752 14.4082 16.4618 14.3851 16.4466 14.3625Z" fill="#FF0000"/>
<path d="M19.5798 9.93308C17.5524 9.22322 16.5007 10.489 16.5007 10.489C14.8675 9.14658 13.3018 10.1302 13.3018 10.1302C13.7562 12.2257 15.3553 12.4483 15.3553 12.4483C14.8584 14.0724 16.5007 15.4069 16.5007 15.4069C17.8864 14.6204 17.8261 12.3881 17.8261 12.3881C19.435 11.7968 19.5798 9.93247 19.5798 9.93247V9.93308ZM16.4533 11.4094C16.564 11.2585 16.9149 11.9775 16.8474 12.045C16.7799 12.1143 16.1929 12.1435 16.1424 12.0067C16.0901 11.871 16.4533 11.4094 16.4533 11.4094ZM15.5342 11.8066C14.4563 11.5249 14.1655 10.5535 14.1655 10.5535C15.3943 10.3704 16.0512 10.9769 16.0512 10.9769C15.5342 11.2847 15.5342 11.8066 15.5342 11.8066ZM16.4563 14.3479C15.8821 13.5627 15.9454 12.5839 15.9454 12.5839C16.4241 12.7208 17.0336 12.5839 17.0336 12.5839C17.1674 13.6356 16.4563 14.3479 16.4563 14.3479ZM17.5737 11.8066C17.4508 11.4045 16.9624 10.9386 16.9624 10.9386C17.775 10.2579 18.7592 10.472 18.7592 10.472C18.4083 11.3789 17.5737 11.8066 17.5737 11.8066Z" fill="white" stroke="#0C0E19" stroke-width="0.125" stroke-miterlimit="10"/>
<path d="M14.7136 17.2463L14.7215 17.25C14.7252 17.2761 14.7343 17.3011 14.7483 17.3242C14.7629 17.3473 14.7805 17.3631 14.8024 17.3728C14.8183 17.3801 14.8359 17.3832 14.8535 17.382C14.8718 17.3807 14.8888 17.3753 14.904 17.3655C14.9192 17.3558 14.9308 17.343 14.9381 17.326C14.9509 17.2968 14.9509 17.2725 14.9381 17.2536C14.9247 17.2348 14.901 17.2104 14.8663 17.1812C14.8316 17.152 14.8079 17.1253 14.7957 17.1003C14.7836 17.0754 14.786 17.0438 14.8024 17.0054C14.8225 16.9604 14.8535 16.9312 14.8949 16.9191C14.9363 16.9069 14.9807 16.9105 15.0269 16.9312C15.0494 16.941 15.0695 16.9537 15.0883 16.9683C15.1072 16.9829 15.12 16.9957 15.1267 17.006C15.1084 17.0225 15.0902 17.0419 15.0719 17.065L15.0634 17.0614C15.0634 17.0492 15.0622 17.0358 15.0579 17.0213C15.0537 17.0067 15.0476 16.9945 15.0397 16.9835C15.0318 16.9726 15.0214 16.9647 15.0093 16.9592C14.9837 16.9483 14.9594 16.9458 14.9363 16.9525C14.9131 16.9592 14.8955 16.9756 14.8846 17.0012C14.8724 17.0286 14.8724 17.0523 14.8852 17.0717C14.8979 17.0906 14.9211 17.1155 14.9545 17.1453C14.988 17.1751 15.0111 17.2025 15.0245 17.2281C15.0378 17.2536 15.036 17.284 15.0208 17.3193C15.0062 17.3522 14.9849 17.3765 14.9569 17.3923C14.929 17.4081 14.8985 17.416 14.8651 17.4148C14.8322 17.4142 14.8006 17.4075 14.7714 17.3941C14.7252 17.3734 14.6887 17.3455 14.6625 17.309C14.6911 17.2773 14.7082 17.2567 14.7148 17.2463H14.7136Z" fill="#0C0E19"/>
<path d="M15.5682 17.2993L15.5019 17.5383C15.4983 17.5517 15.4959 17.5621 15.4946 17.5687C15.4934 17.5754 15.4946 17.5815 15.4977 17.5864C15.5007 17.5913 15.5062 17.5955 15.5153 17.5979C15.5226 17.5998 15.533 17.601 15.547 17.6016L15.5409 17.6241C15.5275 17.6259 15.5165 17.6265 15.5068 17.6259C15.4953 17.6247 15.4843 17.6229 15.4734 17.6198C15.4533 17.6138 15.4375 17.6034 15.4277 17.5906C15.4174 17.5773 15.4137 17.5596 15.4174 17.5365L15.4058 17.5438C15.3505 17.5748 15.2939 17.5827 15.2349 17.5663C15.1972 17.556 15.168 17.5353 15.1479 17.5043C15.1272 17.4732 15.1224 17.4392 15.1327 17.4027C15.1431 17.3662 15.1589 17.3406 15.182 17.3254C15.2051 17.3102 15.23 17.3017 15.2574 17.3011C15.2848 17.3005 15.3207 17.3023 15.3645 17.3072C15.3985 17.3108 15.4223 17.3127 15.4375 17.3121C15.4527 17.3114 15.4642 17.3084 15.4727 17.3023C15.4819 17.2962 15.488 17.2847 15.4928 17.2683C15.5038 17.2299 15.5013 17.1971 15.4861 17.1703C15.4709 17.1436 15.4442 17.1247 15.4058 17.1144C15.3833 17.1083 15.362 17.1065 15.342 17.1095C15.3219 17.1125 15.3049 17.118 15.2921 17.1265C15.2787 17.1344 15.269 17.143 15.2635 17.1515L15.2519 17.1484L15.2678 17.0913C15.3335 17.0687 15.3943 17.0651 15.4496 17.0803C15.5044 17.0955 15.5421 17.1217 15.5622 17.1582C15.5822 17.1947 15.5847 17.2421 15.5689 17.2999L15.5682 17.2993ZM15.4247 17.4958L15.4667 17.3449L15.4283 17.3425C15.404 17.34 15.3821 17.3388 15.362 17.3376C15.342 17.3364 15.3219 17.3376 15.3036 17.34C15.2848 17.3431 15.2678 17.3498 15.2526 17.3613C15.2373 17.3729 15.227 17.3893 15.2203 17.4118C15.2112 17.4441 15.2136 17.4708 15.2264 17.4921C15.2392 17.5134 15.2623 17.5286 15.2945 17.5371C15.3073 17.5408 15.3225 17.5408 15.3414 17.5371C15.3602 17.5335 15.3754 17.528 15.3882 17.5207C15.3925 17.5183 15.3973 17.5158 15.4022 17.5134C15.4071 17.511 15.4125 17.5079 15.4168 17.5043C15.4217 17.5006 15.4241 17.4982 15.4247 17.4964V17.4958Z" fill="#0C0E19"/>
<path d="M15.7142 17.6746L15.8122 16.8765C15.8213 16.8784 15.8292 16.8802 15.8365 16.8814C15.8438 16.8832 15.8499 16.8844 15.8547 16.8844C15.8596 16.8844 15.8651 16.885 15.8724 16.8856C15.8797 16.8856 15.8882 16.8856 15.8979 16.8869L15.8505 17.2737C15.8979 17.2099 15.9594 17.1825 16.0342 17.1916C16.0944 17.1989 16.1364 17.2214 16.1589 17.2591C16.1814 17.2968 16.1887 17.3504 16.1802 17.4197L16.1425 17.7269C16.1358 17.7251 16.1303 17.7239 16.1254 17.7232C16.1206 17.722 16.1169 17.7214 16.1145 17.7208C16.112 17.7202 16.1072 17.7196 16.1005 17.7184C16.0938 17.7178 16.0889 17.7172 16.0859 17.7172C16.0828 17.7172 16.0786 17.7172 16.0743 17.7172C16.0695 17.7172 16.064 17.7172 16.0579 17.7172L16.0926 17.4343C16.0999 17.3729 16.0968 17.3266 16.0828 17.2968C16.0689 17.2664 16.0403 17.2488 15.9965 17.2433C15.9034 17.2318 15.8505 17.2829 15.8365 17.3966L15.8012 17.6855C15.7945 17.6837 15.7891 17.6825 15.7842 17.6819C15.7793 17.6813 15.7757 17.6801 15.7726 17.6794C15.7696 17.6788 15.7653 17.6782 15.7592 17.677C15.7526 17.6764 15.7483 17.6758 15.7465 17.6758C15.7446 17.6758 15.7404 17.6758 15.7349 17.6758C15.7288 17.6758 15.7227 17.6758 15.7167 17.6758L15.7142 17.6746Z" fill="#0C0E19"/>
<path d="M16.7234 17.3935L16.727 17.6417C16.727 17.6557 16.7276 17.666 16.7288 17.6727C16.7295 17.6794 16.7325 17.6849 16.7368 17.6891C16.741 17.6934 16.7477 17.6952 16.7568 17.6952C16.7647 17.6952 16.7751 17.6934 16.7878 17.6904V17.7141C16.7763 17.7196 16.7653 17.7238 16.7562 17.7256C16.7447 17.7281 16.7331 17.7293 16.7222 17.7293C16.7009 17.7293 16.6838 17.7238 16.6698 17.7141C16.6565 17.7043 16.6479 17.6879 16.6449 17.6648L16.6358 17.6751C16.5914 17.7208 16.5391 17.7439 16.4782 17.7445C16.4393 17.7451 16.4052 17.7335 16.3773 17.7092C16.3487 17.6855 16.3341 17.6539 16.3341 17.6155C16.3341 17.5778 16.342 17.5486 16.3596 17.5273C16.3773 17.506 16.3992 17.4914 16.4253 17.4823C16.4515 17.4738 16.4861 17.4659 16.5299 17.458C16.5634 17.4519 16.5871 17.447 16.6011 17.4422C16.6151 17.4379 16.626 17.4312 16.6327 17.4227C16.6394 17.4142 16.6425 17.4014 16.6425 17.3844C16.6425 17.3442 16.6303 17.3138 16.6084 17.2919C16.5865 17.27 16.5555 17.2603 16.5153 17.2609C16.4922 17.2609 16.4715 17.2658 16.4527 17.2743C16.4338 17.2828 16.4198 17.2931 16.4095 17.3047C16.3986 17.3163 16.3919 17.3266 16.3888 17.3363H16.3767L16.376 17.2767C16.4332 17.2366 16.4904 17.2159 16.5476 17.2153C16.6041 17.2147 16.6479 17.2287 16.6778 17.2585C16.7076 17.2883 16.7228 17.3327 16.724 17.3929L16.7234 17.3935ZM16.6406 17.6228L16.6382 17.4665L16.6005 17.475C16.5768 17.4799 16.5549 17.4841 16.5354 17.489C16.5153 17.4933 16.4971 17.5 16.4795 17.5079C16.4624 17.5158 16.4478 17.5273 16.4363 17.5425C16.4253 17.5577 16.4198 17.5766 16.4198 17.5997C16.4198 17.6332 16.4302 17.6581 16.4484 17.6745C16.4673 17.691 16.4928 17.6995 16.5263 17.6989C16.5397 17.6989 16.5543 17.694 16.5713 17.6855C16.5877 17.677 16.6011 17.6672 16.6114 17.6569C16.6151 17.6532 16.6187 17.6496 16.623 17.6459C16.6273 17.6423 16.6309 17.638 16.6346 17.6332C16.6382 17.6283 16.64 17.6253 16.64 17.6234L16.6406 17.6228Z" fill="#0C0E19"/>
<path d="M16.9448 17.7147L16.8335 16.9215C16.8426 16.9215 16.8505 16.9203 16.8578 16.9203C16.8651 16.9203 16.8712 16.9197 16.876 16.9185C16.8803 16.9179 16.8864 16.9167 16.8931 16.9148C16.9004 16.913 16.9083 16.9112 16.918 16.9094L16.9734 17.3017C16.9916 17.264 17.0147 17.2336 17.0415 17.2099C17.0689 17.1861 17.1023 17.1721 17.1413 17.1667C17.1887 17.16 17.2301 17.1667 17.2659 17.1855C17.3012 17.2044 17.3298 17.2317 17.3505 17.2676C17.3712 17.3035 17.3846 17.3412 17.39 17.3826C17.3949 17.4185 17.3949 17.4538 17.3888 17.4884C17.3827 17.5225 17.3712 17.5541 17.3541 17.5827C17.3371 17.6113 17.3146 17.6356 17.2872 17.6551C17.2593 17.6746 17.227 17.6867 17.1893 17.6922C17.123 17.7013 17.0689 17.6837 17.0281 17.6381C17.0208 17.6454 17.0117 17.6551 17.0013 17.6679C16.991 17.6807 16.9788 17.6953 16.9649 17.7117L16.9448 17.7141V17.7147ZM17.1212 17.2153C17.0652 17.2232 17.0281 17.2524 17.0099 17.3035C16.9916 17.3546 16.9874 17.4154 16.9977 17.4866C17.0032 17.5237 17.0135 17.5566 17.0299 17.5845C17.0458 17.6125 17.0664 17.6332 17.0914 17.6466C17.1163 17.66 17.1437 17.6642 17.1741 17.66C17.2027 17.6557 17.2258 17.6454 17.2441 17.6277C17.2623 17.6101 17.2763 17.5882 17.2854 17.562C17.2945 17.5359 17.3 17.5097 17.3018 17.4824C17.3037 17.4556 17.3018 17.4276 17.2982 17.4002C17.2927 17.3601 17.2824 17.3254 17.2678 17.2962C17.2532 17.267 17.2337 17.2451 17.2094 17.2305C17.185 17.2159 17.1559 17.2105 17.1224 17.2153H17.1212Z" fill="#0C0E19"/>
<path d="M17.859 17.1941L17.9211 17.4343C17.9247 17.4477 17.9277 17.458 17.9302 17.4641C17.9326 17.4702 17.9363 17.4751 17.9417 17.4781C17.9466 17.4812 17.9539 17.4812 17.9624 17.4793C17.9697 17.4775 17.9795 17.4732 17.9916 17.4666L17.9977 17.4891C17.9874 17.4976 17.9776 17.5037 17.9691 17.5079C17.9588 17.5128 17.9478 17.517 17.9369 17.5195C17.9162 17.5243 17.8979 17.5237 17.8827 17.517C17.8669 17.511 17.8554 17.497 17.8468 17.4751L17.8402 17.4872C17.8079 17.542 17.7623 17.5773 17.7039 17.5925C17.6662 17.6022 17.6309 17.5992 17.5975 17.5821C17.564 17.5657 17.5427 17.5389 17.533 17.5018C17.5239 17.4653 17.5251 17.4349 17.5372 17.41C17.5494 17.385 17.567 17.3656 17.5902 17.351C17.6133 17.3364 17.6455 17.3206 17.6863 17.3023C17.7173 17.2883 17.7392 17.278 17.752 17.2701C17.7647 17.2628 17.7732 17.2537 17.7781 17.2439C17.7824 17.2342 17.7824 17.2208 17.7781 17.2044C17.7678 17.1655 17.7495 17.1381 17.7234 17.1229C17.6966 17.1071 17.6644 17.1046 17.626 17.1144C17.6035 17.1204 17.5841 17.1296 17.5683 17.1423C17.5524 17.1551 17.5409 17.1685 17.533 17.1819C17.5257 17.1959 17.5214 17.2074 17.5208 17.2178L17.5093 17.2208L17.494 17.163C17.5397 17.1107 17.5908 17.0773 17.6461 17.0627C17.7009 17.0481 17.7465 17.0523 17.783 17.0736C17.8189 17.0955 17.8444 17.135 17.8596 17.1928L17.859 17.1941ZM17.8335 17.4361L17.7939 17.2847L17.7593 17.3017C17.7374 17.3114 17.7173 17.3212 17.699 17.3303C17.6808 17.3394 17.6644 17.3498 17.6492 17.3619C17.634 17.3735 17.623 17.3881 17.6157 17.4057C17.6084 17.4234 17.6072 17.4428 17.6133 17.4653C17.6218 17.4976 17.637 17.5195 17.6589 17.5316C17.6808 17.5432 17.7082 17.545 17.7404 17.5365C17.7532 17.5329 17.7666 17.5256 17.7805 17.5128C17.7945 17.5006 17.8055 17.4878 17.8128 17.4751C17.8152 17.4708 17.8183 17.4666 17.8213 17.4617C17.8243 17.4568 17.8274 17.452 17.8298 17.4465C17.8323 17.441 17.8329 17.4374 17.8329 17.4355L17.8335 17.4361Z" fill="#0C0E19"/>
<path d="M17.9369 16.8747L18.0074 16.8157L18.0525 16.9471L18.1595 16.9106C18.1613 16.9209 18.1632 16.9282 18.1644 16.9319C18.1662 16.9373 18.1692 16.9434 18.1729 16.9495L18.0658 16.986L18.1528 17.2402L18.1656 17.2767C18.179 17.3157 18.1942 17.3449 18.2124 17.3643C18.2301 17.3844 18.2544 17.3887 18.2848 17.3783C18.2915 17.3759 18.3055 17.3686 18.328 17.3558L18.3365 17.3802C18.3073 17.4039 18.2806 17.4197 18.2574 17.4276C18.2386 17.4343 18.2216 17.4373 18.2057 17.4373C18.1899 17.4373 18.1747 17.4331 18.1607 17.4239C18.1467 17.4148 18.1334 17.4014 18.1206 17.382C18.1084 17.3625 18.0969 17.3382 18.0865 17.3078L17.9855 17.0128L17.9229 17.034C17.9229 17.0292 17.9217 17.0219 17.9186 17.014C17.9156 17.0048 17.9126 16.9988 17.9095 16.9957L17.9722 16.9744L17.9381 16.8741L17.9369 16.8747Z" fill="#0C0E19"/>
<path d="M21.0634 16.8157C21.1212 16.8303 21.5841 16.7512 22.2477 16.4057C22.4576 16.2968 22.6869 16.1612 22.9302 15.9939" stroke="#A3822E" stroke-width="0.025" stroke-miterlimit="10"/>
<path d="M22.2173 15.3126C22.2173 15.3126 23.1066 14.7482 23.4917 14.0468" stroke="#A3822E" stroke-width="0.025" stroke-miterlimit="10"/>
<path d="M22.5275 13.722C22.5275 13.722 23.4412 13.1569 23.8809 12.0711" stroke="#A3822E" stroke-width="0.025" stroke-miterlimit="10"/>
<path d="M22.6711 11.8874C22.6711 11.8874 23.3122 11.3272 23.4916 10.1636" stroke="#A3822E" stroke-width="0.025" stroke-miterlimit="10"/>
<path d="M21.9892 8.90872L22.3882 7.46954" stroke="#A3822E" stroke-width="0.025" stroke-miterlimit="10"/>
<defs>
<linearGradient id="paint0_linear_301_1125" x1="10.3821" y1="9.16785" x2="9.32187" y2="10.4337" gradientUnits="userSpaceOnUse">
<stop stop-color="#F7E349"/>
<stop offset="1" stop-color="#A3822E"/>
</linearGradient>
<linearGradient id="paint1_linear_301_1125" x1="22.637" y1="9.16785" x2="23.6972" y2="10.4337" gradientUnits="userSpaceOnUse">
<stop stop-color="#F7E349"/>
<stop offset="1" stop-color="#A3822E"/>
</linearGradient>
<linearGradient id="paint2_linear_301_1125" x1="11.7702" y1="7.3491" x2="10.5044" y2="7.43426" gradientUnits="userSpaceOnUse">
<stop stop-color="#F7E349"/>
<stop offset="1" stop-color="#A3822E"/>
</linearGradient>
<linearGradient id="paint3_linear_301_1125" x1="13.3274" y1="6.25419" x2="12.4551" y2="8.10152" gradientUnits="userSpaceOnUse">
<stop stop-color="#F7E349"/>
<stop offset="1" stop-color="#A3822E"/>
</linearGradient>
<linearGradient id="paint4_linear_301_1125" x1="14.2398" y1="6.87831" x2="11.4691" y2="6.87831" gradientUnits="userSpaceOnUse">
<stop stop-color="#F7E349"/>
<stop offset="1" stop-color="#A3822E"/>
</linearGradient>
<linearGradient id="paint5_linear_301_1125" x1="10.3456" y1="17.084" x2="12.6717" y2="17.4428" gradientUnits="userSpaceOnUse">
<stop stop-color="#F7E349"/>
<stop offset="1" stop-color="#A3822E"/>
</linearGradient>
<linearGradient id="paint6_linear_301_1125" x1="11.3298" y1="15.7822" x2="10.8851" y2="17.7664" gradientUnits="userSpaceOnUse">
<stop stop-color="#F7E349"/>
<stop offset="1" stop-color="#A3822E"/>
</linearGradient>
<linearGradient id="paint7_linear_301_1125" x1="10.4539" y1="14.4215" x2="9.71846" y2="15.6873" gradientUnits="userSpaceOnUse">
<stop stop-color="#F7E349"/>
<stop offset="1" stop-color="#A3822E"/>
</linearGradient>
<linearGradient id="paint8_linear_301_1125" x1="11.2173" y1="15.0158" x2="13.2355" y2="17.1028" gradientUnits="userSpaceOnUse">
<stop stop-color="#F7E349"/>
<stop offset="1" stop-color="#A3822E"/>
</linearGradient>
<linearGradient id="paint9_linear_301_1125" x1="10.2611" y1="12.6216" x2="9.20083" y2="15.0164" gradientUnits="userSpaceOnUse">
<stop stop-color="#F7E349"/>
<stop offset="1" stop-color="#A3822E"/>
</linearGradient>
<linearGradient id="paint10_linear_301_1125" x1="10.3675" y1="10.7566" x2="8.77687" y2="12.7062" gradientUnits="userSpaceOnUse">
<stop stop-color="#F7E349"/>
<stop offset="1" stop-color="#A3822E"/>
</linearGradient>
<linearGradient id="paint11_linear_301_1125" x1="11.2805" y1="8.24205" x2="9.82673" y2="8.44704" gradientUnits="userSpaceOnUse">
<stop stop-color="#F7E349"/>
<stop offset="1" stop-color="#A3822E"/>
</linearGradient>
<linearGradient id="paint12_linear_301_1125" x1="21.2489" y1="7.3491" x2="22.5148" y2="7.43426" gradientUnits="userSpaceOnUse">
<stop stop-color="#F7E349"/>
<stop offset="1" stop-color="#A3822E"/>
</linearGradient>
<linearGradient id="paint13_linear_301_1125" x1="19.6918" y1="6.25419" x2="20.564" y2="8.10152" gradientUnits="userSpaceOnUse">
<stop stop-color="#F7E349"/>
<stop offset="1" stop-color="#A3822E"/>
</linearGradient>
<linearGradient id="paint14_linear_301_1125" x1="18.7793" y1="6.87831" x2="21.55" y2="6.87831" gradientUnits="userSpaceOnUse">
<stop stop-color="#F7E349"/>
<stop offset="1" stop-color="#A3822E"/>
</linearGradient>
<linearGradient id="paint15_linear_301_1125" x1="22.6735" y1="17.084" x2="20.3475" y2="17.4428" gradientUnits="userSpaceOnUse">
<stop stop-color="#F7E349"/>
<stop offset="1" stop-color="#A3822E"/>
</linearGradient>
<linearGradient id="paint16_linear_301_1125" x1="21.6893" y1="15.7822" x2="22.134" y2="17.7664" gradientUnits="userSpaceOnUse">
<stop stop-color="#F7E349"/>
<stop offset="1" stop-color="#A3822E"/>
</linearGradient>
<linearGradient id="paint17_linear_301_1125" x1="22.5652" y1="14.4215" x2="23.3006" y2="15.6873" gradientUnits="userSpaceOnUse">
<stop stop-color="#F7E349"/>
<stop offset="1" stop-color="#A3822E"/>
</linearGradient>
<linearGradient id="paint18_linear_301_1125" x1="21.8018" y1="15.0158" x2="19.7836" y2="17.1028" gradientUnits="userSpaceOnUse">
<stop stop-color="#F7E349"/>
<stop offset="1" stop-color="#A3822E"/>
</linearGradient>
<linearGradient id="paint19_linear_301_1125" x1="22.7581" y1="12.6216" x2="23.8183" y2="15.0164" gradientUnits="userSpaceOnUse">
<stop stop-color="#F7E349"/>
<stop offset="1" stop-color="#A3822E"/>
</linearGradient>
<linearGradient id="paint20_linear_301_1125" x1="22.6516" y1="10.7566" x2="24.2423" y2="12.7062" gradientUnits="userSpaceOnUse">
<stop stop-color="#F7E349"/>
<stop offset="1" stop-color="#A3822E"/>
</linearGradient>
<linearGradient id="paint21_linear_301_1125" x1="21.7386" y1="8.24205" x2="23.1924" y2="8.44704" gradientUnits="userSpaceOnUse">
<stop stop-color="#F7E349"/>
<stop offset="1" stop-color="#A3822E"/>
</linearGradient>
<linearGradient id="paint22_linear_301_1125" x1="16.4983" y1="16.3637" x2="16.4983" y2="19.9994" gradientUnits="userSpaceOnUse">
<stop stop-color="#F7E349"/>
<stop offset="1" stop-color="#A3822E"/>
</linearGradient>
<linearGradient id="paint23_linear_301_1125" x1="16.4983" y1="6.7907" x2="16.4983" y2="4.00054" gradientUnits="userSpaceOnUse">
<stop stop-color="#F7E349"/>
<stop offset="1" stop-color="#A3822E"/>
</linearGradient>
<linearGradient id="paint24_linear_301_1125" x1="16.4983" y1="6.07599" x2="16.4983" y2="18.0663" gradientUnits="userSpaceOnUse">
<stop stop-color="#F7E349"/>
<stop offset="1" stop-color="#A3822E"/>
</linearGradient>
</defs>
</svg>
