<svg width="58" height="40" viewBox="0 0 58 40" fill="none" xmlns="http://www.w3.org/2000/svg">
<rect width="58" height="40" rx="6" fill="white"/>
<path fill-rule="evenodd" clip-rule="evenodd" d="M24.3039 12.9265C25.4804 13.3824 26.6519 13.8726 27.7941 14.4265C24.1372 15.8971 20.5833 17.6569 17.2206 19.6814C16.0784 19.0932 14.902 18.5049 13.7304 17.9853C17.1225 16.0295 20.6471 14.3334 24.3039 12.9265Z" fill="#0067B1"/>
<path fill-rule="evenodd" clip-rule="evenodd" d="M19.9314 11.3922C16.1471 12.5981 12.4902 14.1667 9 16.0589C10.1078 16.4853 11.2206 16.9069 12.2941 17.3628C15.6569 15.3726 19.2108 13.7108 22.897 12.402C21.9167 12.0442 20.9412 11.6863 19.9265 11.3922H19.9314Z" fill="#0067B1"/>
<path fill-rule="evenodd" clip-rule="evenodd" d="M32.2304 12.7648C29.2304 11.3285 26.1274 10.1226 22.9657 9.14221C21.8235 9.47064 20.7157 9.82849 19.6373 10.1863C22.902 11.1667 26.098 12.4069 29.1667 13.8726C30.1765 13.4804 31.1912 13.1226 32.2353 12.7648H32.2304Z" fill="#EE2A24"/>
<path fill-rule="evenodd" clip-rule="evenodd" d="M37.0931 11.3284C34.0588 9.99019 30.8921 8.88235 27.6617 8C26.6176 8.19608 25.6078 8.42647 24.5931 8.68627C27.7892 9.63235 30.9215 10.8088 33.9264 12.2451C34.9706 11.9167 36.049 11.5931 37.0931 11.3333V11.3284Z" fill="#EE2A24"/>
<path fill-rule="evenodd" clip-rule="evenodd" d="M44.9264 13.9363C37.2598 16.5147 30.0784 20.201 23.5882 24.8039C25.2206 25.8137 26.7843 26.8578 28.3186 28C34.451 23.1373 41.2745 19.0931 48.5833 16.0245C47.3774 15.2745 46.1666 14.5882 44.9264 13.9363Z" fill="#EE2A24"/>
<path fill-rule="evenodd" clip-rule="evenodd" d="M39.6372 11.4559C31.6764 13.5442 24.2059 16.9363 17.451 21.4412C18.951 22.1912 20.451 22.9755 21.9215 23.8236C28.5441 19.2549 35.8872 15.6667 43.7156 13.3187C42.3774 12.6667 41.0392 12.0148 39.6372 11.4608V11.4559Z" fill="#EE2A24"/>
</svg>
