<svg width="46" height="32" viewBox="0 0 46 32" fill="none" xmlns="http://www.w3.org/2000/svg">
<path fill-rule="evenodd" clip-rule="evenodd" d="M11.074 18.8278L11.5971 18.3048L12.1282 18.836L11.6052 19.359L11.074 18.8278ZM12.4885 18.8278L13.0115 18.3048L13.5433 18.836L13.0202 19.359L12.4885 18.8278ZM7.56808 15.0505L8.09923 14.5187L8.6391 15.0586L8.10795 15.5909L7.56808 15.0516V15.0505ZM10.6242 12.4214C9.72465 13.07 9.3074 13.4989 9.15747 14.306C8.90584 15.6589 9.47128 16.6887 9.5323 16.8845H8.46418C8.85296 17.1228 9.23418 17.7086 9.48348 17.7213C9.74615 17.7353 9.89027 17.7312 9.89027 17.7312C10.2331 18.4048 10.1896 19.248 10.0274 19.6652C9.84785 20.1301 9.41375 20.6502 8.4113 20.3364C7.42338 20.0261 6.30296 19.2393 6.09782 18.0933C6.01879 17.6505 6.09782 17.0379 6.22625 16.7567C6.41686 16.3458 6.79285 15.9169 7.17814 15.3794C6.42267 15.989 5.38187 17.1228 5.08608 18.2322C4.74495 19.5234 5.48241 20.4405 6.16407 21.01C6.84574 21.5795 8.03589 21.8357 8.62051 21.6492C9.22314 21.4603 9.37016 21.2232 9.71129 20.8275C10.1303 20.3393 10.4482 19.8245 10.5382 19.4456C10.701 18.7604 10.5603 17.7213 10.5603 17.7213C10.5603 17.7213 12.0829 17.7795 12.793 17.7353C13.2922 17.7039 14.2825 17.2193 14.3586 16.2017C14.4359 15.1731 13.3503 14.4107 12.4937 14.0393C13.004 14.5902 13.108 15.2184 12.9331 15.6827C12.7372 16.2058 12.2479 16.6126 11.6848 16.7729C11.2694 16.8862 10.8355 16.9154 10.4086 16.859C10.06 16.3249 9.86529 13.9056 10.6242 12.4214ZM11.0816 12.2529C12.4182 12.4854 14.3284 13.5233 15.0182 15.0174C15.769 16.6445 15.0652 18.3298 13.9407 19.4758C13.1399 20.2928 12.0986 20.5886 11.5169 20.7147C11.117 20.7996 10.8776 20.6938 10.6568 20.7659C10.1338 20.9344 9.77986 21.5713 9.2952 21.9694C10.6132 22.0142 12.6605 22.1571 14.2621 21.0187C16.2595 19.5984 16.0735 16.8433 15.7359 15.6787C15.3982 14.5141 14.4068 12.1477 12.0596 11C11.7807 11.5346 11.5523 11.8717 11.0816 12.2529Z" fill="#6FBD62"/>
<path fill-rule="evenodd" clip-rule="evenodd" d="M22.4188 15.4381H22.7164V15.1923C22.6065 15.2388 22.413 15.2463 22.413 15.0761V13.6233C22.4179 13.4465 22.3956 13.2701 22.3468 13.1002C22.3116 12.9821 22.2484 12.8742 22.1626 12.7858C21.9685 12.5976 21.7349 12.5795 21.4867 12.5673C21.187 12.5521 20.8874 12.6002 20.6075 12.7086L20.6034 12.9904C20.9131 12.8602 21.4332 12.7347 21.761 12.8742C21.8518 12.9087 21.9305 12.969 21.9877 13.0475C22.0448 13.126 22.0779 13.2194 22.0829 13.3164C22.0917 13.4483 22.0922 13.5791 22.0922 13.711C21.3281 13.5593 20.3396 13.6372 20.3489 14.6269C20.3492 14.7902 20.3975 14.9499 20.4878 15.0861C20.5781 15.2223 20.7064 15.3289 20.8568 15.3928C21.2909 15.5671 21.8743 15.491 22.1353 15.072V15.1505C22.1362 15.2264 22.1668 15.299 22.2205 15.3527C22.2743 15.4063 22.347 15.4368 22.4229 15.4375L22.4188 15.4381ZM22.0673 14.5327C22.0585 14.7989 21.9836 15.2423 21.3188 15.2423C21.2326 15.2447 21.1468 15.2295 21.0667 15.1976C20.9866 15.1658 20.9138 15.118 20.8528 15.0571C20.7918 14.9961 20.7438 14.9234 20.7118 14.8434C20.6798 14.7633 20.6645 14.6776 20.6667 14.5914C20.6667 13.7447 21.5646 13.8586 22.0766 13.9522L22.0673 14.5327Z" fill="#420655"/>
<path fill-rule="evenodd" clip-rule="evenodd" d="M23.6491 12.6178H23.0616V12.8596H23.3597V15.4427H23.6538V13.5604C23.6491 13.1438 24.1768 12.784 24.5882 12.8114C24.7474 12.8218 24.9723 12.9107 25.0775 13.0502C25.1827 13.1897 25.2083 13.4262 25.2083 13.6069V15.4427H25.5314V13.5802C25.5314 12.934 25.2222 12.5923 24.558 12.5673C24.1739 12.5545 23.7967 12.7038 23.6491 13.0165V12.6178Z" fill="#420655"/>
<path fill-rule="evenodd" clip-rule="evenodd" d="M28.598 15.19C28.2412 15.2097 28.3237 15.2766 27.5264 13.8197L28.3981 12.622H28.0389L27.2416 13.7372H26.7593C26.7593 12.9867 26.7593 12.2365 26.7593 11.4865H26.1369V11.8299H26.4275V15.4428H26.7616V13.9795L27.2486 13.9882C28.1784 15.5573 27.9884 15.441 28.5986 15.4178L28.598 15.19Z" fill="#420655"/>
<path fill-rule="evenodd" clip-rule="evenodd" d="M17.0852 11.7601V12.0147H17.4211V15.4433H18.6415C18.9472 15.4433 19.2325 15.3916 19.4807 15.1719C19.7003 14.9773 19.7817 14.7024 19.7817 14.3944C19.7817 13.9539 19.5376 13.6157 19.1029 13.4977C19.2539 13.4214 19.3798 13.3032 19.4656 13.1573C19.5513 13.0114 19.5932 12.8439 19.5864 12.6748C19.5864 12.1071 19.1215 11.7607 18.5741 11.7607L17.0852 11.7601ZM17.7704 13.4082V12.017H18.5404C19.0866 12.042 19.2162 12.3349 19.2162 12.7184C19.2203 13.1485 19.0152 13.4094 18.5718 13.4094L17.7704 13.4082ZM17.7704 15.169V13.6848H18.5747C19.1424 13.6848 19.4034 13.8592 19.4034 14.3938C19.4034 14.9569 19.0721 15.169 18.6392 15.169H17.7704Z" fill="#420655"/>
<path fill-rule="evenodd" clip-rule="evenodd" d="M23.5149 20.656C23.3562 20.8885 23.0163 20.9728 22.7152 20.9728C22.0324 20.9728 21.718 20.577 21.718 19.9302V18.1246H22.2823V19.9046C22.2823 20.1981 22.3241 20.5712 22.8291 20.5712C23.1197 20.5712 23.405 20.5131 23.498 20.0482V18.1246H24.0472V20.3515C24.0548 20.5741 24.1082 20.6217 24.3837 20.5061V20.8263C24.2396 20.9495 23.6613 21.0628 23.5149 20.656Z" fill="#420655"/>
<path fill-rule="evenodd" clip-rule="evenodd" d="M35.6593 17.4029H35.3298V16.9717H36.2178V20.3876C36.2178 20.5973 36.3567 20.6322 36.5705 20.5084V20.8356C36.3171 21.039 35.6622 21.0099 35.6593 20.5183V17.4029Z" fill="#420655"/>
<path fill-rule="evenodd" clip-rule="evenodd" d="M40.2264 18.5413H39.7853V18.138H40.2264V17.4406L40.7872 17.2401V18.1391H41.4264V18.5424H40.7872V20.1347C40.7854 20.2029 40.7907 20.271 40.8029 20.3381C40.8761 20.6711 41.3393 20.5944 41.5496 20.4369V20.821C41.1365 21.0645 40.3508 21.0779 40.2456 20.4619C40.2319 20.3462 40.2255 20.2297 40.2264 20.1132V18.5413Z" fill="#420655"/>
<path fill-rule="evenodd" clip-rule="evenodd" d="M27.0133 20.3865C27.0133 20.6456 27.2457 20.5765 27.3695 20.4864V20.8426C27.072 21.017 26.6913 21.0054 26.4775 20.7107C26.2218 21.0641 25.117 21.1257 24.8631 20.4853C24.5144 19.599 25.1374 18.7918 26.4769 19.1806C26.4926 18.1259 25.4547 18.4641 25.02 18.7122L25.0328 18.2857C25.4611 17.9864 26.3113 18.0015 26.7366 18.3438C26.8379 18.4284 26.9152 18.5379 26.961 18.6617C27.022 18.8145 27.0133 18.9923 27.0133 19.1556V20.3859V20.3865ZM26.4775 20.0378V19.5473C25.3012 19.2341 25.2059 19.9837 25.4343 20.3795C25.6737 20.7973 26.4856 20.5852 26.4775 20.0407V20.0378Z" fill="#420655"/>
<path fill-rule="evenodd" clip-rule="evenodd" d="M28.3376 18.4547C28.4608 18.2432 28.7927 18.0723 29.0931 18.0723C29.4999 18.0723 29.9305 18.1886 30.0758 18.5291C30.1775 18.2089 30.618 18.0328 30.9754 18.0595C31.6425 18.1095 31.9168 18.4774 31.9168 19.0905V20.9228H31.3357V19.116C31.3438 18.2101 30.1734 18.4472 30.1769 19.0847V20.9228H29.633V19.116C29.633 18.2385 28.4922 18.4187 28.4823 19.0428V20.9228H27.9058V18.5401H27.5519V18.1235L28.2319 18.1171L28.3376 18.4547Z" fill="#420655"/>
<path fill-rule="evenodd" clip-rule="evenodd" d="M20.4354 18.3565L19.39 20.9025H19.0262L17.911 18.3496V20.9106H17.4014V17.2902H17.9999L19.2203 20.1348L20.3831 17.2902H20.948V20.9106H20.4354V18.3565Z" fill="#420655"/>
<path fill-rule="evenodd" clip-rule="evenodd" d="M34.776 20.3865C34.776 20.6456 35.0084 20.5765 35.1328 20.4864V20.8426C34.8352 21.017 34.454 21.0054 34.2402 20.7107C33.9845 21.0641 32.8797 21.1257 32.6264 20.4853C32.2777 19.599 32.9007 18.7918 34.2402 19.1806C34.2559 18.1259 33.2174 18.4641 32.7827 18.7122L32.7961 18.2857C33.2244 17.9864 34.0745 18.0015 34.4999 18.3438C34.6009 18.4286 34.6781 18.5381 34.7243 18.6617C34.7824 18.8145 34.776 18.9923 34.776 19.1556V20.3859V20.3865ZM34.2402 20.0378V19.5473C33.0645 19.2341 32.9687 19.9837 33.1976 20.3795C33.4365 20.7973 34.2489 20.5852 34.2402 20.0407V20.0378Z" fill="#420655"/>
<path fill-rule="evenodd" clip-rule="evenodd" d="M39.228 20.3865C39.228 20.6456 39.4605 20.5765 39.5849 20.4864V20.8426C39.2873 21.017 38.9061 21.0054 38.6922 20.7107C38.4366 21.0641 37.3318 21.1257 37.0785 20.4853C36.7298 19.599 37.3528 18.7918 38.6922 19.1806C38.7079 18.1259 37.6695 18.4641 37.2348 18.7122L37.2482 18.2857C37.6764 17.9864 38.5266 18.0015 38.952 18.3438C39.0529 18.4286 39.1302 18.5381 39.1763 18.6617C39.2344 18.8145 39.228 18.9923 39.228 19.1556V20.3859V20.3865ZM38.6922 20.0378V19.5473C37.5166 19.2341 37.4207 19.9837 37.6497 20.3795C37.8886 20.7973 38.701 20.5852 38.6922 20.0407V20.0378Z" fill="#420655"/>
</svg>
