<svg width="34" height="24" viewBox="0 0 34 24" fill="none" xmlns="http://www.w3.org/2000/svg">
<path d="M9.25434 8.01615C8.9104 7.94552 8.55262 8.11109 8.37153 8.42451C8.32877 8.49876 8.29797 8.57859 8.27847 8.66072C8.19862 8.34106 7.94742 8.08186 7.62832 8.01615C7.28438 7.94552 6.92629 8.11109 6.7452 8.42451C6.70245 8.49876 6.67164 8.57859 6.65214 8.66072C6.57197 8.34139 6.32109 8.08186 6.00199 8.01615C5.65804 7.94552 5.29995 8.11109 5.11887 8.42451C4.93715 8.73924 4.96607 9.15188 5.18992 9.43539C5.41345 9.71859 5.79228 9.82865 6.12334 9.70413C6.38711 9.60492 6.58392 9.37035 6.65245 9.09307C6.68201 9.21659 6.7364 9.33421 6.81625 9.43539C7.03978 9.71859 7.41862 9.82865 7.74967 9.70413C8.01345 9.60492 8.21025 9.37035 8.27879 9.09307C8.30834 9.21659 8.36273 9.33421 8.44258 9.43539C8.66611 9.71859 9.04495 9.82865 9.376 9.70413C9.7058 9.57995 9.93184 9.24386 9.93184 8.87755C9.93153 8.46393 9.64324 8.09631 9.25434 8.01615Z" fill="#FDAF27"/>
<path d="M6.57093 12.2807C6.65645 12.6628 6.87432 13.0192 7.25567 13.1283C7.61785 13.2318 8.02153 13.0639 8.20796 12.7212C8.31988 12.5156 8.30573 12.283 8.30479 12.0553C8.30416 11.9019 8.30322 11.7488 8.30353 11.5954C8.30353 11.4265 8.30353 11.2576 8.30447 11.0891C8.30542 10.8729 8.29945 10.663 8.40256 10.4669C8.54498 10.1955 8.82825 10.0286 9.12409 10.0408C9.42275 10.0533 9.69502 10.2491 9.81386 10.5359C9.89277 10.7264 9.87925 10.9331 9.87988 11.1358C9.88051 11.303 9.88051 11.4705 9.88051 11.6378C9.88051 11.9991 9.9022 12.376 9.83492 12.7318C9.6793 13.5554 9.13321 14.2722 8.39313 14.6024C7.65306 14.9326 6.77654 14.8442 6.10941 14.3744C5.78056 14.1428 5.50956 13.8225 5.33099 13.4522C5.15461 13.0859 5.04772 12.6283 5.11531 12.2183C5.16593 11.9127 5.39701 11.6631 5.68782 11.6006C5.98994 11.5359 6.30622 11.6818 6.46373 11.9587C6.52095 12.0589 6.54578 12.168 6.57093 12.2807Z" fill="#FDAF27"/>
<path d="M29.8412 12.2242C29.8412 13.3432 28.9638 14.2365 27.8558 14.2365C26.7555 14.2365 25.8929 13.3508 25.8929 12.2242C25.8929 11.0977 26.7555 10.2195 27.8631 10.2195C28.9641 10.2195 29.8412 11.1053 29.8412 12.2242ZM26.9118 12.2318C26.9118 12.8379 27.3132 13.2729 27.8634 13.2729C28.4064 13.2729 28.8151 12.83 28.8151 12.2318C28.8151 11.6256 28.4061 11.1752 27.8634 11.1752C27.3132 11.1752 26.9118 11.6181 26.9118 12.2318Z" fill="#0C0E19"/>
<path d="M13.9599 12.9803C14.1466 13.0924 14.3261 13.207 14.55 13.1932C14.7644 13.1801 14.9603 13.0628 15.0823 12.8785C15.1958 12.7073 15.1932 12.5119 15.1932 12.3138C15.1932 11.9793 15.1932 9.68914 15.1932 9.52258C15.1932 9.40727 15.1873 9.29327 15.2297 9.18321C15.3557 8.85698 15.7641 8.75185 16.0207 8.98018C16.158 9.10239 16.1971 9.27027 16.1971 9.44932C16.1971 9.80971 16.2071 12.3046 16.1945 12.5519C16.1719 12.9984 15.9776 13.4308 15.6723 13.7425C15.3561 14.0658 14.9225 14.2435 14.4815 14.2432C14.0579 14.2429 13.6106 14.073 13.3333 13.7274C13.222 13.5885 13.1573 13.4242 13.201 13.2422C13.2431 13.0667 13.3786 12.9265 13.5474 12.8851C13.7008 12.8483 13.8297 12.9022 13.9599 12.9803Z" fill="#0C0E19"/>
<path d="M20.9154 13.3028L20.9161 13.3025C20.762 13.2049 20.6668 13.0315 20.6639 12.8432V10.7442C20.6639 10.4545 20.4391 10.2199 20.1619 10.2199C19.9078 10.2199 19.6988 10.417 19.6651 10.673C19.4117 10.3875 19.0282 10.2199 18.5679 10.2199C17.5345 10.2199 16.7834 11.0669 16.7834 12.2321C16.7834 13.3978 17.5345 14.2444 18.5679 14.2444C18.5726 14.2444 18.5773 14.2441 18.582 14.2441C18.5868 14.2441 18.5915 14.2444 18.5962 14.2444C19.092 14.2444 19.5221 14.0492 19.8358 13.7178C19.9962 13.9783 20.2549 14.1691 20.5643 14.2276C20.5945 14.2332 20.6246 14.2362 20.6542 14.2362C20.6561 14.2362 20.6579 14.2359 20.6595 14.2355C20.6617 14.2355 20.6643 14.2359 20.6664 14.2359C20.9324 14.2359 21.1478 14.0108 21.1478 13.7329C21.1481 13.5502 21.0547 13.3909 20.9154 13.3028ZM18.754 13.2887C18.1963 13.2887 17.8023 12.8458 17.8023 12.2321C17.8023 11.6181 18.2038 11.1677 18.754 11.1677C19.3042 11.1677 19.6834 11.6027 19.6834 12.2321C19.6834 12.8613 19.3114 13.2887 18.754 13.2887Z" fill="#0C0E19"/>
<path d="M25.3455 10.7478C25.3455 10.4449 25.1373 10.2195 24.8547 10.2195C24.5944 10.2195 24.3863 10.4216 24.3639 10.7012C24.1112 10.3983 23.7169 10.2195 23.2412 10.2195C22.2078 10.2195 21.4568 11.0665 21.4568 12.2318C21.4568 13.3971 22.2078 14.244 23.2412 14.244C23.7053 14.244 24.0889 14.0762 24.3416 13.7785V13.9033C24.3381 14.5305 23.9656 14.951 23.4123 14.951C23.1753 14.951 22.9621 14.8722 22.7961 14.7234C22.7342 14.6678 22.6794 14.6028 22.6332 14.5302C22.4798 14.289 22.1682 14.2236 21.9375 14.384C21.7067 14.5443 21.6442 14.8699 21.7976 15.111C21.8947 15.2635 22.0107 15.4008 22.1425 15.519C22.493 15.8338 22.9322 16 23.4126 16C24.5202 16 25.3269 15.134 25.3448 13.9352L25.3458 13.7082C25.3458 13.7082 25.3458 13.7082 25.3458 13.7079V10.7478H25.3455ZM23.4274 13.2887C22.8697 13.2887 22.4758 12.8458 22.4758 12.2321C22.4758 11.6184 22.8772 11.1677 23.4274 11.1677C23.9776 11.1677 24.3567 11.6026 24.3567 12.2321C24.3567 12.8612 23.9848 13.2887 23.4274 13.2887Z" fill="#0C0E19"/>
</svg>
