<svg width="46" height="32" viewBox="0 0 46 32" fill="none" xmlns="http://www.w3.org/2000/svg">
<path d="M16.9084 7H21.8492C21.0267 8.85043 20.2025 10.7002 19.3787 12.5502C18.6062 14.2862 17.8331 16.0219 17.0604 17.7577C15.4126 17.7584 13.7648 17.7582 12.1172 17.7579C13.7143 14.172 15.3101 10.5853 16.9084 7Z" fill="#FFCA08"/>
<path d="M21.8491 7H21.8505C22.3681 8.1657 22.8889 9.33005 23.4063 10.496L23.4099 10.5041C23.0569 11.2741 22.7197 12.0513 22.3733 12.8242C21.9746 13.7159 21.5791 14.6091 21.1809 15.5009C21.0968 15.68 21.0292 15.8668 20.9329 16.0398C20.4143 14.8768 19.897 13.7131 19.3787 12.5501C20.2025 10.7002 21.0267 8.85043 21.8491 7Z" fill="#FA9D1C"/>
<path d="M24.9641 7H24.9655C25.7888 8.85088 26.613 10.7013 27.4373 12.5517C26.9147 13.7154 26.3998 14.8827 25.8786 16.047C25.0527 14.2007 24.2328 12.3518 23.4099 10.5041L23.4063 10.496C23.9284 9.33186 24.446 8.1657 24.9641 7Z" fill="#9E9FA3"/>
<path d="M24.9655 7H29.9062C31.5054 10.5851 33.1005 14.172 34.6981 17.7577C33.0508 17.7593 31.4032 17.7579 29.7558 17.7584C28.9822 16.0231 28.2098 14.2873 27.4373 12.5517C26.613 10.7013 25.7888 8.85088 24.9655 7Z" fill="#636466"/>
<path d="M32.2545 20.7845C32.5729 20.6101 32.9492 20.5771 33.3049 20.6146C33.6346 20.6495 33.9614 20.7743 34.2065 21.0018C34.4905 21.2607 34.6518 21.6313 34.7058 22.0074C34.3564 22.0076 34.0071 22.0078 33.6577 22.0071C33.6127 21.8366 33.5245 21.6569 33.3524 21.5852C33.138 21.4992 32.8608 21.5013 32.6844 21.6668C32.5643 21.7785 32.5331 21.9481 32.5144 22.1035C32.4793 22.435 32.4843 22.769 32.4893 23.1016C32.4992 23.3239 32.5001 23.5523 32.5709 23.7658C32.6245 23.9322 32.7846 24.0459 32.9553 24.0656C33.1568 24.0896 33.3881 24.0507 33.5274 23.8901C33.6516 23.7447 33.6751 23.5437 33.676 23.3594C33.4673 23.3531 33.2583 23.3587 33.0496 23.3567C33.0494 23.0659 33.0492 22.7751 33.0499 22.4843C33.6036 22.4843 34.1574 22.484 34.7115 22.4845C34.7029 22.9852 34.751 23.4996 34.6027 23.9856C34.496 24.348 34.223 24.6456 33.8938 24.8222C33.6817 24.936 33.4413 24.983 33.2034 25H32.928C32.6975 24.9837 32.4671 24.9306 32.2627 24.8204C31.9522 24.6533 31.6849 24.3845 31.5696 24.0462C31.412 23.5982 31.4477 23.1154 31.4421 22.6489C31.4425 22.2817 31.4445 21.904 31.5701 21.554C31.6854 21.2193 31.9495 20.9538 32.2545 20.7845Z" fill="#636466"/>
<path d="M8 20.685C8.39935 20.6974 8.7996 20.6868 9.1994 20.6904C9.46239 20.6954 9.73013 20.6698 9.98814 20.7345C10.2622 20.7983 10.522 20.9548 10.6749 21.1951C10.8296 21.4353 10.8748 21.7361 10.8293 22.0151C10.7742 22.3428 10.5401 22.6349 10.2272 22.7505C10.4454 22.8346 10.6426 22.9827 10.7624 23.186C10.9361 23.4739 10.9458 23.8352 10.8592 24.1532C10.781 24.4415 10.5675 24.6864 10.2936 24.8051C10.0926 24.8962 9.86965 24.9308 9.65008 24.9304C9.10013 24.9299 8.54995 24.9304 8 24.9302V20.685ZM8.45475 21.0972C8.45339 21.5866 8.45452 22.0757 8.4543 22.5651C8.83058 22.5657 9.20709 22.5653 9.58359 22.5653C9.8156 22.5623 10.0634 22.4961 10.2233 22.3181C10.3778 22.1474 10.4146 21.9005 10.3803 21.6793C10.3563 21.521 10.2762 21.369 10.1482 21.2707C9.98905 21.1459 9.78214 21.1004 9.58359 21.0975C9.20731 21.097 8.83103 21.0977 8.45475 21.0972ZM8.45452 22.9723C8.45384 23.4892 8.45407 24.0062 8.4543 24.5231C8.80028 24.5233 9.14603 24.5231 9.49201 24.5233C9.63651 24.5256 9.78349 24.5247 9.92302 24.4813C10.1306 24.4232 10.3158 24.2744 10.3963 24.0715C10.5103 23.7823 10.4725 23.4126 10.2398 23.1914C10.0598 23.0191 9.80023 22.9651 9.55849 22.9721C9.19035 22.9725 8.82244 22.9723 8.45452 22.9723Z" fill="#636466"/>
<path d="M12.7553 20.6904C12.8831 20.6906 13.0108 20.6893 13.1388 20.6911C13.6562 22.1035 14.1727 23.5164 14.6923 24.9279C14.5302 24.9322 14.3678 24.9308 14.2057 24.9288C14.094 24.6092 13.9825 24.2897 13.8663 23.972C13.2505 23.9743 12.6348 23.9722 12.019 23.9729C11.9055 24.2918 11.7929 24.6108 11.6803 24.9299C11.5186 24.9308 11.3569 24.9297 11.1954 24.9303C11.7144 23.5168 12.2352 22.1037 12.7553 20.6904ZM12.9462 21.3629C12.6827 22.1008 12.4195 22.8386 12.1572 23.577C12.6836 23.5772 13.2098 23.5776 13.736 23.5767C13.4776 22.8391 13.2186 22.1017 12.9593 21.3643C12.9561 21.364 12.9495 21.3634 12.9462 21.3629Z" fill="#636466"/>
<path d="M15.1362 20.6906C15.2796 20.6897 15.423 20.6904 15.5666 20.6904C16.3157 21.8174 17.064 22.9451 17.8134 24.0722C17.8152 22.9447 17.8129 21.8174 17.8147 20.6899C17.9656 20.6899 18.1166 20.6913 18.2677 20.6893C18.2733 22.1028 18.2686 23.5166 18.2699 24.9301C18.1261 24.9301 17.9825 24.9301 17.8387 24.9301C17.0886 23.7995 16.3413 22.667 15.591 21.5364C15.5896 22.6677 15.5905 23.7988 15.5905 24.9299C15.4392 24.9306 15.2877 24.9299 15.1365 24.9301C15.136 23.517 15.1365 22.1039 15.1362 20.6906Z" fill="#636466"/>
<path d="M19.2545 20.6926C19.406 20.6872 19.5578 20.6917 19.7097 20.6904C19.7102 21.5004 19.7088 22.3104 19.7104 23.1206C20.3705 22.3115 21.0254 21.4981 21.6861 20.6897C21.8711 20.6911 22.0558 20.6897 22.2408 20.6904C21.7967 21.2372 21.3505 21.7819 20.9071 22.3291C21.4148 23.1964 21.9233 24.0629 22.4305 24.9301C22.2505 24.9296 22.0708 24.931 21.891 24.9294C21.4622 24.178 21.031 23.4279 20.6018 22.6767C20.3158 23.0161 20.0338 23.3592 19.7482 23.699C19.7314 23.7223 19.7032 23.7443 19.7097 23.7771C19.7097 24.1615 19.7095 24.5457 19.7097 24.9301C19.5584 24.9303 19.4072 24.9301 19.2557 24.9301C19.2548 23.5177 19.2572 22.105 19.2545 20.6926Z" fill="#636466"/>
<path d="M23.1356 24.9299C23.1379 23.5168 23.1315 22.1033 23.1388 20.6904C23.48 20.6954 23.8215 20.6898 24.1629 20.6934C24.4775 21.3155 24.7956 21.936 25.1111 22.5578C25.4306 21.9371 25.7447 21.3136 26.0626 20.6922C26.4048 20.6925 26.7469 20.692 27.0893 20.6925C27.0891 22.1051 27.0893 23.5175 27.0891 24.9302C26.7413 24.9304 26.3932 24.9302 26.0455 24.9302C26.0441 24.2258 26.0468 23.5214 26.0441 22.8167C25.8476 23.1602 25.6515 23.504 25.4541 23.847C25.3858 23.9644 25.2545 24.0428 25.1179 24.0415C24.9797 24.0464 24.8433 23.9709 24.7732 23.8522C24.5736 23.5092 24.3805 23.1623 24.1799 22.8199C24.1794 23.5234 24.1799 24.2269 24.1794 24.9302C23.8314 24.9299 23.4836 24.9306 23.1356 24.9299Z" fill="#636466"/>
<path d="M27.9599 20.6925C28.9209 20.692 29.882 20.6922 30.8428 20.6925C30.8439 21.0009 30.841 21.3096 30.8444 21.618C30.2311 21.6257 29.6174 21.6185 29.0039 21.6216C29.0037 21.857 29.0035 22.0922 29.0039 22.3276C29.5279 22.3283 30.0516 22.3276 30.5755 22.3281C30.5753 22.6383 30.5753 22.9483 30.5755 23.2586C30.0516 23.2595 29.5276 23.2579 29.0039 23.2593C29.0037 23.5064 29.0035 23.7538 29.0039 24.001C29.617 24.0017 30.2298 24.001 30.8428 24.0012C30.843 24.311 30.843 24.6206 30.8428 24.9302C29.8818 24.9302 28.9209 24.9304 27.9601 24.9302C27.9597 23.5175 27.9597 22.1051 27.9599 20.6925Z" fill="#636466"/>
<path d="M36.4681 20.6924C36.7372 20.6931 37.0065 20.6899 37.2758 20.694C37.6362 21.6942 38.0021 22.6923 38.3646 23.6916C38.5188 24.1038 38.6586 24.522 38.8216 24.9308C38.4614 24.9292 38.1012 24.931 37.7412 24.9299C37.6717 24.7196 37.6032 24.5093 37.5329 24.2992C37.0908 24.2997 36.6485 24.297 36.2064 24.3006C36.1397 24.5111 36.0689 24.7203 36 24.9301C35.6422 24.9303 35.2845 24.9301 34.927 24.9301C35.4398 23.5173 35.9541 22.1048 36.4681 20.6924ZM36.869 22.2319C36.7412 22.6378 36.6114 23.0431 36.4834 23.4487C36.7414 23.4494 36.9997 23.449 37.2582 23.449C37.1281 23.0433 37.004 22.6358 36.869 22.2319Z" fill="#636466"/>
<path d="M23.4099 10.5042C24.2328 12.3519 25.0527 14.2007 25.8786 16.0471C25.6574 16.533 25.2861 16.9482 24.8309 17.227C24.1566 17.6458 23.2953 17.7408 22.5438 17.4877C21.8374 17.2553 21.2386 16.718 20.9329 16.0398C21.0292 15.8668 21.0968 15.6801 21.1809 15.501C21.5792 14.6091 21.9747 13.7159 22.3733 12.8243C22.7198 12.0513 23.0569 11.2741 23.4099 10.5042Z" fill="#F37022"/>
</svg>
