<svg width="46" height="32" viewBox="0 0 46 32" fill="none" xmlns="http://www.w3.org/2000/svg">
<rect width="46" height="32" rx="4" fill="white"/>
<path fill-rule="evenodd" clip-rule="evenodd" d="M19.2431 11.9412C20.1843 12.3059 21.1216 12.698 22.0353 13.1412C19.1098 14.3176 16.2667 15.7255 13.5765 17.3451C12.6627 16.8745 11.7216 16.4039 10.7843 15.9882C13.498 14.4235 16.3176 13.0667 19.2431 11.9412Z" fill="#0067B1"/>
<path fill-rule="evenodd" clip-rule="evenodd" d="M15.7451 10.7137C12.7176 11.6784 9.79215 12.9333 7 14.4471C7.88627 14.7882 8.77647 15.1255 9.63529 15.4902C12.3255 13.8981 15.1686 12.5686 18.1176 11.5216C17.3333 11.2353 16.5529 10.949 15.7412 10.7137H15.7451Z" fill="#0067B1"/>
<path fill-rule="evenodd" clip-rule="evenodd" d="M25.5843 11.8117C23.1843 10.6627 20.7019 9.69801 18.1725 8.9137C17.2588 9.17644 16.3725 9.46272 15.5098 9.74899C18.1216 10.5333 20.6784 11.5255 23.1333 12.698C23.9412 12.3843 24.7529 12.098 25.5882 11.8117H25.5843Z" fill="#EE2A24"/>
<path fill-rule="evenodd" clip-rule="evenodd" d="M29.4745 10.6627C27.047 9.59215 24.5137 8.70588 21.9294 8C21.0941 8.15686 20.2863 8.34117 19.4745 8.54902C22.0314 9.30588 24.5372 10.2471 26.9412 11.3961C27.7764 11.1333 28.6392 10.8745 29.4745 10.6667V10.6627Z" fill="#EE2A24"/>
<path fill-rule="evenodd" clip-rule="evenodd" d="M35.7411 12.749C29.6078 14.8118 23.8627 17.7608 18.6706 21.4431C19.9765 22.251 21.2274 23.0863 22.4549 24C27.3608 20.1098 32.8196 16.8745 38.6666 14.4196C37.7019 13.8196 36.7333 13.2706 35.7411 12.749Z" fill="#EE2A24"/>
<path fill-rule="evenodd" clip-rule="evenodd" d="M31.5098 10.7648C25.1412 12.4354 19.1647 15.1491 13.7608 18.753C14.9608 19.353 16.1608 19.9804 17.3372 20.6589C22.6353 17.004 28.5098 14.1334 34.7725 12.255C33.7019 11.7334 32.6313 11.2118 31.5098 10.7687V10.7648Z" fill="#EE2A24"/>
</svg>
