<svg width="28" height="20" viewBox="0 0 28 20" fill="none" xmlns="http://www.w3.org/2000/svg">
<path d="M9.01103 7.14369C9.01103 7.14369 8.79524 6.64643 8.67982 6.60217C8.5644 6.55792 8.31622 8.12727 8.44031 8.46487C8.44031 8.46487 9.08356 8.9708 9.1894 9.41058L9.57353 8.92244L9.82992 8.00592L9.01057 7.14369H9.01103Z" fill="url(#paint0_linear_301_1256)" stroke="#A3822E" stroke-width="0.075" stroke-miterlimit="10"/>
<path d="M9.14423 8.82979C9.14423 8.82979 8.78702 8.08435 8.76147 7.10944" stroke="#A3822E" stroke-width="0.025" stroke-miterlimit="10"/>
<path d="M18.2533 7.14369C18.2533 7.14369 18.4691 6.64643 18.5845 6.60217C18.6999 6.55792 18.9481 8.12727 18.824 8.46487C18.824 8.46487 18.1808 8.9708 18.0749 9.41058L17.6908 8.92244L17.4344 8.00592L18.2538 7.14369H18.2533Z" fill="url(#paint1_linear_301_1256)" stroke="#A3822E" stroke-width="0.075" stroke-miterlimit="10"/>
<path d="M18.1201 8.82979C18.1201 8.82979 18.4773 8.08435 18.5029 7.10944" stroke="#A3822E" stroke-width="0.025" stroke-miterlimit="10"/>
<path d="M10.2866 5.93339C10.2866 5.93339 10.0101 5.38184 9.87324 5.38184C9.73638 5.38184 9.41156 6.3312 9.56119 6.79744C9.71083 7.26369 9.92114 7.31706 9.86913 7.60447C9.81758 7.89188 10.7026 7.10538 10.7113 7.04106C10.72 6.97673 10.6602 6.28832 10.6602 6.28832L10.2866 5.93339Z" fill="url(#paint2_linear_301_1256)" stroke="#A3822E" stroke-width="0.075" stroke-miterlimit="10"/>
<path d="M10.9786 4.78735C10.9786 4.78735 10.0238 5.01546 10.3568 6.98171C10.6899 8.94795 11.391 6.70296 11.391 6.70296C11.391 6.70296 12.4216 5.88179 12.0539 5.68517C11.6862 5.48854 10.9786 4.78735 10.9786 4.78735Z" fill="url(#paint3_linear_301_1256)" stroke="#A3822E" stroke-width="0.075" stroke-miterlimit="10"/>
<path d="M10.3568 6.98173C10.3568 6.98173 10.6766 5.42013 11.4381 5.34121C12.1995 5.26229 12.3277 6.16147 12.3277 6.16147L10.7122 6.77598L10.3573 6.98173H10.3568Z" fill="url(#paint4_linear_301_1256)" stroke="#A3822E" stroke-width="0.075" stroke-miterlimit="10"/>
<path d="M9.67437 13.9357L9.14426 14.1099C9.14426 14.1099 9.56305 14.5374 9.92254 14.4475C10.282 14.3577 10.7309 13.8727 10.7309 13.8727C10.7309 13.8727 10.7729 13.5648 10.7246 13.5493C10.6762 13.5338 9.69809 13.7673 9.69809 13.7673L9.67482 13.9357H9.67437Z" fill="url(#paint5_linear_301_1256)" stroke="#A3822E" stroke-width="0.075" stroke-miterlimit="10"/>
<path d="M9.07535 12.7391L8.3956 12.7523C8.3956 12.7523 8.92754 13.656 9.56942 13.8768C9.56942 13.8768 9.84588 14.1113 10.365 13.9106C10.8842 13.7099 10.9996 13.3654 10.9996 13.3654L10.0635 12.4845C10.0635 12.4845 9.48821 12.5493 9.44579 12.5552C9.40336 12.5611 9.0758 12.7391 9.0758 12.7391H9.07535Z" fill="url(#paint6_linear_301_1256)" stroke="#A3822E" stroke-width="0.075" stroke-miterlimit="10"/>
<path d="M9.71859 12.843C9.71859 12.843 8.85088 12.9147 8.44714 12.2089C8.04294 11.5032 8.10727 11.2276 8.10727 11.2276C8.10727 11.2276 8.07533 11.093 8.58354 11.4502L9.76877 11.5355C9.76877 11.5355 9.82853 11.8777 9.83081 12.0241C9.83309 12.1706 9.92297 12.6259 9.92297 12.671C9.92297 12.7162 9.7195 12.8435 9.7195 12.8435L9.71859 12.843Z" fill="url(#paint7_linear_301_1256)" stroke="#A3822E" stroke-width="0.075" stroke-miterlimit="10"/>
<path d="M10.553 13.6825C10.553 13.6825 9.99232 13.4083 9.6716 12.7541C9.35089 12.0999 9.44487 11.9015 9.44487 11.9015L9.84724 11.8221C9.84724 11.8221 10.0822 12.0739 10.1784 12.3116C10.2747 12.5488 10.6794 13.0684 10.7756 13.1519C10.8714 13.2354 10.8778 13.5037 10.8778 13.5037L10.553 13.6825Z" fill="url(#paint8_linear_301_1256)" stroke="#A3822E" stroke-width="0.075" stroke-miterlimit="10"/>
<path d="M8.49688 9.9954C8.49688 9.9954 8.1456 9.76501 8.00464 9.76501C8.00464 9.76501 7.94533 10.3681 8.25099 10.9516C8.55619 11.5351 8.89561 11.8398 9.54707 11.9156C9.54707 11.9156 10.064 10.9776 9.74324 10.6824C9.42252 10.3873 8.49734 9.99586 8.49734 9.99586L8.49688 9.9954Z" fill="url(#paint9_linear_301_1256)" stroke="#A3822E" stroke-width="0.075" stroke-miterlimit="10"/>
<path d="M9.18987 9.41054C9.18987 9.41054 9.20173 8.93928 8.29525 8.31519C8.29525 8.31519 7.79935 9.70068 8.93257 10.3763L9.17025 10.5383L9.4458 9.91601L9.19032 9.41099L9.18987 9.41054Z" fill="url(#paint10_linear_301_1256)" stroke="#A3822E" stroke-width="0.075" stroke-miterlimit="10"/>
<path d="M9.91157 7.58389C9.91157 7.58389 9.90336 6.71573 9.14423 6.38635C9.14423 6.38635 8.63693 7.39137 9.60363 8.07112C9.60363 8.07112 9.94624 7.83937 9.91157 7.58389Z" fill="url(#paint11_linear_301_1256)" stroke="#A3822E" stroke-width="0.075" stroke-miterlimit="10"/>
<path d="M10.2168 13.6118C10.1734 13.6227 9.82627 13.5634 9.32854 13.3043C9.17115 13.2226 8.99916 13.1209 8.81668 12.9954" stroke="#A3822E" stroke-width="0.025" stroke-miterlimit="10"/>
<path d="M9.35135 12.4845C9.35135 12.4845 8.68438 12.0611 8.3956 11.5351" stroke="#A3822E" stroke-width="0.025" stroke-miterlimit="10"/>
<path d="M9.11824 11.2915C9.11824 11.2915 8.43302 10.8677 8.10318 10.0533" stroke="#A3822E" stroke-width="0.025" stroke-miterlimit="10"/>
<path d="M9.01102 9.91557C9.01102 9.91557 8.53018 9.4954 8.3956 8.62268" stroke="#A3822E" stroke-width="0.025" stroke-miterlimit="10"/>
<path d="M9.52245 7.68156L9.22318 6.60217" stroke="#A3822E" stroke-width="0.025" stroke-miterlimit="10"/>
<path d="M16.9778 5.93339C16.9778 5.93339 17.2542 5.38184 17.3911 5.38184C17.528 5.38184 17.8528 6.3312 17.7031 6.79744C17.5535 7.26369 17.3432 7.31706 17.3952 7.60447C17.4468 7.89188 16.5617 7.10538 16.553 7.04106C16.5444 6.97673 16.6041 6.28832 16.6041 6.28832L16.9778 5.93339Z" fill="url(#paint12_linear_301_1256)" stroke="#A3822E" stroke-width="0.075" stroke-miterlimit="10"/>
<path d="M16.2857 4.78735C16.2857 4.78735 17.2405 5.01546 16.9075 6.98171C16.5745 8.94795 15.8733 6.70296 15.8733 6.70296C15.8733 6.70296 14.8427 5.88179 15.2104 5.68517C15.5781 5.48854 16.2857 4.78735 16.2857 4.78735Z" fill="url(#paint13_linear_301_1256)" stroke="#A3822E" stroke-width="0.075" stroke-miterlimit="10"/>
<path d="M16.9075 6.98173C16.9075 6.98173 16.5877 5.42013 15.8263 5.34121C15.0649 5.26229 14.9367 6.16147 14.9367 6.16147L16.5521 6.77598L16.9071 6.98173H16.9075Z" fill="url(#paint14_linear_301_1256)" stroke="#A3822E" stroke-width="0.075" stroke-miterlimit="10"/>
<path d="M17.59 13.9357L18.1201 14.1099C18.1201 14.1099 17.7013 14.5374 17.3418 14.4475C16.9828 14.3572 16.5334 13.8727 16.5334 13.8727C16.5334 13.8727 16.4914 13.5648 16.5398 13.5493C16.5882 13.5338 17.5663 13.7673 17.5663 13.7673L17.5895 13.9357H17.59Z" fill="url(#paint15_linear_301_1256)" stroke="#A3822E" stroke-width="0.075" stroke-miterlimit="10"/>
<path d="M18.189 12.7391L18.8687 12.7523C18.8687 12.7523 18.3368 13.656 17.6949 13.8768C17.6949 13.8768 17.4185 14.1113 16.8993 13.9106C16.3801 13.7099 16.2647 13.3654 16.2647 13.3654L17.2008 12.4845C17.2008 12.4845 17.7761 12.5493 17.8185 12.5552C17.861 12.5611 18.1885 12.7391 18.1885 12.7391H18.189Z" fill="url(#paint16_linear_301_1256)" stroke="#A3822E" stroke-width="0.075" stroke-miterlimit="10"/>
<path d="M17.5457 12.843C17.5457 12.843 18.4135 12.9147 18.8172 12.2089C19.2214 11.5032 19.1571 11.2276 19.1571 11.2276C19.1571 11.2276 19.189 11.093 18.6808 11.4502L17.4956 11.5355C17.4956 11.5355 17.4358 11.8777 17.4335 12.0241C17.4312 12.1706 17.3414 12.6259 17.3414 12.671C17.3414 12.7162 17.5448 12.8435 17.5448 12.8435L17.5457 12.843Z" fill="url(#paint17_linear_301_1256)" stroke="#A3822E" stroke-width="0.075" stroke-miterlimit="10"/>
<path d="M16.7109 13.6825C16.7109 13.6825 17.2715 13.4083 17.5923 12.7541C17.913 12.0999 17.819 11.9015 17.819 11.9015L17.4166 11.8221C17.4166 11.8221 17.1817 12.0739 17.0854 12.3116C16.9892 12.5488 16.5845 13.0684 16.4882 13.1519C16.392 13.2354 16.386 13.5037 16.386 13.5037L16.7109 13.6825Z" fill="url(#paint18_linear_301_1256)" stroke="#A3822E" stroke-width="0.075" stroke-miterlimit="10"/>
<path d="M18.7674 9.9954C18.7674 9.9954 19.1187 9.76501 19.2597 9.76501C19.2597 9.76501 19.319 10.3681 19.0133 10.9516C18.7081 11.5351 18.3687 11.8398 17.7173 11.9156C17.7173 11.9156 17.2004 10.9776 17.5211 10.6824C17.8418 10.3873 18.767 9.99586 18.767 9.99586L18.7674 9.9954Z" fill="url(#paint19_linear_301_1256)" stroke="#A3822E" stroke-width="0.075" stroke-miterlimit="10"/>
<path d="M18.0745 9.41054C18.0745 9.41054 18.0626 8.93928 18.9691 8.31519C18.9691 8.31519 19.465 9.70068 18.3318 10.3763L18.0941 10.5383L17.8185 9.91601L18.074 9.41099L18.0745 9.41054Z" fill="url(#paint20_linear_301_1256)" stroke="#A3822E" stroke-width="0.075" stroke-miterlimit="10"/>
<path d="M17.3528 7.58389C17.3528 7.58389 17.361 6.71573 18.1201 6.38635C18.1201 6.38635 18.6274 7.39137 17.6607 8.07112C17.6607 8.07112 17.3181 7.83937 17.3528 7.58389Z" fill="url(#paint21_linear_301_1256)" stroke="#A3822E" stroke-width="0.075" stroke-miterlimit="10"/>
<path d="M10.8482 13.3882C10.8039 13.3681 9.82172 14.6688 9.82172 14.6688C9.82172 14.6688 11.0298 16 13.7442 16C16.4586 16 17.4249 14.5488 17.4249 14.5488L16.3728 13.2728C16.3728 13.2728 14.5512 15.0784 10.8477 13.3882H10.8482Z" fill="url(#paint22_linear_301_1256)" stroke="#A3822E" stroke-width="0.075" stroke-miterlimit="10"/>
<path d="M10.8354 14.5666L10.8454 14.5734C10.8436 14.6213 10.8491 14.6619 10.8619 14.6952C10.8751 14.7285 10.8988 14.7568 10.9339 14.7805C10.9595 14.7979 10.9869 14.807 11.0161 14.8079C11.0453 14.8088 11.0731 14.8024 11.0995 14.7887C11.126 14.7751 11.1479 14.7554 11.1648 14.7299C11.1917 14.6898 11.1995 14.6519 11.1871 14.6168C11.1748 14.5816 11.1502 14.5374 11.1132 14.4835C11.0763 14.4297 11.0526 14.3818 11.0425 14.3403C11.0325 14.2988 11.0439 14.2532 11.0772 14.2039C11.1173 14.1441 11.1689 14.1117 11.2314 14.1072C11.2939 14.1026 11.3564 14.1213 11.4189 14.1633C11.444 14.1802 11.4668 14.2012 11.4869 14.2258C11.5069 14.2504 11.5202 14.2764 11.5261 14.3029C11.5133 14.3106 11.4869 14.3316 11.4463 14.3649L11.4367 14.3585C11.4444 14.3257 11.4431 14.2947 11.4321 14.2655C11.4212 14.2363 11.4016 14.2121 11.3733 14.1929C11.3509 14.1779 11.3272 14.1688 11.3021 14.1656C11.277 14.1624 11.2533 14.1656 11.2305 14.1761C11.2077 14.1861 11.189 14.2021 11.1744 14.224C11.1474 14.2637 11.1401 14.3006 11.152 14.3357C11.1639 14.3709 11.1885 14.4156 11.2264 14.4708C11.2642 14.526 11.2884 14.5739 11.2989 14.6145C11.3094 14.6551 11.2989 14.6984 11.2683 14.7445C11.2455 14.7787 11.2186 14.8052 11.1876 14.8243C11.157 14.8435 11.1237 14.8554 11.0886 14.8595C11.0535 14.8636 11.0179 14.8613 10.9823 14.8517C10.9467 14.8421 10.912 14.8262 10.8787 14.8038C10.8527 14.7865 10.8272 14.7618 10.8021 14.7294C10.777 14.6975 10.7624 14.6679 10.7583 14.6405C10.7802 14.6245 10.8057 14.5999 10.8349 14.5666H10.8354Z" fill="#0C0E19"/>
<path d="M11.8295 14.8987L11.7099 15.1428C11.7031 15.1565 11.6985 15.1669 11.6963 15.1738C11.694 15.1806 11.6935 15.1875 11.6963 15.1934C11.6985 15.1998 11.704 15.2048 11.7127 15.2094C11.7204 15.213 11.7314 15.2167 11.746 15.2199L11.7346 15.2431C11.72 15.2431 11.7077 15.2408 11.6972 15.2381C11.6849 15.2345 11.673 15.2304 11.662 15.2249C11.6415 15.2139 11.6269 15.2002 11.6187 15.1843C11.6105 15.1683 11.6105 15.1478 11.6187 15.1241L11.6046 15.1291C11.5389 15.1519 11.4759 15.1482 11.4161 15.119C11.3778 15.1003 11.3505 15.0721 11.3349 15.0346C11.319 14.9972 11.3203 14.9594 11.339 14.922C11.3573 14.885 11.3801 14.8604 11.4079 14.8485C11.4358 14.8367 11.4645 14.833 11.4942 14.8376C11.5238 14.8421 11.5621 14.8517 11.6082 14.8658C11.6438 14.8763 11.6698 14.8832 11.6858 14.8859C11.7017 14.8887 11.7154 14.8877 11.7259 14.8827C11.7364 14.8777 11.746 14.8668 11.7542 14.8499C11.7734 14.8106 11.7775 14.7751 11.7665 14.7427C11.7556 14.7107 11.7305 14.6852 11.6917 14.666C11.6689 14.6546 11.6461 14.6487 11.6242 14.6482C11.6018 14.6478 11.5827 14.6501 11.5667 14.656C11.5507 14.6619 11.5384 14.6688 11.5307 14.677L11.5188 14.671L11.5475 14.6127C11.6228 14.6017 11.689 14.6099 11.7455 14.6377C11.8012 14.6651 11.8368 14.7007 11.8509 14.744C11.8655 14.7878 11.8582 14.8389 11.8295 14.8978V14.8987ZM11.6356 15.0816L11.7109 14.9279L11.6703 14.9174C11.6452 14.9101 11.6214 14.9037 11.6 14.8987C11.5781 14.8932 11.5571 14.8905 11.5361 14.8896C11.5156 14.8887 11.4955 14.8928 11.4773 14.9019C11.4586 14.911 11.444 14.927 11.433 14.9493C11.4171 14.9822 11.4139 15.0114 11.4234 15.0369C11.4335 15.0625 11.4545 15.083 11.4878 15.099C11.501 15.1054 11.5174 15.1085 11.538 15.1081C11.5585 15.1081 11.5763 15.1054 11.5918 15.0999C11.5968 15.0981 11.6023 15.0962 11.6082 15.0949C11.6141 15.093 11.6201 15.0908 11.626 15.088C11.6319 15.0853 11.6351 15.083 11.636 15.0812L11.6356 15.0816Z" fill="#0C0E19"/>
<path d="M11.9225 15.3503L12.0726 14.8102C12.0818 14.8134 12.0904 14.8166 12.0977 14.8193C12.105 14.822 12.1114 14.8243 12.1169 14.8257C12.1219 14.8271 12.1283 14.8284 12.136 14.8298C12.1438 14.8312 12.1525 14.833 12.163 14.8348L12.136 14.932C12.1552 14.9133 12.1748 14.8987 12.1944 14.8877C12.2145 14.8768 12.236 14.8704 12.2592 14.8677C12.2825 14.8654 12.3067 14.8677 12.3318 14.8745C12.3696 14.885 12.4011 14.9046 12.4257 14.9329C12.4508 14.9616 12.4641 14.9945 12.4654 15.0324C12.5307 14.9703 12.6 14.9493 12.6739 14.9699C12.7405 14.9886 12.7825 15.0196 12.7998 15.0638C12.8172 15.1081 12.8153 15.1669 12.7953 15.2404L12.7045 15.567C12.6972 15.5643 12.6912 15.562 12.6862 15.5602C12.6812 15.5584 12.6776 15.557 12.6739 15.5556C12.6703 15.5543 12.6662 15.5529 12.6598 15.5511C12.6529 15.5492 12.6484 15.5479 12.6461 15.5474C12.6438 15.547 12.6397 15.546 12.6333 15.5451C12.6269 15.5438 12.6201 15.5428 12.6132 15.5419L12.6967 15.2413C12.7072 15.203 12.7131 15.1697 12.7145 15.1409C12.7159 15.1122 12.71 15.0871 12.6958 15.0657C12.6821 15.0442 12.6575 15.0282 12.6228 15.0187C12.5717 15.0045 12.5325 15.0123 12.5051 15.0419C12.4777 15.072 12.4568 15.1131 12.4422 15.1656L12.3573 15.4708C12.35 15.468 12.3441 15.4657 12.3395 15.4639C12.335 15.4621 12.3308 15.4607 12.3277 15.4594C12.3245 15.458 12.3199 15.4566 12.3131 15.4548C12.3062 15.453 12.3007 15.4516 12.2975 15.4512C12.2943 15.4507 12.2898 15.4498 12.2848 15.4489C12.2797 15.448 12.2738 15.4466 12.267 15.4457L12.3587 15.1145C12.3737 15.0606 12.3751 15.0187 12.3628 14.9876C12.3509 14.9566 12.324 14.9356 12.2825 14.9242C12.2451 14.9137 12.215 14.9133 12.1912 14.922C12.1675 14.9306 12.1493 14.9457 12.1356 14.9671C12.1224 14.9881 12.111 15.0146 12.1023 15.0456L12.011 15.3745C12.0037 15.3718 11.9978 15.3695 11.9933 15.3677C11.9882 15.3658 11.9846 15.3645 11.9814 15.3631C11.9782 15.3617 11.9736 15.3604 11.9668 15.3585C11.9613 15.3572 11.9545 15.3553 11.9458 15.354C11.9371 15.3522 11.9289 15.3508 11.9207 15.3494L11.9225 15.3503Z" fill="#0C0E19"/>
<path d="M13.0653 15.5009L13.0357 15.9028C13.0279 15.9014 13.022 15.9005 13.017 15.8996C13.012 15.8987 13.0079 15.8982 13.0047 15.8973C13.0015 15.8969 12.9965 15.896 12.9896 15.8955C12.9823 15.8951 12.9768 15.8946 12.9736 15.8951C12.9705 15.8951 12.9659 15.8951 12.9609 15.8951C12.9559 15.8951 12.9495 15.8951 12.9426 15.8951L13.0056 15.0369C13.0156 15.0383 13.0243 15.0397 13.0325 15.041C13.0407 15.0424 13.0471 15.0433 13.0526 15.0438C13.0576 15.0438 13.064 15.0442 13.0717 15.0438C13.0795 15.0433 13.0886 15.0438 13.0996 15.0438L13.0909 15.1619H13.0932C13.1151 15.1268 13.1397 15.0981 13.1671 15.0766C13.1945 15.0552 13.2387 15.047 13.3003 15.0515C13.3368 15.0543 13.3692 15.0634 13.397 15.0798C13.4253 15.0958 13.4486 15.1172 13.4673 15.1441C13.486 15.1711 13.4997 15.2012 13.5074 15.2336C13.5156 15.2659 13.5179 15.3006 13.5156 15.3367C13.5088 15.4315 13.48 15.5045 13.4294 15.5565C13.3788 15.6081 13.3158 15.6314 13.2401 15.6259C13.1602 15.62 13.1028 15.578 13.0685 15.5004H13.0663L13.0653 15.5009ZM13.0772 15.3394C13.0722 15.406 13.0827 15.4612 13.1082 15.505C13.1338 15.5488 13.1753 15.573 13.2323 15.5771C13.2702 15.5798 13.3017 15.5707 13.3272 15.5502C13.3528 15.5292 13.3724 15.5004 13.3856 15.4635C13.3993 15.4265 13.408 15.3836 13.4116 15.3353C13.4148 15.2938 13.4125 15.255 13.4048 15.2194C13.397 15.1838 13.382 15.1542 13.3596 15.1304C13.3372 15.1067 13.3062 15.094 13.267 15.0912C13.225 15.088 13.1903 15.099 13.163 15.1236C13.1356 15.1482 13.1151 15.1806 13.1018 15.2199C13.0886 15.2591 13.0804 15.2992 13.0772 15.3398V15.3394Z" fill="#0C0E19"/>
<path d="M13.6388 15.3503C13.6352 15.3088 13.6397 15.2705 13.6516 15.2349C13.6634 15.1993 13.6821 15.1679 13.7072 15.14C13.7323 15.1127 13.7624 15.0908 13.7966 15.0743C13.8309 15.0579 13.8696 15.0483 13.9125 15.0447C13.9659 15.0406 14.0138 15.0479 14.0567 15.0679C14.0996 15.0876 14.1342 15.1181 14.1602 15.1596C14.1862 15.2012 14.2022 15.2504 14.2068 15.3079C14.21 15.3453 14.2068 15.3818 14.1967 15.4179C14.1872 15.4539 14.1707 15.4867 14.1479 15.5164C14.1251 15.5461 14.0959 15.5702 14.0603 15.5885C14.0252 15.6067 13.9841 15.6181 13.9381 15.6218C13.8874 15.6259 13.84 15.6181 13.7962 15.5981C13.7519 15.578 13.7159 15.547 13.6881 15.5041C13.6598 15.4612 13.6434 15.4101 13.6388 15.3503ZM13.9139 15.0807C13.8674 15.0848 13.8309 15.1003 13.8044 15.1282C13.7775 15.156 13.7597 15.1902 13.7506 15.2313C13.7414 15.2723 13.7387 15.3152 13.7424 15.3604C13.746 15.4028 13.7551 15.4411 13.7706 15.4763C13.7862 15.5114 13.8081 15.5392 13.8377 15.5597C13.8669 15.5803 13.9025 15.5889 13.9445 15.5857C13.986 15.5821 14.0188 15.5652 14.0439 15.5342C14.069 15.5032 14.0854 15.4676 14.0945 15.4265C14.1032 15.3855 14.1064 15.3467 14.1037 15.3111C14.1014 15.2819 14.0959 15.2532 14.0882 15.2258C14.08 15.1984 14.0685 15.1733 14.053 15.1505C14.0375 15.1277 14.0184 15.1099 13.9951 15.0971C13.9718 15.0844 13.9449 15.0789 13.9139 15.0816V15.0807Z" fill="#0C0E19"/>
<path d="M14.8181 15.3417L14.8304 15.4019C14.8044 15.4297 14.7761 15.4534 14.7451 15.4731C14.7141 15.4922 14.6817 15.5059 14.6488 15.5132C14.5964 15.5251 14.5471 15.5237 14.501 15.5105C14.4549 15.4968 14.4162 15.4717 14.3838 15.4338C14.3518 15.3964 14.329 15.349 14.3163 15.291C14.3044 15.2372 14.3039 15.187 14.3144 15.14C14.3249 15.093 14.3477 15.0529 14.382 15.0196C14.4162 14.9863 14.4609 14.9639 14.5161 14.9516C14.5471 14.9448 14.5777 14.9434 14.6082 14.948C14.6388 14.9521 14.6671 14.9626 14.6931 14.9785C14.7191 14.9945 14.7419 15.0173 14.7615 15.0465C14.7811 15.0762 14.7962 15.1122 14.8053 15.1555C14.8067 15.1606 14.8076 15.1651 14.8081 15.1688C14.8085 15.1724 14.8094 15.1765 14.8099 15.1811C14.7319 15.1957 14.6543 15.2121 14.5772 15.229L14.4157 15.2646C14.4157 15.2701 14.4175 15.2783 14.4198 15.2888C14.4262 15.3175 14.4367 15.3444 14.4508 15.3681C14.465 15.3923 14.4832 15.4124 14.5047 15.4284C14.5261 15.4443 14.5512 15.4553 14.5786 15.4607C14.606 15.4662 14.6352 15.4653 14.6657 15.4585C14.7237 15.4457 14.7743 15.4069 14.8176 15.3417H14.8181ZM14.4066 15.2217L14.7109 15.1546C14.6963 15.0962 14.6744 15.0506 14.6452 15.0182C14.616 14.9858 14.5754 14.9753 14.5243 14.9867C14.4905 14.9945 14.4641 15.01 14.4449 15.0342C14.4258 15.0579 14.4134 15.0867 14.4075 15.12C14.4016 15.1533 14.4016 15.1875 14.407 15.2222L14.4066 15.2217Z" fill="#0C0E19"/>
<path d="M15.0457 15.3983L14.8724 14.8654C14.882 14.8631 14.8911 14.8608 14.8988 14.859C14.9066 14.8572 14.9134 14.8554 14.9185 14.854C14.923 14.8526 14.9289 14.8499 14.9362 14.8472C14.9435 14.844 14.9522 14.8403 14.9618 14.8362L14.9983 14.948L14.9992 14.9325C15.0206 14.8485 15.0558 14.7983 15.1055 14.7824C15.1201 14.7778 15.132 14.7755 15.1415 14.7764L15.1566 14.875C15.1529 14.875 15.1443 14.875 15.1306 14.8727C15.1169 14.8704 15.106 14.8713 15.0977 14.8741C15.0845 14.8782 15.0722 14.885 15.0608 14.8937C15.0494 14.9028 15.0407 14.9133 15.0357 14.9252C15.0247 14.9516 15.0197 14.9753 15.0216 14.9963C15.0234 15.0173 15.0298 15.0451 15.0412 15.0798L15.1352 15.3681C15.1279 15.37 15.1215 15.3713 15.1164 15.3722C15.1114 15.3736 15.1073 15.3745 15.1037 15.375C15.1005 15.3754 15.0955 15.3773 15.0895 15.3791C15.0827 15.3814 15.0781 15.3827 15.0763 15.3837C15.0745 15.3846 15.0704 15.3859 15.0644 15.3887C15.0585 15.391 15.0521 15.3937 15.0462 15.3969L15.0457 15.3983Z" fill="#0C0E19"/>
<path d="M15.4568 15.2591L15.235 14.7445C15.2446 14.7413 15.2528 14.7386 15.2606 14.7358C15.2683 14.7335 15.2747 14.7313 15.2793 14.729C15.2839 14.7267 15.2898 14.724 15.2966 14.7203C15.3035 14.7167 15.3117 14.7121 15.3213 14.7071L15.3637 14.8052C15.3733 14.7185 15.4157 14.6587 15.4914 14.6259C15.5535 14.599 15.605 14.5971 15.6465 14.619C15.6881 14.6414 15.7241 14.6884 15.7551 14.7609L15.8892 15.072C15.8819 15.0743 15.876 15.0762 15.871 15.078C15.866 15.0798 15.8619 15.0812 15.8591 15.0821C15.8559 15.083 15.8514 15.0848 15.845 15.0876C15.8382 15.0903 15.8336 15.0926 15.8304 15.0944C15.8272 15.0962 15.8236 15.098 15.819 15.1008C15.8144 15.1031 15.809 15.1063 15.803 15.1095L15.6794 14.823C15.6634 14.786 15.647 14.7564 15.6292 14.7331C15.6119 14.7098 15.5909 14.6943 15.5667 14.687C15.5425 14.6793 15.5147 14.6824 15.4828 14.6961C15.4298 14.7189 15.4011 14.7527 15.3956 14.7974C15.3906 14.8421 15.4038 14.9005 15.4349 14.9726L15.5425 15.2221C15.5352 15.2244 15.5293 15.2262 15.5243 15.2281C15.5193 15.2299 15.5152 15.2313 15.512 15.2322C15.5088 15.2331 15.5038 15.2349 15.4978 15.2376C15.491 15.2404 15.4869 15.2422 15.485 15.2436C15.4832 15.2445 15.4796 15.2468 15.4736 15.25C15.4677 15.2532 15.4618 15.2564 15.4559 15.2595L15.4568 15.2591Z" fill="#0C0E19"/>
<path d="M16.2615 14.4552L16.3925 14.6934C16.3998 14.7066 16.4057 14.7166 16.4103 14.7226C16.4148 14.7285 16.4203 14.7326 16.4262 14.7344C16.4326 14.7363 16.4399 14.7344 16.4486 14.7299C16.4559 14.7258 16.465 14.7189 16.4759 14.7089L16.4883 14.7317C16.4796 14.7436 16.4709 14.7527 16.4632 14.7591C16.4531 14.7673 16.4431 14.7741 16.4321 14.7801C16.4116 14.7906 16.392 14.7947 16.3738 14.7924C16.3555 14.7901 16.3391 14.7782 16.3245 14.7577L16.3208 14.7723C16.3017 14.8389 16.2629 14.8886 16.2045 14.9206C16.1671 14.9411 16.1283 14.947 16.0886 14.9388C16.0489 14.9302 16.0188 14.9073 15.9988 14.8708C15.9787 14.8348 15.9718 14.802 15.9782 14.7723C15.9846 14.7427 15.9978 14.7171 16.0188 14.6957C16.0394 14.6738 16.069 14.6482 16.1078 14.6186C16.137 14.5958 16.1575 14.5784 16.1689 14.5666C16.1803 14.5552 16.1872 14.5433 16.1894 14.5319C16.1917 14.5205 16.1881 14.5063 16.179 14.4899C16.158 14.4516 16.1311 14.4274 16.0987 14.4178C16.0663 14.4083 16.0311 14.4142 15.9928 14.4352C15.9705 14.4475 15.9527 14.4625 15.939 14.4803C15.9258 14.4981 15.9166 14.5155 15.9125 14.5319C15.908 14.5483 15.9071 14.5625 15.9089 14.5734L15.8975 14.5798L15.866 14.5228C15.9002 14.4548 15.9449 14.4055 16.0006 14.375C16.0549 14.3448 16.1041 14.3366 16.1484 14.3499C16.1922 14.3631 16.23 14.3982 16.262 14.4557L16.2615 14.4552ZM16.2994 14.7194L16.2168 14.5693L16.1849 14.5967C16.1644 14.6131 16.1457 14.6286 16.1288 14.6432C16.1119 14.6578 16.0973 14.6733 16.0845 14.6902C16.0717 14.7071 16.064 14.7253 16.0608 14.7458C16.0576 14.7664 16.0622 14.7874 16.0745 14.8097C16.0923 14.8416 16.1142 14.8613 16.1406 14.8677C16.1671 14.874 16.1963 14.8686 16.2287 14.8512C16.2415 14.8444 16.2533 14.8325 16.2652 14.8156C16.277 14.7988 16.2848 14.7828 16.2894 14.7673C16.2907 14.7623 16.2926 14.7568 16.2944 14.7509C16.2962 14.7449 16.298 14.739 16.2989 14.7322C16.2998 14.7258 16.2998 14.7217 16.2989 14.7198L16.2994 14.7194Z" fill="#0C0E19"/>
<path d="M11.6027 6.09302C11.6027 6.09302 11.4618 5.03098 10.9618 4.78691C10.9618 4.78691 13.579 3.01637 16.2857 4.78691C16.2857 4.78691 15.5713 5.44795 15.6014 6.0027L11.6027 6.09302Z" fill="url(#paint23_linear_301_1256)" stroke="#A3822E" stroke-width="0.075" stroke-miterlimit="10"/>
<path d="M12.3295 5.41331L12.1493 4.51184L12.4084 4.45984C12.4746 4.44661 12.5307 4.44159 12.5763 4.44433C12.6219 4.44752 12.6584 4.46029 12.6858 4.48265C12.7132 4.505 12.7314 4.53876 12.7401 4.58347C12.746 4.61358 12.7465 4.64232 12.741 4.66969C12.7355 4.69706 12.7255 4.72261 12.7104 4.74679C12.6954 4.77097 12.6767 4.79195 12.6543 4.81066C12.632 4.82891 12.606 4.84533 12.5772 4.85947C12.605 4.85537 12.6342 4.85446 12.6643 4.85674C12.6945 4.85902 12.7232 4.86586 12.7497 4.87681C12.7766 4.88776 12.8003 4.90509 12.8204 4.92836C12.8404 4.95163 12.8541 4.98174 12.8619 5.01869C12.8806 5.11267 12.856 5.19524 12.7875 5.26595C12.7675 5.28603 12.7428 5.30336 12.7132 5.3175C12.684 5.3321 12.6543 5.34305 12.6251 5.35081C12.5955 5.35856 12.5603 5.36632 12.5184 5.37499L12.3299 5.41285L12.3295 5.41331ZM12.2752 4.53785L12.345 4.8873L12.3993 4.87635C12.434 4.86951 12.4641 4.8613 12.4887 4.85263C12.5133 4.84396 12.5375 4.83164 12.5599 4.81522C12.5891 4.79332 12.6096 4.76686 12.6219 4.73584C12.6338 4.70482 12.6365 4.67106 12.6292 4.63502C12.621 4.59487 12.606 4.56476 12.5836 4.54423C12.5612 4.52371 12.5325 4.51184 12.4978 4.50865C12.4632 4.50546 12.4212 4.50865 12.3724 4.51869L12.2752 4.5383V4.53785ZM12.355 4.93657L12.4358 5.34123L12.5612 5.31614C12.605 5.30747 12.6415 5.29104 12.6716 5.26687C12.7018 5.24269 12.7232 5.21303 12.7355 5.17791C12.7478 5.14278 12.7501 5.10582 12.7424 5.06705C12.7278 4.9936 12.6935 4.94707 12.6402 4.92654C12.5863 4.90646 12.5156 4.90464 12.428 4.92243L12.3541 4.93703L12.355 4.93657Z" fill="#0C0E19"/>
<path d="M13.5161 4.83529L13.533 5.14779C13.5339 5.16558 13.5353 5.17835 13.5366 5.18702C13.538 5.19569 13.5416 5.20208 13.5471 5.2071C13.5526 5.21211 13.5613 5.2144 13.5727 5.21348C13.5822 5.21303 13.5955 5.21029 13.6119 5.20527L13.6133 5.23492C13.5982 5.24268 13.585 5.24815 13.5731 5.25089C13.559 5.25408 13.5444 5.25637 13.5307 5.25728C13.5038 5.25773 13.4819 5.25226 13.4641 5.24086C13.4468 5.22945 13.4353 5.20892 13.4303 5.18018L13.4189 5.19341C13.3655 5.25272 13.3003 5.28465 13.2241 5.28876C13.1749 5.29149 13.132 5.27826 13.095 5.24952C13.0581 5.22078 13.0384 5.182 13.0357 5.13365C13.0334 5.0862 13.0426 5.04879 13.0635 5.02142C13.0845 4.99405 13.1114 4.97397 13.1438 4.96211C13.1762 4.95025 13.2196 4.93793 13.2743 4.92653C13.3158 4.9174 13.3459 4.90965 13.3633 4.90326C13.3811 4.89688 13.3938 4.88821 13.4016 4.87726C13.4098 4.86631 13.413 4.84989 13.4121 4.82844C13.4093 4.77781 13.3934 4.73994 13.3646 4.71394C13.3359 4.68793 13.2962 4.67653 13.2465 4.67926C13.2168 4.68063 13.1908 4.68748 13.1685 4.69934C13.1457 4.7112 13.1279 4.72443 13.1151 4.73948C13.1023 4.75454 13.0941 4.76823 13.0909 4.78054L13.0759 4.78146L13.0718 4.70664C13.1416 4.65326 13.2127 4.62452 13.2848 4.62087C13.356 4.61722 13.4116 4.63319 13.4504 4.66877C13.4896 4.70436 13.5111 4.76001 13.5152 4.83574L13.5161 4.83529ZM13.4235 5.12772L13.413 4.93109L13.366 4.94341C13.3364 4.95025 13.3094 4.95709 13.2848 4.96394C13.2602 4.97078 13.2369 4.97945 13.2155 4.9904C13.194 5.00135 13.1767 5.0164 13.163 5.03602C13.1498 5.05564 13.1434 5.07981 13.1452 5.10901C13.1475 5.15098 13.1607 5.182 13.1849 5.20208C13.2091 5.22215 13.2424 5.23127 13.2843 5.22899C13.3012 5.22808 13.3195 5.22169 13.34 5.21029C13.3605 5.19888 13.377 5.18611 13.3897 5.17197C13.3938 5.16741 13.3984 5.16239 13.4034 5.15737C13.4084 5.15235 13.413 5.14688 13.4171 5.14049C13.4212 5.13456 13.4235 5.13045 13.4235 5.12817V5.12772Z" fill="#0C0E19"/>
<path d="M13.7291 5.25998L13.7802 4.61719C13.7916 4.61901 13.8017 4.62084 13.8108 4.62221C13.8199 4.62357 13.8277 4.62494 13.8336 4.6254C13.8391 4.6254 13.8468 4.62586 13.8555 4.6254C13.8646 4.6254 13.8751 4.6254 13.8874 4.6254L13.8774 4.74812C13.934 4.66509 14.0092 4.62722 14.1041 4.63452C14.1817 4.64091 14.2355 4.666 14.2656 4.71117C14.2957 4.75587 14.3071 4.82339 14.2998 4.91372L14.2688 5.30241C14.2602 5.30104 14.2529 5.29967 14.2469 5.29876C14.241 5.29785 14.2364 5.29693 14.2328 5.29648C14.2291 5.29602 14.2232 5.29511 14.2154 5.29465C14.2072 5.2942 14.2008 5.29374 14.1972 5.29374C14.1935 5.29374 14.1881 5.29374 14.1821 5.29374C14.1762 5.29374 14.1694 5.29374 14.1612 5.29374L14.1899 4.93608C14.1935 4.89 14.1926 4.85077 14.1876 4.81746C14.1826 4.78416 14.1694 4.7577 14.1488 4.73671C14.1283 4.71573 14.0982 4.70387 14.059 4.70067C13.9928 4.6952 13.9454 4.7139 13.9162 4.75679C13.887 4.79967 13.8687 4.86582 13.8614 4.95615L13.8368 5.26819C13.8281 5.26683 13.8208 5.26546 13.8149 5.26454C13.809 5.26363 13.8044 5.26272 13.8003 5.26226C13.7962 5.26181 13.7907 5.26089 13.7834 5.26044C13.7752 5.25998 13.7697 5.25953 13.7674 5.25953C13.7652 5.25953 13.7601 5.25953 13.7524 5.25953C13.7446 5.25953 13.7373 5.25953 13.7291 5.25953V5.25998Z" fill="#0C0E19"/>
<path d="M14.7652 4.36402L14.6379 4.95527C14.6342 4.97306 14.632 4.98401 14.632 4.98903C14.632 4.99404 14.6329 4.99769 14.6352 4.99997C14.6598 5.00499 14.7036 4.98766 14.7665 4.9466L14.866 4.88136L14.9933 4.79012C15.0042 4.79331 15.0143 4.79651 15.0229 4.79924C15.0316 4.80198 15.0394 4.80426 15.0453 4.80517C15.0498 4.80609 15.0567 4.807 15.0658 4.80837C15.0749 4.80928 15.0854 4.81065 15.0978 4.81247L15.0955 4.82205C15.079 4.83163 15.0649 4.83939 15.0521 4.84578C15.0398 4.85216 15.0115 4.86676 14.9677 4.89003C14.9239 4.9133 14.8806 4.93747 14.8386 4.96165C14.7967 4.98583 14.767 5.00317 14.7501 5.01366C14.7606 5.03282 14.7752 5.05882 14.7935 5.09258C14.8117 5.12634 14.8327 5.16558 14.8569 5.21029C14.8811 5.25499 14.9034 5.2956 14.9235 5.33255C14.9436 5.3695 14.9632 5.40509 14.9823 5.44021L14.981 5.4466C14.97 5.44341 14.9613 5.44067 14.9545 5.43884C14.9481 5.43702 14.9426 5.43519 14.9376 5.43383C14.9331 5.43246 14.9262 5.43063 14.9171 5.42881C14.9071 5.42653 14.9002 5.42516 14.897 5.4247C14.8938 5.42425 14.8879 5.42333 14.8788 5.42197C14.8696 5.4206 14.8601 5.41923 14.8505 5.41832C14.8363 5.38775 14.8126 5.34167 14.7789 5.27963C14.7451 5.21758 14.7063 5.14687 14.6621 5.06704C14.6525 5.05061 14.6438 5.04149 14.6361 5.03966C14.6251 5.03738 14.616 5.05198 14.6087 5.08437L14.5508 5.35353C14.5421 5.3508 14.5352 5.34852 14.5298 5.34715C14.5243 5.34532 14.5193 5.34395 14.5156 5.34259C14.512 5.34122 14.5061 5.33985 14.4992 5.33848C14.491 5.33665 14.486 5.33574 14.4832 5.33529C14.481 5.33529 14.4759 5.33437 14.4686 5.33346C14.4613 5.33255 14.4536 5.33164 14.4458 5.33072L14.6593 4.33984C14.6703 4.34304 14.6803 4.34623 14.689 4.34897C14.6977 4.35171 14.7054 4.35399 14.7113 4.3549C14.7168 4.35627 14.7241 4.35718 14.7332 4.35809C14.7424 4.359 14.7529 4.36037 14.7652 4.3622V4.36402Z" fill="#0C0E19"/>
<path d="M13.6237 14.5497C16.107 14.5497 18.1201 12.5367 18.1201 10.0534C18.1201 7.5701 16.107 5.55701 13.6237 5.55701C11.1404 5.55701 9.12735 7.5701 9.12735 10.0534C9.12735 12.5367 11.1404 14.5497 13.6237 14.5497Z" fill="url(#paint24_linear_301_1256)" stroke="#A3822E" stroke-width="0.075" stroke-miterlimit="10"/>
<path d="M13.6908 13.3878C15.6084 13.3878 17.163 11.8332 17.163 9.91561C17.163 7.99797 15.6084 6.44342 13.6908 6.44342C11.7731 6.44342 10.2186 7.99797 10.2186 9.91561C10.2186 11.8332 11.7731 13.3878 13.6908 13.3878Z" fill="white"/>
<path d="M13.6908 13.5037C11.7122 13.5037 10.1032 11.8942 10.1032 9.91607C10.1032 7.93796 11.7122 6.328 13.6908 6.328C15.6694 6.328 17.2784 7.9375 17.2784 9.91561C17.2784 11.8937 15.6689 13.5032 13.6908 13.5032V13.5037ZM13.6908 6.55884C11.84 6.55884 10.334 8.06478 10.334 9.91561C10.334 11.7664 11.84 13.2724 13.6908 13.2724C15.5416 13.2724 17.0476 11.7664 17.0476 9.91561C17.0476 8.06478 15.5416 6.55884 13.6908 6.55884Z" fill="#0C0E19"/>
<path d="M13.6903 6.83667C11.991 6.83667 10.6123 8.21533 10.6123 9.91606C10.6123 11.6168 11.991 12.9955 13.6903 12.9955C15.3897 12.9955 16.7697 11.6168 16.7697 9.91606C16.7697 8.21533 15.3911 6.83667 13.6903 6.83667ZM13.5849 11.7719H13.6639C13.6365 11.8048 13.6187 11.8225 13.6187 11.8225C13.6064 11.8061 13.5964 11.7888 13.5849 11.7719Z" fill="#FF0000"/>
<path d="M15.9349 8.44984C14.4143 7.91744 13.6255 8.86681 13.6255 8.86681C12.4006 7.85996 11.2263 8.59765 11.2263 8.59765C11.5671 10.1693 12.7665 10.3363 12.7665 10.3363C12.3938 11.5543 13.6255 12.5552 13.6255 12.5552C14.6648 11.9654 14.6196 10.2911 14.6196 10.2911C15.8263 9.84765 15.9349 8.44938 15.9349 8.44938V8.44984ZM13.59 9.55705C13.673 9.44391 13.9362 9.98315 13.8856 10.0338C13.8349 10.0858 13.3947 10.1077 13.3568 10.005C13.3176 9.90331 13.59 9.55705 13.59 9.55705ZM12.9006 9.85495C12.0922 9.64373 11.8742 8.91517 11.8742 8.91517C12.7957 8.77785 13.2884 9.23269 13.2884 9.23269C12.9006 9.46353 12.9006 9.85495 12.9006 9.85495ZM13.5922 11.761C13.1616 11.172 13.209 10.438 13.209 10.438C13.5681 10.5406 14.0252 10.438 14.0252 10.438C14.1255 11.2268 13.5922 11.761 13.5922 11.761ZM14.4303 9.85495C14.3381 9.5534 13.9718 9.20395 13.9718 9.20395C14.5813 8.69345 15.3194 8.85404 15.3194 8.85404C15.0562 9.53424 14.4303 9.85495 14.4303 9.85495Z" fill="white" stroke="#0C0E19" stroke-width="0.125" stroke-miterlimit="10"/>
<path d="M12.2852 13.9347L12.2911 13.9375C12.2939 13.9571 12.3007 13.9758 12.3112 13.9931C12.3222 14.0105 12.3354 14.0223 12.3518 14.0296C12.3637 14.0351 12.3769 14.0374 12.3901 14.0365C12.4038 14.0356 12.4166 14.0314 12.428 14.0242C12.4394 14.0169 12.4481 14.0073 12.4535 13.9945C12.4631 13.9726 12.4631 13.9544 12.4535 13.9402C12.4435 13.9261 12.4257 13.9078 12.3997 13.8859C12.3737 13.864 12.3559 13.8439 12.3468 13.8252C12.3377 13.8065 12.3395 13.7828 12.3518 13.7541C12.3669 13.7203 12.3901 13.6984 12.4212 13.6893C12.4522 13.6802 12.4855 13.6829 12.5202 13.6984C12.537 13.7057 12.5521 13.7153 12.5662 13.7262C12.5804 13.7372 12.59 13.7468 12.595 13.7545C12.5813 13.7669 12.5676 13.7814 12.5539 13.7988L12.5475 13.796C12.5475 13.7869 12.5466 13.7769 12.5434 13.7659C12.5402 13.755 12.5357 13.7459 12.5297 13.7377C12.5238 13.7294 12.516 13.7235 12.5069 13.7194C12.4878 13.7112 12.4695 13.7094 12.4522 13.7144C12.4348 13.7194 12.4216 13.7317 12.4134 13.7509C12.4043 13.7714 12.4043 13.7892 12.4139 13.8038C12.4234 13.8179 12.4408 13.8366 12.4659 13.859C12.491 13.8814 12.5083 13.9019 12.5183 13.921C12.5284 13.9402 12.527 13.963 12.5156 13.9895C12.5046 14.0141 12.4887 14.0324 12.4677 14.0442C12.4467 14.0561 12.4239 14.062 12.3988 14.0611C12.3742 14.0606 12.3504 14.0556 12.3285 14.0456C12.2939 14.0301 12.2665 14.0091 12.2469 13.9817C12.2683 13.958 12.2811 13.9425 12.2861 13.9347H12.2852Z" fill="#0C0E19"/>
<path d="M12.9262 13.9744L12.8765 14.1537C12.8737 14.1637 12.8719 14.1715 12.871 14.1765C12.8701 14.1815 12.871 14.1861 12.8733 14.1897C12.8756 14.1934 12.8797 14.1966 12.8865 14.1984C12.892 14.1998 12.8997 14.2007 12.9102 14.2012L12.9057 14.218C12.8956 14.2194 12.8874 14.2199 12.8801 14.2194C12.8714 14.2185 12.8632 14.2171 12.855 14.2148C12.84 14.2103 12.8281 14.2025 12.8208 14.1929C12.8131 14.1829 12.8103 14.1697 12.8131 14.1523L12.8044 14.1578C12.7629 14.1811 12.7204 14.187 12.6762 14.1747C12.6479 14.1669 12.626 14.1514 12.611 14.1282C12.5954 14.1049 12.5918 14.0793 12.5995 14.052C12.6073 14.0246 12.6192 14.0054 12.6365 13.994C12.6538 13.9826 12.6725 13.9762 12.6931 13.9758C12.7136 13.9753 12.7405 13.9767 12.7734 13.9803C12.7989 13.9831 12.8167 13.9845 12.8281 13.984C12.8395 13.9835 12.8482 13.9813 12.8546 13.9767C12.8614 13.9721 12.866 13.9635 12.8696 13.9512C12.8778 13.9224 12.876 13.8978 12.8646 13.8777C12.8532 13.8576 12.8331 13.8435 12.8044 13.8357C12.7875 13.8312 12.7715 13.8298 12.7565 13.8321C12.7414 13.8344 12.7287 13.8385 12.7191 13.8449C12.709 13.8508 12.7017 13.8572 12.6976 13.8636L12.689 13.8613L12.7008 13.8184C12.7501 13.8015 12.7957 13.7988 12.8372 13.8102C12.8783 13.8216 12.9066 13.8412 12.9216 13.8686C12.9367 13.8959 12.9385 13.9315 12.9266 13.9749L12.9262 13.9744ZM12.8185 14.1218L12.85 14.0086L12.8213 14.0068C12.803 14.005 12.7866 14.0041 12.7715 14.0032C12.7565 14.0022 12.7414 14.0032 12.7277 14.005C12.7136 14.0073 12.7008 14.0123 12.6894 14.0209C12.678 14.0296 12.6703 14.0419 12.6652 14.0588C12.6584 14.083 12.6602 14.1031 12.6698 14.119C12.6794 14.135 12.6967 14.1464 12.7209 14.1528C12.7305 14.1555 12.7419 14.1555 12.756 14.1528C12.7702 14.1501 12.7816 14.1459 12.7912 14.1405C12.7943 14.1387 12.798 14.1368 12.8016 14.135C12.8053 14.1332 12.8094 14.1309 12.8126 14.1282C12.8162 14.1254 12.8181 14.1236 12.8185 14.1222V14.1218Z" fill="#0C0E19"/>
<path d="M13.0357 14.2559L13.1091 13.6573C13.116 13.6587 13.1219 13.6601 13.1274 13.661C13.1328 13.6624 13.1374 13.6633 13.1411 13.6633C13.1447 13.6633 13.1488 13.6637 13.1543 13.6642C13.1598 13.6642 13.1661 13.6642 13.1734 13.6651L13.1379 13.9553C13.1734 13.9073 13.2195 13.8868 13.2756 13.8937C13.3208 13.8991 13.3523 13.916 13.3692 13.9443C13.386 13.9726 13.3915 14.0127 13.3851 14.0647L13.3568 14.2951C13.3518 14.2938 13.3477 14.2928 13.3441 14.2924C13.3404 14.2915 13.3377 14.291 13.3359 14.2906C13.334 14.2901 13.3304 14.2897 13.3254 14.2887C13.3203 14.2883 13.3167 14.2878 13.3144 14.2878C13.3121 14.2878 13.3089 14.2878 13.3057 14.2878C13.3021 14.2878 13.298 14.2878 13.2934 14.2878L13.3194 14.0757C13.3249 14.0296 13.3226 13.9949 13.3121 13.9726C13.3016 13.9498 13.2802 13.9365 13.2474 13.9324C13.1776 13.9238 13.1379 13.9621 13.1274 14.0474L13.1009 14.2641C13.0959 14.2627 13.0918 14.2618 13.0881 14.2614C13.0845 14.2609 13.0818 14.26 13.0795 14.2595C13.0772 14.2591 13.074 14.2586 13.0694 14.2577C13.0644 14.2573 13.0612 14.2568 13.0599 14.2568C13.0585 14.2568 13.0553 14.2568 13.0512 14.2568C13.0466 14.2568 13.0421 14.2568 13.0375 14.2568L13.0357 14.2559Z" fill="#0C0E19"/>
<path d="M13.7925 14.0451L13.7953 14.2313C13.7953 14.2417 13.7957 14.2495 13.7966 14.2545C13.7971 14.2595 13.7994 14.2636 13.8026 14.2668C13.8058 14.27 13.8108 14.2714 13.8176 14.2714C13.8235 14.2714 13.8313 14.27 13.8409 14.2677V14.2855C13.8322 14.2896 13.824 14.2928 13.8172 14.2942C13.8085 14.296 13.7998 14.2969 13.7916 14.2969C13.7756 14.2969 13.7629 14.2928 13.7524 14.2855C13.7423 14.2782 13.736 14.2659 13.7337 14.2486L13.7268 14.2563C13.6935 14.2906 13.6543 14.3079 13.6087 14.3084C13.5795 14.3088 13.5539 14.3001 13.5329 14.2819C13.5115 14.2641 13.5005 14.2404 13.5005 14.2116C13.5005 14.1834 13.5065 14.1615 13.5197 14.1455C13.5329 14.1295 13.5494 14.1186 13.569 14.1117C13.5886 14.1053 13.6146 14.0994 13.6474 14.0935C13.6725 14.0889 13.6903 14.0853 13.7008 14.0816C13.7113 14.0784 13.7195 14.0734 13.7245 14.067C13.7296 14.0606 13.7318 14.0511 13.7318 14.0383C13.7318 14.0082 13.7227 13.9854 13.7063 13.9689C13.6899 13.9525 13.6666 13.9452 13.6365 13.9457C13.6192 13.9457 13.6037 13.9493 13.5895 13.9557C13.5754 13.9621 13.5649 13.9698 13.5571 13.9785C13.5489 13.9872 13.5439 13.9949 13.5416 14.0022H13.5325L13.532 13.9575C13.5749 13.9274 13.6178 13.9119 13.6607 13.9115C13.7031 13.911 13.736 13.9215 13.7583 13.9438C13.7807 13.9662 13.7921 13.9995 13.793 14.0447L13.7925 14.0451ZM13.7305 14.2171L13.7287 14.0999L13.7004 14.1063C13.6826 14.1099 13.6662 14.1131 13.6516 14.1167C13.6365 14.1199 13.6228 14.125 13.6096 14.1309C13.5968 14.1368 13.5859 14.1455 13.5772 14.1569C13.569 14.1683 13.5649 14.1824 13.5649 14.1998C13.5649 14.2249 13.5726 14.2436 13.5863 14.2559C13.6005 14.2682 13.6196 14.2746 13.6447 14.2741C13.6547 14.2741 13.6657 14.2705 13.6785 14.2641C13.6908 14.2577 13.7008 14.2504 13.7086 14.2427C13.7113 14.2399 13.7141 14.2372 13.7172 14.2344C13.7204 14.2317 13.7232 14.2285 13.7259 14.2249C13.7287 14.2212 13.73 14.2189 13.73 14.2176L13.7305 14.2171Z" fill="#0C0E19"/>
<path d="M13.9586 14.286L13.8751 13.6911C13.8819 13.6911 13.8879 13.6902 13.8933 13.6902C13.8988 13.6902 13.9034 13.6898 13.907 13.6889C13.9102 13.6884 13.9148 13.6875 13.9198 13.6861C13.9253 13.6847 13.9312 13.6834 13.9385 13.682L13.98 13.9763C13.9937 13.948 14.011 13.9252 14.0311 13.9074C14.0516 13.8896 14.0767 13.8791 14.1059 13.875C14.1415 13.87 14.1725 13.875 14.1995 13.8891C14.2259 13.9033 14.2474 13.9238 14.2629 13.9507C14.2784 13.9776 14.2884 14.0059 14.2925 14.0369C14.2962 14.0639 14.2962 14.0903 14.2916 14.1163C14.287 14.1419 14.2784 14.1656 14.2656 14.187C14.2528 14.2085 14.236 14.2267 14.2154 14.2413C14.1944 14.2559 14.1703 14.265 14.142 14.2691C14.0922 14.276 14.0516 14.2628 14.0211 14.2285C14.0156 14.234 14.0088 14.2413 14.001 14.2509C13.9932 14.2605 13.9841 14.2714 13.9736 14.2837L13.9586 14.2856V14.286ZM14.0909 13.9115C14.0489 13.9174 14.0211 13.9393 14.0074 13.9776C13.9937 14.016 13.9905 14.0616 13.9983 14.1149C14.0024 14.1428 14.0101 14.1674 14.0224 14.1884C14.0343 14.2094 14.0498 14.2249 14.0685 14.2349C14.0872 14.245 14.1078 14.2482 14.1306 14.245C14.152 14.2418 14.1693 14.234 14.183 14.2208C14.1967 14.2076 14.2072 14.1911 14.2141 14.1715C14.2209 14.1519 14.225 14.1323 14.2264 14.1118C14.2277 14.0917 14.2264 14.0707 14.2236 14.0502C14.2195 14.0201 14.2118 13.9941 14.2008 13.9722C14.1899 13.9503 14.1753 13.9338 14.157 13.9229C14.1388 13.9119 14.1169 13.9078 14.0918 13.9115H14.0909Z" fill="#0C0E19"/>
<path d="M14.6442 13.8955L14.6908 14.0757C14.6935 14.0857 14.6958 14.0935 14.6976 14.0981C14.6994 14.1026 14.7022 14.1063 14.7063 14.1086C14.7099 14.1108 14.7154 14.1108 14.7218 14.1095C14.7273 14.1081 14.7346 14.1049 14.7437 14.0999L14.7483 14.1168C14.7405 14.1232 14.7332 14.1277 14.7268 14.1309C14.7191 14.1346 14.7108 14.1378 14.7026 14.1396C14.6871 14.1432 14.6734 14.1428 14.662 14.1378C14.6502 14.1332 14.6415 14.1227 14.6351 14.1063L14.6301 14.1154C14.6059 14.1565 14.5717 14.1829 14.5279 14.1943C14.4996 14.2016 14.4732 14.1993 14.4481 14.1866C14.423 14.1742 14.407 14.1542 14.3997 14.1263C14.3929 14.099 14.3938 14.0762 14.4029 14.0575C14.412 14.0388 14.4253 14.0242 14.4426 14.0132C14.4599 14.0023 14.4841 13.9904 14.5147 13.9767C14.5379 13.9662 14.5544 13.9585 14.5639 13.9525C14.5735 13.9471 14.5799 13.9402 14.5836 13.9329C14.5868 13.9256 14.5868 13.9156 14.5836 13.9033C14.5758 13.8741 14.5621 13.8535 14.5425 13.8421C14.5224 13.8303 14.4983 13.8284 14.4695 13.8357C14.4526 13.8403 14.438 13.8471 14.4262 13.8567C14.4143 13.8663 14.4056 13.8763 14.3997 13.8864C14.3942 13.8969 14.391 13.9055 14.3906 13.9133L14.3819 13.9156L14.3705 13.8722C14.4047 13.833 14.4431 13.8079 14.4846 13.797C14.5256 13.786 14.5598 13.7892 14.5872 13.8052C14.6141 13.8216 14.6333 13.8513 14.6447 13.8946L14.6442 13.8955ZM14.6251 14.0771L14.5954 13.9635L14.5694 13.9763C14.553 13.9836 14.5379 13.9909 14.5243 13.9977C14.5106 14.0045 14.4983 14.0123 14.4868 14.0214C14.4754 14.0301 14.4672 14.041 14.4618 14.0543C14.4563 14.0675 14.4554 14.0821 14.4599 14.099C14.4663 14.1232 14.4777 14.1396 14.4941 14.1487C14.5106 14.1574 14.5311 14.1587 14.5553 14.1524C14.5649 14.1496 14.5749 14.1441 14.5854 14.1346C14.5959 14.1254 14.6041 14.1159 14.6096 14.1063C14.6114 14.1031 14.6137 14.0999 14.616 14.0962C14.6182 14.0926 14.6205 14.0889 14.6223 14.0848C14.6242 14.0807 14.6246 14.078 14.6246 14.0766L14.6251 14.0771Z" fill="#0C0E19"/>
<path d="M14.7027 13.656L14.7556 13.6118L14.7893 13.7103L14.8696 13.6829C14.871 13.6907 14.8724 13.6962 14.8733 13.6989C14.8746 13.703 14.8769 13.7076 14.8797 13.7121L14.7994 13.7395L14.8646 13.9302L14.8742 13.9576C14.8842 13.9868 14.8956 14.0087 14.9093 14.0233C14.9225 14.0383 14.9408 14.0415 14.9636 14.0337C14.9686 14.0319 14.9791 14.0264 14.996 14.0169L15.0024 14.0351C14.9805 14.0529 14.9604 14.0648 14.9431 14.0707C14.9289 14.0757 14.9162 14.078 14.9043 14.078C14.8924 14.078 14.881 14.0748 14.8705 14.068C14.86 14.0611 14.85 14.0511 14.8404 14.0365C14.8313 14.0219 14.8226 14.0036 14.8149 13.9808L14.7392 13.7596L14.6922 13.7755C14.6922 13.7719 14.6913 13.7664 14.689 13.7605C14.6867 13.7536 14.6844 13.7491 14.6821 13.7468L14.7291 13.7308L14.7036 13.6556L14.7027 13.656Z" fill="#0C0E19"/>
<path d="M17.0475 13.6118C17.0909 13.6227 17.4381 13.5634 17.9358 13.3043C18.0932 13.2226 18.2652 13.1209 18.4476 12.9954" stroke="#A3822E" stroke-width="0.025" stroke-miterlimit="10"/>
<path d="M17.913 12.4845C17.913 12.4845 18.58 12.0611 18.8687 11.5351" stroke="#A3822E" stroke-width="0.025" stroke-miterlimit="10"/>
<path d="M18.1456 11.2915C18.1456 11.2915 18.8309 10.8677 19.1607 10.0533" stroke="#A3822E" stroke-width="0.025" stroke-miterlimit="10"/>
<path d="M18.2533 9.91557C18.2533 9.91557 18.7341 9.4954 18.8687 8.62268" stroke="#A3822E" stroke-width="0.025" stroke-miterlimit="10"/>
<path d="M17.7419 7.68156L18.0412 6.60217" stroke="#A3822E" stroke-width="0.025" stroke-miterlimit="10"/>
<defs>
<linearGradient id="paint0_linear_301_1256" x1="9.03657" y1="7.8759" x2="8.24141" y2="8.82527" gradientUnits="userSpaceOnUse">
<stop stop-color="#F7E349"/>
<stop offset="1" stop-color="#A3822E"/>
</linearGradient>
<linearGradient id="paint1_linear_301_1256" x1="18.2278" y1="7.8759" x2="19.0229" y2="8.82527" gradientUnits="userSpaceOnUse">
<stop stop-color="#F7E349"/>
<stop offset="1" stop-color="#A3822E"/>
</linearGradient>
<linearGradient id="paint2_linear_301_1256" x1="10.0776" y1="6.51186" x2="9.12825" y2="6.57573" gradientUnits="userSpaceOnUse">
<stop stop-color="#F7E349"/>
<stop offset="1" stop-color="#A3822E"/>
</linearGradient>
<linearGradient id="paint3_linear_301_1256" x1="11.2455" y1="5.69064" x2="10.5913" y2="7.07614" gradientUnits="userSpaceOnUse">
<stop stop-color="#F7E349"/>
<stop offset="1" stop-color="#A3822E"/>
</linearGradient>
<linearGradient id="paint4_linear_301_1256" x1="11.9298" y1="6.15873" x2="9.85182" y2="6.15873" gradientUnits="userSpaceOnUse">
<stop stop-color="#F7E349"/>
<stop offset="1" stop-color="#A3822E"/>
</linearGradient>
<linearGradient id="paint5_linear_301_1256" x1="9.00922" y1="13.8129" x2="10.7538" y2="14.0821" gradientUnits="userSpaceOnUse">
<stop stop-color="#F7E349"/>
<stop offset="1" stop-color="#A3822E"/>
</linearGradient>
<linearGradient id="paint6_linear_301_1256" x1="9.74734" y1="12.8367" x2="9.41385" y2="14.3248" gradientUnits="userSpaceOnUse">
<stop stop-color="#F7E349"/>
<stop offset="1" stop-color="#A3822E"/>
</linearGradient>
<linearGradient id="paint7_linear_301_1256" x1="9.09039" y1="11.8161" x2="8.53884" y2="12.7655" gradientUnits="userSpaceOnUse">
<stop stop-color="#F7E349"/>
<stop offset="1" stop-color="#A3822E"/>
</linearGradient>
<linearGradient id="paint8_linear_301_1256" x1="9.66294" y1="12.2619" x2="11.1766" y2="13.8271" gradientUnits="userSpaceOnUse">
<stop stop-color="#F7E349"/>
<stop offset="1" stop-color="#A3822E"/>
</linearGradient>
<linearGradient id="paint9_linear_301_1256" x1="8.94579" y1="10.4662" x2="8.15062" y2="12.2623" gradientUnits="userSpaceOnUse">
<stop stop-color="#F7E349"/>
<stop offset="1" stop-color="#A3822E"/>
</linearGradient>
<linearGradient id="paint10_linear_301_1256" x1="9.02563" y1="9.06747" x2="7.83265" y2="10.5296" gradientUnits="userSpaceOnUse">
<stop stop-color="#F7E349"/>
<stop offset="1" stop-color="#A3822E"/>
</linearGradient>
<linearGradient id="paint11_linear_301_1256" x1="9.71038" y1="7.18152" x2="8.62005" y2="7.33526" gradientUnits="userSpaceOnUse">
<stop stop-color="#F7E349"/>
<stop offset="1" stop-color="#A3822E"/>
</linearGradient>
<linearGradient id="paint12_linear_301_1256" x1="17.1867" y1="6.51186" x2="18.1361" y2="6.57573" gradientUnits="userSpaceOnUse">
<stop stop-color="#F7E349"/>
<stop offset="1" stop-color="#A3822E"/>
</linearGradient>
<linearGradient id="paint13_linear_301_1256" x1="16.0188" y1="5.69064" x2="16.673" y2="7.07614" gradientUnits="userSpaceOnUse">
<stop stop-color="#F7E349"/>
<stop offset="1" stop-color="#A3822E"/>
</linearGradient>
<linearGradient id="paint14_linear_301_1256" x1="15.3345" y1="6.15873" x2="17.4125" y2="6.15873" gradientUnits="userSpaceOnUse">
<stop stop-color="#F7E349"/>
<stop offset="1" stop-color="#A3822E"/>
</linearGradient>
<linearGradient id="paint15_linear_301_1256" x1="18.2551" y1="13.8129" x2="16.5106" y2="14.0821" gradientUnits="userSpaceOnUse">
<stop stop-color="#F7E349"/>
<stop offset="1" stop-color="#A3822E"/>
</linearGradient>
<linearGradient id="paint16_linear_301_1256" x1="17.517" y1="12.8367" x2="17.8505" y2="14.3248" gradientUnits="userSpaceOnUse">
<stop stop-color="#F7E349"/>
<stop offset="1" stop-color="#A3822E"/>
</linearGradient>
<linearGradient id="paint17_linear_301_1256" x1="18.1739" y1="11.8161" x2="18.7255" y2="12.7655" gradientUnits="userSpaceOnUse">
<stop stop-color="#F7E349"/>
<stop offset="1" stop-color="#A3822E"/>
</linearGradient>
<linearGradient id="paint18_linear_301_1256" x1="17.6014" y1="12.2619" x2="16.0877" y2="13.8271" gradientUnits="userSpaceOnUse">
<stop stop-color="#F7E349"/>
<stop offset="1" stop-color="#A3822E"/>
</linearGradient>
<linearGradient id="paint19_linear_301_1256" x1="18.3185" y1="10.4662" x2="19.1137" y2="12.2623" gradientUnits="userSpaceOnUse">
<stop stop-color="#F7E349"/>
<stop offset="1" stop-color="#A3822E"/>
</linearGradient>
<linearGradient id="paint20_linear_301_1256" x1="18.2387" y1="9.06747" x2="19.4317" y2="10.5296" gradientUnits="userSpaceOnUse">
<stop stop-color="#F7E349"/>
<stop offset="1" stop-color="#A3822E"/>
</linearGradient>
<linearGradient id="paint21_linear_301_1256" x1="17.554" y1="7.18152" x2="18.6443" y2="7.33526" gradientUnits="userSpaceOnUse">
<stop stop-color="#F7E349"/>
<stop offset="1" stop-color="#A3822E"/>
</linearGradient>
<linearGradient id="paint22_linear_301_1256" x1="13.6237" y1="13.2728" x2="13.6237" y2="15.9995" gradientUnits="userSpaceOnUse">
<stop stop-color="#F7E349"/>
<stop offset="1" stop-color="#A3822E"/>
</linearGradient>
<linearGradient id="paint23_linear_301_1256" x1="13.6237" y1="6.09302" x2="13.6237" y2="4.00041" gradientUnits="userSpaceOnUse">
<stop stop-color="#F7E349"/>
<stop offset="1" stop-color="#A3822E"/>
</linearGradient>
<linearGradient id="paint24_linear_301_1256" x1="13.6237" y1="5.55701" x2="13.6237" y2="14.5497" gradientUnits="userSpaceOnUse">
<stop stop-color="#F7E349"/>
<stop offset="1" stop-color="#A3822E"/>
</linearGradient>
</defs>
</svg>
