<svg width="34" height="24" viewBox="0 0 34 24" fill="none" xmlns="http://www.w3.org/2000/svg">
<path fill-rule="evenodd" clip-rule="evenodd" d="M14.0374 8.51086C13.919 9.00619 13.8006 9.55448 13.6791 10.0498C12.3676 10.2834 10.9875 10.9345 9.57632 11.7352C10.6854 10.3333 12.3769 9.40806 14.0374 8.51086ZM9.01869 12.1028C7.57632 13.6822 6.66044 15.7165 6.03427 18C5.35514 17.5576 4.67913 17.1152 4 16.6697C5.20561 14.8567 6.78816 13.2772 9.01869 12.0996V12.1028Z" fill="#ED1C24"/>
<path fill-rule="evenodd" clip-rule="evenodd" d="M13.704 6C13.9875 6.15888 14.2741 6.31776 14.5576 6.47664C13.4174 7.11526 12.2866 7.8567 11.2212 9.07477C11.6698 8.0623 12.5327 7.03738 13.7072 6H13.704ZM9.87227 6.42991C10.0841 6.45794 10.2959 6.48287 10.5078 6.50779C10.1308 7.15888 9.81308 7.85047 9.62616 8.62928C9.49532 7.96262 9.66355 7.20249 9.87227 6.42991ZM10.1121 8.02492C10.2492 8.03115 10.3863 8.0405 10.5202 8.04673C10.2087 8.56386 9.95327 9.10903 9.74143 9.6729C9.78816 9.15576 9.90654 8.61059 10.1121 8.02492ZM10.3863 8.919C10.5981 9.04673 10.81 9.17134 11.0218 9.29907C10.4579 9.9595 9.93146 10.648 9.49532 11.3863C9.67912 10.5857 10.028 9.75078 10.3863 8.919ZM8.90342 9.13396C9.10903 9.09346 9.31464 9.05607 9.51713 9.01558C9.34579 9.77882 9.28348 10.5421 9.31152 11.3053C9.02492 10.6604 8.94392 9.90654 8.90031 9.13396H8.90342ZM8.67289 9.79128C8.7352 10.3271 8.82554 10.8629 8.98753 11.3988C8.72585 11.0374 8.49844 10.5826 8.2866 10.0841C8.41433 9.98754 8.54517 9.89097 8.67289 9.79128ZM7.46105 10.6231C7.62616 10.567 7.78816 10.5109 7.95327 10.4548C8.20872 10.8069 8.45794 11.1682 8.70093 11.5421C8.31775 11.2087 7.89719 10.9097 7.46105 10.6199V10.6231ZM6.58878 9.41121C6.71651 9.34268 6.84423 9.27414 6.97196 9.20561C7.27725 9.49533 7.56074 9.85047 7.81931 10.2773C7.4299 9.95327 7.0218 9.66355 6.58878 9.41121ZM4.53271 10.7695C4.67912 10.6075 4.82243 10.4424 4.96884 10.2804C5.52648 10.4642 6.06853 10.6698 6.59813 10.891C5.91588 10.8224 5.2243 10.7819 4.52959 10.7695H4.53271ZM6.46417 11.5701C6.62616 11.3894 6.78816 11.2087 6.95327 11.0249C7.54205 11.2399 8.11215 11.4922 8.66666 11.7913C7.93146 11.676 7.19937 11.6137 6.46417 11.5701ZM5.42056 12.1838C5.49532 12.0156 5.57009 11.8474 5.64174 11.6791C6.21806 11.6729 6.76635 11.757 7.27725 11.9533C6.65732 11.972 6.04049 12.0592 5.42056 12.1869V12.1838ZM4.27414 12.9439C4.30841 12.7788 4.35825 12.6168 4.42679 12.4548C4.86915 12.3956 5.31152 12.3707 5.75389 12.4206C5.20872 12.5514 4.72897 12.7383 4.27725 12.9408L4.27414 12.9439ZM5.33333 13.7539C5.49221 13.3583 5.65732 12.9595 5.8162 12.5639C6.84112 12.1651 7.83489 12.0218 8.81308 12.0218C7.56697 12.4361 6.42679 13.0498 5.33333 13.7539ZM4.89408 14.9159V14.3146C5.3676 13.9938 5.83177 13.7913 6.28972 13.6511C5.7352 14 5.27725 14.4299 4.89408 14.9159Z" fill="#FED860"/>
<path fill-rule="evenodd" clip-rule="evenodd" d="M21.3022 14.8504V14.19L21.0156 14.3053C20.8691 14.3644 20.7663 14.4236 20.7071 14.4859C20.6448 14.5482 20.6168 14.623 20.6168 14.7134C20.6168 14.8037 20.6448 14.8816 20.704 14.9377C20.7601 14.9968 20.8349 15.0249 20.9283 15.0249C21.0654 15.0249 21.19 14.9688 21.3053 14.8535L21.3022 14.8504ZM21.7227 13.9501V14.8972C21.7227 14.975 21.7476 15.0124 21.7975 15.0124C21.8286 15.0124 21.8723 14.9968 21.9283 14.9657C22.1215 14.866 21.9719 15.2087 21.8068 15.2928C21.7508 15.3208 21.6853 15.3271 21.623 15.3271C21.4392 15.3271 21.3302 15.2523 21.299 15.1028C21.1152 15.2492 20.9221 15.3208 20.7165 15.3208C20.567 15.3208 20.4423 15.271 20.3395 15.1682C20.2399 15.0654 20.1869 14.9345 20.1869 14.7819C20.1869 14.6417 20.2367 14.514 20.3333 14.4049C20.433 14.2928 20.5701 14.2056 20.7508 14.1433L21.299 13.9501V13.8317C21.299 13.5638 21.1682 13.4299 20.9096 13.4299C20.676 13.4299 20.4486 13.5545 20.2274 13.8006V13.3177C20.3956 13.1152 20.6324 13.0155 20.9439 13.0155C21.1776 13.0155 21.3645 13.0778 21.5078 13.2056C21.5545 13.2461 21.5981 13.299 21.6355 13.3676C21.6729 13.433 21.6978 13.5015 21.7071 13.5669C21.7196 13.6355 21.7227 13.7601 21.7227 13.9501ZM26.3738 13.0591V13.3426C26.5638 13.1246 26.7788 13.0155 27.0218 13.0155C27.1557 13.0155 27.2804 13.0498 27.3956 13.1215C27.5109 13.1931 27.5981 13.2928 27.6573 13.4174C27.7196 13.542 27.7476 13.7414 27.7476 14.0124V15.2866C27.4423 15.3302 27.3894 15.1651 27.324 15.0093V14.0155C27.324 13.7881 27.2897 13.6261 27.2243 13.5264C27.1589 13.4267 27.0436 13.38 26.8878 13.38C26.6885 13.38 26.5171 13.4828 26.3769 13.6915V15.2834H25.9439V13.0529H26.3769L26.3738 13.0591ZM28.7944 15.4517C28.648 15.4517 28.5296 15.4828 28.4361 15.5451C28.3427 15.6074 28.2959 15.6884 28.2959 15.785C28.2959 16.0124 28.5015 16.1277 28.9065 16.1277C29.0997 16.1277 29.2461 16.0996 29.352 16.0405C29.4579 15.9844 29.5109 15.9034 29.5109 15.8006C29.5109 15.6978 29.4455 15.6137 29.3115 15.5482C29.1775 15.4828 29.0062 15.4517 28.7944 15.4517ZM28.8972 13.5109C28.7788 13.5109 28.6791 13.5514 28.5981 13.6324C28.514 13.7134 28.4735 13.8099 28.4735 13.9221C28.4735 14.0342 28.514 14.1308 28.595 14.2056C28.676 14.2803 28.7788 14.3177 28.9034 14.3177C29.028 14.3177 29.1277 14.2803 29.2118 14.2024C29.2928 14.1246 29.3333 14.0311 29.3333 13.919C29.3333 13.8068 29.2928 13.7071 29.2087 13.6292C29.1246 13.5514 29.0218 13.514 28.8972 13.514V13.5109ZM28.081 13.8972C28.081 13.6604 28.1651 13.4735 28.3364 13.3364C28.5078 13.1993 28.7414 13.1308 29.0374 13.1308H30.1402C30.0841 13.2679 30.0187 13.4018 29.8349 13.4735H29.4984C29.5856 13.5607 29.6448 13.6417 29.676 13.7134C29.7103 13.785 29.7258 13.8691 29.7258 13.9595C29.7258 14.0747 29.6947 14.1869 29.6293 14.299C29.5638 14.4112 29.4797 14.4953 29.3769 14.5576C29.2741 14.6168 29.1059 14.6635 28.8723 14.7009C28.7071 14.7258 28.6262 14.7819 28.6262 14.8722C28.6262 14.9221 28.6573 14.9657 28.7165 15C28.7788 15.0342 28.8878 15.0654 29.0498 15.0996C29.3177 15.1588 29.4891 15.2056 29.567 15.2398C29.6448 15.2741 29.7134 15.3239 29.7757 15.3831C29.8816 15.4891 29.9346 15.623 29.9346 15.7819C29.9346 15.9937 29.8411 16.1588 29.6573 16.2866C29.4735 16.4112 29.2243 16.4735 28.9159 16.4735C28.6075 16.4735 28.352 16.4112 28.1651 16.2834C27.9782 16.1588 27.8847 15.9875 27.8847 15.7757C27.8847 15.4766 28.0685 15.2834 28.4361 15.1962C28.2897 15.1028 28.2149 15.0093 28.2149 14.9158C28.2149 14.8442 28.2461 14.7819 28.3084 14.7227C28.3707 14.6635 28.4548 14.623 28.5638 14.595C28.2399 14.4486 28.081 14.2149 28.081 13.894V13.8972ZM24.0685 13.9937H25.1651C25.1557 13.8193 25.1028 13.6822 25.0124 13.5887C24.9221 13.4922 24.7975 13.4454 24.6417 13.4454C24.486 13.4454 24.3582 13.4922 24.2617 13.5887C24.162 13.6822 24.0966 13.8193 24.0685 13.9937ZM25.595 14.2554H24.0592C24.0716 14.4672 24.1402 14.6355 24.271 14.7601C24.3987 14.8878 24.567 14.9501 24.7695 14.9501C25.0529 14.9501 25.3177 14.8598 25.5576 14.6791V15.109C25.4237 15.1993 25.2928 15.2648 25.162 15.3021C25.0311 15.3395 24.8785 15.3582 24.7009 15.3582C24.461 15.3582 24.2648 15.3084 24.1184 15.2056C23.9688 15.1028 23.8504 14.9688 23.7601 14.7975C23.6698 14.6261 23.6261 14.4267 23.6261 14.2024C23.6261 13.8629 23.7196 13.5887 23.9096 13.3769C24.0997 13.1651 24.3427 13.0591 24.6448 13.0591C24.947 13.0591 25.1651 13.162 25.3364 13.3676C25.5109 13.5732 25.595 13.8504 25.595 14.1962V14.2523V14.2554ZM21.9906 13.4454L22.7632 12.6386V13.0965H23.4517C23.4205 13.2243 23.3645 13.352 23.1402 13.4922H22.7632V14.5763C22.7632 14.8317 22.8629 14.9563 23.0592 14.9563C23.2056 14.9563 23.3614 14.9034 23.5265 14.7975V15.2056C23.3676 15.299 23.1962 15.3489 23.0093 15.3489C22.8224 15.3489 22.6666 15.2897 22.542 15.1713C22.5047 15.137 22.4704 15.0965 22.4455 15.0529C22.4205 15.0093 22.3987 14.9501 22.38 14.8785C22.3645 14.8068 22.3551 14.6729 22.3551 14.4704V13.4891H21.9938V13.4454H21.9906ZM19.9034 11.9345V15.2772C19.9034 15.5887 19.8723 15.8193 19.81 15.9688C19.7476 16.1183 19.6448 16.2367 19.5047 16.3271C19.3645 16.4174 19.1962 16.461 19 16.461C18.9688 16.461 18.919 16.4548 18.8442 16.4454L18.757 15.9937H18.8785C19.0156 15.9937 19.1215 15.9781 19.1931 15.9439C19.2648 15.9096 19.324 15.8504 19.3645 15.7663C19.4081 15.6822 19.4268 15.4984 19.4268 15.2211V12.4704C19.4392 12.1526 19.6324 12.0031 19.9065 11.9314L19.9034 11.9345ZM16.4579 11.9003V15.2866H16.0249V12.3146C16.0529 12.1557 16.1994 12.0186 16.4579 11.9034V11.9003ZM17.4361 13.056H17.9252L17.0218 14.1339C17.3769 14.514 17.7414 14.9065 18.0966 15.2866C17.8473 15.3333 17.5576 15.2679 17.2679 15.0155L16.4766 14.1495L17.4361 13.056ZM14.271 13.056V13.3395C14.461 13.1215 14.676 13.0124 14.919 13.0124C15.0529 13.0124 15.1776 13.0467 15.2928 13.1183C15.4081 13.19 15.4953 13.2897 15.5545 13.4143C15.6137 13.5389 15.6448 13.7383 15.6448 14.0093V15.2834C15.3395 15.3271 15.2866 15.162 15.2212 15.0062V14.0124C15.2212 13.785 15.1869 13.623 15.1215 13.5233C15.0561 13.4236 14.9439 13.3769 14.785 13.3769C14.5857 13.3769 14.4143 13.4797 14.2741 13.6884V15.2803H13.8411V13.0498H14.2741L14.271 13.056ZM12.8691 14.8442V14.1838L12.5825 14.299C12.4392 14.3582 12.3333 14.4174 12.2741 14.4797C12.2118 14.542 12.1838 14.6168 12.1838 14.7071C12.1838 14.7975 12.2118 14.8753 12.271 14.9314C12.3302 14.9906 12.4019 15.0186 12.4922 15.0186C12.6293 15.0186 12.7539 14.9626 12.8691 14.8473V14.8442ZM13.2897 13.9439V14.8909C13.2897 14.9688 13.3146 15.0062 13.3645 15.0062C13.3987 15.0062 13.4392 14.9906 13.4953 14.9595C13.6885 14.8598 13.5389 15.2024 13.3738 15.2866C13.3177 15.3146 13.2523 15.3208 13.19 15.3208C13.0062 15.3208 12.8972 15.2461 12.866 15.0965C12.6853 15.2429 12.4922 15.3146 12.2866 15.3146C12.1371 15.3146 12.0093 15.2648 11.9096 15.162C11.81 15.0591 11.7601 14.9283 11.7601 14.7757C11.7601 14.6355 11.81 14.5077 11.9065 14.3987C12.0062 14.2866 12.1433 14.1993 12.324 14.137L12.8723 13.9439V13.8255C12.8723 13.5576 12.7414 13.4236 12.4829 13.4236C12.2492 13.4236 12.0218 13.5482 11.8006 13.7943V13.3115C11.9657 13.109 12.2056 13.0093 12.5171 13.0093C12.7508 13.0093 12.9377 13.0716 13.0779 13.1993C13.1246 13.2398 13.1682 13.2928 13.2056 13.3613C13.243 13.4267 13.2679 13.4953 13.2772 13.5607C13.2866 13.6292 13.2928 13.7539 13.2928 13.9439H13.2897ZM10.2181 13.7881H9.78815V14.8535H10.243C10.4953 14.8535 10.6667 14.8348 10.7539 14.7912C10.8442 14.7507 10.9159 14.6853 10.9719 14.5981C11.0249 14.5109 11.0529 14.4205 11.0529 14.3208C11.0529 14.2211 11.0249 14.1246 10.9657 14.0373C10.9065 13.9532 10.8255 13.8909 10.7196 13.8473C10.6137 13.8068 10.4455 13.785 10.2181 13.785V13.7881ZM10.1838 12.3489H9.78815V13.3613H10.0934C10.3395 13.3613 10.514 13.3115 10.6168 13.2149C10.7227 13.1152 10.7726 12.9906 10.7726 12.8348C10.7726 12.5109 10.5763 12.352 10.1838 12.352V12.3489ZM10.4174 15.2834H9.32709V11.9221H10.1713C10.4361 11.9221 10.6448 11.9595 10.7944 12.0311C10.9439 12.1059 11.0561 12.2087 11.1371 12.3395C11.2149 12.4704 11.2554 12.623 11.2554 12.7943C11.2554 13.1246 11.0934 13.3613 10.7663 13.5046C11 13.5514 11.1869 13.6542 11.3271 13.8099C11.4673 13.9657 11.5358 14.1495 11.5358 14.3676C11.5358 14.5389 11.4922 14.6915 11.4081 14.8255C11.324 14.9595 11.1994 15.0685 11.0374 15.1557C10.8723 15.2398 10.6698 15.2834 10.4237 15.2834H10.4174Z" fill="#2E3092"/>
</svg>
