<svg width="34" height="24" viewBox="0 0 34 24" fill="none" xmlns="http://www.w3.org/2000/svg">
<path d="M12.9389 6H16.2328C15.6845 7.23362 15.135 8.46678 14.5858 9.7001C14.0708 10.8574 13.5554 12.0146 13.0403 13.1718C11.9417 13.1723 10.8432 13.1721 9.74477 13.172C10.8095 10.7813 11.8734 8.3902 12.9389 6Z" fill="#FFCA08"/>
<path d="M16.2328 6H16.2337C16.5787 6.77714 16.9259 7.55337 17.2709 8.33065L17.2733 8.33608C17.0379 8.8494 16.8132 9.36754 16.5822 9.88281C16.3164 10.4772 16.0528 11.0727 15.7873 11.6673C15.7312 11.7867 15.6861 11.9112 15.6219 12.0265C15.2762 11.2512 14.9313 10.4754 14.5858 9.7001C15.135 8.46678 15.6845 7.23362 16.2328 6Z" fill="#FA9D1C"/>
<path d="M18.3094 6H18.3103C18.8592 7.23392 19.4087 8.46754 19.9582 9.70116C19.6098 10.4769 19.2665 11.2551 18.9191 12.0314C18.3685 10.8005 17.8219 9.56789 17.2733 8.33608L17.2709 8.33065C17.6189 7.55457 17.964 6.77714 18.3094 6Z" fill="#9E9FA3"/>
<path d="M18.3103 6H21.6041C22.6703 8.39005 23.7337 10.7813 24.7987 13.1718C23.7005 13.1729 22.6021 13.172 21.5039 13.1723C20.9881 12.0154 20.4732 10.8582 19.9582 9.70116C19.4087 8.46754 18.8592 7.23392 18.3103 6Z" fill="#636466"/>
<path d="M23.1697 15.1897C23.382 15.0734 23.6328 15.0514 23.87 15.0764C24.0898 15.0997 24.3076 15.1829 24.471 15.3345C24.6604 15.5071 24.7678 15.7542 24.8039 16.0049C24.571 16.0051 24.338 16.0052 24.1051 16.0048C24.0751 15.8911 24.0163 15.7713 23.9016 15.7235C23.7587 15.6662 23.5739 15.6675 23.4563 15.7779C23.3762 15.8524 23.3554 15.9654 23.3429 16.069C23.3196 16.29 23.3229 16.5127 23.3262 16.7344C23.3328 16.8826 23.3334 17.0349 23.3806 17.1772C23.4163 17.2881 23.5231 17.364 23.6369 17.3771C23.7712 17.3931 23.9254 17.3671 24.0183 17.2601C24.1011 17.1632 24.1167 17.0292 24.1173 16.9063C23.9782 16.9021 23.8389 16.9058 23.6998 16.9045C23.6996 16.7106 23.6995 16.5167 23.6999 16.3229C24.0691 16.3229 24.4383 16.3227 24.8076 16.323C24.8019 16.6568 24.834 16.9998 24.7351 17.3237C24.664 17.5654 24.482 17.7638 24.2625 17.8815C24.1211 17.9573 23.9609 17.9887 23.8023 18H23.6186C23.465 17.9892 23.3114 17.9537 23.1751 17.8803C22.9681 17.7689 22.79 17.5897 22.7131 17.3641C22.608 17.0655 22.6318 16.7436 22.628 16.4326C22.6283 16.1878 22.6297 15.936 22.7134 15.7027C22.7903 15.4796 22.9663 15.3026 23.1697 15.1897Z" fill="#636466"/>
<path d="M7 15.1233C7.26623 15.1316 7.53307 15.1245 7.7996 15.1269C7.97492 15.1302 8.15342 15.1132 8.32543 15.1563C8.50814 15.1988 8.68136 15.3031 8.78327 15.4634C8.88638 15.6235 8.91653 15.824 8.88623 16.01C8.84945 16.2285 8.69342 16.4232 8.48477 16.5003C8.63025 16.5564 8.76171 16.6551 8.84161 16.7906C8.95739 16.9825 8.96387 17.2234 8.90613 17.4354C8.85397 17.6276 8.71166 17.7909 8.5291 17.87C8.39508 17.9308 8.24643 17.9538 8.10005 17.9535C7.73342 17.9532 7.36663 17.9535 7 17.9534V15.1233ZM7.30317 15.3981C7.30226 15.7243 7.30302 16.0504 7.30286 16.3767C7.55372 16.3771 7.80472 16.3768 8.05573 16.3768C8.2104 16.3749 8.37563 16.3307 8.48221 16.212C8.58518 16.0982 8.60975 15.9336 8.58683 15.7862C8.57085 15.6806 8.51749 15.5793 8.43216 15.5137C8.32603 15.4305 8.18809 15.4002 8.05573 15.3983C7.80487 15.398 7.55402 15.3984 7.30317 15.3981ZM7.30302 16.6482C7.30256 16.9928 7.30271 17.3374 7.30286 17.682C7.53352 17.6822 7.76402 17.682 7.99467 17.6822C8.09101 17.6837 8.189 17.6831 8.28201 17.6541C8.4204 17.6154 8.54387 17.5162 8.59754 17.381C8.67352 17.1882 8.64834 16.9417 8.49322 16.7942C8.37322 16.6794 8.20015 16.6433 8.039 16.648C7.79357 16.6483 7.54829 16.6482 7.30302 16.6482Z" fill="#636466"/>
<path d="M10.1702 15.127C10.2554 15.1271 10.3406 15.1262 10.4259 15.1274C10.7708 16.069 11.1151 17.0109 11.4616 17.9519C11.3535 17.9548 11.2452 17.9539 11.1371 17.9525C11.0627 17.7395 10.9883 17.5265 10.9109 17.3147C10.5004 17.3162 10.0899 17.3148 9.67935 17.3153C9.60367 17.5279 9.52859 17.7406 9.45352 17.9533C9.34573 17.9539 9.23794 17.9531 9.1303 17.9536C9.47628 17.0112 9.82347 16.0692 10.1702 15.127ZM10.2974 15.5753C10.1218 16.0672 9.94633 16.5591 9.77146 17.0513C10.1224 17.0515 10.4732 17.0518 10.824 17.0512C10.6517 16.5594 10.4791 16.0678 10.3062 15.5762C10.3041 15.576 10.2997 15.5756 10.2974 15.5753Z" fill="#636466"/>
<path d="M11.7575 15.1271C11.8531 15.1265 11.9486 15.1269 12.0444 15.1269C12.5438 15.8783 13.0427 16.6301 13.5423 17.3814C13.5435 16.6298 13.542 15.8783 13.5432 15.1266C13.6437 15.1266 13.7444 15.1275 13.8451 15.1262C13.8489 16.0685 13.8457 17.011 13.8466 17.9534C13.7508 17.9534 13.655 17.9534 13.5591 17.9534C13.0591 17.1996 12.5609 16.4447 12.0607 15.6909C12.0597 16.4451 12.0604 17.1992 12.0604 17.9532C11.9595 17.9537 11.8585 17.9532 11.7576 17.9534C11.7573 17.0113 11.7576 16.0693 11.7575 15.1271Z" fill="#636466"/>
<path d="M14.503 15.1284C14.604 15.1248 14.7052 15.1278 14.8065 15.1269C14.8068 15.6669 14.8059 16.2069 14.8069 16.7471C15.247 16.2077 15.6836 15.6654 16.1241 15.1265C16.2474 15.1274 16.3706 15.1265 16.4939 15.1269C16.1978 15.4914 15.9004 15.8546 15.6047 16.2194C15.9432 16.7976 16.2822 17.3753 16.6204 17.9534C16.5004 17.9531 16.3805 17.954 16.2607 17.9529C15.9748 17.452 15.6873 16.9519 15.4012 16.4511C15.2105 16.6774 15.0225 16.9061 14.8321 17.1327C14.821 17.1482 14.8021 17.1628 14.8065 17.1847C14.8065 17.441 14.8063 17.6971 14.8065 17.9534C14.7056 17.9535 14.6048 17.9534 14.5038 17.9534C14.5032 17.0118 14.5048 16.07 14.503 15.1284Z" fill="#636466"/>
<path d="M17.0904 17.9533C17.0919 17.0112 17.0877 16.0689 17.0925 15.127C17.32 15.1303 17.5476 15.1265 17.7753 15.1289C17.985 15.5436 18.1971 15.9573 18.4074 16.3719C18.6204 15.9581 18.8298 15.5424 19.0418 15.1282C19.2699 15.1283 19.4979 15.128 19.7262 15.1283C19.726 16.0701 19.7262 17.0117 19.726 17.9534C19.4942 17.9536 19.2622 17.9534 19.0303 17.9534C19.0294 17.4838 19.0312 17.0142 19.0294 16.5445C18.8984 16.7735 18.7677 17.0026 18.6361 17.2313C18.5906 17.3096 18.503 17.3619 18.4119 17.361C18.3198 17.3643 18.2289 17.3139 18.1822 17.2348C18.049 17.0061 17.9203 16.7748 17.7866 16.5466C17.7863 17.0156 17.7866 17.4846 17.7863 17.9534C17.5543 17.9533 17.3224 17.9537 17.0904 17.9533Z" fill="#636466"/>
<path d="M20.3066 15.1283C20.9473 15.128 21.588 15.1281 22.2285 15.1283C22.2293 15.3339 22.2273 15.5397 22.2296 15.7453C21.8208 15.7504 21.4116 15.7456 21.0026 15.7477C21.0025 15.9047 21.0023 16.0615 21.0026 16.2184C21.3519 16.2188 21.7011 16.2184 22.0504 16.2187C22.0502 16.4255 22.0502 16.6322 22.0504 16.839C21.7011 16.8396 21.3518 16.8386 21.0026 16.8395C21.0025 17.0043 21.0023 17.1692 21.0026 17.334C21.4113 17.3344 21.8199 17.334 22.2285 17.3341C22.2287 17.5407 22.2287 17.747 22.2285 17.9534C21.5878 17.9534 20.9473 17.9536 20.3067 17.9534C20.3064 17.0117 20.3064 16.07 20.3066 15.1283Z" fill="#636466"/>
<path d="M25.9787 15.1283C26.1581 15.1287 26.3376 15.1266 26.5172 15.1293C26.7575 15.7961 27.0014 16.4616 27.2431 17.1277C27.3459 17.4026 27.4391 17.6813 27.5477 17.9539C27.3076 17.9528 27.0674 17.954 26.8274 17.9533C26.7812 17.8131 26.7355 17.6729 26.6886 17.5328C26.3939 17.5331 26.099 17.5313 25.8043 17.5337C25.7598 17.6741 25.7126 17.8135 25.6666 17.9534C25.4281 17.9536 25.1897 17.9534 24.9513 17.9534C25.2932 17.0115 25.636 16.0699 25.9787 15.1283ZM26.246 16.1546C26.1608 16.4252 26.0743 16.6954 25.9889 16.9658C26.161 16.9663 26.3331 16.966 26.5054 16.966C26.4187 16.6955 26.336 16.4239 26.246 16.1546Z" fill="#636466"/>
<path d="M17.2733 8.33606C17.8219 9.56787 18.3685 10.8004 18.919 12.0313C18.7716 12.3553 18.5241 12.6321 18.2206 12.818C17.7711 13.0972 17.1968 13.1605 16.6959 12.9918C16.2249 12.8368 15.8257 12.4786 15.6219 12.0265C15.6861 11.9112 15.7312 11.7867 15.7873 11.6673C16.0528 11.0727 16.3164 10.4772 16.5822 9.88279C16.8132 9.36752 17.0379 8.84938 17.2733 8.33606Z" fill="#F37022"/>
</svg>
