<svg width="28" height="20" viewBox="0 0 28 20" fill="none" xmlns="http://www.w3.org/2000/svg">
<path fill-rule="evenodd" clip-rule="evenodd" d="M7.31311 11.2697L7.59839 10.9844L7.88811 11.2742L7.60283 11.5594L7.31311 11.2697ZM8.08464 11.2697L8.36992 10.9844L8.65996 11.2742L8.37467 11.5594L8.08464 11.2697ZM5.40077 9.20935L5.69049 8.91931L5.98497 9.21379L5.69525 9.50414L5.40077 9.20998V9.20935ZM7.06777 7.77533C6.57708 8.12908 6.34949 8.36301 6.26771 8.8033C6.13046 9.54123 6.43888 10.1029 6.47216 10.2097H5.88955C6.10161 10.3397 6.30955 10.6592 6.44554 10.6662C6.58881 10.6738 6.66742 10.6716 6.66742 10.6716C6.85444 11.039 6.83067 11.4989 6.74223 11.7265C6.64428 11.9801 6.4075 12.2638 5.86071 12.0926C5.32184 11.9233 4.71071 11.4941 4.59881 10.8691C4.5557 10.6275 4.59881 10.2934 4.66887 10.14C4.77283 9.9159 4.97792 9.68197 5.18808 9.38876C4.776 9.72127 4.20829 10.3397 4.04695 10.9448C3.86088 11.6491 4.26313 12.1493 4.63495 12.46C5.00677 12.7706 5.65594 12.9104 5.97482 12.8087C6.30353 12.7056 6.38373 12.5763 6.56979 12.3604C6.79834 12.0942 6.97172 11.8133 7.02085 11.6067C7.10961 11.233 7.0329 10.6662 7.0329 10.6662C7.0329 10.6662 7.86339 10.6979 8.25074 10.6738C8.52302 10.6567 9.06315 10.3923 9.10468 9.83729C9.14684 9.27623 8.55472 8.86036 8.08749 8.65781C8.3658 8.9583 8.42254 9.30096 8.32713 9.55422C8.22031 9.83951 7.95341 10.0614 7.64626 10.1489C7.41965 10.2106 7.18301 10.2266 6.95017 10.1958C6.75998 9.90449 6.65379 8.5849 7.06777 7.77533ZM7.31723 7.68341C8.04628 7.8102 9.0882 8.37633 9.46445 9.19128C9.87399 10.0788 9.49013 10.9981 8.87677 11.6232C8.43997 12.0688 7.87195 12.2302 7.55465 12.299C7.33657 12.3452 7.20597 12.2875 7.08552 12.3268C6.80024 12.4188 6.6072 12.7662 6.34283 12.9833C7.06174 13.0077 8.17846 13.0857 9.05206 12.4647C10.1415 11.69 10.0401 10.1872 9.85592 9.55201C9.67176 8.91678 9.13099 7.62604 7.85071 7C7.69856 7.29162 7.57398 7.47547 7.31723 7.68341Z" fill="#6FBD62"/>
<path fill-rule="evenodd" clip-rule="evenodd" d="M13.5012 9.42078H13.6635V9.2867C13.6036 9.31206 13.498 9.31618 13.498 9.2233V8.43085C13.5007 8.33447 13.4885 8.23825 13.4619 8.14557C13.4427 8.08114 13.4082 8.0223 13.3614 7.97409C13.2555 7.87138 13.1281 7.86156 12.9928 7.8549C12.8293 7.84657 12.6658 7.87282 12.5132 7.93193L12.5109 8.08566C12.6799 8.01466 12.9636 7.94619 13.1424 8.02227C13.1919 8.04112 13.2348 8.07396 13.266 8.11679C13.2972 8.15962 13.3152 8.21059 13.318 8.26349C13.3227 8.33544 13.323 8.40676 13.323 8.47872C12.9062 8.39599 12.367 8.43846 12.3721 8.97828C12.3723 9.0674 12.3986 9.1545 12.4479 9.22877C12.4971 9.30305 12.5671 9.36122 12.6491 9.39606C12.8859 9.49115 13.2042 9.44963 13.3465 9.22108V9.26388C13.347 9.30531 13.3637 9.3449 13.393 9.37416C13.4224 9.40343 13.462 9.42005 13.5034 9.42046L13.5012 9.42078ZM13.3094 8.92693C13.3047 9.0721 13.2638 9.31396 12.9011 9.31396C12.8541 9.31527 12.8074 9.30698 12.7637 9.28961C12.72 9.27224 12.6803 9.24615 12.647 9.21293C12.6137 9.17971 12.5875 9.14005 12.5701 9.09638C12.5526 9.05272 12.5443 9.00595 12.5455 8.95894C12.5455 8.4971 13.0352 8.55923 13.3145 8.61026L13.3094 8.92693Z" fill="#420655"/>
<path fill-rule="evenodd" clip-rule="evenodd" d="M14.1722 7.88248H13.8518V8.01435H14.0144V9.42332H14.1748V8.39662C14.1722 8.16935 14.4601 7.97314 14.6845 7.98804C14.7713 7.99374 14.894 8.04224 14.9514 8.11831C15.0088 8.19439 15.0227 8.3234 15.0227 8.42198V9.42332H15.1989V8.4074C15.1989 8.05492 15.0303 7.86853 14.668 7.8549C14.4585 7.84793 14.2528 7.92939 14.1722 8.09993V7.88248Z" fill="#420655"/>
<path fill-rule="evenodd" clip-rule="evenodd" d="M16.8717 9.28537C16.677 9.29615 16.722 9.3326 16.2871 8.53793L16.7626 7.88464H16.5667L16.1318 8.49292H15.8687C15.8687 8.08359 15.8687 7.67437 15.8687 7.26526H15.5292V7.45259H15.6877V9.42326H15.87V8.6251L16.1356 8.62986C16.6428 9.4857 16.5391 9.42231 16.872 9.40963L16.8717 9.28537Z" fill="#420655"/>
<path fill-rule="evenodd" clip-rule="evenodd" d="M10.5919 7.41455V7.55339H10.7752V9.42357H11.4408C11.6076 9.42357 11.7632 9.39536 11.8985 9.27554C12.0184 9.16935 12.0627 9.01942 12.0627 8.85142C12.0627 8.61115 11.9296 8.42667 11.6925 8.36232C11.7749 8.32068 11.8435 8.25623 11.8903 8.17664C11.9371 8.09706 11.96 8.00571 11.9562 7.91348C11.9562 7.60379 11.7026 7.41487 11.4041 7.41487L10.5919 7.41455ZM10.9657 8.31351V7.55466H11.3857C11.6836 7.56829 11.7543 7.72804 11.7543 7.93725C11.7565 8.17182 11.6446 8.31414 11.4028 8.31414L10.9657 8.31351ZM10.9657 9.27396V8.46439H11.4044C11.7141 8.46439 11.8564 8.55948 11.8564 8.8511C11.8564 9.15826 11.6757 9.27396 11.4396 9.27396H10.9657Z" fill="#420655"/>
<path fill-rule="evenodd" clip-rule="evenodd" d="M14.099 12.267C14.0125 12.3938 13.827 12.4397 13.6628 12.4397C13.2904 12.4397 13.1189 12.2239 13.1189 11.8711V10.8862H13.4267V11.8571C13.4267 12.0172 13.4495 12.2207 13.725 12.2207C13.8835 12.2207 14.0391 12.189 14.0898 11.9354V10.8862H14.3894V12.1009C14.3935 12.2223 14.4226 12.2483 14.5729 12.1852V12.3599C14.4943 12.4271 14.1789 12.4889 14.099 12.267Z" fill="#420655"/>
<path fill-rule="evenodd" clip-rule="evenodd" d="M20.7233 10.4925H20.5435V10.2573H21.0279V12.1205C21.0279 12.235 21.1036 12.254 21.2203 12.1865V12.3649C21.0821 12.4759 20.7249 12.46 20.7233 12.1919V10.4925Z" fill="#420655"/>
<path fill-rule="evenodd" clip-rule="evenodd" d="M23.2144 11.1134H22.9738V10.8934H23.2144V10.513L23.5203 10.4037V10.8941H23.869V11.114H23.5203V11.9826C23.5193 12.0197 23.5222 12.0569 23.5288 12.0935C23.5688 12.2751 23.8214 12.2333 23.9362 12.1474V12.3569C23.7108 12.4897 23.2822 12.497 23.2249 12.161C23.2174 12.0979 23.2139 12.0344 23.2144 11.9708V11.1134Z" fill="#420655"/>
<path fill-rule="evenodd" clip-rule="evenodd" d="M16.0072 12.1198C16.0072 12.2612 16.134 12.2235 16.2015 12.1744V12.3687C16.0392 12.4638 15.8316 12.4574 15.715 12.2967C15.5755 12.4894 14.9729 12.523 14.8344 12.1737C14.6442 11.6903 14.984 11.2501 15.7147 11.4621C15.7232 10.8868 15.1571 11.0713 14.92 11.2066L14.927 10.974C15.1606 10.8107 15.6243 10.819 15.8563 11.0057C15.9116 11.0518 15.9538 11.1116 15.9787 11.179C16.012 11.2624 16.0072 11.3594 16.0072 11.4485V12.1195V12.1198ZM15.715 11.9297V11.6621C15.0734 11.4913 15.0214 11.9002 15.146 12.116C15.2766 12.3439 15.7194 12.2283 15.715 11.9312V11.9297Z" fill="#420655"/>
<path fill-rule="evenodd" clip-rule="evenodd" d="M16.7296 11.0662C16.7968 10.9509 16.9778 10.8577 17.1417 10.8577C17.3636 10.8577 17.5985 10.9211 17.6777 11.1068C17.7332 10.9322 17.9735 10.8361 18.1684 10.8507C18.5323 10.878 18.6819 11.0786 18.6819 11.413V12.4125H18.3649V11.427C18.3694 10.9328 17.731 11.0621 17.7329 11.4098V12.4125H17.4362V11.427C17.4362 10.9483 16.814 11.0466 16.8086 11.387V12.4125H16.4941V11.1128H16.3011V10.8856L16.672 10.8821L16.7296 11.0662Z" fill="#420655"/>
<path fill-rule="evenodd" clip-rule="evenodd" d="M12.4193 11.0127L11.8491 12.4014H11.6506L11.0424 11.0089V12.4058H10.7644V10.431H11.0909L11.7565 11.9826L12.3908 10.431H12.6989V12.4058H12.4193V11.0127Z" fill="#420655"/>
<path fill-rule="evenodd" clip-rule="evenodd" d="M20.2414 12.1198C20.2414 12.2612 20.3682 12.2235 20.4361 12.1744V12.3687C20.2738 12.4638 20.0658 12.4574 19.9492 12.2967C19.8097 12.4894 19.2071 12.523 19.0689 12.1737C18.8787 11.6903 19.2185 11.2501 19.9492 11.4621C19.9577 10.8868 19.3913 11.0713 19.1542 11.2066L19.1615 10.974C19.3951 10.8107 19.8588 10.819 20.0909 11.0057C20.1459 11.0519 20.1881 11.1117 20.2132 11.179C20.2449 11.2624 20.2414 11.3594 20.2414 11.4485V12.1195V12.1198ZM19.9492 11.9297V11.6621C19.3079 11.4913 19.2556 11.9002 19.3805 12.116C19.5108 12.3439 19.9539 12.2283 19.9492 11.9312V11.9297Z" fill="#420655"/>
<path fill-rule="evenodd" clip-rule="evenodd" d="M22.6698 12.1198C22.6698 12.2612 22.7966 12.2235 22.8645 12.1744V12.3687C22.7022 12.4638 22.4942 12.4574 22.3776 12.2967C22.2381 12.4894 21.6355 12.523 21.4973 12.1737C21.3071 11.6903 21.6469 11.2501 22.3776 11.4621C22.3861 10.8868 21.8197 11.0713 21.5826 11.2066L21.5899 10.974C21.8235 10.8107 22.2872 10.819 22.5193 11.0057C22.5743 11.0519 22.6165 11.1117 22.6416 11.179C22.6733 11.2624 22.6698 11.3594 22.6698 11.4485V12.1195V12.1198ZM22.3776 11.9297V11.6621C21.7363 11.4913 21.684 11.9002 21.8089 12.116C21.9392 12.3439 22.3823 12.2283 22.3776 11.9312V11.9297Z" fill="#420655"/>
</svg>
