<svg width="28" height="20" viewBox="0 0 28 20" fill="none" xmlns="http://www.w3.org/2000/svg">
<path fill-rule="evenodd" clip-rule="evenodd" d="M11.3645 7.09241C11.2658 7.50518 11.1672 7.96209 11.0659 8.37486C9.973 8.56956 8.82295 9.11214 7.64694 9.77932C8.57113 8.6111 9.98079 7.84007 11.3645 7.09241ZM7.18224 10.0857C5.98027 11.4019 5.21703 13.0971 4.69522 15C4.12928 14.6313 3.56594 14.2627 3 13.8915C4.00467 12.3806 5.32347 11.0644 7.18224 10.0831V10.0857Z" fill="#ED1C24"/>
<path fill-rule="evenodd" clip-rule="evenodd" d="M11.0867 5C11.3229 5.1324 11.5618 5.2648 11.798 5.3972C10.8479 5.92939 9.9055 6.54725 9.01765 7.5623C9.39149 6.71859 10.1106 5.86449 11.0893 5H11.0867ZM7.89356 5.35826C8.07009 5.38162 8.24663 5.40239 8.42316 5.42316C8.10904 5.96573 7.84424 6.54206 7.68847 7.19107C7.57944 6.63551 7.71963 6.00208 7.89356 5.35826ZM8.09346 6.68743C8.20768 6.69263 8.32191 6.70042 8.43354 6.70561C8.17394 7.13655 7.96106 7.59086 7.78453 8.06075C7.82347 7.6298 7.92212 7.17549 8.09346 6.68743ZM8.32191 7.4325C8.49844 7.53894 8.67497 7.64278 8.85151 7.74922C8.38162 8.29958 7.94289 8.87331 7.57944 9.48858C7.73261 8.82139 8.02337 8.12565 8.32191 7.4325ZM7.08619 7.61163C7.25753 7.57788 7.42887 7.54673 7.59761 7.51298C7.45483 8.14901 7.40291 8.78505 7.42627 9.42108C7.18744 8.8837 7.11994 8.25545 7.08359 7.61163H7.08619ZM6.89408 8.1594C6.946 8.60592 7.02129 9.05244 7.15628 9.49896C6.93821 9.19782 6.7487 8.8188 6.57217 8.40343C6.67861 8.32295 6.78764 8.24247 6.89408 8.1594ZM5.88422 8.85254C6.02181 8.80581 6.1568 8.75909 6.29439 8.71236C6.50727 9.00571 6.71495 9.30685 6.91745 9.61838C6.59813 9.3406 6.24766 9.09138 5.88422 8.84995V8.85254ZM5.15732 7.84268C5.26376 7.78557 5.3702 7.72845 5.47664 7.67134C5.73105 7.91277 5.96729 8.20872 6.18276 8.56438C5.85826 8.29439 5.51817 8.05296 5.15732 7.84268ZM3.44393 8.97456C3.56594 8.83956 3.68536 8.70197 3.80737 8.56698C4.27207 8.72014 4.72378 8.89148 5.16511 9.0758C4.59657 9.01869 4.02025 8.98494 3.44133 8.97456H3.44393ZM5.05348 9.64174C5.18848 9.49117 5.32347 9.3406 5.46106 9.18743C5.95171 9.36656 6.42679 9.57684 6.88889 9.82606C6.27622 9.73001 5.66615 9.67809 5.05348 9.64174ZM4.1838 10.1532C4.24611 10.013 4.30841 9.87279 4.36812 9.73261C4.84839 9.72741 5.3053 9.79751 5.73105 9.96106C5.21444 9.97664 4.70042 10.0493 4.1838 10.1558V10.1532ZM3.22845 10.7866C3.25701 10.649 3.29855 10.514 3.35566 10.379C3.7243 10.3297 4.09294 10.3089 4.46158 10.3505C4.00727 10.4595 3.60748 10.6153 3.23105 10.784L3.22845 10.7866ZM4.11111 11.4616C4.24351 11.1319 4.3811 10.7996 4.5135 10.4699C5.3676 10.1376 6.19574 10.0182 7.0109 10.0182C5.97248 10.3634 5.02233 10.8749 4.11111 11.4616ZM3.74507 12.4299V11.9289C4.13967 11.6615 4.52648 11.4927 4.9081 11.3759C4.446 11.6667 4.06438 12.0249 3.74507 12.4299Z" fill="#FED860"/>
<path fill-rule="evenodd" clip-rule="evenodd" d="M17.4185 12.3753V11.825L17.1796 11.921C17.0576 11.9703 16.9719 12.0197 16.9226 12.0716C16.8707 12.1235 16.8473 12.1858 16.8473 12.2611C16.8473 12.3364 16.8707 12.4013 16.92 12.448C16.9668 12.4973 17.0291 12.5207 17.1069 12.5207C17.2212 12.5207 17.325 12.474 17.4211 12.3779L17.4185 12.3753ZM17.7689 11.6251V12.4143C17.7689 12.4792 17.7897 12.5103 17.8312 12.5103C17.8572 12.5103 17.8935 12.4973 17.9403 12.4714C18.1012 12.3883 17.9766 12.6739 17.839 12.744C17.7923 12.7673 17.7378 12.7725 17.6859 12.7725C17.5327 12.7725 17.4418 12.7102 17.4159 12.5856C17.2627 12.7076 17.1018 12.7673 16.9304 12.7673C16.8058 12.7673 16.702 12.7258 16.6163 12.6401C16.5332 12.5545 16.4891 12.4454 16.4891 12.3182C16.4891 12.2014 16.5306 12.095 16.6111 12.0041C16.6942 11.9106 16.8084 11.8379 16.959 11.786L17.4159 11.6251V11.5264C17.4159 11.3032 17.3068 11.1915 17.0914 11.1915C16.8967 11.1915 16.7072 11.2954 16.5228 11.5005V11.0981C16.663 10.9293 16.8603 10.8463 17.1199 10.8463C17.3146 10.8463 17.4704 10.8982 17.5898 11.0046C17.6287 11.0384 17.6651 11.0825 17.6962 11.1396C17.7274 11.1941 17.7482 11.2512 17.756 11.3058C17.7663 11.3629 17.7689 11.4667 17.7689 11.6251ZM21.6448 10.8826V11.1188C21.8032 10.9371 21.9823 10.8463 22.1848 10.8463C22.2965 10.8463 22.4003 10.8748 22.4964 10.9345C22.5924 10.9942 22.6651 11.0773 22.7144 11.1811C22.7663 11.285 22.7897 11.4511 22.7897 11.677V12.7388C22.5353 12.7751 22.4912 12.6375 22.4366 12.5077V11.6796C22.4366 11.4901 22.4081 11.3551 22.3536 11.272C22.2991 11.1889 22.203 11.15 22.0732 11.15C21.907 11.15 21.7643 11.2357 21.6474 11.4096V12.7362H21.2866V10.8774H21.6474L21.6448 10.8826ZM23.662 12.8764C23.54 12.8764 23.4413 12.9023 23.3634 12.9543C23.2856 13.0062 23.2466 13.0737 23.2466 13.1541C23.2466 13.3437 23.418 13.4397 23.7554 13.4397C23.9164 13.4397 24.0384 13.4164 24.1267 13.367C24.2149 13.3203 24.2591 13.2528 24.2591 13.1671C24.2591 13.0815 24.2046 13.0114 24.0929 12.9568C23.9813 12.9023 23.8385 12.8764 23.662 12.8764ZM23.7477 11.259C23.649 11.259 23.5659 11.2928 23.4984 11.3603C23.4283 11.4278 23.3946 11.5083 23.3946 11.6017C23.3946 11.6952 23.4283 11.7756 23.4958 11.8379C23.5633 11.9003 23.649 11.9314 23.7528 11.9314C23.8567 11.9314 23.9398 11.9003 24.0098 11.8354C24.0773 11.7705 24.1111 11.6926 24.1111 11.5991C24.1111 11.5057 24.0773 11.4226 24.0073 11.3577C23.9372 11.2928 23.8515 11.2616 23.7477 11.2616V11.259ZM23.0675 11.5809C23.0675 11.3836 23.1376 11.2279 23.2804 11.1137C23.4231 10.9994 23.6178 10.9423 23.8645 10.9423H24.7835C24.7367 11.0565 24.6822 11.1682 24.5291 11.2279H24.2487C24.3214 11.3006 24.3707 11.3681 24.3967 11.4278C24.4252 11.4875 24.4382 11.5576 24.4382 11.6329C24.4382 11.7289 24.4122 11.8224 24.3577 11.9158C24.3032 12.0093 24.2331 12.0794 24.1474 12.1313C24.0618 12.1806 23.9216 12.2196 23.7269 12.2507C23.5893 12.2715 23.5218 12.3182 23.5218 12.3935C23.5218 12.435 23.5478 12.4714 23.5971 12.4999C23.649 12.5285 23.7399 12.5545 23.8749 12.583C24.0981 12.6323 24.2409 12.6713 24.3058 12.6998C24.3707 12.7284 24.4278 12.7699 24.4797 12.8193C24.568 12.9075 24.6121 13.0192 24.6121 13.1516C24.6121 13.3281 24.5343 13.4657 24.3811 13.5721C24.2279 13.676 24.0202 13.7279 23.7632 13.7279C23.5062 13.7279 23.2933 13.676 23.1376 13.5695C22.9818 13.4657 22.9039 13.3229 22.9039 13.1464C22.9039 12.8971 23.0571 12.7362 23.3634 12.6635C23.2414 12.5856 23.1791 12.5077 23.1791 12.4298C23.1791 12.3701 23.2051 12.3182 23.257 12.2689C23.3089 12.2196 23.379 12.1858 23.4699 12.1625C23.1999 12.0404 23.0675 11.8457 23.0675 11.5783V11.5809ZM19.7238 11.6614H20.6376C20.6298 11.516 20.5857 11.4018 20.5104 11.3239C20.4351 11.2435 20.3312 11.2045 20.2014 11.2045C20.0716 11.2045 19.9652 11.2435 19.8847 11.3239C19.8016 11.4018 19.7471 11.516 19.7238 11.6614ZM20.9958 11.8795H19.716C19.7264 12.056 19.7835 12.1962 19.8925 12.3C19.9989 12.4065 20.1391 12.4584 20.3079 12.4584C20.5441 12.4584 20.7648 12.3831 20.9647 12.2326V12.5908C20.8531 12.6661 20.744 12.7206 20.635 12.7518C20.5259 12.7829 20.3987 12.7985 20.2508 12.7985C20.0509 12.7985 19.8873 12.757 19.7653 12.6713C19.6407 12.5856 19.542 12.474 19.4668 12.3312C19.3915 12.1884 19.3551 12.0223 19.3551 11.8354C19.3551 11.5524 19.433 11.3239 19.5914 11.1474C19.7497 10.9709 19.9522 10.8826 20.204 10.8826C20.4559 10.8826 20.6376 10.9683 20.7804 11.1396C20.9257 11.311 20.9958 11.542 20.9958 11.8302V11.8769V11.8795ZM17.9922 11.2045L18.636 10.5321V10.9138H19.2097C19.1838 11.0202 19.1371 11.1266 18.9501 11.2435H18.636V12.1469C18.636 12.3598 18.7191 12.4636 18.8826 12.4636C19.0047 12.4636 19.1345 12.4195 19.2721 12.3312V12.6713C19.1397 12.7492 18.9969 12.7907 18.8411 12.7907C18.6853 12.7907 18.5555 12.7414 18.4517 12.6427C18.4205 12.6142 18.392 12.5804 18.3712 12.5441C18.3505 12.5077 18.3323 12.4584 18.3167 12.3987C18.3037 12.339 18.2959 12.2274 18.2959 12.0586V11.2409H17.9948V11.2045H17.9922ZM16.2528 9.94543V12.731C16.2528 12.9906 16.2269 13.1827 16.175 13.3073C16.123 13.4319 16.0374 13.5306 15.9205 13.6059C15.8037 13.6811 15.6635 13.7175 15.5 13.7175C15.474 13.7175 15.4325 13.7123 15.3702 13.7045L15.2975 13.3281H15.3987C15.513 13.3281 15.6012 13.3151 15.6609 13.2865C15.7207 13.258 15.77 13.2087 15.8037 13.1386C15.8401 13.0685 15.8556 12.9153 15.8556 12.6843V10.3919C15.866 10.1272 16.027 10.0025 16.2554 9.94283L16.2528 9.94543ZM13.3816 9.91687V12.7388H13.0208V10.2621C13.0441 10.1297 13.1661 10.0155 13.3816 9.91947V9.91687ZM14.1968 10.88H14.6043L13.8515 11.7782C14.1474 12.095 14.4512 12.4221 14.7471 12.7388C14.5394 12.7777 14.298 12.7232 14.0566 12.5129L13.3972 11.7912L14.1968 10.88ZM11.5592 10.88V11.1162C11.7175 10.9345 11.8967 10.8437 12.0992 10.8437C12.2108 10.8437 12.3146 10.8722 12.4107 10.9319C12.5067 10.9916 12.5794 11.0747 12.6288 11.1786C12.6781 11.2824 12.704 11.4485 12.704 11.6744V12.7362C12.4496 12.7725 12.4055 12.6349 12.351 12.5051V11.677C12.351 11.4875 12.3224 11.3525 12.2679 11.2694C12.2134 11.1863 12.1199 11.1474 11.9875 11.1474C11.8214 11.1474 11.6786 11.2331 11.5618 11.407V12.7336H11.2009V10.8748H11.5618L11.5592 10.88ZM10.391 12.3701V11.8198L10.1521 11.9158C10.0327 11.9652 9.94443 12.0145 9.89511 12.0664C9.84319 12.1183 9.81982 12.1806 9.81982 12.2559C9.81982 12.3312 9.84319 12.3961 9.89251 12.4428C9.94184 12.4922 10.0015 12.5155 10.0768 12.5155C10.1911 12.5155 10.2949 12.4688 10.391 12.3727V12.3701ZM10.7414 11.6199V12.4091C10.7414 12.474 10.7622 12.5051 10.8037 12.5051C10.8323 12.5051 10.866 12.4922 10.9128 12.4662C11.0737 12.3831 10.9491 12.6687 10.8115 12.7388C10.7648 12.7621 10.7103 12.7673 10.6583 12.7673C10.5052 12.7673 10.4143 12.705 10.3884 12.5804C10.2378 12.7024 10.0768 12.7621 9.90549 12.7621C9.78088 12.7621 9.67444 12.7206 9.59137 12.6349C9.50829 12.5493 9.46676 12.4402 9.46676 12.313C9.46676 12.1962 9.50829 12.0898 9.58877 11.9989C9.67185 11.9054 9.78607 11.8328 9.93664 11.7808L10.3935 11.6199V11.5212C10.3935 11.298 10.2845 11.1863 10.069 11.1863C9.87434 11.1863 9.68483 11.2902 9.50051 11.4953V11.0929C9.6381 10.9241 9.83799 10.8411 10.0976 10.8411C10.2923 10.8411 10.4481 10.893 10.5649 10.9994C10.6038 11.0332 10.6402 11.0773 10.6713 11.1344C10.7025 11.1889 10.7232 11.246 10.731 11.3006C10.7388 11.3577 10.744 11.4615 10.744 11.6199H10.7414ZM8.18171 11.4901H7.82346V12.3779H8.20248C8.41276 12.3779 8.55554 12.3624 8.62823 12.326C8.70352 12.2923 8.76323 12.2377 8.80996 12.1651C8.85409 12.0924 8.87745 12.0171 8.87745 11.934C8.87745 11.8509 8.85409 11.7705 8.80476 11.6978C8.75544 11.6277 8.68794 11.5757 8.59968 11.5394C8.51141 11.5057 8.37122 11.4875 8.18171 11.4875V11.4901ZM8.15315 10.2907H7.82346V11.1344H8.07787C8.28296 11.1344 8.42834 11.0929 8.51401 11.0124C8.60227 10.9293 8.64381 10.8255 8.64381 10.6957C8.64381 10.4257 8.48026 10.2933 8.15315 10.2933V10.2907ZM8.34786 12.7362H7.43924V9.93504H8.14277C8.36343 9.93504 8.53737 9.9662 8.66198 10.0259C8.78659 10.0882 8.88005 10.1739 8.94755 10.2829C9.01245 10.3919 9.0462 10.5192 9.0462 10.6619C9.0462 10.9371 8.9112 11.1344 8.63862 11.2538C8.83332 11.2928 8.98908 11.3784 9.10591 11.5083C9.22273 11.6381 9.27984 11.7912 9.27984 11.9729C9.27984 12.1157 9.2435 12.2429 9.1734 12.3546C9.10331 12.4662 8.99947 12.5571 8.86447 12.6297C8.72688 12.6998 8.55814 12.7362 8.35305 12.7362H8.34786Z" fill="#2E3092"/>
</svg>
