<svg width="46" height="32" viewBox="0 0 46 32" fill="none" xmlns="http://www.w3.org/2000/svg">
<path d="M32.2281 14.5291C33.1467 13.4559 33.7592 12.1547 34.0008 10.7625C34.0008 10.741 33.9685 10.7058 33.9431 10.6862C33.9177 10.6667 33.904 10.6686 33.8961 10.6862C32.6478 14.084 30.6001 15.7736 27.7209 16.9476C27.6025 16.4751 27.4998 15.9976 27.4205 15.5163C28.526 15.213 29.6022 14.7718 30.4749 14.1349C31.4229 13.4393 32.2124 12.549 32.7906 11.5247C33.3297 10.5816 33.723 9.56311 33.9578 8.50259C34.0116 8.25116 33.9861 8.16115 33.901 8.0956L33.8619 8.06625C33.8267 8.03984 33.8003 8.06625 33.7905 8.11419C33.7279 8.37247 33.6486 8.62586 33.5527 8.87338C32.411 11.9395 30.5913 13.7836 27.2914 14.5477C27.2405 14.0077 27.2278 13.4647 27.2523 12.9227C29.5699 12.4335 31.5305 10.8222 32.5979 8.72272C33.0822 7.74242 33.4461 6.70637 33.6809 5.63802C33.7102 5.5353 33.6711 5.42573 33.5831 5.36605C33.5606 5.34942 33.5351 5.33963 33.5077 5.33572C33.4529 5.30833 33.3903 5.30148 33.3316 5.31713C32.2633 5.55193 31.2263 5.91587 30.246 6.40113C28.1553 7.46262 26.5537 9.41049 26.0528 11.7135C25.5108 11.737 24.9688 11.7233 24.4288 11.6714C25.1938 8.39693 27.036 6.58408 30.0904 5.44921C30.3379 5.35333 30.5923 5.27311 30.8506 5.21049C30.8936 5.20071 30.9239 5.17527 30.8975 5.13907L30.8682 5.10092C30.8026 5.0158 30.7126 4.98939 30.4612 5.04417C29.4007 5.278 28.3822 5.67129 27.4401 6.21133C26.4148 6.78855 25.5245 7.57806 24.8289 8.52705C24.1989 9.38896 23.7606 10.4514 23.4592 11.5433C22.9789 11.464 22.5044 11.3613 22.0328 11.2419C23.2068 8.38323 24.8994 6.35025 28.2815 5.10483C28.304 5.097 28.3001 5.07744 28.2815 5.05787C28.2629 5.0383 28.2267 4.99721 28.2052 5.00015C26.811 5.24082 25.5089 5.85424 24.4346 6.77387C23.1119 7.88722 22.0319 9.29504 21.1836 11.0091C20.763 10.8848 20.3442 10.7498 19.9294 10.607C18.6752 10.1755 15.4477 8.69435 14.2013 7.62502C13.8099 7.28848 13.6211 7.24347 13.4127 7.39022C13.3012 7.48414 13.2004 7.5898 13.1124 7.70623C12.6193 8.40574 12.2446 9.18058 12.002 10.0014C11.9834 10.0718 12.0998 10.1393 12.2172 10.0875C12.7993 9.82824 15.3107 10.922 16.0386 11.2087C16.5092 11.3936 16.9876 11.5628 17.4669 11.7223C18.4678 12.0569 19.4764 12.3611 20.4998 12.6028C20.4391 12.7642 20.3804 12.9266 20.3237 13.092C20.1515 13.5968 20.0067 14.1094 19.8864 14.6221C17.4728 14.265 15.4212 13.6437 14.0888 13.0851C13.1505 12.7006 12.5635 12.6057 12.1585 12.8171C12.091 12.8533 12.0206 12.9707 12.0538 13.1546C12.1595 13.7435 12.3473 14.3139 12.6134 14.8491C12.8375 15.302 12.9627 15.1553 13.1769 15.1054C13.4783 15.0369 13.8373 15.1298 14.1298 15.1876C14.6983 15.2981 15.2608 15.441 15.8273 15.5642C17.0707 15.8274 18.3328 15.9966 19.6017 16.071C19.495 16.7558 19.4246 17.4221 19.3815 18.06C19.2191 18.0531 19.0587 18.0453 18.9022 18.0355C17.0521 17.9298 14.9634 17.4152 14.2815 17.2372C14.214 17.2196 14.2179 17.4133 14.2649 17.4651C14.5662 17.8056 15.1542 18.417 15.2872 18.5648C15.613 18.9414 16.0376 19.2212 16.5121 19.3719C17.1147 19.5676 17.7536 19.6038 18.3807 19.6263C18.6742 19.637 18.9951 19.6419 19.3277 19.6409C19.3277 19.9863 19.3277 20.316 19.3424 20.6193C19.3649 21.2474 19.4021 21.8911 19.5968 22.4879C19.7465 22.9624 20.0243 23.386 20.4 23.7128C20.5477 23.8458 21.1592 24.4338 21.4996 24.7351C21.5515 24.7821 21.7462 24.787 21.7276 24.7185C21.5495 24.0337 21.0349 21.9479 20.9293 20.0988C20.9195 19.9315 20.9107 19.7603 20.9038 19.5871C21.5407 19.546 22.2099 19.4766 22.8918 19.3709C22.9652 20.6496 23.1364 21.9205 23.4015 23.1727C23.5238 23.7392 23.6667 24.3017 23.7772 24.8711C23.8349 25.1646 23.9288 25.5217 23.8594 25.824C23.8095 26.0383 23.6637 26.1625 24.1157 26.3876C24.6509 26.6527 25.2222 26.8415 25.8102 26.9472C25.9941 26.9794 26.1115 26.91 26.1477 26.8415C26.362 26.4335 26.2671 25.8485 25.8806 24.9142C25.322 23.5768 24.6968 21.5164 24.3398 19.0921C24.869 18.9698 25.3915 18.8211 25.9051 18.646C26.0577 18.5931 26.2084 18.5393 26.3581 18.4836C26.5997 19.5108 26.9059 20.5263 27.2386 21.533C27.398 22.0134 27.5673 22.4908 27.7532 22.9614C28.0388 23.6893 29.1326 26.2017 28.8743 26.7828C28.8215 26.9002 28.889 27.0166 28.9604 26.998C29.7812 26.7564 30.5561 26.3807 31.2546 25.8876C31.371 25.7996 31.4767 25.6998 31.5706 25.5883C31.7174 25.3789 31.6685 25.192 31.3358 24.7997C30.2665 23.5523 28.7843 20.3248 28.3539 19.0706C28.2091 18.6509 28.0741 18.2263 27.9478 17.7987C29.6893 16.9525 31.1059 15.8655 32.2281 14.5291ZM29.8977 7.30315C30.7782 6.61832 31.8015 6.12915 32.8571 5.78282L33.3727 5.62041C33.3218 5.7838 33.27 5.9462 33.2181 6.10958C32.8689 7.16521 32.3856 8.18952 31.6978 9.06905C30.5923 10.4837 29.068 11.2517 27.4147 11.5579C27.7277 9.91629 28.4928 8.4028 29.8977 7.30315ZM25.8591 13.1106C25.8239 13.5997 25.817 14.0889 25.8288 14.5849C25.8288 14.6514 25.8288 14.717 25.8366 14.7806C25.2564 14.8432 24.6626 14.8784 24.0678 14.897C24.0834 14.2992 24.1226 13.7064 24.1871 13.1262L24.4161 13.135C24.8964 13.1507 25.3797 13.1448 25.8591 13.1106ZM21.4938 12.8171C22.0319 12.9149 22.5699 13.002 23.1198 13.0577C23.0082 13.7005 22.9358 14.3296 22.8928 14.899C22.3733 14.8843 21.8548 14.8539 21.3451 14.8011C21.26 14.7933 21.1768 14.7835 21.0936 14.7747C21.1866 14.1143 21.3196 13.4608 21.4938 12.8171ZM20.8716 18.1001C20.8716 17.4632 20.896 16.8028 20.9469 16.1356C21.5779 16.1512 22.208 16.1493 22.836 16.1356C22.8224 16.7646 22.8204 17.3957 22.836 18.0267C22.1678 18.0737 21.5084 18.1001 20.8716 18.1001ZM24.1881 17.8839C24.1803 17.8095 24.1725 17.7361 24.1646 17.6608C24.1147 17.1403 24.0844 16.612 24.0668 16.0818C24.6391 16.0397 25.2633 15.9683 25.9061 15.8587C25.9618 16.4056 26.044 16.9486 26.1458 17.4876C25.502 17.6588 24.8485 17.7899 24.1881 17.8799V17.8839Z" fill="url(#paint0_linear_301_3588)"/>
<defs>
<linearGradient id="paint0_linear_301_3588" x1="17.8289" y1="21.1515" x2="33.6017" y2="5.37878" gradientUnits="userSpaceOnUse">
<stop stop-color="#1751A4"/>
<stop offset="0.52" stop-color="#307F75"/>
<stop offset="1" stop-color="#49AB48"/>
</linearGradient>
</defs>
</svg>
