<svg width="28" height="20" viewBox="0 0 28 20" fill="none" xmlns="http://www.w3.org/2000/svg">
<path d="M19.0335 9.19771C19.5346 8.61231 19.8686 7.90257 20.0004 7.14321C20.0004 7.13147 19.9828 7.11226 19.969 7.10158C19.9551 7.09091 19.9476 7.09198 19.9433 7.10158C19.2624 8.95491 18.1455 9.8765 16.575 10.5169C16.5105 10.2591 16.4544 9.9987 16.4112 9.73615C17.0142 9.57073 17.6012 9.33006 18.0772 8.98266C18.5943 8.60324 19.025 8.11763 19.3403 7.55891C19.6344 7.04449 19.8489 6.48897 19.977 5.9105C20.0063 5.77336 19.9924 5.72427 19.946 5.68851L19.9247 5.6725C19.9055 5.65809 19.891 5.6725 19.8857 5.69865C19.8516 5.83953 19.8083 5.97774 19.756 6.11275C19.1333 7.78517 18.1407 8.79108 16.3408 9.20785C16.313 8.91328 16.3061 8.61712 16.3194 8.32148C17.5836 8.05466 18.653 7.17576 19.2352 6.03057C19.4994 5.49587 19.6979 4.93075 19.8259 4.34801C19.842 4.29198 19.8206 4.23221 19.7726 4.19966C19.7603 4.19059 19.7464 4.18525 19.7315 4.18312C19.7016 4.16818 19.6675 4.16444 19.6354 4.17298C19.0527 4.30105 18.487 4.49957 17.9523 4.76425C16.812 5.34325 15.9384 6.40572 15.6652 7.6619C15.3695 7.67471 15.0739 7.66724 14.7793 7.63896C15.1966 5.85287 16.2015 4.86404 17.8675 4.24502C18.0025 4.19272 18.1412 4.14897 18.2821 4.11481C18.3056 4.10948 18.3222 4.0956 18.3077 4.07586L18.2917 4.05505C18.256 4.00862 18.2069 3.99421 18.0697 4.0241C17.4913 4.15163 16.9358 4.36616 16.4219 4.66073C15.8626 4.97557 15.377 5.40622 14.9976 5.92385C14.6539 6.39398 14.4149 6.97351 14.2505 7.56905C13.9885 7.52583 13.7297 7.46979 13.4725 7.40469C14.1128 5.8454 15.036 4.7365 16.8808 4.05718C16.8931 4.05291 16.8909 4.04224 16.8808 4.03157C16.8707 4.02089 16.8509 3.99848 16.8392 4.00008C16.0787 4.13136 15.3685 4.46595 14.7825 4.96757C14.0611 5.57485 13.4719 6.34275 13.0093 7.27768C12.7798 7.20991 12.5514 7.13627 12.3251 7.05836C11.641 6.82303 9.88054 6.0151 9.20069 5.43183C8.98723 5.24826 8.88424 5.22371 8.77058 5.30376C8.70974 5.35499 8.65478 5.41262 8.60675 5.47612C8.3378 5.85767 8.13341 6.28032 8.00107 6.72804C7.99093 6.76646 8.05444 6.80328 8.11847 6.775C8.43599 6.63358 9.80583 7.23019 10.2029 7.38655C10.4595 7.4874 10.7205 7.57972 10.982 7.66671C11.5279 7.84921 12.0781 8.01517 12.6362 8.14698C12.6032 8.23503 12.5711 8.32362 12.5402 8.4138C12.4463 8.68916 12.3673 8.96878 12.3017 9.24841C10.9852 9.05363 9.86613 8.71477 9.13932 8.41006C8.62756 8.20034 8.30738 8.14858 8.08645 8.26385C8.04963 8.28359 8.01121 8.34763 8.02935 8.44795C8.08699 8.7692 8.18945 9.08031 8.3346 9.37221C8.4568 9.61929 8.5251 9.53924 8.64197 9.51203C8.80633 9.47467 9.00218 9.52537 9.16173 9.55685C9.47178 9.61715 9.77862 9.69506 10.0876 9.7623C10.7658 9.90585 11.4542 9.99817 12.1464 10.0387C12.0882 10.4123 12.0498 10.7757 12.0263 11.1236C11.9377 11.1199 11.8502 11.1156 11.7648 11.1103C10.7557 11.0526 9.61639 10.7719 9.24445 10.6748C9.20763 10.6652 9.20976 10.7709 9.23538 10.7992C9.39974 10.9849 9.72045 11.3184 9.79303 11.399C9.97073 11.6044 10.2023 11.757 10.4611 11.8392C10.7899 11.9459 11.1383 11.9657 11.4804 11.978C11.6405 11.9838 11.8155 11.9865 11.9969 11.986C11.9969 12.1743 11.9969 12.3542 12.005 12.5196C12.0172 12.8622 12.0375 13.2133 12.1437 13.5389C12.2253 13.7977 12.3769 14.0287 12.5818 14.207C12.6624 14.2795 12.9959 14.6003 13.1816 14.7646C13.2099 14.7902 13.3161 14.7929 13.306 14.7556C13.2088 14.382 12.9281 13.2443 12.8705 12.2357C12.8652 12.1445 12.8604 12.0511 12.8566 11.9566C13.204 11.9342 13.569 11.8963 13.941 11.8387C13.981 12.5362 14.0744 13.2293 14.219 13.9124C14.2857 14.2214 14.3636 14.5282 14.4239 14.8388C14.4554 14.9989 14.5066 15.1937 14.4688 15.3586C14.4415 15.4754 14.362 15.5432 14.6086 15.6659C14.9005 15.8106 15.2121 15.9135 15.5328 15.9712C15.6332 15.9888 15.6972 15.9509 15.7169 15.9135C15.8338 15.691 15.782 15.3719 15.5713 14.8623C15.2665 14.1328 14.9256 13.009 14.7308 11.6866C15.0195 11.6199 15.3044 11.5388 15.5846 11.4433C15.6678 11.4144 15.75 11.3851 15.8317 11.3547C15.9635 11.915 16.1305 12.4689 16.3119 13.018C16.3989 13.28 16.4912 13.5405 16.5926 13.7971C16.7485 14.1942 17.3451 15.5645 17.2042 15.8815C17.1754 15.9456 17.2122 16.0091 17.2511 15.9989C17.6989 15.8671 18.1215 15.6622 18.5025 15.3932C18.566 15.3452 18.6237 15.2908 18.6749 15.23C18.7549 15.1158 18.7283 15.0138 18.5468 14.7998C17.9635 14.1195 17.1551 12.359 16.9203 11.6749C16.8413 11.4459 16.7677 11.2143 16.6988 10.9811C17.6487 10.5195 18.4214 9.92666 19.0335 9.19771ZM17.7624 5.25626C18.2426 4.88272 18.8008 4.6159 19.3766 4.42699L19.6578 4.33841C19.6301 4.42753 19.6018 4.51611 19.5735 4.60523C19.383 5.18102 19.1194 5.73974 18.7443 6.21948C18.1412 6.99112 17.3098 7.41003 16.408 7.57706C16.5788 6.68161 16.9961 5.85607 17.7624 5.25626ZM15.5595 8.42394C15.5403 8.69076 15.5366 8.95758 15.543 9.22813C15.543 9.26442 15.543 9.30017 15.5472 9.33486C15.2308 9.36901 14.9069 9.38822 14.5824 9.39836C14.591 9.07231 14.6123 8.74892 14.6475 8.43248L14.7724 8.43728C15.0344 8.44582 15.298 8.44262 15.5595 8.42394ZM13.1784 8.26385C13.4719 8.31721 13.7654 8.36471 14.0653 8.39512C14.0045 8.74572 13.965 9.08885 13.9415 9.39943C13.6582 9.39142 13.3753 9.37488 13.0973 9.34607C13.0509 9.3418 13.0055 9.33646 12.9602 9.33166C13.0109 8.97145 13.0834 8.61498 13.1784 8.26385ZM12.839 11.1455C12.839 10.7981 12.8524 10.4379 12.8801 10.0739C13.2243 10.0825 13.568 10.0814 13.9106 10.0739C13.9031 10.4171 13.902 10.7613 13.9106 11.1055C13.5461 11.1311 13.1864 11.1455 12.839 11.1455ZM14.6481 11.0276C14.6438 10.987 14.6395 10.947 14.6353 10.9059C14.608 10.622 14.5915 10.3338 14.5819 10.0446C14.8941 10.0217 15.2345 9.98269 15.5851 9.92293C15.6155 10.2212 15.6604 10.5174 15.7159 10.8114C15.3647 10.9048 15.0083 10.9763 14.6481 11.0254V11.0276Z" fill="url(#paint0_linear_301_3506)"/>
<defs>
<linearGradient id="paint0_linear_301_3506" x1="11.1794" y1="12.8099" x2="19.7827" y2="4.20661" gradientUnits="userSpaceOnUse">
<stop stop-color="#1751A4"/>
<stop offset="0.52" stop-color="#307F75"/>
<stop offset="1" stop-color="#49AB48"/>
</linearGradient>
</defs>
</svg>
