<svg width="34" height="24" viewBox="0 0 34 24" fill="none" xmlns="http://www.w3.org/2000/svg">
<path d="M24.5502 10.7966C25.3019 9.91847 25.8029 8.85386 26.0007 7.71481C26.0007 7.6972 25.9742 7.66839 25.9534 7.65238C25.9326 7.63637 25.9214 7.63797 25.915 7.65238C24.8936 10.4324 23.2183 11.8148 20.8625 12.7753C20.7657 12.3887 20.6816 11.9981 20.6168 11.6042C21.5213 11.3561 22.4018 10.9951 23.1158 10.474C23.8915 9.90486 24.5374 9.17645 25.0105 8.33837C25.4515 7.56673 25.7733 6.73345 25.9654 5.86576C26.0095 5.66004 25.9887 5.5864 25.919 5.53277L25.887 5.50875C25.8582 5.48714 25.8366 5.50875 25.8286 5.54798C25.7773 5.7593 25.7125 5.96661 25.6341 6.16913C24.6999 8.67776 23.2111 10.1866 20.5111 10.8118C20.4695 10.3699 20.4591 9.92567 20.4791 9.48222C22.3754 9.08199 23.9795 7.76364 24.8528 6.04586C25.249 5.2438 25.5468 4.39612 25.7389 3.52202C25.7629 3.43797 25.7309 3.34832 25.6589 3.29949C25.6405 3.28589 25.6196 3.27788 25.5972 3.27468C25.5524 3.25227 25.5012 3.24666 25.4531 3.25947C24.5791 3.45158 23.7306 3.74935 22.9285 4.14638C21.2179 5.01487 19.9076 6.60858 19.4978 8.49286C19.0543 8.51207 18.6109 8.50086 18.169 8.45844C18.795 5.77931 20.3022 4.29606 22.8012 3.36753C23.0038 3.28909 23.2119 3.22345 23.4232 3.17222C23.4584 3.16422 23.4832 3.1434 23.4616 3.11379L23.4376 3.08257C23.384 3.01293 23.3103 2.99132 23.1046 3.03614C22.2369 3.22745 21.4036 3.54924 20.6328 3.99109C19.7939 4.46336 19.0655 5.10933 18.4964 5.88577C17.9809 6.59097 17.6223 7.46027 17.3757 8.35358C16.9827 8.28874 16.5945 8.20469 16.2087 8.10704C17.1692 5.7681 18.554 4.10475 21.3212 3.08577C21.3396 3.07937 21.3364 3.06336 21.3212 3.04735C21.306 3.03134 21.2764 2.99772 21.2588 3.00012C20.1181 3.19703 19.0527 3.69892 18.1738 4.45135C17.0916 5.36227 16.2079 6.51413 15.5139 7.91653C15.1697 7.81487 14.8271 7.70441 14.4877 7.58754C13.4615 7.23454 10.8208 6.02265 9.80103 5.14775C9.48085 4.87239 9.32636 4.83557 9.15587 4.95564C9.06461 5.03248 8.98217 5.11893 8.91013 5.21419C8.5067 5.78651 8.20012 6.42047 8.00161 7.09206C7.9864 7.14969 8.08165 7.20492 8.17771 7.1625C8.65398 6.95038 10.7088 7.84529 11.3043 8.07982C11.6893 8.23111 12.0807 8.36959 12.473 8.50006C13.2918 8.77382 14.1171 9.02276 14.9544 9.22047C14.9047 9.35255 14.8567 9.48542 14.8103 9.6207C14.6694 10.0337 14.5509 10.4532 14.4525 10.8726C12.4778 10.5804 10.7992 10.0722 9.70898 9.6151C8.94134 9.30052 8.46107 9.22287 8.12968 9.39577C8.07445 9.42539 8.01682 9.52144 8.04403 9.67193C8.13048 10.1538 8.28417 10.6205 8.50189 11.0583C8.6852 11.4289 8.78766 11.3089 8.96296 11.268C9.2095 11.212 9.50326 11.2881 9.7426 11.3353C10.2077 11.4257 10.6679 11.5426 11.1314 11.6435C12.1488 11.8588 13.1814 11.9973 14.2195 12.0581C14.1323 12.6184 14.0747 13.1635 14.0394 13.6854C13.9066 13.6798 13.7753 13.6734 13.6472 13.6654C12.1336 13.579 10.4246 13.1579 9.86667 13.0122C9.81144 12.9978 9.81464 13.1563 9.85306 13.1987C10.0996 13.4773 10.5807 13.9776 10.6895 14.0985C10.9561 14.4066 11.3035 14.6356 11.6917 14.7588C12.1848 14.9189 12.7075 14.9485 13.2206 14.9669C13.4607 14.9758 13.7233 14.9798 13.9954 14.979C13.9954 15.2615 13.9954 15.5313 14.0074 15.7794C14.0258 16.2933 14.0563 16.82 14.2155 17.3083C14.338 17.6965 14.5653 18.0431 14.8727 18.3105C14.9936 18.4193 15.4939 18.9004 15.7724 19.1469C15.8149 19.1854 15.9741 19.1894 15.9589 19.1333C15.8133 18.573 15.3922 16.8664 15.3058 15.3536C15.2978 15.2167 15.2906 15.0766 15.285 14.9349C15.8061 14.9013 16.3536 14.8445 16.9115 14.758C16.9715 15.8042 17.1116 16.844 17.3285 17.8686C17.4286 18.3321 17.5454 18.7923 17.6359 19.2582C17.6831 19.4983 17.76 19.7905 17.7031 20.0378C17.6623 20.2131 17.543 20.3148 17.9129 20.4989C18.3507 20.7158 18.8182 20.8703 19.2992 20.9568C19.4497 20.9832 19.5458 20.9263 19.5754 20.8703C19.7507 20.5365 19.6731 20.0579 19.3569 19.2934C18.8998 18.1992 18.3883 16.5134 18.0962 14.5299C18.5292 14.4298 18.9566 14.3082 19.3769 14.1649C19.5018 14.1217 19.625 14.0776 19.7475 14.032C19.9452 14.8725 20.1958 15.7034 20.4679 16.527C20.5984 16.9201 20.7369 17.3107 20.8889 17.6957C21.1227 18.2912 22.0176 20.3468 21.8063 20.8223C21.763 20.9183 21.8183 21.0136 21.8767 20.9984C22.5483 20.8007 23.1823 20.4933 23.7538 20.0899C23.849 20.0178 23.9355 19.9362 24.0123 19.8449C24.1324 19.6736 24.0924 19.5207 23.8202 19.1998C22.9453 18.1792 21.7326 15.5385 21.3804 14.5123C21.262 14.1689 21.1515 13.8215 21.0482 13.4717C22.4731 12.7793 23.6321 11.89 24.5502 10.7966ZM22.6435 4.8844C23.364 4.32408 24.2012 3.92385 25.0649 3.64049L25.4868 3.50761C25.4451 3.64129 25.4027 3.77416 25.3603 3.90784C25.0745 4.77153 24.6791 5.60961 24.1164 6.32922C23.2119 7.48668 21.9648 8.11504 20.612 8.36558C20.8681 7.02242 21.4941 5.78411 22.6435 4.8844ZM19.3393 9.63591C19.3105 10.0361 19.3048 10.4364 19.3145 10.8422C19.3145 10.8966 19.3145 10.9503 19.3209 11.0023C18.8462 11.0535 18.3603 11.0823 17.8736 11.0975C17.8864 10.6085 17.9185 10.1234 17.9713 9.64872L18.1586 9.65592C18.5516 9.66873 18.947 9.66392 19.3393 9.63591ZM15.7676 9.39577C16.2079 9.47582 16.6481 9.54706 17.098 9.59268C17.0067 10.1186 16.9475 10.6333 16.9123 11.0991C16.4872 11.0871 16.063 11.0623 15.646 11.0191C15.5763 11.0127 15.5083 11.0047 15.4402 10.9975C15.5163 10.4572 15.6252 9.92247 15.7676 9.39577ZM15.2585 13.7182C15.2585 13.1971 15.2786 12.6568 15.3202 12.1109C15.8365 12.1237 16.352 12.1221 16.8659 12.1109C16.8547 12.6256 16.8531 13.1419 16.8659 13.6582C16.3191 13.6966 15.7796 13.7182 15.2585 13.7182ZM17.9721 13.5413C17.9657 13.4805 17.9593 13.4205 17.9529 13.3588C17.9121 12.933 17.8872 12.5007 17.8728 12.0669C18.3411 12.0325 18.8518 11.974 19.3777 11.8844C19.4233 12.3318 19.4906 12.7761 19.5738 13.2172C19.0471 13.3572 18.5124 13.4645 17.9721 13.5381V13.5413Z" fill="url(#paint0_linear_301_3424)"/>
<defs>
<linearGradient id="paint0_linear_301_3424" x1="12.7691" y1="16.2149" x2="25.6741" y2="3.30991" gradientUnits="userSpaceOnUse">
<stop stop-color="#1751A4"/>
<stop offset="0.52" stop-color="#307F75"/>
<stop offset="1" stop-color="#49AB48"/>
</linearGradient>
</defs>
</svg>
