<svg width="58" height="40" viewBox="0 0 58 40" fill="none" xmlns="http://www.w3.org/2000/svg">
<path d="M40.7448 18.128C41.914 16.7621 42.6935 15.106 43.001 13.3342C43.001 13.3068 42.9599 13.2619 42.9276 13.237C42.8952 13.2121 42.8778 13.2146 42.8678 13.237C41.279 17.5615 38.6729 19.7118 35.0084 21.206C34.8577 20.6046 34.727 19.997 34.6261 19.3844C36.0331 18.9984 37.4028 18.4368 38.5135 17.6262C39.7201 16.7409 40.7249 15.6078 41.4608 14.3041C42.1469 13.1038 42.6474 11.8076 42.9462 10.4578C43.0147 10.1378 42.9824 10.0233 42.874 9.93986L42.8242 9.90251C42.7794 9.86889 42.7458 9.90251 42.7333 9.96352C42.6536 10.2922 42.5528 10.6147 42.4308 10.9298C40.9777 14.8321 38.6617 17.1792 34.4618 18.1517C34.397 17.4643 34.3808 16.7733 34.412 16.0835C37.3617 15.4609 39.857 13.4101 41.2155 10.738C41.8318 9.49036 42.295 8.17174 42.5939 6.81203C42.6312 6.68129 42.5814 6.54183 42.4694 6.46588C42.4407 6.44471 42.4083 6.43226 42.3735 6.42728C42.3037 6.39241 42.2241 6.3837 42.1493 6.40362C40.7896 6.70246 39.4698 7.16565 38.2221 7.78325C35.5612 9.13424 33.5229 11.6133 32.8854 14.5444C32.1956 14.5743 31.5058 14.5569 30.8184 14.4909C31.7922 10.3234 34.1368 8.0161 38.0242 6.57172C38.3392 6.44969 38.6629 6.34759 38.9916 6.2679C39.0464 6.25545 39.085 6.22307 39.0514 6.177L39.014 6.12844C38.9306 6.02011 38.8161 5.98649 38.4961 6.05622C37.1463 6.35381 35.8501 6.85437 34.651 7.54169C33.3461 8.27633 32.213 9.28117 31.3277 10.489C30.5258 11.586 29.968 12.9382 29.5845 14.3278C28.9731 14.2269 28.3692 14.0962 27.7691 13.9443C29.2632 10.3059 31.4174 7.7185 35.7219 6.13342C35.7505 6.12346 35.7455 6.09856 35.7219 6.07365C35.6982 6.04875 35.6521 5.99645 35.6247 6.00019C33.8504 6.3065 32.1931 7.08721 30.8259 8.25766C29.1425 9.67464 27.7678 11.4664 26.6883 13.6479C26.1529 13.4898 25.6199 13.318 25.092 13.1362C23.4957 12.5871 19.3879 10.7019 17.8016 9.34094C17.3035 8.91261 17.0632 8.85533 16.798 9.0421C16.6561 9.16164 16.5278 9.29611 16.4158 9.44429C15.7882 10.3346 15.3113 11.3207 15.0025 12.3654C14.9788 12.4551 15.127 12.541 15.2764 12.475C16.0173 12.145 19.2136 13.5371 20.14 13.9019C20.7389 14.1373 21.3478 14.3527 21.9579 14.5556C23.2317 14.9815 24.5155 15.3687 25.8179 15.6763C25.7407 15.8817 25.666 16.0884 25.5938 16.2989C25.3746 16.9414 25.1904 17.5938 25.0372 18.2463C21.9654 17.7918 19.3543 17.0011 17.6584 16.2901C16.4643 15.8008 15.7172 15.68 15.2017 15.949C15.1158 15.995 15.0262 16.1445 15.0685 16.3786C15.203 17.1281 15.442 17.8541 15.7807 18.5352C16.0659 19.1117 16.2252 18.9249 16.4979 18.8614C16.8814 18.7742 17.3384 18.8925 17.7107 18.966C18.4341 19.1067 19.1501 19.2885 19.8711 19.4454C21.4536 19.7803 23.0599 19.9957 24.6749 20.0904C24.5391 20.962 24.4495 21.8099 24.3947 22.6218C24.188 22.613 23.9838 22.6031 23.7846 22.5906C21.43 22.4562 18.7716 21.8012 17.9037 21.5746C17.8178 21.5522 17.8228 21.7987 17.8825 21.8647C18.266 22.298 19.0144 23.0762 19.1837 23.2643C19.5984 23.7436 20.1388 24.0998 20.7427 24.2915C21.5097 24.5405 22.3228 24.5866 23.1209 24.6153C23.4945 24.629 23.9029 24.6352 24.3262 24.6339C24.3262 25.0735 24.3262 25.4931 24.3449 25.8791C24.3735 26.6785 24.4208 27.4978 24.6686 28.2573C24.8591 28.8612 25.2128 29.4004 25.6909 29.8163C25.8789 29.9856 26.6571 30.7339 27.0905 31.1175C27.1564 31.1772 27.4042 31.1834 27.3806 31.0963C27.154 30.2247 26.499 27.57 26.3645 25.2167C26.3521 25.0037 26.3409 24.7858 26.3322 24.5655C27.1428 24.5132 27.9944 24.4247 28.8623 24.2903C28.9557 25.9177 29.1736 27.5351 29.511 29.1289C29.6667 29.8499 29.8485 30.5659 29.9892 31.2905C30.0626 31.6641 30.1822 32.1186 30.0938 32.5033C30.0303 32.776 29.8447 32.9341 30.42 33.2205C31.1011 33.558 31.8283 33.7983 32.5766 33.9328C32.8107 33.9738 32.9601 33.8854 33.0062 33.7983C33.2789 33.279 33.1581 32.5344 32.6663 31.3453C31.9553 29.6432 31.1596 27.0209 30.7051 23.9354C31.3788 23.7798 32.0437 23.5905 32.6974 23.3676C32.8916 23.3004 33.0834 23.2319 33.2739 23.1609C33.5814 24.4683 33.9712 25.7608 34.3945 27.0421C34.5975 27.6534 34.8129 28.2611 35.0495 28.86C35.4131 29.7864 36.8051 32.9839 36.4764 33.7236C36.4092 33.873 36.4951 34.0212 36.586 33.9975C37.6307 33.6899 38.6168 33.2118 39.5059 32.5842C39.6541 32.4722 39.7885 32.3452 39.9081 32.2032C40.0948 31.9368 40.0326 31.6989 39.6092 31.1996C38.2483 29.6121 36.3619 25.5043 35.814 23.908C35.6297 23.3738 35.4579 22.8334 35.2973 22.2893C37.5136 21.2122 39.3166 19.8289 40.7448 18.128ZM37.7789 8.93128C38.8995 8.05968 40.2019 7.4371 41.5454 6.99631L42.2016 6.78962C42.1369 6.99756 42.0709 7.20425 42.0049 7.4122C41.5604 8.75572 40.9453 10.0594 40.0699 11.1788C38.6629 12.9793 36.723 13.9567 34.6187 14.3465C35.0171 12.2571 35.9908 10.3308 37.7789 8.93128ZM32.6389 16.3225C32.594 16.9451 32.5853 17.5677 32.6003 18.199C32.6003 18.2836 32.6003 18.3671 32.6102 18.448C31.8718 18.5277 31.116 18.5725 30.359 18.5962C30.3789 17.8354 30.4287 17.0808 30.5109 16.3424L30.8023 16.3537C31.4136 16.3736 32.0287 16.3661 32.6389 16.3225ZM27.083 15.949C27.7678 16.0735 28.4527 16.1843 29.1524 16.2553C29.0105 17.0734 28.9183 17.874 28.8636 18.5987C28.2024 18.58 27.5424 18.5414 26.8937 18.4742C26.7854 18.4642 26.6796 18.4517 26.5737 18.4405C26.692 17.6001 26.8613 16.7683 27.083 15.949ZM26.2911 22.6728C26.2911 21.8622 26.3222 21.0217 26.3869 20.1725C27.1901 20.1925 27.9919 20.19 28.7913 20.1725C28.7739 20.9732 28.7714 21.7763 28.7913 22.5794C27.9409 22.6392 27.1017 22.6728 26.2911 22.6728ZM30.5121 22.3976C30.5022 22.303 30.4922 22.2096 30.4823 22.1137C30.4188 21.4513 30.3802 20.7789 30.3577 20.1041C31.0862 20.0505 31.8806 19.9596 32.6986 19.8202C32.7696 20.5162 32.8742 21.2073 33.0037 21.8933C32.1844 22.1112 31.3526 22.2781 30.5121 22.3927V22.3976Z" fill="url(#paint0_linear_301_3670)"/>
<defs>
<linearGradient id="paint0_linear_301_3670" x1="22.4186" y1="26.5565" x2="42.493" y2="6.48208" gradientUnits="userSpaceOnUse">
<stop stop-color="#1751A4"/>
<stop offset="0.52" stop-color="#307F75"/>
<stop offset="1" stop-color="#49AB48"/>
</linearGradient>
</defs>
</svg>
