<svg width="34" height="24" viewBox="0 0 34 24" fill="none" xmlns="http://www.w3.org/2000/svg">
<path d="M7.76122 14.0723C7.76122 13.7535 7.76469 12.9012 7.75683 12.7962C7.76368 11.528 6.8416 10.6334 6.25908 10.7032C5.85599 10.7381 5.51818 10.9025 5.33679 11.3753C5.16868 11.816 5.31898 12.4021 5.87792 12.5397C6.47559 12.6874 6.82458 12.8103 7.07715 12.9836C7.38663 13.1959 7.63927 13.6014 7.64598 14.0728" fill="#0060AF"/>
<path d="M7.99978 16C6.94595 16 5.8629 15.7404 4.78129 15.2271L4.75475 15.214L4.74206 15.187C4.25668 14.1624 4 13.0418 4 11.9454C4 10.8507 4.24615 9.77801 4.73189 8.75482L4.74523 8.72763L4.77228 8.71407C5.77282 8.24009 6.84916 8 7.97238 8C9.01872 8 10.1362 8.26728 11.2034 8.7743L11.2308 8.78648L11.2434 8.81418C11.7381 9.85763 11.999 10.978 11.999 12.0562C11.999 13.1302 11.7485 14.2038 11.2533 15.2466L11.2402 15.274L11.2127 15.2867C10.2274 15.7531 9.1163 16 7.99978 16ZM4.8814 15.0866C5.93213 15.5808 6.98006 15.8304 7.99978 15.8304C9.08103 15.8304 10.1564 15.5941 11.1136 15.1461C11.5891 14.1356 11.8301 13.0956 11.8301 12.0562C11.8301 11.0126 11.5785 9.92701 11.1027 8.91428C10.0669 8.42739 8.98525 8.1692 7.97238 8.1692C6.88493 8.1692 5.84263 8.39984 4.87231 8.85486C4.40655 9.8466 4.16949 10.8858 4.16949 11.9454C4.16949 13.007 4.41585 14.093 4.8814 15.0866Z" fill="#0060AF"/>
<path d="M7.51145 14.0728C7.5134 13.6641 7.28528 13.3027 6.98713 13.1084C6.72266 12.9368 6.36761 12.824 5.79482 12.6787C5.61776 12.6334 5.43255 12.5328 5.37521 12.4046C5.22354 12.5574 5.19599 12.901 5.22268 13.1018C5.25369 13.3342 5.52523 13.7171 5.93408 13.7321C6.18377 13.7422 6.49944 13.6784 6.65083 13.6462C6.91198 13.5898 7.32516 13.7534 7.39094 14.0723" fill="#0060AF"/>
<path d="M7.97238 8.72662C7.27915 8.72662 6.68033 9.1838 6.68249 9.9749C6.68465 10.6402 7.21965 10.9963 7.41056 11.2507C7.69904 11.634 7.85518 12.0877 7.87141 12.7819C7.88403 13.3345 7.88338 13.8801 7.8862 14.0734H8.03924C8.03657 13.8711 8.02965 13.2919 8.03758 12.7648C8.04796 12.0704 8.20973 11.634 8.49836 11.2507C8.69093 10.9963 9.22549 10.6402 9.22664 9.9749C9.22924 9.1838 8.63078 8.72662 7.93812 8.72662" fill="#0060AF"/>
<path d="M8.14839 14.0723C8.14839 13.7535 8.14478 12.9012 8.1525 12.7962C8.14572 11.528 9.06722 10.6334 9.65025 10.7032C10.0533 10.7381 10.3908 10.9025 10.5727 11.3753C10.7406 11.816 10.5895 12.4021 10.0312 12.5397C9.43323 12.6874 9.08467 12.8103 8.83145 12.9836C8.52234 13.1959 8.28736 13.6014 8.28015 14.0728" fill="#0060AF"/>
<path d="M8.39793 14.0728C8.39577 13.6641 8.62382 13.3027 8.9211 13.1084C9.18665 12.9368 9.54214 12.824 10.1144 12.6787C10.2918 12.6334 10.4768 12.5328 10.5332 12.4046C10.6856 12.5574 10.713 12.901 10.6863 13.1018C10.6547 13.3342 10.3839 13.7171 9.97574 13.7321C9.72612 13.7422 9.40879 13.6784 9.25805 13.6462C8.99791 13.5898 8.58357 13.7534 8.51751 14.0723" fill="#0060AF"/>
<path d="M8.61181 15.3922L8.5231 14.7449L8.73723 14.7125C8.78937 14.7053 8.85284 14.7144 8.87823 14.7471C8.90628 14.7812 8.91487 14.8094 8.92027 14.8541C8.92835 14.9095 8.91234 14.9734 8.85003 15.0053V15.0072C8.91963 15.0072 8.96167 15.0572 8.97386 15.1416C8.97566 15.1594 8.98093 15.2025 8.97566 15.2384C8.96153 15.3239 8.91054 15.3513 8.8245 15.3634L8.61181 15.3922ZM8.74964 15.2763C8.77502 15.2727 8.80077 15.2714 8.82089 15.2585C8.85169 15.2384 8.84887 15.1953 8.84462 15.1634C8.83387 15.0931 8.81555 15.0665 8.74105 15.0775L8.69425 15.0847L8.72389 15.2799L8.74964 15.2763ZM8.70478 14.9772C8.73312 14.9726 8.77156 14.9692 8.78757 14.9423C8.79594 14.9244 8.80668 14.9101 8.79962 14.8701C8.79089 14.8228 8.77517 14.7934 8.71502 14.8048L8.65898 14.8138L8.68105 14.9797" fill="#0060AF"/>
<path d="M9.53937 15.0029C9.54103 15.015 9.54297 15.0284 9.54369 15.0404C9.561 15.1585 9.53937 15.2562 9.40666 15.2831C9.21049 15.3209 9.17292 15.199 9.13837 15.0284L9.11998 14.9361C9.09293 14.7728 9.08132 14.6492 9.27259 14.6111C9.38041 14.5914 9.45167 14.6343 9.48131 14.7416C9.48592 14.7576 9.49169 14.7735 9.49386 14.7896L9.37652 14.8138C9.36296 14.7735 9.345 14.7015 9.29221 14.7075C9.19744 14.7189 9.22874 14.8368 9.23848 14.8861L9.27374 15.0633C9.28434 15.1169 9.3054 15.2025 9.38741 15.186C9.45397 15.1726 9.42498 15.0689 9.41907 15.0264" fill="#0060AF"/>
<path d="M9.72768 15.1988L9.68708 14.5289L9.84474 14.4808L10.1753 15.0634L10.0511 15.1006L9.97283 14.9525L9.835 14.9939L9.85282 15.1622L9.72768 15.1988ZM9.82346 14.8857L9.92306 14.8569L9.79079 14.5858" fill="#0060AF"/>
<path d="M5.83366 14.6924C5.88299 14.5344 5.9272 14.4182 6.11544 14.4698C6.21619 14.4979 6.27865 14.5424 6.27569 14.6594C6.2752 14.6855 6.2666 14.712 6.26098 14.7377L6.14378 14.7054C6.15914 14.6407 6.16888 14.5895 6.08926 14.5649C5.99723 14.5397 5.9748 14.6513 5.96211 14.6994L5.91443 14.8751C5.89929 14.9272 5.88111 15.0134 5.96211 15.0356C6.02903 15.0536 6.06964 14.9879 6.09387 14.892L6.01187 14.8703L6.04021 14.7687L6.23299 14.8307L6.14147 15.1692L6.05276 15.1451L6.07274 15.0735H6.07021C6.02939 15.132 5.97956 15.1382 5.93592 15.1298C5.74314 15.0777 5.76326 14.9517 5.80928 14.7833" fill="#0060AF"/>
<path d="M6.55121 14.9783L6.49315 15.2536L6.36247 15.2254L6.50174 14.5824L6.72452 14.6327C6.85491 14.6609 6.89429 14.7189 6.87583 14.8384C6.8653 14.907 6.83147 14.9809 6.7489 14.975L6.74803 14.9738C6.81784 14.9983 6.82376 15.0335 6.81157 15.0944C6.80631 15.1202 6.77003 15.2774 6.79505 15.3028L6.79592 15.322L6.66069 15.2868C6.65506 15.2432 6.67418 15.1649 6.68175 15.1215C6.68939 15.0832 6.70158 15.0291 6.66264 15.0087C6.63213 14.9925 6.62081 14.9933 6.58633 14.9854L6.55121 14.9783ZM6.5735 14.8787L6.66148 14.9024C6.71493 14.9101 6.74464 14.8824 6.75517 14.8179C6.76469 14.7587 6.75236 14.7355 6.7044 14.724L6.61006 14.7049" fill="#0060AF"/>
<path d="M7.38941 14.7261L7.51865 14.7411L7.46297 15.1931C7.43593 15.3364 7.38054 15.399 7.22288 15.3794C7.06248 15.3591 7.0244 15.2861 7.03414 15.1416L7.09018 14.69L7.22043 14.7049L7.16453 15.1465C7.15862 15.1944 7.14751 15.2655 7.23283 15.274C7.30849 15.2798 7.32565 15.2297 7.33416 15.1674" fill="#0060AF"/>
<path d="M7.66114 15.4042L7.70001 14.7578L7.94833 14.7686C8.06567 14.7743 8.09639 14.8702 8.09272 14.9616C8.08932 15.0172 8.07194 15.0793 8.02348 15.113C7.98374 15.1416 7.93268 15.1484 7.88529 15.1461L7.80437 15.1416L7.78822 15.4125L7.66114 15.4042ZM7.80805 15.0431L7.87383 15.0467C7.92727 15.0487 7.96268 15.0275 7.9673 14.9491C7.96989 14.8737 7.9414 14.8609 7.87217 14.8579L7.82002 14.8561" fill="#0060AF"/>
<path d="M25.1746 9.35134L24.1877 11.1426C23.8152 10.8401 23.3603 10.6175 22.7799 10.6175C21.4065 10.6175 20.8487 11.6413 20.8487 12.3624C20.8487 12.8977 21.1992 13.6875 22.4212 13.6875C22.9341 13.6875 23.6634 13.3306 23.8732 13.1683L22.8971 15.2465C22.4319 15.3393 22.2791 15.3969 21.8852 15.409C19.698 15.4743 18.8141 14.1307 18.8148 12.7577C18.8162 10.9427 20.4299 8.73535 23.1051 8.73535C23.269 8.73535 23.4695 8.79204 23.6409 8.85486L23.8142 8.6333" fill="#0060AF"/>
<path d="M29.2468 8.68951L29.5262 15.2001H27.4464L27.4452 14.0835H26.027L25.5602 15.2001H23.3046L25.6628 10.551L25.131 10.5475L26.1414 8.68951H29.2468ZM27.4317 10.6812L26.6298 12.5749H27.4558" fill="#0060AF"/>
<path d="M17.5017 8.68952C18.5317 8.69528 19.1137 9.25437 19.1137 10.062C19.1137 10.8065 18.4999 11.4655 17.8261 11.8063C18.5198 12.0613 18.5798 12.6874 18.5798 13.1303C18.5798 14.2002 17.5061 15.2001 16.1105 15.2001H13.0668L14.2541 10.6157L13.7664 10.6129L14.7634 8.68952C14.7634 8.68952 16.6642 8.68375 17.5017 8.68952ZM16.4912 11.3292C16.7043 11.3292 17.0805 11.2752 17.1745 10.8629C17.2776 10.4153 16.9246 10.4033 16.7552 10.4033L16.1501 10.4006L15.9391 11.3292L16.4912 11.3292ZM15.6357 12.4796L15.3571 13.5496H16.0696C16.35 13.5496 16.732 13.4105 16.8256 13.0623C16.9181 12.7131 16.651 12.4796 16.3717 12.4796" fill="#0060AF"/>
</svg>
