<svg width="28" height="20" viewBox="0 0 28 20" fill="none" xmlns="http://www.w3.org/2000/svg">
<path d="M4.12573 12.6607C4.12573 12.311 4.12952 11.3761 4.1209 11.2609C4.12842 9.86985 3.11699 8.88856 2.47801 8.96506C2.03586 9.00343 1.6653 9.18372 1.46634 9.70237C1.28193 10.1857 1.4468 10.8287 2.05991 10.9795C2.7155 11.1416 3.09832 11.2764 3.37536 11.4665C3.71483 11.6994 3.99195 12.1442 3.99931 12.6613" fill="#0060AF"/>
<path d="M4.38741 14.7753C3.23144 14.7753 2.04343 14.4906 0.857007 13.9275L0.827895 13.9131L0.813971 13.8835C0.281556 12.7596 0 11.5304 0 10.3278C0 9.12693 0.270005 7.95032 0.802817 6.82797L0.817452 6.79815L0.847119 6.78328C1.94462 6.26336 3.12527 6 4.35734 6C5.50508 6 6.73083 6.29318 7.90151 6.84933L7.93157 6.8627L7.94541 6.89308C8.48804 8.03766 8.77418 9.26656 8.77418 10.4493C8.77418 11.6274 8.49943 12.805 7.95617 13.9489L7.94185 13.979L7.91163 13.9929C6.8309 14.5045 5.61212 14.7753 4.38741 14.7753ZM0.966813 13.7733C2.11938 14.3155 3.26886 14.5893 4.38741 14.5893C5.57344 14.5893 6.75298 14.33 7.80294 13.8386C8.32451 12.7302 8.5889 11.5894 8.5889 10.4493C8.5889 9.30454 8.31296 8.11376 7.79099 7.00289C6.65488 6.46881 5.46838 6.18559 4.35734 6.18559C3.16451 6.18559 2.0212 6.43859 0.956845 6.9377C0.445948 8.02555 0.185911 9.16546 0.185911 10.3278C0.185911 11.4923 0.456153 12.6835 0.966813 13.7733Z" fill="#0060AF"/>
<path d="M3.85175 12.6613C3.85388 12.213 3.60366 11.8166 3.27661 11.6035C2.98651 11.4152 2.59705 11.2915 1.96875 11.1322C1.77454 11.0825 1.57138 10.9721 1.50849 10.8315C1.34212 10.9991 1.3119 11.376 1.34117 11.5962C1.37518 11.8511 1.67304 12.2712 2.12152 12.2877C2.3954 12.2987 2.74167 12.2287 2.90772 12.1935C3.19418 12.1316 3.64741 12.311 3.71955 12.6608" fill="#0060AF"/>
<path d="M4.35735 6.79706C3.59693 6.79706 2.94008 7.29854 2.94245 8.16631C2.94482 8.89603 3.53167 9.28667 3.74107 9.5657C4.05752 9.98617 4.22879 10.4839 4.24659 11.2454C4.26044 11.8514 4.25972 12.4499 4.26281 12.662H4.43068C4.42776 12.4401 4.42016 11.8048 4.42886 11.2266C4.44025 10.4649 4.6177 9.98617 4.9343 9.5657C5.14552 9.28667 5.73189 8.89603 5.73316 8.16631C5.73601 7.29854 5.07955 6.79706 4.31977 6.79706" fill="#0060AF"/>
<path d="M4.55041 12.6607C4.55041 12.311 4.54645 11.3761 4.55492 11.2609C4.54748 9.86985 5.55828 8.88856 6.19782 8.96506C6.63997 9.00343 7.01013 9.18372 7.20964 9.70237C7.39389 10.1857 7.22808 10.8287 6.61568 10.9795C5.95977 11.1416 5.57743 11.2764 5.29967 11.4665C4.9606 11.6994 4.70286 12.1442 4.69495 12.6613" fill="#0060AF"/>
<path d="M4.82414 12.6613C4.82176 12.213 5.07191 11.8166 5.39801 11.6035C5.68929 11.4152 6.07923 11.2915 6.70697 11.1322C6.90159 11.0825 7.1045 10.9721 7.16629 10.8315C7.33345 10.9991 7.36359 11.376 7.33432 11.5962C7.29959 11.8511 7.00253 12.2712 6.55484 12.2877C6.28104 12.2987 5.93295 12.2287 5.76761 12.1935C5.48226 12.1316 5.02777 12.311 4.9553 12.6608" fill="#0060AF"/>
<path d="M5.05874 14.1087L4.96144 13.3986L5.19632 13.363C5.25351 13.3552 5.32313 13.3652 5.35098 13.401C5.38175 13.4384 5.39117 13.4694 5.3971 13.5184C5.40596 13.5791 5.3884 13.6493 5.32005 13.6842V13.6864C5.39639 13.6864 5.44251 13.7412 5.45588 13.8337C5.45786 13.8533 5.46363 13.9005 5.45786 13.9399C5.44235 14.0337 5.38642 14.0638 5.29204 14.077L5.05874 14.1087ZM5.20992 13.9815C5.23777 13.9776 5.26601 13.9761 5.28809 13.962C5.32187 13.9399 5.31878 13.8927 5.31411 13.8576C5.30233 13.7806 5.28223 13.7513 5.20051 13.7634L5.14917 13.7713L5.18168 13.9855L5.20992 13.9815ZM5.16072 13.6535C5.19181 13.6484 5.23397 13.6447 5.25154 13.6152C5.26071 13.5955 5.2725 13.5798 5.26475 13.536C5.25518 13.484 5.23793 13.4518 5.17195 13.4643L5.11048 13.4742L5.13469 13.6561" fill="#0060AF"/>
<path d="M6.07619 13.6816C6.07801 13.6948 6.08015 13.7095 6.08093 13.7227C6.09992 13.8522 6.07619 13.9594 5.93062 13.9889C5.71544 14.0304 5.67422 13.8967 5.63633 13.7095L5.61616 13.6083C5.58649 13.4292 5.57375 13.2936 5.78356 13.2518C5.90183 13.2302 5.97999 13.2773 6.0125 13.395C6.01757 13.4125 6.0239 13.4299 6.02627 13.4476L5.89756 13.4742C5.88268 13.4299 5.86298 13.3509 5.80507 13.3576C5.70112 13.3701 5.73546 13.4994 5.74614 13.5534L5.78482 13.7478C5.79645 13.8066 5.81955 13.9005 5.9095 13.8824C5.98252 13.8677 5.95072 13.754 5.94423 13.7074" fill="#0060AF"/>
<path d="M6.28276 13.8964L6.23822 13.1617L6.41116 13.1089L6.77372 13.7479L6.63757 13.7887L6.55166 13.6263L6.40048 13.6717L6.42002 13.8563L6.28276 13.8964ZM6.38782 13.553L6.49707 13.5214L6.35198 13.2241" fill="#0060AF"/>
<path d="M2.01136 13.3409C2.06547 13.1677 2.11397 13.0402 2.32044 13.0968C2.43096 13.1277 2.49947 13.1764 2.49623 13.3048C2.49569 13.3334 2.48626 13.3625 2.48009 13.3907L2.35153 13.3552C2.36839 13.2843 2.37907 13.2281 2.29173 13.2012C2.19078 13.1735 2.16618 13.2959 2.15225 13.3487L2.09996 13.5413C2.08335 13.5985 2.06341 13.6931 2.15225 13.7174C2.22567 13.7372 2.27021 13.6651 2.29679 13.5599L2.20684 13.5361L2.23793 13.4246L2.4494 13.4927L2.349 13.8639L2.2517 13.8375L2.27361 13.759H2.27084C2.22606 13.8232 2.1714 13.8299 2.12354 13.8208C1.91207 13.7636 1.93414 13.6254 1.98462 13.4407" fill="#0060AF"/>
<path d="M2.79845 13.6545L2.73477 13.9566L2.59142 13.9256L2.74418 13.2203L2.98855 13.2755C3.13159 13.3064 3.17478 13.37 3.15453 13.5011C3.14298 13.5764 3.10588 13.6574 3.01529 13.6509L3.01435 13.6496C3.09092 13.6765 3.09741 13.7151 3.08404 13.7818C3.07827 13.8102 3.03847 13.9826 3.06593 14.0105L3.06687 14.0316L2.91854 13.9929C2.91237 13.9451 2.93334 13.8592 2.94164 13.8117C2.95003 13.7696 2.9634 13.7102 2.92068 13.6879C2.88721 13.6701 2.87479 13.671 2.83698 13.6623L2.79845 13.6545ZM2.8229 13.5453L2.91941 13.5713C2.97803 13.5798 3.01063 13.5494 3.02218 13.4786C3.03262 13.4136 3.01909 13.3882 2.96648 13.3757L2.86301 13.3547" fill="#0060AF"/>
<path d="M3.71788 13.3779L3.85964 13.3943L3.79857 13.8901C3.7689 14.0473 3.70815 14.1161 3.53521 14.0945C3.35927 14.0723 3.3175 13.9922 3.32818 13.8337L3.38965 13.3383L3.53252 13.3547L3.47121 13.839C3.46472 13.8916 3.45254 13.9695 3.54613 13.979C3.62912 13.9853 3.64794 13.9303 3.65728 13.862" fill="#0060AF"/>
<path d="M4.01594 14.1217L4.05858 13.4127L4.33096 13.4245C4.45967 13.4308 4.49338 13.536 4.48934 13.6363C4.48562 13.6973 4.46656 13.7654 4.41339 13.8023C4.3698 13.8337 4.31379 13.8412 4.26182 13.8387L4.17306 13.8337L4.15533 14.1309L4.01594 14.1217ZM4.17709 13.7256L4.24924 13.7296C4.30786 13.7318 4.3467 13.7086 4.35177 13.6225C4.35461 13.5399 4.32337 13.5259 4.24742 13.5225L4.19022 13.5206" fill="#0060AF"/>
<path d="M23.2266 7.48233L22.1441 9.4472C21.7355 9.11541 21.2365 8.8712 20.5999 8.8712C19.0934 8.8712 18.4815 9.99418 18.4815 10.7852C18.4815 11.3724 18.866 12.2387 20.2064 12.2387C20.769 12.2387 21.5689 11.8473 21.7992 11.6692L20.7285 13.9488C20.2181 14.0506 20.0505 14.1137 19.6185 14.1271C17.2193 14.1987 16.2498 12.7248 16.2505 11.2188C16.2521 9.22791 18.0222 6.80664 20.9565 6.80664C21.1364 6.80664 21.3563 6.86883 21.5443 6.93773L21.7344 6.6947" fill="#0060AF"/>
<path d="M27.6934 6.75629L28 13.8978H25.7186L25.7173 12.673H24.1616L23.6496 13.8978H21.1754L23.7621 8.79814L23.1788 8.79434L24.2871 6.75629H27.6934ZM25.7025 8.94101L24.8229 11.0182H25.729" fill="#0060AF"/>
<path d="M14.8102 6.75629C15.94 6.76262 16.5784 7.37589 16.5784 8.26177C16.5784 9.07843 15.9051 9.80135 15.166 10.1751C15.9269 10.4549 15.9927 11.1416 15.9927 11.6274C15.9927 12.8011 14.815 13.8978 13.2842 13.8978H9.94552L11.2478 8.86918L10.7129 8.8661L11.8064 6.75629C11.8064 6.75629 13.8915 6.74996 14.8102 6.75629ZM13.7018 9.65174C13.9355 9.65174 14.3481 9.59257 14.4513 9.14029C14.5643 8.64934 14.1771 8.63612 13.9913 8.63612L13.3276 8.63322L13.0961 9.65177L13.7018 9.65174ZM12.7634 10.9137L12.4578 12.0874H13.2393C13.5468 12.0874 13.9659 11.9348 14.0685 11.5529C14.17 11.1698 13.877 10.9137 13.5706 10.9137" fill="#0060AF"/>
</svg>
