<svg width="46" height="32" viewBox="0 0 46 32" fill="none" xmlns="http://www.w3.org/2000/svg">
<path d="M11.7015 18.5904C11.7015 18.1918 11.7059 17.1265 11.696 16.9952C11.7046 15.41 10.552 14.2917 9.82385 14.3789C9.31999 14.4226 8.89772 14.6281 8.67099 15.2191C8.46085 15.7699 8.64872 16.5026 9.3474 16.6745C10.0945 16.8592 10.5307 17.0128 10.8464 17.2295C11.2333 17.4948 11.5491 18.0017 11.5575 18.591" fill="#0060AF"/>
<path d="M11.9997 21C10.6824 21 9.32862 20.6755 7.97661 20.0338L7.94344 20.0175L7.92757 19.9837C7.32085 18.703 7 17.3022 7 15.9318C7 14.5633 7.30769 13.2225 7.91486 11.9435L7.93154 11.9095L7.96535 11.8926C9.21602 11.3001 10.5614 11 11.9655 11C13.2734 11 14.6702 11.3341 16.0043 11.9679L16.0385 11.9831L16.0543 12.0177C16.6727 13.322 16.9987 14.7225 16.9987 16.0702C16.9987 17.4128 16.6856 18.7548 16.0666 20.0583L16.0503 20.0925L16.0158 20.1084C14.7843 20.6914 13.3954 21 11.9997 21ZM8.10175 19.8582C9.41517 20.476 10.7251 20.7881 11.9997 20.7881C13.3513 20.7881 14.6955 20.4926 15.8919 19.9326C16.4863 18.6695 16.7876 17.3695 16.7876 16.0702C16.7876 14.7657 16.4732 13.4088 15.8783 12.1429C14.5837 11.5342 13.2316 11.2115 11.9655 11.2115C10.6062 11.2115 9.30329 11.4998 8.09039 12.0686C7.50819 13.3082 7.21186 14.6072 7.21186 15.9318C7.21186 17.2588 7.51982 18.6163 8.10175 19.8582Z" fill="#0060AF"/>
<path d="M11.3893 18.591C11.3917 18.0801 11.1066 17.6284 10.7339 17.3856C10.4033 17.171 9.9595 17.03 9.24352 16.8485C9.02219 16.7919 8.79068 16.6661 8.71901 16.5058C8.52942 16.6968 8.49499 17.1263 8.52834 17.3773C8.56711 17.6678 8.90653 18.1465 9.4176 18.1652C9.72971 18.1778 10.1243 18.0981 10.3135 18.0579C10.64 17.9874 11.1564 18.1918 11.2387 18.5904" fill="#0060AF"/>
<path d="M11.9655 11.9083C11.0989 11.9083 10.3504 12.4797 10.3531 13.4686C10.3558 14.3002 11.0246 14.7453 11.2632 15.0633C11.6238 15.5425 11.819 16.1096 11.8393 16.9774C11.855 17.6681 11.8542 18.3501 11.8577 18.5918H12.049C12.0457 18.3389 12.0371 17.6149 12.047 16.956C12.06 16.088 12.2622 15.5425 12.623 15.0633C12.8637 14.7453 13.5319 14.3002 13.5333 13.4686C13.5365 12.4797 12.7885 11.9083 11.9227 11.9083" fill="#0060AF"/>
<path d="M12.1855 18.5904C12.1855 18.1918 12.181 17.1265 12.1906 16.9952C12.1822 15.41 13.334 14.2917 14.0628 14.3789C14.5667 14.4226 14.9885 14.6281 15.2159 15.2191C15.4258 15.7699 15.2369 16.5026 14.539 16.6745C13.7915 16.8592 13.3558 17.0128 13.0393 17.2295C12.6529 17.4948 12.3592 18.0017 12.3502 18.591" fill="#0060AF"/>
<path d="M12.4974 18.591C12.4947 18.0801 12.7798 17.6284 13.1514 17.3856C13.4833 17.171 13.9277 17.03 14.643 16.8485C14.8648 16.7919 15.096 16.6661 15.1665 16.5058C15.3569 16.6968 15.3913 17.1263 15.3579 17.3773C15.3184 17.6678 14.9798 18.1465 14.4697 18.1652C14.1577 18.1778 13.761 18.0981 13.5726 18.0579C13.2474 17.9874 12.7295 18.1918 12.6469 18.5904" fill="#0060AF"/>
<path d="M12.7648 20.2403L12.6539 19.4312L12.9215 19.3906C12.9867 19.3817 13.0661 19.393 13.0978 19.4339C13.1329 19.4765 13.1436 19.5118 13.1503 19.5677C13.1604 19.6368 13.1404 19.7168 13.0625 19.7566V19.7591C13.1495 19.7591 13.2021 19.8215 13.2173 19.927C13.2196 19.9493 13.2262 20.0031 13.2196 20.048C13.2019 20.1548 13.1382 20.1892 13.0306 20.2042L12.7648 20.2403ZM12.937 20.0954C12.9688 20.0909 13.001 20.0892 13.0261 20.0731C13.0646 20.048 13.0611 19.9942 13.0558 19.9542C13.0423 19.8664 13.0194 19.8331 12.9263 19.8469L12.8678 19.8559L12.9049 20.0999L12.937 20.0954ZM12.881 19.7216C12.9164 19.7158 12.9644 19.7115 12.9845 19.6779C12.9949 19.6555 13.0084 19.6376 12.9995 19.5877C12.9886 19.5284 12.969 19.4918 12.8938 19.506L12.8237 19.5173L12.8513 19.7246" fill="#0060AF"/>
<path d="M13.9242 19.7536C13.9263 19.7687 13.9287 19.7855 13.9296 19.8005C13.9513 19.9481 13.9242 20.0703 13.7583 20.1039C13.5131 20.1511 13.4661 19.9988 13.423 19.7855L13.4 19.6701C13.3662 19.466 13.3517 19.3115 13.5907 19.2639C13.7255 19.2392 13.8146 19.2929 13.8516 19.427C13.8574 19.447 13.8646 19.4669 13.8673 19.487L13.7206 19.5173C13.7037 19.4669 13.6812 19.3768 13.6153 19.3844C13.4968 19.3986 13.5359 19.546 13.5481 19.6076L13.5922 19.8291C13.6054 19.8961 13.6318 20.0031 13.7343 19.9825C13.8175 19.9658 13.7812 19.8361 13.7738 19.783" fill="#0060AF"/>
<path d="M14.1596 19.9985L14.1089 19.1612L14.3059 19.1011L14.7191 19.8293L14.5639 19.8757L14.466 19.6907L14.2938 19.7424L14.316 19.9528L14.1596 19.9985ZM14.2793 19.6072L14.4038 19.5711L14.2385 19.2323" fill="#0060AF"/>
<path d="M9.29207 19.3655C9.35373 19.1681 9.409 19.0227 9.64429 19.0873C9.77023 19.1225 9.84831 19.178 9.84461 19.3243C9.844 19.3569 9.83325 19.39 9.82622 19.4222L9.67972 19.3817C9.69892 19.301 9.71109 19.2369 9.61157 19.2062C9.49653 19.1747 9.4685 19.3141 9.45263 19.3743L9.39304 19.5939C9.37411 19.659 9.35139 19.7668 9.45263 19.7945C9.53629 19.8171 9.58705 19.735 9.61734 19.615L9.51483 19.5879L9.55026 19.4609L9.79124 19.5384L9.67684 19.9615L9.56595 19.9314L9.59092 19.842H9.58776C9.53674 19.9151 9.47444 19.9227 9.4199 19.9123C9.17893 19.8471 9.20408 19.6896 9.2616 19.4792" fill="#0060AF"/>
<path d="M10.189 19.7228L10.1164 20.067L9.95309 20.0317L10.1272 19.228L10.4056 19.2909C10.5686 19.3261 10.6179 19.3986 10.5948 19.548C10.5816 19.6337 10.5393 19.7261 10.4361 19.7187L10.435 19.7173C10.5223 19.7478 10.5297 19.7918 10.5145 19.8679C10.5079 19.9003 10.4625 20.0967 10.4938 20.1284L10.4949 20.1525L10.3259 20.1084C10.3188 20.054 10.3427 19.9561 10.3522 19.9019C10.3617 19.8539 10.377 19.7863 10.3283 19.7609C10.2902 19.7406 10.276 19.7416 10.2329 19.7317L10.189 19.7228ZM10.2169 19.5983L10.3269 19.628C10.3937 19.6376 10.4308 19.603 10.444 19.5223C10.4559 19.4483 10.4404 19.4194 10.3805 19.405L10.2626 19.3811" fill="#0060AF"/>
<path d="M11.2368 19.4076L11.3983 19.4263L11.3287 19.9913C11.2949 20.1704 11.2257 20.2488 11.0286 20.2242C10.8281 20.1989 10.7805 20.1076 10.7927 19.927L10.8627 19.3625L11.0255 19.3812L10.9557 19.9331C10.9483 19.993 10.9344 20.0818 11.041 20.0925C11.1356 20.0997 11.1571 20.0371 11.1677 19.9592" fill="#0060AF"/>
<path d="M11.5764 20.2552L11.625 19.4473L11.9354 19.4607C12.0821 19.4679 12.1205 19.5877 12.1159 19.702C12.1117 19.7715 12.0899 19.8492 12.0293 19.8913C11.9797 19.9271 11.9158 19.9355 11.8566 19.9326L11.7555 19.927L11.7353 20.2656L11.5764 20.2552ZM11.7601 19.8038L11.8423 19.8084C11.9091 19.8108 11.9533 19.7844 11.9591 19.6864C11.9624 19.5921 11.9268 19.5762 11.8402 19.5724L11.775 19.5702" fill="#0060AF"/>
<path d="M33.4682 12.6892L32.2346 14.9283C31.769 14.5502 31.2004 14.2719 30.4749 14.2719C28.7582 14.2719 28.0608 15.5516 28.0608 16.453C28.0608 17.1221 28.499 18.1094 30.0265 18.1094C30.6677 18.1094 31.5792 17.6633 31.8415 17.4604L30.6214 20.0581C30.0398 20.1741 29.8488 20.2461 29.3565 20.2613C26.6225 20.3429 25.5177 18.6634 25.5185 16.9471C25.5203 14.6784 27.5374 11.9192 30.8813 11.9192C31.0862 11.9192 31.3369 11.9901 31.5512 12.0686L31.7677 11.7916" fill="#0060AF"/>
<path d="M38.5585 11.8619L38.9078 20.0001H36.308L36.3065 18.6043H34.5337L33.9503 20.0001H31.1308L34.0785 14.1887L33.4138 14.1844L34.6767 11.8619H38.5585ZM36.2896 14.3515L35.2873 16.7186H36.3198" fill="#0060AF"/>
<path d="M23.8772 11.8618C25.1646 11.8691 25.8922 12.5679 25.8922 13.5774C25.8922 14.5081 25.1249 15.3319 24.2826 15.7579C25.1498 16.0766 25.2248 16.8591 25.2248 17.4128C25.2248 18.7503 23.8827 20 22.1381 20H18.3336L19.8176 14.2696L19.208 14.2661L20.4542 11.8618C20.4542 11.8618 22.8302 11.8546 23.8772 11.8618ZM22.6141 15.1614C22.8804 15.1614 23.3506 15.094 23.4682 14.5786C23.597 14.0191 23.1557 14.004 22.944 14.004L22.1876 14.0007L21.9239 15.1614L22.6141 15.1614ZM21.5447 16.5995L21.1964 17.937H22.087C22.4374 17.937 22.915 17.7631 23.032 17.3278C23.1476 16.8913 22.8137 16.5995 22.4646 16.5995" fill="#0060AF"/>
</svg>
