<svg width="58" height="40" viewBox="0 0 58 40" fill="none" xmlns="http://www.w3.org/2000/svg">
<path d="M15.6418 23.1084C15.6418 22.6301 15.647 21.3517 15.6352 21.1942C15.6455 19.2919 14.2624 17.9501 13.3886 18.0547C12.784 18.1071 12.2773 18.3537 12.0052 19.0629C11.753 19.7239 11.9785 20.6031 12.8169 20.8094C13.7134 21.031 14.2369 21.2153 14.6157 21.4754C15.0799 21.7938 15.4589 22.4021 15.469 23.1092" fill="#0060AF"/>
<path d="M15.9997 26C14.4189 26 12.7943 25.6107 11.1719 24.8406L11.1321 24.821L11.1131 24.7805C10.385 23.2436 10 21.5627 10 19.9181C10 18.276 10.3692 16.667 11.0978 15.1322L11.1178 15.0914L11.1584 15.0711C12.6592 14.3601 14.2737 14 15.9586 14C17.5281 14 19.2042 14.4009 20.8051 15.1614L20.8462 15.1797L20.8652 15.2213C21.6072 16.7864 21.9985 18.4669 21.9985 20.0843C21.9985 21.6953 21.6228 23.3057 20.8799 24.8699L20.8603 24.911L20.819 24.9301C19.3411 25.6297 17.6744 26 15.9997 26ZM11.3221 24.6299C12.8982 25.3712 14.4701 25.7457 15.9997 25.7457C17.6215 25.7457 19.2345 25.3911 20.6703 24.7191C21.3836 23.2034 21.7451 21.6434 21.7451 20.0843C21.7451 18.5189 21.3678 16.8905 20.654 15.3714C19.1004 14.6411 17.4779 14.2538 15.9586 14.2538C14.3274 14.2538 12.7639 14.5998 11.3085 15.2823C10.6098 16.7699 10.2542 18.3287 10.2542 19.9181C10.2542 21.5105 10.6238 23.1396 11.3221 24.6299Z" fill="#0060AF"/>
<path d="M15.2672 23.1092C15.2701 22.4961 14.9279 21.954 14.4807 21.6627C14.084 21.4052 13.5514 21.236 12.6922 21.0181C12.4266 20.9502 12.1488 20.7993 12.0628 20.6069C11.8353 20.8362 11.794 21.3515 11.834 21.6527C11.8805 22.0013 12.2878 22.5757 12.9011 22.5982C13.2757 22.6133 13.7492 22.5176 13.9762 22.4694C14.368 22.3848 14.9877 22.6302 15.0864 23.1084" fill="#0060AF"/>
<path d="M15.9586 15.09C14.9187 15.09 14.0205 15.7757 14.0237 16.9624C14.027 17.9603 14.8295 18.4945 15.1158 18.876C15.5486 19.451 15.7828 20.1316 15.8071 21.1729C15.8261 22.0017 15.8251 22.8201 15.8293 23.1102H16.0589C16.0549 22.8067 16.0445 21.9379 16.0564 21.1473C16.0719 20.1056 16.3146 19.451 16.7475 18.876C17.0364 18.4945 17.8382 17.9603 17.84 16.9624C17.8439 15.7757 16.9462 15.09 15.9072 15.09" fill="#0060AF"/>
<path d="M16.2226 23.1084C16.2226 22.6301 16.2172 21.3517 16.2287 21.1942C16.2186 19.2919 17.6008 17.9501 18.4754 18.0547C19.08 18.1071 19.5862 18.3537 19.859 19.0629C20.111 19.7239 19.8842 20.6031 19.0468 20.8094C18.1498 21.031 17.627 21.2153 17.2472 21.4754C16.7835 21.7938 16.431 22.4021 16.4202 23.1092" fill="#0060AF"/>
<path d="M16.5969 23.1092C16.5937 22.4961 16.9357 21.954 17.3817 21.6627C17.78 21.4052 18.3132 21.236 19.1716 21.0181C19.4378 20.9502 19.7153 20.7993 19.7997 20.6069C20.0283 20.8362 20.0696 21.3515 20.0295 21.6527C19.982 22.0013 19.5758 22.5757 18.9636 22.5982C18.5892 22.6133 18.1132 22.5176 17.8871 22.4694C17.4969 22.3848 16.8754 22.6302 16.7763 23.1084" fill="#0060AF"/>
<path d="M16.9177 25.0883L16.7847 24.1174L17.1058 24.0687C17.1841 24.058 17.2793 24.0716 17.3173 24.1207C17.3594 24.1718 17.3723 24.2141 17.3804 24.2812C17.3925 24.3642 17.3685 24.4601 17.275 24.508V24.5109C17.3794 24.5109 17.4425 24.5858 17.4608 24.7124C17.4635 24.7391 17.4714 24.8037 17.4635 24.8576C17.4423 24.9858 17.3658 25.027 17.2367 25.0451L16.9177 25.0883ZM17.1245 24.9145C17.1625 24.9091 17.2012 24.907 17.2313 24.8878C17.2775 24.8576 17.2733 24.793 17.2669 24.7451C17.2508 24.6397 17.2233 24.5997 17.1116 24.6162L17.0414 24.6271L17.0858 24.9199L17.1245 24.9145ZM17.0572 24.4659C17.0997 24.459 17.1573 24.4539 17.1814 24.4135C17.1939 24.3866 17.21 24.3651 17.1994 24.3052C17.1863 24.2341 17.1627 24.1901 17.0725 24.2072L16.9885 24.2207L17.0216 24.4695" fill="#0060AF"/>
<path d="M18.3091 24.5044C18.3115 24.5224 18.3145 24.5426 18.3155 24.5606C18.3415 24.7377 18.3091 24.8843 18.11 24.9247C17.8157 24.9814 17.7594 24.7985 17.7076 24.5426L17.68 24.4041C17.6394 24.1592 17.622 23.9737 17.9089 23.9166C18.0706 23.8871 18.1775 23.9515 18.222 24.1124C18.2289 24.1364 18.2375 24.1603 18.2408 24.1844L18.0648 24.2207C18.0444 24.1603 18.0175 24.0522 17.9383 24.0613C17.7962 24.0784 17.8431 24.2552 17.8577 24.3291L17.9106 24.5949C17.9265 24.6753 17.9581 24.8037 18.0811 24.7789C18.181 24.7589 18.1375 24.6034 18.1286 24.5397" fill="#0060AF"/>
<path d="M18.5915 24.7982L18.5306 23.7934L18.7671 23.7213L19.2629 24.5952L19.0767 24.6509L18.9592 24.4288L18.7525 24.4909L18.7792 24.7434L18.5915 24.7982ZM18.7352 24.3286L18.8846 24.2853L18.6862 23.8788" fill="#0060AF"/>
<path d="M12.7505 24.0386C12.8245 23.8017 12.8908 23.6273 13.1732 23.7047C13.3243 23.7469 13.418 23.8135 13.4135 23.9891C13.4128 24.0282 13.3999 24.068 13.3915 24.1066L13.2157 24.058C13.2387 23.9611 13.2533 23.8842 13.1339 23.8474C12.9958 23.8095 12.9622 23.9769 12.9432 24.0492L12.8717 24.3126C12.8489 24.3908 12.8217 24.5201 12.9432 24.5534C13.0436 24.5805 13.1045 24.4819 13.1408 24.338L13.0178 24.3055L13.0603 24.153L13.3495 24.2461L13.2122 24.7538L13.0791 24.7176L13.1091 24.6103H13.1053C13.0441 24.6981 12.9693 24.7072 12.9039 24.6947C12.6147 24.6165 12.6449 24.4275 12.7139 24.175" fill="#0060AF"/>
<path d="M13.8268 24.4674L13.7397 24.8805L13.5437 24.838L13.7526 23.8736L14.0868 23.9491C14.2824 23.9913 14.3414 24.0784 14.3137 24.2577C14.2979 24.3605 14.2472 24.4714 14.1233 24.4624L14.122 24.4608C14.2268 24.4974 14.2356 24.5502 14.2174 24.6415C14.2095 24.6804 14.155 24.9161 14.1926 24.9542L14.1939 24.9831L13.991 24.9302C13.9826 24.8648 14.0113 24.7473 14.0226 24.6823C14.0341 24.6248 14.0524 24.5436 13.994 24.5131C13.9482 24.4888 13.9312 24.49 13.8795 24.4781L13.8268 24.4674ZM13.8602 24.318L13.9922 24.3536C14.0724 24.3652 14.117 24.3236 14.1328 24.2268C14.147 24.138 14.1285 24.1033 14.0566 24.0861L13.9151 24.0574" fill="#0060AF"/>
<path d="M15.0841 24.0891L15.278 24.1116L15.1945 24.7895C15.1539 25.0045 15.0708 25.0985 14.8343 25.0691C14.5937 25.0387 14.5366 24.9291 14.5512 24.7124L14.6353 24.035L14.8306 24.0574L14.7468 24.7197C14.7379 24.7916 14.7213 24.8982 14.8493 24.911C14.9627 24.9197 14.9885 24.8445 15.0013 24.751" fill="#0060AF"/>
<path d="M15.4917 25.1062L15.55 24.1367L15.9225 24.1528C16.0985 24.1615 16.1446 24.3053 16.1391 24.4424C16.134 24.5259 16.1079 24.619 16.0352 24.6695C15.9756 24.7125 15.899 24.7226 15.8279 24.7192L15.7066 24.7124L15.6823 25.1188L15.4917 25.1062ZM15.7121 24.5646L15.8107 24.5701C15.8909 24.573 15.944 24.5413 15.9509 24.4236C15.9548 24.3106 15.9121 24.2914 15.8083 24.2869L15.73 24.2842" fill="#0060AF"/>
<path d="M41.7619 16.027L40.2815 18.7139C39.7228 18.2602 39.0404 17.9263 38.1699 17.9263C36.1098 17.9263 35.273 19.4619 35.273 20.5436C35.273 21.3465 35.7988 22.5312 37.6318 22.5312C38.4012 22.5312 39.495 21.996 39.8098 21.7524L38.3457 24.8697C37.6478 25.009 37.4186 25.0953 36.8278 25.1136C33.547 25.2115 32.2212 23.196 32.2222 21.1366C32.2243 18.4141 34.6449 15.103 38.6576 15.103C38.9035 15.103 39.2042 15.1881 39.4614 15.2823L39.7212 14.95" fill="#0060AF"/>
<path d="M47.8701 15.0342L48.2894 24.8001H45.1696L45.1678 23.1252H43.0405L42.3403 24.8001H38.9569L42.4941 17.8264L41.6965 17.8212L43.212 15.0342H47.8701ZM45.1475 18.0218L43.9448 20.8623H45.1838" fill="#0060AF"/>
<path d="M30.2526 15.0342C31.7976 15.0429 32.6706 15.8815 32.6706 17.093C32.6706 18.2097 31.7498 19.1983 30.7391 19.7094C31.7797 20.092 31.8697 21.031 31.8697 21.6953C31.8697 23.3003 30.2592 24.8001 28.1658 24.8001H23.6003L25.3812 17.9236L24.6496 17.9194L26.145 15.0342C26.145 15.0342 28.9963 15.0256 30.2526 15.0342ZM28.7369 18.9937C29.0564 18.9937 29.6207 18.9128 29.7618 18.2943C29.9164 17.6229 29.3868 17.6049 29.1328 17.6049L28.2252 17.6009L27.9086 18.9937L28.7369 18.9937ZM27.4536 20.7194L27.0357 22.3244H28.1044C28.5249 22.3244 29.098 22.1157 29.2384 21.5934C29.3771 21.0696 28.9765 20.7194 28.5575 20.7194" fill="#0060AF"/>
</svg>
