<svg width="28" height="20" viewBox="0 0 28 20" fill="none" xmlns="http://www.w3.org/2000/svg">
<path fill-rule="evenodd" clip-rule="evenodd" d="M19.9437 6.47411C21.7577 9.73216 20.6051 13.8747 17.3692 15.7266C14.1334 17.5786 10.0396 16.4388 8.22566 13.1807C6.41168 9.92265 7.56433 5.78015 10.8002 3.92817C14.036 2.0762 18.1297 3.21605 19.9437 6.47411ZM14.2724 6.82852C15.2448 6.64379 16.0763 6.72457 16.3967 7.57713C16.632 8.20105 16.469 8.66122 16.1008 9.00038C16.8488 8.97129 17.366 9.43251 17.5691 10.2319C17.7771 11.4306 16.9956 11.9887 15.7777 12.4104L16.1083 13.6376L15.3725 13.8456L15.0463 12.6348C14.8557 12.6889 14.6597 12.7422 14.4569 12.7955L14.785 14.012L14.05 14.2196L13.7178 12.9903L12.2338 13.4056L12.1417 12.4802C12.1417 12.4802 12.6883 12.3343 12.6765 12.3289C12.8847 12.2696 12.8994 12.1035 12.8873 12.0059L11.9888 8.67555C11.9203 8.53328 11.7763 8.38701 11.4781 8.47105C11.4841 8.45836 10.9438 8.62257 10.9438 8.62257L10.7304 7.83236L12.2131 7.41051L11.8855 6.19469L12.6209 5.98695L12.9423 7.17858C13.138 7.11866 13.3348 7.05907 13.528 7.00443L13.2085 5.8205L13.9442 5.61255L14.2724 6.82852ZM13.7115 9.48711C14.2164 9.35284 15.3152 9.06068 15.1092 8.29582C14.8979 7.51355 13.8534 7.8386 13.342 7.99774L13.342 7.99775C13.284 8.01578 13.2329 8.03169 13.1907 8.04361L13.589 9.52031C13.6239 9.51041 13.6652 9.49943 13.7115 9.48711ZM14.3786 11.8584C14.9828 11.6967 16.3042 11.343 16.0768 10.5006C15.8444 9.6391 14.5882 10.0268 13.9752 10.216L13.9751 10.216L13.975 10.2161C13.9066 10.2372 13.8462 10.2558 13.7962 10.27L14.235 11.8975C14.276 11.8858 14.3244 11.8729 14.3786 11.8584Z" fill="#8FC258"/>
</svg>
