<svg width="28" height="20" viewBox="0 0 28 20" fill="none" xmlns="http://www.w3.org/2000/svg">
<path fill-rule="evenodd" clip-rule="evenodd" d="M20.4812 9.94587C20.4812 13.5979 17.5555 16.5584 13.9464 16.5584C10.3374 16.5584 7.41174 13.5979 7.41174 9.94587C7.41174 6.29389 10.3374 3.33337 13.9464 3.33337C17.5555 3.33337 20.4812 6.29389 20.4812 9.94587ZM15.5164 7.4891C16.4254 7.80496 17.0903 8.27794 16.9599 9.15814C16.8651 9.80269 16.5107 10.1144 16.0398 10.2236C16.6859 10.5626 16.906 11.206 16.7015 11.984C16.313 13.1036 15.3896 13.1978 14.1615 12.9638L13.8633 14.1673L13.1434 13.9863L13.4375 12.7989C13.2509 12.7521 13.0601 12.7021 12.8636 12.6488L12.5683 13.842L11.8492 13.6609L12.147 12.4549L10.697 12.0861L11.0547 11.2551C11.0547 11.2551 11.5855 11.3969 11.5781 11.3866C11.7819 11.4374 11.8726 11.3035 11.9083 11.2146L12.7164 7.94801C12.7254 7.7938 12.6725 7.59949 12.3808 7.52589C12.3919 7.51804 11.8578 7.39483 11.8578 7.39483L12.0494 6.61964L13.5015 6.98222L13.7968 5.78987L14.5163 5.97096L14.2271 7.13974C14.4208 7.18398 14.6152 7.22905 14.8043 7.27659L15.0914 6.11525L15.8113 6.29633L15.5164 7.4891ZM13.7938 9.47809C14.2842 9.60965 15.3513 9.89592 15.5373 9.14532C15.7271 8.37737 14.6904 8.14543 14.1828 8.03187L14.1827 8.03186C14.1252 8.01899 14.0745 8.00765 14.0331 7.99721L13.6746 9.44672C13.7088 9.45526 13.7489 9.46602 13.7938 9.47809ZM13.2382 11.8118C13.8256 11.9684 15.1102 12.3108 15.3146 11.4837C15.5238 10.638 14.2783 10.3564 13.6706 10.2189C13.6027 10.2036 13.5428 10.19 13.4937 10.1777L13.0983 11.7752C13.1384 11.7853 13.1855 11.7978 13.2382 11.8118L13.2382 11.8118Z" fill="#F7931A"/>
</svg>
