<svg width="28" height="20" viewBox="0 0 28 20" fill="none" xmlns="http://www.w3.org/2000/svg">
<path fill-rule="evenodd" clip-rule="evenodd" d="M5.7118 11.4723C5.55866 11.5609 5.39562 11.605 5.22278 11.605H5.0894C5.05475 11.605 5.00527 11.602 4.86238 11.5757L5.34552 9.43432C5.4344 9.35112 5.53028 9.29711 5.64144 9.27099C5.7526 9.24499 5.82419 9.23797 5.89342 9.23797C6.10572 9.23797 6.27 9.30218 6.34908 9.44275C6.42806 9.5832 6.46763 9.77837 6.46763 10.0281C6.46763 10.2312 6.43545 10.4263 6.3713 10.6137C6.30705 10.801 6.2194 10.9688 6.1083 11.1171C5.99714 11.2654 5.86488 11.3839 5.7118 11.4723ZM6.80111 8.39672C6.6281 8.30827 6.42319 8.26399 6.18604 8.26399C6.07236 8.26399 5.96619 8.27702 5.86745 8.30303C5.76855 8.32915 5.67542 8.36281 5.57668 8.40963L6.0305 6.39832L4.88191 6.58564L3.60001 12.2607C3.74324 12.3337 3.89509 12.3909 4.05572 12.4324C4.21619 12.4741 4.3681 12.5053 4.51138 12.5261C4.65461 12.5469 4.78189 12.5586 4.89305 12.5613C5.00421 12.5638 5.08201 12.5652 5.12645 12.5652C5.47218 12.5652 5.79335 12.4961 6.08971 12.3583C6.38614 12.2205 6.64293 12.0331 6.86038 11.7963C7.07772 11.5595 7.24938 11.2811 7.37537 10.961C7.50136 10.6409 7.56433 10.3014 7.56433 9.94228C7.56433 9.70813 7.53707 9.48955 7.48278 9.2866C7.42838 9.08359 7.34442 8.90676 7.23085 8.75575C7.11718 8.60486 6.97395 8.48522 6.80111 8.39672ZM9.83892 7.76304L10.0077 7.0152H8.9074L8.73864 7.76304H9.83892ZM11.431 11.574C11.2893 11.574 11.1778 11.5528 11.097 11.51C11.0159 11.4674 10.9589 11.4074 10.9261 11.33C10.8931 11.2528 10.8805 11.1607 10.8881 11.054C10.8957 10.9474 10.9147 10.8328 10.945 10.71L11.2792 9.23796H12.5322L12.76 8.26193H11.4994L11.788 7.02187L10.6109 7.21391L9.86665 10.526C9.80592 10.798 9.77044 11.0568 9.76036 11.302C9.75012 11.5474 9.78561 11.7647 9.86665 11.954C9.94759 12.1434 10.0843 12.2928 10.2768 12.402C10.4691 12.5113 10.74 12.566 11.0893 12.566C11.3323 12.566 11.5424 12.5447 11.7196 12.502C11.7379 12.4976 11.7658 12.4905 11.7838 12.4859L12.0129 11.4762C11.936 11.5038 11.8587 11.5223 11.7842 11.538C11.6703 11.562 11.5526 11.574 11.431 11.574ZM24.8 8.26328H23.6998L23.0598 11.0997H23.0609L22.973 11.4898C22.9116 11.508 22.8505 11.5243 22.7898 11.5371C22.6759 11.5611 22.5582 11.5732 22.4367 11.5732C22.2949 11.5732 22.1835 11.5519 22.1025 11.5091C22.0215 11.4665 21.9646 11.4065 21.9317 11.3291C21.8987 11.2519 21.8861 11.1599 21.8937 11.0531C21.9013 10.9465 21.9203 10.8319 21.9507 10.7091L22.2848 9.23706L22.505 8.26103L22.5051 8.26074H21.3811L20.8723 10.5251C20.8116 10.7971 20.7761 11.0559 20.766 11.3012C20.7558 11.5465 20.7912 11.7639 20.8723 11.9531C20.9532 12.1425 21.0899 12.2919 21.2824 12.4012C21.4747 12.5104 21.7456 12.5652 22.0949 12.5652C22.3379 12.5652 22.548 12.5438 22.7253 12.5011C22.7324 12.4994 22.7393 12.4976 22.7463 12.4958L22.7458 12.4979C22.6966 12.7315 22.5968 12.9209 22.4367 13.0688C22.2765 13.2168 22.0387 13.2908 21.7234 13.2908C21.5888 13.2908 21.4665 13.2824 21.3557 13.2662L21.1392 14.2261C21.2856 14.246 21.448 14.2564 21.6273 14.2564C21.9624 14.2564 22.2557 14.216 22.507 14.1356C22.7583 14.0551 22.9738 13.9332 23.1537 13.7696C23.3335 13.6061 23.4838 13.401 23.6046 13.1546C23.7253 12.9079 23.8226 12.616 23.8965 12.2785L24.6578 8.90692L24.6551 8.90569L24.8 8.26328ZM19.4034 9.23796C18.8904 9.23796 18.7924 9.23796 18.5822 9.35282C18.433 9.43431 18.3094 9.55683 18.201 9.69976C18.0924 9.84275 18.0073 10.0077 17.9457 10.1948C17.8839 10.382 17.8531 10.5769 17.8531 10.7796C17.8531 11.0291 17.8926 11.2267 17.9716 11.3722C18.0504 11.5178 18.196 11.5905 18.4082 11.5905C18.5217 11.5905 18.6241 11.5671 18.7154 11.5203C18.8066 11.4736 18.9041 11.3956 19.0077 11.2864C19.0176 11.1566 19.0337 11.0201 19.0559 10.8771C19.0761 10.7465 19.1014 10.6246 19.1245 10.5132L19.1245 10.5131L19.1309 10.482L19.4034 9.23796ZM20.1846 10.686C20.1154 10.9824 20.0957 11.2799 20.1253 11.5788C20.155 11.8778 20.2635 12.3359 20.3693 12.5652H19.3046C19.2077 12.3925 19.1862 12.2881 19.1714 12.216L19.1714 12.216L19.1714 12.216C19.1663 12.1913 19.1621 12.1705 19.1558 12.1519C19.0176 12.2715 18.8646 12.3702 18.6969 12.4482C18.5291 12.5261 18.3416 12.5652 18.1344 12.5652C17.8876 12.5652 17.6767 12.5196 17.5016 12.4287C17.3264 12.3378 17.1833 12.2156 17.0723 12.0623C16.9613 11.909 16.881 11.7297 16.8318 11.5243C16.7824 11.319 16.7578 11.0993 16.7578 10.8654C16.7578 10.5067 16.8181 10.1689 16.9391 9.85183C17.0599 9.53478 17.2277 9.25794 17.4424 9.02138C17.657 8.78488 18.175 8.26334 19.025 8.26334L20.732 8.26328L20.1846 10.686ZM14.06 11.6073C13.9357 11.6073 13.8315 11.5968 13.747 11.5758L14.2798 9.23797C14.2798 9.23797 14.5509 9.23797 14.7141 9.23862C14.9475 9.23962 15.113 9.32305 15.2075 9.48008C15.3018 9.63704 15.349 9.82814 15.349 10.0531C15.349 10.2834 15.3179 10.494 15.2559 10.6849C15.1937 10.876 15.1069 11.0395 14.9951 11.1755C14.8833 11.3117 14.7479 11.4176 14.589 11.4935C14.43 11.5693 14.2537 11.6073 14.06 11.6073ZM16.2729 11.0146C16.3921 10.6981 16.4518 10.3488 16.4518 9.9667C16.4518 9.73126 16.4206 9.51026 16.3586 9.30342C16.2964 9.09681 16.2008 8.91626 16.0718 8.76183C15.9425 8.60752 15.7775 8.48588 15.5763 8.39685C15.3751 8.30793 15.1354 8.26341 14.8573 8.26341L14.4743 8.26339L13.3878 8.26341L12.1078 13.9385H13.2105L13.5458 12.5178C13.7147 12.5492 13.8836 12.5649 14.0525 12.5649C14.4002 12.5649 14.7219 12.5007 15.0174 12.3726C15.3129 12.2444 15.5662 12.0652 15.7775 11.8349C15.9885 11.6047 16.1538 11.3313 16.2729 11.0146ZM7.65336 12.566L8.62469 8.2608H9.72497L8.75364 12.566H7.65336Z" fill="#002855"/>
</svg>
