<svg width="46" height="32" viewBox="0 0 46 32" fill="none" xmlns="http://www.w3.org/2000/svg">
<path fill-rule="evenodd" clip-rule="evenodd" d="M9.24767 18.3556C8.99973 18.4972 8.73576 18.5679 8.45592 18.5679H8.23997C8.18388 18.5679 8.10377 18.5631 7.87242 18.5209L8.65465 15.0948C8.79856 14.9617 8.95379 14.8753 9.13376 14.8335C9.31373 14.7919 9.42963 14.7806 9.54173 14.7806C9.88545 14.7806 10.1514 14.8834 10.2795 15.1083C10.4073 15.333 10.4714 15.6453 10.4714 16.0449C10.4714 16.3697 10.4193 16.682 10.3154 16.9817C10.2114 17.2815 10.0695 17.55 9.88962 17.7873C9.70965 18.0246 9.49551 18.2141 9.24767 18.3556ZM11.0113 13.4346C10.7312 13.2931 10.3995 13.2223 10.0155 13.2223C9.83145 13.2223 9.65954 13.2431 9.49969 13.2847C9.33956 13.3265 9.18877 13.3804 9.02892 13.4553L9.76366 10.2372L7.90405 10.5369L5.82858 19.6171C6.06048 19.7338 6.30633 19.8253 6.56641 19.8918C6.82622 19.9584 7.07216 20.0083 7.30415 20.0417C7.53604 20.0749 7.74211 20.0936 7.92208 20.0979C8.10206 20.102 8.22802 20.1041 8.29997 20.1041C8.85973 20.1041 9.37971 19.9937 9.85954 19.7731C10.3395 19.5526 10.7552 19.2529 11.1073 18.8739C11.4592 18.495 11.7371 18.0496 11.9411 17.5375C12.1451 17.0254 12.247 16.4821 12.247 15.9075C12.247 15.5329 12.2029 15.1832 12.115 14.8584C12.0269 14.5336 11.891 14.2507 11.7071 14.0091C11.523 13.7677 11.2912 13.5762 11.0113 13.4346ZM15.9297 12.4207L16.2029 11.2242H14.4215L14.1483 12.4207H15.9297ZM18.5074 18.5183C18.2779 18.5183 18.0974 18.4843 17.9665 18.4159C17.8352 18.3477 17.743 18.2517 17.6898 18.1279C17.6364 18.0043 17.6161 17.857 17.6283 17.6863C17.6406 17.5157 17.6713 17.3323 17.7206 17.1359L18.2616 14.7806H20.2903L20.6591 13.219H18.6181L19.0853 11.2349L17.1796 11.5421L15.9746 16.8414C15.8763 17.2766 15.8188 17.6907 15.8025 18.0831C15.7859 18.4757 15.8434 18.8235 15.9746 19.1263C16.1056 19.4293 16.3269 19.6683 16.6385 19.8431C16.9499 20.0179 17.3885 20.1055 17.9542 20.1055C18.3476 20.1055 18.6876 20.0713 18.9746 20.0031C19.0043 19.996 19.0493 19.9847 19.0785 19.9774L19.4495 18.3618C19.3249 18.406 19.1997 18.4356 19.0791 18.4607C18.8947 18.4991 18.7041 18.5183 18.5074 18.5183ZM40.1524 13.2211H38.3711L37.3349 17.7594H37.3367L37.1944 18.3836C37.095 18.4127 36.996 18.4388 36.8978 18.4593C36.7134 18.4977 36.5228 18.5169 36.326 18.5169C36.0964 18.5169 35.9161 18.4829 35.785 18.4145C35.6538 18.3463 35.5617 18.2503 35.5084 18.1264C35.455 18.0029 35.4346 17.8557 35.4469 17.6848C35.4593 17.5143 35.49 17.3309 35.5392 17.1344L36.0801 14.7792L36.4367 13.2175L36.4368 13.2171H34.617L33.7932 16.8401C33.6949 17.2753 33.6374 17.6893 33.6211 18.0817C33.6046 18.4743 33.662 18.8221 33.7932 19.1249C33.9243 19.4279 34.1456 19.667 34.4572 19.8418C34.7686 20.0165 35.2072 20.1041 35.7727 20.1041C36.1662 20.1041 36.5063 20.07 36.7933 20.0017C36.8033 19.9993 36.8131 19.9968 36.8228 19.9943L36.8274 19.9931L36.8265 19.9965C36.7468 20.3703 36.5853 20.6734 36.3261 20.91C36.0667 21.1468 35.6817 21.2652 35.1713 21.2652C34.9533 21.2652 34.7553 21.2517 34.5759 21.2259L34.2253 22.7616C34.4625 22.7935 34.7253 22.8101 35.0157 22.8101C35.5581 22.8101 36.033 22.7455 36.4399 22.6168C36.8468 22.4881 37.1956 22.293 37.4869 22.0313C37.7781 21.7697 38.0214 21.4414 38.2169 21.0472C38.4123 20.6525 38.5699 20.1856 38.6896 19.6455L39.9222 14.251L39.9178 14.249L40.1524 13.2211ZM31.415 14.7806C30.5844 14.7806 30.4258 14.7806 30.0854 14.9644C29.8439 15.0948 29.6439 15.2908 29.4682 15.5195C29.2924 15.7483 29.1547 16.0122 29.0549 16.3116C28.9549 16.6111 28.905 16.9229 28.905 17.2473C28.905 17.6464 28.9689 17.9627 29.0969 18.1954C29.2245 18.4283 29.4603 18.5447 29.8038 18.5447C29.9875 18.5447 30.1532 18.5073 30.3011 18.4324C30.4488 18.3576 30.6067 18.2328 30.7744 18.0581C30.7904 17.8504 30.8164 17.6321 30.8524 17.4032C30.8852 17.1944 30.926 16.9994 30.9634 16.8212L30.9634 16.821L30.9635 16.8209L30.9635 16.8208L30.9739 16.7711L31.415 14.7806ZM32.6798 17.0976C32.5678 17.5717 32.5359 18.0478 32.5838 18.526C32.6319 19.0044 32.8076 19.7372 32.9789 20.1041H31.2551C31.0982 19.8278 31.0634 19.6609 31.0394 19.5455L31.0394 19.5455L31.0394 19.5455C31.0312 19.506 31.0243 19.4726 31.0141 19.4429C30.7904 19.6343 30.5427 19.7923 30.2712 19.917C29.9995 20.0417 29.696 20.1041 29.3604 20.1041C28.9609 20.1041 28.6194 20.0312 28.3359 19.8858C28.0522 19.7404 27.8206 19.5449 27.6409 19.2995C27.4611 19.0543 27.3311 18.7673 27.2515 18.4387C27.1715 18.1102 27.1316 17.7588 27.1316 17.3845C27.1316 16.8107 27.2293 16.2701 27.4252 15.7628C27.6209 15.2555 27.8925 14.8126 28.2401 14.4341C28.5875 14.0557 29.4262 13.2212 30.8024 13.2212L33.5661 13.2211L32.6798 17.0976ZM22.7638 18.5715C22.5626 18.5715 22.3938 18.5548 22.2571 18.5212L23.1197 14.7806C23.1197 14.7806 23.5585 14.7806 23.8228 14.7817C24.2008 14.7833 24.4687 14.9168 24.6216 15.168C24.7743 15.4191 24.8508 15.7249 24.8508 16.0848C24.8508 16.4533 24.8004 16.7902 24.7 17.0958C24.5993 17.4016 24.4588 17.6631 24.2778 17.8807C24.0968 18.0986 23.8776 18.2681 23.6203 18.3894C23.3628 18.5108 23.0774 18.5715 22.7638 18.5715ZM26.3466 17.6232C26.5397 17.1168 26.6362 16.5579 26.6362 15.9466C26.6362 15.5699 26.5858 15.2163 26.4854 14.8853C26.3847 14.5548 26.2299 14.2659 26.021 14.0188C25.8117 13.7719 25.5445 13.5773 25.2187 13.4348C24.893 13.2926 24.5049 13.2213 24.0546 13.2213L23.4346 13.2213H23.4336H23.4321H23.4297H23.4291C22.7702 13.2213 21.8914 13.2212 21.6756 13.2213L19.6031 22.3015H21.3885L21.9314 20.0283C22.2047 20.0786 22.4782 20.1037 22.7517 20.1037C23.3146 20.1037 23.8354 20.001 24.314 19.796C24.7923 19.5909 25.2025 19.3042 25.5445 18.9356C25.8862 18.5674 26.1537 18.13 26.3466 17.6232ZM12.3912 20.1055L13.9638 13.2172H15.7452L14.1726 20.1055H12.3912Z" fill="#002855"/>
</svg>
