<svg width="28" height="20" viewBox="0 0 28 20" fill="none" xmlns="http://www.w3.org/2000/svg">
<rect width="28" height="20" rx="4" fill="white"/>
<path d="M10.8036 6.99631L10.6719 7.64293C11.9729 7.63775 16.0666 6.13336 16.2567 5.23585C16.2567 5.236 16.2693 5.17709 16.2815 5.11786C16.2938 5.05895 16.3059 5.00004 16.3051 5.00004C14.5316 6.19337 11.8524 6.99364 10.8036 6.99631ZM10.5554 8.11188L10.4327 8.70697C11.687 8.70462 15.8273 7.19771 16.0174 6.30004L16.0701 6.04334C14.2361 7.31334 11.668 8.08093 10.5554 8.11188ZM10.2881 9.19775L10.1562 9.84375C11.4183 9.81924 15.5512 8.33465 15.7412 7.43729L15.8039 7.13032C14.3823 8.11832 11.4328 9.20388 10.2881 9.19775Z" fill="url(#paint0_linear_301_6143)"/>
<path d="M4.02168 11.1909H4.49691V12.8511H4.5079C4.67726 12.5564 4.98298 12.365 5.40919 12.365C6.06477 12.365 6.52884 12.9111 6.52319 13.7144C6.52319 14.6588 5.92809 15.1284 5.33802 15.1284C4.95564 15.1284 4.64977 14.9811 4.45323 14.6317H4.4369L4.41522 15.0684H4C4.01084 14.8881 4.02168 14.6204 4.02168 14.3856V11.1909ZM4.49691 14.0089C4.49691 14.0689 4.5079 14.1288 4.5189 14.1836C4.61175 14.5167 4.89029 14.7464 5.23983 14.7464C5.74224 14.7464 6.04277 14.3366 6.04277 13.7302C6.04277 13.2003 5.76942 12.7473 5.25617 12.7473C4.9283 12.7473 4.62243 12.9711 4.52409 13.3372C4.51325 13.3918 4.49691 13.4572 4.49691 13.5339V14.0089Z" fill="#1B517E"/>
<path d="M8.92104 14.4348C8.92104 14.6643 8.93188 14.8881 8.96472 15.0684H8.52766L8.48949 14.7352H8.47299C8.32563 14.9429 8.04144 15.1284 7.66487 15.1284C7.12947 15.1284 6.85659 14.7518 6.85659 14.3696C6.85659 13.7304 7.42435 13.3807 8.44581 13.3866V13.3317C8.44581 13.1135 8.3858 12.7199 7.84506 12.7199C7.5992 12.7199 7.34266 12.7963 7.15681 12.9166L7.04731 12.5997C7.26599 12.4579 7.58302 12.365 7.91592 12.365C8.72435 12.365 8.92104 12.9166 8.92104 13.4463V14.4348ZM8.45681 13.7194C7.93225 13.7084 7.33716 13.8014 7.33716 14.3145C7.33716 14.6262 7.54453 14.7737 7.79024 14.7737C8.13444 14.7737 8.35281 14.555 8.42932 14.3313C8.44581 14.2818 8.45681 14.2273 8.45681 14.1784V13.7194Z" fill="#1B517E"/>
<path d="M9.65856 13.1402C9.65856 12.8672 9.65291 12.6436 9.63673 12.425H10.0623L10.09 12.8619H10.1006C10.232 12.611 10.5379 12.3649 10.9747 12.3649C11.3403 12.3649 11.9087 12.5835 11.9087 13.4898V15.0685H11.4278V13.5446C11.4278 13.1186 11.2698 12.7634 10.8162 12.7634C10.4995 12.7634 10.2533 12.9875 10.1715 13.2552C10.1498 13.3149 10.1388 13.3971 10.1388 13.4793V15.0685H9.65856V13.1402Z" fill="#1B517E"/>
<path d="M13.0882 13.6376H13.0991C13.1647 13.5446 13.2576 13.4299 13.3343 13.3372L14.1097 12.4251H14.6886L13.6673 13.5119L14.8303 15.0685H14.2464L13.3343 13.8015L13.0882 14.0745V15.0685H12.613V11.1909H13.0882V13.6376Z" fill="#1B517E"/>
<path d="M18.7904 12.5186C18.7725 12.4972 18.7549 12.4758 18.7359 12.4562C18.7048 12.4241 18.6702 12.3938 18.6335 12.3652C18.4346 12.2028 18.1942 12.1073 17.9352 12.1073C17.6555 12.1073 17.398 12.2194 17.1908 12.4062C17.1847 12.41 17.1795 12.4143 17.1734 12.4177C17.166 12.4215 17.1555 12.427 17.1432 12.4237C17.1093 12.4147 17.0727 12.3784 17.0725 12.3264V11.2454C17.0725 11.1777 17.0168 11.1229 16.9486 11.1229H16.4226C16.3539 11.1229 16.2985 11.1777 16.2985 11.2454V11.2831C16.2985 11.2844 16.2982 11.2855 16.2982 11.2871V11.4124L16.2991 14.8969C16.2991 14.966 16.355 15.0223 16.424 15.0223H16.9002C16.9305 15.0223 16.958 15.0108 16.9798 14.9926C16.9805 14.9921 16.9816 14.9921 16.9819 14.9915C16.9827 14.991 16.983 14.9902 16.9834 14.9896C16.9937 14.9806 17.0017 14.9701 17.0084 14.9583H17.0086C17.0168 14.9429 17.0222 14.9268 17.0241 14.9088C17.0336 14.8319 17.086 14.7893 17.1186 14.8004C17.1297 14.8041 17.1404 14.8094 17.1514 14.8169C17.1625 14.8239 17.1734 14.8314 17.1841 14.8385C17.2163 14.862 17.3584 14.9593 17.4683 15.0083C17.5237 15.0328 17.7003 15.0927 17.9053 15.0927C18.1105 15.0927 18.2561 15.0472 18.2905 15.0381C18.3251 15.0289 18.359 15.0172 18.3917 15.0023C18.5522 14.9332 18.6812 14.8385 18.7794 14.7183C18.8763 14.6003 18.9568 14.4606 19.022 14.3002C19.1189 14.0889 19.174 13.8468 19.174 13.5889C19.174 13.1677 19.0265 12.7883 18.7904 12.5186ZM17.7044 14.536C17.319 14.536 17.0064 14.121 17.0064 13.6092C17.0064 13.097 17.319 12.6819 17.7044 12.6819C18.0896 12.6819 18.4019 13.097 18.4019 13.6092C18.4019 14.121 18.0896 14.536 17.7044 14.536Z" fill="#1B517E"/>
<path d="M20.5433 12.4174C20.5428 12.4103 20.542 12.4034 20.5414 12.3967V12.3043C20.5414 12.2348 20.4854 12.1786 20.416 12.1786H19.886C19.8165 12.1786 19.7603 12.2348 19.7603 12.3043V15.1599C19.7576 15.2326 19.6692 15.3324 19.5669 15.3571C19.5197 15.3717 19.4725 15.3784 19.425 15.3762C19.3776 15.3745 19.3451 15.3937 19.3267 15.4337C19.3194 15.4516 19.3141 15.4755 19.3102 15.5049C19.3069 15.5339 19.311 15.84 19.313 15.8653C19.315 15.8909 19.3194 15.9126 19.3267 15.9306C19.3485 15.9636 19.3868 15.9855 19.4414 15.9965C19.4596 16.0038 19.8115 16.0048 20.0482 15.9473C20.1411 15.9248 20.2159 15.8799 20.2781 15.8329C20.3395 15.7855 20.3943 15.7251 20.4421 15.6522C20.4968 15.5649 20.5266 15.4546 20.5323 15.3217C20.534 15.2816 20.5414 15.177 20.5414 15.1648V12.5699C20.542 12.556 20.5425 12.5418 20.5433 12.5269C20.5451 12.4906 20.5451 12.454 20.5433 12.4174Z" fill="#1B517E"/>
<path d="M23.6559 12.5186C23.6383 12.4972 23.6206 12.4758 23.6014 12.4562C23.5703 12.4241 23.5356 12.3938 23.499 12.3652C23.3003 12.2028 23.0599 12.1073 22.8007 12.1073C22.5212 12.1073 22.2637 12.2194 22.0567 12.4062C22.0504 12.41 22.045 12.4143 22.0387 12.4177C22.0315 12.4215 22.0213 12.427 22.0089 12.4237C21.975 12.4147 21.9384 12.3784 21.9379 12.3264V11.2454C21.9379 11.1777 21.8826 11.1229 21.8142 11.1229H21.2883C21.2196 11.1229 21.1642 11.1777 21.1642 11.2454V11.2831C21.1642 11.2844 21.1637 11.2855 21.1637 11.2871V11.4124L21.1645 14.8969C21.1645 14.966 21.2206 15.0223 21.2898 15.0223H21.7654C21.7962 15.0223 21.8238 15.0108 21.8455 14.9926C21.8461 14.9921 21.8468 14.9921 21.8475 14.9915C21.8482 14.991 21.8486 14.9902 21.8491 14.9896C21.8589 14.9806 21.8675 14.9701 21.8741 14.9583L21.8744 14.9579C21.8826 14.9429 21.8879 14.9268 21.8898 14.9088C21.8992 14.8319 21.9514 14.7893 21.9841 14.8004C21.9952 14.8041 22.0062 14.8094 22.0171 14.8169C22.0279 14.8239 22.0387 14.8314 22.0499 14.8385C22.0819 14.862 22.224 14.9593 22.3339 15.0083C22.3894 15.0328 22.5657 15.0927 22.7711 15.0927C22.9758 15.0927 23.1215 15.0472 23.1562 15.0381C23.1908 15.0289 23.2245 15.0172 23.2574 15.0023C23.4175 14.9332 23.5471 14.8385 23.6452 14.7183C23.7422 14.6003 23.8226 14.4606 23.8877 14.3002C23.9844 14.0889 24.0396 13.8468 24.0396 13.5889C24.0396 13.1677 23.8919 12.7883 23.6559 12.5186ZM22.5702 14.536C22.1845 14.536 21.8722 14.121 21.8722 13.6092C21.8722 13.097 22.1845 12.6819 22.5702 12.6819C22.9554 12.6819 23.2677 13.097 23.2677 13.6092C23.2677 14.121 22.9554 14.536 22.5702 14.536Z" fill="#1B517E"/>
<path d="M20.1416 11.1542C20.0662 11.1553 19.9999 11.1724 19.9429 11.2056C19.8868 11.2398 19.8434 11.2855 19.8126 11.3416C19.7806 11.3986 19.7647 11.4615 19.7647 11.5312C19.7647 11.5986 19.7806 11.6591 19.8103 11.715C19.84 11.7711 19.8822 11.8157 19.936 11.8498C19.9908 11.883 20.0547 11.9001 20.1279 11.9014C20.2101 11.9001 20.2799 11.883 20.337 11.8498C20.3941 11.8157 20.4374 11.7711 20.4671 11.715C20.4968 11.6591 20.5117 11.5986 20.5117 11.5312C20.5117 11.4615 20.4957 11.3986 20.466 11.3416C20.4363 11.2855 20.393 11.2398 20.338 11.2056C20.2832 11.1724 20.217 11.1553 20.1416 11.1542Z" fill="#1B517E"/>
<defs>
<linearGradient id="paint0_linear_301_6143" x1="9.75545" y1="5.0953" x2="17.1801" y2="4.83603" gradientUnits="userSpaceOnUse">
<stop stop-color="#3AA7DF"/>
<stop offset="0.12" stop-color="#227AAB"/>
<stop offset="0.42" stop-color="#1B517E"/>
<stop offset="0.57" stop-color="#8B8666"/>
<stop offset="1" stop-color="#EFC900"/>
</linearGradient>
</defs>
</svg>
