<svg width="34" height="24" viewBox="0 0 34 24" fill="none" xmlns="http://www.w3.org/2000/svg">
<rect width="34" height="24" rx="4" fill="white"/>
<path d="M12.6591 7.54066L12.4916 8.36363C14.1473 8.35704 19.3575 6.44236 19.5994 5.30007C19.5994 5.30027 19.6154 5.22529 19.631 5.14991C19.6466 5.07493 19.662 4.99995 19.661 4.99995C17.4038 6.51874 13.9939 7.53726 12.6591 7.54066ZM12.3432 8.96047L12.187 9.71787C13.7834 9.71487 19.053 7.79699 19.2949 6.6545L19.3619 6.32779C17.0277 7.94415 13.7592 8.92108 12.3432 8.96047ZM12.0031 10.3425L11.8351 11.1647C13.4415 11.1335 18.7015 9.244 18.9434 8.10191L19.0232 7.71121C17.2139 8.96867 13.4599 10.3503 12.0031 10.3425Z" fill="url(#paint0_linear_301_6104)"/>
<path d="M4.02759 12.8793H4.63243V14.9923H4.64642C4.86197 14.6172 5.25106 14.3737 5.79351 14.3737C6.62788 14.3737 7.21852 15.0687 7.21133 16.091C7.21133 17.2931 6.45393 17.8907 5.70294 17.8907C5.21627 17.8907 4.82697 17.7032 4.57684 17.2585H4.55605L4.52846 17.8144H4C4.0138 17.5848 4.02759 17.2441 4.02759 16.9454V12.8793ZM4.63243 16.4659C4.63243 16.5423 4.64642 16.6185 4.66042 16.6883C4.77859 17.1122 5.13309 17.4045 5.57797 17.4045C6.2174 17.4045 6.59989 16.883 6.59989 16.1112C6.59989 15.4368 6.25199 14.8602 5.59876 14.8602C5.18148 14.8602 4.79218 15.1451 4.66702 15.611C4.65322 15.6805 4.63243 15.7637 4.63243 15.8613V16.4659Z" fill="#1B517E"/>
<path d="M10.2631 17.0079C10.2631 17.3 10.2769 17.5847 10.3187 17.8142H9.76248L9.71389 17.3902H9.6929C9.50535 17.6545 9.14365 17.8906 8.66438 17.8906C7.98296 17.8906 7.63566 17.4114 7.63566 16.9249C7.63566 16.1113 8.35826 15.6662 9.65831 15.6738V15.6038C9.65831 15.3261 9.58193 14.8253 8.89372 14.8253C8.5808 14.8253 8.25429 14.9224 8.01775 15.0756L7.87839 14.6723C8.15672 14.4918 8.56021 14.3736 8.98389 14.3736C10.0128 14.3736 10.2631 15.0756 10.2631 15.7498V17.0079ZM9.6723 16.0973C9.00469 16.0833 8.24729 16.2017 8.24729 16.8547C8.24729 17.2514 8.51122 17.4391 8.82393 17.4391C9.26202 17.4391 9.53994 17.1608 9.63731 16.8761C9.65831 16.8131 9.6723 16.7437 9.6723 16.6816V16.0973Z" fill="#1B517E"/>
<path d="M11.2018 15.3603C11.2018 15.0128 11.1946 14.7283 11.174 14.45H11.7157L11.7509 15.006H11.7645C11.9316 14.6867 12.3209 14.3736 12.877 14.3736C13.3422 14.3736 14.0656 14.6517 14.0656 15.8052V17.8145H13.4536V15.875C13.4536 15.3327 13.2524 14.8807 12.6752 14.8807C12.2721 14.8807 11.9588 15.166 11.8546 15.5067C11.827 15.5827 11.813 15.6872 11.813 15.7918V17.8145H11.2018V15.3603Z" fill="#1B517E"/>
<path d="M15.5668 15.9932H15.5806C15.6642 15.8749 15.7824 15.7289 15.88 15.6109L16.8669 14.45H17.6037L16.3038 15.8333L17.784 17.8143H17.0408L15.88 16.2018L15.5668 16.5493V17.8143H14.962V12.8793H15.5668V15.9932Z" fill="#1B517E"/>
<path d="M22.8242 14.5691C22.8014 14.5419 22.779 14.5147 22.7548 14.4897C22.7152 14.4489 22.6712 14.4103 22.6244 14.374C22.3713 14.1672 22.0654 14.0456 21.7357 14.0456C21.3798 14.0456 21.052 14.1884 20.7883 14.4261C20.7805 14.4309 20.7739 14.4363 20.7661 14.4407C20.7567 14.4455 20.7433 14.4525 20.7277 14.4483C20.6845 14.4369 20.638 14.3908 20.6378 14.3246V12.9487C20.6378 12.8626 20.5668 12.7928 20.48 12.7928H19.8106C19.7232 12.7928 19.6526 12.8626 19.6526 12.9487V12.9967C19.6526 12.9983 19.6522 12.9997 19.6522 13.0017V13.1613L19.6534 17.5961C19.6534 17.6841 19.7246 17.7556 19.8124 17.7556H20.4184C20.457 17.7556 20.492 17.741 20.5198 17.7178C20.5206 17.7172 20.522 17.7172 20.5224 17.7164C20.5234 17.7159 20.5238 17.7149 20.5244 17.7141C20.5374 17.7027 20.5476 17.6893 20.5562 17.6743H20.5564C20.5668 17.6547 20.5738 17.6341 20.5762 17.6113C20.5882 17.5133 20.6549 17.4591 20.6963 17.4733C20.7105 17.4779 20.7241 17.4847 20.7381 17.4943C20.7523 17.5031 20.7661 17.5127 20.7797 17.5217C20.8207 17.5517 21.0017 17.6755 21.1414 17.7378C21.212 17.769 21.4367 17.8452 21.6977 17.8452C21.9588 17.8452 22.1441 17.7874 22.1879 17.7758C22.2319 17.764 22.2751 17.7492 22.3167 17.7302C22.521 17.6423 22.6852 17.5217 22.8102 17.3687C22.9335 17.2186 23.0359 17.0408 23.1189 16.8367C23.2422 16.5678 23.3124 16.2596 23.3124 15.9313C23.3124 15.3953 23.1247 14.9124 22.8242 14.5691ZM21.4419 17.1368C20.9515 17.1368 20.5536 16.6086 20.5536 15.9571C20.5536 15.3053 20.9515 14.777 21.4419 14.777C21.9322 14.777 22.3297 15.3053 22.3297 15.9571C22.3297 16.6086 21.9322 17.1368 21.4419 17.1368Z" fill="#1B517E"/>
<path d="M25.0551 14.4403C25.0545 14.4313 25.0535 14.4225 25.0527 14.4139V14.2964C25.0527 14.208 24.9815 14.1364 24.8931 14.1364H24.2185C24.1301 14.1364 24.0585 14.208 24.0585 14.2964V17.9308C24.0551 18.0233 23.9426 18.1503 23.8124 18.1817C23.7524 18.2003 23.6922 18.2089 23.6318 18.2061C23.5715 18.2039 23.5301 18.2283 23.5067 18.2793C23.4975 18.3021 23.4907 18.3325 23.4857 18.3699C23.4815 18.4068 23.4867 18.7963 23.4893 18.8285C23.4919 18.8611 23.4975 18.8887 23.5067 18.9117C23.5345 18.9537 23.5833 18.9815 23.6526 18.9955C23.6758 19.0049 24.1237 19.0061 24.425 18.9329C24.5432 18.9043 24.6384 18.8471 24.7175 18.7873C24.7957 18.727 24.8655 18.6502 24.9263 18.5574C24.9959 18.4462 25.0339 18.3059 25.0411 18.1367C25.0433 18.0857 25.0527 17.9526 25.0527 17.937V14.6345C25.0535 14.6167 25.0541 14.5987 25.0551 14.5797C25.0575 14.5335 25.0575 14.4869 25.0551 14.4403Z" fill="#1B517E"/>
<path d="M29.0166 14.5691C28.9942 14.5419 28.9716 14.5147 28.9473 14.4897C28.9077 14.4489 28.8635 14.4103 28.8169 14.374C28.564 14.1672 28.258 14.0456 27.9281 14.0456C27.5724 14.0456 27.2447 14.1884 26.9812 14.4261C26.9732 14.4309 26.9664 14.4363 26.9584 14.4407C26.9492 14.4455 26.9362 14.4525 26.9204 14.4483C26.8772 14.4369 26.8306 14.3908 26.83 14.3246V12.9487C26.83 12.8626 26.7596 12.7928 26.6727 12.7928H26.0033C25.9159 12.7928 25.8453 12.8626 25.8453 12.9487V12.9967C25.8453 12.9983 25.8447 12.9997 25.8447 13.0017V13.1613L25.8457 17.5961C25.8457 17.6841 25.9171 17.7556 26.0053 17.7556H26.6105C26.6497 17.7556 26.6849 17.741 26.7125 17.7178C26.7133 17.7172 26.7141 17.7172 26.7151 17.7164C26.7159 17.7159 26.7165 17.7149 26.7171 17.7141C26.7295 17.7027 26.7405 17.6893 26.7489 17.6743L26.7493 17.6737C26.7596 17.6547 26.7664 17.6341 26.7688 17.6113C26.7808 17.5133 26.8472 17.4591 26.8888 17.4733C26.903 17.4779 26.917 17.4847 26.9308 17.4943C26.9446 17.5031 26.9584 17.5127 26.9726 17.5217C27.0134 17.5517 27.1941 17.6755 27.3341 17.7378C27.4047 17.769 27.629 17.8452 27.8905 17.8452C28.1511 17.8452 28.3364 17.7874 28.3806 17.7758C28.4246 17.764 28.4676 17.7492 28.5094 17.7302C28.7131 17.6423 28.8781 17.5217 29.003 17.3687C29.1264 17.2186 29.2288 17.0408 29.3116 16.8367C29.4347 16.5678 29.5049 16.2596 29.5049 15.9313C29.5049 15.3953 29.317 14.9124 29.0166 14.5691ZM27.6348 17.1368C27.1439 17.1368 26.7465 16.6086 26.7465 15.9571C26.7465 15.3053 27.1439 14.777 27.6348 14.777C28.1251 14.777 28.5226 15.3053 28.5226 15.9571C28.5226 16.6086 28.1251 17.1368 27.6348 17.1368Z" fill="#1B517E"/>
<path d="M24.5439 12.8326C24.4479 12.834 24.3635 12.8558 24.2909 12.898C24.2196 12.9416 24.1644 12.9998 24.1252 13.0712C24.0844 13.1437 24.0642 13.2237 24.0642 13.3125C24.0642 13.3983 24.0844 13.4753 24.1222 13.5464C24.16 13.6178 24.2138 13.6746 24.2821 13.718C24.3519 13.7602 24.4333 13.782 24.5265 13.7836C24.631 13.782 24.7198 13.7602 24.7926 13.718C24.8652 13.6746 24.9204 13.6178 24.9582 13.5464C24.9959 13.4753 25.0149 13.3983 25.0149 13.3125C25.0149 13.2237 24.9946 13.1437 24.9568 13.0712C24.919 12.9998 24.8638 12.9416 24.7938 12.898C24.724 12.8558 24.6398 12.834 24.5439 12.8326Z" fill="#1B517E"/>
<defs>
<linearGradient id="paint0_linear_301_6104" x1="11.3251" y1="5.1212" x2="20.7746" y2="4.79121" gradientUnits="userSpaceOnUse">
<stop stop-color="#3AA7DF"/>
<stop offset="0.12" stop-color="#227AAB"/>
<stop offset="0.42" stop-color="#1B517E"/>
<stop offset="0.57" stop-color="#8B8666"/>
<stop offset="1" stop-color="#EFC900"/>
</linearGradient>
</defs>
</svg>
