<svg width="46" height="32" viewBox="0 0 46 32" fill="none" xmlns="http://www.w3.org/2000/svg">
<rect width="46" height="32" rx="4" fill="white"/>
<path d="M17.3702 9.6296L17.1308 10.8053C19.4961 10.7959 26.9393 8.0606 27.2849 6.42876C27.2849 6.42904 27.3077 6.32193 27.33 6.21424C27.3523 6.10713 27.3743 6.00002 27.3729 6.00002C24.1483 8.16971 19.2771 9.62474 17.3702 9.6296ZM16.9189 11.6579L16.6958 12.7399C18.9763 12.7356 26.5042 9.99579 26.8499 8.36366L26.9455 7.89693C23.611 10.206 18.9417 11.6016 16.9189 11.6579ZM16.433 13.6322L16.193 14.8068C18.4879 14.7622 26.0021 12.0629 26.3477 10.4314L26.4617 9.87325C23.877 11.6696 18.5141 13.6434 16.433 13.6322Z" fill="url(#paint0_linear_301_6182)"/>
<path d="M5.03942 17.2561H5.90347V20.2747H5.92346C6.23138 19.7388 6.78723 19.3909 7.56216 19.3909C8.75412 19.3909 9.59789 20.3838 9.58761 21.8443C9.58761 23.5615 8.50562 24.4153 7.43277 24.4153C6.73753 24.4153 6.18139 24.1474 5.82406 23.5121H5.79436L5.75494 24.3062H5C5.01971 23.9783 5.03942 23.4915 5.03942 23.0648V17.2561ZM5.90347 22.3798C5.90347 22.489 5.92346 22.5978 5.94346 22.6975C6.11227 23.303 6.6187 23.7206 7.25424 23.7206C8.16771 23.7206 8.71413 22.9757 8.71413 21.8731C8.71413 20.9097 8.21712 20.0859 7.28395 20.0859C6.68783 20.0859 6.13169 20.4929 5.95288 21.1585C5.93317 21.2579 5.90347 21.3767 5.90347 21.5161V22.3798Z" fill="#1B517E"/>
<path d="M13.9474 23.1542C13.9474 23.5715 13.9671 23.9783 14.0268 24.3062H13.2321L13.1627 23.7003H13.1327C12.8648 24.0779 12.3481 24.4153 11.6634 24.4153C10.69 24.4153 10.1938 23.7306 10.1938 23.0357C10.1938 21.8734 11.2261 21.2376 13.0833 21.2484V21.1485C13.0833 20.7517 12.9742 20.0362 11.991 20.0362C11.544 20.0362 11.0776 20.175 10.7397 20.3938L10.5406 19.8177C10.9382 19.5597 11.5146 19.3909 12.1198 19.3909C13.5897 19.3909 13.9474 20.3938 13.9474 21.357V23.1542ZM13.1033 21.8534C12.1496 21.8334 11.0676 22.0025 11.0676 22.9354C11.0676 23.5021 11.4446 23.7703 11.8913 23.7703C12.5172 23.7703 12.9142 23.3727 13.0533 22.966C13.0833 22.876 13.1033 22.7769 13.1033 22.688V21.8534Z" fill="#1B517E"/>
<path d="M15.2883 20.8005C15.2883 20.3041 15.278 19.8976 15.2486 19.5H16.0224L16.0727 20.2943H16.0921C16.3309 19.8382 16.887 19.3909 17.6814 19.3909C18.346 19.3909 19.3795 19.7882 19.3795 21.436V24.3064H18.5051V21.5357C18.5051 20.7611 18.2178 20.1153 17.3932 20.1153C16.8173 20.1153 16.3697 20.5229 16.2209 21.0096C16.1815 21.1181 16.1615 21.2675 16.1615 21.4169V24.3064H15.2883V20.8005Z" fill="#1B517E"/>
<path d="M21.5241 21.7047H21.5438C21.6632 21.5356 21.832 21.3271 21.9714 21.1586L23.3813 19.5002H24.4338L22.5769 21.4762L24.6915 24.3063H23.6298L21.9714 22.0026L21.5241 22.4991V24.3063H20.66V17.2562H21.5241V21.7047Z" fill="#1B517E"/>
<path d="M31.8917 19.6702C31.8591 19.6313 31.8271 19.5925 31.7925 19.5568C31.736 19.4985 31.6731 19.4434 31.6063 19.3914C31.2447 19.0961 30.8077 18.9224 30.3367 18.9224C29.8282 18.9224 29.3601 19.1263 28.9833 19.466C28.9722 19.4728 28.9627 19.4805 28.9516 19.4868C28.9382 19.4937 28.919 19.5037 28.8968 19.4977C28.8351 19.4814 28.7685 19.4154 28.7682 19.3209V17.3554C28.7682 17.2323 28.6668 17.1326 28.5429 17.1326H27.5865C27.4617 17.1326 27.3609 17.2323 27.3609 17.3554V17.4239C27.3609 17.4262 27.3603 17.4282 27.3603 17.4311V17.659L27.362 23.9944C27.362 24.1201 27.4637 24.2224 27.5891 24.2224H28.4549C28.51 24.2224 28.56 24.2015 28.5997 24.1684C28.6008 24.1675 28.6028 24.1675 28.6034 24.1664C28.6048 24.1655 28.6054 24.1641 28.6063 24.163C28.6248 24.1467 28.6394 24.1275 28.6517 24.1061H28.652C28.6668 24.0781 28.6768 24.0487 28.6802 24.0161C28.6974 23.8762 28.7928 23.7988 28.8519 23.8191C28.8722 23.8256 28.8916 23.8353 28.9116 23.849C28.9319 23.8616 28.9516 23.8753 28.971 23.8882C29.0296 23.931 29.2881 24.1078 29.4877 24.197C29.5886 24.2415 29.9096 24.3503 30.2824 24.3503C30.6554 24.3503 30.9202 24.2678 30.9828 24.2512C31.0456 24.2344 31.1073 24.2132 31.1667 24.1861C31.4586 24.0604 31.6931 23.8882 31.8717 23.6697C32.0479 23.4552 32.1941 23.2012 32.3127 22.9096C32.4889 22.5254 32.5892 22.0852 32.5892 21.6162C32.5892 20.8504 32.321 20.1606 31.8917 19.6702ZM29.9171 23.3383C29.2164 23.3383 28.648 22.5837 28.648 21.6531C28.648 20.7219 29.2164 19.9672 29.9171 19.9672C30.6174 19.9672 31.1853 20.7219 31.1853 21.6531C31.1853 22.5837 30.6174 23.3383 29.9171 23.3383Z" fill="#1B517E"/>
<path d="M35.0787 19.4862C35.0778 19.4733 35.0764 19.4608 35.0752 19.4485V19.2805C35.0752 19.1543 34.9735 19.052 34.8473 19.052H33.8835C33.7573 19.052 33.655 19.1543 33.655 19.2805V24.4725C33.6502 24.6048 33.4894 24.7862 33.3034 24.831C33.2177 24.8576 33.1317 24.8699 33.0455 24.8659C32.9592 24.8627 32.9001 24.8976 32.8667 24.9704C32.8535 25.003 32.8438 25.0464 32.8367 25.0998C32.8307 25.1526 32.8381 25.7091 32.8418 25.755C32.8455 25.8016 32.8535 25.841 32.8667 25.8739C32.9064 25.9338 32.9761 25.9736 33.0752 25.9935C33.1083 26.007 33.7482 26.0087 34.1786 25.9041C34.3474 25.8633 34.4834 25.7816 34.5965 25.6962C34.7082 25.6099 34.8079 25.5003 34.8947 25.3677C34.9941 25.2089 35.0484 25.0084 35.0587 24.7667C35.0618 24.6939 35.0752 24.5037 35.0752 24.4814V19.7635C35.0764 19.7381 35.0772 19.7124 35.0787 19.6853C35.0821 19.6193 35.0821 19.5527 35.0787 19.4862Z" fill="#1B517E"/>
<path d="M40.7381 19.6702C40.7061 19.6313 40.6738 19.5925 40.6389 19.5568C40.5824 19.4985 40.5193 19.4434 40.4527 19.3914C40.0914 19.0961 39.6543 18.9224 39.183 18.9224C38.6749 18.9224 38.2067 19.1263 37.8303 19.466C37.8188 19.4728 37.8091 19.4805 37.7977 19.4868C37.7846 19.4937 37.766 19.5037 37.7434 19.4977C37.6817 19.4814 37.6152 19.4154 37.6143 19.3209V17.3554C37.6143 17.2323 37.5138 17.1326 37.3895 17.1326H36.4332C36.3084 17.1326 36.2076 17.2323 36.2076 17.3554V17.4239C36.2076 17.4262 36.2067 17.4282 36.2067 17.4311V17.659L36.2081 23.9944C36.2081 24.1201 36.3101 24.2224 36.4361 24.2224H37.3007C37.3567 24.2224 37.407 24.2015 37.4464 24.1684C37.4475 24.1675 37.4487 24.1675 37.4501 24.1664C37.4512 24.1655 37.4521 24.1641 37.4529 24.163C37.4707 24.1467 37.4864 24.1275 37.4984 24.1061L37.4989 24.1053C37.5138 24.0781 37.5235 24.0487 37.5269 24.0161C37.5441 23.8762 37.6389 23.7988 37.6983 23.8191C37.7186 23.8256 37.7386 23.8353 37.7583 23.849C37.778 23.8616 37.7977 23.8753 37.818 23.8882C37.8763 23.931 38.1345 24.1078 38.3344 24.197C38.4352 24.2415 38.7557 24.3503 39.1293 24.3503C39.5015 24.3503 39.7663 24.2678 39.8294 24.2512C39.8923 24.2344 39.9537 24.2132 40.0134 24.1861C40.3045 24.0604 40.5401 23.8882 40.7186 23.6697C40.8949 23.4552 41.0411 23.2012 41.1594 22.9096C41.3353 22.5254 41.4356 22.0852 41.4356 21.6162C41.4356 20.8504 41.1671 20.1606 40.7381 19.6702ZM38.764 23.3383C38.0628 23.3383 37.4949 22.5837 37.4949 21.6531C37.4949 20.7219 38.0628 19.9672 38.764 19.9672C39.4644 19.9672 40.0322 20.7219 40.0322 21.6531C40.0322 22.5837 39.4644 23.3383 38.764 23.3383Z" fill="#1B517E"/>
<path d="M34.3484 17.1894C34.2113 17.1914 34.0907 17.2225 33.9871 17.2828C33.8851 17.345 33.8063 17.4282 33.7503 17.5301C33.692 17.6338 33.6631 17.7481 33.6631 17.8749C33.6631 17.9974 33.692 18.1074 33.746 18.2091C33.8 18.3111 33.8768 18.3922 33.9745 18.4542C34.0742 18.5144 34.1904 18.5456 34.3235 18.5479C34.4729 18.5456 34.5998 18.5144 34.7037 18.4542C34.8074 18.3922 34.8862 18.3111 34.9402 18.2091C34.9942 18.1074 35.0214 17.9974 35.0214 17.8749C35.0214 17.7481 34.9922 17.6338 34.9382 17.5301C34.8842 17.4282 34.8054 17.345 34.7054 17.2828C34.6057 17.2225 34.4855 17.1914 34.3484 17.1894Z" fill="#1B517E"/>
<defs>
<linearGradient id="paint0_linear_301_6182" x1="15.4645" y1="6.17323" x2="28.9638" y2="5.70182" gradientUnits="userSpaceOnUse">
<stop stop-color="#3AA7DF"/>
<stop offset="0.12" stop-color="#227AAB"/>
<stop offset="0.42" stop-color="#1B517E"/>
<stop offset="0.57" stop-color="#8B8666"/>
<stop offset="1" stop-color="#EFC900"/>
</linearGradient>
</defs>
</svg>
