<svg width="58" height="40" viewBox="0 0 58 40" fill="none" xmlns="http://www.w3.org/2000/svg">
<rect width="58" height="40" rx="6" fill="white"/>
<path d="M21.8442 12.3555L21.5569 13.7663C24.3954 13.755 33.3271 10.4727 33.7419 8.51451C33.7419 8.51485 33.7693 8.38632 33.796 8.25709C33.8227 8.12856 33.8491 8.00002 33.8474 8.00002C29.978 10.6037 24.1325 12.3497 21.8442 12.3555ZM21.3026 14.7895L21.0349 16.0879C23.7715 16.0827 32.8051 12.7949 33.2198 10.8364L33.3347 10.2763C29.3332 13.0472 23.7301 14.722 21.3026 14.7895ZM20.7196 17.1587L20.4317 18.5681C23.1854 18.5146 32.2025 15.2755 32.6172 13.3177L32.754 12.6479C29.6523 14.8035 23.217 17.172 20.7196 17.1587Z" fill="url(#paint0_linear_301_6221)"/>
<path d="M7.0473 21.5074H8.08416V25.1297H8.10816C8.47766 24.4867 9.14467 24.0692 10.0746 24.0692C11.5049 24.0692 12.5175 25.2606 12.5051 27.0132C12.5051 29.0739 11.2067 30.0984 9.91932 30.0984C9.08503 30.0984 8.41767 29.7769 7.98887 29.0146H7.95323L7.90592 29.9675H7C7.02365 29.574 7.0473 28.9899 7.0473 28.4778V21.5074ZM8.08416 27.6559C8.08416 27.7868 8.10816 27.9174 8.13215 28.037C8.33472 28.7637 8.94244 29.2648 9.70509 29.2648C10.8013 29.2648 11.457 28.3709 11.457 27.0478C11.457 25.8916 10.8605 24.9031 9.74074 24.9031C9.02539 24.9031 8.35803 25.3916 8.14346 26.1902C8.11981 26.3095 8.08416 26.4521 8.08416 26.6193V27.6559Z" fill="#1B517E"/>
<path d="M17.7368 28.585C17.7368 29.0857 17.7605 29.5738 17.8321 29.9673H16.8785L16.7952 29.2403H16.7593C16.4377 29.6935 15.8177 30.0983 14.9961 30.0983C13.8279 30.0983 13.2326 29.2767 13.2326 28.4427C13.2326 27.048 14.4713 26.285 16.7 26.298V26.1781C16.7 25.702 16.569 24.8434 15.3892 24.8434C14.8528 24.8434 14.2931 25.0099 13.8876 25.2725L13.6487 24.5811C14.1258 24.2716 14.8175 24.0691 15.5438 24.0691C17.3077 24.0691 17.7368 25.2725 17.7368 26.4283V28.585ZM16.724 27.024C15.5795 27 14.2811 27.2029 14.2811 28.3224C14.2811 29.0025 14.7335 29.3243 15.2696 29.3243C16.0206 29.3243 16.497 28.8472 16.664 28.3591C16.7 28.2511 16.724 28.1322 16.724 28.0256V27.024Z" fill="#1B517E"/>
<path d="M19.346 25.7606C19.346 25.1648 19.3336 24.6771 19.2983 24.2H20.2269L20.2872 25.1532H20.3105C20.597 24.6058 21.2644 24.069 22.2176 24.069C23.0152 24.069 24.2554 24.5458 24.2554 26.5232V29.9677H23.2062V26.6428C23.2062 25.7133 22.8613 24.9383 21.8718 24.9383C21.1808 24.9383 20.6437 25.4274 20.4651 26.0115C20.4178 26.1417 20.3938 26.321 20.3938 26.5003V29.9677H19.346V25.7606Z" fill="#1B517E"/>
<path d="M26.8289 26.8456H26.8525C26.9958 26.6427 27.1984 26.3925 27.3656 26.1903L29.0575 24.2002H30.3206L28.0923 26.5714L30.6298 29.9675H29.3557L27.3656 27.2031L26.8289 27.7989V29.9675H25.792V21.5074H26.8289V26.8456Z" fill="#1B517E"/>
<path d="M39.27 24.4042C39.2309 24.3576 39.1925 24.311 39.151 24.2681C39.0832 24.1982 39.0078 24.132 38.9276 24.0697C38.4936 23.7152 37.9692 23.5068 37.404 23.5068C36.7939 23.5068 36.2321 23.7516 35.78 24.1591C35.7666 24.1673 35.7553 24.1766 35.7419 24.1841C35.7258 24.1924 35.7028 24.2044 35.6761 24.1972C35.6021 24.1776 35.5222 24.0985 35.5219 23.985V21.6264C35.5219 21.4787 35.4002 21.3591 35.2514 21.3591H34.1039C33.9541 21.3591 33.8331 21.4787 33.8331 21.6264V21.7087C33.8331 21.7114 33.8324 21.7138 33.8324 21.7173V21.9908L33.8344 29.5933C33.8344 29.7441 33.9565 29.8668 34.1069 29.8668H35.1459C35.212 29.8668 35.272 29.8418 35.3196 29.802C35.321 29.801 35.3234 29.801 35.3241 29.7996C35.3258 29.7986 35.3265 29.7969 35.3275 29.7955C35.3498 29.776 35.3673 29.753 35.382 29.7273H35.3824C35.4002 29.6937 35.4122 29.6584 35.4163 29.6194C35.4369 29.4514 35.5513 29.3585 35.6223 29.3828C35.6466 29.3907 35.6699 29.4024 35.6939 29.4188C35.7183 29.4339 35.7419 29.4504 35.7652 29.4658C35.8355 29.5172 36.1457 29.7294 36.3853 29.8363C36.5063 29.8898 36.8915 30.0204 37.3389 30.0204C37.7865 30.0204 38.1042 29.9213 38.1793 29.9014C38.2547 29.8812 38.3288 29.8559 38.4001 29.8233C38.7504 29.6725 39.0318 29.4658 39.246 29.2036C39.4575 28.9462 39.633 28.6414 39.7752 28.2915C39.9867 27.8305 40.107 27.3023 40.107 26.7394C40.107 25.8205 39.7852 24.9927 39.27 24.4042ZM36.9005 28.806C36.0597 28.806 35.3776 27.9004 35.3776 26.7837C35.3776 25.6663 36.0597 24.7607 36.9005 24.7607C37.7409 24.7607 38.4223 25.6663 38.4223 26.7837C38.4223 27.9004 37.7409 28.806 36.9005 28.806Z" fill="#1B517E"/>
<path d="M43.0944 24.1834C43.0933 24.168 43.0916 24.1529 43.0903 24.1382V23.9366C43.0903 23.7851 42.9682 23.6624 42.8167 23.6624H41.6602C41.5087 23.6624 41.386 23.7851 41.386 23.9366V30.167C41.3802 30.3257 41.1872 30.5434 40.9641 30.5972C40.8613 30.6291 40.7581 30.6438 40.6546 30.639C40.5511 30.6353 40.4801 30.6771 40.44 30.7645C40.4242 30.8036 40.4126 30.8557 40.404 30.9197C40.3968 30.9832 40.4057 31.6509 40.4102 31.706C40.4146 31.7619 40.4242 31.8092 40.44 31.8486C40.4877 31.9206 40.5713 31.9683 40.6902 31.9923C40.73 32.0084 41.4978 32.0104 42.0143 31.885C42.2169 31.836 42.3801 31.7379 42.5158 31.6354C42.6498 31.5319 42.7694 31.4003 42.8736 31.2413C42.9929 31.0507 43.058 30.8101 43.0704 30.5201C43.0742 30.4327 43.0903 30.2044 43.0903 30.1777V24.5162C43.0916 24.4857 43.0927 24.4549 43.0944 24.4223C43.0985 24.3431 43.0985 24.2633 43.0944 24.1834Z" fill="#1B517E"/>
<path d="M49.8857 24.4042C49.8473 24.3576 49.8085 24.311 49.7667 24.2681C49.6989 24.1982 49.6231 24.132 49.5432 24.0697C49.1097 23.7152 48.5852 23.5068 48.0197 23.5068C47.4099 23.5068 46.8481 23.7516 46.3963 24.1591C46.3826 24.1673 46.371 24.1766 46.3573 24.1841C46.3415 24.1924 46.3192 24.2044 46.2921 24.1972C46.2181 24.1776 46.1382 24.0985 46.1372 23.985V21.6264C46.1372 21.4787 46.0165 21.3591 45.8674 21.3591H44.7199C44.5701 21.3591 44.4491 21.4787 44.4491 21.6264V21.7087C44.4491 21.7114 44.4481 21.7138 44.4481 21.7173V21.9908L44.4498 29.5933C44.4498 29.7441 44.5721 29.8668 44.7233 29.8668H45.7608C45.828 29.8668 45.8884 29.8418 45.9357 29.802C45.937 29.801 45.9384 29.801 45.9401 29.7996C45.9415 29.7986 45.9425 29.7969 45.9435 29.7955C45.9648 29.776 45.9836 29.753 45.998 29.7273L45.9987 29.7263C46.0165 29.6937 46.0282 29.6584 46.0323 29.6194C46.0529 29.4514 46.1667 29.3585 46.238 29.3828C46.2623 29.3907 46.2863 29.4024 46.31 29.4188C46.3336 29.4339 46.3573 29.4504 46.3816 29.4658C46.4515 29.5172 46.7614 29.7294 47.0013 29.8363C47.1223 29.8898 47.5069 30.0204 47.9552 30.0204C48.4018 30.0204 48.7196 29.9213 48.7953 29.9014C48.8707 29.8812 48.9444 29.8559 49.0161 29.8233C49.3654 29.6725 49.6481 29.4658 49.8624 29.2036C50.0738 28.9462 50.2493 28.6414 50.3912 28.2915C50.6024 27.8305 50.7227 27.3023 50.7227 26.7394C50.7227 25.8205 50.4005 24.9927 49.8857 24.4042ZM47.5168 28.806C46.6753 28.806 45.9939 27.9004 45.9939 26.7837C45.9939 25.6663 46.6753 24.7607 47.5168 24.7607C48.3573 24.7607 49.0387 25.6663 49.0387 26.7837C49.0387 27.9004 48.3573 28.806 47.5168 28.806Z" fill="#1B517E"/>
<path d="M42.2181 21.4273C42.0535 21.4297 41.9089 21.4671 41.7845 21.5394C41.6621 21.6141 41.5675 21.7139 41.5003 21.8362C41.4304 21.9606 41.3958 22.0978 41.3958 22.2499C41.3958 22.397 41.4304 22.529 41.4952 22.651C41.56 22.7733 41.6522 22.8707 41.7694 22.9451C41.889 23.0174 42.0285 23.0548 42.1883 23.0575C42.3675 23.0548 42.5197 23.0174 42.6445 22.9451C42.7689 22.8707 42.8635 22.7733 42.9283 22.651C42.9931 22.529 43.0256 22.397 43.0256 22.2499C43.0256 22.0978 42.9907 21.9606 42.9259 21.8362C42.8611 21.7139 42.7665 21.6141 42.6465 21.5394C42.5269 21.4671 42.3826 21.4297 42.2181 21.4273Z" fill="#1B517E"/>
<defs>
<linearGradient id="paint0_linear_301_6221" x1="19.5573" y1="8.20787" x2="35.7565" y2="7.64218" gradientUnits="userSpaceOnUse">
<stop stop-color="#3AA7DF"/>
<stop offset="0.12" stop-color="#227AAB"/>
<stop offset="0.42" stop-color="#1B517E"/>
<stop offset="0.57" stop-color="#8B8666"/>
<stop offset="1" stop-color="#EFC900"/>
</linearGradient>
</defs>
</svg>
