<svg width="46" height="32" viewBox="0 0 46 32" fill="none" xmlns="http://www.w3.org/2000/svg">
<path d="M9.00324 15.9919C9.00324 14.0504 9.00324 12.1091 9.00324 10.1679C9.0039 9.99536 8.9707 10.0002 9.17757 10.0002C10.1449 10.0002 11.1121 10.0002 12.0794 10.0002C12.2318 9.99909 12.2318 9.99777 12.2318 10.1468C12.2318 11.6743 12.2318 13.2017 12.2318 14.7291C12.2318 14.8021 12.2248 14.8758 12.2441 14.9477C12.2793 15.0782 12.354 15.1125 12.4751 15.051C12.5963 14.9894 12.6798 14.8861 12.7779 14.7988C13.3885 14.2518 14.1242 13.8632 14.9202 13.6671C15.8396 13.4367 16.7501 13.4633 17.6418 13.7906C18.4811 14.0984 19.1231 14.648 19.5603 15.4313C20.0358 16.2838 20.151 17.2054 20.0851 18.1613C20.0411 18.8111 19.8835 19.431 19.5781 20.0094C19.0793 20.9547 18.3112 21.5666 17.2828 21.8482C16.6272 22.0278 15.9607 22.0317 15.29 21.9445C14.6944 21.8671 14.1345 21.6905 13.617 21.383C13.1637 21.1135 12.7884 20.7593 12.4738 20.3385C12.3751 20.2066 12.276 20.0747 12.1493 19.9675C11.9489 19.7988 11.7862 19.812 11.6217 20.016C11.4652 20.2102 11.3456 20.4298 11.2102 20.6382C10.7925 21.2797 10.2429 21.7387 9.48337 21.9172C9.36685 21.9447 9.24814 21.9634 9.13009 21.9832C9.04413 21.9979 8.99686 21.9777 9.00016 21.8704C9.0083 21.6253 9.00324 21.3797 9.00324 21.1344C9.00339 19.4202 9.00339 17.706 9.00324 15.9919ZM14.9063 19.4113C15.4203 19.4097 15.813 19.3191 16.2177 19.1083C16.9834 18.7093 17.2773 17.7508 16.8691 16.9873C16.7015 16.6743 16.4311 16.478 16.1152 16.3467C15.3218 16.017 14.519 16.0249 13.719 16.3247C13.4433 16.4281 13.1938 16.5835 13.0109 16.8249C12.775 17.1364 12.7115 17.4954 12.7387 17.8735C12.7761 18.3954 13.0155 18.794 13.4752 19.0586C13.9204 19.3141 14.4001 19.413 14.9063 19.4113Z" fill="#33CDCF"/>
<path d="M36.1584 17.812V21.8333C36.1584 21.9962 36.1584 21.9977 35.9926 21.9751C35.1889 21.8651 34.5463 21.4842 34.0776 20.82C33.9259 20.605 33.7874 20.3804 33.6419 20.1605C33.5812 20.0691 33.5196 19.9789 33.4286 19.9121C33.3246 19.8358 33.2213 19.8332 33.1116 19.8971C32.9256 20.0057 32.8058 20.1783 32.6812 20.345C32.2035 20.9825 31.5954 21.4426 30.842 21.7117C30.0389 21.9986 29.2112 22.0364 28.3728 21.9735C28.0148 21.9496 27.6616 21.8779 27.3226 21.7605C26.7884 21.571 26.4226 21.2019 26.1795 20.6989C25.917 20.1535 25.8132 19.5689 25.744 18.9743C25.6584 18.2413 25.6595 17.5057 25.66 16.7697C25.66 15.7662 25.6589 14.7627 25.6567 13.7593C25.6567 13.6493 25.6875 13.6161 25.7989 13.6166C26.7882 13.6203 27.7775 13.6181 28.7667 13.6179C28.887 13.6179 28.8907 13.6232 28.8905 13.787C28.8905 14.3692 28.8901 14.9515 28.8892 15.5338C28.8892 16.1236 28.8837 16.7132 28.894 17.3026C28.9011 17.7018 28.938 18.0995 29.0479 18.4867C29.1798 18.9525 29.4216 19.3326 29.9152 19.4652C31.0093 19.7593 31.8522 19.483 32.4508 18.4469C32.7706 17.8935 32.9201 17.287 32.9278 16.6515C32.9388 15.7323 32.9318 14.8129 32.9316 13.8936C32.9316 13.6243 32.93 13.6238 33.2022 13.6238C34.1325 13.6238 35.0632 13.6238 35.9941 13.6238C36.1606 13.6238 36.161 13.6238 36.161 13.7909V17.812H36.1584Z" fill="#33CDCF"/>
<path d="M24.4082 16.0055C24.4082 17.9502 24.4082 19.8948 24.4082 21.8395C24.4082 21.9875 24.4082 21.9875 24.2603 21.9877C23.2787 21.9877 22.2969 21.9859 21.3144 21.9901C21.2045 21.9901 21.1735 21.964 21.1737 21.851C21.1774 17.9507 21.1785 14.0503 21.1772 10.1496C21.1772 10.005 21.1772 10.0048 21.3195 10.0048H24.2653C24.4091 10.0048 24.4093 10.0048 24.4093 10.149L24.4082 16.0055Z" fill="#33CDCF"/>
</svg>
