<svg width="58" height="40" viewBox="0 0 58 40" fill="none" xmlns="http://www.w3.org/2000/svg">
<path d="M11.0043 19.9892C11.0043 17.4006 11.0043 14.8121 11.0043 12.2239C11.0052 11.9938 10.9609 12.0003 11.2368 12.0003C12.5265 12.0003 13.8162 12.0003 15.1059 12.0003C15.309 11.9988 15.309 11.997 15.309 12.1958C15.309 14.2324 15.309 16.2689 15.309 18.3055C15.309 18.4028 15.2997 18.501 15.3255 18.5969C15.3724 18.771 15.472 18.8167 15.6335 18.7346C15.795 18.6526 15.9064 18.5148 16.0372 18.3984C16.8513 17.6691 17.8322 17.1509 18.8936 16.8895C20.1194 16.5823 21.3335 16.6177 22.5224 17.0542C23.6415 17.4646 24.4974 18.1974 25.0804 19.2417C25.7144 20.3785 25.868 21.6072 25.7801 22.8817C25.7215 23.7481 25.5113 24.5747 25.1042 25.3459C24.4391 26.6063 23.4149 27.4221 22.0437 27.7976C21.1696 28.037 20.2809 28.0423 19.3866 27.9259C18.5926 27.8228 17.846 27.5874 17.156 27.1773C16.5516 26.818 16.0512 26.3457 15.6318 25.7847C15.5002 25.6088 15.368 25.433 15.1991 25.2899C14.9318 25.0651 14.7149 25.0827 14.4956 25.3547C14.2869 25.6135 14.1275 25.9064 13.9469 26.1842C13.39 27.0396 12.6572 27.6516 11.6445 27.8896C11.4891 27.9262 11.3309 27.9512 11.1734 27.9775C11.0588 27.9972 10.9958 27.9702 11.0002 27.8272C11.0111 27.5003 11.0043 27.1729 11.0043 26.8458C11.0045 24.5603 11.0045 22.2747 11.0043 19.9892ZM18.8751 24.5483C19.5604 24.5463 20.0839 24.4255 20.6236 24.1444C21.6445 23.6124 22.0364 22.3344 21.4921 21.3164C21.2687 20.899 20.9082 20.6373 20.487 20.4623C19.4291 20.0226 18.3586 20.0332 17.292 20.433C16.9244 20.5707 16.5917 20.778 16.3479 21.0998C16.0333 21.5152 15.9486 21.9938 15.985 22.498C16.0348 23.1938 16.354 23.7253 16.9669 24.0782C17.5605 24.4188 18.2001 24.5507 18.8751 24.5483Z" fill="#33CDCF"/>
<path d="M47.2111 22.4159V27.7776C47.2111 27.9948 47.2111 27.9969 46.9901 27.9667C45.9185 27.8201 45.0617 27.3121 44.4368 26.4266C44.2345 26.14 44.0499 25.8404 43.8558 25.5473C43.7749 25.4253 43.6928 25.3052 43.5715 25.216C43.4328 25.1143 43.2951 25.1108 43.1488 25.1961C42.9008 25.3409 42.7411 25.571 42.5749 25.7932C41.9379 26.6432 41.1272 27.2567 40.1227 27.6155C39.0519 27.998 37.9483 28.0484 36.8304 27.9646C36.3531 27.9327 35.8822 27.8371 35.4301 27.6806C34.7179 27.4279 34.2301 26.9358 33.9059 26.2651C33.5559 25.5379 33.4176 24.7585 33.3253 23.9656C33.2112 22.9883 33.2127 22.0076 33.2133 21.0262C33.2133 19.6882 33.2118 18.3502 33.2089 17.0123C33.2089 16.8657 33.2499 16.8214 33.3985 16.822C34.7176 16.827 36.0366 16.8241 37.3556 16.8238C37.516 16.8238 37.521 16.8308 37.5207 17.0492C37.5207 17.8256 37.5201 18.6019 37.5189 19.3783C37.5189 20.1647 37.5116 20.9509 37.5253 21.7367C37.5347 22.269 37.584 22.7993 37.7305 23.3155C37.9064 23.9366 38.2288 24.4434 38.8869 24.6201C40.3457 25.0123 41.4695 24.6439 42.2677 23.2624C42.6942 22.5246 42.8935 21.7159 42.9038 20.8685C42.9184 19.643 42.909 18.4172 42.9087 17.1914C42.9087 16.8323 42.9067 16.8317 43.2696 16.8317C44.5101 16.8317 45.7509 16.8317 46.9922 16.8317C47.2141 16.8317 47.2146 16.8317 47.2146 17.0545V22.4159H47.2111Z" fill="#33CDCF"/>
<path d="M31.5443 20.0074C31.5443 22.6003 31.5443 25.1932 31.5443 27.7862C31.5443 27.9834 31.5443 27.9834 31.347 27.9837C30.0382 27.9837 28.7291 27.9814 27.4192 27.987C27.2726 27.987 27.2313 27.9521 27.2316 27.8014C27.2365 22.6011 27.238 17.4005 27.2363 12.1996C27.2363 12.0068 27.2363 12.0065 27.4259 12.0065H31.3537C31.5454 12.0065 31.5457 12.0065 31.5457 12.1988L31.5443 20.0074Z" fill="#33CDCF"/>
</svg>
