<svg width="28" height="20" viewBox="0 0 28 20" fill="none" xmlns="http://www.w3.org/2000/svg">
<path d="M7.00162 9.99595C7.00162 9.02521 7.00162 8.05455 7.00162 7.08396C7.00195 6.99768 6.98535 7.0001 7.08879 7.0001C7.57243 7.0001 8.05607 7.0001 8.53972 7.0001C8.61589 6.99955 8.61589 6.99889 8.61589 7.07341C8.61589 7.83713 8.61589 8.60085 8.61589 9.36457C8.61589 9.40106 8.61238 9.43789 8.62205 9.47383C8.63964 9.53912 8.67701 9.55627 8.73757 9.52549C8.79814 9.49471 8.83991 9.44305 8.88893 9.39941C9.19425 9.12591 9.56208 8.93159 9.96009 8.83355C10.4198 8.71835 10.8751 8.73165 11.3209 8.89532C11.7406 9.04921 12.0615 9.32401 12.2802 9.71565C12.5179 10.1419 12.5755 10.6027 12.5425 11.0806C12.5206 11.4056 12.4417 11.7155 12.2891 12.0047C12.0397 12.4774 11.6556 12.7833 11.1414 12.9241C10.8136 13.0139 10.4803 13.0159 10.145 12.9722C9.84721 12.9335 9.56724 12.8453 9.30849 12.6915C9.08184 12.5567 8.89421 12.3797 8.73691 12.1693C8.68756 12.1033 8.63799 12.0374 8.57467 11.9837C8.47443 11.8994 8.39309 11.906 8.31087 12.008C8.2326 12.1051 8.17281 12.2149 8.1051 12.3191C7.89625 12.6398 7.62145 12.8693 7.24168 12.9586C7.18343 12.9723 7.12407 12.9817 7.06504 12.9916C7.02206 12.9989 6.99843 12.9888 7.00008 12.9352C7.00415 12.8126 7.00162 12.6898 7.00162 12.5672C7.00169 11.7101 7.00169 10.853 7.00162 9.99595ZM9.95317 11.7056C10.2102 11.7049 10.4065 11.6596 10.6088 11.5542C10.9917 11.3547 11.1386 10.8754 10.9345 10.4937C10.8508 10.3371 10.7156 10.239 10.5576 10.1734C10.1609 10.0085 9.75949 10.0124 9.3595 10.1624C9.22166 10.214 9.0969 10.2917 9.00545 10.4124C8.8875 10.5682 8.85574 10.7477 8.86937 10.9367C8.88805 11.1977 9.00775 11.397 9.2376 11.5293C9.46018 11.657 9.70003 11.7065 9.95317 11.7056Z" fill="#33CDCF"/>
<path d="M20.5792 10.9059V12.9166C20.5792 12.998 20.5792 12.9988 20.4963 12.9875C20.0944 12.9325 19.7731 12.742 19.5388 12.41C19.4629 12.3025 19.3937 12.1901 19.3209 12.0802C19.2906 12.0345 19.2598 11.9894 19.2143 11.956C19.1623 11.9178 19.1107 11.9165 19.0558 11.9485C18.9628 12.0028 18.9029 12.0891 18.8406 12.1724C18.6017 12.4912 18.2977 12.7212 17.921 12.8558C17.5195 12.9992 17.1056 13.0181 16.6864 12.9867C16.5074 12.9747 16.3308 12.9389 16.1613 12.8802C15.8942 12.7854 15.7113 12.6009 15.5897 12.3494C15.4585 12.0767 15.4066 11.7844 15.372 11.4871C15.3292 11.1206 15.3298 10.7528 15.33 10.3848C15.33 9.88306 15.3294 9.38131 15.3283 8.87957C15.3283 8.82461 15.3437 8.80801 15.3995 8.80823C15.8941 8.8101 16.3887 8.809 16.8834 8.80889C16.9435 8.80889 16.9454 8.81153 16.9453 8.89342C16.9453 9.18456 16.945 9.4757 16.9446 9.76684C16.9446 10.0617 16.9418 10.3566 16.947 10.6512C16.9505 10.8509 16.969 11.0497 17.024 11.2433C17.0899 11.4762 17.2108 11.6662 17.4576 11.7325C18.0047 11.8796 18.4261 11.7414 18.7254 11.2234C18.8853 10.9467 18.9601 10.6434 18.9639 10.3257C18.9694 9.86609 18.9659 9.40641 18.9658 8.94673C18.9658 8.81208 18.965 8.81186 19.1011 8.81186C19.5663 8.81186 20.0316 8.81186 20.4971 8.81186C20.5803 8.81186 20.5805 8.81186 20.5805 8.8954V10.9059H20.5792Z" fill="#33CDCF"/>
<path d="M14.7041 10.0028C14.7041 10.9751 14.7041 11.9475 14.7041 12.9198C14.7041 12.9938 14.7041 12.9938 14.6301 12.9939C14.1393 12.9939 13.6484 12.993 13.1572 12.9951C13.1022 12.9951 13.0867 12.982 13.0869 12.9255C13.0887 10.9754 13.0893 9.02521 13.0886 7.07488C13.0886 7.00255 13.0886 7.00244 13.1597 7.00244H14.6327C14.7045 7.00244 14.7047 7.00244 14.7047 7.07455L14.7041 10.0028Z" fill="#33CDCF"/>
</svg>
