<svg width="34" height="24" viewBox="0 0 34 24" fill="none" xmlns="http://www.w3.org/2000/svg">
<path d="M8.00216 11.9946C8.00216 10.7003 8.00216 9.40607 8.00216 8.11195C8.0026 7.9969 7.98047 8.00013 8.11838 8.00013C8.76324 8.00013 9.4081 8.00013 10.053 8.00013C10.1545 7.9994 10.1545 7.99852 10.1545 8.09788C10.1545 9.11618 10.1545 10.1345 10.1545 11.1528C10.1545 11.2014 10.1498 11.2505 10.1627 11.2984C10.1862 11.3855 10.236 11.4084 10.3168 11.3673C10.3975 11.3263 10.4532 11.2574 10.5186 11.1992C10.9257 10.8345 11.4161 10.5755 11.9468 10.4447C12.5597 10.2911 13.1667 10.3089 13.7612 10.5271C14.3208 10.7323 14.7487 11.0987 15.0402 11.6209C15.3572 12.1892 15.434 12.8036 15.39 13.4408C15.3607 13.8741 15.2557 14.2874 15.0521 14.673C14.7195 15.3032 14.2075 15.711 13.5219 15.8988C13.0848 16.0185 12.6405 16.0212 12.1933 15.963C11.7963 15.9114 11.423 15.7937 11.078 15.5887C10.7758 15.409 10.5256 15.1729 10.3159 14.8924C10.2501 14.8044 10.184 14.7165 10.0996 14.645C9.9659 14.5326 9.85745 14.5414 9.74782 14.6774C9.64347 14.8068 9.56374 14.9532 9.47346 15.0921C9.195 15.5198 8.82861 15.8258 8.32224 15.9448C8.24457 15.9631 8.16543 15.9756 8.08672 15.9888C8.02942 15.9986 7.99791 15.9851 8.00011 15.9136C8.00553 15.7502 8.00216 15.5865 8.00216 15.4229C8.00226 14.2801 8.00226 13.1374 8.00216 11.9946ZM11.9376 14.2742C12.2802 14.2731 12.542 14.2128 12.8118 14.0722C13.3222 13.8062 13.5182 13.1672 13.246 12.6582C13.1344 12.4495 12.9541 12.3186 12.7435 12.2311C12.2146 12.0113 11.6793 12.0166 11.146 12.2165C10.9622 12.2854 10.7959 12.389 10.6739 12.5499C10.5167 12.7576 10.4743 12.9969 10.4925 13.249C10.5174 13.5969 10.677 13.8626 10.9835 14.0391C11.2802 14.2094 11.6 14.2753 11.9376 14.2742Z" fill="#33CDCF"/>
<path d="M26.1056 13.2079V15.8888C26.1056 15.9974 26.1055 15.9984 25.995 15.9833C25.4592 15.9101 25.0308 15.6561 24.7184 15.2133C24.6172 15.07 24.5249 14.9202 24.4279 14.7736C24.3874 14.7127 24.3464 14.6526 24.2857 14.608C24.2164 14.5572 24.1475 14.5554 24.0744 14.5981C23.9504 14.6705 23.8705 14.7855 23.7874 14.8966C23.469 15.3216 23.0636 15.6284 22.5613 15.8078C22.0259 15.999 21.4741 16.0242 20.9152 15.9823C20.6765 15.9663 20.4411 15.9186 20.2151 15.8403C19.8589 15.714 19.615 15.4679 19.4529 15.1326C19.278 14.7689 19.2088 14.3792 19.1626 13.9828C19.1056 13.4942 19.1063 13.0038 19.1066 12.5131C19.1066 11.8441 19.1059 11.1751 19.1044 10.5061C19.1044 10.4329 19.1249 10.4107 19.1993 10.411C19.8588 10.4135 20.5183 10.412 21.1778 10.4119C21.258 10.4119 21.2605 10.4154 21.2603 10.5246C21.2603 10.9128 21.26 11.301 21.2594 11.6892C21.2594 12.0824 21.2558 12.4754 21.2627 12.8684C21.2673 13.1345 21.292 13.3996 21.3652 13.6577C21.4532 13.9683 21.6144 14.2217 21.9434 14.3101C22.6728 14.5062 23.2348 14.3219 23.6338 13.6312C23.8471 13.2623 23.9467 12.858 23.9519 12.4343C23.9592 11.8215 23.9545 11.2086 23.9544 10.5957C23.9544 10.4161 23.9533 10.4159 24.1348 10.4159C24.755 10.4159 25.3754 10.4159 25.9961 10.4159C26.107 10.4159 26.1073 10.4158 26.1073 10.5272V13.2079H26.1056Z" fill="#33CDCF"/>
<path d="M18.2721 12.0036C18.2721 13.3001 18.2721 14.5966 18.2721 15.893C18.2721 15.9917 18.2721 15.9917 18.1735 15.9918C17.5191 15.9918 16.8646 15.9906 16.2096 15.9934C16.1363 15.9934 16.1156 15.976 16.1158 15.9006C16.1182 13.3005 16.119 10.7002 16.1181 8.09976C16.1181 8.00332 16.1181 8.00317 16.213 8.00317H18.1769C18.2727 8.00317 18.2728 8.00317 18.2728 8.09932L18.2721 12.0036Z" fill="#33CDCF"/>
</svg>
