<svg width="28" height="20" viewBox="0 0 28 20" fill="none" xmlns="http://www.w3.org/2000/svg">
<path d="M4.24151 4.0126C5.38248 3.99997 6.52447 4.01055 7.66577 4.00714C8.20792 4.01192 8.75109 3.99758 9.29289 4.01397C9.60596 4.06313 9.91663 4.19389 10.13 4.43492C10.3408 4.67365 10.466 4.97573 10.4861 5.29354C10.5001 5.51272 10.4806 5.73258 10.4779 5.95211C10.4355 5.67604 10.3233 5.41538 10.1519 5.19488C9.80363 4.76232 9.30177 4.46564 8.76406 4.33625C8.1253 4.17579 7.46127 4.23895 6.80988 4.22837C6.75969 4.22291 6.68151 4.23895 6.69517 4.30723C6.69517 5.52604 6.69517 6.74552 6.69517 7.96433C6.6798 8.03841 6.76891 8.01451 6.81056 8.02066C7.58076 8.00666 8.38442 8.10089 9.11741 7.80626C9.57762 7.61985 10.0115 7.31839 10.2707 6.88686C10.3747 6.70537 10.4459 6.50693 10.481 6.30068C10.4957 6.86365 10.4776 7.4273 10.4878 7.99027C10.3874 8.02441 10.2877 8.06401 10.1904 8.10669C10.2884 8.1282 10.3867 8.14766 10.4854 8.16575C10.4779 8.42761 10.4817 8.69015 10.4837 8.95098C10.1478 8.71643 9.78792 8.50988 9.39122 8.39927C8.87911 8.24154 8.33629 8.24018 7.80438 8.24257C7.43601 8.2453 7.06764 8.23847 6.69961 8.2494C6.69517 9.5614 6.69961 10.8737 6.69756 12.1861C6.67878 12.2592 6.76208 12.2544 6.81022 12.2544C7.28818 12.2544 7.76614 12.2544 8.24411 12.2544C9.01909 12.2499 9.81968 12.0512 10.4376 11.5661C10.6506 11.4132 10.8257 11.2136 10.9497 10.9827C11.2136 10.5436 11.23 9.95504 10.9497 9.51941C10.9197 9.11963 10.9497 8.71712 10.9381 8.31631C11.4502 8.51432 11.9203 8.8547 12.2143 9.32481C12.3582 9.54744 12.4499 9.79976 12.4825 10.0629C12.5151 10.326 12.4877 10.593 12.4024 10.844C12.2187 11.3828 11.7766 11.7931 11.2918 12.0676C10.9309 12.2479 10.5462 12.3872 10.144 12.4374C9.93405 12.4585 9.72442 12.4893 9.51276 12.4852C7.73747 12.482 5.96218 12.4813 4.18689 12.4831C4.49825 12.4118 4.81029 12.2827 5.02162 12.0331C5.24298 11.7736 5.36196 11.4422 5.35619 11.1011C5.35619 9.45101 5.35619 7.80091 5.35619 6.1508C5.35619 5.84354 5.36814 5.53389 5.34663 5.22663C5.32796 5.00317 5.25302 4.78809 5.12879 4.60141C5.00456 4.41474 4.83509 4.26256 4.63617 4.15906C4.51395 4.08669 4.37193 4.06415 4.24151 4.0126Z" fill="#020202"/>
<path d="M18.1885 4.48445C19.5964 3.84296 21.2819 3.84091 22.6765 4.51586C22.7421 4.54249 22.8288 4.60087 22.8906 4.53327C23.0729 4.35984 23.2494 4.17889 23.4252 4C23.4143 4.91325 23.4297 5.82718 23.4174 6.74043C23.3901 6.69352 23.3681 6.64371 23.3518 6.59192C23.1436 6.01154 22.8117 5.46939 22.3594 5.04674C21.9838 4.691 21.5219 4.4148 21.0136 4.30077C20.4036 4.15849 19.763 4.23548 19.2041 4.51825C18.6486 4.80577 18.184 5.24204 17.8621 5.77836C17.6395 6.12438 17.4734 6.50365 17.3701 6.90191C17.1458 7.61339 17.1311 8.38052 17.251 9.11317C17.2759 9.28865 17.3353 9.45696 17.3602 9.63244L17.3882 9.656C17.3982 9.77932 17.4014 9.90309 17.3978 10.0268L17.3537 10.0083L17.3647 9.99808C16.7843 9.38356 16.1841 8.78338 15.6085 8.16237C15.6368 7.48161 15.8287 6.80461 16.193 6.22696C16.4948 5.73883 16.8891 5.31438 17.3537 4.97743C17.619 4.7921 17.8981 4.62729 18.1885 4.48445Z" fill="#020202"/>
<path d="M10.9354 5.57422C11.228 5.86304 11.5226 6.15016 11.8056 6.44889C11.6994 6.84969 11.5113 7.25733 11.1757 7.51406C11.101 7.56937 10.9685 7.67998 10.9268 7.70559C10.9408 6.99547 10.9248 6.28468 10.9354 5.57422Z" fill="#020202"/>
<path d="M23.3354 9.94041C23.3562 9.88988 23.3696 9.83253 23.4153 9.79736C23.4249 10.6888 23.4177 11.5805 23.4191 12.4719C23.2303 12.3087 23.0647 12.1203 22.8844 11.9479C22.8405 11.901 22.795 11.901 22.7479 11.9479C22.1968 12.1998 21.6134 12.39 21.0067 12.4501C19.9945 12.56 18.9467 12.3927 18.0365 11.9298C17.973 11.8919 17.8918 11.8758 17.8464 11.8144C17.844 11.4446 17.8396 11.0745 17.8464 10.7048C18.1816 11.2258 18.6316 11.6843 19.1881 11.9659C19.6975 12.2227 20.2745 12.3133 20.8381 12.2251C21.4608 12.1254 22.0203 11.7874 22.4594 11.3484C22.8454 10.9445 23.1437 10.4652 23.3354 9.94041Z" fill="#020202"/>
<path d="M0.00644198 14.2642C0.0798433 14.2724 0.220842 14.2246 0.223573 14.3407C0.234157 14.5797 0.223573 14.8187 0.228012 15.0577C0.425 14.9211 0.67832 14.9047 0.906035 14.958C1.15765 15.0263 1.34986 15.2762 1.33996 15.5384C1.33996 15.8115 1.342 16.0846 1.33996 16.3577C1.33625 16.4847 1.29248 16.6072 1.21491 16.7078C1.13734 16.8083 1.02994 16.8818 0.908083 16.9176C0.649301 16.9825 0.334187 16.9518 0.151538 16.7363C0.050321 16.6237 -0.0028518 16.4759 0.00336936 16.3246C0.00371077 15.638 -0.00618988 14.9508 0.00644198 14.2642ZM0.584776 15.1601C0.488119 15.1646 0.397095 15.2069 0.331274 15.2778C0.265454 15.3487 0.230092 15.4427 0.232791 15.5394C0.232791 15.8009 0.223573 16.0624 0.228012 16.3246C0.224256 16.4612 0.293219 16.6049 0.418855 16.6677C0.525031 16.7316 0.653739 16.7203 0.772206 16.7131C0.862956 16.7063 0.948067 16.6665 1.01147 16.6012C1.07487 16.5359 1.11217 16.4497 1.11634 16.3587C1.12487 16.0966 1.11975 15.8344 1.11873 15.5735C1.12255 15.5138 1.11294 15.454 1.0906 15.3984C1.06827 15.3429 1.03379 15.2931 0.989678 15.2526C0.881113 15.1522 0.723044 15.1492 0.584776 15.1601Z" fill="#020202"/>
<path d="M5.02537 14.2656C5.09565 14.2598 5.16639 14.2644 5.23533 14.2792C5.25411 14.4499 5.24352 14.6206 5.24591 14.7889C5.24591 15.4837 5.24796 16.1784 5.24591 16.8715C5.24352 16.9852 5.08512 16.9483 5.01957 16.9121C5.02605 16.0309 5.01171 15.1477 5.02537 14.2656Z" fill="#020202"/>
<path d="M2.18697 14.9491C2.34299 14.9229 2.51061 14.9174 2.65981 14.9785C2.85919 15.0546 3.01145 15.2516 3.01282 15.4694C3.01862 15.9594 3.01282 16.4496 3.01282 16.9399C2.90698 16.9819 2.86397 16.8815 2.82948 16.8033C2.69019 16.8866 2.53724 16.96 2.37064 16.9539C2.17809 16.9474 1.9671 16.9057 1.82986 16.7589C1.67999 16.5985 1.64072 16.3591 1.69057 16.1502C1.72081 16.0356 1.78558 15.933 1.87609 15.8564C1.96659 15.7798 2.07846 15.7329 2.19653 15.7221C2.39317 15.706 2.59016 15.7221 2.78681 15.7132C2.78681 15.5657 2.81241 15.3943 2.70385 15.2755C2.57719 15.1338 2.35562 15.1345 2.18492 15.1844C2.05075 15.2264 1.98008 15.3551 1.95857 15.4875C1.88551 15.4906 1.81279 15.4906 1.73973 15.4875C1.74305 15.3606 1.78897 15.2385 1.87009 15.1409C1.95121 15.0432 2.06282 14.9757 2.18697 14.9491ZM2.03129 16.0174C1.80938 16.199 1.87322 16.6319 2.16375 16.705C2.35972 16.7313 2.62055 16.7507 2.73526 16.5503C2.83017 16.3636 2.77213 16.1423 2.78476 15.9409C2.61406 15.9368 2.44336 15.9361 2.27266 15.9389C2.18544 15.9356 2.0999 15.9634 2.03129 16.0174Z" fill="#020202"/>
<path d="M3.34569 14.9334C3.38461 14.9317 3.42353 14.9307 3.46245 14.93C3.48498 14.9812 3.50752 15.0324 3.53073 15.0836C3.6748 14.9897 3.8339 14.9037 4.01211 14.9129C4.34156 14.9044 4.67921 15.1587 4.68501 15.5039C4.68672 15.9784 4.68945 16.4533 4.68501 16.9279C4.61502 16.9279 4.5406 16.946 4.47437 16.9156C4.44671 16.4461 4.47642 15.9743 4.45866 15.5042C4.45579 15.4356 4.43329 15.3692 4.39384 15.3129C4.35439 15.2566 4.29964 15.2128 4.23607 15.1867C4.1192 15.1483 3.99465 15.1394 3.8735 15.1608C3.79253 15.1761 3.71921 15.2186 3.66564 15.2812C3.61208 15.3439 3.58147 15.4229 3.57887 15.5052C3.56931 15.9723 3.58194 16.4397 3.57375 16.905C3.53039 16.9873 3.41568 16.9391 3.34672 16.9193C3.33716 16.258 3.34979 15.5957 3.34569 14.9334Z" fill="#020202"/>
<path d="M6.03797 15.0054C6.10079 14.8849 6.25305 14.9487 6.36025 14.9344C6.15234 15.2099 5.95467 15.4933 5.74266 15.7661C5.69281 15.8309 5.58937 15.9135 5.65867 16.0009C5.89765 16.3082 6.12912 16.6223 6.35308 16.9405C6.25373 16.9313 6.11035 16.9883 6.04582 16.8835C5.81811 16.5684 5.58664 16.2567 5.35687 15.9433C5.57503 15.6244 5.81367 15.3199 6.03797 15.0054Z" fill="#020202"/>
<path d="M7.70025 14.9249C7.81121 14.8976 7.85081 15.0003 7.89178 15.0799C8.08501 14.9286 8.35062 14.8682 8.58619 14.9488C8.84224 15.0232 9.04435 15.2663 9.03615 15.5394C9.03172 16.0034 9.04776 16.4683 9.03001 16.932C8.96173 16.92 8.83131 16.9736 8.81493 16.8763C8.80434 16.4325 8.81493 15.9859 8.80946 15.5411C8.80707 15.4216 8.7603 15.297 8.65891 15.2273C8.53737 15.1444 8.38135 15.1437 8.24069 15.1591C8.15081 15.1731 8.06916 15.2195 8.01112 15.2896C7.95308 15.3596 7.92265 15.4485 7.92558 15.5394C7.92558 16.002 7.92558 16.4646 7.92558 16.9272C7.85374 16.951 7.77639 16.9525 7.70366 16.9316C7.68011 16.7295 7.69684 16.5257 7.69172 16.3229C7.69547 15.8569 7.68898 15.3909 7.70025 14.9249Z" fill="#020202"/>
<path d="M9.44756 15.2383C9.55851 15.0362 9.78896 14.9239 10.0174 14.931C10.2475 14.9126 10.4922 15.0096 10.6134 15.213C10.7422 15.3991 10.7036 15.634 10.7097 15.8467C10.7138 15.8948 10.7073 15.9703 10.6377 15.9539C10.2963 15.9559 9.95488 15.9488 9.61348 15.9573L9.5947 15.971C9.60324 16.1758 9.54076 16.4148 9.68449 16.5855C9.80842 16.733 10.0218 16.7292 10.1966 16.7057C10.3929 16.6626 10.4987 16.4585 10.4905 16.2693C10.5588 16.2693 10.6251 16.2693 10.6927 16.2693C10.7418 16.4308 10.6626 16.606 10.5616 16.7323C10.3997 16.9279 10.1222 16.9733 9.88318 16.9351C9.61553 16.8975 9.38405 16.662 9.37108 16.3888C9.35947 16.1737 9.36698 15.958 9.36528 15.7426C9.36801 15.5736 9.35435 15.3892 9.44756 15.2383ZM9.71009 15.2656C9.57353 15.3803 9.59538 15.5688 9.59368 15.7275C9.88797 15.7316 10.1833 15.7405 10.4772 15.7221C10.4902 15.5838 10.5004 15.4295 10.4113 15.3124C10.2475 15.1045 9.90469 15.1017 9.71009 15.2663V15.2656Z" fill="#020202"/>
<path d="M13.8332 15.1829C13.9995 14.9367 14.332 14.8944 14.602 14.9521C14.743 14.988 14.8661 15.0736 14.9488 15.1932C15.0316 15.3128 15.0682 15.4583 15.052 15.6028C14.982 15.6028 14.912 15.6028 14.842 15.6028C14.842 15.4294 14.7608 15.2379 14.5832 15.1832C14.4074 15.1392 14.1896 15.1327 14.0513 15.2686C13.9592 15.3556 13.939 15.4881 13.9407 15.61C13.9407 15.8599 13.9349 16.1098 13.9445 16.3611C13.9484 16.4487 13.9834 16.532 14.0431 16.5963C14.1028 16.6605 14.1834 16.7014 14.2705 16.7117C14.4156 16.7243 14.5815 16.7352 14.698 16.6297C14.8072 16.5458 14.8318 16.4034 14.8448 16.2747C14.9154 16.2747 14.9861 16.2747 15.0575 16.2747C15.068 16.4008 15.0405 16.5272 14.9786 16.6376C14.7396 17.0514 14.0401 17.0548 13.8008 16.641C13.6789 16.4423 13.727 16.2013 13.7185 15.9811C13.7335 15.7158 13.6608 15.4147 13.8332 15.1829Z" fill="#020202"/>
<path d="M15.8751 14.9467C16.0496 14.9224 16.2394 14.9156 16.4009 14.9986C16.5001 15.0493 16.5834 15.1264 16.6418 15.2214C16.7001 15.3163 16.7312 15.4255 16.7317 15.537C16.7344 15.7759 16.729 16.0149 16.7344 16.2539C16.7406 16.4441 16.6877 16.6455 16.5433 16.7776C16.3695 16.9483 16.1028 16.9729 15.8738 16.9312C15.6088 16.8811 15.3934 16.6332 15.3958 16.3614C15.3931 16.0764 15.391 15.7916 15.3958 15.5079C15.3934 15.2362 15.6123 14.9931 15.8751 14.9467ZM15.9475 15.1607C15.8558 15.1736 15.7717 15.2189 15.7104 15.2883C15.649 15.3577 15.6145 15.4467 15.6129 15.5393C15.6187 15.8125 15.6065 16.0835 15.616 16.3553C15.6191 16.4247 15.6414 16.4919 15.6804 16.5494C15.7194 16.6069 15.7736 16.6524 15.8369 16.681C15.9393 16.7243 16.0544 16.7175 16.164 16.7127C16.3299 16.7008 16.4931 16.5663 16.4961 16.3922C16.5231 16.0671 16.5204 15.7403 16.4879 15.4158C16.4268 15.1884 16.1524 15.1256 15.9465 15.1607H15.9475Z" fill="#020202"/>
<path d="M17.0649 14.9323C17.1595 14.9098 17.211 14.974 17.2465 15.0514C17.436 14.9446 17.662 14.891 17.875 14.9569C17.9932 14.9808 18.0826 15.0641 18.1789 15.1303C18.4131 14.8995 18.8118 14.8572 19.0822 15.0494C19.1469 15.0989 19.1996 15.1624 19.2362 15.2351C19.2729 15.3078 19.2926 15.3879 19.2939 15.4693C19.2939 15.9562 19.2939 16.4433 19.2956 16.9305C19.2247 16.9521 19.1489 16.9513 19.0785 16.9281C19.0658 16.4536 19.0785 15.9784 19.0717 15.5038C19.074 15.3642 18.9972 15.2153 18.8562 15.1754C18.6913 15.1283 18.4762 15.132 18.3622 15.2798C18.312 15.3434 18.2882 15.4239 18.296 15.5045C18.296 15.9599 18.296 16.4153 18.2977 16.8701C18.3035 16.9831 18.1505 16.9524 18.0836 16.9274C18.0601 16.8773 18.0679 16.8199 18.0649 16.767C18.0649 16.3338 18.0672 15.9002 18.0649 15.4669C18.0635 15.3943 18.0372 15.3242 17.9904 15.2686C17.9436 15.213 17.8792 15.1751 17.8078 15.1614C17.6634 15.1358 17.4899 15.1375 17.3814 15.2512C17.3066 15.3259 17.2878 15.4348 17.2892 15.5366C17.2892 15.9579 17.2892 16.3795 17.2916 16.7998C17.291 16.8513 17.2846 16.9026 17.2725 16.9527C17.2037 16.9484 17.1352 16.9396 17.0676 16.9261C17.0482 16.2627 17.07 15.5974 17.0649 14.9323Z" fill="#020202"/>
<path d="M19.6274 14.9348C19.6647 14.9348 19.7019 14.9348 19.7394 14.9382C19.7623 14.9781 19.7829 15.0193 19.8012 15.0615C19.9306 15.0126 20.0518 14.9314 20.1952 14.9297C20.4 14.9095 20.5974 15.0106 20.7435 15.1492C20.8183 15.0632 20.9147 14.9986 21.0226 14.962C21.1306 14.9253 21.2463 14.918 21.358 14.9406C21.6281 14.957 21.8612 15.1984 21.8565 15.4708C21.8592 15.9615 21.8592 16.452 21.8565 16.9422C21.784 16.9569 21.7089 16.9513 21.6393 16.9262C21.6329 16.4865 21.6281 16.0461 21.6393 15.6063C21.6475 15.4619 21.611 15.2929 21.4792 15.2127C21.272 15.0922 20.9214 15.1536 20.8664 15.4175C20.8504 15.9262 20.8732 16.437 20.8555 16.9463C20.778 16.9508 20.6981 16.9556 20.6291 16.9156C20.6267 16.4441 20.6291 15.973 20.6291 15.5019C20.6373 15.3476 20.5267 15.1926 20.3693 15.1704C20.213 15.1362 20.0173 15.1509 19.9193 15.295C19.8391 15.393 19.8613 15.5254 19.8555 15.6425C19.8555 16.0297 19.8535 16.4172 19.8593 16.8033C19.8517 16.8494 19.8688 16.9177 19.8217 16.9463C19.7561 16.9534 19.6898 16.9458 19.6274 16.9242C19.6186 16.2612 19.6326 15.5981 19.6274 14.9348Z" fill="#020202"/>
<path d="M22.5041 15.0092C22.6625 14.9221 22.8516 14.9225 23.0264 14.9409C23.1566 14.9624 23.2761 15.0258 23.3668 15.1215C23.4576 15.2172 23.5145 15.34 23.529 15.4711C23.5389 15.6302 23.5324 15.79 23.5321 15.9491C23.1627 15.9641 22.7926 15.9491 22.4228 15.9573C22.4208 16.1204 22.4044 16.286 22.4334 16.4478C22.4561 16.5246 22.5027 16.5921 22.5665 16.6405C22.6302 16.6889 22.7078 16.7156 22.7878 16.7169C22.9244 16.7244 23.0807 16.7193 23.1876 16.6189C23.29 16.5325 23.2989 16.3922 23.3197 16.2703C23.388 16.2703 23.4563 16.2703 23.5245 16.2703C23.5414 16.4057 23.5112 16.5429 23.4389 16.6586C23.3667 16.7744 23.2569 16.8619 23.1278 16.9063C22.9514 16.9626 22.7617 16.9614 22.586 16.9029C22.4728 16.8629 22.3746 16.789 22.3048 16.6913C22.2349 16.5936 22.1968 16.4768 22.1955 16.3567C22.19 16.0726 22.19 15.7881 22.1955 15.5032C22.1992 15.401 22.2296 15.3016 22.2838 15.2149C22.3379 15.1282 22.4139 15.0573 22.5041 15.0092ZM22.5079 15.2925C22.3989 15.411 22.417 15.581 22.4211 15.7295C22.7052 15.7278 22.9906 15.7425 23.2746 15.723C23.3368 15.6677 23.3088 15.5769 23.3067 15.5049C23.2917 15.3502 23.1849 15.2038 23.0282 15.171C22.8506 15.1379 22.6321 15.1406 22.5079 15.2925Z" fill="#020202"/>
<path d="M23.8639 14.9372C23.9002 14.9351 23.9365 14.9351 23.9728 14.9372C24.0097 14.9778 24.0312 15.1004 24.1025 15.0352C24.262 14.9242 24.4627 14.9228 24.6488 14.9389C24.6488 15.0072 24.6488 15.0755 24.6488 15.1437C24.5437 15.1594 24.4361 15.1502 24.3323 15.1721C24.2665 15.19 24.208 15.2284 24.1655 15.2818C24.1229 15.3351 24.0983 15.4006 24.0954 15.4687C24.0892 15.9467 24.0995 16.4247 24.0916 16.9026C24.0479 16.9873 23.9322 16.9368 23.8622 16.9187C23.8581 16.2591 23.8676 15.5981 23.8639 14.9372Z" fill="#020202"/>
<path d="M25.1428 15.1273C25.32 14.9242 25.618 14.902 25.8662 14.9532C26.0066 14.9893 26.1294 15.0747 26.2121 15.1938C26.2948 15.3129 26.3318 15.4577 26.3165 15.6019C26.2401 15.6077 26.1615 15.6193 26.0898 15.5862C26.1 15.518 26.0907 15.4484 26.0631 15.3852C26.0356 15.3221 25.9907 15.2679 25.9338 15.2291C25.8259 15.1519 25.6856 15.1533 25.5583 15.1608C25.3797 15.1731 25.2104 15.3199 25.2097 15.5056C25.2005 15.7787 25.2032 16.0519 25.2066 16.327C25.2046 16.4438 25.2449 16.566 25.3432 16.6367C25.4456 16.7251 25.5917 16.7234 25.7215 16.7186C25.7853 16.7179 25.8479 16.701 25.9035 16.6695C25.9591 16.6381 26.0058 16.5931 26.0393 16.5387C26.0885 16.4649 26.0844 16.3728 26.1076 16.2901C26.1697 16.2526 26.2513 16.2861 26.321 16.283C26.3286 16.3891 26.3089 16.4955 26.2638 16.5919C26.2187 16.6883 26.1496 16.7715 26.0632 16.8337C25.8973 16.9528 25.6798 16.9644 25.4828 16.9361C25.346 16.9127 25.2213 16.843 25.1297 16.7387C25.038 16.6345 24.9849 16.5019 24.9793 16.3632C24.9745 16.1345 24.982 15.9054 24.9772 15.6767C24.969 15.4817 24.9984 15.2697 25.1428 15.1273Z" fill="#020202"/>
<path d="M26.717 15.2662C26.8194 15.0498 27.0584 14.9218 27.2974 14.9313C27.5364 14.9122 27.7934 15.0153 27.9119 15.2311C28.0485 15.4485 27.9802 15.7114 27.9945 15.9521C27.6275 15.9579 27.2602 15.9456 26.8939 15.9586C26.8597 16.073 26.8846 16.2017 26.8788 16.3218C26.8727 16.4925 26.9884 16.6632 27.1581 16.7008C27.3278 16.7384 27.5336 16.7322 27.6671 16.6049C27.7501 16.5154 27.7671 16.3898 27.7774 16.2737C27.8504 16.2696 27.9238 16.2679 27.9976 16.2662C28.0089 16.3954 27.9799 16.5249 27.9144 16.6369C27.849 16.7489 27.7504 16.8378 27.6323 16.8913C27.4723 16.9498 27.2992 16.9622 27.1325 16.9272C26.8826 16.8759 26.6754 16.6516 26.6603 16.3949C26.6521 16.1774 26.6603 15.9596 26.6573 15.7422C26.6573 15.5834 26.6378 15.413 26.717 15.2662ZM26.9628 15.298C26.8604 15.4147 26.8781 15.5786 26.8754 15.723C27.1646 15.7323 27.4558 15.7425 27.746 15.7179C27.8382 15.5107 27.7118 15.2041 27.4691 15.1672C27.2953 15.1386 27.0792 15.145 26.9628 15.3004V15.298Z" fill="#020202"/>
<path d="M11.4618 14.9642C11.6033 14.9266 11.7513 14.9204 11.8954 14.9461C12.1569 14.9952 12.3734 15.2335 12.3799 15.5025C12.3887 15.7415 12.3829 15.9805 12.3843 16.2195C12.3843 16.3499 12.3826 16.4868 12.3208 16.6059C12.104 17.0549 11.3522 17.0682 11.1174 16.6295C11.0061 16.4325 11.0491 16.198 11.0405 15.9826C11.0484 15.7777 11.0194 15.5667 11.0682 15.3646C11.0956 15.2705 11.1459 15.1847 11.2146 15.1148C11.2833 15.045 11.3682 14.9932 11.4618 14.9642ZM11.612 15.1611C11.4355 15.1727 11.2758 15.3216 11.2706 15.5025C11.2611 15.789 11.2628 16.0761 11.2706 16.3629C11.2744 16.4501 11.3089 16.5331 11.3681 16.5973C11.4273 16.6614 11.5073 16.7025 11.594 16.7131C11.7339 16.7234 11.8923 16.7309 12.0105 16.6415C12.1108 16.5715 12.1576 16.4465 12.1579 16.3277C12.1648 16.0993 12.1525 15.8706 12.1579 15.6425C12.1579 15.5165 12.1579 15.3731 12.0589 15.2799C11.9446 15.157 11.7664 15.1427 11.612 15.1611Z" fill="#020202"/>
<path d="M9.29291 4.01398C10.0658 4.00647 10.8388 4.01022 11.6117 4.01398C11.9531 4.3687 12.2873 4.73263 12.6376 5.08018C13.6236 6.11258 14.6137 7.14065 15.6078 8.1644C16.1834 8.78541 16.7829 9.38423 17.364 10.0001L17.3531 10.0104L17.3971 10.0288C17.4007 9.90512 17.3976 9.78135 17.3875 9.65803C17.4087 8.83013 17.3985 8.00155 17.4046 7.17297C17.4032 7.08231 17.3917 6.99209 17.3705 6.90394C17.474 6.5055 17.6405 6.12611 17.8635 5.78005C17.8423 5.92617 17.8539 6.074 17.8518 6.22114C17.8518 7.71614 17.8549 9.21114 17.8518 10.7065C17.8433 11.0762 17.8477 11.4463 17.8518 11.816C17.8549 12.013 17.8611 12.2107 17.8518 12.4077L17.8204 12.4695C17.2353 11.8655 16.632 11.279 16.0407 10.6812C15.3279 9.97212 14.6225 9.25552 13.9046 8.55223C13.2979 7.93054 12.6827 7.31636 12.0671 6.7032C11.9989 6.63287 11.9227 6.57074 11.8695 6.48846L11.808 6.45056C11.525 6.15184 11.2304 5.86472 10.9378 5.57589C10.9262 6.28635 10.9432 6.99715 10.9292 7.70726C10.9292 7.74482 10.9251 8.1207 10.9371 8.3194C10.9494 8.7202 10.9187 9.12271 10.9487 9.5225C10.9166 9.78572 10.9395 10.0517 10.9323 10.3163C10.9419 10.5392 10.9159 10.7642 10.9497 10.9857C10.8257 11.2167 10.6506 11.4163 10.4376 11.5692C10.4561 11.4135 10.4895 11.2595 10.4851 11.1022C10.483 10.3852 10.4851 9.66998 10.483 8.95406C10.481 8.69187 10.4772 8.42933 10.4847 8.16884C10.4847 8.10397 10.4871 8.05413 10.4871 7.99336C10.4769 7.43005 10.495 6.86673 10.4803 6.30376C10.4769 6.18734 10.4776 6.07127 10.4803 5.95519C10.483 5.73567 10.5025 5.51581 10.4885 5.29663C10.4684 4.97882 10.3432 4.67673 10.1324 4.438C9.91665 4.1939 9.60597 4.06314 9.29291 4.01398Z" fill="#FFBE00"/>
<path d="M16.2326 4.01675C17.1339 4.00753 18.0355 4.00514 18.9365 4.01675C18.6633 4.11712 18.3479 4.22159 18.1885 4.48447C17.8978 4.62739 17.6185 4.79231 17.3531 4.97779C17.3083 4.79924 17.2004 4.64493 17.0953 4.4971C16.8738 4.23968 16.568 4.06942 16.2326 4.01675Z" fill="#FFBE00"/>
<path d="M10.1396 12.4388C10.5417 12.3886 10.9265 12.2493 11.2874 12.0691L11.301 12.067C11.4339 12.2084 11.5974 12.3173 11.779 12.3855C11.8363 12.4101 11.9036 12.4197 11.9429 12.474C11.3345 12.4962 10.3458 12.477 9.73672 12.4835L10.1396 12.4388Z" fill="#FFBE00"/>
</svg>
