<svg width="46" height="32" viewBox="0 0 46 32" fill="none" xmlns="http://www.w3.org/2000/svg">
<path d="M11.2388 8.01565C12.6481 8.00005 14.0586 8.01312 15.4682 8.00891C16.1378 8.01481 16.8087 7.9971 17.4779 8.01734C17.8646 8.07806 18.2483 8.23956 18.5118 8.53726C18.7721 8.83212 18.9269 9.20524 18.9517 9.59777C18.9689 9.86849 18.9449 10.14 18.9415 10.4112C18.8892 10.0702 18.7506 9.74825 18.5388 9.47591C18.1087 8.94165 17.4889 8.57521 16.8247 8.4154C16.0358 8.21721 15.2156 8.29522 14.4111 8.28215C14.3491 8.2754 14.2525 8.29522 14.2694 8.37956C14.2694 9.88493 14.2694 11.3911 14.2694 12.8965C14.2504 12.988 14.3605 12.9585 14.4119 12.9661C15.3632 12.9488 16.3558 13.0652 17.2612 12.7013C17.8296 12.4711 18.3655 12.0987 18.6856 11.5657C18.8141 11.3416 18.902 11.0965 18.9453 10.8417C18.9635 11.537 18.9411 12.2332 18.9538 12.9286C18.8298 12.9707 18.7067 13.0196 18.5865 13.0724C18.7075 13.0989 18.8289 13.123 18.9508 13.1453C18.9415 13.4687 18.9462 13.793 18.9487 14.1152C18.5338 13.8255 18.0893 13.5704 17.5993 13.4337C16.9668 13.2389 16.2964 13.2372 15.6394 13.2402C15.1844 13.2436 14.7294 13.2351 14.2749 13.2486C14.2694 14.8691 14.2749 16.49 14.2723 18.1109C14.2492 18.2012 14.352 18.1953 14.4115 18.1953C15.0018 18.1953 15.5922 18.1953 16.1825 18.1953C17.1397 18.1898 18.1285 17.9444 18.8918 17.3452C19.1548 17.1563 19.3711 16.9098 19.5243 16.6245C19.8502 16.0823 19.8705 15.3553 19.5243 14.8172C19.4872 14.3235 19.5243 13.8263 19.51 13.3313C20.1425 13.5758 20.7231 13.9962 21.0862 14.5769C21.264 14.8519 21.3772 15.1635 21.4175 15.4885C21.4577 15.8134 21.4239 16.1433 21.3185 16.4533C21.0916 17.1187 20.5456 17.6256 19.9468 17.9646C19.5011 18.1873 19.0259 18.3593 18.5291 18.4213C18.2698 18.4474 18.0109 18.4854 17.7495 18.4803C15.5568 18.4764 13.3641 18.4755 11.1714 18.4778C11.5559 18.3897 11.9413 18.2303 12.2023 17.922C12.4758 17.6015 12.6227 17.1921 12.6156 16.7709C12.6156 14.7328 12.6156 12.6947 12.6156 10.6566C12.6156 10.2771 12.6303 9.89463 12.6038 9.51512C12.5807 9.23913 12.4882 8.97347 12.3347 8.74291C12.1813 8.51234 11.972 8.32438 11.7263 8.19655C11.5753 8.10716 11.3999 8.07933 11.2388 8.01565Z" fill="#020202"/>
<path d="M28.465 8.59835C30.204 7.80603 32.2858 7.8035 34.0083 8.63715C34.0893 8.67004 34.1964 8.74215 34.2727 8.65865C34.4979 8.44444 34.7159 8.22096 34.9331 8C34.9196 9.12798 34.9386 10.2568 34.9234 11.3848C34.8896 11.3268 34.8625 11.2653 34.8424 11.2013C34.5852 10.4845 34.1753 9.81488 33.6166 9.29285C33.1528 8.85347 32.5822 8.51233 31.9544 8.37149C31.201 8.19576 30.4098 8.29085 29.7195 8.6401C29.0334 8.99522 28.4595 9.53408 28.0619 10.1965C27.787 10.6239 27.5818 11.0923 27.4543 11.5842C27.1772 12.463 27.1591 13.4105 27.3071 14.3154C27.3379 14.5321 27.4113 14.74 27.442 14.9568L27.4766 14.9859C27.489 15.1382 27.4929 15.2911 27.4884 15.4438L27.434 15.421L27.4475 15.4084C26.7307 14.6494 25.9894 13.9081 25.2784 13.141C25.3134 12.3002 25.5504 11.464 26.0003 10.7506C26.3732 10.1477 26.8602 9.62342 27.434 9.20725C27.7617 8.97834 28.1064 8.77479 28.465 8.59835Z" fill="#020202"/>
<path d="M19.5066 9.94434C19.8679 10.3011 20.2319 10.6557 20.5814 11.0247C20.4503 11.5197 20.2179 12.0232 19.8034 12.3403C19.7111 12.4086 19.5475 12.5452 19.496 12.5768C19.5133 11.6998 19.4935 10.8218 19.5066 9.94434Z" fill="#020202"/>
<path d="M34.8222 15.3371C34.8479 15.2747 34.8643 15.2038 34.9208 15.1604C34.9326 16.2614 34.9238 17.3628 34.9255 18.4638C34.6923 18.2622 34.4878 18.0295 34.2651 17.8165C34.2109 17.7586 34.1546 17.7586 34.0965 17.8165C33.4159 18.1277 32.6952 18.3626 31.9459 18.4368C30.6957 18.5726 29.4016 18.366 28.2774 17.7942C28.199 17.7474 28.0986 17.7275 28.0425 17.6516C28.0396 17.195 28.0341 16.7379 28.0425 16.2812C28.4566 16.9247 29.0124 17.491 29.6997 17.8389C30.3289 18.1559 31.0416 18.2679 31.7376 18.1589C32.5068 18.0358 33.1979 17.6183 33.7401 17.0761C34.217 16.5773 34.5854 15.9852 34.8222 15.3371Z" fill="#020202"/>
<path d="M6.00796 20.6776C6.09862 20.6877 6.27277 20.6286 6.27614 20.772C6.28921 21.0672 6.27614 21.3624 6.28162 21.6575C6.52493 21.4889 6.83781 21.4686 7.11907 21.5344C7.42984 21.6187 7.66724 21.9274 7.65501 22.2512C7.65501 22.5886 7.65754 22.9259 7.65501 23.2633C7.65044 23.4201 7.59637 23.5714 7.50056 23.6956C7.40475 23.8198 7.2721 23.9106 7.1216 23.9548C6.80197 24.0349 6.41276 23.997 6.18717 23.7309C6.06215 23.5918 5.99648 23.4093 6.00416 23.2224C6.00458 22.3744 5.99235 21.5255 6.00796 20.6776ZM6.72227 21.784C6.60289 21.7896 6.49046 21.8418 6.40917 21.9294C6.32787 22.017 6.28419 22.133 6.28753 22.2525C6.28753 22.5755 6.27614 22.8985 6.28162 23.2224C6.27698 23.391 6.36216 23.5685 6.51734 23.6461C6.64848 23.725 6.80745 23.7111 6.95377 23.7022C7.06586 23.6938 7.17098 23.6446 7.24929 23.564C7.3276 23.4833 7.37367 23.3768 7.37882 23.2645C7.38936 22.9407 7.38303 22.6168 7.38177 22.2947C7.38648 22.2209 7.37461 22.147 7.34703 22.0784C7.31945 22.0098 7.27685 21.9483 7.22238 21.8983C7.08828 21.7743 6.89305 21.7705 6.72227 21.784Z" fill="#020202"/>
<path d="M12.207 20.6793C12.2938 20.6723 12.3811 20.678 12.4663 20.6962C12.4895 20.907 12.4764 21.1179 12.4794 21.3258C12.4794 22.1839 12.4819 23.042 12.4794 23.898C12.4764 24.0384 12.2808 23.9928 12.1998 23.9481C12.2078 22.8598 12.1901 21.7689 12.207 20.6793Z" fill="#020202"/>
<path d="M8.70119 21.5235C8.8939 21.491 9.10094 21.4843 9.28521 21.5598C9.53147 21.6538 9.71953 21.8971 9.72122 22.1661C9.72839 22.7712 9.72122 23.3767 9.72122 23.9823C9.5905 24.0341 9.53737 23.9102 9.49478 23.8136C9.32274 23.9165 9.13383 24.0072 8.92805 23.9996C8.69023 23.9915 8.42964 23.9401 8.26012 23.7588C8.07501 23.5606 8.02652 23.265 8.08808 23.0069C8.12544 22.8653 8.20543 22.7387 8.31722 22.6441C8.42901 22.5495 8.56718 22.4916 8.713 22.4782C8.95588 22.4583 9.19919 22.4782 9.44207 22.4672C9.44207 22.285 9.4737 22.0734 9.33961 21.9266C9.18317 21.7516 8.9095 21.7525 8.69866 21.814C8.53295 21.8659 8.44566 22.0249 8.41909 22.1885C8.32886 22.1923 8.23904 22.1923 8.1488 22.1885C8.15291 22.0317 8.20962 21.8809 8.30981 21.7603C8.41 21.6397 8.54786 21.5563 8.70119 21.5235ZM8.50891 22.8429C8.23482 23.0672 8.31368 23.6019 8.67252 23.6922C8.91456 23.7246 9.23672 23.7487 9.3784 23.5011C9.49563 23.2705 9.42394 22.9972 9.43954 22.7485C9.22871 22.7434 9.01787 22.7426 8.80703 22.7459C8.69931 22.7419 8.59366 22.7763 8.50891 22.8429Z" fill="#020202"/>
<path d="M10.1324 21.504C10.1804 21.5019 10.2285 21.5007 10.2766 21.4998C10.3044 21.5631 10.3322 21.6263 10.3609 21.6896C10.5388 21.5736 10.7353 21.4674 10.9555 21.4787C11.3624 21.4682 11.7794 21.7823 11.7866 22.2087C11.7887 22.7948 11.7921 23.3813 11.7866 23.9675C11.7001 23.9675 11.6082 23.9898 11.5264 23.9523C11.4923 23.3725 11.5289 22.7897 11.507 22.2091C11.5035 22.1243 11.4757 22.0423 11.427 21.9728C11.3782 21.9033 11.3106 21.8492 11.2321 21.8169C11.0877 21.7695 10.9339 21.7585 10.7843 21.7849C10.6843 21.8038 10.5937 21.8563 10.5275 21.9337C10.4614 22.011 10.4236 22.1086 10.4204 22.2103C10.4086 22.7872 10.4242 23.3645 10.414 23.9392C10.3605 24.0408 10.2188 23.9814 10.1336 23.9569C10.1218 23.1401 10.1374 22.3221 10.1324 21.504Z" fill="#020202"/>
<path d="M13.4577 21.5931C13.5353 21.4442 13.7233 21.5231 13.8557 21.5054C13.5989 21.8457 13.3548 22.1957 13.0929 22.5326C13.0314 22.6127 12.9036 22.7147 12.9892 22.8227C13.2844 23.2022 13.5702 23.5901 13.8469 23.9831C13.7242 23.9717 13.5471 24.0422 13.4674 23.9127C13.1861 23.5235 12.9002 23.1385 12.6164 22.7514C12.8859 22.3576 13.1806 21.9814 13.4577 21.5931Z" fill="#020202"/>
<path d="M15.5108 21.4936C15.6478 21.4598 15.6967 21.5868 15.7473 21.685C15.986 21.4982 16.3141 21.4236 16.605 21.5231C16.9213 21.615 17.1709 21.9153 17.1608 22.2526C17.1553 22.8256 17.1751 23.4 17.1532 23.9726C17.0689 23.9578 16.9078 24.024 16.8876 23.9039C16.8745 23.3557 16.8876 22.8041 16.8808 22.2547C16.8779 22.1071 16.8201 21.9532 16.6948 21.8672C16.5447 21.7647 16.352 21.7639 16.1783 21.7828C16.0673 21.8002 15.9664 21.8575 15.8948 21.944C15.8231 22.0305 15.7855 22.1403 15.7891 22.2526C15.7891 22.824 15.7891 23.3953 15.7891 23.9667C15.7004 23.9961 15.6048 23.998 15.515 23.9722C15.4859 23.7225 15.5066 23.4708 15.5002 23.2203C15.5049 22.6447 15.4969 22.0692 15.5108 21.4936Z" fill="#020202"/>
<path d="M17.6689 21.8807C17.806 21.631 18.0906 21.4923 18.3727 21.5011C18.6569 21.4784 18.9592 21.5981 19.1089 21.8494C19.2679 22.0793 19.2203 22.3694 19.2278 22.6321C19.2329 22.6915 19.2249 22.7847 19.1389 22.7645C18.7172 22.767 18.2955 22.7582 17.8738 22.7687L17.8507 22.7856C17.8612 23.0386 17.784 23.3337 17.9616 23.5446C18.1146 23.7267 18.3782 23.7221 18.5941 23.693C18.8365 23.6399 18.9672 23.3877 18.9571 23.1541C19.0415 23.1541 19.1233 23.1541 19.2068 23.1541C19.2675 23.3536 19.1696 23.5699 19.0448 23.7259C18.845 23.9675 18.5021 24.0236 18.207 23.9764C17.8764 23.93 17.5905 23.639 17.5745 23.3017C17.5601 23.036 17.5694 22.7695 17.5673 22.5035C17.5707 22.2947 17.5538 22.067 17.6689 21.8807ZM17.9932 21.9144C17.8245 22.0561 17.8515 22.2888 17.8494 22.4849C18.2129 22.49 18.5776 22.5009 18.9407 22.4782C18.9567 22.3074 18.9694 22.1168 18.8593 21.9722C18.6569 21.7154 18.2335 21.712 17.9932 21.9152V21.9144Z" fill="#020202"/>
<path d="M23.0857 21.8124C23.2911 21.5083 23.7018 21.456 24.0353 21.5273C24.2094 21.5716 24.3615 21.6774 24.4637 21.8251C24.5658 21.9728 24.6111 22.1525 24.5911 22.331C24.5046 22.331 24.4182 22.331 24.3318 22.331C24.3318 22.1168 24.2314 21.8803 24.0121 21.8128C23.795 21.7584 23.5259 21.7504 23.3552 21.9182C23.2413 22.0257 23.2164 22.1893 23.2185 22.3399C23.2185 22.6485 23.2114 22.9572 23.2232 23.2676C23.228 23.3758 23.2712 23.4787 23.345 23.5581C23.4187 23.6374 23.5183 23.6879 23.6259 23.7006C23.8051 23.7162 24.01 23.7297 24.1538 23.5994C24.2887 23.4957 24.3191 23.3198 24.3351 23.1609C24.4224 23.1609 24.5097 23.1609 24.5978 23.1609C24.6108 23.3167 24.5769 23.4728 24.5004 23.6091C24.2053 24.1202 23.3412 24.1244 23.0457 23.6133C22.8951 23.3679 22.9546 23.0702 22.944 22.7982C22.9626 22.4706 22.8728 22.0987 23.0857 21.8124Z" fill="#020202"/>
<path d="M25.6078 21.5205C25.8232 21.4906 26.0577 21.4822 26.2571 21.5846C26.3797 21.6473 26.4826 21.7425 26.5547 21.8598C26.6267 21.9771 26.6652 22.1119 26.6657 22.2496C26.6691 22.5448 26.6624 22.8399 26.6691 23.1351C26.6767 23.37 26.6113 23.6188 26.433 23.782C26.2184 23.9928 25.889 24.0232 25.6061 23.9717C25.2789 23.9097 25.0128 23.6036 25.0157 23.2679C25.0124 22.9158 25.0098 22.5642 25.0157 22.2138C25.0128 21.8781 25.2831 21.5779 25.6078 21.5205ZM25.6972 21.7849C25.5839 21.8009 25.48 21.8567 25.4042 21.9425C25.3285 22.0282 25.2858 22.1382 25.2839 22.2526C25.2911 22.5899 25.2759 22.9247 25.2877 23.2604C25.2915 23.3461 25.3191 23.4291 25.3672 23.5001C25.4154 23.5711 25.4823 23.6274 25.5605 23.6626C25.687 23.7162 25.8291 23.7077 25.9645 23.7018C26.1694 23.6871 26.371 23.5209 26.3748 23.3059C26.4081 22.9044 26.4047 22.5008 26.3647 22.0999C26.2892 21.8191 25.9502 21.7415 25.6959 21.7849H25.6972Z" fill="#020202"/>
<path d="M27.0773 21.5028C27.1941 21.475 27.2578 21.5543 27.3016 21.65C27.5356 21.518 27.8148 21.4518 28.0779 21.5332C28.2238 21.5627 28.3343 21.6656 28.4532 21.7474C28.7425 21.4624 29.235 21.4101 29.569 21.6475C29.6489 21.7086 29.7139 21.787 29.7592 21.8768C29.8045 21.9666 29.8288 22.0655 29.8304 22.1661C29.8304 22.7674 29.8304 23.3692 29.8325 23.9709C29.7449 23.9975 29.6513 23.9965 29.5643 23.9679C29.5487 23.3818 29.5643 22.7948 29.5559 22.2087C29.5588 22.0362 29.464 21.8524 29.2898 21.8031C29.0861 21.7449 28.8205 21.7495 28.6796 21.9321C28.6176 22.0106 28.5883 22.11 28.5978 22.2096C28.5978 22.7721 28.5978 23.3346 28.6 23.8962C28.6071 24.0358 28.4182 23.9979 28.3356 23.9671C28.3065 23.9051 28.3162 23.8343 28.3124 23.7689C28.3124 23.2338 28.3153 22.6983 28.3124 22.1632C28.3107 22.0734 28.2783 21.9869 28.2205 21.9182C28.1627 21.8495 28.083 21.8028 27.9948 21.7858C27.8165 21.7541 27.6023 21.7563 27.4682 21.8967C27.3758 21.989 27.3526 22.1235 27.3543 22.2492C27.3543 22.7695 27.3543 23.2903 27.3573 23.8094C27.3566 23.873 27.3486 23.9364 27.3337 23.9983C27.2487 23.993 27.1642 23.982 27.0807 23.9654C27.0566 23.1461 27.0836 22.3243 27.0773 21.5028Z" fill="#020202"/>
<path d="M30.2423 21.5058C30.2883 21.5058 30.3342 21.5058 30.3806 21.51C30.4089 21.5593 30.4344 21.6101 30.457 21.6623C30.6168 21.602 30.7665 21.5016 30.9436 21.4995C31.1966 21.4746 31.4403 21.5994 31.6208 21.7706C31.7132 21.6644 31.8322 21.5846 31.9655 21.5394C32.0989 21.4941 32.2418 21.485 32.3798 21.513C32.7133 21.5332 33.0013 21.8314 32.9954 22.1679C32.9988 22.7739 32.9988 23.3797 32.9954 23.9853C32.9059 24.0033 32.8132 23.9965 32.7273 23.9654C32.7192 23.4223 32.7133 22.8784 32.7273 22.3353C32.7374 22.1569 32.6923 21.9482 32.5295 21.8491C32.2735 21.7002 31.8405 21.7761 31.7726 22.1021C31.7528 22.7304 31.781 23.3612 31.7591 23.9903C31.6634 23.9958 31.5647 24.0017 31.4795 23.9524C31.4766 23.37 31.4795 22.7881 31.4795 22.2062C31.4896 22.0156 31.353 21.8242 31.1586 21.7968C30.9655 21.7546 30.7239 21.7727 30.6029 21.9507C30.5038 22.0717 30.5312 22.2353 30.524 22.38C30.524 22.8581 30.5215 23.3367 30.5286 23.8136C30.5194 23.8706 30.5404 23.9549 30.4823 23.9903C30.4012 23.999 30.3193 23.9897 30.2423 23.9629C30.2314 23.144 30.2486 22.3251 30.2423 21.5058Z" fill="#020202"/>
<path d="M33.7954 21.5977C33.991 21.4902 34.2246 21.4906 34.4405 21.5134C34.6013 21.5399 34.7489 21.6183 34.861 21.7365C34.973 21.8547 35.0434 22.0064 35.0612 22.1683C35.0735 22.3648 35.0655 22.5621 35.065 22.7586C34.6088 22.7772 34.1517 22.7586 33.695 22.7687C33.6925 22.9703 33.6722 23.1748 33.7081 23.3747C33.7361 23.4695 33.7937 23.5528 33.8724 23.6126C33.9512 23.6724 34.0469 23.7054 34.1458 23.707C34.3145 23.7162 34.5076 23.7099 34.6396 23.5859C34.7661 23.4792 34.777 23.3059 34.8027 23.1554C34.8871 23.1554 34.9714 23.1554 35.0558 23.1554C35.0765 23.3227 35.0392 23.492 34.95 23.635C34.8608 23.7781 34.7251 23.8861 34.5658 23.941C34.3479 24.0104 34.1136 24.009 33.8966 23.9368C33.7567 23.8873 33.6355 23.796 33.5492 23.6753C33.4629 23.5547 33.4158 23.4104 33.4142 23.2621C33.4074 22.9113 33.4074 22.5599 33.4142 22.2079C33.4187 22.0817 33.4563 21.959 33.5232 21.8519C33.5901 21.7448 33.684 21.6572 33.7954 21.5977ZM33.8 21.9477C33.6655 22.0941 33.6878 22.304 33.6929 22.4875C34.0437 22.4854 34.3963 22.5035 34.7471 22.4795C34.8238 22.4112 34.7893 22.299 34.7867 22.21C34.7682 22.019 34.6362 21.8381 34.4426 21.7976C34.2234 21.7567 33.9535 21.7601 33.8 21.9477Z" fill="#020202"/>
<path d="M35.4749 21.5087C35.5197 21.5062 35.5646 21.5062 35.6094 21.5087C35.655 21.5589 35.6815 21.7103 35.7697 21.6297C35.9666 21.4927 36.2145 21.491 36.4444 21.5108C36.4444 21.5952 36.4444 21.6795 36.4444 21.7638C36.3145 21.7832 36.1816 21.7718 36.0534 21.7988C35.9721 21.821 35.9 21.8684 35.8474 21.9343C35.7948 22.0002 35.7644 22.081 35.7608 22.1653C35.7532 22.7556 35.7659 23.3459 35.7562 23.9363C35.7022 24.0409 35.5592 23.9785 35.4728 23.9561C35.4677 23.1414 35.4795 22.3251 35.4749 21.5087Z" fill="#020202"/>
<path d="M37.0545 21.7436C37.2733 21.4927 37.6414 21.4653 37.948 21.5286C38.1214 21.5731 38.273 21.6786 38.3752 21.8257C38.4773 21.9727 38.5231 22.1517 38.5042 22.3297C38.4097 22.3369 38.3127 22.3512 38.2242 22.3103C38.2367 22.2261 38.2253 22.1401 38.1912 22.0621C38.1571 21.9841 38.1018 21.9173 38.0315 21.8693C37.8982 21.774 37.7249 21.7757 37.5676 21.7849C37.3471 21.8001 37.1379 21.9814 37.1371 22.2108C37.1257 22.5482 37.1291 22.8855 37.1333 23.2254C37.1308 23.3696 37.1805 23.5205 37.302 23.6078C37.4285 23.717 37.609 23.7149 37.7692 23.709C37.8481 23.7081 37.9254 23.6872 37.994 23.6484C38.0627 23.6095 38.1204 23.5539 38.1618 23.4868C38.2225 23.3957 38.2174 23.2819 38.2461 23.1798C38.3228 23.1334 38.4236 23.1748 38.5097 23.171C38.5191 23.3021 38.4948 23.4335 38.4391 23.5525C38.3833 23.6716 38.298 23.7744 38.1913 23.8511C37.9864 23.9983 37.7177 24.0126 37.4744 23.9776C37.3054 23.9487 37.1515 23.8627 37.0383 23.7339C36.9251 23.6051 36.8595 23.4414 36.8525 23.2701C36.8466 22.9875 36.8558 22.7046 36.8499 22.4221C36.8398 22.1813 36.8761 21.9194 37.0545 21.7436Z" fill="#020202"/>
<path d="M38.9988 21.9152C39.1253 21.6479 39.4205 21.4897 39.7157 21.5016C40.0108 21.4779 40.3283 21.6053 40.4747 21.8718C40.6433 22.1404 40.559 22.4651 40.5767 22.7624C40.1234 22.7695 39.6697 22.7543 39.2172 22.7704C39.1751 22.9116 39.2059 23.0706 39.1987 23.219C39.1911 23.4299 39.334 23.6407 39.5436 23.6871C39.7532 23.7335 40.0075 23.7259 40.1723 23.5686C40.2748 23.4581 40.2959 23.3029 40.3085 23.1596C40.3988 23.1545 40.4894 23.1524 40.5805 23.1503C40.5945 23.3099 40.5586 23.4699 40.4778 23.6082C40.397 23.7465 40.2752 23.8563 40.1293 23.9224C39.9317 23.9946 39.7179 24.01 39.512 23.9666C39.2033 23.9034 38.9474 23.6264 38.9288 23.3093C38.9187 23.0407 38.9288 22.7716 38.925 22.503C38.925 22.3069 38.901 22.0965 38.9988 21.9152ZM39.3024 21.9544C39.1759 22.0986 39.1979 22.301 39.1945 22.4794C39.5516 22.4908 39.9113 22.5034 40.2697 22.4731C40.3836 22.2171 40.2276 21.8385 39.9278 21.7929C39.7131 21.7575 39.4462 21.7655 39.3024 21.9574V21.9544Z" fill="#020202"/>
<path d="M20.1568 21.542C20.3315 21.4956 20.5143 21.488 20.6923 21.5197C21.0153 21.5804 21.2826 21.8747 21.2906 22.207C21.3016 22.5021 21.2944 22.7973 21.2961 23.0925C21.2961 23.2536 21.294 23.4227 21.2177 23.5698C20.9499 24.1243 20.0214 24.1408 19.7313 23.5989C19.5938 23.3556 19.647 23.0659 19.6364 22.7998C19.6461 22.5468 19.6103 22.2863 19.6706 22.0366C19.7044 21.9204 19.7666 21.8144 19.8514 21.7281C19.9363 21.6418 20.0412 21.5779 20.1568 21.542ZM20.3423 21.7853C20.1243 21.7996 19.927 21.9835 19.9206 22.207C19.9088 22.5608 19.9109 22.9154 19.9206 23.2696C19.9252 23.3773 19.9679 23.4799 20.041 23.5591C20.1141 23.6383 20.213 23.6891 20.32 23.7022C20.4928 23.7149 20.6885 23.7242 20.8344 23.6137C20.9584 23.5272 21.0161 23.3729 21.0166 23.2262C21.025 22.9441 21.0098 22.6615 21.0166 22.3799C21.0166 22.2243 21.0166 22.0472 20.8943 21.932C20.753 21.7802 20.5329 21.7625 20.3423 21.7853Z" fill="#020202"/>
<path d="M17.4779 8.01732C18.4325 8.00804 19.3872 8.01268 20.3419 8.01732C20.7636 8.45544 21.1764 8.90494 21.609 9.33421C22.8268 10.6093 24.0497 11.8791 25.2776 13.1436C25.9885 13.9106 26.729 14.6502 27.4467 15.4109L27.4332 15.4236L27.4876 15.4464C27.4921 15.2936 27.4881 15.1407 27.4757 14.9884C27.5019 13.9659 27.4892 12.9425 27.4968 11.9191C27.4951 11.8071 27.4809 11.6957 27.4547 11.5868C27.5826 11.0947 27.7881 10.6261 28.0636 10.1986C28.0374 10.3791 28.0518 10.5617 28.0492 10.7434C28.0492 12.5899 28.053 14.4365 28.0492 16.2834C28.0387 16.7401 28.0442 17.1972 28.0492 17.6538C28.053 17.8971 28.0606 18.1413 28.0492 18.3846L28.0104 18.4609C27.2877 17.715 26.5426 16.9905 25.8122 16.2522C24.9318 15.3764 24.0606 14.4913 23.1738 13.6226C22.4245 12.8548 21.6647 12.0962 20.9044 11.3388C20.8201 11.252 20.726 11.1752 20.6602 11.0736L20.5843 11.0268C20.2348 10.6578 19.8709 10.3032 19.5095 9.94648C19.4952 10.824 19.5162 11.7019 19.499 12.579C19.499 12.6254 19.4939 13.0896 19.5087 13.335C19.5238 13.8301 19.4859 14.3272 19.523 14.821C19.4834 15.1461 19.5116 15.4746 19.5027 15.8014C19.5146 16.0768 19.4825 16.3546 19.5243 16.6283C19.3711 16.9136 19.1548 17.1601 18.8917 17.349C18.9145 17.1567 18.9558 16.9665 18.9504 16.7721C18.9478 15.8866 18.9504 15.0032 18.9478 14.1189C18.9453 13.7951 18.9407 13.4708 18.9499 13.1491C18.9499 13.069 18.9529 13.0074 18.9529 12.9323C18.9402 12.2366 18.9626 11.5408 18.9445 10.8455C18.9402 10.7017 18.9411 10.5583 18.9445 10.415C18.9478 10.1438 18.9719 9.87226 18.9546 9.60155C18.9298 9.20901 18.7751 8.8359 18.5148 8.54104C18.2483 8.23954 17.8645 8.07804 17.4779 8.01732Z" fill="#FFBE00"/>
<path d="M26.0493 8.02066C27.1625 8.00928 28.2761 8.00633 29.3889 8.02066C29.0516 8.14464 28.6619 8.27367 28.465 8.59836C28.1061 8.77489 27.7611 8.97859 27.4332 9.20767C27.3779 8.98714 27.2447 8.79654 27.1148 8.61396C26.8413 8.29601 26.4636 8.08572 26.0493 8.02066Z" fill="#FFBE00"/>
<path d="M18.5236 18.423C19.0204 18.361 19.4956 18.1889 19.9413 17.9663L19.9582 17.9637C20.1223 18.1383 20.3242 18.2729 20.5485 18.3572C20.6194 18.3875 20.7024 18.3993 20.7509 18.4664C19.9995 18.4938 18.7783 18.4702 18.0261 18.4782L18.5236 18.423Z" fill="#FFBE00"/>
</svg>
