<svg width="34" height="24" viewBox="0 0 34 24" fill="none" xmlns="http://www.w3.org/2000/svg">
<path d="M7.92911 6.01174C8.98603 6.00004 10.0439 6.00984 11.1011 6.00668C11.6034 6.01111 12.1065 5.99783 12.6084 6.01301C12.8984 6.05855 13.1862 6.17967 13.3839 6.40295C13.5791 6.62409 13.6952 6.90393 13.7137 7.19833C13.7267 7.40136 13.7087 7.60503 13.7061 7.80838C13.6669 7.55265 13.5629 7.31119 13.4041 7.10693C13.0815 6.70624 12.6166 6.43141 12.1185 6.31155C11.5268 6.16291 10.9117 6.22142 10.3083 6.21161C10.2618 6.20655 10.1894 6.22142 10.202 6.28467C10.202 7.4137 10.202 8.54336 10.202 9.67239C10.1878 9.74102 10.2703 9.71888 10.3089 9.72457C11.0224 9.71161 11.7669 9.79889 12.4459 9.52596C12.8722 9.35329 13.2741 9.07404 13.5142 8.67429C13.6106 8.50616 13.6765 8.32234 13.709 8.13128C13.7226 8.65279 13.7058 9.17492 13.7153 9.69643C13.6223 9.72805 13.53 9.76474 13.4399 9.80427C13.5306 9.82419 13.6217 9.84222 13.7131 9.85898C13.7061 10.1015 13.7096 10.3447 13.7115 10.5864C13.4003 10.3691 13.067 10.1778 12.6995 10.0753C12.2251 9.92919 11.7223 9.92792 11.2295 9.93014C10.8883 9.93267 10.5471 9.92634 10.2061 9.93646C10.202 11.1518 10.2061 12.3675 10.2042 13.5832C10.1869 13.6509 10.264 13.6464 10.3086 13.6464C10.7514 13.6464 11.1941 13.6464 11.6369 13.6464C12.3548 13.6423 13.0964 13.4583 13.6688 13.0089C13.8661 12.8672 14.0284 12.6824 14.1432 12.4684C14.3877 12.0617 14.4029 11.5165 14.1432 11.1129C14.1154 10.7426 14.1432 10.3697 14.1325 9.99845C14.6068 10.1819 15.0423 10.4972 15.3146 10.9327C15.448 11.1389 15.5329 11.3726 15.5631 11.6164C15.5933 11.8601 15.5679 12.1075 15.4889 12.34C15.3187 12.8391 14.9092 13.2192 14.4601 13.4735C14.1258 13.6404 13.7694 13.7695 13.3968 13.816C13.2023 13.8356 13.0082 13.864 12.8121 13.8602C11.1676 13.8573 9.52304 13.8567 7.87851 13.8583C8.16693 13.7922 8.45599 13.6727 8.65175 13.4415C8.85681 13.2011 8.96703 12.8941 8.96168 12.5781C8.96168 11.0496 8.96168 9.52101 8.96168 7.99244C8.96168 7.70782 8.97275 7.42097 8.95283 7.13634C8.93554 6.92935 8.86611 6.7301 8.75104 6.55718C8.63596 6.38426 8.47897 6.24329 8.2947 6.14741C8.18148 6.08037 8.04992 6.05949 7.92911 6.01174Z" fill="#020202"/>
<path d="M20.8488 6.44877C22.153 5.85452 23.7144 5.85263 25.0063 6.47786C25.067 6.50253 25.1473 6.55661 25.2045 6.49399C25.3734 6.33333 25.5369 6.16572 25.6998 6C25.6897 6.84598 25.7039 7.6926 25.6925 8.53858C25.6672 8.49512 25.6469 8.44898 25.6318 8.40101C25.4389 7.86337 25.1315 7.36116 24.7125 6.96964C24.3646 6.6401 23.9367 6.38425 23.4658 6.27862C22.9007 6.14682 22.3073 6.21814 21.7896 6.48008C21.275 6.74642 20.8446 7.15056 20.5464 7.64737C20.3402 7.9679 20.1864 8.31924 20.0907 8.68817C19.8829 9.34724 19.8693 10.0579 19.9803 10.7366C20.0034 10.8991 20.0584 11.055 20.0815 11.2176L20.1075 11.2394C20.1167 11.3536 20.1197 11.4683 20.1163 11.5828L20.0755 11.5658L20.0856 11.5563C19.548 10.987 18.992 10.431 18.4588 9.85578C18.4851 9.22517 18.6628 8.59803 19.0003 8.06293C19.2799 7.61076 19.6451 7.21756 20.0755 6.90544C20.3213 6.73376 20.5798 6.58109 20.8488 6.44877Z" fill="#020202"/>
<path d="M14.1299 7.45825C14.4009 7.7258 14.6739 7.99177 14.936 8.2685C14.8377 8.63978 14.6634 9.01739 14.3526 9.25521C14.2833 9.30645 14.1606 9.40891 14.122 9.43263C14.135 8.77482 14.1201 8.11638 14.1299 7.45825Z" fill="#020202"/>
<path d="M25.6166 11.5029C25.6359 11.4561 25.6482 11.4029 25.6906 11.3704C25.6995 12.1961 25.6928 13.0222 25.6941 13.8479C25.5192 13.6967 25.3658 13.5222 25.1988 13.3625C25.1581 13.319 25.116 13.319 25.0723 13.3625C24.5619 13.5958 24.0214 13.772 23.4594 13.8277C22.5217 13.9295 21.5512 13.7745 20.708 13.3457C20.6492 13.3106 20.5739 13.2957 20.5319 13.2388C20.5297 12.8963 20.5255 12.5535 20.5319 12.211C20.8424 12.6936 21.2593 13.1183 21.7748 13.3792C22.2466 13.617 22.7812 13.701 23.3032 13.6193C23.8801 13.5269 24.3984 13.2138 24.8051 12.8071C25.1627 12.433 25.439 11.989 25.6166 11.5029Z" fill="#020202"/>
<path d="M4.00597 15.5082C4.07396 15.5158 4.20458 15.4715 4.20711 15.579C4.21691 15.8004 4.20711 16.0218 4.21122 16.2431C4.3937 16.1166 4.62836 16.1015 4.8393 16.1508C5.07238 16.214 5.25043 16.4455 5.24126 16.6884C5.24126 16.9414 5.24316 17.1944 5.24126 17.4474C5.23783 17.565 5.19728 17.6786 5.12542 17.7717C5.05356 17.8649 4.95408 17.9329 4.8412 17.9661C4.60148 18.0262 4.30957 17.9977 4.14038 17.7982C4.04661 17.6938 3.99736 17.5569 4.00312 17.4168C4.00344 16.7808 3.99427 16.1442 4.00597 15.5082ZM4.5417 16.338C4.45217 16.3422 4.36785 16.3814 4.30687 16.4471C4.2459 16.5128 4.21314 16.5998 4.21564 16.6894C4.21564 16.9316 4.20711 17.1739 4.21122 17.4168C4.20774 17.5433 4.27162 17.6764 4.388 17.7346C4.48636 17.7937 4.60559 17.7833 4.71533 17.7767C4.79939 17.7703 4.87823 17.7335 4.93697 17.673C4.9957 17.6125 5.03025 17.5326 5.03411 17.4484C5.04202 17.2055 5.03727 16.9626 5.03633 16.721C5.03986 16.6657 5.03096 16.6102 5.01027 16.5588C4.98959 16.5074 4.95764 16.4612 4.91678 16.4237C4.81621 16.3307 4.66979 16.3279 4.5417 16.338Z" fill="#020202"/>
<path d="M8.65523 15.5095C8.72033 15.5042 8.78586 15.5085 8.84972 15.5222C8.86712 15.6803 8.85731 15.8384 8.85953 15.9943C8.85953 16.6379 8.86142 17.2815 8.85953 17.9235C8.85731 18.0288 8.71057 17.9947 8.64985 17.9611C8.65586 17.1449 8.64258 16.3267 8.65523 15.5095Z" fill="#020202"/>
<path d="M6.02588 16.1426C6.17041 16.1182 6.32569 16.1132 6.46389 16.1698C6.64859 16.2403 6.78964 16.4228 6.7909 16.6246C6.79628 17.0784 6.7909 17.5325 6.7909 17.9867C6.69286 18.0256 6.65301 17.9326 6.62107 17.8602C6.49204 17.9373 6.35036 18.0053 6.19602 17.9996C6.01766 17.9936 5.82221 17.955 5.69508 17.8191C5.55624 17.6704 5.51987 17.4487 5.56604 17.2552C5.59406 17.149 5.65406 17.054 5.7379 16.983C5.82174 16.9121 5.92537 16.8686 6.03473 16.8586C6.2169 16.8437 6.39938 16.8586 6.58154 16.8504C6.58154 16.7137 6.60526 16.555 6.50469 16.4449C6.38736 16.3137 6.18211 16.3143 6.02398 16.3605C5.89969 16.3994 5.83423 16.5186 5.8143 16.6413C5.74663 16.6442 5.67926 16.6442 5.61159 16.6413C5.61466 16.5238 5.6572 16.4107 5.73234 16.3202C5.80749 16.2297 5.91088 16.1672 6.02588 16.1426ZM5.88167 17.1322C5.6761 17.3004 5.73524 17.7014 6.00437 17.7691C6.1859 17.7934 6.42752 17.8115 6.53378 17.6258C6.6217 17.4528 6.56794 17.2479 6.57964 17.0613C6.42151 17.0575 6.26339 17.0569 6.10526 17.0594C6.02447 17.0564 5.94523 17.0822 5.88167 17.1322Z" fill="#020202"/>
<path d="M7.09925 16.1281C7.1353 16.1265 7.17136 16.1256 7.20741 16.125C7.22828 16.1724 7.24916 16.2198 7.27066 16.2673C7.40412 16.1803 7.5515 16.1006 7.71658 16.1091C8.02177 16.1012 8.33454 16.3369 8.33992 16.6566C8.3415 17.0962 8.34403 17.5361 8.33992 17.9757C8.27509 17.9757 8.20614 17.9925 8.14479 17.9643C8.11917 17.5295 8.14669 17.0924 8.13024 16.6569C8.12758 16.5933 8.10674 16.5318 8.0702 16.4797C8.03365 16.4275 7.98293 16.387 7.92404 16.3628C7.81578 16.3272 7.7004 16.3189 7.58818 16.3388C7.51317 16.353 7.44525 16.3923 7.39563 16.4503C7.34601 16.5083 7.31766 16.5816 7.31525 16.6579C7.3064 17.0905 7.3181 17.5234 7.31051 17.9545C7.27034 18.0307 7.16408 17.9861 7.1002 17.9678C7.09134 17.3552 7.10305 16.7417 7.09925 16.1281Z" fill="#020202"/>
<path d="M9.59324 16.1948C9.65143 16.0832 9.79248 16.1423 9.89178 16.129C9.69919 16.3843 9.51607 16.6467 9.31968 16.8994C9.27351 16.9595 9.17768 17.0361 9.24188 17.117C9.46326 17.4016 9.67768 17.6926 9.88514 17.9873C9.79311 17.9788 9.66029 18.0316 9.60051 17.9345C9.38957 17.6426 9.17515 17.3539 8.96231 17.0636C9.1644 16.7682 9.38546 16.4861 9.59324 16.1948Z" fill="#020202"/>
<path d="M11.1331 16.1202C11.2359 16.0949 11.2725 16.19 11.3105 16.2637C11.4895 16.1236 11.7355 16.0677 11.9538 16.1423C12.1909 16.2112 12.3782 16.4364 12.3706 16.6894C12.3665 17.1192 12.3813 17.5499 12.3649 17.9794C12.3016 17.9683 12.1808 18.018 12.1656 17.9279C12.1558 17.5167 12.1656 17.1031 12.1606 16.691C12.1584 16.5803 12.115 16.4649 12.0211 16.4004C11.9085 16.3235 11.764 16.3229 11.6337 16.3371C11.5504 16.3501 11.4748 16.3931 11.421 16.458C11.3673 16.5229 11.3391 16.6052 11.3418 16.6894C11.3418 17.1179 11.3418 17.5465 11.3418 17.975C11.2753 17.997 11.2036 17.9985 11.1362 17.9791C11.1144 17.7919 11.1299 17.6031 11.1252 17.4152C11.1287 16.9835 11.1226 16.5518 11.1331 16.1202Z" fill="#020202"/>
<path d="M12.7517 16.4105C12.8545 16.2232 13.0679 16.1192 13.2795 16.1258C13.4927 16.1088 13.7194 16.1986 13.8317 16.3871C13.9509 16.5594 13.9152 16.777 13.9209 16.974C13.9247 17.0186 13.9187 17.0885 13.8541 17.0733C13.5379 17.0752 13.2216 17.0686 12.9054 17.0765L12.888 17.0891C12.8959 17.2789 12.838 17.5003 12.9712 17.6584C13.086 17.795 13.2836 17.7915 13.4455 17.7697C13.6274 17.7299 13.7254 17.5408 13.7178 17.3655C13.7811 17.3655 13.8424 17.3655 13.9051 17.3655C13.9506 17.5151 13.8772 17.6774 13.7836 17.7944C13.6337 17.9756 13.3766 18.0177 13.1552 17.9822C12.9073 17.9475 12.6929 17.7292 12.6808 17.4762C12.6701 17.277 12.677 17.0771 12.6755 16.8776C12.678 16.721 12.6653 16.5502 12.7517 16.4105ZM12.9949 16.4358C12.8684 16.542 12.8886 16.7166 12.887 16.8637C13.1596 16.8674 13.4332 16.8757 13.7055 16.8586C13.7175 16.7305 13.727 16.5876 13.6445 16.4791C13.4927 16.2865 13.1751 16.284 12.9949 16.4364V16.4358Z" fill="#020202"/>
<path d="M16.8143 16.3593C16.9683 16.1313 17.2763 16.092 17.5265 16.1455C17.657 16.1787 17.7711 16.258 17.8478 16.3688C17.9244 16.4796 17.9583 16.6144 17.9433 16.7483C17.8785 16.7483 17.8136 16.7483 17.7488 16.7483C17.7488 16.5876 17.6735 16.4102 17.5091 16.3596C17.3462 16.3188 17.1444 16.3128 17.0164 16.4387C16.931 16.5193 16.9123 16.642 16.9139 16.7549C16.9139 16.9864 16.9085 17.2179 16.9174 17.4507C16.921 17.5318 16.9534 17.6091 17.0087 17.6685C17.064 17.728 17.1387 17.7659 17.2194 17.7755C17.3538 17.7872 17.5075 17.7973 17.6154 17.6996C17.7166 17.6218 17.7393 17.4899 17.7513 17.3707C17.8168 17.3707 17.8823 17.3707 17.9484 17.3707C17.9581 17.4875 17.9327 17.6046 17.8753 17.7068C17.6539 18.0901 17.0059 18.0933 16.7842 17.71C16.6713 17.5259 16.7159 17.3027 16.708 17.0987C16.7219 16.8529 16.6546 16.574 16.8143 16.3593Z" fill="#020202"/>
<path d="M18.7058 16.1404C18.8674 16.118 19.0433 16.1116 19.1929 16.1885C19.2848 16.2355 19.362 16.3069 19.416 16.3949C19.4701 16.4829 19.4989 16.584 19.4993 16.6872C19.5018 16.9086 19.4968 17.13 19.5018 17.3514C19.5075 17.5275 19.4585 17.7141 19.3247 17.8365C19.1638 17.9946 18.9168 18.0174 18.7046 17.9788C18.4592 17.9323 18.2596 17.7027 18.2618 17.451C18.2593 17.1869 18.2574 16.9232 18.2618 16.6603C18.2596 16.4086 18.4623 16.1834 18.7058 16.1404ZM18.7729 16.3387C18.6879 16.3507 18.61 16.3926 18.5532 16.4569C18.4964 16.5212 18.4644 16.6037 18.4629 16.6894C18.4683 16.9424 18.4569 17.1936 18.4658 17.4453C18.4687 17.5096 18.4893 17.5718 18.5254 17.6251C18.5615 17.6784 18.6117 17.7206 18.6704 17.747C18.7653 17.7872 18.8719 17.7808 18.9734 17.7764C19.1271 17.7653 19.2782 17.6407 19.2811 17.4795C19.3061 17.1784 19.3035 16.8756 19.2735 16.575C19.2169 16.3643 18.9626 16.3061 18.7719 16.3387H18.7729Z" fill="#020202"/>
<path d="M19.8079 16.1272C19.8956 16.1063 19.9433 16.1657 19.9762 16.2375C20.1517 16.1385 20.3611 16.0889 20.5584 16.1499C20.6678 16.1721 20.7507 16.2492 20.8399 16.3106C21.0568 16.0968 21.4262 16.0576 21.6767 16.2356C21.7366 16.2815 21.7854 16.3403 21.8194 16.4076C21.8533 16.475 21.8716 16.5492 21.8728 16.6246C21.8728 17.0756 21.8728 17.5269 21.8744 17.9782C21.8087 17.9982 21.7384 17.9974 21.6732 17.976C21.6615 17.5364 21.6732 17.0962 21.6669 16.6566C21.6691 16.5272 21.598 16.3893 21.4673 16.3523C21.3146 16.3087 21.1154 16.3122 21.0097 16.4491C20.9632 16.5079 20.9412 16.5825 20.9484 16.6572C20.9484 17.0791 20.9484 17.501 20.95 17.9222C20.9553 18.0269 20.8136 17.9984 20.7517 17.9753C20.7298 17.9289 20.7371 17.8757 20.7343 17.8267C20.7343 17.4254 20.7365 17.0237 20.7343 16.6224C20.733 16.5551 20.7087 16.4902 20.6653 16.4387C20.622 16.3872 20.5622 16.3521 20.4961 16.3394C20.3623 16.3156 20.2017 16.3172 20.1011 16.4225C20.0319 16.4918 20.0145 16.5927 20.0157 16.6869C20.0157 17.0772 20.0157 17.4678 20.0179 17.8571C20.0174 17.9048 20.0115 17.9523 20.0002 17.9987C19.9365 17.9948 19.8731 17.9866 19.8105 17.9741C19.7925 17.3596 19.8127 16.7432 19.8079 16.1272Z" fill="#020202"/>
<path d="M22.1818 16.1293C22.2162 16.1293 22.2507 16.1293 22.2855 16.1325C22.3067 16.1694 22.3258 16.2076 22.3427 16.2466C22.4626 16.2014 22.5749 16.1261 22.7077 16.1246C22.8974 16.1059 23.0802 16.1995 23.2156 16.3279C23.2849 16.2483 23.3742 16.1884 23.4742 16.1545C23.5742 16.1205 23.6814 16.1137 23.7849 16.1347C24.035 16.1499 24.251 16.3735 24.2466 16.6258C24.2491 17.0804 24.2491 17.5347 24.2466 17.9889C24.1795 18.0024 24.1099 17.9973 24.0455 17.974C24.0395 17.5667 24.035 17.1587 24.0455 16.7514C24.053 16.6176 24.0192 16.4611 23.8971 16.3867C23.7052 16.2751 23.3804 16.332 23.3295 16.5765C23.3146 17.0477 23.3358 17.5208 23.3193 17.9927C23.2475 17.9968 23.1735 18.0012 23.1097 17.9642C23.1074 17.5275 23.1097 17.091 23.1097 16.6546C23.1172 16.5117 23.0148 16.3681 22.869 16.3475C22.7241 16.3159 22.5429 16.3295 22.4522 16.463C22.3778 16.5537 22.3984 16.6764 22.393 16.7849C22.393 17.1435 22.3911 17.5025 22.3965 17.8602C22.3895 17.9029 22.4054 17.9661 22.3617 17.9927C22.3009 17.9992 22.2395 17.9922 22.1818 17.9721C22.1735 17.358 22.1865 16.7438 22.1818 16.1293Z" fill="#020202"/>
<path d="M24.8465 16.1982C24.9933 16.1176 25.1685 16.1179 25.3304 16.135C25.4509 16.1549 25.5617 16.2136 25.6457 16.3023C25.7298 16.391 25.7825 16.5047 25.7959 16.6261C25.8051 16.7735 25.7991 16.9215 25.7988 17.0689C25.4566 17.0828 25.1137 17.0689 24.7712 17.0765C24.7693 17.2277 24.7542 17.381 24.781 17.5309C24.8021 17.602 24.8453 17.6646 24.9043 17.7094C24.9634 17.7542 25.0352 17.779 25.1093 17.7802C25.2358 17.7871 25.3807 17.7824 25.4797 17.6894C25.5745 17.6094 25.5828 17.4794 25.602 17.3665C25.6653 17.3665 25.7285 17.3665 25.7918 17.3665C25.8074 17.4919 25.7794 17.619 25.7125 17.7262C25.6456 17.8335 25.5438 17.9145 25.4243 17.9557C25.2609 18.0078 25.0852 18.0067 24.9224 17.9525C24.8175 17.9154 24.7266 17.8469 24.6619 17.7564C24.5972 17.6659 24.5618 17.5578 24.5606 17.4465C24.5556 17.1834 24.5556 16.9198 24.5606 16.6559C24.564 16.5612 24.5922 16.4692 24.6424 16.3889C24.6926 16.3085 24.763 16.2428 24.8465 16.1982ZM24.85 16.4607C24.7491 16.5705 24.7659 16.728 24.7697 16.8655C25.0328 16.864 25.2972 16.8776 25.5603 16.8595C25.6179 16.8083 25.5919 16.7242 25.59 16.6574C25.5761 16.5142 25.4771 16.3785 25.332 16.3482C25.1675 16.3175 24.9651 16.32 24.85 16.4607Z" fill="#020202"/>
<path d="M26.1062 16.1316C26.1398 16.1297 26.1735 16.1297 26.2071 16.1316C26.2412 16.1692 26.2612 16.2828 26.3273 16.2224C26.475 16.1196 26.6609 16.1183 26.8333 16.1332C26.8333 16.1964 26.8333 16.2597 26.8333 16.3229C26.7359 16.3375 26.6362 16.3289 26.5401 16.3492C26.4791 16.3658 26.425 16.4014 26.3855 16.4508C26.3461 16.5002 26.3233 16.5608 26.3206 16.624C26.3149 17.0668 26.3244 17.5095 26.3171 17.9523C26.2767 18.0307 26.1694 17.9839 26.1046 17.9671C26.1008 17.3561 26.1097 16.7439 26.1062 16.1316Z" fill="#020202"/>
<path d="M27.2909 16.3077C27.455 16.1196 27.7311 16.099 27.961 16.1464C28.0911 16.1799 28.2048 16.2589 28.2814 16.3693C28.358 16.4796 28.3923 16.6138 28.3782 16.7473C28.3073 16.7527 28.2346 16.7635 28.1682 16.7328C28.1776 16.6696 28.169 16.6051 28.1434 16.5466C28.1179 16.4881 28.0764 16.438 28.0236 16.402C27.9237 16.3305 27.7937 16.3318 27.6758 16.3387C27.5104 16.3501 27.3535 16.4861 27.3529 16.6581C27.3443 16.9111 27.3468 17.1642 27.35 17.4191C27.3481 17.5272 27.3854 17.6404 27.4765 17.7059C27.5714 17.7878 27.7067 17.7862 27.8269 17.7818C27.8861 17.7811 27.9441 17.7655 27.9956 17.7363C28.047 17.7072 28.0903 17.6655 28.1214 17.6151C28.1669 17.5468 28.1631 17.4614 28.1846 17.3849C28.2422 17.3501 28.3178 17.3811 28.3823 17.3783C28.3894 17.4766 28.3711 17.5751 28.3293 17.6644C28.2875 17.7537 28.2236 17.8308 28.1435 17.8884C27.9898 17.9987 27.7883 18.0095 27.6059 17.9833C27.4791 17.9616 27.3636 17.897 27.2787 17.8005C27.1938 17.7039 27.1446 17.5811 27.1394 17.4526C27.135 17.2407 27.1419 17.0285 27.1375 16.8166C27.1299 16.636 27.1571 16.4396 27.2909 16.3077Z" fill="#020202"/>
<path d="M28.7491 16.4364C28.844 16.2358 29.0654 16.1173 29.2868 16.1261C29.5081 16.1084 29.7463 16.2039 29.856 16.4038C29.9825 16.6052 29.9193 16.8487 29.9325 17.0717C29.5926 17.0771 29.2523 17.0657 28.913 17.0777C28.8813 17.1837 28.9044 17.3029 28.899 17.4142C28.8933 17.5723 29.0006 17.7305 29.1577 17.7652C29.3149 17.8 29.5056 17.7943 29.6293 17.6764C29.7061 17.5935 29.7219 17.4771 29.7314 17.3696C29.7991 17.3658 29.8671 17.3642 29.9354 17.3627C29.9459 17.4823 29.919 17.6023 29.8584 17.7061C29.7978 17.8098 29.7064 17.8921 29.597 17.9417C29.4488 17.9959 29.2884 18.0074 29.134 17.9749C28.9025 17.9275 28.7106 17.7197 28.6966 17.4819C28.689 17.2804 28.6966 17.0787 28.6938 16.8772C28.6938 16.7302 28.6758 16.5723 28.7491 16.4364ZM28.9768 16.4658C28.882 16.5739 28.8984 16.7257 28.8959 16.8595C29.1637 16.868 29.4335 16.8775 29.7023 16.8548C29.7877 16.6628 29.6707 16.3788 29.4458 16.3446C29.2849 16.3181 29.0847 16.3241 28.9768 16.468V16.4658Z" fill="#020202"/>
<path d="M14.6176 16.1565C14.7486 16.1217 14.8857 16.116 15.0192 16.1397C15.2615 16.1853 15.462 16.406 15.468 16.6552C15.4762 16.8766 15.4708 17.098 15.4721 17.3194C15.4721 17.4402 15.4705 17.567 15.4133 17.6774C15.2124 18.0932 14.5161 18.1056 14.2985 17.6992C14.1954 17.5167 14.2352 17.2994 14.2273 17.0999C14.2346 16.9101 14.2077 16.7147 14.2529 16.5275C14.2783 16.4403 14.3249 16.3608 14.3886 16.2961C14.4522 16.2314 14.5309 16.1834 14.6176 16.1565ZM14.7567 16.339C14.5932 16.3497 14.4452 16.4876 14.4405 16.6552C14.4316 16.9206 14.4332 17.1865 14.4405 17.4522C14.4439 17.533 14.4759 17.6099 14.5307 17.6693C14.5856 17.7288 14.6597 17.7668 14.74 17.7767C14.8696 17.7862 15.0164 17.7931 15.1258 17.7103C15.2188 17.6454 15.2621 17.5297 15.2624 17.4196C15.2687 17.208 15.2574 16.9962 15.2624 16.7849C15.2624 16.6682 15.2624 16.5354 15.1707 16.449C15.0648 16.3352 14.8997 16.3219 14.7567 16.339Z" fill="#020202"/>
<path d="M12.6084 6.01293C13.3244 6.00597 14.0404 6.00945 14.7564 6.01293C15.0727 6.34152 15.3823 6.67865 15.7068 7.00059C16.6201 7.95695 17.5373 8.9093 18.4582 9.85764C18.9914 10.4329 19.5467 10.9876 20.085 11.5581L20.0749 11.5676L20.1157 11.5847C20.1191 11.4701 20.1161 11.3555 20.1068 11.2413C20.1264 10.4743 20.117 9.70679 20.1226 8.93924C20.1213 8.85526 20.1107 8.77168 20.091 8.69003C20.187 8.32093 20.3411 7.96949 20.5477 7.64892C20.5281 7.78427 20.5388 7.92121 20.5369 8.05752C20.5369 9.4424 20.5398 10.8273 20.5369 12.2125C20.529 12.555 20.5331 12.8978 20.5369 13.2403C20.5398 13.4228 20.5455 13.6059 20.5369 13.7884L20.5078 13.8456C19.9658 13.2862 19.407 12.7428 18.8592 12.1891C18.1989 11.5322 17.5455 10.8684 16.8804 10.2169C16.3184 9.64101 15.7485 9.07206 15.1783 8.50407C15.1151 8.43892 15.0445 8.38136 14.9952 8.30515L14.9383 8.27004C14.6761 7.99332 14.4032 7.72735 14.1321 7.4598C14.1214 8.11792 14.1372 8.77637 14.1242 9.43418C14.1242 9.46896 14.1204 9.81716 14.1315 10.0012C14.1429 10.3725 14.1144 10.7454 14.1423 11.1157C14.1125 11.3595 14.1337 11.6059 14.1271 11.851C14.1359 12.0575 14.1119 12.2659 14.1432 12.4712C14.0284 12.6851 13.8661 12.87 13.6688 13.0117C13.6859 12.8674 13.7169 12.7248 13.7128 12.579C13.7109 11.9149 13.7128 11.2523 13.7109 10.5891C13.709 10.3463 13.7055 10.1031 13.7125 9.86175C13.7125 9.80166 13.7147 9.75549 13.7147 9.6992C13.7052 9.17738 13.722 8.65556 13.7084 8.13405C13.7052 8.02621 13.7058 7.91868 13.7084 7.81115C13.7109 7.6078 13.7289 7.40413 13.716 7.2011C13.6974 6.9067 13.5813 6.62686 13.3861 6.40572C13.1862 6.17959 12.8984 6.05847 12.6084 6.01293Z" fill="#FFBE00"/>
<path d="M19.037 6.01544C19.8719 6.0069 20.7071 6.00468 21.5417 6.01544C21.2887 6.10842 20.9965 6.20519 20.8488 6.44871C20.5796 6.5811 20.3208 6.73388 20.0749 6.90569C20.0335 6.74029 19.9335 6.59735 19.8361 6.46041C19.631 6.22195 19.3477 6.06423 19.037 6.01544Z" fill="#FFBE00"/>
<path d="M13.3927 13.8172C13.7653 13.7707 14.1217 13.6417 14.456 13.4747L14.4686 13.4728C14.5917 13.6037 14.7432 13.7047 14.9114 13.7678C14.9645 13.7906 15.0268 13.7995 15.0632 13.8498C14.4996 13.8703 13.5838 13.8526 13.0196 13.8586L13.3927 13.8172Z" fill="#FFBE00"/>
</svg>
