<svg width="58" height="40" viewBox="0 0 58 40" fill="none" xmlns="http://www.w3.org/2000/svg">
<path d="M12.2034 9.02146C14.1411 9.00001 16.0805 9.01798 18.0188 9.01219C18.9395 9.0203 19.862 8.99595 20.7821 9.02378C21.3138 9.10727 21.8414 9.32934 22.2038 9.73868C22.5617 10.1441 22.7744 10.6571 22.8085 11.1969C22.8323 11.5691 22.7992 11.9425 22.7946 12.3153C22.7226 11.8465 22.532 11.4038 22.2409 11.0293C21.6495 10.2947 20.7972 9.79086 19.884 9.57111C18.7992 9.29861 17.6715 9.40587 16.5652 9.3879C16.48 9.37862 16.3472 9.40587 16.3704 9.52183C16.3704 11.5917 16.3704 13.6628 16.3704 15.7327C16.3443 15.8585 16.4956 15.8179 16.5664 15.8283C17.8744 15.8046 19.2393 15.9646 20.4841 15.4642C21.2657 15.1476 22.0026 14.6357 22.4427 13.9028C22.6194 13.5946 22.7403 13.2576 22.7998 12.9073C22.8247 13.8634 22.794 14.8206 22.8114 15.7767C22.6409 15.8347 22.4716 15.902 22.3064 15.9744C22.4728 16.011 22.6398 16.044 22.8073 16.0747C22.7946 16.5194 22.801 16.9653 22.8044 17.4083C22.2339 17.01 21.6228 16.6592 20.9491 16.4713C20.0794 16.2035 19.1575 16.2011 18.2542 16.2052C17.6286 16.2098 17.003 16.1982 16.3779 16.2168C16.3704 18.445 16.3779 20.6737 16.3745 22.9025C16.3426 23.0265 16.484 23.0184 16.5658 23.0184C17.3775 23.0184 18.1892 23.0184 19.001 23.0184C20.3171 23.0109 21.6767 22.6734 22.7262 21.8496C23.0878 21.5899 23.3853 21.251 23.5959 20.8587C24.0441 20.113 24.0719 19.1135 23.5959 18.3736C23.5449 17.6947 23.5959 17.0111 23.5762 16.3304C24.4459 16.6667 25.2442 17.2448 25.7435 18.0432C25.9879 18.4212 26.1437 18.8498 26.199 19.2966C26.2543 19.7434 26.2078 20.197 26.0629 20.6233C25.751 21.5382 25.0002 22.2351 24.1768 22.7013C23.564 23.0074 22.9106 23.244 22.2275 23.3292C21.871 23.3652 21.515 23.4173 21.1555 23.4104C18.1405 23.405 15.1256 23.4038 12.1106 23.4069C12.6394 23.2857 13.1693 23.0666 13.5282 22.6427C13.9042 22.202 14.1062 21.6391 14.0964 21.0599C14.0964 18.2575 14.0964 15.4551 14.0964 12.6528C14.0964 12.1309 14.1167 11.6051 14.0802 11.0832C14.0485 10.7037 13.9212 10.3385 13.7102 10.0214C13.4992 9.70441 13.2114 9.44597 12.8736 9.2702C12.666 9.14728 12.4248 9.10901 12.2034 9.02146Z" fill="#020202"/>
<path d="M35.8894 9.82274C38.2805 8.73329 41.1429 8.72981 43.5114 9.87608C43.6227 9.9213 43.77 10.0204 43.875 9.90565C44.1846 9.61111 44.4843 9.30382 44.7829 9C44.7644 10.551 44.7905 12.1031 44.7696 13.6541C44.7232 13.5744 44.6859 13.4898 44.6583 13.4018C44.3046 12.4162 43.741 11.4955 42.9728 10.7777C42.335 10.1735 41.5505 9.70446 40.6872 9.5108C39.6513 9.26917 38.5634 9.39992 37.6143 9.88014C36.6709 10.3684 35.8818 11.1094 35.3351 12.0202C34.957 12.6078 34.675 13.2519 34.4996 13.9283C34.1187 15.1366 34.0937 16.4394 34.2972 17.6837C34.3396 17.9817 34.4404 18.2675 34.4828 18.5656L34.5303 18.6056C34.5473 18.815 34.5527 19.0252 34.5465 19.2352L34.4718 19.2039L34.4903 19.1865C33.5046 18.1429 32.4854 17.1236 31.5078 16.0689C31.5559 14.9128 31.8818 13.7631 32.5004 12.782C33.0131 11.9531 33.6827 11.2322 34.4718 10.66C34.9223 10.3452 35.3962 10.0653 35.8894 9.82274Z" fill="#020202"/>
<path d="M23.5715 11.6735C24.0684 12.164 24.5688 12.6516 25.0494 13.1589C24.8691 13.8396 24.5496 14.5319 23.9797 14.9679C23.8527 15.0618 23.6277 15.2497 23.557 15.2932C23.5808 14.0872 23.5535 12.88 23.5715 11.6735Z" fill="#020202"/>
<path d="M44.6304 19.0885C44.6658 19.0027 44.6884 18.9053 44.7661 18.8456C44.7823 20.3594 44.7702 21.8739 44.7725 23.3877C44.4518 23.1106 44.1706 22.7905 43.8645 22.4977C43.7899 22.4181 43.7126 22.4181 43.6326 22.4977C42.6968 22.9256 41.7059 23.2486 40.6756 23.3506C38.9565 23.5373 37.1771 23.2532 35.6314 22.467C35.5235 22.4027 35.3855 22.3754 35.3084 22.271C35.3044 21.6431 35.2968 21.0146 35.3084 20.3867C35.8778 21.2715 36.642 22.0501 37.587 22.5285C38.4521 22.9644 39.4321 23.1183 40.3892 22.9685C41.4468 22.7992 42.397 22.2252 43.1427 21.4796C43.7983 20.7938 44.3048 19.9797 44.6304 19.0885Z" fill="#020202"/>
<path d="M5.01094 26.4318C5.1356 26.4457 5.37506 26.3645 5.37969 26.5616C5.39767 26.9675 5.37969 27.3734 5.38723 27.7792C5.72178 27.5473 6.15199 27.5195 6.53872 27.6099C6.96603 27.7259 7.29246 28.1503 7.27564 28.5956C7.27564 29.0594 7.27912 29.5233 7.27564 29.9871C7.26935 30.2027 7.19501 30.4108 7.06327 30.5816C6.93153 30.7524 6.74914 30.8771 6.54219 30.938C6.10271 31.0481 5.56755 30.996 5.25736 30.6301C5.08546 30.4388 4.99516 30.1878 5.00572 29.9309C5.0063 28.7649 4.98949 27.5977 5.01094 26.4318ZM5.99312 27.9532C5.82897 27.9608 5.67438 28.0326 5.5626 28.1531C5.45082 28.2735 5.39076 28.433 5.39535 28.5973C5.39535 29.0414 5.37969 29.4856 5.38723 29.9309C5.38085 30.1628 5.49797 30.4069 5.71134 30.5136C5.89166 30.622 6.11024 30.6029 6.31143 30.5907C6.46555 30.5791 6.6101 30.5115 6.71777 30.4006C6.82545 30.2897 6.8888 30.1432 6.89587 29.9888C6.91037 29.5436 6.90167 29.0983 6.89993 28.6553C6.90641 28.5539 6.89009 28.4522 6.85217 28.3579C6.81424 28.2636 6.75567 28.179 6.68077 28.1103C6.49639 27.9398 6.22794 27.9346 5.99312 27.9532Z" fill="#020202"/>
<path d="M13.5346 26.434C13.654 26.4243 13.7741 26.4321 13.8912 26.4572C13.9231 26.7471 13.9051 27.037 13.9092 27.3228C13.9092 28.5027 13.9126 29.6826 13.9092 30.8596C13.9051 31.0527 13.6361 30.99 13.5247 30.9286C13.5358 29.4321 13.5114 27.9322 13.5346 26.434Z" fill="#020202"/>
<path d="M8.71415 27.5948C8.97912 27.5501 9.2638 27.5409 9.51717 27.6446C9.85578 27.7739 10.1144 28.1085 10.1167 28.4784C10.1265 29.3104 10.1167 30.143 10.1167 30.9756C9.93695 31.0469 9.86389 30.8765 9.80533 30.7437C9.56877 30.8852 9.30902 31.0098 9.02608 30.9994C8.69907 30.9884 8.34076 30.9176 8.10768 30.6683C7.85314 30.3958 7.78647 29.9894 7.87112 29.6345C7.92248 29.4398 8.03248 29.2657 8.18618 29.1356C8.33989 29.0055 8.52988 28.9259 8.73038 28.9075C9.06435 28.8802 9.39889 28.9075 9.73286 28.8924C9.73286 28.6419 9.77634 28.3508 9.59197 28.1491C9.37686 27.9085 9.00057 27.9096 8.71067 27.9943C8.48281 28.0656 8.36279 28.2842 8.32626 28.5091C8.20218 28.5144 8.07869 28.5144 7.95461 28.5091C7.96025 28.2936 8.03823 28.0862 8.176 27.9204C8.31376 27.7545 8.50331 27.6399 8.71415 27.5948ZM8.44976 29.409C8.07289 29.7174 8.18131 30.4526 8.67472 30.5767C9.00753 30.6214 9.4505 30.6544 9.64531 30.3141C9.80649 29.9969 9.70793 29.6212 9.72938 29.2791C9.43948 29.2722 9.14958 29.271 8.85968 29.2756C8.71156 29.2701 8.56629 29.3174 8.44976 29.409Z" fill="#020202"/>
<path d="M10.682 27.5682C10.7481 27.5653 10.8142 27.5635 10.8803 27.5624C10.9185 27.6493 10.9568 27.7363 10.9962 27.8233C11.2409 27.6638 11.5111 27.5177 11.8138 27.5334C12.3733 27.5189 12.9467 27.9508 12.9565 28.537C12.9594 29.3429 12.9641 30.1494 12.9565 30.9554C12.8377 30.9554 12.7113 30.9861 12.5988 30.9345C12.5518 30.1373 12.6023 29.336 12.5721 28.5376C12.5673 28.421 12.529 28.3082 12.4621 28.2127C12.3951 28.1171 12.3021 28.0427 12.1941 27.9984C11.9956 27.9331 11.7841 27.918 11.5784 27.9543C11.4408 27.9804 11.3163 28.0525 11.2254 28.1589C11.1344 28.2652 11.0824 28.3994 11.078 28.5393C11.0617 29.3325 11.0832 30.1263 11.0693 30.9165C10.9957 31.0563 10.8008 30.9745 10.6837 30.9409C10.6675 29.8178 10.6889 28.693 10.682 27.5682Z" fill="#020202"/>
<path d="M15.2543 27.6905C15.361 27.4858 15.6196 27.5943 15.8016 27.5699C15.4485 28.0378 15.1128 28.519 14.7528 28.9823C14.6681 29.0925 14.4924 29.2328 14.6101 29.3812C15.016 29.903 15.4091 30.4364 15.7895 30.9768C15.6207 30.9612 15.3772 31.058 15.2676 30.88C14.8809 30.3448 14.4878 29.8155 14.0976 29.2832C14.4681 28.7417 14.8734 28.2245 15.2543 27.6905Z" fill="#020202"/>
<path d="M18.0773 27.5537C18.2657 27.5073 18.333 27.6818 18.4026 27.8169C18.7307 27.56 19.1818 27.4574 19.5819 27.5942C20.0167 27.7206 20.36 28.1335 20.3461 28.5973C20.3385 29.3852 20.3658 30.1749 20.3356 30.9623C20.2197 30.942 19.9982 31.033 19.9703 30.8678C19.9524 30.1141 19.9703 29.3557 19.9611 28.6002C19.957 28.3973 19.8776 28.1856 19.7054 28.0674C19.499 27.9265 19.234 27.9253 18.9951 27.9514C18.8425 27.9752 18.7038 28.0541 18.6052 28.173C18.5067 28.292 18.455 28.4429 18.46 28.5973C18.46 29.3829 18.46 30.1686 18.46 30.9542C18.338 30.9946 18.2066 30.9972 18.0831 30.9617C18.0431 30.6185 18.0715 30.2723 18.0628 29.9279C18.0692 29.1365 18.0582 28.3451 18.0773 27.5537Z" fill="#020202"/>
<path d="M21.0448 28.0859C21.2332 27.7426 21.6246 27.5519 22.0125 27.5641C22.4033 27.5328 22.819 27.6974 23.0248 28.043C23.2434 28.359 23.1779 28.7579 23.1883 29.1191C23.1953 29.2008 23.1842 29.329 23.066 29.3011C22.4862 29.3046 21.9064 29.2924 21.3266 29.3069L21.2947 29.3301C21.3092 29.678 21.2031 30.0839 21.4472 30.3738C21.6576 30.6243 22.02 30.6179 22.3169 30.5779C22.6503 30.5048 22.83 30.1581 22.8161 29.8369C22.932 29.8369 23.0445 29.8369 23.1593 29.8369C23.2428 30.1111 23.1083 30.4086 22.9367 30.6231C22.6618 30.9553 22.1905 31.0324 21.7846 30.9675C21.33 30.9037 20.9369 30.5037 20.9149 30.0398C20.8952 29.6745 20.9079 29.3081 20.905 28.9422C20.9097 28.6552 20.8865 28.3422 21.0448 28.0859ZM21.4906 28.1323C21.2587 28.3271 21.2958 28.6471 21.2929 28.9167C21.7927 28.9237 22.2943 28.9388 22.7935 28.9075C22.8155 28.6726 22.8329 28.4106 22.6816 28.2117C22.4033 27.8586 21.8211 27.854 21.4906 28.1334V28.1323Z" fill="#020202"/>
<path d="M28.4929 27.992C28.7752 27.574 29.3399 27.5021 29.7986 27.6001C30.0379 27.661 30.2471 27.8064 30.3876 28.0095C30.528 28.2126 30.5902 28.4597 30.5627 28.7052C30.4439 28.7052 30.325 28.7052 30.2062 28.7052C30.2062 28.4106 30.0682 28.0853 29.7667 27.9926C29.4681 27.9178 29.0982 27.9068 28.8633 28.1375C28.7068 28.2854 28.6726 28.5103 28.6755 28.7173C28.6755 29.1417 28.6656 29.5662 28.6819 29.9929C28.6885 30.1417 28.7479 30.2833 28.8493 30.3923C28.9508 30.5014 29.0877 30.5709 29.2356 30.5883C29.482 30.6098 29.7638 30.6283 29.9615 30.4492C30.147 30.3066 30.1888 30.0648 30.2108 29.8462C30.3308 29.8462 30.4508 29.8462 30.572 29.8462C30.5899 30.0604 30.5432 30.2751 30.4381 30.4625C30.0322 31.1652 28.8442 31.171 28.4378 30.4683C28.2308 30.1309 28.3125 29.7215 28.298 29.3476C28.3236 28.8971 28.2001 28.3857 28.4929 27.992Z" fill="#020202"/>
<path d="M31.9607 27.5907C32.257 27.5496 32.5793 27.538 32.8536 27.6789C33.0221 27.7651 33.1636 27.896 33.2627 28.0573C33.3618 28.2185 33.4146 28.4039 33.4154 28.5932C33.42 28.9991 33.4108 29.4049 33.42 29.8108C33.4305 30.1337 33.3406 30.4758 33.0953 30.7002C32.8002 30.9901 32.3474 31.0319 31.9584 30.9611C31.5084 30.8759 31.1426 30.455 31.1467 29.9934C31.142 29.5093 31.1385 29.0257 31.1467 28.5439C31.1426 28.0824 31.5142 27.6696 31.9607 27.5907ZM32.0836 27.9543C31.9278 27.9762 31.785 28.053 31.6808 28.1709C31.5767 28.2888 31.518 28.44 31.5154 28.5973C31.5253 29.0611 31.5044 29.5215 31.5206 29.983C31.5259 30.1009 31.5637 30.215 31.6299 30.3126C31.6962 30.4103 31.7882 30.4877 31.8958 30.5361C32.0697 30.6098 32.2651 30.5982 32.4512 30.5901C32.733 30.5698 33.0101 30.3413 33.0153 30.0456C33.0612 29.4936 33.0565 28.9386 33.0014 28.3874C32.8976 28.0012 32.4315 27.8946 32.0819 27.9543H32.0836Z" fill="#020202"/>
<path d="M33.9813 27.5664C34.1419 27.5281 34.2294 27.6371 34.2897 27.7687C34.6115 27.5872 34.9953 27.4962 35.3571 27.6081C35.5577 27.6487 35.7097 27.7902 35.8732 27.9026C36.2709 27.5107 36.9481 27.4388 37.4073 27.7652C37.5172 27.8492 37.6066 27.9571 37.6689 28.0806C37.7311 28.2041 37.7646 28.3401 37.7668 28.4784C37.7668 29.3052 37.7668 30.1325 37.7697 30.9599C37.6493 30.9966 37.5205 30.9951 37.4009 30.9559C37.3795 30.1499 37.4009 29.3429 37.3893 28.5369C37.3934 28.2998 37.2629 28.047 37.0235 27.9792C36.7434 27.8992 36.3782 27.9055 36.1845 28.1566C36.0992 28.2645 36.0589 28.4012 36.072 28.5381C36.072 29.3115 36.072 30.085 36.0749 30.8573C36.0848 31.0492 35.825 30.997 35.7114 30.9547C35.6714 30.8695 35.6847 30.7721 35.6795 30.6822C35.6795 29.9464 35.6836 29.2101 35.6795 28.4743C35.6772 28.3509 35.6326 28.232 35.5531 28.1375C35.4736 28.0431 35.3641 27.9788 35.2429 27.9554C34.9977 27.9119 34.7031 27.9148 34.5187 28.1079C34.3918 28.2349 34.3599 28.4198 34.3622 28.5926C34.3622 29.3081 34.3622 30.0241 34.3662 30.7379C34.3653 30.8254 34.3544 30.9125 34.3338 30.9976C34.2169 30.9904 34.1007 30.9753 33.9859 30.9524C33.9528 29.8258 33.99 28.6958 33.9813 27.5664Z" fill="#020202"/>
<path d="M38.3333 27.5704C38.3965 27.5704 38.4597 27.5704 38.5234 27.5762C38.5623 27.644 38.5973 27.7139 38.6284 27.7855C38.8481 27.7026 39.054 27.5646 39.2975 27.5617C39.6454 27.5275 39.9805 27.6991 40.2286 27.9345C40.3558 27.7885 40.5193 27.6788 40.7027 27.6166C40.886 27.5543 41.0825 27.5418 41.2723 27.5803C41.7309 27.6081 42.1269 28.018 42.1188 28.4807C42.1234 29.3141 42.1234 30.1471 42.1188 30.9796C41.9957 31.0045 41.8682 30.9951 41.7501 30.9524C41.739 30.2056 41.7309 29.4577 41.7501 28.7109C41.764 28.4656 41.7019 28.1786 41.4781 28.0424C41.1262 27.8377 40.5307 27.9421 40.4374 28.3903C40.4101 29.2542 40.449 30.1215 40.4188 30.9866C40.2872 30.9941 40.1515 31.0023 40.0344 30.9344C40.0304 30.1337 40.0344 29.3336 40.0344 28.5335C40.0483 28.2714 39.8605 28.0082 39.5932 27.9705C39.3276 27.9125 38.9954 27.9374 38.829 28.1821C38.6927 28.3485 38.7304 28.5735 38.7206 28.7723C38.7206 29.4298 38.7171 30.0879 38.727 30.7437C38.7142 30.8219 38.7432 30.9379 38.6632 30.9866C38.5518 30.9986 38.4391 30.9857 38.3333 30.9489C38.3182 29.8229 38.342 28.697 38.3333 27.5704Z" fill="#020202"/>
<path d="M43.2187 27.6968C43.4877 27.549 43.8089 27.5495 44.1058 27.5808C44.3267 27.6173 44.5298 27.725 44.6838 27.8876C44.8379 28.0502 44.9346 28.2586 44.9592 28.4813C44.976 28.7515 44.965 29.0228 44.9644 29.293C44.3371 29.3185 43.7086 29.293 43.0807 29.3069C43.0772 29.5841 43.0494 29.8653 43.0986 30.1401C43.1372 30.2704 43.2164 30.3851 43.3246 30.4672C43.4329 30.5494 43.5646 30.5949 43.7005 30.597C43.9324 30.6097 44.1979 30.601 44.3794 30.4306C44.5534 30.2839 44.5684 30.0456 44.6038 29.8386C44.7198 29.8386 44.8357 29.8386 44.9517 29.8386C44.9803 30.0686 44.9289 30.3014 44.8063 30.4981C44.6836 30.6948 44.4971 30.8433 44.278 30.9188C43.9784 31.0143 43.6562 31.0122 43.3578 30.913C43.1655 30.8449 42.9988 30.7194 42.8802 30.5535C42.7615 30.3876 42.6967 30.1892 42.6945 29.9853C42.6852 29.5029 42.6852 29.0197 42.6945 28.5358C42.7008 28.3623 42.7525 28.1935 42.8445 28.0463C42.9365 27.899 43.0655 27.7785 43.2187 27.6968ZM43.225 28.178C43.0401 28.3792 43.0708 28.668 43.0778 28.9202C43.5602 28.9173 44.0449 28.9422 44.5273 28.9092C44.6328 28.8152 44.5852 28.661 44.5818 28.5387C44.5563 28.276 44.3748 28.0273 44.1087 27.9716C43.8072 27.9154 43.4361 27.92 43.225 28.178Z" fill="#020202"/>
<path d="M45.528 27.5744C45.5896 27.571 45.6513 27.571 45.7129 27.5744C45.7756 27.6434 45.8121 27.8516 45.9333 27.7408C46.2041 27.5524 46.545 27.5501 46.861 27.5773C46.861 27.6933 46.861 27.8093 46.861 27.9252C46.6824 27.9519 46.4998 27.9362 46.3235 27.9733C46.2117 28.0038 46.1124 28.0691 46.0401 28.1596C45.9678 28.2502 45.9261 28.3614 45.9211 28.4772C45.9107 29.2889 45.9281 30.1006 45.9147 30.9124C45.8405 31.0562 45.6439 30.9703 45.5251 30.9396C45.5181 29.8194 45.5344 28.6969 45.528 27.5744Z" fill="#020202"/>
<path d="M47.6999 27.8975C48.0008 27.5525 48.507 27.5148 48.9285 27.6018C49.167 27.663 49.3755 27.808 49.5159 28.0103C49.6563 28.2125 49.7192 28.4586 49.6933 28.7034C49.5634 28.7132 49.43 28.733 49.3083 28.6767C49.3255 28.561 49.3098 28.4427 49.2629 28.3354C49.2161 28.2282 49.14 28.1363 49.0433 28.0703C48.8601 27.9392 48.6218 27.9415 48.4055 27.9543C48.1023 27.9752 47.8147 28.2245 47.8135 28.5399C47.7979 29.0037 47.8025 29.4676 47.8083 29.9349C47.8048 30.1332 47.8733 30.3408 48.0402 30.4608C48.2142 30.6109 48.4623 30.608 48.6827 30.5999C48.7911 30.5986 48.8975 30.57 48.9918 30.5165C49.0862 30.4631 49.1656 30.3867 49.2225 30.2944C49.306 30.1691 49.299 30.0126 49.3384 29.8723C49.4439 29.8085 49.5825 29.8653 49.7008 29.8601C49.7138 30.0404 49.6804 30.221 49.6038 30.3847C49.5271 30.5484 49.4098 30.6898 49.2631 30.7953C48.9813 30.9977 48.6119 31.0174 48.2774 30.9693C48.045 30.9295 47.8333 30.8112 47.6776 30.6341C47.522 30.457 47.4318 30.2319 47.4222 29.9963C47.4141 29.6079 47.4268 29.2188 47.4187 28.8304C47.4048 28.4993 47.4546 28.1392 47.6999 27.8975Z" fill="#020202"/>
<path d="M50.3734 28.1334C50.5474 27.7658 50.9532 27.5484 51.3591 27.5646C51.7649 27.5321 52.2015 27.7072 52.4027 28.0737C52.6346 28.443 52.5186 28.8894 52.543 29.2982C51.9197 29.3081 51.2959 29.2872 50.6738 29.3092C50.6158 29.5035 50.6581 29.722 50.6482 29.9261C50.6378 30.216 50.8344 30.5059 51.1225 30.5697C51.4107 30.6335 51.7603 30.623 51.987 30.4068C52.1279 30.2549 52.1569 30.0415 52.1743 29.8444C52.2983 29.8374 52.423 29.8345 52.5482 29.8316C52.5675 30.051 52.5182 30.271 52.407 30.4612C52.2959 30.6514 52.1285 30.8023 51.9278 30.8932C51.6562 30.9926 51.3621 31.0137 51.079 30.9541C50.6546 30.8671 50.3027 30.4862 50.2772 30.0502C50.2633 29.6809 50.2772 29.311 50.272 28.9416C50.272 28.672 50.2389 28.3827 50.3734 28.1334ZM50.7909 28.1873C50.6169 28.3856 50.6471 28.6639 50.6424 28.9092C51.1335 28.9248 51.6281 28.9422 52.1209 28.9005C52.2775 28.5485 52.0629 28.0279 51.6507 27.9652C51.3556 27.9165 50.9886 27.9276 50.7909 28.1914V28.1873Z" fill="#020202"/>
<path d="M24.4656 27.6203C24.7059 27.5566 24.9572 27.5461 25.2019 27.5896C25.6461 27.6731 26.0136 28.0778 26.0247 28.5347C26.0397 28.9405 26.0299 29.3464 26.0322 29.7522C26.0322 29.9737 26.0293 30.2062 25.9244 30.4086C25.5562 31.171 24.2795 31.1936 23.8806 30.4486C23.6916 30.114 23.7646 29.7157 23.7501 29.3499C23.7634 29.002 23.7142 28.6437 23.7971 28.3004C23.8436 28.1406 23.9291 27.9949 24.0457 27.8762C24.1624 27.7575 24.3066 27.6696 24.4656 27.6203ZM24.7207 27.9549C24.4209 27.9746 24.1496 28.2274 24.1409 28.5347C24.1247 29.0211 24.1276 29.5087 24.1409 29.9958C24.1472 30.1439 24.2058 30.2849 24.3064 30.3938C24.4069 30.5028 24.5428 30.5725 24.69 30.5906C24.9277 30.608 25.1967 30.6208 25.3973 30.4689C25.5678 30.35 25.6472 30.1378 25.6478 29.936C25.6594 29.5481 25.6385 29.1597 25.6478 28.7724C25.6478 28.5584 25.6478 28.3149 25.4797 28.1566C25.2854 27.9479 24.9828 27.9235 24.7207 27.9549Z" fill="#020202"/>
<path d="M20.7821 9.02372C22.0948 9.01097 23.4074 9.01734 24.7201 9.02372C25.2999 9.62614 25.8675 10.2442 26.4624 10.8344C28.1369 12.5878 29.8183 14.3337 31.5067 16.0724C32.4842 17.127 33.5024 18.144 34.4892 19.19L34.4706 19.2073L34.5454 19.2387C34.5516 19.0286 34.5462 18.8184 34.5292 18.609C34.5651 17.203 34.5477 15.7958 34.5582 14.3886C34.5557 14.2347 34.5363 14.0814 34.5002 13.9317C34.6761 13.2551 34.9587 12.6107 35.3374 12.023C35.3015 12.2712 35.3212 12.5222 35.3177 12.7721C35.3177 15.3111 35.3229 17.85 35.3177 20.3896C35.3032 21.0175 35.3108 21.646 35.3177 22.2739C35.3229 22.6085 35.3334 22.9442 35.3177 23.2787L35.2644 23.3837C34.2706 22.358 33.2461 21.3619 32.2419 20.3467C31.0312 19.1424 29.8334 17.9254 28.6141 16.731C27.5837 15.6752 26.5389 14.6321 25.4936 13.5908C25.3776 13.4714 25.2483 13.3659 25.1579 13.2261L25.0535 13.1618C24.5728 12.6544 24.0725 12.1668 23.5756 11.6763C23.5559 12.8829 23.5849 14.09 23.5611 15.296C23.5611 15.3598 23.5541 15.9981 23.5744 16.3356C23.5953 17.0163 23.5431 17.6999 23.5941 18.3788C23.5396 18.8258 23.5785 19.2775 23.5663 19.7268C23.5825 20.1055 23.5385 20.4875 23.5959 20.8638C23.3853 21.2561 23.0878 21.595 22.7262 21.8547C22.7575 21.5903 22.8143 21.3288 22.8068 21.0615C22.8033 19.844 22.8068 18.6293 22.8033 17.4134C22.7998 16.9682 22.7934 16.5223 22.8062 16.0799C22.8062 15.9697 22.8102 15.8851 22.8102 15.7819C22.7929 14.8252 22.8236 13.8685 22.7987 12.9124C22.7929 12.7147 22.794 12.5176 22.7987 12.3205C22.8033 11.9477 22.8363 11.5743 22.8126 11.202C22.7785 10.6623 22.5657 10.1493 22.2078 9.74383C21.8414 9.32928 21.3138 9.10721 20.7821 9.02372Z" fill="#FFBE00"/>
<path d="M32.5677 9.02844C34.0984 9.01279 35.6297 9.00873 37.1598 9.02844C36.6959 9.1989 36.1602 9.37632 35.8894 9.82277C35.3958 10.0655 34.9215 10.3456 34.4706 10.6606C34.3947 10.3573 34.2115 10.0953 34.0329 9.84422C33.6568 9.40705 33.1375 9.11789 32.5677 9.02844Z" fill="#FFBE00"/>
<path d="M22.22 23.3315C22.903 23.2463 23.5564 23.0097 24.1693 22.7036L24.1925 22.7001C24.4181 22.9401 24.6958 23.1252 25.0042 23.241C25.1016 23.2828 25.2158 23.299 25.2825 23.3912C24.2493 23.4289 22.5702 23.3964 21.5358 23.4074L22.22 23.3315Z" fill="#FFBE00"/>
</svg>
