<svg width="46" height="32" viewBox="0 0 46 32" fill="none" xmlns="http://www.w3.org/2000/svg">
<path fill-rule="evenodd" clip-rule="evenodd" d="M6 14.4786L8.88589 18.1191L6 20.5104V14.4786Z" fill="#F15A23"/>
<path fill-rule="evenodd" clip-rule="evenodd" d="M7.1615 20.5104L9.33299 18.6938L10.8339 20.5104H7.1615Z" fill="#F15A23"/>
<path fill-rule="evenodd" clip-rule="evenodd" d="M6 12.5307L6.75311 13.4833L9.84962 17.3526L10.853 16.5536C10.853 16.5536 10.02 15.5729 9.4607 14.4786C8.36717 12.339 9.14136 11.007 9.14136 11.007H6V12.5307Z" fill="#F15A23"/>
<path fill-rule="evenodd" clip-rule="evenodd" d="M10.291 17.95L11.3128 17.106C11.3128 17.106 12.2888 18.3907 13.4205 18.6939C14.9034 19.0913 15.56 18.1191 15.56 18.1191V20.5105H12.3028L13.0372 19.8754C13.0372 19.8754 12.654 20.1309 11.7168 19.4818C11.1637 19.0986 10.291 17.95 10.291 17.95Z" fill="#F15A23"/>
<path fill-rule="evenodd" clip-rule="evenodd" d="M10.385 11C10.385 11 10.059 11.4441 10.291 12.5307C10.539 13.6921 11.5254 14.9213 11.5232 14.8938C11.5232 14.8938 11.5866 13.6732 12.3028 12.9569C13.8296 11.4302 15.5601 12.3391 15.5601 12.3391V11.007L10.385 11Z" fill="#F15A23"/>
<path fill-rule="evenodd" clip-rule="evenodd" d="M15.56 13.9486C15.56 13.9486 14.5945 13.1216 13.7551 13.1216C12.6813 13.1216 12.0952 14.0486 12.0952 14.7211C12.0952 15.7006 12.5654 16.2448 13.0373 16.7167C13.7154 17.3949 14.5404 18.1263 15.56 17.5376C15.56 16.4235 15.56 13.9486 15.56 13.9486Z" fill="#F15A23"/>
<path fill-rule="evenodd" clip-rule="evenodd" d="M26.5556 11.0996H28.8339C28.8339 11.0996 30.8523 14.1556 31.8442 15.4182C32.8361 16.6809 33.9038 18.119 33.9038 18.119C33.9038 18.119 33.9038 13.9485 33.9038 11.784C33.9038 11.5104 33.1854 11.0996 33.1854 11.0996H35.8126C35.8126 11.0996 34.9506 11.4538 34.9506 11.784C34.9506 14.4786 34.9506 21 34.9506 21C34.9506 21 34.1234 20.5413 33.1854 19.4513C32.1314 18.2266 28.3824 13.2824 28.3824 13.2824C28.3824 13.2824 28.3824 17.9499 28.3824 19.6863C28.3824 20.0143 29.1008 20.5104 29.1008 20.5104H26.5556C26.5556 20.5104 27.2535 20.0103 27.2535 19.6863C27.2535 17.3526 27.2535 13.9485 27.2535 11.784C27.2535 11.4932 26.5556 11.0996 26.5556 11.0996Z" fill="#005E6A"/>
<path fill-rule="evenodd" clip-rule="evenodd" d="M37.2841 11.0996H40.2082C40.2082 11.0996 39.423 11.4715 39.423 11.784C39.423 13.9485 39.423 17.5375 39.423 19.6863C39.423 20.0278 40.2082 20.5104 40.2082 20.5104H37.2841C37.2841 20.5104 38.0151 20.0168 38.0151 19.6863C38.0151 17.1059 38.0151 13.9485 38.0151 11.784C38.0151 11.4836 37.2841 11.0996 37.2841 11.0996Z" fill="#005E6A"/>
<path fill-rule="evenodd" clip-rule="evenodd" d="M17.9526 11.0996C17.9526 11.0996 18.7107 11.4776 18.7107 11.784C18.7107 13.9485 18.7107 17.1059 18.7107 19.6863C18.7107 20.0223 17.9526 20.5104 17.9526 20.5104C17.9526 20.5104 21.7399 20.5104 22.2846 20.5104C22.5554 20.5104 25.5877 20.0145 25.5877 17.6767C25.5877 15.3389 23.2322 15.12 23.2322 15.12C23.2322 15.12 24.6672 14.721 24.6672 13.1215C24.6672 11.3974 22.5554 11.0996 22.2846 11.0996C21.7219 11.0996 17.9526 11.0996 17.9526 11.0996ZM20.254 14.965V12.0229C20.254 12.0229 21.5097 12.0229 22.0139 12.0229C22.2846 12.0229 23.2322 12.339 23.2322 13.5119C23.2322 14.4786 22.2846 14.965 22.0139 14.965C21.4 14.965 20.254 14.965 20.254 14.965ZM20.254 15.7367C20.254 15.7367 22.0139 15.7367 22.2846 15.7367C22.5554 15.7367 24.1528 16.1516 24.1528 17.5375C24.1528 18.9506 22.5554 19.4513 22.2846 19.4513C22.0139 19.4513 20.254 19.4513 20.254 19.4513V15.7367Z" fill="#005E6A"/>
</svg>
