<svg width="58" height="40" viewBox="0 0 58 40" fill="none" xmlns="http://www.w3.org/2000/svg">
<path fill-rule="evenodd" clip-rule="evenodd" d="M8 18.1743L11.4631 22.5428L8 25.4125V18.1743Z" fill="#F15A23"/>
<path fill-rule="evenodd" clip-rule="evenodd" d="M9.3938 25.4125L11.9996 23.2327L13.8006 25.4125H9.3938Z" fill="#F15A23"/>
<path fill-rule="evenodd" clip-rule="evenodd" d="M8 15.8367L8.90373 16.9799L12.6195 21.6231L13.8236 20.6643C13.8236 20.6643 12.824 19.4875 12.1528 18.1743C10.8406 15.6068 11.7696 14.0083 11.7696 14.0083H8V15.8367Z" fill="#F15A23"/>
<path fill-rule="evenodd" clip-rule="evenodd" d="M13.1491 22.34L14.3754 21.3271C14.3754 21.3271 15.5465 22.8688 16.9045 23.2327C18.6841 23.7095 19.472 22.5429 19.472 22.5429V25.4126H15.5633L16.4447 24.6505C16.4447 24.6505 15.9848 24.9571 14.8602 24.1781C14.1964 23.7183 13.1491 22.34 13.1491 22.34Z" fill="#F15A23"/>
<path fill-rule="evenodd" clip-rule="evenodd" d="M13.262 14C13.262 14 12.8708 14.5329 13.1492 15.8368C13.4469 17.2305 14.6305 18.7055 14.6278 18.6725C14.6278 18.6725 14.7039 17.2078 15.5634 16.3483C17.3955 14.5163 19.4721 15.6069 19.4721 15.6069V14.0084L13.262 14Z" fill="#F15A23"/>
<path fill-rule="evenodd" clip-rule="evenodd" d="M19.472 17.5383C19.472 17.5383 18.3134 16.5459 17.3061 16.5459C16.0176 16.5459 15.3143 17.6583 15.3143 18.4653C15.3143 19.6407 15.8784 20.2938 16.4447 20.8601C17.2585 21.6738 18.2485 22.5515 19.472 21.8451C19.472 20.5082 19.472 17.5383 19.472 17.5383Z" fill="#F15A23"/>
<path fill-rule="evenodd" clip-rule="evenodd" d="M32.6667 14.1195H35.4007C35.4007 14.1195 37.8227 17.7867 39.013 19.3019C40.2033 20.817 41.4845 22.5428 41.4845 22.5428C41.4845 22.5428 41.4845 17.5382 41.4845 14.9408C41.4845 14.6125 40.6224 14.1195 40.6224 14.1195H43.7752C43.7752 14.1195 42.7407 14.5445 42.7407 14.9408C42.7407 18.1743 42.7407 25.9999 42.7407 25.9999C42.7407 25.9999 41.748 25.4495 40.6224 24.1415C39.3577 22.6719 34.8588 16.7388 34.8588 16.7388C34.8588 16.7388 34.8588 22.3399 34.8588 24.4236C34.8588 24.8172 35.7209 25.4125 35.7209 25.4125H32.6667C32.6667 25.4125 33.5042 24.8123 33.5042 24.4236C33.5042 21.6231 33.5042 17.5382 33.5042 14.9408C33.5042 14.5918 32.6667 14.1195 32.6667 14.1195Z" fill="#005E6A"/>
<path fill-rule="evenodd" clip-rule="evenodd" d="M45.5409 14.1195H49.0498C49.0498 14.1195 48.1076 14.5658 48.1076 14.9408C48.1076 17.5382 48.1076 21.845 48.1076 24.4236C48.1076 24.8334 49.0498 25.4125 49.0498 25.4125H45.5409C45.5409 25.4125 46.4181 24.8202 46.4181 24.4236C46.4181 21.327 46.4181 17.5382 46.4181 14.9408C46.4181 14.5803 45.5409 14.1195 45.5409 14.1195Z" fill="#005E6A"/>
<path fill-rule="evenodd" clip-rule="evenodd" d="M22.3431 14.1195C22.3431 14.1195 23.2529 14.5731 23.2529 14.9408C23.2529 17.5382 23.2529 21.327 23.2529 24.4236C23.2529 24.8267 22.3431 25.4125 22.3431 25.4125C22.3431 25.4125 26.8878 25.4125 27.5415 25.4125C27.8664 25.4125 31.5053 24.8174 31.5053 22.012C31.5053 19.2066 28.6787 18.9439 28.6787 18.9439C28.6787 18.9439 30.4006 18.4652 30.4006 16.5458C30.4006 14.4769 27.8664 14.1195 27.5415 14.1195C26.8663 14.1195 22.3431 14.1195 22.3431 14.1195ZM25.1048 18.758V15.2275C25.1048 15.2275 26.6116 15.2275 27.2166 15.2275C27.5415 15.2275 28.6787 15.6068 28.6787 17.0142C28.6787 18.1743 27.5415 18.758 27.2166 18.758C26.48 18.758 25.1048 18.758 25.1048 18.758ZM25.1048 19.684C25.1048 19.684 27.2166 19.684 27.5415 19.684C27.8664 19.684 29.7833 20.1819 29.7833 21.845C29.7833 23.5406 27.8664 24.1415 27.5415 24.1415C27.2166 24.1415 25.1048 24.1415 25.1048 24.1415V19.684Z" fill="#005E6A"/>
</svg>
