<svg width="34" height="24" viewBox="0 0 34 24" fill="none" xmlns="http://www.w3.org/2000/svg">
<path fill-rule="evenodd" clip-rule="evenodd" d="M3 10.7828L5.30871 13.6952L3 15.6083V10.7828Z" fill="#F15A23"/>
<path fill-rule="evenodd" clip-rule="evenodd" d="M3.9292 15.6083L5.66639 14.155L6.8671 15.6083H3.9292Z" fill="#F15A23"/>
<path fill-rule="evenodd" clip-rule="evenodd" d="M3 9.22457L3.60249 9.98669L6.07969 13.0822L6.8824 12.4429C6.8824 12.4429 6.21601 11.6584 5.76856 10.7829C4.89374 9.07129 5.51309 8.00562 5.51309 8.00562H3V9.22457Z" fill="#F15A23"/>
<path fill-rule="evenodd" clip-rule="evenodd" d="M6.43276 13.56L7.25026 12.8848C7.25026 12.8848 8.03104 13.9125 8.93636 14.1551C10.1227 14.473 10.648 13.6953 10.648 13.6953V15.6084H8.04222L8.6298 15.1004C8.6298 15.1004 8.32324 15.3047 7.57347 14.7854C7.13095 14.4789 6.43276 13.56 6.43276 13.56Z" fill="#F15A23"/>
<path fill-rule="evenodd" clip-rule="evenodd" d="M6.50797 8C6.50797 8 6.24717 8.35527 6.43281 9.22453C6.63123 10.1536 7.42036 11.137 7.41853 11.115C7.41853 11.115 7.46926 10.1386 8.04227 9.56555C9.26364 8.34417 10.6481 9.07125 10.6481 9.07125V8.00557L6.50797 8Z" fill="#F15A23"/>
<path fill-rule="evenodd" clip-rule="evenodd" d="M10.648 10.3589C10.648 10.3589 9.87562 9.69727 9.20409 9.69727C8.34506 9.69727 7.87617 10.4389 7.87617 10.9769C7.87617 11.7605 8.25229 12.1959 8.62981 12.5734C9.17232 13.1159 9.83233 13.701 10.648 13.2301C10.648 12.3388 10.648 10.3589 10.648 10.3589Z" fill="#F15A23"/>
<path fill-rule="evenodd" clip-rule="evenodd" d="M19.4445 8.07971H21.2672C21.2672 8.07971 22.8818 10.5245 23.6753 11.5346C24.4689 12.5447 25.323 13.6952 25.323 13.6952C25.323 13.6952 25.323 10.3588 25.323 8.62723C25.323 8.40834 24.7483 8.07971 24.7483 8.07971H26.8501C26.8501 8.07971 26.1604 8.36306 26.1604 8.62723C26.1604 10.7829 26.1604 16 26.1604 16C26.1604 16 25.4987 15.633 24.7483 14.7611C23.9052 13.7813 20.9059 9.82592 20.9059 9.82592C20.9059 9.82592 20.9059 13.56 20.9059 14.9491C20.9059 15.2115 21.4806 15.6083 21.4806 15.6083H19.4445C19.4445 15.6083 20.0028 15.2083 20.0028 14.9491C20.0028 13.0821 20.0028 10.3588 20.0028 8.62723C20.0028 8.39457 19.4445 8.07971 19.4445 8.07971Z" fill="#005E6A"/>
<path fill-rule="evenodd" clip-rule="evenodd" d="M28.0273 8.07971H30.3665C30.3665 8.07971 29.7384 8.37725 29.7384 8.62723C29.7384 10.3588 29.7384 13.2301 29.7384 14.9491C29.7384 15.2223 30.3665 15.6083 30.3665 15.6083H28.0273C28.0273 15.6083 28.6121 15.2135 28.6121 14.9491C28.6121 12.8847 28.6121 10.3588 28.6121 8.62723C28.6121 8.38689 28.0273 8.07971 28.0273 8.07971Z" fill="#005E6A"/>
<path fill-rule="evenodd" clip-rule="evenodd" d="M12.5621 8.07971C12.5621 8.07971 13.1686 8.38211 13.1686 8.62723C13.1686 10.3588 13.1686 12.8847 13.1686 14.9491C13.1686 15.2178 12.5621 15.6083 12.5621 15.6083C12.5621 15.6083 15.5919 15.6083 16.0277 15.6083C16.2443 15.6083 18.6702 15.2117 18.6702 13.3414C18.6702 11.4711 16.7858 11.296 16.7858 11.296C16.7858 11.296 17.9338 10.9768 17.9338 9.69724C17.9338 8.31797 16.2443 8.07971 16.0277 8.07971C15.5776 8.07971 12.5621 8.07971 12.5621 8.07971ZM14.4032 11.172V8.81836C14.4032 8.81836 15.4077 8.81836 15.8111 8.81836C16.0277 8.81836 16.7858 9.07125 16.7858 10.0095C16.7858 10.7829 16.0277 11.172 15.8111 11.172C15.32 11.172 14.4032 11.172 14.4032 11.172ZM14.4032 11.7894C14.4032 11.7894 15.8111 11.7894 16.0277 11.7894C16.2443 11.7894 17.5222 12.1213 17.5222 13.2301C17.5222 14.3605 16.2443 14.7611 16.0277 14.7611C15.8111 14.7611 14.4032 14.7611 14.4032 14.7611V11.7894Z" fill="#005E6A"/>
</svg>
