<svg width="28" height="20" viewBox="0 0 28 20" fill="none" xmlns="http://www.w3.org/2000/svg">
<path fill-rule="evenodd" clip-rule="evenodd" d="M2 8.44055L4.0247 10.9946L2 12.6724V8.44055Z" fill="#F15A23"/>
<path fill-rule="evenodd" clip-rule="evenodd" d="M2.81489 12.6724L4.33838 11.3979L5.39138 12.6724H2.81489Z" fill="#F15A23"/>
<path fill-rule="evenodd" clip-rule="evenodd" d="M2 7.07388L2.52837 7.74225L4.70084 10.4569L5.4048 9.89635C5.4048 9.89635 4.82039 9.20831 4.42798 8.44054C3.66077 6.93946 4.20394 6.00488 4.20394 6.00488H2V7.07388Z" fill="#F15A23"/>
<path fill-rule="evenodd" clip-rule="evenodd" d="M5.01048 10.876L5.72741 10.2838C5.72741 10.2838 6.41213 11.1852 7.20609 11.3979C8.24652 11.6767 8.70717 10.9946 8.70717 10.9946V12.6724H6.42194L6.93724 12.2268C6.93724 12.2268 6.66839 12.4061 6.01086 11.9506C5.62278 11.6818 5.01048 10.876 5.01048 10.876Z" fill="#F15A23"/>
<path fill-rule="evenodd" clip-rule="evenodd" d="M5.07643 6C5.07643 6 4.84772 6.31157 5.01052 7.07389C5.18453 7.88871 5.87658 8.75111 5.87497 8.7318C5.87497 8.7318 5.91946 7.87548 6.42198 7.37296C7.49311 6.30183 8.70722 6.93947 8.70722 6.93947V6.00489L5.07643 6Z" fill="#F15A23"/>
<path fill-rule="evenodd" clip-rule="evenodd" d="M8.70718 8.06861C8.70718 8.06861 8.0298 7.4884 7.44088 7.4884C6.68753 7.4884 6.27632 8.1388 6.27632 8.61059C6.27632 9.29779 6.60617 9.67964 6.93724 10.0107C7.41302 10.4865 7.99184 10.9996 8.70718 10.5866C8.70718 9.80496 8.70718 8.06861 8.70718 8.06861Z" fill="#F15A23"/>
<path fill-rule="evenodd" clip-rule="evenodd" d="M16.4215 6.06995H18.02C18.02 6.06995 19.436 8.21401 20.1319 9.09985C20.8278 9.98568 21.5769 10.9947 21.5769 10.9947C21.5769 10.9947 21.5769 8.0687 21.5769 6.55011C21.5769 6.35815 21.0729 6.06995 21.0729 6.06995H22.9161C22.9161 6.06995 22.3113 6.31843 22.3113 6.55011C22.3113 8.4406 22.3113 13.0159 22.3113 13.0159C22.3113 13.0159 21.731 12.6941 21.0729 11.9294C20.3335 11.0702 17.7032 7.60134 17.7032 7.60134C17.7032 7.60134 17.7032 10.8761 17.7032 12.0943C17.7032 12.3244 18.2072 12.6724 18.2072 12.6724H16.4215C16.4215 12.6724 16.9112 12.3216 16.9112 12.0943C16.9112 10.457 16.9112 8.0687 16.9112 6.55011C16.9112 6.34607 16.4215 6.06995 16.4215 6.06995Z" fill="#005E6A"/>
<path fill-rule="evenodd" clip-rule="evenodd" d="M23.9485 6.06995H26C26 6.06995 25.4491 6.33088 25.4491 6.55011C25.4491 8.0687 25.4491 10.5867 25.4491 12.0943C25.4491 12.3339 26 12.6724 26 12.6724H23.9485C23.9485 12.6724 24.4614 12.3261 24.4614 12.0943C24.4614 10.2839 24.4614 8.0687 24.4614 6.55011C24.4614 6.33934 23.9485 6.06995 23.9485 6.06995Z" fill="#005E6A"/>
<path fill-rule="evenodd" clip-rule="evenodd" d="M10.3858 6.06995C10.3858 6.06995 10.9177 6.33514 10.9177 6.55011C10.9177 8.0687 10.9177 10.2839 10.9177 12.0943C10.9177 12.33 10.3858 12.6724 10.3858 12.6724C10.3858 12.6724 13.0429 12.6724 13.4251 12.6724C13.615 12.6724 15.7425 12.3245 15.7425 10.6843C15.7425 9.04415 14.0899 8.89056 14.0899 8.89056C14.0899 8.89056 15.0967 8.61068 15.0967 7.48849C15.0967 6.2789 13.615 6.06995 13.4251 6.06995C13.0303 6.06995 10.3858 6.06995 10.3858 6.06995ZM12.0004 8.78187V6.71773C12.0004 6.71773 12.8814 6.71773 13.2351 6.71773C13.4251 6.71773 14.0899 6.93951 14.0899 7.76236C14.0899 8.4406 13.4251 8.78187 13.2351 8.78187C12.8045 8.78187 12.0004 8.78187 12.0004 8.78187ZM12.0004 9.32324C12.0004 9.32324 13.2351 9.32324 13.4251 9.32324C13.615 9.32324 14.7357 9.61435 14.7357 10.5867C14.7357 11.5781 13.615 11.9294 13.4251 11.9294C13.2351 11.9294 12.0004 11.9294 12.0004 11.9294V9.32324Z" fill="#005E6A"/>
</svg>
