<svg width="28" height="20" viewBox="0 0 28 20" fill="none" xmlns="http://www.w3.org/2000/svg">
<path d="M8.97262 4.99997H1.61586C0.723822 4.99997 0 5.74127 0 6.65689V13.9406C0 14.8478 0.709506 15.5845 1.59165 15.5975L8.96735 15.5977C9.85939 15.5977 10.5849 14.8562 10.5849 13.9406L10.5885 6.65689C10.5885 5.74127 9.86445 4.99997 8.97262 4.99997ZM2.49022 14.7486L2.08873 14.7535C1.6026 14.7535 1.21016 14.3532 1.21016 13.8614L1.20721 13.7905V7.06428L1.21016 6.70174C1.22974 6.22592 1.59081 5.84149 2.06451 5.84149H2.87992C3.62037 5.84149 4.21914 6.48467 4.21914 7.24218C4.21914 7.61841 4.07176 7.958 3.83344 8.20622L1.75271 10.3166L3.70375 12.3041C3.95428 12.5639 4.10587 12.9048 4.10587 13.2772C4.10587 14.0896 3.38394 14.7486 2.49022 14.7486ZM8.48839 14.7425L4.85054 14.7415C4.85054 14.7415 5.27119 13.8315 5.27119 13.2692C5.27119 12.5835 5.04191 11.9698 4.68295 11.5647L3.43931 10.296L4.70758 8.98521C5.08718 8.62856 5.33772 7.99758 5.33772 7.27987C5.33772 6.71121 5.18066 6.2074 4.92633 5.84149H5.80826C6.54809 5.84149 7.14748 6.48467 7.14748 7.24218C7.14748 7.61841 7.00074 7.958 6.76304 8.20622L4.72085 10.2952L8.96104 14.6194C8.82587 14.704 8.65702 14.7425 8.48839 14.7425ZM9.37579 13.3919L6.33671 10.2945L7.78393 8.82415C8.07889 8.45466 8.26669 7.89989 8.26669 7.27987C8.26669 6.70784 8.10668 6.19076 7.8513 5.82506L8.49828 5.84528C8.98357 5.84528 9.37832 6.24424 9.37832 6.73753L9.37579 13.3919Z" fill="#00529C"/>
<path d="M17.1092 9.80127C17.1684 9.74211 17.2383 9.6659 17.3189 9.57263C17.3993 9.47936 17.4755 9.36925 17.5475 9.24209C17.6195 9.11493 17.681 8.97324 17.7318 8.81639C17.7827 8.65975 17.8082 8.49237 17.8082 8.31447C17.8082 7.96729 17.7488 7.64328 17.6303 7.34242C17.5115 7.04178 17.3294 6.77903 17.0837 6.55439C16.838 6.33017 16.5311 6.15416 16.1624 6.027C15.794 5.90004 15.3639 5.83646 14.8727 5.83646H14.8592H13.4469H13.0793H11.6321V7.45632V13.0642V14.7318H15.1904C15.707 14.7318 16.158 14.6619 16.5437 14.5221C16.929 14.3823 17.249 14.1897 17.5031 13.944C17.7572 13.6983 17.9457 13.4124 18.0686 13.0863C18.1914 12.7601 18.2528 12.4107 18.2528 12.0378C18.2528 11.538 18.1385 11.0933 17.9099 10.7034C17.681 10.3139 17.4141 10.0131 17.1092 9.80127ZM15.5359 7.46643C15.6557 7.51212 15.7557 7.57149 15.8338 7.64623C16.0361 7.84034 16.1374 8.07235 16.1374 8.34226C16.1374 8.58711 16.095 8.78944 16.0108 8.94966C15.9264 9.11008 15.842 9.2324 15.7578 9.31662H13.2842V7.36137H14.8217C15.11 7.36137 15.3472 7.39695 15.5359 7.46643ZM15.2792 10.8561C15.727 10.8561 16.0588 10.9721 16.2748 11.2037C16.478 11.4317 16.5803 11.7007 16.5803 12.0121C16.5803 12.333 16.4643 12.6069 16.2323 12.8347C16.0001 13.0625 15.6186 13.1766 15.087 13.1766H14.8885H13.2842V10.8561H15.2792Z" fill="#00529C"/>
<path d="M24.2855 10.9005C24.5523 10.7184 24.7748 10.5066 24.9527 10.2651C25.1306 10.0236 25.2618 9.75685 25.3466 9.46463C25.4313 9.17219 25.4738 8.87365 25.4738 8.56859C25.4738 8.17046 25.4079 7.80413 25.2767 7.46938C25.1452 7.13484 24.9483 6.84682 24.6858 6.60534C24.423 6.36385 24.0948 6.17542 23.7009 6.03984C23.307 5.90446 22.8516 5.83646 22.3349 5.83646H22.2884H18.8657H18.8337V14.7318H20.5178V11.4279H21.4568L23.7792 14.7318H25.7532L23.3516 11.3136C23.7072 11.2205 24.0186 11.0828 24.2855 10.9005ZM22.3476 7.36137C22.4535 7.36137 22.5535 7.36832 22.6486 7.38032C22.9488 7.42559 23.1941 7.53275 23.3832 7.70307C23.6405 7.93529 23.7691 8.21994 23.7691 8.55722C23.7691 8.72628 23.7415 8.89071 23.6868 9.05092C23.6318 9.21135 23.5455 9.35262 23.4274 9.47473C23.3091 9.59726 23.1573 9.69622 22.9718 9.77222C22.7861 9.84822 22.5625 9.88612 22.301 9.88612H20.5178V7.36137H22.3476Z" fill="#00529C"/>
<path d="M26.3479 5.83646V5.83899C26.3309 5.83857 26.3142 5.83646 26.2972 5.83646H26.2829V5.83709V9.09766V11.434V14.7318H28V5.83646H26.3479Z" fill="#00529C"/>
</svg>
