<svg width="58" height="40" viewBox="0 0 58 40" fill="none" xmlns="http://www.w3.org/2000/svg">
<path d="M21.5465 12H10.4396C9.09279 12 8 13.1192 8 14.5015V25.4981C8 26.8678 9.07118 27.98 10.403 27.9997L21.5385 28C22.8853 28 23.9806 26.8805 23.9806 25.4981L23.986 14.5015C23.986 13.1192 22.8929 12 21.5465 12ZM11.7596 26.7181L11.1535 26.7254C10.4195 26.7254 9.82705 26.1211 9.82705 25.3786L9.8226 25.2715V15.1166L9.82705 14.5692C9.85661 13.8509 10.4017 13.2705 11.1169 13.2705H12.348C13.4659 13.2705 14.3699 14.2415 14.3699 15.3852C14.3699 15.9532 14.1474 16.4659 13.7876 16.8407L10.6462 20.0269L13.5918 23.0274C13.97 23.4197 14.1989 23.9343 14.1989 24.4966C14.1989 25.7232 13.1089 26.7181 11.7596 26.7181ZM20.8154 26.7089L15.3231 26.7073C15.3231 26.7073 15.9582 25.3335 15.9582 24.4845C15.9582 23.4492 15.6121 22.5227 15.0701 21.9111L13.1925 19.9957L15.1073 18.0167C15.6804 17.4783 16.0586 16.5257 16.0586 15.4421C16.0586 14.5835 15.8215 13.8229 15.4376 13.2705H16.7691C17.886 13.2705 18.7909 14.2415 18.7909 15.3852C18.7909 15.9532 18.5694 16.4659 18.2105 16.8407L15.1273 19.9944L21.529 26.5229C21.3249 26.6507 21.07 26.7089 20.8154 26.7089ZM22.1552 24.6698L17.5669 19.9935L19.7518 17.7736C20.1972 17.2157 20.4807 16.3782 20.4807 15.4421C20.4807 14.5785 20.2391 13.7978 19.8535 13.2457L20.8303 13.2762C21.563 13.2762 22.159 13.8785 22.159 14.6233L22.1552 24.6698Z" fill="#00529C"/>
<path d="M33.8307 19.2487C33.92 19.1594 34.0256 19.0443 34.1473 18.9035C34.2687 18.7627 34.3838 18.5965 34.4925 18.4045C34.6012 18.2125 34.694 17.9986 34.7706 17.7618C34.8475 17.5253 34.886 17.2726 34.886 17.004C34.886 16.4799 34.7964 15.9907 34.6174 15.5365C34.4381 15.0826 34.1632 14.6859 33.7922 14.3467C33.4213 14.0082 32.9579 13.7425 32.4013 13.5505C31.8451 13.3588 31.1957 13.2628 30.4541 13.2628H30.4338H28.3016H27.7466H25.5616V15.7084V24.1749V26.6926H30.9338C31.7138 26.6926 32.3946 26.5871 32.9769 26.376C33.5586 26.165 34.0418 25.8741 34.4254 25.5032C34.8091 25.1323 35.0936 24.7006 35.2792 24.2083C35.4645 23.7159 35.5573 23.1882 35.5573 22.6253C35.5573 21.8707 35.3847 21.1994 35.0395 20.6107C34.694 20.0227 34.291 19.5685 33.8307 19.2487ZM31.4554 15.7237C31.6362 15.7927 31.7872 15.8823 31.9051 15.9951C32.2106 16.2882 32.3635 16.6385 32.3635 17.046C32.3635 17.4156 32.2996 17.7211 32.1724 17.963C32.045 18.2052 31.9175 18.3899 31.7904 18.517H28.0559V15.5651H30.3772C30.8123 15.5651 31.1706 15.6188 31.4554 15.7237ZM31.0679 20.8412C31.744 20.8412 32.2449 21.0163 32.571 21.366C32.8778 21.7102 33.0322 22.1164 33.0322 22.5865C33.0322 23.071 32.8571 23.4845 32.5068 23.8284C32.1562 24.1723 31.5803 24.3446 30.7777 24.3446H30.4779H28.0559V20.8412H31.0679Z" fill="#00529C"/>
<path d="M44.6652 20.9083C45.0679 20.6333 45.4039 20.3135 45.6725 19.949C45.9411 19.5844 46.1391 19.1817 46.2672 18.7405C46.395 18.299 46.4592 17.8482 46.4592 17.3877C46.4592 16.7866 46.3597 16.2335 46.1617 15.7281C45.963 15.2231 45.6658 14.7882 45.2695 14.4236C44.8728 14.0591 44.3772 13.7746 43.7825 13.5699C43.1878 13.3655 42.5003 13.2628 41.7203 13.2628H41.65H36.4826H36.4343V26.6926H38.9768V21.7045H40.3945L43.9008 26.6926H46.881L43.2552 21.5319C43.7921 21.3914 44.2622 21.1835 44.6652 20.9083ZM41.7393 15.5651C41.8992 15.5651 42.0502 15.5756 42.1939 15.5937C42.6471 15.662 43.0174 15.8238 43.3029 16.0809C43.6913 16.4315 43.8855 16.8613 43.8855 17.3705C43.8855 17.6257 43.8439 17.874 43.7612 18.1159C43.6783 18.3581 43.5479 18.5714 43.3696 18.7557C43.191 18.9407 42.9618 19.0901 42.6818 19.2049C42.4014 19.3196 42.0639 19.3768 41.6691 19.3768H38.9768V15.5651H41.7393Z" fill="#00529C"/>
<path d="M47.7789 13.2628V13.2666C47.7532 13.266 47.7281 13.2628 47.7023 13.2628H47.6807V13.2638V18.1864V21.7137V26.6926H50.2731V13.2628H47.7789Z" fill="#00529C"/>
</svg>
