<svg width="46" height="32" viewBox="0 0 46 32" fill="none" xmlns="http://www.w3.org/2000/svg">
<path d="M17.0065 10H7.98214C6.8879 10 6 10.9093 6 12.0325V20.9672C6 22.0801 6.87033 22.9837 7.95244 22.9997L17 23C18.0943 23 18.9842 22.0904 18.9842 20.9672L18.9886 12.0325C18.9886 10.9093 18.1005 10 17.0065 10ZM9.05469 21.9584L8.56219 21.9644C7.96587 21.9644 7.48448 21.4734 7.48448 20.8701L7.48086 20.7831V12.5322L7.48448 12.0875C7.50849 11.5038 7.95141 11.0323 8.53249 11.0323H9.53273C10.441 11.0323 11.1755 11.8212 11.1755 12.7505C11.1755 13.212 10.9947 13.6285 10.7024 13.933L8.15001 16.5218L10.5433 18.9598C10.8506 19.2785 11.0366 19.6966 11.0366 20.1535C11.0366 21.1501 10.151 21.9584 9.05469 21.9584ZM16.4125 21.951L11.95 21.9497C11.95 21.9497 12.466 20.8335 12.466 20.1437C12.466 19.3025 12.1848 18.5497 11.7445 18.0528L10.2189 16.4965L11.7747 14.8886C12.2403 14.4511 12.5476 13.6771 12.5476 12.7967C12.5476 12.0991 12.355 11.4811 12.043 11.0323H13.1249C14.0324 11.0323 14.7676 11.8212 14.7676 12.7505C14.7676 13.212 14.5876 13.6285 14.2961 13.933L11.7909 16.4955L16.9923 21.7999C16.8265 21.9037 16.6194 21.951 16.4125 21.951ZM17.5011 20.2942L13.7731 16.4947L15.5484 14.691C15.9102 14.2378 16.1406 13.5573 16.1406 12.7967C16.1406 12.095 15.9443 11.4607 15.631 11.0121L16.4246 11.0369C17.0199 11.0369 17.5042 11.5263 17.5042 12.1314L17.5011 20.2942Z" fill="#00529C"/>
<path d="M26.9875 15.8896C27.06 15.8171 27.1458 15.7236 27.2447 15.6092C27.3433 15.4948 27.4368 15.3597 27.5251 15.2037C27.6135 15.0477 27.6889 14.8739 27.7511 14.6815C27.8136 14.4893 27.8449 14.284 27.8449 14.0658C27.8449 13.6399 27.772 13.2425 27.6266 12.8734C27.481 12.5046 27.2576 12.1823 26.9562 11.9068C26.6548 11.6317 26.2783 11.4158 25.8261 11.2598C25.3741 11.1041 24.8465 11.0261 24.244 11.0261H24.2274H22.495H22.0441H20.2688V13.0131V19.8921V21.9378H24.6337C25.2674 21.9378 25.8206 21.8521 26.2938 21.6806C26.7664 21.5091 27.1589 21.2728 27.4707 20.9714C27.7824 20.67 28.0135 20.3193 28.1643 19.9193C28.3149 19.5192 28.3903 19.0905 28.3903 18.6331C28.3903 18.02 28.2501 17.4746 27.9696 16.9963C27.6889 16.5185 27.3614 16.1494 26.9875 15.8896ZM25.0575 13.0255C25.2044 13.0816 25.3271 13.1544 25.4229 13.2461C25.6711 13.4842 25.7953 13.7688 25.7953 14.0999C25.7953 14.4002 25.7434 14.6484 25.6401 14.845C25.5366 15.0418 25.433 15.1918 25.3297 15.2951H22.2954V12.8967H24.1815C24.535 12.8967 24.8261 12.9403 25.0575 13.0255ZM24.7427 17.1835C25.292 17.1835 25.699 17.3258 25.964 17.6099C26.2132 17.8896 26.3387 18.2196 26.3387 18.6016C26.3387 18.9952 26.1964 19.3312 25.9118 19.6106C25.6269 19.8901 25.159 20.03 24.5069 20.03H24.2633H22.2954V17.1835H24.7427Z" fill="#00529C"/>
<path d="M35.7905 17.238C36.1177 17.0146 36.3907 16.7548 36.6089 16.4586C36.8271 16.1624 36.988 15.8351 37.0921 15.4767C37.1959 15.118 37.2481 14.7517 37.2481 14.3775C37.2481 13.8892 37.1673 13.4398 37.0064 13.0292C36.845 12.6188 36.6035 12.2655 36.2814 11.9693C35.9591 11.673 35.5565 11.4419 35.0733 11.2756C34.5901 11.1095 34.0315 11.0261 33.3977 11.0261H33.3406H29.1421H29.1029V21.9378H31.1687V17.8849H32.3205L35.1694 21.9378H37.5908L34.6448 17.7447C35.081 17.6306 35.463 17.4617 35.7905 17.238ZM33.4132 12.8967C33.5431 12.8967 33.6658 12.9052 33.7825 12.9199C34.1508 12.9754 34.4517 13.1069 34.6836 13.3158C34.9992 13.6007 35.157 13.9498 35.157 14.3636C35.157 14.571 35.1231 14.7727 35.056 14.9692C34.9886 15.166 34.8827 15.3393 34.7378 15.4891C34.5927 15.6394 34.4065 15.7608 34.1789 15.854C33.9512 15.9472 33.6769 15.9937 33.3561 15.9937H31.1687V12.8967H33.4132Z" fill="#00529C"/>
<path d="M38.3204 11.0261V11.0292C38.2995 11.0287 38.2791 11.0261 38.2581 11.0261H38.2406V11.0269V15.0265V17.8924V21.9378H40.3469V11.0261H38.3204Z" fill="#00529C"/>
</svg>
