<svg width="34" height="24" viewBox="0 0 34 24" fill="none" xmlns="http://www.w3.org/2000/svg">
<path d="M12.4665 7H5.52472C4.683 7 4 7.69949 4 8.56346V15.4363C4 16.2924 4.66949 16.9875 5.50188 16.9998L12.4616 17C13.3033 17 13.9879 16.3003 13.9879 15.4363L13.9913 8.56346C13.9913 7.69949 13.3081 7 12.4665 7ZM6.34976 16.1988L5.97092 16.2034C5.51221 16.2034 5.1419 15.8257 5.1419 15.3616L5.13912 15.2947V8.94787L5.1419 8.60578C5.16038 8.1568 5.50108 7.79405 5.94807 7.79405H6.71748C7.41617 7.79405 7.98117 8.40096 7.98117 9.11574C7.98117 9.47075 7.8421 9.79119 7.61722 10.0254L5.65385 12.0168L7.49484 13.8921C7.73125 14.1373 7.87429 14.4589 7.87429 14.8104C7.87429 15.577 7.19308 16.1988 6.34976 16.1988ZM12.0096 16.193L8.57695 16.192C8.57695 16.192 8.97388 15.3334 8.97388 14.8028C8.97388 14.1558 8.75753 13.5767 8.41882 13.1944L7.24533 11.9973L8.44206 10.7605C8.80025 10.4239 9.03665 9.82854 9.03665 9.1513C9.03665 8.61472 8.88845 8.13932 8.64847 7.79405H9.48066C10.1788 7.79405 10.7443 8.40096 10.7443 9.11574C10.7443 9.47075 10.6059 9.79119 10.3816 10.0254L8.45458 11.9965L12.4556 16.0768C12.3281 16.1567 12.1687 16.193 12.0096 16.193ZM12.847 14.9186L9.9793 11.9959L11.3449 10.6085C11.6232 10.2598 11.8004 9.73636 11.8004 9.1513C11.8004 8.61154 11.6494 8.12363 11.4085 7.77855L12.019 7.79762C12.4769 7.79762 12.8494 8.17409 12.8494 8.63955L12.847 14.9186Z" fill="#00529C"/>
<path d="M20.1442 11.5305C20.2 11.4747 20.266 11.4027 20.3421 11.3147C20.4179 11.2267 20.4899 11.1228 20.5578 11.0028C20.6257 10.8828 20.6838 10.7491 20.7316 10.6011C20.7797 10.4533 20.8037 10.2954 20.8037 10.1275C20.8037 9.79994 20.7477 9.4942 20.6359 9.21032C20.5238 8.92663 20.352 8.6787 20.1202 8.46673C19.8883 8.25516 19.5987 8.08908 19.2508 7.96908C18.9032 7.84929 18.4973 7.7893 18.0338 7.7893H18.0211H16.6885H16.3416H14.976V9.31779V14.6093V16.1829H18.3336C18.8211 16.1829 19.2466 16.117 19.6106 15.9851C19.9741 15.8531 20.2761 15.6714 20.5159 15.4395C20.7557 15.2077 20.9335 14.9379 21.0495 14.6302C21.1653 14.3225 21.2233 13.9927 21.2233 13.6409C21.2233 13.1692 21.1154 12.7497 20.8997 12.3817C20.6838 12.0142 20.4319 11.7303 20.1442 11.5305ZM18.6596 9.32733C18.7726 9.37044 18.867 9.42646 18.9407 9.49699C19.1316 9.68015 19.2272 9.89908 19.2272 10.1538C19.2272 10.3848 19.1872 10.5757 19.1078 10.7269C19.0281 10.8783 18.9485 10.9937 18.869 11.0732H16.5349V9.2282H17.9857C18.2577 9.2282 18.4816 9.26177 18.6596 9.32733ZM18.4174 12.5258C18.84 12.5258 19.1531 12.6352 19.3569 12.8538C19.5486 13.0689 19.6452 13.3228 19.6452 13.6166C19.6452 13.9194 19.5357 14.1778 19.3168 14.3928C19.0976 14.6077 18.7377 14.7154 18.2361 14.7154H18.0487H16.5349V12.5258H18.4174Z" fill="#00529C"/>
<path d="M26.9158 12.5677C27.1675 12.3958 27.3774 12.196 27.5453 11.9681C27.7132 11.7403 27.8369 11.4886 27.917 11.2128C27.9969 10.9369 28.037 10.6552 28.037 10.3673C28.037 9.99165 27.9748 9.64598 27.8511 9.33011C27.7269 9.01444 27.5411 8.74267 27.2934 8.51481C27.0455 8.28694 26.7358 8.10914 26.3641 7.9812C25.9924 7.85346 25.5627 7.7893 25.0752 7.7893H25.0313H21.8016H21.7714V16.1829H23.3605V13.0653H24.2465L26.438 16.1829H28.3006L26.0345 12.9575C26.37 12.8697 26.6639 12.7397 26.9158 12.5677ZM25.0871 9.2282C25.187 9.2282 25.2814 9.23475 25.3712 9.24608C25.6545 9.28879 25.8859 9.38991 26.0643 9.55062C26.3071 9.76975 26.4284 10.0383 26.4284 10.3566C26.4284 10.5161 26.4024 10.6713 26.3508 10.8225C26.2989 10.9738 26.2175 11.1071 26.106 11.2224C25.9944 11.338 25.8511 11.4313 25.6761 11.5031C25.5009 11.5748 25.2899 11.6105 25.0432 11.6105H23.3605V9.2282H25.0871Z" fill="#00529C"/>
<path d="M28.8618 7.7893V7.79168C28.8457 7.79128 28.83 7.7893 28.814 7.7893H28.8004V7.78989V10.8666V13.0711V16.1829H30.4207V7.7893H28.8618Z" fill="#00529C"/>
</svg>
