<svg width="58" height="40" viewBox="0 0 58 40" fill="none" xmlns="http://www.w3.org/2000/svg">
<path d="M18.1566 27.0736C18.634 27.0736 19.0223 27.0124 19.3216 26.8899C19.628 26.7674 19.8667 26.609 20.0377 26.4145C20.2087 26.22 20.3263 26.0002 20.3904 25.7553C20.4546 25.5104 20.4866 25.2619 20.4866 25.0097C20.4866 24.7216 20.4475 24.4622 20.3691 24.2317C20.2978 24.0012 20.1696 23.8067 19.9843 23.6482C19.8061 23.4897 19.5674 23.3673 19.2682 23.2808C18.9689 23.1944 18.5912 23.1512 18.1352 23.1512H15.6127V27.0736H18.1566ZM15.6127 16.819V20.7091H17.4939C17.8929 20.7091 18.2528 20.6803 18.5734 20.6226C18.8941 20.565 19.1648 20.4641 19.3857 20.3201C19.6138 20.176 19.7848 19.9779 19.8988 19.7257C20.0199 19.4736 20.0805 19.1567 20.0805 18.7749C20.0805 18.4003 20.0342 18.0905 19.9415 17.8456C19.8489 17.5934 19.7064 17.3917 19.514 17.2405C19.3216 17.0892 19.0758 16.9811 18.7765 16.9163C18.4843 16.8515 18.1352 16.819 17.729 16.819H15.6127ZM17.729 14.0852C18.805 14.0852 19.7206 14.1861 20.476 14.3878C21.2313 14.5895 21.8476 14.874 22.3251 15.2414C22.8025 15.6088 23.1481 16.0554 23.3618 16.5813C23.5827 17.1072 23.6932 17.6943 23.6932 18.3426C23.6932 18.6956 23.6433 19.0378 23.5435 19.3692C23.4438 19.6933 23.287 19.9995 23.0733 20.2877C22.8595 20.5686 22.5851 20.8279 22.2502 21.0656C21.9153 21.3034 21.5127 21.5087 21.0424 21.6816C22.0685 21.9337 22.8274 22.3407 23.3191 22.9026C23.8108 23.4645 24.0566 24.1921 24.0566 25.0854C24.0566 25.7553 23.9283 26.3784 23.6718 26.9547C23.4153 27.531 23.0376 28.0353 22.5388 28.4675C22.0472 28.8926 21.4379 29.2275 20.7111 29.4725C19.9843 29.7102 19.1541 29.8291 18.2207 29.8291H12V14.0852H17.729Z" fill="#00A39D"/>
<path d="M35.1543 17.2962C35.0474 17.4689 34.9334 17.5984 34.8123 17.6848C34.6983 17.7711 34.5486 17.8143 34.3634 17.8143C34.1995 17.8143 34.0213 17.7639 33.8289 17.6632C33.6437 17.5553 33.4299 17.4365 33.1876 17.307C32.9525 17.1775 32.6817 17.0624 32.3753 16.9616C32.0689 16.8537 31.7198 16.7997 31.3278 16.7997C30.6509 16.7997 30.145 16.9472 29.8101 17.2423C29.4823 17.5301 29.3184 17.9222 29.3184 18.4187C29.3184 18.7353 29.4182 18.998 29.6177 19.2066C29.8172 19.4153 30.0773 19.5952 30.3979 19.7463C30.7257 19.8974 31.0963 20.0377 31.5095 20.1673C31.93 20.2896 32.3575 20.4299 32.7922 20.5882C33.2268 20.7393 33.6508 20.9192 34.0641 21.1279C34.4845 21.3365 34.855 21.6028 35.1757 21.9266C35.5035 22.2504 35.7671 22.6461 35.9666 23.1138C36.1662 23.5744 36.2659 24.132 36.2659 24.7868C36.2659 25.5136 36.1412 26.1935 35.8918 26.8267C35.6424 27.4599 35.279 28.014 34.8016 28.4889C34.3313 28.9566 33.747 29.3272 33.0487 29.6006C32.3575 29.8669 31.5701 30 30.6865 30C30.202 30 29.7068 29.9496 29.2008 29.8489C28.702 29.7481 28.2175 29.6078 27.7472 29.4279C27.2769 29.2408 26.8351 29.0214 26.4218 28.7695C26.0085 28.5177 25.6487 28.2371 25.3423 27.9277L26.4111 26.2223C26.4967 26.1 26.6071 25.9993 26.7425 25.9201C26.885 25.8337 27.0382 25.7906 27.2021 25.7906C27.4159 25.7906 27.6296 25.8589 27.8434 25.9957C28.0643 26.1324 28.3101 26.2835 28.5809 26.449C28.8588 26.6145 29.1759 26.7656 29.5322 26.9023C29.8885 27.039 30.3089 27.1074 30.7934 27.1074C31.449 27.1074 31.9585 26.9635 32.3219 26.6756C32.6853 26.3806 32.867 25.9165 32.867 25.2833C32.867 24.9163 32.7672 24.6177 32.5677 24.3874C32.3682 24.1572 32.1045 23.9665 31.7768 23.8154C31.4561 23.6643 31.0891 23.5312 30.6758 23.416C30.2626 23.3009 29.8386 23.175 29.4039 23.0383C28.9693 22.8944 28.5453 22.7217 28.132 22.5202C27.7187 22.3115 27.3482 22.0417 27.0204 21.7107C26.6997 21.3725 26.4397 20.9552 26.2401 20.4587C26.0406 19.955 25.9409 19.3362 25.9409 18.6022C25.9409 18.0122 26.0584 17.4365 26.2936 16.8753C26.5287 16.314 26.8743 15.814 27.3304 15.375C27.7864 14.9361 28.3458 14.5871 29.0084 14.3281C29.6711 14.0618 30.43 13.9287 31.2851 13.9287C31.7625 13.9287 32.2257 13.9683 32.6746 14.0474C33.1306 14.1194 33.5617 14.2309 33.9679 14.382C34.3741 14.5259 34.7517 14.7022 35.1009 14.9109C35.4572 15.1124 35.7742 15.3426 36.0521 15.6017L35.1543 17.2962Z" fill="#00A39D"/>
<path fill-rule="evenodd" clip-rule="evenodd" d="M48.0667 13.434C45.2928 13.1638 44.3175 14.6911 43.7733 15.4466C43.0793 12.4264 41.9058 12.6645 40.6502 11.9037C42.4649 10.8504 42.9724 9.21282 42.9225 8C44.7 9.30322 45.9394 9.16338 47.4743 8.7408C46.7105 11.0199 47.1928 11.6632 48.0667 13.434Z" fill="#F8AD3C"/>
<path d="M42.2653 29.8356H38.5084V13.7354C40.8593 14.0539 42.269 15.9983 42.2653 18.0562V29.8356Z" fill="#00A39D"/>
</svg>
