<svg width="46" height="32" viewBox="0 0 46 32" fill="none" xmlns="http://www.w3.org/2000/svg">
<path d="M14.0372 21.6056C14.4278 21.6056 14.7455 21.5555 14.9904 21.4553C15.2411 21.3551 15.4364 21.2255 15.5763 21.0663C15.7162 20.9072 15.8124 20.7274 15.8649 20.527C15.9174 20.3266 15.9436 20.1233 15.9436 19.917C15.9436 19.6812 15.9116 19.4691 15.8474 19.2805C15.7891 19.0918 15.6842 18.9327 15.5326 18.803C15.3868 18.6734 15.1915 18.5732 14.9467 18.5024C14.7018 18.4317 14.3928 18.3964 14.0197 18.3964H11.9558V21.6056H14.0372ZM11.9558 13.2155V16.3983H13.495C13.8215 16.3983 14.1159 16.3747 14.3782 16.3276C14.6406 16.2804 14.8621 16.1979 15.0429 16.08C15.2294 15.9621 15.3694 15.8 15.4626 15.5937C15.5617 15.3875 15.6113 15.1281 15.6113 14.8157C15.6113 14.5093 15.5734 14.2558 15.4976 14.0554C15.4218 13.8491 15.3052 13.6841 15.1478 13.5603C14.9904 13.4365 14.7893 13.3481 14.5444 13.2951C14.3054 13.2421 14.0197 13.2155 13.6874 13.2155H11.9558ZM13.6874 10.9788C14.5677 10.9788 15.3169 11.0613 15.9349 11.2263C16.5529 11.3913 17.0572 11.6242 17.4478 11.9248C17.8384 12.2253 18.1212 12.5908 18.2961 13.021C18.4768 13.4513 18.5672 13.9316 18.5672 14.4621C18.5672 14.7509 18.5263 15.0309 18.4447 15.302C18.3631 15.5672 18.2348 15.8177 18.0599 16.0535C17.885 16.2834 17.6606 16.4955 17.3866 16.69C17.1125 16.8845 16.7831 17.0525 16.3984 17.194C17.2379 17.4003 17.8588 17.7333 18.2611 18.193C18.6633 18.6527 18.8645 19.248 18.8645 19.9789C18.8645 20.527 18.7595 21.0369 18.5497 21.5084C18.3398 21.9799 18.0308 22.3925 17.6227 22.7461C17.2204 23.0939 16.7219 23.3679 16.1273 23.5683C15.5326 23.7628 14.8534 23.8601 14.0897 23.8601H9V10.9788H13.6874Z" fill="#00A39D"/>
<path d="M27.9444 13.606C27.857 13.7473 27.7637 13.8533 27.6646 13.9239C27.5713 13.9946 27.4489 14.0299 27.2973 14.0299C27.1632 14.0299 27.0175 13.9887 26.86 13.9063C26.7085 13.818 26.5336 13.7208 26.3353 13.6148C26.1429 13.5089 25.9214 13.4147 25.6707 13.3323C25.42 13.244 25.1343 13.1998 24.8137 13.1998C24.2598 13.1998 23.8459 13.3205 23.5719 13.5619C23.3037 13.7973 23.1696 14.1182 23.1696 14.5244C23.1696 14.7835 23.2512 14.9984 23.4145 15.1691C23.5777 15.3398 23.7905 15.487 24.0529 15.6106C24.321 15.7343 24.6242 15.8491 24.9624 15.955C25.3063 16.0551 25.6561 16.1699 26.0118 16.2994C26.3674 16.4231 26.7143 16.5703 27.0524 16.741C27.3964 16.9117 27.6996 17.1296 27.9619 17.3945C28.2301 17.6594 28.4458 17.9832 28.6091 18.3659C28.7723 18.7427 28.8539 19.1989 28.8539 19.7347C28.8539 20.3293 28.7519 20.8856 28.5478 21.4037C28.3438 21.9218 28.0465 22.3751 27.6558 22.7637C27.2711 23.1463 26.793 23.4495 26.2216 23.6732C25.6561 23.8911 25.0119 24 24.289 24C23.8925 24 23.4873 23.9588 23.0734 23.8764C22.6653 23.7939 22.2689 23.6791 21.8841 23.5319C21.4993 23.3789 21.1378 23.1993 20.7997 22.9933C20.4615 22.7872 20.1671 22.5576 19.9164 22.3045L20.7909 20.9092C20.8609 20.8091 20.9513 20.7267 21.062 20.6619C21.1786 20.5913 21.304 20.5559 21.4381 20.5559C21.613 20.5559 21.7879 20.6119 21.9628 20.7237C22.1435 20.8356 22.3447 20.9592 22.5662 21.0946C22.7936 21.23 23.053 21.3537 23.3445 21.4655C23.636 21.5774 23.98 21.6333 24.3764 21.6333C24.9128 21.6333 25.3296 21.5156 25.627 21.2801C25.9243 21.0387 26.073 20.659 26.073 20.1409C26.073 19.8406 25.9914 19.5963 25.8281 19.4079C25.6649 19.2195 25.4492 19.0635 25.181 18.9399C24.9186 18.8162 24.6184 18.7073 24.2802 18.6131C23.9421 18.5189 23.5952 18.4159 23.2396 18.3041C22.8839 18.1863 22.537 18.045 22.1989 17.8802C21.8608 17.7094 21.5576 17.4887 21.2894 17.2179C21.0271 16.9412 20.8143 16.5997 20.651 16.1935C20.4878 15.7814 20.4062 15.2751 20.4062 14.6746C20.4062 14.1918 20.5024 13.7208 20.6947 13.2616C20.8871 12.8024 21.1699 12.3932 21.543 12.0341C21.9161 11.675 22.3738 11.3894 22.916 11.1775C23.4582 10.9597 24.0791 10.8508 24.7787 10.8508C25.1693 10.8508 25.5483 10.8832 25.9156 10.9479C26.2887 11.0068 26.6414 11.098 26.9737 11.2217C27.306 11.3394 27.615 11.4837 27.9007 11.6544C28.1922 11.8192 28.4517 12.0076 28.679 12.2196L27.9444 13.606Z" fill="#00A39D"/>
<path fill-rule="evenodd" clip-rule="evenodd" d="M38.5091 10.446C36.2396 10.2249 35.4416 11.4746 34.9964 12.0927C34.4285 9.62156 33.4684 9.81641 32.4411 9.19391C33.9258 8.33212 34.3411 6.99231 34.3002 6C35.7545 7.06627 36.7686 6.95186 38.0244 6.60611C37.3995 8.47084 37.7941 8.99717 38.5091 10.446Z" fill="#F8AD3C"/>
<path d="M33.7625 23.8655H30.6887V10.6926C32.6122 10.9532 33.7655 12.544 33.7625 14.2278V23.8655Z" fill="#00A39D"/>
</svg>
