<svg width="34" height="24" viewBox="0 0 34 24" fill="none" xmlns="http://www.w3.org/2000/svg">
<path d="M11.3581 15.4038C11.6185 15.4038 11.8304 15.3704 11.9936 15.3036C12.1607 15.2368 12.2909 15.1504 12.3842 15.0443C12.4775 14.9382 12.5416 14.8183 12.5766 14.6847C12.6116 14.5511 12.6291 14.4156 12.6291 14.278C12.6291 14.1209 12.6077 13.9794 12.5649 13.8537C12.5261 13.7279 12.4561 13.6218 12.3551 13.5354C12.2579 13.4489 12.1277 13.3822 11.9644 13.335C11.8012 13.2879 11.5952 13.2643 11.3465 13.2643H9.97056V15.4038H11.3581ZM9.97056 9.81039V11.9322H10.9967C11.2143 11.9322 11.4106 11.9165 11.5855 11.8851C11.7604 11.8536 11.9081 11.7986 12.0286 11.72C12.153 11.6415 12.2462 11.5334 12.3084 11.3959C12.3745 11.2583 12.4075 11.0855 12.4075 10.8772C12.4075 10.6729 12.3823 10.5039 12.3317 10.3703C12.2812 10.2328 12.2035 10.1228 12.0985 10.0403C11.9936 9.95774 11.8595 9.8988 11.6963 9.86344C11.5369 9.82808 11.3465 9.81039 11.1249 9.81039H9.97056ZM11.1249 8.31921C11.7118 8.31921 12.2113 8.37422 12.6232 8.48424C13.0352 8.59426 13.3714 8.74948 13.6319 8.94988C13.8923 9.15027 14.0808 9.39388 14.1974 9.68072C14.3179 9.96756 14.3781 10.2878 14.3781 10.6414C14.3781 10.834 14.3509 11.0206 14.2965 11.2014C14.2421 11.3782 14.1566 11.5452 14.04 11.7024C13.9234 11.8556 13.7737 11.9971 13.591 12.1267C13.4084 12.2564 13.1888 12.3684 12.9322 12.4627C13.4919 12.6002 13.9059 12.8222 14.174 13.1287C14.4422 13.4352 14.5763 13.8321 14.5763 14.3193C14.5763 14.6847 14.5064 15.0246 14.3664 15.339C14.2265 15.6533 14.0205 15.9284 13.7485 16.1641C13.4803 16.396 13.148 16.5787 12.7515 16.7123C12.3551 16.8419 11.9023 16.9068 11.3931 16.9068H8V8.31921H11.1249Z" fill="#00A39D"/>
<path d="M20.6296 10.0707C20.5713 10.1649 20.5091 10.2356 20.4431 10.2827C20.3809 10.3298 20.2993 10.3533 20.1982 10.3533C20.1088 10.3533 20.0116 10.3258 19.9067 10.2709C19.8056 10.212 19.689 10.1472 19.5569 10.0766C19.4286 10.006 19.2809 9.94316 19.1138 9.88821C18.9467 9.82934 18.7562 9.7999 18.5425 9.7999C18.1732 9.7999 17.8973 9.88036 17.7146 10.0413C17.5358 10.1983 17.4464 10.4122 17.4464 10.683C17.4464 10.8557 17.5008 10.9989 17.6097 11.1128C17.7185 11.2266 17.8603 11.3247 18.0352 11.4071C18.214 11.4895 18.4161 11.5661 18.6416 11.6367C18.8709 11.7035 19.1041 11.78 19.3412 11.8663C19.5783 11.9488 19.8095 12.0469 20.035 12.1607C20.2643 12.2745 20.4664 12.4197 20.6413 12.5964C20.8201 12.773 20.9639 12.9888 21.0727 13.244C21.1815 13.4951 21.236 13.7993 21.236 14.1565C21.236 14.5529 21.1679 14.9238 21.0319 15.2692C20.8959 15.6146 20.6976 15.9168 20.4372 16.1758C20.1807 16.4309 19.862 16.6331 19.4811 16.7822C19.1041 16.9274 18.6746 17 18.1927 17C17.9284 17 17.6582 16.9726 17.3823 16.9176C17.1102 16.8627 16.8459 16.7861 16.5894 16.688C16.3329 16.586 16.0919 16.4663 15.8665 16.3289C15.641 16.1915 15.4448 16.0384 15.2776 15.8697L15.8606 14.9395C15.9073 14.8728 15.9675 14.8178 16.0414 14.7746C16.1191 14.7275 16.2027 14.704 16.2921 14.704C16.4087 14.704 16.5253 14.7413 16.6419 14.8159C16.7623 14.8904 16.8964 14.9729 17.0441 15.0631C17.1957 15.1534 17.3687 15.2358 17.563 15.3104C17.7573 15.385 17.9867 15.4222 18.251 15.4222C18.6085 15.4222 18.8864 15.3437 19.0847 15.1868C19.2829 15.0258 19.382 14.7727 19.382 14.4273C19.382 14.2271 19.3276 14.0642 19.2188 13.9387C19.1099 13.8131 18.9661 13.709 18.7873 13.6266C18.6124 13.5442 18.4123 13.4716 18.1868 13.4088C17.9614 13.346 17.7301 13.2773 17.493 13.2027C17.256 13.1242 17.0247 13.03 16.7993 12.9202C16.5738 12.8063 16.3717 12.6592 16.1929 12.4786C16.018 12.2941 15.8762 12.0665 15.7673 11.7957C15.6585 11.5209 15.6041 11.1834 15.6041 10.7831C15.6041 10.4612 15.6682 10.1473 15.7965 9.84111C15.9248 9.53497 16.1133 9.2622 16.362 9.02279C16.6108 8.78337 16.9159 8.59301 17.2773 8.45171C17.6388 8.3065 18.0527 8.23389 18.5191 8.23389C18.7796 8.23389 19.0322 8.25547 19.2771 8.29865C19.5258 8.33789 19.7609 8.39873 19.9825 8.48116C20.204 8.55965 20.41 8.65581 20.6005 8.76963C20.7948 8.87953 20.9678 9.00512 21.1194 9.14642L20.6296 10.0707Z" fill="#00A39D"/>
<path fill-rule="evenodd" clip-rule="evenodd" d="M27.6728 7.96398C26.1597 7.8166 25.6277 8.64971 25.3309 9.06179C24.9524 7.41437 24.3122 7.54427 23.6274 7.12927C24.6172 6.55475 24.894 5.66154 24.8668 5C25.8364 5.71085 26.5124 5.63457 27.3496 5.40407C26.933 6.64723 27.1961 6.99811 27.6728 7.96398Z" fill="#F8AD3C"/>
<path d="M24.5083 16.9103H22.4591V8.12836C23.7414 8.30209 24.5103 9.36267 24.5083 10.4852V16.9103Z" fill="#00A39D"/>
</svg>
