<svg width="28" height="20" viewBox="0 0 28 20" fill="none" xmlns="http://www.w3.org/2000/svg">
<path d="M7.41398 14.5768C7.67872 14.5768 7.89407 14.5429 8.06003 14.4749C8.22994 14.407 8.36231 14.3192 8.45714 14.2113C8.55198 14.1034 8.61717 13.9816 8.65274 13.8458C8.6883 13.71 8.70608 13.5722 8.70608 13.4323C8.70608 13.2726 8.68435 13.1287 8.64088 13.0009C8.60137 12.8731 8.53024 12.7652 8.42751 12.6773C8.32872 12.5895 8.19635 12.5215 8.0304 12.4736C7.86444 12.4257 7.65502 12.4017 7.40213 12.4017H6.00334V14.5768H7.41398ZM6.00334 8.89037V11.0475H7.0465C7.26778 11.0475 7.46733 11.0315 7.64514 10.9996C7.82295 10.9676 7.9731 10.9117 8.09559 10.8318C8.22204 10.7519 8.31687 10.642 8.38009 10.5022C8.44727 10.3624 8.48085 10.1866 8.48085 9.97493C8.48085 9.76721 8.45517 9.59543 8.4038 9.45961C8.35243 9.3198 8.2734 9.20795 8.16672 9.12406C8.06003 9.04017 7.92371 8.98025 7.75775 8.9443C7.59575 8.90835 7.40213 8.89037 7.1769 8.89037H6.00334ZM7.1769 7.37439C7.77356 7.37439 8.28131 7.43031 8.70015 7.54216C9.119 7.65401 9.46079 7.81181 9.72553 8.01554C9.99027 8.21927 10.1819 8.46693 10.3005 8.75855C10.4229 9.05016 10.4842 9.37573 10.4842 9.73525C10.4842 9.93099 10.4565 10.1207 10.4012 10.3045C10.3459 10.4842 10.259 10.654 10.1404 10.8138C10.0219 10.9696 9.86976 11.1134 9.68404 11.2452C9.49833 11.3771 9.27508 11.4909 9.01429 11.5868C9.58328 11.7266 10.0041 11.9523 10.2767 12.2639C10.5494 12.5755 10.6857 12.9789 10.6857 13.4743C10.6857 13.8458 10.6146 14.1913 10.4723 14.5109C10.3301 14.8305 10.1207 15.1101 9.84407 15.3498C9.57143 15.5855 9.23359 15.7712 8.83055 15.907C8.42751 16.0389 7.96717 16.1048 7.44954 16.1048H4V7.37439H7.1769Z" fill="#00A39D"/>
<path d="M16.8397 9.15505C16.7804 9.2508 16.7172 9.32263 16.65 9.37051C16.5868 9.41839 16.5038 9.44233 16.4011 9.44233C16.3102 9.44233 16.2114 9.4144 16.1048 9.35854C16.002 9.29869 15.8835 9.23285 15.7491 9.16103C15.6187 9.0892 15.4686 9.02536 15.2987 8.9695C15.1288 8.90965 14.9352 8.87973 14.7178 8.87973C14.3424 8.87973 14.0619 8.96152 13.8762 9.12511C13.6944 9.28472 13.6035 9.50218 13.6035 9.77751C13.6035 9.95307 13.6589 10.0987 13.7695 10.2144C13.8801 10.3301 14.0244 10.4299 14.2022 10.5137C14.3839 10.5975 14.5894 10.6753 14.8186 10.7471C15.0517 10.8149 15.2888 10.8927 15.5298 10.9805C15.7709 11.0643 16.006 11.1641 16.2352 11.2798C16.4683 11.3955 16.6738 11.5431 16.8516 11.7227C17.0333 11.9023 17.1795 12.1217 17.2902 12.3811C17.4008 12.6364 17.4561 12.9457 17.4561 13.3088C17.4561 13.7118 17.387 14.0888 17.2487 14.44C17.1104 14.7911 16.9089 15.0983 16.6441 15.3617C16.3833 15.6211 16.0593 15.8265 15.6721 15.9782C15.2888 16.1258 14.8522 16.1996 14.3622 16.1996C14.0935 16.1996 13.8189 16.1717 13.5383 16.1158C13.2617 16.06 12.9931 15.9822 12.7323 15.8824C12.4715 15.7787 12.2265 15.657 11.9973 15.5173C11.7681 15.3777 11.5686 15.222 11.3987 15.0505L11.9914 14.1048C12.0388 14.037 12.1 13.9811 12.1751 13.9372C12.2542 13.8893 12.3391 13.8654 12.43 13.8654C12.5485 13.8654 12.6671 13.9033 12.7856 13.9791C12.9081 14.0549 13.0444 14.1387 13.1946 14.2305C13.3487 14.3223 13.5245 14.4061 13.7221 14.4819C13.9197 14.5577 14.1528 14.5956 14.4215 14.5956C14.785 14.5956 15.0675 14.5158 15.269 14.3562C15.4706 14.1926 15.5713 13.9352 15.5713 13.5841C15.5713 13.3806 15.516 13.215 15.4054 13.0873C15.2947 12.9596 15.1485 12.8539 14.9668 12.7701C14.789 12.6863 14.5855 12.6125 14.3563 12.5487C14.1271 12.4848 13.892 12.415 13.651 12.3392C13.4099 12.2594 13.1748 12.1636 12.9456 12.0519C12.7165 11.9362 12.511 11.7865 12.3292 11.603C12.1514 11.4155 12.0072 11.184 11.8966 10.9087C11.7859 10.6294 11.7306 10.2862 11.7306 9.87925C11.7306 9.55206 11.7958 9.23285 11.9262 8.92162C12.0566 8.61039 12.2482 8.33308 12.5011 8.08968C12.754 7.84628 13.0642 7.65275 13.4317 7.50911C13.7991 7.36148 14.22 7.28766 14.6941 7.28766C14.9589 7.28766 15.2157 7.30961 15.4646 7.3535C15.7175 7.3934 15.9566 7.45525 16.1818 7.53904C16.407 7.61884 16.6165 7.7166 16.8101 7.83232C17.0076 7.94404 17.1835 8.07172 17.3376 8.21537L16.8397 9.15505Z" fill="#00A39D"/>
<path fill-rule="evenodd" clip-rule="evenodd" d="M24 7.01328C22.4618 6.86345 21.9209 7.71042 21.6192 8.12935C21.2343 6.45453 20.5836 6.58659 19.8873 6.16469C20.8936 5.58061 21.1751 4.67254 21.1474 4C22.133 4.72267 22.8203 4.64513 23.6715 4.41079C23.2479 5.67463 23.5154 6.03135 24 7.01328Z" fill="#F8AD3C"/>
<path d="M20.7829 16.1084H18.6996V7.18042C20.0033 7.35704 20.785 8.43527 20.7829 9.57648V16.1084Z" fill="#00A39D"/>
</svg>
