<svg width="58" height="40" viewBox="0 0 58 40" fill="none" xmlns="http://www.w3.org/2000/svg">
<path d="M25.8989 14.5109H27.5873C28.1721 14.5109 28.6058 14.6304 28.6058 15.2735C28.6058 15.9336 27.9474 16.1262 27.4252 16.1262H25.5683L25.8989 14.5109ZM21.0113 22.6296H27.1389C29.4758 22.6296 31.5386 21.6101 31.5386 19.0358C31.5386 18.0505 30.9122 17.1057 29.9222 16.8957V16.8673H29.9369C31.2254 16.5246 31.8975 15.6399 31.8975 14.2946C31.8975 12.7508 31.0301 11.9439 28.7105 11.9439H23.2261L21.0113 22.6296ZM25.1636 18.1173H26.9726C27.6621 18.1173 28.2484 18.2368 28.2484 19.0326C28.2484 19.899 27.441 20.1069 26.8547 20.1069H24.7435L25.1636 18.1173Z" fill="#0069AB"/>
<path d="M34.3444 22.6296H37.634L39.2815 14.6808H42.2442L42.8153 11.9439H33.5949L33.027 14.6808H35.9898L34.3444 22.6296Z" fill="#0069AB"/>
<path d="M41.7643 22.6296H44.8913L46.1329 16.6435H46.1624L48.1219 22.6296H51.3547L53.6011 11.9439H50.471L49.2746 17.7804H49.2462L47.2409 11.9439H43.9765L41.7643 22.6296Z" fill="#0069AB"/>
<path d="M19.7929 30C19.8914 29.6363 19.8508 29.6384 20.094 28.6573C20.2687 27.6904 21.3335 26.2093 23.211 26.0572C23.851 25.9809 48.4278 24.9366 53.6796 24.5687L53.5223 25.4772C48.5741 26.1167 26.1869 29.1515 19.7929 30Z" fill="#E31C24"/>
<path d="M9.04726 22.6311V24.5717L10.73 23.6001L12.4132 24.5717V22.6311L10.73 21.6579L9.04726 22.6311Z" fill="#A68561"/>
<path d="M15.7774 22.631V20.6852L10.7293 17.7708L5.68439 20.6852V22.631L10.7293 19.7136L15.7774 22.631Z" fill="#A68561"/>
<path d="M4 13.8859L10.7303 9.99999L17.4616 13.8859V21.6578L15.7784 22.631V14.8591L10.7303 11.9432L5.68375 14.8591V22.631L4 21.6578V13.8859Z" fill="#0069AB"/>
<path d="M10.7294 13.886L14.0948 15.8297V23.6006L12.4132 24.5706V16.7998L10.7294 15.8297L9.04778 16.7998V24.5706L7.36665 23.6006V15.8297L10.7294 13.886Z" fill="#0069AB"/>
</svg>
