<svg width="34" height="24" viewBox="0 0 34 24" fill="none" xmlns="http://www.w3.org/2000/svg">
<path d="M15.9494 9.25544H16.7937C17.0861 9.25544 17.3029 9.31518 17.3029 9.63677C17.3029 9.96678 16.9737 10.0631 16.7126 10.0631H15.7842L15.9494 9.25544ZM13.5056 13.3148H16.5695C17.7379 13.3148 18.7693 12.8051 18.7693 11.5179C18.7693 11.0252 18.4561 10.5529 17.9611 10.4479V10.4336H17.9685C18.6127 10.2623 18.9488 9.81994 18.9488 9.14728C18.9488 8.3754 18.5151 7.97196 17.3553 7.97196H14.6131L13.5056 13.3148ZM15.5818 11.0587H16.4863C16.831 11.0587 17.1242 11.1184 17.1242 11.5163C17.1242 11.9495 16.7205 12.0535 16.4273 12.0535H15.3718L15.5818 11.0587Z" fill="#0069AB"/>
<path d="M20.1722 13.3148H21.817L22.6407 9.34044H24.1221L24.4077 7.97196H19.7975L19.5135 9.34044H20.9949L20.1722 13.3148Z" fill="#0069AB"/>
<path d="M23.8822 13.3148H25.4456L26.0665 10.3218H26.0812L27.061 13.3148H28.6774L29.8006 7.97196H28.2355L27.6373 10.8902H27.6231L26.6204 7.97196H24.9883L23.8822 13.3148Z" fill="#0069AB"/>
<path d="M12.8965 17C12.9457 16.8182 12.9254 16.8192 13.047 16.3287C13.1344 15.8452 13.6668 15.1047 14.6055 15.0286C14.9255 14.9904 27.2139 14.4683 29.8398 14.2844L29.7611 14.7386C27.2871 15.0583 16.0934 16.5758 12.8965 17Z" fill="#E31C24"/>
<path d="M7.52363 13.3155V14.2858L8.36498 13.8L9.20659 14.2858V13.3155L8.36498 12.8289L7.52363 13.3155Z" fill="#A68561"/>
<path d="M10.8887 13.3156V12.3426L8.36467 10.8854L5.84219 12.3426V13.3156L8.36467 11.8568L10.8887 13.3156Z" fill="#A68561"/>
<path d="M5 8.943L8.36514 7.00002L11.7308 8.943V12.829L10.8892 13.3156V9.4296L8.36514 7.97164L5.84188 9.4296V13.3156L5 12.829V8.943Z" fill="#0069AB"/>
<path d="M8.36472 8.94295L10.0474 9.91483V13.8003L9.20659 14.2853V10.3999L8.36472 9.91483L7.52389 10.3999V14.2853L6.68333 13.8003V9.91483L8.36472 8.94295Z" fill="#0069AB"/>
</svg>
