<svg width="46" height="32" viewBox="0 0 46 32" fill="none" xmlns="http://www.w3.org/2000/svg">
<path d="M21.3292 12.1576H22.5111C22.9205 12.1576 23.2241 12.2413 23.2241 12.6915C23.2241 13.1535 22.7632 13.2884 22.3977 13.2884H21.0978L21.3292 12.1576ZM17.9079 17.8408H22.1972C23.8331 17.8408 25.277 17.1271 25.277 15.3251C25.277 14.6354 24.8386 13.974 24.1455 13.827V13.8071H24.1558C25.0578 13.5673 25.5283 12.9479 25.5283 12.0062C25.5283 10.9256 24.9211 10.3608 23.2974 10.3608H19.4583L17.9079 17.8408ZM20.8145 14.6822H22.0808C22.5635 14.6822 22.9739 14.7658 22.9739 15.3229C22.9739 15.9293 22.4087 16.0748 21.9983 16.0748H20.5205L20.8145 14.6822Z" fill="#0069AB"/>
<path d="M27.2411 17.8407H29.5438L30.697 12.2766H32.771L33.1707 10.3607H26.7165L26.3189 12.2766H28.3928L27.2411 17.8407Z" fill="#0069AB"/>
<path d="M32.435 17.8407H34.6239L35.493 13.6505H35.5137L36.8854 17.8407H39.1483L40.7208 10.3607H38.5297L37.6922 14.4463H37.6723L36.2686 10.3607H33.9836L32.435 17.8407Z" fill="#0069AB"/>
<path d="M17.0551 23C17.124 22.7454 17.0956 22.7469 17.2658 22.0601C17.3881 21.3833 18.1335 20.3465 19.4477 20.24C19.8957 20.1866 37.0995 19.4556 40.7757 19.1981L40.6656 19.834C37.2019 20.2817 21.5308 22.4061 17.0551 23Z" fill="#E31C24"/>
<path d="M9.53308 17.8418V19.2002L10.711 18.5201L11.8892 19.2002V17.8418L10.711 17.1605L9.53308 17.8418Z" fill="#A68561"/>
<path d="M14.2442 17.8417V16.4796L10.7105 14.4396L7.17908 16.4796V17.8417L10.7105 15.7995L14.2442 17.8417Z" fill="#A68561"/>
<path d="M6 11.7202L10.7112 9L15.4231 11.7202V17.1605L14.2449 17.8417V12.4014L10.7112 10.3603L7.17863 12.4014V17.8417L6 17.1605V11.7202Z" fill="#0069AB"/>
<path d="M10.7106 11.7201L13.0664 13.0808V18.5204L11.8892 19.1994V13.7598L10.7106 13.0808L9.53345 13.7598V19.1994L8.35666 18.5204V13.0808L10.7106 11.7201Z" fill="#0069AB"/>
</svg>
