<svg width="28" height="20" viewBox="0 0 28 20" fill="none" xmlns="http://www.w3.org/2000/svg">
<path d="M12.5792 7.17918H13.3949C13.6774 7.17918 13.887 7.2369 13.887 7.54762C13.887 7.86648 13.5689 7.95954 13.3166 7.95954H12.4196L12.5792 7.17918ZM10.2181 11.1013H13.1783C14.3073 11.1013 15.3038 10.6088 15.3038 9.36515C15.3038 8.88916 15.0012 8.43274 14.5229 8.33129V8.31756H14.53C15.1525 8.15202 15.4772 7.72459 15.4772 7.07468C15.4772 6.3289 15.0581 5.9391 13.9376 5.9391H11.288L10.2181 11.1013ZM12.224 8.92145H13.0979C13.431 8.92145 13.7143 8.97917 13.7143 9.36363C13.7143 9.78216 13.3243 9.8826 13.041 9.8826H12.0211L12.224 8.92145Z" fill="#0069AB"/>
<path d="M16.6593 11.1013H18.2484L19.0443 7.26131H20.4756L20.7515 5.9391H16.2972L16.0228 7.26131H17.4541L16.6593 11.1013Z" fill="#0069AB"/>
<path d="M20.2438 11.1013H21.7544L22.3542 8.20949H22.3685L23.3151 11.1013H24.8768L25.9621 5.9391H24.4499L23.872 8.75872H23.8582L22.8895 5.9391H21.3125L20.2438 11.1013Z" fill="#0069AB"/>
<path d="M9.6295 14.6619C9.67705 14.4862 9.65747 14.4872 9.77494 14.0133C9.85936 13.5462 10.3737 12.8307 11.2807 12.7572C11.5899 12.7203 23.4629 12.2158 26 12.0381L25.924 12.477C23.5336 12.7859 12.7184 14.252 9.6295 14.6619Z" fill="#E31C24"/>
<path d="M4.43831 11.1021V12.0396L5.25121 11.5702L6.06437 12.0396V11.1021L5.25121 10.6319L4.43831 11.1021Z" fill="#A68561"/>
<path d="M7.68963 11.102V10.1619L5.25091 8.75405L2.81372 10.1619V11.102L5.25091 9.69256L7.68963 11.102Z" fill="#A68561"/>
<path d="M2 6.87727L5.25137 4.99999L8.50324 6.87727V10.6318L7.69009 11.102V7.34742L5.25137 5.93876L2.81341 7.34742V11.102L2 10.6318V6.87727Z" fill="#0069AB"/>
<path d="M5.25096 6.87729L6.87677 7.81632V11.5704L6.06437 12.039V8.28494L5.25096 7.81632L4.43856 8.28494V12.039L3.62642 11.5704V7.81632L5.25096 6.87729Z" fill="#0069AB"/>
</svg>
