<svg width="46" height="32" viewBox="0 0 46 32" fill="none" xmlns="http://www.w3.org/2000/svg">
<g clip-path="url(#clip0_301_1459)">
<path d="M38.3292 9.9374C37.8327 9.64775 37.0792 10.0202 36.6502 10.7671C36.2211 11.5141 36.2756 12.3504 36.7721 12.6378C37.2686 12.9253 38.02 12.5551 38.4512 11.8103C38.8824 11.0655 38.8257 10.2249 38.3292 9.9374Z" fill="#F58220"/>
<path d="M37.0531 18.7355V15.5516C37.0531 14.6805 36.9529 14.1949 36.685 13.7485C36.293 13.0559 35.6157 12.7314 34.6641 12.7314C33.5752 12.7314 32.7999 13.1234 32.1923 13.9902V12.9906H29.2131V13.4545H29.2959C30.167 13.4697 30.2759 13.5677 30.2759 14.7611V18.7355C30.2759 19.9856 30.1931 20.0705 29.2676 20.0857H29.2131V20.591H33.2747V20.0857H33.1941C32.2838 20.0705 32.201 20.0008 32.201 18.7355V15.8674C32.2133 15.3662 32.3423 14.8748 32.5778 14.4323C32.924 13.8356 33.414 13.5285 33.9824 13.5285C34.7882 13.5285 35.1606 14.0882 35.1606 15.6366V18.7355C35.1606 19.9725 35.0626 20.0705 34.1675 20.0857H34.0848V20.591H38.1419V20.0857H38.0592C37.1336 20.0705 37.0509 19.9856 37.0509 18.7355" fill="#F58220"/>
<path d="M12.0589 12.799C11.6112 12.7857 11.1681 12.8933 10.7762 13.1104V13.8226C11.0211 13.5566 11.3623 13.3997 11.7236 13.387C12.6295 13.387 13.4854 14.4933 13.4854 16.8083C13.4854 19.1232 12.6034 20.2143 11.6539 20.2143C10.112 20.2143 10.0837 18.7356 10.0227 18.3697C10.0227 18.3697 10.0118 9.83945 10.0227 9.65869H7V10.1509H7.08275C8.00395 10.1509 8.08235 10.3686 8.08235 11.586V17.8013C8.08888 20.2208 10.6107 20.7261 11.5733 20.7261C13.7271 20.7261 15.5259 19.1559 15.5259 16.5883C15.5259 14.2233 14.0538 12.8077 12.0676 12.8077" fill="#F58220"/>
<path d="M25.8485 12.9057C25.0597 12.8764 24.2977 13.1949 23.7644 13.7768V12.995H20.746V13.6004C21.5039 13.6135 21.7695 13.7027 21.8066 14.4715V23.5593C21.7739 24.3106 21.6019 24.3629 20.8244 24.3846H20.746V24.8812H24.8337V24.389H24.7553C24.1477 24.3672 23.8842 24.3324 23.7666 24.0493V15.7738C23.9713 14.3212 24.5527 13.5242 25.3999 13.5242C26.308 13.5242 26.8503 14.613 26.8503 16.8736C26.8503 19.2081 26.2819 20.2665 25.23 20.2665C25.0062 20.2639 24.7875 20.199 24.5985 20.0792V20.6868C24.9082 20.7798 25.2313 20.821 25.5545 20.8088C26.4871 20.8335 27.3819 20.4396 27.9936 19.7351C28.5576 19.0426 28.8821 17.9232 28.8821 16.6623C28.8821 14.2864 27.7932 12.897 25.8485 12.897" fill="#F58220"/>
<path d="M18.7925 16.4815C18.7936 16.4634 18.7936 16.4452 18.7925 16.4271V13.596H20.2103V12.995H18.7969V10.7693H17.9846V10.839C17.9171 11.362 17.7405 11.865 17.4663 12.3155C17.157 12.7968 16.6387 12.995 16.0442 13.0233H15.7437V13.6026H16.7672V16.12V16.2028C16.7672 18.4829 16.6975 19.182 17.1266 19.7308C17.4859 20.1881 18.1893 20.8088 19.7159 20.8088C20.0397 20.8163 20.3625 20.7714 20.6719 20.6759V20.0661C20.4828 20.1857 20.2642 20.2506 20.0404 20.2534C18.7686 20.2534 18.7904 19.5391 18.7925 16.4881" fill="#F58220"/>
<path fill-rule="evenodd" clip-rule="evenodd" d="M27.8346 7.76621C27.9067 7.65006 27.9972 7.54636 28.1025 7.45915C28.213 7.37194 28.3385 7.30553 28.4727 7.26315C28.6205 7.21235 28.7759 7.18731 28.9322 7.18911C29.0976 7.18675 29.2621 7.21404 29.4179 7.26968C29.5671 7.32315 29.702 7.41035 29.812 7.52448C29.9273 7.63315 30.0153 7.76744 30.069 7.91648C30.1354 8.08406 30.1672 8.26331 30.1626 8.44349V10.5733C30.1615 10.6162 30.1271 10.6506 30.0842 10.6517H29.9601C29.9164 10.6517 29.8807 10.617 29.8795 10.5733V8.45003C29.8842 8.29762 29.8583 8.14581 29.8033 8.00359C29.7596 7.88871 29.6895 7.78575 29.5986 7.70306C29.5139 7.62066 29.4109 7.55947 29.2981 7.52448C29.1804 7.48363 29.0567 7.46301 28.9322 7.4635C28.7677 7.46013 28.6047 7.49675 28.4575 7.57021C28.3271 7.63821 28.2133 7.73413 28.1243 7.85114C28.0268 7.97042 27.9529 8.10715 27.9065 8.25403C27.858 8.41429 27.8337 8.58093 27.8346 8.74838V10.5733C27.8335 10.6162 27.799 10.6506 27.7562 10.6517H27.6299C27.5871 10.6506 27.5527 10.6162 27.5515 10.5733V7.34373C27.5527 7.30091 27.5871 7.26647 27.6299 7.26533H27.7562C27.799 7.26647 27.8335 7.30091 27.8346 7.34373" fill="#7D6B56"/>
<path fill-rule="evenodd" clip-rule="evenodd" d="M21.0269 10.0332V10.5733C21.0258 10.6161 20.9914 10.6505 20.9485 10.6517H20.8222C20.7794 10.6505 20.745 10.6161 20.7438 10.5733V6.08711C20.742 6.06501 20.7494 6.04314 20.7642 6.02665C20.7791 6.01017 20.8001 6.00053 20.8222 6H20.9485C20.9922 6.00118 21.027 6.03691 21.0269 6.08058V7.86852C21.1105 7.71804 21.223 7.58557 21.358 7.4787C21.6145 7.27971 21.9329 7.17719 22.2574 7.18906C22.4756 7.18453 22.6914 7.23548 22.8846 7.33714C23.0629 7.4364 23.2163 7.57492 23.3332 7.74221C23.4591 7.91173 23.5528 8.10291 23.6098 8.30625C23.6756 8.5237 23.7087 8.74978 23.7078 8.977C23.7099 9.21287 23.6769 9.44774 23.6098 9.67388C23.5514 9.87267 23.4578 10.0593 23.3332 10.2249C23.0728 10.5462 22.6797 10.7307 22.2661 10.7257C21.9439 10.7378 21.6278 10.636 21.3732 10.4383C21.2335 10.3266 21.1167 10.1891 21.0291 10.0332H21.0269ZM21.114 9.54103C21.1647 9.71134 21.245 9.87133 21.3514 10.0136C21.4574 10.1459 21.5903 10.2543 21.7412 10.3316C21.902 10.412 22.0798 10.4523 22.2595 10.4492C22.4366 10.4531 22.6118 10.4127 22.7691 10.3316C22.9131 10.2567 23.0371 10.1484 23.1307 10.0158C23.2328 9.87123 23.3067 9.70868 23.3484 9.53668C23.4032 9.3515 23.4304 9.15923 23.429 8.96611C23.4282 8.78432 23.4033 8.60344 23.355 8.4282C23.3128 8.25568 23.2389 8.09249 23.1372 7.94692C23.0431 7.80638 22.9179 7.68939 22.7713 7.60501C22.6124 7.51221 22.4304 7.46617 22.2465 7.47216C21.9128 7.46333 21.5926 7.60387 21.3732 7.85545C21.1253 8.17028 21.0041 8.56646 21.0335 8.96611C21.0323 9.16096 21.061 9.35484 21.1184 9.54103" fill="#7D6B56"/>
<path fill-rule="evenodd" clip-rule="evenodd" d="M26.5193 10.1377L26.4844 10.1856C26.4022 10.2926 26.3028 10.3854 26.1904 10.46C26.0686 10.5445 25.933 10.6072 25.7897 10.6451C25.6322 10.6961 25.4674 10.7211 25.3019 10.7192C25.0067 10.7327 24.7148 10.6527 24.4678 10.4905C24.2471 10.3194 24.1249 10.0506 24.1411 9.77184C24.1364 9.59761 24.1722 9.42465 24.2457 9.2666C24.3119 9.1403 24.4093 9.03308 24.5288 8.95518C24.6457 8.87663 24.7777 8.82324 24.9164 8.79838C25.0519 8.76814 25.1895 8.74848 25.328 8.73958L25.9008 8.7091C26.0264 8.70094 26.1511 8.68126 26.2732 8.6503C26.3463 8.63162 26.4118 8.5905 26.4605 8.5327C26.5043 8.46163 26.5249 8.37864 26.5193 8.29532C26.5196 8.19899 26.5116 8.10281 26.4953 8.00786C26.458 7.81004 26.3213 7.64543 26.1338 7.57231C25.9818 7.51102 25.8184 7.4828 25.6547 7.48955C25.3875 7.47237 25.1235 7.55546 24.9142 7.72257C24.7318 7.89091 24.6276 8.12763 24.6268 8.3759C24.6206 8.41604 24.5868 8.44616 24.5462 8.44776H24.4221C24.4005 8.44837 24.3797 8.44008 24.3644 8.42483C24.3492 8.40959 24.3409 8.38874 24.3415 8.36719C24.3497 8.21312 24.3836 8.06151 24.4417 7.91857C24.4968 7.77066 24.5829 7.63626 24.6943 7.5244C24.8124 7.41789 24.95 7.33509 25.0994 7.28049C25.2784 7.22107 25.4661 7.19235 25.6547 7.19555C25.7961 7.19368 25.9373 7.20904 26.075 7.24129C26.2096 7.26943 26.3361 7.32749 26.4452 7.41115C26.553 7.49303 26.6403 7.59891 26.7 7.72039C26.7686 7.8692 26.8035 8.0313 26.8024 8.19514V10.5733C26.8012 10.6161 26.7668 10.6505 26.724 10.6517H26.5998C26.557 10.6505 26.5226 10.6161 26.5214 10.5733L26.5193 10.1377ZM26.5214 8.83105C26.4884 8.8499 26.4542 8.86663 26.4191 8.88114C26.3151 8.91331 26.2088 8.93733 26.1011 8.953C25.9756 8.97141 25.849 8.98232 25.7222 8.98567C25.5915 8.98567 25.4674 8.98567 25.3411 9.00309C25.2196 9.012 25.0989 9.02873 24.9796 9.05318C24.877 9.06977 24.7795 9.10922 24.6943 9.1686C24.6098 9.22067 24.5424 9.29639 24.5005 9.38638C24.4416 9.5091 24.4147 9.64466 24.4221 9.78055C24.4223 9.86554 24.4355 9.95 24.4613 10.031C24.4907 10.1142 24.54 10.189 24.605 10.2488C24.6829 10.3157 24.7721 10.368 24.8685 10.4034C25.0039 10.4446 25.1451 10.4637 25.2866 10.46C25.4691 10.4619 25.6499 10.4263 25.818 10.3555C25.9617 10.2953 26.092 10.2072 26.2013 10.0963C26.3057 9.989 26.3859 9.86053 26.4365 9.71958C26.4907 9.58072 26.5187 9.43306 26.5193 9.28402L26.5214 8.83105Z" fill="#7D6B56"/>
<path d="M33.5687 10.5929L32.103 8.56104L33.2333 7.37852C33.2333 7.37852 33.2768 7.33497 33.2725 7.31319C33.2682 7.29687 33.2544 7.28481 33.2376 7.2827H32.9937C32.9459 7.28368 32.9007 7.30507 32.8696 7.3415L31.1949 9.01184V6.0784C31.1927 6.03603 31.1589 6.00218 31.1165 6H30.9619C30.9191 6.00114 30.8846 6.03558 30.8835 6.0784V10.5733C30.8847 10.6157 30.9194 10.6495 30.9619 10.6495H31.1165C31.159 10.6495 31.1937 10.6157 31.1949 10.5733V9.42779L31.8613 8.77446L33.1484 10.5972C33.1695 10.634 33.211 10.6539 33.2529 10.6473H33.5251C33.5432 10.6468 33.5601 10.638 33.5708 10.6234C33.5775 10.6127 33.5775 10.5992 33.5708 10.5885" fill="#7D6B56"/>
</g>
<defs>
<clipPath id="clip0_301_1459">
<rect width="32.2222" height="20" fill="white" transform="translate(7 6)"/>
</clipPath>
</defs>
</svg>
