<svg width="34" height="24" viewBox="0 0 34 24" fill="none" xmlns="http://www.w3.org/2000/svg">
<g clip-path="url(#clip0_301_1197)">
<path d="M27.9305 7.75618C27.5829 7.55343 27.0554 7.81411 26.7551 8.33699C26.4548 8.85987 26.4929 9.44525 26.8405 9.64647C27.1881 9.8477 27.714 9.58854 28.0158 9.06719C28.3177 8.54583 28.278 7.9574 27.9305 7.75618Z" fill="#F58220"/>
<path d="M27.0371 13.9149V11.6862C27.0371 11.0764 26.967 10.7365 26.7795 10.4239C26.5051 9.93918 26.031 9.71204 25.3648 9.71204C24.6026 9.71204 24.0599 9.98643 23.6346 10.5932V9.89344H21.5492V10.2181H21.6071C22.2169 10.2288 22.2931 10.2974 22.2931 11.1328V13.9149C22.2931 14.7899 22.2352 14.8494 21.5873 14.86H21.5492V15.2137H24.3923V14.86H24.3359C23.6986 14.8494 23.6407 14.8006 23.6407 13.9149V11.9072C23.6493 11.5564 23.7396 11.2124 23.9044 10.9026C24.1468 10.4849 24.4898 10.27 24.8877 10.27C25.4517 10.27 25.7124 10.6618 25.7124 11.7456V13.9149C25.7124 14.7808 25.6438 14.8494 25.0173 14.86H24.9593V15.2137H27.7994V14.86H27.7414C27.0935 14.8494 27.0356 14.7899 27.0356 13.9149" fill="#F58220"/>
<path d="M9.54125 9.75926C9.22781 9.74995 8.91764 9.82526 8.64336 9.97726V10.4757C8.81477 10.2896 9.05358 10.1798 9.30649 10.1709C9.94065 10.1709 10.5398 10.9453 10.5398 12.5657C10.5398 14.1862 9.92236 14.95 9.25771 14.95C8.17841 14.95 8.15859 13.9149 8.11591 13.6588C8.11591 13.6588 8.10829 7.68756 8.11591 7.56104H6V7.90556H6.05793C6.70276 7.90556 6.75764 8.058 6.75764 8.91016V13.2609C6.76222 14.9545 8.52751 15.3082 9.2013 15.3082C10.709 15.3082 11.9681 14.2091 11.9681 12.4118C11.9681 10.7562 10.9376 9.76536 9.54735 9.76536" fill="#F58220"/>
<path d="M19.194 9.83398C18.6418 9.81349 18.1084 10.0364 17.7351 10.4438V9.89648H15.6222V10.3203C16.1527 10.3294 16.3387 10.3919 16.3646 10.93V17.2915C16.3418 17.8174 16.2213 17.854 15.6771 17.8693H15.6222V18.2168H18.4836V17.8723H18.4287C18.0034 17.8571 17.8189 17.8327 17.7366 17.6345V11.8417C17.8799 10.8249 18.2869 10.2669 18.8799 10.2669C19.5156 10.2669 19.8952 11.0291 19.8952 12.6115C19.8952 14.2457 19.4973 14.9866 18.761 14.9866C18.6044 14.9847 18.4513 14.9393 18.3189 14.8555V15.2808C18.5358 15.3459 18.7619 15.3747 18.9882 15.3661C19.641 15.3834 20.2674 15.1077 20.6955 14.6146C21.0904 14.1298 21.3175 13.3463 21.3175 12.4636C21.3175 10.8005 20.5553 9.82788 19.194 9.82788" fill="#F58220"/>
<path d="M14.2548 12.3371C14.2555 12.3244 14.2555 12.3117 14.2548 12.299V10.3172H15.2472V9.89647H14.2578V8.3385H13.6892V8.38728C13.6419 8.7534 13.5183 9.10552 13.3264 9.42085C13.1099 9.75775 12.7471 9.89647 12.3309 9.91629H12.1206V10.3218H12.8371V12.084V12.142C12.8371 13.738 12.7883 14.2274 13.0886 14.6115C13.3401 14.9317 13.8325 15.3661 14.9011 15.3661C15.1278 15.3714 15.3538 15.34 15.5704 15.2731V14.8463C15.4379 14.93 15.2849 14.9754 15.1283 14.9774C14.238 14.9774 14.2533 14.4774 14.2548 12.3417" fill="#F58220"/>
<path fill-rule="evenodd" clip-rule="evenodd" d="M20.5842 6.23635C20.6347 6.15504 20.698 6.08245 20.7717 6.0214C20.8491 5.96036 20.9369 5.91387 21.0309 5.8842C21.1343 5.84865 21.2431 5.83112 21.3525 5.83237C21.4683 5.83073 21.5834 5.84983 21.6925 5.88878C21.797 5.92621 21.8914 5.98724 21.9684 6.06714C22.0491 6.1432 22.1107 6.23721 22.1483 6.34153C22.1947 6.45884 22.217 6.58432 22.2138 6.71045V8.20134C22.213 8.23131 22.1889 8.25542 22.159 8.25622H22.0721C22.0415 8.25622 22.0165 8.23189 22.0157 8.20134V6.71502C22.0189 6.60833 22.0008 6.50207 21.9623 6.40251C21.9317 6.3221 21.8826 6.25003 21.819 6.19214C21.7597 6.13446 21.6876 6.09163 21.6086 6.06714C21.5263 6.03854 21.4397 6.02411 21.3525 6.02445C21.2373 6.02209 21.1233 6.04773 21.0202 6.09915C20.9289 6.14675 20.8493 6.21389 20.787 6.2958C20.7187 6.3793 20.667 6.475 20.6345 6.57782C20.6006 6.69001 20.5836 6.80665 20.5842 6.92387V8.20134C20.5834 8.23131 20.5593 8.25542 20.5293 8.25622H20.4409C20.411 8.25542 20.3868 8.23131 20.386 8.20134V5.94061C20.3868 5.91064 20.411 5.88653 20.4409 5.88573H20.5293C20.5593 5.88653 20.5834 5.91064 20.5842 5.94061" fill="#7D6B56"/>
<path fill-rule="evenodd" clip-rule="evenodd" d="M15.8188 7.82325V8.2013C15.818 8.23128 15.7939 8.25538 15.764 8.25618H15.6756C15.6456 8.25538 15.6215 8.23128 15.6207 8.2013V5.06098C15.6194 5.0455 15.6246 5.03019 15.635 5.01866C15.6453 5.00712 15.66 5.00037 15.6756 5H15.764C15.7945 5.00083 15.8189 5.02584 15.8188 5.0564V6.30796C15.8774 6.20263 15.9561 6.1099 16.0506 6.03509C16.2302 5.8958 16.453 5.82403 16.6801 5.83234C16.8329 5.82917 16.984 5.86484 17.1192 5.936C17.244 6.00548 17.3514 6.10244 17.4332 6.21954C17.5213 6.33821 17.587 6.47203 17.6268 6.61437C17.6729 6.76659 17.6961 6.92485 17.6954 7.0839C17.6969 7.24901 17.6738 7.41342 17.6268 7.57171C17.586 7.71087 17.5204 7.84152 17.4332 7.9574C17.2509 8.18235 16.9758 8.31152 16.6862 8.30801C16.4607 8.31645 16.2395 8.24521 16.0612 8.10679C15.9635 8.02863 15.8817 7.93236 15.8204 7.82325H15.8188ZM15.8798 7.47872C15.9152 7.59794 15.9715 7.70993 16.046 7.80953C16.1202 7.90216 16.2132 7.97802 16.3189 8.03209C16.4314 8.08838 16.5559 8.11662 16.6817 8.11441C16.8056 8.11718 16.9282 8.08888 17.0384 8.03209C17.1392 7.97966 17.2259 7.90387 17.2914 7.81105C17.3629 7.70986 17.4147 7.59607 17.4439 7.47568C17.4823 7.34605 17.5013 7.21146 17.5003 7.07627C17.4998 6.94902 17.4823 6.8224 17.4485 6.69974C17.4189 6.57898 17.3672 6.46474 17.296 6.36284C17.2301 6.26447 17.1425 6.18257 17.0399 6.12351C16.9286 6.05855 16.8013 6.02632 16.6725 6.03052C16.439 6.02433 16.2148 6.12271 16.0612 6.29881C15.8877 6.51919 15.8029 6.79652 15.8234 7.07627C15.8226 7.21267 15.8427 7.34839 15.8829 7.47872" fill="#7D6B56"/>
<path fill-rule="evenodd" clip-rule="evenodd" d="M19.6635 7.89647L19.6391 7.93C19.5815 8.00492 19.512 8.06982 19.4333 8.12208C19.348 8.18124 19.2531 8.22509 19.1528 8.25166C19.0425 8.28736 18.9272 8.30487 18.8113 8.30349C18.6047 8.31297 18.4004 8.25695 18.2275 8.14342C18.073 8.02367 17.9875 7.83549 17.9988 7.64036C17.9955 7.5184 18.0205 7.39733 18.072 7.28669C18.1183 7.19828 18.1865 7.12323 18.2702 7.0687C18.352 7.01371 18.4444 6.97634 18.5415 6.95894C18.6363 6.93777 18.7327 6.92401 18.8296 6.91778L19.2305 6.89644C19.3185 6.89073 19.4058 6.87696 19.4912 6.85528C19.5424 6.84221 19.5883 6.81342 19.6223 6.77296C19.653 6.72322 19.6674 6.66512 19.6635 6.6068C19.6637 6.53937 19.6581 6.47204 19.6467 6.40557C19.6206 6.2671 19.5249 6.15187 19.3937 6.10069C19.2872 6.05778 19.1729 6.03804 19.0583 6.04276C18.8712 6.03073 18.6864 6.08889 18.54 6.20587C18.4122 6.32371 18.3393 6.48941 18.3388 6.6632C18.3344 6.6913 18.3108 6.71239 18.2823 6.71351H18.1955C18.1804 6.71393 18.1658 6.70813 18.1551 6.69746C18.1444 6.68679 18.1386 6.67219 18.1391 6.6571C18.1448 6.54926 18.1685 6.44313 18.2092 6.34307C18.2478 6.23954 18.3081 6.14546 18.386 6.06715C18.4687 5.9926 18.565 5.93463 18.6696 5.89641C18.7949 5.85482 18.9263 5.83472 19.0583 5.83696C19.1573 5.83565 19.2561 5.8464 19.3525 5.86897C19.4467 5.88868 19.5353 5.92931 19.6117 5.98788C19.6871 6.0452 19.7482 6.11931 19.79 6.20435C19.838 6.30851 19.8625 6.42198 19.8617 6.53667V8.20135C19.8609 8.23132 19.8368 8.25543 19.8068 8.25623H19.7199C19.6899 8.25543 19.6658 8.23132 19.665 8.20135L19.6635 7.89647ZM19.665 6.98181C19.6419 6.995 19.618 7.00671 19.5934 7.01687C19.5206 7.03939 19.4462 7.05621 19.3708 7.06718C19.2829 7.08006 19.1943 7.0877 19.1055 7.09004C19.0141 7.09004 18.9272 7.09004 18.8388 7.10224C18.7537 7.10847 18.6692 7.12018 18.5857 7.1373C18.5139 7.14891 18.4457 7.17653 18.386 7.2181C18.3268 7.25454 18.2797 7.30755 18.2503 7.37054C18.2092 7.45644 18.1903 7.55134 18.1955 7.64646C18.1956 7.70595 18.2049 7.76507 18.2229 7.82177C18.2435 7.88004 18.278 7.93239 18.3235 7.97421C18.378 8.02104 18.4405 8.05769 18.508 8.08245C18.6028 8.1113 18.7016 8.12468 18.8007 8.12208C18.9283 8.1234 19.0549 8.0985 19.1726 8.04891C19.2732 8.0068 19.3644 7.94514 19.4409 7.8675C19.514 7.79237 19.5702 7.70244 19.6056 7.60378C19.6435 7.50658 19.6631 7.40322 19.6635 7.29889L19.665 6.98181Z" fill="#7D6B56"/>
<path d="M24.5981 8.21502L23.5721 6.79273L24.3633 5.96496C24.3633 5.96496 24.3938 5.93448 24.3907 5.91923C24.3877 5.90781 24.3781 5.89936 24.3664 5.89789H24.1956C24.1621 5.89857 24.1305 5.91355 24.1087 5.93905L22.9364 7.10829V5.05488C22.9349 5.02522 22.9112 5.00152 22.8816 5H22.7733C22.7434 5.0008 22.7192 5.02491 22.7184 5.05488V8.2013C22.7193 8.23102 22.7436 8.25466 22.7733 8.25466H22.8816C22.9113 8.25466 22.9356 8.23102 22.9364 8.2013V7.39945L23.4029 6.94212L24.3039 8.21807C24.3186 8.24378 24.3477 8.25772 24.377 8.25313H24.5676C24.5803 8.25278 24.5921 8.24659 24.5996 8.23637C24.6043 8.22891 24.6043 8.21943 24.5996 8.21198" fill="#7D6B56"/>
</g>
<defs>
<clipPath id="clip0_301_1197">
<rect width="22.5556" height="14" fill="white" transform="translate(6 5)"/>
</clipPath>
</defs>
</svg>
