<svg width="28" height="20" viewBox="0 0 28 20" fill="none" xmlns="http://www.w3.org/2000/svg">
<g clip-path="url(#clip0_301_1328)">
<path d="M26.2794 5.17708C25.8788 4.94337 25.2708 5.24386 24.9246 5.84659C24.5784 6.44932 24.6224 7.12409 25.023 7.35604C25.4237 7.588 26.0299 7.28927 26.3778 6.6883C26.7258 6.08733 26.6801 5.40904 26.2794 5.17708Z" fill="#F58220"/>
<path d="M25.2497 12.2763V9.70725C25.2497 9.00436 25.1689 8.6125 24.9527 8.25226C24.6364 7.69347 24.0899 7.43164 23.322 7.43164C22.4434 7.43164 21.8179 7.74794 21.3276 8.44732V7.64075H18.9237V8.01504H18.9905C19.6934 8.02734 19.7812 8.10642 19.7812 9.06937V12.2763C19.7812 13.285 19.7145 13.3535 18.9676 13.3658H18.9237V13.7735H22.2009V13.3658H22.1359C21.4014 13.3535 21.3346 13.2973 21.3346 12.2763V9.96205C21.3445 9.55765 21.4486 9.16114 21.6386 8.80403C21.918 8.32255 22.3134 8.07479 22.772 8.07479C23.4222 8.07479 23.7227 8.52639 23.7227 9.77578V12.2763C23.7227 13.2744 23.6436 13.3535 22.9214 13.3658H22.8546V13.7735H26.1283V13.3658H26.0616C25.3147 13.3535 25.248 13.285 25.248 12.2763" fill="#F58220"/>
<path d="M5.08203 7.48607C4.72072 7.47534 4.36319 7.56214 4.04703 7.73735V8.31196C4.24461 8.09735 4.51989 7.97079 4.81142 7.96052C5.54243 7.96052 6.23302 8.85319 6.23302 10.7211C6.23302 12.5891 5.52134 13.4694 4.75519 13.4694C3.51108 13.4694 3.48823 12.2763 3.43903 11.9811C3.43903 11.9811 3.43024 5.098 3.43903 4.95215H1V5.34928H1.06677C1.81008 5.34928 1.87334 5.525 1.87334 6.50729V11.5224C1.87861 13.4747 3.91348 13.8824 4.69017 13.8824C6.42807 13.8824 7.87954 12.6154 7.87954 10.5436C7.87954 8.63529 6.69165 7.4931 5.08906 7.4931" fill="#F58220"/>
<path d="M16.2088 7.57221C15.5723 7.54859 14.9575 7.80556 14.5271 8.2751V7.64426H12.0916V8.13277C12.7031 8.14331 12.9175 8.21536 12.9474 8.83566V16.1686C12.921 16.7748 12.7822 16.817 12.1549 16.8346H12.0916V17.2352H15.3899V16.8381H15.3267C14.8364 16.8205 14.6238 16.7924 14.5289 16.5639V9.88648C14.6941 8.71441 15.1632 8.07127 15.8468 8.07127C16.5796 8.07127 17.0171 8.94988 17.0171 10.7739C17.0171 12.6576 16.5585 13.5116 15.7097 13.5116C15.5291 13.5095 15.3527 13.4572 15.2001 13.3605V13.8508C15.4501 13.9258 15.7108 13.9591 15.9716 13.9492C16.7241 13.9691 17.4461 13.6513 17.9397 13.0829C18.3948 12.5241 18.6566 11.6209 18.6566 10.6034C18.6566 8.6863 17.778 7.56519 16.2088 7.56519" fill="#F58220"/>
<path d="M10.5154 10.4575C10.5163 10.4428 10.5163 10.4282 10.5154 10.4135V8.12914H11.6593V7.64415H10.5189V5.84827H9.86345V5.9045C9.80897 6.32652 9.66649 6.73241 9.44523 7.0959C9.19571 7.48424 8.77749 7.64415 8.29776 7.66699H8.05527V8.13442H8.88116V10.1658V10.2325C8.88116 12.0724 8.82493 12.6364 9.17111 13.0792C9.46105 13.4483 10.0286 13.9491 11.2604 13.9491C11.5217 13.9552 11.7822 13.919 12.0319 13.8419V13.3499C11.8792 13.4464 11.7028 13.4987 11.5223 13.501C10.4961 13.501 10.5136 12.9246 10.5154 10.4627" fill="#F58220"/>
<path fill-rule="evenodd" clip-rule="evenodd" d="M17.8114 3.42513C17.8696 3.3314 17.9426 3.24773 18.0275 3.17736C18.1167 3.107 18.2179 3.05341 18.3263 3.01921C18.4455 2.97822 18.5709 2.95801 18.697 2.95946C18.8305 2.95756 18.9632 2.97958 19.0889 3.02448C19.2093 3.06762 19.3182 3.13798 19.4069 3.23008C19.5 3.31776 19.571 3.42612 19.6143 3.54638C19.6678 3.6816 19.6935 3.82624 19.6899 3.97163V5.69019C19.6889 5.72474 19.6611 5.75253 19.6266 5.75345H19.5264C19.4912 5.75345 19.4624 5.72541 19.4614 5.69019V3.9769C19.4652 3.85392 19.4443 3.73143 19.3999 3.61667C19.3647 3.52397 19.3081 3.4409 19.2347 3.37417C19.1664 3.30769 19.0833 3.25831 18.9922 3.23008C18.8973 3.19711 18.7975 3.18048 18.697 3.18087C18.5643 3.17816 18.4328 3.2077 18.314 3.26698C18.2088 3.32184 18.117 3.39924 18.0451 3.49366C17.9664 3.58991 17.9068 3.70023 17.8694 3.81875C17.8302 3.94806 17.8107 4.08252 17.8114 4.21764V5.69019C17.8105 5.72474 17.7827 5.75253 17.7481 5.75345H17.6462C17.6117 5.75253 17.5839 5.72474 17.5829 5.69019V3.08423C17.5839 3.04968 17.6117 3.02189 17.6462 3.02097H17.7481C17.7827 3.02189 17.8105 3.04968 17.8114 3.08423" fill="#7D6B56"/>
<path fill-rule="evenodd" clip-rule="evenodd" d="M12.3183 5.25438V5.69017C12.3174 5.72472 12.2896 5.75251 12.255 5.75343H12.1531C12.1186 5.75251 12.0908 5.72472 12.0898 5.69017V2.07029C12.0884 2.05245 12.0943 2.03481 12.1063 2.0215C12.1183 2.0082 12.1352 2.00042 12.1531 2H12.255C12.2902 2.00095 12.3183 2.02978 12.3183 2.06502V3.5077C12.3857 3.38628 12.4765 3.27939 12.5854 3.19316C12.7924 3.03259 13.0493 2.94987 13.3111 2.95944C13.4872 2.95579 13.6613 2.99691 13.8172 3.07894C13.9611 3.15903 14.0849 3.2708 14.1792 3.40578C14.2808 3.54257 14.3564 3.69683 14.4024 3.8609C14.4555 4.03637 14.4822 4.21879 14.4814 4.40213C14.4832 4.59245 14.4565 4.78197 14.4024 4.96444C14.3553 5.12485 14.2797 5.27545 14.1792 5.40902C13.9691 5.66832 13.6519 5.81722 13.3181 5.81318C13.0582 5.82291 12.8031 5.74079 12.5977 5.58123C12.485 5.49113 12.3907 5.38015 12.32 5.25438H12.3183ZM12.3886 4.85725C12.4294 4.99466 12.4943 5.12376 12.5801 5.23857C12.6657 5.34535 12.7729 5.43279 12.8947 5.49512C13.0244 5.56 13.1679 5.59255 13.3129 5.59001C13.4557 5.5932 13.5971 5.56058 13.7241 5.49512C13.8402 5.43468 13.9403 5.34731 14.0158 5.24032C14.0982 5.12368 14.1578 4.99252 14.1915 4.85373C14.2357 4.70431 14.2576 4.54917 14.2565 4.39334C14.2559 4.24666 14.2358 4.1007 14.1968 3.95931C14.1627 3.8201 14.1031 3.68842 14.021 3.57096C13.9451 3.45756 13.8441 3.36316 13.7258 3.29508C13.5976 3.2202 13.4508 3.18304 13.3023 3.18788C13.0331 3.18075 12.7747 3.29416 12.5977 3.49716C12.3976 3.75119 12.2999 4.07087 12.3236 4.39334C12.3226 4.55057 12.3457 4.70701 12.3921 4.85725" fill="#7D6B56"/>
<path fill-rule="evenodd" clip-rule="evenodd" d="M16.75 5.33868L16.7219 5.37734C16.6555 5.4637 16.5754 5.53851 16.4847 5.59875C16.3864 5.66694 16.277 5.71749 16.1613 5.74812C16.0342 5.78927 15.9013 5.80945 15.7677 5.80786C15.5295 5.81879 15.294 5.75422 15.0947 5.62335C14.9166 5.48531 14.818 5.26839 14.8311 5.04347C14.8273 4.90288 14.8562 4.76332 14.9155 4.63579C14.9689 4.53388 15.0475 4.44737 15.1439 4.38451C15.2383 4.32113 15.3448 4.27804 15.4567 4.25799C15.566 4.23359 15.677 4.21772 15.7888 4.21054L16.2509 4.18594C16.3524 4.17937 16.4529 4.16348 16.5514 4.1385C16.6105 4.12343 16.6633 4.09025 16.7026 4.04361C16.7379 3.98627 16.7545 3.9193 16.75 3.85207C16.7503 3.77434 16.7438 3.69673 16.7307 3.62012C16.7006 3.4605 16.5903 3.32768 16.439 3.26867C16.3163 3.21922 16.1845 3.19645 16.0524 3.2019C15.8368 3.18804 15.6237 3.25508 15.4549 3.38992C15.3077 3.52575 15.2236 3.71676 15.223 3.91709C15.218 3.94948 15.1907 3.97378 15.158 3.97508H15.0578C15.0404 3.97557 15.0236 3.96887 15.0113 3.95657C14.999 3.94427 14.9923 3.92745 14.9928 3.91006C14.9994 3.78575 15.0268 3.66341 15.0736 3.54807C15.1181 3.42872 15.1876 3.32028 15.2774 3.23001C15.3728 3.14407 15.4837 3.07726 15.6043 3.0332C15.7487 2.98526 15.9002 2.96209 16.0524 2.96467C16.1665 2.96316 16.2804 2.97555 16.3915 3.00157C16.5001 3.02428 16.6022 3.07113 16.6903 3.13864C16.7772 3.20471 16.8476 3.29014 16.8958 3.38816C16.9512 3.50824 16.9794 3.63903 16.9784 3.77124V5.69013C16.9775 5.72468 16.9497 5.75247 16.9152 5.75339H16.815C16.7805 5.75247 16.7527 5.72468 16.7518 5.69013L16.75 5.33868ZM16.7518 4.28435C16.7251 4.29956 16.6975 4.31306 16.6692 4.32476C16.5853 4.35072 16.4995 4.37011 16.4126 4.38275C16.3113 4.3976 16.2092 4.40641 16.1069 4.40911C16.0014 4.40911 15.9013 4.40911 15.7993 4.42317C15.7013 4.43035 15.6039 4.44385 15.5076 4.46359C15.4249 4.47697 15.3462 4.5088 15.2774 4.55672C15.2092 4.59873 15.1549 4.65983 15.1211 4.73244C15.0736 4.83146 15.0518 4.94085 15.0578 5.0505C15.058 5.11908 15.0686 5.18722 15.0894 5.25258C15.1131 5.31975 15.153 5.38009 15.2054 5.4283C15.2682 5.48227 15.3403 5.52453 15.418 5.55307C15.5273 5.58632 15.6412 5.60175 15.7554 5.59875C15.9026 5.60028 16.0485 5.57157 16.1842 5.51441C16.3001 5.46587 16.4052 5.39479 16.4934 5.3053C16.5777 5.21869 16.6424 5.11503 16.6832 5.0013C16.7269 4.88926 16.7496 4.77011 16.75 4.64985L16.7518 4.28435Z" fill="#7D6B56"/>
<path d="M22.4381 5.70599L21.2555 4.0665L22.1675 3.11232C22.1675 3.11232 22.2027 3.07718 22.1992 3.05961C22.1957 3.04644 22.1846 3.0367 22.171 3.03501H21.9742C21.9356 3.03579 21.8992 3.05306 21.8741 3.08245L20.5228 4.43024V2.06326C20.521 2.02908 20.4937 2.00176 20.4595 2H20.3347C20.3002 2.00092 20.2724 2.02871 20.2715 2.06326V5.69017C20.2724 5.72442 20.3005 5.75168 20.3347 5.75168H20.4595C20.4938 5.75168 20.5218 5.72442 20.5228 5.69017V4.76587L21.0605 4.23871L22.099 5.7095C22.116 5.73913 22.1496 5.7552 22.1833 5.74992H22.403C22.4176 5.74951 22.4312 5.74238 22.4399 5.73059C22.4453 5.722 22.4453 5.71106 22.4399 5.70247" fill="#7D6B56"/>
</g>
<defs>
<clipPath id="clip0_301_1328">
<rect width="26" height="16.1379" fill="white" transform="translate(1 2)"/>
</clipPath>
</defs>
</svg>
