<svg width="58" height="40" viewBox="0 0 58 40" fill="none" xmlns="http://www.w3.org/2000/svg">
<g clip-path="url(#clip0_301_1590)">
<path d="M47.5951 12.7249C46.9992 12.3773 46.095 12.8242 45.5802 13.7205C45.0654 14.6169 45.1307 15.6204 45.7265 15.9654C46.3224 16.3103 47.224 15.8661 47.7414 14.9723C48.2588 14.0786 48.1909 13.0698 47.5951 12.7249Z" fill="#F58220"/>
<path d="M46.0637 23.2827V19.462C46.0637 18.4167 45.9435 17.8339 45.622 17.2982C45.1516 16.4671 44.3389 16.0778 43.1969 16.0778C41.8902 16.0778 40.9599 16.5482 40.2308 17.5883V16.3887H36.6558V16.9454H36.7551C37.8004 16.9637 37.9311 17.0813 37.9311 18.5134V23.2827C37.9311 24.7827 37.8318 24.8846 36.7211 24.9029H36.6558V25.5092H41.5296V24.9029H41.4329C40.3405 24.8846 40.2412 24.801 40.2412 23.2827V19.8409C40.2559 19.2395 40.4107 18.6498 40.6933 18.1188C41.1088 17.4027 41.6968 17.0342 42.3789 17.0342C43.3458 17.0342 43.7927 17.7059 43.7927 19.5639V23.2827C43.7927 24.767 43.6751 24.8846 42.601 24.9029H42.5017V25.5092H47.3703V24.9029H47.271C46.1604 24.8846 46.0611 24.7827 46.0611 23.2827" fill="#F58220"/>
<path d="M16.0707 16.1588C15.5334 16.1428 15.0017 16.2719 14.5315 16.5325V17.387C14.8253 17.0679 15.2347 16.8796 15.6683 16.8644C16.7554 16.8644 17.7824 18.1919 17.7824 20.9699C17.7824 23.7478 16.724 25.0571 15.5846 25.0571C13.7344 25.0571 13.7004 23.2827 13.6273 22.8436C13.6273 22.8436 13.6142 12.6073 13.6273 12.3904H10V12.981H10.0993C11.2047 12.981 11.2988 13.2423 11.2988 14.7032V22.1615C11.3067 25.0649 14.3329 25.6712 15.488 25.6712C18.0725 25.6712 20.2311 23.787 20.2311 20.7059C20.2311 17.8679 18.4645 16.1692 16.0812 16.1692" fill="#F58220"/>
<path d="M32.6182 16.2868C31.6716 16.2517 30.7573 16.6338 30.1173 17.3321V16.394H26.4952V17.1205C27.4047 17.1361 27.7235 17.2433 27.7679 18.1658V29.0711C27.7287 29.9727 27.5223 30.0354 26.5893 30.0616H26.4952V30.6574H31.4004V30.0668H31.3063C30.5772 30.0407 30.261 29.9989 30.1199 29.6591V19.7285C30.3656 17.9855 31.0633 17.029 32.0799 17.029C33.1696 17.029 33.8203 18.3357 33.8203 21.0483C33.8203 23.8497 33.1383 25.1198 31.876 25.1198C31.6075 25.1166 31.3451 25.0388 31.1182 24.8951V25.6242C31.4899 25.7358 31.8776 25.7852 32.2654 25.7705C33.3846 25.8002 34.4583 25.3275 35.1923 24.4822C35.8692 23.6511 36.2586 22.3079 36.2586 20.7948C36.2586 17.9437 34.9519 16.2764 32.6182 16.2764" fill="#F58220"/>
<path d="M24.1511 20.5779C24.1524 20.5561 24.1524 20.5343 24.1511 20.5125V17.1152H25.8523V16.3939H24.1563V13.7231H23.1815V13.8068C23.1005 14.4344 22.8886 15.038 22.5596 15.5786C22.1885 16.1561 21.5665 16.3939 20.8531 16.4279H20.4924V17.1231H21.7207V20.144V20.2434C21.7207 22.9795 21.6371 23.8184 22.1519 24.4769C22.5831 25.0257 23.4272 25.7705 25.2591 25.7705C25.6476 25.7796 26.035 25.7257 26.4064 25.6111V24.8794C26.1794 25.0229 25.917 25.1007 25.6485 25.1041C24.1223 25.1041 24.1485 24.2469 24.1511 20.5857" fill="#F58220"/>
<path fill-rule="evenodd" clip-rule="evenodd" d="M35.0015 10.1195C35.0881 9.98007 35.1966 9.85563 35.323 9.75098C35.4556 9.64633 35.6061 9.56664 35.7672 9.51578C35.9446 9.45482 36.1311 9.42477 36.3186 9.42693C36.5171 9.4241 36.7145 9.45685 36.9014 9.52362C37.0805 9.58778 37.2424 9.69242 37.3744 9.82938C37.5127 9.95977 37.6184 10.1209 37.6828 10.2998C37.7624 10.5009 37.8006 10.716 37.7952 10.9322V13.488C37.7938 13.5394 37.7525 13.5807 37.7011 13.5821H37.5521C37.4997 13.5821 37.4568 13.5404 37.4554 13.488V10.94C37.461 10.7571 37.4299 10.575 37.364 10.4043C37.3116 10.2665 37.2274 10.1429 37.1183 10.0437C37.0167 9.9448 36.8931 9.87137 36.7577 9.82938C36.6165 9.78035 36.4681 9.75561 36.3186 9.7562C36.1212 9.75216 35.9257 9.7961 35.7489 9.88426C35.5925 9.96585 35.456 10.081 35.3491 10.2214C35.2321 10.3645 35.1435 10.5286 35.0878 10.7048C35.0295 10.8972 35.0005 11.0971 35.0015 11.2981V13.488C35.0002 13.5394 34.9588 13.5807 34.9075 13.5821H34.7559C34.7045 13.5807 34.6632 13.5394 34.6618 13.488V9.61247C34.6632 9.56109 34.7045 9.51976 34.7559 9.51839H34.9075C34.9588 9.51976 35.0002 9.56109 35.0015 9.61247" fill="#7D6B56"/>
<path fill-rule="evenodd" clip-rule="evenodd" d="M26.8323 12.8398V13.488C26.8309 13.5393 26.7896 13.5807 26.7382 13.582H26.5866C26.5353 13.5807 26.4939 13.5393 26.4926 13.488V8.10453C26.4904 8.07801 26.4993 8.05176 26.5171 8.03198C26.5349 8.0122 26.56 8.00063 26.5866 8H26.7382C26.7906 8.00142 26.8323 8.04429 26.8323 8.09669V10.2422C26.9326 10.0617 27.0676 9.90268 27.2295 9.77444C27.5374 9.53565 27.9194 9.41263 28.3088 9.42687C28.5707 9.42143 28.8297 9.48258 29.0615 9.60457C29.2754 9.72369 29.4595 9.8899 29.5998 10.0906C29.7509 10.2941 29.8634 10.5235 29.9317 10.7675C30.0107 11.0284 30.0504 11.2997 30.0493 11.5724C30.0519 11.8554 30.0122 12.1373 29.9317 12.4087C29.8617 12.6472 29.7493 12.8712 29.5998 13.0698C29.2873 13.4554 28.8156 13.6769 28.3193 13.6709C27.9327 13.6854 27.5533 13.5632 27.2478 13.3259C27.0802 13.1919 26.94 13.0269 26.8349 12.8398H26.8323ZM26.9368 12.2492C26.9976 12.4536 27.094 12.6456 27.2217 12.8163C27.3489 12.9751 27.5083 13.1052 27.6895 13.1979C27.8824 13.2944 28.0958 13.3428 28.3114 13.339C28.5239 13.3437 28.7341 13.2952 28.9229 13.1979C29.0957 13.108 29.2445 12.9781 29.3568 12.8189C29.4793 12.6455 29.568 12.4504 29.6181 12.244C29.6839 12.0218 29.7165 11.7911 29.7148 11.5593C29.7139 11.3412 29.684 11.1241 29.6259 10.9138C29.5753 10.7068 29.4867 10.511 29.3646 10.3363C29.2517 10.1677 29.1015 10.0273 28.9256 9.92601C28.7348 9.81465 28.5165 9.7594 28.2958 9.7666C27.8953 9.75599 27.5111 9.92465 27.2478 10.2265C26.9503 10.6043 26.8049 11.0798 26.8401 11.5593C26.8388 11.7931 26.8731 12.0258 26.9421 12.2492" fill="#7D6B56"/>
<path fill-rule="evenodd" clip-rule="evenodd" d="M33.4231 12.9653L33.3813 13.0228C33.2826 13.1512 33.1634 13.2625 33.0285 13.3521C32.8823 13.4535 32.7196 13.5287 32.5476 13.5742C32.3586 13.6354 32.1609 13.6654 31.9622 13.6631C31.608 13.6793 31.2577 13.5833 30.9613 13.3887C30.6965 13.1834 30.5499 12.8608 30.5693 12.5263C30.5637 12.3172 30.6066 12.1097 30.6948 11.92C30.7742 11.7684 30.8912 11.6398 31.0345 11.5463C31.1749 11.452 31.3333 11.388 31.4997 11.3581C31.6622 11.3218 31.8274 11.2983 31.9936 11.2876L32.6809 11.251C32.8317 11.2412 32.9813 11.2176 33.1278 11.1804C33.2156 11.158 33.2942 11.1087 33.3525 11.0393C33.4051 10.954 33.4298 10.8544 33.4231 10.7545C33.4235 10.6389 33.4139 10.5234 33.3943 10.4095C33.3495 10.1721 33.1856 9.97459 32.9605 9.88684C32.7781 9.81329 32.5821 9.77944 32.3856 9.78753C32.0649 9.76692 31.7481 9.86662 31.4971 10.0672C31.2781 10.2692 31.1531 10.5532 31.1521 10.8512C31.1447 10.8993 31.1041 10.9355 31.0554 10.9374H30.9065C30.8806 10.9381 30.8556 10.9282 30.8373 10.9099C30.819 10.8916 30.809 10.8666 30.8098 10.8407C30.8197 10.6558 30.8603 10.4739 30.93 10.3024C30.9961 10.1249 31.0995 9.96359 31.2331 9.82935C31.3749 9.70154 31.5399 9.60218 31.7192 9.53666C31.934 9.46535 32.1593 9.43089 32.3856 9.43474C32.5553 9.43249 32.7247 9.45092 32.89 9.48962C33.0515 9.52339 33.2033 9.59306 33.3342 9.69346C33.4636 9.79171 33.5683 9.91877 33.64 10.0645C33.7223 10.2431 33.7642 10.4376 33.7628 10.6342V13.488C33.7614 13.5394 33.7201 13.5807 33.6687 13.5821H33.5198C33.4684 13.5807 33.4271 13.5394 33.4257 13.488L33.4231 12.9653ZM33.4257 11.3973C33.3861 11.42 33.345 11.44 33.3029 11.4574C33.1781 11.496 33.0505 11.5249 32.9213 11.5437C32.7707 11.5658 32.6188 11.5789 32.4666 11.5829C32.3098 11.5829 32.1608 11.5829 32.0093 11.6038C31.8635 11.6145 31.7186 11.6345 31.5755 11.6639C31.4524 11.6838 31.3354 11.7311 31.2331 11.8024C31.1317 11.8649 31.0508 11.9557 31.0005 12.0637C30.9299 12.211 30.8976 12.3737 30.9065 12.5367C30.9067 12.6387 30.9226 12.7401 30.9535 12.8373C30.9888 12.9372 31.048 13.0269 31.126 13.0986C31.2194 13.1789 31.3265 13.2417 31.4422 13.2841C31.6047 13.3336 31.7741 13.3565 31.9439 13.3521C32.1628 13.3544 32.3799 13.3117 32.5816 13.2266C32.754 13.1545 32.9103 13.0488 33.0415 12.9157C33.1668 12.7869 33.2631 12.6327 33.3238 12.4636C33.3888 12.2969 33.4224 12.1197 33.4231 11.9409L33.4257 11.3973Z" fill="#7D6B56"/>
<path d="M41.8824 13.5115L40.1236 11.0733L41.4799 9.65423C41.4799 9.65423 41.5322 9.60196 41.527 9.57583C41.5218 9.55624 41.5052 9.54177 41.4851 9.53924H41.1925C41.135 9.54041 41.0808 9.56609 41.0435 9.6098L39.0339 11.6142V8.09408C39.0312 8.04324 38.9906 8.00261 38.9398 8H38.7542C38.7029 8.00137 38.6615 8.0427 38.6602 8.09408V13.488C38.6616 13.5389 38.7033 13.5794 38.7542 13.5794H38.9398C38.9907 13.5794 39.0324 13.5389 39.0339 13.488V12.1133L39.8335 11.3294L41.378 13.5167C41.4033 13.5608 41.4532 13.5847 41.5034 13.5768H41.8301C41.8518 13.5762 41.8721 13.5656 41.885 13.5481C41.893 13.5353 41.893 13.519 41.885 13.5062" fill="#7D6B56"/>
</g>
<defs>
<clipPath id="clip0_301_1590">
<rect width="38.6667" height="24" fill="white" transform="translate(10 8)"/>
</clipPath>
</defs>
</svg>
