<svg width="58" height="40" viewBox="0 0 58 40" fill="none" xmlns="http://www.w3.org/2000/svg">
<rect width="58" height="40" rx="6" fill="white"/>
<path d="M18.0641 5H40.823C40.823 12.5859 40.823 20.1717 40.8216 27.7576C33.2358 27.7589 25.6499 27.7576 18.0641 27.7589V5ZM21.0954 9.27221C22.8665 11.6438 24.6638 13.9948 26.4432 16.3595C24.679 18.7339 22.8707 21.0752 21.1037 23.4482C25.1431 23.4647 29.1812 23.4482 33.2206 23.4564C35.0386 21.1041 36.7905 18.7008 38.6208 16.3567L38.5864 16.3581C36.8028 13.9934 35.0111 11.6342 33.2303 9.26945C29.1853 9.27221 25.1404 9.26532 21.0954 9.27221Z" fill="#790008"/>
<path d="M21.0954 9.27222C25.1404 9.26533 29.1853 9.27222 33.2303 9.26946C35.0111 11.6342 36.8028 13.9934 38.5864 16.3581C34.5387 16.3664 30.4909 16.3623 26.4432 16.3595C24.6638 13.9948 22.8665 11.6438 21.0954 9.27222Z" fill="white"/>
<path d="M26.4432 16.3596C30.4909 16.3623 34.5387 16.3665 38.5864 16.3582L38.6208 16.3568C36.7904 18.7009 35.0386 21.1042 33.2206 23.4565C29.1812 23.4482 25.1431 23.4648 21.1037 23.4482C22.8707 21.0752 24.679 18.7339 26.4432 16.3596Z" fill="#ED3024"/>
<path d="M14.4421 31.759C14.7897 31.3256 15.3241 31.0472 15.8794 31.0158C16.4054 30.9752 16.9406 31.1599 17.3359 31.5079C17.1575 31.6877 16.9787 31.8664 16.7989 32.0448C16.4948 31.7982 16.0723 31.7011 15.6936 31.8092C15.2712 31.9201 14.932 32.2811 14.8377 32.7064C14.7226 33.1681 14.8889 33.6927 15.2687 33.9852C15.7025 34.3402 16.3754 34.3222 16.8018 33.9636C16.9805 34.1427 17.1631 34.3186 17.3373 34.5027C16.9844 34.8093 16.5255 34.9937 16.0571 34.9993C15.4669 35.0156 14.8755 34.7559 14.4901 34.3084C14.2206 34.0014 14.0489 33.6093 14.0104 33.2024C13.9564 32.6895 14.1143 32.1578 14.4421 31.759Z" fill="#790008"/>
<path d="M18.0452 31.1218C18.3013 31.1218 18.557 31.1222 18.8131 31.1215C18.8138 32.3787 18.8131 33.6355 18.8135 34.8927C18.5574 34.8927 18.3013 34.893 18.0452 34.8923C18.0455 33.6355 18.0452 32.3787 18.0452 31.1218Z" fill="#790008"/>
<path d="M19.7319 31.113C19.9809 31.1123 20.23 31.1144 20.4794 31.1119C20.9234 31.9106 21.3561 32.7164 21.8058 33.5122C22.2417 32.7111 22.684 31.9138 23.1199 31.1126C23.371 31.1134 23.6222 31.1126 23.8737 31.113C23.8723 32.3705 23.8762 33.6277 23.8716 34.8853C23.6158 34.8814 23.3604 34.886 23.1047 34.8828C23.1065 34.1385 23.1047 33.3946 23.1057 32.6507C22.6653 33.4027 22.2456 34.1675 21.7973 34.9146C21.3692 34.1576 20.9294 33.4073 20.4995 32.6514C20.5009 33.3957 20.4999 34.1396 20.5002 34.8839C20.2441 34.8839 19.9884 34.8835 19.7323 34.8842C19.7312 33.627 19.7323 32.3702 19.7319 31.113Z" fill="#790008"/>
<path d="M24.7483 31.1215C25.2669 31.1222 25.7851 31.1215 26.3037 31.1218C26.5435 31.1264 26.7897 31.1769 26.9946 31.3073C27.4895 31.6096 27.6033 32.3949 27.19 32.811C27.137 32.8675 27.0741 32.9142 27.0116 32.9594C27.2472 33.0834 27.4281 33.3133 27.4719 33.5783C27.5358 33.9358 27.4542 34.3462 27.1769 34.5984C26.9558 34.81 26.6414 34.8863 26.3432 34.8902C25.8116 34.8959 25.2796 34.8913 24.748 34.8927C24.7483 33.6355 24.7473 32.3787 24.7483 31.1215ZM25.5163 31.8106C25.5159 32.0844 25.5163 32.3582 25.5163 32.6319C25.7424 32.6312 25.9688 32.633 26.1952 32.6316C26.327 32.6291 26.4694 32.6016 26.5658 32.5044C26.7028 32.3589 26.7064 32.1134 26.5845 31.9572C26.4909 31.8446 26.3362 31.8096 26.1959 31.8103C25.9692 31.8106 25.7427 31.8106 25.5163 31.8106ZM25.5163 33.3211C25.5163 33.6122 25.5159 33.9036 25.5163 34.195C25.766 34.1954 26.0158 34.1947 26.2655 34.1957C26.3825 34.1993 26.5054 34.1664 26.593 34.0855C26.7675 33.9174 26.7707 33.6041 26.5926 33.4373C26.4966 33.3462 26.3588 33.3225 26.2313 33.3208C25.9928 33.3204 25.7544 33.3208 25.5163 33.3211Z" fill="#790008"/>
<path d="M29.066 31.1133C29.1943 31.1147 29.3225 31.1087 29.4507 31.115C29.5093 31.1606 29.5422 31.232 29.5892 31.2892C30.2928 32.2504 30.9908 33.2158 31.6984 34.1741C31.6977 33.1536 31.6984 32.1334 31.698 31.1129C31.8305 31.1129 31.963 31.1129 32.0954 31.1129C32.0954 32.3669 32.0954 33.621 32.0954 34.875C31.9616 34.875 31.8277 34.8746 31.6942 34.8757C30.9509 33.8534 30.2081 32.8307 29.4638 31.8092C29.4638 32.8311 29.4638 33.853 29.4638 34.8746C29.3302 34.8743 29.1967 34.8774 29.0639 34.8718C29.0699 33.6192 29.065 32.3662 29.066 31.1133Z" fill="#790008"/>
<path d="M33.0845 31.113C33.217 31.113 33.3491 31.113 33.4819 31.113C33.4819 32.3671 33.4816 33.6207 33.4819 34.8744C33.3495 34.8754 33.217 34.8747 33.0849 34.8751C33.0838 33.6211 33.0849 32.3671 33.0845 31.113Z" fill="#790008"/>
<path d="M34.0938 34.9005C34.5519 33.6461 35.0104 32.3917 35.4718 31.1388C35.6554 31.1406 35.8388 31.1391 36.0225 31.1395C36.4594 32.3847 36.8957 33.6306 37.3341 34.8751C37.1779 34.8747 37.0218 34.8754 36.866 34.8747C36.7498 34.5416 36.6318 34.2088 36.5121 33.8768C35.9931 33.8771 35.4746 33.8771 34.956 33.8771C34.8402 34.218 34.7289 34.561 34.6127 34.9019C34.4396 34.9005 34.2665 34.9026 34.0938 34.9005ZM35.115 33.426C35.5279 33.4278 35.9412 33.4264 36.3542 33.4268C36.1472 32.8234 35.943 32.219 35.7395 31.6146C35.5322 32.2187 35.3206 32.8213 35.115 33.426Z" fill="#790008"/>
<path d="M38.2161 31.7551C38.5298 31.4322 38.9495 31.2002 39.402 31.1585C39.9597 31.1023 40.515 31.3093 40.9661 31.6269C40.8782 31.741 40.7856 31.8512 40.6984 31.9656C40.5482 31.7519 40.2822 31.6721 40.0424 31.6074C39.6252 31.4926 39.1519 31.5548 38.7997 31.8137C38.4814 32.054 38.2688 32.4189 38.1843 32.8057C38.1366 33.2055 38.1762 33.6421 38.4136 33.9805C38.4952 34.1084 38.6252 34.1907 38.7364 34.29C38.9724 34.4825 39.2819 34.5698 39.5835 34.5669C39.9548 34.5705 40.3222 34.4754 40.6616 34.3295C40.6613 33.9431 40.6623 33.5566 40.6613 33.1702C40.367 33.1706 40.0728 33.1706 39.7785 33.1702C39.7785 33.0529 39.7785 32.9356 39.7782 32.8184C40.1961 32.8159 40.6139 32.8184 41.0322 32.817C41.0329 33.4146 41.0322 34.012 41.0325 34.6097C40.6337 34.8322 40.1766 34.9255 39.7266 34.9703C39.2501 34.9802 38.7523 34.858 38.3814 34.5468C38.019 34.249 37.8074 33.7958 37.7452 33.3366C37.6976 32.7777 37.8396 32.1825 38.2161 31.7551Z" fill="#790008"/>
<path d="M41.6698 34.8966C42.1301 33.645 42.5882 32.3928 43.045 31.1398C43.2286 31.1388 43.4123 31.1409 43.5964 31.1381C44.0185 32.3267 44.4311 33.5189 44.8518 34.7083C44.8716 34.7616 44.8825 34.8175 44.8871 34.8747C44.7391 34.8754 44.5918 34.8747 44.4445 34.8754C44.3248 34.5433 44.2082 34.2099 44.0902 33.8775C43.5695 33.8768 43.0488 33.8764 42.5285 33.8778C42.4169 34.2194 42.301 34.5596 42.1887 34.9008C42.0156 34.8998 41.8425 34.9065 41.6698 34.8966ZM43.3138 31.6171C43.1089 32.2215 42.8952 32.8227 42.6921 33.4278C43.1036 33.4257 43.5155 33.4271 43.927 33.4271C43.7267 32.8223 43.519 32.22 43.3138 31.6171Z" fill="#790008"/>
</svg>
