<svg width="28" height="20" viewBox="0 0 28 20" fill="none" xmlns="http://www.w3.org/2000/svg">
<rect width="28" height="20" rx="4" fill="white"/>
<path d="M9.62564 4H18.7292C18.7292 7.03434 18.7292 10.0687 18.7287 13.103C15.6943 13.1036 12.66 13.103 9.62564 13.1036V4ZM10.8382 5.70888C11.5466 6.65753 12.2655 7.59791 12.9773 8.5438C12.2716 9.49355 11.5483 10.4301 10.8415 11.3793C12.4572 11.3859 14.0725 11.3793 15.6883 11.3826C16.4154 10.4416 17.1162 9.48032 17.8483 8.5427L17.8346 8.54325C17.1211 7.59736 16.4044 6.65367 15.6921 5.70778C14.0741 5.70888 12.4561 5.70613 10.8382 5.70888Z" fill="#790008"/>
<path d="M10.8382 5.70891C12.4561 5.70616 14.0741 5.70891 15.6921 5.70781C16.4044 6.6537 17.1211 7.59739 17.8345 8.54328C16.2155 8.54658 14.5964 8.54493 12.9773 8.54383C12.2655 7.59794 11.5466 6.65756 10.8382 5.70891Z" fill="white"/>
<path d="M12.9773 8.54383C14.5964 8.54493 16.2155 8.54658 17.8345 8.54328L17.8483 8.54272C17.1162 9.48035 16.4154 10.4417 15.6883 11.3826C14.0725 11.3793 12.4572 11.3859 10.8415 11.3793C11.5483 10.4301 12.2716 9.49357 12.9773 8.54383Z" fill="#ED3024"/>
<path d="M8.17684 14.7036C8.31587 14.5302 8.52966 14.4188 8.75178 14.4063C8.96217 14.39 9.17623 14.4639 9.33435 14.6031C9.26299 14.675 9.19149 14.7465 9.11957 14.8179C8.99792 14.7192 8.82892 14.6804 8.67745 14.7236C8.50846 14.768 8.37282 14.9124 8.33509 15.0825C8.28903 15.2672 8.35558 15.477 8.50747 15.594C8.68099 15.736 8.95016 15.7288 9.1207 15.5854C9.1922 15.657 9.26525 15.7274 9.33491 15.801C9.19375 15.9237 9.01021 15.9974 8.82285 15.9997C8.58674 16.0062 8.35021 15.9023 8.19605 15.7233C8.08824 15.6005 8.01957 15.4437 8.00417 15.2809C7.98255 15.0757 8.04571 14.8631 8.17684 14.7036Z" fill="#790008"/>
<path d="M9.61806 14.4486C9.7205 14.4486 9.8228 14.4488 9.92524 14.4485C9.92553 14.9514 9.92524 15.4541 9.92539 15.957C9.82294 15.957 9.7205 15.9571 9.61806 15.9568C9.6182 15.4541 9.61806 14.9514 9.61806 14.4486Z" fill="#790008"/>
<path d="M10.2928 14.4451C10.3924 14.4448 10.492 14.4457 10.5918 14.4447C10.7694 14.7642 10.9425 15.0865 11.1223 15.4048C11.2967 15.0844 11.4736 14.7654 11.648 14.445C11.7484 14.4453 11.8489 14.445 11.9495 14.4451C11.9489 14.9481 11.9505 15.451 11.9486 15.954C11.8463 15.9525 11.7442 15.9543 11.6419 15.9531C11.6426 15.6553 11.6419 15.3578 11.6423 15.0602C11.4661 15.361 11.2982 15.6669 11.1189 15.9658C10.9477 15.663 10.7718 15.3629 10.5998 15.0605C10.6004 15.3582 10.5999 15.6558 10.6001 15.9535C10.4976 15.9535 10.3953 15.9533 10.2929 15.9536C10.2925 15.4507 10.2929 14.948 10.2928 14.4451Z" fill="#790008"/>
<path d="M12.2993 14.4485C12.5068 14.4488 12.714 14.4485 12.9215 14.4486C13.0174 14.4505 13.1159 14.4707 13.1979 14.5228C13.3958 14.6438 13.4413 14.9579 13.276 15.1243C13.2548 15.1469 13.2296 15.1656 13.2046 15.1837C13.2989 15.2333 13.3712 15.3252 13.3887 15.4312C13.4143 15.5742 13.3817 15.7384 13.2708 15.8393C13.1823 15.9239 13.0566 15.9544 12.9373 15.956C12.7246 15.9583 12.5119 15.9564 12.2992 15.957C12.2993 15.4541 12.2989 14.9514 12.2993 14.4485ZM12.6065 14.7242C12.6064 14.8337 12.6065 14.9432 12.6065 15.0527C12.697 15.0524 12.7875 15.0531 12.8781 15.0525C12.9308 15.0515 12.9877 15.0405 13.0263 15.0017C13.0811 14.9435 13.0826 14.8452 13.0338 14.7828C12.9964 14.7377 12.9345 14.7237 12.8784 14.724C12.7877 14.7242 12.6971 14.7242 12.6065 14.7242ZM12.6065 15.3283C12.6065 15.4448 12.6064 15.5613 12.6065 15.6779C12.7064 15.6781 12.8063 15.6778 12.9062 15.6782C12.953 15.6796 13.0022 15.6665 13.0372 15.6341C13.107 15.5669 13.1083 15.4415 13.0371 15.3748C12.9986 15.3384 12.9435 15.3289 12.8925 15.3282C12.7971 15.3281 12.7018 15.3282 12.6065 15.3283Z" fill="#790008"/>
<path d="M14.0264 14.4453C14.0777 14.4459 14.129 14.4435 14.1803 14.446C14.2037 14.4642 14.2169 14.4928 14.2357 14.5157C14.5171 14.9001 14.7963 15.2863 15.0794 15.6697C15.0791 15.2614 15.0794 14.8534 15.0792 14.4452C15.1322 14.4452 15.1852 14.4452 15.2382 14.4452C15.2382 14.9468 15.2382 15.4484 15.2382 15.95C15.1846 15.95 15.1311 15.9498 15.0777 15.9503C14.7804 15.5414 14.4832 15.1323 14.1855 14.7237C14.1855 15.1324 14.1855 15.5412 14.1855 15.9498C14.1321 15.9497 14.0787 15.951 14.0256 15.9487C14.028 15.4477 14.026 14.9465 14.0264 14.4453Z" fill="#790008"/>
<path d="M15.6338 14.4452C15.6868 14.4452 15.7396 14.4452 15.7928 14.4452C15.7928 14.9468 15.7926 15.4483 15.7928 15.9497C15.7398 15.9502 15.6868 15.9499 15.634 15.95C15.6335 15.4484 15.634 14.9468 15.6338 14.4452Z" fill="#790008"/>
<path d="M16.0375 15.9601C16.2208 15.4584 16.4042 14.9566 16.5887 14.4554C16.6622 14.4562 16.7355 14.4556 16.809 14.4557C16.9838 14.9538 17.1583 15.4522 17.3336 15.9499C17.2712 15.9498 17.2087 15.9501 17.1464 15.9498C17.0999 15.8166 17.0527 15.6835 17.0048 15.5506C16.7973 15.5508 16.5898 15.5508 16.3824 15.5508C16.3361 15.6871 16.2916 15.8243 16.2451 15.9607C16.1758 15.9601 16.1066 15.961 16.0375 15.9601ZM16.446 15.3703C16.6112 15.3711 16.7765 15.3705 16.9417 15.3706C16.8589 15.1293 16.7772 14.8875 16.6958 14.6458C16.6129 14.8874 16.5282 15.1284 16.446 15.3703Z" fill="#790008"/>
<path d="M17.6864 14.702C17.8119 14.5729 17.9798 14.4801 18.1608 14.4634C18.3839 14.4409 18.606 14.5237 18.7864 14.6508C18.7513 14.6964 18.7142 14.7405 18.6793 14.7863C18.6193 14.7008 18.5129 14.6688 18.417 14.643C18.2501 14.5971 18.0607 14.6219 17.9199 14.7255C17.7926 14.8216 17.7075 14.9675 17.6737 15.1223C17.6547 15.2822 17.6705 15.4569 17.7654 15.5922C17.7981 15.6434 17.8501 15.6763 17.8946 15.716C17.989 15.793 18.1127 15.8279 18.2334 15.8268C18.3819 15.8282 18.5289 15.7902 18.6647 15.7318C18.6645 15.5772 18.6649 15.4227 18.6645 15.2681C18.5468 15.2682 18.4291 15.2682 18.3114 15.2681C18.3114 15.2212 18.3114 15.1743 18.3113 15.1273C18.4784 15.1264 18.6456 15.1273 18.8129 15.1268C18.8132 15.3659 18.8129 15.6048 18.813 15.8439C18.6535 15.9329 18.4707 15.9702 18.2906 15.9881C18.1 15.9921 17.9009 15.9432 17.7526 15.8187C17.6076 15.6996 17.523 15.5183 17.4981 15.3346C17.479 15.1111 17.5358 14.873 17.6864 14.702Z" fill="#790008"/>
<path d="M19.0679 15.9586C19.252 15.458 19.4353 14.9571 19.618 14.4559C19.6915 14.4555 19.7649 14.4563 19.8386 14.4552C20.0074 14.9307 20.1724 15.4075 20.3407 15.8833C20.3486 15.9046 20.353 15.927 20.3549 15.9498C20.2956 15.9501 20.2367 15.9498 20.1778 15.9501C20.1299 15.8173 20.0833 15.6839 20.0361 15.551C19.8278 15.5507 19.6195 15.5505 19.4114 15.5511C19.3668 15.6877 19.3204 15.8238 19.2755 15.9603C19.2062 15.9599 19.137 15.9626 19.0679 15.9586ZM19.7255 14.6468C19.6436 14.8886 19.5581 15.129 19.4768 15.3711C19.6414 15.3702 19.8062 15.3708 19.9708 15.3708C19.8907 15.1289 19.8076 14.888 19.7255 14.6468Z" fill="#790008"/>
</svg>
