<svg width="34" height="24" viewBox="0 0 34 24" fill="none" xmlns="http://www.w3.org/2000/svg">
<rect width="34" height="24" rx="4" fill="white"/>
<path d="M11.1675 4H23.3056C23.3056 8.04579 23.3056 12.0916 23.3049 16.1374C19.2591 16.1381 15.2133 16.1374 11.1675 16.1381V4ZM12.7842 6.27851C13.7288 7.54337 14.6874 8.79721 15.6364 10.0584C14.6955 11.3247 13.731 12.5734 12.7886 13.839C14.943 13.8478 17.0966 13.839 19.251 13.8434C20.2206 12.5889 21.1549 11.3071 22.1311 10.0569L22.1127 10.0577C21.1615 8.79648 20.2059 7.53823 19.2561 6.27704C17.0988 6.27851 14.9415 6.27484 12.7842 6.27851Z" fill="#790008"/>
<path d="M12.7842 6.27855C14.9415 6.27488 17.0988 6.27855 19.2561 6.27708C20.2059 7.53827 21.1615 8.79652 22.1127 10.0577C19.9539 10.0621 17.7952 10.0599 15.6364 10.0584C14.6874 8.79725 13.7288 7.54341 12.7842 6.27855Z" fill="white"/>
<path d="M15.6364 10.0585C17.7952 10.0599 19.9539 10.0621 22.1127 10.0577L22.1311 10.057C21.1549 11.3072 20.2206 12.5889 19.251 13.8435C17.0966 13.8391 14.943 13.8479 12.7886 13.8391C13.731 12.5735 14.6955 11.3248 15.6364 10.0585Z" fill="#ED3024"/>
<path d="M9.23578 18.2714C9.42116 18.0402 9.70621 17.8918 10.0024 17.875C10.2829 17.8534 10.5683 17.9519 10.7791 18.1375C10.684 18.2334 10.5887 18.3287 10.4928 18.4238C10.3306 18.2923 10.1052 18.2405 9.90327 18.2982C9.67795 18.3573 9.49709 18.5499 9.44679 18.7767C9.38537 19.0229 9.4741 19.3027 9.67663 19.4587C9.90798 19.648 10.2669 19.6384 10.4943 19.4472C10.5896 19.5427 10.687 19.6365 10.7799 19.7347C10.5917 19.8982 10.3469 19.9966 10.0971 19.9996C9.78232 20.0082 9.46694 19.8698 9.2614 19.6311C9.11766 19.4674 9.0261 19.2582 9.00556 19.0412C8.97674 18.7676 9.06095 18.4841 9.23578 18.2714Z" fill="#790008"/>
<path d="M11.1574 17.9316C11.294 17.9316 11.4304 17.9318 11.567 17.9314C11.5674 18.6019 11.567 19.2722 11.5672 19.9427C11.4306 19.9427 11.294 19.9429 11.1574 19.9425C11.1576 19.2722 11.1574 18.6019 11.1574 17.9316Z" fill="#790008"/>
<path d="M12.057 17.9268C12.1898 17.9265 12.3227 17.9276 12.4557 17.9263C12.6925 18.3522 12.9233 18.782 13.1631 19.2064C13.3956 18.7791 13.6315 18.3539 13.8639 17.9266C13.9979 17.927 14.1318 17.9266 14.266 17.9268C14.2652 18.5975 14.2673 19.268 14.2648 19.9387C14.1284 19.9367 13.9922 19.9391 13.8558 19.9374C13.8568 19.5405 13.8558 19.1437 13.8564 18.7469C13.6215 19.148 13.3977 19.5559 13.1586 19.9544C12.9302 19.5506 12.6957 19.1505 12.4664 18.7473C12.4672 19.1443 12.4666 19.541 12.4668 19.938C12.3302 19.938 12.1938 19.9378 12.0572 19.9382C12.0566 19.2677 12.0572 18.5973 12.057 17.9268Z" fill="#790008"/>
<path d="M14.7325 17.9314C15.009 17.9318 15.2854 17.9314 15.562 17.9316C15.6899 17.934 15.8212 17.961 15.9305 18.0305C16.1944 18.1918 16.2551 18.6106 16.0347 18.8325C16.0064 18.8626 15.9729 18.8875 15.9395 18.9116C16.0652 18.9778 16.1616 19.1004 16.185 19.2417C16.2191 19.4324 16.1756 19.6513 16.0277 19.7858C15.9097 19.8986 15.7421 19.9393 15.5831 19.9414C15.2995 19.9444 15.0158 19.942 14.7323 19.9427C14.7325 19.2722 14.7319 18.6019 14.7325 17.9314ZM15.142 18.299C15.1418 18.445 15.142 18.591 15.142 18.737C15.2626 18.7366 15.3834 18.7375 15.5041 18.7368C15.5744 18.7355 15.6503 18.7208 15.7018 18.669C15.7749 18.5914 15.7767 18.4604 15.7117 18.3771C15.6618 18.317 15.5793 18.2984 15.5045 18.2988C15.3836 18.299 15.2628 18.299 15.142 18.299ZM15.142 19.1045C15.142 19.2598 15.1418 19.4152 15.142 19.5706C15.2752 19.5708 15.4084 19.5704 15.5416 19.571C15.604 19.5729 15.6695 19.5554 15.7163 19.5122C15.8093 19.4226 15.811 19.2554 15.7161 19.1665C15.6648 19.1179 15.5914 19.1053 15.5233 19.1044C15.3962 19.1042 15.269 19.1044 15.142 19.1045Z" fill="#790008"/>
<path d="M17.0352 17.927C17.1036 17.9278 17.172 17.9246 17.2404 17.928C17.2717 17.9523 17.2892 17.9903 17.3142 18.0209C17.6895 18.5335 18.0618 19.0484 18.4392 19.5595C18.4388 19.0152 18.4392 18.4711 18.439 17.9269C18.5096 17.9269 18.5803 17.9269 18.6509 17.9269C18.6509 18.5957 18.6509 19.2645 18.6509 19.9333C18.5795 19.9333 18.5081 19.9331 18.4369 19.9337C18.0405 19.3884 17.6443 18.843 17.2474 18.2982C17.2474 18.8432 17.2474 19.3882 17.2474 19.9331C17.1761 19.9329 17.1049 19.9346 17.0341 19.9316C17.0373 19.2635 17.0347 18.5953 17.0352 17.927Z" fill="#790008"/>
<path d="M19.1784 17.9269C19.2491 17.9269 19.3195 17.9269 19.3904 17.9269C19.3904 18.5957 19.3902 19.2643 19.3904 19.9329C19.3197 19.9335 19.2491 19.9331 19.1786 19.9333C19.178 19.2645 19.1786 18.5957 19.1784 17.9269Z" fill="#790008"/>
<path d="M19.7167 19.9469C19.961 19.2779 20.2056 18.6089 20.4516 17.9407C20.5496 17.9416 20.6474 17.9409 20.7453 17.9411C20.9784 18.6051 21.211 19.2696 21.4448 19.9333C21.3616 19.9332 21.2783 19.9335 21.1952 19.9332C21.1332 19.7555 21.0703 19.578 21.0064 19.4009C20.7297 19.4011 20.4531 19.4011 20.1765 19.4011C20.1148 19.5829 20.0554 19.7659 19.9934 19.9477C19.9011 19.9469 19.8088 19.948 19.7167 19.9469ZM20.2613 19.1605C20.4816 19.1615 20.702 19.1607 20.9222 19.1609C20.8118 18.8391 20.7029 18.5168 20.5944 18.1944C20.4838 18.5166 20.371 18.838 20.2613 19.1605Z" fill="#790008"/>
<path d="M21.9153 18.2694C22.0826 18.0972 22.3064 17.9734 22.5477 17.9512C22.8452 17.9212 23.1414 18.0316 23.3819 18.201C23.335 18.2619 23.2857 18.3206 23.2391 18.3817C23.1591 18.2677 23.0172 18.2251 22.8893 18.1906C22.6668 18.1294 22.4143 18.1626 22.2265 18.3007C22.0568 18.4288 21.9433 18.6234 21.8983 18.8297C21.8729 19.0429 21.894 19.2758 22.0206 19.4563C22.0641 19.5245 22.1334 19.5684 22.1928 19.6213C22.3186 19.724 22.4837 19.7705 22.6446 19.769C22.8426 19.7709 23.0385 19.7202 23.2195 19.6424C23.2193 19.4363 23.2199 19.2302 23.2193 19.0241C23.0624 19.0243 22.9055 19.0243 22.7485 19.0241C22.7485 18.9616 22.7485 18.899 22.7484 18.8365C22.9712 18.8351 23.1941 18.8365 23.4172 18.8357C23.4175 19.1545 23.4172 19.4731 23.4174 19.7918C23.2047 19.9105 22.9609 19.9603 22.7209 19.9842C22.4667 19.9895 22.2013 19.9243 22.0034 19.7583C21.8101 19.5995 21.6973 19.3578 21.6641 19.1128C21.6387 18.8148 21.7144 18.4973 21.9153 18.2694Z" fill="#790008"/>
<path d="M23.7572 19.9447C24.0027 19.2772 24.2471 18.6094 24.4906 17.9411C24.5886 17.9406 24.6866 17.9417 24.7847 17.9402C25.0099 18.5741 25.2299 19.21 25.4543 19.8443C25.4648 19.8728 25.4707 19.9025 25.4731 19.933C25.3942 19.9334 25.3156 19.933 25.2371 19.9334C25.1732 19.7563 25.111 19.5785 25.0481 19.4012C24.7704 19.4008 24.4927 19.4006 24.2152 19.4014C24.1557 19.5836 24.0939 19.765 24.034 19.947C23.9417 19.9464 23.8493 19.95 23.7572 19.9447ZM24.634 18.1957C24.5247 18.518 24.4108 18.8387 24.3024 19.1614C24.5219 19.1602 24.7416 19.161 24.9611 19.161C24.8543 18.8385 24.7435 18.5172 24.634 18.1957Z" fill="#790008"/>
</svg>
