<svg width="46" height="32" viewBox="0 0 46 32" fill="none" xmlns="http://www.w3.org/2000/svg">
<rect width="46" height="32" rx="4" fill="white"/>
<path d="M13.3867 4H32.3525C32.3525 10.3215 32.3525 16.6431 32.3514 22.9646C26.0298 22.9658 19.7083 22.9646 13.3867 22.9658V4ZM15.9128 7.56017C17.3888 9.53652 18.8865 11.4956 20.3694 13.4662C18.8992 15.4449 17.3922 17.396 15.9197 19.3735C19.2859 19.3872 22.651 19.3735 26.0172 19.3804C27.5322 17.4201 28.992 15.4173 30.5173 13.464L30.4887 13.4651C29.0024 11.4945 27.5092 9.52848 26.0252 7.55788C22.6544 7.56017 19.2836 7.55443 15.9128 7.56017Z" fill="#790008"/>
<path d="M15.9128 7.56014C19.2836 7.5544 22.6544 7.56014 26.0252 7.55785C27.5092 9.52845 29.0024 11.4945 30.4886 13.4651C27.1155 13.472 23.7425 13.4685 20.3694 13.4662C18.8865 11.4956 17.3888 9.53648 15.9128 7.56014Z" fill="white"/>
<path d="M20.3693 13.4663C23.7424 13.4686 27.1155 13.472 30.4886 13.4651L30.5173 13.464C28.992 15.4174 27.5322 17.4201 26.0172 19.3804C22.651 19.3735 19.2859 19.3873 15.9197 19.3735C17.3922 17.396 18.8991 15.4449 20.3693 13.4663Z" fill="#ED3024"/>
<path d="M10.3684 26.2991C10.6581 25.9379 11.1034 25.706 11.5662 25.6798C12.0045 25.6459 12.4505 25.7999 12.7799 26.0898C12.6312 26.2397 12.4823 26.3886 12.3324 26.5373C12.079 26.3318 11.7269 26.2509 11.4114 26.3409C11.0593 26.4334 10.7767 26.7342 10.6981 27.0886C10.6021 27.4734 10.7408 27.9105 11.0572 28.1543C11.4187 28.4501 11.9795 28.4351 12.3348 28.1363C12.4838 28.2855 12.6359 28.4321 12.7811 28.5855C12.487 28.841 12.1046 28.9947 11.7143 28.9994C11.2224 29.0129 10.7296 28.7966 10.4084 28.4236C10.1838 28.1678 10.0408 27.8411 10.0087 27.5019C9.96365 27.0745 10.0952 26.6315 10.3684 26.2991Z" fill="#790008"/>
<path d="M13.371 25.7681C13.5844 25.7681 13.7975 25.7684 14.0109 25.7678C14.0115 26.8155 14.0109 27.8629 14.0112 28.9105C13.7978 28.9105 13.5844 28.9108 13.371 28.9102C13.3713 27.8629 13.371 26.8155 13.371 25.7681Z" fill="#790008"/>
<path d="M14.7766 25.7608C14.9841 25.7602 15.1917 25.7619 15.3995 25.7599C15.7695 26.4255 16.1301 27.0969 16.5048 27.7601C16.8681 27.0925 17.2366 26.4281 17.5999 25.7605C17.8092 25.7611 18.0185 25.7605 18.2281 25.7608C18.2269 26.8087 18.2301 27.8564 18.2263 28.9043C18.0132 28.9011 17.8004 28.9049 17.5872 28.9023C17.5887 28.282 17.5872 27.6621 17.5881 27.0422C17.221 27.6689 16.8713 28.3062 16.4978 28.9288C16.141 28.2979 15.7745 27.6727 15.4163 27.0428C15.4174 27.663 15.4166 28.2829 15.4169 28.9032C15.2034 28.9032 14.9903 28.9029 14.7769 28.9035C14.776 27.8558 14.7769 26.8084 14.7766 25.7608Z" fill="#790008"/>
<path d="M18.957 25.7678C19.3891 25.7684 19.8209 25.7678 20.2531 25.7681C20.453 25.7719 20.6581 25.814 20.8289 25.9227C21.2413 26.1746 21.3361 26.829 20.9916 27.1758C20.9475 27.2229 20.8951 27.2617 20.843 27.2994C21.0393 27.4028 21.1901 27.5944 21.2266 27.8152C21.2798 28.1131 21.2118 28.4551 20.9808 28.6653C20.7965 28.8416 20.5345 28.9052 20.286 28.9085C19.843 28.9132 19.3997 28.9093 18.9567 28.9105C18.957 27.8629 18.9561 26.8155 18.957 25.7678ZM19.5969 26.3421C19.5966 26.5703 19.5969 26.7984 19.5969 27.0265C19.7853 27.026 19.974 27.0274 20.1627 27.0263C20.2725 27.0242 20.3911 27.0012 20.4715 26.9203C20.5857 26.799 20.5887 26.5944 20.4871 26.4643C20.4091 26.3704 20.2802 26.3413 20.1633 26.3418C19.9743 26.3421 19.7856 26.3421 19.5969 26.3421ZM19.5969 27.6009C19.5969 27.8434 19.5966 28.0863 19.5969 28.3291C19.805 28.3294 20.0132 28.3288 20.2213 28.3297C20.3187 28.3327 20.4212 28.3053 20.4942 28.2379C20.6396 28.0978 20.6422 27.8367 20.4939 27.6977C20.4138 27.6218 20.299 27.602 20.1927 27.6006C19.994 27.6003 19.7953 27.6006 19.5969 27.6009Z" fill="#790008"/>
<path d="M22.555 25.761C22.6619 25.7622 22.7687 25.7572 22.8756 25.7625C22.9245 25.8005 22.9518 25.8599 22.991 25.9076C23.5774 26.7086 24.159 27.5131 24.7487 28.3117C24.7481 27.4613 24.7487 26.6112 24.7484 25.7607C24.8588 25.7607 24.9692 25.7607 25.0795 25.7607C25.0795 26.8057 25.0795 27.8508 25.0795 28.8958C24.968 28.8958 24.8564 28.8955 24.7451 28.8964C24.1258 28.0445 23.5067 27.1923 22.8865 26.3409C22.8865 27.1925 22.8865 28.0442 22.8865 28.8955C22.7752 28.8952 22.6639 28.8978 22.5533 28.8931C22.5583 27.8493 22.5541 26.8052 22.555 25.761Z" fill="#790008"/>
<path d="M25.9038 25.7607C26.0142 25.7607 26.1243 25.7607 26.2349 25.7607C26.2349 26.8058 26.2347 27.8505 26.2349 28.8952C26.1246 28.8961 26.0142 28.8955 25.9041 28.8958C25.9032 27.8508 25.9041 26.8058 25.9038 25.7607Z" fill="#790008"/>
<path d="M26.7448 28.9171C27.1266 27.8718 27.5087 26.8265 27.8931 25.7823C28.0462 25.7838 28.199 25.7826 28.3521 25.7829C28.7162 26.8206 29.0797 27.8588 29.4451 28.8959C29.3149 28.8956 29.1848 28.8962 29.055 28.8956C28.9582 28.618 28.8598 28.3407 28.7601 28.064C28.3276 28.0643 27.8955 28.0643 27.4634 28.0643C27.3668 28.3484 27.2741 28.6342 27.1772 28.9183C27.033 28.9171 26.8887 28.9189 26.7448 28.9171ZM27.5958 27.6884C27.9399 27.6899 28.2844 27.6887 28.6285 27.689C28.456 27.1862 28.2858 26.6825 28.1163 26.1789C27.9435 26.6822 27.7671 27.1844 27.5958 27.6884Z" fill="#790008"/>
<path d="M30.1801 26.2959C30.4415 26.0268 30.7912 25.8334 31.1683 25.7987C31.6331 25.7519 32.0959 25.9244 32.4718 26.189C32.3985 26.2841 32.3213 26.3759 32.2486 26.4713C32.1235 26.2932 31.9019 26.2267 31.702 26.1728C31.3543 26.0771 30.9599 26.129 30.6664 26.3447C30.4012 26.5449 30.224 26.849 30.1536 27.1713C30.1139 27.5045 30.1468 27.8684 30.3447 28.1504C30.4127 28.257 30.521 28.3255 30.6137 28.4083C30.8103 28.5687 31.0682 28.6414 31.3196 28.639C31.629 28.642 31.9351 28.5628 32.218 28.4412C32.2177 28.1192 32.2186 27.7971 32.2177 27.4751C31.9725 27.4754 31.7273 27.4754 31.4821 27.4751C31.4821 27.3774 31.4821 27.2796 31.4818 27.1819C31.83 27.1799 32.1783 27.1819 32.5268 27.1807C32.5274 27.6788 32.5268 28.1766 32.5271 28.6747C32.1948 28.8601 31.8139 28.9378 31.4388 28.9752C31.0417 28.9835 30.627 28.8816 30.3179 28.6223C30.0158 28.3741 29.8395 27.9964 29.7877 27.6138C29.748 27.1481 29.8663 26.652 30.1801 26.2959Z" fill="#790008"/>
<path d="M33.0582 28.9137C33.4417 27.8708 33.8235 26.8272 34.2041 25.7831C34.3572 25.7822 34.5103 25.784 34.6636 25.7816C35.0154 26.7722 35.3592 27.7657 35.7098 28.7568C35.7263 28.8013 35.7354 28.8478 35.7393 28.8955C35.6159 28.8961 35.4932 28.8955 35.3704 28.8961C35.2706 28.6193 35.1735 28.3415 35.0752 28.0645C34.6413 28.0639 34.2074 28.0636 33.7738 28.0648C33.6807 28.3494 33.5842 28.6329 33.4906 28.9172C33.3463 28.9164 33.2021 28.922 33.0582 28.9137ZM34.4281 26.1808C34.2574 26.6844 34.0793 27.1855 33.9101 27.6897C34.253 27.688 34.5962 27.6891 34.9392 27.6891C34.7723 27.1852 34.5992 26.6833 34.4281 26.1808Z" fill="#790008"/>
</svg>
