<svg width="28" height="20" viewBox="0 0 28 20" fill="none" xmlns="http://www.w3.org/2000/svg">
<path d="M3.60627 9.00663C3.4129 9.00663 3.39383 8.94309 3.39383 8.47997V8.40094C3.39383 7.93623 3.4129 7.87333 3.60627 7.87333H8.02814C8.22218 7.87333 8.24125 7.93624 8.24125 8.40031V8.47934C8.24125 8.94309 8.22185 9.00632 8.02814 9.00632H3.60627V9.00663ZM3.60627 6.96731C3.4129 6.96731 3.39383 6.90409 3.39383 6.44033V6.3613C3.39383 5.89597 3.4129 5.83337 3.60627 5.83337H8.02814C8.22218 5.83337 8.24125 5.8966 8.24125 6.3613V6.44033C8.24125 6.90409 8.22185 6.96731 8.02814 6.96731H3.60627ZM4.2687 13.0236C4.2687 12.2561 4.66448 11.8341 5.26 11.8341C5.48482 11.8341 5.66481 11.896 5.88997 12.0019C5.9716 12.0411 6.03918 12.0253 6.14624 11.7854L6.22419 11.6222C6.30114 11.4256 6.30683 11.3444 6.21349 11.3007C5.93748 11.1481 5.51025 11.0516 5.14123 11.0516C4.08971 11.0516 3.29413 11.8388 3.29413 13.0236C3.29413 14.2081 4.08971 14.9953 5.14089 14.9953C5.51025 14.9953 5.94718 14.8992 6.22419 14.7456C6.31653 14.7029 6.31051 14.6207 6.23423 14.4241L6.15728 14.2518C6.05022 14.0115 5.98231 13.9979 5.90001 14.0352C5.67485 14.1418 5.48515 14.2037 5.26 14.2037C4.66448 14.2037 4.2697 13.7909 4.2697 13.0236H4.26903H4.2687ZM16.7979 14.8138C16.7979 14.9182 16.7564 14.9466 16.4443 14.9466H16.4132C16.0843 14.9466 16.0385 14.9324 16.0127 14.8562C15.9955 14.8045 15.9817 14.7518 15.9716 14.6985C15.7976 14.8951 15.5878 15 15.2683 15C14.4935 15 14.0278 14.4626 14.0278 13.5983C14.0278 12.6642 14.546 12.111 15.3145 12.111C15.531 12.111 15.7303 12.1742 15.8842 12.2893V11.0754C15.8842 10.9941 15.8943 10.9603 16.3259 10.9603H16.357C16.7564 10.9603 16.7976 10.9941 16.7976 11.0754V14.8138H16.7979ZM15.8846 12.9708C15.8318 12.9163 15.7676 12.8729 15.6961 12.8431C15.6245 12.8134 15.5472 12.7981 15.4691 12.7982C15.1251 12.7982 14.9619 13.0805 14.9619 13.599C14.9619 13.8961 15.0284 14.0849 15.1251 14.1838C15.2121 14.2859 15.3459 14.3188 15.4747 14.3188C15.6337 14.3188 15.7564 14.2818 15.8133 14.2132C15.8638 14.1607 15.8842 14.0795 15.8842 13.8923V12.9705L15.8849 12.9708H15.8846ZM21.4536 14.8328C21.4536 14.9134 21.4125 14.9466 21.012 14.9466H20.9812C20.5503 14.9466 20.5413 14.9134 20.5413 14.8328V11.0754C20.5413 10.9941 20.5503 10.9603 20.9809 10.9603H21.0117C21.4118 10.9603 21.4533 10.9941 21.4533 11.0754V14.8328H21.4536ZM18.2405 13.8339C18.2914 14.1743 18.5169 14.3381 18.8712 14.3381C19.1439 14.3381 19.3991 14.2812 19.6975 14.1607C19.7598 14.137 19.8156 14.1607 19.8816 14.3514L19.9284 14.4582C19.9943 14.6548 19.9886 14.6985 19.9177 14.7361C19.5631 14.9229 19.194 14.9994 18.7835 14.9994C17.8762 14.9994 17.3071 14.4778 17.3071 13.5848C17.3071 12.7164 17.83 12.111 18.7277 12.111C19.6156 12.111 20.0713 12.7066 20.0713 13.5316C20.0713 13.8054 20.0462 13.8339 19.9434 13.8339H18.2405ZM19.1579 13.3018C19.1439 13.0148 19.0207 12.7644 18.718 12.7644C18.4553 12.7644 18.2653 12.9509 18.2295 13.3018H19.1579ZM22.8749 13.8339C22.925 14.1743 23.1512 14.3381 23.5058 14.3381C23.7762 14.3381 24.0338 14.2812 24.3312 14.1607C24.3921 14.137 24.4496 14.1607 24.5159 14.3514L24.5624 14.4582C24.6283 14.6548 24.6229 14.6985 24.5523 14.7361C24.1977 14.9229 23.828 14.9994 23.4172 14.9994C22.5095 14.9994 21.9411 14.4778 21.9411 13.5848C21.9411 12.7164 22.463 12.111 23.361 12.111C24.2496 12.111 24.7059 12.7066 24.7059 13.5316C24.7059 13.8054 24.6801 13.8339 24.5774 13.8339H22.8745H22.8749ZM23.7932 13.3018C23.7765 13.0148 23.6544 12.7644 23.3516 12.7644C23.09 12.7644 22.8993 12.9509 22.8638 13.3018H23.7932ZM12.5678 12.9898C12.5215 12.9322 12.4619 12.8854 12.3934 12.853C12.325 12.8207 12.2495 12.8037 12.173 12.8033C11.8291 12.8033 11.6655 13.0862 11.6655 13.5895C11.6655 14.0163 11.7872 14.3333 12.1619 14.3333C12.3011 14.3333 12.4028 14.2998 12.4754 14.2319C12.5417 14.1655 12.5678 14.0738 12.5678 13.8734V12.9898ZM13.4911 14.8138C13.4911 14.9182 13.4507 14.9466 13.1379 14.9466H13.0957C12.7678 14.9466 12.7217 14.9324 12.6962 14.8562C12.6786 14.8046 12.6649 14.7519 12.6551 14.6985C12.4811 14.8951 12.2703 15 11.9518 15C11.2081 15 10.7307 14.4715 10.7307 13.6091C10.7307 12.6497 11.3209 12.111 12.0188 12.111C12.3011 12.111 12.5467 12.2223 12.6805 12.3803L12.6962 12.2602C12.7006 12.2033 12.717 12.1654 13.0542 12.1654H13.0907C13.44 12.1654 13.4905 12.1884 13.4905 12.276V14.8138H13.4911ZM9.20913 11.3545C9.55239 11.3545 9.57313 11.3586 9.57313 11.4642V12.1647H10.1636C10.2453 12.1647 10.2707 12.1789 10.2707 12.4426V12.4815C10.2707 12.7445 10.2453 12.7597 10.1636 12.7597H9.57313V14.0169C9.57313 14.2274 9.61361 14.3381 9.81869 14.3381C9.92575 14.3381 10.0194 14.3188 10.1118 14.2907C10.2088 14.2556 10.2456 14.2998 10.3118 14.5198L10.3272 14.5726C10.3988 14.8138 10.3777 14.8328 10.2864 14.8752C10.1017 14.9567 9.85483 15 9.62432 15C8.89598 15 8.6909 14.6548 8.6909 14.0542V12.7597H8.34697C8.25999 12.7597 8.23824 12.7439 8.23824 12.4815V12.4426C8.23824 12.1789 8.25965 12.1654 8.34697 12.1654H8.73171C8.77353 11.94 8.84446 11.6226 8.89096 11.4642C8.91672 11.3728 8.93211 11.3545 9.20913 11.3545ZM7.30081 12.1654C7.70127 12.1654 7.73673 12.1979 7.73673 12.2801V14.8328C7.73673 14.9182 7.70127 14.9466 7.30081 14.9466H7.27471C6.8341 14.9466 6.82406 14.9182 6.82406 14.8328V12.2801C6.82406 12.1979 6.8341 12.1654 7.27471 12.1654H7.30081ZM7.27471 10.9176C7.56377 10.9176 7.7732 11.1285 7.7732 11.3681C7.77191 11.4281 7.758 11.4873 7.73227 11.5423C7.70653 11.5972 7.6695 11.6467 7.62332 11.688C7.52964 11.7718 7.40418 11.8173 7.27471 11.8145C6.989 11.8145 6.77722 11.6036 6.77722 11.3681C6.77722 11.1278 6.989 10.9176 7.27471 10.9176Z" fill="#EE293D"/>
</svg>
