<svg width="46" height="32" viewBox="0 0 46 32" fill="none" xmlns="http://www.w3.org/2000/svg">
<path d="M5.83872 14.4106C5.52564 14.4106 5.49476 14.3089 5.49476 13.5679V13.4415C5.49476 12.698 5.52564 12.5973 5.83872 12.5973H12.9979C13.3121 12.5973 13.343 12.698 13.343 13.4405V13.5669C13.343 14.3089 13.3116 14.4101 12.9979 14.4101H5.83872V14.4106ZM5.83872 11.1477C5.52564 11.1477 5.49476 11.0465 5.49476 10.3045V10.1781C5.49476 9.43352 5.52564 9.33337 5.83872 9.33337H12.9979C13.3121 9.33337 13.343 9.43453 13.343 10.1781V10.3045C13.343 11.0465 13.3116 11.1477 12.9979 11.1477H5.83872ZM6.91122 20.8378C6.91122 19.6097 7.55201 18.9345 8.51618 18.9345C8.88018 18.9345 9.17159 19.0336 9.53614 19.203C9.6683 19.2658 9.77772 19.2405 9.95105 18.8566L10.0773 18.5956C10.2018 18.281 10.2111 18.151 10.0599 18.0812C9.61305 17.8369 8.92134 17.6826 8.32389 17.6826C6.62143 17.6826 5.33334 18.942 5.33334 20.8378C5.33334 22.733 6.62143 23.9925 8.32334 23.9925C8.92134 23.9925 9.62876 23.8387 10.0773 23.5929C10.2268 23.5246 10.217 23.3931 10.0935 23.0785L9.96893 22.8028C9.79559 22.4184 9.68564 22.3967 9.55238 22.4563C9.18784 22.6268 8.88072 22.7259 8.51618 22.7259C7.55201 22.7259 6.91284 22.0654 6.91284 20.8378H6.91176H6.91122ZM27.1966 23.7021C27.1966 23.869 27.1295 23.9146 26.6241 23.9146H26.5737C26.0413 23.9146 25.9671 23.8918 25.9253 23.7699C25.8974 23.6872 25.8752 23.6029 25.8587 23.5175C25.5771 23.8321 25.2374 24 24.7201 24C23.4656 24 22.7116 23.1402 22.7116 21.7573C22.7116 20.2627 23.5507 19.3775 24.7949 19.3775C25.1453 19.3775 25.4682 19.4787 25.7173 19.6628V17.7205C25.7173 17.5905 25.7336 17.5364 26.4323 17.5364H26.4827C27.1295 17.5364 27.1961 17.5905 27.1961 17.7205V23.7021H27.1966ZM25.7179 20.7533C25.6325 20.6661 25.5285 20.5965 25.4127 20.549C25.2969 20.5014 25.1717 20.477 25.0451 20.4771C24.4883 20.4771 24.224 20.9288 24.224 21.7583C24.224 22.2338 24.3318 22.5358 24.4883 22.6941C24.6291 22.8574 24.8458 22.91 25.0543 22.91C25.3116 22.91 25.5104 22.8509 25.6025 22.7411C25.6843 22.6571 25.7173 22.5272 25.7173 22.2277V20.7528L25.7184 20.7533H25.7179ZM34.7345 23.7325C34.7345 23.8615 34.6678 23.9146 34.0195 23.9146H33.9696C33.272 23.9146 33.2573 23.8615 33.2573 23.7325V17.7205C33.2573 17.5905 33.272 17.5364 33.9691 17.5364H34.0189C34.6668 17.5364 34.7339 17.5905 34.7339 17.7205V23.7325H34.7345ZM29.5323 22.1341C29.6146 22.6789 29.9797 22.9409 30.5533 22.9409C30.9948 22.9409 31.4081 22.8499 31.8913 22.6571C31.992 22.6192 32.0825 22.6571 32.1892 22.9621L32.265 23.1331C32.3717 23.4477 32.3625 23.5175 32.2477 23.5777C31.6735 23.8766 31.0761 23.999 30.4114 23.999C28.9424 23.999 28.0211 23.1645 28.0211 21.7356C28.0211 20.3461 28.8677 19.3775 30.321 19.3775C31.7586 19.3775 32.4963 20.3305 32.4963 21.6506C32.4963 22.0886 32.4557 22.1341 32.2894 22.1341H29.5323ZM31.0176 21.2829C30.9948 20.8236 30.7955 20.423 30.3053 20.423C29.8801 20.423 29.5724 20.7214 29.5144 21.2829H31.0176ZM37.0355 22.1341C37.1167 22.6789 37.4829 22.9409 38.0571 22.9409C38.4947 22.9409 38.9118 22.8499 39.3933 22.6571C39.4919 22.6192 39.5851 22.6571 39.6923 22.9621L39.7676 23.1331C39.8743 23.4477 39.8657 23.5175 39.7514 23.5777C39.1772 23.8766 38.5787 23.999 37.9135 23.999C36.444 23.999 35.5237 23.1645 35.5237 21.7356C35.5237 20.3461 36.3687 19.3775 37.8225 19.3775C39.2612 19.3775 40 20.3305 40 21.6506C40 22.0886 39.9583 22.1341 39.792 22.1341H37.0349H37.0355ZM38.5223 21.2829C38.4953 20.8236 38.2976 20.423 37.8073 20.423C37.3838 20.423 37.075 20.7214 37.0176 21.2829H38.5223ZM20.3478 20.7837C20.273 20.6914 20.1764 20.6165 20.0655 20.5648C19.9547 20.513 19.8326 20.4858 19.7086 20.4852C19.1518 20.4852 18.8869 20.9379 18.8869 21.7432C18.8869 22.426 19.0841 22.9333 19.6908 22.9333C19.9161 22.9333 20.0808 22.8797 20.1983 22.7709C20.3056 22.6647 20.3478 22.518 20.3478 22.1974V20.7837ZM21.8428 23.7021C21.8428 23.869 21.7773 23.9146 21.2708 23.9146H21.2026C20.6717 23.9146 20.597 23.8918 20.5558 23.7699C20.5273 23.6873 20.505 23.603 20.4892 23.5175C20.2075 23.8321 19.8663 24 19.3506 24C18.1465 24 17.3735 23.1543 17.3735 21.7745C17.3735 20.2394 18.329 19.3775 19.4589 19.3775C19.9161 19.3775 20.3137 19.5556 20.5303 19.8085L20.5558 19.6163C20.5628 19.5252 20.5894 19.4645 21.1354 19.4645H21.1944C21.7599 19.4645 21.8417 19.5015 21.8417 19.6416V23.7021H21.8428ZM14.91 18.1672C15.4658 18.1672 15.4993 18.1737 15.4993 18.3427V19.4635H16.4554C16.5876 19.4635 16.6287 19.4863 16.6287 19.9081V19.9703C16.6287 20.3912 16.5876 20.4154 16.4554 20.4154H15.4993V22.427C15.4993 22.7639 15.5649 22.9409 15.8969 22.9409C16.0703 22.9409 16.2219 22.91 16.3714 22.865C16.5285 22.8089 16.5881 22.8797 16.6953 23.2317L16.7203 23.3162C16.8362 23.7021 16.8021 23.7325 16.6542 23.8002C16.3552 23.9307 15.9554 24 15.5822 24C14.403 24 14.071 23.4477 14.071 22.4867V20.4154H13.5141C13.3733 20.4154 13.3381 20.3902 13.3381 19.9703V19.9081C13.3381 19.4863 13.3728 19.4645 13.5141 19.4645H14.1371C14.2048 19.1039 14.3196 18.5961 14.3949 18.3427C14.4366 18.1965 14.4615 18.1672 14.91 18.1672ZM11.8203 19.4645C12.4687 19.4645 12.5261 19.5166 12.5261 19.6481V23.7325C12.5261 23.869 12.4687 23.9146 11.8203 23.9146H11.7781C11.0647 23.9146 11.0485 23.869 11.0485 23.7325V19.6481C11.0485 19.5166 11.0647 19.4645 11.7781 19.4645H11.8203ZM11.7781 17.4681C12.2461 17.4681 12.5852 17.8055 12.5852 18.1889C12.5831 18.285 12.5606 18.3797 12.5189 18.4676C12.4772 18.5555 12.4173 18.6347 12.3425 18.7008C12.1908 18.8348 11.9877 18.9077 11.7781 18.9031C11.3155 18.9031 10.9726 18.5657 10.9726 18.1889C10.9726 17.8045 11.3155 17.4681 11.7781 17.4681Z" fill="#EE293D"/>
</svg>
