<svg width="58" height="40" viewBox="0 0 58 40" fill="none" xmlns="http://www.w3.org/2000/svg">
<path fill-rule="evenodd" clip-rule="evenodd" d="M25.5267 29.7694H28.0925V17.3949H25.5267V29.7694Z" fill="#003B70"/>
<path fill-rule="evenodd" clip-rule="evenodd" d="M30.4451 17.4151V19.7354H32.6052V26.7163C32.6052 27.6797 32.8732 28.4531 33.3892 29.0364C33.905 29.6403 34.5931 29.9389 35.4597 29.9591C36.3198 29.9795 37.0833 29.7894 37.7298 29.396L37.7712 29.3756V29.335L38.3833 26.9809L38.2321 27.0759C37.5441 27.4897 36.9113 27.6933 36.3336 27.6933C35.5355 27.6933 35.1296 27.2252 35.1296 26.3025V19.7354H37.7505V17.4151H35.1296V13.5482L32.6052 14.8847V17.4151H30.4451Z" fill="#003B70"/>
<path fill-rule="evenodd" clip-rule="evenodd" d="M40.275 29.7694H42.8617V17.3949H40.275V29.7694Z" fill="#003B70"/>
<path fill-rule="evenodd" clip-rule="evenodd" d="M24.0545 19.3419L23.9995 19.3012C22.8164 17.8833 21.3374 17.1913 19.5626 17.1913C17.7052 17.1913 16.1781 17.7544 14.9536 18.867C13.6535 20.0407 13 21.6214 13 23.6024C13 25.5834 13.6535 27.1506 14.9536 28.3377C16.1574 29.4503 17.7052 30 19.5626 30C21.3374 30 22.83 29.3012 23.9995 27.9036L24.0545 27.8628L22.6031 26.1329L22.5479 26.1873C21.6056 27.1098 20.5944 27.5847 19.5076 27.5847C18.3725 27.5847 17.4369 27.2047 16.6941 26.4518C15.9442 25.7122 15.5864 24.7559 15.5864 23.6024C15.5864 22.449 15.9442 21.4857 16.6941 20.7328C17.4369 20 18.3725 19.62 19.5076 19.62C20.5944 19.62 21.6056 20.0951 22.5479 21.0178L22.6031 21.072L24.0545 19.3419Z" fill="#003B70"/>
<path fill-rule="evenodd" clip-rule="evenodd" d="M26.7923 15.3596C27.8034 14.342 28.9318 13.5686 30.218 13.0191C31.4562 12.4898 32.7771 12.232 34.1391 12.232C35.4942 12.232 36.8151 12.4898 38.0806 13.0191C39.3395 13.5686 40.4676 14.342 41.4789 15.3596L41.5201 15.3936H44.4642L44.3543 15.2239C43.1849 13.6024 41.6716 12.3203 39.8554 11.384C38.0394 10.4546 36.1477 10 34.1391 10C32.1511 10 30.2318 10.4546 28.4158 11.384C26.5996 12.3203 25.0863 13.6024 23.9237 15.2239L23.8068 15.3936H26.7717L26.7923 15.3596Z" fill="#EC1C2D"/>
</svg>
