<svg width="46" height="32" viewBox="0 0 46 32" fill="none" xmlns="http://www.w3.org/2000/svg">
<path fill-rule="evenodd" clip-rule="evenodd" d="M20.2741 24.7924H22.5833V13.6554H20.2741V24.7924Z" fill="#003B70"/>
<path fill-rule="evenodd" clip-rule="evenodd" d="M24.7005 13.6736V15.7619H26.6446V22.0447C26.6446 22.9117 26.8859 23.6078 27.3503 24.1328C27.8145 24.6763 28.4337 24.945 29.2137 24.9632C29.9878 24.9816 30.675 24.8105 31.2568 24.4564L31.294 24.4381V24.4015L31.845 22.2828L31.7089 22.3683C31.0897 22.7408 30.5201 22.9239 30.0002 22.9239C29.282 22.9239 28.9166 22.5027 28.9166 21.6722V15.7619H31.2754V13.6736H28.9166V10.1934L26.6446 11.3962V13.6736H24.7005Z" fill="#003B70"/>
<path fill-rule="evenodd" clip-rule="evenodd" d="M33.5475 24.7924H35.8755V13.6554H33.5475V24.7924Z" fill="#003B70"/>
<path fill-rule="evenodd" clip-rule="evenodd" d="M18.9491 15.4077L18.8996 15.3711C17.8347 14.095 16.5036 13.4722 14.9063 13.4722C13.2347 13.4722 11.8603 13.979 10.7582 14.9803C9.58819 16.0366 9 17.4592 9 19.2422C9 21.025 9.58819 22.4356 10.7582 23.504C11.8417 24.5053 13.2347 25 14.9063 25C16.5036 25 17.847 24.3711 18.8996 23.1133L18.9491 23.0766L17.6428 21.5196L17.5931 21.5686C16.7451 22.3988 15.8349 22.8262 14.8568 22.8262C13.8353 22.8262 12.9932 22.4842 12.3247 21.8067C11.6498 21.141 11.3278 20.2803 11.3278 19.2422C11.3278 18.2041 11.6498 17.3371 12.3247 16.6596C12.9932 16 13.8353 15.658 14.8568 15.658C15.8349 15.658 16.7451 16.0856 17.5931 16.916L17.6428 16.9648L18.9491 15.4077Z" fill="#003B70"/>
<path fill-rule="evenodd" clip-rule="evenodd" d="M21.4131 11.8236C22.3231 10.9078 23.3386 10.2117 24.4962 9.71716C25.6106 9.24081 26.7994 9.00884 28.0252 9.00884C29.2448 9.00884 30.4336 9.24081 31.5726 9.71716C32.7055 10.2117 33.7209 10.9078 34.631 11.8236L34.6681 11.8542H37.3178L37.2188 11.7015C36.1664 10.2422 34.8045 9.08825 33.1699 8.24558C31.5355 7.40917 29.833 7 28.0252 7C26.236 7 24.5086 7.40917 22.8742 8.24558C21.2397 9.08825 19.8777 10.2422 18.8313 11.7015L18.7261 11.8542H21.3945L21.4131 11.8236Z" fill="#EC1C2D"/>
</svg>
