<svg width="34" height="24" viewBox="0 0 34 24" fill="none" xmlns="http://www.w3.org/2000/svg">
<path fill-rule="evenodd" clip-rule="evenodd" d="M14.7687 18.8386H16.5648V10.1765H14.7687V18.8386Z" fill="#003B70"/>
<path fill-rule="evenodd" clip-rule="evenodd" d="M18.2115 10.1906V11.8148H19.7236V16.7014C19.7236 17.3757 19.9113 17.9171 20.2725 18.3255C20.6335 18.7482 21.1151 18.9572 21.7218 18.9714C22.3238 18.9857 22.8583 18.8526 23.3109 18.5772L23.3398 18.5629V18.5345L23.7683 16.8866L23.6625 16.9531C23.1809 17.2428 22.7379 17.3853 22.3335 17.3853C21.7749 17.3853 21.4907 17.0576 21.4907 16.4117V11.8148H23.3253V10.1906H21.4907V7.4837L19.7236 8.41928V10.1906H18.2115Z" fill="#003B70"/>
<path fill-rule="evenodd" clip-rule="evenodd" d="M25.0925 18.8386H26.9032V10.1765H25.0925V18.8386Z" fill="#003B70"/>
<path fill-rule="evenodd" clip-rule="evenodd" d="M13.7382 11.5393L13.6997 11.5108C12.8715 10.5183 11.8362 10.0339 10.5938 10.0339C9.29363 10.0339 8.22467 10.4281 7.36751 11.2069C6.45748 12.0284 6 13.1349 6 14.5217C6 15.9083 6.45748 17.0054 7.36751 17.8364C8.21019 18.6152 9.29363 19 10.5938 19C11.8362 19 12.881 18.5108 13.6997 17.5325L13.7382 17.504L12.7222 16.293L12.6836 16.3311C12.0239 16.9768 11.3161 17.3093 10.5553 17.3093C9.76077 17.3093 9.10586 17.0433 8.58586 16.5163C8.06092 15.9985 7.81051 15.3291 7.81051 14.5217C7.81051 13.7143 8.06092 13.04 8.58586 12.513C9.10586 12 9.76077 11.734 10.5553 11.734C11.3161 11.734 12.0239 12.0665 12.6836 12.7124L12.7222 12.7504L13.7382 11.5393Z" fill="#003B70"/>
<path fill-rule="evenodd" clip-rule="evenodd" d="M15.6546 8.75171C16.3624 8.0394 17.1522 7.498 18.0526 7.11335C18.9193 6.74285 19.8439 6.56243 20.7974 6.56243C21.7459 6.56243 22.6705 6.74285 23.5564 7.11335C24.4376 7.498 25.2273 8.0394 25.9352 8.75171L25.9641 8.77551H28.025L27.948 8.65673C27.1294 7.52169 26.0701 6.6242 24.7988 5.96878C23.5276 5.31824 22.2034 5 20.7974 5C19.4058 5 18.0623 5.31824 16.7911 5.96878C15.5197 6.6242 14.4604 7.52169 13.6466 8.65673L13.5648 8.77551H15.6402L15.6546 8.75171Z" fill="#EC1C2D"/>
</svg>
