<svg width="28" height="20" viewBox="0 0 28 20" fill="none" xmlns="http://www.w3.org/2000/svg">
<path fill-rule="evenodd" clip-rule="evenodd" d="M12.2634 14.8847H13.5463V8.69745H12.2634V14.8847Z" fill="#003B70"/>
<path fill-rule="evenodd" clip-rule="evenodd" d="M14.7225 8.70759V9.86773H15.8026V13.3582C15.8026 13.8399 15.9366 14.2266 16.1946 14.5182C16.4525 14.8202 16.7965 14.9695 17.2298 14.9796C17.6599 14.9898 18.0417 14.8948 18.3649 14.698L18.3856 14.6878V14.6675L18.6917 13.4905L18.6161 13.538C18.2721 13.7449 17.9556 13.8467 17.6668 13.8467C17.2678 13.8467 17.0648 13.6126 17.0648 13.1513V9.86773H18.3752V8.70759H17.0648V6.77411L15.8026 7.44238V8.70759H14.7225Z" fill="#003B70"/>
<path fill-rule="evenodd" clip-rule="evenodd" d="M19.6375 14.8847H20.9308V8.69745H19.6375V14.8847Z" fill="#003B70"/>
<path fill-rule="evenodd" clip-rule="evenodd" d="M11.5273 9.67094L11.4998 9.65062C10.9082 8.94164 10.1687 8.59564 9.28129 8.59564C8.35259 8.59564 7.58905 8.8772 6.97679 9.43351C6.32677 10.0203 6 10.8107 6 11.8012C6 12.7917 6.32677 13.5753 6.97679 14.1689C7.57871 14.7252 8.35259 15 9.28129 15C10.1687 15 10.915 14.6506 11.4998 13.9518L11.5273 13.9314L10.8016 13.0664L10.774 13.0936C10.3028 13.5549 9.79718 13.7923 9.25379 13.7923C8.68626 13.7923 8.21847 13.6023 7.84704 13.2259C7.47208 12.8561 7.29322 12.3779 7.29322 11.8012C7.29322 11.2245 7.47208 10.7428 7.84704 10.3664C8.21847 10 8.68626 9.81002 9.25379 9.81002C9.79718 9.81002 10.3028 10.0475 10.774 10.5089L10.8016 10.536L11.5273 9.67094Z" fill="#003B70"/>
<path fill-rule="evenodd" clip-rule="evenodd" d="M12.8962 7.67979C13.4017 7.171 13.9659 6.78429 14.609 6.50953C15.2281 6.2449 15.8885 6.11602 16.5696 6.11602C17.2471 6.11602 17.9075 6.2449 18.5403 6.50953C19.1697 6.78429 19.7338 7.171 20.2394 7.67979L20.26 7.69679H21.7321L21.6771 7.61195C21.0925 6.80121 20.3358 6.16014 19.4277 5.69199C18.5197 5.22732 17.5739 5 16.5696 5C15.5755 5 14.6159 5.22732 13.7079 5.69199C12.7998 6.16014 12.0432 6.80121 11.4619 7.61195L11.4034 7.69679H12.8858L12.8962 7.67979Z" fill="#EC1C2D"/>
</svg>
