<svg width="34" height="24" viewBox="0 0 34 24" fill="none" xmlns="http://www.w3.org/2000/svg">
<path d="M5.5612 12.8352H5.82003C5.96777 12.8352 6.0871 12.847 6.21871 12.9989C6.31182 13.1039 6.41418 13.3361 6.41418 13.7115C6.41418 13.8463 6.41516 13.9798 6.38964 14.1169C6.34863 14.3332 6.24879 14.68 5.67785 14.68C5.52507 14.68 5.5612 14.676 5.5612 14.676V12.8354V12.8352ZM5.85483 15C6.62326 15 6.96731 14.6571 6.96731 13.7206C6.96731 13.473 6.89453 13.0581 6.66394 12.8049C6.42544 12.5451 6.11702 12.5127 5.85651 12.5127H5V15H5.85483Z" fill="#046148"/>
<path d="M8.28009 14.3557C8.28009 14.4381 8.27773 14.5487 8.19034 14.6278C8.11705 14.6924 8.01386 14.6973 7.97453 14.6973C7.87705 14.6973 7.78931 14.6618 7.75233 14.5413C7.74309 14.5033 7.73938 14.465 7.73938 14.4283C7.73938 14.2466 7.85989 14.1702 7.99385 14.1376C8.06406 14.1213 8.11133 14.1182 8.28008 14.1042V14.3558L8.28009 14.3557ZM8.28009 13.8799L8.00008 13.9075C7.69839 13.9421 7.58292 13.9696 7.45384 14.0554C7.24542 14.1971 7.24274 14.4043 7.24274 14.4724C7.24274 14.6423 7.29431 14.7702 7.36459 14.8438C7.45719 14.9517 7.60393 14.9912 7.74561 14.9912C8.09302 14.9912 8.25874 14.8334 8.25874 14.8334L8.26112 14.9457H8.72955V13.769C8.72955 13.6365 8.73271 13.4503 8.5808 13.3185C8.5013 13.2505 8.43171 13.219 8.32415 13.2037C8.21726 13.1845 8.18011 13.1768 8.0759 13.1768C7.75992 13.1768 7.52159 13.2324 7.38579 13.4741C7.3275 13.5788 7.3305 13.6839 7.3305 13.7642H7.75993C7.76388 13.6942 7.76703 13.5972 7.82177 13.5298C7.84949 13.4915 7.91438 13.4368 8.03456 13.4368C8.07373 13.4368 8.1875 13.4368 8.24549 13.5316C8.27779 13.5876 8.28048 13.6604 8.28048 13.7429V13.8799L8.28009 13.8799Z" fill="#046148"/>
<path d="M12.0092 14.3557C12.0092 14.4381 12.0069 14.5487 11.9188 14.6278C11.8474 14.6924 11.7438 14.6973 11.702 14.6973C11.6052 14.6973 11.5188 14.6618 11.4813 14.5413C11.4719 14.5033 11.4692 14.465 11.4692 14.4283C11.4692 14.2466 11.5891 14.1702 11.7237 14.1376C11.7939 14.1213 11.8407 14.1182 12.0092 14.1042V14.3558L12.0092 14.3557ZM12.0092 13.8799L11.7304 13.9075C11.4269 13.9421 11.3131 13.9696 11.1831 14.0554C10.9759 14.1971 10.9727 14.4043 10.9727 14.4724C10.9727 14.6423 11.0228 14.7702 11.0924 14.8438C11.1863 14.9517 11.3339 14.9912 11.4749 14.9912C11.8232 14.9912 11.9886 14.8334 11.9886 14.8334L11.9909 14.9457H12.4577V13.769C12.4577 13.6365 12.4616 13.4503 12.3106 13.3185C12.2311 13.2505 12.1602 13.219 12.054 13.2037C11.9466 13.1845 11.9099 13.1768 11.805 13.1768C11.4892 13.1768 11.2514 13.2324 11.1148 13.4741C11.0573 13.5788 11.061 13.6839 11.061 13.7642H11.4892C11.4932 13.6942 11.4963 13.5972 11.5512 13.5298C11.5786 13.4915 11.6435 13.4368 11.7638 13.4368C11.803 13.4368 11.9166 13.4368 11.9761 13.5316C12.0068 13.5876 12.0095 13.6604 12.0095 13.7429V13.8799L12.0092 13.8799Z" fill="#046148"/>
<path d="M19.0661 14.9456H18.5773V13.8925C18.5773 13.8251 18.5773 13.769 18.5718 13.7116C18.567 13.6565 18.5512 13.4777 18.3382 13.4777C18.2817 13.4777 18.2338 13.4917 18.2032 13.5046C18.0592 13.5706 18.0555 13.6876 18.0519 13.7806V14.9457H17.5622V13.2222H18.0519V13.4182C18.175 13.3081 18.2862 13.1876 18.561 13.1876C18.7918 13.1876 18.9061 13.277 18.9533 13.3323C19.062 13.4545 19.062 13.613 19.0663 13.7366V14.9457L19.0661 14.9456Z" fill="#046148"/>
<path d="M10.6131 14.9456H10.1247V13.8925C10.1247 13.8251 10.1247 13.769 10.1166 13.7116C10.1135 13.6565 10.0968 13.4777 9.88252 13.4777C9.82787 13.4777 9.77999 13.4917 9.74941 13.5046C9.60503 13.5706 9.60082 13.6876 9.5968 13.7806V14.9457H9.10736V13.2222H9.5968V13.4182C9.72218 13.3081 9.8321 13.1876 10.1066 13.1876C10.3387 13.1876 10.4509 13.277 10.4995 13.3323C10.6093 13.4545 10.6093 13.613 10.6131 13.7366V14.9457L10.6131 14.9456Z" fill="#046148"/>
<path d="M12.8168 13.2214H13.306V13.4219C13.4 13.3381 13.5657 13.1861 13.8595 13.1861C14.1957 13.1861 14.2891 13.3868 14.312 13.453C14.5121 13.2594 14.6437 13.1861 14.8355 13.1861C14.9295 13.1861 14.9938 13.2014 15.056 13.2241C15.3196 13.3253 15.3253 13.5596 15.3302 13.7115V14.9445H14.8323V13.8214C14.83 13.6994 14.826 13.6303 14.7943 13.5762C14.788 13.5622 14.7394 13.4764 14.6157 13.4764C14.5738 13.4764 14.494 13.4865 14.4565 13.5071C14.3195 13.5725 14.3143 13.6863 14.312 13.7786V14.9445H13.8269V13.8286C13.8269 13.696 13.8285 13.4764 13.6076 13.4764C13.5577 13.4764 13.4708 13.4905 13.4279 13.5142C13.306 13.5893 13.3027 13.6994 13.306 13.8527V14.9445H12.8168V13.2214V13.2214Z" fill="#046148"/>
<path d="M16.7751 14.0467C16.7751 14.1445 16.7711 14.2384 16.7609 14.3332C16.7507 14.4284 16.734 14.6196 16.5875 14.7C16.5453 14.7201 16.5009 14.7307 16.4554 14.7307C16.1779 14.7307 16.1528 14.4396 16.1471 14.3332C16.1408 14.2539 16.1358 14.1762 16.1358 14.0991C16.1358 14.0301 16.1406 13.9344 16.1506 13.8214C16.1606 13.7302 16.1808 13.5555 16.322 13.473C16.3703 13.4486 16.4167 13.4386 16.4706 13.4386C16.734 13.4386 16.7579 13.7149 16.7641 13.8214C16.7712 13.8969 16.775 13.9729 16.775 14.0467L16.7751 14.0467ZM17.274 14.0554C17.274 13.9025 17.274 13.6162 17.1039 13.4219C16.8987 13.1769 16.6049 13.1769 16.5008 13.1769C16.3802 13.1769 16.1027 13.1816 15.8849 13.3793C15.6385 13.5989 15.6385 13.9497 15.6385 14.1272C15.6385 14.464 15.7144 14.8202 16.1405 14.9445C16.2645 14.9824 16.3304 14.9891 16.4553 14.9891C16.5721 14.9891 16.8642 14.9891 17.0812 14.7479C17.274 14.5344 17.274 14.2144 17.274 14.0554" fill="#046148"/>
<path d="M8.78513 10.7571H13.3124L9.2971 9.52553L8.78513 9.80057L7.04755 10.2489L8.78513 10.7571Z" fill="#EF9826"/>
<path d="M5 9.00003V10.7571H8.78571V9.80057L5 9.00003Z" fill="#EB712D"/>
<path d="M13.3143 10.7571L8.78519 9.00004L8.78589 9.80057L13.3143 10.7571H13.3143Z" fill="#FEC02B"/>
<path d="M28.9214 14.06V10.756H22.8237L21.5562 11.6697L22.8237 12.7707L28.9214 14.06Z" fill="#EF9826"/>
<path d="M22.8236 12.7707L21.1661 11.3416L13.3148 10.7583L22.8236 14.062V12.7707Z" fill="#FEC02B"/>
<path d="M13.3128 10.7559V10.7575L22.8236 12.7702V10.7563H13.3128V10.7559Z" fill="#EB712D"/>
</svg>
