<svg width="46" height="32" viewBox="0 0 46 32" fill="none" xmlns="http://www.w3.org/2000/svg">
<path d="M7.74827 17.1136H8.09338C8.29036 17.1136 8.44947 17.1293 8.62494 17.3319C8.74909 17.4719 8.88557 17.7814 8.88557 18.2821C8.88557 18.4618 8.88688 18.6397 8.85285 18.8226C8.79818 19.111 8.66506 19.5733 7.90379 19.5733C7.70009 19.5733 7.74827 19.568 7.74827 19.568V17.1139V17.1136ZM8.13977 20C9.16435 20 9.62308 19.5428 9.62308 18.2942C9.62308 17.9641 9.52604 17.4108 9.21858 17.0733C8.90058 16.7268 8.48936 16.6835 8.14201 16.6835H7V20H8.13977Z" fill="#046148"/>
<path d="M11.3735 19.141C11.3735 19.2508 11.3703 19.3982 11.2538 19.5038C11.1561 19.5898 11.0185 19.5963 10.9661 19.5963C10.8361 19.5963 10.7191 19.5491 10.6698 19.3884C10.6575 19.3377 10.6525 19.2867 10.6525 19.2378C10.6525 18.9955 10.8132 18.8936 10.9918 18.8501C11.0854 18.8284 11.1484 18.8243 11.3735 18.8055V19.141L11.3735 19.141ZM11.3735 18.5065L11.0001 18.5433C10.5979 18.5894 10.4439 18.6262 10.2718 18.7405C9.99391 18.9294 9.99033 19.2057 9.99033 19.2965C9.99033 19.523 10.0591 19.6936 10.1528 19.7917C10.2763 19.9356 10.4719 19.9883 10.6608 19.9883C11.124 19.9883 11.345 19.7779 11.345 19.7779L11.3482 19.9276H11.9727V18.3586C11.9727 18.182 11.977 17.9337 11.7744 17.758C11.6684 17.6673 11.5756 17.6254 11.4322 17.605C11.2897 17.5794 11.2402 17.5691 11.1012 17.5691C10.6799 17.5691 10.3621 17.6432 10.1811 17.9655C10.1033 18.1051 10.1073 18.2452 10.1073 18.3523H10.6799C10.6852 18.2589 10.6894 18.1295 10.7624 18.0397C10.7993 17.9886 10.8859 17.9158 11.0461 17.9158C11.0983 17.9158 11.25 17.9158 11.3273 18.0422C11.3704 18.1168 11.374 18.2138 11.374 18.3238V18.5065L11.3735 18.5065Z" fill="#046148"/>
<path d="M16.3456 19.141C16.3456 19.2508 16.3425 19.3982 16.2251 19.5038C16.1299 19.5898 15.9918 19.5963 15.936 19.5963C15.8069 19.5963 15.6917 19.5491 15.6417 19.3884C15.6292 19.3377 15.6256 19.2867 15.6256 19.2378C15.6256 18.9955 15.7854 18.8936 15.9649 18.8501C16.0585 18.8284 16.1209 18.8243 16.3457 18.8055V19.141L16.3456 19.141ZM16.3456 18.5065L15.9739 18.5433C15.5691 18.5894 15.4174 18.6262 15.2442 18.7405C14.9679 18.9294 14.9636 19.2057 14.9636 19.2965C14.9636 19.523 15.0304 19.6936 15.1232 19.7917C15.2485 19.9356 15.4452 19.9883 15.6332 19.9883C16.0976 19.9883 16.3181 19.7779 16.3181 19.7779L16.3212 19.9276H16.9436V18.3586C16.9436 18.182 16.9488 17.9337 16.7475 17.758C16.6415 17.6673 16.5469 17.6254 16.4053 17.605C16.2621 17.5794 16.2132 17.5691 16.0734 17.5691C15.6523 17.5691 15.3352 17.6432 15.153 17.9655C15.0764 18.1051 15.0813 18.2452 15.0813 18.3523H15.6523C15.6576 18.2589 15.6618 18.1295 15.735 18.0397C15.7715 17.9886 15.858 17.9158 16.0185 17.9158C16.0707 17.9158 16.2222 17.9158 16.3015 18.0422C16.3425 18.1168 16.346 18.2138 16.346 18.3238V18.5065L16.3456 18.5065Z" fill="#046148"/>
<path d="M25.7547 19.9275H25.1031V18.5233C25.1031 18.4335 25.1031 18.3586 25.0957 18.2822C25.0894 18.2087 25.0683 17.9702 24.7842 17.9702C24.7089 17.9702 24.645 17.9889 24.6042 18.0061C24.4122 18.0942 24.4073 18.2502 24.4026 18.3741V19.9276H23.7495V17.6296H24.4026V17.8909C24.5666 17.7442 24.715 17.5835 25.0814 17.5835C25.389 17.5835 25.5414 17.7027 25.6044 17.7764C25.7494 17.9393 25.7494 18.1507 25.755 18.3154V19.9276L25.7547 19.9275Z" fill="#046148"/>
<path d="M14.4842 19.9275H13.8329V18.5233C13.8329 18.4335 13.8329 18.3586 13.8222 18.2822C13.818 18.2087 13.7958 17.9702 13.51 17.9702C13.4372 17.9702 13.3733 17.9889 13.3325 18.0061C13.14 18.0942 13.1344 18.2502 13.1291 18.3741V19.9276H12.4765V17.6296H13.1291V17.8909C13.2962 17.7442 13.4428 17.5835 13.8087 17.5835C14.1182 17.5835 14.2679 17.7027 14.3327 17.7764C14.479 17.9393 14.479 18.1507 14.4842 18.3154V19.9276L14.4842 19.9275Z" fill="#046148"/>
<path d="M17.4224 17.6285H18.0748V17.8959C18.2 17.7841 18.421 17.5815 18.8127 17.5815C19.2609 17.5815 19.3855 17.8491 19.416 17.9374C19.6829 17.6792 19.8584 17.5815 20.1141 17.5815C20.2393 17.5815 20.3252 17.6019 20.4081 17.6321C20.7595 17.767 20.7671 18.0794 20.7736 18.282V19.926H20.1098V18.4286C20.1066 18.2659 20.1014 18.1738 20.0591 18.1016C20.0507 18.083 19.9859 17.9685 19.8209 17.9685C19.7651 17.9685 19.6587 17.982 19.6087 18.0095C19.4261 18.0967 19.4191 18.2484 19.416 18.3714V19.926H18.7692V18.4382C18.7692 18.2614 18.7713 17.9685 18.4768 17.9685C18.4102 17.9685 18.2944 17.9873 18.2372 18.0189C18.0747 18.1191 18.0703 18.2659 18.0747 18.4702V19.926H17.4224V17.6285V17.6285Z" fill="#046148"/>
<path d="M22.7001 18.7289C22.7001 18.8594 22.6948 18.9846 22.6813 19.111C22.6676 19.2379 22.6454 19.4929 22.45 19.6C22.3938 19.6269 22.3346 19.641 22.2739 19.641C21.9039 19.641 21.8705 19.2528 21.8629 19.111C21.8544 19.0052 21.8478 18.9017 21.8478 18.7988C21.8478 18.7069 21.8541 18.5792 21.8675 18.4286C21.8808 18.3069 21.9078 18.0741 22.0961 17.964C22.1604 17.9315 22.2222 17.9181 22.2942 17.9181C22.6453 17.9181 22.6772 18.2865 22.6855 18.4286C22.6949 18.5293 22.7 18.6305 22.7 18.7289L22.7001 18.7289ZM23.3653 18.7406C23.3653 18.5367 23.3653 18.155 23.1386 17.896C22.8649 17.5692 22.4732 17.5692 22.3345 17.5692C22.1736 17.5692 21.8036 17.5755 21.5132 17.839C21.1846 18.1319 21.1846 18.5996 21.1846 18.8363C21.1846 19.2854 21.2859 19.7603 21.854 19.9261C22.0194 19.9765 22.1072 19.9855 22.2738 19.9855C22.4295 19.9855 22.819 19.9855 23.1083 19.6639C23.3653 19.3793 23.3653 18.9526 23.3653 18.7406" fill="#046148"/>
<path d="M12.0469 14.3428H18.0832L12.7295 12.7007L12.0469 13.0674L9.73007 13.6653L12.0469 14.3428Z" fill="#EF9826"/>
<path d="M7.00003 12V14.3427H12.0476V13.0674L7.00003 12Z" fill="#EB712D"/>
<path d="M18.0857 14.3428L12.0469 12L12.0478 13.0674L18.0858 14.3428H18.0857Z" fill="#FEC02B"/>
<path d="M38.8952 18.7466V14.3413H30.7649L29.075 15.5596L30.7649 17.0276L38.8952 18.7466Z" fill="#EF9826"/>
<path d="M30.7648 17.0276L28.5548 15.1221L18.0864 14.3444L30.7648 18.7493V17.0276Z" fill="#FEC02B"/>
<path d="M18.0837 14.3412V14.3433L30.7649 17.0269V14.3418H18.0837V14.3412Z" fill="#EB712D"/>
</svg>
