<svg width="28" height="20" viewBox="0 0 28 20" fill="none" xmlns="http://www.w3.org/2000/svg">
<path d="M4.46767 11.196H4.68336C4.80648 11.196 4.90592 11.2058 5.01559 11.3324C5.09318 11.42 5.17848 11.6134 5.17848 11.9263C5.17848 12.0386 5.1793 12.1498 5.15803 12.2641C5.12386 12.4444 5.04066 12.7333 4.56487 12.7333C4.43755 12.7333 4.46767 12.73 4.46767 12.73V11.1962V11.196ZM4.71236 13C5.35272 13 5.63942 12.7143 5.63942 11.9338C5.63942 11.7275 5.57878 11.3817 5.38661 11.1708C5.18787 10.9543 4.93085 10.9272 4.71375 10.9272H4V13H4.71236Z" fill="#046148"/>
<path d="M6.73342 12.4631C6.73342 12.5317 6.73145 12.6239 6.65863 12.6899C6.59755 12.7436 6.51156 12.7477 6.47879 12.7477C6.39755 12.7477 6.32444 12.7182 6.29362 12.6177C6.28592 12.5861 6.28283 12.5542 6.28283 12.5236C6.28283 12.3722 6.38326 12.3085 6.49488 12.2813C6.55339 12.2677 6.59278 12.2652 6.73341 12.2535V12.4631L6.73342 12.4631ZM6.73342 12.0666L6.50008 12.0896C6.24867 12.1184 6.15244 12.1414 6.04487 12.2128C5.8712 12.3309 5.86896 12.5036 5.86896 12.5603C5.86896 12.7019 5.91194 12.8085 5.9705 12.8698C6.04767 12.9598 6.16995 12.9927 6.28802 12.9927C6.57753 12.9927 6.71563 12.8612 6.71563 12.8612L6.71761 12.9547H7.10797V11.9741C7.10797 11.8638 7.1106 11.7086 6.98401 11.5988C6.91776 11.542 6.85977 11.5159 6.77014 11.5031C6.68106 11.4871 6.6501 11.4807 6.56326 11.4807C6.29995 11.4807 6.10134 11.527 5.98817 11.7284C5.9396 11.8157 5.9421 11.9032 5.9421 11.9702H6.29995C6.30325 11.9118 6.30587 11.831 6.35149 11.7748C6.37459 11.7429 6.42866 11.6973 6.52881 11.6973C6.56145 11.6973 6.65626 11.6973 6.70459 11.7763C6.7315 11.823 6.73374 11.8836 6.73374 11.9524V12.0666L6.73342 12.0666Z" fill="#046148"/>
<path d="M9.84103 12.4631C9.84103 12.5317 9.83906 12.6239 9.76568 12.6899C9.70618 12.7436 9.61987 12.7477 9.58499 12.7477C9.50432 12.7477 9.43233 12.7182 9.40109 12.6177C9.39326 12.5861 9.39102 12.5542 9.39102 12.5236C9.39102 12.3722 9.49088 12.3085 9.60308 12.2813C9.66159 12.2677 9.70056 12.2652 9.84104 12.2535V12.4631L9.84103 12.4631ZM9.84103 12.0666L9.60867 12.0896C9.35571 12.1184 9.26089 12.1414 9.15262 12.2128C8.97993 12.3309 8.97726 12.5036 8.97726 12.5603C8.97726 12.7019 9.01899 12.8085 9.07699 12.8698C9.15529 12.9598 9.27826 12.9927 9.39577 12.9927C9.68598 12.9927 9.8238 12.8612 9.8238 12.8612L9.82578 12.9547H10.2147V11.9741C10.2147 11.8638 10.218 11.7086 10.0922 11.5988C10.0259 11.542 9.96682 11.5159 9.8783 11.5031C9.7888 11.4871 9.75827 11.4807 9.67087 11.4807C9.40769 11.4807 9.2095 11.527 9.09564 11.7284C9.04772 11.8157 9.05082 11.9032 9.05082 11.9702H9.40769C9.41099 11.9118 9.41361 11.831 9.45936 11.7748C9.48219 11.7429 9.53626 11.6973 9.63654 11.6973C9.66918 11.6973 9.76385 11.6973 9.81344 11.7763C9.83904 11.823 9.84128 11.8836 9.84128 11.9524V12.0666L9.84103 12.0666Z" fill="#046148"/>
<path d="M15.7217 12.9547H15.3144V12.0771C15.3144 12.0209 15.3144 11.9741 15.3098 11.9263C15.3059 11.8804 15.2927 11.7314 15.1151 11.7314C15.0681 11.7314 15.0282 11.743 15.0027 11.7538C14.8826 11.8088 14.8796 11.9064 14.8766 11.9838V12.9547H14.4685V11.5185H14.8766V11.6818C14.9791 11.5901 15.0719 11.4897 15.3009 11.4897C15.4932 11.4897 15.5884 11.5642 15.6278 11.6103C15.7184 11.7121 15.7184 11.8442 15.7219 11.9471V12.9547L15.7217 12.9547Z" fill="#046148"/>
<path d="M8.6776 12.9547H8.27058V12.0771C8.27058 12.0209 8.27058 11.9741 8.26386 11.9263C8.26122 11.8804 8.24734 11.7314 8.06876 11.7314C8.02322 11.7314 7.98332 11.743 7.95783 11.7538C7.83751 11.8088 7.83401 11.9064 7.83065 11.9838V12.9547H7.42279V11.5185H7.83065V11.6818C7.93514 11.5901 8.02674 11.4897 8.25546 11.4897C8.44889 11.4897 8.54244 11.5642 8.58293 11.6103C8.67438 11.7121 8.67438 11.8442 8.67761 11.9471V12.9547L8.6776 12.9547Z" fill="#046148"/>
<path d="M10.514 11.5178H10.9217V11.6849C11 11.615 11.1381 11.4884 11.3829 11.4884C11.6631 11.4884 11.7409 11.6556 11.76 11.7108C11.9268 11.5495 12.0365 11.4884 12.1963 11.4884C12.2746 11.4884 12.3282 11.5012 12.38 11.5201C12.5996 11.6044 12.6044 11.7996 12.6085 11.9262V12.9537H12.1936V12.0178C12.1916 11.9162 12.1883 11.8586 12.1619 11.8135C12.1567 11.8018 12.1161 11.7303 12.0131 11.7303C11.9782 11.7303 11.9117 11.7387 11.8804 11.7559C11.7663 11.8104 11.7619 11.9052 11.76 11.9821V12.9537H11.3558V12.0238C11.3558 11.9133 11.3571 11.7303 11.173 11.7303C11.1314 11.7303 11.059 11.742 11.0232 11.7618C10.9217 11.8244 10.9189 11.9161 10.9217 12.0439V12.9537H10.514V11.5178V11.5178Z" fill="#046148"/>
<path d="M13.8126 12.2056C13.8126 12.2871 13.8093 12.3654 13.8008 12.4444C13.7922 12.5236 13.7783 12.683 13.6562 12.75C13.6211 12.7668 13.5841 12.7756 13.5462 12.7756C13.3149 12.7756 13.294 12.533 13.2893 12.4443C13.284 12.3782 13.2799 12.3135 13.2799 12.2492C13.2799 12.1918 13.2838 12.112 13.2922 12.0179C13.3005 11.9418 13.3174 11.7963 13.435 11.7275C13.4752 11.7072 13.5139 11.6988 13.5589 11.6988C13.7783 11.6988 13.7982 11.9291 13.8034 12.0179C13.8093 12.0808 13.8125 12.1441 13.8125 12.2056L13.8126 12.2056ZM14.2283 12.2129C14.2283 12.0854 14.2283 11.8469 14.0866 11.685C13.9156 11.4807 13.6707 11.4808 13.584 11.4808C13.4835 11.4808 13.2522 11.4847 13.0707 11.6494C12.8654 11.8324 12.8654 12.1248 12.8654 12.2727C12.8654 12.5533 12.9287 12.8501 13.2837 12.9538C13.3871 12.9853 13.442 12.9909 13.5461 12.9909C13.6434 12.9909 13.8869 12.9909 14.0677 12.7899C14.2283 12.612 14.2283 12.3454 14.2283 12.2129" fill="#046148"/>
<path d="M7.15429 9.46423H10.927L7.58093 8.43794L7.15429 8.66715L5.7063 9.04079L7.15429 9.46423Z" fill="#EF9826"/>
<path d="M4 8.00002V9.46423H7.15476V8.66714L4 8.00002Z" fill="#EB712D"/>
<path d="M10.9286 9.46423L7.15433 8.00003L7.15491 8.66715L10.9286 9.46423H10.9286Z" fill="#FEC02B"/>
<path d="M23.9345 12.2167V9.46333H18.8531L17.7969 10.2248L18.8531 11.1423L23.9345 12.2167Z" fill="#EF9826"/>
<path d="M18.853 11.1422L17.4717 9.95133L10.929 9.46526L18.853 12.2183V11.1422Z" fill="#FEC02B"/>
<path d="M10.9273 9.46329V9.46461L18.853 11.1418V9.46363H10.9273V9.46329Z" fill="#EB712D"/>
</svg>
