<svg width="58" height="40" viewBox="0 0 58 40" fill="none" xmlns="http://www.w3.org/2000/svg">
<path d="M9.93533 21.392H10.3667C10.613 21.392 10.8118 21.4116 11.0312 21.6648C11.1864 21.8399 11.357 22.2268 11.357 22.8526C11.357 23.0772 11.3586 23.2996 11.3161 23.5282C11.2477 23.8887 11.0813 24.4666 10.1297 24.4666C9.87511 24.4666 9.93533 24.46 9.93533 24.46V21.3924V21.392ZM10.4247 25C11.7054 25 12.2788 24.4285 12.2788 22.8677C12.2788 22.4551 12.1576 21.7634 11.7732 21.3416C11.3757 20.9085 10.8617 20.8544 10.4275 20.8544H9V25H10.4247Z" fill="#046148"/>
<path d="M14.4668 23.9262C14.4668 24.0635 14.4629 24.2478 14.3173 24.3797C14.1951 24.4873 14.0231 24.4954 13.9576 24.4954C13.7951 24.4954 13.6489 24.4363 13.5872 24.2355C13.5718 24.1722 13.5657 24.1083 13.5657 24.0472C13.5657 23.7444 13.7665 23.617 13.9898 23.5626C14.1068 23.5355 14.1856 23.5304 14.4668 23.5069V23.9263L14.4668 23.9262ZM14.4668 23.1332L14.0002 23.1791C13.4973 23.2368 13.3049 23.2827 13.0897 23.4256C12.7424 23.6618 12.7379 24.0072 12.7379 24.1206C12.7379 24.4038 12.8239 24.617 12.941 24.7397C13.0953 24.9195 13.3399 24.9854 13.576 24.9854C14.1551 24.9854 14.4313 24.7223 14.4313 24.7223L14.4352 24.9094H15.2159V22.9483C15.2159 22.7275 15.2212 22.4172 14.968 22.1976C14.8355 22.0841 14.7195 22.0317 14.5403 22.0062C14.3621 21.9742 14.3002 21.9613 14.1265 21.9613C13.5999 21.9613 13.2027 22.054 12.9763 22.4569C12.8792 22.6314 12.8842 22.8065 12.8842 22.9404H13.5999C13.6065 22.8236 13.6117 22.6619 13.703 22.5496C13.7492 22.4858 13.8573 22.3947 14.0576 22.3947C14.1229 22.3947 14.3125 22.3947 14.4092 22.5527C14.463 22.646 14.4675 22.7673 14.4675 22.9048V23.1331L14.4668 23.1332Z" fill="#046148"/>
<path d="M20.6821 23.9262C20.6821 24.0635 20.6781 24.2478 20.5314 24.3797C20.4124 24.4873 20.2397 24.4954 20.17 24.4954C20.0086 24.4954 19.8647 24.4363 19.8022 24.2355C19.7865 24.1722 19.782 24.1083 19.782 24.0472C19.782 23.7444 19.9818 23.617 20.2062 23.5626C20.3232 23.5355 20.4011 23.5304 20.6821 23.5069V23.9263L20.6821 23.9262ZM20.6821 23.1332L20.2173 23.1791C19.7114 23.2368 19.5218 23.2827 19.3052 23.4256C18.9599 23.6618 18.9545 24.0072 18.9545 24.1206C18.9545 24.4038 19.038 24.617 19.154 24.7397C19.3106 24.9195 19.5565 24.9854 19.7915 24.9854C20.372 24.9854 20.6476 24.7223 20.6476 24.7223L20.6516 24.9094H21.4295V22.9483C21.4295 22.7275 21.436 22.4172 21.1844 22.1976C21.0519 22.0841 20.9336 22.0317 20.7566 22.0062C20.5776 21.9742 20.5165 21.9613 20.3417 21.9613C19.8154 21.9613 19.419 22.054 19.1913 22.4569C19.0954 22.6314 19.1016 22.8065 19.1016 22.9404H19.8154C19.822 22.8236 19.8272 22.6619 19.9187 22.5496C19.9644 22.4858 20.0725 22.3947 20.2731 22.3947C20.3384 22.3947 20.5277 22.3947 20.6269 22.5527C20.6781 22.646 20.6826 22.7673 20.6826 22.9048V23.1331L20.6821 23.1332Z" fill="#046148"/>
<path d="M32.4435 24.9094H31.6289V23.1542C31.6289 23.0419 31.6289 22.9483 31.6196 22.8527C31.6117 22.7609 31.5854 22.4628 31.2303 22.4628C31.1362 22.4628 31.0563 22.4861 31.0053 22.5077C30.7653 22.6178 30.7591 22.8128 30.7532 22.9677V24.9095H29.937V22.0371H30.7532V22.3637C30.9583 22.1802 31.1437 21.9794 31.6017 21.9794C31.9863 21.9794 32.1768 22.1284 32.2555 22.2206C32.4368 22.4242 32.4368 22.6884 32.4438 22.8943V24.9095L32.4435 24.9094Z" fill="#046148"/>
<path d="M18.3552 24.9094H17.5412V23.1542C17.5412 23.0419 17.5412 22.9483 17.5277 22.8527C17.5224 22.7609 17.4947 22.4628 17.1375 22.4628C17.0464 22.4628 16.9666 22.4861 16.9157 22.5077C16.675 22.6178 16.668 22.8128 16.6613 22.9677V24.9095H15.8456V22.0371H16.6613V22.3637C16.8703 22.1802 17.0535 21.9794 17.5109 21.9794C17.8978 21.9794 18.0849 22.1284 18.1659 22.2206C18.3488 22.4242 18.3488 22.6884 18.3552 22.8943V24.9095L18.3552 24.9094Z" fill="#046148"/>
<path d="M22.028 22.0357H22.8434V22.3699C23 22.2301 23.2762 21.9769 23.7659 21.9769C24.3261 21.9769 24.4818 22.3113 24.5199 22.4217C24.8536 22.099 25.0729 21.9769 25.3925 21.9769C25.5491 21.9769 25.6564 22.0024 25.7601 22.0402C26.1993 22.2088 26.2088 22.5993 26.2169 22.8525V24.9075H25.3872V23.0357C25.3833 22.8324 25.3767 22.7172 25.3239 22.627C25.3134 22.6037 25.2323 22.4606 25.0261 22.4606C24.9564 22.4606 24.8233 22.4775 24.7608 22.5118C24.5326 22.6208 24.5239 22.8105 24.5199 22.9643V24.9075H23.7115V23.0477C23.7115 22.8267 23.7141 22.4606 23.3459 22.4606C23.2628 22.4606 23.1179 22.4842 23.0465 22.5236C22.8434 22.6488 22.8378 22.8323 22.8434 23.0878V24.9075H22.028V22.0357V22.0357Z" fill="#046148"/>
<path d="M28.6251 23.4111C28.6251 23.5742 28.6185 23.7308 28.6016 23.8887C28.5845 24.0473 28.5567 24.3661 28.3125 24.5C28.2422 24.5335 28.1682 24.5512 28.0923 24.5512C27.6298 24.5512 27.5881 24.066 27.5786 23.8887C27.568 23.7565 27.5597 23.6271 27.5597 23.4985C27.5597 23.3836 27.5676 23.2239 27.5843 23.0357C27.6009 22.8836 27.6348 22.5926 27.8701 22.455C27.9505 22.4143 28.0278 22.3976 28.1177 22.3976C28.5567 22.3976 28.5964 22.8582 28.6068 23.0357C28.6186 23.1616 28.625 23.2881 28.625 23.4111L28.6251 23.4111ZM29.4567 23.4257C29.4567 23.1708 29.4567 22.6937 29.1732 22.3699C28.8311 21.9615 28.3415 21.9615 28.1681 21.9615C27.967 21.9615 27.5045 21.9694 27.1414 22.2988C26.7308 22.6649 26.7308 23.2495 26.7308 23.5453C26.7308 24.1067 26.8574 24.7003 27.5675 24.9076C27.7742 24.9706 27.884 24.9818 28.0922 24.9818C28.2869 24.9818 28.7737 24.9818 29.1354 24.5798C29.4567 24.2241 29.4567 23.6907 29.4567 23.4257" fill="#046148"/>
<path d="M15.3086 17.9285H22.854L16.1619 15.8759L15.3086 16.3343L12.4126 17.0816L15.3086 17.9285Z" fill="#EF9826"/>
<path d="M9 15V17.9284H15.3095V16.3342L9 15Z" fill="#EB712D"/>
<path d="M22.8572 17.9285L15.3087 15.0001L15.3098 16.3343L22.8572 17.9285H22.8572Z" fill="#FEC02B"/>
<path d="M48.869 23.4333V17.9266H38.7061L36.5938 19.4494L38.7061 21.2845L48.869 23.4333Z" fill="#EF9826"/>
<path d="M38.7061 21.2845L35.9435 18.9027L22.858 17.9306L38.7061 23.4367V21.2845Z" fill="#FEC02B"/>
<path d="M22.8547 17.9265V17.9292L38.7061 21.2836V17.9272H22.8547V17.9265Z" fill="#EB712D"/>
</svg>
