<svg width="34" height="24" viewBox="0 0 34 24" fill="none" xmlns="http://www.w3.org/2000/svg">
<path fill-rule="evenodd" clip-rule="evenodd" d="M9.36187 14.2795C9.37361 14.3332 9.46915 14.4019 9.52112 14.4924C9.47083 14.4606 9.42222 14.4136 9.37361 14.3717C9.15569 14.1907 7.54145 12.8295 7.42411 12.7575C6.90446 12.4339 6.62788 12.7441 6.29598 13.0106C6.14176 13.1329 4.54931 14.4773 4.51075 14.489C4.52751 14.474 4.54595 14.4455 4.56942 14.4186C4.77225 14.1923 5.05889 13.837 5.26172 13.5956L5.76292 13.0022C5.84506 12.8983 5.93223 12.8078 6.01436 12.7055C6.14176 12.5479 6.39823 12.3082 6.39488 11.9948C6.39153 11.6662 6.14008 11.46 6.00934 11.2891C5.93055 11.1851 5.84171 11.0929 5.7579 10.9907L5.00525 10.1006C4.91976 10.0017 4.84098 9.89607 4.75549 9.8022C4.7119 9.75359 4.67 9.69827 4.62977 9.65301C4.60127 9.62116 4.52751 9.52394 4.50069 9.51053C4.56942 9.52394 5.56848 10.3872 5.69755 10.4911L6.29598 10.9907C6.45858 11.1197 6.6899 11.3745 7.00672 11.3812C7.29168 11.3863 7.52804 11.1767 7.72919 11.0007L8.32594 10.5012C8.53044 10.3386 8.71986 10.1676 8.92437 10.0017L9.52112 9.50718C9.48592 9.57423 9.34846 9.71671 9.29315 9.78711C9.21771 9.88601 9.1339 9.97486 9.05344 10.0721C8.89252 10.2615 8.73495 10.4509 8.57403 10.642C8.49021 10.7409 8.41478 10.8247 8.33432 10.9253C8.25218 11.0259 8.17508 11.108 8.09294 11.2086C7.92866 11.4131 7.74092 11.5841 7.66717 11.8305C7.54145 12.2462 7.90855 12.5613 8.15161 12.8631L8.63437 13.4296C8.6746 13.4783 8.70813 13.5218 8.75339 13.5721L9.31997 14.246C9.34176 14.2678 9.33841 14.2644 9.36187 14.2795ZM11.013 9.49209C11.0063 9.38481 10.9275 9.28256 10.8722 9.21383C10.7062 9.00932 10.4179 8.89534 10.1464 8.98418C10.0877 9.00262 10.0441 9.02609 9.98712 9.0395C10.1564 8.72101 10.0877 8.42934 9.84129 8.1846C9.55967 7.90466 9.23951 7.99518 8.95454 8.13766C8.71483 8.25836 8.35947 8.40922 8.09964 8.47459C7.66549 8.58355 7.48613 8.59864 7.01845 8.59864C6.24904 8.59864 5.76795 8.47962 5.08404 8.13766C4.74543 7.96836 4.50405 7.92478 4.19561 8.18292C3.97602 8.36731 3.90059 8.67072 4.00452 8.94227C4.0196 8.98083 4.0414 9.00765 4.05145 9.05123C3.92406 8.98418 3.75811 8.92719 3.56366 8.96909C3.41615 8.99927 3.27199 9.08979 3.18315 9.18533C3.01552 9.36805 2.95182 9.61613 3.03899 9.85919C3.16638 10.2112 3.30887 10.3319 3.47482 10.9152C3.64412 11.5137 3.6458 12.4272 3.47985 13.0659C3.43291 13.2453 3.3139 13.5503 3.23679 13.718C3.12783 13.9526 3.00043 14.127 3.00211 14.3885C3.00379 14.7606 3.39268 15.1093 3.82516 15.0322C3.92741 15.0137 3.97937 14.9768 4.06319 14.9483C3.88215 15.2031 3.9425 15.6038 4.18891 15.8116C4.65491 16.2055 4.95664 15.8921 5.48634 15.6809C5.62379 15.6256 5.77969 15.5652 5.92888 15.5283C6.36973 15.4177 6.53568 15.4009 7.00672 15.4009C7.59676 15.4009 7.98398 15.4529 8.52542 15.6708L8.94616 15.8586C9.15234 15.9608 9.39205 16.0664 9.65019 15.9457C10.0307 15.7664 10.1883 15.3406 9.98712 14.9601C10.1497 14.9986 10.4162 15.1663 10.7515 14.9031C10.9342 14.7589 11.0851 14.4907 11.0314 14.2762C11.0147 14.2125 11.0348 14.2493 10.9996 14.2225C11.0247 14.1571 10.9409 14.008 10.9124 13.9526C10.666 13.4598 10.5403 13.1296 10.4582 12.5597C10.428 12.3451 10.4397 12.0652 10.4397 11.8271C10.4397 11.1633 10.6174 10.6387 10.9007 10.0721C10.9443 9.98659 10.9845 9.90613 11.0096 9.81226C11.0247 9.76029 11.0616 9.52059 11.013 9.49209Z" fill="#EB1B23"/>
<path fill-rule="evenodd" clip-rule="evenodd" d="M21.4545 11.8154L21.9188 11.8623C23.0687 12.0216 23.7308 12.6015 23.7308 13.7816C23.7308 14.028 23.6839 14.2996 23.6135 14.4739C23.2229 15.4361 22.2725 15.2802 21.4545 15.2819C21.2902 15.2819 21.1326 15.2718 21.0203 15.2148C20.8829 15.1461 20.8929 15.0355 20.8929 14.841C20.8929 14.6751 20.8929 14.5075 20.8929 14.3415C20.8929 14.1705 20.9047 14.0314 20.9047 13.852C20.9047 13.6861 20.9063 13.5185 20.9047 13.3525C20.9047 13.2553 20.9181 13.21 20.9181 13.1145C20.9147 12.5429 20.9415 11.9595 20.9415 11.3862L20.9533 10.647C20.9533 10.5649 20.965 10.5062 20.965 10.409C20.965 10.0687 20.9784 9.76362 20.9767 9.41999C20.9767 9.32444 20.9901 9.27918 20.9885 9.18196C20.9885 9.09982 20.9885 9.01433 20.9885 8.93219C20.9901 8.7411 21.074 8.70589 21.2634 8.70589C21.6523 8.70589 22.1367 8.67572 22.4787 8.81318C22.9581 9.00427 23.1844 9.34791 23.2699 9.86923C23.3302 10.2447 23.3084 10.5766 23.1341 10.9102C23.0536 11.0661 22.9279 11.2086 22.7888 11.3158C22.5021 11.5338 22.1551 11.6595 21.7948 11.7148C21.5115 11.7584 21.4561 11.7114 21.4545 11.8154ZM19.0825 8.49133C19.0825 8.53659 19.1328 8.52989 19.1764 8.53827C19.4899 8.607 19.5586 8.89028 19.5586 9.20542C19.5586 9.77368 19.5586 10.3419 19.5586 10.9102C19.5586 11.9662 19.5402 13.029 19.5469 14.0917C19.5469 14.1772 19.5335 14.2108 19.5351 14.2929C19.5368 14.717 19.6156 15.2785 19.1814 15.4294C19.1161 15.4529 19.0775 15.4579 19.0105 15.473V15.5568H23.2179C23.4962 15.5568 23.7962 15.4881 24.0024 15.411C24.2857 15.307 24.3796 15.2249 24.5908 15.0573C24.7249 14.9517 24.8992 14.6667 24.9646 14.5024C25.1607 14.0197 25.1674 13.4296 24.9378 12.9552C24.6679 12.392 24.2237 12.0953 23.6705 11.874C23.6051 11.8489 23.3788 11.7701 23.3017 11.7684V11.7433C23.3419 11.7349 23.3805 11.7098 23.4274 11.6913C23.6638 11.5941 24.0108 11.3376 24.1918 11.1566C24.2304 11.1197 24.2421 11.0996 24.2756 11.0627L24.4349 10.8515C24.5204 10.7074 24.5606 10.6319 24.6075 10.4643C24.7433 9.98824 24.6193 9.36299 24.2991 9.01768C24.0762 8.7763 23.7878 8.62376 23.4643 8.5433C23.228 8.4863 22.9681 8.4444 22.6815 8.4444H19.0825V8.49133Z" fill="#0C0E19"/>
<path fill-rule="evenodd" clip-rule="evenodd" d="M14.9572 15.2936C14.689 15.2936 14.1728 15.3121 14.0336 15.1092C13.9247 14.9483 13.9967 14.308 13.9632 14.0834C13.933 13.8889 13.9683 10.5951 13.9683 10.1475C13.9683 9.95974 13.9766 9.10149 14.0001 8.94057C14.0353 8.69751 14.094 8.71763 14.3856 8.71763C15.6596 8.71763 16.5296 9.00259 17.0995 10.1391C17.3074 10.5565 17.3979 10.9655 17.475 11.4198C17.5354 11.7785 17.5437 12.0936 17.5437 12.4591C17.5437 13.1748 17.3124 13.9576 16.895 14.5142C16.7073 14.7656 16.4609 14.9986 16.1306 15.1076C15.7853 15.2216 15.4098 15.2936 14.9572 15.2936ZM12.1445 8.52653C12.3423 8.5433 12.5334 8.6841 12.592 8.88861C12.6189 8.97745 12.6339 9.32947 12.6323 9.45686C12.6323 9.53732 12.6457 9.56582 12.6457 9.64628C12.644 9.92119 12.6574 10.1642 12.6574 10.4459C12.6574 10.5867 12.6691 10.6906 12.6691 10.8381L12.639 14.5846C12.6239 14.6835 12.6289 14.8209 12.6205 14.9232C12.6138 15.0204 12.6071 15.1595 12.5619 15.2232C12.5166 15.2886 12.4412 15.3422 12.3657 15.3842C12.3104 15.4143 12.1679 15.4663 12.0975 15.473V15.5568H15.9228C16.1776 15.5568 16.4407 15.4981 16.6369 15.4361C16.7341 15.4043 16.8481 15.3657 16.9403 15.3221C17.0425 15.2718 17.1314 15.2333 17.2252 15.178C17.361 15.0942 17.4717 15.0288 17.594 14.9282C17.9963 14.5963 18.3048 14.2409 18.5378 13.7733C18.7071 13.433 18.8395 13.0223 18.8948 12.6401C18.9099 12.5345 18.9317 12.387 18.9384 12.268C18.9417 12.2009 18.9334 12.1221 18.9401 12.0551C18.9518 11.9629 18.9267 11.5421 18.9166 11.4684C18.8278 10.761 18.6316 10.2279 18.1941 9.67645C17.8924 9.29427 17.4348 8.96236 16.9956 8.76456C16.7961 8.67572 16.6067 8.60532 16.3687 8.54665C16.1558 8.49301 15.8825 8.4444 15.6244 8.4444H12.1445V8.52653Z" fill="#0C0E19"/>
<path fill-rule="evenodd" clip-rule="evenodd" d="M25.3518 10.3973C25.3518 10.7694 25.4876 11.1231 25.6854 11.3863C25.8731 11.636 26.1229 11.8506 26.4045 11.9897C26.7565 12.1657 27.0029 12.2428 27.3767 12.3535C27.7757 12.4708 28.416 12.5831 28.7127 12.7927C28.7848 12.8429 28.8887 12.9368 28.939 13.0072C29.1402 13.2888 29.1653 13.485 29.1653 13.8403C29.1653 14.0549 29.0832 14.3298 29.0111 14.4723C28.9189 14.655 28.8183 14.8008 28.6641 14.9232C28.5367 15.0238 28.5619 15.002 28.4294 15.0824C28.1327 15.2618 27.6986 15.3054 27.3298 15.3054C26.7263 15.3054 26.324 15.1361 25.9251 14.8394C25.6502 14.6365 25.5915 14.4907 25.506 14.127C25.4541 14.1253 25.4691 14.1186 25.4222 14.1152C25.4222 14.3499 25.4306 14.5963 25.4239 14.8293L25.4105 15.1746C25.4105 15.2853 25.387 15.4965 25.4474 15.4965C25.5848 15.4965 25.4859 15.3305 25.7323 15.3305L26.1547 15.4328C26.4263 15.4998 26.7515 15.5551 27.0381 15.597C27.6215 15.6809 28.411 15.6507 28.9407 15.4864C30.0303 15.1495 30.5482 14.4823 30.5482 13.3525C30.5482 12.2881 29.8626 11.6729 28.9105 11.403C28.4697 11.279 27.945 11.2052 27.5008 11.0259C27.1907 10.9018 26.8923 10.7359 26.7766 10.4023C26.5922 9.87259 26.7917 9.28087 27.2343 8.96741C27.9953 8.431 29.6531 8.62712 29.9934 9.63121C30.0286 9.73681 29.9984 9.74184 30.1074 9.74184C30.1074 9.51052 30.0956 9.30601 30.0956 9.08642C30.0956 8.98082 30.1007 8.85845 30.0956 8.75284C30.0923 8.69585 30.0822 8.67238 30.0839 8.59863C30.0839 8.56007 30.0973 8.45614 30.0604 8.45614C29.99 8.45614 29.9833 8.50643 29.9247 8.53493C29.757 8.62209 29.5307 8.54499 29.3816 8.51481C29.2055 8.47961 28.8368 8.41591 28.6541 8.40753C28.4412 8.39915 28.3238 8.37233 28.069 8.37233C27.9886 8.37233 27.94 8.36562 27.8779 8.3606L27.4857 8.38406C27.3013 8.39244 26.961 8.46117 26.7833 8.51649C26.3458 8.65562 26.034 8.84001 25.7709 9.16185C25.5094 9.48034 25.3518 9.95976 25.3518 10.3973Z" fill="#0C0E19"/>
<path fill-rule="evenodd" clip-rule="evenodd" d="M9.36188 14.2795C9.33841 14.2644 9.34177 14.2677 9.31998 14.246L8.7534 13.5721C8.70814 13.5218 8.67461 13.4782 8.63438 13.4296L8.15162 12.863C7.90856 12.5613 7.54145 12.2462 7.66717 11.8305C7.74093 11.584 7.92867 11.4131 8.09295 11.2086C8.17508 11.108 8.25219 11.0258 8.33433 10.9253C8.41479 10.8247 8.49022 10.7409 8.57404 10.642C8.73496 10.4509 8.89253 10.2615 9.05345 10.072C9.13391 9.97482 9.21772 9.88598 9.29315 9.78708C9.34847 9.71667 9.48593 9.57419 9.52113 9.50714L8.92438 10.0016C8.71987 10.1676 8.53045 10.3386 8.32595 10.5012L7.7292 11.0007C7.52804 11.1767 7.29169 11.3862 7.00672 11.3812C6.68991 11.3745 6.45858 11.1197 6.29599 10.9906L5.69756 10.4911C5.56849 10.3872 4.56943 9.5239 4.5007 9.51049C4.52752 9.5239 4.60128 9.62113 4.62977 9.65298C4.67001 9.69824 4.71191 9.75355 4.75549 9.80216C4.84098 9.89604 4.91977 10.0016 5.00526 10.1005L5.7579 10.9906C5.84172 11.0929 5.93056 11.1851 6.00934 11.289C6.14009 11.46 6.39153 11.6662 6.39489 11.9947C6.39824 12.3082 6.14177 12.5479 6.01437 12.7055C5.93224 12.8077 5.84507 12.8982 5.76293 13.0022L5.26173 13.5956C5.0589 13.8369 4.77226 14.1923 4.56943 14.4186C4.54596 14.4454 4.52752 14.4739 4.51076 14.489C4.54931 14.4773 6.14177 13.1329 6.29599 13.0105C6.62789 12.744 6.90447 12.4339 7.42411 12.7574C7.54145 12.8295 9.1557 14.1906 9.37362 14.3717C9.42223 14.4136 9.47084 14.4605 9.52113 14.4924C9.46916 14.4018 9.37362 14.3331 9.36188 14.2795Z" fill="#FEFEFE"/>
</svg>
