<svg width="46" height="32" viewBox="0 0 46 32" fill="none" xmlns="http://www.w3.org/2000/svg">
<path fill-rule="evenodd" clip-rule="evenodd" d="M13.9523 18.8494C13.967 18.9164 14.0864 19.0024 14.1514 19.1155C14.0885 19.0757 14.0278 19.017 13.967 18.9646C13.6946 18.7383 11.6768 17.0369 11.5301 16.9468C10.8806 16.5424 10.5348 16.9301 10.12 17.2632C9.9272 17.4162 7.93663 19.0966 7.88844 19.1113C7.90939 19.0925 7.93244 19.0568 7.96178 19.0233C8.21531 18.7404 8.57361 18.2962 8.82715 17.9945L9.45366 17.2527C9.55633 17.1228 9.66528 17.0097 9.76796 16.8819C9.9272 16.6849 10.2478 16.3853 10.2436 15.9934C10.2394 15.5828 9.92511 15.325 9.76167 15.1113C9.66319 14.9814 9.55214 14.8662 9.44737 14.7383L8.50656 13.6257C8.3997 13.5021 8.30122 13.3701 8.19436 13.2527C8.13988 13.192 8.0875 13.1228 8.03721 13.0663C8.00159 13.0265 7.90939 12.9049 7.87587 12.8882C7.96178 12.9049 9.2106 13.984 9.37194 14.1139L10.12 14.7383C10.3232 14.8997 10.6124 15.2182 11.0084 15.2266C11.3646 15.2328 11.66 14.9709 11.9115 14.7509L12.6574 14.1265C12.9131 13.9233 13.1498 13.7095 13.4055 13.5021L14.1514 12.884C14.1074 12.9678 13.9356 13.1459 13.8664 13.2339C13.7721 13.3575 13.6674 13.4686 13.5668 13.5901C13.3656 13.8269 13.1687 14.0636 12.9675 14.3025C12.8628 14.4261 12.7685 14.5309 12.6679 14.6566C12.5652 14.7823 12.4688 14.885 12.3662 15.0107C12.1608 15.2664 11.9262 15.4801 11.834 15.7881C11.6768 16.3077 12.1357 16.7017 12.4395 17.0788L13.043 17.7871C13.0933 17.8478 13.1352 17.9023 13.1917 17.9652L13.9 18.8075C13.9272 18.8347 13.923 18.8305 13.9523 18.8494ZM16.0162 12.8651C16.0079 12.731 15.9094 12.6032 15.8402 12.5173C15.6328 12.2617 15.2724 12.1192 14.933 12.2302C14.8596 12.2533 14.8051 12.2826 14.7339 12.2994C14.9455 11.9013 14.8596 11.5367 14.5516 11.2307C14.1996 10.8808 13.7994 10.994 13.4432 11.1721C13.1435 11.3229 12.6993 11.5115 12.3746 11.5932C11.8319 11.7294 11.6077 11.7483 11.0231 11.7483C10.0613 11.7483 9.45994 11.5995 8.60504 11.1721C8.18179 10.9605 7.88006 10.906 7.49452 11.2287C7.22003 11.4591 7.12574 11.8384 7.25565 12.1778C7.27451 12.226 7.30175 12.2596 7.31432 12.314C7.15507 12.2302 6.94763 12.159 6.70457 12.2114C6.52018 12.2491 6.33999 12.3622 6.22893 12.4817C6.0194 12.7101 5.93978 13.0202 6.04873 13.324C6.20798 13.764 6.38608 13.9149 6.59352 14.6441C6.80515 15.3921 6.80725 16.534 6.59981 17.3324C6.54114 17.5566 6.39237 17.9379 6.29598 18.1475C6.15979 18.4408 6.00054 18.6587 6.00264 18.9856C6.00473 19.4508 6.49085 19.8866 7.03145 19.7902C7.15926 19.7671 7.22422 19.7211 7.32898 19.6854C7.10269 20.0039 7.17812 20.5047 7.48614 20.7645C8.06864 21.2569 8.4458 20.8651 9.10793 20.6011C9.27974 20.5319 9.47461 20.4565 9.66109 20.4104C10.2122 20.2721 10.4196 20.2512 11.0084 20.2512C11.746 20.2512 12.23 20.3161 12.9068 20.5885L13.4327 20.8232C13.6904 20.951 13.9901 21.083 14.3127 20.9322C14.7884 20.708 14.9853 20.1757 14.7339 19.7001C14.9372 19.7483 15.2703 19.9578 15.6894 19.6289C15.9178 19.4487 16.1063 19.1134 16.0393 18.8452C16.0183 18.7656 16.0435 18.8117 15.9995 18.7782C16.0309 18.6964 15.9261 18.5099 15.8905 18.4408C15.5825 17.8248 15.4254 17.412 15.3227 16.6996C15.285 16.4314 15.2996 16.0815 15.2996 15.7839C15.2996 14.9542 15.5217 14.2983 15.8759 13.5901C15.9303 13.4832 15.9806 13.3827 16.0121 13.2653C16.0309 13.2004 16.077 12.9007 16.0162 12.8651Z" fill="#EB1B23"/>
<path fill-rule="evenodd" clip-rule="evenodd" d="M29.0681 15.7693L29.6485 15.8279C31.0859 16.027 31.9135 16.752 31.9135 18.2271C31.9135 18.5351 31.8549 18.8746 31.7669 19.0925C31.2786 20.2952 30.0906 20.1003 29.0681 20.1024C28.8627 20.1024 28.6658 20.0898 28.5254 20.0186C28.3536 19.9327 28.3661 19.7944 28.3661 19.5513C28.3661 19.3439 28.3661 19.1344 28.3661 18.9269C28.3661 18.7132 28.3808 18.5393 28.3808 18.3151C28.3808 18.1077 28.3829 17.8981 28.3808 17.6907C28.3808 17.5692 28.3976 17.5126 28.3976 17.3931C28.3934 16.6786 28.4269 15.9495 28.4269 15.2329L28.4416 14.3088C28.4416 14.2061 28.4562 14.1328 28.4562 14.0113C28.4562 13.5859 28.473 13.2046 28.4709 12.775C28.4709 12.6556 28.4877 12.599 28.4856 12.4775C28.4856 12.3748 28.4856 12.268 28.4856 12.1653C28.4877 11.9264 28.5924 11.8824 28.8292 11.8824C29.3153 11.8824 29.9209 11.8447 30.3483 12.0165C30.9476 12.2554 31.2304 12.6849 31.3373 13.3366C31.4127 13.8059 31.3855 14.2208 31.1676 14.6378C31.067 14.8326 30.9099 15.0108 30.7359 15.1449C30.3776 15.4172 29.9439 15.5744 29.4934 15.6435C29.1393 15.698 29.0702 15.6394 29.0681 15.7693ZM26.1032 11.6142C26.1032 11.6708 26.166 11.6624 26.2205 11.6729C26.6123 11.7588 26.6982 12.1129 26.6982 12.5068C26.6982 13.2171 26.6982 13.9275 26.6982 14.6378C26.6982 15.9578 26.6752 17.2863 26.6836 18.6147C26.6836 18.7216 26.6668 18.7635 26.6689 18.8662C26.671 19.3963 26.7695 20.0982 26.2268 20.2868C26.1451 20.3161 26.0969 20.3224 26.0131 20.3413V20.4461H31.2724C31.6202 20.4461 31.9952 20.3601 32.253 20.2638C32.6071 20.1338 32.7244 20.0312 32.9884 19.8216C33.1561 19.6896 33.374 19.3334 33.4557 19.1281C33.7008 18.5246 33.7092 17.7871 33.4222 17.1941C33.0848 16.4901 32.5296 16.1192 31.8381 15.8426C31.7564 15.8112 31.4735 15.7127 31.3771 15.7106V15.6792C31.4274 15.6687 31.4756 15.6373 31.5343 15.6142C31.8297 15.4927 32.2634 15.1721 32.4897 14.9458C32.5379 14.8997 32.5526 14.8746 32.5945 14.8285L32.7936 14.5644C32.9004 14.3842 32.9507 14.29 33.0094 14.0804C33.1791 13.4853 33.0241 12.7038 32.6238 12.2721C32.3452 11.9704 31.9848 11.7797 31.5804 11.6792C31.2849 11.6079 30.9602 11.5555 30.6018 11.5555H26.1032V11.6142Z" fill="#0C0E19"/>
<path fill-rule="evenodd" clip-rule="evenodd" d="M20.9466 20.1171C20.6113 20.1171 19.9659 20.1401 19.792 19.8866C19.6558 19.6854 19.7459 18.885 19.704 18.6043C19.6663 18.3612 19.7103 14.2439 19.7103 13.6844C19.7103 13.4497 19.7208 12.3769 19.7501 12.1758C19.7941 11.8719 19.8675 11.8971 20.2321 11.8971C21.8245 11.8971 22.912 12.2533 23.6244 13.6739C23.8842 14.1957 23.9974 14.7069 24.0938 15.2748C24.1692 15.7232 24.1797 16.1171 24.1797 16.5739C24.1797 17.4686 23.8905 18.4471 23.3688 19.1428C23.1341 19.4571 22.8261 19.7483 22.4133 19.8845C21.9817 20.027 21.5123 20.1171 20.9466 20.1171ZM17.4306 11.6582C17.6778 11.6792 17.9167 11.8552 17.99 12.1108C18.0236 12.2219 18.0424 12.6619 18.0403 12.8211C18.0403 12.9217 18.0571 12.9573 18.0571 13.0579C18.055 13.4015 18.0718 13.7054 18.0718 14.0574C18.0718 14.2334 18.0864 14.3633 18.0864 14.5477L18.0487 19.2308C18.0299 19.3544 18.0361 19.5262 18.0257 19.654C18.0173 19.7755 18.0089 19.9495 17.9523 20.0291C17.8958 20.1108 17.8015 20.1779 17.7072 20.2302C17.638 20.268 17.4599 20.3329 17.3719 20.3413V20.4461H22.1535C22.472 20.4461 22.8009 20.3727 23.0461 20.2952C23.1676 20.2554 23.3101 20.2072 23.4253 20.1527C23.5532 20.0898 23.6642 20.0417 23.7816 19.9725C23.9513 19.8677 24.0896 19.786 24.2425 19.6603C24.7454 19.2454 25.1309 18.8012 25.4222 18.2166C25.6338 17.7913 25.7994 17.2779 25.8685 16.8002C25.8874 16.6682 25.9146 16.4838 25.923 16.335C25.9272 16.2512 25.9167 16.1527 25.9251 16.0689C25.9397 15.9537 25.9083 15.4277 25.8957 15.3355C25.7847 14.4513 25.5395 13.785 24.9927 13.0956C24.6155 12.6179 24.0435 12.203 23.4945 11.9558C23.2451 11.8447 23.0084 11.7567 22.7108 11.6834C22.4447 11.6163 22.1032 11.5555 21.7805 11.5555H17.4306V11.6582Z" fill="#0C0E19"/>
<path fill-rule="evenodd" clip-rule="evenodd" d="M33.9398 13.9966C33.9398 14.4617 34.1095 14.9039 34.3567 15.2328C34.5914 15.545 34.9036 15.8132 35.2556 15.9871C35.6957 16.2072 36.0037 16.3035 36.4709 16.4418C36.9696 16.5885 37.77 16.7289 38.1409 16.9908C38.231 17.0537 38.3609 17.171 38.4238 17.259C38.6752 17.611 38.7066 17.8562 38.7066 18.3004C38.7066 18.5686 38.604 18.9122 38.5139 19.0903C38.3986 19.3187 38.2729 19.501 38.0801 19.654C37.9209 19.7797 37.9523 19.7525 37.7868 19.853C37.4159 20.0772 36.8732 20.1317 36.4123 20.1317C35.6579 20.1317 35.1551 19.9201 34.6564 19.5492C34.3127 19.2957 34.2394 19.1134 34.1325 18.6587C34.0676 18.6566 34.0864 18.6482 34.0278 18.644C34.0278 18.9374 34.0382 19.2454 34.0299 19.5366L34.0131 19.9683C34.0131 20.1066 33.9838 20.3706 34.0592 20.3706C34.231 20.3706 34.1074 20.1632 34.4154 20.1632L34.9434 20.291C35.2829 20.3748 35.6894 20.4439 36.0477 20.4963C36.7768 20.6011 37.7637 20.5634 38.4259 20.358C39.7878 19.9369 40.4353 19.1029 40.4353 17.6907C40.4353 16.3601 39.5783 15.5911 38.3882 15.2538C37.8371 15.0987 37.1812 15.0065 36.626 14.7823C36.2383 14.6273 35.8654 14.4198 35.7208 14.0029C35.4903 13.3407 35.7397 12.6011 36.2928 12.2093C37.2441 11.5387 39.3164 11.7839 39.7417 13.039C39.7857 13.171 39.748 13.1773 39.8842 13.1773C39.8842 12.8881 39.8696 12.6325 39.8696 12.358C39.8696 12.226 39.8758 12.0731 39.8696 11.9411C39.8654 11.8698 39.8528 11.8405 39.8549 11.7483C39.8549 11.7001 39.8717 11.5702 39.8256 11.5702C39.7376 11.5702 39.7292 11.633 39.6558 11.6687C39.4463 11.7776 39.1634 11.6812 38.9769 11.6435C38.7569 11.5995 38.296 11.5199 38.0676 11.5094C37.8015 11.4989 37.6548 11.4654 37.3363 11.4654C37.2357 11.4654 37.175 11.457 37.0974 11.4507L36.6071 11.4801C36.3766 11.4906 35.9513 11.5765 35.7292 11.6456C35.1823 11.8195 34.7926 12.05 34.4636 12.4523C34.1367 12.8504 33.9398 13.4497 33.9398 13.9966Z" fill="#0C0E19"/>
<path fill-rule="evenodd" clip-rule="evenodd" d="M13.9523 18.8494C13.923 18.8305 13.9272 18.8347 13.8999 18.8075L13.1917 17.9652C13.1351 17.9023 13.0932 17.8478 13.043 17.7871L12.4395 17.0788C12.1357 16.7017 11.6768 16.3078 11.8339 15.7881C11.9261 15.4801 12.1608 15.2664 12.3662 15.0107C12.4688 14.885 12.5652 14.7823 12.6679 14.6566C12.7685 14.5309 12.8628 14.4261 12.9675 14.3025C13.1687 14.0636 13.3656 13.8269 13.5668 13.5901C13.6674 13.4686 13.7721 13.3575 13.8664 13.2339C13.9356 13.1459 14.1074 12.9678 14.1514 12.884L13.4054 13.5021C13.1498 13.7095 12.913 13.9233 12.6574 14.1265L11.9115 14.7509C11.66 14.9709 11.3646 15.2328 11.0084 15.2266C10.6124 15.2182 10.3232 14.8997 10.12 14.7383L9.37192 14.1139C9.21058 13.984 7.96176 12.9049 7.87585 12.8882C7.90938 12.9049 8.00157 13.0265 8.0372 13.0663C8.08748 13.1228 8.13987 13.192 8.19435 13.2528C8.30121 13.3701 8.39969 13.5021 8.50655 13.6257L9.44736 14.7383C9.55212 14.8662 9.66318 14.9814 9.76166 15.1113C9.92509 15.325 10.2394 15.5828 10.2436 15.9935C10.2478 16.3853 9.92719 16.6849 9.76794 16.8819C9.66527 17.0097 9.55631 17.1228 9.45364 17.2527L8.82714 17.9945C8.5736 18.2962 8.2153 18.7404 7.96176 19.0233C7.93243 19.0568 7.90938 19.0925 7.88843 19.1113C7.93662 19.0966 9.92719 17.4162 10.12 17.2632C10.5348 16.9301 10.8806 16.5424 11.5301 16.9468C11.6768 17.0369 13.6946 18.7383 13.967 18.9646C14.0278 19.017 14.0885 19.0757 14.1514 19.1155C14.0864 19.0024 13.967 18.9164 13.9523 18.8494Z" fill="#FEFEFE"/>
</svg>
