<svg width="58" height="40" viewBox="0 0 58 40" fill="none" xmlns="http://www.w3.org/2000/svg">
<path fill-rule="evenodd" clip-rule="evenodd" d="M17.5428 23.4193C17.5604 23.4997 17.7037 23.6028 17.7817 23.7386C17.7062 23.6908 17.6333 23.6204 17.5604 23.5576C17.2335 23.286 14.8122 21.2443 14.6362 21.1362C13.8567 20.6509 13.4418 21.1161 12.944 21.5159C12.7126 21.6994 10.324 23.716 10.2661 23.7336C10.2913 23.7109 10.3189 23.6682 10.3541 23.628C10.6584 23.2885 11.0883 22.7555 11.3926 22.3934L12.1444 21.5033C12.2676 21.3474 12.3983 21.2116 12.5215 21.0582C12.7126 20.8219 13.0973 20.4623 13.0923 19.9921C13.0873 19.4993 12.7101 19.19 12.514 18.9336C12.3958 18.7777 12.2626 18.6394 12.1368 18.486L11.0079 17.1509C10.8796 17.0025 10.7615 16.8441 10.6332 16.7033C10.5679 16.6304 10.505 16.5474 10.4447 16.4795C10.4019 16.4317 10.2913 16.2859 10.251 16.2658C10.3541 16.2859 11.8527 17.5808 12.0463 17.7367L12.944 18.486C13.1879 18.6796 13.5349 19.0618 14.0101 19.0719C14.4375 19.0794 14.7921 18.7651 15.0938 18.5011L15.9889 17.7518C16.2957 17.5079 16.5798 17.2514 16.8866 17.0025L17.7817 16.2608C17.7289 16.3613 17.5227 16.5751 17.4397 16.6807C17.3266 16.829 17.2009 16.9623 17.0802 17.1081C16.8388 17.3922 16.6024 17.6764 16.361 17.963C16.2353 18.1114 16.1222 18.2371 16.0015 18.3879C15.8783 18.5388 15.7626 18.662 15.6394 18.8129C15.393 19.1196 15.1114 19.3761 15.0007 19.7457C14.8122 20.3693 15.3628 20.842 15.7274 21.2946L16.4516 22.1445C16.5119 22.2174 16.5622 22.2828 16.6301 22.3582L17.48 23.369C17.5126 23.4017 17.5076 23.3966 17.5428 23.4193ZM20.0195 16.2381C20.0094 16.0772 19.8913 15.9238 19.8083 15.8207C19.5594 15.514 19.1269 15.343 18.7196 15.4763C18.6315 15.5039 18.5662 15.5391 18.4807 15.5592C18.7346 15.0815 18.6315 14.644 18.2619 14.2769C17.8395 13.857 17.3593 13.9928 16.9318 14.2065C16.5723 14.3875 16.0392 14.6138 15.6495 14.7119C14.9982 14.8753 14.7292 14.898 14.0277 14.898C12.8736 14.898 12.1519 14.7194 11.1261 14.2065C10.6181 13.9525 10.2561 13.8872 9.79342 14.2744C9.46403 14.551 9.35088 15.0061 9.50678 15.4134C9.52941 15.4712 9.56209 15.5115 9.57718 15.5768C9.38609 15.4763 9.13716 15.3908 8.84549 15.4536C8.62422 15.4989 8.40798 15.6347 8.27472 15.778C8.02328 16.0521 7.92773 16.4242 8.05848 16.7888C8.24958 17.3168 8.4633 17.4979 8.71223 18.3729C8.96618 19.2705 8.9687 20.6409 8.71977 21.5988C8.64937 21.8679 8.47084 22.3255 8.35518 22.5769C8.19174 22.929 8.00065 23.1905 8.00316 23.5827C8.00568 24.1409 8.58902 24.6639 9.23774 24.5482C9.39112 24.5206 9.46906 24.4653 9.59478 24.4225C9.32323 24.8047 9.41374 25.4057 9.78336 25.7174C10.4824 26.3083 10.935 25.8381 11.7295 25.5213C11.9357 25.4383 12.1695 25.3478 12.3933 25.2925C13.0546 25.1266 13.3035 25.1014 14.0101 25.1014C14.8951 25.1014 15.476 25.1794 16.2881 25.5062L16.9192 25.7878C17.2285 25.9412 17.5881 26.0996 17.9753 25.9186C18.5461 25.6495 18.7824 25.0109 18.4807 24.4401C18.7246 24.498 19.1244 24.7494 19.6273 24.3546C19.9013 24.1384 20.1276 23.7361 20.0472 23.4142C20.022 23.3187 20.0522 23.374 19.9994 23.3338C20.0371 23.2357 19.9114 23.0119 19.8686 22.929C19.499 22.1897 19.3104 21.6944 19.1872 20.8395C19.142 20.5176 19.1596 20.0977 19.1596 19.7407C19.1596 18.745 19.4261 17.958 19.851 17.1081C19.9164 16.9799 19.9768 16.8592 20.0145 16.7184C20.0371 16.6404 20.0924 16.2809 20.0195 16.2381Z" fill="#EB1B23"/>
<path fill-rule="evenodd" clip-rule="evenodd" d="M35.6817 19.7231L36.3782 19.7935C38.1031 20.0324 39.0962 20.9023 39.0962 22.6725C39.0962 23.0421 39.0258 23.4494 38.9202 23.7109C38.3344 25.1542 36.9087 24.9204 35.6817 24.9229C35.4353 24.9229 35.1989 24.9078 35.0305 24.8223C34.8243 24.7192 34.8394 24.5533 34.8394 24.2616C34.8394 24.0127 34.8394 23.7612 34.8394 23.5123C34.8394 23.2558 34.857 23.0471 34.857 22.7781C34.857 22.5292 34.8595 22.2777 34.857 22.0288C34.857 21.883 34.8771 21.8151 34.8771 21.6718C34.872 20.8143 34.9123 19.9393 34.9123 19.0794L34.9299 17.9706C34.9299 17.8473 34.9475 17.7593 34.9475 17.6135C34.9475 17.1031 34.9676 16.6455 34.9651 16.13C34.9651 15.9867 34.9852 15.9188 34.9827 15.773C34.9827 15.6498 34.9827 15.5215 34.9827 15.3983C34.9852 15.1117 35.1109 15.0589 35.395 15.0589C35.9784 15.0589 36.705 15.0136 37.218 15.2198C37.9371 15.5064 38.2766 16.0219 38.4048 16.8039C38.4953 17.3671 38.4626 17.8649 38.2011 18.3653C38.0804 18.5992 37.8918 18.8129 37.6832 18.9738C37.2532 19.3007 36.7327 19.4893 36.1921 19.5722C35.7672 19.6376 35.6842 19.5672 35.6817 19.7231ZM32.1238 14.737C32.1238 14.8049 32.1992 14.7949 32.2646 14.8074C32.7348 14.9105 32.8379 15.3355 32.8379 15.8082C32.8379 16.6605 32.8379 17.5129 32.8379 18.3653C32.8379 19.9494 32.8102 21.5435 32.8203 23.1377C32.8203 23.2659 32.8002 23.3162 32.8027 23.4394C32.8052 24.0755 32.9234 24.9179 32.2722 25.1441C32.1741 25.1793 32.1163 25.1869 32.0157 25.2095V25.3352H38.3268C38.7442 25.3352 39.1943 25.2322 39.5036 25.1165C39.9285 24.9606 40.0693 24.8374 40.3861 24.5859C40.5873 24.4275 40.8488 24.0001 40.9468 23.7537C41.241 23.0295 41.2511 22.1445 40.9066 21.4329C40.5018 20.588 39.8355 20.143 39.0057 19.8111C38.9077 19.7734 38.5682 19.6552 38.4526 19.6527V19.615C38.5129 19.6024 38.5707 19.5647 38.6411 19.537C38.9957 19.3912 39.5162 19.0065 39.7877 18.7349C39.8455 18.6796 39.8631 18.6494 39.9134 18.5941L40.1523 18.2773C40.2805 18.0611 40.3409 17.9479 40.4113 17.6965C40.6149 16.9824 40.4289 16.0445 39.9486 15.5266C39.6142 15.1645 39.1817 14.9357 38.6965 14.815C38.3419 14.7295 37.9522 14.6666 37.5222 14.6666H32.1238V14.737Z" fill="#0C0E19"/>
<path fill-rule="evenodd" clip-rule="evenodd" d="M25.9359 24.9405C25.5336 24.9405 24.7591 24.9681 24.5504 24.6639C24.387 24.4225 24.4951 23.462 24.4448 23.1251C24.3996 22.8334 24.4524 17.8926 24.4524 17.2213C24.4524 16.9396 24.4649 15.6523 24.5001 15.4109C24.553 15.0463 24.641 15.0765 25.0785 15.0765C26.9894 15.0765 28.2944 15.5039 29.1493 17.2087C29.4611 17.8348 29.5968 18.4483 29.7125 19.1297C29.803 19.6678 29.8156 20.1405 29.8156 20.6886C29.8156 21.7623 29.4686 22.9365 28.8425 23.7713C28.5609 24.1484 28.1913 24.4979 27.696 24.6614C27.178 24.8324 26.6148 24.9405 25.9359 24.9405ZM21.7167 14.7898C22.0134 14.815 22.3 15.0262 22.3881 15.3329C22.4283 15.4662 22.4509 15.9942 22.4484 16.1853C22.4484 16.306 22.4685 16.3488 22.4685 16.4695C22.466 16.8818 22.4861 17.2464 22.4861 17.6688C22.4861 17.88 22.5037 18.0359 22.5037 18.2572L22.4585 23.8769C22.4358 24.0252 22.4434 24.2314 22.4308 24.3848C22.4207 24.5306 22.4107 24.7393 22.3428 24.8349C22.2749 24.9329 22.1618 25.0134 22.0486 25.0763C21.9656 25.1215 21.7519 25.1995 21.6463 25.2095V25.3352H27.3842C27.7664 25.3352 28.1611 25.2472 28.4553 25.1542C28.6011 25.1064 28.7721 25.0486 28.9104 24.9832C29.0638 24.9078 29.1971 24.85 29.3379 24.767C29.5415 24.6413 29.7075 24.5432 29.891 24.3923C30.4945 23.8945 30.9571 23.3614 31.3066 22.6599C31.5606 22.1495 31.7592 21.5335 31.8422 20.9602C31.8648 20.8018 31.8975 20.5805 31.9076 20.402C31.9126 20.3014 31.9 20.1832 31.9101 20.0827C31.9277 19.9444 31.89 19.3132 31.8749 19.2026C31.7416 18.1415 31.4474 17.342 30.7912 16.5147C30.3386 15.9414 29.6522 15.4436 28.9934 15.1469C28.6942 15.0136 28.41 14.908 28.053 14.82C27.7337 14.7395 27.3238 14.6666 26.9366 14.6666H21.7167V14.7898Z" fill="#0C0E19"/>
<path fill-rule="evenodd" clip-rule="evenodd" d="M41.5277 17.5959C41.5277 18.1541 41.7314 18.6846 42.0281 19.0794C42.3097 19.454 42.6843 19.7759 43.1068 19.9846C43.6348 20.2486 44.0044 20.3643 44.5651 20.5302C45.1635 20.7062 46.124 20.8747 46.5691 21.189C46.6772 21.2644 46.8331 21.4052 46.9085 21.5108C47.2103 21.9332 47.248 22.2274 47.248 22.7605C47.248 23.0823 47.1248 23.4947 47.0167 23.7084C46.8784 23.9825 46.7275 24.2012 46.4962 24.3848C46.3051 24.5356 46.3428 24.503 46.1442 24.6237C45.6991 24.8927 45.0479 24.9581 44.4947 24.9581C43.5895 24.9581 42.9861 24.7041 42.3876 24.2591C41.9753 23.9548 41.8873 23.7361 41.759 23.1904C41.6811 23.1879 41.7037 23.1779 41.6333 23.1728C41.6333 23.5249 41.6459 23.8945 41.6358 24.244L41.6157 24.7619C41.6157 24.9279 41.5805 25.2447 41.671 25.2447C41.8772 25.2447 41.7289 24.9958 42.0985 24.9958L42.7321 25.1492C43.1394 25.2497 43.6272 25.3327 44.0572 25.3956C44.9322 25.5213 46.1165 25.476 46.911 25.2296C48.5454 24.7242 49.3224 23.7235 49.3224 22.0288C49.3224 20.4321 48.294 19.5094 46.8658 19.1045C46.2045 18.9185 45.4175 18.8078 44.7512 18.5388C44.286 18.3527 43.8384 18.1038 43.665 17.6034C43.3884 16.8089 43.6876 15.9213 44.3514 15.4511C45.4929 14.6465 47.9797 14.9407 48.4901 16.4468C48.5429 16.6052 48.4976 16.6128 48.6611 16.6128C48.6611 16.2658 48.6435 15.959 48.6435 15.6296C48.6435 15.4712 48.651 15.2877 48.6435 15.1293C48.6384 15.0438 48.6234 15.0086 48.6259 14.8979C48.6259 14.8401 48.646 14.6842 48.5907 14.6842C48.4851 14.6842 48.475 14.7596 48.387 14.8024C48.1356 14.9331 47.7961 14.8175 47.5723 14.7722C47.3083 14.7194 46.7552 14.6239 46.4811 14.6113C46.1618 14.5987 45.9857 14.5585 45.6036 14.5585C45.4829 14.5585 45.4099 14.5484 45.3169 14.5409L44.7285 14.5761C44.452 14.5887 43.9415 14.6918 43.675 14.7747C43.0188 14.9834 42.5511 15.26 42.1563 15.7428C41.7641 16.2205 41.5277 16.9396 41.5277 17.5959Z" fill="#0C0E19"/>
<path fill-rule="evenodd" clip-rule="evenodd" d="M17.5428 23.4192C17.5076 23.3966 17.5126 23.4016 17.4799 23.369L16.6301 22.3582C16.5622 22.2827 16.5119 22.2174 16.4516 22.1444L15.7274 21.2946C15.3628 20.842 14.8122 20.3693 15.0007 19.7457C15.1114 19.3761 15.393 19.1196 15.6394 18.8129C15.7626 18.662 15.8783 18.5388 16.0015 18.3879C16.1222 18.2371 16.2353 18.1113 16.361 17.963C16.6024 17.6764 16.8388 17.3922 17.0802 17.1081C17.2008 16.9623 17.3266 16.829 17.4397 16.6806C17.5227 16.575 17.7289 16.3613 17.7817 16.2607L16.8865 17.0025C16.5798 17.2514 16.2957 17.5079 15.9889 17.7518L15.0938 18.5011C14.7921 18.7651 14.4375 19.0794 14.0101 19.0718C13.5348 19.0618 13.1879 18.6796 12.944 18.486L12.0463 17.7367C11.8527 17.5808 10.3541 16.2859 10.251 16.2658C10.2913 16.2859 10.4019 16.4317 10.4446 16.4795C10.505 16.5474 10.5679 16.6304 10.6332 16.7033C10.7615 16.8441 10.8796 17.0025 11.0079 17.1508L12.1368 18.486C12.2626 18.6394 12.3958 18.7777 12.514 18.9336C12.7101 19.19 13.0873 19.4993 13.0923 19.9921C13.0973 20.4623 12.7126 20.8219 12.5215 21.0582C12.3983 21.2116 12.2676 21.3474 12.1444 21.5033L11.3926 22.3934C11.0883 22.7554 10.6584 23.2885 10.3541 23.6279C10.3189 23.6682 10.2913 23.7109 10.2661 23.7336C10.324 23.7159 12.7126 21.6994 12.944 21.5158C13.4418 21.1161 13.8567 20.6509 14.6362 21.1362C14.8122 21.2443 17.2335 23.286 17.5604 23.5575C17.6333 23.6204 17.7062 23.6908 17.7817 23.7386C17.7037 23.6028 17.5604 23.4997 17.5428 23.4192Z" fill="#FEFEFE"/>
</svg>
