<svg width="28" height="20" viewBox="0 0 28 20" fill="none" xmlns="http://www.w3.org/2000/svg">
<path fill-rule="evenodd" clip-rule="evenodd" d="M8.77141 11.7096C8.78021 11.7499 8.85187 11.8014 8.89084 11.8693C8.85312 11.8454 8.81667 11.8102 8.78021 11.7788C8.61677 11.643 7.40608 10.6222 7.31808 10.5681C6.92835 10.3255 6.72091 10.558 6.47198 10.7579C6.35632 10.8497 5.16198 11.858 5.13306 11.8668C5.14564 11.8555 5.15946 11.8341 5.17707 11.814C5.32919 11.6443 5.54417 11.3777 5.69629 11.1967L6.07219 10.7516C6.1338 10.6737 6.19917 10.6058 6.26077 10.5291C6.35632 10.4109 6.54867 10.2312 6.54616 9.99607C6.54364 9.74966 6.35506 9.59502 6.257 9.46679C6.19791 9.38884 6.13128 9.31969 6.06842 9.24301L5.50394 8.57543C5.43982 8.50126 5.38073 8.42205 5.31662 8.35165C5.28393 8.31519 5.2525 8.2737 5.22233 8.23976C5.20095 8.21587 5.14564 8.14295 5.12552 8.1329C5.17707 8.14295 5.92636 8.79041 6.02316 8.86836L6.47198 9.24301C6.59393 9.33981 6.76743 9.5309 7.00504 9.53593C7.21876 9.53971 7.39603 9.38256 7.54689 9.25055L7.99446 8.8759C8.14783 8.75395 8.2899 8.62572 8.44328 8.50126L8.89084 8.13038C8.86444 8.18067 8.76135 8.28753 8.71986 8.34033C8.66329 8.41451 8.60043 8.48114 8.54008 8.55406C8.41939 8.69612 8.30121 8.83819 8.18052 8.98151C8.11766 9.05568 8.06109 9.11854 8.00074 9.19397C7.93914 9.26941 7.88131 9.33101 7.8197 9.40644C7.6965 9.55982 7.55569 9.68806 7.50037 9.87286C7.40608 10.1846 7.68141 10.421 7.86371 10.6473L8.22578 11.0722C8.25595 11.1087 8.2811 11.1414 8.31504 11.1791L8.73998 11.6845C8.75632 11.7008 8.75381 11.6983 8.77141 11.7096ZM10.0097 8.11907C10.0047 8.03861 9.94563 7.96192 9.90414 7.91037C9.77968 7.75699 9.56344 7.6715 9.35978 7.73814C9.31577 7.75196 9.28309 7.76957 9.24034 7.77962C9.36732 7.54075 9.31577 7.322 9.13097 7.13845C8.91976 6.9285 8.67963 6.99639 8.46591 7.10325C8.28613 7.19377 8.0196 7.30691 7.82473 7.35595C7.49912 7.43766 7.3646 7.44898 7.01384 7.44898C6.43678 7.44898 6.07597 7.35972 5.56303 7.10325C5.30907 6.97627 5.12803 6.94358 4.89671 7.13719C4.73202 7.27548 4.67544 7.50304 4.75339 7.70671C4.7647 7.73562 4.78105 7.75574 4.78859 7.78842C4.69304 7.73814 4.56858 7.69539 4.42274 7.72682C4.31211 7.74945 4.20399 7.81734 4.13736 7.889C4.01164 8.02603 3.96387 8.2121 4.02924 8.39439C4.12479 8.65841 4.23165 8.74893 4.35611 9.18643C4.48309 9.63525 4.48435 10.3204 4.35988 10.7994C4.32468 10.9339 4.23542 11.1628 4.17759 11.2885C4.09587 11.4645 4.00032 11.5952 4.00158 11.7914C4.00284 12.0705 4.29451 12.332 4.61887 12.2741C4.69556 12.2603 4.73453 12.2326 4.79739 12.2113C4.66161 12.4024 4.70687 12.7028 4.89168 12.8587C5.24118 13.1542 5.46748 12.9191 5.86476 12.7607C5.96785 12.7192 6.08477 12.6739 6.19666 12.6463C6.5273 12.5633 6.65176 12.5507 7.00504 12.5507C7.44757 12.5507 7.73799 12.5897 8.14406 12.7531L8.45962 12.8939C8.61426 12.9706 8.79404 13.0498 8.98764 12.9593C9.27303 12.8248 9.39121 12.5054 9.24034 12.2201C9.36229 12.249 9.56219 12.3747 9.81363 12.1773C9.95066 12.0692 10.0638 11.868 10.0236 11.7071C10.011 11.6593 10.0261 11.687 9.99969 11.6669C10.0185 11.6179 9.95569 11.506 9.93432 11.4645C9.74951 11.0949 9.65522 10.8472 9.59362 10.4197C9.57099 10.2588 9.57979 10.0489 9.57979 9.87035C9.57979 9.3725 9.71305 8.97899 9.92552 8.55406C9.9582 8.48994 9.98838 8.4296 10.0072 8.35919C10.0185 8.32022 10.0462 8.14044 10.0097 8.11907Z" fill="#EB1B23"/>
<path fill-rule="evenodd" clip-rule="evenodd" d="M17.8408 9.86155L18.1891 9.89675C19.0515 10.0162 19.5481 10.4512 19.5481 11.3362C19.5481 11.5211 19.5129 11.7247 19.4601 11.8555C19.1672 12.5771 18.4544 12.4602 17.8408 12.4614C17.7176 12.4614 17.5995 12.4539 17.5152 12.4112C17.4121 12.3596 17.4197 12.2766 17.4197 12.1308C17.4197 12.0063 17.4197 11.8806 17.4197 11.7561C17.4197 11.6279 17.4285 11.5236 17.4285 11.389C17.4285 11.2646 17.4297 11.1389 17.4285 11.0144C17.4285 10.9415 17.4385 10.9075 17.4385 10.8359C17.436 10.4072 17.4561 9.96967 17.4561 9.5397L17.4649 8.98528C17.4649 8.92367 17.4737 8.87967 17.4737 8.80675C17.4737 8.55154 17.4838 8.32273 17.4825 8.065C17.4825 7.99334 17.4926 7.9594 17.4913 7.88648C17.4913 7.82488 17.4913 7.76076 17.4913 7.69916C17.4926 7.55584 17.5555 7.52944 17.6975 7.52944C17.9892 7.52944 18.3525 7.50681 18.609 7.6099C18.9686 7.75322 19.1383 8.01094 19.2024 8.40193C19.2477 8.68355 19.2313 8.93247 19.1006 9.18266C19.0402 9.29958 18.9459 9.40644 18.8416 9.4869C18.6266 9.65034 18.3664 9.74463 18.0961 9.78611C17.8836 9.8188 17.8421 9.7836 17.8408 9.86155ZM16.0619 7.36851C16.0619 7.40246 16.0996 7.39743 16.1323 7.40372C16.3674 7.45526 16.4189 7.66773 16.4189 7.90408C16.4189 8.33027 16.4189 8.75647 16.4189 9.18266C16.4189 9.97469 16.4051 10.7718 16.4101 11.5688C16.4101 11.6329 16.4001 11.6581 16.4013 11.7197C16.4026 12.0378 16.4617 12.4589 16.1361 12.5721C16.087 12.5897 16.0581 12.5934 16.0078 12.6048V12.6676H19.1634C19.3721 12.6676 19.5972 12.6161 19.7518 12.5582C19.9643 12.4803 20.0347 12.4187 20.1931 12.293C20.2936 12.2138 20.4244 12 20.4734 11.8768C20.6205 11.5148 20.6255 11.0722 20.4533 10.7164C20.2509 10.294 19.9177 10.0715 19.5029 9.90555C19.4538 9.88669 19.2841 9.8276 19.2263 9.82634V9.80749C19.2565 9.8012 19.2854 9.78234 19.3206 9.76851C19.4978 9.6956 19.7581 9.50324 19.8939 9.36747C19.9228 9.33981 19.9316 9.32472 19.9567 9.29706L20.0761 9.13865C20.1403 9.03054 20.1704 8.97396 20.2056 8.84824C20.3075 8.4912 20.2144 8.02226 19.9743 7.76328C19.8071 7.58224 19.5909 7.46783 19.3482 7.40749C19.171 7.36474 18.9761 7.33331 18.7611 7.33331H16.0619V7.36851Z" fill="#0C0E19"/>
<path fill-rule="evenodd" clip-rule="evenodd" d="M12.9679 12.4702C12.7668 12.4702 12.3796 12.4841 12.2752 12.3319C12.1935 12.2113 12.2476 11.731 12.2224 11.5625C12.1998 11.4167 12.2262 8.9463 12.2262 8.61063C12.2262 8.46982 12.2325 7.82614 12.2501 7.70544C12.2765 7.52315 12.3205 7.53824 12.5392 7.53824C13.4947 7.53824 14.1472 7.75196 14.5746 8.60434C14.7305 8.91739 14.7984 9.22414 14.8563 9.56485C14.9015 9.83389 14.9078 10.0702 14.9078 10.3443C14.9078 10.8811 14.7343 11.4682 14.4213 11.8856C14.2805 12.0742 14.0956 12.249 13.848 12.3307C13.589 12.4162 13.3074 12.4702 12.9679 12.4702ZM10.8584 7.39492C11.0067 7.40749 11.15 7.51309 11.194 7.66647C11.2141 7.7331 11.2255 7.99712 11.2242 8.09266C11.2242 8.15301 11.2343 8.17438 11.2343 8.23473C11.233 8.44091 11.2431 8.6232 11.2431 8.83441C11.2431 8.94002 11.2519 9.01796 11.2519 9.1286L11.2292 11.9384C11.2179 12.0126 11.2217 12.1157 11.2154 12.1924C11.2104 12.2653 11.2053 12.3697 11.1714 12.4174C11.1375 12.4665 11.0809 12.5067 11.0243 12.5381C10.9828 12.5608 10.876 12.5997 10.8232 12.6048V12.6676H13.6921C13.8832 12.6676 14.0806 12.6236 14.2277 12.5771C14.3006 12.5532 14.3861 12.5243 14.4552 12.4916C14.5319 12.4539 14.5985 12.425 14.6689 12.3835C14.7708 12.3206 14.8537 12.2716 14.9455 12.1962C15.2472 11.9472 15.4786 11.6807 15.6533 11.33C15.7803 11.0747 15.8796 10.7667 15.9211 10.4801C15.9324 10.4009 15.9488 10.2903 15.9538 10.201C15.9563 10.1507 15.95 10.0916 15.955 10.0413C15.9638 9.97218 15.945 9.65662 15.9374 9.60131C15.8708 9.07077 15.7237 8.67098 15.3956 8.25736C15.1693 7.97071 14.8261 7.72179 14.4967 7.57344C14.3471 7.50681 14.205 7.454 14.0265 7.41C13.8668 7.36977 13.6619 7.33331 13.4683 7.33331H10.8584V7.39492Z" fill="#0C0E19"/>
<path fill-rule="evenodd" clip-rule="evenodd" d="M20.7639 8.79795C20.7639 9.07705 20.8657 9.34232 21.014 9.5397C21.1548 9.72702 21.3422 9.88794 21.5534 9.99229C21.8174 10.1243 22.0022 10.1821 22.2826 10.2651C22.5818 10.3531 23.062 10.4373 23.2845 10.5945C23.3386 10.6322 23.4166 10.7026 23.4543 10.7554C23.6051 10.9666 23.624 11.1137 23.624 11.3802C23.624 11.5412 23.5624 11.7473 23.5083 11.8542C23.4392 11.9912 23.3637 12.1006 23.2481 12.1924C23.1525 12.2678 23.1714 12.2515 23.0721 12.3118C22.8496 12.4463 22.5239 12.479 22.2474 12.479C21.7948 12.479 21.493 12.3521 21.1938 12.1295C20.9876 11.9774 20.9436 11.868 20.8795 11.5952C20.8405 11.594 20.8519 11.5889 20.8167 11.5864C20.8167 11.7624 20.8229 11.9472 20.8179 12.122L20.8079 12.381C20.8079 12.4639 20.7903 12.6224 20.8355 12.6224C20.9386 12.6224 20.8644 12.4979 21.0492 12.4979L21.3661 12.5746C21.5697 12.6249 21.8136 12.6664 22.0286 12.6978C22.4661 12.7606 23.0582 12.738 23.4555 12.6148C24.2727 12.3621 24.6612 11.8617 24.6612 11.0144C24.6612 10.2161 24.147 9.75468 23.4329 9.55227C23.1023 9.45923 22.7087 9.40392 22.3756 9.2694C22.143 9.17636 21.9192 9.0519 21.8325 8.80172C21.6942 8.40444 21.8438 7.96065 22.1757 7.72555C22.7465 7.32325 23.9898 7.47034 24.245 8.22341C24.2714 8.30261 24.2488 8.30638 24.3305 8.30638C24.3305 8.13289 24.3217 7.97951 24.3217 7.81482C24.3217 7.73561 24.3255 7.64384 24.3217 7.56463C24.3192 7.52189 24.3117 7.50429 24.3129 7.44897C24.3129 7.42005 24.323 7.34211 24.2953 7.34211C24.2425 7.34211 24.2375 7.37982 24.1935 7.4012C24.0678 7.46657 23.8981 7.40874 23.7862 7.38611C23.6542 7.35971 23.3776 7.31193 23.2405 7.30565C23.0809 7.29936 22.9929 7.27925 22.8018 7.27925C22.7414 7.27925 22.705 7.27422 22.6585 7.27045L22.3643 7.28805C22.226 7.29433 21.9708 7.34588 21.8375 7.38737C21.5094 7.49171 21.2755 7.63001 21.0782 7.87139C20.882 8.11026 20.7639 8.46982 20.7639 8.79795Z" fill="#0C0E19"/>
<path fill-rule="evenodd" clip-rule="evenodd" d="M8.7714 11.7096C8.7538 11.6983 8.75632 11.7008 8.73997 11.6845L8.31504 11.1791C8.2811 11.1414 8.25595 11.1087 8.22578 11.0722L7.8637 10.6473C7.68141 10.421 7.40608 10.1846 7.50037 9.87285C7.55569 9.68804 7.6965 9.55981 7.8197 9.40643C7.88131 9.331 7.93914 9.2694 8.00074 9.19396C8.06109 9.11853 8.11766 9.05567 8.18052 8.9815C8.30121 8.83818 8.41939 8.69611 8.54008 8.55405C8.60042 8.48113 8.66329 8.4145 8.71986 8.34032C8.76135 8.28752 8.86444 8.18066 8.89084 8.13037L8.44327 8.50125C8.2899 8.62571 8.14783 8.75394 7.99445 8.87589L7.54689 9.25054C7.39603 9.38254 7.21876 9.53969 7.00504 9.53592C6.76742 9.53089 6.59393 9.3398 6.47198 9.24299L6.02316 8.86835C5.92636 8.7904 5.17706 8.14294 5.12552 8.13289C5.14563 8.14294 5.20095 8.21586 5.22232 8.23975C5.2525 8.27369 5.28393 8.31518 5.31661 8.35164C5.38073 8.42204 5.43982 8.50125 5.50394 8.57542L6.06842 9.24299C6.13128 9.31968 6.19791 9.38883 6.257 9.46678C6.35506 9.59501 6.54364 9.74965 6.54616 9.99606C6.54867 10.2312 6.35632 10.4109 6.26077 10.5291C6.19917 10.6058 6.13379 10.6737 6.07219 10.7516L5.69629 11.1967C5.54417 11.3777 5.32919 11.6443 5.17706 11.814C5.15946 11.8341 5.14563 11.8555 5.13306 11.8668C5.16198 11.858 6.35632 10.8497 6.47198 10.7579C6.72091 10.558 6.92835 10.3254 7.31808 10.5681C7.40608 10.6221 8.61677 11.643 8.7802 11.7788C8.81666 11.8102 8.85312 11.8454 8.89084 11.8693C8.85187 11.8014 8.7802 11.7499 8.7714 11.7096Z" fill="#FEFEFE"/>
</svg>
