<svg width="28" height="20" viewBox="0 0 28 20" fill="none" xmlns="http://www.w3.org/2000/svg">
<path fill-rule="evenodd" clip-rule="evenodd" d="M13.0434 16.0833H15.1814C18.5187 16.0833 21.1781 13.4042 21.2824 10.0946V10.042C21.2302 6.67993 18.5187 3.94821 15.1814 4.00075H12.7827C9.60184 4.10581 7.09887 6.83753 7.20316 10.0946C7.20316 13.3516 9.81042 16.0308 13.0434 16.0833ZM8.24606 10.042C8.24606 7.3103 10.4883 5.05138 13.1999 5.05138C15.9114 5.05138 18.1537 7.3103 18.1537 10.042C18.1537 12.7737 15.9114 15.0326 13.1999 15.0326C10.4883 15.0326 8.24606 12.7737 8.24606 10.042ZM13.982 13.4041V6.73244C15.8071 7.20524 16.9543 9.04389 16.485 10.8825C16.1721 12.1433 15.2335 13.0889 13.982 13.4041ZM9.96685 9.20149C9.49755 11.0401 10.5926 12.9313 12.4177 13.4041V6.73244C11.2183 7.04764 10.2797 7.99323 9.96685 9.20149Z" fill="#0079BE"/>
</svg>
