<svg width="46" height="32" viewBox="0 0 46 32" fill="none" xmlns="http://www.w3.org/2000/svg">
<path fill-rule="evenodd" clip-rule="evenodd" d="M21.1179 25.7333H24.5793C29.9826 25.7333 34.2883 21.4466 34.4571 16.1513V16.0672C34.3727 10.6878 29.9826 6.3171 24.5793 6.40116H20.6958C15.5458 6.56926 11.4934 10.94 11.6622 16.1513C11.6622 21.3626 15.8835 25.6492 21.1179 25.7333ZM13.3507 16.0672C13.3507 11.6964 16.981 8.08217 21.3712 8.08217C25.7613 8.08217 29.3916 11.6964 29.3916 16.0672C29.3916 20.4379 25.7613 24.0522 21.3712 24.0522C16.981 24.0522 13.3507 20.4379 13.3507 16.0672ZM22.6376 21.4466V10.7719C25.5925 11.5283 27.4498 14.4702 26.69 17.412C26.1834 19.4293 24.6638 20.9423 22.6376 21.4466ZM16.1368 14.7224C15.377 17.6642 17.1499 20.6901 20.1048 21.4466V10.7719C18.163 11.2762 16.6433 12.7891 16.1368 14.7224Z" fill="#0079BE"/>
</svg>
