<svg width="28" height="20" viewBox="0 0 28 20" fill="none" xmlns="http://www.w3.org/2000/svg">
<path d="M11.5294 19.1667L27.1765 14.375V16.1667C27.1765 17.8235 25.8333 19.1667 24.1765 19.1667H11.5294Z" fill="#FD6020"/>
<path fill-rule="evenodd" clip-rule="evenodd" d="M24.2066 7.59237C25.0674 7.59237 25.5408 7.99532 25.5408 8.75645C25.5839 9.33849 25.1965 9.83099 24.68 9.92053L25.8421 11.5771H24.9383L23.9483 9.96531H23.8622V11.5771H23.1305V7.59237H24.2066ZM23.8622 9.42805H24.0774C24.5509 9.42805 24.7661 9.20419 24.7661 8.80124C24.7661 8.44306 24.5509 8.2192 24.0774 8.2192H23.8622V9.42805ZM20.5911 11.5771H22.6571V10.9055H21.3228V9.83099H22.614V9.1594H21.3228V8.26395H22.6571V7.59237H20.5911V11.5771ZM18.439 10.2787L17.449 7.59237H16.6743L18.2668 11.6667H18.6542L20.2467 7.59237H19.472L18.439 10.2787ZM9.70156 9.60713C9.70156 10.7264 10.5624 11.6667 11.6384 11.6667C11.9828 11.6667 12.2841 11.5771 12.5853 11.4428V10.5474C12.3701 10.816 12.0688 10.9951 11.7245 10.9951C11.0358 10.9951 10.4763 10.4578 10.4763 9.74145V9.65191C10.4333 8.93555 10.9928 8.30873 11.6815 8.26396C12.0258 8.26396 12.3701 8.44305 12.5853 8.71169V7.81624C12.3271 7.63715 11.9828 7.59237 11.6815 7.59237C10.5624 7.50283 9.70156 8.44305 9.70156 9.60713ZM8.36727 9.11464C7.93685 8.93555 7.80773 8.846 7.80773 8.62214C7.85077 8.35351 8.06598 8.12964 8.32423 8.17442C8.53944 8.17442 8.75464 8.30873 8.92681 8.48782L9.31418 7.95055C9.01289 7.68192 8.62552 7.50283 8.23814 7.50283C7.63556 7.45806 7.11906 7.95055 7.07602 8.57737V8.62214C7.07602 9.15941 7.29123 9.47282 7.9799 9.69668C8.15206 9.74145 8.32423 9.831 8.49639 9.92054C8.62552 10.0101 8.7116 10.1444 8.7116 10.3235C8.7116 10.6369 8.45335 10.9055 8.1951 10.9055H8.15206C7.80773 10.9055 7.50644 10.6817 7.37731 10.3683L6.90386 10.8608C7.16211 11.3533 7.6786 11.6219 8.1951 11.6219C8.88377 11.6667 9.44331 11.1294 9.48635 10.413V10.2787C9.44331 9.74145 9.2281 9.47282 8.36727 9.11464ZM5.87086 11.5771H6.60257V7.59237H5.87086V11.5771ZM2.47058 7.59238H3.54662H3.76183C4.79482 7.63715 5.61261 8.5326 5.56957 9.60714C5.56957 10.1892 5.31132 10.7265 4.88091 11.1294C4.49353 11.4428 4.02008 11.6219 3.54662 11.5771H2.47058V7.59238ZM3.4175 10.9055C3.76183 10.9503 4.1492 10.816 4.40745 10.5921C4.6657 10.3235 4.79483 9.96531 4.79483 9.56235C4.79483 9.20417 4.6657 8.84599 4.40745 8.57736C4.1492 8.3535 3.76183 8.21918 3.4175 8.26395H3.20229V10.9055H3.4175Z" fill="#0C0E19"/>
<path fill-rule="evenodd" clip-rule="evenodd" d="M14.7804 7.5C13.7044 7.5 12.8005 8.39545 12.8005 9.55953C12.8005 10.6788 13.6614 11.6191 14.7804 11.6638C15.8995 11.7086 16.7604 10.7684 16.8034 9.60431C16.7604 8.44022 15.8995 7.5 14.7804 7.5V7.5Z" fill="#FD6020"/>
</svg>
