<svg width="28" height="20" viewBox="0 0 28 20" fill="none" xmlns="http://www.w3.org/2000/svg">
<path d="M6.44343 7.91317C6.68035 7.83457 6.9338 7.79189 7.19752 7.79189C8.34846 7.79189 9.30849 8.60344 9.52874 9.68152L11.1597 9.35141C10.7855 7.51914 9.15393 6.13989 7.19752 6.13989C6.7496 6.13989 6.31846 6.21233 5.91599 6.34576L6.44343 7.91317Z" fill="#FECA2F"/>
<path d="M4.50247 13.2231L5.479 11.9472C5.0431 11.5011 4.76798 10.8497 4.76798 10.1237C4.76798 9.39819 5.04285 8.74684 5.47862 8.30103L4.50157 7.02527C3.76089 7.78326 3.29413 8.89048 3.29413 10.1237C3.29413 11.3575 3.76157 12.4651 4.50247 13.2231Z" fill="#1BA7DE"/>
<path d="M9.52924 10.5669C9.30824 11.6448 8.34882 12.4553 7.1989 12.4553C6.93507 12.4553 6.68112 12.4125 6.44418 12.3337L5.91599 13.9019C6.31908 14.036 6.75036 14.1085 7.1989 14.1085C9.15351 14.1085 10.784 12.7302 11.1597 10.8987L9.52924 10.5669Z" fill="#EC412A"/>
<path fill-rule="evenodd" clip-rule="evenodd" d="M19.0066 7.02527V11.5597L19.8108 11.8858L19.4304 12.7802L18.6351 12.4567C18.4563 12.3808 18.3353 12.2652 18.2434 12.1347C18.1551 12.0011 18.0896 11.8185 18.0896 11.5721V7.02527H19.0066ZM12.9079 10.3954C12.9278 9.09866 14.0191 8.06358 15.3433 8.08344C16.4673 8.10069 17.3985 8.871 17.6431 9.89553L13.2961 11.7135C13.0436 11.3358 12.9001 10.8813 12.9079 10.3954ZM13.9025 10.5772C13.8965 10.5227 13.8923 10.467 13.8939 10.4107C13.9064 9.64671 14.5488 9.0371 15.329 9.04976C15.7537 9.05531 16.1308 9.24559 16.3857 9.5401L13.9025 10.5772ZM16.2941 11.419C16.0322 11.6684 15.6769 11.8203 15.2846 11.8148C15.0157 11.8104 14.7666 11.7317 14.5548 11.6004L14.0297 12.4192C14.3893 12.6416 14.8133 12.7732 15.2705 12.7801C15.936 12.7898 16.5425 12.534 16.9835 12.1117L16.2941 11.419ZM22.3534 9.04971C22.1968 9.04971 22.0462 9.07448 21.9056 9.12068L21.5927 8.20321C21.8315 8.12518 22.0872 8.0828 22.3534 8.0828C23.5148 8.0828 24.4837 8.89007 24.7059 9.96245L23.7373 10.1557C23.6068 9.52455 23.0368 9.04971 22.3534 9.04971ZM20.7631 12.1909L21.4176 11.4667C21.1252 11.2134 20.9412 10.8436 20.9412 10.4314C20.9412 10.0196 21.1252 9.64993 21.4173 9.3969L20.7623 8.6727C20.2658 9.10299 19.9529 9.73173 19.9529 10.4314C19.9529 11.1319 20.266 11.7604 20.7631 12.1909ZM22.3533 11.8136C23.0361 11.8136 23.606 11.3391 23.7373 10.7089L24.7056 10.903C24.4823 11.9742 23.5137 12.7804 22.3533 12.7804C22.087 12.7804 21.8309 12.7379 21.5914 12.6595L21.9051 11.7423C22.046 11.7884 22.1966 11.8136 22.3533 11.8136Z" fill="#0C0E19"/>
</svg>
