<svg width="46" height="32" viewBox="0 0 46 32" fill="none" xmlns="http://www.w3.org/2000/svg">
<path d="M10.4322 12.661C10.8158 12.5352 11.2261 12.4669 11.6531 12.4669C13.5165 12.4669 15.0709 13.7654 15.4275 15.4903L18.068 14.9622C17.4622 12.0305 14.8206 9.82373 11.6531 9.82373C10.9279 9.82373 10.2299 9.93962 9.57825 10.1531L10.4322 12.661Z" fill="#FECA2F"/>
<path d="M7.2897 21.1569L8.87076 19.1155C8.16502 18.4016 7.71958 17.3595 7.71958 16.1978C7.71958 15.037 8.1646 13.9949 8.87014 13.2816L7.28825 11.2404C6.08905 12.4531 5.33334 14.2247 5.33334 16.1978C5.33334 18.172 6.09015 19.9441 7.2897 21.1569Z" fill="#1BA7DE"/>
<path d="M15.4283 16.907C15.0705 18.6316 13.5171 19.9285 11.6553 19.9285C11.2282 19.9285 10.817 19.86 10.4334 19.7339L9.57825 22.243C10.2309 22.4575 10.9291 22.5736 11.6553 22.5736C14.82 22.5736 17.4597 20.3683 18.068 17.4378L15.4283 16.907Z" fill="#EC412A"/>
<path fill-rule="evenodd" clip-rule="evenodd" d="M30.7727 11.2404V18.4954L32.0746 19.0172L31.4587 20.4482L30.1712 19.9307C29.8817 19.8093 29.6858 19.6243 29.5369 19.4154C29.394 19.2017 29.288 18.9096 29.288 18.5153V11.2404H30.7727ZM20.8985 16.6325C20.9308 14.5578 22.6976 12.9017 24.8416 12.9334C26.6613 12.961 28.169 14.1935 28.565 15.8328L21.5271 18.7415C21.1183 18.1372 20.8859 17.4101 20.8985 16.6325ZM22.5088 16.9234C22.4991 16.8363 22.4923 16.7471 22.4949 16.657C22.5151 15.4347 23.5553 14.4593 24.8184 14.4795C25.506 14.4884 26.1165 14.7929 26.5292 15.2641L22.5088 16.9234ZM26.381 18.2703C25.9569 18.6693 25.3816 18.9124 24.7465 18.9037C24.3112 18.8966 23.9079 18.7706 23.5649 18.5606L22.7147 19.8706C23.297 20.2265 23.9835 20.4371 24.7237 20.4482C25.8011 20.4636 26.7831 20.0544 27.4971 19.3786L26.381 18.2703ZM36.1912 14.4795C35.9376 14.4795 35.6939 14.5191 35.4662 14.593L34.9596 13.1251C35.3462 13.0002 35.7603 12.9324 36.1912 12.9324C38.0716 12.9324 39.6403 14.224 40 15.9399L38.4318 16.249C38.2205 15.2392 37.2976 14.4795 36.1912 14.4795ZM33.6164 19.5053L34.6761 18.3466C34.2028 17.9414 33.9048 17.3497 33.9048 16.6901C33.9048 16.0313 34.2028 15.4398 34.6756 15.035L33.6152 13.8762C32.8113 14.5647 32.3048 15.5707 32.3048 16.6901C32.3048 17.811 32.8117 18.8166 33.6164 19.5053ZM36.1911 18.9016C37.2965 18.9016 38.2192 18.1426 38.4318 17.1342L39.9995 17.4447C39.6381 19.1587 38.0698 20.4486 36.1911 20.4486C35.7599 20.4486 35.3453 20.3805 34.9576 20.2551L35.4654 18.7877C35.6935 18.8613 35.9374 18.9016 36.1911 18.9016Z" fill="#0C0E19"/>
</svg>
