<svg width="58" height="40" viewBox="0 0 58 40" fill="none" xmlns="http://www.w3.org/2000/svg">
<path d="M13.0403 15.8262C13.5198 15.669 14.0327 15.5837 14.5664 15.5837C16.8957 15.5837 18.8386 17.2068 19.2843 19.3629L22.5851 18.7027C21.8277 15.0382 18.5258 12.2797 14.5664 12.2797C13.6599 12.2797 12.7874 12.4245 11.9728 12.6914L13.0403 15.8262Z" fill="#FECA2F"/>
<path d="M9.11212 26.4462L11.0884 23.8944C10.2063 23.0021 9.64947 21.6994 9.64947 20.2474C9.64947 18.7964 10.2057 17.4937 11.0877 16.6021L9.1103 14.0505C7.6113 15.5665 6.66667 17.781 6.66667 20.2474C6.66667 22.715 7.61268 24.9303 9.11212 26.4462Z" fill="#1BA7DE"/>
<path d="M19.2854 21.1337C18.8381 23.2895 16.8964 24.9105 14.5692 24.9105C14.0353 24.9105 13.5213 24.8249 13.0418 24.6673L11.9728 27.8037C12.7886 28.0719 13.6614 28.2169 14.5692 28.2169C18.525 28.2169 21.8247 25.4603 22.5851 21.7972L19.2854 21.1337Z" fill="#EC412A"/>
<path fill-rule="evenodd" clip-rule="evenodd" d="M38.4658 14.0505V23.1193L40.0932 23.7716L39.3233 25.5603L37.7139 24.9134C37.3521 24.7617 37.1072 24.5305 36.9211 24.2694C36.7424 24.0022 36.61 23.637 36.61 23.1443V14.0505H38.4658ZM26.1231 20.7907C26.1635 18.1973 28.372 16.1272 31.052 16.1669C33.3266 16.2014 35.2112 17.742 35.7062 19.7911L26.9089 23.427C26.3978 22.6715 26.1074 21.7627 26.1231 20.7907ZM28.1359 21.1543C28.1239 21.0455 28.1154 20.9339 28.1186 20.8214C28.1438 19.2934 29.4441 18.0742 31.023 18.0995C31.8825 18.1106 32.6456 18.4912 33.1615 19.0802L28.1359 21.1543ZM32.9762 22.838C32.446 23.3367 31.727 23.6406 30.9331 23.6297C30.389 23.6209 29.8848 23.4633 29.4561 23.2008L28.3934 24.8383C29.1212 25.2832 29.9794 25.5464 30.9046 25.5603C32.2513 25.5796 33.4788 25.0681 34.3714 24.2234L32.9762 22.838ZM45.239 18.0994C44.922 18.0994 44.6173 18.149 44.3327 18.2414L43.6995 16.4064C44.1828 16.2504 44.7004 16.1656 45.239 16.1656C47.5895 16.1656 49.5504 17.7802 50 19.9249L48.0397 20.3113C47.7756 19.0491 46.622 18.0994 45.239 18.0994ZM42.0205 24.3817L43.3451 22.9333C42.7535 22.4269 42.381 21.6872 42.381 20.8628C42.381 20.0392 42.7535 19.2999 43.3445 18.7938L42.019 17.3454C41.0141 18.206 40.3809 19.4635 40.3809 20.8628C40.3809 22.2638 41.0146 23.5209 42.0205 24.3817ZM45.2389 23.6271C46.6206 23.6271 47.774 22.6783 48.0397 21.4179L49.9994 21.806C49.5475 23.9484 47.5873 25.5608 45.2389 25.5608C44.6998 25.5608 44.1816 25.4757 43.6969 25.3189L44.3317 23.4847C44.6168 23.5768 44.9217 23.6271 45.2389 23.6271Z" fill="#0C0E19"/>
</svg>
