<svg width="46" height="32" viewBox="0 0 46 32" fill="none" xmlns="http://www.w3.org/2000/svg">
<path fill-rule="evenodd" clip-rule="evenodd" d="M19.3427 14.2081H13.5027H13.4056C13.8515 8.47212 16.1815 6.73702 22.251 6.66727C22.3444 6.66669 22.4353 6.66669 22.5275 6.66669H22.6915C22.784 6.66669 22.8746 6.66669 22.9683 6.66727C23.737 6.67609 24.4452 6.71191 25.098 6.77873C25.0501 6.78034 25.0033 6.78196 24.9505 6.78769C24.9017 6.79253 24.8404 6.79618 24.7681 6.80048C24.05 6.84318 22.2389 6.95089 20.582 8.95259C19.6024 10.1372 19.5053 14.2081 19.5053 14.2081H19.3427ZM18.9106 21.1879C18.2259 22.0442 17.2401 21.9867 17.2263 21.9858V25.4664C14.7875 24.4818 13.6883 22.4288 13.4016 18.6434C13.367 18.1873 13.3463 17.7864 13.3333 17.4542L19.5055 17.4519L19.5013 17.8193L19.5013 17.82L19.5013 17.821C19.494 18.4563 19.48 19.688 19.4815 19.7291C19.4862 19.9099 19.4405 20.5259 18.9106 21.1879ZM27.052 7.12262C30.1535 7.94861 31.4968 10.0129 31.8175 14.2538C31.9173 15.5709 31.9059 16.4483 31.9059 16.4483C31.9059 16.4483 31.9175 17.3262 31.8176 18.6432C31.3811 24.4159 29.0538 26.1597 22.9684 26.2297C22.8747 26.2303 22.3445 26.2303 22.2511 26.2297C21.1956 26.2174 20.2565 26.1535 19.4175 26.0287C19.4211 26.0286 19.4247 26.0286 19.4283 26.0286C19.454 26.0283 19.4793 26.0281 19.5054 26.0263C20.6065 25.9632 22.1394 25.114 23.0517 23.1385C23.4502 22.2746 23.5573 20.7325 23.5573 20.7325V17.4526H23.5576V17.4517H26.8906H27.0523V14.2078H26.8906H23.5579C23.5579 14.2078 23.5579 14.2074 23.5576 14.2072C23.5576 14.2072 23.5561 14.2038 23.5549 14.1977L23.554 14.1934C23.5532 14.1908 23.5525 14.188 23.5517 14.1849C23.5507 14.1811 23.5496 14.1767 23.5479 14.1714C23.5478 14.1703 23.5475 14.1689 23.5473 14.1674C23.5469 14.1653 23.5466 14.1631 23.5464 14.1611C23.5439 14.1517 23.5417 14.1426 23.5399 14.1301C23.5391 14.127 23.5386 14.1234 23.538 14.1196C23.5377 14.1171 23.5373 14.1146 23.5369 14.1122C23.5345 14.1 23.5326 14.0877 23.5307 14.0731C23.5293 14.0674 23.5288 14.0603 23.5284 14.0536C23.5283 14.0521 23.5282 14.0505 23.5281 14.0491C23.5257 14.0336 23.5241 14.019 23.5222 14.0013C23.5219 13.9977 23.5218 13.9939 23.5217 13.9901C23.5214 13.9845 23.5212 13.9787 23.5207 13.9734C23.5205 13.9697 23.5202 13.9661 23.52 13.9624C23.519 13.9474 23.518 13.9323 23.5178 13.9154C23.5176 13.9104 23.5176 13.9051 23.5176 13.8998C23.5176 13.8945 23.5176 13.8892 23.5175 13.8842C23.5175 13.8768 23.5173 13.8695 23.5172 13.8622C23.5169 13.8473 23.5166 13.8322 23.5175 13.8159C23.5175 13.8102 23.5179 13.8041 23.5182 13.7979C23.5185 13.7932 23.5188 13.7884 23.5189 13.7837C23.5195 13.7577 23.5206 13.7319 23.5234 13.7031C23.5236 13.6989 23.5241 13.6945 23.5246 13.69C23.5251 13.6851 23.5257 13.6802 23.526 13.6753C23.5288 13.6439 23.5325 13.6122 23.5373 13.5784C23.5376 13.5752 23.5382 13.5719 23.5389 13.5686C23.5395 13.5654 23.5401 13.5622 23.5404 13.5592C23.5463 13.521 23.5526 13.4822 23.5609 13.4414C23.5609 13.4405 23.5612 13.4392 23.5615 13.4379C23.6206 13.1543 23.7471 12.8053 24.0007 12.4098C24.6827 11.3488 26.6192 11.3987 26.9906 11.4184C27.0295 11.4207 27.0514 11.4223 27.052 11.4223V7.12262ZM19.2942 26.0084C19.2964 26.0085 19.2987 26.0085 19.3009 26.0086C19.2987 26.0085 19.2965 26.0085 19.2943 26.0084H19.2942Z" fill="#659AD2"/>
</svg>
