<svg width="58" height="40" viewBox="0 0 58 40" fill="none" xmlns="http://www.w3.org/2000/svg">
<path fill-rule="evenodd" clip-rule="evenodd" d="M24.1784 17.7601H16.8783H16.757C17.3144 10.5901 20.2269 8.42124 27.8137 8.33405C27.9304 8.33331 28.0441 8.33331 28.1593 8.33331H28.3644C28.48 8.33331 28.5932 8.33331 28.7104 8.33405C29.6713 8.34506 30.5565 8.38985 31.3724 8.47336C31.3126 8.47538 31.254 8.4774 31.1882 8.48456C31.1271 8.49062 31.0505 8.49517 30.9601 8.50055C30.0624 8.55394 27.7986 8.68856 25.7274 11.1907C24.5029 12.6714 24.3816 17.7601 24.3816 17.7601H24.1784ZM23.6382 26.4848C22.7823 27.5552 21.5501 27.4833 21.5329 27.4822V31.833C18.4844 30.6023 17.1103 28.036 16.752 23.3042C16.7087 22.734 16.6828 22.2329 16.6667 21.8177L24.3818 21.8148L24.3766 22.2741C24.3676 23.0675 24.3499 24.6099 24.3519 24.6614C24.3577 24.8873 24.3007 25.6573 23.6382 26.4848ZM33.815 8.90322C37.6918 9.93572 39.371 12.5161 39.7718 17.8172C39.8967 19.4636 39.8823 20.5604 39.8823 20.5604C39.8823 20.5604 39.8968 21.6577 39.772 23.3039C39.2263 30.5198 36.3172 32.6995 28.7105 32.7871C28.5934 32.7878 27.9306 32.7878 27.8139 32.7871C26.4945 32.7717 25.3206 32.6918 24.2718 32.5358C24.2763 32.5357 24.2808 32.5357 24.2853 32.5357C24.3175 32.5354 24.349 32.5351 24.3818 32.5329C25.7581 32.4539 27.6742 31.3924 28.8146 28.9231C29.3128 27.8432 29.4466 25.9156 29.4466 25.9156V21.8157H29.4469V21.8146H33.6132H33.8153V17.7597H33.6132H29.4473C29.4473 17.7597 29.4473 17.7592 29.4469 17.759C29.4469 17.759 29.4451 17.7547 29.4436 17.747L29.4425 17.7417C29.4415 17.7384 29.4406 17.7349 29.4396 17.731C29.4383 17.7263 29.4369 17.7208 29.4348 17.7142C29.4347 17.7128 29.4344 17.711 29.4341 17.7092C29.4337 17.7066 29.4332 17.7038 29.433 17.7013C29.4299 17.6896 29.4271 17.6782 29.4249 17.6626C29.4238 17.6587 29.4232 17.6542 29.4225 17.6495C29.4221 17.6464 29.4216 17.6432 29.4211 17.6402C29.4181 17.625 29.4157 17.6096 29.4133 17.5914C29.4116 17.5842 29.411 17.5754 29.4104 17.567C29.4103 17.5651 29.4102 17.5631 29.41 17.5613C29.4071 17.542 29.4051 17.5237 29.4027 17.5016C29.4024 17.4971 29.4022 17.4924 29.402 17.4875C29.4018 17.4805 29.4015 17.4734 29.4009 17.4667C29.4006 17.4621 29.4003 17.4576 29.4 17.453C29.3987 17.4342 29.3975 17.4153 29.3972 17.3942C29.397 17.388 29.397 17.3814 29.397 17.3748C29.397 17.3681 29.397 17.3615 29.3968 17.3551C29.3968 17.346 29.3966 17.3369 29.3965 17.3277C29.3961 17.3091 29.3957 17.2902 29.3968 17.2698C29.3968 17.2627 29.3973 17.2551 29.3978 17.2474C29.3981 17.2414 29.3985 17.2354 29.3987 17.2296C29.3994 17.1971 29.4007 17.1648 29.4042 17.1288C29.4045 17.1236 29.4051 17.1181 29.4057 17.1125C29.4064 17.1064 29.4071 17.1002 29.4075 17.0941C29.411 17.0549 29.4155 17.0152 29.4216 16.973C29.422 16.969 29.4228 16.9649 29.4236 16.9608C29.4243 16.9567 29.4251 16.9528 29.4255 16.9489C29.4328 16.9012 29.4407 16.8528 29.4512 16.8017C29.4512 16.8006 29.4515 16.799 29.4519 16.7973C29.5257 16.4429 29.6839 16.0066 30.0009 15.5123C30.8533 14.1859 33.274 14.2483 33.7382 14.2729C33.7742 14.2751 33.7985 14.2767 33.809 14.2775C33.8128 14.2777 33.8148 14.2779 33.815 14.2779V8.90322ZM24.1174 32.5105C24.1387 32.5109 24.1602 32.5113 24.1817 32.5114C24.1602 32.5114 24.1389 32.5109 24.1177 32.5105L24.1174 32.5105Z" fill="#659AD2"/>
</svg>
