<svg width="28" height="20" viewBox="0 0 28 20" fill="none" xmlns="http://www.w3.org/2000/svg">
<path fill-rule="evenodd" clip-rule="evenodd" d="M11.947 8.88008H8.33986H8.27991C8.55536 5.29508 9.99445 4.21065 13.7432 4.16705C13.8009 4.16669 13.8571 4.16669 13.914 4.16669H14.0153C14.0725 4.16669 14.1284 4.16669 14.1863 4.16705C14.6611 4.17256 15.0985 4.19495 15.5017 4.23671C15.4721 4.23772 15.4432 4.23873 15.4106 4.24231C15.3804 4.24534 15.3426 4.24762 15.298 4.2503C14.8544 4.277 13.7358 4.34431 12.7124 5.59538C12.1073 6.33574 12.0474 8.88008 12.0474 8.88008H11.947ZM11.6801 13.2424C11.2571 13.7776 10.6483 13.7417 10.6398 13.7411V15.9165C9.13346 15.3012 8.45451 14.018 8.27746 11.6521C8.25606 11.367 8.24327 11.1165 8.23529 10.9089L12.0475 10.9074L12.0449 11.137L12.0449 11.1373C12.0404 11.5341 12.0317 12.305 12.0327 12.3307C12.0356 12.4437 12.0074 12.8287 11.6801 13.2424ZM16.7086 4.45164C18.6242 4.96789 19.4539 6.25809 19.652 8.90861C19.7136 9.73184 19.7066 10.2802 19.7066 10.2802C19.7066 10.2802 19.7137 10.8289 19.6521 11.652C19.3824 15.2599 17.945 16.3498 14.1864 16.3936C14.1285 16.3939 13.801 16.3939 13.7433 16.3936C13.0914 16.3859 12.5114 16.3459 11.9931 16.2679C11.9954 16.2679 11.9976 16.2679 11.9998 16.2679C12.0157 16.2677 12.0313 16.2676 12.0475 16.2665C12.7275 16.227 13.6743 15.6962 14.2378 14.4616C14.484 13.9216 14.5501 12.9578 14.5501 12.9578V10.9079H14.5503V10.9073H16.6089H16.7088V8.87988H16.6089H14.5504C14.5504 8.87988 14.5504 8.87978 14.5504 8.87968C14.5504 8.87962 14.5503 8.87955 14.5503 8.87951C14.5503 8.87951 14.5493 8.8774 14.5486 8.87355L14.5481 8.87089C14.5475 8.86923 14.5471 8.8675 14.5466 8.86554C14.546 8.86316 14.5453 8.86044 14.5443 8.85712C14.5441 8.85547 14.5435 8.85281 14.5434 8.85069C14.5418 8.84482 14.5405 8.83913 14.5394 8.83133C14.5388 8.8294 14.5385 8.82711 14.5382 8.82478C14.538 8.82322 14.5378 8.82164 14.5375 8.82013C14.536 8.81252 14.5348 8.80481 14.5337 8.79572C14.5328 8.79214 14.5325 8.78772 14.5322 8.78353C14.5322 8.78256 14.5321 8.7816 14.532 8.78067C14.5306 8.77103 14.5296 8.76185 14.5284 8.75084C14.5282 8.7486 14.5282 8.74622 14.5281 8.7438C14.5279 8.7403 14.5278 8.73672 14.5275 8.7334C14.5273 8.7311 14.5272 8.72881 14.527 8.72652C14.5264 8.71712 14.5258 8.7077 14.5257 8.69715C14.5256 8.69403 14.5256 8.69073 14.5256 8.68742C14.5256 8.6841 14.5256 8.68077 14.5255 8.6776C14.5255 8.67302 14.5254 8.66847 14.5253 8.66389C14.5251 8.65459 14.5249 8.64513 14.5255 8.63493C14.5255 8.6314 14.5257 8.62759 14.526 8.62373C14.5261 8.62075 14.5263 8.61774 14.5264 8.61483C14.5268 8.59858 14.5274 8.58243 14.5291 8.56444C14.5293 8.56185 14.5296 8.55908 14.5299 8.55627C14.5302 8.55322 14.5306 8.55011 14.5308 8.5471C14.5325 8.52746 14.5347 8.50763 14.5377 8.48652C14.5379 8.48453 14.5383 8.48246 14.5387 8.48041C14.5391 8.4784 14.5395 8.47641 14.5396 8.4745C14.5433 8.45064 14.5472 8.42641 14.5523 8.4009L14.5527 8.39869C14.5892 8.22147 14.6673 8.00332 14.824 7.75616C15.2452 7.09298 16.4413 7.12419 16.6707 7.13648C16.6884 7.13757 16.7004 7.1384 16.7056 7.13877C16.7075 7.13889 16.7085 7.13896 16.7086 7.13896V4.45164ZM11.917 16.2553C11.9281 16.2555 11.9394 16.2557 11.9507 16.2557C11.9393 16.2557 11.9282 16.2555 11.9171 16.2553L11.917 16.2553Z" fill="#659AD2"/>
</svg>
