<svg width="58" height="40" viewBox="0 0 58 40" fill="none" xmlns="http://www.w3.org/2000/svg">
<path fill-rule="evenodd" clip-rule="evenodd" d="M10.3017 12.9046C9.29701 12.9063 8.48412 13.6472 8.48216 14.5628V14.5628V25.5712V25.5712C8.48218 25.5784 8.48224 25.5855 8.48236 25.5926C8.48224 25.5855 8.48218 25.5783 8.48216 25.5712M8.5197 25.9052C8.69033 26.6602 9.4226 27.2278 10.3017 27.2293H29.2336V27.2293H10.3017C9.4226 27.2277 8.69034 26.6602 8.5197 25.9052ZM29.2336 12.9047V12.9046H10.3017M10.3017 11.6667H46.5346C48.2898 11.667 49.7119 12.9627 49.7125 14.5628V25.5712C49.7119 27.1708 48.2898 28.4666 46.5346 28.4671H10.3017C8.54635 28.4666 7.12443 27.1708 7.12383 25.5712V14.5628C7.12443 12.9627 8.54635 11.667 10.3017 11.6667Z" fill="#0F3365"/>
<path fill-rule="evenodd" clip-rule="evenodd" d="M32.332 23.7705H30.7426V17.8868H32.2086V18.6435H32.2263C32.5441 18.0559 33.2156 17.7903 33.9398 17.7903C35.2116 17.7903 35.9088 18.893 35.9088 19.9069C35.9088 21.1466 35.1759 22.1768 33.807 22.1768C33.2507 22.1768 32.6501 21.9919 32.3497 21.4929H32.332V23.7705ZM33.304 21.0661C33.9042 21.0661 34.2664 20.6075 34.2664 19.9393C34.2664 19.3837 33.9219 18.901 33.304 18.901C32.7209 18.901 32.3319 19.3679 32.3319 19.9955C32.3319 20.6075 32.7739 21.0661 33.304 21.0661ZM41.9995 23.7705C42.3265 23.835 42.653 23.8673 42.9888 23.8673C44.3636 23.8673 44.7478 22.9573 45.1648 21.9697C45.1898 21.9103 45.215 21.8507 45.2406 21.7909L46.9277 17.8868H45.338L44.3928 20.6233H44.3752L43.386 17.8868H41.6733L43.5358 22.1768C43.4217 22.547 43.1214 22.7564 42.7333 22.7564C42.5119 22.7564 42.3175 22.7327 42.1059 22.6677L41.9995 23.7705ZM41.4071 22.2166C41.3366 21.8866 41.3185 21.5569 41.3185 21.2267V19.6652C41.3185 18.3854 40.3031 17.9269 39.1285 17.9269C38.4482 17.9269 37.8566 18.015 37.2915 18.2247L37.3177 19.2065C37.7597 18.9814 38.2717 18.8927 38.7836 18.8927C39.3579 18.8927 39.8263 19.0455 39.835 19.6172C39.6319 19.5847 39.3495 19.5603 39.0933 19.5603C38.2454 19.5603 36.7177 19.7138 36.7177 20.9934C36.7177 21.9032 37.5301 22.3137 38.4398 22.3137C39.0933 22.3137 39.5349 22.0799 39.8968 21.5569H39.9141C39.9141 21.6845 39.9234 21.8122 39.9328 21.9414C39.9395 22.0322 39.9461 22.1238 39.9497 22.2166H41.4071ZM38.201 20.8889C38.201 20.4865 38.6248 20.3336 39.1637 20.3336C39.3326 20.3336 39.497 20.3416 39.6507 20.3491L39.6507 20.3491C39.7141 20.3522 39.7756 20.3552 39.8349 20.3576C39.8349 20.8483 39.4555 21.348 38.8544 21.348C38.4837 21.348 38.201 21.1783 38.201 20.8889Z" fill="#FFFFFE"/>
<path fill-rule="evenodd" clip-rule="evenodd" d="M16.9275 22.08H18.5171V17.8868H16.9275V22.08ZM16.9275 17.2026H18.5171V16.1401H16.9275V17.2026ZM22.4048 17.7903C22.59 17.7903 22.7842 17.8144 22.9433 17.8382L22.8636 19.0456C22.6873 18.9974 22.5105 18.9974 22.3253 18.9974C21.5835 18.9974 21.1682 19.4885 21.1682 20.3097V22.08H19.5787V17.8868H21.0271V18.6593H21.0445C21.3184 18.1283 21.7159 17.7903 22.4048 17.7903ZM28.356 19.9877C28.356 21.3722 27.1989 22.1768 25.6803 22.1768C24.1614 22.1768 23.0044 21.3722 23.0044 19.9877C23.0044 18.595 24.1614 17.7903 25.6803 17.7903C27.1989 17.7903 28.356 18.595 28.356 19.9877ZM24.6471 19.9877C24.6471 20.6075 24.9473 21.1626 25.6804 21.1626C26.4133 21.1626 26.7137 20.6075 26.7137 19.9877C26.7137 19.3598 26.4133 18.8045 25.6804 18.8045C24.9473 18.8045 24.6471 19.3598 24.6471 19.9877ZM14.3908 17.8868H15.8306V21.5895C15.8306 23.3117 14.9122 23.8673 13.0576 23.8673C12.2982 23.8673 11.6711 23.7221 11.3001 23.6018L11.3798 22.4587C11.8654 22.6761 12.2716 22.8047 12.934 22.8047C13.8526 22.8047 14.3469 22.4105 14.3469 21.5895V21.3637H14.329C13.9496 21.8553 13.4198 22.08 12.784 22.08C11.521 22.08 10.735 21.2115 10.735 19.9714C10.735 18.7237 11.3798 17.7903 12.8103 17.7903C13.4901 17.7903 14.0378 18.1283 14.3735 18.6432H14.3908V17.8868ZM13.2785 18.901C12.6868 18.901 12.3777 19.3759 12.3777 19.9472C12.3777 20.5989 12.8016 20.9696 13.2785 20.9696C13.8435 20.9696 14.2941 20.535 14.2941 19.8908C14.2941 19.4237 13.9937 18.901 13.2785 18.901Z" fill="#D8232A"/>
</svg>
