<svg width="28" height="20" viewBox="0 0 28 20" fill="none" xmlns="http://www.w3.org/2000/svg">
<path fill-rule="evenodd" clip-rule="evenodd" d="M5.09029 6.45229C4.59383 6.45312 4.19216 6.82356 4.1912 7.28135V7.28137V12.7856V12.7856C4.19121 12.7891 4.19124 12.7927 4.19129 12.7963C4.19214 12.8497 4.19845 12.902 4.20975 12.9525C4.29406 13.3301 4.65588 13.6139 5.09029 13.6146H14.4449V13.6146V6.45231V6.45229H5.09029ZM5.09028 5.83331H22.9936C23.8609 5.83345 24.5635 6.4813 24.5638 7.28136V12.7856C24.5635 13.5854 23.8609 14.2333 22.9936 14.2335H5.09028C4.22292 14.2333 3.52032 13.5854 3.52002 12.7856V7.28136C3.52032 6.4813 4.22292 5.83345 5.09028 5.83331Z" fill="#0F3365"/>
<path fill-rule="evenodd" clip-rule="evenodd" d="M15.9758 11.8852H15.1905V8.94341H15.9148V9.32174H15.9236C16.0806 9.02795 16.4124 8.89514 16.7702 8.89514C17.3987 8.89514 17.7432 9.44652 17.7432 9.95348C17.7432 10.5733 17.381 11.0884 16.7046 11.0884C16.4298 11.0884 16.133 10.996 15.9846 10.7465H15.9758V11.8852ZM16.4561 10.533C16.7527 10.533 16.9316 10.3038 16.9316 9.96966C16.9316 9.69184 16.7614 9.4505 16.4561 9.4505C16.168 9.4505 15.9758 9.68395 15.9758 9.99777C15.9758 10.3038 16.1942 10.533 16.4561 10.533ZM20.7527 11.8852C20.9143 11.9175 21.0756 11.9336 21.2415 11.9336C21.9209 11.9336 22.1107 11.4787 22.3167 10.9849L22.3542 10.8955L23.1878 8.94341H22.4023L21.9353 10.3116H21.9266L21.4378 8.94341H20.5915L21.5118 11.0884C21.4554 11.2735 21.307 11.3782 21.1153 11.3782C21.0059 11.3782 20.9098 11.3663 20.8053 11.3338L20.7527 11.8852ZM20.46 11.1083C20.4251 10.9433 20.4162 10.7784 20.4162 10.6133V9.83261C20.4162 9.19271 19.9145 8.96344 19.3341 8.96344C18.998 8.96344 18.7056 9.00752 18.4264 9.11236L18.4393 9.60327C18.6577 9.49069 18.9107 9.44633 19.1637 9.44633C19.4475 9.44633 19.6789 9.52277 19.6832 9.80861C19.5828 9.79236 19.4433 9.78016 19.3167 9.78016C18.8977 9.78016 18.1428 9.85688 18.1428 10.4967C18.1428 10.9516 18.5443 11.1568 18.9938 11.1568C19.3167 11.1568 19.5349 11.0399 19.7137 10.7784H19.7222C19.7222 10.8422 19.7269 10.9061 19.7315 10.9707V10.9707L19.7315 10.9707C19.7348 11.0161 19.7381 11.0619 19.7398 11.1083H20.46ZM18.8758 10.4445C18.8758 10.2432 19.0852 10.1668 19.3515 10.1668C19.4349 10.1668 19.5162 10.1708 19.5921 10.1746C19.6234 10.1761 19.6538 10.1776 19.6831 10.1788C19.6831 10.4242 19.4956 10.674 19.1986 10.674C19.0155 10.674 18.8758 10.5891 18.8758 10.4445Z" fill="#FFFFFE"/>
<path fill-rule="evenodd" clip-rule="evenodd" d="M8.3642 11.0399H9.14963V8.94336H8.3642V11.0399ZM8.3642 8.60123H9.14963V8.07001H8.3642V8.60123ZM11.0706 8.8951C11.1621 8.8951 11.2581 8.90716 11.3367 8.91903L11.2973 9.52272C11.2102 9.49865 11.1228 9.49865 11.0313 9.49865C10.6648 9.49865 10.4596 9.74418 10.4596 10.1548V11.0399H9.67418V8.94336H10.3899V9.32958H10.3985C10.5338 9.0641 10.7302 8.8951 11.0706 8.8951ZM14.0112 9.99381C14.0112 10.686 13.4395 11.0883 12.6891 11.0883C11.9386 11.0883 11.3669 10.686 11.3669 9.99381C11.3669 9.29742 11.9386 8.8951 12.6891 8.8951C13.4395 8.8951 14.0112 9.29742 14.0112 9.99381ZM12.1786 9.99381C12.1786 10.3037 12.3269 10.5813 12.6891 10.5813C13.0513 10.5813 13.1997 10.3037 13.1997 9.99381C13.1997 9.67986 13.0513 9.40218 12.6891 9.40218C12.3269 9.40218 12.1786 9.67986 12.1786 9.99381ZM7.11077 8.94336H7.82221V10.7947C7.82221 11.6558 7.3684 11.9336 6.452 11.9336C6.07678 11.9336 5.76693 11.861 5.58359 11.8009L5.62297 11.2293C5.86291 11.338 6.06363 11.4023 6.39094 11.4023C6.84483 11.4023 7.08908 11.2052 7.08908 10.7947V10.6818H7.08024C6.89274 10.9276 6.63096 11.0399 6.3168 11.0399C5.69272 11.0399 5.30435 10.6057 5.30435 9.98565C5.30435 9.3618 5.62297 8.8951 6.3298 8.8951C6.66572 8.8951 6.93635 9.0641 7.10223 9.32156H7.11077V8.94336ZM6.56115 9.45045C6.26876 9.45045 6.11603 9.68789 6.11603 9.97352C6.11603 10.2994 6.32552 10.4847 6.56115 10.4847C6.84032 10.4847 7.06296 10.2674 7.06296 9.94534C7.06296 9.71182 6.91453 9.45045 6.56115 9.45045Z" fill="#D8232A"/>
</svg>
