<svg width="46" height="32" viewBox="0 0 46 32" fill="none" xmlns="http://www.w3.org/2000/svg">
<path fill-rule="evenodd" clip-rule="evenodd" d="M8.2414 10.3237C7.43762 10.325 6.7873 10.9177 6.78574 11.6502V11.6502V20.4569V20.4569C6.78575 20.4626 6.7858 20.4684 6.78589 20.474C6.7858 20.4683 6.78575 20.4626 6.78574 20.4569M6.81577 20.7241C6.95227 21.3281 7.53808 21.7822 8.2414 21.7834H23.3869V21.7834H8.2414C7.53809 21.7822 6.95228 21.3281 6.81577 20.7241ZM23.3869 10.3237V10.3237H8.2414M8.2414 9.33331H37.2277C38.6319 9.33353 39.7695 10.3701 39.77 11.6502V20.4569C39.7695 21.7366 38.6319 22.7732 37.2277 22.7737H8.2414C6.83709 22.7732 5.69955 21.7366 5.69907 20.4569V11.6502C5.69955 10.3701 6.83709 9.33353 8.2414 9.33331Z" fill="#0F3365"/>
<path fill-rule="evenodd" clip-rule="evenodd" d="M25.8656 19.0163H24.5941V14.3094H25.7669V14.9147H25.7811C26.0353 14.4447 26.5725 14.2322 27.1518 14.2322C28.1693 14.2322 28.727 15.1144 28.727 15.9255C28.727 16.9172 28.1407 17.7414 27.0456 17.7414C26.6006 17.7414 26.1201 17.5935 25.8798 17.1943H25.8656V19.0163ZM26.6432 16.8528C27.1234 16.8528 27.4131 16.486 27.4131 15.9514C27.4131 15.5069 27.1376 15.1207 26.6432 15.1207C26.1767 15.1207 25.8656 15.4943 25.8656 15.9964C25.8656 16.486 26.2192 16.8528 26.6432 16.8528ZM33.5996 19.0163C33.8612 19.068 34.1224 19.0938 34.391 19.0938C35.4909 19.0938 35.7983 18.3658 36.1318 17.5757L36.1319 17.5755C36.152 17.5281 36.1721 17.4804 36.1925 17.4327L37.5422 14.3094H36.2704L35.5142 16.4986H35.5002L34.7088 14.3094H33.3386L34.8287 17.7414C34.7374 18.0376 34.4971 18.2051 34.1867 18.2051C34.0095 18.2051 33.854 18.1861 33.6848 18.1341L33.5996 19.0163ZM33.1257 17.7732C33.0693 17.5093 33.0548 17.2454 33.0548 16.9813V15.7321C33.0548 14.7083 32.2425 14.3415 31.3028 14.3415C30.7586 14.3415 30.2853 14.412 29.8332 14.5797L29.8541 15.3652C30.2077 15.185 30.6174 15.1141 31.0269 15.1141C31.4864 15.1141 31.861 15.2364 31.868 15.6937C31.7055 15.6677 31.4796 15.6482 31.2747 15.6482C30.5963 15.6482 29.3741 15.771 29.3741 16.7947C29.3741 17.5225 30.0241 17.8509 30.7519 17.8509C31.2747 17.8509 31.6279 17.6638 31.9174 17.2454H31.9313C31.9313 17.3475 31.9387 17.4497 31.9463 17.553L31.9463 17.5531V17.5531C31.9516 17.6257 31.9569 17.699 31.9598 17.7732H33.1257ZM30.5608 16.7111C30.5608 16.3891 30.8999 16.2668 31.3309 16.2668C31.4661 16.2668 31.5976 16.2732 31.7206 16.2793C31.7713 16.2817 31.8205 16.2841 31.868 16.286C31.868 16.6786 31.5644 17.0784 31.0835 17.0784C30.7869 17.0784 30.5608 16.9426 30.5608 16.7111Z" fill="#FFFFFE"/>
<path fill-rule="evenodd" clip-rule="evenodd" d="M13.542 17.6639H14.8137V14.3094H13.542V17.6639ZM13.542 13.762H14.8137V12.912H13.542V13.762ZM17.9238 14.2322C18.072 14.2322 18.2274 14.2515 18.3547 14.2705L18.2909 15.2364C18.1498 15.1979 18.0084 15.1979 17.8602 15.1979C17.2668 15.1979 16.9346 15.5907 16.9346 16.2477V17.6639H15.6629V14.3094H16.8217V14.9274H16.8356C17.0547 14.5026 17.3727 14.2322 17.9238 14.2322ZM22.6848 15.9901C22.6848 17.0977 21.7592 17.7414 20.5443 17.7414C19.3292 17.7414 18.4035 17.0977 18.4035 15.9901C18.4035 14.8759 19.3292 14.2322 20.5443 14.2322C21.7592 14.2322 22.6848 14.8759 22.6848 15.9901ZM19.7177 15.9901C19.7177 16.486 19.9578 16.93 20.5443 16.93C21.1306 16.93 21.3709 16.486 21.3709 15.9901C21.3709 15.4878 21.1306 15.0435 20.5443 15.0435C19.9578 15.0435 19.7177 15.4878 19.7177 15.9901ZM11.5127 14.3094H12.6645V17.2715C12.6645 18.6493 11.9298 19.0938 10.4461 19.0938C9.83858 19.0938 9.33692 18.9776 9.04009 18.8814L9.10383 17.9669C9.49231 18.1408 9.81729 18.2437 10.3472 18.2437C11.0821 18.2437 11.4775 17.9283 11.4775 17.2715V17.0909H11.4632C11.1597 17.4841 10.7358 17.6639 10.2272 17.6639C9.21677 17.6639 8.58798 16.9691 8.58798 15.9771C8.58798 14.9789 9.10383 14.2322 10.2482 14.2322C10.7921 14.2322 11.2303 14.5026 11.4988 14.9145H11.5127V14.3094ZM10.6228 15.1208C10.1494 15.1208 9.90213 15.5007 9.90213 15.9577C9.90213 16.4791 10.2413 16.7756 10.6228 16.7756C11.0748 16.7756 11.4352 16.4279 11.4352 15.9126C11.4352 15.5389 11.1949 15.1208 10.6228 15.1208Z" fill="#D8232A"/>
</svg>
