<svg width="28" height="20" viewBox="0 0 28 20" fill="none" xmlns="http://www.w3.org/2000/svg">
<path fill-rule="evenodd" clip-rule="evenodd" d="M13.2241 12.94V10.4945H14.4715C14.9826 10.4945 15.414 10.3212 15.7657 9.97937L15.8501 9.89272C16.4925 9.18505 16.4503 8.08263 15.7657 7.42792C15.4234 7.08131 14.9544 6.89356 14.4715 6.90318H12.4691V12.94H13.2241ZM13.2242 9.75306V7.6445H14.4905C14.7625 7.6445 15.0205 7.75041 15.2128 7.94297C15.6208 8.34736 15.6302 9.02132 15.2362 9.44015C15.0439 9.64715 14.7719 9.76269 14.4905 9.75306H13.2242ZM19.3717 9.13207C19.0482 8.82879 18.6074 8.67474 18.0494 8.67474C17.3319 8.67474 16.7927 8.94433 16.4363 9.47869L17.1021 9.90714C17.346 9.54127 17.6789 9.35834 18.101 9.35834C18.3682 9.35834 18.6261 9.45943 18.8278 9.64236C19.0247 9.81567 19.1373 10.066 19.1373 10.3308V10.5089C18.8465 10.3452 18.4808 10.2586 18.0306 10.2586C17.5054 10.2586 17.0834 10.3837 16.7692 10.6389C16.455 10.894 16.2956 11.231 16.2956 11.6595C16.2862 12.0494 16.4503 12.4201 16.7411 12.6704C17.0365 12.94 17.4116 13.0748 17.8524 13.0748C18.3729 13.0748 18.7856 12.8389 19.0998 12.3671H19.1326V12.94H19.8547V10.3934C19.8547 9.859 19.6953 9.43536 19.3717 9.13207ZM17.3227 12.1794C17.1679 12.0639 17.0741 11.8761 17.0741 11.6739C17.0741 11.4477 17.1773 11.2599 17.3789 11.1107C17.5853 10.9614 17.8433 10.8844 18.1481 10.8844C18.5702 10.8796 18.8985 10.9759 19.133 11.1684C19.133 11.4958 19.0064 11.7798 18.7578 12.0205C18.5327 12.2516 18.2278 12.3816 17.9089 12.3816C17.6979 12.3864 17.4915 12.3142 17.3227 12.1794ZM21.4772 14.7549L24 8.80953H23.1794L22.0118 11.775H21.9977L20.802 8.80953H19.9814L21.6367 12.6752L20.6988 14.7549H21.4772Z" fill="#3C4043"/>
<path d="M10.6177 9.96494C10.6177 9.72905 10.5989 9.49316 10.5614 9.26208H7.37741V10.5956H9.20153C9.1265 11.024 8.88266 11.4092 8.52628 11.6499V12.5164H9.61418C10.2519 11.9146 10.6177 11.024 10.6177 9.96494Z" fill="#4285F4"/>
<path d="M7.37755 13.354C8.28727 13.354 9.0563 13.0459 9.61432 12.5164L8.52642 11.6499C8.22162 11.8617 7.83241 11.982 7.37755 11.982C6.49597 11.982 5.75038 11.3706 5.4831 10.5522H4.36237V11.4477C4.93445 12.6175 6.10208 13.354 7.37755 13.354Z" fill="#34A853"/>
<path d="M5.48321 10.5522C5.34251 10.1238 5.34251 9.65681 5.48321 9.22355V8.33295H4.3623C3.87923 9.3102 3.87923 10.4656 4.3623 11.4428L5.48321 10.5522Z" fill="#FBBC04"/>
<path d="M7.37755 7.79379C7.86054 7.78416 8.32478 7.97191 8.67178 8.31371L9.63777 7.32201C9.02348 6.73469 8.21693 6.41215 7.37755 6.42178C6.10208 6.42178 4.93445 7.16314 4.36237 8.33296L5.4831 9.22838C5.75038 8.40517 6.49597 7.79379 7.37755 7.79379Z" fill="#EA4335"/>
</svg>
