<svg width="46" height="32" viewBox="0 0 46 32" fill="none" xmlns="http://www.w3.org/2000/svg">
<path fill-rule="evenodd" clip-rule="evenodd" d="M21.4105 20.704V16.7911H23.43C24.2575 16.7911 24.956 16.5138 25.5254 15.967L25.6621 15.8283C26.7022 14.696 26.6338 12.9322 25.5254 11.8846C24.9712 11.3301 24.212 11.0297 23.43 11.0451H20.1881V20.704H21.4105ZM21.4106 15.6049V12.2312H23.4608C23.9012 12.2312 24.3189 12.4006 24.6302 12.7087C25.2908 13.3557 25.306 14.4341 24.6681 15.1042C24.3568 15.4354 23.9164 15.6203 23.4608 15.6049H21.4106ZM31.3638 14.6113C30.8399 14.126 30.1263 13.8795 29.2228 13.8795C28.0612 13.8795 27.1881 14.3109 26.6111 15.1659L27.6892 15.8514C28.084 15.266 28.623 14.9733 29.3063 14.9733C29.7391 14.9733 30.1566 15.1351 30.4831 15.4277C30.802 15.705 30.9842 16.1056 30.9842 16.5292V16.8142C30.5135 16.5523 29.9213 16.4137 29.1924 16.4137C28.3421 16.4137 27.6588 16.6139 27.1501 17.0222C26.6415 17.4304 26.3833 17.9696 26.3833 18.6551C26.3682 19.279 26.6339 19.8721 27.1046 20.2726C27.5829 20.704 28.1903 20.9196 28.9039 20.9196C29.7466 20.9196 30.4148 20.5422 30.9234 19.7874H30.9766V20.704H32.1458V16.6293C32.1458 15.7744 31.8876 15.0965 31.3638 14.6113ZM28.0462 19.487C27.7956 19.3021 27.6438 19.0017 27.6438 18.6782C27.6438 18.3162 27.8108 18.0158 28.1373 17.777C28.4714 17.5383 28.8891 17.415 29.3826 17.415C30.066 17.4073 30.5976 17.5614 30.9772 17.8695C30.9772 18.3932 30.7722 18.8477 30.3698 19.2328C30.0053 19.6025 29.5117 19.8105 28.9954 19.8105C28.6537 19.8182 28.3196 19.7027 28.0462 19.487ZM34.7727 23.6078L38.8572 14.0952H37.5286L35.6382 18.8399H35.6154L33.6794 14.0952H32.3508L35.0308 20.2803L33.5124 23.6078H34.7727Z" fill="#3C4043"/>
<path d="M17.1905 15.9438C17.1905 15.5664 17.1602 15.189 17.0994 14.8193H11.9444V16.9529H14.8977C14.7763 17.6384 14.3815 18.2546 13.8045 18.6397V20.0262H15.5658C16.5984 19.0634 17.1905 17.6384 17.1905 15.9438Z" fill="#4285F4"/>
<path d="M11.9446 21.3664C13.4175 21.3664 14.6626 20.8734 15.5661 20.0262L13.8047 18.6397C13.3112 18.9786 12.6811 19.1712 11.9446 19.1712C10.5173 19.1712 9.31016 18.193 8.87741 16.8835H7.0629V18.3162C7.98913 20.1879 9.87957 21.3664 11.9446 21.3664Z" fill="#34A853"/>
<path d="M8.87762 16.8836C8.64982 16.198 8.64982 15.4509 8.87762 14.7577V13.3327H7.06281C6.2807 14.8963 6.2807 16.7449 7.06281 18.3085L8.87762 16.8836Z" fill="#FBBC04"/>
<path d="M11.9446 12.47C12.7266 12.4546 13.4782 12.755 14.0401 13.3019L15.604 11.7152C14.6095 10.7755 13.3036 10.2594 11.9446 10.2748C9.87957 10.2748 7.98913 11.461 7.0629 13.3327L8.87741 14.7654C9.31016 13.4482 10.5173 12.47 11.9446 12.47Z" fill="#EA4335"/>
</svg>
