<svg width="28" height="20" viewBox="0 0 28 20" fill="none" xmlns="http://www.w3.org/2000/svg">
<path d="M12.4971 8H7.50296V12.9941H12.4971V8Z" fill="white"/>
<path d="M14.9941 10.5029L12.497 8V13L14.9941 10.5029Z" fill="#DB0011"/>
<path d="M10 10.5029L12.4971 8H7.50296L10 10.5029Z" fill="#DB0011"/>
<path d="M5 10.5029L7.50294 13V8L5 10.5029Z" fill="#DB0011"/>
<path d="M10 10.5029L7.50296 13H12.4971L10 10.5029Z" fill="#DB0011"/>
<path d="M17.1857 10.6498H16.2809V11.5429H15.8285V9.45123H16.2809V10.309H17.1857V9.45123H17.6381V11.5429H17.1857V10.6498Z" fill="#0C0E19"/>
<path d="M18.7309 11.584C18.2785 11.584 17.9083 11.4019 17.9025 10.9024H18.3549C18.3607 11.1257 18.49 11.2608 18.7368 11.2608C18.9189 11.2608 19.1304 11.1668 19.1304 10.9612C19.1304 10.7967 18.9894 10.7497 18.7544 10.6792L18.6016 10.638C18.2726 10.544 17.9436 10.4148 17.9436 10.0388C17.9436 9.57459 18.3784 9.41595 18.772 9.41595C19.1774 9.41595 19.53 9.55697 19.5358 10.0211H19.0834C19.0658 9.83311 18.9542 9.72148 18.7427 9.72148C18.5723 9.72148 18.4078 9.80961 18.4078 9.99762C18.4078 10.1504 18.5488 10.1974 18.8425 10.2914L19.0188 10.3443C19.3772 10.4559 19.6063 10.5793 19.6063 10.9318C19.6005 11.4019 19.1422 11.584 18.7309 11.584Z" fill="#0C0E19"/>
<path d="M19.859 9.45714H20.5876C20.7227 9.45126 20.8637 9.45714 20.9988 9.48064C21.2515 9.53939 21.4454 9.7039 21.4454 9.98593C21.4454 10.2562 21.275 10.3913 21.0282 10.456C21.3102 10.5088 21.5218 10.6498 21.5218 10.9612C21.5218 11.4372 21.0517 11.5429 20.6874 11.5429H19.8649L19.859 9.45714ZM20.5876 10.3267C20.7873 10.3267 20.993 10.2856 20.993 10.0447C20.993 9.82729 20.805 9.76853 20.6169 9.76853H20.2997V10.3267H20.5876ZM20.6287 11.2315C20.8402 11.2315 21.0458 11.1845 21.0458 10.926C21.0458 10.6675 20.8696 10.6205 20.6522 10.6205H20.2938V11.2315H20.6287Z" fill="#0C0E19"/>
<path d="M22.6968 11.584C22.0211 11.584 21.7215 11.1551 21.7215 10.5147C21.7215 9.87425 22.0564 9.4101 22.7203 9.4101C23.1375 9.4101 23.5429 9.59811 23.5546 10.0681H23.0846C23.0611 9.85663 22.9201 9.75087 22.7203 9.75087C22.309 9.75087 22.1857 10.1915 22.1857 10.5264C22.1857 10.8613 22.309 11.2491 22.7027 11.2491C22.9083 11.2491 23.0611 11.1375 23.0905 10.926H23.5605C23.5135 11.4077 23.1316 11.584 22.6968 11.584Z" fill="#0C0E19"/>
</svg>
