<svg width="58" height="40" viewBox="0 0 58 40" fill="none" xmlns="http://www.w3.org/2000/svg">
<path d="M24.4924 14H11.5077V26.9847H24.4924V14Z" fill="white"/>
<path d="M30.9847 20.5076L24.4923 14V27L30.9847 20.5076Z" fill="#DB0011"/>
<path d="M18 20.5076L24.4924 14H11.5077L18 20.5076Z" fill="#DB0011"/>
<path d="M5 20.5076L11.5076 27V14L5 20.5076Z" fill="#DB0011"/>
<path d="M18 20.5076L11.5077 27H24.4924L18 20.5076Z" fill="#DB0011"/>
<path d="M36.6828 20.8895H34.3303V23.2115H33.154V17.7732H34.3303V20.0035H36.6828V17.7732H37.859V23.2115H36.6828V20.8895Z" fill="#0C0E19"/>
<path d="M40.7003 23.3185C39.5241 23.3185 38.5617 22.8449 38.5464 21.5464H39.7226C39.7379 22.1269 40.074 22.4783 40.7156 22.4783C41.1892 22.4783 41.7391 22.2339 41.7391 21.6992C41.7391 21.2715 41.3725 21.1493 40.7614 20.9659L40.3642 20.859C39.5088 20.6146 38.6533 20.2785 38.6533 19.3008C38.6533 18.094 39.7838 17.6816 40.8073 17.6816C41.8613 17.6816 42.7779 18.0482 42.7932 19.255H41.6169C41.5711 18.7662 41.2808 18.4759 40.7309 18.4759C40.2879 18.4759 39.8601 18.7051 39.8601 19.1939C39.8601 19.5911 40.2268 19.7133 40.9906 19.9577L41.4489 20.0952C42.3807 20.3855 42.9765 20.7063 42.9765 21.6228C42.9612 22.8449 41.7697 23.3185 40.7003 23.3185Z" fill="#0C0E19"/>
<path d="M43.6334 17.7885H45.5276C45.879 17.7732 46.2456 17.7885 46.5969 17.8496C47.2538 18.0023 47.7579 18.4301 47.7579 19.1633C47.7579 19.866 47.3149 20.2174 46.6733 20.3854C47.4066 20.5229 47.9565 20.8895 47.9565 21.6992C47.9565 22.9365 46.7344 23.2115 45.7873 23.2115H43.6486L43.6334 17.7885ZM45.5276 20.0493C46.047 20.0493 46.5817 19.9424 46.5817 19.3161C46.5817 18.7509 46.0928 18.5981 45.604 18.5981H44.7791V20.0493H45.5276ZM45.6345 22.4019C46.1845 22.4019 46.7191 22.2797 46.7191 21.6075C46.7191 20.9354 46.2609 20.8131 45.6956 20.8131H44.7638V22.4019H45.6345Z" fill="#0C0E19"/>
<path d="M51.0117 23.3184C49.255 23.3184 48.4759 22.2033 48.4759 20.5382C48.4759 18.8731 49.3466 17.6663 51.0728 17.6663C52.1574 17.6663 53.2115 18.1551 53.242 19.3772H52.02C51.9588 18.8272 51.5922 18.5523 51.0728 18.5523C50.0035 18.5523 49.6827 19.698 49.6827 20.5687C49.6827 21.4395 50.0035 22.4477 51.027 22.4477C51.5617 22.4477 51.9588 22.1574 52.0352 21.6075H53.2573C53.1351 22.8601 52.1422 23.3184 51.0117 23.3184Z" fill="#0C0E19"/>
</svg>
