<svg width="34" height="24" viewBox="0 0 34 24" fill="none" xmlns="http://www.w3.org/2000/svg">
<path d="M14.4959 9H7.50415V15.9918H14.4959V9Z" fill="white"/>
<path d="M17.9917 12.5041L14.4958 9V16L17.9917 12.5041Z" fill="#DB0011"/>
<path d="M11 12.5041L14.4959 9H7.50415L11 12.5041Z" fill="#DB0011"/>
<path d="M4 12.5041L7.50411 16V9L4 12.5041Z" fill="#DB0011"/>
<path d="M11 12.5041L7.50415 16H14.4959L11 12.5041Z" fill="#DB0011"/>
<path d="M21.0599 12.7098H19.7932V13.9601H19.1598V11.0317H19.7932V12.2327H21.0599V11.0317H21.6933V13.9601H21.0599V12.7098Z" fill="#0C0E19"/>
<path d="M23.2233 14.0176C22.5899 14.0176 22.0717 13.7626 22.0634 13.0634H22.6968C22.705 13.376 22.886 13.5652 23.2315 13.5652C23.4865 13.5652 23.7826 13.4336 23.7826 13.1457C23.7826 12.9154 23.5852 12.8496 23.2562 12.7509L23.0423 12.6933C22.5817 12.5617 22.121 12.3807 22.121 11.8543C22.121 11.2045 22.7297 10.9824 23.2808 10.9824C23.8484 10.9824 24.3419 11.1798 24.3502 11.8296H23.7168C23.6921 11.5664 23.5358 11.4101 23.2397 11.4101C23.0012 11.4101 22.7708 11.5335 22.7708 11.7967C22.7708 12.0106 22.9683 12.0764 23.3795 12.208L23.6263 12.282C24.1281 12.4383 24.4489 12.611 24.4489 13.1046C24.4406 13.7626 23.7991 14.0176 23.2233 14.0176Z" fill="#0C0E19"/>
<path d="M24.8026 11.04H25.8226C26.0117 11.0317 26.2092 11.04 26.3984 11.0729C26.7521 11.1551 27.0235 11.3854 27.0235 11.7803C27.0235 12.1586 26.785 12.3478 26.4395 12.4383C26.8343 12.5123 27.1304 12.7098 27.1304 13.1457C27.1304 13.812 26.4724 13.96 25.9624 13.96H24.8108L24.8026 11.04ZM25.8226 12.2573C26.1022 12.2573 26.3901 12.1998 26.3901 11.8625C26.3901 11.5582 26.1269 11.4759 25.8637 11.4759H25.4195V12.2573H25.8226ZM25.8801 13.5241C26.1763 13.5241 26.4642 13.4583 26.4642 13.0964C26.4642 12.7344 26.2174 12.6686 25.913 12.6686H25.4113V13.5241H25.8801Z" fill="#0C0E19"/>
<path d="M28.7755 14.0176C27.8296 14.0176 27.4101 13.4171 27.4101 12.5205C27.4101 11.6239 27.879 10.9741 28.8084 10.9741C29.3925 10.9741 29.96 11.2373 29.9765 11.8954H29.3184C29.2855 11.5993 29.0881 11.4512 28.8084 11.4512C28.2327 11.4512 28.0599 12.0681 28.0599 12.537C28.0599 13.0058 28.2327 13.5487 28.7838 13.5487C29.0717 13.5487 29.2855 13.3925 29.3267 13.0963H29.9847C29.9189 13.7708 29.3842 14.0176 28.7755 14.0176Z" fill="#0C0E19"/>
</svg>
