<svg width="46" height="32" viewBox="0 0 46 32" fill="none" xmlns="http://www.w3.org/2000/svg">
<path d="M18.9942 11H9.00592V20.9882H18.9942V11Z" fill="white"/>
<path d="M23.9882 16.0059L18.9941 11V21L23.9882 16.0059Z" fill="#DB0011"/>
<path d="M14 16.0059L18.9942 11H9.00592L14 16.0059Z" fill="#DB0011"/>
<path d="M4 16.0059L9.00587 21V11L4 16.0059Z" fill="#DB0011"/>
<path d="M14 16.0059L9.00592 21H18.9942L14 16.0059Z" fill="#DB0011"/>
<path d="M28.3714 16.2996H26.5617V18.0858H25.6569V13.9025H26.5617V15.6181H28.3714V13.9025H29.2762V18.0858H28.3714V16.2996Z" fill="#0C0E19"/>
<path d="M31.4618 18.168C30.557 18.168 29.8167 17.8038 29.8049 16.8049H30.7097C30.7215 17.2515 30.98 17.5217 31.4736 17.5217C31.8378 17.5217 32.2609 17.3337 32.2609 16.9224C32.2609 16.5934 31.9788 16.4994 31.5088 16.3584L31.2033 16.2762C30.5452 16.0881 29.8872 15.8296 29.8872 15.0776C29.8872 14.1492 30.7568 13.832 31.5441 13.832C32.3549 13.832 33.0599 14.114 33.0717 15.0423H32.1669C32.1316 14.6663 31.9083 14.443 31.4853 14.443C31.1445 14.443 30.8155 14.6193 30.8155 14.9953C30.8155 15.3008 31.0975 15.3948 31.6851 15.5828L32.0376 15.6886C32.7544 15.9119 33.2127 16.1586 33.2127 16.8637C33.2009 17.8038 32.2844 18.168 31.4618 18.168Z" fill="#0C0E19"/>
<path d="M33.718 13.9142H35.1751C35.4454 13.9025 35.7274 13.9142 35.9977 13.9612C36.503 14.0787 36.8908 14.4077 36.8908 14.9718C36.8908 15.5123 36.55 15.7826 36.0564 15.9119C36.6205 16.0176 37.0435 16.2996 37.0435 16.9224C37.0435 17.8743 36.1034 18.0858 35.3749 18.0858H33.7298L33.718 13.9142ZM35.1751 15.6533C35.5747 15.6533 35.9859 15.5711 35.9859 15.0893C35.9859 14.6545 35.6099 14.537 35.2339 14.537H34.5993V15.6533H35.1751ZM35.2574 17.463C35.6804 17.463 36.0917 17.369 36.0917 16.8519C36.0917 16.3349 35.7392 16.2409 35.3044 16.2409H34.5876V17.463H35.2574Z" fill="#0C0E19"/>
<path d="M39.3936 18.168C38.0423 18.168 37.443 17.3102 37.443 16.0294C37.443 14.7485 38.1128 13.8202 39.4406 13.8202C40.275 13.8202 41.0858 14.1962 41.1093 15.1363H40.1692C40.1222 14.7133 39.8402 14.5017 39.4406 14.5017C38.6181 14.5017 38.3713 15.3831 38.3713 16.0529C38.3713 16.7227 38.6181 17.4982 39.4054 17.4982C39.8167 17.4982 40.1222 17.2749 40.1809 16.8519H41.121C41.027 17.8155 40.2632 18.168 39.3936 18.168Z" fill="#0C0E19"/>
</svg>
