<svg width="34" height="24" viewBox="0 0 34 24" fill="none" xmlns="http://www.w3.org/2000/svg">
<g clip-path="url(#clip0_301_2977)">
<path fill-rule="evenodd" clip-rule="evenodd" d="M16.8338 6.88722V6.1657H14.4901V8.33065H15.9261V9.05216H14.4901V11.2167H16.8338V10.4956H15.2112V9.77446H16.6531V7.60835H15.2112V6.88761H16.8338V6.88722ZM12.3103 8.69453C12.3103 6.10089 14.4108 4.00037 17.0052 4.00037C19.5997 4.00037 21.7006 6.10089 21.7006 8.69453C21.7006 11.2882 19.5985 13.3891 17.0052 13.3891C14.412 13.3891 12.3103 11.2878 12.3103 8.69453ZM13.0373 8.69453C13.0373 6.5046 14.8138 4.72657 17.0052 4.72657C19.1967 4.72657 20.9724 6.5046 20.9724 8.69453C20.9724 10.8845 19.1956 12.6621 17.0052 12.6621C14.8149 12.6621 13.0373 10.8852 13.0373 8.69453ZM17.1969 10.4968V11.2179H19.5368V9.05451H18.0981V8.33338H19.5368V6.16648H17.1969V6.888H18.8149V7.61108H17.373V9.77524H18.8149V10.4964H17.1969V10.4968Z" fill="#B2292E"/>
<path d="M16.8338 6.88722V6.1657H14.4901V8.33065H15.9261V9.05216H14.4901V11.2167H16.8338V10.4956H15.2112V9.77446H16.6531V7.60835H15.2112V6.88761H16.8338V6.88722ZM12.3103 8.69453C12.3103 6.10089 14.4108 4.00037 17.0052 4.00037C19.5997 4.00037 21.7006 6.10089 21.7006 8.69453C21.7006 11.2882 19.5985 13.3891 17.0052 13.3891C14.412 13.3891 12.3103 11.2878 12.3103 8.69453ZM13.0373 8.69453C13.0373 6.5046 14.8138 4.72657 17.0052 4.72657C19.1967 4.72657 20.9724 6.5046 20.9724 8.69453C20.9724 10.8845 19.1956 12.6621 17.0052 12.6621C14.8149 12.6621 13.0373 10.8852 13.0373 8.69453ZM17.197 10.4968V11.2179H19.5368V9.05451H18.0981V8.33338H19.5368V6.16648H17.197V6.888H18.8149V7.61108H17.373V9.77524H18.8149V10.4964H17.197V10.4968Z" stroke="#B2292E" stroke-width="0.0036"/>
<path d="M18.1765 18.9999C18.624 18.9999 18.9609 18.8918 19.1792 18.679C19.4033 18.4596 19.4501 18.1777 19.4501 17.9794C19.4501 17.5452 19.2682 17.2434 18.9082 17.0833L18.8926 17.0767L18.9078 17.0689C19.0702 16.9841 19.285 16.812 19.285 16.2974C19.285 16.0151 19.1776 15.7605 18.982 15.5809C18.768 15.3834 18.4561 15.2795 18.0797 15.2795L16.1307 15.278V18.9992L18.1765 19.0003V18.9999ZM16.8385 16.7393V15.9624H18.0192C18.2269 15.9624 18.5752 15.9624 18.5752 16.3716C18.5752 16.5215 18.51 16.6285 18.3811 16.6878C18.2659 16.7417 18.1207 16.7479 18.0219 16.7479H16.8385V16.7393ZM16.8385 17.4308V17.423H18.1285C18.246 17.423 18.4155 17.4413 18.5517 17.53C18.6786 17.6131 18.7431 17.7353 18.7431 17.8938C18.7431 18.0207 18.7079 18.1195 18.6404 18.1875C18.5139 18.314 18.2952 18.3136 18.1359 18.3136H16.8346V18.3054L16.8389 17.4308H16.8385Z" fill="#161519"/>
<path d="M11.7422 15.2792H11V19H11.7422V15.2792Z" fill="#161519"/>
<path d="M12.345 17.1079C12.345 17.4679 12.4059 17.765 12.532 18.0157C12.6363 18.225 12.7839 18.4007 12.997 18.5705C13.3289 18.8348 13.7963 18.9687 14.3854 18.9687H15.4013V18.266H14.442C13.9087 18.266 13.521 18.1336 13.2914 17.8732C13.1286 17.6873 13.0447 17.4386 13.0427 17.1314C13.04 16.8022 13.1329 16.5403 13.318 16.3536C13.5495 16.1198 13.9278 16.0015 14.442 16.0015H15.4013V15.3049H14.421C14.0906 15.3049 13.8138 15.3381 13.5741 15.4049C13.3352 15.4724 13.138 15.5728 12.9732 15.7118C12.7382 15.9093 12.3446 16.3536 12.3446 17.1079" fill="#161519"/>
<path d="M19.8983 17.1079C19.8983 17.4671 19.9612 17.7842 20.085 18.0489C20.1927 18.2784 20.3493 18.476 20.5504 18.6373C20.8615 18.8852 21.3035 19.0004 21.9391 19.0004H23.0105V18.298H21.9954C21.4628 18.298 21.0755 18.1601 20.8444 17.8888C20.6819 17.6975 20.5988 17.4425 20.5957 17.1314C20.5925 16.7929 20.689 16.5227 20.8811 16.3294C21.1141 16.0944 21.489 15.9749 21.9954 15.9749H23.0105V15.2795H21.9747C21.6447 15.2795 21.3675 15.3123 21.1282 15.3795C20.8885 15.4463 20.6913 15.5466 20.5269 15.686C20.338 15.8445 19.8979 16.3021 19.8979 17.1083" fill="#161519"/>
</g>
<defs>
<clipPath id="clip0_301_2977">
<rect width="12.0105" height="15" fill="white" transform="translate(11 4)"/>
</clipPath>
</defs>
</svg>
