<svg width="58" height="40" viewBox="0 0 58 40" fill="none" xmlns="http://www.w3.org/2000/svg">
<g clip-path="url(#clip0_301_3154)">
<path fill-rule="evenodd" clip-rule="evenodd" d="M28.8898 11.3895V10.0427H24.5148V14.0839H27.1953V15.4308H24.5148V19.4713H28.8898V18.1252H25.8609V16.779H28.5524V12.7356H25.8609V11.3903H28.8898V11.3895ZM20.4459 14.7632C20.4459 9.92171 24.3668 6.00073 29.2098 6.00073C34.0527 6.00073 37.9744 9.92171 37.9744 14.7632C37.9744 19.6046 34.0505 23.5263 29.2098 23.5263C24.369 23.5263 20.4459 19.6039 20.4459 14.7632ZM21.8029 14.7632C21.8029 10.6753 25.119 7.35631 29.2098 7.35631C33.3005 7.35631 36.6152 10.6753 36.6152 14.7632C36.6152 18.851 33.2984 22.1693 29.2098 22.1693C25.1212 22.1693 21.8029 18.8525 21.8029 14.7632ZM29.5676 18.1273V19.4734H33.9353V15.4351H31.2497V14.089H33.9353V10.0441H29.5676V11.391H32.5878V12.7407H29.8963V16.7805H32.5878V18.1266H29.5676V18.1273Z" fill="#B2292E"/>
<path d="M28.8898 11.3895V10.0427H24.5148V14.0839H27.1953V15.4308H24.5148V19.4713H28.8898V18.1252H25.8609V16.779H28.5524V12.7356H25.8609V11.3903H28.8898V11.3895ZM20.4459 14.7632C20.4459 9.92171 24.3668 6.00073 29.2098 6.00073C34.0527 6.00073 37.9744 9.92171 37.9744 14.7632C37.9744 19.6046 34.0505 23.5263 29.2098 23.5263C24.369 23.5263 20.4459 19.6039 20.4459 14.7632ZM21.8029 14.7632C21.8029 10.6753 25.119 7.35631 29.2098 7.35631C33.3005 7.35631 36.6152 10.6753 36.6152 14.7632C36.6152 18.851 33.2984 22.1693 29.2098 22.1693C25.1212 22.1693 21.8029 18.8525 21.8029 14.7632ZM29.5676 18.1273V19.4734H33.9353V15.4351H31.2497V14.089H33.9353V10.0441H29.5676V11.391H32.5878V12.7407H29.8963V16.7805H32.5878V18.1266H29.5676V18.1273Z" stroke="#B2292E" stroke-width="0.0036"/>
<path d="M31.3962 34C32.2314 34 32.8604 33.7981 33.2678 33.4009C33.6861 32.9913 33.7736 32.4651 33.7736 32.0949C33.7736 31.2844 33.434 30.7211 32.762 30.4222L32.7328 30.4099L32.7613 30.3953C33.0645 30.2371 33.4653 29.9157 33.4653 28.9552C33.4653 28.4282 33.2649 27.9531 32.8997 27.6178C32.5004 27.249 31.918 27.0552 31.2155 27.0552L27.5773 27.0522V33.9985L31.3962 34.0007V34ZM28.8986 29.7802V28.3298H31.1025C31.4902 28.3298 32.1403 28.3298 32.1403 29.0936C32.1403 29.3735 32.0186 29.5732 31.7781 29.684C31.5631 29.7845 31.292 29.7962 31.1076 29.7962H28.8986V29.7802ZM28.8986 31.0709V31.0563H31.3066C31.5259 31.0563 31.8422 31.0906 32.0966 31.256C32.3335 31.4112 32.4537 31.6394 32.4537 31.9352C32.4537 32.1721 32.3881 32.3565 32.262 32.4833C32.0259 32.7194 31.6178 32.7187 31.3204 32.7187H28.8913V32.7034L28.8993 31.0709H28.8986Z" fill="#161519"/>
<path d="M19.3855 27.0544H18V34H19.3855V27.0544Z" fill="#161519"/>
<path d="M20.5107 30.4682C20.5107 31.1401 20.6244 31.6947 20.8598 32.1626C21.0544 32.5533 21.3299 32.8812 21.7278 33.1983C22.3473 33.6917 23.2197 33.9417 24.3195 33.9417H26.2158V32.6298H24.4252C23.4296 32.6298 22.7059 32.3827 22.2774 31.8966C21.9735 31.5497 21.8168 31.0855 21.8131 30.5119C21.808 29.8975 21.9815 29.4085 22.3269 29.0601C22.7591 28.6236 23.4653 28.4027 24.4252 28.4027H26.2158V27.1025H24.3858C23.7692 27.1025 23.2525 27.1645 22.805 27.2891C22.359 27.4152 21.9909 27.6025 21.6834 27.862C21.2446 28.2307 20.51 29.0601 20.51 30.4682" fill="#161519"/>
<path d="M34.6102 30.4682C34.6102 31.1387 34.7276 31.7305 34.9586 32.2246C35.1597 32.6531 35.452 33.0219 35.8273 33.3229C36.4082 33.7857 37.2332 34.0007 38.4197 34.0007H40.4195V32.6896H38.5246C37.5306 32.6896 36.8076 32.4323 36.3761 31.9258C36.0729 31.5687 35.9177 31.0928 35.9119 30.5119C35.906 29.88 36.0861 29.3757 36.4446 29.0149C36.8797 28.5762 37.5794 28.3532 38.5246 28.3532H40.4195V27.0552H38.486C37.8702 27.0552 37.3527 27.1164 36.906 27.2417C36.4585 27.3664 36.0904 27.5537 35.7836 27.8139C35.4309 28.1098 34.6095 28.9639 34.6095 30.4689" fill="#161519"/>
</g>
<defs>
<clipPath id="clip0_301_3154">
<rect width="22.4195" height="28" fill="white" transform="translate(18 6)"/>
</clipPath>
</defs>
</svg>
