<svg width="28" height="20" viewBox="0 0 28 20" fill="none" xmlns="http://www.w3.org/2000/svg">
<g clip-path="url(#clip0_301_3036)">
<path fill-rule="evenodd" clip-rule="evenodd" d="M14.3145 5.12519V4.34422H11.7776V6.68754H13.3319V7.4685H11.7776V9.81139H14.3145V9.03085H12.5582V8.25031H14.1188V5.90573H12.5582V5.12561H14.3145V5.12519ZM9.41824 7.0814C9.41824 4.27407 11.6918 2.00049 14.5 2.00049C17.3082 2.00049 19.5822 4.27407 19.5822 7.0814C19.5822 9.88872 17.3069 12.1627 14.5 12.1627C11.6931 12.1627 9.41824 9.8883 9.41824 7.0814ZM10.2051 7.0814C10.2051 4.71104 12.1279 2.78652 14.5 2.78652C16.872 2.78652 18.794 4.71104 18.794 7.0814C18.794 9.45176 16.8708 11.3759 14.5 11.3759C12.1292 11.3759 10.2051 9.4526 10.2051 7.0814ZM14.7075 9.03211V9.81266H17.2401V7.47103H15.6829V6.69049H17.2401V4.34507H14.7075V5.12603H16.4587V5.90868H14.8981V8.25115H16.4587V9.03169H14.7075V9.03211Z" fill="#B2292E"/>
<path d="M14.3145 5.12519V4.34422H11.7776V6.68754H13.3319V7.4685H11.7776V9.81139H14.3145V9.03085H12.5582V8.25031H14.1188V5.90573H12.5582V5.12561H14.3145V5.12519ZM9.41824 7.0814C9.41824 4.27407 11.6918 2.00049 14.5 2.00049C17.3082 2.00049 19.5822 4.27407 19.5822 7.0814C19.5822 9.88872 17.3069 12.1627 14.5 12.1627C11.6931 12.1627 9.41824 9.8883 9.41824 7.0814ZM10.2051 7.0814C10.2051 4.71104 12.1279 2.78652 14.5 2.78652C16.872 2.78652 18.794 4.71104 18.794 7.0814C18.794 9.45176 16.8708 11.3759 14.5 11.3759C12.1292 11.3759 10.2051 9.4526 10.2051 7.0814ZM14.7075 9.03212V9.81266H17.2401V7.47103H15.6829V6.69049H17.2401V4.34507H14.7075V5.12603H16.4587V5.90868H14.8981V8.25115H16.4587V9.03169H14.7075V9.03212Z" stroke="#B2292E" stroke-width="0.0036"/>
<path d="M15.7678 18.2359C16.2521 18.2359 16.6168 18.1189 16.853 17.8885C17.0956 17.651 17.1463 17.3459 17.1463 17.1312C17.1463 16.6613 16.9494 16.3346 16.5597 16.1614L16.5428 16.1542L16.5593 16.1457C16.7351 16.054 16.9676 15.8677 16.9676 15.3107C16.9676 15.0051 16.8513 14.7296 16.6396 14.5352C16.408 14.3214 16.0704 14.209 15.663 14.209L13.5534 14.2073V18.2351L15.7678 18.2363V18.2359ZM14.3195 15.7891V14.9481H15.5975C15.8223 14.9481 16.1993 14.9481 16.1993 15.391C16.1993 15.5533 16.1287 15.669 15.9892 15.7333C15.8646 15.7916 15.7074 15.7984 15.6004 15.7984H14.3195V15.7891ZM14.3195 16.5375V16.529H15.7158C15.843 16.529 16.0264 16.5489 16.1739 16.6448C16.3113 16.7348 16.381 16.8671 16.381 17.0387C16.381 17.176 16.343 17.283 16.2698 17.3565C16.1329 17.4934 15.8963 17.493 15.7238 17.493H14.3153V17.4841L14.32 16.5375H14.3195Z" fill="#161519"/>
<path d="M8.80336 14.2085H8V18.2359H8.80336V14.2085Z" fill="#161519"/>
<path d="M9.45587 16.1879C9.45587 16.5775 9.52179 16.8991 9.65829 17.1704C9.77113 17.3969 9.93087 17.5871 10.1616 17.7709C10.5208 18.057 11.0267 18.202 11.6644 18.202H12.764V17.4413H11.7256C11.1484 17.4413 10.7287 17.2981 10.4802 17.0162C10.304 16.815 10.2132 16.5458 10.2111 16.2132C10.2081 15.857 10.3087 15.5734 10.509 15.3714C10.7596 15.1183 11.1691 14.9902 11.7256 14.9902H12.764V14.2363H11.7028C11.3453 14.2363 11.0457 14.2722 10.7862 14.3445C10.5276 14.4176 10.3142 14.5262 10.1358 14.6767C9.88142 14.8905 9.45544 15.3714 9.45544 16.1879" fill="#161519"/>
<path d="M17.6315 16.1879C17.6315 16.5767 17.6995 16.9198 17.8335 17.2064C17.9501 17.4548 18.1196 17.6687 18.3372 17.8432C18.674 18.1116 19.1524 18.2362 19.8404 18.2362H21V17.476H19.9012C19.3248 17.476 18.9056 17.3268 18.6554 17.0331C18.4796 16.826 18.3896 16.5501 18.3862 16.2132C18.3828 15.8469 18.4872 15.5544 18.6951 15.3452C18.9474 15.0908 19.3531 14.9615 19.9012 14.9615H21V14.2089H19.8788C19.5218 14.2089 19.2217 14.2444 18.9627 14.317C18.7032 14.3893 18.4898 14.4979 18.3118 14.6488C18.1073 14.8204 17.631 15.3156 17.631 16.1883" fill="#161519"/>
</g>
<defs>
<clipPath id="clip0_301_3036">
<rect width="13" height="16.2358" fill="white" transform="translate(8 2)"/>
</clipPath>
</defs>
</svg>
