<svg width="46" height="32" viewBox="0 0 46 32" fill="none" xmlns="http://www.w3.org/2000/svg">
<g clip-path="url(#clip0_301_3095)">
<path fill-rule="evenodd" clip-rule="evenodd" d="M22.7784 9.84963V8.8876H19.6534V11.7742H21.5681V12.7362H19.6534V15.6223H22.7784V14.6608H20.6149V13.6993H22.5374V10.8111H20.6149V9.85015H22.7784V9.84963ZM16.747 12.2594C16.747 8.80119 19.5477 6.00049 23.007 6.00049C26.4662 6.00049 29.2674 8.80119 29.2674 12.2594C29.2674 15.7176 26.4646 18.5188 23.007 18.5188C19.5493 18.5188 16.747 15.717 16.747 12.2594ZM17.7164 12.2594C17.7164 9.33946 20.085 6.96876 23.007 6.96876C25.929 6.96876 28.2965 9.33946 28.2965 12.2594C28.2965 15.1793 25.9274 17.5495 23.007 17.5495C20.0865 17.5495 17.7164 15.1803 17.7164 12.2594ZM23.2626 14.6623V15.6239H26.3824V12.7393H24.4641V11.7778H26.3824V8.88864H23.2626V9.85067H25.4198V10.8148H23.4973V13.7003H25.4198V14.6618H23.2626V14.6623Z" fill="#B2292E"/>
<path d="M22.7784 9.84963V8.8876H19.6534V11.7742H21.5681V12.7362H19.6534V15.6223H22.7784V14.6608H20.6149V13.6993H22.5374V10.8111H20.6149V9.85015H22.7784V9.84963ZM16.747 12.2594C16.747 8.80119 19.5477 6.00049 23.007 6.00049C26.4662 6.00049 29.2674 8.80119 29.2674 12.2594C29.2674 15.7176 26.4646 18.5188 23.007 18.5188C19.5493 18.5188 16.747 15.717 16.747 12.2594ZM17.7164 12.2594C17.7164 9.33946 20.085 6.96876 23.007 6.96876C25.929 6.96876 28.2965 9.33946 28.2965 12.2594C28.2965 15.1793 25.9274 17.5495 23.007 17.5495C20.0865 17.5495 17.7164 15.1803 17.7164 12.2594ZM23.2626 14.6623V15.6239H26.3824V12.7393H24.4641V11.7778H26.3824V8.88864H23.2626V9.85067H25.4198V10.8148H23.4973V13.7003H25.4198V14.6618H23.2626V14.6623Z" stroke="#B2292E" stroke-width="0.0036"/>
<path d="M24.5687 26C25.1653 26 25.6145 25.8558 25.9055 25.5721C26.2043 25.2795 26.2668 24.9037 26.2668 24.6392C26.2668 24.0603 26.0242 23.6579 25.5443 23.4445L25.5234 23.4356L25.5437 23.4252C25.7603 23.3123 26.0466 23.0827 26.0466 22.3966C26.0466 22.0202 25.9035 21.6808 25.6426 21.4413C25.3574 21.1779 24.9414 21.0394 24.4396 21.0394L21.8409 21.0374V25.999L24.5687 26.0005V26ZM22.7847 22.9859V21.9499H24.3589C24.6359 21.9499 25.1002 21.9499 25.1002 22.4955C25.1002 22.6954 25.0133 22.838 24.8415 22.9172C24.6879 22.989 24.4943 22.9973 24.3626 22.9973H22.7847V22.9859ZM22.7847 23.9078V23.8974H24.5047C24.6614 23.8974 24.8873 23.9219 25.069 24.04C25.2382 24.1509 25.3241 24.3139 25.3241 24.5252C25.3241 24.6944 25.2772 24.8261 25.1871 24.9167C25.0185 25.0854 24.727 25.0848 24.5146 25.0848H22.7795V25.0739L22.7852 23.9078H22.7847Z" fill="#161519"/>
<path d="M15.9896 21.0389H15V26H15.9896V21.0389Z" fill="#161519"/>
<path d="M16.7934 23.4773C16.7934 23.9572 16.8746 24.3534 17.0428 24.6876C17.1817 24.9666 17.3785 25.2009 17.6628 25.4273C18.1052 25.7798 18.7284 25.9583 19.5139 25.9583H20.8685V25.0213H19.5894C18.8783 25.0213 18.3614 24.8448 18.0553 24.4976C17.8382 24.2498 17.7263 23.9182 17.7237 23.5085C17.72 23.0697 17.8439 22.7203 18.0907 22.4715C18.3994 22.1597 18.9038 22.002 19.5894 22.002H20.8685V21.0732H19.5613C19.1209 21.0732 18.7518 21.1175 18.4322 21.2065C18.1136 21.2966 17.8507 21.4304 17.631 21.6157C17.3176 21.8791 16.7929 22.4715 16.7929 23.4773" fill="#161519"/>
<path d="M26.8645 23.4773C26.8645 23.9562 26.9483 24.3789 27.1133 24.7319C27.257 25.038 27.4657 25.3014 27.7338 25.5164C28.1487 25.8469 28.738 26.0005 29.5855 26.0005H31.014V25.064H29.6605C28.9504 25.064 28.434 24.8802 28.1258 24.5184C27.9093 24.2634 27.7984 23.9234 27.7942 23.5085C27.7901 23.0572 27.9186 22.6969 28.1748 22.4393C28.4855 22.1259 28.9853 21.9666 29.6605 21.9666H31.014V21.0394H29.6329C29.193 21.0394 28.8234 21.0832 28.5043 21.1727C28.1847 21.2617 27.9218 21.3955 27.7026 21.5813C27.4506 21.7927 26.864 22.4028 26.864 23.4778" fill="#161519"/>
</g>
<defs>
<clipPath id="clip0_301_3095">
<rect width="16.014" height="20" fill="white" transform="translate(15 6)"/>
</clipPath>
</defs>
</svg>
