<svg width="34" height="24" viewBox="0 0 34 24" fill="none" xmlns="http://www.w3.org/2000/svg">
<path fill-rule="evenodd" clip-rule="evenodd" d="M9.24146 4.95593H17.3322C22.83 4.95593 24.9427 8.04888 24.9427 11.9584C24.9427 16.6349 21.9897 18.9855 17.3322 18.9855H9.24146V4.95593ZM10.0097 5.79721V18.1937H17.3321C21.7496 18.1937 24.1504 16.0658 24.1504 11.9831C24.1504 7.7767 21.5575 5.79721 17.3321 5.79721H10.0097ZM12.1704 12.2058C12.9792 12.2058 13.6349 11.53 13.6349 10.6964C13.6349 9.86283 12.9792 9.18707 12.1704 9.18707C11.3616 9.18707 10.7059 9.86283 10.7059 10.6964C10.7059 11.53 11.3616 12.2058 12.1704 12.2058ZM10.9941 12.8491H13.3469V17.1545H10.9941V12.8491Z" fill="#0C0E19"/>
<path fill-rule="evenodd" clip-rule="evenodd" d="M21.4855 9.31079H22.1578V11.3893H23.1421C22.878 7.60349 19.973 6.76221 17.3321 6.76221H14.5232V9.31079H14.9313C15.6996 9.31079 16.1557 9.83041 16.1557 10.6964C16.1557 11.5625 15.6996 12.0821 14.9553 12.0821H14.5232V17.1545H17.3321C21.6296 17.1545 23.0941 15.1008 23.1661 12.0821H21.4855V9.31079ZM18.2444 11.3893V12.0821H16.5639V9.3108H18.1964V10.0036H17.2361V10.3253H18.1484V11.0181H17.2601V11.3893H18.2444ZM18.5325 12.0821L19.3487 9.3108H20.3091L21.1253 12.0821H20.4291L20.2851 11.5625H19.3968L19.2527 12.0821H18.5325ZM19.5964 10.8449H19.5889V10.8696L19.5964 10.8449ZM19.5964 10.8449H20.069L19.853 10.0778H19.8289L19.5964 10.8449ZM14.5232 11.3893V10.0036H14.9313C15.1954 10.0036 15.4835 10.0778 15.4835 10.6964C15.4835 11.315 15.2194 11.3893 14.9313 11.3893H14.5232Z" fill="#D50072"/>
</svg>
