<svg width="46" height="32" viewBox="0 0 46 32" fill="none" xmlns="http://www.w3.org/2000/svg">
<path fill-rule="evenodd" clip-rule="evenodd" d="M12.3219 6.60791H23.1095C30.44 6.60791 33.2569 10.7318 33.2569 15.9445C33.2569 22.1799 29.3196 25.3141 23.1095 25.3141H12.3219V6.60791ZM13.3462 7.72962V24.2583H23.1094C28.9994 24.2583 32.2005 21.4211 32.2005 15.9775C32.2005 10.3689 28.7433 7.72962 23.1094 7.72962H13.3462ZM16.2272 16.2744C17.3056 16.2744 18.1798 15.3734 18.1798 14.2619C18.1798 13.1504 17.3056 12.2494 16.2272 12.2494C15.1488 12.2494 14.2745 13.1504 14.2745 14.2619C14.2745 15.3734 15.1488 16.2744 16.2272 16.2744ZM14.6587 17.1322H17.7958V22.8727H14.6587V17.1322Z" fill="#0C0E19"/>
<path fill-rule="evenodd" clip-rule="evenodd" d="M28.6474 12.4144H29.5437V15.1857H30.8561C30.504 10.138 26.6307 9.0163 23.1095 9.0163H19.3643V12.4144H19.9084C20.9328 12.4144 21.541 13.1072 21.541 14.2619C21.541 15.4166 20.9328 16.1095 19.9405 16.1095H19.3643V22.8727H23.1095C28.8394 22.8727 30.7921 20.1344 30.8881 16.1095H28.6474V12.4144ZM24.3259 15.1857V16.1095H22.0852V12.4144H24.2619V13.3382H22.9815V13.7671H24.1979V14.6908H23.0135V15.1857H24.3259ZM24.71 16.1095L25.7983 12.4144H27.0788L28.1671 16.1095H27.2388L27.0467 15.4166H25.8623L25.6703 16.1095H24.71ZM26.1285 14.4599H26.1185V14.4929L26.1285 14.4599ZM26.1285 14.4599H26.7587L26.4706 13.4371H26.4386L26.1285 14.4599ZM19.3643 15.1857V13.3382H19.9084C20.2606 13.3382 20.6447 13.4372 20.6447 14.2619C20.6447 15.0867 20.2926 15.1857 19.9084 15.1857H19.3643Z" fill="#D50072"/>
</svg>
