<svg width="28" height="20" viewBox="0 0 28 20" fill="none" xmlns="http://www.w3.org/2000/svg">
<path fill-rule="evenodd" clip-rule="evenodd" d="M7.6106 4.12994H14.2735C18.8012 4.12994 20.541 6.7074 20.541 9.9653C20.541 13.8624 18.1092 15.8213 14.2735 15.8213H7.6106V4.12994ZM8.24323 4.83101V15.1615H14.2735C17.9114 15.1615 19.8885 13.3882 19.8885 9.98592C19.8885 6.48058 17.7532 4.83101 14.2735 4.83101H8.24323ZM10.0227 10.1715C10.6888 10.1715 11.2287 9.60835 11.2287 8.91369C11.2287 8.21902 10.6888 7.65589 10.0227 7.65589C9.3566 7.65589 8.81663 8.21902 8.81663 8.91369C8.81663 9.60835 9.3566 10.1715 10.0227 10.1715ZM9.05394 10.7076H10.9915V14.2954H9.05394V10.7076Z" fill="#0C0E19"/>
<path fill-rule="evenodd" clip-rule="evenodd" d="M17.694 7.75902H18.2476V9.49107H19.0582C18.8407 6.33626 16.4484 5.63519 14.2735 5.63519H11.9603V7.75902H12.2964C12.9291 7.75902 13.3047 8.19203 13.3047 8.91372C13.3047 9.6354 12.9291 10.0684 12.3162 10.0684H11.9603V14.2954H14.2735C17.8126 14.2954 19.0186 12.584 19.0779 10.0684H17.694V7.75902ZM15.0248 9.49107V10.0684H13.6408V7.75902H14.9853V8.33637H14.1944V8.60442H14.9457V9.18177H14.2142V9.49107H15.0248ZM15.262 10.0684L15.9342 7.75902H16.7251L17.3973 10.0684H16.824L16.7053 9.6354H15.9738L15.8552 10.0684H15.262ZM16.1382 9.03743H16.132V9.05805L16.1382 9.03743ZM16.1382 9.03743H16.5274L16.3495 8.39822H16.3297L16.1382 9.03743ZM11.9603 9.49107V8.33637H12.2964C12.5139 8.33637 12.7511 8.39823 12.7511 8.91372C12.7511 9.42921 12.5336 9.49107 12.2964 9.49107H11.9603Z" fill="#D50072"/>
</svg>
