<svg width="58" height="40" viewBox="0 0 58 40" fill="none" xmlns="http://www.w3.org/2000/svg">
<path fill-rule="evenodd" clip-rule="evenodd" d="M41.585 31.0348C41.585 31.6218 41.3518 32.1848 40.9367 32.5999C40.5216 33.015 39.9587 33.2481 39.3717 33.2481H17.2158C16.925 33.2485 16.6369 33.1915 16.3681 33.0804C16.0992 32.9693 15.8549 32.8063 15.6492 32.6008C15.4434 32.3952 15.2801 32.1511 15.1687 31.8824C15.0573 31.6137 15 31.3257 15 31.0348V8.88001C15 8.58914 15.0573 8.30112 15.1687 8.03243C15.2801 7.76373 15.4434 7.51962 15.6492 7.31406C15.8549 7.10851 16.0992 6.94553 16.3681 6.83444C16.6369 6.72336 16.925 6.66636 17.2158 6.66669H39.3701C39.9571 6.66669 40.5201 6.89988 40.9352 7.31495C41.3503 7.73003 41.5835 8.293 41.5835 8.88001L41.585 31.0348Z" fill="#EDAA00"/>
<path d="M29.8439 20.2444V15.4843L31.0868 15.19V15.8133C31.0868 15.8133 31.4083 14.9928 32.1548 14.8022C32.3846 14.7443 32.5003 14.779 32.5003 14.779V15.9933C32.2767 15.9964 32.0557 16.0425 31.8494 16.1292C31.3887 16.3108 31.1573 16.7081 31.1573 17.3118V19.9401L29.8439 20.2444ZM23.2939 21.7922C23.2939 21.7922 23.0927 21.4904 23.0927 20.418V18.0482L22.4529 18.1991V17.2237L23.0932 17.0728V16.0084L24.4147 15.6966V16.7584L25.3483 16.5371V17.513L24.4147 17.7348V20.1494C24.4147 21.2465 24.7059 21.4572 24.7059 21.4572L23.2939 21.7922ZM25.4861 18.9607C25.4861 18.1141 25.6069 17.4969 25.8654 17.023C26.1728 16.4607 26.6783 16.0945 27.4137 15.9269C28.863 15.5975 29.3856 16.4556 29.365 17.6055C29.3584 18.0165 29.3599 18.2172 29.3599 18.2172L26.8066 18.8173V18.8586C26.8066 19.6634 26.9756 20.0442 27.4847 19.9356C27.9243 19.843 28.0465 19.5673 28.0813 19.2273C28.0873 19.1715 28.0893 19.0321 28.0893 19.0321L29.286 18.7454C29.286 18.7454 29.289 18.8435 29.286 18.9526C29.2749 19.4099 29.1421 20.5437 27.4796 20.9361C25.9052 21.3098 25.4846 20.348 25.4846 18.9607H25.4861ZM27.465 16.8133C27.042 16.9094 26.8202 17.3244 26.8111 18.012L28.0958 17.7061C28.0984 17.675 28.0984 17.6055 28.0984 17.4989C28.0958 16.9803 27.9354 16.7066 27.4655 16.8133H27.465ZM36.9702 16.1769C36.9199 14.7272 37.2962 13.5763 38.9134 13.2091C39.9457 12.9747 40.3365 13.2423 40.5347 13.5013C40.7253 13.7488 40.7988 14.0823 40.7988 14.5497V14.6362L39.5322 14.938V14.7614C39.5322 14.2081 39.3813 13.9968 38.9788 14.0974C38.5005 14.2177 38.3073 14.6714 38.3073 15.5748V15.9959C38.3073 16.9139 38.433 17.3344 38.9839 17.2187C39.4627 17.1181 39.5281 16.6996 39.5372 16.3314C39.5372 16.2735 39.5407 16.0884 39.5407 16.0884L40.8053 15.7906V15.9873C40.8018 17.1905 40.1675 17.9491 38.9783 18.2258C37.342 18.6101 37.0211 17.6629 36.9707 16.1769H36.9702ZM32.5954 18.2062C32.5954 17.1035 33.2423 16.7549 34.2147 16.353C35.0884 15.9913 35.107 15.8117 35.1111 15.4979C35.1156 15.2338 34.9933 15.0069 34.5577 15.1181C34.1578 15.2187 34.0517 15.5094 34.0306 15.7408C34.0232 15.8221 34.0205 15.9037 34.0225 15.9853L32.7966 16.2745C32.7884 16.0302 32.8169 15.786 32.8811 15.5502C33.0773 14.8907 33.6593 14.447 34.6624 14.2151C35.9662 13.9133 36.4013 14.4868 36.4033 15.3771V17.4853C36.4033 18.505 36.5925 18.6539 36.5925 18.6539L35.3887 18.9391C35.3222 18.7999 35.268 18.6551 35.2268 18.5065C35.2268 18.5065 34.9637 19.17 34.0552 19.3842C33.0995 19.6086 32.5964 19.018 32.5964 18.2067L32.5954 18.2062ZM35.104 16.7011C34.901 16.8434 34.6867 16.9687 34.4632 17.0759C34.0607 17.2725 33.8801 17.514 33.8801 17.8862C33.8801 18.2087 34.0814 18.421 34.4435 18.3304C34.8334 18.2328 35.104 17.8691 35.104 17.3646V16.7011ZM16.3864 25.1288C16.249 25.1285 16.1143 25.0912 15.9963 25.0208C15.8783 24.9504 15.7816 24.8495 15.7161 24.7287C15.6507 24.6079 15.619 24.4717 15.6245 24.3345C15.6299 24.1972 15.6722 24.0639 15.747 23.9487L15.7551 23.9382L15.7697 23.9346L17.5655 23.5106V24.8753L17.5373 24.8818C17.1299 24.9799 16.6429 25.0911 16.5423 25.1117C16.4908 25.1232 16.4382 25.129 16.3854 25.1288H16.3864ZM16.3864 26.8748C16.1846 26.8748 15.991 26.7948 15.848 26.6524C15.7051 26.5099 15.6245 26.3166 15.6238 26.1147C15.623 25.9674 15.6659 25.8232 15.747 25.7003L15.7551 25.6867L15.7697 25.6837L17.5655 25.2596V26.6243L17.5373 26.6319C17.1299 26.7294 16.6429 26.8426 16.5423 26.8622C16.4906 26.8724 16.4381 26.8774 16.3854 26.8773L16.3864 26.8748ZM16.3864 28.6238C16.1841 28.6237 15.9901 28.5433 15.8471 28.4002C15.7041 28.2571 15.6238 28.0631 15.6238 27.8608C15.623 27.7134 15.6659 27.5692 15.747 27.4463L15.7551 27.4322L17.566 27.0056V28.3703L17.5378 28.3774C17.1077 28.481 16.6293 28.5891 16.5428 28.6088C16.4911 28.6186 16.4385 28.6237 16.3859 28.6238" fill="#231F20"/>
<path d="M16.1751 23.4562L16.1746 15.8208L17.5664 15.4918V23.1268L16.1751 23.4562Z" fill="#231F20"/>
<path d="M19.6425 22.8068C19.637 22.5826 19.5442 22.3694 19.3837 22.2128C19.2232 22.0561 19.0078 21.9684 18.7835 21.9684C18.5593 21.9684 18.3439 22.0561 18.1834 22.2128C18.0229 22.3694 17.93 22.5826 17.9246 22.8068V29.9437C17.9257 30.5601 18.171 31.1509 18.6067 31.5868C19.0425 32.0226 19.6333 32.268 20.2496 32.2692C20.8995 32.2692 22.6802 32.2662 22.6802 32.2662V25.9688C22.6806 25.7837 22.6351 25.6014 22.548 25.4381C22.4608 25.2747 22.3347 25.1355 22.1807 25.0327L20.0137 23.5608V26.9029C20.015 26.928 20.0112 26.953 20.0025 26.9765C19.9939 27 19.9805 27.0215 19.9632 27.0397C19.946 27.0578 19.9252 27.0723 19.9022 27.0822C19.8792 27.0921 19.8544 27.0972 19.8293 27.0972C19.8043 27.0972 19.7795 27.0921 19.7565 27.0822C19.7334 27.0723 19.7127 27.0578 19.6954 27.0397C19.6782 27.0215 19.6648 27 19.6561 26.9765C19.6475 26.953 19.6437 26.928 19.645 26.9029C19.645 26.8672 19.6404 23.248 19.6404 22.8068H19.6425ZM20.8024 17.4823C20.5393 17.5431 20.2923 17.6599 20.0784 17.8249C19.8645 17.9898 19.6887 18.1989 19.563 18.438V17.9033L18.3099 18.2001V21.6272C18.5297 21.5405 18.7692 21.5161 19.0019 21.5569C19.2347 21.5976 19.4516 21.7019 19.6289 21.8581V19.6448C19.6289 19.1151 19.8935 18.6915 20.2697 18.6085C20.5539 18.5462 20.7904 18.6478 20.7904 19.1523V22.3812L22.1098 22.0714V18.6563C22.1098 17.8278 21.7919 17.2478 20.8019 17.4823H20.8024ZM39.9854 12.5954C39.8239 12.5954 39.666 12.5477 39.5317 12.458C39.3974 12.3684 39.2927 12.241 39.2308 12.0918C39.1689 11.9427 39.1526 11.7785 39.184 11.6202C39.2154 11.4618 39.2931 11.3163 39.4072 11.202C39.5213 11.0878 39.6667 11.0099 39.8251 10.9783C39.9834 10.9467 40.1476 10.9628 40.2968 11.0245C40.446 11.0862 40.5736 11.1907 40.6634 11.3249C40.7532 11.4591 40.8012 11.617 40.8013 11.7784C40.8009 11.9947 40.7148 12.2019 40.5618 12.3548C40.4089 12.5076 40.2016 12.5936 39.9854 12.5938V12.5954ZM39.9854 11.0641C39.8442 11.0641 39.7062 11.106 39.5889 11.1844C39.4715 11.2628 39.38 11.3743 39.326 11.5047C39.2719 11.6351 39.2577 11.7786 39.2853 11.917C39.3128 12.0554 39.3807 12.1826 39.4805 12.2825C39.5802 12.3823 39.7074 12.4504 39.8458 12.478C39.9842 12.5055 40.1277 12.4915 40.2582 12.4375C40.3886 12.3836 40.5001 12.2922 40.5786 12.1749C40.6571 12.0575 40.6991 11.9196 40.6992 11.7784C40.6989 11.5892 40.6236 11.4077 40.4898 11.2738C40.356 11.1399 40.1746 11.0645 39.9854 11.0641Z" fill="#231F20"/>
<path d="M39.6881 11.293H40.0402C40.1806 11.293 40.2917 11.363 40.2917 11.5486C40.2917 11.6778 40.2344 11.7774 40.1257 11.7945C40.2264 11.8046 40.2767 11.8589 40.2812 11.9993C40.2812 12.0622 40.2842 12.1406 40.2872 12.2005C40.2872 12.2176 40.2915 12.2344 40.2998 12.2494C40.3081 12.2643 40.32 12.2769 40.3345 12.286H40.1554C40.1374 12.2602 40.1279 12.2294 40.1283 12.198C40.1222 12.1381 40.1232 12.0823 40.1212 12.0098C40.1212 11.9012 40.0855 11.8534 39.9758 11.8534H39.8496V12.286H39.6901L39.6881 11.293ZM39.9743 11.7367C39.996 11.7387 40.0178 11.7359 40.0382 11.7284C40.0586 11.7209 40.0771 11.709 40.0923 11.6935C40.1075 11.678 40.1191 11.6593 40.1262 11.6387C40.1333 11.6182 40.1357 11.5963 40.1333 11.5747C40.1333 11.4686 40.088 11.4133 39.9824 11.4133H39.8496V11.7367H39.9743Z" fill="#231F20"/>
</svg>
