<svg width="28" height="20" viewBox="0 0 28 20" fill="none" xmlns="http://www.w3.org/2000/svg">
<path fill-rule="evenodd" clip-rule="evenodd" d="M20.5478 15.5174C20.5478 15.8109 20.4326 16.0924 20.2275 16.2999C20.0224 16.5074 19.7443 16.624 19.4542 16.624H8.50663C8.3629 16.6242 8.22056 16.5957 8.08773 16.5402C7.9549 16.4846 7.83419 16.4031 7.7325 16.3004C7.63082 16.1976 7.55015 16.0755 7.49511 15.9412C7.44007 15.8068 7.41174 15.6628 7.41174 15.5174V4.43997C7.41174 4.29454 7.44007 4.15053 7.49511 4.01618C7.55015 3.88183 7.63082 3.75978 7.7325 3.657C7.83419 3.55422 7.9549 3.47273 8.08773 3.41719C8.22056 3.36165 8.3629 3.33315 8.50663 3.33331H19.4535C19.7435 3.33331 20.0217 3.44991 20.2268 3.65745C20.4319 3.86499 20.5471 4.14647 20.5471 4.43997L20.5478 15.5174Z" fill="#EDAA00"/>
<path d="M14.7464 10.1222V7.74211L15.3605 7.59497V7.9066C15.3605 7.9066 15.5194 7.49638 15.8882 7.40106C16.0018 7.37213 16.059 7.38949 16.059 7.38949V7.99664C15.9485 7.99817 15.8393 8.02123 15.7374 8.06455C15.5097 8.15535 15.3953 8.35404 15.3953 8.65586V9.97001L14.7464 10.1222ZM11.5099 10.8961C11.5099 10.8961 11.4105 10.7452 11.4105 10.209V9.02407L11.0944 9.09953V8.61184L11.4108 8.53639V8.00419L12.0637 7.84825V8.37919L12.525 8.26853V8.75646L12.0637 8.86738V10.0746C12.0637 10.6232 12.2076 10.7286 12.2076 10.7286L11.5099 10.8961ZM12.5931 9.48032C12.5931 9.05702 12.6528 8.74841 12.7805 8.51149C12.9324 8.2303 13.1822 8.04719 13.5456 7.96344C14.2617 7.7987 14.5199 8.22778 14.5097 8.80274C14.5065 9.00823 14.5073 9.10858 14.5073 9.10858L13.2456 9.40864V9.42926C13.2456 9.83168 13.3291 10.0221 13.5806 9.96775C13.7979 9.92147 13.8583 9.78364 13.8754 9.61362C13.8784 9.5857 13.8794 9.51603 13.8794 9.51603L14.4707 9.37267C14.4707 9.37267 14.4722 9.42172 14.4707 9.47629C14.4652 9.70492 14.3996 10.2718 13.5782 10.468C12.8002 10.6549 12.5924 10.174 12.5924 9.48032H12.5931ZM13.5709 8.40661C13.3619 8.45465 13.2523 8.66215 13.2478 9.00596L13.8826 8.85304C13.8839 8.83745 13.8839 8.80274 13.8839 8.74942C13.8826 8.49011 13.8033 8.35329 13.5712 8.40661H13.5709ZM18.2676 8.08844C18.2428 7.36358 18.4287 6.78812 19.2278 6.60451C19.7378 6.48731 19.931 6.62111 20.0289 6.75064C20.1231 6.87439 20.1594 7.04114 20.1594 7.2748V7.31806L19.5335 7.46897V7.38068C19.5335 7.10402 19.459 6.99838 19.2601 7.04869C19.0237 7.1088 18.9283 7.33566 18.9283 7.78738V7.9979C18.9283 8.45691 18.9904 8.66718 19.2626 8.60933C19.4992 8.55902 19.5315 8.34977 19.536 8.16566C19.536 8.13673 19.5377 8.04418 19.5377 8.04418L20.1626 7.89528V7.99362C20.1609 8.59524 19.8474 8.97453 19.2599 9.11286C18.4513 9.30501 18.2927 8.83141 18.2679 8.08844H18.2676ZM16.106 9.10305C16.106 8.55173 16.4256 8.37743 16.9061 8.17647C17.3378 7.99563 17.347 7.90584 17.349 7.7489C17.3512 7.61686 17.2908 7.50342 17.0756 7.55901C16.878 7.60931 16.8255 7.75468 16.8151 7.87038C16.8115 7.91102 16.8101 7.95183 16.8111 7.99262L16.2054 8.13724C16.2013 8.01508 16.2154 7.89299 16.2471 7.77506C16.3441 7.44532 16.6317 7.22349 17.1273 7.10754C17.7715 6.95663 17.9865 7.24336 17.9875 7.68854V8.74263C17.9875 9.25245 18.081 9.32689 18.081 9.32689L17.4862 9.4695C17.4533 9.39991 17.4265 9.32753 17.4061 9.2532C17.4061 9.2532 17.2762 9.58495 16.8273 9.69209C16.355 9.80427 16.1065 9.50899 16.1065 9.1033L16.106 9.10305ZM17.3455 8.35052C17.2452 8.42165 17.1393 8.48432 17.0288 8.5379C16.83 8.63624 16.7408 8.75697 16.7408 8.94309C16.7408 9.10431 16.8402 9.21044 17.0191 9.16517C17.2118 9.11638 17.3455 8.93453 17.3455 8.68227V8.35052ZM8.09678 12.5644C8.02891 12.5642 7.96232 12.5456 7.90404 12.5104C7.84576 12.4752 7.79793 12.4247 7.7656 12.3643C7.73327 12.3039 7.71762 12.2358 7.72031 12.1672C7.72299 12.0986 7.74392 12.0319 7.78087 11.9743L7.78485 11.969L7.79206 11.9673L8.6794 11.7553V12.4376L8.66548 12.4409C8.46415 12.4899 8.22355 12.5455 8.17384 12.5558C8.14838 12.5616 8.12237 12.5645 8.09629 12.5644H8.09678ZM8.09678 13.4374C7.99706 13.4374 7.90141 13.3974 7.83078 13.3261C7.76015 13.2549 7.72031 13.1583 7.71998 13.0573C7.71958 12.9837 7.74077 12.9116 7.78087 12.8501L7.78485 12.8433L7.79206 12.8418L8.6794 12.6298V13.3121L8.66548 13.3159C8.46415 13.3647 8.22355 13.4213 8.17384 13.4311C8.14829 13.4362 8.12232 13.4387 8.09629 13.4386L8.09678 13.4374ZM8.09678 14.3119C7.99683 14.3118 7.90098 14.2716 7.83033 14.2001C7.75967 14.1285 7.71998 14.0315 7.71998 13.9303C7.71958 13.8567 7.74077 13.7846 7.78087 13.7231L7.78485 13.7161L8.67965 13.5028V14.1851L8.66573 14.1887C8.45321 14.2405 8.21684 14.2945 8.17409 14.3043C8.14852 14.3093 8.12256 14.3118 8.09654 14.3119" fill="#231F20"/>
<path d="M7.99238 11.7281L7.99213 7.91034L8.67988 7.74585V11.5633L7.99238 11.7281Z" fill="#231F20"/>
<path d="M9.70563 11.4034C9.70294 11.2913 9.65705 11.1847 9.57775 11.1064C9.49845 11.0281 9.39203 10.9842 9.28122 10.9842C9.1704 10.9842 9.06398 11.0281 8.98468 11.1064C8.90538 11.1847 8.85949 11.2913 8.85681 11.4034V14.9719C8.85734 15.28 8.97853 15.5754 9.19386 15.7934C9.40918 16.0113 9.70108 16.134 10.0056 16.1346C10.3268 16.1346 11.2066 16.1331 11.2066 16.1331V12.9844C11.2068 12.8919 11.1844 12.8007 11.1413 12.719C11.0982 12.6374 11.0359 12.5677 10.9598 12.5163L9.88906 11.7804V13.4515C9.8897 13.464 9.88783 13.4765 9.88354 13.4882C9.87925 13.5 9.87265 13.5107 9.86413 13.5198C9.8556 13.5289 9.84534 13.5362 9.83397 13.5411C9.82259 13.546 9.81034 13.5486 9.79796 13.5486C9.78558 13.5486 9.77333 13.546 9.76196 13.5411C9.75058 13.5362 9.74032 13.5289 9.7318 13.5198C9.72328 13.5107 9.71667 13.5 9.71239 13.4882C9.7081 13.4765 9.70622 13.464 9.70687 13.4515C9.70687 13.4336 9.70463 11.624 9.70463 11.4034H9.70563ZM10.2788 8.74113C10.1488 8.77154 10.0267 8.82997 9.92104 8.91244C9.81535 8.99491 9.72848 9.09947 9.66635 9.219V8.95165L9.0472 9.10004V10.8136C9.1558 10.7702 9.27413 10.7581 9.38913 10.7784C9.50413 10.7988 9.61133 10.8509 9.69891 10.929V9.82238C9.69891 9.55754 9.82965 9.34577 10.0156 9.30427C10.156 9.27308 10.2728 9.32388 10.2728 9.57615V11.1906L10.9248 11.0357V9.32816C10.9248 8.91392 10.7677 8.62392 10.2785 8.74113H10.2788ZM19.7574 6.29768C19.6776 6.29772 19.5996 6.27383 19.5333 6.22902C19.4669 6.18421 19.4151 6.12049 19.3846 6.04591C19.354 5.97134 19.346 5.88927 19.3615 5.81008C19.377 5.73088 19.4154 5.65813 19.4717 5.601C19.5281 5.54388 19.6 5.50495 19.6782 5.48916C19.7565 5.47336 19.8376 5.48139 19.9113 5.51224C19.985 5.54309 20.0481 5.59537 20.0924 5.66247C20.1368 5.72957 20.1605 5.80848 20.1606 5.88922C20.1604 5.99733 20.1178 6.10095 20.0423 6.17738C19.9667 6.2538 19.8643 6.29679 19.7574 6.29692V6.29768ZM19.7574 5.53207C19.6877 5.53207 19.6195 5.55299 19.5615 5.5922C19.5035 5.6314 19.4583 5.68713 19.4316 5.75233C19.4049 5.81753 19.3979 5.88928 19.4115 5.9585C19.4251 6.02772 19.4586 6.09132 19.5079 6.14124C19.5572 6.19116 19.6201 6.22518 19.6885 6.23897C19.7569 6.25277 19.8278 6.24574 19.8922 6.21877C19.9567 6.19179 20.0118 6.14609 20.0506 6.08743C20.0893 6.02877 20.1101 5.95979 20.1101 5.88922C20.11 5.79458 20.0728 5.70385 20.0067 5.63691C19.9406 5.56997 19.8509 5.53227 19.7574 5.53207Z" fill="#231F20"/>
<path d="M19.6105 5.64648H19.7845C19.8539 5.64648 19.9088 5.68144 19.9088 5.77425C19.9088 5.83889 19.8805 5.88869 19.8268 5.89724C19.8765 5.90227 19.9013 5.92944 19.9036 5.99961C19.9036 6.03105 19.9051 6.07028 19.9066 6.10022C19.9065 6.10876 19.9087 6.11718 19.9128 6.12466C19.9169 6.13214 19.9228 6.13844 19.9299 6.14297H19.8414C19.8325 6.13008 19.8278 6.11469 19.828 6.09896C19.825 6.06903 19.8255 6.04111 19.8245 6.00489C19.8245 5.95056 19.8069 5.92667 19.7527 5.92667H19.6903V6.14297H19.6115L19.6105 5.64648ZM19.752 5.86832C19.7627 5.86932 19.7734 5.8679 19.7835 5.86416C19.7936 5.86042 19.8027 5.85446 19.8102 5.8467C19.8178 5.83895 19.8235 5.8296 19.827 5.81933C19.8305 5.80906 19.8317 5.79813 19.8305 5.78733C19.8305 5.73426 19.8081 5.7066 19.7559 5.7066H19.6903V5.86832H19.752Z" fill="#231F20"/>
</svg>
