<svg width="28" height="20" viewBox="0 0 28 20" fill="none" xmlns="http://www.w3.org/2000/svg">
<path d="M18.1027 9.96194C18.5402 9.97157 18.9802 9.94239 19.416 9.9771C19.8573 10.0604 19.9636 10.7364 19.5716 10.9578C19.3041 11.1037 18.9863 11.0122 18.6963 11.0379H18.1027V9.96194ZM19.6689 8.74412C19.7661 9.0913 19.4354 9.40302 19.105 9.35521H18.1027C18.1097 9.0278 18.089 8.67244 18.1129 8.36227C18.5144 8.37371 18.9196 8.33893 19.3188 8.38045C19.4903 8.42406 19.6338 8.56674 19.6689 8.74412ZM22.081 3.59548C22.0996 4.25852 22.0837 4.95659 22.089 5.63308C22.0878 8.38341 22.0917 11.1337 22.0869 13.8841C22.0693 14.9149 21.1666 15.8105 20.155 15.8311C19.1424 15.8353 18.1297 15.8318 17.117 15.8329V11.675C18.2204 11.6692 19.3244 11.6867 20.4273 11.6663C20.9389 11.6338 21.4994 11.2921 21.5232 10.7224C21.5834 10.1502 21.0503 9.75437 20.5441 9.69186C20.3495 9.68674 20.3552 9.63446 20.5441 9.61165C21.0269 9.50607 21.406 9.00045 21.2639 8.49407C21.1429 7.96148 20.5612 7.75534 20.0773 7.75637C19.0907 7.74958 18.1039 7.75542 17.1173 7.75345C17.1236 6.97721 17.104 6.20015 17.1278 5.42448C17.206 4.41233 18.1315 3.57764 19.1288 3.59575C20.113 3.5956 21.097 3.5956 22.081 3.59556V3.59548Z" fill="url(#paint0_linear_301_1251)"/>
<path d="M5.96771 5.52937C5.99291 4.50025 6.89951 3.61195 7.90978 3.59691C8.9186 3.59377 9.92756 3.59646 10.9364 3.59555C10.9336 7.03877 10.9418 10.4824 10.9322 13.9254C10.8934 14.942 9.99664 15.8134 8.99737 15.8314C7.98665 15.8351 6.97581 15.8319 5.96505 15.8329V11.5348C6.94683 11.7695 7.97639 11.8694 8.97798 11.7138C9.57668 11.6163 10.2317 11.3188 10.4344 10.6902C10.5836 10.1526 10.4996 9.58679 10.5218 9.03499V7.75352H8.78846C8.78067 8.60105 8.80441 9.45006 8.77592 10.2966C8.72919 10.8169 8.21997 11.1475 7.73502 11.1298C7.13358 11.1363 5.94176 10.6888 5.94176 10.6888C5.93877 9.10084 5.95921 7.11219 5.96771 5.52953V5.52937Z" fill="url(#paint1_linear_301_1251)"/>
<path d="M11.5828 8.27035C11.4916 8.28994 11.5645 7.95586 11.5411 7.82913C11.5473 7.02786 11.5281 6.22571 11.5517 5.425C11.6297 4.40857 12.5623 3.5718 13.5636 3.59559H16.5127C16.5099 7.03881 16.5181 10.4824 16.5085 13.9254C16.4696 14.9421 15.5728 15.8134 14.5735 15.8314C13.5628 15.8353 12.5519 15.832 11.5411 15.833V11.1238C12.2314 11.697 13.1697 11.7862 14.0298 11.7878C14.6781 11.7876 15.3227 11.6864 15.9524 11.5351V10.6724C15.2428 11.0302 14.4087 11.2575 13.6221 11.0519C13.0733 10.9137 12.675 10.3771 12.6839 9.8041C12.6203 9.2082 12.9655 8.57908 13.5442 8.40193C14.2627 8.17431 15.0458 8.34839 15.7193 8.64432C15.8636 8.72077 16.0101 8.8156 15.9524 8.57154V7.89343C14.826 7.62224 13.6272 7.52245 12.4956 7.81747C12.168 7.91097 11.8489 8.05277 11.5828 8.27042V8.27035Z" fill="url(#paint2_linear_301_1251)"/>
<defs>
<linearGradient id="paint0_linear_301_1251" x1="17.0831" y1="9.45254" x2="22.0577" y2="9.45254" gradientUnits="userSpaceOnUse">
<stop stop-color="#58B03A"/>
<stop offset="1" stop-color="#55B330"/>
</linearGradient>
<linearGradient id="paint1_linear_301_1251" x1="5.85928" y1="9.83143" x2="10.8549" y2="9.83143" gradientUnits="userSpaceOnUse">
<stop stop-color="#0F6EB6"/>
<stop offset="1" stop-color="#006DBA"/>
</linearGradient>
<linearGradient id="paint2_linear_301_1251" x1="11.5338" y1="9.5712" x2="16.5118" y2="9.5712" gradientUnits="userSpaceOnUse">
<stop stop-color="#DE0D3D"/>
<stop offset="1" stop-color="#E30138"/>
</linearGradient>
</defs>
</svg>
