<svg width="46" height="32" viewBox="0 0 46 32" fill="none" xmlns="http://www.w3.org/2000/svg">
<path d="M29.3091 15.9391C30.0175 15.9545 30.7299 15.9078 31.4354 15.9633C32.1499 16.0966 32.3221 17.1782 31.6873 17.5325C31.2542 17.7659 30.7397 17.6194 30.2702 17.6606H29.3091V15.9391ZM31.845 13.9905C32.0023 14.546 31.4668 15.0448 30.9318 14.9683H29.3091C29.3205 14.4444 29.2869 13.8758 29.3256 13.3796C29.9757 13.3979 30.6317 13.3422 31.278 13.4087C31.5557 13.4784 31.7881 13.7067 31.845 13.9905ZM35.7502 5.75272C35.7804 6.81358 35.7545 7.9305 35.7632 9.01287C35.7612 13.4134 35.7675 17.8138 35.7598 22.2146C35.7313 23.8638 34.2697 25.2968 32.6319 25.3297C30.9925 25.3364 29.3529 25.3308 27.7133 25.3326V18.6799C29.4997 18.6707 31.2871 18.6986 33.0728 18.666C33.9011 18.614 34.8085 18.0674 34.8471 17.1558C34.9446 16.2402 34.0814 15.6069 33.2619 15.5069C32.9469 15.4987 32.9561 15.4151 33.2619 15.3786C34.0435 15.2097 34.6573 14.4007 34.4274 13.5905C34.2314 12.7383 33.2895 12.4085 32.5061 12.4101C30.9087 12.3993 29.3111 12.4086 27.7137 12.4055C27.724 11.1635 27.6921 9.92018 27.7308 8.67912C27.8574 7.05968 29.3558 5.72417 30.9705 5.75315C32.5639 5.75291 34.1571 5.75291 35.7502 5.75285V5.75272Z" fill="url(#paint0_linear_301_1382)"/>
<path d="M9.662 8.84678C9.70279 7.20019 11.1706 5.77891 12.8063 5.75484C14.4396 5.74981 16.0732 5.75411 17.7065 5.75266C17.702 11.2618 17.7153 16.7716 17.6998 22.2804C17.6369 23.907 16.185 25.3012 14.5672 25.33C12.9308 25.3359 11.2942 25.3308 9.65769 25.3325V18.4555C11.2472 18.831 12.9141 18.9909 14.5358 18.7418C15.5051 18.5858 16.5656 18.1098 16.8938 17.1042C17.1353 16.244 16.9993 15.3386 17.0353 14.4558V12.4054H14.2289C14.2163 13.7615 14.2547 15.1199 14.2086 16.4743C14.133 17.3068 13.3085 17.8358 12.5233 17.8075C11.5496 17.8178 9.61999 17.1018 9.61999 17.1018C9.61514 14.5611 9.64824 11.3793 9.662 8.84702V8.84678Z" fill="url(#paint1_linear_301_1382)"/>
<path d="M18.7531 13.2325C18.6053 13.2638 18.7234 12.7293 18.6856 12.5265C18.6957 11.2445 18.6646 9.96106 18.7028 8.67993C18.829 7.05364 20.3389 5.7148 21.9602 5.75287H26.7348C26.7303 11.262 26.7436 16.7718 26.7281 22.2806C26.6651 23.9072 25.2131 25.3013 23.5952 25.3302C21.9588 25.3364 20.3221 25.3312 18.6855 25.3327V17.7981C19.8032 18.7151 21.3224 18.8579 22.7148 18.8604C23.7646 18.86 24.8082 18.6982 25.8277 18.4561V17.0757C24.6788 17.6483 23.3283 18.012 22.0547 17.683C21.1663 17.4619 20.5214 16.6033 20.5358 15.6865C20.4329 14.7331 20.9918 13.7265 21.9287 13.443C23.092 13.0788 24.3598 13.3574 25.4503 13.8308C25.6839 13.9532 25.921 14.1049 25.8276 13.7144V12.6294C24.0039 12.1955 22.0631 12.0359 20.2309 12.5079C19.7006 12.6575 19.1839 12.8844 18.7531 13.2326V13.2325Z" fill="url(#paint2_linear_301_1382)"/>
<defs>
<linearGradient id="paint0_linear_301_1382" x1="27.6583" y1="15.124" x2="35.7124" y2="15.124" gradientUnits="userSpaceOnUse">
<stop stop-color="#58B03A"/>
<stop offset="1" stop-color="#55B330"/>
</linearGradient>
<linearGradient id="paint1_linear_301_1382" x1="9.48644" y1="15.7301" x2="17.5745" y2="15.7301" gradientUnits="userSpaceOnUse">
<stop stop-color="#0F6EB6"/>
<stop offset="1" stop-color="#006DBA"/>
</linearGradient>
<linearGradient id="paint2_linear_301_1382" x1="18.6737" y1="15.3138" x2="26.7333" y2="15.3138" gradientUnits="userSpaceOnUse">
<stop stop-color="#DE0D3D"/>
<stop offset="1" stop-color="#E30138"/>
</linearGradient>
</defs>
</svg>
