<svg width="58" height="40" viewBox="0 0 58 40" fill="none" xmlns="http://www.w3.org/2000/svg">
<path fill-rule="evenodd" clip-rule="evenodd" d="M23.6294 22.2829C23.6294 23.1244 23.096 23.5984 21.9583 23.6341V24.914C23.2502 24.914 24.8857 24.2147 24.8857 22.2829V16.0105H23.6294V22.2829ZM31.0429 18.7119C31.0429 17.7163 30.4976 15.8911 28.4829 15.8911C26.5746 15.8911 25.9228 17.4911 25.9228 19.1504C25.9228 20.8096 26.5865 22.4097 28.7792 22.4097C29.3717 22.4097 30.1302 22.2675 30.9954 21.6511L30.3553 20.6556C29.8102 20.9992 29.2888 21.1772 28.7792 21.1772C27.8071 21.1772 27.3568 20.5134 27.2502 19.826H29.8932C30.6756 19.826 31.0429 19.5178 31.0429 18.7119ZM27.2383 18.5934C27.3213 17.8111 27.6532 17.1237 28.4829 17.1237C29.3125 17.1237 29.6443 17.8111 29.7272 18.5934H27.2383ZM34.4591 15.8911C32.8946 15.8911 32.0885 17.1831 32.0885 17.1831V22.3386H33.3448V17.5978C33.3448 17.5978 33.7361 17.1237 34.4591 17.1237C35.2531 17.1237 35.6916 17.7756 35.6916 18.3564V22.3386H36.948V18.3564C36.948 17.1593 36.1063 15.8911 34.4591 15.8911ZM38.3423 15.9622H39.5985V22.3386H38.3423V15.9622ZM49.1011 18.4749H49.113C48.6864 18.3564 48.1293 18.1431 48.1293 17.7045C48.1293 17.3845 48.4612 17.1237 49.0892 17.1237C49.7174 17.1237 50.4286 17.4082 50.7012 17.5386L51.1043 16.4127C50.6893 16.1993 49.8478 15.8911 49.0892 15.8911C47.9989 15.8911 46.8611 16.4482 46.8611 17.7045C46.8611 18.8661 47.8804 19.4467 48.8879 19.6958C49.433 19.8141 50.1204 20.0394 50.1204 20.4898C50.1204 20.9638 49.5633 21.1772 49.0183 21.1772C48.4849 21.1772 47.75 20.8335 47.1928 20.5371L46.7071 21.7105C47.2403 21.9831 48.0227 22.386 49.0183 22.4098C50.1678 22.4098 51.3767 21.8646 51.3767 20.4898C51.3767 19.1623 50.0492 18.712 49.1011 18.4749ZM44.6298 19.9445C44.6298 20.5232 44.1942 21.1725 43.4049 21.1767C42.616 21.1725 42.1802 20.5232 42.1802 19.9445V15.9622H40.924V19.9445C40.924 21.1377 41.76 22.4013 43.3973 22.4094V22.4098H43.4128V22.4094C45.0499 22.4013 45.8863 21.1377 45.8863 19.9445V15.9622H44.6298V19.9445ZM13.7079 15C12.5006 15 10.7857 15.5229 9.77285 16.7902C8.17018 17.4901 7 19.0549 7 20.7636C7 23.4158 9.25844 25 11.9806 25C12.4286 25 12.8547 24.9004 13.2533 24.8C13.5469 24.8461 13.8511 24.8705 14.1651 24.8705C16.7341 24.8705 18.998 22.7873 18.998 20.0671C18.998 17.2578 16.7653 15 13.7079 15ZM11.8659 17.0321C13.1574 17.0321 14.1593 18.3032 14.1593 19.4382C14.1593 20.9724 13.2221 22.0016 11.9132 22.0016C10.7386 22.0016 9.69184 20.9129 9.69184 19.366C9.69184 18.0904 10.64 17.0321 11.8659 17.0321ZM11.693 24.5224C9.91501 24.5224 8.03521 22.8026 8.03521 20.659C8.03521 19.6132 8.36395 18.5673 9.19494 17.8642C9.04573 18.1723 8.94669 18.5424 8.90658 18.9843C8.8862 19.1448 8.87483 19.3112 8.87483 19.483C8.87483 21.7985 10.1435 23.7175 12.1278 24.4966C11.9843 24.5134 11.8391 24.5224 11.693 24.5224ZM13.0257 24.2802C11.5356 23.9877 10.3136 22.8588 9.78578 21.5228C10.3084 22.0329 11.052 22.3828 11.9998 22.3828C13.5157 22.3828 14.9571 21.222 14.9571 19.4989C14.9571 18.6531 14.6581 18.0994 14.6581 18.0994C15.2897 18.7408 15.6892 19.6415 15.6892 20.7401C15.6892 22.2844 14.5337 23.724 13.0257 24.2802ZM14.4997 24.2887C15.7143 23.563 16.4694 22.3225 16.4694 20.973C16.4694 17.9671 13.5383 16.89 13.5383 16.89C12.9996 16.5727 12.336 16.4034 11.5985 16.4034C11.5425 16.4034 11.4466 16.4048 11.3911 16.4068C12.1384 15.8433 13.1108 15.4964 14.0945 15.4964C16.3877 15.4964 18.1224 17.6728 18.1224 19.7107C18.1224 22.0799 16.4456 23.9176 14.4997 24.2887Z" fill="#00A4DE"/>
</svg>
