<svg width="34" height="24" viewBox="0 0 34 24" fill="none" xmlns="http://www.w3.org/2000/svg">
<path fill-rule="evenodd" clip-rule="evenodd" d="M13.9776 13.3698C13.9776 13.8746 13.6576 14.1591 12.975 14.1805V14.9484C13.7501 14.9484 14.7314 14.5288 14.7314 13.3698V9.60631H13.9776V13.3698ZM18.4257 11.2271C18.4257 10.6298 18.0986 9.53466 16.8897 9.53466C15.7447 9.53466 15.3537 10.4947 15.3537 11.4902C15.3537 12.4858 15.7519 13.4458 17.0675 13.4458C17.423 13.4458 17.8781 13.3605 18.3973 12.9906L18.0132 12.3933C17.6861 12.5995 17.3733 12.7063 17.0675 12.7063C16.4842 12.7063 16.2141 12.3081 16.1501 11.8956H17.7359C18.2053 11.8956 18.4257 11.7107 18.4257 11.2271ZM16.143 11.156C16.1928 10.6867 16.3919 10.2742 16.8897 10.2742C17.3875 10.2742 17.5866 10.6867 17.6363 11.156H16.143ZM20.4754 9.53466C19.5367 9.53466 19.0531 10.3098 19.0531 10.3098V13.4032H19.8069V10.5587C19.8069 10.5587 20.0417 10.2742 20.4754 10.2742C20.9519 10.2742 21.2149 10.6654 21.2149 11.0138V13.4032H21.9688V11.0138C21.9688 10.2956 21.4638 9.53466 20.4754 9.53466ZM22.8054 9.5773H23.5591V13.4032H22.8054V9.5773ZM29.2607 11.0849H29.2678C29.0119 11.0138 28.6776 10.8859 28.6776 10.6227C28.6776 10.4307 28.8767 10.2742 29.2535 10.2742C29.6305 10.2742 30.0572 10.4449 30.2207 10.5231L30.4626 9.84761C30.2136 9.71959 29.7087 9.53466 29.2535 9.53466C28.5993 9.53466 27.9167 9.86894 27.9167 10.6227C27.9167 11.3196 28.5282 11.668 29.1327 11.8175C29.4598 11.8885 29.8722 12.0236 29.8722 12.2939C29.8722 12.5783 29.538 12.7063 29.211 12.7063C28.891 12.7063 28.45 12.5001 28.1157 12.3222L27.8242 13.0263C28.1442 13.1898 28.6136 13.4316 29.211 13.4459C29.9007 13.4459 30.626 13.1187 30.626 12.2939C30.626 11.4974 29.8295 11.2272 29.2607 11.0849ZM26.5779 11.9667C26.5779 12.3139 26.3165 12.7035 25.8429 12.706C25.3696 12.7035 25.1081 12.3139 25.1081 11.9667V9.5773H24.3544V11.9667C24.3544 12.6826 24.856 13.4408 25.8384 13.4457V13.4459H25.8477V13.4457C26.8299 13.4408 27.3318 12.6826 27.3318 11.9667V9.5773H26.5779V11.9667ZM8.02475 9C7.30037 9 6.27143 9.31374 5.66371 10.0741C4.70211 10.4941 4 11.4329 4 12.4582C4 14.0495 5.35507 15 6.98836 15C7.25718 15 7.51282 14.9403 7.75201 14.88C7.92816 14.9076 8.11067 14.9223 8.29905 14.9223C9.84047 14.9223 11.1988 13.6724 11.1988 12.0403C11.1988 10.3547 9.8592 9 8.02475 9ZM6.91953 10.2193C7.69447 10.2193 8.2956 10.9819 8.2956 11.6629C8.2956 12.5835 7.73327 13.201 6.94791 13.201C6.24313 13.201 5.6151 12.5477 5.6151 11.6196C5.6151 10.8542 6.18402 10.2193 6.91953 10.2193ZM6.81581 14.7135C5.749 14.7135 4.62113 13.6815 4.62113 12.3954C4.62113 11.7679 4.81837 11.1404 5.31697 10.7185C5.22744 10.9034 5.16801 11.1255 5.14395 11.3906C5.13172 11.4869 5.1249 11.5867 5.1249 11.6898C5.1249 13.0791 5.88612 14.2305 7.07671 14.6979C6.99055 14.7081 6.90346 14.7135 6.81581 14.7135ZM7.61544 14.5681C6.72134 14.3926 5.98819 13.7153 5.67147 12.9137C5.98505 13.2197 6.4312 13.4297 6.99988 13.4297C7.90943 13.4297 8.77429 12.7332 8.77429 11.6993C8.77429 11.1919 8.59484 10.8596 8.59484 10.8596C8.9738 11.2445 9.21354 11.7849 9.21354 12.4441C9.21354 13.3706 8.52021 14.2344 7.61544 14.5681ZM8.49982 14.5732C9.22859 14.1378 9.68164 13.3935 9.68164 12.5838C9.68164 10.7803 7.92299 10.134 7.92299 10.134C7.59976 9.94365 7.20159 9.84205 6.75913 9.84205C6.7255 9.84205 6.66796 9.84291 6.63464 9.84408C7.08306 9.50596 7.66648 9.29782 8.25672 9.29782C9.63264 9.29782 10.6734 10.6037 10.6734 11.8264C10.6734 13.2479 9.66737 14.3506 8.49982 14.5732Z" fill="#00A4DE"/>
</svg>
