<svg width="46" height="32" viewBox="0 0 46 32" fill="none" xmlns="http://www.w3.org/2000/svg">
<path fill-rule="evenodd" clip-rule="evenodd" d="M18.3035 17.8264C18.3035 18.4995 17.8768 18.8787 16.9666 18.9073V19.9312C18.0002 19.9312 19.3085 19.3718 19.3085 17.8264V12.8084H18.3035V17.8264ZM24.2343 14.9695C24.2343 14.173 23.7981 12.7129 22.1863 12.7129C20.6597 12.7129 20.1383 13.9929 20.1383 15.3203C20.1383 16.6477 20.6692 17.9277 22.4233 17.9277C22.8974 17.9277 23.5042 17.814 24.1963 17.3209L23.6843 16.5245C23.2482 16.7994 22.831 16.9417 22.4233 16.9417C21.6457 16.9417 21.2855 16.4107 21.2002 15.8608H23.3145C23.9405 15.8608 24.2343 15.6142 24.2343 14.9695ZM21.1907 14.8747C21.257 14.2489 21.5225 13.699 22.1863 13.699C22.85 13.699 23.1154 14.2489 23.1818 14.8747H21.1907ZM26.9673 12.7129C25.7156 12.7129 25.0708 13.7464 25.0708 13.7464V17.8709H26.0758V14.0782C26.0758 14.0782 26.3889 13.699 26.9673 13.699C27.6025 13.699 27.9533 14.2205 27.9533 14.6851V17.8709H28.9584V14.6851C28.9584 13.7274 28.285 12.7129 26.9673 12.7129ZM30.0738 12.7697H31.0788V17.8709H30.0738V12.7697ZM38.6809 14.7799H38.6904C38.3491 14.6851 37.9034 14.5145 37.9034 14.1636C37.9034 13.9076 38.1689 13.699 38.6714 13.699C39.174 13.699 39.7429 13.9265 39.9609 14.0309L40.2834 13.1301C39.9514 12.9595 39.2783 12.7129 38.6714 12.7129C37.7991 12.7129 36.8889 13.1586 36.8889 14.1636C36.8889 15.0929 37.7043 15.5574 38.5103 15.7566C38.9464 15.8513 39.4963 16.0315 39.4963 16.3918C39.4963 16.771 39.0506 16.9417 38.6146 16.9417C38.188 16.9417 37.6 16.6668 37.1543 16.4297L36.7656 17.3684C37.1922 17.5865 37.8181 17.9088 38.6146 17.9279C39.5343 17.9279 40.5014 17.4917 40.5014 16.3918C40.5014 15.3298 39.4394 14.9696 38.6809 14.7799ZM35.1039 15.9556C35.1039 16.4186 34.7554 16.938 34.1239 16.9413C33.4928 16.938 33.1442 16.4186 33.1442 15.9556V12.7697H32.1392V15.9556C32.1392 16.9102 32.808 17.9211 34.1179 17.9275V17.9279H34.1302V17.9275C35.4399 17.9211 36.109 16.9102 36.109 15.9556V12.7697H35.1039V15.9556ZM10.3663 12C9.4005 12 8.02858 12.4183 7.21828 13.4321C5.93615 13.9921 5 15.2439 5 16.6109C5 18.7326 6.80675 20 8.98448 20C9.3429 20 9.68377 19.9204 10.0027 19.84C10.2376 19.8769 10.4809 19.8964 10.7321 19.8964C12.7873 19.8964 14.5984 18.2298 14.5984 16.0537C14.5984 13.8062 12.8123 12 10.3663 12ZM8.8927 13.6257C9.92596 13.6257 10.7275 14.6426 10.7275 15.5506C10.7275 16.7779 9.9777 17.6013 8.93054 17.6013C7.99084 17.6013 7.15347 16.7303 7.15347 15.4928C7.15347 14.4723 7.91203 13.6257 8.8927 13.6257ZM8.75441 19.618C7.332 19.618 5.82817 18.2421 5.82817 16.5272C5.82817 15.6905 6.09116 14.8538 6.75595 14.2913C6.63658 14.5378 6.55735 14.8339 6.52526 15.1875C6.50896 15.3158 6.49986 15.449 6.49986 15.5864C6.49986 17.4388 7.51482 18.974 9.10228 19.5973C8.9874 19.6107 8.87127 19.618 8.75441 19.618ZM9.82059 19.4242C8.62846 19.1901 7.65092 18.287 7.22863 17.2182C7.64674 17.6263 8.2416 17.9062 8.99984 17.9062C10.2126 17.9062 11.3657 16.9776 11.3657 15.5991C11.3657 14.9225 11.1265 14.4795 11.1265 14.4795C11.6317 14.9926 11.9514 15.7132 11.9514 16.5921C11.9514 17.8275 11.0269 18.9792 9.82059 19.4242ZM10.9998 19.431C11.9715 18.8504 12.5755 17.858 12.5755 16.7784C12.5755 14.3737 10.2307 13.512 10.2307 13.512C9.79969 13.2582 9.26879 13.1227 8.67884 13.1227C8.634 13.1227 8.55727 13.1239 8.51285 13.1254C9.11075 12.6746 9.88864 12.3971 10.6756 12.3971C12.5102 12.3971 13.8979 14.1382 13.8979 15.7685C13.8979 17.6639 12.5565 19.1341 10.9998 19.431Z" fill="#00A4DE"/>
</svg>
