<svg width="28" height="20" viewBox="0 0 28 20" fill="none" xmlns="http://www.w3.org/2000/svg">
<path fill-rule="evenodd" clip-rule="evenodd" d="M11.3147 11.6415C11.3147 12.0622 11.048 12.2992 10.4791 12.317V12.957C11.1251 12.957 11.9428 12.6074 11.9428 11.6415V8.50526H11.3147V11.6415ZM15.0214 9.85595C15.0214 9.35814 14.7488 8.44555 13.7414 8.44555C12.7873 8.44555 12.4614 9.24557 12.4614 10.0752C12.4614 10.9048 12.7932 11.7048 13.8896 11.7048C14.1859 11.7048 14.5651 11.6338 14.9977 11.3255L14.6777 10.8278C14.4051 10.9996 14.1444 11.0886 13.8896 11.0886C13.4035 11.0886 13.1784 10.7567 13.1251 10.413H14.4466C14.8378 10.413 15.0214 10.2589 15.0214 9.85595ZM13.1192 9.79669C13.1606 9.40557 13.3266 9.06187 13.7414 9.06187C14.1563 9.06187 14.3221 9.40557 14.3636 9.79669H13.1192ZM16.7295 8.44555C15.9473 8.44555 15.5443 9.09153 15.5443 9.09153V11.6693H16.1724V9.29888C16.1724 9.29888 16.3681 9.06187 16.7295 9.06187C17.1265 9.06187 17.3458 9.3878 17.3458 9.67819V11.6693H17.974V9.67819C17.974 9.07964 17.5531 8.44555 16.7295 8.44555ZM18.6711 8.48109H19.2993V11.6693H18.6711V8.48109ZM24.0506 9.73744H24.0565C23.8432 9.67819 23.5646 9.57157 23.5646 9.35226C23.5646 9.19226 23.7306 9.06187 24.0446 9.06187C24.3587 9.06187 24.7143 9.20409 24.8506 9.26929L25.0521 8.70634C24.8446 8.59966 24.4239 8.44555 24.0446 8.44555C23.4994 8.44555 22.9306 8.72411 22.9306 9.35226C22.9306 9.93304 23.4402 10.2234 23.9439 10.3479C24.2165 10.4071 24.5602 10.5197 24.5602 10.7449C24.5602 10.9819 24.2816 11.0886 24.0091 11.0886C23.7425 11.0886 23.375 10.9168 23.0964 10.7685L22.8535 11.3553C23.1201 11.4915 23.5113 11.693 24.0091 11.7049C24.5839 11.7049 25.1883 11.4323 25.1883 10.7449C25.1883 10.0811 24.5246 9.85601 24.0506 9.73744ZM21.8149 10.4723C21.8149 10.7616 21.5971 11.0862 21.2025 11.0883C20.808 11.0862 20.5901 10.7616 20.5901 10.4723V8.48109H19.962V10.4723C19.962 11.0689 20.38 11.7007 21.1987 11.7047V11.7049H21.2064V11.7047C22.025 11.7007 22.4431 11.0689 22.4431 10.4723V8.48109H21.8149V10.4723ZM6.35396 8C5.75031 8 4.89286 8.26145 4.38642 8.89508C3.58509 9.24505 3 10.0274 3 10.8818C3 12.2079 4.12922 13 5.4903 13C5.71431 13 5.92735 12.9502 6.12667 12.9C6.27347 12.923 6.42556 12.9353 6.58254 12.9353C7.86705 12.9353 8.99902 11.8936 8.99902 10.5335C8.99902 9.1289 7.88267 8 6.35396 8ZM5.43294 9.01607C6.07872 9.01607 6.57967 9.6516 6.57967 10.2191C6.57967 10.9862 6.11106 11.5008 5.45659 11.5008C4.86928 11.5008 4.34592 10.9564 4.34592 10.183C4.34592 9.54518 4.82002 9.01607 5.43294 9.01607ZM5.34651 12.7612C4.4575 12.7612 3.51761 11.9013 3.51761 10.8295C3.51761 10.3066 3.68198 9.78363 4.09747 9.43209C4.02287 9.58614 3.97335 9.77122 3.95329 9.99216C3.9431 10.0724 3.93741 10.1556 3.93741 10.2415C3.93741 11.3992 4.57176 12.3587 5.56392 12.7483C5.49213 12.7567 5.41955 12.7612 5.34651 12.7612ZM6.01287 12.6401C5.26779 12.4938 4.65682 11.9294 4.39289 11.2614C4.65421 11.5164 5.026 11.6914 5.4999 11.6914C6.25786 11.6914 6.97857 11.111 6.97857 10.2494C6.97857 9.82655 6.82903 9.54968 6.82903 9.54968C7.14484 9.87039 7.34461 10.3208 7.34461 10.8701C7.34461 11.6422 6.76684 12.362 6.01287 12.6401ZM6.74985 12.6443C7.35716 12.2815 7.7347 11.6613 7.7347 10.9865C7.7347 9.48357 6.26916 8.94499 6.26916 8.94499C5.9998 8.78637 5.66799 8.70171 5.29927 8.70171C5.27125 8.70171 5.2233 8.70242 5.19553 8.7034C5.56922 8.42164 6.0554 8.24819 6.54727 8.24819C7.69387 8.24819 8.56118 9.33638 8.56118 10.3553C8.56118 11.5399 7.72281 12.4588 6.74985 12.6443Z" fill="#00A4DE"/>
</svg>
