<svg width="28" height="20" viewBox="0 0 28 20" fill="none" xmlns="http://www.w3.org/2000/svg">
<rect width="28" height="20" rx="4" fill="white"/>
<path d="M6.83299 9.79631L6.79008 9.76902C6.64557 9.62479 6.44378 9.56194 6.17379 9.57819C5.94999 9.59104 5.77118 9.68041 5.6357 9.76277V9.75742C5.6357 9.68617 5.64354 9.61069 5.65063 9.53653C5.65903 9.46133 5.66715 9.38473 5.66715 9.3121C5.66715 9.238 5.65827 9.16822 5.63334 9.10794C5.62653 9.09246 5.61264 9.08329 5.5948 9.08329C5.52223 9.08496 5.37988 9.13447 5.34606 9.16509L5.32697 9.20599C5.32585 9.28515 5.30808 9.51 5.29023 9.5375C5.29134 9.53653 5.28079 9.56507 5.28079 9.56507C5.25037 9.88512 5.25016 10.1669 5.27822 10.4088C5.28134 10.4329 5.32773 10.4694 5.36363 10.483C5.40266 10.4969 5.52668 10.4638 5.59744 10.4369C5.59688 10.4369 5.62389 10.4329 5.62389 10.4329C5.64695 10.43 5.66063 10.4111 5.65903 10.3857L5.66063 10.3163C5.71222 10.1076 5.92061 9.85866 6.16615 9.82089C6.30483 9.79888 6.41489 9.83401 6.5012 9.92887C6.51294 9.94595 6.53843 10.0964 6.4469 10.2686C6.37899 10.3968 6.24247 10.5045 6.06269 10.5719C5.89256 10.6366 5.70618 10.6623 5.47557 10.6544C5.46605 10.6476 5.25905 10.5081 5.25905 10.5081C5.07663 10.3795 4.8488 10.2198 4.64263 10.1418C4.60666 10.1276 4.54145 10.0736 4.50257 10.0416L4.48111 10.0241C4.36237 9.92859 4.13641 9.77818 3.95454 9.65708C3.95454 9.65708 3.87302 9.60173 3.85677 9.59104C3.85677 9.58444 3.85726 9.57083 3.85726 9.57083C3.86233 9.56563 3.97579 9.49688 3.97579 9.49688C4.13641 9.40306 4.21008 9.35723 4.22474 9.33335C4.22217 9.3371 4.2471 9.32106 4.2471 9.32106C4.24835 9.3205 4.64332 9.09697 4.64332 9.09697C5.02337 8.88809 5.4546 8.65033 5.68083 8.41548L5.69201 8.38083L5.69674 8.34833C5.71174 8.29834 5.71222 8.25973 5.70021 8.21515C5.69674 8.20265 5.685 8.18799 5.66979 8.1848C5.49286 8.16758 5.26502 8.27341 5.05774 8.46784C5.00983 8.51242 4.97122 8.53339 4.92956 8.55672L4.8981 8.57381C4.66874 8.70408 4.15321 9.02413 3.88406 9.19655C3.90135 8.90615 3.95558 8.49332 4.02086 8.14918L4.01405 8.10828C4.01273 8.10675 3.98572 8.05633 3.98572 8.05633L3.96475 8.01891L3.95926 8.0171C3.90475 7.9903 3.86094 8.00106 3.82872 8.00898L3.77476 8.02918L3.70345 8.05536C3.68872 8.05849 3.67907 8.06689 3.67331 8.08099C3.54464 8.39236 3.43686 8.90455 3.41173 9.31425C3.15431 9.15037 2.91606 9.03246 2.79947 8.97538L2.79655 8.97371L2.7819 8.97114C2.74044 8.96566 2.68906 8.93448 2.63927 8.90455C2.63455 8.90191 2.54177 8.84115 2.54177 8.84115L2.39241 8.74546C2.39366 8.74602 2.35255 8.73651 2.35255 8.73651C2.28832 8.74782 2.16506 8.83039 2.12895 8.88698C2.12374 8.89469 2.12215 8.90247 2.12215 8.91115C2.12215 8.92295 2.12499 8.93504 2.12895 8.94649L2.13527 8.97691L2.14235 8.99559C2.21367 9.06843 2.39498 9.19134 2.57219 9.28668L2.77794 9.39577L3.09244 9.56771C3.09272 9.56979 3.14723 9.61069 3.14723 9.61069L3.18368 9.63166C3.18368 9.63166 3.18736 9.6343 3.19049 9.63639C3.1066 9.69194 2.61774 10.0182 2.61774 10.0182L2.31665 10.2182C2.28804 10.2374 2.1693 10.2911 2.14305 10.3013C2.07756 10.3281 2.02805 10.3681 2.00785 10.4127L2 10.4295L2.00785 10.4415L2.03118 10.4588L2.06187 10.4799L2.09465 10.5024C2.0959 10.5029 2.12638 10.5071 2.12638 10.5071C2.17923 10.509 2.25714 10.4783 2.4047 10.4143C2.5383 10.3548 2.90425 10.1343 3.06105 10.0406L3.12758 10.0002C3.15487 10.0028 3.18577 9.97928 3.21222 9.95935C3.24396 9.93387 3.31236 9.8922 3.35374 9.87387C3.35534 9.87304 3.37895 9.86026 3.40068 9.84762V9.86596C3.407 10.3441 3.43527 10.6914 3.48742 10.9595L3.48825 10.9642L3.49346 10.9745C3.51887 11.0128 3.54852 11.1257 3.57477 11.2261L3.63401 11.4252C3.63553 11.4276 3.65074 11.4449 3.65074 11.4449C3.68484 11.4667 3.78782 11.5071 3.85781 11.4989L3.87483 11.497L3.88587 11.473C3.89142 11.4425 3.89371 11.4137 3.89371 11.3809C3.89371 11.3446 3.89142 11.3044 3.88795 11.2552L3.88323 11.1834C3.86094 10.8489 3.8392 10.3669 3.8392 10.0468V10.0206C3.89607 10.0565 4.14377 10.213 4.14377 10.213C4.56659 10.4872 5.20475 10.9008 5.5898 11.0103C5.60945 11.0158 5.63098 11.0114 5.64563 10.9973C5.64591 10.9967 5.70521 10.9601 5.70521 10.9601L5.71618 10.9549C5.73819 10.944 5.75284 10.9071 5.75548 10.8667C6.08053 10.8505 6.53363 10.7251 6.77612 10.4206C6.87028 10.3021 6.91215 10.1572 6.91215 10.0332C6.91215 9.93206 6.88438 9.84422 6.83299 9.79631Z" fill="#FCAF16"/>
<path d="M17.2209 10.841V10.6701C17.1263 10.7998 16.9387 10.8779 16.7428 10.8779C16.3002 10.8779 16.065 10.6066 16.065 10.0793V9.05657H16.438V10.066C16.438 10.4258 16.5827 10.5548 16.8291 10.5548C17.0791 10.5548 17.2209 10.3886 17.2209 10.0997V9.05657H17.5933V10.841H17.2209Z" fill="#776C61"/>
<path d="M22.5333 9.34516C22.3564 9.34516 22.2012 9.45765 22.1032 9.57376V10.3241C22.1861 10.429 22.3606 10.5586 22.5483 10.5586C22.8165 10.5586 22.9614 10.3682 22.9614 9.99082C22.9614 9.5423 22.8094 9.34516 22.5333 9.34516ZM22.5845 10.8814C22.3929 10.8814 22.2118 10.786 22.1066 10.6773V11.2939L21.7371 11.474V9.06025H22.1066V9.23044C22.2447 9.11115 22.4039 9.02275 22.6023 9.02275C23.0117 9.02275 23.3341 9.30141 23.3341 9.9813C23.3341 10.5925 22.9803 10.8814 22.5845 10.8814Z" fill="#776C61"/>
<path d="M10.9848 10.5993H11.7326C12.1973 10.5993 12.3211 10.4185 12.3211 10.1878C12.3211 9.91479 12.1316 9.76271 11.7132 9.76271H10.9848V10.5993ZM10.9848 9.49217H11.7567C12.0438 9.49217 12.255 9.38371 12.255 9.13053C12.255 8.90929 12.1509 8.76173 11.7132 8.76173H10.9848V9.49217ZM10.606 8.49126H11.7756C12.3318 8.49126 12.6224 8.67465 12.6224 9.07935C12.6224 9.36642 12.422 9.56502 12.1552 9.61772V9.628C12.5381 9.67355 12.7187 9.92409 12.7187 10.2073C12.7187 10.5632 12.4587 10.8699 11.8131 10.8699H10.606V8.49126Z" fill="#776C61"/>
<path d="M8.03267 8.49119H8.413V9.55529L9.69126 8.49119H10.2294L8.87825 9.56557L10.3416 10.8699H9.80403L8.413 9.59467V10.8699H8.03267V8.49119Z" fill="#776C61"/>
<path d="M14.8027 10.566H14.2022V9.80882H14.786C15.2068 9.80882 15.3639 9.9152 15.3639 10.1853C15.3639 10.4258 15.1895 10.566 14.8027 10.566ZM14.2022 8.79339H14.786C15.0048 8.79339 15.134 8.82089 15.2068 8.88304C15.2789 8.93387 15.2962 9.02296 15.2962 9.1299C15.2962 9.3826 15.117 9.49446 14.8312 9.49446H14.2022V8.79339ZM15.6614 9.85333C15.593 9.74667 15.4816 9.66334 15.3416 9.61772C15.5374 9.52835 15.6614 9.33176 15.6614 9.07935C15.6614 8.67541 15.4087 8.49008 14.8475 8.49008H13.7868V10.8699H14.8869C15.2068 10.8699 15.4255 10.7906 15.5654 10.673C15.6999 10.5543 15.7623 10.3865 15.7623 10.2072C15.7623 10.0785 15.7285 9.96027 15.6614 9.85333Z" fill="#776C61"/>
<path d="M25.5562 10.8699V9.86076C25.5562 9.50002 25.411 9.37135 25.1649 9.37135C24.9152 9.37135 24.7744 9.53773 24.7744 9.82667V10.8699H24.4017V9.08539H24.7744V9.25573C24.8691 9.12733 25.0567 9.04866 25.2524 9.04866C25.6944 9.04866 25.9297 9.321 25.9297 9.84708V10.8699H25.5562Z" fill="#776C61"/>
<path d="M23.6379 9.07963H24.0116V10.8699H23.6379V9.07963Z" fill="#776C61"/>
<path d="M23.6379 8.49211H24.0111V8.84375H23.6379V8.49211Z" fill="#776C61"/>
<path d="M20.5723 9.35616C20.2894 9.35616 20.116 9.59024 20.116 9.94355C20.116 10.3344 20.3075 10.5479 20.5898 10.5479C20.8731 10.5479 21.0577 10.2798 21.0577 9.95348C21.0577 9.59024 20.8731 9.35616 20.5723 9.35616ZM20.5765 10.8813C20.0976 10.8813 19.7388 10.5113 19.7388 9.95348C19.7388 9.36921 20.108 9.0227 20.5859 9.0227C21.0724 9.0227 21.4346 9.38629 21.4346 9.94355C21.4346 10.5346 21.065 10.8813 20.5765 10.8813Z" fill="#776C61"/>
<path d="M18.8193 9.88326L19.7214 9.05893H19.2279L18.3629 9.8466V8.49119H17.9834V10.8699H18.3629V9.90576L19.2758 10.8699H19.7893L18.8193 9.88326Z" fill="#776C61"/>
</svg>
