<svg width="34" height="24" viewBox="0 0 34 24" fill="none" xmlns="http://www.w3.org/2000/svg">
<rect width="34" height="24" rx="4" fill="white"/>
<path d="M8.52342 12.0529L8.47438 12.0217C8.30923 11.8569 8.0786 11.7851 7.77005 11.8037C7.51427 11.8183 7.30992 11.9205 7.15508 12.0146V12.0085C7.15508 11.9271 7.16405 11.8408 7.17215 11.756C7.18175 11.6701 7.19103 11.5826 7.19103 11.4995C7.19103 11.4149 7.18088 11.3351 7.15239 11.2662C7.14461 11.2485 7.12874 11.238 7.10834 11.238C7.02541 11.24 6.86272 11.2965 6.82407 11.3315L6.80225 11.3783C6.80098 11.4687 6.78066 11.7257 6.76026 11.7571C6.76153 11.756 6.74947 11.7887 6.74947 11.7887C6.71471 12.1544 6.71447 12.4765 6.74654 12.753C6.75011 12.7805 6.80312 12.8222 6.84415 12.8377C6.88875 12.8536 7.03049 12.8158 7.11136 12.785C7.11072 12.785 7.14159 12.7805 7.14159 12.7805C7.16794 12.7772 7.18357 12.7556 7.18175 12.7265L7.18357 12.6472C7.24254 12.4087 7.4807 12.1242 7.76132 12.081C7.9198 12.0559 8.04559 12.096 8.14423 12.2044C8.15765 12.2239 8.18677 12.3958 8.08217 12.5927C8.00456 12.7392 7.84854 12.8622 7.64307 12.9393C7.44864 13.0133 7.23563 13.0426 6.97208 13.0336C6.96121 13.0259 6.72463 12.8664 6.72463 12.8664C6.51615 12.7194 6.25577 12.5369 6.02015 12.4477C5.97904 12.4316 5.90452 12.3698 5.86008 12.3332L5.83555 12.3132C5.69985 12.2041 5.44161 12.0322 5.23376 11.8938C5.23376 11.8938 5.14059 11.8306 5.12202 11.8183C5.12202 11.8108 5.12258 11.7952 5.12258 11.7952C5.12837 11.7893 5.25805 11.7107 5.25805 11.7107C5.44161 11.6035 5.52581 11.5511 5.54256 11.5238C5.53962 11.5281 5.56811 11.5098 5.56811 11.5098C5.56954 11.5091 6.02094 11.2537 6.02094 11.2537C6.45528 11.015 6.94811 10.7432 7.20667 10.4748L7.21945 10.4352L7.22484 10.3981C7.24198 10.341 7.24254 10.2968 7.22881 10.2459C7.22484 10.2316 7.21143 10.2149 7.19405 10.2112C6.99184 10.1915 6.73146 10.3125 6.49457 10.5347C6.43981 10.5856 6.39568 10.6096 6.34807 10.6363L6.31212 10.6558C6.04999 10.8047 5.46081 11.1704 5.15321 11.3675C5.17297 11.0356 5.23495 10.5638 5.30955 10.1705L5.30178 10.1237C5.30027 10.122 5.2694 10.0644 5.2694 10.0644L5.24543 10.0216L5.23916 10.0195C5.17686 9.98891 5.12679 10.0012 5.08996 10.0103L5.0283 10.0334L4.9468 10.0633C4.92997 10.0668 4.91894 10.0764 4.91235 10.0926C4.7653 10.4484 4.64213 11.0338 4.6134 11.502C4.31921 11.3147 4.04693 11.18 3.91368 11.1147L3.91035 11.1128L3.8936 11.1099C3.84622 11.1036 3.7875 11.068 3.73059 11.0338C3.7252 11.0308 3.61917 10.9613 3.61917 10.9613L3.44847 10.852C3.4499 10.8526 3.40291 10.8417 3.40291 10.8417C3.3295 10.8547 3.18864 10.949 3.14737 11.0137C3.14142 11.0225 3.1396 11.0314 3.1396 11.0413C3.1396 11.0548 3.14285 11.0686 3.14737 11.0817L3.15459 11.1165L3.16269 11.1378C3.24419 11.2211 3.4514 11.3615 3.65393 11.4705L3.88908 11.5952L4.2485 11.7917C4.24882 11.794 4.31112 11.8408 4.31112 11.8408L4.35278 11.8648C4.35278 11.8648 4.35699 11.8678 4.36056 11.8702C4.26469 11.9336 3.70599 12.3066 3.70599 12.3066L3.36188 12.5351C3.32919 12.557 3.19348 12.6184 3.16348 12.6301C3.08865 12.6607 3.03206 12.7065 3.00897 12.7574L3 12.7765L3.00897 12.7903L3.03563 12.8101L3.07071 12.8341L3.10817 12.8599C3.1096 12.8605 3.14444 12.8653 3.14444 12.8653C3.20483 12.8674 3.29387 12.8323 3.46251 12.7592C3.6152 12.6912 4.03343 12.4392 4.21263 12.3321L4.28866 12.2859C4.31985 12.2889 4.35516 12.262 4.3854 12.2393C4.42167 12.2101 4.49984 12.1625 4.54714 12.1416C4.54896 12.1406 4.57594 12.126 4.60078 12.1116V12.1325C4.608 12.679 4.6403 13.0759 4.6999 13.3823L4.70086 13.3876L4.70681 13.3994C4.73585 13.4432 4.76974 13.5722 4.79974 13.687L4.86743 13.9146C4.86918 13.9173 4.88656 13.937 4.88656 13.937C4.92553 13.9619 5.04322 14.0081 5.12321 13.9988L5.14266 13.9966L5.15528 13.9692C5.16162 13.9343 5.16424 13.9014 5.16424 13.8639C5.16424 13.8223 5.16162 13.7765 5.15766 13.7202L5.15226 13.6382C5.12679 13.2559 5.10195 12.705 5.10195 12.3392V12.3093C5.16694 12.3503 5.45002 12.5292 5.45002 12.5292C5.93325 12.8425 6.66257 13.3152 7.10263 13.4404C7.12509 13.4467 7.14969 13.4416 7.16643 13.4255C7.16675 13.4248 7.23452 13.3829 7.23452 13.3829L7.24706 13.377C7.27222 13.3646 7.28897 13.3224 7.29198 13.2763C7.66347 13.2577 8.1813 13.1144 8.45842 12.7664C8.56604 12.631 8.61389 12.4654 8.61389 12.3237C8.61389 12.2081 8.58215 12.1077 8.52342 12.0529Z" fill="#FCAF16"/>
<path d="M20.3954 13.2468V13.0515C20.2872 13.1998 20.0728 13.2891 19.849 13.2891C19.343 13.2891 19.0743 12.979 19.0743 12.3763V11.2075H19.5006V12.3611C19.5006 12.7723 19.666 12.9197 19.9475 12.9197C20.2333 12.9197 20.3954 12.7298 20.3954 12.3997V11.2075H20.821V13.2468H20.3954Z" fill="#776C61"/>
<path d="M26.4667 11.5373C26.2645 11.5373 26.0871 11.6658 25.9751 11.7985V12.6561C26.0698 12.7759 26.2693 12.924 26.4837 12.924C26.7902 12.924 26.9559 12.7064 26.9559 12.2752C26.9559 11.7626 26.7821 11.5373 26.4667 11.5373ZM26.5251 13.293C26.3061 13.293 26.0992 13.1839 25.979 13.0597V13.7644L25.5566 13.9702V11.2116H25.979V11.4062C26.1369 11.2698 26.3187 11.1688 26.5455 11.1688C27.0134 11.1688 27.3819 11.4873 27.3819 12.2643C27.3819 12.9628 26.9774 13.293 26.5251 13.293Z" fill="#776C61"/>
<path d="M13.2684 12.9707H14.123C14.6541 12.9707 14.7955 12.7641 14.7955 12.5004C14.7955 12.1884 14.5789 12.0146 14.1008 12.0146H13.2684V12.9707ZM13.2684 11.7054H14.1505C14.4786 11.7054 14.72 11.5814 14.72 11.2921C14.72 11.0392 14.6011 10.8706 14.1008 10.8706H13.2684V11.7054ZM12.8354 10.5615H14.1721C14.8078 10.5615 15.1399 10.7711 15.1399 11.2336C15.1399 11.5617 14.9108 11.7886 14.6059 11.8489V11.8606C15.0436 11.9127 15.2499 12.199 15.2499 12.5226C15.2499 12.9294 14.9528 13.2799 14.215 13.2799H12.8354V10.5615Z" fill="#776C61"/>
<path d="M9.89449 10.5614H10.3291V11.7775L11.79 10.5614H12.4051L10.8609 11.7893L12.5332 13.2799H11.9189L10.3291 11.8225V13.2799H9.89449V10.5614Z" fill="#776C61"/>
<path d="M17.6316 12.9326H16.9454V12.0673H17.6125C18.0935 12.0673 18.273 12.1889 18.273 12.4975C18.273 12.7724 18.0738 12.9326 17.6316 12.9326ZM16.9454 10.9068H17.6125C17.8627 10.9068 18.0103 10.9382 18.0935 11.0092C18.1759 11.0673 18.1957 11.1692 18.1957 11.2914C18.1957 11.5802 17.9908 11.708 17.6643 11.708H16.9454V10.9068ZM18.613 12.1181C18.5349 11.9962 18.4076 11.901 18.2476 11.8489C18.4714 11.7467 18.613 11.5221 18.613 11.2336C18.613 10.772 18.3242 10.5601 17.6829 10.5601H16.4706V13.2799H17.7278C18.0935 13.2799 18.3434 13.1894 18.5033 13.0549C18.6571 12.9192 18.7283 12.7275 18.7283 12.5226C18.7283 12.3754 18.6897 12.2404 18.613 12.1181Z" fill="#776C61"/>
<path d="M29.9214 13.2799V12.1266C29.9214 11.7144 29.7555 11.5673 29.4741 11.5673C29.1888 11.5673 29.0279 11.7575 29.0279 12.0877V13.2799H28.602V11.2405H29.0279V11.4352C29.1361 11.2884 29.3505 11.1985 29.5742 11.1985C30.0793 11.1985 30.3482 11.5098 30.3482 12.111V13.2799H29.9214Z" fill="#776C61"/>
<path d="M27.729 11.2339H28.1561V13.2799H27.729V11.2339Z" fill="#776C61"/>
<path d="M27.729 10.5624H28.1555V10.9642H27.729V10.5624Z" fill="#776C61"/>
<path d="M24.2254 11.5499C23.9022 11.5499 23.704 11.8174 23.704 12.2212C23.704 12.6678 23.9228 12.9119 24.2455 12.9119C24.5693 12.9119 24.7802 12.6055 24.7802 12.2326C24.7802 11.8174 24.5693 11.5499 24.2254 11.5499ZM24.2303 13.293C23.6829 13.293 23.2729 12.8701 23.2729 12.2326C23.2729 11.5648 23.6949 11.1688 24.2411 11.1688C24.797 11.1688 25.2109 11.5843 25.2109 12.2212C25.2109 12.8966 24.7886 13.293 24.2303 13.293Z" fill="#776C61"/>
<path d="M22.222 12.1524L23.2531 11.2103H22.689L21.7005 12.1104V10.5614H21.2667V13.2799H21.7005V12.1781L22.7438 13.2799H23.3307L22.222 12.1524Z" fill="#776C61"/>
</svg>
