<svg width="58" height="40" viewBox="0 0 58 40" fill="none" xmlns="http://www.w3.org/2000/svg">
<rect width="58" height="40" rx="6" fill="white"/>
<path d="M14.666 20.5926L14.5802 20.538C14.2911 20.2496 13.8876 20.1239 13.3476 20.1564C12.9 20.1821 12.5424 20.3608 12.2714 20.5255V20.5148C12.2714 20.3723 12.2871 20.2214 12.3013 20.0731C12.3181 19.9227 12.3343 19.7695 12.3343 19.6242C12.3343 19.476 12.3165 19.3364 12.2667 19.2159C12.2531 19.1849 12.2253 19.1666 12.1896 19.1666C12.0445 19.1699 11.7598 19.2689 11.6921 19.3302L11.6539 19.412C11.6517 19.5703 11.6162 20.02 11.5805 20.075C11.5827 20.0731 11.5616 20.1301 11.5616 20.1301C11.5007 20.7702 11.5003 21.3338 11.5564 21.8177C11.5627 21.8659 11.6555 21.9388 11.7273 21.966C11.8053 21.9938 12.0534 21.9277 12.1949 21.8738C12.1938 21.8738 12.2478 21.8659 12.2478 21.8659C12.2939 21.86 12.3213 21.8223 12.3181 21.7714L12.3213 21.6326C12.4244 21.2152 12.8412 20.7173 13.3323 20.6418C13.6097 20.5978 13.8298 20.668 14.0024 20.8577C14.0259 20.8919 14.0769 21.1927 13.8938 21.5371C13.758 21.7935 13.4849 22.0089 13.1254 22.1438C12.7851 22.2732 12.4124 22.3246 11.9511 22.3088C11.9321 22.2953 11.5181 22.0163 11.5181 22.0163C11.1533 21.7589 10.6976 21.4396 10.2853 21.2835C10.2133 21.2552 10.0829 21.1472 10.0051 21.0831L9.96222 21.0481C9.72473 20.8572 9.27282 20.5564 8.90909 20.3142C8.90909 20.3142 8.74604 20.2035 8.71354 20.1821C8.71354 20.1689 8.71451 20.1417 8.71451 20.1417C8.72465 20.1313 8.95158 19.9938 8.95158 19.9938C9.27282 19.8061 9.42017 19.7145 9.44947 19.6667C9.44433 19.6742 9.49419 19.6421 9.49419 19.6421C9.49669 19.641 10.2866 19.1939 10.2866 19.1939C11.0467 18.7762 11.9092 18.3007 12.3617 17.831L12.384 17.7617L12.3935 17.6967C12.4235 17.5967 12.4244 17.5195 12.4004 17.4303C12.3935 17.4053 12.37 17.376 12.3396 17.3696C11.9857 17.3352 11.53 17.5468 11.1155 17.9357C11.0197 18.0248 10.9424 18.0668 10.8591 18.1134L10.7962 18.1476C10.3375 18.4082 9.30642 19.0483 8.76812 19.3931C8.8027 18.8123 8.91117 17.9866 9.04172 17.2984L9.02811 17.2166C9.02547 17.2135 8.97144 17.1127 8.97144 17.1127L8.9295 17.0378L8.91853 17.0342C8.80951 16.9806 8.72187 17.0021 8.65743 17.018L8.54952 17.0584L8.40689 17.1107C8.37745 17.117 8.35814 17.1338 8.34662 17.162C8.08927 17.7847 7.87373 18.8091 7.82345 19.6285C7.30862 19.3007 6.83212 19.0649 6.59894 18.9508L6.59311 18.9474L6.5638 18.9423C6.48089 18.9313 6.37812 18.869 6.27854 18.8091C6.2691 18.8038 6.08355 18.6823 6.08355 18.6823L5.78482 18.4909C5.78732 18.492 5.7051 18.473 5.7051 18.473C5.57663 18.4956 5.33012 18.6608 5.2579 18.774C5.24749 18.7894 5.24429 18.8049 5.24429 18.8223C5.24429 18.8459 5.24999 18.8701 5.2579 18.893L5.27054 18.9538L5.28471 18.9912C5.42734 19.1369 5.78996 19.3827 6.14438 19.5734L6.55588 19.7915L7.18488 20.1354C7.18543 20.1396 7.29445 20.2214 7.29445 20.2214L7.36737 20.2633C7.36737 20.2633 7.37473 20.2686 7.38098 20.2728C7.21321 20.3839 6.23549 21.0365 6.23549 21.0365L5.6333 21.4365C5.57608 21.4748 5.33859 21.5823 5.28609 21.6027C5.15513 21.6562 5.05611 21.7363 5.01569 21.8255L5 21.8589L5.01569 21.8831L5.06236 21.9177L5.12374 21.9598L5.18929 22.0048C5.19179 22.0059 5.25276 22.0142 5.25276 22.0142C5.35845 22.018 5.51428 21.9566 5.8094 21.8285C6.07661 21.7096 6.80851 21.2687 7.1221 21.0812L7.25515 21.0004C7.30973 21.0056 7.37153 20.9586 7.42445 20.9187C7.48792 20.8677 7.62471 20.7844 7.70749 20.7477C7.71068 20.7461 7.7579 20.7205 7.80137 20.6952V20.7319C7.81401 21.6882 7.87053 22.3828 7.97483 22.919L7.9765 22.9283L7.98692 22.949C8.03775 23.0255 8.09705 23.2514 8.14954 23.4522L8.26801 23.8505C8.27107 23.8552 8.30148 23.8898 8.30148 23.8898C8.36967 23.9334 8.57563 24.0142 8.71562 23.9978L8.74965 23.9941L8.77173 23.946C8.78284 23.8851 8.78743 23.8274 8.78743 23.7619C8.78743 23.6891 8.78284 23.6088 8.7759 23.5104L8.76645 23.3668C8.72187 22.6978 8.6784 21.7338 8.6784 21.0936V21.0412C8.79215 21.113 9.28754 21.426 9.28754 21.426C10.1332 21.9743 11.4095 22.8017 12.1796 23.0207C12.2189 23.0316 12.262 23.0228 12.2913 22.9946C12.2918 22.9935 12.4104 22.9201 12.4104 22.9201L12.4324 22.9097C12.4764 22.888 12.5057 22.8142 12.511 22.7335C13.1611 22.701 14.0673 22.4503 14.5522 21.8412C14.7406 21.6042 14.8243 21.3144 14.8243 21.0665C14.8243 20.8641 14.7688 20.6884 14.666 20.5926Z" fill="#FCAF16"/>
<path d="M35.4419 22.6821V22.3403C35.2526 22.5997 34.8773 22.756 34.4857 22.756C33.6003 22.756 33.1301 22.2134 33.1301 21.1587V19.1133H33.876V21.132C33.876 21.8517 34.1654 22.1096 34.6582 22.1096C35.1583 22.1096 35.4419 21.7773 35.4419 21.1995V19.1133H36.1867V22.6821H35.4419Z" fill="#776C61"/>
<path d="M46.0667 19.6903C45.7128 19.6903 45.4024 19.9153 45.2065 20.1475V21.6483C45.3721 21.858 45.7213 22.1171 46.0965 22.1171C46.6329 22.1171 46.9228 21.7363 46.9228 20.9816C46.9228 20.0846 46.6187 19.6903 46.0667 19.6903ZM46.1689 22.7628C45.7857 22.7628 45.4235 22.572 45.2133 22.3546V23.5879L44.4741 23.948V19.1205H45.2133V19.4609C45.4895 19.2223 45.8078 19.0455 46.2046 19.0455C47.0234 19.0455 47.6683 19.6028 47.6683 20.9626C47.6683 22.185 46.9605 22.7628 46.1689 22.7628Z" fill="#776C61"/>
<path d="M22.9696 22.1987H24.4652C25.3946 22.1987 25.6421 21.837 25.6421 21.3757C25.6421 20.8296 25.2631 20.5254 24.4264 20.5254H22.9696V22.1987ZM22.9696 19.9843H24.5134C25.0876 19.9843 25.51 19.7674 25.51 19.2611C25.51 18.8186 25.3019 18.5235 24.4264 18.5235H22.9696V19.9843ZM22.212 17.9825H24.5512C25.6636 17.9825 26.2449 18.3493 26.2449 19.1587C26.2449 19.7328 25.8439 20.13 25.3103 20.2354V20.256C26.0763 20.3471 26.4374 20.8482 26.4374 21.4145C26.4374 22.1263 25.9174 22.7397 24.6262 22.7397H22.212V17.9825Z" fill="#776C61"/>
<path d="M17.0654 17.9825H17.826V20.1107L20.3825 17.9825H21.4589L18.7565 20.1313L21.6831 22.7399H20.6081L17.826 20.1895V22.7399H17.0654V17.9825Z" fill="#776C61"/>
<path d="M30.6054 22.1321H29.4045V20.6178H30.5719C31.4137 20.6178 31.7278 20.8305 31.7278 21.3706C31.7278 21.8517 31.3791 22.1321 30.6054 22.1321ZM29.4045 18.5869H30.5719C31.0097 18.5869 31.268 18.6419 31.4137 18.7662C31.5578 18.8679 31.5924 19.046 31.5924 19.2599C31.5924 19.7653 31.234 19.9891 30.6625 19.9891H29.4045V18.5869ZM32.3228 20.7068C32.186 20.4935 31.9632 20.3268 31.6832 20.2356C32.0749 20.0568 32.3228 19.6637 32.3228 19.1588C32.3228 18.3509 31.8174 17.9803 30.6951 17.9803H28.5735V22.7399H30.7737C31.4137 22.7399 31.851 22.5814 32.1308 22.3461C32.3999 22.1087 32.5246 21.7731 32.5246 21.4145C32.5246 21.157 32.4569 20.9207 32.3228 20.7068Z" fill="#776C61"/>
<path d="M52.1125 22.7399V20.7216C52.1125 20.0002 51.8221 19.7428 51.3298 19.7428C50.8303 19.7428 50.5488 20.0756 50.5488 20.6535V22.7399H49.8035V19.1709H50.5488V19.5116C50.7381 19.2548 51.1134 19.0974 51.5049 19.0974C52.3889 19.0974 52.8594 19.6421 52.8594 20.6943V22.7399H52.1125Z" fill="#776C61"/>
<path d="M48.2757 19.1594H49.0232V22.7399H48.2757V19.1594Z" fill="#776C61"/>
<path d="M48.2757 17.9841H49.0222V18.6874H48.2757V17.9841Z" fill="#776C61"/>
<path d="M42.1445 19.7124C41.5789 19.7124 41.2319 20.1806 41.2319 20.8872C41.2319 21.6689 41.615 22.0959 42.1797 22.0959C42.7463 22.0959 43.1154 21.5597 43.1154 20.9071C43.1154 20.1806 42.7463 19.7124 42.1445 19.7124ZM42.153 22.7628C41.1951 22.7628 40.4775 22.0227 40.4775 20.9071C40.4775 19.7385 41.2161 19.0455 42.1719 19.0455C43.1447 19.0455 43.8691 19.7727 43.8691 20.8872C43.8691 22.0692 43.13 22.7628 42.153 22.7628Z" fill="#776C61"/>
<path d="M38.6385 20.7666L40.4429 19.118H39.4558L37.7258 20.6933V17.9825H36.9668V22.7399H37.7258V20.8116L39.5517 22.7399H40.5787L38.6385 20.7666Z" fill="#776C61"/>
</svg>
