<svg width="46" height="32" viewBox="0 0 46 32" fill="none" xmlns="http://www.w3.org/2000/svg">
<rect width="46" height="32" rx="4" fill="white"/>
<path d="M11.5947 15.8228L11.5273 15.7799C11.3002 15.5532 10.9831 15.4545 10.5588 15.48C10.2071 15.5002 9.92614 15.6406 9.71324 15.7701V15.7617C9.71324 15.6497 9.72557 15.5311 9.7367 15.4145C9.74991 15.2964 9.76267 15.176 9.76267 15.0619C9.76267 14.9454 9.7487 14.8358 9.70953 14.7411C9.69884 14.7167 9.67701 14.7023 9.64897 14.7023C9.53494 14.7049 9.31124 14.7827 9.2581 14.8309L9.22809 14.8951C9.22634 15.0195 9.19841 15.3729 9.17036 15.4161C9.17211 15.4145 9.15552 15.4594 9.15552 15.4594C9.10773 15.9623 9.1074 16.4051 9.15149 16.7853C9.1564 16.8232 9.22929 16.8805 9.28571 16.9019C9.34703 16.9237 9.54192 16.8717 9.65312 16.8294C9.65224 16.8294 9.69469 16.8232 9.69469 16.8232C9.73092 16.8186 9.75242 16.7889 9.74991 16.749L9.75242 16.6399C9.83349 16.312 10.161 15.9208 10.5468 15.8614C10.7647 15.8268 10.9377 15.882 11.0733 16.0311C11.0918 16.0579 11.1318 16.2943 10.988 16.5649C10.8813 16.7663 10.6667 16.9356 10.3842 17.0415C10.1169 17.1432 9.824 17.1836 9.46161 17.1712C9.44666 17.1606 9.12137 16.9414 9.12137 16.9414C8.83471 16.7392 8.47668 16.4883 8.1527 16.3656C8.09618 16.3434 7.99371 16.2585 7.93261 16.2082L7.89889 16.1807C7.71229 16.0306 7.35721 15.7943 7.07142 15.604C7.07142 15.604 6.94332 15.517 6.91778 15.5002C6.91778 15.4898 6.91855 15.4685 6.91855 15.4685C6.92651 15.4603 7.10482 15.3522 7.10482 15.3522C7.35721 15.2048 7.47299 15.1328 7.49601 15.0953C7.49198 15.1012 7.53115 15.0759 7.53115 15.0759C7.53312 15.0751 8.15379 14.7238 8.15379 14.7238C8.75101 14.3956 9.42865 14.0219 9.78417 13.6529L9.80174 13.5984L9.80916 13.5474C9.83273 13.4688 9.83349 13.4081 9.81461 13.3381C9.80916 13.3184 9.79072 13.2954 9.76682 13.2904C9.48878 13.2633 9.13075 13.4296 8.80503 13.7352C8.72973 13.8052 8.66906 13.8382 8.60359 13.8749L8.55416 13.9017C8.19373 14.1064 7.38362 14.6093 6.96067 14.8803C6.98784 14.4239 7.07306 13.7752 7.17564 13.2344L7.16494 13.1701C7.16287 13.1677 7.12042 13.0885 7.12042 13.0885L7.08747 13.0297L7.07885 13.0269C6.99319 12.9848 6.92433 13.0017 6.8737 13.0141L6.78891 13.0459L6.67684 13.087C6.65371 13.0919 6.63854 13.1051 6.62949 13.1273C6.42728 13.6166 6.25793 14.4214 6.21843 15.0653C5.81392 14.8077 5.43952 14.6224 5.25631 14.5327L5.25173 14.5301L5.2287 14.5261C5.16356 14.5175 5.08281 14.4685 5.00457 14.4214C4.99715 14.4173 4.85136 14.3218 4.85136 14.3218L4.61664 14.1714C4.61861 14.1723 4.55401 14.1574 4.55401 14.1574C4.45307 14.1752 4.25938 14.3049 4.20264 14.3938C4.19445 14.4059 4.19194 14.4182 4.19194 14.4318C4.19194 14.4504 4.19642 14.4693 4.20264 14.4873L4.21257 14.5351L4.2237 14.5645C4.33576 14.679 4.62068 14.8721 4.89916 15.0219L5.22248 15.1934L5.71669 15.4635C5.71713 15.4668 5.80279 15.5311 5.80279 15.5311L5.86007 15.564C5.86007 15.564 5.86586 15.5682 5.87077 15.5715C5.73895 15.6588 4.97074 16.1715 4.97074 16.1715L4.49759 16.4858C4.45263 16.5159 4.26604 16.6004 4.22479 16.6164C4.12189 16.6584 4.04408 16.7214 4.01233 16.7914L4 16.8177L4.01233 16.8367L4.04899 16.8639L4.09723 16.897L4.14873 16.9323C4.1507 16.9332 4.1986 16.9397 4.1986 16.9397C4.28164 16.9427 4.40407 16.8944 4.63596 16.7938C4.8459 16.7004 5.42097 16.354 5.66737 16.2067L5.7719 16.1431C5.81479 16.1473 5.86335 16.1103 5.90492 16.079C5.95479 16.0389 6.06227 15.9735 6.12731 15.9447C6.12982 15.9433 6.16692 15.9233 6.20108 15.9034V15.9322C6.21101 16.6836 6.25542 17.2293 6.33737 17.6507L6.33868 17.658L6.34686 17.6742C6.3868 17.7343 6.43339 17.9118 6.47464 18.0696L6.56772 18.3825C6.57012 18.3862 6.59402 18.4134 6.59402 18.4134C6.6476 18.4477 6.80943 18.5112 6.91942 18.4983L6.94615 18.4954L6.9635 18.4576C6.97223 18.4097 6.97584 18.3644 6.97584 18.3129C6.97584 18.2557 6.97223 18.1927 6.96678 18.1153L6.95936 18.0025C6.92433 17.4768 6.89018 16.7194 6.89018 16.2164V16.1752C6.97955 16.2316 7.36878 16.4776 7.36878 16.4776C8.03322 16.9084 9.03604 17.5584 9.64111 17.7305C9.67199 17.7391 9.70582 17.7322 9.72885 17.71C9.72928 17.7091 9.82247 17.6515 9.82247 17.6515L9.83971 17.6433C9.8743 17.6263 9.89733 17.5683 9.90147 17.5049C10.4123 17.4793 11.1243 17.2824 11.5053 16.8038C11.6533 16.6176 11.7191 16.3899 11.7191 16.1951C11.7191 16.0361 11.6755 15.8981 11.5947 15.8228Z" fill="#FCAF16"/>
<path d="M27.9186 17.4645V17.196C27.7699 17.3998 27.475 17.5226 27.1673 17.5226C26.4717 17.5226 26.1022 17.0962 26.1022 16.2676V14.6605H26.6883V16.2466C26.6883 16.8121 26.9157 17.0147 27.3029 17.0147C27.6958 17.0147 27.9186 16.7536 27.9186 16.2997V14.6605H28.5038V17.4645H27.9186Z" fill="#776C61"/>
<path d="M36.2667 15.1138C35.9886 15.1138 35.7447 15.2906 35.5908 15.473V16.6522C35.721 16.8169 35.9953 17.0206 36.2901 17.0206C36.7116 17.0206 36.9393 16.7214 36.9393 16.1284C36.9393 15.4236 36.7004 15.1138 36.2667 15.1138ZM36.347 17.5279C36.0459 17.5279 35.7613 17.3779 35.5961 17.2072V18.1762L35.0154 18.4591V14.6661H35.5961V14.9335C35.8132 14.7461 36.0633 14.6071 36.375 14.6071C37.0184 14.6071 37.5251 15.045 37.5251 16.1134C37.5251 17.0739 36.969 17.5279 36.347 17.5279Z" fill="#776C61"/>
<path d="M18.119 17.0848H19.2941C20.0244 17.0848 20.2188 16.8006 20.2188 16.4381C20.2188 16.009 19.921 15.7701 19.2636 15.7701H18.119V17.0848ZM18.119 15.3449H19.332C19.7831 15.3449 20.115 15.1745 20.115 14.7766C20.115 14.429 19.9515 14.1971 19.2636 14.1971H18.119V15.3449ZM17.5237 13.7721H19.3617C20.2357 13.7721 20.6924 14.0603 20.6924 14.6962C20.6924 15.1473 20.3774 15.4594 19.9581 15.5422V15.5584C20.5599 15.63 20.8436 16.0237 20.8436 16.4687C20.8436 17.0279 20.4351 17.5099 19.4206 17.5099H17.5237V13.7721Z" fill="#776C61"/>
<path d="M13.4799 13.772H14.0776V15.4441L16.0863 13.772H16.932L14.8087 15.4603L17.1082 17.5099H16.2635L14.0776 15.506V17.5099H13.4799V13.772Z" fill="#776C61"/>
<path d="M24.1185 17.0324H23.1749V15.8425H24.0922C24.7536 15.8425 25.0004 16.0097 25.0004 16.4341C25.0004 16.8121 24.7264 17.0324 24.1185 17.0324ZM23.1749 14.2468H24.0922C24.4362 14.2468 24.6391 14.2901 24.7536 14.3877C24.8669 14.4676 24.894 14.6076 24.894 14.7756C24.894 15.1727 24.6124 15.3485 24.1634 15.3485H23.1749V14.2468ZM25.4679 15.9125C25.3604 15.7449 25.1854 15.6139 24.9654 15.5422C25.2731 15.4018 25.4679 15.0929 25.4679 14.6962C25.4679 14.0615 25.0708 13.7702 24.189 13.7702H22.5221V17.5099H24.2508C24.7536 17.5099 25.0972 17.3854 25.3171 17.2005C25.5285 17.0139 25.6265 16.7503 25.6265 16.4685C25.6265 16.2662 25.5733 16.0805 25.4679 15.9125Z" fill="#776C61"/>
<path d="M41.017 17.5099V15.9241C41.017 15.3573 40.7888 15.1551 40.402 15.1551C40.0096 15.1551 39.7884 15.4165 39.7884 15.8706V17.5099H39.2027V14.7057H39.7884V14.9734C39.9371 14.7716 40.2319 14.648 40.5396 14.648C41.2341 14.648 41.6038 15.0759 41.6038 15.9026V17.5099H41.017Z" fill="#776C61"/>
<path d="M38.0023 14.6966H38.5896V17.5099H38.0023V14.6966Z" fill="#776C61"/>
<path d="M38.0023 13.7732H38.5889V14.3258H38.0023V13.7732Z" fill="#776C61"/>
<path d="M33.185 15.1312C32.7405 15.1312 32.4679 15.4991 32.4679 16.0543C32.4679 16.6684 32.7689 17.004 33.2126 17.004C33.6578 17.004 33.9478 16.5826 33.9478 16.0699C33.9478 15.4991 33.6578 15.1312 33.185 15.1312ZM33.1916 17.528C32.439 17.528 31.8752 16.9464 31.8752 16.0699C31.8752 15.1517 32.4555 14.6072 33.2065 14.6072C33.9709 14.6072 34.54 15.1786 34.54 16.0543C34.54 16.983 33.9593 17.528 33.1916 17.528Z" fill="#776C61"/>
<path d="M30.4303 15.9595L31.848 14.6641H31.0724L29.7131 15.9019V13.772H29.1168V17.5099H29.7131V15.9949L31.1477 17.5099H31.9547L30.4303 15.9595Z" fill="#776C61"/>
</svg>
