<svg width="28" height="20" viewBox="0 0 28 20" fill="none" xmlns="http://www.w3.org/2000/svg">
<path fill-rule="evenodd" clip-rule="evenodd" d="M4.33934 12.8164H3.20001V7.5H4.33934V12.8164ZM7.18378 7.5H6.06916C6.06916 8.47835 5.64913 9.37631 4.91681 9.96379L4.47522 10.3179L6.18625 12.8166H7.59305L6.01867 10.5175C6.76496 9.72163 7.18378 8.65095 7.18378 7.5ZM9.00102 12.8149H7.92506V7.50102H9.00102V12.8149ZM12.2519 9.13907V9.37421C11.9615 9.16211 11.6111 9.03747 11.2332 9.03747C10.2329 9.03747 9.42201 9.90585 9.42201 10.9771C9.42201 12.0483 10.2329 12.9167 11.2332 12.9167C11.6111 12.9167 11.9615 12.792 12.2519 12.58V12.8149H13.2796V9.13907H12.2519ZM12.2488 10.9771C12.2488 11.4994 11.8318 11.9228 11.3175 11.9228C10.8033 11.9228 10.3864 11.4994 10.3864 10.9771C10.3864 10.4548 10.8033 10.0314 11.3175 10.0314C11.8318 10.0314 12.2488 10.4548 12.2488 10.9771ZM23.0937 9.37421V9.13907H24.1213V12.8149H23.0937V12.58C22.8034 12.792 22.4529 12.9167 22.0749 12.9167C21.0747 12.9167 20.2638 12.0483 20.2638 10.9771C20.2638 9.90585 21.0747 9.03747 22.0749 9.03747C22.4529 9.03747 22.8034 9.16211 23.0937 9.37421ZM22.1593 11.9228C22.6736 11.9228 23.0905 11.4994 23.0905 10.9771C23.0905 10.4548 22.6736 10.0314 22.1593 10.0314C21.645 10.0314 21.2281 10.4548 21.2281 10.9771C21.2281 11.4994 21.645 11.9228 22.1593 11.9228ZM24.5674 12.2018C24.5674 11.8203 24.8561 11.5111 25.2122 11.5111C25.5684 11.5111 25.8572 11.8203 25.8572 12.2018C25.8572 12.5831 25.5684 12.8924 25.2122 12.8924C24.8561 12.8924 24.5674 12.5831 24.5674 12.2018ZM18.4376 9.04021C18.0271 9.04021 17.6386 9.17669 17.3788 9.55325V9.13929H16.3556V12.8149H17.3914V10.8832C17.3914 10.3243 17.7414 10.0505 18.1628 10.0505C18.6145 10.0505 18.8741 10.3395 18.8741 10.8756V12.8149H19.9006V10.4774C19.9006 9.62195 19.2655 9.04021 18.4376 9.04021ZM14.8693 9.13914V9.61789C15.0753 9.33071 15.4592 9.13935 15.8765 9.13935V10.209L15.8708 10.2087L15.8643 10.2085C15.4577 10.2085 14.8717 10.5197 14.8717 11.0987V12.8149H13.8172V9.13914H14.8693Z" fill="#17120F"/>
</svg>
