<svg width="34" height="24" viewBox="0 0 34 24" fill="none" xmlns="http://www.w3.org/2000/svg">
<rect width="34" height="24" rx="4" fill="#6936D3"/>
<rect x="8" y="3" width="18" height="18" rx="8.31769" fill="#6936D3"/>
<g clip-path="url(#clip0_301_5972)">
<path d="M12.0126 16.7953C12.0387 16.7584 12.0602 16.7258 12.0839 16.6948C12.7953 15.768 13.4093 14.78 13.9437 13.7417C14.6503 12.369 15.2113 10.9385 15.6539 9.46046C15.884 8.69173 16.0797 7.91448 16.2427 7.12903C16.3366 6.67666 16.4125 6.22094 16.4809 5.76404C16.4918 5.69075 16.5009 5.6172 16.51 5.54365C16.5141 5.51022 16.535 5.49947 16.5645 5.50242C16.6644 5.51225 16.7642 5.52261 16.8639 5.53395C17.1587 5.56738 17.4536 5.60094 17.7484 5.63529C18.0128 5.6661 18.2771 5.69835 18.5414 5.72943C18.5892 5.735 18.6373 5.73664 18.685 5.74227C18.7341 5.74811 18.7479 5.76246 18.7428 5.80933C18.7337 5.8916 18.7232 5.97387 18.7091 6.05542C18.6414 6.44617 18.5698 6.83614 18.4892 7.22448C18.3447 7.92025 18.176 8.60992 17.9858 9.29462C17.7511 10.1392 17.4836 10.9731 17.1753 11.7938C17.1707 11.8061 17.1667 11.8185 17.1619 11.8307C17.0952 12.001 17.0946 11.9859 17.2607 11.9719C17.9663 11.9128 18.5899 11.659 19.1198 11.1864C19.4227 10.9163 19.6628 10.5963 19.8568 10.2411C19.9677 10.0379 20.0638 9.82788 20.1437 9.61058C20.1512 9.59013 20.1581 9.56941 20.1667 9.54948C20.1792 9.52103 20.1983 9.51389 20.2293 9.52523C20.3317 9.56266 20.4352 9.59721 20.5381 9.63333C20.9867 9.79078 21.4353 9.94843 21.8839 10.106C21.9127 10.1161 21.9416 10.1261 21.9699 10.1376C21.9938 10.1472 22.0016 10.1674 21.9941 10.1905C21.9793 10.2361 21.9635 10.2813 21.946 10.326C21.7042 10.9454 21.3614 11.505 20.9354 12.0141C20.527 12.5022 20.0634 12.9307 19.5334 13.2852C19.4174 13.3629 19.2965 13.433 19.1778 13.5065C19.1592 13.518 19.14 13.5284 19.1218 13.5405C19.1055 13.5514 19.1064 13.5749 19.1231 13.5822C19.135 13.5874 19.1475 13.5914 19.1598 13.5956C19.6006 13.7455 19.9475 14.0205 20.2206 14.3927C20.488 14.7572 20.656 15.1659 20.7606 15.603C20.8567 16.0048 20.8846 16.4121 20.869 16.8238C20.8483 17.3694 20.7344 17.8949 20.5317 18.4015C20.522 18.4257 20.5125 18.4501 20.5006 18.4733C20.4923 18.4896 20.4767 18.4982 20.4579 18.4983C20.4448 18.4983 20.4318 18.4972 20.4187 18.4966C20.0958 18.483 19.7728 18.4701 19.4499 18.4556C19.0878 18.4394 18.7258 18.4217 18.3637 18.4044C18.342 18.4034 18.3201 18.4022 18.2988 18.3982C18.2779 18.3943 18.2709 18.3773 18.2767 18.359C18.2871 18.3258 18.3007 18.2936 18.3128 18.2609C18.4445 17.9046 18.554 17.5422 18.6243 17.1684C18.685 16.8451 18.7097 16.5191 18.6849 16.1916C18.6293 15.4582 18.3093 14.8673 17.7147 14.4281C17.4027 14.1976 17.0603 14.0279 16.6898 13.9146C16.5855 13.8828 16.479 13.8582 16.382 13.8061C16.3549 13.7915 16.3311 13.798 16.3165 13.8263C16.3005 13.8573 16.2855 13.8888 16.2704 13.9202C15.9986 14.4864 15.7316 15.0548 15.443 15.6127C15.1462 16.1866 14.8303 16.7494 14.4604 17.2803C14.243 17.5922 14.0087 17.8905 13.7485 18.1682C13.7275 18.1905 13.7071 18.2133 13.685 18.2343C13.6545 18.2634 13.6405 18.2643 13.6067 18.2345C13.5214 18.1596 13.4373 18.0833 13.3529 18.0074C12.9178 17.6163 12.4828 17.2252 12.0479 16.8339C12.0383 16.8253 12.0303 16.8147 12.0126 16.7952L12.0126 16.7953Z" fill="white"/>
</g>
<defs>
<clipPath id="clip0_301_5972">
<rect width="9.9842" height="12.9964" fill="white" transform="translate(12.0126 5.50183)"/>
</clipPath>
</defs>
</svg>
