<svg width="28" height="20" viewBox="0 0 28 20" fill="none" xmlns="http://www.w3.org/2000/svg">
<rect width="28" height="20" rx="4" fill="#6936D3"/>
<rect x="7" y="3" width="14" height="14" rx="7" fill="#6936D3"/>
<g clip-path="url(#clip0_301_6010)">
<path d="M10.1209 13.7296C10.1412 13.7009 10.1579 13.6755 10.1764 13.6515C10.7297 12.9306 11.2072 12.1622 11.6229 11.3547C12.1724 10.287 12.6088 9.17438 12.953 8.02476C13.132 7.42686 13.2842 6.82233 13.411 6.21143C13.484 5.85958 13.5431 5.50513 13.5962 5.14977C13.6047 5.09277 13.6118 5.03556 13.6189 4.97835C13.6221 4.95235 13.6383 4.94399 13.6612 4.94629C13.7389 4.95393 13.8166 4.96199 13.8941 4.97081C14.1235 4.99681 14.3528 5.02292 14.5821 5.04963C14.7878 5.07359 14.9933 5.09868 15.1989 5.12285C15.236 5.12718 15.2734 5.12845 15.3106 5.13284C15.3487 5.13738 15.3595 5.14854 15.3555 5.185C15.3484 5.24898 15.3403 5.31297 15.3293 5.3764C15.2767 5.68032 15.221 5.98363 15.1583 6.28566C15.0459 6.82682 14.9147 7.36323 14.7667 7.89577C14.5842 8.55266 14.3762 9.20125 14.1363 9.83958C14.1328 9.84911 14.1296 9.8588 14.1259 9.86828C14.074 10.0007 14.0736 9.98897 14.2028 9.97811C14.7516 9.93212 15.2366 9.7347 15.6487 9.36715C15.8843 9.15709 16.0711 8.90818 16.222 8.6319C16.3082 8.47389 16.383 8.31054 16.4451 8.14152C16.4509 8.12561 16.4563 8.1095 16.463 8.094C16.4727 8.07187 16.4876 8.06632 16.5117 8.07514C16.5914 8.10425 16.6718 8.13112 16.7519 8.15921C17.1008 8.28168 17.4497 8.4043 17.7986 8.52687C17.821 8.53472 17.8434 8.54252 17.8655 8.55139C17.8841 8.55888 17.8901 8.57459 17.8843 8.59259C17.8728 8.62802 17.8605 8.6632 17.8469 8.69792C17.6588 9.17973 17.3922 9.61494 17.0609 10.0109C16.7432 10.3905 16.3826 10.7238 15.9704 10.9996C15.8802 11.06 15.7861 11.1145 15.6938 11.1717C15.6794 11.1806 15.6644 11.1887 15.6503 11.1981C15.6376 11.2066 15.6383 11.2248 15.6513 11.2306C15.6605 11.2346 15.6703 11.2377 15.6798 11.241C16.0227 11.3576 16.2925 11.5715 16.5049 11.861C16.7129 12.1444 16.8435 12.4624 16.9249 12.8023C16.9997 13.1148 17.0214 13.4316 17.0092 13.7518C16.9931 14.1762 16.9046 14.5849 16.7469 14.9789C16.7393 14.9977 16.7319 15.0167 16.7227 15.0348C16.7162 15.0474 16.7041 15.0541 16.6894 15.0542C16.6793 15.0542 16.6692 15.0533 16.659 15.0529C16.4078 15.0423 16.1567 15.0323 15.9055 15.021C15.6239 15.0083 15.3423 14.9946 15.0607 14.9812C15.0438 14.9804 15.0267 14.9794 15.0102 14.9763C14.9939 14.9733 14.9885 14.9601 14.993 14.9458C15.0011 14.92 15.0117 14.895 15.0211 14.8696C15.1235 14.5925 15.2087 14.3106 15.2633 14.0198C15.3106 13.7684 15.3298 13.5148 15.3105 13.2601C15.2672 12.6897 15.0183 12.2301 14.5559 11.8885C14.3132 11.7092 14.0469 11.5772 13.7587 11.4891C13.6776 11.4643 13.5948 11.4452 13.5193 11.4047C13.4982 11.3933 13.4797 11.3984 13.4684 11.4204C13.4559 11.4445 13.4443 11.469 13.4325 11.4935C13.2211 11.9338 13.0135 12.3759 12.789 12.8099C12.5581 13.2562 12.3125 13.6939 12.0247 14.1068C11.8557 14.3494 11.6734 14.5815 11.471 14.7974C11.4548 14.8148 11.4389 14.8325 11.4217 14.8489C11.398 14.8715 11.3871 14.8722 11.3607 14.849C11.2944 14.7907 11.229 14.7314 11.1634 14.6724C10.825 14.3682 10.4866 14.064 10.1484 13.7597C10.1409 13.7529 10.1347 13.7447 10.1209 13.7295L10.1209 13.7296Z" fill="white"/>
</g>
<defs>
<clipPath id="clip0_301_6010">
<rect width="7.76549" height="10.1083" fill="white" transform="translate(10.1209 4.9458)"/>
</clipPath>
</defs>
</svg>
