<svg width="58" height="40" viewBox="0 0 58 40" fill="none" xmlns="http://www.w3.org/2000/svg">
<rect width="58" height="40" rx="6" fill="#6936D3"/>
<rect x="15" y="6" width="28" height="28" rx="8.31769" fill="#6936D3"/>
<g clip-path="url(#clip0_301_6086)">
<path d="M21.2419 27.4593C21.2825 27.4019 21.3158 27.3511 21.3527 27.303C22.4594 25.8612 23.4145 24.3243 24.2457 22.7093C25.3449 20.5739 26.2175 18.3488 26.906 16.0495C27.264 14.8537 27.5684 13.6447 27.822 12.4229C27.968 11.7192 28.0861 11.0103 28.1925 10.2995C28.2095 10.1855 28.2237 10.0711 28.2378 9.95671C28.2442 9.9047 28.2767 9.88798 28.3225 9.89257C28.4779 9.90787 28.6332 9.92398 28.7883 9.94162C29.247 9.99362 29.7056 10.0458 30.1642 10.0993C30.5755 10.1472 30.9866 10.1974 31.3978 10.2457C31.472 10.2544 31.5469 10.2569 31.6211 10.2657C31.6975 10.2748 31.719 10.2971 31.711 10.37C31.6969 10.498 31.6806 10.6259 31.6585 10.7528C31.5533 11.3606 31.442 11.9673 31.3165 12.5713C31.0918 13.6536 30.8293 14.7265 30.5334 15.7915C30.1685 17.1053 29.7523 18.4025 29.2726 19.6792C29.2655 19.6982 29.2593 19.7176 29.2518 19.7366C29.148 20.0015 29.1472 19.9779 29.4056 19.9562C30.5031 19.8642 31.4732 19.4694 32.2975 18.7343C32.7686 18.3142 33.1422 17.8164 33.4439 17.2638C33.6165 16.9478 33.766 16.6211 33.8902 16.283C33.9019 16.2512 33.9126 16.219 33.9261 16.188C33.9454 16.1437 33.9752 16.1326 34.0234 16.1503C34.1827 16.2085 34.3436 16.2622 34.5037 16.3184C35.2016 16.5634 35.8994 16.8086 36.5972 17.0537C36.6419 17.0694 36.6869 17.085 36.731 17.1028C36.7682 17.1178 36.7802 17.1492 36.7686 17.1852C36.7456 17.256 36.721 17.3264 36.6938 17.3958C36.3177 18.3595 35.7845 19.2299 35.1218 20.0218C34.4864 20.781 33.7653 21.4476 32.9408 21.9992C32.7604 22.1199 32.5723 22.229 32.3876 22.3434C32.3588 22.3613 32.3289 22.3774 32.3007 22.3963C32.2752 22.4132 32.2767 22.4497 32.3026 22.4611C32.321 22.4693 32.3405 22.4754 32.3597 22.4819C33.0453 22.7152 33.585 23.143 34.0099 23.722C34.4258 24.2888 34.6871 24.9247 34.8498 25.6046C34.9994 26.2296 35.0427 26.8633 35.0185 27.5036C34.9862 28.3523 34.8091 29.1697 34.4937 29.9578C34.4786 29.9955 34.4638 30.0334 34.4454 30.0695C34.4324 30.0948 34.4082 30.1083 34.3789 30.1084C34.3586 30.1084 34.3383 30.1066 34.3179 30.1058C33.8156 30.0846 33.3133 30.0645 32.811 30.042C32.2477 30.0167 31.6845 29.9893 31.1214 29.9623C31.0876 29.9607 31.0535 29.9589 31.0203 29.9527C30.9879 29.9466 30.977 29.9202 30.986 29.8917C31.0022 29.8401 31.0234 29.79 31.0421 29.7391C31.247 29.1849 31.4174 28.6211 31.5267 28.0396C31.6211 27.5368 31.6596 27.0296 31.6209 26.5201C31.5344 25.3794 31.0366 24.4602 30.1118 23.7769C29.6265 23.4184 29.0938 23.1544 28.5175 22.9782C28.3552 22.9286 28.1896 22.8904 28.0386 22.8093C27.9965 22.7867 27.9595 22.7968 27.9367 22.8408C27.9119 22.8891 27.8886 22.938 27.8651 22.987C27.4423 23.8676 27.027 24.7519 26.578 25.6197C26.1163 26.5124 25.625 27.3878 25.0494 28.2137C24.7113 28.6988 24.3469 29.163 23.9421 29.5948C23.9095 29.6295 23.8777 29.665 23.8433 29.6977C23.7959 29.743 23.7741 29.7443 23.7215 29.698C23.5888 29.5815 23.458 29.4629 23.3268 29.3448C22.65 28.7365 21.9732 28.128 21.2967 27.5193C21.2818 27.5059 21.2694 27.4895 21.2419 27.4591L21.2419 27.4593Z" fill="white"/>
</g>
<defs>
<clipPath id="clip0_301_6086">
<rect width="15.531" height="20.2166" fill="white" transform="translate(21.2419 9.89172)"/>
</clipPath>
</defs>
</svg>
