<svg width="46" height="32" viewBox="0 0 46 32" fill="none" xmlns="http://www.w3.org/2000/svg">
<rect width="46" height="32" rx="4" fill="#6936D3"/>
<rect x="12" y="5" width="22" height="22" rx="8.31769" fill="#6936D3"/>
<g clip-path="url(#clip0_301_6048)">
<path d="M16.9043 21.8608C16.9362 21.8157 16.9624 21.7758 16.9914 21.738C17.861 20.6052 18.6114 19.3977 19.2645 18.1287C20.1281 16.4509 20.8138 14.7026 21.3547 12.896C21.636 11.9565 21.8752 11.0065 22.0744 10.0465C22.1892 9.49361 22.2819 8.93662 22.3655 8.37819C22.3789 8.28861 22.39 8.19872 22.4011 8.10883C22.4061 8.06796 22.4317 8.05483 22.4677 8.05843C22.5898 8.07045 22.7118 8.08311 22.8336 8.09697C23.194 8.13783 23.5544 8.17885 23.9147 8.22083C24.2379 8.25849 24.5609 8.29791 24.884 8.33588C24.9423 8.34269 25.0011 8.3447 25.0594 8.35159C25.1195 8.35872 25.1364 8.37626 25.13 8.43355C25.119 8.5341 25.1062 8.63465 25.0888 8.73432C25.0062 9.21191 24.9187 9.68854 24.8201 10.1632C24.6435 11.0136 24.4373 11.8565 24.2048 12.6933C23.9181 13.7256 23.5911 14.7448 23.2142 15.7479C23.2086 15.7629 23.2037 15.7781 23.1979 15.793C23.1163 16.0011 23.1157 15.9826 23.3187 15.9656C24.181 15.8933 24.9432 15.5831 25.5909 15.0055C25.961 14.6754 26.2546 14.2843 26.4917 13.8501C26.6272 13.6018 26.7447 13.3451 26.8423 13.0795C26.8515 13.0545 26.8599 13.0292 26.8705 13.0048C26.8857 12.9701 26.9091 12.9613 26.947 12.9752C27.0721 13.0209 27.1986 13.0632 27.3243 13.1073C27.8727 13.2998 28.4209 13.4924 28.9692 13.6851C29.0044 13.6974 29.0397 13.7097 29.0743 13.7236C29.1036 13.7354 29.113 13.76 29.1039 13.7883C29.0858 13.844 29.0665 13.8993 29.0451 13.9539C28.7496 14.711 28.3306 15.3949 27.8099 16.0171C27.3107 16.6137 26.7441 17.1374 26.0964 17.5708C25.9546 17.6656 25.8068 17.7514 25.6617 17.8413C25.639 17.8553 25.6156 17.8679 25.5934 17.8828C25.5733 17.8961 25.5745 17.9247 25.5949 17.9337C25.6094 17.9401 25.6247 17.9449 25.6397 17.9501C26.1785 18.1334 26.6025 18.4695 26.9363 18.9244C27.2631 19.3698 27.4684 19.8694 27.5963 20.4036C27.7138 20.8947 27.7479 21.3925 27.7288 21.8957C27.7035 22.5625 27.5643 23.2048 27.3165 23.8239C27.3046 23.8536 27.293 23.8834 27.2785 23.9117C27.2683 23.9316 27.2493 23.9422 27.2263 23.9423C27.2103 23.9423 27.1944 23.9409 27.1784 23.9403C26.7837 23.9236 26.389 23.9078 25.9944 23.8901C25.5518 23.8702 25.1093 23.8487 24.6668 23.8275C24.6403 23.8263 24.6134 23.8248 24.5874 23.8199C24.5619 23.8152 24.5533 23.7944 24.5604 23.772C24.5731 23.7315 24.5898 23.6921 24.6045 23.6522C24.7655 23.2167 24.8994 22.7737 24.9853 22.3168C25.0594 21.9217 25.0896 21.5232 25.0593 21.1229C24.9913 20.2266 24.6002 19.5045 23.8735 18.9676C23.4922 18.6859 23.0737 18.4784 22.6208 18.34C22.4934 18.3011 22.3633 18.271 22.2446 18.2073C22.2115 18.1895 22.1824 18.1975 22.1646 18.2321C22.145 18.27 22.1268 18.3084 22.1082 18.3469C21.7761 19.0388 21.4497 19.7336 21.097 20.4155C20.7342 21.1169 20.3482 21.8047 19.896 22.4536C19.6303 22.8348 19.344 23.1995 19.0259 23.5388C19.0003 23.566 18.9753 23.5939 18.9483 23.6196C18.9111 23.6552 18.8939 23.6562 18.8526 23.6199C18.7484 23.5283 18.6456 23.4351 18.5424 23.3423C18.0107 22.8643 17.4789 22.3863 16.9474 21.908C16.9357 21.8975 16.926 21.8846 16.9043 21.8607V21.8608Z" fill="white"/>
</g>
<defs>
<clipPath id="clip0_301_6048">
<rect width="12.2029" height="15.8845" fill="white" transform="translate(16.9043 8.05774)"/>
</clipPath>
</defs>
</svg>
