<svg width="34" height="24" viewBox="0 0 34 24" fill="none" xmlns="http://www.w3.org/2000/svg">
<g clip-path="url(#clip0_301_5940)">
<g clip-path="url(#clip1_301_5940)">
<path fill-rule="evenodd" clip-rule="evenodd" d="M15.45 12.3101C14.95 13.1501 14.54 13.8801 14.04 14.7201C13.55 15.5601 13.1 16.3001 12.61 17.1401C12.48 17.3601 12.35 17.4401 12.09 17.4401C11.1 17.4401 10.26 17.4401 9.27 17.4401C8.29 17.4401 7.42 17.4301 6.43 17.4301C6.18 17.4301 6.04 17.3501 5.91 17.1301C5.42 16.2801 5 15.5701 4.5 14.7201C4.01 13.8801 3.59 13.1301 3.1 12.2901C2.97 12.0601 2.97 11.9101 3.1 11.6901C3.59 10.8501 4.01 10.1201 4.5 9.28006C4.99 8.44006 5.44 7.70006 5.93 6.86006C6.06 6.64006 6.2 6.56006 6.46 6.56006C7.44 6.56006 8.28 6.56006 9.27 6.56006C10.26 6.56006 11.12 6.57006 12.11 6.57006C12.37 6.57006 12.5 6.65006 12.63 6.87006C13.13 7.72006 13.55 8.43006 14.04 9.28006C14.54 10.1201 14.96 10.8701 15.45 11.7101C15.58 11.9401 15.58 12.0901 15.45 12.3101Z" fill="white"/>
<path fill-rule="evenodd" clip-rule="evenodd" d="M8.76 10.3301H8.54V11.9301H8.83C9.23 11.9301 9.53 11.8601 9.75 11.7201C9.96 11.5801 10.06 11.3801 10.06 11.1201C10.06 10.8501 9.96 10.6501 9.75 10.5201C9.54 10.4001 9.21 10.3301 8.76 10.3301ZM15.45 12.3101C15.27 12.6201 15.1 12.9101 14.93 13.1901C14.91 12.8701 14.8 12.5901 14.59 12.3501C14.36 12.0901 13.91 11.8001 13.25 11.4901L12.45 11.1201C12.19 11.0001 12.18 10.8101 12.19 10.6701C12.21 10.4901 12.5 10.3101 12.74 10.3201C13.35 10.3501 13.55 10.5201 14.06 10.7901L14.49 10.0501C14.81 10.6001 15.11 11.1301 15.45 11.7101C15.58 11.9401 15.58 12.0901 15.45 12.3101ZM14 14.7901C13.53 15.6001 13.09 16.3201 12.61 17.1401C12.48 17.3601 12.35 17.4401 12.09 17.4401C11.1 17.4401 10.26 17.4401 9.27 17.4401C8.29 17.4401 7.42 17.4301 6.43 17.4301C6.18 17.4301 6.04 17.3501 5.91 17.1301C5.49 16.4101 5.12 15.7801 4.72 15.0901H6.7L7.04 14.4701V15.0901H8.5V13.1901C8.54 13.1901 8.58 13.2001 8.62 13.2001C8.66 13.2001 8.85 13.2001 8.94 13.2001C9.3 13.2001 9.76 13.2001 10.05 13.1301C10.67 12.9901 11.13 12.5801 11.38 12.0301C12 12.7201 13 12.9301 13.24 13.0701C13.48 13.2201 13.46 13.4301 13.4 13.5201C13.33 13.6301 13.1 13.6801 13.01 13.6801C12.47 13.7301 11.73 13.3801 11.43 13.0801C11.12 13.5401 10.77 14.0401 10.65 14.2901C10.96 14.5801 11.41 14.9001 12.47 15.0201C13.08 15.0901 13.59 15.0101 14 14.7901ZM3.61 13.1801C3.44 12.8901 3.27 12.5901 3.1 12.2901C2.97 12.0601 2.97 11.9101 3.1 11.6901C3.59 10.8501 4.01 10.1201 4.5 9.28006C4.99 8.44006 5.44 7.70006 5.93 6.86006C6.06 6.64006 6.2 6.56006 6.46 6.56006C7.44 6.56006 8.28 6.56006 9.27 6.56006C10.26 6.56006 11.12 6.57006 12.11 6.57006C12.37 6.57006 12.5 6.65006 12.63 6.87006C13.13 7.72006 13.55 8.43006 14.04 9.28006L14.06 9.30006C13.82 9.23006 13.59 9.16006 13.46 9.14006C13.18 9.09006 12.92 9.07006 12.68 9.07006C12.47 9.07006 12.27 9.08006 12.08 9.11006L11.46 10.2401C11.34 9.98006 11.13 9.72006 10.79 9.47006C10.08 8.98006 9.48 9.05006 8.45 9.10006L7.04 11.6601V13.7501H5.1V8.91006L3.61 11.6201V13.1801Z" fill="#DC7902"/>
<path d="M27.44 14.82L28.16 13.25H28.47L29.19 14.81H28.84L28.71 14.49H27.93L27.78 14.82H27.44ZM28.6 14.21L28.33 13.6L28.07 14.21H28.6Z" fill="#333333"/>
<path d="M23.74 14.82L24.45 13.25H24.76L25.48 14.81H25.13L25.01 14.49H24.22L24.08 14.82H23.74ZM24.9 14.21L24.63 13.6L24.37 14.21H24.9Z" fill="#333333"/>
<path d="M23.53 13.76C23.53 13.83 23.52 13.9 23.5 13.97C23.48 14.03 23.45 14.09 23.41 14.13C23.39 14.16 23.36 14.18 23.34 14.21C23.31 14.23 23.28 14.25 23.25 14.27C23.21 14.28 23.18 14.3 23.14 14.3C23.1 14.31 23.06 14.32 23.01 14.32H22.58V14.81H22.24V13.25L23.01 13.27C23.09 13.27 23.16 13.28 23.22 13.29C23.27 13.31 23.32 13.34 23.37 13.37C23.42 13.41 23.46 13.46 23.49 13.53C23.51 13.59 23.53 13.67 23.53 13.76ZM23.23 13.72C23.23 13.68 23.22 13.64 23.21 13.61C23.19 13.58 23.17 13.56 23.14 13.55C23.11 13.53 23.08 13.52 23.05 13.52C23.02 13.51 22.67 13.51 22.62 13.51H22.58V14.05H22.6C22.63 14.05 22.66 14.05 22.69 14.05C22.72 14.05 23.05 14.05 23.07 14.05C23.09 14.04 23.11 14.04 23.13 14.03C23.15 14.01 23.16 14 23.18 13.99C23.2 13.97 23.21 13.94 23.22 13.91C23.23 13.88 23.23 13.77 23.23 13.72Z" fill="#333333"/>
<path d="M24.35 12.7L25.07 11.13H25.38L26.1 12.69H25.75L25.62 12.38H24.84L24.69 12.7H24.35ZM25.51 12.1L25.24 11.49L24.98 12.1H25.51Z" fill="#333333"/>
<path d="M18.87 11.6101C18.87 11.6801 18.86 11.7501 18.84 11.8101C18.82 11.8801 18.79 11.9301 18.75 11.9801C18.73 12.0101 18.71 12.0301 18.68 12.0501C18.65 12.0801 18.62 12.1001 18.59 12.1101C18.56 12.1301 18.52 12.1401 18.48 12.1501C18.44 12.1601 18.4 12.1601 18.35 12.1601L17.92 12.1501V12.6601H17.58V11.1001L18.36 11.1101C18.43 11.1201 18.5 11.1201 18.56 11.1401C18.61 11.1501 18.67 11.1801 18.71 11.2201C18.76 11.2601 18.8 11.3101 18.83 11.3701C18.86 11.4401 18.87 11.5201 18.87 11.6101ZM18.58 11.5801C18.58 11.5301 18.57 11.4901 18.55 11.4601C18.53 11.4301 18.51 11.4101 18.48 11.4001C18.45 11.3801 18.42 11.3701 18.39 11.3701C18.36 11.3701 18.02 11.3701 17.97 11.3701H17.92V11.9101H17.94C17.97 11.9101 18 11.9001 18.03 11.9001C18.06 11.9001 18.39 11.9001 18.41 11.9001C18.43 11.8901 18.45 11.8901 18.47 11.8801C18.49 11.8701 18.51 11.8501 18.52 11.8401C18.54 11.8201 18.56 11.7901 18.56 11.7601C18.57 11.7301 18.58 11.6201 18.58 11.5801Z" fill="#333333"/>
<path d="M28.13 10.57L28.85 9H29.16L29.88 10.56H29.53L29.41 10.24H28.62L28.47 10.57H28.13ZM29.29 9.96L29.02 9.36L28.76 9.96H29.29Z" fill="#333333"/>
<path d="M24.43 10.57L25.15 9H25.45L26.17 10.56H25.83L25.7 10.24H24.91L24.77 10.57H24.43ZM25.59 9.96L25.32 9.36L25.06 9.96H25.59Z" fill="#333333"/>
<path d="M24.2 10.08C24.2 10.16 24.19 10.23 24.16 10.29C24.14 10.34 24.11 10.39 24.06 10.43C24.01 10.48 23.96 10.51 23.9 10.53C23.84 10.55 23.63 10.56 23.54 10.56H22.86V9H23.47C23.57 9 23.78 9 23.83 9.01C23.88 9.02 23.93 9.04 23.97 9.07C24.02 9.1 24.05 9.14 24.08 9.19C24.1 9.24 24.11 9.3 24.11 9.36C24.11 9.44 24.1 9.51 24.06 9.57C24.03 9.62 23.99 9.67 23.93 9.7C24.01 9.72 24.08 9.77 24.13 9.83C24.18 9.89 24.2 9.98 24.2 10.08ZM23.8 9.44C23.8 9.41 23.79 9.39 23.78 9.36C23.77 9.34 23.75 9.32 23.73 9.3C23.71 9.29 23.68 9.29 23.65 9.29C23.62 9.28 23.27 9.28 23.21 9.28H23.18V9.62H23.22C23.28 9.62 23.63 9.61 23.65 9.61C23.68 9.61 23.7 9.6 23.72 9.59C23.75 9.58 23.77 9.56 23.78 9.53C23.79 9.5 23.8 9.47 23.8 9.44ZM23.88 10.08C23.88 10.03 23.87 9.99 23.86 9.96C23.84 9.93 23.81 9.91 23.78 9.9C23.76 9.89 23.73 9.89 23.7 9.88C23.66 9.88 23.3 9.88 23.24 9.88H23.18V10.27H23.2C23.29 10.27 23.66 10.27 23.69 10.27C23.72 10.27 23.76 10.26 23.79 10.24C23.82 10.23 23.85 10.21 23.86 10.18C23.87 10.15 23.88 10.11 23.88 10.08Z" fill="#333333"/>
<path d="M18.13 14.8901C17.87 14.8901 17.65 14.7701 17.46 14.5801L17.74 14.3801C17.97 14.6501 18.51 14.6401 18.51 14.4201C18.51 14.1901 18.11 14.2101 17.9 14.1301C17.77 14.0901 17.66 14.0601 17.6 13.9801C17.55 13.9001 17.52 13.8101 17.52 13.6901C17.52 13.5401 17.59 13.4101 17.72 13.3201C17.86 13.2201 18.01 13.1901 18.21 13.1901C18.46 13.1901 18.72 13.3201 18.85 13.4701L18.62 13.6601C18.6 13.6601 18.49 13.4901 18.25 13.4801C18.12 13.4601 17.88 13.5001 17.88 13.6401C17.88 13.9101 18.53 13.8001 18.78 14.1001C18.83 14.1701 18.87 14.2301 18.87 14.3401C18.87 14.5001 18.81 14.6401 18.67 14.7401C18.54 14.8401 18.36 14.8801 18.13 14.8901Z" fill="#333333"/>
<path d="M28.83 12.7H28.53V11.14H28.82L28.83 12.7Z" fill="#333333"/>
<path d="M24.01 12.2001C24.01 12.2701 24 12.3301 23.98 12.3901C23.96 12.4501 23.93 12.5001 23.89 12.5501C23.84 12.5901 23.8 12.6401 23.73 12.6601C23.65 12.7101 23.46 12.7301 23.38 12.7401C23.1 12.7501 22.79 12.6401 22.67 12.3401V12.0301C22.72 12.0301 22.91 12.0201 22.92 12.0201C22.92 12.3001 23.01 12.4501 23.39 12.4401C23.52 12.4301 23.72 12.3601 23.73 12.1601C23.73 12.1101 23.73 12.0601 23.73 12.0101V11.3901L23.31 11.3801V11.1001H24.01V12.2001Z" fill="#333333"/>
<path d="M22.25 12.6601H22.01L21.24 11.5701V12.6601H20.92V11.1001H21.24L21.96 12.0701V11.1001H22.25V12.6601Z" fill="#333333"/>
<path d="M27.86 10.4001C27.66 10.5401 27.43 10.5901 27.2 10.5901C26.75 10.5901 26.46 10.2101 26.46 9.79009C26.46 9.36009 26.75 8.97009 27.21 8.97009C27.55 8.97009 27.69 9.04009 27.87 9.24009L27.72 9.48009C27.66 9.41009 27.59 9.37009 27.53 9.33009C27.16 9.08009 26.68 9.39009 26.72 9.80009C26.76 10.1601 26.96 10.3101 27.29 10.3101C27.4 10.3101 27.5 10.2901 27.59 10.2101V9.99009H27.23V9.70009L27.89 9.69009L27.86 10.4001Z" fill="#333333"/>
<path d="M22.38 10.56H22.07V9.5L21.59 10.09H21.49L21.01 9.43V10.56H20.75V9H21.06L21.53 9.66L22.09 9H22.38V10.56Z" fill="#333333"/>
<path d="M19.12 10.56V9H20.26V9.3H19.41V9.57H20.22V9.87H19.41V10.26H20.26V10.56H19.12Z" fill="#333333"/>
<path d="M18.72 10.57L17.58 10.56V9H17.88V10.3L18.72 10.31V10.57Z" fill="#333333"/>
<path d="M19.31 12.7V11.14H20.45V11.44H19.6V11.71H20.41V12.01H19.6V12.4H20.45V12.7H19.31Z" fill="#333333"/>
<path d="M28.12 12.7H27.81V11.64L27.33 12.23H27.23L26.75 11.56V12.69L26.49 12.7V11.14H26.8L27.26 11.8L27.83 11.14H28.12V12.7Z" fill="#333333"/>
<path d="M30.66 12.7H30.42L29.64 11.61V12.7H29.32V11.14H29.64L30.36 12.11V11.14H30.66V12.7Z" fill="#333333"/>
<path d="M19.56 14.7901H19.26V13.2301H19.55L19.56 14.7901Z" fill="#333333"/>
<path d="M21.73 14.81H21.42L21.41 13.75L20.94 14.35H20.83L20.35 13.68V14.81H20.09V13.25H20.4L20.87 13.92L21.43 13.25H21.73V14.81Z" fill="#333333"/>
<path d="M27.14 14.84H26.9L26.13 13.75V14.84H25.81V13.28H26.13L26.85 14.25V13.28H27.14V14.84Z" fill="#333333"/>
<path d="M30.89 14.81H30.65L29.87 13.72V14.81H29.55V13.25H29.87L30.6 14.22V13.25H30.89V14.81Z" fill="#333333"/>
<path fill-rule="evenodd" clip-rule="evenodd" d="M17.56 8.02002H31V8.19002H17.56V8.02002Z" fill="#333333"/>
<path fill-rule="evenodd" clip-rule="evenodd" d="M17.56 15.8101H31V15.9801H17.56V15.8101Z" fill="#333333"/>
</g>
</g>
<defs>
<clipPath id="clip0_301_5940">
<rect width="34" height="24" rx="4" fill="white"/>
</clipPath>
<clipPath id="clip1_301_5940">
<rect width="30" height="30" fill="white" transform="translate(2 -3)"/>
</clipPath>
</defs>
</svg>
