<svg width="28" height="20" viewBox="0 0 28 20" fill="none" xmlns="http://www.w3.org/2000/svg">
<g clip-path="url(#clip0_301_5978)">
<g clip-path="url(#clip1_301_5978)">
<path fill-rule="evenodd" clip-rule="evenodd" d="M12.5533 10.2893C12.0867 11.0733 11.704 11.7546 11.2373 12.5386C10.78 13.3226 10.36 14.0133 9.90267 14.7973C9.78133 15.0026 9.66 15.0773 9.41733 15.0773C8.49333 15.0773 7.70933 15.0773 6.78533 15.0773C5.87067 15.0773 5.05867 15.0679 4.13467 15.0679C3.90133 15.0679 3.77067 14.9933 3.64933 14.7879C3.192 13.9946 2.8 13.3319 2.33333 12.5386C1.876 11.7546 1.484 11.0546 1.02667 10.2706C0.905334 10.0559 0.905334 9.91594 1.02667 9.71061C1.484 8.92661 1.876 8.24527 2.33333 7.46127C2.79067 6.67727 3.21067 5.98661 3.668 5.20261C3.78933 4.99727 3.92 4.92261 4.16267 4.92261C5.07733 4.92261 5.86133 4.92261 6.78533 4.92261C7.70933 4.92261 8.512 4.93194 9.436 4.93194C9.67867 4.93194 9.8 5.00661 9.92133 5.21194C10.388 6.00527 10.78 6.66794 11.2373 7.46127C11.704 8.24527 12.096 8.94527 12.5533 9.72927C12.6747 9.94394 12.6747 10.0839 12.5533 10.2893Z" fill="white"/>
<path fill-rule="evenodd" clip-rule="evenodd" d="M6.30933 8.44127H6.104V9.93461H6.37467C6.748 9.93461 7.028 9.86928 7.23333 9.73861C7.42933 9.60794 7.52267 9.42127 7.52267 9.17861C7.52267 8.92661 7.42933 8.73994 7.23333 8.61861C7.03733 8.50661 6.72933 8.44127 6.30933 8.44127ZM12.5533 10.2893C12.3853 10.5786 12.2267 10.8493 12.068 11.1106C12.0493 10.8119 11.9467 10.5506 11.7507 10.3266C11.536 10.0839 11.116 9.81327 10.5 9.52394L9.75333 9.17861C9.51067 9.06661 9.50133 8.88927 9.51067 8.75861C9.52933 8.59061 9.8 8.42261 10.024 8.43194C10.5933 8.45994 10.78 8.61861 11.256 8.87061L11.6573 8.17994C11.956 8.69327 12.236 9.18794 12.5533 9.72927C12.6747 9.94394 12.6747 10.0839 12.5533 10.2893ZM11.2 12.6039C10.7613 13.3599 10.3507 14.0319 9.90267 14.7973C9.78133 15.0026 9.66 15.0773 9.41733 15.0773C8.49333 15.0773 7.70933 15.0773 6.78533 15.0773C5.87067 15.0773 5.05867 15.0679 4.13467 15.0679C3.90133 15.0679 3.77067 14.9933 3.64933 14.7879C3.25733 14.1159 2.912 13.5279 2.53867 12.8839H4.38667L4.704 12.3053V12.8839H6.06667V11.1106C6.104 11.1106 6.14133 11.1199 6.17867 11.1199C6.216 11.1199 6.39333 11.1199 6.47733 11.1199C6.81333 11.1199 7.24267 11.1199 7.51333 11.0546C8.092 10.9239 8.52133 10.5413 8.75467 10.0279C9.33333 10.6719 10.2667 10.8679 10.4907 10.9986C10.7147 11.1386 10.696 11.3346 10.64 11.4186C10.5747 11.5213 10.36 11.5679 10.276 11.5679C9.772 11.6146 9.08133 11.2879 8.80133 11.0079C8.512 11.4373 8.18533 11.9039 8.07333 12.1373C8.36267 12.4079 8.78267 12.7066 9.772 12.8186C10.3413 12.8839 10.8173 12.8093 11.2 12.6039ZM1.50267 11.1013C1.344 10.8306 1.18533 10.5506 1.02667 10.2706C0.905334 10.0559 0.905334 9.91594 1.02667 9.71061C1.484 8.92661 1.876 8.24527 2.33333 7.46127C2.79067 6.67727 3.21067 5.98661 3.668 5.20261C3.78933 4.99727 3.92 4.92261 4.16267 4.92261C5.07733 4.92261 5.86133 4.92261 6.78533 4.92261C7.70933 4.92261 8.512 4.93194 9.436 4.93194C9.67867 4.93194 9.8 5.00661 9.92133 5.21194C10.388 6.00527 10.78 6.66794 11.2373 7.46127L11.256 7.47994C11.032 7.41461 10.8173 7.34927 10.696 7.33061C10.4347 7.28394 10.192 7.26527 9.968 7.26527C9.772 7.26527 9.58533 7.27461 9.408 7.30261L8.82933 8.35727C8.71733 8.11461 8.52133 7.87194 8.204 7.63861C7.54133 7.18127 6.98133 7.24661 6.02 7.29327L4.704 9.68261V11.6333H2.89333V7.11594L1.50267 9.64527V11.1013Z" fill="#DC7902"/>
<path d="M23.744 12.632L24.416 11.1666H24.7053L25.3773 12.6226H25.0507L24.9293 12.324H24.2013L24.0613 12.632H23.744ZM24.8267 12.0626L24.5747 11.4933L24.332 12.0626H24.8267Z" fill="#333333"/>
<path d="M20.2907 12.632L20.9533 11.1666H21.2427L21.9147 12.6226H21.588L21.476 12.324H20.7387L20.608 12.632H20.2907ZM21.3733 12.0626L21.1213 11.4933L20.8787 12.0626H21.3733Z" fill="#333333"/>
<path d="M20.0947 11.6426C20.0947 11.708 20.0853 11.7733 20.0667 11.8386C20.048 11.8946 20.02 11.9506 19.9827 11.988C19.964 12.016 19.936 12.0346 19.9173 12.0626C19.8893 12.0813 19.8613 12.1 19.8333 12.1186C19.796 12.128 19.768 12.1466 19.7307 12.1466C19.6933 12.156 19.656 12.1653 19.6093 12.1653H19.208V12.6226H18.8907V11.1666L19.6093 11.1853C19.684 11.1853 19.7493 11.1946 19.8053 11.204C19.852 11.2226 19.8987 11.2506 19.9453 11.2786C19.992 11.316 20.0293 11.3626 20.0573 11.428C20.076 11.484 20.0947 11.5586 20.0947 11.6426ZM19.8147 11.6053C19.8147 11.568 19.8053 11.5306 19.796 11.5026C19.7773 11.4746 19.7587 11.456 19.7307 11.4466C19.7027 11.428 19.6747 11.4186 19.6467 11.4186C19.6187 11.4093 19.292 11.4093 19.2453 11.4093H19.208V11.9133H19.2267C19.2547 11.9133 19.2827 11.9133 19.3107 11.9133C19.3387 11.9133 19.6467 11.9133 19.6653 11.9133C19.684 11.904 19.7027 11.904 19.7213 11.8946C19.74 11.876 19.7493 11.8666 19.768 11.8573C19.7867 11.8386 19.796 11.8106 19.8053 11.7826C19.8147 11.7546 19.8147 11.652 19.8147 11.6053Z" fill="#333333"/>
<path d="M20.86 10.6533L21.532 9.18799H21.8213L22.4933 10.644H22.1667L22.0453 10.3547H21.3173L21.1773 10.6533H20.86ZM21.9427 10.0933L21.6907 9.52399L21.448 10.0933H21.9427Z" fill="#333333"/>
<path d="M15.7453 9.63591C15.7453 9.70125 15.736 9.76658 15.7173 9.82258C15.6987 9.88791 15.6707 9.93458 15.6333 9.98125C15.6147 10.0092 15.596 10.0279 15.568 10.0466C15.54 10.0746 15.512 10.0932 15.484 10.1026C15.456 10.1212 15.4187 10.1306 15.3813 10.1399C15.344 10.1492 15.3067 10.1492 15.26 10.1492L14.8587 10.1399V10.6159H14.5413V9.15991L15.2693 9.16925C15.3347 9.17858 15.4 9.17858 15.456 9.19725C15.5027 9.20658 15.5587 9.23458 15.596 9.27191C15.6427 9.30925 15.68 9.35591 15.708 9.41191C15.736 9.47725 15.7453 9.55191 15.7453 9.63591ZM15.4747 9.60791C15.4747 9.56125 15.4653 9.52391 15.4467 9.49591C15.428 9.46791 15.4093 9.44925 15.3813 9.43991C15.3533 9.42125 15.3253 9.41191 15.2973 9.41191C15.2693 9.41191 14.952 9.41191 14.9053 9.41191H14.8587V9.91591H14.8773C14.9053 9.91591 14.9333 9.90658 14.9613 9.90658C14.9893 9.90658 15.2973 9.90658 15.316 9.90658C15.3347 9.89725 15.3533 9.89725 15.372 9.88791C15.3907 9.87858 15.4093 9.85991 15.4187 9.85058C15.4373 9.83191 15.456 9.80391 15.456 9.77591C15.4653 9.74791 15.4747 9.64525 15.4747 9.60791Z" fill="#333333"/>
<path d="M24.388 8.66528L25.06 7.19995H25.3493L26.0213 8.65595H25.6947L25.5827 8.35728H24.8453L24.7053 8.66528H24.388ZM25.4707 8.09595L25.2187 7.53595L24.976 8.09595H25.4707Z" fill="#333333"/>
<path d="M20.9347 8.66528L21.6067 7.19995H21.8867L22.5587 8.65595H22.2413L22.12 8.35728H21.3827L21.252 8.66528H20.9347ZM22.0173 8.09595L21.7653 7.53595L21.5227 8.09595H22.0173Z" fill="#333333"/>
<path d="M20.72 8.20795C20.72 8.28262 20.7107 8.34795 20.6827 8.40395C20.664 8.45062 20.636 8.49728 20.5893 8.53462C20.5427 8.58128 20.496 8.60928 20.44 8.62795C20.384 8.64662 20.188 8.65595 20.104 8.65595H19.4693V7.19995H20.0387C20.132 7.19995 20.328 7.19995 20.3747 7.20928C20.4213 7.21862 20.468 7.23728 20.5053 7.26528C20.552 7.29328 20.58 7.33062 20.608 7.37728C20.6267 7.42395 20.636 7.47995 20.636 7.53595C20.636 7.61062 20.6267 7.67595 20.5893 7.73195C20.5613 7.77862 20.524 7.82528 20.468 7.85328C20.5427 7.87195 20.608 7.91862 20.6547 7.97462C20.7013 8.03062 20.72 8.11462 20.72 8.20795ZM20.3467 7.61062C20.3467 7.58262 20.3373 7.56395 20.328 7.53595C20.3187 7.51728 20.3 7.49862 20.2813 7.47995C20.2627 7.47062 20.2347 7.47062 20.2067 7.47062C20.1787 7.46128 19.852 7.46128 19.796 7.46128H19.768V7.77862H19.8053C19.8613 7.77862 20.188 7.76928 20.2067 7.76928C20.2347 7.76928 20.2533 7.75995 20.272 7.75062C20.3 7.74128 20.3187 7.72262 20.328 7.69462C20.3373 7.66662 20.3467 7.63862 20.3467 7.61062ZM20.4213 8.20795C20.4213 8.16128 20.412 8.12395 20.4027 8.09595C20.384 8.06795 20.356 8.04928 20.328 8.03995C20.3093 8.03062 20.2813 8.03062 20.2533 8.02128C20.216 8.02128 19.88 8.02128 19.824 8.02128H19.768V8.38528H19.7867C19.8707 8.38528 20.216 8.38528 20.244 8.38528C20.272 8.38528 20.3093 8.37595 20.3373 8.35728C20.3653 8.34795 20.3933 8.32928 20.4027 8.30128C20.412 8.27328 20.4213 8.23595 20.4213 8.20795Z" fill="#333333"/>
<path d="M15.0547 12.6973C14.812 12.6973 14.6067 12.5853 14.4293 12.4079L14.6907 12.2213C14.9053 12.4733 15.4093 12.4639 15.4093 12.2586C15.4093 12.0439 15.036 12.0626 14.84 11.9879C14.7187 11.9506 14.616 11.9226 14.56 11.8479C14.5133 11.7733 14.4853 11.6893 14.4853 11.5773C14.4853 11.4373 14.5507 11.3159 14.672 11.2319C14.8027 11.1386 14.9427 11.1106 15.1293 11.1106C15.3627 11.1106 15.6053 11.2319 15.7267 11.3719L15.512 11.5493C15.4933 11.5493 15.3907 11.3906 15.1667 11.3813C15.0453 11.3626 14.8213 11.3999 14.8213 11.5306C14.8213 11.7826 15.428 11.6799 15.6613 11.9599C15.708 12.0253 15.7453 12.0813 15.7453 12.1839C15.7453 12.3333 15.6893 12.4639 15.5587 12.5573C15.4373 12.6506 15.2693 12.6879 15.0547 12.6973Z" fill="#333333"/>
<path d="M25.0413 10.6533H24.7613V9.19727H25.032L25.0413 10.6533Z" fill="#333333"/>
<path d="M20.5427 10.1866C20.5427 10.2519 20.5333 10.3079 20.5147 10.3639C20.496 10.4199 20.468 10.4666 20.4307 10.5132C20.384 10.5506 20.3467 10.5972 20.2813 10.6159C20.2067 10.6626 20.0293 10.6812 19.9547 10.6906C19.6933 10.6999 19.404 10.5972 19.292 10.3172V10.0279C19.3387 10.0279 19.516 10.0186 19.5253 10.0186C19.5253 10.2799 19.6093 10.4199 19.964 10.4106C20.0853 10.4012 20.272 10.3359 20.2813 10.1492C20.2813 10.1026 20.2813 10.0559 20.2813 10.0092V9.43058L19.8893 9.42125V9.15991H20.5427V10.1866Z" fill="#333333"/>
<path d="M18.9 10.6159H18.676L17.9573 9.59858V10.6159H17.6587V9.15991H17.9573L18.6293 10.0652V9.15991H18.9V10.6159Z" fill="#333333"/>
<path d="M24.136 8.50666C23.9493 8.63733 23.7347 8.684 23.52 8.684C23.1 8.684 22.8293 8.32933 22.8293 7.93733C22.8293 7.536 23.1 7.172 23.5293 7.172C23.8467 7.172 23.9773 7.23733 24.1453 7.424L24.0053 7.648C23.9493 7.58266 23.884 7.54533 23.828 7.508C23.4827 7.27466 23.0347 7.564 23.072 7.94666C23.1093 8.28266 23.296 8.42266 23.604 8.42266C23.7067 8.42266 23.8 8.404 23.884 8.32933V8.124H23.548V7.85333L24.164 7.844L24.136 8.50666Z" fill="#333333"/>
<path d="M19.0213 8.65595H18.732V7.66662L18.284 8.21728H18.1907L17.7427 7.60128V8.65595H17.5V7.19995H17.7893L18.228 7.81595L18.7507 7.19995H19.0213V8.65595Z" fill="#333333"/>
<path d="M15.9787 8.65595V7.19995H17.0427V7.47995H16.2493V7.73195H17.0053V8.01195H16.2493V8.37595H17.0427V8.65595H15.9787Z" fill="#333333"/>
<path d="M15.6053 8.66528L14.5413 8.65595V7.19995H14.8213V8.41328L15.6053 8.42262V8.66528Z" fill="#333333"/>
<path d="M16.156 10.6533V9.19727H17.22V9.47727H16.4267V9.72927H17.1827V10.0093H16.4267V10.3733H17.22V10.6533H16.156Z" fill="#333333"/>
<path d="M24.3787 10.6533H24.0893V9.66393L23.6413 10.2146H23.548L23.1 9.58927V10.6439L22.8573 10.6533V9.19727H23.1467L23.576 9.81327L24.108 9.19727H24.3787V10.6533Z" fill="#333333"/>
<path d="M26.7493 10.6533H26.5253L25.7973 9.63593V10.6533H25.4987V9.19727H25.7973L26.4693 10.1026V9.19727H26.7493V10.6533Z" fill="#333333"/>
<path d="M16.3893 12.6039H16.1093V11.1479H16.38L16.3893 12.6039Z" fill="#333333"/>
<path d="M18.4147 12.6226H18.1253L18.116 11.6333L17.6773 12.1933H17.5747L17.1267 11.568V12.6226H16.884V11.1666H17.1733L17.612 11.792L18.1347 11.1666H18.4147V12.6226Z" fill="#333333"/>
<path d="M23.464 12.6506H23.24L22.5213 11.6332V12.6506H22.2227V11.1946H22.5213L23.1933 12.0999V11.1946H23.464V12.6506Z" fill="#333333"/>
<path d="M26.964 12.6226H26.74L26.012 11.6053V12.6226H25.7133V11.1666H26.012L26.6933 12.072V11.1666H26.964V12.6226Z" fill="#333333"/>
<path fill-rule="evenodd" clip-rule="evenodd" d="M14.5227 6.28528H27.0667V6.44395H14.5227V6.28528Z" fill="#333333"/>
<path fill-rule="evenodd" clip-rule="evenodd" d="M14.5227 13.5559H27.0667V13.7146H14.5227V13.5559Z" fill="#333333"/>
</g>
</g>
<defs>
<clipPath id="clip0_301_5978">
<rect width="28" height="20" rx="4" fill="white"/>
</clipPath>
<clipPath id="clip1_301_5978">
<rect width="28" height="28" fill="white" transform="translate(0 -4)"/>
</clipPath>
</defs>
</svg>
