<svg width="58" height="40" viewBox="0 0 58 40" fill="none" xmlns="http://www.w3.org/2000/svg">
<g clip-path="url(#clip0_301_6054)">
<g clip-path="url(#clip1_301_6054)">
<path fill-rule="evenodd" clip-rule="evenodd" d="M26.7267 20.4547C25.9933 21.6867 25.392 22.7574 24.6587 23.9894C23.94 25.2214 23.28 26.3067 22.5613 27.5387C22.3707 27.8614 22.18 27.9787 21.7987 27.9787C20.3467 27.9787 19.1147 27.9787 17.6627 27.9787C16.2253 27.9787 14.9493 27.964 13.4973 27.964C13.1307 27.964 12.9253 27.8467 12.7347 27.524C12.016 26.2774 11.4 25.236 10.6667 23.9894C9.948 22.7574 9.332 21.6574 8.61334 20.4254C8.42267 20.088 8.42267 19.868 8.61334 19.5454C9.332 18.3134 9.948 17.2427 10.6667 16.0107C11.3853 14.7787 12.0453 13.6934 12.764 12.4614C12.9547 12.1387 13.16 12.0214 13.5413 12.0214C14.9787 12.0214 16.2107 12.0214 17.6627 12.0214C19.1147 12.0214 20.376 12.036 21.828 12.036C22.2093 12.036 22.4 12.1534 22.5907 12.476C23.324 13.7227 23.94 14.764 24.6587 16.0107C25.392 17.2427 26.008 18.3427 26.7267 19.5747C26.9173 19.912 26.9173 20.132 26.7267 20.4547Z" fill="white"/>
<path fill-rule="evenodd" clip-rule="evenodd" d="M16.9147 17.5507H16.592V19.8974H17.0173C17.604 19.8974 18.044 19.7947 18.3667 19.5894C18.6747 19.384 18.8213 19.0907 18.8213 18.7094C18.8213 18.3134 18.6747 18.02 18.3667 17.8294C18.0587 17.6534 17.5747 17.5507 16.9147 17.5507ZM26.7267 20.4547C26.4627 20.9094 26.2133 21.3347 25.964 21.7454C25.9347 21.276 25.7733 20.8654 25.4653 20.5134C25.128 20.132 24.468 19.7067 23.5 19.252L22.3267 18.7094C21.9453 18.5334 21.9307 18.2547 21.9453 18.0494C21.9747 17.7854 22.4 17.5214 22.752 17.536C23.6467 17.58 23.94 17.8294 24.688 18.2254L25.3187 17.14C25.788 17.9467 26.228 18.724 26.7267 19.5747C26.9173 19.912 26.9173 20.132 26.7267 20.4547ZM24.6 24.092C23.9107 25.28 23.2653 26.336 22.5613 27.5387C22.3707 27.8614 22.18 27.9787 21.7987 27.9787C20.3467 27.9787 19.1147 27.9787 17.6627 27.9787C16.2253 27.9787 14.9493 27.964 13.4973 27.964C13.1307 27.964 12.9253 27.8467 12.7347 27.524C12.1187 26.468 11.576 25.544 10.9893 24.532H13.8933L14.392 23.6227V24.532H16.5333V21.7454C16.592 21.7454 16.6507 21.76 16.7093 21.76C16.768 21.76 17.0467 21.76 17.1787 21.76C17.7067 21.76 18.3813 21.76 18.8067 21.6574C19.716 21.452 20.3907 20.8507 20.7573 20.044C21.6667 21.056 23.1333 21.364 23.4853 21.5694C23.8373 21.7894 23.808 22.0974 23.72 22.2294C23.6173 22.3907 23.28 22.464 23.148 22.464C22.356 22.5374 21.2707 22.024 20.8307 21.584C20.376 22.2587 19.8627 22.992 19.6867 23.3587C20.1413 23.784 20.8013 24.2534 22.356 24.4294C23.2507 24.532 23.9987 24.4147 24.6 24.092ZM9.36134 21.7307C9.112 21.3054 8.86267 20.8654 8.61334 20.4254C8.42267 20.088 8.42267 19.868 8.61334 19.5454C9.332 18.3134 9.948 17.2427 10.6667 16.0107C11.3853 14.7787 12.0453 13.6934 12.764 12.4614C12.9547 12.1387 13.16 12.0214 13.5413 12.0214C14.9787 12.0214 16.2107 12.0214 17.6627 12.0214C19.1147 12.0214 20.376 12.036 21.828 12.036C22.2093 12.036 22.4 12.1534 22.5907 12.476C23.324 13.7227 23.94 14.764 24.6587 16.0107L24.688 16.04C24.336 15.9374 23.9987 15.8347 23.808 15.8054C23.3973 15.732 23.016 15.7027 22.664 15.7027C22.356 15.7027 22.0627 15.7174 21.784 15.7614L20.8747 17.4187C20.6987 17.0374 20.3907 16.656 19.892 16.2894C18.8507 15.5707 17.9707 15.6734 16.46 15.7467L14.392 19.5014V22.5667H11.5467V15.468L9.36134 19.4427V21.7307Z" fill="#DC7902"/>
<path d="M44.312 24.136L45.368 21.8334H45.8227L46.8787 24.1214H46.3653L46.1747 23.652H45.0307L44.8107 24.136H44.312ZM46.0133 23.2414L45.6173 22.3467L45.236 23.2414H46.0133Z" fill="#333333"/>
<path d="M38.8853 24.136L39.9267 21.8334H40.3813L41.4373 24.1214H40.924L40.748 23.652H39.5893L39.384 24.136H38.8853ZM40.5867 23.2414L40.1907 22.3467L39.8093 23.2414H40.5867Z" fill="#333333"/>
<path d="M38.5773 22.5814C38.5773 22.684 38.5627 22.7867 38.5333 22.8894C38.504 22.9774 38.46 23.0654 38.4013 23.124C38.372 23.168 38.328 23.1974 38.2987 23.2414C38.2547 23.2707 38.2107 23.3 38.1667 23.3294C38.108 23.344 38.064 23.3734 38.0053 23.3734C37.9467 23.388 37.888 23.4027 37.8147 23.4027H37.184V24.1214H36.6853V21.8334L37.8147 21.8627C37.932 21.8627 38.0347 21.8774 38.1227 21.892C38.196 21.9214 38.2693 21.9654 38.3427 22.0094C38.416 22.068 38.4747 22.1414 38.5187 22.244C38.548 22.332 38.5773 22.4494 38.5773 22.5814ZM38.1373 22.5227C38.1373 22.464 38.1227 22.4054 38.108 22.3614C38.0787 22.3174 38.0493 22.288 38.0053 22.2734C37.9613 22.244 37.9173 22.2294 37.8733 22.2294C37.8293 22.2147 37.316 22.2147 37.2427 22.2147H37.184V23.0067H37.2133C37.2573 23.0067 37.3013 23.0067 37.3453 23.0067C37.3893 23.0067 37.8733 23.0067 37.9027 23.0067C37.932 22.992 37.9613 22.992 37.9907 22.9774C38.02 22.948 38.0347 22.9334 38.064 22.9187C38.0933 22.8894 38.108 22.8454 38.1227 22.8014C38.1373 22.7574 38.1373 22.596 38.1373 22.5227Z" fill="#333333"/>
<path d="M39.78 21.0267L40.836 18.724H41.2907L42.3467 21.012H41.8333L41.6427 20.5573H40.4987L40.2787 21.0267H39.78ZM41.4813 20.1467L41.0853 19.252L40.704 20.1467H41.4813Z" fill="#333333"/>
<path d="M31.7427 19.4281C31.7427 19.5307 31.728 19.6334 31.6987 19.7214C31.6693 19.8241 31.6253 19.8974 31.5667 19.9707C31.5373 20.0147 31.508 20.0441 31.464 20.0734C31.42 20.1174 31.376 20.1467 31.332 20.1614C31.288 20.1907 31.2293 20.2054 31.1707 20.2201C31.112 20.2347 31.0533 20.2347 30.98 20.2347L30.3493 20.2201V20.9681H29.8507V18.6801L30.9947 18.6947C31.0973 18.7094 31.2 18.7094 31.288 18.7387C31.3613 18.7534 31.4493 18.7974 31.508 18.8561C31.5813 18.9147 31.64 18.9881 31.684 19.0761C31.728 19.1787 31.7427 19.2961 31.7427 19.4281ZM31.3173 19.3841C31.3173 19.3107 31.3027 19.2521 31.2733 19.2081C31.244 19.1641 31.2147 19.1347 31.1707 19.1201C31.1267 19.0907 31.0827 19.0761 31.0387 19.0761C30.9947 19.0761 30.496 19.0761 30.4227 19.0761H30.3493V19.8681H30.3787C30.4227 19.8681 30.4667 19.8534 30.5107 19.8534C30.5547 19.8534 31.0387 19.8534 31.068 19.8534C31.0973 19.8387 31.1267 19.8387 31.156 19.8241C31.1853 19.8094 31.2147 19.7801 31.2293 19.7654C31.2587 19.7361 31.288 19.6921 31.288 19.6481C31.3027 19.6041 31.3173 19.4427 31.3173 19.3841Z" fill="#333333"/>
<path d="M45.324 17.9026L46.38 15.6H46.8347L47.8907 17.888H47.3773L47.2013 17.4186H46.0427L45.8227 17.9026H45.324ZM47.0253 17.008L46.6293 16.128L46.248 17.008H47.0253Z" fill="#333333"/>
<path d="M39.8973 17.9026L40.9533 15.6H41.3933L42.4493 17.888H41.9507L41.76 17.4186H40.6013L40.396 17.9026H39.8973ZM41.5987 17.008L41.2027 16.128L40.8213 17.008H41.5987Z" fill="#333333"/>
<path d="M39.56 17.184C39.56 17.3013 39.5453 17.404 39.5013 17.492C39.472 17.5653 39.428 17.6386 39.3547 17.6973C39.2813 17.7706 39.208 17.8146 39.12 17.844C39.032 17.8733 38.724 17.888 38.592 17.888H37.5947V15.6H38.4893C38.636 15.6 38.944 15.6 39.0173 15.6146C39.0907 15.6293 39.164 15.6586 39.2227 15.7026C39.296 15.7466 39.34 15.8053 39.384 15.8786C39.4133 15.952 39.428 16.04 39.428 16.128C39.428 16.2453 39.4133 16.348 39.3547 16.436C39.3107 16.5093 39.252 16.5826 39.164 16.6266C39.2813 16.656 39.384 16.7293 39.4573 16.8173C39.5307 16.9053 39.56 17.0373 39.56 17.184ZM38.9733 16.2453C38.9733 16.2013 38.9587 16.172 38.944 16.128C38.9293 16.0986 38.9 16.0693 38.8707 16.04C38.8413 16.0253 38.7973 16.0253 38.7533 16.0253C38.7093 16.0106 38.196 16.0106 38.108 16.0106H38.064V16.5093H38.1227C38.2107 16.5093 38.724 16.4946 38.7533 16.4946C38.7973 16.4946 38.8267 16.48 38.856 16.4653C38.9 16.4506 38.9293 16.4213 38.944 16.3773C38.9587 16.3333 38.9733 16.2893 38.9733 16.2453ZM39.0907 17.184C39.0907 17.1106 39.076 17.052 39.0613 17.008C39.032 16.964 38.988 16.9346 38.944 16.92C38.9147 16.9053 38.8707 16.9053 38.8267 16.8906C38.768 16.8906 38.24 16.8906 38.152 16.8906H38.064V17.4626H38.0933C38.2253 17.4626 38.768 17.4626 38.812 17.4626C38.856 17.4626 38.9147 17.448 38.9587 17.4186C39.0027 17.404 39.0467 17.3746 39.0613 17.3306C39.076 17.2866 39.0907 17.228 39.0907 17.184Z" fill="#333333"/>
<path d="M30.6573 24.2387C30.276 24.2387 29.9533 24.0627 29.6747 23.784L30.0853 23.4907C30.4227 23.8867 31.2147 23.872 31.2147 23.5494C31.2147 23.212 30.628 23.2414 30.32 23.124C30.1293 23.0654 29.968 23.0214 29.88 22.904C29.8067 22.7867 29.7627 22.6547 29.7627 22.4787C29.7627 22.2587 29.8653 22.068 30.056 21.936C30.2613 21.7894 30.4813 21.7454 30.7747 21.7454C31.1413 21.7454 31.5227 21.936 31.7133 22.156L31.376 22.4347C31.3467 22.4347 31.1853 22.1854 30.8333 22.1707C30.6427 22.1414 30.2907 22.2 30.2907 22.4054C30.2907 22.8014 31.244 22.64 31.6107 23.08C31.684 23.1827 31.7427 23.2707 31.7427 23.432C31.7427 23.6667 31.6547 23.872 31.4493 24.0187C31.2587 24.1654 30.9947 24.224 30.6573 24.2387Z" fill="#333333"/>
<path d="M46.3507 21.0266H45.9107V18.7386H46.336L46.3507 21.0266Z" fill="#333333"/>
<path d="M39.2813 20.2934C39.2813 20.3961 39.2667 20.4841 39.2373 20.5721C39.208 20.6601 39.164 20.7334 39.1053 20.8067C39.032 20.8654 38.9733 20.9387 38.8707 20.9681C38.7533 21.0414 38.4747 21.0707 38.3573 21.0854C37.9467 21.1001 37.492 20.9387 37.316 20.4987V20.0441C37.3893 20.0441 37.668 20.0294 37.6827 20.0294C37.6827 20.4401 37.8147 20.6601 38.372 20.6454C38.5627 20.6307 38.856 20.5281 38.8707 20.2347C38.8707 20.1614 38.8707 20.0881 38.8707 20.0147V19.1054L38.2547 19.0907V18.6801H39.2813V20.2934Z" fill="#333333"/>
<path d="M36.7 20.9681H36.348L35.2187 19.3694V20.9681H34.7493V18.6801H35.2187L36.2747 20.1027V18.6801H36.7V20.9681Z" fill="#333333"/>
<path d="M44.928 17.6534C44.6347 17.8587 44.2973 17.932 43.96 17.932C43.3 17.932 42.8747 17.3747 42.8747 16.7587C42.8747 16.128 43.3 15.556 43.9747 15.556C44.4733 15.556 44.6787 15.6587 44.9427 15.952L44.7227 16.304C44.6347 16.2014 44.532 16.1427 44.444 16.084C43.9013 15.7174 43.1973 16.172 43.256 16.7734C43.3147 17.3014 43.608 17.5214 44.092 17.5214C44.2533 17.5214 44.4 17.492 44.532 17.3747V17.052H44.004V16.6267L44.972 16.612L44.928 17.6534Z" fill="#333333"/>
<path d="M36.8907 17.888H36.436V16.3333L35.732 17.1986H35.5853L34.8813 16.2306V17.888H34.5V15.6H34.9547L35.644 16.568L36.4653 15.6H36.8907V17.888Z" fill="#333333"/>
<path d="M32.1093 17.888V15.6H33.7813V16.04H32.5347V16.436H33.7227V16.876H32.5347V17.448H33.7813V17.888H32.1093Z" fill="#333333"/>
<path d="M31.5227 17.9026L29.8507 17.888V15.6H30.2907V17.5066L31.5227 17.5213V17.9026Z" fill="#333333"/>
<path d="M32.388 21.0266V18.7386H34.06V19.1786H32.8133V19.5746H34.0013V20.0146H32.8133V20.5866H34.06V21.0266H32.388Z" fill="#333333"/>
<path d="M45.3093 21.0266H44.8547V19.472L44.1507 20.3373H44.004L43.3 19.3546V21.012L42.9187 21.0266V18.7386H43.3733L44.048 19.7066L44.884 18.7386H45.3093V21.0266Z" fill="#333333"/>
<path d="M49.0347 21.0266H48.6827L47.5387 19.428V21.0266H47.0693V18.7386H47.5387L48.5947 20.1613V18.7386H49.0347V21.0266Z" fill="#333333"/>
<path d="M32.7547 24.0921H32.3147V21.8041H32.74L32.7547 24.0921Z" fill="#333333"/>
<path d="M35.9373 24.1214H35.4827L35.468 22.5667L34.7787 23.4467H34.6173L33.9133 22.464V24.1214H33.532V21.8334H33.9867L34.676 22.816L35.4973 21.8334H35.9373V24.1214Z" fill="#333333"/>
<path d="M43.872 24.1653H43.52L42.3907 22.5667V24.1653H41.9213V21.8773H42.3907L43.4467 23.3V21.8773H43.872V24.1653Z" fill="#333333"/>
<path d="M49.372 24.1214H49.02L47.876 22.5227V24.1214H47.4067V21.8334H47.876L48.9467 23.256V21.8334H49.372V24.1214Z" fill="#333333"/>
<path fill-rule="evenodd" clip-rule="evenodd" d="M29.8213 14.1627H49.5333V14.4121H29.8213V14.1627Z" fill="#333333"/>
<path fill-rule="evenodd" clip-rule="evenodd" d="M29.8213 25.588H49.5333V25.8373H29.8213V25.588Z" fill="#333333"/>
</g>
</g>
<defs>
<clipPath id="clip0_301_6054">
<rect width="58" height="40" rx="6" fill="white"/>
</clipPath>
<clipPath id="clip1_301_6054">
<rect width="44" height="44" fill="white" transform="translate(7 -2)"/>
</clipPath>
</defs>
</svg>
