<svg width="46" height="32" viewBox="0 0 46 32" fill="none" xmlns="http://www.w3.org/2000/svg">
<g clip-path="url(#clip0_301_6016)">
<g clip-path="url(#clip1_301_6016)">
<path fill-rule="evenodd" clip-rule="evenodd" d="M21.2433 16.3514C20.6767 17.3034 20.212 18.1307 19.6453 19.0827C19.09 20.0347 18.58 20.8734 18.0247 21.8254C17.8773 22.0747 17.73 22.1654 17.4353 22.1654C16.3133 22.1654 15.3613 22.1654 14.2393 22.1654C13.1287 22.1654 12.1427 22.1541 11.0207 22.1541C10.7373 22.1541 10.5787 22.0634 10.4313 21.8141C9.876 20.8507 9.4 20.0461 8.83334 19.0827C8.278 18.1307 7.802 17.2807 7.24667 16.3287C7.09934 16.0681 7.09934 15.8981 7.24667 15.6487C7.802 14.6967 8.278 13.8694 8.83334 12.9174C9.38867 11.9654 9.89867 11.1267 10.454 10.1747C10.6013 9.92538 10.76 9.83472 11.0547 9.83472C12.1653 9.83472 13.1173 9.83472 14.2393 9.83472C15.3613 9.83472 16.336 9.84605 17.458 9.84605C17.7527 9.84605 17.9 9.93672 18.0473 10.1861C18.614 11.1494 19.09 11.9541 19.6453 12.9174C20.212 13.8694 20.688 14.7194 21.2433 15.6714C21.3907 15.9321 21.3907 16.1021 21.2433 16.3514Z" fill="white"/>
<path fill-rule="evenodd" clip-rule="evenodd" d="M13.6613 14.1074H13.412V15.9207H13.7407C14.194 15.9207 14.534 15.8414 14.7833 15.6827C15.0213 15.5241 15.1347 15.2974 15.1347 15.0027C15.1347 14.6967 15.0213 14.4701 14.7833 14.3227C14.5453 14.1867 14.1713 14.1074 13.6613 14.1074ZM21.2433 16.3514C21.0393 16.7027 20.8467 17.0314 20.654 17.3487C20.6313 16.9861 20.5067 16.6687 20.2687 16.3967C20.008 16.1021 19.498 15.7734 18.75 15.4221L17.8433 15.0027C17.5487 14.8667 17.5373 14.6514 17.5487 14.4927C17.5713 14.2887 17.9 14.0847 18.172 14.0961C18.8633 14.1301 19.09 14.3227 19.668 14.6287L20.1553 13.7901C20.518 14.4134 20.858 15.0141 21.2433 15.6714C21.3907 15.9321 21.3907 16.1021 21.2433 16.3514ZM19.6 19.1621C19.0673 20.0801 18.5687 20.8961 18.0247 21.8254C17.8773 22.0747 17.73 22.1654 17.4353 22.1654C16.3133 22.1654 15.3613 22.1654 14.2393 22.1654C13.1287 22.1654 12.1427 22.1541 11.0207 22.1541C10.7373 22.1541 10.5787 22.0634 10.4313 21.8141C9.95534 20.9981 9.536 20.2841 9.08267 19.5021H11.3267L11.712 18.7994V19.5021H13.3667V17.3487C13.412 17.3487 13.4573 17.3601 13.5027 17.3601C13.548 17.3601 13.7633 17.3601 13.8653 17.3601C14.2733 17.3601 14.7947 17.3601 15.1233 17.2807C15.826 17.1221 16.3473 16.6574 16.6307 16.0341C17.3333 16.8161 18.4667 17.0541 18.7387 17.2127C19.0107 17.3827 18.988 17.6207 18.92 17.7227C18.8407 17.8474 18.58 17.9041 18.478 17.9041C17.866 17.9607 17.0273 17.5641 16.6873 17.2241C16.336 17.7454 15.9393 18.3121 15.8033 18.5954C16.1547 18.9241 16.6647 19.2867 17.866 19.4227C18.5573 19.5021 19.1353 19.4114 19.6 19.1621ZM7.82467 17.3374C7.632 17.0087 7.43934 16.6687 7.24667 16.3287C7.09934 16.0681 7.09934 15.8981 7.24667 15.6487C7.802 14.6967 8.278 13.8694 8.83334 12.9174C9.38867 11.9654 9.89867 11.1267 10.454 10.1747C10.6013 9.92538 10.76 9.83472 11.0547 9.83472C12.1653 9.83472 13.1173 9.83472 14.2393 9.83472C15.3613 9.83472 16.336 9.84605 17.458 9.84605C17.7527 9.84605 17.9 9.93672 18.0473 10.1861C18.614 11.1494 19.09 11.9541 19.6453 12.9174L19.668 12.9401C19.396 12.8607 19.1353 12.7814 18.988 12.7587C18.6707 12.7021 18.376 12.6794 18.104 12.6794C17.866 12.6794 17.6393 12.6907 17.424 12.7247L16.7213 14.0054C16.5853 13.7107 16.3473 13.4161 15.962 13.1327C15.1573 12.5774 14.4773 12.6567 13.31 12.7134L11.712 15.6147V17.9834H9.51334V12.4981L7.82467 15.5694V17.3374Z" fill="#DC7902"/>
<path d="M34.832 19.1961L35.648 17.4167H35.9993L36.8153 19.1847H36.4187L36.2713 18.8221H35.3873L35.2173 19.1961H34.832ZM36.1467 18.5047L35.8407 17.8134L35.546 18.5047H36.1467Z" fill="#333333"/>
<path d="M30.6387 19.1961L31.4433 17.4167H31.7947L32.6107 19.1847H32.214L32.078 18.8221H31.1827L31.024 19.1961H30.6387ZM31.9533 18.5047L31.6473 17.8134L31.3527 18.5047H31.9533Z" fill="#333333"/>
<path d="M30.4007 17.9947C30.4007 18.0741 30.3893 18.1534 30.3667 18.2327C30.344 18.3007 30.31 18.3687 30.2647 18.4141C30.242 18.4481 30.208 18.4707 30.1853 18.5047C30.1513 18.5274 30.1173 18.5501 30.0833 18.5727C30.038 18.5841 30.004 18.6067 29.9587 18.6067C29.9133 18.6181 29.868 18.6294 29.8113 18.6294H29.324V19.1847H28.9387V17.4167L29.8113 17.4394C29.902 17.4394 29.9813 17.4507 30.0493 17.4621C30.106 17.4847 30.1627 17.5187 30.2193 17.5527C30.276 17.5981 30.3213 17.6547 30.3553 17.7341C30.378 17.8021 30.4007 17.8927 30.4007 17.9947ZM30.0607 17.9494C30.0607 17.9041 30.0493 17.8587 30.038 17.8247C30.0153 17.7907 29.9927 17.7681 29.9587 17.7567C29.9247 17.7341 29.8907 17.7227 29.8567 17.7227C29.8227 17.7114 29.426 17.7114 29.3693 17.7114H29.324V18.3234H29.3467C29.3807 18.3234 29.4147 18.3234 29.4487 18.3234C29.4827 18.3234 29.8567 18.3234 29.8793 18.3234C29.902 18.3121 29.9247 18.3121 29.9473 18.3007C29.97 18.2781 29.9813 18.2667 30.004 18.2554C30.0267 18.2327 30.038 18.1987 30.0493 18.1647C30.0607 18.1307 30.0607 18.0061 30.0607 17.9494Z" fill="#333333"/>
<path d="M31.33 16.7934L32.146 15.014H32.4973L33.3133 16.782H32.9167L32.7693 16.4307H31.8853L31.7153 16.7934H31.33ZM32.6447 16.1134L32.3387 15.422L32.044 16.1134H32.6447Z" fill="#333333"/>
<path d="M25.1193 15.5581C25.1193 15.6374 25.108 15.7168 25.0853 15.7848C25.0627 15.8641 25.0287 15.9208 24.9833 15.9774C24.9607 16.0114 24.938 16.0341 24.904 16.0568C24.87 16.0908 24.836 16.1134 24.802 16.1248C24.768 16.1474 24.7227 16.1588 24.6773 16.1701C24.632 16.1814 24.5867 16.1814 24.53 16.1814L24.0427 16.1701V16.7481H23.6573V14.9801L24.5413 14.9914C24.6207 15.0028 24.7 15.0028 24.768 15.0254C24.8247 15.0368 24.8927 15.0708 24.938 15.1161C24.9947 15.1614 25.04 15.2181 25.074 15.2861C25.108 15.3654 25.1193 15.4561 25.1193 15.5581ZM24.7907 15.5241C24.7907 15.4674 24.7793 15.4221 24.7567 15.3881C24.734 15.3541 24.7113 15.3314 24.6773 15.3201C24.6433 15.2974 24.6093 15.2861 24.5753 15.2861C24.5413 15.2861 24.156 15.2861 24.0993 15.2861H24.0427V15.8981H24.0653C24.0993 15.8981 24.1333 15.8868 24.1673 15.8868C24.2013 15.8868 24.5753 15.8868 24.598 15.8868C24.6207 15.8754 24.6433 15.8754 24.666 15.8641C24.6887 15.8528 24.7113 15.8301 24.7227 15.8188C24.7453 15.7961 24.768 15.7621 24.768 15.7281C24.7793 15.6941 24.7907 15.5694 24.7907 15.5241Z" fill="#333333"/>
<path d="M35.614 14.3794L36.43 12.6001H36.7813L37.5973 14.3681H37.2007L37.0647 14.0054H36.1693L35.9993 14.3794H35.614ZM36.9287 13.6881L36.6227 13.0081L36.328 13.6881H36.9287Z" fill="#333333"/>
<path d="M31.4207 14.3794L32.2367 12.6001H32.5767L33.3927 14.3681H33.0073L32.86 14.0054H31.9647L31.806 14.3794H31.4207ZM32.7353 13.6881L32.4293 13.0081L32.1347 13.6881H32.7353Z" fill="#333333"/>
<path d="M31.16 13.8241C31.16 13.9148 31.1487 13.9941 31.1147 14.0621C31.092 14.1188 31.058 14.1754 31.0013 14.2208C30.9447 14.2774 30.888 14.3114 30.82 14.3341C30.752 14.3568 30.514 14.3681 30.412 14.3681H29.6413V12.6001H30.3327C30.446 12.6001 30.684 12.6001 30.7407 12.6114C30.7973 12.6228 30.854 12.6454 30.8993 12.6794C30.956 12.7134 30.99 12.7588 31.024 12.8154C31.0467 12.8721 31.058 12.9401 31.058 13.0081C31.058 13.0988 31.0467 13.1781 31.0013 13.2461C30.9673 13.3028 30.922 13.3594 30.854 13.3934C30.9447 13.4161 31.024 13.4728 31.0807 13.5408C31.1373 13.6088 31.16 13.7108 31.16 13.8241ZM30.7067 13.0988C30.7067 13.0648 30.6953 13.0421 30.684 13.0081C30.6727 12.9854 30.65 12.9628 30.6273 12.9401C30.6047 12.9288 30.5707 12.9288 30.5367 12.9288C30.5027 12.9174 30.106 12.9174 30.038 12.9174H30.004V13.3028H30.0493C30.1173 13.3028 30.514 13.2914 30.5367 13.2914C30.5707 13.2914 30.5933 13.2801 30.616 13.2688C30.65 13.2574 30.6727 13.2348 30.684 13.2008C30.6953 13.1668 30.7067 13.1328 30.7067 13.0988ZM30.7973 13.8241C30.7973 13.7674 30.786 13.7221 30.7747 13.6881C30.752 13.6541 30.718 13.6314 30.684 13.6201C30.6613 13.6088 30.6273 13.6088 30.5933 13.5974C30.548 13.5974 30.14 13.5974 30.072 13.5974H30.004V14.0394H30.0267C30.1287 14.0394 30.548 14.0394 30.582 14.0394C30.616 14.0394 30.6613 14.0281 30.6953 14.0054C30.7293 13.9941 30.7633 13.9714 30.7747 13.9374C30.786 13.9034 30.7973 13.8581 30.7973 13.8241Z" fill="#333333"/>
<path d="M24.2807 19.2754C23.986 19.2754 23.7367 19.1394 23.5213 18.9241L23.8387 18.6974C24.0993 19.0034 24.7113 18.9921 24.7113 18.7428C24.7113 18.4821 24.258 18.5048 24.02 18.4141C23.8727 18.3688 23.748 18.3348 23.68 18.2441C23.6233 18.1534 23.5893 18.0514 23.5893 17.9154C23.5893 17.7454 23.6687 17.5981 23.816 17.4961C23.9747 17.3828 24.1447 17.3488 24.3713 17.3488C24.6547 17.3488 24.9493 17.4961 25.0967 17.6661L24.836 17.8814C24.8133 17.8814 24.6887 17.6888 24.4167 17.6774C24.2693 17.6548 23.9973 17.7001 23.9973 17.8588C23.9973 18.1648 24.734 18.0401 25.0173 18.3801C25.074 18.4594 25.1193 18.5274 25.1193 18.6521C25.1193 18.8334 25.0513 18.9921 24.8927 19.1054C24.7453 19.2188 24.5413 19.2641 24.2807 19.2754Z" fill="#333333"/>
<path d="M36.4073 16.7934H36.0673V15.0254H36.396L36.4073 16.7934Z" fill="#333333"/>
<path d="M30.9447 16.2268C30.9447 16.3061 30.9333 16.3741 30.9107 16.4421C30.888 16.5101 30.854 16.5668 30.8087 16.6234C30.752 16.6688 30.7067 16.7254 30.6273 16.7481C30.5367 16.8048 30.3213 16.8274 30.2307 16.8388C29.9133 16.8501 29.562 16.7254 29.426 16.3854V16.0341C29.4827 16.0341 29.698 16.0228 29.7093 16.0228C29.7093 16.3401 29.8113 16.5101 30.242 16.4988C30.3893 16.4874 30.616 16.4081 30.6273 16.1814C30.6273 16.1248 30.6273 16.0681 30.6273 16.0114V15.3088L30.1513 15.2974V14.9801H30.9447V16.2268Z" fill="#333333"/>
<path d="M28.95 16.7481H28.678L27.8053 15.5128V16.7481H27.4427V14.9801H27.8053L28.6213 16.0794V14.9801H28.95V16.7481Z" fill="#333333"/>
<path d="M35.308 14.1867C35.0813 14.3454 34.8207 14.402 34.56 14.402C34.05 14.402 33.7213 13.9714 33.7213 13.4954C33.7213 13.008 34.05 12.566 34.5713 12.566C34.9567 12.566 35.1153 12.6454 35.3193 12.872L35.1493 13.144C35.0813 13.0647 35.002 13.0194 34.934 12.974C34.5147 12.6907 33.9707 13.042 34.016 13.5067C34.0613 13.9147 34.288 14.0847 34.662 14.0847C34.7867 14.0847 34.9 14.062 35.002 13.9714V13.722H34.594V13.3934L35.342 13.382L35.308 14.1867Z" fill="#333333"/>
<path d="M29.0973 14.3681H28.746V13.1668L28.202 13.8354H28.0887L27.5447 13.0874V14.3681H27.25V12.6001H27.6013L28.134 13.3481L28.7687 12.6001H29.0973V14.3681Z" fill="#333333"/>
<path d="M25.4027 14.3681V12.6001H26.6947V12.9401H25.7313V13.2461H26.6493V13.5861H25.7313V14.0281H26.6947V14.3681H25.4027Z" fill="#333333"/>
<path d="M24.9493 14.3794L23.6573 14.3681V12.6001H23.9973V14.0734L24.9493 14.0848V14.3794Z" fill="#333333"/>
<path d="M25.618 16.7934V15.0254H26.91V15.3654H25.9467V15.6714H26.8647V16.0114H25.9467V16.4534H26.91V16.7934H25.618Z" fill="#333333"/>
<path d="M35.6027 16.7934H35.2513V15.5921L34.7073 16.2607H34.594L34.05 15.5014V16.7821L33.7553 16.7934V15.0254H34.1067L34.628 15.7734L35.274 15.0254H35.6027V16.7934Z" fill="#333333"/>
<path d="M38.4813 16.7934H38.2093L37.3253 15.5581V16.7934H36.9627V15.0254H37.3253L38.1413 16.1247V15.0254H38.4813V16.7934Z" fill="#333333"/>
<path d="M25.9013 19.162H25.5613V17.394H25.89L25.9013 19.162Z" fill="#333333"/>
<path d="M28.3607 19.1847H28.0093L27.998 17.9834L27.4653 18.6634H27.3407L26.7967 17.9041V19.1847H26.502V17.4167H26.8533L27.386 18.1761L28.0207 17.4167H28.3607V19.1847Z" fill="#333333"/>
<path d="M34.492 19.2187H34.22L33.3473 17.9834V19.2187H32.9847V17.4507H33.3473L34.1633 18.55V17.4507H34.492V19.2187Z" fill="#333333"/>
<path d="M38.742 19.1847H38.47L37.586 17.9494V19.1847H37.2233V17.4167H37.586L38.4133 18.5161V17.4167H38.742V19.1847Z" fill="#333333"/>
<path fill-rule="evenodd" clip-rule="evenodd" d="M23.6347 11.4894H38.8667V11.682H23.6347V11.4894Z" fill="#333333"/>
<path fill-rule="evenodd" clip-rule="evenodd" d="M23.6347 20.318H38.8667V20.5107H23.6347V20.318Z" fill="#333333"/>
</g>
</g>
<defs>
<clipPath id="clip0_301_6016">
<rect width="46" height="32" rx="4" fill="white"/>
</clipPath>
<clipPath id="clip1_301_6016">
<rect width="34" height="34" fill="white" transform="translate(6 -1)"/>
</clipPath>
</defs>
</svg>
