<svg width="46" height="32" viewBox="0 0 46 32" fill="none" xmlns="http://www.w3.org/2000/svg">
<g clip-path="url(#clip0_301_5177)">
<path d="M29.8596 12.6565C29.8596 9.48297 26.7525 7.24043 23.7407 8.24024L17 10.4776V15.3122C17 15.3622 17.0014 15.4116 17.0033 15.4608L23.7407 13.2245C25.8814 12.5141 28.0698 13.4415 29.1568 15.1766C29.6063 14.4337 29.8596 13.5672 29.8596 12.6565Z" fill="#00D200"/>
<path d="M26.5235 17.2788L21.8665 18.8246C19.5185 19.6039 17.0981 17.9057 17.0033 15.4609L17 15.462V20.2966C17 22.8206 19.471 24.6041 21.8665 23.8089L26.5235 22.2632C28.5152 21.6022 29.8596 19.7394 29.8596 17.6409C29.8596 16.7228 29.5992 15.8831 29.1568 15.1768C28.5707 16.1457 27.6509 16.9048 26.5238 17.2788H26.5235Z" fill="#008BEC"/>
<path d="M23.7407 13.2248L17.0033 15.461C17.0981 17.9058 19.5185 19.604 21.8665 18.8247L26.5235 17.2789C27.6506 16.9049 28.5704 16.1458 29.1565 15.1768C28.0693 13.4417 25.8811 12.5143 23.7405 13.2248H23.7407Z" fill="#1A4FE3"/>
</g>
<defs>
<clipPath id="clip0_301_5177">
<rect width="12.8596" height="16" fill="white" transform="translate(17 8)"/>
</clipPath>
</defs>
</svg>
