<svg width="58" height="40" viewBox="0 0 58 40" fill="none" xmlns="http://www.w3.org/2000/svg">
<g clip-path="url(#clip0_301_5213)">
<path d="M38.2894 14.9846C38.2894 10.2243 33.6287 6.86052 29.1111 8.36024L19 11.7163V18.9681C19 19.0431 19.002 19.1173 19.0049 19.1911L29.1111 15.8367C32.322 14.771 35.6047 16.1621 37.2352 18.7648C37.9094 17.6504 38.2894 16.3507 38.2894 14.9846Z" fill="#00D200"/>
<path d="M33.2852 21.9184L26.2998 24.237C22.7778 25.406 19.1471 22.8586 19.0049 19.1915L19 19.1932V26.445C19 30.231 22.7065 32.9062 26.2998 31.7135L33.2852 29.3949C36.2728 28.4034 38.2894 25.6093 38.2894 22.4615C38.2894 21.0843 37.8988 19.8248 37.2352 18.7653C36.356 20.2187 34.9764 21.3573 33.2857 21.9184H33.2852Z" fill="#008BEC"/>
<path d="M29.1111 15.8371L19.0049 19.1915C19.1471 22.8586 22.7778 25.406 26.2998 24.237L33.2852 21.9184C34.976 21.3573 36.3556 20.2187 37.2348 18.7653C35.6039 16.1626 32.3216 14.7715 29.1107 15.8371H29.1111Z" fill="#1A4FE3"/>
</g>
<defs>
<clipPath id="clip0_301_5213">
<rect width="19.2894" height="24" fill="white" transform="translate(19 8)"/>
</clipPath>
</defs>
</svg>
