<svg width="34" height="24" viewBox="0 0 34 24" fill="none" xmlns="http://www.w3.org/2000/svg">
<g clip-path="url(#clip0_301_5105)">
<path d="M22.2521 9.07438C22.2521 6.29757 19.5334 4.33534 16.8981 5.21018L11 7.16786V11.3981C11 11.4419 11.0012 11.4851 11.0029 11.5282L16.8981 9.57145C18.7712 8.94981 20.6861 9.76129 21.6372 11.2795C22.0305 10.6294 22.2521 9.87127 22.2521 9.07438Z" fill="#00D200"/>
<path d="M19.3331 13.119L15.2582 14.4715C13.2037 15.1534 11.0858 13.6675 11.0029 11.5283L11 11.5293V15.7595C11 17.968 13.1621 19.5286 15.2582 18.8328L19.3331 17.4803C21.0758 16.9019 22.2521 15.272 22.2521 13.4358C22.2521 12.6324 22.0243 11.8977 21.6372 11.2797C21.1243 12.1275 20.3195 12.7917 19.3333 13.119H19.3331Z" fill="#008BEC"/>
<path d="M16.8981 9.57166L11.0029 11.5284C11.0858 13.6675 13.2037 15.1535 15.2582 14.4716L19.3331 13.1191C20.3193 12.7917 21.1241 12.1275 21.6369 11.2797C20.6856 9.7615 18.771 8.95002 16.8979 9.57166H16.8981Z" fill="#1A4FE3"/>
</g>
<defs>
<clipPath id="clip0_301_5105">
<rect width="11.2521" height="14" fill="white" transform="translate(11 5)"/>
</clipPath>
</defs>
</svg>
