<svg width="28" height="20" viewBox="0 0 28 20" fill="none" xmlns="http://www.w3.org/2000/svg">
<g clip-path="url(#clip0_301_5141)">
<path d="M18.841 8.20124C18.841 6.01947 16.7048 4.47772 14.6343 5.16509L10 6.70327V10.027C10 10.0614 10.0009 10.0954 10.0023 10.1292L14.6343 8.5918C16.1059 8.10337 17.6105 8.74096 18.3578 9.93385C18.6668 9.42307 18.841 8.82737 18.841 8.20124Z" fill="#00D200"/>
<path d="M16.5474 11.3793L13.3457 12.442C11.7315 12.9778 10.0674 11.8102 10.0023 10.1295L10 10.1302V13.454C10 15.1892 11.6988 16.4154 13.3457 15.8687L16.5474 14.806C17.9167 14.3516 18.841 13.0709 18.841 11.6282C18.841 10.997 18.6619 10.4197 18.3578 9.93408C17.9548 10.6002 17.3225 11.1221 16.5476 11.3793H16.5474Z" fill="#008BEC"/>
<path d="M14.6343 8.59202L10.0023 10.1294C10.0674 11.8102 11.7315 12.9777 13.3457 12.442L16.5474 11.3793C17.3223 11.1221 17.9546 10.6002 18.3576 9.93407C17.6101 8.74118 16.1057 8.10359 14.6341 8.59202H14.6343Z" fill="#1A4FE3"/>
</g>
<defs>
<clipPath id="clip0_301_5141">
<rect width="8.84096" height="11" fill="white" transform="translate(10 5)"/>
</clipPath>
</defs>
</svg>
