<svg width="28" height="20" viewBox="0 0 28 20" fill="none" xmlns="http://www.w3.org/2000/svg">
<path d="M15.8592 9.75482C15.8592 12.8411 13.4151 15.3429 10.4002 15.3429C7.38525 15.3429 4.94116 12.8411 4.94116 9.75482C4.94116 6.66858 7.38525 4.16669 10.4002 4.16669C13.4151 4.16669 15.8592 6.66858 15.8592 9.75482Z" fill="#ED0006"/>
<path d="M22.9412 9.75482C22.9412 12.8411 20.4971 15.3429 17.4821 15.3429C14.4672 15.3429 12.0231 12.8411 12.0231 9.75482C12.0231 6.66858 14.4672 4.16669 17.4821 4.16669C20.4971 4.16669 22.9412 6.66858 22.9412 9.75482Z" fill="#0099DF"/>
<path fill-rule="evenodd" clip-rule="evenodd" d="M13.9412 5.50165C15.1149 6.52661 15.8592 8.05175 15.8592 9.75483C15.8592 11.4579 15.1149 12.983 13.9412 14.008C12.7674 12.983 12.0232 11.4579 12.0232 9.75483C12.0232 8.05175 12.7674 6.52661 13.9412 5.50165Z" fill="#6C6BBD"/>
</svg>
