<svg width="28" height="20" viewBox="0 0 28 20" fill="none" xmlns="http://www.w3.org/2000/svg">
<path fill-rule="evenodd" clip-rule="evenodd" d="M19.0964 7.26016C18.6494 7.52753 17.595 8.15215 17.2014 8.38476C16.9615 8.51098 16.406 8.5661 16.0917 8.12845C16.0861 8.12055 15.6738 7.5884 15.6569 7.56837C15.6451 7.55421 15.3786 7.14582 14.7846 7.13305C14.6969 7.1309 14.2606 7.1285 13.8348 7.37843C13.269 7.71235 11.953 8.48949 11.953 8.48949C11.9526 8.48949 11.9526 8.49019 11.9519 8.49019C11.411 8.8099 10.9895 9.05881 10.9895 9.05881L11.4875 9.69057C11.7204 9.98935 12.2458 10.2205 12.7014 9.95036C12.7014 9.95036 14.3847 8.94345 14.3909 8.94055C15.1189 8.52811 15.6807 8.52811 16.0535 8.68158C16.3882 8.82766 16.6794 9.19161 16.6794 9.19161C16.6794 9.19161 17.0599 9.67869 17.127 9.76389C17.3435 10.0392 17.7019 9.93101 17.7019 9.93101C17.7019 9.93101 17.8346 9.91546 18.0348 9.79271C18.0348 9.79271 19.6654 8.81615 19.6664 8.81584C20.1842 8.50207 20.659 8.44348 20.9017 8.46655C21.6619 8.53791 21.898 9.08643 22.2276 9.46909C22.4217 9.69417 22.5968 9.82198 22.8647 9.81553C23.0407 9.81168 23.2395 9.70144 23.2688 9.68153L25.2214 8.51762C25.2214 8.51762 25.021 8.20594 24.6107 7.72101C24.2435 7.28835 23.8535 7.48411 23.5425 7.6432C23.4118 7.70995 22.9384 8.03522 22.4694 8.26214C22.1353 8.42376 21.6553 8.37515 21.3922 8.03939C21.3765 8.01897 20.9509 7.48676 20.9061 7.42128C20.7344 7.19904 20.3992 7 19.9697 7C19.7085 7 19.4122 7.07357 19.0964 7.26016Z" fill="url(#paint0_linear_301_2722)"/>
<path fill-rule="evenodd" clip-rule="evenodd" d="M2.02448 11.8107C2.02448 11.4632 2.01836 11.1716 2 10.9115H2.6369L2.66676 11.3583H2.68463C2.82899 11.1222 3.09298 10.843 3.5854 10.843C3.96976 10.843 4.26997 11.0668 4.39585 11.4016H4.40821C4.51046 11.2342 4.63016 11.1103 4.76815 11.0231C4.93044 10.9054 5.11665 10.843 5.35683 10.843C5.84308 10.843 6.33513 11.1841 6.33513 12.1518V13.9317H5.6147V12.2636C5.6147 11.7613 5.44685 11.4632 5.09278 11.4632C4.84018 11.4632 4.65384 11.6496 4.57631 11.8668C4.55807 11.941 4.54008 12.0341 4.54008 12.1203V13.9317H3.81941V12.1827C3.81941 11.7613 3.65755 11.4632 3.31523 11.4632C3.03901 11.4632 2.8531 11.6868 2.78689 11.8973C2.75666 11.9722 2.74454 12.0588 2.74454 12.1454V13.9317H2.02448V11.8107Z" fill="#003A70"/>
<path fill-rule="evenodd" clip-rule="evenodd" d="M9.14208 13.2062C9.14208 13.479 9.15408 13.7452 9.18412 13.9318H8.51742L8.46957 13.597H8.45133C8.2713 13.8329 7.96509 14.0001 7.58685 14.0001C6.99829 14.0001 6.66821 13.5601 6.66821 13.1009C6.66821 12.3378 7.32243 11.9536 8.40329 11.9597V11.9099C8.40329 11.7114 8.32515 11.3829 7.80886 11.3829C7.52052 11.3829 7.22018 11.476 7.02216 11.606L6.87786 11.1103C7.09443 10.9735 7.47303 10.8431 7.93498 10.8431C8.87204 10.8431 9.14208 11.4575 9.14208 12.1146V13.2062ZM8.42129 12.4559C7.899 12.4434 7.40076 12.5612 7.40076 13.0202C7.40076 13.3176 7.58685 13.4543 7.8211 13.4543C8.11495 13.4543 8.33145 13.2558 8.3973 13.0388C8.41517 12.983 8.42129 12.9207 8.42129 12.8713V12.4559Z" fill="#003A70"/>
<path fill-rule="evenodd" clip-rule="evenodd" d="M9.65265 11.8107C9.65265 11.4632 9.64604 11.1716 9.62854 10.9115H10.2765L10.3127 11.3642H10.3304C10.4567 11.1288 10.7749 10.843 11.2611 10.843C11.7717 10.843 12.3 11.1841 12.3 12.1394V13.9317H11.5616V12.2264C11.5616 11.792 11.4055 11.4632 11.0031 11.4632C10.7089 11.4632 10.5048 11.6803 10.4266 11.9099C10.4029 11.9783 10.3967 12.0715 10.3967 12.1577V13.9317H9.65265V11.8107Z" fill="#003A70"/>
<path fill-rule="evenodd" clip-rule="evenodd" d="M15.5019 9.698V13.0818C15.5019 13.3919 15.5137 13.7274 15.5258 13.9318H14.8653L14.8357 13.4543H14.8235C14.6492 13.7894 14.2944 14.0001 13.8686 14.0001C13.1724 14.0001 12.6198 13.3862 12.6198 12.4559C12.6137 11.4449 13.2261 10.8431 13.9286 10.8431C14.3307 10.8431 14.6192 11.017 14.7511 11.2405H14.7633V9.698H15.5019ZM14.7633 12.1701C14.7633 12.1088 14.7571 12.034 14.7455 11.9722C14.6794 11.6745 14.445 11.4324 14.1088 11.4324C13.6345 11.4324 13.3702 11.8668 13.3702 12.4312C13.3702 12.983 13.6345 13.3862 14.1028 13.3862C14.4029 13.3862 14.6672 13.1754 14.7392 12.8468C14.7571 12.7782 14.7633 12.7039 14.7633 12.623V12.1701Z" fill="#003A70"/>
<path fill-rule="evenodd" clip-rule="evenodd" d="M16.0238 13.9316H16.769V10.9116H16.0238V13.9316Z" fill="#003A70"/>
<path fill-rule="evenodd" clip-rule="evenodd" d="M17.291 11.8851C17.291 11.4759 17.2847 11.184 17.2668 10.9114H17.9094L17.9329 11.488H17.9578C18.1016 11.0601 18.444 10.9114 18.7561 10.9114C18.828 10.9114 18.8699 10.8987 18.9301 10.9114V11.5814C18.8699 11.569 18.804 11.5566 18.714 11.5566C18.3598 11.5566 18.1194 11.7921 18.0534 12.133C18.0417 12.2012 18.0296 12.2822 18.0296 12.3694V13.9317H17.291V11.8851Z" fill="#003A70"/>
<path fill-rule="evenodd" clip-rule="evenodd" d="M19.2724 13.9316H20.0166V10.9116H19.2724V13.9316Z" fill="#003A70"/>
<defs>
<linearGradient id="paint0_linear_301_2722" x1="10.9895" y1="10.07" x2="25.2214" y2="10.07" gradientUnits="userSpaceOnUse">
<stop stop-color="#FFCA06"/>
<stop offset="0.330844" stop-color="#FBAA18"/>
<stop offset="0.694742" stop-color="#FFC907"/>
<stop offset="1" stop-color="#FAA619"/>
</linearGradient>
</defs>
</svg>
