<svg width="58" height="40" viewBox="0 0 58 40" fill="none" xmlns="http://www.w3.org/2000/svg">
<path fill-rule="evenodd" clip-rule="evenodd" d="M41.1928 13.5203C40.2988 14.0551 38.19 15.3043 37.4028 15.7695C36.9231 16.022 35.8119 16.1322 35.1835 15.2569C35.1722 15.2411 34.3476 14.1768 34.3139 14.1367C34.2903 14.1084 33.7572 13.2916 32.5693 13.2661C32.3938 13.2618 31.5212 13.257 30.6697 13.7569C29.538 14.4247 26.9059 15.979 26.9059 15.979C26.9052 15.979 26.9052 15.9804 26.9039 15.9804C25.822 16.6198 24.979 17.1176 24.979 17.1176L25.9749 18.3811C26.4409 18.9787 27.4916 19.441 28.4027 18.9007C28.4027 18.9007 31.7695 16.8869 31.7818 16.8811C33.2379 16.0562 34.3614 16.0562 35.1071 16.3632C35.7764 16.6553 36.3588 17.3832 36.3588 17.3832C36.3588 17.3832 37.1198 18.3574 37.254 18.5278C37.687 19.0783 38.4037 18.862 38.4037 18.862C38.4037 18.862 38.6693 18.8309 39.0696 18.5854C39.0696 18.5854 42.3308 16.6323 42.3328 16.6317C43.3684 16.0041 44.3181 15.887 44.8035 15.9331C46.3238 16.0758 46.796 17.1729 47.4552 17.9382C47.8434 18.3883 48.1937 18.644 48.7294 18.6311C49.0814 18.6234 49.479 18.4029 49.5376 18.3631L53.4428 16.0352C53.4428 16.0352 53.0421 15.4119 52.2215 14.442C51.487 13.5767 50.7069 13.9682 50.085 14.2864C49.8237 14.4199 48.8769 15.0704 47.9389 15.5243C47.2705 15.8475 46.3105 15.7503 45.7844 15.0788C45.7529 15.0379 44.9017 13.9735 44.8123 13.8426C44.4687 13.3981 43.7984 13 42.9394 13C42.417 13 41.8243 13.1471 41.1928 13.5203Z" fill="url(#paint0_linear_301_2804)"/>
<path fill-rule="evenodd" clip-rule="evenodd" d="M7.04895 22.6213C7.04895 21.9263 7.03672 21.343 7 20.8229H8.2738L8.33353 21.7165H8.36927C8.65798 21.2443 9.18596 20.6859 10.1708 20.6859C10.9395 20.6859 11.5399 21.1336 11.7917 21.8032H11.8164C12.0209 21.4683 12.2603 21.2204 12.5363 21.0461C12.8609 20.8107 13.2333 20.6859 13.7137 20.6859C14.6862 20.6859 15.6703 21.3681 15.6703 23.3035V26.8632H14.2294V23.5271C14.2294 22.5225 13.8937 21.9263 13.1856 21.9263C12.6804 21.9263 12.3077 22.2991 12.1526 22.7335C12.1161 22.8819 12.0802 23.0681 12.0802 23.2405V26.8632H10.6388V23.3653C10.6388 22.5225 10.3151 21.9263 9.63047 21.9263C9.07801 21.9263 8.7062 22.3736 8.57378 22.7944C8.51332 22.9442 8.48908 23.1174 8.48908 23.2907V26.8632H7.04895V22.6213Z" fill="#003A70"/>
<path fill-rule="evenodd" clip-rule="evenodd" d="M21.2841 25.4123C21.2841 25.9578 21.3081 26.4903 21.3682 26.8635H20.0348L19.9391 26.1938H19.9026C19.5426 26.6656 18.9301 27 18.1737 27C16.9966 27 16.3364 26.12 16.3364 25.2016C16.3364 23.6754 17.6448 22.907 19.8066 22.9193V22.8197C19.8066 22.4226 19.6503 21.7656 18.6177 21.7656C18.041 21.7656 17.4403 21.9518 17.0443 22.2119L16.7557 21.2204C17.1888 20.947 17.946 20.6862 18.8699 20.6862C20.744 20.6862 21.2841 21.9149 21.2841 23.2291V25.4123ZM19.8425 23.9117C18.798 23.8866 17.8015 24.1223 17.8015 25.0403C17.8015 25.6351 18.1737 25.9085 18.6422 25.9085C19.2299 25.9085 19.6629 25.5114 19.7946 25.0775C19.8303 24.9658 19.8425 24.8413 19.8425 24.7425V23.9117Z" fill="#003A70"/>
<path fill-rule="evenodd" clip-rule="evenodd" d="M22.3053 22.6213C22.3053 21.9263 22.2921 21.343 22.2571 20.8229H23.5529L23.6254 21.7283H23.6609C23.9134 21.2576 24.5498 20.6859 25.5223 20.6859C26.5433 20.6859 27.6 21.3681 27.6 23.2787V26.8632H26.1232V23.4528C26.1232 22.5839 25.811 21.9263 25.0063 21.9263C24.4178 21.9263 24.0097 22.3605 23.8531 22.8197C23.8059 22.9565 23.7934 23.1429 23.7934 23.3154V26.8632H22.3053V22.6213Z" fill="#003A70"/>
<path fill-rule="evenodd" clip-rule="evenodd" d="M34.0039 18.3959V25.1635C34.0039 25.7836 34.0275 26.4546 34.0516 26.8635H32.7305L32.6714 25.9085H32.6469C32.2985 26.5786 31.5889 27 30.7372 27C29.3448 27 28.2397 25.7722 28.2397 23.9116C28.2274 21.8896 29.4523 20.6861 30.8572 20.6861C31.6615 20.6861 32.2384 21.0339 32.5022 21.4808H32.5265V18.3959H34.0039ZM32.5265 23.3401C32.5265 23.2174 32.5142 23.0678 32.491 22.9442C32.3587 22.3488 31.8901 21.8647 31.2176 21.8647C30.269 21.8647 29.7405 22.7335 29.7405 23.8622C29.7405 24.9658 30.269 25.7722 31.2056 25.7722C31.8058 25.7722 32.3345 25.3506 32.4784 24.6934C32.5142 24.5564 32.5265 24.4077 32.5265 24.2459V23.3401Z" fill="#003A70"/>
<path fill-rule="evenodd" clip-rule="evenodd" d="M35.0475 26.8631H36.5381V20.8232H35.0475V26.8631Z" fill="#003A70"/>
<path fill-rule="evenodd" clip-rule="evenodd" d="M37.5819 22.7701C37.5819 21.9518 37.5694 21.368 37.5336 20.8228H38.8187L38.8657 21.976H38.9155C39.2033 21.1201 39.8879 20.8228 40.5121 20.8228C40.6559 20.8228 40.7399 20.7974 40.8603 20.8228V22.1628C40.7399 22.138 40.608 22.1133 40.4279 22.1133C39.7195 22.1133 39.2388 22.5842 39.1068 23.2659C39.0835 23.4025 39.0592 23.5644 39.0592 23.7388V26.8635H37.5819V22.7701Z" fill="#003A70"/>
<path fill-rule="evenodd" clip-rule="evenodd" d="M41.5448 26.8631H43.0331V20.8232H41.5448V26.8631Z" fill="#003A70"/>
<defs>
<linearGradient id="paint0_linear_301_2804" x1="24.979" y1="19.14" x2="53.4428" y2="19.14" gradientUnits="userSpaceOnUse">
<stop stop-color="#FFCA06"/>
<stop offset="0.330844" stop-color="#FBAA18"/>
<stop offset="0.694742" stop-color="#FFC907"/>
<stop offset="1" stop-color="#FAA619"/>
</linearGradient>
</defs>
</svg>
