<svg width="34" height="24" viewBox="0 0 34 24" fill="none" xmlns="http://www.w3.org/2000/svg">
<path fill-rule="evenodd" clip-rule="evenodd" d="M23.5387 8.29733C23.0279 8.6029 21.8229 9.31675 21.373 9.58258C21.0989 9.72684 20.4639 9.78983 20.1048 9.28966C20.0984 9.28063 19.6272 8.67246 19.6079 8.64956C19.5944 8.63338 19.2898 8.16665 18.611 8.15206C18.5107 8.1496 18.0121 8.14686 17.5255 8.43249C16.8788 8.81412 15.3748 9.70228 15.3748 9.70228C15.3744 9.70228 15.3744 9.70307 15.3736 9.70307C14.7554 10.0685 14.2737 10.3529 14.2737 10.3529L14.8428 11.0749C15.1091 11.4164 15.7095 11.6806 16.2301 11.3718C16.2301 11.3718 18.154 10.2211 18.161 10.2178C18.9931 9.74642 19.6351 9.74642 20.0612 9.92181C20.4437 10.0888 20.7764 10.5047 20.7764 10.5047C20.7764 10.5047 21.2113 11.0614 21.288 11.1587C21.5354 11.4733 21.945 11.3497 21.945 11.3497C21.945 11.3497 22.0967 11.332 22.3255 11.1917C22.3255 11.1917 24.189 10.0756 24.1902 10.0752C24.7819 9.71665 25.3246 9.64969 25.602 9.67606C26.4707 9.75761 26.7406 10.3845 27.1173 10.8218C27.3391 11.0791 27.5393 11.2251 27.8454 11.2178C28.0465 11.2133 28.2737 11.0874 28.3072 11.0646L30.5387 9.73442C30.5387 9.73442 30.3097 9.37822 29.8408 8.82401C29.4211 8.32955 28.9754 8.55327 28.62 8.73509C28.4707 8.81137 27.9296 9.18311 27.3936 9.44244C27.0117 9.62715 26.4632 9.5716 26.1625 9.18788C26.1445 9.16454 25.6581 8.5563 25.607 8.48146C25.4107 8.22748 25.0277 8 24.5368 8C24.2383 8 23.8996 8.08408 23.5387 8.29733Z" fill="url(#paint0_linear_301_2681)"/>
<path fill-rule="evenodd" clip-rule="evenodd" d="M4.02797 13.4979C4.02797 13.1008 4.02098 12.7675 4 12.4703H4.72789L4.76202 12.9808H4.78244C4.94742 12.711 5.24912 12.392 5.81189 12.392C6.25115 12.392 6.59426 12.6478 6.73811 13.0304H6.75224C6.8691 12.839 7.0059 12.6974 7.1636 12.5978C7.34907 12.4633 7.56188 12.392 7.83638 12.392C8.39209 12.392 8.95444 12.7818 8.95444 13.8877V15.9219H8.13109V14.0155C8.13109 13.4414 7.93926 13.1008 7.53461 13.1008C7.24592 13.1008 7.03296 13.3138 6.94435 13.562C6.92351 13.6468 6.90295 13.7532 6.90295 13.8517V15.9219H6.07932V13.923C6.07932 13.4414 5.89434 13.1008 5.50312 13.1008C5.18743 13.1008 4.97497 13.3563 4.8993 13.5968C4.86475 13.6824 4.8509 13.7814 4.8509 13.8804V15.9219H4.02797V13.4979Z" fill="#003A70"/>
<path fill-rule="evenodd" clip-rule="evenodd" d="M12.1624 15.0928C12.1624 15.4045 12.1761 15.7087 12.2104 15.922H11.4485L11.3938 15.5393H11.3729C11.1672 15.8089 10.8172 16 10.385 16C9.71231 16 9.33508 15.4972 9.33508 14.9723C9.33508 14.1002 10.0828 13.6612 11.318 13.6682V13.6112C11.318 13.3843 11.2287 13.0089 10.6387 13.0089C10.3091 13.0089 9.9659 13.1153 9.73959 13.2639L9.57468 12.6974C9.82218 12.5411 10.2549 12.3921 10.7828 12.3921C11.8537 12.3921 12.1624 13.0942 12.1624 13.8452V15.0928ZM11.3386 14.2352C10.7417 14.2209 10.1723 14.3556 10.1723 14.8802C10.1723 15.22 10.385 15.3763 10.6527 15.3763C10.9885 15.3763 11.2359 15.1494 11.3112 14.9014C11.3316 14.8376 11.3386 14.7665 11.3386 14.71V14.2352Z" fill="#003A70"/>
<path fill-rule="evenodd" clip-rule="evenodd" d="M12.7459 13.4979C12.7459 13.1008 12.7384 12.7675 12.7184 12.4703H13.4588L13.5002 12.9876H13.5205C13.6648 12.7186 14.0285 12.392 14.5842 12.392C15.1676 12.392 15.7715 12.7818 15.7715 13.8736V15.9219H14.9275V13.973C14.9275 13.4765 14.7491 13.1008 14.2893 13.1008C13.9531 13.1008 13.7198 13.3489 13.6304 13.6113C13.6034 13.6894 13.5963 13.796 13.5963 13.8945V15.9219H12.7459V13.4979Z" fill="#003A70"/>
<path fill-rule="evenodd" clip-rule="evenodd" d="M19.4308 11.0834V14.9506C19.4308 15.3049 19.4443 15.6884 19.458 15.922H18.7032L18.6694 15.3763H18.6554C18.4563 15.7592 18.0508 16 17.5641 16C16.7685 16 16.137 15.2984 16.137 14.2352C16.13 13.0798 16.8299 12.3921 17.6327 12.3921C18.0923 12.3921 18.422 12.5908 18.5727 12.8462H18.5866V11.0834H19.4308ZM18.5866 13.9087C18.5866 13.8385 18.5795 13.7531 18.5663 13.6824C18.4907 13.3422 18.2229 13.0656 17.8386 13.0656C17.2966 13.0656 16.9946 13.562 16.9946 14.207C16.9946 14.8376 17.2966 15.2984 17.8318 15.2984C18.1747 15.2984 18.4769 15.0575 18.5591 14.682C18.5795 14.6037 18.5866 14.5187 18.5866 14.4262V13.9087Z" fill="#003A70"/>
<path fill-rule="evenodd" clip-rule="evenodd" d="M20.0272 15.9218H20.8789V12.4705H20.0272V15.9218Z" fill="#003A70"/>
<path fill-rule="evenodd" clip-rule="evenodd" d="M21.4754 13.5829C21.4754 13.1154 21.4682 12.7818 21.4478 12.4702H22.1821L22.209 13.1291H22.2375C22.4019 12.6401 22.7931 12.4702 23.1498 12.4702C23.2319 12.4702 23.2799 12.4557 23.3487 12.4702V13.2359C23.2799 13.2218 23.2046 13.2076 23.1017 13.2076C22.6969 13.2076 22.4222 13.4767 22.3468 13.8663C22.3334 13.9443 22.3196 14.0368 22.3196 14.1365V15.922H21.4754V13.5829Z" fill="#003A70"/>
<path fill-rule="evenodd" clip-rule="evenodd" d="M23.7399 15.9218H24.5904V12.4705H23.7399V15.9218Z" fill="#003A70"/>
<defs>
<linearGradient id="paint0_linear_301_2681" x1="14.2737" y1="11.5086" x2="30.5387" y2="11.5086" gradientUnits="userSpaceOnUse">
<stop stop-color="#FFCA06"/>
<stop offset="0.330844" stop-color="#FBAA18"/>
<stop offset="0.694742" stop-color="#FFC907"/>
<stop offset="1" stop-color="#FAA619"/>
</linearGradient>
</defs>
</svg>
