<svg width="46" height="32" viewBox="0 0 46 32" fill="none" xmlns="http://www.w3.org/2000/svg">
<path fill-rule="evenodd" clip-rule="evenodd" d="M33.3081 10.446C32.5418 10.9043 30.7343 11.9751 30.0596 12.3739C29.6483 12.5903 28.6959 12.6847 28.1572 11.9345C28.1476 11.9209 27.4408 11.0087 27.4119 10.9743C27.3917 10.9501 26.9347 10.25 25.9165 10.2281C25.7661 10.2244 25.0181 10.2203 24.2883 10.6487C23.3183 11.2212 21.0622 12.5534 21.0622 12.5534C21.0616 12.5534 21.0616 12.5546 21.0604 12.5546C20.1331 13.1027 19.4105 13.5294 19.4105 13.5294L20.2642 14.6124C20.6636 15.1246 21.5642 15.5209 22.3452 15.0578C22.3452 15.0578 25.231 13.3316 25.2416 13.3266C26.4896 12.6196 27.4526 12.6196 28.0918 12.8827C28.6655 13.1331 29.1646 13.757 29.1646 13.757C29.1646 13.757 29.8169 14.592 29.932 14.7381C30.3031 15.21 30.9175 15.0246 30.9175 15.0246C30.9175 15.0246 31.1451 14.9979 31.4882 14.7875C31.4882 14.7875 34.2835 13.1134 34.2853 13.1129C35.1729 12.575 35.9869 12.4745 36.403 12.5141C37.7061 12.6364 38.1109 13.5767 38.6759 14.2327C39.0086 14.6186 39.3089 14.8377 39.768 14.8266C40.0697 14.82 40.4106 14.631 40.4608 14.5969L43.8081 12.6016C43.8081 12.6016 43.4646 12.0673 42.7612 11.236C42.1317 10.4943 41.4631 10.8299 40.9299 11.1026C40.706 11.2171 39.8944 11.7747 39.0905 12.1637C38.5176 12.4407 37.6947 12.3574 37.2438 11.7818C37.2168 11.7468 36.4872 10.8345 36.4105 10.7222C36.116 10.3412 35.5415 10 34.8052 10C34.3574 10 33.8494 10.1261 33.3081 10.446Z" fill="url(#paint0_linear_301_2763)"/>
<path fill-rule="evenodd" clip-rule="evenodd" d="M4.04196 18.2468C4.04196 17.6511 4.03147 17.1511 4 16.7053H5.09183L5.14303 17.4712H5.17366C5.42112 17.0665 5.87368 16.5879 6.71783 16.5879C7.37673 16.5879 7.89138 16.9716 8.10717 17.5455H8.12836C8.30365 17.2585 8.50885 17.046 8.7454 16.8966C9.02361 16.6948 9.34283 16.5879 9.75457 16.5879C10.5881 16.5879 11.4317 17.1726 11.4317 18.8315V21.8827H10.1966V19.0232C10.1966 18.1621 9.90888 17.6511 9.30191 17.6511C8.86887 17.6511 8.54944 17.9706 8.41653 18.3429C8.38527 18.4701 8.35443 18.6298 8.35443 18.7776V21.8827H7.11898V18.8845C7.11898 18.1621 6.84151 17.6511 6.25468 17.6511C5.78115 17.6511 5.46246 18.0344 5.34895 18.3952C5.29713 18.5236 5.27636 18.672 5.27636 18.8206V21.8827H4.04196V18.2468Z" fill="#003A70"/>
<path fill-rule="evenodd" clip-rule="evenodd" d="M16.2435 20.6391C16.2435 21.1067 16.2641 21.5631 16.3156 21.883H15.1727L15.0907 21.309H15.0594C14.7508 21.7134 14.2258 22 13.5774 22C12.5685 22 12.0026 21.2457 12.0026 20.4585C12.0026 19.1503 13.1241 18.4917 14.9771 18.5023V18.4169C14.9771 18.0765 14.8431 17.5134 13.958 17.5134C13.4637 17.5134 12.9489 17.673 12.6094 17.8959L12.362 17.046C12.7333 16.8117 13.3823 16.5881 14.1742 16.5881C15.7806 16.5881 16.2435 17.6414 16.2435 18.7678V20.6391ZM15.0079 19.3528C14.1125 19.3314 13.2584 19.5334 13.2584 20.3203C13.2584 20.8301 13.5774 21.0644 13.979 21.0644C14.4827 21.0644 14.8539 20.7241 14.9668 20.3521C14.9974 20.2564 15.0079 20.1497 15.0079 20.065V19.3528Z" fill="#003A70"/>
<path fill-rule="evenodd" clip-rule="evenodd" d="M17.1188 18.2468C17.1188 17.6511 17.1075 17.1511 17.0775 16.7053H18.1882L18.2503 17.4814H18.2808C18.4972 17.0779 19.0427 16.5879 19.8762 16.5879C20.7514 16.5879 21.6572 17.1726 21.6572 18.8103V21.8827H20.3913V18.9595C20.3913 18.2148 20.1237 17.6511 19.434 17.6511C18.9296 17.6511 18.5797 18.0233 18.4456 18.4168C18.4051 18.5341 18.3944 18.6939 18.3944 18.8417V21.8827H17.1188V18.2468Z" fill="#003A70"/>
<path fill-rule="evenodd" clip-rule="evenodd" d="M27.1462 14.625V20.4259C27.1462 20.9573 27.1664 21.5325 27.1871 21.8829H26.0547L26.0041 21.0644H25.9831C25.6844 21.6388 25.0762 22 24.3462 22C23.1527 22 22.2054 20.9476 22.2054 19.3528C22.1949 17.6196 23.2448 16.5881 24.449 16.5881C25.1384 16.5881 25.6329 16.8862 25.859 17.2692H25.8799V14.625H27.1462ZM25.8799 18.8629C25.8799 18.7577 25.8693 18.6295 25.8495 18.5236C25.7361 18.0132 25.3344 17.5983 24.7579 17.5983C23.9448 17.5983 23.4919 18.3429 23.4919 19.3104C23.4919 20.2564 23.9448 20.9476 24.7477 20.9476C25.2621 20.9476 25.7153 20.5862 25.8387 20.0229C25.8693 19.9054 25.8799 19.778 25.8799 19.6393V18.8629Z" fill="#003A70"/>
<path fill-rule="evenodd" clip-rule="evenodd" d="M28.0407 21.8826H29.3184V16.7056H28.0407V21.8826Z" fill="#003A70"/>
<path fill-rule="evenodd" clip-rule="evenodd" d="M30.213 18.3744C30.213 17.673 30.2023 17.1726 30.1716 16.7052H31.2732L31.3135 17.6937H31.3562C31.6028 16.9601 32.1896 16.7052 32.7246 16.7052C32.8479 16.7052 32.9199 16.6835 33.0231 16.7052V17.8538C32.9199 17.8326 32.8069 17.8113 32.6525 17.8113C32.0453 17.8113 31.6332 18.215 31.5201 18.7993C31.5001 18.9164 31.4793 19.0552 31.4793 19.2047V21.8829H30.213V18.3744Z" fill="#003A70"/>
<path fill-rule="evenodd" clip-rule="evenodd" d="M33.6098 21.8826H34.8856V16.7056H33.6098V21.8826Z" fill="#003A70"/>
<defs>
<linearGradient id="paint0_linear_301_2763" x1="19.4105" y1="15.2628" x2="43.8081" y2="15.2628" gradientUnits="userSpaceOnUse">
<stop stop-color="#FFCA06"/>
<stop offset="0.330844" stop-color="#FBAA18"/>
<stop offset="0.694742" stop-color="#FFC907"/>
<stop offset="1" stop-color="#FAA619"/>
</linearGradient>
</defs>
</svg>
