<svg width="28" height="20" viewBox="0 0 28 20" fill="none" xmlns="http://www.w3.org/2000/svg">
<path fill-rule="evenodd" clip-rule="evenodd" d="M14.1474 14.0245C13.1723 14.8562 11.9074 15.3583 10.5253 15.3583C7.44125 15.3583 4.94116 12.8586 4.94116 9.77498C4.94116 6.69139 7.44125 4.19165 10.5253 4.19165C11.9074 4.19165 13.1723 4.69373 14.1474 5.52543C15.1225 4.69373 16.3873 4.19165 17.7695 4.19165C20.8535 4.19165 23.3536 6.69139 23.3536 9.77498C23.3536 12.8586 20.8535 15.3583 17.7695 15.3583C16.3873 15.3583 15.1225 14.8562 14.1474 14.0245Z" fill="#ED0006"/>
<path fill-rule="evenodd" clip-rule="evenodd" d="M14.1474 14.0245C15.3481 13.0004 16.1094 11.4766 16.1094 9.77498C16.1094 8.07335 15.3481 6.54952 14.1474 5.52543C15.1225 4.69373 16.3874 4.19165 17.7695 4.19165C20.8535 4.19165 23.3536 6.69139 23.3536 9.77498C23.3536 12.8586 20.8535 15.3583 17.7695 15.3583C16.3874 15.3583 15.1225 14.8562 14.1474 14.0245Z" fill="#F9A000"/>
<path fill-rule="evenodd" clip-rule="evenodd" d="M14.1474 14.0245C15.348 13.0004 16.1093 11.4766 16.1093 9.77498C16.1093 8.07336 15.348 6.54954 14.1474 5.52545C12.9467 6.54954 12.1854 8.07336 12.1854 9.77498C12.1854 11.4766 12.9467 13.0004 14.1474 14.0245Z" fill="#FF5E00"/>
</svg>
