<svg width="58" height="40" viewBox="0 0 58 40" fill="none" xmlns="http://www.w3.org/2000/svg">
<g clip-path="url(#clip0_301_3391)">
<path d="M15.9072 19.2471C15.7895 18.9176 15.2013 18.7294 15.0837 18.6824C14.966 18.6353 14.8484 18.5882 14.8484 18.5882C14.9189 18.8941 14.7542 19.1529 14.7542 19.1529H14.7778C14.8013 19.1294 14.8484 19.1529 14.8484 19.1529C15.4366 19.2941 15.8601 19.7176 15.8601 19.7176C15.8837 19.7176 15.8837 19.7176 15.8837 19.7176C15.9072 19.6471 15.9072 19.5765 15.9072 19.5294C15.9072 19.4824 15.9072 19.2941 15.9072 19.2471ZM16.6366 16.4C16.5189 16.4471 16.1189 16.3765 16.0013 16.3059C15.9072 16.2353 15.8366 16.2353 15.8366 16.2353C15.4366 16.1647 15.2954 16.3765 15.2719 16.3765C15.2719 16.4 15.2719 16.4 15.2719 16.4C15.2719 16.4 15.5307 16.3059 15.9307 16.4941C16.3542 16.6824 16.6131 16.4235 16.6131 16.4235C16.6601 16.4 16.6366 16.4 16.6366 16.4ZM16.966 26.0706C17.0366 25.6235 16.4013 25.6941 16.4013 25.6941C16.3778 25.6706 16.3778 25.6706 16.3778 25.6706C16.8484 25.6 16.9895 25.8118 16.9895 25.8118C16.9895 25.5294 16.7778 25.4824 16.7778 25.4824H16.7542C16.6837 25.3176 16.4013 25.2941 16.2601 25.3882C16.1189 25.4824 16.0013 25.4824 16.0013 25.4824C15.4366 25.6 15.1072 25.1294 15.1072 25.1294C14.566 24.2824 15.366 24.3765 15.2484 23.4353C15.1307 22.5176 13.5778 22.3059 13.5778 22.3059C13.1542 22.2588 12.8248 23.1059 12.7542 23.3412C12.6837 23.5765 12.6131 23.6471 12.6131 23.6471C12.5895 23.6941 12.6366 23.6706 12.6366 23.6706C13.9072 23.8588 13.8601 24.5412 13.8601 24.5412C13.8601 24.6588 13.6719 24.6824 13.6719 24.6824C13.5542 24.7059 13.2954 24.8471 13.7425 25.1529C13.7895 25.1765 13.8131 25.2 13.8366 25.2235C13.8366 25.2235 13.8366 25.2235 13.8366 25.2471C13.8131 25.2706 13.766 25.2941 13.6954 25.3412C13.6954 25.3412 13.6719 25.3412 13.6013 25.3647C13.5542 25.3882 13.4601 25.4588 13.4366 25.6235C13.4366 25.6235 13.4366 25.6235 13.4366 25.6C13.4601 25.6 13.5072 25.4824 13.7189 25.5059C13.8366 25.5059 13.9542 25.4588 14.0719 25.3882C14.1189 25.4118 14.166 25.4588 14.2131 25.4824C14.166 25.5059 14.1425 25.5059 14.0954 25.5294C14.0954 25.5294 14.0484 25.5529 14.0013 25.5529C13.9542 25.5529 13.8601 25.6235 13.8131 25.7882C13.8131 25.7882 13.8131 25.7882 13.8131 25.7647C13.8131 25.7647 13.8837 25.6471 14.0954 25.6941C14.2131 25.7176 14.3307 25.6941 14.4248 25.6471C14.4719 25.6706 14.4954 25.6941 14.5425 25.7176C14.4954 25.7412 14.4484 25.7647 14.3778 25.7882C14.3778 25.7882 14.3307 25.8118 14.2837 25.8118C14.2366 25.8118 14.1189 25.8824 14.0719 26.0235C14.0954 26 14.1425 25.9059 14.3542 25.9529C14.4954 26 14.6366 25.9529 14.7542 25.9059H14.7778C15.0601 26.1176 15.2954 26.3529 15.2954 26.4941C15.2954 26.7765 15.5307 26.8471 15.5307 26.8471C15.5307 26.9882 15.4601 26.9882 15.4601 26.9882C15.4366 27.0118 15.4601 27.0118 15.4601 27.0118C15.6954 27.0353 15.766 26.8471 15.766 26.8471C15.9778 26.6588 15.9072 26.4471 15.9072 26.4471C16.1425 26.8235 16.3778 26.7294 16.3778 26.7294V26.7529C16.4013 26.9176 16.3072 27.0588 16.2837 27.0588C16.2837 27.0824 16.2837 27.0824 16.2837 27.0824C16.5895 26.8941 16.5895 26.7059 16.5895 26.7059C16.5895 26.6824 16.5895 26.6824 16.5895 26.6824C16.8954 26.3059 16.3072 26.0235 16.3072 26.0235C16.5189 26.0471 16.6131 26.1176 16.6366 26.1412C16.6601 26.1647 16.6837 26.2353 16.7542 26.2588C16.8248 26.2588 16.8954 26.2588 16.8954 26.2588C16.9425 26.2588 16.966 26.4235 16.966 26.4235C17.1072 26.2118 16.966 26.0706 16.966 26.0706ZM16.0719 17.8824C16.0719 17.8824 16.0013 17.8588 16.0248 17.9059C16.0248 17.9059 16.3072 18.3059 16.2837 18.4235C16.2837 18.5176 16.2837 18.5176 16.2366 18.4941C16.2131 18.4941 16.0954 18.4941 16.166 18.6353C16.2366 18.8 16.3307 18.9412 16.2366 19.1529V19.1765C16.2131 19.1765 16.1895 19.1294 16.1189 19.2C16.0719 19.2706 16.0484 19.4824 16.0719 19.7176C16.0719 19.7176 16.0719 19.7647 16.0248 19.7882C15.9778 19.8118 16.0248 19.8588 16.0954 19.8588C16.1425 19.8353 16.4954 19.7176 16.4954 19.7176C16.4954 19.7176 16.6837 19.6706 16.8484 19.2471C17.0131 18.8 17.766 17.8353 17.8131 17.8118C17.8837 17.7882 18.0248 17.7176 18.0719 17.6706C18.0954 17.6235 18.166 17.3882 18.2131 17.2706H18.2366C18.2366 17.2706 18.4719 17.3882 18.6366 17.2C18.6366 17.2 18.7072 17.2235 18.7307 17.3176C18.7307 17.3176 18.7307 17.3176 18.7542 17.3176C18.7542 17.3176 18.8013 17.1765 18.7072 17.0353C18.7072 17.0353 18.6837 16.6824 18.1895 16.8235C18.1895 16.8235 18.2131 16.7765 18.3542 16.7294C18.4719 16.7059 18.4954 16.7294 18.5895 16.5882C18.5895 16.5882 18.6366 16.5176 18.7542 16.7059C18.7542 16.7059 18.7542 16.7059 18.7778 16.7059C18.7778 16.7059 18.8484 16.5412 18.6601 16.4C18.6601 16.3765 18.6366 16.0941 18.2837 16.1412C18.2837 16.1412 18.0484 16.1647 17.8837 16.4C17.8837 16.3765 17.9307 16.2588 18.0954 16.1412C18.0954 16.1412 18.1895 16.0941 18.1895 16.0235C18.2131 15.9294 18.1425 15.9059 18.166 15.8588C18.2131 15.8118 18.2837 15.7882 18.3307 15.7882C18.3307 15.7882 18.2601 15.6471 18.0248 15.7412C18.0013 15.7412 17.5778 15.6 17.5778 16.2588C17.5778 16.2588 17.5778 16.3059 17.5778 16.2824C17.5778 16.2824 17.5072 16.2118 17.5307 15.9765C17.5307 15.9765 17.5778 15.8588 17.4837 15.8588H17.4601C17.4601 15.8588 17.4837 15.7412 17.5542 15.7176H17.5778C17.5778 15.7176 17.3425 15.5765 17.2248 16.1647C17.2248 16.1647 17.2248 16.3765 17.2719 16.4706C17.2954 16.5647 17.3189 16.9176 17.0837 17.2C17.0837 17.2 16.4484 17.8588 16.0719 17.8824ZM13.2954 20.1176C14.1895 19.7176 14.5189 19.3647 14.6366 19.1059C14.6601 19.0353 14.6837 18.9882 14.7072 18.9412C14.7072 18.8706 14.7072 18.7765 14.7072 18.7765C14.7072 18.6824 14.7072 18.5882 14.6601 18.5176C14.6366 18.4706 14.566 18.4 14.4954 18.3529C14.3778 18.2588 14.2837 18.1412 14.2837 18.1412C14.3307 19.2 13.3189 19.6 13.3189 19.6C13.2954 19.6 13.2954 19.6235 13.2954 19.6235C13.366 19.9765 13.2484 20.0941 13.2484 20.1176C13.2484 20.1412 13.2954 20.1176 13.2954 20.1176ZM14.1895 19.7412C14.1895 19.7412 14.6131 19.7176 14.7072 20.3765C14.7072 20.3765 14.7072 20.4 14.7307 20.4C14.7307 20.4 15.3189 19.9529 15.3425 19.5059C15.3425 19.5059 15.3425 19.4824 15.3189 19.4824C15.3189 19.4824 15.1072 19.3176 14.7307 19.2235H14.7072C14.7072 19.2235 14.566 19.5059 14.1895 19.7412ZM13.6013 12C9.86012 12.0941 6.91894 15.2 7.01306 18.9412C7.06012 20.8706 7.93071 22.5882 9.27189 23.7882L9.29541 23.8118L9.34247 23.7882C9.41306 23.6706 9.57777 23.5765 9.67189 23.5765H9.78953C9.78953 23.5765 9.78953 23.5765 9.78953 23.5529L9.69542 23.4824C9.62483 23.4118 9.55424 23.3647 9.48365 23.2706C8.33071 22.1882 7.57777 20.6353 7.53071 18.9176C7.48365 17.2 8.14247 15.6235 9.24836 14.4706C10.3542 13.3176 11.8837 12.5647 13.6013 12.5176C15.3425 12.4706 16.8954 13.1294 18.0719 14.2353C19.2248 15.3412 19.9542 16.8706 20.0013 18.5882C20.0484 20.3294 19.3895 21.9059 18.2837 23.0588C17.5542 23.8353 16.6601 24.4 15.6013 24.7294H15.5542V24.7529L15.5778 24.7765C15.6484 24.9882 15.7895 25.0824 15.8837 25.1529L15.9072 25.1765L15.9307 25.1529C18.7072 24.2824 20.5895 21.6941 20.5189 18.6353V18.5882C20.4248 14.8471 17.3189 11.9059 13.6013 12ZM14.5895 15.2471H14.566C14.7307 15.3412 14.966 15.5529 15.0601 15.2706C14.9425 15.1294 14.7072 15.2235 14.5895 15.2471ZM11.8837 26.4471C11.8837 26.4471 11.8837 26.4471 11.8837 26.4235C11.8837 26.4235 12.1895 26.1176 12.5189 26.4471C12.5189 26.4471 12.5425 26.4706 12.5425 26.4471C12.5425 26.4471 12.5189 26.2353 12.3307 26.1412C12.2837 26.1176 12.2601 26.1412 12.2601 26.1412H12.2366C12.166 26.0941 12.1189 26.0706 12.0013 26.0941C12.0013 26.0941 11.8131 26.1176 11.6954 26.1882C11.6013 26.2824 11.5072 26.2588 11.4601 26.2118C11.3895 26.1647 10.8954 25.5059 10.8719 24.7765C10.8719 24.7765 10.8954 24.7294 10.9425 24.7059C10.9425 24.7059 11.7895 24.2824 12.1189 23.9529C12.4484 23.6235 12.7072 22.6824 13.0366 22.3294C13.0366 22.3294 13.1778 22.1412 13.3425 22.0941C13.4837 22.0471 14.166 21.8353 14.3542 21.7176C14.5425 21.6 14.8719 21.2235 15.0837 21.2C15.0837 21.2 15.1307 21.1529 15.1778 21.2235L15.9542 21.9294C15.9542 21.9294 16.0719 22.0471 16.1895 22.0706C16.3072 22.0706 16.4954 22.1412 16.4954 22.2588C16.5189 22.3765 16.4248 22.7059 16.6131 22.8235C16.6131 22.8235 16.6601 22.8941 16.5425 22.9647C16.5425 22.9647 16.5189 22.9882 16.5425 22.9882C16.5425 22.9882 17.1542 23.0118 17.0131 22.4941C17.0131 22.4941 17.0131 22.4706 17.0366 22.4706C17.0366 22.4706 17.1778 22.5647 17.2484 22.7765C17.3189 22.9882 17.4366 23.0118 17.4366 23.0118C17.4366 23.0118 17.4601 23.0353 17.4601 23.0588C17.4601 23.0588 17.4837 23.1294 17.3895 23.2471C17.3895 23.2471 17.6484 23.2471 17.6484 23.0824C17.6484 23.0824 17.7895 23.0353 17.8366 22.9647C17.8837 22.8706 17.9778 22.4941 17.5072 22.2118C17.5072 22.2118 17.7425 22.1882 17.8601 22.4235C18.0013 22.6588 18.0954 22.3765 18.1425 22.6353V22.6588C18.1425 22.6588 18.3072 22.5647 18.1895 22.3529V22.3294C18.1895 22.3294 18.3072 21.9294 17.7189 21.8353H17.6954C17.6954 21.8353 17.766 21.7647 17.9307 21.8353C18.0954 21.8824 18.166 21.8353 18.166 21.7647C18.166 21.7647 18.2601 21.7647 18.3307 21.8588C18.3307 21.8588 18.3542 21.3412 17.5072 21.4824C17.5072 21.4824 17.2954 21.5765 17.1072 21.4353C16.8954 21.2941 15.8837 20.3059 15.8837 20.3059C15.8837 20.3059 15.8131 20.2118 15.7895 20.1647C15.766 20.1176 15.6954 19.8353 15.6954 19.7647C15.6954 19.7647 15.6954 19.7647 15.6719 19.7412C15.6719 19.7412 15.5307 19.6235 15.4601 19.5765C15.4601 19.5765 15.3895 20.1176 14.6601 20.5647C14.6601 20.5647 14.566 20.5882 14.566 20.5176C14.566 20.4706 14.4013 19.6471 13.9307 19.9059C13.4366 20.1882 13.0837 20.3529 13.0131 20.3059C12.9895 20.3059 12.9895 20.2588 13.0131 20.2353C13.0601 20.2118 13.2248 19.9529 13.1778 19.6706H13.1542C13.1542 19.6706 13.1072 19.6941 13.0366 19.7176C12.6837 19.8353 12.4484 19.9529 12.3307 20.0471C12.3072 20.0471 12.2601 20.0706 12.2366 20.0941C12.166 20.1647 11.9072 20.3765 11.5307 20.5647C11.1542 20.7529 10.5425 21.0824 10.3778 21.5529C10.2366 22.0235 9.69542 22.1176 9.38953 21.7412C9.08365 21.3882 9.38953 20.7294 10.7307 19.7882C10.7307 19.7882 11.1307 19.5294 11.2719 19.1294C11.4131 18.7294 11.3189 18.6118 11.2954 18.4471C11.2719 18.2824 11.3895 18.0706 11.4366 18.0235C11.4601 17.9765 11.4366 17.8353 11.4366 17.8588C11.4366 17.8588 11.3895 17.9529 11.2719 17.9765C11.1542 18 11.1307 18.0235 11.1307 18.0471C11.1307 18.0471 11.1072 18.0471 11.1072 18.0235C11.1072 18.0235 11.1072 17.9294 11.2248 17.8588C11.3425 17.7647 11.366 17.5765 11.3425 17.4588C11.3425 17.3412 11.366 17.2941 11.3895 17.2706C11.3895 17.2706 11.3189 17.2941 11.2484 17.3647C11.2484 17.3412 11.1542 16.9412 11.366 16.7294C11.4131 16.7059 11.4601 16.4941 11.2954 16.2824C11.1307 16.0706 11.1307 16 11.1307 16C11.1307 16 11.1072 16 11.1072 16.0706C11.1307 16.1412 11.0837 16.2118 11.0837 16.2588C11.0601 16.2824 11.0601 16.3765 11.0837 16.4235C11.0837 16.4235 10.966 16.2353 10.9895 16.0706C11.0131 15.9059 11.1307 15.6235 10.9895 15.4824C10.9895 15.4824 10.966 15.4588 10.9895 15.5059C10.9895 15.5059 11.0131 15.7647 10.7778 16.0235C10.5425 16.2588 10.8013 16.5882 10.8954 16.7294C10.9895 16.8471 10.8954 17.0588 10.9189 17.1294C10.9189 17.1294 10.8954 17.0824 10.8954 17.0588C10.8954 17.0118 10.8719 16.8471 10.7778 16.8C10.7778 16.8 10.7778 16.8 10.7778 16.8235C10.7778 16.8235 10.7778 16.9412 10.7542 17.0118C10.7307 17.0588 10.7307 17.2471 10.8484 17.3647C10.966 17.4824 10.8719 17.8353 10.8013 17.8824C10.8013 17.8824 10.8013 17.8824 10.8013 17.8588C10.8013 17.8353 10.8013 17.7882 10.8248 17.7647C10.8484 17.7176 10.8484 17.5529 10.8248 17.5294C10.8248 17.5294 10.8013 17.6471 10.6366 17.7647C10.566 17.8118 10.4954 18.0471 10.7072 18.2824C10.7072 18.2824 10.7778 18.3529 10.8248 18.4235C10.8248 18.4235 10.6601 18.4 10.6366 18.3059C10.6366 18.3059 10.6366 18.3059 10.6131 18.3059C10.6131 18.3059 10.5895 18.5412 10.8248 18.6118C10.9895 18.6353 11.1307 19.1294 10.2837 19.6235C10.1189 19.6941 9.95424 19.8118 9.78953 19.9529C9.74247 19.9294 9.62483 19.8588 9.46012 19.6235C9.46012 19.6235 9.43659 19.5765 9.43659 19.5294C9.41306 19.4824 9.31894 19.3882 9.17777 19.3647V19.3882C9.17777 19.3882 9.29541 19.4353 9.29541 19.6471C9.29541 19.8353 9.43659 20.0471 9.57777 20.1176C9.57777 20.1176 9.57777 20.1176 9.55424 20.1412C9.50718 20.1882 9.46012 20.2588 9.41306 20.3059C9.366 20.2353 9.29541 20.1647 9.24836 20.0706C9.24836 20.0706 9.22483 20.0235 9.2013 19.9765C9.2013 19.9294 9.10718 19.8353 8.966 19.7882C8.966 19.7882 8.966 19.7882 8.966 19.8118C8.98953 19.8118 9.08365 19.8588 9.08365 20.0706C9.06012 20.2353 9.15424 20.4 9.24836 20.4941V20.5176C9.2013 20.5647 9.15424 20.6118 9.13071 20.6824C9.08365 20.6118 9.03659 20.5412 8.98953 20.4471C8.98953 20.4471 8.966 20.4 8.966 20.3529C8.94247 20.3059 8.87189 20.1882 8.73071 20.1412C8.75424 20.1412 8.84836 20.2118 8.82483 20.4235C8.77777 20.6118 8.87189 20.8471 8.98953 20.9176C8.98953 20.9176 8.98953 20.9176 8.98953 20.9412C8.84836 21.2941 8.82483 21.6941 9.06012 22.0471C9.53071 22.7294 10.2837 22.3294 10.2837 22.3294C10.2837 22.3294 10.3307 22.2824 10.3307 22.3294C10.3307 22.3294 10.4013 22.8941 10.5425 23.2235C10.6837 23.5529 10.4954 23.7882 10.166 23.8353C9.83659 23.8824 9.55424 24.0471 9.64836 24.4235C9.69542 24.5176 9.74247 24.6824 9.81306 24.8706C9.74247 24.8706 9.64836 24.8706 9.55424 24.8706C9.55424 24.8706 9.50718 24.8706 9.46012 24.8471C9.41306 24.8235 9.29541 24.8471 9.17777 24.9412C9.2013 24.9412 9.29541 24.8706 9.46012 25.0118C9.57777 25.1059 9.766 25.1294 9.88365 25.1294H9.90718C9.93071 25.1765 9.95424 25.2471 9.97777 25.2941C9.90718 25.2941 9.83659 25.2706 9.766 25.2471C9.766 25.2471 9.71894 25.2471 9.67189 25.2235C9.62483 25.2 9.50718 25.2 9.366 25.2941C9.366 25.2941 9.366 25.2941 9.38953 25.2941C9.38953 25.2706 9.50718 25.2235 9.64836 25.3882C9.766 25.5059 9.93071 25.5529 10.0719 25.5529C10.0954 25.5765 10.0954 25.6235 10.1189 25.6471C10.0484 25.6471 9.95424 25.6235 9.83659 25.6C9.83659 25.6 9.78953 25.6 9.766 25.5765C9.71894 25.5529 9.57777 25.5529 9.46012 25.6235C9.48365 25.6235 9.6013 25.5765 9.74247 25.7412C9.86012 25.8588 10.0719 25.9294 10.2131 25.9059C10.3072 26.1412 10.3778 26.3059 10.3778 26.3059C10.3778 26.3059 10.4248 26.5882 10.4013 26.6824C10.3778 26.8 10.4484 27.0118 10.6131 27.0824C10.7778 27.1765 10.9189 27.3882 10.9189 27.4118C10.9189 27.4588 10.9189 27.6941 11.2013 27.8118C11.2013 27.8118 11.2484 27.7882 11.2484 27.8353C11.2484 27.8824 11.2013 27.9765 11.2013 27.9765C11.2013 27.9765 11.2013 28 11.2248 27.9765C11.2484 27.9765 11.366 27.9529 11.4366 27.8118V27.7882C11.4366 27.7882 11.5542 27.6706 11.5778 27.5529C11.6013 27.4353 11.5542 27.2941 11.3425 27.1765V27.1529C11.3425 27.1529 11.4131 27.1529 11.4837 27.2235C11.5307 27.2706 11.6719 27.3882 11.6954 27.4118C11.7189 27.4353 11.8601 27.5765 12.0719 27.5529C12.0719 27.5529 12.0954 27.5294 12.0954 27.5529C12.1189 27.5529 12.166 27.6 12.1425 27.7882V27.8118C12.1425 27.7882 12.3542 27.7176 12.3072 27.4588C12.3072 27.4588 12.3072 27.4588 12.3072 27.4353C12.3072 27.4353 12.3778 27.2706 12.3778 27.1765C12.3542 27.0824 12.2837 26.8706 11.9072 26.8C11.9072 26.8 12.0013 26.7294 12.2131 26.8235C12.2131 26.8235 12.2366 26.8235 12.2601 26.8235C12.2601 26.8471 12.3307 26.9647 12.4954 26.9176C12.4954 26.9176 12.6366 26.9412 12.6601 27.1294C12.6601 27.1294 12.8248 26.9647 12.5895 26.7294C12.5895 26.7294 12.4484 26.2588 11.8837 26.4471ZM15.2248 15.0353C15.2248 15.0353 15.2248 15.0118 15.2248 14.9882C15.2248 14.9882 15.1778 14.9176 15.0837 14.8706C15.0131 14.8235 14.8248 14.8235 14.6837 14.8235C14.5425 14.8471 14.4484 14.8 14.3307 14.7765C14.2366 14.7529 13.9778 14.6824 13.8131 14.8471C13.8131 14.8471 13.7895 14.8706 13.8131 14.8941C13.8131 14.8941 13.8601 14.9882 13.9542 15.0588C14.0484 15.1294 14.2366 15.2706 14.4484 15.2C14.4484 15.2 14.5425 15.1765 14.566 15.1529C14.6131 15.1294 14.7072 15.0588 14.7778 15.0588C14.8719 15.0588 14.966 15.0824 14.966 15.0824C14.9895 15.0824 15.0601 15.1059 15.0601 15.1059C15.0601 15.1059 15.2013 15.1294 15.2248 15.0353ZM12.8954 18.3294H12.8719C12.8954 18.3529 12.9189 18.3765 12.966 18.3765C13.0366 18.3765 13.2954 18.3294 13.3425 18.0235C13.366 17.6941 12.966 17.3176 12.7307 17.1294C12.4484 16.8941 12.0484 16.6353 11.9542 16.3529C11.9542 16.3529 11.8837 16.5176 11.7895 16.6824C11.6954 16.8706 11.7189 17.1059 11.766 17.2235C11.8366 17.3882 11.9307 17.5529 11.9542 17.6C11.9778 17.6471 11.9778 17.7176 12.0954 17.7647C12.1425 17.7647 12.3072 17.7647 12.4013 17.6706C12.4719 17.6235 12.5189 17.5294 12.5189 17.4588C12.5189 17.1765 12.2601 17.2 12.2837 17.2941C12.2837 17.3176 12.3307 17.3176 12.3072 17.3647C12.2837 17.3882 12.2366 17.4118 12.1895 17.3882C12.1425 17.3882 12.0248 17.2235 12.2601 17.1294C12.4719 17.0588 12.7307 17.2471 12.6837 17.5294C12.6366 17.8118 12.2601 17.9294 12.0719 17.8824H12.0484C12.0484 17.9059 12.0484 17.9765 12.0248 18.0471C11.9778 18.0941 11.7895 18.6353 12.1189 19.2C12.1189 19.2 12.1895 19.2941 12.3542 19.2941C12.5189 19.2941 12.7072 19.0588 12.5895 18.8941C12.566 18.8706 12.566 18.8706 12.566 18.8941C12.566 18.8941 12.566 18.9882 12.4719 18.9412C12.3307 18.8941 12.3542 18.7059 12.5189 18.6588C12.6837 18.6118 12.8719 18.6824 12.8013 19.0118C12.7307 19.3412 12.4013 19.4588 12.3307 19.4353C12.2837 19.4353 12.2837 19.4353 12.2837 19.4588C12.2837 19.4588 12.3778 19.7412 12.3307 19.8824C12.3307 19.8824 12.3072 19.9294 12.3778 19.8824C12.3778 19.8824 12.6131 19.7647 12.8013 19.6941C12.966 19.6235 13.4366 19.5059 13.7895 19.0588C14.1425 18.5882 14.3072 17.9059 13.8131 17.1529C13.7425 17.0353 13.6719 16.8235 13.2248 16.6588C13.2248 16.6588 13.1307 16.6353 13.2013 16.5882C13.2013 16.5882 13.2248 16.5647 13.3189 16.5882C13.3189 16.5882 13.7895 16.6588 14.0719 17.2941C14.3307 17.9294 14.4484 18.2118 14.8013 18.4C15.1778 18.5882 15.8837 18.8235 16.0013 19.0824C16.0013 19.0824 16.0484 19.1529 16.0719 19.0588C16.0954 18.9647 16.0954 18.8471 16.0013 18.6588C15.9307 18.4706 15.9307 18.4235 16.0013 18.4235C16.0954 18.4235 16.0954 18.4235 16.0954 18.3765C16.0954 18.3294 16.0248 17.7647 15.0131 17.7647C15.0131 17.7647 14.9189 17.7882 14.9425 17.7176C14.966 17.6706 15.0366 17.6706 15.1307 17.6706C15.2484 17.6706 15.766 17.7176 15.9307 17.8588C15.9307 17.8588 16.0013 17.9059 15.9542 17.8118C15.9072 17.6941 15.6484 17.2471 14.8013 17.0588C13.9542 16.8706 13.9542 16.2824 13.9542 16.2824C13.9542 16.2824 13.9778 16.1882 14.0484 16.3294C14.3072 16.9176 15.2719 17.0118 15.3189 17.0353C15.3895 17.0353 15.4837 17.1059 15.5307 17.0588C15.6484 16.9412 15.6719 16.7294 15.6013 16.6353C15.6013 16.6353 15.6013 16.5882 15.5778 16.6118C15.5542 16.6353 15.4837 16.6824 15.4601 16.6824C15.4601 16.6824 15.4601 16.6824 15.4601 16.6588C15.4366 16.6588 15.3895 16.5647 15.3895 16.5176C15.3895 16.5176 15.3189 16.6588 15.2719 16.7059C15.2719 16.7059 15.2719 16.7294 15.2484 16.7294C15.2484 16.7294 14.8484 16.7059 14.8013 16.3765C14.7542 16.0706 14.8954 15.8588 15.2484 15.9059C15.2484 15.9059 15.3189 15.9294 15.3425 15.9529C15.366 15.9765 15.4131 16.0941 15.4131 16.0941V16.1176L15.4837 16.0235C15.4837 16.0235 15.5072 16 15.5072 16.0235L15.6954 16.0706C15.6954 16.0706 15.7189 16.0941 15.7189 16.0706C15.7189 16.0706 15.7895 16.0235 15.8366 15.8824C15.8601 15.7647 15.8837 15.6 15.8601 15.6C15.8601 15.6 15.6954 15.5059 15.6719 15.4824V15.4588C15.6719 15.4588 15.7189 15.4588 15.8837 15.5059C15.8837 15.5059 15.9307 15.5059 15.9072 15.5059C15.9072 15.4824 15.9072 15.4824 15.9072 15.4824C15.9072 15.4824 15.8366 15.3647 15.6484 15.2941C15.4131 15.2 15.3425 15.1765 15.2248 15.2C15.2248 15.2 15.2013 15.2 15.1778 15.2C15.1778 15.2 15.1072 15.4824 14.8484 15.5059C14.8484 15.5059 14.7778 15.5059 14.6837 15.4353C14.5895 15.3647 14.566 15.3647 14.4013 15.3412C14.2601 15.3176 13.9072 15.2471 13.7425 14.9882C13.5542 14.7059 13.4837 14.5882 13.1072 14.7765C12.7307 14.9647 12.5895 14.9647 12.3072 14.7059H12.2837C12.2837 14.7059 12.3072 14.7529 12.2601 14.9176C12.2366 15.0824 12.2837 15.1765 12.3307 15.2235C12.3542 15.2941 12.3542 15.4353 12.566 15.5059C12.7542 15.5765 12.8484 15.4588 13.0366 15.5765H13.0601C13.0601 15.5765 13.0837 15.6 13.0601 15.6C13.0366 15.6 13.0131 15.6 13.0131 15.6C13.0131 15.6 12.9425 15.5529 12.8719 15.5529C12.8013 15.5765 12.7072 15.6 12.6601 15.6C12.6131 15.6 12.4248 15.6 12.3542 15.4824C12.3542 15.4824 12.3542 15.4824 12.3542 15.5059C12.3542 15.5059 12.3307 15.6471 12.1425 15.9059C11.9778 16.1647 12.1425 16.4471 12.5425 16.7765C12.9425 17.1059 13.4131 17.4824 13.4837 17.8353C13.5542 18.1647 13.3189 18.4941 13.0601 18.5176C12.7778 18.5412 12.6366 18.2588 12.8248 18.1647C13.0601 18.0471 13.0601 18.4235 12.8954 18.3294ZM35.5778 24.3059L35.9778 22.8235H36.0013L36.4013 24.3059H35.5778ZM35.6484 22.4235L34.6601 25.4353H35.2484L35.4601 24.6824H36.4954L36.7072 25.4353H37.2954L36.3778 22.4235H35.6484ZM34.0248 24.6588H34.0013L32.9895 22.4235H32.3072V25.4353H32.8484V23.1294L33.8601 25.4353H34.5425V22.4235H34.0248V24.6588ZM30.8013 25.1294C30.4484 25.1294 30.1895 24.9412 30.1895 23.9059C30.1895 22.8941 30.4484 22.7294 30.8013 22.7294C31.1307 22.7294 31.3895 22.8941 31.3895 23.9059C31.3895 24.9412 31.1307 25.1294 30.8013 25.1294ZM30.8013 22.3765C29.9778 22.3765 29.6248 22.8471 29.6248 23.9294C29.6248 25.0118 29.9778 25.4824 30.8013 25.4824C31.6013 25.4824 31.9542 25.0118 31.9542 23.9294C31.9542 22.8471 31.6013 22.3765 30.8013 22.3765ZM50.3307 22.4235H49.719L48.6601 23.7412H48.6366V22.4235H48.0954V25.4353H48.6366V24.4471L48.966 24.0706L49.8131 25.4353H50.4484L49.319 23.6941L50.3307 22.4235ZM28.7307 25.4353H29.2954V22.4235H28.7307V25.4353ZM37.9542 22.4235H37.3895V25.4353H39.319V25.0353H37.9542V22.4235ZM43.6013 24.3059L44.0248 22.8235H44.0484L44.4484 24.3059H43.6013ZM43.6954 22.4235L42.6837 25.4353H43.2719L43.5072 24.6824H44.5425L44.7542 25.4353H45.3425L44.4248 22.4235H43.6954ZM47.1542 24.6588L46.1189 22.4235H45.4366V25.4353H45.9778V23.1294L47.0131 25.4353H47.6954V22.4235H47.1542V24.6588ZM41.6484 25.0588H41.0837V24.0235H41.6248C41.9307 24.0235 42.166 24.2118 42.166 24.5412C42.166 24.8941 41.9778 25.0588 41.6484 25.0588ZM41.0837 22.7765H41.4837C41.8131 22.7765 42.0484 22.8471 42.0484 23.2235C42.0484 23.5059 41.8837 23.6941 41.5307 23.6941H41.0837V22.7765ZM42.0954 23.8353C42.4484 23.7412 42.6131 23.5294 42.6131 23.1529C42.6131 22.6118 42.1895 22.4235 41.6719 22.4235H40.519V25.4353H41.6484C42.3072 25.4353 42.7307 25.1059 42.7307 24.6118C42.7307 24.0941 42.4719 23.9059 42.0954 23.8353ZM25.0837 24.3059L25.4837 22.8235H25.5072L25.9072 24.3059H25.0837ZM25.1542 22.4235L24.166 25.4353H24.7542L24.966 24.6824H26.0013L26.2131 25.4353H26.8013L25.8837 22.4235H25.1542ZM26.3778 22.8235H27.2013V25.4353H27.766V22.8235H28.5895V22.4235H26.3778V22.8235ZM23.5307 24.6588H23.5072L22.4954 22.4235H21.8131V25.4353H22.3542V23.1294L23.366 25.4353H24.0484V22.4235H23.5307V24.6588ZM48.4719 13.9294V18.4706C48.4719 19.4353 48.1189 19.9294 47.1542 19.9294C46.1895 19.9294 45.8366 19.4353 45.8366 18.4706V13.9294H43.8837V18.3529C43.8837 20.5412 44.8719 21.6235 47.1542 21.6235C49.4366 21.6235 50.4484 20.5412 50.4484 18.3529V13.9294H48.4719ZM32.566 15.4588C33.8366 15.4588 34.3072 16.5647 34.3072 17.6941C34.3072 18.8235 33.8366 19.9294 32.566 19.9294C31.2954 19.9294 30.8013 18.8235 30.8013 17.6941C30.8013 16.5647 31.2954 15.4588 32.566 15.4588ZM32.566 21.6235C34.9425 21.6235 36.2837 19.8824 36.2837 17.6941C36.2837 15.5059 34.9425 13.7647 32.566 13.7647C30.1895 13.7647 28.8484 15.5059 28.8484 17.6941C28.8484 19.8824 30.1895 21.6235 32.566 21.6235ZM40.3542 19.8824H38.7778V18.1647H40.3542C40.966 18.1647 41.4131 18.3765 41.4131 19.0353C41.4131 19.6706 40.9895 19.8824 40.3542 19.8824ZM38.7778 15.4353H40.3072C40.7307 15.4353 41.1072 15.6235 41.1072 16.1647C41.1072 16.7059 40.6601 16.8941 40.3072 16.8941H38.7778V15.4353ZM43.3895 19.1294C43.3895 18.2588 42.8954 17.5765 42.0954 17.3412C42.6837 17.0353 43.0837 16.4941 43.0837 15.8118C43.0837 14.2353 41.6484 13.9059 40.3542 13.9294H36.8248V21.4588H40.4484C42.0719 21.4588 43.3895 20.9176 43.3895 19.1294ZM23.6484 16.7529H23.6719L26.3072 21.4588H28.3072V13.9294H26.4719V18.5647H26.4484L23.8131 13.9294H21.8131V21.4588H23.6484V16.7529Z" fill="#E20613"/>
</g>
<defs>
<clipPath id="clip0_301_3391">
<rect width="43.4614" height="16" fill="white" transform="translate(7 12)"/>
</clipPath>
</defs>
</svg>
