<svg width="46" height="32" viewBox="0 0 46 32" fill="none" xmlns="http://www.w3.org/2000/svg">
<g clip-path="url(#clip0_301_3349)">
<path d="M12.2371 15.8882C12.1415 15.6205 11.6635 15.4676 11.568 15.4294C11.4724 15.3911 11.3768 15.3529 11.3768 15.3529C11.4341 15.6014 11.3003 15.8117 11.3003 15.8117H11.3194C11.3385 15.7926 11.3768 15.8117 11.3768 15.8117C11.8547 15.9264 12.1988 16.2705 12.1988 16.2705C12.218 16.2705 12.218 16.2705 12.218 16.2705C12.2371 16.2132 12.2371 16.1558 12.2371 16.1176C12.2371 16.0794 12.2371 15.9264 12.2371 15.8882ZM12.8297 13.575C12.7341 13.6132 12.4091 13.5558 12.3135 13.4985C12.2371 13.4411 12.1797 13.4411 12.1797 13.4411C11.8547 13.3838 11.74 13.5558 11.7209 13.5558C11.7209 13.575 11.7209 13.575 11.7209 13.575C11.7209 13.575 11.9312 13.4985 12.2562 13.6514C12.6003 13.8044 12.8106 13.5941 12.8106 13.5941C12.8488 13.575 12.8297 13.575 12.8297 13.575ZM13.0974 21.4323C13.1547 21.0691 12.6385 21.1264 12.6385 21.1264C12.6194 21.1073 12.6194 21.1073 12.6194 21.1073C13.0018 21.05 13.1165 21.222 13.1165 21.222C13.1165 20.9926 12.9444 20.9544 12.9444 20.9544H12.9253C12.868 20.8205 12.6385 20.8014 12.5238 20.8779C12.4091 20.9544 12.3135 20.9544 12.3135 20.9544C11.8547 21.05 11.5871 20.6676 11.5871 20.6676C11.1474 19.9794 11.7974 20.0558 11.7018 19.2911C11.6062 18.5455 10.3444 18.3735 10.3444 18.3735C10.0003 18.3352 9.73267 19.0235 9.67531 19.2147C9.61796 19.4058 9.56061 19.4632 9.56061 19.4632C9.54149 19.5014 9.57972 19.4823 9.57972 19.4823C10.6121 19.6352 10.5738 20.1897 10.5738 20.1897C10.5738 20.2852 10.4209 20.3044 10.4209 20.3044C10.3253 20.3235 10.115 20.4382 10.4783 20.6867C10.5165 20.7058 10.5356 20.725 10.5547 20.7441C10.5547 20.7441 10.5547 20.7441 10.5547 20.7632C10.5356 20.7823 10.4974 20.8014 10.44 20.8397C10.44 20.8397 10.4209 20.8397 10.3635 20.8588C10.3253 20.8779 10.2488 20.9352 10.2297 21.0691C10.2297 21.0691 10.2297 21.0691 10.2297 21.05C10.2488 21.05 10.2871 20.9544 10.4591 20.9735C10.5547 20.9735 10.6503 20.9352 10.7459 20.8779C10.7841 20.897 10.8224 20.9352 10.8606 20.9544C10.8224 20.9735 10.8033 20.9735 10.765 20.9926C10.765 20.9926 10.7268 21.0117 10.6885 21.0117C10.6503 21.0117 10.5738 21.0691 10.5356 21.2029C10.5356 21.2029 10.5356 21.2029 10.5356 21.1838C10.5356 21.1838 10.593 21.0882 10.765 21.1264C10.8606 21.1455 10.9562 21.1264 11.0327 21.0882C11.0709 21.1073 11.09 21.1264 11.1283 21.1455C11.09 21.1647 11.0518 21.1838 10.9944 21.2029C10.9944 21.2029 10.9562 21.222 10.918 21.222C10.8797 21.222 10.7841 21.2794 10.7459 21.3941C10.765 21.375 10.8033 21.2985 10.9753 21.3367C11.09 21.375 11.2047 21.3367 11.3003 21.2985H11.3194C11.5488 21.4705 11.74 21.6617 11.74 21.7764C11.74 22.0058 11.9312 22.0632 11.9312 22.0632C11.9312 22.1779 11.8738 22.1779 11.8738 22.1779C11.8547 22.197 11.8738 22.197 11.8738 22.197C12.065 22.2161 12.1224 22.0632 12.1224 22.0632C12.2944 21.9102 12.2371 21.7382 12.2371 21.7382C12.4283 22.0441 12.6194 21.9676 12.6194 21.9676V21.9867C12.6385 22.1205 12.5621 22.2352 12.543 22.2352C12.543 22.2544 12.543 22.2544 12.543 22.2544C12.7915 22.1014 12.7915 21.9485 12.7915 21.9485C12.7915 21.9294 12.7915 21.9294 12.7915 21.9294C13.04 21.6235 12.5621 21.3941 12.5621 21.3941C12.7341 21.4132 12.8106 21.4705 12.8297 21.4897C12.8488 21.5088 12.868 21.5661 12.9253 21.5852C12.9827 21.5852 13.04 21.5852 13.04 21.5852C13.0783 21.5852 13.0974 21.7191 13.0974 21.7191C13.2121 21.547 13.0974 21.4323 13.0974 21.4323ZM12.3709 14.7794C12.3709 14.7794 12.3135 14.7602 12.3327 14.7985C12.3327 14.7985 12.5621 15.1235 12.543 15.2191C12.543 15.2955 12.543 15.2955 12.5047 15.2764C12.4856 15.2764 12.39 15.2764 12.4474 15.3911C12.5047 15.525 12.5812 15.6397 12.5047 15.8117V15.8308C12.4856 15.8308 12.4665 15.7926 12.4091 15.85C12.3709 15.9073 12.3518 16.0794 12.3709 16.2705C12.3709 16.2705 12.3709 16.3088 12.3327 16.3279C12.2944 16.347 12.3327 16.3852 12.39 16.3852C12.4283 16.3661 12.715 16.2705 12.715 16.2705C12.715 16.2705 12.868 16.2323 13.0018 15.8882C13.1356 15.525 13.7474 14.7411 13.7856 14.722C13.843 14.7029 13.9577 14.6455 13.9959 14.6073C14.015 14.5691 14.0724 14.3779 14.1106 14.2823H14.1297C14.1297 14.2823 14.3209 14.3779 14.4547 14.225C14.4547 14.225 14.5121 14.2441 14.5312 14.3205C14.5312 14.3205 14.5312 14.3205 14.5503 14.3205C14.5503 14.3205 14.5885 14.2058 14.5121 14.0911C14.5121 14.0911 14.493 13.8044 14.0915 13.9191C14.0915 13.9191 14.1106 13.8808 14.2253 13.8426C14.3209 13.8235 14.34 13.8426 14.4165 13.7279C14.4165 13.7279 14.4547 13.6705 14.5503 13.8235C14.5503 13.8235 14.5503 13.8235 14.5694 13.8235C14.5694 13.8235 14.6268 13.6897 14.4738 13.575C14.4738 13.5558 14.4547 13.3264 14.168 13.3647C14.168 13.3647 13.9768 13.3838 13.843 13.575C13.843 13.5558 13.8812 13.4602 14.015 13.3647C14.015 13.3647 14.0915 13.3264 14.0915 13.2691C14.1106 13.1926 14.0533 13.1735 14.0724 13.1352C14.1106 13.097 14.168 13.0779 14.2062 13.0779C14.2062 13.0779 14.1488 12.9632 13.9577 13.0397C13.9385 13.0397 13.5944 12.925 13.5944 13.4602C13.5944 13.4602 13.5944 13.4985 13.5944 13.4794C13.5944 13.4794 13.5371 13.422 13.5562 13.2308C13.5562 13.2308 13.5944 13.1352 13.518 13.1352H13.4988C13.4988 13.1352 13.518 13.0397 13.5753 13.0205H13.5944C13.5944 13.0205 13.4033 12.9058 13.3077 13.3838C13.3077 13.3838 13.3077 13.5558 13.3459 13.6323C13.365 13.7088 13.3841 13.9955 13.193 14.225C13.193 14.225 12.6768 14.7602 12.3709 14.7794ZM10.115 16.5955C10.8415 16.2705 11.1091 15.9838 11.2047 15.7735C11.2238 15.7161 11.243 15.6779 11.2621 15.6397C11.2621 15.5823 11.2621 15.5058 11.2621 15.5058C11.2621 15.4294 11.2621 15.3529 11.2238 15.2955C11.2047 15.2573 11.1474 15.2 11.09 15.1617C10.9944 15.0852 10.918 14.9897 10.918 14.9897C10.9562 15.85 10.1341 16.175 10.1341 16.175C10.115 16.175 10.115 16.1941 10.115 16.1941C10.1724 16.4808 10.0768 16.5764 10.0768 16.5955C10.0768 16.6147 10.115 16.5955 10.115 16.5955ZM10.8415 16.2897C10.8415 16.2897 11.1856 16.2705 11.2621 16.8058C11.2621 16.8058 11.2621 16.825 11.2812 16.825C11.2812 16.825 11.7591 16.4617 11.7783 16.0985C11.7783 16.0985 11.7783 16.0794 11.7591 16.0794C11.7591 16.0794 11.5871 15.9455 11.2812 15.8691H11.2621C11.2621 15.8691 11.1474 16.0985 10.8415 16.2897ZM10.3635 9.99995C7.32384 10.0764 4.93413 12.6 5.0106 15.6397C5.04884 17.2073 5.75619 18.6029 6.8459 19.5779L6.86502 19.597L6.90325 19.5779C6.96061 19.4823 7.09443 19.4058 7.1709 19.4058H7.26649C7.26649 19.4058 7.26649 19.4058 7.26649 19.3867L7.19002 19.3294C7.13266 19.272 7.07531 19.2338 7.01796 19.1573C6.08119 18.2779 5.46943 17.0161 5.43119 15.6205C5.39296 14.225 5.92825 12.9441 6.82678 12.0073C7.72531 11.0705 8.96796 10.4588 10.3635 10.4205C11.7783 10.3823 13.04 10.9176 13.9959 11.8161C14.9327 12.7147 15.5253 13.9573 15.5635 15.3529C15.6018 16.7676 15.0665 18.0485 14.168 18.9852C13.5753 19.6161 12.8488 20.075 11.9885 20.3426H11.9503V20.3617L11.9694 20.3808C12.0268 20.5529 12.1415 20.6294 12.218 20.6867L12.2371 20.7058L12.2562 20.6867C14.5121 19.9794 16.0415 17.8764 15.9841 15.3911V15.3529C15.9077 12.3132 13.3841 9.92348 10.3635 9.99995ZM11.1665 12.6382H11.1474C11.2812 12.7147 11.4724 12.8867 11.5488 12.6573C11.4533 12.5426 11.2621 12.6191 11.1665 12.6382ZM8.96796 21.7382C8.96796 21.7382 8.96796 21.7382 8.96796 21.7191C8.96796 21.7191 9.21649 21.4705 9.48414 21.7382C9.48414 21.7382 9.50325 21.7573 9.50325 21.7382C9.50325 21.7382 9.48414 21.5661 9.33119 21.4897C9.29296 21.4705 9.27384 21.4897 9.27384 21.4897H9.25472C9.19737 21.4514 9.15914 21.4323 9.06355 21.4514C9.06355 21.4514 8.91061 21.4705 8.81502 21.5279C8.73855 21.6044 8.66208 21.5852 8.62384 21.547C8.56649 21.5088 8.16502 20.9735 8.1459 20.3808C8.1459 20.3808 8.16502 20.3426 8.20325 20.3235C8.20325 20.3235 8.89149 19.9794 9.15914 19.7117C9.42678 19.4441 9.63708 18.6794 9.90472 18.3926C9.90472 18.3926 10.0194 18.2397 10.1533 18.2014C10.268 18.1632 10.8224 17.9911 10.9753 17.8955C11.1283 17.8 11.3959 17.4941 11.568 17.475C11.568 17.475 11.6062 17.4367 11.6444 17.4941L12.2753 18.0676C12.2753 18.0676 12.3709 18.1632 12.4665 18.1823C12.5621 18.1823 12.715 18.2397 12.715 18.3352C12.7341 18.4308 12.6577 18.6985 12.8106 18.7941C12.8106 18.7941 12.8488 18.8514 12.7533 18.9088C12.7533 18.9088 12.7341 18.9279 12.7533 18.9279C12.7533 18.9279 13.2503 18.947 13.1356 18.5264C13.1356 18.5264 13.1356 18.5073 13.1547 18.5073C13.1547 18.5073 13.2694 18.5838 13.3268 18.7558C13.3841 18.9279 13.4797 18.947 13.4797 18.947C13.4797 18.947 13.4988 18.9661 13.4988 18.9852C13.4988 18.9852 13.518 19.0426 13.4415 19.1382C13.4415 19.1382 13.6518 19.1382 13.6518 19.0044C13.6518 19.0044 13.7665 18.9661 13.8047 18.9088C13.843 18.8323 13.9194 18.5264 13.5371 18.297C13.5371 18.297 13.7283 18.2779 13.8238 18.4691C13.9385 18.6602 14.015 18.4308 14.0533 18.6411V18.6602C14.0533 18.6602 14.1871 18.5838 14.0915 18.4117V18.3926C14.0915 18.3926 14.1871 18.0676 13.7091 17.9911H13.69C13.69 17.9911 13.7474 17.9338 13.8812 17.9911C14.015 18.0294 14.0724 17.9911 14.0724 17.9338C14.0724 17.9338 14.1488 17.9338 14.2062 18.0102C14.2062 18.0102 14.2253 17.5897 13.5371 17.7044C13.5371 17.7044 13.365 17.7808 13.2121 17.6661C13.04 17.5514 12.218 16.7485 12.218 16.7485C12.218 16.7485 12.1606 16.672 12.1415 16.6338C12.1224 16.5955 12.065 16.3661 12.065 16.3088C12.065 16.3088 12.065 16.3088 12.0459 16.2897C12.0459 16.2897 11.9312 16.1941 11.8738 16.1558C11.8738 16.1558 11.8165 16.5955 11.2238 16.9588C11.2238 16.9588 11.1474 16.9779 11.1474 16.9205C11.1474 16.8823 11.0135 16.2132 10.6312 16.4235C10.2297 16.6529 9.94296 16.7867 9.88561 16.7485C9.86649 16.7485 9.86649 16.7102 9.88561 16.6911C9.92384 16.672 10.0577 16.4617 10.0194 16.2323H10.0003C10.0003 16.2323 9.96208 16.2514 9.90472 16.2705C9.61796 16.3661 9.42678 16.4617 9.33119 16.5382C9.31208 16.5382 9.27384 16.5573 9.25472 16.5764C9.19737 16.6338 8.98708 16.8058 8.68119 16.9588C8.37531 17.1117 7.87825 17.3794 7.74443 17.7617C7.62972 18.1441 7.19002 18.2205 6.94149 17.9147C6.69296 17.6279 6.94149 17.0926 8.03119 16.3279C8.03119 16.3279 8.35619 16.1176 8.4709 15.7926C8.58561 15.4676 8.50914 15.372 8.49002 15.2382C8.4709 15.1044 8.56649 14.9323 8.60472 14.8941C8.62384 14.8558 8.60472 14.7411 8.60472 14.7602C8.60472 14.7602 8.56649 14.8367 8.4709 14.8558C8.37531 14.875 8.35619 14.8941 8.35619 14.9132C8.35619 14.9132 8.33708 14.9132 8.33708 14.8941C8.33708 14.8941 8.33708 14.8176 8.43266 14.7602C8.52825 14.6838 8.54737 14.5308 8.52825 14.4352C8.52825 14.3397 8.54737 14.3014 8.56649 14.2823C8.56649 14.2823 8.50914 14.3014 8.45178 14.3588C8.45178 14.3397 8.37531 14.0147 8.54737 13.8426C8.58561 13.8235 8.62384 13.6514 8.49002 13.4794C8.35619 13.3073 8.35619 13.25 8.35619 13.25C8.35619 13.25 8.33708 13.25 8.33708 13.3073C8.35619 13.3647 8.31796 13.422 8.31796 13.4602C8.29884 13.4794 8.29884 13.5558 8.31796 13.5941C8.31796 13.5941 8.22237 13.4411 8.24149 13.3073C8.26061 13.1735 8.35619 12.9441 8.24149 12.8294C8.24149 12.8294 8.22237 12.8102 8.24149 12.8485C8.24149 12.8485 8.26061 13.0588 8.06943 13.2691C7.87825 13.4602 8.08855 13.7279 8.16502 13.8426C8.24149 13.9382 8.16502 14.1102 8.18414 14.1676C8.18414 14.1676 8.16502 14.1294 8.16502 14.1102C8.16502 14.072 8.1459 13.9382 8.06943 13.9C8.06943 13.9 8.06943 13.9 8.06943 13.9191C8.06943 13.9191 8.06943 14.0147 8.05031 14.072C8.03119 14.1102 8.03119 14.2632 8.12678 14.3588C8.22237 14.4544 8.1459 14.7411 8.08855 14.7794C8.08855 14.7794 8.08855 14.7794 8.08855 14.7602C8.08855 14.7411 8.08855 14.7029 8.10766 14.6838C8.12678 14.6455 8.12678 14.5117 8.10766 14.4926C8.10766 14.4926 8.08855 14.5882 7.95472 14.6838C7.89737 14.722 7.84002 14.9132 8.01208 15.1044C8.01208 15.1044 8.06943 15.1617 8.10766 15.2191C8.10766 15.2191 7.97384 15.2 7.95472 15.1235C7.95472 15.1235 7.95472 15.1235 7.93561 15.1235C7.93561 15.1235 7.91649 15.3147 8.10766 15.372C8.24149 15.3911 8.35619 15.7926 7.66796 16.1941C7.53414 16.2514 7.40031 16.347 7.26649 16.4617C7.22825 16.4426 7.13266 16.3852 6.99884 16.1941C6.99884 16.1941 6.97972 16.1558 6.97972 16.1176C6.96061 16.0794 6.88413 16.0029 6.76943 15.9838V16.0029C6.76943 16.0029 6.86502 16.0411 6.86502 16.2132C6.86502 16.3661 6.97972 16.5382 7.09443 16.5955C7.09443 16.5955 7.09443 16.5955 7.07531 16.6147C7.03708 16.6529 6.99884 16.7102 6.96061 16.7485C6.92237 16.6911 6.86502 16.6338 6.82678 16.5573C6.82678 16.5573 6.80766 16.5191 6.78855 16.4808C6.78855 16.4426 6.71208 16.3661 6.59737 16.3279C6.59737 16.3279 6.59737 16.3279 6.59737 16.347C6.61649 16.347 6.69296 16.3852 6.69296 16.5573C6.67384 16.6911 6.75031 16.825 6.82678 16.9014V16.9205C6.78855 16.9588 6.75031 16.997 6.73119 17.0544C6.69296 16.997 6.65472 16.9397 6.61649 16.8632C6.61649 16.8632 6.59737 16.825 6.59737 16.7867C6.57825 16.7485 6.5209 16.6529 6.40619 16.6147C6.42531 16.6147 6.50178 16.672 6.48266 16.8441C6.44443 16.997 6.5209 17.1882 6.61649 17.2455C6.61649 17.2455 6.61649 17.2455 6.61649 17.2647C6.50178 17.5514 6.48266 17.8764 6.67384 18.1632C7.05619 18.7176 7.66796 18.3926 7.66796 18.3926C7.66796 18.3926 7.70619 18.3544 7.70619 18.3926C7.70619 18.3926 7.76355 18.8514 7.87825 19.1191C7.99296 19.3867 7.84002 19.5779 7.57237 19.6161C7.30472 19.6544 7.07531 19.7882 7.15178 20.0941C7.19002 20.1705 7.22825 20.3044 7.28561 20.4573C7.22825 20.4573 7.15178 20.4573 7.07531 20.4573C7.07531 20.4573 7.03708 20.4573 6.99884 20.4382C6.96061 20.4191 6.86502 20.4382 6.76943 20.5147C6.78855 20.5147 6.86502 20.4573 6.99884 20.572C7.09443 20.6485 7.24737 20.6676 7.34296 20.6676H7.36208C7.38119 20.7058 7.40031 20.7632 7.41943 20.8014C7.36208 20.8014 7.30472 20.7823 7.24737 20.7632C7.24737 20.7632 7.20914 20.7632 7.1709 20.7441C7.13266 20.725 7.03708 20.725 6.92237 20.8014C6.92237 20.8014 6.92237 20.8014 6.94149 20.8014C6.94149 20.7823 7.03708 20.7441 7.15178 20.8779C7.24737 20.9735 7.38119 21.0117 7.4959 21.0117C7.51502 21.0308 7.51502 21.0691 7.53414 21.0882C7.47678 21.0882 7.40031 21.0691 7.30472 21.05C7.30472 21.05 7.26649 21.05 7.24737 21.0308C7.20914 21.0117 7.09443 21.0117 6.99884 21.0691C7.01796 21.0691 7.11355 21.0308 7.22825 21.1647C7.32384 21.2602 7.4959 21.3176 7.61061 21.2985C7.68708 21.4897 7.74443 21.6235 7.74443 21.6235C7.74443 21.6235 7.78266 21.8529 7.76355 21.9294C7.74443 22.025 7.80178 22.197 7.93561 22.2544C8.06943 22.3308 8.18414 22.5029 8.18414 22.522C8.18414 22.5602 8.18414 22.7514 8.41355 22.847C8.41355 22.847 8.45178 22.8279 8.45178 22.8661C8.45178 22.9044 8.41355 22.9808 8.41355 22.9808C8.41355 22.9808 8.41355 23 8.43266 22.9808C8.45178 22.9808 8.54737 22.9617 8.60472 22.847V22.8279C8.60472 22.8279 8.70031 22.7323 8.71943 22.6367C8.73855 22.5411 8.70031 22.4264 8.52825 22.3308V22.3117C8.52825 22.3117 8.58561 22.3117 8.64296 22.3691C8.68119 22.4073 8.7959 22.5029 8.81502 22.522C8.83414 22.5411 8.94884 22.6558 9.1209 22.6367C9.1209 22.6367 9.14002 22.6176 9.14002 22.6367C9.15914 22.6367 9.19737 22.675 9.17825 22.8279V22.847C9.17825 22.8279 9.35031 22.7705 9.31208 22.5602C9.31208 22.5602 9.31208 22.5602 9.31208 22.5411C9.31208 22.5411 9.36943 22.4073 9.36943 22.3308C9.35031 22.2544 9.29296 22.0823 8.98708 22.025C8.98708 22.025 9.06355 21.9676 9.23561 22.0441C9.23561 22.0441 9.25472 22.0441 9.27384 22.0441C9.27384 22.0632 9.33119 22.1588 9.46502 22.1205C9.46502 22.1205 9.57972 22.1397 9.59884 22.2926C9.59884 22.2926 9.73267 22.1588 9.54149 21.9676C9.54149 21.9676 9.42678 21.5852 8.96796 21.7382ZM11.6827 12.4661C11.6827 12.4661 11.6827 12.447 11.6827 12.4279C11.6827 12.4279 11.6444 12.3705 11.568 12.3323C11.5106 12.2941 11.3577 12.2941 11.243 12.2941C11.1283 12.3132 11.0518 12.275 10.9562 12.2558C10.8797 12.2367 10.6694 12.1794 10.5356 12.3132C10.5356 12.3132 10.5165 12.3323 10.5356 12.3514C10.5356 12.3514 10.5738 12.4279 10.6503 12.4852C10.7268 12.5426 10.8797 12.6573 11.0518 12.6C11.0518 12.6 11.1283 12.5808 11.1474 12.5617C11.1856 12.5426 11.2621 12.4852 11.3194 12.4852C11.3959 12.4852 11.4724 12.5044 11.4724 12.5044C11.4915 12.5044 11.5488 12.5235 11.5488 12.5235C11.5488 12.5235 11.6635 12.5426 11.6827 12.4661ZM9.79002 15.1426H9.7709C9.79002 15.1617 9.80914 15.1808 9.84737 15.1808C9.90472 15.1808 10.115 15.1426 10.1533 14.8941C10.1724 14.6264 9.84737 14.3205 9.65619 14.1676C9.42678 13.9764 9.10178 13.7661 9.02531 13.5367C9.02531 13.5367 8.96796 13.6705 8.89149 13.8044C8.81502 13.9573 8.83414 14.1485 8.87237 14.2441C8.92972 14.3779 9.00619 14.5117 9.02531 14.55C9.04443 14.5882 9.04443 14.6455 9.14002 14.6838C9.17825 14.6838 9.31208 14.6838 9.38855 14.6073C9.4459 14.5691 9.48414 14.4926 9.48414 14.4352C9.48414 14.2058 9.27384 14.225 9.29296 14.3014C9.29296 14.3205 9.33119 14.3205 9.31208 14.3588C9.29296 14.3779 9.25472 14.397 9.21649 14.3779C9.17825 14.3779 9.08266 14.2441 9.27384 14.1676C9.4459 14.1102 9.65619 14.2632 9.61796 14.4926C9.57972 14.722 9.27384 14.8176 9.1209 14.7794H9.10178C9.10178 14.7985 9.10178 14.8558 9.08266 14.9132C9.04443 14.9514 8.89149 15.3911 9.15914 15.85C9.15914 15.85 9.21649 15.9264 9.35031 15.9264C9.48414 15.9264 9.63708 15.7352 9.54149 15.6014C9.52237 15.5823 9.52237 15.5823 9.52237 15.6014C9.52237 15.6014 9.52237 15.6779 9.4459 15.6397C9.33119 15.6014 9.35031 15.4485 9.48414 15.4102C9.61796 15.372 9.7709 15.4294 9.71355 15.697C9.65619 15.9647 9.38855 16.0602 9.33119 16.0411C9.29296 16.0411 9.29296 16.0411 9.29296 16.0602C9.29296 16.0602 9.36943 16.2897 9.33119 16.4044C9.33119 16.4044 9.31208 16.4426 9.36943 16.4044C9.36943 16.4044 9.56061 16.3088 9.71355 16.2514C9.84737 16.1941 10.2297 16.0985 10.5165 15.7352C10.8033 15.3529 10.9371 14.7985 10.5356 14.1867C10.4783 14.0911 10.4209 13.9191 10.0577 13.7852C10.0577 13.7852 9.98119 13.7661 10.0385 13.7279C10.0385 13.7279 10.0577 13.7088 10.1341 13.7279C10.1341 13.7279 10.5165 13.7852 10.7459 14.3014C10.9562 14.8176 11.0518 15.047 11.3385 15.2C11.6444 15.3529 12.218 15.5441 12.3135 15.7544C12.3135 15.7544 12.3518 15.8117 12.3709 15.7352C12.39 15.6588 12.39 15.5632 12.3135 15.4102C12.2562 15.2573 12.2562 15.2191 12.3135 15.2191C12.39 15.2191 12.39 15.2191 12.39 15.1808C12.39 15.1426 12.3327 14.6838 11.5106 14.6838C11.5106 14.6838 11.4341 14.7029 11.4533 14.6455C11.4724 14.6073 11.5297 14.6073 11.6062 14.6073C11.7018 14.6073 12.1224 14.6455 12.2562 14.7602C12.2562 14.7602 12.3135 14.7985 12.2753 14.722C12.2371 14.6264 12.0268 14.2632 11.3385 14.1102C10.6503 13.9573 10.6503 13.4794 10.6503 13.4794C10.6503 13.4794 10.6694 13.4029 10.7268 13.5176C10.9371 13.9955 11.7209 14.072 11.7591 14.0911C11.8165 14.0911 11.893 14.1485 11.9312 14.1102C12.0268 14.0147 12.0459 13.8426 11.9885 13.7661C11.9885 13.7661 11.9885 13.7279 11.9694 13.747C11.9503 13.7661 11.893 13.8044 11.8738 13.8044C11.8738 13.8044 11.8738 13.8044 11.8738 13.7852C11.8547 13.7852 11.8165 13.7088 11.8165 13.6705C11.8165 13.6705 11.7591 13.7852 11.7209 13.8235C11.7209 13.8235 11.7209 13.8426 11.7018 13.8426C11.7018 13.8426 11.3768 13.8235 11.3385 13.5558C11.3003 13.3073 11.415 13.1352 11.7018 13.1735C11.7018 13.1735 11.7591 13.1926 11.7783 13.2117C11.7974 13.2308 11.8356 13.3264 11.8356 13.3264V13.3455L11.893 13.2691C11.893 13.2691 11.9121 13.25 11.9121 13.2691L12.065 13.3073C12.065 13.3073 12.0841 13.3264 12.0841 13.3073C12.0841 13.3073 12.1415 13.2691 12.1797 13.1544C12.1988 13.0588 12.218 12.925 12.1988 12.925C12.1988 12.925 12.065 12.8485 12.0459 12.8294V12.8102C12.0459 12.8102 12.0841 12.8102 12.218 12.8485C12.218 12.8485 12.2562 12.8485 12.2371 12.8485C12.2371 12.8294 12.2371 12.8294 12.2371 12.8294C12.2371 12.8294 12.1797 12.7338 12.0268 12.6764C11.8356 12.6 11.7783 12.5808 11.6827 12.6C11.6827 12.6 11.6635 12.6 11.6444 12.6C11.6444 12.6 11.5871 12.8294 11.3768 12.8485C11.3768 12.8485 11.3194 12.8485 11.243 12.7911C11.1665 12.7338 11.1474 12.7338 11.0135 12.7147C10.8988 12.6955 10.6121 12.6382 10.4783 12.4279C10.3253 12.1985 10.268 12.1029 9.96208 12.2558C9.65619 12.4088 9.54149 12.4088 9.31208 12.1985H9.29296C9.29296 12.1985 9.31208 12.2367 9.27384 12.3705C9.25472 12.5044 9.29296 12.5808 9.33119 12.6191C9.35031 12.6764 9.35031 12.7911 9.52237 12.8485C9.67531 12.9058 9.75178 12.8102 9.90472 12.9058H9.92384C9.92384 12.9058 9.94296 12.925 9.92384 12.925C9.90472 12.925 9.88561 12.925 9.88561 12.925C9.88561 12.925 9.82825 12.8867 9.7709 12.8867C9.71355 12.9058 9.63708 12.925 9.59884 12.925C9.56061 12.925 9.40767 12.925 9.35031 12.8294C9.35031 12.8294 9.35031 12.8294 9.35031 12.8485C9.35031 12.8485 9.33119 12.9632 9.17825 13.1735C9.04443 13.3838 9.17825 13.6132 9.50325 13.8808C9.82825 14.1485 10.2106 14.4544 10.268 14.7411C10.3253 15.0088 10.1341 15.2764 9.92384 15.2955C9.69443 15.3147 9.57972 15.0852 9.73267 15.0088C9.92384 14.9132 9.92384 15.2191 9.79002 15.1426ZM28.2194 19.9985L28.5444 18.7941H28.5636L28.8886 19.9985H28.2194ZM28.2768 18.4691L27.4738 20.9161H27.9518L28.1238 20.3044H28.965L29.1371 20.9161H29.615L28.8694 18.4691H28.2768ZM26.9577 20.2852H26.9386L26.1165 18.4691H25.5621V20.9161H26.0018V19.0426L26.8238 20.9161H27.3783V18.4691H26.9577V20.2852ZM24.3386 20.6676C24.0518 20.6676 23.8415 20.5147 23.8415 19.6735C23.8415 18.8514 24.0518 18.7176 24.3386 18.7176C24.6062 18.7176 24.8165 18.8514 24.8165 19.6735C24.8165 20.5147 24.6062 20.6676 24.3386 20.6676ZM24.3386 18.4308C23.6694 18.4308 23.3827 18.8132 23.3827 19.6926C23.3827 20.572 23.6694 20.9544 24.3386 20.9544C24.9886 20.9544 25.2753 20.572 25.2753 19.6926C25.2753 18.8132 24.9886 18.4308 24.3386 18.4308ZM40.2062 18.4691H39.7091L38.8489 19.5397H38.8297V18.4691H38.39V20.9161H38.8297V20.1132L39.0974 19.8073L39.7856 20.9161H40.3018L39.3841 19.5014L40.2062 18.4691ZM22.6562 20.9161H23.115V18.4691H22.6562V20.9161ZM30.1503 18.4691H29.6915V20.9161H31.2591V20.5911H30.1503V18.4691ZM34.7386 19.9985L35.0827 18.7941H35.1018L35.4268 19.9985H34.7386ZM34.815 18.4691L33.993 20.9161H34.4709L34.6621 20.3044H35.5033L35.6753 20.9161H36.1533L35.4077 18.4691H34.815ZM37.6253 20.2852L36.7841 18.4691H36.2297V20.9161H36.6694V19.0426L37.5106 20.9161H38.065V18.4691H37.6253V20.2852ZM33.1518 20.6102H32.693V19.7691H33.1327C33.3812 19.7691 33.5724 19.922 33.5724 20.1897C33.5724 20.4764 33.4194 20.6102 33.1518 20.6102ZM32.693 18.7558H33.018C33.2856 18.7558 33.4768 18.8132 33.4768 19.1191C33.4768 19.3485 33.343 19.5014 33.0562 19.5014H32.693V18.7558ZM33.515 19.6161C33.8018 19.5397 33.9356 19.3676 33.9356 19.0617C33.9356 18.622 33.5915 18.4691 33.1709 18.4691H32.2341V20.9161H33.1518C33.6871 20.9161 34.0312 20.6485 34.0312 20.247C34.0312 19.8264 33.8209 19.6735 33.515 19.6161ZM19.693 19.9985L20.018 18.7941H20.0371L20.3621 19.9985H19.693ZM19.7503 18.4691L18.9474 20.9161H19.4253L19.5974 20.3044H20.4386L20.6106 20.9161H21.0886L20.343 18.4691H19.7503ZM20.7444 18.7941H21.4136V20.9161H21.8724V18.7941H22.5415V18.4691H20.7444V18.7941ZM18.4312 20.2852H18.4121L17.59 18.4691H17.0356V20.9161H17.4753V19.0426L18.2974 20.9161H18.8518V18.4691H18.4312V20.2852ZM38.6959 11.5676V15.2573C38.6959 16.0411 38.4091 16.4426 37.6253 16.4426C36.8415 16.4426 36.5547 16.0411 36.5547 15.2573V11.5676H34.968V15.1617C34.968 16.9397 35.7709 17.8191 37.6253 17.8191C39.4797 17.8191 40.3018 16.9397 40.3018 15.1617V11.5676H38.6959ZM25.7724 12.8102C26.8047 12.8102 27.1871 13.7088 27.1871 14.6264C27.1871 15.5441 26.8047 16.4426 25.7724 16.4426C24.74 16.4426 24.3386 15.5441 24.3386 14.6264C24.3386 13.7088 24.74 12.8102 25.7724 12.8102ZM25.7724 17.8191C27.7033 17.8191 28.793 16.4044 28.793 14.6264C28.793 12.8485 27.7033 11.4338 25.7724 11.4338C23.8415 11.4338 22.7518 12.8485 22.7518 14.6264C22.7518 16.4044 23.8415 17.8191 25.7724 17.8191ZM32.1003 16.4044H30.8194V15.0088H32.1003C32.5974 15.0088 32.9606 15.1808 32.9606 15.7161C32.9606 16.2323 32.6165 16.4044 32.1003 16.4044ZM30.8194 12.7911H32.0621C32.4062 12.7911 32.7121 12.9441 32.7121 13.3838C32.7121 13.8235 32.3488 13.9764 32.0621 13.9764H30.8194V12.7911ZM34.5665 15.7926C34.5665 15.0852 34.165 14.5308 33.515 14.3397C33.993 14.0911 34.318 13.6514 34.318 13.097C34.318 11.8161 33.1518 11.5485 32.1003 11.5676H29.2327V17.6852H32.1768C33.4959 17.6852 34.5665 17.2455 34.5665 15.7926ZM18.5268 13.8617H18.5459L20.6871 17.6852H22.3121V11.5676H20.8209V15.3338H20.8018L18.6606 11.5676H17.0356V17.6852H18.5268V13.8617Z" fill="#E20613"/>
</g>
<defs>
<clipPath id="clip0_301_3349">
<rect width="35.3124" height="13" fill="white" transform="translate(5 10)"/>
</clipPath>
</defs>
</svg>
