<svg width="34" height="24" viewBox="0 0 34 24" fill="none" xmlns="http://www.w3.org/2000/svg">
<g clip-path="url(#clip0_301_3265)">
<path d="M10.0103 12.0765C9.94411 11.8912 9.61322 11.7853 9.54705 11.7588C9.48087 11.7324 9.41469 11.7059 9.41469 11.7059C9.4544 11.878 9.36175 12.0235 9.36175 12.0235H9.37499C9.38822 12.0103 9.41469 12.0235 9.41469 12.0235C9.74558 12.103 9.98381 12.3412 9.98381 12.3412C9.99705 12.3412 9.99705 12.3412 9.99705 12.3412C10.0103 12.3015 10.0103 12.2618 10.0103 12.2353C10.0103 12.2088 10.0103 12.103 10.0103 12.0765ZM10.4206 10.475C10.3544 10.5015 10.1294 10.4618 10.0632 10.4221C10.0103 10.3824 9.97058 10.3824 9.97058 10.3824C9.74558 10.3427 9.66616 10.4618 9.65293 10.4618C9.65293 10.475 9.65293 10.475 9.65293 10.475C9.65293 10.475 9.79852 10.4221 10.0235 10.528C10.2618 10.6338 10.4073 10.4883 10.4073 10.4883C10.4338 10.475 10.4206 10.475 10.4206 10.475ZM10.6059 15.9147C10.6456 15.6633 10.2882 15.703 10.2882 15.703C10.275 15.6897 10.275 15.6897 10.275 15.6897C10.5397 15.65 10.6191 15.7691 10.6191 15.7691C10.6191 15.6103 10.5 15.5838 10.5 15.5838H10.4868C10.447 15.4912 10.2882 15.478 10.2088 15.5309C10.1294 15.5838 10.0632 15.5838 10.0632 15.5838C9.74558 15.65 9.56028 15.3853 9.56028 15.3853C9.25587 14.9088 9.70587 14.9618 9.63969 14.4324C9.57352 13.9162 8.69999 13.7971 8.69999 13.7971C8.46175 13.7706 8.27646 14.2471 8.23675 14.3794C8.19705 14.5118 8.15734 14.5515 8.15734 14.5515C8.14411 14.578 8.17058 14.5647 8.17058 14.5647C8.88528 14.6706 8.85881 15.0544 8.85881 15.0544C8.85881 15.1206 8.75293 15.1338 8.75293 15.1338C8.68675 15.1471 8.54116 15.2265 8.79263 15.3985C8.81911 15.4118 8.83234 15.425 8.84558 15.4383C8.84558 15.4383 8.84558 15.4383 8.84558 15.4515C8.83234 15.4647 8.80587 15.478 8.76616 15.5044C8.76616 15.5044 8.75293 15.5044 8.71322 15.5177C8.68675 15.5309 8.63381 15.5706 8.62058 15.6633C8.62058 15.6633 8.62058 15.6633 8.62058 15.65C8.63381 15.65 8.66028 15.5838 8.7794 15.5971C8.84558 15.5971 8.91175 15.5706 8.97793 15.5309C9.0044 15.5441 9.03087 15.5706 9.05734 15.5838C9.03087 15.5971 9.01763 15.5971 8.99116 15.6103C8.99116 15.6103 8.96469 15.6235 8.93822 15.6235C8.91175 15.6235 8.85881 15.6633 8.83234 15.7559C8.83234 15.7559 8.83234 15.7559 8.83234 15.7427C8.83234 15.7427 8.87205 15.6765 8.99116 15.703C9.05734 15.7162 9.12352 15.703 9.17646 15.6765C9.20293 15.6897 9.21616 15.703 9.24263 15.7162C9.21616 15.7294 9.18969 15.7427 9.14999 15.7559C9.14999 15.7559 9.12352 15.7691 9.09705 15.7691C9.07058 15.7691 9.0044 15.8088 8.97793 15.8883C8.99116 15.875 9.01763 15.8221 9.13675 15.8485C9.21616 15.875 9.29558 15.8485 9.36175 15.8221H9.37499C9.53381 15.9412 9.66616 16.0735 9.66616 16.153C9.66616 16.3118 9.79852 16.3515 9.79852 16.3515C9.79852 16.4309 9.75881 16.4309 9.75881 16.4309C9.74558 16.4441 9.75881 16.4441 9.75881 16.4441C9.89116 16.4574 9.93087 16.3515 9.93087 16.3515C10.05 16.2456 10.0103 16.1265 10.0103 16.1265C10.1426 16.3383 10.275 16.2853 10.275 16.2853V16.2985C10.2882 16.3912 10.2353 16.4706 10.222 16.4706C10.222 16.4838 10.222 16.4838 10.222 16.4838C10.3941 16.378 10.3941 16.2721 10.3941 16.2721C10.3941 16.2588 10.3941 16.2588 10.3941 16.2588C10.5662 16.0471 10.2353 15.8883 10.2353 15.8883C10.3544 15.9015 10.4073 15.9412 10.4206 15.9544C10.4338 15.9677 10.447 16.0074 10.4868 16.0206C10.5265 16.0206 10.5662 16.0206 10.5662 16.0206C10.5926 16.0206 10.6059 16.1133 10.6059 16.1133C10.6853 15.9941 10.6059 15.9147 10.6059 15.9147ZM10.1029 11.3088C10.1029 11.3088 10.0632 11.2956 10.0765 11.3221C10.0765 11.3221 10.2353 11.5471 10.222 11.6133C10.222 11.6662 10.222 11.6662 10.1956 11.653C10.1823 11.653 10.1162 11.653 10.1559 11.7324C10.1956 11.825 10.2485 11.9044 10.1956 12.0235V12.0368C10.1823 12.0368 10.1691 12.0103 10.1294 12.05C10.1029 12.0897 10.0897 12.2088 10.1029 12.3412C10.1029 12.3412 10.1029 12.3677 10.0765 12.3809C10.05 12.3941 10.0765 12.4206 10.1162 12.4206C10.1426 12.4074 10.3412 12.3412 10.3412 12.3412C10.3412 12.3412 10.447 12.3147 10.5397 12.0765C10.6323 11.825 11.0559 11.2824 11.0823 11.2691C11.122 11.2559 11.2015 11.2162 11.2279 11.1897C11.2412 11.1633 11.2809 11.0309 11.3073 10.9647H11.3206C11.3206 10.9647 11.4529 11.0309 11.5456 10.925C11.5456 10.925 11.5853 10.9383 11.5985 10.9912C11.5985 10.9912 11.5985 10.9912 11.6118 10.9912C11.6118 10.9912 11.6382 10.9118 11.5853 10.8324C11.5853 10.8324 11.572 10.6338 11.2941 10.7133C11.2941 10.7133 11.3073 10.6868 11.3868 10.6603C11.4529 10.6471 11.4662 10.6603 11.5191 10.5809C11.5191 10.5809 11.5456 10.5412 11.6118 10.6471C11.6118 10.6471 11.6118 10.6471 11.625 10.6471C11.625 10.6471 11.6647 10.5544 11.5588 10.475C11.5588 10.4618 11.5456 10.303 11.347 10.3294C11.347 10.3294 11.2147 10.3427 11.122 10.475C11.122 10.4618 11.1485 10.3956 11.2412 10.3294C11.2412 10.3294 11.2941 10.303 11.2941 10.2633C11.3073 10.2103 11.2676 10.1971 11.2809 10.1706C11.3073 10.1441 11.347 10.1309 11.3735 10.1309C11.3735 10.1309 11.3338 10.0515 11.2015 10.1044C11.1882 10.1044 10.95 10.025 10.95 10.3956C10.95 10.3956 10.95 10.4221 10.95 10.4088C10.95 10.4088 10.9103 10.3691 10.9235 10.2368C10.9235 10.2368 10.95 10.1706 10.897 10.1706H10.8838C10.8838 10.1706 10.897 10.1044 10.9368 10.0912H10.95C10.95 10.0912 10.8176 10.0118 10.7515 10.3427C10.7515 10.3427 10.7515 10.4618 10.7779 10.5147C10.7912 10.5677 10.8044 10.7662 10.672 10.925C10.672 10.925 10.3147 11.2956 10.1029 11.3088ZM8.54116 12.5662C9.04411 12.3412 9.2294 12.1427 9.29558 11.9971C9.30881 11.9574 9.32205 11.9309 9.33528 11.9044C9.33528 11.8647 9.33528 11.8118 9.33528 11.8118C9.33528 11.7588 9.33528 11.7059 9.30881 11.6662C9.29558 11.6397 9.25587 11.6 9.21616 11.5735C9.14999 11.5206 9.09705 11.4544 9.09705 11.4544C9.12352 12.05 8.5544 12.275 8.5544 12.275C8.54116 12.275 8.54116 12.2883 8.54116 12.2883C8.58087 12.4868 8.51469 12.553 8.51469 12.5662C8.51469 12.5794 8.54116 12.5662 8.54116 12.5662ZM9.04411 12.3544C9.04411 12.3544 9.28234 12.3412 9.33528 12.7118C9.33528 12.7118 9.33528 12.725 9.34852 12.725C9.34852 12.725 9.6794 12.4735 9.69264 12.2221C9.69264 12.2221 9.69264 12.2088 9.6794 12.2088C9.6794 12.2088 9.56028 12.1162 9.34852 12.0633H9.33528C9.33528 12.0633 9.25587 12.2221 9.04411 12.3544ZM8.71322 8.00002C6.60881 8.05296 4.9544 9.80002 5.00734 11.9044C5.03381 12.9897 5.52352 13.9559 6.27793 14.6309L6.29116 14.6441L6.31763 14.6309C6.35734 14.5647 6.44999 14.5118 6.50293 14.5118H6.5691C6.5691 14.5118 6.5691 14.5118 6.5691 14.4985L6.51616 14.4588C6.47646 14.4191 6.43675 14.3927 6.39705 14.3397C5.74852 13.7309 5.32499 12.8574 5.29852 11.8912C5.27205 10.925 5.64263 10.0383 6.26469 9.38972C6.88675 8.74119 7.74705 8.31766 8.71322 8.29119C9.69264 8.26472 10.5662 8.63531 11.2279 9.25737C11.8765 9.87943 12.2868 10.7397 12.3132 11.7059C12.3397 12.6853 11.9691 13.5721 11.347 14.2206C10.9368 14.6574 10.4338 14.975 9.83822 15.1603H9.81175V15.1735L9.82499 15.1868C9.86469 15.3059 9.94411 15.3588 9.99705 15.3985L10.0103 15.4118L10.0235 15.3985C11.5853 14.9088 12.6441 13.453 12.6044 11.7324V11.7059C12.5515 9.60149 10.8044 7.94707 8.71322 8.00002ZM9.26911 9.82649H9.25587C9.34852 9.87943 9.48087 9.99854 9.53381 9.83972C9.46763 9.76031 9.33528 9.81325 9.26911 9.82649ZM7.74705 16.1265C7.74705 16.1265 7.74705 16.1265 7.74705 16.1133C7.74705 16.1133 7.91911 15.9412 8.1044 16.1265C8.1044 16.1265 8.11763 16.1397 8.11763 16.1265C8.11763 16.1265 8.1044 16.0074 7.99852 15.9544C7.97205 15.9412 7.95881 15.9544 7.95881 15.9544H7.94558C7.90587 15.928 7.8794 15.9147 7.81322 15.928C7.81322 15.928 7.70734 15.9412 7.64116 15.9809C7.58822 16.0338 7.53528 16.0206 7.50881 15.9941C7.46911 15.9677 7.19116 15.5971 7.17793 15.1868C7.17793 15.1868 7.19116 15.1603 7.21763 15.1471C7.21763 15.1471 7.6941 14.9088 7.8794 14.7235C8.06469 14.5383 8.21028 14.0088 8.39558 13.8103C8.39558 13.8103 8.47499 13.7044 8.56763 13.678C8.64705 13.6515 9.03087 13.5324 9.13675 13.4662C9.24263 13.4 9.42793 13.1883 9.54705 13.175C9.54705 13.175 9.57352 13.1485 9.59999 13.1883L10.0368 13.5853C10.0368 13.5853 10.1029 13.6515 10.1691 13.6647C10.2353 13.6647 10.3412 13.7044 10.3412 13.7706C10.3544 13.8368 10.3015 14.0221 10.4073 14.0883C10.4073 14.0883 10.4338 14.128 10.3676 14.1677C10.3676 14.1677 10.3544 14.1809 10.3676 14.1809C10.3676 14.1809 10.7118 14.1941 10.6323 13.903C10.6323 13.903 10.6323 13.8897 10.6456 13.8897C10.6456 13.8897 10.725 13.9427 10.7647 14.0618C10.8044 14.1809 10.8706 14.1941 10.8706 14.1941C10.8706 14.1941 10.8838 14.2074 10.8838 14.2206C10.8838 14.2206 10.897 14.2603 10.8441 14.3265C10.8441 14.3265 10.9897 14.3265 10.9897 14.2338C10.9897 14.2338 11.0691 14.2074 11.0956 14.1677C11.122 14.1147 11.175 13.903 10.9103 13.7441C10.9103 13.7441 11.0426 13.7309 11.1088 13.8633C11.1882 13.9956 11.2412 13.8368 11.2676 13.9824V13.9956C11.2676 13.9956 11.3603 13.9427 11.2941 13.8235V13.8103C11.2941 13.8103 11.3603 13.5853 11.0294 13.5324H11.0162C11.0162 13.5324 11.0559 13.4927 11.1485 13.5324C11.2412 13.5588 11.2809 13.5324 11.2809 13.4927C11.2809 13.4927 11.3338 13.4927 11.3735 13.5456C11.3735 13.5456 11.3868 13.2544 10.9103 13.3338C10.9103 13.3338 10.7912 13.3868 10.6853 13.3074C10.5662 13.228 9.99705 12.6721 9.99705 12.6721C9.99705 12.6721 9.95734 12.6191 9.94411 12.5927C9.93087 12.5662 9.89116 12.4074 9.89116 12.3677C9.89116 12.3677 9.89116 12.3677 9.87793 12.3544C9.87793 12.3544 9.79852 12.2883 9.75881 12.2618C9.75881 12.2618 9.71911 12.5662 9.30881 12.8177C9.30881 12.8177 9.25587 12.8309 9.25587 12.7912C9.25587 12.7647 9.16322 12.3015 8.89852 12.4471C8.62058 12.6059 8.42205 12.6985 8.38234 12.6721C8.36911 12.6721 8.36911 12.6456 8.38234 12.6324C8.40881 12.6191 8.50146 12.4735 8.47499 12.3147H8.46175C8.46175 12.3147 8.43528 12.328 8.39558 12.3412C8.19705 12.4074 8.06469 12.4735 7.99852 12.5265C7.98528 12.5265 7.95881 12.5397 7.94558 12.553C7.90587 12.5927 7.76028 12.7118 7.54852 12.8177C7.33675 12.9235 6.99263 13.1088 6.89999 13.3735C6.82058 13.6383 6.51616 13.6912 6.3441 13.4794C6.17205 13.2809 6.3441 12.9103 7.09852 12.3809C7.09852 12.3809 7.32352 12.2353 7.40293 12.0103C7.48234 11.7853 7.4294 11.7191 7.41616 11.6265C7.40293 11.5338 7.46911 11.4147 7.49558 11.3883C7.50881 11.3618 7.49558 11.2824 7.49558 11.2956C7.49558 11.2956 7.46911 11.3485 7.40293 11.3618C7.33675 11.375 7.32352 11.3883 7.32352 11.4015C7.32352 11.4015 7.31028 11.4015 7.31028 11.3883C7.31028 11.3883 7.31028 11.3353 7.37646 11.2956C7.44263 11.2427 7.45587 11.1368 7.44263 11.0706C7.44263 11.0044 7.45587 10.978 7.46911 10.9647C7.46911 10.9647 7.4294 10.978 7.38969 11.0177C7.38969 11.0044 7.33675 10.7794 7.45587 10.6603C7.48234 10.6471 7.50881 10.528 7.41616 10.4088C7.32352 10.2897 7.32352 10.25 7.32352 10.25C7.32352 10.25 7.31028 10.25 7.31028 10.2897C7.32352 10.3294 7.29705 10.3691 7.29705 10.3956C7.28381 10.4088 7.28381 10.4618 7.29705 10.4883C7.29705 10.4883 7.23087 10.3824 7.2441 10.2897C7.25734 10.1971 7.32352 10.0383 7.2441 9.95884C7.2441 9.95884 7.23087 9.9456 7.2441 9.97207C7.2441 9.97207 7.25734 10.1177 7.12499 10.2633C6.99263 10.3956 7.13822 10.5809 7.19116 10.6603C7.2441 10.7265 7.19116 10.8456 7.2044 10.8853C7.2044 10.8853 7.19116 10.8588 7.19116 10.8456C7.19116 10.8191 7.17793 10.7265 7.12499 10.7C7.12499 10.7 7.12499 10.7 7.12499 10.7133C7.12499 10.7133 7.12499 10.7794 7.11175 10.8191C7.09852 10.8456 7.09852 10.9515 7.16469 11.0177C7.23087 11.0838 7.17793 11.2824 7.13822 11.3088C7.13822 11.3088 7.13822 11.3088 7.13822 11.2956C7.13822 11.2824 7.13822 11.2559 7.15146 11.2427C7.16469 11.2162 7.16469 11.1235 7.15146 11.1103C7.15146 11.1103 7.13822 11.1765 7.04558 11.2427C7.00587 11.2691 6.96616 11.4015 7.08528 11.5338C7.08528 11.5338 7.12499 11.5735 7.15146 11.6133C7.15146 11.6133 7.05881 11.6 7.04558 11.5471C7.04558 11.5471 7.04558 11.5471 7.03234 11.5471C7.03234 11.5471 7.0191 11.6794 7.15146 11.7191C7.2441 11.7324 7.32352 12.0103 6.84705 12.2883C6.7544 12.328 6.66175 12.3941 6.5691 12.4735C6.54263 12.4603 6.47646 12.4206 6.38381 12.2883C6.38381 12.2883 6.37058 12.2618 6.37058 12.2353C6.35734 12.2088 6.3044 12.1559 6.22499 12.1427V12.1559C6.22499 12.1559 6.29116 12.1824 6.29116 12.3015C6.29116 12.4074 6.37058 12.5265 6.44999 12.5662C6.44999 12.5662 6.44999 12.5662 6.43675 12.5794C6.41028 12.6059 6.38381 12.6456 6.35734 12.6721C6.33087 12.6324 6.29116 12.5927 6.26469 12.5397C6.26469 12.5397 6.25146 12.5133 6.23822 12.4868C6.23822 12.4603 6.18528 12.4074 6.10587 12.3809C6.10587 12.3809 6.10587 12.3809 6.10587 12.3941C6.1191 12.3941 6.17205 12.4206 6.17205 12.5397C6.15881 12.6324 6.21175 12.725 6.26469 12.778V12.7912C6.23822 12.8177 6.21175 12.8441 6.19852 12.8838C6.17205 12.8441 6.14558 12.8044 6.1191 12.7515C6.1191 12.7515 6.10587 12.725 6.10587 12.6985C6.09263 12.6721 6.05293 12.6059 5.97352 12.5794C5.98675 12.5794 6.03969 12.6191 6.02646 12.7383C5.99999 12.8441 6.05293 12.9765 6.1191 13.0162C6.1191 13.0162 6.1191 13.0162 6.1191 13.0294C6.03969 13.228 6.02646 13.453 6.15881 13.6515C6.42352 14.0353 6.84705 13.8103 6.84705 13.8103C6.84705 13.8103 6.87352 13.7838 6.87352 13.8103C6.87352 13.8103 6.91322 14.128 6.99263 14.3133C7.07205 14.4985 6.96616 14.6309 6.78087 14.6574C6.59558 14.6838 6.43675 14.7765 6.48969 14.9883C6.51616 15.0412 6.54263 15.1338 6.58234 15.2397C6.54263 15.2397 6.48969 15.2397 6.43675 15.2397C6.43675 15.2397 6.41028 15.2397 6.38381 15.2265C6.35734 15.2133 6.29116 15.2265 6.22499 15.2794C6.23822 15.2794 6.29116 15.2397 6.38381 15.3191C6.44999 15.3721 6.55587 15.3853 6.62205 15.3853H6.63528C6.64852 15.4118 6.66175 15.4515 6.67499 15.478C6.63528 15.478 6.59558 15.4647 6.55587 15.4515C6.55587 15.4515 6.5294 15.4515 6.50293 15.4383C6.47646 15.425 6.41028 15.425 6.33087 15.478C6.33087 15.478 6.33087 15.478 6.3441 15.478C6.3441 15.4647 6.41028 15.4383 6.48969 15.5309C6.55587 15.5971 6.64852 15.6235 6.72793 15.6235C6.74116 15.6368 6.74116 15.6633 6.7544 15.6765C6.71469 15.6765 6.66175 15.6633 6.59558 15.65C6.59558 15.65 6.5691 15.65 6.55587 15.6368C6.5294 15.6235 6.44999 15.6235 6.38381 15.6633C6.39705 15.6633 6.46322 15.6368 6.54263 15.7294C6.60881 15.7956 6.72793 15.8353 6.80734 15.8221C6.86028 15.9544 6.89999 16.0471 6.89999 16.0471C6.89999 16.0471 6.92646 16.2059 6.91322 16.2588C6.89999 16.325 6.93969 16.4441 7.03234 16.4838C7.12499 16.5368 7.2044 16.6559 7.2044 16.6691C7.2044 16.6956 7.2044 16.828 7.36322 16.8941C7.36322 16.8941 7.38969 16.8809 7.38969 16.9074C7.38969 16.9338 7.36322 16.9868 7.36322 16.9868C7.36322 16.9868 7.36322 17 7.37646 16.9868C7.38969 16.9868 7.45587 16.9735 7.49558 16.8941V16.8809C7.49558 16.8809 7.56175 16.8147 7.57499 16.7485C7.58822 16.6824 7.56175 16.603 7.44263 16.5368V16.5235C7.44263 16.5235 7.48234 16.5235 7.52205 16.5633C7.54852 16.5897 7.62793 16.6559 7.64116 16.6691C7.6544 16.6824 7.73381 16.7618 7.85293 16.7485C7.85293 16.7485 7.86616 16.7353 7.86616 16.7485C7.8794 16.7485 7.90587 16.775 7.89263 16.8809V16.8941C7.89263 16.8809 8.01175 16.8412 7.98528 16.6956C7.98528 16.6956 7.98528 16.6956 7.98528 16.6824C7.98528 16.6824 8.02499 16.5897 8.02499 16.5368C8.01175 16.4838 7.97205 16.3647 7.76028 16.325C7.76028 16.325 7.81322 16.2853 7.93234 16.3383C7.93234 16.3383 7.94558 16.3383 7.95881 16.3383C7.95881 16.3515 7.99852 16.4177 8.09116 16.3912C8.09116 16.3912 8.17058 16.4044 8.18381 16.5103C8.18381 16.5103 8.27646 16.4177 8.14411 16.2853C8.14411 16.2853 8.06469 16.0206 7.74705 16.1265ZM9.62646 9.70737C9.62646 9.70737 9.62646 9.69413 9.62646 9.6809C9.62646 9.6809 9.59999 9.64119 9.54705 9.61472C9.50734 9.58825 9.40146 9.58825 9.32205 9.58825C9.24263 9.60149 9.18969 9.57502 9.12352 9.56178C9.07058 9.54854 8.92499 9.50884 8.83234 9.60149C8.83234 9.60149 8.81911 9.61472 8.83234 9.62796C8.83234 9.62796 8.85881 9.6809 8.91175 9.7206C8.96469 9.76031 9.07058 9.83972 9.18969 9.80002C9.18969 9.80002 9.24263 9.78678 9.25587 9.77354C9.28234 9.76031 9.33528 9.7206 9.37499 9.7206C9.42793 9.7206 9.48087 9.73384 9.48087 9.73384C9.49411 9.73384 9.53381 9.74707 9.53381 9.74707C9.53381 9.74707 9.61322 9.76031 9.62646 9.70737ZM8.31616 11.5603H8.30293C8.31616 11.5735 8.3294 11.5868 8.35587 11.5868C8.39558 11.5868 8.54116 11.5603 8.56763 11.3883C8.58087 11.203 8.35587 10.9912 8.22352 10.8853C8.06469 10.753 7.83969 10.6074 7.78675 10.4485C7.78675 10.4485 7.74705 10.5412 7.6941 10.6338C7.64116 10.7397 7.6544 10.8721 7.68087 10.9383C7.72058 11.0309 7.77352 11.1235 7.78675 11.15C7.79999 11.1765 7.79999 11.2162 7.86616 11.2427C7.89263 11.2427 7.98528 11.2427 8.03822 11.1897C8.07793 11.1633 8.1044 11.1103 8.1044 11.0706C8.1044 10.9118 7.95881 10.925 7.97205 10.978C7.97205 10.9912 7.99852 10.9912 7.98528 11.0177C7.97205 11.0309 7.94558 11.0441 7.91911 11.0309C7.89263 11.0309 7.82646 10.9383 7.95881 10.8853C8.07793 10.8456 8.22352 10.9515 8.19705 11.1103C8.17058 11.2691 7.95881 11.3353 7.85293 11.3088H7.83969C7.83969 11.3221 7.83969 11.3618 7.82646 11.4015C7.79999 11.428 7.6941 11.7324 7.8794 12.05C7.8794 12.05 7.91911 12.103 8.01175 12.103C8.1044 12.103 8.21028 11.9706 8.14411 11.878C8.13087 11.8647 8.13087 11.8647 8.13087 11.878C8.13087 11.878 8.13087 11.9309 8.07793 11.9044C7.99852 11.878 8.01175 11.7721 8.1044 11.7456C8.19705 11.7191 8.30293 11.7588 8.26322 11.9441C8.22352 12.1294 8.03822 12.1956 7.99852 12.1824C7.97205 12.1824 7.97205 12.1824 7.97205 12.1956C7.97205 12.1956 8.02499 12.3544 7.99852 12.4338C7.99852 12.4338 7.98528 12.4603 8.02499 12.4338C8.02499 12.4338 8.15734 12.3677 8.26322 12.328C8.35587 12.2883 8.62058 12.2221 8.81911 11.9706C9.01763 11.7059 9.11028 11.3221 8.83234 10.8985C8.79263 10.8324 8.75293 10.7133 8.50146 10.6206C8.50146 10.6206 8.44852 10.6074 8.48822 10.5809C8.48822 10.5809 8.50146 10.5677 8.5544 10.5809C8.5544 10.5809 8.81911 10.6206 8.97793 10.978C9.12352 11.3353 9.18969 11.4941 9.38822 11.6C9.59999 11.7059 9.99705 11.8383 10.0632 11.9838C10.0632 11.9838 10.0897 12.0235 10.1029 11.9706C10.1162 11.9177 10.1162 11.8515 10.0632 11.7456C10.0235 11.6397 10.0235 11.6133 10.0632 11.6133C10.1162 11.6133 10.1162 11.6133 10.1162 11.5868C10.1162 11.5603 10.0765 11.2427 9.50734 11.2427C9.50734 11.2427 9.4544 11.2559 9.46763 11.2162C9.48087 11.1897 9.52058 11.1897 9.57352 11.1897C9.63969 11.1897 9.93087 11.2162 10.0235 11.2956C10.0235 11.2956 10.0632 11.3221 10.0368 11.2691C10.0103 11.203 9.86469 10.9515 9.38822 10.8456C8.91175 10.7397 8.91175 10.4088 8.91175 10.4088C8.91175 10.4088 8.92499 10.3559 8.96469 10.4353C9.11028 10.7662 9.65293 10.8191 9.6794 10.8324C9.71911 10.8324 9.77205 10.8721 9.79852 10.8456C9.86469 10.7794 9.87793 10.6603 9.83822 10.6074C9.83822 10.6074 9.83822 10.5809 9.82499 10.5941C9.81175 10.6074 9.77205 10.6338 9.75881 10.6338C9.75881 10.6338 9.75881 10.6338 9.75881 10.6206C9.74558 10.6206 9.71911 10.5677 9.71911 10.5412C9.71911 10.5412 9.6794 10.6206 9.65293 10.6471C9.65293 10.6471 9.65293 10.6603 9.63969 10.6603C9.63969 10.6603 9.41469 10.6471 9.38822 10.4618C9.36175 10.2897 9.44116 10.1706 9.63969 10.1971C9.63969 10.1971 9.6794 10.2103 9.69264 10.2235C9.70587 10.2368 9.73234 10.303 9.73234 10.303V10.3162L9.77205 10.2633C9.77205 10.2633 9.78528 10.25 9.78528 10.2633L9.89116 10.2897C9.89116 10.2897 9.9044 10.303 9.9044 10.2897C9.9044 10.2897 9.94411 10.2633 9.97058 10.1838C9.98381 10.1177 9.99705 10.025 9.98381 10.025C9.98381 10.025 9.89116 9.97207 9.87793 9.95884V9.9456C9.87793 9.9456 9.9044 9.9456 9.99705 9.97207C9.99705 9.97207 10.0235 9.97207 10.0103 9.97207C10.0103 9.95884 10.0103 9.95884 10.0103 9.95884C10.0103 9.95884 9.97058 9.89266 9.86469 9.85296C9.73234 9.80002 9.69264 9.78678 9.62646 9.80002C9.62646 9.80002 9.61322 9.80002 9.59999 9.80002C9.59999 9.80002 9.56028 9.95884 9.41469 9.97207C9.41469 9.97207 9.37499 9.97207 9.32205 9.93237C9.26911 9.89266 9.25587 9.89266 9.16322 9.87943C9.08381 9.86619 8.88528 9.82649 8.79263 9.6809C8.68675 9.52207 8.64705 9.4559 8.43528 9.56178C8.22352 9.66766 8.14411 9.66766 7.98528 9.52207H7.97205C7.97205 9.52207 7.98528 9.54854 7.95881 9.64119C7.94558 9.73384 7.97205 9.78678 7.99852 9.81325C8.01175 9.85296 8.01175 9.93237 8.13087 9.97207C8.23675 10.0118 8.28969 9.9456 8.39558 10.0118H8.40881C8.40881 10.0118 8.42205 10.025 8.40881 10.025C8.39558 10.025 8.38234 10.025 8.38234 10.025C8.38234 10.025 8.34263 9.99854 8.30293 9.99854C8.26322 10.0118 8.21028 10.025 8.18381 10.025C8.15734 10.025 8.05146 10.025 8.01175 9.95884C8.01175 9.95884 8.01175 9.95884 8.01175 9.97207C8.01175 9.97207 7.99852 10.0515 7.89263 10.1971C7.79999 10.3427 7.89263 10.5015 8.11763 10.6868C8.34263 10.8721 8.60734 11.0838 8.64705 11.2824C8.68675 11.4677 8.5544 11.653 8.40881 11.6662C8.24999 11.6794 8.17058 11.5206 8.27646 11.4677C8.40881 11.4015 8.40881 11.6133 8.31616 11.5603ZM21.075 14.9221L21.3 14.0883H21.3132L21.5382 14.9221H21.075ZM21.1147 13.8633L20.5588 15.5574H20.8897L21.0088 15.1338H21.5912L21.7103 15.5574H22.0412L21.525 13.8633H21.1147ZM20.2015 15.1206H20.1882L19.6191 13.8633H19.2353V15.5574H19.5397V14.2603L20.1088 15.5574H20.4926V13.8633H20.2015V15.1206ZM18.3882 15.3853C18.1897 15.3853 18.0441 15.2794 18.0441 14.6971C18.0441 14.128 18.1897 14.0353 18.3882 14.0353C18.5735 14.0353 18.7191 14.128 18.7191 14.6971C18.7191 15.2794 18.5735 15.3853 18.3882 15.3853ZM18.3882 13.8368C17.925 13.8368 17.7265 14.1015 17.7265 14.7103C17.7265 15.3191 17.925 15.5838 18.3882 15.5838C18.8382 15.5838 19.0368 15.3191 19.0368 14.7103C19.0368 14.1015 18.8382 13.8368 18.3882 13.8368ZM29.3735 13.8633H29.0294L28.4338 14.6044H28.4206V13.8633H28.1162V15.5574H28.4206V15.0015L28.6059 14.7897L29.0823 15.5574H29.4397L28.8044 14.578L29.3735 13.8633ZM17.2235 15.5574H17.5412V13.8633H17.2235V15.5574ZM22.4118 13.8633H22.0941V15.5574H23.1794V15.3324H22.4118V13.8633ZM25.5882 14.9221L25.8265 14.0883H25.8397L26.0647 14.9221H25.5882ZM25.6412 13.8633L25.0721 15.5574H25.4029L25.5353 15.1338H26.1176L26.2368 15.5574H26.5676L26.0515 13.8633H25.6412ZM27.5868 15.1206L27.0044 13.8633H26.6206V15.5574H26.925V14.2603L27.5073 15.5574H27.8912V13.8633H27.5868V15.1206ZM24.4897 15.3456H24.1721V14.7633H24.4765C24.6485 14.7633 24.7809 14.8691 24.7809 15.0544C24.7809 15.253 24.675 15.3456 24.4897 15.3456ZM24.1721 14.0618H24.3971C24.5823 14.0618 24.7147 14.1015 24.7147 14.3133C24.7147 14.4721 24.6221 14.578 24.4235 14.578H24.1721V14.0618ZM24.7412 14.6574C24.9397 14.6044 25.0323 14.4853 25.0323 14.2735C25.0323 13.9691 24.7941 13.8633 24.5029 13.8633H23.8544V15.5574H24.4897C24.8603 15.5574 25.0985 15.3721 25.0985 15.0941C25.0985 14.803 24.9529 14.6971 24.7412 14.6574ZM15.172 14.9221L15.397 14.0883H15.4103L15.6353 14.9221H15.172ZM15.2118 13.8633L14.6559 15.5574H14.9868L15.1059 15.1338H15.6882L15.8073 15.5574H16.1382L15.622 13.8633H15.2118ZM15.9 14.0883H16.3632V15.5574H16.6809V14.0883H17.1441V13.8633H15.9V14.0883ZM14.2985 15.1206H14.2853L13.7162 13.8633H13.3323V15.5574H13.6368V14.2603L14.2059 15.5574H14.5897V13.8633H14.2985V15.1206ZM28.3279 9.08531V11.6397C28.3279 12.1824 28.1294 12.4603 27.5868 12.4603C27.0441 12.4603 26.8456 12.1824 26.8456 11.6397V9.08531H25.7471V11.5735C25.7471 12.8044 26.3029 13.4133 27.5868 13.4133C28.8706 13.4133 29.4397 12.8044 29.4397 11.5735V9.08531H28.3279ZM19.3809 9.9456C20.0956 9.9456 20.3603 10.5677 20.3603 11.203C20.3603 11.8383 20.0956 12.4603 19.3809 12.4603C18.6662 12.4603 18.3882 11.8383 18.3882 11.203C18.3882 10.5677 18.6662 9.9456 19.3809 9.9456ZM19.3809 13.4133C20.7176 13.4133 21.472 12.4338 21.472 11.203C21.472 9.97207 20.7176 8.99266 19.3809 8.99266C18.0441 8.99266 17.2897 9.97207 17.2897 11.203C17.2897 12.4338 18.0441 13.4133 19.3809 13.4133ZM23.7618 12.4338H22.875V11.4677H23.7618C24.1059 11.4677 24.3573 11.5868 24.3573 11.9574C24.3573 12.3147 24.1191 12.4338 23.7618 12.4338ZM22.875 9.93237H23.7353C23.9735 9.93237 24.1853 10.0383 24.1853 10.3427C24.1853 10.6471 23.9338 10.753 23.7353 10.753H22.875V9.93237ZM25.4691 12.0103C25.4691 11.5206 25.1912 11.1368 24.7412 11.0044C25.0721 10.8324 25.2971 10.528 25.2971 10.1441C25.2971 9.25737 24.4897 9.07207 23.7618 9.08531H21.7765V13.3206H23.8147C24.7279 13.3206 25.4691 13.0162 25.4691 12.0103ZM14.3647 10.6735H14.3779L15.8603 13.3206H16.9853V9.08531H15.9529V11.6927H15.9397L14.4573 9.08531H13.3323V13.3206H14.3647V10.6735Z" fill="#E20613"/>
</g>
<defs>
<clipPath id="clip0_301_3265">
<rect width="24.447" height="9" fill="white" transform="translate(5 8)"/>
</clipPath>
</defs>
</svg>
