<svg width="28" height="20" viewBox="0 0 28 20" fill="none" xmlns="http://www.w3.org/2000/svg">
<g clip-path="url(#clip0_301_3307)">
<path d="M7.8969 10.1706C7.84543 10.0265 7.58808 9.9441 7.53661 9.92351C7.48513 9.90293 7.43366 9.88234 7.43366 9.88234C7.46455 10.0162 7.39249 10.1294 7.39249 10.1294H7.40278C7.41308 10.1191 7.43366 10.1294 7.43366 10.1294C7.69102 10.1912 7.87631 10.3765 7.87631 10.3765C7.88661 10.3765 7.88661 10.3765 7.88661 10.3765C7.8969 10.3456 7.8969 10.3147 7.8969 10.2941C7.8969 10.2735 7.8969 10.1912 7.8969 10.1706ZM8.21602 8.92498C8.16455 8.94557 7.98955 8.91469 7.93808 8.88381C7.8969 8.85293 7.86602 8.85293 7.86602 8.85293C7.69102 8.82204 7.62925 8.91469 7.61896 8.91469C7.61896 8.92498 7.61896 8.92498 7.61896 8.92498C7.61896 8.92498 7.73219 8.88381 7.90719 8.96616C8.09249 9.04851 8.20572 8.93528 8.20572 8.93528C8.22631 8.92498 8.21602 8.92498 8.21602 8.92498ZM8.36014 13.1559C8.39102 12.9603 8.11308 12.9912 8.11308 12.9912C8.10278 12.9809 8.10278 12.9809 8.10278 12.9809C8.30866 12.95 8.37043 13.0426 8.37043 13.0426C8.37043 12.9191 8.27778 12.8985 8.27778 12.8985H8.26749C8.23661 12.8265 8.11308 12.8162 8.05131 12.8573C7.98955 12.8985 7.93808 12.8985 7.93808 12.8985C7.69102 12.95 7.5469 12.7441 7.5469 12.7441C7.31013 12.3735 7.66014 12.4147 7.60866 12.0029C7.55719 11.6015 6.87778 11.5088 6.87778 11.5088C6.69249 11.4882 6.54837 11.8588 6.51749 11.9618C6.48661 12.0647 6.45572 12.0956 6.45572 12.0956C6.44543 12.1162 6.46602 12.1059 6.46602 12.1059C7.0219 12.1882 7.00131 12.4868 7.00131 12.4868C7.00131 12.5382 6.91896 12.5485 6.91896 12.5485C6.86749 12.5588 6.75425 12.6206 6.94984 12.7544C6.97043 12.7647 6.98072 12.775 6.99102 12.7853C6.99102 12.7853 6.99102 12.7853 6.99102 12.7956C6.98072 12.8059 6.96013 12.8162 6.92925 12.8368C6.92925 12.8368 6.91896 12.8368 6.88808 12.847C6.86749 12.8573 6.82631 12.8882 6.81602 12.9603C6.81602 12.9603 6.81602 12.9603 6.81602 12.95C6.82631 12.95 6.8469 12.8985 6.93955 12.9088C6.99102 12.9088 7.04249 12.8882 7.09396 12.8573C7.11455 12.8676 7.13513 12.8882 7.15572 12.8985C7.13513 12.9088 7.12484 12.9088 7.10425 12.9191C7.10425 12.9191 7.08366 12.9294 7.06308 12.9294C7.04249 12.9294 7.00131 12.9603 6.98072 13.0323C6.98072 13.0323 6.98072 13.0323 6.98072 13.022C6.98072 13.022 7.01161 12.9706 7.10425 12.9912C7.15572 13.0015 7.20719 12.9912 7.24837 12.9706C7.26896 12.9809 7.27925 12.9912 7.29984 13.0015C7.27925 13.0118 7.25866 13.022 7.22778 13.0323C7.22778 13.0323 7.20719 13.0426 7.18661 13.0426C7.16602 13.0426 7.11455 13.0735 7.09396 13.1353C7.10425 13.125 7.12484 13.0838 7.21749 13.1044C7.27925 13.125 7.34102 13.1044 7.39249 13.0838H7.40278C7.52631 13.1765 7.62925 13.2794 7.62925 13.3412C7.62925 13.4647 7.73219 13.4956 7.73219 13.4956C7.73219 13.5573 7.70131 13.5573 7.70131 13.5573C7.69102 13.5676 7.70131 13.5676 7.70131 13.5676C7.80425 13.5779 7.83513 13.4956 7.83513 13.4956C7.92778 13.4132 7.8969 13.3206 7.8969 13.3206C7.99984 13.4853 8.10278 13.4441 8.10278 13.4441V13.4544C8.11308 13.5265 8.0719 13.5882 8.06161 13.5882C8.06161 13.5985 8.06161 13.5985 8.06161 13.5985C8.19543 13.5162 8.19543 13.4338 8.19543 13.4338C8.19543 13.4235 8.19543 13.4235 8.19543 13.4235C8.32925 13.2588 8.0719 13.1353 8.0719 13.1353C8.16455 13.1456 8.20572 13.1765 8.21602 13.1868C8.22631 13.197 8.23661 13.2279 8.26749 13.2382C8.29837 13.2382 8.32925 13.2382 8.32925 13.2382C8.34984 13.2382 8.36014 13.3103 8.36014 13.3103C8.4219 13.2176 8.36014 13.1559 8.36014 13.1559ZM7.96896 9.57351C7.96896 9.57351 7.93808 9.56322 7.94837 9.58381C7.94837 9.58381 8.0719 9.75881 8.06161 9.81028C8.06161 9.85146 8.06161 9.85146 8.04102 9.84116C8.03072 9.84116 7.97925 9.84116 8.01014 9.90293C8.04102 9.97499 8.08219 10.0367 8.04102 10.1294V10.1397C8.03072 10.1397 8.02043 10.1191 7.98955 10.15C7.96896 10.1809 7.95866 10.2735 7.96896 10.3765C7.96896 10.3765 7.96896 10.397 7.94837 10.4073C7.92778 10.4176 7.94837 10.4382 7.97925 10.4382C7.99984 10.4279 8.15425 10.3765 8.15425 10.3765C8.15425 10.3765 8.23661 10.3559 8.30866 10.1706C8.38072 9.97499 8.71014 9.55293 8.73072 9.54263C8.76161 9.53234 8.82337 9.50146 8.84396 9.48087C8.85425 9.46028 8.88514 9.35734 8.90572 9.30587H8.91602C8.91602 9.30587 9.01896 9.35734 9.09102 9.27499C9.09102 9.27499 9.1219 9.28528 9.13219 9.32646C9.13219 9.32646 9.13219 9.32646 9.14249 9.32646C9.14249 9.32646 9.16308 9.26469 9.1219 9.20293C9.1219 9.20293 9.11161 9.04851 8.89543 9.11028C8.89543 9.11028 8.90572 9.08969 8.96749 9.0691C9.01896 9.05881 9.02925 9.0691 9.07043 9.00734C9.07043 9.00734 9.09102 8.97646 9.14249 9.05881C9.14249 9.05881 9.14249 9.05881 9.15278 9.05881C9.15278 9.05881 9.18366 8.98675 9.10131 8.92498C9.10131 8.91469 9.09102 8.79116 8.93661 8.81175C8.93661 8.81175 8.83366 8.82204 8.76161 8.92498C8.76161 8.91469 8.78219 8.86322 8.85425 8.81175C8.85425 8.81175 8.89543 8.79116 8.89543 8.76028C8.90572 8.7191 8.87484 8.70881 8.88514 8.68822C8.90572 8.66763 8.93661 8.65734 8.95719 8.65734C8.95719 8.65734 8.92631 8.59557 8.82337 8.63675C8.81308 8.63675 8.62778 8.57498 8.62778 8.86322C8.62778 8.86322 8.62778 8.88381 8.62778 8.87351C8.62778 8.87351 8.5969 8.84263 8.60719 8.73969C8.60719 8.73969 8.62778 8.68822 8.58661 8.68822H8.57631C8.57631 8.68822 8.58661 8.63675 8.61749 8.62646H8.62778C8.62778 8.62646 8.52484 8.56469 8.47337 8.82204C8.47337 8.82204 8.47337 8.91469 8.49396 8.95587C8.50425 8.99704 8.51455 9.15146 8.41161 9.27499C8.41161 9.27499 8.13366 9.56322 7.96896 9.57351ZM6.75425 10.5515C7.14543 10.3765 7.28955 10.222 7.34102 10.1088C7.35131 10.0779 7.36161 10.0573 7.3719 10.0367C7.3719 10.0059 7.3719 9.96469 7.3719 9.96469C7.3719 9.92351 7.3719 9.88234 7.35131 9.85146C7.34102 9.83087 7.31013 9.79999 7.27925 9.7794C7.22778 9.73822 7.18661 9.68675 7.18661 9.68675C7.20719 10.15 6.76455 10.325 6.76455 10.325C6.75425 10.325 6.75425 10.3353 6.75425 10.3353C6.78513 10.4897 6.73366 10.5412 6.73366 10.5515C6.73366 10.5617 6.75425 10.5515 6.75425 10.5515ZM7.14543 10.3867C7.14543 10.3867 7.33072 10.3765 7.3719 10.6647C7.3719 10.6647 7.3719 10.675 7.38219 10.675C7.38219 10.675 7.63955 10.4794 7.64984 10.2838C7.64984 10.2838 7.64984 10.2735 7.63955 10.2735C7.63955 10.2735 7.5469 10.2015 7.38219 10.1603H7.3719C7.3719 10.1603 7.31013 10.2838 7.14543 10.3867ZM6.88808 6.99998C5.25131 7.04116 3.96455 8.39998 4.00572 10.0367C4.02631 10.8809 4.40719 11.6323 4.99396 12.1573L5.00425 12.1676L5.02484 12.1573C5.05572 12.1059 5.12778 12.0647 5.16896 12.0647H5.22043C5.22043 12.0647 5.22043 12.0647 5.22043 12.0544L5.17925 12.0235C5.14837 11.9926 5.11749 11.972 5.0866 11.9309C4.58219 11.4573 4.25278 10.7779 4.23219 10.0265C4.2116 9.27499 4.49984 8.58528 4.98366 8.08087C5.46749 7.57646 6.13661 7.24704 6.88808 7.22646C7.64984 7.20587 8.32925 7.4941 8.84396 7.97793C9.34837 8.46175 9.66749 9.13087 9.68808 9.88234C9.70866 10.6441 9.42043 11.3338 8.93661 11.8382C8.61749 12.1779 8.22631 12.425 7.76308 12.5691H7.74249V12.5794L7.75278 12.5897C7.78366 12.6823 7.84543 12.7235 7.88661 12.7544L7.8969 12.7647L7.90719 12.7544C9.1219 12.3735 9.94543 11.2412 9.91455 9.90293V9.88234C9.87337 8.24557 8.51455 6.95881 6.88808 6.99998ZM7.32043 8.42057H7.31013C7.38219 8.46175 7.48513 8.5544 7.52631 8.43087C7.47484 8.3691 7.3719 8.41028 7.32043 8.42057ZM6.13661 13.3206C6.13661 13.3206 6.13661 13.3206 6.13661 13.3103C6.13661 13.3103 6.27043 13.1765 6.41455 13.3206C6.41455 13.3206 6.42484 13.3309 6.42484 13.3206C6.42484 13.3206 6.41455 13.2279 6.33219 13.1868C6.31161 13.1765 6.30131 13.1868 6.30131 13.1868H6.29102C6.26013 13.1662 6.23955 13.1559 6.18808 13.1662C6.18808 13.1662 6.10572 13.1765 6.05425 13.2073C6.01308 13.2485 5.9719 13.2382 5.95131 13.2176C5.92043 13.197 5.70425 12.9088 5.69396 12.5897C5.69396 12.5897 5.70425 12.5691 5.72484 12.5588C5.72484 12.5588 6.09543 12.3735 6.23955 12.2294C6.38366 12.0853 6.4969 11.6735 6.64102 11.5191C6.64102 11.5191 6.70278 11.4367 6.77484 11.4162C6.83661 11.3956 7.13513 11.3029 7.21749 11.2515C7.29984 11.2 7.44396 11.0353 7.53661 11.025C7.53661 11.025 7.55719 11.0044 7.57778 11.0353L7.91749 11.3441C7.91749 11.3441 7.96896 11.3956 8.02043 11.4059C8.0719 11.4059 8.15425 11.4367 8.15425 11.4882C8.16455 11.5397 8.12337 11.6838 8.20572 11.7353C8.20572 11.7353 8.22631 11.7662 8.17484 11.797C8.17484 11.797 8.16455 11.8073 8.17484 11.8073C8.17484 11.8073 8.44249 11.8176 8.38072 11.5912C8.38072 11.5912 8.38072 11.5809 8.39102 11.5809C8.39102 11.5809 8.45278 11.622 8.48366 11.7147C8.51455 11.8073 8.56602 11.8176 8.56602 11.8176C8.56602 11.8176 8.57631 11.8279 8.57631 11.8382C8.57631 11.8382 8.58661 11.8691 8.54543 11.9206C8.54543 11.9206 8.65866 11.9206 8.65866 11.8485C8.65866 11.8485 8.72043 11.8279 8.74102 11.797C8.76161 11.7559 8.80278 11.5912 8.5969 11.4676C8.5969 11.4676 8.69984 11.4573 8.75131 11.5603C8.81308 11.6632 8.85425 11.5397 8.87484 11.6529V11.6632C8.87484 11.6632 8.9469 11.622 8.89543 11.5294V11.5191C8.89543 11.5191 8.9469 11.3441 8.68955 11.3029H8.67925C8.67925 11.3029 8.71014 11.272 8.78219 11.3029C8.85425 11.3235 8.88514 11.3029 8.88514 11.272C8.88514 11.272 8.92631 11.272 8.95719 11.3132C8.95719 11.3132 8.96749 11.0868 8.5969 11.1485C8.5969 11.1485 8.50425 11.1897 8.4219 11.1279C8.32925 11.0662 7.88661 10.6338 7.88661 10.6338C7.88661 10.6338 7.85572 10.5926 7.84543 10.572C7.83513 10.5515 7.80425 10.4279 7.80425 10.397C7.80425 10.397 7.80425 10.397 7.79396 10.3867C7.79396 10.3867 7.73219 10.3353 7.70131 10.3147C7.70131 10.3147 7.67043 10.5515 7.35131 10.747C7.35131 10.747 7.31013 10.7573 7.31013 10.7265C7.31013 10.7059 7.23808 10.3456 7.03219 10.4588C6.81602 10.5823 6.66161 10.6544 6.63072 10.6338C6.62043 10.6338 6.62043 10.6132 6.63072 10.6029C6.65131 10.5926 6.72337 10.4794 6.70278 10.3559H6.69249C6.69249 10.3559 6.6719 10.3662 6.64102 10.3765C6.48661 10.4279 6.38366 10.4794 6.33219 10.5206C6.3219 10.5206 6.30131 10.5309 6.29102 10.5412C6.26013 10.572 6.1469 10.6647 5.98219 10.747C5.81749 10.8294 5.54984 10.9735 5.47778 11.1794C5.41602 11.3853 5.17925 11.4265 5.04543 11.2617C4.9116 11.1073 5.04543 10.8191 5.63219 10.4073C5.63219 10.4073 5.80719 10.2941 5.86896 10.1191C5.93072 9.9441 5.88955 9.89263 5.87925 9.82057C5.86896 9.74851 5.92043 9.65587 5.94102 9.63528C5.95131 9.61469 5.94102 9.55293 5.94102 9.56322C5.94102 9.56322 5.92043 9.6044 5.86896 9.61469C5.81749 9.62498 5.80719 9.63528 5.80719 9.64557C5.80719 9.64557 5.7969 9.64557 5.7969 9.63528C5.7969 9.63528 5.7969 9.5941 5.84837 9.56322C5.89984 9.52204 5.91013 9.43969 5.89984 9.38822C5.89984 9.33675 5.91013 9.31616 5.92043 9.30587C5.92043 9.30587 5.88955 9.31616 5.85866 9.34704C5.85866 9.33675 5.81749 9.16175 5.91013 9.0691C5.93072 9.05881 5.95131 8.96616 5.87925 8.87351C5.80719 8.78087 5.80719 8.74998 5.80719 8.74998C5.80719 8.74998 5.7969 8.74998 5.7969 8.78087C5.80719 8.81175 5.7866 8.84263 5.7866 8.86322C5.77631 8.87351 5.77631 8.91469 5.7866 8.93528C5.7866 8.93528 5.73513 8.85293 5.74543 8.78087C5.75572 8.70881 5.80719 8.58528 5.74543 8.52351C5.74543 8.52351 5.73513 8.51322 5.74543 8.53381C5.74543 8.53381 5.75572 8.64704 5.65278 8.76028C5.54984 8.86322 5.66308 9.00734 5.70425 9.0691C5.74543 9.12057 5.70425 9.21322 5.71455 9.2441C5.71455 9.2441 5.70425 9.22351 5.70425 9.21322C5.70425 9.19263 5.69396 9.12057 5.65278 9.09998C5.65278 9.09998 5.65278 9.09998 5.65278 9.11028C5.65278 9.11028 5.65278 9.16175 5.64249 9.19263C5.63219 9.21322 5.63219 9.29557 5.68366 9.34704C5.73513 9.39851 5.69396 9.55293 5.66308 9.57351C5.66308 9.57351 5.66308 9.57351 5.66308 9.56322C5.66308 9.55293 5.66308 9.53234 5.67337 9.52204C5.68366 9.50146 5.68366 9.4294 5.67337 9.4191C5.67337 9.4191 5.66308 9.47057 5.59102 9.52204C5.56013 9.54263 5.52925 9.64557 5.6219 9.74851C5.6219 9.74851 5.65278 9.7794 5.67337 9.81028C5.67337 9.81028 5.60131 9.79999 5.59102 9.75881C5.59102 9.75881 5.59102 9.75881 5.58072 9.75881C5.58072 9.75881 5.57043 9.86175 5.67337 9.89263C5.74543 9.90293 5.80719 10.1191 5.4366 10.3353C5.36455 10.3662 5.29249 10.4176 5.22043 10.4794C5.19984 10.4691 5.14837 10.4382 5.07631 10.3353C5.07631 10.3353 5.06602 10.3147 5.06602 10.2941C5.05572 10.2735 5.01455 10.2323 4.95278 10.222V10.2323C4.95278 10.2323 5.00425 10.2529 5.00425 10.3456C5.00425 10.4279 5.06602 10.5206 5.12778 10.5515C5.12778 10.5515 5.12778 10.5515 5.11749 10.5617C5.0969 10.5823 5.07631 10.6132 5.05572 10.6338C5.03513 10.6029 5.00425 10.572 4.98366 10.5309C4.98366 10.5309 4.97337 10.5103 4.96308 10.4897C4.96308 10.4691 4.9219 10.4279 4.86013 10.4073C4.86013 10.4073 4.86013 10.4073 4.86013 10.4176C4.87043 10.4176 4.9116 10.4382 4.9116 10.5309C4.90131 10.6029 4.94249 10.675 4.98366 10.7162V10.7265C4.96308 10.747 4.94249 10.7676 4.93219 10.7985C4.9116 10.7676 4.89102 10.7367 4.87043 10.6956C4.87043 10.6956 4.86013 10.675 4.86013 10.6544C4.84984 10.6338 4.81896 10.5823 4.75719 10.5617C4.76749 10.5617 4.80866 10.5926 4.79837 10.6853C4.77778 10.7676 4.81896 10.8706 4.87043 10.9015C4.87043 10.9015 4.87043 10.9015 4.87043 10.9117C4.80866 11.0662 4.79837 11.2412 4.90131 11.3956C5.10719 11.6941 5.4366 11.5191 5.4366 11.5191C5.4366 11.5191 5.45719 11.4985 5.45719 11.5191C5.45719 11.5191 5.48808 11.7662 5.54984 11.9103C5.6116 12.0544 5.52925 12.1573 5.38513 12.1779C5.24102 12.1985 5.11749 12.2706 5.15866 12.4353C5.17925 12.4765 5.19984 12.5485 5.23072 12.6309C5.19984 12.6309 5.15866 12.6309 5.11749 12.6309C5.11749 12.6309 5.0969 12.6309 5.07631 12.6206C5.05572 12.6103 5.00425 12.6206 4.95278 12.6618C4.96308 12.6618 5.00425 12.6309 5.07631 12.6926C5.12778 12.7338 5.21013 12.7441 5.2616 12.7441H5.2719C5.28219 12.7647 5.29249 12.7956 5.30278 12.8162C5.2719 12.8162 5.24102 12.8059 5.21013 12.7956C5.21013 12.7956 5.18955 12.7956 5.16896 12.7853C5.14837 12.775 5.0969 12.775 5.03513 12.8162C5.03513 12.8162 5.03513 12.8162 5.04543 12.8162C5.04543 12.8059 5.0969 12.7853 5.15866 12.8573C5.21013 12.9088 5.28219 12.9294 5.34396 12.9294C5.35425 12.9397 5.35425 12.9603 5.36455 12.9706C5.33366 12.9706 5.29249 12.9603 5.24102 12.95C5.24102 12.95 5.22043 12.95 5.21013 12.9397C5.18955 12.9294 5.12778 12.9294 5.07631 12.9603C5.0866 12.9603 5.13808 12.9397 5.19984 13.0118C5.25131 13.0632 5.34396 13.0941 5.40572 13.0838C5.4469 13.1868 5.47778 13.2588 5.47778 13.2588C5.47778 13.2588 5.49837 13.3823 5.48808 13.4235C5.47778 13.475 5.50866 13.5676 5.58072 13.5985C5.65278 13.6397 5.71455 13.7323 5.71455 13.7426C5.71455 13.7632 5.71455 13.8662 5.83808 13.9176C5.83808 13.9176 5.85866 13.9073 5.85866 13.9279C5.85866 13.9485 5.83808 13.9897 5.83808 13.9897C5.83808 13.9897 5.83808 14 5.84837 13.9897C5.85866 13.9897 5.91013 13.9794 5.94102 13.9176V13.9073C5.94102 13.9073 5.99249 13.8559 6.00278 13.8044C6.01308 13.7529 5.99249 13.6912 5.89984 13.6397V13.6294C5.89984 13.6294 5.93072 13.6294 5.9616 13.6603C5.98219 13.6809 6.04396 13.7323 6.05425 13.7426C6.06455 13.7529 6.12631 13.8147 6.21896 13.8044C6.21896 13.8044 6.22925 13.7941 6.22925 13.8044C6.23955 13.8044 6.26013 13.825 6.24984 13.9073V13.9176C6.24984 13.9073 6.34249 13.8765 6.3219 13.7632C6.3219 13.7632 6.3219 13.7632 6.3219 13.7529C6.3219 13.7529 6.35278 13.6809 6.35278 13.6397C6.34249 13.5985 6.31161 13.5059 6.1469 13.475C6.1469 13.475 6.18808 13.4441 6.28072 13.4853C6.28072 13.4853 6.29102 13.4853 6.30131 13.4853C6.30131 13.4956 6.33219 13.547 6.40425 13.5265C6.40425 13.5265 6.46602 13.5368 6.47631 13.6191C6.47631 13.6191 6.54837 13.547 6.44543 13.4441C6.44543 13.4441 6.38366 13.2382 6.13661 13.3206ZM7.59837 8.32793C7.59837 8.32793 7.59837 8.31763 7.59837 8.30734C7.59837 8.30734 7.57778 8.27646 7.53661 8.25587C7.50572 8.23528 7.42337 8.23528 7.36161 8.23528C7.29984 8.24557 7.25866 8.22498 7.20719 8.21469C7.16602 8.2044 7.05278 8.17351 6.98072 8.24557C6.98072 8.24557 6.97043 8.25587 6.98072 8.26616C6.98072 8.26616 7.00131 8.30734 7.04249 8.33822C7.08366 8.3691 7.16602 8.43087 7.25866 8.39998C7.25866 8.39998 7.29984 8.38969 7.31013 8.3794C7.33072 8.3691 7.3719 8.33822 7.40278 8.33822C7.44396 8.33822 7.48513 8.34851 7.48513 8.34851C7.49543 8.34851 7.52631 8.35881 7.52631 8.35881C7.52631 8.35881 7.58808 8.3691 7.59837 8.32793ZM6.57925 9.7691H6.56896C6.57925 9.7794 6.58955 9.78969 6.61013 9.78969C6.64102 9.78969 6.75425 9.7691 6.77484 9.63528C6.78513 9.49116 6.61013 9.32646 6.50719 9.2441C6.38366 9.14116 6.20866 9.02793 6.16749 8.9044C6.16749 8.9044 6.13661 8.97646 6.09543 9.04851C6.05425 9.13087 6.06455 9.23381 6.08513 9.28528C6.11602 9.35734 6.15719 9.4294 6.16749 9.44999C6.17778 9.47057 6.17778 9.50146 6.22925 9.52204C6.24984 9.52204 6.3219 9.52204 6.36308 9.48087C6.39396 9.46028 6.41455 9.4191 6.41455 9.38822C6.41455 9.26469 6.30131 9.27499 6.31161 9.31616C6.31161 9.32646 6.33219 9.32646 6.3219 9.34704C6.31161 9.35734 6.29102 9.36763 6.27043 9.35734C6.24984 9.35734 6.19837 9.28528 6.30131 9.2441C6.39396 9.21322 6.50719 9.29557 6.48661 9.4191C6.46602 9.54263 6.30131 9.5941 6.21896 9.57351H6.20866C6.20866 9.58381 6.20866 9.61469 6.19837 9.64557C6.17778 9.66616 6.09543 9.90293 6.23955 10.15C6.23955 10.15 6.27043 10.1912 6.34249 10.1912C6.41455 10.1912 6.4969 10.0882 6.44543 10.0162C6.43513 10.0059 6.43513 10.0059 6.43513 10.0162C6.43513 10.0162 6.43513 10.0573 6.39396 10.0367C6.33219 10.0162 6.34249 9.93381 6.41455 9.91322C6.48661 9.89263 6.56896 9.92351 6.53808 10.0676C6.50719 10.2117 6.36308 10.2632 6.33219 10.2529C6.31161 10.2529 6.31161 10.2529 6.31161 10.2632C6.31161 10.2632 6.35278 10.3867 6.33219 10.4485C6.33219 10.4485 6.3219 10.4691 6.35278 10.4485C6.35278 10.4485 6.45572 10.397 6.53808 10.3662C6.61013 10.3353 6.81602 10.2838 6.97043 10.0882C7.12484 9.88234 7.1969 9.58381 6.98072 9.2544C6.94984 9.20293 6.91896 9.11028 6.72337 9.03822C6.72337 9.03822 6.68219 9.02793 6.71308 9.00734C6.71308 9.00734 6.72337 8.99704 6.76455 9.00734C6.76455 9.00734 6.97043 9.03822 7.09396 9.31616C7.20719 9.5941 7.25866 9.71763 7.41308 9.79999C7.57778 9.88234 7.88661 9.98528 7.93808 10.0985C7.93808 10.0985 7.95866 10.1294 7.96896 10.0882C7.97925 10.047 7.97925 9.99557 7.93808 9.91322C7.90719 9.83087 7.90719 9.81028 7.93808 9.81028C7.97925 9.81028 7.97925 9.81028 7.97925 9.78969C7.97925 9.7691 7.94837 9.52204 7.50572 9.52204C7.50572 9.52204 7.46455 9.53234 7.47484 9.50146C7.48513 9.48087 7.51602 9.48087 7.55719 9.48087C7.60866 9.48087 7.83513 9.50146 7.90719 9.56322C7.90719 9.56322 7.93808 9.58381 7.91749 9.54263C7.8969 9.49116 7.78366 9.29557 7.41308 9.21322C7.04249 9.13087 7.04249 8.87351 7.04249 8.87351C7.04249 8.87351 7.05278 8.83234 7.08366 8.8941C7.1969 9.15146 7.61896 9.19263 7.63955 9.20293C7.67043 9.20293 7.71161 9.23381 7.73219 9.21322C7.78366 9.16175 7.79396 9.0691 7.76308 9.02793C7.76308 9.02793 7.76308 9.00734 7.75278 9.01763C7.74249 9.02793 7.71161 9.04851 7.70131 9.04851C7.70131 9.04851 7.70131 9.04851 7.70131 9.03822C7.69102 9.03822 7.67043 8.99704 7.67043 8.97646C7.67043 8.97646 7.63955 9.03822 7.61896 9.05881C7.61896 9.05881 7.61896 9.0691 7.60866 9.0691C7.60866 9.0691 7.43366 9.05881 7.41308 8.91469C7.39249 8.78087 7.45425 8.68822 7.60866 8.70881C7.60866 8.70881 7.63955 8.7191 7.64984 8.7294C7.66014 8.73969 7.68072 8.79116 7.68072 8.79116V8.80146L7.71161 8.76028C7.71161 8.76028 7.7219 8.74998 7.7219 8.76028L7.80425 8.78087C7.80425 8.78087 7.81455 8.79116 7.81455 8.78087C7.81455 8.78087 7.84543 8.76028 7.86602 8.69851C7.87631 8.64704 7.88661 8.57498 7.87631 8.57498C7.87631 8.57498 7.80425 8.53381 7.79396 8.52351V8.51322C7.79396 8.51322 7.81455 8.51322 7.88661 8.53381C7.88661 8.53381 7.90719 8.53381 7.8969 8.53381C7.8969 8.52351 7.8969 8.52351 7.8969 8.52351C7.8969 8.52351 7.86602 8.47204 7.78366 8.44116C7.68072 8.39998 7.64984 8.38969 7.59837 8.39998C7.59837 8.39998 7.58808 8.39998 7.57778 8.39998C7.57778 8.39998 7.5469 8.52351 7.43366 8.53381C7.43366 8.53381 7.40278 8.53381 7.36161 8.50293C7.32043 8.47204 7.31013 8.47204 7.23808 8.46175C7.17631 8.45146 7.0219 8.42057 6.94984 8.30734C6.86749 8.18381 6.83661 8.13234 6.6719 8.21469C6.50719 8.29704 6.44543 8.29704 6.3219 8.18381H6.31161C6.31161 8.18381 6.3219 8.2044 6.30131 8.27646C6.29102 8.34851 6.31161 8.38969 6.33219 8.41028C6.34249 8.44116 6.34249 8.50293 6.43513 8.53381C6.51749 8.56469 6.55866 8.51322 6.64102 8.56469H6.65131C6.65131 8.56469 6.66161 8.57498 6.65131 8.57498C6.64102 8.57498 6.63072 8.57498 6.63072 8.57498C6.63072 8.57498 6.59984 8.5544 6.56896 8.5544C6.53808 8.56469 6.4969 8.57498 6.47631 8.57498C6.45572 8.57498 6.37337 8.57498 6.34249 8.52351C6.34249 8.52351 6.34249 8.52351 6.34249 8.53381C6.34249 8.53381 6.33219 8.59557 6.24984 8.70881C6.17778 8.82204 6.24984 8.94557 6.42484 9.08969C6.59984 9.23381 6.80572 9.39851 6.83661 9.55293C6.86749 9.69704 6.76455 9.84116 6.65131 9.85146C6.52778 9.86175 6.46602 9.73822 6.54837 9.69704C6.65131 9.64557 6.65131 9.81028 6.57925 9.7691ZM16.5028 12.3838L16.6778 11.7353H16.6881L16.8631 12.3838H16.5028ZM16.5337 11.5603L16.1013 12.8779H16.3587L16.4513 12.5485H16.9043L16.9969 12.8779H17.2543L16.8528 11.5603H16.5337ZM15.8234 12.5382H15.8131L15.3704 11.5603H15.0719V12.8779H15.3087V11.8691L15.7513 12.8779H16.0498V11.5603H15.8234V12.5382ZM14.4131 12.7441C14.2587 12.7441 14.1454 12.6618 14.1454 12.2088C14.1454 11.7662 14.2587 11.6941 14.4131 11.6941C14.5572 11.6941 14.6704 11.7662 14.6704 12.2088C14.6704 12.6618 14.5572 12.7441 14.4131 12.7441ZM14.4131 11.5397C14.0528 11.5397 13.8984 11.7456 13.8984 12.2191C13.8984 12.6926 14.0528 12.8985 14.4131 12.8985C14.7631 12.8985 14.9175 12.6926 14.9175 12.2191C14.9175 11.7456 14.7631 11.5397 14.4131 11.5397ZM22.9572 11.5603H22.6896L22.2263 12.1368H22.216V11.5603H21.9793V12.8779H22.216V12.4456L22.3601 12.2809L22.7307 12.8779H23.0087L22.5146 12.1162L22.9572 11.5603ZM13.5072 12.8779H13.7543V11.5603H13.5072V12.8779ZM17.5425 11.5603H17.2954V12.8779H18.1396V12.7029H17.5425V11.5603ZM20.0131 12.3838L20.1984 11.7353H20.2087L20.3837 12.3838H20.0131ZM20.0543 11.5603L19.6116 12.8779H19.869L19.9719 12.5485H20.4248L20.5175 12.8779H20.7748L20.3734 11.5603H20.0543ZM21.5675 12.5382L21.1146 11.5603H20.816V12.8779H21.0528V11.8691L21.5057 12.8779H21.8043V11.5603H21.5675V12.5382ZM19.1587 12.7132H18.9116V12.2603H19.1484C19.2822 12.2603 19.3851 12.3426 19.3851 12.4868C19.3851 12.6412 19.3028 12.7132 19.1587 12.7132ZM18.9116 11.7147H19.0866C19.2307 11.7147 19.3337 11.7456 19.3337 11.9103C19.3337 12.0338 19.2616 12.1162 19.1072 12.1162H18.9116V11.7147ZM19.3543 12.1779C19.5087 12.1368 19.5807 12.0441 19.5807 11.8794C19.5807 11.6426 19.3954 11.5603 19.169 11.5603H18.6645V12.8779H19.1587C19.4469 12.8779 19.6322 12.7338 19.6322 12.5176C19.6322 12.2912 19.519 12.2088 19.3543 12.1779ZM11.9116 12.3838L12.0866 11.7353H12.0969L12.2719 12.3838H11.9116ZM11.9425 11.5603L11.5101 12.8779H11.7675L11.8601 12.5485H12.3131L12.4057 12.8779H12.6631L12.2616 11.5603H11.9425ZM12.4778 11.7353H12.8381V12.8779H13.0851V11.7353H13.4454V11.5603H12.4778V11.7353ZM11.2322 12.5382H11.2219L10.7793 11.5603H10.4807V12.8779H10.7175V11.8691L11.1601 12.8779H11.4587V11.5603H11.2322V12.5382ZM22.144 7.8441V9.83087C22.144 10.2529 21.9896 10.4691 21.5675 10.4691C21.1454 10.4691 20.991 10.2529 20.991 9.83087V7.8441H20.1366V9.7794C20.1366 10.7367 20.569 11.2103 21.5675 11.2103C22.566 11.2103 23.0087 10.7367 23.0087 9.7794V7.8441H22.144ZM15.1851 8.51322C15.741 8.51322 15.9469 8.99704 15.9469 9.49116C15.9469 9.98528 15.741 10.4691 15.1851 10.4691C14.6293 10.4691 14.4131 9.98528 14.4131 9.49116C14.4131 8.99704 14.6293 8.51322 15.1851 8.51322ZM15.1851 11.2103C16.2248 11.2103 16.8116 10.4485 16.8116 9.49116C16.8116 8.53381 16.2248 7.77204 15.1851 7.77204C14.1454 7.77204 13.5587 8.53381 13.5587 9.49116C13.5587 10.4485 14.1454 11.2103 15.1851 11.2103ZM18.5925 10.4485H17.9028V9.69704H18.5925C18.8601 9.69704 19.0557 9.78969 19.0557 10.0779C19.0557 10.3559 18.8704 10.4485 18.5925 10.4485ZM17.9028 8.50293H18.5719C18.7572 8.50293 18.9219 8.58528 18.9219 8.82204C18.9219 9.05881 18.7263 9.14116 18.5719 9.14116H17.9028V8.50293ZM19.9204 10.1191C19.9204 9.73822 19.7043 9.43969 19.3543 9.33675C19.6116 9.20293 19.7866 8.96616 19.7866 8.66763C19.7866 7.97793 19.1587 7.83381 18.5925 7.8441H17.0484V11.1382H18.6337C19.344 11.1382 19.9204 10.9015 19.9204 10.1191ZM11.2837 9.0794H11.294L12.4469 11.1382H13.3219V7.8441H12.519V9.87204H12.5087L11.3557 7.8441H10.4807V11.1382H11.2837V9.0794Z" fill="#E20613"/>
</g>
<defs>
<clipPath id="clip0_301_3307">
<rect width="19.0144" height="7" fill="white" transform="translate(4 7)"/>
</clipPath>
</defs>
</svg>
