<svg width="46" height="32" viewBox="0 0 46 32" fill="none" xmlns="http://www.w3.org/2000/svg">
<path d="M19.694 12.9245L16.2193 11.5968C16.4193 10.7655 16.7627 9.99044 17.2186 9.29554L20.3253 11.2264C19.9844 11.7182 19.7606 12.2975 19.694 12.9245ZM23.8423 14.5091L20.1015 13.0792C20.2091 12.5021 20.4512 11.9689 20.7966 11.5175L23.8423 13.4133V14.5091ZM23.8423 13.2685L20.9465 11.3352C21.3096 10.9207 21.7642 10.5911 22.2788 10.3728L23.8423 11.9705V13.2685ZM16.4254 15.7238C16.1622 14.9689 16.0177 14.1582 16.0177 13.3127C16.0177 12.842 16.0621 12.3829 16.1466 11.9388L19.6761 13.1791L19.6745 13.3109C19.6745 14.1788 19.9769 14.9768 20.4829 15.6042C20.2227 15.0422 20.0415 14.4133 20.0415 13.7435C20.0415 13.5988 20.0501 13.4561 20.0673 13.3156L23.8423 14.6413V15.7238H16.4254ZM16.6943 16.3881C16.63 16.2499 16.5702 16.1081 16.5144 15.967H18.6938L19.0972 16.3926H22.3583L21.6432 17.1471H17.6284C17.502 16.7364 17.1364 16.4255 16.6943 16.3881ZM24.9909 16.5686C25.2507 16.4345 25.4912 16.2717 25.7091 16.0844C25.852 15.965 25.985 15.8354 26.1068 15.6905C26.655 15.0493 26.9863 14.2196 26.9863 13.3109C26.9863 11.2921 25.349 9.65499 23.3302 9.65499C22.9071 9.65499 22.4994 9.72634 22.1225 9.85839L19.571 7.03918C20.6691 6.37916 21.9549 6.00001 23.3302 6.00001C27.3682 6.00001 30.6411 9.27289 30.6411 13.3127C30.6411 17.3509 27.3682 20.6227 23.3302 20.6227C21.3212 20.6227 19.5022 19.8139 18.1806 18.5027H27.1487L17.7486 18.0359L27.6821 17.9729L17.2868 17.4316L21.2797 17.3697C21.2797 17.3697 23.3746 17.4334 24.9909 16.5686ZM20.4784 11.0219L17.4329 8.98841C17.9282 8.31322 18.5357 7.72773 19.2288 7.25797L21.8711 9.95827C21.3246 10.1961 20.8476 10.5642 20.4784 11.0219Z" fill="#D10A10"/>
<path d="M14.389 26C13.4555 26 13 25.462 13 24.5853C13 23.6755 13.6743 23.1003 14.4962 23.1003C15.2911 23.1003 15.8851 23.5264 15.8851 24.5066C15.8851 25.4247 15.2241 26 14.389 26ZM14.4423 23.6878C14.0809 23.6878 13.7371 23.948 13.7371 24.5317C13.7371 25.0692 13.9516 25.4086 14.4293 25.4086C14.7596 25.4086 15.148 25.1813 15.148 24.5483C15.148 23.9855 14.9026 23.6878 14.4423 23.6878Z" fill="#D10A10"/>
<path d="M17.5783 25.9834C16.4659 25.9834 16.1668 25.2846 16.1668 24.6517C16.1668 23.7456 16.6983 23.1337 17.6942 23.1337C17.9042 23.1337 18.1226 23.1584 18.3108 23.204L18.2301 23.7871C18.0602 23.7415 17.8685 23.7129 17.6809 23.7129C17.1942 23.7129 16.9304 24.0395 16.9304 24.544C16.9304 25.094 17.1718 25.3962 17.7168 25.3962C17.8732 25.3962 18.1005 25.3589 18.2435 25.297L18.3242 25.8719C18.1052 25.9424 17.8373 25.9834 17.5783 25.9834Z" fill="#D10A10"/>
<path d="M19.7352 25.9547C19.5569 25.9547 19.2216 25.9457 18.784 25.9457V23.1583C19.0607 23.146 19.5122 23.1376 19.8828 23.1376C20.539 23.1376 20.9277 23.3733 20.9277 23.8408C20.9277 24.1014 20.749 24.3373 20.4899 24.4446V24.4572C20.7984 24.5317 20.9767 24.7961 20.9767 25.0735C20.9767 25.5202 20.6241 25.9547 19.7352 25.9547ZM19.771 23.6544C19.664 23.6544 19.5655 23.6586 19.4809 23.6627V24.275C19.5388 24.2792 19.6059 24.2792 19.6862 24.2792C20.0256 24.2792 20.1908 24.1511 20.1908 23.94C20.1908 23.7618 20.0615 23.6544 19.771 23.6544ZM19.7131 24.7549C19.6771 24.7549 19.5342 24.7549 19.4809 24.759V25.4169C19.5388 25.4247 19.6416 25.4293 19.7486 25.4293C20.057 25.4293 20.2311 25.2969 20.2311 25.0816C20.2311 24.8663 20.0389 24.7549 19.7131 24.7549Z" fill="#D10A10"/>
<path d="M22.6922 25.9834C21.5804 25.9834 21.2812 25.2846 21.2812 24.6517C21.2812 23.7456 21.8125 23.1337 22.8084 23.1337C23.0183 23.1337 23.2372 23.1584 23.4245 23.204L23.3445 23.7871C23.1747 23.7415 22.9826 23.7129 22.7953 23.7129C22.3081 23.7129 22.0448 24.0395 22.0448 24.544C22.0448 25.094 22.2858 25.3962 22.8305 25.3962C22.9873 25.3962 23.215 25.3589 23.3577 25.297L23.4383 25.8719C23.2194 25.9424 22.9514 25.9834 22.6922 25.9834Z" fill="#D10A10"/>
<path d="M26.4891 25.9457L25.7789 24.7426C25.65 24.5277 25.5467 24.3122 25.4665 24.1305C25.4798 24.3373 25.4888 24.6186 25.4888 24.8833V25.9457H24.8188V23.1541H25.7124L26.3732 24.2587C26.5069 24.4905 26.6321 24.73 26.7395 24.9455C26.7173 24.7051 26.7083 24.3373 26.7083 24.0723V23.1541H27.3781V25.9457H26.4891Z" fill="#D10A10"/>
<path d="M27.9057 23.1542H28.6022V25.9457H27.9057V23.1542Z" fill="#D10A10"/>
<path d="M29.7277 25.9954C29.5176 25.9954 29.3031 25.9753 29.1114 25.9334L29.1471 25.3378C29.3171 25.3961 29.5627 25.4417 29.7814 25.4417C30.0353 25.4417 30.2191 25.3422 30.2191 25.1439C30.2191 24.668 29.0179 24.9125 29.0179 23.9775C29.0179 23.4519 29.4599 23.1043 30.2145 23.1043C30.3754 23.1043 30.5762 23.1209 30.7637 23.1542L30.7234 23.7128C30.5539 23.6669 30.3666 23.638 30.1874 23.638C29.8976 23.638 29.7637 23.7539 29.7637 23.9111C29.7637 24.3454 30.9647 24.1801 30.9647 25.0526C30.9647 25.5948 30.4959 25.9954 29.7277 25.9954Z" fill="#D10A10"/>
<path d="M32.2379 25.0239C32.2023 25.0239 32.14 25.0239 32.0775 25.0196V25.9457H31.3808V23.1542C31.6393 23.1418 31.9253 23.1336 32.2379 23.1336C33.0064 23.1336 33.4261 23.4558 33.4261 24.0311C33.4261 24.573 33.0064 25.0239 32.2379 25.0239ZM32.2248 23.6587C32.1759 23.6587 32.1267 23.6587 32.0775 23.6626V24.4819C32.122 24.486 32.1623 24.4905 32.1976 24.4905C32.488 24.486 32.7073 24.3329 32.7073 24.0601C32.7073 23.8243 32.5684 23.6587 32.2248 23.6587Z" fill="#D10A10"/>
</svg>
