<svg width="34" height="24" viewBox="0 0 34 24" fill="none" xmlns="http://www.w3.org/2000/svg">
<path d="M14.3552 9.53956L11.5755 8.47738C11.7354 7.81239 12.0101 7.19233 12.3749 6.63641L14.8602 8.18112C14.5875 8.5745 14.4085 9.03801 14.3552 9.53956ZM17.6738 10.8072L14.6812 9.66332C14.7673 9.20163 14.961 8.77509 15.2373 8.41396L17.6738 9.93059V10.8072ZM17.6738 9.8148L15.3572 8.2681C15.6477 7.93651 16.0114 7.67286 16.423 7.49819L17.6738 8.77636V9.8148ZM11.7403 11.779C11.5298 11.1751 11.4142 10.5265 11.4142 9.85014C11.4142 9.47361 11.4497 9.10632 11.5173 8.75099L14.3409 9.74323L14.3396 9.84869C14.3396 10.543 14.5815 11.1814 14.9863 11.6833C14.7781 11.2338 14.6332 10.7306 14.6332 10.1948C14.6332 10.079 14.6401 9.96484 14.6538 9.85249L17.6738 10.913V11.779H11.7403ZM11.9554 12.3104C11.904 12.1999 11.8561 12.0865 11.8116 11.9736H13.555L13.8778 12.3141H16.4866L15.9146 12.9176H12.7027C12.6016 12.5891 12.3091 12.3403 11.9554 12.3104ZM18.5927 12.4549C18.8005 12.3476 18.993 12.2173 19.1673 12.0675C19.2816 11.972 19.388 11.8683 19.4855 11.7524C19.924 11.2394 20.1891 10.5757 20.1891 9.84869C20.1891 8.23367 18.8792 6.92397 17.2642 6.92397C16.9257 6.92397 16.5995 6.98105 16.298 7.08669L14.2568 4.83132C15.1353 4.30331 16.1639 3.99998 17.2642 3.99998C20.4946 3.99998 23.1129 6.61829 23.1129 9.85014C23.1129 13.0807 20.4946 15.6981 17.2642 15.6981C15.6569 15.6981 14.2017 15.0511 13.1444 14.0021H20.319L12.7989 13.6287L20.7457 13.5783L12.4294 13.1452L15.6238 13.0958C15.6238 13.0958 17.2997 13.1467 18.5927 12.4549ZM14.9827 8.0175L12.5463 6.39071C12.9426 5.85056 13.4286 5.38216 13.983 5.00635L16.0969 7.1666C15.6597 7.35685 15.278 7.6513 14.9827 8.0175Z" fill="#D10A10"/>
<path d="M10.1112 20C9.3644 20 9 19.5696 9 18.8682C9 18.1404 9.53943 17.6802 10.1969 17.6802C10.8329 17.6802 11.3081 18.0211 11.3081 18.8053C11.3081 19.5397 10.7793 20 10.1112 20ZM10.1538 18.1502C9.8647 18.1502 9.58967 18.3584 9.58967 18.8254C9.58967 19.2553 9.76124 19.5269 10.1435 19.5269C10.4077 19.5269 10.7184 19.345 10.7184 18.8386C10.7184 18.3884 10.5221 18.1502 10.1538 18.1502Z" fill="#D10A10"/>
<path d="M12.6627 19.9867C11.7727 19.9867 11.5334 19.4277 11.5334 18.9213C11.5334 18.1964 11.9586 17.7069 12.7553 17.7069C12.9233 17.7069 13.0981 17.7267 13.2487 17.7632L13.1841 18.2296C13.0482 18.1932 12.8948 18.1703 12.7447 18.1703C12.3553 18.1703 12.1443 18.4316 12.1443 18.8352C12.1443 19.2752 12.3374 19.5169 12.7734 19.5169C12.8985 19.5169 13.0804 19.4871 13.1948 19.4376L13.2594 19.8975C13.0841 19.9539 12.8698 19.9867 12.6627 19.9867Z" fill="#D10A10"/>
<path d="M14.3881 19.9639C14.2455 19.9639 13.9773 19.9566 13.6272 19.9566V17.7267C13.8486 17.7169 14.2097 17.7102 14.5062 17.7102C15.0312 17.7102 15.3421 17.8988 15.3421 18.2728C15.3421 18.4812 15.1992 18.67 14.992 18.7557V18.7658C15.2387 18.8255 15.3813 19.037 15.3813 19.2589C15.3813 19.6162 15.0993 19.9639 14.3881 19.9639ZM14.4168 18.1236C14.3312 18.1236 14.2524 18.127 14.1847 18.1303V18.6201C14.2311 18.6234 14.2847 18.6234 14.3489 18.6234C14.6204 18.6234 14.7526 18.521 14.7526 18.3521C14.7526 18.2096 14.6492 18.1236 14.4168 18.1236ZM14.3705 19.004C14.3417 19.004 14.2273 19.004 14.1847 19.0073V19.5336C14.2311 19.5398 14.3133 19.5436 14.3989 19.5436C14.6456 19.5436 14.7849 19.4376 14.7849 19.2654C14.7849 19.0932 14.6311 19.004 14.3705 19.004Z" fill="#D10A10"/>
<path d="M16.7538 19.9867C15.8643 19.9867 15.6249 19.4277 15.6249 18.9213C15.6249 18.1964 16.05 17.7069 16.8467 17.7069C17.0146 17.7069 17.1897 17.7267 17.3396 17.7632L17.2756 18.2296C17.1398 18.1932 16.9861 18.1703 16.8362 18.1703C16.4464 18.1703 16.2359 18.4316 16.2359 18.8352C16.2359 19.2752 16.4286 19.5169 16.8644 19.5169C16.9898 19.5169 17.172 19.4871 17.2861 19.4376L17.3506 19.8975C17.1755 19.9539 16.9611 19.9867 16.7538 19.9867Z" fill="#D10A10"/>
<path d="M19.7913 19.9565L19.2232 18.9941C19.12 18.8221 19.0374 18.6497 18.9732 18.5044C18.9839 18.6698 18.9911 18.8949 18.9911 19.1066V19.9565H18.4551V17.7233H19.1699L19.6985 18.6069C19.8055 18.7924 19.9057 18.984 19.9916 19.1564C19.9738 18.9641 19.9667 18.6698 19.9667 18.4579V17.7233H20.5025V19.9565H19.7913Z" fill="#D10A10"/>
<path d="M20.9246 17.7234H21.4817V19.9566H20.9246V17.7234Z" fill="#D10A10"/>
<path d="M22.3822 19.9963C22.2141 19.9963 22.0425 19.9803 21.8891 19.9468L21.9177 19.4703C22.0537 19.517 22.2502 19.5534 22.4251 19.5534C22.6282 19.5534 22.7753 19.4738 22.7753 19.3152C22.7753 18.9345 21.8143 19.1301 21.8143 18.3821C21.8143 17.9615 22.168 17.6835 22.7716 17.6835C22.9004 17.6835 23.061 17.6967 23.211 17.7234L23.1788 18.1703C23.0432 18.1336 22.8933 18.1105 22.75 18.1105C22.5181 18.1105 22.411 18.2032 22.411 18.3289C22.411 18.6763 23.3718 18.5441 23.3718 19.2421C23.3718 19.6759 22.9968 19.9963 22.3822 19.9963Z" fill="#D10A10"/>
<path d="M24.3903 19.2191C24.3618 19.2191 24.312 19.2191 24.262 19.2157V19.9565H23.7047V17.7233C23.9115 17.7135 24.1403 17.7069 24.3903 17.7069C25.0051 17.7069 25.3409 17.9647 25.3409 18.4249C25.3409 18.8584 25.0051 19.2191 24.3903 19.2191ZM24.3798 18.1269C24.3408 18.1269 24.3014 18.1269 24.262 18.1301V18.7855C24.2976 18.7888 24.3299 18.7924 24.3581 18.7924C24.5904 18.7888 24.7658 18.6663 24.7658 18.4481C24.7658 18.2594 24.6547 18.1269 24.3798 18.1269Z" fill="#D10A10"/>
</svg>
