<svg width="58" height="40" viewBox="0 0 58 40" fill="none" xmlns="http://www.w3.org/2000/svg">
<path d="M25.0328 16.3094L20.8632 14.7161C21.1032 13.7186 21.5152 12.7886 22.0623 11.9547L25.7903 14.2717C25.3813 14.8618 25.1127 15.5571 25.0328 16.3094ZM30.0108 18.2109L25.5218 16.495C25.6509 15.8025 25.9414 15.1627 26.3559 14.621L30.0108 16.8959V18.2109ZM30.0108 16.7223L26.5359 14.4022C26.9715 13.9048 27.517 13.5094 28.1346 13.2473L30.0108 15.1646V16.7223ZM21.1105 19.6685C20.7947 18.7626 20.6213 17.7899 20.6213 16.7753C20.6213 16.2105 20.6745 15.6595 20.7759 15.1265L25.0113 16.6149L25.0094 16.7731C25.0094 17.8146 25.3723 18.7722 25.9795 19.525C25.6672 18.8507 25.4497 18.0959 25.4497 17.2922C25.4497 17.1185 25.4601 16.9473 25.4807 16.7788L30.0108 18.3696V19.6685H21.1105ZM21.4331 20.4657C21.3559 20.2999 21.2842 20.1298 21.2173 19.9605H23.8326L24.3166 20.4712H28.23L27.3719 21.3765H22.554C22.4024 20.8837 21.9637 20.5106 21.4331 20.4657ZM31.3891 20.6823C31.7008 20.5214 31.9895 20.326 32.2509 20.1012C32.4224 19.958 32.582 19.8025 32.7282 19.6286C33.3859 18.8591 33.7836 17.8635 33.7836 16.7731C33.7836 14.3506 31.8188 12.386 29.3962 12.386C28.8885 12.386 28.3993 12.4716 27.947 12.6301L24.8852 9.24704C26.2029 8.45502 27.7459 8.00003 29.3962 8.00003C34.2418 8.00003 38.1693 11.9275 38.1693 16.7753C38.1693 21.6211 34.2418 25.5472 29.3962 25.5472C26.9854 25.5472 24.8026 24.5767 23.2167 23.0032H33.9785L22.6983 22.443L34.6185 22.3675L22.1442 21.7179L26.9357 21.6437C26.9357 21.6437 29.4495 21.7201 31.3891 20.6823ZM25.974 14.0263L22.3195 11.5861C22.9139 10.7759 23.6428 10.0733 24.4745 9.50959L27.6453 12.75C26.9895 13.0353 26.4171 13.477 25.974 14.0263Z" fill="#D10A10"/>
<path d="M18.6668 32C17.5466 32 17 31.3544 17 30.3023C17 29.2106 17.8091 28.5204 18.7954 28.5204C19.7494 28.5204 20.4621 29.0317 20.4621 30.2079C20.4621 31.3096 19.6689 32 18.6668 32ZM18.7307 29.2254C18.297 29.2254 17.8845 29.5376 17.8845 30.238C17.8845 30.883 18.1419 31.2903 18.7152 31.2903C19.1116 31.2903 19.5776 31.0176 19.5776 30.2579C19.5776 29.5826 19.2831 29.2254 18.7307 29.2254Z" fill="#D10A10"/>
<path d="M22.494 31.98C21.1591 31.98 20.8002 31.1414 20.8002 30.3819C20.8002 29.2946 21.438 28.5603 22.6331 28.5603C22.885 28.5603 23.1472 28.59 23.373 28.6448L23.2761 29.3444C23.0723 29.2897 22.8423 29.2553 22.6171 29.2553C22.033 29.2553 21.7166 29.6473 21.7166 30.2527C21.7166 30.9128 22.0062 31.2753 22.6602 31.2753C22.8479 31.2753 23.1207 31.2306 23.2922 31.1563L23.3891 31.8461C23.1262 31.9308 22.8048 31.98 22.494 31.98Z" fill="#D10A10"/>
<path d="M25.0822 31.9457C24.8683 31.9457 24.466 31.9348 23.9408 31.9348V28.59C24.2729 28.5753 24.8146 28.5651 25.2594 28.5651C26.0469 28.5651 26.5133 28.848 26.5133 29.409C26.5133 29.7217 26.2989 30.0048 25.988 30.1335V30.1486C26.3581 30.2381 26.5721 30.5554 26.5721 30.8882C26.5721 31.4242 26.149 31.9457 25.0822 31.9457ZM25.1252 29.1853C24.9968 29.1853 24.8786 29.1904 24.7771 29.1953V29.9301C24.8466 29.935 24.9271 29.935 25.0234 29.935C25.4307 29.935 25.629 29.7813 25.629 29.528C25.629 29.3142 25.4739 29.1853 25.1252 29.1853ZM25.0557 30.5059C25.0126 30.5059 24.841 30.5059 24.7771 30.5108V31.3003C24.8466 31.3096 24.9699 31.3152 25.0984 31.3152C25.4685 31.3152 25.6774 31.1563 25.6774 30.8979C25.6774 30.6396 25.4468 30.5059 25.0557 30.5059Z" fill="#D10A10"/>
<path d="M28.6306 31.98C27.2964 31.98 26.9374 31.1414 26.9374 30.3819C26.9374 29.2946 27.575 28.5603 28.7701 28.5603C29.0219 28.5603 29.2846 28.59 29.5093 28.6448L29.4134 29.3444C29.2096 29.2897 28.9791 29.2553 28.7543 29.2553C28.1696 29.2553 27.8538 29.6473 27.8538 30.2527C27.8538 30.9128 28.1429 31.2753 28.7966 31.2753C28.9847 31.2753 29.258 31.2306 29.4292 31.1563L29.5259 31.8461C29.2632 31.9308 28.9416 31.98 28.6306 31.98Z" fill="#D10A10"/>
<path d="M33.1869 31.9348L32.3347 30.4912C32.18 30.2332 32.056 29.9746 31.9598 29.7566C31.9758 30.0047 31.9866 30.3423 31.9866 30.6599V31.9348H31.1826V28.5849H32.2549L33.0478 29.9104C33.2083 30.1886 33.3585 30.476 33.4874 30.7346C33.4608 30.4461 33.45 30.0047 33.45 29.6868V28.5849H34.2538V31.9348H33.1869Z" fill="#D10A10"/>
<path d="M34.8868 28.585H35.7226V31.9348H34.8868V28.585Z" fill="#D10A10"/>
<path d="M37.0733 31.9944C36.8212 31.9944 36.5637 31.9704 36.3337 31.9201L36.3766 31.2053C36.5805 31.2753 36.8752 31.33 37.1377 31.33C37.4424 31.33 37.663 31.2106 37.663 30.9726C37.663 30.4016 36.2215 30.695 36.2215 29.573C36.2215 28.9422 36.752 28.5251 37.6575 28.5251C37.8505 28.5251 38.0914 28.545 38.3165 28.5849L38.2682 29.2553C38.0647 29.2003 37.84 29.1656 37.625 29.1656C37.2771 29.1656 37.1165 29.3046 37.1165 29.4933C37.1165 30.0144 38.5577 29.816 38.5577 30.8631C38.5577 31.5137 37.9952 31.9944 37.0733 31.9944Z" fill="#D10A10"/>
<path d="M40.0855 30.8287C40.0428 30.8287 39.968 30.8287 39.8931 30.8235V31.9348H39.057V28.585C39.3673 28.5702 39.7104 28.5604 40.0855 28.5604C41.0077 28.5604 41.5113 28.947 41.5113 29.6373C41.5113 30.2876 41.0077 30.8287 40.0855 30.8287ZM40.0698 29.1904C40.0112 29.1904 39.9521 29.1904 39.8931 29.1952V30.1782C39.9465 30.1832 39.9948 30.1886 40.0372 30.1886C40.3856 30.1832 40.6488 29.9994 40.6488 29.6721C40.6488 29.3892 40.4821 29.1904 40.0698 29.1904Z" fill="#D10A10"/>
</svg>
