<svg width="28" height="20" viewBox="0 0 28 20" fill="none" xmlns="http://www.w3.org/2000/svg">
<path d="M12.0164 8.15464L9.93159 7.35801C10.0516 6.85926 10.2576 6.39421 10.5312 5.97728L12.3952 7.13581C12.1906 7.43085 12.0564 7.77848 12.0164 8.15464ZM14.5054 9.10539L12.2609 8.24746C12.3254 7.90119 12.4707 7.58129 12.678 7.31044L14.5054 8.44791V9.10539ZM14.5054 8.36107L12.7679 7.20104C12.9858 6.95235 13.2585 6.75462 13.5673 6.62361L14.5054 7.58224V8.36107ZM10.0553 9.83421C9.89734 9.38126 9.81064 8.89488 9.81064 8.38757C9.81064 8.10518 9.83727 7.82971 9.88796 7.56321L12.0057 8.30739L12.0047 8.38649C12.0047 8.90725 12.1861 9.38602 12.4897 9.76246C12.3336 9.42529 12.2249 9.0479 12.2249 8.64605C12.2249 8.55921 12.23 8.4736 12.2404 8.38934L14.5054 9.18475V9.83421H10.0553ZM10.2166 10.2328C10.178 10.1499 10.1421 10.0648 10.1087 9.98017H11.4163L11.6583 10.2355H13.615L13.1859 10.6882H10.777C10.7012 10.4418 10.4818 10.2552 10.2166 10.2328ZM15.1945 10.3411C15.3504 10.2607 15.4947 10.163 15.6255 10.0506C15.7112 9.97894 15.791 9.90121 15.8641 9.81423C16.193 9.42951 16.3918 8.93171 16.3918 8.38649C16.3918 7.17522 15.4094 6.19295 14.1981 6.19295C13.9443 6.19295 13.6996 6.23576 13.4735 6.31499L11.9426 4.62346C12.6014 4.22745 13.3729 3.99996 14.1981 3.99996C16.6209 3.99996 18.5847 5.96369 18.5847 8.38757C18.5847 10.8105 16.6209 12.7736 14.1981 12.7736C12.9927 12.7736 11.9013 12.2883 11.1083 11.5016H16.4892L10.8492 11.2215L16.8093 11.1837L10.5721 10.8589L12.9678 10.8218C12.9678 10.8218 14.2248 10.86 15.1945 10.3411ZM12.487 7.0131L10.6597 5.793C10.9569 5.38789 11.3214 5.03659 11.7373 4.75474L13.3227 6.37492C12.9947 6.51761 12.7085 6.73844 12.487 7.0131Z" fill="#D10A10"/>
<path d="M8.83342 16C8.2733 16 8 15.6772 8 15.1512C8 14.6053 8.40457 14.2602 8.8977 14.2602C9.37469 14.2602 9.73107 14.5158 9.73107 15.104C9.73107 15.6548 9.33447 16 8.83342 16ZM8.86535 14.6127C8.64852 14.6127 8.44225 14.7688 8.44225 15.119C8.44225 15.4415 8.57093 15.6452 8.85759 15.6452C9.05579 15.6452 9.28882 15.5088 9.28882 15.129C9.28882 14.7913 9.14155 14.6127 8.86535 14.6127Z" fill="#D10A10"/>
<path d="M10.747 15.99C10.0795 15.99 9.90009 15.5707 9.90009 15.1909C9.90009 14.6473 10.219 14.2801 10.8165 14.2801C10.9425 14.2801 11.0736 14.295 11.1865 14.3224L11.1381 14.6722C11.0362 14.6449 10.9211 14.6277 10.8086 14.6277C10.5165 14.6277 10.3583 14.8236 10.3583 15.1263C10.3583 15.4564 10.5031 15.6376 10.8301 15.6376C10.9239 15.6376 11.0603 15.6153 11.1461 15.5782L11.1945 15.9231C11.0631 15.9654 10.9024 15.99 10.747 15.99Z" fill="#D10A10"/>
<path d="M12.0411 15.9728C11.9341 15.9728 11.733 15.9673 11.4704 15.9673V14.2949C11.6364 14.2876 11.9073 14.2825 12.1297 14.2825C12.5234 14.2825 12.7566 14.424 12.7566 14.7045C12.7566 14.8608 12.6494 15.0023 12.494 15.0667V15.0742C12.679 15.119 12.786 15.2776 12.786 15.444C12.786 15.7121 12.5744 15.9728 12.0411 15.9728ZM12.0626 14.5926C11.9984 14.5926 11.9393 14.5951 11.8885 14.5976V14.965C11.9233 14.9675 11.9635 14.9675 12.0117 14.9675C12.2153 14.9675 12.3144 14.8906 12.3144 14.7639C12.3144 14.657 12.2369 14.5926 12.0626 14.5926ZM12.0278 15.2529C12.0063 15.2529 11.9205 15.2529 11.8885 15.2554V15.6501C11.9233 15.6548 11.9849 15.6575 12.0492 15.6575C12.2342 15.6575 12.3387 15.5781 12.3387 15.4489C12.3387 15.3198 12.2233 15.2529 12.0278 15.2529Z" fill="#D10A10"/>
<path d="M13.8153 15.99C13.1482 15.99 12.9687 15.5707 12.9687 15.1909C12.9687 14.6473 13.2875 14.2801 13.885 14.2801C14.011 14.2801 14.1423 14.295 14.2547 14.3224L14.2067 14.6722C14.1048 14.6449 13.9895 14.6277 13.8772 14.6277C13.5848 14.6277 13.4269 14.8236 13.4269 15.1263C13.4269 15.4564 13.5715 15.6376 13.8983 15.6376C13.9923 15.6376 14.129 15.6153 14.2146 15.5782L14.2629 15.9231C14.1316 15.9654 13.9708 15.99 13.8153 15.99Z" fill="#D10A10"/>
<path d="M16.0935 15.9673L15.6674 15.2455C15.59 15.1165 15.528 14.9872 15.4799 14.8782C15.4879 15.0022 15.4933 15.171 15.4933 15.3298V15.9673H15.0913V14.2923H15.6275L16.0239 14.9551C16.1041 15.0942 16.1792 15.2379 16.2437 15.3672C16.2304 15.223 16.225 15.0022 16.225 14.8433V14.2923H16.6269V15.9673H16.0935Z" fill="#D10A10"/>
<path d="M16.9434 14.2925H17.3613V15.9674H16.9434V14.2925Z" fill="#D10A10"/>
<path d="M18.0366 15.9972C17.9106 15.9972 17.7819 15.9852 17.6669 15.96L17.6883 15.6027C17.7903 15.6377 17.9376 15.665 18.0688 15.665C18.2212 15.665 18.3315 15.6053 18.3315 15.4863C18.3315 15.2008 17.6107 15.3475 17.6107 14.7865C17.6107 14.4711 17.876 14.2626 18.3287 14.2626C18.4253 14.2626 18.5457 14.2725 18.6583 14.2925L18.6341 14.6276C18.5324 14.6001 18.42 14.5828 18.3125 14.5828C18.1386 14.5828 18.0582 14.6523 18.0582 14.7466C18.0582 15.0072 18.7789 14.908 18.7789 15.4315C18.7789 15.7569 18.4976 15.9972 18.0366 15.9972Z" fill="#D10A10"/>
<path d="M19.5428 15.4142C19.5214 15.4142 19.484 15.4142 19.4465 15.4116V15.9673H19.0285V14.2924C19.1836 14.285 19.3552 14.2801 19.5428 14.2801C20.0039 14.2801 20.2557 14.4734 20.2557 14.8185C20.2557 15.1437 20.0039 15.4142 19.5428 15.4142ZM19.5349 14.5951C19.5056 14.5951 19.476 14.5951 19.4465 14.5975V15.089C19.4732 15.0915 19.4974 15.0942 19.5186 15.0942C19.6928 15.0915 19.8244 14.9996 19.8244 14.8359C19.8244 14.6945 19.7411 14.5951 19.5349 14.5951Z" fill="#D10A10"/>
</svg>
