<svg width="28" height="20" viewBox="0 0 28 20" fill="none" xmlns="http://www.w3.org/2000/svg">
<g clip-path="url(#clip0_301_5838)">
<path d="M8.05085 8.49036V12.8213C8.0275 13.1802 7.92536 13.5771 7.50803 13.5771C7.31833 13.5771 7.2337 13.5333 7.19284 13.4575C7.53721 12.9438 7.7415 12.3135 7.7415 11.6276C7.7415 11.222 7.66854 10.8338 7.53721 10.4778C7.51386 10.4165 7.49052 10.3581 7.46425 10.2998C7.00898 9.25206 6.03715 8.52538 4.90482 8.52538C3.34056 8.52538 2.07105 9.91162 2.07105 11.6247C2.07105 13.3378 3.34056 14.7241 4.90482 14.7241C5.38927 14.7241 5.84746 14.5898 6.24728 14.3563C6.57706 14.5927 6.97396 14.7328 7.40296 14.7328C8.35728 14.7328 9.15692 14.047 9.37872 13.1248V8.49036H8.04209H8.05085ZM5.55854 13.4983C5.36009 13.6121 5.14121 13.6793 4.91065 13.6793C4.0293 13.6793 3.31721 12.7541 3.31721 11.613C3.31721 10.4719 4.03222 9.54682 4.91065 9.54682C5.56146 9.54682 6.11887 10.0517 6.36693 10.7725C6.45448 11.0294 6.5041 11.3124 6.5041 11.613C6.5041 12.4535 6.11595 13.1773 5.55854 13.4983Z" fill="url(#paint0_radial_301_5838)"/>
<path d="M9.7727 10.8601V12.7425L10.5899 11.9837L12.4489 14.7474H14.2904L11.6726 10.8018L13.9256 8.40283H11.8769L9.7727 10.8601Z" fill="url(#paint1_radial_301_5838)"/>
<path d="M13.9956 8.46111C13.6396 8.49613 13.2164 8.50197 12.7174 8.44944C12.6882 8.44944 12.6619 8.44944 12.6357 8.4436C10.5986 7.84533 9.96532 6.98732 8.67247 5.99506C7.29207 4.93277 3.9826 4.21484 1 6.56999C1 6.56999 2.02144 7.1595 2.48838 8.1576C2.49714 8.17511 2.50589 8.19262 2.51465 8.21013C2.97576 9.24032 3.04872 10.1275 3.04872 10.1275C3.04872 10.1275 4.74139 8.19262 6.83388 8.11674C8.59951 8.05253 10.6482 8.73836 12.2738 8.9193C12.5744 8.9514 12.8604 8.96891 13.1289 8.96016C14.8361 8.89887 15.4898 7.91829 15.4898 7.91829C15.4898 7.91829 15.0696 8.35313 14.0015 8.46111H13.9956Z" fill="#313132"/>
<path d="M7.4409 6.7948C9.94197 7.46019 10.5986 8.32987 12.6327 8.31528C12.6678 8.31528 12.6969 8.31236 12.729 8.31236C12.6999 8.31236 12.6736 8.31236 12.6473 8.30653C10.619 7.74036 9.99158 6.92904 8.70457 5.98932C7.33292 4.98539 4.18689 4.27622 1.2218 6.50587C1.2218 6.50587 2.09148 7.09247 2.55551 8.03511C2.64014 7.93881 2.72185 7.85126 2.80649 7.76662C4.42912 6.08854 5.9817 6.40665 7.44382 6.7948H7.4409Z" fill="url(#paint2_linear_301_5838)"/>
<path d="M13.9985 8.32403C13.6454 8.35905 13.2222 8.36197 12.7261 8.31236C12.6911 8.31236 12.6619 8.31527 12.6298 8.31527C10.5986 8.32987 9.4867 7.20628 7.59558 6.59634C6.15681 6.13231 4.42328 6.08562 2.80065 7.7637C2.71602 7.84833 2.6343 7.93588 2.54967 8.03219C2.55842 8.0497 2.56718 8.06429 2.57593 8.0818C3.03412 9.05655 3.10708 9.89705 3.10708 9.89705C3.10708 9.89705 4.791 8.06721 6.87182 7.99133C8.62869 7.93005 10.6657 8.58085 12.2825 8.75012C12.5802 8.78222 12.8662 8.79973 13.1318 8.78805C14.8303 8.72969 15.5074 7.84249 15.5074 7.84249C15.5074 7.84249 15.0608 8.21313 13.9985 8.31819V8.32403Z" fill="url(#paint3_linear_301_5838)"/>
<path d="M15.8459 8.40869H15.5686V14.6687H15.8459V8.40869Z" fill="#660812"/>
<path d="M18.2565 9.33091C18.2565 9.4243 18.239 9.51477 18.204 9.59648C18.1689 9.68112 18.1164 9.75408 18.0493 9.8212C17.9822 9.88832 17.9034 9.93794 17.8187 9.97296C17.7341 10.008 17.6436 10.0255 17.5473 10.0255C17.451 10.0255 17.3605 10.008 17.2759 9.97296C17.1884 9.93794 17.1125 9.88832 17.0453 9.8212C16.9782 9.75408 16.9257 9.68112 16.8907 9.59648C16.8557 9.51185 16.8381 9.4243 16.8381 9.32799C16.8381 9.23168 16.8557 9.14413 16.8907 9.0595C16.9257 8.97486 16.9753 8.9019 17.0453 8.83478C17.1125 8.76766 17.1884 8.71805 17.2759 8.68302C17.3605 8.648 17.4539 8.63049 17.5473 8.63049C17.6407 8.63049 17.7341 8.648 17.8187 8.68302C17.9034 8.71805 17.9792 8.76766 18.0493 8.83478C18.1164 8.9019 18.1689 8.97778 18.204 9.06242C18.239 9.14705 18.2565 9.2346 18.2565 9.32799V9.33091ZM18.0318 9.33091C18.0318 9.26379 18.0201 9.19958 17.9967 9.13829C17.9734 9.07701 17.9384 9.02448 17.8917 8.97778C17.8479 8.93109 17.7954 8.89607 17.737 8.8698C17.6786 8.84354 17.6174 8.83186 17.5502 8.83186C17.4831 8.83186 17.4218 8.84354 17.3635 8.8698C17.3051 8.89607 17.2526 8.93109 17.2059 8.97778C17.1592 9.02448 17.1241 9.07701 17.1008 9.13829C17.0775 9.19958 17.0658 9.26379 17.0658 9.33091C17.0658 9.39803 17.0775 9.46224 17.1008 9.5206C17.1241 9.58189 17.1592 9.63442 17.2059 9.68112C17.2526 9.72781 17.3051 9.76283 17.3635 9.7891C17.4218 9.81244 17.4831 9.82704 17.5502 9.82704C17.6174 9.82704 17.6757 9.81536 17.7341 9.7891C17.7925 9.76283 17.845 9.72781 17.8917 9.68112C17.9384 9.63442 17.9734 9.57897 17.9967 9.5206C18.0201 9.45932 18.0318 9.39803 18.0318 9.33091Z" fill="#313132"/>
<path d="M18.8664 8.84646V9.98755H18.6505V8.84646H18.2973V8.6626H19.2166V8.84646H18.8664Z" fill="#313132"/>
<path d="M20.6758 9.33091C20.6758 9.4243 20.6583 9.51477 20.6233 9.59648C20.5883 9.68112 20.5358 9.75408 20.4686 9.8212C20.4015 9.88832 20.3227 9.93794 20.2381 9.97296C20.1534 10.008 20.063 10.0255 19.9667 10.0255C19.8704 10.0255 19.7799 10.008 19.6953 9.97296C19.6077 9.93794 19.5318 9.88832 19.4647 9.8212C19.3976 9.75408 19.345 9.68112 19.31 9.59648C19.275 9.51185 19.2575 9.4243 19.2575 9.32799C19.2575 9.23168 19.275 9.14413 19.31 9.0595C19.345 8.97486 19.3976 8.9019 19.4647 8.83478C19.5318 8.76766 19.6077 8.71805 19.6953 8.68302C19.7799 8.648 19.8733 8.63049 19.9667 8.63049C20.0601 8.63049 20.1534 8.648 20.2381 8.68302C20.3227 8.71805 20.3986 8.76766 20.4686 8.83478C20.5358 8.9019 20.5883 8.97778 20.6233 9.06242C20.6583 9.14705 20.6758 9.2346 20.6758 9.32799V9.33091ZM20.4511 9.33091C20.4511 9.26379 20.4394 9.19958 20.4161 9.13829C20.3927 9.07701 20.3577 9.02448 20.311 8.97778C20.2673 8.93109 20.2147 8.89607 20.1564 8.8698C20.098 8.84354 20.0367 8.83186 19.9696 8.83186C19.9025 8.83186 19.8412 8.84354 19.7828 8.8698C19.7244 8.89607 19.6719 8.93109 19.6252 8.97778C19.5785 9.02448 19.5435 9.07701 19.5201 9.13829C19.4968 9.19958 19.4851 9.26379 19.4851 9.33091C19.4851 9.39803 19.4968 9.46224 19.5201 9.5206C19.5435 9.58189 19.5785 9.63442 19.6252 9.68112C19.6719 9.72781 19.7244 9.76283 19.7828 9.7891C19.8412 9.81244 19.9025 9.82704 19.9696 9.82704C20.0367 9.82704 20.0951 9.81536 20.1534 9.7891C20.2118 9.76283 20.2643 9.72781 20.311 9.68112C20.3577 9.63442 20.3927 9.57897 20.4161 9.5206C20.4394 9.45932 20.4511 9.39803 20.4511 9.33091Z" fill="#313132"/>
<path d="M21.1253 9.39512V9.98755H20.9239V8.6626H21.2245C21.312 8.6626 21.3821 8.66843 21.4288 8.68011C21.4784 8.69178 21.5193 8.70929 21.5543 8.73556C21.5951 8.76766 21.6272 8.80852 21.6506 8.86105C21.6739 8.91066 21.6856 8.96611 21.6856 9.0274C21.6856 9.13246 21.6593 9.21709 21.6097 9.27546C21.5572 9.33675 21.4813 9.37177 21.3821 9.38344L21.8374 9.98755H21.5922L21.1515 9.39512H21.1282H21.1253ZM21.1399 9.22877H21.1778C21.2916 9.22877 21.3675 9.21417 21.4054 9.18791C21.4434 9.16164 21.4609 9.11495 21.4609 9.04783C21.4609 8.97487 21.4405 8.92233 21.4025 8.89315C21.3617 8.86397 21.2887 8.84937 21.1778 8.84937H21.1399V9.22877Z" fill="#313132"/>
<path d="M21.9628 9.99048V8.66553H22.1788V9.99048H21.9628Z" fill="#313132"/>
<path d="M22.9172 8.84646V9.98755H22.7012V8.84646H22.3481V8.6626H23.2645V8.84646H22.9142H22.9172Z" fill="#313132"/>
<path d="M24.1721 9.99046L24.0203 9.64901H23.495L23.3403 9.99046H23.1127L23.7547 8.61298L24.3968 9.99046H24.1692H24.1721ZM23.5767 9.47098H23.9474L23.8131 9.16747C23.8044 9.14704 23.7985 9.12661 23.7898 9.10035C23.781 9.07408 23.7723 9.04782 23.7635 9.01571C23.7577 9.0449 23.7489 9.07116 23.7402 9.09743C23.7314 9.1237 23.7226 9.14412 23.7139 9.16747L23.5796 9.47098H23.5767Z" fill="#313132"/>
<path d="M24.4493 9.72487L24.6215 9.64607C24.639 9.70444 24.6682 9.75113 24.712 9.78031C24.7558 9.81242 24.8112 9.82701 24.8783 9.82701C24.9454 9.82701 24.9921 9.8095 25.0301 9.77448C25.068 9.73946 25.0855 9.68984 25.0855 9.63148C25.0855 9.55268 25.0213 9.48556 24.8929 9.42427C24.8754 9.41551 24.8608 9.40968 24.8521 9.40384C24.7061 9.3338 24.6098 9.26959 24.5602 9.21123C24.5106 9.15286 24.4873 9.08282 24.4873 9.0011C24.4873 8.89312 24.5223 8.80557 24.5952 8.73845C24.6682 8.67132 24.7645 8.63922 24.8842 8.63922C24.9834 8.63922 25.0651 8.65673 25.1293 8.69467C25.1964 8.73261 25.2402 8.78514 25.2665 8.8581L25.0972 8.94565C25.0709 8.9048 25.0418 8.87269 25.0097 8.85518C24.9776 8.83475 24.9425 8.826 24.9017 8.826C24.8433 8.826 24.7966 8.84059 24.7645 8.87269C24.7295 8.90188 24.7149 8.94273 24.7149 8.99235C24.7149 9.07114 24.7908 9.14702 24.9396 9.21415C24.9513 9.21998 24.96 9.2229 24.9659 9.22582C25.0972 9.28711 25.1877 9.34547 25.2344 9.40384C25.284 9.46221 25.3073 9.53225 25.3073 9.6198C25.3073 9.74529 25.2665 9.84452 25.1877 9.91748C25.1089 9.99044 25.0009 10.0284 24.8667 10.0284C24.7528 10.0284 24.6624 10.0021 24.5894 9.94958C24.5164 9.89705 24.4697 9.82409 24.4464 9.72778L24.4493 9.72487Z" fill="#313132"/>
<path d="M16.8878 11.9721C16.9111 11.9983 16.9315 12.0188 16.952 12.0304C16.9724 12.0421 16.9928 12.0479 17.0162 12.0479C17.057 12.0479 17.0891 12.0334 17.1037 12.0071C17.1212 11.9779 17.13 11.9283 17.13 11.8524V10.8893H17.343V11.9225C17.343 12.0334 17.3197 12.118 17.2701 12.1705C17.2205 12.2231 17.1446 12.2493 17.0395 12.2493C16.9811 12.2493 16.9286 12.2376 16.8819 12.2143C16.8352 12.1909 16.7914 12.1559 16.7477 12.1092L16.8848 11.9721H16.8878Z" fill="#313132"/>
<path d="M18.5045 12.2143L18.3528 11.8728H17.8275L17.6728 12.2143H17.4452L18.0872 10.8368L18.7293 12.2143H18.5016H18.5045ZM17.9092 11.6948H18.2798L18.1456 11.3913C18.1368 11.3709 18.1281 11.3504 18.1222 11.3242C18.1135 11.2979 18.1047 11.2716 18.096 11.2395C18.0901 11.2687 18.0814 11.295 18.0726 11.3212C18.0639 11.3475 18.0551 11.3709 18.0464 11.3913L17.9121 11.6948H17.9092Z" fill="#313132"/>
<path d="M18.7818 11.9487L18.954 11.8699C18.9715 11.9283 19.0007 11.975 19.0445 12.0042C19.0882 12.0363 19.1437 12.0509 19.2108 12.0509C19.275 12.0509 19.3246 12.0334 19.3626 11.9983C19.4005 11.9633 19.4209 11.9137 19.4209 11.8553C19.4209 11.7765 19.3567 11.7094 19.2283 11.6481C19.2108 11.6394 19.1962 11.6335 19.1875 11.6277C19.0415 11.5577 18.9452 11.4935 18.8956 11.4351C18.846 11.3767 18.8227 11.3067 18.8227 11.222C18.8227 11.1141 18.8577 11.0265 18.9336 10.9594C19.0065 10.8923 19.1028 10.8602 19.2225 10.8602C19.3188 10.8602 19.4005 10.8777 19.4676 10.9156C19.5318 10.9536 19.5785 11.0061 19.6048 11.079L19.4355 11.1666C19.4092 11.1257 19.3801 11.0936 19.348 11.0761C19.3159 11.0557 19.2808 11.0469 19.24 11.0469C19.1816 11.0469 19.1349 11.0615 19.1028 11.0936C19.0678 11.1228 19.0532 11.1637 19.0532 11.2162C19.0532 11.295 19.1291 11.3709 19.2779 11.438C19.2896 11.4438 19.2984 11.4468 19.3042 11.4497C19.4355 11.511 19.526 11.5693 19.5756 11.6277C19.6252 11.6861 19.6486 11.7561 19.6486 11.8437C19.6486 11.9692 19.6106 12.0684 19.5289 12.1413C19.4501 12.2143 19.3421 12.2522 19.2079 12.2522C19.0941 12.2522 19.0036 12.226 18.9306 12.1734C18.8577 12.1209 18.811 12.048 18.7905 11.9516L18.7818 11.9487Z" fill="#313132"/>
<path d="M20.7488 12.2143L20.6 11.8728H20.0746L19.92 12.2143H19.6923L20.3344 10.8368L20.9764 12.2143H20.7488ZM20.1534 11.6948H20.5241L20.3869 11.3913C20.3782 11.3709 20.3723 11.3504 20.3636 11.3242C20.3548 11.2979 20.3461 11.2716 20.3373 11.2395C20.3285 11.2687 20.3227 11.295 20.314 11.3212C20.3052 11.3475 20.2994 11.3709 20.2906 11.3913L20.1534 11.6948Z" fill="#313132"/>
<path d="M16.8994 14.4381V13.1132H17.1154V13.6618L17.5911 13.1132H17.8537L17.3284 13.7027L17.915 14.4381H17.6378L17.1154 13.761V14.4381H16.8994Z" fill="#313132"/>
<path d="M18.0493 14.4381V13.1132H18.7905V13.297H18.2682V13.6297H18.7905V13.8194H18.2682V14.2484H18.7905V14.441H18.0493V14.4381Z" fill="#313132"/>
<path d="M19.0299 13.1132H19.2429V13.9186C19.2429 14.0383 19.2721 14.1288 19.3246 14.1871C19.3801 14.2484 19.4618 14.2776 19.5727 14.2776C19.6836 14.2776 19.7653 14.2484 19.8207 14.1871C19.8762 14.1258 19.9025 14.0383 19.9025 13.9186V13.1132H20.1184V13.9391C20.1184 14.1171 20.0717 14.2513 19.9842 14.3418C19.8937 14.4323 19.7565 14.4761 19.5756 14.4761C19.3947 14.4761 19.2575 14.4323 19.167 14.3418C19.0766 14.2543 19.0328 14.12 19.0328 13.9391V13.1132H19.0299Z" fill="#313132"/>
<path d="M21.2566 14.4381L21.1078 14.0966H20.5824L20.4278 14.4381H20.2001L20.8422 13.0606L21.4842 14.4381H21.2566ZM20.6612 13.9186H21.0319L20.8947 13.6151C20.886 13.5947 20.8801 13.5742 20.8714 13.548C20.8626 13.5217 20.8539 13.4954 20.8451 13.4633C20.8363 13.4925 20.8305 13.5188 20.8218 13.5451C20.813 13.5713 20.8072 13.5947 20.7984 13.6151L20.6612 13.9186Z" fill="#313132"/>
<path d="M21.6097 14.4381V13.0606L22.4502 13.8719C22.4736 13.8953 22.4969 13.9186 22.5203 13.9449C22.5436 13.9711 22.5699 14.0003 22.5961 14.0324V13.1131H22.7946V14.4906L21.9366 13.6647C21.9132 13.6414 21.8928 13.618 21.8695 13.5947C21.849 13.5684 21.8286 13.5451 21.8082 13.5159V14.4381H21.6097Z" fill="#313132"/>
<path d="M23.8335 13.7611H24.3589C24.3589 13.7611 24.3589 13.7844 24.3589 13.799C24.3589 13.8428 24.3589 13.872 24.3589 13.8865C24.3589 14.0733 24.3063 14.2163 24.1983 14.3214C24.0904 14.4235 23.9415 14.4761 23.746 14.4761C23.638 14.4761 23.5388 14.4615 23.4541 14.4294C23.3695 14.3973 23.2936 14.3506 23.2294 14.2834C23.1681 14.2192 23.1185 14.1434 23.0864 14.0587C23.0514 13.9712 23.0368 13.8807 23.0368 13.7815C23.0368 13.6823 23.0543 13.5889 23.0864 13.5042C23.1215 13.4196 23.1711 13.3437 23.2382 13.2795C23.3024 13.2153 23.3783 13.1686 23.4658 13.1336C23.5534 13.1015 23.6468 13.084 23.746 13.084C23.8511 13.084 23.9444 13.1044 24.0262 13.1424C24.1079 13.1803 24.1808 13.2387 24.245 13.3175L24.0874 13.4371C24.0437 13.3846 23.9911 13.3466 23.9357 13.3204C23.8802 13.2941 23.816 13.2824 23.746 13.2824C23.603 13.2824 23.4863 13.3291 23.3929 13.4196C23.3024 13.513 23.2586 13.6326 23.2586 13.7786C23.2586 13.9245 23.3024 14.05 23.3929 14.1434C23.4833 14.2368 23.603 14.2834 23.746 14.2834C23.8686 14.2834 23.9649 14.2543 24.0378 14.1988C24.1079 14.1404 24.1429 14.0646 24.1429 13.9653V13.9449H23.8248V13.764L23.8335 13.7611Z" fill="#313132"/>
<path d="M25.4649 14.4381L25.3132 14.0966H24.7879L24.6332 14.4381H24.4055L25.0476 13.0606L25.6896 14.4381H25.462H25.4649ZM24.8696 13.9186H25.2402L25.106 13.6151C25.0972 13.5947 25.0885 13.5742 25.0826 13.548C25.0739 13.5217 25.0651 13.4954 25.0563 13.4633C25.0505 13.4925 25.0418 13.5188 25.033 13.5451C25.0242 13.5713 25.0155 13.5947 25.0067 13.6151L24.8725 13.9186H24.8696Z" fill="#313132"/>
<path d="M25.8151 14.4381V13.0606L26.6585 13.8719C26.6819 13.8953 26.7052 13.9186 26.7286 13.9449C26.7519 13.9711 26.7753 14.0003 26.8016 14.0324V13.1131H27V14.4906L26.142 13.6647C26.1186 13.6414 26.0982 13.618 26.0749 13.5947C26.0544 13.5684 26.034 13.5451 26.0136 13.5159V14.4381H25.8151Z" fill="#313132"/>
</g>
<defs>
<radialGradient id="paint0_radial_301_5838" cx="0" cy="0" r="1" gradientUnits="userSpaceOnUse" gradientTransform="translate(8.60243 11.2833) scale(5.05466)">
<stop stop-color="#C40015"/>
<stop offset="0.14" stop-color="#AC0114"/>
<stop offset="0.37" stop-color="#8E0413"/>
<stop offset="0.59" stop-color="#770612"/>
<stop offset="0.81" stop-color="#6A0712"/>
<stop offset="1" stop-color="#660812"/>
</radialGradient>
<radialGradient id="paint1_radial_301_5838" cx="0" cy="0" r="1" gradientUnits="userSpaceOnUse" gradientTransform="translate(8.60243 11.2833) scale(5.05466)">
<stop stop-color="#C40015"/>
<stop offset="0.14" stop-color="#AC0114"/>
<stop offset="0.37" stop-color="#8E0413"/>
<stop offset="0.59" stop-color="#770612"/>
<stop offset="0.81" stop-color="#6A0712"/>
<stop offset="1" stop-color="#660812"/>
</radialGradient>
<linearGradient id="paint2_linear_301_5838" x1="11.5821" y1="7.89503" x2="0.404647" y2="5.80838" gradientUnits="userSpaceOnUse">
<stop stop-color="#E77D62"/>
<stop offset="0.02" stop-color="#D76854"/>
<stop offset="0.04" stop-color="#C24B41"/>
<stop offset="0.07" stop-color="#B13532"/>
<stop offset="0.1" stop-color="#A62628"/>
<stop offset="0.14" stop-color="#9F1C21"/>
<stop offset="0.19" stop-color="#9D1A20"/>
<stop offset="0.22" stop-color="#A01E23"/>
<stop offset="0.26" stop-color="#AA2B2B"/>
<stop offset="0.3" stop-color="#BA423A"/>
<stop offset="0.34" stop-color="#D1604F"/>
<stop offset="0.38" stop-color="#E77D62"/>
<stop offset="0.43" stop-color="#D76753"/>
<stop offset="0.52" stop-color="#C24B41"/>
<stop offset="0.61" stop-color="#B13532"/>
<stop offset="0.71" stop-color="#A52628"/>
<stop offset="0.83" stop-color="#9F1C21"/>
<stop offset="1" stop-color="#9D1A20"/>
</linearGradient>
<linearGradient id="paint3_linear_301_5838" x1="-2.5371" y1="8.37948" x2="12.9333" y2="7.78705" gradientUnits="userSpaceOnUse">
<stop stop-color="#7F8083"/>
<stop offset="0.15" stop-color="#818285"/>
<stop offset="0.26" stop-color="#8B8B8E"/>
<stop offset="0.35" stop-color="#9A9B9D"/>
<stop offset="0.44" stop-color="#B0B1B3"/>
<stop offset="0.52" stop-color="#CCCDCE"/>
<stop offset="0.59" stop-color="#EFEFEF"/>
<stop offset="0.62" stop-color="white"/>
<stop offset="0.64" stop-color="#F1F2F2"/>
<stop offset="0.69" stop-color="#D3D4D5"/>
<stop offset="0.73" stop-color="#BCBEC0"/>
<stop offset="0.77" stop-color="#AFB1B4"/>
<stop offset="0.81" stop-color="#ABADB0"/>
<stop offset="0.87" stop-color="#ADAFB2"/>
<stop offset="0.9" stop-color="#B7B8BB"/>
<stop offset="0.94" stop-color="#C6C8CA"/>
<stop offset="0.97" stop-color="#DCDDDE"/>
<stop offset="1" stop-color="white"/>
</linearGradient>
<clipPath id="clip0_301_5838">
<rect width="26" height="9.74745" fill="white" transform="translate(1 5)"/>
</clipPath>
</defs>
</svg>
