<svg width="46" height="32" viewBox="0 0 46 32" fill="none" xmlns="http://www.w3.org/2000/svg">
<g clip-path="url(#clip0_301_5872)">
<path d="M15.6802 14.297V19.6287C15.6515 20.0706 15.5258 20.5593 15.012 20.5593C14.7784 20.5593 14.6743 20.5054 14.624 20.412C15.0479 19.7796 15.2994 19.0036 15.2994 18.1593C15.2994 17.6599 15.2096 17.182 15.0479 16.7437C15.0192 16.6683 14.9904 16.5964 14.9581 16.5245C14.3976 15.2347 13.2012 14.3401 11.8072 14.3401C9.88144 14.3401 8.31857 16.0467 8.31857 18.1557C8.31857 20.2647 9.88144 21.9712 11.8072 21.9712C12.4036 21.9712 12.9677 21.806 13.4599 21.5186C13.8659 21.8096 14.3545 21.982 14.8826 21.982C16.0575 21.982 17.0419 21.1377 17.315 20.0024V14.297H15.6695H15.6802ZM12.612 20.4623C12.3677 20.6024 12.0982 20.685 11.8144 20.685C10.7293 20.685 9.8527 19.5461 9.8527 18.1413C9.8527 16.7365 10.7329 15.5976 11.8144 15.5976C12.6156 15.5976 13.3018 16.2192 13.6072 17.1066C13.715 17.4227 13.7761 17.7712 13.7761 18.1413C13.7761 19.176 13.2982 20.0671 12.612 20.4623Z" fill="url(#paint0_radial_301_5872)"/>
<path d="M17.8 17.2144V19.5317L18.806 18.5976L21.0946 22H23.3617L20.1389 17.1425L22.9126 14.1892H20.3904L17.8 17.2144Z" fill="url(#paint1_radial_301_5872)"/>
<path d="M22.9988 14.2611C22.5605 14.3042 22.0395 14.3114 21.4251 14.2467C21.3892 14.2467 21.3569 14.2467 21.3245 14.2395C18.8168 13.503 18.0371 12.4467 16.4455 11.2252C14.7461 9.91738 10.6719 9.03354 7 11.9329C7 11.9329 8.25748 12.6587 8.83234 13.8874C8.84311 13.909 8.85389 13.9305 8.86467 13.9521C9.43234 15.2204 9.52216 16.3126 9.52216 16.3126C9.52216 16.3126 11.606 13.9305 14.182 13.8371C16.3557 13.7581 18.8778 14.6024 20.879 14.8252C21.2491 14.8647 21.6012 14.8862 21.9317 14.8755C24.0335 14.8 24.8383 13.5928 24.8383 13.5928C24.8383 13.5928 24.321 14.1282 23.006 14.2611H22.9988Z" fill="#313132"/>
<path d="M14.9293 12.2096C18.0084 13.0288 18.8168 14.0994 21.321 14.0814C21.3641 14.0814 21.4 14.0779 21.4395 14.0779C21.4036 14.0779 21.3713 14.0779 21.3389 14.0707C18.8419 13.3737 18.0695 12.3749 16.485 11.218C14.7964 9.98204 10.9234 9.10899 7.27306 11.8539C7.27306 11.8539 8.34371 12.5761 8.91497 13.7365C9.01916 13.618 9.11976 13.5102 9.22395 13.406C11.2216 11.3401 13.1329 11.7317 14.9329 12.2096H14.9293Z" fill="url(#paint2_linear_301_5872)"/>
<path d="M23.0024 14.0922C22.5677 14.1353 22.0467 14.1389 21.4359 14.0778C21.3928 14.0778 21.3569 14.0814 21.3174 14.0814C18.8168 14.0994 17.4479 12.7161 15.1198 11.9653C13.3485 11.394 11.2144 11.3365 9.21677 13.4024C9.11257 13.5066 9.01198 13.6144 8.90778 13.7329C8.91856 13.7545 8.92934 13.7724 8.94012 13.794C9.50419 14.994 9.59401 16.0287 9.59401 16.0287C9.59401 16.0287 11.6671 13.776 14.2287 13.6826C16.3916 13.6072 18.8994 14.4084 20.8898 14.6167C21.2563 14.6563 21.6084 14.6778 21.9353 14.6635C24.0263 14.5916 24.8599 13.4994 24.8599 13.4994C24.8599 13.4994 24.3102 13.9557 23.0024 14.085V14.0922Z" fill="url(#paint3_linear_301_5872)"/>
<path d="M25.2766 14.1964H24.9353V21.903H25.2766V14.1964Z" fill="#660812"/>
<path d="M28.2443 15.3318C28.2443 15.4467 28.2228 15.5581 28.1796 15.6587C28.1365 15.7629 28.0719 15.8527 27.9892 15.9354C27.9066 16.018 27.8096 16.0791 27.7054 16.1222C27.6012 16.1653 27.4898 16.1868 27.3713 16.1868C27.2527 16.1868 27.1413 16.1653 27.0371 16.1222C26.9293 16.0791 26.8359 16.018 26.7533 15.9354C26.6707 15.8527 26.606 15.7629 26.5629 15.6587C26.5198 15.5545 26.4982 15.4467 26.4982 15.3282C26.4982 15.2096 26.5198 15.1018 26.5629 14.9976C26.606 14.8934 26.6671 14.8036 26.7533 14.721C26.8359 14.6383 26.9293 14.5773 27.0371 14.5342C27.1413 14.491 27.2563 14.4695 27.3713 14.4695C27.4862 14.4695 27.6012 14.491 27.7054 14.5342C27.8096 14.5773 27.903 14.6383 27.9892 14.721C28.0719 14.8036 28.1365 14.897 28.1796 15.0012C28.2228 15.1054 28.2443 15.2132 28.2443 15.3282V15.3318ZM27.9677 15.3318C27.9677 15.2491 27.9533 15.1701 27.9245 15.0946C27.8958 15.0192 27.8527 14.9545 27.7952 14.897C27.7413 14.8395 27.6766 14.7964 27.6048 14.7641C27.5329 14.7318 27.4575 14.7174 27.3748 14.7174C27.2922 14.7174 27.2168 14.7318 27.1449 14.7641C27.073 14.7964 27.0084 14.8395 26.9509 14.897C26.8934 14.9545 26.8503 15.0192 26.8216 15.0946C26.7928 15.1701 26.7784 15.2491 26.7784 15.3318C26.7784 15.4144 26.7928 15.4934 26.8216 15.5653C26.8503 15.6407 26.8934 15.7054 26.9509 15.7629C27.0084 15.8204 27.073 15.8635 27.1449 15.8958C27.2168 15.9246 27.2922 15.9425 27.3748 15.9425C27.4575 15.9425 27.5293 15.9282 27.6012 15.8958C27.673 15.8635 27.7377 15.8204 27.7952 15.7629C27.8527 15.7054 27.8958 15.6371 27.9245 15.5653C27.9533 15.4898 27.9677 15.4144 27.9677 15.3318Z" fill="#313132"/>
<path d="M28.9952 14.7354V16.1402H28.7293V14.7354H28.2946V14.509H29.4263V14.7354H28.9952Z" fill="#313132"/>
<path d="M31.2228 15.3318C31.2228 15.4467 31.2012 15.5581 31.1581 15.6587C31.115 15.7629 31.0503 15.8527 30.9677 15.9354C30.885 16.018 30.788 16.0791 30.6838 16.1222C30.5796 16.1653 30.4683 16.1868 30.3497 16.1868C30.2311 16.1868 30.1198 16.1653 30.0156 16.1222C29.9078 16.0791 29.8144 16.018 29.7317 15.9354C29.6491 15.8527 29.5844 15.7629 29.5413 15.6587C29.4982 15.5545 29.4766 15.4467 29.4766 15.3282C29.4766 15.2096 29.4982 15.1018 29.5413 14.9976C29.5844 14.8934 29.6491 14.8036 29.7317 14.721C29.8144 14.6383 29.9078 14.5773 30.0156 14.5342C30.1198 14.491 30.2347 14.4695 30.3497 14.4695C30.4647 14.4695 30.5796 14.491 30.6838 14.5342C30.788 14.5773 30.8814 14.6383 30.9677 14.721C31.0503 14.8036 31.115 14.897 31.1581 15.0012C31.2012 15.1054 31.2228 15.2132 31.2228 15.3282V15.3318ZM30.9461 15.3318C30.9461 15.2491 30.9317 15.1701 30.903 15.0946C30.8743 15.0192 30.8311 14.9545 30.7737 14.897C30.7198 14.8395 30.6551 14.7964 30.5832 14.7641C30.5114 14.7318 30.4359 14.7174 30.3533 14.7174C30.2707 14.7174 30.1952 14.7318 30.1234 14.7641C30.0515 14.7964 29.9868 14.8395 29.9293 14.897C29.8719 14.9545 29.8287 15.0192 29.8 15.0946C29.7713 15.1701 29.7569 15.2491 29.7569 15.3318C29.7569 15.4144 29.7713 15.4934 29.8 15.5653C29.8287 15.6407 29.8719 15.7054 29.9293 15.7629C29.9868 15.8204 30.0515 15.8635 30.1234 15.8958C30.1952 15.9246 30.2707 15.9425 30.3533 15.9425C30.4359 15.9425 30.5078 15.9282 30.5796 15.8958C30.6515 15.8635 30.7162 15.8204 30.7737 15.7629C30.8311 15.7054 30.8743 15.6371 30.903 15.5653C30.9317 15.4898 30.9461 15.4144 30.9461 15.3318Z" fill="#313132"/>
<path d="M31.776 15.4108V16.1402H31.5281V14.509H31.8982C32.006 14.509 32.0922 14.5162 32.1497 14.5306C32.2108 14.545 32.2611 14.5665 32.3042 14.5989C32.3545 14.6384 32.394 14.6887 32.4228 14.7533C32.4515 14.8144 32.4659 14.8827 32.4659 14.9581C32.4659 15.0875 32.4335 15.1917 32.3725 15.2635C32.3078 15.339 32.2144 15.3821 32.0922 15.3965L32.6527 16.1402H32.3509L31.8084 15.4108H31.7796H31.776ZM31.794 15.206H31.8407C31.9808 15.206 32.0743 15.1881 32.121 15.1557C32.1677 15.1234 32.1892 15.0659 32.1892 14.9833C32.1892 14.8935 32.1641 14.8288 32.1174 14.7929C32.0671 14.7569 31.9772 14.739 31.8407 14.739H31.794V15.206Z" fill="#313132"/>
<path d="M32.8072 16.1438V14.5126H33.0731V16.1438H32.8072Z" fill="#313132"/>
<path d="M33.982 14.7354V16.1402H33.7162V14.7354H33.2814V14.509H34.4096V14.7354H33.9784H33.982Z" fill="#313132"/>
<path d="M35.5269 16.1437L35.3401 15.7234H34.6934L34.503 16.1437H34.2227L35.0132 14.4479L35.8036 16.1437H35.5233H35.5269ZM34.794 15.5042H35.2503L35.085 15.1306C35.0742 15.1054 35.0671 15.0803 35.0563 15.0479C35.0455 15.0156 35.0347 14.9833 35.0239 14.9437C35.0168 14.9797 35.006 15.012 34.9952 15.0443C34.9844 15.0767 34.9736 15.1018 34.9629 15.1306L34.7976 15.5042H34.794Z" fill="#313132"/>
<path d="M35.8683 15.8168L36.0802 15.7198C36.1018 15.7917 36.1377 15.8491 36.1916 15.8851C36.2455 15.9246 36.3138 15.9426 36.3964 15.9426C36.479 15.9426 36.5365 15.921 36.5832 15.8779C36.6299 15.8348 36.6515 15.7737 36.6515 15.7018C36.6515 15.6048 36.5725 15.5222 36.4144 15.4468C36.3928 15.436 36.3749 15.4288 36.3641 15.4216C36.1844 15.3354 36.0659 15.2563 36.0048 15.1845C35.9437 15.1126 35.915 15.0264 35.915 14.9258C35.915 14.7929 35.9581 14.6851 36.0479 14.6024C36.1377 14.5198 36.2563 14.4803 36.4036 14.4803C36.5257 14.4803 36.6263 14.5018 36.7054 14.5485C36.788 14.5953 36.8419 14.6599 36.8743 14.7497L36.6659 14.8575C36.6335 14.8072 36.5976 14.7677 36.5581 14.7462C36.5186 14.721 36.4755 14.7102 36.4252 14.7102C36.3533 14.7102 36.2958 14.7282 36.2563 14.7677C36.2132 14.8036 36.1952 14.8539 36.1952 14.915C36.1952 15.012 36.2886 15.1054 36.4719 15.1881C36.4862 15.1953 36.497 15.1988 36.5042 15.2024C36.6659 15.2779 36.7772 15.3497 36.8347 15.4216C36.8958 15.4935 36.9246 15.5797 36.9246 15.6875C36.9246 15.842 36.8743 15.9641 36.7772 16.0539C36.6802 16.1438 36.5473 16.1905 36.382 16.1905C36.2419 16.1905 36.1305 16.1581 36.0407 16.0935C35.9509 16.0288 35.8934 15.939 35.8647 15.8204L35.8683 15.8168Z" fill="#313132"/>
<path d="M26.5593 18.5832C26.588 18.6156 26.6132 18.6407 26.6383 18.6551C26.6635 18.6695 26.6886 18.6767 26.7174 18.6767C26.7677 18.6767 26.8072 18.6587 26.8251 18.6264C26.8467 18.5904 26.8575 18.5293 26.8575 18.4359V17.2503H27.1198V18.5222C27.1198 18.6587 27.091 18.7629 27.0299 18.8276C26.9689 18.8922 26.8754 18.9246 26.7461 18.9246C26.6743 18.9246 26.6096 18.9102 26.5521 18.8814C26.4946 18.8527 26.4407 18.8096 26.3868 18.7521L26.5557 18.5832H26.5593Z" fill="#313132"/>
<path d="M28.5497 18.8815L28.3629 18.4611H27.7162L27.5257 18.8815H27.2455L28.0359 17.1857L28.8263 18.8815H28.5461H28.5497ZM27.8168 18.242H28.2731L28.1078 17.8683C28.097 17.8432 28.0862 17.818 28.079 17.7857C28.0683 17.7533 28.0575 17.721 28.0467 17.6815C28.0395 17.7174 28.0287 17.7497 28.018 17.7821C28.0072 17.8144 27.9964 17.8432 27.9856 17.8683L27.8204 18.242H27.8168Z" fill="#313132"/>
<path d="M28.891 18.5545L29.103 18.4575C29.1245 18.5294 29.1605 18.5869 29.2144 18.6228C29.2683 18.6623 29.3365 18.6803 29.4192 18.6803C29.4982 18.6803 29.5593 18.6587 29.606 18.6156C29.6527 18.5725 29.6778 18.5114 29.6778 18.4396C29.6778 18.3426 29.5988 18.2599 29.4407 18.1845C29.4192 18.1737 29.4012 18.1665 29.3904 18.1593C29.2108 18.0731 29.0922 17.9941 29.0311 17.9222C28.9701 17.8503 28.9413 17.7641 28.9413 17.6599C28.9413 17.527 28.9844 17.4192 29.0778 17.3366C29.1677 17.2539 29.2862 17.2144 29.4335 17.2144C29.5521 17.2144 29.6527 17.236 29.7353 17.2827C29.8144 17.3294 29.8719 17.3941 29.9042 17.4839L29.6958 17.5917C29.6635 17.5414 29.6275 17.5018 29.588 17.4803C29.5485 17.4551 29.5054 17.4444 29.4551 17.4444C29.3832 17.4444 29.3257 17.4623 29.2862 17.5018C29.2431 17.5378 29.2251 17.5881 29.2251 17.6527C29.2251 17.7497 29.3186 17.8432 29.5018 17.9258C29.5162 17.933 29.5269 17.9366 29.5341 17.9402C29.6958 18.0156 29.8072 18.0875 29.8683 18.1593C29.9293 18.2312 29.9581 18.3174 29.9581 18.4252C29.9581 18.5797 29.9114 18.7018 29.8108 18.7917C29.7138 18.8815 29.5808 18.9282 29.4156 18.9282C29.2754 18.9282 29.1641 18.8959 29.0742 18.8312C28.9844 18.7665 28.9269 18.6767 28.9018 18.5581L28.891 18.5545Z" fill="#313132"/>
<path d="M31.3126 18.8815L31.1293 18.4611H30.4826L30.2922 18.8815H30.012L30.8024 17.1857L31.5928 18.8815H31.3126ZM30.5796 18.242H31.0359L30.8671 17.8683C30.8563 17.8432 30.8491 17.818 30.8383 17.7857C30.8275 17.7533 30.8168 17.721 30.806 17.6815C30.7952 17.7174 30.788 17.7497 30.7772 17.7821C30.7665 17.8144 30.7593 17.8432 30.7485 17.8683L30.5796 18.242Z" fill="#313132"/>
<path d="M26.5737 21.6192V19.988H26.8395V20.6635L27.4252 19.988H27.7485L27.1018 20.7138L27.824 21.6192H27.4826L26.8395 20.7856V21.6192H26.5737Z" fill="#313132"/>
<path d="M27.9892 21.6192V19.988H28.9018V20.2144H28.2587V20.624H28.9018V20.8575H28.2587V21.3856H28.9018V21.6228H27.9892V21.6192Z" fill="#313132"/>
<path d="M29.1964 19.988H29.4587V20.9797C29.4587 21.127 29.4946 21.2383 29.5593 21.3102C29.6275 21.3856 29.7281 21.4216 29.8647 21.4216C30.0012 21.4216 30.1018 21.3856 30.1701 21.3102C30.2383 21.2347 30.2707 21.127 30.2707 20.9797V19.988H30.5365V21.0048C30.5365 21.224 30.479 21.3892 30.3713 21.5006C30.2599 21.612 30.091 21.6659 29.8683 21.6659C29.6455 21.6659 29.4766 21.612 29.3653 21.5006C29.2539 21.3928 29.2 21.2276 29.2 21.0048V19.988H29.1964Z" fill="#313132"/>
<path d="M31.9377 21.6192L31.7545 21.1988H31.1078L30.9174 21.6192H30.6371L31.4275 19.9234L32.218 21.6192H31.9377ZM31.2048 20.9797H31.6611L31.4922 20.606C31.4814 20.5809 31.4742 20.5557 31.4635 20.5234C31.4527 20.4911 31.4419 20.4587 31.4311 20.4192C31.4204 20.4551 31.4132 20.4875 31.4024 20.5198C31.3916 20.5521 31.3844 20.5809 31.3736 20.606L31.2048 20.9797Z" fill="#313132"/>
<path d="M32.3725 21.6192V19.9234L33.4072 20.9222C33.4359 20.9509 33.4647 20.9797 33.4934 21.012C33.5222 21.0444 33.5545 21.0803 33.5868 21.1198V19.9881H33.8311V21.6839L32.7748 20.6671C32.7461 20.6384 32.721 20.6096 32.6922 20.5809C32.6671 20.5486 32.6419 20.5198 32.6168 20.4839V21.6192H32.3725Z" fill="#313132"/>
<path d="M35.1102 20.7857H35.7569C35.7569 20.7857 35.7569 20.8144 35.7569 20.8324C35.7569 20.8863 35.7569 20.9222 35.7569 20.9402C35.7569 21.1701 35.6922 21.3462 35.5593 21.4755C35.4263 21.6013 35.2431 21.6659 35.0024 21.6659C34.8695 21.6659 34.7473 21.648 34.6431 21.6084C34.5389 21.5689 34.4455 21.5114 34.3665 21.4288C34.291 21.3498 34.2299 21.2563 34.1904 21.1521C34.1473 21.0444 34.1293 20.933 34.1293 20.8108C34.1293 20.6887 34.1509 20.5737 34.1904 20.4695C34.2335 20.3653 34.2946 20.2719 34.3772 20.1929C34.4563 20.1138 34.5497 20.0563 34.6575 20.0132C34.7653 19.9737 34.8802 19.9521 35.0024 19.9521C35.1317 19.9521 35.2467 19.9773 35.3473 20.024C35.4479 20.0707 35.5377 20.1426 35.6168 20.2396L35.4227 20.3869C35.3689 20.3222 35.3042 20.2755 35.2359 20.2432C35.1677 20.2108 35.0886 20.1965 35.0024 20.1965C34.8263 20.1965 34.6826 20.2539 34.5677 20.3653C34.4563 20.4803 34.4024 20.6276 34.4024 20.8072C34.4024 20.9869 34.4563 21.1414 34.5677 21.2563C34.679 21.3713 34.8263 21.4288 35.0024 21.4288C35.1533 21.4288 35.2718 21.3929 35.3617 21.3246C35.4479 21.2527 35.491 21.1593 35.491 21.0372V21.012H35.0994V20.7893L35.1102 20.7857Z" fill="#313132"/>
<path d="M37.1186 21.6192L36.9317 21.1988H36.285L36.0946 21.6192H35.8144L36.6048 19.9234L37.3952 21.6192H37.115H37.1186ZM36.3856 20.9797H36.8419L36.6766 20.606C36.6659 20.5809 36.6551 20.5557 36.6479 20.5234C36.6371 20.4911 36.6263 20.4587 36.6156 20.4192C36.6084 20.4551 36.5976 20.4875 36.5868 20.5198C36.576 20.5521 36.5653 20.5809 36.5545 20.606L36.3892 20.9797H36.3856Z" fill="#313132"/>
<path d="M37.5497 21.6192V19.9234L38.588 20.9222C38.6168 20.9509 38.6455 20.9797 38.6743 21.012C38.703 21.0444 38.7317 21.0803 38.7641 21.1198V19.9881H39.0084V21.6839L37.9521 20.6671C37.9234 20.6384 37.8982 20.6096 37.8695 20.5809C37.8443 20.5486 37.8192 20.5198 37.794 20.4839V21.6192H37.5497Z" fill="#313132"/>
</g>
<defs>
<radialGradient id="paint0_radial_301_5872" cx="0" cy="0" r="1" gradientUnits="userSpaceOnUse" gradientTransform="translate(16.3593 17.7353) scale(6.22275)">
<stop stop-color="#C40015"/>
<stop offset="0.14" stop-color="#AC0114"/>
<stop offset="0.37" stop-color="#8E0413"/>
<stop offset="0.59" stop-color="#770612"/>
<stop offset="0.81" stop-color="#6A0712"/>
<stop offset="1" stop-color="#660812"/>
</radialGradient>
<radialGradient id="paint1_radial_301_5872" cx="0" cy="0" r="1" gradientUnits="userSpaceOnUse" gradientTransform="translate(16.3593 17.7353) scale(6.22275)">
<stop stop-color="#C40015"/>
<stop offset="0.14" stop-color="#AC0114"/>
<stop offset="0.37" stop-color="#8E0413"/>
<stop offset="0.59" stop-color="#770612"/>
<stop offset="0.81" stop-color="#6A0712"/>
<stop offset="1" stop-color="#660812"/>
</radialGradient>
<linearGradient id="paint2_linear_301_5872" x1="20.0275" y1="13.5641" x2="6.26707" y2="10.9952" gradientUnits="userSpaceOnUse">
<stop stop-color="#E77D62"/>
<stop offset="0.02" stop-color="#D76854"/>
<stop offset="0.04" stop-color="#C24B41"/>
<stop offset="0.07" stop-color="#B13532"/>
<stop offset="0.1" stop-color="#A62628"/>
<stop offset="0.14" stop-color="#9F1C21"/>
<stop offset="0.19" stop-color="#9D1A20"/>
<stop offset="0.22" stop-color="#A01E23"/>
<stop offset="0.26" stop-color="#AA2B2B"/>
<stop offset="0.3" stop-color="#BA423A"/>
<stop offset="0.34" stop-color="#D1604F"/>
<stop offset="0.38" stop-color="#E77D62"/>
<stop offset="0.43" stop-color="#D76753"/>
<stop offset="0.52" stop-color="#C24B41"/>
<stop offset="0.61" stop-color="#B13532"/>
<stop offset="0.71" stop-color="#A52628"/>
<stop offset="0.83" stop-color="#9F1C21"/>
<stop offset="1" stop-color="#9D1A20"/>
</linearGradient>
<linearGradient id="paint3_linear_301_5872" x1="2.64551" y1="14.1605" x2="21.691" y2="13.4311" gradientUnits="userSpaceOnUse">
<stop stop-color="#7F8083"/>
<stop offset="0.15" stop-color="#818285"/>
<stop offset="0.26" stop-color="#8B8B8E"/>
<stop offset="0.35" stop-color="#9A9B9D"/>
<stop offset="0.44" stop-color="#B0B1B3"/>
<stop offset="0.52" stop-color="#CCCDCE"/>
<stop offset="0.59" stop-color="#EFEFEF"/>
<stop offset="0.62" stop-color="white"/>
<stop offset="0.64" stop-color="#F1F2F2"/>
<stop offset="0.69" stop-color="#D3D4D5"/>
<stop offset="0.73" stop-color="#BCBEC0"/>
<stop offset="0.77" stop-color="#AFB1B4"/>
<stop offset="0.81" stop-color="#ABADB0"/>
<stop offset="0.87" stop-color="#ADAFB2"/>
<stop offset="0.9" stop-color="#B7B8BB"/>
<stop offset="0.94" stop-color="#C6C8CA"/>
<stop offset="0.97" stop-color="#DCDDDE"/>
<stop offset="1" stop-color="white"/>
</linearGradient>
<clipPath id="clip0_301_5872">
<rect width="32.0084" height="12" fill="white" transform="translate(7 10)"/>
</clipPath>
</defs>
</svg>
