<svg width="58" height="40" viewBox="0 0 58 40" fill="none" xmlns="http://www.w3.org/2000/svg">
<g clip-path="url(#clip0_301_5906)">
<path d="M19.5737 17.7294V24.8384C19.5353 25.4276 19.3677 26.0791 18.6826 26.0791C18.3713 26.0791 18.2323 26.0072 18.1653 25.8827C18.7305 25.0395 19.0659 24.0048 19.0659 22.8791C19.0659 22.2132 18.9461 21.5761 18.7305 20.9916C18.6922 20.891 18.6539 20.7952 18.6108 20.6994C17.8635 18.9797 16.2683 17.7869 14.4096 17.7869C11.8419 17.7869 9.75809 20.0623 9.75809 22.8743C9.75809 25.6863 11.8419 27.9617 14.4096 27.9617C15.2048 27.9617 15.9569 27.7413 16.6132 27.3581C17.1545 27.7461 17.806 27.9761 18.5102 27.9761C20.0766 27.9761 21.3892 26.8503 21.7533 25.3366V17.7294H19.5593H19.5737ZM15.4826 25.9497C15.1569 26.1366 14.7976 26.2467 14.4192 26.2467C12.9725 26.2467 11.8036 24.7282 11.8036 22.8551C11.8036 20.9821 12.9772 19.4635 14.4192 19.4635C15.4874 19.4635 16.4024 20.2922 16.8096 21.4755C16.9533 21.897 17.0347 22.3617 17.0347 22.8551C17.0347 24.2348 16.3976 25.4228 15.4826 25.9497Z" fill="url(#paint0_radial_301_5906)"/>
<path d="M22.4 21.6192V24.709L23.7413 23.4635L26.7928 28H29.8156L25.5186 21.5234L29.2168 17.5856H25.8539L22.4 21.6192Z" fill="url(#paint1_radial_301_5906)"/>
<path d="M29.3317 17.6814C28.7473 17.7389 28.0527 17.7485 27.2335 17.6622C27.1856 17.6622 27.1425 17.6622 27.0994 17.6527C23.7557 16.6706 22.7162 15.2622 20.594 13.6335C18.3281 11.8898 12.8958 10.7114 8 14.5772C8 14.5772 9.67665 15.5449 10.4431 17.1832C10.4575 17.2119 10.4719 17.2407 10.4862 17.2694C11.2431 18.9605 11.3629 20.4167 11.3629 20.4167C11.3629 20.4167 14.1413 17.2407 17.576 17.1161C20.4743 17.0108 23.8371 18.1365 26.5054 18.4335C26.9988 18.4862 27.4683 18.5149 27.909 18.5006C30.7114 18.4 31.7844 16.7904 31.7844 16.7904C31.7844 16.7904 31.0946 17.5042 29.3413 17.6814H29.3317Z" fill="#313132"/>
<path d="M18.5725 14.9461C22.6778 16.0383 23.7557 17.4659 27.0946 17.4419C27.1521 17.4419 27.2 17.4371 27.2527 17.4371C27.2048 17.4371 27.1617 17.4371 27.1186 17.4275C23.7892 16.4982 22.7593 15.1665 20.6467 13.6239C18.3952 11.976 13.2311 10.812 8.36407 14.4718C8.36407 14.4718 9.79162 15.4347 10.5533 16.982C10.6922 16.8239 10.8264 16.6802 10.9653 16.5413C13.6287 13.7868 16.1772 14.309 18.5772 14.9461H18.5725Z" fill="url(#paint2_linear_301_5906)"/>
<path d="M29.3365 17.4563C28.7569 17.5138 28.0623 17.5186 27.2479 17.4371C27.1904 17.4371 27.1425 17.4419 27.0898 17.4419C23.7557 17.4659 21.9305 15.6216 18.8264 14.6204C16.4647 13.8587 13.6192 13.7821 10.9557 16.5365C10.8168 16.6755 10.6826 16.8192 10.5437 16.9773C10.5581 17.006 10.5725 17.03 10.5868 17.0587C11.3389 18.6587 11.4587 20.0383 11.4587 20.0383C11.4587 20.0383 14.2228 17.0347 17.6383 16.9102C20.5222 16.8096 23.8659 17.8779 26.5198 18.1557C27.0084 18.2084 27.4778 18.2371 27.9138 18.218C30.7018 18.1222 31.8132 16.6659 31.8132 16.6659C31.8132 16.6659 31.0802 17.2743 29.3365 17.4467V17.4563Z" fill="url(#paint3_linear_301_5906)"/>
<path d="M32.3689 17.5952H31.9138V27.8706H32.3689V17.5952Z" fill="#660812"/>
<path d="M36.3257 19.109C36.3257 19.2623 36.297 19.4108 36.2395 19.5449C36.182 19.6838 36.0958 19.8036 35.9856 19.9138C35.8754 20.024 35.7461 20.1054 35.6072 20.1629C35.4683 20.2204 35.3198 20.2491 35.1617 20.2491C35.0036 20.2491 34.8551 20.2204 34.7162 20.1629C34.5725 20.1054 34.4479 20.024 34.3377 19.9138C34.2275 19.8036 34.1413 19.6838 34.0838 19.5449C34.0263 19.406 33.9976 19.2623 33.9976 19.1042C33.9976 18.9461 34.0263 18.8024 34.0838 18.6635C34.1413 18.5246 34.2228 18.4048 34.3377 18.2946C34.4479 18.1844 34.5725 18.103 34.7162 18.0455C34.8551 17.988 35.0084 17.9593 35.1617 17.9593C35.315 17.9593 35.4683 17.988 35.6072 18.0455C35.7461 18.103 35.8707 18.1844 35.9856 18.2946C36.0958 18.4048 36.182 18.5293 36.2395 18.6683C36.297 18.8072 36.3257 18.9509 36.3257 19.1042V19.109ZM35.9569 19.109C35.9569 18.9988 35.9377 18.8934 35.8994 18.7928C35.8611 18.6922 35.8036 18.606 35.7269 18.5293C35.6551 18.4527 35.5689 18.3952 35.4731 18.3521C35.3772 18.309 35.2766 18.2898 35.1665 18.2898C35.0563 18.2898 34.9557 18.309 34.8599 18.3521C34.7641 18.3952 34.6778 18.4527 34.6012 18.5293C34.5245 18.606 34.4671 18.6922 34.4287 18.7928C34.3904 18.8934 34.3713 18.9988 34.3713 19.109C34.3713 19.2192 34.3904 19.3246 34.4287 19.4204C34.4671 19.521 34.5245 19.6072 34.6012 19.6838C34.6778 19.7605 34.7641 19.818 34.8599 19.8611C34.9557 19.8994 35.0563 19.9234 35.1665 19.9234C35.2766 19.9234 35.3725 19.9042 35.4683 19.8611C35.5641 19.818 35.6503 19.7605 35.7269 19.6838C35.8036 19.6072 35.8611 19.5162 35.8994 19.4204C35.9377 19.3198 35.9569 19.2192 35.9569 19.109Z" fill="#313132"/>
<path d="M37.327 18.3138V20.1868H36.9725V18.3138H36.3928V18.012H37.9018V18.3138H37.327Z" fill="#313132"/>
<path d="M40.297 19.109C40.297 19.2623 40.2683 19.4108 40.2108 19.5449C40.1533 19.6838 40.0671 19.8036 39.9569 19.9138C39.8467 20.024 39.7174 20.1054 39.5785 20.1629C39.4395 20.2204 39.291 20.2491 39.1329 20.2491C38.9749 20.2491 38.8264 20.2204 38.6874 20.1629C38.5437 20.1054 38.4192 20.024 38.309 19.9138C38.1988 19.8036 38.1126 19.6838 38.0551 19.5449C37.9976 19.406 37.9689 19.2623 37.9689 19.1042C37.9689 18.9461 37.9976 18.8024 38.0551 18.6635C38.1126 18.5246 38.1988 18.4048 38.309 18.2946C38.4192 18.1844 38.5437 18.103 38.6874 18.0455C38.8264 17.988 38.9796 17.9593 39.1329 17.9593C39.2862 17.9593 39.4395 17.988 39.5785 18.0455C39.7174 18.103 39.8419 18.1844 39.9569 18.2946C40.0671 18.4048 40.1533 18.5293 40.2108 18.6683C40.2683 18.8072 40.297 18.9509 40.297 19.1042V19.109ZM39.9282 19.109C39.9282 18.9988 39.909 18.8934 39.8707 18.7928C39.8323 18.6922 39.7749 18.606 39.6982 18.5293C39.6264 18.4527 39.5401 18.3952 39.4443 18.3521C39.3485 18.309 39.2479 18.2898 39.1377 18.2898C39.0276 18.2898 38.927 18.309 38.8311 18.3521C38.7353 18.3952 38.6491 18.4527 38.5725 18.5293C38.4958 18.606 38.4383 18.6922 38.4 18.7928C38.3617 18.8934 38.3425 18.9988 38.3425 19.109C38.3425 19.2192 38.3617 19.3246 38.4 19.4204C38.4383 19.521 38.4958 19.6072 38.5725 19.6838C38.6491 19.7605 38.7353 19.818 38.8311 19.8611C38.927 19.8994 39.0276 19.9234 39.1377 19.9234C39.2479 19.9234 39.3437 19.9042 39.4395 19.8611C39.5353 19.818 39.6216 19.7605 39.6982 19.6838C39.7749 19.6072 39.8323 19.5162 39.8707 19.4204C39.909 19.3198 39.9282 19.2192 39.9282 19.109Z" fill="#313132"/>
<path d="M41.0347 19.2144V20.1868H40.7042V18.012H41.1976C41.3413 18.012 41.4563 18.0215 41.5329 18.0407C41.6144 18.0599 41.6814 18.0886 41.7389 18.1317C41.806 18.1844 41.8587 18.2515 41.897 18.3377C41.9353 18.4191 41.9545 18.5102 41.9545 18.6108C41.9545 18.7832 41.9114 18.9221 41.8299 19.018C41.7437 19.1185 41.6192 19.176 41.4563 19.1952L42.2036 20.1868H41.8012L41.0778 19.2144H41.0395H41.0347ZM41.0587 18.9413H41.121C41.3078 18.9413 41.4323 18.9174 41.4946 18.8742C41.5569 18.8311 41.5856 18.7545 41.5856 18.6443C41.5856 18.5245 41.5521 18.4383 41.4898 18.3904C41.4228 18.3425 41.303 18.3185 41.121 18.3185H41.0587V18.9413Z" fill="#313132"/>
<path d="M42.4096 20.1916V18.0168H42.7641V20.1916H42.4096Z" fill="#313132"/>
<path d="M43.976 18.3138V20.1868H43.6216V18.3138H43.0419V18.012H44.5461V18.3138H43.9713H43.976Z" fill="#313132"/>
<path d="M46.0359 20.1916L45.7868 19.6311H44.9246L44.6707 20.1916H44.297L45.3509 17.9305L46.4048 20.1916H46.0311H46.0359ZM45.0587 19.3389H45.6671L45.4467 18.8407C45.4323 18.8072 45.4228 18.7737 45.4084 18.7305C45.394 18.6874 45.3796 18.6443 45.3653 18.5916C45.3557 18.6395 45.3413 18.6826 45.327 18.7258C45.3126 18.7689 45.2982 18.8024 45.2838 18.8407L45.0635 19.3389H45.0587Z" fill="#313132"/>
<path d="M46.491 19.7557L46.7737 19.6263C46.8024 19.7221 46.8503 19.7988 46.9222 19.8467C46.994 19.8994 47.085 19.9233 47.1952 19.9233C47.3054 19.9233 47.382 19.8946 47.4443 19.8371C47.5066 19.7796 47.5353 19.6982 47.5353 19.6024C47.5353 19.473 47.43 19.3629 47.2192 19.2623C47.1904 19.2479 47.1665 19.2383 47.1521 19.2287C46.9126 19.1138 46.7545 19.0084 46.6731 18.9126C46.5916 18.8167 46.5533 18.7018 46.5533 18.5676C46.5533 18.3904 46.6108 18.2467 46.7305 18.1365C46.8503 18.0263 47.0084 17.9736 47.2048 17.9736C47.3677 17.9736 47.5018 18.0024 47.6072 18.0647C47.7174 18.1269 47.7892 18.2132 47.8323 18.3329L47.5545 18.4766C47.5114 18.4096 47.4635 18.3569 47.4108 18.3281C47.3581 18.2946 47.3006 18.2802 47.2335 18.2802C47.1377 18.2802 47.0611 18.3042 47.0084 18.3569C46.9509 18.4048 46.927 18.4718 46.927 18.5533C46.927 18.6826 47.0515 18.8072 47.2958 18.9173C47.315 18.9269 47.3294 18.9317 47.3389 18.9365C47.5545 19.0371 47.703 19.1329 47.7797 19.2287C47.8611 19.3245 47.8994 19.4395 47.8994 19.5832C47.8994 19.7892 47.8323 19.9521 47.703 20.0718C47.5737 20.1916 47.3964 20.2539 47.1761 20.2539C46.9892 20.2539 46.8407 20.2108 46.721 20.1245C46.6012 20.0383 46.5246 19.9185 46.4862 19.7605L46.491 19.7557Z" fill="#313132"/>
<path d="M34.079 23.4443C34.1174 23.4874 34.1509 23.5209 34.1844 23.5401C34.218 23.5593 34.2515 23.5688 34.2898 23.5688C34.3569 23.5688 34.4096 23.5449 34.4335 23.5018C34.4623 23.4539 34.4767 23.3724 34.4767 23.2479V21.6671H34.8264V23.3629C34.8264 23.5449 34.788 23.6838 34.7066 23.77C34.6252 23.8563 34.5006 23.8994 34.3281 23.8994C34.2323 23.8994 34.1461 23.8802 34.0695 23.8419C33.9928 23.8036 33.921 23.7461 33.8491 23.6694L34.0743 23.4443H34.079Z" fill="#313132"/>
<path d="M36.7329 23.8419L36.4838 23.2814H35.6216L35.3677 23.8419H34.994L36.0479 21.5808L37.1018 23.8419H36.7282H36.7329ZM35.7557 22.9892H36.3641L36.1437 22.491C36.1293 22.4575 36.115 22.4239 36.1054 22.3808C36.091 22.3377 36.0767 22.2946 36.0623 22.2419C36.0527 22.2898 36.0383 22.3329 36.024 22.376C36.0096 22.4191 35.9952 22.4575 35.9808 22.491L35.7605 22.9892H35.7557Z" fill="#313132"/>
<path d="M37.188 23.406L37.4707 23.2766C37.4994 23.3724 37.5473 23.4491 37.6192 23.497C37.691 23.5497 37.782 23.5736 37.8922 23.5736C37.9976 23.5736 38.0791 23.5449 38.1413 23.4874C38.2036 23.4299 38.2371 23.3485 38.2371 23.2527C38.2371 23.1233 38.1317 23.0132 37.921 22.9126C37.8922 22.8982 37.8683 22.8886 37.8539 22.879C37.6144 22.7641 37.4563 22.6587 37.3749 22.5629C37.2934 22.467 37.2551 22.3521 37.2551 22.2132C37.2551 22.0359 37.3126 21.8922 37.4371 21.782C37.5569 21.6718 37.715 21.6191 37.9114 21.6191C38.0695 21.6191 38.2036 21.6479 38.3138 21.7102C38.4192 21.7724 38.4958 21.8587 38.5389 21.9784L38.2611 22.1221C38.218 22.0551 38.1701 22.0024 38.1174 21.9736C38.0647 21.9401 38.0072 21.9257 37.9401 21.9257C37.8443 21.9257 37.7677 21.9497 37.715 22.0024C37.6575 22.0503 37.6335 22.1173 37.6335 22.2036C37.6335 22.3329 37.7581 22.4575 38.0024 22.5676C38.0216 22.5772 38.0359 22.582 38.0455 22.5868C38.2611 22.6874 38.4096 22.7832 38.491 22.879C38.5725 22.9748 38.6108 23.0898 38.6108 23.2335C38.6108 23.4395 38.5485 23.6024 38.4144 23.7221C38.285 23.8419 38.1078 23.9042 37.8874 23.9042C37.7006 23.9042 37.5521 23.8611 37.4323 23.7748C37.3126 23.6886 37.2359 23.5688 37.2024 23.4108L37.188 23.406Z" fill="#313132"/>
<path d="M40.4168 23.8419L40.1725 23.2814H39.3102L39.0563 23.8419H38.6826L39.7365 21.5808L40.7904 23.8419H40.4168ZM39.4395 22.9892H40.0479L39.8228 22.491C39.8084 22.4575 39.7988 22.4239 39.7844 22.3808C39.7701 22.3377 39.7557 22.2946 39.7413 22.2419C39.727 22.2898 39.7174 22.3329 39.703 22.376C39.6886 22.4191 39.6791 22.4575 39.6647 22.491L39.4395 22.9892Z" fill="#313132"/>
<path d="M34.0982 27.4922V25.3174H34.4527V26.218L35.2335 25.3174H35.6647L34.8024 26.285L35.7653 27.4922H35.3102L34.4527 26.3809V27.4922H34.0982Z" fill="#313132"/>
<path d="M35.9856 27.4922V25.3174H37.2024V25.6192H36.3449V26.1653H37.2024V26.4767H36.3449V27.1809H37.2024V27.497H35.9856V27.4922Z" fill="#313132"/>
<path d="M37.5952 25.3174H37.9449V26.6395C37.9449 26.8359 37.9928 26.9844 38.079 27.0803C38.1701 27.1809 38.3042 27.2288 38.4862 27.2288C38.6683 27.2288 38.8024 27.1809 38.8934 27.0803C38.9844 26.9797 39.0275 26.8359 39.0275 26.6395V25.3174H39.382V26.6731C39.382 26.9653 39.3054 27.1856 39.1617 27.3341C39.0132 27.4827 38.788 27.5545 38.491 27.5545C38.194 27.5545 37.9689 27.4827 37.8204 27.3341C37.6719 27.1904 37.6 26.9701 37.6 26.6731V25.3174H37.5952Z" fill="#313132"/>
<path d="M41.2503 27.4922L41.006 26.9317H40.1437L39.8898 27.4922H39.5162L40.5701 25.2311L41.624 27.4922H41.2503ZM40.2731 26.6395H40.8814L40.6563 26.1413C40.6419 26.1078 40.6323 26.0743 40.618 26.0311C40.6036 25.988 40.5892 25.9449 40.5749 25.8922C40.5605 25.9401 40.5509 25.9832 40.5365 26.0263C40.5222 26.0695 40.5126 26.1078 40.4982 26.1413L40.2731 26.6395Z" fill="#313132"/>
<path d="M41.8299 27.4922V25.2311L43.2096 26.5629C43.2479 26.6012 43.2862 26.6395 43.3245 26.6826C43.3629 26.7258 43.406 26.7737 43.4491 26.8263V25.3174H43.7748V27.5784L42.3665 26.2228C42.3281 26.1844 42.2946 26.1461 42.2563 26.1078C42.2228 26.0647 42.1892 26.0263 42.1557 25.9784V27.4922H41.8299Z" fill="#313132"/>
<path d="M45.4802 26.3808H46.3425C46.3425 26.3808 46.3425 26.4192 46.3425 26.4431C46.3425 26.515 46.3425 26.5629 46.3425 26.5868C46.3425 26.8934 46.2563 27.1282 46.079 27.3006C45.9018 27.4683 45.6575 27.5545 45.3365 27.5545C45.1593 27.5545 44.9964 27.5305 44.8575 27.4779C44.7186 27.4252 44.594 27.3485 44.4886 27.2383C44.388 27.1329 44.3066 27.0084 44.2539 26.8695C44.1964 26.7258 44.1725 26.5773 44.1725 26.4144C44.1725 26.2515 44.2012 26.0982 44.2539 25.9593C44.3114 25.8204 44.3928 25.6958 44.503 25.5904C44.6084 25.485 44.7329 25.4084 44.8766 25.3509C45.0204 25.2982 45.1737 25.2695 45.3365 25.2695C45.509 25.2695 45.6623 25.303 45.7964 25.3653C45.9305 25.4276 46.0503 25.5234 46.1557 25.6527L45.897 25.8491C45.8251 25.7629 45.7389 25.7006 45.6479 25.6575C45.5569 25.6144 45.4515 25.5952 45.3365 25.5952C45.1018 25.5952 44.9102 25.6719 44.7569 25.8204C44.6084 25.9737 44.5365 26.1701 44.5365 26.4096C44.5365 26.6491 44.6084 26.8551 44.7569 27.0084C44.9054 27.1617 45.1018 27.2383 45.3365 27.2383C45.5377 27.2383 45.6958 27.1904 45.8156 27.0994C45.9305 27.0036 45.988 26.8791 45.988 26.7162V26.6826H45.4659V26.3856L45.4802 26.3808Z" fill="#313132"/>
<path d="M48.1581 27.4922L47.909 26.9317H47.0467L46.7928 27.4922H46.4192L47.4731 25.2311L48.5269 27.4922H48.1533H48.1581ZM47.1808 26.6395H47.7892L47.5689 26.1413C47.5545 26.1078 47.5401 26.0743 47.5305 26.0311C47.5162 25.988 47.5018 25.9449 47.4874 25.8922C47.4778 25.9401 47.4635 25.9832 47.4491 26.0263C47.4347 26.0695 47.4204 26.1078 47.406 26.1413L47.1856 26.6395H47.1808Z" fill="#313132"/>
<path d="M48.7329 27.4922V25.2311L50.1174 26.5629C50.1557 26.6012 50.194 26.6395 50.2323 26.6826C50.2707 26.7258 50.309 26.7737 50.3521 26.8263V25.3174H50.6778V27.5784L49.2695 26.2228C49.2311 26.1844 49.1976 26.1461 49.1593 26.1078C49.1258 26.0647 49.0922 26.0263 49.0587 25.9784V27.4922H48.7329Z" fill="#313132"/>
</g>
<defs>
<radialGradient id="paint0_radial_301_5906" cx="0" cy="0" r="1" gradientUnits="userSpaceOnUse" gradientTransform="translate(20.479 22.3138) scale(8.29701)">
<stop stop-color="#C40015"/>
<stop offset="0.14" stop-color="#AC0114"/>
<stop offset="0.37" stop-color="#8E0413"/>
<stop offset="0.59" stop-color="#770612"/>
<stop offset="0.81" stop-color="#6A0712"/>
<stop offset="1" stop-color="#660812"/>
</radialGradient>
<radialGradient id="paint1_radial_301_5906" cx="0" cy="0" r="1" gradientUnits="userSpaceOnUse" gradientTransform="translate(20.4791 22.3138) scale(8.29701)">
<stop stop-color="#C40015"/>
<stop offset="0.14" stop-color="#AC0114"/>
<stop offset="0.37" stop-color="#8E0413"/>
<stop offset="0.59" stop-color="#770612"/>
<stop offset="0.81" stop-color="#6A0712"/>
<stop offset="1" stop-color="#660812"/>
</radialGradient>
<linearGradient id="paint2_linear_301_5906" x1="25.3701" y1="16.7521" x2="7.02276" y2="13.3269" gradientUnits="userSpaceOnUse">
<stop stop-color="#E77D62"/>
<stop offset="0.02" stop-color="#D76854"/>
<stop offset="0.04" stop-color="#C24B41"/>
<stop offset="0.07" stop-color="#B13532"/>
<stop offset="0.1" stop-color="#A62628"/>
<stop offset="0.14" stop-color="#9F1C21"/>
<stop offset="0.19" stop-color="#9D1A20"/>
<stop offset="0.22" stop-color="#A01E23"/>
<stop offset="0.26" stop-color="#AA2B2B"/>
<stop offset="0.3" stop-color="#BA423A"/>
<stop offset="0.34" stop-color="#D1604F"/>
<stop offset="0.38" stop-color="#E77D62"/>
<stop offset="0.43" stop-color="#D76753"/>
<stop offset="0.52" stop-color="#C24B41"/>
<stop offset="0.61" stop-color="#B13532"/>
<stop offset="0.71" stop-color="#A52628"/>
<stop offset="0.83" stop-color="#9F1C21"/>
<stop offset="1" stop-color="#9D1A20"/>
</linearGradient>
<linearGradient id="paint3_linear_301_5906" x1="2.19402" y1="17.5473" x2="27.588" y2="16.5749" gradientUnits="userSpaceOnUse">
<stop stop-color="#7F8083"/>
<stop offset="0.15" stop-color="#818285"/>
<stop offset="0.26" stop-color="#8B8B8E"/>
<stop offset="0.35" stop-color="#9A9B9D"/>
<stop offset="0.44" stop-color="#B0B1B3"/>
<stop offset="0.52" stop-color="#CCCDCE"/>
<stop offset="0.59" stop-color="#EFEFEF"/>
<stop offset="0.62" stop-color="white"/>
<stop offset="0.64" stop-color="#F1F2F2"/>
<stop offset="0.69" stop-color="#D3D4D5"/>
<stop offset="0.73" stop-color="#BCBEC0"/>
<stop offset="0.77" stop-color="#AFB1B4"/>
<stop offset="0.81" stop-color="#ABADB0"/>
<stop offset="0.87" stop-color="#ADAFB2"/>
<stop offset="0.9" stop-color="#B7B8BB"/>
<stop offset="0.94" stop-color="#C6C8CA"/>
<stop offset="0.97" stop-color="#DCDDDE"/>
<stop offset="1" stop-color="white"/>
</linearGradient>
<clipPath id="clip0_301_5906">
<rect width="42.6778" height="16" fill="white" transform="translate(8 12)"/>
</clipPath>
</defs>
</svg>
