<svg width="34" height="24" viewBox="0 0 34 24" fill="none" xmlns="http://www.w3.org/2000/svg">
<g clip-path="url(#clip0_301_5804)">
<path d="M11.2335 10.5809V15.024C11.2096 15.3922 11.1048 15.7994 10.6766 15.7994C10.482 15.7994 10.3952 15.7545 10.3533 15.6767C10.7066 15.1497 10.9162 14.503 10.9162 13.7994C10.9162 13.3833 10.8413 12.9851 10.7066 12.6198C10.6826 12.5569 10.6587 12.497 10.6317 12.4372C10.1647 11.3623 9.16766 10.6168 8.00599 10.6168C6.4012 10.6168 5.0988 12.039 5.0988 13.7964C5.0988 15.5539 6.4012 16.9761 8.00599 16.9761C8.50299 16.9761 8.97305 16.8384 9.38323 16.5988C9.72155 16.8414 10.1287 16.9851 10.5689 16.9851C11.5479 16.9851 12.3683 16.2815 12.5958 15.3354V10.5809H11.2245H11.2335ZM8.67664 15.7186C8.47305 15.8354 8.2485 15.9042 8.01197 15.9042C7.10778 15.9042 6.37724 14.9551 6.37724 13.7845C6.37724 12.6138 7.11078 11.6647 8.01197 11.6647C8.67964 11.6647 9.25149 12.1827 9.50599 12.9222C9.59581 13.1857 9.64671 13.4761 9.64671 13.7845C9.64671 14.6467 9.2485 15.3893 8.67664 15.7186Z" fill="url(#paint0_radial_301_5804)"/>
<path d="M13 13.012V14.9431L13.8383 14.1647L15.7455 17H17.6347L14.9491 12.9521L17.2605 10.491H15.1587L13 13.012Z" fill="url(#paint1_radial_301_5804)"/>
<path d="M17.3323 10.5509C16.9671 10.5868 16.5329 10.5928 16.021 10.5389C15.991 10.5389 15.9641 10.5389 15.9371 10.5329C13.8473 9.91916 13.1976 9.03892 11.8713 8.02096C10.4551 6.93114 7.05988 6.19461 4 8.61078C4 8.61078 5.0479 9.21557 5.52695 10.2395C5.53593 10.2575 5.54491 10.2754 5.55389 10.2934C6.02695 11.3503 6.1018 12.2605 6.1018 12.2605C6.1018 12.2605 7.83832 10.2754 9.98503 10.1976C11.7964 10.1317 13.8982 10.8353 15.5659 11.021C15.8743 11.0539 16.1677 11.0719 16.4431 11.0629C18.1946 11 18.8653 9.99401 18.8653 9.99401C18.8653 9.99401 18.4341 10.4401 17.3383 10.5509H17.3323Z" fill="#313132"/>
<path d="M10.6078 8.84133C13.1737 9.52397 13.8473 10.4162 15.9341 10.4012C15.9701 10.4012 16 10.3982 16.0329 10.3982C16.003 10.3982 15.9761 10.3982 15.9491 10.3922C13.8683 9.81139 13.2246 8.97906 11.9042 8.01499C10.497 6.98505 7.26946 6.2575 4.22755 8.54493C4.22755 8.54493 5.11976 9.14672 5.59581 10.1138C5.68264 10.015 5.76647 9.92517 5.8533 9.83834C7.51797 8.11678 9.11078 8.44313 10.6108 8.84133H10.6078Z" fill="url(#paint2_linear_301_5804)"/>
<path d="M17.3353 10.4102C16.9731 10.4461 16.5389 10.4491 16.0299 10.3982C15.994 10.3982 15.9641 10.4012 15.9311 10.4012C13.8473 10.4162 12.7066 9.26347 10.7665 8.63772C9.29042 8.16167 7.51198 8.11377 5.84731 9.83532C5.76048 9.92215 5.67665 10.012 5.58982 10.1108C5.5988 10.1287 5.60778 10.1437 5.61677 10.1617C6.08683 11.1617 6.16168 12.0239 6.16168 12.0239C6.16168 12.0239 7.88922 10.1467 10.024 10.0689C11.8263 10.006 13.9162 10.6736 15.5749 10.8473C15.8802 10.8802 16.1737 10.8982 16.4461 10.8862C18.1886 10.8263 18.8832 9.91616 18.8832 9.91616C18.8832 9.91616 18.4251 10.2964 17.3353 10.4042V10.4102Z" fill="url(#paint3_linear_301_5804)"/>
<path d="M19.2305 10.497H18.9461V16.9192H19.2305V10.497Z" fill="#660812"/>
<path d="M21.7036 11.4431C21.7036 11.5389 21.6856 11.6317 21.6497 11.7156C21.6138 11.8024 21.5599 11.8772 21.491 11.9461C21.4222 12.015 21.3413 12.0659 21.2545 12.1018C21.1677 12.1377 21.0748 12.1557 20.976 12.1557C20.8772 12.1557 20.7844 12.1377 20.6976 12.1018C20.6078 12.0659 20.5299 12.015 20.4611 11.9461C20.3922 11.8772 20.3383 11.8024 20.3024 11.7156C20.2665 11.6287 20.2485 11.5389 20.2485 11.4401C20.2485 11.3413 20.2665 11.2515 20.3024 11.1647C20.3383 11.0778 20.3892 11.003 20.4611 10.9341C20.5299 10.8653 20.6078 10.8144 20.6976 10.7784C20.7844 10.7425 20.8802 10.7245 20.976 10.7245C21.0719 10.7245 21.1677 10.7425 21.2545 10.7784C21.3413 10.8144 21.4192 10.8653 21.491 10.9341C21.5599 11.003 21.6138 11.0808 21.6497 11.1677C21.6856 11.2545 21.7036 11.3443 21.7036 11.4401V11.4431ZM21.4731 11.4431C21.4731 11.3742 21.4611 11.3084 21.4371 11.2455C21.4132 11.1826 21.3772 11.1287 21.3293 11.0808C21.2844 11.0329 21.2305 10.997 21.1707 10.9701C21.1108 10.9431 21.0479 10.9311 20.979 10.9311C20.9102 10.9311 20.8473 10.9431 20.7874 10.9701C20.7275 10.997 20.6737 11.0329 20.6257 11.0808C20.5778 11.1287 20.5419 11.1826 20.518 11.2455C20.494 11.3084 20.482 11.3742 20.482 11.4431C20.482 11.512 20.494 11.5778 20.518 11.6377C20.5419 11.7006 20.5778 11.7545 20.6257 11.8024C20.6737 11.8503 20.7275 11.8862 20.7874 11.9132C20.8473 11.9371 20.9102 11.9521 20.979 11.9521C21.0479 11.9521 21.1078 11.9401 21.1677 11.9132C21.2275 11.8862 21.2814 11.8503 21.3293 11.8024C21.3772 11.7545 21.4132 11.6976 21.4371 11.6377C21.4611 11.5748 21.4731 11.512 21.4731 11.4431Z" fill="#313132"/>
<path d="M22.3293 10.9461V12.1168H22.1078V10.9461H21.7455V10.7575H22.6886V10.9461H22.3293Z" fill="#313132"/>
<path d="M24.1856 11.4431C24.1856 11.5389 24.1677 11.6317 24.1317 11.7156C24.0958 11.8024 24.0419 11.8772 23.9731 11.9461C23.9042 12.015 23.8234 12.0659 23.7365 12.1018C23.6497 12.1377 23.5569 12.1557 23.4581 12.1557C23.3593 12.1557 23.2665 12.1377 23.1796 12.1018C23.0898 12.0659 23.012 12.015 22.9431 11.9461C22.8742 11.8772 22.8204 11.8024 22.7844 11.7156C22.7485 11.6287 22.7305 11.5389 22.7305 11.4401C22.7305 11.3413 22.7485 11.2515 22.7844 11.1647C22.8204 11.0778 22.8742 11.003 22.9431 10.9341C23.012 10.8653 23.0898 10.8144 23.1796 10.7784C23.2665 10.7425 23.3623 10.7245 23.4581 10.7245C23.5539 10.7245 23.6497 10.7425 23.7365 10.7784C23.8234 10.8144 23.9012 10.8653 23.9731 10.9341C24.0419 11.003 24.0958 11.0808 24.1317 11.1677C24.1677 11.2545 24.1856 11.3443 24.1856 11.4401V11.4431ZM23.9551 11.4431C23.9551 11.3742 23.9431 11.3084 23.9192 11.2455C23.8952 11.1826 23.8593 11.1287 23.8114 11.0808C23.7665 11.0329 23.7126 10.997 23.6527 10.9701C23.5928 10.9431 23.5299 10.9311 23.4611 10.9311C23.3922 10.9311 23.3293 10.9431 23.2695 10.9701C23.2096 10.997 23.1557 11.0329 23.1078 11.0808C23.0599 11.1287 23.0239 11.1826 23 11.2455C22.976 11.3084 22.9641 11.3742 22.9641 11.4431C22.9641 11.512 22.976 11.5778 23 11.6377C23.0239 11.7006 23.0599 11.7545 23.1078 11.8024C23.1557 11.8503 23.2096 11.8862 23.2695 11.9132C23.3293 11.9371 23.3922 11.9521 23.4611 11.9521C23.5299 11.9521 23.5898 11.9401 23.6497 11.9132C23.7096 11.8862 23.7635 11.8503 23.8114 11.8024C23.8593 11.7545 23.8952 11.6976 23.9192 11.6377C23.9431 11.5748 23.9551 11.512 23.9551 11.4431Z" fill="#313132"/>
<path d="M24.6467 11.509V12.1168H24.4401V10.7575H24.7485C24.8383 10.7575 24.9102 10.7635 24.9581 10.7755C25.009 10.7874 25.0509 10.8054 25.0868 10.8324C25.1287 10.8653 25.1617 10.9072 25.1856 10.9611C25.2096 11.012 25.2216 11.0689 25.2216 11.1318C25.2216 11.2395 25.1946 11.3264 25.1437 11.3862C25.0898 11.4491 25.012 11.4851 24.9102 11.497L25.3772 12.1168H25.1257L24.6737 11.509H24.6497H24.6467ZM24.6617 11.3383H24.7006C24.8174 11.3383 24.8952 11.3234 24.9341 11.2964C24.9731 11.2695 24.991 11.2216 24.991 11.1527C24.991 11.0779 24.9701 11.024 24.9311 10.994C24.8892 10.9641 24.8144 10.9491 24.7006 10.9491H24.6617V11.3383Z" fill="#313132"/>
<path d="M25.506 12.1198V10.7605H25.7275V12.1198H25.506Z" fill="#313132"/>
<path d="M26.485 10.9461V12.1168H26.2635V10.9461H25.9012V10.7575H26.8413V10.9461H26.482H26.485Z" fill="#313132"/>
<path d="M27.7725 12.1198L27.6168 11.7695H27.0778L26.9192 12.1198H26.6856L27.3443 10.7066L28.003 12.1198H27.7695H27.7725ZM27.1617 11.5868H27.5419L27.4042 11.2755C27.3952 11.2545 27.3892 11.2336 27.3802 11.2066C27.3713 11.1797 27.3623 11.1527 27.3533 11.1198C27.3473 11.1497 27.3383 11.1767 27.3293 11.2036C27.3204 11.2306 27.3114 11.2515 27.3024 11.2755L27.1647 11.5868H27.1617Z" fill="#313132"/>
<path d="M28.0569 11.8473L28.2335 11.7665C28.2515 11.8263 28.2814 11.8742 28.3263 11.9042C28.3713 11.9371 28.4281 11.9521 28.497 11.9521C28.5659 11.9521 28.6138 11.9341 28.6527 11.8982C28.6916 11.8623 28.7096 11.8114 28.7096 11.7515C28.7096 11.6706 28.6437 11.6018 28.512 11.5389C28.494 11.5299 28.479 11.5239 28.4701 11.518C28.3204 11.4461 28.2216 11.3802 28.1707 11.3203C28.1198 11.2605 28.0958 11.1886 28.0958 11.1048C28.0958 10.994 28.1317 10.9042 28.2066 10.8353C28.2814 10.7665 28.3802 10.7335 28.503 10.7335C28.6048 10.7335 28.6886 10.7515 28.7545 10.7904C28.8233 10.8293 28.8683 10.8832 28.8952 10.9581L28.7216 11.0479C28.6946 11.006 28.6647 10.973 28.6317 10.9551C28.5988 10.9341 28.5629 10.9251 28.521 10.9251C28.4611 10.9251 28.4132 10.9401 28.3802 10.973C28.3443 11.003 28.3293 11.0449 28.3293 11.0958C28.3293 11.1766 28.4072 11.2545 28.5599 11.3233C28.5719 11.3293 28.5808 11.3323 28.5868 11.3353C28.7216 11.3982 28.8144 11.4581 28.8623 11.518C28.9132 11.5778 28.9371 11.6497 28.9371 11.7395C28.9371 11.8683 28.8952 11.97 28.8144 12.0449C28.7335 12.1197 28.6227 12.1587 28.485 12.1587C28.3683 12.1587 28.2754 12.1317 28.2006 12.0778C28.1257 12.0239 28.0778 11.9491 28.0539 11.8503L28.0569 11.8473Z" fill="#313132"/>
<path d="M20.2994 14.1527C20.3233 14.1797 20.3443 14.2006 20.3653 14.2126C20.3862 14.2246 20.4072 14.2306 20.4311 14.2306C20.4731 14.2306 20.506 14.2156 20.521 14.1886C20.5389 14.1587 20.5479 14.1078 20.5479 14.03V13.0419H20.7665V14.1018C20.7665 14.2156 20.7425 14.3024 20.6916 14.3563C20.6407 14.4102 20.5629 14.4371 20.4551 14.4371C20.3952 14.4371 20.3413 14.4252 20.2934 14.4012C20.2455 14.3773 20.2006 14.3413 20.1557 14.2934L20.2964 14.1527H20.2994Z" fill="#313132"/>
<path d="M21.9581 14.4012L21.8024 14.0509H21.2635L21.1048 14.4012H20.8713L21.5299 12.988L22.1886 14.4012H21.9551H21.9581ZM21.3473 13.8683H21.7275L21.5898 13.5569C21.5808 13.5359 21.5719 13.515 21.5659 13.488C21.5569 13.4611 21.5479 13.4341 21.5389 13.4012C21.5329 13.4312 21.5239 13.4581 21.515 13.485C21.506 13.512 21.497 13.5359 21.488 13.5569L21.3503 13.8683H21.3473Z" fill="#313132"/>
<path d="M22.2425 14.1287L22.4192 14.0479C22.4371 14.1078 22.4671 14.1557 22.512 14.1856C22.5569 14.2185 22.6138 14.2335 22.6826 14.2335C22.7485 14.2335 22.7994 14.2156 22.8383 14.1796C22.8772 14.1437 22.8982 14.0928 22.8982 14.0329C22.8982 13.9521 22.8323 13.8832 22.7006 13.8203C22.6826 13.8114 22.6677 13.8054 22.6587 13.7994C22.509 13.7275 22.4102 13.6617 22.3593 13.6018C22.3084 13.5419 22.2844 13.47 22.2844 13.3832C22.2844 13.2724 22.3204 13.1826 22.3982 13.1138C22.4731 13.0449 22.5719 13.012 22.6946 13.012C22.7934 13.012 22.8772 13.0299 22.9461 13.0688C23.012 13.1078 23.0599 13.1617 23.0868 13.2365L22.9132 13.3263C22.8862 13.2844 22.8563 13.2515 22.8233 13.2335C22.7904 13.2126 22.7545 13.2036 22.7126 13.2036C22.6527 13.2036 22.6048 13.2185 22.5719 13.2515C22.5359 13.2814 22.521 13.3233 22.521 13.3772C22.521 13.4581 22.5988 13.5359 22.7515 13.6048C22.7635 13.6108 22.7725 13.6138 22.7784 13.6168C22.9132 13.6796 23.006 13.7395 23.0569 13.7994C23.1078 13.8593 23.1317 13.9311 23.1317 14.0209C23.1317 14.1497 23.0928 14.2515 23.009 14.3263C22.9281 14.4012 22.8174 14.4401 22.6796 14.4401C22.5629 14.4401 22.4701 14.4132 22.3952 14.3593C22.3204 14.3054 22.2725 14.2305 22.2515 14.1317L22.2425 14.1287Z" fill="#313132"/>
<path d="M24.2605 14.4012L24.1078 14.0509H23.5689L23.4102 14.4012H23.1766L23.8353 12.988L24.494 14.4012H24.2605ZM23.6497 13.8683H24.0299L23.8892 13.5569C23.8802 13.5359 23.8742 13.515 23.8653 13.488C23.8563 13.4611 23.8473 13.4341 23.8383 13.4012C23.8293 13.4312 23.8233 13.4581 23.8144 13.485C23.8054 13.512 23.7994 13.5359 23.7904 13.5569L23.6497 13.8683Z" fill="#313132"/>
<path d="M20.3114 16.6826V15.3234H20.5329V15.8862L21.021 15.3234H21.2904L20.7515 15.9282L21.3533 16.6826H21.0689L20.5329 15.988V16.6826H20.3114Z" fill="#313132"/>
<path d="M21.491 16.6826V15.3234H22.2515V15.512H21.7156V15.8533H22.2515V16.0479H21.7156V16.488H22.2515V16.6856H21.491V16.6826Z" fill="#313132"/>
<path d="M22.497 15.3234H22.7156V16.1497C22.7156 16.2725 22.7455 16.3653 22.7994 16.4252C22.8563 16.488 22.9401 16.518 23.0539 16.518C23.1677 16.518 23.2515 16.488 23.3084 16.4252C23.3653 16.3623 23.3922 16.2725 23.3922 16.1497V15.3234H23.6138V16.1707C23.6138 16.3533 23.5659 16.491 23.476 16.5838C23.3832 16.6767 23.2425 16.7216 23.0569 16.7216C22.8713 16.7216 22.7305 16.6767 22.6377 16.5838C22.5449 16.494 22.5 16.3563 22.5 16.1707V15.3234H22.497Z" fill="#313132"/>
<path d="M24.7814 16.6826L24.6287 16.3323H24.0898L23.9311 16.6826H23.6976L24.3563 15.2695L25.015 16.6826H24.7814ZM24.1707 16.1497H24.5509L24.4102 15.8383C24.4012 15.8174 24.3952 15.7964 24.3862 15.7695C24.3772 15.7425 24.3683 15.7156 24.3593 15.6826C24.3503 15.7126 24.3443 15.7395 24.3353 15.7665C24.3263 15.7934 24.3204 15.8174 24.3114 15.8383L24.1707 16.1497Z" fill="#313132"/>
<path d="M25.1437 16.6826V15.2695L26.006 16.1018C26.0299 16.1258 26.0539 16.1497 26.0778 16.1767C26.1018 16.2036 26.1287 16.2335 26.1557 16.2665V15.3234H26.3593V16.7365L25.479 15.8892C25.4551 15.8653 25.4341 15.8413 25.4102 15.8174C25.3892 15.7904 25.3683 15.7665 25.3473 15.7365V16.6826H25.1437Z" fill="#313132"/>
<path d="M27.4251 15.9881H27.9641C27.9641 15.9881 27.9641 16.012 27.9641 16.027C27.9641 16.0719 27.9641 16.1018 27.9641 16.1168C27.9641 16.3084 27.9102 16.4551 27.7994 16.5629C27.6886 16.6677 27.5359 16.7216 27.3353 16.7216C27.2245 16.7216 27.1228 16.7066 27.0359 16.6737C26.9491 16.6408 26.8713 16.5929 26.8054 16.524C26.7425 16.4581 26.6916 16.3803 26.6587 16.2935C26.6227 16.2036 26.6078 16.1108 26.6078 16.009C26.6078 15.9072 26.6257 15.8114 26.6587 15.7246C26.6946 15.6378 26.7455 15.5599 26.8144 15.4941C26.8802 15.4282 26.9581 15.3803 27.0479 15.3444C27.1377 15.3114 27.2335 15.2935 27.3353 15.2935C27.4431 15.2935 27.5389 15.3144 27.6228 15.3533C27.7066 15.3923 27.7814 15.4521 27.8473 15.533L27.6856 15.6557C27.6407 15.6018 27.5868 15.5629 27.5299 15.536C27.473 15.509 27.4072 15.497 27.3353 15.497C27.1886 15.497 27.0689 15.545 26.9731 15.6378C26.8802 15.7336 26.8353 15.8563 26.8353 16.006C26.8353 16.1557 26.8802 16.2845 26.9731 16.3803C27.0659 16.4761 27.1886 16.524 27.3353 16.524C27.4611 16.524 27.5599 16.4941 27.6347 16.4372C27.7066 16.3773 27.7425 16.2994 27.7425 16.1976V16.1767H27.4162V15.9911L27.4251 15.9881Z" fill="#313132"/>
<path d="M29.0988 16.6826L28.9431 16.3323H28.4042L28.2455 16.6826H28.012L28.6707 15.2695L29.3293 16.6826H29.0958H29.0988ZM28.488 16.1497H28.8683L28.7305 15.8383C28.7216 15.8174 28.7126 15.7964 28.7066 15.7695C28.6976 15.7425 28.6886 15.7156 28.6796 15.6826C28.6736 15.7126 28.6647 15.7395 28.6557 15.7665C28.6467 15.7934 28.6377 15.8174 28.6287 15.8383L28.491 16.1497H28.488Z" fill="#313132"/>
<path d="M29.4581 16.6826V15.2695L30.3233 16.1018C30.3473 16.1258 30.3713 16.1497 30.3952 16.1767C30.4192 16.2036 30.4431 16.2335 30.4701 16.2665V15.3234H30.6736V16.7365L29.7934 15.8892C29.7695 15.8653 29.7485 15.8413 29.7245 15.8174C29.7036 15.7904 29.6826 15.7665 29.6617 15.7365V16.6826H29.4581Z" fill="#313132"/>
</g>
<defs>
<radialGradient id="paint0_radial_301_5804" cx="0" cy="0" r="1" gradientUnits="userSpaceOnUse" gradientTransform="translate(11.7994 13.4461) scale(5.18563)">
<stop stop-color="#C40015"/>
<stop offset="0.14" stop-color="#AC0114"/>
<stop offset="0.37" stop-color="#8E0413"/>
<stop offset="0.59" stop-color="#770612"/>
<stop offset="0.81" stop-color="#6A0712"/>
<stop offset="1" stop-color="#660812"/>
</radialGradient>
<radialGradient id="paint1_radial_301_5804" cx="0" cy="0" r="1" gradientUnits="userSpaceOnUse" gradientTransform="translate(11.7994 13.4461) scale(5.18563)">
<stop stop-color="#C40015"/>
<stop offset="0.14" stop-color="#AC0114"/>
<stop offset="0.37" stop-color="#8E0413"/>
<stop offset="0.59" stop-color="#770612"/>
<stop offset="0.81" stop-color="#6A0712"/>
<stop offset="1" stop-color="#660812"/>
</radialGradient>
<linearGradient id="paint2_linear_301_5804" x1="14.8563" y1="9.97008" x2="3.38922" y2="7.82936" gradientUnits="userSpaceOnUse">
<stop stop-color="#E77D62"/>
<stop offset="0.02" stop-color="#D76854"/>
<stop offset="0.04" stop-color="#C24B41"/>
<stop offset="0.07" stop-color="#B13532"/>
<stop offset="0.1" stop-color="#A62628"/>
<stop offset="0.14" stop-color="#9F1C21"/>
<stop offset="0.19" stop-color="#9D1A20"/>
<stop offset="0.22" stop-color="#A01E23"/>
<stop offset="0.26" stop-color="#AA2B2B"/>
<stop offset="0.3" stop-color="#BA423A"/>
<stop offset="0.34" stop-color="#D1604F"/>
<stop offset="0.38" stop-color="#E77D62"/>
<stop offset="0.43" stop-color="#D76753"/>
<stop offset="0.52" stop-color="#C24B41"/>
<stop offset="0.61" stop-color="#B13532"/>
<stop offset="0.71" stop-color="#A52628"/>
<stop offset="0.83" stop-color="#9F1C21"/>
<stop offset="1" stop-color="#9D1A20"/>
</linearGradient>
<linearGradient id="paint3_linear_301_5804" x1="0.371259" y1="10.4671" x2="16.2425" y2="9.85928" gradientUnits="userSpaceOnUse">
<stop stop-color="#7F8083"/>
<stop offset="0.15" stop-color="#818285"/>
<stop offset="0.26" stop-color="#8B8B8E"/>
<stop offset="0.35" stop-color="#9A9B9D"/>
<stop offset="0.44" stop-color="#B0B1B3"/>
<stop offset="0.52" stop-color="#CCCDCE"/>
<stop offset="0.59" stop-color="#EFEFEF"/>
<stop offset="0.62" stop-color="white"/>
<stop offset="0.64" stop-color="#F1F2F2"/>
<stop offset="0.69" stop-color="#D3D4D5"/>
<stop offset="0.73" stop-color="#BCBEC0"/>
<stop offset="0.77" stop-color="#AFB1B4"/>
<stop offset="0.81" stop-color="#ABADB0"/>
<stop offset="0.87" stop-color="#ADAFB2"/>
<stop offset="0.9" stop-color="#B7B8BB"/>
<stop offset="0.94" stop-color="#C6C8CA"/>
<stop offset="0.97" stop-color="#DCDDDE"/>
<stop offset="1" stop-color="white"/>
</linearGradient>
<clipPath id="clip0_301_5804">
<rect width="26.6737" height="10" fill="white" transform="translate(4 7)"/>
</clipPath>
</defs>
</svg>
