<svg width="58" height="40" viewBox="0 0 58 40" fill="none" xmlns="http://www.w3.org/2000/svg">
<path d="M24.2318 20.7262V20.7377C24.2281 21.0087 24.0402 21.1021 23.7936 21.1008H23.5843V21.5506H23.292V20.3631H23.8022C24.0219 20.3631 24.2104 20.4308 24.2306 20.6834L24.2318 20.7048V20.7262ZM23.9315 20.7341L23.9309 20.7249C23.9334 20.6139 23.8339 20.6206 23.7509 20.6163H23.5843V20.8476H23.7478C23.8211 20.8439 23.9285 20.8543 23.9303 20.7524L23.9309 20.7438L23.9315 20.7341ZM25.4132 21.5506H25.0959L25.0153 21.312H24.6242L24.543 21.5506H24.2336L24.6718 20.3631H24.9799L25.4132 21.5506ZM24.9342 21.0703L24.8219 20.7286L24.7084 21.0703H24.9342ZM26.6331 21.5506H26.364L25.9124 20.8207V21.5506H25.6329V20.3631H25.913L26.353 21.0905V20.3631H26.6331V21.5506ZM27.2299 21.5506H26.9376V20.3624H27.2299V21.5506ZM28.5346 21.5506H28.2661L27.8146 20.8207V21.5506H27.5351V20.3631H27.8152L28.2545 21.0905V20.3631H28.5346V21.5506ZM32.0552 21.5506H31.7385L31.6579 21.312H31.2667L31.1862 21.5506H30.8768L31.3143 20.3631H31.6231L32.0552 21.5506ZM31.5774 21.0703L31.4645 20.7286L31.351 21.0703H31.5774ZM33.2757 21.5506H33.0066L32.5556 20.8207V21.5506H32.2761V20.3631H32.5556L32.9956 21.0905V20.3631H33.2757V21.5506ZM34.7165 21.5506H34.3448L33.9665 21.0215L33.878 21.1069V21.5506H33.5857V20.3631H33.878V20.7737L34.3223 20.3631H34.7024L34.1886 20.8159" fill="#007DC5"/>
<path fill-rule="evenodd" clip-rule="evenodd" d="M29.6507 20.3691H30.2426C30.3543 20.3697 30.4367 20.3917 30.491 20.4344C30.5453 20.4771 30.5819 20.5241 30.5996 20.5754C30.6051 20.5918 30.6094 20.6083 30.6118 20.6248C30.6149 20.6407 30.6161 20.6571 30.6161 20.6724C30.6161 20.7279 30.607 20.7712 30.588 20.8036C30.5697 20.8365 30.549 20.8603 30.5276 20.8768C30.5166 20.8854 30.5057 20.8927 30.4959 20.8976C30.4855 20.9031 30.4758 20.9086 30.4678 20.9128C30.5417 20.9403 30.5917 20.98 30.6173 21.0324C30.6424 21.0849 30.6558 21.1398 30.6558 21.1972C30.6558 21.2448 30.646 21.2893 30.6265 21.3315C30.607 21.373 30.5819 21.4096 30.5502 21.4401C30.549 21.4413 30.5478 21.4419 30.5472 21.4425C30.5465 21.4437 30.5459 21.4444 30.5459 21.445C30.5118 21.4755 30.4703 21.4999 30.4208 21.5182C30.3726 21.5359 30.2872 21.545 30.167 21.545H29.6507V20.3691ZM29.9406 21.3418H30.1969C30.2475 21.3431 30.2872 21.3296 30.3153 21.3022C30.3439 21.2753 30.3574 21.2308 30.3574 21.171C30.3574 21.1203 30.3421 21.0843 30.3116 21.0623C30.2811 21.0404 30.2481 21.0282 30.2121 21.0276H29.9406V21.3418ZM29.9406 20.8292H30.1773C30.2164 20.8304 30.25 20.8207 30.278 20.8005C30.3055 20.7804 30.3189 20.7468 30.3189 20.6998C30.3189 20.651 30.3061 20.6175 30.2793 20.5998C30.253 20.5808 30.2164 20.5717 30.1706 20.5717H29.9406" fill="#007DC5"/>
<path fill-rule="evenodd" clip-rule="evenodd" d="M22.6817 7.99997H35.326L35.3919 8.0018L35.4609 8.00668C36.123 8.07564 36.6393 8.62182 36.6741 9.28638L36.6753 9.35229V21.495C36.6753 22.159 36.184 22.7308 35.528 22.8315L35.4609 22.8406L35.3919 22.8455L35.326 22.8474H22.6817C22.0153 22.8461 21.4508 22.3543 21.3483 21.6976L21.3397 21.6299L21.3342 21.5609L21.333 21.495V9.35229L21.3342 9.28638L21.3397 9.21742L21.3483 9.14968L21.3599 9.08317L21.3757 9.01787L21.394 8.95318C21.4276 8.84517 21.4709 8.74997 21.5295 8.65355L21.5643 8.59802L21.6021 8.54553L21.6424 8.49427C21.8218 8.27519 22.0732 8.11348 22.3479 8.04269L22.4132 8.02743L22.4797 8.01584L22.5474 8.00668L22.6164 8.0018L22.6817 7.99997ZM22.6865 8.371H35.3218L35.373 8.37283L35.4231 8.3765C35.9027 8.42593 36.2799 8.82442 36.3037 9.3053L36.3055 9.35717V21.4902C36.3061 21.9735 35.9497 22.3915 35.4719 22.4647L35.4231 22.4714L35.373 22.4751L35.3218 22.4763H22.6865C22.2026 22.4775 21.7883 22.1181 21.7144 21.6415L21.7083 21.5921L21.704 21.542L21.7028 21.4902V9.35717L21.704 9.3053L21.7083 9.25525L21.7144 9.20644L21.723 9.15762L21.7339 9.11063L21.7474 9.06364C21.7706 8.98858 21.8053 8.91352 21.8456 8.84639L21.8712 8.80672L21.8987 8.76767L21.928 8.73044C22.0574 8.57239 22.2423 8.45278 22.4406 8.40274L22.4876 8.39114L22.5364 8.3826L22.5852 8.3765L22.6347 8.37283" fill="#007DC5"/>
<path fill-rule="evenodd" clip-rule="evenodd" d="M28.6834 9.00076C27.3708 9.16065 26.3486 10.2859 26.3486 11.6438C26.3486 13.1096 27.5417 14.3051 29.0044 14.3051C30.4666 14.3051 31.6596 13.1096 31.6596 11.6438C31.6596 10.2859 30.6375 9.16065 29.3248 9.00076C29.5073 9.11061 29.6306 9.31138 29.6306 9.53961C29.6306 9.88562 29.3486 10.1676 29.0044 10.1676C28.659 10.1676 28.3777 9.88562 28.3777 9.53961C28.3777 9.31138 28.501 9.11061 28.6834 9.00076Z" fill="#007DC5"/>
<path fill-rule="evenodd" clip-rule="evenodd" d="M28.4619 15.2472C28.6346 15.5462 29.0191 15.65 29.3175 15.4773C29.6159 15.304 29.719 14.9189 29.5463 14.6193C29.3736 14.3202 28.9898 14.2165 28.6914 14.3892C28.3923 14.5625 28.2892 14.9476 28.4619 15.2472Z" fill="#007DC5"/>
<path fill-rule="evenodd" clip-rule="evenodd" d="M24.0394 18.1777C24.8333 19.2371 26.3168 19.5617 27.4897 18.8837C28.756 18.1502 29.1929 16.5166 28.4618 15.2467C27.7302 13.9767 26.1008 13.5392 24.8339 14.2727C23.6616 14.9513 23.2003 16.4019 23.7184 17.6205C23.7226 17.4069 23.8343 17.2001 24.0314 17.0859C24.3298 16.9132 24.7143 17.0164 24.887 17.316C25.0591 17.615 24.956 18.0001 24.6575 18.1734C24.4604 18.2875 24.2261 18.2814 24.0394 18.1777Z" fill="#007DC5"/>
<path fill-rule="evenodd" clip-rule="evenodd" d="M33.9682 18.1777C33.1743 19.2371 31.6908 19.5618 30.5179 18.8838C29.2516 18.1503 28.8147 16.5166 29.5458 15.2467C30.2775 13.9768 31.9068 13.5392 33.1737 14.2728C34.346 14.9514 34.8073 16.4019 34.2886 17.6206C34.285 17.407 34.1733 17.2001 33.9762 17.086C33.6778 16.9133 33.2939 17.0164 33.1212 17.3161C32.9485 17.6151 33.0516 18.0002 33.3494 18.1735C33.5472 18.2876 33.7815 18.2815 33.9682 18.1777Z" fill="#007DC5"/>
<path fill-rule="evenodd" clip-rule="evenodd" d="M24.3184 26.8176C24.3184 27.0321 24.2078 27.2141 23.9862 27.3637C23.792 27.4933 23.5732 27.5579 23.3301 27.5579C23.0765 27.5579 22.8525 27.4958 22.6579 27.3713C22.4422 27.2315 22.334 27.0495 22.334 26.8255C22.334 26.5958 22.4394 26.4089 22.65 26.2642C22.8443 26.1397 23.071 26.0773 23.3301 26.0773C23.5786 26.0773 23.8001 26.1422 23.9944 26.2719C24.2102 26.4166 24.3184 26.5983 24.3184 26.8176Z" fill="#007DC5"/>
<path fill-rule="evenodd" clip-rule="evenodd" d="M45.9445 26.0773H47.6256V29.1317L48.8542 27.71H50.8783L49.3381 29.2129L50.9666 32H49.1119L48.2433 30.2791L47.6256 30.8845V32H45.9445" fill="#007DC5"/>
<path fill-rule="evenodd" clip-rule="evenodd" d="M40.8245 27.8007H42.3223V28.4882C42.546 28.2091 42.7727 28.0108 43.0015 27.8909C43.231 27.771 43.51 27.7103 43.8388 27.7103C44.2838 27.7103 44.6315 27.8438 44.8838 28.1081C45.1344 28.3724 45.2598 28.7805 45.2598 29.3333V32H43.6448V29.6933C43.6448 29.4306 43.5963 29.2443 43.4993 29.1353C43.4007 29.0246 43.2648 28.9707 43.0879 28.9707C42.8939 28.9707 42.7348 29.0448 42.6146 29.1919C42.4934 29.3388 42.4329 29.6042 42.4329 29.9859V32H40.8245" fill="#007DC5"/>
<path fill-rule="evenodd" clip-rule="evenodd" d="M31.5704 32H29.7596V26.0773H31.5704V26.2904C31.8393 26.1438 32.1783 26.0776 32.6725 26.0776C33.7826 26.0776 34.7686 26.5302 34.7719 27.4817C34.7752 28.3018 34.3044 28.598 33.6687 28.641C34.4725 28.7345 35.2068 29.2293 35.2068 30.0644C35.2068 31.4632 34.2782 32 32.6965 32C32.2012 32 31.9287 31.933 31.5704 31.8052V32ZM31.5704 27.2383V28.2511C32.0963 28.2721 33.1292 28.3394 33.1292 27.6721C33.1292 27.0081 32.0451 27.0413 31.5704 27.2383ZM31.5704 29.3889V30.8687C31.7696 30.9297 31.9778 30.9633 32.2309 30.9633C32.7862 30.9633 33.4439 30.712 33.4262 30.1336C33.3981 29.2186 32.2671 29.3554 31.5704 29.3889Z" fill="#007DC5"/>
<path fill-rule="evenodd" clip-rule="evenodd" d="M37.2206 29.1777L35.6958 29.0145C35.7533 28.7434 35.8364 28.5298 35.9449 28.3745C36.0533 28.2192 36.2086 28.0846 36.4132 27.9701C36.5593 27.887 36.7615 27.823 37.017 27.7781C37.2729 27.7334 37.5497 27.7099 37.8483 27.7099C38.3262 27.7099 38.7118 27.7372 39.0009 27.792C39.2913 27.8464 39.5322 27.9617 39.7265 28.1336C40.0237 28.3968 40.1932 28.878 40.1932 29.2679V31.9997H38.6957V31.5234C38.3671 31.8109 37.7203 32.001 37.1001 31.9997C36.3108 31.9981 35.5648 31.6899 35.5702 30.9215C35.5724 30.5992 35.6626 30.3349 35.8487 30.1281C36.0345 29.9197 36.3759 29.766 36.8751 29.6652C37.4748 29.5426 37.863 29.4567 38.041 29.408C38.2178 29.3586 38.4063 29.2933 38.6044 29.2145C38.6044 29.0145 38.5644 28.8756 38.4843 28.7952C38.4025 28.7162 38.2606 28.6753 38.0557 28.6753C37.7949 28.6753 37.5993 28.7189 37.4682 28.8034C37.3663 28.8701 37.2835 28.9954 37.2206 29.1777ZM38.6044 30.0314C38.3848 30.1066 38.1562 30.1725 37.9192 30.2297C37.5952 30.3112 37.3889 30.3929 37.3034 30.4717C37.2138 30.5542 37.1699 30.6472 37.1699 30.7512C37.1699 30.8708 37.2138 30.9676 37.3009 31.0439C37.3889 31.1191 37.5176 31.1572 37.6876 31.1572C37.8655 31.1572 38.0303 31.1163 38.1843 31.0349C38.3369 30.9523 38.4453 30.8518 38.5096 30.7349C38.5739 30.6166 38.6044 30.4627 38.6044 30.2741" fill="#007DC5"/>
<path fill-rule="evenodd" clip-rule="evenodd" d="M17.4483 27.8007H18.9461V28.4881C19.1698 28.2091 19.3962 28.011 19.6253 27.8911C19.8545 27.7712 20.1338 27.7105 20.4626 27.7105C20.9076 27.7105 21.2552 27.844 21.5075 28.108C21.7579 28.372 21.8835 28.7805 21.8835 29.3333V31.9991H20.2684V29.6932C20.2684 29.43 20.2199 29.2442 20.1229 29.135C20.0245 29.0243 19.8883 28.9704 19.7117 28.9704C19.5174 28.9704 19.3586 29.0448 19.2384 29.1916C19.1172 29.3385 19.0564 29.6041 19.0564 29.9856V31.9991H17.4483" fill="#D71920"/>
<path fill-rule="evenodd" clip-rule="evenodd" d="M24.7605 27.8007H26.2583V28.4881C26.482 28.2091 26.7084 28.011 26.9375 27.8911C27.1667 27.7712 27.4459 27.7105 27.7748 27.7105C28.2198 27.7105 28.5674 27.844 28.8197 28.108C29.0704 28.372 29.1957 28.7805 29.1957 29.3333V31.9991H27.5808V29.6932C27.5808 29.43 27.532 29.2442 27.4351 29.135C27.3367 29.0243 27.2005 28.9704 27.0239 28.9704C26.8299 28.9704 26.6708 29.0448 26.5506 29.1916C26.4294 29.3385 26.3689 29.6041 26.3689 29.9856V31.9991H24.7605" fill="#D71920"/>
<path d="M22.4474 31.9991H24.1966V27.8007H22.4474V31.9991Z" fill="#D71920"/>
<path fill-rule="evenodd" clip-rule="evenodd" d="M12.0736 28.114C12.0824 29.9973 10.3361 30.6172 8.81056 30.0142V31.9991H7V26.0784H8.81056V26.2909C9.1476 26.149 9.43287 26.0732 9.88544 26.0784C11.1413 26.092 12.0668 26.6648 12.0736 28.114ZM8.81056 27.3598V28.9181C9.57156 29.2162 10.4159 29.0622 10.4383 28.0236C10.453 27.3301 9.63723 26.8773 8.81056 27.3598Z" fill="#D71920"/>
<path fill-rule="evenodd" clip-rule="evenodd" d="M13.9116 29.1777L12.3871 29.0143C12.4446 28.7434 12.5275 28.5298 12.6362 28.3745C12.7443 28.2195 12.8997 28.0849 13.1043 27.9704C13.2503 27.8873 13.4528 27.8233 13.7081 27.7784C13.9639 27.7334 14.2407 27.7102 14.5394 27.7102C15.0173 27.7102 15.4028 27.7375 15.6919 27.792C15.9826 27.8465 16.2235 27.962 16.4175 28.1336C16.7148 28.3971 16.8845 28.878 16.8845 29.2679V31.9989H15.3867V31.5229C15.0582 31.8101 14.4113 32.0005 13.7912 31.9989C13.0021 31.9973 12.2558 31.6894 12.2613 30.9213C12.2634 30.5989 12.3536 30.3347 12.5397 30.1278C12.7255 29.9194 13.067 29.7657 13.5661 29.6649C14.1658 29.5423 14.5541 29.4565 14.7323 29.4077C14.9088 29.3587 15.0977 29.2933 15.2957 29.2145C15.2957 29.0143 15.2557 28.8756 15.1753 28.7952C15.0936 28.7165 14.9516 28.6753 14.747 28.6753C14.486 28.6753 14.2906 28.7189 14.1593 28.8034C14.0574 28.8701 13.9745 28.9955 13.9116 29.1777ZM15.2957 30.0311C15.0761 30.1063 14.8473 30.1723 14.6105 30.2295C14.2862 30.3107 14.0803 30.3924 13.9947 30.4712C13.9048 30.554 13.8609 30.6466 13.8609 30.7507C13.8609 30.8706 13.9048 30.9671 13.992 31.0433C14.0803 31.1185 14.2089 31.1567 14.3789 31.1567C14.5568 31.1567 14.7214 31.1161 14.8753 31.0346C15.0279 30.9518 15.1363 30.8515 15.2007 30.7344C15.265 30.6161 15.2957 30.4622 15.2957 30.2739" fill="#D71920"/>
</svg>
