<svg width="28" height="20" viewBox="0 0 28 20" fill="none" xmlns="http://www.w3.org/2000/svg">
<path d="M11.8979 10.8328V10.8381C11.8962 10.9623 11.8101 11.0051 11.6971 11.0046H11.6011V11.2107H11.4672V10.6664H11.701C11.8017 10.6664 11.8881 10.6974 11.8973 10.8132L11.8979 10.823V10.8328ZM11.7603 10.8365L11.76 10.8323C11.7611 10.7814 11.7155 10.7844 11.6775 10.7825H11.6011V10.8885H11.6761C11.7097 10.8868 11.7589 10.8916 11.7597 10.8448L11.76 10.8409L11.7603 10.8365ZM12.4394 11.2107H12.2939L12.257 11.1013H12.0777L12.0405 11.2107H11.8987L12.0996 10.6664H12.2408L12.4394 11.2107ZM12.2198 10.9906L12.1684 10.8339L12.1163 10.9906H12.2198ZM12.9985 11.2107H12.8752L12.6682 10.8762V11.2107H12.5401V10.6664H12.6685L12.8701 10.9998V10.6664H12.9985V11.2107ZM13.2721 11.2107H13.1381V10.6661H13.2721V11.2107ZM13.87 11.2107H13.747L13.54 10.8762V11.2107H13.4119V10.6664H13.5403L13.7417 10.9998V10.6664H13.87V11.2107ZM15.4836 11.2107H15.3385L15.3015 11.1013H15.1223L15.0853 11.2107H14.9435L15.1441 10.6664H15.2856L15.4836 11.2107ZM15.2646 10.9906L15.2129 10.8339L15.1609 10.9906H15.2646ZM16.043 11.2107H15.9197L15.713 10.8762V11.2107H15.5849V10.6664H15.713L15.9146 10.9998V10.6664H16.043V11.2107ZM16.7034 11.2107H16.5331L16.3596 10.9682L16.3191 11.0074V11.2107H16.1851V10.6664H16.3191V10.8546L16.5227 10.6664H16.697L16.4614 10.8739" fill="#007DC5"/>
<path fill-rule="evenodd" clip-rule="evenodd" d="M14.3816 10.6692H14.6529C14.7041 10.6694 14.7418 10.6795 14.7667 10.6991C14.7916 10.7187 14.8084 10.7402 14.8165 10.7637C14.819 10.7712 14.821 10.7788 14.8221 10.7863C14.8235 10.7936 14.824 10.8012 14.824 10.8082C14.824 10.8336 14.8198 10.8535 14.8112 10.8683C14.8028 10.8834 14.7933 10.8943 14.7835 10.9019C14.7785 10.9058 14.7734 10.9091 14.7689 10.9114C14.7642 10.9139 14.7597 10.9164 14.7561 10.9184C14.7899 10.9309 14.8129 10.9491 14.8246 10.9732C14.8361 10.9972 14.8422 11.0224 14.8422 11.0487C14.8422 11.0705 14.8377 11.0909 14.8288 11.1102C14.8198 11.1293 14.8084 11.146 14.7938 11.16C14.7933 11.1606 14.7927 11.1609 14.7924 11.1611C14.7922 11.1617 14.7919 11.162 14.7919 11.1623C14.7762 11.1762 14.7572 11.1874 14.7345 11.1958C14.7124 11.2039 14.6733 11.2081 14.6182 11.2081H14.3816V10.6692ZM14.5144 11.115H14.6319C14.6551 11.1155 14.6733 11.1094 14.6862 11.0968C14.6993 11.0845 14.7055 11.0641 14.7055 11.0367C14.7055 11.0135 14.6985 10.997 14.6845 10.9869C14.6705 10.9768 14.6554 10.9712 14.6389 10.9709H14.5144V11.115ZM14.5144 10.88H14.6229C14.6408 10.8806 14.6562 10.8761 14.6691 10.8669C14.6817 10.8577 14.6878 10.8423 14.6878 10.8207C14.6878 10.7984 14.682 10.783 14.6697 10.7749C14.6576 10.7662 14.6408 10.762 14.6199 10.762H14.5144" fill="#007DC5"/>
<path fill-rule="evenodd" clip-rule="evenodd" d="M11.1874 5H16.9828L17.013 5.00084L17.0446 5.00308C17.3481 5.03469 17.5847 5.28502 17.6006 5.58961L17.6012 5.61981V11.1852C17.6012 11.4896 17.376 11.7516 17.0754 11.7978L17.0446 11.802L17.013 11.8042L16.9828 11.8051H11.1874C10.882 11.8045 10.6233 11.5791 10.5763 11.2781L10.5724 11.2471L10.5699 11.2155L10.5693 11.1852V5.61981L10.5699 5.58961L10.5724 5.558L10.5763 5.52696L10.5816 5.49647L10.5889 5.46654L10.5973 5.43689C10.6127 5.38739 10.6325 5.34375 10.6594 5.29956L10.6753 5.27411L10.6927 5.25005L10.7111 5.22656C10.7933 5.12615 10.9086 5.05203 11.0344 5.01958L11.0644 5.01259L11.0949 5.00728L11.1259 5.00308L11.1575 5.00084L11.1874 5ZM11.1897 5.17006H16.9808L17.0043 5.1709L17.0272 5.17258C17.2471 5.19523 17.4199 5.37788 17.4309 5.59828L17.4317 5.62205V11.183C17.432 11.4045 17.2686 11.5961 17.0496 11.6297L17.0272 11.6328L17.0043 11.6344L16.9808 11.635H11.1897C10.9679 11.6356 10.778 11.4708 10.7441 11.2524L10.7413 11.2297L10.7394 11.2068L10.7388 11.183V5.62205L10.7394 5.59828L10.7413 5.57534L10.7441 5.55297L10.748 5.53059L10.7531 5.50905L10.7592 5.48752C10.7698 5.45311 10.7858 5.41871 10.8043 5.38795L10.816 5.36977L10.8286 5.35186L10.842 5.3348C10.9013 5.26236 10.9861 5.20754 11.077 5.18461L11.0985 5.17929L11.1209 5.17538L11.1432 5.17258L11.1659 5.1709" fill="#007DC5"/>
<path fill-rule="evenodd" clip-rule="evenodd" d="M13.9383 5.4587C13.3366 5.53198 12.8681 6.04774 12.8681 6.67007C12.8681 7.3419 13.4149 7.88983 14.0854 7.88983C14.7555 7.88983 15.3023 7.3419 15.3023 6.67007C15.3023 6.04774 14.8339 5.53198 14.2322 5.4587C14.3158 5.50904 14.3723 5.60106 14.3723 5.70567C14.3723 5.86426 14.2431 5.99348 14.0854 5.99348C13.9271 5.99348 13.7981 5.86426 13.7981 5.70567C13.7981 5.60106 13.8546 5.50904 13.9383 5.4587Z" fill="#007DC5"/>
<path fill-rule="evenodd" clip-rule="evenodd" d="M13.8367 8.32164C13.9159 8.45869 14.0921 8.50624 14.2289 8.42709C14.3656 8.34765 14.4129 8.17116 14.3337 8.03383C14.2546 7.89678 14.0787 7.84923 13.9419 7.92838C13.8048 8.00782 13.7576 8.18431 13.8367 8.32164Z" fill="#007DC5"/>
<path fill-rule="evenodd" clip-rule="evenodd" d="M11.8097 9.66476C12.1736 10.1503 12.8536 10.2991 13.3911 9.98837C13.9715 9.65217 14.1718 8.90342 13.8367 8.32137C13.5013 7.73932 12.7545 7.53877 12.1739 7.87497C11.6366 8.18599 11.4251 8.85084 11.6626 9.40939C11.6646 9.3115 11.7157 9.21668 11.8061 9.16438C11.9429 9.08522 12.1191 9.13249 12.1982 9.26982C12.2771 9.40688 12.2298 9.58337 12.0931 9.6628C12.0027 9.7151 11.8953 9.71231 11.8097 9.66476Z" fill="#007DC5"/>
<path fill-rule="evenodd" clip-rule="evenodd" d="M16.3605 9.66482C15.9966 10.1504 15.3166 10.2992 14.7791 9.98843C14.1987 9.65223 13.9984 8.90348 14.3335 8.32143C14.6689 7.73938 15.4156 7.53884 15.9963 7.87503C16.5336 8.18606 16.745 8.8509 16.5073 9.40945C16.5056 9.31156 16.4544 9.21674 16.3641 9.16444C16.2273 9.08528 16.0514 9.13255 15.9722 9.26989C15.8931 9.40694 15.9404 9.58343 16.0769 9.66286C16.1675 9.71516 16.2749 9.71237 16.3605 9.66482Z" fill="#007DC5"/>
<path fill-rule="evenodd" clip-rule="evenodd" d="M11.9376 13.6247C11.9376 13.723 11.8869 13.8064 11.7854 13.875C11.6963 13.9345 11.596 13.9641 11.4846 13.9641C11.3684 13.9641 11.2657 13.9356 11.1766 13.8785C11.0777 13.8144 11.0281 13.731 11.0281 13.6284C11.0281 13.5231 11.0764 13.4374 11.1729 13.3711C11.262 13.314 11.3659 13.2854 11.4846 13.2854C11.5985 13.2854 11.7001 13.3152 11.7891 13.3746C11.888 13.4409 11.9376 13.5242 11.9376 13.6247Z" fill="#007DC5"/>
<path fill-rule="evenodd" clip-rule="evenodd" d="M21.8495 13.2855H22.6201V14.6854L23.1832 14.0337H24.1109L23.4049 14.7226L24.1514 16H23.3013L22.9032 15.2112L22.6201 15.4887V16H21.8495" fill="#007DC5"/>
<path fill-rule="evenodd" clip-rule="evenodd" d="M19.5029 14.0753H20.1894V14.3904C20.2919 14.2625 20.3958 14.1716 20.5007 14.1167C20.6059 14.0617 20.7338 14.0339 20.8845 14.0339C21.0884 14.0339 21.2478 14.0951 21.3634 14.2162C21.4783 14.3373 21.5358 14.5244 21.5358 14.7778V16H20.7956V14.9428C20.7956 14.8224 20.7733 14.7369 20.7289 14.687C20.6837 14.6363 20.6214 14.6116 20.5403 14.6116C20.4514 14.6116 20.3785 14.6455 20.3234 14.713C20.2678 14.7803 20.2401 14.9019 20.2401 15.0769V16H19.5029" fill="#007DC5"/>
<path fill-rule="evenodd" clip-rule="evenodd" d="M15.2615 16H14.4315V13.2855H15.2615V13.3831C15.3847 13.3159 15.5401 13.2856 15.7666 13.2856C16.2754 13.2856 16.7273 13.493 16.7288 13.9291C16.7303 14.305 16.5145 14.4407 16.2232 14.4605C16.5916 14.5033 16.9281 14.7301 16.9281 15.1128C16.9281 15.754 16.5025 16 15.7776 16C15.5506 16 15.4257 15.9693 15.2615 15.9107V16ZM15.2615 13.8176V14.2818C15.5025 14.2914 15.9759 14.3222 15.9759 14.0164C15.9759 13.712 15.479 13.7273 15.2615 13.8176ZM15.2615 14.8033V15.4815C15.3527 15.5095 15.4481 15.5248 15.5642 15.5248C15.8187 15.5248 16.1201 15.4097 16.112 15.1446C16.0992 14.7252 15.5808 14.7879 15.2615 14.8033Z" fill="#007DC5"/>
<path fill-rule="evenodd" clip-rule="evenodd" d="M17.8511 14.7065L17.1522 14.6317C17.1786 14.5074 17.2167 14.4095 17.2664 14.3383C17.3161 14.2671 17.3873 14.2055 17.4811 14.153C17.548 14.1149 17.6407 14.0856 17.7578 14.065C17.8751 14.0445 18.0019 14.0337 18.1388 14.0337C18.3579 14.0337 18.5346 14.0462 18.6671 14.0713C18.8002 14.0963 18.9106 14.1491 18.9996 14.2279C19.1359 14.3486 19.2135 14.5691 19.2135 14.7478V15.9999H18.5272V15.7816C18.3766 15.9133 18.0801 16.0005 17.7959 15.9999C17.4341 15.9991 17.0922 15.8579 17.0947 15.5057C17.0957 15.358 17.137 15.2368 17.2223 15.1421C17.3075 15.0465 17.464 14.9761 17.6927 14.9299C17.9676 14.8737 18.1456 14.8344 18.2271 14.812C18.3082 14.7894 18.3946 14.7594 18.4854 14.7233C18.4854 14.6317 18.467 14.568 18.4303 14.5311C18.3928 14.4949 18.3278 14.4762 18.2338 14.4762C18.1143 14.4762 18.0247 14.4962 17.9646 14.5349C17.9179 14.5655 17.8799 14.6229 17.8511 14.7065ZM18.4854 15.0977C18.3847 15.1322 18.2799 15.1624 18.1713 15.1886C18.0228 15.226 17.9283 15.2634 17.8891 15.2995C17.848 15.3374 17.8279 15.38 17.8279 15.4277C17.8279 15.4825 17.848 15.5268 17.8879 15.5618C17.9283 15.5963 17.9872 15.6137 18.0651 15.6137C18.1467 15.6137 18.2222 15.595 18.2928 15.5577C18.3627 15.5198 18.4124 15.4737 18.4419 15.4202C18.4714 15.366 18.4854 15.2954 18.4854 15.209" fill="#007DC5"/>
<path fill-rule="evenodd" clip-rule="evenodd" d="M8.78882 14.0753H9.47529V14.3904C9.57782 14.2625 9.6816 14.1717 9.78662 14.1168C9.89165 14.0618 10.0197 14.034 10.1704 14.034C10.3743 14.034 10.5337 14.0952 10.6493 14.2162C10.7641 14.3372 10.8216 14.5244 10.8216 14.7778V15.9996H10.0813V14.9428C10.0813 14.8221 10.0591 14.737 10.0147 14.6869C9.96957 14.6362 9.90713 14.6115 9.82621 14.6115C9.73717 14.6115 9.66436 14.6455 9.60929 14.7129C9.55372 14.7802 9.52587 14.9019 9.52587 15.0768V15.9996H8.78882" fill="#D71920"/>
<path fill-rule="evenodd" clip-rule="evenodd" d="M12.1402 14.0753H12.8267V14.3904C12.9292 14.2625 13.033 14.1717 13.138 14.1168C13.2431 14.0618 13.3711 14.034 13.5218 14.034C13.7257 14.034 13.8851 14.0952 14.0007 14.2162C14.1156 14.3372 14.173 14.5244 14.173 14.7778V15.9996H13.4329V14.9428C13.4329 14.8221 13.4105 14.737 13.3661 14.6869C13.321 14.6362 13.2585 14.6115 13.1776 14.6115C13.0887 14.6115 13.0158 14.6455 12.9607 14.7129C12.9051 14.7802 12.8774 14.9019 12.8774 15.0768V15.9996H12.1402" fill="#D71920"/>
<path d="M11.0801 15.9996H11.8818V14.0753H11.0801V15.9996Z" fill="#D71920"/>
<path fill-rule="evenodd" clip-rule="evenodd" d="M6.32542 14.2189C6.32941 15.0821 5.52905 15.3662 4.82984 15.0899V15.9996H4V13.286H4.82984V13.3834C4.98432 13.3183 5.11507 13.2836 5.3225 13.286C5.89807 13.2922 6.3223 13.5547 6.32542 14.2189ZM4.82984 13.8733V14.5875C5.17863 14.7241 5.56564 14.6535 5.57588 14.1775C5.58262 13.8597 5.20873 13.6521 4.82984 13.8733Z" fill="#D71920"/>
<path fill-rule="evenodd" clip-rule="evenodd" d="M7.16783 14.7065L6.46912 14.6316C6.49547 14.5074 6.53343 14.4095 6.58326 14.3383C6.63284 14.2673 6.70402 14.2056 6.7978 14.1531C6.86474 14.115 6.95753 14.0857 7.07454 14.0651C7.19181 14.0445 7.31869 14.0339 7.45556 14.0339C7.6746 14.0339 7.8513 14.0464 7.9838 14.0713C8.11705 14.0963 8.22745 14.1493 8.31636 14.2279C8.45261 14.3487 8.53041 14.5691 8.53041 14.7478V15.9995H7.84394V15.7813C7.69333 15.913 7.39686 16.0003 7.11263 15.9995C6.75097 15.9988 6.40892 15.8576 6.41142 15.5056C6.41242 15.3579 6.45376 15.2367 6.53905 15.1419C6.62422 15.0464 6.7807 14.976 7.00948 14.9298C7.28434 14.8736 7.4623 14.8342 7.54397 14.8119C7.62489 14.7894 7.71144 14.7594 7.80223 14.7233C7.80223 14.6316 7.78387 14.568 7.74703 14.5312C7.70956 14.4951 7.6445 14.4762 7.55072 14.4762C7.43108 14.4762 7.34154 14.4962 7.28135 14.5349C7.23464 14.5655 7.19668 14.6229 7.16783 14.7065ZM7.80223 15.0976C7.70157 15.1321 7.59667 15.1623 7.48815 15.1885C7.33954 15.2257 7.24513 15.2632 7.20592 15.2993C7.16471 15.3373 7.1446 15.3797 7.1446 15.4274C7.1446 15.4824 7.16471 15.5266 7.20467 15.5615C7.24513 15.596 7.30407 15.6135 7.382 15.6135C7.46355 15.6135 7.53898 15.5949 7.60953 15.5576C7.67947 15.5196 7.72917 15.4736 7.75864 15.4199C7.78811 15.3657 7.80223 15.2952 7.80223 15.2089" fill="#D71920"/>
</svg>
