<svg width="46" height="32" viewBox="0 0 46 32" fill="none" xmlns="http://www.w3.org/2000/svg">
<path d="M19.3598 16.6051V16.6147C19.3568 16.8405 19.2001 16.9183 18.9947 16.9173H18.8203V17.2921H18.5767V16.3025H19.0018C19.1849 16.3025 19.342 16.3589 19.3588 16.5695L19.3598 16.5873V16.6051ZM19.1096 16.6117L19.1091 16.6041C19.1111 16.5115 19.0282 16.5171 18.9591 16.5135H18.8203V16.7063H18.9565C19.0176 16.7032 19.1071 16.7119 19.1086 16.6269L19.1091 16.6198L19.1096 16.6117ZM20.3444 17.2921H20.0799L20.0128 17.0933H19.6868L19.6192 17.2921H19.3613L19.7265 16.3025H19.9833L20.3444 17.2921ZM19.9451 16.8919L19.8516 16.6071L19.757 16.8919H19.9451ZM21.3609 17.2921H21.1367L20.7603 16.6839V17.2921H20.5274V16.3025H20.7608L21.1275 16.9087V16.3025H21.3609V17.2921ZM21.8583 17.2921H21.6147V16.302H21.8583V17.2921ZM22.9455 17.2921H22.7218L22.3455 16.6839V17.2921H22.1125V16.3025H22.346L22.7121 16.9087V16.3025H22.9455V17.2921ZM25.8793 17.2921H25.6154L25.5483 17.0933H25.2223L25.1552 17.2921H24.8973L25.2619 16.3025H25.5193L25.8793 17.2921ZM25.4811 16.8919L25.387 16.6071L25.2925 16.8919H25.4811ZM26.8964 17.2921H26.6721L26.2963 16.6839V17.2921H26.0634V16.3025H26.2963L26.663 16.9087V16.3025H26.8964V17.2921ZM28.0971 17.2921H27.7874L27.4721 16.8512L27.3983 16.9224V17.2921H27.1547V16.3025H27.3983V16.6447L27.7685 16.3025H28.0854L27.6572 16.6798" fill="#007DC5"/>
<path fill-rule="evenodd" clip-rule="evenodd" d="M23.8756 16.3076H24.3689C24.4619 16.3081 24.5306 16.3264 24.5758 16.362C24.6211 16.3976 24.6516 16.4367 24.6664 16.4795C24.6709 16.4932 24.6745 16.5069 24.6765 16.5207C24.6791 16.5339 24.6801 16.5476 24.6801 16.5603C24.6801 16.6066 24.6725 16.6427 24.6567 16.6697C24.6414 16.6971 24.6242 16.717 24.6064 16.7307C24.5972 16.7378 24.588 16.7439 24.5799 16.748C24.5713 16.7526 24.5631 16.7571 24.5565 16.7607C24.6181 16.7836 24.6598 16.8166 24.6811 16.8604C24.702 16.9041 24.7131 16.9499 24.7131 16.9977C24.7131 17.0373 24.705 17.0745 24.6887 17.1095C24.6725 17.1441 24.6516 17.1746 24.6252 17.2001C24.6242 17.2011 24.6231 17.2016 24.6226 17.2021C24.6221 17.2031 24.6216 17.2036 24.6216 17.2041C24.5931 17.2296 24.5586 17.2499 24.5174 17.2652C24.4772 17.2799 24.406 17.2875 24.3058 17.2875H23.8756V16.3076ZM24.1171 17.1182H24.3307C24.3729 17.1192 24.406 17.108 24.4294 17.0851C24.4533 17.0628 24.4645 17.0256 24.4645 16.9758C24.4645 16.9336 24.4518 16.9036 24.4263 16.8853C24.4009 16.867 24.3734 16.8568 24.3434 16.8563H24.1171V17.1182ZM24.1171 16.691H24.3145C24.347 16.692 24.375 16.6839 24.3984 16.6671C24.4212 16.6503 24.4324 16.6224 24.4324 16.5832C24.4324 16.5425 24.4218 16.5146 24.3994 16.4998C24.3775 16.484 24.347 16.4764 24.3089 16.4764H24.1171" fill="#007DC5"/>
<path fill-rule="evenodd" clip-rule="evenodd" d="M18.0681 5.99999H28.605L28.66 6.00151L28.7174 6.00558C29.2692 6.06305 29.6994 6.51819 29.7284 7.07199L29.7294 7.12691V17.2459C29.7294 17.7992 29.3201 18.2757 28.7734 18.3596L28.7174 18.3672L28.66 18.3713L28.605 18.3728H18.0681C17.5127 18.3718 17.0423 17.9619 16.9569 17.4147L16.9498 17.3583L16.9452 17.3008L16.9442 17.2459V7.12691L16.9452 7.07199L16.9498 7.01453L16.9569 6.95808L16.9666 6.90265L16.9798 6.84823L16.995 6.79433C17.023 6.70432 17.0591 6.62498 17.1079 6.54463L17.1369 6.49836L17.1685 6.45462L17.202 6.4119C17.3515 6.22934 17.561 6.09457 17.7899 6.03558L17.8443 6.02287L17.8997 6.01321L17.9562 6.00558L18.0136 6.00151L18.0681 5.99999ZM18.0721 6.30918H28.6015L28.6442 6.31071L28.6859 6.31376C29.0856 6.35495 29.3999 6.68703 29.4197 7.08776L29.4213 7.13098V17.2418C29.4218 17.6446 29.1248 17.9929 28.7266 18.0539L28.6859 18.0595L28.6442 18.0626L28.6015 18.0636H18.0721C17.6689 18.0646 17.3236 17.7651 17.262 17.3679L17.2569 17.3267L17.2534 17.285L17.2524 17.2418V7.13098L17.2534 7.08776L17.2569 7.04606L17.262 7.00537L17.2691 6.96469L17.2783 6.92553L17.2895 6.88637C17.3088 6.82382 17.3378 6.76127 17.3714 6.70533L17.3927 6.67228L17.4156 6.63973L17.44 6.60871C17.5478 6.477 17.7019 6.37732 17.8672 6.33562L17.9063 6.32596L17.947 6.31884L17.9877 6.31376L18.0289 6.31071" fill="#007DC5"/>
<path fill-rule="evenodd" clip-rule="evenodd" d="M23.0696 6.83397C21.9757 6.96721 21.1239 7.90496 21.1239 9.03646C21.1239 10.258 22.1181 11.2542 23.337 11.2542C24.5555 11.2542 25.5497 10.258 25.5497 9.03646C25.5497 7.90496 24.6979 6.96721 23.604 6.83397C23.7561 6.92551 23.8588 7.09282 23.8588 7.28301C23.8588 7.57135 23.6239 7.8063 23.337 7.8063C23.0492 7.8063 22.8148 7.57135 22.8148 7.28301C22.8148 7.09282 22.9175 6.92551 23.0696 6.83397Z" fill="#007DC5"/>
<path fill-rule="evenodd" clip-rule="evenodd" d="M22.8849 12.0394C23.0288 12.2885 23.3492 12.375 23.5979 12.2311C23.8466 12.0866 23.9325 11.7658 23.7886 11.5161C23.6447 11.2669 23.3248 11.1804 23.0761 11.3243C22.827 11.4688 22.741 11.7897 22.8849 12.0394Z" fill="#007DC5"/>
<path fill-rule="evenodd" clip-rule="evenodd" d="M19.1995 14.4814C19.8611 15.3642 21.0974 15.6348 22.0748 15.0698C23.13 14.4585 23.4941 13.0972 22.8849 12.0389C22.2752 10.9806 20.9174 10.616 19.8616 11.2273C18.8847 11.7928 18.5003 13.0016 18.932 14.0171C18.9356 13.8391 19.0286 13.6667 19.1929 13.5716C19.4416 13.4277 19.762 13.5137 19.9059 13.7633C20.0493 14.0125 19.9633 14.3334 19.7147 14.4779C19.5504 14.5729 19.3551 14.5679 19.1995 14.4814Z" fill="#007DC5"/>
<path fill-rule="evenodd" clip-rule="evenodd" d="M27.4736 14.4815C26.8119 15.3643 25.5757 15.6348 24.5983 15.0699C23.543 14.4586 23.1789 13.0972 23.7882 12.0389C24.3979 10.9807 25.7557 10.616 26.8114 11.2273C27.7883 11.7928 28.1728 13.0016 27.7405 14.0172C27.7375 13.8392 27.6444 13.6668 27.4802 13.5717C27.2315 13.4278 26.9116 13.5137 26.7677 13.7634C26.6238 14.0126 26.7097 14.3335 26.9579 14.4779C27.1227 14.573 27.3179 14.5679 27.4736 14.4815Z" fill="#007DC5"/>
<path fill-rule="evenodd" clip-rule="evenodd" d="M19.432 21.6814C19.432 21.8601 19.3398 22.0117 19.1552 22.1364C18.9933 22.2445 18.811 22.2983 18.6084 22.2983C18.3971 22.2983 18.2104 22.2465 18.0483 22.1427C17.8685 22.0263 17.7783 21.8746 17.7783 21.6879C17.7783 21.4965 17.8662 21.3408 18.0417 21.2202C18.2036 21.1164 18.3925 21.0644 18.6084 21.0644C18.8155 21.0644 19.0001 21.1185 19.162 21.2266C19.3418 21.3471 19.432 21.4986 19.432 21.6814Z" fill="#007DC5"/>
<path fill-rule="evenodd" clip-rule="evenodd" d="M37.4537 21.0645H38.8547V23.6098L39.8785 22.425H41.5653L40.2817 23.6774L41.6389 26H40.0933L39.3694 24.5659L38.8547 25.0704V26H37.4537" fill="#007DC5"/>
<path fill-rule="evenodd" clip-rule="evenodd" d="M33.1871 22.5006H34.4353V23.0735C34.6217 22.841 34.8106 22.6757 35.0013 22.5757C35.1925 22.4758 35.425 22.4252 35.6991 22.4252C36.0699 22.4252 36.3596 22.5365 36.5698 22.7567C36.7787 22.977 36.8832 23.3171 36.8832 23.7778V26H35.5374V24.0777C35.5374 23.8589 35.497 23.7035 35.4162 23.6127C35.334 23.5205 35.2207 23.4756 35.0733 23.4756C34.9116 23.4756 34.779 23.5373 34.6789 23.6599C34.5779 23.7823 34.5275 24.0035 34.5275 24.3216V26H33.1871" fill="#007DC5"/>
<path fill-rule="evenodd" clip-rule="evenodd" d="M25.4754 26H23.9663V21.0645H25.4754V21.242C25.6995 21.1199 25.9819 21.0647 26.3938 21.0647C27.3188 21.0647 28.1406 21.4418 28.1433 22.2347C28.146 22.9182 27.7537 23.165 27.2239 23.2008C27.8937 23.2787 28.5057 23.6911 28.5057 24.387C28.5057 25.5527 27.7319 26 26.4138 26C26.001 26 25.7739 25.9441 25.4754 25.8377V26ZM25.4754 22.0319V22.8759C25.9136 22.8934 26.7744 22.9495 26.7744 22.3934C26.7744 21.8401 25.8709 21.8678 25.4754 22.0319ZM25.4754 23.8241V25.0573C25.6413 25.1081 25.8148 25.136 26.0257 25.136C26.4885 25.136 27.0366 24.9267 27.0218 24.4447C26.9985 23.6822 26.0559 23.7962 25.4754 23.8241Z" fill="#007DC5"/>
<path fill-rule="evenodd" clip-rule="evenodd" d="M30.1838 23.6481L28.9132 23.5121C28.9611 23.2862 29.0303 23.1082 29.1207 22.9788C29.2111 22.8493 29.3405 22.7372 29.511 22.6418C29.6327 22.5725 29.8012 22.5192 30.0142 22.4817C30.2274 22.4445 30.4581 22.425 30.7069 22.425C31.1052 22.425 31.4265 22.4477 31.6674 22.4933C31.9094 22.5387 32.1101 22.6348 32.272 22.778C32.5197 22.9974 32.661 23.3984 32.661 23.7233V25.9997H31.4131V25.6029C31.1392 25.8424 30.6002 26.0009 30.0834 25.9997C29.4256 25.9984 28.804 25.7416 28.8085 25.1013C28.8103 24.8327 28.8855 24.6124 29.0405 24.4401C29.1954 24.2664 29.4799 24.1383 29.8959 24.0543C30.3956 23.9521 30.7192 23.8806 30.8675 23.84C31.0148 23.7989 31.1719 23.7444 31.337 23.6788C31.337 23.5121 31.3036 23.3963 31.2369 23.3293C31.1688 23.2635 31.0505 23.2294 30.8797 23.2294C30.6624 23.2294 30.4994 23.2658 30.3902 23.3361C30.3053 23.3918 30.2362 23.4962 30.1838 23.6481ZM31.337 24.3595C31.154 24.4222 30.9635 24.4771 30.766 24.5248C30.496 24.5927 30.3241 24.6608 30.2528 24.7264C30.1781 24.7952 30.1415 24.8726 30.1415 24.9594C30.1415 25.0591 30.1781 25.1397 30.2508 25.2032C30.3241 25.2659 30.4313 25.2977 30.573 25.2977C30.7212 25.2977 30.8586 25.2636 30.9869 25.1957C31.114 25.1269 31.2044 25.0432 31.258 24.9457C31.3116 24.8472 31.337 24.7189 31.337 24.5618" fill="#007DC5"/>
<path fill-rule="evenodd" clip-rule="evenodd" d="M13.7069 22.5006H14.9551V23.0735C15.1415 22.841 15.3302 22.6759 15.5211 22.576C15.7121 22.4761 15.9448 22.4254 16.2189 22.4254C16.5897 22.4254 16.8794 22.5367 17.0896 22.7567C17.2983 22.9767 17.403 23.3171 17.403 23.7778V25.9993H16.057V24.0777C16.057 23.8584 16.0166 23.7036 15.9357 23.6125C15.8538 23.5203 15.7402 23.4754 15.5931 23.4754C15.4312 23.4754 15.2988 23.5373 15.1987 23.6597C15.0977 23.7821 15.047 24.0035 15.047 24.3214V25.9993H13.7069" fill="#D71920"/>
<path fill-rule="evenodd" clip-rule="evenodd" d="M19.8004 22.5006H21.0485V23.0735C21.235 22.841 21.4236 22.6759 21.6146 22.576C21.8056 22.4761 22.0383 22.4254 22.3123 22.4254C22.6831 22.4254 22.9729 22.5367 23.1831 22.7567C23.392 22.9767 23.4965 23.3171 23.4965 23.7778V25.9993H22.1507V24.0777C22.1507 23.8584 22.11 23.7036 22.0292 23.6125C21.9472 23.5203 21.8337 23.4754 21.6866 23.4754C21.5249 23.4754 21.3923 23.5373 21.2922 23.6597C21.1911 23.7821 21.1407 24.0035 21.1407 24.3214V25.9993H19.8004" fill="#D71920"/>
<path d="M17.8728 25.9993H19.3305V22.5005H17.8728V25.9993Z" fill="#D71920"/>
<path fill-rule="evenodd" clip-rule="evenodd" d="M9.22803 22.7617C9.2353 24.3311 7.78009 24.8477 6.5088 24.3452V25.9993H5V21.0654H6.5088V21.2425C6.78967 21.1242 7.02739 21.0611 7.40454 21.0654C8.45104 21.0767 9.22236 21.554 9.22803 22.7617ZM6.5088 22.1332V23.4318C7.14297 23.6802 7.84662 23.5519 7.86524 22.6863C7.8775 22.1085 7.19769 21.7311 6.5088 22.1332Z" fill="#D71920"/>
<path fill-rule="evenodd" clip-rule="evenodd" d="M10.7597 23.6481L9.48929 23.5119C9.5372 23.2862 9.60623 23.1082 9.69682 22.9788C9.78697 22.8496 9.91639 22.7374 10.0869 22.642C10.2086 22.5728 10.3773 22.5194 10.5901 22.482C10.8033 22.4445 11.034 22.4252 11.2828 22.4252C11.6811 22.4252 12.0024 22.4479 12.2433 22.4933C12.4855 22.5387 12.6863 22.635 12.8479 22.778C13.0956 22.9976 13.2371 23.3984 13.2371 23.7233V25.9991H11.989V25.6024C11.7151 25.8417 11.1761 26.0004 10.6593 25.9991C10.0018 25.9977 9.37985 25.7411 9.38439 25.1011C9.38621 24.8325 9.46137 24.6122 9.61645 24.4399C9.7713 24.2662 10.0558 24.1381 10.4718 24.0541C10.9715 23.9519 11.2951 23.8804 11.4436 23.8398C11.5907 23.7989 11.7481 23.7444 11.9131 23.6788C11.9131 23.5119 11.8798 23.3963 11.8128 23.3293C11.7447 23.2637 11.6264 23.2294 11.4558 23.2294C11.2383 23.2294 11.0755 23.2658 10.9661 23.3361C10.8812 23.3918 10.8121 23.4962 10.7597 23.6481ZM11.9131 24.3593C11.7301 24.4219 11.5394 24.4769 11.3421 24.5246C11.0719 24.5922 10.9002 24.6603 10.8289 24.726C10.754 24.795 10.7174 24.8722 10.7174 24.9589C10.7174 25.0588 10.754 25.1392 10.8267 25.2028C10.9002 25.2655 11.0074 25.2972 11.1491 25.2972C11.2974 25.2972 11.4345 25.2634 11.5628 25.1955C11.6899 25.1265 11.7803 25.0429 11.8339 24.9453C11.8875 24.8468 11.9131 24.7185 11.9131 24.5616" fill="#D71920"/>
</svg>
