<svg width="34" height="24" viewBox="0 0 34 24" fill="none" xmlns="http://www.w3.org/2000/svg">
<path d="M14.0519 12.4236V12.4303C14.0497 12.5884 13.9401 12.6428 13.7963 12.6421H13.6742V12.9045H13.5037V12.2117H13.8013C13.9294 12.2117 14.0394 12.2513 14.0512 12.3986L14.0519 12.4111V12.4236ZM13.8767 12.4282L13.8764 12.4228C13.8778 12.3581 13.8198 12.362 13.7714 12.3595H13.6742V12.4944H13.7696C13.8123 12.4923 13.8749 12.4983 13.876 12.4389L13.8764 12.4339L13.8767 12.4282ZM14.741 12.9045H14.5559L14.5089 12.7653H14.2808L14.2334 12.9045H14.0529L14.3085 12.2117H14.4883L14.741 12.9045ZM14.4616 12.6243L14.3961 12.425L14.3299 12.6243H14.4616ZM15.4526 12.9045H15.2957L15.0322 12.4787V12.9045H14.8692V12.2117H15.0326L15.2893 12.6361V12.2117H15.4526V12.9045ZM15.8008 12.9045H15.6303V12.2114H15.8008V12.9045ZM16.5619 12.9045H16.4052L16.1418 12.4787V12.9045H15.9788V12.2117H16.1422L16.3985 12.6361V12.2117H16.5619V12.9045ZM18.6155 12.9045H18.4308L18.3838 12.7653H18.1556L18.1086 12.9045H17.9281L18.1834 12.2117H18.3635L18.6155 12.9045ZM18.3368 12.6243L18.2709 12.425L18.2047 12.6243H18.3368ZM19.3275 12.9045H19.1705L18.9074 12.4787V12.9045H18.7444V12.2117H18.9074L19.1641 12.6361V12.2117H19.3275V12.9045ZM20.1679 12.9045H19.9512L19.7304 12.5958L19.6788 12.6457V12.9045H19.5083V12.2117H19.6788V12.4513L19.938 12.2117H20.1598L19.86 12.4759" fill="#007DC5"/>
<path fill-rule="evenodd" clip-rule="evenodd" d="M17.2129 12.2153H17.5582C17.6234 12.2156 17.6714 12.2284 17.7031 12.2534C17.7348 12.2783 17.7561 12.3057 17.7665 12.3356C17.7697 12.3452 17.7722 12.3548 17.7736 12.3644C17.7754 12.3737 17.7761 12.3833 17.7761 12.3922C17.7761 12.4246 17.7707 12.4499 17.7597 12.4687C17.749 12.488 17.7369 12.5018 17.7245 12.5114C17.7181 12.5164 17.7116 12.5207 17.706 12.5236C17.6999 12.5268 17.6942 12.53 17.6896 12.5325C17.7327 12.5485 17.7618 12.5716 17.7768 12.6022C17.7914 12.6328 17.7992 12.6649 17.7992 12.6983C17.7992 12.7261 17.7935 12.7521 17.7821 12.7767C17.7707 12.8009 17.7561 12.8222 17.7376 12.84C17.7369 12.8407 17.7362 12.8411 17.7359 12.8414C17.7355 12.8422 17.7351 12.8425 17.7351 12.8429C17.7152 12.8607 17.691 12.8749 17.6622 12.8856C17.634 12.8959 17.5842 12.9012 17.5141 12.9012H17.2129V12.2153ZM17.382 12.7827H17.5315C17.5611 12.7834 17.5842 12.7756 17.6006 12.7596C17.6173 12.7439 17.6251 12.7179 17.6251 12.683C17.6251 12.6535 17.6162 12.6325 17.5984 12.6197C17.5806 12.6069 17.5614 12.5997 17.5404 12.5994H17.382V12.7827ZM17.382 12.4837H17.5201C17.5429 12.4844 17.5625 12.4787 17.5789 12.467C17.5949 12.4552 17.6027 12.4356 17.6027 12.4082C17.6027 12.3797 17.5952 12.3602 17.5796 12.3498C17.5643 12.3388 17.5429 12.3335 17.5162 12.3335H17.382" fill="#007DC5"/>
<path fill-rule="evenodd" clip-rule="evenodd" d="M13.1476 4.99998H20.5235L20.562 5.00105L20.6022 5.00389C20.9884 5.04412 21.2896 5.36272 21.3099 5.75038L21.3106 5.78883V12.8721C21.3106 13.2594 21.024 13.593 20.6414 13.6517L20.6022 13.657L20.562 13.6599L20.5235 13.6609H13.1476C12.7589 13.6602 12.4296 13.3733 12.3698 12.9903L12.3648 12.9508L12.3616 12.9105L12.3609 12.8721V5.78883L12.3616 5.75038L12.3648 5.71016L12.3698 5.67064L12.3766 5.63184L12.3858 5.59375L12.3965 5.55602C12.4161 5.49301 12.4414 5.43748 12.4756 5.38123L12.4958 5.34884L12.5179 5.31822L12.5414 5.28832C12.6461 5.16053 12.7927 5.06619 12.9529 5.0249L12.991 5.016L13.0298 5.00923L13.0693 5.00389L13.1096 5.00105L13.1476 4.99998ZM13.1505 5.21641H20.521L20.5509 5.21748L20.5801 5.21962C20.8599 5.24845 21.0799 5.48091 21.0938 5.76142L21.0949 5.79168V12.8693C21.0952 13.1512 20.8873 13.395 20.6086 13.4378L20.5801 13.4417L20.5509 13.4438L20.521 13.4445H13.1505C12.8682 13.4452 12.6265 13.2356 12.5834 12.9575L12.5799 12.9287L12.5774 12.8995L12.5767 12.8693V5.79168L12.5774 5.76142L12.5799 5.73223L12.5834 5.70375L12.5884 5.67527L12.5948 5.64786L12.6026 5.62045C12.6162 5.57666 12.6365 5.53288 12.66 5.49372L12.6749 5.47058L12.6909 5.4478L12.708 5.42609C12.7835 5.33389 12.8913 5.26412 13.007 5.23493L13.0344 5.22816L13.0629 5.22318L13.0914 5.21962L13.1202 5.21748" fill="#007DC5"/>
<path fill-rule="evenodd" clip-rule="evenodd" d="M16.6487 5.58375C15.883 5.67701 15.2867 6.33344 15.2867 7.12549C15.2867 7.98055 15.9827 8.67792 16.8359 8.67792C17.6889 8.67792 18.3848 7.98055 18.3848 7.12549C18.3848 6.33344 17.7885 5.67701 17.0228 5.58375C17.1293 5.64782 17.2012 5.76494 17.2012 5.89808C17.2012 6.09992 17.0367 6.26438 16.8359 6.26438C16.6344 6.26438 16.4703 6.09992 16.4703 5.89808C16.4703 5.76494 16.5423 5.64782 16.6487 5.58375Z" fill="#007DC5"/>
<path fill-rule="evenodd" clip-rule="evenodd" d="M16.5195 9.22756C16.6202 9.40199 16.8445 9.46251 17.0185 9.36177C17.1926 9.26067 17.2528 9.03605 17.152 8.86126C17.0513 8.68683 16.8274 8.62632 16.6533 8.72706C16.4789 8.82816 16.4187 9.05278 16.5195 9.22756Z" fill="#007DC5"/>
<path fill-rule="evenodd" clip-rule="evenodd" d="M13.9396 10.937C14.4028 11.555 15.2682 11.7443 15.9523 11.3488C16.691 10.921 16.9459 9.968 16.5194 9.22721C16.0926 8.48642 15.1421 8.23118 14.4031 8.65907C13.7193 9.05491 13.4502 9.90108 13.7524 10.612C13.7549 10.4874 13.82 10.3667 13.935 10.3001C14.1091 10.1994 14.3334 10.2595 14.4341 10.4343C14.5345 10.6088 14.4743 10.8334 14.3002 10.9345C14.1853 11.0011 14.0486 10.9975 13.9396 10.937Z" fill="#007DC5"/>
<path fill-rule="evenodd" clip-rule="evenodd" d="M19.7315 10.937C19.2684 11.555 18.403 11.7444 17.7188 11.3489C16.9801 10.921 16.7253 9.96806 17.1517 9.22727C17.5785 8.48648 18.529 8.23124 19.268 8.65913C19.9518 9.05497 20.221 9.90114 19.9184 10.612C19.9162 10.4874 19.8511 10.3668 19.7361 10.3002C19.562 10.1994 19.3381 10.2596 19.2374 10.4344C19.1367 10.6088 19.1968 10.8334 19.3705 10.9345C19.4859 11.0011 19.6226 10.9976 19.7315 10.937Z" fill="#007DC5"/>
<path fill-rule="evenodd" clip-rule="evenodd" d="M14.1024 15.977C14.1024 16.1021 14.0379 16.2082 13.9086 16.2955C13.7953 16.3711 13.6677 16.4088 13.5259 16.4088C13.3779 16.4088 13.2473 16.3726 13.1338 16.2999C13.0079 16.2184 12.9448 16.1122 12.9448 15.9816C12.9448 15.8476 13.0063 15.7386 13.1292 15.6542C13.2425 15.5815 13.3748 15.5451 13.5259 15.5451C13.6709 15.5451 13.8001 15.583 13.9134 15.6586C14.0393 15.743 14.1024 15.849 14.1024 15.977Z" fill="#007DC5"/>
<path fill-rule="evenodd" clip-rule="evenodd" d="M26.7176 15.5451H27.6983V17.3268L28.4149 16.4975H29.5957L28.6972 17.3742L29.6472 19H28.5653L28.0586 17.9961L27.6983 18.3493V19H26.7176" fill="#007DC5"/>
<path fill-rule="evenodd" clip-rule="evenodd" d="M23.731 16.5504H24.6047V16.9514C24.7352 16.7887 24.8674 16.673 25.0009 16.603C25.1347 16.5331 25.2975 16.4976 25.4893 16.4976C25.7489 16.4976 25.9517 16.5755 26.0989 16.7297C26.2451 16.8839 26.3182 17.122 26.3182 17.4445V19H25.3762V17.6544C25.3762 17.5012 25.3479 17.3925 25.2913 17.3289C25.2338 17.2644 25.1545 17.2329 25.0513 17.2329C24.9381 17.2329 24.8453 17.2761 24.7752 17.362C24.7045 17.4476 24.6692 17.6024 24.6692 17.8251V19H23.731" fill="#007DC5"/>
<path fill-rule="evenodd" clip-rule="evenodd" d="M18.3327 19H17.2764V15.5451H18.3327V15.6694C18.4896 15.5839 18.6873 15.5453 18.9757 15.5453C19.6232 15.5453 20.1984 15.8093 20.2003 16.3643C20.2022 16.8427 19.9275 17.0155 19.5567 17.0406C20.0256 17.0951 20.454 17.3837 20.454 17.8709C20.454 18.6869 19.9123 19 18.9896 19C18.7007 19 18.5418 18.9609 18.3327 18.8864V19ZM18.3327 16.2224V16.8131C18.6395 16.8254 19.242 16.8646 19.242 16.4754C19.242 16.0881 18.6096 16.1074 18.3327 16.2224ZM18.3327 17.4769V18.3401C18.4489 18.3757 18.5704 18.3952 18.718 18.3952C19.0419 18.3952 19.4256 18.2487 19.4153 17.9113C19.3989 17.3775 18.7392 17.4573 18.3327 17.4769Z" fill="#007DC5"/>
<path fill-rule="evenodd" clip-rule="evenodd" d="M21.6287 17.3537L20.7392 17.2585C20.7728 17.1003 20.8213 16.9757 20.8845 16.8851C20.9478 16.7945 21.0384 16.716 21.1577 16.6492C21.2429 16.6008 21.3609 16.5634 21.5099 16.5372C21.6592 16.5111 21.8207 16.4975 21.9949 16.4975C22.2737 16.4975 22.4986 16.5134 22.6672 16.5453C22.8366 16.5771 22.9771 16.6443 23.0904 16.7446C23.2638 16.8981 23.3627 17.1788 23.3627 17.4063V18.9998H22.4892V18.722C22.2975 18.8897 21.9202 19.0006 21.5584 18.9998C21.098 18.9989 20.6628 18.8191 20.666 18.3709C20.6672 18.1829 20.7199 18.0287 20.8284 17.9081C20.9368 17.7865 21.136 17.6968 21.4271 17.638C21.777 17.5665 22.0035 17.5164 22.1072 17.488C22.2104 17.4592 22.3204 17.4211 22.4359 17.3751C22.4359 17.2585 22.4126 17.1774 22.3658 17.1305C22.3182 17.0844 22.2353 17.0606 22.1158 17.0606C21.9637 17.0606 21.8496 17.086 21.7731 17.1353C21.7137 17.1742 21.6654 17.2473 21.6287 17.3537ZM22.4359 17.8516C22.3078 17.8955 22.1745 17.934 22.0362 17.9673C21.8472 18.0149 21.7269 18.0625 21.677 18.1085C21.6247 18.1566 21.5991 18.2108 21.5991 18.2715C21.5991 18.3413 21.6247 18.3977 21.6756 18.4423C21.7269 18.4861 21.8019 18.5084 21.9011 18.5084C22.0049 18.5084 22.101 18.4845 22.1908 18.437C22.2798 18.3888 22.3431 18.3302 22.3806 18.262C22.4181 18.193 22.4359 18.1032 22.4359 17.9932" fill="#007DC5"/>
<path fill-rule="evenodd" clip-rule="evenodd" d="M10.0948 16.5504H10.9685V16.9514C11.099 16.7887 11.2311 16.6731 11.3648 16.6032C11.4984 16.5332 11.6614 16.4978 11.8532 16.4978C12.1128 16.4978 12.3156 16.5757 12.4627 16.7297C12.6088 16.8837 12.6821 17.122 12.6821 17.4444V18.9995H11.7399V17.6544C11.7399 17.5009 11.7116 17.3925 11.655 17.3287C11.5976 17.2642 11.5182 17.2327 11.4152 17.2327C11.3018 17.2327 11.2092 17.2761 11.1391 17.3618C11.0684 17.4475 11.0329 17.6024 11.0329 17.8249V18.9995H10.0948" fill="#D71920"/>
<path fill-rule="evenodd" clip-rule="evenodd" d="M14.3603 16.5504H15.234V16.9514C15.3645 16.7887 15.4966 16.6731 15.6302 16.6032C15.7639 16.5332 15.9268 16.4978 16.1186 16.4978C16.3782 16.4978 16.581 16.5757 16.7282 16.7297C16.8744 16.8837 16.9475 17.122 16.9475 17.4444V18.9995H16.0055V17.6544C16.0055 17.5009 15.977 17.3925 15.9204 17.3287C15.8631 17.2642 15.7836 17.2327 15.6806 17.2327C15.5674 17.2327 15.4746 17.2761 15.4045 17.3618C15.3338 17.4475 15.2985 17.6024 15.2985 17.8249V18.9995H14.3603" fill="#D71920"/>
<path d="M13.011 18.9995H14.0314V16.5504H13.011V18.9995Z" fill="#D71920"/>
<path fill-rule="evenodd" clip-rule="evenodd" d="M6.95962 16.7332C6.96471 17.8318 5.94606 18.1934 5.05616 17.8416V18.9995H4V15.5457H5.05616V15.6697C5.25277 15.5869 5.41918 15.5427 5.68318 15.5457C6.41573 15.5537 6.95565 15.8878 6.95962 16.7332ZM5.05616 16.2932V17.2022C5.50008 17.3761 5.99263 17.2863 6.00567 16.6804C6.01425 16.2759 5.53838 16.0118 5.05616 16.2932Z" fill="#D71920"/>
<path fill-rule="evenodd" clip-rule="evenodd" d="M8.03178 17.3537L7.14251 17.2583C7.17605 17.1003 7.22436 16.9757 7.28778 16.8851C7.35088 16.7947 7.44148 16.7161 7.56084 16.6494C7.64603 16.6009 7.76412 16.5636 7.91305 16.5373C8.0623 16.5111 8.22378 16.4976 8.39798 16.4976C8.67676 16.4976 8.90166 16.5135 9.07029 16.5453C9.23988 16.5771 9.38039 16.6445 9.49355 16.7446C9.66695 16.8983 9.76597 17.1788 9.76597 17.4063V18.9993H8.89228V18.7217C8.7006 18.8892 8.32327 19.0003 7.96153 18.9993C7.50124 18.9984 7.0659 18.8188 7.06908 18.3707C7.07035 18.1827 7.12296 18.0285 7.23152 17.9079C7.33991 17.7863 7.53906 17.6966 7.83024 17.6378C8.18007 17.5663 8.40656 17.5163 8.51051 17.4878C8.6135 17.4592 8.72364 17.421 8.83919 17.3751C8.83919 17.2583 8.81583 17.1774 8.76894 17.1305C8.72126 17.0846 8.63845 17.0606 8.51909 17.0606C8.36682 17.0606 8.25286 17.086 8.17626 17.1353C8.11681 17.1742 8.06849 17.2473 8.03178 17.3537ZM8.83919 17.8515C8.71109 17.8953 8.57758 17.9338 8.43946 17.9672C8.25032 18.0145 8.13016 18.0622 8.08026 18.1081C8.02781 18.1565 8.00222 18.2105 8.00222 18.2712C8.00222 18.3412 8.02781 18.3974 8.07867 18.4419C8.13016 18.4858 8.20518 18.508 8.30436 18.508C8.40815 18.508 8.50415 18.4844 8.59395 18.4368C8.68296 18.3885 8.74621 18.33 8.78372 18.2617C8.82123 18.1927 8.83919 18.1029 8.83919 17.9931" fill="#D71920"/>
</svg>
