<svg width="28" height="20" viewBox="0 0 28 20" fill="none" xmlns="http://www.w3.org/2000/svg">
<path fill-rule="evenodd" clip-rule="evenodd" d="M3.29413 12.0052C3.30838 11.9277 3.32144 11.8526 3.33424 11.779C3.35402 11.6652 3.37319 11.555 3.39523 11.4448C3.48854 10.9462 3.58251 10.4483 3.67648 9.95035C3.77045 9.45242 3.86442 8.95449 3.95774 8.45591C3.9707 8.39276 3.98884 8.35067 4.05106 8.34014C4.5358 8.26647 5.02314 8.21385 5.50789 8.33751C5.93042 8.44275 6.22594 8.74532 6.27519 9.10051C6.37629 9.80826 5.96931 10.3739 5.36532 10.5765C5.04647 10.6818 4.72244 10.7081 4.39323 10.6765C4.31547 10.6686 4.29214 10.6897 4.27917 10.766C4.20918 11.1527 4.1366 11.5369 4.06143 11.921C4.05624 11.9526 4.02773 12.0025 4.00958 12.0025C3.83341 12.0065 3.66013 12.006 3.48003 12.0055H3.48002H3.48001H3.48H3.47999H3.47998C3.41894 12.0053 3.35712 12.0052 3.29413 12.0052ZM4.40879 10.0503C4.45947 10.0503 4.50855 10.0517 4.55637 10.053C4.65777 10.0558 4.75352 10.0584 4.84687 10.0477C5.11646 10.0187 5.33162 9.89508 5.45345 9.63461C5.59084 9.33993 5.49234 9.02684 5.23311 8.93475C5.04907 8.86898 4.85983 8.88213 4.6706 8.90844C4.64727 8.91107 4.61616 8.94791 4.61098 8.97159C4.57472 9.16446 4.53845 9.35816 4.50082 9.55913L4.40879 10.0503ZM7.77316 11.6294L7.77316 11.6294C7.69205 11.7214 7.61501 11.8088 7.52464 11.8789C7.25246 12.092 6.94139 12.1394 6.62773 11.992C6.31667 11.8473 6.18965 11.5658 6.17669 11.2343C6.14817 10.5371 6.38925 9.96086 6.96732 9.56095C7.33023 9.30837 7.74758 9.23207 8.18048 9.25574C8.32368 9.26429 8.46578 9.28951 8.60821 9.31479C8.68494 9.32841 8.76176 9.34204 8.8389 9.35309C8.92704 9.36625 8.94 9.41624 8.92445 9.49254C8.90364 9.60257 8.8826 9.71249 8.86158 9.82234C8.78306 10.2326 8.70473 10.6418 8.6393 11.0527C8.60178 11.288 8.58681 11.5289 8.57199 11.7675V11.7675L8.56413 11.892C8.55894 11.9762 8.5382 12.0104 8.45266 12.0078C8.29194 12.0025 8.13123 12.0025 7.97051 12.0078C7.88756 12.0104 7.85904 11.9789 7.86682 11.8973C7.87422 11.8072 7.87898 11.7143 7.88392 11.6179C7.88591 11.5792 7.88792 11.5399 7.89015 11.5C7.84913 11.5433 7.81071 11.5869 7.77316 11.6294ZM8.07161 9.87401C7.82016 9.80298 7.61019 9.85297 7.43392 10.0029C7.10212 10.2871 6.95177 10.6554 6.98028 11.0948C6.98806 11.229 7.0399 11.3579 7.17988 11.4158C7.31986 11.4737 7.44688 11.4316 7.55575 11.3369C7.62056 11.279 7.68277 11.2132 7.72943 11.1395C7.91227 10.8563 7.96222 10.5368 8.01295 10.2122L8.01295 10.2122C8.03055 10.0997 8.04824 9.98649 8.07161 9.87401ZM11.7448 11.3474C11.8874 11.8105 12.2788 12.0683 12.9657 12.0683C13.4375 12.0552 13.9067 11.7842 14.1996 11.2264C14.3552 10.9264 14.4122 10.6055 14.3914 10.2687C14.3733 9.94507 14.2463 9.67144 13.9871 9.47674C13.7149 9.27152 13.4038 9.22943 13.072 9.26626C11.9625 9.39255 11.5089 10.5844 11.7448 11.3474ZM12.483 10.961C12.4833 10.9476 12.4836 10.9342 12.4836 10.9212C12.4913 10.6186 12.5639 10.3371 12.7428 10.0871C12.8232 9.97664 12.9242 9.89244 13.059 9.86087C13.3338 9.79772 13.5593 9.95822 13.5853 10.2608C13.6164 10.6318 13.5282 10.9738 13.2975 11.2711C13.2094 11.3816 13.0979 11.4579 12.9554 11.4711C12.6987 11.4947 12.5043 11.3185 12.4836 11.0422C12.4818 11.0158 12.4824 10.9882 12.483 10.9611V10.961ZM15.0084 9.32152H15.6668C15.6565 9.4636 15.6461 9.60041 15.6331 9.73986C15.6571 9.71717 15.6804 9.69475 15.7031 9.67277C15.7516 9.62593 15.7981 9.58108 15.8457 9.5399C16.1023 9.31363 16.3953 9.21365 16.7348 9.2689C17.0148 9.31626 17.2092 9.52411 17.2403 9.81616C17.2741 10.12 17.218 10.4148 17.1619 10.7089L17.1496 10.7739C17.1268 10.8934 17.1044 11.013 17.0819 11.1324C17.0326 11.3942 16.9835 11.6556 16.9318 11.9157C16.9241 11.9499 16.8852 11.9999 16.8593 12.0025C16.6363 12.0078 16.4134 12.0052 16.1905 12.0025C16.183 12.0025 16.1755 11.9984 16.1642 11.9922C16.1598 11.9898 16.1548 11.9871 16.149 11.9841C16.1905 11.7658 16.2319 11.5447 16.2708 11.3237C16.3304 10.9843 16.3875 10.6476 16.4393 10.3082C16.4497 10.2503 16.4445 10.1898 16.4367 10.1319C16.416 9.92929 16.2682 9.8372 16.0764 9.89772C15.8898 9.95823 15.7783 10.1056 15.6876 10.2687C15.5528 10.5081 15.5061 10.7739 15.4595 11.0396L15.4247 11.2368C15.385 11.4623 15.3455 11.6869 15.3013 11.9131C15.2936 11.9473 15.2547 11.9999 15.2287 12.0025C15.047 12.0088 14.8636 12.0084 14.668 12.008H14.668L14.5159 12.0078C14.687 11.1027 14.8477 10.2161 15.0084 9.32152ZM18.7464 11.4553C18.4716 11.4211 18.2876 11.2264 18.3057 10.9528C18.363 10.9528 18.42 10.9536 18.4768 10.9545C18.5894 10.9563 18.7009 10.958 18.8112 10.9528C19.0782 10.937 19.34 10.8922 19.5837 10.7686C19.8947 10.6107 20.0399 10.3503 20.0166 10.0108C19.9932 9.66618 19.8092 9.41623 19.48 9.31626C18.9875 9.16629 18.5338 9.27153 18.1476 9.60567C17.6784 10.0108 17.5021 10.5476 17.5695 11.1606C17.6162 11.5947 17.8495 11.9052 18.2746 12.0157C18.7308 12.1341 19.1793 12.071 19.6122 11.892C19.6433 11.8789 19.6796 11.8289 19.677 11.7973C19.6708 11.6689 19.6579 11.5406 19.6451 11.4122L19.645 11.4121L19.6355 11.3158C19.627 11.3158 19.6207 11.3154 19.6158 11.3151C19.6088 11.3146 19.6049 11.3143 19.6018 11.3158L19.6017 11.3159C19.5732 11.3264 19.5448 11.3369 19.5189 11.3474C19.27 11.4448 19.0134 11.4869 18.7464 11.4553ZM19.1482 10.2897C18.99 10.3739 18.5805 10.4239 18.3809 10.3818C18.4223 10.0319 18.7878 9.75826 19.0963 9.83456C19.2 9.86087 19.2752 9.91612 19.2933 10.0293C19.3115 10.1398 19.257 10.2318 19.1482 10.2897ZM20.8953 10.9633C20.872 11.2212 21.0535 11.4185 21.3308 11.4553C21.5901 11.4869 21.8389 11.4474 22.0826 11.358C22.105 11.3494 22.1266 11.3409 22.1503 11.3316L22.1505 11.3315C22.1707 11.3235 22.1924 11.315 22.2174 11.3053C22.2224 11.361 22.2281 11.4156 22.2336 11.4694L22.2336 11.4696L22.2336 11.4697C22.2451 11.5811 22.2562 11.6892 22.2615 11.7973C22.264 11.8289 22.2278 11.8789 22.1992 11.8921C21.7586 12.0762 21.3049 12.1394 20.8409 12.0105C20.4236 11.8947 20.2058 11.5869 20.154 11.1659C20.0892 10.6265 20.2266 10.1398 20.5972 9.73988C20.9964 9.31102 21.4864 9.15842 22.0515 9.31628C22.3962 9.41363 22.5803 9.66621 22.601 10.0214C22.6218 10.3687 22.4662 10.6292 22.1422 10.7818C21.8156 10.9344 21.4682 10.958 21.1157 10.9659C21.0457 10.9633 20.9731 10.9633 20.8953 10.9633ZM20.9705 10.4029C21.0177 10.3999 21.064 10.3976 21.1097 10.3952C21.2246 10.3894 21.3354 10.3838 21.4449 10.3687C21.5486 10.3555 21.6523 10.324 21.7456 10.2792C21.8467 10.2345 21.896 10.1398 21.8804 10.024C21.8648 9.91353 21.7923 9.86091 21.6912 9.8346C21.3853 9.75041 21.0042 10.0346 20.9705 10.4029ZM22.7436 11.4553C22.7099 11.6342 22.6788 11.8105 22.6451 12.0052C22.697 12.0052 22.7482 12.0053 22.7987 12.0054C22.9982 12.0058 23.1884 12.0062 23.3787 11.9999C23.3968 11.9999 23.4253 11.9499 23.4305 11.9184C23.457 11.787 23.4815 11.6549 23.506 11.5229C23.5512 11.2795 23.5963 11.0363 23.6534 10.7975C23.7805 10.2661 23.9956 10.0819 24.5063 10.0135C24.527 10.0109 24.5607 9.98717 24.5659 9.96876C24.5985 9.81753 24.6276 9.66515 24.6578 9.50708C24.6734 9.42589 24.6892 9.34319 24.7059 9.25838C24.2134 9.20575 23.9386 9.49517 23.7001 9.85036L23.7039 9.79935C23.7156 9.64215 23.7276 9.48217 23.7416 9.31363C23.6877 9.31363 23.6348 9.31346 23.5827 9.31329C23.4291 9.3128 23.2821 9.31233 23.135 9.31626C23.1143 9.31889 23.0754 9.36625 23.0728 9.39519C23.0175 10.0714 22.8866 10.7328 22.7558 11.3938L22.7436 11.4553Z" fill="#0C0E19"/>
<path fill-rule="evenodd" clip-rule="evenodd" d="M15.8803 6.14742C15.8541 6.14039 15.8279 6.13336 15.8016 6.12744C15.7213 6.12744 15.6409 6.12744 15.5553 6.13007C15.5261 6.136 15.4969 6.14247 15.4675 6.14899C15.4316 6.15693 15.3954 6.16494 15.3583 6.17217C14.9617 6.24847 14.5884 6.38791 14.2281 6.57209C13.4479 6.97201 12.748 7.49032 12.1207 8.10335C11.7033 8.50853 11.2989 8.93213 10.9075 9.36625C10.2206 10.1293 9.63212 10.9686 9.16292 11.8894C8.92185 12.3656 8.7041 12.8524 8.60559 13.3812C8.58745 13.4786 8.61856 13.5917 8.64966 13.689C8.66262 13.7285 8.73521 13.7575 8.78446 13.7732C8.79742 13.7785 8.8363 13.7127 8.85445 13.6759C8.86089 13.6616 8.86749 13.647 8.87423 13.6321C8.9868 13.3825 9.13904 13.045 9.27111 12.8216C9.55107 12.348 9.7721 11.9815 10.0858 11.5316C10.5886 10.8081 11.1762 10.0982 11.7932 9.47197C12.3764 8.87999 12.9605 8.35067 13.6941 7.95075C14.0311 7.76921 14.3759 7.5903 14.7284 7.44296C15.3376 7.18775 15.9727 7.0141 16.6259 6.91675C16.6959 6.90623 16.7892 6.85098 16.8126 6.79309C16.8333 6.74047 16.7841 6.64049 16.7348 6.5905C16.5352 6.38265 16.3019 6.22479 16.0116 6.17743C15.9678 6.17085 15.9241 6.15914 15.8803 6.14742ZM9.94578 9.73723C10.0702 9.39519 10.1324 9.04 10.1402 8.67166C10.1367 8.63219 10.1339 8.59272 10.131 8.55326C10.1252 8.47433 10.1195 8.3954 10.1091 8.31646C10.0391 7.70606 9.77988 7.18775 9.36771 6.7431C9.31846 6.69311 9.25106 6.65365 9.18367 6.62997C9.11627 6.60366 9.0722 6.64312 9.07739 6.72205C9.07751 6.72372 9.07764 6.72539 9.07776 6.72706C9.08283 6.79392 9.08807 6.86317 9.10072 6.92991C9.11893 7.03504 9.13702 7.14031 9.15512 7.24564C9.21945 7.62006 9.28395 7.99537 9.35475 8.36909C9.42474 8.74532 9.50251 9.11893 9.58546 9.48991C9.61398 9.60831 9.66064 9.7267 9.71766 9.83721C9.76173 9.9214 9.82395 9.91351 9.88098 9.83721C9.9069 9.80563 9.93282 9.77406 9.94578 9.73723Z" fill="#FC461E"/>
</svg>
