<svg width="46" height="32" viewBox="0 0 46 32" fill="none" xmlns="http://www.w3.org/2000/svg">
<path fill-rule="evenodd" clip-rule="evenodd" d="M5.33331 19.2082C5.35639 19.0842 5.37753 18.9641 5.39826 18.8463C5.43028 18.6643 5.46132 18.4879 5.49699 18.3116C5.64807 17.5139 5.8002 16.7173 5.95232 15.9207L5.95233 15.9207L5.95233 15.9206L5.95234 15.9206L5.95235 15.9206L5.95236 15.9205C6.1045 15.1238 6.25664 14.3271 6.40773 13.5294C6.42871 13.4284 6.45809 13.361 6.55882 13.3442C7.34365 13.2263 8.13267 13.1421 8.9175 13.34C9.6016 13.5084 10.08 13.9925 10.1598 14.5608C10.3235 15.6932 9.66455 16.5982 8.68667 16.9224C8.17044 17.0908 7.64583 17.1329 7.11281 17.0824C6.98691 17.0697 6.94913 17.1034 6.92815 17.2255C6.81483 17.8443 6.69732 18.4589 6.57561 19.0735C6.56721 19.124 6.52105 19.204 6.49167 19.204C6.20648 19.2103 5.92597 19.2096 5.63442 19.2088H5.63439H5.63436H5.63434H5.63431H5.63428L5.63385 19.2088C5.53514 19.2085 5.43517 19.2082 5.33331 19.2082ZM7.37692 16.0847L7.37695 16.0847C7.54111 16.0892 7.69613 16.0934 7.84728 16.0762C8.28376 16.0299 8.63211 15.8321 8.82936 15.4153C9.0518 14.9438 8.89232 14.4429 8.47262 14.2956C8.17464 14.1903 7.86826 14.2114 7.56189 14.2535C7.52412 14.2577 7.47375 14.3166 7.46536 14.3545C7.40665 14.6631 7.34794 14.9729 7.28703 15.2945L7.138 16.0805C7.22004 16.0805 7.2995 16.0826 7.37692 16.0847ZM12.7745 18.4C12.7081 18.4693 12.6459 18.539 12.5851 18.6071L12.5851 18.6071L12.5851 18.6071L12.5851 18.6071L12.5851 18.6071L12.5851 18.6071C12.4538 18.7542 12.329 18.894 12.1827 19.0062C11.742 19.3472 11.2384 19.4229 10.7306 19.1872C10.227 18.9557 10.0213 18.5052 10.0003 17.9748C9.95415 16.8592 10.3445 15.9373 11.2804 15.2975C11.868 14.8933 12.5437 14.7713 13.2445 14.8091C13.4764 14.8228 13.7065 14.8632 13.9371 14.9036C14.0613 14.9254 14.1857 14.9472 14.3106 14.9649C14.4533 14.986 14.4743 15.0659 14.4491 15.188C14.4155 15.3637 14.3815 15.5391 14.3475 15.7145L14.3475 15.7145L14.3475 15.7145L14.3475 15.7145L14.3475 15.7146L14.3473 15.7157L14.3473 15.7158C14.2201 16.3721 14.0933 17.0269 13.9874 17.6843C13.9267 18.0607 13.9024 18.4462 13.8784 18.8279L13.8784 18.8282C13.8742 18.8947 13.8701 18.9611 13.8657 19.0272C13.8573 19.1619 13.8237 19.2167 13.6852 19.2125C13.425 19.204 13.1648 19.204 12.9046 19.2125C12.7703 19.2167 12.7241 19.1661 12.7367 19.0356C12.7487 18.8914 12.7564 18.7429 12.7644 18.5886C12.7676 18.5267 12.7709 18.4639 12.7745 18.4ZM13.0683 15.7984C12.6612 15.6847 12.3212 15.7647 12.0358 16.0046C11.4986 16.4593 11.2552 17.0486 11.3014 17.7517C11.314 17.9664 11.3979 18.1726 11.6245 18.2652C11.8512 18.3578 12.0568 18.2905 12.2331 18.1389C12.338 18.0463 12.4387 17.9411 12.5143 17.8232C12.8103 17.37 12.8912 16.8588 12.9733 16.3395L12.9733 16.3395L12.9733 16.3395L12.9733 16.3395L12.9733 16.3395L12.9733 16.3395C13.0018 16.1594 13.0305 15.9783 13.0683 15.7984ZM19.0153 18.1558C19.2462 18.8967 19.8799 19.3093 20.9921 19.3093C21.7559 19.2882 22.5156 18.8546 22.9898 17.9622C23.2416 17.4823 23.334 16.9687 23.3004 16.4299C23.271 15.9121 23.0654 15.4743 22.6457 15.1627C22.205 14.8344 21.7014 14.767 21.1642 14.826C19.3679 15.028 18.6334 16.935 19.0153 18.1558ZM20.2105 17.5376L20.2105 17.5375C20.211 17.516 20.2115 17.4947 20.2115 17.4738C20.224 16.9897 20.3416 16.5393 20.6311 16.1394C20.7613 15.9626 20.9249 15.8279 21.1432 15.7773C21.588 15.6763 21.9532 15.9331 21.9951 16.4172C22.0455 17.0108 21.9028 17.558 21.5293 18.0337C21.3866 18.2105 21.2061 18.3326 20.9753 18.3537C20.5598 18.3915 20.245 18.1095 20.2115 17.6675C20.2086 17.6252 20.2096 17.5811 20.2105 17.5376ZM24.2993 14.9144H25.3653C25.3485 15.1417 25.3317 15.3606 25.3108 15.5837C25.3496 15.5475 25.3871 15.5116 25.4239 15.4765L25.4241 15.4764L25.4241 15.4763L25.4241 15.4763L25.4241 15.4763C25.5027 15.4014 25.5778 15.3297 25.6549 15.2638C26.0704 14.9018 26.5447 14.7418 27.0945 14.8302C27.5477 14.906 27.8625 15.2385 27.9129 15.7058C27.9676 16.192 27.8767 16.6636 27.7859 17.1342L27.7859 17.1343L27.766 17.2381C27.7293 17.4285 27.6931 17.619 27.6568 17.8093L27.6563 17.8118C27.5766 18.2306 27.497 18.6489 27.4134 19.0651C27.4008 19.1198 27.3379 19.1998 27.2959 19.204C26.935 19.2124 26.574 19.2082 26.2131 19.204C26.201 19.204 26.1889 19.1975 26.1705 19.1875C26.1634 19.1836 26.1553 19.1793 26.1459 19.1746C26.2131 18.8252 26.2803 18.4715 26.3432 18.1179C26.4397 17.5749 26.5321 17.0361 26.616 16.493C26.6328 16.4004 26.6244 16.3036 26.6118 16.211C26.5782 15.8868 26.339 15.7395 26.0284 15.8363C25.7263 15.9331 25.5458 16.1689 25.3989 16.4299C25.1807 16.8129 25.1051 17.2381 25.0296 17.6633V17.6633L25.0296 17.6633C25.0106 17.7687 24.9919 17.8739 24.9732 17.9789C24.909 18.3397 24.8451 18.699 24.7736 19.0609C24.761 19.1156 24.698 19.1998 24.656 19.204C24.3617 19.2141 24.0647 19.2135 23.7481 19.2128H23.7481H23.7479H23.7477H23.7475C23.667 19.2126 23.5852 19.2124 23.5019 19.2124C23.7789 17.7643 24.0391 16.3457 24.2993 14.9144ZM30.3512 18.3284C29.9064 18.2737 29.6084 17.9622 29.6378 17.5244C29.7306 17.5244 29.8229 17.5258 29.9148 17.5272H29.9148C30.0971 17.53 30.2776 17.5328 30.4562 17.5244C30.8884 17.4991 31.3123 17.4275 31.7068 17.2297C32.2105 16.9771 32.4455 16.5604 32.4077 16.0173C32.37 15.4658 32.072 15.0659 31.539 14.906C30.7416 14.666 30.0071 14.8344 29.3817 15.369C28.6221 16.0173 28.3367 16.8761 28.4458 17.8569C28.5214 18.5515 28.8991 19.0483 29.5874 19.2251C30.3261 19.4145 31.0521 19.3135 31.753 19.0272C31.8034 19.0062 31.8621 18.9262 31.8579 18.8757C31.8479 18.6703 31.827 18.4648 31.8062 18.2594C31.801 18.208 31.7958 18.1567 31.7908 18.1053C31.777 18.1053 31.7668 18.1046 31.7589 18.104C31.7476 18.1033 31.7412 18.1028 31.7362 18.1053C31.6901 18.1221 31.6439 18.139 31.6019 18.1558C31.199 18.3116 30.7835 18.3789 30.3512 18.3284ZM31.0017 16.4635C30.7457 16.5982 30.0826 16.6782 29.7594 16.6108C29.8266 16.051 30.4184 15.6132 30.9178 15.7352C31.0857 15.7773 31.2074 15.8657 31.2368 16.0468C31.2661 16.2236 31.178 16.3709 31.0017 16.4635ZM33.8305 17.5412C33.7928 17.9538 34.0865 18.2695 34.5356 18.3285C34.9553 18.379 35.3582 18.3158 35.7527 18.1727C35.7891 18.159 35.8242 18.1454 35.8627 18.1304L35.8628 18.1303C35.8955 18.1176 35.9306 18.1039 35.971 18.0885C35.9792 18.1777 35.9883 18.265 35.9972 18.3512L35.9973 18.3513C36.0158 18.5295 36.0338 18.7026 36.0423 18.8757C36.0465 18.9262 35.9878 19.0062 35.9416 19.0273C35.2281 19.3219 34.4936 19.423 33.7424 19.2167C33.0667 19.0315 32.7141 18.5389 32.6302 17.8654C32.5253 17.0024 32.7477 16.2236 33.3479 15.5838C33.9942 14.8976 34.7874 14.6534 35.7024 14.906C36.2606 15.0618 36.5585 15.4659 36.5921 16.0342C36.6257 16.5899 36.3739 17.0066 35.8493 17.2508C35.3204 17.4949 34.7581 17.5328 34.1873 17.5455C34.074 17.5412 33.9564 17.5412 33.8305 17.5412ZM33.9522 16.6446C34.0286 16.6398 34.1036 16.636 34.1775 16.6323C34.3637 16.623 34.5431 16.614 34.7203 16.5899C34.8882 16.5688 35.056 16.5183 35.2071 16.4467C35.3708 16.3752 35.4506 16.2236 35.4254 16.0384C35.4002 15.8616 35.2827 15.7774 35.119 15.7353C34.6238 15.6006 34.0068 16.0552 33.9522 16.6446ZM36.8229 18.3284C36.7683 18.6147 36.718 18.8967 36.6634 19.2082C36.7475 19.2082 36.8303 19.2084 36.9122 19.2086C37.2351 19.2093 37.5431 19.2099 37.8512 19.1998C37.8805 19.1998 37.9267 19.1198 37.9351 19.0693C37.9779 18.8591 38.0176 18.6478 38.0573 18.4366C38.1304 18.0472 38.2035 17.6581 38.296 17.276C38.5017 16.4257 38.85 16.131 39.6768 16.0215C39.7104 16.0173 39.765 15.9794 39.7733 15.95C39.826 15.708 39.8732 15.4643 39.9222 15.2114C39.9473 15.0814 39.9729 14.9491 40 14.8134C39.2026 14.7292 38.7577 15.1922 38.3716 15.7605L38.3777 15.6789C38.3967 15.4274 38.416 15.1714 38.4387 14.9018C38.3515 14.9018 38.2658 14.9015 38.1814 14.9012C37.9328 14.9004 37.6947 14.8997 37.4566 14.906C37.4231 14.9102 37.3601 14.9859 37.3559 15.0323C37.2664 16.1142 37.0544 17.1724 36.8426 18.2299L36.8229 18.3284Z" fill="#0C0E19"/>
<path fill-rule="evenodd" clip-rule="evenodd" d="M25.711 9.8358C25.6685 9.82455 25.626 9.8133 25.5835 9.80383C25.4534 9.80383 25.3233 9.80383 25.1848 9.80804C25.1375 9.81753 25.0902 9.82788 25.0425 9.83831C24.9844 9.85101 24.9258 9.86384 24.8659 9.8754C24.2237 9.99748 23.6194 10.2206 23.036 10.5153C21.7727 11.1551 20.6395 11.9844 19.6239 12.9653C18.9482 13.6136 18.2935 14.2913 17.6597 14.9859C16.5475 16.2067 15.5948 17.5496 14.8352 19.023C14.4449 19.7849 14.0923 20.5637 13.9328 21.4099C13.9035 21.5656 13.9538 21.7466 14.0042 21.9024C14.0252 21.9655 14.1427 22.0119 14.2224 22.0371C14.2434 22.0455 14.3064 21.9403 14.3357 21.8814C14.3462 21.8585 14.3568 21.8351 14.3678 21.8112C14.55 21.4119 14.7965 20.872 15.0103 20.5145C15.4636 19.7568 15.8215 19.1703 16.3293 18.4505C17.1435 17.2928 18.0948 16.157 19.0937 15.1551C20.038 14.2079 20.9837 13.361 22.1714 12.7211C22.717 12.4307 23.2752 12.1444 23.846 11.9087C24.8323 11.5003 25.8605 11.2225 26.9182 11.0667C27.0315 11.0499 27.1826 10.9615 27.2203 10.8689C27.2539 10.7847 27.1742 10.6247 27.0944 10.5447C26.7713 10.2122 26.3935 9.95959 25.9235 9.88382C25.8527 9.87329 25.7818 9.85455 25.711 9.8358ZM16.1027 15.5795C16.3041 15.0322 16.4048 14.4639 16.4174 13.8746C16.4118 13.8114 16.4072 13.7483 16.4025 13.6851C16.3932 13.5589 16.3839 13.4326 16.3671 13.3063C16.2538 12.3296 15.8341 11.5003 15.1667 10.7889C15.087 10.7089 14.9779 10.6458 14.8688 10.6079C14.7596 10.5658 14.6883 10.6289 14.6967 10.7552C14.6969 10.7579 14.6971 10.7605 14.6973 10.7632C14.7055 10.8702 14.714 10.981 14.7345 11.0878C14.7639 11.256 14.7932 11.4244 14.8225 11.593C14.9267 12.192 15.0311 12.7925 15.1458 13.3905C15.2591 13.9924 15.385 14.5902 15.5193 15.1838C15.5655 15.3732 15.641 15.5627 15.7333 15.7395C15.8047 15.8742 15.9054 15.8615 15.9977 15.7395L15.9977 15.7395C16.0397 15.6889 16.0817 15.6384 16.1027 15.5795Z" fill="#FC461E"/>
</svg>
