<svg width="28" height="20" viewBox="0 0 28 20" fill="none" xmlns="http://www.w3.org/2000/svg">
<path d="M24.0928 8.72856C24.4314 8.72856 24.7059 8.45078 24.7059 8.10811C24.7059 7.76545 24.4314 7.48767 24.0928 7.48767C23.7541 7.48767 23.4796 7.76545 23.4796 8.10811C23.4796 8.45078 23.7541 8.72856 24.0928 8.72856Z" fill="#7887E6"/>
<path d="M24.0928 10.6709C24.4314 10.6709 24.7059 10.3932 24.7059 10.0505C24.7059 9.70784 24.4314 9.43005 24.0928 9.43005C23.7541 9.43005 23.4796 9.70784 23.4796 10.0505C23.4796 10.3932 23.7541 10.6709 24.0928 10.6709Z" fill="#FF5073"/>
<path fill-rule="evenodd" clip-rule="evenodd" d="M4.85517 9.09694H4.26024V10.5998H3.29413V6.4861H4.85517C5.78612 6.4861 6.22807 7.03451 6.22807 7.76172C6.22807 8.60213 5.63866 9.09694 4.85517 9.09694ZM4.71025 7.20131H4.26024V8.38131H4.74924C5.08738 8.38131 5.30984 8.15491 5.28992 7.74757C5.27467 7.43928 5.01534 7.20131 4.71025 7.20131ZM8.89337 10.5994H7.95056H7.95013V10.4643C7.76199 10.584 7.5158 10.6706 7.2891 10.6706C6.71452 10.6706 6.27765 10.2324 6.27765 9.71053C6.27765 9.17627 6.65138 8.59784 7.95056 8.69132V8.4885C7.95056 8.25611 7.75606 8.1785 7.53826 8.1785C7.2319 8.1785 6.87257 8.31571 6.70181 8.39332L6.44248 7.85091C6.72511 7.67211 7.18487 7.4873 7.76793 7.4873C8.46327 7.4873 8.89337 7.79731 8.89337 8.48293V10.5994ZM7.21961 9.69338C7.21961 9.91377 7.37894 10.051 7.61453 10.051C7.76199 10.051 7.89759 9.99738 7.9853 9.93178V9.29375C7.41453 9.19813 7.21961 9.44297 7.21961 9.69338ZM18.2715 7.55891V7.43371C18.2715 6.7125 18.6719 6.2417 19.4321 6.2417C19.6033 6.2417 19.7503 6.26571 19.88 6.3013V6.98049C19.8037 6.9569 19.6918 6.93889 19.6033 6.93889C19.3143 6.93889 19.2084 7.1297 19.2084 7.39812V7.55891H19.8562V8.20894H19.2084V10.5994H18.2715V8.20894H17.7706V7.55891H18.2715ZM15.0498 7.85134C15.3324 7.67254 15.7922 7.48773 16.3753 7.48773C17.0706 7.48773 17.5007 7.79774 17.5003 8.48293V10.5994H16.5575V10.4647C16.3693 10.5844 16.1231 10.671 15.8964 10.671C15.3219 10.671 14.885 10.2328 14.885 9.71096C14.885 9.1767 15.2587 8.59827 16.5579 8.69175V8.48893C16.5579 8.25653 16.3634 8.17893 16.1456 8.17893C15.8392 8.17893 15.4799 8.31614 15.3091 8.39374L15.0498 7.85134ZM16.1867 10.051C16.3342 10.051 16.4693 9.99738 16.5579 9.93178H16.5575V9.29375C15.9867 9.19813 15.7918 9.44297 15.7918 9.69338C15.7918 9.91377 15.9511 10.051 16.1867 10.051ZM12.2451 7.55934L10.7226 11.4527H9.82558L10.2222 10.4566L8.95142 7.55934H9.91626L10.6603 9.37608L11.3087 7.55934H12.2451ZM22.8669 9.03263V9.27017V9.27103H20.9135C20.9283 9.4271 20.9677 9.55445 21.027 9.65564C21.0274 9.65607 21.0275 9.6565 21.0279 9.65693C21.0376 9.67279 21.0478 9.68823 21.0584 9.70281C21.0647 9.71181 21.0711 9.71996 21.0779 9.72854C21.0821 9.73368 21.0863 9.73925 21.091 9.7444C21.1025 9.75812 21.1147 9.77141 21.1275 9.78385L21.1287 9.78513C21.1601 9.81558 21.1952 9.84302 21.2342 9.86703C21.2346 9.86719 21.2348 9.8673 21.235 9.86738C21.2354 9.86752 21.2357 9.86762 21.2359 9.86789C21.2533 9.87861 21.2719 9.88847 21.291 9.8979C21.2948 9.89962 21.2982 9.90133 21.3016 9.90305C21.313 9.90862 21.3253 9.91377 21.3376 9.91848C21.3486 9.92277 21.3597 9.92663 21.3707 9.93049L21.3957 9.93821C21.4114 9.9425 21.427 9.94678 21.4431 9.95064C21.4459 9.95129 21.4486 9.95182 21.4514 9.95236C21.4542 9.95289 21.4569 9.95343 21.4597 9.95407C21.4753 9.9575 21.491 9.96008 21.5071 9.96265L21.509 9.96299C21.5129 9.96373 21.5166 9.96442 21.5207 9.96479C21.5406 9.96737 21.5609 9.96951 21.5813 9.9708C21.5838 9.97101 21.5863 9.97112 21.5887 9.97122C21.5911 9.97133 21.5936 9.97144 21.5961 9.97165C21.6177 9.97294 21.6393 9.9738 21.6618 9.9738C21.9177 9.9738 22.2033 9.9009 22.4851 9.73925L22.7478 10.3301C22.3321 10.6217 21.7927 10.6714 21.5203 10.6714C20.5423 10.6714 19.9296 10.057 19.9296 9.09737C19.9296 8.16135 20.5779 7.48773 21.4143 7.48773C22.2508 7.48773 22.8669 8.14119 22.8669 9.03263ZM21.9152 8.76935C21.8796 8.36416 21.6736 8.15534 21.4143 8.15534C21.155 8.15534 20.9491 8.36373 20.9135 8.76935H21.9152ZM13.2502 9.97937C13.5273 9.97937 13.6922 9.89576 13.6922 9.72896C13.6922 9.55075 13.4672 9.47302 13.1967 9.37959C12.7892 9.23879 12.2783 9.06231 12.2786 8.45249C12.2786 7.80889 12.8439 7.48688 13.5451 7.48688C13.9282 7.48688 14.3053 7.60608 14.5528 7.73128L14.2875 8.3573C14.099 8.27411 13.8396 8.1845 13.5922 8.1845C13.3566 8.1845 13.215 8.27369 13.215 8.4169C13.215 8.57442 13.4252 8.6455 13.682 8.73239C14.0859 8.869 14.6053 9.0447 14.6053 9.65693C14.6053 10.313 14.0163 10.6706 13.3328 10.6706C12.9498 10.6706 12.5375 10.5814 12.1841 10.3906L12.4845 9.77656C12.6964 9.88418 12.9676 9.97937 13.2502 9.97937ZM16.6265 12.6361V12.2356H16.4566V12.1233H16.9265L16.9439 12.2356H16.7833V12.6361H16.6265ZM17.4846 12.6361L17.4655 12.2648L17.4524 12.3146C17.4242 12.4218 17.3961 12.5288 17.3664 12.6361H17.2287L17.1295 12.2648L17.1104 12.6361H16.9702C16.9854 12.4659 16.999 12.2939 17.0121 12.1237H17.2092L17.299 12.4873L17.3 12.4832C17.3285 12.3628 17.3566 12.2441 17.3867 12.1237H17.5838L17.624 12.6361H17.4846ZM3.29842 12.2742V14.5622H3.83571V13.7265H4.16665C4.60268 13.7265 4.93022 13.4512 4.93022 12.9838C4.93022 12.5791 4.68446 12.2742 4.16665 12.2742H3.29842ZM4.40945 13.0036C4.40945 13.2124 4.28826 13.3286 4.10818 13.3286H3.83614V12.6721H4.10818C4.3014 12.6721 4.40945 12.808 4.40945 13.0036ZM5.95604 14.3932L5.9857 14.5622V14.5626H6.46409V13.3856C6.46409 13.004 6.22511 12.8316 5.83824 12.8316C5.51366 12.8316 5.25814 12.9345 5.10094 13.034L5.24501 13.3359C5.33993 13.2926 5.53993 13.2162 5.71027 13.2162C5.83146 13.2162 5.93951 13.2591 5.93951 13.3886V13.5014C5.24162 13.4881 5.00899 13.7299 5.00899 14.0948C5.00899 14.4331 5.27128 14.602 5.53018 14.602C5.73993 14.602 5.86409 14.4961 5.95604 14.3932ZM5.89723 13.8314C5.91077 13.833 5.92471 13.8346 5.93993 13.8358V14.1904C5.89078 14.2269 5.81536 14.2569 5.73358 14.2569C5.60264 14.2569 5.51408 14.1806 5.51408 14.0579C5.51408 13.919 5.61239 13.826 5.82214 13.826C5.84944 13.826 5.87269 13.8286 5.89723 13.8314ZM6.97215 15.2817L7.24758 14.5622H7.09037C7.02953 14.3685 6.96908 14.1748 6.90864 13.9812L6.90863 13.9812L6.90862 13.9811L6.90861 13.9811L6.9086 13.9811L6.90859 13.9811L6.90859 13.981L6.90855 13.9809C6.79308 13.611 6.67763 13.2411 6.55943 12.8711H7.09037L7.40478 14.1244L7.7586 12.8711H8.2798C8.12876 13.3129 7.97977 13.7548 7.83113 14.1957C7.70871 14.5588 7.58654 14.9211 7.46368 15.2821H6.97215V15.2817ZM9.22685 12.2742V14.5622H10.626V14.1677H9.76414V12.2742H9.22685ZM11.7502 14.5622L11.7205 14.3932C11.6286 14.4961 11.5044 14.602 11.2947 14.602C11.0358 14.602 10.7735 14.4331 10.7735 14.0948C10.7735 13.7299 11.0061 13.4881 11.704 13.5014V13.3886C11.704 13.2591 11.596 13.2162 11.4748 13.2162C11.3044 13.2162 11.1044 13.2926 11.0095 13.3359L10.8654 13.034C11.0226 12.9345 11.2782 12.8316 11.6027 12.8316C11.9896 12.8316 12.2286 13.004 12.2286 13.3856V14.5626H11.7502V14.5622ZM11.6618 13.8314L11.6617 13.8314C11.6372 13.8286 11.6139 13.826 11.5866 13.826C11.3769 13.826 11.2786 13.919 11.2786 14.0579C11.2786 14.1806 11.3671 14.2569 11.4981 14.2569C11.5799 14.2569 11.6553 14.2269 11.7044 14.1904V13.8358C11.6892 13.8346 11.6753 13.833 11.6618 13.8314ZM12.6612 14.1012C12.6612 14.5424 12.9727 14.5622 13.1299 14.5622V14.563H13.5036V14.208H13.3595C13.2447 14.208 13.1824 14.1548 13.1824 13.9825V13.233H13.5036V12.8715H13.1824V12.3672L12.6612 12.5495V12.8711H12.4057V13.2325H12.6612V14.1012ZM15.168 14.4361C15.0634 14.5159 14.7909 14.6021 14.5223 14.6021C13.9782 14.6021 13.6375 14.2603 13.6375 13.7265C13.6375 13.2059 13.9981 12.8312 14.4634 12.8312C14.8206 12.8312 15.1744 13.0267 15.1744 13.6236V13.8225H14.185C14.2112 14.1012 14.3782 14.214 14.6011 14.214C14.7685 14.214 14.9583 14.1445 15.0206 14.1047L15.168 14.4361ZM14.693 13.5443C14.693 13.3153 14.5947 13.2025 14.457 13.2025C14.3129 13.2025 14.2049 13.3187 14.185 13.5443H14.693ZM15.3875 12.8711V14.5622H15.9117V13.4679C16.0036 13.3749 16.1511 13.3187 16.2888 13.3187C16.3214 13.3187 16.3901 13.3187 16.4198 13.3251V12.8312C16.1939 12.8312 15.9939 12.9705 15.8858 13.1794V12.8711H15.3875Z" fill="#2D2341"/>
</svg>
