<svg width="46" height="32" viewBox="0 0 46 32" fill="none" xmlns="http://www.w3.org/2000/svg">
<path d="M39.0073 13.9658C39.5556 13.9658 40 13.5213 40 12.9731C40 12.4248 39.5556 11.9803 39.0073 11.9803C38.459 11.9803 38.0146 12.4248 38.0146 12.9731C38.0146 13.5213 38.459 13.9658 39.0073 13.9658Z" fill="#7887E6"/>
<path d="M39.0073 17.0736C39.5556 17.0736 40 16.6291 40 16.0808C40 15.5326 39.5556 15.0881 39.0073 15.0881C38.459 15.0881 38.0146 15.5326 38.0146 16.0808C38.0146 16.6291 38.459 17.0736 39.0073 17.0736Z" fill="#FF5073"/>
<path fill-rule="evenodd" clip-rule="evenodd" d="M7.86071 14.5551H6.8975V16.9597H5.33331V10.3777H7.86071C9.36796 10.3777 10.0835 11.2552 10.0835 12.4187C10.0835 13.7634 9.12921 14.5551 7.86071 14.5551ZM7.62608 11.5221H6.8975V13.4101H7.6892C8.23667 13.4101 8.59684 13.0478 8.5646 12.3961C8.5399 11.9028 8.12004 11.5221 7.62608 11.5221ZM14.3987 16.959H12.8723H12.8716V16.7429C12.567 16.9343 12.1684 17.0729 11.8014 17.0729C10.8711 17.0729 10.1638 16.3717 10.1638 15.5368C10.1638 14.682 10.7689 13.7565 12.8723 13.9061V13.5816C12.8723 13.2097 12.5574 13.0856 12.2048 13.0856C11.7088 13.0856 11.127 13.3051 10.8505 13.4293L10.4306 12.5614C10.8882 12.2753 11.6326 11.9797 12.5766 11.9797C13.7024 11.9797 14.3987 12.4757 14.3987 13.5727V16.959ZM11.6889 15.5094C11.6889 15.862 11.9468 16.0815 12.3283 16.0815C12.567 16.0815 12.7865 15.9958 12.9285 15.8908V14.87C12.0044 14.717 11.6889 15.1087 11.6889 15.5094ZM29.5823 12.0942V11.8939C29.5823 10.74 30.2307 9.98669 31.4614 9.98669C31.7386 9.98669 31.9767 10.0251 32.1866 10.0821V11.1688C32.0631 11.131 31.882 11.1022 31.7386 11.1022C31.2707 11.1022 31.0992 11.4075 31.0992 11.837V12.0942H32.1482V13.1343H31.0992V16.959H29.5823V13.1343H28.7714V12.0942H29.5823ZM24.3663 12.5621C24.8239 12.276 25.5683 11.9803 26.5123 11.9803C27.6381 11.9803 28.3344 12.4764 28.3337 13.5727V16.959H26.8073V16.7436C26.5027 16.935 26.1041 17.0736 25.7371 17.0736C24.8068 17.0736 24.0995 16.3724 24.0995 15.5375C24.0995 14.6827 24.7045 13.7572 26.808 13.9068V13.5823C26.808 13.2104 26.4931 13.0863 26.1404 13.0863C25.6444 13.0863 25.0627 13.3058 24.7862 13.43L24.3663 12.5621ZM26.207 16.0815C26.4457 16.0815 26.6646 15.9958 26.808 15.8908H26.8073V14.87C25.8832 14.717 25.5676 15.1087 25.5676 15.5094C25.5676 15.862 25.8256 16.0815 26.207 16.0815ZM19.8254 12.0949L17.3604 18.3242H15.908L16.5502 16.7305L14.4927 12.0949H16.0549L17.2596 15.0017L18.3092 12.0949H19.8254ZM37.0225 14.4522V14.8322V14.8336H33.8599C33.8839 15.0833 33.9477 15.2871 34.0437 15.449C34.0441 15.4493 34.0442 15.4497 34.0444 15.45C34.0446 15.4504 34.0447 15.4507 34.0451 15.4511C34.0609 15.4764 34.0773 15.5011 34.0945 15.5245C34.1048 15.5389 34.1151 15.5519 34.126 15.5656C34.1282 15.5682 34.1303 15.5708 34.1324 15.5734C34.1372 15.5793 34.1421 15.5853 34.1473 15.591C34.1658 15.613 34.1857 15.6342 34.2063 15.6541L34.2084 15.6562C34.2591 15.7049 34.3161 15.7488 34.3792 15.7872C34.3806 15.7879 34.3813 15.7879 34.3819 15.7886C34.4101 15.8057 34.4403 15.8215 34.4711 15.8366C34.4773 15.8394 34.4828 15.8421 34.4883 15.8449C34.5068 15.8538 34.5267 15.862 34.5466 15.8696C34.5644 15.8764 34.5823 15.8826 34.6001 15.8888C34.6131 15.8929 34.6269 15.897 34.6406 15.9011C34.666 15.908 34.6913 15.9148 34.7174 15.921C34.7227 15.9222 34.7279 15.9232 34.7332 15.9242C34.7368 15.9249 34.7405 15.9256 34.7442 15.9265C34.7696 15.932 34.7949 15.9361 34.821 15.9402L34.824 15.9408C34.8304 15.9419 34.8364 15.943 34.843 15.9436C34.8752 15.9478 34.9081 15.9512 34.9411 15.9532C34.9493 15.9539 34.9568 15.9539 34.9651 15.9546C35.0001 15.9567 35.0351 15.9581 35.0714 15.9581C35.4858 15.9581 35.9482 15.8414 36.4044 15.5828L36.8298 16.5282C36.1567 16.9947 35.2834 17.0742 34.8423 17.0742C33.2589 17.0742 32.2669 16.0911 32.2669 14.5558C32.2669 13.0581 33.3165 11.9803 34.6708 11.9803C36.025 11.9803 37.0225 13.0259 37.0225 14.4522ZM35.4817 14.0309C35.424 13.3826 35.0906 13.0485 34.6708 13.0485C34.2509 13.0485 33.9175 13.3819 33.8599 14.0309H35.4817ZM21.4527 15.967C21.9014 15.967 22.1682 15.8332 22.1682 15.5663C22.1682 15.2812 21.804 15.1568 21.3661 15.0073C20.7062 14.782 19.8792 14.4997 19.8796 13.524C19.8796 12.4942 20.7948 11.979 21.9302 11.979C22.5504 11.979 23.1609 12.1697 23.5616 12.37L23.1321 13.3717C22.8268 13.2386 22.407 13.0952 22.0063 13.0952C21.6249 13.0952 21.3957 13.2379 21.3957 13.467C21.3957 13.7191 21.7359 13.8328 22.1518 13.9718C22.8057 14.1904 23.6467 14.4715 23.6467 15.4511C23.6467 16.5007 22.6931 17.0729 21.5865 17.0729C20.9663 17.0729 20.2988 16.9302 19.7266 16.6249L20.213 15.6425C20.556 15.8147 20.9951 15.967 21.4527 15.967ZM26.9191 20.2177V19.577H26.644V19.3972H27.4048L27.433 19.577H27.1729V20.2177H26.9191ZM28.3084 20.2177L28.2775 19.6236L28.2563 19.703L28.2563 19.7032C28.2106 19.8748 28.1651 20.046 28.117 20.2177H27.894L27.7334 19.6236L27.7026 20.2177H27.4755C27.5002 19.9454 27.5221 19.6703 27.5434 19.3979H27.8624L28.0079 19.9797L28.0093 19.9739C28.0554 19.781 28.101 19.5908 28.1499 19.3979H28.4689L28.5341 20.2177H28.3084ZM5.34018 19.6387V23.2994H6.21008V21.9623H6.74589C7.45183 21.9623 7.98214 21.5219 7.98214 20.7741C7.98214 20.1265 7.58424 19.6387 6.74589 19.6387H5.34018ZM7.13899 20.8057C7.13899 21.1398 6.94278 21.3257 6.65121 21.3257H6.21077V20.2754H6.65121C6.96405 20.2754 7.13899 20.4928 7.13899 20.8057ZM9.64307 23.0291L9.69109 23.2994V23.3001H10.4656V21.4169C10.4656 20.8063 10.0787 20.5306 9.45234 20.5306C8.92683 20.5306 8.51315 20.6952 8.25862 20.8544L8.49188 21.3373C8.64555 21.2681 8.96937 21.1459 9.24516 21.1459C9.44137 21.1459 9.61631 21.2145 9.61631 21.4217V21.6022C8.48639 21.5809 8.10975 21.9678 8.10975 22.5517C8.10975 23.0929 8.53441 23.3632 8.95359 23.3632C9.29318 23.3632 9.49419 23.1938 9.64307 23.0291ZM9.54784 22.1303C9.56978 22.1328 9.59235 22.1353 9.617 22.1373V22.7046C9.53741 22.763 9.4153 22.811 9.28289 22.811C9.0709 22.811 8.92752 22.6889 8.92752 22.4927C8.92752 22.2704 9.08668 22.1215 9.42627 22.1215C9.47047 22.1215 9.50811 22.1258 9.54783 22.1303L9.54784 22.1303ZM11.2882 24.4506L11.7341 23.2994H11.4796C11.3812 22.9897 11.2833 22.68 11.1855 22.3704L11.1854 22.3699C10.9984 21.7779 10.8114 21.1859 10.62 20.5937H11.4796L11.9887 22.599L12.5615 20.5937H13.4053C13.1609 21.3005 12.9197 22.0074 12.679 22.7127L12.6789 22.713C12.4807 23.294 12.2829 23.8738 12.084 24.4513H11.2882V24.4506ZM14.9387 19.6387V23.2994H17.204V22.6683H15.8086V19.6387H14.9387ZM19.0241 23.2994L18.9761 23.0291C18.8272 23.1938 18.6262 23.3632 18.2866 23.3632C17.8674 23.3632 17.4427 23.0929 17.4427 22.5517C17.4427 21.9678 17.8194 21.5809 18.9493 21.6022V21.4217C18.9493 21.2145 18.7744 21.1459 18.5782 21.1459C18.3024 21.1459 17.9785 21.2681 17.8249 21.3373L17.5916 20.8544C17.8461 20.6952 18.2598 20.5306 18.7853 20.5306C19.4117 20.5306 19.7986 20.8063 19.7986 21.4169V23.3001H19.0241V23.2994ZM18.8809 22.1303L18.8808 22.1303C18.8411 22.1258 18.8035 22.1215 18.7593 22.1215C18.4197 22.1215 18.2605 22.2704 18.2605 22.4927C18.2605 22.6889 18.4039 22.811 18.6159 22.811C18.7483 22.811 18.8704 22.763 18.95 22.7046V22.1373C18.9254 22.1353 18.9028 22.1328 18.8809 22.1303ZM20.4991 22.5619C20.4991 23.2679 21.0033 23.2994 21.2578 23.2994V23.3008H21.8629V22.7328H21.6297C21.4438 22.7328 21.3429 22.6477 21.3429 22.3719V21.1727H21.8629V20.5944H21.3429V19.7876L20.4991 20.0791V20.5937H20.0854V21.172H20.4991V22.5619ZM24.5577 23.0978C24.3883 23.2254 23.9472 23.3633 23.5122 23.3633C22.6313 23.3633 22.0797 22.8165 22.0797 21.9623C22.0797 21.1295 22.6636 20.5299 23.4168 20.5299C23.9952 20.5299 24.568 20.8427 24.568 21.7977V22.116H22.9661C23.0086 22.562 23.2789 22.7424 23.6398 22.7424C23.9108 22.7424 24.2181 22.6312 24.319 22.5674L24.5577 23.0978ZM23.7887 21.6708C23.7887 21.3044 23.6295 21.124 23.4065 21.124C23.1733 21.124 22.9984 21.3099 22.9661 21.6708H23.7887ZM24.9131 20.5937V23.2994H25.7618V21.5487C25.9106 21.3998 26.1494 21.3099 26.3723 21.3099H26.3724C26.4252 21.3099 26.5363 21.3099 26.5843 21.3202V20.5299C26.2187 20.5299 25.8948 20.7528 25.7199 21.087V20.5937H24.9131Z" fill="#2D2341"/>
</svg>
