<svg width="28" height="20" viewBox="0 0 28 20" fill="none" xmlns="http://www.w3.org/2000/svg">
<path fill-rule="evenodd" clip-rule="evenodd" d="M17.0605 14.7303C17.0625 14.6947 17.0645 14.6376 17.0664 14.5594V13.0593L17.0615 12.9137C17.0603 12.8828 17.0588 12.8617 17.0573 12.8507C17.0557 12.8391 17.0532 12.8291 17.0497 12.8198C17.0385 12.7828 17.0136 12.7567 16.9762 12.741C16.9416 12.7265 16.8906 12.7194 16.8244 12.7189V12.6679H17.681C17.8055 12.6681 17.918 12.6762 18.0185 12.6924C18.1188 12.7084 18.1996 12.7307 18.2615 12.7589C18.4406 12.8438 18.529 12.9868 18.5281 13.1902C18.5301 13.4808 18.3389 13.6665 17.9432 13.7143L17.8768 13.725C17.9658 13.7282 18.0862 13.7579 18.1422 13.7708C18.1978 13.7837 18.2523 13.8041 18.3057 13.8319C18.5158 13.9374 18.6192 14.1062 18.6172 14.3395C18.6183 14.623 18.4801 14.8072 18.1995 14.8943C18.1383 14.9118 18.0614 14.9256 17.9685 14.9356C17.8753 14.9457 17.7741 14.9508 17.665 14.951H16.8244V14.8999C16.9233 14.8987 16.9914 14.8836 17.0215 14.8481C17.0341 14.836 17.0431 14.8228 17.049 14.8076C17.055 14.7921 17.0586 14.7658 17.0605 14.7303ZM17.3244 12.738V13.69H17.6587C18.0474 13.6878 18.2487 13.5262 18.2509 13.2029C18.2536 12.889 18.0414 12.7358 17.63 12.738H17.3244ZM18.3178 14.3141C18.3156 14.0921 18.2354 13.9353 18.0754 13.8475C18.0268 13.8227 17.9651 13.8036 17.891 13.7901C17.817 13.7768 17.7353 13.77 17.6459 13.7696H17.3244V14.8808H17.6459C17.8789 14.8819 18.0491 14.8384 18.154 14.7472C18.2072 14.7035 18.2475 14.6442 18.2756 14.5698C18.3035 14.4953 18.3175 14.4099 18.3178 14.3141Z" fill="#3A3A3A"/>
<path d="M19.8433 14.8859C19.8259 14.8515 19.8137 14.8106 19.8084 14.706L19.8069 14.6751L19.7863 14.6982C19.7618 14.726 19.7377 14.7499 19.7142 14.7703C19.6906 14.7909 19.6632 14.812 19.6324 14.8333C19.5648 14.883 19.4996 14.9179 19.4372 14.9383C19.3747 14.9586 19.3042 14.9685 19.2258 14.9679C19.0892 14.9684 18.9843 14.936 18.9093 14.8723C18.8674 14.8345 18.8345 14.7871 18.8104 14.7296C18.7864 14.6722 18.7741 14.6105 18.7735 14.5443C18.7751 14.3 18.9251 14.1424 19.2318 14.0726C19.313 14.0538 19.3987 14.0384 19.4889 14.0263C19.5795 14.0142 19.682 14.0043 19.7966 13.9965L19.8084 13.7834C19.8086 13.7106 19.8051 13.6516 19.7979 13.6066C19.7908 13.5611 19.7791 13.5214 19.7625 13.4878C19.717 13.3991 19.6242 13.3566 19.4901 13.3566C19.275 13.3555 19.1584 13.4579 19.1463 13.6616C19.145 13.694 19.142 13.7168 19.1378 13.7306C19.1337 13.7435 19.1266 13.7531 19.1167 13.7601C19.0954 13.7745 19.0613 13.7828 19.0123 13.7833C18.9069 13.785 18.8674 13.7536 18.8691 13.7008C18.8698 13.6456 18.8881 13.5922 18.9249 13.5407C18.9617 13.489 19.0129 13.4441 19.0792 13.4058C19.1983 13.3398 19.3508 13.3061 19.5379 13.3056C19.7426 13.3061 19.8798 13.3525 19.9548 13.4411C19.9851 13.4784 20.0077 13.5245 20.0223 13.5803C20.0369 13.6361 20.0444 13.7067 20.0443 13.7927L20.0439 13.811L20.0423 13.8942L20.0379 14.1142L20.0346 14.4168L20.0315 14.5633C20.0317 14.6322 20.0346 14.6848 20.0394 14.7436C20.0441 14.8009 20.0646 14.8647 20.1105 14.8817C20.1583 14.8994 20.2043 14.9064 20.2918 14.9069C20.3561 14.9056 20.4056 14.8983 20.4391 14.884C20.4774 14.8677 20.501 14.8332 20.5111 14.7842C20.521 14.7364 20.5253 14.6637 20.5243 14.5663V13.7124C20.5264 13.5963 20.5129 13.5145 20.4798 13.4717C20.4474 13.43 20.3872 13.412 20.3045 13.4128V13.3675L20.76 13.3343V13.6971L20.7837 13.6548C20.8512 13.5348 20.9277 13.4498 21.0128 13.3988C21.0979 13.3478 21.2046 13.3225 21.3331 13.3238C21.5262 13.3212 21.6608 13.386 21.7395 13.5153C21.7683 13.5586 21.7894 13.6108 21.8019 13.6719C21.8144 13.7331 21.8207 13.8113 21.8203 13.9065V14.5663C21.8192 14.6647 21.8233 14.738 21.8328 14.7855C21.8425 14.8345 21.8658 14.8689 21.9042 14.8848C21.9359 14.8978 22.0099 14.905 22.073 14.9067C22.1322 14.9049 22.1779 14.8976 22.2092 14.8839C22.2465 14.8676 22.2691 14.833 22.2787 14.784C22.2879 14.7364 22.2919 14.6636 22.2908 14.5663V13.015C22.2919 12.9261 22.2883 12.8602 22.2793 12.8177C22.27 12.7734 22.2472 12.7428 22.2097 12.7297C22.1773 12.7182 22.1286 12.7128 22.0647 12.7126V12.6672L22.5385 12.643C22.5325 12.7482 22.528 12.8558 22.525 12.9657C22.5217 13.0805 22.5202 13.1808 22.5202 13.2665V14.3087L23.0422 13.7367C23.116 13.6549 23.1564 13.5862 23.1569 13.5312C23.1607 13.4546 23.0833 13.42 22.9563 13.4136V13.3684H23.6346V13.4143C23.5939 13.4191 23.5584 13.4265 23.5283 13.4369C23.4955 13.448 23.4618 13.4642 23.4275 13.4849C23.3926 13.5059 23.3635 13.5253 23.3399 13.5428C23.3158 13.5609 23.2874 13.5864 23.2548 13.6197C23.2221 13.6528 23.1748 13.7031 23.1127 13.7706L22.9404 13.9561L23.3913 14.6654C23.4428 14.7495 23.4902 14.8089 23.5337 14.8427C23.5752 14.8749 23.6282 14.8956 23.6919 14.9054V14.9518H23.2795C23.2681 14.9287 23.2526 14.8988 23.2327 14.8621L23.1671 14.7425L23.117 14.6524L22.7832 14.1084L22.5209 14.4019L22.5202 14.5663C22.519 14.6636 22.523 14.7364 22.5324 14.7841C22.5421 14.8331 22.565 14.8677 22.6029 14.884C22.636 14.8982 22.6853 14.9056 22.7494 14.9069V14.9518H21.3553V14.9068C21.4497 14.9042 21.5146 14.8888 21.5406 14.8544C21.5511 14.841 21.5589 14.8258 21.5644 14.8087C21.57 14.7916 21.5734 14.7695 21.575 14.7425C21.5768 14.7211 21.5788 14.6904 21.5809 14.6499C21.5832 14.6093 21.5844 14.5814 21.5846 14.5665V13.9257C21.5851 13.7677 21.5682 13.6507 21.5324 13.5764C21.4781 13.4594 21.3799 13.4009 21.2408 13.4003C21.0856 13.3998 20.9619 13.4737 20.8702 13.6197C20.8356 13.6748 20.8089 13.7376 20.7896 13.8076C20.7701 13.8778 20.7603 13.9469 20.76 14.0149V14.5663C20.7588 14.6647 20.7629 14.738 20.7724 14.7855C20.7821 14.8345 20.8053 14.8689 20.8437 14.8848C20.8773 14.8986 20.9272 14.9057 20.9924 14.9069V14.9518L20.3067 14.9517C20.2459 14.9537 20.1301 14.9569 20.0727 14.9561C20.0125 14.9552 19.9835 14.9489 19.9286 14.9448C19.8798 14.9305 19.8593 14.9178 19.8433 14.8859ZM19.0348 14.5348C19.036 14.6386 19.0613 14.723 19.1116 14.7866C19.1621 14.8506 19.2305 14.8834 19.3149 14.885C19.4001 14.8838 19.4807 14.8616 19.5562 14.8184C19.6314 14.7753 19.6906 14.7178 19.7335 14.6462C19.7597 14.6006 19.7788 14.5419 19.7908 14.4708C19.8027 14.4 19.8086 14.312 19.8084 14.2068V14.0434C19.6557 14.0565 19.5466 14.0709 19.4671 14.0877C19.3872 14.1046 19.3166 14.1288 19.2551 14.1604C19.1092 14.2329 19.0359 14.3586 19.0348 14.5348Z" fill="#3A3A3A"/>
<path fill-rule="evenodd" clip-rule="evenodd" d="M5.62102 13.9899V14.5579C5.61983 14.6491 5.62501 14.7167 5.63666 14.7609C5.64842 14.8051 5.67367 14.8342 5.71262 14.8485C5.75157 14.8628 5.81134 14.8708 5.89193 14.8724V14.9517H5V14.8724C5.07606 14.8708 5.13227 14.8628 5.16874 14.8485C5.20521 14.8342 5.22884 14.8051 5.23963 14.7609C5.25041 14.7167 5.25516 14.6491 5.25397 14.5579V13.0647C5.25516 12.9735 5.25041 12.9058 5.24006 12.8616C5.22959 12.8173 5.20693 12.7879 5.17209 12.7732C5.13713 12.7584 5.08362 12.7498 5.01122 12.7471V12.6677H5.86097C6.14742 12.6665 6.35716 12.7171 6.49051 12.8193C6.62376 12.9215 6.68957 13.0827 6.68806 13.3028C6.68892 13.6123 6.56852 13.8148 6.32673 13.9105C6.26362 13.9352 6.18313 13.9545 6.08538 13.9685C5.98763 13.9824 5.87899 13.9896 5.75933 13.9899H5.62102ZM5.62102 13.9013H5.76786C5.94426 13.9008 6.07405 13.859 6.15734 13.7761C6.20266 13.7281 6.23697 13.6653 6.26038 13.5876C6.28379 13.5099 6.29555 13.4211 6.29566 13.3212C6.29469 12.9451 6.13005 12.7568 5.80163 12.7563H5.62102V13.9013Z" fill="#3A3A3A"/>
<path fill-rule="evenodd" clip-rule="evenodd" d="M8.12412 14.0858H7.08621C7.08739 14.1965 7.09387 14.2894 7.10573 14.3644C7.11749 14.4392 7.13648 14.5077 7.16259 14.5698C7.2488 14.7707 7.38194 14.871 7.56211 14.871C7.66418 14.8705 7.75675 14.8405 7.83972 14.7809C7.92279 14.7214 7.99173 14.6358 8.04687 14.524L8.12034 14.5728C8.04805 14.7166 7.9598 14.8222 7.85558 14.8897C7.75135 14.9571 7.62415 14.9904 7.47397 14.9898C7.23769 14.9868 7.0205 14.9113 6.88434 14.7634C6.74829 14.6155 6.67892 14.4129 6.67622 14.1558C6.67892 13.8968 6.74603 13.6919 6.87744 13.5409C7.00874 13.3901 7.21859 13.313 7.44462 13.3096C7.59502 13.31 7.74013 13.3442 7.84317 13.4123C7.9462 13.4805 8.02216 13.5802 8.07125 13.7114C8.08722 13.755 8.0993 13.8048 8.10761 13.8609C8.11581 13.917 8.12131 13.992 8.12412 14.0858ZM7.08912 13.9975H7.73841C7.73582 13.9037 7.73075 13.828 7.7233 13.7707C7.71596 13.7135 7.70431 13.6622 7.68845 13.6171C7.63364 13.4572 7.54938 13.3781 7.43588 13.3796C7.30857 13.3807 7.21352 13.4699 7.15083 13.6475C7.13487 13.6935 7.12203 13.7439 7.11232 13.7986C7.10261 13.8533 7.09484 13.9196 7.08912 13.9975Z" fill="#3A3A3A"/>
<path d="M8.19049 13.3532L8.76619 13.3134C8.76921 13.3708 8.77159 13.4191 8.7731 13.458C8.77461 13.4971 8.77536 13.5316 8.77536 13.5614V13.6533C8.90041 13.4247 9.05146 13.3093 9.22861 13.3072C9.30511 13.3087 9.36725 13.331 9.41505 13.3742C9.46274 13.4174 9.48744 13.4727 9.48885 13.54C9.48777 13.596 9.46705 13.6409 9.42681 13.6747C9.38667 13.7086 9.33391 13.7259 9.26842 13.7268C9.18977 13.7293 9.14187 13.6967 9.1245 13.6288C9.11317 13.5869 9.10141 13.5583 9.08922 13.5431C9.07713 13.5278 9.05922 13.5207 9.0357 13.5216H9.02955C8.96935 13.5268 8.91217 13.5747 8.85812 13.6655C8.83363 13.7109 8.81518 13.761 8.80288 13.816C8.79068 13.8709 8.78454 13.934 8.78454 14.0055V14.572C8.78335 14.6624 8.78777 14.7291 8.7977 14.7719C8.80762 14.8148 8.83017 14.8428 8.86535 14.8561C8.90041 14.8692 8.95522 14.8767 9.02955 14.8782V14.9518H8.1783V14.8782C8.24767 14.8785 8.29903 14.8718 8.33247 14.858C8.36592 14.8443 8.38761 14.8156 8.39764 14.7719C8.40756 14.7281 8.41199 14.6616 8.41102 14.572V13.7237C8.41382 13.5974 8.4012 13.5154 8.37304 13.4776C8.34499 13.4397 8.28403 13.4228 8.19049 13.4266V13.3532Z" fill="#3A3A3A"/>
<path d="M10.1728 13.3135L10.1759 13.6166C10.2998 13.4125 10.4774 13.3094 10.7086 13.3073C10.944 13.3058 11.0889 13.4129 11.1434 13.6289C11.21 13.5177 11.286 13.4361 11.3712 13.3842C11.4565 13.3325 11.5561 13.3068 11.6702 13.3073C11.8503 13.3084 11.983 13.3675 12.0683 13.4849C12.1016 13.5294 12.1252 13.5837 12.1395 13.648C12.1536 13.7123 12.1605 13.7957 12.1601 13.8983V14.572C12.1591 14.6616 12.1635 14.7281 12.1735 14.7718C12.1835 14.8156 12.2052 14.8443 12.2386 14.858C12.2721 14.8718 12.3234 14.8785 12.3929 14.8782V14.9518H11.563V14.8782C11.6294 14.8785 11.6786 14.8718 11.7107 14.858C11.7429 14.8443 11.7638 14.8156 11.7735 14.7718C11.7832 14.7281 11.7876 14.6616 11.7866 14.572V13.9014C11.7872 13.7405 11.7675 13.6244 11.7272 13.5531C11.6869 13.4818 11.622 13.4468 11.5324 13.4482C11.4247 13.4462 11.3339 13.5023 11.2599 13.6166C11.1961 13.7121 11.1644 13.8152 11.1649 13.926V14.572C11.1639 14.6616 11.1683 14.7281 11.1781 14.7718C11.1878 14.8156 11.209 14.8443 11.2416 14.858C11.2742 14.8718 11.3242 14.8785 11.3915 14.8782V14.9518H10.5709V14.8782C10.6372 14.8785 10.6865 14.8718 10.7186 14.858C10.7507 14.8443 10.7717 14.8156 10.7814 14.7718C10.7911 14.7281 10.7954 14.6616 10.7944 14.572V13.8983C10.7959 13.5952 10.7133 13.4451 10.5464 13.4482C10.4425 13.4519 10.3554 13.5012 10.2853 13.5959C10.2152 13.6908 10.1787 13.8089 10.1759 13.9504V14.572C10.1749 14.6625 10.1792 14.7296 10.1889 14.7732C10.1985 14.8169 10.2195 14.8454 10.2516 14.8588C10.2838 14.8722 10.333 14.8786 10.3993 14.8782V14.9518H9.56943V14.8782C9.63891 14.8786 9.69026 14.8722 9.72371 14.8588C9.75716 14.8454 9.77895 14.8169 9.78888 14.7732C9.7988 14.7296 9.80322 14.6625 9.80225 14.572V13.7207C9.80538 13.5961 9.79298 13.5154 9.76471 13.4784C9.73655 13.4415 9.67354 13.4243 9.57568 13.4267V13.3533L10.1728 13.3135Z" fill="#3A3A3A"/>
<path d="M14.5701 13.4536V14.4764C14.57 14.543 14.5724 14.5981 14.5773 14.6417C14.5823 14.6853 14.59 14.7221 14.6007 14.7519C14.6137 14.7861 14.6336 14.8134 14.6608 14.8338C14.6879 14.8542 14.7179 14.8648 14.7507 14.8652C14.8161 14.8643 14.8875 14.8326 14.9651 14.7703L15.0079 14.8469C14.885 14.9499 14.7451 15.001 14.5884 15C14.4195 14.9974 14.3041 14.9413 14.2424 14.8316C14.2303 14.8073 14.2208 14.7796 14.2141 14.7485C14.2074 14.7174 14.2028 14.6755 14.2002 14.6227C14.1976 14.5698 14.1963 14.4985 14.1964 14.409V13.4536H14.0219V13.3618C14.0886 13.3592 14.1451 13.3452 14.1915 13.3196C14.2379 13.294 14.2783 13.254 14.3129 13.1994C14.3399 13.1579 14.3623 13.1116 14.3799 13.0609C14.3973 13.0101 14.4128 12.947 14.4261 12.8717L14.5792 12.8564C14.5772 12.897 14.5755 12.9381 14.5742 12.9797C14.5728 13.0214 14.5718 13.0715 14.5711 13.1302C14.5704 13.1888 14.5701 13.264 14.5701 13.3555H14.9406V13.4536H14.5701Z" fill="#3A3A3A"/>
<path fill-rule="evenodd" clip-rule="evenodd" d="M14.0204 14.8869V14.9517C13.9307 14.9576 13.8946 14.9575 13.8004 14.9576C13.7256 14.9577 13.6483 14.9564 13.5841 14.9323C13.5444 14.9174 13.5221 14.9046 13.4926 14.8733C13.4719 14.8405 13.4587 14.8388 13.452 14.7474C13.373 14.8328 13.2907 14.8956 13.2053 14.9357C13.1197 14.976 13.0274 14.9958 12.9284 14.9955C12.7815 14.9939 12.6666 14.9533 12.5836 14.8737C12.5005 14.794 12.4583 14.6846 12.4568 14.5453C12.4563 14.2824 12.6198 14.1191 12.9469 14.0553C13.0944 14.0267 13.2617 14.0074 13.449 13.9972V13.7981C13.4506 13.6386 13.4337 13.5281 13.3985 13.4667C13.3633 13.4052 13.3005 13.3758 13.2101 13.3786C13.1142 13.3766 13.0458 13.4112 13.005 13.4827C12.9901 13.5072 12.9794 13.5355 12.9724 13.5673C12.9656 13.5992 12.9601 13.6434 12.956 13.7001C12.9536 13.7546 12.9377 13.7934 12.9086 13.8164C12.8793 13.8395 12.8328 13.8508 12.7692 13.8502C12.6273 13.8491 12.5559 13.8022 12.5548 13.7093C12.5553 13.6552 12.5721 13.6035 12.6051 13.5543C12.638 13.5051 12.6846 13.4618 12.7448 13.4245C12.8723 13.3459 13.0397 13.3072 13.2469 13.3082C13.4577 13.3072 13.6088 13.349 13.7002 13.4338C13.7413 13.4725 13.7715 13.522 13.7908 13.5822C13.8102 13.6424 13.8197 13.7195 13.8196 13.8134L13.8165 14.0798L13.8135 14.3462C13.8109 14.4335 13.8099 14.4886 13.8103 14.5116C13.8092 14.622 13.8128 14.7027 13.8208 14.7535C13.8288 14.8044 13.8376 14.8267 13.8711 14.8544C13.9295 14.8878 13.9796 14.8868 14.0204 14.8869ZM13.449 14.3034V14.0676C13.2298 14.0825 13.0743 14.1231 12.9825 14.1893C12.8907 14.2556 12.8461 14.3589 12.8488 14.4994C12.8498 14.6096 12.8724 14.6969 12.9166 14.7616C12.9608 14.8262 13.0209 14.8592 13.0968 14.8607C13.1592 14.8601 13.2167 14.8422 13.2695 14.8067C13.3222 14.7714 13.3638 14.722 13.3939 14.6586C13.4136 14.6198 13.4277 14.5725 13.4364 14.5166C13.445 14.4606 13.4492 14.3896 13.449 14.3034Z" fill="#3A3A3A"/>
<path fill-rule="evenodd" clip-rule="evenodd" d="M16.657 14.8869V14.9516C16.5673 14.9576 16.5312 14.9577 16.437 14.9578C16.3622 14.9579 16.2849 14.9566 16.2207 14.9324C16.181 14.9175 16.1588 14.9048 16.1292 14.8735C16.1085 14.8407 16.0953 14.839 16.0886 14.7476C16.0097 14.833 15.9273 14.8958 15.8418 14.9359C15.7563 14.9761 15.664 14.996 15.565 14.9957C15.4181 14.994 15.3032 14.9535 15.2202 14.8739C15.1371 14.7942 15.095 14.6848 15.0935 14.5454C15.0929 14.2826 15.2563 14.1193 15.5835 14.0555C15.731 14.0269 15.8983 14.0076 16.0856 13.9974V13.7983C16.0872 13.6388 16.0703 13.5282 16.0351 13.4669C15.9998 13.4054 15.9371 13.376 15.8467 13.3788C15.7508 13.3768 15.6824 13.4114 15.6416 13.4829C15.6268 13.5074 15.6159 13.5357 15.6091 13.5675C15.6023 13.5993 15.5968 13.6436 15.5927 13.7003C15.5902 13.7548 15.5743 13.7935 15.5452 13.8167C15.516 13.8397 15.4695 13.8509 15.4058 13.8504C15.2639 13.8493 15.1925 13.8024 15.1914 13.7095C15.192 13.6553 15.2087 13.6037 15.2417 13.5545C15.2746 13.5053 15.3212 13.462 15.3813 13.4247C15.5089 13.3461 15.6763 13.3074 15.8835 13.3084C16.0944 13.3074 16.2454 13.3491 16.3368 13.4339C16.3779 13.4727 16.4081 13.5222 16.4274 13.5824C16.4468 13.6426 16.4563 13.7196 16.4562 13.8136L16.4531 14.08L16.4501 14.3464C16.4475 14.4337 16.4465 14.4888 16.4469 14.5118C16.4459 14.6221 16.4494 14.7028 16.4574 14.7538C16.4654 14.8046 16.4742 14.8269 16.5077 14.8545C16.5662 14.888 16.6162 14.8868 16.657 14.8869ZM16.0856 14.3035V14.0678C15.8664 14.0827 15.7108 14.1233 15.6191 14.1895C15.5273 14.2557 15.4827 14.3591 15.4854 14.4996C15.4864 14.6097 15.509 14.6971 15.5532 14.7618C15.5974 14.8264 15.6575 14.8594 15.7335 14.8609C15.7958 14.8603 15.8533 14.8423 15.9061 14.8069C15.9588 14.7715 16.0003 14.7222 16.0305 14.6587C16.0502 14.6201 16.0644 14.5727 16.073 14.5167C16.0816 14.4608 16.0858 14.3897 16.0856 14.3035Z" fill="#3A3A3A"/>
<path d="M11.1666 7.29165L11.1592 7.43652L13.9391 10.6975L14.0389 10.7138L14.0514 10.7076L14.1002 10.6172L12.9148 6.64908L12.7135 6.51349L11.1666 7.29165Z" fill="#0097B9"/>
<path d="M15.6277 6.4349L17.4251 7.26131L17.4284 7.49446L14.4787 11.9626L14.344 11.9982L14.3241 11.989L14.2821 11.8883L15.471 6.52198L15.6277 6.4349Z" fill="#80B13A"/>
<path d="M12.882 5.16353L12.9536 5.02569L15.2548 5.00077L15.4036 5.15518L14.301 8.83871L14.2312 8.87927L14.2289 8.87914L14.1534 8.82824L12.882 5.16353Z" fill="#D81936"/>
<path fill-rule="evenodd" clip-rule="evenodd" d="M11.9887 7.59497L14.0445 10.7225L13.9351 10.7046L11.1517 7.43512L11.9887 7.59497Z" fill="#005874"/>
<path d="M12.7165 6.50999L12.917 6.64611L12.2942 7.47424L12.005 7.3478L12.7165 6.50999Z" fill="#2FB8E7"/>
<path d="M12.0048 7.3477L11.9887 7.59503L11.1518 7.43518L11.1605 7.29137L12.0048 7.3477Z" fill="#007592"/>
<path d="M12.2941 7.47432L12.9183 6.64486L14.1187 10.6163L14.0576 10.719L12.2941 7.47432Z" fill="#007592"/>
<path d="M17.4346 7.49389L14.4872 11.9718L14.3365 12.0156L16.231 7.59634L17.4346 7.49389Z" fill="#6E9123"/>
<path d="M15.8916 7.40971L14.3196 12.0018L14.2753 11.8892L15.4689 6.51743L15.8916 7.40971Z" fill="#3F7937"/>
<path d="M17.4299 7.26123L17.4346 7.49385L16.231 7.59644L16.1631 7.27767L17.4299 7.26123Z" fill="#A5C550"/>
<path d="M16.1632 7.27761L15.8915 7.40936L15.4686 6.51694L15.624 6.42933L16.1632 7.27761Z" fill="#5D8B27"/>
<path d="M13.9394 5.41128L13.7736 5.60718L12.8743 5.15931L12.9469 5.02306L13.9394 5.41128Z" fill="#AF2C35"/>
<path d="M12.8741 5.15932L13.7736 5.60718L14.2295 8.88672L14.1497 8.83238L12.8741 5.15932Z" fill="#762624"/>
<path d="M14.2062 5.60765L15.4076 5.15356L14.3067 8.84371L14.2311 8.88666L14.2062 5.60765Z" fill="#B22B37"/>
<path d="M13.9395 5.4113L14.2062 5.60773L15.4077 5.15363L15.2573 5.00001L13.9395 5.4113Z" fill="#DC505E"/>
</svg>
