<svg width="46" height="32" viewBox="0 0 46 32" fill="none" xmlns="http://www.w3.org/2000/svg">
<path fill-rule="evenodd" clip-rule="evenodd" d="M27.709 24.5145C27.7125 24.4504 27.7161 24.3476 27.7194 24.2068V21.5066L27.7107 21.2447C27.7086 21.1889 27.7058 21.1511 27.7031 21.1312C27.7002 21.1103 27.6957 21.0922 27.6895 21.0755C27.6693 21.0089 27.6245 20.9619 27.5571 20.9337C27.4949 20.9075 27.4031 20.8949 27.2838 20.8939V20.8021H28.8258C29.0499 20.8025 29.2525 20.817 29.4333 20.8462C29.6139 20.8751 29.7594 20.9151 29.8706 20.966C30.193 21.1188 30.3523 21.3761 30.3505 21.7422C30.3542 22.2654 30.0101 22.5996 29.2977 22.6857L29.1783 22.7049C29.3385 22.7107 29.5552 22.7641 29.656 22.7874C29.7561 22.8105 29.8541 22.8472 29.9503 22.8973C30.3284 23.0873 30.5146 23.391 30.5109 23.8111C30.5129 24.3212 30.2641 24.6529 29.7592 24.8097C29.6489 24.8411 29.5106 24.866 29.3434 24.884C29.1756 24.9021 28.9934 24.9114 28.7971 24.9118H27.2838V24.8198C27.4619 24.8176 27.5845 24.7904 27.6387 24.7265C27.6614 24.7048 27.6775 24.6809 27.6882 24.6535C27.6991 24.6257 27.7055 24.5784 27.709 24.5145ZM28.184 20.9283V22.642H28.7856C29.4853 22.6379 29.8477 22.3472 29.8516 21.7651C29.8565 21.2002 29.4745 20.9244 28.734 20.9283H28.184ZM29.972 23.7652C29.9681 23.3658 29.8236 23.0834 29.5356 22.9255C29.4482 22.8808 29.3372 22.8465 29.2037 22.8222C29.0705 22.7981 28.9235 22.7859 28.7627 22.7853H28.184V24.7854H28.7627C29.182 24.7873 29.4884 24.7091 29.6772 24.545C29.7729 24.4663 29.8456 24.3595 29.8961 24.2255C29.9464 24.0915 29.9714 23.9377 29.972 23.7652Z" fill="#3A3A3A"/>
<path d="M32.7179 24.7946C32.6866 24.7326 32.6646 24.659 32.6551 24.4708L32.6524 24.4151L32.6153 24.4568C32.5712 24.5067 32.5279 24.5499 32.4856 24.5866C32.4431 24.6237 32.3937 24.6615 32.3384 24.7C32.2166 24.7893 32.0993 24.8522 31.9869 24.8889C31.8744 24.9254 31.7476 24.9433 31.6064 24.9421C31.3606 24.9431 31.1718 24.8849 31.0368 24.7701C30.9613 24.7021 30.9021 24.6169 30.8587 24.5133C30.8154 24.41 30.7933 24.2989 30.7923 24.1797C30.7952 23.74 31.0652 23.4563 31.6173 23.3306C31.7633 23.2969 31.9177 23.2691 32.0801 23.2473C32.243 23.2256 32.4275 23.2077 32.634 23.1937L32.6551 22.8102C32.6555 22.6791 32.6491 22.5729 32.6363 22.4919C32.6235 22.4099 32.6023 22.3385 32.5726 22.2781C32.4906 22.1184 32.3236 22.0419 32.0822 22.0419C31.695 22.04 31.4851 22.2243 31.4633 22.5909C31.461 22.6492 31.4555 22.6902 31.448 22.715C31.4406 22.7383 31.428 22.7556 31.4101 22.7682C31.3716 22.7941 31.3103 22.809 31.2221 22.81C31.0324 22.8129 30.9613 22.7564 30.9644 22.6614C30.9656 22.562 30.9986 22.4659 31.0648 22.3732C31.131 22.2802 31.2233 22.1994 31.3425 22.1305C31.5569 22.0116 31.8315 21.951 32.1683 21.9501C32.5367 21.951 32.7837 22.0345 32.9187 22.194C32.9732 22.2612 33.0138 22.3441 33.0402 22.4445C33.0664 22.5449 33.0798 22.6721 33.0797 22.8269L33.0791 22.8597L33.0762 23.0096L33.0682 23.4056L33.0624 23.9502L33.0567 24.2139C33.0571 24.338 33.0624 24.4326 33.0709 24.5384C33.0795 24.6415 33.1164 24.7565 33.1989 24.787C33.2849 24.8188 33.3677 24.8315 33.5252 24.8324C33.6409 24.8301 33.73 24.8169 33.7904 24.7913C33.8594 24.7619 33.9017 24.6998 33.92 24.6116C33.9378 24.5256 33.9456 24.3947 33.9437 24.2193V22.6824C33.9475 22.4732 33.9233 22.326 33.8637 22.2491C33.8054 22.174 33.697 22.1415 33.5481 22.1431V22.0615L34.368 22.0017V22.6548L34.4107 22.5787C34.5321 22.3625 34.6698 22.2097 34.823 22.1178C34.9762 22.026 35.1683 21.9805 35.3996 21.9829C35.7472 21.9782 35.9894 22.0947 36.1312 22.3276C36.183 22.4055 36.2209 22.4995 36.2434 22.6094C36.2659 22.7195 36.2772 22.8603 36.2766 23.0318V24.2193C36.2745 24.3964 36.2819 24.5283 36.299 24.6139C36.3164 24.7021 36.3584 24.7641 36.4275 24.7926C36.4846 24.8161 36.6178 24.8289 36.7315 24.832C36.8379 24.8287 36.9202 24.8157 36.9765 24.7911C37.0437 24.7617 37.0843 24.6994 37.1016 24.6112C37.1183 24.5256 37.1255 24.3945 37.1234 24.2193V21.4271C37.1255 21.267 37.1189 21.1484 37.1028 21.0719C37.0861 20.9921 37.0449 20.9371 36.9775 20.9134C36.9191 20.8928 36.8315 20.8831 36.7165 20.8827V20.801L37.5692 20.7575C37.5586 20.9468 37.5504 21.1404 37.545 21.3383C37.5391 21.5449 37.5364 21.7254 37.5364 21.8798V23.7556L38.476 22.7261C38.6088 22.5789 38.6814 22.4552 38.6824 22.3561C38.6892 22.2183 38.55 22.1559 38.3214 22.1445V22.0631H39.5424V22.1458C39.4689 22.1544 39.4051 22.1678 39.3509 22.1864C39.2918 22.2064 39.2312 22.2355 39.1695 22.2728C39.1068 22.3107 39.0543 22.3455 39.0118 22.3771C38.9685 22.4095 38.9174 22.4556 38.8586 22.5154C38.7997 22.575 38.7147 22.6655 38.6028 22.7871L38.2927 23.1209L39.1044 24.3978C39.1971 24.5491 39.2823 24.6561 39.3606 24.7169C39.4353 24.7747 39.5307 24.812 39.6455 24.8297V24.9132H38.903C38.8826 24.8717 38.8547 24.8179 38.8189 24.7518L38.7009 24.5365L38.6106 24.3743L38.0097 23.3951L37.5376 23.9234L37.5364 24.2193C37.5343 24.3945 37.5415 24.5256 37.5584 24.6114C37.5758 24.6996 37.617 24.7619 37.6852 24.7913C37.7448 24.8167 37.8336 24.8301 37.9489 24.8324V24.9132H35.4396V24.8322C35.6095 24.8276 35.7263 24.7998 35.7731 24.7378C35.7919 24.7138 35.8061 24.6864 35.816 24.6557C35.8261 24.6248 35.8321 24.585 35.835 24.5365C35.8383 24.498 35.8418 24.4427 35.8457 24.3698C35.8498 24.2968 35.8519 24.2465 35.8523 24.2197V23.0663C35.8533 22.7818 35.8228 22.5713 35.7583 22.4375C35.6606 22.227 35.4839 22.1215 35.2334 22.1206C34.9541 22.1196 34.7314 22.2526 34.5663 22.5154C34.5041 22.6146 34.456 22.7276 34.4212 22.8537C34.3863 22.9801 34.3686 23.1044 34.368 23.2267V24.2193C34.3659 24.3964 34.3732 24.5283 34.3903 24.6139C34.4078 24.7021 34.4496 24.7641 34.5187 24.7926C34.5791 24.8175 34.669 24.8303 34.7863 24.8324V24.9132L33.5522 24.913C33.4426 24.9167 33.2342 24.9223 33.1309 24.921C33.0226 24.9194 32.9703 24.908 32.8715 24.9006C32.7837 24.875 32.7468 24.852 32.7179 24.7946ZM31.2627 24.1626C31.2648 24.3494 31.3103 24.5013 31.401 24.6159C31.4918 24.731 31.615 24.7901 31.7668 24.793C31.9203 24.7909 32.0653 24.7509 32.2011 24.6732C32.3364 24.5955 32.4431 24.492 32.5203 24.3632C32.5675 24.2811 32.6019 24.1754 32.6235 24.0475C32.6448 23.9201 32.6555 23.7616 32.6551 23.5722V23.278C32.3803 23.3017 32.1838 23.3275 32.0409 23.3578C31.897 23.3883 31.7699 23.4318 31.6593 23.4887C31.3965 23.6192 31.2646 23.8455 31.2627 24.1626Z" fill="#3A3A3A"/>
<path fill-rule="evenodd" clip-rule="evenodd" d="M7.11783 23.1818V24.2042C7.1157 24.3683 7.12502 24.4901 7.14599 24.5695C7.16716 24.6492 7.21261 24.7016 7.28271 24.7272C7.35282 24.7531 7.46041 24.7674 7.60548 24.7703V24.9131H6V24.7703C6.13691 24.7674 6.23809 24.7531 6.30373 24.7272C6.36937 24.7016 6.41191 24.6492 6.43133 24.5695C6.45075 24.4901 6.45929 24.3683 6.45715 24.2042V21.5165C6.45929 21.3524 6.45075 21.2304 6.4321 21.1508C6.41326 21.0712 6.37248 21.0181 6.30975 20.9917C6.24683 20.9651 6.15051 20.9496 6.0202 20.9447V20.8018H7.54974C8.06535 20.7997 8.44288 20.8907 8.68292 21.0747C8.92276 21.2588 9.04122 21.5489 9.0385 21.9451C9.04006 22.5021 8.82333 22.8666 8.38812 23.0388C8.27451 23.0833 8.12963 23.1181 7.95369 23.1433C7.77774 23.1684 7.58217 23.1812 7.3668 23.1818H7.11783ZM7.11783 23.0223H7.38214C7.69967 23.0214 7.93329 22.9462 8.08322 22.797C8.16478 22.7106 8.22654 22.5976 8.26868 22.4576C8.31083 22.3178 8.33199 22.1579 8.33219 21.9781C8.33044 21.3011 8.03409 20.9622 7.44293 20.9612H7.11783V23.0223Z" fill="#3A3A3A"/>
<path fill-rule="evenodd" clip-rule="evenodd" d="M11.6234 23.3544H9.75518C9.75731 23.5536 9.76897 23.7208 9.79033 23.8558C9.8115 23.9906 9.84568 24.1139 9.89267 24.2256C10.0478 24.5872 10.2875 24.7678 10.6118 24.7678C10.7955 24.7668 10.9622 24.7128 11.1115 24.6056C11.261 24.4984 11.3851 24.3444 11.4844 24.1432L11.6166 24.231C11.4865 24.4899 11.3276 24.68 11.14 24.8014C10.9524 24.9228 10.7235 24.9828 10.4531 24.9816C10.0278 24.9762 9.63691 24.8402 9.39182 24.5742C9.14693 24.3079 9.02206 23.9432 9.0172 23.4804C9.02206 23.0141 9.14285 22.6453 9.37939 22.3737C9.61574 22.1022 9.99346 21.9633 10.4003 21.9573C10.671 21.9581 10.9322 22.0196 11.1177 22.1422C11.3032 22.2649 11.4399 22.4443 11.5283 22.6805C11.557 22.759 11.5787 22.8487 11.5937 22.9497C11.6085 23.0506 11.6184 23.1856 11.6234 23.3544ZM9.76042 23.1955H10.9291C10.9245 23.0266 10.9153 22.8904 10.9019 22.7873C10.8887 22.6842 10.8678 22.5919 10.8392 22.5108C10.7406 22.223 10.5889 22.0806 10.3846 22.0833C10.1554 22.0853 9.98434 22.2459 9.8715 22.5655C9.84276 22.6483 9.81965 22.739 9.80217 22.8374C9.7847 22.9359 9.77071 23.0553 9.76042 23.1955Z" fill="#3A3A3A"/>
<path d="M11.7429 22.0357L12.7792 21.964C12.7846 22.0674 12.7889 22.1544 12.7916 22.2245C12.7943 22.2948 12.7957 22.3569 12.7957 22.4105V22.576C13.0207 22.1645 13.2926 21.9567 13.6115 21.953C13.7492 21.9557 13.8611 21.9959 13.9471 22.0736C14.0329 22.1512 14.0774 22.2509 14.0799 22.3721C14.078 22.4728 14.0407 22.5536 13.9683 22.6144C13.896 22.6754 13.8011 22.7067 13.6832 22.7082C13.5416 22.7127 13.4554 22.654 13.4241 22.5319C13.4037 22.4563 13.3825 22.4049 13.3606 22.3775C13.3388 22.3501 13.3066 22.3373 13.2643 22.3388H13.2532C13.1448 22.3482 13.0419 22.4344 12.9446 22.5979C12.9005 22.6797 12.8673 22.7698 12.8452 22.8688C12.8232 22.9677 12.8122 23.0813 12.8122 23.2099V24.2296C12.81 24.3924 12.818 24.5124 12.8359 24.5895C12.8537 24.6666 12.8943 24.7171 12.9576 24.7409C13.0207 24.7646 13.1194 24.778 13.2532 24.7808V24.9132H11.7209V24.7808C11.8458 24.7813 11.9383 24.7693 11.9985 24.7444C12.0587 24.7198 12.0977 24.6681 12.1158 24.5895C12.1336 24.5106 12.1416 24.3908 12.1398 24.2296V22.7026C12.1449 22.4754 12.1222 22.3278 12.0715 22.2596C12.021 22.1914 11.9113 22.161 11.7429 22.168V22.0357Z" fill="#3A3A3A"/>
<path d="M15.311 21.9642L15.3166 22.5099C15.5397 22.1425 15.8594 21.9569 16.2756 21.9532C16.6991 21.9504 16.9599 22.1433 17.0582 22.5321C17.178 22.3319 17.3147 22.185 17.4682 22.0916C17.6218 21.9984 17.801 21.9522 18.0063 21.9532C18.3306 21.9551 18.5695 22.0615 18.7229 22.2728C18.7829 22.3528 18.8254 22.4507 18.8511 22.5665C18.8765 22.6822 18.889 22.8323 18.8882 23.017V24.2296C18.8864 24.3908 18.8944 24.5106 18.9123 24.5893C18.9303 24.6681 18.9694 24.7198 19.0296 24.7444C19.0898 24.7693 19.1822 24.7813 19.3073 24.7808V24.9132H17.8135V24.7808C17.9329 24.7813 18.0214 24.7693 18.0793 24.7444C18.1372 24.7198 18.1749 24.6681 18.1923 24.5893C18.2098 24.5106 18.2176 24.3908 18.2158 24.2296V23.0224C18.217 22.7329 18.1815 22.5239 18.109 22.3956C18.0364 22.2672 17.9197 22.2043 17.7583 22.2068C17.5645 22.2031 17.401 22.3041 17.2677 22.5099C17.153 22.6818 17.0959 22.8673 17.0968 23.0667V24.2296C17.0951 24.3908 17.1029 24.5106 17.1205 24.5893C17.138 24.6681 17.1763 24.7198 17.2349 24.7444C17.2936 24.7693 17.3835 24.7813 17.5047 24.7808V24.9132H16.0276V24.7808C16.147 24.7813 16.2357 24.7693 16.2934 24.7444C16.3513 24.7198 16.389 24.6681 16.4065 24.5893C16.4239 24.5106 16.4317 24.3908 16.43 24.2296V23.017C16.4327 22.4713 16.2839 22.2012 15.9835 22.2068C15.7965 22.2134 15.6397 22.3021 15.5135 22.4727C15.3873 22.6434 15.3216 22.856 15.3166 23.1108V24.2296C15.3148 24.3925 15.3226 24.5133 15.3401 24.5918C15.3574 24.6705 15.395 24.7217 15.4529 24.7458C15.5108 24.7699 15.5993 24.7815 15.7188 24.7808V24.9132H14.225V24.7808C14.35 24.7815 14.4425 24.7699 14.5027 24.7458C14.5629 24.7217 14.6021 24.6705 14.62 24.5918C14.6378 24.5133 14.6458 24.3925 14.6441 24.2296V22.6973C14.6497 22.473 14.6274 22.3278 14.5765 22.2612C14.5258 22.1948 14.4124 22.1637 14.2362 22.1681V22.0359L15.311 21.9642Z" fill="#3A3A3A"/>
<path d="M23.2261 22.2165V24.0575C23.2259 24.1773 23.2304 24.2766 23.2391 24.355C23.2481 24.4335 23.2621 24.4997 23.2813 24.5535C23.3046 24.6151 23.3405 24.6642 23.3895 24.7009C23.4382 24.7376 23.4922 24.7566 23.5512 24.7574C23.6689 24.7557 23.7975 24.6988 23.9371 24.5865L24.0142 24.7244C23.793 24.9099 23.5411 25.0017 23.2591 25C22.955 24.9953 22.7474 24.8943 22.6363 24.6968C22.6146 24.6531 22.5975 24.6032 22.5855 24.5473C22.5734 24.4914 22.5651 24.4158 22.5604 24.3208C22.5557 24.2257 22.5534 24.0973 22.5536 23.9361V22.2165H22.2394V22.0512C22.3594 22.0465 22.4612 22.0213 22.5447 21.9753C22.6282 21.9292 22.701 21.8572 22.7631 21.7589C22.8119 21.6841 22.8521 21.6008 22.8837 21.5096C22.9152 21.4181 22.943 21.3047 22.9671 21.1691L23.2426 21.1415C23.2389 21.2146 23.2358 21.2886 23.2335 21.3635C23.231 21.4385 23.2292 21.5288 23.2281 21.6344C23.2267 21.7399 23.2261 21.8752 23.2261 22.0399H23.893V22.2165H23.2261Z" fill="#3A3A3A"/>
<path fill-rule="evenodd" clip-rule="evenodd" d="M22.2367 24.7964V24.9129C22.0753 24.9236 22.0103 24.9234 21.8407 24.9236C21.7061 24.9238 21.5669 24.9215 21.4513 24.878C21.3799 24.8512 21.3399 24.8282 21.2867 24.7719C21.2494 24.7129 21.2257 24.7098 21.2136 24.5453C21.0715 24.6989 20.9233 24.8119 20.7695 24.8842C20.6155 24.9566 20.4493 24.9923 20.2712 24.9918C20.0067 24.9888 19.7998 24.9158 19.6505 24.7725C19.501 24.6292 19.425 24.4323 19.4223 24.1813C19.4213 23.7083 19.7156 23.4142 20.3044 23.2995C20.5699 23.248 20.8711 23.2132 21.2082 23.1948V22.8365C21.2111 22.5495 21.1806 22.3504 21.1173 22.2399C21.054 22.1292 20.941 22.0764 20.7782 22.0814C20.6056 22.0777 20.4825 22.1401 20.4091 22.2688C20.3823 22.3129 20.3628 22.3638 20.3504 22.4211C20.3382 22.4784 20.3283 22.558 20.3209 22.6601C20.3164 22.7582 20.2879 22.8279 20.2354 22.8695C20.1828 22.9111 20.0991 22.9313 19.9845 22.9303C19.7291 22.9283 19.6006 22.8439 19.5986 22.6767C19.5996 22.5792 19.6297 22.4861 19.6891 22.3976C19.7484 22.309 19.8323 22.2312 19.9406 22.164C20.1702 22.0226 20.4714 21.9529 20.8445 21.9546C21.2239 21.9529 21.4958 22.028 21.6603 22.1807C21.7343 22.2504 21.7887 22.3395 21.8234 22.4479C21.8584 22.5562 21.8755 22.6949 21.8753 22.8641L21.8697 23.3435L21.8642 23.823C21.8596 23.9801 21.8578 24.0794 21.8586 24.1208C21.8566 24.3194 21.8631 24.4647 21.8774 24.5562C21.8918 24.6478 21.9077 24.688 21.9679 24.7377C22.0732 24.7979 22.1633 24.7962 22.2367 24.7964ZM21.2082 23.7459V23.3216C20.8136 23.3484 20.5337 23.4214 20.3685 23.5407C20.2032 23.6599 20.123 23.846 20.1278 24.0988C20.1296 24.2971 20.1704 24.4544 20.2498 24.5707C20.3294 24.687 20.4376 24.7465 20.5743 24.7492C20.6866 24.748 20.7901 24.7158 20.885 24.6519C20.98 24.5884 21.0548 24.4994 21.109 24.3855C21.1445 24.3155 21.1699 24.2305 21.1855 24.1297C21.201 24.0289 21.2086 23.9011 21.2082 23.7459Z" fill="#3A3A3A"/>
<path fill-rule="evenodd" clip-rule="evenodd" d="M26.9826 24.7964V24.9129C26.8212 24.9236 26.7562 24.9238 26.5866 24.924C26.452 24.9241 26.3128 24.9218 26.1973 24.8783C26.1258 24.8515 26.0858 24.8286 26.0326 24.7723C25.9953 24.7132 25.9716 24.7101 25.9595 24.5456C25.8174 24.6993 25.6692 24.8123 25.5152 24.8845C25.3614 24.957 25.1952 24.9927 25.0171 24.9921C24.7526 24.9892 24.5457 24.9162 24.3964 24.7729C24.2469 24.6295 24.1709 24.4326 24.1682 24.1817C24.1672 23.7086 24.4613 23.4146 25.0503 23.2998C25.3158 23.2484 25.617 23.2136 25.9541 23.1952V22.8369C25.957 22.5498 25.9265 22.3508 25.8632 22.2403C25.7997 22.1296 25.6867 22.0767 25.5241 22.0818C25.3515 22.0781 25.2284 22.1404 25.155 22.2692C25.1282 22.3133 25.1085 22.3642 25.0963 22.4215C25.0841 22.4787 25.0742 22.5584 25.0668 22.6605C25.0623 22.7586 25.0338 22.8283 24.9813 22.8701C24.9287 22.9114 24.845 22.9316 24.7304 22.9307C24.4751 22.9287 24.3465 22.8442 24.3446 22.677C24.3455 22.5795 24.3756 22.4865 24.4351 22.398C24.4943 22.3094 24.5782 22.2315 24.6863 22.1643C24.9161 22.0229 25.2173 21.9532 25.5904 21.955C25.9698 21.9532 26.2417 22.0284 26.4062 22.181C26.4802 22.2507 26.5346 22.3399 26.5693 22.4483C26.6043 22.5566 26.6214 22.6953 26.6212 22.8644L26.6156 23.3439L26.6101 23.8234C26.6055 23.9805 26.6037 24.0798 26.6045 24.1211C26.6026 24.3198 26.609 24.4651 26.6233 24.5567C26.6377 24.6482 26.6536 24.6884 26.7138 24.7381C26.8191 24.7983 26.9092 24.7962 26.9826 24.7964ZM25.9541 23.7463V23.322C25.5595 23.3488 25.2794 23.4218 25.1144 23.541C24.9491 23.6603 24.8689 23.8463 24.8738 24.0992C24.8755 24.2975 24.9163 24.4548 24.9957 24.5711C25.0753 24.6874 25.1835 24.7468 25.3202 24.7496C25.4325 24.7484 25.536 24.7162 25.631 24.6523C25.7259 24.5886 25.8005 24.4998 25.8549 24.3856C25.8904 24.3161 25.9159 24.2308 25.9314 24.1301C25.9469 24.0295 25.9545 23.9015 25.9541 23.7463Z" fill="#3A3A3A"/>
<path d="M17.0999 11.125L17.0866 11.3857L22.0903 17.2555L22.27 17.2849L22.2926 17.2736L22.3804 17.1109L20.2466 9.96834L19.8844 9.72428L17.0999 11.125Z" fill="#0097B9"/>
<path d="M25.1298 9.5828L28.3652 11.0703L28.3712 11.49L23.0616 19.5327L22.8192 19.5967L22.7834 19.5802L22.7078 19.3989L24.8478 9.73954L25.1298 9.5828Z" fill="#80B13A"/>
<path d="M20.1877 7.29434L20.3165 7.04621L24.4587 7.00136L24.7264 7.27931L22.7419 13.9097L22.6162 13.9827L22.6121 13.9824L22.4761 13.8908L20.1877 7.29434Z" fill="#D81936"/>
<path fill-rule="evenodd" clip-rule="evenodd" d="M18.5797 11.671L22.2801 17.3005L22.0833 17.2683L17.0731 11.3832L18.5797 11.671Z" fill="#005874"/>
<path d="M19.8896 9.71795L20.2506 9.96297L19.1295 11.4536L18.6089 11.226L19.8896 9.71795Z" fill="#2FB8E7"/>
<path d="M18.6087 11.2259L18.5796 11.6711L17.0732 11.3834L17.089 11.1245L18.6087 11.2259Z" fill="#007592"/>
<path d="M19.1294 11.4538L20.2529 9.9608L22.4137 17.1094L22.3037 17.2943L19.1294 11.4538Z" fill="#007592"/>
<path d="M28.3823 11.489L23.077 19.5491L22.8058 19.6281L26.2158 11.6734L28.3823 11.489Z" fill="#6E9123"/>
<path d="M25.6048 11.3374L22.7753 19.6032L22.6956 19.4004L24.844 9.73128L25.6048 11.3374Z" fill="#3F7937"/>
<path d="M28.3737 11.0702L28.3823 11.4889L26.2158 11.6736L26.0936 11.0998L28.3737 11.0702Z" fill="#A5C550"/>
<path d="M26.0937 11.0998L25.6046 11.3369L24.8436 9.73056L25.1232 9.57286L26.0937 11.0998Z" fill="#5D8B27"/>
<path d="M22.0909 7.74034L21.7924 8.09296L20.1737 7.2868L20.3044 7.04154L22.0909 7.74034Z" fill="#AF2C35"/>
<path d="M20.1735 7.28677L21.7925 8.09293L22.6132 13.9961L22.4695 13.8983L20.1735 7.28677Z" fill="#762624"/>
<path d="M22.5712 8.09376L24.7337 7.27639L22.752 13.9187L22.6161 13.996L22.5712 8.09376Z" fill="#B22B37"/>
<path d="M22.0911 7.7403L22.5711 8.09387L24.7339 7.2765L24.4631 6.99999L22.0911 7.7403Z" fill="#DC505E"/>
</svg>
