<svg width="34" height="24" viewBox="0 0 34 24" fill="none" xmlns="http://www.w3.org/2000/svg">
<path fill-rule="evenodd" clip-rule="evenodd" d="M20.8847 18.6224C20.8875 18.5726 20.8903 18.4927 20.8929 18.3832V16.283L20.8861 16.0792C20.8844 16.0359 20.8823 16.0064 20.8802 15.991C20.8779 15.9747 20.8745 15.9607 20.8696 15.9477C20.8539 15.8959 20.819 15.8593 20.7666 15.8374C20.7183 15.817 20.6468 15.8072 20.5541 15.8064V15.735H21.7534C21.9277 15.7353 22.0853 15.7466 22.2259 15.7693C22.3664 15.7918 22.4795 15.8229 22.566 15.8625C22.8168 15.9814 22.9406 16.1815 22.9393 16.4662C22.9422 16.8731 22.6745 17.1331 22.1205 17.2L22.0276 17.215C22.1522 17.2195 22.3207 17.261 22.3991 17.2792C22.4769 17.2971 22.5532 17.3257 22.628 17.3646C22.9221 17.5124 23.0669 17.7486 23.064 18.0753C23.0656 18.4721 22.8721 18.7301 22.4793 18.852C22.3936 18.8765 22.286 18.8958 22.156 18.9099C22.0254 18.9239 21.8838 18.9312 21.7311 18.9315H20.5541V18.8599C20.6926 18.8582 20.7879 18.8371 20.8301 18.7874C20.8477 18.7704 20.8603 18.7519 20.8686 18.7306C20.877 18.709 20.882 18.6721 20.8847 18.6224ZM21.2542 15.8332V17.166H21.7221C22.2664 17.1628 22.5482 16.9367 22.5512 16.484C22.555 16.0446 22.2579 15.8302 21.682 15.8332H21.2542ZM22.6449 18.0397C22.6419 17.729 22.5295 17.5093 22.3055 17.3865C22.2375 17.3518 22.1511 17.3251 22.0474 17.3062C21.9437 17.2875 21.8294 17.2779 21.7043 17.2775H21.2542V18.8331H21.7043C22.0304 18.8346 22.2688 18.7738 22.4156 18.6461C22.4901 18.585 22.5466 18.5019 22.5858 18.3977C22.625 18.2934 22.6444 18.1738 22.6449 18.0397Z" fill="#3A3A3A"/>
<path d="M24.7806 18.8402C24.7562 18.7921 24.7392 18.7348 24.7318 18.5884L24.7296 18.5451L24.7008 18.5776C24.6665 18.6164 24.6328 18.6499 24.5999 18.6785C24.5668 18.7073 24.5285 18.7368 24.4854 18.7667C24.3907 18.8362 24.2995 18.8851 24.212 18.9136C24.1246 18.942 24.0259 18.9559 23.9161 18.955C23.7249 18.9558 23.5781 18.9105 23.4731 18.8212C23.4143 18.7683 23.3683 18.702 23.3346 18.6215C23.3009 18.5412 23.2837 18.4548 23.2829 18.362C23.2852 18.0201 23.4951 17.7994 23.9246 17.7016C24.0382 17.6754 24.1582 17.6538 24.2845 17.6368C24.4112 17.6199 24.5547 17.606 24.7153 17.5952L24.7318 17.2968C24.7321 17.1949 24.7271 17.1123 24.7171 17.0493C24.7071 16.9855 24.6907 16.9299 24.6676 16.883C24.6038 16.7588 24.4739 16.6993 24.2862 16.6993C23.985 16.6978 23.8217 16.8411 23.8048 17.1263C23.803 17.1716 23.7987 17.2035 23.7929 17.2228C23.7871 17.241 23.7773 17.2544 23.7634 17.2642C23.7335 17.2843 23.6858 17.2959 23.6172 17.2967C23.4696 17.299 23.4143 17.255 23.4167 17.1811C23.4177 17.1038 23.4433 17.029 23.4948 16.957C23.5463 16.8846 23.6181 16.8218 23.7108 16.7682C23.8776 16.6757 24.0912 16.6286 24.3531 16.6279C24.6396 16.6286 24.8318 16.6936 24.9367 16.8176C24.9792 16.8698 25.0107 16.9343 25.0313 17.0124C25.0517 17.0905 25.0621 17.1894 25.062 17.3098L25.0615 17.3354L25.0592 17.452L25.053 17.76L25.0485 18.1835L25.0441 18.3886C25.0444 18.4851 25.0485 18.5587 25.0552 18.641C25.0618 18.7212 25.0905 18.8106 25.1547 18.8343C25.2216 18.8591 25.286 18.8689 25.4085 18.8697C25.4985 18.8679 25.5678 18.8576 25.6148 18.8377C25.6684 18.8149 25.7013 18.7665 25.7155 18.698C25.7294 18.631 25.7355 18.5292 25.734 18.3928V17.1975C25.737 17.0348 25.7181 16.9203 25.6717 16.8605C25.6264 16.802 25.5421 16.7768 25.4263 16.778V16.7146L26.064 16.668V17.176L26.0972 17.1168C26.1916 16.9487 26.2987 16.8298 26.4179 16.7584C26.5371 16.6869 26.6865 16.6516 26.8664 16.6534C27.1367 16.6498 27.3251 16.7404 27.4354 16.9215C27.4757 16.9821 27.5051 17.0552 27.5227 17.1407C27.5402 17.2263 27.5489 17.3358 27.5485 17.4692V18.3928C27.5468 18.5306 27.5526 18.6332 27.5659 18.6998C27.5795 18.7683 27.6121 18.8165 27.6659 18.8387C27.7103 18.857 27.8139 18.867 27.9022 18.8694C27.985 18.8668 28.0491 18.8567 28.0929 18.8375C28.1451 18.8147 28.1767 18.7662 28.1901 18.6977C28.2031 18.631 28.2087 18.5291 28.2071 18.3928V16.2211C28.2087 16.0966 28.2036 16.0043 28.191 15.9448C28.1781 15.8827 28.146 15.84 28.0936 15.8216C28.0482 15.8056 27.98 15.798 27.8906 15.7977V15.7341L28.5539 15.7003C28.5455 15.8475 28.5392 15.9981 28.535 16.1521C28.5304 16.3128 28.5283 16.4531 28.5283 16.5732V18.0321L29.2591 17.2314C29.3624 17.1169 29.4189 17.0207 29.4197 16.9437C29.4249 16.8365 29.3166 16.788 29.1389 16.7791V16.7158H30.0885V16.7801C30.0314 16.7868 29.9817 16.7972 29.9396 16.8117C29.8936 16.8272 29.8465 16.8499 29.7985 16.8789C29.7497 16.9084 29.7089 16.9354 29.6758 16.96C29.6422 16.9852 29.6024 17.021 29.5567 17.0676C29.5109 17.1139 29.4447 17.1843 29.3577 17.2789L29.1165 17.5385L29.7479 18.5317C29.8199 18.6493 29.8862 18.7325 29.9471 18.7798C30.0053 18.8248 30.0794 18.8538 30.1687 18.8676V18.9325H29.5912C29.5754 18.9002 29.5536 18.8584 29.5258 18.807L29.434 18.6395L29.3638 18.5134L28.8964 17.7518L28.5292 18.1626L28.5283 18.3928C28.5267 18.5291 28.5323 18.631 28.5454 18.6978C28.559 18.7664 28.591 18.8149 28.644 18.8377C28.6904 18.8575 28.7594 18.8679 28.8492 18.8697V18.9325H26.8975V18.8695C27.0296 18.8659 27.1204 18.8443 27.1568 18.7961C27.1715 18.7774 27.1825 18.7561 27.1902 18.7322C27.1981 18.7082 27.2027 18.6773 27.205 18.6395C27.2076 18.6096 27.2103 18.5665 27.2133 18.5099C27.2165 18.4531 27.2181 18.414 27.2185 18.3931V17.4961C27.2192 17.2748 27.1955 17.1111 27.1453 17.007C27.0694 16.8432 26.9319 16.7612 26.7371 16.7605C26.5199 16.7597 26.3466 16.8632 26.2182 17.0676C26.1699 17.1447 26.1324 17.2326 26.1054 17.3307C26.0782 17.429 26.0645 17.5257 26.064 17.6208V18.3928C26.0623 18.5306 26.0681 18.6332 26.0814 18.6998C26.095 18.7683 26.1274 18.8165 26.1812 18.8387C26.2282 18.8581 26.2981 18.868 26.3894 18.8697V18.9325L25.4294 18.9324C25.3443 18.9352 25.1822 18.9396 25.1018 18.9386C25.0175 18.9374 24.9769 18.9285 24.9 18.9227C24.8318 18.9028 24.8031 18.885 24.7806 18.8402ZM23.6488 18.3487C23.6504 18.494 23.6858 18.6122 23.7563 18.7013C23.827 18.7908 23.9228 18.8368 24.0409 18.839C24.1602 18.8374 24.273 18.8063 24.3786 18.7458C24.4839 18.6854 24.5668 18.6049 24.6269 18.5048C24.6636 18.4409 24.6904 18.3587 24.7071 18.2592C24.7238 18.1601 24.7321 18.0368 24.7318 17.8896V17.6607C24.518 17.6791 24.3652 17.6992 24.254 17.7228C24.1421 17.7465 24.0433 17.7803 23.9572 17.8246C23.7528 17.9261 23.6503 18.1021 23.6488 18.3487Z" fill="#3A3A3A"/>
<path fill-rule="evenodd" clip-rule="evenodd" d="M4.86943 17.5859V18.3811C4.86777 18.5087 4.87502 18.6035 4.89133 18.6652C4.90779 18.7272 4.94314 18.7679 4.99767 18.7879C5.05219 18.808 5.13587 18.8191 5.24871 18.8214V18.9324H4V18.8214C4.10649 18.8191 4.18518 18.808 4.23624 18.7879C4.28729 18.7679 4.32037 18.7272 4.33548 18.6652C4.35058 18.6035 4.35723 18.5087 4.35556 18.3811V16.2906C4.35723 16.163 4.35058 16.0681 4.33608 16.0062C4.32143 15.9443 4.28971 15.903 4.24092 15.8825C4.19198 15.8618 4.11706 15.8497 4.01571 15.8459V15.7348H5.20536C5.60638 15.7331 5.90002 15.8039 6.08671 15.947C6.27326 16.0902 6.3654 16.3158 6.36328 16.624C6.36449 17.0572 6.19592 17.3407 5.85742 17.4747C5.76906 17.5093 5.65638 17.5363 5.51953 17.5559C5.38268 17.5754 5.23058 17.5854 5.06307 17.5859H4.86943ZM4.86943 17.4618H5.075C5.32196 17.4611 5.50367 17.4026 5.62028 17.2866C5.68372 17.2194 5.73175 17.1315 5.76453 17.0226C5.79731 16.9138 5.81377 16.7895 5.81392 16.6497C5.81256 16.1231 5.58207 15.8595 5.12228 15.8588H4.86943V17.4618Z" fill="#3A3A3A"/>
<path fill-rule="evenodd" clip-rule="evenodd" d="M8.37376 17.7201H6.92069C6.92235 17.8751 6.93141 18.0051 6.94803 18.1101C6.96449 18.2149 6.99108 18.3108 7.02763 18.3977C7.14832 18.6789 7.33471 18.8194 7.58696 18.8194C7.72985 18.8186 7.85945 18.7767 7.9756 18.6933C8.09191 18.6099 8.18843 18.4901 8.26561 18.3336L8.36847 18.4019C8.26727 18.6033 8.14372 18.7511 7.9978 18.8455C7.85189 18.9399 7.67381 18.9866 7.46355 18.9857C7.13276 18.9815 6.8287 18.8757 6.63808 18.6688C6.44761 18.4617 6.35049 18.1781 6.34671 17.8181C6.35049 17.4554 6.44444 17.1686 6.62841 16.9573C6.81224 16.7461 7.10602 16.6381 7.42247 16.6335C7.63303 16.6341 7.83618 16.6819 7.98043 16.7772C8.12468 16.8727 8.23102 17.0123 8.29975 17.1959C8.3221 17.257 8.33902 17.3268 8.35065 17.4053C8.36213 17.4838 8.36983 17.5888 8.37376 17.7201ZM6.92477 17.5965H7.83377C7.83014 17.4651 7.82304 17.3592 7.81262 17.279C7.80235 17.1988 7.78604 17.1271 7.76383 17.0639C7.6871 16.8401 7.56913 16.7294 7.41023 16.7315C7.232 16.733 7.09892 16.8579 7.01117 17.1065C6.98881 17.1709 6.97084 17.2414 6.95724 17.318C6.94365 17.3946 6.93277 17.4875 6.92477 17.5965Z" fill="#3A3A3A"/>
<path d="M8.46668 16.6944L9.27267 16.6387C9.2769 16.7191 9.28022 16.7867 9.28234 16.8412C9.28445 16.8959 9.28551 16.9443 9.28551 16.986V17.1146C9.46057 16.7946 9.67204 16.633 9.92006 16.6301C10.0272 16.6322 10.1142 16.6635 10.1811 16.7239C10.2478 16.7843 10.2824 16.8618 10.2844 16.956C10.2829 17.0344 10.2539 17.0973 10.1975 17.1446C10.1413 17.192 10.0675 17.2163 9.97579 17.2175C9.86568 17.221 9.79862 17.1754 9.7743 17.0804C9.75844 17.0216 9.74197 16.9816 9.72491 16.9603C9.70799 16.939 9.68291 16.929 9.64999 16.9302H9.64138C9.55709 16.9375 9.47704 17.0045 9.40136 17.1317C9.36708 17.1953 9.34125 17.2654 9.32403 17.3424C9.30696 17.4193 9.29835 17.5077 9.29835 17.6077V18.4008C9.29669 18.5274 9.30288 18.6207 9.31678 18.6807C9.33067 18.7407 9.36224 18.7799 9.41148 18.7985C9.46057 18.8169 9.5373 18.8274 9.64138 18.8295V18.9325H8.44962V18.8295C8.54674 18.8299 8.61864 18.8206 8.66546 18.8012C8.71229 18.7821 8.74265 18.7419 8.75669 18.6807C8.77059 18.6194 8.77678 18.5262 8.77542 18.4008V17.2131C8.77935 17.0364 8.76168 16.9216 8.72226 16.8686C8.68298 16.8156 8.59764 16.7919 8.46668 16.7973V16.6944Z" fill="#3A3A3A"/>
<path d="M11.2418 16.6388L11.2462 17.0633C11.4198 16.7775 11.6684 16.6331 11.9921 16.6302C12.3215 16.6281 12.5244 16.7781 12.6008 17.0805C12.694 16.9248 12.8004 16.8106 12.9197 16.7379C13.0392 16.6654 13.1786 16.6295 13.3382 16.6302C13.5905 16.6317 13.7763 16.7145 13.8956 16.8789C13.9423 16.9411 13.9753 17.0172 13.9953 17.1072C14.0151 17.1973 14.0247 17.314 14.0241 17.4577V18.4008C14.0228 18.5262 14.029 18.6194 14.0429 18.6805C14.0569 18.7419 14.0873 18.7821 14.1341 18.8012C14.1809 18.8206 14.2528 18.8299 14.3501 18.8295V18.9325H13.1882V18.8295C13.2811 18.8299 13.35 18.8206 13.395 18.8012C13.44 18.7821 13.4693 18.7419 13.4829 18.6805C13.4965 18.6194 13.5026 18.5262 13.5012 18.4008V17.4619C13.5021 17.2367 13.4745 17.0742 13.4181 16.9743C13.3616 16.8745 13.2709 16.8255 13.1453 16.8275C12.9946 16.8246 12.8674 16.9032 12.7638 17.0633C12.6745 17.197 12.6301 17.3412 12.6309 17.4963V18.4008C12.6295 18.5262 12.6356 18.6194 12.6493 18.6805C12.6629 18.7419 12.6927 18.7821 12.7383 18.8012C12.7839 18.8206 12.8538 18.8299 12.9481 18.8295V18.9325H11.7992V18.8295C11.8921 18.8299 11.9611 18.8206 12.006 18.8012C12.051 18.7821 12.0803 18.7419 12.0939 18.6805C12.1075 18.6194 12.1135 18.5262 12.1122 18.4008V17.4577C12.1143 17.0332 11.9986 16.8231 11.7649 16.8275C11.6195 16.8326 11.4976 16.9017 11.3994 17.0343C11.3012 17.1671 11.2502 17.3325 11.2462 17.5306V18.4008C11.2449 18.5275 11.2509 18.6215 11.2645 18.6825C11.2779 18.7437 11.3073 18.7836 11.3523 18.8023C11.3973 18.821 11.4662 18.8301 11.559 18.8295V18.9325H10.3972V18.8295C10.4945 18.8301 10.5664 18.821 10.6132 18.8023C10.66 18.7836 10.6905 18.7437 10.7044 18.6825C10.7183 18.6215 10.7245 18.5275 10.7232 18.4008V17.209C10.7275 17.0346 10.7102 16.9216 10.6706 16.8698C10.6312 16.8181 10.543 16.794 10.406 16.7974V16.6946L11.2418 16.6388Z" fill="#3A3A3A"/>
<path d="M17.3981 16.835V18.2669C17.3979 18.3601 17.4014 18.4373 17.4082 18.4984C17.4152 18.5594 17.426 18.6109 17.441 18.6527C17.4591 18.7006 17.4871 18.7388 17.5251 18.7674C17.563 18.7959 17.605 18.8107 17.6509 18.8113C17.7425 18.81 17.8425 18.7657 17.9511 18.6784L18.011 18.7856C17.839 18.9299 17.6431 19.0013 17.4238 19C17.1872 18.9964 17.0258 18.9178 16.9394 18.7642C16.9224 18.7302 16.9092 18.6914 16.8998 18.6479C16.8904 18.6044 16.8839 18.5456 16.8803 18.4718C16.8767 18.3978 16.8749 18.2979 16.875 18.1725V16.835H16.6306V16.7065C16.724 16.7029 16.8031 16.6832 16.8681 16.6474C16.933 16.6116 16.9897 16.5556 17.038 16.4792C17.0759 16.421 17.1072 16.3562 17.1318 16.2852C17.1563 16.2141 17.1779 16.1259 17.1966 16.0204L17.4109 15.999C17.4081 16.0558 17.4056 16.1133 17.4038 16.1716C17.4019 16.2299 17.4005 16.3002 17.3996 16.3823C17.3986 16.4644 17.3981 16.5696 17.3981 16.6977H17.9168V16.835H17.3981Z" fill="#3A3A3A"/>
<path fill-rule="evenodd" clip-rule="evenodd" d="M16.6285 18.8416V18.9323C16.503 18.9406 16.4524 18.9404 16.3206 18.9406C16.2159 18.9407 16.1076 18.9389 16.0177 18.9051C15.9621 18.8842 15.931 18.8664 15.8896 18.8226C15.8606 18.7767 15.8422 18.7743 15.8328 18.6463C15.7223 18.7658 15.607 18.8537 15.4874 18.9099C15.3676 18.9662 15.2383 18.994 15.0998 18.9936C14.8941 18.9913 14.7332 18.9345 14.617 18.8231C14.5007 18.7116 14.4417 18.5584 14.4396 18.3633C14.4388 17.9953 14.6677 17.7666 15.1256 17.6774C15.3321 17.6373 15.5664 17.6103 15.8286 17.5959V17.3173C15.8309 17.094 15.8071 16.9392 15.7579 16.8532C15.7087 16.7672 15.6208 16.7261 15.4942 16.73C15.3599 16.7271 15.2641 16.7756 15.207 16.8758C15.1862 16.91 15.1711 16.9496 15.1614 16.9942C15.1519 17.0387 15.1442 17.1007 15.1385 17.1801C15.135 17.2564 15.1128 17.3106 15.072 17.3429C15.0311 17.3753 14.966 17.391 14.8769 17.3902C14.6782 17.3887 14.5782 17.323 14.5767 17.193C14.5775 17.1171 14.6009 17.0448 14.6471 16.9759C14.6932 16.907 14.7584 16.8465 14.8427 16.7942C15.0213 16.6842 15.2555 16.63 15.5457 16.6314C15.8408 16.63 16.0523 16.6885 16.1802 16.8072C16.2378 16.8614 16.2801 16.9307 16.3071 17.015C16.3343 17.0993 16.3476 17.2072 16.3474 17.3387L16.3431 17.7117L16.3388 18.0846C16.3352 18.2068 16.3339 18.284 16.3345 18.3161C16.3329 18.4707 16.3379 18.5836 16.3491 18.6548C16.3603 18.7261 16.3727 18.7573 16.4195 18.796C16.5014 18.8428 16.5714 18.8415 16.6285 18.8416ZM15.8286 18.0246V17.6946C15.5217 17.7154 15.304 17.7722 15.1755 17.865C15.0469 17.9577 14.9845 18.1024 14.9883 18.2991C14.9897 18.4533 15.0214 18.5756 15.0832 18.6661C15.1451 18.7566 15.2292 18.8028 15.3356 18.8049C15.4229 18.804 15.5034 18.7789 15.5773 18.7293C15.6511 18.6799 15.7093 18.6107 15.7514 18.522C15.7791 18.4676 15.7988 18.4015 15.8109 18.3231C15.823 18.2447 15.8289 18.1453 15.8286 18.0246Z" fill="#3A3A3A"/>
<path fill-rule="evenodd" clip-rule="evenodd" d="M20.3198 18.8416V18.9323C20.1943 18.9406 20.1437 18.9407 20.0118 18.9409C19.9071 18.941 19.7988 18.9392 19.709 18.9054C19.6534 18.8845 19.6223 18.8667 19.5809 18.8229C19.5519 18.777 19.5335 18.7746 19.5241 18.6466C19.4135 18.7661 19.2983 18.854 19.1785 18.9102C19.0589 18.9666 18.9296 18.9943 18.7911 18.9939C18.5853 18.9916 18.4245 18.9348 18.3083 18.8234C18.192 18.7119 18.1329 18.5587 18.1308 18.3636C18.1301 17.9956 18.3588 17.7669 18.8169 17.6777C19.0234 17.6376 19.2576 17.6106 19.5199 17.5963V17.3176C19.5221 17.0943 19.4984 16.9395 19.4492 16.8536C19.3998 16.7675 19.3119 16.7264 19.1854 16.7303C19.0512 16.7274 18.9554 16.7759 18.8983 16.8761C18.8775 16.9103 18.8622 16.9499 18.8527 16.9945C18.8432 17.039 18.8355 17.101 18.8297 17.1804C18.8263 17.2567 18.8041 17.3109 18.7633 17.3434C18.7223 17.3756 18.6572 17.3913 18.5681 17.3905C18.3695 17.389 18.2695 17.3233 18.268 17.1933C18.2687 17.1174 18.2922 17.0451 18.3384 16.9762C18.3844 16.9073 18.4497 16.8468 18.5338 16.7945C18.7125 16.6845 18.9468 16.6303 19.237 16.6317C19.5321 16.6303 19.7436 16.6888 19.8715 16.8075C19.929 16.8617 19.9713 16.931 19.9984 17.0153C20.0256 17.0996 20.0389 17.2075 20.0387 17.339L20.0343 17.712L20.0301 18.0849C20.0265 18.2071 20.0251 18.2843 20.0257 18.3164C20.0242 18.471 20.0292 18.5839 20.0404 18.6552C20.0515 18.7264 20.0639 18.7577 20.1108 18.7963C20.1926 18.8431 20.2627 18.8415 20.3198 18.8416ZM19.5199 18.0249V17.6949C19.2129 17.7157 18.9951 17.7725 18.8667 17.8653C18.7382 17.958 18.6758 18.1027 18.6796 18.2994C18.6809 18.4536 18.7127 18.5759 18.7744 18.6664C18.8364 18.7569 18.9205 18.8031 19.0268 18.8052C19.1142 18.8043 19.1947 18.7793 19.2685 18.7296C19.3424 18.68 19.4004 18.611 19.4427 18.5222C19.4703 18.4681 19.4901 18.4018 19.5022 18.3234C19.5143 18.2452 19.5202 18.1456 19.5199 18.0249Z" fill="#3A3A3A"/>
<path d="M12.6333 8.20831L12.6229 8.41113L16.5147 12.9765L16.6544 12.9993L16.672 12.9906L16.7403 12.8641L15.0807 7.30871L14.799 7.11888L12.6333 8.20831Z" fill="#0097B9"/>
<path d="M18.8788 7.00885L21.3952 8.16582L21.3998 8.49223L17.2701 14.7477L17.0816 14.7974L17.0538 14.7846L16.9949 14.6436L18.6594 7.13076L18.8788 7.00885Z" fill="#80B13A"/>
<path d="M15.0349 5.22894L15.1351 5.03595L18.3568 5.00107L18.565 5.21725L17.0215 10.3742L16.9237 10.431L16.9205 10.4308L16.8148 10.3595L15.0349 5.22894Z" fill="#D81936"/>
<path fill-rule="evenodd" clip-rule="evenodd" d="M13.7842 8.63296L16.6623 13.0115L16.5092 12.9864L12.6124 8.40918L13.7842 8.63296Z" fill="#005874"/>
<path d="M14.803 7.11397L15.0838 7.30454L14.2118 8.46393L13.8069 8.2869L14.803 7.11397Z" fill="#2FB8E7"/>
<path d="M13.8068 8.2868L13.7841 8.63306L12.6125 8.40927L12.6248 8.20794L13.8068 8.2868Z" fill="#007592"/>
<path d="M14.2118 8.4641L15.0856 7.30286L16.7662 12.8628L16.6807 13.0067L14.2118 8.4641Z" fill="#007592"/>
<path d="M21.4085 8.4914L17.2821 14.7604L17.0711 14.8218L19.7234 8.63484L21.4085 8.4914Z" fill="#6E9123"/>
<path d="M19.2482 8.37352L17.0474 14.8025L16.9854 14.6448L18.6564 7.12432L19.2482 8.37352Z" fill="#3F7937"/>
<path d="M21.4018 8.16566L21.4085 8.49132L19.7234 8.63495L19.6284 8.18867L21.4018 8.16566Z" fill="#A5C550"/>
<path d="M19.6284 8.18866L19.248 8.37311L18.6561 7.12372L18.8736 7.00107L19.6284 8.18866Z" fill="#5D8B27"/>
<path d="M16.5151 5.57578L16.283 5.85004L15.024 5.22302L15.1256 5.03227L16.5151 5.57578Z" fill="#AF2C35"/>
<path d="M15.0238 5.22304L16.283 5.85006L16.9213 10.4414L16.8096 10.3653L15.0238 5.22304Z" fill="#762624"/>
<path d="M16.8887 5.85074L18.5706 5.215L17.0294 10.3812L16.9236 10.4413L16.8887 5.85074Z" fill="#B22B37"/>
<path d="M16.5153 5.57577L16.8887 5.85077L18.5708 5.21504L18.3602 4.99997L16.5153 5.57577Z" fill="#DC505E"/>
</svg>
