<svg width="58" height="40" viewBox="0 0 58 40" fill="none" xmlns="http://www.w3.org/2000/svg">
<path fill-rule="evenodd" clip-rule="evenodd" d="M34.1211 29.4605C34.1249 29.3893 34.129 29.2752 34.1327 29.1188V26.1185L34.123 25.8274C34.1206 25.7655 34.1176 25.7234 34.1146 25.7014C34.1113 25.6781 34.1064 25.658 34.0995 25.6395C34.077 25.5655 34.0272 25.5133 33.9523 25.482C33.8833 25.4528 33.7812 25.4388 33.6487 25.4377V25.3357H35.362C35.611 25.3361 35.8361 25.3523 36.037 25.3847C36.2377 25.4168 36.3993 25.4613 36.5229 25.5178C36.8811 25.6876 37.0581 25.9735 37.0561 26.3803C37.0602 26.9616 36.6779 27.3329 35.8864 27.4285L35.7537 27.4499C35.9317 27.4564 36.1725 27.5157 36.2845 27.5416C36.3956 27.5673 36.5046 27.6081 36.6114 27.6637C37.0315 27.8748 37.2385 28.2123 37.2344 28.679C37.2365 29.2458 36.9601 29.6144 36.3991 29.7885C36.2765 29.8235 36.1229 29.8511 35.9371 29.8712C35.7506 29.8912 35.5482 29.9016 35.3301 29.902H33.6487V29.7998C33.8466 29.7974 33.9827 29.7672 34.0429 29.6962C34.0682 29.672 34.0861 29.6455 34.098 29.615C34.1101 29.5842 34.1172 29.5315 34.1211 29.4605ZM34.6489 25.4759V27.38H35.3174C36.0948 27.3755 36.4975 27.0524 36.5018 26.4057C36.5072 25.778 36.0827 25.4716 35.26 25.4759H34.6489ZM36.6356 28.6281C36.6312 28.1842 36.4707 27.8705 36.1507 27.695C36.0536 27.6454 35.9302 27.6072 35.7819 27.5802C35.6339 27.5535 35.4706 27.5399 35.2919 27.5392H34.6489V29.7616H35.2919C35.7578 29.7637 36.0983 29.6768 36.308 29.4944C36.4144 29.407 36.4951 29.2884 36.5512 29.1395C36.6071 28.9906 36.6349 28.8197 36.6356 28.6281Z" fill="#3A3A3A"/>
<path d="M39.6865 29.7717C39.6518 29.7029 39.6274 29.6211 39.6168 29.412L39.6138 29.3501L39.5726 29.3965C39.5236 29.4519 39.4755 29.4999 39.4284 29.5406C39.3812 29.5819 39.3264 29.6239 39.2649 29.6667C39.1296 29.7659 38.9992 29.8358 38.8743 29.8766C38.7494 29.9172 38.6085 29.937 38.4516 29.9357C38.1784 29.9368 37.9687 29.8721 37.8187 29.7445C37.7348 29.669 37.6689 29.5743 37.6208 29.4593C37.5727 29.3445 37.5481 29.2211 37.547 29.0886C37.5503 28.6 37.8502 28.2848 38.4637 28.1452C38.6259 28.1076 38.7975 28.0768 38.9779 28.0526C39.1589 28.0284 39.3639 28.0086 39.5933 27.9931L39.6168 27.5669C39.6172 27.4212 39.6101 27.3032 39.5959 27.2132C39.5816 27.1222 39.5581 27.0428 39.5251 26.9756C39.434 26.7983 39.2485 26.7133 38.9802 26.7133C38.55 26.7111 38.3167 26.9159 38.2926 27.3233C38.29 27.388 38.2839 27.4335 38.2755 27.4612C38.2673 27.487 38.2533 27.5062 38.2334 27.5203C38.1907 27.549 38.1225 27.5656 38.0246 27.5667C37.8137 27.5699 37.7348 27.5071 37.7382 27.4016C37.7395 27.2911 37.7762 27.1843 37.8498 27.0814C37.9234 26.978 38.0258 26.8883 38.1583 26.8116C38.3966 26.6796 38.7017 26.6123 39.0758 26.6112C39.4852 26.6123 39.7597 26.7051 39.9096 26.8822C39.9703 26.9569 40.0154 27.049 40.0447 27.1606C40.0738 27.2721 40.0887 27.4135 40.0885 27.5854L40.0879 27.6219L40.0846 27.7885L40.0758 28.2285L40.0693 28.8335L40.063 29.1266C40.0635 29.2644 40.0693 29.3695 40.0788 29.4871C40.0883 29.6017 40.1293 29.7294 40.221 29.7633C40.3166 29.7987 40.4085 29.8127 40.5835 29.8138C40.7121 29.8112 40.8112 29.7966 40.8783 29.7681C40.9549 29.7355 41.0019 29.6664 41.0222 29.5685C41.042 29.4729 41.0507 29.3274 41.0485 29.1326V27.4249C41.0528 27.1925 41.0259 27.0289 40.9596 26.9435C40.8949 26.86 40.7745 26.8239 40.609 26.8257V26.735L41.52 26.6686V27.3943L41.5675 27.3097C41.7023 27.0695 41.8553 26.8997 42.0256 26.7976C42.1958 26.6956 42.4092 26.6451 42.6662 26.6477C43.0525 26.6425 43.3216 26.7719 43.4791 27.0307C43.5367 27.1172 43.5788 27.2216 43.6038 27.3438C43.6288 27.4661 43.6413 27.6226 43.6407 27.8131V29.1326C43.6383 29.3294 43.6465 29.4759 43.6655 29.5711C43.6849 29.669 43.7315 29.7379 43.8084 29.7696C43.8718 29.7957 44.0198 29.8099 44.1461 29.8134C44.2643 29.8097 44.3558 29.7953 44.4184 29.7679C44.493 29.7353 44.5381 29.666 44.5573 29.568C44.5759 29.4729 44.5839 29.3272 44.5815 29.1326V26.0301C44.5839 25.8523 44.5765 25.7204 44.5586 25.6354C44.5401 25.5467 44.4943 25.4857 44.4194 25.4593C44.3545 25.4365 44.2572 25.4257 44.1294 25.4253V25.3344L45.0769 25.2861C45.0651 25.4965 45.056 25.7116 45.05 25.9315C45.0435 26.1611 45.0405 26.3615 45.0405 26.5331V28.6173L46.0844 27.4735C46.232 27.3099 46.3127 27.1724 46.3138 27.0624C46.3213 26.9092 46.1666 26.8399 45.9127 26.8272V26.7368H47.2693V26.8287C47.1877 26.8382 47.1167 26.8531 47.0565 26.8738C46.9909 26.896 46.9236 26.9284 46.855 26.9698C46.7853 27.0119 46.727 27.0505 46.6798 27.0857C46.6316 27.1217 46.5749 27.1729 46.5095 27.2393C46.4441 27.3056 46.3496 27.4061 46.2253 27.5412L45.8807 27.9121L46.7827 29.3309C46.8856 29.499 46.9803 29.6179 47.0673 29.6854C47.1504 29.7497 47.2563 29.7912 47.3839 29.8108V29.9036H46.5589C46.5363 29.8574 46.5052 29.7976 46.4655 29.7243L46.3343 29.485L46.234 29.3048L45.5663 28.2168L45.0418 28.8037L45.0405 29.1326C45.0381 29.3272 45.0461 29.4729 45.0649 29.5683C45.0843 29.6662 45.13 29.7355 45.2058 29.7681C45.272 29.7963 45.3706 29.8112 45.4988 29.8138V29.9036H42.7107V29.8136C42.8995 29.8084 43.0292 29.7776 43.0812 29.7087C43.1021 29.682 43.1179 29.6515 43.1289 29.6175C43.1401 29.5831 43.1468 29.5389 43.15 29.485C43.1537 29.4422 43.1576 29.3807 43.1619 29.2998C43.1664 29.2187 43.1688 29.1628 43.1692 29.133V27.8515C43.1703 27.5354 43.1364 27.3015 43.0648 27.1528C42.9562 26.9189 42.7599 26.8017 42.4815 26.8006C42.1712 26.7996 41.9237 26.9474 41.7403 27.2393C41.6713 27.3496 41.6177 27.4752 41.5791 27.6152C41.5403 27.7557 41.5206 27.8938 41.52 28.0297V29.1326C41.5176 29.3294 41.5258 29.4759 41.5448 29.5711C41.5642 29.669 41.6106 29.7379 41.6874 29.7696C41.7545 29.7972 41.8545 29.8114 41.9848 29.8138V29.9036L40.6135 29.9034C40.4918 29.9075 40.2603 29.9137 40.1455 29.9122C40.0251 29.9105 39.967 29.8978 39.8572 29.8896C39.7597 29.8611 39.7187 29.8356 39.6865 29.7717ZM38.0697 29.0696C38.072 29.2772 38.1225 29.4459 38.2233 29.5732C38.3243 29.7012 38.4611 29.7668 38.6298 29.77C38.8003 29.7676 38.9615 29.7232 39.1123 29.6369C39.2627 29.5506 39.3812 29.4356 39.4671 29.2925C39.5195 29.2012 39.5577 29.0838 39.5816 28.9416C39.6054 28.8001 39.6172 28.624 39.6168 28.4136V28.0867C39.3115 28.113 39.0931 28.1417 38.9343 28.1754C38.7744 28.2093 38.6333 28.2576 38.5103 28.3208C38.2183 28.4658 38.0718 28.7172 38.0697 29.0696Z" fill="#3A3A3A"/>
<path fill-rule="evenodd" clip-rule="evenodd" d="M11.242 27.9798V29.1158C11.2397 29.2982 11.25 29.4335 11.2733 29.5217C11.2968 29.6102 11.3473 29.6685 11.4252 29.6969C11.5031 29.7256 11.6227 29.7416 11.7839 29.7448V29.9034H10V29.7448C10.1521 29.7416 10.2645 29.7256 10.3375 29.6969C10.4104 29.6685 10.4577 29.6102 10.4793 29.5217C10.5008 29.4335 10.5103 29.2982 10.5079 29.1158V26.1294C10.5103 25.9471 10.5008 25.8116 10.4801 25.7231C10.4592 25.6346 10.4139 25.5757 10.3442 25.5464C10.2743 25.5168 10.1672 25.4996 10.0224 25.4942V25.3353H11.7219C12.2948 25.333 12.7143 25.4342 12.981 25.6385C13.2475 25.8431 13.3791 26.1655 13.3761 26.6057C13.3778 27.2245 13.137 27.6295 12.6535 27.8209C12.5272 27.8703 12.3663 27.909 12.1708 27.937C11.9753 27.9649 11.758 27.9791 11.5187 27.9798H11.242ZM11.242 27.8026H11.5357C11.8885 27.8015 12.1481 27.718 12.3147 27.5523C12.4053 27.4563 12.4739 27.3307 12.5208 27.1751C12.5676 27.0197 12.5911 26.8422 12.5913 26.6423C12.5894 25.8901 12.2601 25.5136 11.6033 25.5125H11.242V27.8026Z" fill="#3A3A3A"/>
<path fill-rule="evenodd" clip-rule="evenodd" d="M16.2482 28.1716H14.1724C14.1748 28.393 14.1877 28.5787 14.2115 28.7287C14.235 28.8785 14.273 29.0155 14.3252 29.1396C14.4976 29.5413 14.7639 29.742 15.1242 29.742C15.3284 29.7409 15.5135 29.681 15.6794 29.5618C15.8456 29.4427 15.9835 29.2716 16.0937 29.0481L16.2407 29.1456C16.0961 29.4332 15.9196 29.6445 15.7112 29.7794C15.5027 29.9142 15.2483 29.9809 14.9479 29.9796C14.4754 29.9736 14.041 29.8225 13.7687 29.5269C13.4966 29.2311 13.3578 28.8258 13.3524 28.3116C13.3578 27.7935 13.4921 27.3837 13.7549 27.0819C14.0175 26.7802 14.4372 26.6259 14.8892 26.6192C15.19 26.6201 15.4803 26.6885 15.6863 26.8247C15.8924 26.961 16.0443 27.1604 16.1425 27.4228C16.1744 27.51 16.1986 27.6097 16.2152 27.7219C16.2316 27.8341 16.2426 27.984 16.2482 28.1716ZM14.1782 27.9951H15.4768C15.4716 27.8073 15.4615 27.6561 15.4466 27.5415C15.4319 27.4269 15.4086 27.3244 15.3769 27.2342C15.2673 26.9144 15.0988 26.7563 14.8718 26.7593C14.6171 26.7614 14.427 26.9399 14.3017 27.2951C14.2697 27.387 14.2441 27.4878 14.2246 27.5972C14.2052 27.7066 14.1897 27.8393 14.1782 27.9951Z" fill="#3A3A3A"/>
<path d="M16.381 26.7063L17.5324 26.6267C17.5384 26.7415 17.5432 26.8382 17.5462 26.9161C17.5492 26.9942 17.5507 27.0632 17.5507 27.1228V27.3066C17.8008 26.8494 18.1029 26.6185 18.4572 26.6144C18.6102 26.6174 18.7345 26.6621 18.8301 26.7484C18.9255 26.8347 18.9749 26.9454 18.9777 27.0801C18.9755 27.1921 18.9341 27.2818 18.8536 27.3494C18.7734 27.4171 18.6678 27.4519 18.5369 27.4536C18.3795 27.4585 18.2837 27.3934 18.249 27.2577C18.2263 27.1737 18.2028 27.1165 18.1784 27.0861C18.1543 27.0557 18.1185 27.0414 18.0714 27.0432H18.0591C17.9387 27.0535 17.8243 27.1493 17.7162 27.331C17.6673 27.4219 17.6304 27.522 17.6058 27.632C17.5814 27.7419 17.5691 27.8681 17.5691 28.0109V29.144C17.5667 29.3248 17.5755 29.4582 17.5954 29.5439C17.6153 29.6295 17.6603 29.6856 17.7307 29.7122C17.8008 29.7385 17.9104 29.7534 18.0591 29.7564V29.9036H16.3566V29.7564C16.4953 29.757 16.5981 29.7437 16.6649 29.7161C16.7318 29.6886 16.7752 29.6312 16.7953 29.5439C16.8151 29.4562 16.824 29.3231 16.822 29.144V27.4473C16.8276 27.1949 16.8024 27.0309 16.7461 26.9551C16.69 26.8794 16.5681 26.8455 16.381 26.8533V26.7063Z" fill="#3A3A3A"/>
<path d="M20.3455 26.6269L20.3518 27.2333C20.5997 26.825 20.9549 26.6187 21.4173 26.6146C21.8879 26.6116 22.1777 26.8259 22.2869 27.2579C22.42 27.0354 22.5719 26.8723 22.7424 26.7685C22.9131 26.6649 23.1123 26.6135 23.3403 26.6146C23.7007 26.6168 23.9661 26.735 24.1366 26.9698C24.2032 27.0587 24.2505 27.1675 24.279 27.2961C24.3073 27.4247 24.3211 27.5915 24.3202 27.7967V29.144C24.3183 29.3231 24.3271 29.4562 24.347 29.5436C24.367 29.6312 24.4104 29.6886 24.4773 29.7161C24.5442 29.7437 24.6469 29.757 24.7859 29.7564V29.9036H23.1261V29.7564C23.2588 29.757 23.3572 29.7437 23.4215 29.7161C23.4858 29.6886 23.5276 29.6312 23.5471 29.5436C23.5665 29.4562 23.5751 29.3231 23.5732 29.144V27.8027C23.5745 27.481 23.535 27.2488 23.4545 27.1062C23.3738 26.9635 23.2441 26.8936 23.0648 26.8964C22.8494 26.8923 22.6677 27.0045 22.5197 27.2333C22.3922 27.4242 22.3288 27.6303 22.3298 27.8519V29.144C22.3279 29.3231 22.3365 29.4562 22.3562 29.5436C22.3756 29.6312 22.4181 29.6886 22.4833 29.7161C22.5484 29.7437 22.6483 29.757 22.783 29.7564V29.9036H21.1417V29.7564C21.2744 29.757 21.3731 29.7437 21.4371 29.7161C21.5014 29.6886 21.5433 29.6312 21.5627 29.5436C21.5821 29.4562 21.5908 29.3231 21.5888 29.144V27.7967C21.5919 27.1903 21.4266 26.8902 21.0928 26.8964C20.885 26.9038 20.7108 27.0024 20.5706 27.1918C20.4303 27.3815 20.3574 27.6178 20.3518 27.9009V29.144C20.3498 29.3251 20.3585 29.4593 20.3779 29.5464C20.3971 29.6338 20.4389 29.6908 20.5032 29.7176C20.5675 29.7443 20.6659 29.7573 20.7986 29.7564V29.9036H19.1389V29.7564C19.2778 29.7573 19.3805 29.7443 19.4474 29.7176C19.5143 29.6908 19.5579 29.6338 19.5778 29.5464C19.5976 29.4593 19.6065 29.3251 19.6045 29.144V27.4415C19.6108 27.1923 19.586 27.0309 19.5294 26.9569C19.4731 26.8831 19.3471 26.8485 19.1514 26.8535V26.7065L20.3455 26.6269Z" fill="#3A3A3A"/>
<path d="M29.1401 26.9072V28.9528C29.1399 29.0859 29.1449 29.1962 29.1546 29.2834C29.1645 29.3705 29.1801 29.4441 29.2014 29.5039C29.2273 29.5723 29.2672 29.6269 29.3216 29.6677C29.3758 29.7085 29.4358 29.7296 29.5014 29.7305C29.6321 29.7285 29.775 29.6653 29.9301 29.5406L30.0158 29.6938C29.77 29.8999 29.4901 30.0019 29.1768 30C28.8389 29.9948 28.6082 29.8826 28.4848 29.6631C28.4607 29.6146 28.4417 29.5591 28.4283 29.497C28.4149 29.4348 28.4056 29.3509 28.4004 29.2454C28.3953 29.1397 28.3927 28.997 28.3929 28.8179V26.9072H28.0438V26.7235C28.1771 26.7184 28.2902 26.6903 28.383 26.6392C28.4758 26.588 28.5567 26.508 28.6257 26.3988C28.6799 26.3157 28.7246 26.2232 28.7597 26.1217C28.7947 26.0201 28.8255 25.8941 28.8523 25.7435L29.1585 25.7128C29.1544 25.794 29.1509 25.8762 29.1483 25.9595C29.1455 26.0428 29.1436 26.1431 29.1423 26.2605C29.1408 26.3777 29.1401 26.5281 29.1401 26.711H29.8811V26.9072H29.1401Z" fill="#3A3A3A"/>
<path fill-rule="evenodd" clip-rule="evenodd" d="M28.0408 29.7738V29.9032C27.8615 29.9151 27.7892 29.9149 27.6008 29.9151C27.4513 29.9153 27.2965 29.9127 27.1682 29.8644C27.0887 29.8346 27.0443 29.8091 26.9852 29.7466C26.9437 29.681 26.9174 29.6775 26.904 29.4948C26.7461 29.6654 26.5814 29.791 26.4105 29.8713C26.2394 29.9518 26.0547 29.9915 25.8568 29.9908C25.563 29.9876 25.3331 29.9065 25.1672 29.7472C25.0011 29.588 24.9167 29.3692 24.9137 29.0904C24.9126 28.5647 25.2395 28.238 25.8937 28.1105C26.1887 28.0533 26.5234 28.0147 26.898 27.9942V27.5961C26.9012 27.2772 26.8674 27.056 26.797 26.9332C26.7267 26.8102 26.6011 26.7515 26.4203 26.7571C26.2284 26.753 26.0916 26.8223 26.0101 26.9654C25.9803 27.0143 25.9587 27.0709 25.9449 27.1345C25.9313 27.1982 25.9203 27.2867 25.9121 27.4002C25.9071 27.5091 25.8754 27.5866 25.8171 27.6328C25.7587 27.679 25.6657 27.7014 25.5384 27.7003C25.2546 27.6982 25.1118 27.6043 25.1096 27.4185C25.1107 27.3102 25.1441 27.2068 25.2102 27.1084C25.276 27.01 25.3692 26.9235 25.4896 26.8488C25.7446 26.6918 26.0793 26.6143 26.4938 26.6162C26.9155 26.6143 27.2176 26.6978 27.4003 26.8674C27.4825 26.9449 27.543 27.0439 27.5816 27.1643C27.6204 27.2847 27.6394 27.4388 27.6392 27.6267L27.6329 28.1595L27.6269 28.6923C27.6217 28.8668 27.6198 28.9771 27.6206 29.0231C27.6185 29.2438 27.6256 29.4052 27.6416 29.5068C27.6575 29.6087 27.6752 29.6534 27.7421 29.7086C27.8591 29.7755 27.9592 29.7735 28.0408 29.7738ZM26.898 28.6066V28.1351C26.4595 28.1649 26.1486 28.246 25.965 28.3785C25.7813 28.511 25.6922 28.7177 25.6976 28.9987C25.6995 29.219 25.7449 29.3938 25.8331 29.523C25.9216 29.6523 26.0418 29.7183 26.1937 29.7213C26.3184 29.72 26.4334 29.6842 26.5389 29.6132C26.6445 29.5427 26.7275 29.4438 26.7877 29.3172C26.8272 29.2395 26.8555 29.145 26.8727 29.033C26.89 28.921 26.8984 28.779 26.898 28.6066Z" fill="#3A3A3A"/>
<path fill-rule="evenodd" clip-rule="evenodd" d="M33.314 29.7738V29.9033C33.1347 29.9152 33.0624 29.9154 32.874 29.9156C32.7245 29.9158 32.5698 29.9132 32.4414 29.8649C32.362 29.8351 32.3175 29.8096 32.2584 29.7471C32.217 29.6815 32.1907 29.678 32.1773 29.4952C32.0193 29.6659 31.8547 29.7915 31.6836 29.8718C31.5127 29.9523 31.328 29.992 31.1301 29.9913C30.8362 29.9881 30.6064 29.907 30.4405 29.7477C30.2743 29.5885 30.1899 29.3697 30.1869 29.0909C30.1858 28.5652 30.5125 28.2385 31.167 28.111C31.462 28.0538 31.7966 28.0152 32.1712 27.9947V27.5966C32.1745 27.2777 32.1406 27.0565 32.0702 26.9337C31.9997 26.8107 31.8741 26.752 31.6935 26.7576C31.5017 26.7535 31.3649 26.8228 31.2833 26.9659C31.2535 27.0148 31.2317 27.0714 31.2181 27.135C31.2045 27.1987 31.1935 27.2872 31.1853 27.4007C31.1804 27.5096 31.1486 27.5871 31.0904 27.6335C31.0319 27.6794 30.9389 27.7019 30.8116 27.7008C30.5278 27.6986 30.385 27.6048 30.3828 27.419C30.3839 27.3107 30.4174 27.2073 30.4834 27.1089C30.5492 27.0105 30.6424 26.924 30.7626 26.8493C31.0179 26.6922 31.3526 26.6148 31.7671 26.6167C32.1887 26.6148 32.4908 26.6983 32.6736 26.8679C32.7558 26.9454 32.8162 27.0444 32.8548 27.1648C32.8937 27.2852 32.9127 27.4393 32.9124 27.6272L32.9062 28.16L32.9001 28.6928C32.895 28.8673 32.893 28.9776 32.8939 29.0235C32.8917 29.2443 32.8988 29.4057 32.9148 29.5075C32.9308 29.6092 32.9485 29.6538 33.0154 29.7091C33.1323 29.776 33.2324 29.7736 33.314 29.7738ZM32.1712 28.6071V28.1356C31.7328 28.1654 31.4216 28.2465 31.2382 28.379C31.0546 28.5115 30.9654 28.7182 30.9708 28.9992C30.9728 29.2195 31.0181 29.3943 31.1064 29.5235C31.1948 29.6528 31.315 29.7188 31.4669 29.7218C31.5916 29.7205 31.7067 29.6847 31.8122 29.6137C31.9177 29.5429 32.0006 29.4443 32.061 29.3174C32.1005 29.2402 32.1287 29.1455 32.146 29.0335C32.1632 28.9217 32.1717 28.7795 32.1712 28.6071Z" fill="#3A3A3A"/>
<path d="M22.3333 14.5832L22.3184 14.873L27.8781 21.3949L28.0777 21.4276L28.1029 21.4151L28.2005 21.2343L25.8295 13.2981L25.4271 13.0269L22.3333 14.5832Z" fill="#0097B9"/>
<path d="M31.2554 12.8697L34.8502 14.5226L34.8569 14.9889L28.9573 23.9252L28.688 23.9963L28.6482 23.978L28.5642 23.7765L30.942 13.0439L31.2554 12.8697Z" fill="#80B13A"/>
<path d="M25.7641 10.3271L25.9072 10.0514L30.5097 10.0015L30.8071 10.3104L28.6021 17.6774L28.4624 17.7585L28.4579 17.7583L28.3068 17.6565L25.7641 10.3271Z" fill="#D81936"/>
<path fill-rule="evenodd" clip-rule="evenodd" d="M23.9775 15.1899L28.089 21.4449L27.8703 21.4092L22.3034 14.8702L23.9775 15.1899Z" fill="#005874"/>
<path d="M25.4329 13.02L25.834 13.2922L24.5883 14.9485L24.0099 14.6956L25.4329 13.02Z" fill="#2FB8E7"/>
<path d="M24.0097 14.6954L23.9774 15.1901L22.3036 14.8704L22.3211 14.5827L24.0097 14.6954Z" fill="#007592"/>
<path d="M24.5883 14.9487L25.8366 13.2898L28.2375 21.2326L28.1153 21.438L24.5883 14.9487Z" fill="#007592"/>
<path d="M34.8692 14.9877L28.9745 23.9434L28.6731 24.0312L32.462 15.1926L34.8692 14.9877Z" fill="#6E9123"/>
<path d="M31.7831 14.8193L28.6392 24.0035L28.5506 23.7782L30.9378 13.0347L31.7831 14.8193Z" fill="#3F7937"/>
<path d="M34.8597 14.5224L34.8693 14.9876L32.462 15.1928L32.3263 14.5553L34.8597 14.5224Z" fill="#A5C550"/>
<path d="M32.3263 14.5552L31.7829 14.8187L30.9373 13.0339L31.248 12.8587L32.3263 14.5552Z" fill="#5D8B27"/>
<path d="M27.8788 10.8226L27.5471 11.2144L25.7485 10.3186L25.8938 10.0461L27.8788 10.8226Z" fill="#AF2C35"/>
<path d="M25.7483 10.3186L27.5472 11.2144L28.4591 17.7734L28.2995 17.6648L25.7483 10.3186Z" fill="#762624"/>
<path d="M28.4125 11.2153L30.8152 10.3071L28.6134 17.6874L28.4623 17.7733L28.4125 11.2153Z" fill="#B22B37"/>
<path d="M27.879 10.8226L28.4124 11.2155L30.8154 10.3073L30.5145 10L27.879 10.8226Z" fill="#DC505E"/>
</svg>
