<svg width="46" height="32" viewBox="0 0 46 32" fill="none" xmlns="http://www.w3.org/2000/svg">
<rect width="46" height="32" rx="4" fill="#22508E"/>
<g clip-path="url(#clip0_301_3224)">
<path fill-rule="evenodd" clip-rule="evenodd" d="M7.69369 5H39.1422C39.5238 5 39.8359 5.31218 39.8359 5.69369V26.3067C39.8359 26.6882 39.5238 27 39.1422 27H7.69369C7.31261 27 7 26.6878 7 26.3067V5.69369C7 5.31218 7.31218 5 7.69369 5Z" fill="#22508E"/>
<path fill-rule="evenodd" clip-rule="evenodd" d="M23.0357 22.6707L21.8697 22.0692L23.0361 21.4676L24.2246 20.8549V21.5176H24.3107C26.35 21.5128 29.7823 21.1933 32.7448 20.3085C35.1135 19.601 37.9412 18.2872 37.9627 16.0447C37.9705 15.2386 37.4581 14.5182 36.4393 13.9042C35.5725 13.3815 34.3061 12.9168 32.6755 12.5237C31.1335 12.1521 29.0257 11.7435 24.2112 11.2668C24.5195 11.2599 24.833 11.2565 25.1499 11.2565C29.9528 11.2565 35.87 12.0522 38.0738 14.2849C38.6784 14.8972 38.9798 15.596 38.9699 16.3616C38.9376 18.8561 36.0375 20.3597 33.6103 21.1817C30.4661 22.247 26.8525 22.6251 24.7137 22.6251H24.7129C24.5764 22.6251 24.4416 22.6238 24.3124 22.6208L24.2242 22.6186V23.283L23.0353 22.6703L23.0357 22.6707Z" fill="#F58220"/>
<path d="M25.8208 11.3478C28.2149 11.384 30.5694 11.6135 32.5157 12.0036C33.7584 12.2525 34.8439 12.566 35.7422 12.9359C36.7252 13.3406 37.4891 13.8147 38.0131 14.3456C38.6009 14.9411 38.8941 15.6193 38.8842 16.3608C38.8524 18.8049 35.9837 20.2874 33.5832 21.1008C30.4484 22.1627 26.8465 22.5394 24.7142 22.5394C24.5777 22.5394 24.4433 22.5381 24.315 22.5351L24.1389 22.5313V22.7074V23.1423L23.0753 22.5945L22.0574 22.0697L23.0753 21.5448L24.1385 20.9966V21.6042H24.3111C26.356 21.599 29.7982 21.2786 32.7693 20.3912C34.3363 19.9231 35.5777 19.3547 36.4587 18.7015C37.5042 17.9265 38.0394 17.033 38.0484 16.046C38.0566 15.2072 37.53 14.4619 36.4832 13.8306C35.6087 13.3032 34.3341 12.8355 32.6953 12.4402C31.3333 12.1117 29.5308 11.7552 25.8204 11.3478M25.1495 11.1704C24.3624 11.1704 23.6123 11.1915 22.9246 11.2303C28.9052 11.7831 37.9076 12.7451 37.8758 16.0439C37.8379 20.0226 28.6851 21.4212 24.3098 21.4311V20.7137L22.9957 21.391L21.6811 22.0692L22.9957 22.7474L24.3103 23.4247V22.7074C24.4403 22.7104 24.5742 22.7117 24.7133 22.7117C29.4481 22.7117 38.9953 20.9669 39.0556 16.363C39.1077 12.3683 31.0646 11.1704 25.1495 11.1704Z" fill="white"/>
<path fill-rule="evenodd" clip-rule="evenodd" d="M22.0863 20.6874C17.2834 20.6874 11.3661 19.8916 9.16193 17.659C8.55737 17.0467 8.25596 16.3478 8.26586 15.5822C8.29816 13.0878 11.1982 11.5841 13.6255 10.7617C16.7701 9.69641 20.3833 9.31835 22.522 9.31835C22.659 9.31835 22.7942 9.31964 22.9233 9.32266L23.0116 9.32481V8.6604L24.2005 9.27314L25.3665 9.87468L24.2001 10.4762L23.0116 11.089V10.4263H22.9255C20.8862 10.431 17.4539 10.7505 14.4914 11.6354C12.1227 12.3429 9.29498 13.6566 9.27346 15.8991C9.2657 16.7052 9.77811 17.4256 10.7969 18.0396C11.6637 18.5624 12.9301 19.027 14.5607 19.4201C16.1027 19.7917 18.2105 20.2004 23.025 20.677C22.7167 20.6839 22.4032 20.6874 22.0863 20.6874Z" fill="#F58220"/>
<path d="M23.0977 8.80169L24.1613 9.34941L25.1792 9.87431L24.1613 10.3992L23.0982 10.9474V10.3398H22.9255C20.8806 10.3449 17.4384 10.6653 14.4673 11.5528C12.9004 12.0208 11.659 12.5892 10.778 13.2424C9.73247 14.0175 9.19724 14.911 9.1882 15.8979C9.18002 16.7367 9.70664 17.4821 10.7534 18.1133C11.628 18.6408 12.9025 19.1084 14.5414 19.5037C15.9033 19.8323 17.7058 20.1888 21.4163 20.5961C19.0226 20.56 16.6681 20.33 14.7222 19.9408C13.4795 19.6919 12.394 19.3784 11.4953 19.0085C10.5123 18.6038 9.74841 18.1297 9.22437 17.5988C8.63661 17.0033 8.34337 16.3251 8.35328 15.5836C8.38514 13.1395 11.2538 11.657 13.6543 10.8436C16.7891 9.78173 20.391 9.40496 22.5233 9.40496C22.6598 9.40496 22.7942 9.40625 22.9225 9.40926L23.0986 9.41314V9.23703V8.80212M22.9264 8.51965V9.23703C22.7963 9.23401 22.6624 9.23272 22.5233 9.23272C17.7885 9.23272 8.24132 10.9775 8.18104 15.5814C8.12894 19.5761 16.1725 20.774 22.0871 20.774C22.8743 20.774 23.6244 20.7529 24.3116 20.7141C18.331 20.1612 9.32858 19.1993 9.36044 15.9005C9.39833 11.9218 18.5511 10.5232 22.9264 10.5133V11.2307L24.2405 10.5534L25.5551 9.87517L24.2405 9.19698L22.9259 8.51965H22.9264Z" fill="white"/>
<path fill-rule="evenodd" clip-rule="evenodd" d="M12.3303 13.7609H14.3541C14.7347 13.7609 15.0241 13.8044 15.2217 13.8892C15.4185 13.9753 15.5709 14.1028 15.6799 14.2716C15.7884 14.4408 15.8482 14.6479 15.8586 14.8929C15.8719 15.2111 15.7927 15.4936 15.6217 15.7416C15.4516 15.9896 15.2307 16.1688 14.9608 16.276C14.6912 16.3836 14.3131 16.4383 13.8266 16.4383H13.2156L12.9357 18.004H11.5461L12.087 15.0785L11.767 15.0798L12.3298 13.7609H12.3303ZM13.3749 15.5986H13.8399C14.0565 15.5986 14.2313 15.5384 14.3653 15.4169C14.4992 15.2955 14.5625 15.15 14.5556 14.9825C14.5448 14.7284 14.3941 14.601 14.1047 14.601H13.5631L13.3753 15.5986H13.3749Z" fill="white"/>
<path fill-rule="evenodd" clip-rule="evenodd" d="M20.3751 18.004H18.8512L17.8931 16.3815L17.5796 18.004H16.3649L16.9299 15.0776L16.5647 15.0768L17.1844 13.7609H19.2525C19.7081 13.7609 20.0401 13.8754 20.2485 14.1049C20.4569 14.334 20.5249 14.6354 20.4526 15.0109C20.4056 15.255 20.3174 15.4716 20.1878 15.6594C20.0586 15.8458 19.572 16.229 19.2301 16.2609L20.3746 18.004H20.3751ZM18.0684 15.4733H18.5885C18.741 15.4733 18.8701 15.4393 18.9765 15.3713C19.082 15.3024 19.1479 15.2016 19.1733 15.069C19.2258 14.7986 19.0966 14.663 18.7857 14.663H18.2255L18.0688 15.4733H18.0684Z" fill="white"/>
<path fill-rule="evenodd" clip-rule="evenodd" d="M23.2902 13.7609L22.5341 18.004H21.2431L21.7672 15.0626H21.4472L21.9988 13.7609H23.2902Z" fill="white"/>
<path fill-rule="evenodd" clip-rule="evenodd" d="M23.5081 18.004L24.8003 14.7672H24.4248L25.2021 13.7609H26.6127L27.1049 15.9621L28.6175 13.7609H29.9761L29.9756 18.004H28.6683L28.6623 15.5422L26.9886 18.0328L26.4275 18.004L25.7489 15.5422L24.8184 18.004H23.5081Z" fill="white"/>
<path fill-rule="evenodd" clip-rule="evenodd" d="M35.5329 18.004H34.0693L34.003 17.3094H32.4279L32.0524 18.004H30.4437L32.5256 14.7672H32.1153L33.1724 13.7609H34.7647L35.5329 18.004ZM33.9074 16.4095L33.7601 14.8632H33.7464L32.9162 16.4095H33.907H33.9074Z" fill="white"/>
</g>
<defs>
<clipPath id="clip0_301_3224">
<rect width="32.8359" height="22" fill="white" transform="translate(7 5)"/>
</clipPath>
</defs>
</svg>
