<svg width="34" height="24" viewBox="0 0 34 24" fill="none" xmlns="http://www.w3.org/2000/svg">
<rect width="34" height="24" rx="4" fill="#22508E"/>
<g clip-path="url(#clip0_301_3192)">
<path fill-rule="evenodd" clip-rule="evenodd" d="M4.56756 3H30.2982C30.6103 3 30.8658 3.25542 30.8658 3.56756V20.4328C30.8658 20.7449 30.6103 21 30.2982 21H4.56756C4.25577 21 4 20.7446 4 20.4328V3.56756C4 3.25542 4.25542 3 4.56756 3Z" fill="#22508E"/>
<path fill-rule="evenodd" clip-rule="evenodd" d="M17.1201 17.4579L16.1661 16.9658L17.1205 16.4736L18.0928 15.9723V16.5145H18.1633C19.8318 16.5106 22.64 16.2492 25.0639 15.5252C27.0019 14.9463 29.3155 13.8715 29.3331 12.0367C29.3395 11.3771 28.9202 10.7877 28.0867 10.2853C27.3775 9.85765 26.3414 9.47751 25.0072 9.15585C23.7456 8.85181 22.021 8.51748 18.0819 8.12747C18.3342 8.12184 18.5906 8.11902 18.8499 8.11902C22.7796 8.11902 27.6209 8.77008 29.424 10.5968C29.9187 11.0978 30.1653 11.6696 30.1572 12.296C30.1308 14.3369 27.758 15.5671 25.772 16.2397C23.1995 17.1113 20.243 17.4206 18.4931 17.4206H18.4924C18.3807 17.4206 18.2704 17.4195 18.1647 17.4171L18.0925 17.4153V17.9589L17.1198 17.4576L17.1201 17.4579Z" fill="#F58220"/>
<path d="M19.3988 8.19373C21.3577 8.22333 23.2841 8.41111 24.8765 8.7303C25.8932 8.93393 26.7814 9.19041 27.5163 9.49304C28.3206 9.8242 28.9456 10.2121 29.3744 10.6465C29.8553 11.1337 30.0952 11.6886 30.0871 12.2953C30.061 14.295 27.714 15.508 25.7499 16.1735C23.1851 17.0422 20.238 17.3505 18.4934 17.3505C18.3817 17.3505 18.2718 17.3495 18.1668 17.347L18.0227 17.3438V17.4879V17.8437L17.1525 17.3956L16.3197 16.9661L17.1525 16.5367L18.0224 16.0882V16.5853H18.1637C19.8368 16.5811 22.6531 16.319 25.084 15.5929C26.366 15.2099 27.3817 14.7449 28.1026 14.2104C28.958 13.5763 29.3959 12.8452 29.4033 12.0377C29.41 11.3514 28.9791 10.7416 28.1226 10.2251C27.4071 9.79355 26.3643 9.41095 25.0234 9.08753C23.9091 8.81872 22.4343 8.52701 19.3985 8.19373M18.8496 8.04858C18.2056 8.04858 17.5919 8.06585 17.0292 8.09755C21.9224 8.54991 29.2881 9.33697 29.262 12.036C29.231 15.2913 21.7424 16.4356 18.1626 16.4437V15.8567L17.0874 16.4109L16.0118 16.9658L17.0874 17.5207L18.163 18.0749V17.4879C18.2694 17.4904 18.3789 17.4914 18.4927 17.4914C22.3667 17.4914 30.178 16.0639 30.2273 12.297C30.2699 9.0287 23.6892 8.04858 18.8496 8.04858Z" fill="white"/>
<path fill-rule="evenodd" clip-rule="evenodd" d="M16.3433 15.8352C12.4137 15.8352 7.57232 15.1842 5.76886 13.3575C5.27423 12.8565 5.02761 12.2847 5.03572 11.6583C5.06214 9.6174 7.43492 8.38715 9.42086 7.71425C11.9938 6.84264 14.9499 6.53332 16.6998 6.53332C16.8119 6.53332 16.9225 6.53437 17.0282 6.53684L17.1004 6.5386V5.995L18.0731 6.49633L19.0272 6.9885L18.0728 7.48067L17.1004 7.982V7.4398H17.03C15.3614 7.44368 12.5532 7.70509 10.1293 8.42907C8.19132 9.00791 5.87773 10.0828 5.86011 11.9176C5.85377 12.5771 6.27301 13.1665 7.10657 13.6689C7.81576 14.0966 8.85189 14.4768 10.1861 14.7984C11.4477 15.1024 13.1722 15.4368 17.1113 15.8268C16.8591 15.8324 16.6026 15.8352 16.3433 15.8352Z" fill="#F58220"/>
<path d="M17.1709 6.11052L18.0411 6.55865L18.8739 6.98811L18.0411 7.41758L17.1712 7.86606V7.36896H17.0299C15.3568 7.37318 12.5405 7.6353 10.1096 8.3614C8.82757 8.74436 7.81187 9.2094 7.09106 9.74385C6.23566 10.378 5.79774 11.109 5.79034 11.9165C5.78365 12.6028 6.21452 13.2127 7.07097 13.7291C7.78651 14.1607 8.82933 14.5433 10.1702 14.8667C11.2845 15.1355 12.7593 15.4272 15.7951 15.7605C13.8366 15.7309 11.9102 15.5428 10.3182 15.2243C9.30142 15.0207 8.41326 14.7642 7.678 14.4616C6.87368 14.1304 6.24869 13.7425 5.81994 13.3081C5.33904 12.8209 5.09912 12.266 5.10722 11.6593C5.13329 9.65965 7.48035 8.44666 9.44446 7.78115C12.0092 6.91237 14.9563 6.6041 16.7009 6.6041C16.8126 6.6041 16.9225 6.60516 17.0275 6.60762L17.1716 6.61079V6.4667V6.11087M17.0307 5.87976V6.4667C16.9243 6.46424 16.8147 6.46318 16.7009 6.46318C12.8269 6.46318 5.01562 7.89072 4.9663 11.6576C4.92367 14.9259 11.5047 15.906 16.344 15.906C16.988 15.906 17.6017 15.8888 18.164 15.8571C13.2708 15.4047 5.9052 14.6176 5.93127 11.9186C5.96227 8.66333 13.4509 7.51904 17.0307 7.51094V8.09788L18.1059 7.5437L19.1815 6.98882L18.1059 6.43394L17.0303 5.87976H17.0307Z" fill="white"/>
<path fill-rule="evenodd" clip-rule="evenodd" d="M8.36112 10.168H10.017C10.3284 10.168 10.5651 10.2036 10.7269 10.273C10.8879 10.3434 11.0126 10.4477 11.1017 10.5858C11.1905 10.7243 11.2395 10.8937 11.2479 11.0942C11.2588 11.3545 11.194 11.5856 11.0541 11.7886C10.915 11.9915 10.7343 12.1381 10.5134 12.2258C10.2928 12.3139 9.98349 12.3586 9.58538 12.3586H9.08546L8.85646 13.6396H7.71957L8.16207 11.246L7.90031 11.2471L8.36077 10.168H8.36112ZM9.21582 11.6716H9.59631C9.77352 11.6716 9.91655 11.6223 10.0261 11.5229C10.1357 11.4236 10.1875 11.3045 10.1818 11.1675C10.173 10.9596 10.0497 10.8553 9.81297 10.8553H9.36977L9.21617 11.6716H9.21582Z" fill="white"/>
<path fill-rule="evenodd" clip-rule="evenodd" d="M14.9432 13.6396H13.6964L12.9125 12.3121L12.6561 13.6396H11.6622L12.1244 11.2453L11.8257 11.2446L12.3326 10.168H14.0248C14.3975 10.168 14.6691 10.2617 14.8396 10.4495C15.0102 10.6369 15.0658 10.8835 15.0066 11.1907C14.9682 11.3905 14.896 11.5677 14.79 11.7213C14.6843 11.8738 14.2862 12.1874 14.0064 12.2135L14.9429 13.6396H14.9432ZM13.0559 11.5691H13.4815C13.6062 11.5691 13.7119 11.5413 13.7989 11.4856C13.8852 11.4292 13.9392 11.3468 13.9599 11.2383C14.0029 11.017 13.8972 10.906 13.6429 10.906H13.1845L13.0563 11.5691H13.0559Z" fill="white"/>
<path fill-rule="evenodd" clip-rule="evenodd" d="M17.3283 10.168L16.7097 13.6396H15.6535L16.0822 11.233H15.8205L16.2718 10.168H17.3283Z" fill="white"/>
<path fill-rule="evenodd" clip-rule="evenodd" d="M17.5066 13.6396L18.5639 10.9913H18.2567L18.8926 10.168H20.0467L20.4494 11.969L21.6871 10.168H22.7986L22.7983 13.6396H21.7287L21.7237 11.6255L20.3543 13.6632L19.8953 13.6396L19.34 11.6255L18.5787 13.6396H17.5066Z" fill="white"/>
<path fill-rule="evenodd" clip-rule="evenodd" d="M27.3451 13.6396H26.1476L26.0934 13.0713H24.8046L24.4974 13.6396H23.1812L24.8846 10.9913H24.5489L25.4138 10.168H26.7166L27.3451 13.6396ZM26.0152 12.335L25.8947 11.0699H25.8834L25.2042 12.335H26.0148H26.0152Z" fill="white"/>
</g>
<defs>
<clipPath id="clip0_301_3192">
<rect width="26.8658" height="18" fill="white" transform="translate(4 3)"/>
</clipPath>
</defs>
</svg>
