<svg width="28" height="20" viewBox="0 0 28 20" fill="none" xmlns="http://www.w3.org/2000/svg">
<rect width="28" height="20" rx="4" fill="#22508E"/>
<g clip-path="url(#clip0_301_3208)">
<path fill-rule="evenodd" clip-rule="evenodd" d="M2.5045 2H25.3762C25.6536 2 25.8807 2.22704 25.8807 2.5045V17.4958C25.8807 17.7733 25.6536 18 25.3762 18H2.5045C2.22735 18 2 17.773 2 17.4958V2.5045C2 2.22704 2.22704 2 2.5045 2Z" fill="#22508E"/>
<path fill-rule="evenodd" clip-rule="evenodd" d="M13.6623 14.8514L12.8143 14.4139L13.6627 13.9765L14.527 13.5308V14.0128H14.5896C16.0727 14.0093 18.5689 13.777 20.7235 13.1334C22.4462 12.6189 24.5027 11.6635 24.5184 10.0325C24.524 9.44628 24.1513 8.92236 23.4104 8.47579C22.78 8.09562 21.859 7.75772 20.6731 7.4718C19.5516 7.20154 18.0187 6.90436 14.5173 6.55769C14.7415 6.55268 14.9695 6.55017 15.2 6.55017C18.693 6.55017 22.9964 7.12889 24.5992 8.75263C25.0388 9.19794 25.258 9.7062 25.2508 10.263C25.2274 12.0771 23.1182 13.1707 21.3529 13.7685C19.0662 14.5433 16.4382 14.8182 14.8827 14.8182H14.8821C14.7828 14.8182 14.6848 14.8173 14.5909 14.8151L14.5267 14.8135V15.2967L13.662 14.8511L13.6623 14.8514Z" fill="#F58220"/>
<path d="M15.6878 6.61657C17.429 6.64288 19.1414 6.80979 20.5569 7.09351C21.4606 7.27452 22.2501 7.5025 22.9034 7.77151C23.6183 8.06588 24.1739 8.41067 24.555 8.79679C24.9825 9.2299 25.1957 9.72312 25.1885 10.2624C25.1653 12.0399 23.0791 13.1181 21.3332 13.7097C19.0534 14.4819 16.4338 14.7559 14.883 14.7559C14.7838 14.7559 14.686 14.755 14.5927 14.7528L14.4646 14.75V14.8781V15.1944L13.6911 14.796L12.9508 14.4143L13.6911 14.0325L14.4643 13.6339V14.0757H14.5899C16.0771 14.072 18.5805 13.839 20.7413 13.1936C21.8809 12.8532 22.7838 12.4398 23.4245 11.9647C24.1848 11.401 24.5741 10.7512 24.5807 10.0335C24.5866 9.42343 24.2036 8.88135 23.4423 8.42225C22.8063 8.03863 21.8793 7.69854 20.6875 7.41106C19.6969 7.17212 18.386 6.91282 15.6875 6.61657M15.1996 6.48755C14.6272 6.48755 14.0816 6.50289 13.5815 6.53108C17.931 6.93318 24.4783 7.63278 24.4551 10.0319C24.4275 12.9255 17.771 13.9426 14.589 13.9499V13.4281L13.6332 13.9207L12.6771 14.414L13.6332 14.9072L14.5893 15.3998V14.8781C14.6839 14.8803 14.7812 14.8812 14.8824 14.8812C18.3259 14.8812 25.2693 13.6123 25.3132 10.264C25.351 7.35876 19.5015 6.48755 15.1996 6.48755Z" fill="white"/>
<path fill-rule="evenodd" clip-rule="evenodd" d="M12.9718 13.4091C9.47882 13.4091 5.17537 12.8304 3.5723 11.2067C3.13262 10.7613 2.91341 10.2531 2.92061 9.69629C2.9441 7.88215 5.05324 6.78859 6.81852 6.19045C9.10553 5.4157 11.7333 5.14074 13.2887 5.14074C13.3883 5.14074 13.4866 5.14168 13.5806 5.14387L13.6448 5.14544V4.66223L14.5094 5.10786L15.3575 5.54534L14.5091 5.98283L13.6448 6.42846V5.9465H13.5822C12.099 5.94995 9.60283 6.18231 7.44829 6.82586C5.72559 7.34038 3.66907 8.29583 3.65341 9.92677C3.64777 10.513 4.02043 11.0369 4.76137 11.4835C5.39176 11.8637 6.31277 12.2016 7.49871 12.4875C8.62013 12.7577 10.1531 13.0549 13.6545 13.4016C13.4303 13.4066 13.2023 13.4091 12.9718 13.4091Z" fill="#F58220"/>
<path d="M13.7074 4.76493L14.4809 5.16328L15.2212 5.54502L14.4809 5.92676L13.7077 6.32541V5.88354H13.5822C12.095 5.8873 9.59155 6.12029 7.43075 6.76572C6.29116 7.10612 5.38831 7.5195 4.74759 7.99456C3.98723 8.55825 3.59798 9.20806 3.5914 9.92582C3.58545 10.5359 3.96844 11.0779 4.72974 11.537C5.36577 11.9207 6.29272 12.2607 7.48461 12.5482C8.47514 12.7872 9.78603 13.0465 12.4845 13.3427C10.7437 13.3164 9.03131 13.1492 7.61614 12.8661C6.71236 12.6851 5.92288 12.4571 5.26931 12.1881C4.55437 11.8937 3.99882 11.5489 3.61771 11.1628C3.19024 10.7297 2.97698 10.2365 2.98418 9.69721C3.00736 7.91971 5.09363 6.8415 6.8395 6.24994C9.11931 5.47769 11.7389 5.20367 13.2897 5.20367C13.3889 5.20367 13.4866 5.20461 13.58 5.2068L13.708 5.20962V5.08154V4.76525M13.5828 4.55981V5.08154C13.4882 5.07935 13.3908 5.07841 13.2897 5.07841C9.84615 5.07841 2.90276 6.34733 2.85892 9.69565C2.82102 12.6008 8.67086 13.4721 12.9724 13.4721C13.5449 13.4721 14.0904 13.4567 14.5902 13.4285C10.2407 13.0264 3.69349 12.3268 3.71666 9.9277C3.74422 7.0341 10.4008 6.01695 13.5828 6.00975V6.53147L14.5386 6.03887L15.4946 5.54564L14.5386 5.05242L13.5825 4.55981H13.5828Z" fill="white"/>
<path fill-rule="evenodd" clip-rule="evenodd" d="M5.87654 8.37158H7.34839C7.62523 8.37158 7.83567 8.40321 7.97941 8.4649C8.12253 8.52754 8.23339 8.62023 8.31262 8.74299C8.39153 8.86606 8.43506 9.01669 8.44258 9.19488C8.45228 9.42631 8.39466 9.63174 8.27034 9.81212C8.14664 9.9925 7.98599 10.1228 7.78964 10.2008C7.5936 10.279 7.31864 10.3188 6.96477 10.3188H6.5204L6.31684 11.4575H5.30627L5.6996 9.32985L5.46693 9.33079L5.87623 8.37158H5.87654ZM6.63627 9.70815H6.97448C7.132 9.70815 7.25914 9.66431 7.35654 9.576C7.45393 9.48769 7.49996 9.38184 7.49495 9.26002C7.48712 9.07525 7.37752 8.98256 7.16707 8.98256H6.77312L6.63658 9.70815H6.63627Z" fill="white"/>
<path fill-rule="evenodd" clip-rule="evenodd" d="M11.7273 11.4575H10.619L9.92226 10.2775L9.69428 11.4575H8.81085L9.22172 9.32923L8.95616 9.3286L9.4068 8.37158H10.9109C11.2422 8.37158 11.4837 8.45488 11.6352 8.6218C11.7868 8.7884 11.8363 9.00761 11.7837 9.28069C11.7496 9.45825 11.6854 9.61577 11.5911 9.75231C11.4971 9.88791 11.1433 10.1666 10.8946 10.1898L11.727 11.4575H11.7273ZM10.0497 9.61702H10.428C10.5389 9.61702 10.6328 9.59228 10.7102 9.5428C10.7869 9.4927 10.8348 9.41942 10.8533 9.32296C10.8915 9.1263 10.7975 9.02765 10.5714 9.02765H10.164L10.05 9.61702H10.0497Z" fill="white"/>
<path fill-rule="evenodd" clip-rule="evenodd" d="M13.8474 8.37158L13.2975 11.4575H12.3586L12.7398 9.31827H12.5071L12.9082 8.37158H13.8474Z" fill="white"/>
<path fill-rule="evenodd" clip-rule="evenodd" d="M14.0059 11.4575L14.9457 9.10344H14.6726L15.2379 8.37158H16.2638L16.6217 9.97246L17.7219 8.37158H18.7099L18.7096 11.4575H17.7588L17.7544 9.66713L16.5372 11.4784L16.1291 11.4575L15.6356 9.66713L14.9588 11.4575H14.0059Z" fill="white"/>
<path fill-rule="evenodd" clip-rule="evenodd" d="M22.7512 11.4575H21.6868L21.6385 10.9523H20.493L20.2199 11.4575H19.05L20.5641 9.10344H20.2656L21.0345 8.37158H22.1925L22.7512 11.4575ZM21.569 10.2978L21.4619 9.17327H21.4519L20.8481 10.2978H21.5687H21.569Z" fill="white"/>
</g>
<defs>
<clipPath id="clip0_301_3208">
<rect width="23.8807" height="16" fill="white" transform="translate(2 2)"/>
</clipPath>
</defs>
</svg>
