<svg width="58" height="40" viewBox="0 0 58 40" fill="none" xmlns="http://www.w3.org/2000/svg">
<rect width="58" height="40" rx="6" fill="#22508E"/>
<g clip-path="url(#clip0_301_3240)">
<path fill-rule="evenodd" clip-rule="evenodd" d="M8.88288 6H48.9083C49.3939 6 49.7912 6.39732 49.7912 6.88288V33.1177C49.7912 33.6032 49.3939 34 48.9083 34H8.88288C8.39787 34 8 33.6027 8 33.1177V6.88288C8 6.39732 8.39732 6 8.88288 6Z" fill="#22508E"/>
<path fill-rule="evenodd" clip-rule="evenodd" d="M28.4091 28.4901L26.925 27.7245L28.4097 26.9589L29.9222 26.179V27.0225H30.0318C32.6273 27.0164 36.9956 26.6098 40.7661 25.4836C43.7808 24.5832 47.3797 22.9111 47.4071 20.057C47.417 19.0311 46.7648 18.1142 45.4682 17.3327C44.365 16.6674 42.7533 16.0761 40.6779 15.5757C38.7154 15.1028 36.0328 14.5827 29.9052 13.976C30.2976 13.9673 30.6966 13.9629 31.0999 13.9629C37.2127 13.9629 44.7437 14.9757 47.5485 17.8172C48.318 18.5965 48.7016 19.4859 48.689 20.4603C48.6479 23.6351 44.9569 25.5488 41.8676 26.595C37.8659 27.9508 33.2668 28.432 30.5448 28.432H30.5437C30.37 28.432 30.1984 28.4304 30.034 28.4265L29.9217 28.4238V29.2694L28.4086 28.4895L28.4091 28.4901Z" fill="#F58220"/>
<path d="M31.9538 14.0791C35.0008 14.1251 37.9974 14.4172 40.4745 14.9137C42.0562 15.2305 43.4378 15.6294 44.5809 16.1002C45.8321 16.6153 46.8043 17.2187 47.4713 17.8945C48.2193 18.6524 48.5925 19.5155 48.5799 20.4592C48.5394 23.5699 44.8884 25.4567 41.8331 26.492C37.8435 27.8434 33.2592 28.3229 30.5453 28.3229C30.3716 28.3229 30.2006 28.3213 30.0373 28.3175L29.8132 28.3125V28.5367V29.0902L28.4595 28.3931L27.164 27.725L28.4595 27.057L29.8126 26.3593V27.1326H30.0324C32.635 27.126 37.0159 26.7183 40.7973 25.5888C42.7916 24.9931 44.3716 24.2697 45.4929 23.4383C46.8235 22.4519 47.5047 21.3147 47.5162 20.0586C47.5266 18.9911 46.8564 18.0424 45.5241 17.239C44.4111 16.5677 42.7889 15.9725 40.7031 15.4694C38.9697 15.0513 36.6756 14.5975 31.9532 14.0791M31.0994 13.8533C30.0976 13.8533 29.1429 13.8801 28.2677 13.9294C35.8793 14.6331 47.337 15.8574 47.2964 20.0559C47.2482 25.1197 35.5993 26.8997 30.0307 26.9123V25.9993L28.3581 26.8613L26.685 27.7245L28.3581 28.5876L30.0313 29.4497V28.5367C30.1968 28.5405 30.3672 28.5421 30.5442 28.5421C36.5704 28.5421 48.7213 26.3215 48.798 20.462C48.8644 15.3779 38.6277 13.8533 31.0994 13.8533Z" fill="white"/>
<path fill-rule="evenodd" clip-rule="evenodd" d="M27.2007 25.9659C21.088 25.9659 13.5569 24.9531 10.7515 22.1116C9.98211 21.3323 9.59849 20.4428 9.61109 19.4684C9.6522 16.2937 13.3432 14.3799 16.4324 13.3332C20.4347 11.9774 25.0332 11.4962 27.7553 11.4962C27.9296 11.4962 28.1017 11.4978 28.2661 11.5017L28.3784 11.5044V10.6588L29.8915 11.4387L31.3756 12.2043L29.891 12.9699L28.3784 13.7497V12.9063H28.2688C25.6733 12.9123 21.305 13.319 17.5345 14.4452C14.5198 15.3456 10.9209 17.0176 10.8935 19.8718C10.8836 20.8977 11.5358 21.8145 12.8324 22.596C13.9356 23.2613 15.5474 23.8527 17.6228 24.353C19.5853 24.826 22.2679 25.346 28.3954 25.9527C28.003 25.9615 27.604 25.9659 27.2007 25.9659Z" fill="#F58220"/>
<path d="M28.488 10.8386L29.8416 11.5357L31.1372 12.2037L29.8416 12.8718L28.4886 13.5694V12.7961H28.2688C25.6662 12.8027 21.2852 13.2105 17.5038 14.3399C15.5095 14.9357 13.9296 15.6591 12.8083 16.4904C11.4777 17.4769 10.7965 18.614 10.785 19.8701C10.7746 20.9377 11.4448 21.8863 12.7771 22.6897C13.8901 23.3611 15.5123 23.9562 17.5981 24.4593C19.3315 24.8775 21.6256 25.3313 26.3479 25.8497C23.3014 25.8037 20.3048 25.511 17.8283 25.0156C16.2466 24.6988 14.8651 24.2999 13.7213 23.8291C12.4702 23.314 11.498 22.7106 10.831 22.0348C10.0829 21.2769 9.70974 20.4138 9.72234 19.4701C9.76289 16.3594 13.4139 14.4726 16.4691 13.4373C20.4588 12.0859 25.0431 11.6064 27.7569 11.6064C27.9307 11.6064 28.1017 11.608 28.265 11.6118L28.4891 11.6168V11.3926V10.8391M28.2699 10.4796V11.3926C28.1044 11.3888 27.934 11.3872 27.7569 11.3872C21.7308 11.3872 9.57985 13.6078 9.50313 19.4673C9.43682 24.5514 19.674 26.076 27.2018 26.076C28.2036 26.076 29.1583 26.0492 30.0329 25.9999C22.4213 25.2962 10.9636 24.0719 11.0042 19.8734C11.0524 14.8096 22.7014 13.0296 28.2699 13.017V13.93L29.9425 13.068L31.6156 12.2048L29.9425 11.3417L28.2693 10.4796H28.2699Z" fill="white"/>
<path fill-rule="evenodd" clip-rule="evenodd" d="M14.7839 17.1503H17.3597C17.8441 17.1503 18.2124 17.2056 18.464 17.3136C18.7144 17.4232 18.9084 17.5854 19.0471 17.8002C19.1852 18.0156 19.2614 18.2792 19.2745 18.591C19.2915 18.996 19.1907 19.3555 18.9731 19.6712C18.7566 19.9869 18.4755 20.2149 18.1319 20.3513C17.7888 20.4883 17.3076 20.5579 16.6884 20.5579H15.9107L15.5545 22.5506H13.786L14.4743 18.8272L14.0671 18.8289L14.7834 17.1503H14.7839ZM16.1135 19.4893H16.7053C16.981 19.4893 17.2035 19.4125 17.3739 19.258C17.5444 19.1035 17.6249 18.9182 17.6162 18.705C17.6025 18.3817 17.4107 18.2195 17.0424 18.2195H16.353L16.114 19.4893H16.1135Z" fill="white"/>
<path fill-rule="evenodd" clip-rule="evenodd" d="M25.0228 22.5506H23.0833L21.864 20.4856L21.465 22.5506H19.919L20.638 18.8261L20.1733 18.8251L20.9619 17.1503H23.5941C24.1739 17.1503 24.5964 17.296 24.8617 17.5881C25.1269 17.8797 25.2135 18.2633 25.1215 18.7412C25.0617 19.0519 24.9494 19.3276 24.7844 19.5665C24.62 19.8038 24.0007 20.2916 23.5656 20.3321L25.0223 22.5506H25.0228ZM22.087 19.3298H22.749C22.943 19.3298 23.1075 19.2865 23.2428 19.1999C23.3771 19.1122 23.4609 18.984 23.4933 18.8152C23.5601 18.471 23.3957 18.2984 23 18.2984H22.287L22.0876 19.3298H22.087Z" fill="white"/>
<path fill-rule="evenodd" clip-rule="evenodd" d="M28.733 17.1503L27.7706 22.5506H26.1276L26.7946 18.807H26.3874L27.0894 17.1503H28.733Z" fill="white"/>
<path fill-rule="evenodd" clip-rule="evenodd" d="M29.0103 22.5506L30.6549 18.431H30.177L31.1662 17.1503H32.9616L33.588 19.9518L35.5132 17.1503H37.2423L37.2417 22.5506H35.5779L35.5702 19.4175L33.44 22.5873L32.7259 22.5506L31.8622 19.4175L30.6779 22.5506H29.0103Z" fill="white"/>
<path fill-rule="evenodd" clip-rule="evenodd" d="M44.3146 22.5506H42.4518L42.3674 21.6666H40.3627L39.8849 22.5506H37.8374L40.4871 18.431H39.9649L41.3103 17.1503H43.3369L44.3146 22.5506ZM42.2458 20.5212L42.0583 18.5532H42.0408L40.9842 20.5212H42.2452H42.2458Z" fill="white"/>
</g>
<defs>
<clipPath id="clip0_301_3240">
<rect width="41.7912" height="28" fill="white" transform="translate(8 6)"/>
</clipPath>
</defs>
</svg>
