<svg width="46" height="32" viewBox="0 0 46 32" fill="none" xmlns="http://www.w3.org/2000/svg">
<path fill-rule="evenodd" clip-rule="evenodd" d="M12.9524 15.4231C12.9524 20.5858 17.0424 24.7961 22.1063 24.7961C22.7278 24.7961 23.3493 24.7401 24.0635 24.6757C24.8599 24.604 25.7715 24.5218 26.9267 24.4954C28.6796 24.4954 30.5785 25.147 32.6722 27.0517C32.867 27.2521 33.1591 27.0015 32.9643 26.7509C30.8706 24.0944 28.9717 23.5932 27.0728 23.1421C24.7356 22.5907 23.5183 21.2875 22.6906 19.7838C22.5445 19.4831 22.4471 19.5332 22.4471 19.9342C22.3984 20.5357 22.4471 21.087 22.5445 21.6384H22.2524C18.9414 21.6384 16.2147 18.8315 16.2147 15.4231C16.2147 12.0148 18.9414 9.20787 22.2524 9.20787C25.5633 9.20787 28.29 12.0148 28.29 15.4231C28.29 15.6236 28.29 15.8742 28.2413 16.1248C27.7544 16.0246 26.9267 16.0246 26.2937 16.0747C26.0502 16.0747 26.0502 16.175 26.245 16.2251C28.1926 16.6261 29.556 17.8791 29.8968 20.1848C29.8968 20.2851 29.9455 20.2851 29.9942 20.2349C30.7733 18.8315 31.2602 17.1774 31.2602 15.4231C31.2602 10.2103 27.1701 6 22.1063 6C17.0424 6 12.9524 10.2605 12.9524 15.4231ZM28.7282 19.2826C29.069 19.433 29.2151 19.9342 29.2151 20.1848C29.2638 20.5858 29.1664 20.7863 29.0203 20.7863C28.8743 20.7863 28.6795 20.6359 28.4847 20.2851C28.29 19.9342 28.1926 19.5833 28.29 19.3828C28.436 19.2826 28.5821 19.2325 28.7282 19.2826ZM26.7319 20.8364C26.9266 20.8364 27.1701 20.9367 27.4135 21.1372C27.8031 21.488 27.9491 21.889 27.7544 22.1897C27.657 22.3401 27.4135 22.4404 27.2188 22.4404C26.9753 22.4404 26.7319 22.3401 26.5858 22.1897C26.1963 21.8389 26.0989 21.3377 26.3423 21.0369C26.391 20.9367 26.5371 20.8364 26.7319 20.8364Z" fill="#F28A1A"/>
</svg>
