<svg width="46" height="32" viewBox="0 0 46 32" fill="none" xmlns="http://www.w3.org/2000/svg">
<path fill-rule="evenodd" clip-rule="evenodd" d="M9.54118 10C6.48856 10 4.0138 12.4748 4.0138 15.5212C4.01188 16.6858 4.38026 17.8208 5.0657 18.7623C5.3035 18.6488 5.54946 18.5533 5.80151 18.4765C5.15694 17.6678 4.77385 16.6402 4.77385 15.5274C4.77385 12.9066 6.90816 10.7723 9.52892 10.7723C12.1497 10.7723 14.284 12.9065 14.284 15.5272C14.284 17.2056 13.4084 18.6892 12.0828 19.5344C12.2106 19.5344 12.3383 19.5344 12.472 19.5284C12.9037 19.504 13.3112 19.3094 13.6578 19.1514C14.5333 18.1722 15.0684 16.944 15.0684 15.5211C15.0684 12.4749 12.5936 10 9.54118 10Z" fill="#EA5F00"/>
<path fill-rule="evenodd" clip-rule="evenodd" d="M13.0435 21.0186C12.7334 21.122 12.4295 21.1827 12.1376 21.1888C10.9032 21.2375 10.0154 20.8666 9.16413 20.5018C8.40393 20.1794 7.6925 19.8755 6.81697 19.9241C5.9899 19.991 5.41235 20.4532 5.38797 20.4713C5.21774 20.6052 5.1935 20.8544 5.32724 21.0247C5.46097 21.195 5.71631 21.2253 5.88669 21.0916C5.89267 21.0916 6.30613 20.7633 6.8777 20.7206C7.54665 20.6903 8.16086 20.9395 8.86003 21.2436C9.65657 21.5841 10.5444 21.9612 11.7301 21.9975C11.8761 22.0036 12.022 21.9975 12.1741 21.9915C12.5451 21.9794 12.928 21.9063 13.3111 21.7787C13.4102 21.7435 13.4917 21.6712 13.5382 21.5769C13.5848 21.4827 13.5928 21.374 13.5605 21.274C13.4814 21.0551 13.2504 20.9456 13.0435 21.0186Z" fill="#2673DD"/>
<path fill-rule="evenodd" clip-rule="evenodd" d="M14.3144 19.2362C13.9374 19.4977 13.1774 19.9415 12.3078 19.972C11.2012 20.0206 10.4775 19.6983 9.70531 19.3699C8.8965 19.0174 8.05747 18.6525 6.79869 18.7073C5.63117 18.7497 4.64016 19.4187 4.15355 19.8078C4.11128 19.8415 4.07613 19.8832 4.05015 19.9306C4.02417 19.9781 4.00789 20.0302 4.00223 20.0839C3.99658 20.1377 4.00168 20.192 4.01723 20.2438C4.03278 20.2956 4.05848 20.3437 4.09282 20.3855C4.12651 20.4278 4.16828 20.4629 4.21569 20.4889C4.26309 20.5149 4.31519 20.5311 4.36896 20.5368C4.42272 20.5425 4.47707 20.5374 4.52884 20.5218C4.58061 20.5062 4.62877 20.4806 4.67052 20.4462C5.07785 20.1179 5.89863 19.5586 6.82906 19.5221C7.90534 19.4794 8.61677 19.7895 9.37084 20.1179C10.1128 20.4402 10.8727 20.7746 11.9674 20.7928C12.089 20.7928 12.2106 20.7928 12.3383 20.7868C13.4145 20.7442 14.3266 20.2153 14.7826 19.905C14.9711 19.7774 15.0137 19.5221 14.886 19.3336C14.7584 19.1511 14.4969 19.1025 14.3145 19.2364L14.3144 19.2362Z" fill="#2673DD"/>
<path fill-rule="evenodd" clip-rule="evenodd" d="M9.85116 18.9631L9.86328 18.9691C10.3438 19.1637 10.8058 19.3522 11.347 19.4555C12.8489 18.7685 13.8948 17.2543 13.8948 15.497C13.9008 13.1012 11.943 11.1494 9.5472 11.1494C7.15127 11.1494 5.1872 13.1012 5.1872 15.497C5.18582 16.549 5.5686 17.5653 6.26362 18.355C6.39736 18.3306 6.53109 18.3185 6.67095 18.3064C8.05732 18.2273 9.01198 18.6165 9.85116 18.9631ZM10.1613 16.0322C10.0824 15.9531 9.98956 15.8892 9.88751 15.8437C9.77831 15.7888 9.65655 15.7464 9.52895 15.7037C9.4048 15.6639 9.28295 15.6172 9.16396 15.5639C8.90862 15.4666 8.69576 15.3206 8.51954 15.1139C8.34303 14.9133 8.26405 14.658 8.26405 14.3479C8.27018 14.1471 8.31281 13.9709 8.38566 13.8188C8.46479 13.6668 8.56816 13.5391 8.70189 13.4418C8.83577 13.3446 8.98162 13.2653 9.14586 13.2169C9.31572 13.1675 9.4918 13.143 9.66867 13.1439H9.68093C9.96066 13.1498 10.2099 13.2046 10.4166 13.302C10.6224 13.4047 10.8179 13.5269 11.0004 13.6668L10.5687 14.287C10.4471 14.1957 10.3132 14.1227 10.1795 14.062C10.0396 14.0011 9.86941 13.9648 9.66882 13.9525C9.51669 13.9404 9.37682 13.9708 9.26134 14.0438C9.13973 14.1106 9.07885 14.214 9.07885 14.3477C9.07885 14.4269 9.0971 14.4999 9.13973 14.5606C9.18236 14.6215 9.24309 14.6762 9.31609 14.7187C9.38909 14.7673 9.46807 14.7978 9.54705 14.8343C9.62618 14.8647 9.7113 14.8951 9.7843 14.9256C9.94241 14.9802 10.1005 15.047 10.2585 15.126C10.4116 15.2034 10.5546 15.2994 10.6842 15.4119C10.812 15.5214 10.9092 15.6551 10.9882 15.8071C11.0612 15.9592 11.0977 16.1356 11.0917 16.3423C11.0856 16.5429 11.0429 16.7253 10.9701 16.8774C10.8909 17.0355 10.7816 17.1631 10.6477 17.2726C10.5078 17.3821 10.3497 17.4611 10.1674 17.5158C9.98489 17.5706 9.7843 17.595 9.57144 17.5888C9.37084 17.5828 9.18849 17.5585 9.02425 17.5036C8.86 17.449 8.70802 17.3881 8.57414 17.3151C8.45395 17.2508 8.33997 17.1756 8.23368 17.0903C8.13645 17.0232 8.06959 16.9625 8.02695 16.9137L8.47093 16.2876C8.6222 16.4317 8.79699 16.5489 8.98775 16.6342C9.18834 16.7314 9.39507 16.78 9.60793 16.78C9.79043 16.7861 9.94241 16.7435 10.0761 16.6645C10.2099 16.5855 10.2706 16.4639 10.2769 16.3118C10.2769 16.1963 10.2404 16.1051 10.1613 16.0321V16.0322ZM19.3127 15.4783C19.1849 15.3628 19.0451 15.2716 18.8869 15.1865C18.729 15.1075 18.5709 15.0345 18.4068 14.9797C18.3275 14.9494 18.2485 14.9189 18.1634 14.8885C18.0799 14.8599 18.0003 14.8211 17.9263 14.773C17.8533 14.7304 17.7986 14.6758 17.7498 14.6149C17.7061 14.5525 17.6828 14.4782 17.6831 14.402C17.6891 14.2683 17.7499 14.1649 17.8656 14.0981C17.987 14.0312 18.1209 14.0008 18.2789 14.0128C18.4796 14.0251 18.6558 14.0616 18.7959 14.1223C18.9357 14.1893 19.0694 14.2622 19.1911 14.3534L19.6289 13.7332C19.4464 13.5872 19.2458 13.4656 19.0391 13.3623C18.8324 13.2589 18.5828 13.2103 18.3033 13.2041H18.2911C18.1086 13.1982 17.9323 13.2224 17.7621 13.2771C17.5918 13.3319 17.4458 13.4049 17.3121 13.5021C17.1784 13.5993 17.075 13.7271 16.9959 13.8791C16.9169 14.0312 16.8743 14.2135 16.8683 14.4143C16.8621 14.7244 16.9473 14.9797 17.1236 15.1803C17.298 15.3813 17.5194 15.5359 17.7682 15.6303C17.8837 15.679 18.0053 15.7275 18.1392 15.7642C18.2668 15.8066 18.3884 15.8554 18.4979 15.91C18.6072 15.9648 18.6985 16.0256 18.7716 16.1046C18.8445 16.1838 18.8869 16.2749 18.8808 16.3903C18.8748 16.5425 18.808 16.6641 18.6804 16.7431C18.5526 16.8222 18.3945 16.8647 18.2122 16.8587C17.9957 16.8522 17.7827 16.8026 17.5857 16.7127C17.3851 16.6155 17.2087 16.4998 17.0627 16.3661L16.6128 16.9924C16.6554 17.0351 16.7284 17.1019 16.8197 17.1809C16.9259 17.2663 17.0399 17.3416 17.1601 17.4059C17.2938 17.4789 17.4458 17.5398 17.6101 17.5944C17.7803 17.6491 17.9628 17.6735 18.1635 17.6796C18.3763 17.6856 18.5769 17.6614 18.7594 17.6066C18.9418 17.5519 19.1059 17.4727 19.2458 17.3634C19.384 17.2559 19.4962 17.1188 19.5742 16.9621C19.6531 16.8039 19.6958 16.6214 19.7019 16.4209C19.7079 16.2141 19.6714 16.0316 19.5924 15.8796C19.5377 15.7215 19.4404 15.5878 19.3127 15.4783ZM30.3369 15.3147C30.3734 15.2782 30.416 15.2294 30.4525 15.1869C30.495 15.1383 30.5315 15.0837 30.5619 15.0105C30.5984 14.9377 30.6228 14.8586 30.6472 14.7613C30.6654 14.6641 30.6775 14.5485 30.6775 14.4086C30.6774 14.2735 30.6527 14.1396 30.6045 14.0134C30.5573 13.8863 30.4872 13.7688 30.3978 13.6668C30.3065 13.5634 30.2032 13.4722 30.0754 13.3992C29.9429 13.3229 29.7958 13.2753 29.6437 13.2593C29.5404 13.2472 29.4249 13.2351 29.3033 13.2351C29.1755 13.229 29.0479 13.229 28.9019 13.229L27.7223 13.235V17.6861H29.3519C29.5039 17.6861 29.6195 17.6861 29.7167 17.6801C29.881 17.6618 30.033 17.6253 30.179 17.5644C30.3187 17.5037 30.4525 17.4186 30.5559 17.3091C30.6654 17.1996 30.7505 17.0659 30.8174 16.9199C30.8822 16.7574 30.9152 16.5841 30.9146 16.4092C30.9146 16.1112 30.8539 15.8741 30.7383 15.6977C30.6228 15.5153 30.489 15.3877 30.3369 15.3147ZM28.4641 13.9952H28.8472C28.9749 13.9952 29.0904 13.9952 29.1878 14.0011C29.285 14.0073 29.3763 14.0134 29.4431 14.0194C29.5951 14.0376 29.7167 14.0864 29.808 14.1654C29.9052 14.2384 29.9538 14.3479 29.9478 14.4816C29.9538 14.6518 29.8992 14.7796 29.808 14.8526C29.7106 14.9254 29.589 14.9742 29.437 14.9923C29.364 15.0046 29.2789 15.0105 29.1817 15.0105H28.4581V13.9952H28.4641ZM29.9965 16.7072C29.887 16.8104 29.7106 16.8713 29.4674 16.8835C29.3945 16.8895 29.3033 16.8955 29.1817 16.8895H28.4581V15.7402H28.8289C28.9446 15.7402 29.0539 15.7402 29.1573 15.7342C29.2606 15.7283 29.3519 15.7283 29.4249 15.7342C29.662 15.7464 29.8383 15.8011 29.9661 15.8983C30.0937 15.9956 30.1607 16.1295 30.1607 16.3058C30.1667 16.4699 30.1119 16.6038 29.9965 16.7072ZM23.3564 15.2903C23.2713 15.0593 23.1497 14.8586 22.9916 14.7005C22.8396 14.5364 22.6571 14.4147 22.4504 14.3295C22.2442 14.2441 22.0229 14.2007 21.7997 14.2019C21.5201 14.2019 21.2708 14.2505 21.0579 14.3356C20.8391 14.4269 20.6566 14.5545 20.5107 14.7126C20.3647 14.8707 20.2552 15.0532 20.1762 15.2599C20.1032 15.4666 20.0667 15.6916 20.0667 15.9287C20.0667 16.1902 20.1154 16.4274 20.2066 16.6463C20.2956 16.8533 20.4235 17.0412 20.5836 17.1997C20.7417 17.3528 20.9275 17.4745 21.1309 17.5585C21.3376 17.6374 21.5565 17.6801 21.7876 17.6801C22.0004 17.6801 22.1889 17.6618 22.347 17.6253C22.4924 17.5982 22.6349 17.5574 22.7726 17.5037C22.8894 17.4508 23.0014 17.3878 23.1071 17.3152C23.2045 17.2484 23.2956 17.1813 23.3868 17.1145L22.9916 16.5612C22.9369 16.6038 22.8821 16.6464 22.8152 16.6949C22.7422 16.7435 22.651 16.7861 22.5538 16.8288C22.4565 16.8651 22.347 16.8956 22.2193 16.92C22.0977 16.9381 21.9578 16.9504 21.8058 16.9443C21.7201 16.9372 21.6348 16.925 21.5505 16.9078C21.4604 16.8839 21.3744 16.847 21.295 16.7983C21.2151 16.7417 21.1417 16.6765 21.0762 16.6038C21.0093 16.5247 20.9607 16.4273 20.9302 16.3118L20.9242 16.2814H23.4598L23.4659 16.087C23.4781 15.7829 23.4416 15.5214 23.3564 15.2903ZM20.8998 15.6126L20.9059 15.5883C20.918 15.491 20.9484 15.4423 20.9789 15.3754L20.9972 15.3389C21.0491 15.2518 21.1172 15.1754 21.1978 15.1139C21.2772 15.0534 21.3683 15.01 21.4654 14.9863C21.5687 14.9558 21.6721 14.9375 21.7755 14.9375C22.0187 14.9437 22.2193 15.0105 22.3653 15.1444C22.4383 15.2052 22.499 15.266 22.5476 15.3329C22.5964 15.3998 22.6268 15.4788 22.6389 15.5821L22.645 15.6126H20.8998ZM26.3542 14.5423L26.3056 14.4999C26.2022 14.4086 26.0683 14.3356 25.9163 14.287C25.7703 14.2322 25.5941 14.2017 25.3934 14.2017C25.1684 14.2017 24.9555 14.2444 24.7611 14.3296C24.5688 14.4083 24.3964 14.5288 24.2564 14.6822C24.1104 14.8342 24.0009 15.0228 23.9158 15.2417C23.8368 15.4545 23.7941 15.6977 23.7941 15.9652C23.7941 16.2025 23.8368 16.4274 23.9158 16.6342C24.0009 16.8409 24.1104 17.0171 24.2564 17.1754C24.4017 17.3275 24.5725 17.453 24.7611 17.5463C24.9555 17.6313 25.1623 17.6739 25.3934 17.6739C25.5941 17.6739 25.7703 17.6496 25.9163 17.5948C26.0683 17.5402 26.2022 17.4611 26.3056 17.3638L26.3542 17.3152V17.6678H27.1386V14.2991H26.3542V14.5423ZM26.2812 16.3666C26.2326 16.4822 26.1657 16.5855 26.0866 16.6645C26.0076 16.7437 25.9163 16.7983 25.813 16.8409C25.7094 16.8772 25.6005 16.8957 25.4908 16.8956C25.2414 16.8956 25.0347 16.8104 24.8644 16.6463C24.6941 16.4699 24.6151 16.239 24.6151 15.9531C24.6151 15.6734 24.7002 15.4423 24.8644 15.2599C25.0347 15.0774 25.2414 14.9862 25.4908 14.9862C25.6062 14.9862 25.7157 15.0105 25.813 15.0532C25.9225 15.0957 26.0136 15.1564 26.0866 15.2417C26.1657 15.3206 26.2326 15.4242 26.2812 15.5518C26.3298 15.6734 26.3542 15.8071 26.3542 15.9652C26.3542 16.1112 26.3298 16.2449 26.2812 16.3666ZM33.7058 14.5423L33.6571 14.4999C33.5538 14.4086 33.42 14.3356 33.2679 14.287C33.1221 14.2322 32.9457 14.2017 32.7451 14.2017C32.5201 14.2017 32.3073 14.2444 32.1127 14.3296C31.9204 14.4083 31.748 14.5288 31.608 14.6822C31.462 14.8342 31.3526 15.0228 31.2675 15.2417C31.1884 15.4545 31.1459 15.6977 31.1459 15.9652C31.1459 16.2025 31.1884 16.4274 31.2675 16.6342C31.3526 16.8409 31.462 17.0171 31.608 17.1754C31.7533 17.3275 31.9241 17.453 32.1127 17.5463C32.3073 17.6313 32.514 17.6739 32.7451 17.6739C32.9457 17.6739 33.1221 17.6496 33.2679 17.5948C33.42 17.5402 33.5538 17.4611 33.6571 17.3638L33.7058 17.3152V17.6678H34.4902V14.3174H33.7058V14.5423ZM33.6328 16.3666C33.5841 16.4822 33.5173 16.5855 33.4383 16.6645C33.3592 16.7437 33.2679 16.7983 33.1646 16.8409C33.061 16.8772 32.9521 16.8958 32.8423 16.8956C32.593 16.8956 32.3863 16.8104 32.216 16.6463C32.0458 16.4699 31.9667 16.239 31.9667 15.9531C31.9667 15.6734 32.0518 15.4423 32.216 15.2599C32.3863 15.0774 32.593 14.9862 32.8423 14.9862C32.9578 14.9862 33.0612 15.0105 33.1646 15.0532C33.274 15.0957 33.3653 15.1564 33.4383 15.2417C33.5173 15.3206 33.5841 15.4242 33.6328 15.5518C33.6815 15.6734 33.7058 15.8071 33.7058 15.9652C33.7058 16.1112 33.6815 16.2449 33.6328 16.3666ZM40.2182 15.7709L41.6472 14.2082H40.6134L39.4337 15.4912V13.1805H38.6433V17.6801H39.4337V16.6587L39.6952 16.3667L40.7167 17.6801H41.6958L40.2182 15.7709ZM37.9379 14.9863C37.8649 14.7796 37.7252 14.5972 37.5244 14.4453C37.3238 14.2931 37.0683 14.2141 36.7644 14.2141C36.6062 14.2141 36.442 14.2384 36.2779 14.2871C36.1342 14.3302 36 14.4004 35.8827 14.4939V14.3174H35.086V17.6801H35.8827V15.8802C35.8887 15.7586 35.9009 15.6431 35.9131 15.5337C35.9313 15.4182 35.9617 15.3208 36.0103 15.2357C36.0589 15.1506 36.1319 15.0837 36.2232 15.0289C36.3144 14.9742 36.4299 14.9437 36.5697 14.9377C36.7461 14.9317 36.886 14.9803 36.9955 15.0716C37.1048 15.1688 37.1778 15.2904 37.2143 15.4485C37.2326 15.5215 37.2447 15.6188 37.2569 15.7404C37.2629 15.8559 37.2691 16.0261 37.2691 16.2512V17.6801H38.0535V16.0568C38.0545 15.8661 38.0484 15.6754 38.0352 15.4852C38.024 15.3155 37.9912 15.1479 37.9379 14.9865V14.9863Z" fill="#EA5F00"/>
</svg>
