<svg width="28" height="20" viewBox="0 0 28 20" fill="none" xmlns="http://www.w3.org/2000/svg">
<path fill-rule="evenodd" clip-rule="evenodd" d="M6.23237 7C4.45167 7 3.00806 8.44361 3.00806 10.2207C3.00694 10.9001 3.22183 11.5622 3.62167 12.1114C3.76038 12.0452 3.90386 11.9894 4.05089 11.9446C3.67489 11.4729 3.45142 10.8734 3.45142 10.2243C3.45142 8.69553 4.69643 7.45052 6.22521 7.45052C7.75399 7.45052 8.999 8.69544 8.999 10.2242C8.999 11.2033 8.48827 12.0687 7.71498 12.5617C7.7895 12.5617 7.86402 12.5617 7.94203 12.5582C8.19386 12.544 8.43155 12.4305 8.63373 12.3383C9.14446 11.7671 9.45658 11.0506 9.45658 10.2206C9.45658 8.4437 8.01297 7 6.23237 7Z" fill="#EA5F00"/>
<path fill-rule="evenodd" clip-rule="evenodd" d="M8.27539 13.4275C8.0945 13.4878 7.91719 13.5232 7.74695 13.5268C7.02689 13.5551 6.50901 13.3388 6.01242 13.126C5.56897 12.938 5.15396 12.7607 4.64324 12.789C4.16078 12.828 3.82388 13.0976 3.80965 13.1082C3.71035 13.1863 3.69622 13.3317 3.77423 13.4311C3.85224 13.5304 4.00119 13.5481 4.10057 13.4701C4.10406 13.4701 4.34525 13.2785 4.67866 13.2537C5.06889 13.236 5.42717 13.3813 5.83502 13.5587C6.29967 13.7573 6.81756 13.9773 7.50926 13.9985C7.59442 14.0021 7.6795 13.9985 7.76824 13.995C7.98464 13.9879 8.20803 13.9453 8.4315 13.8708C8.48929 13.8504 8.53681 13.8081 8.56397 13.7532C8.59113 13.6982 8.59579 13.6348 8.57696 13.5764C8.5308 13.4488 8.39607 13.3849 8.27539 13.4275Z" fill="#2673DD"/>
<path fill-rule="evenodd" clip-rule="evenodd" d="M9.01672 12.3878C8.79683 12.5403 8.35347 12.7992 7.84623 12.817C7.20069 12.8454 6.77853 12.6573 6.3281 12.4658C5.85629 12.2601 5.36686 12.0473 4.63257 12.0792C3.95152 12.104 3.37342 12.4943 3.08957 12.7212C3.06491 12.7409 3.04441 12.7652 3.02926 12.7929C3.0141 12.8205 3.0046 12.8509 3.0013 12.8823C2.99801 12.9137 3.00098 12.9454 3.01005 12.9756C3.01912 13.0058 3.03411 13.0339 3.05414 13.0582C3.0738 13.0829 3.09816 13.1034 3.12582 13.1185C3.15347 13.1337 3.18386 13.1432 3.21522 13.1465C3.24659 13.1498 3.27829 13.1468 3.30849 13.1377C3.33869 13.1287 3.36678 13.1137 3.39114 13.0936C3.62874 12.9021 4.10753 12.5758 4.65028 12.5545C5.27811 12.5297 5.69312 12.7106 6.13299 12.9021C6.56579 13.0901 7.00907 13.2852 7.64763 13.2958C7.71857 13.2958 7.78951 13.2958 7.86403 13.2923C8.49177 13.2675 9.02388 12.9589 9.28984 12.7779C9.39979 12.7035 9.42466 12.5545 9.35014 12.4446C9.27571 12.3381 9.12318 12.3098 9.01681 12.3879L9.01672 12.3878Z" fill="#2673DD"/>
<path fill-rule="evenodd" clip-rule="evenodd" d="M6.41318 12.2285L6.42025 12.232C6.70053 12.3455 6.97007 12.4555 7.28577 12.5158C8.16185 12.115 8.77197 11.2317 8.77197 10.2066C8.77546 8.80909 7.63341 7.67053 6.23587 7.67053C4.83825 7.67053 3.69254 8.80909 3.69254 10.2066C3.69174 10.8203 3.91502 11.4131 4.32045 11.8738C4.39846 11.8596 4.47647 11.8525 4.55806 11.8454C5.36677 11.7993 5.92366 12.0263 6.41318 12.2285ZM6.59407 10.5188C6.54804 10.4727 6.49391 10.4354 6.43439 10.4089C6.37069 10.3769 6.29966 10.3521 6.22523 10.3272C6.15281 10.304 6.08173 10.2767 6.01232 10.2456C5.86337 10.1889 5.7392 10.1037 5.6364 9.98316C5.53344 9.86614 5.48737 9.71719 5.48737 9.5363C5.49094 9.4192 5.51581 9.31641 5.55831 9.22767C5.60447 9.13901 5.66476 9.06449 5.74277 9.00778C5.82087 8.95106 5.90595 8.90481 6.00176 8.87654C6.10084 8.84778 6.20355 8.83343 6.30673 8.83396H6.31388C6.47706 8.83745 6.62243 8.86938 6.74302 8.92619C6.86307 8.98612 6.97711 9.05739 7.08359 9.13901L6.83176 9.50079C6.76082 9.44756 6.68273 9.40498 6.60472 9.36955C6.52313 9.33404 6.42383 9.31283 6.30681 9.30568C6.21807 9.29861 6.13649 9.31632 6.06912 9.35891C5.99818 9.39791 5.96267 9.45821 5.96267 9.53622C5.96267 9.58238 5.97331 9.62496 5.99818 9.66039C6.02305 9.6959 6.05848 9.72784 6.10106 9.75262C6.14364 9.78098 6.18971 9.79878 6.23579 9.82007C6.28195 9.83778 6.3316 9.8555 6.37418 9.8733C6.46641 9.90515 6.55864 9.94415 6.65079 9.99022C6.74012 10.0354 6.82353 10.0914 6.89913 10.157C6.97365 10.2208 7.03037 10.2989 7.07644 10.3875C7.11902 10.4763 7.14031 10.5791 7.13682 10.6997C7.13324 10.8167 7.10838 10.9231 7.06588 11.0119C7.01972 11.1041 6.95593 11.1785 6.87784 11.2424C6.79625 11.3063 6.70402 11.3523 6.59765 11.3843C6.49119 11.4162 6.37418 11.4304 6.25001 11.4269C6.133 11.4234 6.02663 11.4091 5.93082 11.3771C5.83501 11.3453 5.74635 11.3098 5.66825 11.2672C5.59814 11.2297 5.53166 11.1858 5.46965 11.136C5.41293 11.0969 5.37393 11.0615 5.34906 11.0331L5.60805 10.6678C5.69629 10.7519 5.79825 10.8202 5.90953 10.87C6.02654 10.9267 6.14713 10.955 6.2713 10.955C6.37776 10.9586 6.46641 10.9338 6.54442 10.8877C6.62243 10.8416 6.65786 10.7707 6.66152 10.6819C6.66152 10.6146 6.64023 10.5613 6.59407 10.5188V10.5188ZM11.9324 10.1957C11.8579 10.1284 11.7763 10.0751 11.6841 10.0255C11.5919 9.9794 11.4997 9.93682 11.404 9.90488C11.3577 9.88717 11.3116 9.86937 11.262 9.85166C11.2133 9.83498 11.1668 9.81235 11.1237 9.78429C11.0811 9.75942 11.0492 9.72757 11.0207 9.69206C10.9952 9.65568 10.9816 9.61231 10.9818 9.56789C10.9853 9.48988 11.0208 9.42959 11.0883 9.39058C11.1591 9.35158 11.2372 9.33386 11.3294 9.34084C11.4465 9.348 11.5492 9.36929 11.6309 9.40472C11.7125 9.44381 11.7905 9.4863 11.8615 9.53953L12.1169 9.17776C12.0104 9.09259 11.8934 9.02165 11.7728 8.96135C11.6522 8.90106 11.5067 8.8727 11.3436 8.86912H11.3365C11.2301 8.86563 11.1272 8.87977 11.0279 8.9117C10.9286 8.94364 10.8434 8.98622 10.7654 9.04294C10.6874 9.09966 10.6271 9.17418 10.5809 9.26283C10.5349 9.35158 10.51 9.45794 10.5065 9.57505C10.5029 9.75593 10.5526 9.90488 10.6555 10.0219C10.7571 10.1391 10.8863 10.2293 11.0314 10.2844C11.0988 10.3128 11.1698 10.3411 11.2479 10.3625C11.3223 10.3873 11.3932 10.4157 11.4571 10.4475C11.5209 10.4795 11.5741 10.515 11.6168 10.5611C11.6593 10.6072 11.6841 10.6604 11.6805 10.7277C11.677 10.8165 11.638 10.8874 11.5636 10.9335C11.489 10.9797 11.3968 11.0044 11.2904 11.0009C11.1642 10.9972 11.0399 10.9682 10.925 10.9158C10.808 10.8591 10.7051 10.7916 10.6199 10.7136L10.3575 11.079C10.3823 11.1038 10.4249 11.1428 10.4781 11.1889C10.5401 11.2387 10.6066 11.2826 10.6767 11.3201C10.7548 11.3627 10.8434 11.3982 10.9392 11.4301C11.0385 11.462 11.145 11.4762 11.2621 11.4798C11.3862 11.4833 11.5032 11.4692 11.6096 11.4372C11.7161 11.4053 11.8118 11.3591 11.8934 11.2954C11.974 11.2327 12.0395 11.1527 12.0849 11.0612C12.131 10.969 12.1559 10.8626 12.1594 10.7455C12.1629 10.6249 12.1416 10.5185 12.0956 10.4298C12.0636 10.3376 12.0069 10.2596 11.9324 10.1957ZM18.3632 10.1003C18.3845 10.079 18.4094 10.0505 18.4307 10.0257C18.4554 9.99738 18.4767 9.96553 18.4944 9.92286C18.5157 9.88036 18.53 9.8342 18.5442 9.77749C18.5548 9.72077 18.5619 9.65332 18.5619 9.57173C18.5618 9.49293 18.5474 9.41481 18.5193 9.34119C18.4917 9.26703 18.4509 9.19851 18.3987 9.13901C18.3455 9.07872 18.2852 9.02549 18.2107 8.98291C18.1334 8.93841 18.0476 8.91062 17.9588 8.90132C17.8986 8.89425 17.8312 8.88718 17.7602 8.88718C17.6857 8.88361 17.6113 8.88361 17.5261 8.88361L16.838 8.8871V11.4836H17.7886C17.8773 11.4836 17.9447 11.4836 18.0014 11.4801C18.0972 11.4694 18.1859 11.4481 18.2711 11.4126C18.3526 11.3772 18.4307 11.3276 18.491 11.2637C18.5548 11.1998 18.6045 11.1218 18.6435 11.0366C18.6813 10.9419 18.7005 10.8407 18.7002 10.7387C18.7002 10.5649 18.6648 10.4266 18.5973 10.3237C18.53 10.2173 18.4519 10.1428 18.3632 10.1003ZM17.2707 9.33055H17.4942C17.5687 9.33055 17.6361 9.33055 17.6929 9.33404C17.7496 9.33761 17.8028 9.34119 17.8418 9.34468C17.9305 9.35533 18.0014 9.38377 18.0547 9.42985C18.1114 9.47243 18.1397 9.5363 18.1362 9.61431C18.1397 9.71361 18.1079 9.78813 18.0547 9.83071C17.9979 9.87321 17.9269 9.90166 17.8383 9.91221C17.7957 9.91937 17.746 9.92286 17.6893 9.92286H17.2672V9.33055H17.2707ZM18.1646 10.9126C18.1007 10.9728 17.9979 11.0083 17.856 11.0154C17.8135 11.0189 17.7602 11.0224 17.6893 11.0189H17.2672V10.3485H17.4835C17.551 10.3485 17.6148 10.3485 17.6751 10.345C17.7354 10.3415 17.7886 10.3415 17.8312 10.345C17.9695 10.3521 18.0724 10.384 18.1469 10.4407C18.2213 10.4975 18.2604 10.5756 18.2604 10.6784C18.2639 10.7742 18.232 10.8523 18.1646 10.9126ZM14.2913 10.086C14.2416 9.95131 14.1707 9.8342 14.0784 9.74197C13.9898 9.64625 13.8833 9.57531 13.7627 9.52557C13.6424 9.47575 13.5134 9.45045 13.3832 9.45114C13.2201 9.45114 13.0746 9.4795 12.9504 9.52915C12.8228 9.58238 12.7163 9.65681 12.6313 9.74904C12.5461 9.84127 12.4822 9.94773 12.4361 10.0683C12.3936 10.1889 12.3723 10.3201 12.3723 10.4585C12.3723 10.611 12.4006 10.7494 12.4539 10.877C12.5057 10.9978 12.5804 11.1074 12.6737 11.1999C12.766 11.2892 12.8744 11.3602 12.993 11.4091C13.1136 11.4552 13.2413 11.4801 13.3761 11.4801C13.5003 11.4801 13.6102 11.4694 13.7024 11.4481C13.7872 11.4323 13.8703 11.4085 13.9507 11.3772C14.0188 11.3464 14.0841 11.3096 14.1458 11.2673C14.2026 11.2283 14.2558 11.1892 14.309 11.1502L14.0784 10.8274C14.0465 10.8523 14.0146 10.8771 13.9756 10.9054C13.933 10.9338 13.8798 10.9586 13.823 10.9835C13.7663 11.0047 13.7024 11.0225 13.6279 11.0367C13.557 11.0473 13.4754 11.0544 13.3867 11.0509C13.3367 11.0467 13.287 11.0396 13.2378 11.0296C13.1853 11.0157 13.135 10.9941 13.0888 10.9657C13.0421 10.9327 12.9993 10.8947 12.9611 10.8523C12.9221 10.8061 12.8937 10.7493 12.8759 10.6819L12.8724 10.6642H14.3516L14.3551 10.5508C14.3622 10.3734 14.3409 10.2208 14.2913 10.086ZM12.8582 10.2741L12.8618 10.2599C12.8689 10.2031 12.8866 10.1747 12.9044 10.1357L12.915 10.1144C12.9453 10.0636 12.985 10.019 13.032 9.98316C13.0784 9.94788 13.1315 9.92254 13.1881 9.90872C13.2484 9.89092 13.3087 9.88028 13.369 9.88028C13.5109 9.88386 13.6279 9.92286 13.7131 10.001C13.7557 10.0364 13.7911 10.0719 13.8195 10.1109C13.8479 10.1499 13.8656 10.196 13.8727 10.2563L13.8763 10.2741H12.8582ZM16.0399 9.64974L16.0116 9.62496C15.9513 9.57173 15.8732 9.52915 15.7845 9.50079C15.6994 9.46885 15.5966 9.45105 15.4795 9.45105C15.3482 9.45105 15.2241 9.47592 15.1106 9.52566C14.9985 9.57157 14.8979 9.64182 14.8162 9.73133C14.7311 9.81998 14.6672 9.93002 14.6175 10.0577C14.5715 10.1818 14.5466 10.3237 14.5466 10.4797C14.5466 10.6181 14.5715 10.7494 14.6175 10.87C14.6672 10.9906 14.7311 11.0934 14.8162 11.1857C14.901 11.2744 15.0006 11.3476 15.1106 11.4021C15.2241 11.4516 15.3447 11.4765 15.4795 11.4765C15.5966 11.4765 15.6994 11.4623 15.7845 11.4303C15.8732 11.3985 15.9513 11.3523 16.0116 11.2956L16.0399 11.2673V11.4729H16.4975V9.50786H16.0399V9.64974ZM15.9974 10.7139C15.969 10.7813 15.93 10.8416 15.8838 10.8877C15.8378 10.9338 15.7845 10.9657 15.7242 10.9906C15.6638 11.0118 15.6003 11.0226 15.5363 11.0225C15.3908 11.0225 15.2702 10.9728 15.1709 10.877C15.0715 10.7742 15.0255 10.6394 15.0255 10.4727C15.0255 10.3095 15.0751 10.1747 15.1709 10.0683C15.2702 9.96186 15.3908 9.90864 15.5363 9.90864C15.6036 9.90864 15.6675 9.92286 15.7242 9.94773C15.7881 9.97251 15.8412 10.0079 15.8838 10.0577C15.93 10.1037 15.969 10.1641 15.9974 10.2386C16.0257 10.3095 16.0399 10.3875 16.0399 10.4797C16.0399 10.5649 16.0257 10.6429 15.9974 10.7139ZM20.3284 9.64974L20.3 9.62496C20.2397 9.57173 20.1617 9.52915 20.073 9.50079C19.9879 9.46885 19.885 9.45105 19.768 9.45105C19.6368 9.45105 19.5126 9.47592 19.3991 9.52566C19.2869 9.57157 19.1863 9.64182 19.1046 9.73133C19.0195 9.81998 18.9557 9.93002 18.906 10.0577C18.8599 10.1818 18.8351 10.3237 18.8351 10.4797C18.8351 10.6181 18.8599 10.7494 18.906 10.87C18.9557 10.9906 19.0195 11.0934 19.1046 11.1857C19.1894 11.2744 19.2891 11.3476 19.3991 11.4021C19.5126 11.4516 19.6332 11.4765 19.768 11.4765C19.885 11.4765 19.9879 11.4623 20.073 11.4303C20.1617 11.3985 20.2397 11.3523 20.3 11.2956L20.3284 11.2673V11.4729H20.7859V9.5185H20.3284V9.64974ZM20.2858 10.7139C20.2574 10.7813 20.2184 10.8416 20.1723 10.8877C20.1262 10.9338 20.073 10.9657 20.0127 10.9906C19.9523 11.0118 19.8887 11.0226 19.8247 11.0225C19.6792 11.0225 19.5587 10.9728 19.4594 10.877C19.3601 10.7742 19.3139 10.6394 19.3139 10.4727C19.3139 10.3095 19.3635 10.1747 19.4594 10.0683C19.5587 9.96186 19.6792 9.90864 19.8247 9.90864C19.8921 9.90864 19.9524 9.92286 20.0127 9.94773C20.0765 9.97251 20.1298 10.0079 20.1723 10.0577C20.2184 10.1037 20.2574 10.1641 20.2858 10.2386C20.3142 10.3095 20.3284 10.3875 20.3284 10.4797C20.3284 10.5649 20.3142 10.6429 20.2858 10.7139ZM24.1273 10.3664L24.9609 9.4548H24.3578L23.6697 10.2032V8.85533H23.2086V11.4801H23.6697V10.8843L23.8222 10.7139L24.4181 11.4801H24.9892L24.1273 10.3664ZM22.7971 9.90872C22.7545 9.78813 22.673 9.68176 22.5559 9.59311C22.4389 9.50437 22.2899 9.45829 22.1125 9.45829C22.0203 9.45829 21.9245 9.47243 21.8288 9.50088C21.7449 9.52598 21.6667 9.56691 21.5982 9.62147V9.5185H21.1335V11.4801H21.5982V10.4302C21.6017 10.3592 21.6089 10.2919 21.616 10.228C21.6266 10.1606 21.6443 10.1038 21.6727 10.0542C21.701 10.0045 21.7436 9.96553 21.7968 9.93359C21.8501 9.90166 21.9174 9.88386 21.999 9.88036C22.1019 9.87687 22.1835 9.90523 22.2474 9.95846C22.3111 10.0152 22.3537 10.0861 22.375 10.1784C22.3857 10.2209 22.3927 10.2777 22.3999 10.3486C22.4034 10.416 22.407 10.5153 22.407 10.6466V11.4801H22.8645V10.5331C22.8651 10.4219 22.8616 10.3107 22.8539 10.1997C22.8473 10.1008 22.8282 10.003 22.7971 9.90881V9.90872Z" fill="#EA5F00"/>
</svg>
