<svg width="34" height="24" viewBox="0 0 34 24" fill="none" xmlns="http://www.w3.org/2000/svg">
<path fill-rule="evenodd" clip-rule="evenodd" d="M7.15589 8C4.86642 8 3.01035 9.85607 3.01035 12.1409C3.00891 13.0144 3.28519 13.8656 3.79927 14.5718C3.97762 14.4866 4.16209 14.415 4.35113 14.3574C3.86771 13.7509 3.58039 12.9801 3.58039 12.1455C3.58039 10.18 5.18112 8.57924 7.14669 8.57924C9.11226 8.57924 10.713 10.1799 10.713 12.1454C10.713 13.4042 10.0563 14.5169 9.06211 15.1508C9.15792 15.1508 9.25373 15.1508 9.35403 15.1463C9.67781 15.128 9.98341 14.982 10.2434 14.8636C10.9 14.1292 11.3013 13.208 11.3013 12.1408C11.3013 9.85618 9.44524 8 7.15589 8Z" fill="#EA5F00"/>
<path fill-rule="evenodd" clip-rule="evenodd" d="M9.78262 16.264C9.55005 16.3415 9.32208 16.387 9.1032 16.3916C8.17741 16.4281 7.51156 16.15 6.87309 15.8763C6.30294 15.6346 5.76936 15.4066 5.11271 15.4431C4.49241 15.4932 4.05925 15.8399 4.04096 15.8535C3.91329 15.9539 3.89511 16.1408 3.99541 16.2686C4.09571 16.3962 4.28722 16.419 4.415 16.3187C4.41949 16.3187 4.72958 16.0725 5.15826 16.0405C5.65998 16.0177 6.12063 16.2046 6.645 16.4327C7.24242 16.688 7.90826 16.9709 8.79759 16.9981C8.90709 17.0027 9.01648 16.9981 9.13057 16.9936C9.40881 16.9846 9.69601 16.9297 9.98333 16.834C10.0576 16.8076 10.1187 16.7534 10.1537 16.6827C10.1886 16.612 10.1946 16.5305 10.1704 16.4555C10.111 16.2913 9.93778 16.2092 9.78262 16.264Z" fill="#2673DD"/>
<path fill-rule="evenodd" clip-rule="evenodd" d="M10.7358 14.9272C10.4531 15.1233 9.88303 15.4562 9.23087 15.479C8.40089 15.5155 7.85811 15.2737 7.27898 15.0275C6.67237 14.7631 6.0431 14.4894 5.09902 14.5305C4.22338 14.5623 3.48012 15.0641 3.11516 15.3559C3.08346 15.3811 3.0571 15.4125 3.03761 15.448C3.01813 15.4836 3.00591 15.5226 3.00168 15.563C2.99744 15.6033 3.00126 15.644 3.01292 15.6829C3.02459 15.7217 3.04386 15.7578 3.06961 15.7891C3.09488 15.8208 3.12621 15.8472 3.16176 15.8667C3.19732 15.8862 3.2364 15.8984 3.27672 15.9026C3.31704 15.9069 3.3578 15.903 3.39663 15.8914C3.43546 15.8797 3.47158 15.8604 3.50289 15.8347C3.80839 15.5884 4.42397 15.169 5.12179 15.1416C5.929 15.1096 6.46258 15.3422 7.02813 15.5884C7.58459 15.8302 8.15452 16.0809 8.97552 16.0946C9.06673 16.0946 9.15794 16.0946 9.25375 16.0901C10.0608 16.0582 10.745 15.6615 11.0869 15.4288C11.2283 15.3331 11.2603 15.1416 11.1645 15.0002C11.0688 14.8633 10.8727 14.8269 10.7359 14.9273L10.7358 14.9272Z" fill="#2673DD"/>
<path fill-rule="evenodd" clip-rule="evenodd" d="M7.38839 14.7223L7.39747 14.7268C7.75783 14.8728 8.10438 15.0141 8.51029 15.0916C9.63668 14.5763 10.4211 13.4408 10.4211 12.1228C10.4256 10.3259 8.95725 8.86206 7.16042 8.86206C5.36347 8.86206 3.89041 10.3259 3.89041 12.1228C3.88938 12.9117 4.17647 13.674 4.69773 14.2663C4.79803 14.248 4.89833 14.2389 5.00323 14.2298C6.043 14.1704 6.759 14.4624 7.38839 14.7223ZM7.62096 12.5242C7.56178 12.4648 7.49218 12.4169 7.41565 12.3828C7.33375 12.3416 7.24243 12.3098 7.14673 12.2778C7.05362 12.2479 6.96223 12.2129 6.87299 12.1729C6.68148 12.1 6.52183 11.9905 6.38967 11.8354C6.25729 11.685 6.19805 11.4935 6.19805 11.2609C6.20265 11.1103 6.23463 10.9782 6.28926 10.8641C6.34861 10.7501 6.42613 10.6543 6.52643 10.5814C6.62684 10.5084 6.73623 10.449 6.85941 10.4126C6.98681 10.3757 7.11886 10.3572 7.25152 10.3579H7.26072C7.47051 10.3624 7.65742 10.4034 7.81247 10.4765C7.96681 10.5535 8.11343 10.6452 8.25034 10.7501L7.92656 11.2152C7.83535 11.1468 7.73494 11.0921 7.63464 11.0465C7.52975 11.0009 7.40207 10.9736 7.25163 10.9644C7.13753 10.9553 7.03263 10.9781 6.94602 11.0328C6.85481 11.083 6.80915 11.1605 6.80915 11.2608C6.80915 11.3201 6.82284 11.3749 6.85481 11.4204C6.88679 11.4661 6.93233 11.5072 6.98708 11.539C7.04183 11.5755 7.10107 11.5984 7.16031 11.6258C7.21965 11.6485 7.28349 11.6713 7.33824 11.6942C7.45682 11.7351 7.57541 11.7853 7.69388 11.8445C7.80873 11.9026 7.91597 11.9746 8.01317 12.0589C8.10898 12.141 8.18191 12.2413 8.24114 12.3553C8.29589 12.4694 8.32327 12.6017 8.31878 12.7567C8.31418 12.9072 8.28221 13.0439 8.22757 13.158C8.16822 13.2766 8.08621 13.3723 7.9858 13.4544C7.8809 13.5366 7.76232 13.5958 7.62556 13.6369C7.48869 13.6779 7.33824 13.6962 7.17859 13.6916C7.02814 13.6871 6.89139 13.6688 6.7682 13.6277C6.64502 13.5867 6.53103 13.5411 6.43062 13.4863C6.34048 13.4381 6.255 13.3817 6.17528 13.3177C6.10235 13.2674 6.0522 13.2219 6.02023 13.1853L6.35321 12.7157C6.46666 12.8238 6.59775 12.9117 6.74083 12.9756C6.89127 13.0485 7.04632 13.085 7.20597 13.085C7.34284 13.0896 7.45682 13.0576 7.55712 12.9984C7.65742 12.9392 7.70297 12.8479 7.70768 12.7339C7.70768 12.6472 7.68031 12.5788 7.62096 12.5241V12.5242ZM14.4845 12.1087C14.3887 12.0221 14.2838 11.9537 14.1652 11.8898C14.0468 11.8306 13.9282 11.7759 13.8051 11.7348C13.7456 11.712 13.6864 11.6891 13.6226 11.6664C13.56 11.6449 13.5002 11.6158 13.4447 11.5798C13.39 11.5478 13.3489 11.5068 13.3124 11.4612C13.2796 11.4144 13.2621 11.3586 13.2623 11.3015C13.2668 11.2012 13.3125 11.1237 13.3992 11.0736C13.4903 11.0234 13.5907 11.0006 13.7092 11.0096C13.8597 11.0188 13.9919 11.0462 14.0969 11.0917C14.2018 11.142 14.3021 11.1966 14.3933 11.2651L14.7217 10.7999C14.5848 10.6904 14.4344 10.5992 14.2793 10.5217C14.1243 10.4442 13.9371 10.4077 13.7275 10.4031H13.7184C13.5815 10.3986 13.4492 10.4168 13.3216 10.4579C13.1939 10.4989 13.0844 10.5537 12.9841 10.6266C12.8838 10.6995 12.8063 10.7953 12.7469 10.9093C12.6877 11.0234 12.6557 11.1602 12.6512 11.3107C12.6466 11.5433 12.7105 11.7348 12.8427 11.8852C12.9735 12.036 13.1396 12.1519 13.3262 12.2227C13.4128 12.2593 13.504 12.2956 13.6044 12.3231C13.7001 12.355 13.7913 12.3916 13.8734 12.4325C13.9554 12.4736 14.0239 12.5192 14.0787 12.5785C14.1334 12.6378 14.1652 12.7061 14.1606 12.7928C14.1561 12.9068 14.106 12.9981 14.0103 13.0573C13.9145 13.1166 13.7959 13.1485 13.6591 13.144C13.4968 13.1392 13.337 13.102 13.1893 13.0345C13.0388 12.9616 12.9066 12.8749 12.7971 12.7746L12.4596 13.2443C12.4916 13.2763 12.5463 13.3264 12.6148 13.3857C12.6945 13.4497 12.78 13.5062 12.8701 13.5544C12.9704 13.6092 13.0844 13.6548 13.2076 13.6958C13.3352 13.7368 13.4721 13.7551 13.6227 13.7597C13.7822 13.7642 13.9327 13.746 14.0695 13.705C14.2064 13.6639 14.3295 13.6046 14.4344 13.5225C14.538 13.442 14.6222 13.3391 14.6806 13.2215C14.7399 13.103 14.7718 12.9661 14.7764 12.8156C14.7809 12.6606 14.7536 12.5237 14.6943 12.4097C14.6533 12.2911 14.5803 12.1909 14.4845 12.1087ZM22.7527 11.986C22.7801 11.9586 22.812 11.922 22.8394 11.8902C22.8713 11.8537 22.8987 11.8128 22.9214 11.7579C22.9488 11.7033 22.9671 11.6439 22.9854 11.571C22.9991 11.4981 23.0082 11.4114 23.0082 11.3065C23.0081 11.2051 22.9895 11.1047 22.9534 11.0101C22.918 10.9147 22.8654 10.8266 22.7984 10.7501C22.7299 10.6726 22.6524 10.6041 22.5566 10.5494C22.4572 10.4922 22.3469 10.4565 22.2328 10.4445C22.1553 10.4354 22.0687 10.4263 21.9775 10.4263C21.8817 10.4217 21.786 10.4217 21.6765 10.4217L20.7917 10.4262V13.7645H22.0139C22.1279 13.7645 22.2146 13.7645 22.2876 13.7601C22.4107 13.7464 22.5247 13.719 22.6342 13.6733C22.739 13.6278 22.8394 13.5639 22.9169 13.4818C22.9991 13.3997 23.0629 13.2994 23.1131 13.1899C23.1616 13.0681 23.1864 12.9381 23.186 12.8069C23.186 12.5834 23.1404 12.4056 23.0537 12.2733C22.9671 12.1364 22.8668 12.0407 22.7527 11.986ZM21.3481 10.9964H21.6354C21.7312 10.9964 21.8178 10.9964 21.8909 11.0009C21.9638 11.0055 22.0322 11.0101 22.0824 11.0145C22.1964 11.0282 22.2876 11.0648 22.356 11.124C22.4289 11.1788 22.4654 11.2609 22.4609 11.3612C22.4654 11.4889 22.4244 11.5847 22.356 11.6394C22.283 11.6941 22.1917 11.7306 22.0778 11.7442C22.023 11.7534 21.9592 11.7579 21.8863 11.7579H21.3436V10.9964H21.3481ZM22.4974 13.0304C22.4152 13.1078 22.283 13.1534 22.1005 13.1626C22.0459 13.1671 21.9775 13.1716 21.8863 13.1671H21.3436V12.3052H21.6217C21.7084 12.3052 21.7904 12.3052 21.868 12.3007C21.9455 12.2962 22.0139 12.2962 22.0687 12.3007C22.2465 12.3098 22.3788 12.3508 22.4746 12.4238C22.5703 12.4967 22.6205 12.5971 22.6205 12.7294C22.625 12.8524 22.584 12.9528 22.4974 13.0304ZM17.5174 11.9677C17.4535 11.7945 17.3623 11.6439 17.2437 11.5253C17.1297 11.4023 16.9929 11.3111 16.8378 11.2471C16.6831 11.1831 16.5172 11.1505 16.3498 11.1514C16.1401 11.1514 15.9531 11.1879 15.7934 11.2517C15.6293 11.3201 15.4924 11.4158 15.383 11.5344C15.2736 11.653 15.1914 11.7899 15.1322 11.9449C15.0774 12.1 15.0501 12.2687 15.0501 12.4465C15.0501 12.6426 15.0865 12.8206 15.155 12.9847C15.2217 13.1399 15.3177 13.2809 15.4377 13.3998C15.5563 13.5146 15.6956 13.6059 15.8482 13.6688C16.0032 13.7281 16.1674 13.7601 16.3407 13.7601C16.5004 13.7601 16.6417 13.7464 16.7603 13.719C16.8693 13.6986 16.9762 13.6681 17.0795 13.6278C17.1671 13.5881 17.251 13.5408 17.3303 13.4864C17.4034 13.4363 17.4717 13.386 17.5401 13.3359L17.2437 12.9209C17.2027 12.9528 17.1616 12.9848 17.1114 13.0212C17.0567 13.0576 16.9883 13.0896 16.9153 13.1216C16.8424 13.1488 16.7603 13.1717 16.6645 13.19C16.5733 13.2036 16.4684 13.2128 16.3544 13.2082C16.2901 13.2029 16.2261 13.1938 16.1629 13.1808C16.0953 13.1629 16.0308 13.1353 15.9713 13.0987C15.9113 13.0563 15.8563 13.0074 15.8071 12.9528C15.757 12.8935 15.7205 12.8205 15.6976 12.7339L15.6931 12.7111H17.5949L17.5995 12.5652C17.6086 12.3371 17.5812 12.141 17.5174 11.9677ZM15.6749 12.2095L15.6795 12.1912C15.6885 12.1183 15.7113 12.0817 15.7342 12.0315L15.7479 12.0042C15.7868 11.9388 15.8379 11.8816 15.8983 11.8354C15.9579 11.7901 16.0263 11.7575 16.099 11.7397C16.1766 11.7168 16.2541 11.7032 16.3316 11.7032C16.514 11.7078 16.6645 11.7579 16.774 11.8583C16.8287 11.9039 16.8743 11.9495 16.9107 11.9997C16.9473 12.0498 16.9701 12.1091 16.9792 12.1866L16.9838 12.2095H15.6749ZM19.7656 11.4068L19.7292 11.3749C19.6517 11.3065 19.5512 11.2517 19.4373 11.2152C19.3278 11.1742 19.1956 11.1513 19.045 11.1513C18.8763 11.1513 18.7167 11.1833 18.5708 11.2472C18.4266 11.3063 18.2973 11.3966 18.1923 11.5117C18.0828 11.6256 18.0007 11.7671 17.9368 11.9312C17.8776 12.0909 17.8456 12.2733 17.8456 12.4739C17.8456 12.6518 17.8776 12.8206 17.9368 12.9756C18.0007 13.1307 18.0828 13.2628 18.1923 13.3815C18.3013 13.4956 18.4294 13.5898 18.5708 13.6598C18.7167 13.7235 18.8717 13.7555 19.045 13.7555C19.1956 13.7555 19.3278 13.7372 19.4373 13.6961C19.5512 13.6552 19.6517 13.5958 19.7292 13.5229L19.7656 13.4864V13.7509H20.354V11.2243H19.7656V11.4068ZM19.7109 12.7749C19.6744 12.8616 19.6243 12.9392 19.5649 12.9984C19.5057 13.0577 19.4373 13.0987 19.3597 13.1307C19.2821 13.1579 19.2004 13.1718 19.1181 13.1717C18.9311 13.1717 18.776 13.1078 18.6483 12.9847C18.5206 12.8524 18.4613 12.6792 18.4613 12.4648C18.4613 12.255 18.5252 12.0817 18.6483 11.9449C18.776 11.8081 18.9311 11.7396 19.1181 11.7396C19.2047 11.7396 19.2868 11.7579 19.3597 11.7899C19.4419 11.8217 19.5102 11.8673 19.5649 11.9312C19.6243 11.9905 19.6744 12.0681 19.7109 12.1638C19.7474 12.255 19.7656 12.3553 19.7656 12.4739C19.7656 12.5834 19.7474 12.6837 19.7109 12.7749ZM25.2793 11.4068L25.2429 11.3749C25.1653 11.3065 25.065 11.2517 24.951 11.2152C24.8416 11.1742 24.7093 11.1513 24.5588 11.1513C24.3901 11.1513 24.2305 11.1833 24.0845 11.2472C23.9403 11.3063 23.811 11.3966 23.706 11.5117C23.5965 11.6256 23.5145 11.7671 23.4506 11.9312C23.3913 12.0909 23.3594 12.2733 23.3594 12.4739C23.3594 12.6518 23.3913 12.8206 23.4506 12.9756C23.5145 13.1307 23.5965 13.2628 23.706 13.3815C23.815 13.4956 23.9431 13.5897 24.0845 13.6598C24.2305 13.7235 24.3855 13.7555 24.5588 13.7555C24.7093 13.7555 24.8416 13.7372 24.951 13.6961C25.065 13.6552 25.1653 13.5958 25.2429 13.5229L25.2793 13.4864V13.7509H25.8677V11.238H25.2793V11.4068ZM25.2246 12.7749C25.1881 12.8616 25.138 12.9392 25.0787 12.9984C25.0194 13.0577 24.951 13.0987 24.8734 13.1307C24.7958 13.1579 24.7141 13.1718 24.6318 13.1717C24.4447 13.1717 24.2897 13.1078 24.162 12.9847C24.0344 12.8524 23.975 12.6792 23.975 12.4648C23.975 12.255 24.0388 12.0817 24.162 11.9449C24.2897 11.8081 24.4447 11.7396 24.6318 11.7396C24.7184 11.7396 24.7959 11.7579 24.8734 11.7899C24.9556 11.8217 25.024 11.8673 25.0787 11.9312C25.138 11.9905 25.1881 12.0681 25.2246 12.1638C25.2612 12.255 25.2793 12.3553 25.2793 12.4739C25.2793 12.5834 25.2612 12.6837 25.2246 12.7749ZM30.1636 12.3282L31.2354 11.1561H30.46L29.5753 12.1184V10.3854H28.9825V13.7601H29.5753V12.994L29.7714 12.775L30.5376 13.7601H31.2719L30.1636 12.3282ZM28.4534 11.7397C28.3987 11.5847 28.2939 11.4479 28.1433 11.3339C27.9929 11.2198 27.8013 11.1606 27.5733 11.1606C27.4547 11.1606 27.3315 11.1788 27.2084 11.2154C27.1006 11.2476 27 11.3003 26.912 11.3704V11.238H26.3145V13.7601H26.912V12.4102C26.9165 12.319 26.9257 12.2324 26.9348 12.1502C26.9485 12.0636 26.9713 11.9906 27.0077 11.9268C27.0442 11.8629 27.0989 11.8128 27.1674 11.7717C27.2358 11.7306 27.3224 11.7078 27.4273 11.7033C27.5596 11.6988 27.6645 11.7352 27.7466 11.8037C27.8286 11.8766 27.8834 11.9678 27.9107 12.0864C27.9244 12.1412 27.9335 12.2141 27.9427 12.3053C27.9472 12.3919 27.9518 12.5196 27.9518 12.6884V13.7601H28.5401V12.5426C28.5409 12.3996 28.5363 12.2566 28.5264 12.1139C28.518 11.9866 28.4934 11.8609 28.4534 11.7398V11.7397Z" fill="#EA5F00"/>
</svg>
