<svg width="58" height="40" viewBox="0 0 58 40" fill="none" xmlns="http://www.w3.org/2000/svg">
<path fill-rule="evenodd" clip-rule="evenodd" d="M11.9265 13C8.11072 13 5.01727 16.0935 5.01727 19.9016C5.01487 21.3573 5.47534 22.7761 6.33213 23.9529C6.62939 23.8111 6.93684 23.6916 7.25191 23.5956C6.44619 22.5848 5.96733 21.3002 5.96733 19.9092C5.96733 16.6333 8.63521 13.9654 11.9112 13.9654C15.1871 13.9654 17.855 16.6331 17.855 19.909C17.855 22.007 16.7606 23.8615 15.1035 24.9179C15.2632 24.9179 15.4229 24.9179 15.5901 24.9105C16.1297 24.88 16.639 24.6367 17.0723 24.4393C18.1667 23.2153 18.8355 21.68 18.8355 19.9014C18.8355 16.0936 15.7421 13 11.9265 13Z" fill="#EA5F00"/>
<path fill-rule="evenodd" clip-rule="evenodd" d="M16.3044 26.7731C15.9168 26.9024 15.5368 26.9783 15.172 26.9859C13.629 27.0467 12.5193 26.5832 11.4552 26.1271C10.5049 25.7242 9.61561 25.3442 8.5212 25.405C7.48737 25.4886 6.76542 26.0663 6.73494 26.089C6.52216 26.2563 6.49187 26.5678 6.65903 26.7808C6.82619 26.9936 7.14537 27.0316 7.35835 26.8644C7.36583 26.8644 7.88265 26.454 8.59711 26.4007C9.4333 26.3627 10.2011 26.6742 11.075 27.0544C12.0707 27.4799 13.1804 27.9513 14.6627 27.9968C14.8452 28.0044 15.0275 27.9968 15.2176 27.9893C15.6814 27.9741 16.16 27.8827 16.6389 27.7232C16.7627 27.6793 16.8646 27.5888 16.9228 27.471C16.981 27.3532 16.991 27.2174 16.9506 27.0923C16.8517 26.8188 16.563 26.6819 16.3044 26.7731Z" fill="#2673DD"/>
<path fill-rule="evenodd" clip-rule="evenodd" d="M17.893 24.5453C17.4218 24.8722 16.4717 25.427 15.3848 25.4651C14.0015 25.5259 13.0969 25.1229 12.1316 24.7125C11.1206 24.2718 10.0718 23.8157 8.49837 23.8842C7.03896 23.9373 5.8002 24.7735 5.19194 25.2598C5.1391 25.3019 5.09516 25.3541 5.06269 25.4134C5.03022 25.4727 5.00986 25.5378 5.00279 25.605C4.99573 25.6722 5.0021 25.7401 5.02154 25.8048C5.04098 25.8696 5.0731 25.9298 5.11602 25.9819C5.15814 26.0348 5.21035 26.0787 5.26961 26.1112C5.32887 26.1437 5.39399 26.164 5.46119 26.1711C5.5284 26.1782 5.59633 26.1718 5.66105 26.1523C5.72576 26.1329 5.78597 26.1008 5.83815 26.0579C6.34731 25.6474 7.37329 24.9483 8.53632 24.9027C9.88167 24.8494 10.771 25.237 11.7135 25.6474C12.641 26.0504 13.5909 26.4683 14.9592 26.4911C15.1112 26.4911 15.2632 26.4911 15.4229 26.4836C16.7681 26.4303 17.9083 25.7692 18.4782 25.3814C18.7138 25.2219 18.7671 24.9027 18.6074 24.6671C18.4479 24.439 18.1211 24.3782 17.8932 24.5455L17.893 24.5453Z" fill="#2673DD"/>
<path fill-rule="evenodd" clip-rule="evenodd" d="M12.314 24.2038L12.3291 24.2113C12.9297 24.4546 13.5073 24.6902 14.1838 24.8194C16.0611 23.9606 17.3685 22.0679 17.3685 19.8713C17.376 16.8765 14.9287 14.4368 11.934 14.4368C8.93909 14.4368 6.484 16.8765 6.484 19.8713C6.48228 21.1862 6.96075 22.4566 7.82953 23.4438C7.99669 23.4133 8.16386 23.3981 8.33869 23.383C10.0716 23.2841 11.265 23.7706 12.314 24.2038ZM12.7016 20.5403C12.6029 20.4414 12.4869 20.3615 12.3594 20.3047C12.2229 20.2361 12.0707 20.183 11.9112 20.1297C11.756 20.0798 11.6037 20.0215 11.455 19.9548C11.1358 19.8333 10.8697 19.6508 10.6494 19.3924C10.4288 19.1416 10.3301 18.8225 10.3301 18.4348C10.3377 18.1839 10.391 17.9636 10.4821 17.7735C10.581 17.5835 10.7102 17.4238 10.8774 17.3023C11.0447 17.1807 11.227 17.0816 11.4323 17.0211C11.6447 16.9594 11.8647 16.9287 12.0858 16.9298H12.1012C12.4508 16.9373 12.7623 17.0057 13.0208 17.1275C13.278 17.2559 13.5224 17.4086 13.7505 17.5835L13.2109 18.3587C13.0589 18.2447 12.8915 18.1534 12.7244 18.0775C12.5496 18.0014 12.3368 17.956 12.086 17.9406C11.8959 17.9255 11.721 17.9635 11.5767 18.0547C11.4247 18.1383 11.3486 18.2675 11.3486 18.4347C11.3486 18.5336 11.3714 18.6248 11.4247 18.7007C11.478 18.7768 11.5539 18.8453 11.6451 18.8984C11.7364 18.9591 11.8351 18.9973 11.9338 19.0429C12.0327 19.0809 12.1391 19.1188 12.2304 19.157C12.428 19.2252 12.6257 19.3088 12.8231 19.4075C13.0145 19.5043 13.1933 19.6243 13.3553 19.7649C13.5149 19.9017 13.6365 20.0689 13.7352 20.2589C13.8265 20.449 13.8721 20.6695 13.8646 20.9279C13.8569 21.1786 13.8037 21.4066 13.7126 21.5967C13.6137 21.7944 13.477 21.9539 13.3096 22.0907C13.1348 22.2276 12.9372 22.3263 12.7092 22.3948C12.4811 22.4632 12.2304 22.4937 11.9643 22.486C11.7135 22.4785 11.4856 22.4481 11.2803 22.3794C11.075 22.3112 10.885 22.2351 10.7177 22.1439C10.5674 22.0635 10.425 21.9694 10.2921 21.8628C10.1706 21.779 10.087 21.7031 10.0337 21.6422L10.5887 20.8595C10.7777 21.0396 10.9962 21.1862 11.2347 21.2927C11.4854 21.4142 11.7438 21.475 12.0099 21.475C12.238 21.4827 12.428 21.4294 12.5952 21.3307C12.7623 21.2319 12.8383 21.0799 12.8461 20.8898C12.8461 20.7454 12.8005 20.6313 12.7016 20.5401V20.5403ZM24.1408 19.8479C23.9812 19.7035 23.8063 19.5895 23.6087 19.4831C23.4112 19.3843 23.2136 19.2931 23.0085 19.2247C22.9094 19.1867 22.8106 19.1486 22.7042 19.1106C22.5999 19.0749 22.5004 19.0264 22.4079 18.9663C22.3166 18.913 22.2482 18.8447 22.1872 18.7686C22.1326 18.6907 22.1035 18.5977 22.1038 18.5025C22.1113 18.3354 22.1874 18.2062 22.332 18.1226C22.4838 18.039 22.6511 18.001 22.8486 18.016C23.0995 18.0313 23.3198 18.077 23.4948 18.1529C23.6696 18.2366 23.8368 18.3277 23.9888 18.4418L24.5361 17.6665C24.308 17.484 24.0573 17.332 23.7988 17.2028C23.5404 17.0736 23.2285 17.0128 22.8791 17.0052H22.8639C22.6358 16.9977 22.4154 17.028 22.2026 17.0964C21.9898 17.1649 21.8073 17.2561 21.6401 17.3776C21.473 17.4992 21.3438 17.6589 21.2448 17.8488C21.1461 18.039 21.0928 18.2669 21.0853 18.5179C21.0777 18.9055 21.1841 19.2247 21.4045 19.4754C21.6225 19.7266 21.8993 19.9199 22.2102 20.0379C22.3546 20.0988 22.5066 20.1594 22.674 20.2052C22.8335 20.2583 22.9855 20.3193 23.1223 20.3875C23.259 20.456 23.3731 20.5321 23.4645 20.6308C23.5556 20.7297 23.6087 20.8436 23.601 20.9879C23.5935 21.1781 23.51 21.3301 23.3505 21.4288C23.1908 21.5277 22.9931 21.5808 22.7652 21.5734C22.4946 21.5653 22.2284 21.5033 21.9821 21.3909C21.7314 21.2693 21.5109 21.1248 21.3284 20.9576L20.766 21.7405C20.8193 21.7938 20.9105 21.8774 21.0246 21.9761C21.1574 22.0828 21.2999 22.177 21.4501 22.2573C21.6173 22.3486 21.8073 22.4247 22.0126 22.4929C22.2254 22.5614 22.4535 22.5919 22.7044 22.5995C22.9703 22.607 23.2211 22.5767 23.4492 22.5083C23.6773 22.4398 23.8824 22.3409 24.0573 22.2042C24.23 22.0699 24.3703 21.8985 24.4677 21.7026C24.5664 21.5049 24.6197 21.2768 24.6274 21.0261C24.6349 20.7677 24.5892 20.5395 24.4905 20.3496C24.4221 20.1519 24.3005 19.9848 24.1408 19.8479ZM37.9211 19.6433C37.9668 19.5977 38.0201 19.5367 38.0657 19.4836C38.1188 19.4229 38.1644 19.3546 38.2024 19.2632C38.248 19.1721 38.2785 19.0732 38.3089 18.9517C38.3318 18.8301 38.3469 18.6856 38.3469 18.5108C38.3468 18.3419 38.3159 18.1745 38.2557 18.0168C38.1966 17.8578 38.109 17.711 37.9972 17.5835C37.8832 17.4543 37.754 17.3402 37.5943 17.249C37.4286 17.1537 37.2448 17.0941 37.0547 17.0742C36.9255 17.059 36.7811 17.0439 36.6291 17.0439C36.4694 17.0362 36.3099 17.0362 36.1274 17.0362L34.6529 17.0437V22.6076H36.6899C36.8798 22.6076 37.0244 22.6076 37.1459 22.6001C37.3512 22.5773 37.5412 22.5317 37.7237 22.4556C37.8983 22.3796 38.0657 22.2732 38.1949 22.1364C38.3318 21.9995 38.4382 21.8323 38.5217 21.6498C38.6027 21.4468 38.644 21.2301 38.6433 21.0115C38.6433 20.639 38.5674 20.3426 38.4228 20.1222C38.2785 19.8941 38.1113 19.7346 37.9211 19.6433ZM35.5801 17.9939H36.059C36.2187 17.9939 36.363 17.9939 36.4847 18.0014C36.6063 18.0091 36.7203 18.0168 36.8039 18.0242C36.9939 18.047 37.1459 18.108 37.26 18.2067C37.3815 18.298 37.4423 18.4348 37.4348 18.602C37.4423 18.8148 37.374 18.9745 37.26 19.0657C37.1382 19.1568 36.9862 19.2177 36.7962 19.2404C36.705 19.2557 36.5986 19.2632 36.4771 19.2632H35.5726V17.9939H35.5801ZM37.4956 21.3839C37.3587 21.513 37.1382 21.5891 36.8342 21.6044C36.7431 21.6119 36.6291 21.6194 36.4771 21.6119H35.5726V20.1753H36.0362C36.1807 20.1753 36.3174 20.1753 36.4466 20.1678C36.5758 20.1603 36.6899 20.1603 36.7811 20.1678C37.0775 20.183 37.2979 20.2514 37.4576 20.3729C37.6171 20.4945 37.7009 20.6618 37.7009 20.8823C37.7084 21.0874 37.6399 21.2547 37.4956 21.3839ZM29.1956 19.6128C29.0892 19.3241 28.9372 19.0732 28.7395 18.8756C28.5495 18.6704 28.3214 18.5184 28.063 18.4118C27.8052 18.3051 27.5287 18.2509 27.2496 18.2524C26.9002 18.2524 26.5885 18.3131 26.3224 18.4195C26.0488 18.5336 25.8207 18.6931 25.6384 18.8907C25.4559 19.0884 25.319 19.3165 25.2203 19.5749C25.129 19.8333 25.0834 20.1145 25.0834 20.4109C25.0834 20.7377 25.1442 21.0343 25.2583 21.3078C25.3695 21.5666 25.5294 21.8015 25.7295 21.9997C25.9272 22.191 26.1593 22.3431 26.4136 22.4481C26.672 22.5468 26.9456 22.6001 27.2345 22.6001C27.5006 22.6001 27.7362 22.5773 27.9338 22.5317C28.1155 22.4977 28.2936 22.4468 28.4658 22.3796C28.6118 22.3136 28.7517 22.2347 28.8839 22.144C29.0056 22.0605 29.1195 21.9767 29.2335 21.8931L28.7395 21.2015C28.6711 21.2547 28.6026 21.308 28.5191 21.3686C28.4278 21.4294 28.3137 21.4827 28.1922 21.536C28.0707 21.5814 27.9338 21.6195 27.7741 21.65C27.6221 21.6727 27.4473 21.688 27.2573 21.6803C27.1501 21.6715 27.0435 21.6563 26.9381 21.6347C26.8255 21.6049 26.718 21.5588 26.6187 21.4978C26.5188 21.4272 26.4271 21.3456 26.3452 21.2547C26.2616 21.1558 26.2008 21.0341 26.1627 20.8898L26.1552 20.8518H29.3248L29.3324 20.6087C29.3476 20.2286 29.302 19.9017 29.1956 19.6128ZM26.1247 20.0158L26.1324 19.9853C26.1475 19.8638 26.1855 19.8028 26.2236 19.7192L26.2465 19.6736C26.3113 19.5647 26.3965 19.4693 26.4972 19.3924C26.5966 19.3168 26.7104 19.2625 26.8317 19.2329C26.9609 19.1947 27.0901 19.1719 27.2193 19.1719C27.5234 19.1796 27.7741 19.2632 27.9566 19.4305C28.0479 19.5064 28.1238 19.5826 28.1845 19.6661C28.2455 19.7497 28.2835 19.8484 28.2986 19.9776L28.3063 20.0158H26.1247ZM32.9427 18.6779L32.8819 18.6248C32.7527 18.5108 32.5854 18.4195 32.3954 18.3587C32.2129 18.2903 31.9926 18.2522 31.7417 18.2522C31.4605 18.2522 31.1944 18.3055 30.9513 18.412C30.711 18.5104 30.4955 18.661 30.3205 18.8528C30.138 19.0427 30.0011 19.2785 29.8947 19.5521C29.796 19.8182 29.7427 20.1222 29.7427 20.4565C29.7427 20.7531 29.796 21.0343 29.8947 21.2927C30.0011 21.5511 30.138 21.7714 30.3205 21.9692C30.5021 22.1594 30.7156 22.3163 30.9513 22.4329C31.1944 22.5391 31.4528 22.5924 31.7417 22.5924C31.9926 22.5924 32.2129 22.5619 32.3954 22.4935C32.5854 22.4253 32.7527 22.3263 32.8819 22.2048L32.9427 22.144V22.5848H33.9233V18.3739H32.9427V18.6779ZM32.8515 20.9582C32.7907 21.1027 32.7071 21.2319 32.6082 21.3307C32.5095 21.4296 32.3954 21.4978 32.2662 21.5511C32.1368 21.5965 32.0006 21.6197 31.8634 21.6195C31.5517 21.6195 31.2933 21.513 31.0805 21.3078C30.8676 21.0874 30.7688 20.7987 30.7688 20.4414C30.7688 20.0917 30.8752 19.8028 31.0805 19.5749C31.2933 19.3468 31.5517 19.2327 31.8634 19.2327C32.0078 19.2327 32.1447 19.2632 32.2662 19.3165C32.4031 19.3696 32.5169 19.4455 32.6082 19.5521C32.7071 19.6508 32.7907 19.7802 32.8515 19.9397C32.9122 20.0917 32.9427 20.2589 32.9427 20.4565C32.9427 20.639 32.9122 20.8062 32.8515 20.9582ZM42.1322 18.6779L42.0714 18.6248C41.9422 18.5108 41.7751 18.4195 41.5849 18.3587C41.4026 18.2903 41.1821 18.2522 40.9314 18.2522C40.6502 18.2522 40.3841 18.3055 40.1408 18.412C39.9005 18.5104 39.685 18.661 39.5099 18.8528C39.3274 19.0427 39.1908 19.2785 39.0844 19.5521C38.9855 19.8182 38.9324 20.1222 38.9324 20.4565C38.9324 20.7531 38.9855 21.0343 39.0844 21.2927C39.1908 21.5511 39.3274 21.7714 39.5099 21.9692C39.6917 22.1593 39.9051 22.3162 40.1408 22.4329C40.3841 22.5391 40.6425 22.5924 40.9314 22.5924C41.1821 22.5924 41.4026 22.5619 41.5849 22.4935C41.7751 22.4253 41.9422 22.3263 42.0714 22.2048L42.1322 22.144V22.5848H43.1127V18.3967H42.1322V18.6779ZM42.041 20.9582C41.9802 21.1027 41.8966 21.2319 41.7979 21.3307C41.699 21.4296 41.5849 21.4978 41.4557 21.5511C41.3263 21.5966 41.1901 21.6197 41.0529 21.6195C40.7412 21.6195 40.4828 21.513 40.27 21.3078C40.0572 21.0874 39.9583 20.7987 39.9583 20.4414C39.9583 20.0917 40.0647 19.8028 40.27 19.5749C40.4828 19.3468 40.7412 19.2327 41.0529 19.2327C41.1973 19.2327 41.3265 19.2632 41.4557 19.3165C41.5926 19.3696 41.7066 19.4455 41.7979 19.5521C41.8966 19.6508 41.9802 19.7802 42.041 19.9397C42.1019 20.0917 42.1322 20.2589 42.1322 20.4565C42.1322 20.639 42.1019 20.8062 42.041 20.9582ZM50.2727 20.2136L52.059 18.2602H50.7667L49.2922 19.864V16.9756H48.3041V22.6001H49.2922V21.3234L49.619 20.9584L50.8959 22.6001H52.1197L50.2727 20.2136ZM47.4223 19.2329C47.3311 18.9745 47.1564 18.7465 46.9055 18.5566C46.6548 18.3664 46.3354 18.2677 45.9554 18.2677C45.7578 18.2677 45.5525 18.298 45.3474 18.3589C45.1677 18.4127 45 18.5004 44.8534 18.6173V18.3967H43.8575V22.6001H44.8534V20.3503C44.8608 20.1983 44.8762 20.0539 44.8913 19.9171C44.9141 19.7727 44.9521 19.651 45.0129 19.5446C45.0736 19.4382 45.1649 19.3546 45.2789 19.2862C45.393 19.2177 45.5373 19.1796 45.7122 19.1721C45.9326 19.1646 46.1075 19.2254 46.2443 19.3395C46.381 19.461 46.4723 19.613 46.5179 19.8107C46.5407 19.9019 46.5559 20.0235 46.5712 20.1755C46.5787 20.3198 46.5863 20.5326 46.5863 20.814V22.6001H47.5669V20.5709C47.5681 20.3326 47.5605 20.0943 47.5441 19.8565C47.5299 19.6444 47.489 19.4349 47.4223 19.2331V19.2329Z" fill="#EA5F00"/>
</svg>
