<svg width="34" height="24" viewBox="0 0 34 24" fill="none" xmlns="http://www.w3.org/2000/svg">
<path fill-rule="evenodd" clip-rule="evenodd" d="M19.3418 11.488H20.455C20.8079 11.4749 21.0226 11.4469 21.0999 11.4031C21.2054 11.3432 21.2762 11.2235 21.3115 11.0438C21.334 10.9242 21.3453 10.7464 21.3453 10.5102C21.3453 10.2209 21.3229 10.0064 21.2779 9.86629C21.2137 9.67008 21.0599 9.55056 20.8162 9.50715C20.7681 9.5006 20.6527 9.49711 20.47 9.49711H19.3418V11.488ZM17.5561 14.8414V8H20.8829C21.3392 8 21.6874 8.03843 21.9266 8.1152C22.4738 8.29199 22.8409 8.65395 23.0289 9.20099C23.126 9.48808 23.1745 9.92034 23.1745 10.4975C23.1745 11.1915 23.1207 11.6902 23.0142 11.9938C22.8008 12.5942 22.3616 12.9401 21.6983 13.0297C21.6203 13.0432 21.2885 13.0552 20.7027 13.0648L20.4063 13.075H19.3417V14.8414H17.5561ZM8.58999 10.1824H10.2512C10.2619 10.0312 10.2672 9.91818 10.2672 9.84257C10.2672 8.9207 9.90585 8.35971 9.18296 8.15944C8.88676 8.07752 8.38989 8.03619 7.69269 8.03619C7.24983 8.03619 6.84722 8.05287 6.48429 8.08549C6.04811 8.12167 5.68977 8.24277 5.40974 8.44902C5.21858 8.5834 5.08006 8.77985 4.99409 9.03864C4.90821 9.29735 4.86523 9.6413 4.86523 10.0702C4.86523 10.6335 4.94475 11.0545 5.10372 11.3328C5.28458 11.6603 5.64703 11.876 6.1909 11.9809C6.39744 12.0174 6.76625 12.055 7.29716 12.0941C7.95831 12.14 8.32872 12.1762 8.40833 12.2021C8.62122 12.2679 8.72787 12.4511 8.72787 12.7523C8.72787 12.8868 8.71524 12.9967 8.6898 13.0816C8.64191 13.2195 8.5417 13.3192 8.38901 13.3811C8.30321 13.4142 8.10431 13.4306 7.79266 13.4306H7.18198C7.01939 13.4269 6.8811 13.3961 6.76657 13.3375C6.60132 13.2524 6.5185 13.0613 6.5185 12.7643L6.51834 12.622H4.85718C4.85718 13.1787 4.8967 13.5763 4.97654 13.8151C5.1199 14.2441 5.4161 14.5289 5.8654 14.6695C6.23147 14.7843 6.87982 14.8414 7.81012 14.8414C8.36744 14.8414 8.7818 14.8151 9.05265 14.7625C9.69915 14.6381 10.1146 14.3418 10.2996 13.8728C10.4017 13.6172 10.4526 13.2138 10.4526 12.663C10.4526 12.4241 10.4415 12.209 10.4191 12.019C10.3809 11.7012 10.2611 11.4439 10.0601 11.2471C9.80467 10.9948 9.39304 10.839 8.82527 10.78C8.64642 10.7604 8.19801 10.7258 7.48003 10.6766L7.14503 10.6522C6.99798 10.6424 6.88006 10.6096 6.79079 10.5539C6.6662 10.4753 6.60406 10.3113 6.60406 10.0622C6.60406 9.78704 6.67424 9.60834 6.81446 9.52618C6.95475 9.44426 7.24226 9.40334 7.67595 9.40334C8.12251 9.40334 8.39537 9.47447 8.49421 9.61656C8.55796 9.71259 8.58999 9.90125 8.58999 10.1824ZM4.86348 16.1982L5.11251 16.1723C5.12749 16.2589 5.15791 16.3223 5.20371 16.363C5.24959 16.4036 5.31141 16.4239 5.38924 16.4239C5.47166 16.4239 5.53372 16.4058 5.57557 16.3698C5.61735 16.3337 5.6382 16.2916 5.6382 16.2432C5.6382 16.2123 5.62942 16.186 5.61196 16.1642C5.59441 16.1424 5.56382 16.1236 5.52012 16.1074C5.49017 16.0968 5.42208 16.0779 5.31575 16.0507C5.17884 16.0158 5.08289 15.9728 5.02768 15.9218C4.95008 15.8501 4.91129 15.7626 4.91129 15.6594C4.91129 15.593 4.92956 15.5309 4.96618 15.4731C5.00273 15.4153 5.05553 15.3712 5.12435 15.341C5.19325 15.3108 5.27639 15.2956 5.37379 15.2956C5.53283 15.2956 5.65252 15.3317 5.73293 15.4037C5.81334 15.4758 5.85552 15.572 5.85954 15.6924L5.60302 15.7028C5.59207 15.6355 5.56857 15.5872 5.53251 15.5577C5.49653 15.5282 5.44252 15.5134 5.37049 15.5134C5.29611 15.5134 5.238 15.5292 5.1959 15.5608C5.16878 15.5809 5.15525 15.608 5.15525 15.6418C5.15525 15.6728 5.16797 15.6992 5.19333 15.7213C5.22552 15.7492 5.30384 15.7783 5.42828 15.8084C5.55263 15.8386 5.64464 15.8699 5.70428 15.9025C5.76384 15.9349 5.81053 15.9793 5.84425 16.0356C5.8779 16.092 5.8948 16.1616 5.8948 16.2444C5.8948 16.3196 5.8746 16.3899 5.83419 16.4555C5.79378 16.521 5.73672 16.5698 5.66291 16.6016C5.5891 16.6335 5.4971 16.6495 5.38691 16.6495C5.22657 16.6495 5.10342 16.6111 5.01746 16.5342C4.93157 16.4574 4.88022 16.3454 4.86348 16.1982ZM6.16074 15.6794H6.40471V16.6261H6.16074V15.6794ZM6.16074 15.3189H6.40471V15.5498H6.16074V15.3189ZM7.29941 16.6261H7.54338V16.0366C7.54338 15.9634 7.53887 15.9071 7.52994 15.8678C7.521 15.8285 7.50515 15.7934 7.48237 15.7624C7.45959 15.7315 7.42603 15.706 7.38168 15.6861C7.33733 15.6662 7.28831 15.6561 7.2347 15.6561C7.11316 15.6561 7.01223 15.7102 6.93214 15.8185V15.6794H6.7058V16.6261H6.94976V16.1964C6.94976 16.0904 6.95588 16.0177 6.96828 15.9785C6.98059 15.9391 7.00337 15.9076 7.03669 15.8838C7.07002 15.86 7.10761 15.848 7.14954 15.848C7.18222 15.848 7.21023 15.8564 7.23349 15.873C7.25675 15.8897 7.2735 15.9132 7.28388 15.9432C7.29418 15.9733 7.29941 16.0395 7.29941 16.1419V16.6261ZM8.03678 16.1324C8.03678 16.2331 8.05545 16.3069 8.09296 16.3536C8.13039 16.4005 8.17659 16.4239 8.23157 16.4239C8.2904 16.4239 8.34015 16.3999 8.38079 16.3519C8.42136 16.3039 8.44173 16.2328 8.44173 16.1386C8.44173 16.0403 8.42225 15.9673 8.38337 15.9196C8.34441 15.8719 8.29531 15.848 8.23583 15.848C8.17804 15.848 8.13039 15.8715 8.09296 15.9182C8.05545 15.9651 8.03678 16.0364 8.03678 16.1324ZM7.81797 16.6884L8.09462 16.7195C8.09928 16.7548 8.10999 16.779 8.12673 16.7923C8.14991 16.8112 8.18637 16.8207 8.23612 16.8207C8.29978 16.8207 8.34752 16.8109 8.37939 16.7913C8.40072 16.7782 8.41698 16.7571 8.42801 16.728C8.43549 16.707 8.43927 16.6688 8.43927 16.6128L8.44 16.4747C8.36804 16.5757 8.27676 16.6261 8.16601 16.6261C8.04246 16.6261 7.94474 16.5723 7.87262 16.4645C7.81604 16.3794 7.78779 16.2733 7.78779 16.1465C7.78779 15.9875 7.82481 15.866 7.89894 15.782C7.97308 15.6981 8.06532 15.6561 8.17551 15.6561C8.28916 15.6561 8.38293 15.7077 8.45682 15.8106V15.6794H8.68324V16.5304C8.68324 16.6424 8.67431 16.7261 8.65636 16.7813C8.63849 16.8368 8.61337 16.8802 8.58102 16.9117C8.54866 16.9433 8.50552 16.968 8.45151 16.9858C8.3975 17.0037 8.32924 17.0126 8.24674 17.0126C8.09083 17.0126 7.98024 16.9849 7.91496 16.9296C7.84968 16.8742 7.81709 16.804 7.81709 16.7189C7.81709 16.7105 7.81741 16.7004 7.81797 16.6884ZM9.21932 15.3189H8.97536V16.6261H9.21932V15.3189ZM10.0688 16.0737C10.0671 16 10.0488 15.944 10.014 15.9056C9.9792 15.8673 9.93686 15.848 9.88696 15.848C9.83359 15.848 9.78948 15.8684 9.75471 15.9088C9.71986 15.9492 9.7028 16.0042 9.70336 16.0737H10.0688ZM10.0562 16.3279L10.2977 16.3694C10.2665 16.4606 10.2171 16.5302 10.1498 16.5779C10.0824 16.6257 9.99804 16.6495 9.89686 16.6495C9.73661 16.6495 9.61805 16.5955 9.54118 16.4875C9.48041 16.401 9.45006 16.2919 9.45006 16.1599C9.45006 16.0026 9.48991 15.8791 9.56975 15.7899C9.64952 15.7007 9.75037 15.6561 9.87231 15.6561C10.0094 15.6561 10.1175 15.7029 10.1967 15.7965C10.2759 15.8902 10.3137 16.0335 10.3103 16.2267H9.6991C9.70079 16.3013 9.72059 16.3592 9.75842 16.4007C9.79625 16.442 9.84342 16.4628 9.89992 16.4628C9.93832 16.4628 9.97067 16.4522 9.99683 16.4308C10.023 16.4096 10.0429 16.3752 10.0562 16.3279ZM11.1085 15.3189V16.6261H12.0719V16.4057H11.3651V16.0504H11.999V15.8299H11.3651V15.5394H12.0468V15.3189H11.1085ZM12.944 16.6261V16.4843C12.9104 16.5349 12.8664 16.5751 12.8117 16.6049C12.7571 16.6346 12.6994 16.6495 12.6387 16.6495C12.5768 16.6495 12.5215 16.6355 12.4723 16.6075C12.4232 16.5795 12.3876 16.5402 12.3656 16.4897C12.3437 16.439 12.3327 16.3691 12.3327 16.2798V15.6794H12.5767V16.1148C12.5767 16.2481 12.5811 16.3298 12.5901 16.3598C12.5991 16.39 12.6153 16.4137 12.639 16.4313C12.6626 16.4488 12.6926 16.4575 12.729 16.4575C12.7705 16.4575 12.8078 16.4459 12.8406 16.4223C12.8735 16.3989 12.896 16.3697 12.9081 16.3349C12.9202 16.3001 12.9263 16.2149 12.9263 16.0792V15.6794H13.1703V16.6261H12.944ZM13.4625 16.6261H13.7064V16.3334C13.7064 16.1722 13.7133 16.0662 13.7269 16.0157C13.7405 15.9651 13.7592 15.9302 13.7829 15.9108C13.8066 15.8915 13.8355 15.8818 13.8698 15.8818C13.905 15.8818 13.9433 15.8955 13.9844 15.9228L14.0586 15.7036C14.0072 15.672 13.9538 15.6561 13.8984 15.6561C13.8591 15.6561 13.8241 15.6666 13.7932 15.6874C13.7623 15.7083 13.7275 15.7505 13.6888 15.8141V15.6794H13.4625V16.6261ZM14.406 16.1528C14.406 16.2472 14.4277 16.3193 14.471 16.3694C14.5144 16.4196 14.5679 16.4446 14.6315 16.4446C14.6951 16.4446 14.7485 16.4196 14.7916 16.3694C14.8346 16.3193 14.8562 16.2465 14.8562 16.1511C14.8562 16.058 14.8346 15.9863 14.7916 15.9363C14.7485 15.8861 14.6951 15.8611 14.6315 15.8611C14.5679 15.8611 14.5144 15.8861 14.471 15.9363C14.4277 15.9863 14.406 16.0586 14.406 16.1528ZM14.157 16.1393C14.157 16.0558 14.1769 15.975 14.2167 15.8968C14.2565 15.8187 14.3128 15.759 14.3858 15.7179C14.4587 15.6767 14.5403 15.6561 14.6303 15.6561C14.7693 15.6561 14.8832 15.7028 14.972 15.7961C15.0608 15.8895 15.1052 16.0075 15.1052 16.1501C15.1052 16.2939 15.0603 16.4131 14.9707 16.5077C14.881 16.6022 14.7681 16.6495 14.632 16.6495C14.5478 16.6495 14.4674 16.6298 14.391 16.5905C14.3146 16.5511 14.2565 16.4934 14.2167 16.4173C14.1769 16.3412 14.157 16.2486 14.157 16.1393ZM16.1562 15.9129V15.5394H16.2795C16.3716 15.5394 16.4327 15.5424 16.4633 15.5484C16.5046 15.5562 16.5388 15.5756 16.5659 15.6067C16.5929 15.6379 16.6064 15.6774 16.6064 15.7253C16.6064 15.7642 16.5968 15.7983 16.5775 15.8276C16.5583 15.857 16.5317 15.8786 16.4978 15.8923C16.4638 15.9061 16.3965 15.9129 16.2959 15.9129H16.1562ZM15.8997 15.3189V16.6261H16.1562V16.1334H16.323C16.4386 16.1334 16.527 16.1271 16.5881 16.1146C16.633 16.1045 16.6772 16.0839 16.7207 16.0526C16.7641 16.0214 16.8 15.9784 16.8282 15.9238C16.8565 15.8689 16.8705 15.8015 16.8705 15.7213C16.8705 15.6172 16.8461 15.5323 16.7971 15.4666C16.748 15.4009 16.6873 15.3582 16.6147 15.3386C16.5674 15.3255 16.4659 15.3189 16.3103 15.3189H15.8997ZM17.637 16.1723C17.6059 16.1831 17.5567 16.1959 17.4894 16.2108C17.4221 16.2257 17.3781 16.2404 17.3575 16.2546C17.3258 16.278 17.3101 16.3075 17.3101 16.3433C17.3101 16.3785 17.3226 16.4089 17.3479 16.4347C17.3733 16.4603 17.4055 16.4732 17.4447 16.4732C17.4884 16.4732 17.53 16.4582 17.5697 16.4284C17.599 16.4057 17.6184 16.378 17.6275 16.3451C17.6338 16.3236 17.637 16.2827 17.637 16.2223V16.1723ZM17.3101 15.9674L17.0913 15.9259C17.1161 15.8342 17.1587 15.7663 17.2192 15.7223C17.2798 15.6782 17.3698 15.6561 17.4892 15.6561C17.5976 15.6561 17.6784 15.6694 17.7315 15.6958C17.7845 15.7224 17.822 15.7561 17.8435 15.7968C17.8652 15.8376 17.876 15.9125 17.876 16.0215L17.8735 16.3145C17.8735 16.3978 17.8774 16.4594 17.8851 16.4989C17.8929 16.5385 17.9075 16.5809 17.9288 16.6261H17.6874C17.6809 16.6098 17.6732 16.5855 17.664 16.5533C17.6599 16.5386 17.657 16.5289 17.6554 16.5242C17.6139 16.5659 17.5695 16.5973 17.5223 16.6182C17.475 16.6391 17.4247 16.6495 17.3711 16.6495C17.2766 16.6495 17.2021 16.623 17.1477 16.57C17.0933 16.517 17.0661 16.4499 17.0661 16.3689C17.0661 16.3154 17.0785 16.2676 17.1032 16.2256C17.128 16.1836 17.1628 16.1514 17.2075 16.129C17.2522 16.1068 17.3167 16.0871 17.4009 16.0704C17.5145 16.0485 17.5932 16.028 17.6371 16.0089V15.9835C17.6371 15.9347 17.6255 15.9 17.6023 15.8791C17.579 15.8584 17.5353 15.848 17.4709 15.848C17.4275 15.848 17.3936 15.8569 17.3692 15.8745C17.3448 15.8922 17.3251 15.9231 17.3101 15.9674ZM18.3102 15.6794H18.0512L18.4013 16.6288C18.3868 16.6822 18.3659 16.7263 18.3386 16.761C18.3113 16.7955 18.2694 16.8129 18.2125 16.8129C18.1818 16.8129 18.1472 16.809 18.109 16.8012L18.1317 16.9974C18.1767 17.0076 18.2227 17.0126 18.2695 17.0126C18.3157 17.0126 18.3571 17.0076 18.3938 16.9974C18.4306 16.9873 18.4613 16.973 18.4865 16.9549C18.5116 16.9368 18.5339 16.913 18.5532 16.8839C18.5725 16.8547 18.5929 16.8124 18.6143 16.757L18.997 15.6794H18.7454L18.5304 16.3516L18.3102 15.6794ZM19.1872 15.6794H19.411V15.8088C19.4914 15.707 19.5871 15.6561 19.6982 15.6561C19.7571 15.6561 19.8083 15.6686 19.8517 15.6936C19.8951 15.7186 19.9307 15.7565 19.9583 15.807C19.9987 15.7565 20.0425 15.7186 20.0891 15.6936C20.136 15.6686 20.1858 15.6561 20.2389 15.6561C20.3065 15.6561 20.3637 15.6702 20.4105 15.6986C20.4572 15.7268 20.4922 15.7683 20.5153 15.8232C20.532 15.8636 20.5404 15.9291 20.5404 16.0197V16.6261H20.2964V16.0839C20.2964 15.9898 20.288 15.9291 20.2714 15.9017C20.2488 15.8659 20.2143 15.848 20.1677 15.848C20.1337 15.848 20.1016 15.8587 20.0717 15.8802C20.0417 15.9017 20.0202 15.9331 20.007 15.9745C19.9937 16.0158 19.987 16.0812 19.987 16.1705V16.6261H19.743V16.1063C19.743 16.0138 19.7388 15.9544 19.7301 15.9275C19.7215 15.9007 19.7081 15.8808 19.6899 15.8677C19.6717 15.8547 19.6472 15.848 19.616 15.848C19.5786 15.848 19.5449 15.8585 19.5149 15.8793C19.485 15.9001 19.4636 15.9303 19.4505 15.9695C19.4376 16.0089 19.4311 16.074 19.4311 16.1651V16.6261H19.1872V15.6794ZM21.3259 15.9056C21.3608 15.944 21.379 16 21.3808 16.0737H21.0154C21.0148 16.0042 21.0319 15.9492 21.0667 15.9088C21.1014 15.8684 21.1456 15.848 21.1989 15.848C21.2488 15.848 21.2912 15.8673 21.3259 15.9056ZM21.6097 16.3694L21.3682 16.3279C21.3549 16.3752 21.3351 16.4096 21.3088 16.4308C21.2826 16.4522 21.2503 16.4628 21.2119 16.4628C21.1553 16.4628 21.1082 16.442 21.0704 16.4007C21.0326 16.3592 21.0128 16.3013 21.011 16.2267H21.6223C21.6257 16.0335 21.5878 15.8902 21.5086 15.7965C21.4294 15.7029 21.3214 15.6561 21.1843 15.6561C21.0623 15.6561 20.9615 15.7007 20.8817 15.7899C20.802 15.8791 20.762 16.0026 20.762 16.1599C20.762 16.2919 20.7923 16.401 20.8531 16.4875C20.93 16.5955 21.0486 16.6495 21.2088 16.6495C21.31 16.6495 21.3943 16.6257 21.4618 16.5779C21.5291 16.5302 21.5784 16.4606 21.6097 16.3694ZM22.708 16.6261H22.464V16.1419C22.464 16.0395 22.4588 15.9733 22.4486 15.9432C22.4382 15.9132 22.4214 15.8897 22.3981 15.873C22.3748 15.8564 22.3468 15.848 22.3142 15.848C22.2723 15.848 22.2346 15.86 22.2014 15.8838C22.1681 15.9076 22.1453 15.9391 22.1329 15.9785C22.1206 16.0177 22.1144 16.0904 22.1144 16.1964V16.6261H21.8704V15.6794H22.0968V15.8185C22.1769 15.7102 22.2778 15.6561 22.3993 15.6561C22.4529 15.6561 22.502 15.6662 22.5463 15.6861C22.5906 15.706 22.6243 15.7315 22.6471 15.7624C22.6698 15.7934 22.6856 15.8285 22.6946 15.8678C22.7036 15.9071 22.708 15.9634 22.708 16.0366V16.6261ZM23.4279 15.8791V15.6794H23.2618V15.3423L23.0178 15.4901V15.6794H22.9072V15.8791H23.0178V16.293C23.0178 16.3817 23.0203 16.4407 23.0256 16.4699C23.0318 16.511 23.0431 16.5436 23.0595 16.5677C23.0759 16.5918 23.1016 16.6116 23.1365 16.6267C23.1715 16.6419 23.2107 16.6495 23.2544 16.6495C23.3255 16.6495 23.3891 16.637 23.4454 16.612L23.4241 16.418C23.3821 16.434 23.3502 16.442 23.328 16.442C23.3121 16.442 23.2988 16.4378 23.2876 16.4295C23.2766 16.4211 23.2695 16.4106 23.2665 16.3977C23.2633 16.3849 23.2618 16.3397 23.2618 16.2622V15.8791H23.4279ZM23.565 16.359L23.809 16.3201C23.8194 16.3685 23.8404 16.4052 23.872 16.4303C23.9037 16.4555 23.948 16.4679 24.005 16.4679C24.0679 16.4679 24.1151 16.456 24.1467 16.4321C24.1681 16.4152 24.1788 16.3929 24.1788 16.3647C24.1788 16.3456 24.1729 16.3297 24.1613 16.3172C24.1491 16.3052 24.1219 16.2941 24.0795 16.2839C23.8824 16.239 23.7574 16.1981 23.7048 16.1612C23.6317 16.11 23.5952 16.0387 23.5952 15.9476C23.5952 15.8653 23.6267 15.7961 23.6899 15.7402C23.7531 15.6842 23.8511 15.6561 23.9838 15.6561C24.1102 15.6561 24.204 15.6771 24.2655 15.719C24.327 15.761 24.3693 15.823 24.3926 15.9051L24.1636 15.9492C24.1537 15.9124 24.1349 15.8841 24.1072 15.8645C24.0795 15.8449 24.0399 15.8351 23.9887 15.8351C23.9239 15.8351 23.8775 15.8443 23.8496 15.863C23.8308 15.8761 23.8216 15.8931 23.8216 15.914C23.8216 15.932 23.8296 15.9473 23.8459 15.9599C23.8678 15.9766 23.9439 16.0002 24.0739 16.0308C24.2039 16.0613 24.2947 16.0987 24.3463 16.1429C24.3971 16.1877 24.4227 16.2502 24.4227 16.3303C24.4227 16.4175 24.3875 16.4926 24.3172 16.5553C24.2468 16.6182 24.1428 16.6495 24.005 16.6495C23.88 16.6495 23.781 16.6234 23.7081 16.5713C23.6351 16.5191 23.5875 16.4485 23.565 16.359ZM25.7304 15.625L25.9076 16.1101H25.5591L25.7304 15.625ZM26.1018 16.6261H26.3781L25.8662 15.3189H25.5964L25.1053 16.6261H25.3768L25.4813 16.3305H25.9922L26.1018 16.6261ZM26.7968 16.6261H26.5528V15.6794H26.7792V15.8141C26.8179 15.7505 26.8526 15.7083 26.8836 15.6874C26.9144 15.6666 26.9494 15.6561 26.9888 15.6561C27.0442 15.6561 27.0975 15.672 27.149 15.7036L27.0747 15.9228C27.0336 15.8955 26.9954 15.8818 26.9601 15.8818C26.9258 15.8818 26.8969 15.8915 26.8732 15.9108C26.8495 15.9302 26.8308 15.9651 26.8173 16.0157C26.8036 16.0662 26.7968 16.1722 26.7968 16.3334V16.6261ZM27.7987 15.9056C27.8335 15.944 27.8518 16 27.8535 16.0737H27.4881C27.4875 16.0042 27.5046 15.9492 27.5395 15.9088C27.5742 15.8684 27.6183 15.848 27.6717 15.848C27.7215 15.848 27.7639 15.8673 27.7987 15.9056ZM28.0824 16.3694L27.8409 16.3279C27.8275 16.3752 27.8077 16.4096 27.7815 16.4308C27.7553 16.4522 27.723 16.4628 27.6846 16.4628C27.6281 16.4628 27.581 16.442 27.5431 16.4007C27.5053 16.3592 27.4855 16.3013 27.4837 16.2267H28.095C28.0984 16.0335 28.0605 15.8902 27.9814 15.7965C27.9021 15.7029 27.794 15.6561 27.657 15.6561C27.5351 15.6561 27.4342 15.7007 27.3545 15.7899C27.2746 15.8791 27.2347 16.0026 27.2347 16.1599C27.2347 16.2919 27.265 16.401 27.3258 16.4875C27.4027 16.5955 27.5213 16.6495 27.6816 16.6495C27.7828 16.6495 27.8671 16.6257 27.9345 16.5779C28.0018 16.5302 28.0512 16.4606 28.0824 16.3694ZM28.8512 16.1723C28.8202 16.1831 28.7709 16.1959 28.7036 16.2108C28.6363 16.2257 28.5924 16.2404 28.5717 16.2546C28.54 16.278 28.5243 16.3075 28.5243 16.3433C28.5243 16.3785 28.5368 16.4089 28.5622 16.4347C28.5875 16.4603 28.6197 16.4732 28.6589 16.4732C28.7026 16.4732 28.7442 16.4582 28.7839 16.4284C28.8132 16.4057 28.8326 16.378 28.8417 16.3451C28.848 16.3236 28.8512 16.2827 28.8512 16.2223V16.1723ZM28.5243 15.9674L28.3054 15.9259C28.3302 15.8342 28.3729 15.7663 28.4334 15.7223C28.494 15.6782 28.584 15.6561 28.7033 15.6561C28.8118 15.6561 28.8926 15.6694 28.9456 15.6958C28.9987 15.7224 29.0361 15.7561 29.0577 15.7968C29.0793 15.8376 29.0902 15.9125 29.0902 16.0215L29.0877 16.3145C29.0877 16.3978 29.0915 16.4594 29.0993 16.4989C29.1071 16.5385 29.1217 16.5809 29.1429 16.6261H28.9015C28.8951 16.6098 28.8874 16.5855 28.8781 16.5533C28.8741 16.5386 28.8712 16.5289 28.8696 16.5242C28.828 16.5659 28.7838 16.5973 28.7365 16.6182C28.6893 16.6391 28.6389 16.6495 28.5853 16.6495C28.4908 16.6495 28.4162 16.623 28.3618 16.57C28.3075 16.517 28.2803 16.4499 28.2803 16.3689C28.2803 16.3154 28.2926 16.2676 28.3174 16.2256C28.3422 16.1836 28.377 16.1514 28.4216 16.129C28.4664 16.1068 28.5309 16.0871 28.615 16.0704C28.7286 16.0485 28.8073 16.028 28.8512 16.0089V15.9835C28.8512 15.9347 28.8396 15.9 28.8164 15.8791C28.7933 15.8584 28.7495 15.848 28.6851 15.848C28.6416 15.848 28.6077 15.8569 28.5833 15.8745C28.559 15.8922 28.5392 15.9231 28.5243 15.9674ZM25.7947 9.36059L26.6313 12.3262H24.9828L25.7947 9.36059ZM24.5986 13.659H26.986L27.3267 14.8414H29.1353L27.1174 8H24.4239L22.4305 14.8414H24.2779L24.5986 13.659Z" fill="#10298E"/>
<path fill-rule="evenodd" clip-rule="evenodd" d="M15.0916 8.96253C15.8281 8.96253 16.4854 9.31236 16.9175 9.86032L17.3024 9.00934C16.7004 8.42262 15.8811 8.06091 14.9774 8.06091C13.5704 8.06091 12.3669 8.93713 11.8729 10.1775H11.1223L10.6791 11.1572H11.6447C11.6375 11.2481 11.6328 11.339 11.6328 11.4318C11.6328 11.5441 11.6384 11.6551 11.6492 11.7647H11.1639L10.7208 12.7448H11.8959C12.404 13.9537 13.5925 14.8025 14.9774 14.8025C15.6753 14.8025 16.323 14.5868 16.8592 14.2185V13.0174C16.4273 13.5244 15.7957 13.8447 15.0916 13.8447C14.2685 13.8447 13.5445 13.4071 13.1229 12.7448H15.5836L16.0267 11.7647H12.7609C12.744 11.6468 12.735 11.5263 12.735 11.4035C12.735 11.3205 12.7392 11.2383 12.7469 11.1572H16.3013L16.7444 10.1775H13.0543C13.4624 9.45122 14.2218 8.96253 15.0916 8.96253Z" fill="#FFBE00"/>
</svg>
