<svg width="46" height="32" viewBox="0 0 46 32" fill="none" xmlns="http://www.w3.org/2000/svg">
<path fill-rule="evenodd" clip-rule="evenodd" d="M25.789 15.3174H27.2733C27.7439 15.2999 28.0301 15.2626 28.1331 15.2041C28.2738 15.1244 28.3682 14.9647 28.4152 14.7251C28.4453 14.5656 28.4603 14.3286 28.4603 14.0136C28.4603 13.6278 28.4305 13.3419 28.3705 13.1551C28.2849 12.8935 28.0798 12.7341 27.7549 12.6762C27.6907 12.6675 27.5369 12.6628 27.2933 12.6628H25.789V15.3174ZM23.4081 19.7886V10.6667H27.8438C28.4522 10.6667 28.9164 10.7179 29.2354 10.8203C29.965 11.056 30.4545 11.5386 30.7052 12.268C30.8346 12.6508 30.8993 13.2271 30.8993 13.9967C30.8993 14.922 30.8275 15.587 30.6855 15.9918C30.401 16.7923 29.8154 17.2535 28.931 17.373C28.827 17.3909 28.3846 17.4069 27.6036 17.4198L27.2083 17.4334H25.7889V19.7886H23.4081ZM11.4533 13.5765H13.6682C13.6824 13.375 13.6896 13.2243 13.6896 13.1234C13.6896 11.8943 13.2078 11.1463 12.2439 10.8793C11.849 10.77 11.1865 10.7149 10.2569 10.7149C9.6664 10.7149 9.12958 10.7372 8.64568 10.7807C8.06411 10.8289 7.58632 10.9904 7.21295 11.2654C6.95806 11.4445 6.77337 11.7065 6.65875 12.0515C6.54424 12.3965 6.48693 12.8551 6.48693 13.427C6.48693 14.178 6.59296 14.7394 6.80492 15.1104C7.04607 15.5471 7.52933 15.8347 8.25449 15.9746C8.52988 16.0232 9.02162 16.0733 9.7295 16.1254C10.611 16.1866 11.1049 16.2349 11.2111 16.2695C11.4949 16.3572 11.6371 16.6015 11.6371 17.0031C11.6371 17.1824 11.6203 17.3289 11.5864 17.4421C11.5225 17.6261 11.3889 17.759 11.1853 17.8415C11.0709 17.8856 10.8057 17.9075 10.3902 17.9075H9.57593C9.35914 17.9026 9.17477 17.8616 9.02205 17.7833C8.80172 17.6699 8.69129 17.4151 8.69129 17.0191L8.69107 16.8294H6.4762C6.4762 17.5716 6.52889 18.1018 6.63535 18.4202C6.82649 18.9921 7.22143 19.3719 7.82049 19.5594C8.30858 19.7124 9.17305 19.7886 10.4135 19.7886C11.1565 19.7886 11.709 19.7535 12.0702 19.6833C12.9322 19.5174 13.4861 19.1225 13.7328 18.4971C13.8688 18.1563 13.9368 17.6184 13.9368 16.8841C13.9368 16.5654 13.922 16.2787 13.8921 16.0253C13.8412 15.6017 13.6814 15.2586 13.4134 14.9961C13.0729 14.6597 12.524 14.4521 11.767 14.3734C11.5285 14.3472 10.9306 14.301 9.97334 14.2355L9.52667 14.203C9.3306 14.1899 9.17337 14.1462 9.05435 14.0718C8.88822 13.967 8.80537 13.7484 8.80537 13.4163C8.80537 13.0494 8.89895 12.8111 9.0859 12.7016C9.27296 12.5924 9.65631 12.5378 10.2346 12.5378C10.83 12.5378 11.1938 12.6326 11.3256 12.8221C11.4106 12.9501 11.4533 13.2017 11.4533 13.5765ZM6.4846 21.5976L6.81665 21.5631C6.83661 21.6785 6.87717 21.7631 6.93824 21.8174C6.99941 21.8715 7.08183 21.8985 7.18561 21.8985C7.29551 21.8985 7.37825 21.8745 7.43406 21.8264C7.48976 21.7783 7.51755 21.7221 7.51755 21.6577C7.51755 21.6164 7.50586 21.5813 7.48257 21.5522C7.45917 21.5232 7.41839 21.4981 7.36012 21.4765C7.32019 21.4625 7.2294 21.4372 7.08763 21.4009C6.90508 21.3545 6.77715 21.2971 6.70353 21.2291C6.60007 21.1335 6.54835 21.0168 6.54835 20.8792C6.54835 20.7907 6.57271 20.7078 6.62154 20.6308C6.67026 20.5537 6.74066 20.4949 6.83242 20.4546C6.92429 20.4144 7.03515 20.3941 7.16501 20.3941C7.37707 20.3941 7.53666 20.4423 7.64387 20.5383C7.75108 20.6345 7.80732 20.7627 7.81269 20.9232L7.47066 20.937C7.45606 20.8474 7.42472 20.783 7.37664 20.7436C7.32867 20.7043 7.25666 20.6846 7.16061 20.6846C7.06144 20.6846 6.98396 20.7056 6.92783 20.7477C6.89166 20.7746 6.87363 20.8107 6.87363 20.8558C6.87363 20.8971 6.89059 20.9323 6.9244 20.9617C6.96732 20.9989 7.07175 21.0377 7.23766 21.0779C7.40347 21.1182 7.52614 21.1599 7.60566 21.2033C7.68508 21.2466 7.74733 21.3058 7.79229 21.3808C7.83715 21.456 7.85969 21.5488 7.85969 21.6592C7.85969 21.7595 7.83275 21.8532 7.77888 21.9407C7.72501 22.0281 7.64892 22.093 7.5505 22.1355C7.45209 22.178 7.32942 22.1994 7.1825 22.1994C6.96872 22.1994 6.80452 22.1481 6.6899 22.0457C6.57539 21.9432 6.50692 21.7939 6.4846 21.5976ZM8.21428 20.906H8.53957V22.1682H8.21428V20.906ZM8.21428 20.4252H8.53957V20.7331H8.21428V20.4252ZM9.73251 22.1682H10.0578V21.3821C10.0578 21.2845 10.0518 21.2095 10.0399 21.1572C10.028 21.1047 10.0068 21.0579 9.97645 21.0166C9.94608 20.9753 9.90133 20.9414 9.84219 20.9148C9.78306 20.8882 9.7177 20.8749 9.64623 20.8749C9.48417 20.8749 9.34959 20.947 9.24281 21.0914V20.9059H8.94102V22.1682H9.26631V21.5953C9.26631 21.4538 9.27447 21.357 9.29099 21.3047C9.30741 21.2522 9.33779 21.2102 9.38222 21.1784C9.42665 21.1466 9.47677 21.1307 9.53268 21.1307C9.57625 21.1307 9.6136 21.1419 9.64462 21.164C9.67563 21.1863 9.69795 21.2176 9.7118 21.2576C9.72554 21.2977 9.73251 21.386 9.73251 21.5226V22.1682ZM10.7157 21.5098C10.7157 21.6442 10.7406 21.7426 10.7906 21.8049C10.8405 21.8674 10.9021 21.8985 10.9754 21.8985C11.0538 21.8985 11.1202 21.8665 11.1743 21.8026C11.2284 21.7386 11.2556 21.6438 11.2556 21.5181C11.2556 21.3871 11.2296 21.2897 11.1778 21.2261C11.1258 21.1626 11.0604 21.1307 10.9811 21.1307C10.904 21.1307 10.8405 21.162 10.7906 21.2243C10.7406 21.2869 10.7157 21.3819 10.7157 21.5098ZM10.4239 22.2512L10.7928 22.2927C10.799 22.3397 10.8133 22.372 10.8356 22.3897C10.8665 22.415 10.9151 22.4276 10.9814 22.4276C11.0663 22.4276 11.13 22.4145 11.1725 22.3884C11.2009 22.3709 11.2226 22.3428 11.2373 22.304C11.2473 22.2761 11.2523 22.2251 11.2523 22.1505L11.2533 21.9662C11.1573 22.1009 11.0356 22.1682 10.888 22.1682C10.7232 22.1682 10.5929 22.0965 10.4968 21.9527C10.4213 21.8392 10.3837 21.6978 10.3837 21.5287C10.3837 21.3166 10.433 21.1547 10.5319 21.0427C10.6307 20.9308 10.7537 20.8749 10.9006 20.8749C11.0522 20.8749 11.1772 20.9436 11.2757 21.0808V20.9059H11.5776V22.0406C11.5776 22.1899 11.5657 22.3014 11.5418 22.3751C11.5179 22.4491 11.4845 22.5069 11.4413 22.549C11.3982 22.591 11.3406 22.624 11.2686 22.6478C11.1966 22.6716 11.1056 22.6836 10.9956 22.6836C10.7877 22.6836 10.6403 22.6466 10.5532 22.5728C10.4662 22.499 10.4227 22.4053 10.4227 22.2919C10.4227 22.2807 10.4232 22.2672 10.4239 22.2512ZM12.2924 20.4252H11.9671V22.1682H12.2924V20.4252ZM13.425 21.4316C13.4227 21.3333 13.3984 21.2588 13.3519 21.2075C13.3056 21.1564 13.2491 21.1307 13.1826 21.1307C13.1114 21.1307 13.0526 21.1578 13.0062 21.2117C12.9598 21.2656 12.937 21.339 12.9378 21.4316H13.425ZM13.4083 21.7706L13.7302 21.8259C13.6886 21.9475 13.6228 22.0403 13.533 22.1039C13.4431 22.1676 13.3307 22.1994 13.1958 22.1994C12.9821 22.1994 12.824 22.1274 12.7215 21.9834C12.6405 21.8681 12.6 21.7225 12.6 21.5466C12.6 21.3368 12.6532 21.1722 12.7596 21.0532C12.866 20.9343 13.0005 20.8749 13.163 20.8749C13.3458 20.8749 13.4899 20.9373 13.5955 21.062C13.7011 21.1869 13.7516 21.378 13.747 21.6357H12.9321C12.9343 21.735 12.9607 21.8123 13.0112 21.8676C13.0616 21.9227 13.1245 21.9504 13.1999 21.9504C13.251 21.9504 13.2942 21.9362 13.3291 21.9078C13.3639 21.8795 13.3905 21.8336 13.4083 21.7706ZM14.8113 20.4252V22.1682H16.0958V21.8743H15.1534V21.4005H15.9986V21.1066H15.1534V20.7193H16.0623V20.4252H14.8113ZM17.2586 22.1682V21.9792C17.2138 22.0465 17.1551 22.1001 17.0822 22.1398C17.0094 22.1795 16.9325 22.1994 16.8516 22.1994C16.7691 22.1994 16.6952 22.1807 16.6297 22.1434C16.5642 22.1061 16.5168 22.0536 16.4875 21.9862C16.4582 21.9187 16.4436 21.8254 16.4436 21.7064V20.9059H16.7689V21.4865C16.7689 21.6642 16.7748 21.7731 16.7868 21.813C16.7987 21.8533 16.8204 21.885 16.8519 21.9084C16.8835 21.9318 16.9234 21.9434 16.9719 21.9434C17.0273 21.9434 17.077 21.9279 17.1208 21.8965C17.1647 21.8652 17.1946 21.8263 17.2108 21.7798C17.2269 21.7335 17.2351 21.6198 17.2351 21.439V20.9059H17.5603V22.1682H17.2586ZM17.9499 22.1682H18.2752V21.7779C18.2752 21.563 18.2843 21.4216 18.3025 21.3542C18.3206 21.2869 18.3455 21.2403 18.3772 21.2144C18.4088 21.1887 18.4473 21.1757 18.493 21.1757C18.54 21.1757 18.5911 21.194 18.6458 21.2304L18.7447 20.9382C18.6763 20.896 18.605 20.8749 18.5312 20.8749C18.4788 20.8749 18.4321 20.8888 18.3909 20.9166C18.3497 20.9445 18.3033 21.0007 18.2517 21.0854V20.9059H17.9499V22.1682ZM19.208 21.5371C19.208 21.6629 19.2368 21.7591 19.2947 21.8259C19.3525 21.8928 19.4238 21.9262 19.5087 21.9262C19.5935 21.9262 19.6646 21.8928 19.722 21.8259C19.7794 21.7591 19.8082 21.662 19.8082 21.5348C19.8082 21.4107 19.7794 21.3151 19.722 21.2484C19.6646 21.1815 19.5935 21.1481 19.5087 21.1481C19.4238 21.1481 19.3525 21.1815 19.2947 21.2484C19.2368 21.3151 19.208 21.4115 19.208 21.5371ZM18.8759 21.5191C18.8759 21.4078 18.9024 21.3 18.9556 21.1958C19.0086 21.0916 19.0837 21.0121 19.181 20.9572C19.2783 20.9023 19.387 20.8749 19.507 20.8749C19.6923 20.8749 19.8442 20.937 19.9627 21.0615C20.081 21.186 20.1403 21.3434 20.1403 21.5335C20.1403 21.7252 20.0804 21.8842 19.9608 22.0103C19.8413 22.1363 19.6907 22.1994 19.5092 22.1994C19.397 22.1994 19.2899 22.1731 19.188 22.1207C19.0861 22.0681 19.0086 21.9912 18.9556 21.8898C18.9024 21.7883 18.8759 21.6649 18.8759 21.5191ZM21.5415 21.2173V20.7193H21.7059C21.8287 20.7193 21.9103 20.7233 21.951 20.7312C22.0061 20.7416 22.0517 20.7675 22.0878 20.809C22.1239 20.8505 22.1419 20.9032 22.1419 20.9671C22.1419 21.019 22.129 21.0644 22.1034 21.1035C22.0777 21.1427 22.0422 21.1714 21.997 21.1898C21.9517 21.2082 21.862 21.2173 21.7278 21.2173H21.5415ZM21.1995 20.4252V22.1682H21.5416V21.5112H21.7639C21.9181 21.5112 22.036 21.5029 22.1174 21.4862C22.1773 21.4727 22.2362 21.4452 22.2942 21.4035C22.3521 21.3619 22.4 21.3046 22.4376 21.2317C22.4752 21.1586 22.494 21.0687 22.494 20.9617C22.494 20.823 22.4614 20.7097 22.396 20.6222C22.3307 20.5346 22.2497 20.4776 22.1528 20.4515C22.0899 20.4341 21.9545 20.4252 21.7471 20.4252H21.1995ZM23.516 21.5631C23.4745 21.5775 23.4089 21.5945 23.3192 21.6144C23.2295 21.6342 23.1708 21.6538 23.1433 21.6729C23.101 21.704 23.0801 21.7434 23.0801 21.7911C23.0801 21.8381 23.0968 21.8786 23.1305 21.9129C23.1643 21.9471 23.2072 21.9642 23.2595 21.9642C23.3178 21.9642 23.3733 21.9443 23.4263 21.9046C23.4654 21.8743 23.4911 21.8373 23.5033 21.7935C23.5117 21.7648 23.516 21.7103 23.516 21.6298V21.5631ZM23.0801 21.2898L22.7883 21.2345C22.8214 21.1122 22.8782 21.0218 22.9589 20.963C23.0398 20.9043 23.1597 20.8749 23.3189 20.8749C23.4635 20.8749 23.5712 20.8926 23.6419 20.9277C23.7127 20.9633 23.7626 21.0081 23.7913 21.0624C23.8202 21.1168 23.8347 21.2167 23.8347 21.362L23.8314 21.7526C23.8314 21.8637 23.8365 21.9459 23.8468 21.9985C23.8572 22.0513 23.8766 22.1079 23.9051 22.1682H23.5831C23.5745 22.1464 23.5642 22.114 23.5519 22.071C23.5465 22.0514 23.5427 22.0386 23.5405 22.0323C23.4851 22.088 23.426 22.1298 23.363 22.1577C23.3 22.1854 23.2329 22.1994 23.1615 22.1994C23.0355 22.1994 22.9361 22.164 22.8635 22.0934C22.791 22.0227 22.7547 21.9332 22.7547 21.8252C22.7547 21.7539 22.7712 21.6901 22.8042 21.6341C22.8374 21.5781 22.8837 21.5352 22.9433 21.5054C23.0029 21.4758 23.0889 21.4495 23.2012 21.4273C23.3526 21.398 23.4576 21.3706 23.516 21.3452V21.3114C23.516 21.2464 23.5006 21.2 23.4697 21.1722C23.4387 21.1445 23.3804 21.1307 23.2945 21.1307C23.2366 21.1307 23.1914 21.1425 23.1589 21.166C23.1264 21.1896 23.1001 21.2309 23.0801 21.2898ZM24.4136 20.9059H24.0682L24.535 22.1717C24.5156 22.243 24.4879 22.3017 24.4515 22.348C24.4151 22.394 24.3592 22.4172 24.2833 22.4172C24.2424 22.4172 24.1963 22.4121 24.1453 22.4016L24.1755 22.6633C24.2355 22.6768 24.2969 22.6835 24.3593 22.6835C24.4209 22.6835 24.4762 22.6768 24.5251 22.6632C24.574 22.6498 24.615 22.6307 24.6486 22.6065C24.6821 22.5824 24.7118 22.5507 24.7376 22.5119C24.7633 22.4729 24.7905 22.4166 24.819 22.3427L25.3292 20.9059H24.9939L24.7071 21.8021L24.4136 20.9059ZM25.5828 20.9059H25.8813V21.0784C25.9885 20.9427 26.1161 20.8749 26.2642 20.8749C26.3428 20.8749 26.411 20.8914 26.4689 20.9248C26.5267 20.9582 26.5742 21.0086 26.6111 21.076C26.665 21.0086 26.7232 20.9582 26.7855 20.9248C26.8479 20.8914 26.9144 20.8749 26.9852 20.8749C27.0754 20.8749 27.1515 20.8937 27.2139 20.9315C27.2763 20.969 27.3229 21.0245 27.3537 21.0976C27.376 21.1515 27.3871 21.2388 27.3871 21.3596V22.1682H27.0618V21.4452C27.0618 21.3197 27.0507 21.2388 27.0285 21.2023C26.9984 21.1545 26.9524 21.1307 26.8902 21.1307C26.8448 21.1307 26.8021 21.145 26.7622 21.1736C26.7223 21.2023 26.6935 21.2441 26.6759 21.2994C26.6582 21.3545 26.6493 21.4417 26.6493 21.5607V22.1682H26.324V21.4751C26.324 21.3518 26.3183 21.2726 26.3067 21.2367C26.2952 21.201 26.2774 21.1744 26.2532 21.1569C26.2289 21.1396 26.1962 21.1307 26.1546 21.1307C26.1047 21.1307 26.0598 21.1447 26.0199 21.1724C25.9799 21.2002 25.9514 21.2404 25.934 21.2927C25.9167 21.3452 25.9081 21.432 25.9081 21.5536V22.1682H25.5828V20.9059ZM28.4345 21.2075C28.4811 21.2588 28.5053 21.3333 28.5077 21.4316H28.0205C28.0197 21.339 28.0425 21.2656 28.0889 21.2117C28.1352 21.1578 28.1941 21.1307 28.2651 21.1307C28.3317 21.1307 28.3882 21.1564 28.4345 21.2075ZM28.8129 21.8259L28.4909 21.7706C28.4731 21.8336 28.4467 21.8795 28.4116 21.9078C28.3768 21.9362 28.3337 21.9504 28.2825 21.9504C28.2071 21.9504 28.1442 21.9227 28.0939 21.8676C28.0434 21.8123 28.017 21.735 28.0147 21.6357H28.8296C28.8343 21.378 28.7837 21.1869 28.6781 21.062C28.5725 20.9373 28.4285 20.8749 28.2457 20.8749C28.083 20.8749 27.9487 20.9343 27.8422 21.0532C27.7359 21.1722 27.6826 21.3368 27.6826 21.5466C27.6826 21.7225 27.7231 21.8681 27.8041 21.9834C27.9067 22.1274 28.0648 22.1994 28.2783 22.1994C28.4133 22.1994 28.5257 22.1676 28.6156 22.1039C28.7055 22.0403 28.7712 21.9475 28.8129 21.8259ZM30.2773 22.1682H29.952V21.5226C29.952 21.386 29.945 21.2977 29.9314 21.2576C29.9175 21.2176 29.8951 21.1863 29.8641 21.164C29.8331 21.1419 29.7957 21.1307 29.7522 21.1307C29.6964 21.1307 29.6461 21.1466 29.6018 21.1784C29.5574 21.2102 29.527 21.2522 29.5105 21.3047C29.4941 21.357 29.4858 21.4538 29.4858 21.5953V22.1682H29.1605V20.9059H29.4623V21.0914C29.5692 20.947 29.7037 20.8749 29.8657 20.8749C29.9372 20.8749 30.0027 20.8882 30.0617 20.9148C30.1208 20.9414 30.1657 20.9753 30.196 21.0166C30.2264 21.0579 30.2475 21.1047 30.2594 21.1572C30.2714 21.2095 30.2773 21.2845 30.2773 21.3821V22.1682ZM31.2371 21.1722V20.9059H31.0157V20.4564L30.6904 20.6535V20.9059H30.5428V21.1722H30.6904V21.724C30.6904 21.8423 30.6937 21.921 30.7007 21.9599C30.7091 22.0147 30.7241 22.0582 30.7459 22.0903C30.7678 22.1225 30.802 22.1488 30.8486 22.169C30.8953 22.1892 30.9476 22.1994 31.0058 22.1994C31.1006 22.1994 31.1855 22.1827 31.2605 22.1494L31.2321 21.8906C31.176 21.912 31.1335 21.9227 31.1039 21.9227C31.0828 21.9227 31.065 21.9171 31.0502 21.906C31.0354 21.8948 31.026 21.8808 31.0219 21.8636C31.0177 21.8466 31.0157 21.7863 31.0157 21.6829V21.1722H31.2371ZM31.42 21.8121L31.7453 21.7602C31.7591 21.8247 31.7871 21.8736 31.8293 21.9071C31.8716 21.9407 31.9306 21.9573 32.0066 21.9573C32.0904 21.9573 32.1534 21.9413 32.1956 21.9095C32.224 21.887 32.2383 21.8572 32.2383 21.8196C32.2383 21.7941 32.2305 21.7729 32.215 21.7563C32.1987 21.7402 32.1624 21.7255 32.106 21.7119C31.8432 21.652 31.6765 21.5975 31.6063 21.5482C31.5089 21.48 31.4603 21.3849 31.4603 21.2635C31.4603 21.1537 31.5022 21.0615 31.5865 20.987C31.6708 20.9123 31.8014 20.8749 31.9784 20.8749C32.1469 20.8749 32.272 20.9028 32.354 20.9587C32.4359 21.0147 32.4923 21.0974 32.5234 21.2068L32.2181 21.2656C32.2049 21.2166 32.1798 21.1788 32.1429 21.1527C32.1059 21.1265 32.0532 21.1134 31.9848 21.1134C31.8985 21.1134 31.8366 21.1257 31.7994 21.1506C31.7744 21.1681 31.762 21.1908 31.762 21.2187C31.762 21.2427 31.7728 21.2631 31.7944 21.2799C31.8237 21.3021 31.9252 21.3337 32.0985 21.3744C32.2718 21.4151 32.3929 21.4649 32.4617 21.5239C32.5295 21.5837 32.5636 21.667 32.5636 21.7738C32.5636 21.8901 32.5166 21.9901 32.4229 22.0738C32.329 22.1576 32.1903 22.1994 32.0066 22.1994C31.84 22.1994 31.7079 22.1645 31.6107 22.0951C31.5135 22.0255 31.4499 21.9314 31.42 21.8121ZM34.3071 20.8334L34.5434 21.4801H34.0787L34.3071 20.8334ZM34.8024 22.1682H35.1707L34.4882 20.4252H34.1284L33.4737 22.1682H33.8357L33.975 21.774H34.6562L34.8024 22.1682ZM35.729 22.1682H35.4038V20.9059H35.7055V21.0854C35.7572 21.0007 35.8034 20.9445 35.8447 20.9166C35.8858 20.8888 35.9325 20.8749 35.985 20.8749C36.0588 20.8749 36.13 20.896 36.1986 20.9382L36.0996 21.2304C36.0448 21.194 35.9938 21.1757 35.9468 21.1757C35.9011 21.1757 35.8625 21.1887 35.8309 21.2144C35.7992 21.2403 35.7743 21.2869 35.7563 21.3542C35.7381 21.4216 35.729 21.563 35.729 21.7779V22.1682ZM37.0649 21.2075C37.1113 21.2588 37.1356 21.3333 37.138 21.4316H36.6508C36.6499 21.339 36.6728 21.2656 36.7192 21.2117C36.7656 21.1578 36.8243 21.1307 36.8956 21.1307C36.962 21.1307 37.0184 21.1564 37.0649 21.2075ZM37.4432 21.8259L37.1212 21.7706C37.1033 21.8336 37.0769 21.8795 37.042 21.9078C37.007 21.9362 36.964 21.9504 36.9127 21.9504C36.8375 21.9504 36.7746 21.9227 36.724 21.8676C36.6737 21.8123 36.6473 21.735 36.6449 21.6357H37.4599C37.4645 21.378 37.414 21.1869 37.3085 21.062C37.2028 20.9373 37.0587 20.8749 36.876 20.8749C36.7134 20.8749 36.5788 20.9343 36.4726 21.0532C36.3661 21.1722 36.3129 21.3368 36.3129 21.5466C36.3129 21.7225 36.3533 21.8681 36.4344 21.9834C36.5369 22.1274 36.6951 22.1994 36.9087 22.1994C37.0436 22.1994 37.1561 22.1676 37.2459 22.1039C37.3358 22.0403 37.4015 21.9475 37.4432 21.8259ZM38.4683 21.5631C38.4268 21.5775 38.3612 21.5945 38.2715 21.6144C38.1817 21.6342 38.1231 21.6538 38.0956 21.6729C38.0533 21.704 38.0323 21.7434 38.0323 21.7911C38.0323 21.8381 38.0491 21.8786 38.0829 21.9129C38.1166 21.9471 38.1595 21.9642 38.2118 21.9642C38.2701 21.9642 38.3255 21.9443 38.3786 21.9046C38.4176 21.8743 38.4434 21.8373 38.4556 21.7935C38.464 21.7648 38.4683 21.7103 38.4683 21.6298V21.5631ZM38.0323 21.2898L37.7405 21.2345C37.7736 21.1122 37.8304 21.0218 37.9111 20.963C37.9919 20.9043 38.1119 20.8749 38.2711 20.8749C38.4156 20.8749 38.5234 20.8926 38.5941 20.9277C38.6648 20.9633 38.7147 21.0081 38.7435 21.0624C38.7724 21.1168 38.7869 21.2167 38.7869 21.362L38.7835 21.7526C38.7835 21.8637 38.7887 21.9459 38.799 21.9985C38.8094 22.0513 38.8288 22.1079 38.8572 22.1682H38.5353C38.5267 22.1464 38.5165 22.114 38.5041 22.071C38.4988 22.0514 38.4948 22.0386 38.4927 22.0323C38.4373 22.088 38.3783 22.1298 38.3153 22.1577C38.2523 22.1854 38.1851 22.1994 38.1136 22.1994C37.9877 22.1994 37.8883 22.164 37.8157 22.0934C37.7433 22.0227 37.707 21.9332 37.707 21.8252C37.707 21.7539 37.7234 21.6901 37.7565 21.6341C37.7895 21.5781 37.8359 21.5352 37.8955 21.5054C37.9551 21.4758 38.0411 21.4495 38.1534 21.4273C38.3048 21.398 38.4097 21.3706 38.4682 21.3452V21.3114C38.4682 21.2464 38.4528 21.2 38.4219 21.1722C38.391 21.1445 38.3326 21.1307 38.2467 21.1307C38.1888 21.1307 38.1436 21.1425 38.1111 21.166C38.0787 21.1896 38.0523 21.2309 38.0323 21.2898ZM34.3929 12.4808L35.5084 16.435H33.3104L34.3929 12.4808ZM32.7981 18.212H35.9813L36.4355 19.7886H38.847L36.1565 10.6667H32.5651L29.9072 19.7886H32.3705L32.7981 18.212Z" fill="#10298E"/>
<path fill-rule="evenodd" clip-rule="evenodd" d="M20.1221 11.9501C21.104 11.9501 21.9804 12.4165 22.5565 13.1471L23.0697 12.0125C22.2671 11.2302 21.1747 10.7479 19.9698 10.7479C18.0938 10.7479 16.4891 11.9162 15.8304 13.57H14.8297L14.2388 14.8763H15.5262C15.5165 14.9974 15.5103 15.1187 15.5103 15.2425C15.5103 15.3922 15.5178 15.5401 15.5322 15.6863H14.8852L14.2944 16.9931H15.8611C16.5385 18.605 18.1232 19.7367 19.9698 19.7367C20.9004 19.7367 21.7639 19.4492 22.4788 18.958V17.3566C21.903 18.0325 21.0609 18.4597 20.1221 18.4597C19.0246 18.4597 18.0593 17.8762 17.4971 16.9931H20.778L21.3688 15.6863H17.0144C16.992 15.5291 16.9799 15.3684 16.9799 15.2047C16.9799 15.0941 16.9855 14.9845 16.9958 14.8763H21.735L22.3258 13.57H17.4057C17.9498 12.6017 18.9624 11.9501 20.1221 11.9501Z" fill="#FFBE00"/>
</svg>
