<svg width="28" height="20" viewBox="0 0 28 20" fill="none" xmlns="http://www.w3.org/2000/svg">
<path fill-rule="evenodd" clip-rule="evenodd" d="M15.9285 9.57335H16.8452C17.1359 9.56242 17.3127 9.53911 17.3763 9.5026C17.4632 9.45273 17.5216 9.35292 17.5506 9.20318C17.5692 9.10351 17.5784 8.95536 17.5784 8.75851C17.5784 8.5174 17.56 8.33868 17.523 8.22193C17.4701 8.05842 17.3434 7.95882 17.1427 7.92265C17.1031 7.91718 17.0081 7.91428 16.8576 7.91428H15.9285V9.57335ZM14.458 12.3679V6.66669H17.1976C17.5734 6.66669 17.8602 6.69871 18.0572 6.76269C18.5078 6.91001 18.8101 7.21164 18.9649 7.66751C19.0449 7.90675 19.0849 8.26697 19.0849 8.74794C19.0849 9.32624 19.0405 9.74185 18.9528 9.99486C18.7771 10.4952 18.4154 10.7834 17.8692 10.8581C17.8049 10.8693 17.5316 10.8793 17.0493 10.8874L16.8051 10.8959H15.9284V12.3679H14.458ZM7.07408 8.48532H8.44209C8.45091 8.35937 8.45535 8.26517 8.45535 8.20216C8.45535 7.43394 8.15773 6.96645 7.56241 6.79955C7.31848 6.73129 6.9093 6.69684 6.33513 6.69684C5.97042 6.69684 5.63886 6.71074 5.33997 6.73793C4.98077 6.76808 4.68566 6.869 4.45505 7.04087C4.29762 7.15285 4.18355 7.31656 4.11275 7.53222C4.04203 7.74781 4.00663 8.03443 4.00663 8.39188C4.00663 8.86124 4.07212 9.21211 4.20303 9.44402C4.35198 9.71695 4.65047 9.89671 5.09836 9.98414C5.26845 10.0145 5.57217 10.0458 6.0094 10.0784C6.55387 10.1167 6.85892 10.1468 6.92448 10.1685C7.0998 10.2232 7.18763 10.376 7.18763 10.627C7.18763 10.739 7.17722 10.8306 7.15628 10.9013C7.11684 11.0163 7.03431 11.0994 6.90857 11.151C6.83791 11.1785 6.67411 11.1922 6.41745 11.1922H5.91454C5.78064 11.1891 5.66676 11.1635 5.57244 11.1146C5.43635 11.0437 5.36814 10.8845 5.36814 10.6369L5.36801 10.5184H4C4 10.9823 4.03255 11.3136 4.0983 11.5126C4.21636 11.8701 4.46029 12.1074 4.8303 12.2246C5.13177 12.3203 5.6657 12.3679 6.43184 12.3679C6.8908 12.3679 7.23204 12.3459 7.4551 12.3021C7.9875 12.1984 8.32967 11.9515 8.482 11.5607C8.56605 11.3477 8.60801 11.0115 8.60801 10.5525C8.60801 10.3534 8.59886 10.1742 8.58043 10.0158C8.54895 9.75105 8.45025 9.53664 8.28473 9.37258C8.07441 9.16231 7.73542 9.03256 7.26784 8.98338C7.12055 8.96699 6.75127 8.93815 6.16 8.8972L5.88412 8.87687C5.76301 8.86871 5.6659 8.84139 5.59239 8.79491C5.48978 8.72941 5.43861 8.59274 5.43861 8.38517C5.43861 8.15589 5.49641 8.00697 5.61188 7.9385C5.72742 7.87023 5.96419 7.83614 6.32134 7.83614C6.68909 7.83614 6.9138 7.89541 6.9952 8.01382C7.0477 8.09385 7.07408 8.25106 7.07408 8.48532ZM4.00525 13.4985L4.21034 13.4769C4.22267 13.5491 4.24772 13.602 4.28544 13.6359C4.32322 13.6697 4.37413 13.6866 4.43823 13.6866C4.50611 13.6866 4.55721 13.6716 4.59168 13.6415C4.62609 13.6115 4.64325 13.5763 4.64325 13.5361C4.64325 13.5103 4.63603 13.4883 4.62164 13.4701C4.60719 13.452 4.582 13.4363 4.54601 13.4228C4.52135 13.4141 4.46528 13.3983 4.37771 13.3756C4.26496 13.3465 4.18595 13.3107 4.14047 13.2682C4.07657 13.2084 4.04462 13.1355 4.04462 13.0495C4.04462 12.9942 4.05967 12.9424 4.08983 12.8943C4.11992 12.8461 4.16341 12.8093 4.22008 12.7842C4.27682 12.759 4.3453 12.7463 4.4255 12.7463C4.55648 12.7463 4.65505 12.7764 4.72127 12.8365C4.78749 12.8966 4.82223 12.9767 4.82554 13.077L4.61429 13.0857C4.60527 13.0296 4.58592 12.9894 4.55622 12.9648C4.52659 12.9402 4.48211 12.9279 4.42279 12.9279C4.36154 12.9279 4.31368 12.941 4.27901 12.9673C4.25667 12.9841 4.24554 13.0067 4.24554 13.0349C4.24554 13.0607 4.25601 13.0827 4.27689 13.1011C4.3034 13.1243 4.3679 13.1486 4.47038 13.1737C4.57279 13.1989 4.64856 13.225 4.69767 13.2521C4.74673 13.2791 4.78517 13.3161 4.81295 13.363C4.84065 13.41 4.85457 13.468 4.85457 13.537C4.85457 13.5997 4.83794 13.6583 4.80466 13.7129C4.77138 13.7676 4.72439 13.8082 4.6636 13.8347C4.60282 13.8613 4.52705 13.8746 4.43631 13.8746C4.30427 13.8746 4.20285 13.8426 4.13205 13.7786C4.06133 13.7145 4.01904 13.6212 4.00525 13.4985ZM5.07352 13.0662H5.27444V13.8551H5.07352V13.0662ZM5.07352 12.7658H5.27444V12.9582H5.07352V12.7658ZM6.01125 13.8551H6.21217V13.3638C6.21217 13.3028 6.20846 13.2559 6.2011 13.2232C6.19374 13.1904 6.18068 13.1612 6.16192 13.1354C6.14316 13.1096 6.11552 13.0884 6.079 13.0718C6.04247 13.0552 6.00211 13.0468 5.95796 13.0468C5.85787 13.0468 5.77475 13.0919 5.70879 13.1821V13.0662H5.52239V13.8551H5.72331V13.4971C5.72331 13.4087 5.72834 13.3481 5.73855 13.3154C5.74869 13.2826 5.76745 13.2564 5.7949 13.2365C5.82234 13.2167 5.85329 13.2067 5.88783 13.2067C5.91474 13.2067 5.93781 13.2137 5.95697 13.2275C5.97612 13.2414 5.98991 13.261 5.99846 13.286C6.00695 13.3111 6.01125 13.3663 6.01125 13.4516V13.8551ZM6.6185 13.4437C6.6185 13.5276 6.63387 13.5891 6.66476 13.6281C6.69559 13.6671 6.73363 13.6866 6.77891 13.6866C6.82736 13.6866 6.86833 13.6666 6.9018 13.6266C6.93521 13.5866 6.95198 13.5274 6.95198 13.4488C6.95198 13.367 6.93594 13.3061 6.90392 13.2663C6.87184 13.2266 6.83141 13.2067 6.78242 13.2067C6.73483 13.2067 6.69559 13.2263 6.66476 13.2652C6.63387 13.3043 6.6185 13.3637 6.6185 13.4437ZM6.4383 13.907L6.66613 13.9329C6.66997 13.9623 6.67879 13.9825 6.69257 13.9936C6.71166 14.0094 6.74169 14.0172 6.78266 14.0172C6.83509 14.0172 6.8744 14.0091 6.90065 13.9928C6.91821 13.9818 6.9316 13.9643 6.94068 13.94C6.94685 13.9226 6.94996 13.8907 6.94996 13.8441L6.95056 13.7289C6.8913 13.8131 6.81613 13.8551 6.72492 13.8551C6.62317 13.8551 6.5427 13.8103 6.48331 13.7205C6.43671 13.6495 6.41344 13.5611 6.41344 13.4554C6.41344 13.3229 6.44393 13.2217 6.50498 13.1517C6.56603 13.0818 6.642 13.0468 6.73274 13.0468C6.82634 13.0468 6.90356 13.0897 6.96441 13.1755V13.0662H7.15087V13.7754C7.15087 13.8687 7.14352 13.9384 7.12874 13.9845C7.11402 14.0307 7.09334 14.0668 7.06669 14.0931C7.04004 14.1194 7.00452 14.14 6.96004 14.1549C6.91556 14.1698 6.85935 14.1772 6.79141 14.1772C6.66301 14.1772 6.57193 14.1541 6.51817 14.108C6.46442 14.0619 6.43757 14.0033 6.43757 13.9325C6.43757 13.9255 6.43784 13.917 6.4383 13.907ZM7.59236 12.7658H7.39144V13.8551H7.59236V12.7658ZM8.29191 13.3948C8.29052 13.3333 8.27547 13.2867 8.24677 13.2547C8.21814 13.2227 8.18327 13.2067 8.14217 13.2067C8.09822 13.2067 8.0619 13.2236 8.03326 13.2573C8.00456 13.291 7.99051 13.3369 7.99097 13.3948H8.29191ZM8.28158 13.6066L8.48043 13.6412C8.45472 13.7172 8.41408 13.7752 8.3586 13.8149C8.30312 13.8548 8.23365 13.8746 8.15033 13.8746C8.01835 13.8746 7.92072 13.8296 7.85741 13.7396C7.80737 13.6675 7.78238 13.5766 7.78238 13.4666C7.78238 13.3355 7.81519 13.2326 7.88094 13.1583C7.94663 13.0839 8.02969 13.0468 8.13011 13.0468C8.243 13.0468 8.33202 13.0858 8.39725 13.1637C8.46247 13.2418 8.49363 13.3613 8.49077 13.5223H7.98747C7.98886 13.5844 8.00516 13.6327 8.03632 13.6673C8.06747 13.7017 8.10632 13.719 8.15285 13.719C8.18447 13.719 8.21111 13.7102 8.23266 13.6924C8.2542 13.6747 8.27057 13.646 8.28158 13.6066ZM9.14815 12.7658V13.8551H9.94153V13.6714H9.35947V13.3753H9.88147V13.1916H9.35947V12.9495H9.92084V12.7658H9.14815ZM10.6597 13.8551V13.737C10.6321 13.7791 10.5958 13.8126 10.5508 13.8374C10.5058 13.8622 10.4583 13.8746 10.4083 13.8746C10.3574 13.8746 10.3118 13.8629 10.2713 13.8396C10.2308 13.8163 10.2015 13.7835 10.1834 13.7414C10.1653 13.6992 10.1563 13.6409 10.1563 13.5665V13.0662H10.3572V13.4291C10.3572 13.5401 10.3609 13.6082 10.3683 13.6332C10.3757 13.6583 10.3891 13.6781 10.4085 13.6928C10.428 13.7074 10.4527 13.7146 10.4826 13.7146C10.5169 13.7146 10.5475 13.705 10.5746 13.6853C10.6017 13.6657 10.6202 13.6415 10.6302 13.6124C10.6401 13.5834 10.6452 13.5124 10.6452 13.3994V13.0662H10.8461V13.8551H10.6597ZM11.0867 13.8551H11.2876V13.6112C11.2876 13.4769 11.2933 13.3885 11.3045 13.3464C11.3157 13.3043 11.331 13.2752 11.3506 13.259C11.3702 13.2429 11.3939 13.2348 11.4221 13.2348C11.4512 13.2348 11.4827 13.2463 11.5165 13.269L11.5776 13.0863C11.5353 13.06 11.4913 13.0468 11.4457 13.0468C11.4134 13.0468 11.3845 13.0555 11.3591 13.0729C11.3336 13.0903 11.305 13.1254 11.2731 13.1784V13.0662H11.0867V13.8551ZM11.8637 13.4607C11.8637 13.5393 11.8816 13.5994 11.9173 13.6412C11.953 13.683 11.997 13.7039 12.0495 13.7039C12.1018 13.7039 12.1458 13.683 12.1813 13.6412C12.2167 13.5994 12.2345 13.5388 12.2345 13.4592C12.2345 13.3817 12.2167 13.3219 12.1813 13.2802C12.1458 13.2385 12.1018 13.2176 12.0495 13.2176C11.997 13.2176 11.953 13.2385 11.9173 13.2802C11.8816 13.3219 11.8637 13.3822 11.8637 13.4607ZM11.6587 13.4495C11.6587 13.3799 11.675 13.3125 11.7078 13.2474C11.7406 13.1823 11.787 13.1326 11.8471 13.0982C11.9072 13.0639 11.9743 13.0468 12.0484 13.0468C12.1629 13.0468 12.2567 13.0857 12.3299 13.1635C12.403 13.2413 12.4396 13.3396 12.4396 13.4585C12.4396 13.5783 12.4026 13.6776 12.3287 13.7564C12.2549 13.8352 12.1619 13.8746 12.0498 13.8746C11.9805 13.8746 11.9143 13.8582 11.8514 13.8255C11.7884 13.7926 11.7406 13.7445 11.7078 13.6811C11.675 13.6177 11.6587 13.5406 11.6587 13.4495ZM13.3051 13.2608V12.9496H13.4066C13.4824 12.9496 13.5328 12.952 13.5579 12.957C13.592 12.9635 13.6202 12.9797 13.6425 13.0056C13.6647 13.0316 13.6759 13.0645 13.6759 13.1044C13.6759 13.1369 13.6679 13.1653 13.6521 13.1897C13.6362 13.2142 13.6143 13.2322 13.5864 13.2436C13.5584 13.2551 13.503 13.2608 13.4201 13.2608H13.3051ZM13.0938 12.7658V13.8551H13.3051V13.4445H13.4424C13.5377 13.4445 13.6105 13.4393 13.6608 13.4289C13.6977 13.4204 13.7341 13.4033 13.7699 13.3772C13.8057 13.3512 13.8353 13.3154 13.8585 13.2698C13.8818 13.2241 13.8934 13.168 13.8934 13.1011C13.8934 13.0144 13.8732 12.9436 13.8328 12.8889C13.7925 12.8341 13.7424 12.7985 13.6826 12.7822C13.6437 12.7713 13.5601 12.7658 13.432 12.7658H13.0938ZM14.5246 13.4769C14.4989 13.4859 14.4584 13.4966 14.403 13.509C14.3476 13.5214 14.3113 13.5336 14.2944 13.5455C14.2683 13.565 14.2553 13.5896 14.2553 13.6194C14.2553 13.6488 14.2657 13.6741 14.2865 13.6956C14.3074 13.7169 14.3339 13.7277 14.3662 13.7277C14.4022 13.7277 14.4364 13.7152 14.4692 13.6904C14.4933 13.6714 14.5092 13.6483 14.5168 13.6209C14.5219 13.603 14.5246 13.5689 14.5246 13.5186V13.4769ZM14.2554 13.3062L14.0751 13.2716C14.0955 13.1951 14.1307 13.1386 14.1805 13.1019C14.2304 13.0652 14.3045 13.0468 14.4028 13.0468C14.4921 13.0468 14.5587 13.0579 14.6024 13.0798C14.6461 13.1021 14.6769 13.1301 14.6946 13.164C14.7125 13.198 14.7214 13.2604 14.7214 13.3513L14.7194 13.5954C14.7194 13.6648 14.7225 13.7162 14.7289 13.7491C14.7353 13.7821 14.7473 13.8174 14.7649 13.8551H14.566C14.5607 13.8415 14.5544 13.8212 14.5468 13.7944C14.5434 13.7822 14.5411 13.7741 14.5397 13.7702C14.5055 13.805 14.469 13.8311 14.4301 13.8486C14.3912 13.8659 14.3498 13.8746 14.3056 13.8746C14.2278 13.8746 14.1664 13.8525 14.1216 13.8084C14.0768 13.7642 14.0544 13.7083 14.0544 13.6408C14.0544 13.5962 14.0646 13.5563 14.0849 13.5213C14.1054 13.4863 14.1341 13.4595 14.1708 13.4409C14.2077 13.4224 14.2608 13.406 14.3301 13.3921C14.4237 13.3737 14.4885 13.3566 14.5246 13.3407V13.3196C14.5246 13.279 14.5151 13.25 14.496 13.2326C14.4768 13.2153 14.4408 13.2067 14.3878 13.2067C14.352 13.2067 14.3241 13.2141 14.304 13.2288C14.2839 13.2435 14.2677 13.2693 14.2554 13.3062ZM15.079 13.0662H14.8657L15.1539 13.8573C15.142 13.9019 15.1248 13.9386 15.1024 13.9675C15.0799 13.9963 15.0454 14.0107 14.9985 14.0107C14.9732 14.0107 14.9447 14.0076 14.9133 14.001L14.932 14.1646C14.969 14.173 15.0069 14.1772 15.0454 14.1772C15.0835 14.1772 15.1176 14.173 15.1478 14.1645C15.1781 14.1561 15.2034 14.1442 15.2241 14.1291C15.2448 14.114 15.2632 14.0942 15.2791 14.0699C15.295 14.0456 15.3118 14.0104 15.3294 13.9642L15.6445 13.0662H15.4374L15.2603 13.6263L15.079 13.0662ZM15.8012 13.0662H15.9855V13.174C16.0517 13.0892 16.1305 13.0468 16.222 13.0468C16.2705 13.0468 16.3127 13.0572 16.3484 13.078C16.3842 13.0989 16.4135 13.1304 16.4363 13.1725C16.4695 13.1304 16.5055 13.0989 16.544 13.078C16.5825 13.0572 16.6236 13.0468 16.6673 13.0468C16.723 13.0468 16.7701 13.0585 16.8086 13.0822C16.8471 13.1056 16.8759 13.1403 16.895 13.186C16.9087 13.2197 16.9156 13.2743 16.9156 13.3497V13.8551H16.7147V13.4033C16.7147 13.3248 16.7078 13.2743 16.694 13.2514C16.6755 13.2216 16.647 13.2067 16.6087 13.2067C16.5806 13.2067 16.5542 13.2156 16.5296 13.2335C16.5049 13.2514 16.4872 13.2776 16.4763 13.3121C16.4654 13.3465 16.4599 13.4011 16.4599 13.4755V13.8551H16.2589V13.4219C16.2589 13.3449 16.2554 13.2954 16.2483 13.273C16.2412 13.2506 16.2302 13.234 16.2152 13.2231C16.2002 13.2122 16.18 13.2067 16.1543 13.2067C16.1235 13.2067 16.0957 13.2154 16.0711 13.2328C16.0464 13.2501 16.0288 13.2752 16.0181 13.308C16.0074 13.3407 16.0021 13.395 16.0021 13.471V13.8551H15.8012V13.0662ZM17.5625 13.2547C17.5912 13.2867 17.6062 13.3333 17.6077 13.3948H17.3067C17.3063 13.3369 17.3203 13.291 17.349 13.2573C17.3776 13.2236 17.414 13.2067 17.4579 13.2067C17.499 13.2067 17.5339 13.2227 17.5625 13.2547ZM17.7962 13.6412L17.5973 13.6066C17.5863 13.646 17.57 13.6747 17.5484 13.6924C17.5268 13.7102 17.5002 13.719 17.4686 13.719C17.422 13.719 17.3832 13.7017 17.3521 13.6673C17.3209 13.6327 17.3046 13.5844 17.3032 13.5223H17.8065C17.8094 13.3613 17.7782 13.2418 17.7129 13.1637C17.6477 13.0858 17.5588 13.0468 17.4459 13.0468C17.3454 13.0468 17.2624 13.0839 17.1966 13.1583C17.131 13.2326 17.0981 13.3355 17.0981 13.4666C17.0981 13.5766 17.1231 13.6675 17.1731 13.7396C17.2365 13.8296 17.3341 13.8746 17.466 13.8746C17.5494 13.8746 17.6188 13.8548 17.6744 13.8149C17.7298 13.7752 17.7704 13.7172 17.7962 13.6412ZM18.7007 13.8551H18.4998V13.4516C18.4998 13.3663 18.4955 13.3111 18.487 13.286C18.4785 13.261 18.4646 13.2414 18.4455 13.2275C18.4263 13.2137 18.4032 13.2067 18.3763 13.2067C18.3419 13.2067 18.3108 13.2167 18.2835 13.2365C18.256 13.2564 18.2373 13.2826 18.2271 13.3154C18.2169 13.3481 18.2118 13.4087 18.2118 13.4971V13.8551H18.0109V13.0662H18.1973V13.1821C18.2633 13.0919 18.3464 13.0468 18.4465 13.0468C18.4906 13.0468 18.531 13.0552 18.5675 13.0718C18.604 13.0884 18.6317 13.1096 18.6505 13.1354C18.6693 13.1612 18.6822 13.1904 18.6896 13.2232C18.697 13.2559 18.7007 13.3028 18.7007 13.3638V13.8551ZM19.2935 13.2326V13.0662H19.1568V12.7853L18.9558 12.9085V13.0662H18.8647V13.2326H18.9558V13.5775C18.9558 13.6514 18.9579 13.7006 18.9622 13.725C18.9674 13.7592 18.9767 13.7864 18.9901 13.8064C19.0036 13.8266 19.0248 13.843 19.0535 13.8556C19.0824 13.8683 19.1147 13.8746 19.1507 13.8746C19.2092 13.8746 19.2616 13.8642 19.308 13.8434L19.2904 13.6817C19.2558 13.695 19.2295 13.7017 19.2112 13.7017C19.1982 13.7017 19.1872 13.6982 19.178 13.6913C19.169 13.6843 19.1631 13.6755 19.1606 13.6648C19.158 13.6541 19.1568 13.6164 19.1568 13.5518V13.2326H19.2935ZM19.4065 13.6325L19.6074 13.6001C19.6159 13.6404 19.6332 13.671 19.6593 13.692C19.6854 13.7129 19.7219 13.7233 19.7688 13.7233C19.8206 13.7233 19.8595 13.7133 19.8855 13.6934C19.9031 13.6794 19.9119 13.6608 19.9119 13.6373C19.9119 13.6213 19.9071 13.6081 19.8975 13.5977C19.8874 13.5877 19.865 13.5785 19.8302 13.57C19.6678 13.5325 19.5649 13.4984 19.5215 13.4677C19.4614 13.425 19.4313 13.3656 19.4313 13.2897C19.4313 13.2211 19.4572 13.1635 19.5093 13.1169C19.5614 13.0702 19.6421 13.0468 19.7514 13.0468C19.8554 13.0468 19.9327 13.0643 19.9834 13.0992C20.0339 13.1342 20.0688 13.1859 20.088 13.2543L19.8994 13.291C19.8913 13.2604 19.8758 13.2368 19.853 13.2205C19.8301 13.2041 19.7976 13.1959 19.7553 13.1959C19.702 13.1959 19.6638 13.2036 19.6408 13.2191C19.6253 13.2301 19.6177 13.2443 19.6177 13.2617C19.6177 13.2767 19.6244 13.2894 19.6377 13.2999C19.6558 13.3138 19.7185 13.3335 19.8255 13.359C19.9326 13.3845 20.0074 13.4156 20.0498 13.4524C20.0917 13.4898 20.1128 13.5419 20.1128 13.6086C20.1128 13.6813 20.0838 13.7438 20.0259 13.7961C19.9679 13.8485 19.8823 13.8746 19.7688 13.8746C19.6658 13.8746 19.5843 13.8528 19.5243 13.8095C19.4642 13.766 19.425 13.7071 19.4065 13.6325ZM21.1897 13.0209L21.3356 13.4251H21.0486L21.1897 13.0209ZM21.4956 13.8551H21.7231L21.3015 12.7658H21.0793L20.6749 13.8551H20.8985L20.9845 13.6088H21.4053L21.4956 13.8551ZM22.0679 13.8551H21.867V13.0662H22.0534V13.1784C22.0853 13.1254 22.1139 13.0903 22.1394 13.0729C22.1648 13.0555 22.1936 13.0468 22.226 13.0468C22.2716 13.0468 22.3156 13.06 22.3579 13.0863L22.2968 13.269C22.2629 13.2463 22.2315 13.2348 22.2024 13.2348C22.1742 13.2348 22.1504 13.2429 22.1308 13.259C22.1113 13.2752 22.0959 13.3043 22.0848 13.3464C22.0735 13.3885 22.0679 13.4769 22.0679 13.6112V13.8551ZM22.893 13.2547C22.9217 13.2867 22.9367 13.3333 22.9382 13.3948H22.6372C22.6367 13.3369 22.6508 13.291 22.6795 13.2573C22.7082 13.2236 22.7444 13.2067 22.7884 13.2067C22.8295 13.2067 22.8643 13.2227 22.893 13.2547ZM23.1267 13.6412L22.9278 13.6066C22.9167 13.646 22.9004 13.6747 22.8789 13.6924C22.8573 13.7102 22.8307 13.719 22.799 13.719C22.7526 13.719 22.7137 13.7017 22.6825 13.6673C22.6514 13.6327 22.6351 13.5844 22.6336 13.5223H23.137C23.1399 13.3613 23.1086 13.2418 23.0435 13.1637C22.9782 13.0858 22.8892 13.0468 22.7763 13.0468C22.6759 13.0468 22.5928 13.0839 22.5272 13.1583C22.4614 13.2326 22.4285 13.3355 22.4285 13.4666C22.4285 13.5766 22.4535 13.6675 22.5036 13.7396C22.5669 13.8296 22.6646 13.8746 22.7966 13.8746C22.8799 13.8746 22.9494 13.8548 23.0048 13.8149C23.0603 13.7752 23.101 13.7172 23.1267 13.6412ZM23.7598 13.4769C23.7342 13.4859 23.6937 13.4966 23.6382 13.509C23.5828 13.5214 23.5466 13.5336 23.5296 13.5455C23.5035 13.565 23.4906 13.5896 23.4906 13.6194C23.4906 13.6488 23.5009 13.6741 23.5218 13.6956C23.5426 13.7169 23.5691 13.7277 23.6014 13.7277C23.6374 13.7277 23.6717 13.7152 23.7044 13.6904C23.7285 13.6714 23.7444 13.6483 23.752 13.6209C23.7572 13.603 23.7598 13.5689 23.7598 13.5186V13.4769ZM23.4905 13.3062L23.3103 13.2716C23.3307 13.1951 23.3659 13.1386 23.4157 13.1019C23.4656 13.0652 23.5397 13.0468 23.638 13.0468C23.7273 13.0468 23.7939 13.0579 23.8375 13.0798C23.8812 13.1021 23.912 13.1301 23.9298 13.164C23.9476 13.198 23.9566 13.2604 23.9566 13.3513L23.9545 13.5954C23.9545 13.6648 23.9577 13.7162 23.9641 13.7491C23.9705 13.7821 23.9825 13.8174 24 13.8551H23.8012C23.7959 13.8415 23.7896 13.8212 23.7819 13.7944C23.7787 13.7822 23.7762 13.7741 23.7749 13.7702C23.7407 13.805 23.7042 13.8311 23.6653 13.8486C23.6264 13.8659 23.5849 13.8746 23.5408 13.8746C23.463 13.8746 23.4016 13.8525 23.3568 13.8084C23.312 13.7642 23.2896 13.7083 23.2896 13.6408C23.2896 13.5962 23.2998 13.5563 23.3202 13.5213C23.3406 13.4863 23.3692 13.4595 23.406 13.4409C23.4429 13.4224 23.496 13.406 23.5653 13.3921C23.6588 13.3737 23.7237 13.3566 23.7598 13.3407V13.3196C23.7598 13.279 23.7502 13.25 23.7312 13.2326C23.7121 13.2153 23.676 13.2067 23.623 13.2067C23.5872 13.2067 23.5593 13.2141 23.5392 13.2288C23.5192 13.2435 23.5029 13.2693 23.4905 13.3062ZM21.2427 7.80051L21.9317 10.2719H20.5741L21.2427 7.80051ZM20.2577 11.3825H22.2238L22.5043 12.3679H23.9937L22.332 6.66669H20.1138L18.4721 12.3679H19.9935L20.2577 11.3825Z" fill="#10298E"/>
<path fill-rule="evenodd" clip-rule="evenodd" d="M12.4284 7.46881C13.0349 7.46881 13.5762 7.76034 13.932 8.21697L14.249 7.50782C13.7532 7.01889 13.0785 6.71747 12.3343 6.71747C11.1756 6.71747 10.1844 7.44765 9.77764 8.48126H9.15953L8.79456 9.29768H9.58972C9.58376 9.37342 9.57991 9.44923 9.57991 9.52655C9.57991 9.62013 9.58455 9.71261 9.59344 9.80398H9.1938L8.82889 10.6207H9.7966C10.215 11.6281 11.1938 12.3354 12.3343 12.3354C12.9091 12.3354 13.4424 12.1557 13.884 11.8488V10.8479C13.5284 11.2704 13.0082 11.5373 12.4284 11.5373C11.7505 11.5373 11.1543 11.1726 10.8071 10.6207H12.8335L13.1984 9.80398H10.5089C10.4951 9.70569 10.4876 9.60526 10.4876 9.50297C10.4876 9.4338 10.4911 9.36533 10.4974 9.29768H13.4246L13.7895 8.48126H10.7506C11.0867 7.87606 11.7121 7.46881 12.4284 7.46881Z" fill="#FFBE00"/>
</svg>
