<svg width="46" height="32" viewBox="0 0 46 32" fill="none" xmlns="http://www.w3.org/2000/svg">
<path d="M22.5073 5.15706C16.5185 5.42777 11.8834 10.501 12.1561 16.4877C12.4268 22.4764 17.5001 27.1095 23.4868 26.8388C29.4755 26.5702 34.1065 21.4948 33.8358 15.5082C33.5754 9.68684 28.775 5.14673 23.0073 5.14673C22.842 5.14673 22.6746 5.15086 22.5073 5.15706Z" fill="url(#paint0_radial_301_3074)"/>
<path d="M22.7986 5C22.6994 5.00207 22.6023 5.0062 22.5031 5.01033C16.4317 5.28518 11.7366 10.4266 12.0115 16.496C12.276 22.3648 17.0951 26.9504 22.902 27H23.0838C23.2223 27 23.3587 26.9959 23.4971 26.9897C29.3432 26.7252 33.9164 21.9412 33.997 16.1633V15.8491C33.997 15.7334 33.9929 15.6177 33.9867 15.502C33.7242 9.6765 28.9713 5.11366 23.2243 5H22.7986ZM23.8112 25.6733C23.8009 25.4253 24.1646 25.3613 24.1646 25.3613C27.4173 24.7206 26.4667 22.588 25.3156 21.499C24.8321 21.0402 20.3023 17.1345 20.3023 17.1345C15.9833 13.4169 16.3284 10.5134 16.3284 10.5134C16.5371 6.94045 19.6658 6.05598 22.0299 6.26057C22.3068 6.2833 22.4597 6.45275 22.4101 6.6842C22.3585 6.93425 21.9927 6.95285 21.9927 6.95285C21.2405 6.99831 20.5668 7.07477 20.0543 7.41781C18.1469 8.70111 18.7111 10.8813 21.2529 13.3094C21.5732 13.6173 21.9121 13.9376 22.2613 14.2641C22.2613 14.2641 22.7718 14.7146 23.7885 15.6818C25.7434 17.4838 26.8138 18.455 26.8138 18.455C30.2587 21.3254 29.0829 23.9478 27.7665 24.8612C26.7622 25.5576 25.6483 25.8841 24.1915 25.9606L24.1522 25.9647C24.0158 25.9647 23.8195 25.882 23.8091 25.6712M24.6172 15.0763C23.4992 14.8407 23.2719 13.8281 23.2719 13.8281C23.1789 13.4706 23.1582 13.0222 23.2326 12.4477C23.3855 11.247 23.7079 10.6829 24.0757 9.75296C24.5738 8.50272 23.3649 7.77118 23.5653 7.31242C23.8381 6.6904 24.7019 7.48187 25.6628 7.53973C26.4915 7.5852 26.9895 7.54387 27.6342 7.63066C28.4898 7.74432 29.5127 8.03363 29.9673 8.57092C30.3848 9.06068 29.7462 9.6579 28.9795 9.2818C28.4195 9.00902 27.7128 9.1764 28.1261 9.76123C28.6262 10.3171 28.8638 10.3336 29.3722 10.4659C30.7733 10.8337 30.8001 12.1749 29.8557 12.8713C28.775 13.6607 27.6859 13.3363 27.2457 11.7864C27.0246 11.0135 26.4791 10.6209 25.9191 10.8399C25.3632 11.059 25.6917 12.0757 26.1154 13.018C26.849 14.8944 25.3611 15.0866 24.7969 15.0866C24.7101 15.0866 24.6461 15.0825 24.6151 15.0783M20.5172 25.322C19.3021 25.2021 17.8494 24.8198 16.5867 23.7267C15.4253 22.7223 14.7041 21.3378 14.3549 20.1268C13.9974 18.8828 13.8465 17.43 14.4376 17.5457C14.6194 17.5809 14.9335 18.3806 15.2745 18.9613C15.6279 19.5606 15.9151 19.8933 16.1837 20.0958C16.3057 20.1867 16.721 19.2651 17.3224 18.7402C17.6737 18.4509 18.0581 18.3517 18.1201 19.2155C18.1945 20.2756 18.0043 21.5341 18.3122 21.5341C18.6016 21.5341 19.2546 21.3151 20.6867 21.1952C21.224 21.1497 21.5298 21.251 21.0173 21.9763C20.7611 22.3359 20.418 22.8463 19.6059 23.4291C20.8231 24.5698 22.2841 24.4313 22.3089 24.917C22.3233 25.1959 21.7778 25.3509 21.0628 25.3509C20.8892 25.3509 20.7053 25.3406 20.5151 25.3241" fill="url(#paint1_radial_301_3074)"/>
<defs>
<radialGradient id="paint0_radial_301_3074" cx="0" cy="0" r="1" gradientUnits="userSpaceOnUse" gradientTransform="translate(25.0519 13.0274) scale(10.2746 10.2746)">
<stop stop-color="white"/>
<stop offset="1" stop-color="#CF9C51"/>
</radialGradient>
<radialGradient id="paint1_radial_301_3074" cx="0" cy="0" r="1" gradientUnits="userSpaceOnUse" gradientTransform="translate(24.8115 13.3944) scale(22.9733)">
<stop stop-color="#00C0F3"/>
<stop offset="0.22" stop-color="#0097D6"/>
<stop offset="0.57" stop-color="#0066B3"/>
<stop offset="1" stop-color="#0066B3"/>
</radialGradient>
</defs>
</svg>
