<svg width="58" height="40" viewBox="0 0 58 40" fill="none" xmlns="http://www.w3.org/2000/svg">
<path d="M28.3729 6.19986C20.7508 6.5444 14.8515 13.0013 15.1987 20.6207C15.5433 28.2427 22.0001 34.1394 29.6195 33.7948C37.2416 33.4529 43.1356 26.9934 42.7911 19.374C42.4597 11.965 36.3499 6.18671 29.0093 6.18671C28.7989 6.18671 28.5859 6.19197 28.3729 6.19986Z" fill="url(#paint0_radial_301_3133)"/>
<path d="M28.7437 6C28.6175 6.00263 28.4938 6.00789 28.3676 6.01315C20.6404 6.36295 14.6648 12.9066 15.0146 20.6312C15.3513 28.1007 21.4846 33.9369 28.8752 34H29.1067C29.2829 34 29.4565 33.9947 29.6327 33.9869C37.0732 33.6502 42.8936 27.5615 42.9962 20.2078V19.808C42.9962 19.6607 42.9909 19.5134 42.9831 19.3661C42.649 11.9519 36.5998 6.14466 29.2855 6H28.7437ZM30.0325 32.3115C30.0193 31.9959 30.4822 31.9143 30.4822 31.9143C34.622 31.099 33.4121 28.3847 31.9472 26.9987C31.3317 26.4148 25.5666 21.4439 25.5666 21.4439C20.0697 16.7124 20.5089 13.0171 20.5089 13.0171C20.7745 8.46966 24.7565 7.34398 27.7653 7.60436C28.1177 7.63329 28.3124 7.84896 28.2493 8.14353C28.1835 8.46177 27.718 8.48544 27.718 8.48544C26.7606 8.5433 25.9032 8.64062 25.2509 9.07721C22.8234 10.7105 23.5414 13.4853 26.7764 16.5756C27.1841 16.9675 27.6154 17.3752 28.0599 17.7907C28.0599 17.7907 28.7095 18.3641 30.0035 19.595C32.4916 21.8884 33.854 23.1246 33.854 23.1246C38.2384 26.7778 36.7418 30.1153 35.0665 31.2779C33.7882 32.1642 32.3706 32.5798 30.5164 32.6771L30.4664 32.6823C30.2928 32.6823 30.043 32.5771 30.0298 32.3088M31.0582 18.8243C29.6353 18.5245 29.346 17.2358 29.346 17.2358C29.2276 16.7808 29.2013 16.21 29.296 15.4789C29.4907 13.9508 29.901 13.2328 30.3691 12.0492C31.003 10.458 29.4644 9.52696 29.7195 8.94308C30.0666 8.15142 31.166 9.15875 32.389 9.23239C33.4437 9.29025 34.0775 9.23765 34.8981 9.34811C35.987 9.49277 37.2889 9.86098 37.8675 10.5448C38.3988 11.1681 37.5861 11.9282 36.6103 11.4496C35.8976 11.1024 34.9981 11.3154 35.5241 12.0597C36.1606 12.7672 36.463 12.7883 37.11 12.9566C38.8932 13.4248 38.9274 15.1317 37.7255 16.018C36.3499 17.0227 34.9639 16.6098 34.4037 14.6372C34.1223 13.6536 33.4279 13.1539 32.7152 13.4327C32.0077 13.7114 32.4258 15.0054 32.965 16.2048C33.8987 18.5929 32.005 18.8375 31.287 18.8375C31.1765 18.8375 31.095 18.8322 31.0556 18.827M25.8401 31.8644C24.2936 31.7118 22.4446 31.2253 20.8376 29.8339C19.3595 28.5557 18.4416 26.7935 17.9971 25.2523C17.5421 23.669 17.3501 21.82 18.1023 21.9673C18.3338 22.012 18.7336 23.0299 19.1675 23.7689C19.6173 24.5317 19.9829 24.9551 20.3248 25.2129C20.4799 25.3286 21.0086 24.1556 21.774 23.4875C22.2211 23.1193 22.7103 22.993 22.7892 24.0924C22.8839 25.4417 22.6419 27.0434 23.0338 27.0434C23.402 27.0434 24.2331 26.7646 26.0558 26.6121C26.7396 26.5542 27.1288 26.6831 26.4766 27.6062C26.1504 28.0639 25.7138 28.7135 24.6802 29.4552C26.2293 30.907 28.0888 30.7308 28.1204 31.3489C28.1388 31.7039 27.4444 31.9012 26.5344 31.9012C26.3135 31.9012 26.0794 31.888 25.8375 31.867" fill="url(#paint1_radial_301_3133)"/>
<defs>
<radialGradient id="paint0_radial_301_3133" cx="0" cy="0" r="1" gradientUnits="userSpaceOnUse" gradientTransform="translate(31.6115 16.2166) scale(13.0767 13.0767)">
<stop stop-color="white"/>
<stop offset="1" stop-color="#CF9C51"/>
</radialGradient>
<radialGradient id="paint1_radial_301_3133" cx="0" cy="0" r="1" gradientUnits="userSpaceOnUse" gradientTransform="translate(31.3055 16.6838) scale(29.2387 29.2387)">
<stop stop-color="#00C0F3"/>
<stop offset="0.22" stop-color="#0097D6"/>
<stop offset="0.57" stop-color="#0066B3"/>
<stop offset="1" stop-color="#0066B3"/>
</radialGradient>
</defs>
</svg>
