<svg width="28" height="20" viewBox="0 0 28 20" fill="none" xmlns="http://www.w3.org/2000/svg">
<path d="M13.7312 4.08565C10.4646 4.23331 7.93637 7.00055 8.08516 10.266C8.23282 13.5326 11.0001 16.0597 14.2655 15.9121C17.5321 15.7655 20.0581 12.9972 19.9105 9.73172C19.7684 6.55644 17.15 4.08002 14.004 4.08002C13.9138 4.08002 13.8225 4.08227 13.7312 4.08565Z" fill="url(#paint0_radial_301_3015)"/>
<path d="M13.8902 4C13.8361 4.00113 13.7831 4.00338 13.729 4.00564C10.4173 4.15555 7.85634 6.95999 8.00626 10.2705C8.15054 13.4717 10.7791 15.9729 13.9465 16H14.0457C14.1212 16 14.1956 15.9977 14.2711 15.9944C17.46 15.8501 19.9544 13.2407 19.9984 10.089V9.91772C19.9984 9.85459 19.9961 9.79147 19.9927 9.72835C19.8496 6.55082 17.2571 4.062 14.1224 4H13.8902ZM14.4425 15.2763C14.4368 15.1411 14.6352 15.1061 14.6352 15.1061C16.4094 14.7567 15.8909 13.5935 15.2631 12.9994C14.9993 12.7492 12.5285 10.6188 12.5285 10.6188C10.1727 8.59102 10.3609 7.00733 10.3609 7.00733C10.4748 5.05843 12.1814 4.57599 13.4708 4.68758C13.6219 4.69998 13.7053 4.79241 13.6783 4.91865C13.6501 5.05504 13.4506 5.06519 13.4506 5.06519C13.0403 5.08999 12.6728 5.13169 12.3933 5.31881C11.3529 6.01879 11.6606 7.20797 13.047 8.53241C13.2217 8.70036 13.4066 8.87507 13.5971 9.05317C13.5971 9.05317 13.8755 9.29889 14.4301 9.82641C15.4964 10.8093 16.0803 11.3391 16.0803 11.3391C17.9593 12.9048 17.3179 14.3351 16.5999 14.8334C16.0521 15.2132 15.4445 15.3913 14.6499 15.433L14.6285 15.4353C14.5541 15.4353 14.447 15.3902 14.4414 15.2752M14.8821 9.49615C14.2723 9.36765 14.1483 8.81533 14.1483 8.81533C14.0976 8.62033 14.0863 8.37573 14.1269 8.06237C14.2103 7.40748 14.3861 7.09976 14.5868 6.59252C14.8584 5.91058 14.199 5.51155 14.3083 5.26132C14.4571 4.92204 14.9283 5.35375 15.4524 5.38531C15.9044 5.41011 16.1761 5.38756 16.5278 5.43491C16.9944 5.4969 17.5524 5.65471 17.8004 5.94777C18.0281 6.21492 17.6798 6.54067 17.2616 6.33553C16.9561 6.18674 16.5706 6.27804 16.796 6.59703C17.0688 6.90024 17.1984 6.90926 17.4757 6.9814C18.24 7.18204 18.2546 7.91358 17.7395 8.29344C17.15 8.72403 16.556 8.54706 16.3159 7.70167C16.1953 7.28011 15.8977 7.06594 15.5922 7.18542C15.289 7.3049 15.4682 7.85948 15.6993 8.37347C16.0994 9.39696 15.2879 9.50179 14.9801 9.50179C14.9328 9.50179 14.8979 9.49953 14.881 9.49728M12.6458 15.0847C11.983 15.0194 11.1906 14.8108 10.5018 14.2145C9.86837 13.6667 9.47498 12.9115 9.28449 12.251C9.08948 11.5724 9.0072 10.78 9.32957 10.8431C9.42877 10.8623 9.6001 11.2985 9.78608 11.6153C9.97883 11.9421 10.1355 12.1236 10.282 12.2341C10.3485 12.2837 10.5751 11.781 10.9031 11.4946C11.0947 11.3368 11.3044 11.2827 11.3382 11.7539C11.3788 12.3321 11.2751 13.0186 11.443 13.0186C11.6008 13.0186 11.957 12.8991 12.7382 12.8337C13.0312 12.8089 13.1981 12.8642 12.9185 13.2598C12.7788 13.4559 12.5916 13.7344 12.1487 14.0522C12.8126 14.6744 13.6095 14.5989 13.623 14.8638C13.6309 15.016 13.3333 15.1005 12.9433 15.1005C12.8486 15.1005 12.7483 15.0949 12.6446 15.0859" fill="url(#paint1_radial_301_3015)"/>
<defs>
<radialGradient id="paint0_radial_301_3015" cx="0" cy="0" r="1" gradientUnits="userSpaceOnUse" gradientTransform="translate(15.1192 8.37856) scale(5.60431)">
<stop stop-color="white"/>
<stop offset="1" stop-color="#CF9C51"/>
</radialGradient>
<radialGradient id="paint1_radial_301_3015" cx="0" cy="0" r="1" gradientUnits="userSpaceOnUse" gradientTransform="translate(14.9881 8.57878) scale(12.5309)">
<stop stop-color="#00C0F3"/>
<stop offset="0.22" stop-color="#0097D6"/>
<stop offset="0.57" stop-color="#0066B3"/>
<stop offset="1" stop-color="#0066B3"/>
</radialGradient>
</defs>
</svg>
