<svg width="34" height="24" viewBox="0 0 34 24" fill="none" xmlns="http://www.w3.org/2000/svg">
<path d="M16.6416 4.1142C12.2862 4.31109 8.91517 8.00073 9.11355 12.3547C9.31043 16.7101 13.0001 20.0796 17.354 19.8828C21.7095 19.6874 25.0775 15.9962 24.8806 11.6423C24.6912 7.40859 21.2 4.10669 17.0053 4.10669C16.8851 4.10669 16.7634 4.1097 16.6416 4.1142Z" fill="url(#paint0_radial_301_2956)"/>
<path d="M16.8535 4C16.7814 4.0015 16.7108 4.00451 16.6386 4.00751C12.2231 4.2074 8.80846 7.94665 9.00835 12.3607C9.20072 16.629 12.7055 19.9639 16.9287 20H17.0609C17.1616 20 17.2608 19.997 17.3615 19.9925C21.6133 19.8001 24.9392 16.3209 24.9978 12.1187V11.8903C24.9978 11.8061 24.9948 11.722 24.9903 11.6378C24.7994 7.40109 21.3427 4.08266 17.1631 4H16.8535ZM17.59 19.0351C17.5825 18.8548 17.847 18.8082 17.847 18.8082C20.2126 18.3423 19.5212 16.7913 18.6841 15.9992C18.3324 15.6656 15.038 12.8251 15.038 12.8251C11.8969 10.1214 12.1479 8.00977 12.1479 8.00977C12.2997 5.41123 14.5751 4.76799 16.2945 4.91678C16.4959 4.93331 16.6071 5.05655 16.571 5.22487C16.5334 5.40673 16.2674 5.42025 16.2674 5.42025C15.7204 5.45332 15.2304 5.50892 14.8577 5.75841C13.4705 6.69172 13.8808 8.27729 15.7294 10.0432C15.9623 10.2671 16.2088 10.5001 16.4628 10.7376C16.4628 10.7376 16.834 11.0652 17.5734 11.7686C18.9952 13.0791 19.7737 13.7855 19.7737 13.7855C22.2791 15.873 21.4239 17.7802 20.4665 18.4445C19.7361 18.951 18.9261 19.1884 17.8665 19.244L17.838 19.247C17.7388 19.247 17.596 19.1869 17.5885 19.0336M18.1761 11.3282C17.363 11.1569 17.1977 10.4204 17.1977 10.4204C17.1301 10.1604 17.1151 9.8343 17.1692 9.41649C17.2804 8.5433 17.5148 8.13301 17.7823 7.4567C18.1445 6.54744 17.2653 6.0154 17.4111 5.68176C17.6095 5.22938 18.2377 5.805 18.9366 5.84708C19.5393 5.88014 19.9015 5.85008 20.3704 5.91321C20.9926 5.99587 21.7365 6.20627 22.0671 6.59703C22.3707 6.95322 21.9063 7.38756 21.3488 7.11403C20.9415 6.91565 20.4275 7.03739 20.7281 7.46271C21.0918 7.86699 21.2646 7.87902 21.6343 7.9752C22.6533 8.24272 22.6728 9.21811 21.986 9.72459C21.2 10.2987 20.4079 10.0627 20.0878 8.93556C19.927 8.37347 19.5302 8.08792 19.1229 8.24723C18.7187 8.40654 18.9576 9.14597 19.2657 9.8313C19.7993 11.1959 18.7172 11.3357 18.3069 11.3357C18.2437 11.3357 18.1972 11.3327 18.1746 11.3297M15.1943 18.7796C14.3106 18.6925 13.2541 18.4144 12.3358 17.6194C11.4912 16.889 10.9666 15.882 10.7126 15.0013C10.4526 14.0966 10.3429 13.04 10.7728 13.1242C10.905 13.1497 11.1335 13.7314 11.3814 14.1537C11.6384 14.5895 11.8473 14.8315 12.0427 14.9788C12.1314 15.0449 12.4335 14.3746 12.8708 13.9929C13.1263 13.7825 13.4059 13.7103 13.451 14.3385C13.5051 15.1095 13.3668 16.0248 13.5907 16.0248C13.8011 16.0248 14.2761 15.8655 15.3176 15.7783C15.7083 15.7453 15.9308 15.8189 15.558 16.3464C15.3717 16.6079 15.1222 16.9791 14.5315 17.403C15.4168 18.2326 16.4793 18.1319 16.4974 18.4851C16.5079 18.688 16.1111 18.8007 15.5911 18.8007C15.4649 18.8007 15.3311 18.7932 15.1928 18.7811" fill="url(#paint1_radial_301_2956)"/>
<defs>
<radialGradient id="paint0_radial_301_2956" cx="0" cy="0" r="1" gradientUnits="userSpaceOnUse" gradientTransform="translate(18.4923 9.83807) scale(7.47242 7.47242)">
<stop stop-color="white"/>
<stop offset="1" stop-color="#CF9C51"/>
</radialGradient>
<radialGradient id="paint1_radial_301_2956" cx="0" cy="0" r="1" gradientUnits="userSpaceOnUse" gradientTransform="translate(18.3174 10.105) scale(16.7078 16.7078)">
<stop stop-color="#00C0F3"/>
<stop offset="0.22" stop-color="#0097D6"/>
<stop offset="0.57" stop-color="#0066B3"/>
<stop offset="1" stop-color="#0066B3"/>
</radialGradient>
</defs>
</svg>
