<svg width="28" height="20" viewBox="0 0 28 20" fill="none" xmlns="http://www.w3.org/2000/svg">
<rect width="28" height="20" rx="4" fill="#5A31F4"/>
<path d="M15.8694 9.14483C15.8694 10.3916 15.0056 11.2816 13.7985 11.2816H12.6613C12.6487 11.2816 12.6363 11.2841 12.6247 11.289C12.6131 11.2938 12.6026 11.301 12.5937 11.31C12.5849 11.319 12.5779 11.3297 12.5731 11.3414C12.5683 11.3532 12.5659 11.3658 12.566 11.3785V13.0171C12.566 13.0427 12.556 13.0673 12.5381 13.0855C12.5202 13.1036 12.496 13.1139 12.4707 13.114H11.6749C11.656 13.1139 11.6375 13.1082 11.6218 13.0975C11.6061 13.0869 11.5938 13.0718 11.5865 13.0541C11.5817 13.0425 11.5792 13.0301 11.5791 13.0176V7.10453C11.5791 7.09183 11.5815 7.07923 11.5862 7.06748C11.591 7.05572 11.598 7.04504 11.6069 7.03603C11.6157 7.02703 11.6262 7.01988 11.6378 7.015C11.6494 7.01013 11.6619 7.00762 11.6744 7.00762H13.8036C15.0056 7.00621 15.8694 7.89621 15.8694 9.14483ZM14.877 9.14483C14.877 8.42806 14.394 7.90417 13.7388 7.90417H12.6613C12.6487 7.90417 12.6363 7.90668 12.6247 7.91156C12.6131 7.91643 12.6026 7.92358 12.5937 7.93259C12.5849 7.94159 12.5779 7.95228 12.5731 7.96403C12.5683 7.97579 12.5659 7.98838 12.566 8.00108V10.283C12.566 10.3085 12.576 10.3331 12.5939 10.3512C12.6118 10.3692 12.636 10.3794 12.6613 10.3794H13.7388C14.394 10.3841 14.877 9.85974 14.877 9.14483ZM16.1054 11.9796C16.0971 11.7884 16.1362 11.5981 16.2191 11.4261C16.302 11.2541 16.4261 11.1057 16.5801 10.9946C16.8905 10.7582 17.3759 10.636 18.0884 10.6107L18.8471 10.5835V10.3569C18.8471 9.90281 18.5464 9.71086 18.0634 9.71086C17.5804 9.71086 17.2741 9.88408 17.2037 10.1673C17.198 10.1872 17.1859 10.2047 17.1693 10.2169C17.1527 10.2291 17.1326 10.2354 17.1121 10.2347H16.3626C16.3488 10.2351 16.3351 10.2324 16.3225 10.2268C16.3098 10.2212 16.2985 10.2129 16.2894 10.2024C16.2803 10.1919 16.2736 10.1795 16.2698 10.1661C16.266 10.1526 16.2651 10.1385 16.2673 10.1247C16.3783 9.45336 16.9303 8.94305 18.0976 8.94305C19.3394 8.94305 19.7877 9.52827 19.7877 10.6453V13.0171C19.7875 13.043 19.7771 13.0677 19.7589 13.0859C19.7407 13.104 19.7161 13.1141 19.6906 13.114H18.935C18.9098 13.1139 18.8855 13.1039 18.8675 13.0859C18.8587 13.0769 18.8516 13.0663 18.8469 13.0545C18.8421 13.0428 18.8397 13.0303 18.8397 13.0176V12.8401C18.84 12.8255 18.8359 12.8111 18.8279 12.7988C18.8199 12.7866 18.8085 12.7771 18.795 12.7715C18.7816 12.766 18.7669 12.7647 18.7527 12.7679C18.7385 12.771 18.7257 12.7784 18.7157 12.7891C18.489 13.0386 18.1231 13.2189 17.5369 13.2189C16.6745 13.2189 16.1054 12.7648 16.1054 11.9796ZM18.8471 11.4656V11.2816L17.8644 11.334C17.3467 11.3607 17.0455 11.5784 17.0455 11.945C17.0455 12.2765 17.3217 12.46 17.8043 12.46C18.4599 12.46 18.8471 12.1018 18.8471 11.4656ZM20.5465 14.9062V14.2189C20.5467 14.2045 20.5499 14.1903 20.5561 14.1773C20.5623 14.1643 20.5712 14.1529 20.5822 14.1437C20.5933 14.1346 20.6062 14.1281 20.62 14.1246C20.6338 14.1211 20.6482 14.1207 20.6622 14.1234C20.7778 14.1454 20.8958 14.1566 21.0138 14.1571C21.2166 14.1671 21.4169 14.1079 21.5826 13.9891C21.7482 13.8703 21.8697 13.6986 21.9276 13.5017L21.9766 13.3434C21.9837 13.3222 21.9837 13.2991 21.9766 13.2779L20.4022 9.18603C20.3965 9.1712 20.3944 9.15519 20.3962 9.13938C20.398 9.12357 20.4035 9.10843 20.4123 9.09526C20.4211 9.08209 20.433 9.07128 20.4469 9.06377C20.4607 9.05626 20.4762 9.05227 20.4919 9.05213H21.2553C21.2748 9.05234 21.2938 9.05847 21.3098 9.06975C21.3258 9.08102 21.3381 9.0969 21.3451 9.11534L22.4143 12.0012C22.421 12.0203 22.4334 12.0369 22.4498 12.0487C22.4662 12.0604 22.4858 12.0667 22.5059 12.0667C22.526 12.0667 22.5456 12.0604 22.562 12.0487C22.5784 12.0369 22.5908 12.0203 22.5975 12.0012L23.5261 9.1233C23.5325 9.10363 23.5449 9.08652 23.5615 9.07441C23.5782 9.0623 23.5981 9.05582 23.6186 9.05588H24.4084C24.4242 9.05598 24.4398 9.05995 24.4537 9.06745C24.4677 9.07495 24.4797 9.08576 24.4887 9.09896C24.4976 9.11216 24.5033 9.12736 24.5052 9.14325C24.5071 9.15915 24.5051 9.17527 24.4995 9.19025L22.8154 13.7343C22.4277 14.7905 21.7629 15.0607 21.0309 15.0607C20.8921 15.0644 20.7533 15.0476 20.6191 15.0106C20.5968 15.0046 20.5773 14.9909 20.564 14.9718C20.5507 14.9527 20.5445 14.9295 20.5465 14.9062ZM6.46526 6.66679C5.46224 6.65956 4.49462 7.04156 3.76144 7.73422C3.73009 7.76328 3.71054 7.8031 3.70661 7.84594C3.70267 7.88878 3.71463 7.93157 3.74016 7.96597L4.19403 8.59332C4.20875 8.61421 4.22781 8.63158 4.24987 8.64422C4.27193 8.65685 4.29646 8.66444 4.32173 8.66644C4.347 8.66845 4.3724 8.66483 4.39614 8.65584C4.41988 8.64685 4.44139 8.6327 4.45914 8.61439C4.72277 8.34769 5.03629 8.13684 5.38138 7.99415C5.72647 7.85147 6.0962 7.77981 6.46896 7.78338C8.02537 7.78338 8.83828 8.9688 8.83828 10.1392C8.83828 11.4117 7.9842 12.3069 6.75674 12.3247C5.80828 12.3247 5.09346 11.6884 5.09346 10.8481C5.09444 10.6357 5.14198 10.4263 5.23262 10.2348C5.32327 10.0434 5.45478 9.87464 5.61766 9.74082C5.65209 9.71171 5.67386 9.67009 5.67827 9.62491C5.68268 9.57973 5.66939 9.5346 5.64125 9.49924L5.16424 8.88968C5.14982 8.87124 5.13189 8.85592 5.11152 8.84461C5.09114 8.83331 5.06874 8.82625 5.04562 8.82385C5.0225 8.82145 4.99915 8.82376 4.97693 8.83064C4.95471 8.83752 4.93408 8.84884 4.91626 8.86393C4.6233 9.10276 4.3869 9.40493 4.22438 9.74825C4.06186 10.0916 3.97735 10.4674 3.97704 10.8481C3.97704 12.2947 5.192 13.4296 6.74841 13.4389H6.76923C8.61712 13.4146 9.9533 12.0297 9.9533 10.1369C9.9533 8.45615 8.73001 6.66679 6.46572 6.66679H6.46526Z" fill="white"/>
</svg>
