<svg width="58" height="40" viewBox="0 0 58 40" fill="none" xmlns="http://www.w3.org/2000/svg">
<rect width="58" height="40" rx="6" fill="white"/>
<path d="M5 15.9974C5 15.4468 5.44624 15 5.99736 15H14.9531C15.5036 15 15.9504 15.4468 15.9504 15.9974V24.9537C15.9504 25.5042 15.5036 25.951 14.9531 25.951H5.99736C5.44624 25.951 5 25.5042 5 24.9537V15.9974Z" fill="#ED1D24"/>
<path d="M13.6569 20.5768C13.5965 22.6696 11.8802 24.3481 9.77169 24.3481C7.6638 24.3481 5.94755 22.6696 5.88713 20.5768H6.07943C6.09629 22.2163 7.43071 23.5406 9.07458 23.5406C10.7188 23.5406 12.0529 22.2163 12.0694 20.5768H13.6569Z" fill="white"/>
<path d="M15.4611 20.5768C15.4071 23.2843 13.1955 25.4624 10.4749 25.4624C7.75421 25.4624 5.54265 23.2843 5.48929 20.5768H5.69293C5.75764 22.777 7.56191 24.5405 9.77777 24.5405C11.9933 24.5405 13.7976 22.777 13.8623 20.5768H15.4611Z" fill="white"/>
<path d="M11.867 20.5768C11.8551 22.1103 10.6084 23.349 9.07215 23.349C7.53624 23.349 6.28923 22.1103 6.27696 20.5768H6.48367C6.48245 20.5995 6.48245 20.6228 6.48245 20.6458C6.48245 21.749 7.37676 22.6433 8.47963 22.6433C9.5831 22.6433 10.4774 21.749 10.4774 20.6458C10.4774 20.6228 10.4774 20.5995 10.4762 20.5768H11.867Z" fill="white"/>
<path d="M9.08284 20.3743C9.0948 18.8408 10.3418 17.6021 11.8777 17.6021C13.4143 17.6021 14.6607 18.8408 14.6729 20.3743H14.4668C14.4674 20.3516 14.468 20.3283 14.468 20.3053C14.468 19.2021 13.5737 18.3078 12.4703 18.3078C11.3668 18.3078 10.4725 19.2021 10.4725 20.3053C10.4725 20.3283 10.4731 20.3516 10.4737 20.3743H9.08284Z" fill="white"/>
<path d="M5.48941 20.3743C5.54277 17.6668 7.75495 15.4887 10.475 15.4887C13.1957 15.4887 15.4072 17.6668 15.4612 20.3743H15.2569C15.1922 18.1741 13.3886 16.4106 11.1721 16.4106C8.95657 16.4106 7.15291 18.1741 7.0882 20.3743H5.48941Z" fill="white"/>
<path d="M7.29362 20.3743C7.35404 18.2814 9.07029 16.6029 11.1782 16.6029C13.2861 16.6029 15.0023 18.2814 15.0628 20.3743H14.8705C14.8542 18.7347 13.5198 17.4104 11.8753 17.4104C10.2317 17.4104 8.89732 18.7347 8.88106 20.3743H7.29362Z" fill="white"/>
<path fill-rule="evenodd" clip-rule="evenodd" d="M49.4254 24.5331L50.6905 24.3402C50.7439 24.5858 50.8534 24.7726 51.0175 24.9014C51.1825 25.0266 51.4125 25.0894 51.7088 25.0894C52.0348 25.0894 52.2798 25.0296 52.4445 24.91C52.5546 24.8266 52.6104 24.714 52.6104 24.5739C52.6104 24.4779 52.5804 24.3991 52.5206 24.3359C52.4577 24.2761 52.3175 24.2209 52.0989 24.17C51.0816 23.9455 50.4378 23.7406 50.1652 23.5554C49.7886 23.298 49.6003 22.9411 49.6003 22.4832C49.6003 22.0707 49.7634 21.7238 50.0891 21.4423C50.4151 21.1613 50.9206 21.0212 51.6051 21.0205C52.2574 21.0205 52.7417 21.1273 53.0591 21.3392C53.3759 21.5517 53.594 21.8658 53.7136 22.2814L52.5252 22.5013C52.4743 22.3157 52.3767 22.1737 52.2335 22.0746C52.0927 21.9765 51.8909 21.9268 51.6281 21.9268C51.2963 21.9268 51.0583 21.9734 50.9144 22.0658C50.8187 22.1317 50.7709 22.2173 50.7709 22.3215C50.7709 22.4114 50.8126 22.4875 50.8966 22.5503C51.0104 22.6344 51.4021 22.7521 52.0719 22.9049C52.7445 23.0573 53.2143 23.2447 53.4808 23.4658C53.7436 23.6903 53.8749 24.0025 53.8755 24.4031C53.8755 24.8398 53.6927 25.2155 53.3281 25.5292C52.9631 25.843 52.4233 26 51.7088 26C51.0595 26 50.5449 25.8687 50.1652 25.6053C49.7886 25.3425 49.5417 24.9848 49.4254 24.5331Z" fill="#414042"/>
<path fill-rule="evenodd" clip-rule="evenodd" d="M37.4159 21.1284H38.5774V21.7789C38.9932 21.2734 39.4879 21.021 40.0624 21.0204C40.3672 21.0204 40.6319 21.0836 40.8567 21.2093C41.0806 21.3351 41.2646 21.5249 41.4085 21.7789C41.6173 21.5249 41.8433 21.3351 42.0859 21.2093C42.3279 21.0836 42.5865 21.0204 42.8616 21.0204C43.2112 21.0204 43.5078 21.0925 43.7498 21.2363C43.9917 21.3771 44.1727 21.5847 44.2926 21.8598C44.3794 22.0628 44.4226 22.3922 44.4226 22.8464V25.8928H43.1621V23.1697C43.1621 22.6971 43.1186 22.3922 43.0321 22.2545C42.9155 22.0748 42.7364 21.9856 42.4938 21.9856C42.3169 21.9856 42.151 22.0395 41.9961 22.1466C41.8403 22.2545 41.7283 22.4131 41.6593 22.6223C41.5903 22.829 41.5563 23.1559 41.5563 23.6046V25.8928H40.2955V23.2816C40.2955 22.8182 40.2731 22.5192 40.2283 22.3846C40.1832 22.2496 40.1133 22.1496 40.0173 22.0837C39.9247 22.0184 39.7977 21.9856 39.6364 21.9856C39.4416 21.9856 39.2668 22.0377 39.1116 22.1426C38.9558 22.2466 38.8433 22.3984 38.7752 22.5953C38.7093 22.7931 38.6761 23.12 38.6761 23.5776V25.8928H37.4159V21.1284Z" fill="#414042"/>
<path fill-rule="evenodd" clip-rule="evenodd" d="M35.4626 25.8928H34.2024V21.1284H35.3733V21.8058C35.5733 21.486 35.753 21.275 35.9113 21.1731C36.0729 21.0713 36.2551 21.021 36.4587 21.0204C36.7458 21.0204 37.0224 21.1001 37.2883 21.2584L36.8985 22.3576C36.6857 22.2202 36.4888 22.1515 36.306 22.1515C36.1299 22.1515 35.98 22.2006 35.8579 22.2993C35.7352 22.3953 35.638 22.5701 35.5662 22.8241C35.4972 23.078 35.4626 23.6107 35.4626 24.421V25.8928Z" fill="#414042"/>
<path fill-rule="evenodd" clip-rule="evenodd" d="M28.925 25.8928H27.6648V23.4608C27.6648 22.947 27.6378 22.6149 27.5838 22.4652C27.5299 22.3125 27.4418 22.1944 27.3192 22.1107C27.1992 22.0273 27.0542 21.9856 26.8843 21.9856C26.6656 21.9856 26.4696 22.0448 26.2966 22.1647C26.1228 22.2843 26.0031 22.4425 25.9372 22.6404C25.8749 22.8379 25.8431 23.2028 25.8431 23.7346V25.8928H24.5829V21.1284H25.7532V21.8279C26.1691 21.29 26.6926 21.0204 27.3231 21.0204C27.6019 21.0204 27.8559 21.0713 28.0865 21.1731C28.3165 21.2722 28.4895 21.3992 28.6063 21.5547C28.7263 21.7099 28.8081 21.8865 28.8532 22.0837C28.9011 22.2815 28.925 22.564 28.925 22.932V25.8928Z" fill="#414042"/>
<path fill-rule="evenodd" clip-rule="evenodd" d="M22.4989 21.1284H23.7591V25.8928H22.4989V21.1284Z" fill="#414042"/>
<path fill-rule="evenodd" clip-rule="evenodd" d="M22.4989 19.3164H23.7591V20.4828H22.4989V19.3164Z" fill="#414042"/>
<path fill-rule="evenodd" clip-rule="evenodd" d="M17.4043 24.5331L18.6694 24.3402C18.7233 24.5858 18.8322 24.7726 18.9969 24.9014C19.1613 25.0266 19.3916 25.0894 19.6876 25.0894C20.0136 25.0894 20.2593 25.0296 20.4233 24.91C20.534 24.8266 20.5893 24.714 20.5893 24.5739C20.5893 24.4779 20.5592 24.3991 20.5 24.3359C20.4371 24.2761 20.2964 24.2209 20.0783 24.17C19.061 23.9455 18.4166 23.7406 18.1446 23.5554C17.768 23.298 17.5791 22.9411 17.5791 22.4832C17.5791 22.0707 17.7422 21.7238 18.0685 21.4423C18.3946 21.1613 18.8994 21.0212 19.5845 21.0205C20.2362 21.0205 20.7208 21.1273 21.0379 21.3392C21.3548 21.5517 21.5734 21.8658 21.693 22.2814L20.504 22.5013C20.4531 22.3157 20.3562 22.1737 20.2123 22.0746C20.0716 21.9765 19.8704 21.9268 19.6069 21.9268C19.2751 21.9268 19.0371 21.9734 18.8939 22.0658C18.7982 22.1317 18.7503 22.2173 18.7503 22.3215C18.7503 22.4114 18.792 22.4875 18.8761 22.5503C18.9892 22.6344 19.3809 22.7521 20.0513 22.9049C20.7239 23.0573 21.1934 23.2447 21.4596 23.4658C21.7225 23.6903 21.8544 24.0025 21.8544 24.4031C21.8544 24.8398 21.6716 25.2155 21.3075 25.5292C20.9419 25.843 20.4022 26 19.6876 26C19.0389 26 18.5243 25.8687 18.1446 25.6053C17.768 25.3425 17.5211 24.9848 17.4043 24.5331Z" fill="#414042"/>
<path fill-rule="evenodd" clip-rule="evenodd" d="M47.8483 23.8562C47.8477 24.158 47.8314 24.3629 47.7986 24.4708C47.7507 24.6349 47.6505 24.7738 47.4983 24.8876C47.2919 25.0376 47.0751 25.1124 46.8479 25.1124C46.6442 25.1124 46.4764 25.0477 46.3455 24.9189C46.2136 24.7907 46.1477 24.638 46.1477 24.4613C46.1477 24.2822 46.2305 24.1341 46.3946 24.0172C46.5022 23.9455 46.731 23.8725 47.0809 23.7976C47.4309 23.7225 47.6867 23.6584 47.8483 23.6047V23.8562ZM49.1315 25.2554C49.0925 25.0554 49.0726 24.7456 49.0726 24.327L49.0864 22.8552C49.0858 22.3083 49.0297 21.933 48.9156 21.7296C48.8048 21.5232 48.6119 21.3542 48.3371 21.2224C48.062 21.0883 47.6428 21.0205 47.0809 21.0205C46.462 21.0212 45.9956 21.1313 45.6818 21.353C45.3671 21.5741 45.146 21.9149 45.0175 22.3755L46.1615 22.5822C46.2394 22.3605 46.3406 22.2065 46.4663 22.1197C46.5921 22.0299 46.7672 21.9854 46.9911 21.9854C47.3235 21.9854 47.5486 22.0375 47.6686 22.1424C47.7885 22.2443 47.8483 22.4163 47.8483 22.6583V22.784C47.6207 22.8791 47.2128 22.9828 46.6234 23.0932C46.1866 23.1769 45.8517 23.2757 45.6186 23.3897C45.3883 23.4998 45.2092 23.6615 45.0804 23.8743C44.9516 24.0832 44.8875 24.3224 44.8875 24.5917C44.8875 24.9987 45.0283 25.3345 45.3092 25.601C45.5929 25.8672 45.9805 26 46.4712 26C46.7491 26 47.011 25.9479 47.2557 25.8433C47.5014 25.739 47.7314 25.5814 47.9464 25.3722C47.9556 25.3961 47.9703 25.4455 47.9915 25.5203C48.0393 25.685 48.0795 25.8089 48.113 25.893H49.3597C49.2492 25.6651 49.1726 25.4532 49.1315 25.2554Z" fill="#414042"/>
<path fill-rule="evenodd" clip-rule="evenodd" d="M32.3729 23.8562C32.3729 24.158 32.356 24.3629 32.3238 24.4708C32.2754 24.6349 32.1751 24.7738 32.0229 24.8876C31.8165 25.0376 31.5997 25.1124 31.3725 25.1124C31.1688 25.1124 31.0017 25.0477 30.8701 24.9189C30.7382 24.7907 30.6729 24.638 30.6729 24.4613C30.6729 24.2822 30.7551 24.1341 30.9198 24.0172C31.0268 23.9455 31.2556 23.8725 31.6055 23.7976C31.9555 23.7225 32.2113 23.6584 32.3729 23.6047V23.8562ZM33.6561 25.2554C33.6171 25.0554 33.5972 24.7456 33.5972 24.327L33.611 22.8552C33.611 22.3083 33.5543 21.933 33.4402 21.7296C33.3295 21.5232 33.1365 21.3542 32.8617 21.2224C32.5866 21.0883 32.168 21.0205 31.6055 21.0205C30.9866 21.0212 30.5202 21.1313 30.2064 21.353C29.8917 21.5741 29.6706 21.9149 29.5424 22.3755L30.6861 22.5822C30.764 22.3605 30.8658 22.2065 30.9909 22.1197C31.1167 22.0299 31.2918 21.9854 31.5157 21.9854C31.8481 21.9854 32.0732 22.0375 32.1932 22.1424C32.3131 22.2443 32.3729 22.4163 32.3729 22.6583V22.784C32.1453 22.8791 31.7374 22.9828 31.148 23.0932C30.7118 23.1769 30.3763 23.2757 30.1432 23.3897C29.9129 23.4998 29.7338 23.6615 29.605 23.8743C29.4762 24.0832 29.4121 24.3224 29.4121 24.5917C29.4121 24.9987 29.5529 25.3345 29.8338 25.601C30.1175 25.8672 30.5051 26 30.9958 26C31.2737 26 31.5356 25.9479 31.7804 25.8433C32.026 25.739 32.256 25.5814 32.4716 25.3722C32.4808 25.3961 32.4949 25.4455 32.5167 25.5203C32.5639 25.685 32.6047 25.8089 32.6376 25.893H33.8849C33.7738 25.6651 33.6972 25.4532 33.6561 25.2554Z" fill="#414042"/>
<path d="M17.6567 18.2685H18.2691V17.9664H18.2781C18.4187 18.2273 18.7045 18.3326 19.0493 18.3326C19.5165 18.3326 20.02 17.9526 20.02 17.0829C20.02 16.2177 19.5165 15.8377 19.0493 15.8377C18.759 15.8377 18.4686 15.9476 18.3099 16.1902H18.3008V15H17.6567V18.2685ZM19.3759 17.0875C19.3759 17.4811 19.208 17.8428 18.827 17.8428C18.446 17.8428 18.2781 17.4811 18.2781 17.0875C18.2781 16.6892 18.446 16.3275 18.827 16.3275C19.208 16.3275 19.3759 16.6892 19.3759 17.0875Z" fill="#414042"/>
<path d="M21.7014 17.353C21.7014 17.4949 21.6832 17.8977 21.1797 17.8977C20.9711 17.8977 20.7851 17.8382 20.7851 17.5956C20.7851 17.3575 20.9665 17.2889 21.1661 17.2477C21.3657 17.211 21.5925 17.2065 21.7014 17.1103V17.353ZM20.8576 16.6297C20.8803 16.3733 21.0391 16.2726 21.284 16.2726C21.5109 16.2726 21.7014 16.3138 21.7014 16.5931C21.7014 16.8586 21.3339 16.8448 20.9393 16.9043C20.5401 16.9593 20.1409 17.0875 20.1409 17.623C20.1409 18.1083 20.4948 18.3326 20.9393 18.3326C21.2251 18.3326 21.5245 18.2548 21.7286 18.0396C21.7331 18.1174 21.7513 18.1953 21.7739 18.2685H22.4271C22.3682 18.1724 22.3455 17.9572 22.3455 17.7421V16.5107C22.3455 15.943 21.783 15.8377 21.3158 15.8377C20.7896 15.8377 20.2498 16.0208 20.2135 16.6297H20.8576Z" fill="#414042"/>
<path d="M22.6565 18.2685H23.3006V17.0279C23.3006 16.5473 23.4503 16.3504 23.7996 16.3504C24.0989 16.3504 24.2124 16.5427 24.2124 16.9318V18.2685H24.8565V16.8128C24.8565 16.2268 24.6841 15.8377 23.9992 15.8377C23.727 15.8377 23.4457 15.9659 23.2824 16.2314H23.2688V15.9018H22.6565V18.2685Z" fill="#414042"/>
<path d="M25.2153 18.2685H25.8595V17.4537L26.1089 17.211L26.7531 18.2685H27.5333L26.5489 16.7716L27.4335 15.9018H26.6714L25.8595 16.7533V15H25.2153V18.2685Z" fill="#414042"/>
</svg>
