<svg width="28" height="20" viewBox="0 0 28 20" fill="none" xmlns="http://www.w3.org/2000/svg">
<path d="M0 7.57137C0 7.25599 0.255642 7 0.571373 7H5.70196C6.01734 7 6.27333 7.25599 6.27333 7.57137V12.7023C6.27333 13.0177 6.01734 13.2737 5.70196 13.2737H0.571373C0.255642 13.2737 0 13.0177 0 12.7023V7.57137Z" fill="#ED1D24"/>
<path d="M4.95938 10.1948C4.92477 11.3937 3.94156 12.3553 2.73363 12.3553C1.52605 12.3553 0.542837 11.3937 0.508224 10.1948H0.618388C0.628051 11.1341 1.39252 11.8927 2.33426 11.8927C3.27619 11.8927 4.04048 11.1341 4.04996 10.1948H4.95938Z" fill="white"/>
<path d="M5.99299 10.1949C5.96206 11.746 4.6951 12.9938 3.13647 12.9938C1.57784 12.9938 0.310879 11.746 0.280308 10.1949H0.396972C0.434044 11.4554 1.46768 12.4656 2.73711 12.4656C4.00636 12.4656 5.03999 11.4554 5.07707 10.1949H5.99299Z" fill="white"/>
<path d="M3.93402 10.1948C3.92717 11.0733 3.21295 11.783 2.33288 11.783C1.45298 11.783 0.738584 11.0733 0.731556 10.1948H0.849977C0.849274 10.2078 0.849274 10.2212 0.849274 10.2343C0.849274 10.8663 1.36161 11.3787 1.99343 11.3787C2.62559 11.3787 3.13793 10.8663 3.13793 10.2343C3.13793 10.2212 3.13793 10.2078 3.13723 10.1948H3.93402Z" fill="white"/>
<path d="M2.33899 10.0789C2.34584 9.20036 3.06023 8.49072 3.94013 8.49072C4.82039 8.49072 5.53443 9.20036 5.54146 10.0789H5.42339C5.42374 10.0659 5.42409 10.0525 5.42409 10.0393C5.42409 9.40734 4.91175 8.895 4.27958 8.895C3.64742 8.895 3.13508 9.40734 3.13508 10.0393C3.13508 10.0525 3.13543 10.0659 3.13578 10.0789H2.33899Z" fill="white"/>
<path d="M0.280376 10.0789C0.310948 8.52779 1.57827 7.27997 3.13654 7.27997C4.69517 7.27997 5.96213 8.52779 5.99305 10.0789H5.87604C5.83897 8.81839 4.80568 7.80812 3.5359 7.80812C2.26665 7.80812 1.23337 8.81839 1.1963 10.0789H0.280376Z" fill="white"/>
<path d="M1.31398 10.0789C1.34859 8.87989 2.3318 7.91829 3.53938 7.91829C4.74696 7.91829 5.73018 8.87989 5.76479 10.0789H5.65463C5.64531 9.13957 4.88085 8.3809 3.93875 8.3809C2.99718 8.3809 2.23271 9.13957 2.2234 10.0789H1.31398Z" fill="white"/>
<path fill-rule="evenodd" clip-rule="evenodd" d="M25.4506 12.4614L26.1754 12.3509C26.2059 12.4916 26.2687 12.5986 26.3627 12.6724C26.4572 12.7441 26.589 12.7801 26.7587 12.7801C26.9455 12.7801 27.0858 12.7458 27.1802 12.6773C27.2433 12.6295 27.2752 12.5651 27.2752 12.4848C27.2752 12.4298 27.258 12.3846 27.2238 12.3484C27.1877 12.3142 27.1075 12.2825 26.9822 12.2534C26.3994 12.1248 26.0306 12.0074 25.8744 11.9013C25.6586 11.7539 25.5508 11.5493 25.5508 11.287C25.5508 11.0507 25.6442 10.852 25.8308 10.6907C26.0176 10.5298 26.3072 10.4495 26.6993 10.4491C27.073 10.4491 27.3504 10.5103 27.5323 10.6317C27.7138 10.7534 27.8387 10.9333 27.9072 11.1714L27.2264 11.2974C27.1972 11.1911 27.1414 11.1097 27.0593 11.053C26.9787 10.9968 26.8631 10.9683 26.7125 10.9683C26.5224 10.9683 26.386 10.995 26.3036 11.0479C26.2488 11.0857 26.2214 11.1347 26.2214 11.1944C26.2214 11.2459 26.2453 11.2895 26.2934 11.3255C26.3586 11.3736 26.583 11.4411 26.9667 11.5286C27.352 11.6159 27.6212 11.7233 27.7739 11.85C27.9245 11.9786 27.9996 12.1574 28 12.3869C28 12.6371 27.8953 12.8523 27.6864 13.0321C27.4773 13.2118 27.1681 13.3018 26.7587 13.3018C26.3867 13.3018 26.0919 13.2266 25.8744 13.0756C25.6586 12.9251 25.5172 12.7202 25.4506 12.4614Z" fill="#414042"/>
<path fill-rule="evenodd" clip-rule="evenodd" d="M18.5706 10.5109H19.2359V10.8835C19.4742 10.594 19.7576 10.4494 20.0867 10.449C20.2613 10.449 20.4129 10.4852 20.5417 10.5573C20.67 10.6293 20.7754 10.7381 20.8578 10.8835C20.9775 10.7381 21.107 10.6293 21.2459 10.5573C21.3846 10.4852 21.5327 10.449 21.6903 10.449C21.8906 10.449 22.0605 10.4903 22.1991 10.5727C22.3377 10.6534 22.4414 10.7723 22.5101 10.9299C22.5598 11.0462 22.5846 11.2349 22.5846 11.4951V13.2404H21.8625V11.6803C21.8625 11.4096 21.8375 11.2349 21.788 11.156C21.7212 11.0531 21.6186 11.002 21.4796 11.002C21.3782 11.002 21.2832 11.0329 21.1945 11.0942C21.1052 11.156 21.0411 11.2469 21.0015 11.3667C20.962 11.4851 20.9425 11.6724 20.9425 11.9295V13.2404H20.2202V11.7445C20.2202 11.479 20.2074 11.3077 20.1817 11.2305C20.1559 11.1532 20.1158 11.0959 20.0608 11.0582C20.0078 11.0208 19.935 11.002 19.8426 11.002C19.7311 11.002 19.6309 11.0318 19.542 11.0919C19.4527 11.1515 19.3883 11.2384 19.3493 11.3512C19.3115 11.4646 19.2925 11.6519 19.2925 11.914V13.2404H18.5706V10.5109Z" fill="#414042"/>
<path fill-rule="evenodd" clip-rule="evenodd" d="M17.4515 13.2404H16.7296V10.5109H17.4004V10.899C17.5149 10.7157 17.6179 10.5949 17.7086 10.5365C17.8012 10.4782 17.9055 10.4494 18.0222 10.449C18.1866 10.449 18.3451 10.4947 18.4975 10.5854L18.2741 11.2151C18.1522 11.1364 18.0394 11.097 17.9347 11.097C17.8338 11.097 17.7479 11.1251 17.678 11.1817C17.6077 11.2367 17.552 11.3368 17.5109 11.4823C17.4714 11.6278 17.4515 11.933 17.4515 12.3972V13.2404Z" fill="#414042"/>
<path fill-rule="evenodd" clip-rule="evenodd" d="M13.7062 13.2404H12.9843V11.8471C12.9843 11.5528 12.9688 11.3625 12.9379 11.2767C12.907 11.1892 12.8566 11.1216 12.7863 11.0736C12.7176 11.0258 12.6345 11.002 12.5371 11.002C12.4119 11.002 12.2996 11.0359 12.2005 11.1046C12.1009 11.1731 12.0324 11.2637 11.9946 11.3771C11.9589 11.4902 11.9406 11.6993 11.9406 12.004V13.2404H11.2187V10.5109H11.8892V10.9116C12.1274 10.6035 12.4273 10.449 12.7886 10.449C12.9483 10.449 13.0938 10.4782 13.2259 10.5365C13.3577 10.5933 13.4568 10.666 13.5237 10.7551C13.5924 10.844 13.6393 10.9452 13.6651 11.0582C13.6925 11.1715 13.7062 11.3333 13.7062 11.5442V13.2404Z" fill="#414042"/>
<path fill-rule="evenodd" clip-rule="evenodd" d="M10.0248 10.5109H10.7468V13.2404H10.0248V10.5109Z" fill="#414042"/>
<path fill-rule="evenodd" clip-rule="evenodd" d="M10.0248 9.47281H10.7468V10.141H10.0248V9.47281Z" fill="#414042"/>
<path fill-rule="evenodd" clip-rule="evenodd" d="M7.1062 12.4614L7.83095 12.3509C7.86188 12.4916 7.92425 12.5986 8.0186 12.6724C8.11278 12.7441 8.24473 12.7801 8.41428 12.7801C8.60104 12.7801 8.74178 12.7458 8.83578 12.6773C8.8992 12.6295 8.93083 12.5651 8.93083 12.4848C8.93083 12.4298 8.91361 12.3846 8.8797 12.3484C8.84368 12.3142 8.76304 12.2825 8.63812 12.2534C8.05532 12.1248 7.68618 12.0074 7.53033 11.9013C7.31457 11.7539 7.20634 11.5493 7.20634 11.287C7.20634 11.0507 7.29982 10.852 7.48676 10.6907C7.67353 10.5298 7.96273 10.4495 8.35524 10.4491C8.7286 10.4491 9.00621 10.5103 9.18788 10.6317C9.36938 10.7534 9.49465 10.9333 9.56317 11.1714L8.88199 11.2974C8.85282 11.1911 8.7973 11.1097 8.7149 11.053C8.63425 10.9968 8.51899 10.9683 8.36807 10.9683C8.17796 10.9683 8.04162 10.995 7.95957 11.0479C7.90475 11.0857 7.87734 11.1347 7.87734 11.1944C7.87734 11.2459 7.90123 11.2895 7.94938 11.3255C8.01421 11.3736 8.23858 11.4411 8.62265 11.5286C9.00796 11.6159 9.27696 11.7233 9.42946 11.85C9.58004 11.9786 9.65559 12.1574 9.65559 12.3869C9.65559 12.6371 9.55087 12.8523 9.34232 13.0321C9.13288 13.2118 8.82365 13.3018 8.41428 13.3018C8.04267 13.3018 7.74785 13.2266 7.53033 13.0756C7.31457 12.9251 7.17314 12.7202 7.1062 12.4614Z" fill="#414042"/>
<path fill-rule="evenodd" clip-rule="evenodd" d="M24.5471 12.0736C24.5467 12.2465 24.5374 12.3639 24.5186 12.4257C24.4912 12.5197 24.4338 12.5993 24.3466 12.6645C24.2284 12.7504 24.1042 12.7933 23.974 12.7933C23.8573 12.7933 23.7612 12.7562 23.6862 12.6824C23.6106 12.609 23.5728 12.5215 23.5728 12.4203C23.5728 12.3177 23.6203 12.2328 23.7143 12.1659C23.7759 12.1248 23.907 12.0829 24.1075 12.0401C24.308 11.997 24.4545 11.9603 24.5471 11.9295V12.0736ZM25.2822 12.8752C25.2599 12.7606 25.2485 12.5831 25.2485 12.3433L25.2564 11.5001C25.256 11.1869 25.2239 10.9718 25.1585 10.8553C25.0951 10.7371 24.9846 10.6403 24.8272 10.5647C24.6695 10.4879 24.4294 10.4491 24.1075 10.4491C23.7529 10.4495 23.4857 10.5125 23.306 10.6396C23.1257 10.7662 22.999 10.9614 22.9254 11.2253L23.5807 11.3438C23.6254 11.2167 23.6834 11.1285 23.7554 11.0788C23.8274 11.0273 23.9278 11.0019 24.056 11.0019C24.2465 11.0019 24.3754 11.0317 24.4441 11.0918C24.5128 11.1501 24.5471 11.2487 24.5471 11.3873V11.4594C24.4167 11.5138 24.183 11.5732 23.8453 11.6365C23.5952 11.6845 23.4033 11.741 23.2698 11.8064C23.1378 11.8695 23.0352 11.9621 22.9614 12.084C22.8876 12.2036 22.8509 12.3407 22.8509 12.4949C22.8509 12.7281 22.9315 12.9205 23.0925 13.0732C23.255 13.2257 23.4771 13.3018 23.7582 13.3018C23.9174 13.3018 24.0674 13.2719 24.2076 13.212C24.3484 13.1522 24.4801 13.0619 24.6033 12.9421C24.6086 12.9558 24.617 12.9841 24.6291 13.027C24.6565 13.1213 24.6796 13.1923 24.6987 13.2404H25.4129C25.3497 13.1099 25.3058 12.9885 25.2822 12.8752Z" fill="#414042"/>
<path fill-rule="evenodd" clip-rule="evenodd" d="M15.6815 12.0736C15.6815 12.2465 15.6718 12.3639 15.6534 12.4257C15.6256 12.5197 15.5682 12.5993 15.481 12.6645C15.3628 12.7504 15.2385 12.7933 15.1084 12.7933C14.9917 12.7933 14.8959 12.7562 14.8206 12.6824C14.745 12.609 14.7076 12.5215 14.7076 12.4203C14.7076 12.3177 14.7547 12.2328 14.849 12.1659C14.9103 12.1248 15.0414 12.0829 15.2419 12.0401C15.4424 11.997 15.5889 11.9603 15.6815 11.9295V12.0736ZM16.4166 12.8752C16.3943 12.7606 16.3829 12.5831 16.3829 12.3433L16.3908 11.5001C16.3908 11.1869 16.3583 10.9718 16.2929 10.8553C16.2295 10.7371 16.119 10.6403 15.9615 10.5647C15.8039 10.4879 15.5641 10.4491 15.2419 10.4491C14.8873 10.4495 14.6201 10.5125 14.4403 10.6396C14.2601 10.7662 14.1334 10.9614 14.06 11.2253L14.7151 11.3438C14.7598 11.2167 14.8181 11.1285 14.8898 11.0788C14.9618 11.0273 15.0621 11.0019 15.1904 11.0019C15.3809 11.0019 15.5098 11.0317 15.5785 11.0918C15.6472 11.1501 15.6815 11.2487 15.6815 11.3873V11.4594C15.5511 11.5138 15.3174 11.5732 14.9797 11.6365C14.7299 11.6845 14.5377 11.741 14.4042 11.8064C14.2722 11.8695 14.1696 11.9621 14.0958 12.084C14.022 12.2036 13.9853 12.3407 13.9853 12.4949C13.9853 12.7281 14.0659 12.9205 14.2269 13.0732C14.3894 13.2257 14.6115 13.3018 14.8926 13.3018C15.0518 13.3018 15.2018 13.2719 15.342 13.212C15.4828 13.1522 15.6145 13.0619 15.7381 12.9421C15.7433 12.9558 15.7514 12.9841 15.7639 13.027C15.7909 13.1213 15.8143 13.1923 15.8331 13.2404H16.5477C16.4841 13.1099 16.4401 12.9885 16.4166 12.8752Z" fill="#414042"/>
<path d="M7.25081 8.87248H7.60163V8.69939H7.60683C7.68739 8.84887 7.8511 8.90919 8.0486 8.90919C8.31627 8.90919 8.60472 8.69152 8.60472 8.19324C8.60472 7.69759 8.31627 7.47992 8.0486 7.47992C7.88229 7.47992 7.71597 7.54286 7.62502 7.68185H7.61982V7H7.25081V8.87248ZM8.23571 8.19587C8.23571 8.4214 8.13956 8.62858 7.92127 8.62858C7.70298 8.62858 7.60683 8.4214 7.60683 8.19587C7.60683 7.96771 7.70298 7.76053 7.92127 7.76053C8.13956 7.76053 8.23571 7.96771 8.23571 8.19587Z" fill="#414042"/>
<path d="M9.56795 8.34797C9.56795 8.42927 9.55755 8.66005 9.2691 8.66005C9.14956 8.66005 9.04301 8.62596 9.04301 8.48697C9.04301 8.35059 9.14696 8.31126 9.2613 8.28765C9.37565 8.26667 9.50558 8.26405 9.56795 8.20898V8.34797ZM9.08459 7.93362C9.09759 7.78675 9.18854 7.72906 9.32887 7.72906C9.4588 7.72906 9.56795 7.75266 9.56795 7.91263C9.56795 8.06474 9.35745 8.05687 9.13137 8.09097C8.90269 8.12244 8.674 8.19587 8.674 8.5027C8.674 8.78069 8.8767 8.90919 9.13137 8.90919C9.29509 8.90919 9.4666 8.86461 9.58354 8.74135C9.58614 8.78593 9.59653 8.83051 9.60953 8.87248H9.98374C9.94995 8.8174 9.93696 8.69414 9.93696 8.57089V7.86543C9.93696 7.54024 9.61472 7.47992 9.34706 7.47992C9.04561 7.47992 8.73637 7.58482 8.71558 7.93362H9.08459Z" fill="#414042"/>
<path d="M10.1151 8.87248H10.4841V8.16177C10.4841 7.88641 10.5699 7.77364 10.77 7.77364C10.9415 7.77364 11.0064 7.88379 11.0064 8.1067V8.87248H11.3755V8.03852C11.3755 7.70283 11.2767 7.47992 10.8843 7.47992C10.7284 7.47992 10.5673 7.55335 10.4737 7.70546H10.4659V7.51664H10.1151V8.87248Z" fill="#414042"/>
<path d="M11.581 8.87248H11.95V8.40567L12.093 8.26667L12.462 8.87248H12.909L12.345 8.01491L12.8518 7.51664H12.4152L11.95 8.00442V7H11.581V8.87248Z" fill="#414042"/>
</svg>
