<svg width="34" height="24" viewBox="0 0 34 24" fill="none" xmlns="http://www.w3.org/2000/svg">
<rect width="34" height="24" rx="4" fill="white"/>
<path d="M4 9.54398C4 9.2437 4.2434 8.99996 4.54402 8.99996H9.42895C9.72923 8.99996 9.97297 9.2437 9.97297 9.54398V14.4293C9.97297 14.7295 9.72923 14.9733 9.42895 14.9733H4.54402C4.2434 14.9733 4 14.7295 4 14.4293V9.54398Z" fill="#ED1D24"/>
<path d="M8.72193 12.0419C8.68897 13.1834 7.75284 14.099 6.60274 14.099C5.45298 14.099 4.51685 13.1834 4.48389 12.0419H4.58878C4.59798 12.9362 5.32584 13.6585 6.2225 13.6585C7.11932 13.6585 7.84702 12.9362 7.85605 12.0419H8.72193Z" fill="white"/>
<path d="M9.70605 12.0418C9.6766 13.5186 8.4703 14.7067 6.9863 14.7067C5.5023 14.7067 4.296 13.5186 4.26689 12.0418H4.37797C4.41326 13.2419 5.39741 14.2038 6.60606 14.2038C7.81454 14.2038 8.79868 13.2419 8.83398 12.0418H9.70605Z" fill="white"/>
<path d="M7.74566 12.0419C7.73914 12.8783 7.05912 13.554 6.22118 13.554C5.38341 13.554 4.70322 12.8783 4.69653 12.0419H4.80928C4.80861 12.0542 4.80861 12.0669 4.80861 12.0795C4.80861 12.6812 5.29642 13.169 5.89798 13.169C6.49988 13.169 6.98769 12.6812 6.98769 12.0795C6.98769 12.0669 6.98769 12.0542 6.98702 12.0419H7.74566Z" fill="white"/>
<path d="M6.227 11.9314C6.23353 11.095 6.91371 10.4193 7.75148 10.4193C8.58959 10.4193 9.26944 11.095 9.27614 11.9314H9.16372C9.16405 11.919 9.16439 11.9063 9.16439 11.8938C9.16439 11.292 8.67658 10.8042 8.07468 10.8042C7.47278 10.8042 6.98498 11.292 6.98498 11.8938C6.98498 11.9063 6.98531 11.919 6.98565 11.9314H6.227Z" fill="white"/>
<path d="M4.26695 11.9314C4.29606 10.4546 5.5027 9.26652 6.98636 9.26652C8.47037 9.26652 9.67667 10.4546 9.70611 11.9314H9.5947C9.5594 10.7313 8.57559 9.76938 7.36661 9.76938C6.15813 9.76938 5.17432 10.7313 5.13902 11.9314H4.26695Z" fill="white"/>
<path d="M5.25107 11.9314C5.28402 10.7898 6.22016 9.87427 7.36992 9.87427C8.51968 9.87427 9.45582 10.7898 9.48878 11.9314H9.38389C9.37502 11.0371 8.64716 10.3147 7.75016 10.3147C6.85368 10.3147 6.12581 11.0371 6.11694 11.9314H5.25107Z" fill="white"/>
<path fill-rule="evenodd" clip-rule="evenodd" d="M28.2321 14.1999L28.9221 14.0946C28.9512 14.2286 29.0109 14.3305 29.1004 14.4008C29.1904 14.469 29.3159 14.5033 29.4775 14.5033C29.6553 14.5033 29.789 14.4707 29.8788 14.4055C29.9389 14.36 29.9693 14.2986 29.9693 14.2221C29.9693 14.1698 29.9529 14.1268 29.9203 14.0923C29.886 14.0597 29.8096 14.0296 29.6903 14.0018C29.1354 13.8793 28.7843 13.7676 28.6356 13.6666C28.4301 13.5262 28.3274 13.3315 28.3274 13.0817C28.3274 12.8567 28.4164 12.6675 28.5941 12.514C28.7719 12.3607 29.0476 12.2843 29.421 12.2839C29.7768 12.2839 30.0409 12.3422 30.2141 12.4577C30.3869 12.5737 30.5058 12.745 30.5711 12.9717L29.9228 13.0916C29.8951 12.9904 29.8419 12.9129 29.7637 12.8589C29.6869 12.8054 29.5769 12.7783 29.4335 12.7783C29.2525 12.7783 29.1227 12.8037 29.0442 12.854C28.992 12.89 28.9659 12.9367 28.9659 12.9936C28.9659 13.0426 28.9887 13.0841 29.0345 13.1184C29.0966 13.1642 29.3102 13.2284 29.6756 13.3117C30.0424 13.3949 30.2987 13.4971 30.4441 13.6177C30.5874 13.7402 30.659 13.9105 30.6594 14.1289C30.6594 14.3672 30.5597 14.5721 30.3608 14.7432C30.1617 14.9143 29.8673 15 29.4775 15C29.1234 15 28.8427 14.9284 28.6356 14.7847C28.4301 14.6413 28.2955 14.4463 28.2321 14.1999Z" fill="#414042"/>
<path fill-rule="evenodd" clip-rule="evenodd" d="M21.6814 12.3427H22.3149V12.6975C22.5418 12.4219 22.8116 12.2842 23.1249 12.2838C23.2912 12.2838 23.4356 12.3183 23.5582 12.3869C23.6803 12.4555 23.7807 12.559 23.8592 12.6975C23.9731 12.559 24.0964 12.4555 24.2287 12.3869C24.3607 12.3183 24.5017 12.2838 24.6518 12.2838C24.8425 12.2838 25.0042 12.3232 25.1362 12.4016C25.2682 12.4784 25.3669 12.5917 25.4323 12.7417C25.4797 12.8525 25.5033 13.0321 25.5033 13.2799V14.9415H24.8157V13.4562C24.8157 13.1984 24.7919 13.0321 24.7448 12.957C24.6812 12.859 24.5835 12.8103 24.4512 12.8103C24.3547 12.8103 24.2642 12.8397 24.1797 12.8981C24.0947 12.957 24.0336 13.0435 23.996 13.1576C23.9584 13.2703 23.9398 13.4487 23.9398 13.6934V14.9415H23.2521V13.5172C23.2521 13.2645 23.2399 13.1014 23.2154 13.0279C23.1908 12.9543 23.1527 12.8998 23.1003 12.8638C23.0498 12.8282 22.9806 12.8103 22.8926 12.8103C22.7863 12.8103 22.691 12.8387 22.6063 12.8959C22.5214 12.9527 22.46 13.0355 22.4228 13.1429C22.3869 13.2508 22.3688 13.4291 22.3688 13.6787V14.9415H21.6814V12.3427Z" fill="#414042"/>
<path fill-rule="evenodd" clip-rule="evenodd" d="M20.6159 14.9415H19.9286V12.3427H20.5673V12.7123C20.6763 12.5378 20.7744 12.4227 20.8607 12.3672C20.9488 12.3116 21.0482 12.2842 21.1593 12.2838C21.3159 12.2838 21.4668 12.3273 21.6118 12.4137L21.3992 13.0132C21.2831 12.9383 21.1757 12.9008 21.076 12.9008C20.98 12.9008 20.8982 12.9276 20.8316 12.9814C20.7647 13.0338 20.7116 13.1291 20.6725 13.2677C20.6348 13.4062 20.6159 13.6967 20.6159 14.1387V14.9415Z" fill="#414042"/>
<path fill-rule="evenodd" clip-rule="evenodd" d="M17.05 14.9415H16.3626V13.6149C16.3626 13.3347 16.3479 13.1536 16.3185 13.0719C16.289 12.9886 16.241 12.9242 16.1741 12.8786C16.1087 12.833 16.0296 12.8103 15.9369 12.8103C15.8176 12.8103 15.7107 12.8426 15.6164 12.908C15.5215 12.9732 15.4563 13.0596 15.4203 13.1675C15.3863 13.2752 15.3689 13.4743 15.3689 13.7643V14.9415H14.6816V12.3427H15.3199V12.7243C15.5468 12.4309 15.8323 12.2838 16.1763 12.2838C16.3283 12.2838 16.4668 12.3116 16.5926 12.3672C16.7181 12.4212 16.8125 12.4904 16.8762 12.5753C16.9416 12.6599 16.9863 12.7563 17.0109 12.8638C17.037 12.9717 17.05 13.1258 17.05 13.3265V14.9415Z" fill="#414042"/>
<path fill-rule="evenodd" clip-rule="evenodd" d="M13.5448 12.3427H14.2322V14.9415H13.5448V12.3427Z" fill="#414042"/>
<path fill-rule="evenodd" clip-rule="evenodd" d="M13.5448 11.3544H14.2322V11.9906H13.5448V11.3544Z" fill="#414042"/>
<path fill-rule="evenodd" clip-rule="evenodd" d="M10.766 14.1999L11.456 14.0946C11.4855 14.2286 11.5448 14.3305 11.6347 14.4008C11.7243 14.469 11.85 14.5033 12.0114 14.5033C12.1892 14.5033 12.3232 14.4707 12.4127 14.4055C12.4731 14.36 12.5032 14.2986 12.5032 14.2221C12.5032 14.1698 12.4868 14.1268 12.4545 14.0923C12.4203 14.0597 12.3435 14.0296 12.2245 14.0018C11.6696 13.8793 11.3182 13.7676 11.1698 13.6666C10.9644 13.5262 10.8613 13.3315 10.8613 13.0817C10.8613 12.8567 10.9503 12.6675 11.1283 12.514C11.3061 12.3607 11.5815 12.2843 11.9552 12.2839C12.3107 12.2839 12.575 12.3422 12.748 12.4577C12.9208 12.5737 13.04 12.745 13.1053 12.9717L12.4567 13.0916C12.429 12.9904 12.3761 12.9129 12.2976 12.8589C12.2208 12.8054 12.1111 12.7783 11.9674 12.7783C11.7864 12.7783 11.6566 12.8037 11.5785 12.854C11.5263 12.89 11.5002 12.9367 11.5002 12.9936C11.5002 13.0426 11.5229 13.0841 11.5688 13.1184C11.6305 13.1642 11.8441 13.2284 12.2098 13.3117C12.5767 13.3949 12.8328 13.4971 12.978 13.6177C13.1214 13.7402 13.1933 13.9105 13.1933 14.1289C13.1933 14.3672 13.0936 14.5721 12.895 14.7432C12.6956 14.9143 12.4012 15 12.0114 15C11.6576 15 11.3769 14.9284 11.1698 14.7847C10.9644 14.6413 10.8297 14.4463 10.766 14.1999Z" fill="#414042"/>
<path fill-rule="evenodd" clip-rule="evenodd" d="M27.3718 13.8307C27.3715 13.9953 27.3626 14.107 27.3447 14.1659C27.3186 14.2554 27.2639 14.3312 27.1809 14.3933C27.0683 14.4751 26.9501 14.5159 26.8261 14.5159C26.715 14.5159 26.6235 14.4806 26.5521 14.4103C26.4802 14.3404 26.4442 14.2571 26.4442 14.1607C26.4442 14.063 26.4894 13.9822 26.5789 13.9185C26.6376 13.8793 26.7624 13.8395 26.9532 13.7987C27.1441 13.7577 27.2836 13.7228 27.3718 13.6935V13.8307ZM28.0717 14.5938C28.0505 14.4848 28.0396 14.3158 28.0396 14.0875L28.0471 13.2846C28.0468 12.9864 28.0162 12.7816 27.9539 12.6707C27.8936 12.5581 27.7883 12.4659 27.6384 12.394C27.4884 12.3209 27.2597 12.2839 26.9532 12.2839C26.6157 12.2843 26.3612 12.3443 26.1901 12.4653C26.0184 12.5859 25.8978 12.7717 25.8277 13.023L26.4517 13.1358C26.4942 13.0148 26.5494 12.9308 26.618 12.8835C26.6866 12.8345 26.7821 12.8102 26.9042 12.8102C27.0856 12.8102 27.2083 12.8387 27.2738 12.8959C27.3392 12.9514 27.3718 13.0453 27.3718 13.1772V13.2458C27.2477 13.2977 27.0252 13.3542 26.7036 13.4145C26.4654 13.4601 26.2828 13.514 26.1556 13.5762C26.03 13.6363 25.9323 13.7244 25.862 13.8405C25.7918 13.9545 25.7568 14.0849 25.7568 14.2318C25.7568 14.4538 25.8336 14.637 25.9868 14.7824C26.1416 14.9276 26.353 15 26.6207 15C26.7722 15 26.9151 14.9716 27.0486 14.9145C27.1826 14.8576 27.3081 14.7717 27.4253 14.6576C27.4303 14.6706 27.4384 14.6975 27.4499 14.7384C27.476 14.8282 27.4979 14.8958 27.5162 14.9416H28.1962C28.136 14.8173 28.0941 14.7017 28.0717 14.5938Z" fill="#414042"/>
<path fill-rule="evenodd" clip-rule="evenodd" d="M18.9307 13.8307C18.9307 13.9953 18.9215 14.107 18.9039 14.1659C18.8775 14.2554 18.8228 14.3312 18.7398 14.3933C18.6272 14.4751 18.5089 14.5159 18.385 14.5159C18.2739 14.5159 18.1827 14.4806 18.111 14.4103C18.039 14.3404 18.0034 14.2571 18.0034 14.1607C18.0034 14.063 18.0482 13.9822 18.1381 13.9185C18.1964 13.8793 18.3212 13.8395 18.5121 13.7987C18.703 13.7577 18.8425 13.7228 18.9307 13.6935V13.8307ZM19.6306 14.5938C19.6093 14.4848 19.5985 14.3158 19.5985 14.0875L19.606 13.2846C19.606 12.9864 19.575 12.7816 19.5128 12.6707C19.4524 12.5581 19.3472 12.4659 19.1973 12.394C19.0473 12.3209 18.8189 12.2839 18.5121 12.2839C18.1745 12.2843 17.9201 12.3443 17.7489 12.4653C17.5773 12.5859 17.4567 12.7717 17.3868 13.023L18.0106 13.1358C18.0531 13.0148 18.1086 12.9308 18.1769 12.8835C18.2455 12.8345 18.341 12.8102 18.4631 12.8102C18.6444 12.8102 18.7672 12.8387 18.8326 12.8959C18.898 12.9514 18.9307 13.0453 18.9307 13.1772V13.2458C18.8065 13.2977 18.584 13.3542 18.2625 13.4145C18.0246 13.4601 17.8416 13.514 17.7145 13.5762C17.5889 13.6363 17.4912 13.7244 17.4209 13.8405C17.3506 13.9545 17.3157 14.0849 17.3157 14.2318C17.3157 14.4538 17.3925 14.637 17.5457 14.7824C17.7004 14.9276 17.9119 15 18.1795 15C18.3311 15 18.474 14.9716 18.6075 14.9145C18.7415 14.8576 18.8669 14.7717 18.9845 14.6576C18.9895 14.6706 18.9972 14.6975 19.0091 14.7384C19.0349 14.8282 19.0571 14.8958 19.075 14.9416H19.7554C19.6948 14.8173 19.653 14.7017 19.6306 14.5938Z" fill="#414042"/>
<path d="M10.9036 10.7828H11.2377V10.618H11.2426C11.3193 10.7603 11.4752 10.8178 11.6632 10.8178C11.9181 10.8178 12.1927 10.6105 12.1927 10.1361C12.1927 9.66419 11.9181 9.45694 11.6632 9.45694C11.5049 9.45694 11.3465 9.51687 11.2599 9.64921H11.255V9H10.9036V10.7828ZM11.8414 10.1386C11.8414 10.3533 11.7498 10.5506 11.542 10.5506C11.3342 10.5506 11.2426 10.3533 11.2426 10.1386C11.2426 9.92137 11.3342 9.72412 11.542 9.72412C11.7498 9.72412 11.8414 9.92137 11.8414 10.1386Z" fill="#414042"/>
<path d="M13.1098 10.2834C13.1098 10.3608 13.0999 10.5806 12.8253 10.5806C12.7115 10.5806 12.61 10.5481 12.61 10.4158C12.61 10.2859 12.709 10.2485 12.8179 10.226C12.9267 10.206 13.0505 10.2035 13.1098 10.1511V10.2834ZM12.6496 9.88891C12.662 9.74908 12.7486 9.69415 12.8822 9.69415C13.0059 9.69415 13.1098 9.71662 13.1098 9.86894C13.1098 10.0138 12.9094 10.0063 12.6942 10.0387C12.4764 10.0687 12.2587 10.1386 12.2587 10.4308C12.2587 10.6954 12.4517 10.8178 12.6942 10.8178C12.85 10.8178 13.0133 10.7753 13.1247 10.658C13.1272 10.7004 13.1371 10.7429 13.1494 10.7828H13.5057C13.4736 10.7304 13.4612 10.613 13.4612 10.4957V9.82399C13.4612 9.51437 13.1544 9.45694 12.8995 9.45694C12.6125 9.45694 12.3181 9.55682 12.2983 9.88891H12.6496Z" fill="#414042"/>
<path d="M13.6308 10.7828H13.9821V10.1061C13.9821 9.84397 14.0638 9.7366 14.2543 9.7366C14.4176 9.7366 14.4795 9.84147 14.4795 10.0537V10.7828H14.8308V9.98879C14.8308 9.66918 14.7368 9.45694 14.3632 9.45694C14.2147 9.45694 14.0613 9.52686 13.9722 9.67168H13.9648V9.4919H13.6308V10.7828Z" fill="#414042"/>
<path d="M15.0265 10.7828H15.3779V10.3384L15.514 10.206L15.8653 10.7828H16.2909L15.754 9.96632L16.2365 9.4919H15.8208L15.3779 9.95633V9H15.0265V10.7828Z" fill="#414042"/>
</svg>
