<svg width="46" height="32" viewBox="0 0 46 32" fill="none" xmlns="http://www.w3.org/2000/svg">
<rect width="46" height="32" rx="4" fill="white"/>
<path d="M3 12.816C3 12.3656 3.3651 12 3.81602 12H11.1434C11.5938 12 11.9595 12.3656 11.9595 12.816V20.1439C11.9595 20.5944 11.5938 20.96 11.1434 20.96H3.81602C3.3651 20.96 3 20.5944 3 20.1439V12.816Z" fill="#ED1D24"/>
<path d="M10.0829 16.5628C10.0335 18.2751 8.62926 19.6484 6.90412 19.6484C5.17947 19.6484 3.77527 18.2751 3.72584 16.5628H3.88317C3.89697 17.9042 4.98877 18.9877 6.33375 18.9877C7.67899 18.9877 8.77053 17.9042 8.78408 16.5628H10.0829Z" fill="white"/>
<path d="M11.5591 16.5629C11.5149 18.7781 9.70545 20.5602 7.47945 20.5602C5.25345 20.5602 3.44399 18.7781 3.40033 16.5629H3.56695C3.61989 18.363 5.09611 19.8059 6.90908 19.8059C8.7218 19.8059 10.198 18.363 10.251 16.5629H11.5591Z" fill="white"/>
<path d="M8.61849 16.5628C8.60871 17.8174 7.58868 18.8309 6.33177 18.8309C5.07511 18.8309 4.05483 17.8174 4.04479 16.5628H4.21392C4.21292 16.5813 4.21292 16.6004 4.21292 16.6192C4.21292 17.5218 4.94463 18.2535 5.84697 18.2535C6.74982 18.2535 7.48153 17.5218 7.48153 16.6192C7.48153 16.6004 7.48153 16.5813 7.48053 16.5628H8.61849Z" fill="white"/>
<path d="M6.3405 16.3972C6.35029 15.1426 7.37057 14.1291 8.62723 14.1291C9.88438 14.1291 10.9042 15.1426 10.9142 16.3972H10.7456C10.7461 16.3786 10.7466 16.3596 10.7466 16.3408C10.7466 15.4382 10.0149 14.7065 9.11202 14.7065C8.20918 14.7065 7.47746 15.4382 7.47746 16.3408C7.47746 16.3596 7.47797 16.3786 7.47847 16.3972H6.3405Z" fill="white"/>
<path d="M3.40043 16.3972C3.44409 14.182 5.25405 12.3999 7.47955 12.3999C9.70555 12.3999 11.515 14.182 11.5592 16.3972H11.392C11.3391 14.597 9.86338 13.1542 8.04991 13.1542C6.23719 13.1542 4.76147 14.597 4.70853 16.3972H3.40043Z" fill="white"/>
<path d="M4.8766 16.3972C4.92604 14.6849 6.33024 13.3115 8.05488 13.3115C9.77953 13.3115 11.1837 14.6849 11.2332 16.3972H11.0758C11.0625 15.0557 9.97073 13.9722 8.62525 13.9722C7.28051 13.9722 6.18872 15.0557 6.17542 16.3972H4.8766Z" fill="white"/>
<path fill-rule="evenodd" clip-rule="evenodd" d="M39.3481 19.7998L40.3832 19.642C40.4268 19.843 40.5164 19.9958 40.6507 20.1012C40.7857 20.2035 40.9739 20.255 41.2163 20.255C41.483 20.255 41.6835 20.2061 41.8182 20.1082C41.9083 20.0399 41.954 19.9479 41.954 19.8332C41.954 19.7546 41.9294 19.6901 41.8805 19.6385C41.829 19.5895 41.7144 19.5444 41.5354 19.5027C40.7031 19.319 40.1764 19.1514 39.9533 18.9998C39.6452 18.7893 39.4911 18.4972 39.4911 18.1226C39.4911 17.7851 39.6246 17.5013 39.8911 17.2709C40.1578 17.0411 40.5714 16.9264 41.1314 16.9259C41.6652 16.9259 42.0614 17.0132 42.3211 17.1866C42.5803 17.3605 42.7587 17.6175 42.8566 17.9575L41.8842 18.1374C41.8426 17.9856 41.7628 17.8694 41.6456 17.7883C41.5304 17.7081 41.3653 17.6674 41.1503 17.6674C40.8788 17.6674 40.684 17.7055 40.5664 17.7811C40.4881 17.835 40.4489 17.905 40.4489 17.9903C40.4489 18.0639 40.483 18.1261 40.5518 18.1775C40.6449 18.2463 40.9653 18.3427 41.5134 18.4676C42.0636 18.5923 42.4481 18.7456 42.6661 18.9266C42.8812 19.1102 42.9886 19.3657 42.9891 19.6934C42.9891 20.0507 42.8395 20.3581 42.5412 20.6148C42.2426 20.8715 41.8009 21 41.2163 21C40.685 21 40.264 20.8926 39.9533 20.6771C39.6452 20.462 39.4432 20.1694 39.3481 19.7998Z" fill="#414042"/>
<path fill-rule="evenodd" clip-rule="evenodd" d="M29.5221 17.014H30.4724V17.5463C30.8127 17.1327 31.2174 16.9262 31.6874 16.9257C31.9368 16.9257 32.1534 16.9774 32.3373 17.0803C32.5205 17.1832 32.671 17.3385 32.7887 17.5463C32.9596 17.3385 33.1446 17.1832 33.343 17.0803C33.541 16.9774 33.7526 16.9257 33.9776 16.9257C34.2637 16.9257 34.5064 16.9847 34.7043 17.1024C34.9023 17.2175 35.0504 17.3874 35.1485 17.6125C35.2195 17.7786 35.2549 18.0481 35.2549 18.4197V20.9122H34.2236V18.6842C34.2236 18.2975 34.1879 18.0481 34.1172 17.9354C34.0218 17.7884 33.8753 17.7154 33.6768 17.7154C33.532 17.7154 33.3962 17.7595 33.2695 17.8471C33.142 17.9354 33.0505 18.0652 32.994 18.2363C32.9375 18.4054 32.9097 18.6729 32.9097 19.04V20.9122H31.8781V18.7758C31.8781 18.3967 31.8598 18.152 31.8232 18.0418C31.7863 17.9314 31.7291 17.8496 31.6505 17.7957C31.5747 17.7422 31.4708 17.7154 31.3389 17.7154C31.1795 17.7154 31.0365 17.758 30.9095 17.8439C30.782 17.9289 30.69 18.0531 30.6342 18.2142C30.5803 18.3761 30.5532 18.6436 30.5532 19.018V20.9122H29.5221V17.014Z" fill="#414042"/>
<path fill-rule="evenodd" clip-rule="evenodd" d="M27.9239 20.9124H26.8928V17.0142H27.8509V17.5685C28.0145 17.3067 28.1615 17.1341 28.291 17.0508C28.4233 16.9675 28.5723 16.9263 28.7389 16.9258C28.9738 16.9258 29.2002 16.9911 29.4177 17.1206L29.0988 18.0199C28.9246 17.9075 28.7635 17.8513 28.614 17.8513C28.4699 17.8513 28.3472 17.8914 28.2474 17.9722C28.147 18.0508 28.0675 18.1938 28.0087 18.4016C27.9523 18.6093 27.9239 19.0452 27.9239 19.7081V20.9124Z" fill="#414042"/>
<path fill-rule="evenodd" clip-rule="evenodd" d="M22.575 20.9124H21.5439V18.9225C21.5439 18.5022 21.5218 18.2304 21.4777 18.108C21.4335 17.983 21.3615 17.8864 21.2611 17.8179C21.163 17.7496 21.0443 17.7155 20.9053 17.7155C20.7264 17.7155 20.5661 17.7639 20.4245 17.8621C20.2823 17.9599 20.1844 18.0894 20.1304 18.2512C20.0795 18.4128 20.0534 18.7114 20.0534 19.1466V20.9124H19.0223V17.0142H19.9799V17.5865C20.3201 17.1464 20.7485 16.9258 21.2644 16.9258C21.4925 16.9258 21.7003 16.9675 21.889 17.0508C22.0772 17.1318 22.2187 17.2357 22.3143 17.363C22.4124 17.4899 22.4794 17.6345 22.5163 17.7958C22.5554 17.9577 22.575 18.1888 22.575 18.4899V20.9124Z" fill="#414042"/>
<path fill-rule="evenodd" clip-rule="evenodd" d="M17.3173 17.0142H18.3483V20.9124H17.3173V17.0142Z" fill="#414042"/>
<path fill-rule="evenodd" clip-rule="evenodd" d="M17.3173 15.5317H18.3483V16.486H17.3173V15.5317Z" fill="#414042"/>
<path fill-rule="evenodd" clip-rule="evenodd" d="M13.1489 19.7998L14.184 19.642C14.2282 19.843 14.3173 19.9958 14.452 20.1012C14.5865 20.2035 14.775 20.255 15.0171 20.255C15.2838 20.255 15.4848 20.2061 15.6191 20.1082C15.7097 20.0399 15.7548 19.9479 15.7548 19.8332C15.7548 19.7546 15.7303 19.6901 15.6818 19.6385C15.6304 19.5895 15.5152 19.5444 15.3368 19.5027C14.5045 19.319 13.9773 19.1514 13.7547 18.9998C13.4465 18.7893 13.292 18.4972 13.292 18.1226C13.292 17.7851 13.4255 17.5013 13.6924 17.2709C13.9592 17.0411 14.3722 16.9264 14.9328 16.9259C15.466 16.9259 15.8625 17.0132 16.122 17.1866C16.3812 17.3605 16.5601 17.6175 16.6579 17.9575L15.6851 18.1374C15.6434 17.9856 15.5641 17.8694 15.4464 17.7883C15.3313 17.7081 15.1667 17.6674 14.9511 17.6674C14.6796 17.6674 14.4849 17.7055 14.3677 17.7811C14.2894 17.835 14.2503 17.905 14.2503 17.9903C14.2503 18.0639 14.2844 18.1261 14.3531 18.1775C14.4457 18.2463 14.7662 18.3427 15.3147 18.4676C15.865 18.5923 16.2492 18.7456 16.467 18.9266C16.682 19.1102 16.7899 19.3657 16.7899 19.6934C16.7899 20.0507 16.6404 20.3581 16.3425 20.6148C16.0434 20.8715 15.6018 21 15.0171 21C14.4864 21 14.0653 20.8926 13.7547 20.6771C13.4465 20.462 13.2445 20.1694 13.1489 19.7998Z" fill="#414042"/>
<path fill-rule="evenodd" clip-rule="evenodd" d="M38.0577 19.246C38.0572 19.4929 38.0439 19.6605 38.017 19.7489C37.9779 19.8831 37.8958 19.9968 37.7714 20.0899C37.6025 20.2126 37.4251 20.2738 37.2392 20.2738C37.0725 20.2738 36.9353 20.2209 36.8281 20.1155C36.7202 20.0106 36.6663 19.8856 36.6663 19.7411C36.6663 19.5945 36.734 19.4733 36.8683 19.3777C36.9564 19.319 37.1436 19.2593 37.4299 19.1981C37.7162 19.1366 37.9255 19.0842 38.0577 19.0402V19.246ZM39.1076 20.3907C39.0757 20.2271 39.0594 19.9737 39.0594 19.6312L39.0707 18.427C39.0702 17.9796 39.0243 17.6724 38.9309 17.5061C38.8403 17.3372 38.6825 17.1989 38.4577 17.091C38.2326 16.9814 37.8896 16.9259 37.4299 16.9259C36.9235 16.9264 36.5418 17.0165 36.2851 17.1979C36.0277 17.3788 35.8468 17.6576 35.7416 18.0345L36.6776 18.2036C36.7413 18.0222 36.8241 17.8962 36.927 17.8252C37.0299 17.7517 37.1732 17.7153 37.3563 17.7153C37.6284 17.7153 37.8125 17.758 37.9106 17.8438C38.0088 17.9271 38.0577 18.0679 38.0577 18.2659V18.3688C37.8715 18.4465 37.5378 18.5314 37.0555 18.6217C36.6982 18.6902 36.4241 18.771 36.2334 18.8643C36.045 18.9544 35.8984 19.0867 35.7931 19.2608C35.6877 19.4317 35.6352 19.6274 35.6352 19.8477C35.6352 20.1807 35.7504 20.4555 35.9803 20.6735C36.2124 20.8913 36.5295 21 36.931 21C37.1584 21 37.3727 20.9573 37.5729 20.8718C37.7739 20.7865 37.9621 20.6575 38.138 20.4863C38.1455 20.5059 38.1576 20.5463 38.1749 20.6075C38.214 20.7423 38.2469 20.8437 38.2742 20.9124H39.2943C39.2039 20.726 39.1412 20.5526 39.1076 20.3907Z" fill="#414042"/>
<path fill-rule="evenodd" clip-rule="evenodd" d="M25.396 19.246C25.396 19.4929 25.3822 19.6605 25.3559 19.7489C25.3162 19.8831 25.2342 19.9968 25.1097 20.0899C24.9408 20.2126 24.7634 20.2738 24.5775 20.2738C24.4109 20.2738 24.2741 20.2209 24.1664 20.1155C24.0585 20.0106 24.0051 19.8856 24.0051 19.7411C24.0051 19.5945 24.0723 19.4733 24.2071 19.3777C24.2947 19.319 24.4819 19.2593 24.7682 19.1981C25.0545 19.1366 25.2638 19.0842 25.396 19.0402V19.246ZM26.4459 20.3907C26.414 20.2271 26.3977 19.9737 26.3977 19.6312L26.409 18.427C26.409 17.9796 26.3626 17.6724 26.2692 17.5061C26.1786 17.3372 26.0208 17.1989 25.796 17.091C25.5709 16.9814 25.2284 16.9259 24.7682 16.9259C24.2618 16.9264 23.8801 17.0165 23.6234 17.1979C23.366 17.3788 23.1851 17.6576 23.0802 18.0345L24.0159 18.2036C24.0796 18.0222 24.1629 17.8962 24.2653 17.8252C24.3682 17.7517 24.5115 17.7153 24.6947 17.7153C24.9667 17.7153 25.1508 17.758 25.249 17.8438C25.3471 17.9271 25.396 18.0679 25.396 18.2659V18.3688C25.2098 18.4465 24.8761 18.5314 24.3938 18.6217C24.037 18.6902 23.7624 18.771 23.5717 18.8643C23.3833 18.9544 23.2368 19.0867 23.1314 19.2608C23.026 19.4317 22.9735 19.6274 22.9735 19.8477C22.9735 20.1807 23.0887 20.4555 23.3186 20.6735C23.5507 20.8913 23.8678 21 24.2693 21C24.4967 21 24.711 20.9573 24.9112 20.8718C25.1122 20.7865 25.3004 20.6575 25.4768 20.4863C25.4843 20.5059 25.4959 20.5463 25.5137 20.6075C25.5523 20.7423 25.5857 20.8437 25.6126 20.9124H26.6331C26.5422 20.726 26.4795 20.5526 26.4459 20.3907Z" fill="#414042"/>
<path d="M13.3555 14.6742H13.8565V14.427H13.8639C13.979 14.6405 14.2128 14.7267 14.4949 14.7267C14.8771 14.7267 15.2891 14.4158 15.2891 13.7042C15.2891 12.9963 14.8771 12.6854 14.4949 12.6854C14.2573 12.6854 14.0198 12.7753 13.8899 12.9738H13.8825V12H13.3555V14.6742ZM14.7621 13.7079C14.7621 14.03 14.6248 14.3259 14.313 14.3259C14.0012 14.3259 13.8639 14.03 13.8639 13.7079C13.8639 13.3821 14.0012 13.0862 14.313 13.0862C14.6248 13.0862 14.7621 13.3821 14.7621 13.7079Z" fill="#414042"/>
<path d="M16.6648 13.9251C16.6648 14.0413 16.6499 14.3709 16.238 14.3709C16.0672 14.3709 15.9151 14.3222 15.9151 14.1237C15.9151 13.9289 16.0635 13.8727 16.2268 13.839C16.3901 13.809 16.5757 13.8053 16.6648 13.7266V13.9251ZM15.9744 13.3334C15.993 13.1236 16.1229 13.0412 16.3233 13.0412C16.5089 13.0412 16.6648 13.0749 16.6648 13.3034C16.6648 13.5206 16.3641 13.5094 16.0412 13.5581C15.7146 13.603 15.388 13.7079 15.388 14.1461C15.388 14.5431 15.6775 14.7267 16.0412 14.7267C16.2751 14.7267 16.52 14.663 16.687 14.487C16.6907 14.5506 16.7056 14.6143 16.7241 14.6742H17.2586C17.2103 14.5956 17.1918 14.4195 17.1918 14.2435V13.236C17.1918 12.7716 16.7316 12.6854 16.3493 12.6854C15.9188 12.6854 15.4771 12.8352 15.4474 13.3334H15.9744Z" fill="#414042"/>
<path d="M17.4462 14.6742H17.9732V13.6592C17.9732 13.266 18.0957 13.1049 18.3815 13.1049C18.6264 13.1049 18.7192 13.2622 18.7192 13.5806V14.6742H19.2462V13.4832C19.2462 13.0038 19.1052 12.6854 18.5448 12.6854C18.3221 12.6854 18.092 12.7903 17.9584 13.0075H17.9472V12.7378H17.4462V14.6742Z" fill="#414042"/>
<path d="M19.5398 14.6742H20.0668V14.0075L20.271 13.809L20.798 14.6742H21.4363L20.631 13.4495L21.3547 12.7378H20.7312L20.0668 13.4345V12H19.5398V14.6742Z" fill="#414042"/>
</svg>
