<svg width="28" height="20" viewBox="0 0 28 20" fill="none" xmlns="http://www.w3.org/2000/svg">
<path fill-rule="evenodd" clip-rule="evenodd" d="M17.6748 7.5003C17.6748 7.04001 18.0351 6.66663 18.4788 6.66663C18.9232 6.66663 19.2833 7.04001 19.2833 7.5003C19.2833 7.96087 18.9232 8.33344 18.4788 8.33344C18.0351 8.33344 17.6748 7.96087 17.6748 7.5003ZM19.9864 7.34841L21.6171 7.04597V13.5343H19.9864V7.34841ZM22.3683 7.34841V13.5343H24V7.04597L22.3683 7.34841ZM17.6635 8.7886V13.5343H19.295V8.7886H17.6635ZM14.47 10.8645C14.47 9.47065 15.2359 8.76938 16.7432 8.71902C16.7432 8.71902 17.0155 8.70818 17.1762 8.74365V10.1308C16.2207 10.1649 16.1151 10.5226 16.1151 11.3568V13.5343H14.47V10.8645ZM12.317 8.78319L12.3087 8.80554C12.2503 8.96444 11.9845 9.68762 11.3879 10.4354V7.04597L9.70413 7.3912V13.5343H11.3879V11.6351C11.8754 12.3933 12.1163 13.5343 12.1163 13.5343H14.1327C13.9334 12.6749 13.0609 11.0906 13.0609 11.0906C13.8443 10.0612 14.1878 8.96487 14.2427 8.78319H12.317ZM6.19691 8.96839C6.19691 9.41379 6.67454 9.44601 6.8807 9.45982C8.39278 9.56488 9.29397 10.332 9.29397 11.5122C9.29397 12.5536 8.48815 13.6039 6.69048 13.6039C5.85697 13.6039 5.14574 13.5188 4.51499 13.3469V11.8312C4.93619 12.0107 5.63017 12.1991 6.34506 12.1991C6.9975 12.1991 7.38551 11.9755 7.38551 11.5953C7.38551 11.1367 6.91495 11.1068 6.7345 11.0954L6.73255 11.0952C4.62682 10.9466 4.40002 9.65559 4.40002 9.10756C4.40002 8.15583 5.05168 7.04597 6.89089 7.04597C7.95774 7.04597 8.53283 7.21845 9.02824 7.39796L9.05306 7.40582V8.87795L9.03451 8.87254C8.83567 8.78535 8.60207 8.69979 8.60207 8.69979C8.18244 8.56956 7.59559 8.43092 7.14199 8.43092C6.8841 8.43092 6.19691 8.43092 6.19691 8.96839Z" fill="#862165"/>
</svg>
