<svg width="46" height="32" viewBox="0 0 46 32" fill="none" xmlns="http://www.w3.org/2000/svg">
<path fill-rule="evenodd" clip-rule="evenodd" d="M27.4622 13.0004C27.4622 12.4481 27.8998 12 28.4385 12C28.9782 12 29.4154 12.4481 29.4154 13.0004C29.4154 13.5531 28.9782 14.0002 28.4385 14.0002C27.8998 14.0002 27.4622 13.5531 27.4622 13.0004ZM30.2692 12.8181L32.2494 12.4552V20.2412H30.2692V12.8181ZM33.1615 12.8181V20.2412H35.1429V12.4552L33.1615 12.8181ZM27.4486 14.5464V20.2412H29.4297V14.5464H27.4486ZM23.5707 17.0375C23.5707 15.3648 24.5007 14.5233 26.3311 14.4629C26.3311 14.4629 26.6617 14.4499 26.8568 14.4924V16.157C25.6965 16.1979 25.5683 16.6271 25.5683 17.6282V20.2412H23.5707V17.0375ZM20.9564 14.5399L20.9463 14.5667C20.8754 14.7574 20.5526 15.6252 19.8281 16.5225V12.4552L17.7836 12.8695V20.2412H19.8281V17.9622C20.4202 18.872 20.7127 20.2412 20.7127 20.2412H23.1612C22.9191 19.2099 21.8597 17.3088 21.8597 17.3088C22.8109 16.0735 23.2281 14.7579 23.2947 14.5399H20.9564ZM13.5248 14.7621C13.5248 15.2966 14.1048 15.3353 14.3551 15.3518C16.1912 15.4779 17.2855 16.3984 17.2855 17.8147C17.2855 19.0643 16.3071 20.3247 14.1242 20.3247C13.112 20.3247 12.2484 20.2226 11.4825 20.0163V18.1974C11.994 18.4129 12.8366 18.639 13.7047 18.639C14.497 18.639 14.9681 18.3706 14.9681 17.9144C14.9681 17.3641 14.3967 17.3282 14.1776 17.3145L14.1752 17.3143C11.6183 17.1359 11.3429 15.5868 11.3429 14.9291C11.3429 13.787 12.1342 12.4552 14.3675 12.4552C15.663 12.4552 16.3613 12.6622 16.9629 12.8776L16.993 12.887V14.6536L16.9705 14.6471C16.729 14.5425 16.4454 14.4398 16.4454 14.4398C15.9358 14.2835 15.2232 14.1172 14.6724 14.1172C14.3593 14.1172 13.5248 14.1172 13.5248 14.7621Z" fill="#862165"/>
</svg>
