<svg width="46" height="32" viewBox="0 0 46 32" fill="none" xmlns="http://www.w3.org/2000/svg">
<rect width="46" height="32" rx="6" fill="#F884A1"/>
<path fill-rule="evenodd" clip-rule="evenodd" d="M26.3788 12.5808L27.6319 6.1575C27.7827 5.4369 27.368 4.71075 26.6734 4.50011C25.898 4.30056 25.1172 4.76618 24.918 5.5533L23.7826 9.55501L22.8875 5.61428C22.8175 5.24843 22.6021 4.92139 22.2952 4.71075C21.9883 4.50011 21.606 4.42805 21.2452 4.50566C20.5344 4.66086 20.0713 5.5145 20.249 6.29054L20.7771 10.7544C20.3183 10.2836 19.7825 10.1386 19.1616 10.5088L19.0809 10.5643C18.515 10.961 18.3999 11.7716 18.7635 12.5099C18.4625 12.5273 18.1683 12.6565 17.9446 12.8924L17.8908 12.9534C17.3684 13.5077 17.4708 14.4445 18.1223 15.1152L18.6516 15.6582C18.7111 18.1684 20.6947 19.9266 23.0334 19.9266C23.0611 19.9266 23.0878 19.9227 23.1131 19.9154C26.281 19.8828 27.6733 17.9404 27.9119 14.9932C27.9873 14.062 27.8203 13.4245 27.4703 13.042C27.2765 12.8314 27.0718 12.7316 26.9157 12.7095L26.3788 12.5808ZM25.8117 12.445L27.0611 6.03555C27.1473 5.61428 26.9049 5.19854 26.5172 5.0766C26.0649 4.96019 25.6018 5.24289 25.478 5.71405L24.0295 10.8248C23.9864 10.9855 23.8249 11.0742 23.6687 11.0299C23.5447 10.9947 23.4649 10.8826 23.4588 10.7574L22.3167 5.73623C22.2737 5.52005 22.1498 5.33158 21.9721 5.20963C21.7944 5.08768 21.5737 5.04888 21.3636 5.09323C20.9867 5.17637 20.7067 5.69742 20.8198 6.16305L20.8252 6.1963L21.4778 11.735L21.8884 12.3657C22.0677 12.1095 22.3262 11.9499 22.6348 11.878C22.8933 11.8226 23.1571 11.8281 23.4102 11.8724C23.4733 11.8817 23.5214 11.8949 23.548 11.9022C23.5531 11.9036 23.5575 11.9048 23.561 11.9057L25.8117 12.445ZM21.6303 13.0463L20.9875 12.0588C20.9656 12.035 20.9475 12.0074 20.9343 11.9771L20.6317 11.5122C20.2601 10.9523 19.8993 10.7583 19.4686 11.0133L19.4093 11.0576C19.0755 11.296 19.0324 11.8614 19.377 12.4046L20.6478 14.3502C20.874 14.6939 21.3263 14.7826 21.6602 14.5498L21.7248 14.511C21.8141 14.4509 21.888 14.3682 21.9411 14.2731C21.6219 13.9367 21.5429 13.5207 21.6303 13.0463ZM22.5289 14.0155C22.4956 13.9633 22.446 13.9216 22.3849 13.8983C22.1421 13.6579 22.1325 13.3576 22.2471 12.9644C22.3333 12.6762 22.5002 12.5265 22.7641 12.4656C22.9364 12.4268 23.1248 12.4323 23.3079 12.4656C23.3285 12.4698 23.3467 12.4732 23.3623 12.4761C23.3874 12.4809 23.4056 12.4843 23.4156 12.4877L26.808 13.3026L26.8726 13.3247C26.9265 13.3469 26.9857 13.3913 27.0449 13.4522C27.2711 13.7017 27.4003 14.1728 27.3357 14.9489C27.1149 17.665 25.8872 19.3501 22.9687 19.3224C22.9523 19.3224 22.9363 19.3237 22.9207 19.3264C21.1517 19.2778 19.6554 18.0889 19.3079 16.3315L19.7431 16.7781C20.2654 17.2936 21.0893 17.2825 21.5955 16.7504L21.6547 16.6894C22.0564 16.2579 22.1253 15.6223 21.8642 15.1195C21.9028 15.0981 21.9407 15.0745 21.9779 15.0487L22.0425 15.0043C22.1888 14.9017 22.3118 14.7695 22.4061 14.6173C22.6027 14.7228 22.839 14.8152 23.1195 14.8934L23.9325 15.0874C23.3295 15.4367 22.9525 16.0852 22.9094 17.0774C22.8987 17.2437 23.0225 17.3823 23.1841 17.3934C23.3456 17.3989 23.4802 17.277 23.491 17.1107C23.5341 16.2127 23.8733 15.7304 24.4172 15.5198C24.708 15.4089 25.0257 15.3868 25.3057 15.4145L25.3757 15.4256C25.7472 15.4976 25.8657 14.9267 25.4941 14.838L23.2595 14.3225C22.9369 14.2318 22.6986 14.131 22.5289 14.0155ZM18.3646 13.3137C18.5881 13.0729 18.9521 13.0439 19.2144 13.2316L20.1632 14.6884C20.4235 15.0797 20.8449 15.2871 21.271 15.2794C21.5034 15.5697 21.491 15.9991 21.2293 16.2737L21.1754 16.3347C20.8954 16.6284 20.4377 16.634 20.1523 16.3457L18.5369 14.6994C18.09 14.2394 18.0308 13.674 18.3108 13.3746L18.3646 13.3137ZM16.2107 25.5528C16.2107 26.4785 15.5107 27.1104 14.5953 27.1104C13.9545 27.1104 13.4053 26.8111 13.066 26.3344L13.6961 25.6859C13.8845 25.9353 14.1968 26.2069 14.6061 26.2069C14.9884 26.2069 15.2522 25.9741 15.2522 25.5972C15.2522 25.1981 14.9399 25.0983 14.4499 24.9542C13.5507 24.6826 13.1845 24.2003 13.1845 23.5739C13.1845 22.7868 13.7661 22.1106 14.6815 22.1106C15.2576 22.1106 15.7907 22.3877 16.0276 22.9254L15.2684 23.4187C15.123 23.1748 14.9238 23.0141 14.6545 23.0141C14.3368 23.0141 14.1376 23.2358 14.1376 23.5185C14.1376 23.8566 14.4284 23.962 14.8915 24.1005C15.6184 24.3223 16.2107 24.6937 16.2107 25.5528ZM16.539 25.3422C16.539 26.3123 17.3252 27.1105 18.2944 27.1105C19.2637 27.1105 20.0499 26.3123 20.0499 25.3422C20.0499 24.3722 19.2637 23.574 18.2944 23.574C17.3252 23.574 16.539 24.3722 16.539 25.3422ZM18.2942 26.2236C18.7627 26.2236 19.1342 25.8411 19.1342 25.3422C19.1342 24.8433 18.7627 24.4609 18.2942 24.4609C17.8204 24.4609 17.4542 24.8433 17.4542 25.3422C17.4542 25.8466 17.8257 26.2236 18.2942 26.2236ZM22.3168 22.1716V23.0585C21.8053 23.0363 21.4337 23.3024 21.4337 23.8899V24.2502C21.6383 24.0285 21.9291 23.9176 22.2899 23.9176V24.8156C21.7837 24.8267 21.4337 25.1593 21.4337 25.6249V27.0218H20.5183V23.8345C20.5183 22.9365 21.0676 22.1716 22.1822 22.1716H22.3168ZM24.3146 27.1105C23.3453 27.1105 22.5591 26.3123 22.5591 25.3422C22.5591 24.3722 23.3453 23.574 24.3146 23.574C25.2838 23.574 26.07 24.3722 26.07 25.3422C26.07 26.3123 25.2838 27.1105 24.3146 27.1105ZM25.1545 25.3422C25.1545 25.8411 24.7884 26.2236 24.3145 26.2236C23.846 26.2236 23.4745 25.8466 23.4745 25.3422C23.4745 24.8433 23.846 24.4609 24.3145 24.4609C24.783 24.4609 25.1545 24.8433 25.1545 25.3422ZM27.4538 24.0507V23.6682H26.5654V27.0218H27.4808V25.4919C27.4808 24.9376 27.7985 24.6271 28.3477 24.6271V23.6183C27.9331 23.6017 27.6369 23.7458 27.4538 24.0507ZM29.7909 24.4886V25.309C29.7909 25.8965 30.1624 26.1571 30.674 26.1404V27.0273H30.5394C29.4193 27.0273 28.8755 26.2624 28.8755 25.3644V22.5928H29.7909V23.1194C29.7909 23.574 30.1517 23.9176 30.6471 23.9287V24.8212C30.2809 24.8212 29.9955 24.7103 29.7909 24.4886ZM31.7671 27.0772C32.1009 27.0772 32.3809 26.7945 32.3809 26.4453C32.3809 26.1016 32.1063 25.8134 31.7671 25.8134C31.4278 25.8134 31.1532 26.0961 31.1532 26.4453C31.1532 26.7945 31.4278 27.0772 31.7671 27.0772Z" fill="white"/>
</svg>
