<svg width="28" height="20" viewBox="0 0 28 20" fill="none" xmlns="http://www.w3.org/2000/svg">
<rect width="28" height="20" rx="4" fill="#F884A1"/>
<path fill-rule="evenodd" clip-rule="evenodd" d="M16.2928 7.86302L17.0667 3.84845C17.1599 3.39808 16.9038 2.94423 16.4747 2.81259C15.9958 2.68787 15.5136 2.97888 15.3905 3.47083L14.6892 5.9719L14.1364 3.50894C14.0932 3.28029 13.9601 3.07588 13.7706 2.94423C13.581 2.81259 13.3448 2.76755 13.122 2.81605C12.683 2.91305 12.397 3.44658 12.5067 3.9316L12.8329 6.72149C12.5495 6.42726 12.2186 6.33662 11.8351 6.56805L11.7852 6.60269C11.4358 6.85061 11.3646 7.35724 11.5892 7.81868C11.4033 7.82957 11.2216 7.91031 11.0834 8.05776L11.0502 8.09587C10.7276 8.44231 10.7907 9.0278 11.1932 9.447L11.5201 9.78641C11.5569 11.3553 12.782 12.4541 14.2265 12.4541C14.2436 12.4541 14.2601 12.4517 14.2757 12.4471C16.2324 12.4267 17.0923 11.2128 17.2397 9.37077C17.2862 8.78875 17.1831 8.39034 16.967 8.15129C16.8472 8.01964 16.7208 7.95728 16.6244 7.94342L16.2928 7.86302ZM15.9425 7.77811L16.7142 3.77224C16.7674 3.50894 16.6178 3.24911 16.3783 3.17289C16.0989 3.10013 15.8129 3.27682 15.7364 3.5713L14.8417 6.76552C14.8151 6.86598 14.7154 6.92142 14.6189 6.8937C14.5423 6.87169 14.493 6.80164 14.4892 6.72342L13.7839 3.58516C13.7573 3.45004 13.6808 3.33225 13.571 3.25603C13.4613 3.17982 13.3249 3.15557 13.1952 3.18328C12.9624 3.23525 12.7894 3.56091 12.8593 3.85192L12.8626 3.87271L13.2657 7.33437L13.5193 7.72858C13.63 7.56845 13.7897 7.46868 13.9803 7.42376C14.14 7.38911 14.3029 7.39258 14.4592 7.42029C14.4982 7.42609 14.5279 7.43432 14.5443 7.43888C14.5475 7.43977 14.5502 7.44052 14.5524 7.44108L15.9425 7.77811ZM13.3599 8.15395L12.9629 7.53678C12.9494 7.52187 12.9382 7.50464 12.93 7.48573L12.7431 7.19511C12.5136 6.8452 12.2908 6.72395 12.0247 6.88331L11.9881 6.91103C11.7819 7.06 11.7553 7.41337 11.9682 7.75289L12.7531 8.9689C12.8927 9.1837 13.1721 9.23913 13.3783 9.09363L13.4182 9.06937C13.4734 9.03181 13.5191 8.98016 13.5518 8.92071C13.3547 8.71045 13.3059 8.45043 13.3599 8.15395ZM13.9149 8.75972C13.8943 8.72708 13.8637 8.70099 13.826 8.68648C13.676 8.53619 13.6701 8.34855 13.7409 8.10279C13.7941 7.92264 13.8972 7.8291 14.0601 7.79099C14.1666 7.76674 14.283 7.7702 14.3961 7.79099C14.4088 7.79363 14.42 7.79578 14.4296 7.7976C14.4452 7.80056 14.4564 7.8027 14.4626 7.80485L16.5579 8.31412L16.5978 8.32798C16.631 8.34184 16.6676 8.36955 16.7042 8.40766C16.8439 8.56356 16.9237 8.85804 16.8838 9.34306C16.7474 11.0406 15.9891 12.0938 14.1865 12.0765C14.1764 12.0765 14.1665 12.0774 14.1569 12.079C13.0643 12.0486 12.1401 11.3056 11.9254 10.2072L12.1943 10.4863C12.5169 10.8085 13.0257 10.8016 13.3384 10.469L13.3749 10.4309C13.6231 10.1612 13.6656 9.76394 13.5044 9.44969C13.5282 9.43631 13.5516 9.42156 13.5745 9.40543L13.6145 9.37771C13.7048 9.3136 13.7808 9.23096 13.839 9.13581C13.9605 9.20173 14.1065 9.25952 14.2797 9.30841L14.7819 9.42967C14.4094 9.64793 14.1766 10.0533 14.1499 10.6734C14.1433 10.7773 14.2198 10.8639 14.3196 10.8709C14.4193 10.8743 14.5025 10.7981 14.5091 10.6942C14.5357 10.133 14.7453 9.83155 15.0812 9.6999C15.2608 9.63061 15.457 9.61675 15.63 9.63407L15.6732 9.641C15.9027 9.68604 15.9758 9.3292 15.7464 9.27377L14.3661 8.95158C14.1669 8.89489 14.0197 8.83192 13.9149 8.75972ZM11.3428 8.32105C11.4809 8.17057 11.7057 8.15243 11.8677 8.26975L12.4537 9.18024C12.6145 9.4248 12.8748 9.55447 13.138 9.54962C13.2815 9.73107 13.2738 9.99948 13.1122 10.1711L13.0789 10.2092C12.906 10.3928 12.6233 10.3963 12.447 10.2161L11.4493 9.18717C11.1732 8.89962 11.1366 8.54624 11.3096 8.35916L11.3428 8.32105ZM10.0125 15.9705C10.0125 16.5491 9.58013 16.944 9.01474 16.944C8.61896 16.944 8.27972 16.757 8.07019 16.459L8.45932 16.0537C8.57572 16.2096 8.76862 16.3793 9.02139 16.3793C9.25752 16.3793 9.42049 16.2338 9.42049 15.9983C9.42049 15.7488 9.22759 15.6865 8.92494 15.5964C8.36952 15.4266 8.14336 15.1252 8.14336 14.7337C8.14336 14.2418 8.50255 13.8191 9.06795 13.8191C9.42382 13.8191 9.75308 13.9923 9.89942 14.3284L9.43047 14.6367C9.34067 14.4843 9.21761 14.3838 9.05132 14.3838C8.85509 14.3838 8.73204 14.5224 8.73204 14.6991C8.73204 14.9104 8.91163 14.9762 9.19766 15.0629C9.64665 15.2014 10.0125 15.4335 10.0125 15.9705ZM10.2153 15.8389C10.2153 16.4452 10.7008 16.9441 11.2995 16.9441C11.8982 16.9441 12.3837 16.4452 12.3837 15.8389C12.3837 15.2326 11.8982 14.7337 11.2995 14.7337C10.7008 14.7337 10.2153 15.2326 10.2153 15.8389ZM11.2994 16.3897C11.5887 16.3897 11.8182 16.1507 11.8182 15.8389C11.8182 15.5271 11.5887 15.288 11.2994 15.288C11.0067 15.288 10.7805 15.5271 10.7805 15.8389C10.7805 16.1542 11.01 16.3897 11.2994 16.3897ZM13.7839 13.8572V14.4116C13.4679 14.3977 13.2385 14.564 13.2385 14.9312V15.1564C13.3648 15.0178 13.5444 14.9485 13.7673 14.9485V15.5098C13.4546 15.5167 13.2385 15.7246 13.2385 16.0156V16.8886H12.6731V14.8966C12.6731 14.3353 13.0123 13.8572 13.7008 13.8572H13.7839ZM15.0178 16.9441C14.4192 16.9441 13.9336 16.4452 13.9336 15.8389C13.9336 15.2326 14.4192 14.7337 15.0178 14.7337C15.6165 14.7337 16.102 15.2326 16.102 15.8389C16.102 16.4452 15.6165 16.9441 15.0178 16.9441ZM15.5366 15.8389C15.5366 16.1507 15.3104 16.3897 15.0178 16.3897C14.7284 16.3897 14.4989 16.1542 14.4989 15.8389C14.4989 15.5271 14.7284 15.288 15.0178 15.288C15.3071 15.288 15.5366 15.5271 15.5366 15.8389ZM16.9568 15.0317V14.7926H16.408V16.8886H16.9734V15.9324C16.9734 15.586 17.1696 15.392 17.5089 15.392V14.7615C17.2528 14.7511 17.0699 14.8411 16.9568 15.0317ZM18.4002 15.3054V15.8181C18.4002 16.1853 18.6297 16.3482 18.9457 16.3378V16.8921H18.8625C18.1708 16.8921 17.8348 16.414 17.8348 15.8528V14.1205H18.4002V14.4497C18.4002 14.7337 18.6231 14.9485 18.9291 14.9555V15.5132C18.7029 15.5132 18.5266 15.444 18.4002 15.3054ZM19.6208 16.9233C19.827 16.9233 20 16.7466 20 16.5283C20 16.3135 19.8304 16.1334 19.6208 16.1334C19.4113 16.1334 19.2417 16.3101 19.2417 16.5283C19.2417 16.7466 19.4113 16.9233 19.6208 16.9233Z" fill="white"/>
</svg>
