<svg width="34" height="24" viewBox="0 0 34 24" fill="none" xmlns="http://www.w3.org/2000/svg">
<circle cx="17" cy="12" r="8" fill="#012A31"/>
<g clip-path="url(#clip0_301_3256)">
<path d="M14.8368 7.01131C14.6972 7.05158 14.5565 7.08855 14.4186 7.13324C11.7416 7.99614 11.5408 10.7939 12.5891 12.2196C13.2043 13.0566 14.0545 13.4698 15.0735 13.5542C15.4569 13.5857 15.8443 13.5608 16.2299 13.5719C17.0856 13.5967 17.655 14.0061 17.8189 14.7046C18.0158 15.5448 17.6865 16.3222 16.9554 16.7128C16.3342 17.0444 15.6583 17.1101 14.9742 17.0389C12.183 16.7481 10.2354 14.5159 10.3276 11.7319C10.4043 9.40138 12.22 7.36993 14.5367 7.0229C14.6343 7.008 14.732 6.99421 14.8296 6.97931C14.8318 6.98979 14.8346 7.00083 14.8368 7.01131Z" fill="#AFEE01"/>
<path d="M19.7288 9.21598V7.12274C21.0436 8.42426 22.3716 9.73847 23.683 11.0367C22.5774 12.1307 21.421 13.2745 20.2745 14.4083C20.2469 14.2455 20.221 14.0243 20.1702 13.808C19.8027 12.2394 18.4841 11.1967 16.792 11.1387C16.3975 11.1249 16.0019 11.1432 15.608 11.1272C15.0474 11.1045 14.6623 10.7669 14.6193 10.2841C14.5619 9.63971 14.9349 9.22591 15.6135 9.2204C16.8527 9.20991 18.0924 9.21653 19.3321 9.21598C19.4507 9.21598 19.5694 9.21598 19.7288 9.21598Z" fill="#AFEE01"/>
</g>
<defs>
<clipPath id="clip0_301_3256">
<rect width="13.3594" height="10.0855" fill="white" transform="translate(10.3241 6.97931)"/>
</clipPath>
</defs>
</svg>
