<svg width="46" height="32" viewBox="0 0 46 32" fill="none" xmlns="http://www.w3.org/2000/svg">
<circle cx="23" cy="16" r="11" fill="#012A31"/>
<g clip-path="url(#clip0_301_3340)">
<path d="M20.0255 9.14056C19.8336 9.19594 19.6401 9.24676 19.4505 9.30821C15.7696 10.4947 15.4935 14.3417 16.9349 16.3019C17.7807 17.4528 18.9498 18.021 20.351 18.137C20.8782 18.1803 21.4107 18.1461 21.941 18.1613C23.1176 18.1955 23.9005 18.7584 24.1258 19.7188C24.3967 20.8741 23.9438 21.943 22.9386 22.4801C22.0844 22.9361 21.1551 23.0264 20.2144 22.9285C16.3765 22.5287 13.6986 19.4593 13.8253 15.6313C13.9307 12.4269 16.4274 9.63366 19.6128 9.15649C19.7471 9.13601 19.8814 9.11704 20.0156 9.09656C20.0187 9.11097 20.0225 9.12614 20.0255 9.14056Z" fill="#AFEE01"/>
<path d="M26.7521 12.172V9.29382C28.5599 11.0834 30.3859 12.8904 32.1892 14.6755C30.6689 16.1798 29.0788 17.7524 27.5024 19.3114C27.4645 19.0876 27.4288 18.7834 27.359 18.486C26.8538 16.3293 25.0407 14.8955 22.714 14.8158C22.1716 14.7969 21.6276 14.8219 21.086 14.7999C20.3152 14.7688 19.7857 14.3045 19.7265 13.6407C19.6476 12.7547 20.1605 12.1857 21.0936 12.1781C22.7974 12.1637 24.5021 12.1728 26.2067 12.172C26.3698 12.172 26.5329 12.172 26.7521 12.172Z" fill="#AFEE01"/>
</g>
<defs>
<clipPath id="clip0_301_3340">
<rect width="18.3692" height="13.8676" fill="white" transform="translate(13.8207 9.09656)"/>
</clipPath>
</defs>
</svg>
