<svg width="58" height="40" viewBox="0 0 58 40" fill="none" xmlns="http://www.w3.org/2000/svg">
<circle cx="29" cy="20" r="14" fill="#012A31"/>
<g clip-path="url(#clip0_301_3382)">
<path d="M25.2142 11.2698C24.9699 11.3403 24.7237 11.405 24.4824 11.4832C19.7977 12.9933 19.4462 17.8894 21.2807 20.3843C22.3573 21.849 23.8451 22.5722 25.6284 22.7199C26.2995 22.7749 26.9773 22.7315 27.6522 22.7508C29.1497 22.7942 30.1461 23.5106 30.4328 24.733C30.7775 26.2035 30.2011 27.5639 28.9218 28.2475C27.8346 28.8277 26.6519 28.9426 25.4546 28.8181C20.5701 28.3093 17.1618 24.4028 17.3231 19.5308C17.4573 15.4524 20.6348 11.8974 24.689 11.2901C24.8599 11.264 25.0308 11.2399 25.2017 11.2138C25.2055 11.2322 25.2104 11.2515 25.2142 11.2698Z" fill="#AFEE01"/>
<path d="M33.7755 15.128V11.4648C36.0763 13.7425 38.4003 16.0424 40.6954 18.3142C38.7605 20.2288 36.7367 22.2304 34.7304 24.2145C34.6821 23.9297 34.6367 23.5425 34.5479 23.164C33.9049 20.419 31.5973 18.5942 28.636 18.4928C27.9457 18.4687 27.2534 18.5006 26.564 18.4726C25.5831 18.433 24.9091 17.8421 24.8338 16.9973C24.7334 15.8695 25.3861 15.1454 26.5737 15.1357C28.7423 15.1174 30.9118 15.129 33.0813 15.128C33.2889 15.128 33.4965 15.128 33.7755 15.128Z" fill="#AFEE01"/>
</g>
<defs>
<clipPath id="clip0_301_3382">
<rect width="23.379" height="17.6497" fill="white" transform="translate(17.3173 11.2138)"/>
</clipPath>
</defs>
</svg>
