<svg width="28" height="20" viewBox="0 0 28 20" fill="none" xmlns="http://www.w3.org/2000/svg">
<circle cx="14" cy="10" r="6" fill="#012A31"/>
<g clip-path="url(#clip0_301_3298)">
<path d="M12.3777 6.2585C12.273 6.2887 12.1675 6.31643 12.064 6.34995C10.0563 6.99712 9.90569 9.09546 10.6919 10.1647C11.1533 10.7924 11.7909 11.1024 12.5552 11.1657C12.8428 11.1893 13.1333 11.1706 13.4225 11.1789C14.0643 11.1975 14.4913 11.5046 14.6142 12.0284C14.762 12.6586 14.5149 13.2417 13.9667 13.5346C13.5007 13.7833 12.9938 13.8326 12.4807 13.7792C10.3873 13.5611 8.92666 11.8869 8.99576 9.79891C9.05328 8.05105 10.4151 6.52746 12.1526 6.26719C12.2258 6.25601 12.2991 6.24567 12.3723 6.2345C12.374 6.24236 12.376 6.25063 12.3777 6.2585Z" fill="#AFEE01"/>
<path d="M16.0466 7.91203V6.3421C17.0327 7.31824 18.0287 8.3039 19.0123 9.27755C18.183 10.0981 17.3157 10.9559 16.4559 11.8062C16.4352 11.6842 16.4157 11.5182 16.3776 11.356C16.1021 10.1796 15.1131 9.39755 13.844 9.3541C13.5481 9.34376 13.2514 9.35741 12.956 9.34541C12.5356 9.32845 12.2468 9.07521 12.2145 8.71314C12.1714 8.22983 12.4512 7.91948 12.9601 7.91534C13.8895 7.90748 14.8193 7.91245 15.7491 7.91203C15.8381 7.91203 15.927 7.91203 16.0466 7.91203Z" fill="#AFEE01"/>
</g>
<defs>
<clipPath id="clip0_301_3298">
<rect width="10.0196" height="7.56414" fill="white" transform="translate(8.9931 6.2345)"/>
</clipPath>
</defs>
</svg>
