<svg width="46" height="32" viewBox="0 0 46 32" fill="none" xmlns="http://www.w3.org/2000/svg">
<path d="M14.0245 6.66736H21.1688C22.166 6.66736 22.7863 7.50413 22.5537 8.53414L19.2275 23.2346C18.9928 24.2611 17.9943 25.0985 16.9963 25.0985H9.85277C8.85689 25.0985 8.23523 24.2611 8.46787 23.2346L11.7954 8.53414C12.0281 7.50413 13.026 6.66736 14.0245 6.66736Z" fill="#E21836"/>
<path d="M20.5739 6.66663H28.7896C29.7867 6.66663 29.3371 7.5034 29.1025 8.53341L25.7769 23.2339C25.5435 24.2603 25.6163 25.0978 24.6171 25.0978H16.4014C15.4022 25.0978 14.7839 24.2603 15.0186 23.2339L18.3441 8.53341C18.5802 7.5034 19.5761 6.66663 20.5739 6.66663Z" fill="#00447C"/>
<path d="M28.4639 6.66663H35.6081C36.6068 6.66663 37.227 7.5034 36.9925 8.53341L33.6669 23.2339C33.4321 24.2603 32.4329 25.0978 31.4344 25.0978H24.2935C23.2943 25.0978 22.6746 24.2603 22.9086 23.2339L26.2348 8.53341C26.4674 7.5034 27.4647 6.66663 28.4639 6.66663Z" fill="#007B84"/>
<path d="M15.89 11.3776C15.1553 11.3853 14.9383 11.3776 14.869 11.3608C14.8424 11.4911 14.3466 13.8453 14.3452 13.8473C14.2385 14.3235 14.1608 14.6631 13.897 14.8823C13.7473 15.0097 13.5724 15.0712 13.3697 15.0712C13.0439 15.0712 12.8541 14.9047 12.8222 14.5888L12.8162 14.4804C12.8162 14.4804 12.9154 13.8424 12.9154 13.8388C12.9154 13.8388 13.4357 11.6935 13.5289 11.4099C13.5338 11.3938 13.5352 11.3853 13.5364 11.3776C12.5236 11.3868 12.3441 11.3776 12.3317 11.3608C12.3249 11.3839 12.2998 11.5169 12.2998 11.5169L11.7686 13.9349L11.7229 14.14L11.6346 14.8108C11.6346 15.0097 11.6726 15.1721 11.7482 15.3095C11.9902 15.7449 12.6807 15.8101 13.0713 15.8101C13.5745 15.8101 14.0466 15.7001 14.3656 15.4991C14.9194 15.1623 15.0642 14.6358 15.1934 14.168L15.2533 13.9279C15.2533 13.9279 15.7893 11.6998 15.8804 11.4099C15.8839 11.3938 15.8853 11.3853 15.89 11.3776ZM17.7136 13.1751C17.5844 13.1751 17.3483 13.2074 17.1362 13.3144C17.0592 13.3551 16.9865 13.4021 16.9097 13.4488L16.979 13.1913L16.941 13.1479C16.4912 13.2416 16.3906 13.2542 15.9751 13.3144L15.9403 13.3382C15.892 13.75 15.8492 14.0596 15.6703 14.8689C15.6023 15.1672 15.5316 15.4684 15.4607 15.7659L15.4798 15.8037C15.9056 15.7806 16.0348 15.7806 16.4048 15.7869L16.4348 15.7534C16.4818 15.5055 16.4879 15.4474 16.592 14.9453C16.641 14.7072 16.743 14.1842 16.7933 13.9979C16.8858 13.9538 16.9771 13.9104 17.0641 13.9104C17.2715 13.9104 17.2463 14.0967 17.2383 14.1709C17.2294 14.2955 17.1538 14.7024 17.0763 15.0518L17.0246 15.2773C16.9886 15.4438 16.949 15.6057 16.913 15.7708L16.9286 15.8037C17.3483 15.7806 17.4763 15.7806 17.8347 15.7869L17.8768 15.7534C17.9416 15.3662 17.9606 15.2626 18.0755 14.6988L18.1333 14.4398C18.2456 13.9328 18.3021 13.6758 18.2171 13.4664C18.1272 13.2318 17.9116 13.1751 17.7136 13.1751ZM19.7509 13.7059C19.5278 13.75 19.3856 13.7794 19.2442 13.7984C19.104 13.8215 18.9673 13.8425 18.7517 13.8733L18.7346 13.8893L18.719 13.902C18.6965 14.0673 18.6808 14.2101 18.6511 14.3781C18.6258 14.5518 18.587 14.7492 18.5238 15.0327C18.4748 15.2498 18.4496 15.3255 18.4217 15.4018C18.3946 15.4782 18.3646 15.5524 18.3096 15.7659L18.3225 15.7856L18.3333 15.8037C18.5347 15.7939 18.6666 15.7869 18.802 15.7856C18.9373 15.7806 19.0775 15.7856 19.2945 15.7869L19.3135 15.7709L19.3338 15.7534C19.3652 15.5608 19.3699 15.509 19.389 15.4151C19.408 15.3144 19.4408 15.1749 19.521 14.8024C19.559 14.6274 19.6013 14.453 19.6407 14.2745C19.6816 14.0967 19.7244 13.9215 19.7652 13.7466L19.7591 13.7254L19.7509 13.7059ZM19.7556 12.9903C19.553 12.8671 19.1972 12.9062 18.9578 13.0763C18.719 13.243 18.6919 13.4796 18.8939 13.6044C19.0931 13.7241 19.4502 13.6885 19.6876 13.5169C19.9258 13.3466 19.9556 13.1121 19.7556 12.9903ZM20.9815 15.8423C21.3916 15.8423 21.8119 15.726 22.1283 15.3807C22.3718 15.1007 22.4834 14.6841 22.522 14.5126C22.6479 13.944 22.5499 13.6785 22.4268 13.5168C22.2398 13.2703 21.9093 13.1913 21.5664 13.1913C21.3602 13.1913 20.8692 13.2123 20.4855 13.5763C20.21 13.8389 20.0828 14.1953 20.006 14.537C19.9285 14.8851 19.8393 15.5118 20.3992 15.745C20.5719 15.8213 20.8209 15.8423 20.9815 15.8423ZM20.9494 14.563C21.044 14.1324 21.1556 13.771 21.4405 13.771C21.6637 13.771 21.6799 14.0399 21.5807 14.4719C21.5629 14.5678 21.4814 14.9243 21.3712 15.0762C21.2942 15.1882 21.2031 15.2561 21.1025 15.2561C21.0725 15.2561 20.8944 15.2561 20.8916 14.9839C20.8902 14.8494 20.9169 14.7121 20.9494 14.563ZM23.5472 15.7869L23.5792 15.7534C23.6247 15.5055 23.6322 15.4473 23.7328 14.9453C23.7831 14.7073 23.8873 14.1842 23.9362 13.998C24.0288 13.9537 24.1185 13.9103 24.2084 13.9103C24.4144 13.9103 24.3893 14.0966 24.3811 14.1708C24.3736 14.2955 24.298 14.7023 24.2192 15.0516L24.1702 15.2771C24.1328 15.4438 24.092 15.6055 24.056 15.7708L24.0717 15.8038C24.4927 15.7807 24.6158 15.7807 24.9763 15.7869L25.0198 15.7534C25.083 15.3661 25.1001 15.2624 25.2185 14.6989L25.2749 14.4397C25.3878 13.9327 25.4449 13.6758 25.3613 13.4665C25.2689 13.2318 25.0519 13.1752 24.8567 13.1752C24.7273 13.1752 24.4899 13.2073 24.2791 13.3145C24.2037 13.3551 24.1281 13.4019 24.0539 13.4489L24.1185 13.1913L24.0839 13.1477C23.6342 13.2417 23.5315 13.2542 23.1165 13.3145L23.0847 13.3383C23.0343 13.7501 22.9934 14.0594 22.8146 14.869C22.7465 15.1673 22.6758 15.4684 22.6051 15.766L22.6241 15.8038C23.0505 15.7807 23.1778 15.7807 23.5472 15.7869ZM26.6408 15.8037C26.6672 15.6707 26.8245 14.8823 26.8259 14.8823C26.8259 14.8823 26.9598 14.3039 26.968 14.2829C26.968 14.2829 27.0101 14.2227 27.0523 14.1988H27.1142C27.6992 14.1988 28.3597 14.1988 28.8774 13.8068C29.2296 13.5379 29.4705 13.1408 29.5779 12.6583C29.6058 12.54 29.6263 12.3993 29.6263 12.2585C29.6263 12.0737 29.5903 11.8909 29.4861 11.748C29.2222 11.3678 28.6964 11.3608 28.0896 11.358C28.0877 11.358 27.7904 11.3608 27.7904 11.3608C27.0136 11.3707 26.7021 11.3678 26.5741 11.3517C26.5633 11.4099 26.5429 11.5136 26.5429 11.5136C26.5429 11.5136 26.2646 12.8411 26.2646 12.8433C26.2646 12.8433 25.5988 15.6659 25.5674 15.7989C26.2457 15.7904 26.5238 15.7904 26.6408 15.8037ZM27.1564 13.4454C27.1564 13.4454 27.4522 12.1205 27.4509 12.1255L27.4604 12.0576L27.4646 12.0058L27.5828 12.0183C27.5828 12.0183 28.193 12.0723 28.2073 12.0737C28.4481 12.1696 28.5474 12.4168 28.4781 12.7395C28.4149 13.0344 28.2291 13.2823 27.9903 13.402C27.7937 13.5035 27.5529 13.5119 27.3048 13.5119H27.1442L27.1564 13.4454ZM28.9985 14.5875C28.9203 14.9306 28.8304 15.5573 29.3875 15.7806C29.5651 15.8584 29.7243 15.8816 29.886 15.8731C30.0569 15.8636 30.2151 15.7754 30.3618 15.6485C30.3485 15.7007 30.3353 15.7529 30.3221 15.8052L30.3473 15.8387C30.748 15.8213 30.8723 15.8213 31.3064 15.8247L31.3458 15.7939C31.4092 15.4103 31.4689 15.0378 31.6336 14.3039C31.7139 13.9524 31.794 13.6043 31.8764 13.2542L31.8635 13.2156C31.4153 13.3012 31.2955 13.3194 30.8643 13.3824L30.8316 13.4098C30.8272 13.4455 30.8227 13.4797 30.8185 13.5139C30.7515 13.4024 30.6543 13.3073 30.5044 13.2479C30.3127 13.1703 29.8623 13.2703 29.4752 13.6331C29.2032 13.8922 29.0726 14.2471 28.9985 14.5875ZM29.9398 14.6085C30.0358 14.1856 30.146 13.8278 30.4316 13.8278C30.6122 13.8278 30.7072 13.9994 30.6879 14.2919C30.6726 14.3649 30.6561 14.4418 30.6364 14.5287C30.6078 14.6544 30.5768 14.7789 30.5467 14.9037C30.516 14.989 30.4803 15.0695 30.4412 15.1231C30.3677 15.2303 30.1929 15.2968 30.0922 15.2968C30.0636 15.2968 29.8874 15.2968 29.8813 15.0294C29.8799 14.8962 29.9066 14.7591 29.9398 14.6085ZM34.8558 13.2122L34.8211 13.1715C34.3776 13.264 34.2973 13.2787 33.8898 13.3354L33.8599 13.3662C33.8585 13.3712 33.8573 13.3789 33.8552 13.3859L33.8538 13.3789C33.5504 14.0994 33.5593 13.944 33.3124 14.5111C33.311 14.4853 33.311 14.4692 33.3096 14.4417L33.2478 13.2122L33.209 13.1715C32.7444 13.264 32.7334 13.2787 32.3043 13.3354L32.2709 13.3662C32.2662 13.3809 32.2662 13.397 32.2634 13.4146L32.2662 13.4209C32.3198 13.703 32.3069 13.6401 32.3607 14.0854C32.3858 14.3039 32.4193 14.5237 32.4443 14.7395C32.4866 15.1007 32.5103 15.2785 32.562 15.8297C32.2723 16.322 32.2037 16.5082 31.9247 16.9402L31.9266 16.9445L31.7302 17.2643C31.7077 17.298 31.6874 17.3211 31.6588 17.331C31.6275 17.347 31.5867 17.3498 31.5301 17.3498H31.4213L31.2595 17.9037L31.8145 17.9136C32.1403 17.9122 32.3451 17.7553 32.4553 17.5445L32.8043 16.9289H32.7987L32.8354 16.8856C33.0702 16.3654 34.8558 13.2122 34.8558 13.2122ZM28.9984 20.4869H28.763L29.6344 17.52H29.9234L30.0152 17.2144L30.0241 17.5543C30.0133 17.7644 30.1739 17.9506 30.5956 17.9198H31.0834L31.2512 17.3485H31.0677C30.9622 17.3485 30.9132 17.3211 30.9193 17.2623L30.9104 16.9165H30.0072V16.9183C29.7152 16.9245 28.8431 16.9471 28.6665 16.9955C28.4529 17.0522 28.2277 17.2189 28.2277 17.2189L28.3162 16.9129H27.4713L27.2952 17.52L26.4122 20.5323H26.2408L26.0728 21.0994H27.7556L27.6992 21.2886H28.5285L28.5835 21.0994H28.8161L28.9984 20.4869ZM28.308 18.1229C28.1727 18.1614 27.9209 18.2783 27.9209 18.2783L28.1448 17.52H28.8161L28.6542 18.0725C28.6542 18.0725 28.4468 18.0851 28.308 18.1229ZM28.3209 19.2061C28.3209 19.2061 28.11 19.2334 27.9712 19.2656C27.8345 19.3083 27.5782 19.4427 27.5782 19.4427L27.8094 18.6537H28.4842L28.3209 19.2061ZM27.9447 20.4939H27.2714L27.4666 19.828H28.1379L27.9447 20.4939ZM29.5664 18.6537H30.537L30.3975 19.1186H29.414L29.2664 19.627H30.1269L29.4753 20.5715C29.4297 20.6409 29.3888 20.6655 29.3433 20.685C29.2977 20.7088 29.2378 20.7368 29.1685 20.7368H28.9298L28.7657 21.2936H29.3902C29.7148 21.2936 29.9065 21.1416 30.0481 20.942L30.4949 20.3125L30.5908 20.9517C30.6112 21.0715 30.6948 21.1416 30.7514 21.1688C30.8139 21.2011 30.8785 21.2565 30.9698 21.2647C31.0676 21.269 31.1383 21.2724 31.1853 21.2724H31.4922L31.6764 20.6493H31.5554C31.4859 20.6493 31.3663 20.6373 31.3459 20.6149C31.3255 20.5877 31.3255 20.5457 31.3145 20.4819L31.2172 19.8412H30.8186L30.9934 19.627H31.975L32.126 19.1186H31.2172L31.3588 18.6537H32.2648L32.4328 18.0802H29.7317L29.5664 18.6537ZM21.3684 20.6234L21.595 19.8476H22.5261L22.6962 19.2705H21.7642L21.9065 18.793H22.8172L22.986 18.2342H20.7072L20.542 18.793H21.0597L20.9216 19.2705H20.4025L20.2305 19.8574H20.748L20.446 20.8838C20.4053 21.0197 20.4652 21.0715 20.5032 21.1346C20.542 21.1961 20.5813 21.2368 20.6698 21.2599C20.761 21.2809 20.8236 21.2934 20.9085 21.2934H21.9582L22.1452 20.6542L21.68 20.72C21.5901 20.72 21.3413 20.7089 21.3684 20.6234ZM21.4752 16.9094L21.2393 17.3484C21.1888 17.4443 21.1433 17.5038 21.1024 17.5312C21.0664 17.5544 20.995 17.564 20.8915 17.564H20.7684L20.6039 18.1257H21.0127C21.2093 18.1257 21.3603 18.0514 21.4324 18.0143C21.5099 17.9717 21.5303 17.9961 21.5902 17.9365L21.7282 17.8134H23.005L23.1744 17.2287H22.2399L22.403 16.9094H21.4752ZM23.3601 20.6347C23.3384 20.6024 23.354 20.5456 23.3873 20.4273L23.7363 19.2382H24.9777C25.1586 19.2356 25.2892 19.2334 25.3742 19.2271C25.4654 19.2173 25.5647 19.1838 25.6728 19.1235C25.7844 19.0604 25.8416 18.9939 25.8898 18.9176C25.9436 18.8414 26.03 18.6747 26.1042 18.4176L26.5428 16.9129L25.2546 16.9206C25.2546 16.9206 24.8579 16.9809 24.6832 17.0474C24.507 17.1216 24.2552 17.3288 24.2552 17.3288L24.3715 16.9163H23.5757L22.4616 20.72C22.4221 20.8677 22.3956 20.9749 22.3895 21.0392C22.3874 21.1086 22.4745 21.1773 22.5309 21.2291C22.5976 21.2809 22.6962 21.2725 22.7907 21.2809C22.8901 21.2886 23.0315 21.2934 23.2268 21.2934H23.8383L24.026 20.6409L23.4785 20.6942C23.42 20.6942 23.3777 20.6619 23.3601 20.6347ZM23.9614 18.4352H25.2654L25.1825 18.7026C25.1708 18.7089 25.1429 18.6894 25.0102 18.7055H23.8811L23.9614 18.4352ZM24.2226 17.5382H25.5375L25.443 17.8603C25.443 17.8603 24.8232 17.854 24.724 17.8728C24.2872 17.9506 24.0321 18.1909 24.0321 18.1909L24.2226 17.5382ZM25.2116 19.5982C25.2009 19.6382 25.1838 19.6626 25.1599 19.6809C25.1335 19.6985 25.0906 19.7047 25.0267 19.7047H24.8409L24.8519 19.379H24.0791L24.0477 20.9714C24.0465 21.0863 24.0573 21.1528 24.139 21.206C24.2206 21.2725 24.4723 21.2809 24.811 21.2809H25.2952L25.4701 20.6849L25.0485 20.7087L24.9083 20.7172C24.8891 20.7087 24.8709 20.701 24.8505 20.6801C24.8327 20.662 24.8028 20.6731 24.8077 20.5582L24.811 20.15L25.2531 20.1312C25.4918 20.1312 25.5939 20.0512 25.6809 19.975C25.764 19.9021 25.7912 19.8182 25.8225 19.7047L25.8967 19.3433H25.2891L25.2116 19.5982Z" fill="#FEFEFE"/>
</svg>
