<svg width="34" height="24" viewBox="0 0 34 24" fill="none" xmlns="http://www.w3.org/2000/svg">
<path d="M10.5184 5.00073H15.8765C16.6245 5.00073 17.0897 5.62831 16.9152 6.40082L14.4206 17.4262C14.2446 18.196 13.4957 18.8241 12.7472 18.8241H7.38954C6.64264 18.8241 6.17639 18.196 6.35087 17.4262L8.84653 6.40082C9.02102 5.62831 9.76949 5.00073 10.5184 5.00073Z" fill="#E21836"/>
<path d="M15.4304 5H21.5922C22.34 5 22.0028 5.62758 21.8268 6.40009L19.3326 17.4255C19.1576 18.1953 19.2122 18.8234 18.4628 18.8234H12.301C11.5516 18.8234 11.0879 18.1953 11.2639 17.4255L13.758 6.40009C13.9351 5.62758 14.682 5 15.4304 5Z" fill="#00447C"/>
<path d="M21.3479 5H26.706C27.455 5 27.9202 5.62758 27.7443 6.40009L25.2501 17.4255C25.074 18.1953 24.3247 18.8234 23.5758 18.8234H18.2201C17.4707 18.8234 17.0059 18.1953 17.1814 17.4255L19.676 6.40009C19.8505 5.62758 20.5985 5 21.3479 5Z" fill="#007B84"/>
<path d="M11.9175 8.53326C11.3665 8.53904 11.2037 8.53326 11.1517 8.52062C11.1318 8.61836 10.7599 10.384 10.7589 10.3855C10.6788 10.7427 10.6206 10.9973 10.4227 11.1617C10.3104 11.2573 10.1793 11.3035 10.0273 11.3035C9.78291 11.3035 9.64055 11.1786 9.61665 10.9417L9.61208 10.8603C9.61208 10.8603 9.68653 10.3818 9.68653 10.3792C9.68653 10.3792 10.0768 8.77015 10.1466 8.55746C10.1503 8.54536 10.1513 8.53904 10.1522 8.53326C9.39267 8.54012 9.25802 8.53326 9.24875 8.52062C9.24366 8.53797 9.22485 8.63772 9.22485 8.63772L8.82638 10.4512L8.79217 10.605L8.72595 11.1081C8.72595 11.2573 8.75442 11.3791 8.8111 11.4821C8.99264 11.8087 9.51047 11.8576 9.80341 11.8576C10.1809 11.8576 10.5349 11.7751 10.7742 11.6244C11.1895 11.3717 11.2981 10.9769 11.3951 10.626L11.44 10.446C11.44 10.446 11.842 8.77485 11.9103 8.55746C11.9129 8.54536 11.9139 8.53904 11.9175 8.53326ZM13.2852 9.88137C13.1883 9.88137 13.0112 9.90557 12.8521 9.98583C12.7944 10.0164 12.7398 10.0516 12.6822 10.0867L12.7342 9.89347L12.7057 9.86094C12.3684 9.93125 12.2929 9.94066 11.9813 9.98583L11.9552 10.0037C11.919 10.3125 11.8869 10.5447 11.7527 11.1517C11.7017 11.3754 11.6486 11.6013 11.5955 11.8245L11.6099 11.8528C11.9292 11.8355 12.0261 11.8355 12.3036 11.8402L12.3261 11.8151C12.3613 11.6291 12.3659 11.5856 12.444 11.209C12.4807 11.0305 12.5572 10.6381 12.595 10.4985C12.6643 10.4654 12.7328 10.4329 12.7981 10.4329C12.9536 10.4329 12.9347 10.5725 12.9287 10.6282C12.922 10.7216 12.8653 11.0268 12.8072 11.2888L12.7684 11.458C12.7414 11.5829 12.7117 11.7043 12.6847 11.8281L12.6965 11.8528C13.0112 11.8355 13.1072 11.8355 13.376 11.8402L13.4076 11.8151C13.4562 11.5247 13.4704 11.447 13.5566 11.0241L13.6 10.8299C13.6842 10.4497 13.7265 10.2569 13.6628 10.0998C13.5954 9.92385 13.4337 9.88137 13.2852 9.88137ZM14.8131 10.2794C14.6458 10.3125 14.5391 10.3346 14.4331 10.3488C14.328 10.3662 14.2254 10.3819 14.0637 10.405L14.0509 10.417L14.0392 10.4265C14.0223 10.5505 14.0106 10.6576 13.9883 10.7836C13.9693 10.9139 13.9402 11.0619 13.8928 11.2746C13.8561 11.4374 13.8372 11.4941 13.8163 11.5514C13.7959 11.6087 13.7734 11.6643 13.7322 11.8245L13.7418 11.8392L13.7499 11.8528C13.901 11.8454 13.9999 11.8402 14.1015 11.8392C14.203 11.8355 14.3081 11.8392 14.4708 11.8402L14.4851 11.8282L14.5003 11.815C14.5239 11.6707 14.5274 11.6318 14.5417 11.5614C14.556 11.4858 14.5805 11.3812 14.6407 11.1018C14.6692 10.9706 14.701 10.8398 14.7305 10.7059C14.7612 10.5725 14.7933 10.4412 14.8238 10.31L14.8193 10.2941L14.8131 10.2794ZM14.8167 9.74272C14.6647 9.65036 14.3979 9.67967 14.2183 9.80725C14.0392 9.93228 14.0189 10.1097 14.1704 10.2033C14.3198 10.2931 14.5876 10.2664 14.7656 10.1377C14.9443 10.01 14.9666 9.83414 14.8167 9.74272ZM15.7361 11.8818C16.0436 11.8818 16.3589 11.7945 16.5962 11.5356C16.7788 11.3256 16.8625 11.0131 16.8915 10.8845C16.9859 10.458 16.9124 10.2589 16.8201 10.1376C16.6798 9.95279 16.4319 9.8935 16.1748 9.8935C16.0201 9.8935 15.6518 9.90923 15.3641 10.1823C15.1575 10.3792 15.062 10.6465 15.0044 10.9028C14.9463 11.1638 14.8795 11.6339 15.2993 11.8088C15.4289 11.866 15.6157 11.8818 15.7361 11.8818ZM15.712 10.9223C15.783 10.5993 15.8667 10.3283 16.0803 10.3283C16.2478 10.3283 16.2599 10.5299 16.1855 10.854C16.1722 10.9259 16.111 11.1933 16.0284 11.3072C15.9706 11.3912 15.9023 11.4421 15.8268 11.4421C15.8044 11.4421 15.6708 11.4421 15.6687 11.2379C15.6676 11.1371 15.6876 11.0341 15.712 10.9223ZM17.6604 11.8402L17.6844 11.8151C17.7185 11.6292 17.7241 11.5855 17.7996 11.209C17.8373 11.0305 17.9154 10.6382 17.9521 10.4985C18.0216 10.4653 18.0889 10.4328 18.1562 10.4328C18.3107 10.4328 18.2919 10.5724 18.2858 10.6281C18.2802 10.7217 18.2235 11.0267 18.1643 11.2888L18.1276 11.4579C18.0996 11.5829 18.069 11.7042 18.042 11.8281L18.0537 11.8529C18.3695 11.8355 18.4619 11.8355 18.7322 11.8402L18.7648 11.8151C18.8123 11.5246 18.8251 11.4469 18.9139 11.0242L18.9562 10.8298C19.0408 10.4496 19.0836 10.2569 19.021 10.0999C18.9516 9.92389 18.7889 9.88141 18.6425 9.88141C18.5454 9.88141 18.3674 9.90548 18.2093 9.98587C18.1527 10.0164 18.096 10.0515 18.0404 10.0867L18.0889 9.89351L18.0629 9.86084C17.7257 9.93129 17.6486 9.9407 17.3374 9.98587L17.3135 10.0038C17.2757 10.3126 17.245 10.5446 17.1109 11.1518C17.0598 11.3755 17.0068 11.6013 16.9538 11.8245L16.968 11.8529C17.2879 11.8355 17.3833 11.8355 17.6604 11.8402ZM19.9806 11.8528C20.0004 11.7531 20.1183 11.1618 20.1194 11.1618C20.1194 11.1618 20.2198 10.7279 20.226 10.7122C20.226 10.7122 20.2576 10.667 20.2892 10.6491H20.3357C20.7743 10.6491 21.2697 10.6491 21.658 10.3551C21.9222 10.1535 22.1028 9.85567 22.1834 9.49375C22.2043 9.40501 22.2197 9.29948 22.2197 9.19394C22.2197 9.05533 22.1927 8.9182 22.1146 8.81105C21.9166 8.52589 21.5223 8.52065 21.0672 8.5185C21.0657 8.5185 20.8428 8.52065 20.8428 8.52065C20.2602 8.52804 20.0265 8.52589 19.9305 8.51379C19.9224 8.55749 19.9072 8.6352 19.9072 8.6352C19.9072 8.6352 19.6985 9.63088 19.6985 9.63249C19.6985 9.63249 19.199 11.7494 19.1755 11.8492C19.6842 11.8429 19.8928 11.8429 19.9806 11.8528ZM20.3673 10.0841C20.3673 10.0841 20.5892 9.09042 20.5881 9.09418L20.5953 9.04323L20.5984 9.00437L20.6871 9.01379C20.6871 9.01379 21.1447 9.05425 21.1554 9.05533C21.3361 9.12726 21.4105 9.31265 21.3585 9.55465C21.3111 9.77581 21.1718 9.96174 20.9927 10.0515C20.8453 10.1276 20.6646 10.134 20.4785 10.134H20.3581L20.3673 10.0841ZM21.7488 10.9407C21.6902 11.198 21.6228 11.668 22.0406 11.8355C22.1738 11.8939 22.2932 11.9112 22.4145 11.9049C22.5426 11.8978 22.6613 11.8316 22.7713 11.7364C22.7614 11.7755 22.7514 11.8147 22.7415 11.8539L22.7605 11.8791C23.061 11.866 23.1542 11.866 23.4798 11.8686L23.5093 11.8455C23.5569 11.5577 23.6017 11.2784 23.7252 10.728C23.7854 10.4643 23.8455 10.2032 23.9073 9.94067L23.8976 9.91177C23.5614 9.9759 23.4716 9.98961 23.1482 10.0368L23.1237 10.0574C23.1204 10.0841 23.117 10.1098 23.1139 10.1355C23.0636 10.0519 22.9907 9.98047 22.8783 9.93597C22.7345 9.87775 22.3967 9.95277 22.1064 10.2249C21.9024 10.4192 21.8045 10.6854 21.7488 10.9407ZM22.4548 10.9564C22.5268 10.6392 22.6095 10.3709 22.8237 10.3709C22.9591 10.3709 23.0304 10.4996 23.0159 10.719C23.0044 10.7737 22.992 10.8314 22.9773 10.8966C22.9558 10.9908 22.9326 11.0842 22.91 11.1778C22.887 11.2418 22.8602 11.3022 22.8308 11.3424C22.7757 11.4228 22.6446 11.4726 22.5691 11.4726C22.5477 11.4726 22.4155 11.4726 22.411 11.2721C22.4099 11.1722 22.4299 11.0693 22.4548 10.9564ZM26.1418 9.9092L26.1158 9.87868C25.7832 9.94805 25.7229 9.95908 25.4173 10.0016L25.3949 10.0247C25.3938 10.0285 25.3929 10.0342 25.3914 10.0395L25.3903 10.0342C25.1628 10.5746 25.1695 10.458 24.9843 10.8834C24.9832 10.864 24.9832 10.8519 24.9822 10.8313L24.9358 9.9092L24.9067 9.87868C24.5582 9.94805 24.55 9.95908 24.2282 10.0016L24.2031 10.0247C24.1996 10.0357 24.1996 10.0478 24.1975 10.061L24.1996 10.0657C24.2398 10.2773 24.2302 10.2301 24.2705 10.5641C24.2893 10.728 24.3144 10.8928 24.3332 11.0547C24.365 11.3256 24.3827 11.4589 24.4215 11.8723C24.2042 12.2415 24.1527 12.3812 23.9435 12.7052L23.9449 12.7084L23.7976 12.9483C23.7808 12.9735 23.7655 12.9909 23.7441 12.9983C23.7206 13.0103 23.69 13.0124 23.6476 13.0124H23.5659L23.4446 13.4278L23.8608 13.4352C24.1052 13.4342 24.2588 13.3165 24.3414 13.1584L24.6032 12.6967H24.599L24.6266 12.6642C24.8026 12.274 26.1418 9.9092 26.1418 9.9092ZM21.7488 15.3652H21.5722L22.2258 13.1401H22.4426L22.5114 12.9108L22.518 13.1657C22.5099 13.3233 22.6304 13.463 22.9467 13.4399H23.3125L23.4384 13.0114H23.3007C23.2216 13.0114 23.1849 12.9908 23.1895 12.9467L23.1828 12.6874H22.5054V12.6887C22.2864 12.6934 21.6323 12.7104 21.4999 12.7467C21.3396 12.7892 21.1708 12.9142 21.1708 12.9142L21.2371 12.6847H20.6034L20.4714 13.1401L19.8091 15.3992H19.6806L19.5546 15.8246H20.8167L20.7744 15.9664H21.3963L21.4376 15.8246H21.6121L21.7488 15.3652ZM21.231 13.5922C21.1295 13.6211 20.9406 13.7087 20.9406 13.7087L21.1086 13.1401H21.6121L21.4906 13.5544C21.4906 13.5544 21.3351 13.5638 21.231 13.5922ZM21.2406 14.4046C21.2406 14.4046 21.0825 14.4251 20.9784 14.4493C20.8759 14.4813 20.6836 14.5821 20.6836 14.5821L20.8571 13.9903H21.3631L21.2406 14.4046ZM20.9585 15.3705H20.4535L20.5999 14.871H21.1034L20.9585 15.3705ZM22.1748 13.9903H22.9027L22.7981 14.339H22.0605L21.9497 14.7203H22.5952L22.1065 15.4287C22.0723 15.4807 22.0416 15.4991 22.0075 15.5138C21.9733 15.5317 21.9283 15.5526 21.8763 15.5526H21.6973L21.5743 15.9702H22.0426C22.286 15.9702 22.4298 15.8562 22.536 15.7066L22.8711 15.2344L22.9431 15.7138C22.9584 15.8036 23.0211 15.8562 23.0635 15.8766C23.1104 15.9008 23.1589 15.9424 23.2273 15.9486C23.3007 15.9518 23.3537 15.9543 23.389 15.9543H23.6191L23.7573 15.487H23.6665C23.6144 15.487 23.5247 15.478 23.5094 15.4612C23.4941 15.4408 23.4941 15.4093 23.4859 15.3615L23.4129 14.881H23.1139L23.2451 14.7203H23.9812L24.0945 14.339H23.4129L23.5191 13.9903H24.1986L24.3246 13.5602H22.2987L22.1748 13.9903ZM16.0263 15.4676L16.1962 14.8857H16.8945L17.0221 14.4529H16.3232L16.4299 14.0948H17.1129L17.2395 13.6757H15.5304L15.4065 14.0948H15.7947L15.6912 14.4529H15.3018L15.1728 14.8931H15.561L15.3345 15.6629C15.3039 15.7648 15.3489 15.8037 15.3773 15.851C15.4065 15.8971 15.436 15.9276 15.5023 15.945C15.5708 15.9607 15.6176 15.9701 15.6814 15.9701H16.4686L16.6089 15.4907L16.2599 15.54C16.1925 15.54 16.0059 15.5317 16.0263 15.4676ZM16.1064 12.6821L15.9294 13.0113C15.8916 13.0833 15.8575 13.1279 15.8268 13.1485C15.7997 13.1658 15.7462 13.1731 15.6686 13.1731H15.5763L15.4529 13.5943H15.7595C15.907 13.5943 16.0202 13.5386 16.0743 13.5108C16.1324 13.4788 16.1477 13.4971 16.1926 13.4524L16.2962 13.3601H17.2537L17.3808 12.9215H16.6799L16.8022 12.6821H16.1064ZM17.5201 15.476C17.5037 15.4518 17.5155 15.4092 17.5404 15.3205L17.8022 14.4287H18.7332C18.8689 14.4267 18.9669 14.4251 19.0306 14.4204C19.099 14.413 19.1735 14.3878 19.2546 14.3427C19.3383 14.2953 19.3811 14.2455 19.4173 14.1882C19.4577 14.1311 19.5225 14.006 19.5781 13.8132L19.9071 12.6847L18.9409 12.6905C18.9409 12.6905 18.6434 12.7357 18.5124 12.7856C18.3802 12.8412 18.1914 12.9966 18.1914 12.9966L18.2786 12.6873H17.6818L16.8462 15.54C16.8165 15.6508 16.7967 15.7312 16.7921 15.7795C16.7905 15.8315 16.8558 15.883 16.8982 15.9218C16.9482 15.9607 17.0221 15.9544 17.093 15.9607C17.1676 15.9665 17.2736 15.9701 17.42 15.9701H17.8787L18.0195 15.4807L17.6089 15.5207C17.565 15.5207 17.5333 15.4965 17.5201 15.476ZM17.971 13.8264H18.949L18.8868 14.027C18.8781 14.0317 18.8572 14.0171 18.7577 14.0292H17.9108L17.971 13.8264ZM18.1669 13.1537H19.1531L19.0822 13.3953C19.0822 13.3953 18.6174 13.3906 18.5429 13.4047C18.2154 13.463 18.0241 13.6432 18.0241 13.6432L18.1669 13.1537ZM18.9087 14.6987C18.9006 14.7287 18.8878 14.747 18.8699 14.7607C18.8501 14.7739 18.8179 14.7786 18.77 14.7786H18.6307L18.6389 14.5343H18.0593L18.0358 15.7285C18.0349 15.8147 18.0429 15.8646 18.1042 15.9045C18.1655 15.9544 18.3542 15.9607 18.6082 15.9607H18.9714L19.1025 15.5137L18.7863 15.5316L18.6812 15.5379C18.6668 15.5316 18.6531 15.5258 18.6378 15.5101C18.6245 15.4965 18.6021 15.5048 18.6057 15.4187L18.6082 15.1125L18.9398 15.0984C19.1188 15.0984 19.1954 15.0385 19.2607 14.9813C19.323 14.9266 19.3433 14.8637 19.3669 14.7786L19.4225 14.5075H18.9668L18.9087 14.6987Z" fill="#FEFEFE"/>
</svg>
