<svg width="28" height="20" viewBox="0 0 28 20" fill="none" xmlns="http://www.w3.org/2000/svg">
<path d="M8.66221 4.16736H13.0748C13.6908 4.16736 14.0739 4.69034 13.9302 5.3341L11.8758 14.5219C11.7308 15.1634 11.1141 15.6868 10.4977 15.6868H6.08553C5.47043 15.6868 5.08646 15.1634 5.23015 14.5219L7.28541 5.3341C7.4291 4.69034 8.04549 4.16736 8.66221 4.16736Z" fill="#E21836"/>
<path d="M12.7074 4.16663H17.7818C18.3977 4.16663 18.12 4.68961 17.9751 5.33336L15.921 14.5212C15.7769 15.1627 15.8218 15.6861 15.2047 15.6861H10.1303C9.51315 15.6861 9.13123 15.1627 9.27621 14.5212L11.3302 5.33336C11.476 4.68961 12.0911 4.16663 12.7074 4.16663Z" fill="#00447C"/>
<path d="M17.5806 4.16663H21.9932C22.6101 4.16663 22.9932 4.68961 22.8483 5.33336L20.7942 14.5212C20.6492 15.1627 20.0321 15.6861 19.4154 15.6861H15.0048C14.3876 15.6861 14.0049 15.1627 14.1494 14.5212L16.2038 5.33336C16.3475 4.68961 16.9635 4.16663 17.5806 4.16663Z" fill="#007B84"/>
<path d="M9.81439 7.11107C9.36062 7.11589 9.22661 7.11107 9.18381 7.10054C9.16735 7.18199 8.86114 8.65335 8.86028 8.65458C8.79435 8.95226 8.74638 9.16446 8.58344 9.30148C8.49094 9.38113 8.38296 9.41956 8.25776 9.41956C8.05653 9.41956 7.9393 9.31548 7.91961 9.11807L7.91585 9.05029C7.91585 9.05029 7.97716 8.65156 7.97716 8.64932C7.97716 8.64932 8.29853 7.30848 8.35607 7.13124C8.35908 7.12115 8.35994 7.11589 8.36069 7.11107C7.73516 7.11679 7.62427 7.11107 7.61664 7.10054C7.61244 7.11499 7.59695 7.19812 7.59695 7.19812L7.26881 8.70937L7.24063 8.83754L7.1861 9.25677C7.1861 9.38113 7.20954 9.48264 7.25622 9.56846C7.40572 9.84059 7.83217 9.88137 8.07342 9.88137C8.38425 9.88137 8.67583 9.81258 8.87287 9.68699C9.21489 9.47648 9.30437 9.14743 9.38418 8.85502L9.42118 8.705C9.42118 8.705 9.75223 7.3124 9.80848 7.13124C9.81063 7.12115 9.81149 7.11589 9.81439 7.11107ZM10.9408 8.2345C10.861 8.2345 10.7151 8.25466 10.5841 8.32155C10.5366 8.34698 10.4916 8.37633 10.4442 8.40557L10.487 8.24458L10.4636 8.21747C10.1857 8.27606 10.1236 8.2839 9.86696 8.32155L9.84545 8.33645C9.81565 8.59379 9.78919 8.78728 9.67874 9.29312C9.63668 9.47955 9.59302 9.66777 9.54924 9.85374L9.56107 9.87738C9.82404 9.86293 9.90385 9.86293 10.1324 9.86685L10.1509 9.8459C10.1799 9.69096 10.1837 9.65466 10.248 9.34085C10.2782 9.19206 10.3413 8.86514 10.3724 8.74874C10.4295 8.72118 10.4858 8.69407 10.5396 8.69407C10.6677 8.69407 10.6521 8.81047 10.6472 8.85685C10.6417 8.93472 10.595 9.18904 10.5471 9.4074L10.5152 9.54834C10.4929 9.65242 10.4685 9.75358 10.4462 9.85677L10.4559 9.87738C10.7151 9.86293 10.7942 9.86293 11.0155 9.86685L11.0416 9.8459C11.0816 9.60391 11.0933 9.53915 11.1643 9.1868L11.2 9.02491C11.2694 8.70807 11.3042 8.54741 11.2517 8.41655C11.1962 8.2699 11.0631 8.2345 10.9408 8.2345ZM12.1991 8.56622C12.0613 8.59378 11.9734 8.61216 11.8861 8.62403C11.7995 8.63848 11.7151 8.65159 11.5819 8.67086L11.5714 8.68083L11.5617 8.68879C11.5478 8.79209 11.5382 8.88138 11.5198 8.98635C11.5042 9.09492 11.4802 9.21827 11.4411 9.39551C11.4109 9.53118 11.3953 9.57846 11.3781 9.62619C11.3613 9.67392 11.3428 9.7203 11.3088 9.85373L11.3168 9.86606L11.3235 9.87737C11.4479 9.87121 11.5293 9.86684 11.613 9.86606C11.6966 9.86292 11.7832 9.86606 11.9172 9.86684L11.9289 9.85687L11.9415 9.84589C11.9608 9.72556 11.9637 9.69319 11.9756 9.63448C11.9873 9.57152 12.0075 9.48435 12.0571 9.25154C12.0805 9.1422 12.1067 9.03319 12.131 8.9216C12.1563 8.81046 12.1827 8.701 12.2079 8.59165L12.2041 8.57843L12.1991 8.56622ZM12.202 8.11895C12.0768 8.04199 11.8571 8.06641 11.7092 8.17273C11.5617 8.27692 11.545 8.42481 11.6697 8.50279C11.7928 8.57763 12.0134 8.55533 12.16 8.44811C12.3071 8.34168 12.3255 8.19514 12.202 8.11895ZM12.9591 9.90149C13.2124 9.90149 13.4721 9.82878 13.6675 9.613C13.8178 9.438 13.8868 9.17763 13.9107 9.07041C13.9884 8.71504 13.9279 8.54911 13.8518 8.44806C13.7363 8.29401 13.5322 8.2446 13.3204 8.2446C13.1931 8.2446 12.8898 8.25771 12.6528 8.48525C12.4827 8.64939 12.404 8.87211 12.3566 9.08565C12.3088 9.30322 12.2537 9.6949 12.5995 9.84066C12.7062 9.88839 12.86 9.90149 12.9591 9.90149ZM12.9393 9.1019C12.9977 8.83279 13.0667 8.60692 13.2426 8.60692C13.3805 8.60692 13.3905 8.77498 13.3292 9.04498C13.3183 9.10492 13.2679 9.32776 13.1998 9.42265C13.1523 9.49268 13.0961 9.53514 13.0339 9.53514C13.0154 9.53514 12.9054 9.53514 12.9036 9.36496C12.9028 9.28093 12.9192 9.19511 12.9393 9.1019ZM14.5438 9.86689L14.5636 9.84594C14.5917 9.69099 14.5963 9.65458 14.6585 9.34088C14.6896 9.1921 14.7539 8.86518 14.7841 8.74877C14.8413 8.7211 14.8967 8.69399 14.9522 8.69399C15.0795 8.69399 15.064 8.81039 15.0589 8.85677C15.0543 8.93475 15.0076 9.18896 14.9589 9.40732L14.9287 9.54826C14.9055 9.65245 14.8804 9.75351 14.8581 9.8568L14.8678 9.87742C15.1279 9.86297 15.2039 9.86296 15.4265 9.86689L15.4534 9.84594C15.4925 9.60383 15.503 9.53907 15.5761 9.18683L15.611 9.02483C15.6807 8.70799 15.716 8.54744 15.6643 8.41659C15.6072 8.26993 15.4732 8.23453 15.3526 8.23453C15.2727 8.23453 15.1261 8.25458 14.9959 8.32158C14.9493 8.34701 14.9026 8.37625 14.8568 8.40561L14.8967 8.24461L14.8753 8.21739C14.5976 8.27609 14.5342 8.28394 14.2779 8.32158L14.2582 8.33648C14.2271 8.59383 14.2018 8.7872 14.0914 9.29315C14.0493 9.47958 14.0056 9.6678 13.962 9.85378L13.9737 9.87742C14.2371 9.86297 14.3157 9.86296 14.5438 9.86689ZM16.4546 9.87736C16.4709 9.79423 16.5681 9.3015 16.5689 9.3015C16.5689 9.3015 16.6516 8.93996 16.6567 8.92685C16.6567 8.92685 16.6827 8.88921 16.7087 8.87431H16.747C17.1083 8.87431 17.5163 8.87431 17.836 8.62929C18.0536 8.46123 18.2023 8.21307 18.2687 7.91148C18.2859 7.83753 18.2986 7.74958 18.2986 7.66164C18.2986 7.54613 18.2763 7.43185 18.212 7.34256C18.049 7.10493 17.7243 7.10056 17.3494 7.09877C17.3483 7.09877 17.1647 7.10056 17.1647 7.10056C16.6849 7.10672 16.4924 7.10493 16.4134 7.09485C16.4067 7.13126 16.3941 7.19602 16.3941 7.19602C16.3941 7.19602 16.2223 8.02575 16.2223 8.0271C16.2223 8.0271 15.811 9.79121 15.7916 9.87434C16.2105 9.86907 16.3823 9.86907 16.4546 9.87736ZM16.7731 8.40342C16.7731 8.40342 16.9558 7.57537 16.9549 7.57851L16.9608 7.53604L16.9634 7.50367L17.0365 7.51151C17.0365 7.51151 17.4133 7.54523 17.4221 7.54613C17.5709 7.60607 17.6322 7.76056 17.5894 7.96223C17.5504 8.14653 17.4356 8.30147 17.2881 8.37631C17.1667 8.43972 17.018 8.44499 16.8647 8.44499H16.7655L16.7731 8.40342ZM17.9108 9.11723C17.8625 9.33167 17.807 9.72335 18.1511 9.86294C18.2608 9.91157 18.3591 9.92602 18.459 9.92075C18.5645 9.91481 18.6623 9.85969 18.7528 9.78037C18.7447 9.81297 18.7365 9.84558 18.7283 9.87829L18.7439 9.89924C18.9914 9.88837 19.0682 9.88837 19.3363 9.8905L19.3606 9.87123C19.3998 9.63148 19.4367 9.39867 19.5384 8.93999C19.588 8.72029 19.6375 8.50272 19.6884 8.28391L19.6804 8.25983C19.4035 8.31327 19.3296 8.3247 19.0632 8.36402L19.043 8.38116C19.0403 8.40346 19.0375 8.42486 19.035 8.44625C18.9936 8.37657 18.9335 8.31708 18.8409 8.27999C18.7225 8.23148 18.4444 8.294 18.2053 8.52076C18.0373 8.68265 17.9566 8.90448 17.9108 9.11723ZM18.4922 9.13034C18.5515 8.86605 18.6196 8.64243 18.796 8.64243C18.9075 8.64243 18.9662 8.74965 18.9543 8.93249C18.9448 8.97809 18.9346 9.02615 18.9225 9.08049C18.9048 9.15902 18.8857 9.23689 18.8671 9.31486C18.8481 9.36819 18.8261 9.4185 18.8019 9.452C18.7565 9.51899 18.6485 9.56056 18.5864 9.56056C18.5687 9.56056 18.4599 9.56056 18.4561 9.3934C18.4552 9.31016 18.4717 9.22445 18.4922 9.13034ZM21.5285 8.25769L21.5071 8.23226C21.2332 8.29007 21.1836 8.29925 20.9319 8.33466L20.9134 8.35393C20.9126 8.35706 20.9118 8.36188 20.9105 8.36625L20.9097 8.36188C20.7223 8.81215 20.7278 8.71502 20.5753 9.0695C20.5744 9.05336 20.5744 9.04328 20.5736 9.02614L20.5354 8.25769L20.5114 8.23226C20.2245 8.29007 20.2177 8.29925 19.9527 8.33466L19.932 8.35393C19.9291 8.36311 19.9291 8.3732 19.9274 8.38418L19.9291 8.3881C19.9622 8.56444 19.9543 8.52512 19.9875 8.80341C20.003 8.93998 20.0237 9.07734 20.0391 9.21223C20.0653 9.43798 20.0799 9.54912 20.1118 9.89363C19.9329 10.2013 19.8905 10.3177 19.7182 10.5877L19.7194 10.5904L19.5981 10.7902C19.5842 10.8113 19.5716 10.8258 19.554 10.8319C19.5346 10.8419 19.5094 10.8437 19.4745 10.8437H19.4073L19.3073 11.1899L19.6501 11.196C19.8514 11.1951 19.9778 11.0971 20.0459 10.9654L20.2615 10.5806H20.258L20.2807 10.5535C20.4257 10.2284 21.5285 8.25769 21.5285 8.25769ZM17.9108 12.8044H17.7654L18.3036 10.9501H18.4821L18.5388 10.759L18.5443 10.9715C18.5376 11.1028 18.6368 11.2192 18.8973 11.1999H19.1985L19.3022 10.8428H19.1889C19.1237 10.8428 19.0935 10.8257 19.0972 10.789L19.0917 10.5728H18.5339V10.574C18.3535 10.5779 17.8149 10.592 17.7058 10.6223C17.5738 10.6577 17.4348 10.7618 17.4348 10.7618L17.4894 10.5706H16.9675L16.8588 10.9501L16.3134 12.8327H16.2076L16.1038 13.1872H17.1432L17.1083 13.3054H17.6205L17.6545 13.1872H17.7982L17.9108 12.8044ZM17.4843 11.3268C17.4008 11.3509 17.2453 11.424 17.2453 11.424L17.3836 10.9501H17.7982L17.6982 11.2954C17.6982 11.2954 17.5701 11.3032 17.4843 11.3268ZM17.4923 12.0039C17.4923 12.0039 17.3621 12.0209 17.2763 12.0411C17.1919 12.0677 17.0336 12.1518 17.0336 12.1518L17.1764 11.6586H17.5932L17.4923 12.0039ZM17.26 12.8087H16.8441L16.9646 12.3925H17.3793L17.26 12.8087ZM18.2616 11.6586H18.8611L18.775 11.9492H18.1675L18.0763 12.2669H18.6078L18.2053 12.8572C18.1772 12.9006 18.1519 12.916 18.1238 12.9282C18.0956 12.9431 18.0586 12.9605 18.0158 12.9605H17.8684L17.7671 13.3085H18.1528C18.3532 13.3085 18.4716 13.2135 18.5591 13.0888L18.8351 12.6954L18.8943 13.0949C18.9069 13.1697 18.9585 13.2135 18.9935 13.2305C19.0321 13.2507 19.072 13.2853 19.1284 13.2905C19.1888 13.2932 19.2325 13.2953 19.2615 13.2953H19.451L19.5648 12.9059H19.4901C19.4472 12.9059 19.3733 12.8984 19.3607 12.8844C19.3481 12.8673 19.3481 12.8411 19.3413 12.8012L19.2812 12.4008H19.035L19.143 12.2669H19.7493L19.8425 11.9492H19.2812L19.3686 11.6586H19.9283L20.032 11.3002H18.3637L18.2616 11.6586ZM13.1981 12.8897L13.3381 12.4048H13.9132L14.0182 12.0441H13.4426L13.5305 11.7457H14.093L14.1972 11.3965H12.7898L12.6877 11.7457H13.0074L12.9222 12.0441H12.6015L12.4953 12.4109H12.8149L12.6284 13.0524C12.6033 13.1374 12.6403 13.1697 12.6637 13.2092C12.6877 13.2476 12.712 13.273 12.7666 13.2875C12.823 13.3006 12.8616 13.3084 12.9141 13.3084H13.5624L13.6779 12.9089L13.3906 12.95C13.3351 12.95 13.1814 12.9431 13.1981 12.8897ZM13.2641 10.5684L13.1184 10.8428C13.0872 10.9027 13.0591 10.9399 13.0338 10.9571C13.0116 10.9715 12.9675 10.9776 12.9036 10.9776H12.8275L12.7259 11.3286H12.9784C13.0999 11.3286 13.1931 11.2822 13.2376 11.259C13.2855 11.2323 13.2981 11.2476 13.3351 11.2104L13.4204 11.1334H14.209L14.3136 10.768H13.7364L13.8372 10.5684H13.2641ZM14.4283 12.8967C14.4149 12.8765 14.4245 12.841 14.4451 12.7671L14.6606 12.024H15.4274C15.5391 12.0223 15.6198 12.0209 15.6723 12.017C15.7286 12.0108 15.7899 11.9899 15.8567 11.9522C15.9257 11.9128 15.961 11.8712 15.9908 11.8235C16.024 11.7759 16.0773 11.6717 16.1232 11.5111L16.3941 10.5706L15.5984 10.5754C15.5984 10.5754 15.3534 10.6131 15.2455 10.6547C15.1367 10.701 14.9811 10.8305 14.9811 10.8305L15.053 10.5728H14.5615L13.8733 12.95C13.8489 13.0424 13.8326 13.1094 13.8288 13.1496C13.8275 13.1929 13.8813 13.2358 13.9161 13.2682C13.9573 13.3006 14.0182 13.2953 14.0766 13.3006C14.138 13.3054 14.2254 13.3084 14.3459 13.3084H14.7237L14.8396 12.9006L14.5015 12.9339C14.4653 12.9339 14.4392 12.9137 14.4283 12.8967ZM14.7997 11.522H15.6051L15.5539 11.6892C15.5467 11.6931 15.5295 11.6809 15.4475 11.691H14.7501L14.7997 11.522ZM14.961 10.9614H15.7732L15.7148 11.1627C15.7148 11.1627 15.332 11.1588 15.2707 11.1706C15.0009 11.2192 14.8434 11.3693 14.8434 11.3693L14.961 10.9614ZM15.5719 12.249C15.5652 12.2739 15.5547 12.2892 15.54 12.3006C15.5236 12.3116 15.4971 12.3155 15.4577 12.3155H15.3429L15.3497 12.1119H14.8724L14.853 13.1071C14.8522 13.179 14.8589 13.2205 14.9094 13.2538C14.9598 13.2954 15.1152 13.3006 15.3244 13.3006H15.6235L15.7315 12.9281L15.4711 12.943L15.3845 12.9483C15.3727 12.943 15.3614 12.9382 15.3488 12.9251C15.3379 12.9138 15.3194 12.9207 15.3224 12.8489L15.3244 12.5938L15.5975 12.582C15.7449 12.582 15.808 12.5321 15.8618 12.4844C15.9131 12.4389 15.9298 12.3864 15.9492 12.3155L15.995 12.0896H15.6198L15.5719 12.249Z" fill="#FEFEFE"/>
</svg>
