<svg width="34" height="24" viewBox="0 0 34 24" fill="none" xmlns="http://www.w3.org/2000/svg">
<rect width="34" height="24" rx="4" fill="white"/>
<path fill-rule="evenodd" clip-rule="evenodd" d="M8.91445 15.7788C8.91192 15.9784 9.16362 16 9.31614 16H9.39819C9.41311 16 9.42517 15.9995 9.44311 15.9975C9.80305 15.9789 9.80036 15.843 9.80036 15.7788C9.79925 15.7449 9.79925 15.7096 9.80036 15.6699V8.22266C9.80305 8.02368 9.55008 8 9.39819 8H9.31614C9.16362 8 8.91192 8.02368 8.91445 8.22266C8.91445 8.26493 8.91319 8.30514 8.91319 8.34726V15.6532C8.91319 15.6572 8.91319 15.6629 8.91445 15.6739" fill="#E1091D"/>
<path fill-rule="evenodd" clip-rule="evenodd" d="M4.18959 15.7788C4.18689 15.9784 4.43892 16 4.59112 16H4.67301C4.68809 16 4.70031 15.9995 4.71808 15.9975C5.07803 15.9789 5.07533 15.843 5.07533 15.7788C5.07454 15.7449 5.07454 15.7096 5.07533 15.6699V8.22266C5.07803 8.02368 4.82505 8 4.67301 8H4.59112C4.43892 8 4.18689 8.02368 4.18959 8.22266C4.18959 8.26493 4.18784 8.30514 4.18784 8.34726V15.6532C4.18784 15.6572 4.18784 15.6629 4.18959 15.6739" fill="#E1091D"/>
<path fill-rule="evenodd" clip-rule="evenodd" d="M5.76426 15.7788C5.76235 15.9784 6.01375 16 6.16626 16H6.24816C6.26323 16 6.27545 15.9995 6.29339 15.9975C6.65317 15.9789 6.65064 15.843 6.65064 15.7788C6.64905 15.7449 6.64905 15.7096 6.65064 15.6699V8.22266C6.65317 8.02368 6.4002 8 6.24816 8H6.16626C6.01375 8 5.76235 8.02368 5.76426 8.22266C5.76426 8.26493 5.76331 8.30514 5.76331 8.34726V15.6532C5.76331 15.6572 5.76331 15.6629 5.76426 15.6739" fill="#E1091D"/>
<path fill-rule="evenodd" clip-rule="evenodd" d="M7.33963 15.7788C7.33725 15.9784 7.5888 16 7.74116 16H7.82321C7.83813 16 7.85035 15.9995 7.86797 15.9975C8.22823 15.9789 8.22506 15.843 8.22506 15.7788C8.22442 15.7449 8.22442 15.7096 8.22506 15.6699V8.22266C8.22823 8.02368 7.97494 8 7.82321 8H7.74116C7.5888 8 7.33725 8.02368 7.33963 8.22266C7.33963 8.26493 7.33789 8.30514 7.33789 8.34726V15.6532C7.33789 15.6572 7.33789 15.6629 7.33963 15.6739" fill="#E1091D"/>
<path fill-rule="evenodd" clip-rule="evenodd" d="M3.2206 11.5569C3.02127 11.5543 3 11.8064 3 11.9594V12.0417C3 12.0567 3.00048 12.0688 3.0019 12.0864C3.02047 12.4465 3.15617 12.444 3.2206 12.444C3.25457 12.443 3.28932 12.443 3.32948 12.444H10.766C10.9649 12.4465 10.9882 12.1935 10.9882 12.0417V11.9594C10.9882 11.8064 10.9649 11.5543 10.766 11.5569C10.7239 11.5569 10.6838 11.5554 10.6414 11.5554H3.34566C3.3417 11.5554 3.33693 11.5554 3.32535 11.5569" fill="#E1091D"/>
<path fill-rule="evenodd" clip-rule="evenodd" d="M21.994 8.5863C19.8701 8.5863 18.923 9.6338 18.923 11.9826C18.923 14.2768 19.91 15.3997 21.9402 15.4139H22.0393C24.0731 15.4037 25.0621 14.281 25.0621 11.9826C25.0621 9.6338 24.1159 8.5863 21.994 8.5863ZM21.9997 14.4077H21.9842C20.765 14.4077 20.2898 13.724 20.2898 11.9715C20.2898 10.2377 20.7456 9.59343 21.9718 9.59343H22.0113C23.2378 9.59343 23.6939 10.2377 23.6939 11.9715C23.6939 13.724 23.2188 14.4077 21.9997 14.4077Z" fill="#002469"/>
<path fill-rule="evenodd" clip-rule="evenodd" d="M13.4647 14.8941C13.8954 15.2272 14.4814 15.3693 15.4244 15.3693H15.4841C16.4341 15.3693 17.0218 15.2272 17.449 14.8946C18.0689 14.4223 18.1734 13.8668 18.1734 12.7991L18.1745 8.96879C18.1751 8.91317 18.1764 8.84324 18.1145 8.78062C18.0167 8.68129 17.7988 8.63123 17.4668 8.63123C17.1378 8.63123 16.9218 8.68129 16.8244 8.77998C16.762 8.84308 16.7631 8.91317 16.7639 8.96943L16.7641 9.65965V12.9713C16.7642 13.6378 16.7642 13.7765 16.4684 14.0208C16.1959 14.2424 15.7842 14.2713 15.4561 14.2713C15.1283 14.2713 14.7169 14.2424 14.4445 14.0208C14.1497 13.7786 14.1497 13.6421 14.1498 12.986L14.1501 8.96943C14.1513 8.91317 14.1521 8.84324 14.0898 8.77998C13.9922 8.68129 13.7756 8.63123 13.4455 8.63123C13.1146 8.63123 12.8978 8.68129 12.8005 8.7803C12.738 8.84324 12.7391 8.91317 12.7397 8.96911L12.74 8.98548V12.7991C12.74 13.8662 12.8446 14.4218 13.4647 14.8941Z" fill="#002469"/>
<path fill-rule="evenodd" clip-rule="evenodd" d="M30.3659 9.02882C30.0151 8.7677 29.5965 8.67505 28.7663 8.67505H26.0356C25.9115 8.67505 25.8105 8.77581 25.8105 8.89962V15.0991C25.8105 15.2242 25.9115 15.3251 26.0356 15.3251H28.9002C29.6777 15.3251 30.2215 15.3002 30.6728 14.9593C31.1794 14.5659 31.2861 13.9216 31.2861 13.4504C31.2861 12.828 31.0774 12.3352 30.6987 12.0631C30.5344 11.9406 30.3402 11.867 30.1553 11.802L30.0315 11.7584L30.1499 11.7017C30.7076 11.435 30.9118 11.0642 30.9031 10.3333C30.8982 9.99146 30.822 9.36671 30.3659 9.02882ZM27.201 9.60463H28.7263C29.5162 9.60463 29.5789 10.0054 29.5789 10.5298C29.5789 11.1564 29.2919 11.4234 28.6203 11.4234H27.201V9.60463ZM28.695 14.3728H27.1998V12.3666H28.8034C29.6925 12.3666 29.8712 12.754 29.8712 13.3798C29.8712 14.2226 29.5631 14.3728 28.695 14.3728Z" fill="#002469"/>
</svg>
