<svg width="46" height="32" viewBox="0 0 46 32" fill="none" xmlns="http://www.w3.org/2000/svg">
<rect width="46" height="32" rx="4" fill="white"/>
<path fill-rule="evenodd" clip-rule="evenodd" d="M12.3931 20.7235C12.3899 20.973 12.7045 21 12.8952 21H12.9977C13.0164 21 13.0315 20.9994 13.0539 20.9968C13.5038 20.9736 13.5004 20.8037 13.5004 20.7235C13.4991 20.6811 13.4991 20.637 13.5004 20.5874V11.2783C13.5038 11.0296 13.1876 11 12.9977 11H12.8952C12.7045 11 12.3899 11.0296 12.3931 11.2783C12.3931 11.3312 12.3915 11.3814 12.3915 11.4341V20.5665C12.3915 20.5715 12.3915 20.5786 12.3931 20.5923" fill="#E1091D"/>
<path fill-rule="evenodd" clip-rule="evenodd" d="M6.48699 20.7235C6.48362 20.973 6.79865 21 6.9889 21H7.09127C7.11011 21 7.12539 20.9994 7.14761 20.9968C7.59754 20.9736 7.59417 20.8037 7.59417 20.7235C7.59318 20.6811 7.59318 20.637 7.59417 20.5874V11.2783C7.59754 11.0296 7.28132 11 7.09127 11H6.9889C6.79865 11 6.48362 11.0296 6.48699 11.2783C6.48699 11.3312 6.48481 11.3814 6.48481 11.4341V20.5665C6.48481 20.5715 6.48481 20.5786 6.48699 20.5923" fill="#E1091D"/>
<path fill-rule="evenodd" clip-rule="evenodd" d="M8.45532 20.7235C8.45294 20.973 8.76718 21 8.95783 21H9.06019C9.07904 21 9.09432 20.9994 9.11673 20.9968C9.56647 20.9736 9.56329 20.8037 9.56329 20.7235C9.56131 20.6811 9.56131 20.637 9.56329 20.5874V11.2783C9.56647 11.0296 9.25025 11 9.06019 11H8.95783C8.76718 11 8.45294 11.0296 8.45532 11.2783C8.45532 11.3312 8.45413 11.3814 8.45413 11.4341V20.5665C8.45413 20.5715 8.45413 20.5786 8.45532 20.5923" fill="#E1091D"/>
<path fill-rule="evenodd" clip-rule="evenodd" d="M10.4245 20.7235C10.4216 20.973 10.736 21 10.9264 21H11.029C11.0477 21 11.0629 20.9994 11.085 20.9968C11.5353 20.9736 11.5313 20.8037 11.5313 20.7235C11.5305 20.6811 11.5305 20.637 11.5313 20.5874V11.2783C11.5353 11.0296 11.2187 11 11.029 11H10.9264C10.736 11 10.4216 11.0296 10.4245 11.2783C10.4245 11.3312 10.4224 11.3814 10.4224 11.4341V20.5665C10.4224 20.5715 10.4224 20.5786 10.4245 20.5923" fill="#E1091D"/>
<path fill-rule="evenodd" clip-rule="evenodd" d="M5.27575 15.4461C5.02658 15.4429 5 15.758 5 15.9493V16.0522C5 16.0709 5.0006 16.086 5.00238 16.1081C5.02559 16.5582 5.19521 16.555 5.27575 16.555C5.31821 16.5539 5.36165 16.5539 5.41184 16.555H14.7075C14.9561 16.5582 14.9852 16.242 14.9852 16.0522V15.9493C14.9852 15.758 14.9561 15.4429 14.7075 15.4461C14.6549 15.4461 14.6047 15.4443 14.5518 15.4443H5.43208C5.42712 15.4443 5.42117 15.4443 5.40669 15.4461" fill="#E1091D"/>
<path fill-rule="evenodd" clip-rule="evenodd" d="M28.7425 11.7329C26.0876 11.7329 24.9038 13.0423 24.9038 15.9783C24.9038 18.846 26.1376 20.2497 28.6753 20.2674H28.7991C31.3414 20.2547 32.5777 18.8513 32.5777 15.9783C32.5777 13.0423 31.3949 11.7329 28.7425 11.7329ZM28.7497 19.0097H28.7302C27.2062 19.0097 26.6123 18.155 26.6123 15.9644C26.6123 13.7972 27.182 12.9918 28.7148 12.9918H28.7642C30.2973 12.9918 30.8674 13.7972 30.8674 15.9644C30.8674 18.155 30.2735 19.0097 28.7497 19.0097Z" fill="#002469"/>
<path fill-rule="evenodd" clip-rule="evenodd" d="M18.0809 19.6177C18.6193 20.0341 19.3517 20.2117 20.5305 20.2117H20.6051C21.7926 20.2117 22.5272 20.0341 23.0613 19.6183C23.8362 19.0279 23.9667 18.3336 23.9667 16.9989L23.9681 12.211C23.9689 12.1415 23.9705 12.0541 23.8931 11.9758C23.7709 11.8516 23.4985 11.7891 23.0835 11.7891C22.6723 11.7891 22.4023 11.8516 22.2804 11.975C22.2025 12.0539 22.2039 12.1415 22.2049 12.2118L22.2051 13.0746V17.2141C22.2053 18.0473 22.2053 18.2207 21.8355 18.5261C21.4948 18.803 20.9802 18.8391 20.5702 18.8391C20.1603 18.8391 19.6461 18.803 19.3057 18.5261C18.9371 18.2233 18.9371 18.0526 18.9373 17.2326L18.9377 12.2118C18.9391 12.1415 18.9401 12.0541 18.8623 11.975C18.7403 11.8516 18.4695 11.7891 18.0569 11.7891C17.6432 11.7891 17.3722 11.8516 17.2506 11.9754C17.1725 12.0541 17.1739 12.1415 17.1746 12.2114L17.175 12.2319V16.9989C17.175 18.3328 17.3058 19.0273 18.0809 19.6177Z" fill="#002469"/>
<path fill-rule="evenodd" clip-rule="evenodd" d="M39.2074 12.2861C38.7689 11.9597 38.2456 11.8439 37.2078 11.8439H33.7945C33.6393 11.8439 33.5132 11.9698 33.5132 12.1246V19.874C33.5132 20.0303 33.6393 20.1564 33.7945 20.1564H37.3753C38.3472 20.1564 39.0268 20.1253 39.591 19.6991C40.2243 19.2074 40.3576 18.4021 40.3576 17.813C40.3576 17.0351 40.0967 16.419 39.6234 16.0789C39.418 15.9258 39.1752 15.8338 38.9441 15.7525L38.7894 15.6981L38.9374 15.6272C39.6345 15.2938 39.8898 14.8303 39.8789 13.9167C39.8727 13.4894 39.7775 12.7084 39.2074 12.2861ZM35.2512 13.0058H37.1579C38.1452 13.0058 38.2236 13.5069 38.2236 14.1622C38.2236 14.9456 37.8649 15.2793 37.0253 15.2793H35.2512V13.0058ZM37.1188 18.9661H35.2498V16.4584H37.2543C38.3656 16.4584 38.589 16.9425 38.589 17.7248C38.589 18.7783 38.2039 18.9661 37.1188 18.9661Z" fill="#002469"/>
</svg>
