<svg width="28" height="20" viewBox="0 0 28 20" fill="none" xmlns="http://www.w3.org/2000/svg">
<rect width="28" height="20" rx="4" fill="white"/>
<path fill-rule="evenodd" clip-rule="evenodd" d="M7.43584 12.8341C7.43393 12.9838 7.62272 13 7.7371 13H7.79864C7.80983 13 7.81888 12.9996 7.83233 12.9981C8.10229 12.9841 8.10027 12.8822 8.10027 12.8341C8.09943 12.8087 8.09943 12.7822 8.10027 12.7524V7.16699C8.10229 7.01776 7.91255 7 7.79864 7H7.7371C7.62272 7 7.43393 7.01776 7.43584 7.16699C7.43584 7.1987 7.43489 7.22886 7.43489 7.26044V12.7399C7.43489 12.7429 7.43489 12.7472 7.43584 12.7554" fill="#E1091D"/>
<path fill-rule="evenodd" clip-rule="evenodd" d="M3.89219 12.8341C3.89017 12.9838 4.07919 13 4.19334 13H4.25476C4.26607 13 4.27523 12.9996 4.28856 12.9981C4.55852 12.9841 4.5565 12.8822 4.5565 12.8341C4.55591 12.8087 4.55591 12.7822 4.5565 12.7524V7.16699C4.55852 7.01776 4.36879 7 4.25476 7H4.19334C4.07919 7 3.89017 7.01776 3.89219 7.16699C3.89219 7.1987 3.89088 7.22886 3.89088 7.26044V12.7399C3.89088 12.7429 3.89088 12.7472 3.89219 12.7554" fill="#E1091D"/>
<path fill-rule="evenodd" clip-rule="evenodd" d="M5.07319 12.8341C5.07177 12.9838 5.26031 13 5.3747 13H5.43612C5.44742 13 5.45659 12.9996 5.47004 12.9981C5.73988 12.9841 5.73798 12.8822 5.73798 12.8341C5.73679 12.8087 5.73679 12.7822 5.73798 12.7524V7.16699C5.73988 7.01776 5.55015 7 5.43612 7H5.3747C5.26031 7 5.07177 7.01776 5.07319 7.16699C5.07319 7.1987 5.07248 7.22886 5.07248 7.26044V12.7399C5.07248 12.7429 5.07248 12.7472 5.07319 12.7554" fill="#E1091D"/>
<path fill-rule="evenodd" clip-rule="evenodd" d="M6.25472 12.8341C6.25294 12.9838 6.4416 13 6.55587 13H6.61741C6.6286 13 6.63776 12.9996 6.65097 12.9981C6.92117 12.9841 6.91879 12.8822 6.91879 12.8341C6.91832 12.8087 6.91832 12.7822 6.91879 12.7524V7.16699C6.92117 7.01776 6.7312 7 6.61741 7H6.55587C6.4416 7 6.25294 7.01776 6.25472 7.16699C6.25472 7.1987 6.25341 7.22886 6.25341 7.26044V12.7399C6.25341 12.7429 6.25341 12.7472 6.25472 12.7554" fill="#E1091D"/>
<path fill-rule="evenodd" clip-rule="evenodd" d="M3.16545 9.6677C3.01595 9.66579 3 9.85484 3 9.96962V10.0314C3 10.0426 3.00036 10.0516 3.00143 10.0649C3.01535 10.335 3.11713 10.3331 3.16545 10.3331C3.19092 10.3323 3.21699 10.3323 3.24711 10.3331H8.8245C8.97365 10.335 8.99114 10.1452 8.99114 10.0314V9.96962C8.99114 9.85484 8.97365 9.66579 8.8245 9.6677C8.79296 9.6677 8.76284 9.66663 8.73106 9.66663H3.25925C3.25627 9.66663 3.2527 9.66663 3.24401 9.6677" fill="#E1091D"/>
<path fill-rule="evenodd" clip-rule="evenodd" d="M17.2455 7.4397C15.6525 7.4397 14.9423 8.22532 14.9423 9.98693C14.9423 11.7075 15.6825 12.5498 17.2052 12.5604H17.2794C18.8048 12.5528 19.5466 11.7108 19.5466 9.98693C19.5466 8.22532 18.837 7.4397 17.2455 7.4397ZM17.2498 11.8057H17.2381C16.3237 11.8057 15.9674 11.293 15.9674 9.97858C15.9674 8.67827 16.3092 8.19505 17.2289 8.19505H17.2585C18.1784 8.19505 18.5205 8.67827 18.5205 9.97858C18.5205 11.293 18.1641 11.8057 17.2498 11.8057Z" fill="#002469"/>
<path fill-rule="evenodd" clip-rule="evenodd" d="M10.8485 12.1706C11.1716 12.4204 11.611 12.527 12.3183 12.527H12.3631C13.0756 12.527 13.5163 12.4204 13.8368 12.1709C14.3017 11.8167 14.38 11.4001 14.38 10.5993L14.3809 7.72656C14.3813 7.68484 14.3823 7.6324 14.3359 7.58543C14.2625 7.51094 14.0991 7.47339 13.8501 7.47339C13.6034 7.47339 13.4414 7.51094 13.3683 7.58496C13.3215 7.63228 13.3223 7.68484 13.3229 7.72704L13.323 8.24471V10.7284C13.3232 11.2283 13.3232 11.3324 13.1013 11.5156C12.8969 11.6817 12.5881 11.7034 12.3421 11.7034C12.0962 11.7034 11.7877 11.6817 11.5834 11.5156C11.3623 11.3339 11.3623 11.2315 11.3624 10.7395L11.3626 7.72704C11.3634 7.68484 11.364 7.6324 11.3174 7.58496C11.2442 7.51094 11.0817 7.47339 10.8341 7.47339C10.5859 7.47339 10.4233 7.51094 10.3504 7.5852C10.3035 7.6324 10.3043 7.68484 10.3048 7.7268L10.305 7.73908V10.5993C10.305 11.3996 10.3835 11.8163 10.8485 12.1706Z" fill="#002469"/>
<path fill-rule="evenodd" clip-rule="evenodd" d="M23.5244 7.77168C23.2614 7.57584 22.9474 7.50635 22.3247 7.50635H20.2767C20.1836 7.50635 20.1079 7.58192 20.1079 7.67477V12.3244C20.1079 12.4182 20.1836 12.4939 20.2767 12.4939H22.4252C23.0083 12.4939 23.4161 12.4752 23.7546 12.2195C24.1346 11.9245 24.2146 11.4413 24.2146 11.0878C24.2146 10.6211 24.058 10.2514 23.774 10.0474C23.6508 9.95548 23.5051 9.90029 23.3665 9.85154L23.2736 9.81888L23.3624 9.77633C23.7807 9.57632 23.9339 9.29823 23.9273 8.75005C23.9236 8.49365 23.8665 8.02509 23.5244 7.77168ZM21.1507 8.20353H22.2947C22.8871 8.20353 22.9341 8.50414 22.9341 8.89737C22.9341 9.36737 22.7189 9.56762 22.2152 9.56762H21.1507V8.20353ZM22.2713 11.7797H21.1499V10.275H22.3526C23.0194 10.275 23.1534 10.5655 23.1534 11.0349C23.1534 11.667 22.9224 11.7797 22.2713 11.7797Z" fill="#002469"/>
</svg>
