<svg width="58" height="40" viewBox="0 0 58 40" fill="none" xmlns="http://www.w3.org/2000/svg">
<rect width="58" height="40" rx="6" fill="white"/>
<path fill-rule="evenodd" clip-rule="evenodd" d="M16.8717 25.6682C16.8679 25.9676 17.2454 26 17.4742 26H17.5973C17.6197 26 17.6378 25.9993 17.6647 25.9962C18.2046 25.9683 18.2005 25.7645 18.2005 25.6682C18.1989 25.6174 18.1989 25.5645 18.2005 25.5049V14.334C18.2046 14.0355 17.8251 14 17.5973 14H17.4742C17.2454 14 16.8679 14.0355 16.8717 14.334C16.8717 14.3974 16.8698 14.4577 16.8698 14.5209V25.4798C16.8698 25.4858 16.8698 25.4944 16.8717 25.5108" fill="#E1091D"/>
<path fill-rule="evenodd" clip-rule="evenodd" d="M9.78439 25.6682C9.78034 25.9676 10.1584 26 10.3867 26H10.5095C10.5321 26 10.5505 25.9993 10.5771 25.9962C11.117 25.9683 11.113 25.7645 11.113 25.6682C11.1118 25.6174 11.1118 25.5645 11.113 25.5049V14.334C11.117 14.0355 10.7376 14 10.5095 14H10.3867C10.1584 14 9.78034 14.0355 9.78439 14.334C9.78439 14.3974 9.78177 14.4577 9.78177 14.5209V25.4798C9.78177 25.4858 9.78177 25.4944 9.78439 25.5108" fill="#E1091D"/>
<path fill-rule="evenodd" clip-rule="evenodd" d="M12.1464 25.6682C12.1435 25.9676 12.5206 26 12.7494 26H12.8722C12.8948 26 12.9132 25.9993 12.9401 25.9962C13.4798 25.9683 13.476 25.7645 13.476 25.6682C13.4736 25.6174 13.4736 25.5645 13.476 25.5049V14.334C13.4798 14.0355 13.1003 14 12.8722 14H12.7494C12.5206 14 12.1435 14.0355 12.1464 14.334C12.1464 14.3974 12.145 14.4577 12.145 14.5209V25.4798C12.145 25.4858 12.145 25.4944 12.1464 25.5108" fill="#E1091D"/>
<path fill-rule="evenodd" clip-rule="evenodd" d="M14.5095 25.6682C14.5059 25.9676 14.8832 26 15.1117 26H15.2348C15.2572 26 15.2755 25.9993 15.302 25.9962C15.8424 25.9683 15.8376 25.7645 15.8376 25.6682C15.8366 25.6174 15.8366 25.5645 15.8376 25.5049V14.334C15.8424 14.0355 15.4624 14 15.2348 14H15.1117C14.8832 14 14.5059 14.0355 14.5095 14.334C14.5095 14.3974 14.5068 14.4577 14.5068 14.5209V25.4798C14.5068 25.4858 14.5068 25.4944 14.5095 25.5108" fill="#E1091D"/>
<path fill-rule="evenodd" clip-rule="evenodd" d="M8.3309 19.3354C8.0319 19.3316 8 19.7097 8 19.9392V20.0627C8 20.0851 8.00071 20.1033 8.00286 20.1297C8.03071 20.6699 8.23425 20.6661 8.3309 20.6661C8.38185 20.6647 8.43398 20.6647 8.49421 20.6661H19.649C19.9473 20.6699 19.9823 20.2904 19.9823 20.0627V19.9392C19.9823 19.7097 19.9473 19.3316 19.649 19.3354C19.5859 19.3354 19.5257 19.3333 19.4621 19.3333H8.5185C8.51254 19.3333 8.5054 19.3333 8.48802 19.3354" fill="#E1091D"/>
<path fill-rule="evenodd" clip-rule="evenodd" d="M36.491 14.8794C33.3051 14.8794 31.8846 16.4506 31.8846 19.9739C31.8846 23.4151 33.3651 25.0996 36.4103 25.1208H36.5589C39.6096 25.1055 41.0932 23.4215 41.0932 19.9739C41.0932 16.4506 39.6739 14.8794 36.491 14.8794ZM36.4996 23.6115H36.4763C34.6475 23.6115 33.9348 22.5859 33.9348 19.9572C33.9348 17.3565 34.6185 16.3901 36.4577 16.3901H36.517C38.3567 16.3901 39.0409 17.3565 39.0409 19.9572C39.0409 22.5859 38.3282 23.6115 36.4996 23.6115Z" fill="#002469"/>
<path fill-rule="evenodd" clip-rule="evenodd" d="M23.697 24.3411C24.3431 24.8408 25.2221 25.0539 26.6366 25.0539H26.7261C28.1512 25.0539 29.0327 24.8408 29.6736 24.3419C30.6034 23.6334 30.7601 22.8002 30.7601 21.1986L30.7617 15.4531C30.7627 15.3697 30.7646 15.2648 30.6717 15.1709C30.5251 15.0219 30.1982 14.9468 29.7002 14.9468C29.2067 14.9468 28.8827 15.0219 28.7365 15.1699C28.643 15.2646 28.6447 15.3697 28.6458 15.4541L28.6461 16.4894V21.4568C28.6463 22.4566 28.6463 22.6648 28.2026 23.0312C27.7938 23.3635 27.1763 23.4069 26.6842 23.4069C26.1924 23.4069 25.5753 23.3635 25.1668 23.0312C24.7245 22.6679 24.7245 22.4631 24.7248 21.479L24.7252 15.4541C24.7269 15.3697 24.7281 15.2648 24.6348 15.1699C24.4884 15.0219 24.1634 14.9468 23.6682 14.9468C23.1719 14.9468 22.8467 15.0219 22.7008 15.1704C22.607 15.2648 22.6086 15.3697 22.6096 15.4536L22.6101 15.4782V21.1986C22.6101 22.7992 22.7669 23.6326 23.697 24.3411Z" fill="#002469"/>
<path fill-rule="evenodd" clip-rule="evenodd" d="M49.0488 15.5432C48.5227 15.1516 47.8947 15.0126 46.6494 15.0126H42.5534C42.3672 15.0126 42.2158 15.1637 42.2158 15.3494V24.6487C42.2158 24.8363 42.3672 24.9877 42.5534 24.9877H46.8504C48.0166 24.9877 48.8322 24.9502 49.5093 24.4389C50.2691 23.8489 50.4291 22.8824 50.4291 22.1756C50.4291 21.242 50.1161 20.5028 49.5481 20.0946C49.3017 19.9108 49.0103 19.8005 48.7329 19.703L48.5473 19.6376L48.7248 19.5525C49.5614 19.1525 49.8678 18.5963 49.8547 17.5C49.8473 16.9872 49.733 16.0501 49.0488 15.5432ZM44.3014 16.4069H46.5894C47.7743 16.4069 47.8683 17.0082 47.8683 17.7946C47.8683 18.7346 47.4379 19.1351 46.4304 19.1351H44.3014V16.4069ZM46.5425 23.5592H44.2998V20.55H46.7051C48.0388 20.55 48.3068 21.1309 48.3068 22.0697C48.3068 23.3339 47.8447 23.5592 46.5425 23.5592Z" fill="#002469"/>
</svg>
