<svg width="28" height="20" viewBox="0 0 28 20" fill="none" xmlns="http://www.w3.org/2000/svg">
<path fill-rule="evenodd" clip-rule="evenodd" d="M12.015 8.5877H12.9264L13.0729 7.82853H12.1614L12.015 8.5877ZM11.9205 9.07598H12.8321L12.253 12.0735C12.2107 12.0886 12.0803 12.1419 11.9001 12.1419C11.6569 12.1419 11.4339 12.0445 11.4339 11.699C11.4339 11.634 11.4411 11.56 11.4574 11.4759C11.6385 10.5405 11.9205 9.07598 11.9205 9.07598ZM20.9713 9.00751C20.3646 9.00751 20.1235 9.37284 20.0102 9.59522H19.9995L20.0345 9.07661H19.1337C19.1278 9.19065 19.0889 9.55013 19.0311 9.86017C19.0311 9.86017 18.8231 10.9482 18.7837 11.1565C18.7537 11.3156 18.6989 11.5509 18.6989 11.6874C18.6989 11.9781 18.8423 12.142 19.1623 12.142C19.3418 12.142 19.4712 12.0915 19.5183 12.0735L19.8196 10.5124C19.9031 10.0814 20.2063 9.79929 20.5668 9.79929C20.8577 9.79929 20.9968 10.0174 20.9968 10.1957C20.9968 10.3509 20.9589 10.5229 20.9296 10.675L20.8 11.3435C20.7846 11.4237 20.7516 11.5779 20.7516 11.6988C20.7516 11.9943 20.9137 12.142 21.2215 12.142C21.3896 12.142 21.4961 12.0988 21.5716 12.0735L21.8419 10.6741C21.9005 10.3578 21.9221 10.1912 21.9221 9.98993C21.9221 9.41043 21.5925 9.00751 20.9713 9.00751ZM16.9225 9.73232C16.413 9.73232 16.1308 10.2678 16.1308 10.7452C16.1308 11.1478 16.3077 11.4174 16.7097 11.4174C17.1642 11.4174 17.5199 11.0198 17.5199 10.3411C17.5199 10.0306 17.3591 9.73232 16.9225 9.73232ZM16.6538 12.1421C15.6778 12.1421 15.2108 11.5403 15.2108 10.7733C15.2108 9.72079 15.9137 9.00751 16.9999 9.00751C17.9423 9.00751 18.4427 9.5942 18.4427 10.3477C18.4427 11.4767 17.692 12.1421 16.6538 12.1421ZM13.2406 11.4204C13.2198 11.5282 13.2067 11.6038 13.2067 11.6967C13.2067 12.0403 13.4301 12.142 13.6668 12.142C13.8561 12.142 13.9732 12.0888 14.0161 12.0735L14.4543 9.80134L15.163 9.80126L15.3029 9.07598L14.5943 9.07606L14.6287 8.89742C14.6929 8.56242 14.8462 8.41514 15.1115 8.41514C15.2886 8.41514 15.4319 8.44752 15.4816 8.46087L15.615 7.7712C15.5582 7.75643 15.2963 7.69049 14.9087 7.69049C14.2911 7.69049 13.8865 8.07619 13.7668 8.69739L13.6935 9.07598H13.2322L13.0922 9.80126H13.5539C13.5539 9.80126 13.3718 10.7407 13.2406 11.4204ZM11.1423 9.00759C10.6848 9.00759 10.4332 9.33422 10.3348 9.59475H10.3243L10.3595 9.07598H9.45835C9.45038 9.2558 9.41379 9.55984 9.32197 10.0379C9.22893 10.5223 9.13826 11.0055 9.04468 11.4758C9.02865 11.5562 9.02152 11.6348 9.02152 11.7014C9.02152 11.9477 9.13987 12.1418 9.48965 12.1418C9.66293 12.1418 9.78328 12.0955 9.84104 12.0735L10.1091 10.6839C10.2057 10.1522 10.3811 9.80071 10.8901 9.80071C11.1216 9.80071 11.3415 9.85149 11.3876 9.86539L11.5418 9.06587C11.5085 9.05403 11.3749 9.00759 11.1423 9.00759ZM24.3629 10.2909C24.4117 10.0161 24.2562 9.73232 23.9048 9.73232C23.4757 9.73232 23.2872 10.0338 23.2031 10.2909H24.3629ZM24.7696 11.4063C24.7696 11.8232 24.377 12.1429 23.6818 12.1429C22.721 12.1429 22.2512 11.5274 22.2512 10.774C22.2512 10.0262 22.7339 9.0083 23.9124 9.0083C24.6893 9.0083 25.2703 9.40522 25.2703 10.3139C25.2703 10.5374 25.2219 10.7803 25.2011 10.8776H23.1358C23.1324 11.0956 23.3111 11.4735 24.029 11.4735C24.3489 11.4735 24.7112 11.3573 24.7696 11.3276C24.7696 11.3503 24.7696 11.3913 24.7696 11.4063ZM7.89381 10.2909C7.94252 10.0161 7.78704 9.73232 7.43565 9.73232C7.00655 9.73232 6.81816 10.0338 6.73394 10.2909H7.89381ZM8.30054 11.4063C8.30054 11.8232 7.90796 12.1429 7.21285 12.1429C6.25196 12.1429 5.78221 11.5274 5.78221 10.774C5.78221 10.0262 6.26492 9.0083 7.44343 9.0083C8.22038 9.0083 8.80135 9.40522 8.80135 10.3139C8.80135 10.5374 8.75295 10.7803 8.73209 10.8776H6.66686C6.66341 11.0956 6.84205 11.4735 7.55994 11.4735C7.87988 11.4735 8.24217 11.3573 8.30054 11.3276C8.30054 11.3503 8.30054 11.3913 8.30054 11.4063ZM2.82352 8.05606H3.74046V11.0364C3.74046 11.4846 3.95738 11.7133 4.30563 11.7133C4.34114 11.7133 4.36208 11.7087 4.36899 11.7069C4.21634 11.9445 4.01844 12.1393 3.56404 12.1393C3.08324 12.1393 2.82352 11.7961 2.82352 11.2811V8.05606Z" fill="#1A1919"/>
<path fill-rule="evenodd" clip-rule="evenodd" d="M4.14702 10.4858C4.04822 10.6444 3.99585 10.8276 3.99585 11.0145V11.0413C3.99585 11.3435 4.15455 11.4518 4.32783 11.4518C4.50495 11.4518 4.59975 11.3282 4.68674 11.1878C4.83248 10.9527 6.61344 8.05603 6.61344 8.05603H5.66037L4.14702 10.4858Z" fill="#00A3DA"/>
</svg>
