<svg width="46" height="32" viewBox="0 0 46 32" fill="none" xmlns="http://www.w3.org/2000/svg">
<path fill-rule="evenodd" clip-rule="evenodd" d="M19.4529 13.7403H20.9284L21.1656 12.5256H19.6898L19.4529 13.7403ZM19.2998 14.5215H20.7757L19.8382 19.3175C19.7698 19.3417 19.5585 19.427 19.2668 19.427C18.8731 19.427 18.512 19.2711 18.512 18.7183C18.512 18.6143 18.5238 18.4959 18.5501 18.3614C18.8433 16.8648 19.2998 14.5215 19.2998 14.5215ZM33.9535 14.412C32.9713 14.412 32.5808 14.9965 32.3975 15.3523H32.3802L32.4368 14.5225H30.9784C30.9689 14.705 30.9058 15.2802 30.8123 15.7762C30.8123 15.7762 30.4754 17.517 30.4117 17.8504C30.3632 18.105 30.2744 18.4814 30.2744 18.6999C30.2744 19.165 30.5066 19.4272 31.0247 19.4272C31.3153 19.4272 31.5249 19.3464 31.6011 19.3175L32.0888 16.8198C32.224 16.1302 32.715 15.6788 33.2987 15.6788C33.7696 15.6788 33.9948 16.0278 33.9948 16.3131C33.9948 16.5614 33.9334 16.8366 33.886 17.08L33.6762 18.1496C33.6512 18.278 33.5978 18.5246 33.5978 18.7181C33.5978 19.1909 33.8603 19.4272 34.3586 19.4272C34.6307 19.4272 34.8032 19.358 34.9254 19.3175L35.3631 17.0785C35.458 16.5724 35.493 16.3059 35.493 15.9838C35.493 15.0566 34.9593 14.412 33.9535 14.412ZM27.3983 15.5717C26.5734 15.5717 26.1165 16.4285 26.1165 17.1923C26.1165 17.8365 26.4029 18.2679 27.0538 18.2679C27.7896 18.2679 28.3655 17.6317 28.3655 16.5458C28.3655 16.0489 28.1052 15.5717 27.3983 15.5717ZM26.9632 19.4273C25.3832 19.4273 24.6271 18.4645 24.6271 17.2372C24.6271 15.5532 25.765 14.412 27.5236 14.412C29.0494 14.412 29.8596 15.3507 29.8596 16.5562C29.8596 18.3627 28.6441 19.4273 26.9632 19.4273ZM21.4372 18.2725C21.4035 18.4451 21.3823 18.5661 21.3823 18.7146C21.3823 19.2644 21.7439 19.4272 22.1272 19.4272C22.4337 19.4272 22.6233 19.342 22.6927 19.3175L23.4022 15.6821L24.5496 15.682L24.7761 14.5215L23.6289 14.5217L23.6846 14.2358C23.7885 13.6998 24.0367 13.4642 24.4662 13.4642C24.7529 13.4642 24.9849 13.516 25.0655 13.5373L25.2815 12.4339C25.1895 12.4103 24.7655 12.3047 24.1379 12.3047C23.1379 12.3047 22.4828 12.9219 22.2891 13.9158L22.1705 14.5215H21.4235L21.1968 15.682H21.9444C21.9444 15.682 21.6495 17.1851 21.4372 18.2725ZM18.0399 14.4121C17.2992 14.4121 16.8919 14.9347 16.7325 15.3516H16.7155L16.7725 14.5215H15.3135C15.3006 14.8092 15.2414 15.2957 15.0927 16.0605C14.9421 16.8356 14.7953 17.6088 14.6438 18.3612C14.6178 18.4899 14.6063 18.6157 14.6063 18.7222C14.6063 19.1163 14.7979 19.4268 15.3642 19.4268C15.6447 19.4268 15.8396 19.3527 15.9331 19.3175L16.3672 17.0941C16.5235 16.2435 16.8075 15.6811 17.6315 15.6811C18.0063 15.6811 18.3624 15.7623 18.437 15.7846L18.6868 14.5054C18.6329 14.4864 18.4166 14.4121 18.0399 14.4121ZM39.4447 16.4654C39.5236 16.0257 39.2719 15.5717 38.703 15.5717C38.0083 15.5717 37.7031 16.054 37.5669 16.4654H39.4447ZM40.1031 18.25C40.1031 18.9171 39.4675 19.4286 38.342 19.4286C36.7863 19.4286 36.0257 18.4439 36.0257 17.2384C36.0257 16.0418 36.8073 14.4132 38.7153 14.4132C39.9732 14.4132 40.9138 15.0483 40.9138 16.5022C40.9138 16.8597 40.8354 17.2484 40.8018 17.4041H37.458C37.4524 17.753 37.7417 18.3576 38.904 18.3576C39.422 18.3576 40.0086 18.1716 40.1031 18.1242C40.1031 18.1605 40.1031 18.226 40.1031 18.25ZM12.7805 16.4654C12.8593 16.0257 12.6076 15.5717 12.0387 15.5717C11.3439 15.5717 11.0389 16.054 10.9026 16.4654H12.7805ZM13.439 18.25C13.439 18.9171 12.8034 19.4286 11.678 19.4286C10.1222 19.4286 9.36167 18.4439 9.36167 17.2384C9.36167 16.0418 10.1432 14.4132 12.0513 14.4132C13.3092 14.4132 14.2498 15.0483 14.2498 16.5022C14.2498 16.8597 14.1714 17.2484 14.1377 17.4041H10.794C10.7884 17.753 11.0776 18.3576 12.2399 18.3576C12.7579 18.3576 13.3445 18.1716 13.439 18.1242C13.439 18.1605 13.439 18.226 13.439 18.25ZM4.57141 12.8897H6.05598V17.6582C6.05598 18.3753 6.40719 18.7413 6.97102 18.7413C7.02852 18.7413 7.06242 18.7339 7.0736 18.7311C6.82646 19.1112 6.50605 19.4229 5.77035 19.4229C4.99192 19.4229 4.57141 18.8737 4.57141 18.0496V12.8897Z" fill="#1A1919"/>
<path fill-rule="evenodd" clip-rule="evenodd" d="M6.62345 16.9213C6.52284 17.0809 6.46945 17.2658 6.46945 17.4545V17.6661C6.46945 18.1496 6.7264 18.3228 7.00695 18.3228C7.2937 18.3228 7.4472 18.1252 7.58804 17.9005C7.824 17.5244 10.7075 12.8896 10.7075 12.8896H9.16438L6.62345 16.9213Z" fill="#00A3DA"/>
</svg>
