<svg width="28" height="20" viewBox="0 0 28 20" fill="none" xmlns="http://www.w3.org/2000/svg">
<path fill-rule="evenodd" clip-rule="evenodd" d="M8.85315 13.2152H7.15689L5.88491 8.16031C5.82453 7.92779 5.69634 7.72222 5.50778 7.62534C5.03719 7.38186 4.51864 7.18809 3.95294 7.09036V6.89575H6.68548C7.06261 6.89575 7.34546 7.18809 7.3926 7.52761L8.05257 11.1739L9.748 6.89575H11.3971L8.85315 13.2152ZM12.34 13.2152H10.738L12.0571 6.89575H13.6591L12.34 13.2152ZM15.7316 8.64643C15.7788 8.30606 16.0616 8.11145 16.3916 8.11145C16.9102 8.06259 17.475 8.16032 17.9464 8.40295L18.2293 7.04234C17.7579 6.84773 17.2393 6.75 16.7687 6.75C15.2139 6.75 14.0825 7.62534 14.0825 8.8402C14.0825 9.7644 14.8839 10.2497 15.4496 10.542C16.0616 10.8335 16.2973 11.0281 16.2502 11.3196C16.2502 11.7569 15.7788 11.9515 15.3082 11.9515C14.7425 11.9515 14.1768 11.8057 13.6591 11.5623L13.3762 12.9237C13.9419 13.1663 14.5539 13.2641 15.1196 13.2641C16.863 13.3121 17.9464 12.4376 17.9464 11.125C17.9464 9.47206 15.7316 9.37518 15.7316 8.64643ZM23.5529 13.2152L22.281 6.89575H20.9147C20.6318 6.89575 20.349 7.09036 20.2547 7.38186L17.8993 13.2152H19.5484L19.8776 12.2918H21.9038L22.0924 13.2152H23.5529ZM21.1504 8.59757L21.621 10.9793H20.3019L21.1504 8.59757Z" fill="#172B85"/>
</svg>
