<svg width="34" height="24" viewBox="0 0 34 24" fill="none" xmlns="http://www.w3.org/2000/svg">
<path fill-rule="evenodd" clip-rule="evenodd" d="M12.5432 16.1536C12.6973 16.0735 12.9593 15.9685 13.2368 15.9685C13.8738 15.9685 14.2181 16.3986 14.2181 17.199C14.2181 18.1341 13.7559 18.5893 13.0108 18.5893C12.7383 18.5893 12.3171 18.5043 12.0087 18.344V14.8532L12.5432 14.7281V16.1536ZM12.5381 18.159C12.7024 18.2291 12.8823 18.239 13.0108 18.239C13.391 18.239 13.6787 18.009 13.6787 17.199C13.6787 16.5637 13.4424 16.3586 13.0981 16.3586C12.8925 16.3586 12.7436 16.4136 12.5381 16.5237V18.159ZM7.06555 16.0334H7.10154L7.80017 18.5292H8.35504L9.18753 14.9831H8.58632L8.06225 17.6289H8.02645L7.31209 14.9831H6.85482L6.1869 17.6289H6.15091L5.57541 14.9831H5L5.8324 18.5292H6.38718L7.06555 16.0334ZM11.4644 18.359V17.9789C11.1818 18.144 10.9249 18.239 10.6475 18.239C10.1183 18.239 9.86655 17.9738 9.86655 17.3737H11.5414V17.1888C11.5414 16.3737 11.1458 15.9685 10.5037 15.9685C9.73296 15.9685 9.3373 16.5186 9.3373 17.2787C9.3373 18.0691 9.6918 18.5893 10.5549 18.5893C10.9249 18.5893 11.2332 18.4892 11.4644 18.359ZM11.0533 17.0387H9.87695C9.93329 16.5387 10.1747 16.3036 10.4883 16.3036C10.7657 16.3036 11.0279 16.5135 11.0533 17.0387ZM16.5817 17.7789H16.5559L15.405 14.9831H14.7834V18.5292H15.2458V16.0185H15.292L16.3403 18.5292H16.669L17.7172 15.9585H17.7636V18.5292H18.3184V14.9831H17.6812L16.5817 17.7789ZM18.8837 17.2787C18.8837 16.4035 19.377 15.9685 20.0551 15.9685C20.7334 15.9685 21.2268 16.4035 21.2268 17.2787C21.2268 18.1341 20.7591 18.5893 20.0551 18.5893C19.3512 18.5893 18.8837 18.1341 18.8837 17.2787ZM20.6871 17.2787C20.6871 16.6036 20.4044 16.3187 20.0551 16.3187C19.716 16.3187 19.4231 16.6036 19.4231 17.2787C19.4231 17.9642 19.6904 18.239 20.0551 18.239C20.4199 18.239 20.6871 17.9642 20.6871 17.2787ZM23.0247 15.9685C22.4341 15.9685 21.9458 16.2035 21.7146 16.3386V18.5292H22.2491V16.5486C22.4083 16.4588 22.6704 16.3685 22.876 16.3685C23.138 16.3685 23.3382 16.4386 23.3382 16.8337V18.5292H23.8725V16.7186C23.8725 16.2035 23.6415 15.9685 23.0247 15.9685ZM26.4774 17.9789V18.359C26.2463 18.4892 25.9382 18.5893 25.5681 18.5893C24.705 18.5893 24.3505 18.0691 24.3505 17.2787C24.3505 16.5186 24.7462 15.9685 25.5168 15.9685C26.1592 15.9685 26.5549 16.3737 26.5549 17.1888V17.3737H24.8799C24.8799 17.9738 25.1316 18.239 25.6608 18.239C25.9382 18.239 26.1951 18.144 26.4774 17.9789ZM24.8901 17.0387H26.0667C26.0411 16.5135 25.7789 16.3036 25.5014 16.3036C25.1879 16.3036 24.9467 16.5387 24.8901 17.0387ZM29.1034 16.0535H28.5536L27.9676 17.8938H27.937L27.2793 16.0535H26.7141L27.7006 18.5541C27.5771 18.9241 27.3616 19.1945 27.0122 19.1945V19.6044C27.6028 19.6044 27.9163 19.2444 28.1733 18.5541L29.1034 16.0535Z" fill="#0068A3"/>
<path fill-rule="evenodd" clip-rule="evenodd" d="M16.7071 4.5C17.4142 4.5 18.0839 4.66028 18.6803 4.94484C18.774 4.98809 18.8674 5.03568 18.9611 5.08822L18.5465 5.44938L17.9237 4.8225L16.8724 5.73517L16.2481 5.07186L14.2898 6.78999L15.5452 8.1367L15.0519 8.55907L16.2884 9.90781L15.798 10.3292L17.5649 12.2436L18.6138 11.3037L19.5206 12.3109C19.3402 12.4474 19.1437 12.5759 18.9273 12.6946C18.2715 13.0585 17.5136 13.2669 16.7071 13.2669C14.2268 13.2669 12.2039 11.2976 12.2039 8.88361C12.2039 6.46908 14.2268 4.5 16.7071 4.5ZM15.8864 8.60647L16.9573 7.6678L17.9215 8.71041L16.8508 9.64873L15.8864 8.60647ZM17.7188 9.46916L16.6479 10.4076L17.6123 11.4502L18.6832 10.5115L17.7188 9.46916ZM15.1202 6.82642L16.1911 5.88801L17.1551 6.93036L16.0842 7.86876L15.1202 6.82642ZM17.8884 5.61752L17.0853 6.32126L17.8084 7.10328L18.6115 6.39928L17.8884 5.61752ZM18.5123 9.54533L19.3157 8.84132L20.0388 9.62325L19.2356 10.3271L18.5123 9.54533ZM20.0218 10.4203L19.2188 11.1244L19.9419 11.9059L20.745 11.2021L20.0218 10.4203ZM19.5423 7.50532L20.0777 7.03607L20.5597 7.55724L20.0245 8.0264L19.5423 7.50532ZM19.3936 5.48759L18.8582 5.95675L19.3402 6.47792L19.8757 6.00876L19.3936 5.48759ZM20.2268 9.0538L20.7622 8.58455L21.2443 9.10563L20.7088 9.57488L20.2268 9.0538ZM18.6286 7.18936L17.8256 7.89346L18.5488 8.67495L19.3517 7.97112L18.6286 7.18936Z" fill="#0068A3"/>
</svg>
