<svg width="46" height="32" viewBox="0 0 46 32" fill="none" xmlns="http://www.w3.org/2000/svg">
<path fill-rule="evenodd" clip-rule="evenodd" d="M16.7242 21.538C16.9297 21.4313 17.279 21.2912 17.6491 21.2912C18.4984 21.2912 18.9575 21.8647 18.9575 22.9319C18.9575 24.1787 18.3412 24.7856 17.3477 24.7856C16.9845 24.7856 16.4228 24.6723 16.0117 24.4585V19.8042L16.7242 19.6375V21.538ZM16.7175 24.2119C16.9365 24.3053 17.1764 24.3186 17.3478 24.3186C17.8547 24.3186 18.2383 24.0119 18.2383 22.932C18.2383 22.0848 17.9232 21.8114 17.4642 21.8114C17.19 21.8114 16.9915 21.8848 16.7175 22.0315V24.2119ZM9.42075 21.3777H9.46874L10.4002 24.7055H11.1401L12.2501 19.9773H11.4484L10.7497 23.5051H10.7019L9.74947 19.9773H9.13977L8.24922 23.5051H8.20123L7.4339 19.9773H6.66669L7.77655 24.7055H8.51626L9.42075 21.3777ZM15.2858 24.4786V23.9718C14.909 24.1919 14.5666 24.3186 14.1967 24.3186C13.491 24.3186 13.1554 23.965 13.1554 23.1649H15.3886V22.9183C15.3886 21.8315 14.861 21.2912 14.0049 21.2912C12.9773 21.2912 12.4498 22.0248 12.4498 23.0382C12.4498 24.092 12.9224 24.7856 14.0732 24.7856C14.5666 24.7856 14.9776 24.6522 15.2858 24.4786ZM14.7378 22.7182H13.1693C13.2444 22.0515 13.5662 21.7381 13.9844 21.7381C14.3543 21.7381 14.7038 22.0179 14.7378 22.7182ZM22.109 23.7052H22.0746L20.5401 19.9773H19.7112V24.7055H20.3278V21.3579H20.3893L21.7871 24.7055H22.2253L23.623 21.2779H23.6848V24.7055H24.4246V19.9773H23.575L22.109 23.7052ZM25.1783 23.0382C25.1783 21.8712 25.836 21.2912 26.7402 21.2912C27.6446 21.2912 28.3024 21.8712 28.3024 23.0382C28.3024 24.1787 27.6789 24.7856 26.7402 24.7856C25.8016 24.7856 25.1783 24.1787 25.1783 23.0382ZM27.5829 23.0382C27.5829 22.1381 27.2059 21.7581 26.7402 21.7581C26.288 21.7581 25.8975 22.1381 25.8975 23.0382C25.8975 23.9521 26.2539 24.3186 26.7402 24.3186C27.2265 24.3186 27.5829 23.9521 27.5829 23.0382ZM30.6996 21.2912C29.9121 21.2912 29.2611 21.6046 28.9529 21.7847V24.7055H29.6655V22.0648C29.8777 21.9449 30.2272 21.8246 30.5014 21.8246C30.8507 21.8246 31.1176 21.918 31.1176 22.4449V24.7055H31.8301V22.2913C31.8301 21.6046 31.5221 21.2912 30.6996 21.2912ZM35.3033 23.9718V24.4786C34.9951 24.6522 34.5843 24.7856 34.0908 24.7856C32.9401 24.7856 32.4673 24.092 32.4673 23.0382C32.4673 22.0248 32.995 21.2912 34.0224 21.2912C34.8789 21.2912 35.4066 21.8315 35.4066 22.9183V23.1649H33.1732C33.1732 23.965 33.5088 24.3186 34.2144 24.3186C34.5843 24.3186 34.9268 24.1919 35.3033 23.9718ZM33.1868 22.7182H34.7556C34.7215 22.0179 34.3718 21.7381 34.0019 21.7381C33.5839 21.7381 33.2623 22.0515 33.1868 22.7182ZM38.8045 21.4045H38.0714L37.2902 23.8584H37.2493L36.3725 21.4045H35.6188L36.9342 24.7388C36.7695 25.2321 36.4821 25.5925 36.0162 25.5925V26.1391C36.8037 26.1391 37.2217 25.6592 37.5644 24.7388L38.8045 21.4045Z" fill="#0068A3"/>
<path fill-rule="evenodd" clip-rule="evenodd" d="M22.2763 6C23.2191 6 24.1119 6.21371 24.9071 6.59311C25.032 6.65079 25.1566 6.71424 25.2815 6.78429L24.7288 7.26584L23.8983 6.43L22.4967 7.6469L21.6642 6.76247L19.0532 9.05332L20.7271 10.8489L20.0693 11.4121L21.718 13.2104L21.064 13.7723L23.4199 16.3248L24.8184 15.0716L26.0275 16.4146C25.787 16.5966 25.5251 16.7678 25.2364 16.9261C24.3621 17.4114 23.3516 17.6893 22.2763 17.6893C18.9692 17.6893 16.272 15.0635 16.272 11.8448C16.272 8.62543 18.9692 6 22.2763 6ZM21.182 11.4753L22.6098 10.2237L23.8955 11.6139L22.4678 12.865L21.182 11.4753ZM23.6252 12.6255L22.1973 13.8767L23.4832 15.2669L24.911 14.0153L23.6252 12.6255ZM20.1604 9.10189L21.5882 7.85068L22.8735 9.24047L21.4457 10.4917L20.1604 9.10189ZM23.8514 7.49003L22.7805 8.42835L23.7446 9.47104L24.8155 8.53237L23.8514 7.49003ZM24.6831 12.7271L25.7543 11.7884L26.7184 12.831L25.6476 13.7694L24.6831 12.7271ZM26.6958 13.8937L25.6252 14.8325L26.5893 15.8745L27.6601 14.9361L26.6958 13.8937ZM26.0564 10.0071L26.7703 9.38142L27.413 10.0763L26.6995 10.7019L26.0564 10.0071ZM25.8583 7.31678L25.1444 7.94233L25.787 8.63722L26.501 8.01168L25.8583 7.31678ZM26.9691 12.0717L27.683 11.4461L28.3258 12.1408L27.6119 12.7665L26.9691 12.0717ZM24.8382 9.58582L23.7675 10.5246L24.7318 11.5666L25.8023 10.6282L24.8382 9.58582Z" fill="#0068A3"/>
</svg>
