<svg width="160" height="160" viewBox="0 0 160 160" fill="none" xmlns="http://www.w3.org/2000/svg">
<g clip-path="url(#clip0_13477_51)">
<path fill-rule="evenodd" clip-rule="evenodd" d="M79.8714 -1.15566L149.743 39.3186V74.0496L135.144 83.3196V47.6166L79.8714 16.2677L24.5984 47.6166V54.8537L91.4451 93.1734L79.9024 100.701L48.5354 82.5313V96.013L80.7006 114.742L104.219 100.463L118.367 108.756L80.7236 131.343L35.6168 105.567V75.0479L10 60.2089V39.3186L79.8714 -1.15566ZM12 40.4714V59.0562L37.6168 73.8951V104.407L80.699 129.025L114.447 108.776L104.237 102.792L80.722 117.069L46.5354 97.1628V79.0614L79.8404 98.3539L87.6153 93.2833L22.5984 56.0125V46.4516L79.8714 13.9685L137.144 46.4516V79.6804L147.743 72.9504V40.4714L79.8714 1.15566L12 40.4714ZM79.0192 28.6575L124.126 54.4328V84.4798L149.743 99.3188V120.209L79.8714 160.683L10 120.209L10 87.4529L24.4945 78.1764L24.5967 111.91L79.8714 143.26L135.144 111.911V104.674L68.2977 66.3543L79.8404 58.8265L111.207 76.9964V63.987L79.0422 45.2579L55.5234 59.5371L41.3756 51.2436L79.0192 28.6575ZM79.0438 30.9751L45.2963 51.2236L55.5054 57.2083L79.0208 42.9311L113.207 62.8372V80.4663L79.9024 61.1738L72.1275 66.2444L137.144 103.515V113.076L79.8714 145.559L22.6002 113.077L22.5055 81.8239L12 88.5474L12 119.056L79.8714 158.372L147.743 119.056V100.472L122.126 85.6326V55.5935L79.0438 30.9751Z" fill="#1B1C1D"/>
</g>
<defs>
<clipPath id="clip0_13477_51">
<rect width="160" height="160" fill="white"/>
</clipPath>
</defs>
</svg>
