<svg width="160" height="160" viewBox="0 0 160 160" fill="none" xmlns="http://www.w3.org/2000/svg">
<path d="M104.228 101.627L116.407 108.766L80.7112 130.184L36.6167 104.987V73.0709L47.5353 73.9108V96.5879L80.7112 115.906L104.228 101.627Z" fill="#FFBD12"/>
<path d="M11 59.6325V39.895L79.8714 0L148.743 39.895V73.5L136.144 81.5V47.0341L79.8714 15.1181L23.5984 47.0341V55.4331L89.5302 93.2283L79.8714 99.5276L11 59.6325Z" fill="#EC3D27"/>
<path d="M43.336 51.2336L55.5144 58.3727L79.0315 44.0945L112.207 63.4121V78.7313L79.8714 60.0002L70.2126 66.2994L136.144 104.095V112.494L79.8714 144.41L23.5984 112.494L23.5 80.0001L11 88.0001L11 119.633L79.8714 159.528L148.743 119.633V99.8952L123.126 85.0562V55.0131L79.0315 29.8163L43.336 51.2336Z" fill="#074BB2"/>
</svg>
