<svg width="160" height="160" viewBox="0 0 160 160" fill="none" xmlns="http://www.w3.org/2000/svg">
<path d="M11 59.6325V39.895L79.8714 0L148.743 39.895V73.5L136.144 81.5V47.0341L79.8714 15.1181L23.5984 47.0341V55.4331L89.5302 93.2283L79.8714 99.5276L47.5354 80.7964V96.5879L80.7113 115.906L104.228 101.627L116.407 108.766L80.7113 130.184L36.6168 104.987V74.4715L11 59.6325Z" fill="white"/>
<path d="M55.5144 58.3727L43.336 51.2336L79.0315 29.8163L123.126 55.0131V85.0562L148.743 99.8952V119.633L79.8714 159.528L11 119.633L11 88.0001L23.5 80.0001L23.5984 112.494L79.8714 144.41L136.144 112.494V104.095L70.2126 66.2994L79.8714 60.0002L112.207 78.7313V63.4121L79.0315 44.0945L55.5144 58.3727Z" fill="white"/>
</svg>
