<svg width="32" height="32" viewBox="0 0 32 32" fill="none" xmlns="http://www.w3.org/2000/svg">
<path fill-rule="evenodd" clip-rule="evenodd" d="M16 30C23.732 30 30 23.732 30 16C30 8.26801 23.732 2 16 2C8.26801 2 2 8.26801 2 16C2 23.732 8.26801 30 16 30ZM18.4468 8.65403C18.7494 8.12586 18.5685 7.45126 18.0428 7.14727C17.5171 6.84328 16.8456 7.02502 16.543 7.55318L16.0153 8.47442L15.4875 7.55318C15.1849 7.02502 14.5134 6.84328 13.9877 7.14727C13.462 7.45126 13.2811 8.12586 13.5837 8.65403L14.748 10.6864L11.0652 17.1149H8.09831C7.49173 17.1149 7 17.6089 7 18.2183C7 18.8277 7.49173 19.3217 8.09831 19.3217H18.4324C18.523 19.0826 18.6184 18.6721 18.5169 18.2949C18.3644 17.7279 17.8 17.1149 16.8542 17.1149H13.5997L18.4468 8.65403ZM11.6364 20.5419C11.449 20.3328 11.0292 19.9987 10.661 19.8888C10.0997 19.7211 9.67413 19.8263 9.45942 19.9179L8.64132 21.346C8.33874 21.8741 8.51963 22.5487 9.04535 22.8527C9.57107 23.1567 10.2425 22.975 10.5451 22.4468L11.6364 20.5419ZM23.9017 19.3217H22.2295L23.3892 21.346C23.6918 21.8741 23.5109 22.5487 22.9852 22.8527C22.4594 23.1567 21.788 22.975 21.4854 22.4468L21.3266 22.1696L21.3255 22.1677L21.3244 22.1658C19.9914 19.8389 18.6582 17.5119 17.3271 15.1839C16.9152 14.4636 16.778 13.728 16.8695 12.8545C16.9407 12.175 17.4118 11.5757 17.6575 11.3411L20.9653 17.1149H23.9017C24.5083 17.1149 25 17.6089 25 18.2183C25 18.8277 24.5083 19.3217 23.9017 19.3217Z" fill="white" fill-opacity="0.68"/>
</svg>
