<svg width="32" height="32" viewBox="0 0 32 32" fill="none" xmlns="http://www.w3.org/2000/svg">
<path fill-rule="evenodd" clip-rule="evenodd" d="M28.5918 9.91369C24.2166 1.63278 15.9645 2.00248 15.9645 2.00248C7.6274 2.32986 4.36729 8.2229 4.36729 8.2229L10.0849 13.8694C10.0849 13.8694 9.49838 15.075 9.71838 16.8004L9.91115 17.7862C8.82839 15.913 4.38163 8.24763 4.36729 8.2229C-0.620723 16.1369 3.82328 23.0823 3.82328 23.0823C8.12945 29.8923 14.5793 30.0002 14.9976 30L16.8597 22.2427C16.8597 22.2427 17.3961 22.2005 18.1511 21.9081C17.3874 22.1791 16.6795 22.2309 15.9864 22.2817L15.9412 22.285C12.226 21.9539 11.0377 19.7353 11.0377 19.7353L10.0486 18.0251C9.33487 15.4945 9.96675 14.1862 10.573 12.9311L10.5979 12.8794C12.7468 9.83275 15.2623 9.91369 15.2623 9.91369H17.2766C17.2433 9.90579 17.2097 9.89809 17.1759 9.8906C19.3479 9.879 28.5646 9.8906 28.5646 9.8906L20.8526 12.1492C21.0462 12.4012 21.2202 12.6572 21.3927 12.911L21.4158 12.9449C22.986 16.3265 21.6549 18.4603 21.6549 18.4603L20.6189 20.2514C20.6145 20.2559 20.6101 20.2603 20.6056 20.2647C19.5153 22.1775 15.4126 29.3099 15.0156 29.9999C15.0179 29.9999 15.019 29.9999 15.019 29.9999L15.0272 29.9857C24.366 30.3261 28.1634 23.0245 28.1634 23.0245C31.8901 15.9456 28.8333 10.3476 28.5843 9.91369H28.5918Z" fill="#94969C" fill-opacity="0.68"/>
<path d="M18.0736 10.1548C17.863 10.0766 17.6398 10.0059 17.4041 9.9452C17.6425 10.0103 17.8652 10.0803 18.0736 10.1548Z" fill="#94969C" fill-opacity="0.68"/>
<path d="M15.9298 10.9228C13.0555 10.9228 10.7291 13.2492 10.7291 16.1147C10.7291 18.9804 13.0594 21.3068 15.9298 21.3068C18.804 21.3068 21.1304 18.9804 21.1304 16.1147C21.1304 13.2453 18.8001 10.9228 15.9298 10.9228Z" fill="#94969C" fill-opacity="0.68"/>
</svg>
