<svg width="32" height="32" viewBox="0 0 32 32" fill="none" xmlns="http://www.w3.org/2000/svg">
<path fill-rule="evenodd" clip-rule="evenodd" d="M28.6278 9.91503C24.2527 1.63412 16.0005 2.00383 16.0005 2.00383C7.66341 2.3312 4.4033 8.22424 4.4033 8.22424L10.1209 13.8707C10.1209 13.8707 9.53439 15.0763 9.75439 16.8018L9.94716 17.7876C8.8644 15.9143 4.41764 8.24897 4.4033 8.22424C-0.584713 16.1382 3.85929 23.0837 3.85929 23.0837C8.16546 29.8936 14.6153 30.0016 15.0336 30.0013L16.8957 22.244C16.8957 22.244 17.4321 22.2019 18.1871 21.9094C17.4234 22.1804 16.7155 22.2322 16.0224 22.283L15.9772 22.2863C12.262 21.9552 11.0737 19.7367 11.0737 19.7367L10.0846 18.0265C9.37088 15.4958 10.0028 14.1876 10.609 12.9324L10.6339 12.8807C12.7828 9.83409 15.2983 9.91503 15.2983 9.91503H17.3126C17.2793 9.90713 17.2457 9.89943 17.2119 9.89194C19.3839 9.88034 28.6006 9.89194 28.6006 9.89194L20.8886 12.1505C21.0822 12.4025 21.2562 12.6585 21.4288 12.9124L21.4518 12.9462C23.022 16.3279 21.6909 18.4616 21.6909 18.4616L20.6549 20.2528C20.6505 20.2572 20.6461 20.2617 20.6417 20.2661C19.5513 22.1789 15.4486 29.3112 15.0517 30.0012C15.0539 30.0012 15.055 30.0012 15.055 30.0012L15.0632 29.9871C24.402 30.3274 28.1994 23.0258 28.1994 23.0258C31.9262 15.9469 28.8693 10.3489 28.6203 9.91503H28.6278Z" fill="white"/>
<path d="M18.1097 10.1562C17.899 10.078 17.6759 10.0072 17.4401 9.94654C17.6785 10.0116 17.9012 10.0817 18.1097 10.1562Z" fill="white"/>
<path d="M15.9658 10.9241C13.0916 10.9241 10.7651 13.2505 10.7651 16.1161C10.7651 18.9817 13.0954 21.3081 15.9658 21.3081C18.8401 21.3081 21.1664 18.9817 21.1664 16.1161C21.1664 13.2467 18.8361 10.9241 15.9658 10.9241Z" fill="white"/>
</svg>
