<svg width="32" height="32" viewBox="0 0 32 32" fill="none" xmlns="http://www.w3.org/2000/svg">
<path d="M16.0005 22.9997C19.8667 22.9997 23.0008 19.8655 23.0008 15.9993C23.0008 12.1331 19.8667 8.99884 16.0005 8.99884C12.1343 8.99884 9.00024 12.1331 9.00024 15.9993C9.00024 19.8655 12.1343 22.9997 16.0005 22.9997Z" fill="white"/>
<path d="M9.93791 19.5011L3.87639 9.0022C2.64723 11.1303 2.00008 13.5446 2 16.0021C1.99992 18.4597 2.64693 20.874 3.87595 23.0022C5.10489 25.1304 6.87246 26.8975 9.00095 28.1259C11.1294 29.3543 13.5438 30.0006 16.0013 30L22.0629 19.5011V19.4995C21.4489 20.5642 20.5655 21.4484 19.5013 22.0633C18.4371 22.6781 17.2299 23.0019 16.0009 23.002C14.7719 23.0022 13.5646 22.6788 12.5002 22.0643C11.4359 21.4498 10.5522 20.5658 9.93791 19.5014V19.5011Z" fill="#229342"/>
<path d="M22.0623 19.5007L16.0009 29.9996C18.4584 29.9999 20.8728 29.3532 23.0011 28.1245C25.1294 26.8958 26.8967 25.1284 28.1253 23C29.3538 20.8716 30.0004 18.4572 30 15.9997C29.9996 13.5421 29.3521 11.128 28.1228 9H15.9999L15.9984 9.00103C17.2274 9.00044 18.4348 9.32346 19.4994 9.9376C20.5639 10.5518 21.4479 11.4354 22.0626 12.4996C22.6772 13.5639 23.0008 14.7712 23.0008 16.0002C23.0008 17.2292 22.6771 18.4366 22.0624 19.5008L22.0623 19.5007Z" fill="#FBC116"/>
<path d="M16.0004 21.5428C19.0611 21.5428 21.5423 19.0616 21.5423 16.0007C21.5423 12.9399 19.0611 10.4588 16.0004 10.4588C12.9396 10.4588 10.4584 12.94 10.4584 16.0007C10.4584 19.0615 12.9396 21.5428 16.0004 21.5428Z" fill="#1A73E8"/>
<path d="M16.0006 9.00044H28.1235C26.8951 6.87195 25.1279 5.1044 22.9996 3.87549C20.8714 2.64666 18.4571 1.99981 15.9996 2C13.5421 2.00012 11.1279 2.64732 8.9999 3.87652C6.87182 5.10565 5.10487 6.87342 3.87671 9.00206L9.93823 19.501L9.93985 19.5018C9.32485 18.4378 9.00086 17.2306 9.00047 16.0015C9.00009 14.7725 9.32331 13.5651 9.93765 12.5007C10.5519 11.4361 11.4357 10.5522 12.5001 9.93771C13.5645 9.32323 14.7719 8.99992 16.0009 9.0003L16.0006 9.00044Z" fill="#E33B2E"/>
</svg>
