<svg width="32" height="32" viewBox="0 0 32 32" fill="none" xmlns="http://www.w3.org/2000/svg">
<path fill-rule="evenodd" clip-rule="evenodd" d="M29 15.5896C29 22.5426 23.1797 28.1791 16 28.1791C14.6754 28.1791 13.397 27.9873 12.193 27.6307L9.36588 28.8821C8.4616 29.2824 7.44737 28.6145 7.44737 27.6188V25.0711C4.72168 22.7634 3 19.3712 3 15.5896C3 8.63654 8.8203 3 16 3C23.1797 3 29 8.63654 29 15.5896ZM9.11723 18.0689L12.887 12.9133C13.285 12.369 14.0733 12.2509 14.6247 12.6531L17.4782 14.7347C17.8112 14.9777 18.2729 14.9731 18.6006 14.7236L22.0038 12.1328C22.558 11.7109 23.2905 12.3804 22.8805 12.9341L18.9269 18.2727C18.5272 18.8125 17.7425 18.9277 17.1935 18.5272L14.3307 16.4388C13.9992 16.197 13.5399 16.2003 13.2123 16.4469L9.99334 18.8693C9.43994 19.2858 8.71304 18.6217 9.11723 18.0689Z" fill="white" fill-opacity="0.68"/>
</svg>
