<svg width="36" height="36" viewBox="0 0 36 36" fill="none" xmlns="http://www.w3.org/2000/svg">
<g filter="url(#filter0_d_264_25812)">
<path d="M2 7C2 3.68629 4.68629 1 8 1H28C31.3137 1 34 3.68629 34 7V27C34 30.3137 31.3137 33 28 33H8C4.68629 33 2 30.3137 2 27V7Z" fill="white"/>
<g filter="url(#filter1_d_264_25812)">
<path d="M5.75 13.4611C5.75 10.4119 5.75 8.88735 6.34341 7.72272C6.86539 6.69828 7.69828 5.86539 8.72272 5.34341C9.88735 4.75 11.4119 4.75 14.4611 4.75H21.5389C24.5881 4.75 26.1127 4.75 27.2773 5.34341C28.3017 5.86539 29.1346 6.69828 29.6566 7.72272C30.25 8.88735 30.25 10.4119 30.25 13.4611V20.5389C30.25 23.5881 30.25 25.1127 29.6566 26.2773C29.1346 27.3017 28.3017 28.1346 27.2773 28.6566C26.1127 29.25 24.5881 29.25 21.5389 29.25H14.4611C11.4119 29.25 9.88735 29.25 8.72272 28.6566C7.69828 28.1346 6.86539 27.3017 6.34341 26.2773C5.75 25.1127 5.75 23.5881 5.75 20.5389V13.4611Z" fill="white"/>
<path d="M25.431 8.25H22.5861V12.3723H26.7489V9.41239C26.75 9.41239 26.5431 8.36242 25.431 8.25Z" fill="#1967D2"/>
<path d="M22.5872 25.7309V25.741V25.75L26.75 21.6276H26.7127L22.5872 25.7309Z" fill="#1967D2"/>
<path d="M26.7497 21.6275V21.5905L26.7127 21.6275H26.7497Z" fill="#FBBC05"/>
<path d="M26.75 12.3724H22.5872V21.5907H26.75V12.3724Z" fill="#FBBC05"/>
<path d="M26.7127 21.6276H22.5872V25.7309L26.7127 21.6276Z" fill="#EA4335"/>
<path d="M22.5872 21.6275H26.7127L26.75 21.5905H22.5872V21.6275Z" fill="#EA4335"/>
<path d="M22.577 25.741H22.5871V25.731L22.577 25.741Z" fill="#34A853"/>
<path d="M13.319 21.5905V25.741H22.577L22.5872 21.5905H13.319Z" fill="#34A853"/>
<path d="M22.5871 21.6276V21.5905L22.577 25.741L22.5871 25.7308V21.6276Z" fill="#34A853"/>
<path d="M9.25 21.5905V24.4763C9.2873 25.4127 10.3 25.741 10.3 25.741H13.319V21.5905H9.25Z" fill="#188038"/>
<path d="M13.319 12.3725H22.5872V8.25012H10.4176C10.4176 8.25012 9.3246 8.36254 9.25 9.52381V21.5907H13.319V12.3725Z" fill="#4285F4"/>
<path d="M16.3511 19.7247C16.1391 19.7247 15.9346 19.6971 15.7377 19.6418C15.5459 19.5866 15.3692 19.5037 15.2076 19.3933C15.0461 19.2778 14.9022 19.1347 14.776 18.9639C14.6548 18.7932 14.5614 18.5949 14.4958 18.3689L15.4272 17.9999C15.4929 18.2509 15.6039 18.4417 15.7604 18.5723C15.917 18.6978 16.1138 18.7606 16.3511 18.7606C16.4571 18.7606 16.5581 18.7455 16.654 18.7154C16.75 18.6802 16.8333 18.6325 16.9039 18.5723C16.9746 18.512 17.0302 18.4417 17.0705 18.3614C17.116 18.276 17.1387 18.1806 17.1387 18.0752C17.1387 17.8542 17.0554 17.681 16.8888 17.5555C16.7272 17.4299 16.5026 17.3672 16.2148 17.3672H15.768V16.4709H16.177C16.2779 16.4709 16.3764 16.4583 16.4723 16.4332C16.5682 16.4081 16.6515 16.3704 16.7222 16.3202C16.7979 16.265 16.856 16.1972 16.8964 16.1169C16.9418 16.0315 16.9645 15.9336 16.9645 15.8231C16.9645 15.6524 16.9039 15.5143 16.7828 15.4089C16.6616 15.2984 16.4975 15.2432 16.2905 15.2432C16.0684 15.2432 15.8968 15.3034 15.7756 15.4239C15.6595 15.5394 15.5787 15.67 15.5333 15.8156L14.6245 15.4465C14.67 15.321 14.7381 15.1929 14.829 15.0624C14.9199 14.9268 15.0335 14.8063 15.1698 14.7009C15.3111 14.5904 15.4752 14.5025 15.662 14.4372C15.8488 14.3669 16.0634 14.3318 16.3057 14.3318C16.5531 14.3318 16.7777 14.3669 16.9797 14.4372C17.1867 14.5075 17.3634 14.6054 17.5098 14.731C17.6562 14.8515 17.7698 14.9971 17.8505 15.1678C17.9313 15.3335 17.9717 15.5143 17.9717 15.7101C17.9717 15.8608 17.9515 15.9964 17.9111 16.1169C17.8758 16.2374 17.8278 16.3453 17.7672 16.4407C17.7067 16.5361 17.636 16.619 17.5552 16.6893C17.4795 16.7546 17.4012 16.8073 17.3205 16.8475V16.9077C17.5628 17.0031 17.7622 17.1563 17.9187 17.3672C18.0803 17.5781 18.161 17.8442 18.161 18.1656C18.161 18.3915 18.1181 18.5999 18.0323 18.7907C17.9465 18.9765 17.8228 19.1397 17.6612 19.2803C17.5047 19.4209 17.3154 19.5288 17.0933 19.6042C16.8711 19.6845 16.6238 19.7247 16.3511 19.7247Z" fill="#4285F4"/>
<path d="M19.9695 19.6042V15.6122L19.0531 15.9964L18.6897 15.1603L20.2118 14.4523H20.9615V19.6042H19.9695Z" fill="#4285F4"/>
</g>
</g>
<defs>
<filter id="filter0_d_264_25812" x="0" y="0" width="36" height="36" filterUnits="userSpaceOnUse" color-interpolation-filters="sRGB">
<feFlood flood-opacity="0" result="BackgroundImageFix"/>
<feColorMatrix in="SourceAlpha" type="matrix" values="0 0 0 0 0 0 0 0 0 0 0 0 0 0 0 0 0 0 127 0" result="hardAlpha"/>
<feOffset dy="1"/>
<feGaussianBlur stdDeviation="1"/>
<feColorMatrix type="matrix" values="0 0 0 0 0.0627451 0 0 0 0 0.0941176 0 0 0 0 0.156863 0 0 0 0.05 0"/>
<feBlend mode="normal" in2="BackgroundImageFix" result="effect1_dropShadow_264_25812"/>
<feBlend mode="normal" in="SourceGraphic" in2="effect1_dropShadow_264_25812" result="shape"/>
</filter>
<filter id="filter1_d_264_25812" x="2" y="2" width="32" height="32" filterUnits="userSpaceOnUse" color-interpolation-filters="sRGB">
<feFlood flood-opacity="0" result="BackgroundImageFix"/>
<feColorMatrix in="SourceAlpha" type="matrix" values="0 0 0 0 0 0 0 0 0 0 0 0 0 0 0 0 0 0 127 0" result="hardAlpha"/>
<feOffset dy="1"/>
<feGaussianBlur stdDeviation="1"/>
<feColorMatrix type="matrix" values="0 0 0 0 0.0627451 0 0 0 0 0.0941176 0 0 0 0 0.156863 0 0 0 0.05 0"/>
<feBlend mode="normal" in2="BackgroundImageFix" result="effect1_dropShadow_264_25812"/>
<feBlend mode="normal" in="SourceGraphic" in2="effect1_dropShadow_264_25812" result="shape"/>
</filter>
</defs>
</svg>
