<svg width="32" height="32" viewBox="0 0 32 32" fill="none" xmlns="http://www.w3.org/2000/svg">
<path d="M16.0084 29.665L21.5284 12.6763H10.4884L16.0084 29.665Z" fill="#E24329"/>
<path d="M16.0087 29.665L10.4887 12.6763H2.75256L16.0087 29.665Z" fill="#FC6D26"/>
<path d="M2.75225 12.6763L1.07482 17.839C0.921818 18.3098 1.08939 18.8257 1.48996 19.1167L16.0084 29.665L2.75225 12.6763Z" fill="#FCA326"/>
<path d="M2.75256 12.6763H10.4887L7.16399 2.44413C6.99299 1.91756 6.24813 1.9177 6.07713 2.44413L2.75256 12.6763Z" fill="#E24329"/>
<path d="M16.0095 29.665L21.5295 12.6763H29.2657L16.0095 29.665Z" fill="#FC6D26"/>
<path d="M29.2657 12.6763L30.9431 17.839C31.0961 18.3098 30.9285 18.8257 30.528 19.1167L16.0095 29.665L29.2657 12.6763Z" fill="#FCA326"/>
<path d="M29.2651 12.6763H21.5289L24.8536 2.44413C25.0246 1.91756 25.7695 1.9177 25.9405 2.44413L29.2651 12.6763Z" fill="#E24329"/>
</svg>
