<svg width="32" height="33" viewBox="0 0 32 33" fill="none" xmlns="http://www.w3.org/2000/svg">
<g filter="url(#filter0_d_264_25804)">
<path fill-rule="evenodd" clip-rule="evenodd" d="M2.67818 5.39739C2 6.7284 2 8.47078 2 11.9556V20.0444C2 23.5292 2 25.2716 2.67818 26.6026C3.27473 27.7734 4.22661 28.7253 5.39739 29.3218C6.7284 30 8.47078 30 11.9556 30H20.0444C23.5292 30 25.2716 30 26.6026 29.3218C27.7734 28.7253 28.7253 27.7734 29.3218 26.6026C30 25.2716 30 23.5292 30 20.0444V11.9556C30 8.47078 30 6.7284 29.3218 5.39739C28.7253 4.22661 27.7734 3.27473 26.6026 2.67818C25.2716 2 23.5292 2 20.0444 2H11.9556C8.47078 2 6.7284 2 5.39739 2.67818C4.22661 3.27473 3.27473 4.22661 2.67818 5.39739ZM19.0835 6.0979C18.9327 6.04884 18.7709 6.01637 18.5954 6.00757L13.5913 6.00751H13.4084C13.2342 6.01506 13.0712 6.04758 12.9205 6.0979C11.8999 6.43379 11.4316 7.57985 11.4316 7.57985L5.10911 18.7348C5.02014 19.0845 4.99543 19.4003 5.00655 19.6783H11.9073L16.0019 12.451L20.0967 19.6784H11.9084L5.00766 19.6783C5.04226 20.4986 5.39838 20.9779 5.39838 20.9779L5.65786 21.4282C5.67639 21.4547 5.68751 21.4698 5.68751 21.4698L6.25217 22.4611L7.51989 24.6677C7.55695 24.757 7.6002 24.8387 7.64592 24.9167C7.65227 24.9264 7.65845 24.9365 7.66465 24.9465L7.66466 24.9466L7.66467 24.9466C7.67535 24.9639 7.68609 24.9813 7.69781 24.9973L7.71264 25.0199C7.86956 25.2413 8.04501 25.4124 8.22047 25.547C8.36577 25.6559 8.47499 25.7102 8.48741 25.7163L8.48709 25.7168C8.48709 25.7168 8.37339 25.6617 8.21895 25.5472C8.70453 25.9208 9.17655 25.9999 9.17655 25.9999H22.6136C23.3549 25.9999 23.5094 25.7168 23.5094 25.7168C23.5106 25.7162 23.5115 25.7156 23.5124 25.715L23.5125 25.715L23.5149 25.7135L23.5168 25.7168C23.5168 25.7168 23.6305 25.6628 23.7849 25.547C23.9604 25.4124 24.1358 25.2413 24.2927 25.0199L24.3076 24.9973C24.3193 24.9814 24.33 24.9639 24.3407 24.9466L24.3407 24.9465C24.3469 24.9365 24.3531 24.9264 24.3595 24.9167C24.4052 24.8387 24.4484 24.757 24.4855 24.6677L25.7532 22.4611L26.3179 21.4698C26.3179 21.4698 26.329 21.4547 26.3475 21.4282L26.607 20.9779C26.607 20.9779 26.9628 20.4985 26.9974 19.6783C27.0085 19.4003 26.9838 19.0845 26.8949 18.7348L20.5724 7.57985C20.5724 7.57985 20.1028 6.43379 19.0835 6.0979ZM12.5412 6.34321C12.6561 6.22622 12.7895 6.14948 12.9205 6.0979C12.7883 6.14948 12.6561 6.22622 12.5412 6.34321Z" fill="white"/>
</g>
<defs>
<filter id="filter0_d_264_25804" x="-2" y="-1" width="36" height="36" filterUnits="userSpaceOnUse" color-interpolation-filters="sRGB">
<feFlood flood-opacity="0" result="BackgroundImageFix"/>
<feColorMatrix in="SourceAlpha" type="matrix" values="0 0 0 0 0 0 0 0 0 0 0 0 0 0 0 0 0 0 127 0" result="hardAlpha"/>
<feOffset dy="1"/>
<feGaussianBlur stdDeviation="1"/>
<feColorMatrix type="matrix" values="0 0 0 0 0.0627451 0 0 0 0 0.0941176 0 0 0 0 0.156863 0 0 0 0.05 0"/>
<feBlend mode="normal" in2="BackgroundImageFix" result="effect1_dropShadow_264_25804"/>
<feBlend mode="normal" in="SourceGraphic" in2="effect1_dropShadow_264_25804" result="shape"/>
</filter>
</defs>
</svg>
