<svg width="32" height="32" viewBox="0 0 32 32" fill="none" xmlns="http://www.w3.org/2000/svg">
<path d="M0 6C0 2.68629 2.68629 0 6 0H26C29.3137 0 32 2.68629 32 6V26C32 29.3137 29.3137 32 26 32H6C2.68629 32 0 29.3137 0 26V6Z" fill="white"/>
<path d="M27.3761 16.2527C27.3761 15.3174 27.2987 14.6349 27.1311 13.9271H16.2333V18.1485H22.63C22.5011 19.1975 21.8047 20.7774 20.2571 21.839L20.2354 21.9803L23.681 24.5963L23.9198 24.6196C26.1122 22.6353 27.3761 19.7157 27.3761 16.2527" fill="#4285F4"/>
<path d="M16.2326 27.375C19.3664 27.375 21.9973 26.3638 23.919 24.6197L20.2563 21.839C19.2762 22.5089 17.9607 22.9766 16.2326 22.9766C13.1631 22.9766 10.558 20.9923 9.62936 18.2496L9.49324 18.261L5.91038 20.9784L5.86353 21.106C7.77223 24.8218 11.6929 27.375 16.2326 27.375Z" fill="#34A853"/>
<path d="M9.63001 18.2497C9.38498 17.5419 9.24317 16.7836 9.24317 16C9.24317 15.2163 9.38498 14.458 9.61712 13.7503L9.61063 13.5995L5.98286 10.8385L5.86416 10.8938C5.07749 12.4358 4.6261 14.1674 4.6261 16C4.6261 17.8326 5.07749 19.5641 5.86416 21.1061L9.63001 18.2497" fill="#FBBC05"/>
<path d="M16.2326 9.0233C18.4122 9.0233 19.8824 9.94594 20.7207 10.717L23.9965 7.5825C21.9846 5.74987 19.3665 4.625 16.2326 4.625C11.6929 4.625 7.77224 7.17804 5.86353 10.8938L9.61649 13.7503C10.558 11.0076 13.1632 9.0233 16.2326 9.0233" fill="#EB4335"/>
</svg>
