<svg width="36" height="36" viewBox="0 0 36 36" fill="none" xmlns="http://www.w3.org/2000/svg">
<g filter="url(#filter0_d_264_25814)">
<path d="M2 7C2 3.68629 4.68629 1 8 1H28C31.3137 1 34 3.68629 34 7V27C34 30.3137 31.3137 33 28 33H8C4.68629 33 2 30.3137 2 27V7Z" fill="white"/>
<g filter="url(#filter1_d_264_25814)">
<path d="M5.75 13.4611C5.75 10.4119 5.75 8.88735 6.34341 7.72272C6.86539 6.69828 7.69828 5.86539 8.72272 5.34341C9.88735 4.75 11.4119 4.75 14.4611 4.75H21.5389C24.5881 4.75 26.1127 4.75 27.2773 5.34341C28.3017 5.86539 29.1346 6.69828 29.6566 7.72272C30.25 8.88735 30.25 10.4119 30.25 13.4611V20.5389C30.25 23.5881 30.25 25.1127 29.6566 26.2773C29.1346 27.3017 28.3017 28.1346 27.2773 28.6566C26.1127 29.25 24.5881 29.25 21.5389 29.25H14.4611C11.4119 29.25 9.88735 29.25 8.72272 28.6566C7.69828 28.1346 6.86539 27.3017 6.34341 26.2773C5.75 25.1127 5.75 23.5881 5.75 20.5389V13.4611Z" fill="white"/>
<path d="M8.375 23.615C8.375 24.3111 8.94373 24.875 9.64446 24.875H9.6627C8.95125 24.875 8.375 24.3111 8.375 23.615Z" fill="#FBBC05"/>
<path d="M19.284 13.85V17.1396L23.7191 13.5623V10.385C23.7191 9.68885 23.1504 9.125 22.4497 9.125H12.8412L12.8326 13.85H19.284Z" fill="#FBBC05"/>
<path d="M19.284 20.4306H12.8219L12.8144 24.8753H22.4496C23.1514 24.8753 23.7191 24.3114 23.7191 23.6153V20.7467L19.284 17.141V20.4306V20.4306Z" fill="#34A853"/>
<path d="M12.8412 9.125L8.375 13.85H12.8337L12.8412 9.125Z" fill="#EA4335"/>
<path d="M8.375 20.4304V23.615C8.375 24.3111 8.95125 24.875 9.66271 24.875H12.8144L12.8219 20.4304H8.375V20.4304Z" fill="#1967D2"/>
<path d="M12.8337 13.85H8.375V20.4303H12.8219L12.8337 13.85Z" fill="#4285F4"/>
<path d="M27.6187 22.4949V11.68C27.3686 10.2446 25.7944 11.89 25.7944 11.89L23.7202 13.5626V20.7456L26.6894 23.1596C27.7614 23.3003 27.6187 22.4949 27.6187 22.4949Z" fill="#34A853"/>
<path d="M19.284 17.1396L23.7201 20.7464V13.5634L19.284 17.1396Z" fill="#188038"/>
</g>
</g>
<defs>
<filter id="filter0_d_264_25814" x="0" y="0" width="36" height="36" filterUnits="userSpaceOnUse" color-interpolation-filters="sRGB">
<feFlood flood-opacity="0" result="BackgroundImageFix"/>
<feColorMatrix in="SourceAlpha" type="matrix" values="0 0 0 0 0 0 0 0 0 0 0 0 0 0 0 0 0 0 127 0" result="hardAlpha"/>
<feOffset dy="1"/>
<feGaussianBlur stdDeviation="1"/>
<feColorMatrix type="matrix" values="0 0 0 0 0.0627451 0 0 0 0 0.0941176 0 0 0 0 0.156863 0 0 0 0.05 0"/>
<feBlend mode="normal" in2="BackgroundImageFix" result="effect1_dropShadow_264_25814"/>
<feBlend mode="normal" in="SourceGraphic" in2="effect1_dropShadow_264_25814" result="shape"/>
</filter>
<filter id="filter1_d_264_25814" x="2" y="2" width="32" height="32" filterUnits="userSpaceOnUse" color-interpolation-filters="sRGB">
<feFlood flood-opacity="0" result="BackgroundImageFix"/>
<feColorMatrix in="SourceAlpha" type="matrix" values="0 0 0 0 0 0 0 0 0 0 0 0 0 0 0 0 0 0 127 0" result="hardAlpha"/>
<feOffset dy="1"/>
<feGaussianBlur stdDeviation="1"/>
<feColorMatrix type="matrix" values="0 0 0 0 0.0627451 0 0 0 0 0.0941176 0 0 0 0 0.156863 0 0 0 0.05 0"/>
<feBlend mode="normal" in2="BackgroundImageFix" result="effect1_dropShadow_264_25814"/>
<feBlend mode="normal" in="SourceGraphic" in2="effect1_dropShadow_264_25814" result="shape"/>
</filter>
</defs>
</svg>
