<svg width="32" height="32" viewBox="0 0 32 32" fill="none" xmlns="http://www.w3.org/2000/svg">
<path fill-rule="evenodd" clip-rule="evenodd" d="M2.56293 4.69513C2 5.77882 2 7.20255 2 10.05V21.95C2 24.7975 2 26.2212 2.56293 27.3049C3.03731 28.2181 3.78191 28.9627 4.69513 29.4371C5.77882 30 7.20255 30 10.05 30H21.95C24.7975 30 26.2212 30 27.3049 29.4371C28.2181 28.9627 28.9627 28.2181 29.4371 27.3049C30 26.2212 30 24.7975 30 21.95V10.05C30 7.20255 30 5.77882 29.4371 4.69513C28.9627 3.78191 28.2181 3.03731 27.3049 2.56293C26.2212 2 24.7975 2 21.95 2H10.05C7.20255 2 5.77882 2 4.69513 2.56293C3.78191 3.03731 3.03731 3.78191 2.56293 4.69513ZM15.9986 7.69226C13.4829 7.69226 11.2285 8.81032 9.70508 10.5767L21.4218 22.2934C23.1882 20.77 24.3063 18.5156 24.3063 15.9999C24.3063 11.4118 20.5868 7.69226 15.9986 7.69226ZM8.36719 12.7175L19.2838 23.634C19.6808 23.463 20.0619 23.262 20.4241 23.0338L8.96744 11.5771C8.73919 11.9393 8.53819 12.3204 8.36719 12.7175ZM16.4626 24.295L7.70508 15.5375C7.73364 15.018 7.80983 14.5112 7.92952 14.0214L17.9788 24.0706C17.489 24.1903 16.9821 24.2665 16.4626 24.295ZM14.6209 24.1936L7.80664 17.3794C8.3887 20.8625 11.1378 23.6116 14.6209 24.1936Z" fill="white" fill-opacity="0.68"/>
</svg>
