<svg width="32" height="32" viewBox="0 0 32 32" fill="none" xmlns="http://www.w3.org/2000/svg">
<path fill-rule="evenodd" clip-rule="evenodd" d="M2.65396 5.27606C2 6.55953 2 8.23969 2 11.6V20.4C2 23.7603 2 25.4405 2.65396 26.7239C3.2292 27.8529 4.14708 28.7708 5.27606 29.346C6.55953 30 8.23969 30 11.6 30H20.4C23.7603 30 25.4405 30 26.7239 29.346C27.8529 28.7708 28.7708 27.8529 29.346 26.7239C30 25.4405 30 23.7603 30 20.4V11.6C30 8.23969 30 6.55953 29.346 5.27606C28.7708 4.14708 27.8529 3.2292 26.7239 2.65396C25.4405 2 23.7603 2 20.4 2H11.6C8.23969 2 6.55953 2 5.27606 2.65396C4.14708 3.2292 3.2292 4.14708 2.65396 5.27606ZM25 15.5C25 19.6421 20.9706 23 16 23C15.0803 23 14.1928 22.885 13.3571 22.6714C12.5211 23.2405 11.4021 23.7476 10 24C10.7415 23.3327 10.9881 22.4427 11.0702 21.7758C8.61889 20.4359 7 18.1255 7 15.5C7 11.3579 11.0294 8 16 8C20.9706 8 25 11.3579 25 15.5Z" fill="white" fill-opacity="0.68"/>
</svg>
