<svg width="32" height="32" viewBox="0 0 32 32" fill="none" xmlns="http://www.w3.org/2000/svg">
<path fill-rule="evenodd" clip-rule="evenodd" d="M2.27664 24.9331L5.716 29.2178C6.68399 30.4237 8.20733 31.0877 9.78333 30.9907L27.4876 29.9009C29.4626 29.7793 31 28.1958 31 26.2832V8.64426C31 7.46099 30.4025 6.35219 29.3992 5.67391L23.7948 1.8847C22.8428 1.24109 21.691 0.933062 20.5321 1.01218L4.58071 2.10125C2.56359 2.23897 1 3.86064 1 5.81499V21.3299C1 22.6346 1.44913 23.9023 2.27664 24.9331ZM4.72347 4.05585L20.6749 2.96678C21.3702 2.91931 22.0613 3.10413 22.6325 3.49029L28.2369 7.27951C28.6979 7.59115 28.9724 8.10059 28.9724 8.64426V26.2832C28.9724 27.1619 28.266 27.8895 27.3586 27.9454L9.65435 29.0352C8.74899 29.0909 7.87388 28.7094 7.3178 28.0167L3.87843 23.7321C3.32676 23.0448 3.02734 22.1997 3.02734 21.3299V5.81499C3.02734 4.88925 3.76799 4.12109 4.72347 4.05585ZM5.6769 5.53056C5.3982 5.55055 5.29261 5.89274 5.51447 6.057L7.73701 7.7025C8.12193 7.98747 8.59977 8.12969 9.08387 8.10336L25.0803 7.23338C25.2228 7.22563 25.2767 7.04965 25.1617 6.96813L22.1309 4.82088C21.7417 4.54512 21.2635 4.41259 20.7822 4.44711L5.6769 5.53056ZM9.29027 9.85253C8.75341 9.88177 8.33357 10.311 8.33357 10.8307V26.0415C8.33357 26.6052 8.8246 27.0527 9.40688 27.0195L26.2126 26.0633C26.7484 26.0328 27.1667 25.604 27.1667 25.0853V9.81182C27.1667 9.30534 26.7263 8.90296 26.203 8.93145L9.29027 9.85253ZM11.2481 13.3756V13.5787L12.6103 13.6552V23.6363L12.0869 23.6913C11.5701 23.7456 11.1955 24.1927 11.2481 24.6926L15.227 24.5155C15.7124 24.4939 16.1137 24.1423 16.1836 23.6775L16.2058 23.5291L14.6061 23.223V15.7372L19.8036 23.5803C20.3124 24.348 21.3018 24.6752 22.1906 24.3695L23.2544 24.0037V12.798L24.1021 12.6546C24.3446 12.6136 24.5216 12.41 24.5216 12.1721V11.6652L20.9991 11.8456C20.4608 11.8732 20.039 12.303 20.039 12.824V12.9204L21.417 13.1041V20.0235L16.0633 12.1397L12.192 12.3982C11.6605 12.4337 11.2481 12.8607 11.2481 13.3756Z" fill="white"/>
</svg>
