<svg width="32" height="32" viewBox="0 0 32 32" fill="none" xmlns="http://www.w3.org/2000/svg">
<path fill-rule="evenodd" clip-rule="evenodd" d="M2.65396 5.27606C2 6.55953 2 8.23969 2 11.6V20.4C2 23.7603 2 25.4405 2.65396 26.7239C3.2292 27.8529 4.14708 28.7708 5.27606 29.346C6.55953 30 8.23969 30 11.6 30H20.4C23.7603 30 25.4405 30 26.7239 29.346C27.8529 28.7708 28.7708 27.8529 29.346 26.7239C30 25.4405 30 23.7603 30 20.4V11.6C30 8.23969 30 6.55953 29.346 5.27606C28.7708 4.14708 27.8529 3.2292 26.7239 2.65396C25.4405 2 23.7603 2 20.4 2H11.6C8.23969 2 6.55953 2 5.27606 2.65396C4.14708 3.2292 3.2292 4.14708 2.65396 5.27606ZM7 11.4286C7 10.6396 7.56711 10 8.26667 10L15.5 10C17.2839 10 19 11.4881 19 13.5V20.5C19 21.289 18.4329 21.9286 17.7333 21.9286L10.23 22C8.44612 22 7 20.369 7 18.3571V11.4286ZM20 14.5C20 13.8211 20.2596 13.1752 20.7122 12.7276L23.5288 10.3832C24.1019 9.81653 25 10.2755 25 11.1352V20.9005C25 21.7601 24.1019 22.2191 23.5288 21.6525L20.7122 19.1717C20.2596 18.7242 20 18.0782 20 17.3993V14.5Z" fill="white" fill-opacity="0.68"/>
</svg>
