<svg width="249" height="248" viewBox="0 0 249 248" fill="none" xmlns="http://www.w3.org/2000/svg">
<rect width="248" height="248" transform="translate(0.5)" fill="white"/>
<path fill-rule="evenodd" clip-rule="evenodd" d="M134.397 19.2166C135.426 20.2918 136.409 21.4141 137.44 22.4845C137.81 22.8685 138.347 23.4272 138.861 23.6134C139.372 23.7987 140.131 23.7114 140.658 23.6518C142.12 23.4867 143.578 23.2515 145.044 23.0835L147.807 22.7658L145.855 24.7472C144.853 25.7657 143.799 26.7363 142.803 27.7549C142.441 28.1254 141.935 28.6429 141.779 29.1517C141.616 29.6845 141.735 30.4918 141.813 31.0313C142.032 32.5472 142.318 34.0573 142.54 35.5769L142.983 38.6153L140.86 36.3978C139.829 35.3226 138.847 34.2003 137.816 33.1299C137.447 32.7459 136.909 32.1872 136.396 32.0009C135.885 31.8157 135.125 31.903 134.598 31.9625C133.136 32.1277 131.677 32.3629 130.212 32.5318L127.449 32.8496L129.4 30.8682C130.403 29.8496 131.456 28.879 132.453 27.8605C132.816 27.4899 133.321 26.9725 133.476 26.4637C133.639 25.9309 133.52 25.1245 133.443 24.5849C133.224 23.0681 132.938 21.5581 132.716 20.0384L132.272 17L134.397 19.2176V19.2166Z" fill="#868C98"/>
<path fill-rule="evenodd" clip-rule="evenodd" d="M133.687 19.8963C139.337 25.7965 137.117 24.9824 145.156 24.0589C139.648 29.6509 140.352 27.3939 141.567 35.719C135.917 29.8189 138.137 30.6329 130.099 31.5565C135.606 25.9645 134.903 28.2214 133.687 19.8953V19.8963Z" fill="#FEFEFE"/>
<path fill-rule="evenodd" clip-rule="evenodd" d="M164.74 72.8787H172.311C180.617 72.8787 187.413 79.6746 187.413 87.9805V180.714C187.413 189.02 180.617 195.815 172.311 195.815H55.815C47.5091 195.815 40.7133 189.02 40.7133 180.714V174.821C41.2038 175.004 41.7078 175.159 42.2243 175.28V180.714C42.2243 188.189 48.3395 194.304 55.815 194.304H172.311C179.786 194.304 185.902 188.189 185.902 180.714V87.9805C185.902 80.5059 179.787 74.3898 172.311 74.3898H165.19C165.071 73.8733 164.921 73.3683 164.74 72.8778V72.8787Z" fill="#868C98"/>
<path fill-rule="evenodd" clip-rule="evenodd" d="M165.19 74.3907H172.311C179.786 74.3907 185.902 80.5069 185.902 87.9814V180.715C185.902 188.19 179.787 194.305 172.311 194.305H55.815C48.3405 194.305 42.2243 188.19 42.2243 180.715V175.281C43.1469 175.498 44.1069 175.613 45.0918 175.613H152.927C159.845 175.613 165.507 169.951 165.507 163.033V77.1949C165.507 76.232 165.396 75.2931 165.189 74.3917L165.19 74.3907Z" fill="#EEEEEF"/>
<path fill-rule="evenodd" clip-rule="evenodd" d="M45.0918 63.1021H152.927C160.678 63.1021 167.019 69.4438 167.019 77.1939V163.032C167.019 170.783 160.677 177.124 152.927 177.124H45.0918C37.3408 177.124 31 170.782 31 163.032V77.1939C31 69.4429 37.3418 63.1021 45.0918 63.1021ZM45.0918 64.6141H152.927C159.845 64.6141 165.507 70.2762 165.507 77.1939V163.032C165.507 169.951 159.845 175.612 152.927 175.612H45.0918C38.1731 175.612 32.512 169.95 32.512 163.032V77.1939C32.512 70.2752 38.1731 64.6141 45.0918 64.6141Z" fill="#868C98"/>
<path fill-rule="evenodd" clip-rule="evenodd" d="M165.507 95.2362V163.95C165.507 170.869 159.845 176.53 152.927 176.53H45.0918C38.1731 176.53 32.512 170.868 32.512 163.95V95.2362H165.507H165.507Z" fill="#FEFEFE"/>
<path fill-rule="evenodd" clip-rule="evenodd" d="M167.019 77.1939V96.7482H31V77.1939C31 69.441 37.3389 63.1021 45.0918 63.1021H152.927C160.68 63.1021 167.019 69.441 167.019 77.1939ZM165.507 77.1939V95.2362H32.511V77.1939C32.511 70.2752 38.1722 64.6141 45.0909 64.6141H152.926C159.844 64.6141 165.506 70.2762 165.506 77.1939H165.507Z" fill="#868C98"/>
<path fill-rule="evenodd" clip-rule="evenodd" d="M165.507 77.1939V95.2362H32.511V77.1939C32.511 70.2752 38.1721 64.6141 45.0908 64.6141H152.926C159.844 64.6141 165.506 70.2762 165.506 77.1939H165.507Z" fill="#CDD0D5"/>
<path d="M70.0595 119.243H48.2598C47.1597 119.243 46.2601 118.343 46.2601 117.243V103.643C46.2601 102.543 47.1597 101.643 48.2598 101.643H70.0595C71.1597 101.643 72.0592 102.543 72.0592 103.643V117.143C72.0592 118.343 71.1597 119.243 70.0595 119.243Z" fill="#E2E4E9"/>
<path d="M110.16 119.243H88.36C87.2598 119.243 86.3603 118.343 86.3603 117.243V103.643C86.3603 102.543 87.2598 101.643 88.36 101.643H110.06C111.16 101.643 112.059 102.543 112.059 103.643V117.143C112.159 118.343 111.26 119.243 110.159 119.243H110.16Z" fill="#E2E4E9"/>
<path d="M150.059 119.243H128.359C127.259 119.243 126.36 118.343 126.36 117.243V103.643C126.36 102.543 127.259 101.643 128.359 101.643H150.059C151.159 101.643 152.059 102.543 152.059 103.643V117.143C152.059 118.343 151.159 119.243 150.059 119.243Z" fill="#E2E4E9"/>
<path d="M150.059 145.342H128.359C127.259 145.342 126.36 144.443 126.36 143.343V129.842C126.36 128.742 127.259 127.843 128.359 127.843H150.059C151.159 127.843 152.059 128.742 152.059 129.842V143.343C152.059 144.443 151.159 145.342 150.059 145.342Z" fill="#E2E4E9"/>
<path d="M110.16 145.342H88.36C87.2598 145.342 86.3603 144.443 86.3603 143.343V129.842C86.3603 128.742 87.2598 127.843 88.36 127.843H110.06C111.16 127.843 112.059 128.742 112.059 129.842V143.343C112.159 144.443 111.26 145.342 110.159 145.342H110.16Z" fill="#E2E4E9"/>
<path d="M69.76 145.342H47.9594C46.8592 145.342 45.9597 144.443 45.9597 143.343V129.842C45.9597 128.742 46.8592 127.843 47.9594 127.843H69.6592C70.7594 127.843 71.6589 128.742 71.6589 129.842V143.343C71.7588 144.443 70.8592 145.342 69.7591 145.342H69.76Z" fill="#E2E4E9"/>
<path d="M150.059 170.742H128.359C127.259 170.742 126.36 169.843 126.36 168.742V155.242C126.36 154.142 127.259 153.242 128.359 153.242H150.059C151.159 153.242 152.059 154.142 152.059 155.242V168.742C152.059 169.843 151.159 170.742 150.059 170.742Z" fill="#E2E4E9"/>
<path d="M110.16 170.742H88.36C87.2598 170.742 86.3603 169.843 86.3603 168.742V155.242C86.3603 154.142 87.2598 153.242 88.36 153.242H110.06C111.16 153.242 112.059 154.142 112.059 155.242V168.742C112.159 169.843 111.26 170.742 110.159 170.742H110.16Z" fill="#E2E4E9"/>
<path d="M69.76 170.742H47.9594C46.8592 170.742 45.9597 169.843 45.9597 168.742V155.242C45.9597 154.142 46.8592 153.242 47.9594 153.242H69.6592C70.7594 153.242 71.6589 154.142 71.6589 155.242V168.742C71.7588 169.843 70.8592 170.742 69.7591 170.742H69.76Z" fill="#E2E4E9"/>
<path d="M94.3293 114.673L98.3978 110.443L94.3302 106.212C94.1056 105.979 94.1133 105.604 94.3466 105.38C94.5799 105.156 94.9542 105.164 95.1789 105.397L99.2147 109.594L103.251 105.397C103.475 105.164 103.85 105.156 104.083 105.38C104.316 105.604 104.324 105.979 104.099 106.212L100.032 110.443L104.1 114.673C104.325 114.907 104.317 115.281 104.084 115.505C103.851 115.728 103.476 115.722 103.252 115.488L99.2157 111.291L95.1789 115.488C94.9552 115.722 94.5808 115.728 94.3466 115.505C94.1133 115.281 94.1066 114.907 94.3302 114.673H94.3293Z" fill="#868C98"/>
<path d="M94.3293 140.823L98.3978 136.592L94.3302 132.361C94.1056 132.128 94.1133 131.754 94.3466 131.53C94.5799 131.305 94.9542 131.313 95.1789 131.546L99.2147 135.743L103.251 131.546C103.475 131.313 103.85 131.305 104.083 131.53C104.316 131.754 104.324 132.128 104.099 132.361L100.032 136.592L104.1 140.823C104.325 141.056 104.317 141.43 104.084 141.654C103.851 141.878 103.476 141.871 103.252 141.638L99.2157 137.441L95.1789 141.638C94.9552 141.871 94.5808 141.878 94.3466 141.654C94.1133 141.43 94.1066 141.056 94.3302 140.823H94.3293Z" fill="#868C98"/>
<path d="M53.9286 140.823L57.9971 136.592L53.9296 132.361C53.7049 132.128 53.7126 131.754 53.9459 131.53C54.1791 131.305 54.5535 131.313 54.7782 131.546L58.814 135.743L62.8499 131.546C63.0745 131.313 63.4489 131.305 63.6822 131.53C63.9155 131.754 63.9232 132.128 63.6985 132.361L59.631 136.592L63.6995 140.823C63.9241 141.056 63.9164 141.43 63.6831 141.654C63.4499 141.878 63.0755 141.871 62.8508 141.638L58.815 137.441L54.7782 141.638C54.5545 141.871 54.1801 141.878 53.9459 141.654C53.7126 141.43 53.7059 141.056 53.9296 140.823H53.9286Z" fill="#868C98"/>
<path d="M53.9286 166.222L57.9971 161.992L53.9296 157.761C53.7049 157.528 53.7126 157.153 53.9459 156.93C54.1791 156.705 54.5535 156.713 54.7782 156.946L58.814 161.143L62.8499 156.946C63.0745 156.713 63.4489 156.705 63.6822 156.93C63.9155 157.153 63.9232 157.528 63.6985 157.761L59.631 161.992L63.6995 166.222C63.9241 166.456 63.9164 166.83 63.6831 167.054C63.4499 167.277 63.0755 167.271 62.8508 167.037L58.815 162.84L54.7782 167.037C54.5545 167.271 54.1801 167.277 53.9459 167.054C53.7126 166.83 53.7059 166.456 53.9296 166.222H53.9286Z" fill="#868C98"/>
<path d="M49.4953 64.1821C49.4953 71.1747 54.1494 76.8666 59.9536 77.0662C61.4598 77.1066 62.5686 76.1485 62.5686 74.6038C62.5686 73.2618 61.6048 72.175 60.4173 72.175C56.1145 72.175 53.5638 68.2006 53.5638 64.1821C53.5638 59.7517 56.5792 56.1593 60.2694 56.1593C63.9597 56.1593 66.9309 59.4032 66.9731 63.7885H71.0416C70.9984 56.7142 66.2061 51.2912 60.2685 51.2912C54.3318 51.2912 49.4944 57.0627 49.4944 64.1811L49.4953 64.1821Z" fill="#868C98"/>
<path d="M88.2775 64.1821C88.2775 71.1747 92.9316 76.8666 98.7357 77.0662C100.241 77.1066 101.351 76.1485 101.351 74.6038C101.351 73.2618 100.387 72.175 99.1994 72.175C94.8967 72.175 92.346 68.2006 92.346 64.1821C92.346 59.7517 95.3613 56.1593 99.0516 56.1593C102.742 56.1593 105.713 59.4032 105.756 63.7885H109.825C109.781 56.7142 104.988 51.2912 99.0516 51.2912C93.1149 51.2912 88.2775 57.0627 88.2775 64.1811V64.1821Z" fill="#868C98"/>
<path d="M126.976 64.1821C126.976 71.1747 131.63 76.8666 137.434 77.0663C138.94 77.1066 140.049 76.1485 140.049 74.6039C140.049 73.2618 139.085 72.175 137.898 72.175C133.595 72.175 131.044 68.2007 131.044 64.1821C131.044 59.7517 134.06 56.1593 137.75 56.1593C141.44 56.1593 144.412 59.169 144.455 63.5552L148.523 63.8346C148.48 56.7603 143.688 51.2922 137.75 51.2922C131.813 51.2922 126.976 57.0637 126.976 64.1821Z" fill="#868C98"/>
<path fill-rule="evenodd" clip-rule="evenodd" d="M169.338 134.036C171.711 134.036 174.031 134.265 176.279 134.696C194.874 136.471 209.418 152.132 209.418 171.193C209.418 191.444 193.002 207.86 172.752 207.86C170.07 207.86 167.458 207.57 164.94 207.022C146.786 204.85 132.712 189.401 132.712 170.661C132.712 150.434 149.11 134.036 169.337 134.036H169.338Z" fill="#868C98"/>
<path d="M169.338 205.775C188.73 205.775 204.451 190.055 204.451 170.662C204.451 151.27 188.73 135.549 169.338 135.549C149.946 135.549 134.225 151.27 134.225 170.662C134.225 190.055 149.946 205.775 169.338 205.775Z" fill="#E2E4E9"/>
<path d="M169.338 199.48C185.254 199.48 198.156 186.577 198.156 170.661C198.156 154.746 185.254 141.843 169.338 141.843C153.422 141.843 140.52 154.746 140.52 170.661C140.52 186.577 153.422 199.48 169.338 199.48Z" fill="#868C98"/>
<path d="M169.338 197.969C184.419 197.969 196.644 185.743 196.644 170.662C196.644 155.582 184.419 143.356 169.338 143.356C154.257 143.356 142.032 155.582 142.032 170.662C142.032 185.743 154.257 197.969 169.338 197.969Z" fill="#FEFEFE"/>
<path fill-rule="evenodd" clip-rule="evenodd" d="M188.883 124.514C192.791 120.612 198.377 118.94 203.805 119.814C212.746 121.254 219.471 129.417 218 138.551C217.558 141.302 216.397 143.856 214.63 146.009L214.003 146.772L213.049 146.517C201.988 143.569 194.111 136.254 188.626 126.342L188.067 125.33L188.884 124.513L188.883 124.514ZM189.967 125.6C195.671 135.905 203.496 142.384 213.443 145.035C214.995 143.147 216.074 140.86 216.485 138.307C217.777 130.288 211.99 122.686 203.561 121.329C198.341 120.488 193.332 122.24 189.968 125.6H189.967Z" fill="#868C98"/>
<path fill-rule="evenodd" clip-rule="evenodd" d="M189.967 125.6C195.671 135.905 203.496 142.384 213.443 145.035C214.995 143.147 216.074 140.86 216.484 138.307C217.776 130.288 211.99 122.686 203.56 121.329C198.34 120.489 193.332 122.24 189.967 125.6Z" fill="#DCDDDD"/>
<path fill-rule="evenodd" clip-rule="evenodd" d="M160.257 122.572C154.097 132.079 145.731 138.829 134.492 141.001L133.522 141.188L132.95 140.383C131.336 138.113 130.356 135.484 130.106 132.71C129.272 123.495 136.549 115.82 145.568 115.004C151.043 114.509 156.499 116.565 160.127 120.73L160.886 121.602L160.257 122.572ZM158.97 121.738C152.565 131.622 144.309 137.541 134.201 139.495C132.785 137.503 131.867 135.147 131.634 132.573C130.903 124.483 137.204 117.302 145.707 116.533C150.972 116.057 155.847 118.152 158.97 121.738Z" fill="#868C98"/>
<path fill-rule="evenodd" clip-rule="evenodd" d="M158.97 121.738C152.565 131.622 144.309 137.541 134.201 139.496C132.785 137.504 131.867 135.148 131.634 132.573C130.903 124.484 137.204 117.303 145.707 116.534C150.972 116.058 155.847 118.153 158.97 121.739V121.738Z" fill="#DCDDDD"/>
<path d="M159.105 178.296H179.557C179.843 178.296 180.077 178.53 180.077 178.816C180.077 179.102 179.842 179.335 179.557 179.335H159.105C158.819 179.335 158.586 179.102 158.586 178.816C158.586 178.53 158.819 178.296 159.105 178.296ZM151.997 170.34L155.589 166.603L151.997 162.868C151.799 162.662 151.805 162.332 152.011 162.134C152.217 161.935 152.548 161.942 152.745 162.148L156.31 165.855C156.79 166.354 157.03 166.604 157.03 166.604C156.55 167.104 156.31 167.354 156.31 167.354L152.745 171.061C152.548 171.267 152.216 171.273 152.011 171.075C151.805 170.877 151.799 170.547 151.997 170.341V170.34ZM181.007 165.855L184.571 162.148C184.769 161.942 185.099 161.935 185.306 162.134C185.512 162.332 185.518 162.663 185.32 162.868L181.728 166.603L185.32 170.34C185.518 170.546 185.512 170.876 185.306 171.074C185.099 171.272 184.769 171.266 184.571 171.06L181.007 167.353C181.007 167.353 180.767 167.103 180.286 166.603C180.286 166.603 180.526 166.354 181.007 165.854V165.855Z" fill="#868C98"/>
<path fill-rule="evenodd" clip-rule="evenodd" d="M63.6678 209.601C64.1709 211.003 64.6106 212.427 65.1165 213.824C65.2979 214.325 65.561 215.055 65.9546 215.434C66.3453 215.811 67.0749 216.042 67.5798 216.202C68.9824 216.646 70.4099 217.026 71.8173 217.469L74.4697 218.304L71.8806 219.319C70.5501 219.841 69.1926 220.298 67.8669 220.823C67.3849 221.013 66.713 221.28 66.3635 221.682C65.9978 222.101 65.7769 222.887 65.6281 223.411C65.2105 224.885 64.8563 226.381 64.4397 227.859L63.6073 230.815L62.5706 227.924C62.0685 226.523 61.6278 225.097 61.1229 223.7C60.9414 223.199 60.6784 222.47 60.2848 222.091C59.8941 221.713 59.1645 221.483 58.6595 221.323C57.257 220.878 55.8294 220.499 54.4221 220.055L51.7696 219.22L54.3587 218.205C55.6893 217.683 57.0467 217.226 58.3715 216.701C58.8534 216.51 59.5254 216.244 59.8749 215.843C60.2416 215.423 60.4614 214.637 60.6102 214.113C61.0288 212.639 61.383 211.144 61.7987 209.665L62.631 206.709L63.6678 209.6V209.601Z" fill="#868C98"/>
<path fill-rule="evenodd" clip-rule="evenodd" d="M62.7433 209.931C65.5005 217.622 63.8051 215.973 71.5216 218.404C64.2141 221.268 65.776 219.494 63.495 227.591C60.7379 219.901 62.4342 221.549 54.7168 219.118C62.0243 216.255 60.4633 218.029 62.7433 209.931Z" fill="#FEFEFE"/>
</svg>
