<svg width="249" height="248" viewBox="0 0 249 248" fill="none" xmlns="http://www.w3.org/2000/svg">
<rect width="248" height="248" transform="translate(0.5)" fill="white"/>
<path d="M111.991 54.5219H38.1011C36.6707 54.5219 35.511 57.6702 35.511 61.5539V101.825C35.511 105.709 36.6707 108.857 38.1011 108.857H111.991C113.422 108.857 114.581 105.709 114.581 101.825V61.5539C114.581 57.6702 113.422 54.5219 111.991 54.5219Z" fill="#CDD0D5"/>
<path fill-rule="evenodd" clip-rule="evenodd" d="M146.375 65.9661H212.426C214.573 65.9661 216.33 67.7229 216.33 69.8704V111.96C216.33 114.107 214.573 115.864 212.426 115.864H206.428V82.1574C206.428 77.5561 202.662 73.791 198.061 73.791H142.47V69.8694C142.47 67.7219 144.227 65.9651 146.375 65.9651V65.9661Z" fill="#FEFEFE"/>
<path d="M206.428 152.253H213.807C217.691 152.253 220.869 155.43 220.869 159.315V195.089C220.869 198.973 217.691 202.151 213.807 202.151H101.685C97.8006 202.151 94.623 198.973 94.623 195.089V180.719H198.061C202.663 180.719 206.428 176.954 206.428 172.352V168.835V152.252V152.253Z" fill="#CDD0D5"/>
<path d="M203.296 73.792H51.4182C49.6888 73.792 48.2867 77.5377 48.2867 82.1584V172.352C48.2867 176.973 49.6888 180.719 51.4182 180.719H203.296C205.025 180.719 206.428 176.973 206.428 172.352V82.1584C206.428 77.5377 205.025 73.792 203.296 73.792Z" fill="#FEFEFE"/>
<path d="M70.6595 89.8432C72.2586 89.8432 73.5549 88.5469 73.5549 86.9478C73.5549 85.3488 72.2586 84.0525 70.6595 84.0525C69.0604 84.0525 67.7642 85.3488 67.7642 86.9478C67.7642 88.5469 69.0604 89.8432 70.6595 89.8432Z" fill="#E2E4E9"/>
<path d="M60.1984 89.8432C61.7975 89.8432 63.0937 88.5469 63.0937 86.9478C63.0937 85.3488 61.7975 84.0525 60.1984 84.0525C58.5993 84.0525 57.303 85.3488 57.303 86.9478C57.303 88.5469 58.5993 89.8432 60.1984 89.8432Z" fill="#E2E4E9"/>
<path d="M81.1984 89.8432C82.7975 89.8432 84.0937 88.5469 84.0937 86.9478C84.0937 85.3488 82.7975 84.0525 81.1984 84.0525C79.5993 84.0525 78.303 85.3488 78.303 86.9478C78.303 88.5469 79.5993 89.8432 81.1984 89.8432Z" fill="#E2E4E9"/>
<path fill-rule="evenodd" clip-rule="evenodd" d="M86.3872 98.6751C88.4003 99.3884 90.4393 100.032 92.4477 100.748C93.375 101.079 95.1328 101.596 95.1337 102.819C95.1337 104.042 93.376 104.559 92.4486 104.89C90.4403 105.606 88.4022 106.25 86.3891 106.963C75.5075 110.815 78.5353 110.815 67.6547 106.963C65.7654 106.294 63.8541 105.686 61.9657 105.022V109.995C62.3574 110.302 62.609 110.778 62.609 111.314C62.609 112.239 61.8592 112.989 60.9337 112.989C60.0083 112.989 59.2585 112.239 59.2585 111.314C59.2585 110.778 59.5101 110.301 59.9008 109.995V104.187C59.3469 103.863 58.9091 103.429 58.9091 102.819C58.9091 101.595 60.6669 101.078 61.5942 100.747C63.6026 100.031 65.6406 99.3875 67.6537 98.6742C78.5353 94.8217 75.5075 94.8217 86.3882 98.6742L86.3872 98.6751ZM89.2192 107.347V118.295C89.2192 119.191 88.4848 119.926 87.5882 119.926H66.4528C65.5561 119.926 64.8217 119.192 64.8217 118.295V107.346C65.7673 107.663 66.7129 107.98 67.6537 108.314C78.5344 112.166 75.5066 112.166 86.3882 108.314C87.328 107.98 88.2736 107.664 89.2192 107.347Z" fill="#868C98"/>
<path d="M107.897 110.032H140.16C141.025 110.032 141.732 110.74 141.732 111.604V114.65C141.732 115.515 141.025 116.222 140.16 116.222H107.897C107.032 116.222 106.324 115.515 106.324 114.65V111.604C106.324 110.739 107.032 110.032 107.897 110.032ZM107.897 99.4902H165.147C166.012 99.4902 166.719 100.198 166.719 101.063V104.108C166.719 104.974 166.012 105.68 165.147 105.68H107.897C107.032 105.68 106.324 104.973 106.324 104.108V101.063C106.324 100.197 107.032 99.4902 107.897 99.4902Z" fill="#E2E4E9"/>
<path fill-rule="evenodd" clip-rule="evenodd" d="M95.5254 127.206C104.729 127.206 112.189 134.667 112.189 143.869C112.189 153.073 104.729 160.533 95.5254 160.533C86.3229 160.533 78.8627 153.073 78.8627 143.869C78.8627 134.667 86.3229 127.206 95.5254 127.206ZM98.0147 133.076L98.0339 133.081L98.2825 133.141L98.2998 133.145L98.5177 133.204L98.5811 133.222L98.7482 133.272L98.8528 133.303L99.0141 133.356L99.1158 133.39L99.2253 133.428L99.4134 133.496L99.4326 133.503C99.5123 133.533 99.591 133.564 99.6697 133.595L99.6928 133.605C99.7696 133.636 99.8464 133.668 99.9232 133.701L99.9434 133.709C100.109 133.781 100.274 133.858 100.435 133.939L100.439 133.941C101.088 134.262 101.7 134.645 102.268 135.082C103.46 135.995 104.418 137.11 105.128 138.346L105.138 138.363L105.247 138.558L105.278 138.615L105.353 138.758L105.421 138.892L105.455 138.96L105.552 139.16L105.555 139.167C106.101 140.328 106.449 141.598 106.561 142.936L106.566 143.001L106.567 143.016L106.57 143.06C106.651 144.156 106.57 145.268 106.319 146.356L106.314 146.376C106.275 146.547 106.23 146.717 106.182 146.887L106.178 146.906L106.12 147.099L106.09 147.196L106.041 147.347L106.004 147.459L105.963 147.576L105.907 147.731L105.873 147.82L105.8 148.005L105.786 148.041L105.692 148.265L105.682 148.287L105.578 148.519L105.568 148.54C105.224 149.278 104.801 149.972 104.31 150.61C103.453 151.73 102.416 152.644 101.268 153.339L101.266 153.34C101.202 153.38 101.137 153.417 101.071 153.456L101.009 153.492L100.86 153.575L100.756 153.631L100.651 153.687L100.489 153.77L100.447 153.791C99.1677 154.428 97.7449 154.824 96.2425 154.92L96.1005 154.928L96.0745 154.929C95.1539 154.975 94.2256 154.908 93.3097 154.721L93.2781 154.714L93.0726 154.67L92.9939 154.652L92.8029 154.605L92.7337 154.588L92.5542 154.54L92.4554 154.512L92.3363 154.476L92.1674 154.424L92.1011 154.403L91.9034 154.337L91.8582 154.321L91.6413 154.242L91.6057 154.228C90.5545 153.83 89.5792 153.278 88.7075 152.597L88.697 152.589L88.6854 152.58L88.6163 152.524C87.5738 151.694 86.7165 150.706 86.056 149.618L86.0483 149.604L85.936 149.414L85.8995 149.352L85.817 149.203L85.7603 149.099L85.7046 148.994L85.6221 148.831L85.601 148.79C84.9635 147.509 84.568 146.088 84.472 144.585L84.4634 144.443L84.4624 144.417C84.4163 143.497 84.4835 142.566 84.6707 141.65L84.6765 141.623L84.7216 141.415L84.7398 141.337L84.7878 141.139L84.8022 141.08L84.855 140.885L84.8781 140.805L84.9184 140.669L84.9645 140.517L84.9933 140.429L85.0518 140.254L85.0739 140.189L85.1507 139.978L85.1574 139.961C85.5491 138.92 86.0944 137.954 86.7635 137.09L86.8019 137.04L86.8105 137.028L86.8115 137.027C87.7081 135.882 88.7939 134.957 89.9949 134.267L90.0217 134.251L90.2137 134.143L90.2704 134.113L90.4134 134.038L90.5469 133.97L90.615 133.936L90.8157 133.839L90.8224 133.836C91.9878 133.289 93.2637 132.939 94.6077 132.828L94.6576 132.823L94.672 132.822L94.721 132.82C95.8154 132.74 96.9251 132.82 98.0128 133.071L98.0147 133.076Z" fill="#E2E4E9"/>
<path fill-rule="evenodd" clip-rule="evenodd" d="M95.0944 127.211L94.9178 132.811C95.9488 132.753 96.9904 132.84 98.0147 133.075L98.0339 133.08L98.2826 133.14L98.2998 133.144L98.5178 133.203L98.5811 133.221L98.7482 133.271L98.8528 133.302L99.0141 133.355L99.1149 133.389L99.2243 133.427L99.4125 133.495L99.4317 133.503C99.5114 133.533 99.5901 133.563 99.6688 133.595L99.6918 133.605C99.7686 133.636 99.8454 133.668 99.9222 133.701L99.9424 133.709C100.108 133.781 100.273 133.858 100.434 133.939L100.438 133.941C101.087 134.262 101.699 134.644 102.268 135.082C103.406 135.954 104.332 137.011 105.031 138.182L110.081 135.752L110.079 135.748C109.95 135.518 109.816 135.291 109.677 135.068L109.652 135.028L109.516 134.815L109.367 134.588C109.171 134.296 108.964 134.011 108.751 133.732L108.72 133.69L108.568 133.496L108.539 133.461C108.441 133.338 108.341 133.217 108.24 133.097L108.206 133.057L108.042 132.867L108.028 132.85C107.918 132.725 107.807 132.604 107.693 132.483L107.667 132.453L107.491 132.269L107.473 132.25C107.353 132.127 107.231 132.006 107.108 131.886L107.098 131.877L106.916 131.704L106.881 131.671C106.762 131.561 106.641 131.452 106.519 131.344L106.496 131.324L106.319 131.171L106.256 131.118L106.085 130.975L105.874 130.804L105.872 130.803L105.708 130.675L105.598 130.59L105.452 130.48L105.443 130.473L105.222 130.313L105.066 130.203L104.938 130.114L104.789 130.013L104.775 130.003L104.548 129.853L104.416 129.77L104.24 129.66L104.12 129.587L103.886 129.449L103.721 129.355L103.558 129.264L103.383 129.169L103.37 129.161L103.127 129.033L103.02 128.979L102.814 128.877L102.688 128.816L102.419 128.691L102.386 128.676L102.384 128.675L102.367 128.668C102.267 128.623 102.166 128.578 102.063 128.535L101.96 128.492L101.683 128.379L101.638 128.36L101.621 128.354C101.519 128.313 101.416 128.274 101.313 128.236L101.181 128.188L100.978 128.117L100.816 128.062L100.527 127.968L100.419 127.934L100.12 127.845L100.082 127.833C99.9645 127.8 99.8464 127.768 99.7274 127.737L99.6285 127.712L99.3462 127.643L99.2694 127.625C99.1504 127.597 99.0314 127.571 98.9114 127.547L98.8403 127.533L98.5168 127.47L98.4544 127.459C98.3306 127.437 98.2077 127.416 98.0829 127.396L98.0234 127.388L97.7018 127.343L97.6154 127.331C97.4992 127.317 97.3821 127.303 97.265 127.291L97.2323 127.287L97.1901 127.283C97.0797 127.273 96.9693 127.263 96.8579 127.253L96.7725 127.247L96.4202 127.225L96.3021 127.219L96.0352 127.209L95.8912 127.205C95.7702 127.203 95.6502 127.201 95.5283 127.201H95.5216H95.5149H95.5082H95.5014C95.3805 127.201 95.2586 127.203 95.1376 127.205H95.1309H95.1174H95.1107H95.104H95.0982H95.0973L95.0944 127.211ZM97.6125 127.336C97.4963 127.322 97.3792 127.308 97.2621 127.296L97.6125 127.336Z" fill="#CDD0D5"/>
<path fill-rule="evenodd" clip-rule="evenodd" d="M159.189 127.206C168.392 127.206 175.852 134.667 175.852 143.869C175.852 153.073 168.392 160.533 159.189 160.533C149.986 160.533 142.526 153.073 142.526 143.869C142.526 134.667 149.986 127.206 159.189 127.206ZM161.678 133.076L161.697 133.081L161.946 133.141L161.963 133.145L162.181 133.204L162.244 133.222L162.412 133.272L162.516 133.303L162.677 133.356L162.779 133.39L162.889 133.428L163.077 133.496L163.096 133.503C163.176 133.533 163.254 133.564 163.333 133.595L163.356 133.605C163.433 133.636 163.51 133.668 163.587 133.701L163.607 133.709C163.773 133.781 163.937 133.858 164.098 133.939L164.102 133.941C164.751 134.262 165.364 134.645 165.932 135.082C167.123 135.995 168.081 137.11 168.792 138.346L168.801 138.363L168.911 138.558L168.941 138.615L169.016 138.758L169.084 138.892L169.118 138.96L169.215 139.16L169.218 139.167C169.764 140.328 170.113 141.598 170.224 142.936L170.23 143.001L170.231 143.016L170.234 143.06C170.314 144.156 170.234 145.268 169.982 146.356L169.977 146.376C169.938 146.547 169.894 146.717 169.846 146.887L169.841 146.906L169.783 147.099L169.754 147.196L169.705 147.347L169.667 147.459L169.626 147.576L169.57 147.731L169.537 147.82L169.464 148.005L169.449 148.041L169.355 148.265L169.346 148.287L169.241 148.519L169.231 148.54C168.888 149.278 168.464 149.972 167.974 150.61C167.116 151.73 166.08 152.644 164.932 153.339L164.93 153.34C164.865 153.38 164.8 153.417 164.735 153.456L164.672 153.492L164.524 153.575L164.42 153.631L164.314 153.687L164.152 153.77L164.111 153.791C162.831 154.428 161.408 154.824 159.906 154.92L159.764 154.928L159.738 154.929C158.817 154.975 157.889 154.908 156.973 154.721L156.941 154.714L156.736 154.67L156.657 154.652L156.466 154.605L156.397 154.588L156.218 154.54L156.119 154.512L156 154.476L155.831 154.424L155.764 154.403L155.567 154.337L155.522 154.321L155.305 154.242L155.269 154.228C154.218 153.83 153.243 153.278 152.371 152.597L152.36 152.589L152.349 152.58L152.28 152.524C151.237 151.694 150.38 150.706 149.719 149.618L149.712 149.604L149.599 149.414L149.563 149.352L149.48 149.203L149.424 149.099L149.368 148.994L149.285 148.831L149.264 148.79C148.627 147.509 148.231 146.088 148.135 144.585L148.127 144.443L148.126 144.417C148.08 143.497 148.147 142.566 148.334 141.65L148.34 141.623L148.385 141.415L148.403 141.337L148.451 141.139L148.466 141.08L148.518 140.885L148.541 140.805L148.582 140.669L148.628 140.517L148.657 140.429L148.715 140.254L148.737 140.189L148.814 139.978L148.821 139.961C149.212 138.92 149.758 137.954 150.427 137.09L150.465 137.04L150.474 137.028L150.475 137.027C151.372 135.882 152.457 134.957 153.658 134.267L153.685 134.251L153.877 134.143L153.934 134.113L154.077 134.038L154.21 133.97L154.278 133.936L154.479 133.839L154.486 133.836C155.651 133.289 156.927 132.939 158.271 132.828L158.321 132.823L158.335 132.822L158.384 132.82C159.479 132.74 160.588 132.82 161.676 133.071L161.678 133.076Z" fill="#E2E4E9"/>
<path fill-rule="evenodd" clip-rule="evenodd" d="M158.758 127.211L158.581 132.811C159.612 132.753 160.654 132.84 161.678 133.075L161.697 133.08L161.946 133.14L161.963 133.144L162.181 133.203L162.244 133.221L162.412 133.271L162.516 133.302L162.677 133.355L162.778 133.389L162.888 133.427L163.076 133.495L163.095 133.503C163.175 133.533 163.253 133.563 163.332 133.595L163.355 133.605C163.432 133.636 163.509 133.668 163.586 133.701L163.606 133.709C163.772 133.781 163.936 133.858 164.097 133.939L164.101 133.941C164.75 134.262 165.363 134.644 165.931 135.082C167.069 135.954 167.995 137.011 168.695 138.182L173.744 135.752L173.742 135.748C173.614 135.518 173.479 135.291 173.34 135.068L173.315 135.028L173.18 134.815L173.03 134.588C172.834 134.296 172.628 134.011 172.415 133.732L172.383 133.69L172.231 133.496L172.203 133.461C172.105 133.338 172.005 133.217 171.903 133.097L171.869 133.057L171.705 132.867L171.691 132.85C171.581 132.725 171.47 132.604 171.357 132.483L171.33 132.453L171.154 132.269L171.136 132.25C171.016 132.127 170.894 132.006 170.771 131.886L170.762 131.877L170.579 131.704L170.545 131.671C170.426 131.561 170.305 131.452 170.183 131.344L170.16 131.324L169.982 131.171L169.92 131.118L169.749 130.975L169.538 130.804L169.536 130.803L169.372 130.675L169.261 130.59L169.115 130.48L169.107 130.473L168.886 130.313L168.729 130.203L168.602 130.114L168.453 130.013L168.438 130.003L168.211 129.853L168.079 129.77L167.904 129.66L167.784 129.587L167.549 129.449L167.384 129.355L167.221 129.264L167.046 129.169L167.033 129.161L166.79 129.033L166.684 128.979L166.477 128.877L166.351 128.816L166.083 128.691L166.049 128.676L166.047 128.675L166.031 128.668C165.93 128.623 165.829 128.578 165.726 128.535L165.624 128.492L165.346 128.379L165.301 128.36L165.285 128.354C165.182 128.313 165.079 128.274 164.977 128.236L164.844 128.188L164.642 128.117L164.479 128.062L164.19 127.968L164.082 127.934L163.783 127.845L163.745 127.833C163.628 127.8 163.51 127.768 163.391 127.737L163.292 127.712L163.01 127.643L162.933 127.625C162.814 127.597 162.695 127.571 162.575 127.547L162.504 127.533L162.18 127.47L162.118 127.459C161.994 127.437 161.871 127.416 161.746 127.396L161.687 127.388L161.365 127.343L161.279 127.331C161.163 127.317 161.045 127.303 160.928 127.291L160.896 127.287L160.853 127.283C160.743 127.273 160.633 127.263 160.521 127.253L160.436 127.247L160.084 127.225L159.965 127.219L159.699 127.209L159.555 127.205C159.434 127.203 159.314 127.201 159.192 127.201H159.185H159.178H159.172H159.165C159.044 127.201 158.922 127.203 158.801 127.205H158.794H158.781H158.774H158.767H158.762H158.761L158.758 127.211ZM161.276 127.336C161.16 127.322 161.043 127.308 160.925 127.296L161.276 127.336Z" fill="#CDD0D5"/>
<path fill-rule="evenodd" clip-rule="evenodd" d="M167.605 123.66C163 122 157.5 120.132 156.101 122.15C155.029 123.697 152.57 127.388 154.361 129.48C156.153 131.572 161.166 137.688 162.162 135.757C162.987 134.158 166.299 129.569 167.41 128.043C167.905 127.363 167.776 127.542 167.857 126.674C167.857 126.674 168 124.5 168.075 124.312C168.149 124.124 168.248 123.753 167.605 123.66Z" fill="#868C98"/>
<path d="M112.998 164.268H78.0534C77.9257 164.268 77.8221 164.972 77.8221 165.841V168.886C77.8221 169.754 77.9257 170.458 78.0534 170.458H112.998C113.126 170.458 113.23 169.754 113.23 168.886V165.841C113.23 164.972 113.126 164.268 112.998 164.268Z" fill="#E2E4E9"/>
<path d="M176.662 164.268H141.717C141.589 164.268 141.485 164.972 141.485 165.841V168.886C141.485 169.754 141.589 170.458 141.717 170.458H176.662C176.79 170.458 176.893 169.754 176.893 168.886V165.841C176.893 164.972 176.79 164.268 176.662 164.268Z" fill="#E2E4E9"/>
<path fill-rule="evenodd" clip-rule="evenodd" d="M162.99 27.9309C163.435 29.3526 163.816 30.7945 164.264 32.2105C164.426 32.7193 164.658 33.4585 165.035 33.8531C165.411 34.2457 166.13 34.5059 166.628 34.6864C168.011 35.1885 169.421 35.6262 170.81 36.1264L173.426 37.0701L170.797 37.9773C169.446 38.4438 168.071 38.846 166.726 39.3155C166.237 39.4864 165.555 39.7254 165.188 40.1123C164.805 40.5165 164.552 41.2931 164.382 41.8105C163.904 43.2659 163.489 44.7452 163.012 46.2054L162.059 49.1248L161.142 46.1939C160.698 44.7722 160.317 43.3302 159.868 41.9142C159.707 41.4054 159.475 40.6662 159.098 40.2717C158.722 39.879 158.003 39.6189 157.505 39.4384C156.122 38.9363 154.71 38.4986 153.322 37.9984L150.707 37.0547L153.336 36.1465C154.686 35.68 156.062 35.2778 157.407 34.8083C157.896 34.6374 158.578 34.3993 158.945 34.0125C159.328 33.6073 159.58 32.8317 159.75 32.3142C160.228 30.8589 160.644 29.3785 161.12 27.9193L162.074 25L162.99 27.9309Z" fill="#868C98"/>
<path fill-rule="evenodd" clip-rule="evenodd" d="M162.053 28.2246C164.493 36.0218 162.866 34.3053 170.476 37.0499C163.058 39.6122 164.691 37.9033 162.079 45.9011C159.64 38.104 161.267 39.8205 153.656 37.0759C161.075 34.5136 159.442 36.2234 162.053 28.2246Z" fill="#FEFEFE"/>
<path fill-rule="evenodd" clip-rule="evenodd" d="M47.8758 201.967C48.3203 203.389 48.7014 204.831 49.1497 206.247C49.311 206.756 49.5433 207.495 49.9206 207.89C50.296 208.282 51.015 208.542 51.5133 208.723C52.8966 209.225 54.3069 209.663 55.695 210.163L58.311 211.107L55.6825 212.014C54.3318 212.48 52.9562 212.883 51.6112 213.352C51.1226 213.523 50.44 213.762 50.0733 214.149C49.6902 214.553 49.4377 215.33 49.2678 215.847C48.7897 217.302 48.3741 218.782 47.8979 220.242L46.9446 223.161L46.0278 220.23C45.5833 218.809 45.2022 217.367 44.7539 215.951C44.5926 215.442 44.3603 214.703 43.983 214.308C43.6077 213.916 42.8886 213.655 42.3904 213.475C41.007 212.973 39.5958 212.535 38.2077 212.035L35.5926 211.091L38.2211 210.183C39.5718 209.716 40.9475 209.314 42.2925 208.845C42.7811 208.674 43.4637 208.436 43.8304 208.049C44.2134 207.644 44.4659 206.868 44.6358 206.351C45.1139 204.895 45.5296 203.415 46.0057 201.956L46.959 199.036L47.8758 201.967Z" fill="#868C98"/>
<path fill-rule="evenodd" clip-rule="evenodd" d="M46.9389 202.26C49.3782 210.057 47.751 208.341 55.3619 211.085C47.943 213.648 49.576 211.939 46.9648 219.937C44.5254 212.139 46.1526 213.856 38.5417 211.111C45.9606 208.549 44.3277 210.259 46.9389 202.26Z" fill="#FEFEFE"/>
<path fill-rule="evenodd" clip-rule="evenodd" d="M146.376 64.4541H212.426C215.405 64.4541 217.842 66.8915 217.842 69.8704V111.96C217.842 114.94 215.404 117.376 212.426 117.376H207.94V150.74H213.807C218.523 150.74 222.381 154.598 222.381 159.314V195.088C222.381 199.804 218.523 203.662 213.807 203.662H101.685C96.9693 203.662 93.111 199.804 93.111 195.088V182.23H56.6541C51.2205 182.23 46.7757 177.785 46.7757 172.351V110.368H42.543C37.8438 110.368 34 106.524 34 101.825V61.5529C34 56.8537 37.8438 53.0099 42.543 53.0099H107.55C112.25 53.0099 116.093 56.8537 116.093 61.5529V72.28H140.958V69.8704C140.958 66.8905 143.396 64.4541 146.375 64.4541H146.376ZM207.94 152.252V172.351C207.94 177.785 203.496 182.23 198.062 182.23H94.624V195.088C94.624 198.972 97.8016 202.15 101.686 202.15H213.808C217.692 202.15 220.87 198.972 220.87 195.088V159.314C220.87 155.429 217.692 152.252 213.808 152.252H207.94ZM46.7766 108.857V82.1584C46.7766 76.7248 51.2214 72.28 56.655 72.28H114.582V61.5529C114.582 57.6851 111.418 54.5219 107.551 54.5219H42.544C38.6762 54.5219 35.513 57.6851 35.513 61.5529V101.826C35.513 105.694 38.6771 108.857 42.544 108.857H46.7766ZM140.959 73.792H116.094H114.582H56.655C52.0528 73.792 48.2886 77.5571 48.2886 82.1584V108.857V110.368V172.352C48.2886 176.954 52.0538 180.719 56.655 180.719H93.112H94.623H198.061C202.663 180.719 206.428 176.954 206.428 172.352V117.376V115.865V82.1584C206.428 77.5571 202.662 73.792 198.061 73.792H142.47H140.959ZM142.47 72.2809H198.061C203.495 72.2809 207.94 76.7257 207.94 82.1593V115.865H212.426C214.573 115.865 216.33 114.108 216.33 111.961V69.8713C216.33 67.7238 214.573 65.967 212.426 65.967H146.375C144.227 65.967 142.47 67.7238 142.47 69.8713V72.2809Z" fill="#868C98"/>
</svg>
