<svg width="249" height="248" viewBox="0 0 249 248" fill="none" xmlns="http://www.w3.org/2000/svg">
<rect width="248" height="248" transform="translate(0.5)" fill="white"/>
<path fill-rule="evenodd" clip-rule="evenodd" d="M209.109 89.2259C213.807 91.4282 216.452 96.7561 215.116 101.955L192.91 188.352C191.401 194.225 185.36 197.794 179.488 196.284L69.2503 167.952C63.377 166.443 59.8067 160.403 61.3168 154.53L61.4272 154.1C61.5952 154.151 61.7632 154.199 61.9341 154.242L172.172 182.574C178.853 184.292 185.717 180.235 187.434 173.554L205.617 102.808L209.109 89.224V89.2259Z" fill="#E2E4E9"/>
<path fill-rule="evenodd" clip-rule="evenodd" d="M185.971 173.179L185.897 173.452L185.816 173.722C185.788 173.812 185.76 173.9 185.729 173.989C185.699 174.077 185.667 174.166 185.636 174.252C185.603 174.34 185.571 174.426 185.536 174.511C185.502 174.597 185.467 174.682 185.43 174.768L185.319 175.02C185.281 175.104 185.241 175.186 185.202 175.268L185.079 175.513C185.037 175.593 184.994 175.674 184.949 175.753C184.905 175.832 184.861 175.911 184.815 175.989C184.769 176.067 184.723 176.144 184.675 176.221C184.628 176.298 184.579 176.374 184.53 176.449C184.48 176.524 184.431 176.598 184.379 176.672C184.328 176.746 184.276 176.819 184.224 176.892C184.171 176.965 184.117 177.036 184.062 177.107C184.008 177.178 183.953 177.248 183.897 177.318L183.726 177.525C183.669 177.593 183.611 177.66 183.552 177.726C183.493 177.794 183.433 177.859 183.372 177.924C183.312 177.989 183.249 178.054 183.188 178.117L183 178.305C182.936 178.368 182.872 178.428 182.807 178.489C182.741 178.549 182.676 178.609 182.61 178.667L182.409 178.841L182.204 179.01C182.135 179.066 182.066 179.119 181.995 179.173C181.925 179.227 181.854 179.28 181.782 179.331C181.711 179.383 181.638 179.434 181.566 179.484L181.347 179.632L181.124 179.775C181.049 179.822 180.973 179.867 180.897 179.912L180.668 180.044C180.591 180.087 180.513 180.129 180.435 180.171C180.357 180.212 180.278 180.252 180.199 180.291L179.961 180.407C179.882 180.444 179.801 180.482 179.72 180.517L179.476 180.621C179.395 180.654 179.313 180.687 179.23 180.719C179.147 180.75 179.065 180.781 178.981 180.811L178.73 180.897C178.645 180.925 178.561 180.952 178.476 180.978C178.391 181.004 178.306 181.028 178.221 181.053C178.135 181.076 178.05 181.1 177.963 181.121C177.877 181.143 177.791 181.163 177.704 181.183L177.443 181.24L177.18 181.29C177.093 181.305 177.004 181.32 176.915 181.333C176.827 181.347 176.739 181.358 176.649 181.37C176.56 181.38 176.472 181.391 176.382 181.4C176.293 181.409 176.204 181.418 176.114 181.424C176.024 181.431 175.934 181.437 175.844 181.442L175.573 181.452L175.301 181.456C175.21 181.456 175.12 181.455 175.029 181.453C174.938 181.451 174.846 181.447 174.755 181.443C174.664 181.44 174.573 181.434 174.482 181.427L174.207 181.403C174.115 181.395 174.024 181.384 173.932 181.372C173.841 181.361 173.749 181.348 173.658 181.334C173.566 181.321 173.475 181.305 173.382 181.289C173.29 181.273 173.199 181.255 173.107 181.236C173.015 181.218 172.923 181.198 172.831 181.177C172.739 181.156 172.648 181.133 172.556 181.109L62.318 152.777L62.3142 152.776L62.3094 152.775L62.3056 152.774L62.3017 152.773L62.2969 152.772L62.2931 152.771L62.2892 152.77L62.1222 152.725L62.1184 152.724L62.1136 152.723L62.1097 152.722L62.1059 152.721L62.0886 152.716L62.0838 152.715L62.08 152.715L62.0761 152.714L62.0723 152.713L62.0675 152.712L62.0636 152.711L62.0598 152.709L62.056 152.708L62.0512 152.707L62.0473 152.706L62.0387 152.703C61.9571 152.68 61.8774 152.655 61.7968 152.631L61.791 152.629L61.7785 152.625L61.7603 152.619L61.7296 152.61L61.6988 152.6L61.576 152.56L61.5452 152.549L61.5155 152.539L61.5116 152.538L61.4857 152.528L61.455 152.518L61.4252 152.507L61.3648 152.486L61.335 152.475L61.3052 152.465L61.2755 152.454L61.215 152.431L61.1852 152.421L61.1555 152.409L61.096 152.386L61.0662 152.375L61.0364 152.363L61.0278 152.359L60.9472 152.328L60.9184 152.315L60.8886 152.304L60.8588 152.291L60.8291 152.279L60.8003 152.266L60.7715 152.254L60.6841 152.216L60.6553 152.204L60.6265 152.191L60.5689 152.165L60.5401 152.152L60.5113 152.139L60.4249 152.1L60.3961 152.087C58.7075 151.296 57.2848 150.1 56.2163 148.654L56.2153 148.653L56.1001 148.492L56.0646 148.443L55.9475 148.272L55.9436 148.266L55.8179 148.075L55.8131 148.067L55.6921 147.875L55.6883 147.869L55.5702 147.674C55.4656 147.495 55.3657 147.314 55.2716 147.129L55.2236 147.034L55.168 146.92L55.118 146.818L55.0432 146.658L55.0249 146.617L54.9462 146.437L54.9222 146.38L54.8617 146.235L54.8185 146.126L54.7667 145.994L54.7398 145.922L54.6822 145.765L54.6803 145.761L54.6035 145.539L54.6015 145.535L54.5315 145.314L54.5276 145.303L54.4902 145.178L54.4575 145.064L54.4259 144.949L54.3904 144.814L54.3587 144.686L54.3356 144.592L54.3001 144.435L54.2771 144.331L54.2531 144.216L54.2262 144.075L54.2022 143.943L54.2012 143.936L54.1657 143.719L54.1628 143.701L54.1302 143.466L54.1283 143.453L54.1273 143.448L54.0995 143.207L54.0899 143.105L54.0764 142.955L54.0688 142.847L54.0592 142.697L54.0534 142.588L54.0476 142.435L54.0448 142.332L54.0428 142.163V142.079L54.0448 141.903L54.0467 141.808V141.791C54.0486 141.713 54.0515 141.636 54.0553 141.557V141.549L54.0697 141.306L54.0716 141.283L54.0784 141.201L54.0928 141.03L54.1033 140.935L54.1206 140.782L54.1379 140.65L54.1571 140.511L54.1724 140.411L54.1993 140.247L54.2195 140.134L54.2512 139.97L54.2665 139.89C54.2819 139.813 54.2992 139.737 54.3164 139.661L54.3241 139.626C54.3452 139.537 54.3664 139.446 54.3894 139.357L71.9996 70.839C72.2617 71.0435 72.5689 71.1981 72.9107 71.2854L202.579 104.612C202.921 104.7 203.264 104.712 203.593 104.66L185.982 173.178L185.971 173.179Z" fill="white"/>
<path fill-rule="evenodd" clip-rule="evenodd" d="M208.176 86.7808L204.153 102.433C204.017 102.963 203.473 103.284 202.943 103.148L73.2745 69.8214C72.7446 69.6851 72.423 69.1417 72.5593 68.6108L76.5817 52.959C78.0908 47.0857 84.1312 43.5174 90.0035 45.0265L200.241 73.359C206.115 74.8681 209.685 80.9075 208.175 86.7808H208.176Z" fill="#CDD0D5"/>
<path fill-rule="evenodd" clip-rule="evenodd" d="M90.3808 43.5625L200.619 71.895C207.299 73.6125 211.357 80.4755 209.64 87.1571L209.49 87.7389C214.995 90.1657 218.124 96.3213 216.58 102.331L194.374 188.728C192.656 195.41 185.792 199.466 179.112 197.748L68.8739 169.416C62.1923 167.698 58.1354 160.835 59.8518 154.154L60.0016 153.573C54.496 151.146 51.3683 144.989 52.913 138.98L71.0953 68.2345L75.1187 52.5827C76.8361 45.9011 83.7002 41.8451 90.3808 43.5625ZM209.109 89.2249L205.617 102.809L187.434 173.555C185.716 180.237 178.852 184.293 172.172 182.575L61.9341 154.243L61.9264 154.241L61.9187 154.239L61.911 154.237L61.672 154.172L61.6643 154.17L61.6566 154.167L61.649 154.165L61.6413 154.163L61.6096 154.155L61.6019 154.153L61.5942 154.15L61.5856 154.148L61.5779 154.145L61.5702 154.143L61.5625 154.141L61.5549 154.138L61.5472 154.136L61.5395 154.134L61.5309 154.132L61.5232 154.131L61.5155 154.129L61.5078 154.126L61.4925 154.121L61.4848 154.119L61.4771 154.117L61.4694 154.114L61.4617 154.112L61.4531 154.11L61.4454 154.108L61.4377 154.107L61.4301 154.104L61.3197 154.534C59.8105 160.407 63.3798 166.446 69.2531 167.955L179.491 196.288C185.364 197.797 191.404 194.229 192.913 188.355L215.118 101.958C216.455 96.759 213.81 91.431 209.112 89.2297L209.109 89.2249ZM203.581 104.66C203.253 104.712 202.909 104.7 202.567 104.612L72.8992 71.2854C72.5574 71.198 72.2502 71.0425 71.9882 70.839L54.3779 139.357C53.0416 144.556 55.6864 149.884 60.3846 152.086L60.4134 152.099L60.4998 152.139L60.5286 152.151L60.5574 152.164L60.615 152.19L60.6438 152.203L60.6726 152.215L60.7014 152.228L60.76 152.253L60.7888 152.265L60.8176 152.278L60.8473 152.29L60.8771 152.303L60.9069 152.314L60.9357 152.327L61.025 152.362L61.0547 152.374L61.0845 152.385L61.144 152.408L61.1737 152.42L61.2035 152.43L61.264 152.453L61.2937 152.464L61.3235 152.475L61.3533 152.485L61.4137 152.506L61.4435 152.517L61.4742 152.527L61.5002 152.537L61.504 152.538L61.5337 152.548L61.5645 152.559L61.6873 152.599L61.7181 152.609L61.7488 152.619L61.767 152.624L61.7795 152.628L61.7853 152.63L62.0272 152.702L62.0358 152.705C62.1261 152.73 62.2182 152.756 62.3094 152.779L172.547 181.111C178.42 182.62 184.46 179.052 185.969 173.179L203.579 104.661L203.581 104.66ZM204.153 102.433C204.017 102.963 203.473 103.284 202.943 103.148L73.2745 69.8214C72.7446 69.6851 72.423 69.1417 72.5593 68.6109L76.5817 52.959C78.0909 47.0857 84.1312 43.5174 90.0035 45.0265L200.241 73.359C206.115 74.8681 209.685 80.9075 208.175 86.7808L208.064 87.2109L204.152 102.433H204.153Z" fill="#868C98"/>
<path fill-rule="evenodd" clip-rule="evenodd" d="M213.127 193.059C213.135 194.548 213.075 196.038 213.088 197.524C213.093 198.057 213.098 198.832 213.342 199.321C213.586 199.806 214.197 200.266 214.62 200.585C215.795 201.471 217.014 202.303 218.195 203.189L220.419 204.86L217.639 204.955C216.211 205.005 214.779 204.985 213.355 205.038C212.837 205.058 212.115 205.086 211.651 205.348C211.166 205.621 210.697 206.289 210.382 206.735C209.498 207.986 208.666 209.278 207.781 210.533L206.013 213.044L205.996 209.973C205.99 208.484 206.048 206.993 206.036 205.509C206.032 204.975 206.026 204.2 205.781 203.712C205.538 203.226 204.927 202.766 204.504 202.447C203.329 201.561 202.108 200.729 200.929 199.843L198.705 198.172L201.484 198.077C202.913 198.028 204.345 198.048 205.769 197.994C206.286 197.975 207.009 197.946 207.473 197.685C207.959 197.41 208.427 196.743 208.742 196.298C209.626 195.047 210.458 193.755 211.343 192.499L213.111 189.988L213.126 193.06L213.127 193.059Z" fill="#868C98"/>
<path fill-rule="evenodd" clip-rule="evenodd" d="M212.146 193.064C212.187 201.234 211.136 199.115 217.606 203.975C209.762 204.244 211.825 203.091 206.979 209.969C206.938 201.8 207.989 203.918 201.52 199.059C209.364 198.789 207.301 199.943 212.146 193.064Z" fill="#FEFEFE"/>
<path d="M132.347 55.9581C130.188 64.3591 134.021 72.6343 140.933 74.6666C142.73 75.1802 144.359 74.3719 144.836 72.5162C145.25 70.9043 144.429 69.3002 143.001 68.9334C137.832 67.6048 135.994 62.0426 137.235 57.2147C138.603 51.8915 143.335 48.5075 147.769 49.647C152.202 50.7866 154.77 55.6 153.468 60.8829L158.356 62.1395C160.489 53.6262 156.405 45.6323 149.272 43.7987C142.139 41.9661 134.547 47.4055 132.348 55.9581H132.347Z" fill="#868C98"/>
<path d="M95.6032 46.5146C93.4441 54.9155 97.2774 63.1907 104.189 65.223C105.986 65.7366 107.615 64.9283 108.092 63.0726C108.506 61.4608 107.684 59.8567 106.257 59.4899C101.088 58.1613 99.2502 52.599 100.491 47.7712C101.859 42.448 106.591 39.064 111.025 40.2035C115.458 41.343 118.026 46.1574 116.724 51.4393L121.611 52.696C123.745 44.1837 119.661 36.1888 112.528 34.3552C105.395 32.5226 97.8025 37.9619 95.6041 46.5146H95.6032Z" fill="#868C98"/>
<path d="M169.09 65.4016C166.931 73.8025 170.765 82.0778 177.676 84.1101C179.473 84.6237 181.102 83.8153 181.579 81.9596C181.993 80.3478 181.172 78.7437 179.744 78.3779C174.576 77.0493 172.737 71.487 173.979 66.6582C175.347 61.335 180.078 57.951 184.512 59.0905C188.945 60.2301 191.585 64.7632 190.282 70.0451L195.084 71.6377C197.216 63.1254 193.147 55.0758 186.014 53.2422C178.881 51.4086 171.288 56.8489 169.089 65.4016H169.09Z" fill="#868C98"/>
<path fill-rule="evenodd" clip-rule="evenodd" d="M97.072 114.502L162.071 131.208C167.521 132.608 170.833 138.214 169.432 143.663L152.558 209.318C152.46 209.7 150.747 211.383 148.956 212.418C146.888 213.614 144.681 214.146 144.24 214.033L67.5943 194.333C66.7677 194.121 66.2647 193.272 66.4778 192.444L84.618 121.864C86.0186 116.414 91.6231 113.101 97.073 114.502H97.072Z" fill="#FEFEFE"/>
<path fill-rule="evenodd" clip-rule="evenodd" d="M70.1786 171.966L83.153 121.489C84.761 115.23 91.1901 111.43 97.4483 113.039L162.447 129.745C168.705 131.354 172.505 137.783 170.897 144.041L155.033 205.765C153.424 212.023 146.996 215.824 140.738 214.215L133.896 212.456L71.488 196.442C66.063 195.05 63.2666 189.106 63.2608 183.882C63.2551 178.593 65.823 174.25 70.1795 171.968L70.1786 171.966ZM138.072 211.968L141.113 212.749C146.563 214.15 152.167 210.837 153.568 205.387L169.432 143.663C170.833 138.213 167.521 132.608 162.071 131.208L97.072 114.502C91.6221 113.101 86.0176 116.414 84.617 121.864L71.9382 171.193C72.4835 170.996 73.0509 170.827 73.6384 170.688C75.8838 170.158 79.2342 170.349 81.5373 170.474C86.1616 170.723 90.8118 171.188 95.4217 171.64C110.928 173.162 126.387 174.753 141.922 175.997C142.74 176.063 143.357 176.77 143.31 177.589C143.264 178.408 142.571 179.042 141.751 179.015C134.294 178.769 127.646 183.759 125.787 190.995C123.866 198.47 128.195 205.157 134.554 209.459C135.175 209.88 136.816 211.267 138.072 211.965V211.968ZM141.801 177.506C102.437 174.354 79.696 170.813 73.985 172.159C60.9722 175.227 63.137 192.733 71.8624 194.976L134.27 210.99C126.528 207.632 122.155 199.055 124.323 190.621C126.399 182.542 133.797 177.242 141.801 177.506Z" fill="#868C98"/>
<path fill-rule="evenodd" clip-rule="evenodd" d="M141.801 177.506C102.437 174.354 79.696 170.813 73.985 172.159C60.9722 175.227 63.137 192.733 71.8624 194.976L134.27 210.99C126.528 207.632 122.155 199.055 124.323 190.621C126.399 182.542 133.797 177.242 141.801 177.506Z" fill="#CDD0D5"/>
<path d="M104.284 152.412L135.431 160.418C135.866 160.53 136.131 160.976 136.018 161.412C135.906 161.847 135.459 162.112 135.024 162L132.581 161.372L131.159 166.908C130.27 170.366 126.721 172.464 123.263 171.575C119.805 170.686 117.707 167.137 118.595 163.679L120.018 158.142L103.878 153.994C103.443 153.882 103.179 153.435 103.291 153C103.403 152.565 103.85 152.3 104.285 152.412H104.284ZM121.489 158.492L131.124 160.968L129.694 166.532C129.013 169.181 126.288 170.792 123.638 170.111C120.988 169.43 119.378 166.705 120.059 164.055L121.49 158.491L121.489 158.492ZM96.5728 137.513L103.506 133.229L99.4969 126.134C99.2761 125.743 99.4153 125.242 99.806 125.021C100.197 124.8 100.698 124.94 100.919 125.331L104.896 132.37L111.774 128.12C112.156 127.884 112.662 128.003 112.899 128.386C113.135 128.768 113.016 129.274 112.634 129.51L105.7 133.793L109.709 140.888C109.93 141.279 109.791 141.78 109.4 142.001C109.01 142.222 108.508 142.083 108.288 141.692L104.31 134.652L97.432 138.902C97.0499 139.138 96.544 139.018 96.3078 138.636C96.0717 138.254 96.1907 137.748 96.5737 137.512L96.5728 137.513ZM134.184 147.179L141.117 142.896L137.108 135.8C136.887 135.41 137.026 134.908 137.417 134.688C137.808 134.467 138.309 134.606 138.53 134.997L142.507 142.036L149.385 137.787C149.767 137.55 150.273 137.669 150.509 138.052C150.746 138.435 150.627 138.94 150.243 139.177L143.31 143.459L147.319 150.555C147.54 150.945 147.401 151.446 147.01 151.667C146.619 151.888 146.118 151.749 145.898 151.358L141.92 144.318L135.042 148.568C134.66 148.804 134.154 148.685 133.918 148.302C133.682 147.92 133.801 147.414 134.183 147.178L134.184 147.179Z" fill="#868C98"/>
<path fill-rule="evenodd" clip-rule="evenodd" d="M121.49 158.492L131.125 160.968L129.695 166.532C129.014 169.181 126.289 170.792 123.639 170.111C120.989 169.43 119.379 166.705 120.06 164.055L121.491 158.491L121.49 158.492Z" fill="#FEFEFE"/>
<path fill-rule="evenodd" clip-rule="evenodd" d="M42.4211 68.7299C42.4288 70.2189 42.3693 71.7098 42.3817 73.1939C42.3856 73.7277 42.3914 74.5024 42.6362 74.991C42.88 75.4768 43.4906 75.9357 43.9139 76.2553C45.089 77.1414 46.3091 77.9737 47.489 78.8598L49.7123 80.5302L46.9331 80.6262C45.5046 80.6762 44.0723 80.656 42.6477 80.7097C42.1302 80.7289 41.4073 80.7568 40.9446 81.0189C40.4589 81.2925 39.9904 81.9606 39.6755 82.4051C38.7913 83.656 37.96 84.9491 37.0749 86.2038L35.3065 88.7142L35.2912 85.6432C35.2835 84.1542 35.343 82.6634 35.3305 81.1782C35.3267 80.6445 35.321 79.8697 35.0762 79.3811C34.8323 78.8953 34.2218 78.4355 33.7984 78.1168C32.6234 77.2307 31.4032 76.3984 30.2234 75.5123L28 73.8419L30.7792 73.7459C32.2077 73.697 33.64 73.7162 35.0637 73.6624C35.5811 73.6432 36.304 73.6153 36.7667 73.3533C37.2525 73.0797 37.721 72.4115 38.0358 71.967C38.921 70.7161 39.7523 69.423 40.6365 68.1683L42.4048 65.6579L42.4202 68.7289L42.4211 68.7299Z" fill="#868C98"/>
<path fill-rule="evenodd" clip-rule="evenodd" d="M41.439 68.7357C41.4803 76.9043 40.429 74.7866 46.8985 79.6461C39.0543 79.9159 41.1174 78.7619 36.2723 85.6403C36.231 77.4717 37.2822 79.5895 30.8127 74.7299C38.6569 74.4602 36.5939 75.6141 41.439 68.7357Z" fill="#FEFEFE"/>
</svg>
