<svg width="249" height="248" viewBox="0 0 249 248" fill="none" xmlns="http://www.w3.org/2000/svg">
<path fill-rule="evenodd" clip-rule="evenodd" d="M225.114 49.8871C223.357 50.2298 221.583 50.4928 219.832 50.8403C219.203 50.9651 218.289 51.1447 217.767 51.5431C217.247 51.9395 216.841 52.7632 216.559 53.3354C215.775 54.9213 215.065 56.5485 214.283 58.1402L212.807 61.1392L212.073 57.8781C211.695 56.2019 211.398 54.5066 211.016 52.8362C210.878 52.2294 210.683 51.3818 210.269 50.8931C209.837 50.3815 208.943 49.9773 208.347 49.7047C206.673 48.9405 204.959 48.2474 203.278 47.4842L199.917 45.9578L203.54 45.2522C205.297 44.9104 207.071 44.6464 208.822 44.2989C209.451 44.1741 210.365 43.9946 210.887 43.5962C211.407 43.1997 211.813 42.375 212.095 41.8038C212.879 40.2179 213.589 38.5907 214.371 36.9991L215.847 34L216.581 37.2602C216.959 38.9363 217.256 40.6326 217.638 42.3021C217.777 42.9098 217.971 43.7565 218.385 44.2451C218.817 44.7568 219.711 45.161 220.307 45.4336C221.982 46.1987 223.695 46.8909 225.376 47.6541L228.737 49.1805L225.114 49.8861V49.8871Z" fill="#868C98"/>
<path fill-rule="evenodd" clip-rule="evenodd" d="M224.888 48.7293C215.25 50.6061 217.515 48.8915 213.224 57.6189C211.149 48.4154 212.974 50.5926 203.766 46.4099C213.405 44.5331 211.139 46.2477 215.43 37.5203C217.505 46.7238 215.68 44.5466 224.887 48.7293H224.888Z" fill="#FEFEFE"/>
<path fill-rule="evenodd" clip-rule="evenodd" d="M45.1962 193.158C43.4394 193.5 41.6653 193.764 39.9143 194.112C39.2855 194.236 38.3715 194.416 37.8493 194.814C37.3299 195.211 36.9238 196.035 36.6416 196.607C35.8573 198.193 35.1479 199.82 34.3655 201.412L32.8899 204.411L32.1555 201.15C31.7773 199.474 31.4806 197.778 31.0986 196.108C30.9603 195.502 30.7654 194.654 30.3517 194.165C29.9197 193.654 29.0259 193.25 28.4298 192.978C26.7546 192.213 25.0419 191.521 23.361 190.757L20 189.231L23.623 188.525C25.3798 188.183 27.1539 187.92 28.905 187.572C29.5338 187.447 30.4477 187.268 30.9699 186.869C31.4893 186.473 31.8954 185.648 32.1776 185.077C32.9619 183.491 33.6714 181.864 34.4538 180.272L35.9283 177.273L36.6627 180.533C37.041 182.21 37.3376 183.906 37.7197 185.575C37.8589 186.183 38.0528 187.03 38.4666 187.518C38.8986 188.03 39.7923 188.434 40.3885 188.706C42.0637 189.471 43.7763 190.164 45.4573 190.927L48.8183 192.454L45.1952 193.159L45.1962 193.158Z" fill="#868C98"/>
<path fill-rule="evenodd" clip-rule="evenodd" d="M44.9706 192C35.3312 193.876 37.5978 192.162 33.3066 200.889C31.232 191.686 33.057 193.863 23.8486 189.68C33.488 187.804 31.2214 189.518 35.5126 180.791C37.5872 189.994 35.7622 187.817 44.9706 192Z" fill="#FEFEFE"/>
<path fill-rule="evenodd" clip-rule="evenodd" d="M208.199 87.6899C215.511 89.9104 219.674 97.7037 217.454 105.016L187.604 203.305C185.384 210.617 177.59 214.779 170.278 212.558L68.7421 181.723C61.4298 179.502 57.2672 171.709 59.4877 164.397L89.337 66.1081C91.5574 58.7968 99.3507 54.6343 106.663 56.8547L208.199 87.6899ZM207.76 89.1367L106.223 58.3004C99.7088 56.3219 92.7603 60.0342 90.7827 66.5469L60.9335 164.836C58.9559 171.348 62.6662 178.297 69.1808 180.275L170.717 211.111C177.231 213.09 184.179 209.378 186.157 202.866L216.006 104.576C217.984 98.0646 214.273 91.1152 207.759 89.1367H207.76Z" fill="#868C98"/>
<path fill-rule="evenodd" clip-rule="evenodd" d="M207.76 89.1367L206.357 88.7104L199.414 111.572L206.828 105.669C207.144 105.416 207.505 105.309 207.909 105.346C210.428 105.58 213.017 105.747 215.587 105.96L216.007 104.575C216.038 104.474 216.068 104.372 216.095 104.27C216.123 104.168 216.15 104.066 216.176 103.964C216.201 103.862 216.225 103.759 216.248 103.658C216.271 103.556 216.292 103.453 216.312 103.35C216.333 103.248 216.351 103.146 216.368 103.043C216.385 102.94 216.401 102.839 216.416 102.736C216.43 102.634 216.444 102.532 216.456 102.43C216.469 102.328 216.479 102.225 216.488 102.124C216.498 102.022 216.505 101.919 216.512 101.817C216.519 101.716 216.525 101.613 216.528 101.511C216.532 101.409 216.535 101.308 216.537 101.206C216.539 101.104 216.539 101.003 216.538 100.901C216.537 100.8 216.535 100.699 216.532 100.598C216.528 100.497 216.524 100.396 216.518 100.296C216.512 100.195 216.505 100.095 216.497 99.9942C216.488 99.8944 216.478 99.7946 216.468 99.6938C216.457 99.5939 216.445 99.4941 216.432 99.3952C216.419 99.2954 216.405 99.1965 216.39 99.0976C216.375 98.9987 216.358 98.8998 216.34 98.8019C216.322 98.704 216.303 98.6061 216.283 98.5082C216.262 98.4102 216.241 98.3133 216.218 98.2163C216.195 98.1194 216.172 98.0224 216.147 97.9264L216.069 97.6384C216.043 97.5424 216.014 97.4474 215.984 97.3523L215.893 97.0682C215.829 96.88 215.761 96.6928 215.689 96.5085C215.654 96.4163 215.616 96.3242 215.578 96.233C215.54 96.1418 215.5 96.0506 215.46 95.9594C215.42 95.8691 215.378 95.7789 215.335 95.6896C215.293 95.6003 215.249 95.5111 215.204 95.4227C215.071 95.1568 214.927 94.8966 214.774 94.6403C214.724 94.5549 214.672 94.4704 214.619 94.3869L214.458 94.1373C214.403 94.0547 214.347 93.9722 214.291 93.8915L214.118 93.6496C214.059 93.5699 214 93.4902 213.938 93.4115C213.878 93.3328 213.816 93.2551 213.753 93.1773C213.691 93.1005 213.627 93.0237 213.562 92.9478C213.498 92.872 213.432 92.7971 213.366 92.7232C213.3 92.6483 213.233 92.5753 213.165 92.5024C213.096 92.4294 213.027 92.3574 212.957 92.2864C212.887 92.2153 212.816 92.1453 212.744 92.0752C212.672 92.0061 212.599 91.937 212.526 91.8688C212.453 91.8007 212.378 91.7334 212.302 91.6682C212.228 91.6019 212.151 91.5366 212.074 91.4723C211.997 91.408 211.919 91.3447 211.841 91.2813C211.762 91.2189 211.682 91.1565 211.603 91.096C211.442 90.9741 211.277 90.856 211.11 90.7418C211.027 90.6851 210.941 90.6285 210.857 90.5738C210.771 90.519 210.686 90.4643 210.598 90.4115C210.511 90.3578 210.424 90.3069 210.335 90.2551C210.247 90.2042 210.158 90.1533 210.068 90.1043C209.977 90.0554 209.886 90.0074 209.795 89.9603C209.704 89.9133 209.611 89.8682 209.517 89.8231C209.424 89.7779 209.331 89.7347 209.236 89.6925C209.142 89.6502 209.046 89.609 208.95 89.5677C208.854 89.5274 208.757 89.488 208.66 89.4505C208.562 89.4121 208.464 89.3757 208.365 89.3402C208.267 89.3046 208.167 89.2701 208.067 89.2365C207.967 89.2029 207.866 89.1712 207.764 89.1405L207.76 89.1367ZM141.629 186.505L141.496 186.423C141.54 186.45 141.583 186.478 141.629 186.505ZM60.9767 164.687L60.9315 164.836C60.9008 164.938 60.8711 165.04 60.8432 165.142C60.8154 165.244 60.7885 165.346 60.7626 165.448C60.7376 165.55 60.7136 165.652 60.6906 165.754C60.6675 165.856 60.6464 165.959 60.6263 166.061C60.6061 166.164 60.5879 166.266 60.5706 166.369C60.5533 166.471 60.5379 166.573 60.5226 166.676C60.5082 166.779 60.4947 166.88 60.4823 166.983C60.4698 167.085 60.4592 167.188 60.4506 167.289C60.441 167.391 60.4333 167.494 60.4266 167.596C60.4199 167.697 60.4141 167.8 60.4103 167.902C60.4064 168.004 60.4035 168.105 60.4016 168.207C60.3997 168.309 60.3997 168.411 60.4007 168.511C60.4016 168.613 60.4035 168.714 60.4064 168.815C60.4103 168.916 60.4151 169.016 60.4208 169.117C60.4266 169.218 60.4333 169.318 60.4419 169.419C60.4506 169.518 60.4602 169.618 60.4707 169.719C60.4813 169.819 60.4938 169.919 60.5063 170.018C60.5197 170.117 60.5331 170.216 60.5485 170.315C60.5639 170.414 60.5802 170.513 60.5984 170.611C60.6167 170.709 60.6358 170.808 60.656 170.906C60.6762 171.004 60.6973 171.1 60.7203 171.197C60.7434 171.294 60.7664 171.391 60.7914 171.487L60.8691 171.775C60.896 171.871 60.9248 171.966 60.9546 172.061L61.0458 172.346C61.0775 172.44 61.1101 172.534 61.1437 172.627C61.1773 172.72 61.2128 172.813 61.2483 172.905C61.2839 172.997 61.3213 173.09 61.3597 173.181C61.3981 173.272 61.4375 173.363 61.4778 173.454C61.5181 173.545 61.5594 173.635 61.6026 173.724C61.6448 173.813 61.689 173.903 61.7331 173.991L61.8704 174.255C61.9165 174.342 61.9645 174.429 62.0135 174.516C62.0624 174.603 62.1114 174.688 62.1632 174.773C62.2141 174.859 62.2659 174.943 62.3187 175.027C62.3715 175.11 62.4253 175.194 62.48 175.277C62.5347 175.36 62.5904 175.442 62.647 175.523L62.8198 175.765C62.8784 175.845 62.9379 175.924 62.9994 176.003C63.0599 176.082 63.1213 176.16 63.1847 176.237C63.2471 176.315 63.3114 176.391 63.3757 176.467C63.44 176.543 63.5053 176.618 63.5715 176.692C63.6378 176.767 63.705 176.84 63.7731 176.913C63.8413 176.986 63.9104 177.058 63.9805 177.129C64.0506 177.2 64.1216 177.271 64.1936 177.34C64.2656 177.41 64.3376 177.479 64.4115 177.547C64.4855 177.615 64.5594 177.682 64.6352 177.748C64.7101 177.815 64.7869 177.88 64.8637 177.944C64.9405 178.009 65.0182 178.072 65.097 178.135C65.1757 178.198 65.2554 178.26 65.335 178.321C65.4157 178.381 65.4963 178.442 65.5789 178.5C65.6605 178.559 65.744 178.617 65.8275 178.674C65.9111 178.731 65.9965 178.787 66.081 178.842C66.1664 178.897 66.2519 178.951 66.3392 179.004C66.4266 179.058 66.5139 179.109 66.6023 179.161C66.6906 179.212 66.7798 179.262 66.8701 179.311C66.9603 179.36 67.0515 179.408 67.1427 179.455C67.2339 179.502 67.3271 179.548 67.4202 179.593C67.5133 179.638 67.6064 179.681 67.7015 179.723C67.7955 179.765 67.8915 179.807 67.9875 179.848C68.0835 179.888 68.1805 179.928 68.2775 179.965C68.3754 180.004 68.4733 180.04 68.5722 180.076C68.6711 180.111 68.7709 180.146 68.8707 180.179C68.9706 180.213 69.0714 180.244 69.1731 180.275L170.709 211.111C170.811 211.142 170.913 211.172 171.015 211.2C171.116 211.228 171.218 211.254 171.321 211.28C171.423 211.305 171.525 211.33 171.627 211.352C171.729 211.375 171.832 211.397 171.933 211.417C172.036 211.437 172.138 211.455 172.241 211.472C172.342 211.49 172.445 211.505 172.548 211.52C172.651 211.535 172.752 211.548 172.854 211.561C172.956 211.573 173.059 211.584 173.16 211.592C173.262 211.602 173.365 211.61 173.467 211.616C173.568 211.623 173.671 211.629 173.773 211.633C173.875 211.637 173.976 211.639 174.078 211.641C174.18 211.643 174.281 211.644 174.382 211.643C174.484 211.642 174.585 211.639 174.686 211.636C174.787 211.633 174.887 211.629 174.988 211.623C175.089 211.617 175.19 211.611 175.29 211.602C175.389 211.593 175.49 211.584 175.59 211.573C175.69 211.563 175.789 211.55 175.889 211.538C175.988 211.524 176.087 211.51 176.186 211.494C176.285 211.479 176.384 211.462 176.482 211.444C176.58 211.426 176.678 211.407 176.776 211.388C176.874 211.368 176.972 211.347 177.069 211.324C177.165 211.3 177.262 211.277 177.358 211.252L177.646 211.175C177.742 211.148 177.837 211.119 177.933 211.089L178.217 210.998C178.311 210.966 178.404 210.934 178.498 210.9L178.777 210.796C178.869 210.76 178.962 210.723 179.053 210.684C179.144 210.646 179.235 210.606 179.326 210.566C179.417 210.526 179.507 210.484 179.596 210.441C179.685 210.399 179.775 210.355 179.863 210.311L180.127 210.173C180.214 210.127 180.301 210.078 180.387 210.03L180.645 209.881C180.73 209.83 180.814 209.778 180.898 209.725C180.981 209.672 181.065 209.619 181.148 209.564C181.231 209.509 181.313 209.453 181.394 209.397L181.636 209.224C181.716 209.165 181.796 209.106 181.874 209.044C181.953 208.984 182.031 208.922 182.109 208.859C182.186 208.797 182.262 208.733 182.338 208.669C182.414 208.605 182.489 208.54 182.563 208.473C182.637 208.407 182.71 208.34 182.783 208.272C182.856 208.204 182.928 208.134 182.999 208.064C183.07 207.994 183.141 207.923 183.211 207.851C183.28 207.779 183.349 207.707 183.417 207.633C183.485 207.56 183.551 207.485 183.618 207.41C183.684 207.335 183.749 207.258 183.813 207.181C183.878 207.104 183.941 207.027 184.004 206.948C184.066 206.869 184.128 206.789 184.189 206.709C184.249 206.628 184.31 206.547 184.368 206.465C184.427 206.383 184.485 206.3 184.542 206.216C184.599 206.133 184.655 206.048 184.71 205.963C184.765 205.877 184.819 205.791 184.872 205.705C184.926 205.617 184.978 205.53 185.029 205.442C185.08 205.353 185.131 205.264 185.179 205.174C185.228 205.084 185.276 204.993 185.323 204.901C185.37 204.81 185.415 204.718 185.46 204.624C185.504 204.531 185.549 204.436 185.591 204.341C185.634 204.247 185.675 204.151 185.715 204.055C185.756 203.959 185.795 203.862 185.832 203.764C185.871 203.667 185.907 203.569 185.943 203.47C185.978 203.371 186.013 203.271 186.046 203.171C186.08 203.071 186.112 202.971 186.142 202.868L201.541 152.164L182.458 167.359L177.29 184.375C174.975 192.001 166.848 196.341 159.223 194.025L143.991 189.399L143.974 189.394L60.9632 164.689L60.9767 164.687Z" fill="#E2E4E9"/>
<path fill-rule="evenodd" clip-rule="evenodd" d="M95.9629 37.5357L197.406 68.3431C204.233 70.4167 208.122 77.6973 206.049 84.5248L175.859 183.933C173.786 190.759 166.505 194.648 159.677 192.576L144.421 187.943C133.839 183.387 128.099 171.532 131.456 160.211C134.487 149.991 143.969 143.448 154.14 143.704L56.1968 128.476C55.737 128.404 55.2781 128.374 54.8192 128.373L79.7811 46.1795C81.8538 39.353 89.1354 35.464 95.9629 37.5367V37.5357Z" fill="#FEFEFE"/>
<path fill-rule="evenodd" clip-rule="evenodd" d="M154.141 143.703L56.1977 128.476C43.2157 126.456 30.0569 153.388 55.1629 161.378L144.422 187.942C133.84 183.385 128.1 171.531 131.457 160.21C134.488 149.99 143.971 143.446 154.141 143.703Z" fill="#CDD0D5"/>
<path fill-rule="evenodd" clip-rule="evenodd" d="M53.6855 126.905L55.808 119.915C48.7856 117.333 44.8851 110.714 46.7399 104.606C48.5639 98.6013 55.5882 95.3258 62.7853 96.9424L63.824 93.521C56.7747 90.953 52.8973 84.3309 54.7568 78.209C56.5808 72.2032 63.6052 68.9287 70.8023 70.5453L72.1568 66.0842C65.1075 63.5152 61.2301 56.8941 63.0896 50.7722C64.9347 44.6944 72.1079 41.4122 79.3962 43.169C82.5748 37.1786 89.6826 34.049 96.4026 36.0899L197.845 66.8973C205.47 69.2128 209.81 77.3392 207.495 84.9645L177.306 184.372C174.99 191.998 166.864 196.338 159.238 194.022L144.006 189.396L143.99 189.391L54.7184 162.822C29.6288 154.838 39.9632 128.239 53.6855 126.905ZM57.1271 115.57L61.4547 101.321C57.1453 100.559 53.0394 102.587 51.9469 106.187C50.7968 109.975 52.8272 113.956 57.1271 115.57ZM64.2445 97.337C71.5952 99.6736 76.0669 106.428 74.4119 112.641C73.9664 114.265 72.5811 115.141 70.929 114.639C69.4938 114.203 68.6442 112.819 69.0301 111.549C70.4039 107.024 67.1197 103.062 62.9235 101.69L55.2781 126.865L55.0775 126.858C55.5267 126.87 55.9779 126.912 56.4301 126.981L154.373 142.208C155.162 142.331 155.719 143.043 155.647 143.837C155.575 144.633 154.902 145.233 154.103 145.213C144.371 144.967 135.674 151.306 132.907 160.639C129.842 170.973 134.885 182.014 144.681 186.404C145.974 186.984 149.633 188.925 152.999 190.546L159.678 192.575C166.505 194.647 173.786 190.759 175.86 183.932L206.05 84.5239C208.123 77.6973 204.234 70.4157 197.407 68.3421L95.9639 37.5348C90.0531 35.7396 83.8016 38.4151 80.8851 43.5972C88.063 46.0173 92.3965 52.6758 90.7626 58.8064C90.3171 60.4298 88.9319 61.3063 87.2797 60.8042C85.8445 60.3683 84.9949 58.984 85.3808 57.7139C86.7546 53.1895 83.4704 49.2276 79.2743 47.8548L72.2634 70.9399C79.6141 73.2765 84.0867 80.032 82.4307 86.2442C81.9853 87.8675 80.6 88.744 78.9479 88.2419C77.5127 87.8061 76.6631 86.4218 77.049 85.1517C78.4227 80.6272 75.1386 76.6653 70.9424 75.2925L64.2474 97.3379L64.2445 97.337ZM73.4816 61.7162L77.8035 47.4861C73.4941 46.7239 69.3891 48.7523 68.2957 52.3523C67.1667 56.0694 69.3219 60.0381 73.4826 61.7162H73.4816ZM65.1488 89.1539L69.4707 74.9239C65.1613 74.1616 61.0554 76.1901 59.9629 79.7901C58.8339 83.5063 60.9891 87.4749 65.1498 89.1539H65.1488ZM55.0035 126.855C54.7923 126.85 54.5802 126.852 54.369 126.859C54.5802 126.851 54.7914 126.85 55.0035 126.855ZM54.3008 126.862C54.0954 126.87 53.8909 126.885 53.6874 126.904C53.8919 126.885 54.0954 126.87 54.3008 126.862ZM143.448 187.652C143.457 187.606 143.469 187.56 143.486 187.514C133.504 182.676 128.2 171.192 131.456 160.209C134.487 149.989 143.969 143.446 154.14 143.702L56.1968 128.475C43.2147 126.455 30.056 153.388 55.1619 161.377L143.448 187.652Z" fill="#868C98"/>
<path fill-rule="evenodd" clip-rule="evenodd" d="M207.769 106.851C231.966 109.105 227.126 106.027 226.314 130.513L167.412 177.418C160.944 182.568 151.44 181.491 146.29 175.024C141.141 168.557 142.218 159.052 148.685 153.902L207.77 106.852L207.769 106.851Z" fill="#FEFEFE"/>
<path fill-rule="evenodd" clip-rule="evenodd" d="M150.548 152.419L169.274 175.935L226.314 130.513C227.126 106.027 231.967 109.105 207.769 106.851L150.548 152.418V152.419ZM169.033 178.06L168.354 178.601C161.233 184.271 150.777 183.085 145.107 175.966C139.437 168.845 140.624 158.389 147.743 152.719L148.423 152.178L206.828 105.669C207.144 105.416 207.505 105.309 207.909 105.346C212.284 105.753 216.865 105.952 221.199 106.559C223.527 106.885 226.278 107.404 227.679 109.508C229.004 111.498 228.807 114.609 228.67 116.893C228.398 121.468 227.976 125.968 227.825 130.564C227.809 131.022 227.613 131.41 227.255 131.696L169.033 178.06V178.06ZM149.365 153.361L168.092 176.877L167.412 177.418C160.944 182.568 151.44 181.491 146.29 175.024C141.141 168.557 142.218 159.052 148.685 153.902L149.365 153.361Z" fill="#868C98"/>
<path fill-rule="evenodd" clip-rule="evenodd" d="M149.364 153.361L168.091 176.877L167.411 177.418C160.943 182.568 151.439 181.491 146.289 175.024C141.14 168.557 142.217 159.052 148.684 153.902L149.364 153.361Z" fill="#E2E4E9"/>
<path d="M142.956 116.604L111.783 107.137C110.126 106.634 108.449 107.322 108.038 108.674L108.038 108.675C107.627 110.027 108.638 111.531 110.296 112.035L141.469 121.501C143.126 122.005 144.803 121.317 145.214 119.965L145.214 119.964C145.625 118.612 144.614 117.107 142.956 116.604Z" fill="#868C98"/>
<path fill-rule="evenodd" clip-rule="evenodd" d="M163.607 106.867L156.336 91.4522C155.843 90.4048 156.128 89.1827 156.952 88.4474C157.094 88.3072 157.253 88.1824 157.431 88.0758L172.046 79.3072C173.252 78.5834 174.833 78.978 175.556 80.1847V80.1856C176.28 81.3923 175.886 82.9715 174.679 83.6963L161.941 91.3389L168.235 104.685C168.836 105.958 168.285 107.49 167.012 108.09V108.091C165.74 108.691 164.207 108.141 163.606 106.868L163.607 106.867Z" fill="#868C98"/>
<path fill-rule="evenodd" clip-rule="evenodd" d="M102.63 88.3495L117.245 79.5808C118.237 78.9847 118.68 77.8106 118.404 76.7412C118.365 76.5463 118.301 76.3533 118.213 76.1661L110.942 60.7504C110.341 59.4774 108.809 58.9274 107.536 59.5274V59.5283C106.263 60.1283 105.713 61.6605 106.313 62.9344L112.65 76.3696L99.9968 83.9603C98.7901 84.6851 98.3946 86.2644 99.1184 87.4711V87.472C99.8422 88.6787 101.421 89.0743 102.629 88.3495H102.63Z" fill="#868C98"/>
</svg>
