<svg width="249" height="248" viewBox="0 0 249 248" fill="none" xmlns="http://www.w3.org/2000/svg">
<rect width="248" height="248" transform="translate(0.5)" fill="white"/>
<path fill-rule="evenodd" clip-rule="evenodd" d="M40.2189 76.2746L121.739 42.2781C126.82 40.1594 132.712 42.5824 134.831 47.6637L178.307 151.919C180.426 157 178.003 162.892 172.922 165.01L91.4013 199.006C86.32 201.125 80.4295 198.701 78.3098 193.62L34.8324 89.3651C32.7136 84.2838 35.1367 78.3933 40.2179 76.2736L40.2189 76.2746Z" fill="#FEFEFE"/>
<path d="M137.624 50.4333L141.045 49.0067C146.126 46.888 152.018 49.3111 154.136 54.3923L197.614 158.647C199.733 163.729 197.309 169.62 192.228 171.739L110.708 205.735C105.627 207.854 99.736 205.431 97.6164 200.35L96.8004 198.393L173.505 166.405C179.355 163.966 182.143 157.185 179.704 151.337L137.624 50.4343V50.4333Z" fill="#E2E4E9"/>
<path d="M36.496 92.2125C43.7114 89.2039 51.5863 91.5568 54.2896 97.4599C54.9799 98.9959 54.4692 100.553 52.8746 101.218C51.4903 101.795 49.9533 101.269 49.4426 100.043C47.5908 95.6042 42.3933 94.6816 38.2461 96.4115C33.6746 98.3181 31.2669 102.975 32.8538 106.781C34.4416 110.589 39.066 112.259 43.6106 110.416L45.3616 114.614C38.0436 117.613 30.3866 115.002 27.832 108.876C25.2775 102.75 29.1511 95.2758 36.496 92.2134V92.2125Z" fill="#868C98"/>
<path d="M53.1837 132.228C60.3981 129.22 68.274 131.572 70.9773 137.476C71.6676 139.012 71.1568 140.569 69.5623 141.233C68.178 141.811 66.642 141.284 66.1303 140.058C64.2794 135.619 59.081 134.696 54.9338 136.425C50.3623 138.332 47.9546 142.989 49.5415 146.795C51.1293 150.603 55.7546 152.273 60.2983 150.43L62.0493 154.628C54.7312 157.627 47.0743 155.016 44.5197 148.89C41.9651 142.764 45.8387 135.291 53.1837 132.227V132.228Z" fill="#868C98"/>
<path d="M69.8349 172.157C77.0503 169.148 84.9252 171.501 87.6285 177.404C88.3178 178.94 87.8071 180.497 86.2135 181.162C84.8292 181.739 83.2932 181.213 82.7815 179.987C80.9306 175.548 75.7322 174.626 71.585 176.355C67.0135 178.261 64.6058 182.918 66.1927 186.725C67.7805 190.532 72.1639 192.302 76.7076 190.46L78.7466 194.538C71.4285 197.537 63.7245 194.945 61.1699 188.819C58.6154 182.693 62.489 175.22 69.8339 172.157H69.8349Z" fill="#868C98"/>
<path d="M143.646 101.154L113.744 113.624C113.177 113.861 112.918 114.535 113.166 115.13L115.129 119.836C115.377 120.431 116.038 120.721 116.605 120.485L146.507 108.015C147.074 107.778 147.333 107.104 147.085 106.509L145.123 101.803C144.874 101.208 144.213 100.918 143.646 101.154Z" fill="#E2E4E9"/>
<path d="M99.7905 140.51C107.807 137.167 111.596 127.957 108.253 119.94C104.91 111.923 95.7004 108.135 87.6834 111.478C79.6665 114.821 75.8777 124.031 79.221 132.047C82.5643 140.064 91.7736 143.853 99.7905 140.51Z" fill="#868C98"/>
<path d="M99.209 139.115C106.456 136.093 109.881 127.769 106.858 120.522C103.836 113.275 95.5118 109.85 88.265 112.872C81.0182 115.895 77.5934 124.219 80.6155 131.466C83.6376 138.713 91.9622 142.138 99.209 139.115Z" fill="#FEFEFE"/>
<path d="M128.503 64.8423L98.6012 77.3121C98.034 77.5487 97.7753 78.2229 98.0234 78.8179L99.9858 83.5237C100.234 84.1187 100.895 84.4093 101.462 84.1727L131.364 71.7029C131.931 71.4663 132.19 70.7922 131.942 70.1971L129.98 65.4914C129.731 64.8963 129.07 64.6057 128.503 64.8423Z" fill="#E2E4E9"/>
<path d="M84.6475 104.199C92.6645 100.856 96.4532 91.6463 93.1099 83.6294C89.7667 75.6124 80.5574 71.8236 72.5404 75.1669C64.5234 78.5102 60.7347 87.7195 64.0779 95.7365C67.4212 103.753 76.6305 107.542 84.6475 104.199Z" fill="#868C98"/>
<path d="M84.066 102.804C91.3128 99.7822 94.7375 91.4577 91.7154 84.2109C88.6933 76.9641 80.3688 73.5393 73.122 76.5614C65.8752 79.5835 62.4504 87.9081 65.4725 95.1549C68.4946 102.402 76.8192 105.826 84.066 102.804Z" fill="#FEFEFE"/>
<path d="M79.5002 92.3411C82.5078 90.903 85.6375 91.1469 86.5965 92.8643C86.6215 92.8951 86.6416 92.9296 86.6598 92.9661C86.7856 93.2291 86.6829 93.5392 86.4304 93.6592C86.1789 93.7792 85.8726 93.665 85.7469 93.402C85.7334 93.3751 85.7229 93.3472 85.7152 93.3184H85.7143C84.9818 92.0387 82.4186 91.962 79.8957 93.1677C77.3795 94.3706 75.831 96.4067 76.3562 97.7805C76.3754 97.8074 76.3917 97.8352 76.407 97.866C76.5328 98.129 76.4301 98.439 76.1776 98.559C75.9261 98.679 75.6198 98.5648 75.4941 98.3018C75.4816 98.274 75.4711 98.2471 75.4624 98.2183C74.6983 96.3914 76.4762 93.784 79.5002 92.3383V92.3411Z" fill="#868C98"/>
<path d="M83.0553 85.2368C84.299 84.7182 84.8867 83.2895 84.3681 82.0458C83.8494 80.8021 82.4208 80.2144 81.1771 80.733C79.9334 81.2517 79.3456 82.6803 79.8643 83.924C80.3829 85.1677 81.8116 85.7555 83.0553 85.2368Z" fill="#868C98"/>
<path d="M72.2966 89.7239C73.5402 89.2052 74.128 87.7766 73.6094 86.5329C73.0907 85.2892 71.662 84.7014 70.4184 85.2201C69.1747 85.7387 68.5869 87.1674 69.1055 88.4111C69.6242 89.6548 71.0529 90.2425 72.2966 89.7239Z" fill="#868C98"/>
<path d="M158.788 137.465L128.886 149.935C128.319 150.172 128.06 150.846 128.309 151.441L130.271 156.147C130.519 156.742 131.18 157.032 131.747 156.796L161.649 144.326C162.217 144.089 162.475 143.415 162.227 142.82L160.265 138.114C160.017 137.519 159.356 137.229 158.788 137.465Z" fill="#E2E4E9"/>
<path d="M114.934 176.822C122.951 173.479 126.739 164.269 123.396 156.252C120.053 148.235 110.843 144.447 102.826 147.79C94.8095 151.133 91.0207 160.343 94.364 168.36C97.7073 176.376 106.917 180.165 114.934 176.822Z" fill="#868C98"/>
<path d="M114.352 175.427C121.599 172.405 125.024 164.081 122.002 156.834C118.979 149.587 110.655 146.162 103.408 149.184C96.1612 152.207 92.7365 160.531 95.7586 167.778C98.7807 175.025 107.105 178.45 114.352 175.427Z" fill="#FEFEFE"/>
<path d="M111.498 169.071C114.636 167.946 116.665 165.551 116.119 163.661C116.115 163.622 116.105 163.584 116.092 163.544C115.994 163.27 115.701 163.125 115.438 163.219C115.175 163.313 115.041 163.611 115.139 163.885C115.15 163.914 115.161 163.941 115.176 163.966H115.175C115.567 165.387 113.819 167.261 111.187 168.205C108.561 169.147 106.026 168.814 105.418 167.474C105.413 167.442 105.405 167.409 105.393 167.378C105.295 167.103 105.003 166.958 104.74 167.052C104.477 167.146 104.343 167.445 104.441 167.718C104.452 167.747 104.464 167.774 104.477 167.799C105.238 169.628 108.341 170.199 111.496 169.068L111.498 169.071Z" fill="#868C98"/>
<path d="M113.34 157.86C114.584 157.341 115.172 155.913 114.653 154.669C114.135 153.425 112.706 152.837 111.462 153.356C110.218 153.875 109.631 155.303 110.149 156.547C110.668 157.791 112.097 158.379 113.34 157.86Z" fill="#868C98"/>
<path d="M102.582 162.347C103.825 161.828 104.413 160.4 103.894 159.156C103.376 157.912 101.947 157.324 100.703 157.843C99.4598 158.362 98.872 159.79 99.3907 161.034C99.9093 162.278 101.338 162.866 102.582 162.347Z" fill="#868C98"/>
<path d="M98.8051 123.005C100.049 122.487 100.637 121.058 100.118 119.814C99.5992 118.571 98.1706 117.983 96.9269 118.501C95.6832 119.02 95.0954 120.449 95.6141 121.692C96.1327 122.936 97.5614 123.524 98.8051 123.005Z" fill="#868C98"/>
<path d="M88.0463 127.491C89.29 126.973 89.8778 125.544 89.3591 124.3C88.8405 123.057 87.4118 122.469 86.1681 122.988C84.9244 123.506 84.3367 124.935 84.8553 126.179C85.374 127.422 86.8026 128.01 88.0463 127.491Z" fill="#868C98"/>
<path d="M98.4058 128.909L92.524 131.362C91.606 131.745 90.9652 132.303 91.0927 132.609C91.2202 132.915 92.0678 132.853 92.9858 132.47L98.8677 130.017C99.7857 129.634 100.426 129.076 100.299 128.77C100.171 128.464 99.3238 128.527 98.4058 128.909Z" fill="#868C98"/>
<path d="M124.445 125.116L184.998 99.8646C189.655 97.9225 195.053 100.144 196.996 104.801L216.889 152.503L216.833 152.484L152.364 168.029C172.432 173.685 175.236 190.312 155.267 200.577C154.305 200.954 152.804 201.301 152.508 201.303C148.879 201.339 145.403 199.206 143.926 195.664L119.509 137.115C117.567 132.458 119.788 127.059 124.444 125.116H124.445Z" fill="#FEFEFE"/>
<path fill-rule="evenodd" clip-rule="evenodd" d="M156.478 201.65C156.304 201.742 156.131 201.833 155.959 201.921L155.89 201.957L155.818 201.985C155.574 202.08 155.24 202.196 154.871 202.311H154.869C154.056 202.564 153.074 202.809 152.524 202.815C148.182 202.857 144.208 200.267 142.531 196.246L141.77 194.42L111.288 207.131C105.436 209.572 98.6599 206.784 96.2196 200.932L95.4036 198.975L91.9831 200.402C86.1338 202.841 79.3533 200.051 76.9149 194.203L33.4375 89.9479C30.9981 84.0986 33.7879 77.3181 39.6371 74.8797L121.157 40.8832C127.007 38.4439 133.787 41.2337 136.226 47.082L137.042 49.0384L140.462 47.6128C146.313 45.1725 153.09 47.9603 155.53 53.8115L175.674 102.115L184.416 98.4688C189.844 96.2061 196.128 98.7914 198.39 104.218L218.022 151.294C223.256 153.178 228.796 157.12 229.056 163.157C229.348 170.015 222.658 174.512 217.045 176.749L156.478 201.65ZM155.268 200.576C175.236 190.311 172.432 173.684 152.365 168.029L215.57 152.789C216.369 152.596 216.661 152.446 217.494 152.709C230.456 156.812 231.845 169.226 216.478 175.349L155.269 200.577L155.268 200.576ZM154.785 199.471C160.7 195.832 168.209 190.339 167.328 182.748C166.479 175.432 158.229 171.252 151.954 169.484L146.387 167.915L216.288 151.061L196.997 104.801C195.054 100.144 189.656 97.9226 184.999 99.8647L176.258 103.511L174.862 104.093L162.203 109.372L160.807 109.953L124.446 125.117C119.789 127.059 117.569 132.457 119.511 137.115L137.333 179.853L137.915 181.249L142.584 192.443L143.165 193.839L143.927 195.666C145.328 199.027 148.531 201.12 151.955 201.293L154.785 199.473V199.471ZM141.188 193.024L136.519 181.829L96.7994 198.394L97.6154 200.351C99.7341 205.432 105.625 207.856 110.707 205.736L141.189 193.025L141.188 193.024ZM135.938 180.434L118.114 137.695C115.852 132.268 118.436 125.983 123.864 123.721L160.225 108.557L135.647 49.6202L134.831 47.6637C132.712 42.5825 126.82 40.1584 121.739 42.2781L40.2189 76.2746C35.1376 78.3933 32.7136 84.2848 34.8333 89.3661L78.3107 193.621C80.4295 198.702 86.321 201.126 91.4023 199.007L94.8227 197.581L135.939 180.435L135.938 180.434ZM161.621 107.975L174.279 102.696L154.135 54.3924C152.017 49.3111 146.126 46.888 141.044 49.0068L137.623 50.4333L161.62 107.975H161.621Z" fill="#868C98"/>
<path d="M155.73 153.935L185.41 141.556C185.825 141.384 186.306 141.581 186.479 141.996C186.652 142.411 186.454 142.892 186.039 143.065L156.359 155.442C155.944 155.615 155.463 155.417 155.29 155.003C155.117 154.588 155.315 154.108 155.73 153.935ZM140.598 146.691L143.551 139.094L136.078 135.847C135.665 135.668 135.475 135.185 135.654 134.772C135.833 134.359 136.317 134.169 136.729 134.349L144.145 137.571L147.074 130.035C147.236 129.616 147.712 129.407 148.131 129.57C148.55 129.732 148.759 130.208 148.596 130.627L145.643 138.222L153.118 141.47C153.53 141.65 153.721 142.132 153.541 142.544C153.362 142.956 152.879 143.147 152.466 142.968L145.051 139.746L142.121 147.282C141.958 147.701 141.483 147.911 141.064 147.747C140.645 147.584 140.436 147.109 140.598 146.691ZM176.44 131.743L179.393 124.147L171.919 120.899C171.507 120.72 171.316 120.237 171.496 119.825C171.676 119.412 172.158 119.222 172.571 119.401L179.986 122.622L182.915 115.086C183.078 114.668 183.554 114.458 183.973 114.621C184.393 114.783 184.601 115.259 184.439 115.678L181.486 123.273L188.96 126.521C189.373 126.7 189.563 127.183 189.384 127.595C189.204 128.007 188.721 128.198 188.309 128.019L180.893 124.797L177.963 132.333C177.801 132.751 177.325 132.961 176.907 132.798C176.487 132.636 176.279 132.16 176.441 131.741L176.44 131.743Z" fill="#868C98"/>
<path d="M155.267 200.576C175.235 190.311 172.431 173.684 152.364 168.029L215.569 152.789C216.368 152.596 216.66 152.446 217.493 152.709C230.455 156.812 231.844 169.226 216.477 175.349L155.268 200.577L155.267 200.576Z" fill="#CDD0D5"/>
<path fill-rule="evenodd" clip-rule="evenodd" d="M190.625 60.234C191.99 60.8301 193.328 61.4877 194.692 62.0781C195.18 62.2903 195.892 62.5994 196.438 62.5734C196.98 62.5475 197.648 62.1751 198.111 61.9178C199.397 61.2026 200.652 60.424 201.941 59.705L204.368 58.3485L203.331 60.928C202.797 62.2538 202.199 63.5555 201.671 64.8794C201.479 65.3603 201.212 66.0324 201.264 66.5623C201.317 67.1172 201.738 67.816 202.017 68.2845C202.803 69.5997 203.647 70.8832 204.437 72.2004L206.017 74.8336L203.203 73.6039C201.839 73.0077 200.5 72.3501 199.137 71.7597C198.648 71.5476 197.937 71.2384 197.391 71.2644C196.849 71.2903 196.181 71.6628 195.718 71.92C194.432 72.6352 193.177 73.4138 191.888 74.1338L189.461 75.4903L190.499 72.9107C191.033 71.585 191.631 70.2832 192.159 68.9594C192.351 68.4775 192.618 67.8064 192.566 67.2765C192.511 66.7216 192.092 66.0228 191.812 65.5543C191.026 64.2391 190.181 62.9555 189.391 61.6374L187.812 59.0042L190.626 60.234H190.625Z" fill="#868C98"/>
<path fill-rule="evenodd" clip-rule="evenodd" d="M190.231 61.1334C197.717 64.4042 195.355 64.5078 202.419 60.5613C199.488 67.8419 199.269 65.489 203.595 72.7053C196.108 69.4346 198.471 69.3309 191.407 73.2774C194.338 65.9968 194.557 68.3498 190.231 61.1334Z" fill="#FEFEFE"/>
<path fill-rule="evenodd" clip-rule="evenodd" d="M21.8138 150.494C23.1779 151.09 24.5171 151.748 25.8794 152.338C26.369 152.55 27.0794 152.859 27.6256 152.834C28.168 152.808 28.8352 152.435 29.2989 152.178C30.5853 151.463 31.841 150.684 33.1283 149.964L35.5562 148.608L34.5175 151.187C33.9837 152.513 33.3856 153.815 32.8576 155.139C32.6656 155.619 32.3987 156.291 32.4506 156.821C32.5043 157.376 32.9248 158.075 33.2051 158.543C33.9904 159.858 34.8352 161.141 35.6253 162.459L37.2045 165.093L34.3907 163.863C33.0266 163.267 31.6874 162.609 30.3251 162.019C29.8365 161.807 29.1251 161.498 28.5789 161.523C28.0365 161.549 27.3683 161.922 26.9056 162.179C25.6192 162.894 24.3645 163.673 23.0762 164.393L20.6483 165.749L21.6861 163.17C22.2198 161.844 22.8179 160.542 23.3459 159.219C23.5379 158.738 23.8048 158.066 23.753 157.536C23.6992 156.981 23.2787 156.282 22.9994 155.813C22.2141 154.498 21.3693 153.215 20.5792 151.897L19 149.263L21.8138 150.493V150.494Z" fill="#868C98"/>
<path fill-rule="evenodd" clip-rule="evenodd" d="M21.4202 151.394C28.9062 154.664 26.5437 154.768 33.6064 150.821C30.6765 158.102 30.4567 155.749 34.7824 162.964C27.2963 159.694 29.6589 159.59 22.5962 163.537C25.5261 156.256 25.7459 158.609 21.4202 151.394Z" fill="#FEFEFE"/>
</svg>
