<svg width="249" height="248" viewBox="0 0 249 248" fill="none" xmlns="http://www.w3.org/2000/svg">
<rect width="248" height="248" transform="translate(0.5)" fill="white"/>
<path d="M183.861 80.7543H60.4995C58.3798 80.7543 56.6614 84.2043 56.6614 88.4602V162.594C56.6614 166.85 58.3798 170.3 60.4995 170.3H183.861C185.981 170.3 187.7 166.85 187.7 162.594V88.4602C187.7 84.2043 185.981 80.7543 183.861 80.7543Z" fill="#E2E4E9"/>
<path d="M180.903 89.4807H63.4592V161.574H180.903V89.4807Z" fill="#868C98"/>
<path d="M179.392 90.9927H64.9712V160.063H179.392V90.9927Z" fill="#FEFEFE"/>
<path fill-rule="evenodd" clip-rule="evenodd" d="M140.225 97.2182H167.515C169.171 97.2182 170.526 98.5728 170.526 100.229V109.842C170.526 111.498 169.171 112.853 167.515 112.853H140.225C138.569 112.853 137.214 111.498 137.214 109.842V100.229C137.214 98.5728 138.569 97.2182 140.225 97.2182ZM145.078 137.956H165.534C167.155 137.956 168.48 139.282 168.48 140.902V150.31C168.48 151.931 167.155 153.256 165.534 153.256H145.078C143.458 153.256 142.132 151.931 142.132 150.31V140.902C142.132 139.282 143.458 137.956 145.078 137.956ZM100.835 115.97H138.438C140.292 115.97 141.808 117.486 141.808 119.339V130.097C141.808 131.95 140.292 133.466 138.438 133.466H100.835C98.9811 133.466 97.4653 131.95 97.4653 130.097V119.339C97.4653 117.486 98.9811 115.97 100.835 115.97ZM86.1075 137.956H114.358C115.979 137.956 117.305 139.282 117.305 140.902V150.31C117.305 151.931 115.979 153.256 114.358 153.256H86.1075C84.487 153.256 83.1613 151.931 83.1613 150.31V140.902C83.1613 139.282 84.487 137.956 86.1075 137.956ZM76.8473 97.2182H104.138C105.794 97.2182 107.149 98.5728 107.149 100.229V109.842C107.149 111.498 105.794 112.853 104.138 112.853H76.8473C75.1913 112.853 73.8368 111.498 73.8368 109.842V100.229C73.8368 98.5728 75.1913 97.2182 76.8473 97.2182Z" fill="#E2E4E9"/>
<path fill-rule="evenodd" clip-rule="evenodd" d="M39.2346 205.746H205.119C207.006 205.746 209.601 203.839 208.551 202.236L190.938 175.351C189.887 173.748 189.393 171.84 187.506 171.84H56.3562C54.4698 171.84 53.9542 173.734 52.9251 175.351L35.8026 202.236C34.7725 203.853 37.3472 205.746 39.2336 205.746H39.2346Z" fill="#FEFEFE"/>
<path d="M60.9615 193.719H75.9481C76.7698 193.719 77.774 194.462 77.4418 195.213L75.1196 200.448C74.7865 201.198 74.4476 201.941 73.6258 201.941H57.5948C56.774 201.941 55.6566 201.139 56.101 200.448L59.4678 195.213C59.9122 194.522 60.1398 193.719 60.9615 193.719ZM161.915 175H173.475C174.308 175 174.724 175.724 174.987 176.512L175.871 179.162C176.134 179.95 175.19 180.674 174.359 180.674H162.342C161.511 180.674 160.962 179.982 160.83 179.162L160.403 176.512C160.272 175.69 161.084 175 161.915 175ZM139.259 175H151.217C152.043 175 152.566 175.69 152.719 176.502L153.224 179.171C153.378 179.982 152.547 180.674 151.722 180.674H139.659C138.833 180.674 138.279 179.989 138.157 179.171L137.757 176.502C137.635 175.684 138.433 175 139.259 175ZM116.069 175H129.319C130.155 175 130.642 175.708 130.838 176.519L131.475 179.155C131.672 179.967 130.792 180.674 129.957 180.674H115.669C114.834 180.674 114.025 179.98 114.15 179.155L114.551 176.519C114.676 175.692 115.234 175 116.069 175ZM93.5382 175H106.83C107.663 175 108.582 175.716 108.344 176.514L107.553 179.161C107.315 179.958 106.872 180.675 106.039 180.675H92.533C91.7007 180.675 90.7234 179.939 91.0191 179.161L92.0252 176.514C92.3209 175.735 92.7058 175 93.5391 175H93.5382ZM71.0818 175H84.181C85.0134 175 85.9772 175.731 85.694 176.513L84.734 179.161C84.4508 179.943 84.0534 180.674 83.221 180.674H69.8818C69.0505 180.674 68.0252 179.919 68.3689 179.161L69.5689 176.513C69.9126 175.755 70.2495 175 71.0818 175ZM66.9462 183.889H86.7097C87.5401 183.889 88.454 184.603 88.2198 185.399L87.1657 188.987C86.9314 189.784 86.486 190.497 85.6556 190.497H64.887C64.0566 190.497 62.9631 189.707 63.3769 188.987L65.4361 185.399C65.8498 184.679 66.1158 183.889 66.9462 183.889ZM98.8287 183.889H112.31C113.133 183.889 113.946 184.574 113.806 185.384L113.176 189.003C113.035 189.813 112.503 190.498 111.68 190.498H98.0905C97.2687 190.498 96.4306 189.809 96.5948 189.003L97.333 185.384C97.4972 184.578 98.006 183.889 98.8287 183.889ZM122.954 183.889H136.665C137.492 183.889 138.054 184.572 138.168 185.391L138.663 188.996C138.775 189.814 137.987 190.498 137.161 190.498H122.954C122.128 190.498 121.452 189.822 121.452 188.996V185.391C121.452 184.564 122.128 183.889 122.954 183.889ZM147.718 183.889H160.555C161.387 183.889 161.775 184.623 162.068 185.402L163.415 188.983C163.707 189.762 162.733 190.496 161.902 190.496H148.392C147.559 190.496 147.031 189.801 146.879 188.983L146.205 185.402C146.051 184.584 146.885 183.889 147.718 183.889ZM169.281 183.889H178.945C179.786 183.889 180.034 184.7 180.473 185.417L182.642 188.97C183.079 189.686 181.953 190.498 181.113 190.498H171.012C170.172 190.498 169.851 189.725 169.484 188.97L167.753 185.417C167.385 184.661 168.44 183.889 169.281 183.889ZM168.94 193.719H184.011C184.833 193.719 185.068 194.517 185.504 195.212L188.787 200.448C189.223 201.143 188.115 201.94 187.295 201.94H170.92C170.099 201.94 169.717 201.216 169.427 200.448L167.448 195.212C167.158 194.444 168.12 193.719 168.94 193.719ZM87.5314 194.638L156.704 193.719C157.537 193.708 157.933 194.45 158.216 195.231L160.098 200.429C160.381 201.211 159.417 201.941 158.586 201.941H85.9407C85.1093 201.941 84.1397 201.209 84.4287 200.429L86.0194 196.15C86.3094 195.37 86.6991 194.649 87.5314 194.638Z" fill="#CDD0D5"/>
<path fill-rule="evenodd" clip-rule="evenodd" d="M208.788 205.834V214.764C208.788 216.727 207.181 218.334 205.218 218.334H39.1626C37.1994 218.334 35.5913 216.727 35.5913 214.764V205.855C36.6329 206.712 38.0269 207.258 39.2346 207.258H205.119C206.332 207.258 207.74 206.702 208.788 205.834Z" fill="#DCDDDD"/>
<path fill-rule="evenodd" clip-rule="evenodd" d="M105.061 207.258H139.318V209.552C139.318 210.813 138.286 211.845 137.025 211.845H107.355C106.094 211.845 105.062 210.813 105.062 209.552V207.258H105.061Z" fill="#FEFEFE"/>
<path fill-rule="evenodd" clip-rule="evenodd" d="M35.5856 202.795C35.5789 202.839 35.5731 202.885 35.5702 202.929V202.932C35.5645 203.023 35.5693 203.112 35.5808 203.201L35.5818 203.21L35.5923 203.273V203.275C35.6259 203.457 35.6912 203.634 35.7843 203.808L35.7853 203.81C35.937 204.092 36.1606 204.361 36.4314 204.604L36.4947 204.66L36.56 204.714L36.5696 204.722L36.6262 204.767L36.7453 204.858L36.7635 204.872L36.801 204.899L36.8346 204.922L36.8816 204.954L36.9066 204.971L36.9795 205.019L37.0477 205.062L37.0544 205.066L37.1293 205.112L37.1331 205.114L37.2061 205.156L37.2195 205.164L37.2839 205.199L37.3069 205.212L37.3616 205.24L37.3952 205.258L37.4403 205.281L37.6007 205.357L37.6669 205.387L37.6822 205.394L37.7591 205.427L37.7639 205.428L37.8454 205.461L37.8512 205.463L37.9271 205.492L37.9434 205.498L38.0096 205.521L38.0374 205.53L38.0499 205.534L38.1258 205.559L38.1315 205.561L38.1757 205.575L38.2247 205.59L38.2592 205.599L38.3187 205.616L38.3418 205.622L38.4119 205.641L38.4253 205.644L38.5059 205.662L38.5079 205.663L38.5904 205.68L38.5991 205.682L38.673 205.695L38.6922 205.699L38.7171 205.703L38.7805 205.713L38.7853 205.714L38.8381 205.72L38.8774 205.725L38.9197 205.73L38.9341 205.731L38.9965 205.737H39.0003L39.0599 205.74L39.1491 205.744H39.1501H39.1607L39.2394 205.745H103.554H140.835H205.124L205.202 205.744H205.213H205.214L205.303 205.74L205.363 205.737L205.393 205.734L205.402 205.733L205.476 205.725L205.484 205.724L205.524 205.719L205.577 205.713L205.605 205.709L205.669 205.698L205.687 205.694L205.77 205.679L205.852 205.662L205.855 205.661L205.935 205.643L205.948 205.639L206.017 205.62L206.042 205.614L206.101 205.597L206.136 205.587L206.184 205.572L206.23 205.558L206.324 205.527H206.325L206.351 205.519L206.419 205.495L206.434 205.489L206.512 205.459L206.517 205.457L206.598 205.425L206.604 205.422L206.68 205.39L206.696 205.383L206.76 205.355L206.787 205.342L206.841 205.317L206.877 205.299L206.887 205.294L206.967 205.254L206.999 205.237L207.056 205.208L207.078 205.195L207.144 205.159L207.156 205.152L207.231 205.109L207.233 205.108L207.309 205.062L207.316 205.057L207.382 205.015L207.4 205.004L207.455 204.967L207.482 204.948L207.528 204.917L207.587 204.876L207.599 204.867L207.643 204.835L207.669 204.816L207.692 204.798L207.737 204.763L207.796 204.716L207.804 204.709L207.869 204.655L207.87 204.654L207.933 204.599L207.991 204.545L207.994 204.542L208.01 204.527L208.054 204.485L208.077 204.462L208.112 204.426L208.142 204.395L208.168 204.367L208.218 204.313L208.232 204.297C208.264 204.26 208.295 204.223 208.325 204.185L208.373 204.123L208.376 204.12L208.419 204.06C208.462 204 208.502 203.939 208.538 203.877L208.547 203.861C208.656 203.672 208.733 203.476 208.771 203.278L208.773 203.263C208.789 203.174 208.796 203.086 208.796 202.998L208.793 202.93C208.79 202.884 208.785 202.839 208.777 202.793C208.747 202.605 208.675 202.417 208.554 202.234L190.941 175.349C189.89 173.746 189.396 171.838 187.508 171.838H56.3591C54.4727 171.838 53.9571 173.732 52.928 175.349L35.8054 202.234C35.6883 202.418 35.6183 202.605 35.5885 202.793L35.5856 202.795ZM64.3674 79.2432H179.995C185.064 79.2432 189.212 83.3904 189.212 88.4602V162.595C189.212 165.826 187.528 168.682 184.993 170.329H187.506C190.3 170.329 190.958 172.623 192.202 174.523L209.815 201.408C210.266 202.096 210.398 202.786 210.299 203.436V214.764C210.299 217.563 208.014 219.847 205.217 219.847H39.1616C36.3632 219.847 34.0794 217.563 34.0794 214.764V203.538C33.9536 202.863 34.0688 202.144 34.5277 201.424L51.6502 174.54C52.8742 172.618 53.5683 170.329 56.3571 170.329H59.3687C56.8343 168.682 55.1504 165.826 55.1504 162.595V88.4602C55.1504 83.3904 59.2976 79.2432 64.3674 79.2432ZM64.3674 80.7543H179.996C184.234 80.7543 187.701 84.2208 187.701 88.4602V162.595C187.701 166.834 184.234 170.3 179.996 170.3H64.3674C60.129 170.3 56.6624 166.834 56.6624 162.595V88.4602C56.6624 84.2218 60.1299 80.7543 64.3674 80.7543ZM140.83 207.258V209.552C140.83 211.647 139.121 213.357 137.025 213.357H107.355C105.26 213.357 103.55 211.647 103.55 209.552V207.258H39.2355C39.1607 207.258 39.0839 207.256 39.0071 207.252L38.9715 207.25L38.9494 207.248L38.8919 207.243L38.8381 207.238H38.8333L38.7747 207.232L38.7162 207.226L38.7027 207.224L38.6576 207.218L38.5991 207.21L38.5674 207.205L38.5405 207.202L38.4819 207.192L38.432 207.183L38.4234 207.181L38.3043 207.158L38.2957 207.156H38.2938L38.1853 207.133L38.1574 207.127L38.1258 207.119L38.0662 207.105L38.0202 207.093L38.0058 207.089L37.9462 207.073L37.8867 207.057L37.8819 207.056L37.8272 207.039L37.7677 207.021L37.7447 207.014L37.7082 207.003L37.6487 206.984L37.6074 206.97L37.5891 206.964L37.5296 206.942L37.4701 206.921L37.4106 206.899L37.352 206.877L37.3338 206.87L37.2925 206.854L37.2339 206.83L37.1974 206.816L37.1754 206.806L37.1168 206.781L37.0582 206.756L36.9997 206.729L36.9411 206.702L36.9277 206.697L36.8835 206.676L36.8259 206.648L36.7952 206.632L36.7683 206.619L36.7117 206.59L36.6637 206.565L36.6551 206.56L36.5984 206.531L36.5427 206.5L36.5341 206.495L36.4861 206.468L36.4304 206.436L36.4045 206.422L36.3747 206.404L36.32 206.371L36.3114 206.365L36.2653 206.337L36.2106 206.303L36.1568 206.268L36.153 206.267L36.1031 206.234L36.0502 206.198L36.0003 206.165L35.9965 206.163L35.9447 206.126L35.9082 206.101L35.8919 206.09L35.84 206.052L35.7891 206.015L35.7382 205.977L35.6883 205.937L35.6422 205.901L35.6384 205.898L35.5894 205.858V214.766C35.5894 216.731 37.1965 218.337 39.1607 218.337H205.216C207.179 218.337 208.786 216.73 208.786 214.766V205.836L208.736 205.877L208.688 205.916L208.686 205.917L208.635 205.956L208.584 205.996L208.533 206.034L208.481 206.073L208.452 206.094L208.448 206.096L208.375 206.148L208.33 206.179L208.322 206.185L208.269 206.22L208.215 206.256L208.173 206.284L208.161 206.292L208.106 206.326L208.081 206.341L208.051 206.36L207.996 206.393L207.954 206.418L207.939 206.426L207.884 206.459L207.827 206.49L207.824 206.492L207.77 206.522L207.714 206.553L207.656 206.582L207.598 206.612L207.561 206.631L207.54 206.642L207.482 206.671L207.428 206.698L207.424 206.7L207.365 206.726L207.307 206.753L207.292 206.76L207.248 206.779L207.162 206.817L207.157 206.819L207.129 206.83L207.069 206.854L207.02 206.873L207.01 206.877L206.891 206.922L206.883 206.925L206.771 206.964L206.745 206.973L206.71 206.985L206.651 207.004L206.607 207.018L206.59 207.023L206.53 207.041L206.469 207.06H206.468L206.349 207.092L206.329 207.097L206.193 207.131H206.191L206.168 207.136L206.073 207.157L206.054 207.162L206.049 207.163L206.03 207.167L205.93 207.186L205.917 207.188L205.87 207.196L205.811 207.205L205.78 207.21L205.751 207.214L205.645 207.228L205.633 207.23L205.575 207.237L205.516 207.243L205.509 207.244L205.497 207.245L205.399 207.252L205.376 207.254C205.287 207.26 205.199 207.263 205.112 207.263H140.824L140.83 207.258ZM139.318 207.258V209.552C139.318 210.813 138.286 211.845 137.025 211.845H107.355C106.094 211.845 105.062 210.813 105.062 209.552V207.258H139.319H139.318Z" fill="#868C98"/>
<path d="M122.181 126.706C144.645 126.706 162.856 108.495 162.856 86.0314C162.856 63.5676 144.645 45.3572 122.181 45.3572C99.7177 45.3572 81.5072 63.5676 81.5072 86.0314C81.5072 108.495 99.7177 126.706 122.181 126.706Z" fill="#868C98"/>
<path d="M122.181 125.194C143.81 125.194 161.344 107.66 161.344 86.0314C161.344 64.4027 143.81 46.8692 122.181 46.8692C100.553 46.8692 83.0192 64.4027 83.0192 86.0314C83.0192 107.66 100.553 125.194 122.181 125.194Z" fill="#CDD0D5"/>
<path fill-rule="evenodd" clip-rule="evenodd" d="M122.181 54.7277C139.47 54.7277 153.485 68.7428 153.485 86.0314C153.485 103.32 139.47 117.335 122.181 117.335C104.893 117.335 90.8778 103.32 90.8778 86.0314C90.8778 68.7428 104.893 54.7277 122.181 54.7277Z" fill="#868C98"/>
<path d="M122.181 115.823C138.635 115.823 151.973 102.485 151.973 86.0314C151.973 69.5779 138.635 56.2397 122.181 56.2397C105.728 56.2397 92.3898 69.5779 92.3898 86.0314C92.3898 102.485 105.728 115.823 122.181 115.823Z" fill="#FEFEFE"/>
<path fill-rule="evenodd" clip-rule="evenodd" d="M128.228 40.3805V47.3338C126.258 47.0275 124.238 46.8691 122.181 46.8691C120.125 46.8691 118.105 47.0285 116.134 47.3338V40.3805H128.228Z" fill="#868C98"/>
<path fill-rule="evenodd" clip-rule="evenodd" d="M126.717 41.8916V45.6096C125.227 45.4445 123.715 45.3562 122.181 45.3562C120.648 45.3562 119.136 45.4436 117.646 45.6096V41.8916H126.717Z" fill="#FEFEFE"/>
<path fill-rule="evenodd" clip-rule="evenodd" d="M118.173 85.2816V71.7332C118.173 69.6989 119.838 68.0343 121.872 68.0343C123.907 68.0343 125.571 69.6989 125.571 71.7332V82.0973H130.452C132.486 82.0973 134.151 83.7619 134.151 85.7962C134.151 87.8304 132.486 89.4951 130.452 89.4951H121.981C120.117 89.4951 118.564 88.0973 118.316 86.2992C118.223 85.9757 118.172 85.634 118.172 85.2816H118.173Z" fill="#888E9A"/>
<path fill-rule="evenodd" clip-rule="evenodd" d="M157.925 58.7933L153.737 62.8378C153.436 62.4288 153.127 62.0266 152.811 61.6301L155.781 58.7636L151.645 54.5357L148.785 57.2967C148.414 56.953 148.038 56.6161 147.654 56.2868L151.676 52.4045L157.925 58.7933Z" fill="#868C98"/>
<path fill-rule="evenodd" clip-rule="evenodd" d="M155.78 58.7626L153.903 60.5751C152.665 59.0353 151.318 57.5885 149.875 56.2445L151.645 54.5357L155.78 58.7636V58.7626Z" fill="#FEFEFE"/>
<path fill-rule="evenodd" clip-rule="evenodd" d="M115.539 29.833H128.825C132.245 29.833 135.044 32.6314 135.044 36.0519C135.044 39.4723 132.245 42.2708 128.825 42.2708H115.539C112.119 42.2708 109.32 39.4723 109.32 36.0519C109.32 32.6314 112.119 29.833 115.539 29.833Z" fill="#868C98"/>
<path d="M127.07 31.345H117.292C113.724 31.345 110.831 33.4525 110.831 36.0523C110.831 38.6521 113.724 40.7597 117.292 40.7597H127.07C130.638 40.7597 133.531 38.6521 133.531 36.0523C133.531 33.4525 130.638 31.345 127.07 31.345Z" fill="#CDD0D5"/>
<path fill-rule="evenodd" clip-rule="evenodd" d="M157.098 47.5699L163.313 53.6035C165.122 55.3603 165.166 58.2711 163.409 60.0807C161.652 61.8912 158.741 61.9344 156.931 60.1767L150.715 54.1431C148.906 52.3863 148.862 49.4755 150.619 47.6659C152.376 45.8554 155.287 45.8122 157.098 47.569V47.5699ZM156.044 48.6548L162.26 54.6883L162.315 54.744L162.369 54.8007L162.421 54.8582L162.471 54.9168L162.52 54.9773L162.567 55.0378L162.612 55.0992L162.655 55.1616L162.696 55.225L162.737 55.2893L162.775 55.3546L162.812 55.4208L162.846 55.488L162.88 55.5552L162.911 55.6224L162.941 55.6915L162.969 55.7607L162.996 55.8298L163.021 55.8999L163.044 55.9709L163.065 56.0419L163.084 56.1139L163.102 56.1859L163.119 56.2579L163.133 56.3309L163.146 56.4039L163.156 56.4768L163.165 56.5498L163.172 56.6237L163.177 56.6967L163.181 56.7706L163.183 56.8445V56.9184L163.181 56.9923L163.177 57.0662L163.172 57.1402L163.166 57.2141L163.157 57.2871L163.147 57.36L163.135 57.433L163.122 57.5059L163.106 57.5779L163.089 57.6499L163.07 57.7219L163.05 57.793L163.028 57.864L163.004 57.9351L162.978 58.0052L162.95 58.0742L162.92 58.1434L162.888 58.2115L162.855 58.2788L162.82 58.3459L162.784 58.4122L162.745 58.4775L162.706 58.5418L162.665 58.6061L162.621 58.6695L162.576 58.7319L162.529 58.7933L162.48 58.8538L162.429 58.9133L162.378 58.9719L162.324 59.0295L162.269 59.0852L162.212 59.1389L162.155 59.1917L162.096 59.2426L162.037 59.2915L161.976 59.3386L161.915 59.3837L161.852 59.4279L161.789 59.4701L161.725 59.5104L161.66 59.5488C161.615 59.5738 161.571 59.5978 161.527 59.6208L161.46 59.6544L161.392 59.6861L161.323 59.7159L161.254 59.7447C161.208 59.7629 161.161 59.7802 161.114 59.7955L156.047 48.6557L156.044 48.6548ZM159.078 59.7754L159.008 59.7495C158.962 59.7312 158.915 59.713 158.87 59.6928C158.802 59.6621 158.733 59.6295 158.667 59.5939L158.601 59.5575L158.536 59.5191L158.471 59.4788L158.407 59.4375L158.344 59.3942L158.281 59.3492L158.22 59.3021L158.159 59.2532L158.1 59.2032L158.041 59.1514L157.984 59.0976L151.769 53.064L151.713 53.0083L151.659 52.9517L151.606 52.8941L151.556 52.8355L151.507 52.7751L151.46 52.7146L151.414 52.6532L151.37 52.5908L151.328 52.5274L151.288 52.4631L151.249 52.3978L151.212 52.3315L151.177 52.2643L151.144 52.1972L151.112 52.1299L151.082 52.0618L151.053 51.9927L151.027 51.9235L151.002 51.8535L150.979 51.7824L150.957 51.7114L150.938 51.6403L150.92 51.5683L150.904 51.4963L150.889 51.4234L150.877 51.3504L150.866 51.2775L150.858 51.2045L150.851 51.1306L150.845 51.0576L150.841 50.9837L150.839 50.9098V50.8359L150.841 50.7619L150.845 50.688L150.85 50.6141L150.857 50.5402L150.865 50.4672L150.876 50.3942L150.888 50.3213L150.902 50.2483L150.917 50.1763L150.934 50.1043L150.954 50.0323L150.975 49.9613L150.997 49.8902L151.022 49.8202L151.048 49.7501L151.076 49.681L151.105 49.6119L151.137 49.5437L151.171 49.4765L151.205 49.4102L151.242 49.344L151.28 49.2788L151.32 49.2144L151.363 49.1511L151.406 49.0887L151.451 49.0262L151.498 48.9658L151.547 48.9053L151.598 48.8468L151.651 48.7892L151.704 48.7325L151.759 48.6768L151.816 48.6231L151.873 48.5702L151.932 48.5194L151.991 48.4704L152.052 48.4234L152.113 48.3782L152.176 48.3341L152.239 48.2919L152.303 48.2515L152.369 48.2132C152.412 48.1882 152.456 48.1642 152.501 48.1412L159.075 59.7888L159.078 59.7754ZM153.714 47.7975C153.763 47.7946 153.812 47.7927 153.86 47.7917H153.934L154.007 47.7927L154.08 47.7955L154.153 47.8003L154.226 47.8071L154.299 47.8157L154.372 47.8262L154.445 47.8378L154.518 47.8512L154.591 47.8666L154.663 47.8839L154.734 47.9031L154.805 47.9242L154.876 47.9462L154.946 47.9702L155.016 47.9962L155.085 48.024L155.155 48.0528L155.223 48.0835L155.29 48.1162L155.357 48.1508L155.423 48.1872L155.49 48.2256L155.554 48.2659L155.618 48.3082L155.682 48.3514L155.744 48.3965L155.805 48.4435L155.866 48.4925L155.925 48.5434L155.984 48.5962L156.042 48.6499L153.711 47.7927L153.714 47.7975Z" fill="#868C98"/>
<path d="M161.439 53.8911L156.641 49.0657C155.141 47.0657 152.885 47.5029 151.704 48.7192C150.524 49.9356 150.141 52.0657 152.59 53.856L157.164 58.2958C158.641 60.5657 161.144 60.2441 162.324 59.0278C163.505 57.8115 164.141 56.0657 161.439 53.8911Z" fill="#CDD0D5"/>
<path d="M180.335 53.2685H169.449C169.065 53.2685 168.753 53.5801 168.753 53.9645C168.753 54.3489 169.065 54.6605 169.449 54.6605H180.335C180.72 54.6605 181.031 54.3489 181.031 53.9645C181.031 53.5801 180.72 53.2685 180.335 53.2685Z" fill="#868C98"/>
<path d="M175.6 28.9486L163.185 43.7865C162.746 44.3104 162.63 44.9351 162.925 45.1817C163.22 45.4284 163.814 45.2036 164.252 44.6797L176.667 29.8419C177.106 29.318 177.222 28.6933 176.927 28.4466C176.632 28.2 176.038 28.4247 175.6 28.9486Z" fill="#868C98"/>
<path d="M155.882 29.2862L155.975 40.1722C155.978 40.5566 156.293 40.8655 156.677 40.8622C157.061 40.8589 157.37 40.5446 157.367 40.1603L157.274 29.2743C157.27 28.8899 156.956 28.581 156.572 28.5843C156.187 28.5876 155.879 28.9018 155.882 29.2862Z" fill="#868C98"/>
<path fill-rule="evenodd" clip-rule="evenodd" d="M213.163 141.804C214.112 142.951 215.012 144.141 215.963 145.282C216.305 145.692 216.8 146.287 217.299 146.509C217.796 146.73 218.56 146.699 219.089 146.677C220.559 146.618 222.031 146.488 223.505 146.425L226.283 146.307L224.194 148.143C223.121 149.087 222 149.98 220.934 150.924C220.546 151.268 220.004 151.747 219.812 152.244C219.611 152.763 219.672 153.577 219.711 154.121C219.819 155.649 219.997 157.176 220.109 158.707L220.334 161.771L218.374 159.406C217.425 158.26 216.525 157.069 215.574 155.929C215.232 155.519 214.737 154.924 214.238 154.701C213.741 154.48 212.977 154.512 212.448 154.533C210.979 154.593 209.507 154.723 208.032 154.786L205.254 154.904L207.342 153.068C208.416 152.124 209.536 151.232 210.603 150.287C210.991 149.943 211.532 149.464 211.724 148.968C211.926 148.449 211.865 147.635 211.826 147.091C211.717 145.563 211.54 144.036 211.428 142.504L211.203 139.441L213.163 141.805V141.804Z" fill="#868C98"/>
<path fill-rule="evenodd" clip-rule="evenodd" d="M212.406 142.43C217.618 148.721 215.462 147.75 223.546 147.406C217.652 152.588 218.515 150.388 219.13 158.779C213.918 152.488 216.074 153.46 207.99 153.804C213.885 148.621 213.021 150.822 212.407 142.43H212.406Z" fill="#FEFEFE"/>
<path fill-rule="evenodd" clip-rule="evenodd" d="M36.1203 81.5175C35.1709 82.6637 34.2714 83.8541 33.32 84.9946C32.9782 85.4045 32.4829 85.9997 31.9837 86.2224C31.4874 86.4432 30.7232 86.4115 30.1942 86.3904C28.7235 86.3309 27.2518 86.2013 25.7782 86.1379L23 86.0199L25.089 87.8563C26.1622 88.8 27.2826 89.6928 28.3491 90.6375C28.737 90.9812 29.2784 91.4602 29.4704 91.9565C29.672 92.4759 29.6106 93.2899 29.5722 93.8343C29.4637 95.3616 29.2861 96.889 29.1738 98.4202L28.9491 101.484L30.9085 99.1191C31.8579 97.9728 32.7574 96.7824 33.7088 95.6419C34.0506 95.232 34.5459 94.6368 35.0451 94.4141C35.5414 94.1933 36.3056 94.225 36.8346 94.2461C38.3043 94.3056 39.776 94.4362 41.2506 94.4986L44.0288 94.6167L41.9408 92.7812C40.8666 91.8375 39.7472 90.9447 38.6797 90C38.2918 89.6563 37.7504 89.1773 37.5584 88.681C37.3568 88.1616 37.4182 87.3475 37.4566 86.8042C37.5661 85.2759 37.7427 83.7495 37.855 82.2173L38.0797 79.1539L36.1203 81.5184V81.5175Z" fill="#868C98"/>
<path fill-rule="evenodd" clip-rule="evenodd" d="M36.8758 82.1434C31.664 88.4343 33.8202 87.4628 25.736 87.1191C31.6304 92.3012 30.7674 90.1008 30.152 98.4922C35.3638 92.2013 33.2077 93.1728 41.2918 93.5165C35.3974 88.3344 36.2605 90.5347 36.8749 82.1434H36.8758Z" fill="#FEFEFE"/>
</svg>
