<svg width="249" height="248" viewBox="0 0 249 248" fill="none" xmlns="http://www.w3.org/2000/svg">
<rect width="248" height="248" transform="translate(0.5)" fill="white"/>
<path d="M190.5 133.5L57.8742 133.908C55.5001 136 52.8746 138.615 52.8746 144.422V227.42C52.8746 233.226 55.5001 236.5 57.8742 237.934H192.188C195 236.5 197.188 233.226 197.188 227.42V144.422C197.188 138.615 193.261 133.5 190.5 133.5Z" fill="#FEFEFE"/>
<path fill-rule="evenodd" clip-rule="evenodd" d="M57.5939 135.661L70.3658 117.461C70.9619 116.612 71.7731 114.931 73.4032 114.931H174.393C178.106 114.931 178.77 115.98 180.782 118.865L192.513 135.692C190.84 134.567 188.83 133.907 186.673 133.907H63.3875C61.2506 133.907 59.2576 134.554 57.5939 135.66V135.661Z" fill="#CED0D5"/>
<path fill-rule="evenodd" clip-rule="evenodd" d="M102.297 118.34H147.476L151.156 128.833H99.0439L102.297 118.34ZM103.412 119.642H146.405L149.023 127.112H101.095L103.411 119.642H103.412Z" fill="#868B97"/>
<path fill-rule="evenodd" clip-rule="evenodd" d="M103.411 119.642H146.405L149.023 127.112H101.095L103.411 119.642Z" fill="#FEFEFE"/>
<path fill-rule="evenodd" clip-rule="evenodd" d="M63.3885 132.396H186.674C188.085 132.396 189.442 132.643 190.704 133.096L180.783 118.865C178.771 115.979 178.106 114.931 174.394 114.931H74.2912C72.5603 114.931 71.441 115.93 70.3658 117.461L59.4064 133.079C60.6544 132.638 61.9946 132.396 63.3885 132.396ZM193.557 134.577C196.66 136.757 198.699 140.363 198.699 144.422V227.42C198.699 234.034 193.287 239.446 186.673 239.446H63.3875C56.7731 239.446 51.3616 234.034 51.3616 227.42V144.422C51.3616 143.362 51.5008 142.334 51.7619 141.354L51.7437 141.366L51.7677 141.332C52.5098 138.562 54.2205 136.18 56.511 134.572L69.1283 116.594C70.2429 115.006 71.1501 113.42 73.4032 113.42H174.393C178.667 113.42 179.738 114.718 182.022 118.001L193.557 134.577ZM186.673 237.934H63.3875C57.6045 237.934 52.8736 233.203 52.8736 227.42V144.422C52.8736 138.639 57.6045 133.908 63.3875 133.908H186.673C192.456 133.908 197.187 138.639 197.187 144.422V227.42C197.187 233.203 192.456 237.934 186.673 237.934Z" fill="#868B97"/>
<path d="M179.228 42.8945C186.989 32.5365 188.757 20.7505 183.177 16.5698C177.597 12.3891 166.782 17.3968 159.021 27.7549C151.261 38.1129 149.493 49.8989 155.073 54.0796C160.653 58.2603 171.468 53.2525 179.228 42.8945Z" fill="#FEFEFE"/>
<path fill-rule="evenodd" clip-rule="evenodd" d="M178.248 44.1548L178.34 44.0396L178.548 43.7785C178.632 43.6719 178.715 43.5653 178.799 43.4578L178.877 43.357C178.993 43.2073 179.108 43.0565 179.222 42.9039L179.229 42.8953L179.269 42.8415L179.551 42.4594L179.751 42.182L179.845 42.0524C186.315 32.9775 188.214 23.006 184.652 18.0947L187.177 19.9858C187.301 20.0799 187.422 20.1769 187.541 20.2767C187.582 20.3055 187.622 20.3343 187.662 20.3641C193.243 24.5449 191.568 36.206 183.921 46.4117C176.275 56.6165 165.554 61.5001 159.973 57.3193C159.933 57.2895 159.894 57.2578 159.855 57.2271C159.726 57.1417 159.599 57.0534 159.474 56.9593L156.949 55.0681C162.569 57.0725 171.401 52.6345 178.247 44.1557L178.248 44.1548Z" fill="#CED0D5"/>
<path fill-rule="evenodd" clip-rule="evenodd" d="M157.812 26.8489C166.074 15.8223 177.835 10.6787 184.084 15.3606C184.714 15.8339 185.264 16.3897 185.735 17.0166L188.082 18.7753C188.213 18.8732 188.341 18.9759 188.468 19.0815C188.501 19.1046 188.535 19.1286 188.568 19.1535C192.317 21.9634 192.868 27.0236 192.247 31.3436C191.428 37.0441 188.555 42.7474 185.131 47.318C181.707 51.8876 177.04 56.2479 171.799 58.6354C167.828 60.445 162.817 61.3378 159.067 58.5289C159.034 58.5039 159.002 58.479 158.97 58.453C158.834 58.3609 158.699 58.2668 158.568 58.1689L156.221 56.4101C155.486 56.1346 154.799 55.7631 154.167 55.2908C147.918 50.6089 149.551 37.8754 157.812 26.8498V26.8489ZM187.254 20.0444C189.15 26.1135 186.698 35.4466 180.438 43.8015C174.179 52.1564 165.911 57.1321 159.553 57.0169C159.652 57.0898 159.753 57.1589 159.855 57.2261C159.894 57.2569 159.933 57.2886 159.973 57.3183C165.554 61.4991 176.275 56.6156 183.921 46.4108C191.568 36.205 193.242 24.5439 187.662 20.3631C187.622 20.3334 187.581 20.3045 187.541 20.2757C187.446 20.197 187.352 20.1203 187.254 20.0444ZM159.022 27.7551C166.782 17.3977 177.597 12.3893 183.176 16.5701C188.756 20.7509 186.988 32.5369 179.228 42.8943C171.467 53.2527 160.652 58.2601 155.073 54.0793C149.494 49.8985 151.261 38.1126 159.022 27.7551Z" fill="#868B97"/>
<path d="M83.7671 67.295C74.3666 58.3985 70.6312 47.0812 75.4238 42.0171C80.2164 36.953 91.7221 40.0598 101.123 48.9563C110.523 57.8528 114.258 69.1701 109.466 74.2342C104.673 79.2983 93.1675 76.1915 83.7671 67.295Z" fill="#FEFEFE"/>
<path fill-rule="evenodd" clip-rule="evenodd" d="M84.9472 68.3717L84.8368 68.2738L84.5872 68.052C84.4864 67.9618 84.3866 67.8706 84.2858 67.7785L84.1917 67.692C84.0525 67.5644 83.9133 67.4348 83.775 67.3033L83.7664 67.2956L83.7174 67.2495L83.3747 66.9202L83.1299 66.6802L83.0157 66.5679C75.1043 58.717 71.5466 49.2111 74.2259 43.7679L72.0573 46.0594C71.9498 46.1737 71.847 46.2898 71.7482 46.4079C71.7126 46.4434 71.6771 46.478 71.6426 46.5145C66.8493 51.5785 70.4723 62.7893 79.7344 71.5541C88.9955 80.3189 100.389 83.3199 105.181 78.2549C105.216 78.2185 105.248 78.181 105.282 78.1446C105.394 78.038 105.505 77.9295 105.612 77.8162L107.781 75.5247C102.58 78.4508 93.1254 75.5698 84.9443 68.3717H84.9472Z" fill="#CED0D5"/>
<path fill-rule="evenodd" clip-rule="evenodd" d="M102.162 47.8584C92.1549 38.388 79.6922 35.3074 74.3258 40.9781C73.7834 41.5502 73.336 42.1915 72.9779 42.8895L70.9619 45.0197C70.8486 45.1387 70.7402 45.2616 70.6336 45.3864C70.6038 45.4152 70.575 45.444 70.5472 45.4738C67.3264 48.877 67.6403 53.9573 68.9824 58.1103C70.7527 63.59 74.5504 68.725 78.6986 72.6504C82.8458 76.5759 88.1824 80.0847 93.7523 81.5506C97.9725 82.6623 103.062 82.6949 106.283 79.2927C106.312 79.2629 106.339 79.2322 106.367 79.2015C106.486 79.0882 106.602 78.972 106.715 78.853L108.731 76.7228C109.408 76.3263 110.023 75.8444 110.566 75.2722C115.932 69.6015 112.171 57.3279 102.164 47.8575L102.162 47.8584ZM71.993 46.1304C71.1501 52.4328 75.1466 61.2168 82.7286 68.3928C90.3107 75.5688 99.3011 79.0748 105.548 77.8863C105.461 77.9746 105.374 78.06 105.285 78.1445C105.251 78.182 105.219 78.2194 105.184 78.2549C100.391 83.3199 88.9984 80.3189 79.7373 71.5541C70.4752 62.7883 66.8522 51.5784 71.6455 46.5144C71.68 46.478 71.7155 46.4434 71.751 46.4079C71.8298 46.3147 71.9104 46.2226 71.9939 46.1314L71.993 46.1304ZM101.122 48.9567C91.7219 40.0604 80.2163 36.9528 75.424 42.0168C70.6317 47.0808 74.367 58.3983 83.7674 67.2946C93.1677 76.1909 104.673 79.2975 109.466 74.2335C114.258 69.1695 110.523 57.852 101.122 48.9557V48.9567Z" fill="#868B97"/>
<path fill-rule="evenodd" clip-rule="evenodd" d="M115.592 98.052C122.773 87.2837 133.298 81.6907 139.098 85.5595C144.898 89.4283 143.779 101.293 136.598 112.061C129.417 122.83 118.893 128.423 113.092 124.554C107.291 120.686 108.411 108.82 115.591 98.052H115.592Z" fill="#FEFEFE"/>
<path fill-rule="evenodd" clip-rule="evenodd" d="M135.688 113.373L135.773 113.254L135.967 112.982C136.045 112.872 136.123 112.76 136.2 112.648L136.273 112.543C136.379 112.387 136.486 112.23 136.592 112.072L136.598 112.063L136.636 112.007L136.897 111.609L137.082 111.321L137.168 111.186C143.131 101.769 144.481 91.7093 140.654 87.0005L143.279 88.7506C143.408 88.838 143.535 88.9282 143.658 89.0204C143.7 89.0473 143.742 89.0732 143.785 89.101C149.586 92.9698 148.553 104.706 141.477 115.315C137.791 120.842 133.194 124.97 128.813 127.112H117.533L115.02 125.436C120.742 127.129 129.317 122.213 135.688 113.373Z" fill="#CED0D5"/>
<path fill-rule="evenodd" clip-rule="evenodd" d="M114.335 97.213C121.979 85.7497 133.442 79.9695 139.937 84.301C140.593 84.7388 141.173 85.2639 141.677 85.8639L144.117 87.4911C144.254 87.5823 144.387 87.6773 144.519 87.7753C144.555 87.7964 144.588 87.8194 144.623 87.8415C148.521 90.4412 149.348 95.4639 148.965 99.8117C148.46 105.549 145.903 111.401 142.734 116.153C139.956 120.318 136.216 124.375 131.898 127.112H128.813C133.194 124.97 137.791 120.841 141.477 115.315C148.552 104.705 149.585 92.9698 143.785 89.101C143.742 89.0732 143.7 89.0473 143.658 89.0204C143.56 88.9474 143.461 88.8754 143.359 88.8053C145.586 94.7612 143.648 104.215 137.857 112.9C132.475 120.97 125.202 126.221 119.101 127.113H114.809L114.365 126.817C113.617 126.582 112.91 126.249 112.253 125.811C105.758 121.48 106.689 108.676 114.334 97.214L114.335 97.213ZM115.592 98.052C122.773 87.2837 133.298 81.6908 139.098 85.5596C144.898 89.4284 143.779 101.293 136.598 112.061C129.417 122.83 118.893 128.423 113.093 124.554C107.291 120.686 108.411 108.82 115.591 98.052H115.592Z" fill="#868B97"/>
<path fill-rule="evenodd" clip-rule="evenodd" d="M125.108 168.822C123.74 167.312 122.554 164.725 121.055 162.97C104.414 143.496 81.9366 168.936 92.7261 184.883C98.4285 193.312 115.779 210.968 125.108 215.962C133.81 209.856 158.083 190.012 160.185 178.954C161.883 170.028 156.984 161.657 150.141 158.029C140.954 153.158 134.573 157.579 130.838 161.297C128.013 164.11 127.022 165.431 125.108 168.822Z" fill="#FEFEFE"/>
<path fill-rule="evenodd" clip-rule="evenodd" d="M124.956 166.112C126.33 163.922 127.637 162.35 129.773 160.225C135.902 154.123 142.956 152.507 150.85 156.693C158.879 160.95 163.368 170.312 161.671 179.236C159.486 190.729 135.575 210.464 125.978 217.2L125.216 217.734L124.397 217.296C121.445 215.716 118.538 213.476 115.955 211.352C112.677 208.657 109.53 205.76 106.499 202.79C103.48 199.831 100.542 196.763 97.7459 193.592C95.561 191.115 93.3261 188.467 91.4743 185.73C85.7949 177.336 88.48 166.149 95.5735 159.537C98.9853 156.357 103.411 154.309 108.127 154.424C113.837 154.563 118.593 157.762 122.204 161.988C123.266 163.23 124.065 164.746 124.956 166.112ZM89.945 176.714C96.3549 175.918 102.663 176.598 106.939 179.536C124.943 191.909 142.231 190.755 155.12 188.438C155.274 188.238 159.524 182.434 160.185 178.953C161.883 170.027 156.984 161.656 150.141 158.028C140.954 153.157 134.573 157.578 130.838 161.296C128.013 164.109 127.022 165.431 125.108 168.822C123.74 167.312 122.554 164.725 121.055 162.97C107.247 146.811 89.4237 161.576 89.9191 176.182C89.9248 176.359 89.9335 176.537 89.945 176.714Z" fill="#868B97"/>
<path fill-rule="evenodd" clip-rule="evenodd" d="M227.925 144.756C227.214 146.399 226.43 148.011 225.725 149.652C225.473 150.241 225.104 151.097 225.138 151.753C225.172 152.405 225.622 153.206 225.934 153.762C226.8 155.305 227.74 156.81 228.611 158.355L230.252 161.267L227.146 160.031C225.55 159.395 223.983 158.682 222.389 158.054C221.809 157.825 221 157.507 220.364 157.572C219.698 157.639 218.859 158.148 218.298 158.486C216.721 159.435 215.181 160.458 213.601 161.412L210.442 163.322L211.907 159.934C212.619 158.291 213.403 156.678 214.107 155.038C214.359 154.448 214.728 153.593 214.694 152.936C214.661 152.284 214.21 151.484 213.898 150.928C213.033 149.385 212.092 147.88 211.221 146.334L209.58 143.423L212.686 144.659C214.282 145.295 215.85 146.008 217.444 146.636C218.023 146.864 218.832 147.183 219.468 147.118C220.134 147.05 220.973 146.542 221.534 146.204C223.112 145.254 224.651 144.232 226.231 143.278L229.391 141.367L227.925 144.756Z" fill="#868C98"/>
<path fill-rule="evenodd" clip-rule="evenodd" d="M226.842 144.287C222.943 153.299 222.809 150.46 227.584 158.933C218.819 155.444 221.647 155.168 212.992 160.401C216.891 151.389 217.025 154.227 212.25 145.754C221.015 149.245 218.187 149.52 226.842 144.287Z" fill="#FEFEFE"/>
<path fill-rule="evenodd" clip-rule="evenodd" d="M36.6813 66.2905C36.5795 68.077 36.399 69.8617 36.303 71.6444C36.2685 72.2847 36.2176 73.214 36.4749 73.8188C36.7312 74.4197 37.4301 75.0159 37.9139 75.4306C39.2579 76.5807 40.6595 77.6703 42.0093 78.8204L44.5523 80.989L41.2115 80.8978C39.4941 80.8508 37.7766 80.7212 36.065 80.6799C35.4429 80.6645 34.5731 80.6444 33.9981 80.9247C33.3952 81.2175 32.7837 81.9836 32.3728 82.4943C31.2189 83.9286 30.1255 85.4185 28.9715 86.8585L26.6637 89.7394L26.873 86.054C26.9747 84.2664 27.1552 82.4828 27.2512 80.7C27.2858 80.0597 27.3367 79.1295 27.0784 78.5256C26.8221 77.9247 26.1232 77.3285 25.6394 76.9138C24.2954 75.7637 22.8938 74.6741 21.543 73.524L19 71.3554L22.3408 71.4466C24.0582 71.4937 25.7757 71.6233 27.4874 71.6645C28.1104 71.679 28.9792 71.7 29.5542 71.4197C30.1571 71.1269 30.7687 70.3608 31.1795 69.8501C32.3335 68.4149 33.4269 66.926 34.5808 65.485L36.8886 62.604L36.6794 66.2895L36.6813 66.2905Z" fill="#868C98"/>
<path fill-rule="evenodd" clip-rule="evenodd" d="M35.5034 66.2232C34.9466 76.0277 33.8435 73.4079 41.2442 79.7179C31.8131 79.4597 34.3735 78.228 28.0509 86.1212C28.6077 76.3176 29.7107 78.9365 22.3101 72.6265C31.7411 72.8847 29.1808 74.1164 35.5034 66.2232Z" fill="#FEFEFE"/>
</svg>
