<svg width="249" height="248" viewBox="0 0 249 248" fill="none" xmlns="http://www.w3.org/2000/svg">
<rect width="248" height="248" transform="translate(0.5)" fill="white"/>
<path fill-rule="evenodd" clip-rule="evenodd" d="M198.678 140.559H149.195C139.244 140.559 131.103 147.118 131.103 155.134C131.103 163.15 139.244 169.709 149.195 169.709H198.678V140.558V140.559Z" fill="#FEFEFE"/>
<path fill-rule="evenodd" clip-rule="evenodd" d="M46.3398 178.475H95.823C105.774 178.475 113.915 185.033 113.915 193.049C113.915 201.065 105.774 207.624 95.823 207.624H46.3398V178.474V178.475Z" fill="#FEFEFE"/>
<path fill-rule="evenodd" clip-rule="evenodd" d="M87.0467 199.147L87.4077 222.504L80.3171 213.59L73.2688 222.722L72.904 199.147H87.0467Z" fill="#CDD0D5"/>
<path fill-rule="evenodd" clip-rule="evenodd" d="M42.4758 174.858H100.675H183.738C194.08 174.858 202.542 183.045 202.542 193.05C202.542 203.055 194.081 211.242 183.738 211.242H100.675H88.6288L88.575 207.625H95.8221C105.773 207.625 113.914 201.066 113.914 193.05C113.914 185.034 105.773 178.476 95.8221 178.476H42.4749V174.858H42.4758ZM144.342 136.943H61.2794C50.9373 136.943 42.4749 145.13 42.4749 155.135C42.4749 165.14 50.9363 173.327 61.2794 173.327H144.342H202.541V169.71H149.194C139.243 169.71 131.102 163.151 131.102 155.135C131.102 147.119 139.243 140.56 149.194 140.56H202.541V136.943H144.342ZM87.2416 211.242H87.233L87.1773 207.625H87.1888L87.2416 211.242ZM71.7117 211.242H42.4758V207.625H71.6589L71.7117 211.242Z" fill="#E2E4E9"/>
<path d="M182.5 53L62 53.5C60.6999 53.5 58.1353 56.904 58.1353 61.1069V127.821C58.1353 132.024 60.3956 135.431 61.6956 135.431H183C184.3 135.431 186.881 132.024 186.881 127.821V61.1069C186.881 56.904 183.8 53 182.5 53Z" fill="white"/>
<path fill-rule="evenodd" clip-rule="evenodd" d="M90.0256 70.3239C99.6381 70.6263 107.186 78.6634 106.883 88.2759C106.878 88.4218 106.872 88.5667 106.864 88.7117L106.862 88.7444C106.854 88.8797 106.845 89.0151 106.833 89.1495L106.83 89.1841C106.82 89.3137 106.807 89.4433 106.794 89.5719L106.79 89.6141L106.789 89.6199L106.785 89.6525C106.771 89.7841 106.756 89.9156 106.738 90.0452L106.735 90.0653C106.717 90.1978 106.698 90.3303 106.678 90.4618L106.669 90.5146C106.649 90.6394 106.628 90.7632 106.605 90.8871L106.599 90.9207L106.597 90.9312L106.595 90.9418C106.57 91.0733 106.544 91.2049 106.517 91.3364L106.509 91.3748C106.483 91.4948 106.456 91.6147 106.428 91.7338L106.41 91.8106C106.381 91.9287 106.352 92.0468 106.322 92.1639L106.314 92.1936L106.31 92.21C106.277 92.3348 106.242 92.4605 106.206 92.5844L106.188 92.6468C106.156 92.7581 106.122 92.8685 106.086 92.9789L106.06 93.0596L105.968 93.338L105.903 93.5252L105.805 93.7969L105.766 93.9015L105.664 94.1607L105.615 94.2836L105.509 94.537L105.439 94.7012L105.324 94.9594L105.268 95.0823L105.155 95.3194L105.081 95.4701L105.079 95.474L104.998 95.6362L104.988 95.6554L104.86 95.9012L104.807 96.0001L104.664 96.2592L104.654 96.2775L104.564 96.4349L104.472 96.5914L104.379 96.7469L104.37 96.7613C104.247 96.9629 104.121 97.1616 103.991 97.3575L103.89 97.5072L103.788 97.6561L103.684 97.8039L103.665 97.8298C103.357 98.2618 103.031 98.6775 102.686 99.0788L102.685 99.0807C99.903 95.4029 95.6886 92.8522 90.8406 92.2839C93.7053 91.6954 95.8998 89.2052 95.9958 86.1552C96.1082 82.5869 93.3059 79.6032 89.7376 79.4909C86.1693 79.3786 83.1856 82.1808 83.0733 85.7492C82.9773 88.8 85.0115 91.4227 87.833 92.1898C82.959 92.4528 78.5929 94.7328 75.5853 98.2292L75.5843 98.2272C75.2656 97.8058 74.9651 97.369 74.6848 96.9188L74.6675 96.8919L74.5734 96.7373L74.4813 96.5828L74.3901 96.4263C74.2729 96.2228 74.1587 96.0164 74.0493 95.8081L74.0406 95.7936L73.9571 95.6324L73.8755 95.4701L73.7958 95.3079L73.7872 95.2887L73.6614 95.0218L73.6144 94.9191L73.5021 94.6666L73.4934 94.6474L73.4214 94.4804L73.4195 94.4765L73.3552 94.322L73.2573 94.0781L73.2083 93.9524L73.1104 93.6874L73.0499 93.5194L72.9606 93.2602L72.9193 93.1345L72.8349 92.8685L72.8022 92.762L72.7216 92.4845L72.6678 92.2925L72.593 92.0093L72.5728 91.9277C72.545 91.8154 72.5181 91.7031 72.4931 91.5898L72.4787 91.5265C72.4499 91.4007 72.424 91.273 72.3981 91.1463L72.3952 91.13L72.3894 91.1002C72.3664 90.9812 72.3443 90.8621 72.3232 90.7421L72.3098 90.6644C72.2896 90.5434 72.2704 90.4224 72.2521 90.3015L72.2464 90.2621C72.2272 90.1297 72.209 89.9972 72.1926 89.8637L72.1917 89.8532L72.1898 89.8426L72.1859 89.809C72.1715 89.6842 72.1571 89.5585 72.1456 89.4327L72.1398 89.3789C72.1274 89.2464 72.1168 89.113 72.1072 88.9796L72.1053 88.9594C72.0966 88.8279 72.0889 88.6964 72.0822 88.5639L72.0803 88.5312V88.5255L72.0784 88.4832C72.0726 88.3536 72.0688 88.224 72.0659 88.0935V88.0589C72.064 87.9236 72.0621 87.7892 72.063 87.6529V87.6202C72.064 87.4753 72.0669 87.3303 72.0707 87.1844C72.3731 77.5719 80.4102 70.0244 90.0237 70.3268L90.0256 70.3239Z" fill="white"/>
<path fill-rule="evenodd" clip-rule="evenodd" d="M90.0727 68.8128C100.519 69.1411 108.723 77.8771 108.394 88.3239C108.066 98.7706 99.3299 106.974 88.8832 106.645C78.4355 106.317 70.2333 97.5811 70.5616 87.1344C70.8909 76.6877 79.6259 68.4845 90.0727 68.8128ZM90.8397 92.281C95.6877 92.8502 99.9011 95.4 102.684 99.0777C105.189 96.167 106.753 92.4135 106.883 88.2759C107.186 78.6634 99.6381 70.6253 90.0256 70.3239C80.4131 70.0215 72.3751 77.569 72.0727 87.1814C71.9431 91.3181 73.2678 95.1638 75.5843 98.2253C78.592 94.729 82.9581 92.449 87.832 92.1859C85.0106 91.4189 82.9763 88.7962 83.0723 85.7453C83.1846 82.177 86.1683 79.3747 89.7367 79.487C93.305 79.5994 96.1072 82.583 95.9949 86.1514C95.8989 89.2022 93.7043 91.6925 90.8397 92.28V92.281Z" fill="#868C98"/>
<path fill-rule="evenodd" clip-rule="evenodd" d="M154.644 17.879C155.164 19.2749 155.62 20.6947 156.142 22.0848C156.33 22.584 156.601 23.3097 156.999 23.6851C157.395 24.0566 158.126 24.2793 158.634 24.4329C160.041 24.8611 161.474 25.224 162.887 25.6502L165.548 26.4537L162.971 27.4992C161.646 28.0368 160.295 28.5101 158.976 29.0505C158.496 29.2473 157.828 29.5219 157.482 29.927C157.12 30.3513 156.91 31.1395 156.768 31.6656C156.367 33.144 156.03 34.6435 155.632 36.1267L154.835 39.0922L153.765 36.2141C153.245 34.8182 152.788 33.3984 152.266 32.0083C152.079 31.5091 151.807 30.7833 151.41 30.4089C151.014 30.0365 150.283 29.8147 149.775 29.6602C148.367 29.232 146.935 28.8701 145.522 28.4429L142.86 27.6384L145.437 26.5929C146.762 26.0553 148.113 25.582 149.432 25.0416C149.912 24.8448 150.58 24.5702 150.926 24.1651C151.287 23.7408 151.498 22.9526 151.64 22.4265C152.041 20.9472 152.378 19.4476 152.776 17.9654L153.574 15L154.644 17.8781V17.879Z" fill="#868C98"/>
<path fill-rule="evenodd" clip-rule="evenodd" d="M153.723 18.2208C156.571 25.8778 154.856 24.2506 162.601 26.5901C155.328 29.5402 156.868 27.7469 154.683 35.8724C151.835 28.2154 153.55 29.8426 145.804 27.5031C153.077 24.553 151.538 26.3463 153.723 18.2208H153.723Z" fill="#FEFEFE"/>
<path d="M71.5888 114.563L71.5888 120.831L127.411 120.831L127.411 114.563L71.5888 114.563Z" fill="#E2E4E9"/>
<path d="M117.479 77.7081L117.479 83.9769L173.301 83.9769L173.301 77.7081L117.479 77.7081Z" fill="#E2E4E9"/>
<path d="M117.479 91.4803L117.479 97.7491L173.301 97.7491L173.301 91.4803L117.479 91.4803Z" fill="#E2E4E9"/>
<path d="M212.5 65L146.5 65.09C144.996 65.09 142.279 68.7622 142.279 73.2922V115.636C142.279 120.166 144.496 123.838 146 123.838H213C214.504 123.838 216.573 120.166 216.573 115.636V73.2922C216.573 68.7622 214.004 65 212.5 65Z" fill="#E2E4E9"/>
<path d="M190.859 105.192L168.609 105.567C167.604 105.584 166.803 106.366 166.819 107.314C166.835 108.262 167.662 109.016 168.667 109L190.917 108.624C191.922 108.607 192.723 107.825 192.707 106.878C192.691 105.93 191.864 105.175 190.859 105.192Z" fill="#868C98"/>
<path d="M193.125 86.7399L200.05 80.3789C200.745 79.7405 201.837 79.7866 202.475 80.4816C203.114 81.1766 203.068 82.2672 202.372 82.9056L196.811 88.0138L202.503 92.8992C203.219 93.5136 203.303 94.6023 202.688 95.3184C202.074 96.0346 200.985 96.1181 200.269 95.5037L193.133 89.3799C192.513 88.8471 192.368 87.9591 192.74 87.266C192.832 87.072 192.961 86.8925 193.128 86.7399H193.125Z" fill="#868C98"/>
<path d="M165.723 87.2016L158.587 81.0777C157.871 80.4633 156.781 80.5459 156.167 81.263C155.551 81.9792 155.635 83.0678 156.351 83.6822L162.081 88.5993L156.557 93.673C155.862 94.3114 155.816 95.4029 156.455 96.0979C157.093 96.793 158.185 96.839 158.88 96.2006L165.805 89.8397C166.407 89.2867 166.522 88.3939 166.128 87.7133C166.03 87.5232 165.894 87.3485 165.723 87.2006V87.2016Z" fill="#868C98"/>
<path fill-rule="evenodd" clip-rule="evenodd" d="M27.784 112.978C28.3034 114.373 28.7603 115.793 29.2816 117.183C29.4698 117.683 29.7405 118.408 30.1389 118.784C30.5344 119.155 31.2659 119.378 31.7738 119.532C33.1811 119.96 34.6135 120.323 36.0266 120.749L38.6877 121.552L36.111 122.598C34.7862 123.135 33.4346 123.609 32.1155 124.149C31.6355 124.346 30.9674 124.62 30.6218 125.026C30.2598 125.45 30.0496 126.238 29.9075 126.764C29.5072 128.243 29.1702 129.742 28.7718 131.225L27.975 134.191L26.9046 131.313C26.3853 129.917 25.9283 128.497 25.4061 127.107C25.2189 126.608 24.9472 125.882 24.5498 125.508C24.1542 125.135 23.4227 124.913 22.9149 124.759C21.5066 124.331 20.0752 123.969 18.6621 123.541L16 122.737L18.5766 121.692C19.9014 121.154 21.2531 120.681 22.5722 120.14C23.0522 119.943 23.7203 119.669 24.0659 119.264C24.4269 118.839 24.6381 118.051 24.7802 117.525C25.1805 116.046 25.5174 114.546 25.9158 113.064L26.7136 110.099L27.784 112.977V112.978Z" fill="#868C98"/>
<path fill-rule="evenodd" clip-rule="evenodd" d="M26.8643 113.32C29.7117 120.977 27.9971 119.35 35.7415 121.69C28.4685 124.64 30.0083 122.846 27.8234 130.972C24.976 123.315 26.6906 124.942 18.9453 122.603C26.2182 119.652 24.6784 121.446 26.8634 113.32H26.8643Z" fill="#FEFEFE"/>
<path fill-rule="evenodd" clip-rule="evenodd" d="M80.3363 215.928L74.2778 223.893C73.8832 224.412 73.3053 224.571 72.7687 224.308C72.232 224.044 71.8922 223.436 71.8807 222.718L71.7347 212.753H44.6464H40.9648V206.113H44.6464V179.987H40.9648V173.346H44.6464H52.8919C45.9079 170.381 40.9648 163.323 40.9648 155.135C40.9648 144.295 49.6278 135.431 60.2243 135.431H60.7341C58.263 133.795 56.6253 130.99 56.6253 127.821V61.1079C56.6253 56.0909 60.7302 51.986 65.7472 51.986H179.273C184.29 51.986 188.395 56.0909 188.395 61.1079V63.5789H208.373C213.716 63.5789 218.088 67.9498 218.088 73.2931V115.638C218.088 120.98 213.717 125.352 208.373 125.352H188.395V127.822C188.395 130.991 186.756 133.796 184.286 135.432H200.375H204.056V142.072H200.375V168.199H204.056V174.839H200.375H192.13C199.114 177.804 204.056 184.862 204.056 193.05C204.056 203.891 195.393 212.754 184.797 212.754H100.678H88.6547L88.7968 222.457C88.8083 223.181 88.4819 223.804 87.9482 224.08C87.4134 224.356 86.8279 224.205 86.4208 223.686L80.3392 215.929L80.3363 215.928ZM188.393 123.838H208.372C212.883 123.838 216.574 120.147 216.574 115.637V73.2922C216.574 68.7821 212.884 65.0909 208.372 65.0909H188.393H186.881H150.482C145.971 65.0909 142.279 68.7821 142.279 73.2922V115.637C142.279 120.147 145.97 123.838 150.482 123.838H186.881H188.393ZM150.482 63.578H186.881V61.1069C186.881 56.9213 183.457 53.497 179.271 53.497H65.7453C61.5597 53.497 58.1354 56.9213 58.1354 61.1069V127.82C58.1354 131.996 61.5443 135.415 65.7175 135.43H144.342H179.299C183.472 135.415 186.881 131.997 186.881 127.82V125.349H150.482C145.139 125.349 140.767 120.978 140.767 115.635V73.2903C140.767 67.9479 145.138 63.576 150.482 63.576V63.578ZM198.677 142.07H149.194C144.983 142.07 140.669 143.355 137.365 146.017C134.564 148.273 132.614 151.462 132.614 155.133C132.614 158.804 134.564 161.993 137.365 164.249C140.67 166.911 144.983 168.196 149.194 168.196H198.677V142.069V142.07ZM136.794 173.326C129.673 170.35 124.638 163.304 124.638 155.134C124.638 146.965 129.673 139.918 136.793 136.942H65.7453H61.2794C50.9373 136.942 42.4749 145.129 42.4749 155.134C42.4749 165.139 50.9363 173.326 61.2794 173.326H136.794ZM200.372 140.558H202.541V136.941H200.372H179.271H144.342C134.336 136.941 126.15 145.127 126.15 155.133C126.15 165.139 134.336 173.325 144.342 173.325H200.373H202.542V169.708H200.373H149.195C139.244 169.708 131.103 163.149 131.103 155.133C131.103 147.117 139.244 140.558 149.195 140.558H200.373H200.372ZM87.2416 211.241H87.233L87.256 212.753H87.2627L87.4058 222.503L80.3162 213.589L73.2669 222.721L72.903 199.146H87.0448L87.0458 199.189H87.063L87.1648 206.112H87.1523L87.1754 207.624H87.1869L87.2397 211.241H87.2416ZM71.6359 206.112L71.5341 199.189H71.5159V197.944H72.904H87.0458H88.433H88.4493V199.05L88.553 206.112H95.8221C100.034 206.112 104.347 204.828 107.651 202.165C110.452 199.909 112.402 196.72 112.402 193.049C112.402 189.378 110.452 186.189 107.651 183.933C104.346 181.271 100.034 179.987 95.8221 179.987H46.3389V206.113H71.6359V206.112ZM108.222 211.241C115.344 208.265 120.378 201.219 120.378 193.049C120.378 184.88 115.344 177.833 108.223 174.857H183.737C194.079 174.857 202.541 183.044 202.541 193.049C202.541 203.054 194.08 211.241 183.737 211.241H108.222ZM44.6445 178.474H42.4749V174.856H44.6445H100.675C110.681 174.856 118.867 183.042 118.867 193.048C118.867 203.054 110.681 211.24 100.675 211.24H88.6288L88.575 207.623H95.8221C105.773 207.623 113.914 201.064 113.914 193.048C113.914 185.032 105.773 178.474 95.8221 178.474H44.6445ZM44.6445 211.241H42.4749V207.624H44.6445H71.6579L71.7107 211.241H44.6445Z" fill="#868C98"/>
</svg>
