<svg width="249" height="248" viewBox="0 0 249 248" fill="none" xmlns="http://www.w3.org/2000/svg">
<rect width="248" height="248" transform="translate(0.5)" fill="white"/>
<path fill-rule="evenodd" clip-rule="evenodd" d="M159.491 184.575C159.384 188.978 159.383 193.423 159.143 197.806C159.04 199.693 158.953 203.491 157.008 204.614C154.808 205.883 152.065 203.414 150.577 202.118C147.123 199.11 143.826 195.719 140.518 192.555C137.704 189.863 134.834 187.235 131.99 184.575H78.3011C72.0438 184.575 66.929 179.787 66.929 173.929V119.035C66.929 113.177 72.0438 108.389 78.3011 108.389H164.686C170.943 108.389 176.058 113.177 176.058 119.035V173.929C176.058 179.787 170.943 184.575 164.686 184.575H159.49H159.491ZM78.3021 109.781H164.687C170.123 109.781 174.572 113.946 174.572 119.035V173.929C174.572 179.018 170.124 183.183 164.687 183.183H158.041C157.266 208.864 159.468 208.69 141.581 191.582C137.766 187.933 134.795 185.235 132.606 183.183H78.3011C72.8646 183.183 68.417 179.019 68.417 173.929V119.035C68.417 113.946 72.8646 109.781 78.3011 109.781H78.3021Z" fill="#868C98"/>
<path fill-rule="evenodd" clip-rule="evenodd" d="M78.3021 109.781H164.687C170.123 109.781 174.571 113.946 174.571 119.035V173.929C174.571 179.018 170.123 183.183 164.687 183.183H158.041C157.266 208.864 159.467 208.69 141.581 191.582C137.766 187.933 134.795 185.235 132.607 183.183H78.3021C72.8656 183.183 68.4179 179.019 68.4179 173.929V119.035C68.4179 113.946 72.8656 109.781 78.3021 109.781Z" fill="#CDD0D5"/>
<path fill-rule="evenodd" clip-rule="evenodd" d="M107.018 40.2147H206.213C211.74 40.2147 216.261 44.7363 216.261 50.2621V109.871C216.261 115.397 211.74 119.919 206.213 119.919H199.458C198.671 147.805 200.908 147.617 182.727 129.039C178.849 125.076 175.829 122.147 173.604 119.919H107.017C101.49 119.919 96.9692 115.397 96.9692 109.871V50.2621C96.9692 44.7363 101.49 40.2147 107.017 40.2147H107.018Z" fill="#E2E4E9"/>
<path fill-rule="evenodd" clip-rule="evenodd" d="M156.529 66.0329C155.406 64.7936 154.433 62.6701 153.201 61.2291C139.542 45.2451 121.093 66.1261 129.949 79.2147C134.63 86.1325 148.87 100.626 156.529 104.724C163.672 99.7116 183.594 83.4243 185.319 74.3485C186.712 67.0227 182.692 60.151 177.076 57.1731C169.535 53.1747 164.298 56.8035 161.233 59.8553C158.913 62.1641 158.1 63.2489 156.529 66.0329Z" fill="#868C98"/>
<path fill-rule="evenodd" clip-rule="evenodd" d="M75.7946 162.896C72.904 165.785 69.9866 168.64 67.1258 171.562C63.7638 174.997 60.4125 178.679 56.9018 181.945C55.3888 183.352 52.6 186.033 50.3651 184.655C48.3885 183.437 48.3002 179.312 48.1955 177.263C47.9517 172.504 47.9507 167.678 47.8413 162.896H42.5594C36.1984 162.896 31 157.698 31 151.337V91.7273C31 85.3664 36.1984 80.168 42.5594 80.168H95.4573V50.2611C95.4573 43.9001 100.656 38.7017 107.017 38.7017H206.212C212.573 38.7017 217.772 43.9001 217.772 50.2611V109.87C217.772 116.231 212.573 121.43 206.212 121.43H200.931C200.822 126.211 200.82 131.037 200.576 135.797C200.472 137.845 200.383 141.971 198.407 143.189C196.172 144.567 193.382 141.886 191.87 140.479C188.359 137.213 185.008 133.531 181.646 130.096C178.785 127.173 175.869 124.318 172.977 121.43H153.315V151.337C153.315 157.698 148.116 162.896 141.755 162.896H75.7946ZM96.9693 80.1689H141.755C148.116 80.1689 153.315 85.3674 153.315 91.7283V119.919H173.604C175.829 122.147 178.849 125.077 182.727 129.039C200.908 147.616 198.67 147.805 199.458 119.919H206.213C211.74 119.919 216.261 115.397 216.261 109.871V50.2621C216.261 44.7363 211.74 40.2147 206.213 40.2147H107.018C101.491 40.2147 96.9702 44.7363 96.9702 50.2621V80.1689H96.9693ZM151.804 121.43H107.018C100.657 121.43 95.4582 116.231 95.4582 109.87V81.68H42.5603C37.0336 81.68 32.513 86.2016 32.513 91.7273V151.337C32.513 156.862 37.0336 161.384 42.5603 161.384H49.3158C50.103 189.27 47.8653 189.082 66.0467 170.504C69.9251 166.541 72.9443 163.612 75.1696 161.384H141.757C147.284 161.384 151.804 156.862 151.804 151.337V121.43H151.804ZM151.804 119.918H107.018C101.491 119.918 96.9702 115.396 96.9702 109.87V81.68H141.756C147.283 81.68 151.804 86.2016 151.804 91.7273V119.918Z" fill="#868C98"/>
<path fill-rule="evenodd" clip-rule="evenodd" d="M141.756 81.6809H42.5603C37.0336 81.6809 32.5129 86.2026 32.5129 91.7283V151.338C32.5129 156.863 37.0336 161.385 42.5603 161.385H49.3158C50.103 189.271 47.8653 189.083 66.0467 170.505C69.9251 166.542 72.9443 163.613 75.1696 161.385H141.757C147.284 161.385 151.804 156.863 151.804 151.338V91.7283C151.804 86.2026 147.284 81.6809 141.757 81.6809H141.756Z" fill="#FEFEFE"/>
<path fill-rule="evenodd" clip-rule="evenodd" d="M50.945 41.3888C50.2346 43.0313 49.4503 44.6441 48.7456 46.2848C48.4932 46.8742 48.1245 47.7296 48.1581 48.3862C48.1917 49.0381 48.642 49.8387 48.954 50.3945C49.8199 51.9373 50.7607 53.4426 51.6314 54.9882L53.272 57.8998L50.1664 56.6633C48.57 56.0278 47.0032 55.3145 45.4087 54.6867C44.8288 54.4582 44.0205 54.1395 43.384 54.2048C42.7178 54.272 41.8787 54.7808 41.3181 55.1187C39.7408 56.0681 38.201 57.0905 36.6208 58.0448L33.4624 59.9552L34.9274 56.5664C35.6387 54.9238 36.4231 53.311 37.1268 51.6704C37.3792 51.081 37.7479 50.2256 37.7143 49.5689C37.6807 48.9171 37.2304 48.1165 36.9184 47.5606C36.0535 46.0179 35.1117 44.5126 34.241 42.967L32.6003 40.0553L35.706 41.2918C37.3024 41.9273 38.8701 42.6406 40.4637 43.2685C41.0436 43.4969 41.8519 43.8157 42.4883 43.7504C43.1546 43.6832 43.9936 43.1744 44.5543 42.8365C46.1325 41.887 47.6714 40.8646 49.2516 39.9104L52.4109 38L50.945 41.3888Z" fill="#868C98"/>
<path fill-rule="evenodd" clip-rule="evenodd" d="M49.8621 40.9203C45.9636 49.9328 45.8292 47.0941 50.6042 55.567C41.8394 52.0774 44.6676 51.8019 36.0122 57.0349C39.9108 48.0224 40.0452 50.8611 35.2701 42.3882C44.0349 45.8787 41.2068 46.1533 49.8621 40.9203Z" fill="#FEFEFE"/>
<path fill-rule="evenodd" clip-rule="evenodd" d="M201.719 190.752C201.008 192.395 200.224 194.008 199.519 195.648C199.267 196.238 198.898 197.093 198.932 197.75C198.965 198.402 199.416 199.202 199.728 199.758C200.594 201.301 201.534 202.806 202.405 204.352L204.046 207.263L200.94 206.027C199.344 205.391 197.777 204.678 196.182 204.05C195.603 203.822 194.794 203.503 194.158 203.568C193.491 203.636 192.652 204.144 192.092 204.482C190.515 205.432 188.975 206.454 187.395 207.408L184.236 209.319L185.701 205.93C186.412 204.287 187.197 202.675 187.9 201.034C188.153 200.445 188.522 199.589 188.488 198.933C188.454 198.281 188.004 197.48 187.692 196.924C186.827 195.381 185.885 193.876 185.015 192.331L183.374 189.419L186.48 190.655C188.076 191.291 189.644 192.004 191.237 192.632C191.817 192.861 192.626 193.179 193.262 193.114C193.928 193.047 194.767 192.538 195.328 192.2C196.906 191.251 198.445 190.228 200.025 189.274L203.185 187.364L201.719 190.752Z" fill="#868C98"/>
<path fill-rule="evenodd" clip-rule="evenodd" d="M200.636 190.283C196.737 199.295 196.603 196.457 201.378 204.93C192.613 201.44 195.441 201.164 186.786 206.397C190.685 197.385 190.819 200.224 186.044 191.751C194.809 195.241 191.98 195.516 200.636 190.283Z" fill="#FEFEFE"/>
<path d="M71.7415 133.866H115.45C116.061 133.866 116.56 134.365 116.56 134.975V134.976C116.56 135.587 116.061 136.086 115.45 136.086H71.7415C71.1309 136.086 70.6317 135.587 70.6317 134.976V134.975C70.6317 134.365 71.1309 133.866 71.7415 133.866ZM56.5495 116.861L64.2276 108.877L56.5504 100.893C56.1271 100.453 56.1405 99.7472 56.5811 99.3238C57.0218 98.8995 57.7274 98.9139 58.1507 99.3536L65.7683 107.275C66.7955 108.343 67.3082 108.877 67.3082 108.877C66.281 109.945 65.7683 110.479 65.7683 110.479L58.1507 118.4C57.7274 118.841 57.0208 118.854 56.5811 118.431C56.1405 118.007 56.1271 117.302 56.5504 116.861H56.5495ZM118.548 107.275L126.165 99.3536C126.588 98.913 127.294 98.8995 127.734 99.3238C128.175 99.7472 128.188 100.453 127.765 100.893L120.088 108.877L127.766 116.861C128.189 117.302 128.175 118.007 127.735 118.431C127.295 118.854 126.589 118.84 126.166 118.4L118.548 110.479C118.548 110.479 118.035 109.945 117.008 108.877C117.008 108.877 117.522 108.343 118.548 107.275Z" fill="#868C98"/>
</svg>
