<svg width="249" height="248" viewBox="0 0 249 248" fill="none" xmlns="http://www.w3.org/2000/svg">
<rect width="248" height="248" transform="translate(0.5)" fill="white"/>
<path fill-rule="evenodd" clip-rule="evenodd" d="M151.885 212.983L67.9155 188.019C62.6326 186.449 59.599 180.848 61.1696 175.566L92.1401 71.3927C93.7107 66.1098 99.3113 63.0762 104.593 64.6468L188.563 89.6105C193.845 91.1811 196.879 96.7818 195.308 102.065L164.338 206.238C162.767 211.521 157.167 214.555 151.885 212.984V212.983Z" fill="#868C98"/>
<path d="M188.133 91.0594L104.163 66.0955C99.6619 64.7572 94.9962 67.0918 93.7422 71.31L62.4669 176.509C61.2128 180.727 63.8453 185.231 68.3468 186.57L152.316 211.534C156.818 212.872 161.483 210.537 162.737 206.319L194.013 101.12C195.267 96.9021 192.634 92.3977 188.133 91.0594Z" fill="#E2E4E9"/>
<path fill-rule="evenodd" clip-rule="evenodd" d="M140.405 196.442L54.2595 170.831C48.8605 169.226 45.7597 163.503 47.3648 158.103L81.6051 42.9305C83.2103 37.5315 88.9338 34.4307 94.3328 36.0368L180.478 61.6477C185.877 63.2528 188.978 68.9763 187.373 74.3763L153.133 189.548C151.528 194.947 145.804 198.048 140.405 196.443V196.442ZM140.835 194.994L54.6906 169.383C50.0912 168.016 47.4474 163.134 48.8144 158.535L83.0547 43.3625C84.4218 38.7632 89.3034 36.1193 93.9027 37.4864L180.047 63.0973C184.647 64.4643 187.291 69.3459 185.924 73.9453L151.683 189.117C150.316 193.717 145.435 196.362 140.835 194.994Z" fill="#868C98"/>
<path d="M180.049 63.0969L93.9029 37.4859C89.2848 36.113 84.4281 38.7437 83.0552 43.3618L48.8148 158.534C47.4418 163.152 50.0725 168.009 54.6906 169.382L140.836 194.993C145.455 196.366 150.311 193.735 151.684 189.117L185.925 73.9446C187.298 69.3265 184.667 64.4698 180.049 63.0969Z" fill="white"/>
<path fill-rule="evenodd" clip-rule="evenodd" d="M138.626 156.739C139.481 156.675 140.389 157.315 140.276 158.433C140.258 158.602 140.213 158.763 140.146 158.91C139.899 159.521 139.283 159.906 138.607 159.844C130.971 159.14 123.893 163.99 121.778 171.37C119.456 179.474 124.412 186.691 131.695 190.812C132.517 191.276 137.559 193.562 140.175 194.796C139.817 195.169 139.638 195.356 139.638 195.356C136.371 194.834 134.168 194.12 133.027 193.214C132.676 193.786 132.083 193.969 131.413 193.769C103.862 185.496 75.5869 178.08 48.3622 168.967C42.8077 166.857 39.7942 160.826 41.431 155.112C42.848 150.166 47.3974 146.759 52.5353 146.814H52.544C53.1805 146.821 53.815 146.879 54.441 146.992C63.1299 147.844 71.815 148.796 80.4915 149.771C99.8864 151.949 119.264 154.298 138.628 156.738L138.626 156.739Z" fill="#868C98"/>
<path fill-rule="evenodd" clip-rule="evenodd" d="M50.2659 167.965C50.0768 167.923 49.8877 167.875 49.6985 167.821C49.4278 167.743 49.1638 167.655 48.9046 167.556L48.897 167.554V167.553C44.1181 165.739 41.4483 160.532 42.8825 155.528C44.1411 151.137 48.1626 148.287 52.5181 148.325V148.324L52.5258 148.325C53.0902 148.331 53.6595 148.384 54.2298 148.489C61.1005 149.163 88.7619 151.975 138.77 158.279C138.776 158.218 138.768 158.238 138.744 158.337C130.532 157.58 122.679 162.733 120.324 170.952C117.717 180.047 122.807 189.523 131.734 192.423L50.265 167.964L50.2659 167.965Z" fill="#CDD0D5"/>
<path d="M135.428 103.757L109.064 95.9191C107.874 95.5652 106.638 96.1888 106.304 97.3117C105.97 98.4347 106.665 99.632 107.855 99.9858L134.219 107.824C135.41 108.178 136.645 107.554 136.979 106.431C137.313 105.308 136.619 104.111 135.428 103.757Z" fill="#868C98"/>
<path d="M144.966 82.8512L155.496 77.9312C156.553 77.4368 157.821 77.8976 158.316 78.9546C158.81 80.0115 158.349 81.2806 157.292 81.7741L148.837 85.7255L153.727 93.6013C154.342 94.592 154.035 95.9072 153.044 96.5226C152.054 97.1379 150.739 96.8307 150.123 95.84L143.992 85.9664C143.459 85.1082 143.618 84.007 144.314 83.3283C144.494 83.1344 144.713 82.9712 144.967 82.8522L144.966 82.8512Z" fill="#868C98"/>
<path d="M112.496 73.1975L106.364 63.3238C105.749 62.3322 104.435 62.025 103.443 62.6413C102.452 63.2567 102.145 64.5709 102.761 65.5616L107.684 73.4902L99.2864 77.4157C98.2294 77.9091 97.7686 79.1783 98.263 80.2352C98.7574 81.2922 100.026 81.7529 101.083 81.2585L111.613 76.3385C112.529 75.9104 112.996 74.9014 112.784 73.952C112.74 73.6909 112.646 73.4346 112.498 73.1965L112.496 73.1975Z" fill="#868C98"/>
<path fill-rule="evenodd" clip-rule="evenodd" d="M171.262 81.5139L163.095 87.297C162.562 87.6743 161.964 87.6522 161.53 87.2403C161.097 86.8275 160.955 86.1459 161.159 85.4576L168.921 59.3514L180.168 62.6951C182.025 63.2471 183.559 64.3808 184.639 65.8429L177.375 90.2778C177.168 90.9719 176.671 91.4682 176.079 91.5718C175.486 91.6746 174.973 91.3549 174.74 90.7376L171.262 81.5149V81.5139ZM183.437 65.0163L176.037 89.9053L171.945 79.2762L162.483 85.8752L170.132 60.1482L180.048 63.0963C181.35 63.4832 182.494 64.1523 183.437 65.0163Z" fill="#868C98"/>
<path fill-rule="evenodd" clip-rule="evenodd" d="M183.437 65.0163L176.037 89.9053L171.945 79.2762L162.483 85.8752L170.132 60.1482L180.048 63.0963C181.35 63.4832 182.494 64.1523 183.437 65.0163Z" fill="#CDD0D5"/>
<path d="M123.96 130.517L122.608 130.115C121.469 129.776 120.1 131 119.551 132.849L116.907 141.742C116.357 143.59 116.835 145.364 117.974 145.702L119.326 146.104C120.465 146.443 121.834 145.219 122.384 143.37L125.028 134.477C125.577 132.628 125.099 130.855 123.96 130.517Z" fill="#E2E4E9"/>
<path d="M135.497 124.965L134.144 124.563C133.005 124.224 131.401 126.242 130.56 129.069L126.517 142.67C125.676 145.497 125.918 148.064 127.057 148.402L128.409 148.804C129.548 149.143 131.153 147.126 131.993 144.298L136.037 130.697C136.878 127.87 136.636 125.304 135.497 124.965Z" fill="#E2E4E9"/>
<path d="M143.041 132.399L141.689 131.997C140.55 131.659 139.082 133.217 138.409 135.479L135.175 146.359C134.502 148.62 134.88 150.728 136.019 151.067L137.372 151.469C138.511 151.808 139.979 150.249 140.652 147.987L143.886 137.107C144.559 134.846 144.18 132.738 143.041 132.399Z" fill="#E2E4E9"/>
<path d="M150.646 143.298L149.293 142.896C148.154 142.557 146.912 143.353 146.52 144.674L144.632 151.026C144.239 152.346 144.844 153.691 145.983 154.029L147.336 154.432C148.475 154.77 149.716 153.974 150.109 152.654L151.997 146.302C152.389 144.982 151.784 143.637 150.646 143.298Z" fill="#E2E4E9"/>
<path fill-rule="evenodd" clip-rule="evenodd" d="M95.9907 108.026C105.21 110.767 110.461 120.462 107.72 129.681C107.679 129.821 107.635 129.959 107.59 130.097L107.581 130.127C107.539 130.257 107.495 130.386 107.45 130.512L107.44 130.545C107.396 130.668 107.351 130.79 107.305 130.911L107.291 130.95L107.288 130.956L107.276 130.987C107.228 131.109 107.18 131.232 107.131 131.354L107.123 131.372C107.072 131.496 107.019 131.619 106.966 131.741L106.944 131.79C106.893 131.905 106.841 132.02 106.788 132.134L106.773 132.164L106.769 132.175L106.764 132.184C106.706 132.305 106.648 132.426 106.588 132.545L106.57 132.58C106.515 132.69 106.458 132.799 106.401 132.907L106.364 132.976C106.306 133.083 106.247 133.189 106.188 133.294L106.173 133.321L106.166 133.336C106.101 133.448 106.036 133.56 105.97 133.672L105.936 133.727C105.877 133.827 105.815 133.925 105.754 134.023L105.709 134.095L105.548 134.341L105.438 134.506L105.274 134.744L105.21 134.834L105.045 135.06L104.967 135.166L104.8 135.385L104.689 135.525L104.513 135.745L104.427 135.849L104.258 136.05L104.148 136.176L104.145 136.18L104.024 136.316L104.01 136.333L103.823 136.537L103.747 136.62L103.542 136.833L103.528 136.848L103.401 136.978L103.273 137.106L103.144 137.232L103.131 137.244C102.961 137.407 102.788 137.567 102.613 137.724L102.477 137.843L102.34 137.961L102.202 138.078L102.177 138.098C101.769 138.437 101.347 138.757 100.912 139.056L100.91 139.057C99.1558 134.791 95.7306 131.252 91.1869 129.468C94.1072 129.628 96.8634 127.779 97.7331 124.854C98.7507 121.432 96.8009 117.833 93.3795 116.815C89.9571 115.798 86.3581 117.747 85.3405 121.17C84.4707 124.095 85.7696 127.15 88.3021 128.611C83.5213 127.624 78.7194 128.716 74.9197 131.331L74.9187 131.329C74.7181 130.841 74.5386 130.341 74.3821 129.835L74.3725 129.805L74.3206 129.632L74.2707 129.458L74.2227 129.284C74.1603 129.058 74.1037 128.829 74.0509 128.599L74.047 128.583L74.0077 128.406L73.9702 128.229L73.9347 128.052L73.9309 128.032L73.8771 127.741L73.8579 127.63L73.8138 127.357L73.8109 127.336L73.784 127.156V127.151L73.761 126.985L73.7293 126.725L73.7139 126.591L73.6861 126.309L73.6707 126.132L73.6505 125.858L73.6429 125.727L73.6285 125.447L73.6246 125.336L73.617 125.047L73.6141 124.848V124.556L73.615 124.47C73.617 124.355 73.6198 124.239 73.6237 124.124L73.6256 124.058C73.6304 123.93 73.6362 123.799 73.6448 123.67L73.6458 123.654L73.6477 123.623C73.6554 123.502 73.664 123.381 73.6745 123.26L73.6813 123.182C73.6918 123.06 73.7043 122.938 73.7178 122.816L73.7216 122.777C73.737 122.644 73.7533 122.511 73.7715 122.378L73.7734 122.368L73.7744 122.356L73.7802 122.323C73.7974 122.198 73.8166 122.073 73.8368 121.948L73.8454 121.895C73.8675 121.764 73.8905 121.632 73.9155 121.501L73.9193 121.482C73.9443 121.352 73.9712 121.222 73.9981 121.094L74.0048 121.062L74.0058 121.056L74.0153 121.015C74.0432 120.888 74.072 120.762 74.1027 120.635L74.1113 120.601C74.144 120.47 74.1766 120.338 74.2122 120.208L74.2208 120.176C74.2582 120.036 74.2976 119.896 74.3398 119.756C77.0806 110.538 86.7757 105.286 95.9936 108.027L95.9907 108.026Z" fill="white"/>
<path fill-rule="evenodd" clip-rule="evenodd" d="M96.4218 106.577C106.441 109.556 112.148 120.092 109.17 130.111C106.192 140.131 95.6547 145.837 85.6352 142.859C75.6166 139.88 69.9094 129.344 72.8874 119.324C75.8662 109.306 86.4023 103.599 96.4218 106.577ZM91.1859 129.467C95.7296 131.252 99.1549 134.791 100.909 139.056C104.072 136.879 106.54 133.648 107.72 129.68C110.461 120.461 105.21 110.766 95.9907 108.025C86.7719 105.284 77.0768 110.536 74.337 119.755C73.1571 123.722 73.4595 127.777 74.9197 131.329C78.7184 128.714 83.5213 127.622 88.3021 128.609C85.7686 127.149 84.4707 124.093 85.3405 121.168C86.3571 117.745 89.9571 115.796 93.3795 116.813C96.8019 117.831 98.7507 121.43 97.7331 124.852C96.8634 127.778 94.1072 129.627 91.1869 129.466L91.1859 129.467Z" fill="#868C98"/>
<path fill-rule="evenodd" clip-rule="evenodd" d="M216.407 166.069C216.703 167.528 216.934 169.002 217.234 170.456C217.341 170.978 217.497 171.738 217.832 172.17C218.165 172.599 218.853 172.931 219.331 173.162C220.655 173.804 222.013 174.384 223.342 175.026L225.847 176.233L223.14 176.866C221.748 177.191 220.339 177.449 218.952 177.778C218.448 177.897 217.745 178.065 217.341 178.412C216.917 178.774 216.587 179.52 216.364 180.018C215.738 181.416 215.174 182.846 214.549 184.248L213.301 187.053L212.69 184.044C212.395 182.585 212.163 181.111 211.864 179.657C211.756 179.134 211.601 178.375 211.267 177.943C210.933 177.514 210.245 177.181 209.768 176.949C208.444 176.307 207.086 175.727 205.756 175.087L203.252 173.879L205.959 173.248C207.351 172.922 208.76 172.665 210.146 172.336C210.65 172.217 211.354 172.05 211.757 171.702C212.181 171.339 212.511 170.593 212.734 170.095C213.359 168.696 213.925 167.267 214.549 165.864L215.797 163.059L216.406 166.069H216.407Z" fill="#868C98"/>
<path fill-rule="evenodd" clip-rule="evenodd" d="M215.446 166.264C217.069 174.27 215.627 172.395 222.915 175.91C215.273 177.694 217.072 176.162 213.651 183.849C212.028 175.843 213.47 177.717 206.182 174.203C213.824 172.418 212.025 173.95 215.446 166.264Z" fill="#FEFEFE"/>
<path fill-rule="evenodd" clip-rule="evenodd" d="M36.1558 66.4544C36.4515 67.9136 36.6819 69.3881 36.9824 70.8425C37.0899 71.3648 37.2454 72.1242 37.5805 72.5562C37.9136 72.9853 38.6019 73.3184 39.079 73.5488C40.4038 74.1911 41.7613 74.7709 43.0909 75.4122L45.5955 76.6198L42.8883 77.2515C41.4963 77.577 40.088 77.8342 38.7008 78.1635C38.1968 78.2826 37.4931 78.4506 37.0899 78.7971C36.6666 79.16 36.3363 79.9059 36.1136 80.4042C35.4886 81.8029 34.9232 83.2314 34.2982 84.6349L33.0502 87.44L32.4397 84.4304C32.144 82.9712 31.9136 81.4967 31.6131 80.0432C31.5056 79.521 31.3501 78.7616 31.015 78.3296C30.6819 77.9005 29.9936 77.5683 29.5165 77.337C28.1917 76.6947 26.8342 76.1149 25.5046 75.4736L23 74.2659L25.7082 73.6333C27.1002 73.3079 28.5094 73.0506 29.8957 72.7213C30.4006 72.6013 31.1033 72.4342 31.5075 72.0877C31.9309 71.7248 32.2611 70.9789 32.4838 70.4816C33.1098 69.0829 33.6752 67.6535 34.2992 66.2509L35.5472 63.4448L36.1578 66.4544H36.1558Z" fill="#868C98"/>
<path fill-rule="evenodd" clip-rule="evenodd" d="M35.193 66.6493C36.8163 74.6557 35.3754 72.7818 42.6627 76.2954C35.0202 78.08 36.8202 76.5478 33.3987 84.2345C31.7754 76.2281 33.2173 78.1021 25.929 74.5885C33.5715 72.8038 31.7725 74.336 35.193 66.6493Z" fill="#FEFEFE"/>
</svg>
